<?xml version="1.0" encoding="UTF-8"?>
<!-- Created with Inkscape (http://www.inkscape.org/) -->
<svg width="238.12502mm" height="158.75mm" version="1.1" viewBox="0 0 238.12502 158.75" xmlns="http://www.w3.org/2000/svg" xmlns:xlink="http://www.w3.org/1999/xlink">
 <g transform="translate(114.41972,-64.802409)">
  <g transform="matrix(3.6916889,0,0,2.0509388,-906.10564,-906.79805)">
   <path transform="matrix(.55555571 0 0 1 88.30067 34.898556)" d="m227.07031 516.23952h116.10537v-77.40358h-116.10537z" fill="#ffffff"/>
   <rect transform="scale(-1,1)" x="-240.25208" y="473.7345" width="25.801199" height="77.40358" fill="#1e3061" stop-color="#000000" style="-inkscape-stroke:none;font-variation-settings:normal;paint-order:fill markers stroke"/>
  </g>
  <g transform="matrix(1.0018137 0 0 1.0018137 -.27198014 -.03675725)">
   <g>
    <path d="m-79.097298 85.335133v10.142938l-0.0062 1.074261c0 0.283399-0.0123 0.60634-0.04594 0.876551-0.191147 1.6081-0.92926 3.005317-2.023313 4.092767-1.278575 1.27197-3.044844 2.06286-4.989092 2.06286-1.937646 0-3.657768-0.81724-4.942948-2.09582-1.318118-1.31153-2.082646-3.110756-2.082646-4.969316v-11.210596" fill="#ffffff"/>
    <path d="m-97.959323 96.520072v0.0123c0 3.222804 1.337889 6.168788 3.479847 8.297558 2.148523 2.13536 5.10772 3.46666 8.343712 3.46666 3.255762 0 6.201751-1.31811 8.34369-3.44688 2.141939-2.12875 3.466661-5.068179 3.466661-8.310754v-15.936055l-23.620723-0.0062zm18.88209-11.151303v10.142938l-0.0062 1.074261c0 0.283399-0.0123 0.60634-0.04594 0.876551-0.19771 1.6081-0.935864 3.005321-2.023313 4.092771-1.278575 1.27197-3.044844 2.06286-4.989093 2.06286-1.937645 0-3.657767-0.81724-4.942947-2.09582-1.318118-1.31153-2.082646-3.11076-2.082646-4.96932v-11.204011" fill="#e83028"/>
    <g fill="#0c2b5c">
     <path d="m-88.894332 94.726741v-2.23421h-3.110741l-0.0062 2.23421c0 0.461339 0.178021 0.876551 0.461338 1.179721 0.283399 0.30317 0.672257 0.494297 1.100636 0.494297 0.42838 0 0.817238-0.191148 1.100637-0.494297 0.283398-0.296586 0.454754-0.718382 0.454754-1.179721zm-2.366025-1.693767c0.171254 0 0.309774 0.138438 0.309774 0.309753 0 0.171253-0.138438 0.309753-0.309774 0.309753-0.164895 0-0.309753-0.138438-0.309753-0.309753 0-0.171253 0.145001-0.309753 0.309753-0.309753m0.0062 2.313274c-0.171253 0-0.309753-0.138438-0.309753-0.309753 0-0.164896 0.138438-0.309754 0.309753-0.309754 0.171253 0 0.309753 0.145002 0.309753 0.309754 0 0.171253-0.138438 0.309753-0.309753 0.309753m0.817258-0.863363c-0.171253 0-0.309794-0.138439-0.309794-0.309753 0-0.171254 0.138438-0.309754 0.309794-0.309754 0.171253 0 0.309733 0.138439 0.309733 0.309754 0 0.171253-0.138439 0.309753-0.309733 0.309753m0.863343 0.863363c-0.171254 0-0.30317-0.138438-0.30317-0.309753 0-0.171254 0.131875-0.309754 0.30317-0.309754 0.171253 0 0.309774 0.138439 0.309774 0.309754 0 0.171253-0.138439 0.309753-0.309774 0.309753m0-1.693768c-0.164896 0-0.30317-0.138438-0.30317-0.309753 0-0.171253 0.138438-0.309753 0.30317-0.309753 0.171253 0 0.309774 0.138438 0.309774 0.309753 0 0.171253-0.138439 0.309753-0.309774 0.309753"/>
     <path d="m-80.273826 94.726741v-2.23421h-3.110762l-0.0062 2.23421c0 0.461339 0.178022 0.876551 0.461339 1.179721 0.283398 0.30317 0.672236 0.494297 1.100636 0.494297 0.428359 0 0.817196-0.191148 1.100616-0.494297 0.283398-0.296586 0.454734-0.718382 0.454734-1.179721zm-2.366004-1.693767c0.171253 0 0.309732 0.138438 0.309732 0.309753 0 0.171253-0.138438 0.309753-0.309732 0.309753-0.171254 0-0.309754-0.138438-0.309754-0.309753 0-0.171253 0.138439-0.309753 0.309754-0.309753m0.0062 2.313274c-0.171253 0-0.309753-0.138438-0.309753-0.309753 0-0.164896 0.138438-0.309754 0.309753-0.309754 0.164896 0 0.30317 0.145002 0.30317 0.309754 0 0.171253-0.138438 0.309753-0.30317 0.309753m0.817238-0.863363c-0.171253 0-0.309753-0.138439-0.309753-0.309753 0-0.171254 0.138438-0.309754 0.309753-0.309754 0.171253 0 0.309753 0.138439 0.309753 0.309754 0 0.171253-0.138438 0.309753-0.309753 0.309753m0.863363 0.863363c-0.171253 0-0.309753-0.138438-0.309753-0.309753 0-0.171254 0.138438-0.309754 0.309753-0.309754 0.171254 0 0.309753 0.138439 0.309753 0.309754 0 0.171253-0.138438 0.309753-0.309753 0.309753m0-1.693768c-0.171253 0-0.30317-0.138438-0.30317-0.309753 0-0.171253 0.131876-0.309753 0.30317-0.309753 0.171254 0 0.309753 0.138438 0.309753 0.309753 0 0.171253-0.138438 0.309753-0.309753 0.309753"/>
     <g transform="translate(-.00655345)">
      <path d="m-84.577495 94.727027v-2.23421h-3.110761l-0.0062 2.23421c0 0.461339 0.177816 0.876551 0.461318 1.179721 0.283398 0.30317 0.672236 0.494297 1.100636 0.494297 0.428379 0 0.817217-0.191148 1.100616-0.494297 0.283398-0.296586 0.454754-0.718382 0.454754-1.179721zm-2.366004-1.693767c0.171254 0 0.309753 0.138438 0.309753 0.309753 0 0.171253-0.138438 0.309753-0.309753 0.309753-0.171253 0-0.309774-0.138438-0.309774-0.309753 0-0.171253 0.138439-0.309753 0.309774-0.309753m0.0062 2.313274c-0.171253 0-0.309753-0.138438-0.309753-0.309753 0-0.164896 0.138438-0.309754 0.309753-0.309754 0.164895 0 0.30317 0.145002 0.30317 0.309754 0 0.171253-0.138439 0.309753-0.30317 0.309753m0.817238-0.863363c-0.171254 0-0.309754-0.138439-0.309754-0.309753 0-0.171254 0.138439-0.309754 0.309754-0.309754 0.171253 0 0.309753 0.138439 0.309753 0.309754 0 0.171253-0.138439 0.309753-0.309753 0.309753m0.863363 0.863363c-0.171254 0-0.309754-0.138438-0.309754-0.309753 0-0.171254 0.138439-0.309754 0.309754-0.309754 0.171253 0 0.309774 0.138439 0.309774 0.309754 0 0.171253-0.138439 0.309753-0.309774 0.309753m0-1.693768c-0.171254 0-0.309754-0.138438-0.309754-0.309753 0-0.171253 0.138439-0.309753 0.309754-0.309753 0.171253 0 0.309774 0.138438 0.309774 0.309753 0 0.171253-0.138439 0.309753-0.309774 0.309753"/>
      <path d="m-84.577495 100.10168v-2.234235h-3.110761l-0.0062 2.227645v6e-3c0 0.45475 0.177816 0.87655 0.461318 1.17972 0.283398 0.30319 0.672236 0.49429 1.100636 0.49429 0.428379 0 0.817217-0.19114 1.100616-0.49429 0.283398-0.30317 0.454754-0.71836 0.454754-1.17972zm-2.366004-1.693792c0.171254 0 0.309753 0.138439 0.309753 0.30315 0 0.171253-0.138438 0.309794-0.309753 0.309794-0.171253 0-0.309774-0.138438-0.309774-0.309794 0-0.164691 0.138439-0.30315 0.309774-0.30315m0.0062 2.313292c-0.171253 0-0.309753-0.13843-0.309753-0.30975 0-0.17125 0.138438-0.30975 0.309753-0.30975 0.164895 0 0.30317 0.13844 0.30317 0.30975 0 0.17125-0.138439 0.30975-0.30317 0.30975m0.817238-0.869944c-0.171254 0-0.309754-0.138438-0.309754-0.309794 0-0.164895 0.138439-0.303149 0.309754-0.303149 0.171253 0 0.309753 0.138438 0.309753 0.303149 0 0.171254-0.138439 0.309794-0.309753 0.309794m0.863363 0.863364c-0.171254 0-0.309754-0.13844-0.309754-0.30317 0-0.17125 0.138439-0.30975 0.309754-0.30975 0.171253 0 0.309774 0.13844 0.309774 0.30975 0 0.16469-0.138439 0.30317-0.309774 0.30317m0-1.693768c-0.171254 0-0.309754-0.138438-0.309754-0.309794 0-0.164691 0.138439-0.30315 0.309754-0.30315 0.171253 0 0.309774 0.138439 0.309774 0.30315 0 0.171253-0.138439 0.309794-0.309774 0.309794"/>
      <path d="m-84.577495 89.352401v-2.234211h-3.110761l-0.0062 2.234211c0 0.461358 0.177816 0.87655 0.461318 1.17972 0.283398 0.30315 0.672236 0.494297 1.100636 0.494297 0.428379 0 0.817217-0.191147 1.100616-0.494297 0.283398-0.296586 0.454754-0.718362 0.454754-1.17972zm-2.366004-1.693789c0.171254 0 0.309753 0.138439 0.309753 0.309774 0 0.164691-0.138438 0.309753-0.309753 0.309753-0.171253 0-0.309774-0.145001-0.309774-0.309753 0-0.171253 0.138439-0.309774 0.309774-0.309774m0.0062 2.313295c-0.171253 0-0.309753-0.138438-0.309753-0.309753 0-0.171253 0.138438-0.309753 0.309753-0.309753 0.164895 0 0.30317 0.138438 0.30317 0.309753 0 0.171253-0.138439 0.309753-0.30317 0.309753m0.817238-0.863342c-0.171254 0-0.309754-0.138439-0.309754-0.309774 0-0.171254 0.138439-0.309753 0.309754-0.309753 0.171253 0 0.309753 0.138438 0.309753 0.309753 0 0.171253-0.138439 0.309774-0.309753 0.309774m0.863363 0.863342c-0.171254 0-0.309754-0.138438-0.309754-0.309753 0-0.171253 0.138439-0.309753 0.309754-0.309753 0.171253 0 0.309774 0.138438 0.309774 0.309753 0 0.171253-0.138439 0.309753-0.309774 0.309753m0-1.693768c-0.171254 0-0.309754-0.138438-0.309754-0.309753 0-0.171253 0.138439-0.309774 0.309754-0.309774 0.171253 0 0.309774 0.138439 0.309774 0.309774 0 0.171254-0.138439 0.309753-0.309774 0.309753"/>
     </g>
    </g>
    <path d="m-86.205345 108.40585c-3.150304 0-6.129272-1.23906-8.389858-3.48646-2.260565-2.24737-3.499599-5.213154-3.499599-8.35027v-0.01231l0.01231-15.98877h23.752537v16.008562c0 3.150324-1.239054 6.122668-3.479869 8.356878-2.253981 2.24082-5.232908 3.47327-8.396399 3.47327m-11.757667-11.849936v0.01231c0 3.097574 1.23247 6.030396 3.460077 8.251416 2.240794 2.22102 5.1802 3.44689 8.297586 3.44689 3.130532 0 6.076521-1.21928 8.297544-3.4271 2.207856-2.20127 3.433702-5.114319 3.446911-8.211913v-15.922878h-23.482327zm11.751038 7.163996c-1.845353 0-3.624829-0.75135-4.995656-2.11557-1.331306-1.3247-2.095813-3.156906-2.095813-5.015467l-0.0062-11.276492 14.235709 0.02646v10.208835l-0.0062 1.074282c0 0.296565-0.02051 0.619506-0.0525 0.889738-0.184585 1.55537-0.889718 2.978944-2.043064 4.125704-1.351076 1.3445-3.137136 2.08261-5.035218 2.08261m-6.959586-18.269129v11.138115c0 1.825602 0.751321 3.618224 2.062855 4.916594 1.344493 1.34449 3.084407 2.08264 4.896822 2.08264 1.865144 0 3.618245-0.73159 4.942947-2.0497 1.127011-1.12039 1.819018-2.517592 1.996937-4.046629 0.03281-0.263607 0.0525-0.579964 0.0525-0.869946l0.0062-1.074282v-10.070438" fill="#211e1e"/>
    <g fill="#f8de35">
     <path d="m-96.499869 84.79829c0.02646-1.146762 0.843592-1.416973 0.850176-1.423577 0 0 0.876571 0.289982 0.869967 1.430181"/>
     <path d="m-97.19848 83.394505-0.145001 1.318117h0.863363c0.0062-1.087448 0.823821-1.265408 0.837008-1.265408 0.02051 0 0.830426 0.243856 0.850176 1.265408h0.863384l-0.151565-1.324721"/>
     <path d="m-97.402795 84.719185h3.519391l0.138438 0.164896-0.138438 0.157922h-3.519391l-0.13167-0.157922 0.13167-0.164896"/>
     <path d="m-96.124198 84.712622c0.0062-0.685423 0.474505-0.883154 0.474505-0.883154s0.487713 0.204273 0.487713 0.883154"/>
     <path d="m-97.32371 82.854082h3.367826l0.13167 0.145002-0.13167 0.145001h-3.367826l-0.131876-0.145001 0.131876-0.145002"/>
     <path d="m-97.257793 83.144064h3.229388l0.118749 0.145002-0.118749 0.145001h-3.229388l-0.118544-0.145001 0.118544-0.145002"/>
     <path d="m-96.209886 80.949396h0.25044v0.178021h0.184584v-0.184584h0.263628v0.184584h0.184584v-0.184584h0.263628v0.421816l-0.118749 0.105419h-0.90951l-0.118749-0.111982"/>
     <path d="m-96.09126 82.840874 0.896322 0.0062-0.05948-1.337889-0.777695-0.0062"/>
     <path d="m-95.109271 81.601861h0.25044v0.184584h0.184585v-0.184584h0.257044v0.184584h0.178022v-0.184584h0.257023v0.415192l-0.111981 0.105418h-0.896301l-0.11875-0.105418"/>
     <path d="m-94.951102 82.122512-0.02051 0.724946h0.856759l-0.03281-0.724946"/>
     <path d="m-97.303939 81.601861h0.25046v0.184584h0.178022v-0.184584h0.257044v0.184584h0.177816v-0.184584h0.257065v0.415192l-0.112186 0.105418h-0.896322l-0.112186-0.105418"/>
     <path d="m-97.152334 82.122512-0.02051 0.724946h0.856779l-0.02646-0.724946"/>
    </g>
    <g fill="#211e1e">
     <path d="m-95.728777 82.247743h0.178021v-0.316358h-0.178021z"/>
     <path d="m-94.628141 82.63658h0.171253v-0.243857h-0.171253z"/>
     <path d="m-96.835977 82.63658h0.171254v-0.243857h-0.171254z"/>
     <path d="m-93.883404 84.666476-0.138438-1.1797 0.164895-0.19771-0.03281-0.111981 0.112186-0.178022-0.178021-0.19771h-0.112186l-0.02051-0.626111 0.157922-0.157922v-0.467943h-0.355878v0.184585h-0.08573v-0.184585h-0.355879v0.184585h-0.07917v-0.184585h-0.349275v0.467943l0.151565 0.151769-0.02051 0.632674h-0.125312l-0.0525-1.278576h0.02051l0.171254-0.157922v-0.468189l-0.369067-0.0062v0.191147h-0.07917v-0.184379l-0.369066-0.0062v0.191147h-0.07917v-0.184379h-0.355899v0.461359l0.171253 0.16469h0.0062l-0.0525 1.278596h-0.131875l-0.02051-0.626131 0.158128-0.157922v-0.467922h-0.3559v0.184585h-0.07917v-0.184585h-0.362483v0.184585h-0.07917v-0.184585h-0.349316v0.467922l0.158127 0.151769-0.02646 0.632694h-0.09886l-0.184584 0.197711 0.112186 0.178021-0.03281 0.111982 0.164895 0.19771-0.125107 1.179721h-0.01231l-0.184584 0.217481 0.184584 0.210898h3.519391l0.184584-0.210898-0.184584-0.217481m-0.105418 0h-0.751341c-0.02646-0.520672-0.25042-0.837029-0.441547-1.008365l-0.243877-0.171253h1.298367zm-1.654247-0.889739-0.191147 0.118545c-0.151564 0.125312-0.316357 0.362483-0.336108 0.771112h-0.257065c0.03281-1.014969 0.7843-1.166554 0.7843-1.166554 0.0062 0 0.744737 0.217482 0.797446 1.166554h-0.270191c-0.02051-0.65907-0.494296-0.889759-0.527255-0.889759m0.42838 0.883155h-0.850156c0.02051-0.527256 0.336108-0.73155 0.415172-0.771112 0.08573 0.04615 0.415233 0.243856 0.434984 0.771112m0.158127-2.64282v-0.362503h0.151564v0.178021h0.283399v-0.184584l0.151564 0.0062v0.177406h0.283399v-0.184536h0.151564v0.369086l-0.05948 0.0525-0.896322 0.0062-0.06604-0.05948m0.889738 0.777675h-0.75132l0.02051-0.619507h0.705195zm-1.924457-1.377431-0.0726-0.05927v-0.362504h0.151564v0.184585h0.289982v-0.184585h0.157923v0.184585h0.290003v-0.184585h0.157922v0.369087l-0.06604 0.0525zm0.837009 1.377431-0.7843-0.0062 0.05948-1.23245h0.672257zm-1.996958-0.777675v-0.362483h0.145001v0.184585h0.283932v-0.184585h0.151564v0.184585h0.283379v-0.184585h0.151564v0.362483l-0.05948 0.05948h-0.896322l-0.05948-0.05948m0.87655 0.777675h-0.744736l0.02051-0.619507h0.705215zm-1.028135 0.204274 0.07917-0.09886h3.367826l0.07917 0.09886-0.07917 0.09229h-3.367826l-0.07917-0.09229m0.07917 0.289982 0.0726-0.09229h3.222805l0.0726 0.09229-0.0726 0.09229h-3.222805l-0.0726-0.09229m0.164896 0.19771h1.271971l-0.178021 0.118545c-0.204274 0.16469-0.454755 0.481109-0.467942 1.061073l-0.751341-0.0062zm3.275513 1.502641h-3.51937l-0.07917-0.105418 0.07917-0.112186h3.51937l0.08573 0.112186-0.08573 0.105418"/>
    </g>
    <g fill="#f8de35">
     <path d="m-87.016 84.79829c0.02646-1.146762 0.843593-1.416973 0.850197-1.423577 0 0 0.87655 0.296586 0.869946 1.436765"/>
     <path d="m-87.71459 83.401068-0.145002 1.311554 0.863384 0.0062c0.0062-1.094012 0.823801-1.271972 0.843592-1.271972 0.01231 0 0.823801 0.243857 0.850176 1.271972h0.856779l-0.151564-1.331285"/>
     <path d="m-87.912321 84.719185h3.512786l0.138438 0.164896-0.138438 0.164895h-3.512786l-0.138439-0.164895 0.138439-0.164896"/>
     <path d="m-86.633746 84.712622c0-0.685423 0.467943-0.87655 0.467943-0.87655s0.487692 0.19771 0.487692 0.87655"/>
     <path d="m-87.839821 82.854082h3.367785l0.131876 0.145002-0.131876 0.145001h-3.367785l-0.131875-0.145001 0.131875-0.145002"/>
     <path d="m-87.76732 83.144064h3.222784l0.118749 0.145002-0.118749 0.151564h-3.222784l-0.125312-0.151564 0.125312-0.145002"/>
     <path d="m-86.726038 80.949396h0.250481v0.184584h0.184585v-0.184584h0.263607v0.184584h0.184584v-0.184584h0.263628v0.415192l-0.118749 0.105418h-0.909489l-0.118749-0.105418"/>
     <path d="m-86.607371 82.840874 0.896322 0.0062-0.05948-1.337889h-0.777716"/>
     <path d="m-85.618798 81.601861h0.250441v0.184584h0.178021v-0.184584h0.257024v0.184584h0.184584v-0.184584h0.25044v0.415192l-0.112186 0.105418h-0.896322l-0.112186-0.105418"/>
     <path d="m-85.486984 82.847458h0.85678l-0.02646-0.724946h-0.804071"/>
     <path d="m-87.820029 81.608424h0.25042v0.178021h0.178021v-0.184584h0.257044v0.184584h0.178022v-0.184584h0.257023v0.421796l-0.111981 0.105418h-0.896342l-0.111982-0.111981"/>
     <path d="m-87.661881 82.129096-0.02646 0.718362h0.856759l-0.02646-0.718362"/>
    </g>
    <g fill="#211e1e">
     <path d="m-86.244888 82.247743h0.178022v-0.316358h-0.178022z"/>
     <path d="m-85.144272 82.63658h0.171254v-0.243857h-0.171254z"/>
     <path d="m-87.352128 82.643164h0.171253v-0.250441h-0.171253z"/>
     <path d="m-84.399535 84.67306-0.138438-1.186284 0.164895-0.191147-0.03281-0.111981 0.11875-0.184585-0.184585-0.19771h-0.112186l-0.02051-0.626111 0.158128-0.158127v-0.467902h-0.356002v0.184585h-0.07917v-0.184585h-0.362482v0.184585h-0.07917v-0.184585h-0.349316v0.467902l0.157923 0.151769-0.02646 0.632715h-0.125108l-0.0525-1.278597h0.02646l0.164896-0.158127v-0.468168h-0.369087v0.184585h-0.07917v-0.184585h-0.369067v0.184585h-0.07917v-0.184585h-0.355899v0.467942l0.171253 0.157923h0.0062l-0.0525 1.278596h-0.131876l-0.02051-0.626131 0.158127-0.157922v-0.467922h-0.355899v0.184584h-0.07917v-0.184584h-0.362524v0.184584h-0.07917v-0.178021h-0.349316v0.461359l0.158127 0.157922-0.02646 0.626131h-0.09886l-0.184585 0.19771 0.112187 0.184585-0.03281 0.112186 0.164895 0.191148-0.125107 1.186304h-0.0062l-0.191148 0.210898 0.191148 0.217481h3.512786l0.184585-0.217481-0.184585-0.210898m-0.105418-0.0062h-0.75132c-0.02646-0.520651-0.25044-0.830405-0.441567-1.008344l-0.243857-0.164896h1.298347zm-1.654246-0.883134-0.191148 0.112186c-0.145001 0.125312-0.316357 0.362504-0.336128 0.777696h-0.257024c0.03281-1.014928 0.784259-1.173117 0.784259-1.173117 0.0062 0.0062 0.744757 0.217482 0.797487 1.173117h-0.263628c-0.02646-0.665653-0.494296-0.889718-0.533859-0.889718m0.4284 0.883134h-0.850196c0.02051-0.533818 0.336128-0.731549 0.415233-0.777675 0.08573 0.04594 0.415192 0.243857 0.434963 0.777675m0.164896-2.649423v-0.362463h0.145001v0.184585h0.283378v-0.184585h0.151564v0.184585h0.283399v-0.184585h0.151565v0.362463l-0.05948 0.05948h-0.896321l-0.05948-0.05948m0.883401 0.777921h-0.75132l0.02051-0.619507h0.705195zm-1.924437-1.377431-0.0726-0.0525v-0.362483h0.151564v0.178021h0.290003v-0.184584h0.157922v0.184584h0.289983v-0.184584h0.158127v0.369066l-0.05948 0.0525zm0.843592 1.377431-0.784299-0.0062 0.0525-1.23245h0.67884zm-2.003562-0.777675v-0.355899h0.145002v0.178021h0.283398v-0.184584h0.151565v0.184584h0.283399v-0.184584h0.151564v0.362482l-0.05948 0.05948h-0.896322l-0.05948-0.05948m0.87655 0.777696h-0.744736l0.02051-0.619527h0.705215zm-1.028156 0.204273 0.07917-0.09229h3.367805l0.07917 0.09229-0.07917 0.09229h-3.367805l-0.07917-0.09229m0.07917 0.296587 0.0726-0.09906h3.222783l0.0726 0.09906-0.0726 0.09229h-3.222783l-0.0726-0.09229m0.164895 0.19771h1.272013l-0.178022 0.11875c-0.204273 0.164895-0.454713 0.474505-0.467901 1.054469h-0.751341zm3.275534 1.502662h-3.512787l-0.08573-0.111982 0.08573-0.112186h3.512787l0.08573 0.112186-0.08573 0.111982"/>
    </g>
    <g fill="#f8de35">
     <path d="m-77.63759 84.804894c0.02646-1.146762 0.843613-1.416993 0.850196-1.423577 0 0 0.876572 0.296586 0.869968 1.436765"/>
     <path d="m-78.33618 83.407692-0.145002 1.311493 0.863363 0.0062c0.0062-1.094053 0.823842-1.271992 0.843593-1.271992 0.0123 0 0.823821 0.243857 0.850196 1.271992h0.863363l-0.157922-1.331305"/>
     <path d="m-78.533891 84.72581h3.512766l0.138438 0.164895-0.138438 0.157923h-3.512766l-0.138438-0.157923 0.138438-0.164895"/>
     <path d="m-77.255315 84.719185c0-0.685403 0.467921-0.87653 0.467921-0.87653s0.487714 0.197711 0.487714 0.87653"/>
     <path d="m-78.46139 82.860645h3.367805l0.131876 0.145002-0.131876 0.145001h-3.367805l-0.131876-0.145001 0.131876-0.145002"/>
     <path d="m-78.38889 83.150648h3.222805l0.125107 0.145001-0.125107 0.15177h-3.222805l-0.125312-0.15177 0.125312-0.145001"/>
     <path d="m-77.347587 80.955979h0.25044v0.184585h0.184585v-0.184585h0.263627v0.184585h0.184585v-0.184585h0.263628v0.415213l-0.111982 0.105418h-0.916093l-0.118749-0.105418"/>
     <path d="m-77.22894 82.847458 0.896301 0.0062-0.05948-1.337888-0.777655-0.0062"/>
     <path d="m-76.240347 81.608424h0.250441v0.184584h0.178021v-0.184584h0.257044v0.184584h0.184585v-0.184584h0.25044v0.415233l-0.112187 0.111981h-0.896321l-0.112187-0.111981"/>
     <path d="m-76.082178 82.135679-0.02646 0.718403h0.8568l-0.02646-0.718403"/>
     <path d="m-78.44164 81.615049h0.250461v0.177816h0.178021v-0.184585h0.257045v0.184585h0.184584v-0.184585h0.25042v0.415233l-0.105419 0.111982h-0.902884l-0.112187-0.111982"/>
     <path d="m-78.283451 82.135679-0.02646 0.718403h0.85678l-0.02646-0.718403"/>
    </g>
    <g fill="#211e1e">
     <path d="m-76.866478 82.254326h0.178022v-0.316337h-0.178022z"/>
     <path d="m-75.765841 82.643164h0.171253v-0.243857h-0.171253z"/>
     <path d="m-77.973698 82.649768h0.171254v-0.250461h-0.171254z"/>
     <path d="m-75.021125 84.679664-0.138438-1.186304 0.164895-0.197711-0.03281-0.105418 0.118749-0.184584-0.184584-0.197711h-0.105418l-0.02646-0.626111 0.158127-0.157922v-0.467963h-0.355899v0.184585h-0.07917v-0.184585h-0.362503v0.184585h-0.07917v-0.184585h-0.349316v0.467963l0.158127 0.151565-0.02646 0.632694h-0.125107l-0.0525-1.278556h0.02646l0.164895-0.157922v-0.467922l-0.369087-0.0062v0.191147h-0.07917v-0.184584l-0.362462-0.0062v0.191147h-0.08573v-0.184584h-0.355899v0.467921l0.171253 0.158128h0.0062l-0.0525 1.278555h-0.131875l-0.02051-0.62609 0.157923-0.157922v-0.467942h-0.355879v0.184584h-0.07855v-0.184584h-0.362483v0.184584h-0.07917v-0.178021h-0.349296v0.461358l0.157923 0.157923-0.02051 0.62609h-0.105418l-0.184584 0.19771 0.112186 0.184585-0.03281 0.105418 0.164895 0.19771-0.125312 1.186304h-0.0062l-0.191147 0.210919 0.191147 0.217461h3.512807l0.184585-0.217461-0.184585-0.210919m-0.09886-0.0062h-0.757925c-0.02646-0.520652-0.25044-0.830446-0.441546-1.008386l-0.243857-0.171253h1.30493zm-1.660809-0.883155-0.191148 0.111981c-0.145001 0.125312-0.316378 0.362483-0.329545 0.777696h-0.263627c0.03281-1.014969 0.784299-1.173137 0.784299-1.173137 0.0062 0.0062 0.7513 0.217481 0.797446 1.173137h-0.263628c-0.02646-0.665653-0.494276-0.889739-0.533818-0.889739m0.42838 0.876531h-0.850176c0.02051-0.527235 0.336087-0.724946 0.415213-0.771092 0.08573 0.04635 0.415171 0.243857 0.434963 0.771092m0.164895-2.64282v-0.362483h0.145002v0.184585h0.282845v-0.184585h0.151564v0.184585h0.283399v-0.184585h0.151564v0.362483l-0.05948 0.05927h-0.896322l-0.05948-0.05927m0.883155 0.777716h-0.751341l0.02051-0.619527h0.705174zm-1.924458-1.377451-0.06604-0.0525v-0.362483h0.145001v0.178021h0.289962v-0.184584h0.157922v0.184584h0.289962v-0.184584h0.158127v0.369087l-0.05948 0.0525zm0.843592 1.377451-0.784279-0.0062 0.0525-1.23245 0.678841 0.0062zm-2.003541-0.777716v-0.355879h0.145001v0.178022h0.283419v-0.184585h0.151565v0.184585h0.289982v-0.184585h0.151564v0.362483l-0.06604 0.05927h-0.896322l-0.05948-0.05927m0.883134 0.777716h-0.7513l0.02051-0.619527h0.705195zm-1.034698 0.204274 0.07917-0.09229h3.367805l0.07917 0.09229-0.07917 0.09229h-3.367805l-0.07917-0.09229m0.07917 0.289982 0.0726-0.09229h3.222804l0.0726 0.09229-0.0726 0.09886h-3.222804l-0.0726-0.09886m0.164895 0.197711h1.278556l-0.184585 0.118544c-0.204273 0.171253-0.448171 0.487734-0.467942 1.061094l-0.75132-0.0062zm3.275493 1.509265h-3.512786l-0.08573-0.111981 0.08573-0.111982h3.512786l0.08573 0.111982-0.08573 0.111981"/>
    </g>
    <g fill="#f8de35">
     <path d="m-77.63759 94.40739c0.02646-1.146762 0.843613-1.416994 0.850196-1.423578 0 0 0.876572 0.296587 0.869968 1.430161"/>
     <path d="m-78.33618 93.003584-0.145002 1.318117 0.863363 0.0062c0.0062-1.094053 0.823842-1.272013 0.843593-1.272013 0.0123 0 0.823821 0.243857 0.850196 1.272013h0.863363l-0.157922-1.331326"/>
     <path d="m-78.533891 94.328305h3.512766l0.138438 0.164691-0.138438 0.157922h-3.512766l-0.138438-0.157922 0.138438-0.164691"/>
     <path d="m-77.255315 94.321701c0-0.685403 0.467921-0.883154 0.467921-0.883154s0.487714 0.204273 0.487714 0.883154"/>
     <path d="m-78.46139 92.463161h3.367805l0.131876 0.145002-0.131876 0.145001h-3.367805l-0.131876-0.145001 0.131876-0.145002"/>
     <path d="m-78.38889 92.753143h3.222805l0.125107 0.145002-0.125107 0.151564h-3.222805l-0.125312-0.151564 0.125312-0.145002"/>
     <path d="m-77.347587 90.558475h0.25044v0.184584h0.184585v-0.191147h0.263627v0.191147h0.184585v-0.191147h0.263628v0.421796l-0.111982 0.105418h-0.916093l-0.118749-0.111981"/>
     <path d="m-77.22894 92.449974 0.896301 0.0062-0.05948-1.337909-0.777655-0.0062"/>
     <path d="m-76.240347 91.21096h0.250441v0.184585h0.178021v-0.184585h0.257044v0.184585l0.184585-0.0062v-0.178021h0.25044v0.415212l-0.112187 0.105418h-0.896321l-0.112187-0.105418"/>
     <path d="m-76.082178 91.731591-0.02646 0.724987h0.8568l-0.02646-0.724987"/>
     <path d="m-78.44164 91.217544h0.250461v0.178021h0.178021v-0.184584h0.257045v0.184584h0.184584v-0.184584h0.25042v0.415192l-0.105419 0.111981h-0.902884l-0.112187-0.111981"/>
     <path d="m-78.283451 91.738216-0.02646 0.718362h0.85678l-0.02646-0.718362"/>
    </g>
    <g fill="#211e1e">
     <path d="m-76.866478 91.856822h0.178022v-0.316337h-0.178022z"/>
     <path d="m-75.765841 92.245659h0.171253v-0.243836h-0.171253z"/>
     <path d="m-77.973698 92.245659h0.171254v-0.243836h-0.171254z"/>
     <path d="m-75.021125 94.275576-0.138438-1.179721 0.164895-0.19771-0.03281-0.111981 0.118749-0.178022-0.184584-0.19771h-0.105418l-0.02646-0.626111 0.158127-0.157922v-0.467922h-0.355899v0.184584h-0.07917v-0.184584h-0.362503v0.184584h-0.07917v-0.184584h-0.349316v0.467922l0.158127 0.151769-0.02646 0.632694h-0.125107l-0.0525-1.278555h0.02646l0.164895-0.157922v-0.467922l-0.369087-0.0062v0.184585h-0.07917v-0.178022l-0.362462-0.0062v0.184585h-0.08573v-0.179047h-0.355899v0.461359l0.171253 0.164895h0.0062l-0.0525 1.278596h-0.131875l-0.02051-0.62611 0.157923-0.158128v-0.467942h-0.355879v0.184585h-0.07855v-0.184585h-0.362483v0.184585h-0.07917v-0.178022h-0.349296v0.461318l0.157923 0.158127-0.02051 0.626111h-0.105418l-0.184584 0.19771 0.112186 0.178022-0.03281 0.111981 0.164895 0.197711-0.125312 1.17972h-0.0062l-0.191147 0.217502 0.191147 0.210878h3.512807l0.184585-0.210878-0.184585-0.217502m-0.09886-0.0062h-0.757925c-0.02646-0.514068-0.25044-0.830425-0.441546-1.001781l-0.243857-0.171253h1.30493zm-1.660809-0.87655-0.191148 0.112186c-0.145001 0.125107-0.316378 0.362462-0.329545 0.771071h-0.263627c0.03281-1.008365 0.784299-1.166533 0.784299-1.166533 0.0062 0.0062 0.7513 0.217502 0.797446 1.166533h-0.263628c-0.02646-0.659049-0.494276-0.883134-0.533818-0.883134m0.42838 0.87655h-0.850176c0.02051-0.527235 0.336087-0.724966 0.415213-0.771091 0.08573 0.04594 0.415171 0.243856 0.434963 0.771091m0.164895-2.642839v-0.362463h0.145002v0.184585h0.282845v-0.191148l0.151564 0.0062v0.184584h0.283399v-0.191147h0.151564v0.369087l-0.05948 0.0525-0.896322 0.0062-0.05948-0.05948m0.883155 0.777695h-0.751341l0.02051-0.619527h0.705174zm-1.924458-1.377431-0.06604-0.05948v-0.3559h0.145001v0.178022h0.289962v-0.184585h0.157922v0.184585h0.289962v-0.184585h0.158127v0.369087l-0.05948 0.0525zm0.843592 1.377431-0.784279-0.0062 0.0525-1.232429h0.678841zm-2.003541-0.777695v-0.3559h0.145001v0.178022h0.283419v-0.184531h0.151565v0.184585h0.289982v-0.184585h0.151564v0.362483l-0.06604 0.05948h-0.896322l-0.05948-0.05948m0.883134 0.777696h-0.7513l0.02051-0.619528h0.705195zm-1.034698 0.204273 0.07917-0.09886h3.367805l0.07917 0.09886-0.07917 0.09229h-3.367805l-0.07917-0.09229m0.07917 0.289982 0.0726-0.09229h3.222804l0.0726 0.09229-0.0726 0.09886h-3.222804l-0.0726-0.09886m0.164895 0.197711h1.278556l-0.184585 0.118544c-0.204273 0.171253-0.448171 0.48113-0.467942 1.054511h-0.75132zm3.275493 1.509245h-3.512786l-0.08573-0.111982 0.08573-0.111981h3.512786l0.08573 0.111981-0.08573 0.111982"/>
    </g>
    <g fill="#f8de35">
     <path d="m-96.499869 94.40739c0.02646-1.146762 0.843592-1.416994 0.850176-1.423578 0 0 0.876571 0.296587 0.869967 1.430161"/>
     <path d="m-97.19848 93.003584-0.145001 1.318117 0.863363 0.0062c0.0062-1.094053 0.823821-1.272013 0.837008-1.272013 0.02051 0 0.830426 0.243857 0.850176 1.272013h0.863384l-0.151565-1.331326"/>
     <path d="m-97.402795 94.328305h3.519391l0.138438 0.164691-0.138438 0.157922h-3.519391l-0.13167-0.157922 0.13167-0.164691"/>
     <path d="m-96.124198 94.321701c0.0062-0.685403 0.474505-0.883154 0.474505-0.883154s0.487713 0.204273 0.487713 0.883154"/>
     <path d="m-97.32371 92.463161h3.367826l0.13167 0.145002-0.13167 0.145001h-3.367826l-0.131876-0.145001 0.131876-0.145002"/>
     <path d="m-97.257793 92.753143h3.229388l0.118749 0.145002-0.118749 0.151564h-3.229388l-0.118544-0.151564 0.118544-0.145002"/>
     <path d="m-96.209886 90.558475h0.25044v0.184584h0.184584v-0.191147h0.263628v0.191147h0.184584v-0.191147h0.263628v0.421796l-0.118749 0.105418h-0.90951l-0.118749-0.111981"/>
     <path d="m-96.09126 92.449974 0.896322 0.0062-0.05948-1.337909-0.777695-0.0062"/>
     <path d="m-95.109271 91.21096h0.25044v0.184585h0.184585v-0.184585h0.257044v0.184585l0.178022-0.0062v-0.178021h0.257023v0.415212l-0.111981 0.105418h-0.896301l-0.11875-0.105418"/>
     <path d="m-94.951102 91.731591-0.02051 0.724987h0.856759l-0.03281-0.724987"/>
     <path d="m-97.303939 91.217544h0.25046v0.178021h0.178022v-0.184584h0.257044v0.184584h0.177816v-0.184584h0.257065v0.415192l-0.112186 0.111981h-0.896322l-0.112186-0.111981"/>
     <path d="m-97.152334 91.738216-0.02051 0.718362h0.856779l-0.02646-0.718362"/>
    </g>
    <g fill="#211e1e">
     <path d="m-95.728777 91.856822h0.178021v-0.316337h-0.178021z"/>
     <path d="m-94.628141 92.245659h0.171253v-0.243836h-0.171253z"/>
     <path d="m-96.835977 92.245659h0.171254v-0.243836h-0.171254z"/>
     <path d="m-93.883404 94.275576-0.138438-1.179721 0.164895-0.19771-0.03281-0.111981 0.112186-0.178022-0.178021-0.19771h-0.112186l-0.02051-0.626111 0.157922-0.157922v-0.467922h-0.355878v0.184584h-0.08573v-0.184584h-0.355879v0.184584h-0.07917v-0.184584h-0.349275v0.467922l0.151565 0.151769-0.02051 0.632694h-0.125312l-0.0525-1.278555h0.02051l0.171254-0.157922v-0.467922l-0.369067-0.0062v0.184585h-0.07917v-0.178022l-0.369066-0.0062v0.184585h-0.07917v-0.179047h-0.355899v0.461359l0.171253 0.164895h0.0062l-0.0525 1.278596h-0.131875l-0.02051-0.62611 0.158128-0.158128v-0.467942h-0.3559v0.184585h-0.07917v-0.184585h-0.362483v0.184585h-0.07917v-0.178022h-0.349316v0.461318l0.158127 0.158127-0.02646 0.626111h-0.09886l-0.184584 0.19771 0.112186 0.178022-0.03281 0.111981 0.164895 0.197711-0.125107 1.17972h-0.01231l-0.184584 0.217502 0.184584 0.210878h3.519391l0.184584-0.210878-0.184584-0.217502m-0.105418-0.0062h-0.751341c-0.02646-0.514068-0.25042-0.830425-0.441547-1.001781l-0.243877-0.171253h1.298367zm-1.654247-0.87655-0.191147 0.112186c-0.151564 0.125107-0.316357 0.362462-0.336108 0.771071h-0.257065c0.03281-1.008365 0.7843-1.166533 0.7843-1.166533 0.0062 0.0062 0.744737 0.217502 0.797446 1.166533h-0.270191c-0.02051-0.659049-0.494296-0.883134-0.527255-0.883134m0.42838 0.87655h-0.850156c0.02051-0.527235 0.336108-0.724966 0.415172-0.771091 0.08573 0.04594 0.415233 0.243856 0.434984 0.771091m0.158127-2.642839v-0.362463h0.151564v0.184585h0.283399v-0.191148l0.151564 0.0062v0.184584h0.283399v-0.191147h0.151564v0.369087l-0.05948 0.0525-0.896322 0.0062-0.06604-0.05948m0.889738 0.777695h-0.75132l0.02051-0.619527h0.705195zm-1.924457-1.377431-0.0726-0.05948v-0.3559h0.151564v0.178022h0.289982v-0.184585h0.157923v0.184585h0.290003v-0.184585h0.157922v0.369087l-0.06604 0.0525zm0.837009 1.377431-0.7843-0.0062 0.05948-1.232429h0.672257zm-1.996958-0.777695v-0.3559h0.145001v0.178022h0.283932v-0.184531h0.151564v0.184585h0.283379v-0.184585h0.151564v0.362483l-0.05948 0.05948h-0.896322l-0.05948-0.05948m0.87655 0.777696h-0.744736l0.02051-0.619528h0.705215zm-1.028135 0.204273 0.07917-0.09886h3.367826l0.07917 0.09886-0.07917 0.09229h-3.367826l-0.07917-0.09229m0.07917 0.289982 0.0726-0.09229h3.222805l0.0726 0.09229-0.0726 0.09886h-3.222805l-0.0726-0.09886m0.164896 0.197711h1.271971l-0.178021 0.118544c-0.204274 0.171253-0.454755 0.48113-0.467942 1.054511h-0.751341zm3.275513 1.509245h-3.51937l-0.07917-0.111982 0.07917-0.111981h3.51937l0.08573 0.111981-0.08573 0.111982"/>
    </g>
    <g fill="#f8de35">
     <path d="m-92.756413 104.41193c-0.790863-0.83042-0.408609-1.59493-0.408609-1.60152 0-6e-3 0.830405-0.41521 1.627871 0.38884"/>
     <path d="m-94.245887 103.91761 0.830405 1.02816 0.612923-0.59976c-0.771092-0.77767-0.316337-1.48289-0.30317-1.49605 0.01231-0.0123 0.757924-0.41524 1.496078 0.29656l0.612923-0.61292-1.047907-0.82382"/>
     <path d="m-93.44842 104.9919 2.484671-2.48468 0.210877 0.0205 0.02051 0.21092-2.491235 2.48467-0.204273-0.0205-0.02051-0.21089"/>
     <path d="m-92.552099 104.08241c-0.481129-0.48774-0.290002-0.95566-0.290002-0.95566s0.487733-0.20427 0.968822 0.27682"/>
     <path d="m-94.720413 103.62107 2.385796-2.38582 0.191147 0.0123 0.01231 0.19115-2.379212 2.38579-0.197711-0.0123-0.0123-0.19115"/>
     <path d="m-94.463369 103.77922 2.280337-2.28034 0.191147 0.0123 0.01231 0.19114-2.273732 2.28036-0.191148-0.0123-0.02051-0.19114"/>
     <path d="m-95.280627 101.48569 0.184585-0.17802 0.125312 0.12531 0.131876-0.13187-0.131876-0.13188 0.184585-0.17802 0.131875 0.13188 0.13167-0.13844-0.13167-0.12531 0.184585-0.19115 0.296565 0.30315-0.0062 0.15156-0.645903 0.64588-0.158127 6e-3"/>
     <path d="m-94.759934 101.7493 0.909468 0.98861 0.632715-0.62611-0.988614-0.90949"/>
     <path d="m-94.035009 101.16275 0.178021-0.17125 0.125107 0.12531 0.131876-0.12531-0.131876-0.13188 0.184585-0.17802 0.125312 0.12511 0.131876-0.12511-0.131876-0.13187 0.184585-0.17803 0.289982 0.28997v0.15792l-0.632694 0.63269-0.157923 6e-3"/>
     <path d="m-93.553859 101.42638 0.494276 0.52725 0.60634-0.60634-0.527256-0.49429"/>
     <path d="m-95.583796 102.72473 0.171253-0.17803 0.131875 0.13188 0.125108-0.13188-0.131876-0.13187 0.184585-0.17802 0.131875 0.13187 0.125107-0.13187-0.131875-0.12511 0.184585-0.18458 0.290002 0.29656v0.15177l-0.632694 0.63272-0.158127 6e-3"/>
     <path d="m-95.109271 102.98177 0.494297 0.52723 0.60636-0.60631-0.527255-0.48772"/>
    </g>
    <g fill="#211e1e">
     <path d="m-94.245887 101.84159 0.230669 0.22407 0.125312-0.12511-0.230689-0.23069-0.125107 0.13188"/>
     <path d="m-93.138688 101.38684 0.171254 0.17125 0.125107-0.11854-0.177816-0.17126-0.11875 0.11875"/>
     <path d="m-94.700662 102.94881 0.178021 0.17125 0.11875-0.11854-0.171254-0.17125-0.125312 0.11875"/>
     <path d="m-90.996728 102.4677-0.935864-0.73815-0.02646-0.25044-0.09886-0.0595-0.04594-0.21088-0.270212-6e-3 -0.07917 0.0726-0.454755-0.42179v-0.22407l-0.329524-0.32954-0.257024 0.25046 0.131876 0.13187-0.05948 0.0525-0.125313-0.12531-0.257044 0.25046 0.131875 0.13187-0.0525 0.0525-0.13167-0.12532-0.250461 0.25044 0.329545 0.32294h0.224086l0.4284 0.46136-0.09229 0.0923-0.942468-0.86997 0.02051-0.0123v-0.23003l-0.329524-0.32952-0.257003 0.25704 0.131875 0.13187-0.05948 0.0593-0.13167-0.13188-0.257045 0.25703 0.131876 0.1251-0.05948 0.0595-0.125108-0.12511-0.257044 0.25042 0.329545 0.32955 0.237273-6e-3 0.0062-6e-3 0.863384 0.94247-0.09229 0.0923-0.454734-0.4284v-0.22406l-0.329565-0.32955-0.257024 0.25044 0.131876 0.13188-0.0525 0.0593-0.131876-0.13188-0.257023 0.25044 0.131875 0.13188-0.0525 0.0595-0.131875-0.13188-0.250441 0.25044 0.329525 0.32953h0.217502l0.428359 0.45473-0.0726 0.0726 0.0123 0.27021 0.210919 0.0525 0.0525 0.0988 0.257023 0.0205 0.744737 0.92928-0.0062 6e-3 0.02051 0.28339 0.283399 0.0205 2.484671-2.49125-0.02051-0.2834-0.276816-0.0205m-0.07917 0.0726-0.533859 0.53384c-0.382234-0.34929-0.764488-0.40863-1.021552-0.40202l-0.296566 0.0525 0.922697-0.91611zm-1.792664 0.54701-0.05948 0.2175c-0.02051 0.19115 0.03281 0.48113 0.309753 0.78426l-0.184584 0.17802c-0.692008-0.73815-0.270191-1.37743-0.270191-1.37743 0.0062 0 0.685403-0.37569 1.390598 0.26363l-0.191147 0.18458c-0.48111-0.44815-0.968823-0.27681-0.995177-0.25046m0.922676 0.31636-0.606319 0.60634c-0.3559-0.38886-0.276815-0.75792-0.250461-0.84359 0.09229-0.0265 0.467963-0.11855 0.85678 0.23725m-1.759685-1.98377-0.25044-0.25044 0.09886-0.10542 0.131875 0.12531 0.197711-0.19771-0.131876-0.13187 0.111982-0.10542 0.125107 0.12531 0.204274-0.19771-0.131876-0.13187 0.111981-0.10542 0.257024 0.25702v0.0792l-0.632694 0.63927h-0.09229m1.17972-0.0726-0.527235 0.52724-0.4284-0.44815 0.50086-0.50088zm-2.339649 0.38884-0.08573 6e-3 -0.25042-0.25704 0.105418-0.10542 0.125313 0.12511 0.204273-0.20428-0.131875-0.1251 0.111981-0.11199 0.131875 0.13168 0.204274-0.20428-0.131876-0.13187 0.112187-0.11199 0.257023 0.25707v0.0857zm1.575121 0.37567-0.560173 0.55361-0.837029-0.90951 0.481129-0.48113zm-1.970563 0.86997-0.25046-0.25705 0.09886-0.10542 0.131875 0.13188 0.197711-0.20427-0.125108-0.13188 0.105419-0.10542 0.131875 0.13188 0.197711-0.20428-0.131876-0.13187 0.112187-0.10542 0.257044 0.25707-0.0062 0.0857-0.632715 0.6327-0.08573 6e-3m1.179721-0.0792-0.533839 0.53383-0.421796-0.45475 0.50088-0.4943zm-0.593152 0.87653-0.0062-0.12511 2.379212-2.37921 0.125107 0.0123 0.01231 0.11875-2.385796 2.3858-0.125312-0.0123m0.263627 0.15157-0.0123-0.11855 2.280357-2.28036 0.111981 0.0205 0.02051 0.11199v6e-3l-2.280028 2.27369v6e-3l-0.11875-0.0205m0.257044 0.0205 0.902926-0.9029-0.04615 0.21748c-0.02646 0.26363 0.02646 0.65907 0.421796 1.07426l-0.533859 0.53386zm3.380973-1.25222-2.484651 2.49126-0.138438-0.0265-0.02051-0.13188 2.484651-2.48467 0.138439 0.0123 0.02051 0.13844"/>
    </g>
    <g fill="#f8de35">
     <path d="m-80.827415 103.19925c0.830405-0.79086 1.594913-0.40863 1.601517-0.40863 0.0062 0 0.415192 0.83045-0.388858 1.63448"/>
     <path d="m-80.333118 101.70978-1.028156 0.83701 0.60636 0.60634c0.771091-0.76453 1.476266-0.31636 1.489453-0.29659 0.01231 0.0123 0.415213 0.75132-0.296566 1.49606l0.612923 0.60634 0.823822-1.04791"/>
     <path d="m-81.407379 102.50722 2.48463 2.48468-0.02051 0.21089-0.210919 0.0205-2.484651-2.48467 0.02051-0.2109 0.210898-0.0205"/>
     <path d="m-80.49789 103.40357c0.487692-0.48111 0.955634-0.29001 0.955634-0.2834 0 0 0.197711 0.48111-0.276794 0.9688"/>
     <path d="m-80.036552 101.23525 2.385816 2.38582-0.01231 0.19771-0.19771 6e-3 -2.379233-2.37917 0.01231-0.19771 0.191147-0.0123"/>
     <path d="m-80.194721 101.49888 2.280357 2.27375-0.01231 0.19115-0.191147 0.0205-2.280357-2.28034 0.01231-0.19114 0.191147-0.0123"/>
     <path d="m-77.901217 100.68164 0.178021 0.17802-0.125107 0.13188 0.131875 0.12511 0.125107-0.12511 0.184585 0.18458-0.13167 0.12511 0.13167 0.13188 0.131875-0.13188 0.184585 0.19115-0.289982 0.29h-0.157923l-0.645902-0.65248-0.0123-0.15793"/>
     <path d="m-79.153418 102.1052 0.626111 0.63271 0.909509-0.98199-0.547047-0.55361"/>
     <path d="m-77.58484 101.92726 0.178022 0.17802-0.125312 0.12511 0.125312 0.12531 0.131875-0.13187 0.178022 0.18458-0.125107 0.13187 0.125107 0.12532 0.13167-0.12532 0.178022 0.17782-0.296566 0.29659-0.151565-6e-3 -0.632673-0.63267-0.0062-0.15813"/>
     <path d="m-78.369139 102.89608 0.60634 0.60634 0.494296-0.52725-0.573381-0.56678"/>
     <path d="m-79.140231 100.37189 0.178022 0.17802-0.131875 0.12531 0.131875 0.13188 0.131875-0.13188 0.178022 0.17802-0.131876 0.13188 0.131876 0.13187 0.125312-0.13187 0.184585 0.17802-0.296566 0.29657-0.158127-6e-3 -0.632695-0.63269v-0.15792"/>
     <path d="m-79.924509 101.34729 0.606339 0.59976 0.487693-0.52725-0.566777-0.5668"/>
    </g>
    <g fill="#211e1e">
     <path d="m-78.257096 101.71636-0.224086 0.22409 0.125107 0.12531 0.224086-0.22407-0.125107-0.1251"/>
     <path d="m-77.802342 102.817-0.171253 0.17802 0.118544 0.11875 0.171254-0.17126-0.11875-0.12531"/>
     <path d="m-79.364296 101.26163-0.178021 0.17125 0.125107 0.12511 0.171254-0.17802-0.11875-0.11875"/>
     <path d="m-78.883207 104.95894 0.738154-0.93587 0.25046-0.0205 0.05948-0.0988 0.204274-0.0525 0.01231-0.26362-0.07917-0.0792 0.42838-0.46132h0.224085l0.329504-0.32956-0.25044-0.25703-0.13167 0.13188-0.0525-0.0525 0.125312-0.13187-0.250419-0.25702-0.131876 0.13187-0.0525-0.0525 0.125107-0.12511-0.25044-0.25044-0.32292 0.32952v0.21751l-0.461359 0.4284-0.09229-0.0857 0.869967-0.94247 0.01231 0.0123 0.23069 6e-3 0.329503-0.32951-0.257023-0.25704-0.131876 0.12531-0.05948-0.0595 0.131875-0.1251-0.257044-0.26363-0.125107 0.13844-0.05948-0.0593 0.125107-0.13188-0.25044-0.25704-0.329545 0.33612 0.0062 0.23065 0.0062 6e-3 -0.942448 0.86338-0.09229-0.0923 0.4284-0.45476h0.217482l0.336108-0.32952-0.25042-0.25044-0.131875 0.12511-0.05948-0.0525 0.131876-0.13187-0.25044-0.25703-0.131876 0.13188-0.05948-0.0525 0.131875-0.12531-0.25046-0.25046-0.329504 0.32955v0.2175l-0.454796 0.42836-0.0726-0.0726-0.270232 0.0123-0.0525 0.20427-0.09886 0.0525-0.02051 0.25704-0.92926 0.75132-0.0062-6e-3 -0.283399 0.0123-0.02051 0.29001 2.491234 2.48465 0.276836-0.0265 0.02646-0.27679m-0.0726-0.0792-0.53386-0.53382c0.349316-0.38229 0.408629-0.76453 0.395442-1.02155l-0.04615-0.29 0.916134 0.91609zm-0.547047-1.79264-0.217461-0.0593c-0.191148-0.0123-0.48113 0.0328-0.7843 0.31636l-0.177816-0.18458c0.738153-0.69201 1.37741-0.27023 1.37741-0.27682 0 6e-3 0.375671 0.68543-0.263627 1.39062l-0.184585-0.18458c0.448151-0.48109 0.276795-0.97539 0.25044-1.00179m-0.316357 0.92929-0.606319-0.60632c0.388858-0.36249 0.757924-0.27682 0.836988-0.25044 0.03281 0.0923 0.125107 0.46135-0.230669 0.85676m1.983791-1.75967 0.25044-0.25704 0.105419 0.10541-0.125108 0.12511 0.197711 0.19771 0.131875-0.1251 0.105418 0.10541-0.125107 0.13188 0.197711 0.20427 0.13167-0.13187 0.105418 0.10542-0.257024 0.25704h-0.08573l-0.632694-0.63272v-0.0857m0.0726 1.17311-0.533838-0.52725 0.454754-0.4218 0.50088 0.4943zm-0.388837-2.33306-0.0062-0.0857 0.257024-0.25703 0.105418 0.10542-0.131875 0.13188 0.210877 0.20427 0.125107-0.13188 0.112187 0.11199-0.131876 0.12531 0.204274 0.20427 0.131875-0.12511 0.112187 0.11199-0.257024 0.257-0.08573-6e-3zm-0.375671 1.56855-0.553609-0.55361 0.909509-0.83703 0.481089 0.48113zm-0.869967-1.964 0.257044-0.25702 0.09886 0.10542-0.125108 0.12511 0.204274 0.20427 0.131875-0.13167 0.105418 0.10542-0.131875 0.13167 0.204274 0.20427 0.131875-0.13187 0.105418 0.10541-0.263648 0.25705h-0.07917l-0.632715-0.63272-0.0062-0.0857m0.07917 1.17312-0.533819-0.52723 0.454734-0.4218 0.494297 0.4943zm-0.876551-0.58655 0.125107-0.0123 2.379192 2.38579-0.01231 0.11875-0.118749 0.0123-2.385796-2.3858 0.01231-0.11854m-0.151565 0.26363 0.11875-0.0205 2.280336 2.28035-0.02051 0.11875-0.112187 0.0123h-0.0062l-2.280337-2.28036 0.02051-0.11198m-0.02051 0.25702 0.896322 0.89633-0.210919-0.0396c-0.263607-0.0328-0.659048 0.0205-1.074261 0.41522l-0.533839-0.53386zm1.252201 3.38098-2.484651-2.49126 0.01231-0.13844 0.138438-0.0123 2.484651 2.48469-0.02051 0.13188-0.131875 0.0264"/>
    </g>
   </g>
  </g>
  <g transform="matrix(.26458333 0 0 .26458333 -66.049512 -99.236861)" stroke="#613a21">
   <g transform="matrix(1.1930665,0,0,1.1930665,-180.75407,621.98285)" fill="none" stroke="#613a21" stroke-width=".4512">
    <path d="m288.587 264.395c5.57887-14.5398 17.2179-15.6527 23.9428-23.7233 2.63302-3.16143 9.06016-1.80882 13.5752-2.78342 4.30147-0.92747 5.7353 0.92747 6.15742 5.05949 8.01036-0.3369 7.84191 3.12032 7.08189 6.49332-0.3369-1.3486-3.96257-1.56016-5.73329-1.39171 0 2.95087-2.10862 3.07821-5.39639 3.92246-2.53677 0.64873-2.98296 4.60227-3.04713 7.4629 7.08289 0.16745 13.3336-6.11431 19.7416-13.0298 6.40909-6.91444 16.9412-12.9495 34.0668-11.9739 20.7433 1.18015 61.894 1.85495 75.7229-2.19285 13.8299-4.04879 16.865 1.6865 6.74699 8.09459 1.17714 2.52975-1.55915 7.0508-6.41009 8.93884 2.3613 2.86664-1.3496 6.74599-8.60094 9.61163 0.3369 4.55314-6.91444 9.78108-16.1892 10.6263 2.3603 5.73229-11.638 10.7938-26.8155 9.78109 1.51805 2.19285-3.54044 6.07119-9.27673 6.07119 2.02339 2.36029-3.20355 5.05949-6.91344 5.22894 2.19185 2.0244-8.60094 5.22794-14.3352 4.04679 0.16845 2.0244-6.24064 3.54145-10.4559 2.52975-0.50635 1.85495-5.05949 2.52874-7.75769 0.6738-0.6748 1.85595-3.87834 2.19385-6.74599 0.3379-1.85494 1.85595-5.05949 1.68649-6.91443-0.50635-1.18115 2.0244-4.0478 2.69819-6.0722 0.16845-1.68649 2.19385-4.04679 1.52005-5.90173-0.6738-0.3369 2.02339-6.29479 5.39739-9.66779-6.74699-0.84024 5.69719-2.45655 9.24365-3.82319 11.637 1.12099 3.46524 1.79378 11.1748 1.52607 18.0451 1.0117 6.74699 4.03777 16.5251 5.97794 22.7667 1.94017 6.24165-1.08991 5.60695-2.86063 4.59425 0.22259 0.84726 0.24666 1.89907-7e-3 3.24766-0.6748-0.9014-2.39839-2.26303-3.91744-2.26303-0.0421 0.92547-0.40007 1.875-1.22728 2.76838-1.60127-2.0244-3.20354-4.46992-5.05949-4.46992-1.85495 0.42213-5.39639 2.19385-6.40809 5.14572-0.34592-0.72092-0.57754-1.61731-0.57252-2.55682-1.3486 1.09593-5.4345 1.26538-6.36197-0.0872-6e-3 0.62066-0.1133 1.29245-0.31684 2.05147-0.7119-1.04679-2.29412-2.46056-3.89539-2.53476-0.0612 0.97962-0.42313 1.97026-1.26538 2.80649-1.50802-2.09359-3.36497-3.95154-5.21891-4.03777-1.87199 0.34091-5.49165 1.94719-6.6357 4.84893-0.59859-1.40274-0.83222-3.57553 0.1123-5.23997-1.07486-0.0942-2.18683-0.75201-1.81684-2.07955-3.20455 5.56584-7.42079 4.38469-9.10729 1.68449-3.37299 3.7109-10.2724 1.497-7.25234-3.20153 12.1424-18.8894 13.6604-24.9606 17.0334-34.9111 1.31852-3.95655 0.50535-10.119 2.3613-16.0207-4.21725 7.41978-9.44519 8.60093-10.6253 6.91444-1.3486 1.6875-5.90174 3.37199-7.08289 0.67379-1.3486 1.01371-4.38469 1.01371-5.56484-0.3369-2.19385 1.6865-5.39639 1.85595-5.90274 0.3369-2.19285 1.3496-6.74599 1.18216-7.58924-0.3369-3.37299 2.86765-10.7938 1.35061-10.4569-2.86664-7.88402 3.69184-15.009 1.6875-14.6711-2.19185-4.72159 0.50535-7.42079-1.85695-7.08289-4.04879-5.05949 0.3369-8.09558-2.86564-7.25234-6.23964-10.7928 1.0127-37.6073-2.19285-35.7523-10.6263-7.58923-1.34759-18.8884-6.91343-15.1775-11.2981-4.89104-1.3496-10.4569-5.39639-9.95053-9.27473-6.91544-1.52005-8.26404-7.25234-6.07119-8.43349-6.57754-2.19285-7.58222-10.485 3.87934-7.58924 16.0207 4.0478 59.0264 3.373 82.2995 2.0244 23.2741-1.3496 23.1046 4.88904 43.511 19.2253 9.21357 6.47527 16.9813 4.96424 21.4231 5.8486z" fill="#ffca26"/>
    <path d="m314.804 344.895c0.88075 0.83382 1.54492 2.15494 1.47995 3.55548"/>
    <path d="m320.208 347.465c-0.66417-2.53396-3.12594-3.01404-5.40361-2.57005-1.60267-0.42233-2.95267-1.51605-2.95267-4.38209 0-1.85896 1.09732-4.64198 3.37139-9.44639 1.11898-2.35709 1.6893-6.47928 1.86617-10.9588"/>
    <path d="m303.019 349.339c0.0108-2.03944 1.09733-4.22688 4.28102-4.86578 1.68569-0.3357 2.36069-0.76163 2.36069-3.20174 0-7.8401-9.78208-9.35976-9.78208-28.7543"/>
    <path d="m310.191 309.326c1.15508-2.88048 3.89118-4.67085 5.37112-7.26617"/>
    <path d="m288.587 264.393c1.55936 0.31043 2.71083 0.89158 3.36778 2.2488"/>
    <path d="m291.046 344.906c0.87353 0.90601 1.49439 2.37513 1.40054 3.85869"/>
    <path d="m296.655 349.252c0.0361-3.46163-2.79385-4.76109-5.61297-4.34598-1.58101-0.49091-2.54117-0.76886-2.41123-3.63129 0.53423-11.6952 10.6917-15.3806 8.38156-36.6846"/>
    <path d="m279.437 347.144c0.61724-1.0901 1.73623-1.97085 3.59518-2.25601 1.70014-0.2599 2.38958-0.67139 2.50148-3.1115 0.10107-2.2127-1.36805-3.21618-2.18022-4.47233-3.88757-6.01002-7.08208-22.5999-5.06069-28.6712"/>
    <path d="m325.167 259.434c-0.0181 0.84826 0.0108 1.69652 0.0108 2.48703 0 8.26604-5.31336 11.8071-5.22673 18.7195 0.0469 3.82981-0.15883 7.05321-0.5595 9.78208"/>
    <path d="m290.436 269.678c-16.8642-0.675-31.032-4.72139-39.1284-16.1892-8.09639-11.4678-21.9249-11.8035-35.414-10.4571-13.4928 1.35-27.3213 1.01069-39.1247 0"/>
    <path d="m195.192 243.916c-1.0143 2.86604 2.31738 8.22272 27.6136 5.52272"/>
    <path d="m197.513 248.092c0.675 5.73209 13.6588 9.78209 30.357 6.24105"/>
    <path d="m205.775 254.416c-5.0607 0.16965-1.6857 5.48302 4.21604 6.15441 5.90174 0.675 16.3588 0.84104 22.0909-0.675"/>
    <path d="m209.991 260.571c-3.375 2.7-1.66043 6.48289 9.10708 7.25174 2.3607 0.16965 11.1285 0.33569 19.2249-2.025"/>
    <path d="m220.322 267.906c-3.0357 2.025 0.29599 5.64906 6.03168 5.64906 5.73209 0 12.1428-1.01069 16.5249-3.20534"/>
    <path d="m226.35 273.558c-2.36069 3.20535 1.45107 6.65254 8.93744 4.89105 2.86604-0.675 9.61243-3.37139 11.6374-5.0607"/>
    <path d="m235.963 278.28c-3.20535 2.025-1.10094 6.75361 5.06069 3.87674 2.53035-1.18035 5.90174-3.20174 8.26243-5.56604"/>
    <path d="m241.023 282.16c-0.84465 2.53035 1.85535 4.55535 5.7357 2.19465 3.87673-2.36069 5.90173-4.89104 7.08208-6.74639"/>
    <path d="m246.755 284.351c-0.50535 2.19105 2.025 5.7357 10.7928-4.21604"/>
    <path d="m250.971 286.037c-0.675 2.7 3.375 4.38569 9.78209-3.88035"/>
    <path d="m255.527 287.387c1.68569 2.7 4.21604 2.53035 10.1178-3.87674"/>
    <path d="m259.743 288.567c-0.3357 2.52674 3.88035 3.20174 8.60174-2.025"/>
    <path d="m265.013 289.412c-0.33569 2.53035 4.84773 1.35 8.38877-3.0357"/>
    <path d="m269.691 289.578c1.35 2.025 5.73569 2.19105 8.60174-2.7"/>
    <path d="m277.452 288.062c-2.7 3.54104 1.6857 4.89104 5.0607 1.35"/>
    <path d="m280.653 292.617c5.90174-4.55535 3.20535-14.3338 7.59104-14.3338"/>
    <path d="m137.474 244.887c10.9624 4.04639 40.6444 6.57673 60.5442 4.89104"/>
    <path d="m143.545 253.323c12.4785 3.54104 42.0774 4.59506 60.2916 4.08971"/>
    <path d="m153.494 262.596c8.77139 2.025 38.114 6.40709 57.0032 3.20535"/>
    <path d="m168.672 273.894c7.42139 1.85535 37.2694 4.25936 53.2925-1.13703"/>
    <path d="m204.425 284.521c4.72139-0.16966 16.4021-2.99238 22.6396-6.70308"/>
    <path d="m211.677 290.758c6.91605-1.0107 16.8245-3.96337 23.0619-9.02406"/>
    <path d="m218.763 294.808c4.89104-0.16965 17.7088-5.47941 23.2713-9.69906"/>
    <path d="m233.432 296.999c4.89104-2.02139 11.1321-6.15441 15.6838-10.2008"/>
    <path d="m243.889 299.865c4.55535-3.20535 8.43209-7.92674 11.9731-11.9731"/>
    <path d="m251.477 300.205c3.54104-2.02139 6.19772-5.94505 9.06377-9.99144"/>
    <path d="m257.382 299.865c2.86605-2.025 6.40709-6.02808 8.43209-9.23343"/>
    <path d="m262.945 300.205c2.7-2.19104 5.73569-5.90174 7.58743-9.78209"/>
    <path d="m270.03 299.53c2.3607-2.02139 4.59506-4.76471 6.62006-9.31644"/>
    <path d="m268.511 346.751c3.54104-6.07139 7.75709-13.3195 10.7928-20.2392"/>
    <path d="m277.618 345.065c2.025-3.0357 3.4147-6.62005 4.93435-9.31645"/>
    <path d="m295.327 344.895c-0.0866-3.62407-0.76163-15.1785-0.50535-20.8275"/>
    <path d="m303.506 345.989c0.0866-4.29906-1.77232-13.8285-1.68569-20.7409"/>
    <path d="m316.999 344.812c-0.50534-2.11163-2.10802-9.02406-2.44371-12.1428"/>
    <path d="m325.178 266.646c17.5392-0.3393 22.2606-28.3356 50.9318-27.6606 28.6676 0.675 46.2104 2.7 59.6996 1.35"/>
    <path d="m381.672 245.732c17.8785 1.35 25.2962-1.35 25.1266-5.56604"/>
    <path d="m378.471 251.128c11.2981 1.51604 22.5529 2.53035 22.1342-5.90174"/>
    <path d="m373.41 256.694c9.10709 1.85535 22.9356 4.21605 22.5999-5.22674"/>
    <path d="m366.664 262.09c12.9838 3.7107 25.4659 5.05709 24.6213-4.21604"/>
    <path d="m361.603 268.162c11.2981 4.3857 23.6106 4.84773 22.2606-3.24866"/>
    <path d="m356.206 271.703c10.1178 6.57673 18.6798 5.69238 18.6798-0.37901"/>
    <path d="m351.485 274.908c8.76778 6.24105 15.0088 6.74639 15.8535 1.18035"/>
    <path d="m348.449 277.099c5.7357 6.40708 10.7928 6.24104 11.9731 2.53034"/>
    <path d="m344.403 277.605c3.7107 5.90174 9.61243 8.09639 10.1178 4.21605"/>
    <path d="m341.284 279.124c3.7107 5.90173 9.10709 8.26243 9.61244 4.38569"/>
    <path d="m337.87 280.467c3.33168 6.12553 8.31658 8.22994 9.06377 4.39291"/>
    <path d="m334.072 281.142c2.31738 6.83663 7.29506 8.775 8.38877 4.81163"/>
    <path d="m330.037 280.445c1.02874 7.14706 5.56243 9.96257 7.36725 6.26992"/>
    <path d="m326.918 281.878c1.02875 7.14345 4.41458 8.79666 6.5226 5.84398"/>
    <path d="m322.785 282.301c1.02875 7.14345 4.41457 8.79665 6.5226 5.84398"/>
    <path d="m324.503 287.639c-1.0143 1.43302-2.7 2.7-4.80802 0.50535"/>
    <path d="m461.445 240.335c-9.11069 6.24104-48.7408 7.75708-61.0532 7.25174"/>
    <path d="m455.034 249.273c-12.4785 5.56604-37.6087 7.42139-60.3782 6.4107"/>
    <path d="m446.436 258.885c-9.61243 4.55173-44.1854 4.89104-56.4979 3.88034"/>
    <path d="m430.244 269.512c-10.4571 1.85535-33.7283 1.18035-47.5604-0.16965"/>
    <path d="m403.428 279.29c-8.09639-0.16965-21.2896-2.31738-29.8913-4.51203"/>
    <path d="m394.151 285.362c-5.22674 0.675-20.6579-2.7-28.415-6.24104"/>
    <path d="m387.238 290.592c-4.55535 0.84465-19.8999-1.85535-27.9963-9.10709"/>
    <path d="m372.905 294.638c-6.74639-0.675-15.3878-5.64907-20.1092-10.8794"/>
    <path d="m362.448 297.169c-5.90174-1.18035-10.6231-6.57674-14.5035-11.9731"/>
    <path d="m354.69 297.844c-3.03569-2.19105-8.68476-6.99907-11.4678-11.4678"/>
    <path d="m347.944 298.18c-3.88034-1.93837-6.99906-6.32406-8.51871-10.2874"/>
    <path d="m341.032 297.674c-2.19465-2.53034-4.38569-5.64906-5.73569-9.35976"/>
    <path d="m334.957 297.844c-1.76872-2.27768-3.11872-4.29907-4.89104-9.02407"/>
    <path d="m329.055 297.169c-1.85535-2.025-3.07901-4.42541-4.93436-9.06377"/>
    <path d="m333.61 248.049c-1.85535 0.12634-3.66738 0.0433-4.51203 0.37901"/>
    <path d="m332.26 242.949c0.12634 1.01069-0.80134 0.88436-0.92767 1.72901"/>
    <path d="m319.006 242.772c2.17661-0.6353 4.2738 1.02152 6.30963 0.49451 0.90241-0.23462 2.41845-0.37179 3.86591 0.40067"/>
    <path d="m321.955 242.952c-0.20214 1.05401 0.69305 2.10441 1.98168 2.17299 1.13343 0.0578 2.31738-0.68583 2.23436-1.9492"/>
   </g>
  </g>
  <path d="m-19.168171 100.06434-0.142626 0.43976-0.993738 3.06235-3.689699-6e-3 2.986381 2.16989-1.134814 3.50005 2.978629-2.16008 2.97243 2.16008-1.134814-3.4923 2.984831-2.16369-3.687631-6e-3z" color="#000000" fill="#613a21" style="paint-order:stroke markers fill"/>
  <path id="star-4" transform="matrix(.26458333 0 0 .26458333 -114.41972 64.802409)" d="m360.00781 135.10742-3.88476 11.96875-12.60938-0.01758 10.20703 7.41602-3.88281 11.95898 10.18164-7.38086 10.15625 7.38086-3.87305-11.93359 10.19922-7.39453-12.60547-0.01758-3.88867-11.98047z" fill="#ffca26" stroke="#613a21" stroke-width=".56692914" style="paint-order:fill markers stroke"/>
  <g fill="#ffca26" stroke="#613a21" stroke-width=".955096">
   <use transform="rotate(-55,-19.172408,161.68947)" width="100%" height="100%" style="paint-order:stroke markers fill" xlink:href="#star-4"/>
   <use transform="rotate(-41.25,-19.17241,161.68947)" width="100%" height="100%" style="paint-order:stroke markers fill" xlink:href="#star-4"/>
   <use transform="rotate(-27.499999,-19.172406,161.68947)" width="100%" height="100%" style="paint-order:stroke markers fill" xlink:href="#star-4"/>
   <use transform="rotate(-13.75,-19.172427,161.68947)" width="100%" height="100%" style="paint-order:stroke markers fill" xlink:href="#star-4"/>
   <use transform="rotate(13.75,-19.172399,161.68946)" width="100%" height="100%" style="paint-order:stroke markers fill" xlink:href="#star-4"/>
   <use transform="rotate(27.499999,-19.172414,161.68947)" width="100%" height="100%" style="paint-order:stroke markers fill" xlink:href="#star-4"/>
   <use transform="rotate(41.25,-19.172412,161.68947)" width="100%" height="100%" style="paint-order:stroke markers fill" xlink:href="#star-4"/>
   <use transform="rotate(55,-19.172411,161.68947)" width="100%" height="100%" style="paint-order:stroke markers fill" xlink:href="#star-4"/>
  </g>
 </g>
</svg>
