<?xml version="1.0" encoding="utf-8"?>
<!-- Generator: Adobe Illustrator 27.1.1, SVG Export Plug-In . SVG Version: 6.00 Build 0)  -->
<svg version="1.1" id="Layer_1" xmlns="http://www.w3.org/2000/svg" xmlns:xlink="http://www.w3.org/1999/xlink" x="0px" y="0px"
	 viewBox="0 0 324 216" style="enable-background:new 0 0 324 216;" xml:space="preserve">
<style type="text/css">
	.st0{fill:#A4DAF4;}
	.st1{fill-rule:evenodd;clip-rule:evenodd;fill:#0069D2;}
	.st2{fill:#E02B2B;stroke:#000000;stroke-width:0.2731;}
	.st3{fill:none;stroke:#000000;stroke-width:0.2731;}
	.st4{fill:#F1F2F1;stroke:#000000;stroke-width:0.2731;stroke-miterlimit:10;}
	.st5{fill-rule:evenodd;clip-rule:evenodd;fill:#F1F2F1;stroke:#000000;stroke-width:0.2731;}
	.st6{fill-rule:evenodd;clip-rule:evenodd;fill:#F1F2F1;stroke:#000000;stroke-width:0.2731;stroke-miterlimit:1.8036;}
	.st7{fill:#F1F2F1;stroke:#000000;stroke-width:0.2731;stroke-miterlimit:1.8036;}
	.st8{fill-rule:evenodd;clip-rule:evenodd;fill:#F1F2F1;stroke:#000000;stroke-width:0.2731;stroke-miterlimit:10;}
	.st9{fill-rule:evenodd;clip-rule:evenodd;fill:#F1F2F1;stroke:#000000;stroke-width:0.2731;stroke-linejoin:round;}
	.st10{fill-rule:evenodd;clip-rule:evenodd;fill:#1B1A1C;stroke:#1B1A1C;stroke-width:0.2731;stroke-miterlimit:2.6187;}
	.st11{fill-rule:evenodd;clip-rule:evenodd;fill:#F1F2F1;stroke:#1B1A1C;stroke-width:0.2731;stroke-miterlimit:2.6187;}
	.st12{fill-rule:evenodd;clip-rule:evenodd;fill:#E02B2B;}
	.st13{fill:none;stroke:#1B1A1C;stroke-width:0.2731;stroke-linecap:round;stroke-linejoin:round;stroke-miterlimit:2.6187;}
	.st14{fill:none;stroke:#1B1A1C;stroke-width:0.2731;stroke-linecap:round;stroke-miterlimit:2.6187;}
	.st15{fill-rule:evenodd;clip-rule:evenodd;fill:#F1F2F1;}
	.st16{fill:#F1F2F1;stroke:#1B1A1C;stroke-width:0.2731;stroke-linecap:round;stroke-miterlimit:2.6187;}
	.st17{fill-rule:evenodd;clip-rule:evenodd;fill:#1B1A1C;}
	.st18{fill:none;stroke:#1B1A1C;stroke-width:0.2731;stroke-miterlimit:2.6187;}
</style>
<rect class="st0" width="324" height="216"/>
<g id="layer1_00000155845192017727673230000018321138422374603934_" transform="translate(-12.751896,83.432385)">
	<g id="g4432_00000012458666076905561930000017203698497335848093_" transform="translate(412.90828,-69.320367)">
		
			<g id="g6256_00000136404549227868770890000010189942267139297683_" transform="matrix(1.8563269,0,0,1.6042014,29.904859,4.9600926)">
			<g id="g3661_00000066510199183945950480000006652101537801871014_" transform="matrix(0.696915,0,0,0.788982,24.8183,26.23988)">
				
					<g id="g12214_00000115479398224099175340000003533922283291666088_" transform="matrix(0.379651,0,0,0.379651,-255.0843,-53.84055)">
				</g>
			</g>
		</g>
		
			<g id="g4043_00000125582544510589356230000017585387039514311079_" transform="matrix(1.020509,0,0,1.0194248,8.2066705,-8.8556093)">
			<path id="path11587-1-7_00000013872758610688060000000011979550480248756383_" class="st1" d="M-241.4,161.5
				c0,0-53.9-20.9-53.9-73.9s0-48,0-48h107.8v48C-187.5,140.6-241.4,161.5-241.4,161.5z"/>
			<path id="rect4670_00000135655045419131315980000000781373892455048346_" class="st2" d="M-187.5,39.6v48c0,2-0.1,4-0.3,6h-53.6
				v-54H-187.5L-187.5,39.6z"/>
			
				<g id="g8_00000170957039244722688970000008588270864922393759_" transform="matrix(0.97990317,0,0,0.98094533,76.953323,-70.653014)">
			</g>
			<path id="path3273_00000063630488648939913270000001258636199397377965_" class="st3" d="M-241.4,162.1c0,0-53.9-21-53.9-74.2
				s0-48.3,0-48.3h107.8v48.3C-187.5,141.1-241.4,162.1-241.4,162.1L-241.4,162.1z"/>
			
				<g id="g3843_00000006680354949122519540000002590359519461582268_" transform="matrix(0.64152661,0,0,0.6422089,-487.36753,137.85429)">
				
					<g id="g4378_00000152958261391813276800000007236271968055082384_" transform="matrix(0.22939474,0,0,0.22939474,365.96677,147.4858)">
					
						<g id="g6180_00000137811698151666866100000013375596408196055197_" transform="matrix(1.5187073,0,0,1.5187073,298.06558,-350.15727)">
						<g id="g6156_00000160175480528934628310000012556080696174846081_" transform="translate(0,0.3237175)">
							<path id="path6109_00000174602858187880512040000002800688776749137820_" class="st4" d="M-39.1-367.1c-2.2,0-4,1.9-4,4.3
								c0,1.7,0.5,2.3,1.1,3.9c0.6,1.7-0.5,3.7-1.9,4.7c0,1.7,0,2.4,0,2.4h4.8h0h4.8c0,0,0-0.7,0-2.4c-1.4-1-2.5-3-1.9-4.7
								c0.6-1.7,1.1-2.2,1.1-3.9C-35-365.2-36.8-367.1-39.1-367.1C-39-367.1-39-367.1-39.1-367.1z M-41.5-349c0,0,0.7,2.8,0,5
								c-0.7,2.1-0.9,3.7-0.9,6.3c0,2.6,0,4.4,0.9,6.3c0.3,0.6,0.5,1,0,1.5c-0.5,0.6-1.6,2-1.6,3.6s0.4,2.5,1.6,3.8s0,3.9,0,3.9h2.4
								h0h2.4c0,0-1.1-2.6,0-3.9c1.1-1.3,1.6-2.2,1.6-3.8s-1.1-3-1.6-3.6c-0.5-0.6-0.3-1,0-1.5c0.9-1.9,0.9-3.7,0.9-6.3
								c0-2.6-0.3-4.2-0.9-6.3c-0.7-2.1,0-5,0-5H-39h0H-41.5z"/>
							<path id="path6154_00000122707538393064767140000003608199526824451763_" class="st4" d="M-39.1-242.8c-2.2,0-4-1.9-4-4.3
								c0-1.7,0.5-2.3,1.1-3.9s-0.5-3.7-1.9-4.7c0-1.7,0-2.4,0-2.4h4.8h0h4.8c0,0,0,0.7,0,2.4c-1.4,1-2.5,3-1.9,4.7
								c0.6,1.7,1.1,2.2,1.1,3.9C-35-244.8-36.8-242.8-39.1-242.8C-39-242.8-39-242.8-39.1-242.8z M-41.5-261c0,0,0.7-2.8,0-5
								c-0.7-2.1-0.9-3.7-0.9-6.3c0-2.6,0-4.4,0.9-6.3c0.3-0.6,0.5-1,0-1.5c-0.5-0.6-1.6-2-1.6-3.6s0.4-2.5,1.6-3.8
								c1.1-1.3,0-3.9,0-3.9h2.4h0h2.4c0,0-1.1,2.6,0,3.9c1.1,1.3,1.6,2.2,1.6,3.8s-1.1,3-1.6,3.6c-0.5,0.6-0.3,1,0,1.5
								c0.9,1.9,0.9,3.7,0.9,6.3c0,2.6-0.3,4.2-0.9,6.3c-0.7,2.1,0,5,0,5H-39h0H-41.5z"/>
						</g>
						
							<g id="g6160_00000106867249251743894510000012734897664906525079_" transform="matrix(-0.7071068,0.7071068,-0.7071068,-0.7071068,973.00611,388.12148)">
							<path id="path6162_00000057138958030921709970000017308130926709544347_" class="st4" d="M224.7,1142.3
								c-2.2,0-3.9,1.9-3.9,4.3c0,1.7,0.5,2.3,1.2,4c0.7,1.7-0.4,3.8-1.8,4.7c0,1.7,0,2.5,0,2.5l4.7,0.1l0,0l4.7,0.1
								c0,0,0-0.7,0-2.5c-1.4-1-2.5-3.1-1.9-4.8c0.6-1.7,1.1-2.3,1-4C228.7,1144.3,226.9,1142.3,224.7,1142.3
								C224.7,1142.3,224.7,1142.3,224.7,1142.3z M222.6,1160.7c0,0,0.7,2.9,0.1,5c-0.6,2.2-0.9,3.8-0.8,6.4c0,2.6,0.1,4.4,1,6.4
								c0.3,0.6,0.5,1,0,1.6c-0.4,0.6-1.5,2-1.5,3.6c0,1.6,0.5,2.5,1.6,3.9c1.1,1.3,0.1,4,0.1,4l2.4,0l0,0l2.4,0c0,0-1.2-2.7-0.1-4
								c1.1-1.3,1.5-2.2,1.5-3.8c0-1.6-1.1-3.1-1.6-3.7c-0.5-0.6-0.3-1,0-1.6c0.9-2,0.9-3.8,0.8-6.4c0-2.6-0.4-4.2-1-6.4
								c-0.7-2.2-0.1-5-0.1-5l-2.4,0l0,0L222.6,1160.7z"/>
							<path id="path6164_00000020359929455219827670000014275485243710307476_" class="st4" d="M226.8,1268.7c-2.2-0.1-4-2-4-4.4
								c0-1.7,0.4-2.3,1-4c0.6-1.7-0.5-3.8-1.9-4.8c0-1.7,0-2.5,0-2.5l4.7,0.1l0,0l4.7,0.1c0,0,0,0.7,0,2.5c-1.4,1-2.4,3-1.8,4.7
								c0.7,1.7,1.1,2.3,1.2,4C230.7,1266.8,229,1268.7,226.8,1268.7C226.8,1268.7,226.8,1268.7,226.8,1268.7z M224.1,1250.2
								c0,0,0.6-2.8-0.1-5c-0.7-2.2-1-3.8-1-6.4c0-2.6-0.1-4.4,0.8-6.4c0.3-0.6,0.4-1,0-1.6c-0.5-0.6-1.6-2.1-1.6-3.7
								c0-1.6,0.4-2.5,1.5-3.8c1.1-1.3-0.1-4-0.1-4l2.4,0l0,0l2.4,0c0,0-1.1,2.6,0.1,4c1.1,1.3,1.6,2.3,1.6,3.9c0,1.6-1,3.1-1.5,3.6
								c-0.4,0.6-0.3,1,0,1.6c0.9,2,1,3.8,1,6.4c0,2.6-0.2,4.2-0.8,6.4c-0.6,2.2,0.1,5,0.1,5l-2.4,0l0,0L224.1,1250.2z"/>
						</g>
						<g id="g6166_00000025426821570017099730000006328699763664813744_" transform="matrix(0,1,-1,0,801.60255,-10.448753)">
							<path id="path6168_00000170995125019672184070000016997368004819184803_" class="st4" d="M-294.2,776.3c-2.1,0-3.9,2-3.9,4.4
								c0,1.7,0.5,2.3,1.1,4.1c0.6,1.7-0.5,3.9-1.8,4.9c0,1.8,0,2.5,0,2.5h4.6h0h4.6c0,0,0-0.8,0-2.5c-1.4-1-2.4-3.1-1.8-4.9
								c0.6-1.7,1.1-2.3,1.1-4.1C-290.3,778.3-292.1,776.4-294.2,776.3C-294.2,776.3-294.2,776.3-294.2,776.3z M-296.6,795.1
								c0,0,0.6,2.9,0,5.1c-0.6,2.2-0.9,3.9-0.9,6.5s0,4.5,0.9,6.5c0.3,0.6,0.4,1,0,1.6c-0.5,0.6-1.5,2.1-1.5,3.7s0.4,2.6,1.5,3.9
								c1.1,1.4,0,4,0,4h2.3h0h2.3c0,0-1.1-2.7,0-4c1.1-1.4,1.5-2.3,1.5-3.9s-1.1-3.1-1.5-3.7c-0.4-0.6-0.3-1,0-1.6
								c0.9-2,0.9-3.9,0.9-6.5s-0.3-4.3-0.9-6.5c-0.6-2.2,0-5.1,0-5.1h-2.3h0H-296.6z"/>
							<path id="path6170_00000020373117297604257410000015376382083241213315_" class="st4" d="M-294.2,904.9c-2.1,0-3.9-2-3.9-4.4
								c0-1.7,0.5-2.3,1.1-4.1c0.6-1.7-0.5-3.9-1.8-4.9c0-1.8,0-2.5,0-2.5h4.6h0h4.6c0,0,0,0.8,0,2.5c-1.4,1-2.4,3.1-1.8,4.9
								c0.6,1.7,1.1,2.3,1.1,4.1C-290.3,903-292.1,904.9-294.2,904.9C-294.2,904.9-294.2,904.9-294.2,904.9z M-296.6,886.1
								c0,0,0.6-2.9,0-5.1c-0.6-2.2-0.9-3.9-0.9-6.5s0-4.5,0.9-6.5c0.3-0.6,0.4-1,0-1.6c-0.5-0.6-1.5-2.1-1.5-3.7s0.4-2.6,1.5-3.9
								s0-4,0-4h2.3h0h2.3c0,0-1.1,2.7,0,4s1.5,2.3,1.5,3.9s-1.1,3.1-1.5,3.7c-0.4,0.6-0.3,1,0,1.6c0.9,2,0.9,3.9,0.9,6.5
								s-0.3,4.3-0.9,6.5c-0.6,2.2,0,5.1,0,5.1h-2.3h0H-296.6z"/>
						</g>
						
							<g id="g6172_00000015333330604165976930000002268141104219317131_" transform="matrix(0.7071068,0.7071068,-0.7071068,0.7071068,398.57023,-171.07984)">
							<path id="path6174_00000023988968426075342130000013615473030014628022_" class="st4" d="M-402.8,151.8c-2.2,0.1-4,2-4,4.4
								c0,1.7,0.4,2.3,1,4c0.6,1.7-0.5,3.8-1.9,4.8c0,1.7,0,2.5,0,2.5l4.7-0.1l0,0l4.7-0.1c0,0,0-0.7,0-2.5c-1.4-1-2.4-3-1.8-4.7
								c0.7-1.7,1.1-2.3,1.2-4C-398.9,153.6-400.6,151.7-402.8,151.8C-402.8,151.7-402.8,151.8-402.8,151.8z M-405.5,170.3
								c0,0,0.6,2.8-0.1,5s-1,3.8-1,6.4c0,2.6-0.1,4.4,0.8,6.4c0.3,0.6,0.4,1,0,1.6c-0.5,0.6-1.6,2.1-1.6,3.7c0,1.6,0.4,2.5,1.5,3.8
								c1.1,1.3-0.1,4-0.1,4l2.4,0l0,0l2.4,0c0,0-1.1-2.6,0.1-4s1.6-2.3,1.6-3.9s-1-3.1-1.5-3.6c-0.4-0.6-0.3-1,0-1.6
								c0.9-2,1-3.8,1-6.4c0-2.6-0.2-4.2-0.8-6.4c-0.6-2.2,0.1-5,0.1-5l-2.4,0l0,0L-405.5,170.3z"/>
							<path id="path6176_00000002367770341054158530000004933140589040148873_" class="st4" d="M-405,278.2c-2.2,0-3.9-1.9-3.9-4.3
								c0-1.7,0.5-2.3,1.2-4s-0.4-3.8-1.8-4.7c0-1.7,0-2.5,0-2.5l4.7-0.1l0,0l4.7-0.1c0,0,0,0.7,0,2.5c-1.4,1-2.5,3.1-1.9,4.8
								c0.6,1.7,1.1,2.3,1,4C-401,276.2-402.8,278.2-405,278.2C-405,278.2-405,278.2-405,278.2z M-407,259.8c0,0,0.7-2.9,0.1-5
								c-0.6-2.2-0.9-3.8-0.8-6.4s0.1-4.4,1-6.4c0.3-0.6,0.5-1,0-1.6c-0.4-0.6-1.5-2-1.5-3.6c0-1.6,0.5-2.5,1.6-3.9
								c1.1-1.3,0.1-4,0.1-4l2.4,0l0,0l2.4,0c0,0-1.2,2.7-0.1,4s1.5,2.2,1.5,3.8c0,1.6-1.1,3.1-1.6,3.7c-0.5,0.6-0.3,1,0,1.6
								c0.9,2,0.9,3.8,0.8,6.4c0,2.6-0.4,4.2-1,6.4c-0.7,2.2-0.1,5-0.1,5l-2.4,0l0,0L-407,259.8z"/>
						</g>
					</g>
					<path id="path6089_00000061452055692879305960000016627174615439398546_" class="st4" d="M238.8-885.6
						c-41.5,0-75.2,32.6-75.2,72.7c0,40.1,33.7,72.7,75.2,72.7s75.2-32.6,75.2-72.7C314-853,280.3-885.6,238.8-885.6z M238.8-869.9
						c32.6,0,59,25.6,59,57c0,31.5-26.4,57-59,57c-32.6,0-59-25.5-59-57S206.2-869.9,238.8-869.9z M238.8-835.5
						c-12.9,0-23.4,10.2-23.4,22.7c0,12.5,10.5,22.7,23.4,22.7s23.4-10.2,23.4-22.7C262.2-825.3,251.7-835.5,238.8-835.5z
						 M238.8-821c4.6,0,8.4,3.7,8.4,8.1c0,4.5-3.8,8.1-8.4,8.1c-4.6,0-8.4-3.6-8.4-8.1S234.1-821,238.8-821z"/>
				</g>
				<path id="use1993_00000086679120391842294230000002068194857769884803_" class="st5" d="M411-11.4c-0.8,0-1.6,0-2.3,0.1
					c-7.1,0.9-9.2,6.1-17.4,6.1c-3.4,0-5.8-0.9-7.9-2V3.1c2.1,1.1,4.5,2,7.9,2c9,0,10.7-6.3,19.7-6.3c9,0,10.7,6.3,19.7,6.3
					c0.1,0,0.2,0,0.2,0c4.7-4.6,9.4-9.8,13.7-15.5c-4.6,1.8-7.2,5.2-13.9,5.2C421.6-5.1,420-11.4,411-11.4z"/>
			</g>
			<path id="path4682_00000125576362501487227590000009114363151932114067_" class="st2" d="M-241.4,93.6H-295
				c3.8,48.6,53.6,67.9,53.6,67.9V93.6L-241.4,93.6z"/>
			
				<g id="g7400_00000097496822221402208730000000134426130911691412_" transform="matrix(0.44183971,0.00169283,-0.00169104,0.44230963,-461.96096,33.8527)">
				<path id="path4725_00000010312874650009117160000002796077848791202202_" class="st6" d="M560.4,46.6
					c11.1-0.2,17.3,11.1,19,16.1c11.5-12.4,14.6-31.4-0.4-41.6c-0.9,5.7-9,14.9-18.6,15.1c-10.9,0.2-17.6-9.3-18.6-15
					c-15,10.2-12.4,29.1-0.4,41.6C543,57.8,549.6,46.8,560.4,46.6L560.4,46.6z"/>
				<path id="rect5618_00000129919486957922324760000017905617541072889254_" class="st7" d="M558.3,31.8l4.1,0l0.9,64.7l-6.3,0
					L558.3,31.8z"/>
				<path id="rect5620_00000052824602149852773990000013588515258489518270_" class="st7" d="M558.7,34.9l3.3,0
					c0.7,0,1.3,0.8,1.3,1.7l0,10.9c0,0.9-0.6,1.7-1.3,1.7l-3.3,0c-0.7,0-1.3-0.8-1.3-1.7l0-10.9C557.3,35.7,557.9,34.9,558.7,34.9z"
					/>
				<path id="rect5624_00000013182492835314353960000006948785083068380294_" class="st7" d="M560.3,27l2.4,4.5l-4.9,0L560.3,27z"/>
				<path id="rect5627_00000140733794363855427170000015650134821774290824_" class="st7" d="M558,87.1l4.2,0c0.9,0,1.7,0.9,1.7,2.1
					l0,13.2c0,1.1-0.7,2.1-1.7,2.1l-4.2,0c-0.9,0-1.7-0.9-1.7-2.1l0-13.2C556.4,88.1,557.1,87.1,558,87.1z"/>
			</g>
			<g id="g5116_00000099636280681029250370000000155339782301578899_" transform="translate(4.5373056,-9.8667918)">
				
					<g id="g10383_00000065045299096147346540000003098779129542108569_" transform="matrix(0.24145193,0,0,0.24158161,-425.85215,-3.8735253)">
					<path id="path1910_00000023274637869087324970000003395166079673280423_" class="st8" d="M563.7,291l-1.4,5.2l3.3,4
						c0.8,0.9,3,1.7,2.9,4l0.2,6.5c-0.1,2.9-0.3,2.4-0.2,5.7c0.2,3.3,0.8,4.2,0,9.4c-0.3,2.4-1.9,4.1-2.6,5.2
						c-0.2,0.4-1.3,1.5-2.8,2.5c-1.3,0.8-3,1.5-4.5,2.5c-3.2,2.1-7.1,3.4-7.1,3.4c0,0.3,3.8-0.3,7.5-1.9c1,1.1-1.7,4-1.4,3.7
						c0.8,0.5,4.4-4,4-5.3c1.2-0.6,1.9,0.5,2.7-0.4c-0.4,1.2-1.3,4.3-1.7,5.2c0.3-0.1,1.6-2.1,2.8-4.1c0.4-0.6-1-1.9,2.5,4
						c-1.2-4.1-0.6-5.4-0.2-5.9c0.4-0.6,0.9-1.4,1-1.4c0.5,0-0.1,1.9,0.3,2.1c0.3,0.1,1.3-1,2.1,0.4c0.1,0.3-0.2-0.8-0.5-0.2
						c-0.1,0.2-1.2,0.9-1.5,2.7c-0.2,1.4,0.2,2.6-0.4,3.4c-1.6,2-4.6,2.5-5.4,3.7c1.7-0.4,5.6-1.5,6.5-3.4c0.4-0.9,0.6-2,0.7-3.1
						c0.2-1.9,1.1-2.7,1.4-2.4c0.3,0.3,0.6,1,0.8,2.3c0.3,2.2,0.4,5,1.9,7.3c-0.2-2.5-0.6-5.7-0.2-7.9c0-0.2-0.1-0.3,0.7-0.1
						c0.4,0.1,1.2,1.3,2.3,2.6c0.9,1,5.3,3.3,7.7,3.7c-2.6-2.1-5.8-3-6.6-4.1c-1.1-1.5-2.2-3-2.7-3.4c-0.9-0.7-0.8-0.4-0.9-1.4
						c0.1-1.8,0.9,0.1,0.5-1.7c0.2,0,1,1.1,3.2,1.4c-0.4,0.6-0.3,1.3,0.2,1.8c0.3-1.2,1-2.6,1.3-2.3c1.5,0.9,5.1,6.4,5.4,6.5
						c0.4,0-0.4-2.5-2.2-5.1c-1.4-1.9-3.1-3.1-3.6-4c0.8,0.4,1.1,0.5,2.2,1.1c0.8,0.5,1.4,1.2,2.4,1.9c2,3.2,10.4,5.2,11.7,4.2
						c-2.4-1.1-6.6-2-9.5-4.1c-2.8-2.1-5.5-4.1-5.7-4.4c-0.8-1.6-2.6-3.7-3.1-5.9c-0.9-3.7-0.8-3.3-0.8-6.5c0-5.9-0.2-8.9-0.4-12.3
						c-0.3-2.1,1.1-2.8,2.3-4c1.5-1.6,2.8-2.8,4.2-4l-0.7-4.7l-3.6,3.1c-1.5,3.1-3.3,3.1-3.1,0l1.2-2.6l0.1-3.4l-1.5,1.4l-1.3,3
						c-2.1,4.8-1.5,0.5-1.5-1.1l-1.8-4.7l-0.7,3.9l-0.1,2c0,1.3-0.7,3.7-2.4,1.3l-2-2L563.7,291z"/>
					<g id="g10365_00000116222351671871421370000014005896618055234710_" transform="matrix(1.1047,0,0,1,-44.4329,0)">
						<path id="path4587_00000008146765752955003720000004467830004628714675_" class="st5" d="M552.7,292.6c-0.7,0-1.2-1.2-1.3-0.2
							c-0.1,1,0.7,2.2,0.5,3.1c-0.3,0.9-1.2-1.1-1.9-0.6c-0.7,0.5,0.2,3.1-0.5,3.7c-0.7,0.6-1.1-0.8-1.8-0.2c-0.7,0.6-0.3,1.6-1,2.5
							c-0.7,0.9-1,1.2-1.9,1.1s-0.6-1.6-1.6-1.3c-1,0.2-1.7,2.3-2.4,2.3s0.1-2.1-0.3-2.3c-0.4-0.2-0.8,1.4-1.2,1.5
							c-0.4,0.1-0.1-1.6-0.4-1.1c-0.7,1.1-1.1,1.5-1.8,1.5c-0.5,0,0.3-2.1-0.3-1.7c-0.8,0.6-1.4,1.7-2.4,1.9
							c-0.6,0.1,0.3-1.5-0.1-1.5s-1.2,1.7-1.6,1.5s0.2-1.7-0.1-2.3s-0.9,0.5-1.2,0c-0.3-0.5,0.2-1.3,0-1.9c-0.2-0.6-0.8,0.5-0.7-0.4
							c0-1.2,1-1.9,1.6-3c0.3-0.5-1.7,0.6-1.8,0c0-0.6,2-2.6,1.6-2.5c-1.1,0.4-2.1,1.6-3.4,2.5c-0.9,0.6-0.4-1.3-0.7-1.5
							c-0.4-0.2-0.1,0.5-0.7,0.8c-0.6,0.2-1.3,0.9-1.6,0.2c-0.6-1.1,0.3-2,0.6-3.2c0.2-0.8,0.5-1.8,0.9-2.8c0.2-0.6-1.5,0.5-1.2-0.2
							c0.3-0.8,0.8-1.1,2.5-2.5c0.6-0.5-2.3-1.6-1.8-1.5c1.4,0.2,2.6,0.8,4,1.7c0.8,0.6-0.3-1.8,0.1-1.9c0.4-0.1,1,1.4,1.5,1.5
							s0.1-0.4,0.4-0.9c0.4-0.5,1.2-0.7,1-1.1c-0.1-0.4-1.5,0-1.6-0.6c-0.1-0.6,1.6-1.8,1.3-1.9c-0.3-0.1-1.7,1.6-2.5,1.5
							c-0.8-0.1-0.2-1.9-0.7-1.9c-0.6,0-0.8,2.1-1.5,2.1s-0.1-1.7-1-2.1s-2.2,0.9-2.5,0.6c-0.3-0.3,1.3-1.2,1.2-1.9
							c-0.1-0.7-1.6-0.4-1.8-0.8c-0.1-0.4,1-0.3,1.2-0.8c0.2-0.4-0.9-0.8-0.4-0.9s1.7,0.7,2.2,0.4c0.5-0.3-0.7-1.1-0.3-1.7
							s2.2-0.4,2.1-0.6c-0.2-0.1-2.2,0.3-2.8,0c-0.6-0.3,0.8-1,0.3-1.3c-0.6-0.3-2.2,0.6-2.5,0c-0.3-0.6,1.1-1.6,1.2-2.5
							c0.1-0.9-1.1-0.4-0.9-0.9c0.2-0.6,1.2-0.5,1.6-1.3c0.4-0.9-0.4-1.7,0-2.1c0.4-0.4,1.4,0.9,1.8,0.6c0.4-0.4-0.8-1.8-0.3-2.1
							c0.6-0.2,2,1.4,2.5,1.1c0.5-0.3-1-1.7-0.6-2.3s1.7,0.2,2.4,0c0.6-0.2,0.4-0.6,0.1-0.9s-0.9,0-1-0.4c-0.1-0.4,0.8-1.1,0.4-1.1
							s-1.2,1.2-1.8,1.1c-0.6-0.1,0.1-1.4-0.4-1.5c-0.5-0.1-1,1-1.6,0.9s-0.4-1-1-1.3c-0.6-0.3-1.1,0.5-1.5,0.2s-0.4-1,0-1.3
							s1,0.4,1.5,0s-0.1-1.3,0.3-1.5c0.4-0.2,0.5,0.8,1.3,0.8s2-0.2,2.1-0.8s-1.8-0.8-1.6-1.3s1.9-0.4,2.2-0.9c0.3-0.5-1.7-1-1-1.1
							c1.8-0.3,4.5-0.4,0.7-1.7c-0.6-0.2-1.1-0.1-1.6-0.8s-1-1.1-0.6-1.7c0.4-0.6,1.8-0.2,2.1-0.8c0.3-0.6-0.2,0.1,0-0.4
							c0.1-0.5,1.4-0.2,1.6-0.6c0.2-0.4-0.7-0.5-0.7-0.9c0-0.5,0.1-0.8,0.7-0.9c2.2-0.7-1-1.1-0.9-1.7c0.1-0.6,1.2,0.1,1.5-0.6
							c0.3-0.7-0.6-1.5-0.3-2.1c0.3-0.6,0.9,0.2,1.5-0.2c0.6-0.4,0.2-2.8,0.7-1.3c0.6,1.6,2,4.5,2.3,0c0.2-2.9,1.5-0.7,1.9-0.2
							c0.8,0.8-0.6,1.7-0.1,2.1c0.4,0.4,1.3-0.9,1.9-0.6c0.6,0.4,0.2,1.8,0.4,2.1c0.3,0.3,0.2-1.1,0.6-0.9c0.4,0.2,0.8,1.1,1,1.7
							c0.8,1.6,1.4-0.3,1.2-0.9c-0.2-0.5-1.1-1-1-1.7c0.1-1.6,0.9-1.1,1.3-0.2c0.3,0.6,0.3,1.7,0.7,1.3c0.7-0.7,0.1-1.5,0.6-1.5
							c0.5,0.1,0.6,0.5,0.4-0.8c-0.1-0.7,0-1.7-0.5-2.3c-0.7-0.7-1.9-1.5-0.3-2.1c1.2-0.5,0.7-1.5,1.2-0.9c0.5,0.6,0.4,2.9,0.9,3.2
							c0.5,0.3,0.7-1.8,1.2-1.9c0.5-0.1,0.8,2.4,0.7,1.5c-0.1-1.3,0.5-4,2.2-3.4c0.8,0.3,0.3,2.5,0.4,3.2c0.1,0.7,0.8-1.2,1-0.6
							c1.1,3.6,1.2,1.4,1.2,0.1c0-0.5-1.3-3.4-0.7-3.6c1.3-0.5,2.3,1.8,2.5,1.7c0.1-0.1,0.1-1.3,0.3-2.5c0.1-1,0.3-1.9,0.8-2.3
							c0.3-0.3,0.2,2.6,0.4,2.8c0.3,0.2,0.2-1,0.6-1.9c0.7-1.6,1.7-1.4,2.2-0.4c0.4,0.7-0.5,3.1,0,2.5c0.5-0.7,0.9-1.3,1.3-1.9
							c0.5-0.7,1-1.2,1.6-1.3c0.8-0.1,1.2,1,0.3,2.1c-0.5,0.6-0.1,1.5,0.2,1.7c0.6,0.4,1.1,0,1.9-0.7s0.9-0.6,1.5-0.2
							c1.1,0.7-0.8,2.3-0.9,3c-0.2,1.2,1.4,3.6,1.9-0.2c0.2-1.1,1-0.6,1.8-0.5c1,0.1,1.8,0.9,0.5,1.6c-1.4,0.8-1.3,2.8,0.4,2
							c0.5-0.2,0.5-1.9,1.6-2.1c0.4-0.1-0.6,2.1,0,1.7c0.5-0.4,1-0.8,1.6-1.2c0.5-0.3,0.9-0.5,1.5-0.5c1.1-0.1,1.5,0.6,1.5,1.3
							s-1.8,1.4-1.8,1.7c0.1,0.3,1.4-0.8,2.1-0.6c0.7,0.2,0.1,1.5,0.7,1.3c0.6-0.1-0.1-1.1,0.1-0.8c0.5,0.6-0.8,1.7-0.7,2.6
							c0,2.2,2.1,0.6,3.1-0.6c0.7-0.9,1.3,0.9,1.2,1.3c-0.1,0.5-1.6,0.2-1.8,0.6c-0.1,0.4,0.7,0.7,1.2,0.9c0.5,0.2,0.2-0.4,0.8-0.6
							s1.7-0.8,1.6-0.3c-0.1,0.3-0.5,1-0.8,1.7c-0.2,0.6-0.4,1.3-0.3,1.8c0.3,1,0.4,1.1-0.1,2.1c-0.3,0.6-1.7-0.4-2.4-0.4
							s-0.5-0.1-0.3,0.4s1.8,1.6,1.2,1.5c-2.8-0.4-4.2-0.4-1.6,1.3c0.5,0.4,1.5,0.7,0.7,1.1c-1.1,0.7-2.6,1.8-1,2.5
							c0.3,0.1,1.1-1.3,1.6-1.1c0.5,0.2,0,2.3,0.4,1.9c0.6-0.7,0.9-1.9,1.8-2.5c0.8-0.5,0.6-0.6,0.9-0.4c0.3,0.2-0.5,0.8,0.1,1.1
							c0.3,0.2,1.3-0.3,2.2-0.6c0.8-0.3,1.5-0.5,1.6-0.3c0.4,0.6-1.3,2.5-0.9,2.3c1.2-0.6,1.9-0.7,2.8-0.6c0.3,0.1-1.4,0.6-1.5,1.1
							c-0.1,0.6,1.1,0.8,1,1.1s-1.2-0.4-1.2,0.4c0,1-0.3,1.8-0.6,2.6c-0.2,0.5,0.8,0.3,1.3,0s0.1-1.1,0.6-1.3
							c0.4-0.2,0.8,0.1,1.2,0.6c0.4,0.5-0.1,1.1,0.4,1.3c0.6,0.2,1.5-0.8,1.9-0.6c0.4,0.2-0.8,0.8-0.3,1.3c0.5,0.6,2,0.5,2.4,0.9
							c0.4,0.5-0.9,0.2-0.9,0.9c0,0.7,1.1,1.1,1,1.9c-0.1,0.8-0.8,1.3-1.3,1.3c-0.5,0-0.4-1.5-0.7-1.3c-0.3,0.2-0.2,1.9-0.6,2.1
							c-0.4,0.1-0.7-1.6-1-1.5c-0.3,0.1-0.6,1.2-0.3,1.9c0.3,0.7,0.8,0.9,1.6,0.9c0.8,0.1,1-0.9,1.5-0.6c0.5,0.3,0.3,0.8,0.6,1.9
							c0.3,1.1,1,2.3,0.6,2.6c-0.4,0.4-1.5-1.5-2.1-1.1c-0.6,0.3,0,2-0.3,2.5c-0.3,0.4-0.4-0.8-0.9-0.8c-0.4,0-1,0.4-0.9,0.9
							s1,0.6,1.2,1.1c0.1,0.6-0.1,0.9-0.6,1.1c-0.5,0.2-1.2-0.5-1.3-0.2s0.8,0.9,0.9,1.3c0,0.4-1.1-0.2-0.7,0.4
							c0.3,0.6,1.5,0.9,2.1,1.9c0.6,0.9,0.3,1.4,0.1,1.9c-0.2,0.5-0.4,0.4-0.9,0.2c-0.5-0.2-1.1-1.4-1-1.1c0,0.2,1,1.2,1.2,2.1
							c0.2,0.9-0.1,1.2-0.4,1.3c-0.4,0.1-0.8-1.2-1-0.8c-0.2,0.4,0.8,2.2,0.3,2.5c-1.2,0.7-1.5-1.1-2.2-1.3c-0.4-0.1,1,2,0.6,2.6
							c-0.6,0.8-2-0.6-2.4-0.2c-0.4,0.4-0.4,2.2-1.5,2.6c-0.5,0.2-0.3-1.6-0.6-1.5c-0.3,0.1,0,1.5-0.4,1.9c-0.4,0.4-1.1-0.9-1.2-0.4
							c0,0.5,1.3,1.7,1,2.3c-0.3,0.6-1.9-0.5-2.2,0.2s1.1,1.9,0.9,2.6s-1-0.3-1.8,0.2s-0.6,1.9-1.2,1.9c-0.6,0-0.8-2.2-1.3-2.1
							c-0.5,0.1-0.1,2.3-0.7,2.6c-0.6,0.4-1-1.1-1.8-1.1c-0.8,0-0.6,0.1-1.5,0.1c-0.9,0-1.3-1.5-2.2-1.3s-0.8,0.2-1.3,0.3
							s-0.1-1.5-0.6-1.5c-0.5,0-0.8,1.6-1.5,1.5c-0.6,0-0.7-2.8-1-2.8s-0.1,3-0.4,2.8s-0.2-3.4-0.7-3.7s-1.2,3.1-1.5,2.6
							c-0.5-1.3,0.3-2.4,0.6-3.8c0.2-0.8-1.5,0.6-2.1,0.2c-0.5-0.4,0.9-1.9,0-1.9c-0.9,0-2.4,1.9-3.7,1.9s-0.8-1.8-1.6-1.9
							c-0.8-0.1-1.1,1.7-1.6,1.5c-0.6-0.2-0.2-1.8-0.6-2.3c-0.4-0.4-0.6,0.8-1,0.6c-0.5-0.2-0.3-1.2-0.9-1.5
							S553.3,292.6,552.7,292.6L552.7,292.6z"/>
						<path id="path4292_00000097466152517212500230000008169914296859578027_" class="st5" d="M565.9,283.8
							c-0.6,0.6,0.1,1.8-0.2,2.1c-0.3,0.4-0.6-1-1-0.7c-0.4,0.3,0,1.6-0.4,2c-0.5,0.4-1.1-0.8-1.4-0.5c-0.3,0.2,0.6,1.4,0.3,1.4
							c-0.3,0-1-1.5-1.5-1.4c-0.5,0.1-0.1,2.2-0.4,2c-0.8-0.6-0.7-1.9-1-3c-0.2-0.7-0.8,1.4-1.4,1.4c-0.5,0-0.1-1.9-0.7-1.3"/>
						<path id="path4302_00000136382409099358784560000017614596723275533715_" class="st5" d="M579.8,287.1
							c-0.5,0.1-0.9,1.6-1.8,1.5c-0.5-0.1,0.1-1.4-0.1-1.4c-0.2,0-0.4,1.2-0.8,1.3c-0.4,0.1-0.7-1.1-0.8-0.8s0.6,1.8,0.2,2.2
							c-0.4,0.4-1.3-1.2-1.8-0.8c-0.4,0.4,0.4,2,0,2.4c-0.4,0.5-0.7-0.7-1.4-0.6c-0.7,0.1-0.9,1.3-1.4,1c-0.5-0.3-0.1-2.1-0.5-2.2
							c-0.4-0.1-0.7,1.7-1.2,1.8c-0.6,0-0.5-1.3-1.1-1.6c-0.6-0.3-0.7,0.7-1.4,0.3"/>
						<path id="path3295_00000088818787903980772250000007310611246754475694_" class="st5" d="M543.2,298.4
							c-0.4-0.2-1.4,0.7-2.1-0.1c-0.4-0.4,0.7-1,0.6-1.2c-0.2-0.2-0.8,0.7-1.2,0.5s-0.1-1.4-0.3-1.2s-0.3,2-0.8,2
							c-0.5,0-0.6-1.9-1.1-1.9c-0.5,0-0.5,1.9-1,2c-0.5,0.1-0.3-1.1-0.9-1.5c-0.6-0.4-1.3,0.4-1.6-0.2c-0.3-0.6,0.8-1.8,0.5-2.2
							c-0.3-0.4-1.3,1-1.8,0.6c-0.5-0.4,0.2-1.4-0.2-2.1c-0.4-0.7-0.9,0.1-1.3-0.8"/>
						<path id="path4298_00000063624493588615266490000009718140274619139737_" class="st5" d="M552.4,286.9c-0.5,0-1.1,1.3-2,1
							c-0.4-0.2,0.4-1.3,0.1-1.4s-0.6,1-1,1.1c-0.4,0-0.5-1.3-0.7-1c-0.2,0.3,0.3,2-0.1,2.2c-0.4,0.3-1.1-1.5-1.6-1.2
							c-0.5,0.3,0.1,2-0.4,2.4c-0.4,0.4-0.6-0.9-1.3-0.9c-0.7-0.1-1.1,1-1.5,0.6c-0.4-0.4,0.2-2-0.2-2.3c-0.4-0.2-0.9,1.5-1.5,1.4
							s-0.3-1.4-0.8-1.9c-0.6-0.5-0.8,0.5-1.4-0.1c-0.6-0.6-0.4-1.8-1.1-2.3s-1.3,0.7-1.6,0.5c-0.4-0.2,0.5-1.1,0.1-1.4
							s-1.2,0.6-1.6,0.2c-0.4-0.4,0.2-1.6-0.1-1.8c-0.3-0.2-0.8,1.3-0.9,0.9c-0.1-0.3,0.7-1.8,0.5-2.3c-0.3-0.5-1.6,0.7-1.6,0.2
							c0.1-1.2,1.1-1.5,1.8-2.3c0.4-0.5-1.3-0.5-1.5-1.1c-0.2-0.6,1.3-0.8,0.7-1.3"/>
						<path id="path4300_00000113315255458737787740000008166047498741233034_" class="st5" d="M575.6,259.9c-0.5,0-1.1,1.3-2,1
							c-0.4-0.2,0.4-1.3,0.1-1.4c-0.2-0.1-0.6,1-1,1.1s-0.5-1.3-0.7-1c-0.2,0.3,0.3,2-0.1,2.2c-0.4,0.3-1.1-1.5-1.6-1.2
							c-0.5,0.3,0.1,2-0.4,2.4s-0.6-0.9-1.3-0.9c-0.7-0.1-1.1,1-1.5,0.6c-0.4-0.4,0.2-2-0.2-2.3c-0.4-0.2-0.9,1.5-1.5,1.4
							s-0.3-1.4-0.8-1.9c-0.6-0.5-0.8,0.5-1.4-0.1c-0.6-0.6-0.4-1.8-1.1-2.3c-0.7-0.4-1.3,0.7-1.6,0.5c-0.4-0.2,0.5-1.1,0.1-1.4
							s-1.2,0.6-1.6,0.2c-0.4-0.4,0.2-1.6-0.1-1.8c-0.3-0.2-0.8,1.3-0.9,0.9c-0.1-0.3,0.7-1.8,0.5-2.3s-1.6,0.7-1.6,0.2
							c0.1-1.2,1.1-1.5,1.8-2.3c0.4-0.5-1.3-0.5-1.5-1.1c-0.2-0.6,1.3-0.8,0.7-1.3"/>
						<path id="path3297_00000023246932073810388920000000814416063000287410_" class="st5" d="M559.9,258.1c-0.3,0.4-0.2,1.9-1,2.4
							c-0.4,0.2-0.4-1.3-0.6-1.2c-0.2,0.1,0.1,1.3-0.2,1.6c-0.3,0.4-1-0.5-1-0.1c0,0.4,1.3,1.2,1.1,1.7s-1.6-0.2-1.8,0.5
							c-0.2,0.6,1.1,1.5,1,2.1s-0.9-0.1-1.5,0.4c-0.6,0.5-0.3,1.7-0.8,1.7c-0.5,0.1-0.9-1.7-1.3-1.5c-0.4,0.2,0.1,1.9-0.4,2.3
							c-0.5,0.4-0.9-0.8-1.6-0.7c-0.7,0.1-0.4,1.1-1.1,1.2c-0.8,0.1-1.2-1-2-0.8s-0.5,1.6-0.9,1.8c-0.4,0.1-0.2-1.3-0.6-1.2
							s-0.6,1.4-1.1,1.5c-0.5,0.1-0.7-1.3-1-1.3c-0.3,0.1,0,1.6-0.2,1.5c-0.3-0.2-0.4-1.9-0.8-2.1c-0.5-0.2-0.9,1.9-1.1,1.5
							c-0.5-1,0-2.1,0.2-3.2c0.1-0.7-1.2,0.7-1.7,0.5c-0.5-0.3,0.6-1.7-0.2-1.6"/>
						<path id="path3293_00000107589319594157446560000015097500107787663021_" class="st5" d="M540.7,273.6
							c-0.6-0.5-0.8,0.5-1.4-0.1c-0.6-0.6-0.4-1.8-1.1-2.3c-0.7-0.4-1.3,0.7-1.6,0.5c-0.4-0.2,0.5-1.1,0.1-1.4
							c-0.4-0.3-1.2,0.6-1.6,0.2c-0.4-0.4,0.2-1.6-0.1-1.8c-0.3-0.2-0.8,1.3-0.9,0.9c-0.1-0.3,0.7-1.8,0.5-2.3
							c-0.3-0.5-1.6,0.7-1.6,0.2c0.1-1.2,1.1-1.5,1.8-2.3c0.4-0.5-1.3-0.5-1.5-1.1c-0.2-0.6,1.3-0.8,0.7-1.3"/>
						<path id="path4296_00000128463429306180988250000015889041773006395561_" class="st5" d="M547.5,281c0.3,1-0.8-0.5-1.1-0.3
							s0.2,0.4-0.1,1c-0.2,0.6-0.3,1.5-0.8,1.4c-0.9-0.2-0.8-1.4-1.2-2.3c-0.3-0.6-0.6-1.4-0.9-2.3c-0.2-0.5-0.6,1.4-0.8,0.8
							c-0.2-0.7-0.6,0.2-0.2-1.9c0.1-0.8-1.4-0.4-1.3-0.9c0.8-2.5,1.9-1.6,3.1-2.2c0.8-0.3-1-0.8-0.8-1.2c0.2-0.4,1.2,0,1.6-0.3
							c0.3-0.3-0.2-0.3-0.2-0.9s0.3-1.3,0-1.5"/>
						<path id="path3289_00000052094214396865613950000008472558777040213674_" class="st5" d="M565.7,276.9
							c-0.6,0.4-0.2,1.7-0.7,2.2c-0.6,0.5-0.9-0.6-1.5-0.2c-0.6,0.5-0.4,1.2-0.9,2.1c-0.5,0.9-0.4,1.9-1.6,1
							c-0.6-0.5-0.5-1.3-1.4-1.1c-0.8,0.2-1.4,1.9-2,1.9c-0.6,0,0.1-1.8-0.2-1.9c-0.3-0.2-0.7,1.2-1,1.3c-0.3,0.1-0.1-1.4-0.4-1
							c-0.6,0.9-0.9,1.2-1.5,1.3c-0.4,0,0.2-1.8-0.2-1.4c-0.7,0.5-1.2,1.5-2,1.6c-0.5,0.1,0.2-1.3-0.1-1.3s-1,1.4-1.4,1.3
							c-0.4-0.2,0.2-1.4-0.1-1.9s-0.7,0.4-1,0c-0.2-0.4,0.2-1.1,0-1.6c-0.2-0.5-1.1,0-0.6-0.3c1.1-0.7,1.8-1.4,1.4-2.5
							c-0.2-0.5-1.5,0.5-1.5,0c0-0.5,1.7-1.8,1.4-2.1"/>
						<path id="path4288_00000077284354599662415670000004866239914639005597_" class="st5" d="M580.7,277.9
							c0.4-0.3,1.2,1.3,1.4,0.8c0.2-0.5-0.9-2.5-0.6-2.6c1.2-0.4,1.9,0.1,1.9,3.4c0,1.1,0.6-0.8,1-0.8c0.3,0,0,0.5,0.4,0.9
							c0.4,0.4,0.7,1.2,1.2,0.9c0.8-0.6,0.3-1.7,0.4-2.7c0.1-0.7,0.1-1.6,0.1-2.6c0-0.6,1,1,1,0.4c0-0.7,0.6-0.1-0.4-1.9
							c-0.3-0.6,1.2-1,0.9-1.5c-1.5-1.9-2.2-0.6-3.5-0.5c-0.8,0.1,0.7-1.3,0.4-1.5c-0.3-0.3-1.1,0.6-1.5,0.5
							c-0.4-0.1,0.1-0.4-0.1-0.9c-0.1-0.6-0.7-1.1-0.5-1.3"/>
						<path id="path3305_00000003096748137959927040000002331895687141346434_" class="st5" d="M570.5,272.6c0.4,0.7-0.4,1.7,0,2.4
							c0.3,0.8,1-0.1,1.4,0.7c0.4,0.8-0.1,1.3,0.1,2.3c0.2,1.1-0.3,1.9,1.2,1.7c0.7-0.1,0.9-0.9,1.6-0.3c0.7,0.6,0.7,2.5,1.2,2.8
							c0.5,0.3,0.5-1.6,0.8-1.6c0.3,0,0.2,1.4,0.5,1.7c0.3,0.3,0.6-1.2,0.6-0.7c0.2,1.1,0.4,1.6,0.9,2c0.4,0.3,0.4-1.7,0.7-1.2
							c0.5,0.8,0.6,1.9,1.3,2.5c0.4,0.4,0.2-1.3,0.5-1.1c0.3,0.2,0.4,1.8,0.8,1.9c0.4,0.1,0.3-1.4,0.7-1.7c0.4-0.3,0.5,0.8,0.9,0.5
							c0.4-0.2,0.2-1.1,0.5-1.4c0.3-0.4,1.2,0.4,0.7,0"/>
						<path id="path4284_00000181048112190736184510000000306126240598952327_" class="st5" d="M577.3,270.4c0.5,0-0.3-1.2,0-1.3
							s1.1,1.3,1.5,1.1c0.4-0.2-0.3-1.4,0-1.9c0.2-0.5,0.8,0.3,1-0.1c0.2-0.4-0.2-1.1-0.1-1.6c0.1-0.5,1.1-0.1,0.6-0.4
							c-1.2-0.6-1.9-1.2-1.5-2.4c0.1-0.5,1.5,0.3,1.5-0.2c0-0.5-1.8-1.6-1.5-1.9c0.9-1.1,1.7-1.2,3,1.7c0.4,1,0.2-1.1,0.5-1.3"/>
						<path id="path3307_00000003105183472051811910000003501249655896839863_" class="st5" d="M559.1,266.1
							c0.6,0.4,0.3,1.7,0.9,2.1s0.9-0.7,1.5-0.3c0.6,0.4,0.4,1.1,1,2c0.6,0.8,0.5,1.8,1.7,0.8c0.6-0.5,0.4-1.4,1.3-1.3
							c0.8,0.1,1.6,1.7,2.1,1.7c0.6-0.1-0.2-1.7,0.1-1.9c0.3-0.2,0.7,1.1,1.1,1.2s0-1.4,0.3-1c0.6,0.9,1,1.1,1.6,1.1
							c0.4,0-0.3-1.7,0.1-1.5"/>
						<path id="path4280_00000062910400526298291990000005845055638282089125_" class="st5" d="M547,263.4c0.4,0.4,0.3-1.3,0.6-1
							s0.3,1.9,0.7,2c0.4,0.1,0.4-1.4,0.8-1.6s0.5,0.8,0.9,0.6s0.3-1.1,0.6-1.4c0.3-0.3,1,0.7,0.7,0.1c-0.7-1.3-1-2.3-0.2-3.1
							c0.4-0.3,1.1,1.4,1.3,0.9c0.2-0.4-0.8-2.6-0.4-2.7c1.2-0.3,1.9,0.3,1.7,3.6c-0.1,1.1,0.7-0.8,1-0.7"/>
						<path id="path3303_00000177443949205087598620000011721014295152965249_" class="st5" d="M534.6,247.3
							c0.3,0.8-0.5,1.6-0.2,2.4s1,0,1.4,0.8c0.3,0.8-0.1,1.3,0,2.4c0.1,1.1-0.4,1.9,1,1.8c0.7,0,1-0.8,1.6-0.1s0.5,2.6,1,2.9
							c0.5,0.3,0.6-1.6,0.9-1.5c0.3,0.1,0.1,1.5,0.4,1.7s0.6-1.1,0.7-0.6c0.1,1.2,0.4,1.7,0.8,2c0.4,0.3,0.5-1.7,0.8-1.1"/>
					</g>
				</g>
				
					<g id="g5040_00000071544925267467825490000008271492697684504736_" transform="matrix(0.24145193,0,0,0.24158161,-320.53193,-3.8735253)">
					<path id="path5042_00000097463489855706088170000018278179972579405954_" class="st8" d="M248.7,291l-1.4,5.2l3.3,4
						c0.8,0.9,3,1.7,2.9,4l0.2,6.5c-0.1,2.9-0.3,2.4-0.2,5.7c0.2,3.3,0.8,4.2,0,9.4c-0.3,2.4-1.9,4.1-2.6,5.2
						c-0.2,0.4-1.3,1.5-2.8,2.5c-1.3,0.8-3,1.5-4.5,2.5c-3.2,2.1-7.1,3.4-7.1,3.4c0,0.3,3.8-0.3,7.5-1.9c1,1.1-1.7,4-1.4,3.7
						c0.8,0.5,4.4-4,4-5.3c1.2-0.6,1.9,0.5,2.7-0.4c-0.4,1.2-1.3,4.3-1.7,5.2c0.3-0.1,1.6-2.1,2.8-4.1c0.4-0.6-1-1.9,2.5,4
						c-1.2-4.1-0.6-5.4-0.2-5.9c0.4-0.6,0.9-1.4,1-1.4c0.5,0-0.1,1.9,0.3,2.1c0.3,0.1,1.3-1,2.1,0.4c0.1,0.3-0.2-0.8-0.5-0.2
						c-0.1,0.2-1.2,0.9-1.5,2.7c-0.2,1.4,0.2,2.6-0.4,3.4c-1.6,2-4.6,2.5-5.4,3.7c1.7-0.4,5.6-1.5,6.5-3.4c0.4-0.9,0.6-2,0.7-3.1
						c0.2-1.9,1.1-2.7,1.4-2.4c0.3,0.3,0.6,1,0.8,2.3c0.3,2.2,0.4,5,1.9,7.3c-0.2-2.5-0.6-5.7-0.2-7.9c0-0.2-0.1-0.3,0.7-0.1
						c0.4,0.1,1.2,1.3,2.3,2.6c0.9,1,5.3,3.3,7.7,3.7c-2.6-2.1-5.8-3-6.6-4.1c-1.1-1.5-2.2-3-2.7-3.4c-0.9-0.7-0.8-0.4-0.9-1.4
						c0.1-1.8,0.9,0.1,0.5-1.7c0.2,0,1,1.1,3.2,1.4c-0.4,0.6-0.3,1.3,0.2,1.8c0.3-1.2,1-2.6,1.3-2.3c1.5,0.9,5.1,6.4,5.4,6.5
						c0.4,0-0.4-2.5-2.2-5.1c-1.4-1.9-3.1-3.1-3.6-4c0.8,0.4,1.1,0.5,2.2,1.1c0.8,0.5,1.4,1.2,2.4,1.9c2,3.2,10.4,5.2,11.7,4.2
						c-2.4-1.1-6.6-2-9.5-4.1c-2.8-2.1-5.5-4.1-5.7-4.4c-0.8-1.6-2.6-3.7-3.1-5.9c-0.9-3.7-0.8-3.3-0.8-6.5c0-5.9-0.2-8.9-0.4-12.3
						c-0.3-2.1,1.1-2.8,2.3-4c1.5-1.6,2.8-2.8,4.2-4l-0.7-4.7l-3.6,3.1c-1.5,3.1-3.3,3.1-3.1,0l1.2-2.6l0.1-3.4l-1.5,1.4l-1.3,3
						c-2.1,4.8-1.5,0.5-1.5-1.1l-1.8-4.7l-0.7,3.9l-0.1,2c0,1.3-0.7,3.7-2.4,1.3l-2-2L248.7,291z"/>
					<g id="g5044_00000138573420912474622210000018009560292753411971_" transform="matrix(1.1047,0,0,1,-44.4329,0)">
						<path id="path5046_00000031902874696760629830000016521329628126285223_" class="st5" d="M267.5,292.6c-0.7,0-1.2-1.2-1.3-0.2
							c-0.1,1,0.7,2.2,0.5,3.1c-0.3,0.9-1.2-1.1-1.9-0.6s0.2,3.1-0.5,3.7c-0.7,0.6-1.1-0.8-1.8-0.2c-0.7,0.6-0.3,1.6-1,2.5
							c-0.7,0.9-1,1.2-1.9,1.1s-0.6-1.6-1.6-1.3c-1,0.2-1.7,2.3-2.4,2.3c-0.7,0,0.1-2.1-0.3-2.3c-0.4-0.2-0.8,1.4-1.2,1.5
							c-0.4,0.1-0.1-1.6-0.4-1.1c-0.7,1.1-1.1,1.5-1.8,1.5c-0.5,0,0.3-2.1-0.3-1.7c-0.8,0.6-1.4,1.7-2.4,1.9
							c-0.6,0.1,0.3-1.5-0.1-1.5s-1.2,1.7-1.6,1.5s0.2-1.7-0.1-2.3s-0.9,0.5-1.2,0c-0.3-0.5,0.2-1.3,0-1.9c-0.2-0.6-0.8,0.5-0.7-0.4
							c0-1.2,1-1.9,1.6-3c0.3-0.5-1.7,0.6-1.8,0c0-0.6,2-2.6,1.6-2.5c-1.1,0.4-2.1,1.6-3.4,2.5c-0.9,0.6-0.4-1.3-0.7-1.5
							c-0.4-0.2-0.1,0.5-0.7,0.8c-0.6,0.2-1.3,0.9-1.6,0.2c-0.6-1.1,0.3-2,0.6-3.2c0.2-0.8,0.5-1.8,0.9-2.8c0.2-0.6-1.5,0.5-1.2-0.2
							c0.3-0.8,0.8-1.1,2.5-2.5c0.6-0.5-2.3-1.6-1.8-1.5c1.4,0.2,2.6,0.8,4,1.7c0.8,0.6-0.3-1.8,0.1-1.9c0.4-0.1,1,1.4,1.5,1.5
							c0.5,0.1,0.1-0.4,0.4-0.9c0.4-0.5,1.2-0.7,1-1.1c-0.1-0.4-1.5,0-1.6-0.6c-0.1-0.6,1.6-1.8,1.3-1.9c-0.3-0.1-1.7,1.6-2.5,1.5
							c-0.8-0.1-0.2-1.9-0.7-1.9c-0.6,0-0.8,2.1-1.5,2.1s-0.1-1.7-1-2.1c-0.9-0.4-2.2,0.9-2.5,0.6c-0.3-0.3,1.3-1.2,1.2-1.9
							c-0.1-0.7-1.6-0.4-1.8-0.8c-0.1-0.4,1-0.3,1.2-0.8s-0.9-0.8-0.4-0.9s1.7,0.7,2.2,0.4c0.5-0.3-0.7-1.1-0.3-1.7s2.2-0.4,2.1-0.6
							s-2.2,0.3-2.8,0c-0.6-0.3,0.8-1,0.3-1.3c-0.6-0.3-2.2,0.6-2.5,0c-0.3-0.6,1.1-1.6,1.2-2.5c0.1-0.9-1.1-0.4-0.9-0.9
							c0.2-0.6,1.2-0.5,1.6-1.3c0.4-0.9-0.4-1.7,0-2.1c0.4-0.4,1.4,0.9,1.8,0.6c0.4-0.4-0.8-1.8-0.3-2.1c0.6-0.2,2,1.4,2.5,1.1
							c0.5-0.3-1-1.7-0.6-2.3s1.7,0.2,2.4,0c0.6-0.2,0.4-0.6,0.1-0.9s-0.9,0-1-0.4s0.8-1.1,0.4-1.1s-1.2,1.2-1.8,1.1
							s0.1-1.4-0.4-1.5c-0.5-0.1-1,1-1.6,0.9s-0.4-1-1-1.3s-1.1,0.5-1.5,0.2s-0.4-1,0-1.3s1,0.4,1.5,0c0.4-0.4-0.1-1.3,0.3-1.5
							c0.4-0.2,0.5,0.8,1.3,0.8c0.8,0,2-0.2,2.1-0.8s-1.8-0.8-1.6-1.3c0.1-0.6,1.9-0.4,2.2-0.9c0.3-0.5-1.7-1-1-1.1
							c1.8-0.3,4.5-0.4,0.7-1.7c-0.6-0.2-1.1-0.1-1.6-0.8s-1-1.1-0.6-1.7c0.4-0.6,1.8-0.2,2.1-0.8c0.3-0.6-0.2,0.1,0-0.4
							c0.1-0.5,1.4-0.2,1.6-0.6c0.2-0.4-0.7-0.5-0.7-0.9c0-0.5,0.1-0.8,0.7-0.9c2.2-0.7-1-1.1-0.9-1.7c0.1-0.6,1.2,0.1,1.5-0.6
							c0.3-0.7-0.6-1.5-0.3-2.1c0.3-0.6,0.9,0.2,1.5-0.2c0.6-0.4,0.2-2.8,0.7-1.3c0.6,1.6,2,4.5,2.3,0c0.2-2.9,1.5-0.7,1.9-0.2
							c0.8,0.8-0.6,1.7-0.1,2.1c0.4,0.4,1.3-0.9,1.9-0.6c0.6,0.4,0.2,1.8,0.4,2.1c0.3,0.3,0.2-1.1,0.6-0.9c0.4,0.2,0.8,1.1,1,1.7
							c0.8,1.6,1.4-0.3,1.2-0.9c-0.2-0.5-1.1-1-1-1.7c0.1-1.6,0.9-1.1,1.3-0.2c0.3,0.6,0.3,1.7,0.7,1.3c0.7-0.7,0.1-1.5,0.6-1.5
							c0.5,0.1,0.6,0.5,0.4-0.8c-0.1-0.7,0-1.7-0.5-2.3c-0.7-0.7-1.9-1.5-0.3-2.1c1.2-0.5,0.7-1.5,1.2-0.9c0.5,0.6,0.4,2.9,0.9,3.2
							c0.5,0.3,0.7-1.8,1.2-1.9c0.5-0.1,0.8,2.4,0.7,1.5c-0.1-1.3,0.5-4,2.2-3.4c0.8,0.3,0.3,2.5,0.4,3.2c0.1,0.7,0.8-1.2,1-0.6
							c1.1,3.6,1.2,1.4,1.2,0.1c0-0.5-1.3-3.4-0.7-3.6c1.3-0.5,2.3,1.8,2.5,1.7c0.1-0.1,0.1-1.3,0.3-2.5c0.1-1,0.3-1.9,0.8-2.3
							c0.3-0.3,0.2,2.6,0.4,2.8c0.3,0.2,0.2-1,0.6-1.9c0.7-1.6,1.7-1.4,2.2-0.4c0.4,0.7-0.5,3.1,0,2.5c0.5-0.7,0.9-1.3,1.3-1.9
							c0.5-0.7,1-1.2,1.6-1.3c0.8-0.1,1.2,1,0.3,2.1c-0.5,0.6-0.1,1.5,0.2,1.7c0.6,0.4,1.1,0,1.9-0.7s0.9-0.6,1.5-0.2
							c1.1,0.7-0.8,2.3-0.9,3c-0.2,1.2,1.4,3.6,1.9-0.2c0.2-1.1,1-0.6,1.8-0.5c1,0.1,1.8,0.9,0.5,1.6c-1.4,0.8-1.3,2.8,0.4,2
							c0.5-0.2,0.5-1.9,1.6-2.1c0.4-0.1-0.6,2.1,0,1.7c0.5-0.4,1-0.8,1.6-1.2c0.5-0.3,0.9-0.5,1.5-0.5c1.1-0.1,1.5,0.6,1.5,1.3
							c-0.1,0.8-1.8,1.4-1.8,1.7c0.1,0.3,1.4-0.8,2.1-0.6c0.7,0.2,0.1,1.5,0.7,1.3s-0.1-1.1,0.1-0.8c0.5,0.6-0.8,1.7-0.7,2.6
							c0,2.2,2.1,0.6,3.1-0.6c0.7-0.9,1.3,0.9,1.2,1.3c-0.1,0.5-1.6,0.2-1.8,0.6c-0.1,0.4,0.7,0.7,1.2,0.9c0.5,0.2,0.2-0.4,0.8-0.6
							s1.7-0.8,1.6-0.3c-0.1,0.3-0.5,1-0.8,1.7c-0.2,0.6-0.4,1.3-0.3,1.8c0.3,1,0.4,1.1-0.1,2.1c-0.3,0.6-1.7-0.4-2.4-0.4
							c-0.7,0-0.5-0.1-0.3,0.4s1.8,1.6,1.2,1.5c-2.8-0.4-4.2-0.4-1.6,1.3c0.5,0.4,1.5,0.7,0.7,1.1c-1.1,0.7-2.6,1.8-1,2.5
							c0.3,0.1,1.1-1.3,1.6-1.1c0.5,0.2,0,2.3,0.4,1.9c0.6-0.7,0.9-1.9,1.8-2.5c0.8-0.5,0.6-0.6,0.9-0.4c0.3,0.2-0.5,0.8,0.1,1.1
							c0.3,0.2,1.3-0.3,2.2-0.6c0.8-0.3,1.5-0.5,1.6-0.3c0.4,0.6-1.3,2.5-0.9,2.3c1.2-0.6,1.9-0.7,2.8-0.6c0.3,0.1-1.4,0.6-1.5,1.1
							c-0.1,0.6,1.1,0.8,1,1.1c0,0.4-1.2-0.4-1.2,0.4c0,1-0.3,1.8-0.6,2.6c-0.2,0.5,0.8,0.3,1.3,0c0.5-0.3,0.1-1.1,0.6-1.3
							c0.4-0.2,0.8,0.1,1.2,0.6c0.4,0.5-0.1,1.1,0.4,1.3c0.6,0.2,1.5-0.8,1.9-0.6c0.4,0.2-0.8,0.8-0.3,1.3c0.5,0.6,2,0.5,2.4,0.9
							c0.4,0.5-0.9,0.2-0.9,0.9c0,0.7,1.1,1.1,1,1.9s-0.8,1.3-1.3,1.3s-0.4-1.5-0.7-1.3c-0.3,0.2-0.2,1.9-0.6,2.1s-0.7-1.6-1-1.5
							c-0.3,0.1-0.6,1.2-0.3,1.9c0.3,0.7,0.8,0.9,1.6,0.9c0.8,0.1,1-0.9,1.5-0.6c0.5,0.3,0.3,0.8,0.6,1.9c0.3,1.1,1,2.3,0.6,2.6
							c-0.4,0.4-1.5-1.5-2.1-1.1c-0.6,0.3,0,2-0.3,2.5c-0.3,0.4-0.4-0.8-0.9-0.8c-0.4,0-1,0.4-0.9,0.9s1,0.6,1.2,1.1
							c0.1,0.6-0.1,0.9-0.6,1.1c-0.5,0.2-1.2-0.5-1.3-0.2s0.8,0.9,0.9,1.3c0,0.4-1.1-0.2-0.7,0.4c0.3,0.6,1.5,0.9,2.1,1.9
							c0.6,0.9,0.3,1.4,0.1,1.9c-0.2,0.5-0.4,0.4-0.9,0.2c-0.5-0.2-1.1-1.4-1-1.1c0,0.2,1,1.2,1.2,2.1c0.2,0.9-0.1,1.2-0.4,1.3
							c-0.4,0.1-0.8-1.2-1-0.8c-0.2,0.4,0.8,2.2,0.3,2.5c-1.2,0.7-1.5-1.1-2.2-1.3c-0.4-0.1,1,2,0.6,2.6c-0.6,0.8-2-0.6-2.4-0.2
							c-0.4,0.4-0.4,2.2-1.5,2.6c-0.5,0.2-0.3-1.6-0.6-1.5c-0.3,0.1,0,1.5-0.4,1.9c-0.4,0.4-1.1-0.9-1.2-0.4c0,0.5,1.3,1.7,1,2.3
							c-0.3,0.6-1.9-0.5-2.2,0.2s1.1,1.9,0.9,2.6s-1-0.3-1.8,0.2s-0.6,1.9-1.2,1.9c-0.6,0-0.8-2.2-1.3-2.1c-0.5,0.1-0.1,2.3-0.7,2.6
							c-0.6,0.4-1-1.1-1.8-1.1s-0.6,0.1-1.5,0.1c-0.9,0-1.3-1.5-2.2-1.3s-0.8,0.2-1.3,0.3s-0.1-1.5-0.6-1.5c-0.5,0-0.8,1.6-1.5,1.5
							c-0.6,0-0.7-2.8-1-2.8c-0.4,0-0.1,3-0.4,2.8s-0.2-3.4-0.7-3.7c-0.6-0.3-1.2,3.1-1.5,2.6c-0.5-1.3,0.3-2.4,0.6-3.8
							c0.2-0.8-1.5,0.6-2.1,0.2c-0.5-0.4,0.9-1.9,0-1.9s-2.4,1.9-3.7,1.9s-0.8-1.8-1.6-1.9c-0.8-0.1-1.1,1.7-1.6,1.5
							s-0.2-1.8-0.6-2.3c-0.4-0.4-0.6,0.8-1,0.6c-0.5-0.2-0.3-1.2-0.9-1.5S268.2,292.6,267.5,292.6L267.5,292.6z"/>
						<path id="path5048_00000158740996335861386610000004786878959461719211_" class="st5" d="M280.7,283.8
							c-0.6,0.6,0.1,1.8-0.2,2.1c-0.3,0.4-0.6-1-1-0.7c-0.4,0.3,0,1.6-0.4,2c-0.5,0.4-1.1-0.8-1.4-0.5c-0.3,0.2,0.6,1.4,0.3,1.4
							c-0.3,0-1-1.5-1.5-1.4s-0.1,2.2-0.4,2c-0.8-0.6-0.7-1.9-1-3c-0.2-0.7-0.8,1.4-1.4,1.4c-0.5,0-0.1-1.9-0.7-1.3"/>
						<path id="path5050_00000049932003576993345630000011712968498249658302_" class="st5" d="M294.6,287.1
							c-0.5,0.1-0.9,1.6-1.8,1.5c-0.5-0.1,0.1-1.4-0.1-1.4c-0.2,0-0.4,1.2-0.8,1.3c-0.4,0.1-0.7-1.1-0.8-0.8s0.6,1.8,0.2,2.2
							s-1.3-1.2-1.8-0.8c-0.4,0.4,0.4,2,0,2.4c-0.4,0.5-0.7-0.7-1.4-0.6s-0.9,1.3-1.4,1c-0.5-0.3-0.1-2.1-0.5-2.2
							c-0.4-0.1-0.7,1.7-1.2,1.8c-0.6,0-0.5-1.3-1.1-1.6c-0.6-0.3-0.7,0.7-1.4,0.3"/>
						<path id="path5052_00000148624618664362452690000009575525716119739057_" class="st5" d="M258,298.4c-0.4-0.2-1.4,0.7-2.1-0.1
							c-0.4-0.4,0.7-1,0.6-1.2c-0.2-0.2-0.8,0.7-1.2,0.5s-0.1-1.4-0.3-1.2s-0.3,2-0.8,2c-0.5,0-0.6-1.9-1.1-1.9c-0.5,0-0.5,1.9-1,2
							c-0.5,0.1-0.3-1.1-0.9-1.5c-0.6-0.4-1.3,0.4-1.6-0.2c-0.3-0.6,0.8-1.8,0.5-2.2c-0.3-0.4-1.3,1-1.8,0.6
							c-0.5-0.4,0.2-1.4-0.2-2.1c-0.4-0.7-0.9,0.1-1.3-0.8"/>
						<path id="path5054_00000150820357948989723810000009262171391159320251_" class="st5" d="M267.3,286.9c-0.5,0-1.1,1.3-2,1
							c-0.4-0.2,0.4-1.3,0.1-1.4c-0.2-0.1-0.6,1-1,1.1c-0.4,0-0.5-1.3-0.7-1s0.3,2-0.1,2.2s-1.1-1.5-1.6-1.2c-0.5,0.3,0.1,2-0.4,2.4
							c-0.4,0.4-0.6-0.9-1.3-0.9s-1.1,1-1.5,0.6c-0.4-0.4,0.2-2-0.2-2.3c-0.4-0.2-0.9,1.5-1.5,1.4s-0.3-1.4-0.8-1.9
							c-0.6-0.5-0.8,0.5-1.4-0.1c-0.6-0.6-0.4-1.8-1.1-2.3c-0.7-0.4-1.3,0.7-1.6,0.5c-0.4-0.2,0.5-1.1,0.1-1.4
							c-0.4-0.3-1.2,0.6-1.6,0.2c-0.4-0.4,0.2-1.6-0.1-1.8c-0.3-0.2-0.8,1.3-0.9,0.9c-0.1-0.3,0.7-1.8,0.5-2.3
							c-0.3-0.5-1.6,0.7-1.6,0.2c0.1-1.2,1.1-1.5,1.8-2.3c0.4-0.5-1.3-0.5-1.5-1.1c-0.2-0.6,1.3-0.8,0.7-1.3"/>
						<path id="path5056_00000135684609351662298010000009216733438942174896_" class="st5" d="M290.4,259.9c-0.5,0-1.1,1.3-2,1
							c-0.4-0.2,0.4-1.3,0.1-1.4c-0.2-0.1-0.6,1-1,1.1c-0.4,0-0.5-1.3-0.7-1c-0.2,0.3,0.3,2-0.1,2.2s-1.1-1.5-1.6-1.2
							c-0.5,0.3,0.1,2-0.4,2.4c-0.4,0.4-0.6-0.9-1.3-0.9c-0.7-0.1-1.1,1-1.5,0.6s0.2-2-0.2-2.3c-0.4-0.2-0.9,1.5-1.5,1.4
							c-0.6-0.1-0.3-1.4-0.8-1.9c-0.6-0.5-0.8,0.5-1.4-0.1c-0.6-0.6-0.4-1.8-1.1-2.3c-0.7-0.4-1.3,0.7-1.6,0.5
							c-0.4-0.2,0.5-1.1,0.1-1.4c-0.4-0.3-1.2,0.6-1.6,0.2s0.2-1.6-0.1-1.8c-0.3-0.2-0.8,1.3-0.9,0.9c-0.1-0.3,0.7-1.8,0.5-2.3
							c-0.3-0.5-1.6,0.7-1.6,0.2c0.1-1.2,1.1-1.5,1.8-2.3c0.4-0.5-1.3-0.5-1.5-1.1c-0.2-0.6,1.3-0.8,0.7-1.3"/>
						<path id="path5058_00000158716160150131536920000006634558878349008781_" class="st5" d="M274.7,258.1c-0.3,0.4-0.2,1.9-1,2.4
							c-0.4,0.2-0.4-1.3-0.6-1.2s0.1,1.3-0.2,1.6c-0.3,0.4-1-0.5-1-0.1c0,0.4,1.3,1.2,1.1,1.7c-0.2,0.6-1.6-0.2-1.8,0.5
							c-0.2,0.6,1.1,1.5,1,2.1s-0.9-0.1-1.5,0.4s-0.3,1.7-0.8,1.7s-0.9-1.7-1.3-1.5c-0.4,0.2,0.1,1.9-0.4,2.3
							c-0.5,0.4-0.9-0.8-1.6-0.7c-0.7,0.1-0.4,1.1-1.1,1.2c-0.8,0.1-1.2-1-2-0.8s-0.5,1.6-0.9,1.8c-0.4,0.1-0.2-1.3-0.6-1.2
							s-0.6,1.4-1.1,1.5s-0.7-1.3-1-1.3c-0.3,0.1,0,1.6-0.2,1.5c-0.3-0.2-0.4-1.9-0.8-2.1c-0.5-0.2-0.9,1.9-1.1,1.5
							c-0.5-1,0-2.1,0.2-3.2c0.1-0.7-1.2,0.7-1.7,0.5s0.6-1.7-0.2-1.6"/>
						<path id="path5060_00000117635961863151045190000013984627976469063864_" class="st5" d="M255.5,273.6
							c-0.6-0.5-0.8,0.5-1.4-0.1c-0.6-0.6-0.4-1.8-1.1-2.3c-0.7-0.4-1.3,0.7-1.6,0.5c-0.4-0.2,0.5-1.1,0.1-1.4
							c-0.4-0.3-1.2,0.6-1.6,0.2c-0.4-0.4,0.2-1.6-0.1-1.8c-0.3-0.2-0.8,1.3-0.9,0.9s0.7-1.8,0.5-2.3c-0.3-0.5-1.6,0.7-1.6,0.2
							c0.1-1.2,1.1-1.5,1.8-2.3c0.4-0.5-1.3-0.5-1.5-1.1c-0.2-0.6,1.3-0.8,0.7-1.3"/>
						<path id="path5062_00000029035530920887505350000015989265779204389807_" class="st5" d="M262.3,281c0.3,1-0.8-0.5-1.1-0.3
							s0.2,0.4-0.1,1s-0.3,1.5-0.8,1.4c-0.9-0.2-0.8-1.4-1.2-2.3c-0.3-0.6-0.6-1.4-0.9-2.3c-0.2-0.5-0.6,1.4-0.8,0.8
							c-0.2-0.7-0.6,0.2-0.2-1.9c0.1-0.8-1.4-0.4-1.3-0.9c0.8-2.5,1.9-1.6,3.1-2.2c0.8-0.3-1-0.8-0.8-1.2c0.2-0.4,1.2,0,1.6-0.3
							c0.3-0.3-0.2-0.3-0.2-0.9s0.3-1.3,0-1.5"/>
						<path id="path5064_00000055693240119695871120000014937836071554581642_" class="st5" d="M280.6,276.9
							c-0.6,0.4-0.2,1.7-0.7,2.2c-0.6,0.5-0.9-0.6-1.5-0.2s-0.4,1.2-0.9,2.1c-0.5,0.9-0.4,1.9-1.6,1c-0.6-0.5-0.5-1.3-1.4-1.1
							c-0.8,0.2-1.4,1.9-2,1.9c-0.6,0,0.1-1.8-0.2-1.9s-0.7,1.2-1,1.3c-0.3,0.1-0.1-1.4-0.4-1c-0.6,0.9-0.9,1.2-1.5,1.3
							c-0.4,0,0.2-1.8-0.2-1.4c-0.7,0.5-1.2,1.5-2,1.6c-0.5,0.1,0.2-1.3-0.1-1.3c-0.4,0-1,1.4-1.4,1.3c-0.4-0.2,0.2-1.4-0.1-1.9
							c-0.3-0.5-0.7,0.4-1,0c-0.2-0.4,0.2-1.1,0-1.6c-0.2-0.5-1.1,0-0.6-0.3c1.1-0.7,1.8-1.4,1.4-2.5c-0.2-0.5-1.5,0.5-1.5,0
							c0-0.5,1.7-1.8,1.4-2.1"/>
						<path id="path5066_00000028320559511745505100000004432271467523726509_" class="st5" d="M295.6,277.9
							c0.4-0.3,1.2,1.3,1.4,0.8c0.2-0.5-0.9-2.5-0.6-2.6c1.2-0.4,1.9,0.1,1.9,3.4c0,1.1,0.6-0.8,1-0.8c0.3,0,0,0.5,0.4,0.9
							c0.4,0.4,0.7,1.2,1.2,0.9c0.8-0.6,0.3-1.7,0.4-2.7c0.1-0.7,0.1-1.6,0.1-2.6c0-0.6,1,1,1,0.4c0-0.7,0.6-0.1-0.4-1.9
							c-0.3-0.6,1.2-1,0.9-1.5c-1.5-1.9-2.2-0.6-3.5-0.5c-0.8,0.1,0.7-1.3,0.4-1.5c-0.3-0.3-1.1,0.6-1.5,0.5
							c-0.4-0.1,0.1-0.4-0.1-0.9c-0.1-0.6-0.7-1.1-0.5-1.3"/>
						<path id="path5068_00000109726159063514733430000016480801644793293475_" class="st5" d="M285.4,272.6c0.4,0.7-0.4,1.7,0,2.4
							c0.3,0.8,1-0.1,1.4,0.7c0.4,0.8-0.1,1.3,0.1,2.3c0.2,1.1-0.3,1.9,1.2,1.7c0.7-0.1,0.9-0.9,1.6-0.3s0.7,2.5,1.2,2.8
							c0.5,0.3,0.5-1.6,0.8-1.6s0.2,1.4,0.5,1.7c0.3,0.3,0.6-1.2,0.6-0.7c0.2,1.1,0.4,1.6,0.9,2c0.4,0.3,0.4-1.7,0.7-1.2
							c0.5,0.8,0.6,1.9,1.3,2.5c0.4,0.4,0.2-1.3,0.5-1.1c0.3,0.2,0.4,1.8,0.8,1.9c0.4,0.1,0.3-1.4,0.7-1.7s0.5,0.8,0.9,0.5
							c0.4-0.2,0.2-1.1,0.5-1.4c0.3-0.4,1.2,0.4,0.7,0"/>
						<path id="path5070_00000129900324795090419880000000742497461458153655_" class="st5" d="M292.1,270.4c0.5,0-0.3-1.2,0-1.3
							s1.1,1.3,1.5,1.1s-0.3-1.4,0-1.9c0.2-0.5,0.8,0.3,1-0.1c0.2-0.4-0.2-1.1-0.1-1.6c0.1-0.5,1.1-0.1,0.6-0.4
							c-1.2-0.6-1.9-1.2-1.5-2.4c0.1-0.5,1.5,0.3,1.5-0.2c0-0.5-1.8-1.6-1.5-1.9c0.9-1.1,1.7-1.2,3,1.7c0.4,1,0.2-1.1,0.5-1.3"/>
						<path id="path5072_00000149354356997661450620000012884733909232728460_" class="st5" d="M274,266.1c0.6,0.4,0.3,1.7,0.9,2.1
							c0.6,0.5,0.9-0.7,1.5-0.3s0.4,1.1,1,2c0.6,0.8,0.5,1.8,1.7,0.8c0.6-0.5,0.4-1.4,1.3-1.3c0.8,0.1,1.6,1.7,2.1,1.7
							c0.6-0.1-0.2-1.7,0.1-1.9c0.3-0.2,0.7,1.1,1.1,1.2s0-1.4,0.3-1c0.6,0.9,1,1.1,1.6,1.1c0.4,0-0.3-1.7,0.1-1.5"/>
						<path id="path5074_00000172399996609618362340000003758240069048140981_" class="st5" d="M261.8,263.4c0.4,0.4,0.3-1.3,0.6-1
							s0.3,1.9,0.7,2s0.4-1.4,0.8-1.6c0.4-0.2,0.5,0.8,0.9,0.6s0.3-1.1,0.6-1.4c0.3-0.3,1,0.7,0.7,0.1c-0.7-1.3-1-2.3-0.2-3.1
							c0.4-0.3,1.1,1.4,1.3,0.9c0.2-0.4-0.8-2.6-0.4-2.7c1.2-0.3,1.9,0.3,1.7,3.6c-0.1,1.1,0.7-0.8,1-0.7"/>
						<path id="path5076_00000168820697445314887040000007689618929274576809_" class="st5" d="M249.5,247.3
							c0.3,0.8-0.5,1.6-0.2,2.4s1,0,1.4,0.8s-0.1,1.3,0,2.4c0.1,1.1-0.4,1.9,1,1.8c0.7,0,1-0.8,1.6-0.1s0.5,2.6,1,2.9
							c0.5,0.3,0.6-1.6,0.9-1.5c0.3,0.1,0.1,1.5,0.4,1.7s0.6-1.1,0.7-0.6c0.1,1.2,0.4,1.7,0.8,2c0.4,0.3,0.5-1.7,0.8-1.1"/>
					</g>
				</g>
				
					<g id="g5078_00000009561271650381835510000006158435568820922782_" transform="matrix(0.24145193,0,0,0.24158161,-373.19204,74.602526)">
					<path id="path5080_00000183954672126427967770000006071998216660860821_" class="st8" d="M406.2,53.4l-1.4,5.2l3.3,4
						c0.8,0.9,3,1.7,2.9,4l0.2,6.5c-0.1,2.9-0.3,2.4-0.2,5.7c0.2,3.3,0.8,4.2,0,9.4c-0.3,2.4-1.9,4.1-2.6,5.2
						c-0.2,0.4-1.3,1.5-2.8,2.5c-1.3,0.8-3,1.5-4.5,2.5c-3.2,2.1-7.1,3.4-7.1,3.4c0,0.3,3.8-0.3,7.5-1.9c1,1.1-1.7,4-1.4,3.7
						c0.8,0.5,4.4-4,4-5.3c1.2-0.6,1.9,0.5,2.7-0.4c-0.4,1.2-1.3,4.3-1.7,5.2c0.3-0.1,1.6-2.1,2.8-4.1c0.4-0.6-1-1.9,2.5,4
						c-1.2-4.1-0.6-5.4-0.2-5.9c0.4-0.6,0.9-1.4,1-1.4c0.5,0-0.1,1.9,0.3,2.1c0.3,0.1,1.3-1,2.1,0.4c0.1,0.3-0.2-0.8-0.5-0.2
						c-0.1,0.2-1.2,0.9-1.5,2.7c-0.2,1.4,0.2,2.6-0.4,3.4c-1.6,2-4.6,2.5-5.4,3.7c1.7-0.4,5.6-1.5,6.5-3.4c0.4-0.9,0.6-2,0.7-3.1
						c0.2-1.9,1.1-2.7,1.4-2.4c0.3,0.3,0.6,1,0.8,2.3c0.3,2.2,0.4,5,1.9,7.3c-0.2-2.5-0.6-5.7-0.2-7.9c0-0.2-0.1-0.3,0.7-0.1
						c0.4,0.1,1.2,1.3,2.3,2.6c0.9,1,5.3,3.3,7.7,3.7c-2.6-2.1-5.8-3-6.6-4.1c-1.1-1.5-2.2-3-2.7-3.4c-0.9-0.7-0.8-0.4-0.9-1.4
						c0.1-1.8,0.9,0.1,0.5-1.7c0.2,0,1,1.1,3.2,1.4c-0.4,0.6-0.3,1.3,0.2,1.8c0.3-1.2,1-2.6,1.3-2.3c1.5,0.9,5.1,6.4,5.4,6.5
						c0.4,0-0.4-2.5-2.2-5.1c-1.4-1.9-3.1-3.1-3.6-4c0.8,0.4,1.1,0.5,2.2,1.1c0.8,0.5,1.4,1.2,2.4,1.9c2,3.2,10.4,5.2,11.7,4.2
						c-2.4-1.1-6.6-2-9.5-4.1c-2.8-2.1-5.5-4.1-5.7-4.4c-0.8-1.6-2.6-3.7-3.1-5.9c-0.9-3.7-0.8-3.3-0.8-6.5c0-5.9-0.2-8.9-0.4-12.3
						c-0.3-2.1,1.1-2.8,2.3-4c1.5-1.6,2.8-2.8,4.2-4l-0.7-4.7l-3.6,3.1c-1.5,3.1-3.3,3.1-3.1,0l1.2-2.6l0.1-3.4l-1.5,1.4l-1.3,3
						c-2.1,4.8-1.5,0.5-1.5-1.1l-1.8-4.7l-0.7,3.9l-0.1,2c0,1.3-0.7,3.7-2.4,1.3l-2-2L406.2,53.4z"/>
					<g id="g5082_00000075138795684865265100000006901248139783572903_" transform="matrix(1.1047,0,0,1,-44.4329,0)">
						<path id="path5084_00000179610000091214866900000007233733647838956690_" class="st5" d="M410.1,55c-0.7,0-1.2-1.2-1.3-0.2
							c-0.1,1,0.7,2.2,0.5,3.1c-0.3,0.9-1.2-1.1-1.9-0.6c-0.7,0.5,0.2,3.1-0.5,3.7c-0.7,0.6-1.1-0.8-1.8-0.2c-0.7,0.6-0.3,1.6-1,2.5
							c-0.7,0.9-1,1.2-1.9,1.1c-0.9,0-0.6-1.6-1.6-1.3s-1.7,2.3-2.4,2.3c-0.7,0,0.1-2.1-0.3-2.3s-0.8,1.4-1.2,1.5
							c-0.4,0.1-0.1-1.6-0.4-1.1c-0.7,1.1-1.1,1.5-1.8,1.5c-0.5,0,0.3-2.1-0.3-1.7c-0.8,0.6-1.4,1.7-2.4,1.9
							c-0.6,0.1,0.3-1.5-0.1-1.5s-1.2,1.7-1.6,1.5c-0.4-0.2,0.2-1.7-0.1-2.3s-0.9,0.5-1.2,0c-0.3-0.5,0.2-1.3,0-1.9
							c-0.2-0.6-0.8,0.5-0.7-0.4c0-1.2,1-1.9,1.6-3c0.3-0.5-1.7,0.6-1.8,0c0-0.6,2-2.6,1.6-2.5c-1.1,0.4-2.1,1.6-3.4,2.5
							c-0.9,0.6-0.4-1.3-0.7-1.5c-0.4-0.2-0.1,0.5-0.7,0.8c-0.6,0.2-1.3,0.9-1.6,0.2c-0.6-1.1,0.3-2,0.6-3.2
							c0.2-0.8,0.5-1.8,0.9-2.8c0.2-0.6-1.5,0.5-1.2-0.2c0.3-0.8,0.8-1.1,2.5-2.5c0.6-0.5-2.3-1.6-1.8-1.5c1.4,0.2,2.6,0.8,4,1.7
							c0.8,0.6-0.3-1.8,0.1-1.9c0.4-0.1,1,1.4,1.5,1.5c0.5,0.1,0.1-0.4,0.4-0.9c0.4-0.5,1.2-0.7,1-1.1c-0.1-0.4-1.5,0-1.6-0.6
							c-0.1-0.6,1.6-1.8,1.3-1.9c-0.3-0.1-1.7,1.6-2.5,1.5c-0.8-0.1-0.2-1.9-0.7-1.9c-0.6,0-0.8,2.1-1.5,2.1c-0.6,0-0.1-1.7-1-2.1
							c-0.9-0.4-2.2,0.9-2.5,0.6c-0.3-0.3,1.3-1.2,1.2-1.9c-0.1-0.7-1.6-0.4-1.8-0.8c-0.1-0.4,1-0.3,1.2-0.8
							c0.2-0.4-0.9-0.8-0.4-0.9c0.4-0.1,1.7,0.7,2.2,0.4c0.5-0.3-0.7-1.1-0.3-1.7c0.4-0.6,2.2-0.4,2.1-0.6s-2.2,0.3-2.8,0
							c-0.6-0.3,0.8-1,0.3-1.3c-0.6-0.3-2.2,0.6-2.5,0c-0.3-0.6,1.1-1.6,1.2-2.5c0.1-0.9-1.1-0.4-0.9-0.9c0.2-0.6,1.2-0.5,1.6-1.3
							c0.4-0.9-0.4-1.7,0-2.1c0.4-0.4,1.4,0.9,1.8,0.6c0.4-0.4-0.8-1.8-0.3-2.1c0.6-0.2,2,1.4,2.5,1.1s-1-1.7-0.6-2.3
							c0.4-0.6,1.7,0.2,2.4,0c0.6-0.2,0.4-0.6,0.1-0.9c-0.2-0.3-0.9,0-1-0.4c-0.1-0.4,0.8-1.1,0.4-1.1s-1.2,1.2-1.8,1.1
							s0.1-1.4-0.4-1.5c-0.5-0.1-1,1-1.6,0.9s-0.4-1-1-1.3c-0.6-0.3-1.1,0.5-1.5,0.2c-0.4-0.3-0.4-1,0-1.3c0.4-0.3,1,0.4,1.5,0
							c0.4-0.4-0.1-1.3,0.3-1.5c0.4-0.2,0.5,0.8,1.3,0.8c0.8,0,2-0.2,2.1-0.8c0.1-0.5-1.8-0.8-1.6-1.3c0.1-0.6,1.9-0.4,2.2-0.9
							c0.3-0.5-1.7-1-1-1.1c1.8-0.3,4.5-0.4,0.7-1.7c-0.6-0.2-1.1-0.1-1.6-0.8c-0.6-0.6-1-1.1-0.6-1.7c0.4-0.6,1.8-0.2,2.1-0.8
							c0.3-0.6-0.2,0.1,0-0.4s1.4-0.2,1.6-0.6c0.2-0.4-0.7-0.5-0.7-0.9c0-0.5,0.1-0.8,0.7-0.9c2.2-0.7-1-1.1-0.9-1.7
							c0.1-0.6,1.2,0.1,1.5-0.6c0.3-0.7-0.6-1.5-0.3-2.1c0.3-0.6,0.9,0.2,1.5-0.2c0.6-0.4,0.2-2.8,0.7-1.3c0.6,1.6,2,4.5,2.3,0
							c0.2-2.9,1.5-0.7,1.9-0.2c0.8,0.8-0.6,1.7-0.1,2.1c0.4,0.4,1.3-0.9,1.9-0.6c0.6,0.4,0.2,1.8,0.4,2.1c0.3,0.3,0.2-1.1,0.6-0.9
							c0.4,0.2,0.8,1.1,1,1.7c0.8,1.6,1.4-0.3,1.2-0.9c-0.2-0.5-1.1-1-1-1.7c0.1-1.6,0.9-1.1,1.3-0.2c0.3,0.6,0.3,1.7,0.7,1.3
							c0.7-0.7,0.1-1.5,0.6-1.5c0.5,0.1,0.6,0.5,0.4-0.8c-0.1-0.7,0-1.7-0.5-2.3c-0.7-0.7-1.9-1.5-0.3-2.1c1.2-0.5,0.7-1.5,1.2-0.9
							c0.5,0.6,0.4,2.9,0.9,3.2c0.5,0.3,0.7-1.8,1.2-1.9c0.5-0.1,0.8,2.4,0.7,1.5c-0.1-1.3,0.5-4,2.2-3.4c0.8,0.3,0.3,2.5,0.4,3.2
							c0.1,0.7,0.8-1.2,1-0.6c1.1,3.6,1.2,1.4,1.2,0.1c0-0.5-1.3-3.4-0.7-3.6c1.3-0.5,2.3,1.8,2.5,1.7c0.1-0.1,0.1-1.3,0.3-2.5
							c0.1-1,0.3-1.9,0.8-2.3c0.3-0.3,0.2,2.6,0.4,2.8c0.3,0.2,0.2-1,0.6-1.9c0.7-1.6,1.7-1.4,2.2-0.4c0.4,0.7-0.5,3.1,0,2.5
							c0.5-0.7,0.9-1.3,1.3-1.9c0.5-0.7,1-1.2,1.6-1.3c0.8-0.1,1.2,1,0.3,2.1c-0.5,0.6-0.1,1.5,0.2,1.7c0.6,0.4,1.1,0,1.9-0.7
							c0.8-0.6,0.9-0.6,1.5-0.2c1.1,0.7-0.8,2.3-0.9,3c-0.2,1.2,1.4,3.6,1.9-0.2c0.2-1.1,1-0.6,1.8-0.5c1,0.1,1.8,0.9,0.5,1.6
							c-1.4,0.8-1.3,2.8,0.4,2c0.5-0.2,0.5-1.9,1.6-2.1c0.4-0.1-0.6,2.1,0,1.7c0.5-0.4,1-0.8,1.6-1.2c0.5-0.3,0.9-0.5,1.5-0.5
							c1.1-0.1,1.5,0.6,1.5,1.3c-0.1,0.8-1.8,1.4-1.8,1.7c0.1,0.3,1.4-0.8,2.1-0.6c0.7,0.2,0.1,1.5,0.7,1.3c0.6-0.1-0.1-1.1,0.1-0.8
							c0.5,0.6-0.8,1.7-0.7,2.6c0,2.2,2.1,0.6,3.1-0.6c0.7-0.9,1.3,0.9,1.2,1.3c-0.1,0.5-1.6,0.2-1.8,0.6c-0.1,0.4,0.7,0.7,1.2,0.9
							c0.5,0.2,0.2-0.4,0.8-0.6c0.6-0.2,1.7-0.8,1.6-0.3c-0.1,0.3-0.5,1-0.8,1.7c-0.2,0.6-0.4,1.3-0.3,1.8c0.3,1,0.4,1.1-0.1,2.1
							c-0.3,0.6-1.7-0.4-2.4-0.4c-0.7,0-0.5-0.1-0.3,0.4c0.2,0.5,1.8,1.6,1.2,1.5c-2.8-0.4-4.2-0.4-1.6,1.3c0.5,0.4,1.5,0.7,0.7,1.1
							c-1.1,0.7-2.6,1.8-1,2.5c0.3,0.1,1.1-1.3,1.6-1.1c0.5,0.2,0,2.3,0.4,1.9c0.6-0.7,0.9-1.9,1.8-2.5c0.8-0.5,0.6-0.6,0.9-0.4
							s-0.5,0.8,0.1,1.1c0.3,0.2,1.3-0.3,2.2-0.6c0.8-0.3,1.5-0.5,1.6-0.3c0.4,0.6-1.3,2.5-0.9,2.3c1.2-0.6,1.9-0.7,2.8-0.6
							c0.3,0.1-1.4,0.6-1.5,1.1c-0.1,0.6,1.1,0.8,1,1.1c0,0.4-1.2-0.4-1.2,0.4c0,1-0.3,1.8-0.6,2.6c-0.2,0.5,0.8,0.3,1.3,0
							c0.5-0.3,0.1-1.1,0.6-1.3s0.8,0.1,1.2,0.6s-0.1,1.1,0.4,1.3c0.6,0.2,1.5-0.8,1.9-0.6s-0.8,0.8-0.3,1.3c0.5,0.6,2,0.5,2.4,0.9
							c0.4,0.5-0.9,0.2-0.9,0.9c0,0.7,1.1,1.1,1,1.9c-0.1,0.8-0.8,1.3-1.3,1.3s-0.4-1.5-0.7-1.3c-0.3,0.2-0.2,1.9-0.6,2.1
							c-0.4,0.1-0.7-1.6-1-1.5c-0.3,0.1-0.6,1.2-0.3,1.9c0.3,0.7,0.8,0.9,1.6,0.9c0.8,0.1,1-0.9,1.5-0.6c0.5,0.3,0.3,0.8,0.6,1.9
							c0.3,1.1,1,2.3,0.6,2.6c-0.4,0.4-1.5-1.5-2.1-1.1c-0.6,0.3,0,2-0.3,2.5c-0.3,0.4-0.4-0.8-0.9-0.8s-1,0.4-0.9,0.9
							s1,0.6,1.2,1.1c0.1,0.6-0.1,0.9-0.6,1.1c-0.5,0.2-1.2-0.5-1.3-0.2c-0.1,0.3,0.8,0.9,0.9,1.3c0,0.4-1.1-0.2-0.7,0.4
							c0.3,0.6,1.5,0.9,2.1,1.9c0.6,0.9,0.3,1.4,0.1,1.9c-0.2,0.5-0.4,0.4-0.9,0.2c-0.5-0.2-1.1-1.4-1-1.1s1,1.2,1.2,2.1
							c0.2,0.9-0.1,1.2-0.4,1.3c-0.4,0.1-0.8-1.2-1-0.8c-0.2,0.4,0.8,2.2,0.3,2.5c-1.2,0.7-1.5-1.1-2.2-1.3c-0.4-0.1,1,2,0.6,2.6
							c-0.6,0.8-2-0.6-2.4-0.2c-0.4,0.4-0.4,2.2-1.5,2.6c-0.5,0.2-0.3-1.6-0.6-1.5c-0.3,0.1,0,1.5-0.4,1.9c-0.4,0.4-1.1-0.9-1.2-0.4
							c0,0.5,1.3,1.7,1,2.3c-0.3,0.6-1.9-0.5-2.2,0.2c-0.3,0.7,1.1,1.9,0.9,2.6c-0.2,0.7-1-0.3-1.8,0.2c-0.7,0.5-0.6,1.9-1.2,1.9
							c-0.6,0-0.8-2.2-1.3-2.1c-0.5,0.1-0.1,2.3-0.7,2.6c-0.6,0.4-1-1.1-1.8-1.1s-0.6,0.1-1.5,0.1c-0.9,0-1.3-1.5-2.2-1.3
							s-0.8,0.2-1.3,0.3c-0.5,0.1-0.1-1.5-0.6-1.5c-0.5,0-0.8,1.6-1.5,1.5c-0.6,0-0.7-2.8-1-2.8c-0.4,0-0.1,3-0.4,2.8
							c-0.3-0.2-0.2-3.4-0.7-3.7c-0.6-0.3-1.2,3.1-1.5,2.6c-0.5-1.3,0.3-2.4,0.6-3.8c0.2-0.8-1.5,0.6-2.1,0.2s0.9-1.9,0-1.9
							s-2.4,1.9-3.7,1.9s-0.8-1.8-1.6-1.9c-0.8-0.1-1.1,1.7-1.6,1.5s-0.2-1.8-0.6-2.3c-0.4-0.4-0.6,0.8-1,0.6
							c-0.5-0.2-0.3-1.2-0.9-1.5C410.9,51.8,410.7,55,410.1,55L410.1,55z"/>
						<path id="path5086_00000096027590022506423730000003096425620661068203_" class="st5" d="M423.3,46.2
							c-0.6,0.6,0.1,1.8-0.2,2.1c-0.3,0.4-0.6-1-1-0.7c-0.4,0.3,0,1.6-0.4,2c-0.5,0.4-1.1-0.8-1.4-0.5c-0.3,0.2,0.6,1.4,0.3,1.4
							c-0.3,0-1-1.5-1.5-1.4s-0.1,2.2-0.4,2c-0.8-0.6-0.7-1.9-1-3c-0.2-0.7-0.8,1.4-1.4,1.4c-0.5,0-0.1-1.9-0.7-1.3"/>
						<path id="path5088_00000029015211873317191800000015970817017115605666_" class="st5" d="M437.2,49.5
							c-0.5,0.1-0.9,1.6-1.8,1.5c-0.5-0.1,0.1-1.4-0.1-1.4c-0.2,0-0.4,1.2-0.8,1.3c-0.4,0.1-0.7-1.1-0.8-0.8s0.6,1.8,0.2,2.2
							s-1.3-1.2-1.8-0.8c-0.4,0.4,0.4,2,0,2.4s-0.7-0.7-1.4-0.6c-0.7,0.1-0.9,1.3-1.4,1c-0.5-0.3-0.1-2.1-0.5-2.2
							c-0.4-0.1-0.7,1.7-1.2,1.8c-0.6,0-0.5-1.3-1.1-1.6s-0.7,0.7-1.4,0.3"/>
						<path id="path5090_00000140711973745896015080000008027792128626406308_" class="st5" d="M400.6,60.8
							c-0.4-0.2-1.4,0.7-2.1-0.1c-0.4-0.4,0.7-1,0.6-1.2c-0.2-0.2-0.8,0.7-1.2,0.5c-0.4-0.2-0.1-1.4-0.3-1.2c-0.3,0.2-0.3,2-0.8,2
							c-0.5,0-0.6-1.9-1.1-1.9c-0.5,0-0.5,1.9-1,2c-0.5,0.1-0.3-1.1-0.9-1.5c-0.6-0.4-1.3,0.4-1.6-0.2c-0.3-0.6,0.8-1.8,0.5-2.2
							c-0.3-0.4-1.3,1-1.8,0.6c-0.5-0.4,0.2-1.4-0.2-2.1c-0.4-0.7-0.9,0.1-1.3-0.8"/>
						<path id="path5092_00000119087972111537794680000018305690222607502748_" class="st5" d="M409.9,49.2c-0.5,0-1.1,1.3-2,1
							c-0.4-0.2,0.4-1.3,0.1-1.4c-0.2-0.1-0.6,1-1,1.1c-0.4,0-0.5-1.3-0.7-1c-0.2,0.3,0.3,2-0.1,2.2c-0.4,0.3-1.1-1.5-1.6-1.2
							c-0.5,0.3,0.1,2-0.4,2.4c-0.4,0.4-0.6-0.9-1.3-0.9c-0.7-0.1-1.1,1-1.5,0.6c-0.4-0.4,0.2-2-0.2-2.3c-0.4-0.2-0.9,1.5-1.5,1.4
							c-0.6-0.1-0.3-1.4-0.8-1.9c-0.6-0.5-0.8,0.5-1.4-0.1c-0.6-0.6-0.4-1.8-1.1-2.3c-0.7-0.4-1.3,0.7-1.6,0.5
							c-0.4-0.2,0.5-1.1,0.1-1.4s-1.2,0.6-1.6,0.2c-0.4-0.4,0.2-1.6-0.1-1.8c-0.3-0.2-0.8,1.3-0.9,0.9c-0.1-0.3,0.7-1.8,0.5-2.3
							c-0.3-0.5-1.6,0.7-1.6,0.2c0.1-1.2,1.1-1.5,1.8-2.3c0.4-0.5-1.3-0.5-1.5-1.1c-0.2-0.6,1.3-0.8,0.7-1.3"/>
						<path id="path5094_00000085223223167859086620000005077901550892070279_" class="st5" d="M433,22.3c-0.5,0-1.1,1.3-2,1
							c-0.4-0.2,0.4-1.3,0.1-1.4c-0.2-0.1-0.6,1-1,1.1c-0.4,0-0.5-1.3-0.7-1c-0.2,0.3,0.3,2-0.1,2.2c-0.4,0.3-1.1-1.5-1.6-1.2
							c-0.5,0.3,0.1,2-0.4,2.4c-0.4,0.4-0.6-0.9-1.3-0.9c-0.7-0.1-1.1,1-1.5,0.6c-0.4-0.4,0.2-2-0.2-2.3c-0.4-0.2-0.9,1.5-1.5,1.4
							c-0.6-0.1-0.3-1.4-0.8-1.9c-0.6-0.5-0.8,0.5-1.4-0.1c-0.6-0.6-0.4-1.8-1.1-2.3c-0.7-0.4-1.3,0.7-1.6,0.5
							c-0.4-0.2,0.5-1.1,0.1-1.4c-0.4-0.3-1.2,0.6-1.6,0.2c-0.4-0.4,0.2-1.6-0.1-1.8c-0.3-0.2-0.8,1.3-0.9,0.9s0.7-1.8,0.5-2.3
							c-0.3-0.5-1.6,0.7-1.6,0.2c0.1-1.2,1.1-1.5,1.8-2.3c0.4-0.5-1.3-0.5-1.5-1.1c-0.2-0.6,1.3-0.8,0.7-1.3"/>
						<path id="path5096_00000047776064165419029770000010030303993480320911_" class="st5" d="M417.3,20.5c-0.3,0.4-0.2,1.9-1,2.4
							c-0.4,0.2-0.4-1.3-0.6-1.2c-0.2,0.1,0.1,1.3-0.2,1.6c-0.3,0.4-1-0.5-1-0.1c0,0.4,1.3,1.2,1.1,1.7c-0.2,0.6-1.6-0.2-1.8,0.5
							c-0.2,0.6,1.1,1.5,1,2.1c-0.1,0.6-0.9-0.1-1.5,0.4c-0.6,0.5-0.3,1.7-0.8,1.7c-0.5,0.1-0.9-1.7-1.3-1.5
							c-0.4,0.2,0.1,1.9-0.4,2.3c-0.5,0.4-0.9-0.8-1.6-0.7c-0.7,0.1-0.4,1.1-1.1,1.2c-0.8,0.1-1.2-1-2-0.8c-0.7,0.2-0.5,1.6-0.9,1.8
							c-0.4,0.1-0.2-1.3-0.6-1.2c-0.4,0.1-0.6,1.4-1.1,1.5c-0.5,0.1-0.7-1.3-1-1.3c-0.3,0.1,0,1.6-0.2,1.5c-0.3-0.2-0.4-1.9-0.8-2.1
							c-0.5-0.2-0.9,1.9-1.1,1.5c-0.5-1,0-2.1,0.2-3.2c0.1-0.7-1.2,0.7-1.7,0.5s0.6-1.7-0.2-1.6"/>
						<path id="path5098_00000000184878298331239870000016405281842566690181_" class="st5" d="M398.1,36c-0.6-0.5-0.8,0.5-1.4-0.1
							c-0.6-0.6-0.4-1.8-1.1-2.3c-0.7-0.4-1.3,0.7-1.6,0.5c-0.4-0.2,0.5-1.1,0.1-1.4c-0.4-0.3-1.2,0.6-1.6,0.2
							c-0.4-0.4,0.2-1.6-0.1-1.8c-0.3-0.2-0.8,1.3-0.9,0.9c-0.1-0.3,0.7-1.8,0.5-2.3c-0.3-0.5-1.6,0.7-1.6,0.2
							c0.1-1.2,1.1-1.5,1.8-2.3c0.4-0.5-1.3-0.5-1.5-1.1c-0.2-0.6,1.3-0.8,0.7-1.3"/>
						<path id="path5100_00000027604922096644144930000005215610287638050712_" class="st5" d="M404.9,43.4c0.3,1-0.8-0.5-1.1-0.3
							c-0.3,0.2,0.2,0.4-0.1,1c-0.2,0.6-0.3,1.5-0.8,1.4c-0.9-0.2-0.8-1.4-1.2-2.3c-0.3-0.6-0.6-1.4-0.9-2.3
							c-0.2-0.5-0.6,1.4-0.8,0.8c-0.2-0.7-0.6,0.2-0.2-1.9c0.1-0.8-1.4-0.4-1.3-0.9c0.8-2.5,1.9-1.6,3.1-2.2c0.8-0.3-1-0.8-0.8-1.2
							c0.2-0.4,1.2,0,1.6-0.3c0.3-0.3-0.2-0.3-0.2-0.9s0.3-1.3,0-1.5"/>
						<path id="path5102_00000096055201978909698170000017849704615520889785_" class="st5" d="M423.2,39.3
							c-0.6,0.4-0.2,1.7-0.7,2.2c-0.6,0.5-0.9-0.6-1.5-0.2c-0.6,0.5-0.4,1.2-0.9,2.1c-0.5,0.9-0.4,1.9-1.6,1
							c-0.6-0.5-0.5-1.3-1.4-1.1c-0.8,0.2-1.4,1.9-2,1.9c-0.6,0,0.1-1.8-0.2-1.9c-0.3-0.2-0.7,1.2-1,1.3c-0.3,0.1-0.1-1.4-0.4-1
							c-0.6,0.9-0.9,1.2-1.5,1.3c-0.4,0,0.2-1.8-0.2-1.4c-0.7,0.5-1.2,1.5-2,1.6c-0.5,0.1,0.2-1.3-0.1-1.3c-0.4,0-1,1.4-1.4,1.3
							c-0.4-0.2,0.2-1.4-0.1-1.9c-0.3-0.5-0.7,0.4-1,0c-0.2-0.4,0.2-1.1,0-1.6c-0.2-0.5-1.1,0-0.6-0.3c1.1-0.7,1.8-1.4,1.4-2.5
							c-0.2-0.5-1.5,0.5-1.5,0c0-0.5,1.7-1.8,1.4-2.1"/>
						<path id="path5104_00000155842125933066601160000001594202748973009552_" class="st5" d="M438.1,40.3c0.4-0.3,1.2,1.3,1.4,0.8
							s-0.9-2.5-0.6-2.6c1.2-0.4,1.9,0.1,1.9,3.4c0,1.1,0.6-0.8,1-0.8c0.3,0,0,0.5,0.4,0.9c0.4,0.4,0.7,1.2,1.2,0.9
							c0.8-0.6,0.3-1.7,0.4-2.7c0.1-0.7,0.1-1.6,0.1-2.6c0-0.6,1,1,1,0.4c0-0.7,0.6-0.1-0.4-1.9c-0.3-0.6,1.2-1,0.9-1.5
							c-1.5-1.9-2.2-0.6-3.5-0.5c-0.8,0.1,0.7-1.3,0.4-1.5c-0.3-0.3-1.1,0.6-1.5,0.5c-0.4-0.1,0.1-0.4-0.1-0.9
							c-0.1-0.6-0.7-1.1-0.5-1.3"/>
						<path id="path5106_00000145777417081390211930000014041272857611973043_" class="st5" d="M427.9,35c0.4,0.7-0.4,1.7,0,2.4
							s1-0.1,1.4,0.7s-0.1,1.3,0.1,2.3c0.2,1.1-0.3,1.9,1.2,1.7c0.7-0.1,0.9-0.9,1.6-0.3c0.7,0.6,0.7,2.5,1.2,2.8
							c0.5,0.3,0.5-1.6,0.8-1.6c0.3,0,0.2,1.4,0.5,1.7c0.3,0.3,0.6-1.2,0.6-0.7c0.2,1.1,0.4,1.6,0.9,2c0.4,0.3,0.4-1.7,0.7-1.2
							c0.5,0.8,0.6,1.9,1.3,2.5c0.4,0.4,0.2-1.3,0.5-1.1c0.3,0.2,0.4,1.8,0.8,1.9c0.4,0.1,0.3-1.4,0.7-1.7c0.4-0.3,0.5,0.8,0.9,0.5
							c0.4-0.2,0.2-1.1,0.5-1.4c0.3-0.4,1.2,0.4,0.7,0"/>
						<path id="path5108_00000084511530998823479320000005020169114320591793_" class="st5" d="M434.7,32.8c0.5,0-0.3-1.2,0-1.3
							c0.4,0,1.1,1.3,1.5,1.1c0.4-0.2-0.3-1.4,0-1.9c0.2-0.5,0.8,0.3,1-0.1c0.2-0.4-0.2-1.1-0.1-1.6c0.1-0.5,1.1-0.1,0.6-0.4
							c-1.2-0.6-1.9-1.2-1.5-2.4c0.1-0.5,1.5,0.3,1.5-0.2c0-0.5-1.8-1.6-1.5-1.9c0.9-1.1,1.7-1.2,3,1.7c0.4,1,0.2-1.1,0.5-1.3"/>
						<path id="path5110_00000049943025715809048140000007045960603442068888_" class="st5" d="M416.5,28.5c0.6,0.4,0.3,1.7,0.9,2.1
							c0.6,0.5,0.9-0.7,1.5-0.3c0.6,0.4,0.4,1.1,1,2c0.6,0.8,0.5,1.8,1.7,0.8c0.6-0.5,0.4-1.4,1.3-1.3c0.8,0.1,1.6,1.7,2.1,1.7
							s-0.2-1.7,0.1-1.9c0.3-0.2,0.7,1.1,1.1,1.2c0.3,0,0-1.4,0.3-1c0.6,0.9,1,1.1,1.6,1.1c0.4,0-0.3-1.7,0.1-1.5"/>
						<path id="path5112_00000108998365616109386970000010091732483321555379_" class="st5" d="M404.4,25.8c0.4,0.4,0.3-1.3,0.6-1
							c0.3,0.2,0.3,1.9,0.7,2s0.4-1.4,0.8-1.6c0.4-0.2,0.5,0.8,0.9,0.6c0.4-0.2,0.3-1.1,0.6-1.4c0.3-0.3,1,0.7,0.7,0.1
							c-0.7-1.3-1-2.3-0.2-3.1c0.4-0.3,1.1,1.4,1.3,0.9c0.2-0.4-0.8-2.6-0.4-2.7c1.2-0.3,1.9,0.3,1.7,3.6c-0.1,1.1,0.7-0.8,1-0.7"/>
						<path id="path5114_00000134222023731669377450000016362408422571267499_" class="st5" d="M392,9.7c0.3,0.8-0.5,1.6-0.2,2.4
							c0.3,0.8,1,0,1.4,0.8c0.3,0.8-0.1,1.3,0,2.4c0.1,1.1-0.4,1.9,1,1.8c0.7,0,1-0.8,1.6-0.1c0.7,0.7,0.5,2.6,1,2.9
							s0.6-1.6,0.9-1.5c0.3,0.1,0.1,1.5,0.4,1.7c0.3,0.3,0.6-1.1,0.7-0.6c0.1,1.2,0.4,1.7,0.8,2c0.4,0.3,0.5-1.7,0.8-1.1"/>
					</g>
				</g>
			</g>
			<path id="path6490_00000088108262465678118800000001757459913686465415_" class="st9" d="M-221.7,71c-1.2,1.5-2,3.5-1.9,5.6
				c0.1,4.8,4.2,8.7,9.2,8.6s9-4.1,8.9-8.9c0-1.7-0.6-3.3-1.4-4.6c-0.1-0.2-0.2-0.4-0.3-0.6c1.4,1.2,2.5,2.7,3.2,4.5
				c2,5.5-1.1,11.6-6.8,13.5l-0.1,0c-5.8,1.9-12.1-1-14.1-6.6C-226.5,78.3-225,73.7-221.7,71L-221.7,71z"/>
			
				<g id="g5204_00000044886937890504741710000012076912268914415277_" transform="matrix(0.64152661,0,0,0.6422089,-487.54237,137.31526)">
				<path id="path3226_00000097459006594198212330000004333587676730327205_" class="st10" d="M368.9-7.7c-5-1.8-9.8-3.9-13.3-8.4
					c-0.6-0.9-0.5-1.8,0-3.1c0.3-0.6,2.1-5.8-2.4-5.5c-6.3,6.6-11.8,13.9-21.4,17.5c-1.4,0.9-5.3-2.8-5.1-4
					c-0.6-1.4,0.1-5.5,0.3-8.7c0.2-2,2.6-1.5,4-1.7c2.4-1.2,6.4-3.7,9.6-6.6l-11-5.1c-1.1-0.2-1-1.5-1.1-2.8c0-3.7,0.1-7.5-0.9-10.3
					c-1.4-3.4,1.7-2.3,2.2-2.1c2.8,0.8,4.3,2.4,6.2,3.7c0.6-0.8,1.6-1.4,3.8-1.7c-0.4-0.9-1.1-1.6-1.8-2.3c-0.8-0.9,0.3-1.2,0.8-1.5
					c8.5-0.8,17.7,0.4,31.1,13.3c-0.3,1.1-1.4,1.3-2.8,1.2c2.7,3.3,3.2,6.5,2.7,9.6c-0.4,2.5-3,5.7-2.9,7.4
					c-0.1,3.9,1.7,6.1,3.5,8.3C371-10.3,370.6-7.2,368.9-7.7L368.9-7.7z"/>
				<path id="path3228_00000023280795946602998650000005687284943753511558_" class="st11" d="M354.2-27.4
					c-5,7.2-12.6,15.8-22.2,19.7c-0.4,0.2-1.2,0.2-1.6-0.3c-1.2-0.7-2.3-1.9-3.2-3.4c-0.4-1.3,0.1-5.7,0.4-8.7
					c0.2-0.6,0.9-1,1.4-1.1l2-0.1c2.1-0.6,7-4.5,9.9-6.9l1.3,0.6c-3,2.3-5,4.4-9.4,7c-1.6,0.6-4-0.1-4.1,3.5l-0.8,5
					c1.2-0.1,3.1-1.3,4.5-2.8c1.9-1.7,1.5-4.3,3.1-6.1c0.6-0.7,4.4-1.8,6.6-3.6c1.9-1.6,4-3.3,5.9-5.2L354.2-27.4z"/>
				<path id="path3230_00000053547140094197009210000002978188634640848815_" class="st12" d="M331.6-34.4
					c3.7-0.8,11.4,2.7,15.7,4.5c-2.2,2-4.4,4.2-6.4,5.8c-1.3,1-5.6,2.4-5.8,2.9c-0.6,0.4-1.4,2.8-1.6,3.8c-0.6,1.6-3,4.5-5.5,5
					c0.6-2.7,0.3-6.1,1-7.1c0.5-1,2.8-0.6,4.1-1.4l9-6.8c0.5-0.5,0-0.9-0.5-1.1C337.9-30.9,329.7-33.9,331.6-34.4L331.6-34.4z"/>
				<path id="path3232_00000124847144356100909240000003406063504599381645_" class="st13" d="M352.4-27.8
					c-4.7,8.7-12.4,14.3-21,19.1"/>
				<path id="path3234_00000023973124781932097560000016970715993557469103_" class="st13" d="M349.1-29.2c-4.6,5.5-9.7,6.8-12,8.8
					c-1.5,1.5-2.4,6.1-8.1,9.4"/>
				<path id="path3236_00000077282227509223555220000016018953926077779099_" class="st14" d="M330.1-9.5c0.5-1.3,1.7-0.9,2.5-1.5
					c1-0.7,0.4-2.5,2.4-3.5c-0.6,1.1-0.4,2,0.7,1.6c1.5-0.7-0.3-5.9,3.8-5.9c-1.4,1.7-0.6,3.1,0.6,2.8c2-1.5-0.1-5.4,2.8-5.9
					c-0.5,0.9-0.4,2.5,1.5,2c1.6-1.3-0.2-4.7,3-5.7c-0.4,1.1-0.1,2.2,1,1.7c1.3-0.9,0.7-3.3,1.6-4.7"/>
				<path id="path3238_00000067918412422914154160000003620963632062425744_" class="st15" d="M361.1-31.9c1.8,2.2,0.3,3.7-2.2,3.5
					c-9.5-2.2-20.2-8-27.7-8.2c-1.2-0.1-1.9,0.3-2.1,1.2c-1,1.8,6.5,4,9.7,6.1l0.5-0.5c-3.1-1.7-8.8-3.2-8-5
					c1.1-0.5,6.8,1.1,10.4,2.4c5.5,2.1,11.1,4.2,16.4,5.6c3.4,1.1,5.8-0.7,6.5-2.5c0.2-2.1-1-3.8-2-4.2c-2.3-1-4-0.5-5.2,1.6
					c-0.3,2,1.1,2.8,1.9,2.8C361.4-28.7,361.6-30.1,361.1-31.9z"/>
				<path id="path3240_00000049916733276826239740000015545725065357616560_" class="st15" d="M357.5-28.9
					c-9.8-2.7-25.3-10.1-28.6-7.5c0.1-3.5,0.4-6.7-1.3-11.7c0.1-1.2,1.7-0.3,2.8-0.1l26.3,15.6C356.1-30.5,356.8-29.7,357.5-28.9
					L357.5-28.9z"/>
				<path id="path2432_00000010312528998892746180000017990716693271447484_" class="st14" d="M357.1-30.3c-9.8-7.8-21-11.3-26-15.6
					c-1.4-0.9-2.5-0.7-2.8,0.2"/>
				<path id="path3204_00000123437550860146255040000016635121862525546917_" class="st14" d="M328.7-43.8c3.3-1.6,2.9,5,7.2,6.1
					c-1.2-0.9-2.1-3,0.2-3.3c2.6,1.3,1.4,4.2,5.2,4.7c-1-0.8-1.7-2.2,0.8-2.4c1.9,1,0.6,3.7,4.2,4.4c-0.6-1-1.1-2,0.6-1.6
					c1.2,0.4,0.7,2.3,3.1,3.2c-0.5-1.1,0.6-1.5,1.3-1c0.7,0.6,0.3,1.3,1.6,2.2"/>
				<path id="path3206_00000095324028172084847930000013117458167244655016_" class="st16" d="M330.3-41c0.7,0.9,1.2,1.8,0.5,2.6"/>
				<path id="path3208_00000006680899876398650840000006471838339149920662_" class="st15" d="M367.9-8.6l-0.3-0.6
					c0.7,0.1,1.3,0.2,1.2-0.7c-3.3-1.7-7.3-5.1-9.3-8.1c-1.1-1.5,2.2-4.2,0.5-7.5c3-0.4,5.2-1.5,5.3-4.5c0.2-1.9-1.6-3.3-2.3-3.7
					c-2.7-1.7-5-0.3-6,0.7l-20.3-11.6c0.1-1,2.4-1,4-1.1c4.7-0.4,10.9,1.1,12.3,1.6c8.5,3,12.9,7.1,15.6,11.8c2.5,6.7-2.8,11-2.3,14
					c0.1,2.1,0.8,3.7,1.7,5.3c0.6,1.1,2.2,2.6,2.3,3.2C370.5-8.6,369.6-7.4,367.9-8.6z"/>
				<path id="path3210_00000053529439543403989760000008903126021786356616_" class="st12" d="M354.8-27l-1.2,1.7
					c2.7,0,3.5,1.4,3.5,3.4c0,1.7-1.8,4-0.8,5.7c3.2,3.8,6.8,6,10.7,7.3c2.1,0.1,1.5-0.4,1.2-0.9c-3.8-1.8-6.9-4.5-9.3-7.9
					c-1.5-2.4,2.1-4.9,0.2-8C357.9-25.8,356.4-26.3,354.8-27L354.8-27z"/>
				<path id="path3212_00000101098394651455734310000015434010857779386285_" class="st15" d="M356.4-24c0.3-0.6,0.8-0.4,1.4,0.1
					c0.2,2.9-1.7,5.8-0.7,8c-1.4-0.5-1.9-1.5-0.7-4C356.5-20.8,357-22.5,356.4-24z"/>
				<path id="path3214_00000036943178999181784800000013105556816123591095_" class="st17" d="M365.8-15.2c-3.4-7.1,1.5-9.5,2-14.6
					c-0.4-5.4-5-7.9-7.5-9.8c2.2,2.6,4.7,3.3,6.1,7.5C367.1-24.1,358.6-21.3,365.8-15.2L365.8-15.2z"/>
				<path id="path3216_00000068676564391503794630000011964975706843696017_" class="st17" d="M360.3-38c2.8,3.2,6.6,6.8,6.1,8.5
					l0.4-2.1C366.1-33.6,362.7-35.8,360.3-38z"/>
				<path id="path3218_00000170991229479207683030000013140662981068971904_" class="st17" d="M360.7-36c2.8,3.2,6.3,7.5,5.8,9.2
					l0.5-2.7C366.3-31.6,363.1-33.9,360.7-36z"/>
				<path id="path3220_00000084488384258975333700000012691458331358826125_" class="st17" d="M365-28.7l1,1.8l0.4-1.5l-1.2-1.2
					C365.2-29.5,365-28.7,365-28.7z"/>
				<path id="path3222_00000034047434297946964310000012428477028217789873_" class="st17" d="M364.2-27.6l1.2,2.1l0.5-1.5l-1.2-1.2
					L364.2-27.6L364.2-27.6z"/>
				<path id="path3224_00000028327041125111128260000006069606840162284990_" class="st17" d="M363.1-26.9l1.5,2.2l0.6-1.1l-1.6-1.5
					L363.1-26.9z"/>
				<path id="path3227_00000138537389888553926410000008444849139670763961_" class="st15" d="M366.6-36.9c-9.9-9.5-18-9.8-26.2-10
					l-1.8-2.4c-0.6-0.7,0.2-0.8,1-1c13-0.8,21.2,5.5,29.1,12.2C369.7-36.4,367.6-36.5,366.6-36.9L366.6-36.9z"/>
				<path id="path3229_00000109006365838901075390000012193100008208537486_" class="st18" d="M339.9-50.6c1.4,1.9,1.4,2.8,1.9,4"/>
				<path id="path3231_00000116199903758654722580000006916401020539941013_" class="st14" d="M342.6-46.7c-0.3-2.4,0-3,2-2.6
					c6.9,1.7,13.8,3.2,22.8,11.3"/>
				<path id="path3233_00000088107246008072741240000014146705574244205958_" class="st11" d="M337.8-51.6c-1.1-1.4-1.6-2.3-3.7-3.5
					c-3.4,1-3.9-1-2.9-3c0.7-1.1,2.3-1,4.3,0c0.1-1.2-2.2-1.6-1.7-2.1c0.2-0.3,2.8-3.9,2.7,2.7c0.4,2.2,1.7,3.3,2.5,4.9
					C339.1-51.4,338.6-51.3,337.8-51.6L337.8-51.6z"/>
				<path id="path3235_00000009560679179703233290000014716333924510798481_" class="st11" d="M343.8-56.7l-0.4,5.2
					c-1.2-0.3-2.1,0.4-3.6-0.5c-0.6-2.4-2.5-3.7-2.6-6c-0.2-4.3,0.8-6.5,4.3-4c2.7,1.3,0.6-0.9,1.4-1.3c4.1,0.5,2.8,3.9,1,5.6
					c-1.4-0.1-2.8,0-4.3-1.7c-1,0.1-1.2,0.9-0.9,2.2c3.6-2.4,1.5,3.6,2.7,2.5c0.3-1.8,0.9-2.3,1.5-2.2
					C343.3-56.9,343.6-57.1,343.8-56.7z"/>
				<path id="path3237_00000016769298111441512630000001320629787444025763_" class="st11" d="M350.3-60.8c-0.6-0.1-0.6-2.5-3.1-1.8
					c-0.2,2.3-0.8,4.7,2.6,5.7c3.1,0,3.3-2.1,2.7-4.7C351.8-62.3,351.1-63.2,350.3-60.8z"/>
				<path id="path3239_00000087400068763259834120000005928876736052535216_" class="st11" d="M347.4-54.7c0.8-0.3,1.2-2.2,2.2-1.6
					c1,1.3-1.3,3-1.3,5.4l-4-0.8l0.4-4.8C345.6-59.2,348.8-57.9,347.4-54.7z"/>
				<path id="path3241_00000083063234996550316680000006819566409828036504_" class="st11" d="M357-58.6c-0.6-0.3-0.1-2.6-2.8-2.3
					c-0.6,2.2-1.6,4.5,1.5,6c3.1,0.5,3.6-1.5,3.5-4.2C358.7-59.8,358.2-60.8,357-58.6z"/>
				<path id="path3243_00000022522799474740729510000008889960738277076660_" class="st11" d="M362.7-55.9c-0.6-0.3,0-2.3-2.5-2.2
					c-0.6,2-1.6,4,1.2,5.5c2.9,0.6,3.4-1.2,3.4-3.6C364.3-57,363.9-57.9,362.7-55.9z"/>
				<path id="path3245_00000018201524742388456340000016720786908912487324_" class="st11" d="M367.8-52.5c-0.5-0.2,0-2.2-2.4-2.1
					c-0.6,1.9-1.6,3.8,1.2,5.2c2.8,0.6,3.3-1.2,3.3-3.4C369.4-53.5,369-54.4,367.8-52.5L367.8-52.5z"/>
				<path id="path3247_00000116196046540246479960000012765860243182391448_" class="st11" d="M371.9-48.3c-0.5-0.3,0.1-2-2.2-2.1
					c-0.7,1.7-1.7,3.4,0.8,4.9c2.6,0.7,3.2-0.9,3.3-3C373.5-49.2,373.2-50,371.9-48.3z"/>
				<path id="path3249_00000058590130183797569900000005376946549681603714_" class="st11" d="M375.2-43.7c-0.4-0.3,0.7-1.7-1.3-2.3
					c-1.1,1.2-2.6,2.4-0.8,4.3c2.1,1.2,3.1,0.1,3.8-1.6C376.8-44,376.8-44.8,375.2-43.7L375.2-43.7z"/>
				<path id="path3251_00000103969143130565671620000000664989182280471993_" class="st11" d="M377.3-39.2c-0.2-0.4,1.2-1.2-0.3-2.4
					c-1.4,0.7-3.1,1.2-2.2,3.5c1.4,1.8,2.6,1.1,3.9-0.1C378.8-38.9,379.1-39.6,377.3-39.2z"/>
				<path id="path3253_00000163792881357224643870000011314209698501586593_" class="st11" d="M352.4-53.2c0.9-0.1,2.1-2.2,2.9-1.4
					c0.7,1.5-2.2,2.8-2.6,5.2l-3.9-1.4l1.3-4.6C351.6-57.9,355.7-56.9,352.4-53.2L352.4-53.2z"/>
				<path id="path3255_00000173144657160363415080000017793421311659437952_" class="st11" d="M357.5-51.1c1.1-0.7,2.7-2,3.4-1.1
					c0.4,1.6-2.8,2.5-3.7,4.7l-3.8-1.9l2.5-4.3C357.9-55.9,361.4-54.1,357.5-51.1z"/>
				<path id="path3257_00000048488470503736678430000016748255863484736900_" class="st11" d="M361.9-48.3c1.2-0.5,3.1-1.5,3.6-0.5
					c0.2,1.5-3.2,1.8-4.4,3.8l-3.5-2.3l3.1-3.6C363.1-52.6,366.4-50.5,361.9-48.3z"/>
				<path id="path3259_00000093178553100892268750000016808554960177823639_" class="st11" d="M366.1-45.5c1.2-0.5,2.9-1.4,3.4-0.4
					c0.2,1.5-3.4,1.5-4.6,3.5l-3.5-2.3l1.4-1.3l2.6-1.6C367.8-49.5,370.5-47.8,366.1-45.5z"/>
				<path id="path3261_00000028295791015580016920000001493431937644699565_" class="st11" d="M369-42.3c1-0.4,2.3-1.1,2.8-0.3
					c0.2,1.2-2.4,1.6-4.1,2.5l-2.2-2.1c0.7-1.5,2.3-1.7,3.5-2.2C370.7-45.8,372.5-44.1,369-42.3z"/>
				<path id="path3263_00000052098510527657665910000003107909034358907030_" class="st11" d="M371.7-39.5c1-0.2,2.3-0.6,2.7,0
					c0,1-2.4,1-4.2,1.5l-1.9-1.9c0.8-1.1,2.4-1.1,3.5-1.3C373.7-42,375.2-40.5,371.7-39.5z"/>
			</g>
		</g>
	</g>
</g>
</svg>
