<?xml version="1.0" encoding="UTF-8"?><svg id="a" xmlns="http://www.w3.org/2000/svg" width="490.78" height="567.05" viewBox="0 0 490.78 567.05"><path d="M245.39,566.53s244.89-69.48,244.89-344.87V.5H.5V221.66c0,275.39,244.89,344.87,244.89,344.87Z" fill="#ecb336" stroke="#000" stroke-miterlimit="10"/><path d="M245.39,.5V344.52l-174.1,98.83C31.42,391.37,.5,319.51,.5,221.66V.5H245.39Z" fill="red" stroke="#000" stroke-miterlimit="10"/><path d="M245.39,.5V344.52l174.1,98.83c39.87-51.98,70.79-123.84,70.79-221.69V.5H245.39Z" fill="#2646ff" stroke="#000" stroke-miterlimit="10"/><g><path d="M178.25,154.87c3.48-3.23,5.99-7.9,5.99-19.99s-3.95-15.21-5.03-20.83c-1.08-5.63,1.21-13.87-4.6-24.14-5.81-10.26-17.59-9.93-17.59-9.93,0,0-.17-3.28-2.36-4.21-2.19-.92-5.36-.52-5.36-.52,.06-2.8-1.92-2.98-4.97-3.79s-8.8-.21-9.36-.14-.63,1.12-.63,1.12c-.89-.08-2.39-1.09-2.39-1.09-1.24-2.72-1.11-6.85-1.11-6.85,5.38-1.87,6.75-5.48,6.9-7.79,.16-2.32-2.04-2.43-2.31-3.71-.27-1.27,.46-2.12,.19-2.89-.27-.77-1.06-1.08-1.06-1.08,0,0,.6-1.65,.43-2.9-.17-1.25-1.33-1.67-1.33-1.67,0-4.26-1-7.22-1-7.22,.65-1.1,1.05-3.5,1.05-3.5,.25-1.65-.26-4.99-.26-4.99,0,0,1.82-.6,1.5-2.39-1.21-6.9-13.32-8.86-13.32-8.86,0-4.9-3.14-5.66-5.72-5.66s-6.97,3.82-8.67,4.84c-1.7,1.03-3.64-.06-5.37,1.09-3.23,2.15-6.02,15.93-6.02,18.3s2.36,8.39,2.36,8.39l.68,1.14s-1.33,.55-.67,3.78c.67,3.23,4.12,5.56,4.12,5.56,0,0,.22,2.34,.89,4.01,.67,1.67,.81,12.01,.56,13.89-.25,1.89-3.03,2.06-3.03,2.06-1.83-.22-5.56,1.09-5.56,1.09,0,0-2.04-1.17-2.99-.8-.95,.36-.58,1.6-.95,1.82-.36,.22-1.24-.36-2.48,.44s-1.61,2.56-1.61,2.56c0,0-15.17,4.36-19.91,8.99s-6.94,13-10.47,25.23c-1.18,4.11-2.08,8.2-2.76,11.94-1.34,7.39-1.79,13.4-1.79,15.36,0,2.95,.96,6.06,.96,6.06,0,0-1.65,7.48-1.5,19.44,.15,11.97,8.98,24.46,10.42,28.31,1.44,3.85-.24,5.85-.24,7.22s1.04,1.52,1.04,2.56-5.45,8.26-6.17,12.03c-.72,3.77-.16,6.17-.16,6.17,0,0-2.33,4.49-4.07,11.03-6.28,23.47-9.91,67.17,0,97.12,9.9,29.96,24.67,45.6,32.16,45.83,7.48,.23,11.76-6.5,16.12-15.44,4.35-8.94,7.78-19.47,7.78-19.47,.4,4.3,4.12,6.95,4.12,6.95-2.4,0-3.33,1.32-3.36,4.64-.02,3.32,2.15,2.47,2.15,2.47,0,0-.25,3.16-1.12,4.63-.2,.33-.48,.73-.8,1.15h-.01c-1.01,1.32-2.36,2.81-2.36,2.81l-2.45-1.72s-7.26,9.97-7.26,11.22,3.04,5.48,8.39,6.7c5.36,1.21,12.54-1.83,16.07-5.36,3.52-3.53,8.26-11.63,8.26-11.63,0,0,12.91,3.47,23.1,4.52,10.18,1.05,15.64-1.37,17.21-3.05,1.58-1.68,2.52-8.61-.42-10.81-2.94-2.2-6.4,2.52-8.18,3.25-1.79,.74-2.42,0-6.83,0-.58,0-1.14-.1-1.66-.28h0c-3.46-1.15-5.66-5.52-5.66-5.52l-.39-1.13c1.42-.35,1.64-2.13,1.64-4.12s-1.59-2.3-1.59-2.3c0,0,8.01-18.69,10.11-30.35,1.58-8.71,2.19-16.96,2.48-22.29,.09-1.8,.15-3.26,.19-4.3,.03-.84,.26-1.78,.64-2.88,1.44-4.21,5.06-10.69,8.05-22.54,3.77-14.92,3.77-26.56,3.77-26.56,8.36-2.79,11.58-7.71,11.58-7.71-.72-29.51-14.72-67.44-14.72-67.44,2.75-2.4,5.26-2.64,8.73-5.87Zm-91.67-26.47c-.47,5.66-.89,12.1,.6,16.68,2.9,8.92,2.74,10.11,4.08,11.15,0,0-2.18,2.86-1.87,6.18s3.32,3.84,3.32,3.84c0,0-2.59,3.32-4.36,6.95-1.76,3.63-5.91,38.17-5.91,38.17,0,0-.31-1.87-1.21-3.72-.91-1.85-5.01-3.62-5.56-5.92-.54-2.3,1.93-25.83,2.09-34.48,.17-8.65-2.99-15.64-2.99-15.64,3.26-4.76,7.73-14.2,10.12-19.45,1.04-2.27,1.69-3.76,1.69-3.76Zm41.58,218.52c-.05,.24-.48,2.17,.58,2.73,0,0-.81,.83-.71,1.94-.72-.78-1.41-1.21-1.41-1.21,0,0,.36-1.14,1.54-3.46Z" fill="#d5d3d8" stroke="#000" stroke-miterlimit="10"/><path d="M114.35,20.09s2.81-2.38,7.28-2.59" fill="none" stroke="#000" stroke-linecap="round" stroke-linejoin="round" stroke-width=".75"/><path d="M98.21,44.46s2.12-4.08,9.19-8.95,11.01-9.01,16.49-8.68,9.55,1.91,9.55,1.91" fill="none" stroke="#000" stroke-linecap="round" stroke-linejoin="round" stroke-width=".75"/><path d="M114.35,37.38s1.47-2.14,2.8-2.87,8.41-.67,8.41-.67" fill="none" stroke="#000" stroke-linecap="round" stroke-linejoin="round" stroke-width=".75"/><path d="M133.71,33.74c-1.27-.9-3.47-.3-3.47-.3,0,0-.78,4.41-.47,5.83s2.99,3.3,3.11,4.64-3.8,3.6-7.02-.54c0,0-4.08,3-4.22,7.12,0,0-4.95,1.63-7.61,0s-6.61-14.99-6.61-14.99" fill="none" stroke="#000" stroke-linecap="round" stroke-linejoin="round" stroke-width=".75"/><path d="M116.82,39.92s.8-1.54,2.74-2.2,3.37,0,3.37,0c0,0-.24,2.87,0,4.57" fill="none" stroke="#000" stroke-linecap="round" stroke-linejoin="round" stroke-width=".75"/><path d="M125.56,52.84s1.5-2.58,3.63-3.38,5.37-.43,5.37-.43" fill="none" stroke="#000" stroke-linecap="round" stroke-linejoin="round" stroke-width=".75"/><path d="M132.11,52.84s.79-.84,1.34-.34-.17,3.41-.17,3.41" fill="none" stroke="#000" stroke-linecap="round" stroke-linejoin="round" stroke-width=".75"/><path d="M98.89,45.6s.67-.61,2.5,0" fill="none" stroke="#000" stroke-linecap="round" stroke-linejoin="round" stroke-width=".75"/><path d="M100.14,41.84s8.85,19.46,11.63,21.1,14.58,3.27,19.07,1.57" fill="none" stroke="#000" stroke-linecap="round" stroke-linejoin="round" stroke-width=".75"/><path d="M116.82,79.19s-4.88-8.32-7.17-18.84" fill="none" stroke="#000" stroke-linecap="round" stroke-linejoin="round" stroke-width=".75"/><path d="M102.34,54.94c1.93,1.13,4.32,.21,4.32,.21" fill="none" stroke="#000" stroke-linecap="round" stroke-linejoin="round" stroke-width=".75"/><path d="M100.76,74.9s6.44,10.76,8.89,11.91,16.89,1.92,19.71,0,5.88-7.64,4.98-14.37" fill="none" stroke="#000" stroke-linecap="round" stroke-linejoin="round" stroke-width=".75"/><path d="M95.2,75.99s10.24,27.05,15.36,31.27,17.91,3.58,21.55,.77,12.24-26.86,12.22-36.57" fill="none" stroke="#000" stroke-linecap="round" stroke-linejoin="round" stroke-width=".75"/><path d="M149.3,75.25s-.52,31.37-4.22,40.7c-5.63,14.19-17.44,7.37-22.15,9.84-1.3,.68-9.55,.89-12.37-3.45s-15.21-29.17-19.3-45.33" fill="none" stroke="#000" stroke-linecap="round" stroke-linejoin="round" stroke-width=".75"/><path d="M157.02,79.98c-1.47,13.12-4.84,14.43-5.68,20.73s1.4,22.38-1.15,28.87-12.29,13.53-20.71,14.53-31.39-14.01-35.4-27.05c-2.47-8.04,.66-29.09,.66-29.09" fill="none" stroke="#000" stroke-linecap="round" stroke-linejoin="round" stroke-width=".75"/><path d="M91.26,156.23c1.35,1.04,9.37,.15,16.95,1.63,7.58,1.49,10.26,4.02,20.07,3.27,9.81-.74,19.32-4.16,19.32-4.16" fill="none" stroke="#000" stroke-linecap="round" stroke-linejoin="round" stroke-width=".75"/><path d="M87.17,80.01c1.95,4.9,1.97,12.79,0,20.7-1.96,7.91-1.78,12.17-.39,16.65,.64,2.05,.2,6.26-.2,11.04" fill="none" stroke="#000" stroke-linecap="round" stroke-linejoin="round" stroke-width=".75"/><path d="M54.03,126.17s7.91-.87,14.38,0,16.48,5.99,16.48,5.99" fill="none" stroke="#000" stroke-linecap="round" stroke-linejoin="round" stroke-width=".75"/><path d="M71.07,152.68s1.63-.06,3.7-1.07" fill="none" stroke="#000" stroke-linecap="round" stroke-linejoin="round" stroke-width=".75"/><path d="M92.71,166.25s6.85-.71,12.69-.92,10.96,2.15,20.9,1.64,24.06-3.69,24.06-3.69" fill="none" stroke="#000" stroke-linecap="round" stroke-linejoin="round" stroke-width=".75"/><path d="M155.94,86.58s-1.3,8,0,11.3,5.87,6.43,5.87,11.33-3.3,6.34-2.79,14.04,4.14,13.91,4.14,13.91" fill="none" stroke="#000" stroke-linecap="round" stroke-linejoin="round" stroke-width=".75"/><path d="M157.02,114.46s.79-6.51,0-9.64-1.08-6.94-1.08-6.94" fill="none" stroke="#000" stroke-linecap="round" stroke-linejoin="round" stroke-width=".75"/><path d="M159.02,123.26s3.5-5.22,8.11-7.03,12.08-2.18,12.08-2.18" fill="none" stroke="#000" stroke-linecap="round" stroke-linejoin="round" stroke-width=".75"/><path d="M152.86,145.01s-.91-5.16,3.8-6.14,5.88,.7,6.34,3.07-.09,5.15-1.27,6.74-5.53,3.15-8.87-3.68Z" fill="none" stroke="#000" stroke-linecap="round" stroke-linejoin="round" stroke-width=".75"/><path d="M179.85,137.7s-3.98-4.58-8.56-4.25-8.26,3.15-9.74,5.79" fill="none" stroke="#000" stroke-linecap="round" stroke-linejoin="round" stroke-width=".75"/><path d="M163,141.94s2.12-.52,3.18,.34,1.84,3.91,2.94,4.25,1.9,0,1.9,0" fill="none" stroke="#000" stroke-linecap="round" stroke-linejoin="round" stroke-width=".75"/><path d="M152.86,145.01s-4.99,.88-4.6,4.63,4.6,5.63,4.6,5.63" fill="none" stroke="#000" stroke-linecap="round" stroke-linejoin="round" stroke-width=".75"/><path d="M148.78,151.46c-1.03,.56-4.47,5.93,3.05,8.43" fill="none" stroke="#000" stroke-linecap="round" stroke-linejoin="round" stroke-width=".75"/><path d="M147.85,157.36c-.82,1.62,2.18,7.29,6.44,8.5s10.26,1.65,15.22-5.12" fill="none" stroke="#000" stroke-linecap="round" stroke-linejoin="round" stroke-width=".75"/><path d="M56.59,223.32s3.62,7.68,5.33,8.02,1.25-.61,1.25-.61c0,0,1.26,2.26,2.6,2.26s1.25-.66,1.25-.66c0,0,1.05,3.35,3.54,1.48,0,0,1.24,2.18,3.01,.56s-.05-3.86,0-7.49-1-7.07,.19-10.56,2.78-3.83,4.73,2.44" fill="none" stroke="#000" stroke-linecap="round" stroke-linejoin="round" stroke-width=".75"/><path d="M60.48,220.51s.12,3.62,.74,5.83,1.94,4.39,1.94,4.39" fill="none" stroke="#000" stroke-linecap="round" stroke-linejoin="round" stroke-width=".75"/><path d="M64.41,217.47s-.23,4.9,.39,7.9,2.21,6.97,2.21,6.97" fill="none" stroke="#000" stroke-linecap="round" stroke-linejoin="round" stroke-width=".75"/><path d="M67.99,216.62s-.23,6.81,.7,10.42,1.86,6.78,1.86,6.78" fill="none" stroke="#000" stroke-linecap="round" stroke-linejoin="round" stroke-width=".75"/><path d="M74.01,215.67c-1.88-1.23,17.52,8.08,29.18,42.28s6.98,67.06,5.4,84.44c0,0,8.86-13.66,5.69-48.74s-12.28-59.61-40.26-77.98Z" fill="none" stroke="#000" stroke-linecap="round" stroke-linejoin="round" stroke-width=".75"/><path d="M95.22,234.98s12.8,2.24,12.8-2.64c0-2.75-4.27-1.2-4.27-5.18s16.11-6.31,17.18-1.07-7.34,.65-5.61,6.25,19.64,2.11,27.08-3.06,25.84-9.61,41.85-1.09" fill="none" stroke="#000" stroke-linecap="round" stroke-linejoin="round" stroke-width=".75"/><path d="M119.43,201.57s-13.48,20.2-15.27,24.5" fill="none" stroke="#000" stroke-linecap="round" stroke-linejoin="round" stroke-width=".75"/><path d="M120.94,227.52s10.07-14.02,14.54-30.84" fill="none" stroke="#000" stroke-linecap="round" stroke-linejoin="round" stroke-width=".75"/><path d="M82.44,211.37c.71,4.42,2.77,7.33,.73,11.09" fill="none" stroke="#000" stroke-linecap="round" stroke-linejoin="round" stroke-width=".75"/><path d="M155,166.05s1.93,30.3,7.27,38.63,13.44,6.7,13.44,6.7c0,0-3.18-2.54-4.69-8.51s-3.76-39.57-3.76-39.57" fill="none" stroke="#000" stroke-linecap="round" stroke-linejoin="round" stroke-width=".75"/><path d="M172.66,235.89c-.13-3.47-.45-11.82-.45-11.82" fill="none" stroke="#000" stroke-linecap="round" stroke-linejoin="round" stroke-width=".75"/><line x1="126.62" y1="350.38" x2="112.7" y2="349.34" fill="none" stroke="#000" stroke-linecap="round" stroke-linejoin="round" stroke-width=".75"/><path d="M128.16,346.92s.01-.02,.01-.02c.29-.57,.63-1.21,1.03-1.93,.24-.43,.44-.88,.63-1.37,1.39-3.67,1.41-9.09,1.54-15.89,.15-7.7,2.77-10.58,4.11-18.13,2.42-13.64-1.96-23.28-1.96-23.28l-.46-3.75c4.7-7.39,9.07-26.72,7.76-52.3" fill="none" stroke="#000" stroke-linecap="round" stroke-linejoin="round" stroke-width=".75"/><path d="M121.51,280.68s.57,3.14,2.99,2.78,4.26-2.29,8.55-.91" fill="none" stroke="#000" stroke-linecap="round" stroke-linejoin="round" stroke-width=".75"/><path d="M120.82,287.39s1.6-1.7,3.05-1.7,1.76,1.76,3.77,1.7,5.88-1.08,5.88-1.08" fill="none" stroke="#000" stroke-linecap="round" stroke-linejoin="round" stroke-width=".75"/><line x1="123.81" y1="283.47" x2="123.87" y2="285.68" fill="none" stroke="#000" stroke-linecap="round" stroke-linejoin="round" stroke-width=".75"/><path d="M145.48,284.57s1.62,3.76,6.01,2.81c2.8-.61,2.32-1.44,4.17-2.81s5.19,.41,5.19,.41" fill="none" stroke="#000" stroke-linecap="round" stroke-linejoin="round" stroke-width=".75"/><path d="M160.01,292.17s-2.03-4.48-3.72-5.2-3.43,0-3.43,0" fill="none" stroke="#000" stroke-linecap="round" stroke-linejoin="round" stroke-width=".75"/><path d="M128.03,351.59c.8,.85,1.64,2.12,1.64,3.68,0,.77-.51,1.36-1.34,1.81-.63,.35-1.44,.61-2.34,.8-2.44,.54-5.54,.61-7.41,.61-3.45,0-7.09-2.04-7.09-2.04" fill="none" stroke="#000" stroke-linecap="round" stroke-linejoin="round" stroke-width=".75"/><path d="M107.2,365.04s4.37,5.49,7.76,5.26,6.61-6.91,6.61-6.91" fill="none" stroke="#000" stroke-linecap="round" stroke-linejoin="round" stroke-width=".75"/><path d="M116.48,363.38s1.95,1.03,2.98,3.46" fill="none" stroke="#000" stroke-linecap="round" stroke-linejoin="round" stroke-width=".75"/><path d="M109.56,362.23s1.35-.66,3.14,0" fill="none" stroke="#000" stroke-linecap="round" stroke-linejoin="round" stroke-width=".75"/><line x1="125.99" y1="357.88" x2="124.25" y2="361.12" fill="none" stroke="#000" stroke-linecap="round" stroke-linejoin="round" stroke-width=".75"/><path d="M130.21,364.25s-.03-4.15-1.88-7.17" fill="none" stroke="#000" stroke-linecap="round" stroke-linejoin="round" stroke-width=".75"/><path d="M128.17,346.9s0,.01-.01,.02" fill="none" stroke="#000" stroke-linecap="round" stroke-linejoin="round" stroke-width=".75"/><path d="M129.67,355.27s6.71,2.65,10.71,3.22,13.05-.61,13.05-.61" fill="none" stroke="#000" stroke-linecap="round" stroke-linejoin="round" stroke-width=".75"/><path d="M138.63,352.01s-.51,2.84-4.58,4.84" fill="none" stroke="#000" stroke-linecap="round" stroke-linejoin="round" stroke-width=".75"/><path d="M138.05,358.02c4.4-1.19,7.77-4.47,9.31-6.79,0,0-4.88,1.29-8.74,.78s-9.89-2.36-9.89-2.36" fill="none" stroke="#000" stroke-linecap="round" stroke-linejoin="round" stroke-width=".75"/><path d="M129.83,343.6s3.68,3.14,9.6,3.3,7.99-2.09,7.99-2.09" fill="none" stroke="#000" stroke-linecap="round" stroke-linejoin="round" stroke-width=".75"/><path d="M78.48,329.54s-3.61-3.56-3.79-12.26,12.04-22.34,18.65,3.31c2.57,9.99-6.28,17.26-10.76,16.17-6.05-1.47-12.23-7.97-12.23-7.97,0,0,1.42,12.23-3.49,15.4s-11.57-13.21-8.74-16.71,6.77,4.26,6.77,4.26" fill="none" stroke="#000" stroke-linecap="round" stroke-linejoin="round" stroke-width=".75"/><line x1="70.36" y1="328.79" x2="82.48" y2="366.62" fill="none" stroke="#000" stroke-linecap="round" stroke-linejoin="round" stroke-width=".75"/><path d="M85.34,356.7s-1.18,2.69-4.83,3.76" fill="none" stroke="#000" stroke-linecap="round" stroke-linejoin="round" stroke-width=".75"/><path d="M58.61,278.98s-2.17,4.48-1.17,10.89,8.24,16.93,8.24,16.93" fill="none" stroke="#000" stroke-linecap="round" stroke-linejoin="round" stroke-width=".75"/><path d="M73.08,280.68s4.75-6.92,9.36-9.55,15.3,1.48,15.3,1.48c0,0-11.23,5.34-14.49,6.37s-10.17,1.71-10.17,1.71Z" fill="none" stroke="#000" stroke-linecap="round" stroke-linejoin="round" stroke-width=".75"/><path d="M73.08,280.68s6.86-4.9,10.42-6.6,14.24-1.47,14.24-1.47" fill="none" stroke="#000" stroke-linecap="round" stroke-linejoin="round" stroke-width=".75"/><path d="M47.09,296.04s.82-3.99,2.97-6.04,5.32-.92,5.32-.92c0,0-1.84,3.89-3.58,5.22s-4.71,1.74-4.71,1.74Z" fill="none" stroke="#000" stroke-linecap="round" stroke-linejoin="round" stroke-width=".75"/><path d="M47.09,296.04c1.74-3.17,8.29-6.96,8.29-6.96" fill="none" stroke="#000" stroke-linecap="round" stroke-linejoin="round" stroke-width=".75"/><path d="M61.82,249.52s1.96-9.88,7.43-9.41,10.6,10.4,7.98,19.26-10.18,10.8-11.55-9.2" fill="none" stroke="#000" stroke-linecap="round" stroke-linejoin="round" stroke-width=".75"/><path d="M55.88,248.91s-5.93,2.36-4.65,11.31,3.95,8.27,5.36-.59" fill="none" stroke="#000" stroke-linecap="round" stroke-linejoin="round" stroke-width=".75"/><line x1="60.97" y1="240.09" x2="61.91" y2="231.34" fill="none" stroke="#000" stroke-linecap="round" stroke-linejoin="round" stroke-width=".75"/><path d="M57.18,236.61s1.74-1.28,4.25-.89" fill="none" stroke="#000" stroke-linecap="round" stroke-linejoin="round" stroke-width=".75"/><path d="M129.7,38.01s1.08-1.38,2.96-.77" fill="none" stroke="#000" stroke-linecap="round" stroke-linejoin="round" stroke-width=".75"/></g><g><path d="M338.33,18.55s-1.04,7.56-.82,8.9,1.3,1.95,.82,4.74-.26,7.58,1.8,11.54,5.13,7.69,6.97,8.2l-.45,2.4-6.63,3.46s-5.35-4.4-10.82-4.91-6.58,4.25-6.58,4.25l-3.56,.66s-3.23-1.15-7.03-.74-7.03,1.49-8.02,5.21c0,0-6.88,.38-8.68,2.32-1.08,1.16-1.48,9.11,.5,10.34,0,0-5.96,6.24-5.42,9.77,.33,2.14,2.96,2.71,2.96,2.71l.49,4.76s-1.31,0-1.48,1.81-.66,4.11,.9,5.26c0,0,.41,1.72-.08,4.85s-1.31,4.43-1.07,8.79c0,0-5.34,4.27-6.82,8.87,0,0-4.6,1.23-7.8,6.57s-4.27,11.33,.57,11.66c0,0,.25,2.63,3.61,3.45,0,0,3.83,3.49,5.35,6.38s.8,8.64,3.31,9.78c1.16,.53,2.13-.71,4.32,0s3.91,3.88,3.91,3.88c0,0-.1,46.48-.64,54.67,0,0-2.59,2.8-2.37,6.68s-1.51,20.79,1.72,23.81,15.19,.32,16.16-2.59c0,0-.65-24.35-.22-33.93s2.37-55.48,1.94-65.28c0,0,7-2.26,10.34-6.46l2.69,1.4s-1.72,1.51-1.72,2.8,.54,2.69,.54,2.69c0,0-1.86,1.09-2.15,3.05s.44,3.78,.44,3.78c0,0-1.82,.22-1.89,3.12s.29,6.25,.29,6.25l.47,.63s-1.32,2.13-1.2,4.74,.77,3.36,.77,3.36l-7.34,38.58s2.04,3.96,6.37,5.16c0,0-2.04,10.81-1.68,14.05s7.81,3.12,7.81,3.12c0,0-.6,10.09,.84,12.85,0,0-2.88,4.68-5.16,14.05s-4.08,25.22-3.96,63.9c0,0-6.07,11.92-11.44,17.71s-10.75,5.99-10.95,9.09,.62,7.85,.62,7.85c0,0,4.75,8.27,10.13,8.27,13.84,0,29.34-22.73,29.34-22.73,0,0-1.9-11.73-1.79-16.51s2.17-26.41,2.17-26.41c0,0,3.45-7.13,3.8-12.13,0,0,3.65-2.34,4.59-5.54s1.12-28.16,1.12-28.16l12.3-20.68,4.57-2.35s2.87,10.12,2.55,15.74-10.33,12.7-9.21,27.3c.52,6.79,3.13,9.73,3.13,9.73,0,0-3.69,31.8-3.95,34.84s.66,4.1-.66,8.08-.13,14.56-.13,14.56c0,0,7.41,5.43,9.93,8.08s7.02,12.18,12.58,12.71,16.02-4.77,16.29-12.18-11.92-12.58-18.4-22.64-1.46-23.96,3.31-33.1,10.06-32.57,8.08-49.52c0,0,5.44-12.18,7.02-15.89,0,0,3.57-.13,5.03-2.38v-11.39s4.24-.33,6.3-1.21l3.63,.44s.65-28.64-3.23-51.35c0,0,0-13.42-1.55-16.13s-5.81-8-5.81-8c0,0,.39-3.1-.9-5.29,0,0,.77-10.06-3.87-13.81,0,0,5.55-10.45,7.23-19.48,0,0,6.19,12.26,11.23,17.93s8,8.9,11.74,9.68,5.94,.13,7.23-.9,12-13.29,15.87-25.81,2.58-31.87,3.48-36.13,3.48-11.61,2.58-21.93c0,0-.34-1.28-1.31-1.63s-7.8-6.14-7.8-6.14c0,0,2.28-11.4,.7-13.24s-10.14-.95-9.64,4.38c.53,5.61,.53,9.21,.53,9.21,0,0-6.14,4.21-6.14,7.53s-.21,4.02,1.25,4.3c0,0-1.17,3.15-.28,4.92,.62,1.25,2.36,.14,2.36,.14,0,0-.55,3.75,1.6,4.44s2.22-.49,2.22-.49l-.45,10.11s-1.04,4.18,.42,5.43c0,0-7.63,11.28-11.49,20.79l-5.01-9.61-1.25-6.79s-7.63-8.46-12.43-11.39-12.43-3.13-12.43-3.13l-3.97-.1s-.14-1.22-.99-1.36-6.74,.36-6.74,.36c0,0-1.04-1.45-2.17-1.76s-2.62-.27-2.62-.27c0,0-2.94-3.84-6.33-4.39,0,0-1.98-9.12-.93-18.14,0,0,5.07-2.16,5.5-6.67s-.43-4.63-.43-4.63c0,0,2.47-5.13,.25-9.14s-7.86-9.76-12.18-7.85c0,0-1.17-3.03-7.72-2.29s-9.52,2.53-9.52,2.53c0,0-3.65-1.11-6.92,2.29s-3.64,6.47-2.29,6.91Z" fill="#d5d3d8" stroke="#000" stroke-miterlimit="10"/><path d="M338.33,18.55c2.41,1.69,10.34-6.45,10.34-6.45,0,0-2.25,4.29-1.07,5.57s6-2.23,6-2.23c0,0-.11,2.66,2.57,2.66s5.57-.75,6.96-3.43c0,0-1.49,5.49,1.07,7.93,1.4,1.33,2.7,0,2.7,0,0,0-.58,4.12,0,5.7s2.02,2.07,2.02,2.07c0,0,2.99-6,4.86-5.56s2.91,1.29,2.91,1.29" fill="none" stroke="#000" stroke-linecap="round" stroke-linejoin="round" stroke-width=".75"/><path d="M337.52,27.45s1.75-.72,3.28-.63,3.99,.32,4.08,2.32-3.29,12.79,1.07,12.32,4.93-3.74,4.93-3.74c0,0,.26,2.49,2.34,3.48" fill="none" stroke="#000" stroke-linecap="round" stroke-linejoin="round" stroke-width=".75"/><path d="M358.73,26.81s-3.01-1.39-5.81-.61-5.19,1.49-5.56,4.17-.57,7.2-.57,7.2" fill="none" stroke="#000" stroke-linecap="round" stroke-linejoin="round" stroke-width=".75"/><path d="M353.22,34.14s-.06-2.1-1.11-3.21" fill="none" stroke="#000" stroke-linecap="round" stroke-linejoin="round" stroke-width=".75"/><path d="M350.84,31.77s1.21-1.14,3.06-1.4,3.61,.27,3.61,.27" fill="none" stroke="#000" stroke-linecap="round" stroke-linejoin="round" stroke-width=".75"/><path d="M343.63,45.58s7.3-.68,9.59-.23-1.32-1.31-2.38-1.13-3.67,2.21-4.34,3.92" fill="none" stroke="#000" stroke-linecap="round" stroke-linejoin="round" stroke-width=".75"/><path d="M338.45,31.24s2.11-.61,3.9,0" fill="none" stroke="#000" stroke-linecap="round" stroke-linejoin="round" stroke-width=".75"/><path d="M340.88,33.84s0-2.01-.65-2.86" fill="none" stroke="#000" stroke-linecap="round" stroke-linejoin="round" stroke-width=".75"/><path d="M347.1,51.92c2.55,.79,7.01,.42,9.29-.54s12.68-6.42,13.53-9.44,0-7.48,0-7.48" fill="none" stroke="#000" stroke-linecap="round" stroke-linejoin="round" stroke-width=".75"/><path d="M365.52,54.72s3.11-4.34,2.14-10.07" fill="none" stroke="#000" stroke-linecap="round" stroke-linejoin="round" stroke-width=".75"/><path d="M347.96,61.52s-1.49-3.89-1.3-7.2" fill="none" stroke="#000" stroke-linecap="round" stroke-linejoin="round" stroke-width=".75"/><path d="M302.53,71.13c0,6.13,1.71,12.94,6.66,18.42s20.1,8.09,20.1,8.09c0,0,11.61-8.22,14.34-13.05s2.36-18.01,2.36-18.01l-5.97-8.81" fill="none" stroke="#000" stroke-linecap="round" stroke-linejoin="round" stroke-width=".75"/><path d="M336.66,71.59l-11.91,7.91s-8.84-7.38-12.04-8.45-8.23-.83-11.7,.6-5.17,3.24-5.17,3.24" fill="none" stroke="#000" stroke-linecap="round" stroke-linejoin="round" stroke-width=".75"/><path d="M322.63,57.12s5.08-1.03,7.7,.66,8.28,6.03,5.9,16.19-5.65,13.77-5.65,13.77c0,0-8.32,.96-14.17-5.41-5-5.45-5.5-11.7-5.5-11.7" fill="none" stroke="#000" stroke-linecap="round" stroke-linejoin="round" stroke-width=".75"/><path d="M304.02,62.24s16.01-1.47,21,10.48l1.77-1.77" fill="none" stroke="#000" stroke-linecap="round" stroke-linejoin="round" stroke-width=".75"/><path d="M319.08,57.77c3.76,1.44,7.71,8.2,7.71,8.2" fill="none" stroke="#000" stroke-linecap="round" stroke-linejoin="round" stroke-width=".75"/><path d="M293.37,87.39c1.61,.98,6.63,.16,7.63-.39s3.29-5.6,3.29-5.6" fill="none" stroke="#000" stroke-linecap="round" stroke-linejoin="round" stroke-width=".75"/><path d="M293.86,92.15s1.17-.46,2.59,0,4.62,4.86,10.44,7.21,10.09,1.42,11.51,4.55" fill="none" stroke="#000" stroke-linecap="round" stroke-linejoin="round" stroke-width=".75"/><path d="M305.73,84.62s-2.65,4.03-2.65,7.33,0,5.25,1.49,6.3" fill="none" stroke="#000" stroke-linecap="round" stroke-linejoin="round" stroke-width=".75"/><path d="M311.82,91.7s-1.5,2.95-1.31,4.77-.03,4.06,1.57,4.4" fill="none" stroke="#000" stroke-linecap="round" stroke-linejoin="round" stroke-width=".75"/><path d="M313.9,98.24s.01,2.06,1,3.24" fill="none" stroke="#000" stroke-linecap="round" stroke-linejoin="round" stroke-width=".75"/><path d="M306.13,95.29s.14,3.86,1.21,4.24" fill="none" stroke="#000" stroke-linecap="round" stroke-linejoin="round" stroke-width=".75"/><path d="M318.4,94.76s-.16,4.14,0,9.14,.62,10.61,1.45,12.59c1.67,4.01,4.42,9.37,4.42,9.37,0,0-.87,3.79-.41,6.36s1.68,8.1,1.68,8.1" fill="none" stroke="#000" stroke-linecap="round" stroke-linejoin="round" stroke-width=".75"/><path d="M293.29,99.21c2.62,.75,6.47,4.84,10.74,6.4s9.27,2.76,14.65,3.36" fill="none" stroke="#000" stroke-linecap="round" stroke-linejoin="round" stroke-width=".75"/><path d="M292.14,112.84c2.69-2.18,6.69,0,6.69,0" fill="none" stroke="#000" stroke-linecap="round" stroke-linejoin="round" stroke-width=".75"/><path d="M437.05,36.81c1.6-1.21,7.09-.65,8.42-.35" fill="none" stroke="#000" stroke-linecap="round" stroke-linejoin="round" stroke-width=".75"/><path d="M432.15,48.64c1.44-2.25,8.81-5.28,8.81-5.28" fill="none" stroke="#000" stroke-linecap="round" stroke-linejoin="round" stroke-width=".75"/><path d="M434.23,53.71c.35-3.02,5.24-6.55,10.64-7.32" fill="none" stroke="#000" stroke-linecap="round" stroke-linejoin="round" stroke-width=".75"/><path d="M438.05,57.66c.56-3.27,6.47-7.58,9.51-3.27l-1.6,16.4s-1.03-1.75-3.38-3.21c-1.92-1.19-4.42-1.54-4.98,.19" fill="none" stroke="#000" stroke-linecap="round" stroke-linejoin="round" stroke-width=".75"/><path d="M439.15,70.06s-.18,6.17,1.81,6.31,3.54-5.16,3.54-5.16c0,0-.82-1.98-2.89-2.41s-2.46,1.25-2.46,1.25Z" fill="none" stroke="#000" stroke-linecap="round" stroke-linejoin="round" stroke-width=".75"/><path d="M445.96,70.79c-.44,3.18-2.51,3.11-2.51,3.11" fill="none" stroke="#000" stroke-linecap="round" stroke-linejoin="round" stroke-width=".75"/><path d="M438.01,73.2c.6,.73,1.41,.7,1.41,.7" fill="none" stroke="#000" stroke-linecap="round" stroke-linejoin="round" stroke-width=".75"/><path d="M329.29,97.64s3.29,6.1,5.9,6.26,18.33,.47,20.48-1.23,5.54-7.38,5.54-7.38c0,0,4.3,5.84,6.62,6.77s18.18-.69,20.95-2.19,8.01-9.51,8.01-9.51c0,0,4.21,5.51,5.65,11.03,0,0,3.65-4.46,7.37-7.87s11.68-9.13,11.68-9.13" fill="none" stroke="#000" stroke-linecap="round" stroke-linejoin="round" stroke-width=".75"/><path d="M420.25,77.59l-10.26,10.2s-9.08-8.76-14.99-10.2c0,0,11.58,10.03,14.82,15.92" fill="none" stroke="#000" stroke-linecap="round" stroke-linejoin="round" stroke-width=".75"/><line x1="401.1" y1="97.64" x2="408.18" y2="91.03" fill="none" stroke="#000" stroke-linecap="round" stroke-linejoin="round" stroke-width=".75"/><path d="M396.8,90.35s-1.49-6.33-1.79-12.76,.9-14.5,.9-14.5" fill="none" stroke="#000" stroke-linecap="round" stroke-linejoin="round" stroke-width=".75"/><path d="M415.78,82.04s-5.91-6.42-9.83-9.62c-3.38-2.76-6.26-4.32-10.57-4.88" fill="none" stroke="#000" stroke-linecap="round" stroke-linejoin="round" stroke-width=".75"/><path d="M378.89,59.94s-.44,16.55,.71,17.65,7.94,.78,7.94,.78l3.37-3.58,.51-11.82" fill="none" stroke="#000" stroke-linecap="round" stroke-linejoin="round" stroke-width=".75"/><line x1="383.69" y1="61.97" x2="384.13" y2="67.54" fill="none" stroke="#000" stroke-linecap="round" stroke-linejoin="round" stroke-width=".75"/><path d="M384.81,74.26s.21,10.58,0,15.05" fill="none" stroke="#000" stroke-linecap="round" stroke-linejoin="round" stroke-width=".75"/><path d="M378.44,85.55s1.42-1.24,2.74-1.66,3.72-.58,3.72-.58" fill="none" stroke="#000" stroke-linecap="round" stroke-linejoin="round" stroke-width=".75"/><path d="M387.65,85.31s1.68,.37,2.53,2.95" fill="none" stroke="#000" stroke-linecap="round" stroke-linejoin="round" stroke-width=".75"/><path d="M346.01,68.71s2.89,2.24,9.95,1.79,18.09-3.85,22.88-7.19" fill="none" stroke="#000" stroke-linecap="round" stroke-linejoin="round" stroke-width=".75"/><path d="M372.56,55.55c.29,1.23-.4,4.39-.4,4.39" fill="none" stroke="#000" stroke-linecap="round" stroke-linejoin="round" stroke-width=".75"/><path d="M324.27,125.86c3.74,.51,12.53,6.44,12.53,6.44" fill="none" stroke="#000" stroke-linecap="round" stroke-linejoin="round" stroke-width=".75"/><path d="M388.91,124.21s4.42-.81,6.31-3.34" fill="none" stroke="#000" stroke-linecap="round" stroke-linejoin="round" stroke-width=".75"/><path d="M281.71,143.4s-.2-.98,.86-3.36,3.68-6.21,8.42-5.76,7.94,1.94,9.89,5.11,8.8,5.83,7.57,8.9-12.97-3.51-12.97-3.51c0,0,3.99,5.49,6.53,6.29s7.56,.64,9.27,1.75,2.59,3.5,1.48,4.3c0,0-8.45,.52-10.15-.31s-7.84-6.1-7.84-6.1" fill="none" stroke="#000" stroke-linecap="round" stroke-linejoin="round" stroke-width=".75"/><path d="M294.1,155.21s5.62,4.75,7.56,5.82,10.1-.4,10.41-.59,1.19-2.5-1.43-3.17" fill="none" stroke="#000" stroke-linecap="round" stroke-linejoin="round" stroke-width=".75"/><path d="M290.54,146.47s-.93,1.05-.81,1.74,.4,1.92,.4,1.92" fill="none" stroke="#000" stroke-linecap="round" stroke-linejoin="round" stroke-width=".75"/><path d="M296.18,160.42s6.09,4.92,8.03,4.98,6.06-4.58,6.06-4.58" fill="none" stroke="#000" stroke-linecap="round" stroke-linejoin="round" stroke-width=".75"/><path d="M278.09,139.95s-.51-.8,.27-3.78,3.53-10.63,15.73-9.72,18.95,9.38,21.09,20.34" fill="none" stroke="#000" stroke-linecap="round" stroke-linejoin="round" stroke-width=".75"/><path d="M285.32,121.71c6.47-2.33,25.75,2.7,26.76,16.16" fill="none" stroke="#000" stroke-linecap="round" stroke-linejoin="round" stroke-width=".75"/><path d="M305.73,126.87s2.12-1.05,2.17-3.1-.55-3.42-.55-3.42c0,0,7.55-8.04,8.88-11.69" fill="none" stroke="#000" stroke-linecap="round" stroke-linejoin="round" stroke-width=".75"/><path d="M319.41,114.94s-4.39,8.71-11.51,8.83" fill="none" stroke="#000" stroke-linecap="round" stroke-linejoin="round" stroke-width=".75"/><path d="M311.58,135.06s4.09-1.67,6.54-5.54,3.33-9.43,3.33-9.43" fill="none" stroke="#000" stroke-linecap="round" stroke-linejoin="round" stroke-width=".75"/><path d="M314.14,142.7c4.47-2.58,9.59-12.55,9.59-12.55" fill="none" stroke="#000" stroke-linecap="round" stroke-linejoin="round" stroke-width=".75"/><path d="M328.23,141.72s2.99,1.78,6.69,2.06,8.73-.56,14.18,3.28,12.91,10.43,22.21,10.2c11.73-.29,12.92-10.62,18.58-16.56s9.21-6.04,9.21-6.04" fill="none" stroke="#000" stroke-linecap="round" stroke-linejoin="round" stroke-width=".75"/><path d="M327.04,147.21s8.02-1.27,15,1.67,14.95,11.59,29.12,12.22,15.3-11.33,19.7-15.13,9.13-6.01,9.13-6.01" fill="none" stroke="#000" stroke-linecap="round" stroke-linejoin="round" stroke-width=".75"/><path d="M426.52,93.99c-1.88,4.2-1.88,16.57-1.88,16.57" fill="none" stroke="#000" stroke-linecap="round" stroke-linejoin="round" stroke-width=".75"/><path d="M313.25,212.07s-14.74,7.91-14.75,12.76c0,3.26,11.16,3.26,10.77,7.01s-10.17,2.37-10.17,6.91,14.39,1.62,14.37,7.25" fill="none" stroke="#000" stroke-linecap="round" stroke-linejoin="round" stroke-width=".75"/><line x1="310.16" y1="213.85" x2="309.27" y2="231.84" fill="none" stroke="#000" stroke-linecap="round" stroke-linejoin="round" stroke-width=".75"/><line x1="299.1" y1="238.75" x2="297.95" y2="218.1" fill="none" stroke="#000" stroke-linecap="round" stroke-linejoin="round" stroke-width=".75"/><path d="M325.33,154.04c.7,2.16,3.5,2.74,3.6,0s-.25-3.18-1.52-2.69" fill="none" stroke="#000" stroke-linecap="round" stroke-linejoin="round" stroke-width=".75"/><path d="M324.21,164.04c2.37,1.62,7.25-3.49,10.52-16.93" fill="none" stroke="#000" stroke-linecap="round" stroke-linejoin="round" stroke-width=".75"/><path d="M348.23,152.37s-3.14,11.56-6.06,12.81-10.6,5.43-9.61-10.87" fill="none" stroke="#000" stroke-linecap="round" stroke-linejoin="round" stroke-width=".75"/><path d="M351.59,154.49s-1.33,13.67,0,15.99,8.53,1.86,10.47-.85,2.1-9.55,2.1-9.55" fill="none" stroke="#000" stroke-linecap="round" stroke-linejoin="round" stroke-width=".75"/><path d="M366.49,160.58s.14,16.8,7.5,15.25,5.41-10.65,3.71-15.52" fill="none" stroke="#000" stroke-linecap="round" stroke-linejoin="round" stroke-width=".75"/><path d="M382.48,157.58s.19,8.02,5.62,10.97,8.6-3.1,7.13-9.07-6.19-11.29-6.19-11.29" fill="none" stroke="#000" stroke-linecap="round" stroke-linejoin="round" stroke-width=".75"/><path d="M391.75,145.23s5.04,10.78,10.29,13.09,5.09-1.78,5.09-1.78" fill="none" stroke="#000" stroke-linecap="round" stroke-linejoin="round" stroke-width=".75"/><ellipse cx="339.2" cy="158.76" rx="2.7" ry="3.04" fill="none" stroke="#000" stroke-linecap="round" stroke-linejoin="round" stroke-width=".75"/><ellipse cx="356.66" cy="164.13" rx="1.82" ry="2.08" fill="none" stroke="#000" stroke-linecap="round" stroke-linejoin="round" stroke-width=".75"/><circle cx="373.21" cy="167.02" r="2.3" fill="none" stroke="#000" stroke-linecap="round" stroke-linejoin="round" stroke-width=".75"/><path d="M387.83,159.48s-1.63,3.83,1.2,3.75,2.31-2.09,1.14-3.75" fill="none" stroke="#000" stroke-linecap="round" stroke-linejoin="round" stroke-width=".75"/><path d="M402.47,149.69s-2.27-1.82-3.02,0,1.4,5.27,3.02,3.84,.59-2.6,.59-2.6" fill="none" stroke="#000" stroke-linecap="round" stroke-linejoin="round" stroke-width=".75"/><path d="M323.77,172.14c1,2.01,10.29-1.82,10.77-6.74" fill="none" stroke="#000" stroke-linecap="round" stroke-linejoin="round" stroke-width=".75"/><path d="M335.86,166.31c.18,4.27,2.69,7.06,6.48,7.11s8.67-5.3,8.67-5.3" fill="none" stroke="#000" stroke-linecap="round" stroke-linejoin="round" stroke-width=".75"/><path d="M355.92,171.98s.56,7.15,6.62,7.32,7.74-4.57,7.74-4.57" fill="none" stroke="#000" stroke-linecap="round" stroke-linejoin="round" stroke-width=".75"/><path d="M395.11,165.54s2.25,4.7,5.52,4.05,6.71-6.98,6.71-6.98" fill="none" stroke="#000" stroke-linecap="round" stroke-linejoin="round" stroke-width=".75"/><path d="M377.1,174.35s4.38,6.98,8.7,4.29,7.31-4.5,6.44-9.6" fill="none" stroke="#000" stroke-linecap="round" stroke-linejoin="round" stroke-width=".75"/><path d="M397.63,168.74s3.32,17.68,4.67,27.28,4.64,18.99,4.64,18.99" fill="none" stroke="#000" stroke-linecap="round" stroke-linejoin="round" stroke-width=".75"/><path d="M322.79,215.88c2.58,1.11,5.43,0,5.43,0,0,0,.05,2.11,1.56,2.22s18.54,1.4,21.39-.65c0,0,.96-1.15,5.49-1.05s5.64,1.77,11.51,1.7l.27,1.77s20.3-.34,21.34-2.77c0,0,6.94-.35,10.85-.89" fill="none" stroke="#000" stroke-linecap="round" stroke-linejoin="round" stroke-width=".75"/><line x1="336.26" y1="168.74" x2="328.23" y2="215.88" fill="none" stroke="#000" stroke-linecap="round" stroke-linejoin="round" stroke-width=".75"/><line x1="351.59" y1="170.49" x2="350.23" y2="217.88" fill="none" stroke="#000" stroke-linecap="round" stroke-linejoin="round" stroke-width=".75"/><line x1="363.84" y1="179.25" x2="368.18" y2="218.1" fill="none" stroke="#000" stroke-linecap="round" stroke-linejoin="round" stroke-width=".75"/><line x1="386.76" y1="178.04" x2="389.8" y2="217.1" fill="none" stroke="#000" stroke-linecap="round" stroke-linejoin="round" stroke-width=".75"/><path d="M365.09,232.27l3.08-2.16s2.06,1.4,4.13,1.4,3.34-1.4,3.34-1.4c0,0,1.64,1.46,4.61,1.46s4.73-1.76,4.73-1.76l8.62-.3,2.02,.48" fill="none" stroke="#000" stroke-linecap="round" stroke-linejoin="round" stroke-width=".75"/><line x1="342.31" y1="218.6" x2="340.47" y2="232.78" fill="none" stroke="#000" stroke-linecap="round" stroke-linejoin="round" stroke-width=".75"/><path d="M352.28,216.87s-.11,5.21-1,7.34-.69,8.94-.69,8.94" fill="none" stroke="#000" stroke-linecap="round" stroke-linejoin="round" stroke-width=".75"/><path d="M361.36,217.17l-.83,17.45c-5.41,.5-9.94-1.47-9.94-1.47-6.13,2.91-10.12-.36-10.12-.36-1.58,2.73-10.12,1.15-11.55,.28l3.32-14.79" fill="none" stroke="#000" stroke-linecap="round" stroke-linejoin="round" stroke-width=".75"/><line x1="368.45" y1="219.87" x2="368.18" y2="230.11" fill="none" stroke="#000" stroke-linecap="round" stroke-linejoin="round" stroke-width=".75"/><line x1="375.64" y1="230.11" x2="376.46" y2="219.55" fill="none" stroke="#000" stroke-linecap="round" stroke-linejoin="round" stroke-width=".75"/><line x1="384.99" y1="229.81" x2="385.5" y2="218.6" fill="none" stroke="#000" stroke-linecap="round" stroke-linejoin="round" stroke-width=".75"/><line x1="393.6" y1="229.51" x2="394.07" y2="216.84" fill="none" stroke="#000" stroke-linecap="round" stroke-linejoin="round" stroke-width=".75"/><path d="M329.76,245.91c.86,2.44,2.34,4.53,6.88,4.72s10.14-5.41,10.14-5.41" fill="none" stroke="#000" stroke-linecap="round" stroke-linejoin="round" stroke-width=".75"/><path d="M331.73,263.84s-.05-10.43,.84-14.21" fill="none" stroke="#000" stroke-linecap="round" stroke-linejoin="round" stroke-width=".75"/><path d="M379.7,242.89s.19,3.14,2.44,3.78,4.58,.31,6.45-.8" fill="none" stroke="#000" stroke-linecap="round" stroke-linejoin="round" stroke-width=".75"/><path d="M380.73,275.74s.42-17.71,1.41-21.31,3.97-7.61,3.97-7.61" fill="none" stroke="#000" stroke-linecap="round" stroke-linejoin="round" stroke-width=".75"/><path d="M361.57,285.04c.82-5.07,6.18-16.15,6.18-16.15" fill="none" stroke="#000" stroke-linecap="round" stroke-linejoin="round" stroke-width=".75"/><path d="M342.51,289c.19-4.09,0-14.04,0-14.04" fill="none" stroke="#000" stroke-linecap="round" stroke-linejoin="round" stroke-width=".75"/><path d="M360.85,291.23c3.15-1.62,19.67,4.15,19.67,4.15" fill="none" stroke="#000" stroke-linecap="round" stroke-linejoin="round" stroke-width=".75"/><line x1="360.47" y1="294.57" x2="378.63" y2="299.26" fill="none" stroke="#000" stroke-linecap="round" stroke-linejoin="round" stroke-width=".75"/><path d="M359.53,302.71c3.73,.3,18.16-1.26,18.16-1.26" fill="none" stroke="#000" stroke-linecap="round" stroke-linejoin="round" stroke-width=".75"/><path d="M359,307.37s4.92,.64,8.46-.31,6.21-2.55,9.03-2.41" fill="none" stroke="#000" stroke-linecap="round" stroke-linejoin="round" stroke-width=".75"/><path d="M357.68,323.61s7.38-7.8,10.93-9.79,6.22-3.19,6.22-3.19" fill="none" stroke="#000" stroke-linecap="round" stroke-linejoin="round" stroke-width=".75"/><path d="M356.5,330.31s6.69-8.17,9.34-10.01,6.35-3.61,8.29-3.53" fill="none" stroke="#000" stroke-linecap="round" stroke-linejoin="round" stroke-width=".75"/><line x1="362.27" y1="295.04" x2="366.25" y2="302.49" fill="none" stroke="#000" stroke-linecap="round" stroke-linejoin="round" stroke-width=".75"/><line x1="368.33" y1="306.8" x2="371.41" y2="312.32" fill="none" stroke="#000" stroke-linecap="round" stroke-linejoin="round" stroke-width=".75"/><line x1="364.26" y1="307.58" x2="368" y2="314.2" fill="none" stroke="#000" stroke-linecap="round" stroke-linejoin="round" stroke-width=".75"/><line x1="361.57" y1="302.49" x2="359.99" y2="298.69" fill="none" stroke="#000" stroke-linecap="round" stroke-linejoin="round" stroke-width=".75"/><path d="M370.18,317.85s4.17,8.99,6.89,10.42" fill="none" stroke="#000" stroke-linecap="round" stroke-linejoin="round" stroke-width=".75"/><path d="M356.33,334.83c.74,2.39,3.2,5.4,3.2,5.4,0,0-1.32-7.27,6.99-10.75s11.36,0,11.36,0" fill="none" stroke="#000" stroke-linecap="round" stroke-linejoin="round" stroke-width=".75"/><path d="M379.7,331.84s-3.74-3.07-9.52,0-7.3,6.92-5.92,12.31c0,0,3.1,5.49,6.42,7.74,0,0,.06-3.74,2.94-6.86s8.39-6.84,14.68-4.79" fill="none" stroke="#000" stroke-linecap="round" stroke-linejoin="round" stroke-width=".75"/><path d="M373.07,354.81s-.3-3.6,2.58-6.78,7.2-6.09,15.04-5.59" fill="none" stroke="#000" stroke-linecap="round" stroke-linejoin="round" stroke-width=".75"/><path d="M363.87,342.09s2.4,0,3.23,1.44-.19,4.51,1.67,6.72" fill="none" stroke="#000" stroke-linecap="round" stroke-linejoin="round" stroke-width=".75"/><path d="M387.7,342.41s3.72,3.84,3.87,5.2-.27,1.93-.27,1.93" fill="none" stroke="#000" stroke-linecap="round" stroke-linejoin="round" stroke-width=".75"/><path d="M378.61,331.2s4.27,7.57,6.24,8.45" fill="none" stroke="#000" stroke-linecap="round" stroke-linejoin="round" stroke-width=".75"/><path d="M320.94,296.91c4.5-.24,9.83,4.17,17.77,4.21" fill="none" stroke="#000" stroke-linecap="round" stroke-linejoin="round" stroke-width=".75"/><path d="M320.81,301.84s1.46-.9,6.03,.65,8.57,2.66,11.54,2.15" fill="none" stroke="#000" stroke-linecap="round" stroke-linejoin="round" stroke-width=".75"/><path d="M320.63,320.1c2.97-.07,17.35-11.05,17.35-11.05" fill="none" stroke="#000" stroke-linecap="round" stroke-linejoin="round" stroke-width=".75"/><path d="M320.63,323.87c4,.58,16.77-8.35,16.77-8.35" fill="none" stroke="#000" stroke-linecap="round" stroke-linejoin="round" stroke-width=".75"/><line x1="320.66" y1="312.29" x2="324.57" y2="318.35" fill="none" stroke="#000" stroke-linecap="round" stroke-linejoin="round" stroke-width=".75"/><line x1="326.8" y1="321.94" x2="337.09" y2="335.17" fill="none" stroke="#000" stroke-linecap="round" stroke-linejoin="round" stroke-width=".75"/><line x1="320.94" y1="304.12" x2="328.33" y2="315.97" fill="none" stroke="#000" stroke-linecap="round" stroke-linejoin="round" stroke-width=".75"/><line x1="330.52" y1="320.1" x2="336.57" y2="329.45" fill="none" stroke="#000" stroke-linecap="round" stroke-linejoin="round" stroke-width=".75"/><path d="M326.8,313.51s7.55-6.04,9.39-8.75" fill="none" stroke="#000" stroke-linecap="round" stroke-linejoin="round" stroke-width=".75"/><line x1="324.63" y1="310.04" x2="331.5" y2="303.93" fill="none" stroke="#000" stroke-linecap="round" stroke-linejoin="round" stroke-width=".75"/><path d="M379.6,351.88s2.95,1.06,4.83,4.03" fill="none" stroke="#000" stroke-linecap="round" stroke-linejoin="round" stroke-width=".75"/><path d="M379.3,355.24s.85,2.2,2.99,1.44,1.56-1.58,1.56-1.58" fill="none" stroke="#000" stroke-linecap="round" stroke-linejoin="round" stroke-width=".75"/><path d="M383.38,349.55s3.9,2.09,4.66,5.01" fill="none" stroke="#000" stroke-linecap="round" stroke-linejoin="round" stroke-width=".75"/><path d="M386.58,347.58s2.41,2.05,3.11,3.52c0,0,1.25,2.2,.4,3.34s-2.06,.11-2.06,.11c0,0,.4,2.13-1.14,2.65s-2.46-1.29-2.46-1.29c2.39,3.64-4.01,3.82-5.92,3.16s-2.76-4.63-2.76-4.63c0,0-.29,.4-1.03,.36s-1.62-1.13-1.62-1.13" fill="none" stroke="#000" stroke-linecap="round" stroke-linejoin="round" stroke-width=".75"/><path d="M388.61,345.98s1.48,1.66,2.08,2.61c0,0,.95,1,.87,2.33s-1.18,1.65-1.18,1.65" fill="none" stroke="#000" stroke-linecap="round" stroke-linejoin="round" stroke-width=".75"/><path d="M323.69,352.26l5.9-9.46s-2-4.8-5.62-7.63-9.22-1.09-9.22-1.09" fill="none" stroke="#000" stroke-linecap="round" stroke-linejoin="round" stroke-width=".75"/><path d="M317.07,330.31s6.32-2.69,11.26,2.2,5.22,10.2,5.22,10.2l3.86-3.45" fill="none" stroke="#000" stroke-linecap="round" stroke-linejoin="round" stroke-width=".75"/><path d="M308.7,342.09c5.19,.17,11.06,2.08,13.48,5.99s1.31,6.72,1.31,6.72l7.04-7.39-.93-4.62" fill="none" stroke="#000" stroke-linecap="round" stroke-linejoin="round" stroke-width=".75"/><path d="M305.81,344.59s7.53,.11,10.99,4.92,2.27,7.93,2.27,7.93c0,0-6.01,6.4-9.63,6.12s-10.98-8.02-10.98-8.02" fill="none" stroke="#000" stroke-linecap="round" stroke-linejoin="round" stroke-width=".75"/><path d="M311.98,351.33s-3.31,3.04-4.55,3.77c-2.62,1.56-1.57,3.57-.66,5.01s3.72,2.62,5.21,1.31,4.24-5.46,4.24-5.46c0,0,.56,1.37,3.04,0" fill="none" stroke="#000" stroke-linecap="round" stroke-linejoin="round" stroke-width=".75"/><path d="M306,351.88s-2.52,1.44-2.82,3.66-.38,4.3,3.59,4.57" fill="none" stroke="#000" stroke-linecap="round" stroke-linejoin="round" stroke-width=".75"/><path d="M298.25,353.15c.27,.67,1.18,.65,1.18,.65,0,0-.38,.85,.09,1.52s1.32,.4,1.32,.4c0,0-.46,2.02,2.25,1.77" fill="none" stroke="#000" stroke-linecap="round" stroke-linejoin="round" stroke-width=".75"/><path d="M306.97,356.5s1,1.52,2.63,1.29,2.05-1.54,2.05-1.54" fill="none" stroke="#000" stroke-linecap="round" stroke-linejoin="round" stroke-width=".75"/></g><g><g><path d="M279.99,511.93s2.21,.61,3.04,0-.37-2.33,.64-3.17,3.41-.11,4.88-.38,1.2-2.95,3.78-3.13,13.91,0,13.91,0c0,0-.46,6.65-3.32,8.48s-8.11,4.21-11.61,4.08-11.33-5.88-11.33-5.88Z" fill="#115922" stroke="#000" stroke-linejoin="round"/><path d="M304.04,506.54s-4.33,.46-6.63,1.75-2.12,1.95-5.07,3.65-11.2,.44-11.2,.44" fill="none" stroke="#033204" stroke-linecap="round" stroke-miterlimit="10"/><polyline points="295.1 514.64 291.25 512.37 291.25 508.76" fill="none" stroke="#033204" stroke-linecap="round" stroke-miterlimit="10"/><polyline points="300.35 510.4 295.1 509.97 296.67 507" fill="none" stroke="#033204" stroke-linecap="round" stroke-miterlimit="10"/></g><g><path d="M240.15,494.49s6.98,.27,6.89-3.59-2.56-7.51-2.56-7.51c0,0-.03-.94,.02-2.89s-1.28-3.13-1.28-3.13c0,0,.01-1.79-1.64-3.36s-2.79-.41-3.61-3.01c-.38-1.21-1.7-3.22-2.96-2.13s-.39,2.64-1.26,3.8-1.81,1.48-1.55,4.77,1.39,4.82,1.39,4.82c0,0-1.74,.76-1.72,1.67s.91,3.62,.91,3.62c0,0-2.36,1.38-2.21,3.29s5.69,6.49,9.58,3.66Z" fill="#115922" stroke="#000" stroke-linejoin="round"/><path d="M235.91,473.6s2.86,3.09,3.16,4.86-.51,6.97-.31,9.21,1.4,6.83,1.4,6.83" fill="none" stroke="#033204" stroke-linecap="round" stroke-miterlimit="10"/><polyline points="234.99 481.78 238.86 483.93 243.27 481.23" fill="none" stroke="#033204" stroke-linecap="round" stroke-miterlimit="10"/><path d="M234.99,488.51s3.01,2.62,4.31,2.44,3.3-2.38,3.3-2.38" fill="none" stroke="#033204" stroke-linecap="round" stroke-miterlimit="10"/></g><path d="M175.58,481.88s23.42,3.48,29.65,3.62,19.56-1.38,19.56-1.38c0,0,38.23,34.65,79.49,40.78,0,0,2.75,.62,2.79-2.68,.03-2.35-14.36-5.33-27.07-10.28-15.33-5.96-37.38-15.25-68.45-43.38-25.49-23.08-33.37-33.29-33.37-33.29l.83,6.06,34.91,35.14s1.88,2.45,.69,3.64-7.28,1.97-27.67-.2-11.36,1.98-11.36,1.98Z" fill="#316e18" stroke="#000" stroke-miterlimit="10"/><g><path d="M202.24,382.42s-3.43,3.37-2.43,8.58,3.75,6.55,3.75,6.55l1.64-2.98s-2.07-1.08-2.6-4.71,.59-5.42,2.09-5.56-2.44-1.87-2.44-1.87Z" fill="#fff" stroke="#000" stroke-miterlimit="10"/><path d="M210.64,388.48s-12.54,8.13-17.05,18.3c0,0,21.01-13.89,22.93-10.39s-22.02,12.54-22.02,12.54c0,0,17.62,.45,24.05-2.6s14.23,5.19,11.41,17.73-.34,39.87,17.96,50.37c0,0-.15,10.09,2.89,12.95l1.25,10.21s-6.54-1.34-8.33,.81,1.35,8.24,1.35,8.24c0,0-1.16-4.84,.31-5.73s6.66,.27,6.66,.27c0,0-1.69,.26-2.19,2.47s2.82,9.68,2.82,9.68c0,0,.6-10.79,5.24-12.6s5.14,6.15,5.14,6.15c0,0,.71-6.85-1.41-8.67s-5.44-1.92-5.44-1.92l-.4-8.97s.71-4.94,3.23-6.65c0,0,1.57,11.23,5.1,12.28l1.74,13.74s-6.03-.29-7.19,1.51-.64,7.07-.64,7.07c0,0,.87-5.04,2.55-5.74s5.74-.52,5.74-.52c0,0-2.14,2.2-2.09,5.1s2.09,7.71,2.09,7.71c0,0,.12-5.68,.87-7.88s2.84-5.45,6.09-5.39,4.41,1.04,4.41,1.04c0,0-1.04-2.9-3.71-3.25s-4.41,0-4.52-1.33-.7-11.83-.7-11.83c0,0,2.96-1.57,2.72-5.04,0,0,14.87,9.46,22.2,8.54,0,0,10.86,1.18,18.72,9.82s12.95,14.03,12.95,14.03c0,0,4.62-.56,4.62-3.75,0,0,5.66,.24,6.38-5.26,0,0,3.99-.08,3.51-4.86,0,0,4.62-1.2,3.91-6.06,0,0,5.9,.08,3.19-5.34,0,0-6.54-2.71-12.2-8.77,0,0,14.52-.08,14.91-4.42s-9.58-5.75-19.8-11.12-41.73-24.79-52.64-45.24-23.96-28.24-27.46-30.39-3.87-16.54-19.09-18.31c-11.3-1.32-20.05,11.49-20.05,11.49Z"/><path d="M259.04,480.66c-1.79-6.31-1.67-12.84-1.67-12.84" fill="none" stroke="#fff" stroke-linecap="round" stroke-linejoin="round"/><path d="M276.19,423.77c-2.76-4.62-13.85-11.83-24.53-4.83s-15.62,37.89,40.88,61.71c15.33,6.46,42.23,5.81,42.23,5.81" fill="none" stroke="#fff" stroke-linecap="round" stroke-linejoin="round"/><path d="M267.8,467.37s5.11,1.41,6.26-.45,0-6.62,0-6.62c0,0,6.62,1.6,7.22-.6s-1.1-5.52-1.1-5.52c0,0,4.86,.75,5.87-1.15s-.55-5.62-.55-5.62c0,0,2.61,1.1,3.91-.3s.45-5.24,.45-5.24" fill="none" stroke="#fff" stroke-linecap="round" stroke-linejoin="round"/><line x1="257.92" y1="446.52" x2="274.07" y2="460.31" fill="none" stroke="#fff" stroke-linecap="round" stroke-linejoin="round"/><line x1="262.23" y1="439.9" x2="280.19" y2="454.19" fill="none" stroke="#fff" stroke-linecap="round" stroke-linejoin="round"/><path d="M267.8,432.88s14.59,11.99,17.7,14.54" fill="none" stroke="#fff" stroke-linecap="round" stroke-linejoin="round"/><path d="M289.25,479.23c3.3,1.43,5.92-.61,5.42-4.27s-.51-6.57,.95-8.02,5.94-.25,7.13-2.21-.32-4.36,.51-5.11,2.59,0,2.59,0l-1.33-2.9" fill="none" stroke="#fff" stroke-linecap="round" stroke-linejoin="round"/><path d="M347.28,484.53s-28.24-12.13-41.44-24.92" fill="none" stroke="#fff" stroke-linecap="round" stroke-linejoin="round"/><path d="M338.98,486.25s-17.95-8.69-36.23-21.52" fill="none" stroke="#fff" stroke-linecap="round" stroke-linejoin="round"/><path d="M328.62,486.49s-19.56-8.65-33.01-19.55" fill="none" stroke="#fff" stroke-linecap="round" stroke-linejoin="round"/><path d="M312.34,485.3c-3.9-2.87-11.04-9.59-17.61-9.47" fill="none" stroke="#fff" stroke-linecap="round" stroke-linejoin="round"/><path d="M271.5,488.12c-.35-3.04,2.31-12.08,4.23-15.73" fill="none" stroke="#fff" stroke-linecap="round" stroke-linejoin="round"/><path d="M293.7,496.66c3.98-.09,4.99-6.03,4.99-6.03,0,0,5.89,.59,7.16-1.29,.42-.62-.75-1.18,0-2.41s7.66-1.49,7.66-1.49" fill="none" stroke="#fff" stroke-linecap="round" stroke-linejoin="round"/><path d="M330,516.77s-23.74-19.86-31.31-26.14" fill="none" stroke="#fff" stroke-linecap="round" stroke-linejoin="round"/><path d="M336.37,511.51c-11.05-9.63-22.17-18.3-30.53-22.16" fill="none" stroke="#fff" stroke-linecap="round" stroke-linejoin="round"/><path d="M339.88,506.64c-5.65-6.74-27.54-21.14-27.54-21.14" fill="none" stroke="#fff" stroke-linecap="round" stroke-linejoin="round"/><path d="M343.79,500.58c-6.44-6.79-19.32-14.33-19.32-14.33" fill="none" stroke="#fff" stroke-linecap="round" stroke-linejoin="round"/><path d="M221.11,393.18c1.54,2.24,11.27-2.4,9.39-4.7s-4.15,.52-4.58,1.04-1.39,3.14-2.73,1.34c-.6-.81-.17-.91,.21-1.34,.87-1.01,1.74-.22,2.09-.53,.64-.57,3.29-2.94,2.58-4.78s-10.47,3.89-6.97,8.97Z" fill="#fff"/><path d="M204.68,384.29c1.89-.29,4.95,1.42,5.54,6.62s-3.13,7.88-3.13,7.88l-1.67,.88s2.33,2.51,4.86,1.5c1.65-.66,4.47-5.08,3.74-10.26s-2.74-7.81-6.5-8.88l-2.85,2.27Z" fill="#fff" stroke="#000" stroke-linejoin="round"/><circle cx="204.68" cy="380.98" r="3.46" fill="red" stroke="#000" stroke-miterlimit="10"/></g><g><path d="M198.95,457.82s-4.55-2.18-4.79-6.56-.61-7.94,2.4-8.31c0,0-.8-.25-.8-3.56s7.25-7.86,7.25-7.86c0,0,3.82,3.82,4.42,6.21,0,0,1.45,0,1.5,1.95s-1,3.55-1,3.55c0,0,1.7,.14,1.7,1.44s.7,7.6-1.88,10.21-8.79,2.94-8.79,2.94Z" fill="#115922" stroke="#000" stroke-linejoin="round"/><path d="M206,439.9s-2.51-.68-3.18,1.07,0,5.6-1.34,7.44-2.89,6.05-2.53,9.41" fill="none" stroke="#033204" stroke-linecap="round" stroke-miterlimit="10"/><path d="M205.19,447.73s.56-3.01-2.78-1.84" fill="none" stroke="#033204" stroke-linecap="round" stroke-miterlimit="10"/></g><path d="M197.98,447.04s1.46,.11,1.65,1.36,.24,3.27,.24,3.27" fill="none" stroke="#033204" stroke-linecap="round" stroke-miterlimit="10"/><g><path d="M181.75,439.14s.7-6.92-.54-7.61-2.56-.54-2.56-.54c0,0,1.32-2.25,0-3.11s-2.56-.62-2.56-.62c0,0-.93-3.49-2.02-3.65s-2.87,0-2.87,0c0,0-2.41-1.55-3.96-.7s-.39,7.98-.39,7.98h1.94s-.7,3.12-.16,4.36,2.56,1.55,2.56,1.55c0,0-.85,3.8,1.79,4.5s8.15,0,8.15,0l.62-2.17Z" fill="#115922" stroke="#000" stroke-linejoin="round"/><path d="M170.02,426.64s1.86,1.71,2.1,3.49c0,0,2.56-.23,2.79,.62s0,3.96,0,3.96c0,0,2.48-.16,3.26,.54s0,3.11,0,3.11l2.95,2.95" fill="none" stroke="#033204" stroke-linecap="round" stroke-miterlimit="10"/></g><g><path d="M193.59,461.53s1.27-6.87-2.56-7.34-7.8,1.45-7.8,1.45c0,0-1.66-1.9-3.58-2.23s-2.56,2.62-2.56,2.62c0,0-2.69-1.41-4.48,0s-1.46,3.7-2.58,4.28-3.43,1.22-2.53,2.63,2.56,.77,3.58,1.79,1.2,2,4.5,2.22,4.96-.68,4.96-.68c0,0,.51,1.84,1.4,1.94s3.71-.38,3.71-.38c0,0,1.02,2.53,2.94,2.66s7.24-4.71,4.99-8.95Z" fill="#115922" stroke="#000" stroke-linejoin="round"/><path d="M172.31,462.73s3.47-2.39,5.26-2.43,6.83,1.44,9.07,1.63c5.44,.45,11.35-1.52,11.35-1.52" fill="none" stroke="#033204" stroke-linecap="round" stroke-miterlimit="10"/><polyline points="180.27 464.81 182.95 461.29 180.91 456.54" fill="none" stroke="#033204" stroke-linecap="round" stroke-miterlimit="10"/><path d="M186.93,465.77s3.03-2.61,3.03-3.92-1.88-3.61-1.88-3.61" fill="none" stroke="#033204" stroke-linecap="round" stroke-miterlimit="10"/></g><g><path d="M178.01,480.11s1.24-4.97-1.24-6.89-6.1-1.8-5.87,1.02c0,0-2.73-2.7-4.47-2.31s-1.4,1.86-1.4,1.86c0,0-2.82-1.69-4.63-1.13s-5.2,2.94-5.2,4.74,3.39,2.71,3.39,2.71c0,0-.34,2.26,.9,3.39s6.1,0,6.1,0c0,0-.79,2.48,.23,2.99s4.21-.51,4.21-.51c0,0,.87,1.81,2.28,1.92s5.71-7.79,5.71-7.79Z" fill="#115922" stroke="#000" stroke-linejoin="round"/><path d="M160.84,477.06s2.37,1.69,3.61,1.69h2.3s4.96,1.37,5.78,1.14,2.7-1.16,5.47,.21" fill="none" stroke="#033204" stroke-linecap="round" stroke-miterlimit="10"/><path d="M171.41,475.59s2.65,2.29,2.67,3.88-2.28,3.06-2.28,3.06" fill="none" stroke="#033204" stroke-linecap="round" stroke-miterlimit="10"/><path d="M166.76,481.88s.98-1.08,1.15-2.82-2.09-3.47-2.09-3.47" fill="none" stroke="#033204" stroke-linecap="round" stroke-miterlimit="10"/></g><g><path d="M195.47,485.5s-6.18-3.26-7.77,.26-.94,7.88-.94,7.88c0,0-2.31,1.02-3.2,2.75s1.73,3.22,1.73,3.22c0,0-2.14,2.14-1.33,4.27s3.1,2.49,3.32,3.74,.14,3.64,1.75,3.2,1.5-2.21,2.78-2.88,2.27-.55,3.46-3.64,.83-4.94,.83-4.94c0,0,1.9,.06,2.27-.76s.74-3.65,.74-3.65c0,0,2.72-.22,3.42-2.01s-2.33-8.31-7.06-7.44Z" fill="#115922" stroke="#000" stroke-linejoin="round"/><path d="M190.28,506.17s-1.25-4.02-.75-5.75,3.47-6.07,4.26-8.17,1.69-6.76,1.69-6.76" fill="none" stroke="#033204" stroke-linecap="round" stroke-miterlimit="10"/><polyline points="194.64 499.19 192.07 495.58 186.94 496.11" fill="none" stroke="#033204" stroke-linecap="round" stroke-miterlimit="10"/><path d="M197.54,493.12s-1.58-3.67-2.84-4.06-4.01,.72-4.01,.72" fill="none" stroke="#033204" stroke-linecap="round" stroke-miterlimit="10"/></g><g><path d="M240.78,497.4s-5.29,.92-4.6,3.8,3.13,5.23,3.13,5.23c0,0-.93,1.71-.65,3.17s2.57,1.14,2.57,1.14c0,0-.3,2.31,1.19,3.22s3.05,.06,3.77,.72,1.79,2.14,2.57,1.12-.13-2.05,.33-3.06,1.12-1.4,.4-3.83c-.73-2.43-1.82-3.39-1.82-3.39,0,0,1.19-.85,1.02-1.53s-1.26-2.57-1.26-2.57c0,0,1.55-1.41,1.13-2.83s-5.32-3.96-7.78-1.21Z" fill="#115922" stroke="#000" stroke-linejoin="round"/><path d="M247.32,512.41s-2.65-1.86-3.15-3.14-.74-5.32-1.25-6.96-2.15-4.9-2.15-4.9" fill="none" stroke="#033204" stroke-linecap="round" stroke-miterlimit="10"/><polyline points="246.69 506.12 243.44 505.13 240.57 507.86" fill="none" stroke="#033204" stroke-linecap="round" stroke-miterlimit="10"/><path d="M245.61,501.06s-2.69-1.49-3.63-1.14-2.1,2.32-2.1,2.32" fill="none" stroke="#033204" stroke-linecap="round" stroke-miterlimit="10"/></g><g><path d="M213.26,470.48s.16,4.55,1.65,5.11c0,0-1.39,3.1,0,4.31s1.66,.78,1.66,.78l-2.88,1.86s2.79,5.2,8.54,5.38c0,0,.09,3.92,3.84,4.19s4.53-5.06,4.53-5.06c0,0,4.36,.17,3.57-3.75s-2.96-4.23-2.96-4.23c0,0-.26-2.12-2.7-2,0,0-.7-3.45-2.96-3.53s-4.1,.09-4.1,.09c0,0-.87-2.7-2.53-2.61s-2.27,.89-2.27,.89c0,0-.76-1.23-3.39-1.41Z" fill="#115922" stroke="#000" stroke-linejoin="round"/><path d="M218.22,475.18s8.98,7.84,12.38,11.85" fill="none" stroke="#033204" stroke-linecap="round" stroke-miterlimit="10"/><path d="M223.76,486.16s1.43-2.27,3.78-2.36c0,0,0-2.69,1.31-3.7" fill="none" stroke="#033204" stroke-linecap="round" stroke-miterlimit="10"/><path d="M218.91,481.81s3.25-2.26,4.76-1.7c0,0-1.01-2.92,.73-4.06" fill="none" stroke="#033204" stroke-linecap="round" stroke-miterlimit="10"/></g><g><path d="M264.37,529.48s2.04-3.74,1.23-4.81c0,0,2.48-1.9,2.04-3.47s-.83-1.33-.83-1.33l2.96-.27s.45-5.38-3.62-7.97c0,0,1.8-3.2-.79-5s-5.67,2.14-5.67,2.14c0,0-3.07-1.99-4.36,1.5s.14,4.67,.14,4.67c0,0-.82,1.82,1,2.76,0,0-1.13,3.07,.46,4.11s3,1.67,3,1.67c0,0-.65,2.55,.59,3.18s2.06,.25,2.06,.25c0,0-.03,1.31,1.78,2.57Z" fill="#115922" stroke="#000" stroke-linejoin="round"/><path d="M263.02,523.58s-2.77-10.14-3.32-14.82" fill="none" stroke="#033204" stroke-linecap="round" stroke-miterlimit="10"/><path d="M264.22,512.37s-2.11,1.22-3.85,.29c0,0-1.28,2.17-2.7,2.42" fill="none" stroke="#033204" stroke-linecap="round" stroke-miterlimit="10"/><path d="M265.65,517.95s-3.42,.44-4.25-.66c0,0-.65,2.79-2.45,2.96" fill="none" stroke="#033204" stroke-linecap="round" stroke-miterlimit="10"/></g><g><path d="M237.02,494s-2.06-3.17-4.57-2.96-1.26,3.53-2.63,5.58-5.13,1.14-5.42,3.88,.86,3.54,0,5.03-2.37,3.77-.64,9.82c0,0,7.21-2.57,7.32-4.48,0,0,2.47,1.68,3.18,0s.7-3.63,.7-3.63c0,0,1.6-.57,2.06-2.97s-.69-3.31,0-4.23,4.11-.32,4-2.56-4-3.5-4-3.5Z" fill="#115922" stroke="#000" stroke-linejoin="round"/><path d="M225.71,511.93s2.16-6.28,3.14-7.31,4.06-2.63,4.29-4.34,2.06-5.83,4-5.94" fill="none" stroke="#033204" stroke-linecap="round" stroke-miterlimit="10"/><path d="M230.59,509.42s-.44-4.34-1.74-4.8-3.14,.69-3.14,.69" fill="none" stroke="#033204" stroke-linecap="round" stroke-miterlimit="10"/><path d="M233.71,504.52s.09-2.35-1.33-2.83-4.96-1.4-4.96-1.4" fill="none" stroke="#033204" stroke-linecap="round" stroke-miterlimit="10"/><path d="M235.31,499.19s-.05-1.28-1.23-1.69-2.66-.11-2.66-.11" fill="none" stroke="#033204" stroke-linecap="round" stroke-miterlimit="10"/></g></g></svg>