<?xml version="1.0" encoding="UTF-8" standalone="no"?>
<!-- Created with Inkscape (http://www.inkscape.org/) -->

<svg
   xmlns:dc="http://purl.org/dc/elements/1.1/"
   xmlns:cc="http://creativecommons.org/ns#"
   xmlns:rdf="http://www.w3.org/1999/02/22-rdf-syntax-ns#"
   xmlns:svg="http://www.w3.org/2000/svg"
   xmlns="http://www.w3.org/2000/svg"
   xmlns:xlink="http://www.w3.org/1999/xlink"
   xmlns:sodipodi="http://sodipodi.sourceforge.net/DTD/sodipodi-0.dtd"
   xmlns:inkscape="http://www.inkscape.org/namespaces/inkscape"
   width="900"
   height="1045.0044"
   id="svg2"
   version="1.1"
   inkscape:version="0.48.1 "
   sodipodi:docname="Neamt.svg">
  <defs
     id="defs4">
  </defs>
  <sodipodi:namedview
     id="base"
     pagecolor="#ffffff"
     bordercolor="#666666"
     borderopacity="1.0"
     inkscape:pageopacity="0.0"
     inkscape:pageshadow="2"
     inkscape:zoom="0.24548482"
     inkscape:cx="1111.261"
     inkscape:cy="283.34925"
     inkscape:document-units="px"
     inkscape:current-layer="g4660"
     showgrid="false"
     inkscape:snap-bbox="true"
     inkscape:window-width="1280"
     inkscape:window-height="910"
     inkscape:window-x="-8"
     inkscape:window-y="-8"
     inkscape:window-maximized="1"
     fit-margin-top="0"
     fit-margin-left="0"
     fit-margin-right="0"
     fit-margin-bottom="0" />
  <metadata
     id="metadata7">
    <rdf:RDF>
      <cc:Work
         rdf:about="">
        <dc:format>image/svg+xml</dc:format>
        <dc:type
           rdf:resource="http://purl.org/dc/dcmitype/StillImage" />
        <dc:title />
      </cc:Work>
    </rdf:RDF>
  </metadata>
  <g
     inkscape:label="Layer 1"
     inkscape:groupmode="layer"
     id="layer1"
     transform="translate(50.517746,-46.094253)">
    <g
       id="g4724">
      <g
         transform="matrix(1.017924,0,0,1.0157414,0.90552173,-17.175474)"
         id="g4660">
        <path
           style="fill:#fe3931;fill-opacity:1;stroke:#000000;stroke-width:4.03199005;stroke-linecap:butt;stroke-linejoin:miter;stroke-miterlimit:4;stroke-opacity:1;stroke-dasharray:none"
           d="M 391.50924,1089.0395 C 277.28805,1023.0928 158.21352,943.25495 73.073271,807.72535 7.9595108,704.07463 -54.661319,546.79033 -48.018509,369.90208 l 0,-305.594713 c 293.051239,0 586.102469,0 879.153709,0 l 0,305.594713 c 6.64281,176.88825 -55.95342,334.17255 -121.06719,437.82327 -85.14024,135.5296 -204.21458,215.36745 -318.43577,281.31415 l -0.0585,0.041 z"
           id="path6202"
           inkscape:connector-curvature="0"
           sodipodi:nodetypes="csccccsc" />
        <g
           id="g4419"
           style="fill:#d3bc5f"
           transform="translate(-1.3630001,0)">
          <rect
             y="416.57416"
             x="496.88074"
             height="443.44177"
             width="6.2207003"
             id="rect4379"
             style="fill:#d3bc5f;fill-opacity:1;fill-rule:nonzero;stroke:#000000;stroke-width:1;stroke-linecap:round;stroke-linejoin:miter;stroke-miterlimit:4;stroke-opacity:1;stroke-dasharray:none;stroke-dashoffset:0" />
          <path
             sodipodi:nodetypes="ccccccc"
             inkscape:connector-curvature="0"
             id="path3603"
             d="m 496.51291,619.02236 c -5.80807,-26.13229 -22.52157,-70.71996 -36.10827,-68.94111 l 0,-153.38397 -1.89029,0 0,155.36428 c -1.58025,39.32461 25.32386,81.55042 35.98416,79.06871 3.84001,-1.55066 2.60935,-9.41824 2.0144,-12.10791 z"
             style="fill:#d3bc5f;fill-opacity:1;stroke:#000000;stroke-width:1;stroke-linecap:butt;stroke-linejoin:miter;stroke-miterlimit:4;stroke-opacity:1;stroke-dasharray:none" />
          <path
             style="fill:#d3bc5f;fill-opacity:1;stroke:#000000;stroke-width:1;stroke-linecap:butt;stroke-linejoin:miter;stroke-miterlimit:4;stroke-opacity:1;stroke-dasharray:none"
             d="m 497.00313,566.98423 c -2.10342,-25.56572 -18.38266,-74.9771 -32.69845,-73.1028 l 0,-153.38397 -1.89029,0 0,155.36428 c -1.54015,38.32659 20.72295,79.40898 31.32454,79.17205 4.06351,-0.49741 3.48493,-5.31011 3.2642,-8.04956 z"
             id="path3605"
             inkscape:connector-curvature="0"
             sodipodi:nodetypes="ccccccc" />
          <path
             sodipodi:nodetypes="ccccccc"
             inkscape:connector-curvature="0"
             id="path3607"
             d="m 498.03412,507.41984 c -2.17152,-25.52578 -15.01374,-75.38293 -29.40933,-73.49818 l 0,-153.38397 -1.89029,0 0,155.36428 c -1.48887,37.0506 16.46026,76.67657 26.76459,79.05994 4.93262,0.54375 4.79408,-4.45982 4.53503,-7.54207 z"
             style="fill:#d3bc5f;fill-opacity:1;stroke:#000000;stroke-width:1;stroke-linecap:butt;stroke-linejoin:miter;stroke-miterlimit:4;stroke-opacity:1;stroke-dasharray:none" />
          <path
             style="fill:#d3bc5f;fill-opacity:1;stroke:#000000;stroke-width:1;stroke-linecap:butt;stroke-linejoin:miter;stroke-miterlimit:4;stroke-opacity:1;stroke-dasharray:none"
             d="m 498.30909,448.62761 c -0.36799,-24.94565 -12.24866,-67.01132 -25.22833,-65.2539 l 0,-135.16489 -1.66576,0 0,136.90998 c -1.29889,29.91358 9.33905,61.73218 19.67507,68.47031 6.35396,2.96478 7.28983,0.29077 7.21902,-4.9615 z"
             id="path3609"
             inkscape:connector-curvature="0"
             sodipodi:nodetypes="ccccccc" />
          <path
             style="fill:#d3bc5f;fill-opacity:1;stroke:#000000;stroke-width:1;stroke-linecap:butt;stroke-linejoin:miter;stroke-miterlimit:4;stroke-opacity:1;stroke-dasharray:none"
             d="m 503.46928,619.02236 c 5.80807,-26.13229 22.52157,-70.71996 36.10827,-68.94111 l 0,-153.38397 1.89029,0 0,155.36428 c 1.58025,39.32461 -25.32386,81.55042 -35.98416,79.06871 -3.84001,-1.55066 -2.60935,-9.41824 -2.0144,-12.10791 z"
             id="path4411"
             inkscape:connector-curvature="0"
             sodipodi:nodetypes="ccccccc" />
          <path
             sodipodi:nodetypes="ccccccc"
             inkscape:connector-curvature="0"
             id="path4413"
             d="m 502.97906,566.98423 c 2.10342,-25.56572 18.38266,-74.9771 32.69845,-73.1028 l 0,-153.38397 1.89029,0 0,155.36428 c 1.54015,38.32659 -20.72295,79.40898 -31.32454,79.17205 -4.06351,-0.49741 -3.48493,-5.31011 -3.2642,-8.04956 z"
             style="fill:#d3bc5f;fill-opacity:1;stroke:#000000;stroke-width:1;stroke-linecap:butt;stroke-linejoin:miter;stroke-miterlimit:4;stroke-opacity:1;stroke-dasharray:none" />
          <path
             style="fill:#d3bc5f;fill-opacity:1;stroke:#000000;stroke-width:1;stroke-linecap:butt;stroke-linejoin:miter;stroke-miterlimit:4;stroke-opacity:1;stroke-dasharray:none"
             d="m 501.94807,507.41984 c 2.17152,-25.52578 15.01374,-75.38293 29.40933,-73.49818 l 0,-153.38397 1.89029,0 0,155.36428 c 1.48887,37.0506 -16.46026,76.67657 -26.76459,79.05994 -4.93262,0.54375 -4.79408,-4.45982 -4.53503,-7.54207 z"
             id="path4415"
             inkscape:connector-curvature="0"
             sodipodi:nodetypes="ccccccc" />
          <path
             sodipodi:nodetypes="ccccccc"
             inkscape:connector-curvature="0"
             id="path4417"
             d="m 501.6731,448.62761 c 0.36799,-24.94565 12.24866,-67.01132 25.22833,-65.2539 l 0,-135.16489 1.66576,0 0,136.90998 c 1.29889,29.91358 -9.33905,61.73218 -19.67507,68.47031 -6.35396,2.96478 -7.28983,0.29077 -7.21902,-4.9615 z"
             style="fill:#d3bc5f;fill-opacity:1;stroke:#000000;stroke-width:1;stroke-linecap:butt;stroke-linejoin:miter;stroke-miterlimit:4;stroke-opacity:1;stroke-dasharray:none" />
          <path
             sodipodi:nodetypes="ccccccccc"
             inkscape:connector-curvature="0"
             id="path4385"
             transform="translate(-53.415389,65.681017)"
             d="m 552.53125,168.375 0,110.84375 c -17.57272,3.21255 -7.66907,72.08761 -1.1329,75.08185 1.42682,0.40521 3.23739,0.43412 4.22193,-0.1154 6.53417,-4.31222 16.04992,-71.7875 -1.33903,-74.96645 l 0,-110.84375 -0.0937,0 -1.5625,0 z"
             style="fill:#d3bc5f;fill-opacity:1;stroke:#000000;stroke-width:1;stroke-linecap:butt;stroke-linejoin:miter;stroke-miterlimit:4;stroke-opacity:1;stroke-dasharray:none" />
        </g>
        <g
           style="fill:#d3bc5f"
           id="g4431"
           transform="translate(118.637,0)">
          <rect
             style="fill:#d3bc5f;fill-opacity:1;fill-rule:nonzero;stroke:#000000;stroke-width:1;stroke-linecap:round;stroke-linejoin:miter;stroke-miterlimit:4;stroke-opacity:1;stroke-dasharray:none;stroke-dashoffset:0"
             id="rect4449"
             width="6.2207003"
             height="443.44177"
             x="496.88074"
             y="416.57416" />
          <path
             style="fill:#d3bc5f;fill-opacity:1;stroke:#000000;stroke-width:1;stroke-linecap:butt;stroke-linejoin:miter;stroke-miterlimit:4;stroke-opacity:1;stroke-dasharray:none"
             d="m 496.51291,619.02236 c -5.80807,-26.13229 -22.52157,-70.71996 -36.10827,-68.94111 l 0,-153.38397 -1.89029,0 0,155.36428 c -1.58025,39.32461 25.32386,81.55042 35.98416,79.06871 3.84001,-1.55066 2.60935,-9.41824 2.0144,-12.10791 z"
             id="path4433"
             inkscape:connector-curvature="0"
             sodipodi:nodetypes="ccccccc" />
          <path
             sodipodi:nodetypes="ccccccc"
             inkscape:connector-curvature="0"
             id="path4435"
             d="m 497.00313,566.98423 c -2.10342,-25.56572 -18.38266,-74.9771 -32.69845,-73.1028 l 0,-153.38397 -1.89029,0 0,155.36428 c -1.54015,38.32659 20.72295,79.40898 31.32454,79.17205 4.06351,-0.49741 3.48493,-5.31011 3.2642,-8.04956 z"
             style="fill:#d3bc5f;fill-opacity:1;stroke:#000000;stroke-width:1;stroke-linecap:butt;stroke-linejoin:miter;stroke-miterlimit:4;stroke-opacity:1;stroke-dasharray:none" />
          <path
             style="fill:#d3bc5f;fill-opacity:1;stroke:#000000;stroke-width:1;stroke-linecap:butt;stroke-linejoin:miter;stroke-miterlimit:4;stroke-opacity:1;stroke-dasharray:none"
             d="m 498.03412,507.41984 c -2.17152,-25.52578 -15.01374,-75.38293 -29.40933,-73.49818 l 0,-153.38397 -1.89029,0 0,155.36428 c -1.48887,37.0506 16.46026,76.67657 26.76459,79.05994 4.93262,0.54375 4.79408,-4.45982 4.53503,-7.54207 z"
             id="path4437"
             inkscape:connector-curvature="0"
             sodipodi:nodetypes="ccccccc" />
          <path
             sodipodi:nodetypes="ccccccc"
             inkscape:connector-curvature="0"
             id="path4439"
             d="m 498.30909,448.62761 c -0.36799,-24.94565 -12.24866,-67.01132 -25.22833,-65.2539 l 0,-135.16489 -1.66576,0 0,136.90998 c -1.29889,29.91358 9.33905,61.73218 19.67507,68.47031 6.35396,2.96478 7.28983,0.29077 7.21902,-4.9615 z"
             style="fill:#d3bc5f;fill-opacity:1;stroke:#000000;stroke-width:1;stroke-linecap:butt;stroke-linejoin:miter;stroke-miterlimit:4;stroke-opacity:1;stroke-dasharray:none" />
          <path
             sodipodi:nodetypes="ccccccc"
             inkscape:connector-curvature="0"
             id="path4441"
             d="m 503.46928,619.02236 c 5.80807,-26.13229 22.52157,-70.71996 36.10827,-68.94111 l 0,-153.38397 1.89029,0 0,155.36428 c 1.58025,39.32461 -25.32386,81.55042 -35.98416,79.06871 -3.84001,-1.55066 -2.60935,-9.41824 -2.0144,-12.10791 z"
             style="fill:#d3bc5f;fill-opacity:1;stroke:#000000;stroke-width:1;stroke-linecap:butt;stroke-linejoin:miter;stroke-miterlimit:4;stroke-opacity:1;stroke-dasharray:none" />
          <path
             style="fill:#d3bc5f;fill-opacity:1;stroke:#000000;stroke-width:1;stroke-linecap:butt;stroke-linejoin:miter;stroke-miterlimit:4;stroke-opacity:1;stroke-dasharray:none"
             d="m 502.97906,566.98423 c 2.10342,-25.56572 18.38266,-74.9771 32.69845,-73.1028 l 0,-153.38397 1.89029,0 0,155.36428 c 1.54015,38.32659 -20.72295,79.40898 -31.32454,79.17205 -4.06351,-0.49741 -3.48493,-5.31011 -3.2642,-8.04956 z"
             id="path4443"
             inkscape:connector-curvature="0"
             sodipodi:nodetypes="ccccccc" />
          <path
             sodipodi:nodetypes="ccccccc"
             inkscape:connector-curvature="0"
             id="path4445"
             d="m 501.94807,507.41984 c 2.17152,-25.52578 15.01374,-75.38293 29.40933,-73.49818 l 0,-153.38397 1.89029,0 0,155.36428 c 1.48887,37.0506 -16.46026,76.67657 -26.76459,79.05994 -4.93262,0.54375 -4.79408,-4.45982 -4.53503,-7.54207 z"
             style="fill:#d3bc5f;fill-opacity:1;stroke:#000000;stroke-width:1;stroke-linecap:butt;stroke-linejoin:miter;stroke-miterlimit:4;stroke-opacity:1;stroke-dasharray:none" />
          <path
             style="fill:#d3bc5f;fill-opacity:1;stroke:#000000;stroke-width:1;stroke-linecap:butt;stroke-linejoin:miter;stroke-miterlimit:4;stroke-opacity:1;stroke-dasharray:none"
             d="m 501.6731,448.62761 c 0.36799,-24.94565 12.24866,-67.01132 25.22833,-65.2539 l 0,-135.16489 1.66576,0 0,136.90998 c 1.29889,29.91358 -9.33905,61.73218 -19.67507,68.47031 -6.35396,2.96478 -7.28983,0.29077 -7.21902,-4.9615 z"
             id="path4447"
             inkscape:connector-curvature="0"
             sodipodi:nodetypes="ccccccc" />
          <path
             style="fill:#d3bc5f;fill-opacity:1;stroke:#000000;stroke-width:1;stroke-linecap:butt;stroke-linejoin:miter;stroke-miterlimit:4;stroke-opacity:1;stroke-dasharray:none"
             d="m 552.53125,168.375 0,110.84375 c -17.57272,3.21255 -7.66907,72.08761 -1.1329,75.08185 1.42682,0.40521 3.23739,0.43412 4.22193,-0.1154 6.53417,-4.31222 16.04992,-71.7875 -1.33903,-74.96645 l 0,-110.84375 -0.0937,0 -1.5625,0 z"
             transform="translate(-53.415389,65.681017)"
             id="path4451"
             inkscape:connector-curvature="0"
             sodipodi:nodetypes="ccccccccc" />
        </g>
        <g
           transform="translate(238.637,0)"
           id="g4475"
           style="fill:#d3bc5f">
          <rect
             y="416.50125"
             x="496.80783"
             height="316.12769"
             width="6.3665295"
             id="rect4477"
             style="fill:#d3bc5f;fill-opacity:1;fill-rule:nonzero;stroke:#000000;stroke-width:0.85417074;stroke-linecap:round;stroke-linejoin:miter;stroke-miterlimit:4;stroke-opacity:1;stroke-dasharray:none;stroke-dashoffset:0" />
          <path
             sodipodi:nodetypes="ccccccc"
             inkscape:connector-curvature="0"
             id="path4479"
             d="m 496.51291,619.02236 c -5.80807,-26.13229 -22.52157,-70.71996 -36.10827,-68.94111 l 0,-153.38397 -1.89029,0 0,155.36428 c -1.58025,39.32461 25.32386,81.55042 35.98416,79.06871 3.84001,-1.55066 2.60935,-9.41824 2.0144,-12.10791 z"
             style="fill:#d3bc5f;fill-opacity:1;stroke:#000000;stroke-width:1;stroke-linecap:butt;stroke-linejoin:miter;stroke-miterlimit:4;stroke-opacity:1;stroke-dasharray:none" />
          <path
             style="fill:#d3bc5f;fill-opacity:1;stroke:#000000;stroke-width:1;stroke-linecap:butt;stroke-linejoin:miter;stroke-miterlimit:4;stroke-opacity:1;stroke-dasharray:none"
             d="m 497.00313,566.98423 c -2.10342,-25.56572 -18.38266,-74.9771 -32.69845,-73.1028 l 0,-153.38397 -1.89029,0 0,155.36428 c -1.54015,38.32659 20.72295,79.40898 31.32454,79.17205 4.06351,-0.49741 3.48493,-5.31011 3.2642,-8.04956 z"
             id="path4481"
             inkscape:connector-curvature="0"
             sodipodi:nodetypes="ccccccc" />
          <path
             sodipodi:nodetypes="ccccccc"
             inkscape:connector-curvature="0"
             id="path4483"
             d="m 498.03412,507.41984 c -2.17152,-25.52578 -15.01374,-75.38293 -29.40933,-73.49818 l 0,-153.38397 -1.89029,0 0,155.36428 c -1.48887,37.0506 16.46026,76.67657 26.76459,79.05994 4.93262,0.54375 4.79408,-4.45982 4.53503,-7.54207 z"
             style="fill:#d3bc5f;fill-opacity:1;stroke:#000000;stroke-width:1;stroke-linecap:butt;stroke-linejoin:miter;stroke-miterlimit:4;stroke-opacity:1;stroke-dasharray:none" />
          <path
             style="fill:#d3bc5f;fill-opacity:1;stroke:#000000;stroke-width:1;stroke-linecap:butt;stroke-linejoin:miter;stroke-miterlimit:4;stroke-opacity:1;stroke-dasharray:none"
             d="m 498.30909,448.62761 c -0.36799,-24.94565 -12.24866,-67.01132 -25.22833,-65.2539 l 0,-135.16489 -1.66576,0 0,136.90998 c -1.29889,29.91358 9.33905,61.73218 19.67507,68.47031 6.35396,2.96478 7.28983,0.29077 7.21902,-4.9615 z"
             id="path4485"
             inkscape:connector-curvature="0"
             sodipodi:nodetypes="ccccccc" />
          <path
             style="fill:#d3bc5f;fill-opacity:1;stroke:#000000;stroke-width:1;stroke-linecap:butt;stroke-linejoin:miter;stroke-miterlimit:4;stroke-opacity:1;stroke-dasharray:none"
             d="m 503.46928,619.02236 c 5.80807,-26.13229 22.52157,-70.71996 36.10827,-68.94111 l 0,-153.38397 1.89029,0 0,155.36428 c 1.58025,39.32461 -25.32386,81.55042 -35.98416,79.06871 -3.84001,-1.55066 -2.60935,-9.41824 -2.0144,-12.10791 z"
             id="path4487"
             inkscape:connector-curvature="0"
             sodipodi:nodetypes="ccccccc" />
          <path
             sodipodi:nodetypes="ccccccc"
             inkscape:connector-curvature="0"
             id="path4489"
             d="m 502.97906,566.98423 c 2.10342,-25.56572 18.38266,-74.9771 32.69845,-73.1028 l 0,-153.38397 1.89029,0 0,155.36428 c 1.54015,38.32659 -20.72295,79.40898 -31.32454,79.17205 -4.06351,-0.49741 -3.48493,-5.31011 -3.2642,-8.04956 z"
             style="fill:#d3bc5f;fill-opacity:1;stroke:#000000;stroke-width:1;stroke-linecap:butt;stroke-linejoin:miter;stroke-miterlimit:4;stroke-opacity:1;stroke-dasharray:none" />
          <path
             style="fill:#d3bc5f;fill-opacity:1;stroke:#000000;stroke-width:1;stroke-linecap:butt;stroke-linejoin:miter;stroke-miterlimit:4;stroke-opacity:1;stroke-dasharray:none"
             d="m 501.94807,507.41984 c 2.17152,-25.52578 15.01374,-75.38293 29.40933,-73.49818 l 0,-153.38397 1.89029,0 0,155.36428 c 1.48887,37.0506 -16.46026,76.67657 -26.76459,79.05994 -4.93262,0.54375 -4.79408,-4.45982 -4.53503,-7.54207 z"
             id="path4491"
             inkscape:connector-curvature="0"
             sodipodi:nodetypes="ccccccc" />
          <path
             sodipodi:nodetypes="ccccccc"
             inkscape:connector-curvature="0"
             id="path4493"
             d="m 501.6731,448.62761 c 0.36799,-24.94565 12.24866,-67.01132 25.22833,-65.2539 l 0,-135.16489 1.66576,0 0,136.90998 c 1.29889,29.91358 -9.33905,61.73218 -19.67507,68.47031 -6.35396,2.96478 -7.28983,0.29077 -7.21902,-4.9615 z"
             style="fill:#d3bc5f;fill-opacity:1;stroke:#000000;stroke-width:1;stroke-linecap:butt;stroke-linejoin:miter;stroke-miterlimit:4;stroke-opacity:1;stroke-dasharray:none" />
          <path
             sodipodi:nodetypes="ccccccccc"
             inkscape:connector-curvature="0"
             id="path4495"
             transform="translate(-53.415389,65.681017)"
             d="m 552.53125,168.375 0,110.84375 c -17.57272,3.21255 -7.66907,72.08761 -1.1329,75.08185 1.42682,0.40521 3.23739,0.43412 4.22193,-0.1154 6.53417,-4.31222 16.04992,-71.7875 -1.33903,-74.96645 l 0,-110.84375 -0.0937,0 -1.5625,0 z"
             style="fill:#d3bc5f;fill-opacity:1;stroke:#000000;stroke-width:1;stroke-linecap:butt;stroke-linejoin:miter;stroke-miterlimit:4;stroke-opacity:1;stroke-dasharray:none" />
        </g>
        <g
           id="g4602"
           transform="translate(-1152.8208,566.22645)">
          <path
             sodipodi:nodetypes="ccccsc"
             inkscape:connector-curvature="0"
             id="path4521"
             d="m 1216.7237,-321.85552 c -4.4907,0.0994 -1.224,4.77319 -0.031,18.75 2.5727,4.32223 3.7464,5.01197 6.3837,9.32002 0.4007,-0.32055 5.3188,-9.76707 10.2726,-11.13252 -1.9226,-6.56441 -8.8553,-14.11382 -14.1875,-16.3125 -0.8705,-0.35894 -1.6803,-0.5793 -2.4375,-0.625 z"
             style="fill:#2d3234;fill-opacity:1;stroke:#000000;stroke-width:1px;stroke-linecap:butt;stroke-linejoin:miter;stroke-opacity:1" />
          <path
             sodipodi:nodetypes="cccccccccsccccccsc"
             inkscape:connector-curvature="0"
             id="path4508"
             d="m 1166.4128,-41.759487 8.134,-11.03632 c -6.9162,-7.41824 -10.8255,-7.7067 -13.8949,-14.88773 0.01,-3.07045 -0.4089,-5.50771 -1.0802,-7.56119 0.2775,-19.940677 10.5511,-28.385833 17.2659,-40.923603 1.4554,-3.85303 2.53,-3.77352 6.6063,-4.06035 l 9.613,4.29761 c 16.6669,2.74471 33.4127,5.56825 46.8074,5.04079 l -6.301,-25.74402 c 0,0 -29.0474,1.91971 -30.4248,2.34036 -0.6978,0.21309 -13.8503,1.22216 -20.5309,0.23241 -2.3603,-0.89549 -4.0573,0.10576 -6.0016,1.07201 -2.6241,1.30622 -5.2481,2.73997 -7.8722,4.33464 -2.7225,1.16302 -3.5914,3.13521 -4.5908,5.54554 -5.9804,14.44012 -10.0538,29.348856 -18.7131,41.373493 -2.2209,6.80929 -1.1106,6.62251 0.3822,10.04644 5.026,4.92268 8.918,9.4422 11.867,15.84489 2.0921,4.54216 4.4499,9.285 8.7337,14.08503 z"
             style="fill:#2d3234;fill-opacity:1;stroke:#000000;stroke-width:1px;stroke-linecap:butt;stroke-linejoin:miter;stroke-opacity:1" />
          <path
             style="fill:#5f635f;fill-opacity:1;stroke:#000000;stroke-width:1px;stroke-linecap:butt;stroke-linejoin:miter;stroke-opacity:1"
             d="m 1235.2735,-293.07876 c 1.0375,-12.50891 4.9314,-24.70932 8.0376,-34.80585 2.211,-7.14084 4.5326,-13.95645 6.345,-17.9917 1.0111,-2.2513 1.8637,-3.63718 2.4501,-3.73128 3.7886,-0.0122 3.9958,2.8234 4.3207,9.36146 3.3335,-5.28064 2.36,-17.29391 -1.9803,-18.00282 -6.534,-0.15174 -10.4443,6.42986 -14.9423,15.48243 -7.7836,16.12545 -12.6779,30.1153 -16.9227,45.72714 l -0.9902,3.33052"
             id="path4519"
             inkscape:connector-curvature="0"
             sodipodi:nodetypes="ccccccccc" />
          <path
             sodipodi:nodetypes="csscccccc"
             inkscape:connector-curvature="0"
             id="path4517"
             d="m 1250.0471,-297.79795 c 0.6976,-3.80649 3.7856,-15.33745 7.1261,-26.12604 2.211,-7.14083 4.5326,-13.95645 6.345,-17.9917 1.0111,-2.2513 1.8637,-3.63718 2.4501,-3.73128 3.7886,-0.0122 3.9958,2.8234 4.3207,9.36146 3.3335,-5.28064 2.36,-17.29391 -1.9803,-18.00282 -6.534,-0.15174 -10.4443,6.42986 -14.9423,15.48243 -6.4072,13.06012 -10.8958,26.82327 -15.1224,40.68636 l -1.8003,5.04078"
             style="fill:#5f635f;fill-opacity:1;stroke:#000000;stroke-width:1px;stroke-linecap:butt;stroke-linejoin:miter;stroke-opacity:1" />
          <path
             sodipodi:nodetypes="cccccccccccccccccsccccccccccccccccccccccccccccccccccccsc"
             inkscape:connector-curvature="0"
             id="path4514"
             d="m 1275.4948,-318.18095 c -6.5821,0.35623 -17.4459,6.62477 -20.1563,13.125 -4.2551,5.05708 -14.1851,4.25762 -23.875,4.78125 0.5778,-0.24783 1.2045,-0.48075 1.9375,-0.75 1.0823,-0.23264 0.6813,-1.36051 -0.5,-1.71875 -2.7488,-0.83356 -10.9774,-1.52517 -12.9062,-1.875 -2.7,2.17855 -2.7442,3.59154 -4.3126,7.15625 -0.1807,0.41749 -0.3529,0.77311 -0.5312,1.125 -3.8078,0.60004 -7.202,2.09114 -10.3125,4.125 -2.7602,0.56788 -5.1489,1.41805 -6.125,2.125 -0.9768,0.86311 -1.4947,2.18486 -2.125,3.3125 -0.8788,1.66599 -3.1407,3.88598 -10.625,10.5 -9.2212,8.14954 -9.2131,10.00352 -9.5,11.375 -0.239,1.14225 -0.3527,2.95957 0.7813,3.03125 0.9874,0.0625 2.016,-0.40386 3.2812,-0.78125 0.2773,0.16152 0.5634,0.31785 0.875,0.46875 -0.6129,0.19279 -1.2691,0.38379 -1.9375,0.5625 -5.2357,1.39981 -6.9242,3.99611 -4.5,6.75 1.4193,1.61235 2.7692,1.80202 5.375,0.8125 4.7297,-1.79596 6.6092,-2.31926 8.3125,-2.15625 1.0093,0.0966 1.9198,0.3336 2.0938,0.53125 0.2705,0.30736 -6.0596,2.12455 -8.4888,3.91812 -0.4462,0.32955 -3.0299,1.20015 -3.5465,2.2612 -0.7947,1.63172 0.3729,1.8501 1.3263,2.44498 5.7294,1.80084 8.4051,1.80082 15.084,1.90695 3.9384,-1.04539 12.621,-4.35307 16.5937,-6.59375 l 6.0313,0.21875 c 0.8048,22.56108 1.1261,45.15519 3.3437,67.625 -4.599,8.52542 -17.5314,11.75702 -16.5937,23.46875 -2.1003,22.08011 12.1603,39.76954 23.5,57.0625 14.7757,16.776723 33.8912,29.409923 50.25,44.656253 20.72,6.65821 42.4662,10.3473 61.75,21.40625 14.2276,4.27029 27.9268,11.619 42.9062,12.53125 15.1563,-2.35373 14.5986,6.872348 19.4062,18.5937502 9.3612,26.4736958 34.1932,42.9697318 47.5,66.9999998 12.2178,17.939284 12.9761,40.246727 19.5,60.406247 2.0163,13.03698 2.6794,17.69166 4.7188,23.15625 0.5083,1.41089 4.0704,8.92223 17.8125,4.875 -17.223,-22.13127 -5.5178,-44.15975 -9.375,-77.093747 -0.9314,-9.835 -1.1037,-19.937672 -11.625,-24.46875 -10.4466,-16.571363 -13.4683,-38.8511618 -8,-57.8125 3.9858,-19.94875 14.1896,-40.06091 8.2187,-60.6875 -11.4302,-8.8524 -20.9755,-22.16489 -1.125,-27.84375 5.7603,-21.296203 6.2217,-45.993953 21.9688,-63.000003 -18.4747,3.23864 -43.4907,20.17226 -39.5938,41.75 5.1861,26.542713 -25.9113,29.763363 -43.25,19.59375 -25.5414,-11.39566 -53.7947,-20.04827 -74.0937,-40.1875 -21.2729,-11.85977 -27.9963,-40.65817 -53.1563,-45.46875 -15.4597,-19.92897 -8.0476,-46.75505 -9.0312,-67.625 -1.2775,-6.43173 -5.4747,-14.32298 -8.3125,-21.875 0.028,-0.0217 0.065,-0.0408 0.094,-0.0625 -0.051,-0.044 -0.1046,-0.0811 -0.1562,-0.125 -3.8802,-10.40002 -5.1426,-20.15544 7.4062,-24.59375 5.7475,-12.79609 10.3926,-16.14004 6.1876,-17.71875 -0.7297,-0.20722 -1.5598,-0.26964 -2.5,-0.21875 z"
             style="fill:#2d3234;fill-opacity:1;stroke:#000000;stroke-width:1px;stroke-linecap:butt;stroke-linejoin:miter;stroke-opacity:1" />
          <path
             style="fill:#2d3234;fill-opacity:1;stroke:#000000;stroke-width:1px;stroke-linecap:butt;stroke-linejoin:miter;stroke-opacity:1"
             d="m 1251.9843,-134.08843 c 0,0 -25.6512,13.76417 -26.7312,14.71694 -0.5472,0.48267 -12.104,6.84232 -18.5956,8.70488 -2.5193,0.16114 -3.6501,1.77472 -5.0205,3.45874 -2.5629,3.15351 -5.0243,6.53018 -7.3474,10.210926 0.1665,16.994487 3.3202,33.599524 0.1668,49.348513 0.7949,7.118069 1.7285,6.488709 4.504,8.98838 6.6122,2.40254 12.0252,4.907152 17.3587,9.516343 3.7837,3.269812 7.8923,6.612411 13.7781,9.210323 l 2.8398,-13.412595 c -9.3654,-3.892606 -13.0439,-2.538015 -18.809,-7.806017 -1.2611,-2.799538 -2.6507,-4.845179 -4.1114,-6.437005 -7.9965,-18.269207 -2.1368,-30.207875 -1.2101,-44.400322 -0.2689,-4.10995 0.7423,-4.48211 4.3348,-6.42954 l 10.5297,-0.0641 c 17.1642,-1.831206 35.4869,-0.46149 44.6997,-14.774186"
             id="path4512"
             inkscape:connector-curvature="0"
             sodipodi:nodetypes="cscccccscccccccc" />
          <g
             style="stroke:#000000;stroke-width:0.28636178;stroke-miterlimit:4;stroke-opacity:1;stroke-dasharray:none"
             id="g3001"
             transform="matrix(2.6211877,-2.3073883,2.3073883,2.6211877,1085.6336,-170.13049)">
            <g
               style="fill:#666666;stroke:#000000;stroke-width:0.28636178;stroke-miterlimit:4;stroke-opacity:1;stroke-dasharray:none"
               id="Hoofs">
              <path
                 style="stroke:#000000;stroke-width:0.28636178;stroke-miterlimit:4;stroke-opacity:1;stroke-dasharray:none"
                 d="m 22.464919,146.97477 c -0.36938,1.19029 -0.992598,2.32759 -1.480323,3.35308 -0.711594,1.46765 -1.967551,0.46674 -2.136306,0.19177 1.063761,-3.00538 4.142712,-4.62215 4.815162,-7.70093 0.01348,-0.93167 0.100934,-1.42278 0.266821,-1.49853 0.165899,-0.0758 0.416876,0.24078 0.8048,0.98918 0.420394,0.81105 0.921209,1.47788 1.427595,1.84289 l 0.808048,0.5917 -0.138639,2.75463 c -0.115792,2.70404 -0.118947,2.75649 -0.964584,3.26153 -1.646037,0.82127 -3.355501,0.83721 -5.123982,0.67275 0.858097,-1.65521 1.771118,-3.1219 2.15369,-5.02944 -0.165157,-0.0832 -0.342829,0.28317 -0.432282,0.57137 z"
                 id="path4856"
                 inkscape:connector-curvature="0" />
              <path
                 style="stroke:#000000;stroke-width:0.28636178;stroke-miterlimit:4;stroke-opacity:1;stroke-dasharray:none"
                 d="m -7.5938868,46.889336 c -0.066143,-0.151645 -0.038759,-0.488355 -0.00323,-1.020289 0.0045,-1.846762 0.6915603,-4.388744 0.6915603,-4.388744 l 1.2804235,-0.07104 c 1.0628732,-0.204708 1.6763778,-0.0043 2.5723763,0.478104 1.3316578,5.670795 -0.075875,4.888859 -3.1454649,5.963315 -0.515221,-1.824907 0.5222778,-5.744011 -0.099423,-6.025813 -0.3359904,1.835194 -0.093282,5.564363 -1.2962447,5.064469 z"
                 id="path4854"
                 inkscape:connector-curvature="0" />
              <path
                 style="stroke:#000000;stroke-width:0.28636178;stroke-miterlimit:4;stroke-opacity:1;stroke-dasharray:none"
                 d="m 1.4261607,54.830348 c 0.1669989,-0.235963 2.3773698,-0.576303 2.621091,-0.403839 0.3369422,0.238448 1.8408977,2.406024 2.2008163,3.16539 0.18694,0.394374 0.2866093,0.943141 0.2342948,1.237748 C 6.3697946,59.463506 6.0011802,60.413473 5.2548294,60.564232 3.9945612,60.818803 3.682105,60.739744 3.4482528,59.695601 3.075894,58.321387 2.5345454,56.23593 2.2098703,56.265488 2.4540775,57.595173 3.7329021,60.555545 3.1160434,60.773418 2.99227,60.948335 2.0828129,59.487738 1.9708954,58.92936 1.9350925,58.750631 1.8485782,58.428747 1.782528,58.221801 1.566412,57.544711 1.1184982,54.931631 1.4261607,54.830348 z"
                 id="path4852"
                 inkscape:connector-curvature="0" />
            </g>
            <g
               style="stroke:#000000;stroke-width:0.14318089;stroke-miterlimit:4;stroke-opacity:1;stroke-dasharray:none"
               transform="translate(1.8552446,-4.1361377)"
               id="Eye">
              <path
                 d="m 49.719524,5.4458663 c 0.646699,0.5622881 0.560305,1.1737419 1.280189,1.7350459 0.629544,0.4910684 1.324265,0.2522694 2.226975,0.7309143 C 51.927099,6.9662982 52.585349,6.2670129 51.912757,5.7217223 51.156161,5.1084844 50.550683,5.8990856 49.719524,5.4458663 z"
                 style="fill:#ffffff;stroke:#000000;stroke-width:0.14318089;stroke-miterlimit:4;stroke-opacity:1;stroke-dasharray:none"
                 id="path4169"
                 inkscape:connector-curvature="0" />
              <path
                 d="m 51.974003,5.936063 c 0.706416,1.4012251 -0.316466,1.9632919 -1.340822,0.710472 0.844367,0.1659994 1.138986,-0.025528 1.340822,-0.710472 z"
                 style="fill:#2d3234;fill-opacity:1;stroke:#000000;stroke-width:0.14318089;stroke-miterlimit:4;stroke-opacity:1;stroke-dasharray:none"
                 id="use2125"
                 inkscape:connector-curvature="0" />
            </g>
          </g>
        </g>
        <g
           id="g4646">
          <path
             inkscape:connector-curvature="0"
             id="path4579"
             transform="translate(-53.415389,65.681017)"
             d="m 180.0625,471.375 -15.84375,5.78125 -6.46875,9.34375 -10.09375,5.0625 -0.71875,25.1875 -18,7.9375 -19.4375,-2.90625 -5.03125,25.9375 c 0,0 2.1576,34.5516 1.4375,40.3125 -0.7202,5.7609 -6.5,23.0625 -6.5,23.0625 l -12.25,3.59375 c 0,0 -3.677704,23.43746 -6.59375,43.09375 14.52708,30.90623 30.16994,59.15056 45.9375,84.25 77.84658,123.91926 184.0637,201.27736 289,264.03125 l 0,-288.15625 -10.6875,-1.53125 -45.84375,-0.5 -4.5625,-4.59375 -14.25,-14.25 -10.1875,-10.1875 -12.21875,-0.5 -14.90625,-12.25 -10.8125,-19.8125 -15.46875,2.53125 -1.8125,40.34375 -3.9375,3.59375 -1.46875,16.5625 -14.375,-2.875 L 251,694.25 c 0,0 -10.4375,-33.83966 -10.4375,-36 0,-2.16034 -2.15625,-33.46875 -2.15625,-33.46875 l -11.1875,-18 -18.34375,-53.3125 -0.71875,-34.5625 -15.125,5.0625 -3.59375,-40.34375 -9.375,-12.25 z"
             style="fill:#ffffff;stroke:#000000;stroke-width:2;stroke-linecap:butt;stroke-linejoin:miter;stroke-miterlimit:4;stroke-opacity:1;stroke-dasharray:none" />
          <path
             sodipodi:nodetypes="cccccccccccc"
             inkscape:connector-curvature="0"
             id="path4581"
             d="m 45.4261,676.94174 3.0913,7.3902 2.8805,41.40647 7.2011,1.08017 2.5204,42.12658 9.7215,-13.32208 -2.5204,-39.96625 16.2026,-13.32208 -11.5218,1.80028 2.1603,-27.72433 -24.7022,-0.96823 z"
             style="fill:#000000;stroke:#000000;stroke-width:1px;stroke-linecap:butt;stroke-linejoin:miter;stroke-opacity:1" />
          <path
             inkscape:connector-curvature="0"
             id="path4583"
             d="m 155.0802,618.7955 -6.0938,1.09375 1.0626,41.03125 24.8437,13.34375 c 0,0 -4.6875,43.55705 -4.6875,46.4375 0,2.88045 1.4375,47.53125 1.4375,47.53125 l 15.125,32.03125 5.0625,40.6875 c 0,0 1.4375,13.31522 1.4375,11.875 0,-1.44023 -0.375,-72.375 -0.375,-72.375 l 8.1563,-2.90625 -3.4688,-17.59375 c 0,0 -10.4375,-33.83966 -10.4375,-36 0,-2.16033 -2.1563,-33.5 -2.1563,-33.5 l -11.1562,-18 -18.375,-53.28125 0,-0.1875 -0.375,-0.1875 z m 93.9062,120.1875 c -0.017,0.0686 -0.2812,1.15625 -0.2812,1.15625 l 1.8125,14.75 c 0,0 4.3125,0.73097 4.3125,2.53125 0,1.80028 2.125,64.875 2.125,64.875 l 9.6562,37.40625 11.4688,85.3125 1,-180.78125 2.8438,-6.34375 -5.375,-5.375 -12.2188,-0.5 -14.9062,-12.21875 -0.4376,-0.8125 z"
             style="fill:#000000;stroke:#000000;stroke-width:1px;stroke-linecap:butt;stroke-linejoin:miter;stroke-opacity:1" />
          <path
             inkscape:connector-curvature="0"
             id="path4588"
             d="m 93.615,582.45438 17.44,12.22072 11.2023,15.40319"
             style="fill:none;stroke:#000000;stroke-width:2;stroke-linecap:butt;stroke-linejoin:miter;stroke-miterlimit:4;stroke-opacity:1;stroke-dasharray:none" />
          <path
             inkscape:connector-curvature="0"
             id="path4590"
             d="m 123.0211,634.64702 -2.2914,13.49371 -9.6747,6.11035 -14.2575,23.42304 -2.0368,20.62246 -8.9109,3.30977 -1.5276,0.7638"
             style="fill:none;stroke:#000000;stroke-width:2;stroke-linecap:butt;stroke-linejoin:miter;stroke-miterlimit:4;stroke-opacity:1;stroke-dasharray:none" />
          <path
             inkscape:connector-curvature="0"
             id="path4592"
             d="m 124.8033,692.95002 7.6379,16.80348 19.8587,15.27589 -22.4047,66.70473 -1.5275,8.14715"
             style="fill:none;stroke:#000000;stroke-width:2;stroke-linecap:butt;stroke-linejoin:miter;stroke-miterlimit:4;stroke-opacity:1;stroke-dasharray:none" />
          <path
             inkscape:connector-curvature="0"
             id="path4594"
             d="m 233.5167,984.2422 c 0.2546,-2.48233 1.273,-12.25254 1.273,-12.25254 l -12.7299,-26.47821 0,-12.72991"
             style="fill:none;stroke:#000000;stroke-width:2;stroke-linecap:butt;stroke-linejoin:miter;stroke-miterlimit:4;stroke-opacity:1;stroke-dasharray:none"
             sodipodi:nodetypes="cccc" />
          <path
             sodipodi:nodetypes="cccc"
             inkscape:connector-curvature="0"
             id="path4596"
             d="m 217.477,919.03323 c 0,-3.05518 -0.5092,-22.40464 -0.5092,-22.40464 l -23.9322,-43.79089 -0.6365,-12.72992"
             style="fill:none;stroke:#000000;stroke-width:2;stroke-linecap:butt;stroke-linejoin:miter;stroke-miterlimit:4;stroke-opacity:1;stroke-dasharray:none" />
          <path
             inkscape:connector-curvature="0"
             id="path4598"
             d="m 121.7481,833.99743 0,17.31268 -9.0285,13.70995"
             style="fill:none;stroke:#000000;stroke-width:2;stroke-linecap:butt;stroke-linejoin:miter;stroke-miterlimit:4;stroke-opacity:1;stroke-dasharray:none"
             sodipodi:nodetypes="ccc" />
          <path
             inkscape:connector-curvature="0"
             id="path4600"
             d="m 282.6542,984.21038 -0.5092,28.51502"
             style="fill:none;stroke:#000000;stroke-width:2;stroke-linecap:butt;stroke-linejoin:miter;stroke-miterlimit:4;stroke-opacity:1;stroke-dasharray:none" />
        </g>
        <path
           inkscape:connector-curvature="0"
           style="fill:#d3bc5f;fill-opacity:1;fill-rule:nonzero;stroke:#000000;stroke-width:2;stroke-linecap:round;stroke-linejoin:miter;stroke-miterlimit:4;stroke-opacity:1;stroke-dasharray:none;stroke-dashoffset:0"
           d="m 412.125,-1.375 0,1005.4375 c 10.95744,6.5843 21.90977,12.9865 32.8125,19.2813 l 0.0625,0.062 0.0625,-0.062 c 10.88335,-6.2837 21.81208,-12.6781 32.75,-19.25 l 0,-1005.4688 -65.6875,0 z"
           transform="translate(-53.415389,65.681017)"
           id="rect4497" />
        <path
           sodipodi:nodetypes="csccccsc"
           inkscape:connector-curvature="0"
           id="path4658"
           d="M 391.50924,1089.0395 C 277.28805,1023.0928 158.21352,943.25495 73.073271,807.72535 7.9595108,704.07463 -54.661319,546.79033 -48.018509,369.90208 l 0,-305.594713 c 293.051239,0 586.102469,0 879.153709,0 l 0,305.594713 c 6.64281,176.88825 -55.95342,334.17255 -121.06719,437.82327 -85.14024,135.5296 -204.21458,215.36745 -318.43577,281.31415 l -0.0585,0.041 z"
           style="fill:none;stroke:#000000;stroke-width:4.03199005;stroke-linecap:butt;stroke-linejoin:miter;stroke-miterlimit:4;stroke-opacity:1;stroke-dasharray:none" />
      </g>
    </g>
  </g>
</svg>
