<?xml version="1.0" encoding="UTF-8" standalone="no"?><svg xmlns="http://www.w3.org/2000/svg" width="770.68" height="848.32" viewBox="0 0 770.67518 848.32224" xmlns:xlink="http://www.w3.org/1999/xlink"><g transform="translate(-2.357-109.88)"><path d="m4.26 111.38c0 0-.049 56.722 0 85.08.092 52.856-1.269 105.74.553 158.57 1.164 33.755 2.332 67.61 6.631 101.11 4.225 32.923 9.244 66 18.785 97.79 16.851 56.15 37.518 112 67.4 162.44 23.842 40.23 54.29 76.82 87.85 109.39 32.775 31.813 70.74 58.18 109.35 82.58 29.505 18.642 92.86 48.36 92.86 48.36 0 0 63.36-29.722 92.86-48.36 38.615-24.397 76.58-50.765 109.35-82.58 33.558-32.573 64-69.16 87.85-109.39 29.886-50.43 50.556-106.29 67.41-162.44 9.541-31.793 14.56-64.87 18.785-97.79 4.299-33.5 5.465-67.35 6.629-101.11 1.822-52.825.461-105.71.553-158.57.049-28.362 0-85.08 0-85.08h-383.43-383.44" fill="#fd2016" fill-rule="evenodd"/><g stroke="#000"><g fill="#fff"><g stroke-linejoin="round" stroke-linecap="round" stroke-width="3"><circle cx="231.6" cy="766.56" r="10.03"/><circle cx="216.86" cy="683.2" r="10.03"/><circle cx="255.99" cy="697.38" r="10.03"/></g><g transform="matrix(-1 0 0 1-441.72 0)"><path d="m-686.99 165.25l-39.82 25.889 39.82-.207 39.82.207-39.82-25.889z" transform="matrix(-1 0 0 1-1205.48 0)" fill="#fff" fill-rule="evenodd" stroke="#000" stroke-width="3" id="0"/><use xlink:href="#0" transform="matrix(-1 0 0 1-1205.48 0)"/></g><g stroke-linecap="square"><path d="m273.99 249.41l30.09 87.58h-87.53v-87.58h57.44z" stroke-width="3"/><g transform="scale(-1 1)"><path d="m-250.04 318.61h19.742v9.694h-19.742z"/><path d="m-269.78 318.61h19.742v9.694h-19.742z"/></g><path d="m277.77 260.44l3.332 9.695h-11.326v-9.695h7.994zm-47.48 0v9.695h-13.748v-9.695h13.748zm0 19.389v9.695h-13.748v-9.695h13.748zm57.47 9.695l3.332 9.695h-11.449v-9.695h8.117zm-57.47 9.695v9.693h-13.748v-9.693h13.748zm67.46 19.389l3.332 9.695h-11.57v-9.695h8.238zm-67.46 0v9.695h-13.748v-9.695h13.748z"/><g transform="scale(-1 1)"><path d="m-289.52 318.61h19.741v9.694h-19.741z"/><path d="m-240.17 328.3h19.742v9.695h-19.742z"/><path d="m-259.91 328.3h19.742v9.695h-19.742z"/></g><path d="m274.44 250.75l3.33 9.693h-17.865v-9.693h14.535zm-54.02 0v9.693h-3.877v-9.693h3.877zm60.682 19.389l3.33 9.693h-4.787v-9.693h1.457zm-60.682 0v9.693h-3.877v-9.693h3.877zm0 19.389v9.695h-3.877v-9.695h3.877zm70.67 9.695l3.33 9.693h-4.908v-9.693h1.578zm-70.67 9.693v9.695h-3.877v-9.695h3.877zm80.67 19.391l2.986 8.693h-4.686v-8.693h1.699zm-80.67 0v8.693h-3.877v-8.693h3.877z"/><g transform="scale(-1 1)"><path d="m-279.65 328.3h19.741v9.695h-19.741z"/><path d="m-299.39 328.3h19.742v9.695h-19.742z"/><path d="m-240.17 308.91h19.742v9.695h-19.742z"/><path d="m-259.91 308.91h19.742v9.695h-19.742z"/><path d="m-279.65 308.91h19.742v9.695h-19.742z"/></g><path d="m284.44 279.83l3.33 9.695h-17.986v-9.695h14.656zm9.992 29.08l3.33 9.695h-18.11v-9.695h14.779z"/><g transform="scale(-1 1)"><path d="m-250.04 299.22h19.742v9.695h-19.742z"/><path d="m-269.78 299.22h19.742v9.695h-19.742z"/><path d="m-289.52 299.22h19.741v9.695h-19.741z"/><path d="m-240.17 289.52h19.742v9.694h-19.742z"/><path d="m-259.91 289.52h19.742v9.694h-19.742z"/><path d="m-279.65 289.52h19.742v9.694h-19.742z"/><path d="m-250.04 279.83h19.742v9.695h-19.742z"/><path d="m-269.78 279.83h19.742v9.695h-19.742z"/><path d="m-240.17 270.13h19.742v9.694h-19.742z"/><path d="m-259.91 270.13h19.742v9.694h-19.742z"/><path d="m-279.65 270.13h19.742v9.694h-19.742z"/><path d="m-250.04 260.44h19.742v9.695h-19.742z"/><path d="m-269.78 260.44h19.742v9.695h-19.742z"/><path d="m-240.17 250.75h19.742v9.694h-19.742z"/><path d="m-259.91 250.75h19.742v9.694h-19.742z"/></g></g></g><g stroke-linecap="round"><path d="m321.27 111.38v276.75h-315.2c1.01 22.739 2.475 45.46 5.369 68.01 2.783 21.683 5.919 43.43 10.455 64.836h299.37v402.51c30.379 16.311 66.42 33.22 66.42 33.22 0 0 36.04-16.91 66.42-33.22v-402.51h299.37c4.536-21.406 7.673-43.15 10.455-64.836 2.895-22.557 4.358-45.27 5.367-68.01h-315.2v-276.75h-66.42-66.42z" fill="#005694" stroke-linejoin="round" stroke-width="3"/><g fill="#ffdc00" stroke-width="2"><path d="m336.53 695.99h102.34v36.595h-102.34z"/><path d="m381.1 695.99h13.191v18.08h-13.191z"/><path d="m361.98 622.17l-26.09 59.998h103.61l-26.09-59.998h-51.43z"/></g></g><g fill="#ffdc00"><g stroke-width="2"><path d="m335.89 682.16l-10.211 10 10.85 3.83h44.572 13.191 44.572l10.85-3.83-10.211-10h-103.61z" fill-rule="evenodd"/><path stroke-linecap="round" d="m361.98 595.15h51.43v27.02h-51.43z"/><path d="m349.08 582.81l12.902 12.34h25.713 25.713l12.902-12.34h-38.615-38.615z" fill-rule="evenodd"/><path stroke-linecap="round" d="m347.91 546.85h79.57v35.957h-79.57z"/></g><g fill-rule="evenodd"><path d="m347.91 568.43h79.57" stroke-width="3"/><path d="m347.91 564.03h79.57" stroke-width="1.7"/></g><g stroke-linecap="round"><path d="m363.6748 549.61024a7.522115 5.090547 0 0 0 -7.52148 5.08984v9.328h15.04v-9.328a7.522115 5.090547 0 0 0 -7.52344 -5.08984zm24.01758 0a7.522115 5.090547 0 0 0 -7.52148 5.08984v9.328h15.04v-9.328a7.522115 5.090547 0 0 0 -7.52344 -5.08984zm24.01953 0a7.522115 5.090547 0 0 0 -7.52148 5.08984v9.328h15.04v-9.328a7.522115 5.090547 0 0 0 -7.52344 -5.08984z" stroke-width="1.7"/><g stroke-width="2"><path d="m348.49 513.24h8.297v33.615h-8.297z"/><path d="m418.6 513.24h8.297v33.615h-8.297z"/></g></g><g fill-rule="evenodd" stroke-width="2"><path d="m339.92 546.85l26.19-20.81h21.731 21.731l25.921 20.81z"/><path d="m420.19 444.76v10.922h-9.574v5.105h9.574v15.82l-7.596 36.625h10.148 10.15l-7.596-36.617v-15.828h9.574v-5.105h-9.574v-10.922h-5.107z"/><path d="m350.09 444.76v10.922h-9.574v5.105h9.574v15.82l-7.596 36.625h10.148 10.15l-7.596-36.617v-15.828h9.574v-5.105h-9.574v-10.922h-5.107z"/><path d="m385.07 179.98v11.221h-8.25v5.252h8.25v12.182a7.738975 7.738975 0 0 0 -5.11133 7.26758 7.738975 7.738975 0 0 0 7.28125 7.7168l-21.273 302.42h21.73 21.73l-21.273-302.41a7.738975 7.738975 0 0 0 7.28125 -7.72266 7.738975 7.738975 0 0 0 -5.11132 -7.27148v-12.178h8.25v-5.252h-8.25v-11.221h-5.254z"/><g transform="translate(.306)" stroke-linecap="square"><path d="m394.42 526.04l-6.875-298.14"/><path d="m380.36 526.04l6.875-298.14"/></g></g></g><g stroke-linecap="square"><g fill="#fff"><path d="m106.72 226.56c-.684 0-1.234.551-1.234 1.234v15.287c0 .684.551 1.234 1.234 1.234h11.377c.684 0 1.234-.551 1.234-1.234v-15.287c0-.684-.551-1.234-1.234-1.234h-11.377zm24.303 0c-.684 0-1.234.551-1.234 1.234v15.287c0 .684.551 1.234 1.234 1.234h11.377c.684 0 1.234-.551 1.234-1.234v-15.287c0-.684-.551-1.234-1.234-1.234h-11.377zm24.303 0c-.684 0-1.232.551-1.232 1.234v15.287c0 .684.549 1.234 1.232 1.234h11.379c.684 0 1.234-.551 1.234-1.234v-15.287c0-.684-.551-1.234-1.234-1.234h-11.379zm24.305 0c-.684 0-1.234.551-1.234 1.234v15.287c0 .684.551 1.234 1.234 1.234h11.377c.684 0 1.234-.551 1.234-1.234v-15.287c0-.684-.551-1.234-1.234-1.234h-11.377zm24.303 0c-.684 0-1.234.551-1.234 1.234v15.287c0 .684.551 1.234 1.234 1.234h11.379c.684 0 1.232-.551 1.232-1.234v-15.287c0-.684-.549-1.234-1.232-1.234h-11.379z" stroke-width="2"/><path d="m151.15 259.87h19.742v9.695h-19.742z"/><path d="m170.89 259.87h19.742v9.695h-19.742z"/><path d="m131.41 259.87h19.741v9.695h-19.741z"/><path d="m111.66 259.87h19.742v9.695h-19.742z"/><path d="m190.63 259.87h19.741v9.695h-19.741z"/><path d="m105.49 259.87v9.695h6.176v-9.695h-6.176zm104.88 0v9.695h6.176v-9.695h-6.176zm-104.88 19.389v9.695h6.176v-9.695h-6.176zm104.88 0v9.695h6.176v-9.695h-6.176zm-104.88 19.391v9.693h6.176v-9.693h-6.176zm104.88 0v9.693h6.176v-9.693h-6.176zm-104.88 19.389v9.693h6.176v-9.693h-6.176zm104.88 0v9.693h6.176v-9.693h-6.176z"/><path d="m141.28 250.18h19.742v9.695h-19.742z"/><path d="m161.02 250.18h19.742v9.695h-19.742z"/><path d="m121.53 250.18h19.741v9.695h-19.741z"/><path d="m105.49 250.18v9.695h16.05v-9.695h-16.05zm95.01 0v9.695h16.04v-9.695h-16.04zm-95.01 19.391v9.693h16.05v-9.693h-16.05zm95.01 0v9.693h16.04v-9.693h-16.04zm-95.01 19.389v9.695h16.05v-9.695h-16.05zm95.01 0v9.695h16.04v-9.695h-16.04zm-95.01 19.389v9.695h16.05v-9.695h-16.05zm95.01 0v9.695h16.04v-9.695h-16.04zm-95.01 19.389v9.695h16.05v-9.695h-16.05zm95.01 0v9.695h16.04v-9.695h-16.04z"/><path d="m180.76 250.18h19.742v9.695h-19.742z"/><path d="m151.15 279.26h19.742v9.695h-19.742z"/><path d="m170.89 279.26h19.742v9.695h-19.742z"/><path d="m131.41 279.26h19.741v9.695h-19.741z"/><path d="m111.66 279.26h19.742v9.695h-19.742z"/><path d="m190.63 279.26h19.741v9.695h-19.741z"/><path d="m141.28 269.57h19.742v9.694h-19.742z"/><path d="m161.02 269.57h19.742v9.694h-19.742z"/><path d="m121.53 269.57h19.741v9.694h-19.741z"/><path d="m180.76 269.57h19.742v9.694h-19.742z"/><path d="m151.15 298.65h19.742v9.695h-19.742z"/><path d="m170.89 298.65h19.742v9.695h-19.742z"/><path d="m131.41 298.65h19.741v9.695h-19.741z"/><path d="m111.66 298.65h19.742v9.695h-19.742z"/><path d="m190.63 298.65h19.741v9.695h-19.741z"/><path d="m141.28 288.96h19.742v9.694h-19.742z"/><path d="m161.02 288.96h19.742v9.694h-19.742z"/><path d="m121.53 288.96h19.741v9.694h-19.741z"/><path d="m180.76 288.96h19.742v9.694h-19.742z"/><path d="m151.15 318.04h19.742v9.694h-19.742z"/><path d="m170.89 318.04h19.742v9.694h-19.742z"/><path d="m131.41 318.04h19.741v9.694h-19.741z"/><path d="m111.66 318.04h19.742v9.694h-19.742z"/><path d="m190.63 318.04h19.741v9.694h-19.741z"/><path d="m141.28 308.35h19.742v9.695h-19.742z"/><path d="m161.02 308.35h19.742v9.695h-19.742z"/><path d="m121.53 308.35h19.741v9.695h-19.741z"/><path d="m180.76 308.35h19.742v9.695h-19.742z"/><path d="m141.28 327.74h19.742v9.695h-19.742z"/><path d="m161.02 327.74h19.742v9.695h-19.742z"/><path d="m121.53 327.74h19.741v9.695h-19.741z"/><path d="m180.76 327.74h19.742v9.695h-19.742z"/></g><path d="m133.27 278.3c-9.931 0-17.983 8.77-17.982 14.654v44.47h35.963v-44.47c0-5.884-8.05-14.654-17.98-14.654zm55.5 0c-9.931 0-17.983 8.77-17.982 14.654v44.47h35.963v-44.47c0-5.884-8.05-14.654-17.98-14.654z"/><g fill="#fff"><path d="m71.998 318.61h19.742v9.694h-19.742z"/><path d="m52.26 318.61h19.742v9.694h-19.742z"/><path d="m44.26 260.44l-3.332 9.695h11.326v-9.695h-7.994zm47.48 0v9.695h13.748v-9.695h-13.748zm0 19.389v9.695h13.748v-9.695h-13.748zm-57.47 9.695l-3.332 9.695h11.449v-9.695h-8.117zm57.47 9.695v9.693h13.748v-9.693h-13.748zm-67.46 19.389l-3.332 9.695h11.57v-9.695h-8.238zm67.46 0v9.695h13.748v-9.695h-13.748z"/><path d="m32.514 318.61h19.742v9.694h-19.742z"/><g transform="translate(770.82 29.357)"><path d="m-688.95 298.94h19.742v9.695h-19.742z"/><path d="m-708.69 298.94h19.742v9.695h-19.742z"/><path d="m-716.17 251.8l-3.33 9.693h17.865v-9.693h-14.535zm54.02 0v9.693h3.877v-9.693h-3.877zm-60.682 19.389l-3.33 9.693h4.787v-9.693h-1.457zm60.682 0v9.693h3.877v-9.693h-3.877zm0 19.389v9.695h3.877v-9.695h-3.877zm-70.67 9.695l-3.33 9.693h4.908v-9.693h-1.578zm70.67 9.693v9.695h3.877v-9.695h-3.877zm-80.67 19.391l-2.986 8.693h4.686v-8.693h-1.699zm80.67 0v8.693h3.877v-8.693h-3.877z" transform="translate(-7.06-30.414)"/><path d="m-728.43 298.94h19.742v9.695h-19.742z"/><path d="m-748.17 298.94h19.741v9.695h-19.741z"/></g><path d="m81.87 308.91h19.741v9.695h-19.741z"/><path d="m62.13 308.91h19.742v9.695h-19.742z"/><path d="m42.39 308.91h19.742v9.695h-19.742z"/><path d="m37.599 279.83l-3.33 9.695h17.986v-9.695h-14.656zm-9.992 29.08l-3.33 9.695h18.11v-9.695h-14.779z"/><path d="m71.998 299.22h19.742v9.695h-19.742z"/><path d="m52.26 299.22h19.742v9.695h-19.742z"/><path d="m32.514 299.22h19.742v9.695h-19.742z"/><path d="m81.87 289.52h19.741v9.694h-19.741z"/><path d="m62.13 289.52h19.742v9.694h-19.742z"/><path d="m42.39 289.52h19.742v9.694h-19.742z"/><path d="m71.998 279.83h19.742v9.695h-19.742z"/><path d="m52.26 279.83h19.742v9.695h-19.742z"/><path d="m81.87 270.13h19.741v9.694h-19.741z"/><path d="m62.13 270.13h19.742v9.694h-19.742z"/><path d="m42.39 270.13h19.742v9.694h-19.742z"/><path d="m71.998 260.44h19.742v9.695h-19.742z"/><path d="m52.26 260.44h19.742v9.695h-19.742z"/><path d="m81.87 250.75h19.741v9.694h-19.741z"/><path d="m62.13 250.75h19.742v9.694h-19.742z"/><path d="m48.05 200.78v9.852h4.207v-9.852h-4.207zm43.691 0v9.852h13.748v-9.852h-13.748zm-43.691 19.705v9.852h4.207v-9.852h-4.207zm43.691 0v9.852h13.748v-9.852h-13.748zm-43.691 19.705v9.221h4.207v-9.221h-4.207zm43.691 0v9.221h13.748v-9.221h-13.748z"/><g transform="translate(0 .7)"><path d="m62.13 230.34h19.742v9.853h-19.742z"/><path d="m81.87 230.34h19.741v9.853h-19.741z"/><path d="m52.26 220.49h19.742v9.852h-19.742z"/><path d="m71.998 220.49h19.742v9.852h-19.742z"/><path d="m62.13 210.63h19.742v9.853h-19.742z"/><path d="m81.87 210.63h19.741v9.853h-19.741z"/><path d="m52.26 200.78h19.742v9.852h-19.742z"/><path d="m71.998 200.78h19.742v9.852h-19.742z"/><path d="m48.05 191.14v9.646h14.08v-9.646h-14.08zm53.56 0v9.646h3.877v-9.646h-3.877zm-53.56 19.498v9.854h14.08v-9.854h-14.08zm53.56 0v9.854h3.877v-9.854h-3.877zm-53.56 19.705v9.854h14.08v-9.854h-14.08zm53.56 0v9.854h3.877v-9.854h-3.877z"/><path d="m62.13 190.93h19.742v9.853h-19.742z"/><path d="m81.87 190.93h19.741v9.853h-19.741z"/></g></g></g><g fill="#fff"><g fill-rule="evenodd" stroke-width="2"><path d="m76.77 165.25l-14.641 25.682"/><path d="m76.77 165.25l14.641 25.682"/><path d="m76.77 165.25v25.682"/></g><g stroke-linecap="square"><path d="m273.99 191.84v9.646h-14.08v-9.646h14.08zm-53.56 0v9.646h-3.877v-9.646h3.877zm53.56 19.498v9.854h-14.08v-9.854h14.08zm-53.56 0v9.854h-3.877v-9.854h3.877zm53.56 19.705v9.854h-14.08v-9.854h14.08zm-53.56 0v9.854h-3.877v-9.854h3.877z"/><g transform="matrix(-1 0 0 1 0 .7)"><path d="m-269.78 220.49h19.742v9.852h-19.742z"/><path d="m-250.04 220.49h19.742v9.852h-19.742z"/><path d="m-259.91 210.63h19.742v9.853h-19.742z"/><path d="m-240.17 210.63h19.742v9.853h-19.742z"/></g><g transform="scale(-1 1)"><path d="m-269.78 201.48h19.742v9.852h-19.742z"/><path d="m-250.04 201.48h19.742v9.852h-19.742z"/><path d="m-259.91 191.63h19.742v9.853h-19.742z"/><path d="m-240.17 191.63h19.742v9.853h-19.742z"/></g></g><g fill-rule="evenodd" stroke-width="2"><path d="m245.27 165.25l14.641 25.682"/><path d="m245.27 165.25l-14.641 25.682"/><path d="m245.27 165.25v25.682"/></g><g stroke-linecap="square"><path d="m105.49 244.31v5.863h6.174v-5.863h-6.174zm103.04 0v5.863h8.02v-5.863h-8.02z"/><path d="m131.4 244.31v5.863h19.742v-5.863h-19.742z"/><path d="m151.15 244.32v5.863h19.742v-5.863h-19.742z"/><path d="m170.89 244.32v5.863h19.742v-5.863h-19.742z"/><path d="m188.78 244.31v5.863h19.742v-5.863h-19.742z"/><path d="m111.66 244.32v5.863h19.742v-5.863h-19.742z"/></g></g><g fill="none" fill-rule="evenodd" stroke-width="3"><path d="m105.49 235.27v39.15"/><path d="m216.55 240.19v20.246"/></g><g stroke-linecap="square"><g transform="translate(0 .7)" fill="#fff"><g transform="scale(-1 1)"><path d="m-269.78 240.19h19.742v9.852h-19.742z"/><path d="m-250.04 240.19h19.742v9.852h-19.742z"/><path d="m-259.91 230.34h19.742v9.853h-19.742z"/><path d="m-240.17 230.34h19.742v9.853h-19.742z"/></g><path d="m216.55 200.78v9.852h13.748v-9.852h-13.748zm53.23 0v9.852h4.207v-9.852h-4.207zm-53.23 19.705v9.852h13.748v-9.852h-13.748zm53.23 0v9.852h4.207v-9.852h-4.207zm-53.23 19.705v9.221.631h13.748v-9.852h-13.748zm53.23 0v9.852h4.424l-.217-.631v-9.221h-4.207z"/></g><path d="m216.55 191.14v58.28 87.58h87.53l-30.09-87.58v-58.28h-57.44z" fill="none" stroke-width="3"/><g transform="translate(0 .7)" fill="#fff"><path d="m52.26 240.19h19.742v9.852h-19.742z"/><path d="m71.998 240.19h19.742v9.852h-19.742z"/><path d="m105.49 200.78v9.852h-13.748v-9.852h13.748zm-53.23 0v9.852h-4.207v-9.852h4.207zm53.23 19.705v9.852h-13.748v-9.852h13.748zm-53.23 0v9.852h-4.207v-9.852h4.207zm53.23 19.705v9.221.631h-13.748v-9.852h13.748zm-53.23 0v9.852h-4.424l.217-.631v-9.221h4.207z"/></g><path d="m48.05 191.14v58.28l-30.09 87.58h87.53v-87.58-58.28h-57.44z" fill="none" stroke-width="3"/><path d="m60.415 205.94141a4.125038 4.727571 0 0 0 -4.125 4.72851v18.91h8.25v-18.91a4.125038 4.727571 0 0 0 -4.125 -4.72851zm17.65235 0a4.125038 4.727571 0 0 0 -4.125 4.72851v18.91h8.25v-18.91a4.125038 4.727571 0 0 0 -4.125 -4.72851zm17.65429 0a4.125038 4.727571 0 0 0 -4.125 4.72851v18.91h8.25v-18.91a4.125038 4.727571 0 0 0 -4.125 -4.72851z"/><path d="m261.61964 205.94141a4.125038 4.727571 0 0 1 4.125 4.72851v18.91h-8.25v-18.91a4.125038 4.727571 0 0 1 4.125 -4.72851zm-17.65235 0a4.125038 4.727571 0 0 1 4.125 4.72851v18.91h-8.25v-18.91a4.125038 4.727571 0 0 1 4.125 -4.72851zm-17.65429 0a4.125038 4.727571 0 0 1 4.125 4.72851v18.91h-8.25v-18.91a4.125038 4.727571 0 0 1 4.125 -4.72851z"/><path fill="none" stroke-width="2" d="m105.49 244.31h111.06v93.18h-111.06z"/></g><g stroke-linejoin="round"><g stroke-width="3"><g fill-rule="evenodd"><path d="m545.52 291.55c-.733 0-1.458.021-2.176.059-10.04.53-18.679 10.512-28.719 11.04-.716.038-1.441.059-2.174.059-11.722 0-21.353-11.156-33.07-11.156-9.03 0-16.811 6.595-25.26 9.639v16.279c8.452-3.044 16.236-9.639 25.26-9.639 11.722 0 21.354 11.156 33.07 11.156 11.725 0 21.355-11.156 33.07-11.156 7.325 0 13.834 8.01 20.547 9.525 4.03.907 8.13 1.631 12.525 1.631h.002v.037c11.725 0 21.354-11.156 33.07-11.156 11.722 0 21.354 11.156 33.07 11.156 11.725 0 21.355-11.156 33.07-11.156 7.325 0 13.834 8.01 20.547 9.525 4.03.907 8.132 1.631 12.527 1.631 11.725 0 21.354-11.156 33.07-11.156 9.789 0 18.12 7.757 27.426 10.324.061-5.417.086-10.835.107-16.252-9.352-2.536-17.71-10.354-27.533-10.354-11.725 0-21.354 11.156-33.07 11.156-4.395 0-8.499-.725-12.527-1.631-6.713-1.515-13.222-9.525-20.547-9.525-.733 0-1.458.021-2.176.059-10.04.53-18.677 10.512-28.717 11.04-.716.038-1.443.059-2.176.059h-.006v-.039c-11.725 0-21.355-11.156-33.07-11.156-11.725 0-21.354 11.156-33.07 11.156-4.395 0-8.497-.725-12.525-1.631-6.713-1.515-13.222-9.525-20.547-9.525zm33.07 27.475v.002h.006l-.006-.002zm-33.07 1.449c-.733 0-1.458.021-2.176.059-10.04.53-18.679 10.512-28.719 11.04-.716.038-1.441.059-2.174.059-11.722 0-21.353-11.156-33.07-11.156-9.03 0-16.811 6.595-25.26 9.639v16.279c8.452-3.044 16.236-9.639 25.26-9.639 11.722 0 21.354 11.156 33.07 11.156 11.725 0 21.355-11.156 33.07-11.156 7.325 0 13.834 8.01 20.547 9.525 4.03.907 8.13 1.631 12.525 1.631h.002v.037c11.725 0 21.354-11.156 33.07-11.156 11.722 0 21.354 11.156 33.07 11.156 11.725 0 21.355-11.156 33.07-11.156 7.325 0 13.834 8.01 20.547 9.525 4.03.907 8.132 1.631 12.527 1.631 11.725 0 21.354-11.156 33.07-11.156 9.593 0 17.785 7.462 26.865 10.178.154-5.394.277-10.787.375-16.182-9.234-2.618-17.519-10.277-27.24-10.277-11.725 0-21.354 11.156-33.07 11.156-4.395 0-8.499-.725-12.527-1.631-6.713-1.515-13.222-9.525-20.547-9.525-.733 0-1.458.021-2.176.059-10.04.53-18.677 10.512-28.717 11.04-.716.038-1.443.059-2.176.059h-.006v-.039c-11.725 0-21.355-11.156-33.07-11.156-11.725 0-21.354 11.156-33.07 11.156-4.395 0-8.497-.725-12.525-1.631-6.713-1.515-13.222-9.525-20.547-9.525zm33.07 27.475v.002h.006l-.006-.002zm-33.07 1.451c-.733 0-1.458.021-2.176.059-10.04.53-18.679 10.512-28.719 11.04-.716.038-1.441.059-2.174.059-11.722 0-21.353-11.156-33.07-11.156-9.03 0-16.811 6.595-25.26 9.639v16.279c8.452-3.044 16.236-9.639 25.26-9.639 11.722 0 21.354 11.156 33.07 11.156 11.725 0 21.355-11.156 33.07-11.156 7.325 0 13.834 8.01 20.547 9.525 4.03.907 8.13 1.631 12.525 1.631h.002v.037c11.725 0 21.354-11.156 33.07-11.156 11.722 0 21.354 11.156 33.07 11.156 11.725 0 21.355-11.156 33.07-11.156 7.325 0 13.834 8.01 20.547 9.525 4.03.907 8.132 1.631 12.527 1.631 11.725 0 21.354-11.156 33.07-11.156 9.241 0 17.18 6.913 25.869 9.85.205-5.36.4-10.72.586-16.08-8.922-2.812-17.01-10.05-26.455-10.05-11.725 0-21.354 11.156-33.07 11.156-4.395 0-8.499-.725-12.527-1.631-6.713-1.515-13.222-9.525-20.547-9.525-.733 0-1.458.021-2.176.059-10.04.53-18.677 10.512-28.717 11.04-.716.038-1.443.059-2.176.059h-.006v-.039c-11.725 0-21.355-11.156-33.07-11.156-11.725 0-21.354 11.156-33.07 11.156-4.395 0-8.497-.725-12.525-1.631-6.713-1.515-13.222-9.525-20.547-9.525zm33.07 27.475v.002h.006l-.006-.002z" fill="#fff"/><path d="m4.26 111.38c0 0-.049 56.722 0 85.08.092 52.856-1.269 105.74.553 158.57 1.164 33.755 2.332 67.61 6.631 101.11 4.225 32.923 9.244 66 18.785 97.79 16.851 56.15 37.518 112 67.4 162.44 23.842 40.23 54.29 76.82 87.85 109.39 32.775 31.813 70.74 58.18 109.35 82.58 29.505 18.642 92.86 48.36 92.86 48.36 0 0 63.36-29.722 92.86-48.36 38.615-24.397 76.58-50.765 109.35-82.58 33.558-32.573 64-69.16 87.85-109.39 29.886-50.43 50.556-106.29 67.41-162.44 9.541-31.793 14.56-64.87 18.785-97.79 4.299-33.5 5.465-67.35 6.629-101.11 1.822-52.825.461-105.71.553-158.57.049-28.362 0-85.08 0-85.08h-383.43-383.44z" fill="none"/></g><circle cx="621.88" cy="174.12" r="73.21" transform="matrix(.99885.048-.048.99885 0 0)" fill="#fff" stroke-linecap="square"/></g><g stroke-width="2"><circle cx="612.8" cy="203.77" r="67.04" fill="none" stroke-linecap="square"/><g fill="#fff" fill-rule="evenodd" stroke-linecap="round"><path d="m630.62 267.87c0 0-3.364-6.01-6.02-8.06-2.091-1.616-4.701-2.94-7.343-2.988-2.575-.047-5.329.94-7.258 2.647-2.896 2.564-5.269 10.338-5.269 10.338 0 0-2.142-4.157-2.672-6.41-1.272-5.415-1.41-11.1-1.11-16.65.393-7.26 1.874-14.465 3.79-21.479 2.02-7.383 8.06-21.498 8.06-21.498"/><path d="m653.79 256.18c0 0-5.407-4.263-8.641-5.142-2.55-.693-5.468-.917-7.928.049-2.397.941-4.564 2.908-5.692 5.223-1.695 3.477-.912 11.567-.912 11.567 0 0-3.57-3.02-4.921-4.9-3.247-4.516-5.549-9.711-7.397-14.958-2.415-6.857-3.804-14.08-4.718-21.294-.962-7.592-.781-22.946-.781-22.946"/><path d="m670.73 236.5c0 0-6.626-1.869-9.951-1.443-2.621.336-5.403 1.245-7.305 3.079-1.854 1.787-3.104 4.433-3.26 7-.235 3.86 3.584 11.04 3.584 11.04 0 0-4.454-1.424-6.422-2.643-4.728-2.929-8.843-6.848-12.558-10.988-4.856-5.411-8.903-11.554-12.508-17.868-3.794-6.646-9.503-20.901-9.503-20.901"/><path d="m678.84 211.85c0 0-6.837.808-9.746 2.474-2.293 1.313-4.515 3.218-5.571 5.64-1.029 2.36-1.171 5.283-.333 7.718 1.26 3.657 7.534 8.825 7.534 8.825 0 0-4.66.388-6.944.015-5.489-.897-10.79-2.944-15.807-5.347-6.556-3.141-12.647-7.268-18.392-11.722-6.05-4.689-16.776-15.674-16.776-15.674"/><path d="m676.9 185.96c0 0-6.01 3.364-8.06 6.02-1.616 2.091-2.94 4.701-2.988 7.343-.047 2.575.94 5.329 2.647 7.258 2.564 2.896 10.338 5.269 10.338 5.269 0 0-4.157 2.142-6.41 2.672-5.415 1.272-11.1 1.41-16.65 1.11-7.26-.393-14.465-1.874-21.479-3.79-7.383-2.02-21.498-8.06-21.498-8.06"/><path d="m665.21 162.79c0 0-4.263 5.406-5.142 8.641-.693 2.55-.917 5.468.048 7.928.941 2.397 2.908 4.564 5.222 5.693 3.477 1.695 11.567.913 11.567.913 0 0-3.02 3.57-4.9 4.921-4.516 3.247-9.712 5.548-14.958 7.396-6.857 2.415-14.08 3.803-21.294 4.716-7.592.961-22.946.779-22.946.779"/><path d="m645.53 145.85c0 0-1.869 6.626-1.443 9.951.336 2.621 1.245 5.403 3.079 7.305 1.787 1.854 4.433 3.104 7 3.26 3.86.235 11.04-3.584 11.04-3.584 0 0-1.424 4.454-2.643 6.422-2.929 4.728-6.848 8.843-10.988 12.558-5.411 4.856-11.554 8.903-17.868 12.508-6.646 3.794-20.901 9.503-20.901 9.503"/><path d="m620.87 137.74c0 0 .809 6.837 2.474 9.746 1.313 2.293 3.218 4.515 5.64 5.571 2.36 1.029 5.283 1.171 7.718.332 3.657-1.26 8.824-7.534 8.824-7.534 0 0 .388 4.66.015 6.944-.897 5.489-2.943 10.791-5.346 15.807-3.141 6.557-7.267 12.647-11.721 18.393-4.689 6.05-15.673 16.777-15.673 16.777"/><path d="m594.99 139.68c0 0 3.364 6.01 6.02 8.06 2.091 1.616 4.701 2.94 7.343 2.988 2.575.047 5.329-.94 7.258-2.647 2.896-2.564 5.269-10.338 5.269-10.338 0 0 2.142 4.156 2.672 6.41 1.272 5.415 1.41 11.1 1.11 16.65-.393 7.26-1.874 14.465-3.79 21.479-2.02 7.383-8.06 21.498-8.06 21.498"/><path d="m571.82 151.37c0 0 5.407 4.263 8.641 5.142 2.55.693 5.468.917 7.928-.049 2.397-.941 4.564-2.908 5.692-5.223 1.695-3.477.912-11.567.912-11.567 0 0 3.57 3.02 4.921 4.9 3.247 4.516 5.549 9.711 7.397 14.958 2.415 6.857 3.804 14.08 4.718 21.294.962 7.592.781 22.946.781 22.946"/><path d="m554.88 171.05c0 0 6.626 1.869 9.951 1.443 2.621-.336 5.403-1.245 7.305-3.079 1.854-1.787 3.104-4.433 3.26-7 .235-3.86-3.584-11.04-3.584-11.04 0 0 4.454 1.424 6.422 2.643 4.728 2.929 8.843 6.848 12.558 10.988 4.856 5.411 8.903 11.554 12.508 17.868 3.794 6.646 9.503 20.901 9.503 20.901"/><path d="m546.77 195.7c0 0 6.837-.808 9.746-2.474 2.293-1.313 4.515-3.218 5.571-5.64 1.029-2.36 1.171-5.283.333-7.718-1.26-3.657-7.534-8.825-7.534-8.825 0 0 4.66-.388 6.944-.015 5.489.897 10.79 2.944 15.807 5.347 6.556 3.141 12.647 7.268 18.392 11.722 6.05 4.689 16.776 15.674 16.776 15.674"/><path d="m548.71 221.59c0 0 6.01-3.364 8.06-6.02 1.616-2.091 2.94-4.701 2.988-7.343.047-2.575-.94-5.329-2.647-7.258-2.564-2.896-10.338-5.269-10.338-5.269 0 0 4.157-2.142 6.41-2.672 5.415-1.272 11.1-1.41 16.65-1.11 7.26.393 14.465 1.874 21.479 3.79 7.383 2.02 21.498 8.06 21.498 8.06"/><path d="m560.4 244.76c0 0 4.263-5.406 5.142-8.641.693-2.55.918-5.468-.048-7.928-.941-2.397-2.908-4.564-5.222-5.693-3.477-1.695-11.567-.913-11.567-.913 0 0 3.02-3.57 4.9-4.921 4.516-3.247 9.712-5.548 14.958-7.396 6.857-2.415 14.08-3.803 21.294-4.716 7.592-.961 22.946-.779 22.946-.779"/><path d="m580.08 261.7c0 0 1.869-6.626 1.443-9.951-.336-2.621-1.245-5.403-3.079-7.305-1.787-1.854-4.433-3.104-7-3.26-3.86-.235-11.04 3.584-11.04 3.584 0 0 1.424-4.454 2.643-6.422 2.929-4.728 6.848-8.843 10.988-12.558 5.411-4.856 11.554-8.903 17.868-12.508 6.646-3.794 20.901-9.503 20.901-9.503"/><path d="m604.74 269.81c0 0-.809-6.837-2.474-9.746-1.313-2.293-3.218-4.515-5.64-5.571-2.36-1.029-5.283-1.171-7.718-.332-3.657 1.26-8.824 7.534-8.824 7.534 0 0-.388-4.66-.015-6.944.897-5.489 2.943-10.791 5.346-15.807 3.141-6.557 7.267-12.647 11.721-18.393 4.689-6.05 15.673-16.777 15.673-16.777"/><path d="m604.74 269.81c0 0-2.142-4.157-2.672-6.41-1.272-5.415-1.41-11.1-1.11-16.65.393-7.26 1.874-14.465 3.79-21.479 2.02-7.383 8.06-21.498 8.06-21.498"/></g></g></g><g fill="#fff" stroke-linecap="round" stroke-width="3"><path d="m561.37 772.8v66.55c7.04-5.725 13.931-11.63 20.639-17.729v-48.82h-20.639z"/><path d="m520.95 738.33h101.49v34.467h-101.49z"/></g><g stroke-linecap="square"><g fill="none" fill-rule="evenodd" stroke-width="2"><path d="m520.95 757.77h101.49"/><path d="m543.87 757.77v15.03"/><path d="m539.58 757.77v15.03"/><path d="m535.3 757.77v15.03"/><path d="m531.02 757.77v15.03"/><path d="m556.71 757.77v15.03"/><path d="m552.43 757.77v15.03"/><path d="m548.15 757.77v15.03"/><path d="m526.74 757.77v15.03"/><path d="m573.84 757.77v15.03"/><path d="m569.55 757.77v15.03"/><path d="m565.27 757.77v15.03"/><path d="m560.99 757.77v15.03"/><path d="m586.68 757.77v15.03"/><path d="m582.4 757.77v15.03"/><path d="m578.12 757.77v15.03"/><path d="m603.8 757.77v15.03"/><path d="m599.52 757.77v15.03"/><path d="m595.24 757.77v15.03"/><path d="m590.96 757.77v15.03"/><path d="m616.65 757.77v15.03"/><path d="m612.37 757.77v15.03"/><path d="m608.09 757.77v15.03"/></g><path fill="#fff" stroke-width="3" d="m499.17 670.74h145.05v67.59h-145.05z"/></g><g fill-rule="evenodd"><g stroke-width="2"><path d="m567.79 534.62c-1.01.018-2.01.159-2.959.439-1.34.396-2.512 1.369-3.398 2.449-1.047 1.276-.893 3.336-2.057 4.508-1.72 1.732-4.629 1.701-6.641 3.082-1.844 1.266-4.03 2.576-4.822 4.666-.508 1.333-.228 2.95.316 4.27.649 1.572 3.32 3.873 3.32 3.873 0 0-.454-2.562 0-3.715.581-1.475 1.668-3.293 3.242-3.48 1.662-.198 2.613 2.204 4.189 2.768.723.259 2.293.238 2.293.238 0 0 .285 2.155.316 3.24.053 1.864.111 3.757-.225 5.592-.456 2.496-.585 5.454-2.406 7.221-2 1.944-5.231 2.476-8.02 2.406-3.08-.077-6.335-1.135-8.711-3.096-3.658-3.02-3.953-8.822-7.219-12.262-1.86-1.959-4.1-4.01-6.762-4.469-.436-.075-.876-.12-1.318-.137-3.097-.118-6.311 1.122-8.99 2.674-3.832 2.22-6.925 5.794-9.174 9.609-1.626 2.758-3.04 5.971-2.865 9.168.11 1.998.868 4.222 2.406 5.502.905.753 3.439.803 3.439.803 0 0-2.641 1.891-3.209 3.322-2.397 6.04 1.683 13.153.229 19.482-.383 1.665-2.293 4.584-2.293 4.584 0 0 2.428.317 3.439-.229 1.392-.751 2.865-3.781 2.865-3.781 0 0 .046 9.913 1.26 14.668 2.818 11.04 7.798 21.575 13.752 31.29 1.135 1.852 1.963 4.863 4.127 5.04 1.673.138 2.769-1.983 3.781-3.322 1.607-2.127 2.85-4.621 3.438-7.221.261-1.155 0-3.553 0-3.553 0 0 1.833-.882 2.293-1.719 1.181-2.149.409-4.887.572-7.334.092-1.374.229-4.125.229-4.125 0 0 .444 2.298 1.375 2.52 1.309.312 3.324-2.291 3.324-2.291 0 0 .678 4.476.229 6.646-.994 4.802-4.309 8.815-6.303 13.295-1.615 3.63-1.329 8.722-4.584 11-1.378.965-3.432-.255-5.04.23-2.346.707-4.453 2.175-6.303 3.781-2.748 2.386-6.875 8.48-6.875 8.48h11.12c0 0 1.528-2.494 2.521-3.553.706-.753 1.43-2.281 2.406-1.947.631.216.29 1.302.459 1.947.313 1.193 1.031 3.553 1.031 3.553h4.928c0 0 .592-2.484 1.375-3.438.578-.704 1.385-1.571 2.293-1.49.835.074 1.409.996 1.834 1.719.559.951.801 3.209.801 3.209h4.127c0 0 .015-2.494-.344-3.668-.28-.916-1.375-2.52-1.375-2.52 0 0 2.52.3 3.781.229 1.549-.087 4.584-.803 4.584-.803 0 0 1.486 2.809 2.75 3.668 3.247 2.205 11.363 3.094 11.363 3.094 0 0 8.116-.888 11.363-3.094 1.264-.858 2.75-3.668 2.75-3.668 0 0 3.035.715 4.584.803 1.261.071 3.781-.229 3.781-.229 0 0-1.095 1.604-1.375 2.52-.359 1.174-.344 3.668-.344 3.668h4.125c0 0 .244-2.258.803-3.209.424-.722.999-1.645 1.834-1.719.908-.08 1.715.786 2.293 1.49.783.954 1.375 3.438 1.375 3.438h4.928c0 0 .718-2.36 1.031-3.553.169-.645-.172-1.731.459-1.947.977-.334 1.7 1.195 2.406 1.947.994 1.059 2.521 3.553 2.521 3.553h11.12c0 0-4.127-6.095-6.875-8.48-1.85-1.606-3.959-3.074-6.305-3.781-1.611-.486-3.663.734-5.04-.23-3.255-2.278-2.968-7.37-4.584-11-1.994-4.48-5.311-8.493-6.305-13.295-.449-2.171.23-6.646.23-6.646 0 0 2.01 2.603 3.322 2.291.931-.222 1.377-2.52 1.377-2.52 0 0 .137 2.751.229 4.125.164 2.447-.609 5.185.572 7.334.46.837 2.293 1.719 2.293 1.719 0 0-.261 2.398 0 3.553.587 2.6 1.83 5.094 3.438 7.221 1.012 1.339 2.109 3.46 3.781 3.322 2.164-.178 2.992-3.189 4.127-5.04 5.954-9.712 10.934-20.249 13.752-31.29 1.214-4.755 1.26-14.668 1.26-14.668 0 0 1.473 3.03 2.865 3.781 1.01.545 3.438.229 3.438.229 0 0-1.908-2.919-2.291-4.584-1.455-6.329 2.626-13.446.229-19.482-.568-1.431-3.209-3.322-3.209-3.322 0 0 2.535-.05 3.439-.803 1.539-1.28 2.297-3.504 2.406-5.502.175-3.197-1.24-6.41-2.865-9.168-2.249-3.816-5.341-7.39-9.174-9.609-3.062-1.774-6.822-3.141-10.309-2.537-2.662.461-4.902 2.509-6.762 4.469-3.266 3.44-3.561 9.242-7.219 12.262-2.376 1.961-5.631 3.02-8.711 3.096-2.791.07-6.02-.462-8.02-2.406-.864-.838-1.025-2.193-1.209-3.373-.859-5.508.578-16.713.578-16.713 0 0 1.925-.071 2.848-.316 1.277-.34 3.637-1.58 3.637-1.58 0 0-5.798-3.717-8.617-5.693-3.038-2.13-5.443-5.387-8.936-6.641-1.552-.557-3.264-.864-4.947-.834z" fill="#fff" stroke-linejoin="round"/><g fill="none"><g stroke-linecap="round"><path d="m512.77 603.35c0 0 3.02-4.127 3.845-6.506.99-2.842.972-5.946 1.23-8.945.272-3.158.335-9.504.335-9.504"/><path d="m511.74 579.97c0 0 3.948-2.666 5.436-4.483 1.553-1.897 3.466-6.485 3.466-6.485"/><path d="m522.32 578.29l3.802-5.814"/><path d="m539.13 640.25c0 0-5.737-5.887-7.754-9.418-4.861-8.507-8.472-17.949-10.06-27.617-.26-1.582-.698-3.424.112-4.808.591-1.01 2.196-.958 3.02-1.789.576-.582 1.012-1.336 1.23-2.124 1.332-4.814-1.189-10.192.224-14.983.199-.674.508-1.44 1.118-1.789 1.165-.667 4.03-.112 4.03-.112"/><path d="m542.22 627.08c0 0-2.936-1.928-4.063-3.244-.631-.737-1.195-1.59-1.444-2.528-.999-3.762.718-7.851 0-11.676-.429-2.285-1.032-4.72-2.528-6.5-1.146-1.365-4.574-2.769-4.574-2.769 0 0 3.105-2.737 4.213-4.454 1.551-2.404 2.741-5.129 3.25-7.945.464-2.568-.241-7.824-.241-7.824" stroke-linejoin="round"/><path d="m546.92 627.3c0 0 4.223-3.254 5.924-5.279 1.275-1.518 2.555-3.159 3.13-5.056.338-1.114.12-3.491.12-3.491"/><g stroke-linejoin="round"><path d="m550.15 624.65c0 0-3.304-2.137-4.404-3.71-1-1.435-1.492-3.212-1.806-4.935-.825-4.54 1.426-9.495-.12-13.843-.258-.726-.778-1.418-1.444-1.806-.667-.388-2.287-.361-2.287-.361 0 0 2.699-1.603 3.491-2.889.756-1.227.801-2.782.963-4.213.517-4.585 0-13.843 0-13.843"/><path d="m518.06 563.4c0 0 1.127-1.761 1.926-2.407.698-.564 1.532-1.01 2.407-1.204 1-.222 2.119-.279 3.079.085 1.244.472 2.241 1.515 3.06 2.563 2.311 2.954 2.691 7.106 4.935 10.111 1.563 2.093 3.464 4.084 5.778 5.296 1.604.84 3.499.984 5.296 1.204 1.952.239 5.898.12 5.898.12 0 0-.701 6.181 0 9.148.289 1.222.757 2.524 1.685 3.37 1.05.957 2.552 1.528 3.972 1.544 1.348.015 2.699-.604 3.802-1.38.916-.645 1.578-1.621 2.147-2.586.479-.812 1.032-2.634 1.032-2.634"/><path d="m571.69 576.41l-7.105 7.432-3.4-7.195-5.93 6.01"/></g><path d="m630.62 603.35c0 0-3.02-4.127-3.845-6.506-.99-2.842-.972-5.946-1.23-8.945-.272-3.158-.335-9.504-.335-9.504"/><path d="m631.65 579.97c0 0-3.948-2.666-5.436-4.483-1.553-1.897-3.466-6.485-3.466-6.485"/><path d="m621.07 578.29l-3.802-5.814"/><path d="m604.26 640.25c0 0 5.737-5.887 7.754-9.418 4.861-8.507 8.472-17.949 10.06-27.617.26-1.582.698-3.424-.112-4.808-.591-1.01-2.196-.958-3.02-1.789-.576-.582-1.012-1.336-1.23-2.124-1.332-4.814 1.189-10.192-.224-14.983-.199-.674-.508-1.44-1.118-1.789-1.165-.667-4.03-.112-4.03-.112"/><path d="m601.16 627.08c0 0 2.936-1.928 4.063-3.244.631-.737 1.195-1.59 1.444-2.528.999-3.762-.718-7.851 0-11.676.429-2.285 1.032-4.72 2.528-6.5 1.146-1.365 4.574-2.769 4.574-2.769 0 0-3.105-2.737-4.213-4.454-1.551-2.404-2.741-5.129-3.25-7.945-.464-2.568.241-7.824.241-7.824" stroke-linejoin="round"/><path d="m596.47 627.3c0 0-4.223-3.254-5.924-5.279-1.275-1.518-2.555-3.159-3.13-5.056-.338-1.114-.12-3.491-.12-3.491"/><g stroke-linejoin="round"><path d="m593.24 624.65c0 0 3.304-2.137 4.404-3.71 1-1.435 1.492-3.212 1.806-4.935.825-4.54-1.426-9.495.12-13.843.258-.726.778-1.418 1.444-1.806.667-.388 2.287-.361 2.287-.361 0 0-2.699-1.603-3.491-2.889-.756-1.227-.801-2.782-.963-4.213-.517-4.585 0-13.843 0-13.843"/><path d="m625.33 563.4c0 0-1.127-1.761-1.926-2.407-.698-.564-1.532-1.01-2.407-1.204-1-.222-2.119-.279-3.079.085-1.244.472-2.241 1.515-3.06 2.563-2.311 2.954-2.691 7.106-4.935 10.111-1.563 2.093-3.464 4.084-5.778 5.296-1.604.84-3.499.984-5.296 1.204-1.952.239-5.898.12-5.898.12 0 0 .701 6.181 0 9.148-.289 1.222-.757 2.524-1.685 3.37-1.05.957-2.552 1.528-3.972 1.544-1.348.015-2.699-.604-3.802-1.38-.916-.645-1.578-1.621-2.147-2.586-.479-.812-1.032-2.634-1.032-2.634"/><path d="m571.69 576.41l7.105 7.432 3.4-7.195 5.93 6.01"/></g></g><g stroke-linejoin="round"><path d="m566.25 623.39c0 0-8.364 15.268-13.424 22.324-3.763 5.247-12.52 14.781-12.52 14.781 0 0 3.673-.718 5.279 0 1.657.74 3.633 4.055 3.633 4.055 0 0 6.223-10.897 8.688-16.652 3.396-7.933 8.344-24.508 8.344-24.508zm10.895 0c0 0 4.947 16.575 8.344 24.508 2.464 5.756 8.688 16.652 8.688 16.652 0 0 1.976-3.315 3.633-4.055 1.607-.718 5.279 0 5.279 0 0 0-8.757-9.534-12.52-14.781-5.06-7.06-13.424-22.324-13.424-22.324z"/><g stroke-linecap="round"><path d="m547.15 633.95c0 0 2.59-.609 3.681-1.323 1.589-1.039 3.913-4.137 3.913-4.137 0 0-.788 5.607-.447 8.386.193 1.573 1.395 4.547 1.395 4.547"/><path d="m596.24 633.95c0 0-2.59-.609-3.681-1.323-1.589-1.039-3.913-4.137-3.913-4.137 0 0 .788 5.607.447 8.386-.193 1.573-1.395 4.547-1.395 4.547"/><path d="m563.08 586.64c0 0 1.49 4.058 3.01 5.492 1.358 1.284 3.29 1.819 5.062 2.413.177.059.547.112.547.112"/><path d="m580.31 586.64c0 0-1.49 4.058-3.01 5.492-1.358 1.284-3.29 1.819-5.062 2.413-.177.059-.547.112-.547.112"/><path d="m556.65 593.11c0 0 1.126 2.713 2.112 3.759.95 1.01 2.214 1.724 3.497 2.245"/><path d="m567.88 593.65c0 0-1.207 2.315-2.121 3.219-.985.974-2.214 1.724-3.497 2.245"/><path d="m586.74 593.11c0 0-1.126 2.713-2.112 3.759-.95 1.01-2.214 1.724-3.497 2.245"/><path d="m575.51 593.65c0 0 1.207 2.315 2.121 3.219.985.974 2.214 1.724 3.497 2.245"/><path d="m578.09 597.66c0 0-1.257 3.367-2.416 4.69-1.066 1.217-2.521 2.01-3.983 2.772"/><path d="m565.3 597.66c0 0 1.257 3.367 2.416 4.69 1.066 1.217 2.521 2.01 3.983 2.772"/><path d="m562.26 599.12c0 0-1.257 2.857-2.416 3.98-1.066 1.032-2.521 1.707-3.983 2.352"/><path d="m555.86 605.45c-1.462-.645-2.917-1.319-3.983-2.352-1.159-1.123-2.416-3.98-2.416-3.98l-.53-19.919"/><path d="m581.13 599.12c0 0 1.257 2.857 2.416 3.98 1.066 1.032 2.521 1.707 3.983 2.352"/><path d="m587.53 605.45c1.462-.645 2.917-1.319 3.983-2.352 1.159-1.123 2.416-3.98 2.416-3.98l.53-19.919"/><path d="m560.17 613.57c-1.75-.474-3.493-.969-4.768-1.728-1.387-.825-2.893-2.923-2.893-2.923l-.635-5.817"/><path d="m560.17 613.57c1.75-.474 3.493-.969 4.768-1.728 1.387-.825 2.893-2.923 2.893-2.923l.635-5.817"/><path d="m583.22 613.57c1.75-.474 3.493-.969 4.768-1.728 1.387-.825 2.893-2.923 2.893-2.923l.635-5.817"/><path d="m583.22 613.57c-1.75-.474-3.493-.969-4.768-1.728-1.387-.825-2.893-2.923-2.893-2.923l-.635-5.817"/><path d="m563.08 612.92c0 0 1.49 4.058 3.01 5.492 1.358 1.284 3.29 1.819 5.062 2.413.177.059.547.112.547.112"/><path d="m580.31 612.92c0 0-1.49 4.058-3.01 5.492-1.358 1.284-3.29 1.819-5.062 2.413-.177.059-.547.112-.547.112"/></g></g><g stroke-linecap="round"><path d="m571.69 625.25c0 0-.154 7.611-1.01 11.293-.963 4.161-3.793 7.767-4.584 11.964-1.029 5.457-.112 16.66-.112 16.66"/><path d="m560.85 656c0 0-.549-5.626.447-8.162 1.79-4.557 7.525-6.767 9.392-11.293 1.441-3.494 1.01-11.293 1.01-11.293"/><path d="m571.69 625.25c0 0 .154 7.611 1.01 11.293.963 4.161 3.793 7.767 4.584 11.964 1.029 5.457.112 16.66.112 16.66"/><path d="m582.54 656c0 0 .549-5.626-.447-8.162-1.79-4.557-7.525-6.767-9.392-11.293-1.441-3.494-1.01-11.293-1.01-11.293"/><g stroke-linejoin="round"><path d="m561.71 560.71c0 0 3.692.825 5.22-.008 1.074-.585 1.487-1.967 1.993-3.08.545-1.201 1.087-3.805 1.087-3.805"/><path d="m566.93 560.7c0 0 1.372 2.271 1.721 3.533.186.672.366 1.412.181 2.084-.494 1.794-1.987 3.174-3.261 4.53-.882.938-2.99 2.446-2.99 2.446"/><path d="m583.08 560.71c0 0-3.692.825-5.22-.008-1.074-.585-1.487-1.967-1.993-3.08-.545-1.201-1.087-3.805-1.087-3.805"/><path d="m577.86 560.7c0 0-1.372 2.271-1.721 3.533-.186.672-.366 1.412-.181 2.084.494 1.794 1.987 3.174 3.261 4.53.882.938 2.99 2.446 2.99 2.446"/></g><path d="m553.28 551.46c0 0 3.047-1.579 4.705-1.94 1.278-.278 2.613-.179 3.92-.148.866.021 2.589.222 2.589.222"/></g></g></g><path d="m562.42 543.82c0 0 2.17.321 3.18 0 .489-.155.838-.591 1.257-.888.592-.419 1.087-1.029 1.775-1.257.913-.303 1.998-.448 2.884-.074.803.34 1.079 1.397 1.775 1.923 1.389 1.051 4.659 2.367 4.659 2.367 0 0-2.351 1.141-3.624 1.331-2.222.333-4.564.228-6.73-.37-1.074-.296-2-.985-2.958-1.553-.764-.454-2.219-1.479-2.219-1.479z" stroke-linejoin="round" stroke-linecap="round"/></g><g transform="translate(-193.58-15.652)"><g stroke-linecap="square" stroke-width="2"><path d="m701.12 693.04h128.32v54.3h-128.32z"/><path transform="translate(2.357 109.88)" d="m698.76 583.16v54.3h128.32v-54.3h-128.32zm73.55 4.301c2.149 0 4.175.543 6.08 1.629 1.905 1.086 3.551 2.611 4.938 4.578 1.432 2.01 2.554 4.437 3.361 7.285.808 2.827 1.211 5.962 1.211 9.404 0 3.463-.411 6.606-1.234 9.434-.823 2.827-1.967 5.235-3.43 7.223-1.417 1.967-3.063 3.483-4.938 4.549-1.874 1.065-3.87 1.598-5.988 1.598-2.255 0-4.344-.563-6.264-1.689-1.905-1.147-3.543-2.735-4.914-4.764-1.372-1.987-2.454-4.395-3.246-7.223-.777-2.848-1.166-5.89-1.166-9.127 0-3.545.411-6.701 1.234-9.467.823-2.786 1.959-5.194 3.406-7.223 1.433-2.01 3.093-3.544 4.982-4.609 1.905-1.065 3.894-1.598 5.967-1.598zm-59.32.061c1.493 0 2.827.307 4 .922 1.189.615 2.271 1.333 3.246 2.152l.938-2.09h1.828l.184 14.475h-1.852c-.335-1.66-.718-3.248-1.145-4.764-.411-1.516-.953-2.888-1.623-4.117-.655-1.188-1.454-2.132-2.398-2.828-.945-.717-2.103-1.076-3.475-1.076-1.448 0-2.682.625-3.703 1.875-1.021 1.25-1.533 2.777-1.533 4.58 0 1.885.329 3.451.984 4.701.655 1.229 1.608 2.244 2.857 3.043 1.112.717 2.201 1.342 3.268 1.875 1.082.512 2.127 1.064 3.133 1.658.914.533 1.791 1.138 2.629 1.814.853.676 1.592 1.464 2.217 2.365.686 1.024 1.188 2.152 1.508 3.381.335 1.209.504 2.624.504 4.242 0 3.852-1.059 7.03-3.178 9.527-2.118 2.5-4.747 3.748-7.887 3.748-1.448 0-2.896-.296-4.344-.891-1.448-.615-2.697-1.352-3.748-2.213l-.982 2.244h-1.83l-.318-14.938h1.852c.381 1.844.821 3.514 1.324 5.01.518 1.475 1.197 2.86 2.035 4.15.792 1.209 1.714 2.172 2.766 2.889 1.067.717 2.301 1.074 3.703 1.074 1.052 0 1.967-.184 2.744-.553.792-.369 1.432-.89 1.92-1.566.488-.676.846-1.466 1.074-2.367.244-.922.365-1.978.365-3.166 0-1.742-.366-3.36-1.098-4.855-.731-1.516-1.82-2.663-3.268-3.441-.991-.533-2.126-1.117-3.406-1.752-1.28-.656-2.385-1.27-3.314-1.844-1.829-1.106-3.254-2.551-4.275-4.334-1.01-1.803-1.508-4.148-1.508-7.04 0-1.66.251-3.206.754-4.641.503-1.434 1.219-2.715 2.148-3.842.884-1.065 1.929-1.896 3.133-2.49 1.204-.615 2.461-.922 3.771-.922zm15.451.984h14.814c3.02 0 5.462.982 7.336 2.949 1.89 1.946 2.836 4.549 2.836 7.807 0 2.274-.335 4.293-1.01 6.05-.655 1.742-1.571 3.187-2.744 4.334-1.158 1.147-2.43 1.987-3.816 2.52-1.387.533-2.858.799-4.412.799h-3.635v13.215c0 .717.084 1.353.252 1.906.183.533.549.942 1.098 1.229.274.143.754.277 1.439.4.701.123 1.341.194 1.92.215v2.182h-13.922v-2.182c.366-.041.892-.112 1.578-.215.701-.102 1.189-.236 1.463-.4.457-.266.784-.656.982-1.168.213-.512.32-1.168.32-1.967v-31.471c0-.717-.076-1.362-.229-1.936-.152-.574-.51-1-1.074-1.291-.579-.266-1.157-.45-1.736-.553-.564-.123-1.053-.205-1.465-.246v-2.182zm63.53 0h14.973c1.372 0 2.659.195 3.863.584 1.204.369 2.294.972 3.27 1.813.945.82 1.7 1.895 2.264 3.227.564 1.311.846 2.899.846 4.764 0 1.68-.191 3.166-.572 4.457-.381 1.291-.945 2.407-1.691 3.35-.686.881-1.509 1.649-2.469 2.305-.96.635-2.02 1.178-3.178 1.629 1.6 2.848 2.927 5.245 3.979 7.191 1.067 1.946 2.369 4.313 3.908 7.1.671 1.229 1.271 2.14 1.805 2.734.549.574 1.09 1.045 1.623 1.414.396.266.892.472 1.486.615.594.143 1.09.226 1.486.246v2.182h-8.732c-1.935-4.077-3.688-7.601-5.258-10.572-1.554-2.971-3.246-6.03-5.074-9.189h-3.314v13.83c0 .717.084 1.353.252 1.906.168.533.526.942 1.074 1.229.274.143.754.277 1.439.4.686.123 1.266.194 1.738.215v2.182h-13.717v-2.182c.366-.041.892-.112 1.578-.215.701-.102 1.189-.236 1.463-.4.457-.266.784-.656.982-1.168.213-.512.32-1.168.32-1.967v-31.531c0-.717-.076-1.353-.229-1.906-.152-.553-.51-.973-1.074-1.26-.381-.184-.877-.349-1.486-.492-.61-.164-1.128-.266-1.555-.307v-2.182zm-19.658 1.689c-1.829 0-3.384.565-4.664 1.691-1.28 1.127-2.323 2.633-3.131 4.518-.762 1.803-1.334 3.912-1.715 6.33-.366 2.418-.549 4.96-.549 7.623 0 2.95.199 5.614.596 7.99.396 2.377 1.02 4.486 1.873 6.33.823 1.803 1.86 3.218 3.109 4.242 1.25 1 2.743 1.506 4.48 1.506 1.631 0 3.102-.513 4.412-1.537 1.311-1.024 2.376-2.459 3.199-4.303.853-1.864 1.471-3.976 1.852-6.332.396-2.356.596-4.987.596-7.896 0-2.991-.222-5.737-.664-8.236-.427-2.5-1.058-4.631-1.896-6.393-.838-1.742-1.889-3.094-3.154-4.057-1.265-.983-2.713-1.477-4.344-1.477zm28.871.799v18.717h2.994c2.103 0 3.856-.902 5.258-2.705 1.402-1.823 2.104-4.292 2.104-7.406 0-2.643-.564-4.733-1.691-6.27-1.128-1.557-2.72-2.336-4.777-2.336h-3.887zm-63.37.031v19.27h2.332c1.646 0 2.979-.338 4-1.014 1.036-.697 1.814-1.558 2.332-2.582.518-.983.86-1.998 1.027-3.043.168-1.065.252-2.02.252-2.857 0-1.168-.107-2.356-.32-3.564-.198-1.209-.548-2.265-1.051-3.166-.533-.963-1.235-1.711-2.104-2.244-.869-.533-1.951-.799-3.246-.799h-3.223z" fill="#fff"/></g><path d="m772.55 739.63l-.112-6.597c0 0 3.354.278 4.92.839 3.677 1.317 6.546 4.369 10.175 5.814 1.319.525 4.137 1.01 4.137 1.01l.056 3.522c0 0-3.636-.833-5.367-1.509-3.253-1.271-5.898-4.14-9.336-4.752-.776-.138-1.608.009-2.348.28-.796.291-2.124 1.398-2.124 1.398z" fill-rule="evenodd"/></g><g stroke-linecap="round"><g fill="#fff" stroke-linejoin="round"><circle cx="245.49" cy="686.59" r="10.03" stroke-width="3"/><g fill-rule="evenodd"><path d="m282.39 556.27c-.195-.006-.391.009-.584.047-1.061.21-1.957 1.359-2.158 2.422-.499 2.639 1.878 5.03 2.791 7.559.759 2.099 1.782 4.127 2.232 6.313.404 1.964.398 6 .398 6 0 0-1.837-2.27-3.045-3.045-2.124-1.361-4.578-2.509-7.098-2.629-2.578-.123-5.48.362-7.484 1.988-2.995 2.431-5.02 6.481-5.207 10.334-.13 2.601 1.121 5.305 2.805 7.291 1.603 1.89 4 3.168 6.408 3.766 1.764.438 3.673.148 5.449-.24 1.802-.394 5.127-2.084 5.127-2.084 0 0-.344 6.626-1.281 9.775-.862 2.897-2.236 5.666-3.926 8.172-1.131 1.677-4.086 4.486-4.086 4.486 0 0-.024-2.845-.24-4.246-.214-1.389-.431-2.821-1.043-4.086-.863-1.784-2.034-3.52-3.605-4.727-1.558-1.196-3.495-2.035-5.447-2.244-2.563-.275-5.347.131-7.611 1.361-2.025 1.1-3.694 2.988-4.727 5.05-.681 1.358-.893 2.97-.801 4.486.133 2.175.708 4.438 1.922 6.248 1.194 1.781 3.069 3.093 4.969 4.086 2.09 1.093 6.06 1.646 6.06 1.646 0 0-5.152 3.853-8.381 5-3.547 1.264-7.337 1.733-11.06 2.324-3.422.544-6.887.766-10.334 1.121-.29.03-.487.047-.869.084-.874-.236-1.761-.447-2.621-.695-1.193-.345-3.625-.854-3.625-.854 0 0 5.01-2.549 6.186-4.906 1.455-2.93-1.523-7.04.213-9.813 1.654-2.641 8.32-4.268 8.32-4.268 0 0-6.55-5.04-10.453-5.973-2.701-.644-5.854 1.708-8.318.428-2.608-1.355-2.643-5.361-4.693-7.467-1.431-1.47-3.244-2.582-5.119-3.412-1.072-.474-2.25-.997-3.414-.854-1.2.148-2.281.92-3.199 1.707-2.969 2.545-5.067 6.01-7.04 9.385-1.606 2.749-2.043 6.118-3.84 8.746-.794 1.162-1.603 2.724-2.986 2.986-1.752.333-3.495-1.043-4.906-2.133-1-.774-2.421-1.723-2.346-2.986.12-2.01 2.83-2.858 4.266-4.266 3.662-3.591 8.554-6.208 11.09-10.666 1.698-2.983 2.6-6.602 2.348-10.03-.27-3.661-2.075-7.149-4.055-10.24-1.166-1.821-4.479-4.691-4.479-4.691 0 0-.862 2.529-.854 3.84.008 1.242 1.506 2.568.854 3.625-.806 1.306-3.114 1.765-4.48 1.066-3.151-1.611-2.524-6.621-4.053-9.813-1.086-2.267-3.625-6.611-3.625-6.611 0 0-1.764 2.272-2.133 3.625-.71 2.607 0 8.107 0 8.107 0 0-1.674-3.522-2.773-5.121-2.229-3.241-5.782-5.514-7.68-8.959-.933-1.694-1.707-5.545-1.707-5.545 0 0-2.433 4.958-2.738 7.648-.396 3.497 1.246 10.482 1.246 10.482 0 0-2.578-1.247-3.414-2.346-1.185-1.556-1.92-5.547-1.92-5.547 0 0-3.933 6.409-4.266 10.03-.18 1.958 1.279 5.76 1.279 5.76 0 0-2.497-1.152-3.412-2.133-1.65-1.767-.999-6.289-3.414-6.4-3.231-.149-4.419 5-5.332 8.107-1.295 4.404-1.042 9.333.135 13.77 1.324 4.992 7.521 8.368 7.545 13.533.012 2.673-1.181 6.767-3.84 7.04-3.061.314-4.478-4.349-5.973-7.04-2.938-5.288-1.541-12.745-5.547-17.277-2.128-2.408-6.096-2.236-8.746-4.053-2.364-1.621-6.186-5.973-6.186-5.973 0 0-1.275 4.366-1.279 6.611-.006 2.678 1.492 7.893 1.492 7.893 0 0-4.049-3.478-6.398-4.693-2.596-1.343-5.396-2.702-8.318-2.771-2.363-.056-5.35.074-6.826 1.92-.845 1.057-.7 2.79-.215 4.053.612 1.596 2.867 2.094 3.627 3.625.702 1.414.641 4.693.641 4.693 0 0-6.824-6.469-11.09-6.398-3.097.051-4.799 4.748-7.893 4.906-3.239.166-8.746-4.268-8.746-4.268 0 0 .843 5.483 1.707 8.105 1.712 5.198 3.08 10.943 6.824 14.934 2.264 2.413 8.497 1.392 8.746 4.691.188 2.482-4.254 2.68-5.973 4.48-1.484 1.555-4.04 3.224-3.625 5.332.58 2.921 4.623 4.02 7.465 4.906 2.783.87 8.746.213 8.746.213 0 0-1.555 2.991-2.986 3.627-1.431.636-4.693-.213-4.693-.213 0 0 5.03 4.859 8.105 6.398 2.237 1.118 4.763 2.137 7.254 1.92 7.1-.618 12.758-6.404 19.41-8.959 2.02-.774 4.107-2.497 6.188-1.92 2.572.713 5.801 3.345 5.332 5.973-.665 3.726-6.677 3.568-10.03 5.334-4.613 2.433-10.172 3.568-13.865 7.252-3.243 3.234-5.631 7.643-6.4 12.158-.326 1.913-.677 4.567.854 5.76 1.127.879 2.937.1 4.266-.426 2.499-.989 6.4-4.906 6.4-4.906 0 0-2.866 2.996-2.133 4.479.612 1.237 2.686 1.046 4.053.854 1.354-.19 3.627-1.92 3.627-1.92 0 0-4.861 6.03-6.188 9.6-1.426 3.836-3.773 8.626-1.705 12.158 1.581 2.701 5.615 3.38 8.744 3.412 2.272.023 4.407-1.255 6.4-2.346 1.959-1.072 5.332-4.053 5.332-4.053 0 0-1.468 3.181-2.346 4.693-.643 1.109-2.494 1.969-2.133 3.199.853 2.902 5.308 3.325 8.318 3.627 4.052.406 11.945-2.561 11.945-2.561 0 0-2.289 2.262-3.412 3.414-1.363 1.399-4.04 4.25-4.04 4.25 0 0 5.784 1.744 8.727 1.508 4.797-.384 9.305-2.627 13.652-4.691 8.769-4.164 16.705-9.918 24.744-15.359 6.654-4.504 14.603-7.854 19.412-14.291 4.254-5.694 7.252-20.05 7.252-20.05l-5.332-6.398c0 0 3.756-.972 5.545-1.707 3.413-1.402 6.9-2.855 9.813-5.119 2.347-1.825 5.744-3.67 6.871-6.273 1.924-.202 3.843-.427 5.271-.68 4.879-.863 9.839-1.709 14.422-3.592 2.861-1.176 5.726-2.618 7.98-4.736 1.853-1.74 4.295-6.303 4.295-6.303 0 0 3.376-1.234 4.826-2.262 3.162-2.24 6.03-5.05 8.145-8.297 2.643-4.055 4.4-8.749 5.373-13.49.936-4.56.359-13.961.359-13.961 0 0 3.03-9.601 2.564-14.48-.435-4.555-1.818-9.446-4.91-12.818-.932-1.016-2.305-2.071-3.67-2.113zm-7.01 23.381c.629-.023 1.256.035 1.852.182 1.043.256 1.943 1.015 2.662 1.813.933 1.036 2.262 4.578 2.262 4.578 0 0-1.945 1.927-3.285 2.781-1.048.668-2.607.975-3.85.967-1.47-.001-3.044-.544-4.135-1.529-.733-.663-1.151-1.686-1.303-2.662-.158-1.019-.001-2.138.453-3.059.492-.978 1.337-1.845 2.322-2.322.92-.445 1.974-.709 3.02-.748zm-14.635 27.15c1.404.134 3.374 1.205 4.305 2.266 1.104 1.257 1.333 2.3 1.475 3.967.102 1.207-.169 2.87-.646 3.982-.294.684-.652 1.879-.652 1.879 0 0-3.537-.526-4.877-1.217-1.431-.738-2.889-1.331-3.795-2.662-.591-.869-1.119-2.127-1.02-3.174.134-1.413.599-3.067 1.699-3.965.949-.774 2.293-1.192 3.512-1.076z" stroke-width="2"/><path d="m243.2 613.7c0 0-4.611 7.179-6.03 11.162-2.411 6.751-3.286 13.991-4.073 21.12-.563 5.1-.452 15.385-.452 15.385l4.676 1.659c0 0 .015-8.929.905-13.273 1.346-6.574 3.097-13.305 6.637-19.01 1.894-3.051 7.542-7.693 7.542-7.693 0 0-3.576-2.644-5.128-4.223-1.53-1.557-4.073-5.128-4.073-5.128z" stroke-width="3"/></g><circle cx="230.38" cy="663.47" r="10.03" stroke-width="3"/></g><g fill="none" fill-rule="evenodd"><g stroke-width="2"><path d="m269.71 623.69c0 0 .977-1.607 1.398-2.446.403-.803.794-1.619 1.078-2.471.254-.763.553-2.348.553-2.348"/><path d="m262.21 624c0 0 1.743-2.089 2.371-3.285.3-.571.649-1.824.649-1.824"/><path d="m282.03 593.99c0 0 1.2-.733 1.719-1.2.988-.889 1.876-1.905 2.614-3.01.849-1.27 2.048-4.1 2.048-4.1"/><path d="m282.16 586.22c0 0 1.177-1.542 1.599-2.408.417-.854.673-1.783.901-2.706.203-.819.415-2.497.415-2.497"/></g><g stroke-width="3"><path d="m171.36 574.27c0 0 3.082 4.33 2.956 6.798-.277 5.419-7.677 8.769-7.98 14.187-.352 6.303 7.36 11.125 7.389 17.438.022 4.903-4.315 8.868-5.616 13.596-1.083 3.936-.14 8.376-1.773 12.12-2.074 4.752-7.192 7.61-9.753 12.12-3.634 6.396-6.95 13.369-7.684 20.689-.508 5.061.406 10.38 2.364 15.07 1.791 4.292 8.276 11.231 8.276 11.231"/><path d="m184.96 655.26c0 0-13.382-11.908-20.985-16.551-6.471-3.952-13.577-6.828-20.689-9.458-10.383-3.839-21.867-4.528-31.92-9.162-6.973-3.215-19.211-12.709-19.211-12.709"/><path d="m150.73 663.03c0 0-6.398 2.521-9.695 3.481-2.383.694-4.796 1.365-7.263 1.64-1.552.173-4.686 0-4.686 0"/><path d="m148.9 671.22c0 0-3.349 6.742-5.755 9.591-1.858 2.2-4.107 4.113-6.56 5.623-1.729 1.064-5.623 2.343-5.623 2.343"/><path d="m145.72 653.16c0 0 4.125.507 6.091 0 1.759-.453 4.77-2.634 4.77-2.634 0 0 .493 2.866.852 4.274.324 1.268 1.171 3.749 1.171 3.749"/><path d="m167.04 637.46c0 0 8.11-.986 12.183-.937 6.201.075 12.418 3.041 18.509 1.874 4.323-.828 8.573-3.01 11.714-6.091 4.315-4.235 3.29-13.172 8.669-15.932 1.681-.862 5.623.703 5.623.703"/><path d="m171.02 605.6c0 0 2.041-5.72 3.983-7.966 3.486-4.03 13.12-9.137 13.12-9.137"/><path d="m169.38 622c0 0-1.172-3.854-2.109-5.623-.76-1.436-2.811-3.983-2.811-3.983"/><path d="m136.35 626.92c0 0-10.659-.405-15.932.234-4.137.502-8.723.488-12.183 2.811-1.349.906-2.811 3.983-2.811 3.983"/><path d="m181.8 637c0 0 5.526 2.635 7.966 4.451 2.968 2.21 7.966 7.731 7.966 7.731"/><path d="m195.86 638.87c0 0 6.135-6.247 7.03-10.309.613-2.784-2.389-5.759-1.406-8.434 1.129-3.069 7.497-6.326 7.497-6.326"/><path d="m204.99 637c.703 0 4.316-.097 6.091.937 1.633.952 3.514 4.451 3.514 4.451"/><path d="m182.74 636.29c0 0 4.057-2.713 5.389-4.686 1.34-1.986 2.343-6.794 2.343-6.794"/><path d="m152.51 633.01c0 0-4.513.31-6.56 1.171-1.858.782-4.92 3.514-4.92 3.514"/><path d="m133.54 626.69c0 0-7.155-7.132-8.903-11.714-1.061-2.781-.703-8.903-.703-8.903"/><path d="m152.28 632.78c0 0-2.527-4.528-3.046-7.03-.428-2.065 0-6.326 0-6.326"/><path d="m169.62 622c0 0 4.327-.882 6.091-2.109 1.412-.982 3.28-3.983 3.28-3.983"/><path d="m172.66 610.05c0 0-5.696-4.477-7.966-7.263-1.836-2.253-2.521-5.324-4.451-7.497-1.96-2.207-7.03-5.389-7.03-5.389"/></g></g><g fill="#fff" stroke-linejoin="round" stroke-width="3"><circle cx="195" cy="665.51" r="10.03"/><circle cx="246.97" cy="674.03" r="10.03"/><circle cx="198.88" cy="700.23" r="10.03"/><circle cx="213.33" cy="658.5" r="10.03"/><circle cx="184.4" cy="676.1" r="10.03"/><circle cx="169.14" cy="670.41" r="10.03"/><circle cx="232.06" cy="779.27" r="10.03"/><circle cx="245.91" cy="790.02" r="10.03"/><circle cx="248.05" cy="806.36" r="10.03"/><circle cx="232.97" cy="794.59" r="10.03"/><circle cx="232.67" cy="754.32" r="10.03"/><circle cx="211.4" cy="751.9" r="10.03"/><circle cx="253.3" cy="744.92" r="10.03"/><circle cx="204.46" cy="734.41" r="10.03"/><circle cx="196.29" cy="718.98" r="10.03"/><circle cx="183.62" cy="708.87" r="10.03"/><circle cx="182.68" cy="733.16" r="10.03"/><circle cx="202.2" cy="747.68" r="10.03"/><circle cx="218.58" cy="763.63" r="10.03"/><circle cx="243.68" cy="771.81" r="10.03"/><circle cx="251.82" cy="755.52" r="10.03"/><circle cx="221.81" cy="720.68" r="10.03"/><circle cx="220.15" cy="738.18" r="10.03"/><circle cx="235.98" cy="737.27" r="10.03"/><circle cx="254.36" cy="731.5" r="10.03"/><circle cx="268.56" cy="709.22" r="11.235"/><circle cx="254.08" cy="713.89" r="10.03"/><circle cx="225.73" cy="703.49" r="10.03"/><circle cx="207.9" cy="716.42" r="10.03"/><circle cx="243.98" cy="701.07" r="10.03"/><circle cx="237.34" cy="719.93" r="10.03"/><circle cx="212.61" cy="674.53" r="10.03"/><circle cx="201.29" cy="683.73" r="10.03"/><circle cx="178.52" cy="690.67" r="10.933"/><circle cx="231.61" cy="683.58" r="10.03"/><circle cx="214.72" cy="696.4" r="10.03"/><circle cx="277.16" cy="674.22" r="10.03"/><circle cx="262.65" cy="686.4" r="11.536"/><circle cx="256.95" cy="661.86" r="10.03"/></g></g></g></g></svg>