<?xml version="1.0" encoding="UTF-8"?>
<!DOCTYPE svg  PUBLIC '-//W3C//DTD SVG 1.1//EN'  'http://www.w3.org/Graphics/SVG/1.1/DTD/svg11.dtd'>
<svg width="750" height="450" version="1.1" viewBox="0 0 750 450" xml:space="preserve" xmlns="http://www.w3.org/2000/svg">
<desc>Created with Fabric.js 3.6.3</desc>

<g transform="translate(375 225)">
<g style="">
		<g id="rect2576">
<rect x="-375" y="-225" width="750" height="450" rx="0" ry="0" fill="#fff" fill-rule="evenodd"/>
</g>
		<g id="path809" transform="matrix(2.08 0 0 2.08 -9.77 -.15)">
<path transform="translate(-152.92 -336.75)" d="m215.37 385.6c-16.007 7.4032-19.919 17.152-26.988 24.928s-17.608 24.503-38.107 18.848c-0.643-4.1892-3.2908-15.743-11.02-20.968-4.7763-2.9093-10.603-7.0687-11.663-14.137-8.4824 2.1206-29.724 3.8167-30.749-7.4221-0.35344-3.8878 2.9771-9.8442-0.58492-13.945-0.80455 0.0256-5.3124 0.1159-6.4942-0.4355-1.2366-1.4609-0.01583-6.776 0.88047-7.9563l-0.00959-0.0492c-2.116-0.1929-7.5756-5.1819-0.86042-8.7162 1.7709-2.0817 1.4608-3.7827 1.455-5.7013-1.1096 0.0151-3.8363-0.0162-4.2352-0.0429-7.0783-0.0263-6.1691-4.5929-4.1303-9.4535 1.4137-3.1809 9.3846-18.379 10.798-20.499 1.4137-2.1206 1.4137-3.1809 0.35347-5.3015-1.0603-2.1207-0.70691-5.655 0-8.129 0.70684-2.4741 2.1206-6.3619 1.0603-7.4222-1.0603-1.0603-0.70687-4.5946-0.35343-5.3015 0.35343-0.7069 0.35343-2.474 0.35343-3.1809s0.35343-2.474 1.4137-3.1809c1.0603-0.7069 1.7672-3.1809 1.0603-3.8878-0.70686-0.7069 0.35343-5.6549 1.4137-6.0084 1.0604-0.3534 3.181-1.0603 4.2413-3.5343-0.1253-3.4904 2.6163-7.4515 4.2412-9.1893 1.0603-1.0603 0.7069-4.5947 0.7069-4.5947l3.1097 0.0712c0.3388-0.1129 2.8986-3.6055 5.3727-4.3124 2.474-0.7068 8.129-3.5343 8.129-3.5343l3.8878-4.2412 3.5343 1.7671s2.8275-1.0603 5.3015-1.4137c2.4741-0.3534 7.7756-2.1206 9.5428-4.9481 1.7671-2.8275 1.4137 3.365 1.4702 3.7038 0.2258 0.0564 3.1244-1.5832 8.0725-1.2297 4.9481 0.3534 10.603 2.474 12.37 1.7671 1.7672-0.7068 3.5343 1.4138 3.5343 1.4138s3.5344 2.1206 6.3619 2.1206h5.3015l0.3534 2.474s5.3015 1.8237 7.7756 2.884c2.474 1.0602 4.5946 2.4175 7.7755 2.771 3.1809 0.3534 4.2412 1.4137 4.2412 1.4137l-1.4137 2.8275s3.8167 0.778 4.9481 4.5946c2.1206 2.8275 4.9481 7.4222 7.0687 7.7756s3.5343 1.4137 3.5343 1.4137l-2.8274 3.5344s0.7068 1.0603 2.1206 2.474c1.4137 1.4138 4.2412 3.8878 4.2412 3.8878l-1.7672 3.1809s0 0.7069 0.3534 2.474c0.3535 1.7672 0.3535 4.9481 2.1206 5.655 1.7672 0.7069 1.7672 2.8275 1.7672 2.8275s0.3535 0.3534-1.7672 1.0603c-2.1206 0.7069-3.5343 0.7069-2.474 2.1206s2.8275 3.8878 2.8275 3.8878-1.7672 1.0603-3.5344 1.4137c-1.7671 0.3534-3.5343 0.3534-3.5343 0.3534s1.4137 6.7153 2.8275 7.7756c1.4137 1.0603-2.1207 1.7672-4.2413 0.7069s-0.7955 3.1809 0.6183 3.5343-0.5131 0.848-2.1742 0.8655c-1.4137-0.3534-3.2334-0.1061-2.4205 1.9795 1.0604 2.8274 2.2093 4.2237-0.6182 5.6374-2.8275 1.4138-5.3902 7.7756-3.9764 9.8962s2.2092 5.3015 2.2092 5.3015l-6.7152 0.3535s-0.4596 1.0603 1.3076 2.8274c1.7671 1.7672 3.5343 3.7817 3.287 4.2763 0.0534 0.7649-5.3189 0.4546-5.2655 1.2194 4.5705 22.592 15.426 28.929 15.441 30.119l-0.8596 0.6017z" fill-rule="evenodd" stroke="#000"/>
</g>
		<g id="path792" transform="matrix(2.08 0 0 2.08 -9.71 -53.42)">
<path transform="translate(-152.95 -311.16)" d="m102.76 277.38c-2.3554 1.7666-4.4164 4.7109-2.3554 6.4775 2.6498 2.3554 3.8275 3.2387 3.8275 3.2387s-4.7108-1.4722-5.5941 0.2944-1.9141 4.4535 0 5.0053c1.4721 0.8833 4.7108 2.6499 4.7108 2.6499s-7.3607-0.8833-5.5941-0.5889c-0.88328 2.3554-1.7666 6.4774 2.9443 8.244 4.7109 1.7666 19.432 7.0663 22.082 8.5385 2.6498 1.4721 8.5384 2.3554 11.483 2.3554s13.839 0.5888 12.072 0.5888l-6.4775 1.7666c-1.1048 0.1105 13.397 4.9307 15.532 4.4899 1.1407-2.6505 15.972-16.562 24.216 0.5154 0.8833 3.8276-2.061 9.7162-5.0053 10.894-2.9442 1.1777-4.4164 2.6498-5.5941 5.8886-1.1777 3.2387-4.1931 9.0161-7.433 8.539-4.4553-2.9078-6.4052-2.6505-4.3442-0.295 2.282 3.2393 7.6181 3.3868 10.305-0.5889 2.245-2.7603 4.2678-9.8995 8.8329-11.777 2.3554-0.8833 5.2997-6.4775 5.2997-6.4775s4.122-0.2944 5.8886 1.4722c1.7666 1.7665 6.183 1.7665 8.8329 1.4721 2.6498-0.2944 7.1034-1.2876 5.6312-1.2876-1.4721 0 4.0862-0.1839 5.8527 0.1105 1.7666 0.2944 1.1765-4.417-1.7678-6.7725-2.9442-2.3554-11.188-6.183-12.955-8.5384s-14.427-9.4217-17.96-9.7162c-3.5331-0.2944-7.9496-2.6498-7.9496-2.6498s6.6255-0.1099 3.3868-0.6988c-3.2387-0.5888-9.5698-3.1288-12.808-4.3065s-5.8886-1.1777-9.4217-1.1777c-3.5332 0-26.988-5.7447-32.841-9.3161-4.4164-1.4721 20.953 5.8934 23.898 6.1879 5.0053 0.7361 6.588-0.2577-1.6561-4.2326-3.5331-2.061-19.268-10.312-31.861-13.76-1.2891 1.2891-0.8203 1.6885-3.1757 3.455z" fill="#fff" fill-rule="evenodd" stroke="#000" stroke-width=".125"/>
</g>
		<g id="path817" transform="matrix(2.08 0 0 2.08 14.39 -9.95)">
<path transform="translate(-164.53 -332.04)" d="m167.05 325.85c0.1147 0.0133 0.5895 0.0972 0.8941 0.416 0.3378 0.4358 0.6241 0.8269 0.7947 1.2478 0.1252 0.5615 0.2899 1.0254 0.1987 1.5598-0.1905 0.5235-0.4462 0.8957-0.7948 1.2478-0.3935 0.4858-0.6796 0.7319-1.0927 1.0399-0.4606 0.2181-0.9021 0.6428-1.2916 0.8318-0.1865 0.2527-0.6657 0.4391-0.8941 0.7279-0.2647 0.355-0.4691 0.5314-0.4967 1.0399-0.1719 0.505-0.2293 1.1271-0.2981 1.6638-0.0976 0.5902-0.236 1.1441-0.298 1.6638-0.248 0.4451-0.519 0.6735-1.0928 0.8319-0.4748 0.0842-0.9659 0.104-1.4901 0.104-0.2969-0.284-0.8029-0.6048-1.0929-0.9359v-0.832" fill="none" stroke="#fff" stroke-linecap="round" stroke-width="2.5298"/>
</g>
		<g id="path818" transform="matrix(2.08 0 0 2.08 18.61 -29.97)">
<path transform="translate(-166.55 -322.43)" d="m158.77 323.53c2.5412-4.088 18.451-11.601 14.584 2.9831-0.8839 1.5468 0.7734 2.2097 1.2154 1.1049 4.088-17.236-13.479-10.054-16.241-5.5243-1.1049 1.8783 0.4419 1.5468 0.4419 1.4363z" fill="#fff" fill-rule="evenodd" stroke="#fff"/>
</g>
		<g id="path823" transform="matrix(2.08 0 0 2.08 -76.04 -71.73)">
<path transform="translate(-121.09 -302.37)" d="m101.43 298.67c5.9662-0.1105 12.264 0.2209 17.125 3.3145 4.8614 3.0936 9.1703 3.9775 14.363 3.9775 5.1929 0 7.8445 0.1105 7.8445 0.1105v0" fill="none" stroke="#000" stroke-linecap="round" stroke-width="2"/>
</g>
		<g id="path824" transform="matrix(2.08 0 0 2.08 49.55 -47.05)">
<path transform="translate(-181.41 -314.22)" d="m174.85 307.63c9.9703 3.8593 11.737 4.9945 15.947 7.7187s5.7661 3.1782 9.3111 5.4484c2.6369 1.5891 4.2097 3.4053 4.2097 3.4053 2.2702 1.8162-9.8503-7.0376-17.725-5.2214-2.8803 0-3.3235 0-5.9822-2.9513-2.6587-2.9512-5.7606-5.4484-10.192-7.2646-4.4312-1.8162-12.186-4.7674-12.186-4.7674" fill="none" stroke="#000" stroke-width="1.9758"/>
</g>
		<g id="path826" transform="matrix(2.08 0 0 2.08 75.72 -21.32)">
<path transform="translate(-193.99 -326.58)" d="m185.93 324.88c0.6043 0 3.1193-0.0954 4.0864 0.227 0.8438 0.114 2.194 0.2236 2.9512 0.4541 1.2838 0.1528 2.4672 0.42 3.8593 0.454 1.4974 0.0135 2.0298 0.4707 3.4053 0.681 0.43 0.5375 1.2423 1.1832 1.8162 1.5892" fill="none" stroke="#000" stroke-linecap="round" stroke-width="1.75"/>
</g>
		<g id="path808" transform="matrix(2.08 0 0 2.08 -96.52 -27.54)">
<path transform="translate(-111.26 -323.59)" d="m103.56 316.52c3.6608 5.0488 9.2712 7.8171 15.403 9.1303-0.1549 1.4838-7.4424 1.5786-10.158 5.0195" fill="none" stroke="#fff" stroke-width="2.25"/>
</g>
		<g id="path865" transform="matrix(2.08 0 0 2.08 150.9 -147.84)">
<path transform="translate(-230.1 -265.81)" d="m240.5 258.37c0.1171 1.2891 0.522 6.9181-0.0391 6.9815-3.1782 0.454-5.3702 0.9862-8.0945 3.7104-2.7242 2.7242-8.9586 7.3626-12.493 0.9959-1.8162-3.6323 2.607-5.3313 4.8772-5.3313 2.2311-0.0781 5.7366-1.8014 9.3689-2.7096 3.6324-0.908 5.1066-3.2416 5.5606-2.7875l0.8203-0.8594z" fill="none" stroke="#000" stroke-width="2"/>
</g>
		<g id="path863" transform="matrix(2.08 0 0 2.08 210.54 -142.34)">
<path transform="translate(-258.74 -268.45)" d="m254.81 272.27c0.4976-0.2737 2.853-3.4211 1.6339-7.2571-1.7666-2.6498 7.9993 2.8531 5.9383 5.7974-2.6084 2.0319-7.7755 2.0071-7.5722 1.4597z" fill="none" stroke="#000" stroke-width="2"/>
</g>
		<g id="path864" transform="matrix(2.08 0 0 2.08 163.51 -165.47)">
<path transform="translate(-236.15 -257.35)" d="m231.56 259.98c-0.0419-0.6005-0.1146-5.9725-0.0234-7.1586 1.8247-0.2737 7.2281-1.0574 8.4058 0.7092 4.1885 6.3284-8.0098 9.4812-8.3043 8.5979l-0.0781-2.1485z" fill="none" stroke="#000" stroke-width="2"/>
</g>
		<g id="path862" transform="matrix(2.08 0 0 2.08 168.1 -77.75)">
<path transform="translate(-238.35 -299.48)" d="m221.7 272.67 7.6551 26.499s4.3215 18.81-8.8329 23.849c-4.122 0.2945-5.5941-0.2944-5.5941-0.2944l1.1777 6.4774c5.8391 6.0215 9.6043 4.599 14.61 2.538 5.0053-2.061 5.2085-2.2228 7.8583-3.695 2.6499-1.4721 6.3033-9.7703 6.7097-12.13 1.1362-6.1002 4.9717-18.083 16.488-43.538-2.0778-0.1824-15.626 1.1861-16.538 1.1861-0.4562 0.7298-2.5868 4.2106-5.8678 5.5858-3.6036 1.4721-8.7943-2.7715-3.5331-6.183 2.5711-1.6387 11.102 0.2925 10.944-4.1635-0.2172-3.8717-5.9384-3.4916-8.2938-3.1972s-5.5941 2.9443-7.0663 4.4164c-3.2968 3.2969-7.9496 3.8276-9.7161 2.6499z" fill="none" stroke="#000" stroke-width="2"/>
</g>
		<g id="path859" transform="matrix(2.08 0 0 2.08 146.21 34.89)">
<path transform="translate(-227.84 -353.58)" d="m209.93 335.68c1.7666 2.9442 3.5332 6.4774 4.4165 11.188 0.8832 4.7108 3.4335 11.3 10.01 12.955 5.2997 1.4722 10.011 3.8276 11.188 7.9496s2.0196 9.3803 2.0196 9.2891l8.1942-11.595c-0.0913-1.5509-0.1535-5.3287-0.1535-9.7451-0.0912-6.4237-4.8518-7.9911-9.5626-9.7577-4.7109-1.7665-9.9899-3.9602-11.462-6.6101-1.4722-2.6498-5.2293-7.2073-7.2903-8.9739-2.061-1.7665-7.3607 5.2998-7.3607 5.2998z" fill="none" stroke="#000" stroke-width="2"/>
</g>
		<g id="path860" transform="matrix(2.08 0 0 2.08 157.46 113.7)">
<path transform="translate(-233.24 -391.43)" d="m218.59 390.34c4.5512 8.1837 5.5931 18.692 7.4648 26.521 3.2475-6.1683 8.3033-10.566 13.633-14.027 0.3123-6.1417 1.8678-14.62 3.6343-17.27 8.5328-12.435 2.5279-19.554 2.5279-19.554-8.5265 10.014-8.8207 17.178-27.245 24.316l-0.0147 0.0149z" fill="none" stroke="#000" stroke-width="2"/>
</g>
		<g id="path866" transform="matrix(2.08 0 0 2.08 125.7 161.95)">
<path transform="translate(-217.99 -414.61)" d="m210.48 415.63c-0.2344 2.0311 2.4835 9.0927 7.0839 9.408 4.5194 0.3097 7.1267-3.1668 7.953-7.2306l-2.2645-13.647-12.772 11.47z" fill="none" stroke="#000" stroke-width="2"/>
</g>
		<g id="path912" transform="matrix(2.08 0 0 2.08 112.06 -17.08)">
<path transform="translate(-211.44 -328.62)" d="m210.45 325.11c-0.9081-2.4972 0.454-2.4973 2.9513-1.3622 4.0863 2.4973 1.135 8.8538-3.4053 10.216-2.4973 1.1351-3.8594-1.8161-0.227-3.1782 3.4053-0.9081 0.681-5.9025 0.681-5.6755h0.227-0.227z" fill="#fff" fill-rule="evenodd" stroke="#000"/>
</g>
		<g id="path955" transform="matrix(2.08 0 0 2.08 171.91 66.33)">
<path transform="translate(-240.19 -368.68)" d="m239.96 363.96v0.3081c0-0.8313-0.0149-0.4087 0.227 1.2315 0 1.666 0.1247 3.0652 0.227 4.6187 0 1.2868-0.1525 2.2085-0.227 3.3871" fill="none" stroke="#000" stroke-width="1.25"/>
</g>
		<g id="path956" transform="matrix(2.08 0 0 2.08 167.42 69.6)">
<path transform="translate(-238.03 -370.25)" d="m237.69 365.5v0.5622c0-1.04-0.0298-0.7463 0.227 0.8434 0.0914 1.5842 0.409 2.4118 0.454 3.9358 0 1.5465-0.1846 2.7472-0.227 4.217" fill="none" stroke="#000" stroke-width="1.25"/>
</g>
		<g id="path957" transform="matrix(2.08 0 0 2.08 164.58 135.85)">
<path transform="translate(-236.67 -402.07)" d="m236.55 399.35h0.227c-0.0605 0.2135 0 1.4304 0 2.2434 0 1.2236-0.0231 2.4183-0.227 3.205" fill="none" stroke="#000" stroke-width="1.25"/>
</g>
		<g id="path958" transform="matrix(2.08 0 0 2.08 159.4 138.21)">
<path transform="translate(-234.18 -403.21)" d="m234.06 400.48v0.454-0.454 0.454-0.454c0.0491 1.6775 0.2271 2.6056 0.2271 4.3134 0 0.522 0.0982 0.9182-0.2271 1.1351" fill="none" stroke="#000" stroke-width="1.25"/>
</g>
		<g id="path960" transform="matrix(2.08 0 0 2.08 154.89 142.46)">
<path transform="translate(-232.01 -405.25)" d="m231.79 401.84c0.0923 1.8282 0.3981 3.0248 0.454 4.9036 0 0.9436-0.1894 1.0488-0.227 1.907" fill="none" stroke="#000" stroke-width="1.25"/>
</g>
		<g id="path961" transform="matrix(2.08 0 0 2.08 149.22 147.11)">
<path transform="translate(-229.29 -407.48)" d="m229.06 403.23v0.2868c0-0.7744-0.0148-0.3803 0.227 1.1475 0.0414 1.4096 0.2271 2.1692 0.2271 3.7294-0.0424 1.4986-0.3738 2.1231-0.4541 3.4423" fill="none" stroke="#000" stroke-width="1.25"/>
</g>
		<g id="path963" transform="matrix(2.08 0 0 2.08 144.26 150.26)">
<path transform="translate(-226.91 -408.99)" d="m227.02 404.11c0 0.4056 0.1229 1.9795 0.2271 2.9512v3.1783c-0.126 1.0579-0.3569 2.1949-0.6811 2.9513v0.681" fill="none" stroke="#000" stroke-width="1.25"/>
</g>
		<g id="path977" transform="matrix(2.08 0 0 2.08 176.12 62.92)">
<path transform="translate(-242.21 -367.04)" d="m242.23 364.46c0.0577 0.4264 0.3941 2.0547 0 3.1013 0 0.9252-0.1056 1.3997-0.227 2.0676" fill="none" stroke="#000" stroke-width="1.25"/>
</g>
		<g id="path978" transform="matrix(2.08 0 0 2.08 138.66 -28.5)">
<path transform="translate(-224.22 -323.13)" d="m216.02 325.2c3.0469 0.625 10.469 0 13.438-2.1875l2.9688-2.1875" fill="none" stroke="#000"/>
</g>
		<g id="path979" transform="matrix(2.08 0 0 2.08 139.19 -21.81)">
<path transform="translate(-224.47 -326.35)" d="m216.03 326.7c2.9103 1.0973 10.338 1.6496 13.614-0.0428l3.2764-1.6924" fill="none" stroke="#000"/>
</g>
		<g id="path980" transform="matrix(2.08 0 0 2.08 124.84 -4.67)">
<path transform="translate(-217.58 -334.58)" d="m215.78 330.67c1.5625 1.875 2.6563 2.8125 3.125 5.3125l0.4688 2.5" fill="none" stroke="#000"/>
</g>
		<g id="path981" transform="matrix(2.08 0 0 2.08 121.75 -1.58)">
<path transform="translate(-216.09 -336.06)" d="m213.91 331.61c1.875 2.6563 3.125 3.5938 3.75 6.25l0.625 2.6563" fill="none" stroke="#000"/>
</g>
		<g id="path982" transform="matrix(2.08 0 0 2.08 122.89 10.13)">
<path transform="translate(-216.64 -341.69)" d="m212.34 333.33c0.7813 4.0625 3.9063 11.719 6.25 14.219l2.3438 2.5" fill="none" stroke="#000"/>
</g>
		<g id="path983" transform="matrix(2.08 0 0 2.08 132.01 167.23)">
<path transform="translate(-221.02 -417.15)" d="m224.06 419.63c-1.5767-0.204-4.6437-2.7505-5.332-3.6652-0.6883-0.915-0.7388-1.3003-0.7388-1.3003" fill="none" stroke="#000" stroke-width="1.1958"/>
</g>
		<g id="path984" transform="matrix(2.08 0 0 2.08 129.13 171.15)">
<path transform="translate(-219.64 -419.03)" d="m222.97 421.7c-1.7047-0.4129-5.0234-3.2051-5.7686-4.1493-0.7455-0.9445-0.8959-1.1908-0.8959-1.1908" fill="none" stroke="#000" stroke-width="1.1957"/>
</g>
		<g id="path985" transform="matrix(2.08 0 0 2.08 126.55 175.41)">
<path transform="translate(-218.4 -421.07)" d="m222.03 423.6c-1.8001-0.1981-5.5241-3.0168-6.3953-4.0379l-0.8713-1.0214" fill="none" stroke="#000" stroke-width="1.3526"/>
</g>
		<g id="path986" transform="matrix(2.08 0 0 2.08 181.57 -103.29)">
<path transform="translate(-244.83 -287.21)" d="m244.4 282.04c-0.2298 1.8959-0.3447 5.6302 0.3447 7.9857l0.6894 2.3555" fill="none" stroke="#000"/>
</g>
		<g id="path987" transform="matrix(2.08 0 0 2.08 187.43 -123.15)">
<path transform="translate(-247.64 -277.67)" d="m249.91 276.06c-1.3213 0.4596-3.2747 1.4937-3.9066 2.3555-0.632 0.8618-0.632 0.8618-0.632 0.8618" fill="none" stroke="#000"/>
</g>
		<g id="path988" transform="matrix(2.08 0 0 2.08 161.02 -96.86)">
<path transform="translate(-234.96 -290.3)" d="m233.97 277.76c2.8461 5.0023 1.9629 21.347 1.3741 23.208l-0.5889 1.8613" fill="none" stroke="#000" stroke-width="1.3151"/>
</g>
		<g id="path989" transform="matrix(2.08 0 0 2.08 135.7 -140.57)">
<path transform="translate(-222.79 -269.31)" d="m224.69 267.63c-1.1719 0.3906-3.5938 2.3047-3.7891 3.3593" fill="none" stroke="#000"/>
</g>
		<g id="path990" transform="matrix(2.08 0 0 2.08 139.6 -137.72)">
<path transform="translate(-224.67 -270.67)" d="m226.56 268.99c-1.1719 0.3906-3.5938 2.3047-3.7891 3.3593" fill="none" stroke="#000"/>
</g>
		<g id="path1049" transform="matrix(2.08 0 0 2.08 -106.35 -26.1)">
<path transform="translate(-129.04 -95.53)" d="m129.67 92.309c-2.3207-0.12456-2.509 6.6046 0.4816 6.4488" fill="none" stroke="#feffff" stroke-width="1.45"/>
</g>
		<g id="path1051" transform="matrix(2.08 0 0 2.08 -102.69 -26.1)">
<path transform="translate(-130.79 -95.53)" d="m130.16 92.309c2.3207-0.12456 2.509 6.6046-0.4816 6.4488" fill="none" stroke="#feffff" stroke-width="1.45"/>
</g>
		<g id="path1052" transform="matrix(2.08 0 0 2.08 -104.42 -26.67)">
<path transform="translate(-129.96 -95.26)" d="m130 92.443-0.0797 5.6392" fill="none" stroke="#feffff" stroke-width="3.5718"/>
</g>
</g>
</g>
</svg>
