<?xml version="1.0" encoding="UTF-8"?>
<svg id="svg2" width="900" height="600" version="1.1" xmlns="http://www.w3.org/2000/svg" xmlns:cc="http://creativecommons.org/ns#" xmlns:dc="http://purl.org/dc/elements/1.1/" xmlns:rdf="http://www.w3.org/1999/02/22-rdf-syntax-ns#">
 <metadata id="metadata223">
  <rdf:RDF>
   <cc:Work rdf:about="">
    <dc:format>image/svg+xml</dc:format>
    <dc:type rdf:resource="http://purl.org/dc/dcmitype/StillImage"/>
   </cc:Work>
  </rdf:RDF>
 </metadata>
 <rect id="rect4" width="900" height="600" fill="#ed2939"/>
 <g id="g952" transform="translate(-3.4576)" shape-rendering="auto">
  <path id="path954" d="m303.46 151.19h600m-225 300v-450" color="#000000" color-rendering="auto" dominant-baseline="auto" image-rendering="auto" solid-color="#000000" stop-color="#000000" style="font-feature-settings:normal;font-variant-alternates:normal;font-variant-caps:normal;font-variant-east-asian:normal;font-variant-ligatures:normal;font-variant-numeric:normal;font-variant-position:normal;font-variation-settings:normal;inline-size:0;isolation:auto;mix-blend-mode:normal;shape-margin:0;shape-padding:0;text-decoration-color:#000000;text-decoration-line:none;text-decoration-style:solid;text-indent:0;text-orientation:mixed;text-transform:none;white-space:normal"/>
  <path id="path956" d="m648.46 0v120h-195v60h195v120h60v-120h195v-60h-195v-120z" color="#000000" color-rendering="auto" dominant-baseline="auto" fill="#fff" image-rendering="auto" solid-color="#000000" stop-color="#000000" style="font-feature-settings:normal;font-variant-alternates:normal;font-variant-caps:normal;font-variant-east-asian:normal;font-variant-ligatures:normal;font-variant-numeric:normal;font-variant-position:normal;font-variation-settings:normal;inline-size:0;isolation:auto;mix-blend-mode:normal;shape-margin:0;shape-padding:0;text-decoration-color:#000000;text-decoration-line:none;text-decoration-style:solid;text-indent:0;text-orientation:mixed;text-transform:none;white-space:normal"/>
 </g>
 <rect id="rect950" x="450" y="300" width="450" height="300" fill="#ffd203"/>
 <g id="lion" transform="translate(-1.1338e-5 306)" stroke="#000" stroke-width=".8925">
  <g id="g11" fill="#fff">
   <path id="path13" d="m243.68 188.16c-10.64 5.5667-20.767 5.8989-27.859 2.5601-7.094-3.3403 1.1816 4.4527 4.7278 7.793 3.5463 3.3403 2.3647 6.6806 2.3647 10.019 0 3.3418-0.0625 7.6681 0.88885 11.686-7.0925 1.1139-13.892-1.6656-19.803-5.0044 3.4807 3.8234 2.9974 6.0589 5.6182 9.0563-5.9887 0.0503-11.64-5.0287-16.586-7.5172 2.5659 2.9929 4.7309 7.6635 6.9324 11.086-4.83 0.49373-10.572-5.271-12.916-7.185 0.75621 1.498 2.29 7.9942 3.0721 12.162-5.7768-1.4233-7.1565-9.8655-11.389-9.2239 0.0137 0.93412-1.174 3.9879 0.0915 6.8421 2.4988 5.6429-3.1819 3.3174-5.0587 2.8694-4.9611 0.0564-6.3515 1.402-5.3895-5.876-1.1816-2.2279-4.5693-4.4222-4.5693 0.0335 0 4.4527-3.1209 9.963-6.1549 9.963-3.034 0-4.8864-3.799-6.0451-6.9564-5.449-4.1678-2.4744-7.6909 2.2549-6.577 4.7278 1.114 1.1587-6.6806-2.3875-4.4542-3.5478 2.2264-10.665 2.2751-9.4816-1.0667 1.1816-3.3403 1.8524-5.9918 0.66931-10.444-1.1816-4.4542 4.3512-3.6969 6.7159-1.4705 2.3632 2.2279 3.4121 4.9358 8.1399 3.8234 4.7294-1.114 0.35371-4.9373-3.1925-6.0726-3.5478 0-3.1941-4.2531 2.4363-6.9336 3.9259-6.6501 9.727-7.3801 8.7879-0.50593 0 3.3418 1.5963 10.045 15.99 8.427 10.64-1.1139 12.409-9.1934 8.1414-13.442-2.6574-2.0999-5.4718-6.3865-5.8484-14.399-1.7304 1.4141-4.089 2.4961-7.3029 2.5753-5.4444 0.32763-7.2434-1.9947-11.921-3.8599 2.9135-1.5254 7.2419-3.8889 11.488-3.1194 3.499 0.0366 6.8928-1.8347 8.1841-5.1293 2.3662-5.5651 7.4874-5.6002 12.092-4.5792 5.1547 1.2038 17.525 0.60954 17.525-1.6168-5.6746-1.6823-12.654-6.6516-15.045-13.549-0.0122 5.143-3.1194 8.5336-7.6856 7.6132-2.2107-0.50592-5.4444-0.33524-7.5042-0.22248 2.5309-1.9262 6.2357-8.2837 3.2276-12.522-1.3798-1.9963-1.6969-5.9827-1.4194-8.4315-0.86446 0.68726-3.5295 4.9556-1.5429 8.2288-3.2337 0.29411-5.763-3.6954-9.5182-4.9129-0.6693 1.2861 1.5292 4.3948 2.0308 5.8394-1.6878 0.52269-2.8251 1.1581-7.4294-0.96003-1.2228 3.2824-0.59156 4.8139-0.87971 5.9872-1.4575-0.1021-5.0221-0.91432-6.7754-2.6942 0.0381 2.1075-1.1679 3.6816-1.671 5.4524-2.3098-0.45869-4.3162-1.056-6.3363-3.6283-0.15703 1.6641-1.4636 2.4016-1.2212 5.0638-3.162-0.14934-6.7861-4.6203-10.782-7.8174-1.1587 2.8237 3.7277 14.141 0.18143 13.028-5.4231-1.3654-11.2 2.4001-11.358-1.8241 1.1816-3.3403-0.64491-3.4104-4.1912-0.0701-3.1453 3.4668-9.5075 7.2231-9.4572-3.3403-4.1104-5.7617-2.7428-7.438 3.5706-6.6562 5.9094-1.1139 8.2985-3.5003 3.6804-4.8093-8.9098 1.7204-10.764-2.1243-7.0086-5.6124 0.93916-3.1117 0.93916-6.3027 4.4854-5.1888 6.0924 3.7639 8.2756 0 4.7294-2.2279-3.5462-2.2264-2.7687-4.9815 2.9242-6.6791 3.4121-4.4771 7.7145-3.3403 7.7145 1.1124-0.80499 5.3366 2.7672 8.4483 5.1319 6.2204 2.3632-2.2264 11.541-3.1102 15.088-4.2226 3.5462-1.1139 14.065-9.7908 14.065-13.131-7.8136 0.2682-12.54-1.4446-15.281-3.1498-0.35675-2.1867-0.70132-3.8798 0.26376-7.0296-7.71 3.898-11.049 2.0115-13.199-0.032 1.7015-1.5574 4.4549-7.1896 5.635-9.3016-4.3147 1.8027-5.7234 3.1437-7.6475 2.2706-0.80652-2.202 0.62509-4.4268 1.1374-6.1732-4.5616 3.9331-7.5438 3.7838-11.526 3.1651 4.1134-6.004 4.8772-9.1538 5.7966-15.251-2.7626 1.2343-5.7524 1.0332-7.5804 1.1459-0.3903-1.9886-0.94679-5.0303-0.15856-7.953-5.5725 1.3776-9.105 2.778-7.3608-4.0977 0-3.3403-1.366-7.5644 3.8146-5.9232 2.3647 0 2.2305-4.0504-1.3173-4.0504-9.1782-0.63088-11.358-3.2138-6.6656-8.5748 1.3401-6.3713 4.4366-7.9439 6.8013-2.9624 2.3647 3.3403 8.9449 6.545 7.091 0-4.2643-6.5435-7.0559-12.142 1.1846-11.133 7.434-1.8942 7.3852 2.4336 5.2645 7.0357-1.1816 4.0977 3.0096 5.2116 4.1912 2.9852-0.42689-4.247 2.2656-7.3359 6.0207-2.8588 4.6928 5.4874 6.2768 8.7012-0.21802 12.168-3.5478 3.3403 8.2741 11.752 12.113 21.636 5.7173 1.8027 15.27 7.0463 21.098 9.1371 3.5463-3.3403 18.474-10.458 31.918-10.021 9.3017 0.29868 11.822-3.6024 13.005-6.9427 1.1816-3.3403-3.4975-0.0701-4.8391-3.031-2.011 2.4702-5.4856 2.3772-6.9599-0.86098-5.2279 5.7297-12.622 8.7637-10.445-0.27582 1.081-4.6082 0.39335-7.8403 3.621-8.0688 20.125 3.0538 18.855-8.942 12.735-10.457-6.8333-1.6214-17.858 7.1134-16.281-5.3594 0.73944-5.8592 0.48636-3.7197-1.8768-4.8337-2.3662-1.1124 2.7672-5.8196 6.3134-5.8196 5.6899-0.12496 7.4081-2.5814 10.017-6.324 0.88732-0.55621 13.077-0.24686 17.586-0.72231 5.8332-1.1094 19.925-5.5682 26.478-4.183-1.7838 4.2485-3.81 3.9377-4.9291 6.7035 4.612 0.68269 9.8704 2.3635 10.921 2.7902-2.3647 2.33-3.7063 3.9285-5.914 5.5819 5.1334 1.0896 6.3927 0.60497 5.7539 8.8841-0.1052 5.7023-0.51227 13.154-7.6063 13.154-7.0925 0 6.4933 5.428 6.0451 13.142-0.45586 6.0192-0.74402 14.864 3.1194 19.984 2.4241 3.3022 5.9002 10.995 0.91477 15.38-1.5993-5.4249-4.3726-9.8594-7.3746-13.192-1.7274 2.2568-3.2246 6.9183-1.4972 9.6582 2.1192 3.4851 2.046 7.0814 2.046 11.534 0 4.4542-1.3874 7.7534-0.97575 15.827-1.9698-0.55468-4.522-3.0523-5.8393-5.6535-0.6632 2.967-2.7214 4.468-3.7033 12.842-4.5266-3.5536-5.824-7.7473-5.5191-10.274 0.10825-7.8387-1.0428-6.7583-3.4075-11.213-0.66778 2.1349-0.31712 4.9053 0.5885 9.1675-3.5462-2.2279-4.7538-2.5677 0.85988 6.4017 4.6272 7.2475 5.9811 27.364 15.206 32.016 5.9109 1.114 8.6415 6.1991 12.188 8.427 3.5462 2.2248 10.248 0.97223 17.792 10.374 13.58 9.7801 23.804 0.92498 16.258-12.832-2.3052-4.087-11.554-10.17-12.735-14.623-6.6809-0.41144-13.078-3.351-11.578-11.513-7.7542 0.67812-11.921-8.1024-6.4232-15.714-10.593-3.063-8.983-16.723 3.839-19.053 1.0245-12.938 18.573-25.125 27.192-30.924 6.9721-4.6173 25.319-19.268 14.807-35.476-6.6549-10.28-20.11-3.6481-18.355 6.5297 0.89953 5.0653 5.9064 6.0162 12.895 4.2013 0.24546 5.2726-9.8414 15.414-16.844 7.0585 0.15856 4.5381-0.84006 10.928-9.7011 13.407-5.9109 2.2279-5.8743 6.1762-4.5937 12.168-10.896-0.26363-16.039-10.137-13.676-16.817 2.3647-6.6791 9.8963-6.7598 9.8963-10.1 0-3.3403-8.64-4.3262-9.6782-9.9173-1.1907-6.5496 1.5018-11.958 6.9248-13.36-2.3525 7.5644 7.027 11.299 12.686 4.4299 9.8002-11.859 27.053-14.44 34.709-6.0025 5.1883 5.7145 13.04 19.224 3.4624 33.402-5.8149 8.6083-20.857 20.075-26.745 23.106-2.1436 1.2221-9.506 6.7339-9.5456 9.9127 5.0922-3.4043 9.1995-3.2854 12.654-4.6219-0.21345 3.834-14.292 10.682-12.574 16.1 3.592-2.7597 14.144-7.2231 19.658-12.784 3.1453 10.426-24.632 19.638-20.98 26.86 3.1514-4.6066 19.64-8.4041 26.197-14.565-0.41622 6.6379-5.6182 13.579-15.392 19.102-11.25 6.0254-8.5683 12.249-5.4703 14.548 2.0476-9.2056 14.645-11.714 22.374-21.092 1.6923 4.7651-2.7794 12.488-8.2024 18.536-5.2904 5.1659-5.0465 9.2407-0.31712 15.92 4.7278 6.6821 13.052 18.548 9.506 24.115-3.5462 5.5667 8.4204-5.6825 17.39 3.191 2.3403 2.5433 5.4886 5.7389 12.882 6.9244-2.2107 2.8664-5.1303 5.1583-11.602 2.557-6.6412-4.6965-10.09-3.3159-14.391-0.0229-8.0561 7.2079-19.632 12.639-34.26 0.6324-5.9109-5.5682-8.4067-9.7329-15.319-9.643 3.5462 7.7946-1.4987 15.289-1.4987 20.854 0 5.5697 0.15856 9.643 9.6157 10.757 9.4572 1.1124 11.663 8.1725 16.391 7.0585 2.1406-0.88232 4.3573-0.30173 6.6336-1.0027 0.21192 2.2416 1.0002 5.6581-3.5051 6.772-5.9109 2.2264-2.3128 2.589 0.0518 5.9293 1.1618 2.0024 0.6068 4.7971 0.89495 7.7138-0.19515 3.5811 3.2779 5.6901 7.0513 6.196-2.6376 3.0873-7.867 3.8401-11.535 0.90822 2.7199 7.0159-1.0657 8.3538-5.7951 5.0135 3.9869 5.7526-3.1361 6.4535-9.0471 4.2257 2.8053 3.2047 6.036 6.5755 0.61442 8.6525-5.5587 5.4874-5.4596 1.2404-7.8243-2.0999-2.3647-3.3403-4.5205 6.7949-6.7998 8.2426-3.7551 0.4343-5.0221-5.0059-9.7514-6.1198-2.7169-1.7448 1.4514-3.0066 3.1194-4.4527 2.072-1.4462-1.4987-2.0542-6.228 0.17219-4.7278 2.2264-6.4583 1.8012-4.8742-4.5457 1.4514-7.6102 3.5584-5.3838 8.1765-3.1346 4.7553-1.0332-7.3959-4.3262 0.6693-9.4952 0.81567-3.482 3.3542-6.9518 7.7572 0.0823 5.9109 2.2279 5.0312-4.5883 3.8481-7.9286-1.1816-3.3403-11.236-9.0563-13.65-14.015-3.3664 8.0536-7.0102 12.554-16.713 14.902 0.97575-4.276-0.38421-7.6604 2.4592-10.455 3.5478-5.5682-1.1145-7.7869-1.1145-13.354-5.231-5.8196-1.8768-17.526-0.51227-23.713l2e-3 -3e-3z" stroke-width="1.115"/>
   <path id="path15" d="m221.46 50.304c-5.8408-2.2904-10.425-3.5338-16.265-3.0752-5.8408 0.45868-13.141-1.8332-14.6-5.0424-1.4606-3.2077-4.8681-8.7073-9.2468-9.166-2.1909-0.22858-5.4642 1.2038-7.2465 2.9014 1.5978 0.90822 2.9882 3.5719 4.2034 5.8638 3.0782 5.5194 10.829 16.901 21.049 11.402 3.8939-2.2919 11.194-1.789 14.113-1.3303 2.9196 0.45868 8.4784-1.0941 7.992-1.5528z"/>
   <path id="path17" d="m151.75 45.205c7.059-9.9097-2.9151-21.433-7.2953-21.89 0.97423 3.2077 4.3802 8.2487 0.48635 13.75 3.4075 3.6664 4.8635 6.2509 6.8089 8.0826v0.05791z"/>
   <path id="path19" d="m137.58 31.928c-3.3084-11.539-18.465-11.543-21.779-8.8064 3.1727 1.4873 9.4221 2.5189 11.107 8.9359 5.1715 0.10362 7.9219-0.01219 10.672-0.12953z"/>
   <path id="path21" d="m119.03 41.412c-13.908-4.1327-19.093 3.1712-19.992 7.2338 3.4837-0.60954 9.1355-3.3266 14.58 0.84422 4.1973-2.8466 3.3008-6.3316 5.423-7.9835l-0.0107-0.09448z"/>
   <path id="path23" d="m158.83 192.99c-10.014-7.342-23.096 0.78631-23.022 5.3061 3.4837-0.60954 10.614-2.1182 16.062 2.0526 4.1973-2.8466 4.8376-5.7069 6.9614-7.3587h-2e-3z"/>
   <path id="path25" d="m133.59 118.53c-8.0652-9.2285-21.875-3.3479-23.697 0.43125 3.5386 0.12496 9.6859-1.3623 14.03 3.831 4.7583-1.914 7.213-3.0873 9.6661-4.2622h2e-3z"/>
   <path id="path27" d="m118.58 130.59c-14.934-5.5743-18.148-0.0107-19.739 3.8584 3.5432-0.064 10.291-0.81222 14.943 4.1388 4.6333-2.1639 2.7291-5.9629 4.7964-7.9972z"/>
   <path id="path29" d="m113.88 148.76c-11.566 1.3745-12.366 10.295-11.055 14.257 2.7291-2.1258 6.2662-7.0875 13.179-5.9354 2.1985-4.41-3.1255-5.908-2.1238-8.3218z"/>
   <path id="path31" d="m141.86 207.86c-12.54-1.8317-15.284 8.9207-13.975 12.884 2.7306-2.1273 6.754-4.7971 13.665-3.6451 2.1985-4.4085-0.69065-6.8238 0.3095-9.2392z"/>
   <path id="path33" d="m148.87 228.01c-11.919 4.0961-9.1614 16.945-5.9826 19.818 1.302-3.1026 3.8298-9.3336 10.471-11.469-0.33389-4.8626-4.1286-5.7785-4.4885-8.3492z"/>
   <path id="path35" d="m263.26 239.02c-11.029-5.9126-18.109 2.2004-18.379 6.3423 3.3557-1.0728 6.9583-3.2672 12.984 0.12191 3.7185-3.3845 3.5478-4.5442 5.3956-6.4642z"/>
   <path id="path37" d="m253.93 250.69c-11.032-3.5445-18.83 5.3015-18.738 9.4525 3.2505-1.3303 9.5685-3.7975 15.87-0.88537 3.4121-3.6618 1.1922-6.0497 2.8678-8.1085l-0.061-0.0564 0.061-0.4023z"/>
   <path id="path39" d="m261.29 264.41c-8.9464 8.4757-2.5598 18.64 1.6146 19.97-0.2226-3.3296 0.0183-9.1584 5.0709-13.747-2.4943-4.2683-5.2005-4.0382-6.6854-6.2234z"/>
   <path id="path41" d="m288.74 262.25c4.6455 11.123-4.1149 15.968-8.5074 15.632 1.6054-2.9746 4.0235-5.0211 1.3158-11.12 4.0875-2.9868 4.9092-3.063 7.1916-4.5122z"/>
   <path id="path43" d="m178.65 234.76c-1.639 11.853-14.711 14.227-18.384 11.933 2.9303-1.8744 7.6231-6.2676 8.3793-12.84 5.112-0.75583 7.2617 1.1368 10.004 0.9067z"/>
   <path id="path45" d="m142.07 158.67c-1.6374 11.851-14.223 11.018-17.896 8.7256 2.9318-1.8744 6.0573-1.853 6.8135-8.4254 5.112-0.75431 8.3412-0.0686 11.084-0.3002h-2e-3z"/>
   <path id="path47" d="m120.75 70.026c-12.491-2.109-13.805-16.328-11.195-19.675 1.8478 2.8481 3.4776 8.6235 10.412 9.6506 0.55801 4.8428 0.67083 7.4334 0.78365 10.026v-0.0015z"/>
  </g>
  <g id="g49" fill="none" stroke="#666">
   <path id="path51" d="m274 180.93c-1.4591 6.4154-7.5042 10.675-7.5042 10.675"/>
   <path id="path53" d="m289.86 53.648c-5.3087 5.5606-7.6383 7.1545-10.706 10.999-2.9456 3.5917-3.6057 10.288-0.61442 14.231"/>
   <path id="path55" d="m287.93 95.82c-2.9196 2.7506-3.8939 7.7915-3.8939 8.7089"/>
   <path id="path57" d="m285.49 107.73c-2.4348 3.6664-2.9196 13.75-2.9196 13.75"/>
   <path id="path59" d="m290.83 121.93c-5.8393 5.0409-4.8666 11.915-4.8666 11.915"/>
   <path id="path61" d="m297.17 140.98c-0.98795 1.4157 2.9257 7.0158 5.8408 6.6242"/>
   <path id="path63" d="m318.58 189.31c-5.8408 2.7506-8.7711 3.7258-14.6 1.3745"/>
   <path id="path65" d="m290.83 224.2c3.8939 4.1251 2.9303 15.07-2.909 19.195-5.8393 4.1251-2.9196 0.91584-2.9196 0.91584"/>
   <path id="path67" d="m275.95 183.89c-2.9196 8.2502-10.425 12.767-10.425 12.767"/>
   <path id="path69" d="m275.06 193.9c-5.3529 7.3328-12.442 11.915-12.442 11.915"/>
   <path id="path71" d="m273.18 201.62c-3.406 5.0424-7.6459 7.857-7.6459 7.857"/>
   <path id="path73" d="m273.81 207.19c-3.406 3.6649-7.7862 5.9568-7.7862 5.9568"/>
   <path id="path75" d="m276.72 210.85c-2.4333 3.2092-4.3787 6.8757-4.3787 6.8757"/>
   <path id="path77" d="m209.08 193.43c3.8939 5.4996 10.22 4.5838 9.7331 9.1676-1.3371 5.3289 0.54733 12.319 2.0689 14.952"/>
   <path id="path79" d="m208.6 199.87c3.406 3.6664 3.406 4.1251 3.406 7.3328 0 3.2077 2.9196 7.3328 2.9196 7.3328"/>
   <path id="path81" d="m201.77 204.9c1.4606 2.7506 5.3529 6.8757 5.3529 6.8757"/>
   <path id="path83" d="m192.05 209.03c1.9439 1.8332 4.865 3.6664 4.865 3.6664"/>
   <path id="path85" d="m212.01 42.65c2.9196-3.2077 10.284-4.7148 12.718-2.4245 2.4333 2.2919 10.154 10.216 10.154 10.216"/>
   <path id="path87" d="m235.37 115.52c-0.48635 5.9568-4.8666 18.332-4.8666 18.332"/>
   <path id="path89" d="m238.27 119.18c-0.48635 6.8741-4.8666 16.958-4.8666 16.958"/>
   <path id="path91" d="m241.19 125.62c-0.48483 6.8757-3.8939 13.293-3.8939 13.293"/>
   <path id="path93" d="m244.61 133.87c-1.9454 6.417-3.8939 10.542-3.8939 10.542"/>
   <path id="path95" d="m246.56 140.28c-0.97423 4.5838-3.406 9.166-3.406 9.166"/>
   <path id="path97" d="m249 144.4c0 2.7506-1.4606 5.9583-1.4606 5.9583"/>
   <path id="path99" d="m184.27 119.18c-0.9727 7.79-3.342 9.4769-5.9094 6.0192 0.34608 3.5994-1.8173 5.9522-5.7051 4.4558-0.97423 1.2465-3.4731 2.8161-3.4731 2.8161"/>
   <path id="path101" d="m164.3 130.65c-0.97423 3.6664-1.4606 8.7089-5.3544 7.7915"/>
   <path id="path103" d="m139.97 73.369c3.8923 0.45868 6.8135 0.45868 6.8135 0.45868"/>
   <path id="path105" d="m142.9 78.849 7.7862 0.91736"/>
   <path id="path107" d="m147.77 83.907c5.3544 2.7506 8.7604 1.3745 8.7604 1.3745"/>
   <path id="path109" d="m152.62 89.409c3.8939 1.8332 8.2741 0 8.2741 0"/>
   <path id="path111" d="m159.94 95.82c5.8408 0.91736 8.7589-2.2904 8.7589-2.2904"/>
   <path id="path113" d="m229.03 191.61c-2.4348-7.7915-13.141-16.959-13.141-16.959"/>
   <path id="path115" d="m221.74 191.61c-0.97423-5.9583-11.68-16.5-11.68-16.5"/>
   <path id="path117" d="m216.38 189.77c-0.48635-3.6664-11.192-13.293-11.192-13.293"/>
   <path id="path119" d="m212.96 188.86c-2.4348-3.2077-11.194-9.1676-11.194-9.1676"/>
   <path id="path121" d="m208.6 191.15c0.48635-3.2077-4.3802-5.0424-4.3802-5.0424"/>
   <path id="path123" d="m243.14 184.74c-6.3256 2.7506-13.627-1.3745-14.6-6.8757-0.97271-5.4981-11.192-7.3313-11.192-7.3313"/>
   <path id="path125" d="m239.46 24.827c2.1909 2.1593 4.8528 2.0953 7.2968 1.658 2.447-0.43887 9.1462-3.7304 9.974-4.2272"/>
   <path id="path127" d="m249.48 33.483c2.4348-2.749 10.22-3.2077 10.22-3.2077"/>
  </g>
  <g id="g129" fill="none">
   <path id="path131" d="m196.92 138.9c1.4591 5.9568 3.406 14.666 7.7847 17.873 4.3802 3.2077 14.601 7.3328 21.901 8.7073 7.2998 1.376 13.626 6.417 16.059 11.001 2.4348 4.5838 0.97423 11.001 0.97423 11.001"/>
   <path id="path133" d="m199.36 80.691c-7.2983 2.7506-11.203 9.355-17.033 13.492-3.4761 2.365-10.556 6.9107-14.112 7.5904 3.4395 2.1776 11.322 4.0017 17.673 0.83508-2.2686 9.3534 3.3145 9.2498 3.252 23.914 3.7246-0.41296 7.7862-8.2502 8.7604-12.375 0.97423-4.1251-0.59612-8.2593 1.2639-11.709-0.0518 3.6405 1.1922 6.6318 3.6255 10.298 2.4333 3.6679 2.8968 7.3694 1.4362 11.036 6.0741-4.7529 4.7751-14.507 4.6897-20.676 2.9684 2.717 3.6255 12.09 1.6359 18.385 2.7794-0.8046 5.6441-2.4473 7.0254-10.182 2.2305 3.5415 4.8437 15.182 3.682 17.974 4.1378 0.0945 7.7481-5.5545 7.3441-11.956 0.76079 0.58364 2.8373 2.7155 3.5981 3.4698 0.86751-2.4412-0.3842-6.8833-0.0869-10.309 0.93611 0.86556 2.9684 2.2218 3.7262 3.3114 1.0748 0.98899 3.6027 4.2607 7.3136 5.7572"/>
   <path id="path135" d="m249.97 60.524c6.3256 3.6664 12.531 9.5104 12.531 27.842"/>
   <path id="path137" d="m244.61 68.777c6.8135 5.0425 9.2453 11.001 8.2741 18.334-0.97423 7.3343-4.4107 6.7416-4.3802 12.832-0.0656 2.6759 2.9227 7.0341 4.8666 9.6262 2.2366 2.8938 3.4929 7.7184 2.8282 10.33"/>
   <path id="path139" d="m252.58 88.477c0.48635 5.9583 0.0717 9.1447 2.2503 12.834 1.9546 3.0721 3.8893 13.678 1.0657 19.928"/>
   <path id="path141" d="m239.73 87.102c4.3802 5.4996 0 6.8757-1.4591 11.459-1.4606 4.5822 3.2535 6.9 5.3087 12.339"/>
   <path id="path143" d="m234.39 82.977c0.97423 6.417 0 8.7073-1.9469 12.832-1.9469 4.1251-3.8969 10.297-0.50465 14.69"/>
   <path id="path145" d="m226.59 94.91c-2.9196 6.8757-2.9578 16.964 1.9088 22.462"/>
   <path id="path147" d="m223.2 87.568c-6.3256 5.4996-8.024 17.049-5.3727 24.237"/>
   <path id="path149" d="m204.7 93.98c-2.4333 2.7506-4.8422 5.9263-5.5831 8.5214"/>
   <path id="path151" d="m204.7 84.352c-2.4333 4.1251-8.1445 7.6269-12.525 9.4601-4.3802 1.8332-6.4552 8.8719-6.4552 8.8719"/>
   <path id="path153" d="m251.41 38.984c4.865-4.1251 11.678-4.5838 11.678-4.5838s2.4348 6.417 0.48636 9.6247c-1.9454 3.2092-12.165 3.2092-12.165 3.2092"/>
   <path id="path155" d="m184.34 80.078c-1.6893 1.2816-3.4075 3.3373-3.1895 5.0516 2.4348 0 10.233 0.68117 10.233 0.68117"/>
   <path id="path157" d="m226.59 60.059c0.97423 4.5822 2.4348 9.6247 0.97423 12.834-1.4591 3.2077 8.7604-4.5838 7.2998-8.2517-1.4606-3.6649 3.8923 1.8332 2.4318 5.9598-1.4591 4.1251 7.3014-5.5011 6.3287-10.083-0.97423-4.5838 2.9196-1.376 2.9196 2.749s4.3787-5.4996 3.406-7.7915l-0.97271-2.2919"/>
   <path id="path159" d="m186.13 106.84c-5.4124 0.78479-12.259 2.3528-15.592 5.0973"/>
  </g>
  <path id="path161" d="m225.02 30.183c0 1.3151-0.90562 2.3818-2.0232 2.3818-1.1191 0-2.0232-1.0667-2.0232-2.3818s0.9041-2.3818 2.0232-2.3818c1.1175 0 2.0232 1.0667 2.0232 2.3818z" stroke-width="1.25"/>
  <path id="path163" d="m219.26 24.89c-2.0811 13.332 7.495 12.156 9.5761 0.78479" fill="none"/>
  <path id="path165" d="m219.2 25.597c2.0857 0.78022 7.2968 1.5604 9.1202 0.52116" fill="none" stroke-width=".7813"/>
 </g>
 <rect id="rect948" width="450" height="300" fill="#ffd203"/>
 <g id="gonf" transform="translate(-450 -2.5703e-5)" stroke="#08672f">
  <g id="g168" fill="none" stroke-width="8.71">
   <ellipse id="ellipse170" cx="578.01" cy="33.904" rx="14.548" ry="14.549"/>
   <ellipse id="ellipse172" cx="675" cy="33.904" rx="14.548" ry="14.549"/>
   <ellipse id="ellipse174" cx="771.99" cy="33.904" rx="14.548" ry="14.549"/>
  </g>
  <path id="path176" d="m574.72 53.113c0 3.1406 0.15376 149.05 0.15376 152.3 0.46396 21.421 42.651 21.153 42.536-0.26997 0.81191-3.2542 0.23305-34.353 0.23305-37.147h32.673c0 3.7268-1.0427 88.704-1.0427 91.843 2.1261 24.468 43.77 24.282 46.323 0.69785 0-4.0677-0.1156-89.514-0.1156-92.308h32.364s-0.46369 33.427-0.46369 37.032c0.46369 23.637 43.774 22.498 43.195-0.0905-0.11546-3.9542 1.2368-149.16 1.2368-152.42" fill="#ed2939" stroke-width="14.276"/>
 </g>
 <g id="fish" transform="translate(450 -.00041785)" fill="#ed2939" stroke="#000" stroke-width=".7813">
  <path id="path179" d="m184.72 392.86c8.2778 6.4917 23.047 11.608 12.995 23.408 8.8702 1.1788 12.429-7.4774 12.429-13.966 0-6.4885-24.834-8.8527-25.424-9.4421z"/>
  <path id="path181" d="m194.94 530.3c98.743-33.158 63.742-147.51-21.02-136.68-6.5533 0.63853-11.574 1.7486-16.273 4.735-7.4607 3.4661-19.325 4.5614-21.022 0.67619 1.229-2.5312 7.7757-4.9331 7.4574-8.7954-5.5902-2.6655-14.675-5.9302-12.884-16.238 16.164 2.9045 21.024-9.4732 20.344-16.242-0.67765-4.5369-4.7468-16.238 25.767-27.066 54.246-12.178 124.77 7.443 135.62 100.14 4.0692 63.604-46.115 85.933-59.676 96.084-13.56 10.149-29.157 17.594-36.616 39.244-2.7122-18.943-12.884-29.094-21.701-35.861z" fill="#002395"/>
  <g fill="none">
   <path id="path183" d="m151.02 364.54c4.7288 4.1292 12.416 7.6591 19.511-4.7186 7.0964-10.03 17.179-0.58778 17.179-0.58778"/>
   <path id="path185" d="m177.63 369.71c9.4592 16.531 30.837 16.446 54.013 14.156"/>
   <path id="path187" d="m236.17 375.97c69.43 18.876 60.75 102.06 16.116 134.51" stroke-width="2.4"/>
  </g>
  <path id="path189" d="m230.84 527.37c-28.97 7.0779-57.942 2.3576-79.818-35.987-7.6855-14.162-25.521-13.114-26.542-3.7493 11.797-10.166 17.511 8.2158 16.173 15.153-14.047 0.20302-17.43 4.6711-24.082 9.7515 4.8223 0.0606 13.369-3.8279 24.4 10.703 12.906 16.083 30.745 17.239 36.657 17.239 7.0948 0.58778 9.8481 1.8681 18.52-1.6062-4.993 7.0779-24.036 10.122-33.3 3.4497-2.5383 9.8236 6.089 7.4381 22.466 15.723 11.505 6.6915 19.721 18.346 31.927 23.6 12.193 5.0035 21.033 4.1848 33.448-6.4312-27.198 5.8958-44.681-7.1368-19.849-47.844z"/>
  <path id="path191" d="m295.28 491.38c-7.0948 18.287-16.055 38.561-3.0486 52.129-17.145 0.59269-29.48-16.913-29.48-23.403 6.5041-4.1308 25.434-18.106 32.529-28.726z"/>
  <path id="path193" d="m255.08 465.43c-8.2762 21.826-17.169 26.547-34.905 26.547 9.4576 4.7186 14.211 5.9007 11.254 17.697 11.825-10.027 23.65-28.908 23.65-44.244z"/>
  <path id="path195" d="m244.44 350.97c4.1364 2.9487 5.3195 7.0779 4.7288 14.748 6.5041-10.619 14.19-11.21 20.101-4.7202 0.59069-7.0795 8.2795-7.6689 13.599-3.5398" fill="none"/>
  <path id="path197" d="m218.42 394.63c18.92 2.3593 31.927 17.108 35.476 24.778" fill="none"/>
  <path id="path199" d="m250.94 335.04c11.822-1.1772 26.228-1.9844 37.248-11.209-2.366 8.8494-11.62 12.584-14.578 17.892 3.549 0.58941 12.212 0.98726 14.578-0.1932 5.9118-1.1788 13.597-5.3096 21.283-8.2584 7.6839-2.9504 14.203-5.5045 20.113-0.78425-12.416 1.1805-24.443 11.222-17.156 22.614-9.4592-1.7715-19.694 4.342-19.104 17.322-5.3195-11.798-34.109-35.614-41.793-36.793l-0.59069-0.59105z"/>
  <path id="path201" d="m306.52 401.12c8.2795 11.798 21.878 27.139 26.607 28.906-12.416 2.3642-15.954 10.441-7.0964 27.139-6.5025-5.899-9.4576-8.2584-13.597-4.1292 3.5474-9.4372-6.5025-52.504-5.9134-51.916z"/>
  <path id="path203" d="m144.9 389.04c25.596-14.126 32.24 1.8468-0.10665 3.0862-0.55788-0.86611-0.20674-1.9729-0.20674-2.5656z" fill="#ffd203"/>
  <path id="path205" d="m185.31 379.88c10.644 7.6706 26.013 6.4885 34.291 5.9007 8.2778-0.59106-1.7721 3.5398-1.7721 8.8478s1.5325 7.8294 3.5474 12.389c2.3283 5.2654 1.3881 13.195-6.107 17.517 3.741-11.595-8.6765-22.236-13.404-25.777-5.6033-3.4956-16.556-19.467-16.556-18.878z"/>
  <path id="path207" d="m179.57 366.02c0-2.2447-1.9312-4.0604-4.312-4.0604-2.3792 0-4.3071 1.8157-4.3071 4.0604 0 2.243 1.9279 4.062 4.3071 4.062 2.3808 0 4.312-1.819 4.312-4.062" fill="#fff" stroke="none"/>
  <g fill="none">
   <path id="path209" d="m140.9 499.89c1.1486 3.5447 3.1487 4.8316 5.7658 8.5629-3.4654-0.78589-7.2441-4.2372-9.1392-4.8217"/>
   <path id="path211" d="m193.6 563.95c5.413-1.133 5.2801-2.2349 6.5599-3.0633-0.24612 1.8665-3.654 2.7883-2.1002 7.0599"/>
   <path id="path213" d="m162.85 383.28c4.2316-1.3884 8.4665 1.8501 10.672 4.0588 2.8271 2.6917 8.3779 4.7481 12.354 5.66"/>
  </g>
  <path id="path215" d="m211.38 328.11c9.4608-4.7219 14.541-8.6464 16.311-12.183 1.7753 4.1292-1.1814 8.2584-1.1814 11.796 7.0932 0 18.329-5.308 20.694-7.6673 5.3228 4.1292 2.1216 13.149 0.76462 15.86" fill="#002395"/>
  <path id="path217" d="m271.88 349.16c9.1983 3.3367 11.781 1.5112 18.47-0.99054-4.1808 6.6751-8.3615 7.5068-14.214 5.8401" fill="none" stroke-width=".9375"/>
 </g>
</svg>
