<?xml version="1.0" encoding="UTF-8"?>
<svg width="1600" height="960" viewBox="0 0 1600 960" xmlns="http://www.w3.org/2000/svg" xmlns:xlink="http://www.w3.org/1999/xlink">
 <clipPath id="a">
  <path d="m0 720h1200v-720h-1200z"/>
 </clipPath>
 <g transform="matrix(1.3333 0 0 -1.3333 0 960)">
  <path d="m0 0h1200v720h-1200z" fill="#10069f"/>
  <path d="m600 720v-47.403h16.14v47.403zm89.166 0v-47.403h25.639v47.403zm98.666 0v-47.403h25.639v47.403zm98.667 0v-47.403h25.639v47.403zm98.666 0v-47.403h25.639v47.403zm98.667 0v-47.403h25.639v47.403zm98.666 0v-47.403h17.5v47.403zm-542.67-72.631v-54.793h25.639v54.793zm98.666 0v-54.793h25.641v54.793zm98.666 0v-54.793h25.641v54.793zm98.667 0v-54.793h25.641v54.793zm98.668 0v-54.793h25.639v54.793zm98.666 0v-54.793h25.639v54.793zm-533.17-80.022v-54.795h16.14v54.795zm89.166 0v-54.793h25.639v54.793zm98.666 0v-54.793h25.641v54.793zm98.667 0v-54.793h25.641v54.793zm98.666 0v-54.793h25.641v54.793zm98.667 0v-54.793h25.639v54.793zm98.666 0v-54.795h17.5v54.795zm-542.67-80.024v-54.792h25.639v54.792zm98.666 0v-54.792h25.641v54.792zm98.666 0v-54.792h25.641v54.792zm98.667 0v-54.792h25.641v54.792zm98.668 0v-54.792h25.639v54.792zm98.666 0v-54.792h25.639v54.792zm-533.17-80.022v-47.299h16.14v47.299zm89.166 0v-47.299h25.639v47.299zm98.666 0v-47.299h25.639v47.299zm98.667 0v-47.299h25.639v47.299zm98.666 0v-47.299h25.639v47.299zm98.667 0v-47.299h25.639v47.299zm98.666 0v-47.299h17.5v47.299zm-1182.5-47.301 4e-6 -47.504h16.14l-4e-6 47.504zm89.168 0 4e-6 -47.504h25.638v47.504zm98.666 0v-47.504h25.638v47.504zm98.666 0v-47.504h25.639v47.504zm98.666 0v-47.504h25.639v47.504zm98.667 0v-47.504h25.639v47.504zm98.667 0v-47.403h17.499v47.403zm-542.67-72.733v-54.793h25.641v54.793zm98.666 0v-54.793h25.639v54.793zm98.667 0v-54.793h25.639v54.793zm98.666 0v-54.793h25.641v54.793zm98.666 0v-54.793h25.642v54.793zm98.667 0v-54.793h25.639v54.793zm-444-80.022v-54.793h25.639v54.793zm98.667 0v-54.793h25.639v54.793zm98.666 0v-54.793h25.639v54.793zm98.666 0v-54.793h25.641v54.793zm98.667 0v-54.793h25.639v54.793zm98.667 0v-54.795h17.499v54.795zm-582.5-0.00146v-54.792h16.14v54.792zm39.833-80.022v-54.792h25.641v54.792zm98.666 0v-54.792h25.639v54.792zm98.667 0v-54.792h25.639v54.792zm98.666 0v-54.792h25.641v54.792zm98.666 0v-54.792h25.642v54.792zm98.667 0v-54.792h25.639v54.792zm-533.17-80.024v-47.197h16.14v47.197zm89.168 0v-47.197h25.638v47.197zm98.666 0v-47.197h25.638v47.197zm98.666 0v-47.197h25.639v47.197zm98.666 0v-47.197h25.639v47.197zm98.667 0v-47.197h25.639v47.197zm98.667 0v-47.197h17.499v47.197z" fill="#fedd00"/>
  <g clip-path="url(#a)" fill="#fedd00">
   <path transform="translate(140.8 605.39)" d="m0-0.45074c-0.162 6.83-1.898 13.178-5.131 19.194-8.466 17.328-34.322 16.914-28.622-4.279 2.1-7.81 9.235-12.399 17.711-13.186-0.612 2.057-3.977 9.332-1.26 10.755 4.344-0.16 9.737-7.464 11.034-10.947 0.188-0.5 0.135-1.078 0.344-1.57"/>
   <path transform="translate(151.57 604.94)" d="m0 0c.162 6.83 1.898 13.178 5.131 19.194 8.466 17.328 34.322 16.914 28.622-4.279-2.1-7.809-9.235-12.399-17.711-13.186.612 2.058 3.977 9.332 1.26 10.755-4.344-.16-9.737-7.464-11.034-10.947-.187-.5-.135-1.078-.344-1.57"/>
   <path transform="translate(146.68 671.11)" d="m0 0c8.918-9.354 14.907-20.17 12.325-32.855-1.424-6.999-4.876-13.48-7.311-20.223-1.523-4.23-1.912-8.649-1.732-13.094h-7.566c.362 4.479-.431 8.819-1.732 13.094-2.319 6.785-5.849 13.219-7.311 20.223-2.734 13.094 3.683 22.97 12.286 32.814l.526.652z"/>
   <path transform="translate(153.74 599.76)" d="m0 0c1.582-4.314 8.032-12.214 11.458-14.466.888-.584-4.248.337-6.547.827-3.016.643-6.936 3.77-6.844 2.666.009-5.053-1.452-13.485-5.258-17.359l-.361-.374-.372.374c-3.805 4.318-5.239 11.911-5.258 17.359.092 1.104-3.828-2.023-6.844-2.666-2.3-.49-7.435-1.411-6.547-.827 3.426 2.252 9.872 10.152 11.454 14.466z"/>
   <path transform="translate(161.18 605.16)" d="m0 0h-30.053c-1.647 0-2.982-1.271-2.982-2.839s1.335-2.839 2.982-2.839h30.053c1.647 0 2.982 1.271 2.982 2.839s-1.335 2.839-2.982 2.839"/>
   <path transform="translate(243.34 605.39)" d="m0-0.45074c-0.162 6.83-1.898 13.178-5.131 19.194-8.466 17.328-34.322 16.914-28.622-4.279 2.1-7.81 9.235-12.399 17.711-13.186-0.612 2.057-3.977 9.332-1.26 10.755 4.344-0.16 9.737-7.464 11.034-10.947 0.187-0.5 0.135-1.078 0.344-1.57"/>
   <path transform="translate(254.11 604.94)" d="m0 0c.162 6.83 1.898 13.178 5.131 19.194 8.466 17.328 34.322 16.914 28.622-4.279-2.1-7.809-9.235-12.399-17.711-13.186.612 2.058 3.977 9.332 1.26 10.755-4.344-.16-9.737-7.464-11.034-10.947-.187-.5-.135-1.078-.344-1.57"/>
   <path transform="translate(249.23 671.11)" d="m0 0c8.918-9.354 14.907-20.17 12.325-32.855-1.424-6.999-4.876-13.48-7.311-20.223-1.523-4.23-1.912-8.649-1.732-13.094h-7.566c.362 4.479-.431 8.819-1.732 13.094-2.319 6.785-5.849 13.219-7.311 20.223-2.734 13.094 3.683 22.97 12.286 32.814l.526.652z"/>
   <path transform="translate(256.28 599.76)" d="m0 0c1.582-4.314 8.032-12.214 11.458-14.466.888-.584-4.248.337-6.547.827-3.016.643-6.936 3.77-6.844 2.666.008-5.053-1.452-13.485-5.258-17.359l-.361-.374-.372.374c-3.805 4.318-5.239 11.911-5.258 17.359.092 1.104-3.828-2.023-6.844-2.666-2.3-.49-7.435-1.411-6.547-.827 3.426 2.252 9.872 10.152 11.454 14.466z"/>
   <path transform="translate(263.73 605.16)" d="m0 0h-30.053c-1.647 0-2.982-1.271-2.982-2.839s1.335-2.839 2.982-2.839h30.053c1.647 0 2.982 1.271 2.982 2.839s-1.335 2.839-2.982 2.839"/>
   <path transform="translate(89.525 523.96)" d="m0-0.45074c-0.162 6.83-1.898 13.178-5.132 19.194-8.465 17.328-34.321 16.914-28.621-4.278 2.1-7.81 9.234-12.4 17.711-13.187-0.612 2.058-3.977 9.332-1.261 10.755 4.344-0.159 9.738-7.464 11.035-10.947 0.187-0.5 0.135-1.078 0.344-1.57"/>
   <path transform="translate(100.29 523.5)" d="m0 0c.161 6.83 1.898 13.178 5.131 19.194 8.466 17.328 34.322 16.914 28.622-4.278-2.1-7.81-9.235-12.4-17.711-13.187.612 2.058 3.977 9.332 1.26 10.755-4.344-.159-9.738-7.463-11.034-10.947-.188-.5-.136-1.078-.345-1.57"/>
   <path transform="translate(95.41 589.68)" d="m0 0c8.918-9.354 14.907-20.17 12.325-32.855-1.424-6.999-4.877-13.481-7.311-20.223-1.523-4.23-1.912-8.649-1.732-13.094h-7.566c.362 4.478-.432 8.818-1.732 13.094-2.319 6.784-5.849 13.219-7.311 20.223-2.734 13.094 3.683 22.969 12.286 32.813l.526.653z"/>
   <path transform="translate(102.47 518.32)" d="m0 0c1.582-4.313 8.032-12.214 11.458-14.466.888-.584-4.248.337-6.547.827-3.016.643-6.936 3.77-6.844 2.667.008-5.053-1.452-13.486-5.258-17.36l-.361-.374-.372.374c-3.805 4.318-5.239 11.911-5.258 17.36.092 1.103-3.828-2.024-6.844-2.667-2.3-.49-7.435-1.411-6.547-.827 3.426 2.252 9.872 10.153 11.454 14.466z"/>
   <path transform="translate(109.91 523.72)" d="m0 0h-30.054c-1.646 0-2.982-1.271-2.982-2.839s1.336-2.839 2.982-2.839h30.054c1.647 0 2.982 1.271 2.982 2.839s-1.335 2.839-2.982 2.839"/>
   <path transform="translate(192.07 523.96)" d="m0-0.45074c-0.161 6.83-1.897 13.178-5.131 19.194-8.466 17.328-34.322 16.914-28.622-4.278 2.1-7.81 9.235-12.4 17.711-13.187-0.611 2.058-3.977 9.332-1.26 10.755 4.344-0.159 9.738-7.464 11.034-10.947 0.188-0.5 0.136-1.078 0.345-1.57"/>
   <path transform="translate(202.84 523.5)" d="m0 0c.161 6.83 1.897 13.178 5.131 19.194 8.466 17.328 34.322 16.914 28.622-4.278-2.1-7.81-9.235-12.4-17.711-13.187.611 2.058 3.977 9.332 1.26 10.755-4.344-.159-9.738-7.463-11.034-10.947-.188-.5-.136-1.078-.345-1.57"/>
   <path transform="translate(197.96 589.68)" d="m0 0c8.918-9.354 14.906-20.17 12.325-32.855-1.424-6.999-4.877-13.481-7.311-20.223-1.523-4.23-1.912-8.649-1.732-13.094h-7.566c.362 4.478-.432 8.818-1.732 13.094-2.319 6.784-5.849 13.219-7.311 20.223-2.734 13.094 3.683 22.969 12.286 32.813l.526.653z"/>
   <path transform="translate(205.01 518.32)" d="m0 0c1.582-4.313 8.032-12.214 11.458-14.466.888-.584-4.248.337-6.547.827-3.016.643-6.936 3.77-6.845 2.667.009-5.053-1.451-13.486-5.257-17.36l-.361-.374-.372.374c-3.805 4.318-5.239 11.911-5.258 17.36.092 1.103-3.828-2.024-6.844-2.667-2.3-.49-7.436-1.411-6.547-.827 3.426 2.252 9.872 10.153 11.454 14.466z"/>
   <path transform="translate(212.45 523.72)" d="m0 0h-30.054c-1.647 0-2.982-1.271-2.982-2.839s1.335-2.839 2.982-2.839h30.054c1.647 0 2.982 1.271 2.982 2.839s-1.335 2.839-2.982 2.839"/>
   <path transform="translate(294.62 523.96)" d="m0-0.45074c-0.162 6.83-1.898 13.178-5.132 19.194-8.465 17.328-34.321 16.914-28.621-4.278 2.1-7.81 9.234-12.4 17.711-13.187-0.612 2.058-3.977 9.332-1.261 10.755 4.344-0.159 9.738-7.464 11.035-10.947 0.187-0.5 0.135-1.078 0.344-1.57"/>
   <path transform="translate(305.38 523.5)" d="m0 0c.162 6.83 1.898 13.178 5.132 19.194 8.465 17.328 34.321 16.914 28.621-4.278-2.1-7.81-9.234-12.4-17.711-13.187.612 2.058 3.977 9.332 1.261 10.755-4.344-.159-9.738-7.463-11.035-10.947-.187-.5-.135-1.078-.344-1.57"/>
   <path transform="translate(300.5 589.68)" d="m0 0c8.918-9.354 14.907-20.17 12.325-32.855-1.424-6.999-4.877-13.481-7.311-20.223-1.523-4.23-1.912-8.649-1.732-13.094h-7.566c.362 4.478-.432 8.818-1.732 13.094-2.319 6.784-5.849 13.219-7.311 20.223-2.734 13.094 3.683 22.969 12.286 32.813l.526.653z"/>
   <path transform="translate(307.56 518.32)" d="m0 0c1.582-4.313 8.032-12.214 11.458-14.466.888-.584-4.248.337-6.547.827-3.016.643-6.936 3.77-6.845 2.667.009-5.053-1.451-13.486-5.257-17.36l-.361-.374-.372.374c-3.805 4.318-5.239 11.911-5.258 17.36.092 1.103-3.828-2.024-6.844-2.667-2.3-.49-7.435-1.411-6.547-.827 3.426 2.252 9.872 10.153 11.454 14.466z"/>
   <path transform="translate(315 523.72)" d="m0 0h-30.054c-1.646 0-2.982-1.271-2.982-2.839s1.336-2.839 2.982-2.839h30.054c1.647 0 2.982 1.271 2.982 2.839s-1.335 2.839-2.982 2.839"/>
   <path transform="translate(140.8 442.52)" d="m0-0.45074c-0.162 6.831-1.898 13.178-5.131 19.194-8.466 17.328-34.322 16.915-28.622-4.278 2.1-7.81 9.235-12.4 17.711-13.187-0.612 2.058-3.977 9.333-1.26 10.755 4.344-0.159 9.737-7.463 11.034-10.947 0.188-0.5 0.135-1.078 0.344-1.57"/>
   <path transform="translate(151.57 442.07)" d="m0 0c.162 6.83 1.898 13.178 5.131 19.194 8.466 17.328 34.322 16.914 28.622-4.279-2.1-7.809-9.235-12.399-17.711-13.186.612 2.057 3.977 9.332 1.26 10.755-4.344-.16-9.737-7.464-11.034-10.947-.187-.5-.135-1.078-.344-1.57"/>
   <path transform="translate(146.68 508.24)" d="m0 0c8.918-9.354 14.907-20.17 12.325-32.855-1.424-6.999-4.876-13.48-7.311-20.223-1.523-4.23-1.912-8.648-1.732-13.094h-7.566c.362 4.478-.431 8.819-1.732 13.094-2.319 6.785-5.849 13.219-7.311 20.223-2.734 13.094 3.683 22.97 12.286 32.814l.526.652z"/>
   <path transform="translate(153.74 436.88)" d="m0 0c1.582-4.314 8.032-12.214 11.458-14.466.888-.584-4.248.337-6.547.827-3.016.643-6.936 3.77-6.844 2.666.009-5.053-1.452-13.485-5.258-17.359l-.361-.374-.372.374c-3.805 4.318-5.239 11.911-5.258 17.359.092 1.104-3.828-2.023-6.844-2.666-2.3-.49-7.435-1.411-6.547-.827 3.426 2.252 9.872 10.152 11.454 14.466z"/>
   <path transform="translate(161.18 442.29)" d="m0 0h-30.053c-1.647 0-2.982-1.271-2.982-2.839s1.335-2.839 2.982-2.839h30.053c1.647 0 2.982 1.271 2.982 2.839s-1.335 2.839-2.982 2.839"/>
   <path transform="translate(243.34 442.52)" d="m0-0.45074c-0.162 6.831-1.898 13.178-5.131 19.194-8.466 17.328-34.322 16.915-28.622-4.278 2.1-7.81 9.235-12.4 17.711-13.187-0.612 2.058-3.977 9.333-1.26 10.755 4.344-0.159 9.737-7.463 11.034-10.947 0.187-0.5 0.135-1.078 0.344-1.57"/>
   <path transform="translate(254.11 442.07)" d="m0 0c.162 6.83 1.898 13.178 5.131 19.194 8.466 17.328 34.322 16.914 28.622-4.279-2.1-7.809-9.235-12.399-17.711-13.186.612 2.057 3.977 9.332 1.26 10.755-4.344-.16-9.737-7.464-11.034-10.947-.187-.5-.135-1.078-.344-1.57"/>
   <path transform="translate(249.23 508.24)" d="m0 0c8.918-9.354 14.907-20.17 12.325-32.855-1.424-6.999-4.876-13.48-7.311-20.223-1.523-4.23-1.912-8.648-1.732-13.094h-7.566c.362 4.478-.431 8.819-1.732 13.094-2.319 6.785-5.849 13.219-7.311 20.223-2.734 13.094 3.683 22.97 12.286 32.814l.526.652z"/>
   <path transform="translate(256.28 436.88)" d="m0 0c1.582-4.314 8.032-12.214 11.458-14.466.888-.584-4.248.337-6.547.827-3.016.643-6.936 3.77-6.844 2.666.008-5.053-1.452-13.485-5.258-17.359l-.361-.374-.372.374c-3.805 4.318-5.239 11.911-5.258 17.359.092 1.104-3.828-2.023-6.844-2.666-2.3-.49-7.435-1.411-6.547-.827 3.426 2.252 9.872 10.152 11.454 14.466z"/>
   <path transform="translate(263.73 442.29)" d="m0 0h-30.053c-1.647 0-2.982-1.271-2.982-2.839s1.335-2.839 2.982-2.839h30.053c1.647 0 2.982 1.271 2.982 2.839s-1.335 2.839-2.982 2.839"/>
   <path transform="translate(345.89 605.39)" d="m0-0.45074c-0.162 6.83-1.898 13.178-5.131 19.194-8.466 17.328-34.322 16.914-28.622-4.279 2.1-7.81 9.234-12.399 17.711-13.186-0.612 2.057-3.977 9.332-1.261 10.755 4.344-0.16 9.738-7.464 11.035-10.947 0.187-0.5 0.135-1.078 0.344-1.57"/>
   <path transform="translate(356.66 604.94)" d="m0 0c.161 6.83 1.898 13.178 5.131 19.194 8.466 17.328 34.322 16.914 28.622-4.279-2.1-7.809-9.235-12.399-17.711-13.186.612 2.058 3.977 9.332 1.26 10.755-4.344-.16-9.738-7.464-11.034-10.947-.188-.5-.135-1.078-.345-1.57"/>
   <path transform="translate(351.77 671.11)" d="m0 0c8.918-9.354 14.907-20.17 12.325-32.855-1.424-6.999-4.877-13.48-7.311-20.223-1.523-4.23-1.912-8.649-1.732-13.094h-7.566c.362 4.479-.431 8.819-1.732 13.094-2.319 6.785-5.849 13.219-7.311 20.223-2.734 13.094 3.683 22.97 12.286 32.814l.526.652z"/>
   <path transform="translate(358.83 599.76)" d="m0 0c1.582-4.314 8.032-12.214 11.458-14.466.888-.584-4.248.337-6.547.827-3.016.643-6.936 3.77-6.844 2.666.008-5.053-1.452-13.485-5.258-17.359l-.361-.374-.372.374c-3.805 4.318-5.239 11.911-5.258 17.359.092 1.104-3.828-2.023-6.844-2.666-2.3-.49-7.435-1.411-6.547-.827 3.426 2.252 9.872 10.152 11.454 14.466z"/>
   <path transform="translate(366.27 605.16)" d="m0 0h-30.054c-1.646 0-2.981-1.271-2.981-2.839s1.335-2.839 2.981-2.839h30.054c1.647 0 2.982 1.271 2.982 2.839s-1.335 2.839-2.982 2.839"/>
   <path transform="translate(448.43 605.39)" d="m0-0.45074c-0.161 6.83-1.897 13.178-5.131 19.194-8.466 17.328-34.322 16.914-28.622-4.279 2.101-7.81 9.235-12.399 17.711-13.186-0.611 2.057-3.977 9.332-1.26 10.755 4.344-0.16 9.738-7.464 11.034-10.947 0.188-0.5 0.135-1.078 0.345-1.57"/>
   <path transform="translate(459.2 604.94)" d="m0 0c.161 6.83 1.897 13.178 5.131 19.194 8.466 17.328 34.322 16.914 28.622-4.279-2.1-7.809-9.234-12.399-17.711-13.186.611 2.058 3.977 9.332 1.261 10.755-4.344-.16-9.739-7.464-11.035-10.947-.188-.5-.135-1.078-.344-1.57"/>
   <path transform="translate(454.32 671.11)" d="m0 0c8.919-9.354 14.906-20.17 12.325-32.855-1.424-6.999-4.877-13.48-7.311-20.223-1.523-4.23-1.912-8.649-1.732-13.094h-7.566c.362 4.479-.432 8.819-1.732 13.094-2.32 6.785-5.849 13.219-7.311 20.223-2.734 13.094 3.682 22.97 12.286 32.814l.525.652z"/>
   <path transform="translate(461.38 599.76)" d="m0 0c1.582-4.314 8.032-12.214 11.458-14.466.889-.584-4.248.337-6.547.827-3.016.643-6.936 3.77-6.845 2.666.009-5.053-1.451-13.485-5.257-17.359l-.361-.374-.372.374c-3.805 4.318-5.239 11.911-5.258 17.359.092 1.104-3.828-2.023-6.844-2.666-2.3-.49-7.436-1.411-6.547-.827 3.426 2.252 9.872 10.152 11.454 14.466z"/>
   <path transform="translate(468.82 605.16)" d="m0 0h-30.054c-1.647 0-2.982-1.271-2.982-2.839s1.335-2.839 2.982-2.839h30.054c1.646 0 2.981 1.271 2.981 2.839s-1.335 2.839-2.981 2.839"/>
   <path transform="translate(397.16 523.96)" d="m0-0.45074c-0.161 6.83-1.898 13.178-5.131 19.194-8.466 17.328-34.322 16.914-28.622-4.278 2.1-7.81 9.235-12.4 17.711-13.187-0.612 2.058-3.977 9.332-1.26 10.755 4.344-0.159 9.738-7.464 11.034-10.947 0.188-0.5 0.135-1.078 0.345-1.57"/>
   <path transform="translate(407.93 523.5)" d="m0 0c.161 6.83 1.897 13.178 5.131 19.194 8.466 17.328 34.322 16.914 28.622-4.278-2.101-7.81-9.235-12.4-17.711-13.187.611 2.058 3.977 9.332 1.26 10.755-4.344-.159-9.738-7.463-11.034-10.947-.188-.5-.135-1.078-.344-1.57"/>
   <path transform="translate(403.05 589.68)" d="m0 0c8.918-9.354 14.906-20.17 12.325-32.855-1.425-6.999-4.877-13.481-7.311-20.223-1.523-4.23-1.912-8.649-1.732-13.094h-7.566c.361 4.478-.432 8.818-1.732 13.094-2.32 6.784-5.849 13.219-7.312 20.223-2.734 13.094 3.683 22.969 12.287 32.813l.525.653z"/>
   <path transform="translate(410.1 518.32)" d="m0 0c1.582-4.313 8.031-12.214 11.457-14.466.889-.584-4.247.337-6.546.827-3.016.643-6.936 3.77-6.845 2.667.009-5.053-1.451-13.486-5.257-17.36l-.361-.374-.373.374c-3.804 4.318-5.238 11.911-5.258 17.36.092 1.103-3.828-2.024-6.843-2.667-2.3-.49-7.436-1.411-6.547-.827 3.426 2.252 9.872 10.153 11.454 14.466z"/>
   <path transform="translate(417.54 523.72)" d="m0 0h-30.053c-1.647 0-2.982-1.271-2.982-2.839s1.335-2.839 2.982-2.839h30.053c1.647 0 2.982 1.271 2.982 2.839s-1.335 2.839-2.982 2.839"/>
   <path transform="translate(345.89 442.52)" d="m0-0.45074c-0.162 6.831-1.898 13.178-5.131 19.194-8.466 17.328-34.322 16.915-28.622-4.278 2.1-7.81 9.234-12.4 17.711-13.187-0.612 2.058-3.977 9.333-1.261 10.755 4.344-0.159 9.738-7.463 11.035-10.947 0.187-0.5 0.135-1.078 0.344-1.57"/>
   <path transform="translate(356.66 442.07)" d="m0 0c.161 6.83 1.898 13.178 5.131 19.194 8.466 17.328 34.322 16.914 28.622-4.279-2.1-7.809-9.235-12.399-17.711-13.186.612 2.057 3.977 9.332 1.26 10.755-4.344-.16-9.738-7.464-11.034-10.947-.188-.5-.135-1.078-.345-1.57"/>
   <path transform="translate(351.77 508.24)" d="m0 0c8.918-9.354 14.907-20.17 12.325-32.855-1.424-6.999-4.877-13.48-7.311-20.223-1.523-4.23-1.912-8.648-1.732-13.094h-7.566c.362 4.478-.431 8.819-1.732 13.094-2.319 6.785-5.849 13.219-7.311 20.223-2.734 13.094 3.683 22.97 12.286 32.814l.526.652z"/>
   <path transform="translate(358.83 436.88)" d="m0 0c1.582-4.314 8.032-12.214 11.458-14.466.888-.584-4.248.337-6.547.827-3.016.643-6.936 3.77-6.844 2.666.008-5.053-1.452-13.485-5.258-17.359l-.361-.374-.372.374c-3.805 4.318-5.239 11.911-5.258 17.359.092 1.104-3.828-2.023-6.844-2.666-2.3-.49-7.435-1.411-6.547-.827 3.426 2.252 9.872 10.152 11.454 14.466z"/>
   <path transform="translate(366.27 442.29)" d="m0 0h-30.054c-1.646 0-2.981-1.271-2.981-2.839s1.335-2.839 2.981-2.839h30.054c1.647 0 2.982 1.271 2.982 2.839s-1.335 2.839-2.982 2.839"/>
   <path transform="translate(448.43 442.52)" d="m0-0.45074c-0.161 6.831-1.897 13.178-5.131 19.194-8.466 17.328-34.322 16.915-28.622-4.278 2.101-7.81 9.235-12.4 17.711-13.187-0.611 2.058-3.977 9.333-1.26 10.755 4.344-0.159 9.738-7.463 11.034-10.947 0.188-0.5 0.135-1.078 0.345-1.57"/>
   <path transform="translate(459.2 442.07)" d="m0 0c.161 6.83 1.897 13.178 5.131 19.194 8.466 17.328 34.322 16.914 28.622-4.279-2.1-7.809-9.234-12.399-17.711-13.186.611 2.057 3.977 9.332 1.261 10.755-4.344-.16-9.739-7.464-11.035-10.947-.188-.5-.135-1.078-.344-1.57"/>
   <path transform="translate(454.32 508.24)" d="m0 0c8.919-9.354 14.906-20.17 12.325-32.855-1.424-6.999-4.877-13.48-7.311-20.223-1.523-4.23-1.912-8.648-1.732-13.094h-7.566c.362 4.478-.432 8.819-1.732 13.094-2.32 6.785-5.849 13.219-7.311 20.223-2.734 13.094 3.682 22.97 12.286 32.814l.525.652z"/>
   <path transform="translate(461.38 436.88)" d="m0 0c1.582-4.314 8.032-12.214 11.458-14.466.889-.584-4.248.337-6.547.827-3.016.643-6.936 3.77-6.845 2.666.009-5.053-1.451-13.485-5.257-17.359l-.361-.374-.372.374c-3.805 4.318-5.239 11.911-5.258 17.359.092 1.104-3.828-2.023-6.844-2.666-2.3-.49-7.436-1.411-6.547-.827 3.426 2.252 9.872 10.152 11.454 14.466z"/>
   <path transform="translate(468.82 442.29)" d="m0 0h-30.054c-1.647 0-2.982-1.271-2.982-2.839s1.335-2.839 2.982-2.839h30.054c1.646 0 2.981 1.271 2.981 2.839s-1.335 2.839-2.981 2.839"/>
   <path transform="translate(38.252 605.39)" d="m0 0c-.161 6.83-1.898 13.178-5.131 19.194-8.466 17.328-34.322 16.914-28.622-4.279 2.1-7.81 9.235-12.399 17.711-13.186-.612 2.057-3.977 9.332-1.26 10.755 4.344-.16 9.738-7.464 11.034-10.947.188-.5.135-1.078.345-1.57"/>
   <path transform="translate(49.02 604.94)" d="m0 0c.162 6.83 1.898 13.178 5.131 19.194 8.466 17.328 34.322 16.914 28.622-4.279-2.1-7.809-9.234-12.399-17.711-13.186.612 2.058 3.977 9.332 1.261 10.755-4.344-.16-9.738-7.464-11.035-10.947-.187-.5-.135-1.078-.344-1.57"/>
   <path transform="translate(44.137 671.11)" d="m0 0c8.919-9.354 14.907-20.17 12.325-32.855-1.424-6.999-4.876-13.48-7.311-20.223-1.523-4.23-1.912-8.649-1.732-13.094h-7.566c.362 4.479-.431 8.819-1.732 13.094-2.319 6.785-5.849 13.219-7.311 20.223-2.734 13.094 3.683 22.97 12.286 32.814l.526.652z"/>
   <path transform="translate(51.193 599.76)" d="m0 0c1.582-4.314 8.032-12.214 11.458-14.466.889-.584-4.248.337-6.547.827-3.016.643-6.936 3.77-6.844 2.666.009-5.053-1.452-13.485-5.258-17.359l-.361-.374-.372.374c-3.805 4.318-5.239 11.911-5.258 17.359.092 1.104-3.828-2.023-6.844-2.666-2.3-.49-7.435-1.411-6.547-.827 3.426 2.252 9.872 10.152 11.454 14.466z"/>
   <path transform="translate(58.635 605.16)" d="m0 0h-30.054c-1.647 0-2.982-1.271-2.982-2.839s1.335-2.839 2.982-2.839h30.054c1.646 0 2.982 1.271 2.982 2.839s-1.336 2.839-2.982 2.839"/>
   <path transform="translate(38.252 442.52)" d="m0 0c-.161 6.831-1.898 13.178-5.131 19.194-8.466 17.328-34.322 16.915-28.622-4.278 2.1-7.81 9.235-12.4 17.711-13.187-.612 2.058-3.977 9.333-1.26 10.755 4.344-.159 9.738-7.463 11.034-10.947.188-.5.135-1.078.345-1.57"/>
   <path transform="translate(49.02 442.07)" d="m0 0c.162 6.83 1.898 13.178 5.131 19.194 8.466 17.328 34.322 16.914 28.622-4.279-2.1-7.809-9.234-12.399-17.711-13.186.612 2.057 3.977 9.332 1.261 10.755-4.344-.16-9.738-7.464-11.035-10.947-.187-.5-.135-1.078-.344-1.57"/>
   <path transform="translate(44.137 508.24)" d="m0 0c8.919-9.354 14.907-20.17 12.325-32.855-1.424-6.999-4.876-13.48-7.311-20.223-1.523-4.23-1.912-8.648-1.732-13.094h-7.566c.362 4.478-.431 8.819-1.732 13.094-2.319 6.785-5.849 13.219-7.311 20.223-2.734 13.094 3.683 22.97 12.286 32.814l.526.652z"/>
   <path transform="translate(51.193 436.88)" d="m0 0c1.582-4.314 8.032-12.214 11.458-14.466.889-.584-4.248.337-6.547.827-3.016.643-6.936 3.77-6.844 2.666.009-5.053-1.452-13.485-5.258-17.359l-.361-.374-.372.374c-3.805 4.318-5.239 11.911-5.258 17.359.092 1.104-3.828-2.023-6.844-2.666-2.3-.49-7.435-1.411-6.547-.827 3.426 2.252 9.872 10.152 11.454 14.466z"/>
   <path transform="translate(58.635 442.29)" d="m0 0h-30.054c-1.647 0-2.982-1.271-2.982-2.839s1.335-2.839 2.982-2.839h30.054c1.646 0 2.982 1.271 2.982 2.839s-1.336 2.839-2.982 2.839"/>
   <path transform="translate(550.98 605.39)" d="m0-0.45074c-0.161 6.83-1.898 13.178-5.132 19.194-8.465 17.328-34.321 16.914-28.621-4.279 2.1-7.81 9.234-12.399 17.711-13.186-0.612 2.057-3.978 9.332-1.261 10.755 4.344-0.16 9.739-7.464 11.035-10.947 0.188-0.5 0.135-1.078 0.344-1.57"/>
   <path transform="translate(561.75 604.94)" d="m0 0c.162 6.83 1.898 13.178 5.132 19.194 8.465 17.328 34.321 16.914 28.622-4.279-2.101-7.809-9.235-12.399-17.712-13.186.612 2.058 3.978 9.332 1.261 10.755-4.344-.16-9.738-7.464-11.035-10.947-.187-.5-.135-1.078-.344-1.57"/>
   <path transform="translate(556.86 671.11)" d="m0 0c8.919-9.354 14.907-20.17 12.326-32.855-1.425-6.999-4.877-13.48-7.312-20.223-1.522-4.23-1.911-8.649-1.731-13.094h-7.567c.362 4.479-.431 8.819-1.732 13.094-2.319 6.785-5.848 13.219-7.311 20.223-2.734 13.094 3.683 22.97 12.286 32.814l.526.652z"/>
   <path transform="translate(563.92 599.76)" d="m0 0c1.582-4.314 8.032-12.214 11.458-14.466.889-.584-4.247.337-6.547.827-3.015.643-6.935 3.77-6.844 2.666.009-5.053-1.452-13.485-5.257-17.359l-.361-.374-.373.374c-3.805 4.318-5.238 11.911-5.258 17.359.092 1.104-3.828-2.023-6.843-2.666-2.3-.49-7.436-1.411-6.547-.827 3.426 2.252 9.872 10.152 11.454 14.466z"/>
   <path transform="translate(571.36 605.16)" d="m0 0h-30.054c-1.646 0-2.981-1.271-2.981-2.839s1.335-2.839 2.981-2.839h30.054c1.646 0 2.982 1.271 2.982 2.839s-1.336 2.839-2.982 2.839"/>
   <path transform="translate(499.71 523.96)" d="m0-0.45074c-0.162 6.83-1.898 13.178-5.132 19.194-8.466 17.328-34.321 16.914-28.622-4.278 2.101-7.81 9.235-12.4 17.712-13.187-0.612 2.058-3.978 9.332-1.261 10.755 4.344-0.159 9.738-7.464 11.035-10.947 0.187-0.5 0.135-1.078 0.344-1.57"/>
   <path transform="translate(510.47 523.5)" d="m0 0c.161 6.83 1.898 13.178 5.132 19.194 8.465 17.328 34.321 16.914 28.622-4.278-2.101-7.81-9.235-12.4-17.712-13.187.612 2.058 3.978 9.332 1.261 10.755-4.344-.159-9.739-7.463-11.035-10.947-.188-.5-.135-1.078-.344-1.57"/>
   <path transform="translate(505.59 589.68)" d="m0 0c8.919-9.354 14.907-20.17 12.325-32.855-1.424-6.999-4.877-13.481-7.311-20.223-1.523-4.23-1.911-8.649-1.732-13.094h-7.566c.362 4.478-.432 8.818-1.732 13.094-2.319 6.784-5.848 13.219-7.311 20.223-2.734 13.094 3.683 22.969 12.286 32.813l.526.653z"/>
   <path transform="translate(512.65 518.32)" d="m0 0c1.582-4.313 8.032-12.214 11.458-14.466.889-.584-4.247.337-6.547.827-3.015.643-6.935 3.77-6.844 2.667.008-5.053-1.452-13.486-5.258-17.36l-.361-.374-.372.374c-3.805 4.318-5.239 11.911-5.258 17.36.092 1.103-3.828-2.024-6.844-2.667-2.299-.49-7.435-1.411-6.547-.827 3.427 2.252 9.873 10.153 11.455 14.466z"/>
   <path transform="translate(520.09 523.72)" d="m0 0h-30.054c-1.646 0-2.982-1.271-2.982-2.839s1.336-2.839 2.982-2.839h30.054c1.646 0 2.981 1.271 2.981 2.839s-1.335 2.839-2.981 2.839"/>
   <path transform="translate(550.98 442.52)" d="m0-.08925c-.161 6.831-1.898 13.178-5.132 19.194-8.465 17.328-34.321 16.915-28.621-4.278 2.1-7.81 9.234-12.4 17.711-13.187-.612 2.058-3.978 9.333-1.261 10.755 4.344-.159 9.739-7.463 11.035-10.947.188-.5.135-1.078.344-1.57"/>
   <path transform="translate(561.75 442.07)" d="m0 0c.162 6.83 1.898 13.178 5.132 19.194 8.465 17.328 34.321 16.914 28.622-4.279-2.101-7.809-9.235-12.399-17.712-13.186.612 2.057 3.978 9.332 1.261 10.755-4.344-.16-9.738-7.464-11.035-10.947-.187-.5-.135-1.078-.344-1.57"/>
   <path transform="translate(556.86 508.24)" d="m0 0c8.919-9.354 14.907-20.17 12.326-32.855-1.425-6.999-4.877-13.48-7.312-20.223-1.522-4.23-1.911-8.648-1.731-13.094h-7.567c.362 4.478-.431 8.819-1.732 13.094-2.319 6.785-5.848 13.219-7.311 20.223-2.734 13.094 3.683 22.97 12.286 32.814l.526.652z"/>
   <path transform="translate(563.92 436.88)" d="m0 0c1.582-4.314 8.032-12.214 11.458-14.466.889-.584-4.247.337-6.547.827-3.015.643-6.935 3.77-6.844 2.666.009-5.053-1.452-13.485-5.257-17.359l-.361-.374-.373.374c-3.805 4.318-5.238 11.911-5.258 17.359.092 1.104-3.828-2.023-6.843-2.666-2.3-.49-7.436-1.411-6.547-.827 3.426 2.252 9.872 10.152 11.454 14.466z"/>
   <path transform="translate(571.36 442.29)" d="m0 0h-30.054c-1.646 0-2.981-1.271-2.981-2.839s1.335-2.839 2.981-2.839h30.054c1.646 0 2.982 1.271 2.982 2.839s-1.336 2.839-2.982 2.839"/>
  </g>
  <path d="m965.55 297.08 172.63-84.856v84.856zm-303.74-74.649v-74.649l172.63-84.854h151.87zm0 74.649 476.38-234.15v74.648l-324.51 159.5z" fill="#fedd00"/>
  <path transform="matrix(.75 0 0 -.75 0 720)" d="m0 0v480h800v-480zm85.33 85.33h629.34v309.34h-629.34z" fill="#fff"/>
  <path d="m600 360v-360h600v360zm63.998-63.998h472v-232h-472z" fill="#da291c"/>
  <path transform="translate(482 720)" d="m0 0v-63.998h54l63.998 63.998zm-182-63.998h91v63.998h-91zm-182 0h91v63.998h-91zm-118 63.998v-127h63.998v63l-63.997 63.998zm536-233h63.998v106h-63.998zm-536 0v-127l63.998 64v63zm482-63v-64h118l-64 64zm-182-64h91v64h-91zm-182 0h91v64h-91z" fill="#da291c"/>
  <g id="b" transform="matrix(.6214 0 0 -.62106 113.43 367.16)">
   <path d="m261.09 134.08c-5.7915-1.8558-7.2659-10.244-6.5568-13.125l9.443-0.7827c-1.2959 3.0922-2.7646 8.9918-2.8862 13.908z" fill="#fedd00" fill-rule="evenodd" stroke="#000" stroke-width="3.0182"/>
   <path transform="translate(84.208 35.363)" d="m50.625 27.092c-0.32308-0.01125-0.6442-0.01071-0.96484 2e-3 -4.2752 0.16885-8.2764 2.4609-10.41 6.7695 13.692-2.0605 10.471 5.9732 9.1875 10.467l12.125 3.1582c1.8672-6.3934 3.3336-14.431-3.2539-18.383-2.116-1.2693-4.422-1.9349-6.6836-2.0137zm26.193 10.959c-1.7848 0.08096-3.5992 0.57702-5.248 1.5039 4.9964 2.5511 5.5997 9.2728 1.3887 15.02l11.57 5.4648c2.1118-4.4813 3.451-12 1.5332-16.625-1.537-3.7067-5.3176-5.5414-9.2441-5.3633zm-57.191 8.0059c-4.1316 0.13585-7.8465 2.1277-9.3848 6.5957 12.101-2.2675 10.932 3.2704 11.77 9.7559l13.604-4.8555c-1.9796-6.0981-7.2729-10.357-13.084-11.303-0.97625-0.15882-1.9509-0.22471-2.9043-0.19336zm22.527 70.295c-2.3941 3.5858-4.2059 9.2219-14.768 6.3262 5.017 14.542 21.518 8.1441 24.471 4.8945zm-9.084 109.76c-8.0668-0.25381-15.081 3.9065-16.662 11.777 6.8275-1.9053 13.277-1.015 16.654 3.3711l11.826-9.4824c-2.1734-3.3052-6.6315-5.5028-11.818-5.666zm-16.289 25.914c-2.0948-0.0521-4.4342 0.22571-6.8086 1.1484-6.6858 2.5982-9.4917 8.8224-8.166 15.557 9.2204-9.1536 11.584-3.6796 17.438 0.63672l5.5703-15.51s-3.4247-1.7174-8.0332-1.832zm11.203 25.697s-16.834 3.8597-20.297 11.998c-3.6939 8.6806 3.073 9.699 5.6602 10.477 0.34796-6.3516 7.9487-8.1308 16.213-8.0332zm60.645 9.5508-15.438 4.9258c3.9114 4.5782 4.6894 7.6565-2.4902 15.232 6.4844 2.1835 13.691-0.9084 16.957-6.9629 2.262-4.1927 2.6516-9.5396 0.9707-13.195zm-27.967 120.83c-8.1486 0.22405-16.007 5.0994-15.764 11.246 4.177-4.491 13.186-1.5132 19.568 3.3652 3.7847-4.5552 8.4224-7.5124 10.674-9.7676-3.0439-3.0565-8.7646-5.0009-14.479-4.8438zm-9.9141 24.678c-3.2445-0.0621-7.5369 0.56537-11.836 2.7676-8.9002 4.5591-8.9264 15.351-0.64844 16.291-0.21155-8.0597 7.3399-7.86 13.863-6.3262l3.1055-12.068c-0.96839-0.34229-2.5377-0.62678-4.4844-0.66406zm11.836 24.047c-5.069 0.52365-10.006 2.5629-13.412 7.3555-4.8073 6.7646-2.4826 16.325 3.3613 15.891-0.96451-10.351 8.7214-9.2648 16.064-10.139zm61.957 1.0293-12.256 7.0527c5.4134 3.9285 9.7688 9.7138 7.0976 15.082 4.9854-0.534 8.9008-3.6484 9.2949-8.4199 0.46438-5.6222-2.0833-11.048-4.1367-13.715zm228.48 16.221-9.1992 11.949c7.5891 0.15048 10.557 5.4785 7.6309 10.803 5.3048 0.50769 10.131-3.5637 10.527-8.8711 0.51287-6.8682-3.8588-11.104-8.959-13.881zm-77.746 1.4277c-3.0505 0.0754-5.9964 0.73027-8.8262 2.3711-6.4583 3.7448-9.0073 15.052 0.65821 18.295 0.2733-4.5807 1.6895-9.6925 11.812-8.2324l4.1445-11.66c-2.2021-0.41372-4.3626-0.71539-6.4746-0.77148-0.43999-0.0117-0.87866-0.0127-1.3144-2e-3zm13.98 21.91c-4.8896 0.66482-11.616 3.5009-14.605 8-4.7442 7.1407-2.0034 15.802 2.2012 18.639 1.0318-8.9307 2.6341-11.416 14.785-15.629zm16.531 10.723c-3.8407 2.9788-7.0916 6.7946-7.0449 12.424 0.0879 10.603 8.8575 10.471 14.297 8.627-6.0834-3.1714-2.6366-5.9488 1.6894-9.502 2.2482-1.8465 2.8731-4.0378 2.6035-6.4395z" fill="#da291c" fill-rule="evenodd" stroke="#000" stroke-width="3.0182"/>
   <path d="m148.18 182.84c-0.2979 6.0306 2.4587 13.3-2.4176 18.706-2.2262 2.468-5.8118 3.9162-10.203 3.7853-4.1555-0.12388-10.099-2.6921-13.634-2.5233-4.934 0.23554-7.2934 4.2297-7.2079 8.1575 2.0857-1.5369 4.2172-2.6788 7.2061-2.6412 3.9235 0.0472 8.4081 3.8475 15.854 3.3347 7.1252-0.49079 13.266-4.903 16.389-11.357 3.183-6.5771 1.0463-11.566 4.5305-17.568 0.53844 4.4324 1.4952 8.5101 3.7593 13.057 2.9303 5.8848 8.6037 9.7275 10.515 22.858 0.77684 5.3378-0.24599 12.394-4.234 16.413 5.7498 2.4793 12.388-0.94062 14.764-5.5879 3.8324 8.157 8.9316 15.631 15.996 19.903 9.0979 5.5023 18.196 8.4994 28.723 9.3002l19.571-16.769 11.091-36.657c-5.7029-1.9596-12.289-4.607-17.191-6.4613-5.5746-2.1088-11.649-3.339-16.483-7.7088-5.8368-5.2767-11.242-12.416-16.635-18.558-10.692-12.176-14.369-11.831-17.978-16.092-3.7284-4.4022-5.3368-10.464-15.858-21.418-2.8965-3.0158-6.9243-4.2244-9.6025-7.1499-2.6109-2.852-3.6158-6.9618-3.3296-10.485 0.80671-9.9282 6.5888-11.783 8.278-16.976 2.5001-7.6854-4.6804-13.401-12.094-11.621-5.4595 1.3114-1.9549 8.0771-2.4508 10.644-0.7294 3.7765-3.9125 7.0559-4.0081 10.007-3.246-1.3577-3.8887-6.5003-3.6011-11.435 0.36199-6.2121 1.7468-14.499-4.2532-18.359-4.6522-2.993-12.31-2.8787-14.282 2.9782-2.2918 6.8064 5.7086 7.8235 6.237 9.3219 0.62857 1.7825 0.93686 12.689 0.98795 14.493-2.0841-0.93999-3.8675-2.3268-6.3022-3.8961-6.5679-4.2336-6.4234-10.569-12.801-11.217-5.876-0.59728-13.397 3.5456-11.294 9.7347 2.5287 7.4423 11.177 5.98 13.067 6.6749 2.1468 0.78946 17.541 8.8708 17.023 33.292-0.0701 3.3017-9.3306 3.0738-10.3 10.174-0.96378 7.059 3.3162 12.641 10.02 12.26 5.0159-0.28469 8.124-3.6999 9.4106-7.0682 1.4237 8.3906 5.6564 14.198 5.882 17.202 0.16383 2.1818-2.9681 5.7014-3.1434 9.2499z" fill="#fedd00" fill-rule="evenodd" stroke="#000" stroke-width="3.0182"/>
   <path d="m256.99 338.54c-6.0898 3.9029-17.781 7.2387-27.002 12.51-17.061 9.7531-25.287 16.974-25.998 24.524-0.0725 0.76955-2.2906 8.415-12.206 15.478-5.9307 4.2243-13.679 7.4741-22.179 6.9576-5.6532-0.34353-13.536-2.2204-16.046-8.9993-4.1446-11.194 7.2812-15.092 5.7083-26.391-0.71152-5.1112-5.45-6.9589-6.9706-6.424 2.1725 2.277 3.3008 5.4202 2.7047 8.5694-1.0181 5.3788-5.4516 8.6441-7.8255 14.729-2.2893 5.8677-2.2827 15.032 5.5911 20.837 7.365 5.4296 20.167 7.5763 32.335 3.9803 12.131-3.5848 16.525-8.7576 20.569-13.444-0.95202 5.4211 0.56457 7.5211-0.58801 11.6-2.1774 7.7066-8.4326 11.697-15.603 14.531 8.7311 5.3883 17.74 0.91504 21.213-4.9735 3.2694-5.5436 5.1021 10.618 2.3274 20.76-1.8589 6.7948-5.5217 12.576-10.685 16.529-11.565 8.8534-21.388 9.5069-32.314 6.6186-6.2991-1.6652-4.002-8.1613-13.088-9.2521-4.0606-0.48746-9.312 5.2728-9.376 9.6254-0.0994 6.9438 18.073 8.3369 19.72 10.098-4.1613 2.8256-10.552 4.1442-16.223 3.8726-2.0884-0.10003-7.5909-4.6834-12.255-2.3267-2.8204 1.4252-8.128 7.3018-3.6067 12.957 4.7356 5.9233 11.788 0.51456 15.36-0.6546 2.9079-0.95185 16.206-0.27834 21.931-1.4033-2.1397 3.5641-7.4551 6.7635-12.938 8.2671-6.5249 1.7892-10.679-5e-3 -13.511 4.2535-4.0409 6.0776 1.1154 15.319 7.0242 14.879 11.056-0.81226 9.6977-12.637 21.552-14.566 4.9804-0.81072 10.724-0.76478 14.246 0.0467 4.9558 1.1417-1.3908 5.7222 4.056 8.8032 6.4641 3.6565 16.646-3.2013 16.769-6.1128 0.21987-5.2242-3.5352-5.584-5.9014-7.7867 7.4696 0.58383 13.586 0.3118 18.787-2.7607 0.0521 3.6775-1.8608 6.284-1.2702 10.132 0.5636 3.6723 3.2367 5.1046 6.0836 4.7658-0.6759-8.586 5.5734-10.41 9.5256-15.645 1.9669-2.6055 3.2567-5.076 4.5588-7.6401 0.64437 6.5734 1.2776 15.865 14.148 12.846-5.7363-3.4542-6.3481-10.823-4.9255-18.079 0.50243-2.5625 1.8421-4.8027 3.9834-6.4397 3.6013-2.7532 10.324 3.3194 19.423-2.4074-3.8676-1.1358-4.9637-3.3565-4.6385-5.6596 0.42296-2.9955 2.0212-5.6294 2.1056-7.9436 0.16764-4.5951-2.7163-8.2718-4.9731-11.471-3.7884-5.3708-3.4827-15.041-3.1245-22.734 0.50117-10.763 3.372-18.648 18.606-29.251 14.207-9.888 41.188-4.9505 41.332-7.0763 3.371-49.818-11.872-56.189-24.886-63.807-6.2547-3.6612-8.567-4.7305-22.765 7.2548-5.8036 4.8991-10.225 12.355-18.759 17.825z" fill="#fedd00" fill-rule="evenodd" stroke="#000" stroke-width="3.0182"/>
   <path d="m295.3 314.85c9.5337 9.021 15.85 26.119 15.077 36.817-9.4715 16.025-6.9274 25.219 2.226 25.701 7.4691 0.39911 9.0446-7.9402 8.9671-18.129-0.0691-9.0898-1.1898-16.668-4.8411-24.548-4.9822-10.752-13.218-15.792-21.429-19.842z" fill="#fedd00" fill-rule="evenodd" stroke="#000" stroke-width="3.0182"/>
   <path d="m420.74 373.36c6.8076-0.45785 13.983-8.18 26.01 4.6295 2.3113-4.9662 1.909-11.286-3.5862-14.948 7.8176-5.3532 14.922-15.542 15.579-25.928 0.79324-12.547 5.6554-28.319 15.868-32.333 5.4182-2.1294 10.636 1.6701 10.333 8.4002-0.65696 14.609-14.261 18.598-15.111 34.937-0.4684 9.008 5.4028 18.164 15.617 12.789-5.8728-2.5327-9.767-6.3276-9.4725-11.036 0.88496-14.147 18.491-25.715 19.635-39.083 1.3458-15.724-7.6498-20.46-14.026-20.907-8.5376-0.59868-18.782 5.0196-24.788 15.811-3.7015-15.405 6.7625-30.74 18.337-38.238 9.6982-6.2828 20.752-11.846 26.016-20.68 5.9347-9.9596 4.3827-22.266-2.1094-28.186-0.17704 5.8728-4.0401 15.826-16.188 22.44-14.746 8.0286-29.077 12.782-40.594 34.9-3.5076-38.969 37.991-55.229 55.088-67.747 21.22-15.538 13.349-48.043 6.6827-52.34 0.51632 5.4633 0.95736 14.026-5.3138 24.323-7.2538 11.91-20.317 17.554-36.021 26.708-15.618 9.1042-28.416 23.345-34.285 38.099-1.9654-9.8098 4.9778-24.264 13.923-34.489 9.2651-10.59 20.416-19.95 26.749-25.594 12.615-11.242 31.012-26.826 32.132-60.018 0.79208-23.344-11.222-39.377-27.662-45.783-9.6418-3.757-23.645-4.0058-33.224-1.6063-4.8058 1.2039-9.582 2.9904-14.038 5.8209-3.1373 1.9929-8.6625 0.95277-8.2487-4.617 0.4876-6.5635 9.8291-7.2801 10.633-14.978 0.66345-6.3501-4.2779-11.318-9.4352-13.708 1.372 3.8452 2.6755 8.3782 0.1148 12.932-3.3376 5.9355-11.243 5.5098-11.993 16.601-0.37063 5.5475 3.4789 11.695 8.7583 13.113 0.63075 0.3642-0.87989 1.1749-1.3075 1.7933-5.5855 8.0774-6.3688 18.598-5.6008 25.862 1.2826 12.13 5.5956 16.309 5.9314 27.563 0.10476 3.5079 0.35296 13.624-3.7032 20.399-4.9999 8.3505-9.3745 11.719-14.271 14.433 7.01 0.26403 14.452-1.5458 19.638-3.7076 9.5861-3.9958 17.502-16.153 18.937-24.118 0.95573-5.3034 0.58717-10.23-0.2266-15.017 4.7786 1.4835 13.036 1.5058 18.713-2.4602 5.8293-4.0725 8.8994-12.633 4.355-19.919-1.3181 7.5316-6.2611 10.375-13.776 10.862-7.1512 0.46278-12.985-3.8632-13.804-11.618-1.2076-11.429 8.3255-20.016 21.713-20.51 17.734-0.65397 27.698 12.124 27.182 29.184-0.51632 17.099-8.6632 29.88-20.372 40.342-10.06 8.9888-20.663 17.741-31.094 28.62-8.1352 8.4844-24.13 26.44-24.099 49.716 0.0226 17.248 5.3881 31.062 13.551 43.425 8.1632 12.363 13.074 22.71 16.667 32.365 4.3175 11.605 2.8313 27.627-8.4001 32.39-11.633 4.934-27.76-1.698-33.805-16.877-4.2293-10.62-10.616-21.798-16.449-32.392-6.2288-11.313-17.751-21.647-21.97-36.574-3.74-13.232-3.2909-28.643-2.5609-36.446 2.0003-21.38-5.121-41.278-25.479-47.635-20.358-6.3577-37.287-0.66508-48.284 9.4377-11.151 10.244-12.992 23.707-23.953 35.661-10.509 11.461-29.009 15.134-41.644 22.222-12.568 7.05-22.763 16.81-33.744 24.587-2.9721 2.1047-8.3737 6.2958-20.41 6.3511-4.2855 0.0197-9.9503-1.0909-14.756-3.6431-8.2855-4.4006-6.0259-8.8607-11.755-10.237-7.4726-1.7945-14.645 4.6825-14.399 10.757 0.28816 7.2423 7.7847 4.2534 11.263 4.5141 5.148 0.38578 1.8661 4.7641 14.882 8.6816-5.8637 1.8751-12.969 2.2569-19.782 1.6536-4.5716-0.40483-8.101-4.9843-14.176-3.675-7.0353 1.5164-12.114 10.423-6.6125 15.966 3.4369 3.4627 11.485-0.40402 14.946-0.64453 1.8688-0.12985 11.287 2.0914 18.302 2.006-2.1761 2.2372-5.457 4.1032-9.9148 4.4844-5.3656 0.45882-8.338-0.39704-11.992 0.91482-9.1189 3.2735-7.534 17.361 3.0565 17.021 5.0445-0.16033 9.3585-2.1288 11.59-4.8189 3.0098-3.6277 8.0485-9.3914 20.077-8.7648 11.836 0.61661 4.8541 8.2589 5.9953 11.255 1.9872 5.217 14.639 2.7317 18.457-2.2392 2.1891-2.8499 1.1619-6.2971-0.60108-8.1132 5.5807 0.36719 10.66 0.17034 15.374-0.74558 0.4022 1.355-0.77685 5.8495-1.6137 7.6241 6.0528-0.48205 7.7234-4.142 12.409-6.3545 4.2493-2.0064 10.549-4.2982 16.877-10.275 0.0611 3.6463-1.7211 7.5488-1.6123 12.296 0.11405 4.9776 4.1638 8.0022 8.3914 8.4149-0.56671-9.9549 0.14688-16.518 6.9447-20.522 3.3132-1.9512 7.5139-3.5111 11.059-4.857 5.7006-2.1645 10.436-5.8379 13.415-9.6901 0.84103-1.0877 6.3166-6.3909 7.5626-4.9978 1.4445 2.4848 2.7788 5.0372 8.0801 10.164 5.0715 4.9047 10.491 8.8411 16.523 12.251 6.9146 3.9086 15.341 8.8858 20.069 12.36 5.3429 3.9253 9.4 8.809 12.118 16.337 2.5903 7.1744 3.7754 15.916 3.3666 23.656-0.30623 5.7972-0.72727 10.685-0.0965 15.998 0.68936 5.806 5.0611 8.1909 4.8377 13.588-0.0926 2.2368-5.7201 4.918-5.9026 11.262-0.24782 8.6148 3.9934 12.178 3.8044 17.573-0.15226 4.3462-3.1854 7.6557-6.5992 9.2154 3.4597 5.2276 12.291 1.0379 14.599-5.3028 3.4019 4.2946 5.8451 11.07 5.4973 18.784-0.91782 10.385-8.1873 16.397-20.65 22.29-8.4921 4.0155-24.277 13.982-24.842 26.055-0.24206 5.2531 0.92949 9.2908 3.874 12.505-0.81235-4.9116-0.144-10.006 3.1454-15.113 7.7132-11.975 22.976-15.694 34.408-22.94 10.675-6.7665 15.009-15.418 15.411-24.972 0.3209-7.5006-2.677-18.736-2.6929-21.386 3.2686 4.4101 6.0195 7.619 9.9086 10.469 4.7644 3.4913 10.624 5.7877 15.44 8.3614 5.7484 3.072 10.662 7.4814 15.163 11.436 3.6633 3.2189 8.2013 7.4358 10.854 11.812 0.63632 1.0499 2.012 5.8089 1.9521 10.646-0.0359 2.8179-0.14681 9.3081-0.69916 14.01-0.70256 5.98-2.8155 12.612-6.8278 18.09-2.4367 3.3268-5.9425 5.9095-10.173 7.4928-5.4698 2.047-9.0438-0.62869-13.032-0.38945-6.4561 0.38726-9.3537 8.6177-5.7618 13.343 3.0566 4.0209 7.8655 0.22273 11.298-1.6723 3.157-1.7431 9.2483-1.8862 15.232-4.1036-8.0385 12.474-11.727 8.3793-15.376 11.698-4.3834 3.9866-2.0083 15.918 4.1029 14.531 6.5253-1.4808 5.0823-6.4703 5.9952-7.2215 1.9983-1.6443 8.7339-5.0666 14.659-12.33 0 0 0.0355 5.259-1.2092 8.0667-1.5232 3.4359-7.8656 4.413-8.3423 9.5605-0.65931 7.1195 7.0813 8.9492 12.551 6.4544 9.1344-4.1661 1.7226-12.914 4.6378-16.612 3.0694-3.894 5.352 0.16272 14.898-13.143 1.0433 1.9992 3.5332 3.1048 6.188 2.7769 6.9088-0.85331 14.121-9.4794 9.2179-14.645-2.7047-2.8496-11.525 0.15068-9.2941-2.234 3.933-4.205 7.0862-13.569 8.1003-16.482 1.88 3.7413 4.1828 8.2143 10.854 7.3031-4.9372-10.753 2.7181-10.265 3.0435-18.043 0.0928-2.2185-0.83657-4.8487-1.9575-6.6112 7.4796 3.8753 22.66 5.5418 21.269-7.3136-7.8149 5.8348-12.751 2.6202-17.948-0.65782-3.5728-2.2534-7.5933-5.8799-7.2684-12.671 0.34257-7.2584 5.1814-5.3516 5.8778-13.395 0.22754-2.6281-0.39921-5.8884-2.6397-7.0693-3.4485-1.8176-7.7843 0.53323-7.039-5.3845 0.39527-3.1385 9.3106-8.9647 13.661-11.513-2.8326-0.23981-8.3116 0.0367-12.394 1.3458-3.4447 1.1048-8.9833 4.6036-14.431 3.9853-3.3696-0.38246-7.8043-4.1829-11.894-8.473-5.5994-5.8744-10.255-13.368-13.282-22.18-2.4016-6.9909-3.6418-19.761-1.7584-19.466 6.927 2.1924 13.192 5.193 20.969 4.67z" fill="#fedd00" fill-rule="evenodd" stroke="#000" stroke-width="3.0182"/>
   <path d="m322.8 145.08c-8.6005 0.21967-16.895 0.44427-24.11-1.4982-6.7206-1.8094-16.181-0.86556-23.428 2.1532-11.657 4.8565-19.112 8.415-31.825 8.6238-10.705 0.17592-14.806-4.7187-14.6-14.675 3.1623 5.0265 7.2845 6.8437 10.908 6.8596 4.6619 0.0205 12.635-1.8449 18.529-5.1522 30.513-17.122 53.095-14.06 64.526 3.6884z" fill="#da291c" fill-rule="evenodd" stroke="#000" stroke-width="3.0182"/>
   <path d="m267.75 152.69c-0.23412 3.0466 1.1694 6.6715 2.8708 8.7589l6.2674-2.4922c-3.5784-1.3059-6.9326-3.5337-9.1382-6.2668z" fill="#fedd00" fill-rule="evenodd" stroke="#000" stroke-width="3.0182"/>
   <path d="m371.22 274.34c-3.6362-3.976-4.2025-10.728-3.32-16.501 1.2034-7.8727 5.7383-14.841 6.2341-23.449 0.57067-10.069-4.7096-11.674-4.6752-16.6 5.1756 6.6211 17.353 11.336 19.816 0.21996-6.1446 0.0686-12.189-3.0952-14.988-8.4304-5.0408-9.608 3.0348-14.43 2.9253-24.466-0.12744-11.839-5.8334-13.885-6.8648-18.085 5.2345 0.76199 11.278 0.48552 11.186-5.8148-2.9397 1.6315-6.2572 1.3162-8.7471-1.8153-2.9858-3.7553-1.9267-9.4609-3.4026-13.814-2.7404-8.0826-6.4682-7.1448-7.8356-11.448 5.6812 1.8623 12.767 1.4077 11.632-7.0894-2.2043 1.9625-5.345 2.6599-8.2318 1.4207-5.1921-2.2288-3.5294-8.2802-6.091-13.2-1.8552-3.5633-5.5973-5.7611-6.4364-8.989 4.7476 0.54446 10.235 0.58781 9.4591-5.0272-2.2144 1.4199-5.2207 0.83551-7.3201-0.99591-9.8258-8.5714-16.961-18.221-26.952-23.21-8.0996-4.0445-27.537-4.6728-42.318-3.3137-10.893 1.0016-19.348 7.0677-25.452 11.474-5.3197 3.84-1.2596 6.284 0.67207 8.8797-5.0266 0.14652-10.302 1.6702-14.691 4.1982-2.5322 1.4583-5.6943 4.2786-5.1786 5.7494 0.29804 0.85002 3.581-0.32369 5.059-1.6144 0.41263 3.4106 0.0318 7.4417 0.67117 10.948 0.84085 4.6113 4.1391 8.4483 8.0567 8.833 10.389 1.02 19.484-0.90581 28.158-5.8291 11.743-6.6657 16.75-0.20789 18.908 7.2531 2.1761 7.5222 1.1039 17.417-4.8926 24.422-3.1131 3.6362-8.9646 9.3916-15.404 10.084-3.6145 0.38859-7.3539-0.86851-10.289 0.99212-1.4967 0.94864-1.3666 4.5895-1.4081 7.5537-0.0324 2.3139 1.8913 3.2875 4.377 3.5036 5.7619 0.50091 5.2082 6.5196 8.6636 6.9367-0.0101-1.55 0.53093-7.8673 1.8893-8.115 5.4597-0.99577 17.825-4.4818 17.753-2.3499-0.1855 5.3629-12.974 19.136-23.978 19.74-6.1513 0.3381-19.326-2.5087-26.908-1.9116-15.899 1.241-24.099-9e-3 -24.275-11.807-13.703 10.442-0.41512 21.021 12.895 26.721-4.4644 0.0723-9.2516 1.1419-14.416 2.8196-7.6738 2.4928-16.415 0.49289-22.443-4.9675 0.50846 19 5.4742 29.039 15.826 33.717 12.302 5.5588 19.883 3.0879 27.683 3.296-5.8882 4.2216-12.047 11.921-17.074 18.167-5.6478 7.018-14.415 13.281-25.062 13.483 5.7403 8.3292 14.999 12.569 25.517 12.758 14.193 0.25802 25.136-5.2541 33.685-13.616-0.28951 9.1128-8.9702 13.616-9.1422 24.603-0.15365 9.8186 5.4613 17.783 15.428 18.614-4.9415-14.957 17.24-22.669 25.862-27.233 8.1594-4.3192 15.021-9.7154 20.171-17.779 2.274 8.9381-8.8827 17.051-1.3723 29.564 5.0503 8.414 14.83 11.011 24.854 9.5645-7.0467-3.3966-9.8538-12.094-6.5632-20.683 4.7252-12.334 12.605-14.084 19.027-28.555 1.7036-3.8391 2.4041-9.8968 2.8335-15.656 4.4002 5.8267 3.1765 11.872 2.6715 17.108-0.94882 9.8366 1.0759 22.563 13.82 19.742z" fill="#fedd00" fill-rule="evenodd" stroke="#000" stroke-width="3.0182"/>
   <path d="m310.54 154.07c0.2761 2.8983 0.0667 5.6325-0.55631 8.4428m-13.971-53.917c1.4188 0.91182 4.7785 3.545 7.9238 3.3832 6.7859-0.34916 10.248-0.66206 12.667 0.8177 2.8712 1.756 3.1357 6.2858 6.6398 13.012m4.2064-29.704c1.2785 2.4556 2.1013 5.3284 2.6609 8.0847m-4.7661-10.892c1.6995-3.2985 4.4868-5.7344 8.1343-5.8094 6.5612-0.13485 7.8293 12.541 4.5006 18.391m-73.685-10.757c2.2609-4.8423 7.0133-7.8639 12.345-7.6339 7.679 0.3271 4.1803 7.9097 17.412 6.6021m-24.001 1.2302c5.0395-2.5598 7.5105 0.05287 7.8789 3.0839 0.32822 2.7003-2.5679 6.3219-7.9928 3.228" fill="#fedd00" fill-rule="evenodd" stroke="#000" stroke-linecap="round" stroke-width="3.0182"/>
   <path d="m265.23 81.47c23.182-3.9637 46.364-4.0149 69.546 0 0.28568-3.6594 1.5442-8.5979 3.3048-12.637 3.0716-7.046 7.0214-14.45 11.049-20.771-3.072-0.12914-7.1106 2.3835-10.078 7.4418-1.1872-2.261-6.1061-3.9615-9.2661-0.95006 2.6672 2.9035 6.6193 6.47 3.9638 10.538-1.9016 2.913-5.4626 2.4106-7.8554 0.945-2.1466-1.3149-4.1324-4.3509-4.8345-8.8489-2.9279 4.9781-6.2726 7.2717-9.2876 7.3479-5.035 0.12724-7.5267-1.5564-7.5279-4.3239-2e-3 -4.8579 5.5041-6.6818 9.2657-7.8628-1.2309-4.188-6.341-5.1748-8.4997-3.8103-0.0406-5.8643-2.2818-10.06-5.007-11.484-2.7252 1.4242-4.9664 5.6195-5.007 11.484-2.1587-1.3645-7.2688-0.37769-8.4998 3.8103 3.7616 1.181 9.2679 3.0049 9.2658 7.8628-1e-3 2.7675-2.493 4.4511-7.5279 4.3239-3.015-0.07619-6.3598-2.3697-9.2876-7.3479-0.70216 4.498-2.6878 7.534-4.8346 8.8489-2.3927 1.4656-5.9538 1.968-7.8554-0.945-2.6555-4.0678 1.2966-7.6343 3.9638-10.538-3.1599-3.0114-8.0789-1.311-9.2661 0.95006-2.9674-5.0583-7.006-7.571-10.078-7.4418 4.0278 6.3207 7.9776 13.725 11.049 20.771 1.7606 4.0387 3.019 8.9772 3.3047 12.637z" fill="#fedd00" fill-rule="evenodd" stroke="#000" stroke-linecap="round" stroke-width="3.0182"/>
  </g>
  <use transform="translate(600 359.8)" width="100%" height="100%" fill="#fedd00" stroke-width="1.0003" xlink:href="#b"/>
 </g>
</svg>
