<?xml version="1.0" encoding="UTF-8"?>
<svg width="1350" height="900" xmlns="http://www.w3.org/2000/svg" xmlns:xlink="http://www.w3.org/1999/xlink">
 <rect width="1350" height="900" fill="#fff"/>
 <rect x="600" width="1350" height="100"/>
 <rect x="600" y="200" width="1350" height="100"/>
 <rect y="400" width="1350" height="100"/>
 <rect y="600" width="1350" height="100"/>
 <rect y="800" width="1350" height="100"/>
 <use x="-225" y="-122.5" xlink:href="#ermine"/>
 <use x="-75" y="-122.5" xlink:href="#ermine"/>
 <use x="75" y="-122.5" xlink:href="#ermine"/>
 <use x="225" y="-122.5" xlink:href="#ermine"/>
 <use x="-150" xlink:href="#ermine"/>
 <g id="ermine">
  <use transform="rotate(-90 300,167.5)" xlink:href="#s"/>
  <path id="s" d="m300 167.5-9-13.5 9-22.5 9 22.5z"/>
  <use transform="rotate(90 300,167.5)" xlink:href="#s"/>
  <path d="m300 167.5 40.5 99-31.5-13.5-9 18-9-18-31.5 13.5z"/>
 </g>
 <use x="150" xlink:href="#ermine"/>
 <use x="-225" y="122.5" xlink:href="#ermine"/>
 <use x="-75" y="122.5" xlink:href="#ermine"/>
 <use x="75" y="122.5" xlink:href="#ermine"/>
 <use x="225" y="122.5" xlink:href="#ermine"/>
</svg>
