<?xml version="1.0" encoding="UTF-8"?>
<svg xmlns="http://www.w3.org/2000/svg" xmlns:xlink="http://www.w3.org/1999/xlink" width="1350" height="900">
<clipPath id="Alsace"><rect width="1350" height="900"/></clipPath>
<clipPath id="Lorraine"><rect width="900" height="900"/></clipPath>
<clipPath id="ChampArd"><rect width="450" height="900"/></clipPath>
<g clip-path="url(#Alsace)">
<rect width="1350" height="900" fill="#d9152a"/>
<path d="M900,0 1350,900" stroke="#fff" stroke-width="150"/>
<g transform="translate(1125,450) rotate(63.434949)">
<g id="deco">
<path id="bend" d="m45 130c-12.1537-21.6426-44.9641-3.17873-43.9182 10.2638 2.76142-7.1103 7.38044-10.6524 13.8985-10.6528 1.91392 0.1568 3.40814 0.38873 4.48663 0.69952 5.62816 2.68919 8.44311 6.68381 8.44238 11.9853-0.00076 1.55184-0.30897 3.18189-0.9281 4.88811-2.58753 5.22311-7.08387 7.8358-13.4948 7.83495l-0.88813 0.0005c-2.26165 0.001-4.38817-0.36083-6.38142-1.08547l2.42286 2.32711c3.23184 4.13688 4.84612 7.71895 4.84831 10.7448-0.0815 1.44789-0.29562 2.84449-0.64639 4.18901-2.72065 5.8699-6.9627 8.80558-12.728 8.80517-1.05195-0.00092-2.5322-0.24582-4.44441-0.73611-5.79139-2.68943-8.68721-6.63415-8.68646-11.8306l-0.001-0.54379c0.001-2.09434 0.80854-4.5637 2.42397-7.40905 0.78192-1.78472 2.30333-3.59456 4.50626-5.48824-2.16204 0.66452-4.36974 1.02704-6.68752 1.02667l-0.36124 0.00099c-1.37594-0.00062-2.95032-0.15567-4.72842-0.46655-6.62668-2.1462-9.93771-6.23081-9.93775-12.2564-0.00065-1.50084 0.33735-3.12913 1.01005-4.88858 2.74683-5.19837 6.6933-7.79629 11.8384-7.79718 6.59821-0.0004 11.2443 3.58128 13.9987 10.6868 1.06556-13.5247-31.7459-32.0414-44.0442-10.2979l-5-40h100z" fill="#fff"/>
<g id="bend5">
<use xlink:href="#bend" x="90"/>
<use xlink:href="#bend" x="180"/>
<use xlink:href="#bend" x="270"/>
<use xlink:href="#bend" x="360"/>
<use xlink:href="#bend" x="450"/>
</g>
<use xlink:href="#bend5" x="-540"/>
<path id="crown" d="m75.534,195l-15.534 60c2.95868-8.2898 20.6876-22.5499 31.4693-25.4654-5.97987-1.34364-12.1104-3.81052-10.327-12.4222 3.49429-6.85237 11.8897-7.45136 15.8067 1.61294 0.0979-6.32465 20.4367-13.6452 22.2552 6.15374-1.48779-4.46536-3.99264-6.69962-7.56941-6.72672-2.78725-0.0199-4.9355 1.57161-6.44442 4.77603-0.37256 1.08425-0.56166 2.09051-0.56666 3.01877-0.0229 3.72759 1.75743 6.26936 5.33971 7.62333 0.96155 0.1989 1.81466 0.301114 2.56015 0.307314l0.1975 0.0016c1.25506 0.0096 2.45448-0.205118 3.59525-0.644982l0.0652 0.000955-0.00051 0.07153c-1.23267 1.12651-2.06465 2.23897-2.49437 3.3408-0.88637 1.75323-1.33388 3.2784-1.34188 4.57366l-0.003 0.335256c-0.0196 3.21565 1.5343 5.6668 4.6629 7.35395 0.96362 0.377279 1.70685 0.473289 2.79535 0.473289s1.83173-0.09601 2.79535-0.473289c3.1286-1.68716 4.68252-4.1383 4.6629-7.35395l-0.003-0.335256c-0.008-1.29526-0.45551-2.82042-1.34188-4.57366-0.42972-1.10183-1.2617-2.21429-2.49437-3.3408l-0.00051-0.07153 0.0652-0.000955c1.14077 0.439864 2.34019 0.654632 3.59525 0.644982l0.1975-0.0016c0.74549-0.0062 1.5986-0.108414 2.56015-0.307314 3.58228-1.35397 5.36258-3.89574 5.33971-7.62333-0.005-0.92826-0.1941-1.93452-0.56666-3.01877-1.50892-3.20442-3.65717-4.79594-6.44442-4.77603-3.57677 0.0271-6.08162 2.26136-7.56941 6.72672 1.81856-19.7989 22.1574-12.4784 22.2552-6.15374 3.91695-9.0643 12.3124-8.46531 15.8067-1.61294 1.78333 8.61165-4.34718 11.0785-10.327 12.4222 10.7817 2.91546 28.5106 17.1756 31.4693 25.4654l-15.534-60z" fill="#ffd402"/>
<use xlink:href="#crown" x="180"/>
<use xlink:href="#crown" x="120" y="75"/>
</g>
<use xlink:href="#deco" transform="rotate(180)"/>
</g>
</g>
<g clip-path="url(#Lorraine)">
<rect width="1000" height="900" fill="#ffd402"/>
<path d="M450,0 900,900" stroke="#d9152a" stroke-width="225"/>
<g transform="translate(675,450) rotate(63.434949)">
<g id="bird" fill="#fff">
<path d="m-83.2179-12.64c-4.4008 2.68331-6.7643 7.57787-6.78192 12.3682-0.03415 7.66466 5.95432 15.5349 16.7592 14.3295 11.3588-1.27082 15.7613-10.4969 20.1243 0.940135l1.15602-6.06253c2.13348 1.63779 5.84499 4.76362 7.37666 8.23461l-0.54369-7.2945c15.1292 12.0143 33.9126 4.09423 51.6549-0.016594 17.5885 1.64197 18.6309 20.3409 21.11 30.7986 1.81415-6.14282 1.67317-9.95773 8.70273-0.680773-0.01573-8.24355 0.93253-8.31488 9.38241-3.82558-1.37658-2.98582-10.3416-10.4445 1.59778-6.09521-8.75601-9.52114-16.8818-23.7052-29.9497-24.0894 0 0 8.96002-5.89436 14.6515-0.778292 6.25036 3.94084 5.76686 9.74483 13.3597 12.9683-6.66008-16.0594-1.6575-13.1319 3.79049-2.60991 1.52478-3.91496 1.78162-10.0804 4.1473-10.3096 3.90076 7.00384 4.65422 14.6206 0.629027 25.4336 7.50962-1.27622 9.14493-13.2195 8.78764-20.0196 1.56705 3.87647 4.20805 7.28726 8.73651 9.11008 1.13122-5.57286-0.211581-10.9812-4.45324-14.427 6.71784 1.86912 11.3033 1.72564 15.1106-0.048709 2.30155-1.07223 4.68851-3.36122 7.86978-4.94417-3.16828-1.60636-5.49197-3.93602-7.78467-5.02513-3.79263-1.8026-8.47968-1.93292-15.2125-0.113392 4.26963-3.41445 5.65816-8.82992 4.57214-14.4109-4.54308 1.78931-7.13812 5.21297-8.73645 9.07746 0.41239-6.79714-1.15254-18.8501-8.6514-20.1818 3.93752 10.8424 3.12485 18.5236-0.832775 25.4987-2.36394-0.243671-2.58635-6.41593-4.07939-10.3422-5.53306 10.4814-10.5637 13.3188-3.77336-2.69087-7.61894 3.16712-7.21334 9.00872-13.4958 12.9035-5.73277 5.07407-14.5664-0.924054-14.5664-0.924054 13.0698-0.286594 21.388-14.3405 30.2214-23.7969-11.9744 4.26109-3.10057-3.2166-1.69963-6.19213-8.48609 4.42663-9.32918 4.38518-9.24663-3.85806-7.10452 9.22757-7.00644 5.44286-8.7705-0.713244-2.56435 10.4395-3.71298 29.0927-21.3149 30.6053-17.7076-4.24155-36.4616-12.3075-51.6875-0.405642l0.577903-7.16486c-1.55979 3.45954-5.24706 6.46397-7.39365 8.08898l-1.07074-6.11108c-4.45585 11.4047-8.86164 2.11659-20.2096 0.761953-4.04798-0.481893-7.42178 0.399989-10.0623 2.01006zm9.63748 5.94904l1.39376 0.745665c-0.137248 0.236739-0.369999 0.742688-0.696881 1.2806-0.244596 0.488462-0.602209 0.957184-0.866852 1.37786-0.0024 0.121449 0.02872 0.419897 0.203966 0.875346 0.18809 0.488844 0.505278 1.13435 0.764868 1.7669 0.519252 1.26509 1.04153 2.77196 0.289032 4.1337-0.968132 1.75214-2.50871 3.03294-4.28327 3.11233-0.887217 0.039677-1.8056-0.298224-2.56655-0.956396-0.474298-0.410216-0.748091-1.11725-1.12181-1.78311-0.334548 0.761589-0.384621 1.43285-0.441926 2.23699-0.560256-0.077539-1.04239-0.064824-1.56373-0.09726 0.03609-0.725694 0.05125-1.35704 0.186969-2.09111 0.241819-0.712446 0.828325-1.6234 1.29178-2.17215 2.85147-2.46285 4.78585-4.04186 5.72803-5.59249 0.366126-0.604811 0.687575-1.05683 0.98583-1.55617 0.344291-0.566565 0.623248-1.1519 0.696882-1.2806zm-5.96621 9.25591c0.401023 0.922549 0.924796 1.60153 1.35977 1.97764 0.500474 0.432838 0.90648 0.555962 1.37676 0.534934 0.940568-0.042058 2.12652-0.891857 2.92351-2.33426 0.342472-0.619599 0.07447-1.6776-0.40793-2.85298-0.233103-0.567986-0.499904-1.1381-0.713876-1.68584zm3.51841-2.67466c1.2992 0.784009 1.36944 2.16613 0.900848 2.9016-0.466405 1.10544-1.65136 1.59496-2.66855 1.08608-0.659194-0.32886-1.16725-1.08191-1.25778-1.81553-0.04875-0.39503 0.03539-0.840245 0.305959-1.16713 0.616351-0.746582 1.3627-1.24244 2.17562-1.1347 0.162565 0.0215486 0.377888 0.0472935 0.543899 0.129687z"/>
<path id="wing" d="m-32.462-0.519531c-5.54684 0.960469-14.2197 2.85798-18.8514 5.26953 15.9918 8.13514 8.77173 29.2984-7.96652 32.8457-24.4547 5.18391-23.9785 17.0846-20.9526 24.6113 2.59677 6.45583 7.16813 11.1597 15.1077 12.3848 0.100566-0.05717 0.207193-0.126974 0.30924-0.1875 12.1644 4.71367 39.9549 4.41186 55.6632 16.0625 2.74501 1.94599 6.23941 5.98685 4.16143 0.568359-2.81239-7.40674-11.5585-14.2596-22.2673-19.6133 9.22262 1.78294 18.5892 5.7386 28.106 14.8418 3.64728 3.46389 4.64088 2.89201 3.37297-1.10156-4.24577-12.1924-14.5449-18.0796-25.9352-21.9609 10.6985 1.17142 21.3955 4.73504 32.4026 13.0156 3.82755 3.06021 4.73791 2.42844 3.16408-1.33203-4.84469-10.4961-14.7871-16.4364-25.757-20.1094 10.4153 1.17558 20.779 4.72167 32.0033 12.1387 3.8036 2.88593 4.67484 2.24864 3.0453-1.37305-4.56576-13.4689-19.4719-18.5383-34.1946-21.0508 9.79686-0.198169 19.5844 1.68459 31.2394 6.00586 4.29918 2.15966 5.0322 1.3806 2.72377-1.89062-4.78492-6.59531-15.0556-10.6415-26.099-12.7363 5.99579 0.04128 12.2842 0.166323 19.0254 1.5 6.86921 1.73171 5.70924-1.47046 2.61113-2.86524-10.8945-7.17909-23.3852-8.85639-36.7545-8.48047 2.97657-0.252095 6.13158-0.386093 9.60488-0.703126 6.53357-0.595441 14.2489 0.329799 21.827 1.07422 7.01971 1.0597 5.08918-1.2175 2.29165-3.10156-15.7063-9.07562-26.3073-5.31348-37.9792-4.28125-1.48086-1.44228-3.27774-2.63732-5.4926-3.12695-6.9622-6.10776-6.96025-4.67265-4.40923-16.4043z"/>
<use xlink:href="#wing" transform="scale(1,-1)"/>
</g>
<use xlink:href="#bird" x="-225"/>
<use xlink:href="#bird" x="225"/>
</g>
</g>
<g clip-path="url(#ChampArd)">
<rect width="500" height="900" fill="#002395"/>
<path d="M0,0 450,900" stroke="#ffd402" stroke-width="325"/>
<path d="M0,0 450,900" stroke="#002395" stroke-width="150"/>
<path d="M0,0 450,900" stroke="#fff" stroke-width="125"/>
<g transform="translate(225,450) rotate(63.434949) scale(6.25)">
<path id="line" stroke="#002395" stroke-width="2" fill="none" d="M-78,23 h11v-4h-9v-4h22v4h-9v4h22v-4h-9v-4h22v4h-9v4h22v-4h-9v-4h22v4h-9v4h22v-4h-9v-4h22v4h-9v4h22v-4h-9v-4h22v4h-9v4h22v-4h-9v-4h22v4h-9v4h11"/>
<use xlink:href="#line" transform="scale(1,-1)"/>
</g>
</g>
</svg>