<?xml version="1.0" encoding="UTF-8"?>
<svg viewBox="0 0 2400 1600" xmlns="http://www.w3.org/2000/svg">
 <defs>
  <clipPath id="a">
   <rect x="28.606" y="-319.41" width="3751.4" height="2652.5" fill="none"/>
  </clipPath>
 </defs>
 <rect width="2400" height="1600" fill="#fff"/>
 <g clip-path="url(#a)">
  <path d="m1371.6 198.25a168.43 168.43 0 0 0-120.85 50.682c11.639 10.454 24.962 22.218 37.025 32.453a120.08 120.08 0 0 1 203.91 85.983c0 32.529-12.2 61.925-35.26 84.998l-225.45 225.83-186.47-186.78a337.64 337.64 0 0 1-55.21 14.081l224.34 224.71c4.5986 4.6074 12.37 10.271 17.343 10.271 5.1867 0 12.748-5.6636 17.343-10.271l242.77-243.18c32.448-32.462 49.604-73.84 49.604-119.65 0-93.246-75.85-169.12-169.09-169.12" fill="#8fc045"/>
  <path d="m1613.1 469.66c-22.85-3.8544-44.502-8.4842-65.387-13.854-12.298 20.538-19.134 29.454-31.107 42.408 17.031 4.9015 34.471 9.2862 52.514 13.074q-3.69 5.7682-7.2855 11.43c-81.29 127.63-135.77 213.21-54.956 376.82-16.612 18.635-41.793 36.74-73.907 53.151-46.128-18.172-87.725-27.364-123.77-27.364-71.345 0-110.5 35.795-126.11 75.043-121.02-10.966-195.93-72.405-223.21-99.15 55.062-89.534 69.139-173.2 41.833-248.89-29.289-81.237-101.72-125.86-144.92-145.04-0.6907-7.0494-1.671-21.634-2.834-29.757a392.28 392.28 0 0 0 69.09 6.274h0.0267c103.43 0 203.69-44.332 292.45-128.67a467.76 467.76 0 0 1-36.994-32.39c-79.045 74.339-164.78 112.03-255.46 112.05h-0.0267a354.22 354.22 0 0 1-92.925-12.864c-8.1945-2.2013-21.758-5.5566-28.099 0.3921-6.1448 5.7482-4.0327 19.74-2.3617 28.068 4.8748 24.41 8.7961 62.62 9.166 74.152 0.5258 16.852 1.916 18.042 17.458 23.478 18.265 6.4077 99.805 39.088 129.33 120.93 23.398 64.888 7.4816 139.35-47.028 221.5-9.0413 13.631-8.6357 16.064 1.1986 28.812 3.9213 5.0575 99.644 122.37 290.14 131.38 22.685 1.0561 21.469-1.2342 25.158-19.936 7.0716-35.755 37.452-56.337 84.115-56.337 32.243 0 70.908 9.665 115.36 27.796 9.4556 3.8633 10.797 3.8633 20.016-0.5213 51.792-24.65 89.244-53.445 111.36-85.172 7.9718-11.434 7.8247-13.72 1.6042-25.493-78.22-147.72-36.655-212.71 45.652-341.93q12.826-20.159 26.696-42.238c10.102-16.131 11.719-32.346-16.786-37.145" fill="#0d52a0"/>
  <path d="m975.68 403.12a120.14 120.14 0 0 1 114.64-155.83 119.1 119.1 0 0 1 73.167 24.811c41.77 33.839 59.701 54.332 92.167 81.928 51.235 43.57 104.72 78.862 157.84 104.76 9.3264-9.83 21.781-23.421 34.65-37.849-56.39-25.693-117.56-67.196-167.51-110.02-27.449-23.563-61.55-54.8-72.022-64.451-0.0089-0.0133-0.0178-0.0133-0.0178-0.0222a168.39 168.39 0 0 0-118.28-48.182c-93.228 0-169.07 75.872-169.07 169.12a170 170 0 0 0 4.808 40.211 275.52 275.52 0 0 0 49.622-4.4648" fill="#0d52a0"/>
  <path d="m733.09 1180.5h-22.654c-12.174-21.424-17.815-28.077-22.659-28.077h-8.1187v28.077h-18.149v-78.586h43.851c16.122 0 21.527 10.035 21.527 23.002 0 11.269-4.7278 21.077-19.611 21.874 5.3026 1.9116 11.162 9.0189 25.814 33.709m-53.432-42.956h20.181c3.9435 0 6.88-2.8206 6.88-9.812 0-7.1073-2.5978-10.369-6.6572-10.369h-20.404z" fill="#8fc045"/>
  <path d="m787.97 1178.9a74.114 74.114 0 0 1-20.85 3.1459c-16.233 0-28.296-7.0983-28.296-30.773 0-23.229 10.596-30.105 27.164-30.105 19.17 0 27.511 5.8552 25.929 35.519h-35.282c0.2273 9.2461 4.3936 10.93 12.731 10.93a78.476 78.476 0 0 0 16.015-1.9161zm-32.235-62.473 13.863-14.54h17.699l-16.91 14.54zm1.0115 27.52h20.065c-0.2228-8.0119-2.8162-9.71-9.58-9.71-7.2143 0-9.469 2.375-10.485 9.71" fill="#8fc045"/>
  <path d="m824.71 1181.7c-14.878 0-23.225-6.31-23.225-29.65 0-23.568 8.7917-30.893 28.407-30.893 9.0189 0 19.842 1.6888 26.152 4.0549v50.629c0 23.113-13.64 27.623-31.896 27.623a68.384 68.384 0 0 1-21.086-3.3821l3.0435-13.533a68.433 68.433 0 0 0 17.699 2.5934c9.362 0 14.883-2.3662 14.883-10.708a31.963 31.963 0 0 1-13.978 3.2662m13.978-45.21a24.529 24.529 0 0 0-8.7961-1.5775c-8.23 0-10.93 2.032-10.93 16.799 0 12.174 2.3661 15.444 10.48 15.444 5.0754 0 9.2462-1.573 9.2462-4.0594z" fill="#8fc045"/>
  <path d="m889.4 1106c0 7.7846-2.482 9.1347-9.8032 9.1347-7.4414 0-9.8076-1.35-9.8076-9.1347 0-7.0939 2.3662-8.2258 9.8076-8.2258 7.3212 0 9.8032 1.1319 9.8032 8.2258m-1.1274 74.531h-17.356v-57.727h17.356z" fill="#8fc045"/>
  <path d="m900.67 1151.3c0-23.563 9.5848-30.105 27.952-30.105 18.72 0 28.188 6.5414 28.188 30.105 0 23.675-9.3576 30.773-28.188 30.773-18.595 0-27.952-7.0984-27.952-30.773m17.476 0.3342c0 14.549 2.3616 16.915 10.476 16.915 8.2346 0 10.605-2.3661 10.605-16.915 0-15.106-2.3706-16.91-10.605-16.91-8.1144 0-10.476 1.8046-10.476 16.91" fill="#8fc045"/>
  <path d="m986.78 1180.5h-17.36v-54.118a93.347 93.347 0 0 1 29.311-5.1868c15.899 0 23.79 6.6484 23.79 27.4v31.905h-17.365v-30.559c0-10.476-1.6888-13.301-10.146-13.301a34.699 34.699 0 0 0-8.23 1.0116z" fill="#8fc045"/>
 </g>
 <path d="m685.8 1335.9h-23.902v-103.35h23.902v37.657h38.896v-37.658h23.897v103.35h-23.897v-43.597h-38.896z" fill="#0d52a0"/>
 <g clip-path="url(#a)" fill="#0d52a0">
  <path d="m836.18 1332.1c-10.24 3.703-24.936 5.9354-36.071 5.9354-25.083 0-32.506-5.3427-32.506-25.207 0-21.349 11.577-24.762 29.686-24.762a85.814 85.814 0 0 1 17.222 1.9294c0-10.534-2.3751-13.493-17.222-13.493a84.015 84.015 0 0 0-23.599 3.5559l-3.56-18.1a144.09 144.09 0 0 1 32.653-3.997c22.712 0 33.398 6.9647 33.398 29.508zm-34.284-10.975a38.324 38.324 0 0 0 12.615-2.0676v-14.384c-3.4133-0.8956-7.7178-1.0427-12.321-1.0427-8.1678 0-11.14 0.8912-11.14 8.453 0 7.7133 1.9339 9.0412 10.846 9.0412"/>
  <path d="m901.5 1260h22.565v71.322c-9.6517 3.4088-24.936 6.8177-38.442 6.8177-21.077 0-31.178-8.8986-31.178-36.031v-42.109h22.57v40.331c0 13.635 2.3751 17.494 13.506 17.494a48.613 48.613 0 0 0 10.98-1.4839z"/>
  <path d="m970.23 1279.6v28.322c0 7.7133 2.228 10.815 10.244 10.815a37.309 37.309 0 0 0 12.174-2.0676l3.7073 17.499c-5.6412 2.3661-14.696 3.8588-22.859 3.8588-16.772 0-26.121-5.04-26.121-27.73v-30.697h-12.321v-19.571h12.321v-11.269l22.855-9.1882v20.457h23.75v19.571z"/>
  <path d="m1058 1279a92.192 92.192 0 0 0-22.414-3.2573c-7.13 0-10.685 0.5927-10.685 6.5236 0 4.0059 2.0765 5.0441 13.8 6.5235 17.659 2.2325 25.528 7.5618 25.528 23.126 0 20.618-14.838 26.108-33.986 26.108-8.1678 0-20.043-1.6354-27.021-4.1574l4.4515-17.2a84.731 84.731 0 0 0 21.527 3.1192c8.9075 0 13.06-0.74 13.06-6.684 0-4.14-2.5266-5.7749-15.137-6.9647-15.881-1.4794-24.343-6.0735-24.343-22.24 0-20.6 14.691-25.952 33.696-25.952 8.1634 0 18.849 1.6353 25.978 4.1663z"/>
 </g>
 <path d="m1073.1 1282.8h39.034v21.79h-39.034z" fill="#0d52a0"/>
 <g clip-path="url(#a)" fill="#0d52a0">
  <path d="m1194.8 1332.7c-8.3149 3.11-22.561 5.3427-34.445 5.3427-25.822 0-37.395-9.1972-37.395-40.34 0-30.532 13.359-39.734 32.203-39.734a41.35 41.35 0 0 1 16.777 3.2707v-32.328h22.859zm-22.859-50.41c0-3.2707-5.1957-5.7794-11.875-5.7794-10.685 0-14.099 4.7456-14.099 20.898 0 18.39 3.56 21.505 14.388 21.505 3.8678 0 8.7693-0.5971 11.586-1.7824z"/>
  <path d="m1276.2 1333.8c-7.5663 2.5266-18.849 4.1619-27.453 4.1619-21.38 0-37.261-9.3486-37.261-40.487 0-30.546 13.947-39.591 35.773-39.591 25.23 0 36.223 7.7177 34.142 46.712h-46.462c0.2986 12.156 5.7884 14.384 16.772 14.384a103.49 103.49 0 0 0 21.081-2.5309zm-41.115-45.959h26.42c-0.2941-10.525-3.7029-12.758-12.619-12.758-9.4956 0-12.463 3.1192-13.8 12.758"/>
 </g>
 <path d="m1291.2 1282.8h39.039v21.79h-39.039z" fill="#0d52a0"/>
 <path d="m1421.8 1232.6v20.908h-51.507v24.022h38.143v20.457h-38.143v37.96h-23.897v-103.35z" fill="#0d52a0"/>
 <g clip-path="url(#a)" fill="#0d52a0">
  <path d="m1431.6 1260h22.864v5.9353c2.5221-4.46 7.4192-8.0163 18.408-8.0163a71.526 71.526 0 0 1 7.5707 0.4456v21.206a39.982 39.982 0 0 0-10.685-1.1808c-8.1678 0-15.293 2.6647-15.293 7.7044v49.826h-22.864z"/>
  <path d="m1556.2 1332.1c-10.244 3.703-24.94 5.9354-36.071 5.9354-25.087 0-32.502-5.3427-32.502-25.207 0-21.349 11.572-24.762 29.686-24.762a85.77 85.77 0 0 1 17.218 1.9294c0-10.534-2.375-13.493-17.218-13.493a84.107 84.107 0 0 0-23.608 3.5559l-3.56-18.1a144.2 144.2 0 0 1 32.658-3.997c22.708 0 33.398 6.9647 33.398 29.508zm-34.289-10.975a38.35 38.35 0 0 0 12.619-2.0676v-14.384c-3.4133-0.8956-7.7222-1.0427-12.321-1.0427-8.1633 0-11.14 0.8912-11.14 8.453 0 7.7133 1.9383 9.0412 10.841 9.0412"/>
  <path d="m1597.9 1335.9h-22.859v-71.18a123.12 123.12 0 0 1 38.593-6.8221c20.93 0 31.317 8.756 31.317 36.031v41.971h-22.855v-40.188c0-13.791-2.228-17.494-13.359-17.494a45.034 45.034 0 0 0-10.837 1.3323z"/>
  <path d="m1722.4 1334.1c-6.0779 2.5176-16.327 3.8588-23.902 3.8588-22.703 0-37.854-9.3486-37.854-40.487 0-30.835 15.293-39.591 37.854-39.591 7.8692 0 17.966 1.1942 23.902 3.2707l-4.75 19.268a52.466 52.466 0 0 0-17.218-3.1058c-11.122 0-16.772 1.9205-16.772 20.609 0 17.788 5.65 20.453 16.772 20.453a47.283 47.283 0 0 0 17.218-3.4043z"/>
  <path d="m1795.5 1333.8c-7.5618 2.5266-18.853 4.1619-27.458 4.1619-21.375 0-37.252-9.3486-37.252-40.487 0-30.546 13.952-39.591 35.768-39.591 25.23 0 36.218 7.7177 34.142 46.712h-46.462c0.2986 12.156 5.7928 14.384 16.768 14.384a103.46 103.46 0 0 0 21.086-2.5309zm-41.111-45.959h26.424c-0.303-10.525-3.7207-12.758-12.619-12.758-9.5 0-12.472 3.1192-13.805 12.758"/>
 </g>
</svg>
