<?xml version="1.0" encoding="UTF-8"?>
<!-- Created with Inkscape (http://www.inkscape.org/) -->
<svg id="svg18588" width="360" height="216" version="1.0" viewBox="0 0 360 216" xml:space="preserve" xmlns="http://www.w3.org/2000/svg">
	
		<g id="flag">
			<rect id="blue" width="360" height="216" fill="#009"/> 
			<g id="_x33_">
				<path id="path11053_2_" d="m180.65 203.54c1.306-1.418 3.611-4.2 4.548-7.149 1.048-3.291 0.579-7.963 0.327-9.854 5.285 2.294 9.029 2.561 13.103 0.924 0 0 1.046-0.422 1.049-0.419l-1.758-0.756c-2.82-1.192-7.485-3.185-9.582-10.555h7.708v-5.234h-3.395c0.376-10.385 6.267-16.188 10.466-16.383 2.072-0.097 3.409 1.149 3.667 3.419 0.371 3.438-1.587 7.933-1.607 7.979l-0.452 1.02 1.047-0.394c5.441-2.059 10.1-5.568 13.477-10.146 5.65-7.663 3.77-15.86-1.01-19.998-4.518-3.908-12.297-4.668-19.5 2.447-8.446 8.348-12.418 24.929-12.695 32.051h-1.139c-0.042-8.529-0.015-13.812 4.318-24.954 7.255-18.646 4.346-34.687-8.572-47.714-12.925 13.028-15.83 29.068-8.577 47.717 4.331 11.14 4.358 16.422 4.317 24.951h-1.14c-0.274-7.122-4.249-23.703-12.695-32.051-7.201-7.112-14.983-6.355-19.5-2.443-4.78 4.139-6.661 12.333-1.009 19.996 3.377 4.575 8.036 8.087 13.474 10.146l1.047 0.396-0.451-1.024c-0.021-0.044-1.979-4.539-1.607-7.979 0.26-2.268 1.595-3.516 3.666-3.419 4.202 0.198 10.092 5.998 10.468 16.383h-3.394v5.236h7.707c-2.097 7.371-6.763 9.36-9.583 10.553l-1.759 0.756c5e-3 -3e-3 1.052 0.419 1.052 0.419 4.072 1.637 7.817 1.37 13.104-0.921-0.256 1.888-0.724 6.562 0.326 9.851 0.937 2.948 3.243 5.731 4.554 7.149z"/>
				<rect id="rect11055_2_" x="166.18" y="171.43" width="28.918" height="3.357" fill="#ffd700"/> 
				<path id="path11057_2_" d="m169.58 170.49h4.73c-0.276-7.002-4.164-23.233-12.414-31.389-7.242-7.152-14.346-5.764-18.228-2.399-4.454 3.852-6.183 11.524-0.87 18.731 3.058 4.143 7.21 7.366 12.042 9.401-0.585-1.598-1.552-4.731-1.262-7.409 0.311-2.743 2.088-4.373 4.641-4.253 4.401 0.205 10.97 5.86 11.361 17.318z" fill="#ffd700"/>
				<path id="path11059_2_" d="m183.96 170.49c-0.043-8.637-0.016-13.993 4.38-25.299 6.974-17.933 4.354-33.391-7.697-46.008-12.057 12.617-14.679 28.077-7.705 46.008 4.398 11.306 4.425 16.657 4.382 25.299h6.64z" fill="#ffd700"/>
				<path id="path11061_2_" d="m191.71 170.49h-4.731c0.276-7.002 4.165-23.233 12.416-31.389 7.242-7.152 14.343-5.764 18.227-2.399 4.454 3.852 6.183 11.524 0.868 18.731-3.055 4.143-7.21 7.366-12.043 9.401 0.586-1.598 1.555-4.731 1.266-7.409-0.313-2.743-2.091-4.373-4.644-4.253-4.397 0.205-10.969 5.86-11.359 17.318z" fill="#ffd700"/>
				<path id="path11063_2_" d="m187.36 175.73c2.085 7.67 6.751 9.949 9.79 11.248-3.612 1.143-7.011 0.668-12.019-1.626l-0.807-0.37 0.15 0.877c0.01 0.062 1.07 6.347-0.17 10.247-0.729 2.293-2.396 4.534-3.656 6.01-1.264-1.476-2.932-3.717-3.661-6.01-1.241-3.9-0.18-10.185-0.171-10.247l0.154-0.877-0.811 0.37c-5.006 2.294-8.405 2.766-12.018 1.626 3.038-1.299 7.706-3.578 9.792-11.248h13.427z" fill="#ffd700"/>
			</g>
			<g id="_x32_">
				<path id="path11053_1_" d="m86.388 131.45c1.307-1.418 3.611-4.199 4.549-7.148 1.048-3.291 0.579-7.963 0.327-9.854 5.285 2.293 9.029 2.561 13.103 0.924 0 0 1.046-0.422 1.049-0.42l-1.758-0.756c-2.82-1.191-7.485-3.184-9.582-10.554h7.708v-5.234h-3.395c0.376-10.385 6.267-16.188 10.466-16.383 2.072-0.097 3.409 1.149 3.667 3.419 0.371 3.438-1.587 7.933-1.607 7.979l-0.452 1.02 1.047-0.394c5.441-2.059 10.1-5.568 13.477-10.146 5.65-7.663 3.77-15.86-1.01-19.998-4.518-3.908-12.297-4.668-19.5 2.447-8.446 8.348-12.418 24.929-12.695 32.051h-1.139c-0.043-8.529-0.016-13.811 4.317-24.954 7.255-18.646 4.346-34.687-8.572-47.714-12.924 13.028-15.829 29.068-8.576 47.717 4.33 11.14 4.357 16.422 4.316 24.951h-1.138c-0.275-7.122-4.249-23.703-12.695-32.051-7.201-7.112-14.982-6.355-19.5-2.443-4.78 4.139-6.661 12.333-1.009 19.996 3.377 4.575 8.036 8.087 13.474 10.146l1.048 0.396-0.451-1.024c-0.021-0.044-1.979-4.539-1.607-7.979 0.26-2.268 1.594-3.516 3.666-3.419 4.201 0.198 10.092 5.998 10.467 16.383h-3.394v5.236h7.707c-2.097 7.371-6.763 9.361-9.583 10.552l-1.76 0.756c6e-3 -2e-3 1.053 0.42 1.053 0.42 4.072 1.637 7.816 1.369 13.104-0.922-0.256 1.889-0.723 6.562 0.326 9.852 0.935 2.949 3.242 5.73 4.552 7.148z"/>
				<rect id="rect11055_1_" x="71.925" y="99.341" width="28.919" height="3.357" fill="#ffd700"/> 
				<path id="path11057_1_" d="m75.32 98.403h4.73c-0.277-7.002-4.164-23.233-12.414-31.389-7.242-7.152-14.346-5.764-18.228-2.399-4.454 3.852-6.183 11.524-0.87 18.731 3.058 4.143 7.21 7.366 12.042 9.401-0.586-1.598-1.553-4.731-1.263-7.409 0.312-2.743 2.089-4.373 4.642-4.253 4.4 0.206 10.97 5.86 11.361 17.318z" fill="#ffd700"/>
				<path id="path11059_1_" d="m89.706 98.403c-0.043-8.637-0.016-13.993 4.38-25.299 6.974-17.933 4.354-33.391-7.697-46.008-12.057 12.617-14.679 28.077-7.704 46.008 4.397 11.306 4.425 16.657 4.382 25.299h6.639z" fill="#ffd700"/>
				<path id="path11061_1_" d="m97.453 98.403h-4.731c0.276-7.002 4.165-23.233 12.416-31.389 7.242-7.152 14.343-5.764 18.227-2.399 4.454 3.852 6.183 11.524 0.868 18.731-3.055 4.143-7.21 7.366-12.043 9.401 0.586-1.598 1.555-4.731 1.266-7.409-0.313-2.743-2.091-4.373-4.644-4.253-4.397 0.206-10.97 5.86-11.359 17.318z" fill="#ffd700"/>
				<path id="path11063_1_" d="m93.099 103.64c2.085 7.669 6.751 9.949 9.79 11.248-3.612 1.143-7.011 0.668-12.019-1.625l-0.807-0.371 0.15 0.877c0.01 0.062 1.07 6.348-0.17 10.248-0.729 2.293-2.396 4.533-3.656 6.01-1.264-1.477-2.932-3.717-3.66-6.01-1.242-3.9-0.18-10.186-0.172-10.248l0.154-0.877-0.809 0.37c-5.006 2.293-8.404 2.766-12.018 1.625 3.038-1.299 7.705-3.578 9.792-11.248h13.425v1e-3z" fill="#ffd700"/>
			</g>
			<g id="_x31_">
				<path id="path11053_3_" d="m274.91 131.45c1.307-1.418 3.611-4.199 4.549-7.148 1.048-3.291 0.579-7.963 0.327-9.854 5.285 2.293 9.029 2.561 13.103 0.924 0 0 1.046-0.422 1.049-0.42l-1.758-0.756c-2.82-1.191-7.485-3.184-9.582-10.554h7.708v-5.234h-3.395c0.376-10.385 6.267-16.188 10.466-16.383 2.072-0.097 3.409 1.149 3.667 3.419 0.371 3.438-1.587 7.933-1.607 7.979l-0.452 1.02 1.047-0.394c5.441-2.059 10.1-5.568 13.477-10.146 5.65-7.663 3.77-15.86-1.01-19.998-4.518-3.908-12.297-4.668-19.5 2.447-8.446 8.348-12.418 24.929-12.695 32.051h-1.139c-0.042-8.529-0.015-13.812 4.318-24.954 7.255-18.646 4.346-34.687-8.572-47.714-12.924 13.028-15.829 29.068-8.576 47.717 4.33 11.14 4.357 16.422 4.316 24.951h-1.139c-0.275-7.122-4.249-23.703-12.695-32.051-7.201-7.112-14.982-6.355-19.5-2.443-4.779 4.139-6.66 12.333-1.009 19.996 3.378 4.575 8.036 8.087 13.475 10.146l1.048 0.396-0.451-1.024c-0.021-0.044-1.979-4.539-1.607-7.979 0.26-2.268 1.594-3.516 3.666-3.419 4.201 0.198 10.092 5.998 10.467 16.383h-3.394v5.236h7.707c-2.097 7.371-6.763 9.361-9.583 10.552l-1.76 0.756c6e-3 -2e-3 1.053 0.42 1.053 0.42 4.072 1.637 7.816 1.369 13.104-0.922-0.256 1.889-0.723 6.562 0.326 9.852 0.934 2.949 3.241 5.73 4.551 7.148z"/>
				<rect id="rect11055_3_" x="260.44" y="99.341" width="28.919" height="3.357" fill="#ffd700"/> 
				<path id="path11057_3_" d="m263.84 98.403h4.73c-0.277-7.002-4.164-23.233-12.414-31.389-7.242-7.152-14.346-5.764-18.228-2.399-4.454 3.852-6.183 11.524-0.87 18.731 3.059 4.143 7.211 7.366 12.043 9.401-0.586-1.598-1.553-4.731-1.263-7.409 0.312-2.743 2.089-4.373 4.642-4.253 4.399 0.206 10.969 5.86 11.36 17.318z" fill="#ffd700"/>
				<path id="path11059_3_" d="m278.22 98.403c-0.043-8.637-0.016-13.993 4.38-25.299 6.974-17.933 4.354-33.391-7.697-46.008-12.057 12.617-14.679 28.077-7.704 46.008 4.397 11.306 4.425 16.657 4.382 25.299h6.639z" fill="#ffd700"/>
				<path id="path11061_3_" d="m285.97 98.403h-4.731c0.276-7.002 4.165-23.233 12.416-31.389 7.242-7.152 14.343-5.764 18.227-2.399 4.454 3.852 6.183 11.524 0.868 18.731-3.055 4.143-7.21 7.366-12.043 9.401 0.586-1.598 1.555-4.731 1.266-7.409-0.313-2.743-2.091-4.373-4.644-4.253-4.397 0.206-10.97 5.86-11.359 17.318z" fill="#ffd700"/>
				<path id="path11063_3_" d="m281.62 103.64c2.085 7.669 6.751 9.949 9.79 11.248-3.612 1.143-7.011 0.668-12.019-1.625l-0.807-0.371 0.15 0.877c0.01 0.062 1.07 6.348-0.17 10.248-0.729 2.293-2.396 4.533-3.656 6.01-1.264-1.477-2.932-3.717-3.66-6.01-1.242-3.9-0.18-10.186-0.172-10.248l0.154-0.877-0.811 0.371c-5.006 2.293-8.404 2.766-12.018 1.625 3.038-1.299 7.705-3.578 9.792-11.248h13.427z" fill="#ffd700"/>
			</g>
		</g>
	</svg>
