<?xml version="1.0" encoding="UTF-8"?>
<!-- Generator: Gravit.io -->
<svg width="797.96pt" height="530.97pt" style="isolation:isolate" viewBox="0 0 797.96 530.97" xmlns="http://www.w3.org/2000/svg">
 <defs>
  <clipPath id="_clipPath_JZyFg5ObOTyVdDp8xrzlx3y82FNxIukZ">
   <rect width="797.96" height="530.97"/>
  </clipPath>
 </defs>
 <g clip-path="url(#_clipPath_JZyFg5ObOTyVdDp8xrzlx3y82FNxIukZ)">
  <rect width="797.96" height="530.97" fill="#d4001c"/>
  <g fill="#fddd00">
   <path d="m183.18 267 9.125 7.138c14.633 11.443 38.502 35.909 45.015 77.3l1.722 10.924 8.36-7.312c14.038-12.277 55.754-44.434 116.76-53.224-8.792 61.003-40.948 102.72-53.224 116.76l-7.312 8.361 10.924 1.721c41.392 6.515 65.857 30.383 77.301 45.015l7.137 9.126 7.138-9.126c11.442-14.632 35.907-38.5 77.299-45.015l10.924-1.721-7.312-8.361c-12.276-14.038-44.432-55.753-53.224-116.76 61.003 8.79 102.72 40.947 116.76 53.224l8.361 7.312 1.721-10.924c6.514-41.391 30.383-65.857 45.014-77.3l9.127-7.138-9.127-7.138c-14.631-11.443-38.5-35.908-45.014-77.299l-1.721-10.925-8.361 7.312c-14.037 12.277-55.753 44.434-116.76 53.225 8.792-61.003 40.948-102.72 53.224-116.76l7.312-8.362-10.924-1.72c-41.392-6.516-65.857-30.384-77.299-45.016l-7.138-9.126-7.137 9.126c-11.444 14.632-35.909 38.5-77.301 45.016l-10.924 1.72 7.312 8.362c12.276 14.037 44.432 55.753 53.224 116.76-61.003-8.791-102.72-40.948-116.76-53.225l-8.36-7.312-1.722 10.925c-6.513 41.391-30.382 65.856-45.015 77.299l-9.125 7.138zm35.125 0c27.829-25.798 34.256-54.425 34.256-54.425 40.625 34.242 103.99 41.96 135.66 43.666-1.707-31.679-9.424-95.039-43.665-135.67 0 0 28.625-6.425 54.425-34.255 25.799 27.83 54.424 34.255 54.424 34.255-34.241 40.627-41.958 103.99-43.665 135.67 31.678-1.706 95.039-9.424 135.66-43.666 0 0 6.425 28.627 34.255 54.425-27.83 25.799-34.255 54.425-34.255 54.425-40.626-34.242-103.99-41.96-135.66-43.666 1.707 31.679 9.424 95.039 43.665 135.67 0 0-28.625 6.425-54.424 34.255-25.8-27.83-54.425-34.255-54.425-34.255 34.241-40.627 41.958-103.99 43.665-135.67-31.678 1.706-95.039 9.424-135.66 43.666 0 0-6.427-28.626-34.256-54.425z"/>
   <circle cx="175.75" cy="267" r="18" vector-effect="non-scaling-stroke"/>
   <circle cx="236.55" cy="164.58" r="18" vector-effect="non-scaling-stroke"/>
   <circle cx="236.55" cy="369.42" r="18" vector-effect="non-scaling-stroke"/>
   <circle cx="296.56" cy="104.58" r="18" vector-effect="non-scaling-stroke"/>
   <circle cx="296.56" cy="429.43" r="18" vector-effect="non-scaling-stroke"/>
   <circle cx="398.98" cy="43.774" r="18" vector-effect="non-scaling-stroke"/>
   <circle cx="398.98" cy="490.23" r="18" vector-effect="non-scaling-stroke"/>
   <circle cx="501.4" cy="104.58" r="18" vector-effect="non-scaling-stroke"/>
   <circle cx="501.4" cy="429.43" r="18" vector-effect="non-scaling-stroke"/>
   <circle cx="561.4" cy="164.58" r="18" vector-effect="non-scaling-stroke"/>
   <circle cx="561.4" cy="369.42" r="18" vector-effect="non-scaling-stroke"/>
   <circle cx="622.21" cy="267" r="18" vector-effect="non-scaling-stroke"/>
  </g>
 </g>
</svg>
