<?xml version="1.0" encoding="UTF-8" standalone="no"?><!-- Generator: Gravit.io --><svg xmlns="http://www.w3.org/2000/svg" xmlns:xlink="http://www.w3.org/1999/xlink" style="isolation:isolate" viewBox="0 0 797.96 530.973" width="797.96pt" height="530.973pt"><defs><clipPath id="_clipPath_JZyFg5ObOTyVdDp8xrzlx3y82FNxIukZ"><rect width="797.96" height="530.973"/></clipPath></defs><g clip-path="url(#_clipPath_JZyFg5ObOTyVdDp8xrzlx3y82FNxIukZ)"><rect x="0" y="0" width="797.96" height="530.973" transform="matrix(1,0,0,1,0,0)" fill="rgb(212,0,28)"/><g><g><path d=" M 183.175 267 L 192.3 274.138 C 206.933 285.581 230.802 310.047 237.315 351.438 L 239.037 362.362 L 247.397 355.05 C 261.435 342.773 303.151 310.616 364.154 301.826 C 355.362 362.829 323.206 404.544 310.93 418.582 L 303.618 426.943 L 314.542 428.664 C 355.934 435.179 380.399 459.047 391.843 473.679 L 398.98 482.805 L 406.118 473.679 C 417.56 459.047 442.025 435.179 483.417 428.664 L 494.341 426.943 L 487.029 418.582 C 474.753 404.544 442.597 362.829 433.805 301.826 C 494.808 310.616 536.524 342.773 550.561 355.05 L 558.922 362.362 L 560.643 351.438 C 567.157 310.047 591.026 285.581 605.657 274.138 L 614.784 267 L 605.657 259.862 C 591.026 248.419 567.157 223.954 560.643 182.563 L 558.922 171.638 L 550.561 178.95 C 536.524 191.227 494.808 223.384 433.805 232.175 C 442.597 171.172 474.753 129.456 487.029 115.419 L 494.341 107.057 L 483.417 105.337 C 442.025 98.821 417.56 74.953 406.118 60.321 L 398.98 51.195 L 391.843 60.321 C 380.399 74.953 355.934 98.821 314.542 105.337 L 303.618 107.057 L 310.93 115.419 C 323.206 129.456 355.362 171.172 364.154 232.175 C 303.151 223.384 261.435 191.227 247.397 178.95 L 239.037 171.638 L 237.315 182.563 C 230.802 223.954 206.933 248.419 192.3 259.862 L 183.175 267 Z  M 218.3 267 C 246.129 241.202 252.556 212.575 252.556 212.575 C 293.181 246.817 356.542 254.535 388.22 256.241 C 386.513 224.562 378.796 161.202 344.555 120.575 C 344.555 120.575 373.18 114.15 398.98 86.32 C 424.779 114.15 453.404 120.575 453.404 120.575 C 419.163 161.202 411.446 224.562 409.739 256.241 C 441.417 254.535 504.778 246.817 545.404 212.575 C 545.404 212.575 551.829 241.202 579.659 267 C 551.829 292.799 545.404 321.425 545.404 321.425 C 504.778 287.183 441.417 279.465 409.739 277.759 C 411.446 309.438 419.163 372.798 453.404 413.425 C 453.404 413.425 424.779 419.85 398.98 447.68 C 373.18 419.85 344.555 413.425 344.555 413.425 C 378.796 372.798 386.513 309.438 388.22 277.759 C 356.542 279.465 293.181 287.183 252.556 321.425 C 252.556 321.425 246.129 292.799 218.3 267 Z " fill="rgb(253,221,0)"/><circle vector-effect="non-scaling-stroke" cx="175.7545" cy="267" r="18" fill="rgb(253,221,0)"/><circle vector-effect="non-scaling-stroke" cx="236.5545" cy="164.576" r="18" fill="rgb(253,221,0)"/><circle vector-effect="non-scaling-stroke" cx="236.5545" cy="369.425" r="18" fill="rgb(253,221,0)"/><circle vector-effect="non-scaling-stroke" cx="296.55550000000005" cy="104.575" r="18" fill="rgb(253,221,0)"/><circle vector-effect="non-scaling-stroke" cx="296.55550000000005" cy="429.426" r="18" fill="rgb(253,221,0)"/><circle vector-effect="non-scaling-stroke" cx="398.97950000000003" cy="43.7744" r="18" fill="rgb(253,221,0)"/><circle vector-effect="non-scaling-stroke" cx="398.97950000000003" cy="490.226" r="18" fill="rgb(253,221,0)"/><circle vector-effect="non-scaling-stroke" cx="501.4035" cy="104.575" r="18" fill="rgb(253,221,0)"/><circle vector-effect="non-scaling-stroke" cx="501.4035" cy="429.426" r="18" fill="rgb(253,221,0)"/><circle vector-effect="non-scaling-stroke" cx="561.4045" cy="164.576" r="18" fill="rgb(253,221,0)"/><circle vector-effect="non-scaling-stroke" cx="561.4045" cy="369.425" r="18" fill="rgb(253,221,0)"/><circle vector-effect="non-scaling-stroke" cx="622.2055" cy="267" r="18" fill="rgb(253,221,0)"/></g></g></g></svg>