<svg enable-background="new 0 0 425.2 425.2" height="600" viewBox="0 0 1913.4 600" width="900" xmlns="http://www.w3.org/2000/svg"><g stroke-width="2.221945" transform="matrix(1.8 0 0 1.8004501 0 307.31795)"><path d="m0-358.30927h1063v708.4895h-1063z" fill="#c1000a" stroke-width="2.221945"/><g fill="#ffd800" stroke-width="1.399533" transform="matrix(1.586883 0 0 1.5883832 195.71555 -241.92489)"><path d="m234.1 60.1c-3.8 0-7 3.1-7 7v165.7c0 3.8 3.1 7 7 7s7-3.1 7-7v-165.7c0-3.8-3.2-7-7-7z"/><path d="m264.7 72.2c-3.8 0-7 3.1-7 7v141.5c0 3.8 3.1 7 7 7s7-3.1 7-7v-141.5c-.1-3.8-3.2-7-7-7z"/><path d="m295.2 98.9c-3.8 0-7 3.1-7 7v88.1c0 3.8 3.1 7 7 7s7-3.1 7-7v-88.1c0-3.9-3.1-7-7-7z"/><path d="m337.19999 149.8a10.9 10.9 0 0 1 -10.9 10.9 10.9 10.9 0 0 1 -10.9-10.9 10.9 10.9 0 0 1 10.9-10.9 10.9 10.9 0 0 1 10.9 10.9z"/><path d="m221.6 41.6c1.3-1.8 2.1-4 2.1-6.4 0-6-4.9-10.9-10.9-10.9s-10.9 4.9-10.9 10.9c0 2.8 1.1 5.4 2.8 7.3-9.4 11.4-21.8 18.3-26.6 20.7-1.7-3.9-5.5-6.6-10.1-6.6-6 0-10.9 4.9-10.9 10.9s4.9 10.9 10.9 10.9c2.5 0 4.7-.8 6.6-2.2 12.1 18.8 15.5 40.8 16.5 51.8-11-.9-33.1-4.3-51.7-16.4 1.3-1.8 2.1-4 2.1-6.4 0-6-4.9-10.9-10.9-10.9s-10.9 4.9-10.9 10.9c0 4.5 2.8 8.4 6.7 10.1-2.7 5.5-10.6 19.7-21.5 27.1-2-2.1-4.8-3.5-8-3.5-6 0-10.9 4.9-10.9 10.9s4.9 10.9 10.9 10.9c3.2 0 6-1.3 8-3.5 10.9 7.4 18.8 21.7 21.5 27.2-3.9 1.7-6.7 5.5-6.7 10.1 0 6 4.9 10.9 10.9 10.9s10.9-4.9 10.9-10.9c0-2.4-.8-4.6-2.1-6.4 18.6-12.1 40.7-15.5 51.7-16.4-.9 11-4.3 32.9-16.5 51.6-1.8-1.4-4.1-2.2-6.6-2.2-6 0-10.9 4.9-10.9 10.9s4.9 10.9 10.9 10.9c4.5 0 8.4-2.7 10.1-6.6 4.8 2.4 17.1 9.3 26.6 20.7-1.8 1.9-2.9 4.5-2.9 7.3 0 6 4.9 10.9 10.9 10.9s10.9-4.9 10.9-10.9c0-2.4-.8-4.6-2.1-6.4-9.4-16.1-24.5-26.4-33.3-31.4 16.6-28.4 16.5-60.6 16.5-62v-6.6l-6.6-.1c-1.5 0-33.6-.1-62.1 16.5-3.7-6.7-10.2-16.9-19.1-24.6 8.9-7.6 15.4-17.8 19.1-24.5 28.4 16.6 60.6 16.5 62.1 16.5l6.6-.1v-6.6c0-1.5 0-33.6-16.5-62 9-4.9 24.1-15.2 33.4-31.4z"/></g></g></svg>