<?xml version="1.0" encoding="UTF-8"?>
<!-- Created with Sodipodi ("http://www.sodipodi.com/") -->
<svg id="svg1350" version="1.1" viewBox="0 0 320.56 216.31" xmlns="http://www.w3.org/2000/svg" xmlns:cc="http://creativecommons.org/ns#" xmlns:dc="http://purl.org/dc/elements/1.1/" xmlns:rdf="http://www.w3.org/1999/02/22-rdf-syntax-ns#">
 <rect id="rect2756" transform="rotate(-90)" x="-214.43" y="3.3085e-14" width="214.35" height="320.55" fill="#ffd700" fill-rule="evenodd"/>
 <rect id="rect3144" x="211.81" y="105.69" width="108.75" height="108.75" fill="#fff" fill-rule="evenodd"/>
 <g id="g2565" transform="translate(-1.9421 -1.699)" fill="#f00" fill-rule="evenodd">
  <rect id="rect2814" transform="matrix(0 -1 .59295 0 23.026 245)" x="29.161" y="2.9072" width="214.14" height="40.702"/>
  <rect id="rect2815" transform="matrix(0 -1 .59295 0 23.026 245)" x="29.161" y="84.312" width="214.14" height="40.702"/>
  <rect id="rect2816" transform="matrix(0 -1 .59295 0 23.026 245)" x="29.161" y="165.72" width="214.14" height="40.702"/>
  <rect id="rect2817" transform="matrix(0 -1 .59295 0 23.026 245)" x="29.161" y="247.12" width="214.14" height="40.702"/>
 </g>
 <g id="g2039" transform="translate(189.31 125.8)">
  <path id="path2032" d="m67.396-95.869c3.094 2.43 8.614 4.347 4.857 8.766 3.315 0.442 4.645-2.8 4.645-5.231 0-2.43-9.281-3.314-9.502-3.535z" fill="#d70000" fill-rule="evenodd" stroke="#000" stroke-width=".625"/>
  <path id="path2018" d="m71.216-44.392c36.904-12.418 23.823-55.249-7.857-51.194-2.449 0.239-4.325 0.655-6.082 1.774-2.788 1.298-7.222 1.708-7.857 0.253 0.46-0.948 2.907-1.848 2.788-3.294-2.09-0.999-5.486-2.221-4.815-6.087 6.04 1.09 7.856-3.54 7.603-6.08-0.254-1.7-1.774-6.08 9.631-10.14 20.275-4.56 46.633 2.79 50.683 37.513 1.52 23.823-17.23 32.186-22.298 35.988-5.069 3.801-10.898 6.589-13.686 14.699-1.014-7.096-4.815-10.898-8.11-13.432z" fill="#0000d7" fill-rule="evenodd" stroke="#000" stroke-width=".625"/>
  <path id="path2019" d="m54.801-106.48c1.768 1.55 4.64 2.87 7.292-1.76 2.651-3.76 6.42-0.22 6.42-0.22" fill="none" stroke="#000" stroke-width=".625"/>
  <path id="path2020" d="m64.746-104.54c3.535 6.192 11.526 6.161 20.187 5.303" fill="none" stroke="#000" stroke-width=".625"/>
  <path id="path2021" d="m86.625-102.2c25.945 7.074 22.705 38.231 6.024 50.384" fill="none" stroke="#000" stroke-width="1.9199"/>
  <path id="path2022" d="m84.632-45.488c-10.828 2.652-21.655 0.884-29.831-13.479-2.873-5.303-9.539-4.912-9.92-1.403 4.409-3.808 6.544 3.077 6.044 5.675-5.249 0.076-6.514 1.749-9 3.653 1.803 0.022 4.996-1.435 9.119 4.007 4.824 6.025 11.491 6.458 13.7 6.458 2.652 0.221 3.681 0.7 6.923-0.602-1.867 2.652-8.984 3.791-12.447 1.292-0.948 3.68 2.276 2.786 8.397 5.89 4.299 2.506 7.37 6.871 11.933 8.839 4.556 1.874 7.86 1.567 12.5-2.41-10.164 2.21-16.699-2.673-7.418-17.92z" fill="#d70000" fill-rule="evenodd" stroke="#000" stroke-width=".625"/>
  <path id="path2023" d="m108.72-58.967c-2.65 6.85-6 14.443-1.14 19.526-6.41 0.221-11.02-6.336-11.02-8.767 2.431-1.546 9.51-6.782 12.16-10.759z" fill="#d70000" fill-rule="evenodd" stroke="#000" stroke-width=".625"/>
  <path id="path2024" d="m93.692-68.69c-3.094 8.176-6.417 9.944-13.046 9.944 3.536 1.768 5.312 2.21 4.207 6.629 4.419-3.756 8.839-10.828 8.839-16.573z" fill="#d70000" fill-rule="evenodd" stroke="#000" stroke-width=".625"/>
  <path id="path2025" d="m89.714-111.56c1.547 1.11 1.989 2.65 1.768 5.53 2.431-3.98 5.303-4.2 7.513-1.77 0.221-2.65 3.095-2.87 5.085-1.33" fill="none" stroke="#000" stroke-width=".625"/>
  <path id="path2026" d="m79.991-95.206c7.072 0.884 11.933 6.408 13.259 9.28" fill="none" stroke="#000" stroke-width=".625"/>
  <path id="path2028" d="m92.145-117.52c4.419-0.45 9.805-0.75 13.925-4.2-0.89 3.31-4.35 4.71-5.45 6.7 1.32 0.22 4.56 0.37 5.45-0.07 2.21-0.45 5.08-1.99 7.95-3.1 2.87-1.1 5.31-2.06 7.52-0.29-4.64 0.44-9.14 4.2-6.41 8.47-3.54-0.66-7.36 1.63-7.14 6.49-1.99-4.42-12.752-13.34-15.624-13.78l-0.221-0.22z" fill="#d70000" fill-rule="evenodd" stroke="#000" stroke-width=".625"/>
  <path id="path2029" d="m112.92-92.776c3.09 4.42 8.17 10.165 9.94 10.828-4.64 0.884-5.96 3.909-2.65 10.165-2.43-2.21-3.54-3.094-5.08-1.547 1.32-3.536-2.43-19.667-2.21-19.446z" fill="#d70000" fill-rule="evenodd" stroke="#000" stroke-width=".625"/>
  <path id="path2030" d="m52.513-97.299c9.566-5.291 12.05 0.691-0.039 1.156-0.209-0.324-0.078-0.74-0.078-0.96l0.117-0.196z" fill="#d70000" fill-rule="evenodd" stroke="#000" stroke-width=".625"/>
  <path id="path2031" d="m67.617-100.73c3.978 2.872 9.723 2.43 12.816 2.209 3.094-0.221-0.663 1.326-0.663 3.315 0 1.988 0.573 2.932 1.326 4.64 0.87 1.972 0.519 4.942-2.282 6.561 1.398-4.343-3.242-8.329-5.01-9.654-2.095-1.31-6.187-7.291-6.187-7.071z" fill="#d70000" fill-rule="evenodd" stroke="#000" stroke-width=".625"/>
  <path id="path2033" transform="matrix(.81 0 0 .81 11.597 -20.662)" d="m66.512-105.26c0 1.0373-0.89039 1.8782-1.9887 1.8782s-1.9887-0.84092-1.9887-1.8782 0.89039-1.8782 1.9887-1.8782 1.9887 0.84092 1.9887 1.8782z" fill="#fff" fill-rule="evenodd"/>
  <path id="path2034" d="m51.016-55.781c0.43 1.329 1.178 1.811 2.155 3.209-1.295-0.296-2.706-1.588-3.416-1.807" fill="none" stroke="#000" stroke-width=".625"/>
  <path id="path2035" d="m70.716-31.786c2.023-0.425 1.973-0.838 2.452-1.148-0.093 0.698-1.366 1.044-0.785 2.644" fill="none" stroke="#000" stroke-width=".625"/>
  <path id="path2036" d="m59.22-99.456c1.583-0.52 3.164 0.694 3.99 1.52 1.057 1.008 3.13 1.779 4.616 2.119" fill="none" stroke="#000" stroke-width=".625"/>
  <path id="path2037" d="m77.357-120.12c3.536-1.77 5.434-3.24 6.097-4.56 0.663 1.54-0.442 3.09-0.442 4.41 2.652 0 6.85-1.98 7.734-2.87 1.989 1.55 0.793 4.93 0.286 5.94" fill="#0000d7" fill-rule="evenodd" stroke="#000" stroke-width=".625"/>
  <path id="path2038" d="m99.972-112.24c3.438 1.25 4.408 0.57 6.908-0.37-1.57 2.5-3.13 2.81-5.32 2.19" fill="none" stroke="#000" stroke-width=".75"/>
 </g>
 <g id="g3060" transform="translate(-95.692 -136.7)">
  <path id="path632" d="m329.19 338.83c1.48-2.95 2.88-3.93 3.4-5.83 0.52-1.89 1.7-3.1 3.77-4.84 3.7-3.33 7.59-5.14 11.31-2.34 2.12 1.59 0.67 5.22 3.25 6.5 2.59 1.29 4.22 6.97 3.92 9.01-3.32-2.8-6.58-3.78-9.83-1.36-2.51 1.74-5.18 2.34-7.99 0.3-2.8-2.04-7.91-1.44-7.83-1.44z" fill="#00d700" fill-rule="evenodd" stroke="#000" stroke-width=".55738"/>
  <path id="path2238" d="m372.88 281.02c-0.88 5.67 1.19 10.74 3.62 9.84 0.45 2.04 2.3 3.7 3.78 3.55-0.23 2.12 2.36 6.51 4.51 6.28 1.1 3.03 2.95 7.57 5.76 5.07 0.82 3.48 2.59 7.42 5.33 6.59 1.25-0.38-0.89-45.78-0.67-45.03l-22.33 13.7z" fill="#f00" fill-rule="evenodd" stroke="#000" stroke-width=".55738"/>
  <path id="path1831" d="m385.32 309.51c-4.68-1.41-4.82-3.37-6.01-5.79-1.18-2.42-1.21-5.86-4.73-7.57-2.78-1.35-3.04-3.22-3.34-5.04-0.29-1.81 1.57-9.79 1.57-9.79s-0.89 0.09-1.13-0.3c1.22-0.18 4.28 1.19 5.27-0.3 0.68 0.85 1.67 0.94 2.36 0.3 0.6 1.07 3.19 0.94 3.55-0.3 1.41 0.78 3.99-0.68 3.55-1.82 2.08 0.57 3.69-1.17 3.26-2.72 2.9-0.06 2.94-2.41 1.77-3.64 1.13-0.16 1.8-1.4 0.89-2.42 1.18-0.91 2.07 0.91 2.07 2.42 0 1.52 1.3 28.56 1.3 31.29 0 2.72 0.81 7.49 1.65 9.29 1.76 3.75 3.15 4.29 5.38 4.11-1.74-3.06-1.81-6.26-2.1-8.69-0.3-2.42-1.52-34.9-1.69-34.9 1.12 0.31 1.93 0 2.53-0.46-1.08-0.08-1.52-1.2-1.73-1.56-0.48-0.96-0.91-3.62-1.5-5.13s-4.47-8.3-6.5-9.69c-2.37-1.27-6.15-2.81-7.1-0.9-1.38 2.41 1.18 7.26 2.66 7.56 1.48 0.31-1.78-1.21-1.48 0.61 0.3 1.81 1.18 3.93 0.3 5.14-0.89 1.21-2.07 1.82-3.26 1.82-1.18 0-1.77 0-2.36 0.91s-2.07 1.51-3.26 0.6c-1.18-0.9-2.95-1.21-3.84-1.21s-2.94 0.36-3.04 0.04l0.06-3.79c0.75 0.53 3.62-0.1 4.78-1.47-1.89-0.13-2.99-3-2.95-4.18 1 0.17 2.04-0.48 2.91-1.12-1.3-0.04-2.89-1.75-3.34-3.76 1.12 0.07 1.41-0.64 2.24-1.25-1.36 0.09-3.81-1.81-4.44-3.54-0.88-0.91-6.87-1.1-8.64-1.1-1.78 0-1.48 0.5-1.48 1.41 0 0.9 0.59 0.3-1.48 1.51-3.06 0.84-3.31 4.2-1.72 5.41 0.59-0.6 0.76-1.17 1.25-1.78 0.42-0.45 1.34-0.24 1.7 0.26 0.3 0.37 1.02 0.93 1.55 0.94 0.53-0.04 1.04-0.39 1.75 0.14 3.23 1.51 1.27 5.84-2.75 5.62 0.78 1.82 2.18 2.41 4.69 1.49-0.35 1.03-1.43 2.76-2.07 3.32-4.44 2.56-7.43 8-5.51 15.58 1.18 2.12 3.66 8.49-0.37 10.49-4.12 1.78-4.38 4.25-5.42 6.89-1.21 2.76-4.28 7.33-6.68 6.99 1.8 3.12 8.68-1.61 9.74-3.59 0.95 2.19 0.91 5.48 3.61 6.14-1.61-4.02-0.25-5.9 3.21-8.75 1.83 2.46-1.86 13.8-6.41 14.95 2.09 1.05 5.18-0.59 6.31-0.86-0.44 1.02-5.48 4.2-7.88 4.24 3.45 2.92 7.64-1.43 9.46-3.34-0.26 2.06-5.27 6.96-7.55 7.4 0.12 3.66 19.15 4.39 19.82 0.31-2.37-0.66-6.12-3.95-7.26-7.38 2.99 3.07 5.48 5.32 9.48 3.21-3.99-1.03-6.25-2.97-7.12-4.12 1.99 0.6 2.95 0.93 5.31 0.63-3.28-1.7-7.54-11.15-6.72-15.32 4.1 2.83 4.57 5.19 3.41 9.01 3.49 0.09 3.23-5.28 3.92-7.03 2.14 4.03 6.01 7.32 9.55 4.58z" fill="#f00" fill-rule="evenodd" stroke="#000" stroke-width=".55738"/>
  <path id="path1832" d="m363.65 260.35c-2.3-0.21-4.6 0.11-5.85 0.75-1.26 0.64-3.92 0.91-5.7 0.27 1.15 2.03 3.45 2.57 6.06 1.39 1.44-0.68 3.51-1.45 4.4-1.23 2.35 0.48 1.46-1.07 1.09-1.18z" fill="#f00" fill-rule="evenodd" stroke="#000" stroke-width=".55738"/>
  <path id="path611" d="m356.25 281.4c1.25 3.78 0.59 9.23-2.89 9.61-0.66 1.66-2.14 2.8-3.91 3.33-0.74 3.4-2.67 6.73-4.37 5.75-0.81 3.48-4.14 8.7-5.69 5.29-0.74 4.77-4.81 8.1-6.43 6.13-1.33-1.58 1.62-40.86 1.62-40.86l21.67 10.75z" fill="#f00" fill-rule="evenodd" stroke="#000" stroke-width=".55738"/>
  <path id="path610" d="m359.84 271.31c-2.72-0.43-5.64 0.15-6.69 1.01-1.04 0.85-3.61 1.19-4.24 0.34-0.63-0.86-1.46-1.29-2.51-1.5-4-1.12-3.54-7.83-1.88-8.56 2.69-1.06 3.56-6.45-0.22-6.47-3.98-0.1-6.84 0.27-8.51 1.99-1.68 1.71-3.53 4.58-4.03 7.9-0.43 2.93-1.95 6.65-3.96 8.31 1.16 0.44 2.06 0.16 2.44 0.09-0.78 1.86-0.01 36.29-3.08 41.69-0.62 2.14 3.77 1.71 5.23-1.72 1.47-3.42 3.35-41.3 3.56-43.23s0.86 0.57 1.88 1.34c-0.53 2.35 0.41 3.79 1.88 4.1-0.09 2.06 2.08 2.42 3.14 2.05-0.13 1.37 1.39 1.93 2.92 1.5 0.8 1.61 3.23 1.89 3.86 0.93 1.06 1.31 2.39 0.32 2.84-0.5 1.1 1.15 3.89 2.05 3.79 0.22-0.36-2.65 1.72-8.28 3.58-9.49z" fill="#f00" fill-rule="evenodd" stroke="#000" stroke-width=".55738"/>
  <path id="path612" d="m340.28 278.37c0.07 4.54-0.08 25.73-1.04 27.54" fill="#f00" fill-rule="evenodd" stroke="#000" stroke-width=".55738"/>
  <path id="path2244" d="m345.08 300.09c0.59-3.56 0.15-19.98 0.15-19.98" fill="#f00" fill-rule="evenodd" stroke="#000" stroke-width=".55738"/>
  <path id="path2245" d="m349.52 294.41c0.3-3.02 0.22-13.24 0.22-13.24" fill="#f00" fill-rule="evenodd" stroke="#000" stroke-width=".55738"/>
  <path id="path618" d="m353.44 290.93c0.22-2.8-0.22-9.68-0.22-9.68" fill="#f00" fill-rule="evenodd" stroke="#000" stroke-width=".55738"/>
  <path id="path2247" d="m376.43 290.86c-0.89-2.35 0-9.77 0-9.77" fill="#f00" fill-rule="evenodd" stroke="#000" stroke-width=".55738"/>
  <path id="path2248" d="m380.28 294.41c-1.04-2.34-0.3-12.86-0.3-12.86" fill="#f00" fill-rule="evenodd" stroke="#000" stroke-width=".55738"/>
  <path id="path2249" d="m384.79 300.69c-1.04-3.63 0-19.97 0-19.97" fill="#f00" fill-rule="evenodd" stroke="#000" stroke-width=".55738"/>
  <path id="path623" d="m390.55 305.54c-1.18-3.71-1.09-28-1.09-28" fill="#f00" fill-rule="evenodd" stroke="#000" stroke-width=".55738"/>
  <path id="path2251" d="m340.06 326.95c0 0.97-0.64 1.93-1.19 2.67-0.09 0.12 0.26-0.13 0.4-0.18 0.6-0.26 1.22-0.46 1.81-0.8 0.25-0.14 0.34-0.09 0.47-0.35" fill="none" stroke="#000" stroke-width=".55738"/>
  <path id="path2252" d="m346.19 329.75c0.93 0.24 1.82 0.91 2.31 1.76" fill="#f00" fill-rule="evenodd" stroke="#000" stroke-width=".55738"/>
  <path id="path849" d="m337.4 293.64c0.37-5.22 0.29-16.03-0.01-17.46" fill="#f00" fill-rule="evenodd" stroke="#000" stroke-width=".55738"/>
  <path id="path850" d="m392.02 275.08c-0.09 4.57-0.57 15.67 0.62 19.22" fill="#f00" fill-rule="evenodd" stroke="#000" stroke-width=".55738"/>
  <path id="path851" d="m380.06 309.97c2.55 4.01 3.92 7.18 4.65 9.33 0.73 2.14 2.37 3.26 4.74 3.92 2.06 0.48 3.25 2.29 2.58 3.74-4.91-3.44-10.57-2.89-12.15 0.36-1.01-1.96 0.36-2.89 1.55-3.64 1.18-0.74 2.46-1.21 1.18-3.26-1.28-2.06-6.2-8.16-7.38-9.75-0.69-0.79 0.08-3.57 0.44-5.06 1.2 1.85 4.39 4.45 4.39 4.36z" fill="#f00" fill-rule="evenodd" stroke="#000" stroke-width=".55738"/>
  <path id="path852" d="m354.99 310.62c-3.19 2.99-7.02 8.58-7.56 9.7-0.55 1.12-0.64 2.06 0.36 2.9s2.87 2.8 2.15 4.01c-4.54-4.06-7.53-3.55-11.99-0.38-0.91-1.3-0.18-2.98 1.55-3.73 1.72-0.61 3.19-0.18 4.65-2.24 1.45-2.05 4.37-9.98 5.37-11.1 1.55-0.84 3.38-2.61 4.56-3.08 0.64 1.12 1.09 3.92 0.91 3.83v0.09z" fill="#f00" fill-rule="evenodd" stroke="#000" stroke-width=".55738"/>
  <path id="path853" d="m360.06 251.14c-1.14-0.49-1.58-1.43-1.05-2.1 2.8-0.8 9.47-1.11 11.11 0.48 1.54 0.69 0.59 1.81-0.56 2.47-2.28-0.65-8.46-0.98-8.73-0.89l-0.77 0.04z" fill="#f00" fill-rule="evenodd" stroke="#000" stroke-width=".55738"/>
  <path id="path854" transform="matrix(.49584 0 0 .5075 283.74 240.06)" d="m152.7 15.379c0 1.2335-0.99995 2.2335-2.2334 2.2335-1.2335 0-2.2334-0.99995-2.2334-2.2335 0-1.2335 0.99995-2.2335 2.2334-2.2335 1.2335 0 2.2334 0.99995 2.2334 2.2335z" fill="#f00" fill-rule="evenodd" stroke="#000" stroke-width=".625"/>
  <path id="path855" transform="matrix(.49584 0 0 .5075 297.03 241.02)" d="m152.7 15.379c0 1.2335-0.99995 2.2335-2.2334 2.2335-1.2335 0-2.2334-0.99995-2.2334-2.2335 0-1.2335 0.99995-2.2335 2.2334-2.2335 1.2335 0 2.2334 0.99995 2.2334 2.2335z" fill="#f00" fill-rule="evenodd" stroke="#000" stroke-width=".625"/>
  <path id="path856" transform="matrix(.49584 0 0 .5075 294.96 239.83)" d="m152.7 15.379c0 1.2335-0.99995 2.2335-2.2334 2.2335-1.2335 0-2.2334-0.99995-2.2334-2.2335 0-1.2335 0.99995-2.2335 2.2334-2.2335 1.2335 0 2.2334 0.99995 2.2334 2.2335z" fill="#f00" fill-rule="evenodd" stroke="#000" stroke-width=".625"/>
  <path id="path857" transform="matrix(.49584 0 0 .5075 292.8 239.16)" d="m152.7 15.379c0 1.2335-0.99995 2.2335-2.2334 2.2335-1.2335 0-2.2334-0.99995-2.2334-2.2335 0-1.2335 0.99995-2.2335 2.2334-2.2335 1.2335 0 2.2334 0.99995 2.2334 2.2335z" fill="#f00" fill-rule="evenodd" stroke="#000" stroke-width=".625"/>
  <path id="path858" transform="matrix(.49584 0 0 .5075 290.54 238.96)" d="m152.7 15.379c0 1.2335-0.99995 2.2335-2.2334 2.2335-1.2335 0-2.2334-0.99995-2.2334-2.2335 0-1.2335 0.99995-2.2335 2.2334-2.2335 1.2335 0 2.2334 0.99995 2.2334 2.2335z" fill="#f00" fill-rule="evenodd" stroke="#000" stroke-width=".625"/>
  <path id="path859" transform="matrix(.49584 0 0 .5075 288.3 239.03)" d="m152.7 15.379c0 1.2335-0.99995 2.2335-2.2334 2.2335-1.2335 0-2.2334-0.99995-2.2334-2.2335 0-1.2335 0.99995-2.2335 2.2334-2.2335 1.2335 0 2.2334 0.99995 2.2334 2.2335z" fill="#f00" fill-rule="evenodd" stroke="#000" stroke-width=".625"/>
  <path id="path860" transform="matrix(.49584 0 0 .5075 286.07 239.3)" d="m152.7 15.379c0 1.2335-0.99995 2.2335-2.2334 2.2335-1.2335 0-2.2334-0.99995-2.2334-2.2335 0-1.2335 0.99995-2.2335 2.2334-2.2335 1.2335 0 2.2334 0.99995 2.2334 2.2335z" fill="#f00" fill-rule="evenodd" stroke="#000" stroke-width=".625"/>
  <path id="path861" d="m359.64 253.53c0.82 2.61 3.46 1.58 3.74 0.18 0.27-0.74-2.28-0.18-3.74-0.18z" fill-rule="evenodd"/>
  <path id="path633" d="m360.39 340.42c1.55-1.89 6.21-2.65 8.28-0.98 2.07 1.66 2.96 2.27 4.73 2.42 0.52-2.8 3.18-5.9 3.1-6.81-2.29-2.95-2.36-4.62-3.77-5.45-1.13-0.61-2.21-0.73-2.73-3.18-1.4-6.56-10.28-2.95-10.57-1.13-0.35 1.63-0.37 2.64-2.59 4.69-2.22 2.04-3.55 3.78-2.66 6.28 0.88 2.5-0.3 6.05 2.73 5.98 2.07-0.46 3.48-1.82 3.48-1.82z" fill="#00d700" fill-rule="evenodd" stroke="#000" stroke-width=".55738"/>
  <path id="path624" d="m397.28 337.85c-0.22-3.33-1.84-6.46-4.21-7.04-1.56-0.45-1.93-2.8-3.11-4.31-1.18-1.52-7.76-2.27-8.58-0.46-0.81 1.82-0.96 2.73-1.92 3.64-0.96 0.9-1.4 2.04-2.51 5.52-4.73 6.73-4.17 8.39 0 4.99 1.22-0.99 7.69-1.66 8.87-0.3 1.55 2.04 5.32 3.03 6.95 0.98 1.04-0.98 3.18-1.81 4.51-3.02z" fill="#00d700" fill-rule="evenodd" stroke="#000" stroke-width=".55738"/>
  <path id="path625" d="m387.74 333.23c-0.14 1.24-1.72 2.51-2.76 2.99-0.09 0.04-0.18 0.08-0.27 0.12" fill="none" stroke="#000" stroke-width=".55738"/>
  <path id="path626" d="m392.03 332.55c0.52 1.06 0.69 1.47 1.53 2.4 0.88 0.97 1.84 2 2.93 2.7 0.1 0.07 0.17 0.06 0.29 0.05" fill="none" stroke="#000" stroke-width=".55738"/>
  <path id="path627" d="m359.87 329.68c0.56 0.76 2.33 2.46 0.74 3.15-0.64 0.28-1.09 0.48-1.8 0.48" fill="none" stroke="#000" stroke-width=".55738"/>
  <path id="path2271" d="m362.68 335.58c0.59 1.21 1.7 1.88 2.67 2.73" fill="none" stroke="#000" stroke-width=".55738"/>
  <path id="path2272" d="m335.18 337.47c0.87 0 3.64-1.58 4.55-1.99 0.01 0-0.12 0.16-0.45 0.57-0.89 1.11-1.16 2.48-1.82 3.7" fill="none" stroke="#000" stroke-width=".55738"/>
  <g id="g641" transform="matrix(.45278 0 0 .44128 295.71 261.85)" fill="none" stroke="#0000d7" stroke-linecap="square" stroke-width="7.75">
   <path id="path642" d="m36.471 198.05c5.742-6.33 11.445-6.29 17.93-0.04"/>
   <path id="path643" d="m72.428 197.93c-5.781 6.25-11.562 6.33-18.047 0.08"/>
  </g>
  <g id="g644" transform="matrix(.45278 0 0 .44128 311.96 261.78)" fill="none" stroke="#0000d7" stroke-linecap="square" stroke-width="7.75">
   <path id="path645" d="m36.471 198.05c5.742-6.33 11.445-6.29 17.93-0.04"/>
   <path id="path646" d="m72.428 197.93c-5.781 6.25-11.562 6.33-18.047 0.08"/>
  </g>
  <g id="g647" transform="matrix(.45278 0 0 .44128 328.21 261.72)" fill="none" stroke="#0000d7" stroke-linecap="square" stroke-width="7.75">
   <path id="path648" d="m36.471 198.05c5.742-6.33 11.445-6.29 17.93-0.04"/>
   <path id="path649" d="m72.428 197.93c-5.781 6.25-11.562 6.33-18.047 0.08"/>
  </g>
  <g id="g650" transform="matrix(.45278 0 0 .44128 344.46 261.66)" fill="none" stroke="#0000d7" stroke-linecap="square" stroke-width="7.75">
   <path id="path651" d="m36.471 198.05c5.742-6.33 11.445-6.29 17.93-0.04"/>
   <path id="path652" d="m72.428 197.93c-5.781 6.25-11.562 6.33-18.047 0.08"/>
  </g>
  <g id="g653" transform="matrix(.45278 0 0 .44128 360.72 261.6)" fill="none" stroke="#0000d7" stroke-linecap="square" stroke-width="7.75">
   <path id="path654" d="m36.471 198.05c5.742-6.33 11.445-6.29 17.93-0.04"/>
   <path id="path655" d="m72.428 197.93c-5.781 6.25-11.562 6.33-18.047 0.08"/>
  </g>
  <g id="g656" transform="matrix(.45278 0 0 .44128 376.97 261.54)" fill="none" stroke="#0000d7" stroke-linecap="square" stroke-width="7.75">
   <path id="path657" d="m36.471 198.05c5.742-6.33 11.445-6.29 17.93-0.04"/>
   <path id="path658" d="m72.428 197.93c-5.781 6.25-11.562 6.33-18.047 0.08"/>
  </g>
  <path id="path667" d="m414.42 345.87c-1.16-0.01-2.35 0.67-3.61 2.05" fill="none" stroke="#0000d7" stroke-linecap="square" stroke-width="3.2065"/>
  <path id="path808" d="m414.42 338.49c-1.16-0.01-2.35 0.67-3.61 2.05" fill="none" stroke="#0000d7" stroke-linecap="square" stroke-width="3.2065"/>
  <g id="g818" transform="matrix(.45278 0 0 .44128 295.71 254.43)" fill="none" stroke="#0000d7" stroke-linecap="square" stroke-width="7.75">
   <path id="path819" d="m36.471 198.05c5.742-6.33 11.445-6.29 17.93-0.04"/>
   <path id="path820" d="m72.428 197.93c-5.781 6.25-11.562 6.33-18.047 0.08"/>
  </g>
  <g id="g821" transform="matrix(.45278 0 0 .44128 311.96 254.37)" fill="none" stroke="#0000d7" stroke-linecap="square" stroke-width="7.75">
   <path id="path822" d="m36.471 198.05c5.742-6.33 11.445-6.29 17.93-0.04"/>
   <path id="path823" d="m72.428 197.93c-5.781 6.25-11.562 6.33-18.047 0.08"/>
  </g>
  <g id="g824" transform="matrix(.45278 0 0 .44128 328.21 254.3)" fill="none" stroke="#0000d7" stroke-linecap="square" stroke-width="7.75">
   <path id="path825" d="m36.471 198.05c5.742-6.33 11.445-6.29 17.93-0.04"/>
   <path id="path826" d="m72.428 197.93c-5.781 6.25-11.562 6.33-18.047 0.08"/>
  </g>
  <g id="g827" transform="matrix(.45278 0 0 .44128 344.46 254.24)" fill="none" stroke="#0000d7" stroke-linecap="square" stroke-width="7.75">
   <path id="path828" d="m36.471 198.05c5.742-6.33 11.445-6.29 17.93-0.04"/>
   <path id="path829" d="m72.428 197.93c-5.781 6.25-11.562 6.33-18.047 0.08"/>
  </g>
  <g id="g830" transform="matrix(.45278 0 0 .44128 360.72 254.18)" fill="none" stroke="#0000d7" stroke-linecap="square" stroke-width="7.75">
   <path id="path831" d="m36.471 198.05c5.742-6.33 11.445-6.29 17.93-0.04"/>
   <path id="path832" d="m72.428 197.93c-5.781 6.25-11.562 6.33-18.047 0.08"/>
  </g>
  <g id="g833" transform="matrix(.45278 0 0 .44128 376.97 254.12)" fill="none" stroke="#0000d7" stroke-linecap="square" stroke-width="7.75">
   <path id="path834" d="m36.471 198.05c5.742-6.33 11.445-6.29 17.93-0.04"/>
   <path id="path835" d="m72.428 197.93c-5.781 6.25-11.562 6.33-18.047 0.08"/>
  </g>
  <path id="path862" d="m370.2 271.11c-0.96 0.49-2.92 2.17-2.42 1.77" fill="none" stroke="#000" stroke-width=".55738"/>
  <path id="path863" d="m386.73 278.86c0 1.67 0.17-0.13-0.38 2.64" fill="none" stroke="#000" stroke-width=".55738"/>
  <path id="path864" d="m382.26 281.33c-0.71 1.44-0.37 0.29-0.35 2.89v0.28" fill="none" stroke="#000" stroke-width=".55738"/>
  <path id="path865" d="m377.82 281.31c-0.02 1.08-0.04 4.04 0.07 4.39" fill="none" stroke="#000" stroke-width=".55738"/>
  <path id="path866" d="m374.29 281.33c0 0.58-0.08 3.12-0.08 3.37" fill="none" stroke="#000" stroke-width=".55738"/>
  <path id="path867" d="m342.66 278.51c0.69 2.39 0.3 9.62-0.03 11.32" fill="none" stroke="#000" stroke-width=".55738"/>
  <path id="path868" d="m347.48 281.33c0.46 1.42 0.08 3.13 0.04 4.63" fill="none" stroke="#000" stroke-width=".55738"/>
  <path id="path869" d="m351.27 281.64c0.3 0.97 0.04 2.46 0.04 3.83" fill="none" stroke="#000" stroke-width=".55738"/>
  <path id="path870" d="m354.71 281.68v2.9" fill="none" stroke="#000" stroke-width=".55738"/>
 </g>
 <metadata id="metadata116">
  <rdf:RDF>
   <cc:Work>
    <dc:format>image/svg+xml</dc:format>
    <dc:type rdf:resource="http://purl.org/dc/dcmitype/StillImage"/>
    <cc:license rdf:resource="http://creativecommons.org/licenses/publicdomain/"/>
    <dc:publisher>
     <cc:Agent rdf:about="http://openclipart.org/">
      <dc:title>Openclipart</dc:title>
     </cc:Agent>
    </dc:publisher>
   </cc:Work>
   <cc:License rdf:about="http://creativecommons.org/licenses/publicdomain/">
    <cc:permits rdf:resource="http://creativecommons.org/ns#Reproduction"/>
    <cc:permits rdf:resource="http://creativecommons.org/ns#Distribution"/>
    <cc:permits rdf:resource="http://creativecommons.org/ns#DerivativeWorks"/>
   </cc:License>
  </rdf:RDF>
 </metadata>
</svg>
