<?xml version="1.0" encoding="UTF-8" standalone="no"?>
<!-- Generator: Adobe Illustrator 16.0.0, SVG Export Plug-In . SVG Version: 6.00 Build 0)  -->

<svg
   xmlns:osb="http://www.openswatchbook.org/uri/2009/osb"
   xmlns:dc="http://purl.org/dc/elements/1.1/"
   xmlns:cc="http://creativecommons.org/ns#"
   xmlns:rdf="http://www.w3.org/1999/02/22-rdf-syntax-ns#"
   xmlns:svg="http://www.w3.org/2000/svg"
   xmlns="http://www.w3.org/2000/svg"
   xmlns:xlink="http://www.w3.org/1999/xlink"
   xmlns:sodipodi="http://sodipodi.sourceforge.net/DTD/sodipodi-0.dtd"
   xmlns:inkscape="http://www.inkscape.org/namespaces/inkscape"
   version="1.1"
   id="svg1350"
   inkscape:export-ydpi="72"
   inkscape:export-xdpi="72"
   sodipodi:docname="Flag_of_Pays-de-la-Loire.svg"
   inkscape:export-filename="/home/pat/donnees/sodipodi_travail/travail_drapeau/fra_provinces_histo/Pays_de_la_Loire.png"
   inkscape:version="0.91 r13725"
   sodipodi:version="0.32"
   x="0px"
   y="0px"
   width="720"
   height="420"
   viewBox="0 0 719.99998 420.00001"
   enable-background="new 0 0 359.109 216.006"
   xml:space="preserve"><metadata
     id="metadata4507"><rdf:RDF><cc:Work
         rdf:about=""><dc:format>image/svg+xml</dc:format><dc:type
           rdf:resource="http://purl.org/dc/dcmitype/StillImage" /><dc:title></dc:title></cc:Work></rdf:RDF></metadata><defs
     id="defs4137"><linearGradient
       id="linearGradient6125"
       osb:paint="solid"><stop
         style="stop-color:#000000;stop-opacity:1;"
         offset="0"
         id="stop6127" /></linearGradient><sodipodi:namedview
       id="namedview5116" /><inkscape:perspective
       id="perspective6599"
       inkscape:persp3d-origin="372.04724 : 350.78739 : 1"
       inkscape:vp_z="744.09448 : 526.18109 : 1"
       inkscape:vp_y="0 : 1000 : 0"
       inkscape:vp_x="0 : 526.18109 : 1"
       sodipodi:type="inkscape:persp3d" /><path
       d="M-24 -16.5c9,22 13,50 13,77l-7 0c-6,-49 -19,-113 -71,-113 -22,0 -39,20 -39,38 0,29 17,49 52,61 -5,-15 -9,-39 6,-39 24,0 35,29 35,53l-3 0c-5,0 -8,3 -8,8 0,5 4,8 8,8l17 0c-8,21 -22,29 -33,35 17,8 37,0 41,-5 -1,6 0,22 2,33 1,9 5,14 11,21 6,-7 10,-12 11,-21 2,-11 3,-27 2,-33 4,5 24,13 41,5 -11,-6 -25,-14 -33,-35l17 0c5,0 8,-3 8,-8 0,-5 -3,-8 -8,-8l-3 0c0,-24 11,-53 35,-53 15,0 11,24 6,39 35,-12 52,-32 52,-61 0,-18 -17,-38 -39,-38 -52,0 -65,64 -71,113l-7 0c0,-27 4,-55 13,-77 30,-67 9,-112 -24,-144 -33,32 -54,77 -24,144z"
       fill="#ffd700"
       id="1" /><linearGradient
       id="linearGradient2893"><stop
         id="stop2895"
         offset="0"
         style="stop-color:white;stop-opacity:0.3137255;" /><stop
         style="stop-color:white;stop-opacity:0.25098041;"
         offset="0.19"
         id="stop2897" /><stop
         id="stop2901"
         offset="0.60000002"
         style="stop-color:#6b6b6b;stop-opacity:0.1254902;" /><stop
         id="stop2899"
         offset="1"
         style="stop-color:black;stop-opacity:0.1254902;" /></linearGradient><linearGradient
       id="linearGradient2885"><stop
         style="stop-color:white;stop-opacity:1;"
         offset="0"
         id="stop2887" /><stop
         id="stop2891"
         offset="0.22857143"
         style="stop-color:white;stop-opacity:1;" /><stop
         style="stop-color:black;stop-opacity:1;"
         offset="1"
         id="stop2889" /></linearGradient><linearGradient
       id="linearGradient2955"><stop
         style="stop-color:#fd0000;stop-opacity:1;"
         offset="0"
         id="stop2867" /><stop
         id="stop2873"
         offset="0.5"
         style="stop-color:#e77275;stop-opacity:0.65882355;" /><stop
         id="stop2959"
         offset="1"
         style="stop-color:black;stop-opacity:0.32291666;" /></linearGradient><radialGradient
       gradientUnits="userSpaceOnUse"
       gradientTransform="matrix(-4.167939e-4,2.182867,-1.884232,-3.599562e-4,615.5972,-289.1214)"
       r="300"
       fy="218.90099"
       fx="225.52438"
       cy="218.90099"
       cx="225.52438"
       id="radialGradient2961"
       xlink:href="#linearGradient2955"
       inkscape:collect="always" /><polygon
       points="0,-1 0.58778525,0.80901699 -0.95105652,-0.30901699 0.95105652,-0.30901699 -0.58778525,0.80901699 0,-1 "
       transform="scale(53,53)"
       id="star" /><clipPath
       id="clip"><path
         id="path10"
         d="M 0,-200 L 0,600 L 300,600 L 300,-200 L 0,-200 z " /></clipPath><radialGradient
       r="300"
       fy="218.90099"
       fx="225.52438"
       cy="218.90099"
       cx="225.52438"
       gradientTransform="matrix(-4.167939e-4,2.182867,-1.884232,-3.599562e-4,615.5972,-289.1214)"
       gradientUnits="userSpaceOnUse"
       id="radialGradient1911"
       xlink:href="#linearGradient2955"
       inkscape:collect="always" /><radialGradient
       r="300"
       fy="218.90099"
       fx="225.52438"
       cy="218.90099"
       cx="225.52438"
       gradientTransform="matrix(0,1.748721,-1.593162,-1.049767e-7,551.7876,-191.2898)"
       gradientUnits="userSpaceOnUse"
       id="radialGradient2865"
       xlink:href="#linearGradient2955"
       inkscape:collect="always" /><radialGradient
       r="300"
       fy="218.90099"
       fx="225.52438"
       cy="218.90099"
       cx="225.52438"
       gradientTransform="matrix(0,1.386237,-1.323286,-5.741131e-8,-158.0823,-109.5408)"
       gradientUnits="userSpaceOnUse"
       id="radialGradient2871"
       xlink:href="#linearGradient2955"
       inkscape:collect="always" /><radialGradient
       gradientUnits="userSpaceOnUse"
       gradientTransform="matrix(-4.167939e-4,2.182867,-1.884232,-3.599562e-4,615.5972,-289.1214)"
       r="300"
       fy="218.90099"
       fx="225.52438"
       cy="218.90099"
       cx="225.52438"
       id="radialGradient2272"
       xlink:href="#linearGradient2955"
       inkscape:collect="always" /><polygon
       points="0,-1 0.58778525,0.80901699 -0.95105652,-0.30901699 0.95105652,-0.30901699 -0.58778525,0.80901699 0,-1 "
       transform="scale(53,53)"
       id="polygon2274" /><clipPath
       id="clipPath2276"><path
         id="path2278"
         d="M 0,-200 L 0,600 L 300,600 L 300,-200 L 0,-200 z " /></clipPath><radialGradient
       r="300"
       fy="218.90099"
       fx="225.52438"
       cy="218.90099"
       cx="225.52438"
       gradientTransform="matrix(-4.167939e-4,2.182867,-1.884232,-3.599562e-4,615.5972,-289.1214)"
       gradientUnits="userSpaceOnUse"
       id="radialGradient2280"
       xlink:href="#linearGradient2955"
       inkscape:collect="always" /><radialGradient
       r="300"
       fy="218.90099"
       fx="225.52438"
       cy="218.90099"
       cx="225.52438"
       gradientTransform="matrix(0,1.748721,-1.593162,-1.049767e-7,551.7876,-191.2898)"
       gradientUnits="userSpaceOnUse"
       id="radialGradient2282"
       xlink:href="#linearGradient2955"
       inkscape:collect="always" /><radialGradient
       r="300"
       fy="218.90099"
       fx="225.52438"
       cy="218.90099"
       cx="225.52438"
       gradientTransform="matrix(0,1.386237,-1.323286,-5.741131e-8,-158.0823,-109.5408)"
       gradientUnits="userSpaceOnUse"
       id="radialGradient2284"
       xlink:href="#linearGradient2955"
       inkscape:collect="always" /><radialGradient
       gradientUnits="userSpaceOnUse"
       gradientTransform="matrix(-4.167939e-4,2.182867,-1.884232,-3.599562e-4,615.5972,-289.1214)"
       r="300"
       fy="218.90099"
       fx="225.52438"
       cy="218.90099"
       cx="225.52438"
       id="radialGradient2466"
       xlink:href="#linearGradient2955"
       inkscape:collect="always" /><polygon
       points="0,-1 0.58778525,0.80901699 -0.95105652,-0.30901699 0.95105652,-0.30901699 -0.58778525,0.80901699 0,-1 "
       transform="scale(53,53)"
       id="polygon2464" /><clipPath
       id="clipPath2460"><path
         id="path2462"
         d="M 0,-200 L 0,600 L 300,600 L 300,-200 L 0,-200 z " /></clipPath><radialGradient
       r="300"
       fy="218.90099"
       fx="225.52438"
       cy="218.90099"
       cx="225.52438"
       gradientTransform="matrix(-4.167939e-4,2.182867,-1.884232,-3.599562e-4,615.5972,-289.1214)"
       gradientUnits="userSpaceOnUse"
       id="radialGradient2458"
       xlink:href="#linearGradient2955"
       inkscape:collect="always" /><radialGradient
       r="300"
       fy="218.90099"
       fx="225.52438"
       cy="218.90099"
       cx="225.52438"
       gradientTransform="matrix(0,1.748721,-1.593162,-1.049767e-7,551.7876,-191.2898)"
       gradientUnits="userSpaceOnUse"
       id="radialGradient2456"
       xlink:href="#linearGradient2955"
       inkscape:collect="always" /><radialGradient
       r="300"
       fy="218.90099"
       fx="225.52438"
       cy="218.90099"
       cx="225.52438"
       gradientTransform="matrix(0,1.386237,-1.323286,-5.741131e-8,-158.0823,-109.5408)"
       gradientUnits="userSpaceOnUse"
       id="radialGradient2454"
       xlink:href="#linearGradient2955"
       inkscape:collect="always" /></defs><sodipodi:namedview
     showgrid="false"
     inkscape:cy="140.03821"
     inkscape:cx="312.22273"
     inkscape:zoom="0.99999999"
     borderopacity="1"
     bordercolor="#000000"
     pagecolor="#ffffff"
     id="base"
     inkscape:showpageshadow="false"
     inkscape:window-y="-8"
     inkscape:window-x="-8"
     inkscape:window-height="837"
     inkscape:window-width="1600"
     inkscape:current-layer="svg1350"
     inkscape:pageopacity="0"
     borderlayer="top"
     inkscape:window-maximized="1"
     fit-margin-top="0"
     fit-margin-left="0"
     fit-margin-right="0"
     fit-margin-bottom="0" /><g
     id="g7301"
     transform="translate(255.77226,345.5787)"><g
       id="g4902"
       transform="matrix(1.566836,-1.496606,1.386558,1.684628,-165.947,320.3668)" /><g
       id="g4905"
       transform="matrix(-1.651458,-1.380107,-1.284604,1.781322,37.7191,314.9948)" /><g
       id="g7263"
       transform="matrix(1,0,0,1.077271,-86.59378,93.92017)" /></g><g
     id="g4616"
     transform="translate(0.7573576,208.8935)" /><rect
     style="color:#000000;clip-rule:nonzero;display:inline;overflow:visible;visibility:visible;opacity:1;isolation:auto;mix-blend-mode:normal;color-interpolation:sRGB;color-interpolation-filters:linearRGB;solid-color:#000000;solid-opacity:1;fill:#ffffff;fill-opacity:1;fill-rule:nonzero;stroke:none;stroke-width:18.14693069;stroke-linecap:butt;stroke-linejoin:miter;stroke-miterlimit:4;stroke-dasharray:none;stroke-dashoffset:0;stroke-opacity:1;color-rendering:auto;image-rendering:auto;shape-rendering:auto;text-rendering:auto;enable-background:accumulate"
     id="rect4499"
     width="720"
     height="420"
     x="0"
     y="0" /><use
     height="100%"
     width="100%"
     y="0"
     x="0"
     xlink:href="#1"
     transform="matrix(0.24404415,0,0,0.24404415,359.91717,124.58453)"
     id="use4976" /><use
     height="100%"
     width="100%"
     y="0"
     x="0"
     xlink:href="#1"
     transform="matrix(0.24404415,0,0,0.24404415,359.91717,295.41544)"
     id="use4978" /><path
     sodipodi:nodetypes="ccccc"
     inkscape:connector-curvature="0"
     id="rect4309"
     d="m 360,0 360,0 0,420 -360,0 z"
     style="opacity:1;fill:#ffffff;fill-opacity:1;fill-rule:evenodd;stroke:none" /><g
     id="g5993"><path
       inkscape:connector-curvature="0"
       id="path3444"
       d="m 451.34519,86.85348 c 7.1275,8.84169 -12.8036,12.36022 -2.05775,20.72924 4.58293,2.84167 15.28846,-3.30982 5.88364,-10.8701 -1.21518,-0.64728 4.23005,-5.1169 -3.82589,-9.85914 z"
       style="display:inline;fill:#000000;fill-opacity:1;fill-rule:evenodd;stroke:none" /><path
       inkscape:connector-curvature="0"
       id="path3446"
       d="m 463.23482,107.81535 c -1.78305,0.16783 -3.50148,1.26825 -5.12393,4.076 -2.03482,4.70723 6.91324,12.87151 12.93507,2.83457 0.4261,-1.22494 6.40323,2.69807 9.70994,-5.52113 -5.66879,5.9551 -11.4667,-1.1536 -16.73041,-1.38936 -0.25748,-0.0116 -0.53596,-0.0241 -0.79067,-8e-5 z"
       style="display:inline;fill:#000000;fill-opacity:1;fill-rule:evenodd;stroke:none" /><path
       inkscape:connector-curvature="0"
       id="path3448"
       d="m 441.19097,107.89995 c -5.26382,0.23479 -11.06311,7.37123 -16.7307,1.41504 3.30508,8.21982 9.34629,4.29799 9.77214,5.523 6.01988,10.03812 14.90627,1.87557 12.87236,-2.83206 -1.85361,-3.2092 -3.85409,-4.19784 -5.9138,-4.10598 z"
       style="display:inline;fill:#000000;fill-opacity:1;fill-rule:evenodd;stroke:none" /><path
       inkscape:connector-curvature="0"
       id="path3450"
       d="m 453.05043,113.62555 c -4.63734,21.06078 -13.26145,35.97025 -22.64927,46.68962 3.90206,-1.06968 8.3151,-4.10284 12.55647,-6.76405 -2.59422,5.52256 -5.21913,10.30466 -7.81327,15.17771 1.54867,-0.52481 6.48298,-5.4459 13.15795,-12.6619 1.04541,9.92125 2.47092,14.60966 4.58381,21.337 1.68329,-6.71623 2.90368,-11.30279 4.24008,-21.50962 4.02328,4.56475 7.90138,9.15337 13.34522,13.06921 l -7.62052,-15.69958 c 3.94643,2.52311 8.33838,5.82099 12.5235,7.22904 -9.92221,-11.25618 -18.31944,-25.80356 -22.32397,-46.86743 z"
       style="display:inline;fill:#000000;fill-opacity:1;fill-rule:evenodd;stroke:none" /><path
       inkscape:connector-curvature="0"
       id="path3568"
       d="m 451.34519,242.59356 c 7.1275,8.84169 -12.8036,12.36022 -2.05775,20.72924 4.58293,2.84167 15.28846,-3.30982 5.88364,-10.8701 -1.21518,-0.64728 4.23005,-5.1169 -3.82589,-9.85914 z"
       style="display:inline;fill:#000000;fill-opacity:1;fill-rule:evenodd;stroke:none" /><path
       inkscape:connector-curvature="0"
       id="path3570"
       d="m 463.23482,263.55543 c -1.78305,0.16783 -3.50148,1.26825 -5.12393,4.076 -2.03482,4.70723 6.91324,12.87151 12.93507,2.83457 0.4261,-1.22494 6.40323,2.69807 9.70994,-5.52113 -5.66879,5.9551 -11.4667,-1.1536 -16.73041,-1.38936 -0.25748,-0.0116 -0.53596,-0.024 -0.79067,-8e-5 z"
       style="display:inline;fill:#000000;fill-opacity:1;fill-rule:evenodd;stroke:none" /><path
       inkscape:connector-curvature="0"
       id="path3572"
       d="m 441.19097,263.64003 c -5.26382,0.23479 -11.06311,7.37123 -16.7307,1.41504 3.30508,8.21982 9.34629,4.29799 9.77214,5.523 6.01988,10.03812 14.90627,1.87557 12.87236,-2.83206 -1.85361,-3.2092 -3.85409,-4.19784 -5.9138,-4.10598 z"
       style="display:inline;fill:#000000;fill-opacity:1;fill-rule:evenodd;stroke:none" /><path
       inkscape:connector-curvature="0"
       id="path3574"
       d="m 453.05043,269.36563 c -4.63734,21.06078 -13.26145,35.97025 -22.64927,46.68962 3.90206,-1.06968 8.3151,-4.10284 12.55647,-6.76405 -2.59422,5.52256 -5.21913,10.30466 -7.81327,15.17771 1.54867,-0.52481 6.48298,-5.4459 13.15795,-12.6619 1.04541,9.92125 2.47092,14.60966 4.58381,21.337 1.68329,-6.71623 2.90368,-11.30279 4.24008,-21.50962 4.02328,4.56475 7.90138,9.15337 13.34522,13.06921 l -7.62052,-15.69958 c 3.94643,2.52311 8.33838,5.82099 12.5235,7.22904 -9.92221,-11.25618 -18.31944,-25.80356 -22.32397,-46.86743 z"
       style="display:inline;fill:#000000;fill-opacity:1;fill-rule:evenodd;stroke:none" /><path
       inkscape:connector-curvature="0"
       id="path3454"
       d="m 552.13987,107.89995 c -5.26381,0.23479 -11.06311,7.37123 -16.73069,1.41504 3.30507,8.21982 9.34628,4.29799 9.77213,5.523 6.01989,10.03812 14.90627,1.87557 12.87237,-2.83206 -1.85362,-3.2092 -3.8541,-4.19784 -5.91381,-4.10598 z"
       style="display:inline;fill:#000000;fill-opacity:1;fill-rule:evenodd;stroke:none" /><path
       inkscape:connector-curvature="0"
       id="path3456"
       d="m 562.29409,86.85348 c 7.1275,8.84169 -12.8036,12.36022 -2.05775,20.72924 4.58294,2.84167 15.28846,-3.30982 5.88364,-10.8701 -1.21518,-0.64728 4.23006,-5.1169 -3.82589,-9.85914 z"
       style="display:inline;fill:#000000;fill-opacity:1;fill-rule:evenodd;stroke:none" /><path
       inkscape:connector-curvature="0"
       id="path3458"
       d="m 574.18373,107.81535 c -1.78306,0.16783 -3.50148,1.26825 -5.12393,4.076 -2.03483,4.70723 6.91323,12.87151 12.93507,2.83457 0.4261,-1.22494 6.40322,2.69807 9.70994,-5.52113 -5.6688,5.9551 -11.46671,-1.1536 -16.73042,-1.38936 -0.25747,-0.0116 -0.53596,-0.0241 -0.79066,-8e-5 z"
       style="display:inline;fill:#000000;fill-opacity:1;fill-rule:evenodd;stroke:none" /><path
       inkscape:connector-curvature="0"
       id="path3460"
       d="m 563.99934,113.62555 c -4.63735,21.06078 -13.26146,35.97025 -22.64928,46.68962 3.90206,-1.06968 8.3151,-4.10284 12.55648,-6.76405 -2.59422,5.52256 -5.21914,10.30466 -7.81328,15.17771 1.54867,-0.52481 6.48299,-5.4459 13.15796,-12.6619 1.0454,9.92125 2.47091,14.60966 4.58381,21.337 1.68329,-6.71623 2.90367,-11.30279 4.24007,-21.50962 4.02329,4.56475 7.90138,9.15337 13.34523,13.06921 l -7.62052,-15.69958 c 3.94643,2.52311 8.33837,5.82099 12.52349,7.22904 -9.9222,-11.25618 -18.31944,-25.80356 -22.32396,-46.86743 z"
       style="display:inline;fill:#000000;fill-opacity:1;fill-rule:evenodd;stroke:none" /><path
       inkscape:connector-curvature="0"
       id="path3578"
       d="m 552.13987,263.64003 c -5.26381,0.23479 -11.06311,7.37123 -16.73069,1.41504 3.30507,8.21982 9.34628,4.29799 9.77213,5.523 6.01989,10.03812 14.90627,1.87557 12.87237,-2.83206 -1.85362,-3.2092 -3.8541,-4.19784 -5.91381,-4.10598 z"
       style="display:inline;fill:#000000;fill-opacity:1;fill-rule:evenodd;stroke:none" /><path
       inkscape:connector-curvature="0"
       id="path3580"
       d="m 562.29409,242.59356 c 7.1275,8.84169 -12.8036,12.36022 -2.05775,20.72924 4.58294,2.84167 15.28846,-3.30982 5.88364,-10.8701 -1.21518,-0.64728 4.23006,-5.1169 -3.82589,-9.85914 z"
       style="display:inline;fill:#000000;fill-opacity:1;fill-rule:evenodd;stroke:none" /><path
       inkscape:connector-curvature="0"
       id="path3582"
       d="m 574.18373,263.55543 c -1.78306,0.16783 -3.50148,1.26825 -5.12393,4.076 -2.03483,4.70723 6.91323,12.87151 12.93507,2.83457 0.4261,-1.22494 6.40322,2.69807 9.70994,-5.52113 -5.6688,5.9551 -11.46671,-1.1536 -16.73042,-1.38936 -0.25747,-0.0116 -0.53596,-0.024 -0.79066,-8e-5 z"
       style="display:inline;fill:#000000;fill-opacity:1;fill-rule:evenodd;stroke:none" /><path
       inkscape:connector-curvature="0"
       id="path3584"
       d="m 563.99934,269.36563 c -4.63735,21.06078 -13.26146,35.97025 -22.64928,46.68962 3.90206,-1.06968 8.3151,-4.10284 12.55648,-6.76405 -2.59422,5.52256 -5.21914,10.30466 -7.81328,15.17771 1.54867,-0.52481 6.48299,-5.4459 13.15796,-12.6619 1.0454,9.92125 2.47091,14.60966 4.58381,21.337 1.68329,-6.71623 2.90367,-11.30279 4.24007,-21.50962 4.02329,4.56475 7.90138,9.15337 13.34523,13.06921 l -7.62052,-15.69958 c 3.94643,2.52311 8.33837,5.82099 12.52349,7.22904 -9.9222,-11.25618 -18.31944,-25.80356 -22.32396,-46.86743 z"
       style="display:inline;fill:#000000;fill-opacity:1;fill-rule:evenodd;stroke:none" /><path
       inkscape:connector-curvature="0"
       id="path3464"
       d="m 673.24288,86.85348 c 7.1275,8.84169 -12.8036,12.36023 -2.05775,20.72924 4.58293,2.84168 15.28846,-3.30982 5.88364,-10.87009 -1.21518,-0.64728 4.23005,-5.1169 -3.82589,-9.85915 z"
       style="display:inline;fill:#000000;fill-opacity:1;fill-rule:evenodd;stroke:none" /><path
       inkscape:connector-curvature="0"
       id="path3466"
       d="m 685.13251,107.81536 c -1.78305,0.16783 -3.50148,1.26825 -5.12393,4.076 -2.03482,4.70723 6.91324,12.87151 12.93507,2.83457 0.4261,-1.22494 6.40323,2.69807 9.70994,-5.52113 -5.6688,5.9551 -11.46671,-1.1536 -16.73042,-1.38936 -0.25747,-0.0116 -0.53595,-0.024 -0.79066,-8e-5 z"
       style="display:inline;fill:#000000;fill-opacity:1;fill-rule:evenodd;stroke:none" /><path
       inkscape:connector-curvature="0"
       id="path3468"
       d="m 663.08865,107.89996 c -5.26381,0.23479 -11.0631,7.37123 -16.73069,1.41503 3.30508,8.21983 9.34629,4.298 9.77213,5.52301 6.01989,10.03812 14.90627,1.87557 12.87237,-2.83206 -1.85361,-3.2092 -3.85409,-4.19784 -5.91381,-4.10598 z"
       style="display:inline;fill:#000000;fill-opacity:1;fill-rule:evenodd;stroke:none" /><path
       inkscape:connector-curvature="0"
       id="path3470"
       d="m 674.94812,113.62556 c -4.63734,21.06078 -13.26145,35.97024 -22.64927,46.68962 3.90206,-1.06968 8.3151,-4.10284 12.55647,-6.76405 -2.59422,5.52256 -5.21913,10.30465 -7.81327,15.1777 1.54867,-0.52481 6.48298,-5.44589 13.15795,-12.66189 1.0454,9.92125 2.47092,14.60966 4.58381,21.337 1.68329,-6.71623 2.90368,-11.30279 4.24008,-21.50963 4.02328,4.56476 7.90138,9.15338 13.34522,13.06922 l -7.62052,-15.69958 c 3.94643,2.5231 8.33838,5.82099 12.5235,7.22904 -9.92221,-11.25618 -18.31944,-25.80356 -22.32397,-46.86743 z"
       style="display:inline;fill:#000000;fill-opacity:1;fill-rule:evenodd;stroke:none" /><path
       inkscape:connector-curvature="0"
       id="path3588"
       d="m 673.24288,242.59355 c 7.1275,8.84169 -12.8036,12.36023 -2.05775,20.72924 4.58293,2.84168 15.28846,-3.30982 5.88364,-10.87009 -1.21518,-0.64728 4.23005,-5.1169 -3.82589,-9.85915 z"
       style="display:inline;fill:#000000;fill-opacity:1;fill-rule:evenodd;stroke:none" /><path
       inkscape:connector-curvature="0"
       id="path3590"
       d="m 685.13251,263.55543 c -1.78305,0.16783 -3.50148,1.26825 -5.12393,4.076 -2.03482,4.70723 6.91324,12.87151 12.93507,2.83457 0.4261,-1.22494 6.40323,2.69807 9.70994,-5.52113 -5.6688,5.9551 -11.46671,-1.1536 -16.73042,-1.38936 -0.25747,-0.0116 -0.53595,-0.024 -0.79066,-8e-5 z"
       style="display:inline;fill:#000000;fill-opacity:1;fill-rule:evenodd;stroke:none" /><path
       inkscape:connector-curvature="0"
       id="path3592"
       d="m 663.08865,263.64003 c -5.26381,0.23479 -11.0631,7.37123 -16.73069,1.41503 3.30508,8.21983 9.34629,4.298 9.77213,5.52301 6.01989,10.03812 14.90627,1.87557 12.87237,-2.83206 -1.85361,-3.2092 -3.85409,-4.19784 -5.91381,-4.10598 z"
       style="display:inline;fill:#000000;fill-opacity:1;fill-rule:evenodd;stroke:none" /><path
       inkscape:connector-curvature="0"
       id="path3594"
       d="m 674.94812,269.36563 c -4.63734,21.06078 -13.26145,35.97024 -22.64927,46.68962 3.90206,-1.06968 8.3151,-4.10284 12.55647,-6.76405 -2.59422,5.52256 -5.21913,10.30465 -7.81327,15.1777 1.54867,-0.52481 6.48298,-5.44589 13.15795,-12.66189 1.0454,9.92125 2.47092,14.60966 4.58381,21.337 1.68329,-6.71623 2.90368,-11.30279 4.24008,-21.50963 4.02328,4.56476 7.90138,9.15338 13.34522,13.06922 l -7.62052,-15.69958 c 3.94643,2.5231 8.33838,5.82099 12.5235,7.22904 -9.92221,-11.25618 -18.31944,-25.80356 -22.32397,-46.86743 z"
       style="display:inline;fill:#000000;fill-opacity:1;fill-rule:evenodd;stroke:none" /><path
       inkscape:connector-curvature="0"
       id="path3124-3"
       d="m 395.87079,8.98349 c 7.1275,8.84169 -12.8036,12.36022 -2.05775,20.72924 4.58293,2.84167 15.28846,-3.30982 5.88364,-10.8701 -1.21518,-0.64728 4.23005,-5.1169 -3.82589,-9.85914 z"
       style="display:inline;fill:#000000;fill-opacity:1;fill-rule:evenodd;stroke:none" /><path
       inkscape:connector-curvature="0"
       id="path3114"
       d="m 407.76042,29.94536 c -1.78305,0.16783 -3.50148,1.26825 -5.12393,4.076 -2.03482,4.70723 6.91324,12.87151 12.93507,2.83457 0.4261,-1.22494 6.40323,2.69807 9.70994,-5.52113 -5.66879,5.9551 -11.4667,-1.1536 -16.73041,-1.38936 -0.25748,-0.0116 -0.53596,-0.024 -0.79067,-8e-5 z"
       style="display:inline;fill:#000000;fill-opacity:1;fill-rule:evenodd;stroke:none" /><path
       inkscape:connector-curvature="0"
       id="path3104-3"
       d="m 385.71657,30.02996 c -5.26382,0.23479 -11.06311,7.37123 -16.73069,1.41504 3.30507,8.21982 9.34628,4.29799 9.77213,5.523 6.01988,10.03812 14.90627,1.87557 12.87236,-2.83206 -1.85361,-3.2092 -3.85409,-4.19784 -5.9138,-4.10598 z"
       style="display:inline;fill:#000000;fill-opacity:1;fill-rule:evenodd;stroke:none" /><path
       inkscape:connector-curvature="0"
       id="path3094"
       d="m 397.57603,35.75556 c -4.63734,21.06078 -13.26145,35.97025 -22.64927,46.68962 3.90206,-1.06968 8.3151,-4.10284 12.55647,-6.76405 -2.59422,5.52256 -5.21913,10.30466 -7.81327,15.17771 1.54867,-0.52481 6.48298,-5.4459 13.15795,-12.6619 1.04541,9.92125 2.47092,14.60966 4.58381,21.337 1.68329,-6.71623 2.90368,-11.30279 4.24008,-21.50962 4.02328,4.56475 7.90138,9.15337 13.34522,13.06921 L 407.3765,75.39395 c 3.94643,2.52311 8.33838,5.82099 12.5235,7.22904 -9.92221,-11.25618 -18.31944,-25.80356 -22.32397,-46.86743 z"
       style="display:inline;fill:#000000;fill-opacity:1;fill-rule:evenodd;stroke:none" /><path
       inkscape:connector-curvature="0"
       id="path3528"
       d="m 395.87079,164.72358 c 7.1275,8.84169 -12.8036,12.36022 -2.05775,20.72924 4.58293,2.84167 15.28846,-3.30982 5.88364,-10.8701 -1.21518,-0.64728 4.23005,-5.1169 -3.82589,-9.85914 z"
       style="display:inline;fill:#000000;fill-opacity:1;fill-rule:evenodd;stroke:none" /><path
       inkscape:connector-curvature="0"
       id="path3530"
       d="m 407.76042,185.68545 c -1.78305,0.16783 -3.50148,1.26825 -5.12393,4.076 -2.03482,4.70723 6.91324,12.87151 12.93507,2.83457 0.4261,-1.22494 6.40323,2.69807 9.70994,-5.52113 -5.66879,5.9551 -11.4667,-1.1536 -16.73041,-1.38936 -0.25748,-0.0116 -0.53596,-0.024 -0.79067,-8e-5 z"
       style="display:inline;fill:#000000;fill-opacity:1;fill-rule:evenodd;stroke:none" /><path
       inkscape:connector-curvature="0"
       id="path3532"
       d="m 385.71657,185.77005 c -5.26382,0.23479 -11.06311,7.37123 -16.73069,1.41504 3.30507,8.21982 9.34628,4.29799 9.77213,5.523 6.01988,10.03812 14.90627,1.87557 12.87236,-2.83206 -1.85361,-3.2092 -3.85409,-4.19784 -5.9138,-4.10598 z"
       style="display:inline;fill:#000000;fill-opacity:1;fill-rule:evenodd;stroke:none" /><path
       inkscape:connector-curvature="0"
       id="path3534"
       d="m 397.57603,191.49565 c -4.63734,21.06078 -13.26145,35.97025 -22.64927,46.68962 3.90206,-1.06968 8.3151,-4.10284 12.55647,-6.76405 -2.59422,5.52256 -5.21913,10.30466 -7.81327,15.17771 1.54867,-0.52481 6.48298,-5.4459 13.15795,-12.6619 1.04541,9.92125 2.47092,14.60966 4.58381,21.337 1.68329,-6.71623 2.90368,-11.30279 4.24008,-21.50962 4.02328,4.56475 7.90138,9.15337 13.34522,13.06921 l -7.62052,-15.69958 c 3.94643,2.52311 8.33838,5.82099 12.5235,7.22904 -9.92221,-11.25618 -18.31944,-25.80356 -22.32397,-46.86743 z"
       style="display:inline;fill:#000000;fill-opacity:1;fill-rule:evenodd;stroke:none" /><path
       inkscape:connector-curvature="0"
       id="path4437"
       d="m 395.87079,320.46368 c 7.1275,8.84169 -12.8036,12.36022 -2.05775,20.72924 4.58293,2.84167 15.28846,-3.30982 5.88364,-10.8701 -1.21518,-0.64728 4.23005,-5.1169 -3.82589,-9.85914 z"
       style="display:inline;fill:#000000;fill-opacity:1;fill-rule:evenodd;stroke:none" /><path
       inkscape:connector-curvature="0"
       id="path4439"
       d="m 407.76042,341.42555 c -1.78305,0.16783 -3.50148,1.26825 -5.12393,4.076 -2.03482,4.70723 6.91324,12.87151 12.93507,2.83457 0.4261,-1.22494 6.40323,2.69807 9.70994,-5.52113 -5.66879,5.9551 -11.4667,-1.1536 -16.73041,-1.38936 -0.25748,-0.0116 -0.53596,-0.024 -0.79067,-8e-5 z"
       style="display:inline;fill:#000000;fill-opacity:1;fill-rule:evenodd;stroke:none" /><path
       inkscape:connector-curvature="0"
       id="path4441"
       d="m 385.71657,341.51015 c -5.26382,0.23479 -11.06311,7.37123 -16.73069,1.41504 3.30507,8.21982 9.34628,4.29799 9.77213,5.523 6.01988,10.03812 14.90627,1.87557 12.87236,-2.83206 -1.85361,-3.2092 -3.85409,-4.19784 -5.9138,-4.10598 z"
       style="display:inline;fill:#000000;fill-opacity:1;fill-rule:evenodd;stroke:none" /><path
       inkscape:connector-curvature="0"
       id="path4443"
       d="m 397.57603,347.23575 c -4.63734,21.06078 -13.26145,35.97025 -22.64927,46.68962 3.90206,-1.06968 8.3151,-4.10284 12.55647,-6.76405 -2.59422,5.52256 -5.21913,10.30466 -7.81327,15.17771 1.54867,-0.52481 6.48298,-5.4459 13.15795,-12.6619 1.04541,9.92125 2.47092,14.60966 4.58381,21.337 1.68329,-6.71623 2.90368,-11.30279 4.24008,-21.50962 4.02328,4.56475 7.90138,9.15337 13.34522,13.06921 l -7.62052,-15.69958 c 3.94643,2.52311 8.33838,5.82099 12.5235,7.22904 -9.92221,-11.25618 -18.31944,-25.80356 -22.32397,-46.86743 z"
       style="display:inline;fill:#000000;fill-opacity:1;fill-rule:evenodd;stroke:none" /><path
       inkscape:connector-curvature="0"
       id="path3360"
       d="m 496.66547,30.02996 c -5.26381,0.23479 -11.06311,7.37123 -16.73069,1.41504 3.30507,8.21982 9.34628,4.29799 9.77213,5.523 6.01989,10.03812 14.90627,1.87557 12.87237,-2.83206 -1.85362,-3.2092 -3.8541,-4.19784 -5.91381,-4.10598 z"
       style="display:inline;fill:#000000;fill-opacity:1;fill-rule:evenodd;stroke:none" /><path
       inkscape:connector-curvature="0"
       id="path3356"
       d="m 506.81969,8.98349 c 7.1275,8.84169 -12.8036,12.36022 -2.05775,20.72924 4.58294,2.84167 15.28846,-3.30982 5.88364,-10.8701 -1.21518,-0.64728 4.23006,-5.1169 -3.82589,-9.85914 z"
       style="display:inline;fill:#000000;fill-opacity:1;fill-rule:evenodd;stroke:none" /><path
       inkscape:connector-curvature="0"
       id="path3358"
       d="m 518.70933,29.94536 c -1.78306,0.16783 -3.50148,1.26825 -5.12393,4.076 -2.03483,4.70723 6.91323,12.87151 12.93507,2.83457 0.4261,-1.22494 6.40322,2.69807 9.70994,-5.52113 -5.6688,5.9551 -11.46671,-1.1536 -16.73042,-1.38936 -0.25747,-0.0116 -0.53596,-0.024 -0.79066,-8e-5 z"
       style="display:inline;fill:#000000;fill-opacity:1;fill-rule:evenodd;stroke:none" /><path
       inkscape:connector-curvature="0"
       id="path3362"
       d="m 508.52494,35.75556 c -4.63735,21.06078 -13.26146,35.97025 -22.64928,46.68962 3.90206,-1.06968 8.3151,-4.10284 12.55648,-6.76405 -2.59422,5.52256 -5.21914,10.30466 -7.81328,15.17771 1.54867,-0.52481 6.48299,-5.4459 13.15796,-12.6619 1.0454,9.92125 2.47091,14.60966 4.58381,21.337 1.68329,-6.71623 2.90367,-11.30279 4.24007,-21.50962 4.02329,4.56475 7.90138,9.15337 13.34523,13.06921 l -7.62052,-15.69958 c 3.94643,2.52311 8.33837,5.82099 12.52349,7.22904 -9.9222,-11.25618 -18.31944,-25.80356 -22.32396,-46.86743 z"
       style="display:inline;fill:#000000;fill-opacity:1;fill-rule:evenodd;stroke:none" /><path
       inkscape:connector-curvature="0"
       id="path3538"
       d="m 496.66547,185.77005 c -5.26381,0.23479 -11.06311,7.37123 -16.73069,1.41504 3.30507,8.21982 9.34628,4.29799 9.77213,5.523 6.01989,10.03812 14.90627,1.87557 12.87237,-2.83206 -1.85362,-3.2092 -3.8541,-4.19784 -5.91381,-4.10598 z"
       style="display:inline;fill:#000000;fill-opacity:1;fill-rule:evenodd;stroke:none" /><path
       inkscape:connector-curvature="0"
       id="path3540"
       d="m 506.81969,164.72358 c 7.1275,8.84169 -12.8036,12.36022 -2.05775,20.72924 4.58294,2.84167 15.28846,-3.30982 5.88364,-10.8701 -1.21518,-0.64728 4.23006,-5.1169 -3.82589,-9.85914 z"
       style="display:inline;fill:#000000;fill-opacity:1;fill-rule:evenodd;stroke:none" /><path
       inkscape:connector-curvature="0"
       id="path3542"
       d="m 518.70933,185.68545 c -1.78306,0.16783 -3.50148,1.26825 -5.12393,4.076 -2.03483,4.70723 6.91323,12.87151 12.93507,2.83457 0.4261,-1.22494 6.40322,2.69807 9.70994,-5.52113 -5.6688,5.9551 -11.46671,-1.1536 -16.73042,-1.38936 -0.25747,-0.0116 -0.53596,-0.024 -0.79066,-8e-5 z"
       style="display:inline;fill:#000000;fill-opacity:1;fill-rule:evenodd;stroke:none" /><path
       inkscape:connector-curvature="0"
       id="path3544"
       d="m 508.52494,191.49565 c -4.63735,21.06078 -13.26146,35.97025 -22.64928,46.68962 3.90206,-1.06968 8.3151,-4.10284 12.55648,-6.76405 -2.59422,5.52256 -5.21914,10.30466 -7.81328,15.17771 1.54867,-0.52481 6.48299,-5.4459 13.15796,-12.6619 1.0454,9.92125 2.47091,14.60966 4.58381,21.337 1.68329,-6.71623 2.90367,-11.30279 4.24007,-21.50962 4.02329,4.56475 7.90138,9.15337 13.34523,13.06921 l -7.62052,-15.69958 c 3.94643,2.52311 8.33837,5.82099 12.52349,7.22904 -9.9222,-11.25618 -18.31944,-25.80356 -22.32396,-46.86743 z"
       style="display:inline;fill:#000000;fill-opacity:1;fill-rule:evenodd;stroke:none" /><path
       inkscape:connector-curvature="0"
       id="path4459"
       d="m 496.66547,341.51015 c -5.26381,0.23479 -11.06311,7.37123 -16.73069,1.41504 3.30507,8.21982 9.34628,4.29799 9.77213,5.523 6.01989,10.03812 14.90627,1.87557 12.87237,-2.83206 -1.85362,-3.2092 -3.8541,-4.19784 -5.91381,-4.10598 z"
       style="display:inline;fill:#000000;fill-opacity:1;fill-rule:evenodd;stroke:none" /><path
       inkscape:connector-curvature="0"
       id="path4461"
       d="m 506.81969,320.46368 c 7.1275,8.84169 -12.8036,12.36022 -2.05775,20.72924 4.58294,2.84167 15.28846,-3.30982 5.88364,-10.8701 -1.21518,-0.64728 4.23006,-5.1169 -3.82589,-9.85914 z"
       style="display:inline;fill:#000000;fill-opacity:1;fill-rule:evenodd;stroke:none" /><path
       inkscape:connector-curvature="0"
       id="path4463"
       d="m 518.70933,341.42555 c -1.78306,0.16783 -3.50148,1.26825 -5.12393,4.076 -2.03483,4.70723 6.91323,12.87151 12.93507,2.83457 0.4261,-1.22494 6.40322,2.69807 9.70994,-5.52113 -5.6688,5.9551 -11.46671,-1.1536 -16.73042,-1.38936 -0.25747,-0.0116 -0.53596,-0.024 -0.79066,-8e-5 z"
       style="display:inline;fill:#000000;fill-opacity:1;fill-rule:evenodd;stroke:none" /><path
       inkscape:connector-curvature="0"
       id="path4465"
       d="m 508.52494,347.23575 c -4.63735,21.06078 -13.26146,35.97025 -22.64928,46.68962 3.90206,-1.06968 8.3151,-4.10284 12.55648,-6.76405 -2.59422,5.52256 -5.21914,10.30466 -7.81328,15.17771 1.54867,-0.52481 6.48299,-5.4459 13.15796,-12.6619 1.0454,9.92125 2.47091,14.60966 4.58381,21.337 1.68329,-6.71623 2.90367,-11.30279 4.24007,-21.50962 4.02329,4.56475 7.90138,9.15337 13.34523,13.06921 l -7.62052,-15.69958 c 3.94643,2.52311 8.33837,5.82099 12.52349,7.22904 -9.9222,-11.25618 -18.31944,-25.80356 -22.32396,-46.86743 z"
       style="display:inline;fill:#000000;fill-opacity:1;fill-rule:evenodd;stroke:none" /><path
       inkscape:connector-curvature="0"
       id="path3376"
       d="m 617.76848,8.98348 c 7.1275,8.84169 -12.8036,12.36023 -2.05775,20.72924 4.58293,2.84168 15.28846,-3.30982 5.88364,-10.87009 -1.21518,-0.64728 4.23005,-5.1169 -3.82589,-9.85915 z"
       style="display:inline;fill:#000000;fill-opacity:1;fill-rule:evenodd;stroke:none" /><path
       inkscape:connector-curvature="0"
       id="path3378"
       d="m 629.65811,29.94536 c -1.78305,0.16783 -3.50148,1.26825 -5.12393,4.076 -2.03482,4.70723 6.91324,12.87151 12.93507,2.83457 0.4261,-1.22494 6.40323,2.69807 9.70994,-5.52113 -5.6688,5.9551 -11.46671,-1.1536 -16.73042,-1.38936 -0.25747,-0.0116 -0.53595,-0.024 -0.79066,-8e-5 z"
       style="display:inline;fill:#000000;fill-opacity:1;fill-rule:evenodd;stroke:none" /><path
       inkscape:connector-curvature="0"
       id="path3380"
       d="m 607.61425,30.02996 c -5.26381,0.23479 -11.0631,7.37123 -16.73069,1.41503 3.30508,8.21983 9.34629,4.298 9.77213,5.52301 6.01989,10.03812 14.90627,1.87557 12.87237,-2.83206 -1.85361,-3.2092 -3.85409,-4.19784 -5.91381,-4.10598 z"
       style="display:inline;fill:#000000;fill-opacity:1;fill-rule:evenodd;stroke:none" /><path
       inkscape:connector-curvature="0"
       id="path3382"
       d="m 619.47372,35.75556 c -4.63734,21.06078 -13.26145,35.97024 -22.64927,46.68962 3.90206,-1.06968 8.3151,-4.10284 12.55647,-6.76405 -2.59422,5.52256 -5.21913,10.30465 -7.81327,15.1777 1.54867,-0.52481 6.48298,-5.44589 13.15795,-12.66189 1.0454,9.92125 2.47092,14.60966 4.58381,21.337 1.68329,-6.71623 2.90368,-11.30279 4.24008,-21.50963 4.02328,4.56476 7.90138,9.15338 13.34522,13.06922 l -7.62052,-15.69958 c 3.94643,2.5231 8.33838,5.82099 12.5235,7.22904 -9.92221,-11.25618 -18.31944,-25.80356 -22.32397,-46.86743 z"
       style="display:inline;fill:#000000;fill-opacity:1;fill-rule:evenodd;stroke:none" /><path
       inkscape:connector-curvature="0"
       id="path3548"
       d="m 617.76848,164.72358 c 7.1275,8.84169 -12.8036,12.36023 -2.05775,20.72924 4.58293,2.84168 15.28846,-3.30982 5.88364,-10.87009 -1.21518,-0.64728 4.23005,-5.1169 -3.82589,-9.85915 z"
       style="display:inline;fill:#000000;fill-opacity:1;fill-rule:evenodd;stroke:none" /><path
       inkscape:connector-curvature="0"
       id="path3550"
       d="m 629.65811,185.68546 c -1.78305,0.16783 -3.50148,1.26825 -5.12393,4.076 -2.03482,4.70723 6.91324,12.87151 12.93507,2.83457 0.4261,-1.22494 6.40323,2.69807 9.70994,-5.52113 -5.6688,5.9551 -11.46671,-1.1536 -16.73042,-1.38936 -0.25747,-0.0116 -0.53595,-0.024 -0.79066,-8e-5 z"
       style="display:inline;fill:#000000;fill-opacity:1;fill-rule:evenodd;stroke:none" /><path
       inkscape:connector-curvature="0"
       id="path3552"
       d="m 607.61425,185.77006 c -5.26381,0.23479 -11.0631,7.37123 -16.73069,1.41503 3.30508,8.21983 9.34629,4.298 9.77213,5.52301 6.01989,10.03812 14.90627,1.87557 12.87237,-2.83206 -1.85361,-3.2092 -3.85409,-4.19784 -5.91381,-4.10598 z"
       style="display:inline;fill:#000000;fill-opacity:1;fill-rule:evenodd;stroke:none" /><path
       inkscape:connector-curvature="0"
       id="path3554"
       d="m 619.47372,191.49566 c -4.63734,21.06078 -13.26145,35.97024 -22.64927,46.68962 3.90206,-1.06968 8.3151,-4.10284 12.55647,-6.76405 -2.59422,5.52256 -5.21913,10.30465 -7.81327,15.1777 1.54867,-0.52481 6.48298,-5.44589 13.15795,-12.66189 1.0454,9.92125 2.47092,14.60966 4.58381,21.337 1.68329,-6.71623 2.90368,-11.30279 4.24008,-21.50963 4.02328,4.56476 7.90138,9.15338 13.34522,13.06922 l -7.62052,-15.69958 c 3.94643,2.5231 8.33838,5.82099 12.5235,7.22904 -9.92221,-11.25618 -18.31944,-25.80356 -22.32397,-46.86743 z"
       style="display:inline;fill:#000000;fill-opacity:1;fill-rule:evenodd;stroke:none" /><path
       inkscape:connector-curvature="0"
       id="path4481"
       d="m 617.76848,320.46366 c 7.1275,8.84169 -12.8036,12.36023 -2.05775,20.72924 4.58293,2.84168 15.28846,-3.30982 5.88364,-10.87009 -1.21518,-0.64728 4.23005,-5.1169 -3.82589,-9.85915 z"
       style="display:inline;fill:#000000;fill-opacity:1;fill-rule:evenodd;stroke:none" /><path
       inkscape:connector-curvature="0"
       id="path4483"
       d="m 629.65811,341.42554 c -1.78305,0.16783 -3.50148,1.26825 -5.12393,4.076 -2.03482,4.70723 6.91324,12.87151 12.93507,2.83457 0.4261,-1.22494 6.40323,2.69807 9.70994,-5.52113 -5.6688,5.9551 -11.46671,-1.1536 -16.73042,-1.38936 -0.25747,-0.0116 -0.53595,-0.024 -0.79066,-8e-5 z"
       style="display:inline;fill:#000000;fill-opacity:1;fill-rule:evenodd;stroke:none" /><path
       inkscape:connector-curvature="0"
       id="path4485"
       d="m 607.61425,341.51014 c -5.26381,0.23479 -11.0631,7.37123 -16.73069,1.41503 3.30508,8.21983 9.34629,4.298 9.77213,5.52301 6.01989,10.03812 14.90627,1.87557 12.87237,-2.83206 -1.85361,-3.2092 -3.85409,-4.19784 -5.91381,-4.10598 z"
       style="display:inline;fill:#000000;fill-opacity:1;fill-rule:evenodd;stroke:none" /><path
       inkscape:connector-curvature="0"
       id="path4487"
       d="m 619.47372,347.23574 c -4.63734,21.06078 -13.26145,35.97024 -22.64927,46.68962 3.90206,-1.06968 8.3151,-4.10284 12.55647,-6.76405 -2.59422,5.52256 -5.21913,10.30465 -7.81327,15.1777 1.54867,-0.52481 6.48298,-5.44589 13.15795,-12.66189 1.0454,9.92125 2.47092,14.60966 4.58381,21.337 1.68329,-6.71623 2.90368,-11.30279 4.24008,-21.50963 4.02328,4.56476 7.90138,9.15338 13.34522,13.06922 l -7.62052,-15.69958 c 3.94643,2.5231 8.33838,5.82099 12.5235,7.22904 -9.92221,-11.25618 -18.31944,-25.80356 -22.32397,-46.86743 z"
       style="display:inline;fill:#000000;fill-opacity:1;fill-rule:evenodd;stroke:none" /></g><g
     id="g19177"><rect
       style="fill:#003399"
       height="420"
       width="360"
       y="0"
       x="0"
       id="rect625" /><use
       id="use5062"
       transform="matrix(0.24404415,0,0,0.24404415,52.42149,39.169082)"
       xlink:href="#1"
       x="0"
       y="0"
       width="100%"
       height="100%" /><use
       id="use5064"
       transform="matrix(0.24404415,0,0,0.24404415,52.42149,209.99999)"
       xlink:href="#1"
       x="0"
       y="0"
       width="100%"
       height="100%" /><use
       id="use5066"
       transform="matrix(0.24404415,0,0,0.24404415,52.42149,380.83091)"
       xlink:href="#1"
       x="0"
       y="0"
       width="100%"
       height="100%" /><use
       id="use5070"
       transform="matrix(0.24404415,0,0,0.24404415,96.349437,124.58454)"
       xlink:href="#1"
       x="0"
       y="0"
       width="100%"
       height="100%" /><use
       id="use5072"
       transform="matrix(0.24404415,0,0,0.24404415,96.349437,295.41544)"
       xlink:href="#1"
       x="0"
       y="0"
       width="100%"
       height="100%" /><use
       id="use5074"
       transform="matrix(0.24404415,0,0,0.24404415,140.27738,39.169082)"
       xlink:href="#1"
       x="0"
       y="0"
       width="100%"
       height="100%" /><use
       id="use5076"
       transform="matrix(0.24404415,0,0,0.24404415,140.27738,209.99999)"
       xlink:href="#1"
       x="0"
       y="0"
       width="100%"
       height="100%" /><use
       id="use5078"
       transform="matrix(0.24404415,0,0,0.24404415,140.27738,380.83091)"
       xlink:href="#1"
       x="0"
       y="0"
       width="100%"
       height="100%" /><use
       id="use5082"
       transform="matrix(0.24404415,0,0,0.24404415,184.20533,124.58454)"
       xlink:href="#1"
       x="0"
       y="0"
       width="100%"
       height="100%" /><use
       id="use5084"
       transform="matrix(0.24404415,0,0,0.24404415,184.20533,295.41544)"
       xlink:href="#1"
       x="0"
       y="0"
       width="100%"
       height="100%" /><use
       id="use5086"
       transform="matrix(0.24404415,0,0,0.24404415,228.13328,39.169082)"
       xlink:href="#1"
       x="0"
       y="0"
       width="100%"
       height="100%" /><use
       id="use5088"
       transform="matrix(0.24404415,0,0,0.24404415,228.13328,209.99999)"
       xlink:href="#1"
       x="0"
       y="0"
       width="100%"
       height="100%" /><use
       id="use5090"
       transform="matrix(0.24404415,0,0,0.24404415,228.13328,380.83091)"
       xlink:href="#1"
       x="0"
       y="0"
       width="100%"
       height="100%" /><use
       id="use5094"
       transform="matrix(0.24404415,0,0,0.24404415,272.06123,124.58454)"
       xlink:href="#1"
       x="0"
       y="0"
       width="100%"
       height="100%" /><use
       id="use5096"
       transform="matrix(0.24404415,0,0,0.24404415,272.06123,295.41544)"
       xlink:href="#1"
       x="0"
       y="0"
       width="100%"
       height="100%" /><use
       id="use5098"
       transform="matrix(0.24404415,0,0,0.24404415,315.98917,39.169082)"
       xlink:href="#1"
       x="0"
       y="0"
       width="100%"
       height="100%" /><use
       id="use5100"
       transform="matrix(0.24404415,0,0,0.24404415,315.98917,209.99999)"
       xlink:href="#1"
       x="0"
       y="0"
       width="100%"
       height="100%" /><use
       id="use5102"
       transform="matrix(0.24404415,0,0,0.24404415,315.98917,380.83091)"
       xlink:href="#1"
       x="0"
       y="0"
       width="100%"
       height="100%" /></g><path
     style="fill:#ed2939;fill-opacity:1"
     d="m 0.01148,5e-7 0,34.4662205 -0.01148,0 0,355.588599 0.140578,0 0,29.94518 360.023322,0 0,-44.458 -314.566064,-8e-5 0,-329.8871 L 360.236,45.655 360.23609,5e-7 0.011399,5e-7 Z"
     id="rect2164"
     inkscape:connector-curvature="0"
     sodipodi:nodetypes="cccccccccccccc" /><path
     id="path4601"
     sodipodi:nodetypes="ccccccccccccccccccccccccczccccccccczccc"
     d="m 564.12232,371.27205 c -8.50334,19.95425 -31.98865,19.79284 -42.11416,2.14886 -7.23136,16.87973 -35.96961,17.6751 -41.61301,-0.93539 -4.43784,18.46853 -30.74886,19.02665 -37.54147,0.8576 -6.38404,18.31879 -34.95927,16.97696 -41.78005,-1.28154 -5.61522,18.07376 -35.64961,19.62117 -40.93879,3.48042 C 360.07454,384.24828 360,420 360,420 L 719.88126,420 720,0.27031043 360.14894,4.25e-7 l 0,45.654999575 0,0 0,0 0,0 0,0 0,0 0,0 -0.0765,0 c 7.80696,-18.39852 36.67805,-16.319109 40.48191,1.159581 7.82307,-18.10876 33.40754,-17.86762 44.81308,0.90233 8.98234,-18.99748 31.87594,-18.18071 38.41092,-0.42394 6.13448,-17.82289 30.44295,-17.95902 41.452,0.58535 6.64368,-18.99553 30.07866,-18.29156 37.98022,-0.66702 5.08792,-17.58371 30.23162,-18.99942 38.96842,-0.53673 9.01858,-18.71161 33.95095,-14.65309 38.3586,-0.7487 5.28149,-11.817948 23.87817,-12.227809 31.54583,-1.731561 7.66766,10.496248 5.71382,25.361015 -12.55069,32.213701 20.90512,5.03086 19.98536,28.580809 -0.29183,30.879409 18.02506,6.63327 18.015,25.17374 -0.0524,30.44574 20.07392,2.65059 18.74558,27.73294 0.0805,32.12205 18.66507,7.10388 16.63836,29.15449 -1.04857,35.57579 16.84565,4.17521 20.44221,29.54925 0.23547,36.95845 20.51668,5.14948 17.29045,30.05681 -0.30592,36.34976 17.73524,3.67153 19.4037,28.62553 1.38267,32.15122 22.13484,4.10908 17.35889,29.43063 -1.92004,31.95286 14.14978,5.97063 18.02977,23.11399 10.23813,32.09211 -7.79163,8.97811 -19.45988,9.20778 -29.86725,-2.09402 -5.14226,16.47913 -28.44844,15.07508 -35.28934,0.10307 -8.80926,16.73194 -31.02259,18.04653 -38.57194,-1.67241"
     inkscape:connector-curvature="0"
     style="fill:#003399" /><g
     id="g19101"
     transform="translate(0,2)"><path
       id="path3654"
       sodipodi:nodetypes="ccccccccccccscccccccccccccccccscccsccscsccccccccccccccccccccccccccccccccccccccccccccccccscccscsscccsccccscssccscccccccscccsccccsssccccccscsssscccccccccccscccccccccsccccccccccccccccccccccccccccccccccccccccccccccccccccccccccccccccccccccccccccccc"
       d="m 28.050673,39.138473 c -1.739259,1.127759 -3.395495,1.194193 -4.555625,0.51851 -1.158205,-0.675683 0.194962,0.900911 0.774073,1.576595 0.579094,0.674062 0.388,1.349746 0.388,2.025429 0,0.677304 -0.0107,1.552288 0.14476,2.364082 -1.160148,0.225226 -2.272019,-0.335412 -3.239129,-1.012716 0.569448,0.774525 0.490312,1.2266 0.920777,1.83261 -0.980607,0.0098 -1.905252,-1.019198 -2.714072,-1.519884 0.42082,0.604389 0.774074,1.54905 1.135047,2.240936 -0.789512,0.100459 -1.729579,-1.066185 -2.111802,-1.451828 0.123545,0.301384 0.374486,1.615482 0.5019,2.459682 -0.943935,-0.288421 -1.169793,-1.994644 -1.862786,-1.866637 0.0036,0.189581 -0.193038,0.808553 0.01426,1.383774 0.409232,1.140723 -0.52119,0.670823 -0.826184,0.580084 -0.810745,0.0098 -1.038528,0.283559 -0.880237,-1.187712 -0.19498,-0.452076 -0.747047,-0.89443 -0.747047,0.0048 0,0.90253 -0.511545,2.015708 -1.007651,2.015708 -0.496088,0 -0.799157,-0.768045 -0.9864,-1.406459 -0.889881,-0.844199 -0.405381,-1.55553 0.368692,-1.330302 0.774074,0.226847 0.187244,-1.351368 -0.389924,-0.899291 -0.581037,0.448835 -1.745036,0.460177 -1.551999,-0.215507 0.193038,-0.675683 0.303069,-1.212017 0.109997,-2.112927 -0.193037,-0.900911 0.710358,-0.746979 1.096432,-0.296522 0.386074,0.450455 0.559804,0.99651 1.331934,0.772902 0.772148,-0.225226 0.05794,-0.998131 -0.521189,-1.229839 -0.581037,0 -0.523115,-0.860404 0.397644,-1.399977 0.640884,-1.346507 1.588687,-1.493957 1.43619,-0.102081 0,0.674063 0.262529,2.030291 2.615609,1.702982 1.739242,-0.225229 2.028797,-1.860155 1.331935,-2.717316 -0.434316,-0.426151 -0.895676,-1.293035 -0.957448,-2.913378 -0.281819,0.286801 -0.667893,0.505547 -1.192951,0.52013 -0.889881,0.06643 -1.183306,-0.403467 -1.949642,-0.779386 0.478724,-0.307865 1.185231,-0.785867 1.88015,-0.630314 0.571392,0.0064 1.127327,-0.371058 1.337729,-1.03702 0.386074,-1.124517 1.225771,-1.13262 1.976668,-0.925216 0.843566,0.243053 2.866569,0.123153 2.866569,-0.327309 -0.926571,-0.340273 -2.067394,-1.346506 -2.459262,-2.740001 -0.0018,1.03864 -0.509601,1.725665 -1.254723,1.539326 -0.360973,-0.102081 -0.889881,-0.06643 -1.225771,-0.04375 0.413101,-0.388882 1.019221,-1.675436 0.525058,-2.532597 -0.223914,-0.403465 -0.277968,-1.208776 -0.231634,-1.704602 -0.140838,0.13934 -0.577186,1.001373 -0.250959,1.665713 -0.530834,0.05671 -0.942009,-0.748598 -1.555848,-0.993269 -0.109997,0.259254 0.249015,0.887947 0.33202,1.17961 -0.276042,0.106948 -0.46136,0.23495 -1.214201,-0.192821 -0.202681,0.664341 -0.09841,0.973826 -0.142799,1.212017 -0.239371,-0.02107 -0.822332,-0.18634 -1.108019,-0.546057 0.0053,0.427771 -0.191112,0.745358 -0.274117,1.101833 -0.378337,-0.09236 -0.704564,-0.212264 -1.036585,-0.732394 -0.02514,0.337032 -0.239371,0.487723 -0.200757,1.024057 -0.517338,-0.02917 -1.109945,-0.933318 -1.762417,-1.581456 -0.187243,0.570361 0.609989,2.859908 0.03084,2.63468 -0.886031,-0.27546 -1.8299657,0.486102 -1.8550669,-0.36944 C 9.6918278,32.021877 9.3944637,32.005673 8.8135162,32.681321 8.3000462,33.38131 7.2595928,34.141252 7.2673121,32.005637 6.595551,30.84061 6.8194654,30.501959 7.8521995,30.659133 8.8193102,30.433904 9.2092351,29.951042 8.4544687,29.685306 6.9970638,30.035301 6.6939949,29.255915 7.3078521,28.552686 c 0.1524258,-0.630314 0.1524258,-1.27359 0.7315905,-1.049982 0.9960627,0.76156 1.3531848,0 0.7740736,-0.452077 -0.5810365,-0.450455 -0.4516974,-1.004613 0.4787241,-1.351367 0.559804,-0.904151 1.2605167,-0.674063 1.2605167,0.225228 -0.133172,1.080769 0.453623,1.707842 0.839697,1.259008 0.386075,-0.450457 1.885945,-0.628694 2.466981,-0.855543 0.581037,-0.223607 2.299045,-1.978439 2.299045,-2.654122 -1.277881,0.05509 -2.050029,-0.291663 -2.497858,-0.636796 -0.05794,-0.442352 -0.113918,-0.784246 0.04439,-1.42104 -1.260517,0.787487 -1.806808,0.406706 -2.160061,-0.008 0.27991,-0.312726 0.729683,-1.453447 0.922702,-1.879597 -0.708433,0.364577 -0.938141,0.636794 -1.250855,0.460176 -0.131211,-0.445593 0.10037,-0.89605 0.185318,-1.249284 -0.745122,0.795588 -1.233491,0.766422 -1.884019,0.640035 0.673687,-1.213637 0.797232,-1.850432 0.947786,-3.083514 -0.451698,0.249533 -0.9400667,0.207405 -1.239267,0.23009 C 9.1629725,16.325652 9.0722301,15.709922 9.1995191,15.118497 8.288387,15.397195 7.711219,15.680756 7.996906,14.288881 c 0,-0.675685 -0.2219891,-1.529604 0.6235019,-1.197434 0.3860741,0 0.3648414,-0.818273 -0.2142698,-0.818273 C 6.9062679,12.145172 6.5491458,11.621795 7.3155001,10.537785 7.5355638,9.249612 8.0393713,8.9320243 8.4254454,9.9398782 c 0.3879995,0.6740628 1.4631989,1.3222008 1.1620732,0 C 8.8906562,8.6160571 8.4331648,7.4818164 9.7805557,7.6876002 10.996664,7.3035798 10.98702,8.1785647 10.641485,9.1086422 c -0.193037,0.831236 0.490312,1.0548438 0.683332,0.6043871 -0.06953,-0.8604019 0.37256,-1.4842336 0.984492,-0.5784623 0.766337,1.109936 1.024997,1.759693 -0.03673,2.459682 -0.577168,0.677304 1.355111,2.378665 1.982463,4.376549 0.936216,0.366196 2.495951,1.424281 3.449531,1.848811 0.579111,-0.675683 3.019065,-2.114549 5.219666,-2.027049 1.519178,0.06158 1.932261,-0.727535 2.125298,-1.401598 0.193037,-0.675683 -0.571374,-0.01462 -0.789513,-0.61411 -0.330077,0.500686 -0.895675,0.481241 -1.138897,-0.173373 -0.85321,1.160165 -2.063543,1.772655 -1.70642,-0.05509 0.175601,-0.931698 0.06364,-1.586318 0.590681,-1.633308 3.291239,0.617352 3.082763,-1.808303 2.08285,-2.114547 C 22.97056,9.4732269 21.169547,11.2394 21.426282,8.7165263 21.547866,7.5320545 21.507397,7.9630666 21.119362,7.7394588 20.733288,7.51261 21.571059,6.5614692 22.152096,6.5614692 23.082518,6.5371702 23.364354,6.0413388 23.789025,5.2846381 23.935746,5.171219 25.927853,5.2344 26.663312,5.1371862 27.618835,4.9135783 29.919806,4.011048 30.99308,4.2913672 c -0.291481,0.8604019 -0.623502,0.7972085 -0.806877,1.356228 0.754767,0.1377359 1.613771,0.4763815 1.785557,0.5638793 -0.386056,0.47152 -0.60612,0.7939693 -0.967092,1.1293792 0.839697,0.2187462 1.044304,0.1215306 0.940066,1.7969615 -0.01783,1.1536858 -0.08308,2.6606048 -1.24121,2.6606048 -1.162055,0 1.059761,1.098592 0.986418,2.658984 -0.07345,1.216877 -0.121584,3.005737 0.511545,4.042757 0.395719,0.667581 0.963242,2.223112 0.148682,3.109439 -0.260604,-1.096972 -0.714227,-1.994643 -1.204539,-2.670326 -0.283761,0.458558 -0.526983,1.399977 -0.245147,1.955756 0.345534,0.704849 0.333946,1.430763 0.333946,2.331673 0,0.900911 -0.227783,1.568494 -0.158308,3.2018 -0.324302,-0.113419 -0.741254,-0.617352 -0.957449,-1.143962 -0.108035,0.599525 -0.443978,0.90253 -0.604194,2.597409 -0.739328,-0.719432 -0.951672,-1.565251 -0.903413,-2.077281 0.01783,-1.584695 -0.167936,-1.36757 -0.555935,-2.266859 -0.109997,0.43101 -0.05402,0.99003 0.09645,1.853673 -0.581037,-0.452077 -0.779868,-0.520131 0.139055,1.294653 0.754766,1.466412 0.976755,5.535096 2.484363,6.474895 0.967093,0.225228 1.413014,1.252525 1.994033,1.702981 0.577186,0.450455 1.673618,0.197681 2.909034,2.098344 2.219908,1.98006 3.889657,0.186339 2.658092,-2.59417 -0.376411,-0.826374 -1.887887,-2.056215 -2.080907,-2.958747 -1.092581,-0.08425 -2.138828,-0.677304 -1.893681,-2.328434 -1.268237,0.136113 -1.949642,-1.638168 -1.050098,-3.177494 -1.731522,-0.61897 -1.467068,-3.384899 0.627352,-3.854798 0.167936,-2.616854 3.038373,-5.081398 4.445593,-6.256146 1.138898,-0.933319 4.138656,-3.896926 2.420647,-7.1748822 -1.088712,-2.0789012 -3.28737,-0.7372561 -2.999758,1.3222005 0.146721,1.0224367 0.965186,1.2152587 2.107951,0.8490597 0.03869,1.066186 -1.609919,3.117542 -2.756536,1.427523 0.0271,0.917115 -0.135133,2.210149 -1.584819,2.710835 -0.96711,0.450455 -0.961317,1.249286 -0.750898,2.461301 -1.783649,-0.05509 -2.621421,-2.051354 -2.235347,-3.4011 0.386074,-1.349747 1.615696,-1.36757 1.615696,-2.041634 0,-0.675683 -1.411089,-0.874985 -1.58095,-2.0059847 -0.193037,-1.3254416 0.245147,-2.4191727 1.131178,-2.7027329 -0.384131,1.5279843 1.150485,2.284685 2.075131,0.8944295 1.602183,-2.3981094 4.422417,-2.9198586 5.675215,-1.2136377 0.847416,1.1536853 2.131091,3.8872048 0.56558,6.7535928 -0.949729,1.741869 -3.408991,4.062202 -4.374158,4.673071 -0.349385,0.249533 -1.553923,1.362709 -1.559717,2.005985 0.831977,-0.688646 1.503738,-0.664341 2.067393,-0.934937 -0.03476,0.774523 -2.335716,2.159917 -2.055806,3.25527 0.588756,-0.557399 2.312541,-1.46155 3.215954,-2.586069 0.51347,2.109687 -4.028642,3.971463 -3.430223,5.433013 0.515395,-0.931698 3.210159,-1.699741 4.283433,-2.945785 -0.06757,1.343265 -0.918851,2.746481 -2.517165,3.864519 -1.839629,1.218499 -1.401445,2.477506 -0.895694,2.942544 0.33589,-1.861774 2.393638,-2.368942 3.658006,-4.264745 0.277968,0.964105 -0.453623,2.524496 -1.339653,3.749476 -0.864799,1.043502 -0.826184,1.866635 -0.05206,3.219622 0.772148,1.349748 1.880168,3.699245 1.553941,4.877235 -0.177562,0.617351 -0.108035,1.55067 -0.673686,2.386767 -1.316496,1.458309 -1.83576,2.728658 -4.227473,0.299764 -0.965167,-1.12614 -1.3744,-1.967097 -2.505578,-1.949275 0.581037,1.574974 -0.243221,3.091616 -0.243221,4.216134 0,1.12614 0.02514,1.950894 1.571287,2.176122 1.546222,0.225229 1.907195,1.652751 2.679326,1.427523 0.349402,-0.178241 0.712301,-0.06158 1.084861,-0.202543 0.03476,0.453696 0.164014,1.143964 -0.573317,1.36919 -0.967111,0.450457 -0.378355,0.523372 0.0089,1.200675 0.189186,0.405086 0.09841,0.970586 0.14476,1.558771 -0.03084,0.724294 0.534703,1.152065 1.152428,1.254146 -0.430482,0.623831 -1.285618,0.776145 -1.885962,0.183098 0.443978,1.419421 -0.17364,1.690019 -0.947785,1.012715 0.652454,1.165028 -0.511545,1.305997 -1.478656,0.855543 0.459417,0.648137 0.988344,1.32868 0.10037,1.749969 -0.907264,1.109937 -0.891825,0.251155 -1.277899,-0.42453 -0.384131,-0.675683 -0.73931,1.372432 -1.111871,1.665715 -0.613857,0.0875 -0.820408,-1.011095 -1.594464,-1.236323 -0.443978,-0.353234 0.237428,-0.609249 0.509602,-0.900912 0.33974,-0.293281 -0.243222,-0.416427 -1.017295,0.03403 -0.774056,0.450457 -1.055893,0.364578 -0.799157,-0.920354 0.237427,-1.537706 0.582961,-1.088871 1.337728,-0.633555 0.777924,-0.210645 -1.208389,-0.874985 0.108035,-1.921728 0.135133,-0.704849 0.548216,-1.404837 1.268236,0.01622 0.967093,0.450457 0.822316,-0.928457 0.629296,-1.60414 -0.193037,-0.674063 -1.837703,-1.830987 -2.229553,-2.835602 -0.552084,1.631688 -1.146634,2.5407 -2.733378,3.01384 0.16027,-0.863643 -0.06168,-1.549049 0.403456,-2.114549 0.579093,-1.126138 -0.183393,-1.574974 -0.183393,-2.699492 -0.859004,-1.17961 -0.310788,-3.545312 -0.08682,-4.799458 l 0,0 0,0 0,0 0,0 0,0 0,0 0,0 0,0 0,0 0,0 0,0 0,0 0,0 0,0 0,0 0,0 0,0 0,0 0,0 0,0 0,0 0,0 0,0 0,0 0,0 0,0 0,0 0,0 0,0 0,0 0,0 0,0 0,0 0,0 0,0 0,0 0,0 0,0 0,0 0,0 0,0 0,0 0,0 0,0 0,0 0,0 0,0 0,0 0,0 0,0 0,0 0,0 0,0 0,0 0,0 0,0 0,0 0,0 0,0 0,0 z"
       inkscape:connector-curvature="0"
       style="fill:#ffffff;stroke:#000000;stroke-width:0.53056967" /><path
       id="path2105"
       sodipodi:nodetypes="cccccscccccc"
       d="m 24.413899,11.257219 c -0.953597,-0.463417 -1.704495,-0.714571 -2.658092,-0.622211 -0.953598,0.09074 -2.148474,-0.37106 -2.387845,-1.0208166 -0.237427,-0.6481378 -0.795288,-1.759693 -1.509515,-1.8536728 -0.357122,-0.045371 -0.89375,0.2446711 -1.185249,0.5865631 0.262529,0.1831 0.488387,0.7226732 0.687218,1.1860923 0.503808,1.116417 1.772044,3.417305 3.441793,2.305748 0.637015,-0.463417 1.828041,-0.277078 2.306765,-0.186339 0.476798,0.09399 1.385987,-0.304625 1.304925,-0.395364 l 0,0 0,0 0,0 0,0 z"
       inkscape:connector-curvature="0"
       style="fill:#ffffff;stroke:#000000;stroke-width:0.53056967" /><path
       id="path2106"
       d="m 20.404565,29.174979 c 0.237428,1.205537 0.555935,2.96685 1.272105,3.614987 0.714226,0.648137 2.385901,1.482614 3.578852,1.761315 1.194893,0.277078 2.227627,1.297894 2.627197,2.224731 0.397662,0.926836 0.158309,2.224732 0.158309,2.224732"
       inkscape:connector-curvature="0"
       style="fill:none;stroke:#000000;stroke-width:0.53056967" /><path
       id="path2107"
       sodipodi:nodetypes="cscccccccccccccccc"
       d="m 20.802209,17.403184 c -1.194876,0.555776 -1.831891,1.890939 -2.785488,2.727037 -0.567524,0.479622 -1.725728,1.398356 -2.306765,1.536087 0.56173,0.440733 1.851216,0.810171 2.889727,0.168524 -0.370618,1.890941 0.54244,1.873117 0.532777,4.836725 0.608063,-0.08425 1.272105,-1.668954 1.430396,-2.501811 0.158309,-0.834477 -0.09645,-1.670573 0.204607,-2.368942 -0.0071,0.737257 0.194963,1.341646 0.592625,2.083763 0.399587,0.742116 0.474855,1.490716 0.237428,2.232834 0.992194,-0.962485 0.779867,-2.936064 0.766354,-4.182109 0.484518,0.549298 0.592607,2.4451 0.26638,3.71869 0.45364,-0.162035 0.922702,-0.495825 1.150485,-2.061078 0.364841,0.717812 0.791438,3.072173 0.600344,3.636052 0.675612,0.01783 1.266311,-1.12452 1.20067,-2.417552 0.123545,0.118286 0.463285,0.547676 0.588756,0.703228 0.140837,-0.494205 -0.06364,-1.393495 -0.01604,-2.085383 0.152426,0.173373 0.486443,0.447216 0.609988,0.669203 0.175602,0.200922 0.590682,0.860402 1.194876,1.163407"
       inkscape:connector-curvature="0"
       style="fill:none;stroke:#000000;stroke-width:0.53056967" /><path
       id="path2108"
       sodipodi:nodetypes="cc"
       d="m 29.07567,13.323158 c 1.034677,0.742117 2.050029,1.923348 2.050029,5.632314"
       inkscape:connector-curvature="0"
       style="fill:none;stroke:#000000;stroke-width:0.53056967" /><path
       id="path831"
       sodipodi:nodetypes="ccssc"
       d="m 28.201227,14.992112 c 1.113814,1.017575 1.511458,2.224731 1.353185,3.707346 -0.16027,1.482614 -0.720021,1.36271 -0.71617,2.59417 -0.0107,0.541195 0.476799,1.422662 0.795306,1.947652 0.364842,0.586565 0.569449,1.560392 0.46136,2.090245"
       inkscape:connector-curvature="0"
       style="fill:none;stroke:#000000;stroke-width:0.53056967" /><path
       id="path832"
       sodipodi:nodetypes="csc"
       d="m 29.504209,18.978156 c 0.07916,1.203916 0.0107,1.850434 0.366767,2.594172 0.320433,0.622211 0.637015,2.767547 0.173819,4.031414"
       inkscape:connector-curvature="0"
       style="fill:none;stroke:#000000;stroke-width:0.53056967" /><path
       id="path2111"
       sodipodi:nodetypes="ccc"
       d="m 27.403995,18.699458 c 0.71617,1.111555 0,1.388635 -0.239353,2.317091 -0.239371,0.926837 0.530834,1.396736 0.868649,2.495329"
       inkscape:connector-curvature="0"
       style="fill:none;stroke:#000000;stroke-width:0.53056967" /><path
       id="path2112"
       sodipodi:nodetypes="ccc"
       d="m 26.529552,17.86336 c 0.16027,1.299517 0,1.762934 -0.316582,2.597411 -0.318508,0.834477 -0.638941,2.082142 -0.08486,2.97009"
       inkscape:connector-curvature="0"
       style="fill:none;stroke:#000000;stroke-width:0.53056967" /><path
       id="path2113"
       sodipodi:nodetypes="cc"
       d="m 25.255522,20.276052 c -0.476799,1.390256 -0.482593,3.431888 0.312713,4.545064"
       inkscape:connector-curvature="0"
       style="fill:none;stroke:#000000;stroke-width:0.53056967" /><path
       id="path2114"
       sodipodi:nodetypes="cc"
       d="m 24.699586,18.791817 c -1.034659,1.113177 -1.310701,3.448092 -0.878311,4.903161"
       inkscape:connector-curvature="0"
       style="fill:none;stroke:#000000;stroke-width:0.53056967" /><path
       id="path837"
       sodipodi:nodetypes="cc"
       d="m 21.67667,20.089713 c -0.397662,0.557397 -0.791456,1.200674 -0.913057,1.725666"
       inkscape:connector-curvature="0"
       style="fill:none;stroke:#000000;stroke-width:0.53056967" /><path
       id="path838"
       sodipodi:nodetypes="csc"
       d="m 21.67667,18.143679 c -0.397662,0.834477 -1.331952,1.540949 -2.048104,1.913627 -0.716152,0.371058 -1.055892,1.793721 -1.055892,1.793721"
       inkscape:connector-curvature="0"
       style="fill:none;stroke:#000000;stroke-width:0.53056967" /><path
       id="path839"
       sodipodi:nodetypes="csc"
       d="m 35.600244,11.931282 c -0.868649,1.124519 -1.248929,1.448587 -1.748886,2.224732 -0.482592,0.727535 -0.590699,2.082142 -0.100369,2.879351"
       inkscape:connector-curvature="0"
       style="fill:none;stroke:#666666;stroke-width:0.53056967" /><path
       id="path2118"
       d="m 35.281737,20.460771 c -0.478725,0.555778 -0.637016,1.574974 -0.637016,1.761314"
       inkscape:connector-curvature="0"
       style="fill:none;stroke:#666666;stroke-width:0.53056967" /><path
       id="path2119"
       d="m 34.882149,22.871843 c -0.397644,0.742118 -0.476781,2.780509 -0.476781,2.780509"
       inkscape:connector-curvature="0"
       style="fill:none;stroke:#666666;stroke-width:0.53056967" /><path
       id="path2120"
       d="m 35.758535,25.744712 c -0.955523,1.020816 -0.795306,2.411071 -0.795306,2.411071"
       inkscape:connector-curvature="0"
       style="fill:none;stroke:#666666;stroke-width:0.53056967" /><path
       id="path2121"
       sodipodi:nodetypes="cc"
       d="m 36.793195,29.596268 c -0.16027,0.286801 0.478724,1.417801 0.953597,1.340025"
       inkscape:connector-curvature="0"
       style="fill:none;stroke:#666666;stroke-width:0.53056967" /><path
       id="path844"
       sodipodi:nodetypes="cc"
       d="m 39.951244,39.243795 c -0.953597,0.555778 -1.434247,0.753459 -2.387844,0.27708"
       inkscape:connector-curvature="0"
       style="fill:none;stroke:#666666;stroke-width:0.53056967" /><path
       id="path845"
       sodipodi:nodetypes="ccc"
       d="m 35.75661,46.426779 c 0.637015,0.834477 0.480649,3.047866 -0.474873,3.880723 -0.955523,0.834477 -0.478725,0.186339 -0.478725,0.186339"
       inkscape:connector-curvature="0"
       style="fill:#ffffff;stroke:#666666;stroke-width:0.53056967" /><path
       id="path2124"
       sodipodi:nodetypes="cc"
       d="m 33.007793,37.675303 c -0.239371,1.296275 -1.227697,2.158298 -1.227697,2.158298"
       inkscape:connector-curvature="0"
       style="fill:none;stroke:#666666;stroke-width:0.53056967" /><path
       id="path2125"
       sodipodi:nodetypes="cc"
       d="m 33.3263,38.271589 c -0.476798,1.668954 -1.704495,2.581208 -1.704495,2.581208"
       inkscape:connector-curvature="0"
       style="fill:none;stroke:#666666;stroke-width:0.53056967" /><path
       id="path2126"
       sodipodi:nodetypes="cc"
       d="m 33.179597,40.298639 c -0.874443,1.480994 -2.034591,2.409451 -2.034591,2.409451"
       inkscape:connector-curvature="0"
       style="fill:none;stroke:#666666;stroke-width:0.53056967" /><path
       id="path2127"
       sodipodi:nodetypes="cc"
       d="m 32.870734,41.86065 c -0.555935,1.019196 -1.248929,1.589558 -1.248929,1.589558"
       inkscape:connector-curvature="0"
       style="fill:none;stroke:#666666;stroke-width:0.53056967" /><path
       id="path850"
       d="m 32.974972,42.986789 c -0.557861,0.742117 -1.27403,1.205536 -1.27403,1.205536"
       inkscape:connector-curvature="0"
       style="fill:none;stroke:#666666;stroke-width:0.53056967" /><path
       id="path851"
       d="m 33.451771,43.727286 c -0.397644,0.649758 -0.716152,1.390255 -0.716152,1.390255"
       inkscape:connector-curvature="0"
       style="fill:none;stroke:#666666;stroke-width:0.53056967" /><path
       id="path2130"
       sodipodi:nodetypes="ccc"
       d="m 22.390896,40.204659 c 0.638941,1.113175 1.671675,0.928457 1.592538,1.853673 -0.218138,1.077529 0.09074,2.490468 0.337798,3.023561"
       inkscape:connector-curvature="0"
       style="fill:none;stroke:#666666;stroke-width:0.53056967" /><path
       id="path2131"
       d="m 22.311742,41.504175 c 0.557879,0.740496 0.557879,0.832857 0.557879,1.482614 0,0.649758 0.478724,1.482614 0.478724,1.482614"
       inkscape:connector-curvature="0"
       style="fill:none;stroke:#666666;stroke-width:0.53056967" /><path
       id="path2132"
       d="m 21.199871,42.523371 c 0.239353,0.554158 0.874443,1.388633 0.874443,1.388633"
       inkscape:connector-curvature="0"
       style="fill:none;stroke:#666666;stroke-width:0.53056967" /><path
       id="path2133"
       d="m 19.607333,43.357848 c 0.318508,0.369438 0.797232,0.740497 0.797232,0.740497"
       inkscape:connector-curvature="0"
       style="fill:none;stroke:#666666;stroke-width:0.53056967" /><path
       id="path856"
       sodipodi:nodetypes="ccc"
       d="m 22.869621,9.7081713 c 0.478724,-0.6481378 1.681319,-0.9543836 2.078981,-0.4909645 0.397644,0.4634173 1.660087,2.0659392 1.660087,2.0659392"
       inkscape:connector-curvature="0"
       style="fill:none;stroke:#666666;stroke-width:0.53056967" /><path
       id="path857"
       d="m 29.315041,8.9660536 c 0.795306,-0.8344771 1.911045,-0.928457 1.911045,-0.928457 0,0 0.397644,1.299515 0.07916,1.9476528 -0.318508,0.6497586 -1.990183,0.6497586 -1.990183,0.6497586"
       inkscape:connector-curvature="0"
       style="fill:none;stroke:#000000;stroke-width:0.53056967" /><path
       id="path2136"
       d="m 26.689769,24.446817 c -0.07915,1.205535 -0.795307,3.708966 -0.795307,3.708966"
       inkscape:connector-curvature="0"
       style="fill:none;stroke:#666666;stroke-width:0.53056967" /><path
       id="path2137"
       d="m 27.166567,25.188935 c -0.07915,1.390254 -0.795306,3.430267 -0.795306,3.430267"
       inkscape:connector-curvature="0"
       style="fill:none;stroke:#666666;stroke-width:0.53056967" /><path
       id="path2138"
       d="m 27.643366,26.485209 c -0.07916,1.391876 -0.638941,2.68815 -0.638941,2.68815"
       inkscape:connector-curvature="0"
       style="fill:none;stroke:#666666;stroke-width:0.53056967" /><path
       id="path2139"
       d="m 28.201227,28.154163 c -0.316565,1.297896 -0.635072,2.130753 -0.635072,2.130753"
       inkscape:connector-curvature="0"
       style="fill:none;stroke:#666666;stroke-width:0.53056967" /><path
       id="path862"
       d="m 28.519734,29.452059 c -0.158309,0.926836 -0.555935,1.853673 -0.555935,1.853673"
       inkscape:connector-curvature="0"
       style="fill:none;stroke:#666666;stroke-width:0.53056967" /><path
       id="path863"
       d="m 28.917396,30.286536 c 0,0.557397 -0.237445,1.205535 -0.237445,1.205535"
       inkscape:connector-curvature="0"
       style="fill:none;stroke:#666666;stroke-width:0.53056967" /><path
       id="path2142"
       sodipodi:nodetypes="cccc"
       d="m 18.335228,25.188935 c -0.16027,1.576593 -0.54629,1.916866 -0.967093,1.218497 0.05598,0.727535 -0.297275,1.200676 -0.932364,0.899291 -0.16027,0.252774 -0.567524,0.570362 -0.567524,0.570362"
       inkscape:connector-curvature="0"
       style="fill:none;stroke:#666666;stroke-width:0.53056967" /><path
       id="path2143"
       sodipodi:nodetypes="cc"
       d="m 15.072941,27.506025 c -0.16027,0.742118 -0.239353,1.761314 -0.874443,1.576595"
       inkscape:connector-curvature="0"
       style="fill:none;stroke:#666666;stroke-width:0.53056967" /><path
       id="path2144"
       d="m 11.094502,15.918948 c 0.637015,0.09074 1.113814,0.09074 1.113814,0.09074"
       inkscape:connector-curvature="0"
       style="fill:none;stroke:#666666;stroke-width:0.53056967" /><path
       id="path2145"
       d="m 11.571301,17.030503 c 1.272105,0.18634 1.272105,0.18634 1.272105,0.18634"
       inkscape:connector-curvature="0"
       style="fill:none;stroke:#666666;stroke-width:0.53056967" /><path
       id="path868"
       d="m 12.366607,18.05132 c 0.874443,0.555778 1.434247,0.27708 1.434247,0.27708"
       inkscape:connector-curvature="0"
       style="fill:none;stroke:#666666;stroke-width:0.53056967" /><path
       id="path869"
       d="m 13.161913,19.162877 c 0.638941,0.371058 1.353167,0 1.353167,0"
       inkscape:connector-curvature="0"
       style="fill:none;stroke:#666666;stroke-width:0.53056967" /><path
       id="path2148"
       d="m 14.356789,20.460771 c 0.955523,0.184719 1.434247,-0.465038 1.434247,-0.465038"
       inkscape:connector-curvature="0"
       style="fill:none;stroke:#666666;stroke-width:0.53056967" /><path
       id="path2149"
       sodipodi:nodetypes="ccc"
       d="m 18.348742,17.278416 c -0.276043,0.259255 -0.559804,0.675685 -0.52119,1.022436 0.397644,0 1.671675,0.137736 1.671675,0.137736"
       inkscape:connector-curvature="0"
       style="fill:none;stroke:#000000;stroke-width:0.53056967" /><path
       id="path2150"
       d="M 25.655109,39.833601 C 25.257447,38.258627 23.506636,36.403333 23.506636,36.403333"
       inkscape:connector-curvature="0"
       style="fill:none;stroke:#666666;stroke-width:0.53056967" /><path
       id="path2151"
       d="m 24.460215,39.833601 c -0.16027,-1.205537 -1.909102,-3.337908 -1.909102,-3.337908"
       inkscape:connector-curvature="0"
       style="fill:none;stroke:#666666;stroke-width:0.53056967" /><path
       id="path874"
       d="m 23.585772,39.464162 c -0.07915,-0.742118 -1.829965,-2.68815 -1.829965,-2.68815"
       inkscape:connector-curvature="0"
       style="fill:none;stroke:#666666;stroke-width:0.53056967" /><path
       id="path875"
       d="M 23.029837,39.279443 C 22.63025,38.629684 21.199871,37.42577 21.199871,37.42577"
       inkscape:connector-curvature="0"
       style="fill:none;stroke:#666666;stroke-width:0.53056967" /><path
       id="path2154"
       d="m 22.311742,39.741241 c 0.07915,-0.648137 -0.714226,-1.020818 -0.714226,-1.020818"
       inkscape:connector-curvature="0"
       style="fill:none;stroke:#666666;stroke-width:0.53056967" /><path
       id="path2155"
       d="M 27.961874,38.444966 C 26.925271,39.000744 25.73232,38.166267 25.574029,37.05309 25.41572,35.941535 23.745989,35.570477 23.745989,35.570477"
       inkscape:connector-curvature="0"
       style="fill:none;stroke:#666666;stroke-width:0.53056967" /><path
       id="path2156"
       d="m 25.255522,13.229178 c 0.16027,0.926836 0.397644,1.947653 0.16027,2.597411 -0.239353,0.649756 1.430396,-0.928457 1.19295,-1.668954 -0.239353,-0.740497 0.63509,0.371058 0.395737,1.205535 -0.237446,0.834477 1.194876,-1.113176 1.036585,-2.040012 -0.158309,-0.926837 0.476798,-0.277078 0.476798,0.555778 0,0.832857 0.716152,-1.111557 0.557861,-1.574974 -0.158309,-0.463419 -0.16027,-0.463419 -0.16027,-0.463419"
       inkscape:connector-curvature="0"
       style="fill:none;stroke:#000000;stroke-width:0.53056967" /><path
       id="path880"
       sodipodi:nodetypes="csc"
       d="m 27.357661,6.1029063 c 0.357122,0.4358719 0.793381,0.4229095 1.192968,0.3354117 0.39957,-0.08912 1.494077,-0.7550801 1.631135,-0.8555421"
       inkscape:connector-curvature="0"
       style="fill:none;stroke:#666666;stroke-width:0.53056967" /><path
       id="path881"
       d="m 28.996533,7.8544984 c 0.397644,-0.557399 1.671675,-0.6481378 1.671675,-0.6481378"
       inkscape:connector-curvature="0"
       style="fill:none;stroke:#666666;stroke-width:0.53056967" /><path
       id="path882"
       sodipodi:nodetypes="cccccc"
       d="m 13.019061,10.225061 c 1.154354,-2.0027456 -0.474856,-4.3344206 -1.191025,-4.4267799 0.158309,0.6497583 0.716169,1.6689541 0.07915,2.7805093 0.555936,0.7421177 0.795289,1.2654891 1.111871,1.6349286 l 0,0 0,0.01141 0,0 z"
       inkscape:connector-curvature="0"
       style="fill:#ffffff;stroke:#000000;stroke-width:0.53056967" /><path
       id="path883"
       sodipodi:nodetypes="cccc"
       d="M 10.700709,7.5385313 C 10.160212,5.2052358 7.6835862,5.2036153 7.1411642,5.7561527 c 0.519264,0.3013842 1.5384847,0.5104073 1.814527,1.8083034 0.845491,0.022695 1.2952628,-0.00162 1.7450178,-0.025921 l 0,0 z"
       inkscape:connector-curvature="0"
       style="fill:#ffffff;stroke:#000000;stroke-width:0.53056967" /><path
       id="path884"
       sodipodi:nodetypes="ccccccc"
       d="M 7.6700729,9.4570181 C 5.3980544,8.6209205 4.5487127,10.097053 4.4039349,10.920188 4.9733836,10.797036 5.8960858,10.247744 6.7859674,11.090317 7.4712419,10.515094 7.3264641,9.8102449 7.6739415,9.4764537 l -0.00357,-0.01945 0,0 0,0 0,0 z"
       inkscape:connector-curvature="0"
       style="fill:#ffffff;stroke:#000000;stroke-width:0.53056967" /><path
       id="path885"
       sodipodi:nodetypes="cccccc"
       d="m 14.177265,40.11554 c -1.636928,-1.485856 -3.775757,0.158791 -3.764169,1.074289 0.571374,-0.124775 1.735373,-0.429392 2.627198,0.413186 0.685274,-0.575221 0.789512,-1.153683 1.136971,-1.487475 l 0,0 0,0 0,0 z"
       inkscape:connector-curvature="0"
       style="fill:#ffffff;stroke:#000000;stroke-width:0.53056967" /><path
       id="path886"
       sodipodi:nodetypes="cccc"
       d="m 10.054049,25.052825 c -1.3203468,-1.866635 -3.5769267,-0.677304 -3.8742016,0.0875 0.5791112,0.0243 1.5828754,-0.27546 2.2932511,0.774522 0.7779245,-0.38564 1.1794373,-0.625452 1.5809505,-0.862022 l 0,0 z"
       inkscape:connector-curvature="0"
       style="fill:#ffffff;stroke:#000000;stroke-width:0.53056967" /><path
       id="path887"
       sodipodi:nodetypes="cccccc"
       d="m 7.5986556,27.494683 c -2.4399543,-1.127759 -2.9669377,-0.0016 -3.2275413,0.781005 0.577168,-0.01462 1.6813372,-0.166902 2.4418797,0.836098 0.758635,-0.437493 0.4459213,-1.207156 0.7856616,-1.617103 l 0,0 0,0 0,0 z"
       inkscape:connector-curvature="0"
       style="fill:#ffffff;stroke:#000000;stroke-width:0.53056967" /><path
       id="path888"
       sodipodi:nodetypes="ccccc"
       d="M 6.8303759,31.169622 C 4.940563,31.446702 4.8073731,33.251764 5.0216428,34.052214 5.4675463,33.622824 6.0466575,32.618209 7.1759101,32.85154 7.5349576,31.96035 6.6643655,31.655727 6.8303759,31.169622 l 0,0 0,0 z"
       inkscape:connector-curvature="0"
       style="fill:#ffffff;stroke:#000000;stroke-width:0.53056967" /><path
       id="path889"
       sodipodi:nodetypes="cccccc"
       d="M 11.403365,43.121278 C 9.3514101,42.750218 8.9035634,44.92634 9.1178331,45.72679 9.5637366,45.29578 10.221984,44.756205 11.351237,44.989534 11.71221,44.098345 11.23928,43.610622 11.403294,43.121278 l 0,0 0,0 0,0 z"
       inkscape:connector-curvature="0"
       style="fill:#ffffff;stroke:#000000;stroke-width:0.53056967" /><path
       id="path890"
       sodipodi:nodetypes="cccccc"
       d="m 12.548056,47.198063 c -1.947717,0.827995 -1.497945,3.428647 -0.976755,4.007109 0.212344,-0.628693 0.625427,-1.8877 1.712214,-2.320333 -0.05598,-0.983547 -0.675612,-1.168266 -0.735459,-1.686776 l 0,0 0,0 0,0 z"
       inkscape:connector-curvature="0"
       style="fill:#ffffff;stroke:#000000;stroke-width:0.53056967" /><path
       id="path891"
       sodipodi:nodetypes="ccccc"
       d="m 31.25117,49.422794 c -1.80294,-1.195814 -2.961144,0.443974 -3.005535,1.283313 0.548216,-0.218748 1.136972,-0.662721 2.121447,0.02268 0.609988,-0.683784 0.582962,-0.917115 0.884088,-1.305997 l 0,0 0,0 z"
       inkscape:connector-curvature="0"
       style="fill:#ffffff;stroke:#000000;stroke-width:0.53056967" /><path
       id="path892"
       sodipodi:nodetypes="ccccccccc"
       d="m 29.726198,51.783635 c -1.802939,-0.716191 -3.078895,1.074288 -3.063456,1.912006 0.530852,-0.270598 1.563586,-0.768044 2.594395,-0.179859 0.559786,-0.740497 0.194962,-1.221738 0.469061,-1.639788 l 0,0 -0.0089,-0.01141 0.0089,-0.08103 0,0 0,0 0,0 z"
       inkscape:connector-curvature="0"
       style="fill:#ffffff;stroke:#000000;stroke-width:0.53056967" /><path
       id="path893"
       sodipodi:nodetypes="cccccc"
       d="m 30.926886,54.560905 c -1.463217,1.712703 -0.418895,3.768918 0.262529,4.039516 -0.03673,-0.674063 0.0036,-1.853673 0.828109,-2.78213 -0.405364,-0.865263 -0.84936,-0.816653 -1.090638,-1.257386 l 0,0 0,0 0,0 z"
       inkscape:connector-curvature="0"
       style="fill:#ffffff;stroke:#000000;stroke-width:0.53056967" /><path
       id="path894"
       sodipodi:nodetypes="cccccc"
       d="m 35.414926,54.12341 c 0.760561,2.247419 -0.673686,3.229346 -1.391781,3.161291 0.262529,-0.601146 0.656322,-1.014334 0.21427,-2.249037 0.669835,-0.604387 0.804968,-0.61897 1.177511,-0.912254 l 0,0 0,0 0,0 z"
       inkscape:connector-curvature="0"
       style="fill:#ffffff;stroke:#000000;stroke-width:0.53056967" /><path
       id="path895"
       sodipodi:nodetypes="ccccccc"
       d="m 17.41832,48.562392 c -0.268323,2.398108 -2.407134,2.87773 -3.005552,2.414311 0.478724,-0.379161 1.245078,-1.267108 1.368623,-2.597409 0.835829,-0.152319 1.187157,0.230088 1.636929,0.183098 l 0,0 0,0 0,0 0,0 z"
       inkscape:connector-curvature="0"
       style="fill:#ffffff;stroke:#000000;stroke-width:0.53056967" /><path
       id="path898"
       sodipodi:nodetypes="ccccc"
       d="M 11.436185,33.173988 C 11.167863,35.568856 9.1101137,35.40196 8.5097699,34.938542 8.988494,34.559382 9.5000386,34.562623 9.6235838,33.23394 10.461355,33.081621 10.988339,33.21932 11.436185,33.17399 l 0,0 0,0 z"
       inkscape:connector-curvature="0"
       style="fill:#ffffff;stroke:#000000;stroke-width:0.53056967" /><path
       id="path899"
       sodipodi:nodetypes="cccc"
       d="M 7.9519092,15.244886 C 5.9115245,14.818735 5.6953294,11.941005 6.1219434,11.265322 c 0.3011257,0.575221 0.5694487,1.743489 1.702552,1.950893 0.092703,0.980307 0.1099962,1.503679 0.1274672,2.028671 l 0,0 z"
       inkscape:connector-curvature="0"
       style="fill:#ffffff;stroke:#000000;stroke-width:0.53056967" /><path
       id="path900"
       sodipodi:nodetypes="cc"
       d="m 18.640223,22.688745 c -0.884088,0.160412 -2.003696,0.476379 -2.548043,1.033778"
       inkscape:connector-curvature="0"
       style="fill:none;stroke:#000000;stroke-width:0.53056967" /><path
       id="path901"
       sodipodi:nodetypes="cc"
       d="m 24.054852,6.1158688 c -0.33974,2.6962525 1.225771,2.4596823 1.565511,0.1571679"
       inkscape:connector-curvature="0"
       style="fill:none;stroke:#000000;stroke-width:0.53056967" /><path
       id="path1524"
       sodipodi:nodetypes="cc"
       d="m 24.045189,6.2584591 c 0.341684,0.1587903 1.194894,0.3159672 1.492169,0.1069477"
       inkscape:connector-curvature="0"
       style="fill:none;stroke:#000000;stroke-width:0.53056967" /></g><g
     transform="matrix(1.0973918,0,0,0.97466402,247.83278,78.908086)"
     id="g19931"
     style="fill:#ed2939;fill-opacity:1;stroke:#ed2939;stroke-opacity:1"><path
       style="color:#000000;display:inline;overflow:visible;visibility:visible;fill:#ed2939;fill-opacity:1;fill-rule:nonzero;stroke:#ed2939;stroke-width:2.28399849;stroke-linecap:butt;stroke-linejoin:miter;stroke-miterlimit:4;stroke-dasharray:none;stroke-dashoffset:0;stroke-opacity:1;marker:none;marker-start:none;marker-mid:none;marker-end:none"
       d="m 94.71875,1.5 0,13 -13,0 0,15 13,0 0,21.5625 -1.5625,0 c -4.118861,0.249235 -8.197393,0.701361 -12.21875,1.28125 l -2.75,-15.625 C 72.160044,37.652282 66.247939,38.958811 60.46875,40.5625 L 63.1875,56.03125 C 59.431133,57.056744 55.725093,58.192115 52.09375,59.5 l -5.25,-14.46875 C 41.149699,47.196911 35.602869,49.677526 30.25,52.46875 L 53.28125,115.75 70.3125,109.5625 57.40625,74.0625 c 2.800774,-0.947382 5.623341,-1.821766 8.5,-2.59375 0.121913,-0.03267 0.252961,-0.06139 0.375,-0.09375 1.142446,-0.303255 2.283836,-0.60011 3.4375,-0.875 1.138046,-0.271171 2.288909,-0.506832 3.4375,-0.75 0.05096,-0.01079 0.105269,-0.02052 0.15625,-0.03125 0.161735,-0.03406 0.306767,-0.06027 0.46875,-0.09375 0.8539,-0.176648 1.734318,-0.370198 2.59375,-0.53125 0.280204,-0.0524 0.562964,-0.105528 0.84375,-0.15625 0.885114,-0.160268 1.765493,-0.293949 2.65625,-0.4375 0.143712,-0.02312 0.26243,-0.03981 0.40625,-0.0625 0.187637,-0.02961 0.405863,-0.06495 0.59375,-0.09375 0.671028,-0.103182 1.325885,-0.187642 2,-0.28125 0.240163,-0.03304 0.478192,-0.06199 0.71875,-0.09375 0.887166,-0.118487 1.763917,-0.241998 2.65625,-0.34375 0.361209,-0.04051 0.731716,-0.08725 1.09375,-0.125 0.848371,-0.09007 1.709655,-0.143965 2.5625,-0.21875 4.055452,-0.355627 8.163872,-0.5625 12.3125,-0.5625 3.04519,-3e-6 6.06672,0.08873 9.0625,0.28125 0.21483,0.0138 0.41043,0.04773 0.625,0.0625 0.41895,0.0288 0.83218,0.06127 1.25,0.09375 0.38214,0.02974 0.77497,0.06094 1.15625,0.09375 0.0152,0.0013 0.0474,-0.0013 0.0625,0 1.49429,0.128964 2.95749,0.261816 4.4375,0.4375 0.0868,0.01029 0.16325,0.0208 0.25,0.03125 0.0506,0.0061 0.10568,0.02509 0.15625,0.03125 0.73953,0.09001 1.48274,0.179694 2.21875,0.28125 1.61054,0.22223 3.21861,0.473093 4.8125,0.75 2.23219,0.3878 4.46153,0.820195 6.65625,1.3125 1.09736,0.246152 2.19375,0.509499 3.28125,0.78125 3.6798,0.919532 7.28512,1.983624 10.84375,3.1875 l -12.90625,35.5 17,6.1875 23.03125,-63.3125 c -5.34248,-2.78508 -10.88019,-5.244227 -16.5625,-7.40625 l -5.28125,14.5 C 148.67752,58.221414 144.97895,57.02709 141.21875,56 l 2.75,-15.4375 C 138.18477,38.957483 132.28264,37.652481 126.25,36.71875 l -2.78125,15.625 c -4.02161,-0.580493 -8.0683,-1.031761 -12.1875,-1.28125 l -1.5625,0 0,-21.5625 13,0 0,-15 -13,0 0,-13 -15,0 z"
       id="path1904"
       inkscape:connector-curvature="0" /><path
       style="display:inline;fill:#ed2939;fill-opacity:1;fill-rule:evenodd;stroke:#ed2939;stroke-width:2.28399849;stroke-linecap:butt;stroke-linejoin:miter;stroke-miterlimit:4;stroke-dasharray:none;stroke-opacity:1"
       d="M 46.000695,92.698912 C 21.685812,93.153986 2.630107,119.23847 2.7859933,147.16107 2.9749579,181.00908 25.597631,227.36272 83.752348,267.25631 141.90706,227.36272 164.54503,181.00908 164.734,147.16107 164.88976,119.2621 145.85755,93.195599 121.57078,92.698064 109.67919,92.454451 96.527842,98.340749 83.752348,113.14326 70.998942,98.366359 57.875404,92.476668 46.000695,92.698912 Z m 0.244842,18.699848 c 9.782158,-0.34715 22.332511,5.86143 37.506811,22.92338 40.464802,-45.498512 62.267102,-13.7834 62.694982,13.45103 0.43859,27.91685 -21.34437,67.02392 -62.694982,97.99821 C 42.40173,214.79709 20.618764,175.69002 21.057365,147.77317 21.324787,130.75165 29.94194,111.97734 46.245537,111.39876 Z"
       id="path13539"
       sodipodi:nodetypes="cscssccccscsc"
       inkscape:connector-curvature="0" /><path
       style="display:inline;fill:#ed2939;fill-opacity:1;fill-rule:evenodd;stroke:#ed2939;stroke-width:2.28399849;stroke-linecap:butt;stroke-linejoin:miter;stroke-miterlimit:4;stroke-dasharray:none;stroke-opacity:1"
       d="m 82.9058,92.698912 c -24.314888,0.455074 -43.370583,26.539558 -43.214702,54.462158 0.149761,26.8253 14.393282,61.50702 49.243948,94.60102 1.013403,-0.80797 2.012268,-1.61615 2.999321,-2.43313 0.159196,-0.13175 0.315852,-0.26589 0.474382,-0.39787 0.06726,-0.056 0.131799,-0.11228 0.198935,-0.16832 0.878333,-0.73321 1.743993,-1.46366 2.601451,-2.20359 0.189508,-0.16346 0.377704,-0.3259 0.566199,-0.48968 0.444448,-0.38633 0.877197,-0.77495 1.316028,-1.163 1.743905,-1.54212 3.454928,-3.10011 5.111088,-4.66731 -29.33483,-27.7592 -44.607875,-59.0496 -44.23998,-82.46602 0.267422,-17.02152 8.88457,-35.79583 25.188172,-36.37441 0.689016,-0.0245 1.395328,-0.0115 2.111767,0.0306 C 90.89526,105.22545 96.586605,100.73364 102.20245,97.70288 95.583367,94.126804 89.077496,92.583405 82.9058,92.698912 Z m 74.44742,0 c -11.59437,0.137738 -24.3195,6.104418 -36.69577,20.444348 -0.5055,-0.58571 -1.0084,-1.15594 -1.51496,-1.7139 -4.98476,0.29448 -10.63318,2.24285 -16.92474,6.3353 5.63503,3.67032 11.78239,9.07201 18.4397,16.55748 40.4648,-45.498512 62.26711,-13.7834 62.69499,13.45103 0.43858,27.91685 -21.34437,67.02392 -62.69499,97.99821 -1.76416,-1.32147 -3.49488,-2.65972 -5.1876,-4.00929 -1.03041,0.97794 -2.08568,1.96319 -3.15234,2.93811 -1.06941,0.97742 -2.15333,1.94891 -3.25947,2.9228 -2.21034,1.94607 -4.49669,3.88596 -6.85559,5.81501 5.70738,4.66975 11.85014,9.28743 18.455,13.8183 58.15472,-39.89359 80.79269,-86.24723 80.98166,-120.09524 0.15576,-27.89897 -18.88202,-53.964624 -43.16879,-54.462158 -0.37162,-0.0076 -0.74309,-0.0044 -1.1171,0 z"
       id="path13537"
       inkscape:connector-curvature="0" /></g></svg>