<?xml version="1.0" encoding="UTF-8"?>
<!-- Generator: Adobe Illustrator 16.0.0, SVG Export Plug-In . SVG Version: 6.00 Build 0)  -->
<svg id="svg1350" width="720" height="420" enable-background="new 0 0 359.109 216.006" version="1.1" viewBox="0 0 720 420" xml:space="preserve" xmlns="http://www.w3.org/2000/svg" xmlns:cc="http://creativecommons.org/ns#" xmlns:dc="http://purl.org/dc/elements/1.1/" xmlns:osb="http://www.openswatchbook.org/uri/2009/osb" xmlns:rdf="http://www.w3.org/1999/02/22-rdf-syntax-ns#" xmlns:xlink="http://www.w3.org/1999/xlink"><metadata id="metadata4507"><rdf:RDF><cc:Work rdf:about=""><dc:format>image/svg+xml</dc:format><dc:type rdf:resource="http://purl.org/dc/dcmitype/StillImage"/><dc:title/></cc:Work></rdf:RDF></metadata><defs id="defs4137"><path id="1" d="m-24-16.5c9 22 13 50 13 77h-7c-6-49-19-113-71-113-22 0-39 20-39 38 0 29 17 49 52 61-5-15-9-39 6-39 24 0 35 29 35 53h-3c-5 0-8 3-8 8s4 8 8 8h17c-8 21-22 29-33 35 17 8 37 0 41-5-1 6 0 22 2 33 1 9 5 14 11 21 6-7 10-12 11-21 2-11 3-27 2-33 4 5 24 13 41 5-11-6-25-14-33-35h17c5 0 8-3 8-8s-3-8-8-8h-3c0-24 11-53 35-53 15 0 11 24 6 39 35-12 52-32 52-61 0-18-17-38-39-38-52 0-65 64-71 113h-7c0-27 4-55 13-77 30-67 9-112-24-144-33 32-54 77-24 144z" fill="#ffd700"/></defs><g id="g7301" transform="translate(255.77 345.58)"/><rect id="rect4499" width="720" height="420" color="#000000" color-rendering="auto" enable-background="accumulate" fill="#fff" image-rendering="auto" shape-rendering="auto" solid-color="#000000" style="isolation:auto;mix-blend-mode:normal"/><use id="use4976" transform="matrix(.24404 0 0 .24404 359.92 124.58)" width="100%" height="100%" xlink:href="#1"/><use id="use4978" transform="matrix(.24404 0 0 .24404 359.92 295.42)" width="100%" height="100%" xlink:href="#1"/><path id="rect4309" d="m360 0h360v420h-360z" fill="#fff" fill-rule="evenodd"/><g id="g5993" fill-rule="evenodd"><path id="path3444" d="m451.35 86.853c7.1275 8.8417-12.804 12.36-2.0578 20.729 4.5829 2.8417 15.288-3.3098 5.8836-10.87-1.2152-0.64728 4.23-5.1169-3.8259-9.8591z"/><path id="path3446" d="m463.23 107.82c-1.783 0.16783-3.5015 1.2682-5.1239 4.076-2.0348 4.7072 6.9132 12.872 12.935 2.8346 0.4261-1.2249 6.4032 2.6981 9.7099-5.5211-5.6688 5.9551-11.467-1.1536-16.73-1.3894-0.25748-0.0116-0.53596-0.0241-0.79067-8e-5z"/><path id="path3448" d="m441.19 107.9c-5.2638 0.23479-11.063 7.3712-16.731 1.415 3.3051 8.2198 9.3463 4.298 9.7721 5.523 6.0199 10.038 14.906 1.8756 12.872-2.8321-1.8536-3.2092-3.8541-4.1978-5.9138-4.106z"/><path id="path3450" d="m453.05 113.63c-4.6373 21.061-13.261 35.97-22.649 46.69 3.9021-1.0697 8.3151-4.1028 12.556-6.764-2.5942 5.5226-5.2191 10.305-7.8133 15.178 1.5487-0.52481 6.483-5.4459 13.158-12.662 1.0454 9.9212 2.4709 14.61 4.5838 21.337 1.6833-6.7162 2.9037-11.303 4.2401-21.51 4.0233 4.5648 7.9014 9.1534 13.345 13.069l-7.6205-15.7c3.9464 2.5231 8.3384 5.821 12.524 7.229-9.9222-11.256-18.319-25.804-22.324-46.867z"/><path id="path3568" d="m451.35 242.59c7.1275 8.8417-12.804 12.36-2.0578 20.729 4.5829 2.8417 15.288-3.3098 5.8836-10.87-1.2152-0.64728 4.23-5.1169-3.8259-9.8591z"/><path id="path3570" d="m463.23 263.56c-1.783 0.16783-3.5015 1.2682-5.1239 4.076-2.0348 4.7072 6.9132 12.872 12.935 2.8346 0.4261-1.2249 6.4032 2.6981 9.7099-5.5211-5.6688 5.9551-11.467-1.1536-16.73-1.3894-0.25748-0.0116-0.53596-0.024-0.79067-8e-5z"/><path id="path3572" d="m441.19 263.64c-5.2638 0.23479-11.063 7.3712-16.731 1.415 3.3051 8.2198 9.3463 4.298 9.7721 5.523 6.0199 10.038 14.906 1.8756 12.872-2.8321-1.8536-3.2092-3.8541-4.1978-5.9138-4.106z"/><path id="path3574" d="m453.05 269.37c-4.6373 21.061-13.261 35.97-22.649 46.69 3.9021-1.0697 8.3151-4.1028 12.556-6.764-2.5942 5.5226-5.2191 10.305-7.8133 15.178 1.5487-0.52481 6.483-5.4459 13.158-12.662 1.0454 9.9212 2.4709 14.61 4.5838 21.337 1.6833-6.7162 2.9037-11.303 4.2401-21.51 4.0233 4.5648 7.9014 9.1534 13.345 13.069l-7.6205-15.7c3.9464 2.5231 8.3384 5.821 12.524 7.229-9.9222-11.256-18.319-25.804-22.324-46.867z"/><path id="path3454" d="m552.14 107.9c-5.2638 0.23479-11.063 7.3712-16.731 1.415 3.3051 8.2198 9.3463 4.298 9.7721 5.523 6.0199 10.038 14.906 1.8756 12.872-2.8321-1.8536-3.2092-3.8541-4.1978-5.9138-4.106z"/><path id="path3456" d="m562.29 86.853c7.1275 8.8417-12.804 12.36-2.0578 20.729 4.5829 2.8417 15.288-3.3098 5.8836-10.87-1.2152-0.64728 4.2301-5.1169-3.8259-9.8591z"/><path id="path3458" d="m574.18 107.82c-1.7831 0.16783-3.5015 1.2682-5.1239 4.076-2.0348 4.7072 6.9132 12.872 12.935 2.8346 0.4261-1.2249 6.4032 2.6981 9.7099-5.5211-5.6688 5.9551-11.467-1.1536-16.73-1.3894-0.25747-0.0116-0.53596-0.0241-0.79066-8e-5z"/><path id="path3460" d="m564 113.63c-4.6374 21.061-13.261 35.97-22.649 46.69 3.9021-1.0697 8.3151-4.1028 12.556-6.764-2.5942 5.5226-5.2191 10.305-7.8133 15.178 1.5487-0.52481 6.483-5.4459 13.158-12.662 1.0454 9.9212 2.4709 14.61 4.5838 21.337 1.6833-6.7162 2.9037-11.303 4.2401-21.51 4.0233 4.5648 7.9014 9.1534 13.345 13.069l-7.6205-15.7c3.9464 2.5231 8.3384 5.821 12.523 7.229-9.9222-11.256-18.319-25.804-22.324-46.867z"/><path id="path3578" d="m552.14 263.64c-5.2638 0.23479-11.063 7.3712-16.731 1.415 3.3051 8.2198 9.3463 4.298 9.7721 5.523 6.0199 10.038 14.906 1.8756 12.872-2.8321-1.8536-3.2092-3.8541-4.1978-5.9138-4.106z"/><path id="path3580" d="m562.29 242.59c7.1275 8.8417-12.804 12.36-2.0578 20.729 4.5829 2.8417 15.288-3.3098 5.8836-10.87-1.2152-0.64728 4.2301-5.1169-3.8259-9.8591z"/><path id="path3582" d="m574.18 263.56c-1.7831 0.16783-3.5015 1.2682-5.1239 4.076-2.0348 4.7072 6.9132 12.872 12.935 2.8346 0.4261-1.2249 6.4032 2.6981 9.7099-5.5211-5.6688 5.9551-11.467-1.1536-16.73-1.3894-0.25747-0.0116-0.53596-0.024-0.79066-8e-5z"/><path id="path3584" d="m564 269.37c-4.6374 21.061-13.261 35.97-22.649 46.69 3.9021-1.0697 8.3151-4.1028 12.556-6.764-2.5942 5.5226-5.2191 10.305-7.8133 15.178 1.5487-0.52481 6.483-5.4459 13.158-12.662 1.0454 9.9212 2.4709 14.61 4.5838 21.337 1.6833-6.7162 2.9037-11.303 4.2401-21.51 4.0233 4.5648 7.9014 9.1534 13.345 13.069l-7.6205-15.7c3.9464 2.5231 8.3384 5.821 12.523 7.229-9.9222-11.256-18.319-25.804-22.324-46.867z"/><path id="path3464" d="m673.24 86.853c7.1275 8.8417-12.804 12.36-2.0578 20.729 4.5829 2.8417 15.288-3.3098 5.8836-10.87-1.2152-0.64728 4.23-5.1169-3.8259-9.8592z"/><path id="path3466" d="m685.13 107.82c-1.783 0.16783-3.5015 1.2682-5.1239 4.076-2.0348 4.7072 6.9132 12.872 12.935 2.8346 0.4261-1.2249 6.4032 2.6981 9.7099-5.5211-5.6688 5.9551-11.467-1.1536-16.73-1.3894-0.25747-0.0116-0.53595-0.024-0.79066-8e-5z"/><path id="path3468" d="m663.09 107.9c-5.2638 0.23479-11.063 7.3712-16.731 1.415 3.3051 8.2198 9.3463 4.298 9.7721 5.523 6.0199 10.038 14.906 1.8756 12.872-2.8321-1.8536-3.2092-3.8541-4.1978-5.9138-4.106z"/><path id="path3470" d="m674.95 113.63c-4.6373 21.061-13.261 35.97-22.649 46.69 3.9021-1.0697 8.3151-4.1028 12.556-6.764-2.5942 5.5226-5.2191 10.305-7.8133 15.178 1.5487-0.52481 6.483-5.4459 13.158-12.662 1.0454 9.9212 2.4709 14.61 4.5838 21.337 1.6833-6.7162 2.9037-11.303 4.2401-21.51 4.0233 4.5648 7.9014 9.1534 13.345 13.069l-7.6205-15.7c3.9464 2.5231 8.3384 5.821 12.524 7.229-9.9222-11.256-18.319-25.804-22.324-46.867z"/><path id="path3588" d="m673.24 242.59c7.1275 8.8417-12.804 12.36-2.0578 20.729 4.5829 2.8417 15.288-3.3098 5.8836-10.87-1.2152-0.64728 4.23-5.1169-3.8259-9.8592z"/><path id="path3590" d="m685.13 263.56c-1.783 0.16783-3.5015 1.2682-5.1239 4.076-2.0348 4.7072 6.9132 12.872 12.935 2.8346 0.4261-1.2249 6.4032 2.6981 9.7099-5.5211-5.6688 5.9551-11.467-1.1536-16.73-1.3894-0.25747-0.0116-0.53595-0.024-0.79066-8e-5z"/><path id="path3592" d="m663.09 263.64c-5.2638 0.23479-11.063 7.3712-16.731 1.415 3.3051 8.2198 9.3463 4.298 9.7721 5.523 6.0199 10.038 14.906 1.8756 12.872-2.8321-1.8536-3.2092-3.8541-4.1978-5.9138-4.106z"/><path id="path3594" d="m674.95 269.37c-4.6373 21.061-13.261 35.97-22.649 46.69 3.9021-1.0697 8.3151-4.1028 12.556-6.764-2.5942 5.5226-5.2191 10.305-7.8133 15.178 1.5487-0.52481 6.483-5.4459 13.158-12.662 1.0454 9.9212 2.4709 14.61 4.5838 21.337 1.6833-6.7162 2.9037-11.303 4.2401-21.51 4.0233 4.5648 7.9014 9.1534 13.345 13.069l-7.6205-15.7c3.9464 2.5231 8.3384 5.821 12.524 7.229-9.9222-11.256-18.319-25.804-22.324-46.867z"/><path id="path3124-3" d="m395.87 8.9835c7.1275 8.8417-12.804 12.36-2.0578 20.729 4.5829 2.8417 15.288-3.3098 5.8836-10.87-1.2152-0.64728 4.23-5.1169-3.8259-9.8591z"/><path id="path3114" d="m407.76 29.945c-1.783 0.16783-3.5015 1.2682-5.1239 4.076-2.0348 4.7072 6.9132 12.872 12.935 2.8346 0.4261-1.2249 6.4032 2.6981 9.7099-5.5211-5.6688 5.9551-11.467-1.1536-16.73-1.3894-0.25748-0.0116-0.53596-0.024-0.79067-8e-5z"/><path id="path3104-3" d="m385.72 30.03c-5.2638 0.23479-11.063 7.3712-16.731 1.415 3.3051 8.2198 9.3463 4.298 9.7721 5.523 6.0199 10.038 14.906 1.8756 12.872-2.8321-1.8536-3.2092-3.8541-4.1978-5.9138-4.106z"/><path id="path3094" d="m397.58 35.756c-4.6373 21.061-13.261 35.97-22.649 46.69 3.9021-1.0697 8.3151-4.1028 12.556-6.764-2.5942 5.5226-5.2191 10.305-7.8133 15.178 1.5487-0.52481 6.483-5.4459 13.158-12.662 1.0454 9.9212 2.4709 14.61 4.5838 21.337 1.6833-6.7162 2.9037-11.303 4.2401-21.51 4.0233 4.5648 7.9014 9.1534 13.345 13.069l-7.6205-15.7c3.9464 2.5231 8.3384 5.821 12.524 7.229-9.9222-11.256-18.319-25.804-22.324-46.867z"/><path id="path3528" d="m395.87 164.72c7.1275 8.8417-12.804 12.36-2.0578 20.729 4.5829 2.8417 15.288-3.3098 5.8836-10.87-1.2152-0.64728 4.23-5.1169-3.8259-9.8591z"/><path id="path3530" d="m407.76 185.69c-1.783 0.16783-3.5015 1.2682-5.1239 4.076-2.0348 4.7072 6.9132 12.872 12.935 2.8346 0.4261-1.2249 6.4032 2.6981 9.7099-5.5211-5.6688 5.9551-11.467-1.1536-16.73-1.3894-0.25748-0.0116-0.53596-0.024-0.79067-8e-5z"/><path id="path3532" d="m385.72 185.77c-5.2638 0.23479-11.063 7.3712-16.731 1.415 3.3051 8.2198 9.3463 4.298 9.7721 5.523 6.0199 10.038 14.906 1.8756 12.872-2.8321-1.8536-3.2092-3.8541-4.1978-5.9138-4.106z"/><path id="path3534" d="m397.58 191.5c-4.6373 21.061-13.261 35.97-22.649 46.69 3.9021-1.0697 8.3151-4.1028 12.556-6.764-2.5942 5.5226-5.2191 10.305-7.8133 15.178 1.5487-0.52481 6.483-5.4459 13.158-12.662 1.0454 9.9212 2.4709 14.61 4.5838 21.337 1.6833-6.7162 2.9037-11.303 4.2401-21.51 4.0233 4.5648 7.9014 9.1534 13.345 13.069l-7.6205-15.7c3.9464 2.5231 8.3384 5.821 12.524 7.229-9.9222-11.256-18.319-25.804-22.324-46.867z"/><path id="path4437" d="m395.87 320.46c7.1275 8.8417-12.804 12.36-2.0578 20.729 4.5829 2.8417 15.288-3.3098 5.8836-10.87-1.2152-0.64728 4.23-5.1169-3.8259-9.8591z"/><path id="path4439" d="m407.76 341.43c-1.783 0.16783-3.5015 1.2682-5.1239 4.076-2.0348 4.7072 6.9132 12.872 12.935 2.8346 0.4261-1.2249 6.4032 2.6981 9.7099-5.5211-5.6688 5.9551-11.467-1.1536-16.73-1.3894-0.25748-0.0116-0.53596-0.024-0.79067-8e-5z"/><path id="path4441" d="m385.72 341.51c-5.2638 0.23479-11.063 7.3712-16.731 1.415 3.3051 8.2198 9.3463 4.298 9.7721 5.523 6.0199 10.038 14.906 1.8756 12.872-2.8321-1.8536-3.2092-3.8541-4.1978-5.9138-4.106z"/><path id="path4443" d="m397.58 347.24c-4.6373 21.061-13.261 35.97-22.649 46.69 3.9021-1.0697 8.3151-4.1028 12.556-6.764-2.5942 5.5226-5.2191 10.305-7.8133 15.178 1.5487-0.52481 6.483-5.4459 13.158-12.662 1.0454 9.9212 2.4709 14.61 4.5838 21.337 1.6833-6.7162 2.9037-11.303 4.2401-21.51 4.0233 4.5648 7.9014 9.1534 13.345 13.069l-7.6205-15.7c3.9464 2.5231 8.3384 5.821 12.524 7.229-9.9222-11.256-18.319-25.804-22.324-46.867z"/><path id="path3360" d="m496.67 30.03c-5.2638 0.23479-11.063 7.3712-16.731 1.415 3.3051 8.2198 9.3463 4.298 9.7721 5.523 6.0199 10.038 14.906 1.8756 12.872-2.8321-1.8536-3.2092-3.8541-4.1978-5.9138-4.106z"/><path id="path3356" d="m506.82 8.9835c7.1275 8.8417-12.804 12.36-2.0578 20.729 4.5829 2.8417 15.288-3.3098 5.8836-10.87-1.2152-0.64728 4.2301-5.1169-3.8259-9.8591z"/><path id="path3358" d="m518.71 29.945c-1.7831 0.16783-3.5015 1.2682-5.1239 4.076-2.0348 4.7072 6.9132 12.872 12.935 2.8346 0.4261-1.2249 6.4032 2.6981 9.7099-5.5211-5.6688 5.9551-11.467-1.1536-16.73-1.3894-0.25747-0.0116-0.53596-0.024-0.79066-8e-5z"/><path id="path3362" d="m508.52 35.756c-4.6374 21.061-13.261 35.97-22.649 46.69 3.9021-1.0697 8.3151-4.1028 12.556-6.764-2.5942 5.5226-5.2191 10.305-7.8133 15.178 1.5487-0.52481 6.483-5.4459 13.158-12.662 1.0454 9.9212 2.4709 14.61 4.5838 21.337 1.6833-6.7162 2.9037-11.303 4.2401-21.51 4.0233 4.5648 7.9014 9.1534 13.345 13.069l-7.6205-15.7c3.9464 2.5231 8.3384 5.821 12.523 7.229-9.9222-11.256-18.319-25.804-22.324-46.867z"/><path id="path3538" d="m496.67 185.77c-5.2638 0.23479-11.063 7.3712-16.731 1.415 3.3051 8.2198 9.3463 4.298 9.7721 5.523 6.0199 10.038 14.906 1.8756 12.872-2.8321-1.8536-3.2092-3.8541-4.1978-5.9138-4.106z"/><path id="path3540" d="m506.82 164.72c7.1275 8.8417-12.804 12.36-2.0578 20.729 4.5829 2.8417 15.288-3.3098 5.8836-10.87-1.2152-0.64728 4.2301-5.1169-3.8259-9.8591z"/><path id="path3542" d="m518.71 185.69c-1.7831 0.16783-3.5015 1.2682-5.1239 4.076-2.0348 4.7072 6.9132 12.872 12.935 2.8346 0.4261-1.2249 6.4032 2.6981 9.7099-5.5211-5.6688 5.9551-11.467-1.1536-16.73-1.3894-0.25747-0.0116-0.53596-0.024-0.79066-8e-5z"/><path id="path3544" d="m508.52 191.5c-4.6374 21.061-13.261 35.97-22.649 46.69 3.9021-1.0697 8.3151-4.1028 12.556-6.764-2.5942 5.5226-5.2191 10.305-7.8133 15.178 1.5487-0.52481 6.483-5.4459 13.158-12.662 1.0454 9.9212 2.4709 14.61 4.5838 21.337 1.6833-6.7162 2.9037-11.303 4.2401-21.51 4.0233 4.5648 7.9014 9.1534 13.345 13.069l-7.6205-15.7c3.9464 2.5231 8.3384 5.821 12.523 7.229-9.9222-11.256-18.319-25.804-22.324-46.867z"/><path id="path4459" d="m496.67 341.51c-5.2638 0.23479-11.063 7.3712-16.731 1.415 3.3051 8.2198 9.3463 4.298 9.7721 5.523 6.0199 10.038 14.906 1.8756 12.872-2.8321-1.8536-3.2092-3.8541-4.1978-5.9138-4.106z"/><path id="path4461" d="m506.82 320.46c7.1275 8.8417-12.804 12.36-2.0578 20.729 4.5829 2.8417 15.288-3.3098 5.8836-10.87-1.2152-0.64728 4.2301-5.1169-3.8259-9.8591z"/><path id="path4463" d="m518.71 341.43c-1.7831 0.16783-3.5015 1.2682-5.1239 4.076-2.0348 4.7072 6.9132 12.872 12.935 2.8346 0.4261-1.2249 6.4032 2.6981 9.7099-5.5211-5.6688 5.9551-11.467-1.1536-16.73-1.3894-0.25747-0.0116-0.53596-0.024-0.79066-8e-5z"/><path id="path4465" d="m508.52 347.24c-4.6374 21.061-13.261 35.97-22.649 46.69 3.9021-1.0697 8.3151-4.1028 12.556-6.764-2.5942 5.5226-5.2191 10.305-7.8133 15.178 1.5487-0.52481 6.483-5.4459 13.158-12.662 1.0454 9.9212 2.4709 14.61 4.5838 21.337 1.6833-6.7162 2.9037-11.303 4.2401-21.51 4.0233 4.5648 7.9014 9.1534 13.345 13.069l-7.6205-15.7c3.9464 2.5231 8.3384 5.821 12.523 7.229-9.9222-11.256-18.319-25.804-22.324-46.867z"/><path id="path3376" d="m617.77 8.9835c7.1275 8.8417-12.804 12.36-2.0578 20.729 4.5829 2.8417 15.288-3.3098 5.8836-10.87-1.2152-0.64728 4.23-5.1169-3.8259-9.8592z"/><path id="path3378" d="m629.66 29.945c-1.783 0.16783-3.5015 1.2682-5.1239 4.076-2.0348 4.7072 6.9132 12.872 12.935 2.8346 0.4261-1.2249 6.4032 2.6981 9.7099-5.5211-5.6688 5.9551-11.467-1.1536-16.73-1.3894-0.25747-0.0116-0.53595-0.024-0.79066-8e-5z"/><path id="path3380" d="m607.61 30.03c-5.2638 0.23479-11.063 7.3712-16.731 1.415 3.3051 8.2198 9.3463 4.298 9.7721 5.523 6.0199 10.038 14.906 1.8756 12.872-2.8321-1.8536-3.2092-3.8541-4.1978-5.9138-4.106z"/><path id="path3382" d="m619.47 35.756c-4.6373 21.061-13.261 35.97-22.649 46.69 3.9021-1.0697 8.3151-4.1028 12.556-6.764-2.5942 5.5226-5.2191 10.305-7.8133 15.178 1.5487-0.52481 6.483-5.4459 13.158-12.662 1.0454 9.9212 2.4709 14.61 4.5838 21.337 1.6833-6.7162 2.9037-11.303 4.2401-21.51 4.0233 4.5648 7.9014 9.1534 13.345 13.069l-7.6205-15.7c3.9464 2.5231 8.3384 5.821 12.524 7.229-9.9222-11.256-18.319-25.804-22.324-46.867z"/><path id="path3548" d="m617.77 164.72c7.1275 8.8417-12.804 12.36-2.0578 20.729 4.5829 2.8417 15.288-3.3098 5.8836-10.87-1.2152-0.64728 4.23-5.1169-3.8259-9.8592z"/><path id="path3550" d="m629.66 185.69c-1.783 0.16783-3.5015 1.2682-5.1239 4.076-2.0348 4.7072 6.9132 12.872 12.935 2.8346 0.4261-1.2249 6.4032 2.6981 9.7099-5.5211-5.6688 5.9551-11.467-1.1536-16.73-1.3894-0.25747-0.0116-0.53595-0.024-0.79066-8e-5z"/><path id="path3552" d="m607.61 185.77c-5.2638 0.23479-11.063 7.3712-16.731 1.415 3.3051 8.2198 9.3463 4.298 9.7721 5.523 6.0199 10.038 14.906 1.8756 12.872-2.8321-1.8536-3.2092-3.8541-4.1978-5.9138-4.106z"/><path id="path3554" d="m619.47 191.5c-4.6373 21.061-13.261 35.97-22.649 46.69 3.9021-1.0697 8.3151-4.1028 12.556-6.764-2.5942 5.5226-5.2191 10.305-7.8133 15.178 1.5487-0.52481 6.483-5.4459 13.158-12.662 1.0454 9.9212 2.4709 14.61 4.5838 21.337 1.6833-6.7162 2.9037-11.303 4.2401-21.51 4.0233 4.5648 7.9014 9.1534 13.345 13.069l-7.6205-15.7c3.9464 2.5231 8.3384 5.821 12.524 7.229-9.9222-11.256-18.319-25.804-22.324-46.867z"/><path id="path4481" d="m617.77 320.46c7.1275 8.8417-12.804 12.36-2.0578 20.729 4.5829 2.8417 15.288-3.3098 5.8836-10.87-1.2152-0.64728 4.23-5.1169-3.8259-9.8592z"/><path id="path4483" d="m629.66 341.43c-1.783 0.16783-3.5015 1.2682-5.1239 4.076-2.0348 4.7072 6.9132 12.872 12.935 2.8346 0.4261-1.2249 6.4032 2.6981 9.7099-5.5211-5.6688 5.9551-11.467-1.1536-16.73-1.3894-0.25747-0.0116-0.53595-0.024-0.79066-8e-5z"/><path id="path4485" d="m607.61 341.51c-5.2638 0.23479-11.063 7.3712-16.731 1.415 3.3051 8.2198 9.3463 4.298 9.7721 5.523 6.0199 10.038 14.906 1.8756 12.872-2.8321-1.8536-3.2092-3.8541-4.1978-5.9138-4.106z"/><path id="path4487" d="m619.47 347.24c-4.6373 21.061-13.261 35.97-22.649 46.69 3.9021-1.0697 8.3151-4.1028 12.556-6.764-2.5942 5.5226-5.2191 10.305-7.8133 15.178 1.5487-0.52481 6.483-5.4459 13.158-12.662 1.0454 9.9212 2.4709 14.61 4.5838 21.337 1.6833-6.7162 2.9037-11.303 4.2401-21.51 4.0233 4.5648 7.9014 9.1534 13.345 13.069l-7.6205-15.7c3.9464 2.5231 8.3384 5.821 12.524 7.229-9.9222-11.256-18.319-25.804-22.324-46.867z"/></g><g id="g19177"><rect id="rect625" width="360" height="420" fill="#039"/><use id="use5062" transform="matrix(.24404 0 0 .24404 52.421 39.169)" width="100%" height="100%" xlink:href="#1"/><use id="use5064" transform="matrix(.24404 0 0 .24404 52.421 210)" width="100%" height="100%" xlink:href="#1"/><use id="use5066" transform="matrix(.24404 0 0 .24404 52.421 380.83)" width="100%" height="100%" xlink:href="#1"/><use id="use5070" transform="matrix(.24404 0 0 .24404 96.349 124.58)" width="100%" height="100%" xlink:href="#1"/><use id="use5072" transform="matrix(.24404 0 0 .24404 96.349 295.42)" width="100%" height="100%" xlink:href="#1"/><use id="use5074" transform="matrix(.24404 0 0 .24404 140.28 39.169)" width="100%" height="100%" xlink:href="#1"/><use id="use5076" transform="matrix(.24404 0 0 .24404 140.28 210)" width="100%" height="100%" xlink:href="#1"/><use id="use5078" transform="matrix(.24404 0 0 .24404 140.28 380.83)" width="100%" height="100%" xlink:href="#1"/><use id="use5082" transform="matrix(.24404 0 0 .24404 184.21 124.58)" width="100%" height="100%" xlink:href="#1"/><use id="use5084" transform="matrix(.24404 0 0 .24404 184.21 295.42)" width="100%" height="100%" xlink:href="#1"/><use id="use5086" transform="matrix(.24404 0 0 .24404 228.13 39.169)" width="100%" height="100%" xlink:href="#1"/><use id="use5088" transform="matrix(.24404 0 0 .24404 228.13 210)" width="100%" height="100%" xlink:href="#1"/><use id="use5090" transform="matrix(.24404 0 0 .24404 228.13 380.83)" width="100%" height="100%" xlink:href="#1"/><use id="use5094" transform="matrix(.24404 0 0 .24404 272.06 124.58)" width="100%" height="100%" xlink:href="#1"/><use id="use5096" transform="matrix(.24404 0 0 .24404 272.06 295.42)" width="100%" height="100%" xlink:href="#1"/><use id="use5098" transform="matrix(.24404 0 0 .24404 315.99 39.169)" width="100%" height="100%" xlink:href="#1"/><use id="use5100" transform="matrix(.24404 0 0 .24404 315.99 210)" width="100%" height="100%" xlink:href="#1"/><use id="use5102" transform="matrix(.24404 0 0 .24404 315.99 380.83)" width="100%" height="100%" xlink:href="#1"/></g><path id="rect2164" d="m0.01148 5e-7v34.466h-0.01148v355.59h0.14058v29.945h360.02v-44.458l-314.57-8e-5v-329.89l314.64 1.8e-4 9e-5 -45.655h-360.22z" fill="#ed2939"/><path id="path4601" d="m564.12 371.27c-8.5033 19.954-31.989 19.793-42.114 2.1489-7.2314 16.88-35.97 17.675-41.613-0.93539-4.4378 18.469-30.749 19.027-37.541 0.8576-6.384 18.319-34.959 16.977-41.78-1.2815-5.6152 18.074-35.65 19.621-40.939 3.4804-0.0603 8.7063-0.13484 44.458-0.13484 44.458h359.88l0.11874-419.73-359.85-0.27031v45.655h-0.0765c7.807-18.399 36.678-16.319 40.482 1.1596 7.8231-18.109 33.408-17.868 44.813 0.90233 8.9823-18.997 31.876-18.181 38.411-0.42394 6.1345-17.823 30.443-17.959 41.452 0.58535 6.6437-18.996 30.079-18.292 37.98-0.66702 5.0879-17.584 30.232-18.999 38.968-0.53673 9.0186-18.712 33.951-14.653 38.359-0.7487 5.2815-11.818 23.878-12.228 31.546-1.7316s5.7138 25.361-12.551 32.214c20.905 5.0309 19.985 28.581-0.29183 30.879 18.025 6.6333 18.015 25.174-0.0524 30.446 20.074 2.6506 18.746 27.733 0.0805 32.122 18.665 7.1039 16.638 29.154-1.0486 35.576 16.846 4.1752 20.442 29.549 0.23547 36.958 20.517 5.1495 17.29 30.057-0.30592 36.35 17.735 3.6715 19.404 28.626 1.3827 32.151 22.135 4.1091 17.359 29.431-1.92 31.953 14.15 5.9706 18.03 23.114 10.238 32.092-7.7916 8.9781-19.46 9.2078-29.867-2.094-5.1423 16.479-28.448 15.075-35.289 0.10307-8.8093 16.732-31.023 18.047-38.572-1.6724" fill="#039"/><g id="g19101" transform="translate(0,2)" stroke-width=".53057"><path id="path3654" d="m28.051 39.138c-1.7393 1.1278-3.3955 1.1942-4.5556 0.51851-1.1582-0.67568 0.19496 0.90091 0.77407 1.5766 0.57909 0.67406 0.388 1.3497 0.388 2.0254 0 0.6773-0.0107 1.5523 0.14476 2.3641-1.1601 0.22523-2.272-0.33541-3.2391-1.0127 0.56945 0.77452 0.49031 1.2266 0.92078 1.8326-0.98061 0.0098-1.9053-1.0192-2.7141-1.5199 0.42082 0.60439 0.77407 1.549 1.135 2.2409-0.78951 0.10046-1.7296-1.0662-2.1118-1.4518 0.12354 0.30138 0.37449 1.6155 0.5019 2.4597-0.94394-0.28842-1.1698-1.9946-1.8628-1.8666 0.0036 0.18958-0.19304 0.80855 0.01426 1.3838 0.40923 1.1407-0.52119 0.67082-0.82618 0.58008-0.81074 0.0098-1.0385 0.28356-0.88024-1.1877-0.19498-0.45208-0.74705-0.89443-0.74705 0.0048 0 0.90253-0.51154 2.0157-1.0077 2.0157-0.49609 0-0.79916-0.76804-0.9864-1.4065-0.88988-0.8442-0.40538-1.5555 0.36869-1.3303 0.77407 0.22685 0.18724-1.3514-0.38992-0.89929-0.58104 0.44884-1.745 0.46018-1.552-0.21551 0.19304-0.67568 0.30307-1.212 0.11-2.1129-0.19304-0.90091 0.71036-0.74698 1.0964-0.29652 0.38607 0.45046 0.5598 0.99651 1.3319 0.7729 0.77215-0.22523 0.05794-0.99813-0.52119-1.2298-0.58104 0-0.52312-0.8604 0.39764-1.4 0.64088-1.3465 1.5887-1.494 1.4362-0.10208 0 0.67406 0.26253 2.0303 2.6156 1.703 1.7392-0.22523 2.0288-1.8602 1.3319-2.7173-0.43432-0.42615-0.89568-1.293-0.95745-2.9134-0.28182 0.2868-0.66789 0.50555-1.193 0.52013-0.88988 0.06643-1.1833-0.40347-1.9496-0.77939 0.47872-0.30786 1.1852-0.78587 1.8802-0.63031 0.57139 0.0064 1.1273-0.37106 1.3377-1.037 0.38607-1.1245 1.2258-1.1326 1.9767-0.92522 0.84357 0.24305 2.8666 0.12315 2.8666-0.32731-0.92657-0.34027-2.0674-1.3465-2.4593-2.74-0.0018 1.0386-0.5096 1.7257-1.2547 1.5393-0.36097-0.10208-0.88988-0.06643-1.2258-0.04375 0.4131-0.38888 1.0192-1.6754 0.52506-2.5326-0.22391-0.40346-0.27797-1.2088-0.23163-1.7046-0.14084 0.13934-0.57719 1.0014-0.25096 1.6657-0.53083 0.05671-0.94201-0.7486-1.5558-0.99327-0.11 0.25925 0.24902 0.88795 0.33202 1.1796-0.27604 0.10695-0.46136 0.23495-1.2142-0.19282-0.20268 0.66434-0.09841 0.97383-0.1428 1.212-0.23937-0.02107-0.82233-0.18634-1.108-0.54606 0.0053 0.42777-0.19111 0.74536-0.27412 1.1018-0.37834-0.09236-0.70456-0.21226-1.0366-0.73239-0.02514 0.33703-0.23937 0.48772-0.20076 1.0241-0.51734-0.02917-1.1099-0.93332-1.7624-1.5815-0.18724 0.57036 0.60999 2.8599 0.03084 2.6347-0.88603-0.27546-1.83 0.4861-1.8551-0.36944 0.19112-0.67405-0.10625-0.69025-0.6872-0.014604-0.51347 0.69999-1.5539 1.4599-1.5462-0.67568-0.67176-1.165-0.44785-1.5037 0.58489-1.3465 0.96711-0.22523 1.357-0.70809 0.60227-0.97383-1.4574 0.35-1.7605-0.42939-1.1466-1.1326 0.15243-0.63031 0.15243-1.2736 0.73159-1.05 0.99606 0.76156 1.3532 0 0.77407-0.45208-0.58104-0.45046-0.4517-1.0046 0.47872-1.3514 0.5598-0.90415 1.2605-0.67406 1.2605 0.22523-0.13317 1.0808 0.45362 1.7078 0.8397 1.259 0.38608-0.45046 1.8859-0.62869 2.467-0.85554 0.58104-0.22361 2.299-1.9784 2.299-2.6541-1.2779 0.05509-2.05-0.29166-2.4979-0.6368-0.05794-0.44235-0.11392-0.78425 0.04439-1.421-1.2605 0.78749-1.8068 0.40671-2.1601-8e-3 0.27991-0.31273 0.72968-1.4534 0.9227-1.8796-0.70843 0.36458-0.93814 0.63679-1.2509 0.46018-0.13121-0.44559 0.10037-0.89605 0.18532-1.2493-0.74512 0.79559-1.2335 0.76642-1.884 0.64004 0.67369-1.2136 0.79723-1.8504 0.94779-3.0835-0.4517 0.24953-0.94007 0.2074-1.2393 0.23009-0.063644-0.40025-0.15439-1.016-0.027097-1.6074-0.91113 0.2787-1.4883 0.56226-1.2026-0.82962 0-0.67568-0.22199-1.5296 0.6235-1.1974 0.38607 0 0.36484-0.81827-0.21427-0.81827-1.4999-0.128-1.857-0.65138-1.0906-1.7354 0.22006-1.2882 0.72387-1.6058 1.1099-0.59791 0.388 0.67406 1.4632 1.3222 1.1621 0-0.69686-1.3238-1.1544-2.4581 0.19304-2.2523 1.2161-0.38402 1.2065 0.49096 0.86093 1.421-0.19304 0.83124 0.49031 1.0548 0.68333 0.60439-0.06953-0.8604 0.37256-1.4842 0.98449-0.57846 0.76634 1.1099 1.025 1.7597-0.03673 2.4597-0.57717 0.6773 1.3551 2.3787 1.9825 4.3765 0.93622 0.3662 2.496 1.4243 3.4495 1.8488 0.57911-0.67568 3.0191-2.1145 5.2197-2.027 1.5192 0.06158 1.9323-0.72754 2.1253-1.4016 0.19304-0.67568-0.57137-0.01462-0.78951-0.61411-0.33008 0.50069-0.89568 0.48124-1.1389-0.17337-0.85321 1.1602-2.0635 1.7727-1.7064-0.05509 0.1756-0.9317 0.06364-1.5863 0.59068-1.6333 3.2912 0.61735 3.0828-1.8083 2.0828-2.1145-1.1177-0.32731-2.9187 1.4389-2.662-1.084 0.12158-1.1845 0.081115-0.75346-0.30692-0.97707-0.38607-0.22685 0.4517-1.178 1.0327-1.178 0.93042-0.024299 1.2123-0.52013 1.6369-1.2768 0.14672-0.11342 2.1388-0.050238 2.8743-0.14745 0.95552-0.22361 3.2565-1.1261 4.3298-0.84582-0.29148 0.8604-0.6235 0.79721-0.80688 1.3562 0.75477 0.13774 1.6138 0.47638 1.7856 0.56388-0.38606 0.47152-0.60612 0.79397-0.96709 1.1294 0.8397 0.21875 1.0443 0.12153 0.94007 1.797-0.01783 1.1537-0.08308 2.6606-1.2412 2.6606-1.1621 0 1.0598 1.0986 0.98642 2.659-0.07345 1.2169-0.12158 3.0057 0.51154 4.0428 0.39572 0.66758 0.96324 2.2231 0.14868 3.1094-0.2606-1.097-0.71423-1.9946-1.2045-2.6703-0.28376 0.45856-0.52698 1.4-0.24515 1.9558 0.34553 0.70485 0.33395 1.4308 0.33395 2.3317 0 0.90091-0.22778 1.5685-0.15831 3.2018-0.3243-0.11342-0.74125-0.61735-0.95745-1.144-0.10804 0.59952-0.44398 0.90253-0.60419 2.5974-0.73933-0.71943-0.95167-1.5653-0.90341-2.0773 0.01783-1.5847-0.16794-1.3676-0.55594-2.2669-0.11 0.43101-0.05402 0.99003 0.09645 1.8537-0.58104-0.45208-0.77987-0.52013 0.13906 1.2947 0.75477 1.4664 0.97676 5.5351 2.4844 6.4749 0.96709 0.22523 1.413 1.2525 1.994 1.703 0.57719 0.45046 1.6736 0.19768 2.909 2.0983 2.2199 1.9801 3.8897 0.18634 2.6581-2.5942-0.37641-0.82637-1.8879-2.0562-2.0809-2.9587-1.0926-0.08425-2.1388-0.6773-1.8937-2.3284-1.2682 0.13611-1.9496-1.6382-1.0501-3.1775-1.7315-0.61897-1.4671-3.3849 0.62735-3.8548 0.16794-2.6169 3.0384-5.0814 4.4456-6.2561 1.1389-0.93332 4.1387-3.8969 2.4206-7.1749-1.0887-2.0789-3.2874-0.73726-2.9998 1.3222 0.14672 1.0224 0.96519 1.2153 2.108 0.84906 0.03869 1.0662-1.6099 3.1175-2.7565 1.4275 0.0271 0.91712-0.13513 2.2101-1.5848 2.7108-0.96711 0.45046-0.96132 1.2493-0.7509 2.4613-1.7836-0.05509-2.6214-2.0514-2.2353-3.4011 0.38607-1.3497 1.6157-1.3676 1.6157-2.0416 0-0.67568-1.4111-0.87498-1.581-2.006-0.19304-1.3254 0.24515-2.4192 1.1312-2.7027-0.38413 1.528 1.1505 2.2847 2.0751 0.89443 1.6022-2.3981 4.4224-2.9199 5.6752-1.2136 0.84742 1.1537 2.1311 3.8872 0.56558 6.7536-0.94973 1.7419-3.409 4.0622-4.3742 4.6731-0.34938 0.24953-1.5539 1.3627-1.5597 2.006 0.83198-0.68865 1.5037-0.66434 2.0674-0.93494-0.03476 0.77452-2.3357 2.1599-2.0558 3.2553 0.58876-0.5574 2.3125-1.4616 3.216-2.5861 0.51347 2.1097-4.0286 3.9715-3.4302 5.433 0.5154-0.9317 3.2102-1.6997 4.2834-2.9458-0.06757 1.3433-0.91885 2.7465-2.5172 3.8645-1.8396 1.2185-1.4014 2.4775-0.89569 2.9425 0.33589-1.8618 2.3936-2.3689 3.658-4.2647 0.27797 0.9641-0.45362 2.5245-1.3397 3.7495-0.8648 1.0435-0.82618 1.8666-0.05206 3.2196 0.77215 1.3497 1.8802 3.6992 1.5539 4.8772-0.17756 0.61735-0.10804 1.5507-0.67369 2.3868-1.3165 1.4583-1.8358 2.7287-4.2275 0.29976-0.96517-1.1261-1.3744-1.9671-2.5056-1.9493 0.58104 1.575-0.24322 3.0916-0.24322 4.2161 0 1.1261 0.02514 1.9509 1.5713 2.1761 1.5462 0.22523 1.9072 1.6528 2.6793 1.4275 0.3494-0.17824 0.7123-0.06158 1.0849-0.20254 0.03476 0.4537 0.16401 1.144-0.57332 1.3692-0.96711 0.45046-0.37836 0.52337 0.0089 1.2007 0.18919 0.40509 0.09841 0.97059 0.14476 1.5588-0.03084 0.72429 0.5347 1.1521 1.1524 1.2541-0.43048 0.62383-1.2856 0.77614-1.886 0.1831 0.44398 1.4194-0.17364 1.69-0.94778 1.0127 0.65245 1.165-0.51154 1.306-1.4787 0.85554 0.45942 0.64814 0.98834 1.3287 0.10037 1.75-0.90726 1.1099-0.89182 0.25116-1.2779-0.42453-0.38413-0.67568-0.73931 1.3724-1.1119 1.6657-0.61386 0.0875-0.82041-1.0111-1.5945-1.2363-0.44398-0.35323 0.23743-0.60925 0.5096-0.90091 0.33974-0.29328-0.24322-0.41643-1.0173 0.03403-0.77406 0.45046-1.0559 0.36458-0.79916-0.92035 0.23743-1.5377 0.58296-1.0889 1.3377-0.63356 0.77792-0.21064-1.2084-0.87498 0.10804-1.9217 0.13513-0.70485 0.54822-1.4048 1.2682 0.01622 0.96709 0.45046 0.82232-0.92846 0.6293-1.6041-0.19304-0.67406-1.8377-1.831-2.2296-2.8356-0.55208 1.6317-1.1466 2.5407-2.7334 3.0138 0.16027-0.86364-0.06168-1.549 0.40346-2.1145 0.57909-1.1261-0.18339-1.575-0.18339-2.6995-0.859-1.1796-0.31079-3.5453-0.08682-4.7995z" fill="#fff" stroke="#000"/><path id="path2105" d="m24.414 11.257c-0.9536-0.46342-1.7045-0.71457-2.6581-0.62221-0.9536 0.09074-2.1485-0.37106-2.3878-1.0208-0.23743-0.64814-0.79529-1.7597-1.5095-1.8537-0.35712-0.045371-0.89375 0.24467-1.1852 0.58656 0.26253 0.1831 0.48839 0.72267 0.68722 1.1861 0.50381 1.1164 1.772 3.4173 3.4418 2.3057 0.63702-0.46342 1.828-0.27708 2.3068-0.18634 0.4768 0.09399 1.386-0.30462 1.3049-0.39536z" fill="#fff" stroke="#000"/><path id="path2106" d="m20.405 29.175c0.23743 1.2055 0.55594 2.9668 1.2721 3.615 0.71423 0.64814 2.3859 1.4826 3.5789 1.7613 1.1949 0.27708 2.2276 1.2979 2.6272 2.2247 0.39766 0.92684 0.15831 2.2247 0.15831 2.2247" fill="none" stroke="#000"/><path id="path2107" d="m20.802 17.403c-1.1949 0.55578-1.8319 1.8909-2.7855 2.727-0.56752 0.47962-1.7257 1.3984-2.3068 1.5361 0.56173 0.44073 1.8512 0.81017 2.8897 0.16852-0.37062 1.8909 0.54244 1.8731 0.53278 4.8367 0.60806-0.08425 1.2721-1.669 1.4304-2.5018 0.15831-0.83448-0.09645-1.6706 0.20461-2.3689-0.0071 0.73726 0.19496 1.3416 0.59262 2.0838 0.39959 0.74212 0.47486 1.4907 0.23743 2.2328 0.99219-0.96248 0.77987-2.9361 0.76635-4.1821 0.48452 0.5493 0.59261 2.4451 0.26638 3.7187 0.45364-0.16204 0.9227-0.49582 1.1505-2.0611 0.36484 0.71781 0.79144 3.0722 0.60034 3.6361 0.67561 0.01783 1.2663-1.1245 1.2007-2.4176 0.12354 0.11829 0.46328 0.54768 0.58876 0.70323 0.14084-0.4942-0.06364-1.3935-0.01604-2.0854 0.15243 0.17337 0.48644 0.44722 0.60999 0.6692 0.1756 0.20092 0.59068 0.8604 1.1949 1.1634" fill="none" stroke="#000"/><path id="path2108" d="m29.076 13.323c1.0347 0.74212 2.05 1.9233 2.05 5.6323" fill="none" stroke="#000"/><path id="path831" d="m28.201 14.992c1.1138 1.0176 1.5115 2.2247 1.3532 3.7073-0.16027 1.4826-0.72002 1.3627-0.71617 2.5942-0.0107 0.5412 0.4768 1.4227 0.79531 1.9477 0.36484 0.58656 0.56945 1.5604 0.46136 2.0902" fill="none" stroke="#000"/><path id="path832" d="m29.504 18.978c0.07916 1.2039 0.0107 1.8504 0.36677 2.5942 0.32043 0.62221 0.63702 2.7675 0.17382 4.0314" fill="none" stroke="#000"/><path id="path2111" d="m27.404 18.699c0.71617 1.1116 0 1.3886-0.23935 2.3171-0.23937 0.92684 0.53083 1.3967 0.86865 2.4953" fill="none" stroke="#000"/><path id="path2112" d="m26.53 17.863c0.16027 1.2995 0 1.7629-0.31658 2.5974-0.31851 0.83448-0.63894 2.0821-0.08486 2.9701" fill="none" stroke="#000"/><path id="path2113" d="m25.256 20.276c-0.4768 1.3903-0.48259 3.4319 0.31271 4.5451" fill="none" stroke="#000"/><path id="path2114" d="m24.7 18.792c-1.0347 1.1132-1.3107 3.4481-0.87831 4.9032" fill="none" stroke="#000"/><path id="path837" d="m21.677 20.09c-0.39766 0.5574-0.79146 1.2007-0.91306 1.7257" fill="none" stroke="#000"/><path id="path838" d="m21.677 18.144c-0.39766 0.83448-1.332 1.5409-2.0481 1.9136-0.71615 0.37106-1.0559 1.7937-1.0559 1.7937" fill="none" stroke="#000"/><path id="path839" d="m35.6 11.931c-0.86865 1.1245-1.2489 1.4486-1.7489 2.2247-0.48259 0.72754-0.5907 2.0821-0.10037 2.8794" fill="none" stroke="#666"/><path id="path2118" d="m35.282 20.461c-0.47872 0.55578-0.63702 1.575-0.63702 1.7613" fill="none" stroke="#666"/><path id="path2119" d="m34.882 22.872c-0.39764 0.74212-0.47678 2.7805-0.47678 2.7805" fill="none" stroke="#666"/><path id="path2120" d="m35.759 25.745c-0.95552 1.0208-0.79531 2.4111-0.79531 2.4111" fill="none" stroke="#666"/><path id="path2121" d="m36.793 29.596c-0.16027 0.2868 0.47872 1.4178 0.9536 1.34" fill="none" stroke="#666"/><path id="path844" d="m39.951 39.244c-0.9536 0.55578-1.4342 0.75346-2.3878 0.27708" fill="none" stroke="#666"/><path id="path845" d="m35.757 46.427c0.63702 0.83448 0.48065 3.0479-0.47487 3.8807-0.95552 0.83448-0.47872 0.18634-0.47872 0.18634" fill="#fff" stroke="#666"/><path id="path2124" d="m33.008 37.675c-0.23937 1.2963-1.2277 2.1583-1.2277 2.1583" fill="none" stroke="#666"/><path id="path2125" d="m33.326 38.272c-0.4768 1.669-1.7045 2.5812-1.7045 2.5812" fill="none" stroke="#666"/><path id="path2126" d="m33.18 40.299c-0.87444 1.481-2.0346 2.4095-2.0346 2.4095" fill="none" stroke="#666"/><path id="path2127" d="m32.871 41.861c-0.55594 1.0192-1.2489 1.5896-1.2489 1.5896" fill="none" stroke="#666"/><path id="path850" d="m32.975 42.987c-0.55786 0.74212-1.274 1.2055-1.274 1.2055" fill="none" stroke="#666"/><path id="path851" d="m33.452 43.727c-0.39764 0.64976-0.71615 1.3903-0.71615 1.3903" fill="none" stroke="#666"/><path id="path2130" d="m22.391 40.205c0.63894 1.1132 1.6717 0.92846 1.5925 1.8537-0.21814 1.0775 0.09074 2.4905 0.3378 3.0236" fill="none" stroke="#666"/><path id="path2131" d="m22.312 41.504c0.55788 0.7405 0.55788 0.83286 0.55788 1.4826 0 0.64976 0.47872 1.4826 0.47872 1.4826" fill="none" stroke="#666"/><path id="path2132" d="m21.2 42.523c0.23935 0.55416 0.87444 1.3886 0.87444 1.3886" fill="none" stroke="#666"/><path id="path2133" d="m19.607 43.358c0.31851 0.36944 0.79723 0.7405 0.79723 0.7405" fill="none" stroke="#666"/><path id="path856" d="m22.87 9.7082c0.47872-0.64814 1.6813-0.95438 2.079-0.49096 0.39764 0.46342 1.6601 2.0659 1.6601 2.0659" fill="none" stroke="#666"/><path id="path857" d="m29.315 8.9661c0.79531-0.83448 1.911-0.92846 1.911-0.92846s0.39764 1.2995 0.07916 1.9477c-0.31851 0.64976-1.9902 0.64976-1.9902 0.64976" fill="none" stroke="#000"/><path id="path2136" d="m26.69 24.447c-0.07915 1.2055-0.79531 3.709-0.79531 3.709" fill="none" stroke="#666"/><path id="path2137" d="m27.167 25.189c-0.07915 1.3903-0.79531 3.4303-0.79531 3.4303" fill="none" stroke="#666"/><path id="path2138" d="m27.643 26.485c-0.07916 1.3919-0.63894 2.6882-0.63894 2.6882" fill="none" stroke="#666"/><path id="path2139" d="m28.201 28.154c-0.31656 1.2979-0.63507 2.1308-0.63507 2.1308" fill="none" stroke="#666"/><path id="path862" d="m28.52 29.452c-0.15831 0.92684-0.55594 1.8537-0.55594 1.8537" fill="none" stroke="#666"/><path id="path863" d="m28.917 30.287c0 0.5574-0.23744 1.2055-0.23744 1.2055" fill="none" stroke="#666"/><path id="path2142" d="m18.335 25.189c-0.16027 1.5766-0.54629 1.9169-0.96709 1.2185 0.05598 0.72754-0.29728 1.2007-0.93236 0.89929-0.16027 0.25277-0.56752 0.57036-0.56752 0.57036" fill="none" stroke="#666"/><path id="path2143" d="m15.073 27.506c-0.16027 0.74212-0.23935 1.7613-0.87444 1.5766" fill="none" stroke="#666"/><path id="path2144" d="m11.095 15.919c0.63702 0.09074 1.1138 0.09074 1.1138 0.09074" fill="none" stroke="#666"/><path id="path2145" d="m11.571 17.031 1.2721 0.18634" fill="none" stroke="#666"/><path id="path868" d="m12.367 18.051c0.87444 0.55578 1.4342 0.27708 1.4342 0.27708" fill="none" stroke="#666"/><path id="path869" d="m13.162 19.163c0.63894 0.37106 1.3532 0 1.3532 0" fill="none" stroke="#666"/><path id="path2148" d="m14.357 20.461c0.95552 0.18472 1.4342-0.46504 1.4342-0.46504" fill="none" stroke="#666"/><path id="path2149" d="m18.349 17.278c-0.27604 0.25926-0.5598 0.67568-0.52119 1.0224 0.39764 0 1.6717 0.13774 1.6717 0.13774" fill="none" stroke="#000"/><path id="path2150" d="m25.655 39.834c-0.39766-1.575-2.1485-3.4303-2.1485-3.4303" fill="none" stroke="#666"/><path id="path2151" d="m24.46 39.834c-0.16027-1.2055-1.9091-3.3379-1.9091-3.3379" fill="none" stroke="#666"/><path id="path874" d="m23.586 39.464c-0.07915-0.74212-1.83-2.6882-1.83-2.6882" fill="none" stroke="#666"/><path id="path875" d="m23.03 39.279c-0.39959-0.64976-1.83-1.8537-1.83-1.8537" fill="none" stroke="#666"/><path id="path2154" d="m22.312 39.741c0.07915-0.64814-0.71423-1.0208-0.71423-1.0208" fill="none" stroke="#666"/><path id="path2155" d="m27.962 38.445c-1.0366 0.55578-2.2296-0.2787-2.3878-1.3919-0.15831-1.1116-1.828-1.4826-1.828-1.4826" fill="none" stroke="#666"/><path id="path2156" d="m25.256 13.229c0.16027 0.92684 0.39764 1.9477 0.16027 2.5974-0.23935 0.64976 1.4304-0.92846 1.193-1.669-0.23935-0.7405 0.63509 0.37106 0.39574 1.2055-0.23745 0.83448 1.1949-1.1132 1.0366-2.04-0.15831-0.92684 0.4768-0.27708 0.4768 0.55578 0 0.83286 0.71615-1.1116 0.55786-1.575-0.15831-0.46342-0.16027-0.46342-0.16027-0.46342" fill="none" stroke="#000"/><path id="path880" d="m27.358 6.1029c0.35712 0.43587 0.79338 0.42291 1.193 0.33541 0.39957-0.08912 1.4941-0.75508 1.6311-0.85554" fill="none" stroke="#666"/><path id="path881" d="m28.997 7.8545c0.39764-0.5574 1.6717-0.64814 1.6717-0.64814" fill="none" stroke="#666"/><path id="path882" d="m13.019 10.225c1.1544-2.0027-0.47486-4.3344-1.191-4.4268 0.15831 0.64976 0.71617 1.669 0.07915 2.7805 0.55594 0.74212 0.79529 1.2655 1.1119 1.6349v0.01141z" fill="#fff" stroke="#000"/><path id="path883" d="m10.701 7.5385c-0.5405-2.3333-3.0171-2.3349-3.5595-1.7824 0.51926 0.30138 1.5385 0.51041 1.8145 1.8083 0.84549 0.022695 1.2953-0.00162 1.745-0.025921z" fill="#fff" stroke="#000"/><path id="path884" d="m7.6701 9.457c-2.272-0.8361-3.1214 0.64003-3.2661 1.4632 0.56945-0.12315 1.4922-0.67244 2.382 0.17013 0.68527-0.57522 0.5405-1.2801 0.88797-1.6139l-0.00357-0.01945z" fill="#fff" stroke="#000"/><path id="path885" d="m14.177 40.116c-1.6369-1.4859-3.7758 0.15879-3.7642 1.0743 0.57137-0.12478 1.7354-0.42939 2.6272 0.41319 0.68527-0.57522 0.78951-1.1537 1.137-1.4875z" fill="#fff" stroke="#000"/><path id="path886" d="m10.054 25.053c-1.3203-1.8666-3.5769-0.6773-3.8742 0.0875 0.57911 0.0243 1.5829-0.27546 2.2933 0.77452 0.77792-0.38564 1.1794-0.62545 1.581-0.86202z" fill="#fff" stroke="#000"/><path id="path887" d="m7.5987 27.495c-2.44-1.1278-2.9669-0.0016-3.2275 0.781 0.57717-0.01462 1.6813-0.1669 2.4419 0.8361 0.75864-0.43749 0.44592-1.2072 0.78566-1.6171z" fill="#fff" stroke="#000"/><path id="path888" d="m6.8304 31.17c-1.8898 0.27708-2.023 2.0821-1.8087 2.8826 0.4459-0.42939 1.025-1.434 2.1543-1.2007 0.35905-0.89119-0.51154-1.1958-0.34553-1.6819z" fill="#fff" stroke="#000"/><path id="path889" d="m11.403 43.121c-2.052-0.37106-2.4998 1.8051-2.2855 2.6055 0.4459-0.43101 1.1042-0.97058 2.2334-0.73726 0.36097-0.89119-0.11196-1.3789 0.052057-1.8683z" fill="#fff" stroke="#000"/><path id="path890" d="m12.548 47.198c-1.9477 0.828-1.4979 3.4286-0.97676 4.0071 0.21234-0.62869 0.62543-1.8877 1.7122-2.3203-0.05598-0.98355-0.67561-1.1683-0.73546-1.6868z" fill="#fff" stroke="#000"/><path id="path891" d="m31.251 49.423c-1.8029-1.1958-2.9611 0.44397-3.0055 1.2833 0.54822-0.21875 1.137-0.66272 2.1214 0.02268 0.60999-0.68378 0.58296-0.91712 0.88409-1.306z" fill="#fff" stroke="#000"/><path id="path892" d="m29.726 51.784c-1.8029-0.71619-3.0789 1.0743-3.0635 1.912 0.53085-0.2706 1.5636-0.76804 2.5944-0.17986 0.55979-0.7405 0.19496-1.2217 0.46906-1.6398l-0.0089-0.01141 0.0089-0.08103z" fill="#fff" stroke="#000"/><path id="path893" d="m30.927 54.561c-1.4632 1.7127-0.4189 3.7689 0.26253 4.0395-0.03673-0.67406 0.0036-1.8537 0.82811-2.7821-0.40536-0.86526-0.84936-0.81665-1.0906-1.2574z" fill="#fff" stroke="#000"/><path id="path894" d="m35.415 54.123c0.76056 2.2474-0.67369 3.2293-1.3918 3.1613 0.26253-0.60115 0.65632-1.0143 0.21427-2.249 0.66984-0.60439 0.80497-0.61897 1.1775-0.91225z" fill="#fff" stroke="#000"/><path id="path895" d="m17.418 48.562c-0.26832 2.3981-2.4071 2.8777-3.0056 2.4143 0.47872-0.37916 1.2451-1.2671 1.3686-2.5974 0.83583-0.15232 1.1872 0.23009 1.6369 0.1831z" fill="#fff" stroke="#000"/><path id="path898" d="m11.436 33.174c-0.26832 2.3949-2.3261 2.228-2.9264 1.7646 0.47872-0.37916 0.99027-0.37592 1.1138-1.7046 0.83777-0.15232 1.3648-0.01462 1.8126-0.05995z" fill="#fff" stroke="#000"/><path id="path899" d="m7.9519 15.245c-2.0404-0.42615-2.2566-3.3039-1.83-3.9796 0.30113 0.57522 0.56945 1.7435 1.7026 1.9509 0.092703 0.98031 0.11 1.5037 0.12747 2.0287z" fill="#fff" stroke="#000"/><path id="path900" d="m18.64 22.689c-0.88409 0.16041-2.0037 0.47638-2.548 1.0338" fill="none" stroke="#000"/><path id="path901" d="m24.055 6.1159c-0.33974 2.6963 1.2258 2.4597 1.5655 0.15717" fill="none" stroke="#000"/><path id="path1524" d="m24.045 6.2585c0.34168 0.15879 1.1949 0.31597 1.4922 0.10695" fill="none" stroke="#000"/></g><g id="g19931" transform="matrix(1.0974 0 0 .97466 247.83 78.908)" fill="#ed2939" stroke="#ed2939" stroke-width="2.284"><path id="path1904" d="m94.719 1.5v13h-13v15h13v21.562h-1.5625c-4.1189 0.24924-8.1974 0.70136-12.219 1.2812l-2.75-15.625c-6.0275 0.93353-11.94 2.2401-17.719 3.8438l2.7188 15.469c-3.7564 1.0255-7.4624 2.1609-11.094 3.4688l-5.25-14.469c-5.6941 2.1657-11.241 4.6463-16.594 7.4375l23.031 63.281 17.031-6.1875-12.906-35.5c2.8008-0.94738 5.6233-1.8218 8.5-2.5938 0.12191-0.03267 0.25296-0.06139 0.375-0.09375 1.1424-0.30326 2.2838-0.60011 3.4375-0.875 1.138-0.27117 2.2889-0.50683 3.4375-0.75 0.05096-0.01079 0.10527-0.02052 0.15625-0.03125 0.16174-0.03406 0.30677-0.06027 0.46875-0.09375 0.8539-0.17665 1.7343-0.3702 2.5938-0.53125 0.2802-0.0524 0.56296-0.10553 0.84375-0.15625 0.88511-0.16027 1.7655-0.29395 2.6562-0.4375 0.14371-0.02312 0.26243-0.03981 0.40625-0.0625 0.18764-0.02961 0.40586-0.06495 0.59375-0.09375 0.67103-0.10318 1.3259-0.18764 2-0.28125 0.24016-0.03304 0.47819-0.06199 0.71875-0.09375 0.88717-0.11849 1.7639-0.242 2.6562-0.34375 0.36121-0.04051 0.73172-0.08725 1.0938-0.125 0.84837-0.09007 1.7097-0.14396 2.5625-0.21875 4.0555-0.35563 8.1639-0.5625 12.312-0.5625 3.0452-3e-6 6.0667 0.08873 9.0625 0.28125 0.21483 0.0138 0.41043 0.04773 0.625 0.0625 0.41895 0.0288 0.83218 0.06127 1.25 0.09375 0.38214 0.02974 0.77497 0.06094 1.1562 0.09375 0.0152 0.0013 0.0474-0.0013 0.0625 0 1.4943 0.12896 2.9575 0.26182 4.4375 0.4375 0.0868 0.01029 0.16325 0.0208 0.25 0.03125 0.0506 0.0061 0.10568 0.02509 0.15625 0.03125 0.73953 0.09001 1.4827 0.17969 2.2188 0.28125 1.6105 0.22223 3.2186 0.47309 4.8125 0.75 2.2322 0.3878 4.4615 0.8202 6.6562 1.3125 1.0974 0.24615 2.1938 0.5095 3.2812 0.78125 3.6798 0.91953 7.2851 1.9836 10.844 3.1875l-12.906 35.5 17 6.1875 23.031-63.312c-5.3425-2.7851-10.88-5.2442-16.562-7.4062l-5.2812 14.5c-3.635-1.3098-7.3336-2.5042-11.094-3.5312l2.75-15.438c-5.784-1.605-11.686-2.91-17.719-3.8438l-2.7812 15.625c-4.0216-0.58049-8.0683-1.0318-12.188-1.2812h-1.5625v-21.562h13v-15h-13v-13h-15z" color="#000000"/><path id="path13539" d="m46.001 92.699c-24.315 0.45507-43.371 26.54-43.215 54.462 0.18896 33.848 22.812 80.202 80.966 120.1 58.155-39.894 80.793-86.247 80.982-120.1 0.15576-27.899-18.876-53.965-43.163-54.463-11.892-0.24361-25.043 5.6427-37.818 20.445-12.753-14.777-25.877-20.667-37.752-20.444zm0.24484 18.7c9.7822-0.34715 22.333 5.8614 37.507 22.923 40.465-45.499 62.267-13.783 62.695 13.451 0.43859 27.917-21.344 67.024-62.695 97.998-41.351-30.974-63.134-70.081-62.695-97.998 0.26742-17.022 8.8846-35.796 25.188-36.374z" fill-rule="evenodd"/><path id="path13537" d="m82.906 92.699c-24.315 0.45507-43.371 26.54-43.215 54.462 0.14976 26.825 14.393 61.507 49.244 94.601 1.0134-0.80797 2.0123-1.6162 2.9993-2.4331 0.1592-0.13175 0.31585-0.26589 0.47438-0.39787 0.06726-0.056 0.1318-0.11228 0.19894-0.16832 0.87833-0.73321 1.744-1.4637 2.6015-2.2036 0.18951-0.16346 0.3777-0.3259 0.5662-0.48968 0.44445-0.38633 0.8772-0.77495 1.316-1.163 1.7439-1.5421 3.4549-3.1001 5.1111-4.6673-29.335-27.759-44.608-59.05-44.24-82.466 0.26742-17.022 8.8846-35.796 25.188-36.374 0.68902-0.0245 1.3953-0.0115 2.1118 0.0306 5.6329-6.2039 11.324-10.696 16.94-13.726-6.6191-3.5761-13.125-5.1195-19.297-5.004zm74.447 0c-11.594 0.13774-24.32 6.1044-36.696 20.444-0.5055-0.58571-1.0084-1.1559-1.515-1.7139-4.9848 0.29448-10.633 2.2428-16.925 6.3353 5.635 3.6703 11.782 9.072 18.44 16.557 40.465-45.499 62.267-13.783 62.695 13.451 0.43858 27.917-21.344 67.024-62.695 97.998-1.7642-1.3215-3.4949-2.6597-5.1876-4.0093-1.0304 0.97794-2.0857 1.9632-3.1523 2.9381-1.0694 0.97742-2.1533 1.9489-3.2595 2.9228-2.2103 1.9461-4.4967 3.886-6.8556 5.815 5.7074 4.6698 11.85 9.2874 18.455 13.818 58.155-39.894 80.793-86.247 80.982-120.1 0.15576-27.899-18.882-53.965-43.169-54.462-0.37162-0.0076-0.74309-0.0044-1.1171 0z" fill-rule="evenodd"/></g></svg>
