<?xml version="1.0" encoding="UTF-8"?>
<svg width="306" height="329.88" enable-background="new 0 0 330 200" version="1.1" viewBox="0 0 306 329.88" xmlns="http://www.w3.org/2000/svg" xmlns:cc="http://creativecommons.org/ns#" xmlns:dc="http://purl.org/dc/elements/1.1/" xmlns:rdf="http://www.w3.org/1999/02/22-rdf-syntax-ns#">
 <metadata>
  <rdf:RDF>
   <cc:Work rdf:about="">
    <dc:format>image/svg+xml</dc:format>
    <dc:type rdf:resource="http://purl.org/dc/dcmitype/StillImage"/>
    <dc:title/>
   </cc:Work>
  </rdf:RDF>
 </metadata>
 <g transform="matrix(3.4534 0 0 3.4534 -139.91 -149.8)" stroke-width=".28957">
  <path d="m93.653 56.127c0.18426 0.28386 0.42514 0.53386 0.45054 0.81901 0.27017 0.83399 1.0397 1.3301 1.1328 2.183 0.0319 0.27994 0.40234 0.39192 0.59376 0.51953 0.20702 0.26367 0.0657 0.5638 0.46614 0.95963 0.1862 0.11973 0.0411 0.42318 0.0775 0.70442 0.1836 0.12494 0.38477 0.24806 0.57357 0.37306 1.7207 2.6979 1.8893 5.8333-0.10933 8.7383-0.32357 0.31836-0.62825 0.77474-0.75977 1.2187-0.15755 0.15951-0.49154 0.33204-0.66015 0.48894 0.0391 0.28646 0.22525 0.4095 0.43489 0.67578-0.86458 0.22722-0.96224 0.94856-1.6243 1.4447-0.1771 0.0107-0.52606 0.0456-0.70314 0.0612-0.48372 0.47982-0.99609 0.66666-1.4987 1.0026-0.15429 0.15755-0.112 0.58072-0.0964 0.72396-0.82031 0.64777-2.0215 1.0482-3.2747 1.0215-0.17579 0.0176-0.30535 0.45703-0.48047 0.47331-0.88737 0.0865-1.9577 0.0429-2.8405 0.12493-0.3685-0.11133-0.57554-0.37305-0.94727-0.48437-0.35157 0.0357-0.70183 0.0657-1.0703-0.0397-0.57812-0.37956-1.3014-0.45181-1.8659-0.6862-0.36784-0.112-1.0397 0.23828-1.4238-9e-3 -1.1901-1.0352-2.3639-2.069-3.0228-3.153-0.43035-0.67317-1.1719-0.89388-1.4245-1.5833-0.03-0.28451 0.10226-0.72331-0.26563-0.83528-0.73762-0.2155-0.43294-0.67319-0.48308-1.0983-0.22069-0.40431-0.25194-0.6888-0.65169-1.084-0.22851-0.4056 0.0632-1.0059-0.17317-1.5573-0.012-0.14063 0.14974-0.30208 0.13346-0.44076-0.27538-0.83268 0.16471-1.7331 0.0892-2.4408-0.0547-0.42318 0.0612-1.0078 0.19076-1.4486 0.4388-0.90169 0.85547-1.9408 1.6445-2.8756-0.0156-0.13867-0.0456-0.42058-0.0592-0.5625 0.1595-0.16081 0.33723-0.17448 0.49414-0.33594 0.27994-0.73958 0.5703-1.3398 1.0345-1.9531 0.63022-0.7741 1.6244-1.4401 2.4323-2.2331 0.47721-0.47461 1.1556-0.82097 1.6016-1.5846 0.16732-0.15495 0.72721 0.0795 0.89128-0.0775 0.4785-0.47525 1.1986-0.40038 1.6992-0.73437 0.49869-0.33008 0.40039 0.39063 0.91211 0.19988 0.35482-0.0339 0.51433-0.18881 0.84896-0.36849 0.51628-0.18946 1.0964 0.18358 1.64 0.27864 0.528-0.0495 1.071 0.0436 1.651 0.41928 0.76953 0.49804 2.5345 0.32942 2.8164 1.3079 0.4323 0.67123 1.1966 1.1758 1.6263 1.8476z" fill="#be1135"/>
  <g fill="#2e86d0">
   <path d="m123.53 67.325c-0.0156-0.44075 0-0.70963-0.17448-1.1784-0.0501-0.4388 0.30012-0.92968 0.14973-1.5352-0.10026-0.16146-0.32552-0.35548-0.29622-0.49349 0.29622-0.92579 0.31901-1.7786 0.24609-2.791-0.0723-0.3047-0.17512-0.46876-0.27539-0.63478 0.0208-0.13606 0.0729-0.4095 0.12307-0.68033 0.0253-0.85091-0.24936-1.4805-0.4974-2.25-0.0755-0.29753-0.30469-0.49089-0.35352-0.92839-0.0976-0.16536-0.32291-0.36068-0.30013-0.49478 0.22526-1.235-0.37564-2.2227-0.55274-3.3984-0.27213-1.3451-1.5449-2.194-1.9473-3.5632 0.0176-0.13607 0.43685-0.0795 0.56381-0.0495 0.99479 0.93099 2.0976 2.0241 2.3776 3.3691 0.17252 0.46811 0.0976 0.87631 0.30273 1.2051 0.84115 1.0404 0.99415 2.3548 1.1439 3.6712-0.0248 0.13932 0.2526 0.0527 0.34766 0.22331-0.0156 0.1341-0.0677 0.40689 0.0325 0.57356 0.64843 0.71224 0.25 1.4766 0.375 2.2174 0.0775 0.30469 0.17317 0.46419 0.27343 0.63021-0.0253 0.13932-0.34831 0.49804-0.37564 0.63216 0.52798 0.68555 0.75325 1.5885 0.60481 2.4089 0.60091 0.2806 0.33008 1.0696 0.47071 1.6745 0.10093 0.16601 0.23046 0.194 0.35546 0.21353 0.17318-0.24023 0.3431-0.48893 0.39779-0.76432 0.0755-1.1237 0.12307-2.1061-0.0801-3.1458-0.16992-0.46876-0.22916-0.90494 0.10093-1.2624-0.25064-0.0567-0.33007-0.35677-0.42577-0.52539-0.45248-1.806-0.63478-3.8333-1.1712-5.6849 0 0 0.14519-0.1048 0.17513-0.24348-0.19141-1.6166-1.4193-3.1413-2.0111-4.7741-0.0885-0.29297-0.5638-0.64193-0.78516-0.95052 0 0 0.0143-0.14128 0.03-0.27994 0.63476 0.086 1.1133 0.69792 1.4518 1.1712 0.65495 0.93424 1.4147 1.972 1.6146 3.0143 0.34765 0.93034 0.86392 1.9102 1.0762 2.8203 0.13607 0.60547 0.57292 1.0006 0.86589 1.502 0.16211 0.47071 0.082 0.87695 0.12374 1.319 0.17513 1.0443 0.49609 2.0586 0.69596 3.1003 0.2474 0.76628 0.35417 1.6419 0.10026 2.3021-0.3457 1.2057 0.44987 2.5221 0.77279 3.5898 0.18033 0.46744-0.0481 0.98697-0.24544 1.3711-0.0208 0.13411 0.19727 0.33008 0.16992 0.46159-0.22005 0.52408-0.0429 0.99023-0.14257 1.5384-0.14779 0.10867 0.16992 0.46354 0 0.70703-0.14779 0.114-0.27084 0.0865-0.4297 0.19596-0.19401 0.38412-0.0189 0.85027-0.0976 1.2604-0.40104 0.76626-0.19141 1.8079-0.94206 2.3561-0.27734 0.082-0.30274 0.22069-0.45507 0.33006 0.12493 0.0293 0.22785 0.19272 0.32552 0.35678-0.14779 0.1068-0.27279 0.0795-0.42123 0.18945-0.054 0.27475 0.48047 0.61133 0.58008 0.77084-0.20442 1.1029-1.0182 2.0579-0.9987 3.3502-0.0449 0.27279-0.12694 0.68099-0.16992 0.95704-0.2526 0.6608-0.73047 1.1244-0.98047 1.78-0.0411 0.27279-0.57161 0.30468-0.62369 0.58203-0.32358 0.35026-0.29102 0.92838-0.52019 1.4492-0.17123 0.24545-0.55143 0.16407-0.85156 0.38217-0.34571 0.49154-0.29817 0.93164-0.51823 1.4512-0.38021 0.63412-0.83269 1.3099-1.2064 1.9375-0.42514 0.9056-1.1413 1.7793-1.9147 2.4642-0.1276-0.0253-0.4004 0.0567-0.55079 0.16341-0.39518 0.76953-0.85481 1.347-1.7038 1.7285-0.1296-0.0201-0.31185 0.57096-0.45899 0.68033-0.58658 0.4388-0.92578 0.93099-1.6335 1.3425-0.26627 0.086-0.41406 0.19401-0.70963-0.30014-0.92188 1.6465-2.1641 2.9342-3.513 4.0573-0.70442 0.4121-1.416 0.36653-1.8828 0.82877-1.5332 1.5104-3.9674 3.1113-4.2494 3.3366-0.11586-0.0319-0.58268 0.66862-0.58268 0.66862-0.49544 0.0436-0.20833 0.0865-0.67057-0.0195 0 0-0.0208 0.77538-0.64323 0.90234-1.3203 0.26172-1.668 1.793-1.7676 2.4277-0.0527 0.31054-0.27604 0.0951-0.43034 0.22461-0.14322 0.12827-0.0404 0.3164-0.19792 0.44531-0.57356 0.35352-1.0618 1.0566-1.5404 1.599-0.15169 0.12626-0.2474-0.0651-0.39778 0.0691-0.1504 0.12306-0.84766 0.99478-1.1061 1.7565-0.59766 1.3372-1.2526 2.5293-2.0833 3.474-0.19986 0.22916 0.47135 1.1185 0.42123 1.4232-0.19336 0.42057-0.57357 0.48958-0.75717 0.91276-0.17578 1.0482-0.22266 2.2122-0.40104 3.3229-0.30012 1.0807 0.0749 1.8516 0.2168 2.8157 0.16601 0.81446-0.0411 1.8633 0 2.6504 0.0592 0.63672 0.49024 1.3327 0.41862 1.9492 0.0248 0.94922-0.19141 0.82161 0.0136 1.6198-0.0273 0.46354-0.18229 0.92578-0.0755 1.2467-0.0364 0.62045-0.13412 1.0104-0.16863 1.6309-0.13411 0.14779-0.40495 0.44271-0.41405 0.59831-0.0951 1.558-1.1165 2.9297-2.1856 3.9557-0.65495 0.42252-1.2285 1.0736-1.9883 1.0163-0.38216-0.0221-1.6465 0.7806-2.0703 0.88281-1.1211 0.3138-2.013 0.32098-3.0859 0.17319-1.183-0.32553-2.125-0.61849-2.9414-1.8333-0.48046-0.53972-1.317-0.3366-1.6315-1.1667-0.0905-0.33008-0.77279-0.49611-0.88932-0.67188-0.61915-0.55924-0.94858-1.2324-1.4128-1.9245-0.3138-0.82748-0.0885-1.3965-0.46615-2.1992-0.38607-0.48959-0.55469-0.83986-0.9388-1.3307-0.51693-0.65494 0.11587-1.5964-0.26172-2.2454-0.26368-0.17319-0.52409-0.50066-0.64909-0.82098-0.24804-0.63672-0.18815-1.5651-0.57031-2.2428-0.20704-0.81186-0.0755-3.7468 0.084-4.5384 0.0293-0.16081-0.42513-0.38152-0.403-0.54297 0.0637-1.1406 0.45964-2.248 0.36849-3.4219 0.11654-0.6302 0.0639-1.14 0.63476-1.6784 0 0-0.27213-0.21874-0.24349-0.3776 0.33269-0.91861 0.33269-1.6243 0.51497-2.582 0.0287-0.15626 0.36068-0.25 0.38803-0.41147-0.18164-0.69791-0.1862-2.1159-0.0657-2.7506 0.0619-0.31316 0.8737-0.78712 1.0671-1.071 0.0273-0.15624-0.1204-0.56446 0.1862-1.1126 0.0781-0.13412 0.29362-0.0951 0.45116-0.22265 0.0221-0.15951-0.0795-0.34766-0.0508-0.5026 0.0775-0.47527 0.87826-0.82098 0.93815-1.1354 0.31316-1.0775 0.85483-1.526 1.4219-2.4023 0.20377-0.38608 0.2832-0.79557 0.61784-1.153 0.14779-0.1068 0.22591-4e-3 0.24804-0.14062 0.0248-0.13672-0.0456-0.4414-0.0221-0.57292 0.3177-0.36003 0.7565-0.68815 0.82748-1.099 0.22525-0.52148 0.41601-0.9056 0.73306-1.2643 0.58855-0.4375 1.1751-0.87891 1.5365-1.5039 0.31445-0.36003 0.68034-0.27408 1.0013-0.63281 0.45964-0.46615 0.58464-1.151 0.92839-1.6445 0.80729-0.96224 1.681-1.6198 2.5612-2.2773 0.72787-0.55079 1.6582-0.76888 2.3659-1.1797 0.72983-0.54688 1.1693-1.5905 1.877-2.002 0.4362-0.33008 0.94987-0.35483 1.3919-0.68555 0.44076-0.32682 0.80535-0.95704 1.4622-1.0957 1.4583-0.38738 0.41601 0.0248 1.7812-0.52344 0.85287-0.51888 0.49544-0.66342 1.3555-1.1849 1.4128-0.82877 2.1471-1.3496 2.2682-1.3197 0.14518-0.11134 0.29166-0.22006 0.34114-0.49544 0.3392-0.49415 2.1543-1.7637 2.4225-1.8457 0.26822-0.0833 0.58398 0.27084 0.89908-0.0833 0.16993-0.2461-0.16862-0.4694 0-0.71484 0.46354-0.46355 0.9069-1.0944 1.362-1.4238 0.14323-0.1068 0.50066 0.11 0.77344 0.028 0.14779-0.10813 0.19596-0.38543 0.34831-0.48699 0.17512-0.25-0.15235-0.60806 0.0221-0.85546 0.20247-0.38476 0.39844-0.76432 0.67578-0.84636 0.42513-0.19596 0.99609-0.49348 0.92578-0.79427 0.0957-0.55013 0.31836-1.0742 0.8991-1.3737 0.0201-0.13478 0.0495-0.27735 0.0723-0.40951 0.32096-0.35743 0.6211-0.57292 0.95312-0.93295 0.33855-0.49284 0.19402-1.0963 0.39323-1.4805 0.65104-0.71224 1.2748-1.2852 1.4466-2.2448-0.0495-0.4362-0.32226-1.071-0.1244-1.4544 0.17514-0.2448 0.72527-0.41081 0.77475-0.681 0.10093-0.55208-0.17448-1.1816-0.20183-1.7565 0.0755-0.41016 0.52083-0.74024 0.47331-1.1764-0.0508-1.1556 0.0273-2.2793-0.15039-3.4577 0.39583-0.0527 0.45052-0.32747 0.4987-0.60286-0.1028-0.8763-0.60091-1.6947-0.82423-2.6042-0.0248-0.57356 0.44401-1.0397 0.42384-1.6133-0.0508-0.4388-0.47136-0.95964-0.92644-1.3444-0.42317-0.52084-0.14973-1.3118-0.30013-1.9173-0.12307-0.73959-0.67578-1.2897-0.77083-2.1634-0.0521-0.4414-0.58073-0.41211-0.75325-0.87826-0.15235-0.60286-0.29819-1.2051-0.29819-1.9193-0.0768-0.30014-0.47721-0.2461-0.70312-0.43751-0.50195-0.82291-0.32161-2.4928-1.4277-2.877 0.0996-0.54882-0.39388-0.6582-0.57552-1.1217 0.65038 0 1.2506 0.27344 1.6237 1.0677 0.1048 0.16342 0.47592 0.24479 0.60352 0.27475 0.32683 0.35481 0.29948 1.2051 0.65235 1.4258 0.44792 0.38022 1.1217 0.24415 1.2943 0.70964 0.2526 0.76498 0.82552 1.179 1.1081 1.8112-0.03 0.13346 0.0429 0.43359 0.14323 0.60026 0.45443 0.38541 0.5 0.82161 0.82356 1.1784 0.74609 0.8737 1.5032 1.7565 1.1504 2.9596-0.21811 0.52344 0.45312 0.38216 0.64843 0.70963 0.50781 0.82617 0.30274 1.9219 0.95573 2.6322-0.12307 1.3984 0.55079 2.6908 0.97787 3.9186-0.72527 1.1263-0.32487 3.0937 0.25065 4.2155 0 0 0.39973-0.0527 0.42968-0.1888 0.11853-0.68424 1.3666-0.91407 1.1647-1.2422-0.24805-0.76888-0.62565-2.3724-0.62565-3.0827 0.0781-1.1256 0.12493-2.112-0.0547-3.291-0.0976-0.16603-0.19791-0.32943-0.29361-0.49349-0.15235-0.60287-0.30014-1.2083-0.17774-1.8906-0.0749-0.30273-0.30208-0.49609-0.375-0.79167 0.0253-0.14062 0.0729-0.41341 0.10027-0.54817 0.27475-0.084 0.62371 0.13476 0.86849 0.1914 0.23243 0.19076 0.03 0.57096 0.13214 0.73763 0.39844 0.6595 0.9987 0.9349 1.1237 1.6712-0.0248 0.13607-0.0749 0.41147-0.0951 0.54754 0.0951 0.87629 0.61913 1.5631 0.74609 2.3053 0.0521 0.4362-0.32097 1.0658-0.14584 1.5364 0.57097 1.1198 0.59636 2.4069 0.50716 3.6673-0.10227 0.54819 0.5892 0.98568 0.38868 1.3698-0.19011 0.38411 0.058 0.4388-0.14713 0.82291-0.0253 0.13672-0.30079 0.21876-0.32098 0.35483 0.37306 0.79686-0.19336 1.9993-0.31836 2.6875-0.0228 0.13607 0.42514 0.28191 0.51628-0.21809 0.0567-0.30795 0.57552-0.30339 0.84831-0.38542 0.30469-0.22266 0.52344-0.74154 0.49805-1.3171m2.6888 2.7389c0.0273-0.69596 0.35287-1.2031 0.22787-1.9427-0.24545-0.76888-0.81445-7e-3 -1.2148 0.0501 0.22721 0.90298-0.14779 1.5332-0.42512 2.3223-0.17123 0.25-0.29363 0.93555 0.10226 0.87826 0.6302 0.14322 1.2923-0.45639 1.3099-1.308m-1.0658 3.7539c0.1582-0.21875 0.0879-0.66016-0.14648-0.85352-0.34311-0.21614-0.79363 0.11133-0.99415 0.49609-0.19987 0.38412-0.0521 0.98893 0.47787 0.95769 0.12306 0.0312 0.49089-0.34766 0.66276-0.60026z"/>
   <path d="m117.81 50.44c0.66341 0.50194 0.92317 1.3411 1.4551 2.0286l-0.0573 0.2754c-0.92317 0.79426-1.724-0.5215-1.974-1.2897-0.37565-0.79623-0.74609-1.5898-1.4238-2.1628 0.0228-0.13932 0.0481-0.278 0.0775-0.41407-0.32942-0.35807-0.74804-0.87435-0.32942-1.067 0.17448-0.24544 0.48177 0.24805 0.82748 0.46028 0.52344 0.69076 0.62369 1.5625 1.4245 2.1693z"/>
   <path d="m121.59 46.923c0.0107 0.13868-0.21354 0.375-0.24349 0.50912-0.4362-0.40038-0.86719-0.80469-1.2487-1.4766-0.11974-0.0377-0.37044-0.0996-0.46484-0.27018-0.1224-0.0345-0.0924-0.16602-0.0605-0.30208 0.39779-0.0391 0.70768 0.33202 1.0553 0.56314 0.12106 0.0352 0.27604-0.0697 0.39778-0.0377 0.33659 0.23568 0.528 0.57031 0.56446 1.0143z"/>
  </g>
  <path d="m65.201 72.146c0.11787 0.0951 0.29752 0.2474 0.38932 0.375 0.20248 0.13213 0.41147 0.14778 0.63021 0.0521 0.20183 0.0136 0.39127 0.55077 0.60222 0.5664 0.29622 0.13932 0.48958 0.67317 0.7832 0.93099 0.19726 0.12893 0.40625 0.32032 0.61133 0.45442 0.27995 0.3659 0.46679 0.72527 0.76172 0.97527 0.194 0.25065 0.50976 0.16145 0.71875 0.17839 0.41016 0.14713 0.57552 0.73697 0.86522 1.1029 0.10414 9e-3 0.28647 0.3711 0.27931 0.48698 0.19791 0.12893 0.38672 0.37044 0.6914 0.51172 0.0937 0.1276 0.082 0.35221 0.17579 0.47721 0.7526 1.2129 1.7415 1.9792 2.3815 3.2982 0 0 0.082 0.23894 0.0795 0.35352 0.778 0.75522 1.1165 1.8171 1.7878 2.6771 0.18229 0.35743 0.35221 0.94662 0.52084 1.4193 0.19856 0.24804 0.39648 0.3776 0.58268 0.62826 0.28385 0.47916 0.55468 1.0801 0.61848 1.6582-0.0163 0.22721-0.16992 0.90494-0.569 0.52734-0.48438-0.5-0.43164-1.1803-0.92774-1.5716 7e-3 -0.112-0.12493-0.41212-0.22526-0.52735-0.20052-0.24218-0.55729-0.22786-0.63672-0.57422 0.0208-0.3457-0.36459-0.625-0.55924-0.86392-0.49609-0.71224-1.2148-0.97331-1.8106-1.6921-0.10746-4e-3 -0.2168-9e-3 -0.32357 0.0996-0.11387 0.22265-0.4388 0.55273-0.13607 0.91211 0.40495 0.2487 0.59571 0.71614 1.112 0.96874 0.30208 0.2461 0.3776 0.94011 0.5664 1.5228 0.19531 0.23373 0.39844 0.47267 0.70508 0.60677 0.30533 0.2409 0.18489 0.60483 0.4668 0.97592-5e-3 0.1152-0.11853 0.21875-0.1276 0.33398 0.1862 0.36198 0.60546 0.27734 0.89649 0.64649 0.22656-0.21159 0.53124-0.0384 0.71615 0.29167-0.34376 0.3203-0.25262 0.55468-0.38478 0.89582-0.35221 0.53711 0.44596 1.0619 0.94662 1.332 0.31576 0.028 0.27474 0.60156 0.57161 0.85156 0.17904 0.36198 0.69988 0.4043 0.98243 0.88932 0.0879 0.23438-0.13027 0.33464-0.25066 0.55079-0.0319 0.34504 0.38216 0.49348 0.57552 0.62564 0.19987 0.13147 0.29167 0.36915 0.37826 0.60677-0.319 0.0865-0.93555-0.34114-1.2494-0.36522-0.19401-0.0899-0.57096-0.54428-0.97331-0.63152-0.14192-0.0312-0.23437 0.30144-0.3776 0.27149-0.19596-0.0345-0.39648-0.0775-0.60352-0.11133-0.22005-0.0416-0.74804-0.62631-0.97786-0.66016-0.26107-0.0456-0.57812 0.43425-0.82943 0.38868-0.94465-0.16147-0.98372-0.2194-1.2747-0.34702-0.35027-0.13932-0.68295-0.30077-0.99609-0.4785-0.19792-0.10867-0.14584-0.37956-0.33204-0.50262-0.1914-0.1244-0.60091-0.12306-0.79231-0.24284-0.75456-0.45768-1.4668-1.5039-2.1107-1.8359-0.42057-0.22071-0.778-0.43749-1.2487-0.66471-0.23112-0.14518-0.39324-0.46158-0.68035-0.55925-0.88932-0.29817-1.5964-0.85937-2.6042-1.1419-1.9082-0.54101-3.4987 0.55273-5.0501 1.3581-0.0847-5e-3 -0.24806-0.0163-0.33464 0.0411-0.35416 0.3021-0.77995 0.47071-1.1309 0.70508-0.47917 0.38216-1.1478 0.48178-1.6855 0.79623-0.16732 0.0996-0.18555 0.40691-0.34702 0.50781-0.25976 0.14714-0.70768 0.17708-0.95572 0.33464-0.22266 0.14192-0.25716 0.4108-0.4733 0.57227-0.44792 0.35937-0.88478 0.65299-1.485 0.93749-0.34571 0.17318-3.207 0.66407-3.6856 0.67058-0.73893 0.0136-1.248 0.62044-2.3496 0.61653-1.6738-9e-3 -3.3483-0.0411-4.7402-1.0762-0.28905-0.25651-0.34569-0.94987-0.54621-1.0827-0.59767-0.39127-0.54103-1.1895-0.70704-1.778-0.20052-0.1328-0.61719-0.16407-0.58984-0.51043 0.22786-1.7077 1.0723-3.2506 2.1094-4.4284 0.23828-0.44335 0.77539-0.63086 0.82096-1.2012 0 0 0.93295-1.3054 1.4896-1.834 0.12493-0.22005-0.0585-0.58204 0.0644-0.80079 0.85286-1.6575 2.4062-2.7975 3.6641-4.3034 0.33724-0.3164 0.57943-0.75716 1.1055-0.83072 0.21615 0.0143 0.41667 0.0325 0.53907-0.18555 0.25064-0.55535 0.694-0.86524 1.0215-1.0697 1.2148-0.82292 2.2318-2.0677 3.61-2.2949 0.21615-0.10226 0.33854-0.31641 0.55078-0.41928 0.23373-0.21093 0.62761 0.0528 0.84376-0.0449 1.0273-0.46419 1.9674-1.4603 3.0234-1.6035 0.21549-0.0931 0.33658-0.31641 0.43814-0.30925 0.93686 0.0795 2.0456-0.75129 2.9238 0.12893 0.79297-0.16536 1.9779 0 2.4811 0.43099m7.1771 10.04c1e-3 -0.1152 4e-3 -0.22916 0.0133-0.34309-0.41406-0.25262-0.59114-0.94923-1.1094-1.0872-0.10547-4e-3 -0.31707 0.10026-0.32552 0.21353-0.0221 0.68945 0.27083 1.1628 0.55989 1.7468 0.1224-0.44987 0.43164-0.43424 0.63476-0.0853 0.10414-0.10546 0.21615-0.32878 0.22722-0.44466z" fill="#359a3e"/>
 </g>
</svg>
