<?xml version="1.0" encoding="UTF-8"?>
<svg width="600px" height="600px" version="1.1" viewBox="0 0 600 600" xmlns="http://www.w3.org/2000/svg">
 <defs>
  <linearGradient id="linear0" x1="2.104" x2="75.879" y1="81.318" y2="62.746" gradientTransform="scale(8.0228)" gradientUnits="userSpaceOnUse">
   <stop stop-color="#0085cd" offset=".25"/>
   <stop stop-color="#5f1985" offset=".8"/>
  </linearGradient>
  <linearGradient id="linear1" x1="-2.6934" x2="53.334" y1="10.237" y2="-8.2323" gradientTransform="scale(8.0228)" gradientUnits="userSpaceOnUse">
   <stop stop-color="#e3007f" offset=".2"/>
   <stop stop-color="#9f0c81" offset=".546"/>
   <stop stop-color="#5f1985" offset=".9"/>
  </linearGradient>
  <linearGradient id="linear2" x1=".353" x2="74.748" y1="21.812" y2="21.812" gradientTransform="scale(8.0228)" gradientUnits="userSpaceOnUse">
   <stop stop-color="#ea6ca3" offset=".1"/>
   <stop stop-color="#e85b9d" offset=".2003"/>
   <stop stop-color="#e51987" offset=".6081"/>
   <stop stop-color="#e3007f" offset=".8"/>
  </linearGradient>
  <linearGradient id="linear3" x1="-6.0352" x2="43.7" y1="64.333" y2="33.481" gradientTransform="scale(8.0228)" gradientUnits="userSpaceOnUse">
   <stop stop-color="#5f1985" offset="0"/>
   <stop stop-color="#e3007f" offset=".5"/>
   <stop stop-color="#e30580" offset=".58"/>
   <stop stop-color="#e41786" offset=".6865"/>
   <stop stop-color="#e5318f" offset=".8079"/>
   <stop stop-color="#e8599c" offset=".9393"/>
   <stop stop-color="#ea6ca3" offset="1"/>
  </linearGradient>
  <linearGradient id="linear4" x1="28.981" x2="34.698" y1="47.914" y2="28.058" gradientTransform="scale(8.0228)" gradientUnits="userSpaceOnUse">
   <stop stop-color="#878787" offset=".15"/>
   <stop stop-color="#878787" stop-opacity="0" offset="1"/>
  </linearGradient>
 </defs>
 <g id="surface1">
  <path d="m0 600h450l150-150-8.957-2.8906-587.45 145.59z" fill="url(#linear0)"/>
  <path d="m0 0v150l13.566 2.8906 435.79-138.33 0.64844-14.562z" fill="url(#linear1)"/>
  <path d="m0 150 5.2578 17.746 376.23 188.55 18.504-6.3008 200.01-199.99-150-150z" fill="url(#linear2)"/>
  <path d="m0 150v450l600-150-587.65-293.82z" fill="url(#linear3)"/>
  <path d="m600 150-150-150-450 150 10.68 5.3359 389.31 194.66z" fill="url(#linear4)"/>
 </g>
</svg>
