<?xml version="1.0" encoding="UTF-8" standalone="no"?>
<!-- Generator: Adobe Illustrator 13.0.0, SVG Export Plug-In  -->

<svg
   xmlns:dc="http://purl.org/dc/elements/1.1/"
   xmlns:cc="http://creativecommons.org/ns#"
   xmlns:rdf="http://www.w3.org/1999/02/22-rdf-syntax-ns#"
   xmlns:svg="http://www.w3.org/2000/svg"
   xmlns="http://www.w3.org/2000/svg"
   xmlns:sodipodi="http://sodipodi.sourceforge.net/DTD/sodipodi-0.dtd"
   xmlns:inkscape="http://www.inkscape.org/namespaces/inkscape"
   version="1.1"
   x="0px"
   y="0px"
   width="220px"
   height="220px"
   viewBox="-10 -40.798 220 220"
   enable-background="new -10 -40.798 220 220"
   xml:space="preserve"
   id="svg2"
   inkscape:version="0.48.1 "
   sodipodi:docname="20090407215444!Symbol_of_Jeonbuk.svg"><metadata
   id="metadata16"><rdf:RDF><cc:Work
       rdf:about=""><dc:format>image/svg+xml</dc:format><dc:type
         rdf:resource="http://purl.org/dc/dcmitype/StillImage" /></cc:Work></rdf:RDF></metadata><sodipodi:namedview
   pagecolor="#ffffff"
   bordercolor="#666666"
   borderopacity="1"
   objecttolerance="10"
   gridtolerance="10"
   guidetolerance="10"
   inkscape:pageopacity="0"
   inkscape:pageshadow="2"
   inkscape:window-width="1280"
   inkscape:window-height="738"
   id="namedview14"
   showgrid="false"
   inkscape:zoom="1.1863636"
   inkscape:cx="110"
   inkscape:cy="177.43295"
   inkscape:window-x="-8"
   inkscape:window-y="-8"
   inkscape:window-maximized="1"
   inkscape:current-layer="svg2" />
<defs
   id="defs4">
<inkscape:perspective
   id="perspective25"
   inkscape:persp3d-origin="159.375 : 117.91667 : 1"
   inkscape:vp_z="318.75 : 176.875 : 1"
   inkscape:vp_y="0 : 1000 : 0"
   inkscape:vp_x="0 : 176.875 : 1"
   sodipodi:type="inkscape:persp3d" /><inkscape:perspective
   id="perspective15"
   inkscape:persp3d-origin="78.125 : 52.083333 : 1"
   inkscape:vp_z="156.25 : 78.125 : 1"
   inkscape:vp_y="0 : 1000 : 0"
   inkscape:vp_x="0 : 78.125 : 1"
   sodipodi:type="inkscape:persp3d" /></defs>




<g
   id="g3050"
   transform="matrix(1.651955,0,0,1.6519564,-5.5791499,-27.957302)"><path
     sodipodi:nodetypes="cccccccccccccccccccccccccccc"
     id="path6"
     d="m 69.4,8.3 c 5.1,3.4 9.2,8.1 13.4,12.5 -0.4,1.9 -0.9,4.3 -3.1,4.8 -5.6,1.4 -10.9,-2.5 -16.5,-1.2 -1.7,1 -1.8,3 -1.5,4.7 7.9,2.5 14.9,7.7 20.8,13.4 3.6,4.3 7.1,9 12,12 4.7,3.1 10.5,3.3 16,3.3 -0.4,7.1 -2.1,14.1 -2.3,21.2 2.7,-0.1 5.1,-1.3 7.6,-2 2.6,5.2 4.05075,9.02657 6.05075,14.42657 2.22418,7.695514 1.07582,3.328664 2.54835,9.87552 -7.7,6 -18.9991,8.89791 -28.4991,7.79791 -11,-1.8 -22,-4.4 -32.9,-7.1 -5.8,-2 -12,-1.8 -18,-2.1 -13.2,-0.5 -27,0.8 -39,7 -1.5,0.5 -2.9765863,1.56944 -2.4765863,0.96944 L 3.7,107.6 C 11.5,97.9 19,88 25.5,77.5 c 1.8,-3.7 6.4,-4 9.9,-5 17.4,-4.4 35.4,0.3 51.8,6.4 4,1.7 8.4,1.7 12.7,1.6 C 93.2,77.3 86.2,74.4 80.5,69.5 75.2,65.1 72.1,58.6 66.9,54.1 61.2,48.4 53.3,44.5 45.1,45.4 c 4.5,-9.8 10.5,-18.9 14.6,-29 1.9,-4.2 7.1,-2.1 10.8,-2.7 0.1,-1.9 -0.3,-3.8 -1.1,-5.4 z"
     inkscape:connector-curvature="0"
     style="fill:#34b1bc;stroke:#34b1bc;stroke-width:0.09375" /><path
     id="path8"
     d="m 44.2,47.3 c 2.7,-1.4 5.9,-1 8.8,-0.7 4.3,1.8 7.8,5.8 8.3,10.5 C 62.1,64.6 54.4,71.7 47,69.9 41.6,68.8 37.1,63.6 37.4,58 37.2,53.4 40.5,49.6 44.2,47.3 z"
     inkscape:connector-curvature="0"
     style="fill:#fa683f;stroke:#fa683f;stroke-width:0.09375" /></g></svg>