<?xml version="1.0" encoding="UTF-8"?>
<svg id="svg42" width="850" height="311.45" version="1.1" viewBox="0 0 850 311.45" xmlns="http://www.w3.org/2000/svg" xmlns:cc="http://creativecommons.org/ns#" xmlns:dc="http://purl.org/dc/elements/1.1/" xmlns:rdf="http://www.w3.org/1999/02/22-rdf-syntax-ns#">
 <metadata id="metadata48">
  <rdf:RDF>
   <cc:Work rdf:about="">
    <dc:format>image/svg+xml</dc:format>
    <dc:type rdf:resource="http://purl.org/dc/dcmitype/StillImage"/>
    <dc:title/>
   </cc:Work>
  </rdf:RDF>
 </metadata>
 <g id="g40" transform="translate(-250 -200)">
  <g id="g22">
   <path id="path4" d="m800.53 287.17h-256.88v-87.169h256.88z" fill="#02983b"/>
   <g id="g8">
    <path id="path6" transform="matrix(1.9126 0 0 -1.9126 773.32 392.5)" d="m0 0-120.08-62.198v48.418l134.31 68.851v-30.292c0-10.22-4.399-19.691-14.229-24.779" fill="#004097"/>
   </g>
   <path id="path10" d="m1100 287.17h-262.7v-87.169h262.7z" fill="#02983b"/>
   <path id="path12" d="m506.88 287.17h-256.88v-87.169h256.88z" fill="#02983b"/>
   <g id="g16">
    <path id="path14" transform="matrix(1.9126 0 0 -1.9126 479.68 392.5)" d="m0 0-120.09-62.198v48.418l134.31 68.851v-30.292c0-10.22-4.405-19.691-14.224-24.779" fill="#004097"/>
   </g>
   <g id="g20">
    <path id="path18" transform="matrix(1.9126 0 0 -1.9126 837.3 363.35)" d="m0 0v-23.377c0-12.262 9.942-22.202 22.206-22.202h115.15v45.579z" fill="#004097"/>
   </g>
  </g>
 </g>
</svg>
