<?xml version="1.0" encoding="utf-8"?>
<!-- Generator: Adobe Illustrator 13.0.0, SVG Export Plug-In  -->
<!DOCTYPE svg PUBLIC "-//W3C//DTD SVG 1.1//EN" "http://www.w3.org/Graphics/SVG/1.1/DTD/svg11.dtd" [
	<!ENTITY ns_flows "http://ns.adobe.com/Flows/1.0/">
]>
<svg version="1.1"
	 xmlns="http://www.w3.org/2000/svg" xmlns:xlink="http://www.w3.org/1999/xlink" xmlns:a="http://ns.adobe.com/AdobeSVGViewerExtensions/3.0/"
	 x="0px" y="0px" width="220px" height="220px" viewBox="-10 -30.33 220 220" enable-background="new -10 -30.33 220 220"
	 xml:space="preserve">
<defs>
</defs>
<path fill="#ED1A3B" d="M145.219,0.43c0.813,0.105,1.538,0.432,2.182,0.939c0.348-0.022,0.481,0.571,0.93,0.354
	c0.378,0.592,1.007,0.654,1.467,1.118c-0.104,0.327,0.376,0.056,0.259,0.386h0.127V4.12c0.166,0.091,0.36,0.04,0.554,0.055v0.477
	c0.698-0.022,1.224,0.394,1.889,0.437c0.305,0.166,0.285,0.566,0.592,0.587c0.209,0.149,0.086,0.42,0.347,0.531
	c-0.31,0.55,0.631,0.591,0.359,1.112c0.323,0.109,0.063,0.441,0.366,0.537c0.062,0.542,0.377,0.958,0.708,1.378
	c0.151,0.702,0.953,1.15,0.85,1.958c0.419,0.621,0.392,1.45,0.694,2.142v2.169c-0.408,0.065-0.132,0.659-0.221,0.975
	c-0.117,0.357-0.51,0.608-0.343,1.073c0.018,0.078,0.122,0.022,0.171,0.045c0,0.192-0.049,0.419,0.172,0.53v1.378
	c-0.172,0.292-0.343,0.598-0.525,0.89c0.113,0.283-0.299,0.09-0.16,0.364c-0.156,0.183-0.48,0.29-0.417,0.572h-0.144
	c0.118,0.559-0.354,0.878-0.435,1.375c-0.262,0.095-0.212,0.533-0.54,0.533c0.146,0.248-0.247,0.276-0.177,0.499
	c-0.38,0.066-0.541,0.643-0.974,0.614c-0.568,0.308-0.481,0.963-1.061,1.291c0.21,0.481-0.454,0.358-0.271,0.796
	c-0.211,0.133-0.411,0.299-0.659,0.299c-0.453,0.292-0.902,0.559-1.334,0.818c0.022,0.254-0.276,0.231-0.41,0.355
	c-0.624,0.767-1.377,1.206-2.233,1.47c-0.61,0.179-1.341,0.13-1.859,0.582c-0.461,0.217-1.059,0.067-1.417,0.527
	c-0.293,0.325-0.813,0.077-1.207,0.227c-1.76,0.835-3.679-0.117-5.645,0.133c-0.342-0.226-1.355,0.154-1.013-0.67l-0.574-0.094
	v-0.842c-0.238,0.022-0.471,0.316-0.722,0.491c-0.109-0.182-0.148-0.397-0.447-0.354c-0.222,0.211-0.482,0.267-0.558,0.582
	c-0.172,0.067-0.229-0.116-0.334-0.189c0.067-0.262-0.261-0.38-0.392-0.575c-0.354-0.021-0.448,0.575-0.893,0.354
	c-0.037-0.143-0.092-0.26-0.208-0.354c-0.102,0.139-0.315,0.211-0.234,0.404l-0.763,0.525h-0.855
	c0.519-0.269,0.332-0.813,0.363-1.277c0.099,0.022,0.138-0.055,0.192-0.104v-1.001l-0.442-0.593
	c-0.215,0.072-0.04,0.492-0.355,0.358c-0.104,0.069-0.169,0.251-0.318,0.184c-0.034-0.337,0.292-0.647,0.177-1.074l-0.215-0.1
	c0.599-0.37-0.251-0.614,0-1.105c-0.157-0.283-0.417-0.532-0.533-0.836c-0.056-0.084-0.122-0.033-0.193-0.049
	c0.071-0.26-0.136-0.598,0.193-0.764v-1.505c-0.394-0.124,0.013-0.577-0.358-0.715c0.145-0.47-0.426-0.659-0.234-1.151
	c-0.298-0.1-0.039-0.426-0.353-0.532c-0.104-0.349-0.066-0.741-0.395-0.985c-0.038-0.259,0.095-0.601-0.192-0.751
	c0.039-0.829-0.053-1.715,0.115-2.48c0.155-0.41,0.039-0.923,0.077-1.388c0.34-0.142,0.194-0.493,0.222-0.748
	c0.173,0.046,0.25-0.088,0.367-0.176v-0.18c0.215-0.036,0.229-0.512,0.558-0.494l0.1-0.089c-0.028-0.021-0.044-0.067-0.1-0.039
	v-0.133c0.1,0.017,0.138-0.045,0.193-0.094c-0.208-0.42,0.376-0.254,0.178-0.669c0.319-0.126,0.121-0.471,0.171-0.703
	c-0.404-0.199,0.027-0.88-0.349-1.173c0.232-0.503,0.6-0.975,0.89-1.449c-0.026-0.063-0.095-0.056-0.142-0.056
	c0.066-0.238-0.148-0.621,0.165-0.748c-0.118-0.26,0.327-0.276,0.193-0.537c0.139-0.189,0.438-0.309,0.389-0.582
	c0.231,0.084,0.144-0.182,0.231-0.269c0.166-0.218,0.46-0.355,0.499-0.609c0.536,0.095,0.813-0.548,1.138-0.858
	c-0.133-0.304,0.748-0.559,0.195-0.708c-0.143-0.368,0.189-0.431,0.382-0.576c0.682-0.881,1.55-1.236,2.414-1.645
	c0.729-0.137,1.453-0.27,2.175-0.41c0.259-0.048,0.481-0.236,0.813-0.172c0.442-0.712,1.312-0.419,1.859-0.946
	c0.327,0,0.68,0.055,0.917-0.167C142.31,0.157,144.026-0.308,145.219,0.43z"/>
<path fill="#00AEEF" d="M200,154.029c0,2.939-35.659,5.312-79.643,5.312c-43.985,0-79.651-2.372-79.651-5.312
	c0-2.928,35.666-5.303,79.651-5.303C164.34,148.727,200,151.102,200,154.029z"/>
<path fill="#00A664" d="M92.121,22.332c4.942,0.691,9.836,2.674,13.665,5.284c0.93,0.163,1.777-0.092,2.52-0.52
	c-0.409-1.415-1.933-2.779-3.206-3.595c-3.047-1.323-6.533-1.6-9.115-4.067c-0.482,1.034-1.601,1.072-2.632,1.084
	c-1.73-0.288-2.986-1.766-4.901-1.659c-0.559,0.16-0.587,0.784-1.084,1.083c-0.039,0.26,0.105,0.59-0.134,0.78
	c-0.121,0.425-0.065,0.942,0.2,1.284L92.121,22.332z"/>
<path fill="#00A664" d="M150.371,104.646l2.011,1.924c0.541,0.644,0.778,1.219,0.401,2.187c2.354,2.934,7.441,14.266,9.404,17.913
	l0.226-0.775c-0.396-3.524-1.768-2.884-1.46-6.12c-1.149-0.687-0.795-2.611-1.582-3.546c-0.908-2.131-1.307-4.233-2.829-6.123
	c-0.039-0.354-0.694-0.308-0.938-0.59c0.021-2.302-1.983-6.121-3.017-8.006c-0.472-1.374-1.688-3.317-2.198-4.718
	c-1.433-4.155-6.412-10.394-6.551-12.555c-2.23-1.659-2.927-5.292-4.527-7.397c-0.775-1.75-2.052-3.307-3.364-4.828
	c-0.404-1.011-1.545-1.686-2.127-2.616c-0.468-0.532-0.529-1.379-1.168-1.737c-0.568,0.178-0.804-0.383-1.36-0.205l-1.869-2.818
	c-0.692-1.039-1.404-2.178-2.646-2.504c-0.633-0.427-1.145,0.583-1.616-0.269c-0.742-1.087-0.874-2.399-1.622-3.479
	c-0.41-0.363-0.602,0.428-1.005,0.051c-0.201-0.77-0.096-0.899-0.36-1.631c-1.201-0.054-2.12-0.811-2.96-1.689
	c-0.729-0.394-1.31-1.506-2.138-1.163c-1.056,0.475-0.858-0.84-1.516-1.344c-0.09-0.443-0.305-0.853-0.592-1.212
	c-0.525-0.042-0.376-0.892-1.02-0.641c-0.343-0.504-0.687,0.082-1.033,0.116c-0.471-0.509-0.161-1.317-0.254-1.998
	c-0.338-0.105-0.051-0.473-0.4-0.577c-0.57,0.157-1.182,0.089-1.482,0.77c-1.443,0.133-2.363-1.29-3.016-2.451
	c-0.488,0.043-1.086-0.128-1.411,0.316c-0.46,0.07-1.235,0.226-1.355-0.444c-0.272-0.863-0.818-1.648-1.496-2.224
	c-0.729-0.603-1.619-0.593-2.34-1.067c-0.656-0.415-0.877-0.985-1.726-1.296c-0.708-0.237-1.495-0.27-2.205-0.487
	c-1.778-0.553-3.67-0.742-5.484-1.35c-0.517-0.21-0.631-0.298-1.168-0.447c-0.527,0.353-1.113,0.703-1.812,0.458
	c-0.77-0.53-1.702-0.707-2.306-1.604l-0.394,1.421l-1.421,0.11c-0.887,0.072-1.596,0.566-2.324,1.047
	c-1.092,0.039-1.955-0.46-2.767-1.103c-0.483,0.875-1.384,1.284-2.12,1.805c-0.25,0.166-0.668-0.071-0.843,0.265
	c-0.574-0.233-0.796,0.416-1.36,0.182c-0.172,0.46-1.007-0.48-1.007,0.14c0,0.829-1.744,1.222-1.716,0.73
	c-0.371,0.736-0.027,1.461-0.734,2.02c-0.443,0.06-0.654-0.462-0.97-0.692c-1.323-0.01-2.474,0.443-3.742,0.575l-0.396,0.892
	c-0.738,0.383-0.788,1.393-1.151,2.063l-0.327-0.188c-0.396-0.055-0.735,0.068-0.969,0.315c-0.774-0.285-0.635,0.77-1.289,0.644
	c-0.211,0.253-0.703,0.396-1.024,0.601c-0.415,0.111-0.664,0.647-1.112,0.631c-0.393,0.293-0.525,0.796-0.835,1.222
	c-2.258,3.156-3.631,1.974-3.946,1.739c0.172-1.151,1.522-1.886,2.135-2.783c0.748-1.095,1.688-1.512,2.578-2.37
	c0.371-0.364,0.488-0.874,0.891-1.212c0.438-0.387,1.075-0.523,1.496-0.946c0.291-0.283,0.331-0.303,0.708-0.614
	c1.599-1.427,3.828-2.413,4.231-2.977c0.416,0.255,0.875-0.184,1.334-0.089l0.832-0.321c0.442-0.907,1.819-1.359,2.567-1.918
	c0.311,0.325,0.718,0.458,1.199,0.393c0.947-0.329,1.944-0.122,2.481-1.024c0.507-0.571,1.548-0.499,2.12-0.328
	c0.104-0.303,0.208-0.603,0.523-0.829c0.486-0.386,1.151-0.427,1.8-0.386c0.421,0.48,1.21,0.153,1.688,0.523
	c0.475-0.017,1.011,0.067,1.339-0.325c0.364-0.3,0.364-0.771,0.521-1.168c1.792,0.127,3.878-0.41,5.168,0.97
	c2.523-1.024,5.942-0.688,8.171,0.723c2.474,0.875,4.716,2.379,7.088,3.471c0.854,0.038,1.479,0.646,2.264,0.829
	c0.998,0.715,0.92,1.855,1.822,2.596c0.383-0.039,0.83,0.099,1.161-0.133c5.209,2.978,10.066,6.818,14.875,10.773
	c5.757,4.921,15.117,17.385,18.947,23.479c0.48,0.352,1.202,0.828,1.283,1.478c0.354,0.275,0.769,0.984,0.849,1.385
	c0.486,0.795,3.608,5.814,5.019,8.283c0.394,0.686,0.963,1.072,1.827,1.853c-2.325-6.491-7.028-13.437-10.438-19.511
	c-3.403-5.085-6.114-10.414-10.399-15.11c-0.446-0.872-1.268-1.561-2.057-2.182c-0.853-0.919-1.024-2.655-2.633-2.529
	c-0.667-2.275-2.581-4.372-4.654-5.732l-0.687-0.132c-0.084,0.169,0.11,0.23,0.193,0.326c-0.018,0.434,0.088,0.919-0.393,1.167
	c-0.864-0.27-0.921-1.195-1.693-1.688c-1.921-1.423-3.631-3.348-5.606-4.71c-0.434-0.768-1.103-1.326-1.676-1.98
	c-1.563-0.857-3.193-1.542-4.693-2.528c-0.394-0.615-1.294-1.069-1.688-1.817c-0.486-0.048-1.1,0.173-1.482-0.168
	c-2.207-0.293-3.734-2.209-5.615-3.292c-0.787,0.026-1.207-0.825-2.047-0.648c-0.835-0.653-2.158-0.101-3.116-0.445
	c-1.008,0.24-1.571-0.625-2.258-1.16l-0.312,0.307c-0.93,0.527-2.478,0.958-3.429,0.134c-1.072-0.111-2.595-0.487-3.265,0.775
	c-0.892-0.099-1.688-0.353-2.464-0.713c-2.212,0.062-3.955,0.868-6.829,1.262c-1.599,0.991-2.981,0.947-4.58,1.893
	c-0.792,0.443-1.694,0.592-2.363,1.307c-0.653-0.066-1.411,0.503-1.882-0.066c0.022-0.487,0.625-0.792,0.663-1.268
	c1.141-0.604,2.271-1.13,3.144-2.096c1.212-0.268,2.141-1.226,3.398-1.424c0-0.006,0-0.006,0-0.009
	c0.155-0.052,0.316-0.1,0.47-0.139c0.731-0.16,1.479-0.238,2.188-0.42c7.271-1.898,13.113-1.723,18.038-0.52
	c2.124,0.364,4.09,1.088,6.058,1.813c5.812,2.558,11.266,5.877,16.191,10.564c1.506,1.294,4.151,3.974,4.526,3.668
	c0.373-0.294-0.938-1.521-0.967-2.324c-0.393-0.613-0.432-0.808-1.03-1.277c-0.43,0.071-0.797-1.689-1.177-1.327
	c-2.376-2.363-4.587-4.379-7.08-6.481c-3.941-3.216-8.189-5.565-12.771-7.217c-2.164-0.387-4.22-1.057-6.528-1.155
	c-0.902-0.265-1.594-1.096-2.567-1.229c-1.228,0.021-2.684-0.157-3.68,0.642c-1.465-1.066-3.419-0.188-5.031,0
	c-0.315,0.061-0.764,0.415-1.112,0.526c-0.447,0.135-0.916,0.21-1.378,0.253c-0.929,0.068-1.868-0.056-2.766-0.315
	c0.045,1-1.883,1.112-2.522,1.294c-0.228,0.066-0.865,0.476-0.833,0.421c-1.499-0.162-2.406,0.708-3.43,1.622
	c-0.747-0.091-1.881,0.27-1.677-1.046c0.071-0.433,0.432-0.659,0.759-0.914c0.148-0.121,0.382-0.231,0.476-0.376
	c0.049-0.038,0.231-0.387,0.192-0.354c0.051-0.033,1.851-0.973,1.851-0.973c1.085-0.116,2.24-1.189,3.225-0.327
	c0.179-0.786,1.02-0.973,1.61-1.217c0.932,0.072,1.633-0.305,2.199-1.042c1.537-0.353,3.264-0.326,4.967-0.326
	c0.394-0.38,1.063-0.078,1.534-0.254c0.338-0.211,0.978-0.354,0.901-0.837c0.431-0.58-0.021-1.509,0.383-2.056
	c-0.813-1.009-1.678,0.209-2.569,0.182c-0.249-0.289-0.631-0.549-0.769-0.904c-2.324,0.322-4.504,0.91-6.834,1.218
	c-0.377,0.238-0.962,0.614-1.151-0.044c-1.133-0.452-1.822,0.442-2.6,1.017c-0.283-0.042-0.685,0.106-0.896-0.126
	c-1.877,1.483-4.268,1.726-6.187,3.095L63.954,23.1c-0.481,0.035-0.76-0.536-1.102-0.702l-0.105,0.127
	c-1.983,1.29-4.438,1.418-6.67,2.136l-1.15,0.705c-1.366,0.923-0.764,2.877-2.191,3.545h-4.138c-0.538,0.034-0.501,0.658-0.96,0.909
	c0.013,0.408,0.04,0.842-0.26,1.15l-2.516,0.51c-0.958,1.08-2.006,1.848-3.029,2.776c-2.482,1.617-4.659,4.002-7.086,5.688
	c-0.421,1.717-2.281,2.087-3.559,2.829c-0.409,0.449-0.862,0.907-0.957,1.557c-0.383,0.342,0.287,1.366-0.575,1.278
	c-0.604,0.778-0.959,1.659-1.181,2.584c-0.36,0.227-0.686,0.614-1.157,0.653L17.191,62.304c0.183,4.894-4.365,7.829-5.349,12.259
	c-3.034,3.587-4.532,7.81-6.576,11.798L0.709,99.908c-0.315,3.941-0.866,6.911-0.667,11.084c0.246,1.123,0.549,3.161,0.835,4.188
	c0.556,2.425,2.48,4.262,4.34,6.14c2.817,3.22,6.591,4.906,10.818,3.945c2.309-0.938,4.655-1.756,6.713-3.239
	c1.81-0.813,3.729-1.387,5.214-2.971c1.176-1.146,1.924-2.463,2.577-3.798c1.158-4.044,3.115-7.758,4.715-11.604
	c1.433-3.492,4.029-6.5,5.756-9.876c0.016-0.749,0.193-1.449,0.248-2.198c0.815-1.682,2.291-3.108,2.896-4.885
	c-0.301-1.029,0.813-1.524,1.355-2.137c0.099-0.106,0.318-0.082,0.386,0.084c0.161,0.027,0.307,0.261,0.449,0.115
	c0.355-1.108-0.17-2.561,0.459-3.547c1.285-0.808,2.097-2.131,2.961-3.305c0.67-1.93,2.147-3.558,3.342-5.271
	c1.278-0.631,1.219-2.113,2.015-3.098c3.396-3.291,6.983-6.452,10.315-9.678c0.861-0.659,1.881-0.932,2.656-1.809
	c0.603-1.165,1.936-1.502,2.906-2.26c5.422-3.131,17.126-7.706,31.829-1.858C117.569,59.797,134.268,74.885,150.371,104.646z"/>
<path fill="#00A664" d="M141.053,64.141c0.438,0.899,1.219,1.819,1.538,2.771c0.1,0.259,0.261,1.182-0.171,1.254
	c-0.504,0.088-1.367-1.92-1.577-2.25c-1.201-1.981-2.445-3.956-3.735-5.877c-2.673-4.011-5.601-7.874-8.815-11.471l-0.314-0.591
	l-7.18-7.975c-3.471-3.485-7.193-6.358-10.777-9.551c-0.699-0.47-1.458-0.89-2.125-1.427c0.131-0.354,0.525-0.608,0.772-0.897
	c0.927,0.148,1.717-0.432,2.464,0.077C120.511,34.682,135.143,52.175,141.053,64.141z"/>
<path fill="#00A664" d="M181.726,101.364c0.997,1.046,1.711,2.313,2.447,3.464c-0.144,0.958,1.294,1.35,1.638,2.119
	c0.657,1.063,1.23,2.147,1.767,3.261c0.884,1.42,1.377,3.018,2.455,4.375c0.011,0.26,0.11,0.498,0.244,0.715
	c0.066,1.058,1.262,1.211,1.788,2.075c0,0.232-0.028,0.471,0.129,0.625c0.042,0.262,0.148,0.647-0.129,0.829
	c1.67,2.065,2.499,4.489,3.479,6.847c0.189,0.996,0.832,1.793,1.112,2.761c0.433,0.39,0.465,0.942,0.633,1.456
	c0.22,0.172,0.364,0.492,0.695,0.383c-0.064-1.196-0.669-2.174-1.034-3.268c-0.249-0.276-0.536-0.552-0.422-1
	c0.063-1.104-0.867-1.821-1.04-2.834c-0.86-0.857-0.282-2.318-1.584-3.005c0.021-0.26,0.021-0.49-0.163-0.664
	c0.185-0.779-0.209-1.194-0.537-1.77c-0.183-0.378-0.266-1.572-0.276-2.027c-0.566-0.758-0.862-1.771-1.497-2.48
	c0.054-0.731-0.313-1.303-0.521-1.912c-0.3-0.442-0.826-0.78-1.063-1.249c-0.903-0.875-0.415-1.922-1.318-2.773
	c0.089-0.344-0.275-0.494-0.408-0.759c-0.52-1.062-1.368-2.103-1.826-3.048c-0.614-0.888-1.24-1.793-1.854-2.701
	c0.065-0.71-0.188-1.296-0.647-1.794c-0.736-0.118-1.18-0.939-1.776-1.422l0.139-0.414c-0.299-0.183-0.465-0.752-0.931-0.548
	c-0.312-0.117-0.1-0.471-0.145-0.697c-1.821-1.031-1.92-3.189-3.519-4.305c-0.332-0.251-0.145-0.725-0.359-1.039
	c0.132-0.485-0.376-0.705-0.637-1.036c-0.238-0.058-0.58,0.146-0.709-0.168c-0.393,0.11-0.37-0.469-0.747-0.419
	c0.038-0.282-0.342-0.378-0.223-0.703c-0.729-0.41-1.033-1.346-1.862-1.667c-0.182,0.023-0.378,0.321-0.498,0
	c-0.489-0.243-1.229-0.739-1.163-1.388c-0.044-0.515-0.603-0.253-0.918-0.333c-0.409-0.16-0.115-0.592-0.261-0.869
	c-0.058-0.177-0.255-0.416-0.469-0.416c0.048-0.383-0.383-0.137-0.572-0.209c-1.007-0.376-1.228-1.588-2.214-2.003
	c-0.202-0.071-0.499-0.084-0.631,0.166c-0.279,0.276-0.531,0.057-0.752-0.205c-0.512-0.032-0.919-0.324-1.277-0.764
	c-0.034-0.38-0.597-0.249-0.848-0.499c-0.735-0.756-2.528-0.501-3.286-1.299c-0.764-0.797-2.402-0.22-3.056-1.346
	c-0.2,0.477-0.261-0.026-0.655,0.024c-0.274-0.316-1.337-0.046-1.221-0.604h-0.49l-0.072,0.548l-2.724-0.1
	c-0.117-0.104-0.185-0.294-0.377-0.223c-1.672-2.444,1.283-1.083,1.283-1.172c0-0.006,0-0.46,0-0.46
	c0.377,0.072,0.088-0.337,0.395-0.42c0.951,0.492,2.446-0.326,3.165,0.721c0.734-0.189,0.797,0.254,1.606,0.254
	c0.805,0.101,1.695,0.087,2.366,0.503c1.312,0.298,2.309,1.399,3.692,1.543l3.773,2.043c1.815,1.351,3.774,2.28,5.556,3.713
	c-0.052,0.242,0.21,0.337,0.372,0.422c1.31,0.686,2.174,1.929,3.087,3.08c1.128,1.913,3.33,2.56,4.428,4.467
	c0.712,1.224,1.654,2.308,2.416,3.484c0.52,0.781,0.825,1.684,1.317,2.47c0.564,0.909,1.928,0.664,1.274,1.693
	c0.367,0.094,0.628,0.319,0.729,0.998c0.334,0.961,1.064,1.787,1.367,2.754c1.611,2.312,3.67,6.762,4.1,6.551
	c0.435-0.208-0.785-3.374-1.685-4.907c-0.749-2.136-2.155-3.98-3.183-6.009l-0.071-0.503c-0.25-0.334-0.175-0.799-0.539-1.093
	c-0.459-1.664-1.896-2.938-2.838-4.403c-0.449-1.294-1.601-2.294-1.922-3.632c-0.713-0.988-1.184-2.24-2.289-2.917
	c-0.022-0.779-0.93-1.173-0.997-1.925c-0.469-0.049-0.681-0.856-1.255-0.495c0.144,0.354-0.199,0.486-0.384,0.707
	c-1.055-0.984-1.985-1.981-3.124-2.763l-0.079-0.237c-0.776-0.139-1.243-0.992-1.875-1.505c-0.105-0.14-0.085-0.419-0.337-0.383
	c-0.992-1.776-3.034-1.737-4.38-3.031c-0.592-0.077-0.541-0.879-1.156-0.919c-1.571-0.325-2.682-1.759-4.217-2.164
	c-0.629-0.703-1.72-0.26-2.584-0.389c-0.231-0.198-0.47-0.418-0.421-0.707c-0.541,0.316-1.293,0.101-1.952,0.171
	c-0.233-0.213-0.472-0.403-0.797-0.376c-0.233-0.317-0.703-0.077-0.913-0.369c-0.32,0.052-0.726-0.154-0.92,0.155l-1.545-0.328
	c-2.2-0.055-4.519-0.184-6.429,0.593c-1.09,0.022-1.759,1.095-3.043,0.695c-0.121-0.135-0.271-0.275-0.449-0.28
	c-0.277-0.167-0.433-0.443-0.492-0.726c0.249-0.508,0.925-0.585,1.532-0.531c2.905-1.832,8.412-1.862,10.061-1.609
	c2.8,0.138,5.452,0.892,7.869,1.932c0.824,0.58,1.794,0.768,2.586,1.381c2.583,1.191,4.847,3.139,7.164,4.973
	c0.865,1.056,1.877,2.039,2.885,3.025h0.37c0.299-0.307,0.105-0.845,0.165-1.276c-0.165-0.118-0.26-0.417-0.497-0.335
	c-0.143-0.386-0.53-0.145-0.798-0.21c-0.756-0.835-1.481-1.677-2.162-2.557c-1.007-0.886-1.963-1.892-3.082-2.532
	c-0.3-0.434-0.731-1.297-1.462-1.088c-1.417-1.64-3.314-2.173-5.007-3.126l-0.251-0.409l-1.752-0.428
	c-1.313-0.202-2.448-0.801-3.87-0.693c-0.773-0.759-1.986-0.495-3.039-0.551c-0.807,0.382-1.914-0.059-2.682,0.382
	c-0.526-0.271-1.12-0.326-1.666-0.546c0.056,0.271-0.05,0.476-0.191,0.66c-0.944,0.014-1.931,0.105-2.809,0.386
	c-0.077-0.039-0.145-0.078-0.164-0.183c-0.09,0.243-0.335,0.083-0.504,0.134c-0.222,0.365-0.631,0.188-0.892,0.411
	c-0.55-0.335-1.035-0.693-0.653-1.138c1.11-0.266,2.176-0.619,3.299-0.87c0.515-0.629,1.494-0.137,2.078-0.579
	c0.545,0.427,1.419,0.048,2.01,0.341c0.998,0.162,1.95-0.038,2.874-0.211c0.077,0.019,0.133,0.027,0.222,0.027
	c0.901,0.04,1.684,0.284,2.593,0.284l0.102-0.044l2.163,0.531c0.554,0.117,1.156,0.095,1.6,0.465
	c0.668,0.508,1.667,0.334,2.342,0.909c1.71,0.467,2.898,2.212,4.735,2.372v-0.632c-0.078-0.677-0.907-0.807-1.291-1.41
	c-0.702-0.172-1.171-0.862-1.881-1.034c-0.304-0.342-0.74-0.388-1.113-0.553c-0.539-0.443-1.172-0.67-1.676-1.195
	c-0.502,0.429-1.207,0.369-1.886,0.369c-0.671-0.582-1.338-1.204-2.275-1.132c-0.458-0.151-1.007-0.251-1.173-0.273
	c-0.486-0.072-1.19-0.264-1.782-0.243c-0.208-0.071-0.468,0.018-0.686-0.021c-0.144,0.42-0.48-0.101-0.779,0l-0.395-0.217
	c-0.757,0.067-2.03-0.433-2.7-0.134c-2.579-0.093-6.992,0.687-9.054,1.225c-0.315,0.016,0.201-0.089,0.179-0.294l-0.532,0.535
	c-0.21-0.033-0.372,0.056-0.524,0.186h-2.702c-0.786,0.01-0.679,0.914-1.125,1.327c-0.64,0.546-1.53,0.471-2.288,0.715
	c-0.888-0.255-1.782-0.122-2.506,0.358c-0.079,0.289-0.289,0.539-0.549,0.763c-0.156,0.023-0.259-0.054-0.378-0.165
	c-0.631,0.029-1.222,0.165-1.665,0.703c-0.409,0.056-0.607,0.692-1.117,0.58c-1.125,0.857-2.523,0.962-3.548,2.003
	c-0.983,0.621-1.902,1.393-2.882,2.085c-0.117-0.309-0.433-0.098-0.653-0.16c-0.085,0.063-0.024,0.281-0.205,0.217v0.144
	c-0.349,0.232-0.403,0.577-0.415,0.926c-0.238-0.046-0.238,0.253-0.342,0.379c-0.196,0.062-0.338,0.256-0.589,0.202
	c-0.47,0.207-0.287,0.694-0.333,1.089c-0.938,0.956-2.066,1.482-3.127,2.207c-1.442,0.83-2.792,1.799-4.089,2.967
	c-0.285,0.354-0.497,0.725-0.867,1.042c-0.681,0.495-0.417,1.392-1.135,1.876c-2.546,3.051-5.372,5.987-8.373,8.752
	c-0.253,0.467-0.38,0.986-0.796,1.379c-0.315,0.916-1.521,1.018-1.705,1.992c-1.652,1.848-2.368,4.217-4.376,5.763
	c-1.471,1.646-2.097,3.64-3.342,5.382c-0.38,0.228-0.719,0.504-0.917,0.913c-0.98,0.569-1.229,1.742-1.789,2.634
	c-0.885,0.638-0.88,1.65-1.665,2.331c-0.498,0.864-1.072,1.654-1.378,2.576c-0.759,0.737-0.759,1.762-1.116,2.63
	c-0.51,0.638-0.748,1.362-0.81,2.169c-0.488,0.692-0.396,1.688-0.211,2.636c-0.186,0.366-0.17,1.062-0.186,1.664l0.352,0.383
	c-0.426,1.5,0.056,3.021,0.555,4.332c0.192,0.525,0.078,1.152,0.593,1.544c0.862,1.876,2.788,3.554,4.452,4.832
	c0.992,0.735,2.12,1.084,3.251,1.495c-0.067,0.596,0.625,0.054,0.784,0.474c0.338,0,0.834,0.193,1.046-0.17
	c1.207-0.045,1.938-1.22,3.131-1.29c0.053-0.322,0.443-0.104,0.669-0.166c0.372,0.283,0.881,0.267,1.285,0.497
	c0.09-0.077,0.145-0.23,0.299-0.175v-0.117c0.721-0.791,1.654-1.058,2.384-1.837c1.504-1.063,2.372-2.701,3.396-4.121v-0.424
	c0.361-0.132,0.168-0.495,0.223-0.75c0.24-0.239,0.46-0.5,0.747-0.633c1.425-0.965,1.794-2.429,2.989-3.491
	c0.526,0.271,0.598-0.608,1.1-0.383c0.223-0.789,0.329-1.638,0.876-2.297c0.198-0.719,0.591-1.365,0.613-2.169
	c0.394-0.569,0.932-1.071,1.119-1.71c0.995-1.112,1.438-2.413,2.138-3.632c1.707-3.529,4.032-6.81,6.058-10.214
	c0.857-0.857,1.56-1.813,2.086-2.834c3.564-4.483,7.05-9.28,11.621-13.089c1.781-1.07,3.303-2.736,5.168-3.544
	c0.979-0.692,2.486-0.586,3.012-1.961c0.952-0.613,1.948-1.144,3.26-0.911c1.625-0.314,2.885-1.61,4.791-1.303
	c0.242,0.312,0.609,0.361,0.908,0.552c0.149-0.384,0.619,0.054,0.758-0.384c0.824-0.243,1.261,0.465,2.075,0.223
	c0.099,0.081,0.193,0.199,0.337,0.161c0.343-0.357,0.979,0.031,1.296-0.35l0.082,0.188c0.185,0.137,0.414,0.192,0.663,0.161
	c0.112,0.387,0.542,0.038,0.711,0.324c0.315-0.059,0.226,0.26,0.286,0.427c0.864-0.072,1.428,0.11,2.186,0.28
	c0.464,0.678,1.405,0.24,2.039,0.55c1.199,0.53,2.385,1.566,3.584,2.12c1.035,0.436,2.271,0.364,2.994,1.549
	C174.31,91.825,179.722,98.348,181.726,101.364z"/>
<path fill="#00A664" d="M169.596,73.258c0.598,0.48,1.135,1.09,1.844,1.305c2.295,3.262,5.775,6.051,8.463,9.159
	c0.717,1.21,1.52,2.385,2.294,3.591c0.643-0.165,0.535,0.716,1.073,0.748c0.337,0.78,0.511,1.609,0.747,2.427
	c0.261,0.102,0.487,0.269,0.564,0.544c0.222,0.133,0.481,0.219,0.78,0.245c-0.14,0.549,0.222,0.906,0.372,1.321
	c0.784,1.173,1.377,2.323,2.185,3.465c0.037,0.648,0.909,2.053,1.322,1.848c0.41-0.21-0.403-0.73-0.413-1.175
	c-0.614-1.065-0.461-2.438-1.25-3.411c-0.197-0.88-0.969-1.536-1.52-2.27c0.107-0.278-0.158-0.433-0.158-0.696
	c-0.472-0.748-1.097-1.166-1.563-1.966c0.295-0.796-0.676-1.064-0.624-1.761c-0.199-0.265-0.47-0.823-0.758-0.823
	c-3.298-5.1-6.79-8.543-12.407-13.429h-0.15l-0.177-0.163c-0.507,0-1.09-0.048-1.465,0.205
	C169.209,72.634,169.122,73.207,169.596,73.258z"/>
<path fill="#00A664" d="M131.358,114.517c-0.143-0.934-2.723-4.858-3.022-5.721c-0.199-0.288-0.143-0.697-0.469-0.952
	c-0.138-0.592-0.91-0.928-1.135-1.487c-0.022-0.156,0.12-0.476-0.182-0.433c-0.067-0.371-0.483-0.581-0.71-0.875
	c-0.288-0.144-0.558-0.521-0.588-0.93c-0.324,0.051-0.093-0.327-0.363-0.403c0.247-0.47-0.472-0.553-0.398-0.945
	c-0.223-0.194-4.017-6.039-9.993-9.989c-0.056,0.006-1.654-0.819-1.727-0.831c-0.315-0.542-1.617-1.105-2.155-1.4
	c-1.199-1.056-2.576-1.681-4.016-2.119l-0.581-0.575c-0.299,0.033-0.482-0.244-0.73-0.365c-0.134,0.199-0.342,0.239-0.505,0.365
	c-0.441-0.101-1.105,0.261-1.361-0.365c-0.641-0.127-1.082-0.796-1.895-0.548c-0.094,0.078-0.135,0.211-0.202,0.313
	c-0.663-0.219-1.215-0.472-1.972-0.495c-0.17-0.158-0.32-0.305-0.579-0.221c-0.37,0.56-0.761-0.179-1.193-0.141
	c-0.299-0.07-0.667,0.02-0.893-0.229c-0.559,0.34-1.343,0.133-2.024,0.188c-0.437,0.337-1.465,0-2.008,0.061
	c-0.47,0.227-1.022,0.236-1.572,0.227c-1.189,0.338-2.003,0.172-3.05,0.835c-0.208-0.293-0.835-0.106-0.694-0.504
	c-0.277,0.428-0.698,0.504-1.103,0.658c-0.642,0.278-0.995-0.369-1.664-0.144c-0.258,0.265-0.654,0.106-0.954,0.265
	c0,0.549-0.642,0.969-1.052,1.226c-1.349,0.308-3.562-0.794-3.967,1.089c-0.344-0.266-0.88-0.095-1.312-0.139
	c-0.449,0.416-1.023,0.494-1.455,0.914c-1.975,0.797-3.996,1.505-5.616,3.158c-0.096-0.181-0.19-0.476-0.501-0.371
	c0.062,0.322-0.303,0.085-0.37,0.34c-0.459-0.106-0.182,0.408-0.254,0.618c-0.266,0.287-0.552,0.509-0.907,0.544
	c-0.211,0.221-0.487,0.387-0.37,0.734c-1.192,1.018-2.474,1.828-3.854,2.392c-1.216,0.521-2.145,1.705-3.237,2.486
	c-0.127,0.689-0.624,1.212-1.206,1.609c-1.648,1.581-3.26,3.274-4.963,4.741c-0.735,0.803-1.981,1.03-2.369,2.093
	c-0.353,0.507-0.691,1.019-1.194,1.461c-0.653,0.29-0.852,1.078-1.384,1.565c-0.763,0.89-1.378,1.847-2.18,2.732
	c-2.329,1.477-2.778,4.218-5.095,5.691c-0.787,1.01-1.352,2.104-2.187,3.088c-1.505,1.693-2.214,3.694-3.315,5.542v0.937
	c-0.199,0.368-0.316,0.708,0,1.118v0.377l-0.199,0.171v0.939l0.199,0.372v1.869c-0.115,0.874,0.747,1.356,0.721,2.183
	c0.812,1.222,2.114,2.273,3.16,3.391c1.2,0.498,2.145,1.544,3.537,1.5c0.552,0.804,1.665,0.293,2.474,0.437l0.342-0.222
	c0.643-0.073,1.052-0.696,1.704-0.724c0.405,0,0.967-0.178,1.279,0.146c0.342-0.069,0.973,0.204,0.973-0.361
	c1.583-0.598,3.095-1.711,4.129-3.216c0.393-0.477,1.007-0.891,0.864-1.59c0.116-0.125,0.302-0.236,0.227-0.448
	c0.105-0.12,0.222-0.221,0.397-0.176c0.841-0.575,1.538-1.383,2.048-2.219c0.553-0.608,1.627-0.498,1.888-1.388
	c0.089-1.008,1.36-1.528,1.061-2.689c0.865-1.513,2.415-2.73,3.05-4.35c0.896-2.11,2.651-3.864,3.829-5.861
	c0.653-0.682,1.218-1.407,1.707-2.146l4.073-4.622c1.492-1.756,3.169-3.143,4.818-4.779c2.777-2.636,5.909-4.412,9.208-5.789
	c0.505-0.764,1.404-0.47,1.893-1.228c2.165,0.408,3.585-0.992,5.616-0.913c3.017-0.101,10.036,0.174,15.252,3.707l0.409,0.392
	c0.89,0.766,1.82,1.406,2.767,2.056c0.79,0.079,1.267,0.938,2.034,1.088c0.2,0.314,0.555,0.564,0.595,0.947l1.043,1.102l0.228,0.026
	c1.555,1.327,3.094,2.678,4.577,4.179c0.952,1.173,2.291,2.179,2.521,3.651c1.298,0.748,1.704,2.19,2.58,3.283
	c-0.049,0.373,0.374,0.569,0.594,0.796c0.02,1.084,1.413,1.594,1.674,2.578c0.04,0.384-0.026,0.811,0.394,1.022
	c0.206,0.55,0.93,0.593,1.197,1.103c0.325,0.283,0.309,0.714,0.298,1.123c0.93,1.737,2.224,3.322,2.949,5.149
	c0.066,0.851,0.665,1.464,1.168,2.14v0.359c0.271,0.134,0.038,0.481,0.376,0.582c-0.056,0.491,0.48,0.27,0.669,0.514l-0.286-0.765
	c-0.432-0.418-0.162-1.136-0.796-1.454c-0.02-0.207,0.06-0.444-0.114-0.581c-0.219-1.66-1.791-2.751-1.923-4.456
	c-0.144-0.32-0.681-0.152-0.587-0.615c-0.335-0.259-0.123-0.773-0.189-1.161c0.056-0.629-0.681-0.469-0.89-0.997
	c-0.283-1.049-1.7-1.636-1.506-2.908c-0.311-0.41-0.129-1.167-0.809-1.271c-0.131-0.473-0.696-0.785-0.785-1.275
	c-0.866-0.953-1.389-3.077-2.122-4.072c-0.263-0.495-0.828-0.866-0.727-1.5l-1.86-1.854c-0.271,0.063-0.211-0.25-0.211-0.404
	c-0.624-0.593-1.206-1.2-1.677-1.866v-0.729c-0.321-0.006-0.708,0.742-0.94,0.592c-0.431,0.027,0.232-1.434,0.145-1.565
	c-1.301-0.159-1.181-0.852-2.235-1.565c-0.333-0.517-1.357-0.539-1.025-1.373c-0.293-0.139-0.13-0.521-0.541-0.37
	c-0.146-0.316-0.35-0.083-0.521,0c-0.094-0.05-0.067-0.14-0.067-0.237c-0.117-0.301-0.585-0.207-0.538-0.534
	c-0.343-0.187-0.063-0.735-0.552-0.735c-0.061-0.363-0.95-0.602-1.188-0.913c-0.764,0.312-0.708-0.624-0.746-1.128
	c-0.365-0.383-2.294-1.262-2.619-1.666c-0.791,0.155-1.312-0.912-1.927-1.239c-0.514-0.056-1.105-0.066-1.577,0.16
	c-0.231-0.227-0.536-0.289-0.733-0.594c-0.053-0.547-0.703-0.42-1.031-0.69c-0.253-0.129-0.67,0.128-0.852-0.215l-1.323-0.453
	c-0.354-0.336-0.88-0.233-1.271-0.511c-0.156-0.238-0.26-0.53-0.594-0.582c-0.039-0.192-0.968,0.757-0.929,0.55l-0.748-0.819
	c-0.154,0.022-0.27-0.028-0.375-0.104c-0.477,0.098-0.67-0.606-1.092-0.653c-0.009,0.11,0.04,0.259-0.02,0.357h-2.598L96.6,95.703
	c-0.187,0.144-0.47,0.121-0.592-0.117c0.084-0.465-0.851,0.157-0.597,0.327c-0.222-0.145-0.88-0.054-1.138-0.105
	c-0.616-0.095-0.833,0.249-1.428,0.541c-0.134,0.072-0.335,0.145-0.41,0.29c-0.083,0.177,0.132,0.476-0.146,0.573
	c0,0.325-0.441,0.15-0.615,0.136v-0.136c-0.263-0.013-0.513-0.092-0.717-0.22c-1.18-0.248-1.965,0.431-3.034,0.41
	c-0.52,0.813-1.687,1.018-2.523,1.265c-0.28,0.092-0.446,0.339-0.786,0.406c-1.221,0.265-2.495,0.972-3.539,1.771
	c-0.328,0.229-0.51,0.701-0.89,0.802c-0.174,0.045-0.351,0.021-0.482,0.076c-0.02,0-0.465,0.179-0.406,0.188
	c-0.264-0.054-0.673,0.012-0.885,0.144c-0.194-0.013-0.398-0.077-0.536-0.221l0.138-0.142c0.398-0.045,0.144-0.63,0.221-0.945
	c0.146-0.179,0.407-0.31,0.433-0.551c0.481-0.309,0.442-1.339,1.345-0.972c0.632-0.14,1.288-0.194,1.753-0.738
	c0.874-0.311,1.528-1.222,2.354-1.637c0.393-0.194,2.932-0.714,2.738-1.344c0.327,0.165,0.421-0.292,0.736-0.183
	c0.166,0.249,0.503,0.324,0.586,0.546c0.311,0.134,0.402-0.244,0.681-0.188c0.133-0.176,0.432-0.31,0.402-0.547
	c0.322-0.035,0.621,0.039,0.881,0.188c0.05,0.457,0.343-0.101,0.575,0v-0.109c0-0.117,0.128-0.076,0.192-0.079
	c0.107-1.054,1.258-0.387,1.895-0.581c-0.133-0.255,0.288-0.293,0.21-0.55h0.925c0.261,0.305,0.72,0.139,1.079,0.179
	c0.114-0.218,0.348-0.166,0.547-0.179c0.249-0.332,0.784-0.12,1.167-0.181c0.181,0.127,0.627-0.151,0.761-0.394l2.434,0.248
	c0.391,0.449,1.139,0.033,1.6,0.371c1.403,0.006,2.672,0.382,3.854,0.98l0.758,0.543c0.493,0.193,1.057,0.208,1.463,0.547
	c2.128,0.467,3.812,2.025,5.705,3.026c1.062,0.936,1.975,1.292,2.998,2.263c1.097,0.952,2.196,2.017,3.055,3.111
	c1.985,1.678,3.969,3.658,5.514,5.689c0.602,0.774,0.838,0.896,1.148,1.531c0.079,0.243,0.648,1.628,1.128,1.739
	c0.44,1.001,1.285,2.112,1.827,3.097c1.019,1.279,1.593,3.039,2.735,4.161c0-1.011-1.125-2.861-1.439-4.281
	c-0.145-0.431-0.759-0.662-0.615-1.229c-0.896-0.842-1.144-1.931-2.048-2.767c0.091-0.305-0.132-0.481-0.168-0.731
	c-0.318-0.574-0.859-1.056-0.96-1.711c-0.499-0.907-1.622-1.554-1.965-2.522c-1.284-1.417-2.063-3.032-3.049-4.581l-0.266-0.111
	c-0.946-0.465-1.977-2.103-2.081-1.994c-0.526-0.26-0.882-0.821-1.31-1.23c-1.143-0.899-1.873-1.821-2.99-2.741
	c-0.166-0.609-0.836-0.68-1.238-1.013c-1.063-0.729-2.324-0.881-3.177-2.01c-0.422,0.038-0.741-0.075-1.018-0.352
	c-0.632-0.107-1.063-0.693-1.694-0.786c-0.526-0.466-1.174-0.638-1.805-0.81c-0.515-0.553-0.944,0.25-1.582-0.032
	c-0.244-0.193-0.486-0.442-0.565-0.74c-0.149,0.211-0.321,0.099-0.458,0c-0.708,0.037-1.291-0.196-1.793-0.607
	c-0.555,0.086-1.284-0.308-1.625,0.289l-0.085-0.148l-1.453-0.021c-0.632-0.492-1.308-0.033-2.026-0.191
	c-0.736,0.135-1.55,0.118-2.307,0.247c-1.429-0.122-2.375,0.502-3.92,0.701c-0.491,0.061-1.022-0.087-1.609,0.139
	c-0.68-1.183-0.039-0.752,0.173-1.312c0.192-0.502-0.085,0.409,0.009-0.121h0.329c0.839,0,1.437-0.575,2.23-0.685
	c0.796-0.661,2.014-0.365,2.902-0.804c0.499,0.382,1.313,0,1.82,0.321c1.079-0.017,2.347,0.22,3.289-0.278
	c0.43,0.029,1.049,0.161,1.559,0.135v0.183c0.714-0.072,1.351,0.083,1.971,0.309c0.884,0.144,1.791,0.259,2.521,0.819
	c0.748-0.167,1.275,0.253,1.876,0.48c0.299,0.179,0.549,0.545,0.92,0.545c0.674,0.661,1.543,0.835,2.369,1.179
	c0.342,0.276,0.757,0.519,1.155,0.696c-0.117,0.065,0.455,0.109,0.348,0.153c0.04,0.525,0.722,0.373,0.736,0.88
	c0.476-0.208,0.603,0.37,0.909,0.55c0.598-0.095,0.89,0.391,1.171,0.802c1.407,1.244,2.033,1.677,3.449,2.889
	c1.468,1.752,3.658,3.197,4.818,5.092h0.373c0.95,0.674,0.9,1.747,1.33,2.628c0.517-0.123,0.689,0.502,1.114,0.586
	c0.083,1.218,1.743,2.257,2.026,3.393c0.509,0.533,1.765,2.789,2.81,4.575C131.043,115.144,131.454,115.122,131.358,114.517z"/>
</svg>
