<?xml version="1.0" encoding="UTF-8"?>
<svg width="251pt" height="253pt" version="1.1" viewBox="0 0 251 253" xmlns="http://www.w3.org/2000/svg">
 <g id="surface1">
  <path d="m157.86 63.609c0-17.918-14.578-32.488-32.582-32.488-17.953 0-32.559 14.57-32.559 32.488 0 17.898 14.605 32.449 32.559 32.449 18.004 0 32.582-14.551 32.582-32.449" fill="#f47a36"/>
  <path d="m191.55 189.42s-30.484 2.7344-68.848-22.641c-22.539-14.918-30.102-19.387-34.805-21.98-6.5977-3.6289-16.016-7.1016-26.82-6.5508-16.32 0.82031-29.594 13.199-29.594 29.484 0 16.293 13.246 29.5 29.594 29.5 14.484 0 26.516-10.391 29.051-24.09l0.22266-0.83984c0.10156-0.43359 0.60156-1.7266 2.0039-1.6719 1.4688 0.066407 3.4336 2.1953 8.5977 6.1523l5.1289 4.1211c41.812 34.758 75.5 38.879 82.172 39.742 3.5742 0.45703 32.84 4.5195 62.867-8.293v-50.762c-8.6719 12.125-34.281 26.84-59.57 27.828" fill="#0075bb"/>
  <path d="m220.63 102.84c-0.15625-0.77344-0.78125-1.3711-1.5625-1.4922-0.60938-0.027344-1.2109-0.066406-1.8438-0.074219-16.359-0.21875-33.492-0.25391-45.988 12.203-8.5703 8.543-13.285 19.457-14.223 30.625v0.03125c0 0.76953 0.45703 1.4219 1.1133 1.7148v0.007812c4.3359 1.9062 10.172 3.5625 16.297 2.6055 7.0391-1.1016 14.598-5.1602 19.758-12.73 0.26953-0.32031 1.1953-1.2188 2.4492-0.66797 0.96094 0.43359 1.2305 1.3477 1.0195 2.3828-0.24609 0.75781-0.63672 1.5078-1.0117 2.0625-6.1836 9.1289-12.426 13.766-21.297 15.145-1.5703 0.22656-3.1016 0.34375-4.6211 0.34375-7.5 0-14.129-2.707-18.465-5.043-9.5117-4.1484-25.742-16.68-25.742-16.68-29.961-24.141-55.398-28.348-56.23-28.5-28.871-5.6562-51.559 0.20312-70.281 11.668v18.449c17.035-14.625 39.289-23.172 68.559-18.414 0 0 23.539 2.6641 52.137 24.164 24.805 19.199 39.457 22.465 39.457 22.465 16.629 4.6836 34.672 0.50391 47.758-12.531 12.484-12.449 13.035-29.82 12.812-45.816-0.007812-0.66016-0.054687-1.2891-0.09375-1.918" fill="#00965f"/>
  <path d="m125.28 96.059c-17.957 0-32.559-14.555-32.559-32.449 0-17.918 14.602-32.488 32.559-32.488 18.004 0 32.586 14.57 32.586 32.488 0 17.895-14.582 32.449-32.586 32.449m-64.195 42.191c10.801-0.55078 20.223 2.9219 26.82 6.5508 4.7031 2.5898 12.258 7.0625 34.805 21.977 38.359 25.379 68.844 22.641 68.844 22.641 25.289-0.98047 50.898-15.699 59.574-27.824v-161.59h-251.12v116.43c18.719-11.461 41.41-17.32 70.273-11.66 0.83594 0.14844 26.27 4.3555 56.234 28.5 0 0 16.234 12.527 25.742 16.676 4.3359 2.3359 10.965 5.043 18.469 5.043 1.5156 0 3.0469-0.11328 4.6211-0.34375 8.8711-1.375 15.113-6.0117 21.289-15.141 0.38281-0.55469 0.76953-1.3086 1.0195-2.0664 0.20703-1.0352-0.0625-1.9492-1.0273-2.3828-1.25-0.55078-2.1719 0.34766-2.4453 0.67188-5.1602 7.5703-12.715 11.625-19.758 12.727-6.1211 0.95703-11.965-0.69922-16.301-2.6094v-0.007812c-0.65234-0.28906-1.1094-0.94141-1.1094-1.7109v-0.027344c0.93359-11.172 5.6523-22.082 14.223-30.625 12.5-12.465 29.629-12.426 45.988-12.203 0.63281 0.007812 1.2344 0.042968 1.8477 0.070312 0.77734 0.12109 1.3984 0.72266 1.5586 1.4922 0.035156 0.62891 0.085938 1.2578 0.09375 1.9219 0.22266 15.992-0.32812 33.363-12.812 45.812-13.09 13.039-31.129 17.215-47.758 12.527 0 0-14.652-3.2656-39.461-22.465-28.594-21.496-52.133-24.156-52.133-24.156-29.266-4.7617-51.523 3.7852-68.555 18.41v117.77h251.12v-40.305c-30.035 12.816-59.293 8.75-62.875 8.293-6.6641-0.86328-40.355-4.9844-82.168-39.742l-5.1328-4.1211c-5.1562-3.957-7.125-6.0859-8.5938-6.1484-1.3984-0.058594-1.9023 1.2305-2.0039 1.6719l-0.21875 0.83203c-2.5352 13.699-14.57 24.094-29.051 24.094-16.348 0-29.598-13.207-29.598-29.496 0-16.289 13.273-28.668 29.598-29.488" fill="#ffd626"/>
 </g>
</svg>
