<?xml version="1.0" encoding="UTF-8"?>
<!DOCTYPE svg  PUBLIC '-//W3C//DTD SVG 1.1//EN'  'http://www.w3.org/Graphics/SVG/1.1/DTD/svg11.dtd'>
<!-- Creator: CorelDRAW -->
<svg width="1920px" height="1200px" clip-rule="evenodd" fill-rule="evenodd" image-rendering="optimizeQuality" shape-rendering="geometricPrecision" text-rendering="geometricPrecision" viewBox="0 0 1920 1200" xml:space="preserve" xmlns="http://www.w3.org/2000/svg">
 <defs>
  <style type="text/css">
   <![CDATA[
    .str4 {stroke:#1A3C86;stroke-width:0.9}
    .str1 {stroke:#D32927;stroke-width:0.9}
    .str0 {stroke:#F4C600;stroke-width:0.9}
    .str3 {stroke:#1F1A17;stroke-width:0.9}
    .str2 {stroke:white;stroke-width:0.9}
    .fil4 {fill:#1A3C86}
    .fil1 {fill:#D32927}
    .fil0 {fill:#F4C600}
    .fil3 {fill:#1F1A17}
    .fil2 {fill:white}
   ]]>
  </style>
 </defs>
 <g id="Layer_x0020_1">
  
  <g id="_122816256">
   <polygon id="_122568304" class="fil0 str0" points="0.054331 0 1920 0 1920 1200 0.054331 1200"/>
   
    <polygon id="_122567920" class="fil1 str1" points="0.029528 0 1920 0 1920 399.84 0.029528 399.84"/>
    <path id="_122567536" class="fil0 str0" d="m168.94 33.947c0.13228 2.8358-1.878 7.05-1.878 7.05-12.03 2.1697-5.6398-14.1-12.403-19.162 7.1398-0.72165 13.95 4.976 14.281 12.112z"/>
    <path id="_122563776" class="fil0 str0" d="m139.25 34.852c6.7642 15.184-3.7583 36.514 12.778 45.913 4.1339 1.0854 7.1409-2.1685 9.0213-5.061-2.2559-9.0378-10.902-14.461-10.149-25.308 7.1398-5.4224 22.55 5.0622 26.308-7.9524 1.128-2.1709 3.3839-1.4468 5.263-1.4468 15.785 16.27-10.899 32.538 1.128 47.722 27.811 17.715 52.242 50.975 90.201 50.252 44.725 12.654 96.592 14.463 144.32 15.548-1.5035 6.5055-16.161 3.9744-10.899 14.822 4.5118 5.0622 10.899 10.122 18.042 11.206-4.1362 3.978-6.0165 11.21-11.653 12.294 13.154 3.6154 16.537 19.522 28.563 24.223 2.6327 2.8902 4.135 6.8681 7.5177 8.6752 16.912-11.206 18.041-35.069 27.061-51.337l4.5094 1.8071c-7.5177 22.776-23.303 49.168-14.659 77.367 31.195-11.569 27.814-46.998 40.591-69.413 1.128 0 3.0083-0.72284 3.7594 0.72402-3.0071 18.438-12.402 34.344-12.778 53.866 3.0071 3.6165 9.0189 4.7008 12.778 1.8083 3.7583-2.1697 10.898-5.0598 14.283 0 1.5024 0.72284 2.2547 3.2551 4.5094 2.5311 1.5024-16.992 25.557-5.4236 27.059-19.885-1.1268-1.4457-3.3827-0.72284-4.5094-2.8913v-1.4468c11.276-1.4468 27.813-5.7839 36.08 4.3382 1.5047 4.3394-3.7583 3.978-6.3898 5.0622-3.3815 1.4468-6.013-2.5311-9.0177 0 0.37559 3.2528 9.0177 8.3161 1.878 12.292-7.1409 1.4457-13.905-3.2539-19.919 0 2.2547 8.6776 13.905 10.486 21.046 15.546 3.0071 5.785-6.0142 10.486-10.147 13.016-7.8945 0.3626-15.034-4.3382-22.551-2.5299 1.5035 6.8681 9.3968 9.7618 15.41 11.932v1.8059c-15.034 2.5311-28.939-3.6165-39.839-13.737h-3.3827c-1.1291 7.9524-2.2559 18.437 0.75118 26.03-9.3957 1.0854-13.905-7.9547-18.792-14.099-6.3886-7.9547-4.885-20.61-16.161-24.948-3.7583 3.9791-0.75118 9.763 0.75118 13.739-6.7642 6.8705 0.37677 24.224-14.281 23.5-7.8921-8.6776-13.155-18.798-24.431-22.776-1.8791-12.293 1.5047-25.669-10.147-32.901-2.6315 7.2319-0.75236 18.438-9.7713 20.969-3.3827-18.438-34.578-37.598-9.7724-55.676 0-2.5311 0-5.4224-3.0059-6.8681-1.5035 1.4457-4.135 0.72165-6.0142 0.72165 0-10.484 5.2606-30.007-8.2701-35.43-42.844-3.2528-86.066-6.1465-126.28-15.547l-8.2677 1.8083c37.207 23.139 84.563 6.8705 121.77 29.285 6.0118 3.2539 7.8909 12.292 5.6362 19.161-3.3827 6.1465-3.7583 14.461-10.899 18.074l-14.283-5.7827c-2.6291 4.6984 5.263 7.9524 3.3827 13.74-7.5142 1.8059-7.5142-9.0413-12.4-13.017-4.1362-2.8925-7.8945-5.785-12.781-6.1465-3.7583 5.0622 2.2547 10.485 2.6327 15.547-12.027 0.72165-11.652-16.992-24.431-18.078-2.6303 6.5091 4.5094 11.209 5.6386 17.354-10.899 1.0842-12.78-25.306-26.31-13.739-2.6291 3.978 9.398 10.847 0 9.4004-7.1409-6.5067-9.7701-21.332-22.551-16.631 0.75354 2.8937 2.2583 5.0622 1.8815 7.9535-7.8933-1.8071-9.398-24.945-20.672-14.822 0.37559 2.5311 3.3827 5.4236 0.75118 7.9524-9.3957-5.0598-10.524-18.797-20.672-22.775-3.3827 2.8925-1.128 8.6752-1.8791 11.569-4.5083 1.0842-6.7642-7.5909-10.898-1.8071 30.066 30.367 73.287 50.615 121.77 50.251 3.0059 1.0854 4.8862 3.9791 4.5094 6.8693-4.135 5.785-10.524 2.172-16.16 1.8083l-0.75354 5.061c-7.8909-4.6972-14.281-12.653-24.43-11.929-5.2606 3.6154 3.0083 10.485-3.7559 11.929-7.1433-5.4224-6.0154-19.883-18.794-18.076-7.8909 3.6154 9.3957 25.306-8.2689 14.823-4.1339-7.5909-4.885-19.524-16.161-23.498-7.8921 3.2516-3.3827 11.928-4.5094 17.352-7.1409-2.5299-4.5094-11.569-7.1409-17.352-2.2547-1.8094-2.2547-6.1465-6.3909-6.1465-6.3874 1.0842-2.2535 8.3138-3.3815 12.291-10.146-3.2539-1.5035-19.884-14.658-22.776-3.3827-0.72402-7.1409 1.0842-7.1409 4.3382-0.37441 4.7008 3.0071 7.5933 1.8803 12.294-6.7665-2.5311-9.0213-10.847-9.0213-18.079-2.2547-3.9744-4.5106-8.6752-10.147-10.484-5.6386 3.6154-3.3839 11.93-2.6315 17.354 1.878 0.72284 0.75118 2.1673 1.128 3.2516-10.524-3.2516-7.1409-16.629-9.0213-26.028-3.0059-2.5311-4.1339-7.5933-9.0189-6.8693-5.6398 6.8693-4.5118 18.076-4.5118 25.306-13.153-6.8681-4.5106-26.03-14.656-34.707-1.5035-2.5311-4.135-2.8925-7.1398-2.5311-6.3909 4.3382-3.0094 13.737-2.6315 19.885-4.8874 0-8.6457-6.1476-10.149-10.485-9.0189-21.332 14.659-35.069 3.7594-54.592-2.2559-11.209-15.785-18.438-27.06-19.885-10.899 1.0842-22.552 12.654-32.323 3.2551 1.5024-8.6764 12.027-15.908 3.3827-26.03 0-3.2551 4.1339-5.0634 7.1421-5.0634 13.154-0.36024 24.053 7.5933 30.817 18.078 2.2559 2.5311 6.7665 3.6154 9.7724 1.8083 7.5177-11.209-8.2677-15.185-13.531-21.692-7.1409-3.978-16.16-5.4236-20.672-13.739 0.75354-13.739 17.666-15.184 19.168-28.924 2.6303-8.6764 15.41-2.5299 14.283 5.4248z"/>
    <path id="_122563144" class="fil0 str0" d="m111.44 33.044-1.128 6.8693c-15.035 7.9535-18.417-6.8693-32.511-6.4181-6.3732 0.20551 7.0465-7.6819 14.47-7.3193 7.5154-0.3626 15.785 1.0842 19.169 6.8681z"/>
    <path id="_122562760" class="fil0 str0" d="m517.35 26.176c4.5094 9.0366-6.013 21.33 5.2606 26.751 11.653-11.206 25.935-16.629 41.343-19.16l10.9-6.8693c-5.2618 9.4004-13.53 17.715-15.41 28.561 7.1409 3.6154 10.148-7.5921 16.537-8.6764 13.908-1.4468 25.182-8.315 36.834-15.546-0.37677 14.822-16.539 24.222-23.303 35.791l2.6303 2.5311 28.941-7.9535c-19.544 15.906 1.5035 45.553-21.8 58.929 6.7642 3.6165 12.404 7.2319 16.163 14.101 0.75 7.5909 0 14.823-6.3898 19.885-9.7736 6.5055-24.054 10.844-36.08 5.0598 0 16.268 18.79 22.415 25.557 34.707-15.034 12.293-29.693-3.2528-43.598-6.8681-1.8803 6.8681 3.3827 13.015 5.6374 19.161-4.1327 1.0854-15.785-6.8681-18.04 3.6154-1.878 3.9768 6.7654 7.9547 0 10.123-9.0201-0.72165-16.537 1.4457-24.431 2.8913 3.0071-15.544 2.2559-37.598 22.553-44.467-1.8815-11.932 13.904-9.0378 17.285-15.547l-23.676-6.1465c-3.0071 5.4236 0.37677 16.631-9.0189 19.884-9.398 3.2539-18.042-0.72165-24.431-7.5909-3.0071-3.6154 1.8791-6.5067 3.0071-9.7618 6.7654 2.5311 14.658 0.36142 18.039-5.785l1.5047-1.8059c-2.2559-3.978-6.0142-0.3626-9.7724-2.5311-3.3815-3.2539-10.147-3.2539-11.65-7.2319 5.6374-0.35906 10.147 4.3394 15.409 2.8925-1.1268-7.5909-9.3957-9.0378-15.409-10.484-3.7583-0.3626-6.3898 3.2528-8.2677 6.1465l-5.263-2.8937c-6.7642 13.739 21.8 25.308-2.6315 30.37-9.0189 1.4468-12.778-8.3161-16.537-13.737-3.3815-10.124 12.404-11.21 10.9-19.163-10.524-0.72165-18.792-8.6764-27.813-10.484 3.7583 9.7618 16.161 18.8 6.3898 29.647 10.147 13.013 4.5094 29.644-3.0071 42.66-1.878 2.1685-4.8874 2.8913-7.8921 2.5311 0-6.1465-9.398 1.0831-7.1409-6.1465-3.0083-2.5311-8.2701-1.0842-6.3909-6.8693 3.7606-0.72284 8.2689-5.785 7.8921-10.485 0.75354-4.3382-0.75118-7.9535-4.5094-10.485-3.3827-0.3626-9.0189 1.4468-10.522-1.8071-1.128-5.0622 6.7642-0.72402 9.0201-4.3394 5.6386-3.9756 0-11.208 2.6303-16.27l14.282-9.7594c-3.0059-1.4468-4.8862-7.9559-9.0189-4.3394-7.1421 4.6996-6.7665 17.354-16.913 17.354-9.7724 0.72284-18.794-3.2551-24.431-8.6776 12.405-1.4457 25.935-5.061 32.322-17.354 0.75354-6.1453-4.1315-7.5921-6.3874-13.015-4.5106-9.4004-3.3815-23.499 3.0071-31.815 6.763-4.3382 9.7701-11.569 18.039-12.291-0.75118 3.6142 0.37677 9.3992 4.5118 11.206 10.898-0.36024 6.7642-14.1 11.65-20.608 6.013-2.8913 6.7642-9.3992 7.8909-14.823l5.6398 19.885c6.0118-16.991 28.938-18.438 37.958-32.898z"/>
    <path id="_122562600" class="fil0 str0" d="m1045.8 54.736c22.551 3.2539 49.61 7.5909 63.894-13.739l7.5177-9.7606c1.5012 0.36024 3.3815 2.1685 3.3815 3.6154-2.2571 13.737-15.411 26.391-25.935 31.091-14.281 6.8693-39.087-1.4457-55.998 3.6154 3.7583 4.7008 12.778 0.72284 15.409 6.8693-40.215 3.9768-69.906-22.416-112.75-16.631-16.16 0.72284-32.699 1.4457-46.98 6.1465 0.75236 3.6154 4.5083 3.2539 7.1398 4.3382 36.458 1.8083 71.411-0.72284 104.48 8.6776v1.0831c27.811 7.5933 63.893 13.74 92.08 2.5311v3.2539c-56.375 30.37-104.48-17.715-164.24-5.785-0.37677 0.72284-1.8803 1.0854-1.5035 2.5311 10.898 1.8071 24.054 7.9547 27.059 19.885 1.5047 7.9524 0.75354 17.354-3.0047 24.222-4.8874-6.1465-1.1291-15.907-7.1421-21.691-9.0213-12.293-22.551-17.354-37.961-17.354l-1.5035 1.8083c10.902 2.5299 23.302 7.9535 28.565 18.076 3.0059 7.5933 6.0142 18.076 1.1268 25.308-3.7583-9.7618-6.013-23.138-19.167-28.561-22.175-17.353-54.497-11.93-81.182-19.161-21.423-7.9535-19.919-38.322-45.1-36.515-32.323 0.36142-64.645 1.0842-90.954 15.546 29.692-5.4224 63.516-11.93 96.592-6.8681 2.6315 1.0842 4.885 4.3382 2.6315 6.8681-28.189-2.1685-60.887-4.3382-84.941 8.6776-3.7583 3.9768-3.7583 9.3992 0 13.015 21.422 17.715 49.051 12.554 81.182 14.101 28.187 1.3547 67.651-7.5933 98.47 3.2528-51.489 9.039-111.62 11.932-166.12 5.4224-12.404-2.8913-24.054-7.9535-36.082-12.291-3.0071 2.5299 1.5047 4.337 3.0071 6.1453 21.047 16.991 47.639 15.093 77.424 18.076 48.692 4.8756 93.586-3.6154 139.81-7.5921l3.7594 1.8083c-52.244 17.714-143.76 15.455-175.14 10.123-33.709-5.7284-67.274-6.5067-77.422-39.769-1.128-12.653 6.7665-23.138 18.041-29.646 48.108-24.946 102.51-21.511 166.87-24.222 67.605-2.8488 130.14 2.7106 194.69 23.499z"/>
    <path id="_122546936" class="fil0 str0" d="m1344.2 59.797c4.885-6.1465-4.5106-11.568-5.263-18.077 19.544 7.5921 30.443 32.9 54.873 26.754 5.263-2.1697 3.0071-6.5079 1.1268-9.4004-4.5083-5.4236-14.281-10.485-15.408-18.077l28.939 13.015c6.3874-2.1685-1.128-6.5067 0-10.484 3.3827 0 4.885 3.9768 9.0189 2.5299 4.135-3.9756 0-8.6764 0-13.015 9.3957 3.9768 13.908 16.268 24.43 19.883 5.263-2.8902-3.0071-7.9524 0-11.929 10.524 2.8925 22.551 16.63 29.692 26.753 12.778 1.4468 27.437 8.315 39.462 0.72402 3.7583-8.6776-7.1386-11.569-7.1386-19.885 6.7654 5.061 13.155 7.5921 19.167 12.293 1.5024-7.2319-6.3898-13.016-5.6386-20.969 7.8945-1.0854 13.154 13.013 19.168 6.1453l-1.878-4.3382c9.0189 2.8925 13.53 13.016 20.67 18.077 2.2559 2.8925 5.6374 1.0854 6.3886-1.4457-1.128-5.4248-5.2606-11.208-3.7571-15.907 13.905 4.6996 19.542 18.076 32.696 24.584 42.848 1.4468 87.573 0.72284 123.28 18.8 10.525 5.4236 16.162 15.907 19.92 25.308 10.524-13.737 31.945-13.737 48.859-10.485 23.678 5.4236 43.975 29.646 70.283 18.438-4.135 11.932-15.034 27.477-29.693 28.561-26.308 0.36142-46.227-14.099-69.529-20.969-28.939 1.4468-22.926 41.939-54.122 42.661-45.476 7.5909-93.208 0-139.81 0-88.322-4.7008-174.01-15.184-261.58-20.969-10.147 1.8071-21.05 1.0854-29.692 6.1476 75.92 0.72165 143.2 27.475 219.12 31.091 69.156 6.8693 147.7 40.853 213.85 4.3382 10.524-4.3382 17.288-11.57 28.938-13.739 11.652 13.739 25.558 29.284 43.224 32.9 0.37441 6.5079-8.2701 10.122-7.1409 15.546 6.013-0.72284 11.274-6.1453 14.281-10.122 2.6303 5.4213-2.2535 11.206-4.5106 15.546 5.2618 1.0842 11.652-1.8083 15.411-4.3394 0.75118 11.569-9.7713 18.8-19.168 24.224-1.5035 1.0842-3.7583 1.4457-5.2618 3.613 10.899 2.5311 20.295-3.9756 29.691-7.9535-1.5024 20.248-30.067 23.863-45.853 33.985 2.2571 6.1453 11.653 4.6996 16.162 2.5299 4.5094-5.7827 12.778-7.9524 18.791-4.3382 2.2547 2.5311 6.3898 4.3382 6.3898 7.5933-13.532 3.6154-25.181 10.846-40.591 10.485 0 1.4468 1.5047 2.8913 2.6303 2.5311l26.309 2.8913c-7.5165 5.7839-18.039 13.377-30.82 10.122-1.878-1.4445-4.1327-1.8059-7.1409-1.4445-1.1268 10.845 13.531 11.929 20.673 17.352-4.1362 5.0622-13.155 4.702-19.545 3.2551-6.013 0.3626-12.777-4.6996-17.287 1.0854l10.899 8.6752c-8.2701-1.0842-15.787 0.72402-21.8 5.0622l10.147 10.484c-12.027 3.9791-22.926-3.6142-35.327-3.6142-5.6398-3.6154-12.027-11.208-18.795-6.8693 2.6315 4.337 7.5177 7.9524 11.652 12.291-19.919 5.7874-27.81-23.138-48.859-24.582-5.263 5.4224 5.263 6.5067 4.5094 12.292 1.8803 3.9756 4.135 8.6776 1.8803 13.015-8.6445 7.9547-9.7724-6.5079-19.922-0.72402-3.0047 3.6165-4.1315 7.9559-9.7701 8.6787-5.6374-1.0854-9.7736-1.4468-11.652-6.1465-4.5094-8.6764 12.778-18.077-1.1268-20.969-15.41 6.5079-3.0059 17.353-12.403 26.03-3.3827 3.6165-8.6457 1.0854-12.027-0.72284-0.37559-2.5311-2.2559-4.3382-1.5024-6.8705 6.7642-0.35906 13.152-2.5287 16.91-7.9535-1.1268-1.0831-1.1268-2.5311-2.6291-3.6142-7.1398 2.8925-14.658 9.7606-22.551 5.4236-6.0142-4.3406-7.8921-10.122-10.9-15.547 4.1362-7.5909 13.908-3.9756 19.922-4.337 3.0047 2.1685 6.3898 3.9744 10.899 3.2516l4.5083-4.337c-7.1398-8.3161-18.416-13.737-29.691-11.206-8.6433 4.6984-14.281 18.438-25.556 13.737-2.2559-2.8925-3.0094-6.1465-2.6315-10.124 5.2606-4.3382 11.649 4.3382 17.288-1.0842l4.5094-5.0598c-3.7583-2.8937-9.7713 1.8059-14.658-1.0842-4.135-4.3406-8.2677-13.017-5.2594-18.801 11.272-6.8693 21.422 4.6996 32.322 5.7839 7.8909 5.061 19.167 9.039 28.186 3.6154-0.75118-6.1465-7.5177-8.315-12.778-9.3992 3.3827-4.3382 11.65-1.8071 12.778-7.9535-3.7594-9.039-12.402 2.8913-17.287-3.6154 12.4 0 8.2677-19.885 22.55-13.739 10.146 7.9535 16.537 27.839 33.449 26.754 11.653-1.0842 22.175-6.5091 29.691-15.547 0.75354-5.0622-0.37441-9.7606-2.6291-13.739-48.108-32.537-119.14-16.991-169.5 0-41.342 7.5909-90.202 15.184-131.92 3.2539l3.0059-1.4468c64.645-1.0842 127.79-6.1453 185.66-22.775 8.2689-1.4468 17.29-0.3626 24.431-4.3382-5.263-14.463-21.422-25.308-35.329-31.094-7.8933 5.7862-16.913-7.5909-25.932-1.8071 3.3815 5.0622 16.16 7.5933 12.403 16.631-7.5165-9.3992-19.169-16.631-31.571-18.438l-1.8803 1.8071c5.2618 5.7839 12.403 9.4004 16.539 15.547-6.0142 0.72284-10.148-7.5933-17.29-6.1465l-1.8803 1.8071c5.6386 3.9768 12.403 10.484 14.659 17.353-2.6315 0.72402-7.1409-5.7839-10.899-3.2528 3.3839 2.5299 4.5118 8.6776 2.6303 13.016-18.791 7.9524-43.597 3.9768-61.26-3.6165l-20.673-16.629c-3.7583 3.9768-0.75118 9.398 0.75354 13.013 1.878 1.8094 3.7559 4.3382 1.878 6.1476l-3.7583 1.8083c-18.791-1.0854-28.189-14.102-43.972-22.416-2.6315 7.9547 11.65 15.184 5.2606 21.692-14.282-3.978-27.437-9.763-38.713-20.245-4.885 7.2295 9.0224 11.568 10.9 18.438-10.147-1.8094-21.046-6.1476-30.067-13.016-1.8791 4.7008 3.0083 9.0378 6.3898 13.016 1.878 3.9768 12.027 2.5311 7.1409 7.5909-10.149 0.3626-17.663-6.1453-25.935-11.206l-3.7559 5.4224-10.899-12.293c-3.385 3.2539 0 10.486-6.013 11.209l-10.149-18.077-5.2606 11.206c-7.1433-5.4236-12.78-14.099-16.162-22.415-3.3815 1.8094-4.135 5.0622-3.7583 8.6776l2.6303 2.5311c-1.8791 1.8071-4.5094 5.0598-7.1409 2.5287-4.1339-8.315-10.898-16.268-8.2689-26.029-3.0059 0.3626-6.7654 5.785-9.0189 9.4004-6.7654-9.7618-12.027-25.309-27.813-24.222-3.7583-0.3626-6.7654 0.36024-9.0189 3.613 26.308 33.625 62.011 67.246 105.61 71.946 17.29 1.8083 34.954 3.6154 52.244 5.0622-49.612 6.5067-96.968-1.8071-131.54-34.708-16.537-32.176-49.611-57.123-85.691-62.183-16.537 0-33.826-1.0842-48.109 4.337 33.827 1.8083 68.779 3.6165 92.081 27.477 2.2571 13.739-18.416 15.907-16.16 29.646 3.3815 9.039 6.3898 20.968 16.16 24.223 4.135 0.36024 8.6445 3.2539 12.78 1.0842 0.37323-1.0842 2.2535-4.3394 2.6315-2.8925 6.3874 6.8693 10.146 15.909 7.1409 25.308-3.3827 3.978-4.5118 10.486-2.6315 15.546 4.5094 2.1697 2.6315 6.8693 3.7583 10.486-11.653 3.9768-22.175 2.1685-31.571-6.1476-3.0083 2.1697-2.2547 6.8693-1.128 9.763 3.7583 2.8913 9.0201 5.4213 10.899 9.3992-6.763-2.1685-13.154-3.978-19.919-6.1465-3.3827 5.4224-4.5106 11.57-6.3886 17.353-8.2677-1.4457-16.913-9.0366-25.934-8.6776-3.0071 7.2319 11.276 9.0413 3.3815 14.825-10.522 2.8913-17.287-11.209-25.932-5.0622 1.878 3.6154 3.7594 8.6776 1.878 13.016-9.0189 6.1465-31.194-26.032-24.428 1.4468-7.1409 3.9756-7.8945-6.1465-13.531-7.5933-5.263 1.4468-5.263 7.5933-3.7583 11.209-9.0213-0.7252-17.663-13.016-25.935-6.1465-1.1268 5.4213 1.128 9.0378 5.263 12.292-13.155 3.2551-18.791-9.7606-30.818-11.208-3.0071 4.337 5.6362 6.1465 3.7571 11.208-9.3957 2.5299-21.046-16.992-24.428 0 3.0047 1.0842 5.6362 3.9768 4.5094 7.5921-6.7654 1.8071-14.283-1.0842-18.792-5.0622-4.5106-3.9744-6.7654-11.206-13.53-12.291-3.3827 3.2539 3.0047 5.0598 0.75118 8.6752-6.0142 2.8925-11.652-9.0378-14.283 0-1.1268 5.4236 5.263 7.9547 4.5106 13.017-16.537-3.9791-37.959-10.124-41.718-29.285l-5.263-5.4236c-7.1398 4.3394-0.75118 15.548-5.2606 21.692-2.6303 1.8083-6.013 0.7252-9.0201 1.0854-4.8862-6.5067-8.2689-15.907-18.041-15.546-4.885 1.0842-9.3957 5.4224-14.659 2.5287-10.522-11.928 22.553-18.437 4.5106-27.835-10.522 1.4445-8.6433 19.883-21.423 13.013-4.5094-9.0378-12.4-13.376-21.046-17.354 0.37559-3.9756 7.1409-7.9535 12.027-8.6764 16.537-7.5921 45.853 26.03 43.221-6.8681-10.899-11.569-27.813-3.2539-40.59-6.8693 0-9.7618 2.6291-20.969 7.8921-28.923 19.918 1.4457 32.698 15.183 46.23 29.646 7.1398-3.2539 4.1315-13.016 3.3803-19.161l-7.8921-8.6776c2.6303-4.7008 10.148-1.4457 14.283-4.3382 10.146-0.72402 17.663-14.461 28.187-6.8681-2.2559 7.9524-4.1339 16.629-1.878 25.306 7.8909 12.654 21.422 22.776 36.08 26.03 30.066-1.4468 62.014-1.0854 84.563-18.438-28.564-3.2539-65.395-5.0622-79.303-34.708-3.3827-14.1 5.6386-18.8 12.778-28.56 10.525-8.315 21.8-15.184 34.954-17.354l3.0071-2.5311-3.0071-1.8083c-113.13-9.398-198.07 52.785-298.42 76.286-27.436 5.4213-55.998 15.543-85.69 7.9524 0.75118-5.0622-2.2535-8.3161 3.7571-10.485 125.53-1.4468 222.88-73.754 347.28-81.708 3.7594-1.0842 9.0213-0.72165 11.653-3.2528-26.686-2.8925-55.625 0.72402-79.304 6.8681 0.37677-1.4445-1.128-2.5311-1.8791-3.6154l-3.7583 3.6154-1.878-4.337-5.263 4.337c-0.37441-1.0842 0.75118-2.8913-0.75118-3.6154l-4.5083 3.6154-3.0094-2.5311c-1.1268 1.0866-1.1268 2.5311-2.6303 3.2563 0.75-1.4468-0.75-2.1697-1.8791-3.2563l-5.2618 5.0622-1.878-5.0622-7.1409 6.1465c0-1.8059-0.75354-5.4213-2.6315-3.6154-4.5118 2.5311-1.8803 10.486-9.0213 8.6776 0.37677-2.1685 2.6315-3.9768 1.8803-6.8681-5.6398 1.0831-7.1398 7.5909-12.027 11.206 1.5024-2.5299 1.5024-6.8693 0-9.4004-6.013 2.8937-5.6386 11.57-12.403 13.739l-1.1268-7.9535c-4.8862 4.337-6.0142 11.209-12.404 14.1 0.75236-2.8913 2.6315-9.0378-1.128-13.015-7.1409 5.4213-6.7642 13.376-15.032 17.353 0-4.6996 3.7571-9.7606 0-14.101-7.8945 3.9791-4.8862 14.825-13.531 18.441 0.75118-6.5091-1.128-12.656-6.3909-15.546-0.75 7.9524-1.1268 19.16-10.148 20.606 1.5047-6.5055-1.1268-13.376-5.2594-16.268-3.7594 6.8693-3.0094 16.268-10.9 20.607 1.8791-5.7839 1.128-12.653-2.6303-17.353-6.0142 8.315-4.8862 22.054-18.041 25.309 2.6315-5.0622 6.3898-14.461 3.7594-22.778l-3.0083-2.5311c-4.8839 8.6776-6.3886 21.331-18.038 24.222 3.3815-6.1453 5.2594-15.544 1.878-22.414-4.5094 7.5909-7.8945 19.522-18.04 23.5-1.5035-7.2319 3.3827-15.547-0.75354-22.778-5.2594 9.4004-10.898 19.162-19.918 26.032 4.5106-7.5933 3.3827-19.524 0.75118-27.478-4.8862 6.1465-7.5154 15.184-14.282 21.693-2.2547 3.6154-2.2547 7.5909-7.1409 8.6752l0.75118-27.113h-1.8791c-6.3898 7.5921-8.6445 17.714-15.032 24.223h-3.0071c3.0071-7.5933 9.7713-18.079 1.8803-26.032-7.1433 2.5311-4.5118 11.569-9.0224 16.63-2.2535 3.6165-6.763 7.9547-9.7713 9.4016 0.75118-7.2319 2.6303-15.909-1.8791-23.139-5.6386 7.9547-6.7654 14.46-9.7713 23.139-3.3839-6.1476-13.154-8.3161-19.168-7.5933 1.878-4.3394 8.2689-5.785 11.652-9.7606 3.7583-5.785 8.2677-12.293 5.6362-19.884-6.0142-4.7008-13.154 2.1685-19.168-2.5323-1.1268-3.2528 5.6386-3.9756 8.2689-6.1465l-0.75118-0.72284c6.3898-3.2539 10.147-8.6776 15.032-13.015-6.7642-4.3382-16.911-6.5079-20.669-13.016 141.31 4.3394 281.13-10.485 422.07-14.099 66.149-5.4248 131.92-12.293 196.94-20.609l1.5047-1.8071c-20.295-3.2528-43.222-1.4457-63.143 1.8071-175.14 19.162-355.92 27.839-539.33 26.032-2.6315-0.72284-5.3563 1.5366-7.8945-1.8083-0.37441-4.6984 7.8945-5.4224 12.403-6.1453 200.7 4.6996 396.14-8.6776 587.44-28.561 71.411-5.061 151.84-9.039 223.63 0 68.027 3.6154 133.42 13.739 202.95 14.823 18.04-1.0842 35.705-3.6154 51.49-11.208 5.263-4.7008 8.2677-12.292 4.5094-18.439-9.7724-10.845-23.678-11.206-37.208-13.013l-69.53-3.2551-271.36-1.8059c-104.11 2.8902-207.09 8.3138-311.95 8.6752-9.7724 1.4468-21.048 4.3382-30.821 0.72284 54.875-18.438 119.14-0.36024 178.52-8.6764 64.27-2.5311 127.04-9.0378 193.18-7.5909l275.12 0.72284c28.939 3.9756 64.644-1.0854 81.181 26.752 3.7583-3.6154 0.75236-9.0366-1.128-13.015-22.174-23.499-54.872-22.415-86.442-24.223l-351.04 1.0842c-43.972 6.5079-89.825 1.0854-134.18 7.5933-3.7571-1.4457-15.784 0.36142-10.147-7.5933 21.423-17.714 52.617-13.375 81.182-14.099 0-3.9768-3.0071-10.123-7.1421-11.93 0-1.0842 0.37559-2.1697-0.75118-2.8925 9.0213-0.72284 15.41 4.3382 21.422 7.9547 4.1362-1.8083 1.5047-4.3394 1.128-6.8705-3.0059-2.5311-7.8909-4.6996-10.147-8.6764 7.1409-3.6154 11.65 2.8925 17.288 4.3382 2.2559-2.8925 0-6.5067-1.878-8.6764 10.148-2.5311 18.79 10.122 27.06 14.823 0.37559-2.8925-0.37559-6.8705-2.6315-9.7618 4.5106-4.3382 9.3968 0.72284 13.53 2.5311 12.027 8.315 20.297 24.584 36.834 21.692 4.1327 0.36142 6.7642-3.2539 10.146-5.0622-2.2535-3.2528-7.1409-6.8681-6.3874-12.292 6.7642-0.72284 11.274 4.3382 17.29 6.1465 0-7.2307-6.3898-13.739-13.531-19.161l10.522-0.72402v-8.6764c13.531 7.5921 22.926 19.161 36.082 26.753z"/>
    <path id="_122546064" class="fil1 str1" d="m138.5 52.926c-1.5012 1.8094-5.6362 3.9791-8.2677 1.8094 0.37677-6.1465-0.37677-11.932-2.6315-17.354 6.7677 2.5311 9.7724 8.6764 10.899 15.544z"/>
    <path id="_122545400" class="fil1 str1" d="m1005.9 52.926c4.5094 0.36378 9.0189-0.72165 12.778 1.0854-6.013 5.785-18.417 2.8937-27.059 2.5311-43.975-16.991-98.095-10.485-146.95-15.546 55.998-3.9768 110.87-2.5299 161.24 11.929z"/>
    <path id="_122544656" class="fil1 str1" d="m498.18 65.943c-2.6315-9.0378 3.7583-17.714 11.65-24.223-0.75118 9.4004-2.6315 19.162-11.65 24.223z"/>
    <path id="_122544040" class="fil1 str1" d="m543.28 67.75-5.2606-0.72284c-3.0083-7.5921 4.1315-15.184 10.899-18.438l5.2594-2.5311c-3.3815 5.4224-7.5154 14.461-10.898 21.692z"/>
    <path id="_122543656" class="fil1 str1" d="m183.6 54.736c-1.5047 3.6154-0.75118 11.208-7.5177 9.3992h-3.3827c-1.8803-4.3382 4.1339-3.2528 4.5094-6.8681 1.5047-3.6165-3.3815-6.8705 0.75118-9.4004 3.385 1.4457 4.8886 3.2539 5.6398 6.8693z"/>
    <path id="_122543040" class="fil0 str0" d="m1124.3 47.866c3.7583 12.292-13.155 18.438-19.919 24.946h-5.263c4.1362-10.846 20.296-13.739 25.182-24.946z"/>
    <path id="_122542376" class="fil1 str1" d="m879.66 80.765c-9.3957 7.5933-23.865 2.8937-32.322 0-14.562-7.5-29.597-26.029-22.55-31.091 7.9878-1.2661 8.3787 12.363 15.409 18.801 15.598 14.28 30.067 14.099 39.463 12.291z"/>
    <path id="_122541744" class="fil1 str1" d="m597.4 50.396c-10.525 9.4004-21.047 19.162-28.941 30.368-5.6374 1.4468-4.5106-5.7839-3.3827-8.6752 7.1433-11.57 20.67-16.268 32.323-21.693z"/>
    <path id="_122541112" class="fil1 str1" d="m472.25 70.282c-1.1291 1.0842-2.2559 2.5311-3.7583 1.8083-3.3827-5.0622-1.8803-12.654 0.75118-17.354 2.6315 4.6996 5.263 10.122 3.0071 15.546z"/>
    <path id="_122540280" class="fil1 str1" d="m451.2 93.782c-6.3898 0-9.7736-5.785-10.524-11.209v-4.3382c3.7571 5.785 15.033 5.785 10.524 15.547z"/>
    <path id="_122539888" class="fil1 str1" d="m597.4 104.99c-1.8803 1.8071-4.885 3.9768-7.1433 1.8071-6.3874-9.039 10.526-16.63 12.781-26.032 3.0047 9.039-1.5035 17.715-5.6374 24.224z"/>
    <path id="_122539120" class="fil1 str1" d="m509.83 107.52c2.2547-7.2307 3.3827-14.823 3.0071-23.139 5.6374 14.463 1.8791 32.901-7.5177 43.385 2.6315-10.485-14.656-8.6776-21.422-14.1-5.2618-4.6996-13.908-6.1465-15.41-13.737 7.1421 6.8681 14.283-2.8937 22.551 1.8059-1.8803-6.8693-10.899-13.015-18.792-14.099l-7.5165 1.0842c0.75118-3.6154 5.6374-4.3394 8.2677-6.1465 17.666-0.72284 23.679 16.991 36.833 24.946z"/>
    <path id="_122538600" class="fil0 str0" d="m998.8 95.589-27.063 6.1453-15.408-16.63c15.784-0.36142 30.066 2.8925 42.47 10.485z"/>
    <path id="_122537712" class="fil1 str1" d="m112.94 88.72c3.0059 3.6154-0.37677 8.315-3.385 10.123-4.5094 2.5311-9.0189 0-10.899-3.2539v-3.6154c5.263 5.4236 9.7724-1.8071 14.284-3.2539z"/>
    <path id="_122537080" class="fil0 str0" d="m82.501 93.782c-1.128 9.7606-14.282 2.1673-19.92 6.8681 1.5047-4.7008 3.4784-9.3094 13.531-11.206 3.0059-0.3626 6.3898 1.0842 6.3898 4.3382z"/>
    <path id="_122536696" class="fil1 str1" d="m530.88 114.75c13.906-0.72284 38.712-6.5079 49.612 6.8693-7.8945-1.0854-20.297-5.785-25.558 0.72402 6.0142 1.8071 12.027 5.061 16.537 7.9524-10.899 3.2551-25.181 8.6764-35.329 0-3.3827-1.0842-5.2618-6.5079-9.7713-4.3382-4.5118 1.8083-1.8803 8.6776-8.2701 7.5933 6.3898-14.463 10.526-32.539 25.182-41.577-4.1339 7.5909-11.275 14.1-12.403 22.776z"/>
    <path id="_122536064" class="fil1 str1" d="m446.69 103.18c0.75 2.5311-0.75354 4.3382-1.5047 6.1453-3.7594-2.1685-10.149-7.9524-10.149-13.013 4.1362 1.8059 9.3968 3.2516 11.654 6.8681z"/>
    <path id="_122535680" class="fil1 str1" d="m191.49 109.33c-3.0071 6.8705-7.8921 16.268-18.041 16.631 1.8803-8.315 8.6445-18.438 17.29-19.884l0.75118 3.2528z"/>
    <path id="_122534808" class="fil0 str0" d="m493.4 105.23c-4.0583 2.1685-1.3524 6.9413-2.2547 10.413-1.8035-1.3028-4.5094-4.3394-3.1571-7.376 1.8035-1.3016 2.7059-4.3382 5.4118-3.0366z"/>
    <path id="_122534424" class="fil0 str0" d="m136.62 119.81c5.6374 8.6764 1.5047 20.245-3.7583 27.837h-1.878c-3.7606-9.3992-1.8815-22.776-15.034-26.03-2.6327-1.8071-8.2689-1.8071-7.5177-5.4224 9.7713-2.1697 20.295-3.9768 28.188 3.6154z"/>
    <path id="_122534040" class="fil1 str1" d="m1793.7 122.34c1.8803-1.8094-1.5024-3.9768-1.878-6.1465 13.905 1.8059 27.436 15.907 43.972 13.015-4.5094 7.2307-13.531 10.846-22.551 7.9547-25.557-2.5311-45.852-27.84-73.664-14.823 2.2547-3.9768 6.3898-6.8705 11.65-8.6776 15.785-1.0842 28.563 4.7008 42.47 8.6776z"/>
    <path id="_122533656" class="fil1 str1" d="m1726 129.21c-0.37559 9.3992-5.6374 16.992-12.778 23.499-14.281 11.93-33.826 11.569-52.241 13.016l-105.61-5.0622-189.42-15.546c-0.75118-1.8083-2.2547-0.72284-3.7594-1.0842 25.558-5.4236 49.612 3.2539 75.169 2.5311 78.55 1.4457 152.59 15.546 232.64 11.568 16.537-3.2539 36.456-2.1685 45.1-20.967 1.1268-6.1465 5.2618-14.463 0-19.885 5.2618 1.8071 9.0213 7.2307 10.899 11.93z"/>
    <path id="_122532904" class="fil1 str1" d="m209.53 122.34c2.6315 7.9524-5.2606 11.568-10.899 14.099l-7.8909 1.4457c5.6362-4.6996 10.147-14.823 16.912-18.076l1.878 2.5311z"/>
    <path id="_122532272" class="fil0 str0" d="m547.75 120.9c-2.4437 2.3504-5.3752 8.4602-2.4437 12.69-2.4413-1.4102-4.3961-5.6398-3.4181-9.4004 1.9524-0.93898 2.9303-4.2295 5.8618-3.2894z"/>
    <path id="_122531888" class="fil1 str1" d="m228.7 136.44c1.5047 9.039-9.7701 10.123-15.409 13.737-4.5106-8.3126 7.1409-13.013 10.899-18.076 1.8803 1.0842 3.7583 1.4468 4.5094 4.3382z"/>
    <path id="_122531272" class="fil1 str1" d="m605.67 137.17c-5.6374 5.7839-13.908 7.2295-21.8 5.0598l-0.75236-0.72284c5.2618-2.8925 14.283-9.3992 22.552-4.337z"/>
    <path id="_122530664" class="fil0 str0" d="m118.58 140.78c-0.84685 9.3083-8.6457 15.183-17.29 15.544 8.6445-3.9756 1.5047-29.646 17.29-15.544z"/>
    <path id="_122529776" class="fil1 str1" d="m458.72 145.84c0.75118 4.7008-5.6386 5.0622-8.2677 6.8693h-2.6315c-1.5047-4.3382 4.885-7.9535 7.1409-11.929 2.6315 0.36024 4.5094 2.1685 3.7583 5.0598z"/>
    <path id="_122529168" class="fil1 str1" d="m597.4 148.37c-4.1339 8.6764-15.034 5.4224-23.302 6.1476 3.7583-7.2319 14.659-5.785 23.302-6.1476z"/>
    <path id="_122528504" class="fil1 str1" d="m1475 192.84c-13.905 8.6752-32.322 1.4445-48.482 2.5287-60.51-3.9756-110.5-34.345-173.26-30.367 19.544-9.3992 42.097-0.72402 63.142-1.0842 51.49 12.654 103.36 25.308 158.6 28.923z"/>
    <path id="_122527888" class="fil1 str1" d="m574.1 178.02v1.8071c-5.263-1.0831-8.6457-5.061-10.9-9.7606 7.1409-3.9768 9.3957 2.8925 10.9 7.9535z"/>
    <path id="_122527272" class="fil1 str1" d="m560.57 171.15c-1.5035 4.6996 2.6303 8.6764 0 13.016l-9.0201-10.485c1.5024-2.1685 5.2606-3.2528 9.0201-2.5311z"/>
    <path id="_122526504" class="fil0 str0" d="m498.18 180.55c-4.8862 16.632-15.222 40.221-23.868 55.407 0 0 3.2894-30.279 15.507-58.297 2.628-1.0842 7.6087 1.0842 8.361 2.8902z"/>
    <path id="_122526120" class="fil1 str1" d="m1740.3 200.43c7.5189 13.376-2.2535 26.032-5.2594 38.322-3.7583 1.0854-7.5165 4.7008-10.899 3.2539 9.0189-10.122 12.777-26.029 7.1409-39.045l-4.5094-3.2528c-19.17 6.1453-39.84 12.653-61.265 11.206 21.048-4.6996 39.465-14.46 59.385-21.691 8.6433-0.72402 11.275 5.7839 15.408 11.206z"/>
    <path id="_122525088" class="fil1 str1" d="m1137.9 199.71c7.1409 2.5287 15.034 4.6996 19.92 11.206 0.37441 6.8693-7.5165 7.9535-12.027 10.485-10.148 1.0842-18.04-9.3992-27.811-4.337-1.5047 6.1441 6.763 3.2528 8.2677 6.8681l5.2618 5.0622-32.324-7.5933v2.5311c9.398 5.4224 21.425 10.123 27.063 19.161-8.2677-2.1697-16.162-10.122-24.431-6.1465l19.922 14.824c-12.78 6.8681-26.311 18.8-42.471 16.268-7.1409-1.4457-16.535-2.5311-19.167-9.4004 3.0047-2.1685 6.3898 2.1685 9.0189 0.72284-8.6457-11.929-24.431-14.823-37.585-19.885 7.1433-5.4213 16.913 2.5311 25.935 2.5311-3.7583-6.5055-16.162-7.9524-22.55-13.013 8.2677-3.6165 14.281 4.6984 21.796 1.8071-10.898-7.5933-26.684-7.2319-38.709-13.737v-2.5311c24.053-28.2 66.899-16.632 96.215-7.9547 7.8921-2.1685 16.913-1.8083 23.678-6.8681z"/>
    <path id="_122522144" class="fil1 str1" d="m1589.6 243.09c-10.899 5.785-9.0189-10.122-16.159-14.099 7.8909 0.72284 13.154 7.5921 16.159 14.099z"/>
    <path id="_122521760" class="fil1" d="m1600.5 239.48c0 2.172 0.37559 4.3406-1.878 5.4248-6.3909-2.5311-7.1421-10.124-11.652-14.823 5.2606 1.0842 11.652 3.6142 13.53 9.398z"/>
    <path id="_122521128" class="fil1 str1" d="m1614 238.76c0 2.1697 0.37677 5.785-2.6303 6.1476-6.7654-2.5311-6.7654-10.485-11.652-14.823 5.6362 1.0842 10.147 3.9768 14.282 8.6752z"/>
    <path id="_122520496" class="fil0 str0" d="m889.81 249.24c1.5024 3.2528-2.6315 3.6154-4.5094 4.337-12.778 1.8094-9.3968-13.376-19.922-14.823 9.7724-2.8925 20.295 2.8949 24.431 10.486z"/>
    <path id="_122520336" class="fil0 str0" d="m382.04 239.48c-24.429 12.294-49.985 24.586-72.161 40.132-0.37795 0.72284 0.75 1.8071 1.5024 1.4457 30.818-14.823 60.511-27.115 95.839-31.814 6.7654 5.0622 5.6386 14.461 4.5118 21.691l-9.0224 8.6776c6.0142 2.8913 13.156 5.785 20.673 3.2539 5.2618-1.4468 8.2689-8.6764 15.409-6.1476 3.7583 4.7008 6.0142 10.847 7.8945 14.825-3.7594 0.72284-7.1433-5.4236-10.525-0.72402l4.5106 6.8681c-6.3909 0.7252-13.908-5.0598-19.92-1.8059 0.37559 5.7839 6.7665 7.9524 10.9 10.484-7.8921 9.039-24.806 1.4457-36.082 0-3.7583 2.8925 0.75 6.8705 2.6303 9.4016-8.6445 2.5299-18.039-3.978-25.181-1.4468 0.37559 5.4213 7.5177 5.4213 9.7736 8.6752-10.9 0-24.054 0-34.202-3.613-3.7583 1.4445-0.75354 4.6984 0.75118 6.1453 1.5024 2.5299 4.1339 2.1685 6.3886 3.2528v1.8083c-13.905 2.5311-24.803-6.5079-37.959-0.72402 0 4.3394 5.2618 3.2551 7.1398 6.1465 19.922 1.0842 36.458 9.4004 52.619 18.801-17.29 0.72165-34.202-5.4248-48.108-15.547-3.7594 1.0842-10.522-2.5299-11.652 3.6154l10.147 13.015c-13.53 3.9791-20.295-21.331-33.449-12.291-0.75354 6.1441 4.1339 9.4004 7.8921 12.291-22.551 7.2319-28.187-31.814-49.611-16.63 7.5165 4.3394 10.899 8.315 16.538 14.824 1.8791 3.9756-5.2618 5.4224-8.2677 3.613-7.1409-3.613-7.8945-14.46-17.29-14.822-3.7583 2.8925 0.75118 11.932-7.1409 10.484-7.1398-5.0622-13.154-10.122-16.912-19.16-2.2547-0.72402-4.5094 0.72165-4.5094 2.5311-2.2547 5.4224 3.7583 7.5921 1.5024 13.013-6.0118 3.9791-7.1421-4.337-11.652-5.0598 3.0083-8.6776-1.1268-16.992-3.3815-24.585-5.6386-4.6996-8.6457-9.3992-15.409-11.206-8.6445 8.6752 6.3874 16.63 9.0189 25.306 0.37677 7.5921-1.878 14.461-7.1409 19.885h-3.0059c3.0059-4.702 5.2594-10.847 5.6374-17.354-2.6315-2.1709-5.263-5.061-9.0201-6.1465-3.7606 4.7008 3.7571 8.3161 0 13.016-5.6386-0.3626-12.403-8.6787-20.67-4.3394-3.7583 3.2551-8.2701 4.3394-12.78 6.1465 2.6303-3.6154 5.6362-9.0378 1.878-13.016-3.0059-5.0622-8.2689-1.4445-11.652 0-7.5142 6.8693-17.663 9.7618-23.676 18.078-14.658 1.0842-4.135-19.522-18.791-20.609-0.75354-2.8913-4.8862-3.9756-4.5118-6.8693 0-4.6984 3.7583-6.1441 7.1409-8.6752 15.785-3.6154 28.189 6.1465 42.47 1.4468 1.5047-1.0854 0.37677-3.2563 0.75118-5.0622-2.6291-6.1476-7.8921 0.72165-11.65-2.5311-13.53-3.6165-27.813-5.4236-41.342-1.0854-6.0118-11.206 6.013-20.245 7.1421-31.091h10.899c12.778 8.315 25.932 16.991 41.342 19.885l3.7583-3.2539c-4.5094-15.909-24.807-6.5079-30.068-20.246-1.5024-12.654 15.41-11.208 15.41-23.138 2.6315-2.8937 6.7654-3.2539 10.149-1.8071 6.763 5.0598 7.5142 12.654 11.65 19.161 21.798 24.584 61.261 9.3992 89.074 19.884 51.489 2.8913 86.445-33.261 130.79-47.001h3.0059z"/>
    <path id="_122519704" class="fil0 str0" d="m123.09 249.24c-0.37795 2.5311 1.1268 6.5067-2.6315 6.8681-8.2689-1.4468-9.7724-10.122-14.659-14.823 6.7665 0.72284 13.531 2.1697 17.29 7.9547z"/>
    <path id="_122510800" class="fil1 str1" d="m1672.7 252.49c7.8945 6.8693 10.9 16.994 8.2701 27.116-4.5118 8.3161-9.3968 20.245-22.551 18.801h-3.0071c6.0142-3.978 12.404-8.6776 13.532-15.547 1.878-8.3161-1.8803-14.823-7.1433-20.608-8.6421-9.3992-20.295-13.015-31.568-14.822 13.904-2.8937 31.194-2.8937 42.468 5.0598z"/>
    <path id="_122509304" class="fil1 str1" d="m1743 275.99c0.75354 7.9535-9.7713 8.315-7.1398 17.354-11.275 3.978-6.3898 19.885-21.8 19.885 5.6374 6.8681-6.0142 9.3992-10.522 10.484-9.0213-0.72402-19.545 2.1697-25.558-6.1465 4.5094-1.8059 11.65-2.5311 14.659-7.5909l-1.878-1.8083c4.5094-4.7008 13.904-1.4468 18.79-6.1465-1.1268-2.1697-3.3827-1.8083-5.263-1.8083 3.7583-6.8681 14.659-3.9756 17.29-11.93l-5.6374-2.8913c3.7571-6.5091 15.41-4.7008 11.652-14.463l-5.263-3.6154c7.1409-5.061 13.154-11.929 17.289-19.16 12.027 8.315-6.3898 20.244 3.3815 27.837z"/>
    <path id="_122508640" class="fil1 str1" d="m152.78 261.17c0.75236 2.5311 3.7583 6.5079 0 8.6764-1.8791 0.3626-3.7583 3.2551-5.2606 1.0842-4.8862-3.2528-1.8815-9.7606-8.2689-11.569-0.75354-10.122 12.402-2.8913 13.53 1.8083z"/>
    <path id="_122507824" class="fil1 str1" d="m1048.4 281.06c-24.054 1.8083-48.482-8.6764-65.772-24.223 23.679 4.3394 42.847 18.8 65.772 24.223z"/>
    <path id="_122506896" class="fil1 str1" d="m915.74 266.6c-1.5047 5.4236 0.37441 12.653-6.0154 15.544-2.2547-1.8071-4.1327-7.5921-4.5106-10.484 0.75354-3.9768 1.1291-9.4004 5.263-11.209 4.1339-0.35906 4.5094 3.2551 5.263 6.1476z"/>
    <path id="_122506112" class="fil0 str0" d="m616.57 271.66c0.75118 13.015-14.659 16.992-22.552 24.223-6.3886 0.72165-10.522-5.785-16.537-3.2539-1.1268 3.9756 3.3827 13.376-4.5083 14.46-11.277 1.8094-23.304-10.122-31.572-0.72284-6.013 1.0854-12.777-1.0842-14.282-6.8681 0.75118-4.3382 1.128-9.4004 5.263-11.209 18.415 2.5311 42.469 7.9547 54.12-8.6764 2.6291-6.1465 3.3827-13.737 10.147-17.354 8.6445-1.8083 13.906 3.9768 19.92 9.4004z"/>
    <path id="_122505480" class="fil0 str0" d="m1577.2 269.85c1.128 1.8083-2.2559 5.4248-3.7583 7.9535-4.1362-0.72284-7.8945-6.5067-11.653-9.7606 3.7583-3.6154 10.902-0.36142 15.411 1.8071z"/>
    <path id="_122504848" class="fil1" d="m1186.4 285.39c-3.3827 8.6752-13.155 14.46-21.424 14.822 9.3968-9.0378 18.415-19.884 19.919-32.9 4.5118 3.6154 2.2547 12.654 1.5047 18.078z"/>
    <path id="_122504232" class="fil1 str1" d="m858.99 280.33v1.8071c-4.8839-8.6764-27.436 3.6154-16.911-12.292 6.7642 1.0842 13.154 4.3394 16.911 10.485z"/>
    <path id="_122503600" class="fil0 str0" d="m822.16 277.8c0.37677 13.377-18.04 2.1697-23.678 11.209-0.37677-7.2319 9.3957-12.653 16.537-15.547 4.135-1.4445 5.2618 1.8094 7.1409 4.3382z"/>
    <path id="_122458032" class="fil0 str0" d="m80.621 289.01c0.37677 2.8913-0.37677 6.1465-3.7583 6.8693-6.0142-1.4468-13.528-4.3382-19.542-0.72284 4.1327-6.5079 19.918-21.693 23.301-6.1465z"/>
    <path id="_122457272" class="fil1 str1" d="m1151.4 295.88v2.5311c-30.444 26.752-71.787 34.345-113.88 37.598l-14.282-2.8913c4.135-4.3394 0-12.653 6.3898-15.547 13.154 3.978 33.826 8.3161 43.221-3.2528 9.7713-2.5311 25.557 5.7839 29.691-7.2319 8.6445-5.7839 17.666 4.3382 26.31-1.4457l0.75118-9.7606c8.2689 2.5311 15.785-5.0622 21.8 0z"/>
    <path id="_122456656" class="fil1 str1" d="m235.84 308.9-1.128 6.1441c-3.3839-6.5067-14.658-13.015-7.1421-20.969 7.1421 1.8094 7.5165 8.3161 8.2701 14.825z"/>
    <path id="_122456040" class="fil1 str1" d="m253.88 302.75-1.1291 10.486c-5.6374-4.3382-10.524-7.5933-9.7713-16.27 4.885-7.2307 10.524 1.4468 10.9 5.7839z"/>
    <path id="_122455424" class="fil1 str1" d="m270.8 303.83-0.75118 8.6764c-6.013-3.613-7.8921-9.7606-10.899-15.544 5.263-6.8693 10.148 2.1685 11.65 6.8681z"/>
    <path id="_122455040" class="fil0 str0" d="m502.69 302.02c13.908 1.8071 28.939 5.7839 32.699 19.884 0.37559 3.6165-3.7594 3.2539-5.6374 4.337-15.034 2.5323-26.309-11.928-40.592-4.337 0.75354 8.3161 14.659 4.7008 11.652 13.015-10.147 1.8094-20.67-9.0366-30.443-2.5299 2.2547 4.3394 5.263 8.6776 10.899 9.4004-21.798 11.209-30.444-20.245-49.61-11.208 0.37559 9.3992 17.288 9.3992 12.403 19.885-18.791 14.099-27.813-18.438-45.103-8.6776-0.37559 5.4213 6.7665 6.1465 8.2689 10.485-12.778-0.72284-22.926-11.932-37.208-11.932 43.222-7.2295 83.061-20.967 118.39-46.277 7.1409-2.8913 9.7724 6.8693 14.282 7.9547z"/>
    <path id="_122454152" class="fil1 str1" d="m105.05 295.16c3.0071 6.8681-4.5094 6.1453-9.0189 8.6752h-5.6398c-1.878-2.5299 0-5.061 1.8803-6.8681 4.1339 4.3382 8.6445-1.4468 12.778-1.8071z"/>
    <path id="_122453768" class="fil1 str1" d="m935.66 322.99c-4.5094 7.2319-12.027 7.2319-19.918 6.8693 7.1398-7.2295 16.16-16.629 18.04-27.115 6.0142 5.785 4.1339 13.376 1.878 20.245z"/>
    <path id="_122453128" class="fil0 str0" d="m1523.1 313.23c-0.75236 7.9524-13.155 2.5311-18.039 7.9524h-1.8803c-1.5047-6.8681 8.2677-11.206 13.53-14.1 4.1339-1.0842 5.263 3.978 6.3898 6.1476z"/>
    <path id="_122452496" class="fil1 str1" d="m971.74 315.76c0 6.8681-2.6315 11.929-7.8933 14.822h-3.7559c1.1268-6.8693 5.2594-12.653 3.7559-20.607 5.6398-4.3394 5.6398 3.2539 7.8933 5.785z"/>
    <path id="_122451856" class="fil1 str1" d="m954.83 321.18c0 7.5921-7.5177 13.737-13.531 17.354h-6.3886c2.6291-5.4224 7.5165-9.0378 10.899-14.823l3.3827-13.737c6.013 0.36024 3.7594 7.2295 5.6374 11.206z"/>
    <path id="_122451088" class="fil1 str1" d="m846.58 325.52c-1.878 1.8059-4.5094 3.6154-6.3898 1.8059-6.0142-5.061 4.135-8.3138 1.8803-14.098 5.2606 1.8059 4.1327 7.5909 4.5094 12.292z"/>
    <path id="_122450456" class="fil0 str0" d="m822.91 331.67c1.8791 6.8681-16.912 13.737-16.912 13.737 0.37441-7.2319 1.5815-11.242 6.1854-17.932 3.0071-3.9768 12.606-1.2319 10.727 4.1941z"/>
    <path id="_122449824" class="fil1 str1" d="m130.23 331.67c-1.5035 5.4213-8.6445 8.6752-14.281 10.122-1.128-2.1697-4.1362-3.6165-3.0059-6.8705 6.0106-0.36142 10.897-6.1453 17.287-3.2516z"/>
    <path id="_122449440" class="fil1 str1" d="m894.32 343.6c-1.128 3.9756 2.2559 10.123-2.6291 11.208-5.6398-4.3382-8.6457-12.292-7.5189-18.801 7.5189-4.6996 8.2689 3.6154 10.148 7.5933z"/>
    <path id="_122448800" class="fil0 str0" d="m94.903 341.79v2.8925c-6.013 2.1697-12.402 4.6984-16.913 8.6752-1.1268-7.2295 5.2618-11.928 10.9-16.629 3.7583-0.36142 5.2618 2.1697 6.013 5.061z"/>
    <path id="_122448160" class="fil1 str1" d="m1614 360.23v0.72284c-3.3815-2.1673-9.0189-5.4236-8.2677-10.484 1.5024-0.7252 2.2535-3.2563 4.5094-2.5311-1.5047 3.9756 2.6303 8.3161 3.7583 12.292z"/>
    <path id="_122447544" class="fil0 str0" d="m171.58 350.47c0.37559 9.7606-6.3898 17.353-12.403 23.498h-2.6315c13.908-5.785-6.3898-31.091 15.034-23.498z"/>
    <path id="_122443872" class="fil0 str0" d="m1553.5 355.89c-4.5094 4.7008-13.154 4.7008-19.917 6.8693-1.1291-2.8902 1.1268-6.8693 3.0047-9.4004 3.3839-2.5311 7.8933-6.5055 12.403-3.6154 1.5047 2.1697 2.6315 4.3406 4.5094 6.1465z"/>
    <path id="_122442984" class="fil0 str0" d="m875.15 358.42c1.8803 6.1465-4.1339 10.845-9.0201 13.015l-7.1421 1.8094c1.5035-4.7008 2.0539-15.038 8.2701-18.438 3.7583-0.72284 6.7654 1.0831 7.8921 3.6142z"/>
    <path id="_122442352" class="fil0 str0" d="m1632.8 367.82c0.75118 3.9756-0.37677 6.8705-2.6315 9.7606 0.37441-5.4213-12.403-9.7606-2.6315-14.823 3.3827 0 3.7583 3.2539 5.263 5.0622z"/>
   
   
    <polygon id="_122441360" class="fil2 str2" points="0.012992 1102.7 1919.5 1102.7 1919.5 1196.8 0.012992 1196.8"/>
    <path id="_122441200" class="fil3 str3" d="m731.03 655.35c-1.1445-6.4902 1.5142-15.312-0.47716-18.141l-24.823-58.717c-15.276 3.3425-18.141-15.752-5.3315-21.061 10.106-1.8508 134.6-25.527 134.6-25.527 28.261-15.659 56.903-31.318 85.166-46.976-1.9098-4.1988-5.8252-13.365-5.348-13.365 7.6382-4.5366 15.992-7.8768 26.255-8.3539 0 0 3.8197 11.456 3.8197 11.217 0 0 5.2512-0.95433 5.4898-0.71575-0.23858 0.23858-1.722-12.705-1.6713-14.082 8.8323-2.8654 23.106-2.1484 31.507-0.23858 0 0-1.4327 14.082-1.6701 14.082 1.4551 0.45591 5.0114 0.95433 5.0114 0.95433 0.23858 0 3.0567-10.98 3.1028-11.217 8.8311 0 21.244 4.0571 28.643 8.1142l-3.1028 6.9224s38.19 11.695 37.713 12.172l193.16-38.392c5.1874-0.99094 8.1579 0.68386 9.4842 5.6917 2.1472 8.1154-9.0709 13.605-26.017 16.469-18.141 57.523-45.158 117.2-74.948 172.57 27.211 29.597 168.99 99.771 168.99 99.771h140.82c7.1622 0 17.296 7.9618 17.296 17.127 4.2012 1.5272 9.1654 0.76535 11.839 5.7284 1.1457 10.313-10.692 8.0209-15.658 13.749-5.7295 10.692-15.658 20.622-22.915 30.169v6.4937c7.2567 1.9098 18.333-1.1468 21.005 7.2555 0 3.0543-0.38268 6.111-3.437 8.0197-2.674 0.3815-6.8728-1.1457-7.2555 3.0555 2.2913 7.2555-4.2012 11.074-7.6382 16.421-10.422 1.7764-7.2555 11.076-7.2555 11.076 1.1457 11.075 3.2315 23.927 0.17598 34.619l-12.78 0.13228-0.10984-41.665c-0.47716 0-6.2067 0.38268-10.025 0 0 0 0 41.055-0.17598 41.665l-17.185 17.185c-3.8185 27.88 10.31 66.833-19.478 79.819-7.2543 2.6716-13.286 2.635-21.004-3.4382-5.7284-5.3468-8.4024-14.13-4.5827-21.386 3.4358-7.2579 12.221-9.9295 20.241-10.694-1.1468-6.111-8.785-3.8185-12.986-5.7284l1.1468-8.0209c16.039-27.113 34.833-58.85 42.09-89.401 0 0-8.8937 0.01063-8.5937 0-5.7272 23.679-17.281 46.926-31.029 67.548 4.2012-18.712 6.4925-45.015 3.8185-67.548h-8.1142c7.1598 86.405-34.371 143.21-89.065 173.42 0 0-11.185 3.9248-33.621 3.9248h-144.4l-11.218-29.596h164.69c31.984 0 103.11-54.899 80.199-147.75h-7.1598c19.572 86.405-44.396 139.39-80.199 139.39h-150.85c-5.4898-4.0583 2.387-8.5937 0.95433-17.902h145.6c24.823 0 77.335-41.294 56.809-121.49 0.27165 0.25039-9.0709 0-8.5937 0 20.05 58.717-20.049 115.52-55.853 113.14h-139.87c-6.2043-9.3094-17.422-14.082-31.873-11.896-6.4902 1.9087-13.905 5.022-16.579 11.896h-22.915c-6.2055-8.5925-18.553-15.334-33.067-11.896-6.111 1.9087-13.428 5.022-16.102 11.896 0.081496 0.011811-16.659-0.14173-25.062 0.23858-5.9669-9.0709-18.792-15.573-32.923-12.135-6.4937 1.9087-13.811 5.022-16.485 11.896-6.3591-0.28937-16.231-0.23858-16.231-0.23858-1.6618-0.91181-4.3394-5.9846-5.8571-7.0748-9.4193-6.7689-26.278-7.6583-33.989-2.674-6.2209 4.0193-8.3693 7.839-8.0209 9.9295-66.703-1.6134-142.45 8.7827-175.29-54.23-10.311-20.622-12.665-45.483-9.9295-71.413 0.12874 0.15236-8.7024-0.087402-8.7024-0.087402-4.5354 51.079 8.3209 92.888 49.185 115.8 40.864 22.913 88.059 16.91 142.48 18.341-0.47716 10.502 6.9224 15.754 10.264 18.139-0.0047244 0.13937-62.303 0.29173-62.297 0-38.779-1.128-84.565-4.6736-111.83-17.386-47.355-27.495-67.214-79.435-63.014-134.81-0.10866-0.087402-5.7886 0.29528-8.4626-0.087402-3.437 56.523 13.43 110.84 63.456 141.39 28.064 15.364 75.263 18.263 116.75 19.01-0.23858-0.017716 76.634-0.038976 76.618 0 3.0567 9.1665 7.8768 29.596 8.3551 29.596-0.47835-0.2374-97.624-0.2374-97.624-0.2374-55.207-0.2185-111.9-6.7158-151.07-47.606-36.663-38.19-53.482-91.788-51.174-142.06 0.079134-0.087402-9.2906 0.11693-8.9894-0.087402-1.9098 72.561 28.847 144.44 96.061 178.05 48.821 20.776 82.237 17.433 128.32 19.095l86.389-0.22913 6.9224 25.539c-114.81 23.63-201.21 14.084-264.78-60.063-41.503-48.406-75.234-104.26-101.58-163.07-6.4925-0.76299-13.859 1.1551-17.568-6.4913-0.34842-10.254-12.474-14.264-13.238-22.665 15.276 0 5.4898-14.799 3.3425-19.335-8.4024-14.511-22.198-25.778-37.952-30.552-4.2957-0.47716-3.3413-9.0709 0-8.8311 16.709-2.387 24.823-21.959 40.577-20.05h146.08l102.63-82.108z"/>
    <path id="_122440424" class="fil0 str0" d="m971.63 479.2c6.1098-0.38032 16.946 2.6256 16.946 2.8642l2.6268-9.548 11.694 3.1039-7.4941 17.712c-17.948-5.7295-42.964-5.5382-60.53 0.18898l-7.8768-17.424c2.6244-1.4327 7.8768-3.1039 10.501-3.5811-0.2374 0.098032 3.724 9.1677 3.8197 9.3094 5.348-1.5272 15.515-2.7213 15.754-2.6256l-0.71575-11.934c3.5799-0.95551 12.411-0.95551 15.514 0 0 4.0571-0.23858 11.934-0.23858 11.934z"/>
    <path id="_122439760" class="fil0 str0" d="m1215.8 476.1c-17.902 57.046-42.614 113.03-71.64 164.97 0 0-26.939-23.906-36.007-35.839 19.095-45.829 47.913-85.296 88.791-125.07-0.47716 0 13.509-3.2929 18.856-4.0571z"/>
    <polygon id="_122439376" class="fil0 str0" points="1003.6 499.96 1009.6 484.21 1041.1 492.33"/>
    <path id="_122438768" class="fil0 str0" d="m1170.9 485.64c-24.824 8.4035-58.846 32.07-86.342 16.795-0.53976-0.56457 86.342-17.033 86.342-16.795z"/>
    <path id="_122438152" class="fil0 str0" d="m974.97 505.22v-4.5354c6.6839 0 14.082 0.71575 15.992 1.9098-3.1028 0.95433-15.992 2.6256-15.992 2.6256z"/>
    <path id="_122437544" class="fil0 str0" d="m1059.8 508.17c-21.005 19.095-52.703 29.026-79.818 17.186 0.033071-0.08622 79.754-17.271 79.818-17.186z"/>
    <path id="_122436912" class="fil0 str0" d="m957.03 529.17c-8.0185 18.331-31.713 26.409-47.737 27.496-13.744 0.93189-24.442-4.5815-32.843-12.984 27.113-4.2024 53.466-10.692 80.58-14.512z"/>
    <path id="_122436296" class="fil0 str0" d="m801.22 575c-13.748 1.9098-27.878-2.2925-38.572-8.4024l82.492-17.185c-8.0209 16.422-27.116 22.152-43.919 25.587z"/>
    <path id="_122435560" class="fil0 str0" d="m731.99 626.71c-6.874-17.185-13.639-33.379-21.278-49.8l31.302-7.0075c-4.774 13.844-8.1154 36.95-10.024 56.808z"/>
    <path id="_122434928" class="fil0 str0" d="m1139.6 650.23c-17.583 25.645-30.169 50.793-49.646 74.089-3.437-37.045 2.9445-77.564 14.401-109.07 0 0 22.436 24.824 35.245 34.982z"/>
    <path id="_122434072" class="fil0 str0" d="m812.3 876.32c11.074 12.984 23.472 28.175 37.602 38.486h-97.384c-28.403 0.95433-38.19-26.017-36.455-68.655 8.7673-0.56457 24.521 2.0622 25.585-9.9307v-8.4024c4.5839 0.76535 10.815-2.0811 10.631-7.0547-0.23976-6.4441-2.9929-7.0736-6.8126-8.602l-8.4-0.76417v-41.244c3.437 0.38032 9.0059-2.1402 8.5287-7.3902-0.34488-3.7949-2.0374-6.3591-6.6201-7.1232-8.4024 2.674-11.758-16.268-22.737-18.178 0.47598 0.47835-75.425 0-75.425 0l89.76-70.041c9.1665 77.526 38.955 146.65 81.728 208.9z"/>
    <path id="_122433464" class="fil0 str0" d="m714.32 747.96c3.5799 1.4315 5.5524 6.5303 5.5524 6.5303h-251.29l13.733-7.0063 232 0.47598z"/>
    <path id="_122432840" class="fil2 str2" d="m1147.6 909.54c-41.628-32.081-78.671-69.124-121.83-97.384 18.332-19.476 41.804-43.193 54.693-61.334 10.68 43.884 28.563 113.65 67.134 158.72z"/>
    <path id="_122432200" class="fil0 str0" d="m1460.9 756.55c5.2524 0.95551 5.172 5.1933 5.9339 7.1032h-256.64s0.78071-6.7559 4.3772-7.5803c16.454-0.3685 246.32 0.47716 246.32 0.47716z"/>
    <path id="_122431560" class="fil0 str0" d="m720.64 769.38c4.5839 0.38268 2.9941 7.6961 2.674 8.0209h-243.65s-2.8311-4.8591-8.4-8.0209c7.4787 0.29764 249.38 0 249.38 0z"/>
    <path id="_122430936" class="fil0 str0" d="m1462.3 778.55c-2.674 2.674-4.2012 7.2567-7.6382 8.0209h-244.42c-0.76535-3.0555 0.38268-6.8728 2.6716-8.0209h249.38z"/>
    <path id="_122430312" class="fil0 str0" d="m945.85 864.92-24.822-18.141c-0.23976-3.1039 0.47716-33.656 0.47716-33.178 8.1142-3.3413 17.185-5.4886 24.456-4.8791l-0.11102 56.198z"/>
    <path id="_122429672" class="fil0 str0" d="m991.79 811.39c0.36732 0.057874 2.6846 19.346 2.9941 19.153 0 0-18.592 15.272-25.063 21.243v-43.919c6.8138-0.84685 16.709 1.1941 22.069 3.5232z"/>
    <path id="_122428936" class="fil0 str0" d="m999.79 826.25-2.387-13.365s9.3094 1.9087 12.174 4.5342l-9.7866 8.8311z"/>
    <path id="_122428312" class="fil0 str0" d="m905.75 835.56c0-1.4327 1.6039-13.634 1.4327-13.606 3.1028-2.387 4.0429-3.8528 8.3539-5.7272l-0.47716 25.778-9.3094-6.4441z"/>
    <path id="_122427712" class="fil0 str0" d="m1034.9 833.54-14.513 1.5284-2.2583-13.596c6.2055 2.6268 11.695 7.3996 16.772 12.067z"/>
    <path id="_122426856" class="fil0 str0" d="m1002.1 838.13c-0.15118-0.069685-0.5126-2.2346-0.39685-2.3303 2.2264-2.9315 8.8465-8.1319 10.98-10.741l2.0197 11.161-12.602 1.9098z"/>
    <path id="_122426216" class="fil0 str0" d="m728.4 826.96c1.9098 1.9098 2.1484 6.2067-0.51142 7.3417h-227.99c-2.5453-0.18071-3.2622-6.8646 0-7.2555 8.9114 0.15354 228.5-0.08622 228.5-0.08622z"/>
    <path id="_122425576" class="fil0 str0" d="m898.35 840.57c0.41575-0.22677 0.25512 1.7575 0.25512 2.902-0.015354-0.036614-11.234-0.75354-11.075-0.76181l1.2732-6.1972s5.6669 2.6362 9.5468 4.0571z"/>
    <path id="_122424912" class="fil0 str0" d="m1446.1 835.8c2.8642 0-0.47716 7.3996-3.5799 7.6394-2.1484 0.2374-225.07 0.036614-225.07 0.036614-5.7425-0.99213-3.3555-7.676-0.015354-7.4362 8.1165-0.23976 215.3-0.47716 228.66-0.23976z"/>
    <path id="_122424528" class="fil0 str0" d="m1133.1 914.89h-72.561l-18.331-76.762c30.934 25.968 60.722 51.174 90.892 76.762z"/>
    <path id="_122423712" class="fil0 str0" d="m1040.7 857.22-14.896 1.9098-4.2626-18.798c-0.34606 0.24921 14.306-2.1378 14.321-1.9098l4.8378 18.798z"/>
    <path id="_122423072" class="fil0 str0" d="m1006 896.66c-7.6382-3.1028-26.256-10.264-36.281-17.424 0.22205 0.015354 0-15.992 0-15.992l26.653-22.446c4.2012 17.948 6.9555 37.532 9.6284 55.861z"/>
    <path id="_122422272" class="fil0 str0" d="m1020.4 859.9c0.36732 0.24803-13.954 2.635-13.749 2.6716 0.034252-0.036614-3.7854-19.132-3.8185-19.095l13.401-2.4236s4.0571 19.095 4.1669 18.847z"/>
    <path id="_122421656" class="fil0 str0" d="m868.99 909.79c-1.9087 0.76417-3.6756 2.1472-5.9681 2.1472-3.1016-26.493 5.4106-48.223 18.013-66.555l-12.045 64.408z"/>
    <path id="_122420920" class="fil0 str0" d="m679.4 846.15c-6.8421 88.227 50.674 98.014 82.187 98.014h458.28c18.602 0.059055 52.989-31.03 37.713-85.45h8.5937c17.662 60.15-22.437 94.521-41.421 92.841h-466.68c-94.344 0.48661-88.219-84.4-87.074-105.4h8.4035z"/>
    <path id="_122420224" class="fil0 str0" d="m703.07 846.15c-1.161 67.939 17.696 81.067 64.24 80.112l434.52-0.29646c27.578 0.29646 40.944-37.655 30.919-67.252h7.6382c14.321 37.235-8.1154 74.471-33.893 74.471h-452.55c-60.148 0.95433-58-54.898-58-87.122l7.128 0.087402z"/>
    <polygon id="_122419648" class="fil0 str0" points="895.55 864.48 883.71 863.71 886.89 848.45 897.87 849.16"/>
    <path id="_122419264" class="fil0 str0" d="m914.58 852.98c0.034252 0.059055-0.31772 9.202-0.70039 13.404-0.25276-0.037795-11.711-0.99213-11.839-0.76299l1.8-16.221s6.9224 0.47716 6.6827 0.47716c0 0 3.8457 2.7508 4.0571 3.1028z"/>
    <path id="_122418880" class="fil0 str0" d="m919.61 888.54c-0.25394-3.0933 0.46299-32.691 0.46299-32.691l23.391 16.231s-20.049 15.992-23.854 16.46z"/>
    <path id="_122418272" class="fil0 str0" d="m1046 878.23-15.658 1.9098-2.8795-15.696c4.5839-1.1457 9.978-0.76417 14.561-1.9098l3.9768 15.696z"/>
    <path id="_122417664" class="fil0 str0" d="m1025.3 881.15-15.214 2.8051-2.674-15.658c-0.25276-0.2752 14.151-3.4134 14.308-3.1406l3.5799 15.993z"/>
    <path id="_122417040" class="fil0 str0" d="m894.77 870.17-1.8945 14.551-12.665-0.94606c-0.34724 0.29882 2.8642-14.798 2.7354-14.713-0.10984-0.085039 11.571 0.83386 11.824 1.1079z"/>
    <path id="_122416264" class="fil0 str0" d="m913.88 871.73c-0.49252 0.1063-0.3815 9.9295-0.76417 14.895 0.034252 0.01063-14.049-1.1835-13.747-1.1457l1.9098-14.512c4.1988 0.38268 12.348 0.63071 12.601 0.76299z"/>
    <path id="_122415648" class="fil0 str0" d="m919.12 914.8c0.03189-0.083858 0.10394-15.367 0.47716-15.754 7.9807-4.6264 16.838-10.919 26.255-18.378l0.11102 34.218-26.843-0.08622z"/>
    <path id="_122415040" class="fil0 str0" d="m1035.4 903.58-3.5799-18.616c-0.25394-0.035433 14.354-2.0894 14.798-2.1484l4.0583 18.379-15.276 2.3858z"/>
    <path id="_122414656" class="fil3 str3" d="m522.82 897.7c-2.0693 4.2094-18.313 12.385-25.698 10.416 0.23858 5.4898 3.8185 9.2622 5.7284 11.934 22.915 19.478 58.922 29.968 64.651 63.576 5.3468 17.568-19.15 71.37-18.612 71.456-5.7898-0.5622-16.231-2.8654-16.708-3.3425 10.981-22.436 28.063-60.475 16.224-78.042-19.475-29.407-74.47-35.517-66.067-79.816 11.838 3.437 24.379-0.51496 33.163-10.826l7.3193 14.646z"/>
    <path id="_122414016" class="fil0 str0" d="m1029.9 904.78c-0.20551-0.1311-17.424-5.4898-17.424-5.7284 0.25512-0.30945-1.4315-10.024-1.1941-10.024-0.015354 0.20197 14.832-2.661 15.038-2.6268l3.5799 18.379z"/>
    <path id="_122413632" class="fil0 str0" d="m892.11 890.06-1.1598 11.372-14.559 5.4898 3.1028-17.663c0.12992-0.035433 12.174 0.47716 12.616 0.80197z"/>
    <path id="_122413032" class="fil0 str0" d="m1007.7 914.8h-37.951v-26.972c4.2968 3.8185 36.758 16.946 36.758 16.946l1.1929 10.025z"/>
    <path id="_122412144" class="fil0 str0" d="m912.67 892.84c-3.1039 1.6701-9.7866 5.0126-15.278 6.6827l0.95433-8.5925c0.29764 0 10.475 0.64842 14.323 1.1929-0.20315 0.24567 0 0.23976 0 0.71693z"/>
    <path id="_122411760" class="fil0 str0" d="m1053.7 912.89c-3.437-1.1445-15.275-5.4898-14.798-5.25 0.081496 0.29764 12.87-2.0244 12.651-1.6724 0.21968-0.35197 1.8933 7.1728 2.1472 6.9224z"/>
    <path id="_122411160" class="fil3 str3" d="m541.04 929.12c-8.3539 0.23858-21.578-7.7799-25.779-15.037 4.0583 0.71575 13.128-5.9669 13.128-5.9669l12.651 21.004z"/>
    <path id="_122410640" class="fil0 str0" d="m911.96 902.15-0.75 12.736-15.481-0.08622c-0.23858 0 0.47716-6.6827 0.95433-6.6827 0.95551-1.1941 10.502-3.3425 15.276-5.9669z"/>
    <path id="_122410040" class="fil0 str0" d="m1035.4 914.8h-21.243l-1.1929-7.8768c0-0.23858 13.366 5.0114 22.436 7.8768z"/>
    <polygon id="_122409656" class="fil0 str0" points="875.91 914.8 889.52 910.27 889.04 914.8"/>
    <path id="_122409272" class="fil3 str3" d="m1402.4 1052.1-21.96 3.5516c-4.5827-25.204-42.679-34.252-41.152-61.748l12.984-15.658c-3.8197 36.281 50.51 39.866 50.128 73.854z"/>
    <path id="_122408888" class="fil3 str3" d="m910.52 998.1s-26.562-0.1122-26.494 0c-0.2374-1.9098-1.1705-2.9988-1.0831-6.0732l4.4256-11.829c-0.20551 0.44173 12.794 0.13819 12.651 0-0.71693 6.9224 2.1472 14.322 10.501 17.902z"/>
    <path id="_122408256" class="fil3 str3" d="m973.54 980.2c0.23858 5.2512 0.23858 10.264 9.0697 17.902h-33.416c-3.8197-5.0126 4.5342-7.8768 2.8642-17.902-0.10866-0.32362 21.242 0 21.482 0z"/>
    <path id="_122407624" class="fil3 str3" d="m716.23 1080.7c-59.672-2.387-113.08-14.674-155.09-23.266 8.1165-14.799 18.957-52.025 21.249-67.302 33.113 56.675 89.444 81.021 133.84 90.568z"/>
    <path id="_122407240" class="fil3 str3" d="m1371.9 1057.1c-36.281 8.4024-101.44 19.903-127.69 21.335 36.758-13.844 66.854-50.009 87.859-75.595 5.7284 26.255 36.778 34.785 39.833 54.26z"/>
    <polygon id="_122406648" class="fil3 str3" points="931.77 1036 889.04 1036 878.78 1006.5 922.46 1006.5"/>
    <polygon id="_122406056" class="fil3 str3" points="1004.3 1036 955.64 1036 944.89 1006.5 995.02 1006.5"/>
    <path id="_122405536" class="fil3 str3" d="m1286.2 1038.6c-22.148 24.442-56.822 40.156-82.122 41.589 0 0-66.356-4.2968-90.702-12.411-1.4327-4.2968-8.5925-24.824-8.5925-24.824h162.31c6.6827 0 12.999-2.4449 19.109-4.3535z"/>
    <polygon id="_122404944" class="fil3 str3" points="1010.3 1058.2 963.75 1057.8 958.5 1043 1006 1043"/>
    <polygon id="_122404352" class="fil3 str3" points="1087.6 1064 1035.6 1059.2 1030.3 1043 1080.7 1043"/>
    <path id="_122403736" class="fil3 str3" d="m934.15 1043c0.95433 3.1039 4.4268 14.62 5.4909 17.185-8.7839-0.76181-42.488 3.5811-42.488 3.3425l-5.9669-20.528h42.964z"/>
    <path id="_122403352" class="fil1 str1" d="m954.06 457.72c-9.3083-3.1028-30.248-6.6154-39.622-7.8768-15.992-2.1484-56.33-4.2957-80.996 10.635-6.124 6.0732 8.198 16.098 6.4925 23.679-4.5012 13.424-10.006 16.682-25.029 19.63-45.065 3.8197-74.647-29.561-115.13-37.198-9.9437-1.2307-18.298-0.037795-17.568 7.637 6.1913 12.614 8.5382 26.675 2.674 42.009-16.054 41.972-116.3 10.943-182.66 7.6016-29.218-1.4716-62.14 11.876-72.833 17.987 39.717-35.135 79.103-36.801 147.78-27.535 60.149 8.1154 87.836 3.8185 89.379-14.474-1.0642-18.941-14.431-21.328-9.8965-35.411 4.4327-13.762 16.926-17.707 31.03-20.289 33.592-6.1465 113.38 53.943 126.66 37.368 4.5827-9.1642-16.308-15.015-8.0327-27.342 16.037-19.858 38.91-23.491 66.593-26.017 24.474-2.2323 56.474 4.3925 80.915 12.411 0.6874-1.376 0.23858 18.92 0.23858 17.186z"/>
    <path id="_122402424" class="fil3 str3" d="m946.46 426.69c0-7.0169 8.276-12.705 18.483-12.705 10.209 0 18.487 5.6882 18.487 12.705 0 7.0193-8.2772 12.709-18.487 12.709-10.207 0-18.483-5.6894-18.483-12.709z"/>
    <path id="_122401784" class="fil0 str0" d="m929.33 505.93c4.5827-1.9087 16.516-5.0126 24.87-4.774 0 0 0 6.4453-0.046063 6.6827-0.19134-0.47716-66.45 11.458-98.911 19.478l67.213-36.663 6.874 15.276z"/>
    <path id="_122401400" class="fil3 str3" d="m600.47 585.42c0-6.4583 7.3748-11.695 16.469-11.695 9.0968 0 16.469 5.237 16.469 11.695 0 6.4594-7.3724 11.695-16.469 11.695-9.0945 0-16.469-5.2358-16.469-11.695z"/>
    <polygon id="_122400808" class="fil3 str3" points="609.3 595.44 624.34 595.44 624.34 737.46 609.3 737.46"/>
    <path id="_122400096" class="fil1 str1" d="m609.3 659.65c-21.482-14.082-30.826 2.6327-49.059-3.3047-20.636-6.7205-32.079-3.0543-45.064 3.8185 5.7295-13.748 1.513-50.637-2.7839-56.367 6.2067-3.8185 18.286-9.724 45.176 1.3748 14.018 5.785 28.422-16.402 51.731-0.89764v55.376z"/>
    <polygon id="_122399368" class="fil3 str3" points="574.21 737.46 609.3 658.93 609.3 674.44 581.37 737.46"/>
    <polygon id="_122398776" class="fil3 str3" points="659.42 737.46 624.34 658.93 624.34 674.44 652.26 737.46"/>
    <path id="_122398392" class="fil0 str0" d="m1202.9 746.53c-8.3551 1.4315-11.015 9.8716-9.4842 17.127-6.0319 0.059055-12.106 3.1252-11.283 8.413-0.38032 6.4913 5.7295 8.1142 11.283 8.0079v39.719c-4.9665 0-10.313-1.1468-13.75 3.437-1.526 2.2913-0.014173 4.8803-0.39567 7.552 3.0555 4.9654 9.1795 3.9047 14.146 4.2862-1.5307 9.1665 6.1087 16.422 12.984 20.241 6.111 1.5272 12.984 6.4937 14.511 12.984 2.2925 7.6394 3.1358 16.385 0.84449 24.787-9.5468 22.533-21.72 23.392-53.928 21.807-30.09-28.968-37.535-52.176-53.084-89.746-13.276-32.076-16.546-49.625-23.789-85.775 19.859-27.113 43.441-61.58 55.852-84.018 47.261 37.235 105.21 66.737 157.53 91.179h-101.44z"/>
    <path id="_122398008" class="fil3 str3" d="m1314.9 595.2c0-6.4606 7.3736-11.695 16.468-11.695 9.0968 0 16.47 5.2346 16.47 11.695 0 6.4594-7.3736 11.695-16.47 11.695-9.0945 0-16.468-5.2358-16.468-11.695z"/>
    <polygon id="_122397416" class="fil3 str3" points="1323.7 605.23 1338.7 605.23 1338.7 747.24 1323.7 747.24"/>
    <path id="_122397032" class="fil1 str1" d="m1323.7 669.43c-21.482-14.084-30.827 2.6327-49.059-3.3059-20.637-6.7205-32.08-3.0532-45.064 3.8197 5.7295-13.748 1.513-50.64-2.7839-56.367 6.2055-3.8197 18.285-9.7252 45.176 1.3736 14.018 5.7862 28.422-16.401 51.731-0.89646v55.376z"/>
    <polygon id="_122366216" class="fil3 str3" points="1288.6 747.24 1323.7 668.72 1323.7 684.23 1295.8 747.24"/>
    <polygon id="_122365432" class="fil3 str3" points="1373.8 747.24 1338.7 668.72 1338.7 684.23 1366.6 747.24"/>
    <path id="_122365048" class="fil0 str0" d="m532.68 805.72-10.264-16.709c3.1854-1.6594 7.6382-2.1472 10.326-2.4437l-0.062598 19.153z"/>
    <path id="_122364216" class="fil0 str0" d="m529.1 807.87-19.27-8.3161c1.3689-3.3791 4.735-5.8146 7.0972-7.4374-0.45354 0.19134 12.207 15.862 12.172 15.754z"/>
    <polygon id="_122363504" class="fil0 str0" points="506.01 811.39 507.16 804.9 526.72 811.39"/>
    <path id="_122363120" class="fil0 str0" d="m537.93 805.96 10.264-16.708c-3.1819-1.6606-7.637-2.1484-10.325-2.4461l0.061417 19.154z"/>
    <path id="_122362288" class="fil0 str0" d="m541.51 808.11 19.272-8.3161c-1.3701-3.3803-4.7362-5.8158-7.0996-7.4374 0.45354 0.19016-12.206 15.861-12.172 15.754z"/>
    <polygon id="_122361712" class="fil0 str0" points="564.6 811.63 563.46 805.14 543.9 811.63"/>
    <path id="_122361328" class="fil0 str0" d="m610.73 805.48-10.264-16.708c3.1854-1.6606 7.637-2.1496 10.326-2.4461l-0.062598 19.154z"/>
    <path id="_122360496" class="fil0 str0" d="m607.15 807.63-19.27-8.3161c1.3689-3.3791 4.7339-5.8146 7.0972-7.4362-0.45354 0.19016 12.206 15.861 12.172 15.752z"/>
    <polygon id="_122359920" class="fil0 str0" points="584.06 811.16 585.21 804.66 604.77 811.16"/>
    <path id="_122359536" class="fil0 str0" d="m615.98 805.72 10.264-16.709c-3.1819-1.6594-7.637-2.1472-10.325-2.4437l0.061417 19.153z"/>
    <path id="_122358704" class="fil0 str0" d="m619.56 807.87 19.272-8.3161c-1.3713-3.3791-4.7362-5.8146-7.0996-7.4374 0.45354 0.19134-12.206 15.862-12.172 15.754z"/>
    <polygon id="_122358128" class="fil0 str0" points="642.65 811.39 641.51 804.9 621.95 811.39"/>
    <path id="_122357744" class="fil0 str0" d="m688.78 805.24-10.264-16.708c3.1842-1.6594 7.637-2.1472 10.326-2.4437l-0.062598 19.152z"/>
    <path id="_122356912" class="fil0 str0" d="m685.2 807.39-19.27-8.3173c1.3689-3.3791 4.7339-5.8146 7.0972-7.4374-0.45354 0.19016 12.206 15.861 12.172 15.755z"/>
    <polygon id="_122356336" class="fil0 str0" points="662.11 810.92 663.26 804.42 682.82 810.92"/>
    <path id="_122355952" class="fil0 str0" d="m694.03 805.48 10.264-16.708c-3.1831-1.6606-7.637-2.1496-10.325-2.4461l0.061417 19.154z"/>
    <path id="_122355120" class="fil0 str0" d="m697.62 807.63 19.272-8.3161c-1.3713-3.3791-4.7362-5.8146-7.0996-7.4362 0.45354 0.19016-12.206 15.861-12.172 15.752z"/>
    <polygon id="_122354544" class="fil0 str0" points="720.7 811.16 719.56 804.66 700 811.16"/>
    <path id="_122354160" class="fil0 str0" d="m1249.7 813.84-10.264-16.708c3.1842-1.6606 7.6382-2.1496 10.328-2.4461l-0.06378 19.154z"/>
    <path id="_122353328" class="fil0 str0" d="m1246.1 815.99-19.27-8.3161c1.3677-3.3791 4.7339-5.8134 7.0972-7.4362-0.45354 0.19016 12.206 15.861 12.172 15.752z"/>
    <polygon id="_122352752" class="fil0 str0" points="1223 819.51 1224.2 813.02 1243.7 819.51"/>
    <path id="_122352368" class="fil0 str0" d="m1255 814.08 10.264-16.709c-3.1842-1.6594-7.6394-2.1472-10.325-2.4437l0.061417 19.153z"/>
    <path id="_122351536" class="fil0 str0" d="m1258.5 816.23 19.271-8.3173c-1.3701-3.3791-4.7362-5.8146-7.0984-7.4374 0.45354 0.19134-12.207 15.862-12.172 15.755z"/>
    <polygon id="_122350960" class="fil0 str0" points="1281.6 819.75 1280.5 813.26 1260.9 819.75"/>
    <path id="_122350576" class="fil0 str0" d="m1327.8 813.6-10.264-16.708c3.1854-1.6594 7.6394-2.1472 10.328-2.4437l-0.06378 19.152z"/>
    <path id="_122349744" class="fil0 str0" d="m1324.2 815.75-19.27-8.3173c1.3677-3.3791 4.7339-5.8146 7.0972-7.4374-0.45354 0.19016 12.206 15.861 12.172 15.755z"/>
    <polygon id="_122349168" class="fil0 str0" points="1301.1 819.27 1302.2 812.78 1321.8 819.27"/>
    <path id="_122348784" class="fil0 str0" d="m1333 813.84 10.263-16.708c-3.1831-1.6606-7.6382-2.1496-10.326-2.4461l0.06378 19.154z"/>
    <path id="_122348168" class="fil0 str0" d="m1336.6 815.99 19.271-8.3161c-1.3701-3.3791-4.7362-5.8134-7.0984-7.4362 0.45236 0.19016-12.207 15.861-12.172 15.752z"/>
    <polygon id="_122347592" class="fil0 str0" points="1359.7 819.51 1358.5 813.02 1339 819.51"/>
    <path id="_122347208" class="fil0 str0" d="m1405.8 813.36-10.264-16.708c3.1854-1.6606 7.6394-2.1496 10.326-2.4449l-0.062598 19.153z"/>
    <path id="_122346592" class="fil0 str0" d="m1402.2 815.51-19.27-8.3161c1.3677-3.3791 4.7339-5.8146 7.0961-7.4374-0.45354 0.19134 12.207 15.862 12.174 15.754z"/>
    <polygon id="_122346208" class="fil0 str0" points="1379.1 819.03 1380.3 812.54 1399.8 819.03"/>
    <path id="_122345824" class="fil0 str0" d="m1411 813.6 10.263-16.708c-3.1819-1.6594-7.637-2.1472-10.325-2.4437l0.062598 19.152z"/>
    <path id="_122309600" class="fil0 str0" d="m1414.6 815.75 19.272-8.3173c-1.3701-3.3791-4.7362-5.8146-7.0984-7.4374 0.45236 0.19016-12.207 15.861-12.174 15.755z"/>
    <polygon id="_122309216" class="fil0 str0" points="1437.7 819.27 1436.6 812.78 1417 819.27"/>
    <path id="_122307320" class="fil4 str4" d="m1115.4 1112.9c155.15 37.958 163.96-18.859 377.18-11.219 114.44 4.102 105.64 24.827 243.55 24.827 58.594 0 125.16-13.998 183.82-23.297 0 0-0.48543-50.228-0.99449-50.563-58.434 11.55-113.64 25.739-186.74 27.072-100.24 1.826-167.26-33.422-254.8-33.422-114.44 0-173.32 35.809-279.74 33.899 0 0-75.801-7.6394-100.74-14.324l-79.226-7.1622c-22.218-0.65551-48.905-0.95433-73.113 0.23976-21.077 0.81378-48.464 3.7736-67.733 7.1622-75.803 13.608-102.53 16.017-170.68 14.562-89.496-1.9098-164.3-34.853-252.35-34.853-93.899 0-141.35 34.376-205.4 34.376-68.466 0-169.7-53.952-248.44-23.394v54.428c100.74-29.601 147.81 15.278 252.35 15.278 86.073 0 113.45-26.534 204.91-25.782 115.91 0.95551 191.41 25.782 253.33 25.782 66.511 0 106.61-7.161 179.24-18.62 13.938-2.387 38.146-4.2968 70.3-5.6102 25.064-0.59646 42.182-0.35787 72.379 1.0748 23.597 1.9098 53.185 4.0583 82.893 9.548z"/>
    <path id="_122306936" class="fil4 str4" d="m-0.0011811 1149.4c78.248-24.768 156.9 11.7 232.79 17.187 52.818 3.8197 131.01-24.978 214.69-26.737 90.964-1.9098 167.26 22.917 259.51 26.297 58.896 2.1579 164.41-22.435 270.14-24.865 83.139-1.9098 110.05 8.0409 194.66 22.192 10.948 1.8319 22.735 2.5772 35.21 2.5264 88.994-0.3685 163.04-26.063 249.89-25.672 106.12 0.47716 161.21 26.258 261.64 26.258 120.01 0 145.17-11.68 199.46-20.497 1.4776-0.51024 1.0547 52.981 1.0547 52.981l-1919 0.80315v-50.474z"/>
    <path id="_122306552" class="fil3 str3" d="m1046.8 980.35c0.2374 5.2512 0.2374 10.263 9.0697 17.902h-33.417c-3.8185-5.0138 4.5354-7.8768 2.8654-17.902-0.10866-0.32362 21.242 0 21.482 0z"/>
    <polygon id="_122305960" class="fil3 str3" points="1078.6 1036 1028.2 1036 1017.4 1006.5 1068.3 1006.5"/>
    <polygon id="_122305368" class="fil0 str0" points="522.9 846.06 703.34 846.06 703.34 849.4 522.9 849.4"/>
    <polygon id="_122304776" class="fil0 str0" points="1235.1 858.71 1448 858.71 1448 862.05 1235.1 862.05"/>
    <polygon id="_122576816" class="fil0 str0" points="900.74 833.17 901.93 824.1 894.29 829.35"/>
    <polygon id="_122576224" class="fil3 str3" points="954.2 434.33 974.97 434.33 974.97 463.21 954.2 463.21"/>
    <polygon id="_122575632" class="fil0 str0" points="875.44 1044.4 884.99 1044.4 914.82 1146.1 903.36 1146.6"/>
    <polygon id="_122575040" class="fil0 str0" points="943.57 1043.8 952.72 1043.8 986.43 1141.3 974.49 1141.3"/>
    <polygon id="_122574448" class="fil0 str0" points="1014.8 1045.2 1022.9 1045.2 1055.2 1143.9 1044.7 1143.5"/>
    <polygon id="_122574080" class="fil0 str0" points="1090.5 1044.9 1097.9 1044.9 1139.4 1157.3 1129.2 1155.4"/>
    <path id="_122818496" class="fil3 str3" d="m877.22 979.05c1.5614 7.1232-1.7799 9.7476-3.2126 13.09 16.422 45.448 34.991 107.55 51.795 153l-10.98 0.95433-48.692-156.82c3.8197-1.4315 9.3094-10.263-1.5118-13.662-5.3468-1.1457-11.616-0.65906-12.984 5.3457-0.76535 5.3457 4.5803 6.4925 7.2543 9.1654 15.658 49.646 31.826 106.13 45.192 156.92l-8.3539 1.6724-42.184-153.25c-6.111-4.2012-12.761-12.544-8.178-19.802 7.2555-11.074 28.402-9.3083 31.854 3.3803z"/>
    <path id="_122818232" class="fil3 str3" d="m943.1 979.69c1.5602 7.1232-1.7811 9.7488-3.2138 13.09 16.422 45.445 38.811 103.09 55.613 148.54h-9.5468l-53.943-151.4c3.8197-1.4327 9.3094-10.264-1.5118-13.663-5.3468-1.1468-11.616-0.65787-12.984 5.3468-0.76417 5.3457 4.5815 6.4913 7.2543 9.1642 15.659 49.648 36.839 99.761 50.205 150.55l-8.5925 0.95433-46.958-146.16c-6.1098-4.2-12.761-12.543-8.178-19.798 7.2579-11.076 28.404-9.3094 31.856 3.378z"/>
    <path id="_122817496" class="fil3 str3" d="m1016.1 980.33c1.5591 7.1244-1.7811 9.75-3.2138 13.092 16.423 45.445 36.901 107.22 53.705 152.67l-11.218-1.6701-50.363-153.86c3.8185-1.4303 9.3094-10.263-1.5118-13.663-5.3468-1.1457-11.616-0.65787-12.984 5.3445-0.76535 5.3468 4.5815 6.4937 7.2555 9.1665 15.658 49.646 33.735 101.03 47.101 151.82l-9.3083-0.71575-43.139-145.76c-6.111-4.2012-12.762-12.544-8.1803-19.8 7.2579-11.076 28.404-9.3094 31.857 3.3768z"/>
    <path id="_122816760" class="fil3 str3" d="m1089.2 980.97c1.5614 7.1244-1.7811 9.75-3.2114 13.091 16.422 45.445 47.641 119.95 64.444 165.39l-10.981-1.9098-61.342-166.35c3.8185-1.4327 9.3083-10.264-1.513-13.663-5.3457-1.148-11.614-0.65787-12.984 5.3457-0.76417 5.3468 4.5827 6.4925 7.2567 9.1654 15.658 49.648 44.714 113.04 58.081 163.83l-10.741-2.1484-52.687-156.33c-6.111-4.2-12.761-12.543-8.1791-19.799 7.2579-11.075 28.404-9.3094 31.856 3.378z"/>
    <path id="_122816480" class="fil2 str2" d="m1084.6 633.43c-9.8846 39.371-9.9295 69.124-6.4925 103.88-16.041 25.206-40.018 47.51-60.641 70.805-40.577-17.663-91.355-15.047-123.44 8.6291-28.643 20.242-42.009 51.556-43.154 82.491-47.276-48.633-60.641-75.367-79.054-122.59-21.404-54.895-33.717-93.887-28.37-148.5 1.5284-17.565 5.0752-34.811 9.2752-51.232 16.422 12.984 40.481 13.366 61.485 9.9295 18.713-5.7284 40.865-15.658 47.739-36.663 16.804 21.766 43.711 22.494 68.153 16.383 16.041-4.1988 29.995-17.53 40.687-30.131 25.589 13.366 64.924 7.637 88.984-9.1665 6.1098-4.5827 11.837-10.694 14.511-17.568 14.132 16.041 43.665 9.8445 56.14 6.4937 12.351-3.3213 29.405-14.513 29.405-14.513-36.28 37.428-63.601 85.413-75.233 131.76z"/>
   
  </g>
 </g>
</svg>
