<?xml version="1.0" encoding="UTF-8"?>
<svg id="svg2" width="1e3" height="500" version="1.0" xmlns="http://www.w3.org/2000/svg" xmlns:cc="http://creativecommons.org/ns#" xmlns:dc="http://purl.org/dc/elements/1.1/" xmlns:rdf="http://www.w3.org/1999/02/22-rdf-syntax-ns#">
 <metadata id="metadata30">
  <rdf:RDF>
   <cc:Work rdf:about="">
    <dc:format>image/svg+xml</dc:format>
    <dc:type rdf:resource="http://purl.org/dc/dcmitype/StillImage"/>
   </cc:Work>
  </rdf:RDF>
 </metadata>
 <path id="rect4" d="m0 0h1e3v500h-1e3z" fill="#fff"/>
 <path id="path10" d="m30 280v170l310-170z" fill="#002373"/>
 <path id="path12" d="m400 310v160h-290z" fill="#002373"/>
 <path id="path18" d="m460 300v170h510z" fill="#cd0019"/>
 <path id="path20" d="m480 330v120h370z" fill="#fff"/>
 <path id="path22" d="m460 220h490l25 30-25 30h-490l30-30z" fill="#cd0019"/>
 <path id="path24" d="m490 230h450l20 20-20 20h-450l20-20z" fill="#f8d80e"/>
 <path id="path3790" d="m30 220v-170l310 170z" fill="#002373"/>
 <path id="path3792" d="m400 190v-160h-290z" fill="#002373"/>
 <path id="path3794" d="m460 200v-170h510z" fill="#cd0019"/>
 <path id="path3796" d="m480 170v-120h370z" fill="#fff"/>
</svg>
