<?xml version="1.0" encoding="UTF-8"?>
<svg width="881.17" height="496" version="1.0" xmlns="http://www.w3.org/2000/svg">
 <rect width="444.91" height="496" fill="#fdd500"/>
 <rect x="444.91" width="436.26" height="496" fill="#fff"/>
 <polygon transform="matrix(1.0095 .0094096 -.0094096 1.0095 -8.2722 -8.6541)" points="811.92 66.307 798.44 95.254 821.48 115.13 789.79 111.25 778.01 139.31 771.9 107.97 741.57 105.44 769.49 89.94 762.53 60.316 785.9 82.082" fill="#0164bb"/>
 <g fill="#d51516" fill-rule="evenodd" stroke="#000" stroke-linecap="round" stroke-linejoin="round" stroke-width="7.0866">
  <path d="m444.15 3.5562c7.583 1.6947 39.835 38.296 42.586 46.873 2.216 8.782-8.631 85.179-18.748 110.33-18.614 4.04-48.469 1.525-65.619-3.606-3.347-7.067-10.487-99.116-7.211-112.49 3.404-6.5371 41.986-40 48.992-41.104z"/>
  <path d="m252.73 155.44c79.704 9.239 240.1 8.507 350.43 11.378 10.41 1.299-7.654 28.152-12.126 39.15-4.422 10.875-5.278 35.231-30.786 34.585-93.728-2.793-178.6-5.337-269.78-8.143-33.091-1.024-58.694-79.287-37.735-76.97z"/>
  <path d="m375.42 236.39c16.113 1.861 80.121 0.725 104.03 3.978 16.348 2.472 16.151 58.213 8.598 66.9-8.407 9.601-48.774 3.258-71.141 9.908-21.292 6.038-23.021 12.665-62.876 8.119 9.871-52.623 3.697-91.047 21.39-88.905z"/>
  <path d="m341.24 332.64c6.143-8.157 17.6-5.816 31.277-4.86 18.685 0.879 59.591-14.726 86.813-14.449 16.514 0.595 29.235 7.246 28.902 22.189-0.602 11.819 0.59 40.264-6.806 56.304-4.39 10.445-68.381 8.456-97.729-2.085-8.564-3.032-40.427 2.859-44.06-2.696-4.238-5.829-6.916-43.09 1.603-54.403z"/>
  <path d="m345.83 393.67c2.534-4.693 14.399-6.297 21.927-5.769 19.874 1.395 57.453 18.001 99.577 10.256 25.403-4.592 52.796 50.01 43.819 64.288-9.196 15.126-19.815 22.071-30.882 30.32-86.239 0.779-148.09 8.212-147.02-24.86 0.555-16.955 2.263-55.927 12.575-74.235z"/>
 </g>
</svg>
