<?xml version="1.0" encoding="UTF-8"?>
<svg width="600" height="400" version="1.0" xmlns="http://www.w3.org/2000/svg" xmlns:xlink="http://www.w3.org/1999/xlink">
 <rect width="600" height="400" fill="#fff"/>
 <g id="quarter">
  <rect width="250" height="150" fill="#002495"/>
  <path d="m149.5 93.07c1.607-2.39 1.47-7.6219-1.743-9.4689-2.458-1.229-5.234-0.74799-6.5309 0.31-2.088 1.263-4.099 5.3019-4.099 9.3919l7.2099-9e-3 -2e-3 8.0509-14.964-8e-3c0.196 4.141 2.454 7.4579 6.6559 9.3049-0.54099 1.745-3.075 5.302-6.5549 5.061-0.68699 3.764-1.34 5.8769-4.469 9.2969-3.131-3.419-3.784-5.5329-4.471-9.2969-3.48 0.241-6.0139-3.316-6.5549-5.061 4.202-1.847 6.4599-5.1639 6.6559-9.3049l-14.965 8e-3v-8.0509l7.2079 9e-3c0-4.09-2.008-8.1289-4.098-9.3919-1.297-1.057-4.072-1.538-6.5289-0.31-3.215 1.847-3.353 7.0799-1.746 9.4689-15.182-2.819-13.676-17.481-8.5039-22.804 4.18-4.3 8.7369-4.972 12.251-3.616 7.9859 2.863 13.357 12.403 13.618 26.653h4.176c0-12.954-2.254-17.084-8.1269-33.354-2.958-7.6889-1.181-17.195 4.107-25.948 1.894-3.137 4.26-5.9689 6.9789-9.0019 2.717 3.033 5.083 5.8649 6.9769 9.0019 5.288 8.7529 7.0649 18.259 4.109 25.948-5.8759 16.27-8.1299 20.399-8.1299 33.354h4.176c0.261-14.25 5.634-23.79 13.618-26.653 3.514-1.355 8.0739-0.68399 12.252 3.616 5.171 5.3229 6.6769 19.985-8.5049 22.804z" fill="#fff"/>
 </g>
 <use x="350" xlink:href="#quarter"/>
 <use y="250" xlink:href="#quarter"/>
 <use x="350" y="250" xlink:href="#quarter"/>
</svg>
