<?xml version="1.0" encoding="UTF-8"?>
<!-- Created with Inkscape (http://www.inkscape.org/) -->
<svg id="svg2" width="2800" height="1400" fill-rule="evenodd" version="1.1" viewBox="0 0 2800 1400" xml:space="preserve" xmlns="http://www.w3.org/2000/svg" xmlns:cc="http://creativecommons.org/ns#" xmlns:dc="http://purl.org/dc/elements/1.1/" xmlns:rdf="http://www.w3.org/1999/02/22-rdf-syntax-ns#" xmlns:xlink="http://www.w3.org/1999/xlink">
<rect id="rect2183_1" width="2800" height="1400" fill="#fff"/><rect id="rect2183" x="2e3" width="800" height="1400" fill="#0738ac"/><rect id="rect2183_0" width="800" height="1400" fill="#187b01"/>
<metadata id="metadata4245"><rdf:RDF><cc:Work rdf:about=""><dc:title/><dc:format>image/svg+xml</dc:format><dc:type rdf:resource="http://purl.org/dc/dcmitype/StillImage"/></cc:Work></rdf:RDF></metadata><rect id="rect147" x="1180.2" y="417.52" width="441.25" height="180.22" fill="#fff" fill-rule="evenodd"/><path id="path149" d="m1179.4 597.75v140.84 0.3125c-0.041 26.936 5.4767 52.159 15.156 75.531l1.6562-3.875-2.0312-6.0938 74.781-183.06 131.12 335.16 131.16-335.16 75.094 183.53-2.25 5.8438 1.5 3.5312c7.84-19.001 12.823-39.122 14.562-60.656 0.5268-5.9764 0.4653-11.954 0.4688-17.938v-137.97h-441.22zm16.188 219.09c17.014 39.685 46.037 73.935 80.156 102-33.315-28.363-61.044-63.275-80.156-102zm408.09 1.9688c-18.742 37.277-45.496 70.927-77.469 98.531 18.622-15.586 35.351-32.731 48.844-50.625 11.592-15.228 21.235-31.121 28.625-47.906zm-141.25 141.75c-19.736 10.207-40.487 18.319-61.812 23.969 4.5671-0.11348 9.6341-1.2654 16.938-3.8125 14.879-5.3298 30.001-12.145 44.875-20.156zm-123.84 0.4375c12.198 6.5777 24.765 12.463 37.688 17.5 10.747 3.6322 16.618 5.9955 23.312 6.0625-21.036-5.5686-41.5-13.546-61-23.562zm60.125 20.062 1.3125 3.5c0.042-2e-4 0.083-0.0309 0.125-0.0312l1.125-2.9688-1.1875 1.0312-1.375-1.5312z" fill="#0738ac" fill-rule="evenodd"/><path id="path153" d="m1429.1 877.81c-4.2957-20.64-9.1772-38.537-4.2862-59.83 7.8945-34.857 6.5362-38.029-0.6355-72.416-4.8862-25.966 8.4827-50.933 5.8902-76.836-1.7409-27.094-11.536-41.642 0-68.581l-13.188 0.30472c-12.781 24.739-1.2071 42.454 0.3319 68.583 2.635 26.465-11.176 50.621-6.5197 76.688 6.6154 28.416 8.4709 43.689 0.8043 72.404-6.2102 23.796 4.539 58.752 8.0847 83.34l9.5185-23.658z" fill="#fff" fill-rule="evenodd"/><path id="1" d="m1422.8 817.53 3.9827 0.90236v6e-3l-0.4193 1.937-0.3661 1.9181-0.313 1.8992-0.2622 1.8839-0.215 1.8685-0.1677 1.8567-0.124 1.8437-0.079 1.8319-0.041 1.8224v1.8154l0.037 1.8071 0.072 1.8035 0.1087 1.7976 0.1382 1.7953 0.1689 1.7917 0.1984 1.7906 0.2244 1.7941 0.2492 1.7929 0.2729 1.7976 0.2941 1.8 0.313 1.8059 0.3307 1.8118 0.3472 1.8189 0.3603 1.826 0.3732 1.8366 0.3838 1.8472 0.391 1.8591 0.3992 1.8709 0.4016 1.885 0.4063 1.8992 0.4063 1.9158 0.4051 1.9335-3.9969 0.83149-0.4027-1.9216-0.4063-1.9087-0.404-1.8968-0.4039-1.885-0.3992-1.878-0.3933-1.8685-0.3862-1.8614-0.378-1.8555-0.3649-1.852-0.352-1.8472-0.3378-1.8449-0.3201-1.8437-0.3012-1.8425-0.2799-1.8449-0.2563-1.8472-0.2315-1.8484-0.2055-1.8543-0.1736-1.8602-0.1453-1.8638-0.111-1.8732-0.077-1.8815-0.039-1.8898v-1.9028l0.041-1.9122 0.084-1.924 0.1311-1.9382 0.1748-1.9512 0.2268-1.9677 0.2764-1.9831 0.3295-2.0008 0.385-2.0173 0.4406-2.0362v6e-3zm3.9827 0.90236v6e-3l-0.011 0.0484 0.012-0.0543zm-4.6335-72.489 4.0134-0.7559-0.01-0.039 0.6555 3.1335 0.6201 2.9622 0.5859 2.8051 0.5503 2.6598 0.515 2.5264 0.4772 2.4024 0.4405 2.2949 0.4028 2.1945 0.3626 2.1094 0.326 2.0339 0.2846 1.9713 0.2433 1.9193 0.202 1.8791 0.1583 1.8496 0.1145 1.8307 0.072 1.8236 0.025 1.8248-0.021 1.8378-0.066 1.8626-0.1158 1.8957-0.1618 1.9394-0.2102 1.9949-0.2587 2.0622-0.3059 2.1413-0.3567 2.2299-0.4051 2.3315-0.4559 2.4437-0.5055 2.5677-0.5575 2.7047-0.6106 2.8535-0.6615 3.013-0.7145 3.1854-3.9827-0.90236 0.7122-3.1689 0.6567-2.9917 0.6035-2.8276 0.5504-2.674 0.4985-2.5299 0.4488-2.3988 0.3956-2.2795 0.3473-2.1685 0.2964-2.0728 0.2493-1.9866 0.2007-1.9122 0.1548-1.8496 0.1086-1.7988 0.064-1.761 0.019-1.7362-0.022-1.7232-0.067-1.722-0.1098-1.7362-0.1512-1.7598-0.1925-1.7965-0.2339-1.8461-0.2752-1.9051-0.3165-1.9795-0.3555-2.0622-0.3957-2.1567-0.4358-2.2642-0.4724-2.3811-0.5103-2.5098-0.548-2.6504-0.5858-2.8004-0.6201-2.9622-0.6555-3.1358-0.01-0.039zm0.01 0.039-0.01-0.039v-7e-3l0.01 0.0461zm5.8512-77.121 4.0748-0.26221-0.01-0.072 0.2031 2.5004 0.1134 2.4898 0.031 2.4827-0.047 2.4709-0.117 2.4626-0.1807 2.4532-0.235 2.4461-0.287 2.4354-0.3296 2.4295-0.3673 2.4201-0.3968 2.413-0.4205 2.4071-0.4394 2.4-0.4488 2.3929-0.4559 2.3894-0.4524 2.3823-0.4452 2.3787-0.4323 2.374-0.411 2.3681-0.3851 2.3658-0.3531 2.361-0.3154 2.3575-0.2705 2.3551-0.2196 2.3516-0.1642 2.3504-0.1028 2.3468-0.034 2.3457 0.04 2.3457 0.1181 2.3457 0.2032 2.3433 0.2953 2.3468 0.3921 2.3492-4.0134 0.7559-0.4181-2.5146-0.3165-2.5051-0.2174-2.4968-0.1252-2.4874-0.043-2.478 0.037-2.4685 0.1075-2.4602 0.1713-2.452 0.2291-2.4413 0.2799-2.4354 0.3225-2.426 0.3626-2.4201 0.3921-2.413 0.4181-2.4059 0.437-2.4 0.4476-2.3929 0.4548-2.3894 0.4535-2.3846 0.4465-2.3787 0.4346-2.3764 0.4158-2.3693 0.3897-2.3681 0.3579-2.3634 0.3201-2.361 0.2775-2.3575 0.228-2.3563 0.1736-2.3539 0.1099-2.3516 0.045-2.3504-0.028-2.3504-0.1063-2.3504-0.1913-2.3516-0.01-0.072zm0.01 0.072v-0.0354-0.0366l0.01 0.072zm2.0787-66.743-0.094-4.0819 1.924 2.8441-0.9956 2.4295-0.8764 2.3587-0.763 2.2913-0.6567 2.2287-0.5551 2.172-0.4595 2.1224-0.3696 2.0764-0.2859 2.035-0.2067 1.9996-0.1323 1.9701-0.064 1.9476v1.9287l0.059 1.9146 0.1122 1.9063 0.1607 1.9039 0.2055 1.9051 0.2433 1.9134 0.2764 1.924 0.3059 1.9406 0.3307 1.9606 0.3472 1.9854 0.3614 2.0161 0.3697 2.0504 0.3709 2.087 0.3661 2.1295 0.3603 2.1756 0.3448 2.2276 0.3237 2.2831 0.2988 2.3421 0.2693 2.4047 0.2315 2.4732 0.1878 2.5429-4.0748 0.2622-0.1831-2.465-0.2244-2.3976-0.2599-2.3362-0.2917-2.2807-0.3165-2.2287-0.3378-2.1827-0.3532-2.1402-0.3638-2.1059-0.3685-2.0728-0.3673-2.0457-0.3638-2.0256-0.3519-2.0067-0.3355-1.9961-0.313-1.9878-0.2858-1.9854-0.2527-1.9842-0.215-1.9925-0.1677-2.0032-0.1193-2.015-0.061-2.035v-2.0587l0.069-2.0823 0.1417-2.1142 0.2209-2.1461 0.3071-2.1839 0.3956-2.2252 0.4926-2.2689 0.5905-2.3185 0.6992-2.3681 0.8079-2.426 0.9236-2.4862 1.0453-2.55 1.924 2.8441zm-0.094-4.0819 3.1736-0.0732-1.2496 2.9173-1.924-2.8441zm-13.188 0.30472 13.188-0.30472 0.094 4.0819-13.188 0.30472-1.8614-2.9776 1.7669-1.1043zm-1.7669 1.1043 0.5563-1.076 1.2106-0.0284-1.7669 1.1043zm4.1775 69.318-4.0629 0.40394-0.01-0.0815-0.1689-2.3776-0.2209-2.3339-0.2657-2.2937-0.3071-2.2583-0.3402-2.2252-0.3673-2.1945-0.3898-2.1685-0.4051-2.1449-0.4146-2.1224-0.4181-2.1071-0.4145-2.0906-0.4063-2.0799-0.3886-2.0693-0.3697-2.0658-0.339-2.061-0.3035-2.0634-0.2634-2.0646-0.2138-2.0716-0.1583-2.0787-0.097-2.0906-0.027-2.1035 0.05-2.1189 0.1311-2.1366 0.2233-2.1567 0.3165-2.1768 0.4217-2.2016 0.5303-2.2252 0.646-2.2524 0.7666-2.2795 0.8941-2.3102 1.0263-2.341 1.1658-2.3764 3.6283 1.8732-1.0901 2.2228-0.9555 2.1803-0.8303 2.1402-0.7075 2.1047-0.5941 2.0752-0.4878 2.0457-0.3862 2.022-0.293 2.0043-0.2043 1.9866-0.1216 1.9736-0.045 1.9677 0.025 1.9618 0.09 1.9606 0.1511 1.9654 0.202 1.9677 0.2516 1.9772 0.2941 1.9878 0.3295 2.002 0.3602 2.0185 0.3839 2.0386 0.4016 2.0587 0.4145 2.0858 0.4181 2.1118 0.4193 2.1413 0.4099 2.1756 0.3968 2.2087 0.3768 2.2488 0.3496 2.2866 0.3165 2.3315 0.2752 2.3764 0.2304 2.4236 0.1759 2.4744-0.01-0.0815zm-4.0629 0.40394-0.01-0.0567v-0.0248l0.01 0.0815zm-2.4993 76.023-3.9779 0.92598-0.021-0.10394-0.3968-2.5205-0.2906-2.5087-0.1925-2.4945-0.099-2.4815-0.015-2.4685 0.064-2.4567 0.1335-2.4449 0.1996-2.4331 0.2575-2.4224 0.3071-2.413 0.3531-2.4024 0.3886-2.3965 0.4205-2.387 0.4452-2.3811 0.4619-2.374 0.4736-2.3716 0.4795-2.3669 0.4772-2.3622 0.4701-2.3598 0.4535-2.3575 0.4346-2.3587 0.4087-2.3563 0.3756-2.3587 0.3342-2.3563 0.2918-2.3622 0.2386-2.3622 0.183-2.3669 0.1181-2.3705 0.05-2.3764-0.026-2.3835-0.1063-2.3906-0.1937-2.4 4.063-0.40393 0.2055 2.5488 0.1134 2.5323 0.028 2.5158-0.052 2.5016-0.1252 2.4862-0.1901 2.4685-0.2481 2.4567-0.3011 2.4425-0.3461 2.4295-0.385 2.4177-0.4158 2.4059-0.4417 2.3965-0.4607 2.3858-0.4724 2.3787-0.4795 2.3693-0.4772 2.3622-0.4712 2.3551-0.4571 2.3504-0.4382 2.3457-0.4134 2.3398-0.3791 2.3374-0.3414 2.3339-0.2976 2.3327-0.2481 2.3303-0.1901 2.3291-0.1287 2.3315-0.059 2.3315 0.013 2.3339 0.094 2.3374 0.1807 2.341 0.2716 2.348 0.3709 2.3551-0.021-0.10394zm-3.9779 0.92598-0.012-0.0496-0.01-0.0543 0.021 0.10394zm4.7693 72.457-3.952-1.0323v-0.0106l0.6838-2.6291 0.6307-2.5524 0.574-2.4815 0.5233-2.4154 0.47-2.3551 0.4182-2.2984 0.3696-2.2476 0.3189-2.1992 0.2705-2.1579 0.2232-2.1236 0.1784-2.0929 0.1323-2.0646 0.087-2.0445 0.045-2.0291v-2.0197l-0.04-2.015-0.08-2.0138-0.1217-2.0209-0.1618-2.0291-0.2008-2.0457-0.2374-2.0669-0.2752-2.0929-0.3118-2.1224-0.3472-2.1602-0.3815-2.198-0.4169-2.2453-0.45-2.2961-0.4819-2.3504-0.5138-2.4094-0.5457-2.4744-0.5752-2.5441-0.6047-2.6185 3.9779-0.92598 0.6071 2.635 0.58 2.563 0.5503 2.5004 0.5209 2.4378 0.489 2.3835 0.4571 2.3339 0.424 2.2878 0.3909 2.2476 0.3567 2.2122 0.3189 2.1815 0.2847 2.1543 0.2445 2.1354 0.2078 2.1165 0.1666 2.1071 0.1263 2.0988 0.085 2.0965 0.043 2.0976v2.1047l-0.045 2.1165-0.092 2.1295-0.137 2.152-0.1854 2.1756-0.2327 2.2039-0.2799 2.2382-0.3307 2.2772-0.3815 2.3185-0.4299 2.3669-0.4843 2.4213-0.535 2.4768-0.5882 2.5382-0.6425 2.6067-0.6981 2.6787v-0.0106zm-3.952-1.0323v-0.0106l-0.034 0.12756 0.031-0.11693zm8.1662 83.094 3.7889 1.5236-3.9153-0.47008-0.3496-2.3102-0.3863-2.3693-0.4204-2.426-0.4512-2.4803-0.4748-2.5276-0.4961-2.5713-0.5114-2.6114-0.5244-2.648-0.5315-2.6787-0.5339-2.7071-0.5326-2.7319-0.5268-2.7508-0.5161-2.7673-0.5008-2.7791-0.4831-2.7874-0.4571-2.7921-0.4299-2.7921-0.3969-2.7898-0.359-2.7815-0.3177-2.7709-0.2717-2.7555-0.2197-2.7378-0.1641-2.7165-0.1052-2.6917-0.039-2.661 0.031-2.6291 0.1051-2.5925 0.1842-2.5535 0.2705-2.5087 0.3591-2.4614 0.4559-2.4106 0.5539-2.3563 3.952 1.0323-0.5114 2.1697-0.4229 2.2382-0.3354 2.3008-0.2539 2.3622-0.1748 2.4165-0.1004 2.4697-0.028 2.5158 0.037 2.5594 0.1004 2.5972 0.1595 2.6315 0.2149 2.6622 0.2646 2.687 0.3106 2.7094 0.352 2.7272 0.3898 2.7402 0.4228 2.7496 0.4524 2.7543 0.4759 2.7543 0.4961 2.7532 0.5138 2.7461 0.522 2.7342 0.5303 2.7201 0.5339 2.7 0.5315 2.6787 0.5244 2.6528 0.5138 2.6209 0.4984 2.5878 0.4795 2.5488 0.456 2.5087 0.4275 2.4614 0.3933 2.4142 0.3567 2.3598-3.9153-0.47008zm3.7889 1.5236-2.8322 7.0394-1.0831-7.5094 3.9153 0.47008zm9.5185-23.658-9.5185 23.658-3.7889-1.5236 9.5185-23.658 3.8929 0.34606-0.104 1.1776zm0.104-1.1776 0.1264 0.60591-0.2304 0.57165 0.104-1.1776z" fill="#fff" fill-rule="nonzero"/><path id="path156" d="m1268.9 647.43-70.031 171.31-2.7188-8.1875-1.7187 4.0625c39.541 81.828 117.58 146.93 205.59 170.06l-32.219-84.469-98.906-252.78zm131.12 337.25c88.043-23.145 166.06-88.21 205.62-170.06l-1.625-3.8438-2.9687 7.8125-69.875-171.16-98.594 251.97-32.562 85.281z" fill="#d51810" fill-rule="evenodd"/><polygon id="polygon158" transform="translate(4.1109e-5 5.0165e-7)" points="1400.1 956.57 1531.2 621.41 1606.3 804.95 1601.1 818.6 1531.2 647.45 1400.1 982.6 1268.9 647.45 1198.9 818.76 1194.2 804.48 1268.9 621.41" fill="#fff" fill-rule="evenodd"/><polygon id="polygon160" transform="translate(4.1109e-5 5.0165e-7)" points="1620.6 479.16 1620.6 534.73 1427.9 534.73 1427.9 597.76 1372.1 597.76 1372.1 534.73 1179.4 534.73 1179.4 479.16 1372.1 479.16 1372.1 416.29 1427.9 416.29 1427.9 479.16" fill="#d51810" fill-rule="evenodd"/><polygon id="polygon166" transform="translate(4.1109e-5 5.0165e-7)" points="1427.9 412.96 1431.2 416.29 1427.9 412.96 1372.1 412.96 1372.1 419.62 1427.9 419.62 1424.5 416.29 1431.2 416.29 1431.2 412.96" fill="#231f20" fill-rule="nonzero"/><polygon id="polygon178" transform="translate(4.1109e-5 5.0165e-7)" points="1372.1 601.09 1368.8 597.76 1372.1 601.09 1427.9 601.09 1427.9 594.42 1372.1 594.42 1375.5 597.76 1368.8 597.76 1368.8 601.09" fill="#231f20" fill-rule="nonzero"/><path id="path186" d="m1623.9 597.76v-3.3331-178.14l-3.3354-3.3342h-441.21l-3.3378 3.3342v181.47 5e-3 132.72 8.4177c0 76.53 43.397 139.11 101.14 185.44 22.715 18.279 48.978 34.778 75.253 47.467 13.793 5.9976 32.426 15.337 47.629 16.195 15.197-0.84921 33.85-10.202 47.635-16.195 26.628-12.84 52.147-29.035 75.248-47.467 57.387-46.316 101.26-109.11 100.98-185.44v-6.1925-131.62-3.3307zm-441.22-178.14h434.54v178.14 134.95 6.1925c0.013 74.7-42.589 134.78-98.433 180.36-23.698 18.429-46.926 33.468-73.982 46.52-12.682 5.9079-30.703 14.218-44.78 15.559-14.094-1.35-32.072-9.6425-44.771-15.559-26.692-12.895-50.658-28.231-73.986-46.52-55.833-45.15-98.713-106-98.59-180.36v-8.4177-132.72-5e-3 -178.14zm-3.3342-6.665h-3.3378v3.3342l3.3378-3.3342zm437.88 184.8 3.3378-3.3331v6.6638l-3.3378-3.3307zm6.6732-181.47v-3.3342h-3.3354l3.3354 3.3342z" fill-rule="nonzero"/><path id="path190" d="m1383.1 912.59c13.337-32.626 2.8689-63.927 8.5701-94.155 8.4401-35.802 6.8504-37.136-0.6307-72.387-5.0114-25.286 9.3956-50.618 6.3567-76.859-2.0268-27.888-12.353-41.058 0-68.584l-13.355 0.32244c-5.2134 13.949-6.9981 15.529-5.2229 31.752 1.6961 12.396 4.5969 24.379 5.3788 36.847 2.6929 26.022-11.094 51.092-6.176 76.675 7.2401 36.39 9.1004 35.522 0.3082 72.391-4.3098 22.447 1.1445 46.13-4.4385 70.186l9.209 23.813z" fill="#fff" fill-rule="evenodd"/><path id="path192" d="m1389.7 817.97 3.9732 0.9378 0.02-0.091-0.4772 2.7744-0.3933 2.785-0.3153 2.7957-0.2433 2.8063-0.1796 2.8181-0.1216 2.8311-0.074 2.8417-0.028 2.8547 0.01 2.8665 0.034 2.8772 0.055 2.8902 0.071 2.902 0.078 2.9138 0.077 2.9268 0.07 2.9362 0.054 2.9504 0.034 2.9622v2.9752l-0.037 2.9846-0.079 2.9988-0.1323 3.0106-0.1925 3.0213-0.2599 3.0331-0.3342 3.0472-0.4193 3.0567-0.5079 3.0673-0.6071 3.0791-0.711 3.091-0.8268 3.098-0.946 3.1098-1.0737 3.1193-1.2094 3.1252-3.7795-1.5449 1.1551-2.9835 1.024-2.9752 0.9036-2.9705 0.7889-2.9634 0.6827-2.9587 0.5811-2.9539 0.489-2.9516 0.4027-2.9457 0.3248-2.9433 0.2504-2.941 0.1878-2.9362 0.1276-2.935 0.079-2.9327 0.034-2.9303v-2.928l-0.032-2.9244-0.054-2.9244-0.07-2.922-0.077-2.9197-0.078-2.9185-0.071-2.9161-0.055-2.9161-0.037-2.9126-0.01-2.9114 0.031-2.9114 0.074-2.9102 0.1264-2.9067 0.1842-2.9079 0.2528-2.9055 0.3272-2.9043 0.4098-2.9008 0.4984-2.8996 0.02-0.0909zm-0.02 0.0909 0.01-0.0283 0.014-0.0626-0.02 0.0909zm-0.6271-71.613 4.0063-0.7937-0.01-0.0272 0.6827 3.2043 0.6485 3.0201 0.6129 2.8476 0.5776 2.6894 0.5386 2.5429 0.502 2.4106 0.4641 2.2925 0.4229 2.1839 0.3862 2.0906 0.3437 2.0114 0.3012 1.9417 0.261 1.885 0.215 1.8437 0.1712 1.8118 0.124 1.7906 0.078 1.7835 0.03 1.787-0.02 1.8-0.069 1.826-0.1193 1.8626-0.17 1.911-0.2209 1.9713-0.2728 2.0433-0.3237 2.1284-0.3779 2.2252-0.4299 2.3362-0.4843 2.4579-0.5374 2.5937-0.5941 2.7413-0.6496 2.9032-0.7063 3.078-0.7642 3.2658-3.9732-0.9378 0.7594-3.2492 0.7016-3.0591 0.6449-2.8795 0.587-2.7106 0.5303-2.5559 0.4748-2.413 0.4205-2.2819 0.3661-2.1638 0.3142-2.0575 0.261-1.963 0.2115-1.8815 0.1606-1.8142 0.1146-1.7587 0.064-1.7173 0.018-1.689-0.027-1.676-0.073-1.6748-0.117-1.689-0.1618-1.715-0.2055-1.7563-0.2492-1.8094-0.2917-1.8756-0.3343-1.9547-0.3768-2.0457-0.4181-2.1508-0.4571-2.2642-0.4996-2.3917-0.5362-2.5335-0.5752-2.6823-0.613-2.8476-0.6484-3.0224-0.685-3.2114-0.01-0.0272zm0.01 0.0272-0.01-0.0366v9e-3l0.01 0.0272zm6.3177-77.136 4.0724-0.29528-0.01-0.0874 0.2433 2.5382 0.1429 2.5276 0.053 2.5181-0.033 2.5087-0.1087 2.498-0.1795 2.4874-0.241 2.4768-0.2964 2.4685-0.3449 2.4567-0.3862 2.4484-0.4205 2.4378-0.4477 2.4307-0.4689 2.4201-0.4807 2.4118-0.4889 2.4047-0.4878 2.3941-0.4819 2.3882-0.4677 2.3776-0.4477 2.3716-0.4193 2.3622-0.3874 2.3539-0.3484 2.3468-0.3 2.3398-0.248 2.3315-0.189 2.322-0.124 2.3173-0.052 2.3079 0.026 2.3008 0.1087 2.2961 0.1996 2.289 0.2952 2.2842 0.3993 2.2807-4.0063 0.7937-0.43-2.4602-0.3189-2.4591-0.2137-2.4543-0.1158-2.4496-0.028-2.4449 0.057-2.4402 0.1287-2.4354 0.1984-2.4307 0.2575-2.426 0.3118-2.4224 0.3579-2.4177 0.3968-2.413 0.4288-2.4094 0.4547-2.4071 0.4724-2.4035 0.4843-2.4 0.4878-2.3988 0.4866-2.3953 0.4783-2.3929 0.4619-2.3917 0.4405-2.3882 0.411-2.3882 0.3768-2.3846 0.3354-2.3835 0.287-2.3811 0.2315-2.3799 0.1701-2.3787 0.104-2.3776 0.031-2.3764-0.048-2.3764-0.1358-2.3764-0.2268-2.3776-0.01-0.0874zm0.01 0.0874v-0.0449-0.0425l0.01 0.0874zm2.0776-66.778-0.099-4.0819 1.9122 2.8772-1.0665 2.4803-0.9414 2.3965-0.8197 2.322-0.7063 2.2476-0.5976 2.1827-0.4961 2.1224-0.3992 2.0681-0.3094 2.022-0.2244 1.9784-0.1453 1.9465-0.073 1.9181-0.01 1.8945 0.059 1.8803 0.1146 1.8697 0.1677 1.8673 0.2138 1.8685 0.2563 1.878 0.2941 1.891 0.3248 1.9098 0.3519 1.9346 0.3721 1.963 0.3862 1.9972 0.3957 2.0374 0.3992 2.0811 0.3992 2.1319 0.3886 2.185 0.3756 2.2453 0.3543 2.3091 0.3307 2.3764 0.2977 2.4532 0.2598 2.5287 0.2173 2.6138-4.0724 0.29528-0.2102-2.5311-0.2528-2.4532-0.2882-2.3799-0.3213-2.3126-0.3472-2.2524-0.3661-2.198-0.3839-2.1472-0.3921-2.1035-0.3969-2.0669-0.3956-2.035-0.3886-2.0067-0.3768-1.9866-0.3567-1.9724-0.3342-1.9594-0.3036-1.9571-0.2681-1.9583-0.2256-1.963-0.1772-1.976-0.1216-1.9902-0.061-2.0102 0.01-2.0362 0.078-2.0646 0.1571-2.0976 0.2433-2.1366 0.3331-2.178 0.4299-2.224 0.5315-2.276 0.6378-2.3291 0.7488-2.3894 0.8693-2.4543 0.9886-2.524 1.1185-2.5984 1.9122 2.8772zm-0.099-4.0819 3.2386-0.0779-1.3264 2.9551-1.9122-2.8772zm-13.355 0.32244 13.355-0.32244 0.099 4.0819-13.355 0.32244-1.9618-2.7555 1.8626-1.3264zm-1.8626 1.3264 0.4831-1.2933 1.3795-0.0331-1.8626 1.3264zm-1.2874 32.19-4.0465 0.55276-0.01-0.0543-0.1582-1.4953-0.137-1.4173-0.1158-1.3441-0.097-1.2756-0.073-1.2154-0.053-1.1551-0.033-1.1043-0.012-1.0583 0.012-1.0158 0.032-0.97559 0.054-0.9437 0.076-0.91536 0.099-0.89173 0.1205-0.87047 0.1429-0.85158 0.1642-0.83976 0.1866-0.8315 0.2067-0.82559 0.2279-0.82441 0.2481-0.82913 0.2669-0.83386 0.2858-0.84685 0.3048-0.86693 0.3236-0.88819 0.3413-0.91654 0.3614-0.95079 0.3804-0.98858 0.398-1.0323 0.4181-1.0831 0.4358-1.1398 0.4571-1.1976 0.476-1.2638 3.8244 1.4291-0.4807 1.2803-0.4618 1.2118-0.4406 1.1445-0.4181 1.0878-0.398 1.0299-0.3756 0.97913-0.3543 0.93189-0.3319 0.89056-0.3118 0.85275-0.2882 0.81969-0.267 0.79252-0.2456 0.76771-0.2244 0.74882-0.202 0.73465-0.1831 0.72874-0.163 0.72756-0.1429 0.7311-0.124 0.74055-0.1063 0.75709-0.085 0.77835-0.069 0.80905-0.047 0.83976-0.03 0.88347-0.01 0.92598 0.01 0.9756 0.031 1.0311 0.051 1.0913 0.071 1.1563 0.092 1.226 0.111 1.2992 0.1347 1.3795 0.1535 1.4622-0.01-0.0543zm-4.0465 0.55276v1e-3l-0.01-0.0555 0.01 0.0543zm9.4323 36.36-4.0606 0.42047-0.01-0.0827-0.078-1.1457-0.09-1.1457-0.1004-1.1421-0.1122-1.1421-0.1205-1.141-0.1311-1.1386-0.1394-1.1386-0.1476-1.1386-0.1547-1.1386-0.1618-1.1374-0.1677-1.1362-0.1748-1.1386-0.1796-1.1374-0.1842-1.1374-0.189-1.1386-0.1913-1.141-0.1949-1.1398-0.1961-1.141-0.1996-1.1421-0.1996-1.1445-0.1996-1.1457-0.1996-1.1468-0.1984-1.1492-0.1985-1.1504-0.196-1.1551-0.1914-1.1539-0.1901-1.1587-0.1855-1.1598-0.183-1.1646-0.1748-1.1669-0.1701-1.1681-0.1654-1.174 4.0465-0.55275 0.1606 1.148 0.1677 1.1492 0.1725 1.1457 0.1783 1.1457 0.1831 1.1457 0.1878 1.1445 0.1913 1.1445 0.1937 1.1433 0.1961 1.1433 0.1984 1.1445 0.1996 1.1445 0.1996 1.1457 0.1996 1.1445 0.1997 1.1468 0.1984 1.148 0.1949 1.1492 0.1937 1.148 0.1913 1.1504 0.1866 1.1539 0.1819 1.1539 0.1772 1.1575 0.1724 1.1598 0.1642 1.161 0.1594 1.1622 0.15 1.1669 0.1441 1.1669 0.1335 1.174 0.1252 1.174 0.1146 1.1776 0.1051 1.1823 0.092 1.1858 0.08 1.1882-0.01-0.0827zm-4.0606 0.42047v-0.0461-0.0366l0.01 0.0827zm-2.1437 76.067-4.0039 0.79606v-0.013l-0.4216-2.4815-0.3142-2.4768-0.215-2.4709-0.1204-2.4638-0.035-2.4567 0.046-2.4496 0.1181-2.4413 0.1831-2.4366 0.2421-2.4284 0.2941-2.4224 0.339-2.4165 0.3779-2.4118 0.4087-2.4047 0.4346-2.4012 0.4536-2.3965 0.4653-2.3906 0.4701-2.3882 0.4701-2.3846 0.4618-2.3799 0.4488-2.3776 0.4276-2.3752 0.4027-2.3705 0.3685-2.3693 0.3307-2.3681 0.2859-2.3646 0.2338-2.3634 0.1772-2.361 0.1134-2.3598 0.045-2.3598-0.031-2.3587-0.111-2.3598-0.1984-2.3598 4.0606-0.42047 0.2126 2.5134 0.1181 2.5039 0.033 2.4933-0.047 2.485-0.1205 2.4732-0.1843 2.465-0.2433 2.4555-0.2952 2.4449-0.3402 2.4366-0.378 2.4284-0.4098 2.4201-0.4346 2.4106-0.4536 2.4059-0.4665 2.3965-0.4701 2.3894-0.4701 2.3835-0.4606 2.3764-0.4488 2.3705-0.4276 2.3634-0.4016 2.3575-0.3685 2.3528-0.3295 2.3457-0.2846 2.3421-0.2327 2.3362-0.176 2.3303-0.111 2.328-0.044 2.322 0.033 2.3173 0.1134 2.3173 0.2008 2.3126 0.2929 2.3114 0.3933 2.3114v-0.013zm-4.0039 0.79606v-0.013l-0.027-0.14291 0.031 0.15591zm4.3157 72.378-4.011-0.77007 0.02-0.0886 0.7913-3.3413 0.7287-3.1323 0.6685-2.9362 0.6095-2.7532 0.5504-2.5831 0.4901-2.4272 0.4347-2.2831 0.3779-2.1543 0.3225-2.0386 0.2705-1.9346 0.2161-1.8461 0.1654-1.7728 0.1157-1.7114 0.067-1.6677 0.02-1.637-0.026-1.6216-0.072-1.6205-0.117-1.6382-0.1606-1.6689-0.2031-1.7126-0.2469-1.7716-0.2905-1.8449-0.3307-1.9323-0.3721-2.0327-0.4122-2.1461-0.4524-2.2736-0.4889-2.413-0.5256-2.5654-0.5634-2.7319-0.5976-2.9114-0.6308-3.1051-0.6637-3.3106 4.0039-0.79606 0.6614 3.2988 0.6307 3.0957 0.5953 2.9067 0.5634 2.7319 0.5279 2.5724 0.4914 2.4248 0.4547 2.2925 0.4193 2.1768 0.3791 2.0728 0.3402 1.9819 0.3 1.9087 0.2563 1.8496 0.215 1.7976 0.17 1.7658 0.124 1.7421 0.077 1.7339 0.028 1.7374-0.023 1.7528-0.072 1.7787-0.1229 1.8201-0.1748 1.872-0.2279 1.9382-0.2799 2.0173-0.3343 2.1094-0.3898 2.2158-0.444 2.335-0.4997 2.4697-0.5574 2.6209-0.6142 2.7815-0.6732 2.9575-0.7335 3.1488-0.7961 3.3555 0.02-0.0886zm-4.011-0.77007v-0.0225l0.015-0.0661-0.02 0.0886zm-0.5291 69.835-3.8079 1.4716-0.085-1.1976 0.4807-2.2016 0.4205-2.2028 0.3673-2.2004 0.313-2.2016 0.267-2.2016 0.2208-2.2016 0.1807-2.2028 0.1429-2.2016 0.1111-2.2028 0.079-2.1992 0.054-2.2028 0.031-2.1992 0.013-2.2004v-2.2004l-0.014-2.1968-0.021-2.198-0.024-2.1945-0.026-2.1957-0.021-2.1921-0.013-2.1921v-2.191l0.014-2.1862 0.033-2.1862 0.055-2.1839 0.084-2.1815 0.1146-2.1791 0.15-2.178 0.1878-2.172 0.2315-2.172 0.2787-2.1673 0.3319-2.1638 0.3839-2.1602 4.011 0.77007-0.3673 2.0563-0.3154 2.0669-0.2669 2.0752-0.2221 2.087-0.183 2.0965-0.1453 2.1071-0.1098 2.1177-0.082 2.1272-0.056 2.1366-0.031 2.1461-0.014 2.1555v2.165l0.013 2.1732 0.021 2.1827 0.024 2.191 0.026 2.1992 0.021 2.2075 0.014 2.2158v2.224l-0.013 2.2311-0.033 2.2394-0.054 2.2453-0.082 2.2535-0.1134 2.2594-0.1476 2.2677-0.1878 2.2736-0.228 2.2795-0.2764 2.2866-0.3271 2.2913-0.3815 2.2972-0.4417 2.302-0.502 2.3055-0.085-1.1976zm-3.8079 1.4716-0.2268-0.58701 0.1417-0.61063 0.085 1.1976zm9.209 23.813-9.209-23.813 3.8079-1.4716 9.209 23.813-0.014 1.5083-3.7937-0.0366zm3.7937 0.0366-1.9417 4.7516-1.852-4.7882 3.7937 0.0366z" fill="#fff" fill-rule="nonzero"/><polygon id="polygon194" transform="translate(4.1109e-5 5.0165e-7)" points="1179.4 601.09 1176.1 597.76 1179.4 601.09 1620.6 601.09 1620.6 594.42 1179.4 594.42 1182.7 597.76 1176.1 597.76 1176.1 601.09" fill="#231f20" fill-rule="nonzero"/><path id="path196" d="m1268.3 726.2c20.432 1.2413 23.302 28.469 3.3295 33.815-22.26 3.0319-28.852-27.346-6.8256-33.501l3.4961-0.31417z" fill="#fedc00" fill-rule="evenodd"/><path id="path198" d="m1531.9 726.2c-20.435 1.2366-23.311 28.461-3.3378 33.815 22.265 3.0319 28.852-27.351 6.8209-33.501l-3.4831-0.31417z" fill="#fedc00" fill-rule="evenodd"/><path id="path200" d="m1268.3 789.23c20.432 1.2295 23.302 28.479 3.3295 33.813-22.264 3.0189-28.865-27.313-6.8256-33.496l3.4961-0.31654z" fill="#fedc00" fill-rule="evenodd"/><path id="path202" d="m1531.9 789.23c-20.431 1.2248-23.311 28.475-3.3378 33.813 22.268 3.0189 28.86-27.318 6.8209-33.496l-3.4831-0.31654z" fill="#fedc00" fill-rule="evenodd"/><polygon id="polygon204" transform="translate(4.1109e-5 5.0165e-7)" points="1176.1 597.76 1182.7 597.76 1179.4 601.09 1620.6 601.09 1620.6 594.42 1179.4 594.42 1176.1 597.76 1179.4 594.42 1176.1 594.42" fill-rule="nonzero"/><path id="path206" d="m1293.7 124-1.75 1.9062-2.0625 2.6875-0.8125 0.96875-0.7813 0.46875-1.5937-0.3125-2.6875-0.8125-2.7188-0.15625h-5.6875l-1.7812 0.15625v1.125l1.125 1.125 2.0625 3.1562 0.8125 3.0312 0.7812 3.3438 0.4688 3 0.3125 2.0625-1.25 1.75-0.9688 1.5938c-4.2437 7.1409-4.3621 12.931-8.4062 19.375-2.7473 3.463-6.762 4.6052-10.781 7.4375l-1.4375 0.96875-0.8125 1.5938 0.5 2.5312 0.7813 2.6875 1.5937 2.5625 1.0938 2.5312 0.3437 1.5938 0.625 1.25 1.75 1.4375 2.2188 1.125 1.9062 1.4062 1.5938 1.5938 0.3125 1.5938 2.2187 0.9375h3.6563l4.4375-0.625 4.2812-0.625 1.75 0.3125 1.75 0.9375 2.0625 1.4375 0.3125 2.2188 0.9688 3.3438 2.375 3.1875 2.6875 3c8.7106 6.3886 1.45 0.6686 7 12.688 2.7956 5.3551 4.5788 7.313 6.1875 13.344l2.375 5.25 10.812 10.969 1.25 0.78125 2.5625 1.4375 2.2187 1.5625 2.375 1.4375 2.5313 1.75 0.9687 0.78125 0.9375 2.875 0.9688 3.3438 0.625 3.1562c2.212 13.963 2.7691 21.582 2.2187 35.906-1.5567 16.702-4.3558 11.62-15.406 18.719-3.6059 3.6661-2.2 4.2152-6.6563 8.7188l-1.75 1.4375-2.375 0.46875-2.875 3.3438-2.8437 2.5312-3.1875 2.375c-9.3614 7.663-23.104 12.308-27.281 24.625l-0.9687 2.375-1.2813 2.2188-1.0937 1.75-1.125 1.5938-2.2188 1.75-2.375 1.0938-0.3125 0.5-1.75 1.5938-1.125 3.8125-1.4062 1.0938c-7.6275 7.9063-9.6243 14.42-3.0313 23.5 4.7834 5.3799 22.382 5.2525 28.094 2.5312 5.8937-1.8543 15.61-6.3596 20.969-7.125 2.7992-3.1949 8.9175-5.3553 13.031-5.875 8.4756-1.4669 20.722-1.8769 28.094-4.7812 14.179-6.7465 29.131-4.6231 44.281-3.9688h5.4062l5.25-0.625 4.9063-0.46875 4.9375-1.4375 4.125 1.9062c5.7756 3.1146 15.893 3.7925 22.531 4.9062 26.063 0.2752 12.716 0.0992 33.344 5.25l2.375 0.65625 2.7187 0.46875 2.5313 0.15625 2.8437 0.15625 1.75 0.78125c6.75 3.0248 11.206 3.868 18.594 3.8125l1.0937 2.375 3.1875 2.4062 3.8125 1.875 3.9688 0.8125 3.9687 0.625 2.0625 0.65625h1.9063l3.9687 0.625 3.8125 0.15625h4.125l3.5-0.78125 1.75-0.65625 1.4375-1.4375c7.8637-9.3567 4.2943-28.056-6.2187-34.594-11.075-9.326-13.5-8.9498-18.719-22.875-9.8161-14.979-11.088-2.2392-10-25.219 1.6465-14.494-5.5005-13.513-4.4375-30.188v-11.094l-3.8437-4.7812-2.2188-5.5625c-3.3165-11.444 1.8185-22.797 3.6563-33.969 3.9543-10.675 1.662-13.661 0.9687-23.812-0.6331-7.6134 2.5604-4.6215 2.8438-15.875 1.8544-3.9083 2.6386-9.244 5.25-11.906 2.0126-3.5079 4.5171-7.6885 4.125-11.906h0.9375l0.1562-8.5625 0.5-0.65625 1.0938-4.125v-2.2188l-0.1563-2.375v-0.8125l-0.4687-2.6875c-3.0449-7.9229 1.7754-3.9326-4.625-13.812-4.5473-5.3977-6.2716-3.8039-11.719-10l-1.5937-0.46875-0.6563-0.3125-2.2187-0.15625-3-2.25-1.5938-0.46875h-1.2812l-2.375 0.46875-2.375-0.9375-1.5938-0.8125h-0.4687l-1.2813 0.96875-4.9062 0.3125h-2.375l-1.9063 0.96875c-4.7516 2.3528-10.403 4.3916-15.562 6.9688l-2.5625 1.4375-2.2187 1.4375-1.9063 2.0625-2.5312 1.25-0.6563 1.4375-1.0937 2.0625-2.2188 1.4375-2.5312 1.0938-1.5938 1.9062-0.625 1.4375 0.1563 0.78125-1.125 2.4062-2.8438 2.6875 0.3125 0.9375-0.9687 2.25-1.25 1.5625-1.5938 1.9062-1.2812 2.25-0.1563 1.25 0.4688 0.65625c-4.9264 11.667 2.4593 5.214-6.1875 15.375l-10.156 0.96875-3.5-0.46875-3.9687-0.96875-3.5-0.46875-3.625-0.8125-3.5-0.9375-3.6563-1.125-3.9687-1.0938c-10.274-3.3272-10.757-4.7731-18.719-9.2188l-2.4062-2.5312-0.9375-1.125-0.625-0.625-2.0938-1.4375-2.375-1.25-1.0937 0.3125-0.8125 0.78125-0.7813-1.75v-1.5938l-1.75-0.46875-0.3125-2.2188-0.1562-1.2812-0.4688-0.3125-0.3437-0.15625-0.7813-1.4375-1.5937-1.4062-1.0938-0.8125-0.9687-1.5625-0.625-0.5-0.5-0.3125-0.4688-1.75-2.5312-0.46875-0.7813-0.46875v-0.8125l-0.3437 0.34375-2.375-2.5625-0.3125-1.2812-0.625-0.15625-0.5 0.5-1.4063-0.96875-0.9687-2.2188-0.7813 0.96875-0.1562-0.34375-1.75-1.4062-0.9688-2.0625-0.625 0.15625-1.2812-0.96875-0.4688-1.9062-0.9375 0.34375-1.2812 0.3125-0.7813-1.4375-0.4687 0.3125-0.5 1.75-1.125 1.4375-1.875-3.1875-0.9688 0.8125-0.1562-0.34375-0.9375-0.9375-0.9688-1.75-1.125 1.75-2.0312-2.2188-1.4375 1.9062-1.2813-1.75-0.9375 1.0938-1.125-0.46875-3.1562-1.75-2.25-1.25c-5.5063-3.9968-12.74-5.4991-17.125-10.969zm133.81 138.91 3.5 1.2812 1.9062 2.6875 0.1563 0.34375c-0.1276 23.468 43.934 18.048 18.906 56.031-6.2185 0.48071-9.884-2.6207-15.719-2.375-9.5067-0.68858-19.132 0.10281-28.594 1.0938-15.384 2.863-27.925-0.58677-43.656 3.9688l-0.4688-1.75 0.4688-1.25 2.875-2.375 1.4062-3.5c2.1248-5.3976 2.4313-11.174 4.125-17l1.2813-2.8438 1.5937-3.1875 2.6875-2.5312 0.8125-1.75 0.9375-2.0625 0.1563-2.0625 0.9687-4.4375 1.25-3.8125 2.875-2.875 2.0625-0.9375h5.0625l2.5625-0.3125c4.3039 0.0591 7.9869-1.8258 12.219-2.7188 4.2142-1.3004 8.2941-3.8628 12.844-5.2188l2.875-1.125 3.5-0.9375 1.4063-0.34375zm50.031 37 2.5313 0.8125 1.9062 1.5938 0.3438 0.625c1.1858 4.0488 2.9697 10.05 4.5937 13.812 1.6417 6.6307 5.1566 7.8816 3.8125 16.031l-1.5937 0.15625h-2.8438l-2.7187-0.9375-2.8438-1.5938-2.5625-0.96875-1.5937-0.46875-5.6875-1.2812c1.1953-9.3874 0.2381-20.007 6.6562-27.781z" fill-rule="evenodd"/><path id="path208" d="m1300.4 140.19 1.2638 0.79134 0.9519 0.63779 2.3859 2.0622 1.5838 2.8594 1.4315 3.0142 0.9544 3.0201-0.7914 1.2673-1.5945 0.63426-4.2838-2.6965-2.8583-3.0201-1.4291-0.15709 0.476-0.79134-0.3142-0.47598-1.1138-0.79489-0.9531-1.7445-3.3343-1.591-1.7433-1.5862v-0.95196c-0.2256-5.7378 1.1988-8.4803 3.1772-13.499 2.0456 4.5154 2.589 5.2902 3.9673 10.479l2.224 2.5429z" fill="#fff" fill-rule="evenodd"/><polygon id="polygon210" transform="translate(4.1109e-5 5.0165e-7)" points="1282.6 141.14 1280.5 137.65 1279.6 134.47 1279.6 133.52 1280.5 134 1281.6 134.95 1284 136.86 1285.6 139.08" fill="#fff" fill-rule="evenodd"/><path id="path212" d="m1303.4 135.43 0.1583-0.32008 1.5897 0.32008 0.9485 0.95197 0.1618 0.3189 1.1102 0.63307 2.5394 1.1102 3.0153 1.748c6.5752 3.2327 2.6445 7.7032 5.3977 10.799l2.0657-1.4339 1.4303 0.79606 2.0623-0.31417 2.2192-0.32008 0.1619 1.1102 0.9578 0.79606h2.5347l1.4291 1.4291 1.748 1.1102 1.5898 0.31417 0.1535-0.47598 0.476 0.16181 0.7961 0.95197 1.2709 1.4291 1.7433-0.3189 0.4819 0.47599 0.7901 0.79488h2.3823l0.7949 1.9063 1.272 0.1559 1.2673-0.1559 0.7949 0.95197 0.7914 0.79134 2.3823 1.115 1.5897 1.9051 0.6343-0.15827 1.5862 0.79134 0.9567 1.1102 1.7445 2.224 1.5862 2.3858 1.2709 3.0165 1.4291 2.3811v1.4291l1.272 0.79134h0.4713l-0.6319 0.7937-1.2685 0.47244-3.9768 0.48189-2.0586 0.31417v0.47599h0.7913l1.2673 0.4807 3.0237 0.94843 2.0586 0.63779-2.8535 0.47245-2.7012 0.47598h-0.3142v0.63779l0.7866 0.63426 2.5429 0.47598 1.9063 0.48189-3.0153 1.1055-2.3823 0.95197-0.3189 0.79606h0.4807l1.2673 0.79016 3.0201 0.47953 1.7445 0.47835-2.5405 0.47598h-2.2241l-0.4807 0.31772 0.4807 1.7398 1.7481 0.32362 0.3141 0.15709 3.9721 0.31535-0.9555 0.47953-1.4256 0.79606-4.1339 0.63425-2.6917 0.31418v1.4339l0.7949 0.31417 1.4244 0.15709 3.0153 0.47598 2.3823 0.32008c-2.9681 1.2661-8.5783 0.45-10.956 3.0142l0.6425 0.47716 11.265-0.79488-2.5381 3.0189-3.339 1.1102-0.7866 0.3189h-2.5429l-1.591 0.63307-0.1535 0.16181 0.1535 0.47244 0.9567 0.6378 1.5909 0.95197 1.4245 0.15826-4.6016 1.272-3.4961 1.2673-0.7913 0.31889 0.3153 0.47599 0.476 0.63307 1.9063 0.63779h1.5898l-1.5898 1.1067-0.796 0.79961v0.47598l0.4807 0.94961 1.2626 0.6378-1.4244 0.63307-0.6331 1.4291 0.7949 0.79606-1.591 0.79016 0.3189 0.63779-2.224 2.8583-1.5862 0.47717 0.3141 0.63189 0.9579 0.63425 1.428-0.3189 2.3822-0.94724 1.2626-2.2252 1.2721-2.3776 1.2756-1.9087 1.272-0.79252 2.3729-3.6532 2.2287-2.7v-1.1102c3.0118-4.8142 7.1114-1.6512 11.427-4.2874l1.115 0.47598 1.9016 0.63425 2.0669 0.95788 2.3823 1.1055 2.0657 0.63779 0.7961 0.95197-1.7433 2.2205-0.4807 2.0669v0.47599l0.4807 0.95315 0.4677 1.5862-0.9484 3.0154 0.4807 3.0189 0.4677 0.47716 0.6331 0.94843 1.1137 2.224 1.591 0.79606-0.7949 0.63779-0.7961 1.2661-0.7948 2.8583-1.9004 1.7492 0.9484 1.428 0.1571 1.1102-1.1055 1.1102-3.8162 2.3811-0.7948 1.9063 0.7948 0.31418-0.3141 0.79606-3.0154 2.224-1.4291 2.5394v0.79488l0.7913 0.47599 0.7949 0.31889-0.7949 0.47245-1.1102 0.79488-2.0634 2.8583-1.1091 2.5394 1.2626 0.95197h1.115l-1.115 2.5441v1.9051l0.7949 0.31417-1.7386 2.8583-0.4807 2.5441v0.47126l0.9484 0.32008 0.7949-0.47362-0.3189 1.1102v6.665l-0.9437 3.0201 1.7386 1.272-1.4244 2.5335-0.6331 1.9098v0.79606l0.7866 0.15709h1.7481l3.496-1.2709 2.3823-0.95788 0.6331-1.9004-0.3189-1.5874v-0.63425l0.6378-0.63779 0.4712-1.7433 0.4807-3.8102 1.9052-2.3823 2.0681-4.9252 2.0622-3.3342-0.3225-0.79134 1.428-1.748 0.6378-1.2697v-0.63898l-1.2721-0.62953 0.9496-0.47598 0.4808-0.95315-1.1056-2.224 1.1056-1.7433 1.1137-1.272 0.3142-1.2685-0.3142-0.16063 1.7433-2.5394 0.7961-2.224-0.3189-0.47717 0.3189-2.7 0.7902-2.3823 0.3236-0.47598 2.0586-0.63307 1.5874-0.3189 0.1607-0.47717-0.1607-1.4244 0.1607-1.9051 3.6531-2.224 1.5862-2.3823 1.2721 0.63426h1.4291l0.1583-0.15827 0.6378-1.7433 0.7901-1.748 0.4725 1.2673 0.6378 1.4339 2.0669-1.7492 1.9063-1.1138h0.476l-1.2768 4.1291v2.8583l0.3189 0.63425 2.0681-0.47598 0.6296-1.5862 0.3259-0.16181 1.7445-1.1067 1.4292-0.47953 0.6342-0.15827 3.3331-4.2874 3.3342-0.16063 2.3823-0.47126 0.7914-0.47717-0.7914 2.8571v2.5394l0.4807 0.47599 1.9004-0.95197 1.115-1.5862 0.4724-0.16181v0.79606l-0.4724 1.5862v2.8571l0.4724 2.5441h0.4725l1.4326 0.15709h2.6965l1.7445-1.9051-0.3118 1.748 0.4724 1.272 2.3858-1.115v1.115l0.6331 0.79016 1.4256-0.79016 1.9063-2.3858 1.2697-2.5394 1.1197-2.3823 1.7362-3.1772 1.1173-0.79488-1.1173-1.4256h-1.7362l-1.1197 0.47716 0.163-1.2709 0.476-1.7492 1.9051-3.8067 1.5909-2.7 0.6296 0.3189 4.1291-2.3858 0.1583 0.79606 0.476 0.47953 1.748-1.2756 1.2709-1.2673 0.1535-0.3189 0.6425 1.1138h1.2673l2.0623-2.3811v2.0622l0.9543 1.2709 2.6953-1.2709 1.4291-0.3189 0.4807 0.6378 2.6917-1.1138 2.237-0.63425 0.6213 0.63425 0.1571 1.1138-0.4713 2.0587-1.4291 2.2252-1.115 1.748-0.6295 1.9087 0.3154 1.1055 3.4925-1.1055 2.8535 0.47244 0.8079 0.63307-0.1618 1.591-0.1618 1.9063-2.8583 2.3799-1.1138 2.5394 0.4713 0.6378-0.4713 1.1067-0.4677 1.5898v4.2874l0.7819 2.7012 1.9098 0.95197 1.7481-0.16182 0.1618-0.47126 0.1618 0.79134 0.6248 0.79489 1.9051-0.16063 1.7563 0.31417-0.1665 3.3378 0.4819 2.7012v0.79016l0.6295 0.47716c2.5642-1.8024 6.7748-6.9331 9.365-8.5748l-0.9485-2.5429 1.1091-3.3295-1.1091-1.1102h-1.4291l0.6284-0.63779 0.8007-1.748v-1.5862l0.7867-3.6496 0.8043-0.79607v-0.79015l0.7866-2.7012 0.3189-1.9039 0.6425-2.0634 0.1559-1.9098-0.1559-1.4291 1.7433-1.9051 0.7949-1.9016 0.476-2.224 0.3154-2.2205v-4.9252l-0.7914-4.6016-0.3224-4.1339-2.0599-3.3295-1.9039-2.224-0.1618-0.47599-2.8583 0.15591-2.7012 0.79606-0.4712-0.15827 1.2708-2.3811 1.102-1.272 0.1583-0.79016-3.9603 1.5862-3.3307 1.9051h-0.9567l2.7-3.1772 1.7445-2.6965 0.3154-0.47598h-1.4303l-0.9556 1.1102-2.0598 1.5862-2.224 1.748-2.2276 1.5898-2.0516 1.2673-1.4362 0.47717 3.3296-7.141-0.7878 0.79133-1.1055 0.95315-2.8654 3.0201-1.8969 2.0575-2.3905 1.5862-1.748 1.272h-0.6248l0.9437-2.8583 0.3224-2.0575-0.6413-0.16299-0.7914 0.79488-0.9531 1.2673-2.5418 2.7024-2.374 1.7433 1.2673-3.4913 1.1067-2.8535v-0.79606c-4.3901 2.7472-4.598 6.6472-8.7236 9.2067l1.5862-3.4949 1.5945-2.8583 0.1488-0.79606-0.4759-0.31417c-6.2894 5.1295-2.6374 5.5583-9.8469 12.223l-1.4315 1.1138-1.7445 0.79606-0.7913 0.79016-0.952 2.2252-1.4291 2.0622-1.115 1.748-1.7433 1.5862-0.952 0.47716-0.9543-1.4291-1.109-0.95197-0.7914 1.428-1.1138 0.47599 0.3189-4.2862 0.952-3.9685 0.3201-0.47717-1.1185-0.95197-0.1536 0.47599 1.5863-4.4433 0.3153-3.1772-0.3153-0.95315 0.157-1.2673 0.7996-2.5441 1.1067-2.3811 1.9052-2.224 1.1102-2.2205 0.4843-1.1091 0.9484-3.4925 1.2626-3.339-0.1536-0.63426-2.224 0.47717 0.4772-0.95315 1.7468-1.5862 1.9063-1.9051 1.2638-1.748 0.8032-2.0622-0.1654-0.79606-2.5358 1.4339 2.0598-3.4961 2.8571-2.3811 0.8008-0.47717-1.7492-0.3189c2.1272-3.887 4.1079-1.735 6.8268-5.5535v-1.272l2.0622-2.2252 2.2287-2.0622 2.5347-1.748 2.6964-1.9016 2.3906-0.7937c3.7299-1.9701 9.9732-2.8417 14.128-4.6075l0.7866-0.79488 1.5897-0.47126 3.9697 0.15591 2.3859-0.95197 3.4913 1.5862 2.0587-0.3189 0.1618-0.94843 0.9555 0.15709 1.7445 0.79134 3.0153 2.7 2.8583-0.47598 0.4677 0.79606 1.591 1.1102 1.1137 0.95197 2.8666 2.3823 0.4677 0.79488 1.5815-0.47716c3.5055 3.0201 3.5575 4.5685 5.726 8.7331l-1.2721 0.31417c1.9016 4.1504 4.9217 13.111 3.6497 17.304l-0.6343-1.2626-1.1138-1.2709v3.8055l0.6425 3.339-0.32 0.79016h-1.9134l0.3319 0.47834 0.4712 1.428 0.1583 2.0669v2.2205l-1.4291 2.8583-0.3154 2.8571-0.4795 0.95197v0.47835h-1.2638v0.7937l-0.3236 1.7398-1.1103 3.339-1.2673 1.4291-0.3142 1.9051-0.8043 2.0622-1.4244-1.428c-0.9992 4.1764-0.2846 6.3532-3.0236 11.113-2.2748 3.1122-5.3126 6.3921-7.6169 9.365l2.2275-0.47126 2.0587-0.47835h0.4724c3.5091 11.25 1.4587 23.274-1.259 34.45l-1.2721 4.7646-1.1138 4.6098-0.7913 4.9193-0.3225 0.63426-1.4291 1.9051-1.4291 1.4303-0.6295 1.4244-0.476 2.8571 1.1055-0.31418 0.7984-0.95315 0.6307 1.5874 0.9567 1.1102 1.2709 2.8571 1.9016 2.6965 2.0586 2.5429 2.3906 2.5441 0.4677 1.7433c0.4559 8.1366-4.2792 17.752 0.1571 25.089l1.2708-1.272v-0.16181c3.0922 7.8177 6.606 12.389 2.0717 20.963-2.1685 10.922 2.8547 8.3055-10.318 12.385l-0.476-3.0201 0.7913-2.863v-0.63189l-2.8582 2.7-1.1138 2.8571-0.1571 0.95788h-2.2205l-1.748-1.4339 0.952-3.1772 1.9063-2.2193 0.6378-0.47717-4.1374 1.4244-2.2122 2.7059-0.3189 0.94843v0.79488l-0.9567 0.31417-0.9532-1.585 0.6378-2.0622 1.2721-1.748 2.0586-1.4303 2.0658-1.4291 2.0681-0.94842c8.0374-2.4839 8.2453-6.3106 4.2862-13.337-11.244-32.88-3.2705-16.701-27.951-40.964l-3.3342-3.9697-3.0154-3.4913-3.3307-3.972-2.8571-3.8102-2.863-3.6496-1.9016-1.272-4.1291-1.585c-9.7689-2.289-15.791-4.0665-24.77 0.7937-5.6221 2.8205-14.86 7.4906-21.273 7.1457l-3.9685 0.62952h-3.176l-1.1103-0.62952-0.6342-1.272v-2.224l2.5429-4.6016 0.6295-3.6496c-4.6228 10.403-6.1204 8.2594-11.908 16.831l-1.1055 2.0575-0.6378 1.9063v1.9051l-0.6342 3.3342-0.4772 3.3342-1.4279 2.8571-2.2205 2.3858-1.2721 0.9496-1.1137 2.3823-0.7914 1.9075-0.6378 2.0598c-0.5279 3.7335-1.637 7.3748-2.0669 11.113-1.2756 8.1957-3.8953 5.4142-6.0307 10.794l-1.9063 8.7366-1.748 1.9039-1.5815 1.1138-1.2721 1.7445-1.9051 1.4291c-2.4626 2.0244-7.1457 6.6142-8.8937 9.2079l-1.4244-0.94842-1.4327-1.9146-0.6343-1.7386-1.272 3.6532-1.9039 0.94842-1.1103-0.31417-0.9531-3.0165-0.4725-2.3858-0.3177-0.47598-1.4339 3.0154-0.9484 2.863-0.6378 0.31417-2.0681-1.1102 0.7961-3.9685 1.5897-2.5429 0.4772-0.47244 0.7913-0.16181 1.1185-0.95197 1.9004-0.47599h0.9532l2.5429-0.63425c10.484-5.6268 7.1409-15.175 10.795-25.879 7.9276-40.454 4.2531-28.342-4.4492-64.144l-0.9484 0.16181-0.6378 0.95315 2.3811 18.1-2.7012-1.748-1.4244-1.591h-1.1138l-1.7433-2.8583-1.1138-2.5382-0.3165-0.47244-0.9555 0.47244-0.3154 1.5862c-3.7429-4.7587-0.2634-7.226-2.5429-12.7l1.1138-1.428-0.1618-1.5862v-0.32008l-0.1571-2.224h1.1138l0.9496-0.63307-0.3154-3.1724 1.2709-2.2252h0.9484v-1.1138l0.6343-0.62952 1.272-1.115v-1.428l-0.1571-2.2252-1.2673-4.4445-0.4819-2.7-1.4279 3.0189-0.476 3.0154-0.3154 0.47598-0.6342-1.1091-0.9567-0.95314-0.952 2.0622-0.9496 1.748-0.3177 0.47716-0.3154-1.9098-1.1149-0.79133-1.2709 3.4913-0.7913 3.0165-0.3237 0.79488-1.4197-1.1091-0.796 3.0154-1.1138 2.0658h-0.7961l-0.3177 4.1303 0.3177 3.4878-0.3177 0.79488-1.4256-1.2673-0.9519-2.5441v-3.176l0.4759-3.4913 0.3142-3.0154-0.3142-1.5874 1.4256-3.3342 0.476-1.9051 0.4796-0.3189 0.9484-3.9673 0.7996-2.7024-0.7996-0.7937-3.8055 0.7937-2.3859 1.5874-1.1102-0.15709 0.3189 0.47599-0.3189 1.5862-0.7961 3.1772-0.7854 2.224-1.272 0.63425-0.9532 1.1138-1.115-1.748-1.109-0.79606-1.7445 2.5441-0.952 1.9016-0.1618 0.31771c-3.1264-5.6728-2.8146-12.192 0-17.939l0.6378-1.4291 0.476-2.224 1.4303-2.7 0.6331-2.2205 0.6283-0.31535c2.9351-5.4602 10.573-19.695 8.5796-25.25l-0.1583 1.1138-0.7949 2.0634-0.4772 2.0622-0.4759 2.0669-1.2709 2.0622-0.3189 0.95433-0.7961 0.31772-1.2626 1.7445-0.1618 1.9051-1.5862 3.0201-0.7949 0.63307-1.1102 1.748-1.2756 1.2673-0.4677 0.16181-1.9063 2.2193-1.7516 1.4303v0.79488l-1.7445 2.2205-1.9087 1.272h-0.4724l-1.2721 2.0622-1.4255 0.79488h-0.476l-0.9567 0.47599-1.2673-4.1256 0.4724-3.3331 0.4795-0.79606 0.3154-2.224 0.639-2.2205-0.4819-0.3189 2.0634-1.4291 1.272-1.2673h0.4795l0.6307-2.3858-0.4724-1.7433-0.1583-0.47599 0.9532 0.47599 1.109 0.63307-1.4315-2.8571-2.0598-1.5921-0.6425-0.15591-2.2158-0.15827-0.6378 0.63426 0.1583 0.79488-1.2638 2.2252-0.3224 2.2193v0.31417l-1.4291-0.31417v0.63779l-0.6343 0.79016-1.748 0.63425-0.4725 1.591-2.5429 0.79489-1.2661 0.95315-0.9543-0.3189-4.9241-0.95197h-4.4445l-1.2685 0.31772-3.8137 0.79133-2.7012-0.15708-0.7902-0.31418-0.796-1.9098 1.9051-1.2685 2.0669-0.47952 1.7433-0.47244 3.8162-0.6378 4.2826-0.95315 3.6532-0.47244 2.3776-0.47953 0.4807-0.47244c-7.6819-2.9563-14.805 2.8193-22.392 2.6917l-3.9638-2.2193-1.591-2.0622-0.7913-1.748v-2.0634l1.9051-2.2205 0.4772-2.5429v-0.63425l-2.8583-1.5898 1.5874-2.0587 2.3799-0.6378 0.3154-0.63425 1.2768-0.79488 3.0106-1.9063 2.5464-2.6953 1.7445-2.7012 0.6296-3.1772v-2.224l0.796-0.95315 2.3811-2.3776 2.0705-2.224 2.5358-1.5898 2.5429-0.94843 1.5827-0.47716 0.1618 0.79134 1.1103 1.1102 2.8618 2.0669 1.1102 2.3811 1.5851 0.63307 1.5921 1.1102 1.1055 0.79606 2.5382 2.7012 2.2299 2.8583 1.5815 3.3331 0.6378 1.5862 1.1138 0.95315h0.6307l1.4315 0.15709 3.3319 0.48189 2.0657 0.31417 0.4819-0.79606-0.3201-0.79016-0.9519-1.1138-1.1138-1.1102-1.7492 0.31772-1.7445-0.31772 3.3319-2.2252 2.5476-1.1102h1.1103l1.4232-1.9051 0.6342-1.2673-0.6342-0.63779 1.115-0.63307 0.7913-1.115-1.2721-1.7433v-3.1772l-0.6342-2.0622 0.6342-0.32008-1.7433-0.79016-0.9567-1.272-1.5838-3.1772-1.2697-2.6965-1.5874-2.8571c-2.811-3.8835-5.6351-5.3941-7.7835-9.528l0.7996 0.15827 3.0154 1.748z" fill="#fff" fill-rule="evenodd"/><polygon id="polygon214" transform="translate(4.1109e-5 5.0165e-7)" points="1277.8 161.47 1277.8 160.99 1278.6 161.47 1279.9 162.26 1283.1 164.01 1285 164.64 1283.1 165.75 1280.8 167.03 1280.4 167.03 1280.4 164.17 1278.6 161.78" fill-rule="evenodd"/><polygon id="polygon216" transform="translate(4.1109e-5 5.0165e-7)" points="1293.9 173.85 1295.6 175.12 1296.1 175.28 1295 175.6 1293.7 175.6 1291.5 174.17 1289.9 173.53 1289.3 173.53 1287.5 172.42 1285.8 171.94 1283.6 171.94 1283.9 170.52 1284.5 170.99 1286.2 171.46 1289.6 171.94 1291.5 173.06" fill-rule="evenodd"/><polygon id="polygon218" transform="translate(4.1109e-5 5.0165e-7)" points="1308.5 175.28 1307.4 175.12 1306.7 174.65 1306.6 174.33 1305 173.54 1303.1 174.33 1305 176.39 1305.5 176.39 1308.8 176.71 1312 176.39 1310.5 175.44" fill-rule="nonzero"/><polygon id="polygon220" transform="translate(4.1109e-5 5.0165e-7)" points="1304 176.39 1303.4 176.87 1303.6 178.93 1304.3 178.93 1307.4 179.4 1311 180.2 1309.4 179.09 1306.1 177.35 1305 176.7" fill-rule="nonzero"/><path id="path222" d="m1310.8 185.76-2.0657-1.4291h-2.0599l-0.1606 0.31535 0.7949 1.2768 0.796 1.1055v0.15591l-1.9063-0.94724h-1.5897l1.9051 2.3776-3.1736-1.4303-2.8571-1.2614-0.476-0.163v-0.79488l1.9039-0.15827 0.3154-1.428 0.796-0.63779-0.796-1.1102v-1.4291c4.0618 1.2118 5.0693 1.1776 8.2594 4.6051l0.3142 0.95315z" fill-rule="evenodd"/><polygon id="polygon224" transform="translate(4.1109e-5 5.0165e-7)" points="1337.2 199.73 1338 198.77 1339 196.87 1336.7 199.73" fill-rule="nonzero"/><polygon id="polygon226" transform="translate(4.1109e-5 5.0165e-7)" points="1335 205.92 1337.5 203.23 1339.3 201 1339.4 200.36 1339.4 201.16 1339.3 202.27 1337.7 204.49 1335.9 205.92" fill-rule="evenodd"/><path id="path228" d="m1327.7 216.88-0.7961-1.4303 3.0166-1.585 2.3811-2.3823-0.3154-0.32008 0.7914-0.79016 0.1582-0.95787 2.2193-0.62953c-2.2157 2.4638-3.8527 5.4024-6.3449 7.6181l-1.1102 0.47717z" fill-rule="evenodd"/><polygon id="polygon230" transform="translate(4.1109e-5 5.0165e-7)" points="1423.6 234.18 1423.6 233.55 1422.2 232.44 1420.9 234.5 1422.3 235.3" fill-rule="nonzero"/><path id="path232" d="m1443.1 234.5c-0.7902 3.0142-2.2795 6.2551-3.176 9.522l-0.9449 0.16181-0.9614-0.79606 1.4291-5.0776 1.9099-4.1303 0.476-0.79488 0.9484 0.16181 0.3189 0.95315z" fill-rule="evenodd"/><polygon id="polygon234" transform="translate(4.1109e-5 5.0165e-7)" points="1442.2 246.41 1444.4 247.2 1444.4 246.57 1443.6 244.82 1444.4 241.49 1444 239.74 1443.1 239.26 1441.4 244.19" fill-rule="nonzero"/><path id="path236" d="m1490.4 243.07v0.63307l-0.3154 1.272-1.4279 2.5429 0.3106 2.2205-0.7866 0.79488-0.1618 1.2673 0.6378 0.63898 0.4724 1.2709-0.4724 2.2205 0.6295 1.5862-0.3189 0.63307-0.3106 2.0681c1.7315 8.0811-0.6721 5.1803-4.2957 10.951l0.1583-5.2358-0.9461-3.0201-1.1137-0.63307-0.1524-4.1303-1.591-2.5382h-1.1149v-1.7433l-0.3095-2.2252 0.7866-1.1102 2.2288-2.0622 2.0539-2.5441 1.9099-1.9051 2.6964-0.95197h1.4327z" fill-rule="evenodd"/><path id="path238" d="m1436.8 264.66 0.3248 0.63779 0.1559 1.9051 1.1138 3.3342 0.9496 2.0681 1.1102-0.32362 0.1618-1.1102v-1.9063l0.3178 0.63426 0.4771 1.272 0.7949 2.5429 1.4303 1.5827 0.1559-2.5358-0.1559-2.0705v-0.47126l0.4677 0.31771 0.802 0.63425 0.6295 1.9051 0.7926 1.4291 0.3224 1.9051 0.6331 0.95197h0.1535v-5.5583l0.3236-0.47598 0.4808 0.95315 1.1055 1.2756 1.2685 3.3295 0.9555 2.2205 0.6307-0.47244 0.3224-1.272 0.4807 0.47716 0.3107 1.2673 1.2756 2.863 0.9484 1.9004 0.4795-1.7445v-1.428l0.7843 0.47599 0.6378 1.272 0.4795 3.4913 1.898 0.16181 1.4327 1.7445 1.4327 0.1559h0.3153v0.6378l0.4807 1.272 0.1607 2.5358 0.9448 1.5898 0.8044-0.47598 0.7819-0.95315v0.47716l2.237 3.652-0.8067 2.6976-0.7878 2.7-0.6425 2.7012-0.3142 3.0142-0.3154 2.6976-0.1523 2.7-0.1618 3.0154-0.3189 3.0201v2.7l-0.3237 3.0154 0.9567 1.1102 1.5863-1.5898 0.1582-2.6965 0.3154-3.1772 0.646-2.7 0.1607-2.8535 0.6212-2.7059 0.7996-2.8535 0.7902-3.0154 0.7961-2.3823 1.5956-2.5441 1.5815-2.2193 0.9485-0.3189 1.1137 0.3189c-6.626 6.3673-5.6043 18.455-7.9393 27.148-0.8599 6.4429-1.3748 0.73228-7.1457 8.5772l-1.4291 2.0634-1.2662 1.4244-1.4338 0.95315-1.5827 0.79488-3.8103-1.1102-0.1629-2.3858-0.463-2.0575-2.237 3.6449-2.3776 0.79843-0.7949-0.79843-0.4772-2.6976-0.3177-2.0622-1.4256 2.7012-1.4244 1.9004-0.4807 0.15827c-0.633-9.2256 5.3599-7.2992 10.952-8.4083l0.9555-0.79606 1.1103-3.0201 1.898-2.6953 1.1173-2.8583 1.4339-2.8583 0.7866-3.0106 1.1102-2.863 0.6414-3.3295c2.7012-9.1819-4.1504-17.624-11.592-22.074-11.037-8.0894-14.333-7.9228-15.085-23.336l0.6378 0.15827 0.9472 3.3295z" fill="#fff" fill-rule="evenodd"/><path id="path242" d="m1342 267.52c7.4693 20.414 6.7536 28.083 2.0681 49.535-1.6453 5.2394-0.3531 11.091-5.5594 14.604l-1.7481 1.115-2.0622 0.31772-2.3811 0.31535-1.1102-0.31535-2.3823 1.7445-1.9051 1.5827v0.64252-1.748l-1.5862-0.79607-1.1138 1.9016-1.4256 0.96024h-0.476l0.476-4.448 1.9016-3.1724 1.1138-0.3189 1.5862-0.15827c4.6653-0.77716 10.361-4.2602 12.223-8.7354 4.1374-17.935-0.2587-39.005-1.5862-57.313l0.9519 0.15709 0.4819 0.79488 1.2626 1.748 1.2709 1.5862z" fill="#fff" fill-rule="evenodd"/><polygon id="polygon244" transform="translate(4.1109e-5 5.0165e-7)" points="1372.5 289.27 1372.5 289.43 1369.8 291.34 1367.5 291.02 1366.9 291.02 1368.6 288.32 1370.7 286.89 1371.3 286.42 1372.8 287.37" fill-rule="evenodd"/><path id="path248" d="m1463 323.09c-0.7701 2.5559-3.7216 9.1961-6.9803 9.0472v-1.4303l1.2638-0.94724 0.6378-0.79607 1.5862-2.0622 1.1161-1.9063 1.2697-2.0658 0.6343-2.0634 0.157-1.1138 0.3154 1.5862v1.591 0.16063z" fill-rule="evenodd"/><path id="path250" d="m1443.6 326.74-1.1197 0.62953-1.2685 2.0669-1.2697 2.224-0.4819 2.3823v2.5382l0.4819 1.2673c4.8555 2.9091 6.502 0.13228 13.175 2.5476 11.785 0.0555 6.4725-7.6122 14.448-8.7354 5.9185 1.2295 11.852 2.7012 17.309 5.3976l-3.8102 1.591-2.3859 2.5394-0.4724 0.95551-0.6342 2.3776v1.748l0.3189 0.47598 0.3153 0.63426 3.8102 0.79606 0.476 0.94724 1.1103 0.163h6.5149l2.6977 0.94724c6.013-0.3874 9.5988-5.4012 14.442 0.79606 4.585 4.5425 4.6783 5.002 7.4681 10.798l1.4338 2.0634 1.1056 1.9051 1.1055 1.5862 1.272 1.9063-0.3142 1.1091-0.796 0.9567-1.9087-0.31418-4.4445-1.1197-3.9685-1.1055-3.6484-1.4327-4.1303-0.15708-1.9016 0.15708-2.5429-1.272-2.5382-1.4244-2.5441-1.2673-2.6965-0.95669c-3.7169-1.1398-9.8622-1.3406-13.81-1.4244l-3.0248 0.31417-2.061-0.95197-4.1256-1.4303-4.7646-0.7937-4.6015-0.47834c-8.4886 0.53149-7.0607-0.28819-15.404-3.3295-4.8071-1.526-11.016-1.2449-16.035-1.9051-10.309 0.7748-7.7788-1.9429-17.467-1.4327-5.7024 0.25866-11.309 1.2024-16.985 1.748-13.484-2.85-19.463 2.4449-31.592 3.6532-8.8926 0.24212-4.7552-2.3728-14.928 1.2661-7.4516 2.928-6.163 2.9528-13.657 2.7024-3.4489 0.0461-9.9945 1.2083-13.172 2.5382-8.804 2.7213-2.8878 3.3555-11.432 3.4972l-2.5441 0.79015-2.5335 1.1138-2.5441 0.94961-0.9567 0.47953-1.7433-0.3189c-4.9252-0.58701-10.548 1.5177-14.448 4.2874 2.7815-12.385 10.539-14.652 19.054-20.803 4.9902-3.4654 8.7012-7.0842 13.971-9.841 6.065-5.1165 7.0228-0.67087 13.495-2.2193v3.8102l1.5862 2.5346 0.6331 0.16181h1.4338l2.0623 0.3189 4.4456 1.4244 2.8618-1.4244 2.3776 0.79134 1.4279 0.47598c6.1678-2.3941 4.93-7.3098 12.382-13.337 3.3945-3.841 12.984-6.6472 18.105-6.665 11.972-0.82086 23.413 4e-3 35.245-2.8583 14.506-2.0327 18.135-2.5972 32.391 0l1.7493 0.63425z" fill="#cdcdcd" fill-rule="evenodd"/><path id="path252" d="m1427.2 364.37c3.3047 4.3937 12.33 5.8984 17.298 4.448l-0.7831-1.4327c-8.2724 2.0669-14.733-4.1043-19.853-9.6803 22.661-4.0701 29.988 15.056 33.823 33.34-8.0031 2.2453-12.452-7.0772-17.789-9.2079-7.8697-3.6791-18.841-3.3425-24.924-6.5114l0.1571 0.47717 0.8008 1.2709 2.2158 0.63779 1.748 0.62953 2.6953 1.272 3.3378 0.79134 3.0165 0.95197c6.9791 1.5815 14.192 4.402 18.411 10.479-13.814-2.0835-25.083-0.17363-36.027-10.641-5.4012-5.6906-4.376-5.7366-7.6264-11.742-2.3043-6.124-5.6846-6.4937-7.4669-12.066 7.2472-2.5902 19.58-3.6059 25.564 2.2205l5.4012 4.7634z" fill="#d51810" fill-rule="evenodd"/><path id="path254" d="m1395 360.56c2.765 3.6661 4.0902 8.1874 6.1973 12.229l1.4279 2.5382v0.95315l-0.3142 1.272-1.1138 2.0622-1.4303 0.95551c-13.966 1.1835-24.676-12.984-37.784-13.184l-0.3189 1.272c7.9571 1.2024 18.172 9.5598 25.717 12.699l3.8244 1.1138 3.7937 0.95315 3.8197 0.3189 2.3776-0.79606 2.0622-1.1091 0.4795-0.48071 0.6296-1.7433v-2.0622l5.5594 8.0976c-15.894 7.1528-31.711-3.9354-45.724-10.323l-4.2827-2.3823-2.8582 0.79606-1.2721 1.272v2.7l1.2721 2.6929 2.0622 1.2709 0.9531-0.3189 0.6378-0.78779-2.2287-2.3894-1.1103-1.9004v-0.95315l1.1103-0.31417h2.0669l3.3295 2.3776 3.0248 1.9098 0.9473 1.1055c3.7098 2.6362 5.837 1.4539 10.642 5.7201l-2.3859 0.16182h-2.224l-3.1736-3.8161-3.176-1.1138-0.9484-0.16182-0.3189 0.95788 0.6378 0.16063 1.4256 0.63307 1.9039 1.4303 0.476 1.9098-0.952 0.47598-1.9063 0.78544-2.7-0.15591-1.7433-0.62953c-5.6008-1.141-4.5685-0.55393-9.5267-3.972l-2.067-1.4339-1.4291-1.5815-1.4244-1.748-1.4339-1.748c-2.6917-3.1606-3.7216-7.0689-3.8114-11.113l-2.3811 0.47599-1.4244-0.6378-0.4725-0.31535 0.4725-1.2673 1.4244-1.5874 2.7047-0.47953 3.0166-0.31417c5.5795-2.4331 8.1874-2.2937 14.442-1.4339l3.3378 0.95197 3.9649 1.2756 3.6579 1.2685 3.176 1.5862 3.8079 1.4291 3.4913 1.5898 3.4961 1.2638 1.748-0.15355 0.6331-0.79015-0.6331-1.5898-2.2299-2.5406-2.8535-1.7468-2.8583-1.5921-3.3331-1.428-1.5862-0.79133-0.7961 0.31889-0.796-0.47952-0.7902 1.2697 0.9484 0.47834 1.4339 1.1138 3.4961 1.1102 2.2145 1.7468-5.2346-2.224-4.4492-2.0669-1.4292-0.15827-0.7913-0.79015c7.1622-3.5256 15.464-4.1008 23.018-1.272l2.8535 3.1724z" fill="#fedc00" fill-rule="evenodd"/><path id="path256" d="m1471.2 366.11c4.8224 4.6323 8.3091 13.968 15.715 14.767l2.3823-0.31535 1.4279-1.9051-0.3141-1.5862-0.3201-0.32363-0.952-0.94724c-2.25-0.66024-7.4303-3.8161-9.3697-5.2453 0.8008 5.3894 5.1425 3.3992 8.2559 7.4646l-1.9016 0.15709-2.0669-0.63426-1.2709-0.79488-2.0633-1.7433-1.7445-2.0634-1.904-2.3858-1.5921-1.9004-0.952-1.272 0.952-1.5862 1.115-0.63779 0.157-0.15709h4.6016c5.9126 0.59882 12.555 3.2906 15.086 9.0543 2.9894 5.2488 3.4453 8.9776 3.9685 14.92l-1.1055 2.3811-1.5956 1.4303-0.6343 0.16063-3.8055-0.95669-2.3858-1.7433-0.4725-0.47717v1.5862l1.2673 1.591 0.476 0.62953 0.7949 0.6378 2.5394 1.4291 1.748 0.15708 2.8535-1.1102 1.2721 0.32008v0.63307l-1.2721 2.0622-1.4244 0.95315-0.4795 0.3189c-2.8122 0.82087-7.1161-2.2831-8.2512-4.7634l-0.9578 0.79606 0.1618 0.79016 0.9519 2.0669 1.7481 1.272 1.5874 1.4244 2.224 0.63425 0.7913 0.16181 0.7949 0.31772 2.2205-0.47953 1.9051-0.47244 1.748-0.16181 1.4292 2.5394c-10.204 1.5862-16.481-3.3555-20.01-12.38l-0.7914-1.9098-0.952-2.2205-1.1102-2.5394-0.6342-2.224-1.4292-2.0622-1.1138-2.0634-1.7444-2.0658-2.2241-0.63425-1.5815 0.31417h-0.3236l-0.6378 1.272v1.5862l1.5898 3.4961 1.1149 2.3811-0.1618-3.4913-0.1535-2.8583 0.7878-0.31771 1.4327 0.95197 0.9531 1.748 1.1055 1.7433 0.6425 1.5862c1.7953 5.3504 4.0949 10.573 7.2981 15.243l-1.7445-0.15709-3.8103-0.63425-3.8066-0.47953-3.3378-0.63425-3.3343-1.1102-1.9098-0.47717-2.2158-4.9193v-4.1256l0.3142-0.95787c2.9397 0.44645 5.1968 2.8594 6.1972 5.5594 2.602 2.5512 0.7902 2.8323 6.3496 6.665l-1.1137-2.3776-2.2217-1.4339-0.1606-0.62953-0.6378-1.4291c-0.9272-2.0244-5.8441-8.2807-6.1937-10.326l-2.2193-0.62953-1.5862 0.62953-1.5815 3.6579 0.3094 3.0154v0.63425l2.8583 5.3965-1.2721-0.3189-2.3811-1.5862-0.9484-2.2205-1.5862-2.2252-0.8043-2.3811-0.4677-1.4244-0.7949-4.6063 0.9472-3.815 0.6378-0.79015 1.754-1.2673 1.1055-0.95788v-0.47598h-3.1819l-2.5347 0.95787-0.4807 0.15591-2.8535-4.9205-2.0681-3.815-0.3142-1.1102 1.5862-0.95197 1.748-0.47244 4.4493-0.16181 4.1303 0.63425 4.1208 1.748 3.6579 2.2193z" fill="#fedc00" fill-rule="evenodd"/><path id="path258" d="m1338 367.38 1.5862 0.3189 1.5922 0.3189 0.7901 0.31889c0.5102 5.3894 1.5059 7.422 4.7634 11.747l1.4291 1.5862 1.2721 1.2709 1.5909 1.9063 1.7433 1.4291 1.4292 0.31418 1.1055 0.79134c-7.7362 6.052-17.637 5.7331-26.832 7.3063 2.4531-4.6571 6.0307-5.8902 10.964-7.1457l1.4208 1.748 1.1138-0.79371v-1.4256c-3.5173-3.2705-6.2126-2.5134-10.16-0.4807l-2.8535 2.2205-2.863 2.5429-3.0201 2.5394-1.5815 1.115-3.5008-0.47599c-5.0953-4.9724-9.2846-10.791-13.015-16.831-7.5744-10.887 10.182-3.4276 13.814-3.0201l2.7012 0.63425 2.6929 0.32008h2.7036l2.2204-0.32008 2.067-1.5815 0.6342-2.224 0.1606-0.47598-0.4807-2.0716-1.2708-1.7445-1.7481-0.31417-1.2626 1.1138 0.476 1.4291h1.4244l0.3189 0.3189-0.4712 1.2685-1.1197 0.79015-1.2662 0.15709h-3.3354l-3.3342-0.47126-3.1725-0.95433-3.339-0.6378-1.5897-0.15236c7.3689-3.202 15.102-7.298 23.34-4.7669l2.8618 2.3811z" fill="#d51810" fill-rule="evenodd"/><path id="path260" d="m1434.8 373.74c6.8043 0.90236 8.0634-3.4665 14.285 1.9051l-6.9791-0.63307-5.5595 0.63307-1.4315 0.15827-1.748-0.15827-4.2839-1.1102-3.6496-2.2252-3.3295-2.5382-3.4996-2.8571-1.2638-1.115c4.6098 1.3571 11.684 6.7831 15.715 7.4646l1.7445 0.47598z" fill-rule="evenodd"/><path id="path262" d="m1524.9 389.3 10.637 4.2815 0.476-0.63307c-11.9-5.9197-16.936-6.9839-25.408-19.687 7.1374 0.6626 14.504 3.0744 20.644 6.5114l2.7012 1.4232 2.2157 1.2768 0.7996 1.5862 0.4725 1.7433c1.2248 3.5941 4.9464 9.685 5.0905 13.338-0.8173 14.218-0.072 12.84-12.39 12.858l-3.176-0.15354h-1.748l-1.9051-0.16182-4.7599-0.94842-4.2874-1.7528-3.3295-2.8535-3.1819-3.4913-1.4279-1.9051-6.9839-28.742 2.0622-0.63425 1.9051 0.47598h0.639l2.2193 1.4303 2.224 1.4232 2.2158 1.9098c3.3437 2.9362 8.1626 8.9658 11.757 11.276l2.5382 1.4291z" fill="#d51810" fill-rule="evenodd"/><path id="path264" d="m1305 384.85-0.6331 1.272-0.9531 0.63307h-1.1138l-3.6532-0.47598-2.5358-0.48071-2.8618-0.47244-2.7-0.9567-1.272-0.62952-0.3142 1.5862c8.6126 3.6614 7.2295 4.7043 17.621 4.6063l0.6366 1.4244c-3.5764 3.2835-8.5264 0.96141-12.384-0.63307l-0.3154 1.1091 0.3154 1.4303 1.748 0.47598 1.2662 0.48071 3.1771 0.94724 3.0166 0.6378 3.3378-0.16063 3.1771-1.4244 1.4245 0.94724 0.796 1.272 0.1571 0.6378-2.3776 2.5394-2.0669 1.272-0.7949 0.31417h-5.0834l-2.5335-0.6378c-7.3547-2.7638-8.8807-5.1673-16.515-8.0894l0.952 2.0598 1.4303 1.1091 0.6331 0.16063 1.4326 1.272c3.4241 3.3354 8.452 3.998 12.385 6.5032l-0.3177 1.4339c-10.723 1.0583-14.874-2.139-24.137-4.9252l-2.6964 0.47599-1.7481 0.63779-0.3189 0.48071-1.4244 3.0106 0.3154 2.5441v0.47599l0.7901 1.7445h-4.122l-3.0142-1.7445-0.4807-0.47599-2.2205-4.6063 0.1536-4.1291v-1.1138c1.846-5.2831 10.066-5.3386 13.019-7.4563-5.8914-3.9342-6.4146-1.4634-3.0166-7.1492 2.8335-3.0106 6.5374-2.6799 9.6839-5.2346 7.6476-7.0819 18.676-3.2504 23.18 5.7154l0.9555 1.5862z" fill="#fedc00" fill-rule="evenodd"/><path id="path266" d="m1336.7 379.3 0.476 0.7937 0.3153 0.79134c-15.039-0.37087-14.414 4.8709-29.848-4.2874l0.4807-1.585c7.565 5.4342 17.182 2.1342 25.722 3.3295l2.8536 0.95787z" fill-rule="evenodd"/><path id="path268" d="m1526.6 402 2.3776 0.16181 1.1137-0.95787 0.1536-0.31418-1.5815-1.9051-2.0634-1.591v-0.63779c10.765 2.9728 4.1374 11.316-3.1807 5.2441-5.5547-3.1264-4.1008-5.5087-8.7284-8.7354-3.5078-5.4059-4.5378-2.0764-8.0976-6.1854 9.2339 2.0846 10.743 9.2976 17.94 13.811l2.0669 1.1102z" fill-rule="evenodd"/><path id="path270" d="m1291.2 406.92-0.6425 0.47835-1.4291 1.5815-2.0623 1.1185-2.0598 0.63307c-4.3075-0.61299-10.636-0.81142-13.342-3.6484l0.163-2.387 1.4279-1.1138 0.1536-0.15355 1.9098 0.15355 1.9051 0.63779 6.6686 1.9063 3.3354 0.47953 3.972 0.31417z" fill="#fedc00" fill-rule="evenodd"/><path id="path272" d="m1399.9 445.03c78.077 3.3992 83.7 111.91 6.3461 123.36-82.194 4.4528-94.09-110.64-12.696-123.04l6.3496-0.31535z" fill="#0738ac" fill-rule="evenodd"/><path id="path274" d="m1373.7 490.59-13.329 13.018v13.176l-13.023 13.181h52.554l-13.023-13.181v-13.176l-13.18-13.018zm52.397 0 13.176 13.018v13.176l13.18 13.181h-52.716l13.185-13.181v-13.176l13.175-13.018z" fill="#fff" fill-rule="evenodd"/><polygon id="polygon278" transform="translate(4.1109e-5 5.0165e-7)" points="1386.9 542.98 1386.9 556 1378 564.73 1399.9 569.34 1421.8 564.89 1413.1 556 1413.1 542.98 1399.9 529.8" fill="#fff" fill-rule="evenodd"/><polygon id="polygon286" transform="translate(4.1109e-5 5.0165e-7)" points="1360.2 555.05 1349.6 543.46 1343.7 533.14 1347.2 529.8 1360.2 542.98" fill="#fff" fill-rule="evenodd"/><polygon id="polygon292" transform="translate(4.1109e-5 5.0165e-7)" points="1448 546.79 1439.3 556 1439.3 542.98 1452.5 529.8 1456 533.46" fill="#fff" fill-rule="evenodd"/><polygon id="polygon302" transform="translate(4.1109e-5 5.0165e-7)" points="1373.6 490.43 1426.1 490.43 1413.1 477.25 1413.1 464.24 1399.9 451.06 1386.9 464.24 1386.9 477.25" fill="#fff" fill-rule="evenodd"/><polygon id="polygon304" transform="translate(4.1109e-5 5.0165e-7)" points="1373.6 490.43 1339.9 490.43 1347 474.08 1360.2 459.47 1360.2 477.25" fill="#fff" fill-rule="evenodd"/><polygon id="polygon310" transform="translate(4.1109e-5 5.0165e-7)" points="1426.1 490.43 1439.3 477.25 1439.3 459.31 1452.3 473.44 1459.5 490.43" fill="#fff" fill-rule="evenodd"/><g id="g1703" transform="matrix(2.5313 0 0 2.5313 755.62 14.592)" fill-rule="evenodd"><path id="path1697" d="m158.37 402.16c-0.41787-1.6715-1.6715-11.7-2.5072-16.715-0.83574-5.0144-7.9395-18.386-7.9395-18.386s12.118 10.029 14.625 17.133c2.5072 7.1038 4.5966 14.208 3.7608 20.058-0.83574 5.8502-2.0894 8.7753-2.0894 8.7753l-5.8502-10.865z" fill="#187b01" fill-rule="evenodd" stroke="#1e501f" stroke-opacity=".94118" stroke-width="1pt"/><path id="path1702-1" d="m160.04 406.33s-0.83574-17.551-1.6715-22.147-9.1932-15.461-9.1932-15.461" fill="none" stroke="#1e501f" stroke-opacity=".94118" stroke-width="1pt"/><path id="path1696" d="m176.76 421.8c-1.6715 0-12.536-3.7608-17.968-3.7608-5.4323 0-12.954 8.3574-12.954 8.3574s7.1038-2.0894 12.118-2.0894c5.0144 0 10.029 4.1787 15.043 4.1787 5.0144 0 16.297 0.83574 16.297 0.83574l-12.536-7.5217z" fill="#187b01" fill-rule="evenodd" stroke="#1e501f" stroke-opacity=".94118" stroke-width="1pt"/><path id="path1701-7" d="m147.09 425.56s8.3574-4.5966 12.536-4.5966c4.1787 0 20.894 2.9251 20.894 2.9251" fill="none" stroke="#1e501f" stroke-opacity=".94118" stroke-width="1pt"/><path id="path1695" d="m231.92 446.03s-18.386-17.551-20.058-23.401c-1.6715-5.8502-2.9251-26.744-2.9251-26.744s10.029 12.954 12.118 16.297c2.0894 3.343 7.5217 16.715 10.029 19.64 2.5072 2.9251 10.029 15.879 12.536 17.551 2.5072 1.6715 7.5217 4.1787 7.5217 4.1787l-19.222-7.5217z" fill="#187b01" fill-rule="evenodd" stroke="#1e501f" stroke-opacity=".94118" stroke-width="1pt"/><path id="path1694" d="m215.62 439.76s-35.937 2.5072-40.533 2.0894c-4.5966-0.41787-33.012-10.447-33.012-10.447s23.819 21.729 33.012 22.983 31.758-1.2536 35.519-2.0894c3.7608-0.83574 20.058-3.7608 24.654-2.5072 4.5966 1.2536 17.551 3.7608 17.551 3.7608l-37.19-13.79z" fill="#187b01" fill-rule="evenodd" stroke="#1e501f" stroke-opacity=".94118" stroke-width="1pt"/><path id="path1700-4" d="m241.11 449.37c-1.6715-0.41787-20.476-17.551-23.401-23.401-2.9251-5.8502-7.5217-29.251-7.5217-29.251" fill="none" stroke="#1e501f" stroke-opacity=".94118" stroke-width="1pt"/><path id="path1671-0" d="m345.69 488.49s-20.472-12.283-28.661-15.208-97.098-32.756-101.19-34.511c-4.0945-1.7548-18.465-17.485-21.424-28.148-2.9583-10.663-5.4832-22.741-5.4832-22.741s-0.0365 18.551 3.9557 27.286c3.8714 8.4708 12.355 17.615 13.449 19.803-1.0941 0-29.049-13.87-37.082-21.87-8.0332-7.9995-24.192-31.653-24.192-37.503s-1.4559-38.668-1.4559-38.668l-1.4687 33.989s-9.9438-17.548-10.529-26.907c-0.58493-9.3588-1.7548-18.133 1.1698-22.227 2.9246-4.0945 10.529-10.529 10.529-10.529s-10.533 5.8493-12.288 8.7739c-1.7548 2.9246-2.9204 5.2644-2.9204 5.2644s-3.5096-22.227-2.3397-25.152c1.1698-2.9246 6.4342-2.9246 6.4342-2.9246l-4.3891-1.6833-3.7999 2.2682s-1.7548-9.9438 0-12.283c1.7548-2.3397 5.8493-1.7548 5.8493-1.7548l-5.2644-1.7548s-1.1698-5.2644 1.7548-8.189c2.9246-2.9246 4.0945-5.8493 4.0945-5.8493l-5.2644 2.3397 3.5096-11.114s-6.367 9.3695-6.8046 13.089-0.21882 22.976-0.21882 22.976l-8.3149 0.21881 8.5338 1.7505s0.87525 14.442 1.3129 16.849c0.43763 2.407 1.7505 13.129 1.7505 13.129l-9.6278-9.6278s11.16 15.317 11.816 21.006 0.43763 7.6585 0.43763 7.6585l-14.223-11.816s16.849 16.192 18.38 20.787 4.3763 11.816 4.3763 11.816-6.5644-5.0327-8.7526-6.1268c-2.1881-1.0941-8.5338-2.6258-8.5338-2.6258s9.8466 6.3456 13.566 10.722c3.7198 4.3763 12.035 14.442 15.317 20.787 3.2822 6.3456 12.91 19.037 12.91 19.037s-5.6892-3.2822-11.597-6.1268c-5.908-2.8446-18.162-4.5951-18.162-4.5951s19.037 8.5338 26.695 13.129 28.227 20.35 50.765 28.446c22.538 8.0961 88.182 29.759 96.497 33.479 8.3149 3.7198 40.918 25.164 40.918 25.164l-0.0342-9.8328z" fill="#62310e" fill-rule="evenodd"/><path id="path1699-9" d="m144.17 432.24s23.401 18.386 30.505 19.64 26.744-4.5966 34.265-4.5966 32.594 2.0894 32.594 2.0894" fill="none" stroke="#1e501f" stroke-opacity=".94118" stroke-width="1pt"/><g id="g1676"><path id="path1672-4" d="m184.12 377.45c-1.2378 1.5472-7.4268-5.8796-9.9024-5.5701-2.4756 0.30945-6.189 6.4984-6.189 10.212s3.0945 8.6646 5.5701 8.6646c2.4756 0 7.4268-4.3323 8.9741-3.404s-8.0457 14.544 3.404 14.235 9.9024-3.0945 9.593-5.2606-4.6418-6.4984-3.7134-7.7362 5.8796 3.404 9.9024 3.404 5.5701-1.8567 5.5701-6.189-1.5472-9.2835-4.0228-8.974-8.6646 6.8079-10.521 3.404 4.0228-8.3552 4.0228-12.069-0.92835-7.7363-6.189-7.4268-7.1174 3.7134-7.4268 6.189 2.1662 8.974 0.92835 10.521z" fill="#d5105a" fill-rule="evenodd" stroke="#000" stroke-width="1pt"/><path id="path1674-8" d="m173.91 358.58c-1.0831 1.702 9.593 24.137 12.069 26.613s16.71 15.472 18.258 14.854-12.997-12.687-17.02-18.876-12.223-24.292-13.306-22.59z" fill="#62310e" fill-rule="evenodd"/><path id="path1675-8" d="m171.48 404.08c1.702 1.0831 6.4985-10.831 12.997-17.329 2.4756-2.4756 22.899-20.114 22.28-21.662s-17.639 15.782-23.828 19.805-13.152 18.103-11.45 19.186z" fill="#62310e" fill-rule="evenodd"/><path id="path1673" transform="translate(-.6189)" d="m193.72 382.4a5.5701 5.5701 0 1 1-11.14 0 5.5701 5.5701 0 1 1 11.14 0z" fill="#fedd00" fill-rule="evenodd"/></g><use id="use1681" transform="matrix(-.97748 .21103 -.21103 -.97748 390.95 730.2)" width="744.09448" height="1052.3622" xlink:href="#g1676"/><use id="use1682" transform="matrix(-.92388 .38267 -.38267 -.92388 470.17 622.16)" width="744.09448" height="1052.3622" xlink:href="#g1676"/><path id="path1683-2" d="m125.02 360.74s-10.521-9.2835-15.782-9.593-10.212-0.30945-10.212 1.5472 3.7134 1.5472 3.7134 3.7134-5.5701 0.92835-5.5701 3.0945 7.7363 6.8079 10.521 5.8796 14.544-5.5701 17.329-4.6418z" fill="#d5105a" fill-rule="evenodd" stroke="#000" stroke-width="1pt"/><path id="path1684-4" d="m115.12 337.53s-7.1174-6.4984-9.9024-6.4984-5.5701 1.8567-5.5701 3.7134 3.0945 4.3323 6.189 4.3323 9.2835-1.5472 9.2835-1.5472z" fill="#d5105a" fill-rule="evenodd" stroke="#000" stroke-width="1pt"/><path id="path1685-5" d="m118.21 321.13s-2.785-1.5472-4.9512-1.5472-4.3323 3.0945-6.8079 3.0945-4.6418-2.1662-4.3323-4.0228 2.785-3.404 6.8079-3.404 8.974 3.404 9.2835 5.8796z" fill="#d5105a" fill-rule="evenodd" stroke="#000" stroke-width="1pt"/><path id="path1686-5" d="m137.09 315.56s3.7134-6.189 7.7362-6.4984 5.8796 2.4756 5.8796 4.0228-3.0945 3.7134-5.5701 3.7134-3.7134-1.8567-8.0457-1.2378z" fill="#d5105a" fill-rule="evenodd" stroke="#000" stroke-width="1pt"/><path id="path1687-1" d="m128.11 296.99s3.7134-0.30945 3.7134 2.1662 0.92835 5.2606 2.1662 5.2606 2.7851-1.8567 2.4756-4.3323-0.92836-5.8796-3.404-5.8796-4.0228 1.2378-4.9512 2.785z" fill="#d5105a" fill-rule="evenodd" stroke="#000" stroke-width="1pt"/><path id="path1688-7" d="m117.9 295.14c-1.8567 0.30945-5.8796 2.1662-6.189 4.6418s1.5472 3.404 1.5472 3.404 4.0228-2.785 4.3323-4.6418 0.30945-3.404 0.30945-3.404z" fill="#d5105a" fill-rule="evenodd" stroke="#000" stroke-width="1pt"/><path id="path1689-1" d="m122.23 277.19c-1.2378 0-4.6418 0.92835-6.189 3.0945s-0.6189 4.3323 0.92835 4.6418 0-2.1662 2.4756-3.404 2.785-4.3323 2.785-4.3323z" fill="#d5105a" fill-rule="evenodd" stroke="#000" stroke-width="1pt"/><path id="path1690-1" d="m123.78 284.93s3.404-1.5472 4.6418 0.6189c1.2378 2.1662 2.1662 4.0229 3.7134 3.7134s2.785-4.9512 0.92835-6.8079-5.5701-1.2378-7.1174-1.2378-2.1662 3.7134-2.1662 3.7134z" fill="#d5105a" fill-rule="evenodd" stroke="#000" stroke-width="1pt"/><path id="path1691-5" d="m127.8 259.55s0.92835-4.9512 3.7134-6.189 4.9512 0.30945 4.9512 2.1662-1.2378 4.0228-3.7134 4.0228h-4.9512z" fill="#d5105a" fill-rule="evenodd" stroke="#000" stroke-width="1pt"/><path id="path1692-2" d="m128.42 271c1.8567-0.92835 1.5472-4.3323 3.7134-4.6418s3.0945 1.5472 3.0945 3.0945 0 2.785-2.785 2.4756-4.0228-0.92835-4.0228-0.92835z" fill="#d5105a" fill-rule="evenodd" stroke="#000" stroke-width="1pt"/><path id="path1693-7" d="m124.4 266.67s0-4.3323 1.2378-6.189 5.2606 0 4.3323 1.8567-4.3323 1.8567-5.5701 4.3323z" fill="#d5105a" fill-rule="evenodd" stroke="#000" stroke-width="1pt"/><path id="path1698" d="m321.76 479.88c-2.0894 0.83574-14.625 1.6715-19.222 1.2536-4.5966-0.41787-16.715-4.1787-24.236-3.7608s-20.476 5.8502-20.476 5.8502 7.9395 0.83574 10.865 2.5072c2.9251 1.6715 10.447 3.7608 16.715 4.1787s18.804-4.1787 23.401-4.5966c4.5966-0.41787 20.476-0.41787 20.476-0.41787l-7.5217-5.0144z" fill="#187b01" fill-rule="evenodd" stroke="#1e501f" stroke-opacity=".94118" stroke-width="1pt"/></g><use id="use1732" transform="matrix(-1 0 0 1 2800 -.0001138)" width="744.09448" height="1052.3622" fill-rule="evenodd" xlink:href="#g1703"/><path id="path272-1" d="m1399.9 445.03c78.077 3.3992 83.7 111.91 6.3461 123.36-82.194 4.4528-94.09-110.64-12.696-123.05l6.3496-0.31535z" fill="none" stroke="#000" stroke-width="7"/></svg>
