<?xml version="1.0" encoding="utf-8"?>
<!-- Generator: Adobe Illustrator 26.3.1, SVG Export Plug-In . SVG Version: 6.00 Build 0)  -->
<svg version="1.1" id="Layer_1" xmlns="http://www.w3.org/2000/svg" xmlns:xlink="http://www.w3.org/1999/xlink" x="0px" y="0px"
	 viewBox="0 0 498.5 711.3" style="enable-background:new 0 0 498.5 711.3;" xml:space="preserve">
<style type="text/css">
	.st0{fill-rule:evenodd;clip-rule:evenodd;}
	.st1{fill-rule:evenodd;clip-rule:evenodd;fill:#FFFFFF;}
	.st2{fill-rule:evenodd;clip-rule:evenodd;stroke:#000000;stroke-width:1.08;stroke-linejoin:bevel;stroke-miterlimit:22.9256;}
	.st3{fill-rule:evenodd;clip-rule:evenodd;fill:#EE3524;stroke:#000000;stroke-width:2.8346;stroke-miterlimit:22.9256;}
	.st4{fill-rule:evenodd;clip-rule:evenodd;fill:#EE3524;stroke:#000000;stroke-width:2.2677;stroke-miterlimit:10;}
	.st5{fill-rule:evenodd;clip-rule:evenodd;fill:#EE3524;stroke:#000000;stroke-width:2.2677;stroke-miterlimit:22.9256;}
	.st6{fill-rule:evenodd;clip-rule:evenodd;fill:none;stroke:#000000;stroke-width:2.8346;stroke-miterlimit:22.9256;}
	.st7{fill-rule:evenodd;clip-rule:evenodd;fill:none;stroke:#000000;stroke-width:2.2677;stroke-miterlimit:22.9256;}
	.st8{fill-rule:evenodd;clip-rule:evenodd;fill:#00483A;stroke:#000000;stroke-width:2.2677;stroke-miterlimit:22.9256;}
	.st9{fill-rule:evenodd;clip-rule:evenodd;fill:#00A65E;stroke:#000000;stroke-width:3.685;stroke-miterlimit:22.9256;}
	.st10{fill-rule:evenodd;clip-rule:evenodd;fill:#F99D27;stroke:#000000;stroke-width:3.685;stroke-miterlimit:22.9256;}
	.st11{fill-rule:evenodd;clip-rule:evenodd;fill:#DDE2E7;stroke:#000000;stroke-width:3.685;stroke-miterlimit:10;}
	.st12{fill-rule:evenodd;clip-rule:evenodd;fill:#008CD1;stroke:#000000;stroke-width:3.685;stroke-miterlimit:22.9256;}
	.st13{fill-rule:evenodd;clip-rule:evenodd;fill:#0082C4;stroke:#000000;stroke-width:3.685;stroke-miterlimit:22.9256;}
	.st14{fill-rule:evenodd;clip-rule:evenodd;fill:#0082C4;stroke:#000000;stroke-width:3.685;stroke-miterlimit:22.926;}
	.st15{fill-rule:evenodd;clip-rule:evenodd;fill:#00483A;}
	.st16{fill-rule:evenodd;clip-rule:evenodd;fill:#00AB67;}
	
		.st17{fill-rule:evenodd;clip-rule:evenodd;fill:#E82C2E;stroke:#000000;stroke-width:3.4016;stroke-linejoin:round;stroke-miterlimit:22.926;}
	.st18{fill-rule:evenodd;clip-rule:evenodd;fill:#F99D27;}
	
		.st19{fill-rule:evenodd;clip-rule:evenodd;fill:#FFD38C;stroke:#000000;stroke-width:1.4173;stroke-linecap:round;stroke-linejoin:round;stroke-miterlimit:22.926;}
	.st20{fill-rule:evenodd;clip-rule:evenodd;fill:none;stroke:#000000;stroke-width:4.252;stroke-miterlimit:22.926;}
	.st21{fill-rule:evenodd;clip-rule:evenodd;fill:none;stroke:#000000;stroke-width:3.532;stroke-miterlimit:22.926;}
	.st22{fill-rule:evenodd;clip-rule:evenodd;fill:#D1D3D4;stroke:#000000;stroke-width:2.2677;stroke-miterlimit:22.926;}
	.st23{fill-rule:evenodd;clip-rule:evenodd;fill:#D1D3D4;stroke:#000000;stroke-width:2.2677;stroke-miterlimit:22.9256;}
	.st24{fill-rule:evenodd;clip-rule:evenodd;fill:#00AB67;stroke:#000000;stroke-width:2.2677;stroke-miterlimit:22.926;}
	
		.st25{fill-rule:evenodd;clip-rule:evenodd;fill:#00AB67;stroke:#000000;stroke-width:2.2677;stroke-linecap:round;stroke-linejoin:round;stroke-miterlimit:22.926;}
	
		.st26{fill-rule:evenodd;clip-rule:evenodd;fill:none;stroke:#000000;stroke-width:2.3241;stroke-linecap:round;stroke-linejoin:round;stroke-miterlimit:22.926;}
	
		.st27{fill-rule:evenodd;clip-rule:evenodd;fill:none;stroke:#000000;stroke-width:3.9039;stroke-linecap:round;stroke-linejoin:round;stroke-miterlimit:22.926;}
	.st28{fill-rule:evenodd;clip-rule:evenodd;fill:#FECC91;}
	.st29{fill-rule:evenodd;clip-rule:evenodd;fill:#F3CF1E;}
	.st30{fill-rule:evenodd;clip-rule:evenodd;fill:#F99D27;stroke:#000000;stroke-width:0.735;stroke-miterlimit:22.926;}
	.st31{fill-rule:evenodd;clip-rule:evenodd;fill:#F57E20;}
	.st32{fill-rule:evenodd;clip-rule:evenodd;fill:none;stroke:#000000;stroke-width:1.406;stroke-miterlimit:22.926;}
	.st33{fill-rule:evenodd;clip-rule:evenodd;fill:#D1D3D4;}
	.st34{fill-rule:evenodd;clip-rule:evenodd;fill:#D1D3D4;stroke:#000000;stroke-width:0.216;stroke-miterlimit:22.9256;}
	.st35{fill-rule:evenodd;clip-rule:evenodd;fill:#FFFFFF;stroke:#FFFFFF;stroke-width:0.216;stroke-miterlimit:22.9256;}
	.st36{fill-rule:evenodd;clip-rule:evenodd;fill:#FFFFFF;stroke:#000000;stroke-width:2.8346;stroke-miterlimit:22.9256;}
	
		.st37{fill-rule:evenodd;clip-rule:evenodd;fill:#93393A;stroke:#000000;stroke-width:3.685;stroke-linecap:round;stroke-linejoin:round;stroke-miterlimit:22.9256;}
	.st38{fill-rule:evenodd;clip-rule:evenodd;fill:#00AEEF;}
	.st39{fill-rule:evenodd;clip-rule:evenodd;stroke:#000000;stroke-width:0.216;stroke-miterlimit:22.9256;}
	.st40{fill-rule:evenodd;clip-rule:evenodd;fill:#FFFFFF;stroke:#000000;stroke-width:2.0001;stroke-miterlimit:22.9256;}
	.st41{fill-rule:evenodd;clip-rule:evenodd;fill:none;stroke:#000000;stroke-width:2.0001;stroke-miterlimit:22.9256;}
	.st42{fill-rule:evenodd;clip-rule:evenodd;fill:#00AC5B;stroke:#000000;stroke-width:2.0001;stroke-miterlimit:22.9256;}
</style>
<g>
	<polygon class="st0" points="143.2,232.2 143.7,232.6 144.8,233.1 145.9,233.2 147.1,233.1 148.2,232.9 148.6,232.7 148.9,232.3 
		149.1,231.8 148.9,231.4 148.6,230.7 148,230.1 147.1,229.6 146,229.2 145,229 144.2,229 143.2,229.2 142.3,229.6 141.1,230.3 
		140.2,231.1 139.6,231.8 139.2,232.4 138.9,233.2 138.7,233.9 138.7,234.6 138.7,235.5 139,236.6 139.4,237.5 140.1,238.8 
		141.1,240.4 141.8,241.6 142.4,244.1 142.3,245.4 141.6,246.7 140.8,247.6 139.9,248.3 139.1,248.6 138.3,248.8 137.4,248.8 
		134.2,248.5 132.9,248.7 131.8,249.2 130.8,249.9 130.1,250.9 129.9,251.8 129.9,252.4 130.1,252.8 130.4,253 130.4,253 
		130.4,252.8 130.4,252.2 130.5,251.8 130.7,251.3 131.1,250.9 131.5,250.5 132.1,250.2 132.8,250 133.9,249.8 135.7,250.2 
		137.2,250.6 138.1,250.6 139.4,250.5 140.3,250.3 141.3,249.7 142.5,248.7 143.5,247.6 144,246.8 144.3,245.9 144.6,245 
		144.6,243.9 143.9,241 143.1,239.6 142.5,238.5 141.6,236.9 141.2,236 141.1,235 141.3,234.2 141.6,233.3 142.1,232.7 142.7,232.3 
		143,232.2 143.2,232.2 	"/>
	<polygon class="st0" points="152.9,242 152.5,241.6 152.3,241.1 152,240.4 151.9,239.4 152,238.1 152.3,237.1 152.8,236.5 
		153.4,236.2 153.8,236.4 154.5,236.7 155.1,237.3 155.4,237.8 155.7,238.4 156,239.3 156.1,240.3 156.1,241.1 155.9,242 
		155.5,242.9 155,243.9 154.6,244.5 154,245.1 153.3,245.6 152.7,245.9 151.8,246.3 151.2,246.5 150.3,246.6 149.2,246.5 
		148.3,246.2 147.4,245.8 146.5,245.2 144.6,244 143.1,243.1 141.1,242.7 139.8,242.8 138.5,243.5 137.5,244.2 136.8,245.1 
		136.5,245.9 136.3,246.7 136.2,247.6 136.5,249.7 136.6,250.9 136.2,252.4 135.7,253.5 135.1,254.3 134.1,254.9 133.2,255.1 
		132.6,255.1 132.2,254.9 131.9,254.6 132,254.5 132.1,254.5 132.7,254.6 133.1,254.5 133.7,254.3 134.3,253.8 134.7,253.3 
		134.9,252.7 135.1,252.2 135.1,251.3 134.6,249 134.5,247.9 134.4,246.8 134.6,245.6 134.9,244.6 135.4,243.6 136.3,242.5 
		137.2,241.8 138.3,241.1 139.2,240.8 140.1,240.5 141.2,240.5 144.1,241.3 145.5,242 146.6,242.7 148.2,243.6 149.1,244 150,244.2 
		150.9,244 151.8,243.6 152.4,243.1 152.8,242.5 152.9,242 	"/>
	<path class="st1" d="M146.3,231.2c-0.2,0.2-0.6,0.2-0.8,0c-0.2-0.2-0.2-0.6,0-0.8c0.2-0.2,0.6-0.2,0.8,0
		C146.5,230.6,146.5,230.9,146.3,231.2z"/>
	<path class="st1" d="M154.8,239.8c-0.2,0.2-0.6,0.2-0.8,0c-0.2-0.2-0.2-0.6,0-0.8c0.2-0.2,0.6-0.2,0.8,0
		C155,239.2,155,239.6,154.8,239.8z"/>
	<polygon class="st2" points="154.1,223.2 140.6,209.6 140.3,210 140,210.5 139.7,211.2 139.5,212.1 139.7,212.9 140,213.8 
		140.5,214.6 141.1,215.4 140.7,216.4 140.4,217.4 140.4,218.1 140.5,218.8 140.7,219.6 141,220.4 141.6,221.3 142.2,222.1 
		142.8,222.8 150.6,230.7 153.6,227.5 153.5,227.1 153.3,226.4 153.3,225.7 153.3,225 153.5,224.3 153.8,223.7 154.1,223.2 	"/>
	<polygon class="st2" points="162,231.4 175.4,245 174.7,245.5 174.1,245.8 173.4,246 172.6,246.1 171.8,245.9 171,245.6 
		170.4,245.2 169.6,244.5 168.8,244.8 167.8,245 166.7,245.1 165.4,244.8 164.6,244.5 163.8,244 163,243.4 162.2,242.6 154.4,234.7 
		157.6,231.8 158.4,232 159.2,232.2 160,232.2 160.7,232 161.5,231.7 162,231.4 	"/>
	<path class="st0" d="M159.6,229.3c-1,1-2.6,1-3.6,0c-1-1-1-2.6,0-3.6c1-1,2.6-1,3.6,0C160.6,226.7,160.6,228.3,159.6,229.3z"/>
	<polygon class="st2" points="154.1,228.6 129,255.4 129.6,256 156.7,231.2 156.2,230.8 155.4,230.1 154.6,229.3 154.1,228.6 	"/>
</g>
<path class="st3" d="M416.1,454.3c3.1,12.3-3.8,19.9-7.8,29.1c6.4-0.7,11.3,0.4,14.9,1.3c1.2,0.4,12.6-22.5,8.4-36.3l-5.2-4.6
	L416.1,454.3z"/>
<g>
	<path class="st4" d="M411.7,337.6l-16.4,0.5l-5.4,4.8l-3,9l-5.5-1.7l-0.7-2.7l-5.5-1.1l-1.5,6.3l-3.2,0.9l-3.1,5.1
		c-17,9.4-34.8,19.9-50.8,32.9l-11.8,4l-11.8,12.7l32.3,8.1c23.2,8.3,41.1,6.6,55.8-0.7l24.1,8.6c10.2-4.1,7.5,0.4,5.9-19.8
		l0.4-12.7L411.7,337.6z"/>
	<path class="st5" d="M308.9,368.7l3.8-0.9l4.8-4.1l-8.8,1.6L308.9,368.7L308.9,368.7z M321.2,362.1l5.9-3.5l-6,1.5L321.2,362.1
		L321.2,362.1z M331.5,357.3l1.9-0.8l3.1-1l3.2-3.3l-7.2,0.8L331.5,357.3L331.5,357.3z M346.4,347.8l2.5-0.8l4.9-3.5l-1.9-0.5
		l-2.2-0.1l-3.5,1.4L346.4,347.8L346.4,347.8z M288.6,375.9l-1.3-0.7l3.8-34.9l1.3,1.2l0.5,21l1,10.3c-0.5,1.7-3,2.5-4.5,3.4
		L288.6,375.9L288.6,375.9z M297,372.2l-1.6-12.5l1.6-1.2l4.6-1l0.7-2.5l-1-5.4l3.2-0.2l1,0.4l0.6,1l1-0.1
		c2.5-7.4,1.3-14.5,2.3-21.7l0-4.5l1.9-0.1l1.9,15.2l1,8l2,0.1l2.3,0.1l4.9-0.8l1-1.1l-0.7-5.6l8-0.8l0.6-0.4l0.3-3.1l-0.9-10.2
		l-0.7-12.3l-0.4-10.9l0.9-12.5l2.8-0.2l2.9,31.6l0.4,6.8l1,5.9l0.7,0.8l7.2-0.3l1-0.1l2.1,1.1l0.9-0.1l0.7-2.8l-0.3-1.4l0.2-5.3
		l0.7-0.8l0.1-4.1l0.3-14.3l2-0.1l3.4,16.5l0.9,2.1l-1.1,0.1l2.7,11.3l-0.8,2.1l-1.6,0.8l-2.2,2.2l-0.9-0.9l-8.2,0.5l-1-0.4l-0.6,0
		l-1.5,0.5l-0.7,0.4l-0.2,1.7l1.8,6.5l-1.4,0.4l-1.3-0.6l-11.4,0.3l-1.3,5.6l-7.2,0.9l-1.3-0.7l-1.5,0.4l-0.9,1.2l0,3.5l-11.3,1.6
		l-1,0.8l0.6,5.5l-2.4,1l-1,0.5l-0.9,0.1l-4,1.4L297,372.2z"/>
	<path class="st6" d="M354.1,377.4c-0.5,12.3-1,23.9,0,35.6"/>
	<path class="st6" d="M359.6,368.6c-0.5,9.1-1,17.6,0,26.2"/>
	<path class="st6" d="M341.1,380.6c-0.5,9.1-1,17.6,0,26.2"/>
	<path class="st6" d="M335.3,386.5c-0.5,10.8-1,20.9,0,31.1"/>
	<path class="st6" d="M327.5,395.2c-0.5,5.1-1,9.8,0,14.6"/>
	<polyline class="st7" points="375.8,354 376,375.9 391.1,376.4 392.7,361.2 394,347 406.2,347 405.7,359.7 410.5,361.7 	"/>
	<path class="st6" d="M376.3,372.7c-0.9,15.3,0.1,28.4,0,41.5"/>
	<path class="st6" d="M383.6,358.2c-0.5,6-1,11.7,0,17.4"/>
	<path class="st6" d="M403.9,371.4c-0.5,16.3-1,31.6,0,47"/>
</g>
<path class="st8" d="M80,357c1.7-4.3,4.8-5.8,9.8-5c6.1,0.6,4.7-6.1,18.8-5.4c3.8-0.1,6.7,3.3,10,3.9c3.9,4,7.7,2.1,11.2,0.5
	c2.5-2.1,5.2-2.5,7.4-1c2.8,1.3,4.1,5.6,7.2,5.1c16.2,1.5,14.9-6.8,23.1-15.1c5.1-4.9,10.1-1.3,14.7-0.3c7.9,1.7,8.1-5.7,14.8-1.7
	c6.5,2.7,5.3,9.2,16,12.5c5.4,1.7,12.8-6.4,21.1,6l7.3,43.5l-159.8,1L80,357z"/>
<path class="st7" d="M79.6,372.5c7.4-6.5,12.2-6.9,17.9-5.8c6.3,1.3,13-4.5,19.6-3.4c9,1.1,15.6-11.9,25.6-8.3"/>
<path class="st9" d="M85.4,387.3c6.2,0.5,12.5,2.8,18.9,1.6c6.1-1.2,13.3-2.8,19,0.6c5.4,3.2,10.3,1.8,15.6,2.2
	c2.6,0.2,2.9-2.8,5.4-2c14.1,4.1,30.6,5.9,44.8,6.2c37.9,13.6,38.4,51.2,40.3,73.9c-1.9,8.3-3.8,16.6-5.8,25
	c-7.8-1.4-17-1.6-27.4-0.5c-8.3-5.5-18.2-7.4-31.7-1.4c-11-4.4-23.9-6-41.3-1.4c-10.4,3-22.6,0.8-35.5-3.8
	c-10.2,5.8-20.5,11.5-30.7,17.3c-2.9-13.4-5.8-26.9-8.6-40.3C60.8,438.8,73.1,413.1,85.4,387.3L85.4,387.3z"/>
<g>
	<polygon class="st0" points="85.5,436.8 87.3,482.1 94.4,482.5 87.1,430.7 	"/>
	<polygon class="st0" points="115,482.5 124.7,482.2 90.5,406.8 90.5,414 	"/>
	<polygon class="st0" points="169,483.6 153.4,481.7 90.2,393.7 	"/>
	<polygon class="st0" points="204.9,485.4 192.1,485.6 90.7,392.6 	"/>
	<polygon class="st0" points="226.4,465.8 222.5,474.2 98.8,391.5 	"/>
	<polygon class="st0" points="245.8,457.2 234.4,461.1 103,392 	"/>
	<polygon class="st0" points="269,445.2 257.5,449.1 107.5,389.2 	"/>
	<polygon class="st0" points="279.3,428.5 264.5,436 124.2,389.5 	"/>
</g>
<path class="st10" d="M38,488.6c4.1-1.3,8.4-0.3,12.6-2.9c3.6-2.2,8.4-5.1,12.4-2.9c3.9,2.1,7.3-0.5,11-1.6c1.3,0.4,0.3-2.7,1.5-2.2
	c7.2,2.8,17.4-1.6,25.4,2.7c8,4.4,17.9,2.4,26,0.6c9.6-2.1,12.4,2.4,21.9,0.7c8.5-1.5,21.5,4.4,23.9,1.5c1.2-1.4,6-0.1,9-0.1
	c6.1,0,15.4,5.8,22.9,0.6c24.2-16.8,51,20.1,80.3,22.2c4.8-0.5,10.9-23.7,17.6-15.9c7.5-5.3,18.9-3.8,28.3-7.2
	c3.4,0.3,6.7,0.6,10.1,1c2.7,0.8,5.4,1.6,8.2,2.4h9.1c6.6,0.6,13.1,1.3,19.7,1.9c3.7-0.3,7.4-0.6,11-1c3.5-1.1,7-2.2,10.6-3.4
	c5.6-1.1,7.1,0.5,12.7-0.6c13.9,1,26.9,8,47.8,1.6c-3.2,15.2-10.1,41.9-13.3,57.1c-12.5,1.6-19.9-1.9-32.4-0.3l-32.4,10.6
	c-7,0-18.5-2.1-27.5-0.4c-6.5-2.3-10.2-2.7-18.7-1.1c-8.1,1.9-19.6-1.4-24-2.9c-9.6,2.1-13.1,0.5-22.5-2.7l-41.8-48.4l-21.1,59.3
	c-13.6-0.6-27-8-35.5-3.5c-12.2,0.5-29.9-0.4-42,0.1c-13.6,2.6-62.7,0.1-76.3,2.6c-20.5-7-19.8-13.6-27.8-25.7
	C42.5,516.8,40.3,502.7,38,488.6z"/>
<path class="st11" d="M57.2,557.2c8.2-0.8,16.5,0.3,24.9-2.1c7.9-2.3,16.8-5.5,25-2.9c7.1,2.3,13.7,0,20.6-0.5
	c1.7-0.1,1-3.5,2.6-3.1c9,2.1,20.4,1.3,29.4,0.5c3.2-0.3,6.3-0.6,9.5-0.9c7.2-0.7,14.3-1.4,21.4-2.2c19.3-2.1,38.9,1.9,58.2,0
	c4-0.4,7.7-6.9,11.7-7.3c12.4,0.4,22.8,8.4,35.2,8.8c5.4,0.2,10.6,1.8,16.1,1.9c11.9,0.3,20,3.2,32.1,3.4c3.1,0,7.5,0.5,10.7,0.6
	c4.8,0.1,17.6,13.6,15.9-2.5c-0.3-2.3,15.6,4.8,18.1,4.9c2.7,0.2-0.8-6.6,1.9-6.4c21.9,1.9,40.5-5.4,61.2-4.8
	c-16.6,63.4-136.3,77.5-201.2,128.3C202.7,625.7,84.9,621.7,57.2,557.2z"/>
<path class="st12" d="M282,562.2c-3.7-1.1-6.9-2-9.3-1c-2.8,1.2-4.7,4.1-6.8,2c-1-1-2.5,0.3-3.4,0.4c-1.1,0.1-4.6,0.3-5.7-2.3
	c-2.1-5.3-8.5,3.8-22.1,4.6c-8.8-0.1-13.2-5.7-26.5-1.5c-6.4,2-19.9,2.1-29.4,3.3c-12.2-0.2-24.4-0.5-36.6-0.7
	c-10.7,2.5-20,3.5-28.4,3.3c-8.4-0.1-15.8-1.4-22.6-3.3c0.6-2.8,1.3-5.7,1.9-8.5c17.2-0.2,32.3-0.6,44.3,0
	c15.8-0.1,37.8-12.9,48.2-7.1c7.9,4.4,19.4-3.8,28.9-4.7c9,0.7,18,1.5,27,2.2c16.7-1,12.7-10.4,54.3-1.6c20.2,4.3,34.1,3.9,49.3,0.6
	c4.5-1,17.9-2.5,18.1-1.2c3.8,5.2,39,0,64.3,0c-3.9,1.2-7.7,2.5-11.6,3.7c-10.6,4.6-21.2,9.1-31.8,13.7c-15.3,0.8-26.7-3.2-45.7-4.2
	c-8.6-0.4-22.3,1.9-32.5,1.9C298.5,561.7,340,554.4,282,562.2z"/>
<path class="st13" d="M162,619.6c11.6,4.3,22.9,10.7,33.8,14c11.3,3.5,23,7.4,31.8,15.2c8.1,7.2,15.4,10,23,14.9
	c3.2-2.1,3.7-7.3,7-8.8c16.9-7.9,35.7-16.6,51.5-23.3c-3.4-1.3-8.8-10.4-10.1-3.5c-2,10.2-19.1-5-26.9-4.2
	c-9.1,3.3-18.1,2.1-27.2-3.6c-12.4-3.6-41.5-4.5-44.6,3.2c-10.2-5.9-9.6,0.5-16.8-1.8L162,619.6z"/>
<path class="st14" d="M265.7,589.1c9-0.5,15.5,2.2,20.5,1.5c4.9-0.6,9.3-0.7,11.5,1.8c2.8,3.1,4.8,1,7.5-0.4c0.5-0.2-1.2-3.4-0.8-3
	c3.1,3.1,10.2,7.3,16.1,6.8c-1.3-2.8,5.1-3.8,6.9-3c4.7,2.2,16.4,9.3,16,4.9c-0.2-2.8,8.3-4.6,17-1.4c5.2,1.9,20.8,6.5,17.3,3
	c-7.2-7.3,11.7-0.1,15.9-0.4L366.4,615c-36.9-10-33.5,2.3-41.6-3.8c-1.9-1.4-5.8-0.1-9.6,0.2c5.1-13.7-10.6,2.5-12.9,0.2
	c-6.1-6.2-21.8-4.8-36-4.4c-14.9,0.5-36.7,1.9-53.3,5.7c-1.7,0.4-4,4.7-5.6,5.1c-3.1,0.7-5.6-7.6-8.3,1.7c-0.6,1.9-5.1-1.6-7.4-3
	c-19.2-11.6-7.5,0.5-11.2,0.6c-2.2,0-6.8-2.2-9-2.2c-7.3,0-13,3.4-19.8,2c-10.9-2.3-16.8,1.2-24.5,1.4
	c-11.9-4.5-29.9-12.2-36.5-18.8c7.4-0.5,21.7-11.1,27.5-2.9c2.5,3.6,6.7,0.9,10.7,1.9c2.6,0.7,6.3-0.5,7.8,1.1
	c4.1,4,8.1-1.8,13.7-2.3c9.3,7.1,4.5-7.6,13.7-0.2c3.6,2.7,7.9,2.1,9.9-0.9c7.3-0.6-20.7-12.1,21.8-1.9c2.2-3.2,12,4.8,10.1,1
	c-4.7-9.4,18.2-4.2,25.2-4.3C242.6,590.5,254.1,589.8,265.7,589.1z"/>
<path class="st14" d="M271.4,572.4c-2.4,0-4.8-0.7-6.7,0.2c-2.3,1.1-4,3.4-6.3,0.7c-1-1.2-2.9-0.7-4.2-0.9c-0.9-0.1-4.3-0.2-5.4-2.9
	c-2-5.3-10.7,4.1-14.7,2.9c-3.9-1.2-10.8,0-15.5,0H211c-24.7-8.5-8.9,3.8-12,3.8l-12.7-6.2c-3.2,0-5.5,4.6-9.3,4.6h-2.7h-5
	c-7.3-10.1-7.9,9.4-13.9,0h-1.5c-13.6-4.5-9.6,3.3-15.5,0c-1.9-2.2-3.8,2.2-7.7,0l-3,1.6l-3.4-1.9c-4.3-2.7-7.6,2.4-10.6,2.4H109
	h-6.2h-3.1h-1.5h-1.5h-1.5h-9.3l-1.5,0.7h-3.1H65.7h-1.5h-1.5h-6.2l-1.5,0.7v1.4H61c0,0.7,1.5,0.7,3.1,0.7h3.1h3.1h3.1
	c-9.7,0,20.5,9.5,35.3,9.5c3.1-4,17.2,1.3,18.8,1.3h6.2c1.5,0,6.5-2.6,9.5-2.6l11.8,1.3h19.5c3.1,0,5.7,4,7.3,4
	c2.3,0.8,4,0.8,5.1,0.5c3-0.8,3.1-3.9,4.2-3.8c8.1-10.5,19.1-6.7,30.7-2.5l3.1-1.3h3.1h17c1.5,0,13.9,0.1,15.5,0
	c6.2-0.6,7.4-1.3,10.4-1.4c34.4-2.1,54.2,4.3,88.3,2.1c47.6-3.2,33.2,4,77.9,1.8l1.4-10.6c-6.4-0.8-16.9-7.3-20.9-4
	c-12.8,10.8-26-5.6-39.7-5.8c-3.6,0-11.8,11.5-11.2,5c0.1-1.2-5.3,0.1-7.9,0.2c-7.8,0.4-16-4.8-22.6-0.2c-3.9,2.8-10.2,3-18,2.3
	C305.3,575.2,288.3,571.4,271.4,572.4z"/>
<polygon class="st15" points="366.8,214.7 341.5,250.4 332.7,250.2 331.1,251.9 389.9,291.5 412.1,260.7 412.1,242.1 "/>
<path class="st0" d="M236.7,375.1c-4.7-5.6-5.3-11.7-4.9-17.6c-4.5-3.5-4.8-5.9,0.2-7.9c0.6-3.2,0.2-5.5,2.2-8.2
	c0.7-3.9,3.8-6.2,7.9-9.3c6.8-2.7,13.8-1.7,20.3,0c4.3,1.7,7.6,5.6,10.1,11.3c0.4,2.4,0.7,5.5,0.1,8.1c3,0.7,2.2,5.2-1.5,6.3
	c0.3,5.9-0.9,14.7-6,17.7L236.7,375.1z"/>
<path class="st16" d="M123.9,316.4v-15.1l1.9-5.4v-18.5c-6.7,1.2-13.9,0.3-21.6-2.7l-9.3,8.5l0.8,4.3c5.7,5.3,11.4,9.9,18.2,13.1
	l8.5,15.6L123.9,316.4z"/>
<path class="st17" d="M338.4,107.4c-1.6-3.1-3.1-6.3-4.6-9.4c7.7-5.1,1.7-11.1,9.1-15.5C356.8,72,357,69.2,359.6,63.8
	c-20.7,9.5-15.4,15.9-34.5,23.7c-2-1.8-3.9-5.2-5.8-7c2.6-7,5.2-14.2,7.9-21.3c-5.5,9.7-11.6,4-17.4,15.4c-2.5-1.7-5-3.4-7.4-5
	c4-5.6,5.9-9.4,4.5-16.7c1.2-13.2,9.1-10.5,7.4-23.4c-4.1,11-9.5,9.6-13.3,15.7c-3.1,5.2,1.3,8.6-8.6,18.6c-2.4-0.6-6.1-1.4-8.4-2.1
	c-5.6-7.7-4.4-17,0.8-25.5c-16.5,8.5-10.5,14.2-14,23.8c-2.5-0.5-5-1-7.5-1.7c-0.8-6.1-3.6-12.4-4.3-18.3
	c-0.9-7.9,3.3-13.4-1.5-23.8c0.7,12.5-4.6,12-5.9,19.1c-1.3,6.9,3.5,10.1-2.4,22.2h-7.4c-9.4-5.1-2.6-13.6-10.8-25.1
	c4.2,11.6-6.1,19.3-2.1,26.3c-2.8,0.7-5.6,1.5-8.3,2.1c-3.7-10.6-10.2-8.8-11.4-15.4c-1.6-8.7-1.6-13.6-8.1-17.6
	c-0.6,31,3.6,15.8,8.7,37.5c-2.8,1.3-3.5,2.5-6.2,3.8c-12.5-4.5-12.2-16.7-19.2-17.1c8.1,13.8-3.6,11,8.3,23.3
	c-2.5,1.8-4.6,3.6-7,5.3c-19.2-6.6-18.9-23.9-29.8-24c6.8,8.1,3.8,12.6,6.7,17.6c3.8,6.7,8.8,2.8,13.1,16.1c-2.6,2-3.6,4.7-6.2,6.6
	c-4.7-8.2-10.1-3.3-17.3-6.9c1.3,5.8,8.4,6.6,8.5,17.1H177v16.3h144.1v-16L338.4,107.4z"/>
<path class="st18" d="M249.2,696.7c66.4-55.3,127.3-56.5,188.7-112.3c27.6-22.7,41.4-64.3,47.2-116.6c-41.6-9.3-51.1-30.7-51-68.5
	V216.4l19.5,0.1V109.2H320.3v15.7H177.1v-15.7H43.7v107.4l19.5-0.1v182.9c0.1,37.7-9.3,59.1-51,68.5c5.8,52.3,19.6,93.8,47.2,116.6
	C120.9,640.2,182.8,641.4,249.2,696.7L249.2,696.7z M249.2,668c-61.3-50.1-116.8-44.7-171.7-95.6C53.2,551,39.6,517,37.3,482.7
	c29.9-12.8,47.9-37.2,47.6-67.6V196.9L65.4,197v-64.6h91.4v20.3h183.7v-20.3h91.4V197l-19.5-0.1v218.2
	c-0.3,30.4,17.7,54.8,47.6,67.6c-2.3,34.3-15.9,68.3-40.2,89.6C364.9,623.3,310.5,617.8,249.2,668z"/>
<path class="st1" d="M351.5,471.5l0.3-0.9L351.5,471.5z"/>
<path class="st19" d="M129.5,349.9c-4.1-1.3-4.7,1.2-9-2.7l-2.1-1l-2.5-2.2l-3.2-2.5l-1.3-1.3l-0.3-0.6l-4.3-4.2l-2.1-3.1
	c-0.5-1.5-0.3-2.4,0.2-3.1l6.5,5.8l1.6,1.5l1.5,0.4h1.1l-7-6.3l-1.5-1l-2.9-3l-0.3-1.9l0.6-0.6l9.2,6.9l3.8,3.4l0.5-0.5l0.5-0.5
	l-13.8-11.2l0.1-1.6l0.5-2.5l2.5,1.6l3.5,3l3.7,3.1l4.9,3.9l1.1,0.5l0.3-0.8l-5.4-4.4l-2.5-2.2l-6.6-5.6l2.5-1l3.8,1.9l13.5,11.5
	l0.3-0.7l-6.3-5.5l2.3-1.6l2.5,0.7l3.3,2.7l4.4,4.7l0.8,2.1l0.2,1.3l0.7,2.7l0.5,1.6c1.3,1.2,0.8,1.3,2.5,2.1
	c-2.5,4.1-5.6,7.2-7.5,10.8L129.5,349.9z"/>
<polygon class="st0" points="346.8,321.1 341.4,321.2 340.8,322.3 339.2,320.9 339.8,320.3 340.6,319 341.2,318.4 342.9,319.1 
	345.8,318.4 346.4,317.9 348,318.9 348.4,319.4 348,321 "/>
<path class="st0" d="M321.4,322.5l-7.7,0.6l-1.3,0.1l0.4-1.8c3.8-2.6,8-0.8,11.9-1.8l2.5,0.7l0.1,1l-0.5,1L321.4,322.5z"/>
<path class="st0" d="M359.4,308l-1.2-1.4l-0.9,0.7l-1.6-0.1l2.6-4.2l1.9,0.7v0.5l1.4,0.3l2.8,0.7l3.1-1.1l3.8,0.4l0.9-0.1l1.7-0.6
	c3-2.6,5.9,0.3,9.1-0.2l1.4-0.3l1.3,1.2l-1.1,1.5H381c-4.5-2.1-9.1,2.9-13.6,0.8l-1.5,0.7l-1.7,0.3l-2.3-0.3L359.4,308z"/>
<path class="st0" d="M336.8,292.5l-0.3-0.5l-0.2-1.8l0.3-2.9l1.2,0.3l1.2,0.1l0.5,1.3l1.4-0.6h0.7l0.8,0.7h0.9l1.3-1.4l1.2-0.1
	l2.6,0.1l0.5-0.1h1.6l4.3,0.4c3.1,1.9,6-2,9-1.3l2.8,1.3l0.9-0.3h0.8l2.1-0.1l2.3,1.4l0.9-0.3c2.4-2.3,4.9-0.6,7.3-1.1l1.2,1.4
	l-0.5,1.3c-3.9-0.6-7.8,1.5-11.7,0.1l-3.1,0.6h-2.4l-1-1.1l-1.9-0.3l-0.7,0.3c-2.3,2.9-4.7,0.4-7,0.3l-2.7-0.6l-0.7,0.6l-1,0.1h-3.8
	l-2,1.7l-0.3,0.5l-2.4-0.8l-1.2,0.5h-1.4l-0.1-0.6l-0.9,1.3L336.8,292.5z"/>
<path class="st0" d="M321.5,93.7L321.5,93.7l-2.4,3.8l-1.8-2.1L321.5,93.7L321.5,93.7z M311.8,95.2l1.5,1.8l2.2-0.8l2.6,3l-1.3,1.9
	l1.6,1.9l5.8-9.9l-1.7-2L311.8,95.2L311.8,95.2z M309.3,93.2l1.7,1.5l7.2-8l-1.7-1.5L309.3,93.2L309.3,93.2z M304.4,82.2
	c0.5-0.7,1.1-1.2,1.7-1.6c0.6-0.4,1.2-0.7,1.8-0.8c0.6-0.1,1.3-0.1,1.9,0.1c0.6,0.2,1.2,0.5,1.8,0.9c0.7,0.5,1.2,1.1,1.6,1.8
	c0.3,0.7,0.5,1.4,0.5,2.1c0,0.7-0.2,1.4-0.6,2l-1.8-1.4c0.5-1.2,0.3-2.1-0.7-2.9c-0.7-0.5-1.5-0.7-2.3-0.4c-0.8,0.3-1.6,0.9-2.3,1.8
	c0,0,0,0.1,0,0.1c-0.4,0.5-0.6,1-0.8,1.6c-0.2,0.5-0.2,1.1-0.1,1.6c0.1,0.5,0.4,0.9,0.8,1.2c1.1,0.8,2.1,0.8,3.2-0.1l1.8,1.4
	c-0.6,0.5-1.2,0.9-1.9,1.2c-0.7,0.2-1.4,0.3-2.1,0.2c-0.7-0.1-1.4-0.4-2.1-0.9c-0.8-0.6-1.3-1.3-1.7-2c-0.4-0.8-0.5-1.6-0.3-2.6
	c0.2-0.9,0.6-1.9,1.3-2.9C304.2,82.4,304.3,82.3,304.4,82.2L304.4,82.2z M298.1,84.8l1.9,1.2l5.9-9l-1.9-1.2L298.1,84.8L298.1,84.8z
	 M292.5,81.7l4.2-7.8l-2.9-1.5l0.9-1.7l7.7,4.1l-0.9,1.7l-2.9-1.5l-4.2,7.8L292.5,81.7L292.5,81.7z M282.3,73.9
	c-0.7,2.3,0.3,3.9,3.2,5c0.3,0.1,0.6,0.2,1.1,0.3c0.4,0.1,0.9,0.1,1.4,0c0.5-0.1,1-0.3,1.5-0.6c0.5-0.3,0.8-0.9,1.1-1.6
	c0.2-0.6,0.3-1.1,0.2-1.5c-0.1-0.4-0.3-0.8-0.6-1.2c-0.3-0.4-0.8-0.8-1.5-1.2c-0.2-0.1-0.5-0.3-0.9-0.6c-0.4-0.3-0.8-0.6-1.3-0.9
	c-0.5-0.4-0.6-0.8-0.4-1.3c0.2-0.4,0.5-0.6,0.8-0.7c0.4-0.1,0.8,0,1.3,0.2c1.3,0.5,1.8,1.2,1.6,2.3l2,0.7c0.1-0.4,0.2-0.8,0.2-1.2
	c0-0.4-0.1-0.9-0.3-1.3c-0.2-0.4-0.5-0.8-0.9-1.2c-0.4-0.4-1-0.7-1.8-1c-0.8-0.3-1.5-0.4-2.2-0.4c-0.7,0-1.2,0.2-1.7,0.6
	c-0.5,0.4-0.8,0.8-1.1,1.5c-0.2,0.7-0.3,1.3-0.2,1.8c0.1,0.5,0.4,1,0.8,1.3c0.4,0.4,0.9,0.8,1.5,1.1c0.2,0.1,0.5,0.3,0.9,0.6
	c0.5,0.3,0.8,0.5,1,0.7c0.2,0.1,0.3,0.3,0.4,0.5c0.1,0.2,0.1,0.5,0,0.8c-0.3,0.8-1.2,1-2.7,0.4c-0.4-0.1-0.7-0.3-0.9-0.5
	c-0.3-0.2-0.4-0.5-0.5-0.8c-0.1-0.3-0.1-0.7,0-1L282.3,73.9L282.3,73.9z M272.5,70.7l2-6.9l2.2,0.6l-1.9,6.7
	c-0.1,0.5-0.2,0.9-0.1,1.3c0.1,0.4,0.3,0.7,0.5,0.9c0.2,0.2,0.5,0.4,0.8,0.4c1.4,0.4,2.3-0.1,2.6-1.4l2-6.8l2.2,0.6l-2,6.8
	c-0.2,0.7-0.5,1.3-0.9,1.7c-0.4,0.4-0.8,0.7-1.3,0.9c-0.5,0.2-1,0.3-1.5,0.2c-0.5,0-1.1-0.1-1.7-0.3c-0.7-0.2-1.4-0.5-1.9-1
	c-0.6-0.4-0.9-1-1.2-1.6C272.2,72.4,272.2,71.6,272.5,70.7L272.5,70.7z M263.8,68.8l2.1,0.4c-0.1,0.6-0.2,1-0.2,1.4
	c0,0.3,0,0.6,0.2,0.9c0.1,0.2,0.4,0.4,0.7,0.5c0.4,0.1,0.7,0.1,0.9,0c0.2-0.1,0.4-0.2,0.5-0.4c0.1-0.2,0.2-0.5,0.3-0.9l1.4-7.5
	l2.2,0.4l-1.5,7.7c-0.1,0.6-0.3,1.1-0.6,1.5c-0.3,0.4-0.7,0.8-1.3,1c-0.5,0.2-1.2,0.2-2,0.1c-0.6-0.1-1.2-0.3-1.6-0.5
	c-0.4-0.2-0.7-0.5-1-0.9c-0.2-0.4-0.3-0.8-0.4-1.3c0-0.5,0-1.1,0.2-1.9L263.8,68.8L263.8,68.8z M252.5,72.3l0.1-4.1l-3.5-6.8
	l2.6,0.1l2.1,4.8l2.3-4.6l2.6,0.1l-3.8,6.6l-0.1,4L252.5,72.3L252.5,72.3z M235,67.9c0.1,1.2,0.5,2.1,1,2.8c0.5,0.7,1.3,1,2.4,0.9
	c0.7-0.1,1.2-0.3,1.6-0.7c0.4-0.4,0.7-0.9,0.8-1.5c0.1-0.6,0.2-1.1,0.1-1.7c-0.1-1-0.4-1.8-0.8-2.6c-0.5-0.8-1.3-1.1-2.5-1
	c-0.4,0-0.9,0.2-1.3,0.5c-0.4,0.3-0.7,0.7-1,1.2C235,66.4,234.9,67.1,235,67.9L235,67.9z M232.9,68.9l0-0.4c-0.1-1.1,0-2.2,0.2-3.1
	c0.3-0.9,0.8-1.6,1.5-2.2c0.7-0.6,1.7-0.9,2.9-1.1c0.7-0.1,1.3,0,1.9,0.1c0.6,0.1,1.2,0.4,1.7,0.8c0.5,0.4,1,1,1.3,1.7
	c0.4,0.7,0.6,1.6,0.7,2.5c0.1,0.9,0.1,1.7-0.1,2.4c-0.2,0.7-0.5,1.3-0.9,1.9c-0.4,0.5-0.9,1-1.5,1.3c-0.6,0.3-1.3,0.5-2.1,0.6
	c-1,0.1-2,0-2.8-0.4c-0.8-0.4-1.5-0.9-2-1.7C233.3,70.7,233,69.9,232.9,68.9L232.9,68.9z M224.3,71.9l0.1,0.3
	c0.2,0.7,0.4,1.3,0.6,1.8c0.2,0.5,0.5,0.8,0.9,1c0.3,0.2,0.8,0.4,1.2,0.4c0.5,0,1,0,1.7-0.2c0.8-0.2,1.4-0.5,1.8-0.9
	c0.4-0.4,0.7-0.9,0.8-1.4c0.1-0.5,0.1-1.1-0.1-1.7l-1.8-7.6l-2.2,0.5l1.7,7.4c0.1,0.4,0.1,0.7,0.1,0.9c0,0.2-0.1,0.4-0.3,0.6
	c-0.2,0.2-0.4,0.3-0.8,0.4c-0.4,0.1-0.6,0-0.9-0.1c-0.2-0.2-0.4-0.4-0.5-0.7c-0.1-0.3-0.3-0.8-0.4-1.3L224.3,71.9L224.3,71.9z
	 M217.8,69.5l0,4.5l2.6-0.8L217.8,69.5L217.8,69.5L217.8,69.5z M215.4,79l0.5-11.4l2.5-0.8l6.8,9.2l-2.4,0.7l-1.3-1.9l-3.8,1.2
	l-0.1,2.3L215.4,79L215.4,79z M207.9,80.8l-1.4-2.6l2.6-1.4c0.4-0.2,0.7-0.3,1.1-0.2c0.4,0,0.7,0.3,0.9,0.7c0.2,0.5,0.3,0.9,0.1,1.2
	c-0.2,0.3-0.4,0.6-0.8,0.8L207.9,80.8L207.9,80.8z M204.6,74.6l1.1,2.1l2.4-1.3c0.4-0.2,0.7-0.5,0.8-0.8c0.1-0.3,0.1-0.6-0.1-0.9
	c-0.2-0.3-0.4-0.5-0.7-0.6c-0.3-0.1-0.7,0-1.3,0.3L204.6,74.6L204.6,74.6z M211.2,81.2c0.5-0.3,1-0.6,1.4-0.9
	c0.4-0.3,0.6-0.7,0.8-1.1c0.2-0.4,0.3-0.8,0.3-1.2c0-0.4-0.1-0.9-0.3-1.4c-0.3-0.6-0.7-1-1.2-1.3c-0.5-0.3-1-0.4-1.6-0.3
	c0.6-0.7,0.6-1.6,0-2.7c-0.3-0.4-0.6-0.7-1-1c-0.4-0.2-0.9-0.3-1.4-0.3c-0.5,0-1.1,0.2-1.7,0.5l-4.7,2.5l5.1,9.5L211.2,81.2
	L211.2,81.2z M196.8,79.9L196.8,79.9l3.6,2.7l-2.2,1.6L196.8,79.9L196.8,79.9z M197.5,89.7l-3.1-11l2.1-1.5l9.3,6.6l-2,1.4l-1.8-1.4
	l-3.3,2.3l0.6,2.3L197.5,89.7L197.5,89.7z M187.8,89.9l2.1-1.9c0.4-0.4,0.7-0.8,0.7-1.1c0-0.4-0.2-0.7-0.5-1.1
	c-0.3-0.3-0.6-0.4-0.9-0.5c-0.4,0-0.7,0.1-1.1,0.5l-2.1,1.9L187.8,89.9L187.8,89.9z M190.2,95.9l1.6-1.5l-2.8-3.1l1.8-1.6
	c0.4-0.3,0.7-0.5,0.9-0.6c0.3-0.1,0.5,0,0.7,0.1c0.2,0.1,0.4,0.3,0.7,0.6c0.2,0.2,0.4,0.5,0.7,0.7c0.2,0.2,0.5,0.5,0.7,0.7
	c0.2,0.2,0.4,0.3,0.7,0.5l1.9-1.7l-0.2-0.2c-0.2,0.1-0.4,0.1-0.6-0.1c-0.2-0.1-0.5-0.4-0.8-0.7c-0.1-0.1-0.2-0.2-0.3-0.4l-0.3-0.3
	c-0.4-0.5-0.8-0.8-1.2-1c-0.4-0.2-0.9-0.1-1.4,0.1c0.2-0.3,0.3-0.7,0.3-1c0-0.4,0-0.7-0.2-1.1c-0.1-0.3-0.3-0.7-0.6-1
	c-0.4-0.4-0.8-0.7-1.3-0.8c-0.5-0.2-1-0.2-1.6-0.1c-0.6,0.1-1.1,0.4-1.7,0.9l-4.1,3.7L190.2,95.9L190.2,95.9z M185.7,100.6l-6.7-5.8
	l-2.1,2.4l-1.4-1.3l5.7-6.6l1.4,1.2l-2.1,2.5l6.7,5.8L185.7,100.6z"/>
<path class="st0" d="M270.2,114.1v-11.4h2.4v9.4h5.7v2.1H270.2L270.2,114.1z M263.6,105.3l-1.4,4.6h2.9L263.6,105.3L263.6,105.3
	L263.6,105.3z M258.2,114.1l4.1-11.4h2.8l4,11.4h-2.6l-0.7-2.4h-4.2l-0.8,2.4H258.2L258.2,114.1z M255,102.7h2.4v11.4H255V102.7
	L255,102.7z M255,114.1 M243.6,108.2c0-0.9,0.2-1.7,0.4-2.4c0.3-0.7,0.6-1.3,1.1-1.8c0.5-0.5,1-0.9,1.6-1.1c0.6-0.3,1.4-0.4,2.1-0.4
	c0.9,0,1.7,0.2,2.5,0.5c0.7,0.4,1.3,0.8,1.7,1.5c0.4,0.6,0.7,1.3,0.7,2.1h-2.4c-0.3-1.3-1.1-2-2.4-2c-1,0-1.7,0.4-2.2,1.1
	c-0.5,0.7-0.8,1.7-0.8,3c0,0,0,0.1,0,0.1c0,0.7,0.1,1.3,0.3,1.8c0.2,0.6,0.5,1,0.9,1.4c0.4,0.3,0.9,0.5,1.5,0.5
	c1.4,0,2.3-0.7,2.6-2.2h2.4c-0.2,0.8-0.4,1.5-0.9,2.2c-0.4,0.6-1,1.1-1.6,1.5c-0.7,0.4-1.5,0.6-2.4,0.6c-1,0-1.9-0.2-2.7-0.7
	c-0.8-0.4-1.4-1.1-1.9-2c-0.5-0.9-0.7-2-0.7-3.3C243.6,108.4,243.6,108.3,243.6,108.2L243.6,108.2z M234,108.1
	c0,1.2,0.2,2.3,0.7,3.1c0.5,0.8,1.3,1.2,2.4,1.2c0.7,0,1.3-0.2,1.8-0.6c0.5-0.4,0.8-0.9,1-1.5c0.2-0.6,0.3-1.2,0.3-1.8
	c0-1-0.2-2-0.6-2.9c-0.4-0.9-1.3-1.3-2.6-1.3c-0.5,0-0.9,0.1-1.4,0.4c-0.4,0.2-0.8,0.6-1.1,1.2C234.2,106.5,234.1,107.3,234,108.1
	L234,108.1z M231.7,109v-0.4c0-1.2,0.2-2.3,0.6-3.2c0.4-0.9,1-1.6,1.8-2.2c0.8-0.5,1.9-0.8,3.1-0.8c0.7,0,1.4,0.1,2,0.3
	c0.6,0.2,1.2,0.6,1.7,1.1c0.5,0.5,0.9,1.1,1.2,1.9c0.3,0.8,0.4,1.7,0.4,2.8c0,0.9-0.1,1.8-0.4,2.5c-0.3,0.7-0.6,1.4-1.1,1.9
	c-0.5,0.5-1.1,0.9-1.7,1.2c-0.7,0.3-1.4,0.4-2.2,0.4c-1.1,0-2.1-0.2-2.9-0.7c-0.8-0.5-1.4-1.1-1.9-2C231.9,111,231.7,110,231.7,109
	L231.7,109z M221.4,110.6h2.3c0,0.4,0.1,0.8,0.3,1.1c0.2,0.3,0.5,0.5,0.8,0.6c0.3,0.1,0.7,0.2,1.1,0.2c1.7,0,2.5-0.5,2.5-1.4
	c0-0.3-0.1-0.6-0.3-0.8c-0.2-0.2-0.4-0.3-0.6-0.4c-0.2-0.1-0.6-0.2-1.2-0.3c-0.5-0.1-0.8-0.2-1.1-0.3c-0.8-0.1-1.4-0.3-2-0.6
	c-0.5-0.2-1-0.6-1.3-1c-0.3-0.5-0.5-1.1-0.5-1.8c0-0.7,0.2-1.3,0.5-1.8c0.3-0.5,0.8-0.9,1.5-1.2c0.6-0.3,1.4-0.4,2.3-0.4
	c0.8,0,1.5,0.1,2.1,0.3c0.6,0.2,1,0.5,1.4,0.9c0.3,0.4,0.6,0.8,0.8,1.2c0.2,0.4,0.2,0.9,0.3,1.3h-2.3c-0.1-1.1-0.9-1.7-2.4-1.7
	c-0.5,0-1,0.1-1.4,0.3c-0.4,0.2-0.6,0.5-0.6,1c0,0.6,0.3,1,0.9,1.2c0.6,0.1,1.1,0.3,1.6,0.4c0.5,0.1,0.9,0.2,1.1,0.3
	c0.8,0.2,1.5,0.4,2,0.7c0.5,0.2,0.8,0.5,1.1,0.9c0.2,0.4,0.3,0.9,0.3,1.6c0,0.8-0.2,1.4-0.5,2c-0.3,0.5-0.8,0.9-1.3,1.2
	c-0.5,0.3-1,0.4-1.4,0.5c-0.5,0.1-0.8,0.1-1.1,0.1C223.1,114.4,221.5,113.1,221.4,110.6z"/>
<path class="st20" d="M162.3,87.1c-5.8,1.4-12.3-4.1-22.2-7c-5.6-3.9-12.6-7.7-28.4,0.1c-10.3,2.7-19.1,3.1-32.3,21.5h-43v125.2
	l18.5-0.1v22.7c-18-1.5-31.9,6.7-37.6,26.9c-2.5,20,4.9,35.1,20.1,42c-22.2,10.9-27.3,31.9-12.2,43.4c-7.7,10.6-6.5,31.6,5.1,36.8
	c-6.3,15.4-9.5,33.2-8.1,54.9c-6.2,3.7-12.4,5.6-18.8,5.8c1.3,26.3,7.3,55.8,15.9,78.5c-11.2,25.8,4,55.6,32.4,49.1
	c60.7,60,122.1,57.7,197.5,121.3C324.6,644.7,385.1,647,445.8,587c28.4,6.5,43.6-23.3,32.4-49.1c8.6-22.8,14.7-52.2,15.9-78.5
	c-6.4-0.2-12.6-2.1-18.8-5.8c1.5-21.7-1.8-39.5-8.1-54.9c11.6-5.2,12.8-26.2,5.1-36.8c15.1-11.5,10.1-32.5-12.2-43.4
	c15.2-6.9,22.6-22,20.1-42c-5.8-20.2-19.6-28.4-37.6-26.9v-22.7l18.5,0.1V101.7h-46.8c-7-14.4-14.9-7.4-19.8-12.5
	c-4.2-4.3-10.4-3.2-14.3-2.7c-10.1,1.4-16.9,4.7-30.1,14c-6.7-12.9,28.6-24.3,13.8-48.5c-11.4,12.8-21.3,8.5-36,26.8
	C326,68,342.6,59.2,328,45.3c2.4,11.6-8.3,8.3-14.2,18.5c-0.3-18.6,16.1-21.4,0-46.8c-0.7,18.3-16.4,12.1-23.6,39.8
	c-7.4-10.8,8-23.8-11.5-33.2c4.1,16.9-9.1,12.6-11.1,24.6c-5.2-14.3,10-27.5-17.3-43.4c5.9,20.4-10.7,26.4-6.1,45.7
	c-5.1-20.3-11.1-18.5-16.5-27.8c1.3,12.5-7.2,12.7-6,27.2c-16.8-10.5-3.2-25.7-30-30.6c8.1,17.8-2.5,27.3,6.4,39.3
	c-3.3-8.8-10.7-14-26.4-10.5c14.2,11.1,5,16.1,10.1,23.3c-14.5-5.8-10.4-25.2-39.5-19.2C153.1,56.5,142.9,72.4,162.3,87.1z"/>
<path class="st21" d="M249.3,696.2c66.4-55.3,127.3-56.5,188.7-112.3c27.6-22.7,41.4-64.3,47.2-116.6c-41.6-9.3-51.1-30.7-51-68.5
	V215.9l19.5,0.1V108.6H320.4v15.7H177.2v-15.7H43.9V216l19.5-0.1v182.9c0.1,37.7-9.3,59.1-51,68.5c5.8,52.3,19.6,93.8,47.2,116.6
	C121,639.7,183,640.9,249.3,696.2L249.3,696.2z M249.3,667.4c-61.3-50.1-116.8-44.7-171.7-95.6c-24.2-21.4-37.8-55.4-40.2-89.6
	c29.9-12.8,47.9-37.2,47.6-67.6V196.4l-19.5,0.1v-64.6H157v20.3h183.7v-20.3h91.4v64.6l-19.5-0.1v218.2
	c-0.3,30.4,17.7,54.8,47.6,67.6c-2.3,34.3-15.9,68.3-40.2,89.6C365.1,622.8,310.7,617.3,249.3,667.4z"/>
<path class="st22" d="M451.4,451.5c-0.1-19.5-1.9-37.3-10.2-59.3l10.2,1.6c8.6,27.5,9.2,42.8,5.4,63.6L451.4,451.5z"/>
<path class="st23" d="M454.4,290.3c-14.7,2.2-15.1,9.9-11,16.9c3.8,6.9,13.7,3.4,21.2-2.4c10.9-9.6,10.1-26.4,3.7-38.8
	c-11.6-14.3-31.9-15.5-45.8-2.3c-11.7,9.3-13.5,28.6-9.8,41.9c4.2,19.3,9.1,47.5,23.1,64c2.8-1.7,7-3.4,9.9-5
	c-7.8-14.8-14.4-30.4-17.9-48C422.9,299,440.8,282.1,454.4,290.3z"/>
<path class="st24" d="M465.9,352.1c3.7-1.9,4-5.3,5.8-8.4c-1-8-7.9-18.3-18-24.3c-4.2-0.9-10.2,0.9-12.8,4.4
	C449.2,333.2,457.6,342.6,465.9,352.1z"/>
<path class="st23" d="M441.1,288.6c-14.7,2.2-14.5,13.9-10.4,21c3.8,6.9,17.7,7.3,25.2,1.6c10.9-9.6,11.4-25.1,5-37.4
	c-11.6-14.3-32.6-15.5-46.6-2.3c-11.7,9.3-14.2,28.6-10.4,41.9c4.2,19.3,16.9,39.3,26.4,56.2c2.8-1.7,5.7-3.4,8.5-5
	c-7-14.8-17-32.1-20.5-49.7c-2.4-9.2,0.2-18.5,5.5-23.8C428.3,286.5,434.8,284.9,441.1,288.6z"/>
<path class="st22" d="M451.3,395.1c8.6,23.7,9.2,40.9,7,61.3c1.2,1.3,6,3.4,8.1,4.1c3.8-20.8,1-41.9-7.5-69.4L451.3,395.1z"/>
<path class="st25" d="M428,320.1c-14.3-0.3-14.3,7-5.7,14.1c0.5,0.6-2.5,0.4-1.6,1c8.3,5.7,30.2,13,33.5,26.3
	c3.2,1.2,6.5,2.4,9.7,3.7c7.2-17.5-0.8-28.2-8.7-35.1C446.4,323,439,320.9,428,320.1z"/>
<path class="st26" d="M439.4,334.6c4.6,1.5,8.5,4.5,7.8,7.8c-1.4,4-7.4,3-11.3,1.3"/>
<path class="st26" d="M437.1,339.3l5.7,2L437.1,339.3z"/>
<path class="st26" d="M427.6,339c5.2-1,8.1-4.4,9.9-11.1C435.7,334.6,432.9,337.9,427.6,339z"/>
<path class="st27" d="M429.6,327.1l0.6-0.6L429.6,327.1z"/>
<path class="st22" d="M431.2,384.5c1-13.3,8.5-21.9,19.5-23.6c10.2-0.4,16.4,4.9,17.7,14.2c2.3,13.4-9.5,21.3-19.1,15.1
	c-2.8-5-2.6-11.8,4.9-13.7c-5.8-2.2-9,0.5-12.1,10.1C438.4,387.1,434.8,386.5,431.2,384.5z"/>
<path class="st24" d="M440.7,384.2c-8.1,5.2-14,6-20.4-1.4c-3.5,6.8-1.4,13.3,5.3,13.7c-2.2,2.9-3.4,8.3,3,11.5
	c2.4-7.2,4.3-12.4,12.7-15.8C441.3,389.9,440.8,386.4,440.7,384.2z"/>
<path class="st22" d="M424.7,385.7c-0.6-13.3,6.1-20.1,17.1-21.8c10.2-0.4,16.4,4.9,17.7,14.2c2.3,13.4-9.5,21.3-19.1,15.1
	c-2.8-5-2.6-13.2,4.9-15.1c-4.7-2.2-10.8,0.3-10.4,8.4C430.2,388.1,428.6,389.4,424.7,385.7z"/>
<path class="st22" d="M44.4,451.5c0.1-19.5,1.9-37.3,10.2-59.3l-10.2,1.6c-8.6,27.5-9.2,42.8-5.4,63.6L44.4,451.5z"/>
<path class="st23" d="M41.5,290.3c14.7,2.2,15.1,9.9,11,16.9c-3.8,6.9-13.7,3.4-21.2-2.4c-10.9-9.6-10.1-26.4-3.7-38.8
	c11.6-14.3,31.9-15.5,45.8-2.3c11.7,9.3,13.5,28.6,9.8,41.9c-4.2,19.3-9.1,47.5-23.1,64c-2.8-1.7-7-3.4-9.9-5
	c7.8-14.8,14.4-30.4,17.9-48C72.9,299,55,282.1,41.5,290.3z"/>
<path class="st24" d="M30,352.1c-3.7-1.9-4-5.3-5.8-8.4c1-8,7.9-18.3,18-24.3c4.2-0.9,10.2,0.9,12.8,4.4
	C46.6,333.2,38.2,342.6,30,352.1z"/>
<path class="st23" d="M54.8,288.6c14.7,2.2,14.5,13.9,10.4,21c-3.8,6.9-17.7,7.3-25.2,1.6c-10.9-9.6-11.4-25.1-5-37.4
	c11.6-14.3,32.6-15.5,46.6-2.3c11.7,9.3,14.2,28.6,10.4,41.9c-4.2,19.3-16.9,39.3-26.4,56.2c-2.8-1.7-5.7-3.4-8.5-5
	c7-14.8,17-32.1,20.5-49.7c2.4-9.2-0.2-18.5-5.5-23.8C67.6,286.5,61.1,284.9,54.8,288.6z"/>
<path class="st22" d="M44.5,395.1c-8.6,23.7-9.2,40.9-7,61.3c-1.2,1.3-6,3.4-8.1,4.1c-3.8-20.8-1-41.9,7.5-69.4L44.5,395.1z"/>
<path class="st25" d="M67.9,320.1c14.3-0.3,18,6.3,9.4,13.4c-13.9,12.4-32.4,13.6-35.6,28c-3.2,1.2-6.5,2.4-9.7,3.7
	c-7.2-17.5,0.8-28.2,8.7-35.1C49.5,323,56.9,320.9,67.9,320.1z"/>
<path class="st26" d="M56.5,334.6c-4.6,1.5-8.5,4.5-7.8,7.8c1.4,4,7.4,3,11.3,1.3"/>
<path class="st26" d="M58.8,339.3l-5.7,2L58.8,339.3z"/>
<path class="st26" d="M68.2,339c-5.2-1-8.1-4.4-9.9-11.1C60.2,334.6,63,337.9,68.2,339z"/>
<path class="st27" d="M66.2,327.1l-0.6-0.6L66.2,327.1z"/>
<path class="st22" d="M64.7,384.5c-1-13.3-8.5-21.9-19.5-23.6c-10.2-0.4-16.4,4.9-17.7,14.2c-2.3,13.4,9.5,21.3,19.1,15.1
	c2.8-5,2.6-11.8-4.9-13.7c5.8-2.2,9,0.5,12.1,10.1C57.4,387.1,61.1,386.5,64.7,384.5z"/>
<path class="st24" d="M55.1,384.2c8.1,5.2,14,6,20.4-1.4c3.5,6.8,1.4,13.3-5.3,13.7c2.2,2.9,3.4,8.3-3,11.5
	c-2.4-7.2-4.3-12.4-12.7-15.8C54.6,389.9,55,386.4,55.1,384.2z"/>
<path class="st22" d="M71.2,385.7c0.6-13.3-6.1-20.1-17.1-21.8c-10.2-0.4-16.4,4.9-17.7,14.2c-2.3,13.4,9.5,21.3,19.1,15.1
	c2.8-5,2.6-13.2-4.9-15.1c4.7-2.2,10.8,0.3,10.4,8.4C65.7,388.1,67.3,389.4,71.2,385.7z"/>
<path class="st23" d="M75.6,556c7.4,2.9,13.3,4.3,46.4,16.1c-26.9-3.4-43.8-6.9-62.9-16.4c-7.9-4.2-18.2-4.4-18.8,6.4
	c12.3-5.7,19.3,6,15,11.8c-9.3,11.8-22.3,6.1-28.6-2.3c-6.4-9.1-1.2-22.2,10-25.7C51.2,543,62.4,548.5,75.6,556z"/>
<path class="st23" d="M50.6,477.9c1.8,10.5,4,21.3,9.9,32.3c-1.3-11.7,7.8-17.4,16.1-15.5c14.8,4.2,15.1,22.7,1.7,21.8
	c0.9-8.1-5.6-8.7-7.3-3.8c-5.5,17.6,23.7,49.3,56.8,61.1c-26.9-3.4-50.2-14.2-69.3-23.6c-7.9-4.2-19.2-4-20,4.8
	c12.3-5.7,19.3,6,15,11.8c-10.6,11.1-22.3,6.1-28.6-2.3c-6.4-9.1-1.2-22.2,10-25.7c14.5-3,25.7,2.5,39.1,9.9
	c-15.2-13.9-26-32.6-35.8-52.2c-1.3-3.7-1.9-7-2.3-10.7c0.7-0.5,2.6-1.8,3.4-2.2c3.1,8.8,6,14.6,10.8,21c-2.3-5.9-4.7-15-6.2-23.6
	C45.6,480.1,48.8,478.8,50.6,477.9z"/>
<path class="st23" d="M421.9,556c-7.4,2.9-13.3,4.3-46.4,16.1c26.9-3.4,43.8-6.9,62.9-16.4c7.9-4.2,18.2-4.4,18.8,6.4
	c-12.3-5.7-19.3,6-15,11.8c9.3,11.8,22.3,6.1,28.6-2.3c6.4-9.1,1.2-22.2-10-25.7C446.3,543,435.1,548.5,421.9,556z"/>
<path class="st23" d="M447,477.9c-1.8,10.5-4,21.3-9.9,32.3c1.3-11.7-7.8-17.4-16.1-15.5c-14.8,4.2-15.1,22.7-1.7,21.8
	c-0.9-8.1,5.6-8.7,7.3-3.8c5.5,17.6-23.7,49.3-56.8,61.1c26.9-3.4,50.2-14.2,69.3-23.6c7.9-4.2,19.2-4,20,4.8
	c-12.3-5.7-19.3,6-15,11.8c10.6,11.1,22.3,6.1,28.6-2.3c6.4-9.1,1.2-22.2-10-25.7c-14.5-3-25.7,2.5-39.1,9.9
	c15.2-13.9,26-32.6,35.8-52.2c1.3-3.7,1.9-7,2.3-10.7c-0.7-0.5-2.6-1.8-3.4-2.2c-3.1,8.8-6,14.6-10.8,21c2.3-5.9,4.7-15,6.2-23.6
	C451.9,480.1,448.7,478.8,447,477.9z"/>
<path class="st28" d="M129.5,97.4h-24.7l-37.2,56.8l-0.4,40.2l20,0.1c0,10.3,0.2,44.2-0.7,60.2c-0.7,11.8,6.7,9.9,9.8,10.5
	c3.1,5,12.7,12.5,23.6,11.9c5.3-0.3,13.4-1.6,16.3-8c2-3.5,3.8-7.1,3.3-11.4c1.6-2.4,1.6-4.9,0-7.3c2-1.6-0.2-6.2-5.5-6.6
	c-0.2-6,3.7-12.8,3.5-18.8l15.1-16.3L189,217l11.4,5.3l26.7,7.3l4,14.7l4,14.7l22.7-0.7l12-4.7l2-10.7l10-2
	c10.5,2,19.3-2.3,27.4-9.3l10.7-8.7c7,1,14.8-2.1,23.4-9.3l3.4,3.8c0.1,0.7,2.1-4.1,5.7-5c6-1.5,13.5,0.9,14.5,1.7l30,24.9
	c-13.3,1.9-10.2-6.9-39.8,5.8l-5.4,3.9l0.2,3.8l2.9-0.6l2.3,3.5l-13.8,3.6c-1.7,5.2,0.8,8.8,7.3,10.7c-1.8,2.7,1.3,5.3,9.3,8
	c0.5,4.3,5.4,6.4,18.1,2.7c7.1-5.3,14.9-10.1,22-15.4c5.8-3.3,5.1-6.1,10.8-9.5l0.1-60.9l19.3,0.2l0.2-40.1l-11.5,3.3l-3.3-5.2
	l-1.3-17.4l1.7-3.2l-3.2-13.1l-15.4-15.7h-20.7l-17.2,19.3l6.2,13.7l4.3,16.2l5.2,3.3l1.4-2.2l7.5,10.3l-11.1,9.2l-19.3-3
	c-10.3-0.9-21.4,6.4-33.2,16.2c-8.3,1.7-13.2,5.4-14.7,11.1c-14.4,0.8-24.3,4-29.9,9.6l-7.3,3.8l-13,7.1l-4.6-2
	c-1.2-7.2-6.3-9.5-15.3-6.9c-5.2-11.5-24.7-14.2-37.7-16.9l-17.5-11.6l-17.7-5.9l-17.4-8.6l-21.5-0.8l19.8-41.1L129.5,97.4z"/>
<path class="st0" d="M119.3,298.7h4.2l1-0.5l0.3-2.7v-3.6v-1.6l0.2-4.9l-0.3-7.3c-9,1.5-13.4,0.5-19.5-2.9l-0.8,1.1l-4.9,3.7l-1,1.3
	l-1.6,1.4h-0.5l-0.5,1.9l0.5,1.3l7.8,7.3l1.8,0.5l2.6,2.1l4.2,2.2L119.3,298.7L119.3,298.7z M121.9,295.5l-1.6-0.3l-0.3-1.1v-0.6
	l-8.6-5.2l0.5-1.6l5,1.4l5.2,3.9l0.9,0.9l0.6,0.9L121.9,295.5L121.9,295.5z M104.4,285.6l-1-0.6l-3.9-1.7l0.5-0.8l4,0.3l2.3,0.5v0.7
	l-0.6,1.6H104.4L104.4,285.6z M121.3,312.2l0.9,0.3l0.7-10.8l-7.3-0.5l1.4,2.2L121.3,312.2L121.3,312.2z M121.9,318.2L117,308
	l-1.9-2.6v-0.6l-1-1.3V303l-1-1.4l-0.3-0.9l-1.9-1.3l-2.3-0.4l-3.7-3.1l-4.5-2.6l-2.3-1.7l-0.3-0.9l-1.7-0.7l-1.9-2.2L94,287
	l0.3-5.6l1.6-1.7l7.2-5.6c-1.4-1.1-7.8-7.1-8.5-8.5l-5.4-1.6l-2.2-1.4l0.7-1.7l3.4,1.7l5,1.4c4.7,7.2,12.5,10.8,20.3,12.2
	c9.2,0.6,20.6-4.7,18.2-8.3c-2.9,1.9-5,2.7-8.2,2.9c-2.4-0.1-3-2.6,0-2.7c3.8,0.3,12.2-3.4,11.9-7.5c-3.4,1.9-6.3,3.5-12.5,3.3
	c-1.3-0.2-2.3-2.2,0.2-2.3c6.7-0.1,9.4-1.5,12-3.4c4-2.5,2.3-6.3-1.1-4.4c-3.9,1.4-6.2,2.7-9.6,2.6c-2.4,0-2.2-1.5,0.3-1.9
	c4,0.1,7.5-2,11-3.8c2.7-1.7,0.7-5.5-2-3.9c-10.7,4.9-16.8,0.9-19.9-1.7l-0.6-2.6l0.7,0.2l1.3,0.6l0.3,0.4l1.4-1.9
	c-7.8-5.2-15.4,2.3-23.3-1.7l-7.5-2.8l12.2-10.3l0.5-0.6l0.5-0.6v-0.9c-1-5.4,4.5-10.5,10.7-8.2l8.8-7.2l-2-5l2,1.4l1,0.7l1.5,0.2
	l9.6-8.2l-2.5,46.3l6.3-20.1c9.8-12.7,9-14.4,17.6-17.5l9,2.4l15.6,3l4,1.3h4.4c3.9,3.3,8.3,5.9,12.5,7.2l2.6,1.3l20,5.6l3.4,0.4
	l-0.2-4.6c1.9-4,1.6-7.6,2.6-11.5l4.2-4.2c-1.6-3.3-4.8-5.2-7.1-6.3l-2.1-1.3c-6.8-2.3-13.9-4.9-20.6-6.3l-7.4-0.8l-4.9-4l-3.1-2.3
	l-6.7-4.2l-0.6-0.7l-5.2-1.9l-10.4-3.4l-2.3,0.4l-2.6-1.5l-0.6-1.6l-4.6-1.9l-1.1-1l-4.4-1.6c-3.7-3-7.8-1.7-11.7-2.6l-12.1-0.4
	l-1.9,0.4l-4.6,3.6l-1.6,0.3l-1,0.3c-1.9-1.6-2.3-3.3-2.3-4.6l-0.6-3.9l0.6-7.2l-1.9,1.6l-2.1,0.4v2.2l-1.6,1.7l-3.7,3l-3.9,2.6
	l-1,1.3l-2.2,1.6l-0.7,0.6l-1.3-0.8l0.4-0.7l2.9-2.6l2.3-2.3l1.6-1.3l1.6-1.3l1-1.5l1-0.8c-4,1.9-8.7,1.8-12.3-0.2l-1.6-1.4l-1-0.8
	l-1.1-1.4l-0.4-2l-2.3-5.8v-4.8l-2.3,3.7c-3.8,4.2-7.3,5.4-11.6,7.5l-0.7,0.5l-2.8-0.8l-3.3-2.7l-1.4-6.1l-0.8-0.6l0.2-2.6l1-0.6
	l0.6-0.9l1.7-2.3l0.3-3.4l1.1-7.1l1-2.3l1.6-2l1-1.7l5.8-4.1l1.9-2.5l3-5.7l0.2-1.7l1-2.8l1.9-2.9l6.6-5.7l1.7-0.9l2.1-2.2l1.4-0.8
	l1.3-0.4l1.4-1l3.7-1.5l1.7-1.6l0.9-1.9l9.4-1h2.6l2.8,0.6L129,85l4.6,2.9l0.3,0.7l0.3,0.5l1.3,0.3l0.7,0.4l3.2,0.9v0.6l2.3,0.6
	l1.6,2.3l1.4,1.8l1.5,1.2l-0.2,1.5l0.5,1.3l0.2,2.5l3.2,3.1l0.7,2.9l0.5,1.7l-3.2,13.4l-1.5,3.9c-1.1,5.2-1.6,10.1-6,15.3l-1.3,1.8
	c-5.7,6.5-5.7,9.7-11,16.6v2.6l2.6,0.4l6.2,0.3l1.9,0.2l5.8-0.5l6.7,2.6l-0.2,0.3l1,0.5l4.7,1.8l4.5,3.1l2,1.1
	c5.8,2.3,12.6,2.3,18.9,6.3l14,9.1l1,1.3l5.8,0.1l12.3,3.9l4.6,1.7l11.5,5.8l3.7,4.3l0.5,0.6l1.9-0.2l0.4-0.7l-0.2-0.6l-1-1.3
	L231,195l-0.7,4.7l-5.7-14l-1.1,3.6l-24.8-40.4l24.4,29l2.5-4.5l17.7,29l2.6,4l-0.2,0.6l1.1,1l1.7,0.6l0.9,0.9l0.4,2.6l1,2.1
	l1.2,0.5l2.5,1l0.6,1l2-1.4l1.4-0.9h0.5l0.3-2.1l10-27.8l2.6,3.1l-1.7-10.1c-3.9,8.1-11.1,25.2-14.6,33.5l-1.8,3l-1.6-0.4v-1.7
	l-1.6-0.5l-0.5-1.4l-0.2-2l-1.4-8.6l-0.7-1.2l-0.5,1.3l-0.7,1.7l-1.9-0.4v-2l-5-24.6l-3.4,5l-8-61.5l11.5,41.5l2.3-5.9l6.1,28.2
	l4-9.2l3,32.7l13.8-33.1l2.9,3.8l3.1-10.8l-1.4,1.4l-0.5,0.3l-0.4,0.1l-1.7-0.4l-0.2-0.6l16.5-53.6l-8.2,43.2l-0.4,1.8l11.4-13.9
	l-18.3,49.7l-1.9-4.7l-7.6,23.6l2.3-0.5h0.4l0.8-1.5l-0.2-0.8l15.6-18.4l-5.5-0.4c-0.6-2,1.1-2,0.8-3.6l4.9-4.6l2.1-2.2l41-35.2
	L288,184l9.5,0.1l-16.3,17.5c4.2-2,7.8-3.3,12-3.9l8.2-0.7h1.4l1.1-0.3l1.7-4.2l1-0.7l1.4-2.2l1.6-0.4l1.6-1.3l2.6-0.9l3.2-1.6
	l1.3-0.1l3-2l1.7-1.6l0.9-0.3l3.5-2.7l7.9-5.1l1.1-0.4l4.4-2.2l1.6-0.1l0.7-0.6l5.8-1.3l1.9-0.7l7.2,1l10.4,2l3.3,0.3l0.8-0.6
	l3.7-2.7l1-1.2l2.3-1.8l1.1-0.3l0.4-0.5l0.6-0.4l-1-1.7L379,160l-2.6-3.5l-1,1.2l-2.3-1.2l-3.8-2.6l-1.5-6l-3.1-0.7l-1.7-1.2
	l-0.7-1.5l-1.6-1.6l-0.5-1.7l-0.2-0.5l-0.5-0.4l-1-0.6l-1-2.6l-1.1-0.7l-0.1-3.9v-2.2l-0.6-1.8l-1-4.5l-0.2-0.4l-0.6-0.6l0.6-1.3
	l-0.6-7.6l3.2-6.2l5.4-5.4l2.1-0.8l2.3-1.8h0.6l2.8-2.2l0.7-0.7l5-0.9l1.9-0.6l0.5-0.3h1.5c4.2-0.7,8.5,0.3,12.6,1.9l9.6,3l2.4,2.5
	l0.3,2l1.8,3.4l0.5,1.7l2.3,3.1l0.3,0.7l1.6,1l0.5,2.9l1.3,0.9v1.7l0.8,0.8l0.2,2l0.5,0.6l1.4,5.7l0.7,4l-2.1,3.5l0.6,1
	c1,4.2,1.5,8.6,1.5,12.8l1.1,3.4l1,1.6l5.2-0.3l2,0.3l4.9-1v2.6h-1.7l-2.9,0.7h-1.6l-4.4,0.9l0.7,2l0.3,1.6l-1,0.6l-1.6-0.6v-1.3
	l-0.9-1.4l-1.5-2.3l-0.5-1.9l-1.6,2.6l-2.4,3.6l-6.8,7.2l-1.6-0.7l0.3-1.6l3.9-3.3l-1.6,0.3v-1.1l1.3-1.6l1.4-0.6l3.8-3.9l1-2.3
	c1.6-5.2,0-10.3,0.2-15.5l-0.5-0.6v-0.6l-1-0.7v-1.2l1.6-2.1l-1.2-8.4l-0.8-1.5l-1,1l-0.3,0.9l-0.7,2.1h-2.2l-1.5-1.4l-1.9-3
	l-0.5-1.6l-1-1.4l-2.3-1.3l-4.2-1.9l-0.7-2.6l-1.7-1.8l-1.6-3.5l-0.3-0.4h-0.9h-1l-4.8-0.6h-1.2l-1.8,1l-0.8,0.5l-2.8,0.6l-2.4,1.5
	l1.1,0.5l0.1,2.1l-2.7,4.8l-5.2,2.6l-4.3,0.7l-0.8,0.8L364,125l2,3.9l1,0.7l1.3,10.5l2.4-2.9l0.8-0.3l1.6-1.4l1.5-0.9l1.6-0.4
	l1.7-1.6h0.9l2.9,2l1,0.6l1.3,1.7l1,2.5l0.3,2l1,3.3l-0.7,1.8l-0.6,0.2l-1.5-0.9v-1.4l-0.8-0.8v-1.8l-0.4-1.6l-0.3-0.6l-1.4,0.6
	l-0.5,0.3l-1,0.7l0.3,0.8l0.3,0.4l-0.9,2.2l-0.9,0.1l-1.9-0.1l-0.7,0.7h-1.9l1.1-2.9l0.9-1.6l3.7-2.7h1.6l-1.9-2.2l-4.2,1.6
	l-3.3,4.6l-2.3,0.6v0.6l1,6.6l0.7,1.3l0.8,0.9l0.4,0.4l2.2,1.7l1-0.3v-0.7l0.9-0.3l1.7,1.4l4.9,6.5l1.3,1.4l0.3,0.5l2.1,1.4l2.1,0.4
	l5,1.3c3.1,0.9,5.7-0.1,8.8-1.7l2.2,0.7l-0.8,1.9c-2.9-0.3-5.6,2.3-8.6,1.3l-1.4,0.3v1.4l1,3.9l0.3,0.4l-0.6,1.9l-2.6-0.3l0.6-3.6
	l-0.8-1.7l-0.7-1.3l-0.3-0.7h-0.7l-1.9-1.3l-2.3-1.3h-1l-3.7,2.5l-1.6,0.7l-5.5,4.9h-1.6l-13.5-1.3c-6.2-1.4-11.8-1.8-17.5,1.3
	l-1.7,0.6l-5.9,3.6l-1.6,1.1l-0.7,0.3l-1.6,1.1l-5.8,4.2l-2.3,1.9c-3.9,2.3-8.3,2-11.7,6.3l-0.7,0.7l-1.1,2.2l-0.7,1.7l1.6,0.6v1.6
	c-7.1,0-13.7,0-20.4,1.8L287,202l-4.5,2.3l-1.6,1.4l-0.4,0.3l-2.9,0.3l-0.3,0.6c3.3,1.7,7.1,2.9,9.9,6.6l1.6,2.6v3.7v2.2l-2.1,2.3
	l-0.5,0.3l-2.1,0.1l-1.9,1.6l-0.9,1.9l-2.4,0.7l-1.6-0.3l-1,10.5l-2.6,2.2h-2.1v0.7l1.1,1.4l1.3-1.4l2.1,0.3l0.9-0.6l1.7-1.3h0.5
	l4.4-4l1.6,0.6l-0.5,2.6l-0.5,0.6l3.7-0.6h3.3l1.6-0.6l2.6-0.7l1.4-0.5l6.5-4l0.9-0.1l1.7-1.2l4.5-5.2v-0.7l1.4-1.6l1-0.3l-0.6,3.9
	l0.6,0.3l5.2-3.9l0.5-0.7l1.4-1.7l0.7-0.2l6.5-1.7l7.1-3l3.7-2.3l1.8-1.6l0.8-0.3l3.7-3.3l1.3,0.3l1,4.2v0.6l0.5,0.4l1-1l0.6-0.5
	l2.6-2.7l3.3-0.3l-1.7-4.9l-1.7-2.5l-1.1-2.3l-1.8-1.4l-2.6-3l-4-2.6l-1.6-1.9v-0.7l1-1.3l7.1,4.9l1.6,1.6l2.6,2.3l2.3,4l1.7,2.3
	l0.7,2.9l0.5,2.5l3.4,0.1l2.1,0.5l1.1,1.2l-0.9,1.7l-1.9-0.9l-21.1,32.4l-1.6,0.2l0.2-2.6l-0.5,0.3l-1,1.8l-1.6-1l-0.7,1l-0.6,2.2
	h3.2l2,0.4l2.1-2.3l23.6-32.8V212l2.6-0.3l0.4,1.6l3.5,2.3c6.7,5.9,10.5,11.4,17.3,16.1c1.7,2.2,4.8,3.7,6.6,5.9l11-2.3l5.5-2v2.9
	l-2.2,0.3l-1.3,0.7l-5.4,1.3l-6.8,2.4c-7.4,0.9-14.2-3.3-21.4-1.3c-6.6,1.5-13.6,3.9-19.4,7.7l-2.2,1.5l-0.3,2.2h1.6l1.8,1.7
	c4.7-0.3,11.4-3,14.6-7.6l2.3,0.3l-10.1,9.3l-8.9,3.1l-2.6,0.6l-4.7,0.9c-6.9,1.6-1.2,9.1,6.1,7.9c1.1,1.5-3.7,2.8-1.8,5.6
	c5.8,3.8,6.8,2.2,10.2,2.8c0.4,1.4-1.3,2.1-0.3,4.1c3.3,2.3,7.6,1.8,11.9,1l6.4-2.3l6.5-3.4l15.1-12.8l2.8-1.9l6.6-3.4v0.3l1.6-0.8
	v2.2l-5.5,3.3l-1.6,1l-1.3,1l-2.9,2.2l-0.4,0.3l-2.5,1.7l-1,1.4l-8.6,7.5l-8,4l8,6.6h1.8l0.6-0.7l-6.6-5.2l0.7-1.9l6.8,4.5
	c1.7-0.6,2.6-3.3,4-4.9l3.1-4.9l2.4-2.6l5.4-7.8l0.7-0.1l1.9,0.6l-0.5,2.1l-4.1,4.8l-0.6,0.7l-3.9,6.1l-1,1.4l-8.3,11.1l-0.7,0.6
	l-1.1-0.6l-13-8.8l-0.7,0.4c-8.2,3-21-0.3-17.5-4.9c-5,0.2-11.6-4.8-8.9-7.7c-5-0.8-8.5-5.2-6.6-9.9l-3-2.9l-7.6-5.8l-1.4-1.4
	l-0.1-0.4l0.4-1.3l1.9-2.6l13-24.9l-1.4-3l-1.6-2.9l-2.3,2.4l-0.6,0.2l-4.2,2.4l-1,0.8l-1.3,0.4l-3.7,1.9l-1.6,0.3l-5.9,1.4
	l-7.5,6.6l-2.6,1.4l-2.2-0.1l-4.2,3.6l-0.7,0.3l-1,0.7l-1.4,1l-5.7,2.8l-3,0.7l-4.5,1.3h-1.9l-6.6,0.9l-0.7-0.8l-3.3,2.2l-0.5,0.3
	l-1.7-0.3l-0.4,1.6l17.7,29.3H287l14.4,26.2l-30.9-34.3l7.5,1.4l-8.2-9.8l-1.4-0.9c-2.7,2.7-5.1,4.4-9.1,4.3l-1.4,0.3l0.6,10
	l5.1-3.1l-0.4,46.1l-4.5-27l-4.3,2.6c-0.1-10.2-0.6-20.3-1.4-30.4l0.7-0.1l0.9,0.1l0.8-0.7l4.9-1.4h-2.1l-2.1-1.3l-1.6,1.6
	c-2.5,1.7-4.8,1.8-7.4,2.3l-7.3-0.6l-17.2,31.1v-8.4l-19.4,21.2l25.1-41.5l1,5.9l5.6-7.9l1-1.4l-1.3-0.7l-1.4-2.3l-0.1-1.6
	c-1.7-1.9-5.8-2.9-5.5-5.9l1.3-6.8v-1.1l-1.3-1.3l-2.2-5l-0.4-3.9l-2.9-0.7l-8.6-2.9l-12.3-3.1l-14.9-8.2l-30.9-7.4l-15.7,15.5
	l-6.2,18.8c7.3-2.4,7.9,5.6,7.1,6.8c1.7,1.5,1.5,5.5-0.8,8.3c1.1,1.3-0.4,6-3.2,7.8c0.8,3.7-2,8.4-9.5,10.6
	c-0.5,5.7-1.1,12.1-0.4,17.9l-1.9,6l-0.7,11.8v3.3l-1.6,2.3L121.9,318.2z"/>
<path class="st29" d="M120.9,245.6l0.9-23l-18.2,16.1c-3.7,1.7-8.6-1.6-12.2-2.4l40.3-34.5l-3.4,44.9
	C125.8,247.3,123.4,247.3,120.9,245.6z"/>
<path class="st30" d="M120.9,245.6l0.9-23l-18.2,16.1c-3.7,1.7-8.6-1.6-12.2-2.4l40.3-34.5l-3.4,44.9
	C125.8,247.3,123.4,247.3,120.9,245.6z"/>
<path class="st1" d="M131.3,245.6l-0.1-0.5L131.3,245.6z"/>
<path class="st1" d="M119.1,238.9c-3.5-1.5-7.4-1.6-12-0.8l12.8-11.5L119.1,238.9z"/>
<path class="st31" d="M103.1,224.1c-0.9-5.7,4.7-8.5,8.9-6.8l-3,2.2c-1.8-0.7-3.3,0.9-3,2.5L103.1,224.1z"/>
<polygon class="st0" points="86.9,204.7 86.3,203.9 88.1,201.3 90.5,200.4 92.1,199.7 92.5,199.4 94.7,199.4 94.8,200.4 93.9,202.4 
	90.2,203.1 "/>
<polygon class="st0" points="87,182 87,181.7 86.9,180.6 89.5,176.4 91,176.1 91.3,176.9 89.9,179.4 88.7,181.1 "/>
<polygon class="st0" points="90.2,175.5 89.5,175.1 90.2,173.8 91.5,172.8 97.4,172.4 99.6,172.4 106.6,172.8 107.7,173.5 
	106.9,175.1 94.7,175.4 92.1,175.1 "/>
<polygon class="st0" points="85,172.8 76.6,166.7 75.8,165.3 76.6,164.1 85.3,170.1 86.6,171.6 "/>
<polygon class="st0" points="87.3,162.3 87.3,162 86.6,160.4 87,156.4 87,154.1 87,150.5 88.1,149.3 88.9,150.6 88.9,161.6 "/>
<path class="st28" d="M100.3,157.1l-3-1.3l-3.2-1.4l-2.1-2.6l-2.6-7.5l-0.6-3.5l1.3-5.6l1.5-8.6l2.8-7.1l1.7-1.8l0.9-0.9v-1.3
	l1.7-1.7l4.2,0.3l4.1,3l1.9,0.9l1,1.7l0.5,0.8h0.7l0.6-2.2l-0.3-0.4l-4.2-3.8l-1.8-1.1l-3.4-1.7l0.9-1.4l3.5-6.5l3.5-2.2
	c3.3-0.7,8.2,3.5,12.4,2.4l4.1-1.3l0.4,4.4l2,2.6l3.1,2.6l3.3,4l0.3,0.9l0.2,2.6l-1.6,2.3l-2.6,7.2v1.4c-1.6-0.1-3.3-2.3-4.6-4
	l-1.4-1.4l-6.5-1.3l-0.6,1.3l6.6,2.6l4.7,4.1l0.5,1.2c-1.4,5.2-7,9.3-10.4,13.9l-1.7,1.9l-0.7,0.7l-2,1.1l-1.6,0.8l-2.2,1.8
	l-1.4,0.8l-5.2,2l-1.5,0.3L100.3,157.1z"/>
<polygon class="st0" points="103.8,151.5 99.3,148.9 96.1,146.2 96,145 96.9,144.5 98,145.1 98.7,145.5 98.4,144.2 96.5,143.8 
	94.5,142.1 93.6,141.3 93.5,139.9 94.8,139.6 97.6,141.4 100.3,142.7 101.7,145.1 102.8,144.5 104.8,145.8 107.3,148.4 108.9,149.3 
	108.1,150.8 104.1,149.4 105.1,150.7 "/>
<polygon class="st0" points="105.9,142.1 103.1,140.3 102,138 101.7,135.8 104.3,136.9 105.3,138.4 105.3,139.4 108.5,140.3 
	108.3,142.4 "/>
<polygon class="st0" points="123.3,135.3 120.9,134 119.3,134 117.4,132.4 117.8,131.4 116.4,130.8 114.5,130.5 113.8,130 
	114.5,128.8 117.1,129.1 121.1,129.7 121.4,131.1 121.9,131.7 124.5,133.7 124,135 "/>
<polygon class="st0" points="103.8,134.7 103.1,133.6 104.6,131.9 108.5,127.1 107.2,125.7 106.1,124.7 105.7,124.7 105,125.3 
	104.3,125.3 102.4,124.1 102.4,121.5 100.4,120.8 101.7,119.4 105.3,120.1 107.2,121.4 107.6,122.4 108.7,123.4 109.9,125 
	110.6,124.7 111.6,124.5 112.5,125.3 112.5,126.7 111.6,128 109,129.7 108.3,131.3 104.6,135 "/>
<path class="st28" d="M105,239.1c5.3-4.8,10.6-9.7,15.9-14.5c-0.2,5.5-0.5,11.1-0.7,16.6C117.4,238.1,111.4,238.4,105,239.1z"/>
<path class="st32" d="M105,239.1c5.3-4.8,10.6-9.7,15.9-14.5c-0.2,5.5-0.5,11.1-0.7,16.6C117.4,238.1,111.4,238.4,105,239.1z"/>
<path class="st28" d="M263.8,235.7l-0.5-4l4.5-5.2l2,1.4l4.7,0.9l1.1,0.3v4.4L273,240h-1.4h-1.9l-1.9-2.6h-1l0.9,1.9l0.7,1.4
	l0.7,1.3L263.8,235.7L263.8,235.7z M277.9,226.1l0.4-3.6l1.1-2.5l2.1,1.3v3.6l-1.7,1.3H277.9L277.9,226.1z M257.4,229.8l1.4-2.9
	l-0.5-0.4l-0.9-1.9l0.7-1.4l1.3,0.3l2.3,2.6v1.4l-0.7,2.6h1l4.5-6.9l0.4-0.2l0.6,0.5h0.7l6.5,2.6l1.4-2.2l0.8-4.9l-1.6-4.6l-2.6-1.9
	l-3.4,0.5l-4.7,2.1l-1.6,0.5l-1.8,1.4L259,218l-1.7,2c-1.4,3-1.1,6.5-0.6,9.9H257.4L257.4,229.8z M245.3,259.9l-2.1-0.2l-5.9-2.4
	l-0.6-0.2l-0.4-1l-4.5-4.5c-1.6-2.6-0.4-5.2,0.5-7.9l0.3-1.8l-1.3-0.8l-1.9-2.7l-0.7-1.4v-5.9l1.5-2l-0.7-1.9l-0.3-0.6l0.3-2.6
	l1.9-3.6l0.7-5.6l2.3-3.4l5.5-2.3l0.7,0.7l0.8,0.5l0.7-0.3l0.5-0.5l2.6,0.5l2.4,2.1v3.1h-2.1l-0.5,0.3l-0.6,0.3l-0.1,1.1l1.7,0.7
	l8.1,2.3l-0.3,8.7h-9.1l-0.4,0.3l-0.3,1.4l1,0.9l8.6,0.4l7,0.9l0.2,0.7l0.3,0.5l-0.8,1.7l-1.6,2.3l-1.4,2h-7.1l-6.9-0.7l-1.3,0.7
	v0.9l0.8,0.6l11.8,1.4l4-0.7l-0.2,1.8l-0.8,3.5l-1.8,1l-3,0.4l-5.9,0.3l-5.1-0.7l-0.1,1.3l2.3,1.7l11.9,0.4v2.2l-0.5,1.3l-1.3,1.8
	l-2.3,2.2L245.3,259.9z"/>
<path class="st28" d="M261.6,259.4v-1l-3.9-0.4v-1.3c1.6-2.5,1-4.3,1.3-6.5l1.7-3l0.5-1.9l1.5,1.4l1.1,2.2l-1.1,1.3l-0.7,0.1v1.3
	l1,0.1l0.5-0.4l1-1.4l1.9,2.1l2.3,2.8l-1.3,2.4l-1,0.8L261.6,259.4z"/>
<path class="st33" d="M271.5,183.2l0.8,2.7l12.2-32.3l-9.5,8.8l4.4-1.4L271.5,183.2L271.5,183.2z M247.9,194.4l-6.2-25.2l-2.8,3
	l-3.4-21.2l4.7,16.1l2.1-6.1l6.2,26l2.8-5.6l1.8,22.5l-2.5-14.7L247.9,194.4L247.9,194.4z M225.9,177.1l-1.9,3.9l-8.2-9.7l8.2,12.8
	l2.2-3.3l4.3,11.4l0.7-3l9.4,15.5l3-0.2L225.9,177.1L225.9,177.1z M285.9,221.2c-2.3-2.6-4.6-5.1-7.5-7.2l-0.8-1.6l-2.4-2.3
	l-0.9-1.1l-5.2-0.3l2-2.6l15.3-18.6l-7.8-0.3l1.6-0.4l22.4-20.4L284,185.9h8.3l-17.8,20.9v0.7l3.3,0.6l4.5,2.3l3.3,3l1,1.3l0.6,2.9
	l-0.6,2.6L285.9,221.2z"/>
<polygon class="st33" points="253,218 268.9,175.3 272.8,184.1 271.6,189.1 269.7,184.8 258.5,215.2 "/>
<polygon class="st0" points="221.1,325.8 233.2,288.2 236.1,291.9 239.1,282.3 235.6,283.9 241.7,267.6 241.2,278 249.1,264.2 
	236.5,306.5 235.6,299 "/>
<polygon class="st33" points="289.3,287.2 276.6,272.4 281.5,273.2 "/>
<path class="st34" d="M223.9,280.5l-8.8,9.4l12-18.5l0.5,3.4l6.7-7.7l-9.5,17.2L223.9,280.5L223.9,280.5z M256.1,288.5l2.4-2.4
	l2.4,6l-0.1-15.8l-3.2,2.4l-2.1-9.7L256.1,288.5L256.1,288.5z M263.1,246l-2.5-2.7l0.3-2l-0.5-0.6l-0.2-0.6l2.6-4l-0.5-4l6.5,8.3
	l-1.9-2.6h-1l0.9,1.9l0.7,1.4l0.7,1.3l17.8,31.8l-5.1-3.6L263.1,246z"/>
<polygon class="st1" points="252.5,210.4 252,209.5 251.6,206.8 253.4,207.3 254.5,207.2 253.7,209.1 "/>
<polygon class="st33" points="243.6,277.5 237.4,299.5 236.1,296.9 230.2,304.9 234.2,291.7 236.6,293.7 240.6,280.8 "/>
<path class="st15" d="M351.5,255.7l-3.7-2.3l-5.7-3.3l5-7.2l1-1.4l6.8-10.1l1.8-2.3l2.6-4.2l2.2-2.3l4.1-5.7l1.3-1.3l2.2,0.9
	l1.6,0.9l6.6,5.9l2.3,2.6l1,1l5.4,5.2l3.7,2.9l4.7,3l-1.5,0.5l-10.7-2.6l-6.1,0.7l-13.6,4.2c-5.5,2.3-6.4,3.1-11.7,6.9l-0.8,1.7
	l-0.2,2.6l0.2,0.6l1.9,1.3l2-0.5v1.3L351.5,255.7z"/>
<path class="st0" d="M393.3,236.1l-0.3-0.3l0.8-1.9l1.7-1.1l0.9-0.4l1.7-1.2l5.2-2.3l0.9-1.4l2.1-1.3l0.8-0.7l-0.5-7.9l-1.8-4.8
	l-1.1-4.7L403,207l-1.6-11.1l0.5-0.7c2.9,5,2.9,9.9,4.4,14.8l2.2,6c0.7,2.3,2,4.8,1.3,7.1l0.3,0.7l0.4,0.5v0.7
	c-1.3,2.6-3.7,4.2-5.6,5.9l-4.1,2.3l-1.3,0.6l-1.4,0.6l-0.4,0.3l-1.4,0.3L393.3,236.1z"/>
<polygon class="st0" points="385.5,183 378.2,181.5 378.7,180.4 380,180.1 387.4,180.7 386.8,180.1 389.4,172.2 390,172.1 
	390.4,176.5 389.2,180.1 391,180.1 392,181.1 391.2,182.7 "/>
<polygon class="st0" points="412.7,177.5 411.4,177.5 410.6,176.2 416.1,175.8 416.8,174.8 419,174.4 419,175.2 418.4,177.4 "/>
<polygon class="st0" points="391.8,162.4 391.6,162.1 394.4,158.4 398.9,156.1 400.1,155.6 401.5,154.8 403.6,154.5 404.3,155.2 
	404.3,157.1 402.2,157.1 402.2,157.9 402.4,158.4 401.2,160.4 397.5,161.7 397,162.1 395.2,161.3 394.9,160.8 393.9,162.1 "/>
<polygon class="st0" points="387.1,154.5 386.3,153.9 386.8,152.9 388.1,152.5 390.3,152.2 392,151.1 393.6,147.7 394.4,147.4 
	396.5,147.9 394.2,153.5 391.8,153.9 "/>
<path class="st1" d="M368.1,145.3l0.4-0.6L368.1,145.3z"/>
<polygon class="st0" points="389.2,138 389,137.7 387.8,132.9 387.7,131.9 391.6,127.2 392,126.9 396.5,126 400.7,124.6 400.7,126 
	399.8,127.2 396.5,128.3 393.6,128.9 392.9,129.3 391,130.9 390,132.2 390.4,134.2 392.3,132.9 394.4,131.6 396.3,131.6 
	397.8,130.3 398.2,130.3 400.1,130.9 400.4,131.6 397.5,133.8 396.5,134.6 396.5,136.1 395.5,138 393.3,138 392.6,136.9 391.8,138 
	"/>
<path class="st35" d="M338.6,236.7l0.7-0.4L338.6,236.7z"/>
<polygon class="st35" points="334.9,246.5 334.1,245.7 349.8,214.7 351.1,214.9 "/>
<path class="st35" d="M346.1,230.7l2.6-4L346.1,230.7z"/>
<path class="st35" d="M349.1,225.8l1.1-0.9L349.1,225.8z"/>
<polygon class="st35" points="336.8,246.8 336.7,245.3 354.8,214.2 356.6,214.5 "/>
<path class="st0" d="M308.3,207.7l-1.5-0.4l-0.3-1.9l-1.3-2l0.7-1.4c1.2,0,2.6,2.1,3.1,3l0.5,0.9v0.9L308.3,207.7L308.3,207.7z
	 M335.2,207.7h-0.5l-0.4-1.3l1.5-2.3l1.6-2.1l0.5-0.3l2.1,0.7l-3.3,5.6L335.2,207.7L335.2,207.7z M313.1,216.8l-1-0.9l-0.8-2.3
	l0.3-1.6h1.6l1,2.3l0.5,0.5v1L313.1,216.8z"/>
<path class="st19" d="M364.3,346.6c4.3,0,4.1,2.5,9.4,0l2.3-0.4l3-1.4l3.8-1.5l1.6-0.8l0.5-0.5l5.3-2.8l2.9-2.4
	c0.9-1.3,1-2.2,0.7-3.1l-7.9,3.6l-1.9,0.9l-1.5,0l-1.1-0.3l8.5-4l1.7-0.6l3.7-2l0.9-1.7l-0.4-0.8l-10.8,3.9l-4.6,2.1l-0.3-0.7
	l-0.3-0.7l16.5-6.7l0.4-1.5l0.2-2.6l-2.9,0.8l-4.3,1.9l-4.4,1.9l-5.8,2.3l-1.3,0.2l-0.1-0.9l6.5-2.6l3-1.4l7.9-3.4l-2.1-1.7
	l-4.1,0.7l-16.3,7.1l-0.1-0.8l7.6-3.4l-1.7-2.2l-2.6,0l-4,1.6l-5.6,3.2l-1.4,1.8l-0.6,1.1l-1.5,2.4l-1,1.4c-1.5,0.7-1.2,1-3,1.3
	c1.2,4.7,3.3,8.6,4,12.5L364.3,346.6z"/>
<path class="st6" d="M247.3,381.9c-6.9-0.7-15.5,1.4-17.3,6.3"/>
<path class="st6" d="M260.6,380.4c-1.2,2-0.5,4,2.8,6"/>
<polygon class="st0" points="373.5,321.1 363.8,321.2 362.8,322.3 359.9,320.9 361,320.3 362.5,319 363.6,318.4 366.5,319.1 
	371.6,318.4 372.8,317.9 375.6,318.9 376.2,319.4 375.5,321 "/>
<path class="st3" d="M391.3,507.7c0.8-0.3,0.3-0.7,1.3-1.3c0.6-0.4,2,0,2-1c0-1.3,4.7-2,5.2-3.1l1.3-2.9l3-2.9
	c0.4-0.1,0.6-2.7,0.7-3.3c0.2-3,0.8-6.2,1-9.2l-8.9-1l-1.6-11.9l24.8-22.7l-7-17.4l-22.6,20l-5.3-6.3l16.7-33.5l10.8,9.6l-4.6-19.2
	l-14-4.7l-11.9-1.3h-6.9l-11.9,1.3l-5.3,2.3l-8.9,2l-2.3,3.6l-5.9,0.7l-5.9,5.9l-2.7,0.3l-5.5,5.9v2.3l-4,0.7l-4.3,5.6l1,4.9
	l-3.3-0.7l-5.9,7.3l1.6,3.3l-2,4.6l-4.6,0.7l-3.6,7.3l1.6,4.3l-2.3,5.9h-3.3l-3.3,7.3l3,4L295,481l-3.3,0.7l-2.3,7.3l1.6,4l-1,5.9
	l-3,1.3l-2,7.3l2.6,2.6l-1,5.3l2,0.7l9.2-4.3l3-1.3l9.9,0.3l7.9-3.2l7.3,2.4c2.2-0.4,3.9-0.4,6.1-0.4l7.3,3.3l9.4-0.8l21.2,2.9
	l10.6-2L391.3,507.7z"/>
<path class="st6" d="M403.6,413.3c-6.4-7.5-23.3-3.7-38.4,10c-11.6,13.6-20.6,29.7-26.1,45.2c-4.4,14.3-7.7,26.6-9.7,39.9"/>
<polyline class="st6" points="319,506.9 318,502.3 323.1,499.4 324.1,495.6 321.6,490.2 322.8,484.9 327.4,484.9 329.1,478.1 
	326.7,471.6 329.4,465.8 334.2,465.8 336.6,459.3 334.2,452.7 336.2,448.1 340,449.4 343.9,443.1 341.5,437.3 344.9,432.7 
	350.2,432.9 353.6,429 352.6,422.7 357.4,417.4 360.8,419.1 365.7,414.8 365.7,410.2 370,405.3 372.9,409.2 378.3,406.3 378.5,401 
	381.9,397.8 384.5,397.3 388.2,402.2 392.8,403.1 394.7,397.1 400.9,399.6 401.4,406.1 409.6,408.6 "/>
<line class="st6" x1="378.7" y1="399.8" x2="368.3" y2="396.9"/>
<polyline class="st6" points="359.6,399 370.5,402.3 350.9,401.9 "/>
<path class="st6" d="M339.5,407.7c10.7-1,19.7-0.4,25.9,2.4"/>
<path class="st6" d="M333.3,412.3c4.7,3.8,15.9,3.5,23.5,5.6"/>
<path class="st6" d="M337.8,408.2c6.5,3.5,17.7,4.2,26.6,6.3"/>
<line class="st6" x1="351.9" y1="423.7" x2="327.2" y2="417.9"/>
<line class="st6" x1="322.8" y1="420.6" x2="353.3" y2="429.8"/>
<path class="st6" d="M344.4,432.9c-6.9-2.1-14.9-7.1-25.6-7"/>
<line class="st6" x1="319.5" y1="431.2" x2="342" y2="436.5"/>
<line class="st6" x1="342.7" y1="443.3" x2="311.7" y2="436.8"/>
<line class="st6" x1="311.7" y1="440.9" x2="338.8" y2="448.1"/>
<path class="st6" d="M334.2,451.3c-5.5-1.7-17-2.7-24.4-5.1"/>
<line class="st6" x1="303.7" y1="450.1" x2="334.9" y2="454.7"/>
<path class="st6" d="M335.9,458.8c-10.6,0.1-22.7-0.7-33.4-2.9"/>
<path class="st6" d="M301.8,462.2c11.9-0.1,22.1,1.1,30.7,3.6"/>
<path class="st6" d="M326.7,472.6c-9.5-1.5-20.2-1.9-31.7-1.5"/>
<line class="st6" x1="297.2" y1="475" x2="328.9" y2="479.1"/>
<path class="st6" d="M323.1,484.7c-9.6-1.3-19.8-1.9-30.7-1.9"/>
<path class="st6" d="M289.5,488.3c10.8,0.8,21.6,1.3,32.4,1.5"/>
<path class="st6" d="M323.6,496.3c-10.1-1-20.8-1.8-32.2-2.2"/>
<path class="st6" d="M288.2,499.9c9.2,2.6,20.1,0.1,30.5,2.7"/>
<path class="st6" d="M317.8,506.5c-10.6,1-20.8-1-31.9,1"/>
<polyline class="st6" points="347.8,448.1 359.9,462.9 372,450.6 374.9,444.5 379.7,413.5 "/>
<polyline class="st6" points="342.2,461.5 353.1,474 349,487.1 333.5,491.9 "/>
<line class="st6" x1="348.3" y1="474.3" x2="352.9" y2="474.3"/>
<line class="st6" x1="345.4" y1="483.2" x2="348.5" y2="486.9"/>
<line class="st6" x1="368.8" y1="448.1" x2="372.7" y2="447.7"/>
<line class="st6" x1="390.4" y1="450.8" x2="396.4" y2="445.2"/>
<path class="st36" d="M349.5,448.5l8.2,9.8l10.5-11l6.2-29.2C363.4,423.2,356.4,436.8,349.5,448.5z"/>
<polygon class="st36" points="330,504.1 345.5,501.6 346.5,511.7 339.7,512.6 332.3,509.7 329.1,509.6 "/>
<polygon class="st36" points="333.7,486.5 340,466 347.9,474.4 345.5,483.2 "/>
<path class="st37" d="M365.1,355.6l-9.1-27.3c-12.4,10.3-27.1,22.5-39.7,33.3l-10.9,6.1c-2.6,1.6-6.2,3.3-9.1,5.1
	c-6.2,2-12.2,3.7-18.8,5.9c-10-4.1-29.5-12.6-55.5,2c-7.5,0.4-14.9-0.6-22.1-4.1c-10.5-7-18.5-14.4-27.1-21.8
	c-9.4-7.8-17.4-15.2-30.3-22.5c-7.5,5.7-11.8,13.8-13.7,23.5c9.3,13.7,28.9,21.4,42.5,34.1c9.3,7.8,21.9,18,30.4,24.6
	c8.8,5.6,10,14.9,11.9,24.1c2.7,12.5,2.2,28.2,11,37.8c-6.8,13.9-6.3,29.7-6.6,41.7c0.8,27,0.3,54.1,1,81.1l0.4,47.5
	c9.7,6.6,21.8,14,29.4,20.6c12-10.6,22.8-17.7,36.7-25.3c1.4-44.2,3.1-90.7,0.5-135.5c-0.5-1.4-2.1-2.1-2.8-3.3
	c-2.4-11.7-1.6-29.7-7.9-35.3c6.8-8.4,7.6-22.5,8.7-31.5c0.7-5.9,1.9-11.5,3.7-16c6.9-7.9,16.6-16.9,21-24.9
	c3.5-1.2,7.5-2.5,9.9-3.7C332.8,379.3,348.9,367.6,365.1,355.6z"/>
<path class="st6" d="M225.8,497.2c0.9,44,1,82.5,0.7,125.6c-1.5,9,4,15.3,7.5,17.3"/>
<path class="st6" d="M246.4,401.7c-0.5,20-0.9,38.8,0,57.9"/>
<path class="st6" d="M261.1,420.5c-0.2,11,1.2,23.6-5.6,31.6"/>
<path class="st6" d="M230.7,453.8c-0.9,10.1,8.6,13.7,12.8,20.5"/>
<path class="st6" d="M224,456.3c1.2,7.6,5.8,12.9,11.9,17.5"/>
<path class="st6" d="M246.1,476.4c-5.9,1.3-12.8,0.7-18.9-0.3"/>
<path class="st6" d="M266.5,447.6c2.3,17.5-6.7,18.6-11.4,26.8"/>
<path class="st6" d="M270.9,456.3c0.1,9-6.1,12.5-10.3,18"/>
<path class="st6" d="M271.8,471.4c-4.7,4.1-12.3,7.2-18.4,4.5"/>
<path class="st6" d="M266.9,479.4c1.6,6.2,5,13.1-0.4,18.3"/>
<path class="st6" d="M275.6,548.3c-0.9,27.5-0.1,51.5,0.2,78.4c1.5,5.6-4,9.5-7.5,10.8"/>
<path class="st6" d="M266.2,556.8c-0.9,27.5-0.1,51.5,0.2,78.4"/>
<path class="st6" d="M261.1,606.4c-0.9,12-0.3,22.5,0,34.3"/>
<path class="st6" d="M250.8,559.8c-0.9,30.3-0.1,56.8,0.2,86.5"/>
<path class="st6" d="M236.8,571.6c-0.5,16.1-0.2,18.3-0.1,33.3c0.1,13.2,2.7,22.2,2.9,36.1"/>
<path class="st8" d="M131,455.5c-0.2,0.1,0.5,1.3,0.4,2.3c-0.1,0.9-0.5,2.3-0.2,3.2c0.6,2.1-0.5,3.1,2.3,2.1
	c1.7-0.6,4.8,4.8,4.2,5.9c-0.8,1.5-0.4,1.7,0.6,2.5c1.1,0.9,0.6,3.6,0.6,5.1l2.8-1.5c0.9,1.1,2.5,1.8,3.2,2.5
	c0.2,0.2,0.4,1.6,0.4,1.7c0.3,1.4,0.6,2.4,0.6,4v4c-0.3,1.4-0.2,2.6-0.2,4c0,1.6-1.5,2.8-1.5,4.7L142,497h-1.9l-0.4,2.5l0.2,3
	c0,0.4,0,0.7,0,1.1c0,0.1,0.2,0.1,0.2,0.2v0.2h0.2h0.2c0.3,0,0.1,0.2,0.6,0.2h3.6h11l1.7-0.2l3.6,0.4l3-0.4l3,0.4l3.2,2.8l2.8,0.4
	l4,2.3l-0.2,1.9c-0.4,0.1-1.1-0.1-1.1,0.2v0.2c0,0.2-1.2,0-1.5,0l-3.2-0.6h-5.1l-5.1,0.2l-7.2-0.2c-5.2,0-8.1,2.9-11.9,3.4
	c-3.8,0.5-10.6-2.7-14.2-0.4c-2.8,1.7-9.1,1.1-12.7,1.1l-4.7,2.3l-4.2,1.7l-4.9,0.8l-1.9-1.3c0.2-2.3,0.9-2.9,3.2-3.2
	c0.7-0.1,1-0.8,1.7-1.3c0.8-0.5,2-1.1,3-1.5l1.9-1.1l3.6-1.5l3.4-1.1l4.7-1.1l3-0.8l3-2.5l1.7-3v-3.6l-1.1-2.3l0.2-4.7l0.4-3.8
	l-0.2-4.7v-3.4l-3.2-0.4l-1.5-1.7l-1.5-1.3l-0.8-2.5v-6.6V464v-4.9l0.4-3.6c2.2-3.1,10.9-5.1,10.6-2.8c-0.1,0.5,0.1,1,0,1.5
	c0,0.2-0.2,0.3-0.2,0.4c-0.1,0.1,0.1,0.5,0,0.6C131.2,455.6,131.1,455.5,131,455.5z"/>
<path class="st0" d="M363,517.2c0-0.9,0.7-1.6,1.7-1.6h1.3v2.3l-2.9,0.4L363,517.2L363,517.2z M348.4,520.7c2.1,0,2.3-0.4,2.5,1.6
	h3.8l6.3-1.2l2.1-0.4c2.5-1.5,4.5-1,4.6-3.4V516l1.9-1.3l-2.7-0.2L363,514C360.8,522.8,353.2,517.9,348.4,520.7z"/>
<path class="st0" d="M347,521h2.9l0.2,0.4l-2.2,1c-0.3,1.5-2.9,2.5-4.7,2.5H342v-2.3h0.8v-0.8h1.3C345.6,521.8,346.1,521.6,347,521
	L347,521z M331.1,525.7c2.4,0,6.9-0.6,7.9,0.8c-1.2,1.5-2.4,0.4-4.9,0.9c-2.5,0.5-1.1,1-3.1,2.2l-0.8-1.9c-2.7,0-3.6,0.7-3.8-1.5
	l-1.3,0.4l-0.8,2l4-0.2l2.3,1.3v2.7l0.8-1.2h1.3c1.1,0,1.2,0.6,1.7,1.2c1,0,2.5-0.2,2.5,0.8c0,1.3-0.8,0.8-0.8,1.6
	c0,1.5,2,3.1,3.8,3.1l0,1.1l-2.9,0.4l6.3-0.8l6.3,0c0.9,0,0.9,0.3,1.7,0.8v-1.6c-2.2,0-4.5-0.4-7.5-0.4c-5.7,0-3.4-0.8-6.3-1.6
	c0.1-2.9,1.3-1.4,1.3-3.1c0-2.2-4.6-0.6-4.6-2.7v-0.4c0-0.9,0.3-1.2,1.3-1.2h3.3l2.6-2.6l4-0.1l3.7-2.7l-0.3-0.4h1.3
	c0.8,0,0.7-0.1,1.3-0.4c-0.2-1.9-0.4-1.6-2.5-1.6L347,521c-6.4,0-4,0.4-6.3,3.5L331.1,525.7z"/>
<path class="st38" d="M313.2,540.5v-1.2c1.5-0.3,3.3-0.3,3.3-1.9V535c0-1.9-1-0.1-1.7-2.3c0.9-0.2,1-0.4,2.1-0.4h1.3
	c1.6,0,1.3,1.3,1.3,2.7c0.6-0.9,1.1-3.9-0.8-3.9h-5.8c0.1,3.6,3.3,2.1,3.3,4.3v1.6l-3.6,2.1l-0.2,1.3H313.2z"/>
<path class="st0" d="M319.5,535c-0.6,0.9-1.7,1.4-1.7,2.3v3.1h-4.6h-0.8l0.2-1.3l3.6-2.1v-1.6c0-2.2-3.3-0.7-3.3-4.3h5.8
	C320.5,531.1,320.1,534.1,319.5,535L319.5,535z M385,543.6c-3.3-0.1-5.9-1.6-8.3-1.6h-0.4c-1.3,0-1.4,0.7-1.7,1.5l-3.9,0.2l-2.8-3.5
	l-9.6-0.2h-0.8c-4.8,0-5.1-2.8-7.5-4.2l-11.7-0.4v-1.2c0.9-0.2,1.3-0.1,1.3-1.2v-1.2c0-2.6-4.3-0.1-5-2.7h3.3c1.5,0,0.9-1.2,3.6-1.7
	c1.7-0.3,3.3-0.2,4.7-0.7c1.5-0.5,1.8-1.7,2.8-2.4c0.7-0.5,2.5-1.2,3.5-1.7l2.5-0.4h-3.8c-0.5,0.3-0.4,0.4-1.3,0.4h-1.3l0.3,0.4
	l-3.7,2.7l-4,0.1l-2.6,2.6h-3.3c-1,0-1.3,0.3-1.3,1.2v0.4c0,2.1,4.6,0.5,4.6,2.7c0,1.7-1.2,0.2-1.3,3.1c2.9,0.7,0.5,1.6,6.3,1.6
	c3,0,5.3,0.3,7.5,0.4v1.6c-0.8-0.5-0.7-0.8-1.7-0.8l-6.3,0l-6.3,0.8h-2.5c-0.8,0.5-0.7,0.8-1.7,0.8H332c-1.3,0-1.2-0.5-1.3-1.6v-4.7
	v-1.2l-1.7,0.4l-0.4,3.1c0,2.8,0.5,3.4-2.9,3.1c-1.3-0.1-4.8-0.2-5.8-0.8c-1.4-0.5-0.5-2.7,0.8-3.1v-1.2c0-2.6,1.9-3.2,2.9-4.7
	c-0.5-0.3-0.4-0.4-1.3-0.4h-0.8c-0.2,0-2.6,1.1-4.3,1.4c-2.2,0.4-3.6,0.1-5.7,0.5c0.2,1.9,1.2,2.7,2.9,3.1v2.7h-0.8l-2.9,2.3v1.2
	h0.8v0.8c2.5,0.2,0.9,0.8,2.5,0.8h1.7c0.2,0,5.3-1.6,8.3-1.6c3.7,0,7,0.7,10.4,0.4c3.2-0.3,5.3-1.5,9.6-1.5h5.8
	c0.3,0.9,0.4,1.6,1.7,1.6h2.9v1.2c2.3,0.2,4.1,0.4,7.1,0.4c6,0,3.2,0.9,5.8,1.6v1.6l1.6-1.2l0.9,1.5h2.5c6.8-4.3,7.6,0,14.8-1.2
	l1.9,3l3,0.7l4.3-0.9l2.2,0l-1-2.3C396.9,544.5,399.1,545.1,385,543.6z"/>
<path class="st38" d="M363,517.2l0,1.2l2.9-0.4v-2.3h-1.3C363.7,515.6,363,516.3,363,517.2z"/>
<path class="st38" d="M347,521c-0.9,0.6-1.4,0.8-2.9,0.8h-1.3v0.8H342v2.3h1.3c1.9,0,4.4-1,4.7-2.5l2.2-1l-0.2-0.4H347z"/>
<path class="st38" d="M326.6,526.1c0.2,2.2,1.1,1.6,3.8,1.5l0.8,1.9c1.9-1.2,0.6-1.7,3.1-2.2c2.4-0.5,3.7,0.6,4.9-0.9
	c-1.1-1.4-5.5-0.8-7.9-0.8L326.6,526.1z"/>
<path class="st0" d="M313.6,537h0.8v-2.7c-1.7-0.4-2.7-1.2-2.9-3.1c2.1-0.4,3.5-0.2,5.7-0.5c1.8-0.3,4.1-1.4,4.3-1.4h0.8
	c0.8,0,0.7,0.1,1.3,0.4c-1,1.4-2.9,2.1-2.9,4.7v1.2c-1.3,0.4-2.2,2.6-0.8,3.1l0.1-1.1l2-2c0-1.9-0.4-3.3,1.1-4
	c0.6-0.3,3.5-1.8,3.5-1.8h1.7v2.7c0,1.8-0.8,1.6-1.2,3l1.6,0.9l0.4-3.1l1.7-0.4v-0.4v-2.7l-2.3-1.3l-4,0.2l0.8-2l-1.3,0.8H322
	c-2.2,3.8-11.7,2.2-11.7,4.3v2.7c0.9,0.2,1,0.4,2.1,0.4h1.7v1.2C314,537.3,314.2,535.9,313.6,537z"/>
<path class="st38" d="M330.7,533.9v4.7l0.8,0.2l7.1-0.2c-1.4-1.2-3.3-1.1-3.3-3.5c0-1,0.2-1.1,0.4-1.9l-2.5-0.8L330.7,533.9z"/>
<path class="st0" d="M330.7,532.3v0.4v1.2l2.5-1.6l2.5,0.8c-0.2,0.9-0.4,0.9-0.4,1.9c0,2.4,1.9,2.3,3.3,3.5l-7.1,0.2l-0.8-0.2
	c0.1,1.1,0,1.6,1.3,1.6h0.8c0.9,0,0.9-0.3,1.7-0.8h2.5l2.9-0.4l0-1.1c-1.8,0-3.8-1.6-3.8-3.1c0-0.7,0.8-0.3,0.8-1.6
	c0-1-1.5-0.8-2.5-0.8c-0.4-0.6-0.6-1.2-1.7-1.2h-1.3L330.7,532.3z"/>
<path class="st38" d="M313.2,540.5h4.6v-3.1c0-1,1-1.5,1.7-2.3c0-1.4,0.4-2.7-1.3-2.7H317c-1.1,0-1.1,0.2-2.1,0.4
	c0.6,2.2,1.7,0.5,1.7,2.3v2.3c0,1.6-1.9,1.6-3.3,1.9V540.5z"/>
<path class="st39" d="M325.4,525.7h1.7l0.4-1.2l12.1-0.4l2.6-3.8c2.9,0.4,7.3-1.3,8.6-1l6.3-0.4c1.1-0.2,2.2-0.8,3-1.4
	c0.5-0.2,1.1-0.3,1.7-0.3l0.8-2.3l0.8-0.8c-1.3,5.7-4.9,5.8-11.4,5.7c-1.2,0-2.2,0.5-3.2,0.9L347,521l-4,0.2l-1.2,1.3l-1.1,2.3
	l-14.2,1.1l-1.3,0.4V525.7z"/>
<path class="st40" d="M380.5,472.6c4.7,0.9,6.9,8.9,5,17.9c-1.9,9-7.3,15.5-12,14.6c-4.7-0.9-6.9-8.9-5-17.9
	C370.5,478.2,375.8,471.7,380.5,472.6z"/>
<path class="st41" d="M384.8,476.5c1,12.4-2.3,22.2-9.6,28.5"/>
<path class="st42" d="M125.3,244.8c-0.1,2.2,12.6-28.2,14.7-31c2.1-2.7,4.2-3.3,7.3-2.7c2.1,1,2.7,1.7,2.7,3.1
	c0,1.7-0.6,4.2-1.8,6.1c-0.1-2.4-0.2-5.3-2-5.9c-1.7-0.7-3,0.3-3.8,1.6l-14.1,30.6c0,0-5.9,2.4-4.3,0.2
	C125.5,244.8,125.3,244.8,125.3,244.8z"/>
</svg>
