<?xml version="1.0" encoding="UTF-8"?>
<svg style="enable-background:new 0 0 378 216" version="1.1" viewBox="0 0 378 216" xml:space="preserve" xmlns="http://www.w3.org/2000/svg" xmlns:xlink="http://www.w3.org/1999/xlink">
<style type="text/css">
	.st0{fill:#FFFFFF;}
	.st1{fill:#1F2D5E;}
	.st2{fill:#FFDD00;}
	.st3{fill:#E1251B;}
	.st4{fill:none;}
	.st5{clip-path:url(#SVGID_00000072270399214304126080000006216485204757135546_);fill:#FFFFFF;}
	
		.st6{clip-path:url(#SVGID_00000176018119115311943530000009531023337553986209_);fill:url(#SVGID_00000176737459620379168610000010871517747002127756_);}
	.st7{clip-path:url(#SVGID_00000106121326264057293520000016190334516300087199_);}
	.st8{clip-path:url(#SVGID_00000167397265786657792710000015534419285241173895_);}
	.st9{clip-path:url(#SVGID_00000176039941903992937720000018128755598006921609_);fill:#FFFFFF;}
	
		.st10{clip-path:url(#SVGID_00000029026971861249361240000005446387290761541030_);fill:url(#SVGID_00000064336346750023246570000006070172531566332599_);}
	.st11{clip-path:url(#SVGID_00000142886435664432660990000004054651561316025489_);fill:#939598;}
	.st12{clip-path:url(#SVGID_00000126295886507296485780000009226644808563577495_);}
	.st13{clip-path:url(#SVGID_00000015355198530494574680000017946648516127817617_);fill:#FFFFFF;}
	
		.st14{clip-path:url(#SVGID_00000013172965930035550440000008284605730588661181_);fill:url(#SVGID_00000048487091977210848660000008451071401885957797_);}
	.st15{clip-path:url(#SVGID_00000057863953140836699940000004231716008967479728_);fill:#939598;}
	.st16{clip-path:url(#SVGID_00000101073366439154021080000006784436581523740306_);}
	.st17{clip-path:url(#SVGID_00000023265898746825384040000016898117971163010993_);fill:#FFFFFF;}
	
		.st18{clip-path:url(#SVGID_00000155839005349068064180000004644055248800718782_);fill:url(#SVGID_00000000191268177670811730000016240950437142809534_);}
	.st19{clip-path:url(#SVGID_00000181796178462592465440000009584575005890958482_);fill:#939598;}
	.st20{clip-path:url(#SVGID_00000116216394153581466790000001000755649849721016_);}
	.st21{clip-path:url(#SVGID_00000031200895486468722460000008469359171988570268_);fill:#FFFFFF;}
	
		.st22{clip-path:url(#SVGID_00000088850554591999173330000016599259725724127393_);fill:url(#SVGID_00000103982745287135668400000006438778510158915219_);}
	.st23{clip-path:url(#SVGID_00000096754393352982810810000015186138435454549908_);fill:#FFFFFF;}
	.st24{clip-path:url(#SVGID_00000009563560494607826690000010087191780642656667_);}
	.st25{fill:#939598;}
	.st26{clip-path:url(#SVGID_00000106122736793265476470000000943867874056520873_);}
</style>
<path class="st0" d="M0,0h378v216H0V0z"/>
<g>
	<g>
		
		<path class="st1" d="m265.19 29.2h-152.42v112.66c0 21.95 17.81 39.76 39.76 39.76h15.16c8.29 0 9.78.34 11.16.93l10.12 4.26 10.12-4.26c1.38-.6 2.91-.93 11.16-.93h15.16c21.95 0 39.76-17.81 39.76-39.76v-112.66h.02z"/>
		<path class="st0" d="m241 53.39h-104.04v88.47c0 8.59 6.98 15.57 15.57 15.57h21.91c5.64 0 6.68.22 7.62.63l6.91 2.91 6.91-2.91c.97-.41 1.98-.63 7.62-.63h21.91c8.59 0 15.57-6.98 15.57-15.57v-88.47h.02z"/>
		<path class="st2" d="m137.52 141.86c0 8.29 6.76 15.04 15.04 15.04h21.88c5.64 0 6.76.22 7.84.67l6.42 2.73v-106.35h-51.18v87.91z"/>
		<path class="st3" d="m189.26 53.95v106.32l6.42-2.73c1.08-.45 2.2-.67 7.84-.67h21.91c8.29 0 15.04-6.76 15.04-15.04v-87.88h-51.21z"/>
		<rect class="st4" x="106.5" y="25.5" width="165" height="165"/>
		<g>
			<g>
				<defs>
					<path id="a" d="m191.8 34.09c-1.42.93-2.73 1.87-3.36 2.5-5.67.86-11.5 2.17-13.29 2.43-2.65.41-5.49 1.61-10.04.82-.78-.15-2.65-1.75-6.12-2.58-2.31-.56-6.31-1.19-6.01-.82 1.75 2.09 6.35 5.3 6.35 5.9 0 1.53-7.13 5.75-5.6 5.82 4.55.15 10.71-3.06 13.33-3.36.97-.11 2.02-.19 3.1-.22 1.49-.04 2.76.71 3.99 1.42 1.31.78 2.46 1.57 3.66 1.42 1.38-.19 4.52-1.08 4.67-1.12.11.04.19.07.3.07 1.16.37 2.46.78 3.99 1.16 0 0 .52 1.38.52 3.29 0 0 4.96-.19 8.14-1.94 3.51.22 7.58.11 12.36-.6-.41.41-.78.86-1.08 1.31-.67 1.01-1.19 2.61 1.72 1.05 3.02-1.61 7.35-4.93 7.35-4.93.15 0 .34.04.52.04 4.7.11 10.45-3.25 8.25-3.99-.3-.11-1.05-.07-1.05-.07 1.94-1.05 2.61-2.2 1.9-2.31-.26-.04-.67.04-1.16.19 0 0-5.64-3.81-23.48-3.81 0 0-1.23-2.35-5.82-4.4-.12-.04-.94 1.27-3.14 2.73"/>
				</defs>
				<clipPath id="u">
					<use xlink:href="#a"/>
				</clipPath>
				
					<rect x="152.23" y="31.32" width="74.47" height="20.87" clip-path="url(#u)" style="clip-path:url(#u);fill:#FFFFFF"/>
			</g>
		</g>
		<g>
			<g>
				<defs>
					<rect id="s" x="106.5" y="25.5" width="165" height="165"/>
				</defs>
				<clipPath id="aa">
					<use xlink:href="#s"/>
				</clipPath>
				
					<linearGradient id="j" x1="-52.425" x2="-52.119" y1="-406.18" y2="-406.18" gradientTransform="matrix(238.74 0 0 238.74 12668 97011)" gradientUnits="userSpaceOnUse">
					<stop style="stop-color:#FFFFFF" offset="0"/>
					<stop style="stop-color:#000000" offset="1"/>
				</linearGradient>
				
					<path d="m225.32 39.31h-.11c-.26 0-.63.07-1.05.22 0 0-5.64-3.81-23.48-3.81 0 0-1.23-2.35-5.82-4.4 0 0-.82 1.34-3.02 2.76-1.42.93-2.73 1.87-3.36 2.5-5.67.86-11.5 2.17-13.29 2.43-2.02.3-4.18 1.08-7.09 1.08-.9 0-1.87-.07-2.95-.26-.78-.15-2.65-1.75-6.12-2.58-1.83-.41-4.7-.93-5.67-.93-.22 0-.34.04-.34.07 0 0 0 .04.04.04 1.75 2.09 6.35 5.3 6.35 5.9 0 1.38-5.82 4.96-5.82 5.67 0 .07.07.11.22.11h.3c4.52 0 10.45-3.1 13.03-3.36.97-.11 2.02-.19 3.1-.22h.07c2.91 0 5.11 2.84 7.28 2.84.11 0 .19 0 .3-.04 1.38-.19 4.52-1.08 4.67-1.12.11.04.19.07.3.07 1.16.37 2.46.78 3.99 1.16 0 0 .52 1.38.52 3.29 0 0 4.96-.19 8.14-1.94 1.01.07 2.09.11 3.21.11 2.73 0 5.79-.19 9.15-.71-.41.41-.78.86-1.08 1.31-.26.41-.52.93-.52 1.27 0 .26.11.41.45.41s.9-.19 1.79-.63c3.02-1.61 7.35-4.93 7.35-4.93.15 0 .34.04.52.04h.26c3.96 0 8.47-2.31 8.47-3.47 0-.22-.15-.37-.49-.49-.22-.07-.75-.07-.97-.07h-.11c1.42-.75 2.17-1.61 2.17-2.05-.13-.12-.2-.23-.39-.27.19.04.26.11.26.26 0 .45-.75 1.27-2.17 2.05h.11c.22 0 .71 0 .97.07.34.11.49.3.49.49 0 1.16-4.52 3.47-8.47 3.47h-.26c-.19 0-.34 0-.52-.04 0 0-4.33 3.32-7.35 4.93-.86.45-1.46.63-1.79.63s-.45-.19-.45-.41c0-.34.26-.86.52-1.27.3-.45.67-.9 1.08-1.31-3.4.49-6.42.71-9.15.71-1.12 0-2.2-.04-3.21-.11-3.14 1.75-8.14 1.94-8.14 1.94 0-1.9-.52-3.29-.52-3.29-1.49-.37-2.84-.78-3.99-1.16-.11-.04-.19-.07-.3-.07-.11.04-3.29.93-4.67 1.12-.11 0-.19.04-.3.04-2.17 0-4.37-2.84-7.28-2.84h-.07c-1.08.04-2.13.11-3.1.22-2.58.3-8.51 3.36-13.03 3.36h-.3c-.15 0-.22-.04-.22-.11 0-.71 5.82-4.29 5.82-5.67 0-.56-4.59-3.81-6.35-5.9l-.04-.04c0-.04.11-.07.34-.07.97 0 3.85.49 5.67.93 3.47.82 5.34 2.46 6.12 2.58 1.08.19 2.05.26 2.95.26 2.95 0 5.08-.78 7.09-1.08 1.79-.26 7.62-1.57 13.29-2.43.63-.63 1.98-1.57 3.36-2.5 2.2-1.46 3.02-2.76 3.02-2.76 4.59 2.05 5.82 4.4 5.82 4.4 17.84.04 23.48 3.81 23.48 3.81.41-.11.78-.22 1.05-.22.17.01.21.01.24.01z" clip-path="url(#aa)" style="clip-path:url(#aa);fill:url(#j)"/>
			</g>
			<g>
				<defs>
					<rect id="al" x="106.5" y="25.5" width="165" height="165"/>
				</defs>
				<clipPath id="ao">
					<use xlink:href="#al"/>
				</clipPath>
				<path d="m216.36 38.42c-.45 0-.82.11-1.05.26-.22.19-.34.41-.34.71v.07c.04.56.52.97 1.23.97h.22c.71-.07 1.34-.49 1.34-1.05.02-.74-.99-.96-1.4-.96m.08 1.75h-.19c-.63 0-.97-.34-1.01-.75v-.07c0-.26.15-.49.49-.6-.15.11-.19.3-.19.49.04.41.45.63.78.63.41 0 .71-.34.71-.67 0-.26-.19-.41-.37-.49.15.04.3.07.45.15.26.11.45.3.45.52 0 .34-.52.75-1.12.79m1.01 4.29s-.56 0-1.23-.19-1.46-.52-1.87-1.19c-.26-.41-.37-1.01-.37-1.57 0-.82.19-1.57.19-1.57 0-.07-.04-.15-.07-.15-.07 0-.15.04-.15.07 0 0-.19.78-.19 1.64 0 .56.07 1.19.41 1.68.97 1.49 3.32 1.49 3.32 1.49.07 0 .11-.04.11-.11-.04-.02-.08-.1-.15-.1m7.98-4.85c0-.22-.15-.37-.37-.41h-.15c-.26 0-.63.07-1.01.19-.6-.37-6.53-3.77-23.41-3.81-.22-.41-1.64-2.5-5.86-4.37-.07-.04-.11 0-.15.04 0 0-.19.34-.67.82-.49.52-1.23 1.19-2.31 1.9-.26.19-.52.34-.78.52-1.08.75-2.05 1.42-2.58 1.94-5.67.86-11.46 2.17-13.25 2.43-2.05.3-4.18 1.08-7.09 1.08-.9 0-1.87-.07-2.95-.26-.71-.11-2.65-1.75-6.12-2.58-1.83-.41-4.7-.93-5.71-.93-.11 0-.19 0-.26.04-.07 0-.15.04-.19.19 0 .07.04.11.04.11.9 1.05 2.5 2.39 3.85 3.51.67.56 1.31 1.08 1.75 1.49.45.41.75.75.71.78.04.56-1.42 1.87-2.87 3.02-.63.49-1.23.97-1.75 1.38-.07.07-.19.15-.26.19-.56.49-.93.78-.97 1.08 0 .19.19.26.34.26h.3c4.55 0 10.53-3.1 13.07-3.36.97-.11 1.98-.19 3.02-.22h.11c2.09 0 3.85 1.57 5.52 2.35.56.26 1.16.49 1.72.49.11 0 .22 0 .3-.04 1.31-.19 4.26-1.01 4.63-1.12.07.04.19.04.26.07 1.16.37 2.46.78 3.92 1.16.07.26.49 1.53.49 3.17 0 .04 0 .07.04.07.04.04.04.04.07.04 0 0 4.96-.19 8.18-1.94 1.01.07 2.05.11 3.17.11 2.65 0 5.6-.19 8.85-.63-.3.34-.6.71-.86 1.08-.3.41-.56.93-.56 1.34 0 .11.04.22.07.34l.04.04c.11.11.26.15.45.15.37 0 .97-.19 1.83-.67 2.87-1.53 6.94-4.59 7.35-4.89.15 0 .3 0 .45.04h.26c1.98 0 4.14-.6 5.79-1.31 1.64-.75 2.8-1.57 2.84-2.28 0-.26-.22-.49-.56-.6-.19-.04-.41-.07-.63-.07 1.27-.7 1.9-1.44 1.9-1.93m-30.83-8.14c2.24 1.01 3.66 2.09 4.52 2.91.45.41.75.78.9 1.01.07.07.11.15.15.19-.86 0-1.75 0-2.65.04-1.01-1.31-3.25-2.76-3.81-3.14.52-.48.78-.86.89-1.01m-1.05 1.2c.19.11.78.49 1.46 1.01.78.56 1.64 1.27 2.2 1.94-.49 0-.97.04-1.46.04-.3 0-.63.04-.93.04-.71-1.01-1.98-1.79-2.39-2.09.42-.35.79-.64 1.12-.94m-1.94 1.53c.22-.15.41-.26.6-.41.3.19 1.57.97 2.31 1.94-.75.04-1.53.11-2.35.22-.41-.67-.93-1.12-1.19-1.31.19-.18.41-.29.63-.44m-.86.56c.19.15.75.56 1.16 1.19-1.08.11-2.24.26-3.36.45.52-.45 1.31-1.04 2.2-1.64m-13.25 12.5h-.3c-.45 0-.9-.11-1.34-.34.45-.19 1.34-.52 1.9-.67.07 0 .11-.07.07-.15 0-.07-.07-.11-.15-.07-.75.19-1.9.67-2.17.75-.37-.19-.75-.41-1.16-.63.3-.11.9-.26 1.46-.37.07 0 .11-.07.11-.15 0-.07-.07-.11-.15-.11-.75.15-1.49.37-1.68.45-.86-.52-1.75-1.05-2.73-1.34 3.21.04 6.68.49 10.34 1.61-.88.28-3.12.87-4.2 1.02m12.32 3.1c-1.34.22-2.39.3-2.73.3 0-.19 0-.37-.04-.56.49-.04 2.31-.15 3.47-.6.07-.04.07-.11.07-.15-.04-.07-.11-.11-.15-.07-1.08.45-2.91.56-3.4.6-.04-.26-.04-.52-.07-.78.26-.04.82-.15 1.27-.26.07 0 .11-.07.07-.15 0-.07-.07-.11-.15-.07-.45.11-1.01.22-1.27.26-.07-.52-.19-.93-.26-1.16 2.24.56 4.89 1.01 7.99 1.23-1.48.74-3.31 1.15-4.8 1.41m18.22.15c-.86.45-1.42.63-1.72.63-.07 0-.15 0-.19-.04.6-.45 3.25-2.43 5.82-4.22.04-.04.07-.11.04-.19-.04-.04-.11-.07-.19-.04-2.54 1.79-5.19 3.77-5.82 4.22v-.07c0-.3.22-.82.49-1.19.9-1.34 2.39-2.61 3.62-3.51 1.05-.75 1.94-1.27 2.2-1.42.6.52 1.53.93 2.87 1.08-1 .76-4.55 3.37-7.12 4.75m15.08-8.96c-.26.15-.52.26-.78.37-1.68.75-3.51.78-3.99.78h-.15c-.07 0-.11.04-.11.11s.04.11.11.11h.15c.52 0 2.35-.07 4.11-.82.26-.11.52-.26.78-.37h.07c.22 0 .71 0 .93.07.3.11.41.22.41.37.04.45-1.08 1.34-2.69 2.05s-3.73 1.31-5.67 1.31h-.22c-1.83-.04-2.95-.49-3.58-1.12-.71-.67-.9-1.53-.93-2.31 0-.97.34-1.75.3-1.75.04-.07 0-.15-.07-.15-.07-.04-.15 0-.15.07 0 0-.34.82-.34 1.83 0 .78.19 1.68.9 2.39-.6.34-2.95 1.75-4.7 3.58-3.36.49-6.38.67-9.11.67-7.2 0-12.24-1.42-15.79-2.58-4.07-1.34-7.99-1.83-11.5-1.83-.41 0-.78 0-1.19.04h-.04c-1.05.04-2.05.11-2.99.22-2.61.3-8.55 3.36-13.03 3.36h-.3-.07c0-.07.37-.49.86-.9.07-.04.15-.11.19-.15h.07c.45 0 2.09-.15 7.09-1.57.07 0 .11-.07.07-.15s-.07-.11-.15-.07c-4.37 1.23-6.16 1.49-6.79 1.53.75-.6 1.68-1.31 2.5-2.02.34-.04 2.87-.26 3.99-.45.07 0 .11-.07.11-.15s-.07-.11-.15-.11c-.9.15-2.8.34-3.62.41.82-.75 1.49-1.42 1.61-1.98.56-.04 3.36-.15 5.41-.15.78 0 1.46 0 1.87.07.07 0 .11-.04.15-.11 0-.07-.04-.11-.11-.15-.45-.04-1.12-.07-1.9-.07-2.09 0-4.89.15-5.45.15-.11-.22-.37-.49-.75-.82-.37-.34-.9-.78-1.46-1.23.49.04 1.68.26 4.26 1.23h.04c.04 0 .11-.04.11-.07.04-.07 0-.15-.07-.15-2.99-1.12-4.14-1.27-4.52-1.27h-.11c-.6-.49-1.27-1.05-1.87-1.57.67 0 2.69.22 7.32 2.09h.04c.04 0 .11-.04.11-.07.04-.07 0-.15-.07-.15-4.74-1.9-6.76-2.09-7.43-2.09h-.22c-.63-.56-1.19-1.12-1.64-1.61h.15c.93 0 3.85.49 5.64.93 3.43.82 5.26 2.43 6.12 2.58 1.08.19 2.05.26 2.99.26 2.95 0 5.11-.78 7.13-1.08 2.65-.41 14.04-3.02 20.87-3.25 1.57-.04 3.02-.07 4.44-.07 9 0 14.89.97 18.55 1.9 1.83.49 3.1.93 3.92 1.31.45.19.75.34.93.45-1.12.37-2.39.97-2.39.97-.07.04-.07.11-.07.15.04.07.11.07.15.07 0 0 .67-.3 1.46-.63.78-.3 1.72-.63 2.17-.63h.11c.15.04.15.07.19.15-.12.47-.83 1.29-2.21 2.07" clip-path="url(#ao)" style="clip-path:url(#ao)"/>
			</g>
			<g>
				<defs>
					<rect id="ag" x="106.5" y="25.5" width="165" height="165"/>
				</defs>
				<clipPath id="ap">
					<use xlink:href="#ag"/>
				</clipPath>
				<path d="m216.25 38.9c-.11 0-.19 0-.22.04.15 0 .41.07.41.26 0 .15-.19.3-.41.3-.07 0-.11 0-.19-.04.11.11.3.19.45.19.26 0 .49-.22.49-.41-.01-.23-.38-.34-.53-.34" clip-path="url(#ap)" style="clip-path:url(#ap)"/>
			</g>
		</g>
		<g>
			<g>
				<path class="st0" d="m177.61 163.96c-17.84.04-23.48 3.81-23.48 3.81-.49-.15-.9-.22-1.16-.19-.71.11-.04 1.27 1.9 2.31 0 0-.75 0-1.05.07-2.2.75 3.51 4.11 8.25 3.99.19 0 .34 0 .52-.04 0 0 4.33 3.32 7.35 4.93 2.91 1.57 2.39-.04 1.72-1.05-.3-.45-.67-.9-1.08-1.31 4.78.71 8.88.82 12.36.6 3.14 1.75 8.14 1.94 8.14 1.94 0-1.9.52-3.29.52-3.29 1.49-.37 2.84-.78 3.99-1.16.11-.04.19-.07.3-.07.11.04 3.29.93 4.67 1.12 1.16.15 2.35-.63 3.66-1.42 1.19-.71 2.5-1.46 3.99-1.42 1.08.04 2.13.11 3.1.22 2.65.3 8.77 3.51 13.33 3.36 1.49-.04-5.6-4.26-5.6-5.82 0-.56 4.59-3.81 6.35-5.9.34-.37-3.7.26-6.01.82-3.47.82-5.34 2.46-6.12 2.58-4.55.78-7.43-.41-10.04-.82-1.79-.26-7.62-1.57-13.29-2.43-.63-.63-1.98-1.57-3.36-2.5-2.2-1.46-3.02-2.76-3.02-2.76-4.7 2.08-5.94 4.43-5.94 4.43"/>
			</g>
			<g>
				<defs>
					<path id="an" d="m177.61 163.96c-17.84.04-23.48 3.81-23.48 3.81-.49-.15-.9-.22-1.16-.19-.71.11-.04 1.27 1.9 2.31 0 0-.75 0-1.05.07-2.2.75 3.51 4.11 8.25 3.99.19 0 .34 0 .52-.04 0 0 4.33 3.32 7.35 4.93 2.91 1.57 2.39-.04 1.72-1.05-.3-.45-.67-.9-1.08-1.31 4.78.71 8.88.82 12.36.6 3.14 1.75 8.14 1.94 8.14 1.94 0-1.9.52-3.29.52-3.29 1.49-.37 2.84-.78 3.99-1.16.11-.04.19-.07.3-.07.11.04 3.29.93 4.67 1.12 1.16.15 2.35-.63 3.66-1.42 1.19-.71 2.5-1.46 3.99-1.42 1.08.04 2.13.11 3.1.22 2.65.3 8.77 3.51 13.33 3.36 1.49-.04-5.6-4.26-5.6-5.82 0-.56 4.59-3.81 6.35-5.9.34-.37-3.7.26-6.01.82-3.47.82-5.34 2.46-6.12 2.58-4.55.78-7.43-.41-10.04-.82-1.79-.26-7.62-1.57-13.29-2.43-.63-.63-1.98-1.57-3.36-2.5-2.2-1.46-3.02-2.76-3.02-2.76-4.7 2.08-5.94 4.43-5.94 4.43"/>
				</defs>
				<clipPath id="aj">
					<use xlink:href="#an"/>
				</clipPath>
				
					<rect x="151.6" y="159.55" width="74.47" height="20.87" clip-path="url(#aj)" style="clip-path:url(#aj);fill:#FFFFFF"/>
			</g>
		</g>
		<g>
			<g>
				<defs>
					<rect id="t" x="106.5" y="25.5" width="165" height="165"/>
				</defs>
				<clipPath id="r">
					<use xlink:href="#t"/>
				</clipPath>
				
					<linearGradient id="m" x1="-52.423" x2="-52.117" y1="-407.4" y2="-407.4" gradientTransform="matrix(238.74 0 0 238.74 12668 97430)" gradientUnits="userSpaceOnUse">
					<stop style="stop-color:#FFFFFF" offset="0"/>
					<stop style="stop-color:#000000" offset="1"/>
				</linearGradient>
				
					<path d="m152.94 167.58h.11c.26 0 .63.07 1.05.22 0 0 5.64-3.81 23.48-3.81 0 0 1.23-2.35 5.82-4.4 0 0 .82 1.34 3.02 2.76 1.42.93 2.73 1.87 3.36 2.5 5.67.86 11.5 2.17 13.29 2.43 2.02.3 4.18 1.08 7.09 1.08.9 0 1.87-.07 2.95-.26.78-.15 2.65-1.75 6.12-2.58 1.83-.41 4.7-.93 5.67-.93.22 0 .34.04.34.07 0 0 0 .04-.04.04-1.75 2.09-6.35 5.3-6.35 5.9 0 1.38 5.82 4.96 5.82 5.67 0 .07-.07.11-.22.11h-.3c-4.52 0-10.45-3.1-13.03-3.36-.97-.11-2.02-.19-3.1-.22h-.07c-2.91 0-5.11 2.84-7.28 2.84h-.3c-1.38-.19-4.52-1.08-4.67-1.12-.11.04-.19.07-.3.07-1.16.37-2.46.78-3.99 1.16 0 0-.52 1.38-.52 3.29 0 0-4.96-.19-8.14-1.94-1.01.07-2.09.11-3.21.11-2.73 0-5.79-.19-9.15-.71.41.41.78.86 1.08 1.31.26.41.52.93.52 1.27 0 .26-.11.41-.45.41s-.9-.19-1.79-.63c-3.02-1.61-7.35-4.93-7.35-4.93-.15 0-.34.04-.52.04h-.26c-3.96 0-8.47-2.31-8.47-3.47 0-.22.15-.37.49-.49.22-.07.75-.07.93-.07h.11c-1.42-.75-2.17-1.61-2.17-2.05.17-.2.24-.31.43-.31-.19.04-.26.11-.26.26 0 .45.75 1.27 2.17 2.05h-.11c-.22 0-.71 0-.93.07-.34.11-.49.3-.49.49 0 1.16 4.52 3.47 8.47 3.47h.26c.19 0 .34 0 .52-.04 0 0 4.33 3.32 7.35 4.93.86.45 1.46.63 1.79.63.34 0 .45-.19.45-.41 0-.34-.26-.86-.52-1.27-.3-.45-.67-.9-1.08-1.31 3.4.49 6.42.71 9.15.71 1.12 0 2.2-.04 3.21-.11 3.14 1.75 8.14 1.94 8.14 1.94 0-1.9.52-3.29.52-3.29 1.49-.37 2.84-.78 3.99-1.16.11-.04.19-.07.3-.07.11.04 3.29.93 4.67 1.12h.3c2.17 0 4.37-2.84 7.28-2.84h.07c1.08.04 2.13.11 3.1.22 2.58.3 8.51 3.36 13.03 3.36h.3c.15 0 .22-.04.22-.11 0-.71-5.82-4.29-5.82-5.67 0-.56 4.59-3.81 6.35-5.9l.04-.04c0-.04-.11-.07-.34-.07-.97 0-3.85.49-5.67.93-3.47.82-5.34 2.46-6.12 2.58-1.08.19-2.05.26-2.95.26-2.95 0-5.08-.78-7.09-1.08-1.79-.26-7.62-1.57-13.29-2.43-.63-.63-1.98-1.57-3.36-2.5-2.2-1.46-3.02-2.76-3.02-2.76-4.59 2.05-5.82 4.4-5.82 4.4-17.81.04-23.48 3.81-23.48 3.81-.41-.11-.78-.22-1.05-.22-.17.01-.24.01-.28.05z" clip-path="url(#r)" style="clip-path:url(#r);fill:url(#m)"/>
			</g>
			<g>
				<defs>
					<rect id="f" x="106.5" y="25.5" width="165" height="165"/>
				</defs>
				<clipPath id="ae">
					<use xlink:href="#f"/>
				</clipPath>
				<path d="m160.18 167.62c0 .56.67.97 1.34 1.05h.22c.71 0 1.19-.41 1.23-.97v-.07c0-.26-.11-.52-.34-.71-.22-.19-.6-.26-1.05-.26-.35-.01-1.36.21-1.4.96m.26 0c0-.22.19-.41.45-.52.15-.07.3-.11.45-.15-.19.07-.37.26-.37.49 0 .34.3.67.71.67.34 0 .75-.22.78-.63 0-.19-.04-.37-.19-.49.34.11.49.37.49.6v.07c-.04.41-.37.75-1.01.75h-.19c-.63-.05-1.16-.46-1.12-.79m0 5.22c0 .07.04.11.11.11 0 0 2.35 0 3.32-1.49.3-.49.41-1.12.41-1.68 0-.86-.19-1.64-.19-1.64 0-.07-.07-.11-.15-.07-.07 0-.11.07-.07.15 0 0 .19.75.19 1.57 0 .56-.07 1.12-.37 1.57-.41.67-1.19 1.01-1.87 1.19-.67.19-1.23.19-1.23.19-.11-.01-.15.03-.15.1m-6.05-3.06c-.22 0-.49.04-.63.07-.34.11-.56.34-.56.6.04.71 1.19 1.53 2.84 2.28 1.64.75 3.77 1.31 5.79 1.31h.26c.15 0 .3 0 .45-.04.41.3 4.48 3.36 7.35 4.89.9.49 1.46.67 1.83.67.19 0 .34-.04.45-.15l.04-.04c.07-.11.07-.22.07-.34 0-.41-.26-.93-.56-1.34-.26-.37-.52-.75-.86-1.08 3.25.45 6.2.63 8.85.63 1.12 0 2.17-.04 3.17-.11 3.21 1.75 8.14 1.94 8.18 1.94s.07 0 .07-.04c.04-.04.04-.04.04-.07 0-1.64.37-2.87.49-3.17 1.49-.37 2.8-.78 3.92-1.16.07-.04.19-.04.26-.07.37.11 3.32.93 4.63 1.12.11 0 .22.04.3.04.56 0 1.16-.19 1.72-.49 1.68-.82 3.43-2.39 5.52-2.35h.11c1.05.04 2.05.11 3.02.22 2.54.26 8.47 3.36 13.07 3.36h.3c.15 0 .34-.07.34-.26-.04-.3-.41-.6-.97-1.08-.07-.07-.15-.15-.26-.19-.52-.41-1.12-.9-1.75-1.38-1.46-1.12-2.91-2.43-2.87-3.02-.04-.04.26-.37.71-.78s1.08-.93 1.75-1.49c1.38-1.12 2.95-2.46 3.85-3.51.04-.04.04-.07.04-.11 0-.15-.11-.15-.19-.19-.07 0-.15-.04-.26-.04-1.01 0-3.88.52-5.71.93-3.47.82-5.41 2.46-6.12 2.58-1.08.19-2.05.26-2.95.26-2.91 0-5.04-.78-7.09-1.08-1.79-.26-7.58-1.57-13.25-2.43-.52-.52-1.49-1.23-2.58-1.94-.26-.19-.52-.34-.78-.52-1.08-.71-1.83-1.42-2.31-1.9-.49-.52-.67-.82-.67-.82-.04-.04-.11-.07-.15-.04-4.22 1.87-5.64 3.99-5.86 4.37-16.87.04-22.85 3.43-23.41 3.81-.41-.11-.75-.19-1.01-.19h-.15c-.22.04-.37.19-.37.41.08.48.71 1.22 1.9 1.93m29.87-9.07c-.56.37-2.8 1.83-3.81 3.14-.9 0-1.79-.04-2.65-.04.04-.07.07-.11.15-.19.19-.26.49-.6.9-1.01.86-.82 2.28-1.9 4.52-2.91.14.15.4.53.89 1.01m1.34 1.16c-.45.26-1.68 1.08-2.39 2.09-.34-.04-.63-.04-.93-.04-.49 0-.97-.04-1.46-.04.56-.67 1.46-1.38 2.2-1.94.67-.49 1.27-.86 1.46-1.01.26.27.67.6 1.12.94m1.42.97c-.26.19-.82.67-1.19 1.31-.82-.07-1.61-.15-2.35-.22.75-.97 2.02-1.75 2.31-1.94.19.15.37.26.6.41.22.18.44.29.63.44m2.43 1.79c-1.16-.19-2.28-.34-3.36-.45.41-.63.97-1.05 1.16-1.19.89.59 1.68 1.19 2.2 1.64m6.79 9.86c3.66-1.12 7.13-1.57 10.34-1.61-.97.3-1.87.82-2.73 1.34-.22-.07-.93-.3-1.68-.45-.07 0-.11.04-.15.11 0 .07.04.11.11.15.56.11 1.16.26 1.46.37-.41.22-.78.45-1.16.63-.26-.11-1.42-.56-2.17-.75-.07 0-.15.04-.15.07 0 .07.04.15.07.15.6.15 1.46.49 1.9.67-.45.19-.9.34-1.34.34h-.3c-1.02-.13-3.26-.76-4.2-1.02m-12.88 2.68c3.14-.22 5.75-.67 7.99-1.23-.07.22-.19.63-.26 1.16-.26-.04-.82-.11-1.27-.26-.07 0-.15.04-.15.07 0 .07.04.15.07.15.45.11 1.05.22 1.27.26-.04.22-.07.49-.07.78-.49-.04-2.31-.15-3.4-.56-.07-.04-.15 0-.15.07-.04.07 0 .15.07.15 1.16.45 2.99.56 3.47.6 0 .19-.04.37-.04.56-.34-.04-1.42-.07-2.73-.3-1.47-.29-3.3-.7-4.8-1.45m-20.49-3.13c1.34-.15 2.24-.52 2.87-1.08.26.15 1.12.67 2.2 1.42 1.23.9 2.73 2.13 3.62 3.51.26.41.52.9.49 1.19v.07c-.6-.45-3.29-2.43-5.82-4.22-.04-.04-.15-.04-.19.04-.04.04-.04.15.04.19 2.54 1.79 5.23 3.77 5.82 4.22-.04 0-.11.04-.19.04-.3 0-.86-.19-1.72-.63-2.6-1.43-6.15-4.04-7.12-4.75m-10.08-6.2c0-.11.04-.11.19-.15h.11c.45 0 1.38.3 2.17.63.78.3 1.46.63 1.46.63.07.04.15 0 .15-.07.04-.07 0-.15-.07-.15 0 0-1.27-.6-2.39-.97.19-.11.49-.26.93-.45.82-.37 2.09-.82 3.92-1.31 3.66-.97 9.56-1.9 18.55-1.9 1.42 0 2.87.04 4.44.07 6.83.22 18.22 2.84 20.87 3.25 2.02.3 4.14 1.08 7.13 1.08.9 0 1.9-.07 2.99-.26.86-.15 2.69-1.79 6.12-2.58 1.83-.41 4.7-.93 5.64-.93h.15c-.41.49-1.01 1.05-1.64 1.61h-.22c-.67 0-2.73.22-7.43 2.09-.07.04-.07.11-.07.15.04.04.07.07.11.07h.04c4.63-1.83 6.64-2.09 7.32-2.09-.6.52-1.27 1.08-1.87 1.57h-.11c-.41 0-1.53.15-4.52 1.27-.07.04-.11.07-.07.15 0 .04.07.07.11.07h.04c2.58-.97 3.77-1.19 4.26-1.23-.56.45-1.08.9-1.46 1.23-.37.37-.67.6-.75.82-.52-.04-3.36-.15-5.45-.15-.78 0-1.46 0-1.9.07-.07 0-.11.07-.11.15 0 .07.07.11.15.11.41-.04 1.08-.07 1.87-.07 2.09 0 4.85.15 5.41.15.11.56.75 1.23 1.61 1.98-.82-.07-2.73-.26-3.62-.41-.07 0-.11.04-.15.11 0 .07.04.11.11.15 1.08.19 3.66.41 3.99.45.82.71 1.75 1.42 2.5 2.02-.67-.04-2.46-.3-6.79-1.53-.07-.04-.15 0-.15.07s.04.15.07.15c5 1.42 6.64 1.57 7.09 1.57h.07c.07.04.15.11.19.15.52.41.86.78.86.9h-.07-.3c-4.48 0-10.38-3.06-13.03-3.36-.97-.11-1.94-.19-2.99-.22h-.04c-.37 0-.78-.04-1.19-.04-3.51 0-7.43.49-11.5 1.83-3.55 1.16-8.59 2.58-15.79 2.58-2.73 0-5.75-.19-9.11-.67-1.75-1.83-4.11-3.25-4.7-3.58.71-.71.9-1.61.9-2.39 0-1.01-.34-1.83-.34-1.83-.04-.07-.11-.07-.15-.07-.07.04-.07.11-.07.15 0 0 .34.78.3 1.75 0 .78-.19 1.64-.93 2.31-.67.6-1.75 1.05-3.58 1.12h-.22c-1.94 0-4.07-.56-5.67-1.31-1.61-.71-2.73-1.64-2.69-2.05 0-.15.07-.26.41-.37.19-.07.71-.07.9-.07h.07c.22.11.49.26.78.37 1.75.75 3.58.82 4.11.82h.15c.07 0 .11-.07.11-.11 0-.07-.07-.11-.11-.11h-.15c-.52 0-2.31-.07-3.99-.78-.3-.11-.56-.26-.78-.37-1.47-.87-2.18-1.73-2.18-2.07" clip-path="url(#ae)" style="clip-path:url(#ae);fill:#939598"/>
			</g>
			<g>
				<defs>
					<rect id="y" x="106.5" y="25.5" width="165" height="165"/>
				</defs>
				<clipPath id="af">
					<use xlink:href="#y"/>
				</clipPath>
				<path d="m161.75 167.13c.11 0 .19 0 .22.04-.15 0-.41.07-.41.26 0 .15.19.3.41.3.07 0 .11 0 .19-.04-.11.11-.3.19-.45.19-.26 0-.49-.22-.49-.41.01-.23.38-.34.53-.34" clip-path="url(#af)" style="clip-path:url(#af)"/>
			</g>
		</g>
		<g>
			<g>
				<defs>
					<path id="o" d="m122.93 71.94c-.04.26.04.67.19 1.16 0 0-3.81 5.64-3.81 23.48 0 0-2.35 1.23-4.4 5.82 0 0 1.34.82 2.76 3.02.93 1.42 1.87 2.73 2.5 3.36.86 5.67 2.17 11.5 2.43 13.29.41 2.65 1.61 5.49.82 10.04-.15.78-1.75 2.65-2.58 6.12-.56 2.31-1.19 6.31-.82 6.01 2.09-1.75 5.3-6.35 5.9-6.35 1.53 0 5.75 7.13 5.82 5.6.15-4.55-3.06-10.71-3.36-13.33-.11-.97-.19-2.02-.22-3.1-.04-3.06 3.14-5.38 2.84-7.62-.19-1.38-1.08-4.52-1.12-4.67.04-.11.07-.19.07-.3.37-1.16.78-2.46 1.16-3.99 0 0 1.38-.52 3.29-.52 0 0-.19-4.96-1.94-8.14.22-3.51.11-7.58-.6-12.36.41.41.86.78 1.31 1.08 1.01.67 2.61 1.19 1.05-1.72-1.61-3.02-4.93-7.35-4.93-7.35 0-.15.04-.34.04-.52.11-4.7-3.25-10.42-3.99-8.25-.11.3-.07 1.05-.07 1.05-.75-1.42-1.61-2.17-2.05-2.17-.18.1-.26.17-.29.36"/>
				</defs>
				<clipPath id="i">
					<use xlink:href="#o"/>
				</clipPath>
				
					<rect x="114.9" y="70.6" width="20.87" height="74.47" clip-path="url(#i)" style="clip-path:url(#i);fill:#FFFFFF"/>
			</g>
		</g>
		<g>
			<g>
				<defs>
					<rect id="k" x="106.5" y="25.5" width="165" height="165"/>
				</defs>
				<clipPath id="z">
					<use xlink:href="#k"/>
				</clipPath>
				
					<linearGradient id="ak" x1="-48.274" x2="-47.969" y1="-407.32" y2="-407.32" gradientTransform="matrix(66.421 0 0 66.421 3321.1 27163)" gradientUnits="userSpaceOnUse">
					<stop style="stop-color:#FFFFFF" offset="0"/>
					<stop style="stop-color:#000000" offset="1"/>
				</linearGradient>
				
					<path d="m122.93 71.94v.11c0 .26.07.63.22 1.05 0 0-3.81 5.64-3.81 23.48 0 0-2.35 1.23-4.4 5.82 0 0 1.34.82 2.76 3.02.93 1.42 1.87 2.73 2.5 3.36.86 5.67 2.17 11.5 2.43 13.29.3 2.02 1.08 4.18 1.08 7.09 0 .9-.07 1.87-.26 2.95-.15.78-1.75 2.65-2.58 6.12-.41 1.83-.93 4.7-.93 5.67 0 .22.04.34.07.34 0 0 .04 0 .04-.04 2.09-1.75 5.3-6.35 5.9-6.35 1.38 0 4.96 5.82 5.67 5.82.07 0 .11-.07.11-.22v-.3c0-4.52-3.1-10.45-3.36-13.03-.11-.97-.19-2.02-.22-3.1v-.07c0-2.91 2.84-5.11 2.84-7.28v-.3c-.19-1.38-1.08-4.52-1.12-4.67.04-.11.07-.19.07-.3.37-1.16.78-2.46 1.16-3.99 0 0 1.38-.52 3.29-.52 0 0-.19-4.96-1.94-8.14.07-1.01.11-2.09.11-3.21 0-2.73-.19-5.79-.71-9.15.41.41.86.78 1.31 1.08.41.26.93.52 1.27.52.26 0 .41-.11.41-.45s-.19-.9-.63-1.79c-1.61-3.02-4.93-7.35-4.93-7.35 0-.15.04-.34.04-.52v-.26c0-3.96-2.31-8.47-3.47-8.47-.22 0-.37.15-.49.49-.07.22-.07.75-.07.97v.11c-.75-1.42-1.61-2.17-2.05-2.17-.2.13-.28.2-.31.39.04-.19.11-.26.3-.26.45 0 1.27.75 2.05 2.17v-.11c0-.22 0-.71.07-.97.11-.34.3-.49.49-.49 1.16 0 3.47 4.52 3.47 8.47v.26c0 .19 0 .34-.04.52 0 0 3.32 4.33 4.93 7.35.49.86.63 1.46.63 1.79s-.19.45-.41.45c-.34 0-.86-.26-1.27-.52-.45-.3-.9-.67-1.31-1.08.49 3.4.71 6.42.71 9.15 0 1.12-.04 2.2-.11 3.21 1.75 3.14 1.94 8.14 1.94 8.14-1.9 0-3.29.52-3.29.52-.37 1.49-.78 2.84-1.16 3.99-.04.11-.07.19-.07.3.04.11.93 3.29 1.12 4.67v.3c0 2.17-2.84 4.37-2.84 7.28v.07c.04 1.08.11 2.13.22 3.1.3 2.58 3.36 8.51 3.36 13.03v.3c0 .15-.04.22-.11.22-.71 0-4.29-5.82-5.67-5.82-.56 0-3.81 4.59-5.9 6.35l-.04.04c-.04 0-.07-.11-.07-.34 0-.97.49-3.85.93-5.67.82-3.47 2.46-5.34 2.58-6.12.19-1.08.26-2.05.26-2.95 0-2.95-.78-5.08-1.08-7.09-.26-1.79-1.57-7.62-2.43-13.29-.63-.63-1.57-1.98-2.5-3.36-1.46-2.2-2.76-3.02-2.76-3.02 2.05-4.59 4.4-5.82 4.4-5.82.04-17.84 3.81-23.48 3.81-23.48-.11-.41-.22-.78-.22-1.05.01-.13.01-.2.01-.24z" clip-path="url(#z)" style="clip-path:url(#z);fill:url(#ak)"/>
			</g>
			<g>
				<defs>
					<rect id="d" x="106.5" y="25.5" width="165" height="165"/>
				</defs>
				<clipPath id="ar">
					<use xlink:href="#d"/>
				</clipPath>
				<path d="m122.03 80.64c0 .45.11.82.26 1.05.19.22.41.34.71.34h.07c.56-.04.97-.52.97-1.23v-.22c-.07-.71-.49-1.34-1.05-1.34-.77-.02-.96.99-.96 1.4m1.75-.08v.19c0 .63-.34.97-.75 1.01h-.07c-.26 0-.49-.15-.6-.49.11.15.3.19.49.19.41-.04.63-.45.63-.78 0-.41-.34-.71-.67-.71-.26 0-.41.19-.49.37.04-.15.07-.3.15-.45.11-.26.3-.45.52-.45.35-.04.76.49.79 1.12m4.3-1.01s0 .56-.19 1.23-.52 1.46-1.19 1.87c-.41.26-1.01.37-1.57.37-.82 0-1.57-.19-1.57-.19-.07 0-.15.04-.15.07 0 .07.04.15.07.15 0 0 .78.19 1.64.19.56 0 1.19-.07 1.68-.41 1.49-.97 1.49-3.32 1.49-3.32 0-.07-.04-.11-.11-.11-.07.04-.1.08-.1.15m-4.86-7.98c-.22 0-.37.15-.41.37v.15c0 .26.07.63.19 1.01-.37.6-3.77 6.53-3.81 23.41-.41.22-2.5 1.64-4.37 5.86-.04.07 0 .11.04.15 0 0 .34.19.82.67.52.49 1.19 1.23 1.9 2.31.19.26.34.52.52.78.75 1.08 1.42 2.05 1.94 2.58.86 5.67 2.17 11.46 2.43 13.25.3 2.05 1.08 4.18 1.08 7.09 0 .9-.07 1.87-.26 2.95-.11.71-1.75 2.65-2.58 6.12-.41 1.83-.93 4.7-.93 5.71 0 .11 0 .19.04.26 0 .07.04.15.19.19.07 0 .11-.04.11-.04 1.05-.9 2.39-2.5 3.51-3.85.56-.67 1.08-1.31 1.49-1.75.41-.45.75-.75.78-.71.56-.04 1.87 1.42 3.02 2.87.49.63.97 1.23 1.38 1.75.07.07.15.15.19.26.49.56.78.93 1.08.97.19 0 .26-.19.26-.34v-.3c0-4.55-3.1-10.53-3.36-13.07-.11-.97-.19-1.98-.22-3.02v-.11c0-2.09 1.57-3.85 2.35-5.52.26-.56.49-1.16.49-1.72 0-.11 0-.22-.04-.3-.19-1.31-1.01-4.26-1.12-4.63.04-.07.04-.19.07-.26.37-1.16.78-2.46 1.16-3.92.26-.07 1.53-.49 3.17-.49.04 0 .07 0 .07-.04.04-.04.04-.04.04-.07 0 0-.19-4.96-1.94-8.18.07-1.01.11-2.05.11-3.17 0-2.65-.19-5.6-.63-8.85.34.3.71.6 1.08.86.41.3.93.56 1.34.56.11 0 .22-.04.34-.07l.04-.04c.11-.11.15-.26.15-.45 0-.37-.19-.97-.67-1.83-1.53-2.87-4.59-6.94-4.89-7.35 0-.15 0-.3.04-.45v-.26c0-1.98-.6-4.14-1.31-5.79-.75-1.64-1.57-2.8-2.28-2.84-.26 0-.49.22-.6.56-.04.19-.07.41-.07.63-.73-1.27-1.44-1.9-1.93-1.9m-8.17 30.83c1.01-2.24 2.09-3.66 2.91-4.52.41-.45.78-.75 1.01-.9.07-.07.15-.11.19-.15 0 .86 0 1.75.04 2.65-1.31 1.01-2.76 3.25-3.14 3.81-.45-.52-.82-.78-1.01-.89m1.19 1.05c.11-.19.49-.78 1.01-1.46.56-.78 1.27-1.64 1.94-2.2 0 .49.04.97.04 1.46 0 .3.04.63.04.93-1.01.71-1.79 1.98-2.09 2.39-.3-.42-.64-.83-.94-1.12m1.53 1.94c-.15-.22-.26-.41-.41-.6.19-.3.97-1.57 1.94-2.31.04.75.11 1.53.22 2.35-.67.41-1.12.93-1.31 1.19-.14-.19-.29-.41-.44-.63m.6.86c.15-.19.56-.75 1.19-1.16.11 1.08.26 2.24.45 3.36-.48-.52-1.04-1.31-1.64-2.2m12.51 13.25v.3c0 .45-.11.9-.34 1.34-.19-.45-.52-1.34-.67-1.9 0-.07-.07-.11-.15-.07-.07 0-.11.07-.07.15.19.75.67 1.9.75 2.17-.19.37-.41.75-.63 1.16-.11-.3-.26-.9-.37-1.46 0-.07-.07-.11-.15-.11s-.11.07-.11.15c.15.75.37 1.49.45 1.68-.52.86-1.05 1.75-1.34 2.73.04-3.21.49-6.68 1.61-10.34.27.88.87 3.12 1.02 4.2m3.1-12.32c.22 1.34.3 2.39.3 2.73-.19 0-.37 0-.56.04-.04-.49-.15-2.31-.6-3.47-.04-.07-.11-.07-.15-.07-.07.04-.11.11-.07.15.45 1.08.56 2.91.56 3.4-.26.04-.52.04-.78.07-.04-.26-.15-.82-.26-1.27 0-.07-.07-.11-.15-.07-.07 0-.11.07-.07.15.11.45.22 1.01.26 1.27-.52.07-.93.19-1.16.26.56-2.24 1.01-4.89 1.23-7.99.74 1.48 1.18 3.31 1.45 4.8m.11-18.22c.45.86.63 1.42.63 1.72 0 .07 0 .15-.04.19-.45-.6-2.43-3.25-4.22-5.82-.04-.04-.11-.07-.19-.04-.04.04-.07.11-.04.19 1.79 2.54 3.77 5.19 4.22 5.82h-.07c-.3 0-.82-.22-1.19-.49-1.34-.9-2.61-2.39-3.51-3.62-.75-1.05-1.27-1.94-1.42-2.2.52-.6.93-1.53 1.08-2.87.75 1 3.4 4.55 4.75 7.12m-8.96-15.08c.15.26.26.52.37.78.75 1.68.78 3.51.78 3.99v.15c0 .07.04.11.11.11s.11-.04.11-.11v-.15c0-.52-.07-2.35-.82-4.11-.11-.26-.26-.52-.37-.78v-.07c0-.22 0-.71.07-.9.11-.3.22-.41.37-.41.45-.04 1.34 1.08 2.05 2.69s1.31 3.73 1.31 5.67v.22c-.04 1.83-.49 2.95-1.12 3.58-.67.71-1.53.9-2.31.93-.97 0-1.75-.34-1.75-.3-.07-.04-.15 0-.15.07-.04.07 0 .15.07.15 0 0 .82.34 1.83.34.78 0 1.68-.19 2.39-.9.34.6 1.75 2.95 3.58 4.7.49 3.36.67 6.38.67 9.11 0 7.2-1.42 12.24-2.58 15.79-1.34 4.07-1.83 7.99-1.83 11.5 0 .41 0 .78.04 1.19v.04c.04 1.05.11 2.05.22 2.99.3 2.61 3.36 8.55 3.36 13.03v.3.07c-.07 0-.49-.37-.9-.86-.04-.07-.11-.15-.15-.19v-.07c0-.45-.15-2.09-1.57-7.09 0-.07-.07-.11-.15-.07-.07 0-.11.07-.07.15 1.23 4.37 1.49 6.16 1.53 6.79-.6-.75-1.31-1.68-2.02-2.5-.04-.34-.26-2.87-.45-3.99 0-.07-.07-.11-.15-.11s-.11.07-.11.15c.15.9.34 2.8.41 3.62-.75-.82-1.42-1.49-1.98-1.61-.04-.56-.15-3.36-.15-5.41 0-.78 0-1.46.07-1.87 0-.07-.04-.11-.11-.15-.07 0-.11.04-.15.11-.04.45-.07 1.12-.07 1.9 0 2.09.15 4.89.15 5.45-.22.11-.49.37-.82.75-.34.37-.78.9-1.23 1.46.04-.49.26-1.68 1.23-4.26v-.04c0-.04-.04-.11-.07-.11-.07-.04-.15 0-.15.07-1.12 2.99-1.27 4.14-1.27 4.52v.11c-.49.6-1.05 1.27-1.57 1.87 0-.67.22-2.69 2.09-7.32v-.04c0-.04-.04-.11-.07-.11-.07-.04-.15 0-.15.07-1.9 4.74-2.09 6.76-2.09 7.43v.22c-.56.63-1.12 1.19-1.61 1.64v-.15c0-.93.49-3.85.93-5.64.82-3.43 2.43-5.26 2.58-6.12.19-1.08.26-2.05.26-2.99 0-2.95-.78-5.11-1.08-7.13-.41-2.65-3.02-14.04-3.25-20.87-.04-1.57-.07-3.02-.07-4.44 0-9 .97-14.89 1.9-18.55.49-1.83.93-3.1 1.31-3.92.19-.45.34-.75.45-.93.37 1.12.97 2.39.97 2.39.04.07.11.07.15.07.07-.04.07-.11.07-.15 0 0-.3-.67-.63-1.46-.3-.78-.63-1.72-.63-2.17v-.11c.04-.15.07-.15.15-.19.46.09 1.32.8 2.07 2.18" clip-path="url(#ar)" style="clip-path:url(#ar);fill:#939598"/>
			</g>
			<g>
				<defs>
					<rect id="ac" x="106.5" y="25.5" width="165" height="165"/>
				</defs>
				<clipPath id="as">
					<use xlink:href="#ac"/>
				</clipPath>
				<path d="m122.48 80.75c0 .11 0 .19.04.22 0-.15.07-.41.26-.41.15 0 .3.19.3.41 0 .07 0 .11-.04.19.11-.11.19-.3.19-.45 0-.26-.22-.49-.41-.49-.23.01-.34.38-.34.53" clip-path="url(#as)" style="clip-path:url(#as)"/>
			</g>
		</g>
		<g>
			<g>
				<defs>
					<path id="ah" d="m257.95 71.71c-2.09 1.75-5.3 6.35-5.9 6.35-1.53 0-5.75-7.13-5.82-5.6-.15 4.55 3.06 10.71 3.36 13.33.11.97.19 2.02.22 3.1.04 3.06-3.14 5.38-2.84 7.62.19 1.38 1.08 4.52 1.12 4.67-.04.11-.07.19-.07.3-.37 1.16-.78 2.46-1.16 3.99 0 0-1.38.52-3.29.52 0 0 .19 4.96 1.94 8.14-.22 3.51-.11 7.58.6 12.36-.41-.41-.86-.78-1.31-1.08-1.01-.67-2.61-1.19-1.05 1.72 1.61 3.02 4.93 7.35 4.93 7.35 0 .15-.04.34-.04.52-.11 4.7 3.25 10.45 3.99 8.25.11-.3.07-1.05.07-1.05 1.05 1.94 2.2 2.61 2.31 1.9.04-.26-.04-.67-.19-1.16 0 0 3.81-5.64 3.81-23.48 0 0 2.35-1.23 4.4-5.82 0 0-1.34-.82-2.76-3.02-.93-1.42-1.87-2.73-2.5-3.36-.86-5.67-2.17-11.5-2.43-13.29-.41-2.65-1.61-5.49-.82-10.04.15-.78 1.75-2.65 2.58-6.12.52-2.24 1.16-6.01.86-6.01.03-.12-.01-.12-.01-.09"/>
				</defs>
				<clipPath id="au">
					<use xlink:href="#ah"/>
				</clipPath>
				
					<rect x="242.23" y="70.93" width="20.87" height="74.47" clip-path="url(#au)" style="clip-path:url(#au);fill:#FFFFFF"/>
			</g>
		</g>
		<g>
			<g>
				<defs>
					<rect id="am" x="106.5" y="25.5" width="165" height="165"/>
				</defs>
				<clipPath id="g">
					<use xlink:href="#am"/>
				</clipPath>
				
					<linearGradient id="w" x1="-52.665" x2="-52.359" y1="-407.32" y2="-407.32" gradientTransform="matrix(66.421 0 0 66.421 3741 27163)" gradientUnits="userSpaceOnUse">
					<stop style="stop-color:#FFFFFF" offset="0"/>
					<stop style="stop-color:#000000" offset="1"/>
				</linearGradient>
				
					<path d="m255.07 144.02v-.11c0-.26-.07-.63-.22-1.05 0 0 3.81-5.64 3.81-23.48 0 0 2.35-1.23 4.4-5.82 0 0-1.34-.82-2.76-3.02-.93-1.42-1.87-2.73-2.5-3.36-.86-5.67-2.17-11.5-2.43-13.29-.3-2.02-1.08-4.18-1.08-7.09 0-.9.07-1.87.26-2.95.15-.78 1.75-2.65 2.58-6.12.41-1.83.93-4.7.93-5.67 0-.22-.04-.34-.07-.34 0 0-.04 0-.04.04-2.09 1.75-5.3 6.35-5.9 6.35-1.38 0-4.96-5.82-5.67-5.82-.07 0-.11.07-.11.22v.3c0 4.52 3.1 10.45 3.36 13.03.11.97.19 2.02.22 3.1v.07c0 2.91-2.84 5.11-2.84 7.28 0 .11 0 .19.04.3.19 1.38 1.08 4.52 1.12 4.67-.04.11-.07.19-.07.3-.37 1.16-.78 2.46-1.16 3.99 0 0-1.38.52-3.29.52 0 0 .19 4.96 1.94 8.14-.07 1.01-.11 2.09-.11 3.21 0 2.73.19 5.79.71 9.15-.41-.41-.86-.78-1.31-1.08-.41-.26-.93-.52-1.27-.52-.26 0-.41.11-.41.45s.19.9.63 1.79c1.61 3.02 4.93 7.35 4.93 7.35 0 .15-.04.34-.04.52v.26c0 3.96 2.31 8.47 3.47 8.47.22 0 .37-.15.49-.49.07-.22.07-.75.07-.97v-.11c.75 1.42 1.61 2.17 2.05 2.17.13-.09.24-.2.27-.39-.04.19-.11.26-.26.26-.45 0-1.27-.75-2.05-2.17v.11c0 .22 0 .71-.07.97-.11.34-.3.49-.49.49-1.16 0-3.47-4.52-3.47-8.47v-.26c0-.19 0-.34.04-.52 0 0-3.32-4.33-4.93-7.35-.45-.86-.63-1.46-.63-1.79 0-.34.19-.45.41-.45.34 0 .86.26 1.27.52.45.3.9.67 1.31 1.08-.49-3.4-.71-6.42-.71-9.15 0-1.12.04-2.2.11-3.21-1.75-3.14-1.94-8.14-1.94-8.14 1.9 0 3.29-.52 3.29-.52.37-1.49.78-2.84 1.16-3.99.04-.11.07-.19.07-.3-.04-.11-.93-3.29-1.12-4.67 0-.11-.04-.19-.04-.3 0-2.17 2.84-4.37 2.84-7.28v-.07c-.04-1.08-.11-2.13-.22-3.1-.3-2.58-3.36-8.51-3.36-13.03v-.3c0-.15.04-.22.11-.22.71 0 4.29 5.82 5.67 5.82.56 0 3.81-4.59 5.9-6.35l.04-.04c.04 0 .07.11.07.34 0 .97-.49 3.85-.93 5.67-.82 3.47-2.46 5.34-2.58 6.12-.19 1.08-.26 2.05-.26 2.95 0 2.95.78 5.08 1.08 7.09.26 1.79 1.57 7.62 2.43 13.29.63.63 1.57 1.98 2.5 3.36 1.46 2.2 2.76 3.02 2.76 3.02-2.05 4.59-4.4 5.82-4.4 5.82-.04 17.84-3.81 23.48-3.81 23.48.11.41.22.78.22 1.05-.01.17-.01.21-.01.24z" clip-path="url(#g)" style="clip-path:url(#g);fill:url(#w)"/>
			</g>
			<g>
				<defs>
					<rect id="ab" x="106.5" y="25.5" width="165" height="165"/>
				</defs>
				<clipPath id="b">
					<use xlink:href="#ab"/>
				</clipPath>
				<path d="m255.97 135.36c0-.45-.11-.82-.26-1.05-.19-.22-.41-.34-.71-.34h-.07c-.56.04-.97.52-.97 1.23v.22c.07.71.49 1.34 1.05 1.34.77-.02.96-.99.96-1.4m-1.75.08v-.19c0-.63.34-.97.75-1.01h.07c.26 0 .49.15.6.49-.11-.15-.3-.19-.49-.19-.41.04-.63.45-.63.78 0 .41.34.71.67.71.26 0 .41-.19.49-.37-.04.15-.07.3-.15.45-.11.26-.3.45-.52.45-.35 0-.76-.52-.79-1.12m-4.3 1.01s0-.56.19-1.23.52-1.46 1.19-1.87c.41-.26 1.01-.37 1.57-.37.82 0 1.57.19 1.57.19.07 0 .15-.04.15-.07 0-.07-.04-.15-.07-.15 0 0-.78-.19-1.64-.19-.56 0-1.19.07-1.68.41-1.49.97-1.49 3.32-1.49 3.32 0 .07.04.11.11.11.03-.04.1-.08.1-.15m4.86 7.98c.22 0 .37-.15.41-.37v-.15c0-.26-.07-.63-.19-1.01.37-.6 3.77-6.53 3.81-23.41.41-.22 2.5-1.64 4.37-5.86.04-.04 0-.11-.04-.15 0 0-.34-.19-.82-.67-.52-.49-1.19-1.23-1.9-2.31-.19-.26-.34-.52-.52-.78-.75-1.08-1.42-2.05-1.94-2.58-.86-5.67-2.17-11.46-2.43-13.25-.3-2.05-1.08-4.18-1.08-7.09 0-.9.07-1.87.26-2.95.11-.71 1.75-2.65 2.58-6.12.41-1.83.93-4.7.93-5.71 0-.11 0-.19-.04-.26 0-.07-.04-.15-.19-.19-.04 0-.11.04-.11.04-1.05.9-2.39 2.5-3.51 3.85-.56.67-1.08 1.31-1.49 1.75-.41.45-.75.75-.78.71-.56.04-1.87-1.42-3.02-2.87-.49-.63-.97-1.23-1.38-1.75-.07-.07-.15-.15-.19-.26-.49-.56-.78-.93-1.08-.97-.19 0-.26.19-.26.34v.3c0 4.55 3.1 10.53 3.36 13.07.11.97.19 1.98.22 3.02v.11c0 2.09-1.57 3.85-2.35 5.52-.26.56-.49 1.16-.49 1.72 0 .11 0 .22.04.3.19 1.31 1.01 4.26 1.12 4.63-.04.07-.04.19-.07.26-.37 1.16-.78 2.46-1.16 3.92-.26.11-1.53.49-3.17.49-.04 0-.07 0-.07.04-.04.04-.04.04-.04.07 0 0 .19 4.96 1.94 8.18-.07 1.01-.11 2.05-.11 3.17 0 2.65.19 5.6.63 8.85-.34-.3-.71-.6-1.08-.86-.41-.3-.93-.56-1.34-.56-.11 0-.22.04-.34.07l-.04.04c-.11.11-.15.26-.15.45 0 .37.19.97.67 1.83 1.53 2.87 4.59 6.94 4.89 7.35 0 .15 0 .3-.04.45v.26c0 1.98.6 4.14 1.31 5.79.75 1.64 1.57 2.8 2.28 2.84.26 0 .49-.22.6-.56.04-.19.07-.41.07-.63.73 1.27 1.44 1.9 1.93 1.9m8.17-30.83c-1.01 2.24-2.09 3.66-2.91 4.52-.41.45-.78.75-1.01.9-.07.07-.15.11-.19.15 0-.86 0-1.75-.04-2.65 1.31-1.01 2.76-3.25 3.14-3.81.45.52.82.78 1.01.89m-1.19-1.05c-.11.19-.49.78-1.01 1.46-.56.78-1.27 1.64-1.94 2.2 0-.49-.04-.97-.04-1.46 0-.3-.04-.63-.04-.93 1.01-.71 1.79-1.98 2.09-2.39.3.42.64.79.94 1.12m-1.53-1.94c.15.22.26.41.41.6-.19.3-.97 1.57-1.94 2.31-.04-.75-.11-1.53-.22-2.35.67-.41 1.12-.93 1.31-1.19.14.19.29.41.44.63m-.6-.86c-.15.19-.56.75-1.19 1.16-.11-1.08-.26-2.24-.45-3.36.48.52 1.04 1.31 1.64 2.2m-12.51-13.25v-.3c0-.45.11-.9.34-1.34.19.45.52 1.34.67 1.9 0 .07.07.11.15.07.07 0 .11-.07.07-.15-.19-.75-.67-1.9-.75-2.17.19-.37.41-.75.63-1.16.11.3.26.9.37 1.46 0 .07.07.11.15.11.07 0 .11-.07.11-.15-.15-.75-.37-1.49-.45-1.68.52-.86 1.05-1.75 1.34-2.73-.04 3.21-.49 6.68-1.61 10.34-.27-.88-.87-3.12-1.02-4.2m-3.1 12.32c-.22-1.34-.3-2.39-.3-2.73.19 0 .37 0 .56-.04.04.49.15 2.31.6 3.47.04.07.11.07.15.07.07-.04.11-.11.07-.15-.45-1.08-.56-2.91-.56-3.4.26-.04.52-.04.78-.07.04.26.15.82.26 1.27 0 .07.07.11.15.07.07 0 .11-.07.07-.15-.11-.45-.22-1.01-.26-1.27.52-.11.93-.19 1.16-.26-.56 2.24-1.01 4.89-1.23 7.99-.74-1.48-1.18-3.31-1.45-4.8m-.11 18.22c-.45-.86-.63-1.42-.63-1.72 0-.07 0-.15.04-.19.45.6 2.43 3.25 4.22 5.82.04.04.11.07.19.04.04-.04.07-.11.04-.19-1.79-2.54-3.77-5.19-4.22-5.82h.07c.3 0 .82.22 1.19.52 1.34.9 2.61 2.39 3.51 3.62.75 1.05 1.27 1.94 1.42 2.2-.52.6-.93 1.53-1.08 2.87-.79-1.03-3.4-4.58-4.75-7.15m8.96 15.08c-.15-.26-.26-.52-.37-.78-.75-1.68-.78-3.51-.78-3.99v-.15c0-.07-.04-.11-.11-.11s-.11.04-.11.11v.15c0 .52.07 2.35.82 4.11.11.26.26.52.37.78v.07c0 .22 0 .71-.07.9-.11.3-.22.41-.37.41-.45.04-1.34-1.08-2.05-2.69s-1.31-3.73-1.31-5.67v-.22c.04-1.83.49-2.95 1.12-3.58.67-.71 1.53-.9 2.31-.93.97 0 1.75.34 1.75.3.07.04.15 0 .15-.07.04-.07 0-.15-.07-.15 0 0-.82-.34-1.83-.34-.78 0-1.68.19-2.39.9-.34-.6-1.75-2.95-3.58-4.7-.49-3.36-.67-6.38-.67-9.11 0-7.2 1.42-12.24 2.58-15.79 1.34-4.07 1.83-7.99 1.83-11.5 0-.41 0-.78-.04-1.19v-.04c-.04-1.05-.11-2.05-.22-2.99-.3-2.61-3.36-8.55-3.36-13.03v-.3-.07c.07 0 .49.37.9.86.04.07.11.15.15.19v.07c0 .45.15 2.09 1.57 7.09 0 .07.07.11.15.07.07 0 .11-.07.07-.15-1.23-4.37-1.49-6.16-1.53-6.79.6.75 1.31 1.68 2.02 2.5.04.34.26 2.87.45 3.99 0 .07.07.11.15.11.07 0 .11-.07.11-.15-.15-.9-.34-2.8-.41-3.62.75.82 1.42 1.49 1.98 1.61.04.56.15 3.36.15 5.41 0 .78 0 1.46-.07 1.87 0 .07.04.11.11.15.07 0 .11-.04.15-.11.04-.45.07-1.12.07-1.9 0-2.09-.15-4.89-.15-5.45.22-.11.49-.37.82-.75.34-.37.78-.9 1.23-1.46-.04.49-.26 1.68-1.23 4.26v.04c0 .04.04.11.07.11.07.04.15 0 .15-.07 1.12-2.99 1.27-4.14 1.27-4.52v-.11c.49-.6 1.05-1.27 1.57-1.87 0 .67-.22 2.69-2.09 7.32v.04c0 .04.04.11.07.11.07.04.15 0 .15-.07 1.9-4.74 2.09-6.76 2.09-7.43v-.22c.56-.63 1.12-1.19 1.61-1.64v.15c0 .93-.49 3.85-.93 5.64-.82 3.43-2.43 5.26-2.58 6.12-.19 1.08-.26 2.05-.26 2.99 0 2.95.78 5.11 1.08 7.13.41 2.65 3.02 14.04 3.25 20.87.04 1.57.07 3.02.07 4.44 0 9-.97 14.89-1.9 18.55-.49 1.83-.93 3.1-1.31 3.92-.19.45-.34.75-.45.93-.37-1.12-.97-2.39-.97-2.39-.04-.07-.11-.07-.15-.07-.07.04-.07.11-.07.15 0 0 .3.67.63 1.46.3.78.63 1.72.63 2.17v.11c-.04.15-.07.15-.15.19-.46-.09-1.32-.8-2.07-2.18" clip-path="url(#b)" style="clip-path:url(#b);fill:#939598"/>
			</g>
			<g>
				<defs>
					<rect id="h" x="106.5" y="25.5" width="165" height="165"/>
				</defs>
				<clipPath id="e">
					<use xlink:href="#h"/>
				</clipPath>
				<path d="m255.52 135.25c0-.11 0-.19-.04-.22 0 .15-.07.41-.26.41-.15 0-.3-.19-.3-.41 0-.07 0-.11.04-.19-.11.11-.19.3-.19.45 0 .26.22.49.41.49.23-.01.34-.38.34-.53" clip-path="url(#e)" style="clip-path:url(#e)"/>
			</g>
			<g>
				<defs>
					<rect id="c" x="106.5" y="25.5" width="165" height="165"/>
				</defs>
				<clipPath id="ai">
					<use xlink:href="#c"/>
				</clipPath>
				<path d="m207.07 87.73s6.76-.45 6.76-7.39c0-3.96-2.8-7.28-5.94-7.28s-6.38 1.46-18.89 1.46-15.75-1.46-18.89-1.46-5.94 3.29-5.94 7.28c0 6.94 6.76 7.39 6.76 7.39l-18.96 33.15c-.67 1.16-1.05 5.64 1.64 8.29 2.8 2.8 6.01 2.5 6.01 2.5s1.72 3.47 4.03 4.7c2.69 1.42 5.86.3 5.86.3s1.49 2.95 4.14 3.85 5.64-.04 5.64-.04 2.39 2.13 4.96 2.43c2.58.3 4.74-1.08 4.74-1.08s2.17 1.38 4.74 1.08c2.58-.3 4.96-2.43 4.96-2.43s2.99.93 5.64.04 4.14-3.85 4.14-3.85 3.17 1.12 5.86-.3c2.31-1.23 4.03-4.7 4.03-4.7s3.21.3 6.01-2.5c2.69-2.69 2.31-7.13 1.64-8.29l-18.94-33.15z" clip-path="url(#ai)" style="clip-path:url(#ai);fill:#FFFFFF"/>
			</g>
			<g>
				<defs>
					<rect id="p" x="106.5" y="25.5" width="165" height="165"/>
				</defs>
				<clipPath id="x">
					<use xlink:href="#p"/>
				</clipPath>
				
					<linearGradient id="l" x1="-52.448" x2="-52.142" y1="-406.81" y2="-406.81" gradientTransform="matrix(247.12 0 0 247.12 13112 100637)" gradientUnits="userSpaceOnUse">
					<stop style="stop-color:#FFFFFF" offset="0"/>
					<stop style="stop-color:#000000" offset="1"/>
				</linearGradient>
				
					<path d="m207.11 87.69s6.76-.45 6.76-7.39c0-3.99-2.8-7.28-5.94-7.28s-6.38 1.46-18.93 1.46-15.79-1.46-18.93-1.46-5.94 3.32-5.94 7.28c0 6.98 6.76 7.39 6.76 7.39l-19 33.22c-.26.45-.49 1.46-.49 2.61 0 1.79.52 4.07 2.13 5.67 2.31 2.31 4.93 2.5 5.75 2.5h.26s1.72 3.47 4.07 4.7c1.05.56 2.17.71 3.17.71 1.53 0 2.73-.41 2.73-.41s1.49 2.95 4.14 3.85c.86.3 1.75.37 2.58.37 1.72 0 3.06-.45 3.06-.45s2.39 2.13 4.96 2.43c.26.04.49.04.75.04 2.24 0 4.03-1.12 4.03-1.12s1.75 1.12 4.03 1.12c.22 0 .49 0 .75-.04 2.58-.3 4.96-2.43 4.96-2.43s1.38.45 3.06.45c.82 0 1.72-.11 2.58-.37 2.65-.9 4.14-3.85 4.14-3.85s1.19.41 2.73.41c.97 0 2.13-.19 3.17-.71 2.31-1.23 4.07-4.7 4.07-4.7s.11 0 .26 0c.82 0 3.43-.19 5.75-2.5 1.61-1.61 2.13-3.88 2.13-5.67 0-1.19-.22-2.17-.49-2.61l-19.06-33.22 19 33.22c.26.45.49 1.46.49 2.61 0 1.79-.52 4.07-2.13 5.67-2.31 2.31-4.93 2.5-5.75 2.5h-.26s-1.72 3.47-4.07 4.7c-1.05.56-2.17.71-3.17.71-1.53 0-2.73-.41-2.73-.41s-1.49 2.95-4.14 3.85c-.86.3-1.75.37-2.58.37-1.72 0-3.06-.45-3.06-.45s-2.39 2.13-4.96 2.43c-.26.04-.49.04-.75.04-2.24 0-4.03-1.12-4.03-1.12s-1.75 1.12-4.03 1.12c-.22 0-.49 0-.75-.04-2.58-.3-4.96-2.43-4.96-2.43s-1.38.45-3.06.45c-.82 0-1.72-.11-2.58-.37-2.65-.9-4.14-3.85-4.14-3.85s-1.19.41-2.73.41c-.97 0-2.13-.19-3.17-.71-2.31-1.23-4.07-4.7-4.07-4.7s-.11 0-.26 0c-.82 0-3.43-.19-5.75-2.5-1.61-1.61-2.13-3.88-2.13-5.67 0-1.19.22-2.17.49-2.61l19-33.22s-6.76-.45-6.76-7.39c0-3.99 2.8-7.28 5.94-7.28s6.38 1.46 18.93 1.46 15.79-1.46 18.93-1.46 5.94 3.32 5.94 7.28c.05 6.94-6.7 7.39-6.7 7.39z" clip-path="url(#x)" style="clip-path:url(#x);fill:url(#l)"/>
			</g>
		</g>
		<g>
			<g>
				<defs>
					<path id="at" d="m171.53 94.52-15.6 27.25c-.71 1.27-.15 4.18 1.64 5.49 2.02 1.42 4.67.75 4.67.75s.49 2.69 2.61 4.26c2.13 1.57 5.3.71 5.3.71s1.01 2.65 3.62 3.99 5.86.11 5.86.11 1.72 2.13 4.33 2.5c2.65.37 5.04-1.9 5.04-1.9s2.39 2.28 5.04 1.9c2.65-.37 4.33-2.5 4.33-2.5s3.25 1.23 5.86-.11 3.62-3.99 3.62-3.99 3.17.86 5.3-.71 2.61-4.26 2.61-4.26 2.69.67 4.67-.75c1.79-1.27 2.35-4.22 1.64-5.49l-15.6-27.25c-1.83-3.17-7.91-12.28-17.47-12.28s-15.64 9.11-17.47 12.28"/>
				</defs>
				<clipPath id="ad">
					<use xlink:href="#at"/>
				</clipPath>
				
					<rect x="149.8" y="72.83" width="83.99" height="71.71" clip-path="url(#ad)" style="clip-path:url(#ad);fill:#FFFFFF"/>
			</g>
		</g>
		<g>
			<g>
				<defs>
					<rect id="q" x="106.5" y="25.5" width="165" height="165"/>
				</defs>
				<clipPath id="n">
					<use xlink:href="#q"/>
				</clipPath>
				<g clip-path="url(#n)" style="clip-path:url(#n)">
					<path class="st25" d="m222.11 121.66c-3.88-6.79-5.82-10.19-6.79-11.91-.49-.86-.75-1.27-.86-1.49-.07-.11-.07-.15-.11-.19v-.04c-.04-.04-.49-.86-7.76-13.59-1.83-3.17-7.91-12.32-17.55-12.32-9.63 0-15.72 9.15-17.55 12.32-3.88 6.79-5.82 10.19-6.79 11.91-.75 1.31-.93 1.61-.97 1.68-.07.15-.78 1.34-7.76 13.59-.22.37-.34.9-.34 1.46 0 1.42.67 3.25 2.02 4.18 1.05.75 2.28.93 3.21.93.67 0 1.19-.07 1.42-.15.11.56.71 2.8 2.61 4.18 1.05.78 2.31.97 3.36.97.93 0 1.68-.15 1.94-.22.22.52 1.31 2.76 3.62 3.96.97.49 1.98.63 2.91.63 1.42 0 2.61-.37 2.95-.49.34.37 1.94 2.13 4.37 2.46.19.04.41.04.6.04 2.17 0 4.03-1.53 4.44-1.9.41.37 2.28 1.9 4.44 1.9.19 0 .41 0 .6-.04 2.43-.34 4.03-2.09 4.37-2.46.34.11 1.53.49 2.95.49.93 0 1.94-.15 2.91-.63 2.35-1.19 3.4-3.43 3.62-3.96.26.07 1.01.22 1.94.22 1.05 0 2.31-.19 3.36-.97 1.9-1.38 2.5-3.62 2.61-4.18.22.04.75.15 1.42.15.93 0 2.17-.19 3.21-.93 1.34-.97 2.02-2.76 2.02-4.18-.08-.52-.19-1.04-.42-1.42m-1.79 5.45c-1.01.71-2.17.9-3.06.9-.71 0-1.27-.11-1.46-.15l-5.19-10.15c-.04-.07-.11-.07-.19-.07-.07.04-.07.11-.07.19l5.19 10.19c-.04.15-.15.75-.49 1.46-.37.86-1.01 1.9-2.05 2.65-.97.71-2.2.9-3.21.9-.56 0-1.05-.07-1.42-.11-.22-.04-.41-.07-.49-.11l-3.7-11.95c-.04-.07-.11-.11-.15-.07-.07.04-.11.11-.07.15l3.73 11.98c-.07.15-.3.71-.78 1.42-.56.82-1.46 1.79-2.73 2.46-.9.45-1.9.63-2.8.63-.82 0-1.53-.11-2.09-.26-.41-.07-.67-.19-.78-.22l-2.09-14.37c0-.07-.07-.11-.15-.11-.07 0-.11.07-.11.15l2.09 14.41c-.11.15-.49.56-1.12 1.05-.75.56-1.79 1.19-3.1 1.34-.19.04-.37.04-.56.04-1.16 0-2.28-.49-3.06-.97-.67-.41-1.12-.78-1.27-.93v-27.36c0-.07-.07-.15-.15-.15s-.15.07-.15.15v27.33c-.11.11-.6.52-1.27.93-.78.49-1.9.97-3.06.97-.19 0-.37 0-.56-.04-1.31-.19-2.35-.78-3.1-1.34-.63-.49-1.01-.93-1.12-1.05l2.09-14.41c0-.07-.04-.15-.11-.15s-.15.04-.15.11l-2.09 14.37c-.3.11-1.46.49-2.87.49-.9 0-1.9-.15-2.8-.63-1.27-.67-2.17-1.64-2.73-2.46-.49-.71-.75-1.27-.78-1.42l3.73-11.98c.04-.07 0-.15-.07-.15-.07-.04-.15 0-.15.07l-3.7 11.95c-.22.04-.97.22-1.9.22-1.01 0-2.24-.19-3.21-.9-1.05-.75-1.68-1.79-2.05-2.65-.34-.75-.45-1.31-.49-1.46l5.19-10.19c.04-.07 0-.15-.07-.19s-.15 0-.19.07l-5.19 10.15c-.15.04-.71.15-1.46.15-.9 0-2.09-.19-3.06-.9-1.23-.9-1.9-2.61-1.9-3.99 0-.52.11-.97.3-1.31 7.17-12.51 7.73-13.55 7.8-13.63l7.8-13.63c1.79-3.17 7.88-12.21 17.36-12.21s15.53 9.03 17.36 12.21l7.8 13.63v.04c.11.19.97 1.68 7.76 13.59.19.34.3.78.3 1.31-.03 1.4-.7 3.15-1.93 4.01m-50.58-43.93c.52.3 1.12.45 1.68.45.75 0 1.49-.26 2.09-.71l-2.69 4.7c-.04.07 0 .15.04.15s.04 0 .07 0c.04 0 .07-.04.11-.07l3.25-5.67c.04-.04.07-.07.11-.15.3-.52.45-1.12.45-1.68 0-1.16-.6-2.31-1.72-2.95-.52-.3-1.12-.45-1.68-.45-1.16 0-2.31.6-2.95 1.72-.3.52-.45 1.12-.45 1.68-.03 1.22.57 2.38 1.69 2.98m-1.05-4.48c.56-1.01 1.61-1.57 2.69-1.57.52 0 1.05.15 1.53.41 1.01.56 1.57 1.61 1.57 2.69 0 .52-.15 1.05-.41 1.53-.56 1.01-1.61 1.57-2.69 1.57-.52 0-1.05-.15-1.53-.41-1.01-.56-1.57-1.61-1.57-2.69 0-.49.15-1.05.41-1.53m35.06 3.39 3.25 5.67c.04.04.07.07.11.07s.04 0 .07 0c.07-.04.07-.11.04-.15l-2.69-4.7c.6.45 1.34.71 2.09.71.56 0 1.16-.15 1.68-.45 1.08-.63 1.72-1.75 1.72-2.95 0-.56-.15-1.16-.45-1.68-.63-1.08-1.75-1.72-2.95-1.72-.56 0-1.16.15-1.68.45-1.08.63-1.72 1.75-1.72 2.95 0 .56.15 1.16.45 1.68.04.01.08.05.08.12m1.3-4.55c.49-.26 1.01-.41 1.53-.41 1.08 0 2.13.56 2.69 1.57.26.49.41 1.01.41 1.53 0 1.08-.56 2.13-1.57 2.69-.49.26-1.01.41-1.53.41-1.08 0-2.13-.56-2.69-1.57-.3-.49-.41-1.01-.41-1.53 0-1.05.56-2.09 1.57-2.69"/>
					<path class="st25" d="m193.44 139.84c-2.05 0-3.81-1.31-4.44-1.83-.63.52-2.39 1.83-4.44 1.83-.19 0-.41 0-.63-.04-2.31-.34-3.92-1.94-4.4-2.43-.45.15-1.57.45-2.91.45-1.12 0-2.13-.22-2.99-.67-2.2-1.16-3.29-3.14-3.66-3.92-.34.07-1.01.19-1.83.19-1.38 0-2.58-.34-3.47-1.01-1.79-1.31-2.43-3.32-2.65-4.14-.3.04-.75.11-1.31.11-1.31 0-2.43-.34-3.32-.97-1.42-1.05-2.09-2.91-2.09-4.33 0-.6.11-1.16.34-1.53 6.46-11.27 7.54-13.18 7.73-13.51l.11-.11 7.76-13.55c1.68-2.91 7.88-12.39 17.69-12.39s16.05 9.48 17.69 12.39l15.57 27.21c.22.41.34.93.34 1.53 0 1.42-.63 3.32-2.09 4.33-.9.63-2.05.97-3.32.97-.56 0-1.01-.07-1.31-.11-.19.82-.86 2.84-2.65 4.14-.9.67-2.05 1.01-3.47 1.01-.82 0-1.49-.11-1.83-.19-.34.78-1.46 2.76-3.66 3.92-.86.45-1.87.67-2.99.67-1.31 0-2.46-.3-2.91-.45-.52.6-2.09 2.13-4.4 2.43h-.46zm-4.14-2.35c.22.19.63.52 1.16.86.71.41 1.79.93 2.95.93.19 0 .37 0 .56-.04 1.31-.19 2.35-.82 3.02-1.31.52-.41.9-.78 1.05-.97l-2.05-14.33c-.04-.19.11-.34.26-.34h.04c.15 0 .3.11.3.26l2.05 14.26c.15.04.37.11.67.19.71.15 1.38.26 2.05.26 1.01 0 1.94-.19 2.73-.6 1.27-.67 2.17-1.68 2.65-2.39.41-.6.67-1.12.75-1.34l-3.7-11.91c-.04-.07 0-.15.04-.22s.11-.11.19-.15c.15-.04.34.04.37.22l3.7 11.83c.11.04.22.04.41.07.45.07.93.11 1.38.11.86 0 2.09-.15 3.1-.9 1.05-.75 1.68-1.83 2.02-2.58.3-.63.41-1.16.45-1.38l-5.19-10.12c-.04-.07-.04-.15 0-.22s.07-.15.15-.19c.15-.07.34 0 .41.15l5.15 10.08c.22.04.71.11 1.31.11.82 0 1.98-.15 2.99-.86 1.19-.86 1.83-2.58 1.83-3.85 0-.49-.07-.93-.26-1.23l-15.6-27.25c-1.61-2.84-7.65-12.13-17.17-12.13-9.56 0-15.6 9.26-17.21 12.13l-7.65 13.4-.15.22c0 .04-.15.3-1.08 1.9l-6.68 11.72c-.19.3-.26.75-.26 1.23 0 1.27.63 2.99 1.83 3.85.97.71 2.17.86 2.99.86.63 0 1.12-.07 1.31-.11l5.15-10.08c.07-.15.26-.22.41-.15s.22.26.15.41l-5.19 10.12c.11.45.26.93.45 1.38.34.75.97 1.83 2.02 2.58 1.01.71 2.24.9 3.1.9.78 0 1.46-.11 1.79-.19l3.7-11.87c.04-.15.22-.26.37-.19.07.04.15.07.19.15.04.07.04.15.04.22l-3.7 11.91c.11.26.37.75.75 1.34.52.75 1.38 1.75 2.65 2.39.78.41 1.68.6 2.73.6 1.23 0 2.31-.3 2.73-.41l2.05-14.26c.04-.15.15-.26.3-.26h.04c.07 0 .15.04.22.11.04.07.07.15.07.22l-2.05 14.33c.15.19.52.56 1.05.97.67.52 1.72 1.16 3.02 1.31.19.04.37.04.52.04 1.16 0 2.28-.52 2.95-.93.6-.34 1.01-.71 1.16-.86v-27.21c0-.19.15-.3.3-.3.19 0 .3.15.3.3v27.18h-.14zm17.81-49.5c-.11 0-.22-.07-.26-.15l-3.29-5.71c-.04-.04-.04-.07-.07-.11-.3-.52-.49-1.16-.49-1.75 0-1.27.67-2.46 1.79-3.1.52-.3 1.16-.49 1.75-.49 1.27 0 2.46.67 3.1 1.79.3.52.49 1.16.49 1.75 0 1.27-.67 2.46-1.79 3.1-1.01.56-2.28.6-3.32.11l2.35 4.11c.04.07.04.15.04.22-.04.07-.07.15-.15.19-.04 0-.08.04-.15.04zm-.53-10.68c-.52 0-1.01.15-1.46.37-.9.52-1.49 1.49-1.49 2.54 0 .52.15 1.01.37 1.46.52.9 1.49 1.49 2.54 1.49.52 0 1.01-.15 1.46-.37l.07-.04c.86-.52 1.42-1.49 1.42-2.5 0-.52-.15-1.01-.37-1.46-.48-.93-1.49-1.49-2.54-1.49zm-35.69 10.68c-.04 0-.11 0-.15-.04-.07-.04-.11-.11-.15-.19-.04-.07 0-.15.04-.22l2.35-4.11c-1.05.52-2.31.49-3.32-.11-1.12-.63-1.79-1.83-1.79-3.1 0-.63.15-1.23.49-1.75.63-1.12 1.83-1.79 3.1-1.79.6 0 1.23.15 1.75.49 1.12.63 1.79 1.83 1.79 3.1 0 .63-.15 1.23-.49 1.75-.04.04-.04.07-.07.11l-.04.04-3.25 5.67c-.07.08-.14.15-.26.15zm.53-10.68c-1.05 0-2.02.56-2.54 1.49-.26.45-.37.93-.37 1.46 0 1.05.56 2.02 1.49 2.54.45.26.93.37 1.46.37 1.05 0 2.02-.56 2.54-1.49.26-.45.37-.93.37-1.46 0-1.05-.56-2.02-1.49-2.54-.45-.22-.98-.37-1.46-.37z"/>
				</g>
			</g>
			<g>
				<defs>
					<rect id="aq" x="106.5" y="25.5" width="165" height="165"/>
				</defs>
				<clipPath id="v">
					<use xlink:href="#aq"/>
				</clipPath>
				<g clip-path="url(#v)" style="clip-path:url(#v)">
					<path class="st25" d="m226.4 120.73c-9.52-16.61-14.26-24.9-16.61-29.08l-2.13-3.7c.67-.11 1.83-.37 2.99-1.08 1.61-.93 3.55-2.84 3.55-6.61 0-4.14-2.87-7.62-6.27-7.62-1.08 0-2.2.19-3.58.37-2.8.41-7.02 1.08-15.34 1.08s-12.54-.63-15.34-1.08c-1.42-.22-2.5-.37-3.58-.37-3.4 0-6.27 3.51-6.27 7.62 0 3.77 1.94 5.67 3.55 6.61 1.16.67 2.35.97 2.99 1.08l-.19.3-18.59 32.48c-.34.56-.52 1.64-.52 2.8 0 1.38.3 3.99 2.24 5.94 2.43 2.43 5.19 2.61 5.97 2.61h.07c.45.82 2.02 3.55 4.11 4.63.97.52 2.09.78 3.32.78 1.16 0 2.13-.22 2.54-.34.49.86 1.94 2.99 4.22 3.77.78.26 1.72.41 2.69.41 1.38 0 2.54-.26 2.99-.41.6.49 2.69 2.13 5.04 2.39.26.04.52.04.78.04 1.9 0 3.47-.75 4.03-1.08.56.34 2.13 1.08 4.03 1.08.26 0 .52 0 .78-.04 2.31-.26 4.44-1.9 5.04-2.39.45.11 1.61.41 2.99.41.97 0 1.87-.15 2.69-.41 2.28-.78 3.7-2.91 4.22-3.77.45.11 1.42.34 2.54.34 1.23 0 2.35-.26 3.32-.78 2.05-1.08 3.58-3.7 4.11-4.63h.07c.78 0 3.55-.19 5.97-2.61 1.94-1.94 2.24-4.55 2.24-5.94-.13-1.16-.32-2.24-.66-2.8m-2.01 8.4c-2.28 2.28-4.85 2.46-5.67 2.46h-.26c-.04 0-.11.04-.11.07 0 0-.41.86-1.16 1.87-.71 1.01-1.72 2.17-2.87 2.76-1.05.56-2.13.71-3.1.71-.75 0-1.42-.11-1.9-.19-.49-.11-.78-.19-.78-.19-.07-.04-.11 0-.15.07 0 0-.37.71-1.08 1.57s-1.72 1.79-3.02 2.24c-.86.3-1.72.37-2.54.37-1.68 0-3.02-.41-3.02-.41-.04 0-.07 0-.11.04 0 0-.6.52-1.49 1.08-.9.56-2.13 1.16-3.4 1.31-.26.04-.49.04-.71.04-1.12 0-2.09-.26-2.8-.56-.71-.26-1.16-.56-1.16-.56-.04-.04-.07-.04-.15 0 0 0-.45.26-1.16.56-.71.26-1.72.56-2.8.56-.22 0-.49 0-.71-.04-2.54-.3-4.89-2.39-4.93-2.39-.04-.04-.07-.04-.11-.04 0 0-1.34.41-3.02.41-.82 0-1.68-.11-2.54-.37-1.31-.45-2.31-1.38-3.02-2.24-.71-.82-1.08-1.57-1.08-1.57-.04-.04-.07-.07-.15-.07 0 0-1.16.41-2.69.41-.97 0-2.09-.15-3.1-.71-1.12-.6-2.13-1.75-2.87-2.76-.71-1.01-1.16-1.87-1.16-1.87-.04-.04-.07-.07-.11-.07h-.26c-.82 0-3.36-.19-5.67-2.46-1.61-1.57-2.09-3.81-2.09-5.6 0-1.16.22-2.13.45-2.58l19-33.22c.04-.04.04-.07 0-.11s-.07-.07-.11-.07c0 0-1.68-.11-3.32-1.08-1.68-.97-3.32-2.76-3.32-6.2 0-1.98.67-3.77 1.75-5.08s2.54-2.09 4.07-2.09c3.1 0 6.38 1.46 18.93 1.46s15.83-1.46 18.93-1.46c1.53 0 2.99.82 4.07 2.09 1.08 1.31 1.75 3.1 1.75 5.08 0 3.43-1.64 5.23-3.32 6.2-.82.49-1.68.75-2.28.9-.63.15-1.05.19-1.05.19-.04 0-.07.04-.11.07-.04.04-.04.07 0 .11l19 33.22c.26.41.49 1.38.45 2.58.15 1.75-.37 3.99-1.94 5.56"/>
					<path class="st25" d="m193.03 143.54c-1.87 0-3.4-.71-4.03-1.05-.63.34-2.17 1.05-4.03 1.05-.26 0-.52 0-.78-.04-2.28-.26-4.37-1.79-5.04-2.35-.49.11-1.61.37-2.95.37-1.01 0-1.9-.15-2.73-.41-2.24-.75-3.66-2.76-4.26-3.73-.52.15-1.42.3-2.46.3-1.27 0-2.43-.26-3.4-.78-2.05-1.08-3.62-3.7-4.11-4.63-.86 0-3.62-.22-6.08-2.65-1.98-1.98-2.28-4.63-2.28-6.05 0-1.19.22-2.28.56-2.87l18.63-32.55c-.67-.15-1.75-.41-2.8-1.05-1.68-.97-3.66-2.91-3.62-6.76 0-4.22 2.95-7.8 6.46-7.8 1.08 0 2.2.19 3.62.37 2.8.41 7.02 1.08 15.31 1.08 8.32 0 12.51-.63 15.31-1.08 1.42-.22 2.5-.37 3.62-.37 3.51 0 6.46 3.58 6.46 7.8 0 3.85-1.98 5.79-3.62 6.76-1.08.63-2.13.9-2.8 1.05l1.98 3.51c2.39 4.14 7.13 12.47 16.61 29.08.34.6.56 1.72.56 2.87 0 1.42-.3 4.07-2.28 6.05-2.43 2.43-5.23 2.65-6.08 2.65-.6 1.12-2.09 3.55-4.11 4.63-1.01.52-2.13.78-3.4.78-1.05 0-1.94-.19-2.46-.3-.56.93-2.02 2.95-4.22 3.73-.82.26-1.75.41-2.73.41-1.34 0-2.46-.26-2.95-.37-.67.56-2.76 2.09-5.04 2.35-.34-.04-.6 0-.86 0zm-13.81-2.8.07.07c.6.49 2.65 2.09 4.93 2.35.26.04.49.04.75.04 1.87 0 3.36-.75 3.96-1.05l.07-.04.07.04c.56.3 2.09 1.05 3.96 1.05.26 0 .49 0 .75-.04 2.24-.26 4.33-1.87 4.93-2.35l.07-.07.07.04c.41.11 1.57.37 2.95.37.97 0 1.83-.15 2.61-.41 2.2-.75 3.62-2.84 4.11-3.7l.07-.11.15.04c.45.11 1.38.34 2.5.34 1.19 0 2.31-.26 3.25-.75 2.05-1.08 3.58-3.77 4.03-4.59l.04-.11h.15c.78 0 3.47-.19 5.86-2.58 1.9-1.9 2.17-4.44 2.17-5.82 0-1.12-.19-2.17-.52-2.73-9.52-16.61-14.26-24.9-16.61-29.08l-2.24-3.92.26-.04c.6-.11 1.75-.37 2.95-1.05 1.57-.9 3.47-2.76 3.47-6.46 0-4.03-2.8-7.43-6.12-7.47-1.08 0-2.17.19-3.55.37-2.8.41-7.02 1.08-15.38 1.08-8.32 0-12.58-.63-15.38-1.08-1.38-.22-2.5-.37-3.55-.37-3.32 0-6.08 3.43-6.12 7.47 0 3.7 1.87 5.52 3.47 6.46 1.16.67 2.35.93 2.95 1.05l.26.04-.3.52-18.59 32.48c-.3.56-.49 1.57-.52 2.73 0 1.34.3 3.92 2.17 5.82 2.39 2.39 5.11 2.54 5.86 2.58h.15l.04.11c.45.78 1.98 3.51 4.03 4.59.93.49 2.02.75 3.25.75 1.12 0 2.05-.22 2.5-.34l.15-.04.07.11c.49.86 1.9 2.91 4.11 3.7.78.26 1.68.41 2.61.41 1.38 0 2.5-.26 2.95-.37l.11-.04zm13.81 2.31c-.93 0-1.9-.19-2.87-.56-.34-.11-.63-.26-.9-.41v.04l-.26-.15c-.11.07-.52.3-1.16.56-.97.37-1.94.56-2.87.56-.26 0-.52 0-.75-.04-2.24-.26-4.33-1.87-4.96-2.39l-.04-.04c-.19.07-1.49.41-3.06.41-.93 0-1.83-.15-2.58-.37-1.38-.49-2.46-1.49-3.1-2.28-.56-.67-.9-1.27-1.05-1.53v-.04c-.22.07-1.31.41-2.69.41-1.19 0-2.28-.26-3.21-.75-1.23-.63-2.28-1.9-2.91-2.84-.6-.82-.97-1.57-1.12-1.87h-.22c-.75 0-3.43-.19-5.79-2.54-1.94-1.94-2.13-4.67-2.13-5.71 0-1.23.26-2.24.49-2.65l18.96-33.15c-.37-.04-1.87-.22-3.32-1.08-2.24-1.31-3.4-3.47-3.4-6.35 0-1.94.63-3.77 1.79-5.19 1.12-1.38 2.65-2.17 4.18-2.17 1.05 0 2.09.15 3.51.37 2.8.41 7.06 1.08 15.42 1.08s12.58-.63 15.42-1.08c1.42-.22 2.46-.37 3.51-.37 1.53 0 3.06.78 4.22 2.17 1.16 1.42 1.79 3.25 1.79 5.19 0 2.91-1.16 5.04-3.4 6.35-.9.52-1.75.78-2.35.93-.45.11-.78.15-.97.19l18.96 33.15c.26.41.49 1.42.49 2.65 0 1.08-.22 3.81-2.13 5.71-2.35 2.35-5.04 2.54-5.79 2.54h-.22c-.07.15-.49.93-1.12 1.87-.67.93-1.72 2.2-2.91 2.84-.93.49-2.02.75-3.21.75-.63 0-1.27-.07-1.94-.22-.26-.07-.52-.11-.75-.19-.07.19-.45.82-1.08 1.57-.63.78-1.72 1.83-3.1 2.28-.78.26-1.64.37-2.58.37-1.42 0-2.61-.3-3.06-.41-.19.19-.78.63-1.49 1.08-.86.52-2.13 1.19-3.47 1.34-.29-.03-.55-.03-.78-.03zm-3.92-1.45.07.04c.34.19.71.37 1.12.52.93.37 1.87.56 2.73.56.22 0 .45 0 .71-.04 1.27-.15 2.54-.78 3.32-1.27s1.34-.93 1.46-1.05l.04-.04c.07-.07.15-.07.26-.07h.04c.34.11 1.53.41 2.95.41.9 0 1.75-.11 2.46-.37 1.31-.45 2.31-1.42 2.95-2.17.67-.82 1.05-1.53 1.05-1.53.07-.11.19-.19.34-.15h.04c.22.07.49.15.75.19.63.15 1.23.19 1.87.19 1.12 0 2.17-.22 3.02-.71 1.16-.6 2.17-1.83 2.8-2.73s1.05-1.68 1.12-1.83c.04-.11.15-.15.26-.15h.26c.75 0 3.29-.19 5.52-2.43 1.83-1.83 2.05-4.44 2.05-5.49 0-1.16-.22-2.09-.45-2.46l-19-33.22c-.04-.07-.04-.19 0-.3.04-.07.07-.11.15-.15h.11c.15 0 .49-.04 1.01-.19.56-.15 1.38-.37 2.24-.9 2.13-1.23 3.21-3.29 3.25-6.05 0-1.83-.6-3.58-1.72-4.93-1.08-1.31-2.5-2.05-3.92-2.05-1.05 0-2.05.15-3.47.37-2.84.41-7.09 1.08-15.45 1.08s-12.62-.63-15.45-1.08c-1.42-.22-2.46-.37-3.47-.37-1.42 0-2.87.75-3.92 2.05-1.12 1.34-1.72 3.1-1.72 4.93 0 2.76 1.08 4.82 3.25 6.05 1.61.93 3.25 1.05 3.25 1.05.11 0 .19.07.26.15.04.07.04.19 0 .3l-19 33.22c-.22.37-.45 1.31-.45 2.46 0 1.05.19 3.66 2.05 5.49 2.24 2.24 4.82 2.43 5.52 2.43h.26c.11 0 .22.04.26.11l.04.04c.11.22.52.97 1.12 1.83.63.9 1.64 2.13 2.8 2.73.86.45 1.9.71 3.02.71 1.42 0 2.58-.37 2.61-.41.11-.04.26 0 .34.07l.04.07c.11.22.49.82 1.05 1.53.63.75 1.64 1.72 2.95 2.17.75.26 1.57.37 2.46.37 1.57 0 2.84-.37 2.99-.41.07-.04.15 0 .22 0l.07.07c.56.49 2.61 2.09 4.78 2.35.22.04.45.04.71.04 1.12 0 2.13-.3 2.76-.56s1.05-.49 1.12-.52l.04-.04c-.05.05.03.05.1.09z"/>
				</g>
			</g>
		</g>
	</g>
</g>
</svg>
