<?xml version="1.0" encoding="UTF-8"?>
<svg width="512" height="512" version="1.2" viewBox="0 0 512 512" xmlns="http://www.w3.org/2000/svg">
 <title>Coat_of_arms_of_Baja_California_Sur-svg</title>
 <defs>
  <clipPath id="cp1">
   <path d="m263.74 26.55c-4.4 2.91-8.46 5.81-10.42 7.79-17.6 2.68-35.67 6.75-41.23 7.56-8.22 1.28-17.02 5-31.14 2.56-2.43-0.47-8.22-5.47-18.99-8.03-7.18-1.74-19.57-3.72-18.64-2.55 5.44 6.51 19.68 16.51 19.68 18.37 0 4.77-22.12 17.91-17.37 18.14 14.13 0.47 33.23-9.53 41.34-10.47 3.01-0.34 6.25-0.58 9.61-0.69 4.63-0.12 8.57 2.21 12.39 4.42 4.05 2.44 7.64 4.88 11.35 4.42 4.28-0.59 14.01-3.38 14.47-3.49 0.35 0.11 0.58 0.23 0.93 0.23 3.59 1.16 7.64 2.44 12.39 3.6 0 0 1.62 4.31 1.62 10.24 0 0 15.4-0.58 25.24-6.05 10.88 0.7 23.5 0.35 38.32-1.86-1.27 1.28-2.43 2.67-3.35 4.07-2.09 3.14-3.71 8.14 5.32 3.26 9.38-5 22.81-15.35 22.81-15.35 0.47 0 1.05 0.11 1.62 0.11 14.59 0.35 32.43-10.12 25.59-12.44-0.92-0.35-3.24-0.23-3.24-0.23 6.02-3.26 8.11-6.86 5.91-7.21-0.81-0.12-2.09 0.11-3.59 0.58 0 0-17.49-11.86-72.83-11.86 0 0-3.82-7.33-18.07-13.73-0.34 0-2.89 4.07-9.72 8.61z"/>
  </clipPath>
  <clipPath id="cp2">
   <path d="m0 0h512v512h-512z"/>
  </clipPath>
  <linearGradient id="g1" x2="1" gradientTransform="matrix(226.3 0 0 61.738 143.7 49.007)" gradientUnits="userSpaceOnUse">
   <stop stop-color="#fff" offset="0"/>
   <stop offset="1"/>
  </linearGradient>
  <clipPath id="cp3">
   <path d="m0 0h512v512h-512z"/>
  </clipPath>
  <clipPath id="cp4">
   <path d="m0 0h512v512h-512z"/>
  </clipPath>
  <clipPath id="cp5">
   <path d="m220.67 429.64c-55.37 0.12-72.86 11.82-72.86 11.82-1.51-0.47-2.78-0.7-3.59-0.58-2.2 0.34-0.12 3.93 5.9 7.18 0 0-2.31 0-3.24 0.23-6.83 2.32 10.89 12.74 25.6 12.39 0.58 0 1.04 0 1.62-0.11 0 0 13.44 10.31 22.82 15.29 9.04 4.86 7.42-0.12 5.33-3.24-0.93-1.39-2.08-2.78-3.36-4.06 14.83 2.2 27.57 2.55 38.34 1.85 9.73 5.45 25.26 6.03 25.26 6.03 0-5.91 1.62-10.2 1.62-10.2 4.63-1.15 8.8-2.43 12.39-3.59 0.35-0.11 0.58-0.23 0.93-0.23 0.35 0.12 10.19 2.9 14.48 3.48 3.59 0.46 7.3-1.97 11.35-4.4 3.71-2.21 7.76-4.52 12.4-4.41 3.36 0.12 6.6 0.35 9.61 0.7 8.23 0.92 27.22 10.89 41.35 10.42 4.64-0.11-17.37-13.2-17.37-18.07 0-1.73 14.25-11.81 19.69-18.3 1.04-1.16-11.47 0.81-18.65 2.55-10.77 2.55-16.56 7.64-19 7.99-14.13 2.43-23.05-1.27-31.16-2.55-5.56-0.81-23.63-4.86-41.23-7.53-1.97-1.97-6.14-4.86-10.43-7.76-6.83-4.51-9.38-8.57-9.38-8.57-14.6 6.37-18.42 13.67-18.42 13.67z"/>
  </clipPath>
  <clipPath id="cp6">
   <path d="m0 0h512v512h-512z"/>
  </clipPath>
  <linearGradient id="g2" x2="1" gradientTransform="matrix(226.38 0 0 61.929 142.86 446.9)" gradientUnits="userSpaceOnUse">
   <stop stop-color="#fff" offset="0"/>
   <stop offset="1"/>
  </linearGradient>
  <clipPath id="cp7">
   <path d="m0 0h512v512h-512z"/>
  </clipPath>
  <clipPath id="cp8">
   <path d="m0 0h512v512h-512z"/>
  </clipPath>
  <clipPath id="cp9">
   <path d="m50.97 144.1c-0.12 0.81 0.11 2.09 0.58 3.59 0 0-11.82 17.49-11.82 72.86 0 0-7.3 3.83-13.67 18.07 0 0 4.17 2.55 8.58 9.39 2.89 4.4 5.79 8.45 7.76 10.42 2.66 17.61 6.71 35.68 7.53 41.24 1.27 8.23 4.98 17.03 2.54 31.16-0.46 2.43-5.44 8.23-7.99 19-1.74 7.18-3.71 19.57-2.55 18.65 6.49-5.45 16.45-19.69 18.31-19.69 4.74 0 17.83 22.12 18.07 17.37 0.46-14.13-9.5-33.24-10.43-41.35-0.35-3.01-0.58-6.26-0.69-9.62-0.12-9.5 9.73-16.68 8.8-23.63-0.58-4.28-3.36-14.01-3.48-14.48 0.12-0.35 0.24-0.58 0.24-0.92 1.15-3.6 2.43-7.65 3.59-12.4 0 0 4.28-1.62 10.19-1.62 0 0-0.58-15.41-6.02-25.25 0.69-10.89 0.34-23.52-1.86-38.35 1.28 1.28 2.67 2.44 4.06 3.36 3.13 2.09 8.11 3.71 3.24-5.32-4.98-9.39-15.29-22.82-15.29-22.82 0-0.47 0.12-1.05 0.12-1.63 0.34-14.59-10.08-32.31-12.4-25.6-0.35 0.93-0.23 3.25-0.23 3.25-2.32-4.4-4.98-6.72-6.37-6.72-0.46 0.23-0.7 0.46-0.81 1.04z"/>
  </clipPath>
  <clipPath id="cp10">
   <path d="m0 0h512v512h-512z"/>
  </clipPath>
  <linearGradient id="g3" x2="1" gradientTransform="matrix(62.975 0 0 230.4 25.479 256)" gradientUnits="userSpaceOnUse">
   <stop stop-color="#fff" offset="0"/>
   <stop offset="1"/>
  </linearGradient>
  <clipPath id="cp11">
   <path d="m0 0h512v512h-512z"/>
  </clipPath>
  <clipPath id="cp12">
   <path d="m0 0h512v512h-512z"/>
  </clipPath>
  <clipPath id="cp13">
   <path d="m469.95 143.41c-6.49 5.44-16.45 19.69-18.3 19.69-4.75 0-17.84-22.13-18.07-17.38-0.47 14.14 9.5 33.25 10.42 41.36 0.35 3.01 0.58 6.25 0.7 9.61 0.11 9.5-9.73 16.68-8.8 23.63 0.57 4.29 3.35 14.02 3.47 14.48-0.12 0.35-0.23 0.58-0.23 0.93-1.16 3.59-2.43 7.64-3.59 12.39 0 0-4.29 1.62-10.2 1.62 0 0 0.58 15.41 6.03 25.26-0.7 10.89-0.35 23.51 1.85 38.34-1.27-1.27-2.66-2.43-4.05-3.36-3.13-2.08-8.11-3.71-3.25 5.33 4.98 9.38 15.29 22.82 15.29 22.82 0 0.46-0.11 1.04-0.11 1.62-0.35 14.6 10.08 32.43 12.39 25.6 0.35-0.93 0.23-3.24 0.23-3.24 3.25 6.02 6.84 8.11 7.19 5.9 0.11-0.81-0.12-2.08-0.58-3.59 0 0 11.81-17.49 11.81-72.86 0 0 7.3-3.82 13.67-18.07 0 0-4.17-2.55-8.57-9.38-2.9-4.4-5.79-8.46-7.76-10.43-2.67-17.6-6.72-35.67-7.53-41.23-1.28-8.23-4.98-17.03-2.55-31.16 0.46-2.44 5.44-8.23 7.99-19 1.62-6.95 3.59-18.65 2.67-18.65 0-0.35-0.12-0.35-0.12-0.23z"/>
  </clipPath>
  <clipPath id="cp14">
   <path d="m0 0h512v512h-512z"/>
  </clipPath>
  <linearGradient id="g4" x2="1" gradientTransform="matrix(62.983 0 0 230.86 423.46 255.99)" gradientUnits="userSpaceOnUse">
   <stop stop-color="#fff" offset="0"/>
   <stop offset="1"/>
  </linearGradient>
  <clipPath id="cp15">
   <path d="m0 0h512v512h-512z"/>
  </clipPath>
  <clipPath id="cp16">
   <path d="m0 0h512v512h-512z"/>
  </clipPath>
  <clipPath id="cp17">
   <path d="m0 0h512v512h-512z"/>
  </clipPath>
  <clipPath id="cp18">
   <path d="m0 0h512v512h-512z"/>
  </clipPath>
  <linearGradient id="g5" x2="1" gradientTransform="matrix(234.27 0 0 217.44 138.98 255.99)" gradientUnits="userSpaceOnUse">
   <stop stop-color="#fff" offset="0"/>
   <stop offset="1"/>
  </linearGradient>
  <clipPath id="cp19">
   <path d="m201.79 214.18-48.42 84.56c-2.2 3.94-0.47 12.98 5.1 17.03 6.25 4.4 14.47 2.32 14.47 2.32s1.51 8.34 8.11 13.2c6.61 4.87 16.45 2.21 16.45 2.21s3.13 8.22 11.24 12.39 18.18 0.35 18.18 0.35 5.33 6.6 13.44 7.76c8.23 1.16 15.64-5.91 15.64-5.91s7.41 7.07 15.64 5.91c8.22-1.16 13.44-7.76 13.44-7.76s10.07 3.82 18.18-0.35 11.24-12.39 11.24-12.39 9.84 2.66 16.45-2.21c6.6-4.86 8.11-13.2 8.11-13.2s8.34 2.08 14.47-2.32c5.57-3.94 7.3-13.09 5.1-17.03l-48.42-84.56c-5.67-9.84-24.56-38.11-54.21-38.11s-48.54 28.27-54.21 38.11z"/>
  </clipPath>
  <clipPath id="cp20">
   <path d="m0 0h512v512h-512z"/>
  </clipPath>
  <clipPath id="cp21">
   <path d="m0 0h512v512h-512z"/>
  </clipPath>
 </defs>
 <style>.s0 { fill: #1f2d5e } 
		.s1 { fill: #ffffff } 
		.s2 { fill: #ffdd00 } 
		.s3 { fill: #e1251b } 
		.s4 { fill: none } 
		.s5 { fill: url(#g1) } 
		.s6 { fill: #939598 } 
		.s7 { fill: #000000 } 
		.s8 { fill: url(#g2) } 
		.s9 { fill: url(#g3) } 
		.s10 { fill: url(#g4) } 
		.s11 { fill: url(#g5) }</style>
 <g id="Layer">
  <path id="Layer" class="s0" d="m492.4 11.5h-472.9v349.6c0 68.1 55.2 123.3 123.3 123.3h47.1c25.7 0 30.3 1.1 34.6 2.9l31.4 13.2 31.4-13.2c4.3-1.8 9-2.9 34.6-2.9h47c68.2 0 123.4-55.2 123.4-123.3v-349.6z"/>
  <path id="Layer" class="s1" d="m417.4 86.5h-322.9v274.6c0 26.6 21.7 48.3 48.3 48.3h68c17.5 0 20.8 0.7 23.7 1.9l21.4 9.1 21.4-9.1c3-1.2 6.2-1.9 23.6-1.9h68c26.7 0 48.3-21.7 48.3-48.3v-274.6z"/>
  <path id="Layer" class="s2" d="m96.3 361.1c0 25.7 20.9 46.6 46.6 46.6h67.9c17.5 0 21 0.7 24.3 2.1l20 8.5v-330h-158.8z"/>
  <path id="Layer" class="s3" d="m256.8 88.3v329.9l19.9-8.5c3.4-1.4 6.9-2.1 24.4-2.1h68c25.7 0 46.6-20.9 46.6-46.7v-272.6z"/>
  <path id="Layer" class="s4" d="m0 0h512v512h-512z"/>
  <g id="Layer">
   <g id="Clip-Path" clip-path="url(#cp1)">
    <path id="Layer" class="s1" d="m141 17.9h231v65.1h-231z"/>
   </g>
   <g id="Clip-Path" clip-path="url(#cp2)">
    <path id="Layer" class="s5" d="m368.7 42.9q-0.2 0-0.3 0c-0.8 0-2 0.2-3.3 0.7 0 0-17.5-11.9-72.8-11.9 0 0-3.9-7.3-18.1-13.6 0 0-2.6 4.1-9.4 8.5-4.4 2.9-8.5 5.8-10.4 7.8-17.6 2.7-35.7 6.7-41.3 7.5-6.2 1-12.9 3.4-22 3.4-2.7 0-5.8-0.2-9.1-0.8-2.5-0.5-8.2-5.5-19-8-5.7-1.3-14.6-2.9-17.6-2.9-0.7 0-1.1 0.1-1.1 0.2 0 0 0 0.1 0.1 0.1 5.5 6.5 19.7 16.5 19.7 18.3 0 4.3-18 15.4-18 17.6q0 0.4 0.7 0.4h0.9c14 0 32.4-9.6 40.4-10.4 3-0.4 6.3-0.6 9.6-0.7h0.3c9 0 15.8 8.8 22.6 8.8 0.3 0 0.5 0 0.9-0.1 4.3-0.6 14-3.4 14.5-3.5 0.3 0.1 0.5 0.2 0.9 0.2 3.6 1.2 7.6 2.5 12.4 3.6 0 0 1.6 4.3 1.6 10.2 0 0 15.4-0.6 25.3-6 3.1 0.2 6.4 0.3 9.9 0.3 8.5 0 18-0.5 28.4-2.2-1.3 1.3-2.4 2.7-3.4 4.1-0.8 1.3-1.6 2.9-1.6 3.9 0 0.8 0.4 1.3 1.4 1.3s2.8-0.6 5.6-2c9.3-5 22.8-15.3 22.8-15.3 0.5 0 1 0.2 1.6 0.2h0.8c12.3 0 26.3-7.2 26.3-10.8 0-0.7-0.4-1.2-1.5-1.5-0.7-0.3-2.3-0.3-3-0.3q-0.4 0-0.4 0c4.5-2.3 6.8-4.9 6.8-6.3-0.4-0.4-0.6-0.7-1.2-0.8 0.6 0.1 0.8 0.3 0.8 0.8 0 1.4-2.3 3.9-6.7 6.3t0.3 0c0.7 0 2.3 0 3.1 0.3 1 0.3 1.5 0.9 1.5 1.5 0 3.6-14 10.8-26.3 10.8h-0.8c-0.6 0-1.1 0-1.7-0.2 0 0-13.4 10.3-22.8 15.3-2.6 1.4-4.5 2-5.5 2-1.1 0-1.4-0.6-1.4-1.3 0-1 0.8-2.6 1.6-3.9 0.9-1.4 2.1-2.8 3.4-4.1-10.6 1.5-20 2.2-28.4 2.2-3.5 0-6.9-0.1-10-0.3-9.7 5.4-25.2 6-25.2 6 0-5.9-1.7-10.2-1.7-10.2-4.6-1.1-8.8-2.4-12.4-3.6-0.3-0.1-0.5-0.2-0.9-0.2-0.3 0.1-10.2 2.9-14.5 3.5-0.3 0-0.5 0.1-0.9 0.1-6.7 0-13.5-8.8-22.6-8.8h-0.2c-3.4 0.1-6.6 0.3-9.6 0.7-8 0.9-26.4 10.4-40.5 10.4h-0.9q-0.7 0-0.7-0.4c0-2.2 18.1-13.3 18.1-17.6 0-1.7-14.3-11.8-19.7-18.3l-0.1-0.1c0-0.1 0.3-0.2 1-0.2 3 0 12 1.5 17.6 2.9 10.8 2.5 16.6 7.6 19 8 3.4 0.6 6.4 0.8 9.2 0.8 9.1 0 15.7-2.4 22-3.4 5.6-0.8 23.6-4.8 41.2-7.5 2-2 6.2-4.9 10.5-7.8 6.8-4.5 9.3-8.5 9.3-8.5 14.3 6.3 18.1 13.6 18.1 13.6 55.4 0.2 72.9 11.9 72.9 11.9 1.2-0.4 2.4-0.7 3.2-0.7h0.7z"/>
   </g>
   <g id="Clip-Path" clip-path="url(#cp3)">
    <path id="Layer" class="s6" d="m363 49.8c0.7 0 1.4 0.1 2 0.2 1 0.4 1.7 1.1 1.7 1.9-0.1 2.2-3.7 4.7-8.8 7.1-5.1 2.2-11.8 4-17.9 4h-0.8c-0.5-0.1-1-0.1-1.4-0.1-1.3 0.9-13.9 10.4-22.8 15.2-2.7 1.5-4.6 2.1-5.7 2.1-0.6 0-1.1-0.2-1.4-0.5l-0.1-0.1c-0.1-0.4-0.3-0.7-0.3-1.1 0-1.2 0.9-2.9 1.8-4.1 0.8-1.2 1.7-2.3 2.6-3.4-10 1.4-19.2 2-27.4 2-3.5 0-6.7-0.1-9.9-0.4-9.9 5.5-25.3 6.1-25.3 6.1-0.1 0-0.1 0-0.3-0.2-0.1 0-0.1-0.1-0.1-0.2 0-5.1-1.2-9-1.5-9.8-4.5-1.2-8.5-2.5-12.1-3.6-0.3-0.1-0.6-0.1-0.8-0.3-1.2 0.4-10.4 2.9-14.4 3.5-0.2 0.1-0.6 0.1-0.9 0.1-1.8 0-3.6-0.7-5.4-1.5-5.2-2.4-10.6-7.3-17.1-7.3q-0.2 0-0.4 0-4.8 0.2-9.3 0.7c-7.9 0.8-26.4 10.4-40.6 10.4h-0.9c-0.5 0-1.1-0.2-1.1-0.8 0.2-0.9 1.3-1.8 3.1-3.3 0.2-0.1 0.5-0.4 0.8-0.6 1.6-1.3 3.4-2.8 5.4-4.3 4.5-3.6 9.1-7.6 8.9-9.4 0.2-0.1-0.8-1.1-2.2-2.4s-3.3-2.9-5.4-4.6c-4.2-3.5-9.2-7.7-11.9-10.9 0 0-0.2-0.1-0.2-0.4 0.2-0.4 0.4-0.6 0.6-0.6 0.3-0.1 0.5-0.1 0.8-0.1 3.2 0 12.1 1.7 17.8 2.9 10.7 2.6 16.8 7.7 19 8 3.3 0.6 6.3 0.8 9.1 0.8 9 0 15.6-2.4 22-3.3 5.6-0.8 23.5-4.9 41.1-7.6 1.7-1.6 4.7-3.7 8-6 0.8-0.6 1.7-1 2.5-1.6 3.3-2.2 5.6-4.3 7.1-5.9 1.5-1.5 2.1-2.6 2.1-2.6 0.1-0.1 0.3-0.2 0.5-0.1 13.1 5.8 17.5 12.3 18.2 13.6 52.3 0.1 70.8 10.6 72.6 11.8 1.2-0.4 2.3-0.6 3.1-0.6h0.5c0.7 0.1 1.2 0.6 1.2 1.3 0 1.5-2 3.8-6.1 6zm5.6-6.4c-0.1-0.2-0.1-0.3-0.6-0.4q-0.2 0-0.3 0c-1.4 0-4.3 1-6.8 1.9-2.4 1.1-4.5 2-4.5 2-0.1 0-0.3 0-0.4-0.2 0-0.1 0-0.4 0.2-0.5 0 0 3.9-1.8 7.4-3-0.6-0.3-1.5-0.8-2.9-1.4-2.5-1.1-6.5-2.5-12.1-4-11.4-2.9-29.7-5.9-57.6-5.9-4.4 0-8.9 0.1-13.8 0.2-21.2 0.7-56.5 8.8-64.8 10.1-6.2 0.9-12.9 3.3-22.1 3.3-2.9 0-5.9-0.2-9.2-0.8-2.7-0.5-8.4-5.4-19-8-5.6-1.4-14.6-2.9-17.5-2.9h-0.5c1.4 1.5 3.1 3.3 5.1 5q0.2 0 0.7 0c2.1 0 8.3 0.6 23 6.5 0.3 0 0.4 0.2 0.3 0.5 0 0.1-0.3 0.2-0.4 0.2h-0.1c-14.4-5.8-20.6-6.5-22.7-6.5 1.9 1.6 3.9 3.4 5.8 4.9q0.2 0 0.3 0c1.2 0 4.8 0.4 14.1 3.9 0.2 0 0.3 0.2 0.2 0.5 0 0.1-0.2 0.2-0.4 0.2h-0.1c-8-3-11.7-3.7-13.2-3.8 1.8 1.4 3.4 2.8 4.5 3.8 1.2 1 2 1.9 2.4 2.5 1.7 0 10.4-0.4 16.9-0.4 2.4 0 4.5 0.1 5.9 0.2 0.2 0.1 0.3 0.2 0.3 0.5-0.1 0.2-0.2 0.3-0.4 0.3-1.3-0.2-3.4-0.2-5.8-0.2-6.4 0-15.1 0.3-16.8 0.5-0.4 1.7-2.5 3.8-5 6.1 2.5-0.2 8.5-0.8 11.2-1.3 0.3 0 0.5 0.1 0.5 0.4 0 0.2-0.1 0.4-0.4 0.4-3.4 0.6-11.3 1.3-12.3 1.4-2.6 2.2-5.5 4.4-7.8 6.3 2-0.1 7.5-0.9 21.1-4.8 0.2-0.1 0.3 0 0.4 0.3 0.2 0.2 0 0.4-0.2 0.4-15.5 4.4-20.6 4.9-22 4.9h-0.2c-0.1 0.1-0.4 0.3-0.6 0.5-1.5 1.2-2.7 2.5-2.7 2.7h0.3 0.9c13.9 0 32.3-9.5 40.4-10.4 2.9-0.3 6-0.6 9.3-0.7h0.1c1.3-0.1 2.4-0.1 3.7-0.1 10.9 0 23 1.5 35.7 5.7 11 3.6 26.6 8 49 8 8.4 0 17.8-0.6 28.2-2.1 5.5-5.7 12.8-10.1 14.6-11.1-2.2-2.2-2.7-5-2.7-7.5 0-3.1 1-5.6 1-5.6 0-0.3 0.2-0.4 0.5-0.3 0.2 0 0.3 0.3 0.2 0.5 0.1 0-0.9 2.4-0.9 5.4 0.1 2.5 0.7 5.1 2.9 7.2 1.9 2 5.4 3.4 11.1 3.5q0.3 0 0.7 0c6 0 12.6-1.8 17.6-4 5-2.3 8.4-5 8.3-6.4 0-0.5-0.3-0.8-1.2-1.2-0.7-0.2-2.3-0.2-2.9-0.2h-0.3c-0.8 0.3-1.6 0.8-2.4 1.1-5.5 2.4-11.1 2.6-12.8 2.6h-0.4q-0.4 0-0.4-0.4 0-0.3 0.4-0.3h0.4c1.6 0 7.2-0.1 12.4-2.4 0.9-0.4 1.7-0.7 2.5-1.2 4.3-2.4 6.5-5 6.7-6.4zm-23.9 15.8q0 0.3-0.3 0.3s-7.3 0-10.3-4.6c-1.1-1.5-1.3-3.5-1.3-5.2 0-2.7 0.6-5.1 0.6-5.1 0-0.1 0.2-0.2 0.4-0.2s0.3 0.2 0.3 0.4c0 0-0.6 2.3-0.6 4.9 0 1.7 0.3 3.6 1.2 4.9 1.2 2 3.7 3.1 5.7 3.7 2.1 0.5 3.9 0.5 3.9 0.5 0.2 0 0.3 0.3 0.4 0.4zm0.6-16.1c0 1.7-2 3-4.2 3.2q-0.3 0-0.7 0c-2.2 0-3.7-1.2-3.8-3v-0.2c0-0.9 0.4-1.6 1.1-2.2 0.7-0.5 1.8-0.8 3.2-0.8 1.3 0 4.4 0.7 4.4 3zm-74.7-21.4c1.7 1.1 8.7 5.6 11.8 9.7 2.8-0.1 5.6-0.1 8.2-0.1-0.1-0.1-0.2-0.4-0.4-0.6-0.5-0.7-1.4-1.9-2.8-3.1-2.7-2.6-7.1-5.9-14-9.1-0.4 0.5-1.2 1.7-2.8 3.2zm-3.9 3.4c1.2 1 5.2 3.4 7.4 6.5 0.9 0 1.9-0.1 2.9-0.1 1.5 0 3-0.1 4.5-0.1-1.8-2.1-4.4-4.3-6.9-6-2-1.7-3.9-2.8-4.5-3.2-1 1-2.2 1.9-3.4 2.9zm-4.6 3.3c0.9 0.6 2.5 1.9 3.7 4q3.9-0.5 7.3-0.7c-2.3-3-6.2-5.4-7.1-6-0.6 0.5-1.2 0.8-1.9 1.3s-1.4 0.8-2 1.4zm-7.5 5.4c3.5-0.6 7.1-1 10.4-1.4-1.2-1.9-3-3.2-3.6-3.7-2.7 1.9-5.2 3.7-6.8 5.1zm-21.2 30.5c-11.3-3.5-22.1-4.9-32.1-5 3 0.9 5.8 2.6 8.5 4.2 0.6-0.3 2.9-0.9 5.2-1.4 0.2 0 0.5 0.1 0.5 0.3 0 0.3-0.2 0.5-0.4 0.5-1.7 0.3-3.6 0.8-4.5 1.2 1.3 0.7 2.4 1.3 3.6 1.9 0.8-0.2 4.4-1.7 6.7-2.3 0.2-0.1 0.5 0 0.5 0.2 0.1 0.3 0 0.5-0.3 0.5-1.7 0.5-4.5 1.5-5.9 2.1q2.1 1 4.2 1h0.9c3.4-0.4 10.3-2.3 13.1-3.2zm40.1 8.4c-9.6-0.6-17.8-2-24.8-3.8 0.2 0.7 0.6 2 0.8 3.6 0.8-0.1 2.6-0.4 4-0.8 0.2-0.1 0.4 0 0.4 0.2 0.1 0.3 0 0.5-0.2 0.5-1.4 0.3-3.1 0.7-4 0.8 0.2 0.8 0.2 1.6 0.3 2.4 1.5-0.1 7.2-0.4 10.5-1.8 0.1-0.1 0.4 0 0.5 0.2 0 0.1 0 0.4-0.3 0.5-3.5 1.4-9.2 1.7-10.7 1.8 0.1 0.6 0.1 1.2 0.1 1.8 1 0 4.3-0.3 8.4-1 4.7-0.8 10.4-2 15-4.4zm63.7-9.8c-4.2-0.5-7.1-1.7-8.9-3.4-0.8 0.5-3.6 2.1-6.9 4.4-3.8 2.8-8.4 6.8-11.2 10.9-0.8 1.2-1.5 2.8-1.5 3.7v0.3c2-1.4 10.2-7.6 18.1-13.1 0.2-0.1 0.4 0 0.6 0.1 0.1 0.2 0 0.5-0.2 0.6-8 5.5-16.2 11.7-18 13.1 0.1 0.1 0.3 0.1 0.5 0.1 1 0 2.7-0.6 5.4-2 8-4.3 19-12.4 22.1-14.7zm7.4-19.8c0-0.7-0.6-1.3-1.4-1.6-0.4-0.3-0.9-0.4-1.4-0.5 0.6 0.2 1.2 0.7 1.2 1.5 0 1.1-0.9 2.1-2.2 2.1-1 0-2.3-0.7-2.4-2 0-0.6 0.1-1.1 0.5-1.5-1 0.4-1.5 1.1-1.5 1.9v0.2c0.1 1.3 1.2 2.3 3.2 2.3h0.5c1.9-0.1 3.5-1.4 3.5-2.4z" fill-rule="evenodd"/>
   </g>
   <g id="Clip-Path" clip-path="url(#cp4)">
    <path id="Layer" class="s7" d="m340.6 41.6c-0.4 0-0.6 0-0.7 0.1 0.4 0 1.2 0.2 1.2 0.8 0 0.5-0.5 0.9-1.2 0.9-0.3 0-0.4 0-0.6-0.1 0.3 0.4 0.9 0.6 1.4 0.6 0.8 0 1.5-0.7 1.5-1.3 0-0.7-1.2-1-1.6-1z"/>
   </g>
   <path id="SVGID_00000032649774945744866260000008903113935045313697_" class="s1" d="m220.7 429.6c-55.4 0.2-72.9 11.9-72.9 11.9-1.5-0.5-2.8-0.7-3.6-0.6-2.2 0.3-0.1 3.9 5.9 7.2 0 0-2.3 0-3.2 0.2-6.9 2.3 10.9 12.7 25.6 12.4 0.6 0 1 0 1.6-0.1 0 0 13.4 10.3 22.8 15.3 9.1 4.8 7.4-0.2 5.4-3.3-1-1.4-2.1-2.8-3.4-4 14.8 2.2 27.6 2.5 38.3 1.8 9.8 5.5 25.3 6 25.3 6 0-5.9 1.6-10.2 1.6-10.2 4.6-1.1 8.8-2.4 12.4-3.5 0.4-0.2 0.6-0.3 0.9-0.3 0.4 0.1 10.2 2.9 14.5 3.5 3.6 0.5 7.3-2 11.4-4.4 3.7-2.2 7.7-4.5 12.4-4.4 3.3 0.1 6.6 0.3 9.6 0.7 8.2 0.9 27.2 10.9 41.3 10.4 4.7-0.1-17.4-13.2-17.4-18.1 0-1.7 14.3-11.8 19.7-18.3 1.1-1.1-11.4 0.9-18.6 2.6-10.8 2.5-16.6 7.6-19 8-14.1 2.4-23.1-1.3-31.2-2.6-5.5-0.8-23.6-4.8-41.2-7.5-2-2-6.1-4.9-10.4-7.8-6.9-4.5-9.4-8.5-9.4-8.5-14.6 6.3-18.4 13.6-18.4 13.6z"/>
   <g id="Clip-Path" clip-path="url(#cp5)">
    <path id="Layer" class="s1" d="m139.9 416h231.1v64.7h-231.1z"/>
   </g>
   <g id="Clip-Path" clip-path="url(#cp6)">
    <path id="Layer" class="s8" d="m144.1 440.9q0.2 0 0.3 0c0.9 0 2 0.2 3.3 0.7 0 0 17.5-11.8 72.9-11.8 0 0 3.8-7.3 18-13.7 0 0 2.6 4.2 9.4 8.6 4.4 2.9 8.5 5.8 10.4 7.7 17.6 2.7 35.7 6.7 41.3 7.5 6.2 1 12.9 3.4 22 3.4 2.8 0 5.8-0.2 9.1-0.8 2.5-0.5 8.3-5.4 19-8 5.7-1.3 14.6-2.9 17.6-2.9 0.7 0 1.1 0.1 1.1 0.2 0 0 0 0.2-0.1 0.2-5.5 6.4-19.7 16.4-19.7 18.3 0 4.2 18 15.4 18 17.6q0 0.3-0.7 0.3h-0.9c-14 0-32.4-9.6-40.4-10.4-3-0.4-6.3-0.6-9.6-0.7h-0.3c-9 0-15.8 8.8-22.5 8.8h-1c-4.3-0.6-14-3.4-14.4-3.5-0.4 0.1-0.6 0.3-1 0.3-3.6 1.1-7.6 2.4-12.4 3.5 0 0-1.6 4.3-1.6 10.2 0 0-15.4-0.5-25.2-6-3.2 0.2-6.5 0.4-10 0.4-8.5 0-18-0.6-28.4-2.2 1.3 1.2 2.4 2.6 3.4 4 0.8 1.3 1.6 2.9 1.6 4 0 0.8-0.4 1.2-1.4 1.2s-2.8-0.6-5.6-1.9c-9.3-5-22.8-15.3-22.8-15.3-0.4 0-1 0.1-1.6 0.1h-0.8c-12.3 0-26.3-7.2-26.3-10.8 0-0.7 0.5-1.1 1.5-1.5 0.7-0.2 2.3-0.2 2.9-0.2q0.3 0 0.3 0c-4.4-2.3-6.7-5-6.7-6.4 0.5-0.6 0.7-0.9 1.3-0.9-0.6 0.1-0.8 0.3-0.8 0.8 0 1.4 2.3 3.9 6.7 6.4t-0.3 0c-0.7 0-2.2 0-2.9 0.2-1.1 0.3-1.5 0.9-1.5 1.5 0 3.6 14 10.8 26.3 10.8h0.8c0.5 0 1 0 1.6-0.1 0 0 13.4 10.3 22.8 15.2 2.7 1.4 4.5 2 5.6 2 1 0 1.4-0.6 1.4-1.3 0-1-0.9-2.6-1.7-3.9-0.9-1.4-2-2.8-3.3-4.1 10.5 1.6 19.9 2.2 28.4 2.2 3.4 0 6.8-0.1 9.9-0.3 9.7 5.4 25.3 6 25.3 6 0-5.9 1.6-10.2 1.6-10.2 4.6-1.1 8.8-2.4 12.4-3.6 0.3-0.1 0.6-0.2 0.9-0.2 0.4 0.1 10.2 2.9 14.5 3.5h0.9c6.7 0 13.6-8.8 22.6-8.8h0.2c3.4 0.1 6.6 0.3 9.7 0.7 7.9 0.9 26.4 10.4 40.4 10.4h0.9q0.7 0 0.7-0.3c0-2.3-18.1-13.4-18.1-17.7 0-1.7 14.3-11.8 19.7-18.3l0.1-0.1c0-0.1-0.3-0.2-1-0.2-3 0-11.9 1.5-17.6 2.9-10.8 2.5-16.6 7.6-19 8-3.4 0.6-6.4 0.8-9.2 0.8-9.1 0-15.7-2.4-22-3.4-5.5-0.8-23.6-4.8-41.2-7.5-2-2-6.1-4.9-10.4-7.8-6.9-4.5-9.4-8.5-9.4-8.5-14.3 6.3-18.1 13.6-18.1 13.6-55.2 0.2-72.8 11.9-72.8 11.9-1.3-0.4-2.5-0.7-3.3-0.7-0.5 0-0.7 0-0.8 0.1z"/>
   </g>
   <g id="Clip-Path" clip-path="url(#cp7)">
    <path id="Layer" class="s6" d="m142.6 441.7c0-0.7 0.5-1.2 1.2-1.3h0.4c0.8 0 1.9 0.2 3.1 0.6 1.8-1.2 20.3-11.7 72.7-11.8 0.7-1.2 5.1-7.8 18.2-13.6 0.1-0.1 0.3 0 0.4 0.1 0 0 0.6 1 2.1 2.6 1.5 1.5 3.8 3.7 7.2 5.9 0.8 0.6 1.6 1 2.4 1.6 3.4 2.2 6.4 4.4 8 6 17.6 2.7 35.6 6.8 41.1 7.6 6.4 0.9 13 3.3 22 3.3 2.8 0 5.8-0.2 9.2-0.8 2.2-0.3 8.2-5.4 19-8 5.7-1.2 14.6-2.9 17.7-2.9 0.4 0 0.6 0.1 0.8 0.1 0.3 0.2 0.6 0.2 0.6 0.6 0 0.1 0 0.3-0.1 0.4-2.8 3.2-7.7 7.4-11.9 10.9-2.1 1.7-4.1 3.3-5.5 4.6s-2.3 2.3-2.2 2.4c-0.1 1.9 4.4 5.9 8.9 9.4 2 1.5 3.9 3 5.5 4.3 0.3 0.1 0.6 0.3 0.8 0.6 1.7 1.5 2.9 2.4 3 3.3 0 0.6-0.6 0.8-1 0.8h-1c-14.2 0-32.6-9.6-40.5-10.4q-4.5-0.5-9.4-0.7-0.2 0-0.3 0c-6.5-0.1-12 4.8-17.2 7.3-1.7 0.9-3.6 1.5-5.3 1.5-0.2 0-0.6-0.1-0.9-0.1-4.1-0.6-13.2-3.1-14.4-3.5-0.2 0.2-0.6 0.2-0.8 0.3-3.5 1.1-7.5 2.4-12.2 3.6-0.3 0.9-1.5 4.7-1.5 9.8 0 0.1 0 0.1-0.1 0.2 0 0.2-0.1 0.2-0.2 0.2s-15.4-0.6-25.4-6.1c-3.1 0.3-6.4 0.4-9.8 0.4-8.3 0-17.4-0.6-27.5-2 1 1.1 1.9 2.2 2.7 3.4 0.9 1.2 1.7 2.9 1.7 4.1 0 0.4 0 0.7-0.2 1.1l-0.1 0.1c-0.4 0.3-0.9 0.5-1.4 0.5-1.2 0-2.9-0.6-5.7-2.1-8.9-4.8-21.6-14.3-22.8-15.2-0.5 0.1-1 0.1-1.4 0.1h-0.8c-6.3 0-12.9-1.7-18-4-5.1-2.4-8.7-4.9-8.8-7.1 0-0.8 0.7-1.5 1.7-1.9 0.5-0.1 1.3-0.2 2-0.2-3.7-2.2-5.7-4.5-6-6zm7.6 6.4c0.7 0.3 1.5 0.8 2.5 1.1 5.2 2.2 10.7 2.4 12.4 2.4h0.4c0.1 0 0.4 0.2 0.4 0.4 0 0.1-0.1 0.3-0.4 0.3h-0.4c-1.7 0-7.3-0.2-12.8-2.5-0.9-0.4-1.7-0.8-2.4-1.2h-0.2c-0.6 0-2.2 0-2.8 0.3-1.1 0.3-1.3 0.7-1.3 1.1-0.1 1.3 3.4 4.2 8.3 6.4 5 2.3 11.6 4.1 17.7 4.1q0.3 0 0.6 0c5.7-0.3 9.1-1.7 11.2-3.5 2.3-2.1 2.9-4.8 2.9-7.2 0.1-3-1-5.4-1-5.4 0-0.2 0-0.4 0.3-0.5 0.1 0 0.3 0 0.4 0.2 0 0 1.1 2.6 1.1 5.7 0 2.4-0.6 5.2-2.8 7.4 1.9 1.1 9.1 5.5 14.6 11.1 10.4 1.5 19.8 2.1 28.3 2.1 22.3 0 38-4.4 49-8 12.6-4.1 24.7-5.7 35.6-5.7 1.3 0 2.6 0.2 3.7 0.2h0.2c3.2 0.1 6.2 0.3 9.2 0.7 8.2 0.9 26.5 10.4 40.5 10.4h0.9 0.2c0-0.4-1-1.5-2.7-2.8l-0.5-0.5h-0.3c-1.4 0-6.5-0.4-22-4.8-0.1 0-0.2-0.3-0.2-0.5s0.2-0.3 0.5-0.2c13.4 3.8 19 4.6 21 4.7-2.3-1.8-5.2-4-7.7-6.2-1.1-0.1-9.1-0.8-12.4-1.4-0.2-0.1-0.4-0.2-0.4-0.5 0.2-0.2 0.3-0.3 0.5-0.3 2.8 0.4 8.7 1 11.2 1.2-2.6-2.3-4.6-4.4-4.9-6.1-1.8 0-10.4-0.5-16.8-0.5-2.5 0-4.6 0.2-5.8 0.3-0.3 0-0.5-0.1-0.5-0.4 0-0.2 0.1-0.4 0.3-0.4 1.4-0.3 3.5-0.3 6-0.3 6.4 0 15.2 0.4 16.9 0.5 0.2-0.7 1.1-1.4 2.3-2.6 1.1-1 2.8-2.4 4.5-3.8-1.5 0.1-5.2 0.8-13.2 3.8h-0.1c-0.1 0-0.4-0.1-0.4-0.2-0.1-0.2 0-0.3 0.3-0.4 9.2-3.5 12.7-4 14-4q0.2 0 0.3 0c1.9-1.5 4-3.2 5.8-4.9-2.1 0-8.3 0.9-22.7 6.5h-0.1c-0.1 0-0.2-0.1-0.3-0.2 0-0.1 0-0.3 0.2-0.5 14.6-5.8 21-6.4 23-6.4q0.6 0 0.7 0c2-1.8 3.9-3.5 5.1-5h-0.4c-2.9 0-11.8 1.6-17.5 2.9-10.7 2.4-16.4 7.5-19 8-3.4 0.5-6.5 0.8-9.3 0.8-9.3 0-15.9-2.5-22.1-3.4-8.2-1.3-43.6-9.4-64.8-10.1-4.8-0.1-9.3-0.2-13.8-0.2-27.9 0-46.2 2.9-57.5 5.9-5.7 1.5-9.6 2.9-12.2 4.1-1.4 0.5-2.3 1-2.9 1.4 3.5 1.1 7.4 3 7.4 3 0.3 0 0.4 0.2 0.3 0.4 0 0.3-0.3 0.4-0.5 0.3 0 0-2.1-1.1-4.5-2-2.4-1-5.3-2-6.7-2q-0.2 0-0.4 0c-0.4 0.1-0.6 0.1-0.6 0.5 0 1 2.2 3.7 6.6 6.4zm17.6 8.8s1.8 0 3.9-0.6 4.5-1.6 5.8-3.7c0.9-1.4 1.1-3.2 1.1-4.9 0-2.5-0.6-4.9-0.6-4.9-0.1-0.2 0-0.4 0.3-0.4 0.2-0.1 0.4 0 0.4 0.2 0 0 0.6 2.4 0.6 5.1 0 1.7-0.3 3.7-1.3 5.2-3 4.7-10.3 4.7-10.3 4.7q-0.3 0-0.3-0.4c0-0.2 0.1-0.3 0.4-0.3zm3.2-18.9c1.4 0 2.5 0.2 3.2 0.8s1.1 1.4 1.1 2.2v0.2c-0.2 1.8-1.7 3-3.9 3q-0.3 0-0.7 0c-2-0.2-4.1-1.5-4.1-3.2 0.1-2.3 3.2-3 4.4-3zm67.5-21.6c-6.9 3.2-11.3 6.5-14 9.1q-1.9 1.9-2.8 3.1c-0.2 0.2-0.3 0.3-0.5 0.6 2.7 0 5.5 0.1 8.3 0.1 3.1-4.1 10.1-8.6 11.8-9.7-1.5-1.5-2.3-2.7-2.8-3.2zm3.5 3.9c-0.6 0.4-2.4 1.6-4.5 3.1-2.4 1.7-5.1 3.9-6.9 6 1.5 0 3 0.1 4.5 0.1 1 0 1.9 0 2.9 0.1 2.2-3.1 6.1-5.6 7.5-6.4-1.4-1.1-2.7-2.1-3.5-2.9zm5.9 4.5c-0.7-0.5-1.3-0.8-1.9-1.3-0.9 0.6-4.8 3-7.1 6q3.4 0.4 7.3 0.7c1.1-2 2.8-3.5 3.7-4-0.6-0.5-1.3-0.8-2-1.4zm2.7 1.8c-0.6 0.5-2.4 1.8-3.6 3.7q5 0.6 10.4 1.4c-1.6-1.4-4.1-3.2-6.8-5.1zm41 38.9h0.9c1.4 0 2.8-0.4 4.2-1-1.4-0.6-4.1-1.6-5.9-2.1-0.2 0-0.3-0.2-0.3-0.4s0.3-0.3 0.5-0.3c2.3 0.6 5.9 2 6.7 2.3 1.2-0.5 2.3-1.2 3.6-1.9-0.9-0.4-2.8-0.8-4.5-1.2-0.3-0.1-0.4-0.2-0.4-0.4 0.1-0.3 0.3-0.4 0.5-0.4 2.3 0.5 4.5 1.2 5.2 1.4 2.7-1.6 5.4-3.2 8.5-4.2-10 0.1-20.8 1.5-32.1 5 2.9 0.8 9.8 2.8 13.1 3.2zm-38.1 9.7c4 0.7 7.4 0.8 8.4 0.9 0-0.6 0.1-1.2 0.1-1.7-1.5-0.2-7.2-0.5-10.7-1.9-0.3 0-0.4-0.2-0.3-0.5 0-0.2 0.3-0.3 0.5-0.2 3.3 1.3 9 1.6 10.5 1.7 0-0.9 0.1-1.7 0.3-2.4-0.7-0.1-2.6-0.5-4-0.8-0.1 0-0.2-0.2-0.2-0.5 0-0.1 0.2-0.2 0.4-0.2 1.4 0.5 3.2 0.7 4 0.8 0.2-1.6 0.6-2.9 0.8-3.6-7 1.8-15.1 3.2-24.8 3.8 4.6 2.4 10.3 3.6 15 4.6zm-56.5 0.4c2.7 1.4 4.4 2 5.4 2 0.2 0 0.4-0.1 0.5-0.1-1.8-1.4-10.1-7.5-18-13.1-0.3-0.1-0.3-0.5-0.1-0.6 0.1-0.2 0.4-0.2 0.5-0.1 7.9 5.6 16.3 11.7 18.1 13.1v-0.2c0.1-1-0.7-2.5-1.5-3.8-2.8-4.2-7.4-8.1-11.2-10.8-3.4-2.4-6.1-4-6.9-4.4-1.9 1.7-4.7 2.9-8.9 3.3 3 2.2 14 10.3 22.1 14.7zm-26.1-32.2h0.5c2 0 3.1-1 3.2-2.3v-0.2c0-0.7-0.5-1.5-1.5-1.9 0.4 0.4 0.5 0.9 0.5 1.5-0.1 1.3-1.4 2-2.4 2-1.3 0-2.2-1-2.2-2.1 0-0.7 0.6-1.3 1.2-1.5-0.5 0.1-1 0.2-1.4 0.5-0.8 0.3-1.4 0.9-1.4 1.6-0.1 1 1.5 2.3 3.5 2.4z" fill-rule="evenodd"/>
   </g>
   <g id="Clip-Path" clip-path="url(#cp8)">
    <path id="Layer" class="s7" d="m171.4 439.5c0.4 0 0.6 0 0.7 0.1-0.4 0-1.2 0.2-1.2 0.8 0 0.5 0.5 0.9 1.2 0.9 0.3 0 0.4 0 0.6-0.1-0.3 0.4-0.9 0.6-1.4 0.6-0.8 0-1.5-0.7-1.5-1.3 0-0.7 1.2-1 1.6-1z"/>
   </g>
   <g id="Clip-Path" clip-path="url(#cp9)">
    <path id="Layer" class="s1" d="m26.1 139.9h64.7v231.1h-64.7z"/>
   </g>
   <g id="Clip-Path" clip-path="url(#cp10)">
    <path id="Layer" class="s9" d="m51 144.1q0 0.2 0 0.3c0 0.9 0.2 2 0.7 3.3 0 0-11.9 17.5-11.9 72.9 0 0-7.2 3.8-13.6 18 0 0 4.1 2.6 8.6 9.4 2.8 4.4 5.7 8.5 7.7 10.4 2.7 17.6 6.7 35.7 7.5 41.3 1 6.2 3.4 12.9 3.4 22 0 2.8-0.2 5.8-0.8 9.1-0.5 2.5-5.5 8.3-8 19-1.3 5.7-2.9 14.6-2.9 17.6 0 0.7 0.1 1.1 0.2 1.1 0 0 0.1 0 0.1-0.1 6.5-5.5 16.5-19.7 18.4-19.7 4.2 0 15.4 18 17.6 18q0.3 0 0.3-0.7v-0.9c0-14-9.6-32.4-10.4-40.4-0.4-3-0.6-6.3-0.7-9.6v-0.3c0-9 8.8-15.8 8.8-22.5v-1c-0.6-4.3-3.4-14-3.5-14.4 0.1-0.4 0.2-0.6 0.2-1 1.2-3.6 2.5-7.6 3.6-12.4 0 0 4.3-1.6 10.2-1.6 0 0-0.5-15.4-6-25.2 0.2-3.2 0.4-6.5 0.4-10 0-8.5-0.6-18-2.2-28.4 1.2 1.3 2.6 2.4 4 3.4 1.3 0.8 2.9 1.6 3.9 1.6 0.9 0 1.3-0.4 1.3-1.4s-0.6-2.8-1.9-5.6c-5-9.3-15.3-22.8-15.3-22.8 0-0.4 0.1-1 0.1-1.6v-0.8c0-12.3-7.2-26.3-10.8-26.3-0.7 0-1.2 0.5-1.5 1.5-0.2 0.7-0.2 2.3-0.2 3q0 0.4 0 0.4c-2.4-4.4-5-6.8-6.4-6.8-0.6 0.4-0.8 0.6-0.9 1.2 0.1-0.6 0.3-0.8 0.9-0.8 1.4 0 3.9 2.3 6.4 6.7t0-0.3c0-0.7 0-2.2 0.2-3.1 0.3-1 0.9-1.5 1.5-1.5 3.6 0 10.8 14.1 10.8 26.3v0.8c0 0.6 0 1.1-0.1 1.7 0 0 10.3 13.4 15.3 22.8 1.5 2.7 1.9 4.5 1.9 5.6 0 1-0.6 1.3-1.3 1.3-1 0-2.6-0.8-3.9-1.6-1.4-0.9-2.8-2.1-4-3.3 1.5 10.5 2.2 19.9 2.2 28.3 0 3.5-0.2 6.9-0.4 10 5.5 9.7 6 25.3 6 25.3-5.9 0-10.2 1.6-10.2 1.6-1.1 4.6-2.4 8.8-3.6 12.4-0.1 0.3-0.2 0.6-0.2 0.9 0.1 0.3 2.9 10.2 3.5 14.5v0.9c0 6.7-8.8 13.6-8.8 22.6v0.2c0.1 3.4 0.3 6.6 0.7 9.6 0.9 8 10.4 26.4 10.4 40.5v0.9q0 0.7-0.3 0.7c-2.2 0-13.4-18.1-17.6-18.1-1.8 0-11.9 14.3-18.4 19.7l-0.1 0.1c-0.1 0-0.2-0.3-0.2-1 0-3 1.5-11.9 2.9-17.6 2.5-10.8 7.6-16.6 8-19 0.6-3.4 0.8-6.4 0.8-9.2 0-9.1-2.4-15.7-3.4-22-0.8-5.5-4.8-23.6-7.5-41.2-2-2-4.9-6.2-7.7-10.4-4.6-6.9-8.6-9.4-8.6-9.4 6.4-14.3 13.6-18.1 13.6-18.1 0.2-55.4 11.9-72.9 11.9-72.9-0.4-1.2-0.7-2.4-0.7-3.2q0-0.5 0-0.7z"/>
   </g>
   <g id="Clip-Path" clip-path="url(#cp11)">
    <path id="Layer" class="s6" d="m57.9 149c0-0.7 0.1-1.4 0.3-2 0.3-1 1-1.7 1.8-1.7 2.2 0.1 4.8 3.7 7.1 8.8 2.2 5.1 4 11.8 4 17.9v0.8c-0.1 0.5-0.1 1-0.1 1.4 0.9 1.3 10.4 13.9 15.2 22.8 1.5 2.7 2.1 4.6 2.1 5.7 0 0.6-0.1 1.1-0.5 1.4l-0.1 0.1c-0.4 0.1-0.7 0.3-1.1 0.3-1.2 0-2.8-0.9-4.1-1.8-1.2-0.8-2.3-1.7-3.4-2.6 1.4 10 2 19.2 2 27.4 0 3.5-0.1 6.7-0.4 9.9 5.5 9.9 6.1 25.3 6.1 25.3 0 0.1 0 0.1-0.2 0.3 0 0.1-0.1 0.1-0.2 0.1-5.1 0-9 1.2-9.8 1.5-1.2 4.5-2.5 8.5-3.6 12.1-0.1 0.3-0.1 0.6-0.3 0.8 0.4 1.2 2.9 10.4 3.5 14.4 0.1 0.2 0.1 0.6 0.1 0.9 0 1.8-0.7 3.6-1.5 5.4-2.4 5.2-7.3 10.6-7.3 17.1q0 0.2 0 0.4 0.2 4.8 0.7 9.3c0.8 7.9 10.5 26.4 10.5 40.6v0.9c0 0.5-0.3 1.1-0.9 1.1-0.9-0.2-1.8-1.3-3.3-3.1-0.1-0.3-0.4-0.5-0.6-0.8-1.3-1.6-2.8-3.4-4.3-5.4-3.6-4.5-7.6-9.1-9.4-8.9-0.1-0.2-1.1 0.8-2.4 2.2s-2.9 3.3-4.6 5.4c-3.5 4.2-7.7 9.2-10.9 11.9 0 0-0.1 0.2-0.4 0.2-0.4-0.2-0.5-0.4-0.5-0.6-0.2-0.3-0.2-0.5-0.2-0.8 0-3.2 1.7-12.1 2.9-17.8 2.6-10.7 7.7-16.8 8-19 0.6-3.3 0.8-6.3 0.8-9.1 0-9-2.4-15.6-3.3-22-0.8-5.6-4.9-23.5-7.6-41.1-1.6-1.7-3.7-4.7-6-8-0.6-0.8-1-1.7-1.6-2.5-2.2-3.3-4.3-5.6-5.9-7.1-1.5-1.5-2.6-2.1-2.6-2.1-0.1-0.1-0.2-0.3-0.1-0.5 5.8-13.1 12.3-17.5 13.6-18.2 0.1-52.3 10.6-70.8 11.8-72.6-0.3-1.2-0.6-2.3-0.6-3.1v-0.5c0.1-0.7 0.6-1.2 1.3-1.2 1.5 0 3.7 2 6 6.1zm-6.5-5.5c-0.2 0.1-0.3 0.1-0.4 0.6q0 0.2 0 0.3c0 1.4 1 4.3 1.9 6.8 1.1 2.4 2 4.5 2 4.5 0 0.1 0 0.3-0.2 0.4-0.1 0-0.4 0-0.5-0.2 0 0-1.8-3.9-3-7.4-0.3 0.6-0.8 1.5-1.4 2.9-1.1 2.5-2.5 6.5-4 12.2-2.9 11.3-6 29.6-6 57.5 0 4.4 0.2 9 0.3 13.8 0.7 21.2 8.8 56.5 10.1 64.8 0.9 6.2 3.3 12.9 3.3 22.1 0 2.9-0.2 5.9-0.8 9.3-0.5 2.6-5.4 8.3-8 19-1.4 5.5-2.9 14.6-2.9 17.5v0.4c1.5-1.4 3.3-3.1 5-5.1q0-0.2 0-0.7c0-2.1 0.6-8.3 6.5-23 0-0.3 0.2-0.4 0.4-0.3 0.2 0 0.3 0.3 0.3 0.4v0.1c-5.8 14.4-6.5 20.6-6.5 22.7 1.6-1.8 3.4-3.9 4.9-5.8q0-0.2 0-0.3c0-1.2 0.4-4.8 3.9-14 0-0.3 0.2-0.4 0.5-0.3 0.1 0 0.2 0.3 0.2 0.4v0.1c-3 8-3.7 11.7-3.8 13.2 1.4-1.7 2.7-3.4 3.8-4.5 1-1.2 1.8-2 2.5-2.3 0-1.8-0.4-10.5-0.4-17 0-2.4 0.1-4.5 0.2-5.9 0.1-0.2 0.2-0.3 0.5-0.3 0.2 0.1 0.3 0.2 0.3 0.4-0.2 1.3-0.2 3.4-0.2 5.8 0 6.4 0.3 15.1 0.5 16.8 1.7 0.4 3.8 2.5 6.1 5-0.2-2.5-0.8-8.4-1.3-11.2 0-0.2 0.1-0.5 0.4-0.5 0.2 0 0.4 0.1 0.4 0.4 0.6 3.4 1.3 11.3 1.4 12.4 2.2 2.5 4.4 5.4 6.3 7.7-0.1-1.9-1-7.5-4.8-21.1-0.1-0.2 0-0.4 0.3-0.4 0.2-0.1 0.4 0 0.4 0.2 4.4 15.5 4.9 20.6 4.9 22v0.2c0.1 0.2 0.3 0.4 0.4 0.6 1.3 1.5 2.6 2.7 2.8 2.7v-0.2-1c0-13.9-9.5-32.3-10.4-40.4-0.3-2.9-0.6-6-0.7-9.3v-0.1c-0.1-1.2-0.1-2.4-0.1-3.7 0-10.9 1.5-23 5.7-35.7 3.6-11 8-26.6 8-49 0-8.4-0.6-17.8-2.1-28.2-5.7-5.5-10.1-12.8-11.1-14.6-2.2 2.2-5 2.8-7.5 2.8-3.1 0-5.6-1.1-5.6-1.1-0.3 0-0.4-0.2-0.3-0.4 0-0.3 0.3-0.4 0.5-0.3 0-0.1 2.4 1 5.4 1 2.5-0.2 5.1-0.7 7.2-2.9 2-2 3.4-5.5 3.5-11.2q0-0.3 0-0.7c0-6-1.9-12.6-4.1-17.6-2.2-4.9-4.9-8.4-6.3-8.3-0.5 0-0.8 0.3-1.2 1.3-0.2 0.5-0.2 2.1-0.2 2.7v0.3c0.3 0.8 0.8 1.6 1.1 2.4 2.4 5.5 2.6 11.1 2.6 12.8v0.4q0 0.4-0.4 0.4-0.3 0-0.3-0.4v-0.4c0-1.6-0.1-7.2-2.4-12.4-0.4-0.9-0.7-1.7-1.2-2.5-2.3-4.3-5-6.5-6.4-6.6zm15.9 23.8q0.3 0 0.3 0.3s0 7.3-4.6 10.3c-1.5 1.1-3.5 1.3-5.2 1.3-2.7 0-5.1-0.6-5.1-0.6-0.1 0-0.2-0.2-0.2-0.4s0.2-0.3 0.4-0.3c0 0 2.4 0.6 4.9 0.6 1.7 0 3.6-0.3 4.9-1.2 2.1-1.2 3.1-3.7 3.7-5.7 0.6-2.1 0.6-3.9 0.6-3.9 0-0.2 0.1-0.3 0.3-0.4zm-16.1-0.6c1.7 0 3 2 3.2 4.2q0 0.3 0 0.7c0 2.2-1.2 3.7-3 3.8h-0.2c-0.9 0-1.6-0.4-2.2-1.1-0.5-0.7-0.8-1.8-0.8-3.2 0-1.3 0.6-4.4 3-4.4zm-21.5 74.7c1.1-1.7 5.6-8.7 9.7-11.8-0.1-2.8-0.1-5.6-0.1-8.2-0.1 0.1-0.4 0.2-0.6 0.4-0.7 0.5-1.9 1.4-3.1 2.8-2.6 2.7-5.9 7.1-9.1 14 0.6 0.4 1.8 1.2 3.2 2.8zm3.4 3.9c1-1.2 3.4-5.2 6.5-7.4 0-0.9-0.1-1.9-0.1-2.9 0-1.5-0.1-3-0.1-4.5-2.1 1.8-4.3 4.4-6 6.9-1.7 2-2.8 3.9-3.2 4.5 1 0.9 2 2.2 2.9 3.4zm3.3 4.6c0.6-0.9 1.9-2.5 4-3.7q-0.5-3.9-0.7-7.3c-3 2.3-5.4 6.2-6 7.1 0.5 0.6 0.8 1.2 1.3 1.9 0.4 0.7 0.9 1.4 1.4 2zm5.5 7.5c-0.5-3.5-1-7.1-1.4-10.4-1.9 1.2-3.2 3-3.7 3.6 1.9 2.7 3.6 5.2 5.1 6.8zm30.5 21.2c-3.5 11.3-4.9 22.1-5 32.1 0.9-3 2.6-5.8 4.2-8.5-0.2-0.6-0.9-2.9-1.4-5.2 0-0.2 0.1-0.5 0.3-0.5 0.3 0 0.5 0.2 0.5 0.4 0.4 1.7 0.8 3.6 1.2 4.5 0.7-1.3 1.4-2.4 1.9-3.6-0.2-0.8-1.7-4.4-2.3-6.7-0.1-0.2 0-0.5 0.3-0.5 0.2-0.1 0.4 0 0.4 0.3 0.5 1.7 1.5 4.5 2.1 5.9q1-2.1 1-4.2v-0.9c-0.4-3.4-2.3-10.3-3.2-13.1zm8.3-40.1c-0.7 9.6-2 17.8-3.8 24.8 0.7-0.2 2-0.6 3.6-0.8-0.1-0.8-0.5-2.6-0.8-4-0.1-0.2 0-0.4 0.2-0.4 0.3-0.1 0.5 0 0.5 0.2 0.3 1.4 0.7 3.1 0.8 4 0.8-0.2 1.6-0.2 2.4-0.3 0-1.5-0.3-7.2-1.7-10.5-0.1-0.1 0-0.4 0.2-0.5 0.1 0 0.4 0 0.5 0.3 1.4 3.5 1.7 9.2 1.8 10.7 0.6-0.1 1.2-0.1 1.8-0.1 0-1-0.2-4.3-0.9-8.4-0.9-4.7-2.2-10.4-4.6-15zm-9.8-63.7c-0.5 4.2-1.7 7.1-3.4 8.9 0.5 0.8 2.1 3.6 4.4 6.9 2.8 3.8 6.8 8.4 10.9 11.2 1.2 0.8 2.8 1.5 3.7 1.5h0.3c-1.4-2-7.6-10.2-13.1-18.1-0.1-0.2 0-0.4 0.1-0.6 0.2-0.1 0.5 0 0.6 0.2 5.5 8 11.7 16.2 13.1 18 0.1-0.1 0.1-0.3 0.1-0.5 0-1-0.6-2.7-2-5.4-4.2-8-12.4-19-14.7-22.1zm-19.7-7.4c-0.7 0-1.3 0.6-1.6 1.4-0.3 0.4-0.4 0.9-0.5 1.4 0.2-0.6 0.7-1.2 1.5-1.2 1.1 0 2.1 0.9 2.1 2.2 0 1-0.7 2.3-2 2.4-0.5 0-1.1-0.1-1.5-0.5 0.4 1 1.1 1.5 1.9 1.5h0.2c1.3-0.1 2.3-1.2 2.3-3.2v-0.5c-0.1-2-1.4-3.6-2.4-3.5z" fill-rule="evenodd"/>
   </g>
   <g id="Clip-Path" clip-path="url(#cp12)">
    <path id="Layer" class="s7" d="m49.6 171.4c0 0.4 0 0.6 0.1 0.7 0-0.4 0.2-1.2 0.8-1.2 0.5 0 0.9 0.5 0.9 1.2 0 0.3 0 0.4-0.1 0.6 0.4-0.3 0.6-0.9 0.6-1.4 0-0.8-0.7-1.5-1.3-1.5-0.7 0-1 1.2-1 1.6z"/>
   </g>
   <g id="Clip-Path" clip-path="url(#cp13)">
    <path id="Layer" class="s1" d="m421.2 141h64.7v231.1h-64.7z"/>
   </g>
   <g id="Clip-Path" clip-path="url(#cp14)">
    <path id="Layer" class="s10" d="m461 367.8q0-0.2 0-0.4c0-0.8-0.2-1.9-0.7-3.2 0 0 11.9-17.5 11.9-72.9 0 0 7.2-3.8 13.6-18 0 0-4.1-2.6-8.6-9.4-2.8-4.4-5.7-8.5-7.7-10.4-2.7-17.7-6.7-35.7-7.5-41.3-1-6.2-3.4-13-3.4-22 0-2.8 0.2-5.8 0.8-9.1 0.5-2.5 5.5-8.3 8-19 1.3-5.7 2.9-14.6 2.9-17.7 0-0.6-0.1-1-0.2-1 0 0-0.1 0-0.1 0.1-6.5 5.5-16.5 19.7-18.4 19.7-4.2 0-15.4-18.1-17.6-18.1q-0.3 0-0.3 0.7v1c0 14 9.6 32.4 10.4 40.4 0.4 3 0.6 6.2 0.7 9.6v0.2c0 9.1-8.8 15.9-8.8 22.6 0 0.4 0 0.6 0.1 1 0.6 4.2 3.4 14 3.5 14.4-0.1 0.4-0.2 0.6-0.2 1-1.2 3.6-2.5 7.6-3.6 12.4 0 0-4.3 1.6-10.2 1.6 0 0 0.6 15.4 6 25.2-0.2 3.2-0.3 6.5-0.3 10 0 8.4 0.5 17.9 2.2 28.4-1.3-1.3-2.7-2.5-4.1-3.4-1.3-0.8-2.9-1.6-3.9-1.6-0.8 0-1.3 0.3-1.3 1.4 0 1 0.6 2.8 2 5.5 4.9 9.4 15.3 22.9 15.3 22.9 0 0.4-0.2 1-0.2 1.6v0.8c0 12.3 7.2 26.3 10.8 26.3 0.7 0 1.2-0.5 1.5-1.5 0.2-0.7 0.2-2.3 0.2-3q0-0.4 0-0.4c2.4 4.4 5 6.7 6.4 6.7 0.4-0.2 0.7-0.5 0.8-1.1-0.1 0.6-0.3 0.8-0.8 0.8-1.4 0-3.9-2.3-6.4-6.7t0 0.3c0 0.7 0 2.2-0.2 3-0.3 1.1-0.9 1.5-1.5 1.5-3.6 0-10.8-14-10.8-26.3v-0.8c0-0.5 0-1 0.2-1.6 0 0-10.4-13.4-15.3-22.8-1.4-2.7-2-4.5-2-5.6 0-1 0.6-1.4 1.3-1.4 1 0 2.6 0.9 3.9 1.7 1.4 0.9 2.8 2 4.1 3.3-1.5-10.5-2.2-19.9-2.2-28.4 0-3.4 0.1-6.8 0.3-9.9-5.4-9.7-6-25.3-6-25.3 5.9 0 10.2-1.6 10.2-1.6 1.1-4.6 2.4-8.8 3.6-12.4 0.1-0.3 0.2-0.6 0.2-0.9-0.1-0.4-2.9-10.2-3.5-14.5 0-0.3-0.1-0.6-0.1-0.9 0-6.7 8.8-13.6 8.8-22.6v-0.2c-0.1-3.4-0.3-6.6-0.7-9.7-0.9-7.9-10.4-26.4-10.4-40.4v-0.9q0-0.7 0.3-0.7c2.2 0 13.4 18.1 17.6 18.1 1.8 0 11.9-14.3 18.4-19.7l0.1-0.1c0.1 0 0.2 0.3 0.2 1 0 3-1.5 11.9-2.9 17.6-2.5 10.8-7.6 16.6-8 19-0.6 3.4-0.8 6.4-0.8 9.2 0 9.1 2.4 15.7 3.4 22 0.8 5.5 4.8 23.6 7.5 41.2 2 2 4.9 6.1 7.7 10.4 4.6 6.9 8.6 9.4 8.6 9.4-6.4 14.3-13.6 18.1-13.6 18.1-0.2 55.4-11.9 72.8-11.9 72.8 0.4 1.3 0.7 2.5 0.7 3.3v0.7z"/>
   </g>
   <g id="Clip-Path" clip-path="url(#cp15)">
    <path id="Layer" class="s6" d="m454.1 363c0 0.7-0.1 1.4-0.3 2-0.3 1-1 1.7-1.8 1.7-2.2-0.1-4.8-3.7-7.1-8.8-2.2-5.1-4-11.8-4-17.9v-0.8c0.1-0.5 0.1-1 0.1-1.4-0.9-1.3-10.4-13.9-15.2-22.8-1.5-2.7-2.1-4.6-2.1-5.7 0-0.6 0.1-1.1 0.5-1.4l0.1-0.1c0.4-0.1 0.7-0.3 1.1-0.3 1.2 0 2.8 0.9 4.1 1.8 1.2 0.8 2.3 1.7 3.4 2.6-1.4-10-2-19.2-2-27.4 0-3.5 0.1-6.7 0.4-9.9-5.5-9.9-6.1-25.3-6.1-25.3 0-0.1 0-0.1 0.2-0.3 0-0.1 0.1-0.1 0.2-0.1 5.1 0 9-1.1 9.8-1.5 1.2-4.5 2.5-8.5 3.6-12.1 0.1-0.3 0.1-0.6 0.3-0.8-0.4-1.2-2.9-10.4-3.5-14.4-0.1-0.2-0.1-0.6-0.1-0.9 0-1.8 0.7-3.6 1.5-5.4 2.4-5.2 7.3-10.6 7.3-17.1q0-0.2 0-0.4-0.2-4.8-0.7-9.3c-0.8-7.9-10.5-26.4-10.5-40.6v-0.9c0-0.5 0.3-1.1 0.9-1.1 0.9 0.2 1.8 1.3 3.3 3.1 0.1 0.3 0.4 0.5 0.6 0.8 1.3 1.6 2.8 3.4 4.3 5.4 3.6 4.5 7.6 9.1 9.4 8.9 0.1 0.2 1.1-0.8 2.4-2.2s2.9-3.3 4.6-5.4c3.5-4.2 7.7-9.2 10.9-11.9 0 0 0.3-0.2 0.4-0.2 0.4 0.2 0.5 0.4 0.5 0.6 0.2 0.3 0.2 0.5 0.2 0.8 0 3.2-1.7 12.1-2.9 17.8-2.6 10.7-7.7 16.8-8 19-0.6 3.3-0.8 6.3-0.8 9.1 0 9 2.4 15.6 3.3 22 0.8 5.6 4.9 23.5 7.6 41.1 1.6 1.7 3.7 4.7 6 8 0.6 0.8 1 1.7 1.6 2.5 2.2 3.3 4.3 5.6 5.9 7.1 1.5 1.5 2.6 2.1 2.6 2.1 0.1 0.1 0.2 0.4 0.1 0.5-5.8 13.1-12.3 17.5-13.6 18.2-0.1 52.3-10.6 70.8-11.8 72.6 0.3 1.2 0.6 2.3 0.6 3.1v0.5c-0.1 0.7-0.6 1.2-1.3 1.2-1.5 0-3.7-2-6-6.1zm6.5 5.5c0.2-0.1 0.3-0.1 0.4-0.6q0-0.2 0-0.3c0-1.4-1-4.3-1.9-6.8-1.1-2.4-2-4.5-2-4.5 0-0.1 0-0.3 0.2-0.4 0.1 0 0.4 0 0.5 0.2 0 0 1.8 3.9 3 7.4 0.3-0.6 0.8-1.5 1.4-2.9 1.1-2.5 2.5-6.5 4-12.2 2.9-11.3 6-29.6 6-57.5 0-4.4-0.2-9-0.3-13.8-0.7-21.2-8.8-56.5-10.1-64.8-0.9-6.2-3.3-12.9-3.3-22.1 0-2.9 0.2-5.9 0.8-9.3 0.5-2.6 5.4-8.3 8-19 1.4-5.5 2.9-14.6 2.9-17.5v-0.4c-1.5 1.4-3.3 3.1-5 5.1q0 0.2 0 0.7c0 2.1-0.6 8.3-6.5 23 0 0.3-0.2 0.4-0.4 0.3-0.2 0-0.3-0.3-0.3-0.4v-0.1c5.8-14.4 6.5-20.6 6.5-22.7-1.6 1.8-3.4 3.9-4.9 5.8q0 0.2 0 0.3c0 1.2-0.4 4.8-3.9 14 0 0.3-0.2 0.4-0.5 0.3-0.1 0-0.2-0.3-0.2-0.4v-0.1c3-8 3.7-11.7 3.8-13.2-1.4 1.7-2.7 3.4-3.8 4.5-1 1.2-1.8 2-2.5 2.3 0 1.8 0.4 10.5 0.4 17 0 2.4-0.1 4.5-0.2 5.9-0.1 0.2-0.2 0.3-0.5 0.3-0.2-0.1-0.3-0.2-0.3-0.4 0.2-1.3 0.2-3.4 0.2-5.8 0-6.4-0.3-15.1-0.5-16.8-1.7-0.4-3.8-2.5-6.1-5 0.2 2.5 0.8 8.4 1.3 11.2 0 0.2-0.1 0.5-0.4 0.5-0.2 0-0.4-0.1-0.4-0.4-0.6-3.4-1.3-11.3-1.4-12.4-2.2-2.5-4.4-5.4-6.3-7.7 0.1 1.9 1 7.5 4.8 21.1 0.1 0.2 0 0.4-0.3 0.4-0.2 0.1-0.4 0-0.4-0.2-4.4-15.5-4.9-20.6-4.9-22v-0.2c-0.1-0.2-0.3-0.4-0.4-0.6-1.3-1.5-2.6-2.7-2.8-2.7v0.2 1c0 13.9 9.5 32.3 10.4 40.4 0.3 2.9 0.6 6 0.7 9.3v0.1c0.1 1.2 0.1 2.4 0.1 3.7 0 10.9-1.5 23-5.7 35.7-3.6 11-8 26.6-8 49 0 8.4 0.6 17.8 2.1 28.2 5.7 5.5 10.1 12.8 11.1 14.6 2.2-2.2 5-2.8 7.5-2.8 3.1 0 5.6 1.1 5.6 1.1 0.3 0 0.4 0.2 0.3 0.4 0 0.3-0.3 0.4-0.5 0.3 0 0.1-2.4-1-5.4-1-2.5 0.2-5.1 0.7-7.2 2.9-2 2-3.4 5.5-3.5 11.2q0 0.3 0 0.7c0 6 1.9 12.6 4.1 17.6 2.2 4.9 4.9 8.4 6.3 8.3 0.5 0 0.8-0.3 1.2-1.3 0.2-0.5 0.2-2.1 0.2-2.7v-0.3c-0.3-0.8-0.8-1.6-1.1-2.4-2.4-5.5-2.6-11.1-2.6-12.8v-0.4q0-0.4 0.4-0.4 0.3 0 0.3 0.4v0.4c0 1.6 0.1 7.2 2.4 12.4 0.4 0.9 0.7 1.7 1.2 2.5 2.3 4.3 5 6.5 6.4 6.6zm-15.9-23.8q-0.3 0-0.3-0.3s0-7.3 4.6-10.3c1.5-1.1 3.5-1.3 5.2-1.3 2.7 0 5.1 0.6 5.1 0.6 0.1 0 0.2 0.2 0.2 0.4s-0.2 0.3-0.4 0.3c0 0-2.4-0.6-4.9-0.6-1.7 0-3.6 0.3-4.9 1.2-2.1 1.2-3.1 3.7-3.7 5.7-0.6 2.1-0.6 3.9-0.6 3.9 0 0.2-0.2 0.3-0.3 0.4zm16.1 0.6c-1.7 0-3-2-3.2-4.2q0-0.3 0-0.7c0-2.2 1.2-3.7 3-3.8h0.2c0.9 0 1.6 0.4 2.2 1.1 0.5 0.7 0.8 1.8 0.8 3.2 0 1.3-0.6 4.3-3 4.4zm21.5-74.7c-1.1 1.7-5.6 8.7-9.7 11.8 0.1 2.8 0.1 5.6 0.1 8.2 0.1-0.1 0.4-0.2 0.6-0.4 0.7-0.5 1.9-1.4 3.1-2.8 2.6-2.7 5.9-7.1 9.1-14-0.6-0.4-1.8-1.2-3.2-2.8zm-3.4-3.9c-1 1.2-3.4 5.2-6.5 7.4 0 0.9 0.1 1.9 0.1 2.9 0 1.5 0.1 3 0.1 4.5 2.1-1.8 4.3-4.4 6-6.9 1.7-2 2.8-3.9 3.2-4.5-1-1-2-2.2-2.9-3.4zm-3.3-4.6c-0.6 0.9-1.9 2.5-4 3.7q0.5 3.9 0.7 7.3c3-2.3 5.4-6.2 6-7.1-0.5-0.6-0.8-1.2-1.3-1.9-0.4-0.7-0.9-1.4-1.4-2zm-5.5-7.5c0.5 3.5 1 7.1 1.4 10.4 1.9-1.2 3.2-3 3.7-3.6-1.9-2.7-3.6-5.2-5.1-6.8zm-30.5-21.2c3.5-11.3 4.9-22.1 5-32.1-0.9 3-2.6 5.8-4.2 8.5 0.2 0.6 0.9 2.9 1.4 5.2 0 0.2-0.1 0.5-0.3 0.5-0.3 0-0.5-0.2-0.5-0.4-0.4-1.7-0.8-3.6-1.2-4.5-0.7 1.3-1.4 2.4-1.9 3.6 0.2 0.8 1.7 4.4 2.3 6.7 0.1 0.2 0 0.5-0.3 0.5-0.2 0.1-0.4 0-0.4-0.3-0.5-1.7-1.5-4.5-2.1-5.9q-1 2.1-1 4.2v0.9c0.4 3.4 2.3 10.3 3.2 13.1zm-8.3 40.1c0.7-9.6 2-17.8 3.8-24.8-0.7 0.2-2 0.5-3.6 0.8 0.1 0.8 0.5 2.6 0.8 4 0.1 0.2 0 0.4-0.2 0.4-0.3 0.1-0.5 0-0.5-0.2-0.3-1.4-0.7-3.1-0.8-4-0.8 0.2-1.6 0.2-2.4 0.3 0 1.5 0.3 7.2 1.7 10.5 0.1 0.1 0 0.4-0.2 0.5-0.1 0-0.4 0-0.5-0.3-1.4-3.5-1.7-9.2-1.8-10.7-0.6 0.1-1.2 0.1-1.8 0.1 0 1 0.2 4.3 0.9 8.4 0.9 4.7 2.2 10.4 4.6 15zm9.8 63.8c0.5-4.2 1.7-7 3.4-8.9-0.5-0.8-2.1-3.6-4.4-6.8-2.8-3.9-6.8-8.5-10.9-11.3-1.2-0.9-2.8-1.6-3.7-1.6h-0.3c1.4 2 7.6 10.2 13.1 18.1 0.1 0.2 0 0.4-0.1 0.6-0.2 0.1-0.5 0-0.6-0.2-5.5-8-11.7-16.2-13.1-18-0.1 0.1-0.1 0.3-0.1 0.5 0 1 0.6 2.7 2 5.4 4.2 8 12.3 19 14.7 22.2zm19.7 7.3c0.7 0 1.3-0.6 1.6-1.4 0.3-0.4 0.4-0.9 0.5-1.4-0.2 0.6-0.7 1.2-1.5 1.2-1.1 0-2.1-0.9-2.1-2.2 0-1 0.7-2.3 2-2.4 0.5 0 1.1 0.1 1.5 0.5-0.4-1-1.1-1.5-1.9-1.5h-0.2c-1.3 0.1-2.3 1.2-2.3 3.2v0.5c0.1 1.9 1.4 3.5 2.4 3.5z" fill-rule="evenodd"/>
   </g>
   <g id="Clip-Path" clip-path="url(#cp16)">
    <path id="Layer" class="s7" d="m462.4 340.6c0-0.4 0-0.6-0.1-0.7 0 0.4-0.2 1.2-0.8 1.2-0.5 0-0.9-0.5-0.9-1.2 0-0.3 0-0.4 0.1-0.6-0.4 0.3-0.6 0.9-0.6 1.4 0 0.8 0.7 1.5 1.3 1.5 0.7 0 1-1.2 1-1.6z"/>
   </g>
   <g id="Clip-Path" clip-path="url(#cp17)">
    <path id="Layer" class="s1" d="m312.1 193.1s20.9-1.4 20.9-22.9c0-12.3-8.7-22.6-18.4-22.6s-19.8 4.5-58.6 4.5-48.9-4.5-58.6-4.5-18.4 10.2-18.4 22.6c0 21.5 20.9 22.9 20.9 22.9l-58.8 102.9c-2.1 3.6-3.3 17.5 5.1 25.7 8.7 8.7 18.6 7.7 18.6 7.7s5.4 10.8 12.5 14.6c8.4 4.4 18.2 1 18.2 1s4.7 9.1 12.9 11.9 17.5-0.1 17.5-0.1 7.4 6.6 15.4 7.5 14.7-3.4 14.7-3.4 6.7 4.3 14.7 3.4 15.4-7.5 15.4-7.5 9.3 2.9 17.5 0.1 12.9-11.9 12.9-11.9 9.8 3.4 18.2-1c7.1-3.8 12.5-14.6 12.5-14.6s9.9 1 18.6-7.7c8.4-8.4 7.2-22.1 5.1-25.7z"/>
   </g>
   <g id="Clip-Path" clip-path="url(#cp18)">
    <path id="Layer" class="s11" d="m312.2 193s20.9-1.4 20.9-23c0-12.3-8.6-22.5-18.4-22.5-9.7 0-19.8 4.5-58.7 4.5s-49-4.5-58.7-4.5c-9.8 0-18.4 10.3-18.4 22.5 0 21.7 20.9 23 20.9 23l-58.9 103.1c-0.9 1.4-1.5 4.5-1.5 8.1 0 5.5 1.6 12.6 6.6 17.6 7.1 7.2 15.2 7.8 17.8 7.8h0.8s5.3 10.7 12.6 14.6c3.3 1.7 6.7 2.2 9.9 2.2 4.7 0 8.4-1.3 8.4-1.3s4.7 9.1 12.9 11.9c2.7 0.9 5.4 1.2 8 1.2 5.3 0 9.5-1.4 9.5-1.4s7.4 6.6 15.4 7.5c0.8 0.1 1.5 0.1 2.3 0.1 7 0 12.5-3.5 12.5-3.5s5.5 3.5 12.5 3.5c0.7 0 1.5 0 2.3-0.1 8-0.9 15.4-7.5 15.4-7.5s4.3 1.4 9.5 1.4c2.6 0 5.4-0.4 8-1.2 8.3-2.8 12.9-11.9 12.9-11.9s3.7 1.3 8.5 1.3c3 0 6.6-0.6 9.8-2.2 7.2-3.9 12.6-14.6 12.6-14.6h0.8c2.6 0 10.7-0.6 17.9-7.8 5-5 6.6-12.1 6.6-17.6 0-3.7-0.7-6.7-1.5-8.1l-59.2-103.1 58.9 103.1c0.9 1.4 1.5 4.5 1.5 8.1 0 5.5-1.6 12.6-6.6 17.6-7.1 7.2-15.2 7.8-17.8 7.8h-0.8s-5.3 10.7-12.6 14.6c-3.3 1.7-6.7 2.2-9.9 2.2-4.7 0-8.4-1.3-8.4-1.3s-4.7 9.1-12.9 11.9c-2.7 0.9-5.4 1.2-8 1.2-5.3 0-9.5-1.4-9.5-1.4s-7.4 6.6-15.4 7.5c-0.8 0.1-1.5 0.1-2.3 0.1-7 0-12.5-3.5-12.5-3.5s-5.5 3.5-12.5 3.5c-0.7 0-1.5 0-2.3-0.1-8-0.9-15.4-7.5-15.4-7.5s-4.3 1.4-9.5 1.4c-2.6 0-5.4-0.4-8-1.2-8.3-2.8-12.9-11.9-12.9-11.9s-3.7 1.3-8.5 1.3c-3 0-6.6-0.6-9.8-2.2-7.2-3.9-12.6-14.6-12.6-14.6h-0.8c-2.6 0-10.7-0.6-17.9-7.8-5-5-6.6-12.1-6.6-17.6 0-3.7 0.7-6.7 1.5-8.1l59-103.1s-21-1.4-21-23c0-12.3 8.7-22.5 18.4-22.5 9.8 0 19.8 4.5 58.8 4.5 38.9 0 49-4.5 58.7-4.5s18.4 10.3 18.4 22.5c0.2 21.6-20.7 23-20.7 23z"/>
   </g>
   <g id="Clip-Path" clip-path="url(#cp19)">
    <path id="Layer" class="s1" d="m134.4 146.9h260.6v222.5h-260.6z"/>
   </g>
   <g id="Clip-Path" clip-path="url(#cp20)">
    <g id="Layer" fill-rule="evenodd">
     <path id="Layer" class="s6" d="m360 302.8c0 4.4-2.1 10-6.2 13-3.3 2.3-7.1 2.9-10 2.9-2.1 0-3.7-0.4-4.4-0.5-0.3 1.7-2.2 8.7-8.1 13-3.2 2.4-7.2 3-10.4 3-2.9 0-5.2-0.5-6.1-0.7-0.6 1.6-3.9 8.6-11.2 12.3-3 1.5-6.1 1.9-9 1.9-4.4 0-8.1-1.1-9.2-1.5-1 1.2-6 6.6-13.5 7.7-0.6 0.1-1.3 0.1-1.9 0.1-6.7 0-12.5-4.8-13.8-5.9-1.2 1.1-7 5.9-13.8 5.9-0.5 0-1.2 0-1.8-0.1-7.5-1.1-12.5-6.5-13.6-7.7-1 0.4-4.7 1.5-9.1 1.5-2.9 0-6-0.4-9-1.9-7.2-3.7-10.6-10.7-11.3-12.3-0.8 0.2-3.1 0.7-6 0.7-3.2 0-7.2-0.6-10.4-3-5.9-4.3-7.8-11.3-8.1-13-0.7 0.2-2.4 0.5-4.4 0.5-2.9 0-6.8-0.6-10-2.9-4.2-2.9-6.3-8.6-6.3-13 0-1.7 0.4-3.4 1.1-4.5 21.6-38 23.8-41.7 24.1-42.2 0.1-0.2 0.7-1.1 3-5.2 3-5.3 9-15.9 21.1-36.9 5.6-9.9 24.5-38.3 54.4-38.3s48.8 28.4 54.5 38.3c22.5 39.5 23.9 42 24.1 42.1v0.1c0.1 0.1 0.1 0.3 0.3 0.6 0.3 0.7 1.2 2 2.7 4.6 3 5.4 9 15.9 21 37 0.7 1.2 1.1 2.8 1.3 4.4zm-0.8 0.1c0-1.6-0.3-3-0.9-4-21.1-37-23.8-41.6-24.1-42.2v-0.1l-24.2-42.3c-5.7-9.8-24.5-37.9-53.9-37.9s-48.3 28.1-53.8 37.9c-24.3 42.3-24.3 42.3-24.3 42.3-0.2 0.2-1.9 3.5-24.2 42.3-0.5 1-0.9 2.4-0.9 4 0 4.3 2.1 9.6 5.9 12.4 3 2.2 6.7 2.8 9.5 2.8 2.3 0 4.1-0.4 4.5-0.5l16.1-31.5c0.1-0.2 0.4-0.3 0.6-0.2s0.4 0.3 0.2 0.6l-16.1 31.6c0.2 0.5 0.5 2.2 1.5 4.5 1.2 2.7 3.2 5.9 6.4 8.2 3 2.2 6.9 2.8 10 2.8 2.9 0 5.2-0.6 5.9-0.7l11.5-37.1c0-0.2 0.2-0.3 0.4-0.2 0.2 0 0.4 0.2 0.2 0.5l-11.5 37.2c0.1 0.4 0.9 2.2 2.4 4.4 1.7 2.5 4.5 5.5 8.5 7.6 2.7 1.5 5.9 2 8.6 2 4.4 0 8-1.2 9-1.5l6.4-44.6c0-0.3 0.3-0.4 0.5-0.4s0.4 0.3 0.4 0.5l-6.5 44.7c0.3 0.4 1.5 1.7 3.4 3.2 2.4 1.8 5.6 3.6 9.7 4.2 0.5 0.1 1.1 0.1 1.7 0.1 3.6 0 7.1-1.5 9.5-3 2.1-1.3 3.6-2.5 3.9-2.9v-84.8c0-0.2 0.3-0.4 0.5-0.4s0.5 0.2 0.5 0.4v84.8c0.4 0.5 1.8 1.6 3.9 2.9 2.4 1.5 5.9 3 9.5 3 0.6 0 1.2 0 1.7-0.1 4.1-0.4 7.3-2.4 9.7-4.2 1.9-1.5 3.1-2.7 3.4-3.2l-6.5-44.7c0-0.2 0.2-0.5 0.4-0.5s0.5 0.1 0.5 0.4l6.4 44.6c0.4 0.1 1.2 0.4 2.5 0.7 1.7 0.4 3.9 0.8 6.5 0.8 2.7 0 5.9-0.6 8.6-2 4-2.1 6.8-5.1 8.5-7.6 1.5-2.2 2.2-4 2.4-4.4l-11.5-37.2c-0.2-0.1 0-0.4 0.2-0.5 0.1-0.1 0.3 0 0.4 0.2l11.5 37.1c0.2 0.1 0.8 0.2 1.5 0.4 1.2 0.1 2.7 0.3 4.4 0.3 3.1 0 7-0.6 10-2.8 3.2-2.3 5.2-5.5 6.4-8.2 1-2.2 1.3-4 1.5-4.5l-16.1-31.6c0-0.3 0-0.5 0.2-0.6 0.2 0 0.5 0 0.6 0.2l16.1 31.5c0.6 0.1 2.3 0.5 4.5 0.5 2.8 0 6.4-0.6 9.5-2.8 3.8-2.7 5.9-8.1 6-12.4zm-168.2-133.2c0-1.7 0.5-3.6 1.4-5.2 2-3.5 5.6-5.3 9.2-5.3 1.7 0 3.5 0.4 5.2 1.4 3.4 1.9 5.3 5.5 5.3 9.1 0 1.7-0.5 3.6-1.4 5.2-0.1 0.2-0.2 0.4-0.3 0.5l-10.1 17.6c-0.1 0.1-0.2 0.2-0.4 0.2h-0.2c-0.1 0-0.2-0.2-0.1-0.4l8.3-14.6c-1.8 1.3-4.1 2.2-6.5 2.2-1.7 0-3.6-0.5-5.2-1.4-3.4-1.9-5.3-5.5-5.2-9.3zm0.7 0.1c0 3.4 1.7 6.6 4.9 8.4 1.5 0.8 3.1 1.2 4.7 1.2 3.4 0 6.6-1.7 8.4-4.8 0.8-1.5 1.2-3.2 1.2-4.8 0-3.3-1.7-6.6-4.8-8.3-1.5-0.8-3.2-1.3-4.8-1.3-3.3 0-6.6 1.7-8.3 4.9-0.8 1.5-1.3 3.2-1.3 4.7zm109.8 5.5c-0.9-1.7-1.4-3.5-1.4-5.3 0-3.7 2-7.1 5.4-9.1 1.6-0.9 3.4-1.4 5.2-1.4 3.7 0 7.2 2 9.1 5.3 1 1.7 1.4 3.5 1.4 5.2 0 3.8-2 7.2-5.3 9.2-1.6 0.9-3.5 1.4-5.2 1.4-2.3 0-4.7-0.8-6.5-2.2l8.3 14.6c0.1 0.1 0.1 0.3-0.1 0.4h-0.2c-0.1 0-0.3-0.1-0.4-0.2l-10-17.6c0-0.2-0.2-0.3-0.3-0.3zm-0.6-5.5c0 1.6 0.4 3.3 1.3 4.8 1.8 3.1 5 4.8 8.4 4.8 1.6 0 3.2-0.4 4.7-1.2 3.1-1.8 4.9-5 4.9-8.4 0-1.6-0.5-3.2-1.3-4.7-1.7-3.2-5-4.9-8.3-4.9-1.7 0-3.3 0.5-4.8 1.3-3.1 1.8-4.9 5.1-4.9 8.3z"/>
     <path id="Layer" class="s6" d="m269.8 354.8c-6.4 0-11.8-4-13.8-5.7-2 1.7-7.4 5.7-13.8 5.7-0.6 0-1.3 0-2-0.1-7.1-1-12.1-6-13.6-7.5-1.4 0.4-4.9 1.4-9.1 1.4-3.4 0-6.6-0.7-9.2-2.1-6.9-3.6-10.2-9.8-11.4-12.2-1 0.2-3.1 0.6-5.7 0.6-4.2 0-7.9-1.1-10.7-3.1-5.6-4.1-7.6-10.4-8.3-12.9-0.9 0.1-2.3 0.3-4 0.3-4.1 0-7.5-1-10.3-3-4.4-3.2-6.5-9-6.5-13.4 0-1.9 0.3-3.6 1-4.8 20.1-34.9 23.4-40.8 24-41.9l0.4-0.3 24.1-42.1c5.2-9 24.4-38.4 54.9-38.4 30.4 0 49.8 29.4 54.9 38.4l48.3 84.5c0.7 1.2 1 2.9 1 4.7 0 4.4-1.9 10.3-6.5 13.5-2.7 1.9-6.3 3-10.3 3-1.7 0-3.1-0.3-4-0.4-0.6 2.6-2.7 8.8-8.3 12.9q-4.1 3.1-10.7 3.1c-2.6 0-4.7-0.3-5.7-0.6-1 2.5-4.5 8.6-11.4 12.2-2.6 1.4-5.7 2.1-9.2 2.1-4.1 0-7.7-1-9.1-1.4-1.6 1.8-6.4 6.6-13.6 7.5h-1.4zm-12.9-7.3c0.7 0.6 2 1.6 3.6 2.7 2.2 1.2 5.6 2.9 9.2 2.9 0.5 0 1.1 0 1.7-0.1 4.1-0.6 7.3-2.6 9.4-4.1 1.6-1.3 2.8-2.4 3.2-3l-6.3-44.5c-0.2-0.6 0.3-1 0.8-1h0.1c0.5 0 0.9 0.3 0.9 0.8l6.4 44.2c0.4 0.1 1.1 0.4 2.1 0.6 2.2 0.5 4.3 0.8 6.3 0.8 3.2 0 6.1-0.6 8.5-1.8 3.9-2.1 6.7-5.2 8.2-7.5 1.3-1.8 2.1-3.4 2.3-4.1l-11.4-37c-0.1-0.2 0-0.4 0.1-0.7 0.1-0.2 0.3-0.3 0.6-0.4 0.4-0.1 1 0.1 1.1 0.7l11.5 36.7c0.3 0.1 0.7 0.1 1.3 0.2 1.4 0.2 2.9 0.4 4.3 0.4 2.6 0 6.4-0.5 9.6-2.8s5.2-5.7 6.2-8c0.9-2 1.3-3.6 1.4-4.3l-16.1-31.4q-0.2-0.3 0-0.7c0.1-0.2 0.2-0.4 0.5-0.6 0.4-0.2 1 0 1.2 0.5l16 31.3c0.7 0.1 2.2 0.3 4.1 0.3 2.5 0 6.1-0.4 9.3-2.6 3.7-2.7 5.6-8 5.6-12 0-1.5-0.2-2.9-0.8-3.8l-48.4-84.6c-5-8.8-23.7-37.6-53.3-37.6s-48.4 28.7-53.4 37.6l-23.7 41.6-0.5 0.7c0 0.1-0.5 1-3.4 5.9l-20.7 36.4c-0.6 0.9-0.8 2.3-0.8 3.8 0 4 2 9.3 5.7 12 3 2.2 6.7 2.6 9.2 2.6 2 0 3.5-0.2 4.1-0.3l16-31.3c0.2-0.5 0.8-0.7 1.3-0.5 0.4 0.3 0.7 0.8 0.4 1.3l-16.1 31.4c0.4 1.4 0.8 2.9 1.4 4.3 1.1 2.3 3 5.7 6.3 8 3.1 2.2 6.9 2.8 9.6 2.8 2.4 0 4.5-0.4 5.5-0.6l11.5-36.9c0.1-0.4 0.7-0.8 1.2-0.5 0.2 0.1 0.4 0.2 0.5 0.4 0.2 0.3 0.2 0.5 0.2 0.7l-11.5 37c0.3 0.8 1.2 2.3 2.3 4.1 1.6 2.4 4.3 5.5 8.2 7.5 2.5 1.2 5.2 1.8 8.5 1.8 3.8 0 7.2-0.9 8.4-1.3l6.4-44.2c0.1-0.5 0.5-0.8 0.9-0.8h0.2q0.3 0 0.7 0.3c0.1 0.3 0.2 0.5 0.2 0.7l-6.4 44.5c0.5 0.6 1.6 1.7 3.3 3 2 1.6 5.3 3.6 9.3 4.1 0.6 0.1 1.2 0.1 1.7 0.1 3.6 0 7-1.6 9.1-2.9 1.9-1.1 3.1-2.2 3.6-2.7v-84.4c0-0.6 0.5-0.9 0.9-0.9 0.6 0 1 0.4 1 0.9v84.3zm55.2-153.6c-0.3 0-0.7-0.2-0.8-0.5l-10.2-17.7c-0.1-0.1-0.1-0.2-0.2-0.3-1-1.6-1.5-3.6-1.5-5.5 0-3.9 2.1-7.6 5.5-9.6 1.7-0.9 3.6-1.5 5.5-1.5 3.9 0 7.6 2.1 9.6 5.6 0.9 1.6 1.5 3.6 1.5 5.4 0 4-2.1 7.7-5.6 9.6-3.1 1.8-7 1.9-10.3 0.4l7.3 12.7c0.1 0.3 0.1 0.5 0.1 0.7-0.1 0.2-0.2 0.5-0.4 0.6-0.1 0-0.3 0.1-0.5 0.1zm-1.6-33.1c-1.6 0-3.1 0.4-4.5 1.1-2.8 1.7-4.7 4.7-4.7 7.9 0 1.6 0.5 3.1 1.2 4.5 1.6 2.8 4.6 4.7 7.9 4.7 1.6 0 3.1-0.5 4.5-1.2l0.2-0.1c2.7-1.6 4.4-4.6 4.4-7.8 0-1.6-0.4-3.1-1.1-4.5-1.5-2.9-4.7-4.6-7.9-4.6zm-110.7 33.1c-0.2 0-0.4 0-0.5-0.1-0.2-0.1-0.4-0.4-0.5-0.6s0-0.4 0.1-0.7l7.3-12.7c-3.2 1.6-7.1 1.5-10.3-0.4-3.4-1.9-5.5-5.6-5.5-9.6 0-2 0.4-3.8 1.5-5.4 1.9-3.5 5.6-5.6 9.6-5.6 1.8 0 3.8 0.5 5.4 1.5 3.5 2 5.6 5.7 5.6 9.6 0 2-0.5 3.9-1.5 5.5-0.1 0.1-0.1 0.2-0.2 0.3l-0.2 0.1-10 17.6c-0.3 0.3-0.5 0.5-0.8 0.5zm1.6-33.1c-3.3 0-6.3 1.7-7.9 4.6-0.8 1.4-1.2 2.9-1.2 4.5 0 3.3 1.8 6.3 4.7 7.9 1.4 0.8 2.9 1.2 4.5 1.2 3.2 0 6.2-1.8 7.9-4.7 0.8-1.4 1.1-2.9 1.1-4.5 0-3.2-1.7-6.2-4.6-7.9-1.4-0.7-3-1.1-4.5-1.1z"/>
    </g>
   </g>
   <g id="Clip-Path" clip-path="url(#cp21)">
    <g id="Layer" fill-rule="evenodd">
     <path id="Layer" class="s6" d="m374 304.2c0 4.3-0.9 12.4-6.9 18.4-7.5 7.5-16.1 8.1-18.5 8.1h-0.3c-1.6 2.9-6.3 11-12.7 14.4-3 1.6-6.5 2.4-10.3 2.4-3.5 0-6.5-0.7-7.9-1-1.6 2.6-6 9.2-13.1 11.7-2.5 0.8-5.3 1.2-8.3 1.2-4.3 0-7.9-0.9-9.3-1.2-1.9 1.5-8.5 6.6-15.6 7.4-0.9 0.1-1.7 0.1-2.5 0.1-5.9 0-10.7-2.3-12.5-3.4-1.7 1.1-6.6 3.4-12.5 3.4-0.8 0-1.6 0-2.4-0.1-7.3-0.8-13.8-5.9-15.7-7.4-1.4 0.4-4.9 1.2-9.2 1.2-3 0-5.9-0.4-8.4-1.2-7-2.5-11.6-9.1-13.1-11.7-1.2 0.3-4.2 1-7.8 1-3.9 0-7.3-0.8-10.3-2.4-6.5-3.4-11.4-11.8-12.8-14.4h-0.2c-2.5 0-11-0.6-18.6-8.1-6-6-6.9-14.1-6.9-18.4 0-3.6 0.6-7 1.6-8.7l57.7-100.8 0.6-0.9c-2-0.4-5.7-1.3-9.3-3.4-5-2.9-11-8.8-11-20.5 0-12.7 8.9-23.6 19.5-23.6 3.3 0 6.7 0.5 11.1 1.2 8.7 1.4 21.8 3.3 47.6 3.3s38.9-2.1 47.6-3.3c4.3-0.6 7.8-1.2 11.1-1.2 10.6 0 19.5 10.8 19.5 23.6 0 11.7-6 17.6-11 20.5-3.6 2.2-7.2 3-9.3 3.4l6.6 11.5c7.3 12.9 22 38.7 51.6 90.2 1 1.7 1.6 5.1 1.9 8.7zm-2.3 0.1c0.1-3.7-0.6-6.7-1.4-8l-58.9-103.1q-0.2-0.2 0-0.3c0.1-0.1 0.2-0.3 0.3-0.3 0 0 1.3-0.1 3.3-0.5 1.8-0.5 4.5-1.3 7-2.8 5.2-3 10.3-8.6 10.3-19.3 0-6.1-2-11.7-5.4-15.7-3.4-3.9-7.9-6.5-12.6-6.5-9.6 0-19.8 4.5-58.8 4.5-38.9 0-49.1-4.5-58.7-4.5-4.7 0-9.3 2.4-12.6 6.5-3.4 4-5.5 9.6-5.5 15.7 0 10.7 5.1 16.3 10.3 19.3 5.1 3 10.4 3.3 10.4 3.3 0.1 0 0.2 0.2 0.3 0.3q0.2 0.1 0 0.3l-59 103.1c-0.7 1.4-1.3 4.4-1.3 8 0 5.6 1.5 12.5 6.4 17.4 7.2 7 15.1 7.6 17.6 7.6h0.9c0.1 0 0.2 0.1 0.3 0.3 0 0 1.4 2.6 3.6 5.7 2.3 3.2 5.4 6.8 8.9 8.6 3.1 1.8 6.6 2.2 9.6 2.2 4.8 0 8.4-1.3 8.4-1.3 0.2 0 0.3 0.2 0.4 0.3 0 0 1.2 2.3 3.4 4.8 2.2 2.7 5.3 5.6 9.4 7 2.6 0.8 5.3 1.2 7.9 1.2 5.2 0 9.3-1.3 9.3-1.3 0.2 0 0.3 0 0.4 0.1 0.1 0 7.4 6.5 15.3 7.4 0.7 0.1 1.5 0.1 2.2 0.1 3.3 0 6.5-0.9 8.7-1.7 2.2-0.9 3.6-1.8 3.6-1.8 0.2-0.1 0.3-0.1 0.4 0 0 0 1.4 1 3.6 1.8 2.2 0.9 5.2 1.7 8.7 1.7 0.7 0 1.4 0 2.2-0.1 3.9-0.5 7.8-2.3 10.5-4 2.8-1.8 4.7-3.4 4.7-3.4 0.1-0.1 0.2-0.1 0.3-0.1 0 0 4.2 1.3 9.4 1.3 2.5 0 5.2-0.3 7.9-1.2 4-1.4 7.2-4.3 9.4-7 2.2-2.6 3.3-4.8 3.3-4.8 0.1-0.3 0.3-0.4 0.5-0.3 0 0 0.9 0.3 2.4 0.6s3.6 0.6 5.9 0.6c3 0 6.4-0.5 9.6-2.2 3.6-1.8 6.8-5.4 9-8.6 2.3-3.1 3.5-5.8 3.5-5.8 0-0.1 0.3-0.2 0.4-0.2h0.8c2.6 0 10.5-0.6 17.6-7.6 4.9-4.9 6.5-11.9 5.9-17.3z"/>
     <path id="Layer" class="s6" d="m268.5 366.3c-5.8 0-10.5-2.2-12.5-3.3-2 1.1-6.7 3.3-12.5 3.3-0.8 0-1.6 0-2.4-0.1-7.1-0.8-13.6-5.6-15.7-7.3-1.5 0.3-5 1.1-9.1 1.1-3.2 0-5.9-0.4-8.5-1.3-6.9-2.3-11.3-8.5-13.2-11.5-1.6 0.4-4.4 0.9-7.6 0.9-4 0-7.6-0.8-10.6-2.4-6.4-3.4-11.2-11.5-12.7-14.4-2.7 0-11.3-0.7-18.9-8.2-6.1-6.2-7.1-14.4-7.1-18.8 0-3.7 0.7-7.1 1.8-8.9l57.8-101c-2.1-0.5-5.5-1.3-8.7-3.3-5.2-3-11.4-9-11.3-20.9 0-13.1 9.2-24.2 20.1-24.2 3.3 0 6.8 0.5 11.2 1.1 8.7 1.3 21.8 3.4 47.5 3.4 25.8 0 38.8-2 47.5-3.4 4.4-0.7 7.8-1.1 11.2-1.1 10.9 0 20.1 11.1 20.1 24.2 0 11.9-6.2 17.9-11.3 20.9-3.3 2-6.6 2.8-8.6 3.3l6.1 10.9c7.4 12.8 22.1 38.7 51.5 90.2 1.1 1.9 1.8 5.3 1.8 8.9 0 4.4-0.9 12.6-7.1 18.8-7.5 7.5-16.2 8.2-18.9 8.2-1.8 3.5-6.4 11-12.7 14.4-3.1 1.6-6.6 2.4-10.5 2.4-3.3 0-6.1-0.6-7.7-0.9-1.7 2.9-6.2 9.1-13.1 11.6-2.5 0.8-5.4 1.2-8.4 1.2-4.2 0-7.7-0.8-9.2-1.1-2.1 1.7-8.6 6.5-15.6 7.3-1.1-0.1-1.9 0-2.7 0zm-42.8-8.7 0.2 0.2c1.8 1.5 8.2 6.5 15.3 7.3 0.8 0.1 1.5 0.1 2.3 0.1 5.8 0 10.4-2.3 12.3-3.2l0.2-0.1 0.2 0.1c1.8 0.9 6.5 3.2 12.3 3.2 0.8 0 1.5 0 2.3-0.1 7-0.8 13.5-5.8 15.3-7.3l0.2-0.2 0.3 0.1c1.3 0.4 4.8 1.2 9.1 1.2 3 0 5.7-0.5 8.1-1.3 6.9-2.3 11.3-8.8 12.8-11.5l0.2-0.3 0.5 0.1c1.4 0.3 4.3 1 7.7 1 3.7 0 7.2-0.8 10.1-2.3 6.4-3.3 11.1-11.7 12.5-14.2l0.1-0.4h0.5c2.4 0 10.8-0.6 18.2-8 5.9-5.9 6.7-13.8 6.7-18 0-3.5-0.6-6.8-1.6-8.5-29.5-51.5-44.3-77.3-51.6-90.2l-6.9-12.2c0.6-0.1 1.5-0.2 2.5-0.5 1.1-0.2 2.3-0.6 3.7-1.1 1.2-0.5 2.5-1 3.8-1.8 4.8-2.7 10.7-8.5 10.7-20 0-12.5-8.7-23.1-19-23.2-3.3 0-6.7 0.6-11 1.2-8.7 1.3-21.8 3.4-47.7 3.4-25.8 0-39-2-47.7-3.4-4.3-0.7-7.8-1.2-11-1.2-10.3 0-18.9 10.7-19 23.2 0 11.5 5.8 17.1 10.7 20 3.6 2.1 7.3 2.9 9.2 3.3l0.8 0.1-0.9 1.6-57.7 100.8c-0.9 1.7-1.5 4.9-1.6 8.5 0 4.1 0.9 12.1 6.7 18 7.4 7.4 15.9 7.9 18.2 8h0.4l0.2 0.4c1.3 2.4 6.1 10.9 12.5 14.2 2.9 1.5 6.2 2.3 10 2.3 3.5 0 6.4-0.7 7.8-1l0.5-0.1 0.2 0.3c1.5 2.7 5.9 9.1 12.7 11.5 2.5 0.8 5.3 1.3 8.2 1.3 4.2 0 7.7-0.8 9.1-1.2zm87.4-164.5q-0.3 0.1-0.5 0.1l58.8 102.9c0.8 1.3 1.5 4.4 1.5 8.2 0 3.4-0.7 11.8-6.6 17.7-7.3 7.3-15.6 7.9-17.9 7.9q-0.5 0-0.7 0c-0.3 0.5-1.5 2.9-3.5 5.8-2.1 2.9-5.3 6.8-9 8.8-2.9 1.5-6.3 2.3-10 2.3-2 0-3.9-0.2-6-0.7-0.8-0.2-1.6-0.3-2.3-0.5-0.3 0.5-1.4 2.5-3.4 4.8-2 2.5-5.3 5.7-9.6 7.1-2.4 0.8-5.1 1.1-8 1.1-4.4 0-8.1-0.9-9.5-1.2-0.6 0.6-2.4 1.9-4.6 3.3-2.7 1.7-6.6 3.7-10.8 4.2-0.9-0.1-1.7-0.1-2.4-0.1-2.9 0-5.9-0.6-9-1.8-1-0.3-1.9-0.8-2.7-1.2v0.1l-0.8-0.5c-0.4 0.3-1.7 1-3.6 1.8-3.1 1.1-6.1 1.7-9 1.7-0.8 0-1.6 0-2.3-0.1-6.9-0.8-13.4-5.8-15.4-7.4l-0.1-0.1c-0.6 0.2-4.6 1.2-9.5 1.2-2.9 0-5.7-0.4-8-1.1-4.3-1.5-7.6-4.7-9.6-7.1-1.7-2.1-2.8-3.9-3.2-4.7v-0.2c-0.7 0.3-4.1 1.3-8.4 1.3-3.7 0-7.1-0.8-9.9-2.3-3.9-2-7.1-5.9-9.1-8.8-1.8-2.6-3-4.9-3.5-5.8q-0.1 0-0.7 0c-2.3 0-10.6-0.6-17.9-7.9-6-6-6.6-14.5-6.6-17.7 0-3.8 0.8-6.9 1.5-8.2l58.8-102.9c-1.1-0.1-5.8-0.7-10.3-3.3-6.9-4.1-10.5-10.8-10.5-19.7 0-6.1 2-11.7 5.5-16.1 3.5-4.3 8.3-6.8 13-6.8 3.3 0 6.5 0.5 10.9 1.2 8.7 1.3 21.9 3.4 47.9 3.4 25.9 0 39-2 47.8-3.4 4.4-0.7 7.6-1.2 10.9-1.2 4.7 0 9.5 2.5 13.1 6.8 3.6 4.4 5.5 10 5.5 16.1 0 9-3.6 15.6-10.5 19.7-1.3 0.7-2.5 1.3-3.6 1.7-2.3 0.8-4.2 1.3-5.4 1.5l-0.9 0.1zm-56.6 167.1 0.2 0.2c1.1 0.5 2.2 1.1 3.5 1.6 2.9 1.1 5.8 1.7 8.4 1.7 0.7 0 1.4 0 2.2-0.1 4-0.5 7.9-2.4 10.4-3.9 2.4-1.5 4.1-2.9 4.5-3.3l0.1-0.1c0.2-0.2 0.5-0.2 0.8-0.2h0.1c1.1 0.3 4.8 1.2 9.2 1.2 2.7 0 5.4-0.3 7.6-1.1 4.1-1.4 7.2-4.4 9.2-6.7 2-2.6 3.2-4.8 3.2-4.8 0.2-0.3 0.6-0.6 1-0.4h0.2c0.7 0.2 1.5 0.4 2.3 0.5 2 0.5 3.8 0.6 5.8 0.6 3.4 0 6.7-0.7 9.4-2.2 3.5-1.8 6.7-5.7 8.6-8.4 2-2.8 3.3-5.3 3.5-5.7 0.1-0.4 0.5-0.5 0.8-0.5h0.8c2.4 0 10.2-0.6 17.2-7.5 5.7-5.7 6.4-13.8 6.4-17 0-3.6-0.7-6.5-1.4-7.7l-59-103.1c-0.1-0.2-0.1-0.6 0-0.9 0.1-0.2 0.2-0.4 0.5-0.5h0.3c0.5 0 1.5-0.1 3.1-0.6 1.8-0.4 4.3-1.1 7-2.7 6.6-3.9 10-10.2 10.1-18.8 0-5.7-1.9-11.1-5.4-15.3-3.3-4-7.7-6.4-12.1-6.4-3.3 0-6.4 0.5-10.8 1.2-8.8 1.3-22 3.4-47.9 3.4-26 0-39.2-2-48-3.4-4.4-0.7-7.7-1.2-10.8-1.2-4.4 0-8.9 2.4-12.1 6.4-3.5 4.2-5.4 9.6-5.4 15.3 0 8.6 3.4 14.9 10.1 18.8 5 2.9 10.1 3.2 10.1 3.2 0.3 0 0.6 0.2 0.8 0.5 0.1 0.2 0.1 0.6 0 0.9l-59 103.1c-0.7 1.2-1.4 4-1.4 7.6 0 3.3 0.6 11.4 6.4 17.1 7 6.9 15 7.5 17.2 7.5h0.8c0.3 0 0.7 0.1 0.8 0.3l0.1 0.2c0.3 0.7 1.6 3 3.5 5.6 1.9 2.8 5.1 6.6 8.7 8.5 2.6 1.4 5.9 2.2 9.3 2.2 4.4 0 8-1.2 8.2-1.3 0.3-0.1 0.8 0 1 0.3l0.1 0.2c0.4 0.7 1.5 2.5 3.3 4.7 1.9 2.3 5.1 5.4 9.1 6.8 2.3 0.8 4.9 1.1 7.6 1.1 4.9 0 8.9-1.1 9.3-1.3 0.2-0.1 0.5 0 0.7 0l0.2 0.3c1.8 1.5 8.2 6.5 14.9 7.3 0.7 0.1 1.4 0.1 2.2 0.1 3.4 0 6.6-0.9 8.5-1.8 2-0.8 3.3-1.5 3.5-1.6l0.1-0.1c-0.1 0.1 0.2 0.1 0.4 0.2z"/>
    </g>
   </g>
  </g>
 </g>
</svg>
