<?xml version="1.0" encoding="UTF-8" standalone="no"?>
<!-- Created with Inkscape (http://www.inkscape.org/) -->
<svg
   xmlns:dc="http://purl.org/dc/elements/1.1/"
   xmlns:cc="http://creativecommons.org/ns#"
   xmlns:rdf="http://www.w3.org/1999/02/22-rdf-syntax-ns#"
   xmlns:svg="http://www.w3.org/2000/svg"
   xmlns="http://www.w3.org/2000/svg"
   xmlns:xlink="http://www.w3.org/1999/xlink"
   xmlns:sodipodi="http://sodipodi.sourceforge.net/DTD/sodipodi-0.dtd"
   xmlns:inkscape="http://www.inkscape.org/namespaces/inkscape"
   width="300.00003"
   height="378.69507"
   id="svg4140"
   sodipodi:version="0.32"
   inkscape:version="0.46"
   version="1.0"
   sodipodi:docname="Coat of arms of Morelos.svg"
   inkscape:output_extension="org.inkscape.output.svg.inkscape">
  <defs
     id="defs4142">
    <linearGradient
       id="SVGID_13_"
       gradientUnits="userSpaceOnUse"
       x1="679.97852"
       y1="455.69339"
       x2="943.51947"
       y2="455.69339"
       gradientTransform="translate(-512.7744,-40)">
	<stop
   offset="0.0057"
   style="stop-color:#BEBFC0"
   id="stop188" />

	<stop
   offset="0.548"
   style="stop-color:#FFFFFF"
   id="stop190" />

	<stop
   offset="1"
   style="stop-color:#BEBFC0"
   id="stop192" />

</linearGradient>
    <linearGradient
       inkscape:collect="always"
       xlink:href="#SVGID_13_"
       id="linearGradient3996"
       gradientUnits="userSpaceOnUse"
       gradientTransform="translate(-512.7744,-40)"
       x1="679.97852"
       y1="455.69339"
       x2="943.51947"
       y2="455.69339" />
    <linearGradient
       gradientTransform="translate(-515.2471,-39.3564)"
       y2="400.65869"
       x2="823.37799"
       y1="400.65869"
       x1="796.49707"
       gradientUnits="userSpaceOnUse"
       id="SVGID_5_">
		<stop
   id="stop52"
   style="stop-color:#FCE900"
   offset="0.0226" />

		<stop
   id="stop54"
   style="stop-color:#FFED00"
   offset="0.2542" />

		<stop
   id="stop56"
   style="stop-color:#FDC800"
   offset="0.5311" />

		<stop
   id="stop58"
   style="stop-color:#FFED00"
   offset="0.7119" />

		<stop
   id="stop60"
   style="stop-color:#FCE900"
   offset="0.9605" />

	</linearGradient>
    <linearGradient
       inkscape:collect="always"
       xlink:href="#SVGID_5_"
       id="linearGradient4005"
       gradientUnits="userSpaceOnUse"
       gradientTransform="translate(-515.2471,-39.3564)"
       x1="796.49707"
       y1="400.65869"
       x2="823.37799"
       y2="400.65869" />
    <inkscape:perspective
       sodipodi:type="inkscape:persp3d"
       inkscape:vp_x="0 : 526.18109 : 1"
       inkscape:vp_y="0 : 1000 : 0"
       inkscape:vp_z="744.09448 : 526.18109 : 1"
       inkscape:persp3d-origin="372.04724 : 350.78739 : 1"
       id="perspective4148" />
  </defs>
  <sodipodi:namedview
     id="base"
     pagecolor="#ffffff"
     bordercolor="#666666"
     borderopacity="1.0"
     inkscape:pageopacity="0.0"
     inkscape:pageshadow="2"
     inkscape:zoom="1.1031948"
     inkscape:cx="193.5255"
     inkscape:cy="244.2905"
     inkscape:document-units="px"
     inkscape:current-layer="layer1"
     showgrid="false"
     inkscape:window-width="1280"
     inkscape:window-height="744"
     inkscape:window-x="-4"
     inkscape:window-y="-4" />
  <metadata
     id="metadata4145">
    <rdf:RDF>
      <cc:Work
         rdf:about="">
        <dc:format>image/svg+xml</dc:format>
        <dc:type
           rdf:resource="http://purl.org/dc/dcmitype/StillImage" />
      </cc:Work>
    </rdf:RDF>
  </metadata>
  <g
     inkscape:label="Capa 1"
     inkscape:groupmode="layer"
     id="layer1"
     transform="translate(-148.97451,-228.50998)">
    <g
       transform="matrix(0.7750917,0,0,0.7750917,67.241867,93.979639)"
       id="g4017">
      <path
         style="fill:#e6e6e6"
         id="path10"
         d="M 299.419,174.567 L 298.53,174.567 L 106.449,174.567 L 106.449,607.67 L 106.475,607.67 C 107.032,630.014 124.877,648.013 147.032,648.579 L 147.032,648.606 L 287.397,648.606 L 298.97,660.709 L 310.763,648.606 L 450.916,648.606 L 450.916,648.579 C 473.07,648.013 490.916,630.014 491.473,607.67 L 491.499,607.67 L 491.499,174.567 L 299.419,174.567 z" />
      <path
         id="path12"
         d="M 491.5,173.567 L 105.449,173.567 L 105.449,607.67 C 106.046,630.601 124.289,648.998 147.007,649.579 C 147.007,649.579 286.12,649.606 286.97,649.606 C 287.531,650.192 298.964,662.148 298.964,662.148 C 298.964,662.148 310.626,650.18 311.186,649.606 C 312.025,649.606 450.917,649.606 450.917,649.606 C 473.66,648.998 491.902,630.6 492.474,607.695 L 492.5,173.567 L 491.5,173.567 L 491.5,173.567 z M 298.53,175.567 C 298.53,175.567 488.52,175.567 490.5,175.567 C 490.5,177.558 490.5,607.67 490.5,607.67 C 489.93,629.484 472.543,647.025 450.892,647.579 L 310.342,647.606 C 310.342,647.606 300.252,657.961 298.978,659.269 C 297.718,657.951 287.825,647.606 287.825,647.606 L 147.032,647.606 C 125.406,647.025 108.019,629.484 107.475,607.644 C 107.475,607.644 107.449,177.557 107.449,175.566 C 109.429,175.567 298.53,175.567 298.53,175.567 z" />
      <path
         style="fill:#f2f2f2"
         id="path21"
         d="M 299.397,186.61 L 298.552,186.61 L 115.988,186.61 L 115.988,598.255 L 116.014,598.255 C 116.542,619.492 133.503,636.599 154.56,637.138 L 154.56,637.163 L 287.972,637.163 L 298.971,648.665 L 310.179,637.163 L 443.389,637.163 L 443.389,637.138 C 464.446,636.599 481.407,619.492 481.936,598.255 L 481.961,598.255 L 481.961,186.61 L 299.397,186.61 z" />
      <path
         id="path23"
         d="M 481.962,185.61 L 114.988,185.61 L 114.988,598.255 C 115.557,620.076 132.916,637.584 154.535,638.138 C 154.535,638.138 286.696,638.163 287.545,638.163 C 288.104,638.748 298.964,650.104 298.964,650.104 C 298.964,650.104 310.042,638.736 310.601,638.163 C 311.439,638.163 443.389,638.163 443.389,638.163 C 465.033,637.584 482.392,620.076 482.936,598.28 L 482.961,185.61 L 481.962,185.61 L 481.962,185.61 z M 298.553,187.61 C 298.553,187.61 478.984,187.61 480.962,187.61 C 480.962,189.6 480.962,598.255 480.962,598.255 C 480.42,618.961 463.916,635.612 443.364,636.138 L 309.758,636.163 C 309.758,636.163 300.244,645.927 298.979,647.226 C 297.728,645.916 288.4,636.163 288.4,636.163 L 154.561,636.163 C 134.034,635.612 117.531,618.961 117.015,598.23 C 117.015,598.23 116.989,189.6 116.989,187.61 C 118.967,187.61 298.553,187.61 298.553,187.61 z" />
      <path
         style="fill:#b8cbda;fill-opacity:1"
         id="path30"
         d="M 174.123,249.778 L 174.123,406.613 L 174.123,538.625 L 174.123,570.057 C 174.123,576.436 179.233,581.608 185.537,581.608 L 412.414,581.608 C 418.717,581.608 423.827,576.436 423.827,570.057 L 423.827,538.625 L 423.827,406.613 L 423.827,249.778 L 174.123,249.778 z" />
      <path
         d="M 316.88653,447.27 C 317.02753,443.907 313.80253,435.076 314.69853,429.752 C 315.59753,424.406 311.15953,422.377 309.23953,421.965 C 307.72653,421.64 301.82953,427.225 299.39453,429.609 L 298.66153,413.798 C 301.22653,408.375 308.63653,395.76 311.88453,422.71 C 313.53653,422.196 313.36153,410.572 312.18553,405.299 C 311.94553,404.219 311.66253,403.279 311.35353,402.452 C 312.26753,398.972 311.98653,388.77 310.99853,383.698 C 309.82253,377.661 307.68753,375.254 305.89153,374.782 C 304.58053,374.438 299.74553,379.902 297.22753,382.881 L 296.43553,365.818 L 294.86253,366.342 L 294.79053,383.561 C 293.51353,380.996 289.66553,376.599 278.60253,378.93 C 272.90553,381.895 273.61753,402.08 275.45653,402.007 C 277.29553,401.935 278.93853,384.668 284.77553,385.698 C 291.76453,386.931 294.20853,393.526 294.73953,395.278 L 294.70053,404.616 C 292.97553,401.993 289.55753,398.132 285.42153,400.434 C 279.42053,403.774 267.20753,421.785 268.63853,422.987 C 282.83953,405.591 291.58053,411.359 294.65853,414.6 L 294.60453,427.445 C 290.23453,421.188 278.90653,408.712 270.21153,431.903 C 269.34453,440.302 267.15853,446.824 267.06453,449.736 C 266.97253,452.597 278.66253,408.411 294.54253,442.112 L 294.50453,451.184 C 290.18453,448.247 281.46153,442.567 279.12953,442.917 C 275.99253,443.389 272.26653,445.796 270.21253,451.833 C 268.15853,457.87 267.85553,471.177 270.73653,471.765 C 276.70353,439.301 290.71653,456.988 294.45653,462.461 L 294.33953,490.122 L 302.20653,490.122 L 300.80353,459.872 C 304.30153,454.428 310.29753,449.36 313.19253,471.852 C 314.96053,471.338 314.77053,459.713 313.51453,454.44 C 312.25853,449.167 309.97553,447.065 308.05653,446.653 C 306.90653,446.406 303.21953,449.579 300.44553,452.164 L 299.83953,439.084 C 302.08653,434.363 309.03653,419.376 316.88653,447.27 z M 297.68953,392.908 C 300.32653,386.729 306.97653,374.628 310.29853,400.245 C 309.28053,398.568 308.12153,397.75 307.07553,397.511 C 305.73453,397.203 300.70353,402.207 298.23953,404.762 L 297.68953,392.908 z"
         id="path45"
         style="fill:#008000;stroke:#000000;stroke-width:0.5;stroke-miterlimit:4;stroke-dasharray:none;stroke-opacity:1" />
      <path
         d="M 295.725,364.919 C 297.795,364.264 299.206,361.353 301.025,360.062 C 303.787,358.101 305.323,359.704 308,360.641 C 303.531,360.576 299.168,360.834 296.681,365.219 C 298.014,363.816 301.453,364.305 303.131,364.751 C 305.235,365.309 306.527,366.5 307.347,368.607 C 306.221,365.447 299.553,364.977 296.682,364.912 C 299.849,366.591 300.032,370.933 300.909,373.943 C 301.022,371.759 299.036,370.054 298.182,368.205 C 297.787,367.351 297.555,366.253 296.797,365.614 C 294.576,368.146 295.277,373.301 294.297,376.032 C 294.475,374.174 293.264,372.127 293.797,370.092 C 294.137,368.79 295.432,367.877 295.514,366.55 C 291.979,367.953 291.343,371.294 289.332,374.332 C 289.35,372.559 288.9,371.165 289.992,369.569 C 291.072,367.99 292.969,367.467 294.611,366.845 C 289.591,364.419 286.759,367.185 284.639,371.492 C 284.955,368.389 285.372,364.992 289.148,364.921 C 291.31,364.88 293.97,365.886 295.607,366.858 C 293.455,364.739 291.07,363.958 288.223,363.175 C 285.087,362.313 283.48,362.929 281.599,365.398 C 283.767,358.376 291.701,362.08 294.978,365.626 C 294.993,363.865 291.982,357.713 289.701,358.162 C 287.138,358.666 286.082,363.061 285.541,365.055 C 285.701,363.192 285.096,362.095 286.305,360.457 C 287.27,359.149 288.469,358.664 290.014,358.502 C 293.96,358.088 292.522,361.493 294.127,363.608 C 294.04,357.876 293.019,352.329 293.76,346.577 C 293.764,349.878 293.724,353.181 293.761,356.483 C 293.783,358.445 293.721,361.504 294.601,363.135 C 295.969,360.001 297.278,355.086 301.606,357.465 C 299.95,358.032 299.064,357.38 297.866,359.341 C 297.071,360.641 297.038,362.261 296.298,363.617 C 296.547,362.154 297.907,360.24 299.681,361.172 C 298.382,362.217 295.718,362.712 296.263,365.101"
         id="path62"
         style="fill:url(#linearGradient4005)" />
      <path
         d="M 293.634,346.574 L 293.634,346.575 C 293.441,348.082 293.367,349.587 293.367,351.081 C 293.367,352.971 293.505,354.831 293.636,356.676 C 293.637,356.837 293.639,357.027 293.639,357.027 C 293.647,358.185 293.679,359.575 293.853,360.848 C 293.886,361.471 293.895,361.625 293.919,362.1 C 293.726,361.72 293.512,361.346 293.288,360.979 C 293.019,359.721 292.654,358.599 291.031,358.414 C 290.551,358.108 290.092,357.954 289.676,358.036 C 289.146,358.14 288.693,358.426 288.282,358.792 C 287.442,359.12 286.765,359.617 286.203,360.379 C 285.938,360.737 285.812,361.059 285.691,361.381 C 285.546,361.401 285.393,361.396 285.253,361.427 C 283.425,361.842 282.155,363.165 281.478,365.357 L 281.697,365.47 C 282.902,363.889 283.998,363.137 285.404,362.989 C 285.407,363.169 285.412,363.35 285.42,363.537 L 285.414,365.04 L 285.659,365.083 L 285.741,364.78 C 285.88,364.264 286.048,363.639 286.257,362.984 C 286.845,363.018 287.456,363.091 288.189,363.293 C 290.644,363.968 292.715,364.685 294.612,366.203 C 292.981,365.418 290.907,364.761 289.144,364.794 C 285.187,364.868 284.813,368.533 284.513,371.478 L 284.75,371.546 C 287.251,366.463 290.199,365.023 294.253,366.841 C 294.099,366.898 293.945,366.955 293.945,366.955 C 292.426,367.508 290.856,368.08 289.887,369.496 C 289.262,370.41 289.129,371.272 289.129,372.147 C 289.129,372.469 289.147,372.793 289.165,373.122 L 289.22,374.773 L 289.434,374.399 L 290.909,371.798 C 291.968,369.761 293.006,367.857 295.274,366.825 C 295.282,366.83 295.292,366.834 295.299,366.838 C 295.178,367.401 294.885,367.908 294.531,368.427 C 294.187,368.931 293.831,369.452 293.673,370.058 C 293.572,370.442 293.532,370.825 293.532,371.206 C 293.532,371.993 293.704,372.772 293.872,373.534 C 294.033,374.266 294.187,374.964 294.187,375.637 C 294.187,375.765 294.182,375.892 294.169,376.018 L 294.411,376.072 C 294.785,375.03 294.916,373.655 295.056,372.199 C 295.272,369.934 295.534,367.39 296.806,365.828 C 297.263,366.276 297.53,366.901 297.768,367.525 L 298.066,368.255 L 299.2,370.114 C 299.583,370.673 299.97,371.241 300.266,371.832 C 300.269,371.843 300.786,373.976 300.786,373.976 L 301.031,373.947 C 301.034,373.884 301.036,373.822 301.036,373.761 C 301.036,373.043 300.819,372.378 300.503,371.743 C 299.952,369.244 299.269,366.496 297.076,365.075 C 297.087,365.068 297.097,365.059 297.107,365.052 C 300.097,365.152 306.176,365.715 307.225,368.644 C 307.226,368.646 307.228,368.648 307.229,368.651 L 307.463,368.564 C 307.462,368.563 307.461,368.561 307.461,368.561 C 306.624,366.409 305.298,365.196 303.161,364.63 C 301.586,364.212 298.788,363.829 297.203,364.674 C 299.684,361.003 303.714,360.703 307.995,360.766 L 308.038,360.523 L 306.404,359.85 C 304.589,359.037 303.155,358.395 300.95,359.961 C 300.532,360.258 300.135,360.647 299.748,361.065 C 299.746,361.065 299.735,361.059 299.735,361.059 C 299.117,360.735 298.484,360.715 297.904,361.001 C 297.614,361.145 297.368,361.363 297.145,361.609 C 297.147,361.601 297.15,361.592 297.152,361.584 C 297.363,360.804 297.563,360.067 297.968,359.405 C 298.774,358.086 299.413,357.997 300.299,357.873 L 301.969,357.511 L 301.662,357.354 C 300.48,356.705 299.461,356.546 298.546,356.871 C 296.767,357.501 295.806,359.859 294.959,361.939 C 294.959,361.939 294.741,362.464 294.605,362.789 C 294.36,362.237 294.202,361.566 294.1,360.831 C 294.016,359.256 293.931,357.668 293.931,357.668 C 293.908,357.342 293.907,357.002 293.883,356.674 C 293.883,356.586 293.873,350.172 293.873,350.172 L 293.88,346.577 L 293.631,346.561 C 293.634,346.563 293.635,346.569 293.634,346.574 z M 293.617,351.082 C 293.617,351.024 293.627,350.966 293.627,350.909 C 293.627,350.991 293.627,351.188 293.627,351.305 C 293.627,351.229 293.617,351.157 293.617,351.082 z M 289.724,358.281 C 289.916,358.243 290.128,358.291 290.343,358.355 C 290.23,358.361 290.123,358.361 290,358.374 C 289.655,358.411 289.353,358.477 289.053,358.546 C 289.266,358.434 289.484,358.329 289.724,358.281 z M 286.404,360.528 C 286.81,359.977 287.275,359.568 287.824,359.262 C 287.341,359.841 286.944,360.553 286.617,361.315 C 286.399,361.311 286.192,361.332 285.981,361.35 C 286.094,361.084 286.186,360.824 286.404,360.528 z M 285.31,361.672 C 285.389,361.654 285.477,361.66 285.557,361.646 C 285.448,362.019 285.421,362.379 285.415,362.744 C 284.127,362.872 283.072,363.51 282.009,364.735 C 282.698,363.073 283.788,362.018 285.31,361.672 z M 286.517,361.547 C 286.359,361.935 286.214,362.324 286.087,362.71 C 285.946,362.706 285.803,362.706 285.668,362.712 C 285.675,362.345 285.726,361.983 285.846,361.615 C 286.068,361.589 286.285,361.546 286.517,361.547 z M 286.009,362.945 C 285.88,363.354 285.769,363.738 285.669,364.102 C 285.67,363.832 285.671,363.526 285.671,363.526 C 285.662,363.329 285.656,363.143 285.654,362.958 C 285.771,362.953 285.889,362.943 286.009,362.945 z M 289.15,365.044 C 291.064,365.008 293.358,365.808 295.011,366.689 C 294.94,366.723 294.88,366.765 294.812,366.801 C 294.739,366.766 294.664,366.73 294.664,366.73 C 289.37,364.171 286.622,367.427 284.834,370.842 C 285.14,368.031 285.686,365.109 289.15,365.044 z M 294.714,363.182 L 295.193,362.032 C 296.021,360 296.959,357.698 298.632,357.105 C 299.385,356.838 300.235,356.965 301.198,357.423 C 300.822,357.505 300.266,357.625 300.266,357.625 C 299.348,357.753 298.623,357.854 297.756,359.274 C 297.332,359.967 297.118,360.755 296.911,361.518 C 296.855,361.725 296.79,361.933 296.729,362.141 C 296.438,362.614 296.248,363.14 296.17,363.594 C 296.17,363.594 296.216,363.61 296.256,363.624 C 296.139,363.881 296.06,364.162 296.06,364.491 C 296.06,364.528 296.073,364.573 296.074,364.611 C 295.944,364.673 295.819,364.758 295.684,364.801 L 295.759,365.039 C 295.88,365.001 295.989,364.924 296.105,364.872 C 296.117,364.958 296.115,365.035 296.135,365.126 L 296.379,365.07 C 296.353,364.958 296.353,364.861 296.341,364.757 C 296.671,364.58 296.988,364.365 297.29,364.103 C 297.126,364.319 296.969,364.55 296.817,364.792 C 296.774,364.791 296.721,364.787 296.679,364.786 L 296.617,365.021 C 296.628,365.027 296.633,365.037 296.644,365.043 C 296.62,365.085 296.59,365.114 296.566,365.157 L 296.766,365.304 C 296.795,365.274 296.838,365.256 296.869,365.227 C 298.803,366.431 299.542,368.724 300.06,370.973 C 299.849,370.635 299.627,370.302 299.403,369.974 L 298.29,368.151 L 297.999,367.436 C 297.73,366.733 297.453,366.006 296.873,365.516 L 296.779,365.437 L 296.698,365.529 C 295.286,367.139 295.031,369.815 294.805,372.175 C 294.7,373.273 294.567,374.272 294.364,375.159 C 294.316,374.61 294.242,374.061 294.114,373.48 C 293.949,372.732 293.781,371.968 293.781,371.205 C 293.781,370.843 293.819,370.481 293.913,370.121 C 294.06,369.557 294.403,369.054 294.735,368.567 C 295.075,368.068 295.373,367.537 295.518,366.951 C 295.524,366.955 295.533,366.958 295.539,366.962 L 295.691,366.766 C 295.66,366.735 295.627,366.718 295.595,366.687 C 295.601,366.641 295.631,366.603 295.634,366.555 L 295.646,366.358 L 295.463,366.431 C 295.421,366.448 295.396,366.474 295.356,366.492 C 293.267,364.581 290.99,363.805 288.252,363.052 C 287.53,362.854 286.925,362.787 286.334,362.749 C 286.462,362.361 286.608,361.973 286.768,361.585 C 289.58,361.698 292.905,363.568 294.882,365.708 L 295.096,365.939 C 295.096,365.939 295.098,365.614 295.098,365.61 C 295.098,364.983 294.742,363.872 294.198,362.695 C 294.193,362.602 294.185,362.457 294.179,362.337 C 294.272,362.633 294.353,362.947 294.485,363.191 L 294.61,363.421 L 294.714,363.182 z M 298.017,361.225 C 298.451,361.01 298.907,361.038 299.371,361.213 C 299.07,361.398 298.399,361.812 298.399,361.812 C 297.779,362.149 297.142,362.525 296.682,363.025 C 296.784,362.767 296.882,362.511 296.96,362.248 C 297.228,361.819 297.582,361.44 298.017,361.225 z M 289.416,373.108 C 289.397,372.773 289.379,372.45 289.379,372.134 C 289.379,371.291 289.508,370.495 290.094,369.637 C 291.017,368.287 292.55,367.729 294.031,367.19 C 294.031,367.19 294.168,367.139 294.299,367.091 C 292.562,368.21 291.62,369.887 290.688,371.682 C 290.688,371.682 289.753,373.331 289.441,373.882 C 289.43,373.523 289.416,373.108 289.416,373.108 z M 303.098,364.871 C 304.642,365.281 305.744,366.043 306.539,367.277 C 304.602,365.474 300.482,364.946 297.502,364.819 C 299.033,364.119 301.614,364.477 303.098,364.871 z M 298.518,362.031 C 298.518,362.031 298.987,361.741 299.354,361.515 C 299.179,361.717 299,361.911 298.828,362.114 C 298.044,363.042 297.231,363.97 296.315,364.493 C 296.319,363.228 297.434,362.621 298.518,362.031 z M 299.02,362.275 C 299.682,361.492 300.367,360.683 301.097,360.164 C 303.186,358.681 304.562,359.297 306.305,360.077 C 306.305,360.077 306.869,360.309 307.356,360.511 C 304.128,360.494 301.075,360.761 298.738,362.603 C 298.831,362.493 298.927,362.385 299.02,362.275 z M 290.026,358.624 C 290.391,358.585 290.654,358.618 290.93,358.642 C 291.041,358.715 291.148,358.763 291.264,358.859 C 291.889,359.377 292.51,360.196 293.06,361.093 C 293.065,361.118 293.072,361.139 293.077,361.164 C 293.251,361.987 293.45,362.921 294.026,363.681 L 294.272,364.005 C 294.272,364.005 294.24,363.414 294.24,363.401 C 294.553,364.155 294.751,364.821 294.813,365.31 C 292.8,363.253 289.629,361.504 286.871,361.354 C 287.271,360.433 287.773,359.593 288.409,359.012 C 288.885,358.829 289.404,358.688 290.026,358.624 z M 291.502,358.743 C 292.307,358.989 292.668,359.573 292.879,360.345 C 292.444,359.713 291.977,359.155 291.502,358.743 z M 293.518,361.895 C 293.676,362.188 293.821,362.477 293.956,362.768 C 293.959,362.831 293.967,362.979 293.97,363.025 C 293.78,362.661 293.62,362.289 293.518,361.895 z"
         id="path64" />
      <path
         d="M 297.35484,487.86749 C 293.89284,487.86549 290.53384,487.59149 288.12584,490.27349 C 285.20884,493.52049 286.26484,494.77849 281.45984,495.04549 C 277.52284,495.26449 273.68084,494.92049 269.90484,496.19249 C 266.33484,497.39549 263.98084,500.05149 261.12284,502.21349 C 257.75784,504.75849 254.00784,506.89649 250.77784,509.68949 C 248.19684,511.92149 247.03684,514.79649 244.58784,517.30649 C 241.51384,520.45349 237.56684,525.23949 233.83684,527.33549 C 229.69484,529.66349 222.86284,531.03949 218.08984,532.37849 C 214.52684,533.37749 210.62984,532.42349 207.52684,534.60549 C 204.38884,536.81049 201.79484,540.41849 199.05484,543.12049 C 193.02984,549.06349 184.81484,556.37249 176.18284,557.54749 C 175.21884,559.29949 174.03684,560.80849 173.50284,562.86749 C 172.87584,565.29449 173.02384,564.73749 173.64484,567.10549 C 174.55184,570.54949 170.21684,581.76249 174.29684,581.54049 C 180.86884,581.18249 415.61984,581.89449 424.37784,581.48649 C 425.45184,578.38649 424.22484,574.78749 424.06684,571.56149 C 423.79884,566.09549 423.53484,565.80449 419.39084,562.42949 C 417.26784,560.69949 415.54784,557.90849 413.67684,555.89949 C 410.92784,552.94649 408.23384,550.51249 405.90684,547.27649 C 398.97984,537.63149 387.64884,535.44749 376.73984,530.65749 C 370.17684,527.77549 364.00384,524.76149 358.34384,520.60649 C 354.40584,517.71249 351.27284,513.73149 347.31984,510.90749 C 343.48484,508.16849 338.63084,507.36749 334.59184,505.10349 C 329.89184,502.46749 325.59784,499.10749 320.80684,496.56149 C 317.24684,494.66849 313.47184,492.97449 309.67784,491.36549 C 306.36184,489.95949 300.63984,485.90249 297.35484,487.86749"
         id="path75"
         style="fill:#814115;fill-opacity:1;stroke:#000000;stroke-width:0.5;stroke-miterlimit:4;stroke-dasharray:none;stroke-opacity:1" />
      <path
         d="M 175.372,573.709 C 175.827,577.475 179.432,579.789 183.26,579.772 C 189.277,579.746 190.213,575.723 192.701,571.556 C 194.289,568.891 196.87,565.264 199.798,564.004 C 203.129,562.569 207.781,563.18 207.765,558.083 C 209.592,559.173 211.188,560.397 213.755,560.832 C 215.407,557.081 210.628,552.315 215.348,550.262 C 218.017,549.1 221.156,551.661 223.817,550.92 C 225.101,550.562 225.367,549.282 226.471,548.828 C 228.939,547.812 232.643,548.792 235.086,547.639 C 236.611,546.921 238.133,545.363 239.242,544.067 C 240.41,542.705 241.473,539.561 242.908,538.766 C 245.607,537.273 255.898,542.384 256.163,538.854 C 253.053,538.663 246.664,532.822 252.204,531.617 C 252.026,527.564 260.808,528.362 264.008,527.7 C 264.638,525.508 263.768,520.55 263.063,518.574 C 264.535,518.474 267.077,519.011 268.453,518.499 C 270.028,517.914 269.695,516.774 271.034,515.998 C 274.777,513.826 275.885,514.94 275.982,509.596 C 276.04,506.395 276.383,502.089 279.12,499.881 C 282.104,497.472 286.208,498.009 287.13,501.573 C 289.903,512.302 280.321,517.123 275.342,524.27 C 273.667,526.674 274.071,527.458 271.221,528.829 C 269.276,529.762 266.919,529.826 265.045,530.879 C 263.267,531.877 259.115,534.537 258.116,536.034 C 256.532,538.408 257.819,541.351 256.937,544.144 C 255.993,547.127 253.642,548.642 250.848,549.924 C 246.897,551.738 240.925,553.359 237.519,555.998 C 235.061,557.902 232.964,560.657 230.276,562.648 C 227.077,565.02 221.52,566.838 218.922,569.508 C 218.187,570.264 217.71,572.326 216.894,573.352 C 215.878,574.627 214.436,575.027 213.901,576.638 C 212.476,580.94 216.093,579.915 219.193,579.764 C 222.655,579.595 225.935,580.008 229.272,580.476 C 235.734,581.382 244.019,581.662 250.461,581.552 C 253.073,581.508 257.09,580.356 256.938,577.193 C 256.707,572.418 251.233,574.543 248.351,574.011 C 247.962,570.21 252.887,568.523 255.942,568.365 C 257.708,568.273 260.017,568.348 261.62,569.148 C 263.313,569.994 264.068,572.035 265.852,572.254 C 267.393,567.72 264.357,565.039 267.091,560.971 C 270.611,555.736 276.689,552.889 279.199,547.633 C 281.853,542.074 284.634,538.544 289.931,535.317 C 290.836,534.765 293.94,533.174 293.254,531.659 C 292.703,530.446 288.466,530.808 287.175,529.835 C 286.932,526.468 293.575,526.752 294.674,523.136 C 295.686,519.806 294.324,515.317 297.99,512.871 C 300.036,511.506 306.233,512.54 303.298,509.168 C 300.684,506.166 295.864,508.84 295.744,503.181 C 295.642,498.406 298.279,498.038 302.131,497.482 C 305.378,497.012 310.506,495.722 307.671,492.141 C 305.011,488.779 295.306,487.144 291.396,488.925 C 288.781,490.114 288.015,493.067 285.772,494.365 C 282.889,496.035 279.176,494.894 275.973,495.338 C 269.839,496.185 266.17,500.61 261.442,504.162 C 259.304,505.765 256.58,506.286 254.422,507.802 C 251.707,509.71 249.445,512.717 246.966,514.866 C 244.079,517.368 242.906,519.558 240.788,522.692 C 238.71,525.767 235.926,526.695 232.441,527.759 C 226.058,529.709 218.871,530.405 212.74,532.676 C 206.649,534.931 200.28,540.911 196.104,545.837 C 191.37,551.424 185.077,552.787 179.668,557.687 C 177.292,559.839 175.853,561.912 175.365,564.777 C 174.922,567.372 173.839,574.563 175.73,576.202"
         id="path84"
         style="fill:#552200" />
      <path
         d="M 309.406,521.604 C 316.95,518.974 319.484,528.868 325.02,531.233 C 328.169,532.579 329.742,531.248 331.762,533.806 C 333.243,535.683 333.36,538.409 333.943,540.627 C 334.608,543.157 335.094,551.356 339.349,551.059 C 345.555,550.626 339.725,542.483 337.845,540.625 C 340.735,538.144 343.809,541.488 344.826,543.917 C 346.587,548.116 345.996,548.237 350.649,549.95 C 352.553,550.65 354.811,550.679 354.794,553.465 C 354.773,556.338 351.672,555.597 348.88,555.698 C 345.224,555.83 340.37,556.959 336.791,555.995 C 332.167,554.751 329.177,549.887 328.292,545.658 C 327.337,541.082 326.313,537.405 322.915,533.807 C 319.505,530.197 315.322,529.106 310.94,527.257 C 308.473,526.216 306.457,524.355 308.674,521.603"
         id="path103"
         style="fill:#552200;fill-opacity:1" />
      <path
         d="M 266.654,577.234 C 269.304,568.067 281.987,575.646 288.226,572.953 C 289.685,572.324 293.333,568.42 294.414,567.194 C 295.969,565.431 296.527,561.907 299.072,561.095 C 301.754,565.58 299.177,570.008 295.867,572.989 C 291.81,576.64 289.56,575.268 284.904,576.849 C 283.882,577.196 283.508,578.285 282.463,578.749 C 280.988,579.405 278.819,579.896 277.191,580.112 C 273.198,580.643 270.212,579.225 266.718,578.248 C 266.629,577.797 266.633,577.345 266.655,576.875"
         id="path143"
         style="fill:#552200;fill-opacity:1" />
      <path
         d="M 305.389,577.594 C 305.338,573.776 308.336,571.823 309.041,568.47 C 309.71,565.294 308.105,561.624 310.556,558.968 C 319.292,561.544 307.251,570.513 312.605,573.645 C 315.958,575.607 322.604,574.364 326.312,574.364 C 330.474,574.364 334.49,572.903 338.297,572.966 C 339.052,575.649 335.14,576.747 333.399,577.866 C 332.197,578.639 332.906,579.026 330.951,579.747 C 329.498,580.282 327.045,580.019 325.474,580.106 C 318.934,580.468 311.973,580.395 305.436,580.052 C 305.381,579.439 305.238,578.565 305.389,577.952"
         id="path164"
         style="fill:#552200;fill-opacity:1" />
      <path
         id="path194"
         d="M 167.704,243.024 L 167.704,406.244 L 167.704,543.63 L 167.704,576.34 C 167.704,582.98 173.076,588.362 179.704,588.362 L 418.245,588.362 C 424.872,588.362 430.245,582.979 430.245,576.34 L 430.245,543.63 L 430.245,406.244 L 430.245,243.024 L 167.704,243.024 L 167.704,243.024 z M 423.826,406.613 L 423.826,538.625 L 423.826,570.056 C 423.826,576.436 418.716,581.608 412.413,581.608 L 185.536,581.608 C 179.232,581.608 174.122,576.436 174.122,570.056 L 174.122,538.625 L 174.122,406.613 L 174.122,249.779 L 423.826,249.779 L 423.826,406.613 z"
         style="fill:url(#linearGradient3996)" />
      <path
         id="path196"
         d="M 430.245,242.024 L 166.704,242.024 L 166.704,576.34 C 166.704,583.521 172.536,589.362 179.704,589.362 L 418.245,589.362 C 425.413,589.362 431.245,583.52 431.245,576.34 L 431.245,242.024 L 430.245,242.024 z M 429.245,244.024 C 429.245,246 429.245,576.34 429.245,576.34 C 429.245,582.418 424.31,587.362 418.245,587.362 L 179.704,587.362 C 173.639,587.362 168.704,582.418 168.704,576.34 C 168.704,576.34 168.704,246 168.704,244.024 C 170.681,244.024 427.268,244.024 429.245,244.024 z" />
      <path
         id="path198"
         d="M 423.826,248.779 L 173.122,248.779 L 173.122,570.056 C 173.122,576.977 178.691,582.608 185.536,582.608 L 412.413,582.608 C 419.258,582.608 424.826,576.977 424.826,570.056 L 424.826,248.779 L 423.826,248.779 z M 422.826,250.779 C 422.826,252.754 422.826,570.056 422.826,570.056 C 422.826,575.874 418.155,580.608 412.413,580.608 L 185.536,580.608 C 179.794,580.608 175.122,575.875 175.122,570.056 C 175.122,570.056 175.122,252.754 175.122,250.779 C 177.098,250.779 420.851,250.779 422.826,250.779 z" />
      <polygon
         style="fill:#ffdb00;fill-opacity:1;stroke:#000000;stroke-opacity:1"
         id="polygon200"
         points="298.975,269.912 303.579,279.428 314.053,280.866 306.424,288.186 308.293,298.591 298.975,293.598 289.656,298.591 291.525,288.186 283.896,280.866 294.37,279.428 298.975,269.912 " />
      <path
         sodipodi:nodetypes="ccccccc"
         style="fill:#f2f2f2;fill-opacity:1;stroke:#000000;stroke-width:1;stroke-miterlimit:4;stroke-dasharray:none;stroke-opacity:1"
         id="path202"
         d="M 395.887,297.413 C 380.356,307.371 344.84,317.108 298.975,317.135 C 253.108,317.108 217.593,307.372 202.063,297.413 L 184.611,320.392 C 200.319,332.086 236.208,343.78 298.975,343.208 C 361.743,343.78 397.631,332.086 413.338,320.392 L 395.887,297.413 z" />
      <g
         transform="matrix(0.9998391,-1.7938292e-2,1.7938292e-2,0.9998391,-2.425465,10.831385)"
         id="g210">
	
		<text
   style="font-size:20.0007px;fill:#1a171b;font-family:ArialMT"
   id="text212"
   font-size="20.0007"
   transform="matrix(0.8652,0.5015,-0.5015,0.8652,194.2935,309.9956)">T</text>

	<text
   style="font-size:20px;fill:#1a171b;font-family:ArialMT"
   id="text214"
   font-size="20"
   transform="matrix(0.921,0.3895,-0.3895,0.921,206.7202,316.7549)">I</text>

	
		<text
   style="font-size:19.99909973px;fill:#1a171b;font-family:ArialMT"
   id="text216"
   font-size="19.9991"
   transform="matrix(0.9501,0.3118,-0.3118,0.9501,213.1768,319.564)">E</text>

	
		<text
   style="font-size:20.00079918px;fill:#1a171b;font-family:ArialMT"
   id="text218"
   font-size="20.0008"
   transform="matrix(0.9724,0.2335,-0.2335,0.9724,227.2622,324.1108)">R</text>

	
		<text
   style="font-size:20.0007px;fill:#1a171b;font-family:ArialMT"
   id="text220"
   font-size="20.0007"
   transform="matrix(0.9852,0.1716,-0.1716,0.9852,242.5786,327.728)">R</text>

	
		<text
   style="font-size:19.99900055px;fill:#1a171b;font-family:ArialMT"
   id="text222"
   font-size="19.999"
   transform="matrix(0.9927,0.1202,-0.1202,0.9927,257.9946,330.3589)">A</text>

	<text
   style="font-size:20px;fill:#1a171b;font-family:ArialMT"
   id="text224"
   font-size="20"
   transform="matrix(0.9982,5.95e-2,-5.95e-2,0.9982,276.9692,332.4766)">Y</text>

	<text
   style="font-size:20px;fill:#1a171b;font-family:ArialMT"
   id="text226"
   font-size="20"
   transform="matrix(1,-4.3e-3,4.3e-3,1,297.8696,333.4497)">L</text>

	
		<text
   style="font-size:20.00099945px;fill:#1a171b;font-family:ArialMT"
   id="text228"
   font-size="20.001"
   transform="matrix(0.9994,-3.6e-2,3.6e-2,0.9994,309.9961,333.3408)">I</text>

	<text
   style="font-size:20px;fill:#1a171b;font-family:ArialMT"
   id="text230"
   font-size="20"
   transform="matrix(0.9973,-7.38e-2,7.38e-2,0.9973,316.6279,333.1567)">B</text>

	<text
   style="font-size:20px;fill:#1a171b;font-family:ArialMT"
   id="text232"
   font-size="20"
   transform="matrix(0.9913,-0.1315,0.1315,0.9913,331.1934,332.0503)">E</text>

	
		<text
   style="font-size:20.00090027px;fill:#1a171b;font-family:ArialMT"
   id="text234"
   font-size="20.0009"
   transform="matrix(0.9797,-0.2007,0.2007,0.9797,345.793,330.0991)">R</text>

	<text
   style="font-size:20px;fill:#1a171b;font-family:ArialMT"
   id="text236"
   font-size="20"
   transform="matrix(0.9613,-0.2755,0.2755,0.9613,360.7598,326.9712)">T</text>

	<text
   style="font-size:20px;fill:#1a171b;font-family:ArialMT"
   id="text238"
   font-size="20"
   transform="matrix(0.9376,-0.3478,0.3478,0.9376,371.6104,323.9346)">A</text>

	<text
   style="font-size:20px;fill:#1a171b;font-family:ArialMT"
   id="text240"
   font-size="20"
   transform="matrix(0.8878,-0.4602,0.4602,0.8878,385.874,318.5928)">D</text>

</g>
      <g
         id="g2939">
        <circle
           cx="317.479"
           cy="214.93201"
           r="4.1100001"
           id="circle242"
           sodipodi:cx="317.479"
           sodipodi:cy="214.93201"
           sodipodi:rx="4.1100001"
           sodipodi:ry="4.1100001"
           style="fill:#1a171b" />
        <circle
           cx="389.34201"
           cy="214.93201"
           r="4.1100001"
           id="circle244"
           sodipodi:cx="389.34201"
           sodipodi:cy="214.93201"
           sodipodi:rx="4.1100001"
           sodipodi:ry="4.1100001"
           style="fill:#1a171b" />
        <path
           d="M 206.653,230.771 L 206.653,231.709 L 193.465,231.709 L 193.465,230.771 L 194.31,230.771 C 195.048,230.771 195.638,230.585 196.078,230.212 C 196.412,229.964 196.668,229.538 196.844,228.935 C 196.967,228.51 197.029,227.393 197.029,225.583 L 197.029,201.958 C 197.029,200.114 196.963,198.961 196.831,198.5 C 196.699,198.039 196.422,197.635 196,197.289 C 195.578,196.943 195.015,196.77 194.312,196.77 L 193.467,196.77 L 193.467,195.832 L 206.655,195.832 L 206.655,196.77 L 205.817,196.77 C 205.1,196.77 204.515,196.957 204.061,197.329 C 203.747,197.577 203.494,198.003 203.302,198.606 C 203.161,199.032 203.092,200.149 203.092,201.958 L 203.092,225.583 C 203.092,227.428 203.166,228.581 203.315,229.042 C 203.464,229.503 203.743,229.906 204.153,230.252 C 204.563,230.598 205.118,230.771 205.817,230.771 L 206.653,230.771 z"
           id="path264"
           style="fill:#1a171b" />
        <path
           d="M 217.075,197.896 L 217.075,212.459 L 217.614,212.459 C 219.249,212.459 220.435,211.747 221.173,210.323 C 221.909,208.899 222.377,206.799 222.575,204.021 L 223.2,204.021 L 223.2,222.771 L 222.575,222.771 C 222.413,220.73 222.09,219.059 221.604,217.757 C 221.118,216.455 220.552,215.58 219.906,215.131 C 219.259,214.683 218.315,214.458 217.075,214.458 L 217.075,224.571 C 217.075,226.549 217.137,227.758 217.261,228.199 C 217.385,228.64 217.611,229.002 217.939,229.284 C 218.267,229.567 218.793,229.708 219.52,229.708 L 221.035,229.708 C 223.409,229.708 225.313,228.937 226.749,227.392 C 228.184,225.847 229.211,223.49 229.831,220.318 L 230.514,220.318 L 229.375,231.709 L 207.45,231.709 L 207.45,230.771 L 208.295,230.771 C 209.033,230.771 209.623,230.585 210.063,230.212 C 210.397,229.964 210.653,229.538 210.829,228.935 C 210.952,228.51 211.014,227.393 211.014,225.583 L 211.014,201.958 C 211.014,200.327 210.988,199.325 210.935,198.952 C 210.812,198.331 210.582,197.852 210.248,197.515 C 209.773,197.019 209.122,196.77 208.296,196.77 L 207.451,196.77 L 207.451,195.832 L 228.701,195.832 L 228.701,206.332 L 228.076,206.332 C 227.72,203.772 227.207,201.936 226.539,200.82 C 225.871,199.706 224.939,198.887 223.746,198.364 C 223.033,198.051 221.705,197.894 219.764,197.894 L 217.075,197.894 L 217.075,197.896 z"
           id="path266"
           style="fill:#1a171b" />
        <path
           d="M 240.784,195.833 L 253.222,217.982 L 253.222,202.645 C 253.222,200.483 253.003,199.021 252.566,198.258 C 251.97,197.231 250.98,196.735 249.597,196.77 L 249.597,195.832 L 257.91,195.832 L 257.91,196.77 C 256.841,196.965 256.122,197.217 255.754,197.528 C 255.386,197.839 255.101,198.343 254.9,199.044 C 254.699,199.745 254.598,200.944 254.598,202.646 L 254.598,232.521 L 253.963,232.521 L 236.91,202.503 L 236.91,225.458 C 236.91,227.54 237.244,228.946 237.914,229.676 C 238.584,230.406 239.356,230.771 240.231,230.771 L 240.847,230.771 L 240.847,231.709 L 231.784,231.709 L 231.784,230.771 C 233.184,230.753 234.159,230.344 234.709,229.543 C 235.259,228.742 235.534,227.38 235.534,225.458 L 235.534,200.084 L 235.022,199.184 C 234.475,198.219 234,197.584 233.595,197.281 C 233.19,196.977 232.6,196.807 231.824,196.771 L 231.824,195.833 L 240.784,195.833 L 240.784,195.833 z"
           id="path268"
           style="fill:#1a171b" />
        <path
           d="M 268.344,197.896 L 268.344,212.459 L 268.883,212.459 C 270.518,212.459 271.704,211.747 272.442,210.323 C 273.178,208.899 273.646,206.799 273.844,204.021 L 274.469,204.021 L 274.469,222.771 L 273.844,222.771 C 273.682,220.73 273.359,219.059 272.873,217.757 C 272.387,216.455 271.821,215.58 271.175,215.131 C 270.528,214.683 269.584,214.458 268.344,214.458 L 268.344,224.571 C 268.344,226.549 268.406,227.758 268.53,228.199 C 268.654,228.64 268.88,229.002 269.208,229.284 C 269.536,229.567 270.062,229.708 270.789,229.708 L 272.304,229.708 C 274.678,229.708 276.582,228.937 278.018,227.392 C 279.453,225.847 280.48,223.49 281.1,220.318 L 281.783,220.318 L 280.644,231.709 L 258.72,231.709 L 258.72,230.771 L 259.565,230.771 C 260.303,230.771 260.893,230.585 261.333,230.212 C 261.667,229.964 261.923,229.538 262.099,228.935 C 262.222,228.51 262.284,227.393 262.284,225.583 L 262.284,201.958 C 262.284,200.327 262.258,199.325 262.205,198.952 C 262.082,198.331 261.852,197.852 261.518,197.515 C 261.043,197.019 260.392,196.77 259.566,196.77 L 258.721,196.77 L 258.721,195.832 L 279.971,195.832 L 279.971,206.332 L 279.346,206.332 C 278.99,203.772 278.477,201.936 277.809,200.82 C 277.141,199.706 276.209,198.887 275.016,198.364 C 274.303,198.051 272.975,197.894 271.034,197.894 L 268.344,197.894 L 268.344,197.896 z"
           id="path270"
           style="fill:#1a171b" />
        <path
           d="M 300.481,195.021 L 300.669,206.959 L 299.919,206.959 C 299.548,203.972 298.657,201.568 297.247,199.75 C 295.836,197.932 294.31,197.021 292.671,197.021 C 291.4,197.021 290.395,197.5 289.654,198.459 C 288.913,199.418 288.544,200.522 288.544,201.772 C 288.544,202.564 288.667,203.268 288.913,203.883 C 289.281,204.71 289.86,205.529 290.65,206.337 C 291.229,206.918 292.572,207.947 294.679,209.426 C 297.628,211.485 299.628,213.431 300.68,215.263 C 301.713,217.095 302.231,219.192 302.231,221.553 C 302.231,224.548 301.405,227.125 299.752,229.283 C 298.099,231.441 296.001,232.52 293.456,232.52 C 292.643,232.52 291.883,232.404 291.176,232.173 C 290.469,231.942 289.577,231.506 288.499,230.865 C 287.897,230.51 287.402,230.332 287.014,230.332 C 286.696,230.332 286.356,230.513 285.993,230.872 C 285.631,231.232 285.335,231.781 285.105,232.519 L 284.48,232.519 L 284.48,219.019 L 285.105,219.019 C 285.669,222.798 286.732,225.68 288.294,227.665 C 289.856,229.651 291.536,230.644 293.337,230.644 C 294.732,230.644 295.843,230.108 296.673,229.035 C 297.502,227.962 297.917,226.713 297.917,225.287 C 297.917,224.442 297.759,223.624 297.442,222.832 C 297.126,222.041 296.648,221.289 296.007,220.576 C 295.366,219.863 294.221,218.935 292.57,217.791 C 290.287,216.19 288.644,214.826 287.641,213.699 C 286.638,212.572 285.87,211.312 285.338,209.921 C 284.806,208.53 284.54,206.997 284.54,205.323 C 284.54,202.469 285.278,200.039 286.755,198.031 C 288.232,196.023 290.096,195.019 292.347,195.019 C 293.156,195.019 293.947,195.159 294.72,195.438 C 295.3,195.648 296.012,196.037 296.856,196.605 C 297.7,197.173 298.29,197.457 298.624,197.457 C 298.94,197.457 299.19,197.317 299.375,197.038 C 299.56,196.759 299.74,196.086 299.916,195.019 L 300.481,195.019 L 300.481,195.021 z"
           id="path272"
           style="fill:#1a171b" />
        <path
           d="M 352.838,219.083 L 351.9,231.708 L 329.462,231.708 L 329.462,230.77 L 330.307,230.77 C 331.045,230.77 331.635,230.584 332.075,230.211 C 332.409,229.963 332.656,229.537 332.814,228.934 C 332.955,228.509 333.025,227.392 333.025,225.582 L 333.025,201.957 C 333.025,200.113 332.959,198.96 332.827,198.499 C 332.695,198.038 332.418,197.634 331.996,197.288 C 331.574,196.942 331.011,196.769 330.308,196.769 L 329.463,196.769 L 329.463,195.831 L 343.026,195.831 L 343.026,196.769 L 341.893,196.769 C 341.137,196.769 340.536,196.956 340.086,197.328 C 339.762,197.576 339.501,198.002 339.304,198.605 C 339.159,199.031 339.088,200.148 339.088,201.957 L 339.088,224.835 C 339.088,226.671 339.162,227.841 339.312,228.344 C 339.46,228.847 339.754,229.222 340.193,229.469 C 340.508,229.628 341.254,229.707 342.428,229.707 L 344.532,229.707 C 345.864,229.707 346.976,229.371 347.871,228.698 C 348.766,228.025 349.537,226.963 350.185,225.51 C 350.833,224.057 351.447,221.915 352.026,219.081 L 352.838,219.081 L 352.838,219.083 z"
           id="path274"
           style="fill:#1a171b" />
        <path
           d="M 360.922,219.583 L 364.824,207.311 L 368.603,219.583 L 360.922,219.583 z M 370.574,225.979 C 370.927,227.151 371.112,227.816 371.13,227.976 C 371.2,228.314 371.235,228.642 371.235,228.96 C 371.235,229.493 371.102,229.901 370.839,230.185 C 370.433,230.576 369.737,230.771 368.751,230.771 L 368.249,230.771 L 368.249,231.709 L 380.512,231.709 L 380.512,230.771 C 379.737,230.683 379.137,230.364 378.715,229.815 C 378.151,229.089 377.438,227.328 376.574,224.53 L 367.419,195.146 L 367.074,195.146 L 357.982,223.738 C 357.136,226.48 356.418,228.29 355.828,229.166 C 355.238,230.042 354.494,230.577 353.596,230.771 L 353.596,231.709 L 361.999,231.709 L 361.999,230.771 C 360.678,230.629 359.85,230.417 359.516,230.133 C 358.952,229.654 358.67,228.91 358.67,227.9 C 358.67,227.138 358.846,226.172 359.198,225.003 L 360.304,221.522 L 369.2,221.522 L 370.574,225.979 z"
           id="path276"
           style="fill:#1a171b" />
        <path
           d="M 427.191,195.833 L 427.191,205.521 L 426.566,205.521 C 426.172,203.288 425.73,201.683 425.238,200.707 C 424.746,199.731 424.071,198.952 423.213,198.371 C 422.731,198.055 421.89,197.896 420.692,197.896 L 418.817,197.896 L 418.817,225.584 C 418.817,227.429 418.89,228.582 419.038,229.043 C 419.186,229.504 419.463,229.907 419.87,230.253 C 420.277,230.599 420.837,230.772 421.548,230.772 L 422.38,230.772 L 422.38,231.71 L 409.192,231.71 L 409.192,230.772 L 410.03,230.772 C 410.763,230.772 411.348,230.586 411.786,230.213 C 412.117,229.965 412.37,229.539 412.545,228.936 C 412.685,228.511 412.755,227.394 412.755,225.584 L 412.755,197.896 L 410.88,197.896 C 409.137,197.896 407.87,198.407 407.08,199.426 C 405.984,200.851 405.292,202.882 405.005,205.521 L 404.38,205.521 L 404.38,195.833 L 427.191,195.833 L 427.191,195.833 z"
           id="path278"
           style="fill:#1a171b" />
        <path
           d="M 456.259,213.857 C 457.573,215.375 458.034,216.897 457.642,218.426 C 457.249,219.955 456.027,221.61 453.973,223.389 C 452.554,224.618 451.244,225.428 450.039,225.819 C 448.834,226.21 447.784,226.229 446.887,225.877 C 445.99,225.524 444.976,224.696 443.846,223.392 L 443.154,222.594 L 454.962,212.361 L 456.259,213.857 z M 442.809,225.059 L 435.781,241.952 L 440.988,247.96 L 441.744,247.305 C 441.344,246.763 441.181,246.12 441.258,245.377 C 441.329,244.871 441.696,243.806 442.355,242.182 L 447.583,229.619 C 449.011,230.434 450.415,230.803 451.794,230.727 C 453.975,230.609 456.063,229.686 458.058,227.956 C 459.695,226.538 460.829,224.965 461.462,223.237 C 462.096,221.509 462.174,219.913 461.696,218.448 C 461.218,216.983 459.974,215.09 457.964,212.771 L 450.252,203.873 L 449.544,204.487 C 450.315,205.377 450.728,206.083 450.782,206.603 C 450.836,207.123 450.729,207.612 450.461,208.069 C 450.193,208.527 449.326,209.39 447.862,210.659 L 430.198,225.969 C 428.733,227.239 427.759,227.97 427.275,228.165 C 426.79,228.36 426.295,228.4 425.787,228.285 C 425.279,228.17 424.634,227.66 423.85,226.756 L 423.142,227.37 L 431.697,237.241 L 432.405,236.627 C 431.639,235.743 431.227,235.04 431.172,234.518 C 431.115,233.996 431.221,233.505 431.488,233.047 C 431.755,232.589 432.622,231.725 434.087,230.456 L 441.738,223.825 L 442.809,225.059 z"
           id="path280"
           style="fill:#1a171b" />
      </g>
      <g
         id="g2952">
        <circle
           cx="456.315"
           cy="403.27399"
           r="4.1100001"
           id="circle246"
           sodipodi:cx="456.315"
           sodipodi:cy="403.27399"
           sodipodi:rx="4.1100001"
           sodipodi:ry="4.1100001"
           style="fill:#1a171b" />
        <circle
           cx="453.57501"
           cy="488.90399"
           r="4.1100001"
           id="circle248"
           sodipodi:cx="453.57501"
           sodipodi:cy="488.90399"
           sodipodi:rx="4.1100001"
           sodipodi:ry="4.1100001"
           style="fill:#1a171b" />
        <circle
           cx="456.315"
           cy="591.35498"
           r="4.1100001"
           id="circle250"
           sodipodi:cx="456.315"
           sodipodi:cy="591.35498"
           sodipodi:rx="4.1100001"
           sodipodi:ry="4.1100001"
           style="fill:#1a171b" />
        <path
           d="M 447.925,248.746 L 460.197,252.648 L 447.925,256.427 L 447.925,248.746 z M 441.529,258.398 C 440.357,258.751 439.692,258.936 439.532,258.954 C 439.194,259.024 438.866,259.059 438.548,259.059 C 438.015,259.059 437.607,258.926 437.323,258.663 C 436.932,258.257 436.737,257.561 436.737,256.575 L 436.737,256.073 L 435.8,256.073 L 435.8,268.336 L 436.738,268.336 C 436.826,267.561 437.145,266.961 437.694,266.539 C 438.42,265.975 440.181,265.262 442.979,264.398 L 472.363,255.243 L 472.363,254.898 L 443.771,245.806 C 441.029,244.96 439.219,244.242 438.343,243.652 C 437.467,243.062 436.932,242.318 436.738,241.42 L 435.8,241.42 L 435.8,249.823 L 436.738,249.823 C 436.88,248.502 437.092,247.674 437.376,247.34 C 437.855,246.776 438.599,246.494 439.609,246.494 C 440.371,246.494 441.337,246.67 442.506,247.022 L 445.987,248.128 L 445.987,257.024 L 441.529,258.398 z"
           id="path282"
           style="fill:#1a171b" />
        <path
           d="M 469.675,277.992 C 469.693,279.808 469.436,281.126 468.904,281.946 C 468.372,282.766 467.597,283.396 466.579,283.838 C 465.56,284.278 464.255,284.499 462.661,284.499 C 461.066,284.499 459.756,284.273 458.728,283.824 C 457.7,283.375 456.903,282.728 456.336,281.886 C 455.77,281.043 455.486,279.735 455.486,277.961 L 469.675,277.992 z M 458.015,289.431 C 459.367,290.31 460.908,290.749 462.639,290.749 C 464.282,290.749 465.832,290.4 467.289,289.704 C 468.746,289.007 469.842,288.055 470.575,286.847 C 471.307,285.639 471.675,283.589 471.675,280.697 L 471.675,268.555 L 470.737,268.555 C 470.737,269.733 470.585,270.536 470.282,270.965 C 469.979,271.394 469.573,271.693 469.065,271.862 C 468.557,272.031 467.323,272.117 465.362,272.117 L 442.112,272.117 C 440.151,272.117 438.921,272.032 438.422,271.862 C 437.922,271.692 437.517,271.393 437.205,270.965 C 436.892,270.536 436.737,269.733 436.737,268.555 L 435.8,268.555 L 435.8,281.424 C 435.8,285.026 436.865,287.762 438.996,289.633 C 440.758,291.168 442.985,291.937 445.681,291.937 C 448.234,291.937 450.312,291.24 451.915,289.846 C 453.042,288.875 454.002,287.191 454.795,284.791 C 455.59,287.005 456.663,288.552 458.015,289.431 z M 452.706,282.269 C 452.167,283.226 451.234,283.983 449.908,284.54 C 448.582,285.097 447.084,285.375 445.416,285.375 C 443.957,285.375 442.635,285.148 441.449,284.697 C 440.263,284.245 439.358,283.593 438.735,282.743 C 438.111,281.891 437.799,280.97 437.799,279.977 C 437.799,279.303 438.038,278.794 438.518,278.449 C 438.998,278.104 439.707,277.93 440.649,277.93 L 441.957,277.933 L 453.487,277.958 C 453.505,279.874 453.244,281.311 452.706,282.269 z"
           id="path284"
           style="fill:#1a171b" />
        <path
           d="M 447.925,300.06 L 460.197,303.962 L 447.925,307.741 L 447.925,300.06 z M 441.529,309.712 C 440.357,310.065 439.692,310.25 439.532,310.268 C 439.194,310.338 438.866,310.373 438.548,310.373 C 438.015,310.373 437.607,310.24 437.323,309.977 C 436.932,309.571 436.737,308.875 436.737,307.889 L 436.737,307.387 L 435.8,307.387 L 435.8,319.65 L 436.738,319.65 C 436.826,318.875 437.145,318.275 437.694,317.853 C 438.42,317.289 440.181,316.576 442.979,315.712 L 472.363,306.557 L 472.363,306.212 L 443.771,297.12 C 441.029,296.274 439.219,295.556 438.343,294.966 C 437.467,294.376 436.932,293.632 436.738,292.734 L 435.8,292.734 L 435.8,301.137 L 436.738,301.137 C 436.88,299.816 437.092,298.988 437.376,298.654 C 437.855,298.09 438.599,297.808 439.609,297.808 C 440.371,297.808 441.337,297.984 442.506,298.336 L 445.987,299.442 L 445.987,308.338 L 441.529,309.712 z"
           id="path286"
           style="fill:#1a171b" />
        <path
           d="M 470.737,324.483 L 471.675,324.483 L 471.675,337.983 L 470.737,337.983 L 470.737,337.165 C 470.737,336.426 470.55,335.828 470.178,335.371 C 469.93,335.071 469.504,334.825 468.901,334.632 C 468.475,334.491 467.358,334.421 465.549,334.421 L 447.979,334.421 C 444.539,334.421 442.038,334.179 440.477,333.695 C 438.915,333.212 437.61,332.354 436.561,331.124 C 435.512,329.894 434.987,328.407 434.987,326.667 C 434.987,324.539 435.782,322.82 437.371,321.511 C 438.96,320.2 440.717,319.546 442.642,319.546 C 443.877,319.546 444.879,319.814 445.648,320.351 C 446.416,320.888 446.8,321.543 446.8,322.318 C 446.8,323.074 446.454,323.708 445.765,324.218 C 445.075,324.728 444.225,324.984 443.217,324.984 C 442.721,324.984 442.287,324.941 441.916,324.855 C 441.738,324.803 441.292,324.614 440.575,324.287 C 439.858,323.96 439.35,323.797 439.05,323.797 C 438.589,323.797 438.192,323.954 437.856,324.269 C 437.36,324.741 437.113,325.353 437.113,326.105 C 437.113,326.628 437.306,327.066 437.695,327.416 C 438.084,327.766 438.688,328.01 439.509,328.15 C 440.329,328.29 442.612,328.36 446.354,328.36 L 465.55,328.36 C 467.394,328.36 468.547,328.288 469.008,328.144 C 469.469,328 469.873,327.713 470.219,327.283 C 470.565,326.853 470.738,326.278 470.738,325.561 L 470.738,324.483 L 470.737,324.483 z"
           id="path288"
           style="fill:#1a171b" />
        <path
           d="M 447.925,344.94 L 460.197,348.842 L 447.925,352.621 L 447.925,344.94 z M 441.529,354.592 C 440.357,354.945 439.692,355.13 439.532,355.148 C 439.194,355.218 438.866,355.253 438.548,355.253 C 438.015,355.253 437.607,355.12 437.323,354.857 C 436.932,354.451 436.737,353.755 436.737,352.769 L 436.737,352.267 L 435.8,352.267 L 435.8,364.53 L 436.738,364.53 C 436.826,363.755 437.145,363.155 437.694,362.733 C 438.42,362.169 440.181,361.456 442.979,360.592 L 472.363,351.437 L 472.363,351.092 L 443.771,342 C 441.029,341.154 439.219,340.436 438.343,339.846 C 437.467,339.256 436.932,338.512 436.738,337.614 L 435.8,337.614 L 435.8,346.017 L 436.738,346.017 C 436.88,344.696 437.092,343.868 437.376,343.534 C 437.855,342.97 438.599,342.688 439.609,342.688 C 440.371,342.688 441.337,342.864 442.506,343.216 L 445.987,344.322 L 445.987,353.218 L 441.529,354.592 z"
           id="path290"
           style="fill:#1a171b" />
        <path
           d="M 471.675,373.484 L 449.526,385.922 L 464.863,385.922 C 467.025,385.922 468.487,385.703 469.25,385.266 C 470.277,384.67 470.773,383.68 470.738,382.297 L 471.676,382.297 L 471.676,390.61 L 470.738,390.61 C 470.543,389.541 470.291,388.822 469.98,388.454 C 469.669,388.086 469.165,387.801 468.464,387.6 C 467.763,387.399 466.564,387.298 464.862,387.298 L 434.987,387.298 L 434.987,386.663 L 465.005,369.61 L 442.05,369.61 C 439.968,369.61 438.562,369.944 437.832,370.614 C 437.102,371.284 436.737,372.056 436.737,372.931 L 436.737,373.547 L 435.8,373.547 L 435.8,364.484 L 436.738,364.484 C 436.756,365.884 437.165,366.859 437.966,367.409 C 438.767,367.959 440.129,368.234 442.051,368.234 L 467.425,368.234 L 468.325,367.722 C 469.29,367.175 469.925,366.7 470.228,366.295 C 470.532,365.89 470.702,365.3 470.738,364.524 L 471.676,364.524 L 471.676,373.484 L 471.675,373.484 z"
           id="path292"
           style="fill:#1a171b" />
        <path
           d="M 472.487,442.08 L 460.05,442.08 L 460.05,441.33 C 463.318,440.783 465.822,439.764 467.564,438.273 C 469.304,436.783 470.175,435.085 470.175,433.18 C 470.175,431.61 469.529,430.163 468.24,428.841 C 466.951,427.518 465.264,426.548 463.181,425.931 C 460.514,425.155 457.547,424.767 454.281,424.767 C 451.066,424.767 448.139,425.053 445.5,425.627 C 442.859,426.201 440.864,427.098 439.514,428.316 C 438.162,429.535 437.488,431.115 437.488,433.058 C 437.488,434.664 437.981,436.13 438.969,437.454 C 439.956,438.778 441.658,440.174 444.075,441.641 L 440.983,441.641 C 438.878,440.227 437.352,438.75 436.406,437.213 C 435.461,435.675 434.987,433.872 434.987,431.804 C 434.987,429.099 435.755,426.696 437.287,424.592 C 438.82,422.488 441.024,420.867 443.898,419.726 C 446.772,418.585 449.831,418.016 453.075,418.016 C 456.495,418.016 459.739,418.647 462.807,419.91 C 465.874,421.173 468.254,422.881 469.948,425.035 C 471.64,427.189 472.487,429.477 472.487,431.897 C 472.487,433.68 471.946,435.561 470.866,437.54 C 470.238,438.687 469.925,439.411 469.925,439.712 C 469.925,440.118 470.129,440.467 470.539,440.758 C 470.948,441.049 471.598,441.239 472.487,441.328 L 472.487,442.08 z"
           id="path294"
           style="fill:#1a171b" />
        <path
           d="M 470.242,450.794 C 469.578,451.107 468.034,451.265 465.61,451.265 C 462.62,451.265 460.611,451.178 459.586,451.004 C 458.984,450.916 458.515,450.737 458.179,450.468 C 457.843,450.199 457.675,449.88 457.675,449.515 C 457.675,449.009 458.02,448.591 458.71,448.261 C 459.399,447.93 460.851,447.765 463.063,447.765 C 466.159,447.765 468.238,447.852 469.3,448.026 C 469.954,448.113 470.442,448.296 470.76,448.575 C 471.078,448.853 471.238,449.184 471.238,449.567 C 471.237,450.071 470.905,450.48 470.242,450.794 z M 470.139,445.708 C 468.657,444.704 466.75,444.202 464.421,444.202 C 462.126,444.202 460.251,444.699 458.796,445.695 C 457.34,446.69 456.612,447.972 456.612,449.541 C 456.612,451.092 457.335,452.36 458.782,453.347 C 460.229,454.334 462.136,454.827 464.501,454.827 C 466.83,454.827 468.723,454.324 470.179,453.32 C 471.634,452.316 472.363,451.039 472.363,449.488 C 472.362,447.973 471.621,446.712 470.139,445.708 z"
           id="path296"
           style="fill:#1a171b" />
        <path
           d="M 471.675,464.461 L 449.526,476.899 L 464.863,476.899 C 467.025,476.899 468.487,476.68 469.25,476.243 C 470.277,475.647 470.773,474.657 470.738,473.274 L 471.676,473.274 L 471.676,481.587 L 470.738,481.587 C 470.543,480.518 470.291,479.799 469.98,479.431 C 469.669,479.063 469.165,478.778 468.464,478.577 C 467.763,478.376 466.564,478.275 464.862,478.275 L 434.987,478.275 L 434.987,477.64 L 465.005,460.587 L 442.05,460.587 C 439.968,460.587 438.562,460.921 437.832,461.591 C 437.102,462.261 436.737,463.033 436.737,463.908 L 436.737,464.524 L 435.8,464.524 L 435.8,455.461 L 436.738,455.461 C 436.756,456.861 437.165,457.836 437.966,458.386 C 438.767,458.936 440.129,459.211 442.051,459.211 L 467.425,459.211 L 468.325,458.699 C 469.29,458.152 469.925,457.677 470.228,457.272 C 470.532,456.867 470.702,456.277 470.738,455.501 L 471.676,455.501 L 471.676,464.461 L 471.675,464.461 z"
           id="path298"
           style="fill:#1a171b" />
        <path
           d="M 472.487,516.858 L 460.549,517.046 L 460.549,516.296 C 463.536,515.925 465.94,515.034 467.758,513.624 C 469.576,512.213 470.487,510.687 470.487,509.048 C 470.487,507.777 470.008,506.772 469.049,506.031 C 468.09,505.29 466.986,504.921 465.736,504.921 C 464.944,504.921 464.24,505.044 463.625,505.29 C 462.798,505.658 461.979,506.237 461.171,507.027 C 460.59,507.606 459.561,508.949 458.082,511.056 C 456.023,514.005 454.077,516.005 452.245,517.057 C 450.413,518.09 448.316,518.608 445.955,518.608 C 442.96,518.608 440.383,517.782 438.225,516.129 C 436.067,514.476 434.988,512.378 434.988,509.833 C 434.988,509.02 435.104,508.26 435.335,507.553 C 435.566,506.846 436.002,505.954 436.643,504.876 C 436.998,504.274 437.176,503.779 437.176,503.391 C 437.176,503.073 436.995,502.733 436.636,502.37 C 436.276,502.008 435.727,501.712 434.989,501.482 L 434.989,500.857 L 448.489,500.857 L 448.489,501.482 C 444.71,502.046 441.828,503.109 439.843,504.671 C 437.857,506.233 436.864,507.913 436.864,509.714 C 436.864,511.109 437.4,512.22 438.473,513.05 C 439.546,513.879 440.795,514.294 442.221,514.294 C 443.066,514.294 443.884,514.136 444.676,513.819 C 445.467,513.503 446.219,513.025 446.932,512.384 C 447.645,511.743 448.573,510.598 449.717,508.947 C 451.318,506.664 452.682,505.021 453.809,504.018 C 454.936,503.015 456.196,502.247 457.587,501.715 C 458.978,501.183 460.511,500.917 462.185,500.917 C 465.039,500.917 467.469,501.655 469.477,503.132 C 471.485,504.609 472.489,506.473 472.489,508.724 C 472.489,509.533 472.349,510.324 472.07,511.097 C 471.86,511.677 471.471,512.389 470.903,513.233 C 470.335,514.077 470.051,514.667 470.051,515.001 C 470.051,515.317 470.191,515.567 470.47,515.752 C 470.749,515.937 471.422,516.117 472.489,516.293 L 472.489,516.858 L 472.487,516.858 z"
           id="path300"
           style="fill:#1a171b" />
        <path
           d="M 471.675,520.188 L 471.675,533.251 L 470.737,533.251 L 470.737,532.593 C 470.737,531.609 470.591,530.933 470.299,530.565 C 470.006,530.196 469.604,529.937 469.09,529.788 C 468.576,529.639 467.292,529.564 465.237,529.564 L 447.674,529.564 C 444.464,529.564 442.339,529.733 441.299,530.072 C 440.258,530.41 439.394,530.966 438.706,531.738 C 438.018,532.509 437.675,533.477 437.675,534.64 C 437.675,535.994 438.112,537.147 438.985,538.102 C 439.858,539.056 441.061,539.767 442.595,540.236 C 444.129,540.705 446.801,540.939 450.61,540.939 L 465.238,540.939 C 466.849,540.939 468.001,540.822 468.692,540.587 C 469.382,540.353 469.861,540.063 470.127,539.716 C 470.534,539.161 470.738,538.381 470.738,537.376 L 471.676,537.376 L 471.676,546.126 L 470.738,546.126 L 470.738,545.599 C 470.738,544.895 470.534,544.305 470.127,543.83 C 469.719,543.354 469.108,543.012 468.294,542.801 C 467.727,542.643 466.708,542.564 465.238,542.564 L 451.62,542.564 C 447.407,542.564 444.366,542.371 442.498,541.986 C 440.629,541.601 438.91,540.651 437.342,539.137 C 435.774,537.623 434.988,535.562 434.988,532.953 C 434.988,530.782 435.403,529.101 436.231,527.912 C 437.359,526.301 438.804,525.163 440.567,524.498 C 442.33,523.833 444.701,523.501 447.68,523.501 L 465.238,523.501 C 467.31,523.501 468.598,523.417 469.103,523.249 C 469.608,523.081 470.011,522.798 470.312,522.4 C 470.613,522.002 470.755,521.265 470.738,520.188 L 471.675,520.188 z"
           id="path302"
           style="fill:#1a171b" />
        <path
           d="M 472.487,563.813 L 460.549,564.001 L 460.549,563.251 C 463.536,562.88 465.94,561.989 467.758,560.579 C 469.576,559.168 470.487,557.642 470.487,556.003 C 470.487,554.732 470.008,553.727 469.049,552.986 C 468.09,552.245 466.986,551.876 465.736,551.876 C 464.944,551.876 464.24,551.999 463.625,552.245 C 462.798,552.613 461.979,553.192 461.171,553.982 C 460.59,554.561 459.561,555.904 458.082,558.011 C 456.023,560.96 454.077,562.96 452.245,564.012 C 450.413,565.045 448.316,565.563 445.955,565.563 C 442.96,565.563 440.383,564.737 438.225,563.084 C 436.067,561.431 434.988,559.333 434.988,556.788 C 434.988,555.975 435.104,555.215 435.335,554.508 C 435.566,553.801 436.002,552.909 436.643,551.831 C 436.998,551.229 437.176,550.734 437.176,550.346 C 437.176,550.028 436.995,549.688 436.636,549.325 C 436.276,548.963 435.727,548.667 434.989,548.437 L 434.989,547.812 L 448.489,547.812 L 448.489,548.437 C 444.71,549.001 441.828,550.064 439.843,551.626 C 437.857,553.188 436.864,554.868 436.864,556.669 C 436.864,558.064 437.4,559.175 438.473,560.005 C 439.546,560.834 440.795,561.249 442.221,561.249 C 443.066,561.249 443.884,561.091 444.676,560.774 C 445.467,560.458 446.219,559.98 446.932,559.339 C 447.645,558.698 448.573,557.553 449.717,555.902 C 451.318,553.619 452.682,551.976 453.809,550.973 C 454.936,549.97 456.196,549.202 457.587,548.67 C 458.978,548.138 460.511,547.872 462.185,547.872 C 465.039,547.872 467.469,548.61 469.477,550.087 C 471.485,551.564 472.489,553.428 472.489,555.679 C 472.489,556.488 472.349,557.279 472.07,558.052 C 471.86,558.632 471.471,559.344 470.903,560.188 C 470.335,561.032 470.051,561.622 470.051,561.956 C 470.051,562.272 470.191,562.522 470.47,562.707 C 470.749,562.892 471.422,563.072 472.489,563.248 L 472.489,563.813 L 472.487,563.813 z"
           id="path304"
           style="fill:#1a171b" />
        <path
           d="M 426.344,606.171 L 425.457,630.892 L 415.526,633.391 L 415.297,632.482 L 416.091,632.283 C 416.808,632.102 417.342,631.774 417.693,631.298 C 417.922,630.982 418.059,630.513 418.102,629.892 C 418.133,629.441 417.928,628.338 417.487,626.583 L 411.72,603.672 C 411.27,601.883 410.92,600.782 410.671,600.369 C 410.422,599.957 410.051,599.634 409.558,599.401 C 409.064,599.17 408.476,599.139 407.792,599.311 L 406.999,599.51 L 406.77,598.601 L 419.558,595.382 L 419.787,596.291 L 418.994,596.491 C 418.261,596.676 417.725,597.002 417.39,597.47 C 417.144,597.787 417.008,598.261 416.985,598.889 C 416.953,599.335 417.157,600.436 417.598,602.191 L 424.081,627.949 L 425.475,593.892 L 425.911,593.783 L 443.392,622.82 L 437.232,598.345 C 436.801,596.633 436.503,595.588 436.335,595.211 C 435.966,594.394 435.454,593.78 434.8,593.372 C 434.145,592.963 433.255,592.9 432.131,593.184 L 431.902,592.275 L 440.266,590.171 L 440.495,591.079 L 440.239,591.143 C 439.689,591.264 439.214,591.516 438.811,591.904 C 438.41,592.29 438.146,592.738 438.021,593.249 C 437.895,593.759 437.866,594.438 437.934,595.287 C 437.949,595.485 438.154,596.374 438.55,597.949 L 444.072,619.89 C 444.522,621.679 444.871,622.779 445.119,623.188 C 445.367,623.597 445.739,623.918 446.233,624.154 C 446.728,624.39 447.317,624.423 447.999,624.251 L 448.793,624.052 L 449.022,624.961 L 439.081,627.463 L 426.344,606.171 z"
           id="path306"
           style="fill:#1a171b" />
        <path
           d="M 447.375,452.267 C 447.758,452.632 454.262,454.304 462.421,454.613 C 461.158,453.869 457.771,451.963 457.341,450.147 C 456.911,448.331 457.989,446.364 457.989,446.364 C 457.989,446.364 454.327,451.852 447.483,451.085 C 446.847,451.46 446.993,451.901 447.375,452.267 z"
           id="path350"
           style="fill:#1a171b" />
      </g>
      <g
         id="g2919">
        <circle
           cx="142.616"
           cy="510"
           r="4.1100001"
           id="circle256"
           sodipodi:cx="142.616"
           sodipodi:cy="510"
           sodipodi:rx="4.1100001"
           sodipodi:ry="4.1100001"
           style="fill:#1a171b" />
        <circle
           cx="142.616"
           cy="313.08301"
           r="4.1100001"
           id="circle258"
           sodipodi:cx="142.616"
           sodipodi:cy="313.08301"
           sodipodi:rx="4.1100001"
           sodipodi:ry="4.1100001"
           style="fill:#1a171b" />
        <circle
           cx="142.616"
           cy="258.28799"
           r="4.1100001"
           id="circle260"
           sodipodi:cx="142.616"
           sodipodi:cy="258.28799"
           sodipodi:rx="4.1100001"
           sodipodi:ry="4.1100001"
           style="fill:#1a171b" />
        <path
           d="M 166.953,195.833 L 180.016,195.833 L 180.016,196.771 L 179.358,196.771 C 178.374,196.771 177.698,196.917 177.33,197.209 C 176.961,197.502 176.702,197.904 176.553,198.418 C 176.404,198.932 176.329,200.216 176.329,202.271 L 176.329,219.834 C 176.329,223.044 176.498,225.169 176.837,226.209 C 177.175,227.25 177.731,228.114 178.503,228.802 C 179.274,229.49 180.242,229.833 181.405,229.833 C 182.759,229.833 183.912,229.396 184.867,228.523 C 185.821,227.65 186.532,226.447 187.001,224.913 C 187.47,223.379 187.704,220.707 187.704,216.898 L 187.704,202.27 C 187.704,200.659 187.587,199.507 187.352,198.816 C 187.118,198.126 186.828,197.647 186.481,197.381 C 185.926,196.974 185.146,196.77 184.141,196.77 L 184.141,195.832 L 192.891,195.832 L 192.891,196.77 L 192.364,196.77 C 191.66,196.77 191.07,196.974 190.595,197.381 C 190.119,197.789 189.777,198.4 189.566,199.214 C 189.408,199.781 189.329,200.8 189.329,202.27 L 189.329,215.888 C 189.329,220.101 189.136,223.142 188.751,225.01 C 188.366,226.879 187.416,228.598 185.902,230.166 C 184.388,231.734 182.327,232.52 179.718,232.52 C 177.547,232.52 175.866,232.105 174.677,231.277 C 173.066,230.149 171.928,228.704 171.263,226.941 C 170.598,225.178 170.266,222.807 170.266,219.828 L 170.266,202.27 C 170.266,200.198 170.182,198.91 170.014,198.405 C 169.846,197.9 169.563,197.497 169.165,197.196 C 168.767,196.895 168.03,196.753 166.953,196.77 L 166.953,195.833 L 166.953,195.833 z"
           id="path262"
           style="fill:#1a171b" />
        <path
           d="M 171.156,628.571 L 173.031,614.13 L 172.496,614.061 C 170.875,613.85 169.606,614.404 168.692,615.721 C 167.778,617.037 167.044,619.061 166.49,621.789 L 165.87,621.709 L 168.284,603.114 L 168.904,603.195 C 168.802,605.24 168.907,606.938 169.221,608.292 C 169.534,609.646 169.984,610.586 170.567,611.114 C 171.151,611.642 172.058,611.986 173.288,612.146 L 174.59,602.117 C 174.844,600.156 174.939,598.949 174.873,598.495 C 174.807,598.042 174.629,597.654 174.34,597.332 C 174.051,597.01 173.547,596.802 172.827,596.709 L 171.325,596.514 C 168.971,596.208 166.983,596.728 165.36,598.076 C 163.738,599.424 162.416,601.629 161.393,604.695 L 160.716,604.607 L 163.311,593.458 L 185.052,596.279 L 184.931,597.209 L 184.094,597.101 C 183.362,597.006 182.753,597.114 182.269,597.427 C 181.906,597.63 181.598,598.02 181.346,598.596 C 181.169,599.001 180.964,600.101 180.731,601.896 L 177.69,625.324 C 177.48,626.942 177.377,627.938 177.381,628.315 C 177.423,628.947 177.589,629.451 177.877,629.828 C 178.284,630.382 178.898,630.713 179.717,630.818 L 180.555,630.927 L 180.434,631.857 L 159.361,629.122 L 160.713,618.709 L 161.333,618.79 C 161.357,621.374 161.629,623.262 162.148,624.453 C 162.667,625.644 163.485,626.576 164.602,627.249 C 165.269,627.65 166.565,627.978 168.491,628.228 L 171.156,628.571 z"
           id="path324"
           style="fill:#1a171b" />
        <path
           d="M 131.806,603.48 C 130.867,601.706 130.762,600.118 131.489,598.716 C 132.216,597.316 133.78,595.979 136.182,594.708 C 137.841,593.83 139.301,593.337 140.562,593.228 C 141.823,593.119 142.852,593.336 143.646,593.882 C 144.441,594.428 145.242,595.463 146.049,596.988 L 146.544,597.922 L 132.733,605.231 L 131.806,603.48 z M 147.435,595.599 L 158.091,580.726 L 154.372,573.699 L 153.488,574.167 C 153.756,574.786 153.769,575.448 153.527,576.155 C 153.343,576.633 152.747,577.588 151.738,579.021 L 143.813,590.083 C 142.606,588.967 141.321,588.291 139.96,588.054 C 137.809,587.677 135.567,588.106 133.233,589.341 C 131.319,590.354 129.859,591.631 128.853,593.171 C 127.846,594.712 127.411,596.249 127.545,597.784 C 127.68,599.319 128.465,601.444 129.901,604.157 L 135.409,614.564 L 136.238,614.126 C 135.687,613.085 135.444,612.305 135.508,611.786 C 135.572,611.266 135.787,610.814 136.152,610.43 C 136.517,610.046 137.555,609.399 139.268,608.493 L 159.928,597.559 C 161.641,596.652 162.756,596.159 163.271,596.079 C 163.787,595.998 164.278,596.07 164.748,596.297 C 165.217,596.525 165.73,597.166 166.29,598.224 L 167.119,597.786 L 161.01,586.24 L 160.181,586.678 C 160.728,587.712 160.971,588.49 160.908,589.012 C 160.845,589.533 160.632,589.988 160.268,590.373 C 159.904,590.758 158.865,591.405 157.152,592.311 L 148.203,597.046 L 147.435,595.599 z"
           id="path326"
           style="fill:#1a171b" />
        <path
           d="M 125.164,566.769 C 125.164,564.761 125.813,563.309 127.111,562.411 C 128.409,561.513 130.417,561.063 133.134,561.063 C 135.011,561.063 136.531,561.31 137.697,561.803 C 138.863,562.296 139.67,562.97 140.117,563.824 C 140.564,564.678 140.788,565.969 140.788,567.694 L 140.788,568.751 L 125.163,568.751 L 125.163,566.769 L 125.164,566.769 z M 142.664,567.112 L 159.039,558.95 L 159.039,551 L 158.039,551 C 157.986,551.672 157.688,552.264 157.143,552.775 C 156.757,553.111 155.784,553.676 154.221,554.471 L 142.042,560.541 C 141.497,558.99 140.678,557.792 139.586,556.945 C 137.861,555.606 135.679,554.936 133.038,554.936 C 130.873,554.936 128.985,555.382 127.375,556.273 C 125.765,557.164 124.66,558.319 124.062,559.739 C 123.464,561.159 123.164,563.404 123.164,566.473 L 123.164,578.248 L 124.102,578.248 C 124.102,577.07 124.252,576.267 124.551,575.838 C 124.851,575.409 125.252,575.11 125.754,574.941 C 126.256,574.772 127.477,574.686 129.414,574.686 L 152.789,574.686 C 154.727,574.686 155.943,574.771 156.436,574.941 C 156.93,575.111 157.331,575.405 157.639,575.825 C 157.947,576.245 158.101,577.053 158.101,578.249 L 159.039,578.249 L 159.039,565.186 L 158.101,565.186 C 158.101,566.356 157.952,567.157 157.652,567.588 C 157.353,568.02 156.952,568.321 156.45,568.492 C 155.948,568.663 154.727,568.748 152.789,568.748 L 142.664,568.748 L 142.664,567.112 z"
           id="path328"
           style="fill:#1a171b" />
        <path
           d="M 146.914,544.613 L 134.642,540.711 L 146.914,536.932 L 146.914,544.613 z M 153.309,534.961 C 154.481,534.608 155.146,534.423 155.306,534.405 C 155.644,534.335 155.972,534.3 156.29,534.3 C 156.823,534.3 157.231,534.433 157.515,534.696 C 157.906,535.102 158.101,535.798 158.101,536.784 L 158.101,537.286 L 159.039,537.286 L 159.039,525.023 L 158.101,525.023 C 158.013,525.798 157.694,526.398 157.145,526.82 C 156.419,527.384 154.658,528.097 151.86,528.961 L 122.476,538.116 L 122.476,538.461 L 151.068,547.553 C 153.81,548.399 155.62,549.117 156.496,549.707 C 157.372,550.297 157.907,551.041 158.101,551.939 L 159.039,551.939 L 159.039,543.536 L 158.101,543.536 C 157.959,544.857 157.747,545.685 157.463,546.019 C 156.984,546.583 156.24,546.865 155.23,546.865 C 154.468,546.865 153.502,546.689 152.333,546.337 L 148.852,545.231 L 148.852,536.335 L 153.309,534.961 z"
           id="path330"
           style="fill:#1a171b" />
        <path
           d="M 123.164,466.658 L 124.102,466.658 C 124.315,467.574 125.014,468.393 126.201,469.116 C 127.086,469.644 129.167,470.429 132.442,471.468 L 159.852,480.113 L 159.852,480.742 L 131.332,489.406 C 127.877,490.445 125.848,491.141 125.245,491.494 C 124.642,491.847 124.262,492.515 124.101,493.502 L 123.163,493.502 L 123.163,481.393 L 124.101,481.393 L 124.101,481.816 C 124.101,482.908 124.297,483.657 124.69,484.062 C 124.958,484.343 125.35,484.484 125.868,484.484 C 126.189,484.484 126.568,484.431 127.006,484.326 C 127.444,484.221 128.611,483.882 130.51,483.308 L 148.346,477.93 L 132.48,472.964 C 130.538,472.357 129.238,471.982 128.58,471.841 C 127.923,471.7 127.363,471.629 126.901,471.629 C 126.368,471.629 125.897,471.731 125.488,471.933 C 125.08,472.136 124.768,472.431 124.555,472.819 C 124.253,473.347 124.102,474.051 124.102,474.932 L 123.164,474.932 L 123.164,466.658 z"
           id="path332"
           style="fill:#1a171b" />
        <path
           d="M 124.596,459.601 C 125.26,459.288 126.804,459.13 129.228,459.13 C 132.218,459.13 134.227,459.217 135.252,459.391 C 135.854,459.479 136.323,459.658 136.659,459.927 C 136.995,460.196 137.163,460.515 137.163,460.88 C 137.163,461.386 136.818,461.804 136.128,462.134 C 135.439,462.465 133.987,462.63 131.775,462.63 C 128.679,462.63 126.6,462.543 125.538,462.369 C 124.884,462.282 124.396,462.099 124.078,461.82 C 123.76,461.542 123.6,461.211 123.6,460.828 C 123.601,460.323 123.933,459.914 124.596,459.601 z M 124.7,464.687 C 126.182,465.691 128.089,466.193 130.418,466.193 C 132.713,466.193 134.588,465.696 136.043,464.7 C 137.499,463.705 138.227,462.423 138.227,460.854 C 138.227,459.303 137.504,458.035 136.057,457.048 C 134.61,456.061 132.703,455.568 130.338,455.568 C 128.009,455.568 126.116,456.071 124.66,457.075 C 123.205,458.079 122.476,459.356 122.476,460.907 C 122.476,462.422 123.217,463.683 124.7,464.687 z"
           id="path334"
           style="fill:#1a171b" />
        <path
           d="M 146.414,431.307 L 159.039,432.245 L 159.039,454.683 L 158.101,454.683 L 158.101,453.838 C 158.101,453.1 157.915,452.51 157.542,452.07 C 157.294,451.736 156.868,451.489 156.265,451.331 C 155.84,451.19 154.723,451.12 152.913,451.12 L 129.288,451.12 C 127.444,451.12 126.291,451.186 125.83,451.318 C 125.369,451.45 124.965,451.727 124.619,452.149 C 124.273,452.571 124.1,453.134 124.1,453.837 L 124.1,454.682 L 123.162,454.682 L 123.162,441.119 L 124.1,441.119 L 124.1,442.252 C 124.1,443.008 124.287,443.609 124.659,444.059 C 124.907,444.383 125.333,444.644 125.936,444.841 C 126.362,444.986 127.479,445.057 129.288,445.057 L 152.166,445.057 C 154.002,445.057 155.172,444.983 155.675,444.833 C 156.178,444.685 156.553,444.391 156.8,443.952 C 156.959,443.637 157.038,442.891 157.038,441.717 L 157.038,439.613 C 157.038,438.281 156.702,437.169 156.029,436.274 C 155.356,435.379 154.294,434.608 152.841,433.96 C 151.388,433.312 149.246,432.698 146.412,432.119 L 146.412,431.307 L 146.414,431.307 z"
           id="path336"
           style="fill:#1a171b" />
        <path
           d="M 123.164,407.21 L 124.102,407.21 C 124.315,408.126 125.014,408.945 126.201,409.668 C 127.086,410.196 129.167,410.981 132.442,412.02 L 159.852,420.665 L 159.852,421.294 L 131.332,429.959 C 127.877,430.998 125.848,431.694 125.245,432.047 C 124.642,432.4 124.262,433.068 124.101,434.055 L 123.163,434.055 L 123.163,421.945 L 124.101,421.945 L 124.101,422.368 C 124.101,423.46 124.297,424.209 124.69,424.614 C 124.958,424.895 125.35,425.036 125.868,425.036 C 126.189,425.036 126.568,424.983 127.006,424.878 C 127.444,424.773 128.611,424.434 130.51,423.86 L 148.346,418.482 L 132.48,413.516 C 130.538,412.909 129.238,412.534 128.58,412.393 C 127.923,412.252 127.363,412.181 126.901,412.181 C 126.368,412.181 125.897,412.283 125.488,412.485 C 125.08,412.688 124.768,412.983 124.555,413.371 C 124.253,413.899 124.102,414.603 124.102,415.484 L 123.164,415.484 L 123.164,407.21 z"
           id="path338"
           style="fill:#1a171b" />
        <path
           d="M 125.226,397.321 L 139.789,397.321 L 139.789,396.782 C 139.789,395.147 139.077,393.961 137.653,393.223 C 136.229,392.487 134.129,392.019 131.351,391.821 L 131.351,391.196 L 150.101,391.196 L 150.101,391.821 C 148.06,391.983 146.389,392.306 145.087,392.792 C 143.785,393.278 142.91,393.844 142.461,394.49 C 142.013,395.137 141.788,396.081 141.788,397.321 L 151.901,397.321 C 153.879,397.321 155.088,397.259 155.529,397.135 C 155.97,397.011 156.332,396.785 156.614,396.457 C 156.897,396.129 157.038,395.603 157.038,394.876 L 157.038,393.361 C 157.038,390.987 156.267,389.083 154.722,387.647 C 153.177,386.212 150.82,385.185 147.648,384.565 L 147.648,383.882 L 159.039,385.021 L 159.039,406.945 L 158.101,406.945 L 158.101,406.1 C 158.101,405.362 157.915,404.772 157.542,404.332 C 157.294,403.998 156.868,403.742 156.265,403.566 C 155.84,403.443 154.723,403.381 152.913,403.381 L 129.288,403.381 C 127.657,403.381 126.655,403.407 126.282,403.46 C 125.661,403.583 125.182,403.813 124.845,404.147 C 124.349,404.622 124.1,405.273 124.1,406.099 L 124.1,406.944 L 123.162,406.944 L 123.162,385.694 L 133.662,385.694 L 133.662,386.319 C 131.102,386.675 129.266,387.188 128.15,387.856 C 127.036,388.524 126.217,389.456 125.694,390.649 C 125.381,391.362 125.224,392.69 125.224,394.631 L 125.224,397.321 L 125.226,397.321 z"
           id="path340"
           style="fill:#1a171b" />
        <path
           d="M 125.164,370.952 C 125.164,368.944 125.813,367.492 127.111,366.594 C 128.409,365.696 130.417,365.246 133.134,365.246 C 135.011,365.246 136.531,365.493 137.697,365.986 C 138.863,366.479 139.67,367.153 140.117,368.007 C 140.564,368.861 140.788,370.152 140.788,371.877 L 140.788,372.934 L 125.163,372.934 L 125.163,370.952 L 125.164,370.952 z M 142.664,371.296 L 159.039,363.134 L 159.039,355.184 L 158.039,355.184 C 157.986,355.856 157.688,356.448 157.143,356.959 C 156.757,357.295 155.784,357.86 154.221,358.655 L 142.042,364.725 C 141.497,363.174 140.678,361.976 139.586,361.129 C 137.861,359.79 135.679,359.12 133.038,359.12 C 130.873,359.12 128.985,359.566 127.375,360.457 C 125.765,361.348 124.66,362.503 124.062,363.923 C 123.464,365.343 123.164,367.588 123.164,370.657 L 123.164,382.432 L 124.102,382.432 C 124.102,381.254 124.252,380.451 124.551,380.022 C 124.851,379.593 125.252,379.294 125.754,379.125 C 126.256,378.956 127.477,378.87 129.414,378.87 L 152.789,378.87 C 154.727,378.87 155.943,378.955 156.436,379.125 C 156.93,379.295 157.331,379.589 157.639,380.009 C 157.947,380.429 158.101,381.237 158.101,382.433 L 159.039,382.433 L 159.039,369.37 L 158.101,369.37 C 158.101,370.54 157.952,371.341 157.652,371.772 C 157.353,372.204 156.952,372.505 156.45,372.676 C 155.948,372.847 154.727,372.932 152.789,372.932 L 142.664,372.932 L 142.664,371.296 z"
           id="path342"
           style="fill:#1a171b" />
        <path
           d="M 146.914,348.8 L 134.642,344.898 L 146.914,341.119 L 146.914,348.8 z M 153.309,339.147 C 154.481,338.794 155.146,338.609 155.306,338.591 C 155.644,338.521 155.972,338.486 156.29,338.486 C 156.823,338.486 157.231,338.619 157.515,338.882 C 157.906,339.288 158.101,339.984 158.101,340.97 L 158.101,341.472 L 159.039,341.472 L 159.039,329.21 L 158.101,329.21 C 158.013,329.985 157.694,330.585 157.145,331.007 C 156.419,331.571 154.658,332.284 151.86,333.148 L 122.476,342.303 L 122.476,342.648 L 151.068,351.74 C 153.81,352.586 155.62,353.304 156.496,353.894 C 157.372,354.484 157.907,355.228 158.101,356.126 L 159.039,356.126 L 159.039,347.723 L 158.101,347.723 C 157.959,349.044 157.747,349.872 157.463,350.206 C 156.984,350.77 156.24,351.052 155.23,351.052 C 154.468,351.052 153.502,350.876 152.333,350.524 L 148.852,349.418 L 148.852,340.522 L 153.309,339.147 z"
           id="path344"
           style="fill:#1a171b" />
        <path
           d="M 146.914,291.788 L 134.642,287.886 L 146.914,284.107 L 146.914,291.788 z M 153.309,282.135 C 154.481,281.782 155.146,281.597 155.306,281.579 C 155.644,281.509 155.972,281.474 156.29,281.474 C 156.823,281.474 157.231,281.607 157.515,281.87 C 157.906,282.276 158.101,282.972 158.101,283.958 L 158.101,284.46 L 159.039,284.46 L 159.039,272.197 L 158.101,272.197 C 158.013,272.972 157.694,273.572 157.145,273.994 C 156.419,274.558 154.658,275.271 151.86,276.135 L 122.476,285.29 L 122.476,285.635 L 151.068,294.727 C 153.81,295.573 155.62,296.291 156.496,296.881 C 157.372,297.471 157.907,298.215 158.101,299.113 L 159.039,299.113 L 159.039,290.71 L 158.101,290.71 C 157.959,292.031 157.747,292.859 157.463,293.193 C 156.984,293.757 156.24,294.039 155.23,294.039 C 154.468,294.039 153.502,293.863 152.333,293.511 L 148.852,292.405 L 148.852,283.509 L 153.309,282.135 z"
           id="path346"
           style="fill:#1a171b" />
        <path
           d="M 134.924,214.046 C 137.592,214.683 141.318,216.593 146.102,219.776 C 150.96,223.008 154.176,226.065 155.753,228.946 C 156.857,230.946 156.89,232.725 155.851,234.287 C 154.811,235.85 153.143,236.498 150.843,236.231 C 147.532,235.862 143.323,233.978 138.216,230.58 C 133.961,227.749 130.962,225.144 129.221,222.764 C 127.146,219.931 126.726,217.586 127.96,215.732 C 129.241,213.805 131.563,213.243 134.924,214.046 z M 157.766,222.992 C 155.999,219.441 153.178,216.376 149.303,213.798 C 144.855,210.839 140.451,209.422 136.09,209.545 C 131.73,209.67 128.471,211.351 126.317,214.59 C 124.151,217.845 123.846,221.513 125.4,225.592 C 126.953,229.671 129.962,233.196 134.424,236.164 C 138.27,238.723 142.1,240.145 145.913,240.429 C 149.726,240.714 152.859,239.841 155.309,237.812 C 158.392,238.762 161.103,238.921 163.446,238.29 C 165.787,237.657 167.602,236.373 168.89,234.436 C 169.709,233.205 170.376,231.638 170.891,229.736 L 169.538,228.836 C 169.303,229.339 169.044,229.804 168.761,230.23 C 167.752,231.747 166.425,232.684 164.78,233.044 C 163.134,233.403 161.186,233.175 158.938,232.358 C 159.923,229.666 159.533,226.543 157.766,222.992 z"
           id="path348"
           style="fill:#1a171b" />
        <path
           d="M 147.602,463.75 C 147.219,464.115 140.715,465.787 132.556,466.096 C 133.819,465.352 137.206,463.446 137.636,461.63 C 138.066,459.814 136.988,457.847 136.988,457.847 C 136.988,457.847 140.65,463.335 147.494,462.568 C 148.13,462.943 147.983,463.385 147.602,463.75 z"
           id="path352"
           style="fill:#1a171b" />
      </g>
      <g
         id="g3769">
        <path
           style="fill:#552200;fill-opacity:1"
           id="path122"
           d="M 363.085,553.905 C 365.409,554.042 367.385,552.887 366.785,550.372 C 369.312,550.246 371.63,550.202 374.02,550.935 C 376.555,551.712 377.319,553.376 379.462,554.327 C 381.265,560.123 362.653,559.152 362.036,553.961 C 362.394,553.869 362.74,553.986 363.085,553.905" />
        <path
           style="fill:#552200;fill-opacity:1"
           id="path185"
           d="M 343.366,580.105 C 345.768,580.31 347.899,579.593 350.247,579.3 C 351.607,579.131 354.356,579.577 355.523,579.037 C 357.837,577.966 356.477,575.064 359.139,574.336 C 361.648,573.649 363.456,577.108 366.379,577.24 C 369.238,577.369 373.29,575.953 376.458,575.799 C 384.347,575.415 392.643,578.317 400.329,576.454 C 405.42,575.222 408.353,568.465 414.158,571.205 C 411.936,574.269 408.517,576.172 406.922,579.753 C 407.651,579.824 408.503,580.304 409.367,580.176 C 405.971,582.298 395.352,581.163 390.843,580.822 C 385.113,580.389 379.542,579.764 373.666,580.542 C 370.118,581.012 343.93,583.828 343.73,579.387" />
      </g>
      <g
         id="g3773">
        <circle
           style="fill:#1a171b"
           sodipodi:ry="4.1100001"
           sodipodi:rx="4.1100001"
           sodipodi:cy="612.19098"
           sodipodi:cx="311.28799"
           cx="311.28799"
           cy="612.19098"
           r="4.1100001"
           id="circle252" />
        <circle
           style="fill:#1a171b"
           sodipodi:ry="4.1100001"
           sodipodi:rx="4.1100001"
           sodipodi:cy="612.19098"
           sodipodi:cx="235.94501"
           cx="235.94501"
           cy="612.19098"
           r="4.1100001"
           id="circle254" />
        <path
           style="fill:#1a171b"
           d="M 401.462,606.992 L 397.56,619.264 L 393.781,606.992 L 401.462,606.992 z M 391.81,600.597 C 391.457,599.425 391.272,598.76 391.254,598.6 C 391.184,598.262 391.149,597.934 391.149,597.616 C 391.149,597.083 391.282,596.675 391.545,596.391 C 391.951,596 392.647,595.805 393.633,595.805 L 394.135,595.805 L 394.135,594.867 L 381.872,594.867 L 381.872,595.805 C 382.647,595.893 383.247,596.212 383.669,596.761 C 384.233,597.487 384.946,599.248 385.81,602.046 L 394.965,631.43 L 395.31,631.43 L 404.402,602.838 C 405.248,600.096 405.966,598.286 406.556,597.41 C 407.146,596.534 407.89,595.999 408.788,595.805 L 408.788,594.867 L 400.385,594.867 L 400.385,595.805 C 401.706,595.947 402.534,596.159 402.868,596.443 C 403.432,596.922 403.714,597.666 403.714,598.676 C 403.714,599.438 403.538,600.404 403.186,601.573 L 402.08,605.054 L 393.184,605.054 L 391.81,600.597 z"
           id="path308" />
        <path
           style="fill:#1a171b"
           d="M 372.839,630.742 L 360.4,608.593 L 360.4,623.93 C 360.4,626.092 360.619,627.554 361.056,628.317 C 361.652,629.344 362.642,629.84 364.025,629.805 L 364.025,630.743 L 355.712,630.743 L 355.712,629.805 C 356.781,629.61 357.5,629.358 357.868,629.047 C 358.236,628.736 358.521,628.232 358.722,627.531 C 358.923,626.83 359.024,625.631 359.024,623.929 L 359.024,594.054 L 359.659,594.054 L 376.712,624.072 L 376.712,601.117 C 376.712,599.035 376.378,597.629 375.708,596.899 C 375.038,596.169 374.266,595.804 373.391,595.804 L 372.775,595.804 L 372.775,594.866 L 381.838,594.866 L 381.838,595.804 C 380.438,595.822 379.463,596.231 378.913,597.032 C 378.363,597.833 378.088,599.195 378.088,601.117 L 378.088,626.491 L 378.6,627.391 C 379.147,628.356 379.622,628.991 380.027,629.294 C 380.432,629.598 381.022,629.768 381.798,629.804 L 381.798,630.742 L 372.839,630.742 L 372.839,630.742 z"
           id="path310" />
        <path
           style="fill:#1a171b"
           d="M 348.122,629.31 C 347.809,628.646 347.651,627.102 347.651,624.678 C 347.651,621.688 347.738,619.679 347.912,618.654 C 348,618.052 348.179,617.583 348.448,617.247 C 348.717,616.911 349.036,616.743 349.401,616.743 C 349.907,616.743 350.325,617.088 350.655,617.778 C 350.986,618.467 351.151,619.919 351.151,622.131 C 351.151,625.227 351.064,627.306 350.89,628.368 C 350.803,629.022 350.62,629.51 350.341,629.828 C 350.063,630.146 349.732,630.306 349.349,630.306 C 348.845,630.305 348.436,629.973 348.122,629.31 z M 353.208,629.206 C 354.212,627.724 354.714,625.817 354.714,623.488 C 354.714,621.193 354.217,619.318 353.221,617.863 C 352.226,616.407 350.944,615.679 349.375,615.679 C 347.824,615.679 346.556,616.402 345.569,617.849 C 344.582,619.296 344.089,621.203 344.089,623.568 C 344.089,625.897 344.592,627.79 345.596,629.246 C 346.6,630.701 347.877,631.43 349.428,631.43 C 350.943,631.43 352.204,630.688 353.208,629.206 z"
           id="path312" />
        <path
           style="fill:#1a171b"
           d="M 326.016,631.555 L 325.828,619.617 L 326.578,619.617 C 326.949,622.604 327.84,625.008 329.25,626.826 C 330.661,628.644 332.187,629.555 333.826,629.555 C 335.097,629.555 336.102,629.076 336.843,628.117 C 337.584,627.158 337.953,626.054 337.953,624.804 C 337.953,624.012 337.83,623.308 337.584,622.693 C 337.216,621.866 336.637,621.047 335.847,620.239 C 335.268,619.658 333.925,618.629 331.818,617.15 C 328.869,615.091 326.869,613.145 325.817,611.313 C 324.784,609.481 324.266,607.384 324.266,605.023 C 324.266,602.028 325.092,599.451 326.745,597.293 C 328.398,595.135 330.496,594.056 333.041,594.056 C 333.854,594.056 334.614,594.172 335.321,594.403 C 336.028,594.634 336.92,595.07 337.998,595.711 C 338.6,596.066 339.095,596.244 339.483,596.244 C 339.801,596.244 340.141,596.063 340.504,595.704 C 340.866,595.344 341.162,594.795 341.392,594.057 L 342.017,594.057 L 342.017,607.557 L 341.392,607.557 C 340.828,603.778 339.765,600.896 338.203,598.911 C 336.641,596.925 334.961,595.932 333.16,595.932 C 331.765,595.932 330.654,596.468 329.824,597.541 C 328.995,598.614 328.58,599.863 328.58,601.289 C 328.58,602.134 328.738,602.952 329.055,603.744 C 329.371,604.535 329.849,605.287 330.49,606 C 331.131,606.713 332.276,607.641 333.927,608.785 C 336.21,610.386 337.853,611.75 338.856,612.877 C 339.859,614.004 340.627,615.264 341.159,616.655 C 341.691,618.046 341.957,619.579 341.957,621.253 C 341.957,624.107 341.219,626.537 339.742,628.545 C 338.265,630.553 336.401,631.557 334.15,631.557 C 333.341,631.557 332.55,631.417 331.777,631.138 C 331.197,630.928 330.485,630.539 329.641,629.971 C 328.797,629.403 328.207,629.119 327.873,629.119 C 327.557,629.119 327.307,629.259 327.122,629.538 C 326.937,629.817 326.757,630.49 326.581,631.557 L 326.016,631.557 L 326.016,631.555 z"
           id="path314" />
        <path
           style="fill:#1a171b"
           d="M 273.524,607.492 L 274.462,594.867 L 296.9,594.867 L 296.9,595.805 L 296.055,595.805 C 295.317,595.805 294.727,595.991 294.287,596.364 C 293.953,596.612 293.706,597.038 293.548,597.641 C 293.407,598.066 293.337,599.183 293.337,600.993 L 293.337,624.618 C 293.337,626.462 293.403,627.615 293.535,628.076 C 293.667,628.537 293.944,628.941 294.366,629.287 C 294.788,629.633 295.351,629.806 296.054,629.806 L 296.899,629.806 L 296.899,630.744 L 283.336,630.744 L 283.336,629.806 L 284.469,629.806 C 285.225,629.806 285.826,629.619 286.276,629.247 C 286.6,628.999 286.861,628.573 287.058,627.97 C 287.203,627.544 287.274,626.427 287.274,624.618 L 287.274,601.74 C 287.274,599.904 287.2,598.734 287.05,598.231 C 286.902,597.728 286.608,597.353 286.169,597.106 C 285.854,596.947 285.108,596.868 283.934,596.868 L 281.83,596.868 C 280.498,596.868 279.386,597.204 278.491,597.877 C 277.596,598.55 276.825,599.612 276.177,601.065 C 275.529,602.518 274.915,604.66 274.336,607.494 L 273.524,607.494 L 273.524,607.492 z"
           id="path316" />
        <path
           style="fill:#1a171b"
           d="M 265.436,606.992 L 261.534,619.264 L 257.755,606.992 L 265.436,606.992 z M 255.783,600.597 C 255.43,599.425 255.245,598.76 255.227,598.6 C 255.157,598.262 255.122,597.934 255.122,597.616 C 255.122,597.083 255.255,596.675 255.518,596.391 C 255.924,596 256.62,595.805 257.606,595.805 L 258.108,595.805 L 258.108,594.867 L 245.845,594.867 L 245.845,595.805 C 246.62,595.893 247.22,596.212 247.642,596.761 C 248.206,597.487 248.919,599.248 249.783,602.046 L 258.938,631.43 L 259.283,631.43 L 268.375,602.838 C 269.221,600.096 269.939,598.286 270.529,597.41 C 271.119,596.534 271.863,595.999 272.761,595.805 L 272.761,594.867 L 264.358,594.867 L 264.358,595.805 C 265.679,595.947 266.507,596.159 266.841,596.443 C 267.405,596.922 267.687,597.666 267.687,598.676 C 267.687,599.438 267.511,600.404 267.159,601.573 L 266.053,605.054 L 257.157,605.054 L 255.783,600.597 z"
           id="path318" />
        <path
           style="fill:#1a171b"
           d="M 199.156,630.742 L 199.156,621.054 L 199.781,621.054 C 200.175,623.287 200.617,624.892 201.109,625.868 C 201.601,626.844 202.276,627.623 203.134,628.204 C 203.616,628.52 204.457,628.679 205.655,628.679 L 207.53,628.679 L 207.53,600.991 C 207.53,599.146 207.457,597.993 207.309,597.532 C 207.161,597.071 206.884,596.668 206.477,596.322 C 206.07,595.976 205.51,595.803 204.799,595.803 L 203.967,595.803 L 203.967,594.865 L 217.155,594.865 L 217.155,595.803 L 216.317,595.803 C 215.584,595.803 214.999,595.989 214.561,596.362 C 214.23,596.61 213.977,597.036 213.802,597.639 C 213.662,598.064 213.592,599.181 213.592,600.991 L 213.592,628.679 L 215.467,628.679 C 217.21,628.679 218.477,628.168 219.267,627.149 C 220.363,625.724 221.055,623.693 221.342,621.054 L 221.967,621.054 L 221.967,630.742 L 199.156,630.742 z"
           id="path320" />
        <path
           style="fill:#1a171b"
           d="M 184.824,595.805 L 184.824,594.867 L 198.012,594.867 L 198.012,595.805 L 197.167,595.805 C 196.429,595.805 195.839,595.991 195.399,596.364 C 195.065,596.612 194.809,597.038 194.633,597.641 C 194.51,598.066 194.448,599.183 194.448,600.993 L 194.448,624.618 C 194.448,626.462 194.514,627.615 194.646,628.076 C 194.778,628.537 195.055,628.941 195.477,629.287 C 195.899,629.633 196.462,629.806 197.165,629.806 L 198.01,629.806 L 198.01,630.744 L 184.822,630.744 L 184.822,629.806 L 185.66,629.806 C 186.377,629.806 186.962,629.619 187.416,629.247 C 187.73,628.999 187.983,628.573 188.175,627.97 C 188.316,627.544 188.385,626.427 188.385,624.618 L 188.385,600.993 C 188.385,599.148 188.311,597.995 188.162,597.534 C 188.013,597.073 187.734,596.67 187.324,596.324 C 186.914,595.978 186.359,595.805 185.66,595.805 L 184.824,595.805 z"
           id="path322" />
        <path
           style="fill:#1a171b"
           d="M 349.335,606.338 C 348.906,606.649 346.088,612.743 344.311,620.713 C 345.271,619.606 347.758,616.617 349.621,616.523 C 351.484,616.428 353.225,617.844 353.225,617.844 C 353.225,617.844 348.488,613.251 350.479,606.658 C 350.224,605.964 349.763,606.028 349.335,606.338 z"
           id="path354" />
      </g>
    </g>
  </g>
</svg>
