<?xml version="1.0" encoding="UTF-8"?>
<!-- Generator: Adobe Illustrator 26.3.1, SVG Export Plug-In . SVG Version: 6.00 Build 0)  -->
<svg width="1400" height="800" version="1.1" viewBox="0 0 1400 800" xml:space="preserve" xmlns="http://www.w3.org/2000/svg">
<style type="text/css">
	.Arched_x0020_Green{fill:url(#SVGID_1_);stroke:#FFFFFF;stroke-width:0.25;stroke-miterlimit:1;}
	.st0{fill:#FFFFFF;}
	.st1{fill:#3D3A39;}
	.st2{fill:#403D3C;}
	.st3{fill:#BAB7B6;}
	.st4{fill:#A4A0A0;}
	.st5{fill:#4F4B4A;}
	.st6{fill:#B8B5B5;}
	.st7{fill:#9F9B9B;}
	.st8{fill:#D0CECD;}
	.st9{fill:#726D6C;}
	.st10{fill:#4D4948;}
	.st11{fill:#D0CDCD;}
	.st12{fill:#5F5E5E;}
	.st13{fill:#938F8E;}
	.st14{fill:#6A6664;}
	.st15{fill:#969191;}
	.st16{fill:#6F6B6A;}
	.st17{fill:#C8C8C9;}
	.st18{fill:#9F9D9D;}
	.st19{fill:#DC5B2A;}
	.st20{fill:#FBB430;}
	.st21{fill:#1E6CB5;}
	.st22{fill:#DC5C2A;}
	.st23{fill:#FCB530;}
	.st24{fill:#DFE0E2;}
	.st25{fill:#BEBAB9;}
	.st26{fill:#FDFEFF;}
	.st27{fill:#B6B5B5;}
	.st28{fill:#989392;}
	.st29{fill:#CDD1D3;}
	.st30{fill:#595453;}
	.st31{fill:#D0CFD0;}
	.st32{fill:#989EA1;}
	.st33{fill:#E0EBF0;}
	.st34{fill:#9EA8AD;}
	.st35{fill:#CDDAE1;}
	.st36{fill:#C2C8CB;}
	.st37{fill:#5C5C5C;}
	.st38{fill:#C5C5C6;}
	.st39{fill:#C0BDBC;}
	.st40{fill:#B4B0B0;}
	.st41{fill:#898888;}
	.st42{fill:#9E9D9D;}
	.st43{fill:#99A1A4;}
	.st44{fill:#83888A;}
	.st45{fill:#67696B;}
	.st46{fill:#4D4D4D;}
	.st47{fill:#666A6B;}
	.st48{fill:#D1CBC9;}
	.st49{fill:#3F3D3B;}
	.st50{fill:#8C8988;}
	.st51{fill:#757271;}
	.st52{fill:#5F5C5B;}
	.st53{fill:#E9E8E7;}
	.st54{fill:#DBDDDE;}
	.st55{fill:#C5CACE;}
	.st56{fill:#A6AFB3;}
	.st57{fill:#818A8E;}
	.st58{fill:#ADA9A9;}
	.st59{fill:#909192;}
	.st60{fill:#6F7072;}
	.st61{fill:#4D4F4F;}
	.st62{fill:#CED8DE;}
	.st63{fill:#B0B4B6;}
	.st64{fill:#878484;}
	.st65{fill:#168D4E;}
	.st66{fill:#9DA2AA;}
	.st67{fill:#DCA131;}
	.st68{fill:#5F5029;}
	.st69{fill:#AB8333;}
</style>
<linearGradient id="SVGID_1_" x1="880.92" x2="881.63" y1="969.59" y2="968.89" gradientUnits="userSpaceOnUse">
	<stop stop-color="#20AC4B" offset="0"/>
	<stop stop-color="#19361A" offset=".9831"/>
</linearGradient>
<rect class="st0" width="1400" height="800" stroke-width=".72921"/>
<g transform="matrix(.74655 0 0 .74854 8.1374 -10.315)">
	<path d="m1060.7 469.3v235.6c-0.2 0.3-0.1 0.6-0.1 0.8v1.1c0 7.3-4.3 15.7-13.3 19.1-3.3 1.3-6.7 2.1-10.3 2.2-0.5 0-1 0.2-1.5 0.1h-2.6c-0.5 0.1-1-0.1-1.5 0.1h-208.4c-0.3-0.2-0.6-0.1-0.9-0.1h-2.2c-4.5-0.1-8.9-1.1-13.1-2.8-6.8-2.9-11.1-8-13-15-0.4-1.3-0.7-2.6-0.7-3.9 0-0.5 0.1-1-0.1-1.5v-0.5c0-0.3 0.1-0.6-0.2-0.8v-234.4c0.6-0.6 1.4-0.4 2.1-0.4h25.8c2.4 0 2.5 0 2.5-2.6 0.1-4.2 0.7-8.4 1.3-12.5 0.3-1.7 0.7-3.5 1-5.2 0.3-1.5 0.7-1.8 2.3-1.5 4.9 1 9.8 1.9 14.5 3.3 0.5 0.1 0.8 0.3 1.2 0.3 0.4 0.1 0.7 0.2 1.1 0.2 0.2 0.2 0.6 0.2 0.8 0.4-0.3-0.2-0.6-0.2-0.8-0.4-0.3 0-0.7-0.1-1-0.2-0.3 0-0.6-0.1-0.9-0.2-5-1.5-9.9-3.2-14.9-5-1.1-0.4-1.4-0.9-1-2 2.3-8.1 5.6-15.8 9.6-23.3 0.6-1.1 0.9-1.2 2.1-0.6 2.8 1.4 5.5 2.9 8.2 4.3 2 1.1 4.1 2.1 6 3.4 0.3 0.2 0.6 0.4 1 0.6 0.2 0.1 0.3 0.2 0.5 0.3s0.2 0.2 0.4 0.2c0.1 0.1 0.3 0.2 0.4 0.3s0.2 0.2 0.4 0.2h0.1-0.1c-0.2 0-0.2-0.1-0.4-0.2-0.1-0.1-0.3-0.2-0.4-0.3-0.1 0-0.2-0.1-0.3-0.1-0.2-0.1-0.4-0.3-0.7-0.4-0.3-0.2-0.6-0.3-0.9-0.5-4.6-2.9-8.9-6.2-13.3-9.4-0.9-0.6-0.9-1.2-0.5-2 3-4.5 6.2-8.9 9.8-13 1.9-2.2 4-4.3 6.1-6.5 1-1.2 1.6-1.2 2.7-0.1 3.4 3.4 6.9 6.7 10.1 10.2 0.6 0.5 1 1.1 1.6 1.7 0.1 0.1 0.2 0.3 0.3 0.4l0.6 0.6c0.1 0.1 0.1 0.2 0.3 0.3 0 0 0 0.1 0.1 0.2l0.1 0.1-0.3-0.3c-0.1-0.1-0.2-0.2-0.2-0.3l-0.6-0.6c-0.1-0.1-0.1-0.2-0.2-0.3-0.6-0.6-1.1-1.3-1.7-1.9-3-3.8-6-7.7-8.9-11.5-0.9-1.2-0.8-1.4 0.2-2.3 6.3-5.2 12.9-9.8 20.1-13.6 0.3-0.2 0.7-0.4 1-0.5 1.1-0.5 1.5-0.4 2.1 0.7 2.6 4.9 5.5 9.7 7.9 14.7 0.1 0.2 0.2 0.4 0.2 0.6 0.1 0.3 0.2 0.6 0.4 0.8 0.1 0.2 0.1 0.4 0.2 0.5v0.1l0.1-0.1c-0.1 0-0.2-0.1-0.2-0.2 0-0.2-0.1-0.4-0.2-0.6s-0.2-0.4-0.2-0.6c-0.1-0.3-0.3-0.5-0.4-0.8-2.4-5.1-4.2-10.5-6.2-15.6-0.4-1 0-1.5 0.8-1.8 6.5-2.7 13.1-5 20-6.5 1.3-0.3 2.6-0.5 3.9-0.8 1.8-0.4 2.1-0.2 2.5 1.6 0.9 4.5 2 9 2.7 13.6 0 0.3 0.2 0.5 0.2 0.8 0 0.4 0.1 0.9 0.1 1.3 0.1 0.2 0.1 0.3 0.1 0.5 0 0.4 0.2 0.7 0.2 1-0.1-0.5-0.2-1.1-0.3-1.7-0.2-0.7-0.1-1.5-0.4-2.2-0.5-4.7-0.9-9.3-1.2-14-0.1-1.5 0.1-1.7 1.6-1.8 1.7-0.1 3.5-0.2 5.2-0.2h2.7c0.6-0.1 1.2 0.1 1.8-0.1h6c0.3 0.2 0.7 0.1 1 0.1h2.4c2.1 0 4.2 0.2 6.3 0.2 0.9 0.1 1.3 0.5 1.4 1.4 0.1 1.5-0.1 3.1-0.3 4.6-0.4 3.9-0.6 7.9-1.2 11.9-0.4 0.7-0.2 1.5-0.4 2.2-0.1 0.4-0.2 0.9-0.2 1.3-0.1 0.2 0.1 0.1 0.1 0-0.2-0.3 0-0.6 0.1-0.9 0-0.6 0.2-1.1 0.2-1.7 0.8-5.4 2.2-10.8 3.2-16.1 0.4-2.1 0.6-2.1 2.7-1.7 8 1.6 15.6 4 23 7.2 1.8 0.8 2 1 1.3 2.8-2 4.7-3.6 9.6-5.8 14.3-0.2 0.4-0.4 0.9-0.6 1.3-0.1 0.2-0.3 0.4-0.3 0.6l-0.3 0.3 0.1 0.1c0-0.1 0-0.2 0.1-0.2 0.1-0.3 0.3-0.5 0.4-0.7 0.2-0.4 0.3-0.7 0.5-1.1 2.3-4.7 5-9.3 7.5-14 0.7-1.3 1-1.4 2.4-0.7 6.4 3.4 12.4 7.3 18 12 1 0.8 2 1.6 2.9 2.4 0.6 0.5 0.8 1.1 0.3 1.8-3.3 4.3-6.5 8.6-10.1 12.7-0.3 0.4-0.7 0.8-1.1 1.3-0.1 0.1-0.1 0.2-0.3 0.3l-0.3 0.3c0 0.1-0.1 0.2-0.2 0.2v0.1-0.1c0.1 0 0.2-0.1 0.2-0.2l0.6-0.6c0.4-0.4 0.8-0.8 1.1-1.3 3.5-3.8 7.3-7.3 10.9-11 1.3-1.3 1.5-1.3 2.8 0 5.8 5.9 10.9 12.3 15.4 19.3 0.5 0.8 0.5 1.5-0.4 2.1-4.1 2.9-8 5.9-12.2 8.6-0.5 0.3-0.9 0.6-1.4 0.8-0.2 0.1-0.2 0.1-0.3 0.1-0.2 0.1-0.3 0.2-0.5 0.3 0 0-0.1 0.1-0.2 0.1v0.1-0.1c0.1 0 0.2-0.1 0.3-0.1 0.2-0.1 0.2-0.2 0.3-0.2 0.2-0.1 0.3-0.2 0.4-0.3 0.5-0.3 0.9-0.6 1.4-0.8 4.2-2.6 8.6-4.7 12.9-7.1 1-0.5 1.4-0.4 2 0.6 3.4 6.5 6.4 13.2 8.5 20.3 0.3 1.1 0.7 2.2 1 3.3 0.2 0.8 0 1.3-0.7 1.5-4.8 1.5-9.5 3.5-14.4 4.7-0.3 0.1-0.6 0.3-0.8 0.3-0.3 0.2-0.7 0.2-1.1 0.4-0.1 0-0.2 0.1-0.2 0.1-0.1 0-0.3 0.2-0.4-0.1 0.1 0.2 0.3 0.1 0.4 0 0.2 0 0.2-0.1 0.3-0.1 0.4 0 0.7-0.1 1-0.3 0.4 0 0.7-0.2 1.1-0.3 4.4-1.3 8.8-2.1 13.3-3 1.9-0.4 2.4-0.1 2.7 1.8 1.1 5.5 1.9 11.1 2.1 16.7 0.2 3.5 0.1 2.9 3 2.9h26.6c1.2 0.3 1.9 0.2 2.6 0.8z"/>
	<path class="st1" d="m923.8 368.1c-0.6 0.4-1.2 0.2-1.8 0.2-0.1-0.1-0.1-0.1 0-0.1v-0.1h1.8z"/>
	<path class="st2" d="m1031.5 728.4c0.4-0.4 1-0.2 1.5-0.2v0.2s0 0.1-0.1 0.1c-0.4-0.1-1-0.1-1.4-0.1z"/>
	<path class="st3" d="m919.5 368.3c0-0.1 0-0.1 0.1-0.2h1l0.1 0.1v0.1c-0.5 0-0.9 0.1-1.2 0z"/>
	<path class="st4" d="m1033.8 728.2h1c0.1 0.1 0.1 0.1 0.1 0.2l-0.1 0.1h-1c-0.2-0.1-0.2-0.1-0.2-0.2 0.1-0.1 0.2-0.1 0.2-0.1z"/>
	<path class="st5" d="m930.8 368.3c-0.4 0-0.7 0.1-1-0.2h1s0.1 0 0 0.2z"/>
	<path class="st6" d="m933 368.1v0.2c-0.3 0.1-0.6 0-1 0-0.1 0-0.1-0.1-0.1-0.1 0-0.1 0.1-0.1 0.1-0.1h1z"/>
	<path class="st7" d="m820.7 728.2h1c0.1 0 0.2 0.1 0.1 0.1 0 0.1 0 0.1-0.1 0.1h-1s-0.1-0.1 0-0.2z"/>
	<path class="st8" d="m1034.7 728.4v-0.2h0.7v0.2h-0.7z"/>
	<path class="st9" d="m1033.8 728.2v0.2h-0.8v-0.2h0.8z"/>
	<path class="st10" d="m822.3 728.2c0.3 0 0.6-0.1 0.8 0.2h-0.8c-0.1 0-0.1-0.1 0-0.2-0.1 0 0 0 0 0z"/>
	<path class="st11" d="m820.7 728.2v0.2h-0.7v-0.2h0.7z"/>
	<path class="st12" d="m1060.4 705.7c0-0.3-0.1-0.6 0.2-0.8v0.8c0.1 0.1 0 0.1-0.2 0z"/>
	<path d="m793.1 703.7c0.3 0.2 0.3 0.4 0.2 0.8-0.1 0.1-0.1 0.1-0.2 0v-0.8z"/>
	<path class="st13" d="m932 368.1v0.2h-0.7c-0.1 0-0.1-0.1-0.1-0.1l0.1-0.1h0.7z"/>
	<path class="st14" d="m922 368.1v0.2h-0.8s-0.1-0.1 0-0.1c0-0.1 0-0.1 0.1-0.1h0.7z"/>
	<path class="st15" d="m921.3 368.1c0 0.1 0 0.1-0.1 0.2h-0.7v-0.2h0.8z"/>
	<path class="st16" d="m931.3 368.1v0.2h-0.5c-0.1-0.1-0.1-0.1-0.1-0.2h0.6z"/>
	<path class="st16" d="m822.3 728.2v0.2h-0.5v-0.2h0.5z"/>
	<path class="st17" d="m1060.7 706.6h-0.2v-0.5c0.1-0.2 0.1-0.2 0.2-0.1v0.6z"/>
	<path class="st18" d="m1060.7 706.1c0 0.1-0.1 0.1-0.2 0.1v-0.5h0.2v0.4z"/>
	<path d="m793.2 704.6h0.2v0.5c0.4 0.1 0.2 2.2 0.1 2.2-0.2-0.2-0.3-2.5-0.3-2.7z"/>
	<path class="st19" d="m926.8 470.1h-37.4c-1.6 0-1.5 0-1.5-1.6 0.4-7.5 2.6-14.3 6.9-20.4 6.1-8.7 14.5-14.2 25-16.1 13.1-2.3 24.6 1.3 34.1 10.6 6.3 6.1 9.9 13.6 11.2 22.2 0.2 1.5 0.4 3 0.3 4.5 0 0.6-0.2 0.9-0.8 0.9-0.3-0.1-0.7 0-1 0-12.1-0.1-24.5-0.1-36.8-0.1z"/>
	<path class="st20" d="m927.2 601.5h126.9c1.9 0 1.6-0.3 1.6 1.6v97.8c0 2.8-0.3 5.5-0.9 8.2-1.5 6.8-5.8 10.9-12.5 12.6-4.2 1-8.6 1.3-12.9 1.3h-202.9c-3.9 0-7.8-0.2-11.7-1-3.3-0.7-6.4-1.8-9.1-3.8-3.7-2.7-5.7-6.4-6.6-10.8-0.4-2-0.5-3.9-0.5-5.9v-99c0-0.9 0-0.9 1-0.9h1c42.1-0.1 84.3-0.1 126.6-0.1z"/>
	<path class="st21" d="m992.4 596h-61.3c-1.8 0-1.7 0.2-1.7-1.5v-118.3c0-1.7-0.2-1.5 1.6-1.5h123.4c0.9 0 0.9 0 1 1v118.7c0 1.9 0.2 1.7-1.8 1.7-20.3-0.1-40.8-0.1-61.2-0.1z"/>
	<path class="st22" d="m861.4 474.7h61.9c0.9 0.1 0.9 0.1 0.9 1v118.5c0 1.9 0.3 1.7-1.7 1.7h-122.2c-2.1 0-1.8 0.3-1.8-1.8v-117.7c0-2.1-0.3-1.8 1.8-1.8 20.3 0.1 40.7 0.1 61.1 0.1z"/>
	<path class="st23" d="m909.6 430c-1.1-2.8-2.2-5.5-3.2-8.2-5.3-13.6-10.6-27.2-16-40.9-0.1-0.1-0.1-0.2-0.1-0.3-0.4-1-0.4-1 0.6-1.3 2.7-1.1 5.7-2.1 8.6-2.9 2.1-0.6 4.3-1.2 6.5-1.6 0.9-0.2 0.9-0.2 1.1 0.7 1.1 5.1 2.1 10.2 3.2 15.2 2.4 11.8 4.9 23.5 7.4 35.3 0.1 0.3 0 0.5 0.1 0.8 0.2 0.5-0.1 0.7-0.5 0.8-2.6 0.4-5.1 1.3-7.7 2.4z"/>
	<path class="st23" d="m889.6 447.2c-14.7-10.5-29.3-20.9-44-31.4 1.2-2.6 8.5-11.6 11.2-13.8 0.2 0.3 0.5 0.8 0.8 1.1 12.1 12.2 24.3 24.3 36.4 36.5l0.5 0.5c0.5 0.3 0.4 0.6 0.1 1-1.8 1.9-3.2 3.9-4.7 6 0 0-0.1 0-0.3 0.1z"/>
	<path class="st23" d="m898.4 437.2c-11.1-14.3-22.2-28.5-33.4-42.8 4.6-3.8 9.4-7 14.5-9.8 0.4 0.1 0.5 0.5 0.7 0.8 8.3 15.3 16.5 30.6 24.8 45.9 0.5 0.9 0.6 0.8-0.3 1.4-2.3 1.3-4.3 2.8-6.3 4.5z"/>
	<path class="st23" d="m926.6 372.5c2.6-0.1 5.3 0.1 8 0.3 1.2 0.1 1.2 0.1 1.1 1.2-0.5 6.4-1.1 12.8-1.6 19.1-0.4 4.5-0.7 9-1.1 13.5-0.4 5.5-0.9 10.9-1.4 16.4-0.1 1-0.2 1.9-0.2 2.9-0.1 0.5-0.2 0.7-0.8 0.7-2.5-0.2-4.9-0.2-7.3 0-0.6 0-0.8-0.2-0.9-0.8-0.3-3.9-0.6-7.9-1-11.8-0.3-4.4-0.7-8.9-1.1-13.3-0.4-4.5-0.7-8.9-1.1-13.4-0.4-4.4-0.8-8.8-1.1-13.2-0.2-1.2-0.2-1.2 0.9-1.3 2.6-0.2 5-0.3 7.6-0.3z"/>
	<path class="st23" d="m944.2 430.3c-2.6-1.2-5.4-2.1-8.2-2.8 0.7-3.5 1.4-6.8 2.1-10.2 2.5-11.7 4.9-23.5 7.4-35.3 0.4-2.1 0.9-4.1 1.3-6.2 0.2-1 0.3-1 1.2-0.8 5 1.2 10 2.7 14.9 4.7 1 0.4 1 0.4 0.6 1.5-6.4 16.2-12.7 32.4-19 48.5-0.1 0.1-0.2 0.3-0.3 0.6z"/>
	<path class="st23" d="m955.3 437.6c-2.1-1.8-4.2-3.4-6.4-4.8-0.6-0.4-0.3-0.8-0.1-1.2 1.9-3.4 3.7-6.8 5.5-10.2 6.4-11.8 12.7-23.6 19.1-35.3 0.2-0.4 0.3-0.8 0.7-1.1 5 2.8 9.8 6.1 14.4 9.9-11 14.3-22.1 28.5-33.2 42.7z"/>
	<path class="st23" d="m887.4 451.4-0.3 0.6c-0.9 2-1.8 4-2.5 6.1-0.3 1-0.4 1-1.3 0.7-5.4-1.8-10.8-3.7-16-5.5-11-3.8-22-7.5-33.1-11.3-0.2-0.1-0.4-0.1-0.6-0.2-0.5-0.1-0.5-0.3-0.4-0.8l1.8-5.1c1.2-3.3 2.6-6.4 4.1-9.5 0.7-1.3 0.5-1.1 1.6-0.5 11.1 6.1 22.4 12.1 33.6 18.2 4.1 2.2 8.1 4.4 12.2 6.6 0.4 0.3 0.8 0.3 0.9 0.7z"/>
	<path class="st23" d="m1007.6 416.2c-0.1 0.4-0.4 0.5-0.7 0.7-2.3 1.7-4.6 3.3-7 4.9-11.7 8.4-23.4 16.7-35.2 25.1-1.1 0.8-1.1 0.8-1.9-0.4-1.1-1.8-2.4-3.5-3.8-5.1-0.4-0.4-0.5-0.7 0-1.1 0.2-0.1 0.3-0.3 0.4-0.4 12.1-12.1 24.2-24.1 36.2-36.3 1.1-1.1 1.1-1.1 2.1 0.1 3.4 3.6 6.5 7.5 9.3 11.6l0.6 0.9z"/>
	<path class="st23" d="m1013.4 426c1 2 2 4 2.9 6.1 1.3 2.9 2.4 5.8 3.3 8.8 0.3 1.2 0.3 1.2-0.8 1.6-10.3 3.5-20.7 7.1-31 10.6-5.7 2-11.4 3.9-17.2 5.9-0.4 0.1-0.7 0.3-1 0.4-0.4 0.1-0.6 0.1-0.8-0.4-0.7-2.3-1.6-4.6-2.6-6.8-0.2-0.4-0.1-0.6 0.2-0.8 0.8-0.4 1.5-0.8 2.2-1.2 14.5-7.8 29.1-15.7 43.6-23.5 0.3-0.3 0.6-0.6 1.2-0.7z"/>
	<path class="st23" d="m830.5 452.6c3.2 0.6 6.5 1.3 9.7 2 8.6 1.8 17.3 3.6 25.9 5.4 5.4 1.1 10.8 2.3 16.2 3.4 0.9 0.2 0.9 0.2 0.7 1.1-0.2 1.4-0.3 2.7-0.5 4.1-0.1 0.5-0.3 0.7-0.8 0.7h-51.7c-1.3 0-1.3 0.2-1.3-1.3 0.1-4.9 0.7-9.9 1.5-14.8 0.1-0.2 0.1-0.4 0.3-0.6z"/>
	<path class="st23" d="m997.4 469.3h-25.4c-1.3 0-1.3 0-1.5-1.4-0.1-1-0.3-2.1-0.4-3.1-0.2-1-0.2-1 0.8-1.2 3.3-0.7 6.6-1.4 9.8-2 9.7-2 19.5-4.1 29.3-6.1 3.9-0.8 7.7-1.6 11.6-2.4 0.8-0.1 0.9-0.1 1 0.7 0.3 1.6 0.5 3.3 0.7 4.9 0.4 3.1 0.7 6.3 0.8 9.5 0 1.2 0 1.2-1.2 1.2-8.5-0.1-17-0.1-25.5-0.1z"/>
	<path class="st24" d="m867.7 406.8c0.1-0.1 0.2-0.3 0.3-0.4 0.7 0.6 1.2 1.4 1.7 2.1-0.1 0.1-0.2 0.1-0.3 0-0.6-0.4-1.2-1-1.7-1.7z"/>
	<path class="st25" d="m939.2 386.5c0.1 0.3 0 0.6 0.2 0.8-0.1 0.6-0.2 1.1-0.2 1.7-0.2 0.1-0.3 0-0.3-0.2 0.1-0.8 0-1.5 0.3-2.3z"/>
	<path class="st26" d="m913.8 385.3c0.3-0.3 0.2-0.8 0.2-1.1 0.3 0.8 0.2 1.6 0.3 2.4-0.1 0-0.1 0.1-0.2 0.1l-0.1-0.1c0-0.5-0.2-0.9-0.2-1.3z"/>
	<path class="st27" d="m984.2 408.1c0.1 0.1 0.2 0.2 0.3 0.2-0.4 0.5-0.7 0.9-1.3 1.2 0.1-0.6 0.6-1 1-1.4z"/>
	<path class="st28" d="m914.3 386.5c0.4 0.6 0.2 1.2 0.1 1.8-0.3-0.4-0.3-0.8-0.4-1.3 0.2-0.1 0.1-0.3 0.2-0.5z"/>
	<path class="st29" d="m1000.8 427.1c0.1 0.1 0.2 0.2 0.3 0.2-0.5 0.3-0.9 0.8-1.6 0.7h0.1c0.1-0.5 0.7-0.7 1.2-0.9z"/>
	<path class="st30" d="m938.9 388.8c0.1 0.1 0.2 0.1 0.3 0.2 0.1 0.4-0.2 0.7-0.3 1-0.1-0.4-0.3-0.8 0-1.2z"/>
	<path class="st31" d="m963.5 393.8 0.3 0.3c0 0.4-0.3 0.7-0.5 1-0.1 0.1-0.2 0.1-0.3 0 0-0.5 0.2-0.9 0.5-1.3z"/>
	<path class="st32" d="m844 450.5c0.3 0.1 0.7 0.2 1 0.2 0.1 0.1 0.1 0.1 0.1 0.2v0.1c-0.4 0-0.7 0-1-0.2-0.1-0.1-0.2-0.1-0.1-0.3z"/>
	<path class="st33" d="m853 427.5c0.1-0.1 0.1-0.1 0.3-0.2 0.2 0.1 0.5 0.3 0.8 0.5 0.1 0.1 0.1 0.1 0.1 0.2s-0.1 0.1-0.1 0.1c-0.5-0.1-0.8-0.3-1.1-0.6z"/>
	<path class="st34" d="m1009.5 450.8c-0.3 0.3-0.6 0.2-0.9 0.2 0.2-0.4 0.7-0.3 1-0.4 0.1 0.1 0.2 0.1 0.1 0.1l-0.2 0.1z"/>
	<path class="st35" d="m844 450.5v0.3c-0.4 0-0.7 0-1-0.2 0-0.1 0.1-0.2 0.2-0.2 0.3 0 0.6 0.1 0.8 0.1z"/>
	<path class="st36" d="m1009.5 450.8v-0.2c0.2-0.1 0.5-0.2 0.7-0.2 0.1 0 0.2 0.1 0.3 0.2-0.3 0.3-0.7 0.2-1 0.2z"/>
	<path class="st37" d="m845 451v-0.3c0.2 0.1 0.5 0.2 0.7 0.3-0.2 0.4-0.4 0.2-0.7 0z"/>
	<path class="st30" d="m870.8 409.8c0.2 0.1 0.4 0.3 0.4 0.6-0.3-0.1-0.5-0.3-0.7-0.6 0.1-0.1 0.2-0.1 0.3 0z"/>
	<path class="st38" d="m890 394.3c0.1-0.1 0.2-0.2 0.2-0.3 0.3 0.2 0.3 0.5 0.4 0.8-0.1 0.1-0.2 0.1-0.4 0 0-0.2-0.2-0.3-0.2-0.5z"/>
	<path class="st39" d="m890.3 394.8h0.4c0.2 0.1 0.2 0.3 0.2 0.5 0.1 0.1 0.1 0.3-0.1 0.4-0.3-0.3-0.4-0.6-0.5-0.9z"/>
	<path class="st40" d="m962.9 395h0.3c-0.1 0.3-0.2 0.6-0.5 0.8-0.1-0.1-0.1-0.2 0-0.4 0-0.1 0-0.3 0.2-0.4z"/>
	<path class="st41" d="m962.7 395.5v0.4c0.1 0.2 0 0.4-0.2 0.4h-0.1c0-0.3 0.1-0.6 0.3-0.8z"/>
	<path class="st42" d="m890.7 395.6c0-0.1 0.1-0.3 0.1-0.4 0.3 0.2 0.3 0.5 0.3 0.8v0.1c-0.4-0.1-0.4-0.3-0.4-0.5z"/>
	<path class="st43" d="m854 428.1v-0.3c0.2 0.1 0.5 0.2 0.5 0.5-0.2 0-0.4 0-0.5-0.2z"/>
	<path class="st44" d="m999.2 428.3c-0.1 0.3-0.3 0.3-0.5 0.3h0.1c0-0.3 0.3-0.4 0.5-0.5 0 0 0 0.1-0.1 0.2z"/>
	<path class="st45" d="m855.3 428.8c-0.3-0.1-0.5-0.1-0.5-0.3-0.1 0-0.1-0.1-0.1-0.1s0-0.1 0.1-0.1c0.3 0.1 0.4 0.2 0.5 0.5z"/>
	<path class="st46" d="m998.5 428.7c-0.1 0.2-0.3 0.3-0.4 0.2-0.1-0.2 0.2-0.3 0.4-0.4 0.1 0.1 0.1 0.1 0 0.2z"/>
	<path class="st47" d="m1008.5 451c-0.1 0.1-0.2 0.1-0.2 0.2-0.1 0.1-0.4 0.1-0.4 0-0.1-0.2 0.2-0.1 0.3-0.1 0.1-0.1 0.2-0.1 0.3-0.1z"/>
	<path class="st48" d="m914.2 386.5c0.1 0.2 0 0.3-0.2 0.5v-0.5h0.2z"/>
	<path class="st49" d="m855.8 429c-0.2 0-0.4 0-0.5-0.2l0.1-0.1c0.2 0.1 0.3 0.1 0.4 0.3z"/>
	<path class="st50" d="m891.3 396.5c-0.3-0.1-0.3-0.3-0.3-0.5v-0.1c0.3 0.1 0.2 0.3 0.2 0.5h0.1z"/>
	<path class="st51" d="m962.5 396.3c-0.1 0.1-0.1 0.2-0.1 0.3-0.1 0-0.1-0.1-0.1-0.1 0-0.1 0-0.2 0.2-0.2z"/>
	<path class="st52" d="m891.2 396.5c0.2 0 0.2 0.1 0.2 0.2s-0.1 0.1-0.1 0.1v-0.3z"/>
	<path class="st53" d="m869.4 408.6h0.3c0.1 0 0.2 0.1 0.1 0.2v0.1c-0.2-0.1-0.3-0.2-0.4-0.3z"/>
	<path class="st54" d="m870 409c-0.2 0.1-0.2 0-0.2-0.2v-0.1c0.2 0.1 0.3 0.2 0.2 0.3z"/>
	<path class="st55" d="m870 409.1c0.3 0 0.3 0.1 0.3 0.2-0.2 0-0.3-0.1-0.3-0.2z"/>
	<path class="st56" d="m870.3 409.3c0.1 0 0.2 0.1 0.2 0.2h0.1c-0.3 0.1-0.3 0-0.3-0.2z"/>
	<path class="st57" d="m870.8 409.8h-0.3c0-0.1 0.1-0.2 0.1-0.3h-0.1c0.2 0 0.3 0.1 0.3 0.3z"/>
	<path class="st58" d="m983.2 409.5c0 0.2 0 0.2-0.2 0.2 0-0.1 0-0.2 0.2-0.2z"/>
	<path class="st59" d="m982.8 410c0-0.2 0-0.3 0.3-0.3-0.1 0.2-0.2 0.3-0.3 0.3z"/>
	<path class="st60" d="m982.8 410c-0.1 0.1-0.2 0.2-0.3 0.2 0-0.1 0.1-0.1 0.3-0.2z"/>
	<path class="st61" d="m982.5 410.3-0.1 0.1s0-0.1 0.1-0.1c-0.1 0 0 0 0 0z"/>
	<path class="st62" d="m999.2 428.3v-0.2h0.2-0.1c0.3 0.1 0.1 0.1-0.1 0.2z"/>
	<path class="st63" d="m854.8 428.3v0.2c-0.2 0-0.3 0-0.3-0.2 0.1-0.1 0.2-0.1 0.3 0z"/>
	<path class="st64" d="m998.5 428.7v-0.2h0.2-0.1c0.1 0.2 0 0.2-0.1 0.2z"/>
	<path class="st49" d="m855.8 429c0 0.1 0.1 0.1 0 0z"/>
	<path d="m927.1 603.1h125.5c1.9 0 1.7-0.2 1.7 1.6v96.2c0 3.6-0.7 7-2.1 10.3-1.5 3.8-4.2 6.4-8 7.9-3.4 1.3-6.8 2-10.4 2h-213.9c-10.9 0-18.6-8.4-19.9-17.2-0.1-0.9-0.2-1.8-0.2-2.6v-97.4c-0.1-0.6 0.1-0.9 0.7-0.8h126.6z"/>
	<path class="st23" d="m992.5 594.2h-59.8c-1.7 0-1.6 0.3-1.6-1.5v-114.9c0-1.8-0.2-1.6 1.5-1.6h119.8c1.7 0 1.5-0.1 1.5 1.5v115c0 1.7 0.2 1.5-1.4 1.5h-60z"/>
	<path class="st23" d="m861.1 594.2h-60.1c-1.2 0-1.2 0-1.2-1.2v-114.8c0-2.2-0.3-1.9 1.8-1.9h119.1c2 0 1.8-0.2 1.8 1.8v114.5c0 1.9 0.2 1.7-1.7 1.7-19.8-0.1-39.7-0.1-59.7-0.1z"/>
	<path class="st23" d="m927.1 605.6h122.9c2.1 0 1.8-0.3 1.8 1.8v93.2c0 3.3-0.6 6.5-1.8 9.6-1.3 3.3-3.6 5.5-6.8 6.7-3 1.1-6 1.7-9.2 1.8h-214.1c-4.3 0-8.1-1.2-11.3-4-4.1-3.5-6.3-8-6.3-13.4-0.1-31.4-0.1-62.8-0.1-94.2v-0.2c0.1-1.4-0.2-1.3 1.3-1.3h123.6z"/>
	<path class="st21" d="m992.5 478.6h57.4c1.8 0 1.6-0.1 1.6 1.5v110.6c-0.1 1.1-0.1 1.1-1.1 1.1h-115.2c-1.9 0-1.6 0.2-1.6-1.5v-110.1c0-1.7-0.3-1.5 1.5-1.5 19.1-0.1 38.3-0.1 57.4-0.1z"/>
	<path class="st19" d="m861.3 478.5h57.6c1.4 0 1.4 0 1.4 1.4v110.2c0 1.8 0.2 1.6-1.6 1.6h-114.8c-1.7 0-1.5 0.1-1.5-1.5v-110.1c0-1.7-0.1-1.6 1.7-1.6h57.2z"/>
	<path d="m926.9 674.5h98.7c0.6 0 1.2-0.1 1.9 0.1 1.3 0.4 2.1 1.3 2.2 2.6 0.1 0.3 0.1 0.5 0.1 0.8v15c0 0.3 0 0.5-0.1 0.8-0.1 1.6-1.3 2.7-2.9 2.8h-28.6c-2 0-1.7-0.2-1.7 1.6v10.5c0 0.5 0 0.9-0.1 1.4-0.3 1.2-1.4 2.1-2.7 2.3h-132.3c-3.2 0-4.2-1.7-4.1-4.1 0.1-3.4 0-6.8 0-10.2 0-1.6 0.2-1.4-1.5-1.4h-28.4c-2.1 0-3.4-1.3-3.4-3.3v-15.4c0-2.2 1.3-3.5 3.5-3.5h99.4z"/>
	<path d="m860.5 665h-15.9c-0.6 0-1.2 0.1-1.8-0.2-1.6-0.6-2.4-2.3-1.8-4.1 0.3-1.1 0.7-2.2 1.1-3.3 5.1-14.5 10.1-28.9 15.2-43.4 0.1-0.3 0.2-0.6 0.4-1 0.6-1.2 1.5-1.8 2.9-1.8s2.4 0.7 2.9 2 0.9 2.5 1.4 3.8c5 14.3 10.1 28.7 15.1 43 0.3 0.6 0.5 1.3 0.5 1.9-0.1 1.7-1.2 2.9-2.8 3h-1.3c-5.5 0.1-10.7 0.1-15.9 0.1z"/>
	<path d="m927 665h-16.9c-1.8-0.1-3.1-1.8-2.8-3.6l0.3-1.2c5.3-15.4 10.7-30.8 16.1-46.1 0.2-0.3 0.3-0.6 0.4-0.9 0.5-1.2 1.5-1.9 2.8-1.9s2.3 0.6 2.9 1.8c0.2 0.4 0.2 0.7 0.4 1.1 5.3 15.3 10.7 30.6 16.1 45.9 0.1 0.2 0.2 0.5 0.2 0.7 0.7 2.4-1 4.3-3.1 4.3-5.4-0.2-10.9-0.1-16.4-0.1z"/>
	<path d="m993.5 665h-16c-0.6 0-1.1 0.1-1.7-0.1-1.6-0.6-2.5-2.3-1.9-4.1 0.9-2.8 1.9-5.6 2.9-8.4 4.5-12.7 8.9-25.5 13.4-38.3l0.3-0.9c0.5-1.2 1.5-1.9 2.8-2 1.4-0.1 2.4 0.6 3 1.9 0.2 0.5 0.5 1.2 0.7 1.7 5.2 14.9 10.4 29.9 15.6 44.8 0.1 0.4 0.3 0.8 0.4 1.3 0.6 2.1-0.7 3.9-2.9 4-1.5 0.1-3 0-4.5 0-4 0.1-8.1 0.1-12.1 0.1z"/>
	<path d="m952.8 521c4.3 0.3 8.2 0.6 12.3 0.9 2.6 0.2 5.3 0.4 7.8 0.6 3.1 0.2 6.2 0.5 9.4 0.7 2 0.1 1.6 0.3 2-1.4 2.3-9 4.6-17.9 6.9-26.9 0.1-0.2 0.1-0.5 0.2-0.7 0.5-1.3 1.3-1.9 2.6-1.9 1.2 0 2.1 0.7 2.4 2 0.7 2.6 1.3 5.1 2 7.7 1.7 6.7 3.3 13.5 5 20.2 0.3 1.3 0.1 1.2 1.5 1.1 5.1-0.4 10.1-0.8 15.2-1.2l8.7-0.6c1.7-0.1 3.3-0.2 4.9-0.4 0.5-0.1 1-0.1 1.5-0.1 1.3 0 2.4 0.7 2.7 1.9 0.4 1.3-0.1 2.3-1.3 3-4.8 2.8-9.6 5.7-14.5 8.5-3.7 2.1-7.3 4.3-11 6.5-1.1 0.7-1.1 0.4-0.6 1.7 3.6 8.4 7.1 16.8 10.7 25.2 0.2 0.6 0.5 1.1 0.6 1.8 0.2 1.3-0.2 2.2-1.2 2.8s-2 0.5-2.9-0.2c-1.5-1.2-2.9-2.3-4.4-3.5-6.2-4.9-12.2-9.9-18.4-14.8-1.5-1.2-1-1.1-2.4 0-7.6 6-15.1 12-22.6 18-0.8 0.6-1.7 1.1-2.8 0.8-1.3-0.5-2.1-1.7-1.7-3.1 0.1-0.4 0.3-0.9 0.5-1.3 3.7-8.5 7.3-17 11-25.6 0.4-1 0.7-0.9-0.5-1.6-8.1-4.8-16.3-9.7-24.5-14.5-0.4-0.2-0.7-0.4-1.1-0.6-1.1-0.7-1.5-1.8-1.1-2.9 0.3-1.1 1.4-1.9 2.6-1.9 0.4-0.2 0.5-0.2 0.5-0.2z"/>
	<path d="m867.2 560c1.3 0 2.7-0.2 4.1-0.5 3.5-0.8 6.1-2.7 7.8-5.8 2.1-3.7 2.6-7.6 1.5-11.7-0.6-2.2-2-3.9-4.2-4.6-0.5-0.2-1-0.5-1.6-0.9-2-1.5-4.4-1.4-6.3 0.3-0.4 0.3-0.6 0.7-0.8 1.1-0.7 1.9-1.8 2.4-3.7 2.1-1.6-0.3-2.9-1.7-2.9-3.3-0.1-0.8 0.2-1.6 0.4-2.3 0.5-1.2 1-2.3 1.6-3.4 0.5-1 1-2 1.3-3.1 0.2-0.6 0.1-1.2-0.5-1.6-1.2-0.8-1.6-2-1.3-3.4 0.4-1.4 1.5-2.1 2.9-2.4 1.7-0.3 3.4 0.1 5.1 0.5 3.9 0.9 7.7 2.2 11.6 3.2 1.6 0.4 3.1 0.8 4.8 1.1 2.4 0.4 4.6-0.3 6.9-0.8 1.3-0.3 2.5-0.8 3.8-1 0.9-0.1 1.8-0.1 2.7 0.2 2.7 0.8 3.5 4.6 1.7 6.3-2.8 2.7-4.8 6-6.2 9.7-2 5.4-1.9 10.9-0.7 16.5 1.3 5.4 3.6 10.4 6.3 15.3 0.4 0.6 0.7 1.3 1.1 2 0.6 1 0.6 2.1 0.3 3.3-0.5 1.8-2.2 2.8-4 2.4-1.2-0.2-2.2-0.8-3.2-1.5-5.4-3.9-11.4-6.2-18-7.3-4.1-0.7-8.2-0.9-12.3-0.6-6.3 0.4-12.5 1.7-18.5 3.7-3.2 1.1-6.4 2.4-9.5 3.9-1.3 0.6-2.6 1-4.1 0.9-0.8-0.1-1.5-0.4-2.2-0.9-1.3-1.1-1.6-2.5-0.8-4 2.3-4 4.4-8.1 6-12.5 2.1-5.4 3.4-10.9 3.5-16.7 0.1-5.6-1-11-3.8-16-1.4-2.7-2.8-5.4-4.3-8-4.1-7.5-9.2-14.3-14.9-20.6-0.4-0.4-0.7-0.8-1.1-1.3-0.6-1-0.4-2.4 0.3-3.2 0.8-0.9 2.1-1.1 3.2-0.5l0.9 0.6c13.6 10.9 27.3 21.7 40.9 32.6 1.9 1.5 1.9 3.1 0.1 4.7-2 1.8-3.9 3.6-5.6 5.8-1 1.2-1.7 2.5-2.4 3.8-1.3 2.9-1.4 5.9-0.2 8.8 1 2.5 2.5 4.7 4.3 6.7 0.3 0.4 0.8 0.6 1.2 0.8 2.8 1 5.6 1.6 8.8 1.6z"/>
	<path class="st65" d="m926.8 677.7h98.2c1.9 0 1.7-0.2 1.7 1.7v12.5c0 1.7 0.2 1.6-1.6 1.6h-30.1c-1.6 0-1.5-0.1-1.5 1.5v13.3c0 0.9 0 0.9-1 1h-130.2c-2 0-1.8 0.3-1.8-1.8v-13.4c0-0.4-0.2-0.6-0.6-0.6h-31.2c-1.5 0-1.5 0-1.5-1.4v-13.6c0-0.5 0.2-0.7 0.7-0.7h1.1c32.6-0.1 65.2-0.1 97.8-0.1z"/>
	<path class="st65" d="m860.5 614.7c0.4 0.2 0.4 0.6 0.5 1 4.1 11.6 8.2 23.2 12.2 34.8 1.2 3.4 2.4 6.8 3.6 10.2 0.4 1.1 0.4 1.1-0.7 1.2h-30.7c-1.5 0-1.6 0-1-1.5 5.2-15 10.5-30 15.7-45 0.1-0.3 0.1-0.6 0.4-0.7z"/>
	<path class="st65" d="m927.1 614.7c0.6 1.5 1.1 2.9 1.6 4.4 4.2 12.2 8.5 24.4 12.8 36.6 0.6 1.8 1.2 3.5 1.8 5.3 0.3 0.7 0.2 0.8-0.6 0.8h-30.8c-0.4 0-0.8 0.1-1.4-0.2 5.4-15.7 10.9-31.4 16.3-47 0.2 0.1 0.3 0.1 0.3 0.1z"/>
	<path class="st65" d="m993.3 614.6c0.5 0.2 0.4 0.7 0.6 1 2.9 8.2 5.7 16.3 8.5 24.5 2.4 6.8 4.8 13.7 7.2 20.5 0.4 1.3 0.4 1.3-0.9 1.3h-30.5c-1.3 0-1.3 0-0.9-1.4 1.8-5.2 3.7-10.5 5.5-15.8 2.5-7.1 4.9-14.1 7.4-21.2 1-2.9 2.1-5.9 3.1-8.9z"/>
	<path class="st66" d="m994 495.3c0.5 1.9 0.9 3.8 1.4 5.7 2.1 8 4 16 6.1 24.1 0.3 1 0.3 1.1 1.3 1 3.1-0.2 6.1-0.4 9.1-0.7 2.7-0.2 5.5-0.4 8.2-0.6 4.4-0.3 8.9-0.6 13.3-1 0.5 0 1 0 1.7-0.1-0.3 0.5-0.7 0.6-1.1 0.9l-25.5 15-0.9 0.6c-0.5 0.2-0.6 0.5-0.4 1 0.5 1.1 1 2.3 1.5 3.4 3.4 8 6.8 15.9 10.1 23.9 0.2 0.4 0.3 0.8 0.3 1.3-0.3-0.3-0.6-0.5-0.9-0.8-7.8-6.2-15.6-12.5-23.4-18.8-1-0.8-0.7-0.7-1.7 0.1-8 6.3-15.9 12.7-23.8 19-0.2 0.2-0.5 0.3-0.8 0.6-0.1-0.5 0.2-0.9 0.3-1.2 3.8-9 7.7-17.9 11.6-26.9v-0.1c0.5-1 0.5-1-0.5-1.6-4.5-2.7-9.2-5.4-13.8-8.1-4-2.4-8.1-4.8-12.2-7.2-0.3-0.2-0.6-0.4-0.9-0.8 1.7 0.1 3.5 0.2 5.2 0.3 1.6 0.1 3.2 0.3 4.8 0.4 5.4 0.4 10.7 0.7 16.1 1.1 1.9 0.1 3.8 0.3 5.7 0.4 1.2 0.1 1.2 0 1.5-1.2 2-7.8 3.9-15.5 5.9-23.3 0.5-2.1 1-4.1 1.6-6.2 0-0.2 0.1-0.2 0.2-0.2z"/>
	<path class="st23" d="m820.1 498.4 8.1 6.3c10.1 8.1 20.1 16.1 30.3 24.1 0.4 0.3 0.8 0.7 1.2 1 0 0.5-0.4 0.6-0.7 0.8-2.5 2.3-4.8 4.6-6.6 7.4-1.9 2.9-3 5.9-2.8 9.4 0.2 2.2 0.9 4.3 1.9 6.3 1.1 2.1 2.6 4 4.2 5.8 0.3 0.3 0.5 0.5 0.9 0.7 5.6 2.7 11.3 3.4 17.2 1.4 4.7-1.7 7.6-5.2 9.2-9.9 1.2-3.5 1.3-7 0.2-10.5-1-2.9-2.7-5.1-5.7-6.1-0.4-0.2-0.8-0.5-1.2-0.8-3.2-2.3-7.7-1.8-10.2 1.3-0.3 0.4-0.6 0.8-0.8 1.3-0.1 0.2-0.1 0.6-0.5 0.6-0.4-0.1-0.8-0.2-0.9-0.7s0-0.9 0.2-1.3c0.5-1 0.9-1.9 1.5-2.9 0.6-1.2 1.2-2.4 1.5-3.7 0.4-1.8 0.2-3.4-1.3-4.6-0.2-0.1-0.5-0.3-0.4-0.6s0.4-0.5 0.7-0.5c0.8-0.1 1.7-0.1 2.5 0.1 3.5 0.7 6.9 1.8 10.4 2.8 2.8 0.8 5.7 1.6 8.7 2 1.2 0.1 2.4 0.1 3.7-0.1 2-0.4 4.1-1.1 6.1-1.6 0.6-0.1 1.2-0.2 1.8-0.2s1.1 0.2 1.4 0.8c0.2 0.6 0 1-0.5 1.4-2 2.2-3.8 4.6-5.2 7.3-2.5 4.9-3.5 10.1-3 15.6 0.6 6.1 2.7 11.8 5.3 17.2 0.9 1.9 1.9 3.7 2.9 5.5 0.2 0.3 0.3 0.5 0.5 0.8 0.2 0.5 0.3 1-0.2 1.4-0.4 0.4-0.9 0.2-1.2 0.1-0.8-0.3-1.5-0.7-2.2-1.2-5.8-4-12.3-6.3-19.3-7.4-9.6-1.4-19.1-0.3-28.4 2.4-4.3 1.2-8.4 2.8-12.4 4.8-0.7 0.3-1.3 0.6-2 0.7-0.3 0.1-0.7 0.1-1 0.1-1-0.1-1.2-0.6-0.7-1.5 2.3-3.9 4.3-8 5.9-12.3 2.3-6.1 3.8-12.4 3.6-19-0.1-6.6-1.9-12.8-5.4-18.4-0.4-0.8-0.8-1.5-1.2-2.2-3.7-7.3-8.3-14-13.4-20.3l-2.4-3c-0.5-0.4-0.5-0.5-0.3-0.6z"/>
	<path class="st67" d="m820.1 498.4c-0.1 0.1-0.1 0.3-0.1 0.4-0.3-0.2-0.6-0.5-0.8-0.8 0.1-0.1 0.2-0.1 0.3 0 0.3 0.1 0.5 0.2 0.6 0.4z"/>
	<path class="st68" d="m818.3 497c0.3 0 0.6 0.2 0.8 0.5-0.1 0.2-0.2 0.2-0.3 0.1-0.3-0.2-0.4-0.4-0.5-0.6z"/>
	<path class="st69" d="m818.8 497.5c0.1 0 0.2-0.1 0.3-0.1 0.2 0.2 0.4 0.3 0.5 0.5h-0.3c-0.3 0-0.4-0.2-0.5-0.4z"/>
	<path class="st68" d="m818.3 497-0.1-0.1s0.1 0 0.1 0.1z"/>
</g>
</svg>
