<?xml version="1.0" encoding="UTF-8"?>
<svg id="Capa_1" width="1969.9" height="1125.6" version="1.1" viewBox="0 0 1969.9 1125.6" xml:space="preserve" xmlns="http://www.w3.org/2000/svg" xmlns:cc="http://creativecommons.org/ns#" xmlns:dc="http://purl.org/dc/elements/1.1/" xmlns:rdf="http://www.w3.org/1999/02/22-rdf-syntax-ns#"><metadata id="metadata533"><rdf:RDF><cc:Work rdf:about=""><dc:format>image/svg+xml</dc:format><dc:type rdf:resource="http://purl.org/dc/dcmitype/StillImage"/></cc:Work></rdf:RDF></metadata>
<style id="style2" type="text/css">
	.st0{fill:#FEFEFE;}
	.st1{fill:#363636;}
	.st2{fill:#3A3A3A;}
	.st3{fill:#393939;}
	.st4{fill:#383838;}
	.st5{fill:#3B3B3B;}
	.st6{fill:#3E3E3E;}
	.st7{fill:#3C3C3C;}
	.st8{fill:#3D3D3D;}
	.st9{fill:#404040;}
	.st10{fill:#3F3F3F;}
	.st11{fill:#414141;}
	.st12{fill:#4B4B4B;}
	.st13{fill:#4E4E4E;}
	.st14{fill:#454545;}
	.st15{fill:#444444;}
	.st16{fill:#434343;}
	.st17{fill:#464646;}
	.st18{fill:#F0F0F0;}
	.st19{fill:#E2E2E2;}
	.st20{fill:#A0A0A0;}
	.st21{fill:#BBBBBB;}
	.st22{fill:#B0B0B0;}
	.st23{fill:#B8B8B8;}
	.st24{fill:#777777;}
	.st25{fill:#FDFDFD;}
	.st26{fill:#FBFBFB;}
	.st27{fill:#F4F4F4;}
	.st28{fill:#F3F3F3;}
	.st29{fill:#F8F8F8;}
	.st30{fill:#EDEDED;}
	.st31{fill:#DFDFDF;}
	.st32{fill:#B4B4B4;}
	.st33{fill:#373737;}
	.st34{fill:#494949;}
	.st35{fill:#D9D9D9;}
	.st36{fill:#545454;}
	.st37{fill:#595959;}
	.st38{fill:#666666;}
	.st39{fill:#4C4C4C;}
	.st40{fill:#484848;}
	.st41{fill:#E7E7E7;}
	.st42{fill:#4D4D4D;}
	.st43{fill:#898989;}
	.st44{fill:#505050;}
	.st45{fill:#DCDCDC;}
	.st46{fill:#585858;}
	.st47{fill:#6C6C6C;}
	.st48{fill:#A4A4A4;}
	.st49{fill:#787878;}
	.st50{fill:#4A4A4A;}
	.st51{fill:#474747;}
	.st52{fill:#575757;}
	.st53{fill:#F7F7F7;}
	.st54{fill:#828282;}
	.st55{fill:#5D5D5D;}
	.st56{fill:#7F7F7F;}
	.st57{fill:#797979;}
	.st58{fill:#F9F9F9;}
	.st59{fill:#FCFCFC;}
</style>

<rect id="rect33596" width="1969.9" height="1125.6" fill="#fff" opacity=".999" stroke-width="10"/><g id="g33550" transform="matrix(.79588 0 0 .79588 614.14 117.87)"><path id="path6" class="st1" d="m207.57 231.38c1.8091-9.9948 4.0779-19.8 7.4461-29.305 10.684-30.174 32.873-46.146 63.727-50.964 12.803-1.999 25.687-1.7991 38.35 1.6292 1.0894 0.29985 2.2788 0.67966 3.3482 0.50974 8.9354-1.3893 17.911-1.3093 26.856-0.39979 8.6755 0.88954 17.141 2.9085 25.907 6.5066l14.073 8.5456c2.6586 3.818 14.9 16.129 17.579 19.927 11.144 15.792 26.5 18.186 45.52 21.804 5.1973 0.9895 16.674-34.667 16.774-40.354 0.3898-22.089 7.5441 13.113-7.4981-2.8484-1.959-2.0789 2.7464 25.763 0.50761 23.954 0.40978-0.48975 4.2306-31.074 4.6404-31.564l-5.5134 3.2927c-0.85956 3.0384 8.3426 9.0405 6.4436 11.049-15.072 15.952-2.618-2.4044-2.698 19.574-0.02 5.867-7.7045 17.749-1.9275 16.63 18.51-3.5881 35.378-5.4908 46.422-20.693 2.9585-4.0779 13.952-16.324 17.79-21.851l13.752-7.7758c17.621-6.4167 34.772-7.776 52.453-6.0269 6.1868 0.60969 12.494-2.4987 18.96-2.7985 30.924-1.4193 57.89 6.4466 76.99 32.713 7.5461 10.385 12.853 25.917 16.841 47.745 2.6686 0.64966 3.4782-1.8091 4.7575-3.1284 14.582-15.042 29.175-30.064 43.497-45.356 3.1184-3.3283 4.6976-3.2183 7.8859-0.0799 41.309 40.729 82.717 81.348 124.28 121.83 3.5082 3.4182 3.3483 5.0874 0.03 8.4556-31.544 31.933-62.957 64.007-94.261 96.17-5.9269 6.0968-11.124 12.893-16.881 19.17-21.829 23.788-29.055 52.813-29.235 83.946-0.26985 46.506 0.64967 93.012 0.26986 139.52-0.29984 36.691-5.1673 72.902-14.892 108.39-8.2857 30.234-22.728 57.02-43.587 80.498-32.973 37.121-70.793 68.195-113.39 93.711-16.951 10.155-34.492 15.372-54.322 13.503-9.715-0.90953-10.005-0.16991-10.704 9.8349-0.76959 11.024-0.9495 22.069-0.46975 33.133 0.1899 4.3377 1.1794 5.9569 5.9169 5.687 9.4751-0.53972 18.83 0.68963 27.666 4.5076 13.473 5.8269 20.909 15.982 22.029 30.714 0.22988 2.9685 0.9695 5.8971 1.1494 8.8655 1.1394 19-12.593 32.443-33.932 32.153-38.5-0.5197-65.066-20.319-72.792-58.27-0.45976-2.2388-0.9595-4.4577-1.6791-7.8059-1.3193 8.7254-3.0984 16.172-5.9869 23.368-13.303 33.213-47.106 46.226-76.87 41.608-18.66-2.8985-27.586-16.831-24.577-35.581 0.7596-4.7477 0.63967-9.6551 2.3188-14.243 5.887-16.052 18.93-22.248 34.502-24.727 3.848-0.60968 7.9159-1.2394 11.674-0.59968 6.6466 1.1294 7.4361-2.019 7.656-7.4961 0.48975-12.224 0.05-24.367-1.2593-36.521-0.38981-3.6481-1.7591-5.1173-5.5971-4.9374-5.737 0.27986-11.544-0.42979-17.251 0.05-10.245 0.84956-19.38-1.919-28.295-6.6765-55.411-29.555-102.59-68.914-140.73-118.83-19.73-25.817-28.745-56.261-35.102-87.544-6.1968-30.524-8.9753-61.398-8.7354-92.592 0.32983-43.747 0.53971-87.495 0.18989-131.23-0.25986-31.494-9.0153-59.959-30.514-84.236-31.933-36.061-66.925-69.114-100.15-103.9-4.4077-4.6176-12.394-8.6655-12.114-14.073 0.23988-4.6376 7.746-8.9653 12.164-13.303 37.94-37.261 75.96-74.441 113.77-111.82 3.7381-3.6981 5.677-4.0179 9.4451 0.05 13.913 15.032 28.245 29.685 42.468 44.427 1.4293 1.4492 2.4387 3.4082 4.9174 4.0579z" stroke="#fff" stroke-width="2.9869"/><path id="path8" class="st1" d="m817.08 740.2c1.0139-26.131 4.5475-49.029 26.703-64.277 7.0471-4.8487 14.405-9.1251 22.276-12.438 15.961-6.7158 31.853-13.512 44.521-27.044-10.36 34.814-24.675 65.402-59.86 80.821-11.916 5.2201-23.059 12.217-33.639 22.938z" fill="#3fb34f" stroke="#000" stroke-width="2"/><path id="path10" class="st1" d="m2.3394 637.88c13.823 14.707 32.475 20.77 50.002 28.781 29.594 13.512 41.921 37.344 41.71 68.845-0.01004 0.92355-0.10039 1.8371-0.21081 2.7506-0.02008 0.1305-0.33128 0.23089-0.91352 0.62239-10.952-11.384-25.167-18.11-38.91-25.448-20.941-11.173-35.487-27.556-43.337-50.012-2.861-8.1915-6.3243-16.182-9.5166-24.263 0.40155-0.42162 0.78301-0.85328 1.1745-1.2749z" fill="#3fb34f" stroke="#000" stroke-width="2"/><path id="path12" class="st1" d="m774.59 705.56c1.1645 2.5197 2.4093 4.5174 3.0417 6.7058 4.3467 15.028 13.241 26.713 25.9 35.687 13.02 9.2255 19.134 21.784 19.485 37.765 0.24093 10.842-0.59228 21.523-2.7606 32.686-3.8046-6.6255-7.7699-13.171-11.384-19.897-6.234-11.625-15.158-19.876-27.496-25.046-20.278-8.4927-26.974-23.992-20.308-44.913 2.851-8.9645 6.9969-16.112 13.522-22.988z" fill="#3fb34f" stroke="#000" stroke-width="2"/><path id="path14" class="st1" d="m824.19 615.5c-1.7768-15.339-2.6502-29.002-0.76294-42.805 1.285-9.356 4.9792-17.156 12.076-23.35 2.088-1.817 3.9653-3.905 6.2039-5.5012 12.819-9.1352 21.764-21.031 26.331-36.179 0.64247-2.1282 1.2046-4.4672 3.4432-6.2641 9.1452 10.611 14.927 22.627 15.379 36.681 0.39151 12.428-5.19 23.38-16.323 27.506-21.693 8.0409-32.866 24.906-42.614 43.829-0.82317 1.6062-1.8873 3.1019-3.7344 6.0834z" fill="#3fb34f" stroke="#000" stroke-width="2"/><path id="path16" class="st1" d="m40.426 501.05c0.8834 1.7668 1.6965 2.9112 2.0579 4.1761 4.7884 17.206 15.158 30.246 29.483 40.566 11.534 8.312 16.433 19.987 16.775 34.031 0.27104 11.314 0.16062 22.567-1.4757 36.039-4.4672-7.7197-8.1012-13.582-11.324-19.666-6.8363-12.89-16.443-22.185-30.287-27.907-17.819-7.3583-24.273-21.844-19.615-40.586 2.4595-9.9583 7.0471-18.822 14.385-26.653z" fill="#3fb34f" stroke="#000" stroke-width="2"/><path id="path18" class="st1" d="m137.5 705.71c10.44 12.87 17.106 26.643 14.687 43.307-1.4255 9.7676-7.1776 18.059-16.052 21.222-21.252 7.5691-32.495 23.972-41.851 42.704-0.98378 1.9575-2.1884 3.8046-4.0656 7.0371-2.2487-16.955-2.9012-32.244-0.04015-47.513 1.1645-6.2541 4.0656-11.775 8.6934-16.212 3.4934-3.3529 6.9768-6.7761 10.822-9.6873 10.992-8.312 19.134-18.541 23.219-31.883 0.90347-2.9614 1.8371-6.1035 4.5876-8.9745z" fill="#3fb34f" stroke="#000" stroke-width="2"/><path id="path20" class="st1" d="m62.21 848.99c4.8687-2.6402 9.2757-3.7344 13.843-3.7544 21.292-0.0703 40.576 5.7622 56.066 20.92 11.163 10.922 25.076 14.927 39.673 17.809 1.5058 0.30116 3.2826-0.13051 5.0996 2.5699-12.358-1.1846-19.997 6.7761-28.881 12.438-13.452 8.573-32.144 5.9931-43.959-5.4409-6.3846-6.1838-10.621-13.883-15.078-21.412-6.234-10.52-13.181-20.137-26.763-23.129z" fill="#3fb34f" stroke="#000" stroke-width="2"/><path id="path22" class="st1" d="m736.55 884.37c17.457-2.5498 32.525-9.0147 46.268-21.041 18.541-16.232 40.968-21.834 65.713-14.927-14.044 3.7344-20.77 14.817-27.486 25.99-2.9614 4.929-5.9629 9.8981-9.5166 14.395-13.883 17.568-35.376 20.308-53.155 6.6958-6.5753-5.0294-13.221-9.2355-21.864-8.9043-1.0139-0.7529-1.044-1.4857 0.0402-2.2085z" fill="#3fb34f" stroke="#000" stroke-width="2"/><path id="path24" class="st1" d="m186.65 860.67c38.026 16.564 72.519 37.314 92.225 76.002 1.2348 2.4294 3.7745 5.5614 2.3792 7.549-1.6564 2.3691-5.5012 0.80309-8.3521 0.61236-25.639-1.7467-44.923-13.231-57.08-36.46-8.6232-16.504-16.895-33.318-29.172-47.704z" fill="#3fb34f" stroke="#000" stroke-width="2"/><path id="path26" class="st1" d="m628.68 945.09c18.471-43.297 54.048-65.693 93.851-84.164 0.42163 1.4255 0.73282 1.9374 0.60232 2.1081-12.277 15.198-20.509 32.856-30.136 49.651-14.044 24.484-36.51 32.304-64.317 32.405z" fill="#3fb34f" stroke="#000" stroke-width="2"/><path id="path28" class="st1" d="m768.83 621.99c7.3884 9.2355 17.015 14.747 26.281 20.649 15.68 9.9985 20.208 24.093 17.005 41.851-2.8208 15.6-8.583 30.839-6.1738 47.362-21.814-16.795-38.709-66.717-37.113-109.86z" fill="#3fb34f" stroke="#000" stroke-width="2"/><path id="path30" class="st1" d="m106.28 727c0.32124-15.439-4.7684-30.036-7.278-45.023-2.7606-16.493 2.4494-28.891 15.992-38.327 9.0649-6.3143 19.114-11.374 26.743-20.68 3.3228 41.66-8.9043 77.538-35.145 108.91-1.1143-1.566-0.83321-3.2124-0.3112-4.8788z" fill="#3fb34f" stroke="#000" stroke-width="2"/><path id="path32" class="st1" d="m256.58 954.56c-16.273 15.249-34.352 28.078-57.521 24.193-22.356-3.7544-39.241-17.026-49.169-39.412 5.8124 0.35135 9.6973 2.9714 13.673 4.929 9.6572 4.7583 19.154 5.6317 29.313 1.3552 14.034-5.9027 27.978-3.895 41.751 1.566 7.017 2.8008 13.693 6.8464 21.954 7.3684z" fill="#3fb34f" stroke="#000" stroke-width="2"/><path id="path34" class="st1" d="m654.82 954.72c8.1413-0.78301 14.837-4.5776 21.804-7.4185 14.707-6.0031 29.373-7.268 44.31-0.8834 7.8602 3.3629 15.731 2.7506 23.46-0.68263 5.21-2.3089 10.43-4.5876 15.951-7.017-1.0039 13.462-21.342 34.312-44.431 39.442-24.946 5.5413-43.527-7.9907-61.095-23.44z" fill="#3fb34f" stroke="#000" stroke-width="2"/><path id="path36" class="st1" d="m812.79 637.32c-31.742-13.753-50.725-54.46-41.339-86.633 1.1544-3.9652 2.7807-4.4973 6.3745-3.0216 9.9985 4.1058 16.423 11.735 21.101 21.021 10.751 21.372 13.06 44.461 13.863 68.634z" fill="#3fb34f" stroke="#000" stroke-width="2"/><path id="path38" class="st1" d="m99.282 625.27c1.1344-18.29 3.8448-36.249 11.494-53.094 4.668-10.29 11.022-19.164 21.784-24.073 4.1761-1.9073 6.2942-1.9575 7.5792 3.5336 7.79 33.479-6.6054 65.01-37.615 84.324-3.3228 2.068-4.0154 0.74286-3.7946-2.3992 0.1807-2.7606 0.37143-5.5313 0.55212-8.2919z" fill="#3fb34f" stroke="#000" stroke-width="2"/><path id="path40" class="st1" d="m182.24 1006.6c15.65-1.8572 28.379 1.3953 40.837 5.732 11.846 4.1259 23.741 5.5112 36.039 2.6904 1.566-0.3614 3.2023-0.4217 4.8185-0.512 10.952-0.6124 15.289 1.9876 16.765 10.008 1.566 8.5429-3.6741 17.517-11.906 20.348-6.6355 2.2788-13.241 1.2548-19.766-0.4718-9.4463-2.5097-18.14-6.756-26.211-12.187-12.739-8.583-24.494-18.652-40.576-25.608z" fill="#3fb34f" stroke="#000" stroke-width="2"/><path id="path42" class="st1" d="m727.08 1006.9c-14.697 6.9568-26.743 17.768-40.225 26.422-10.159 6.5151-21.071 11.414-33.248 12.719-14.114 1.5159-24.063-7.6193-22.848-20.78 0.6224-6.7761 4.2162-10.41 11.133-10.741 3.4332-0.1606 6.9969-0.1606 10.32 0.5622 12.317 2.6602 24.203 1.4255 36.029-2.6903 12.458-4.3468 25.157-7.6093 38.839-5.4912z" fill="#3fb34f" stroke="#000" stroke-width="2"/><path id="path44" class="st1" d="m603.55 1079.3c-2.7907-1.6262-4.3166-4.1861-5.8826-6.5954-8.9043-13.673-15.018-28.47-17.618-44.642-0.18069-1.1344-0.33127-2.2888-0.35135-3.4332-0.1305-7.3182 0.0602-14.857 7.6494-18.632 7.3483-3.6541 14.937-2.4495 21.663 2.0177 6.9266 4.6078 9.888 11.364 8.7436 19.696-0.60231 4.3969-1.9374 8.6834-4.6579 12.147-7.5591 9.637-10.069 20.459-8.7035 32.465 0.24093 2.1382 0.61236 4.5073-0.84324 6.9768z" fill="#3fb34f" stroke="#000" stroke-width="2"/><path id="path46" class="st1" d="m307.96 1080c-0.43166-1.9274-0.77298-2.61-0.70271-3.2424 1.7768-14.827-2.7707-27.526-10.43-40.355-9.1653-15.359 0.0301-30.768 17.497-32.224 10.129-0.8433 16.263 4.3066 17.116 14.446 0.87336 10.35-1.8571 20.067-5.4409 29.614-4.2062 11.183-9.3158 21.864-18.039 31.762z" fill="#3fb34f" stroke="#000" stroke-width="2"/><path id="path48" class="st1" d="m528.2 969.41c12.9 4.5776 23.912 0.58224 34.874-2.7606 14.074-4.2865 26.181-2.3189 36.37 9.1352 3.5738 4.0255 3.1622 6.9467 0.0602 10.581-8.8641 10.4-20.639 11.374-32.866 9.7575-16.895-2.2286-28.811-10.631-38.438-26.713z" fill="#3fb34f" stroke="#000" stroke-width="2"/><path id="path50" class="st1" d="m382.2 970.34c-9.7877 20.71-39.663 32.234-59.961 23.641-5.973-2.5297-11.966-6.3243-12.749-12.558-0.71275-5.6618 5.7019-8.9143 10.039-12.127 6.4649-4.8085 13.994-5.722 21.754-4.2564 4.0556 0.76294 8.0309 2.0178 12.006 3.1622 13.161 3.7745 16.112 4.0255 28.911 2.1382z" fill="#3fb34f" stroke="#000" stroke-width="2"/><path id="path52" class="st1" d="m731.13 879.62c2.088-4.1359 3.4131-7.5892 5.4309-10.571 4.4772-6.6556 3.7143-12.96-0.3915-19.344-1.8672-2.9112-3.6741-5.8626-5.3908-8.8641-7.529-13.11-4.939-21.402 9.5768-28.992 2.2386 11.665 9.868 19.927 16.915 28.751 8.8741 11.093 5.3104 26.211-7.0572 33.087-5.4911 3.0518-11.474 4.678-19.083 5.9328z" fill="#3fb34f" stroke="#000" stroke-width="2"/><path id="path54" class="st1" d="m180.25 879.5c-7.007-0.91352-12.699-2.5598-18.039-5.3004-13.954-7.1776-17.357-22.868-7.1475-34.924 6.3043-7.4386 12.779-14.576 15.138-24.384 0.53205-2.2185 1.2849-3.0016 3.8247-1.807 8.7738 4.1359 12.9 13.582 9.0749 22.557-1.8772 4.417-4.4371 8.5931-7.0672 12.639-4.6981 7.2077-6.0533 14.245-0.63243 21.774 1.8571 2.5598 2.9514 5.6819 4.8487 9.4464z" fill="#3fb34f" stroke="#000" stroke-width="2"/><path id="path56" class="st2" d="m88.531 503.96c1.5058 6.2942-0.25097 8.5027-6.495 8.2016-6.2842-0.3112-13.914-6.6958-15.7-12.829-0.98379-3.373 1.0942-3.3529 3.2425-3.4633 6.6857-0.34132 12.358 2.7205 18.1 5.4911 1.8772 0.35136 1.7266 1.3653 0.85328 2.6z" fill="#d82a35" stroke="#000" stroke-width="2"/><path id="path58" class="st3" d="m71.556 731.84c-0.74286 8.7135-2.2185 15.871-5.7019 22.497-1.1946 2.2687-2.6602 4.3467-5.0795 5.4911-4.166 1.9776-6.6757 0.25096-6.3344-4.2463 0.83321-11.053 8.0108-17.327 17.116-23.741z" fill="#d82a35" stroke="#000" stroke-width="2"/><path id="path60" class="st3" d="m826.71 499.95c3.0317-1.6363 6.1135-3.0819 9.607-3.4834 3.0919-0.35135 7.3081-2.1382 8.834 0.70271 1.3652 2.5498-1.9776 5.6618-3.8147 8.2016-2.3591 3.2425-5.4811 5.5915-9.4263 6.4548-2.9112 0.64247-6.1637 1.1243-8.5228-1.1344-2.6602-2.5498-0.94363-5.4811 0.19073-8.2016 0.34132-1.7166 1.6764-2.2085 3.132-2.5398z" fill="#d82a35" stroke="#000" stroke-width="2"/><path id="path62" class="st3" d="m840.05 731.99c8.6031 6.2039 15.54 11.976 16.734 22.075 0.25096 2.0981 1.5158 4.9189-1.4757 6.0934-3.2826 1.305-6.0031-0.38147-7.8201-2.9413-5.0394-7.1475-6.8363-15.309-7.4386-25.227z" fill="#d82a35" stroke="#000" stroke-width="2"/><path id="path64" class="st4" d="m39.613 754.88c0.67259 2.6 2.329 5.3807 0.05019 7.7799-2.3992 2.5197-5.5313 1.4757-8.4124 0.7529-1.0942-0.27105-2.1583-0.74286-3.1521-1.2749-4.4371-2.3591-11.293-13.904-9.1352-14.897 5.1699-2.3992 10.099 0.29112 14.767 2.7205 1.5761 0.82317 2.7405 2.5297 4.8185 2.2888 0.84324 0.67259 1.1745 1.566 1.0641 2.6301z" fill="#d82a35" stroke="#000" stroke-width="2"/><path id="path66" class="st4" d="m871.96 754.46c5.0394-4.5977 10.631-7.9606 17.728-8.1313 2.1382-0.0502 3.9151 0.0402 2.8811 2.871-2.349 6.3846-5.21 12.348-12.629 14.305-6.9969 1.8471-9.0348 0.28109-9.0649-7.1073-0.51197-1.1344 0.14054-1.6162 1.0842-1.9375z" fill="#d82a35" stroke="#000" stroke-width="2"/><path id="path68" class="st3" d="m794.71 474.97c8.2216 7.7297 14.596 14.265 14.074 24.745-0.10039 2.078 1.044 4.9591-2.2788 5.6417-2.7506 0.56216-4.939-0.78302-6.485-2.9815-3.2626-4.668-4.1058-10.119-4.7081-15.6-0.34131-3.2927-0.35135-6.6255-0.60232-11.805z" fill="#d82a35" stroke="#000" stroke-width="2"/><path id="path70" class="st4" d="m116.06 475.56c0.81313 9.356 0.0602 17.196-3.3228 24.625-1.5058 3.3128-3.9452 6.0633-7.9506 5.0796-3.8348-0.93359-2.2888-4.5475-2.2687-7.007 0.0903-9.5768 6.2942-15.71 13.542-22.697z" fill="#d82a35" stroke="#000" stroke-width="2"/><path id="path72" class="st3" d="m39.613 754.88c-0.35135-0.87336-0.71274-1.7568-1.0641-2.6301 0.1305-7.3985 0.67259-14.727 3.5436-22.296 4.9591 4.7985 7.3081 10.661 8.7236 16.875 0.7529 3.2927 1.3552 6.9367-1.9174 9.627-3.7143 3.0618-6.3043-0.40155-9.2857-1.5761z" fill="#d82a35" stroke="#000" stroke-width="2"/><path id="path74" class="st3" d="m871.96 754.46c-0.36139 0.64247-0.72278 1.295-1.0842 1.9375-9.1753 2.3189-12.267-0.76294-10.049-10.139 0.522-2.2185 1.0842-4.4873 2.0579-6.5151 1.5761-3.2626 3.5135-6.3444 5.7822-10.37 4.2162 8.6232 4.2062 16.785 3.2927 25.087z" fill="#d82a35" stroke="#000" stroke-width="2"/><path id="path76" class="st3" d="m854.5 808.11c-0.45174-7.9606-6.1938-15.901 0.76294-23.902 1.1042-1.2649 0.92355-3.905 3.4734-3.4934 2.8008 0.45174 4.427 2.5598 4.9792 5.1498 1.2348 5.9027-0.0301 11.434-3.2124 16.514-1.3251 2.1081-2.8409 4.0857-4.2664 6.1236-0.5722-0.14054-1.1544-0.27104-1.7367-0.3915z" fill="#d82a35" stroke="#000" stroke-width="2"/><path id="path78" class="st3" d="m111.23 554.3c-5.8726-5.0294-9.6572-9.9382-11.083-16.162-1.0239-4.4572-2.0579-10.681 3.7243-11.554 4.2764-0.64247 7.2479 5.0896 8.051 9.2757 1.0741 5.5514 0.52201 11.394-0.69267 18.441z" fill="#d82a35" stroke="#000" stroke-width="2"/><path id="path80" class="st4" d="m88.531 503.96c-0.28108-0.86332-0.56216-1.7266-0.84324-2.59-3.0618-7.8201-2.2587-15.69-0.93359-24.695 4.8888 4.6981 8.051 9.105 10.199 14.245 4.0355 9.7174 1.7668 13.231-8.4224 13.04z" fill="#d82a35" stroke="#000" stroke-width="2"/><path id="path82" class="st2" d="m56.106 809.25c-4.929-5.1598-7.7699-10.541-8.824-16.754-1.0139-5.9931 2.2386-12.829 5.4309-11.595 4.2162 1.6263 6.3645 6.2039 6.6456 10.681 0.36139 5.7321-1.1243 11.344-3.2525 17.668z" fill="#d82a35" stroke="#000" stroke-width="2"/><path id="path84" class="st2" d="m800.24 554.63c-0.68263-9.6672-4.417-18.22 3.373-25.498 1.2448-1.1544 1.4757-3.6239 3.9151-3.0016 2.5097 0.64248 3.644 2.61 3.9753 5.0494 1.295 9.7375-4.0456 16.242-11.263 23.45z" fill="#d82a35" stroke="#000" stroke-width="2"/><path id="path86" class="st2" d="m822.52 502.61c-2.7104 1.6865-5.5012 2.5498-8.1313-0.01-2.4695-2.4193-2.088-5.3907-1.1544-8.3421 2.0278-6.4448 5.6016-11.896 11.002-17.106 2.1985 7.3382 1.9274 14.185 0.77298 21.081-0.43166 1.6764-1.0239 3.2826-2.4896 4.3768z" fill="#d82a35" stroke="#000" stroke-width="2"/><path id="path88" class="st5" d="m12.569 778.64c4.427-8.7236 11.163-13.07 18.09-11.916 2.2687 0.38147 4.5676 0.85329 5.5012 3.5135 1.0541 2.9915-1.3853 3.7745-2.9413 5.4209-5.983 6.3544-13.02 4.1058-20.649 2.9815z" fill="#d82a35" stroke="#000" stroke-width="2"/><path id="path90" class="st5" d="m82.578 549.05c-1.1444-7.2579-0.65251-13.131 1.1444-18.853 1.034-3.3027 3.1822-5.722 7.2077-4.7884 4.1761 0.97375 5.3907 3.9151 4.8788 7.8301-0.99382 7.549-6.8664 10.992-13.231 15.811z" fill="#d82a35" stroke="#000" stroke-width="2"/><path id="path92" class="st3" d="m28.821 800.17c-0.41158-7.1074 0.67259-12.679 3.1521-17.899 1.5861-3.3228 4.0456-5.7421 8.2016-3.8849 4.1861 1.8672 4.7081 5.2904 3.3027 9.1452-2.4193 6.5954-8.2317 9.2456-14.656 12.639z" fill="#d82a35" stroke="#000" stroke-width="2"/><path id="path94" class="st4" d="m883.16 800.22c-6.0633-2.6402-10.902-5.2703-13.914-10.129-2.4695-3.9753-3.6139-8.5529 1.305-11.354 5.3506-3.0417 8.051 0.98378 9.7274 5.3104 1.9073 4.9189 2.5297 10.139 2.8811 16.172z" fill="#d82a35" stroke="#000" stroke-width="2"/><path id="path96" class="st3" d="m829.21 548.96c-6.0131-3.885-10.691-7.1375-12.88-12.769-1.7568-4.5375-1.7367-8.8139 3.7745-10.561 5.0795-1.6062 6.7962 2.068 8.071 6.0433 1.7066 5.3305 1.0139 10.721 1.034 17.287z" fill="#d82a35" stroke="#000" stroke-width="2"/><path id="path98" class="st5" d="m70.572 529.2c-2.1081-0.35135-5.2502 1.7367-6.2741-0.46177-1.0139-2.1784 1.3954-4.5776 2.851-6.5853 3.4834-4.8185 8.3622-7.0572 14.235-6.9568 2.1282 0.0301 3.9853 0.93359 5.0494 3.0317 1.295 2.5498-0.81313 3.5236-1.9876 5.1699-3.4834 4.8587-8.2216 6.2741-13.873 5.8023z" fill="#d82a35" stroke="#000" stroke-width="2"/><path id="path100" class="st2" d="m898.91 778.55c-8.071 1.6162-15.389 3.1521-21.673-3.5135-1.3753-1.4556-2.6-2.4595-2.1081-4.5174 0.49189-2.0479 2.088-2.8008 3.9452-3.393 7.0371-2.2286 14.456 1.7969 19.836 11.424z" fill="#d82a35" stroke="#000" stroke-width="2"/><path id="path102" class="st3" d="m133.27 496.9c-3.8147 6.2842-7.7197 11.063-12.498 15.098-2.339 1.9776-5.0595 3.5336-8.2216 2.7807-3.6139-0.86332-5.3606-3.6541-2.8108-6.5753 5.8525-6.7359 13.05-11.374 23.531-11.303z" fill="#d82a35" stroke="#000" stroke-width="2"/><path id="path104" class="st3" d="m85.6 755.43c-4.5375 5.7622-9.2958 10.009-14.747 13.492-2.4293 1.556-5.0595 2.1182-7.9305 1.5961-1.7869-0.33127-3.0116-1.3351-3.3529-3.0317-0.30116-1.4857-0.64247-2.9614 1.1143-4.2363 7.1977-5.2602 14.717-9.3058 24.916-7.8201z" fill="#d82a35" stroke="#000" stroke-width="2"/><path id="path106" class="st2" d="m825.92 755.05c9.3761-0.11042 16.805 1.7367 23.26 7.3282 1.9676 1.7066 3.383 2.851 2.4795 5.4811-0.94363 2.7506-3.3027 2.9714-5.6216 2.8409-5.1799-0.30116-8.6433-3.8649-12.297-6.9367-2.7205-2.3089-5.5212-4.6178-7.8201-8.7135z" fill="#d82a35" stroke="#000" stroke-width="2"/><path id="path108" class="st3" d="m831.73 515.02c1.3552 0.3614 3.4031 0.72279 5.3104 1.4656 5.0394 1.9475 8.061 5.9128 10.089 10.721 0.36139 0.86332 0.25096 2.2286-0.86332 2.1382-5.5915-0.41158-11.916 1.4656-16.343-3.1019-2.0579-2.1182-6.6054-3.6842-4.6981-8.2216 1.034-2.4494 3.4734-2.7205 6.505-3.0016z" fill="#d82a35" stroke="#000" stroke-width="2"/><path id="path110" class="st4" d="m778.54 497.19c10.701-0.81313 17.056 5.2904 23.581 10.992 1.1846 1.034 0.8834 2.5699 0.33127 3.8348-0.78301 1.827-2.2085 2.8008-4.2965 2.8811-4.0958 0.16062-6.9266-2.1784-9.5467-4.7884-3.7243-3.6942-7.268-7.5691-10.069-12.92z" fill="#d82a35" stroke="#000" stroke-width="2"/><path id="path112" class="st6" d="m842.94 786.66c-3.1521-1.2147-8.6734 0.59228-9.607-2.7104-0.91352-3.2124 4.0456-5.5714 6.8664-7.7197 2.851-2.1683 6.2039-4.5575 9.9684-1.8672 2.4695 1.7668 2.861 4.4672 1.8873 7.3985-1.4857 4.4772-5.2 4.5776-9.1151 4.8988z" fill="#d82a35" stroke="#000" stroke-width="2"/><path id="path114" class="st2" d="m843.97 633.48c0.26101-4.4371 2.4494-7.3182 7.1375-7.529 4.9691-0.22085 8.061 2.5799 8.1212 7.3483 0.0703 4.7182-2.9413 7.8-7.8301 7.7398-4.5375-0.0703-6.9869-2.9212-7.4286-7.5591z" fill="#fdd02f" stroke="#000" stroke-width="2"/><path id="path116" class="st2" d="m780.5 526.82c4.1058-4.5475 8.0911-7.8904 13.402-9.105 3.8448-0.87337 7.1274 0.0903 7.4888 4.678 0.32124 4.1058-1.3251 7.3583-5.9429 7.7097-4.9089 0.37143-9.4765-1.3251-14.948-3.2826z" fill="#d82a35" stroke="#000" stroke-width="2"/><path id="path118" class="st2" d="m118.95 529.96c-4.688 0.53205-6.9668-0.71274-8.2417-3.5336-1.1042-2.4293-1.1544-4.9691 0.51197-7.1575 2.0479-2.6803 5.1197-2.2486 7.5691-1.2649 4.3768 1.7668 10.982 4.166 10.541 8.2819-0.41159 3.7645-7.7097 2.7606-10.38 3.6741z" fill="#d82a35" stroke="#000" stroke-width="2"/><path id="path120" class="st5" d="m68.504 786.57c-5.0093-0.11043-9.1753-1.0239-9.3761-7.017-0.16062-4.8487 2.9514-7.1375 7.6695-5.6819 4.6378 1.4355 7.6896 4.9892 10.872 8.322 1.6162 1.6965 1.1143 2.871-1.1745 3.2324-2.7405 0.42163-5.4911 0.79305-7.9907 1.1444z" fill="#d82a35" stroke="#000" stroke-width="2"/><path id="path122" class="st3" d="m52.191 633.56c0.32124-4.668 2.7506-7.3985 7.3182-7.5792 4.939-0.20078 7.9205 2.59 7.9907 7.4386 0.06023 4.4772-2.7506 7.4487-7.2378 7.6093-4.8185 0.16062-7.5591-2.6803-8.0711-7.4687z" fill="#fdd02f" stroke="#000" stroke-width="2"/><path id="path124" class="st5" d="m805.59 516.34c0.24093-5.4811 3.4031-8.0409 7.9205-8.071 4.5174-0.0402 7.2579 3.2826 7.1074 7.5992-0.14054 4.3066-3.1019 7.288-7.5892 7.2579-4.3668-0.0301-7.1877-2.4795-7.4386-6.7861z" fill="#fdd02f" stroke="#000" stroke-width="2"/><path id="path126" class="st2" d="m855.52 768.92c-0.24093-4.3668 3.132-6.3846 7.2178-6.6958 4.4973-0.35135 7.6294 2.5799 7.7297 6.9367 0.10039 4.5876-2.7907 7.8703-7.6996 7.81-4.4572-0.0602-7.1575-2.59-7.2479-8.051z" fill="#fdd02f" stroke="#000" stroke-width="2"/><path id="path128" class="st3" d="m55.815 770.96c-0.05019 3.383-2.6402 6.0533-7.2479 6.0031-4.5475-0.0502-7.3884-2.9012-7.4687-7.4286-0.07027-4.6479 2.9614-7.4687 7.4286-7.3081 4.166 0.15058 7.5189 2.2687 7.288 8.7336z" fill="#fdd02f" stroke="#000" stroke-width="2"/><path id="path130" class="st3" d="m105.71 517.02c-0.37143 3.8046-3.0919 6.1938-7.2178 6.0834-4.7884-0.1305-7.7599-3.0618-7.4788-8.0209 0.24093-4.2062 2.9514-7.007 7.2077-6.7962 4.7081 0.23088 7.5189 3.0718 7.4888 8.7336z" fill="#fdd02f" stroke="#000" stroke-width="2"/><path id="path132" class="st6" d="m620.01 952.2c5.8525 5.3004 10.229 10.149 10.611 17.367 0.11043 1.9876 0.76294 4.6579-1.7266 5.451-2.8208 0.90348-4.929-1.054-6.0734-3.4131-2.7907-5.722-3.5738-11.846-2.8108-19.405z" fill="#d82a35" stroke="#000" stroke-width="2"/><path id="path134" class="st2" d="m644.95 970.34c1.9375-0.66254 3.8247-1.566 5.8224-1.9274 2.5398-0.46178 6.0433-2.3089 7.4286 0.54208 1.1846 2.4394-1.7668 4.8788-3.4734 6.9467-2.8409 3.4332-6.5351 4.8386-11.002 4.1058-3.634-0.60232-3.0618-3.3629-3.1019-5.8425-0.35135-0.28108-0.51197-0.60232-0.48185-0.96371 0.0301-0.37143 0.0803-0.56216 0.17066-0.56216 1.1745-1.5158 2.9413-1.8371 4.6378-2.2988z" fill="#d82a35" stroke="#000" stroke-width="2"/><path id="path136" class="st7" d="m150.62 782.74c0.41159 7.2178-0.40154 13.1-2.8811 18.652-1.0741 2.4093-3.0116 4.4672-5.9128 3.7243-3.1822-0.82317-2.0278-3.8649-1.8471-5.8626 0.61235-6.8263 4.6278-11.645 10.641-16.514z" fill="#d82a35" stroke="#000" stroke-width="2"/><path id="path138" class="st7" d="m270.23 972.9c0.56216 6.6857-2.0278 8.834-8.1815 6.8062-3.9753-1.3151-10.832-9.8378-9.0548-11.022 3.7846-2.5197 7.8703-0.37143 11.705 0.92355 1.4958 0.50194 2.8911 1.295 4.3367 1.9575 1.1143-0.20078 1.5962 0.17065 1.1946 1.3351z" fill="#d82a35" stroke="#000" stroke-width="2"/><path id="path140" class="st3" d="m291.6 952.45c0.3915 6.9266-0.23089 12.368-2.2185 17.558-1.1042 2.871-3.0417 5.8626-6.495 4.9892-3.2927-0.83321-1.9274-4.3668-1.7467-6.6054 0.55212-6.5653 4.5073-11.173 10.46-15.941z" fill="#d82a35" stroke="#000" stroke-width="2"/><path id="path142" class="st8" d="m781.82 803.74c3.9552-3.9552 8.7938-5.6518 14.325-5.6819 2.4795-0.01 3.5637 0.84324 2.329 3.2626-2.1483 4.2363-5.0093 7.7699-9.9382 8.8842-5.4409 1.2348-7.1274-0.50193-6.5653-6.6054z" fill="#d82a35" stroke="#000" stroke-width="2"/><path id="path144" class="st7" d="m130.02 804.97c0.48185 6.2842-3.634 5.9027-7.6695 5.0394-4.3467-0.92355-11.685-9.4865-9.8278-10.822 3.8548-2.7907 8.1313-0.47182 12.097 0.8834 1.4656 0.50193 2.7807 1.4556 4.166 2.1985 0.21081 0.16062 0.41158 0.32123 0.62239 0.48185 0.48186 0.66255 0.72279 1.3954 0.61236 2.2185z" fill="#d82a35" stroke="#000" stroke-width="2"/><path id="path146" class="st5" d="m762.87 800.48c-1.2348-5.3305-2.5197-10.661-1.7668-16.253 7.6093 3.5838 10.822 10.38 9.868 20.68-4.4371 1.7066-7.5892 1.054-8.1012-4.427z" fill="#d82a35" stroke="#000" stroke-width="2"/><path id="path148" class="st6" d="m270.23 972.9c-0.40154-0.45173-0.79305-0.89343-1.1946-1.3452-1.2548-5.8826-2.0178-11.765 0.33128-18.23 3.8649 3.8247 6.6355 7.8502 8.2116 12.789 0.84325 2.6402 1.0942 4.9792-1.034 7.027-2.1483 2.078-4.2564 0.85328-6.3143-0.24093z" fill="#d82a35" stroke="#000" stroke-width="2"/><path id="path150" class="st8" d="m623.9 1012.9c-0.78301-7.3483-3.4834-13.492 2.1182-18.963 1.2147-1.1846 1.6865-3.6541 4.1158-2.4595 1.7969 0.8834 2.2386 2.6904 2.3792 4.6278 0.4919 6.8463-3.1722 11.484-8.6131 16.795z" fill="#d82a35" stroke="#000" stroke-width="2"/><path id="path152" class="st2" d="m640.72 972.63c-0.0301 0.51197-0.0602 1.0139-0.0904 1.5259-6.8865-0.32123-8.6834-2.6502-6.485-8.9043 1.5259-4.3568 3.9351-8.2216 8.0008-11.575 2.1683 5.0695 1.1444 10.009 1.0239 14.867-0.41159 1.6062-0.46178 3.4232-2.4494 4.0857z" fill="#d82a35" stroke="#000" stroke-width="2"/><path id="path154" class="st8" d="m764.67 841.99c-0.24093-6.8463-2.9112-12.819 2.1884-18.09 1.1243-1.1645 1.4054-3.7444 4.0355-2.5699 1.8973 0.85328 2.6803 2.5197 2.7406 4.407 0.21081 6.6656-2.9313 11.564-8.9645 16.253z" fill="#d82a35" stroke="#000" stroke-width="2"/><path id="path156" class="st7" d="m84.104 642.32c-1.5459 2.9313-2.6502 7.5591-6.495 6.5954-3.634-0.91352-7.3382-3.9552-7.4185-8.7738-0.06023-3.5135 2.1884-4.949 5.4209-4.3467 3.7846 0.70271 7.7097 1.5259 8.4927 6.5251z" fill="#d82a35" stroke="#000" stroke-width="2"/><path id="path158" class="st9" d="m781.97 803.61c-7.1977 1.2147-9.085-0.81313-7.007-7.529 1.4456-4.688 4.156-8.5128 8.061-12.287 1.9776 7.288 2.0278 13.713-1.1946 19.957-0.01-0.01 0.14054-0.14054 0.14054-0.14054z" fill="#d82a35" stroke="#000" stroke-width="2"/><path id="path160" class="st7" d="m57.913 648.61c-1.0842 3.4232-1.4958 8.1212-6.2641 8.4224-3.3529 0.21081-7.6294-2.1483-7.1475-5.7923 0.52201-3.9351 4.2263-7.2378 8.4023-8.0008 2.8811-0.53204 4.9992 1.7367 5.0093 5.3707z" fill="#d82a35" stroke="#000" stroke-width="2"/><path id="path162" class="st5" d="m288.33 1013.1c-5.5112-4.2363-7.9606-8.0309-9.1352-12.528-0.89343-3.3931-1.4656-8.0209 2.4896-8.8541 3.7645-0.78301 5.8726 3.7344 6.4649 7.027 0.75289 4.1158 0.18069 8.4625 0.18069 14.355z" fill="#d82a35" stroke="#000" stroke-width="2"/><path id="path164" class="st2" d="m62.109 617.34c0.84324-2.9313 1.1645-7.4888 5.7321-7.5691 3.2826-0.0502 7.8904 2.1683 7.3684 5.8324-0.55212 3.8247-3.8348 7.4286-8.6533 7.7197-3.7043 0.22085-4.7282-2.1583-4.4471-5.983z" fill="#d82a35" stroke="#000" stroke-width="2"/><path id="path166" class="st6" d="m146.45 842.33c-5.2904-4.9892-8.9544-9.6873-8.4927-16.534 0.13051-1.8873 0.63244-3.7143 2.6402-4.4873 2.5598-0.98378 2.861 1.5058 4.0255 2.7305 5.1097 5.3907 2.4494 11.424 1.827 18.29z" fill="#d82a35" stroke="#000" stroke-width="2"/><path id="path168" class="st5" d="m128.8 802.26c-2.3691-5.7321-1.5961-11.575-1.1344-17.809 7.8402 5.5012 10.601 12.448 7.9807 19.104-2.6602 1.1645-5.1197 1.3351-6.9668-1.4355z" fill="#d82a35" stroke="#000" stroke-width="2"/><path id="path170" class="st8" d="m250.98 993.62c2.3792-6.6255 6.1336-10.35 12.538-10.952 1.9274-0.1807 3.7143 0.32123 4.7884 2.0178 1.305 2.068-0.4417 3.132-1.5259 4.6077-3.9452 5.3707-9.5166 4.3668-15.801 4.3266z" fill="#d82a35" stroke="#000" stroke-width="2"/><path id="path172" class="st5" d="m867.48 631.8c-3.8448-0.0803-6.6757-0.8834-6.0633-4.5977 0.74286-4.4572 4.2162-7.5992 8.2317-8.1815 3.6541-0.53205 5.3205 3.5537 5.4108 6.6656 0.16061 5.4811-4.7985 5.0494-7.5792 6.1135z" fill="#d82a35" stroke="#000" stroke-width="2"/><path id="path174" class="st5" d="m843.81 609.35c4.5375 1.4757 5.1799 5.5212 5.6116 9.3359 0.33127 2.9212-1.4556 4.9691-4.6077 4.6278-4.6278-0.50193-8.0409-3.7846-8.5027-7.7799-0.45174-3.9351 4.2463-4.7684 7.4988-6.1838z" fill="#d82a35" stroke="#000" stroke-width="2"/><path id="path176" class="st2" d="m841.85 640.46c-1.7768 4.2564-4.5073 8.0811-8.4324 8.5027-3.4834 0.37143-5.9328-3.7143-5.6016-7.2378 0.4919-5.2201 5.2301-5.6216 9.2656-5.9429 3.1521-0.26101 4.0556 2.2286 4.7684 4.678z" fill="#d82a35" stroke="#000" stroke-width="2"/><path id="path178" class="st6" d="m124.76 838.05c-0.34131-4.9189-0.65251-9.0046 0.63243-13.02 0.98379-3.0819 2.5197-5.8324 6.2942-4.4772 3.7946 1.3652 4.1058 4.4973 2.7205 7.9305-1.7066 4.2463-5.1297 6.7861-9.6471 9.5668z" fill="#d82a35" stroke="#000" stroke-width="2"/><path id="path180" class="st5" d="m655.01 993.67c-4.4471 0.0602-7.9907-0.97375-10.49-4.5876-0.90348-1.305-2.4394-2.2386-1.4355-4.1259 0.8332-1.5761 2.2386-2.2687 3.9652-2.2687 5.973 0.01 10.45 2.9815 12.277 8.3421 1.7969 5.2803-3.2324 1.4556-4.3166 2.6402z" fill="#d82a35" stroke="#000" stroke-width="2"/><path id="path182" class="st8" d="m265.7 1008.2c-1.2348-5.3908-0.39151-9.6371 0.76294-13.793 0.74285-2.6904 2.5096-4.3467 5.6116-3.6842 3.4834 0.74286 4.2162 3.3127 3.6842 6.2541-0.97374 5.4409-4.9992 8.2919-10.059 11.223z" fill="#d82a35" stroke="#000" stroke-width="2"/><path id="path184" class="st7" d="m645.94 1008.6c-4.8085-3.3328-8.6433-5.9027-10.109-10.671-1.034-3.3429-0.34131-6.0734 3.2425-7.1475 3.393-1.0139 5.0294 0.99383 6.0332 4.0255 1.4154 4.2564 1.1846 8.5228 0.83321 13.793z" fill="#d82a35" stroke="#000" stroke-width="2"/><path id="path186" class="st2" d="m853.75 648.7c-0.15058-3.3529 1.5158-5.0796 4.3166-5.5614 2.4896-0.42162 9.7274 6.1035 9.105 8.3722-0.9336 3.4232-3.9452 5.6417-7.1575 5.5012-4.949-0.22085-5.4409-4.7684-6.2641-8.312z" fill="#d82a35" stroke="#000" stroke-width="2"/><path id="path188" class="st6" d="m304.36 968.21c-2.6904 6.1738-6.5753 10.059-11.263 13.221-2.2988 1.556-4.7583 1.9475-6.6958-0.58224-2.1784-2.851 0.75289-3.6741 2.0981-5.3606 3.7544-4.688 8.9143-6.0734 15.861-7.278z" fill="#d82a35" stroke="#000" stroke-width="2"/><path id="path190" class="st5" d="m59.339 616.6c0.19073 3.9552-0.8834 6.9166-4.166 6.6656-4.8587-0.36139-6.6054-4.678-7.0672-8.7236-0.45174-4.0154 2.9313-5.6317 6.3243-5.4208 5.2402 0.33127 4.2463 4.9691 4.9089 7.4788z" fill="#d82a35" stroke="#000" stroke-width="2"/><path id="path192" class="st8" d="m868.03 633.62c3.9853 0.39151 8.4726-0.17066 8.1815 5.3406-0.16062 3.0417-1.8371 6.3243-5.4911 5.7321-3.9552-0.63244-8.7236-1.9776-8.9143-6.9467-0.1305-3.4734 3.1722-4.668 6.224-4.1259z" fill="#d82a35" stroke="#000" stroke-width="2"/><path id="path194" class="st6" d="m851.28 650.38c-0.89344 3.4633-0.11042 8.1313-5.461 8.0409-3.0618-0.0502-6.1938-1.6062-5.8726-5.3004 0.36139-4.1761 2.0981-8.5027 6.8062-8.9846 3.6842-0.38147 4.3969 3.1822 4.5274 6.244z" fill="#d82a35" stroke="#000" stroke-width="2"/><path id="path196" class="st5" d="m606.9 969.02c8.1413-0.79305 13.171 3.3128 17.879 8.0309 1.3954 1.3954 1.044 3.0618-0.17065 4.2965-1.6664 1.6965-3.7645 1.5861-5.7019 0.43166-5.0093-3.0216-8.4826-7.4386-12.006-12.759z" fill="#d82a35" stroke="#000" stroke-width="2"/><path id="path198" class="st2" d="m44.451 631.82c-3.7946-0.79305-8.4224-1.1645-8.2116-6.2842 0.12046-2.8811 2.0077-7.2378 5.6517-6.5352 3.8548 0.73282 7.4185 3.7344 7.9305 8.3421 0.42162 3.7444-2.329 4.417-5.3707 4.4772z" fill="#d82a35" stroke="#000" stroke-width="2"/><path id="path200" class="st2" d="m851.79 618.05c1.3552-3.4934-0.51197-8.7838 5.5112-8.9344 3.2726-0.0903 6.4448 1.7066 6.234 4.9992-0.261 4.0757-2.339 8.2819-6.8865 9.1552-3.383 0.64247-4.3266-2.5197-4.8587-5.2201z" fill="#d82a35" stroke="#000" stroke-width="2"/><path id="path202" class="st6" d="m786.16 837.77c-4.0857-2.5197-7.3583-5.0695-9.0348-9.0147-1.3853-3.2525-1.3753-6.6556 2.4896-8.1012 4.2363-1.5961 5.9328 1.5761 6.5452 4.929 0.68263 3.7544 1.6965 7.6193 0 12.187z" fill="#d82a35" stroke="#000" stroke-width="2"/><path id="path204" class="st2" d="m65.121 643.86c3.7745 1.3753 5.7521 4.7684 6.4448 8.6533 0.67259 3.7645-2.329 5.4309-5.451 5.8023-5.0193 0.58224-5.3205-3.2023-5.5413-6.8263-0.21081-3.3529-0.35135-6.6556 4.5475-7.6294z" fill="#d82a35" stroke="#000" stroke-width="2"/><path id="path206" class="st2" d="m835.13 633.11c-4.8687-0.42162-8.7236-0.80309-8.4425-5.6116 0.18069-3.0517 1.7869-6.234 5.6216-5.5915 3.895 0.65252 8.2216 2.4595 8.573 6.7761 0.36139 4.2162-3.4834 4.7382-5.7521 4.427z" fill="#d82a35" stroke="#000" stroke-width="2"/><path id="path208" class="st2" d="m43.749 633.58c3.3228-0.21081 6.3946 1.0641 5.7923 4.7182-0.71274 4.3066-4.929 5.9429-8.7637 6.3645-4.0355 0.4417-5.5815-2.9012-5.4409-6.2842 0.23089-5.4811 4.9189-4.1761 8.4124-4.7985z" fill="#d82a35" stroke="#000" stroke-width="2"/><path id="path210" class="st7" d="m766.82 807.75c-0.72278 6.4348-4.7382 5.3907-8.2116 3.0216-4.2664-2.9112-7.8402-6.766-10.209-12.137 4.8587 0.30115 8.8039 1.827 12.659 3.6741 2.6301 1.0641 4.3166 3.122 5.7622 5.4409z" fill="#d82a35" stroke="#000" stroke-width="2"/><path id="path212" class="st2" d="m77.428 632.98c-3.7946 0.22085-7.3182-0.26101-6.8564-4.2564 0.51197-4.3768 4.6378-6.1436 8.5027-6.7962 3.8046-0.64247 5.3707 2.3792 5.5212 5.5614 0.25097 5.4409-4.0857 5.1297-7.1676 5.4911z" fill="#d82a35" stroke="#000" stroke-width="2"/><path id="path214" class="st5" d="m110.25 823.58c3.0919-6.9266 6.8162-10.781 13.371-10.812 1.5058-0.01 3.1923 0.22085 4.0154 2.0579 0.86332 1.9073-0.47182 2.7707-1.3753 4.1158-3.8348 5.7421-9.627 3.8649-16.012 4.6378z" fill="#d82a35" stroke="#000" stroke-width="2"/><path id="path216" class="st2" d="m163.63 797.93c-2.9815 5.7421-6.505 9.5869-10.691 12.799-2.2386 1.7066-5.1398 2.9012-7.3382 0.32124-2.4896-2.9112 0.84324-4.0556 2.339-5.9027 3.8046-4.6981 9.2556-5.3606 15.69-7.2178z" fill="#d82a35" stroke="#000" stroke-width="2"/><path id="path218" class="st10" d="m178.42 910.35c2.5398-2.349 5.2502-3.885 8.6232-1.6363 2.3792 1.5861 3.2726 3.9151 2.4293 6.6054-1.1344 3.634-4.0154 4.7483-7.5691 4.5776-6.4649-2.9313-6.9668-4.3066-3.4834-9.5467z" fill="#fdd02f" stroke="#000" stroke-width="2"/><path id="path220" class="st4" d="m800 823.12c-5.5112 0.1807-11.063 1.2147-14.937-4.3467-0.80309-1.1444-1.9475-2.0278-1.4656-3.5537 0.58224-1.817 2.2085-2.1684 3.8348-2.4093 5.4811-0.81313 10.631 3.3328 12.568 10.31z" fill="#d82a35" stroke="#000" stroke-width="2"/><path id="path222" class="st8" d="m728.07 907.64c3.4432 0.71274 5.8324 2.5799 5.5313 6.485-0.29112 3.8348-2.8108 5.8525-6.4548 5.5915-3.383-0.24092-5.4108-2.6904-5.3506-6.0633 0.0904-3.7344 2.3189-5.8124 6.2741-6.0131z" fill="#fdd02f" stroke="#000" stroke-width="2"/><path id="path224" class="st6" d="m303.22 990.94c-3.9653 2.1683-6.8162 2.7104-9.7776 3.0116-2.7305 0.27105-5.1297-0.0201-6.2139-2.9313-0.74285-1.9977-0.84324-4.0656 0.95367-5.712 2.349-2.1583 4.8386-1.0942 7.007 0.10038 2.5398 1.3954 4.7985 3.2726 8.0309 5.5313z" fill="#d82a35" stroke="#000" stroke-width="2"/><path id="path226" class="st8" d="m283.47 982.85c-0.49189 3.6842-2.2085 6.1537-5.7321 5.9228-3.5436-0.24093-6.1436-2.5297-5.732-6.2741 0.34131-3.122 2.4896-5.6116 6.0533-5.21 3.2525 0.36139 5.3606 2.349 5.4108 5.5614z" fill="#fdd02f" stroke="#000" stroke-width="2"/><path id="path228" class="st11" d="m161.12 821.34c-3.5938 2.0579-6.7962 2.3892-9.9483 2.6904-2.2286 0.22085-3.9352-0.85328-4.9591-2.9614-0.89343-1.8371-0.79305-3.5236 0.40155-5.1598 1.5259-2.088 3.7544-1.7467 5.6317-1.1243 3.4834 1.1544 6.5853 3.0618 8.8741 6.5552z" fill="#d82a35" stroke="#000" stroke-width="2"/><path id="path230" class="st6" d="m750.28 821.09c2.0479-2.8911 4.668-4.3869 7.2981-5.722 2.2587-1.1444 4.8788-1.7969 7.017 0.33128 1.4556 1.4456 1.3452 3.4332 0.64247 5.1699-1.1042 2.7506-3.4834 3.644-6.1938 3.0517-2.8409-0.61235-5.983-0.46177-8.7637-2.8309z" fill="#d82a35" stroke="#000" stroke-width="2"/><path id="path232" class="st7" d="m633.96 977.12c3.4031 0.64247 5.4811 2.6402 5.3907 6.0232-0.0903 3.4131-2.3992 5.5313-5.712 5.5815-3.8749 0.0602-5.6618-2.4996-5.5614-6.224 0.0903-3.7444 2.861-4.7583 5.8826-5.3807z" fill="#fdd02f" stroke="#000" stroke-width="2"/><path id="path234" class="st5" d="m608.88 991.33c2.9012-3.4432 5.8525-5.5413 9.3761-6.7359 3.0919-1.044 5.6819-0.29112 6.1838 3.2425 0.46178 3.2726-0.68263 6.0432-4.6178 6.1336-3.634 0.0903-7.1776-0.56216-10.942-2.6402z" fill="#d82a35" stroke="#000" stroke-width="2"/><path id="path236" class="st7" d="m142.53 812.94c-0.5722 3.3629-2.1583 5.8124-5.712 5.722-3.4232-0.0903-5.471-2.2788-5.4811-5.7019-0.01-3.5135 2.1081-5.471 5.6116-5.4309 3.4834 0.0301 5.3707 1.9876 5.5815 5.4108z" fill="#fdd02f" stroke="#000" stroke-width="2"/><path id="path238" class="st8" d="m774.34 807.45c3.5537 0.0301 5.8124 2.0378 5.9128 5.3104 0.10039 3.1923-1.9274 5.7019-5.3907 5.8927-3.5336 0.20077-5.4209-1.9575-5.6919-5.4108-0.28108-3.6541 1.7166-5.4108 5.1699-5.7923z" fill="#fdd02f" stroke="#000" stroke-width="2"/><path id="path240" class="st12" d="m740.79 911.97c0.20078 0.39151 0.30116 0.96371 0.61236 1.1344 2.7606 1.4757 7.4487 1.4456 5.19 6.7259-1.4054 3.2826-3.7143 3.4131-6.7158 1.9676-4.5274-2.1784-5.6116-4.8386-1.8873-8.7236 0.14054-0.15058-0.25097-0.81313-0.40155-1.2348 1.1042-0.83321 2.1684-0.84324 3.2023 0.1305z" fill="#d82a35" stroke="#000" stroke-width="2"/><path id="path242" class="st8" d="m740.2 927.56c-0.94364 2.6703-2.9815 4.5375-5.4008 4.668-4.2162 0.23089-4.688-3.5336-5.3305-6.5653-0.51197-2.3892 0.86333-4.2564 3.2124-4.2162 3.905 0.0602 5.5313 3.4131 7.5189 6.1135z" fill="#d82a35" stroke="#000" stroke-width="2"/><path id="path244" class="st13" d="m172.95 921.44c-2.9012 0.82316-6.1537 3.0016-8.0309-1.3351-2.7405-6.3444 4.2263-5.3205 6.3243-8.0209 0.52201-0.60232 1.1745-0.82317 1.9575-0.64247 5.0193 5.2904 4.9992 6.2842-0.25096 9.9985z" fill="#d82a35" stroke="#000" stroke-width="2"/><path id="path246" class="st14" d="m726.18 901.83c-0.21081 2.4996-1.2749 4.4371-3.7846 4.0958-3.4834-0.46178-6.2942-3.0317-6.6556-6.1738-0.36139-3.1521 3.2124-4.6579 5.8626-4.5676 3.9251 0.1305 3.5436 4.1259 4.5776 6.6456z" fill="#d82a35" stroke="#000" stroke-width="2"/><path id="path248" class="st13" d="m196.2 913.45c-1.5761 0.1305-4.3066-0.36139-4.1158-3.2324 0.24092-3.6842 3.4834-5.1598 6.7861-5.5915 2.871-0.37143 4.3367 1.9073 4.4572 4.2162 0.23089 4.1962-3.122 4.3668-7.1274 4.6077z" fill="#d82a35" stroke="#000" stroke-width="2"/><path id="path250" class="st15" d="m727.39 927.11c-0.51197 3.0116-0.49189 6.3344-4.3367 6.0934-2.5297-0.16062-5.21-1.4757-4.4772-4.7382 0.63244-2.8409 1.9174-6.1738 5.2301-6.3946 3.1421-0.21081 3.8147 2.61 3.5838 5.0394z" fill="#d82a35" stroke="#000" stroke-width="2"/><path id="path252" class="st15" d="m180.09 921.35c2.3892 1.9475 2.1282 4.4371 1.2649 6.9166-0.69266 1.9575-1.6764 4.0255-4.0958 4.1158-2.1884 0.0803-3.9652-1.3151-5.1297-3.0216-2.1081-3.0819 1.6363-4.2263 2.4093-6.3846 1.2649-2.5197 3.0517-3.2826 5.5514-1.6263z" fill="#d82a35" stroke="#000" stroke-width="2"/><path id="path254" class="st10" d="m198.14 925.99c-3.2224-1.0641-5.5714-3.1019-6.3544-6.4147-0.60232-2.5197 1.0741-3.9552 3.4131-3.885 3.2124 0.0903 6.756 0.53205 7.1174 4.6579 0.22085 2.6201-1.4757 4.6278-4.1761 5.6417z" fill="#d82a35" stroke="#000" stroke-width="2"/><path id="path256" class="st8" d="m189.2 906.03c-2.7004-0.17066-3.905-1.6363-3.6741-4.0255 0.28109-2.9313 0.56217-6.4649 4.2765-6.7259 2.6703-0.19074 6.0633 1.4054 5.7622 4.5274-0.32124 3.1722-3.2525 5.2502-6.3645 6.224z" fill="#d82a35" stroke="#000" stroke-width="2"/><path id="path258" class="st16" d="m732.15 894.56c2.6602 0.35135 5.1598 1.3853 4.9792 3.9954-0.23089 3.2224-1.9375 6.5251-5.3707 7.2077-2.7707 0.55213-3.8247-2.0077-3.6842-4.5575 0.15058-2.9614 0.22085-6.1336 4.0757-6.6456z" fill="#d82a35" stroke="#000" stroke-width="2"/><path id="path260" class="st6" d="m173.39 911.94c-0.71275 0.0402-1.4355 0.0903-2.1483 0.1305-2.9514-0.0602-5.7722-0.73282-6.1436-4.146-0.22085-2.068 1.1243-4.5174 2.9714-5.0996 4.0757-1.2849 5.7722 2.4695 8.0309 4.8186 0.39151 2.2587 1.6865 5.0795-2.7104 4.2965z" fill="#d82a35" stroke="#000" stroke-width="2"/><path id="path262" class="st8" d="m719.7 919.73c-0.91351 2.9413-3.0718 5.6518-6.2541 6.0432-2.7907 0.35136-4.5074-2.8409-4.4572-5.1398 0.0803-4.0154 3.6239-4.7382 6.9166-4.949 2.4193-0.15057 3.8247 1.1042 3.7946 4.0456z" fill="#d82a35" stroke="#000" stroke-width="2"/><path id="path264" class="st17" d="m183.23 900.82c0.11042 2.4595-0.38147 5.2803-3.2124 4.9691-3.4834-0.39151-5.2-3.5738-5.6116-6.8765-0.36139-2.851 1.9475-4.1359 4.3266-4.2664 4.3367-0.25096 4.156 3.2425 4.4973 6.1738z" fill="#d82a35" stroke="#000" stroke-width="2"/><path id="path266" class="st10" d="m740.79 911.97c-1.0641-0.0402-2.1382-0.0803-3.2023-0.12046-3.1521-1.1344-2.9012-3.3931-1.2348-5.3205 1.6865-1.9475 3.3931-4.949 6.495-4.0054 2.1382 0.65251 3.5336 3.0317 3.3429 5.5112-0.24092 3.1822-2.7104 3.8247-5.4008 3.9351z" fill="#d82a35" stroke="#000" stroke-width="2"/><path id="path268" class="st8" d="m187.66 921.85c2.861 1.2548 4.6579 3.5537 5.0394 6.7058 0.41159 3.3429-2.078 4.7382-4.678 4.6077-3.5838-0.18069-3.7444-3.2927-3.9151-6.1537-0.15058-2.6602 0.67259-4.4873 3.5537-5.1598z" fill="#d82a35" stroke="#000" stroke-width="2"/><path id="path270" class="st14" d="m713.4 913.32c-2.9714-0.22085-5.5714-0.99383-5.0795-4.7483 0.33127-2.4795 1.7568-4.417 4.5575-3.8448 3.1521 0.64248 6.5853 2.0178 6.4247 5.7521-0.13051 3.2626-3.383 2.9212-5.9027 2.8409z" fill="#d82a35" stroke="#000" stroke-width="2"/><path id="path286" class="st0" d="m455.54 936.8c-1.8973-7.5189-3.2525-14.526-5.4309-21.262-9.4865-29.222-32.254-42.564-62.42-36.531-11.113 2.2185-22.025 5.3305-31.23 12.408-2.1182 1.6262-3.5637 1.2348-5.5012-0.0301-66.024-43.005-114.44-98.7-128.98-178.86-4.4772-24.685-1.1745-49.32 0.32124-73.985 3.6942-61.226 5.5112-122.44-3.5436-183.42-2.4795-16.694-6.2039-33.138-12.759-48.778-1.4255-3.3931-1.3853-5.6216 1.1243-8.5529 23.842-27.968 47.523-56.086 71.224-84.174 1.7066-2.0178 2.871-3.8348 6.0131-1.3954 13.151 10.179 27.666 10.159 42.704 4.9992 2.8108-0.96371 5.451-2.2386 8.6433-2.078 46.76 2.4093 67.319-28.731 73.322-62.129 2.0479-11.424 3.2324-22.918 1.9977-34.493-0.40155-3.7344 0.50193-4.6178 4.2162-4.7483 19.445-0.66255 19.435-0.77298 19.435 18.371 0 33.298-0.1305 66.606 0.1305 99.904 0.0402 5.4409-1.3452 6.9869-6.8463 6.7861-32.425-1.2147-64.538-4.0857-95.327-15.319-2.7305-0.99383-4.1058-0.19074-5.8324 1.7467-23.209 26.08-46.469 52.11-69.789 78.09-1.8572 2.078-2.7004 4.0255-2.0077 6.8263 7.3684 29.604 8.4324 59.911 9.2155 90.167 1.2649 49.28-1.1143 98.469-4.6178 147.62-1.6262 22.858-1.7266 45.756 1.1143 68.564 2.1282 17.156 7.5189 33.148 16.212 48.195 22.396 38.799 53.416 68.704 92.124 90.93 3.7344 2.1483 6.5753 2.1884 10.711 0.32124 51.197-23.199 102.46-24.896 153.48 0.60231 2.9714 1.4857 4.9892 1.3753 7.5992-0.10038 45.595-25.719 80.891-61.216 102.35-109.35 7.9205-17.758 8.7838-37.203 9.6873-56.387 1.2147-25.709-1.8571-51.267-3.1722-76.886-2.8911-56.156-4.3568-112.3 0.80309-168.41 1.0741-11.725 2.8108-23.41 5.8726-34.804 0.85328-3.1822 0.16061-5.0695-1.8873-7.3483-23.019-25.629-46.007-51.287-68.805-77.107-2.8208-3.2023-4.9691-3.1822-8.7436-1.8772-30.919 10.641-63.033 13.723-95.487 14.486-3.3128 0.0803-4.3668-0.93359-4.3568-4.2865 0.10039-38.849 0.0803-77.699 0.0201-116.55 0-2.851 0.64247-4.2463 3.8247-4.1259 6.0031 0.22085 13.241-1.9475 17.688 0.7027 4.7081 2.8008 1.1645 10.47 1.3552 15.971 0.60232 17.527 3.383 34.503 11.595 50.173 11.645 22.236 30.357 33.609 55.273 34.412 7.4386 0.24093 14.496 1.044 21.643 3.3228 13.231 4.2263 26.08 2.9714 37.565-5.4409 2.7205-1.9977 3.9653-1.7166 6.0433 0.7529 23.802 28.309 47.714 56.528 71.646 84.726 1.7969 2.1182 2.5097 3.8649 1.3351 6.7761-11.334 27.968-15.098 57.501-17.357 87.276-4.3467 57.11-1.8873 114.13 2.5197 171.13 5.0193 64.85-17.829 120.01-59.469 168.37-19.907 23.109-43.497 42.012-68.995 58.626-3.4332 2.2386-5.461 1.827-8.9846-0.34131-16.875-10.36-35.256-14.948-55.002-11.123-18.561 3.5938-29.694 15.731-35.898 33.037-2.8108 7.8-4.427 15.931-6.3745 24.595z" fill="#c9b875" stroke="#c9b875" stroke-width="4"/><path id="path288" class="st0" d="m345.53 927.5c-13.422-7.1575-25.046-14.937-36.41-23.129-23.872-17.206-45.595-36.832-66.375-57.682-31.752-31.853-50.454-70.029-58.535-113.95-5.6618-30.768-8.9344-61.677-8.6834-93.008 0.35135-43.236 0.50193-86.473 0.21081-129.71-0.22085-34.302-9.7174-65.251-33.047-91.643-29.283-33.127-61.396-63.454-91.874-95.377-4.3066-4.5174-8.6533-9.0046-13.181-13.291-2.4394-2.3089-2.2687-3.7745 0.11042-6.1035 37.685-36.852 75.33-73.734 112.82-110.79 3.4633-3.4232 4.8185-1.295 6.9668 0.95367 16.775 17.548 33.609 35.035 50.354 52.602 1.566 1.6363 2.61 3.7745 4.5977 5.2 2.7606-9.2656 4.6077-17.829 8.0008-25.93 9.9081-23.681 24.334-42.955 50.073-51.137 4.417-1.4054 8.9243-2.2788 13.552-2.6703 18.812-1.6062 33.148 5.8525 39.803 23.31 9.4765 24.836 10.761 50.474 2.2085 75.982-4.2664 12.709-12.89 21.693-25.88 26.03-11.063 3.6942-21.252 0.43166-26.562-9.868-7.5892-14.737-8.4124-30.156-0.91352-45.284 4.8085-9.6973 13.321-13.653 23.942-13.331 4.8286 0.15057 8.7135 2.3591 10.46 6.756 3.3931 8.5328 3.0718 17.297-1.0641 25.478-1.5259 3.0216-4.4772 7.8602-7.6394 0.56217-1.6965-3.9251-5.3205-1.9274-7.9004-1.7066-3.5537 0.30116-1.4255 3.2626-1.1243 4.8888 1.9475 10.741 12.398 13.793 21.101 6.2541 11.253-9.7475 11.283-37.103 0.0502-46.78-9.7074-8.3521-28.409-6.5151-39.412 3.8649-17.849 16.855-17.537 56.277 0.98379 72.499 3.8849 3.4031 3.4633 5.0093 0.51197 8.4726-24.605 28.831-48.988 57.853-73.583 86.694-2.871 3.3629-3.4834 5.8023-1.5259 10.179 10.902 24.344 14.757 50.404 17.126 76.665 5.6518 62.621 2.3892 125.12-2.1081 187.68-2.9212 40.596 7.7197 78.763 26.462 114.62 24.283 46.449 60.533 81.755 103.96 110.16 4.0556 2.6602 5.8525 4.4471 2.7004 9.4363-4.3266 6.8965-2.7506 14.656-0.1807 23.089z" fill="#fbeccf" stroke="#fbeccf" stroke-width="4"/><path id="path290" class="st0" d="m564.67 926.86c3.9351-6.9668 4.6278-14.185 1.0942-21.011-2.4294-4.688-0.43166-6.2139 3.0819-8.4826 28.349-18.28 53.837-39.894 75.27-66.034 34.071-41.56 54.349-88.661 56.778-142.86 0.70271-15.55-1.6262-30.919-2.61-46.368-3.5838-56.136-5.4108-112.26 0.79305-168.32 2.6703-24.123 6.6757-48.075 17.447-70.22 1.8371-3.7846-0.522-5.4911-2.3792-7.6796-24.314-28.791-48.537-57.642-73.061-86.252-3.6741-4.2865-4.8386-6.3745 0.0301-11.163 16.232-15.981 16.112-52.442 0.46177-69.016-8.6734-9.1853-19.575-11.846-31.682-9.8378-4.8888 0.81313-8.9645 3.5738-12.076 7.5691-7.9907 10.27-7.2077 32.746 1.4958 42.343 3.8548 4.2463 8.6734 6.2742 14.315 5.1197 5.1598-1.0641 7.4888-5.1699 8.4324-9.9382 0.32124-1.6262 2.078-4.7583-1.2749-4.9189-2.6301-0.12047-6.6355-2.5398-8.0108 2.2185-1.6263 5.6016-4.2965 2.7004-6.3243 0.66255-5.7622-5.7822-6.0332-24.103-0.46178-30.046 5.2301-5.5614 11.876-4.6479 18.13-2.7606 12.247 3.7043 16.965 13.693 18.732 25.167 1.566 10.169 0.66255 20.358-3.7745 29.845-5.7321 12.257-16.654 16.684-29.232 11.856-19.003-7.288-25.97-23.139-28.791-41.6-2.5498-16.664-1.1444-33.238 2.6502-49.561 6.2139-26.753 25.759-38.659 52.412-32.274 26.673 6.3846 42.313 24.856 53.094 48.597 4.1861 9.2155 6.8965 18.903 8.5027 29.022 2.8811-0.74286 4.0255-2.9212 5.5614-4.5174 17.036-17.618 34.071-35.236 50.926-53.034 2.6803-2.8309 4.0556-2.9313 6.8965-0.14054 37.213 36.681 74.507 73.282 111.99 109.69 3.8046 3.6942 2.1282 5.3004-0.55213 8.0209-28.088 28.47-56.186 56.939-84.073 85.619-7.7297 7.9406-14.697 16.614-22.115 24.866-22.577 25.127-30.437 55.584-30.698 88.25-0.38147 47.172 0.67259 94.353 0.22085 141.51-0.35135 36.38-5.451 72.248-14.988 107.47-8.9243 32.947-26.482 60.663-49.721 85.218-29.243 30.899-61.707 57.762-98.208 79.646-2.4193 1.4656-4.6178 3.9151-8.2819 3.3328z" fill="#fbeccf" stroke="#fbeccf" stroke-width="4"/><path id="path292" class="st0" d="m434.22 413.45c-3.0818-10.039-5.5915-19.887-6.1838-30.056-0.14054-2.3691 0.24093-4.5776-3.393-4.5876-3.0216-0.01-3.5035 1.4054-3.2525 3.8147 0.25097 2.4293-0.90348 3.2023-3.2525 3.1521-2.2687-0.0502-3.5537-0.79306-3.3529-3.2023 0.21082-2.4695-0.40154-3.8348-3.3529-3.7544-2.6502 0.0803-3.0818 1.3954-2.9313 3.4934 0.21082 2.8309-1.3452 3.4432-3.8448 3.4533-2.861 0.01-2.861-1.8371-2.6803-3.6942 0.30116-3.132-1.546-3.2023-3.8649-3.2124-2.7406 0-2.7907 1.6664-2.8309 3.6641-0.15058 8.834-2.7807 17.307-3.7544 26.01-0.48186 4.3066-2.0479 6.2641-6.4649 5.4911-4.6378-0.81313-5.1799 1.7568-5.1598 5.6417 0.1305 28.67-0.0502 57.341 0.19073 86.011 0.0402 4.9792-1.3853 8.7537-4.407 12.538-8.8039 11.002-17.527 22.095-25.88 33.439-2.7707 3.7645-5.6518 5.19-10.28 5.1197-6.1236-0.0803-14.285-2.8409-17.819 1.2548-3.0216 3.5135-1.044 11.434-1.0842 17.407-0.0803 11.956-0.0201 11.956-11.886 11.956-9.9382 0-19.887-0.27104-29.815 0.11042-4.8386 0.19074-6.244-1.1143-6.0232-6.0633 1.5359-34.192 1.9073-68.403 0.1807-102.61-1.0942-21.714-2.7205-43.357-7.2077-64.679-0.73282-3.4834-0.43166-5.8726 2.088-8.6533 20.007-22.105 39.894-44.331 59.629-66.687 3.1019-3.5135 5.6016-4.6378 10.51-3.122 29.353 9.085 59.639 12.247 90.237 12.578 5.2904 0.0602 6.5352 1.4958 6.4448 6.5954-0.32124 17.568-0.11043 35.145-0.14054 52.713 0.01 1.9776-0.27105 3.9251-0.42163 5.8826z" fill="#457a1c" stroke="#457a1c" stroke-width="4"/><path id="path294" class="st0" d="m477.17 413.1c0-20.298 0.0803-40.596-0.0602-60.894-0.0401-5.3004 3.6541-3.6842 6.244-3.7444 26.863-0.63243 53.867-1.9876 79.456-10.199 13.673-4.3869 20.86-1.0039 29.273 9.2757 16.232 19.836 33.91 38.498 51.036 57.612 2.068 2.3089 3.6039 4.3969 2.851 7.9205-7.0873 32.957-8.1112 66.446-8.3822 99.985-0.19073 23.119-0.261 46.248 1.0139 69.347 0.23089 4.1359-0.96371 5.1297-4.8587 5.0595-11.554-0.21081-23.119-0.24093-34.673 0.01-4.156 0.0904-5.7521-0.96371-5.5112-5.3807 0.36139-6.9166-0.0703-13.873 0.17065-20.8 0.12047-3.5537-0.8834-5.2602-4.6077-4.668-0.45173 0.0703-0.93359-0.0703-1.3853 0.0201-16.212 3.1019-27.897-2.8108-35.376-17.487-1.2348-2.4294-3.0718-4.688-5.0494-6.5853-13.01-12.518-17.136-27.436-15.911-45.505 1.4857-22.095 0.27105-44.371 0.42163-66.566 0.0301-4.2764-0.30116-7.4888-5.7722-6.4749-3.9452 0.73282-5.2-1.4154-5.6919-4.8587-1.2448-8.6834-2.6803-17.337-3.9753-26.01-0.29112-1.9274 0.60232-4.2764-2.8208-4.3266-2.6703-0.0401-3.8649 0.76294-3.5537 3.5236 0.25097 2.2286-0.61235 3.3429-3.0919 3.4232-2.7506 0.0803-3.8348-0.98378-3.5537-3.6239 0.23089-2.2286-0.4417-3.4432-3.0216-3.3128-2.1382 0.11043-3.6541 0.45174-3.4934 3.0317 0.15058 2.3591-0.35135 3.9452-3.3429 3.9151-3.3128-0.0401-2.9815-2.1985-2.9413-4.2463 0.0602-2.8811-1.9475-2.5096-3.7946-2.6602-2.7506-0.23089-2.8208 1.4255-2.9012 3.4734-0.37143 10.541-3.2927 20.629-4.6981 30.999-0.67258-0.0904-1.3351-0.17066-1.9977-0.25097z" fill="#457a1c" stroke="#457a1c" stroke-width="4"/><path id="path296" class="st0" d="m525.79 719.8c-16.815 7.7799-14.566 21.944-14.144 35.336 0.10038 3.3529 2.3591 4.6278 5.1799 2.4093 3.6842-2.9012 8.0108-3.4131 12.317-3.9653 1.4255-0.18069 3.9552-2.1282 4.3969 1.044 0.29112 2.068 1.0942 4.6178-1.6865 6.1236-4.0154 2.1784-6.8664 5.3907-8.051 9.9282-0.0602 0.22085-0.12046 0.58224-0.25096 0.6224-10.039 3.0116-5.2402 11.283-5.7923 17.367-0.36139 4.0355-1.0239 5.4911-5.4209 5.461-36.751-0.18069-73.503-0.17065-110.25-0.01-4.2564 0.0201-5.8826-1.1344-5.4008-5.451 0.33128-2.9714 0.10039-6.0031 0.0502-9.0147-0.0502-3.2124-0.4417-4.9892-4.0355-7.5591-4.3166-3.0919-7.4989-9.0448-11.324-13.673-1.8772-2.2687-0.95367-6.4046 4.3869-4.9792 3.9753 1.0641 8.1714 1.1544 11.695 3.8046 3.2927 2.4795 5.461 0.78301 5.6016-2.7305 0.52201-13.251 2.1182-27.034-14.094-34.583 3.5838-1.6062 6.1938-2.6402 8.6934-3.9151 9.5166-4.8788 11.524-9.3359 10.059-19.917-1.2147-8.7938-1.0942-17.668 3.0718-25.779 3.4131-6.6355 1.3452-11.554-3.7544-15.861-6.6456-5.6116-14.556-8.9444-22.697-11.534-4.2865-1.3653-6.4147-2.9714-6.1236-7.9908 0.33127-5.9128-1.0139-11.856 6.9668-14.154 2.7606-0.79305 4.1058-4.2062 5.3205-7.007 0.52201-1.2046 0.15058-3.3328 1.7467-3.4633 6.1838-0.47181 4.2965-5.1598 3.9954-8.2216-0.56216-5.7923 1.3351-7.2479 7.1475-7.2077 36.29 0.29112 72.579 0.20078 108.87 0.0803 4.1158-0.01 6.3645 0.47182 6.0934 5.5313-0.5722 10.5 6.6154 17.297 14.164 21.975 7.1676 4.4371 2.4093 9.7977 3.6641 14.536 1.1042 4.156-2.5197 4.6479-5.3305 5.6216-7.8703 2.7305-15.6 5.7722-22.266 10.932-6.9568 5.3807-7.9707 9.4062-4.5174 17.317 3.3228 7.6394 4.1158 15.66 3.0417 23.771-1.7367 13.12 0.5722 17.517 12.88 22.808 1.4757 0.64247 2.9915 1.2147 5.8023 2.349z" fill="#31c4fa" stroke="#31c4fa" stroke-width="4"/><path id="path298" class="st0" d="m456.16 450.92c20.79 0 41.58 0.1305 62.37-0.10039 4.4873-0.0502 5.8224 1.1243 5.7521 5.7019-0.27104 17.558-0.01 35.125-0.1807 52.683-0.0402 3.9151 0.95367 7.007 3.4131 10.099 10.189 12.839 20.338 25.729 30.086 38.91 3.2124 4.3467 6.5853 6.0834 12.026 5.973 16.855-0.34132 16.664-0.11043 16.885 16.704 0.0602 4.9691-0.90348 6.6958-6.3344 6.6355-27.024-0.3112-54.058-0.27104-81.082-0.0201-4.9591 0.0502-6.224-1.4255-6.0433-6.1938 0.36139-9.6873 0.24093-19.405 0.0803-29.112-0.37143-21.764-16.744-38.428-37.414-38.247-20.71 0.1807-36.731 16.975-36.892 38.759-0.0803 9.9382-0.20077 19.876 0.0803 29.805 0.11043 4.0355-1.295 4.9691-5.1097 4.939-26.793-0.15058-53.596-0.14054-80.389-0.01-3.6842 0.0201-5.5012-0.64247-5.2-4.8486 0.41158-5.7421-1.7768-12.94 0.93359-16.905 3.0016-4.3768 10.641-1.2247 16.242-1.546 3.0618-0.18069 5.0294-1.1042 6.9066-3.5637 10.781-14.144 21.673-28.198 32.676-42.162 2.1683-2.7506 2.7506-5.5915 2.7305-8.9545-0.10038-17.327 0.22085-34.663-0.20077-51.99-0.14054-5.732 1.7969-6.746 6.9869-6.6757 20.559 0.29112 41.118 0.12047 61.677 0.12047z" fill="#fbeccf" stroke="#fbeccf" stroke-width="4"/><path id="path300" class="st0" d="m493.86 5.0193c-8.8842 13.482-19.799 31.486-21.244 47.015-0.51197 5.5614-0.85531 9.3518-0.14257 14.893 1.4556 11.233 2.3873 7.5767 13.861 6.7134 18.471-1.3853 33.382-20.605 47.356-33.966l0.24304 119.26c-13.171-13.04-33.311-27.27-50.959-31.536-15.771-3.8147-11.134-8.9972-11.134 6.8839 0 94.102 2.4773 195.61 2.7082 289.71 0.0201 6.4749-14.225 4.0322-20.409 3.8615-15.289-0.43166-15.469 2.6354-15.4-12.894l1.2443-279.64c0.0394-8.874 0-8.834-8.5027-7.5591-17.849 2.6703-27.557 7.101-41.16 18.836-1.8371 1.5861-10.457 8.5576-12.987 10.796l0.24297-123.5c2.4394-0.16062 16.706 24.168 18.171 25.382 13.773 11.444 18.217 14.72 36.266 15.353 6.0734 0.21081 6.1474-1.4173 6.7698-6.9687 2.2888-20.479-2.6684-34.157-13.5-51.714-0.95367-1.5459-6.9794-8.7001-8.3246-10.929z" fill="#ed0d08" stroke="#000" stroke-width="3.5"/><path id="path302" class="st0" d="m339.27 679.17c-7.9908 2.6402-14.566 4.0656-20.238 7.8502-9.4363 6.2942-11.936 13.351-8.9143 24.173 2.6301 9.4363 7.2178 17.949 11.765 26.482 2.329 4.3668 5.973 7.539 10.641 9.5166 5.2703 2.2386 6.2742 10.48 1.6564 13.853-3.2626 2.3892-5.963 5.0695-7.1776 9.0247-0.20077 0.65251-0.41158 1.7768-0.77297 1.8371-9.5869 1.6263-4.2564 9.1753-5.6216 14.034-0.74286 2.6301 1.9876 6.9166-1.8772 7.7398-4.1861 0.90348-9.0749 1.7568-12.418-3.2224-4.6278-6.8965-9.7375-13.462-14.626-20.188-19.455-26.783-23.47-57.582-23.47-89.504 0-26.843 3.1521-53.526 3.9351-80.319 0.12046-3.9954 1.2348-5.6116 5.6317-5.5112 12.709 0.31119 25.428 0.261 38.127 0.0201 4.156-0.0803 5.7019 0.98379 5.5112 5.3908-0.47181 10.771 6.7761 17.447 14.626 22.346 5.0394 3.1521 3.5436 6.7259 3.0216 9.9282-0.56216 3.4633-4.2865 1.6463-6.3544 1.1745-5.5012-1.2749-11.123-1.6162-16.132-5.451-4.2664-3.2626-5.5915 0.61236-6.0633 4.678-2.5799 22.316 3.5236 39.462 28.751 46.148z" fill="#31c4fa" stroke="#31c4fa" stroke-width="4"/><path id="path304" class="st0" d="m576.3 679.61c3.7544-1.7768 6.7058-3.0317 9.5367-4.5274 12.297-6.495 19.365-16.092 18.24-30.658-0.34132-4.3668 0.0703-8.8039-0.35136-13.161-0.38146-3.8849-2.9614-5.6919-6.1336-2.8811-4.9189 4.3668-11.063 4.2564-16.795 5.5915-1.6463 0.38147-4.8587 1.9073-5.1799-1.0239-0.34131-3.0618-2.4896-7.5089 1.6263-9.3259 5.5313-2.4394 7.3483-8.2718 11.113-11.263 5.6417-4.4973 4.8788-9.1251 4.939-14.355 0.0301-2.61 1.4054-2.9614 3.5135-2.9514 12.95 0.0402 25.89 0.0301 38.839 0 2.0981 0 3.4834 0.42162 3.5637 2.9815 1.1344 38.98 6.9266 77.799 1.9977 117-3.7846 30.096-19.104 53.948-37.153 76.826-2.3591 3.0016-5.4108 2.3591-8.2216 2.0077-3.5838-0.4417-1.8571-3.634-2.0378-5.6317-0.27104-2.9815-0.01-6.0031-0.0903-9.0147-0.0803-2.9614 1.0139-5.7822-4.1259-6.8463-3.2726-0.67259-3.0216-7.6595-6.9367-9.4363-5.5714-2.5297-4.7884-7.1074-4.8988-11.615-0.0402-1.827 0.50193-2.861 2.4695-3.4734 7.9104-2.4695 11.986-8.5128 15.409-15.741 3.3629-7.1074 6.8363-14.094 9.0147-21.673 2.8008-9.7475 0.62239-16.092-7.5591-22.306-5.8525-4.4371-12.809-6.1738-20.78-8.5228z" fill="#31c4fa" stroke="#31c4fa" stroke-width="4"/><path id="path306" class="st0" d="m594.67 802.17c-16.925 17.859-34.934 32.033-54.881 43.829-2.4695 1.4656-4.2363 0.43166-6.3846-0.55212-51.127-23.37-102.37-22.025-153.59-0.37143-4.0556 1.7166-6.9568 1.7668-10.761-0.58224-18.903-11.695-36.179-25.297-52.231-42.313 92.847-0.01 184.58-0.01 277.85-0.01z" fill="#fff" stroke="#fff" stroke-width="4"/><path id="path308" class="st0" d="m573.94 160.09c-45.023 31.923-47.734 109.17-11.675 144.42-14.225-0.28108-27.938-7.7398-37.002-20.158-6.6556-9.105-10.45-19.405-12.749-30.367-3.1622-15.078-3.8548-30.266-1.2548-45.425 4.5676-26.663 20.76-42.684 47.302-47.212 4.7282-0.80309 9.4965-1.9374 15.379-1.2548z" fill="#fbeccf" stroke="#fbeccf" stroke-width="4"/><path id="path310" class="st0" d="m348.19 160.96c27.415 1.9375 46.77 18.772 51.779 46.338 3.905 21.503 2.0479 42.795-6.2039 63.213-8.1012 20.027-22.727 31.933-45.826 34.774 20.72-21.332 27.305-46.629 25.699-74.487-1.6162-28.028-12.036-51.819-34.573-69.517 2.9915-1.4556 6.0533-0.97375 9.1251-0.32124z" fill="#fbeccf" stroke="#fbeccf" stroke-width="4"/><path id="path312" class="st0" d="m233.62 183.14c10.27-14.084 24.856-20.77 41.359-24.133 34.744-7.0772 64.167 5.8425 79.155 34.934 10.35 20.087 11.896 41.439 8.1112 63.374-2.7907 16.152-9.4062 30.548-22.045 41.279-11.986 10.179-25.819 14.847-42.042 10.721 0.62239-0.85328 0.91351-1.7266 1.4054-1.8572 23.631-6.3946 35.085-23.48 39.482-46.077 4.0757-20.951 2.8911-41.951-3.2626-62.35-9.2355-30.618-33.84-43.216-65.773-34.573-12.98 3.5135-23.942 10.52-34.111 19.013-0.85328 0.56217-1.6062 0.45174-2.2788-0.33127z" fill="#fbeccf" stroke="#fbeccf" stroke-width="4"/><path id="path314" class="st0" d="m670.73 179.36c-12.287-8.9946-25.578-15.6-41.008-16.985-26.653-2.3992-45.636 9.2958-53.576 34.794-7.1776 23.059-8.6031 46.76-2.2988 70.431 5.3104 19.927 16.895 34.101 37.544 39.602 0.60232 0.16062 1.0942 0.71274 1.7066 1.1344-12.036 5.3104-30.718 0.96371-42.423-9.9784-13.04-12.197-19.876-27.586-22.145-45.063-2.6703-20.559-1.1946-40.626 8.6734-59.338 11.253-21.322 28.439-34.402 52.924-36.149 23.3-1.6564 45.144 2.1182 62.531 19.656 0.34131 1.6363-0.29112 2.2788-1.9274 1.8973z" fill="#fbeccf" stroke="#fbeccf" stroke-width="4"/><path id="path316" class="st0" d="m517.81 1063c-28.289-4.3066-46.971-21.724-51.327-49.751-4.2965-27.677-5.3104-55.624 0.55212-83.371 0.6224-2.9313 1.2448-5.8726 2.1182-8.7336 8.3722-27.757 27.285-38.518 55.724-31.883 6.2541 1.4556 12.227 3.5436 17.849 6.8263-6.8463-0.75289-13.602-1.827-20.378-0.25096-15.188 3.5336-25.809 12.719-32.646 26.532-6.6857 13.512-9.3359 28.028-9.5166 42.885-0.21081 17.809 1.3954 35.487 6.3946 52.723 5.983 20.64 13.663 31.903 31.23 45.023z" fill="#fbeccf" stroke="#fbeccf" stroke-width="4"/><path id="path318" class="st0" d="m455.43 587.38c-8.071 0-16.142-0.1305-24.203 0.0602-3.4031 0.0803-4.9591-0.65251-4.8687-4.5174 0.261-11.063-0.21081-22.145 0.261-33.198 0.71275-16.453 13.592-28.279 29.895-28.058 16.062 0.21082 28.54 12.679 28.881 29.152 0.22085 10.37-0.22085 20.76 0.19073 31.12 0.19074 4.8988-1.7568 5.6618-5.9529 5.5112-8.061-0.261-16.132-0.0703-24.203-0.0703z" fill="#cc9000" stroke-width="1.0039"/><path id="path320" class="st0" d="m396.53 1060.4c14.124-9.5266 22.175-23.4 26.753-39.241 8.4023-29.082 11.213-58.525 2.2185-88.039-5.6417-18.521-16.574-32.334-36.45-37.133-7.1074-1.7166-14.164-0.84324-21.262 0.34132 13.773-7.2077 28.209-10.842 43.658-7.6896 12.659 2.5799 21.372 10.27 26.512 22.145 5.7722 13.331 8.0409 27.395 9.0649 41.741 1.546 21.764 1.1645 43.568-3.5035 64.85-5.19 23.681-20.148 38.87-44.16 44.451-1.4556 0.5421-2.9714 1.1946-2.8309-1.4255z" fill="#fbeccf" stroke="#fbeccf" stroke-width="4"/><path id="path326" class="st0" d="m455.39 443.25c-20.559 0-41.108-0.15058-61.667 0.11042-4.7784 0.0602-6.7761-1.1243-6.1537-6.0934 0.37143-2.9614-0.10039-6.0131 0.12046-8.9946 0.20078-2.7807-1.7467-6.8564 4.0355-6.6355 4.146 0.16061 8.1112-0.34132 7.0672 5.8626-0.50193 2.9614 0.97375 4.0757 3.9653 3.9954 6.0031-0.16062 12.016-0.1807 18.009 0.01 3.2224 0.10038 4.1761-1.4255 3.7544-4.1861-0.72278-4.7583 1.4757-5.722 5.8425-5.7521 4.2664-0.0301 5.973 1.1645 5.3104 5.4409-0.60232 3.895 1.6062 4.5475 4.929 4.4973 10.159-0.14055 20.328-0.22085 30.487 0.0301 4.0456 0.10039 5.5212-1.3552 4.9591-5.1799-0.65251-4.4371 1.9575-4.6981 5.4008-4.7182 3.6741-0.0301 6.505 0.17065 5.6919 5.0294-0.7027 4.2162 1.6463 5.0394 5.3004 4.8386 4.3768-0.24093 8.7938-0.32124 13.161 0.01 5.0695 0.39151 8.4324-0.12046 7.6394-6.6857-0.58224-4.8286 3.6942-2.7606 5.983-3.0317 2.3992-0.28108 5.451-0.79305 4.949 3.4232-0.0301 0.23088-0.01 0.46177 0 0.69266 1.0139 17.337 1.0139 17.337-16.122 17.337h-52.663z" fill="#fbeccf" stroke="#fbeccf" stroke-width="4"/><path id="path328" class="st25" d="m514.4 678.39c18.571 9.4062 38.508 5.3305 57.511 8.4425 2.2687 0.37143 4.5375 0.78301 6.766 1.3452 20.84 5.21 25.056 15.62 13.793 33.74-0.99382 1.6062-1.5259 2.6703-3.5336 1.295-10.711-7.3182-23.009-7.3182-35.266-7.6494-10.159-0.28109-20.288-0.98379-29.945-4.6579-9.346-3.5537-10.27-5.3707-9.4263-15.038 0.4919-5.4811 0.10039-11.032 0.10039-17.477z" fill="#fff" stroke="#fff" stroke-width="4"/><path id="path330" class="st25" d="m399.43 685.85c0.34131 3.905 0.1305 7.9606 1.1645 11.675 1.7568 6.3544-1.2749 9.5267-6.3745 11.926-11.163 5.2402-23.149 5.8626-35.165 6.1336-12.327 0.27105-24.504 0.95367-35.356 8.824-3.9954-6.1436-6.2942-12.87-7.4788-19.716-1.1243-6.495 4.0556-9.9483 8.9846-12.609 9.1452-4.929 19.264-6.244 29.453-6.4548 14.556-0.30116 29.082-0.49189 42.945-5.8023 4.3066 0.8834 1.6965 3.8649 1.827 6.0232z" fill="#fff" stroke="#fff" stroke-width="4"/><path id="path332" class="st25" d="m554.13 1046.6c-0.95367 7.2178-4.678 10.48-10.902 11.063-13.773 1.2849-24.826-3.9251-33.439-14.486-9.617-11.785-14.175-25.779-16.744-40.466-3.6842-21.061-5.3205-42.202 0.60232-63.163 3.6541-12.93 9.2656-24.655 22.075-31.24 12.167-6.2541 25.448-4.3568 34.312 5.0394 5.19 5.5112 5.461 8.9545 0.83321 16.684-2.068-10.972-7.7197-17.598-18.913-18.672-10.812-1.044-18.903 2.871-24.444 12.137-5.4409 9.105-7.9406 19.174-8.9344 29.574-2.0981 21.914-2.8811 43.859 3.5035 65.291 4.4572 14.968 11.745 27.656 28.751 31.421 7.9807 1.7568 15.449 0.3715 23.3-3.1822z" fill="#fbeccf" stroke="#fbeccf" stroke-width="4"/><path id="path334" class="st25" d="m356.76 1047c25.217 9.8981 44.039-2.7004 50.805-25.046 9.0046-29.744 8.6433-59.69 0.01-89.444-2.7104-9.3259-7.8402-17.527-17.989-20.459-14.275-4.1259-24.645 2.0579-29.413 17.015-4.6579-5.3807-4.7382-9.2355-0.28108-14.666 8.312-10.149 22.657-12.558 35.286-6.1035 12.327 6.3043 18.602 17.287 21.734 29.885 7.9104 31.742 5.21 62.932-8.1112 92.757-8.4324 18.873-23.219 28.038-39.833 26.863-6.5251-0.4518-10.952-3.2124-12.207-10.802z" fill="#fbeccf" stroke="#fbeccf" stroke-width="4"/><path id="path336" class="st0" d="m568.52 651.91c0 6.6857-0.51197 13.422 0.15058 20.047 0.63244 6.3444-1.8471 7.6093-7.288 6.3243-1.556-0.36139-3.2023-0.35135-4.8185-0.46178-13.683-0.90347-13.653-0.90347-13.402-14.355 0.21082-11.063 0.4919-22.135 0.41159-33.198-0.0301-4.2162 0.82316-5.9629 5.6417-5.983 18.451-0.0903 18.461-0.28108 18.863 17.949 0.0703 3.2224 0.01 6.4548 0.01 9.6873 0.14054-0.01 0.29112-0.01 0.43166-0.01z" fill="#fff" stroke="#fff" stroke-width="4"/><path id="path338" class="st0" d="m346.71 651.47c0-7.3684 0.19074-14.747-0.0803-22.105-0.14054-3.9853 1.295-4.949 5.1498-5.0394 18.983-0.4417 19.003-0.56216 19.365 18.09 0.19073 9.8981 0.12046 19.816 0.52201 29.704 0.16061 4.0054-0.54209 5.8626-5.1197 5.5915-4.7985-0.28108-9.6973 0.0201-14.456 0.71274-4.7382 0.69266-6.5552-0.30116-6.1738-5.5413 0.52201-7.0973 0.1305-14.265 0.1305-21.412h0.66255z" fill="#fff" stroke="#fff" stroke-width="4"/><path id="path340" class="st0" d="m519.86 1007.1c5.4008 0.1807 12.378 1.285 18.943 4.4672 5.8224 2.8309 10.219 7.007 12.679 13.03 3.7745 9.2455 1.5962 13.823-8.3019 15.74-9.4464 1.8271-17.819-0.7228-24.002-8.5328-3.7544-4.7483-5.9931-10.29-7.7298-16.052-2.7606-9.1351-2.6502-9.3158 8.4124-8.6533z" fill="#fbeccf" stroke="#fbeccf" stroke-width="4"/><path id="path342" class="st0" d="m370.66 1040.9c-3.4131-0.04-9.7074-1.1745-12.378-5.993-2.6-4.6981 0.5722-10.37 3.6541-14.707 7.0672-9.9784 17.819-12.247 29.112-13.06 11.243-0.803 11.544-0.4216 8.0409 10.199-5.2 15.761-13.763 23.49-28.429 23.561z" fill="#fbeccf" stroke="#fbeccf" stroke-width="4"/><path id="path344" class="st0" d="m541.5 739.93c0.71274-4.8286-2.2988-12.97 1.566-16.092 3.6039-2.9112 11.354-0.80309 17.276-0.73282 9.366 0.12047 9.356 0.1807 9.4765 9.4062 0.0903 7.1475 0.01 14.295 0.3614 21.432 0.18069 3.7645-0.66255 5.6718-4.8286 5.1599-2.2687-0.28109-4.5977-0.0502-6.9066-0.0502-17.738 0.01-17.738 0.01-16.945-19.124z" fill="#fff" stroke="#fff" stroke-width="4"/><path id="path346" class="st0" d="m373 740.96c0 5.7421 2.2487 13.392-0.58224 16.744-3.3429 3.9452-11.233 1.2046-17.136 1.305-11.253 0.20077-11.213 0.0602-10.802-11.213 0.23089-6.2139 0.54208-12.438 0.38147-18.652-0.10039-3.9853 0.91351-6.0031 5.2803-5.9529 6.4448 0.0803 12.9-0.0903 19.334-0.43166 2.9915-0.16062 3.4332 1.2749 3.393 3.6842-0.0703 4.8386-0.0201 9.6772-0.0201 14.516h0.15057z" fill="#fff" stroke="#fff" stroke-width="4"/><path id="path348" class="st25" d="m555.35 793.84c-8.5429 0-17.096-0.3112-25.619 0.11043-5.4209 0.27104-4.7683-3.0819-4.417-6.1537 0.35135-3.0116-2.4595-7.79 4.3467-7.6996 17.548 0.23089 35.095 0.20078 52.633 0.01 6.3745-0.0703 3.8749 4.4371 4.0154 7.2579 0.14054 2.7104 1.8772 6.756-3.9452 6.5452-8.9946-0.30116-18.009-0.0703-27.014-0.0703z" fill="#fff" stroke="#fff" stroke-width="4"/><path id="path350" class="st25" d="m358.94 793.85c-8.7738 0-17.558-0.28108-26.321 0.0903-6.2741 0.27104-4.1761-4.0556-4.2764-6.9768-0.10039-3.0919-1.5761-6.9969 4.4873-6.8865 17.307 0.31119 34.633 0.33127 51.95-0.01 6.6958-0.1305 4.3869 4.2965 4.6278 7.4487 0.261 3.383 1.034 6.8564-4.8487 6.4749-8.5027-0.56216-17.076-0.14054-25.619-0.14054z" fill="#fff" stroke="#fff" stroke-width="4"/><path id="path352" class="st25" d="m500 391.87c11.263 0 11.253 0 12.95 10.972 0.35135 2.2788 0.72278 4.5575 1.2548 6.8062 0.76293 3.2525-0.20078 4.8888-3.7344 4.3768-3.6641-0.53205-5.19 1.0942-4.6077 4.668 0.76293 4.678-1.7668 5.1598-5.6216 5.2-3.9351 0.0402-6.2842-0.59228-5.4911-5.21 0.62239-3.6239-1.0139-5.1297-4.6378-4.668-3.6842 0.47181-5.0494-0.84325-3.7946-4.6579 0.71275-2.1583 0.79305-4.5274 1.2247-6.7962 1.9876-10.691 1.9977-10.691 12.458-10.691z" fill="#fbeccf" stroke="#fbeccf" stroke-width="4"/><path id="path354" class="st25" d="m411.85 423.64c-4.5274 1.044-6.4649-0.71274-5.722-5.3707 0.54209-3.3629-1.044-4.7081-4.2965-4.2363-3.8448 0.55212-4.9792-1.1344-4.0255-4.7081 0.23089-0.8834 0.22085-1.8371 0.38147-2.7405 2.6-14.757 2.61-14.405 17.457-14.887 5.732-0.19073 7.7799 1.807 8.2216 7.007 0.25097 2.9815 0.87336 5.9328 1.5058 8.8641 0.8834 4.0857 1.0641 7.3985-4.8386 6.5151-3.6641-0.55213-3.5236 2.2386-3.2324 4.5174 0.55213 4.3668-1.2147 5.973-5.451 5.0394z" fill="#fbeccf" stroke="#fbeccf" stroke-width="4"/><path id="path356" class="st26" d="m555.58 603.63c-8.7838 0-17.568-0.12047-26.341 0.0602-3.4131 0.0703-4.9992-0.69267-4.949-4.5575 0.0502-3.6239 1.6965-4.1359 4.678-4.1259 17.788 0.0703 35.587 0.0903 53.375-0.0201 3.1521-0.0201 4.4371 0.72278 4.4973 4.1962 0.0602 3.8649-1.4958 4.5977-4.929 4.5174-8.7637-0.20078-17.548-0.0703-26.331-0.0703z" fill="#fff" stroke="#fff" stroke-width="4"/><path id="path358" class="st26" d="m358.8 595.04c8.7738 0 17.548 0.0502 26.321-0.0301 2.7707-0.0201 4.8888-0.0301 4.8085 3.8649-0.0703 3.4332-0.81313 4.8687-4.6178 4.8386-17.778-0.18069-35.557-0.14054-53.345-0.0301-3.1722 0.0201-4.5676-0.79305-4.5375-4.2363 0.0201-3.2425 0.98379-4.5174 4.3568-4.4572 9.0046 0.16062 18.009 0.0502 27.014 0.0502z" fill="#fff" stroke="#fff" stroke-width="4"/><path id="path360" class="st25" d="m595.8 638.67c2.1382 16.584-1.6865 24.273-14.717 30.517-3.5938 1.7166-5.6317 1.9575-5.3104-2.9112 0.0803-1.1444-0.12046-2.2988-0.0502-3.4432 0.37143-6.766-3.1622-15.429 1.1745-19.756 3.905-3.885 12.428-3.122 18.903-4.407z" fill="#fff" stroke="#fff" stroke-width="4"/><path id="path362" class="st25" d="m338.52 656.26c0 3.0016-0.22085 6.0232 0.0502 9.0046 0.56216 6.2641-2.1282 5.6016-6.2641 3.3931-11.384-6.0934-15.47-13.753-14.335-26.612 0.29112-3.2525 1.1344-4.0958 4.166-2.7807 1.4556 0.63243 3.132 0.76293 4.7081 1.1042 12.408 2.7104 12.408 2.7104 11.675 15.891z" fill="#fff" stroke="#fff" stroke-width="4"/><path id="path364" class="st25" d="m379.22 661.93c-0.76293-14.094-0.73282-14.144 12.297-8.0711 3.3128 1.546 6.6154 3.2826 9.5869 5.3907 5.21 3.6842 5.2301 6.6255 0.1305 10.089-5.5915 3.8046-12.006 5.5915-18.582 6.9367-2.4695 0.51197-3.4432-0.19073-3.4332-2.6 0.01-3.9251 0-7.8402 0-11.745z" fill="#fff" stroke="#fff" stroke-width="4"/><path id="path366" class="st25" d="m535.77 676.6c-8.5027-0.76294-15.459-2.9815-21.794-6.8062-5.7822-3.4834-5.9328-6.5853-0.69267-10.45 5.7822-4.2764 12.488-6.7359 19.114-9.346 3.0718-1.2046 3.4533 0.36139 3.4131 2.9614-0.10039 7.79-0.0402 15.58-0.0402 23.641z" fill="#fff" stroke="#fff" stroke-width="4"/><path id="path368" class="st25" d="m384.75 938.71c-2.068 0-4.1359 0.0502-6.1938-0.01-3.4533-0.10039-7.6796 1.295-8.1012-4.4973-0.3915-5.3506-0.0301-10.28 5.9429-12.468 9.6371-3.5236 21.312 4.2865 22.296 14.596 0.27104 2.871-1.5158 2.2988-2.9212 2.339-3.6741 0.10039-7.3483 0.0301-11.022 0.0402z" fill="#fbeccf" stroke="#fbeccf" stroke-width="4"/><path id="path370" class="st25" d="m512.19 938.7c3.2224-13.803 9.7576-19.264 20.208-17.397 6.8965 1.2348 10.832 9.5869 7.4487 15.6-0.82317 1.4656-1.9274 1.7969-3.383 1.7969-8.051-0.01-16.102 0-24.273 0z" fill="#fbeccf" stroke="#fbeccf" stroke-width="4"/><path id="path372" class="st27" d="m556.47 609.81c6.6757 0 13.351-0.01 20.017 0.01 1.3151 0.01 3.2324-0.40155 3.4332 1.3151 0.12047 1.0741-1.034 2.4595-1.9073 3.4432-1.8471 2.0579-4.4471 2.2286-6.9969 2.2386-10.129 0.0301-20.248 0.0602-30.377-0.0201-1.807-0.01-3.7042-0.28108-5.3807-0.91351-1.9575-0.74286-4.0757-2.3591-3.8147-4.4371 0.37143-3.0317 3.3027-1.4958 5.0193-1.546 6.6556-0.21081 13.331-0.0903 20.007-0.0903z" fill="#fff" stroke="#fff" stroke-width="4"/><path id="path374" class="st28" d="m359.63 609.8c6.4448 0 12.9-0.0402 19.344 0.0301 1.4958 0.01 3.7143-0.70271 4.1259 1.3452 0.3112 1.5259-1.2448 2.8309-2.5197 3.895-1.9174 1.6062-4.2263 1.7367-6.5251 1.7467-10.139 0.0402-20.268 0.0502-30.407-0.01-1.5961-0.01-3.2726-0.14054-4.7583-0.67259-2.2286-0.79305-4.6278-2.4595-4.3768-4.7784 0.3112-2.9012 3.3228-1.4255 5.0695-1.4757 6.6757-0.19073 13.361-0.0803 20.047-0.0803z" fill="#fff" stroke="#fff" stroke-width="4"/><path id="path376" class="st26" d="m396.17 748.98c-15.55-3.3328-15.56-3.3328-15.951-19.083-0.0502-2.0378-0.01-4.0857-0.01-6.1537 12.759 2.4494 17.246 9.4463 15.961 25.237z" fill="#fff" stroke="#fff" stroke-width="4"/><path id="path378" class="st27" d="m333.97 772.96c2.0178-5.3104 5.3807-6.6656 9.5969-6.6656 10.149-0.01 20.308-0.0401 30.457 0.0301 1.566 0.01 3.1822 0.40154 4.688 0.90347 2.0479 0.67259 4.2965 2.078 4.0255 4.1962-0.3915 3.0216-3.3529 1.4255-5.0494 1.4456-14.295 0.16062-28.59 0.0903-43.718 0.0903z" fill="#fff" stroke="#fff" stroke-width="4"/><path id="path380" class="st27" d="m531.03 772.96c1.6062-5.0695 4.949-6.9969 9.0548-6.5653 13.311 1.3954 27.556-3.9653 40.024 3.6842-0.0502 0.96371-0.10039 1.9274-0.16062 2.8911h-24.273c-7.9908-0.01-16.002-0.01-24.645-0.01z" fill="#fff" stroke="#fff" stroke-width="4"/><path id="path382" class="st25" d="m533.87 722.96c0 7.0471-0.18069 13.01 0.0703 18.963 0.15057 3.6239-1.2448 5.0695-4.7182 4.8386-0.45174-0.0301-0.91351 0.1305-1.3652 0.16061-3.2425 0.16062-7.9205 3.5738-9.2556 0.82317-1.9475-4.0355-1.4757-9.4464 0.8834-13.954 2.9614-5.6518 8.2116-8.2417 14.385-10.832z" fill="#fff" stroke="#fff" stroke-width="4"/><path id="path384" class="st18" d="m577.18 725.47c2.6201 1.1042 4.417 1.5761 5.8726 2.5498 1.8873 1.2548 5.19 2.0378 3.4934 5.461-1.556 3.122-3.8348 5.8425-7.4487 6.5954-2.0579 0.43166-1.8672-1.5158-1.8873-2.7907-0.0803-3.6239-0.0301-7.2479-0.0301-11.815z" fill="#fff" stroke="#fff" stroke-width="4"/><path id="path386" class="st29" d="m337.59 732.76c-1.6162 2.3089 1.7166 6.9266-2.6301 6.9367-3.5637 0-7.007-3.8046-7.1676-7.268-0.17065-3.634 4.3166-5.6517 7.3583-5.7421 4.7282-0.14054 3.4888 4.9956 2.4394 6.0734z" fill="#fff" stroke="#fff" stroke-width="4"/><path id="path388" class="st30" d="m670.73 179.36c0.64248-0.63244 1.295-1.2649 1.9375-1.8973 2.3892 1.6262 4.4471 3.5035 5.5614 7.1073-3.9653-0.41158-5.5714-3.0618-7.4989-5.21z" stroke="#fbeccf" stroke-width="4"/><path id="path392" class="st25" d="m233.62 183.14c0.76294 0.11042 1.5259 0.22085 2.2888 0.33127-1.4857 2.088-3.0216 4.1259-5.9027 5.6216 0.41158-3.0618 2.0077-4.5073 3.6139-5.9529z" stroke="#fbeccf" stroke-width="4"/><path id="path398" class="st2" d="m240.71 692.09c2.0378 8.3923 5.983 13 15.871 10.842-9.085 4.5977-9.9282 10.721-5.9027 18.652-6.6155-5.3907-12.719-7.7398-19.365 0.41159 2.8811-8.051 3.4633-14.616-6.0934-18.692 9.095 0.91352 14.415-1.817 15.49-11.213z" fill="#1f4beb" stroke-width="1.0039"/><path id="path400" class="st2" d="m680.99 721.5c-6.8363-7.1073-12.94-5.6718-19.575 0.16062 3.6239-7.81 3.8749-14.235-5.9128-18.411 9.366 1.2247 14.265-2.088 15.51-11.153 2.4996 7.7297 5.5012 13.572 15.64 10.541-7.3182 5.0093-10.41 10.46-5.6618 18.863z" fill="#1f4beb" stroke-width="1.0039"/><path id="path402" class="st3" d="m678.22 488.64c-6.7861-6.1637-12.91-7.2378-19.435 0.52201 3.1722-8.0209 4.0958-14.666-5.9429-18.652 9.0448 0.72278 14.486-2.0278 15.62-11.605 1.566 8.9645 6.2641 12.488 15.359 11.374-8.3722 4.3969-9.2456 10.47-5.6016 18.361z" fill="#1f4beb" stroke-width="1.0039"/><path id="path404" class="st4" d="m650.74 373.1c-8.0209-3.4934-8.0209-3.4934-20.107 0.46178 4.9792-7.6595 4.0757-13.452-5.2904-17.387 9.4162 0.87336 14.877-2.2888 15.781-11.906 1.9676 8.2919 5.3205 13.924 15.59 11.253-6.5954 4.5676-10.741 9.4865-5.973 17.578z" fill="#1f4beb" stroke-width="1.0039"/><path id="path406" class="st3" d="m232.4 488.9c5.3004-8.2919 5.1398-14.205-4.5676-18.21 8.322-0.32123 15.138-1.2749 15.148-11.785 2.7004 7.6996 5.9228 13.713 16.122 11.243-8.9544 4.7282-9.5969 10.781-5.0695 18.602-10.27-5.21-10.27-5.21-21.633 0.15058z" fill="#1f4beb" stroke-width="1.0039"/><path id="path408" class="st4" d="m270.37 343.64c5.1799 11.293 5.1799 11.293 17.076 12.337-8.3822 3.9853-11.354 9.346-7.2378 18.009-6.8162-7.7799-12.94-4.407-19.455-0.12047 5.1498-8.332 2.349-13.542-5.5714-17.939 9.627 1.4456 14.466-2.5297 15.188-12.287z" fill="#1f4beb" stroke-width="1.0039"/><path id="path410" class="st4" d="m277.26 810.92c9.888 2.1884 13.703-2.6502 15.47-11.324 1.6664 8.7336 5.6317 13.361 15.48 11.273-9.1352 4.5375-9.1452 11.143-5.9128 19.174-6.4147-7.3483-12.448-7.3483-19.244-0.40155 3.5236-8.0209 3.2726-14.446-5.7923-18.722z" fill="#1f4beb" stroke-width="1.0039"/><path id="path412" class="st3" d="m470.81 859.09c-7.539 7.6796-7.539 7.6796-4.9792 19.063-6.6757-7.2178-12.89-7.4286-19.294-0.0502 2.068-12.076 2.068-12.076-5.5714-18.993 3.7846-0.41159 7.4386 0.0402 10.159-1.3452 3.122-1.5961 2.4795-6.1838 4.5977-9.346 3.2826 2.2988 1.8572 7.5792 4.9992 9.1151 2.851 1.3954 6.5351 1.0842 10.089 1.556z" fill="#1f4beb" stroke-width="1.0039"/><path id="path414" class="st4" d="m604.14 811.64c11.123-1.7568 11.123-1.7568 15.399-12.639 1.9776 8.322 5.0695 14.516 15.5 11.665-8.2317 4.6981-10.149 10.731-5.7923 18.933-6.4448-5.8525-12.478-7.4587-19.445-0.24093 3.7444-8.2819 2.9313-14.235-5.6618-17.718z" fill="#1f4beb" stroke-width="1.0039"/><path id="path416" class="st4" d="m504.78 297.15c1.566 9.1653 6.1436 12.558 15.459 11.113-9.6873 4.4672-8.573 11.504-5.7622 19.324-6.1537-7.3282-12.307-7.81-19.194-0.23089 2.088-11.946 2.088-11.946-6.5251-19.525 9.356 1.6764 14.847-1.1544 16.022-10.681z" fill="#1f4beb" stroke-width="1.0039"/><path id="path418" class="st4" d="m652.18 584.38c9.356 2.1182 13.211-3.0016 15.219-11.344 1.3452 8.9846 5.6216 13.03 15.229 11.344-8.4525 4.2564-9.5568 10.3-5.8023 18.451-6.746-6.9568-12.839-6.2742-19.063 0.63243 1.9174-12.348 1.9174-12.348-5.5815-19.083z" fill="#1f4beb" stroke-width="1.0039"/><path id="path420" class="st4" d="m392.46 308.29c8.8742 1.6162 13.472-2.0479 14.666-11.334 2.068 8.322 5.8927 13.512 15.48 11.223-4.2865 4.3367-10.51 6.8965-6.7259 14.205 1.0039 1.9274-1.3251 3.4332-2.6301 1.9274-6.0332-6.9668-10.099 0.15058-14.948 1.9174 1.2046-11.354 1.2046-11.354-5.8425-17.939z" fill="#1f4beb" stroke-width="1.0039"/><path id="path422" class="st4" d="m260.15 584.35c-4.6378 4.2765-10.41 7.0973-6.6154 14.275 0.71274 1.3552-0.92356 3.2726-2.1182 2.0479-6.1938-6.2641-10.942-1.044-16.905 2.068 4.7884-7.8 4.1058-13.833-5.0695-17.417 4.2564-2.3892 8.7537 0.39151 11.173-2.4494 2.0378-2.3892 2.6502-5.9931 4.7483-11.153 1.2348 9.9583 5.4209 14.566 14.787 12.629z" fill="#1f4beb" stroke-width="1.0039"/><path id="path424" class="st33" d="m433.93 483.11c0 0.23089 0.0201 0.46178 0 0.69267-0.51197 6.5753 3.0016 16.042-1.3452 19.003-4.9089 3.3429-13.713 0.89343-20.82 1.1344-2.9413 0.10039-4.0456-0.8834-4.0054-3.9351 0.14054-10.832 0.16061-21.663-0.01-32.485-0.0502-3.3931 1.1946-4.427 4.427-4.3266 5.983 0.17065 11.986 0.19073 17.969-0.01 3.112-0.10039 3.9452 1.1143 3.8448 4.0255-0.19074 5.3004-0.0602 10.601-0.0602 15.901z" stroke-width="1.0039"/><path id="path426" class="st33" d="m503.91 484.09c0 5.3104-0.13051 10.621 0.0502 15.921 0.10039 2.9915-0.97375 4.2865-3.9552 3.905-0.23089-0.0301-0.46178 0.01-0.69266 0-6.8664-0.36139-15.65 2.8209-20.047-1.1745-4.1259-3.7444-0.80309-12.629-1.2247-19.234-0.01-0.23089 0-0.46178 0-0.69267 0-21.954-0.01-21.874 22.205-19.656 3.1923 0.32124 3.7645 1.6162 3.7143 4.3066-0.12046 5.5413-0.0502 11.083-0.0502 16.624z" stroke-width="1.0039"/><path id="path516" class="st58" d="m426.63 483.82c0 2.068-0.1305 4.156 0.0301 6.2139 0.32124 4.1158 0.01 6.7962-5.5714 6.8062-5.5212 0.01-5.8626-2.5096-5.6417-6.6958 0.24093-4.5876 0.3112-9.2255-0.0201-13.803-0.3112-4.2965 0.77297-5.9931 5.5514-5.9429 4.5575 0.0502 6.2541 1.3151 5.712 5.8425-0.30116 2.4896-0.0602 5.0494-0.0602 7.5792z" stroke-width="1.0039"/><path id="path518" class="st59" d="m496.41 483.49c0 2.078-0.28108 4.2062 0.0502 6.224 0.99382 6.0533-1.7467 7.539-7.2981 7.007-3.0317-0.29112-3.9853-1.2448-3.895-4.156 0.15058-5.3104 0.18069-10.631-0.01-15.931-0.14054-3.8448-0.0502-6.3645 5.2402-6.2741 4.8988 0.0803 6.6456 1.3853 5.963 6.2039-0.3112 2.2687-0.0502 4.6178-0.0502 6.9266z" stroke-width="1.0039"/><path id="path1169" d="m402.08 93.563c-0.81514-2.1652-1.1207-3.5917-2.6492-4.0757l-0.99322-0.25473v-1.3246h14.902v1.3246l-1.6813 0.25473c-1.0951 0.20378-1.7831 0.33115-1.7831 1.3755 0 0.68777 0.50956 1.8086 0.68795 2.3435l5.2474 16.023h0.0753l4.789-15.207c0.38217-1.2227 0.68775-2.6747 0.68775-3.1841 0-1.0699-0.66235-1.1463-1.7322-1.3755l-1.7066-0.25473v-1.3246h11.132v1.3246l-1.0445 0.20378c-1.8341 0.3821-1.5794 0.81514-4.6616 7.8712l-7.4635 19.767c-0.96793 0.17831-1.8594 0.38209-3.7446 0.38209-0.25328 0-0.53486-0.0256-0.76424-0.0256z" clip-rule="evenodd" fill-rule="evenodd"/><path id="path1171" d="m429.2 115.75 0.91693-0.12735c2.0124-0.25473 2.0124-1.1208 2.0124-4.5342v-17.22c0-3.3879 0-4.2285-2.0124-4.4833l-0.91693-0.15284v-1.3246h21.525c0.30558 1.3755 0.61115 3.2605 0.61115 5.6041 0 0.45852-0.0502 1.7322-0.0502 2.1652l-2.1395 0.20377c-1.6051-4.9163-1.885-6.0116-6.5722-6.0116h-2.5983v11.183h1.5285c3.668 0 4.4067 0 4.6869-1.9869l0.15309-1.5029h1.7575v8.992h-1.7578l-0.15309-1.5029c-0.28028-2.0124-1.0188-2.0124-4.6869-2.0124h-1.5284v11.234c1.1716 0.43304 2.4454 0.78967 3.7699 0.78967 5.6551 0 6.0372-4.305 6.9798-7.3108l2.4451 0.45851c0 3.3879-0.94232 7.1324-1.4263 8.8137h-22.569v-1.2736z" clip-rule="evenodd" fill-rule="evenodd"/><path id="path1173" d="m455.44 115.75 0.91702-0.1783c1.8085-0.35663 1.9868-0.484 1.9868-4.4833v-17.22c0-3.9993-0.17819-4.1012-1.9868-4.4323l-0.91702-0.20377v-1.3246h14.596c6.0369 0 11.055 0.99345 11.055 7.6419 0 2.8275-2.1398 5.6041-5.6804 7.2598 5.8585 10.622 6.3425 12.584 9.272 12.94v1.3246h-4.4066c-5.8332 0-6.4194-1.3756-11.055-11.361-0.25327-0.56041-1.1717-1.1718-1.885-1.1718h-1.1463v6.572c0 3.9993 0.15298 4.1266 1.9867 4.4832l0.89173 0.17831v1.3246h-13.654v-1.3501zm10.775-13.195h0.81514c4.1523 0 6.2156-1.5284 6.2156-6.6739 0-3.0568-2.1652-5.9862-5.1455-5.9862-0.58616 0-1.2738 0.07643-1.8853 0.20378z" clip-rule="evenodd" fill-rule="evenodd"/><path id="path1175" d="m483.44 115.75 0.89173-0.22926c1.4266-0.33115 1.5794-0.48399 3.8973-6.5466l7.642-20.277c1.2991-0.56041 2.7767-0.71324 4.636-0.78966l8.7373 23.715c0.7133 2.0379 1.2482 3.4643 2.8529 3.8974l0.7898 0.22926v1.3246h-14.52v-1.3246l1.4772-0.2802c0.7642-0.10189 1.7068-0.2802 1.7068-1.2227 0-0.58587-0.2282-1.452-0.4586-2.1143l-1.5282-4.4833c-1.2738-0.30567-2.1907-0.43303-3.7701-0.43303-1.2736 0-2.7002 0.1783-3.6937 0.43303l-1.2735 4.0248c-0.35647 1.1208-0.53485 2.0378-0.53485 2.3945 0 0.89156 0.0753 1.1463 1.2225 1.3246l2.038 0.35662v1.3246h-10.138v-1.3246zm9.3488-10.189c1.0189-0.20378 1.9616-0.33116 3.0823-0.33116 1.0445 0 2.267 0.1019 3.1584 0.33116l-3.0312-9.0684h-0.075z" clip-rule="evenodd" fill-rule="evenodd"/><path id="path1105" d="m528.3 705.86c-0.2239-0.40086-0.5312-0.93446-0.9203-0.94182-0.6442-0.0908-2.81 1.0167-5.9585 0.54263-4.8266-0.66313-4.4856-3.7362-3.9886-7.3557l0.9815-6.7326c0.3012-2.2495 0.1995-2.3371-0.8118-2.6351l-0.4468-0.22343 0.1057-0.72567 7.6838 1.0639-0.1424 0.73554-0.4762 0.0948c-1.0292 0.0554-1.1626 0.13104-1.5184 2.319l-0.7854 5.6337c-0.4859 3.3843-0.7976 5.8691 2.6069 6.4266 1.0069 0.14406 1.96-0.0448 2.4161-0.2108l1.5441-10.95c0.3011-2.2494 0.2319-2.3471-0.7512-2.6907l-0.501-0.13104 0.1791-0.74648 7.6474 1.074-0.1709 0.78234-0.5421-3e-3c-1.0194 0.0912-1.1167 0.15709-1.4366 2.3349l-1.9097 13.102c-0.8193 0.11274-1.4793 0.10378-2.4308 0.0204z" clip-rule="evenodd" fill-rule="evenodd"/><path id="path1107" d="m534.28 706.2 0.5322-0.0325c1.0646-0.0655 1.1623-0.13104 1.4721-2.3448l1.3623-9.6622c0.3337-2.2595 0.1995-2.3371-0.7516-2.6907l-0.4745-0.17662 0.061-0.75169 7.648 1.074-0.1302 0.77142-0.5425-3e-3c-0.9471 0.0709-1.0805 0.14692-1.4524 2.4165l-1.6388 11.441c0.5867 0.30033 1.1736 0.60046 1.8174 0.69133 2.2855 0.28975 3.1872-0.77398 4.3194-3.6429l1.297 0.48868c-0.2808 1.8966-1.0476 4.0052-1.5485 4.8413l-12.193-1.6997z" clip-rule="evenodd" fill-rule="evenodd"/><path id="path1109" d="m548.68 708.21 1.0231 0.0627c1.0548-0.10093 1.1525-0.16727 1.5081-2.3549l1.708-11.886-0.8078-0.12249c-2.5048-0.38335-3.1621 1.6952-3.5169 2.9159l-1.1647-0.29341c0-0.0826 0.5673-3.3685 1.0027-4.3022l13.716 1.8929c0.1505 1.505-0.081 3.3099-0.2565 4.4806l-1.1865-0.094c-0.053-1.2996-0.1222-3.4851-2.5818-3.8425l-0.7973-0.0866-1.6982 11.922c-0.3011 2.2496-0.1993 2.3372 0.7415 2.6548l0.9914 0.22586-0.097 0.7615-8.7007-1.244z" clip-rule="evenodd" fill-rule="evenodd"/><path id="path1111" d="m560.99 709.92 0.5783-8e-3c0.9929-0.0451 1.1007-0.0753 1.4466-2.299l1.3878-9.708c0.2645-2.2395 0.1995-2.3371-0.7415-2.6548l-0.5563-0.1929 0.1303-0.77142 8.194 1.2308c3.4102 0.43987 6.0954 1.4689 5.5724 5.1343-0.2075 1.6054-1.6449 2.9732-3.7875 3.6102 2.5352 6.4466 2.6105 7.5471 4.2144 8.0274l-0.1058 0.72568-2.4589-0.35771c-3.3483-0.49575-3.5332-1.295-5.3497-7.2461-0.1017-0.35853-0.6073-0.79727-0.9723-0.85001l-0.68-0.081-0.549 3.7113c-0.2727 2.2037-0.2075 2.3012 0.7414 2.6548l0.5564 0.19289-0.1057 0.72568-7.6481-1.074zm7.0692-6.5378 0.5163 0.0493c2.3055 0.36178 3.6146-0.35202 4.0054-3.2456 0.2604-1.6971-0.6759-3.524-2.4439-3.765-0.3255-0.0636-0.7158-0.0709-1.023-0.0626z" clip-rule="evenodd" fill-rule="evenodd"/><path id="path1113" d="m576.66 712.15 0.5942-0.0886c0.8392-0.0407 0.9014-0.0973 2.7112-3.3097l5.9228-10.781c0.7532-0.2104 1.5411-0.15952 2.5736-0.0615l3.0586 13.997c0.2605 1.2036 0.4159 2.0495 1.3312 2.4127l0.4749 0.17662-0.1302 0.77142-8.2006-1.1131 0.1302-0.77143 0.8294-0.0769c0.4244-3e-3 1.0028-8e-3 1.0521-0.52583 0.1016-0.33736-0.041-0.83962-0.081-1.254l-0.4704-2.653c-0.7203-0.22424-1.1688-0.44705-2.0742-0.50361-0.7363-0.14244-1.5497-0.14732-2.1179-0.10459l-1.0874 2.1987c-0.2522 0.61251-0.4672 1.0973-0.4887 1.2968-0.061 0.48081 0 0.62432 0.645 0.78661l1.0674 0.35934-0.097 0.76158-5.6799-0.81151zm6.1186-4.9574c0.6039-0.0525 1.1818-0.0594 1.7544 0.0513 0.6085 0.10092 1.2624 0.22749 1.7833 0.43014l-1.0325-5.358-0.041 0.0122z" clip-rule="evenodd" fill-rule="evenodd"/><path id="path1097" d="m324.28 714.35 0.64945-0.2022c1.2167-0.43039 1.2964-0.54032 0.90571-3.3226l-1.7101-11.806c-0.44456-2.7539-0.59578-2.8464-1.8891-2.891l-0.66712-0.0288-0.16598-0.90858 9.1446-1.4171c4.1937-0.57939 8.777-0.67575 9.4942 4.3726 0.40095 2.605-0.6006 6.6641-7.833 7.7337l-0.20958-1.0575c1.83-0.37323 3.0761-2.1917 2.6114-5.3127-0.44688-2.8899-2.5447-4.539-4.6621-4.2558-0.33868 0.0742-0.67755 0.14836-0.95999 0.33019l2.1521 14.424c0.38797 2.6461 0.5392 2.7386 1.8737 2.7961l1.2394 0.0725 0.1252 0.89574-10.015 1.4601z" clip-rule="evenodd" fill-rule="evenodd"/><path id="path1099" d="m343.42 711.51 0.64946-0.2022c1.1757-0.44292 1.2964-0.54033 0.93411-3.2686l-1.7794-11.873c-0.40328-2.7411-0.5262-2.7797-1.8609-2.8371l-0.61329-0.0566-0.19427-0.96248 9.4987-1.3963 0.14047 0.99062-0.64946 0.2022c-1.1628 0.40209-1.2964 0.54032-0.89287 3.2816l2.0779 14.085c0.76463 0.14949 1.6242 0.28321 2.3839 0.16083 2.6871-0.37497 3.448-1.9399 3.8282-5.7428l1.6757 0.11945c0.36761 2.2791 0.16032 5.0992-0.14604 6.2204l-14.817 2.2544z" clip-rule="evenodd" fill-rule="evenodd"/><path id="path1101" d="m376.41 707.24c-0.45416-0.2775-0.98218-0.89383-1.457-0.8171-0.85467 0.13814-2.9529 2.2303-6.8746 2.8046-5.903 0.85512-6.5698-2.9152-7.2336-7.2707l-1.21-8.2232c-0.40327-2.741-0.51369-2.8207-1.848-2.8782l-0.61331-0.0566-0.12519-0.89575 9.4987-1.3963 0.0829 0.88286-0.6623 0.24301c-1.1757 0.44291-1.2553 0.55332-0.92121 3.2276l1.0518 7.0015c0.60491 4.1116 1.0825 7.1914 5.384 6.5558 1.2216-0.15809 2.2999-0.72187 2.7699-1.0705l-1.9707-13.42c-0.39027-2.7821-0.54198-2.8746-1.8762-2.9321l-0.62615-0.0159-0.12517-0.89569 9.4577-1.4092 0.16598 0.90851-0.67756 0.14837c-1.1885 0.48421-1.3092 0.58154-0.90574 3.3226l2.3844 15.984c-0.97041 0.50744-1.6609 0.69674-2.8544 0.90878z" clip-rule="evenodd" fill-rule="evenodd"/><path id="path1103" d="m395.79 690.28c-0.0459-0.28489-0.0219-0.50302-0.0946-0.7058-0.39304-2.9181-0.74403-3.5241-0.99225-4.4584-1.3981-0.57354-3.1174-0.8414-5.7223-0.44072-4.6275 0.66887-7.2085 3.1509-6.639 6.8005 0.93169 6.3778 10.562 4.707 11.333 9.7272 0.16598 0.90853 0.0234 2.8023-2.4866 3.1879-3.203 0.43895-5.3937-4.0794-5.8441-5.6631l-2.0279 0.71695c0.0422 0.14901 6e-3 0.40834 0.064 0.65199 0.52335 3.3647 1.1564 4.5098 1.6203 5.3313 1.0389 0.28133 3.3201 0.76999 6.264 0.29489 4.1526-0.5919 7.611-2.7092 6.9576-7.2416-0.28319-2.1174-2.019-4.0588-4.4588-5.0487-4.5228-1.8231-6.4732-2.0728-6.8279-4.3936-0.24521-1.5194 0.68484-2.7606 2.2581-3.034 3.0799-0.47747 4.3269 3.0238 5.0598 4.4255z" clip-rule="evenodd" fill-rule="evenodd"/><path id="path1049" class="st1" d="m603.55 1079.3c-2.7907-1.6262-4.3166-4.1861-5.8826-6.5954-8.9043-13.673-15.018-28.47-17.618-44.642-0.18069-1.1344-0.33127-2.2888-0.35135-3.4332-0.1305-7.3182 0.0602-14.857 7.6494-18.632 7.3483-3.6541 14.937-2.4495 21.663 2.0177 6.9266 4.6078 9.888 11.364 8.7436 19.696-0.60231 4.3969-1.9374 8.6834-4.6579 12.147-7.5591 9.637-10.069 20.459-8.7035 32.465 0.24093 2.1382 0.61236 4.5073-0.84324 6.9768z" fill="#3fb34f" stroke="#000" stroke-width="2"/></g></svg>
