<?xml version="1.0" encoding="UTF-8" standalone="no"?>
<!-- Created with Inkscape (http://www.inkscape.org/) -->

<svg
   xmlns:dc="http://purl.org/dc/elements/1.1/"
   xmlns:cc="http://web.resource.org/cc/"
   xmlns:rdf="http://www.w3.org/1999/02/22-rdf-syntax-ns#"
   xmlns:svg="http://www.w3.org/2000/svg"
   xmlns="http://www.w3.org/2000/svg"
   version="1.0"
   width="312.5"
   height="312.5"
   id="svg4166">
  <defs
     id="defs4168" />
<metadata
   id="metadata1880"><rdf:RDF><cc:Work
         rdf:about=""><dc:title>Södermanlands läns vapenflagga</dc:title><dc:date>2012-01-19</dc:date><dc:creator><cc:Agent><dc:title>Lokal_Profil</dc:title></cc:Agent></dc:creator><cc:license
         rdf:resource="http://creativecommons.org/licenses/by-sa/2.5/" /><dc:rights><cc:Agent><dc:title>cc-by-sa-2.5</dc:title></cc:Agent></dc:rights><dc:format>image/svg+xml</dc:format><dc:type
         rdf:resource="http://purl.org/dc/dcmitype/StillImage" /></cc:Work><cc:License
         rdf:about="http://creativecommons.org/licenses/by-sa/2.5/"><cc:permits
         rdf:resource="http://web.resource.org/cc/Reproduction" /><cc:permits
         rdf:resource="http://web.resource.org/cc/Distribution" /><cc:requires
         rdf:resource="http://web.resource.org/cc/Notice" /><cc:requires
         rdf:resource="http://web.resource.org/cc/Attribution" /><cc:permits
         rdf:resource="http://web.resource.org/cc/DerivativeWorks" /><cc:requires
         rdf:resource="http://web.resource.org/cc/ShareAlike" /></cc:License></rdf:RDF>
</metadata>
  <rect
     width="312.5"
     height="312.5"
     x="0"
     y="0"
     id="Flaggduk"
     style="fill:#ffcd50" />
  <g
     transform="matrix(0.50810536,0,0,0.50810536,3.3574928,-1.0054625)"
     id="Griffin"
     style="fill:#000000">
    <path
       d="m 293.96876,30.250028 c -11.86834,4.316163 -18.32406,2.995835 -26.65625,2.875 5.1739,1.203766 12.52862,2.97811 16.4375,4.5 3.80927,-0.96291 4.98816,-2.903018 10.21875,-7.375 z m -48.21875,0.71875 c -2.68238,0.114773 -4.93635,1.106324 -6.8125,3.875 -1.4783,2.106589 -3.79521,2.665389 -4.25,6.15625 -0.56869,4.393677 0.45663,9.12258 1.59375,12.3125 0.96654,2.768803 1.7419,5.556655 5.4375,7.84375 3.86619,2.407526 5.35584,4.507175 7.90625,7.6875 2.43238,3.033143 3.01484,6.11089 5.84375,10.625 1.57793,3.280264 -0.11494,0.16776 -3,5.0625 -2.18769,3.711593 -4.97574,3.464048 -7.25,4.96875 -1.30725,2.403163 8.41297,6.77972 8.4375,14.343752 -4.65629,14.83516 -11.81499,23.63757 -16.875,28.03125 1.47828,0.60188 2.94786,0.6471 4.3125,0.40625 -5.96987,3.91223 -9.20657,13.12944 -19.15625,14.875 -5.1739,0.84273 -9.59959,1.50901 -13.75,6.625 5.68541,0.42136 11.3713,0.79497 17,1.15625 -5.74235,3.55094 -13.99217,8.29624 -21.78125,9.5 -9.15372,1.44463 -17.05813,6.25571 -19.21875,8.84375 -5.85598,7.10215 -13.65475,15.77781 -20.25,18.125 9.38124,0.54179 11.14181,-3.43495 16.03125,-8.25 4.43487,-4.3336 11.28234,-6.9779 18.21875,-7.21875 6.87948,-0.2406 13.91688,-1.45819 19.375,-5.25 -3.24056,5.83805 -12.57534,5.7707 -19,6.3125 -9.3243,0.84248 -15.90151,5.29496 -18.6875,8.90625 6.14044,-1.56479 11.66054,-5.46989 18.3125,-4.6875 -1.13713,5.47702 -7.36072,7.63439 -11.625,7.875 -3.86619,0.18051 -8.86508,4.52985 -10.96875,8.5625 -6.19738,11.79703 -13.73302,22.32304 -22.375,21.78125 10.57507,5.29649 18.63564,-3.79012 24.09375,-10.53125 5.6287,-6.86155 13.54072,-11.02097 20.875,-8.3125 -16.03319,-0.36128 -20.89004,10.53187 -28.28125,19.5 6.36796,-5.17633 12.93485,-17.85303 21.40625,-13.21875 -5.40118,3.19017 -15.02094,12.43623 -17.75,14.84375 -6.31102,5.65778 -8.87565,22.39976 -25.25,32.8125 10.68872,1.14342 17.23313,-3.98004 21.15625,-10.78125 5.68564,-9.8106 9.44857,-22.38555 18.375,-21.84375 -7.10699,2.16666 -13.33009,15.60148 -16.96875,23.125 4.94638,-3.18992 14.16214,-24.09758 22.40625,-16.875 -11.42798,6.44019 -17.55996,11.85959 -21.3125,39.125 5.34447,-10.89421 7.60333,-18.23843 10.21875,-21.1875 3.62976,-4.12941 5.66743,-4.55582 10.59375,-4.25 0.83288,-2.15262 2.01751,-3.97333 3.25,-7.0625 3.2595,-6.163 2.77472,-6.05843 9.8125,-19.6875 1.68776,-3.26843 3.25326,-6.90645 7.75,-15.84375 1.04726,-2.0814 30.37224,2.95402 32.09375,8.59375 1.86257,6.10186 -2.17385,13.89227 -6.09375,20 -5.31069,8.27473 -16.77502,21.58247 -17.4375,22.65625 -0.65423,1.0604 -12.20048,20.5823 -12.65625,21.65625 -1.84323,4.34317 -12.33726,21.22801 -12.90625,22.28125 2.44485,-2.94908 5.22215,-9.72916 8.40625,-10.8125 3.97984,-1.38427 4.96154,-1.67716 7.4375,-1.75 -3.60363,2.16122 -4.5298,4.80965 -6.28125,6.84375 -1.8865,2.19098 -2.90221,8.38227 -6.28125,17.5 2.52401,-3.6119 7.2964,-11.65226 11.0625,-14.21875 3.10542,-2.11626 3.65419,-2.1024 4.65625,-3 -1.51142,2.49474 -7.6392,5.62626 -8.96875,9.9375 1.91594,-2.10705 5.90435,-4.72984 7.75,-4.15625 -2.47425,3.17514 -3.29183,7.00694 -3.03125,13.46875 3.8328,-4.38958 7.13665,-8.25903 9.6875,-7.96875 -1.84944,2.02207 -0.8107,8.50644 -1.3125,13.78125 1.0235,-4.15309 7.05815,-3.54952 9.21875,-10.53125 2.61517,2.58803 0.41104,9.57076 1.71875,10.59375 0.62538,-2.58805 3.55103,-5.06935 8.15625,-6.875 -0.90962,2.64811 -3.68453,2.3713 -3.96875,4.71875 2.95633,0.9629 5.00502,-1.87145 6.3125,-2.59375 -1.36443,4.69461 1.25722,9.99173 3.53125,12.21875 0,-3.25027 2.37682,-8.20936 3.96875,-11.21875 -3.18386,20.163 47.48114,15.89457 63.34375,17.21875 9.21065,0.78238 22.35441,5.54826 31.90625,11.6875 3.46807,2.28711 8.63635,1.80491 8.75,-7.34375 0.0569,-6.68076 -5.46765,-14.79622 -11.4375,-16 -17.34091,-3.49087 -36.32418,-16.79443 -44.625,-30.15625 16.14706,15.10711 23.26314,22.07533 50.78125,23.21875 4.71908,7.82445 7.19746,15.18709 9.1875,23.3125 1.70556,7.04207 1.368,15.08078 -0.90625,22.0625 -2.95635,8.90805 -9.04189,18.13504 -14.5,24.09375 -5.572,6.13924 -7.53604,9.43254 -8.84375,17.4375 -1.02349,6.31975 0.14513,13.12232 0.0312,19.5625 -0.11365,7.64393 -2.58897,10.17314 -1.28125,17.9375 0.96654,5.83803 1.16468,6.88389 5.65625,10.375 7.95988,6.19932 21.3503,13.52985 33.0625,17.5625 4.03676,1.38427 6.74565,2.94996 8.90625,5.71875 8.07353,10.4726 7.79666,10.22333 14.5625,13.59375 2.67212,1.3242 3.63752,3.8459 1.875,7.15625 -1.47805,2.76856 -3.93634,6.68139 -5.8125,8.96875 -5.572,6.80122 -12.05219,13.9244 -14.78125,22.53125 -1.13713,3.61126 -5.39516,6.56147 -9.375,2.46875 -1.13714,-1.20379 -4.08162,1.54981 -5.21875,-1.21875 10.80235,-4.57447 8.00149,-20.0996 1.40625,-17.8125 -1.76253,6.31977 -9.38601,8.11014 -14.21875,5.28125 -6.14022,3.25026 -3.90228,14.70581 7.46875,18.4375 -1.19407,7.58383 -8.9254,7.76525 -14.15625,5.71875 -1.02326,-0.36106 -0.70327,3.19077 -2.75,2.46875 5.79927,-13.54256 -10.17064,-16.79891 -14.09375,-8.3125 2.6154,2.28707 2.91138,15.99758 -0.5,19.1875 0.73925,9.2691 11.01141,11.9313 15.21875,-4.5 1.42134,0.36106 0.24587,2.83206 2.40625,4.15625 2.21754,1.38431 5.16584,2.41326 7.78125,2.59375 2.38789,0.18054 5.46721,-1.32405 7.96875,-1.625 -1.70558,2.46764 -4.00182,5.53237 -5.59375,8 -2.21733,3.4308 0.93529,3.11089 -0.0312,4.375 -10.80237,-7.22255 -20.47542,0.73932 -14.5625,6.15625 5.51504,0.24087 10.29366,5.16284 13.25,13.46875 7.56178,3.49088 13.47757,-10.41511 4.4375,-17.15625 1.02324,-1.56477 3.50701,2.16669 5.78125,0 1.42134,-1.32417 3.35693,-2.1434 5.0625,-4.25 3.92312,4.27328 8.87308,1.42039 12,-6.34375 1.59216,3.31037 3.47018,5.77896 5.6875,7.34375 -10.00664,10.89422 1.25446,18.85099 7.28125,12.53125 1.93309,-7.82444 4.31102,-9.93508 10.90625,-9.875 3.41138,-4.63451 -0.6882,-12.34259 -8.25,-9.875 -3.29751,-4.99553 0.23296,-12.51955 4.78125,-13.84375 2.67235,-0.78236 5.65151,1.63771 8.4375,1.15625 3.12693,-0.54176 6.29366,-2.64696 9.25,-4.03125 -0.90961,-0.78236 -2.26653,-2.12245 -3.0625,-3.6875 10.97317,-3.31038 19.77238,-7.82622 24.71875,-14.6875 -3.52503,-0.12046 -6.99488,-1.37157 -10.40625,-3.71875 8.69892,-4.45401 14.67643,-8.5541 18.65625,-12.40625 -3.92313,0.60189 -7.15706,0.12157 -10,-0.78125 7.61873,-0.30093 14.1989,-1.90828 18.40625,-6.84375 -1.251,-0.0601 -2.43092,-0.0625 -3.625,-0.0625 5.34447,-7.22256 5.78382,-16.38677 19.03125,-33.78125 -4.03675,4.03264 -12.39379,3.69209 -18.25,3.8125 10.57509,-1.38454 18.83307,-6.21849 22.1875,-12.71875 -8.64197,6.74111 -19.96598,9.87855 -33.15625,9.15625 5.57176,-3.06976 10.1356,-8.91729 11.5,-15.71875 -7.16369,6.31975 -17.07418,8.06732 -25.375,4.9375 3.01328,-2.34719 5.70685,-5.54622 6.84375,-10 -6.36773,5.29649 -16.27138,6.44132 -22.46875,2.46875 -9.38101,-5.95874 -16.02975,-14.19408 -22.625,-22.5 -8.52834,-10.59301 -3.98379,-27.63133 1.53125,-39.1875 5.2306,-11.01436 7.9655,-22.01076 4.15625,-38.5625 4.54851,5.47703 6.42869,22.25189 2.5625,32.0625 3.97983,11.55617 8.34485,20.33879 15.28125,28.34375 11.65527,13.30148 18.12489,19.64684 35.75,19.40625 20.35419,-0.30095 29.40624,-13.43261 29.40625,-43.40625 1e-5,-10.71343 -6.37803,-34.17856 -10.1875,-51.03125 -6.65194,-29.43211 9.90134,-45.9957 26.21875,-39.375 -4.66214,1.74555 -8.28305,10.48616 -9.875,11.75 0.62539,-3.12985 1.69487,-6.52186 3.34375,-9.53125 -9.3243,4.15307 -15.91696,28.53287 0.34375,44.84375 5.00309,5.05591 13.75997,12.71519 15.75,16.6875 2.04675,-10.83385 -8.66034,-12.95423 -2.40625,-28.84375 3.98007,-10.29233 8.25525,-19.49706 0.125,-29.1875 16.48801,15.10736 -5.07177,28.27704 0.5,40.375 0.34117,-12.69983 9.61128,-13.28298 9.15625,-27.96875 -0.4548,-15.34798 -6.7555,-21.49187 -15.625,-22.09375 -0.9096,-0.96316 -1.80914,-1.97701 -2.71875,-3 0.73904,-0.66222 1.51654,-1.33778 2.3125,-2 -0.96654,-1.44436 -1.87163,-2.90155 -2.78125,-4.40625 4.15042,3.43077 7.23016,4.18063 11.4375,2.375 6.19715,-2.64838 8.6393,-14.32492 4.375,-23.59375 -3.52501,-7.52351 -4.90377,-10.02017 0.15625,-23.5625 -2.89963,13.72283 -1.46572,16.74605 2.34375,25.59375 3.97984,9.26908 0.33153,20.04622 -6.71875,24.5 9.4949,-2.5277 14.54888,-17.98804 9.375,-25.8125 -8.01659,-12.21838 0.22864,-20.89886 -5.96875,-32.09375 -2.89963,14.62565 -14.81772,25.04799 -19.59375,40.9375 -0.11363,-1.62488 0.0995,-3.25228 0.15625,-4.9375 -3.46808,6.0789 -3.24537,12.81796 -1.3125,18.65625 -13.24719,-2.52795 -35.7515,17.76215 -29.15625,53.875 2.50177,13.54257 8.30853,30.12992 9.84375,45.71875 1.81946,18.29729 -5.97012,31.91667 -17,33 -10.06357,0.96316 -21.61535,-4.69864 -27.8125,-13.125 -11.37104,-15.34797 -16.98829,-28.41763 -21.59375,-53.9375 -2.16038,-12.09769 -5.39665,-18.82467 -15.6875,-28.09375 -8.18717,-7.28268 -17.91692,-13.06694 -27.46875,-18.0625 -15.97627,-8.42635 -32.12123,-18.12789 -46.5625,-28.78125 0.45479,1.38427 1.30076,4.41909 1.8125,5.5625 -8.47141,0.30094 -16.27536,-9.8784 -20.9375,-34.375 -0.34117,0.84274 -1.11645,2.09133 -1.34375,2.03125 -0.22753,2.10659 3.96038,19.50342 3.5625,20.40625 -0.7962,-0.42137 -3.68055,-12.93025 -5.5,-19.25 -0.79598,-0.18076 -1.66141,-0.79523 -2.34375,-1.15625 0.057,1.44463 0.74367,9.05195 1.9375,12.84375 -6.87948,-0.12017 -12.79404,-13.12333 -15.125,-20.40625 -3.92311,-1.50469 -9.67059,-12.94791 -9.5,-14.03125 1.47806,-0.42137 4.9511,10.40371 10.125,11.96875 0.73904,-0.78239 1.37203,-2.52413 1.65625,-3.96875 0.73927,0.18076 1.43712,-0.23488 2.0625,-0.65625 3.35445,5.11598 6.98854,11.96304 11.59375,12.625 1.53521,-2.10657 2.44566,-5.29038 2.84375,-8.78125 -1.70581,-1.0836 -4.09671,-5.16209 -3.8125,-6.125 1.64886,1.44435 2.83382,4.0094 4.9375,4.25 1.25076,-1.14343 1.01073,-5.57292 1.75,-6.65625 0.45479,0.78239 1.20915,6.0127 -1.40625,8.78125 2.27424,7.58385 7.04731,14.68178 13.1875,15.34375 1.08041,-2.70847 1.71876,-6.81351 1.71875,-10.90625 -3.69562,-3.06974 -6.59893,-9.01854 -7.28125,-9.5 -0.39811,2.58803 1.25001,5.48374 1.25,6.6875 -1.13714,-0.30093 -3.3577,-6.27769 -3.8125,-10.25 1.02348,0.90281 2.03049,1.65168 3.28125,1.53125 1.87638,3.31034 5.02689,8.78582 7.1875,8.90625 1.02324,-0.1805 0.8545,-5.37843 1.59375,-6.28125 0.68232,0.48144 0.88173,7.78811 -0.9375,9.59375 2.78576,7.46343 8.77678,15.46291 15.65625,14.5 1.3077,-3.12983 1.07103,-7.77311 0.84375,-11.625 -2.21732,-0.42135 -7.0452,-5.40281 -7.5,-7.75 1.76251,0.30095 4.26215,4.54496 7.21875,4.90625 1.42134,-1.50469 0.57905,-6.78595 1.375,-8.53125 0.68232,0.36102 1.19628,6.68484 0.96875,9.875 3.75253,6.92163 8.1239,11.78111 14.09375,13.40625 1.25076,-3.12984 1.70441,-7.27311 1.875,-11.125 -2.786,-2.22701 -5.90626,-6.20033 -5.90625,-7.34375 2.21754,0.48146 4.49525,4.92835 7.28125,4.6875 0.79595,-2.88897 0.71913,-6.25699 0.0937,-9.6875 0.45503,-1e-5 1.01951,0.5 1.53125,0.5 0.56844,3.79179 0.84971,7.33777 0.28125,11.25 3.46808,4.69462 6.9935,8.40752 12.28125,9.25 3.18385,-4.27326 3.94085,-10.99974 3.03125,-17.5 -3.4114,-2.8289 -9.15007,-8.5578 -9.71875,-10.0625 1.59192,0.36102 7.90692,6.91667 11.375,8 0.79618,-2.58805 0.16479,-6.91196 -0.0625,-9.5 0.68232,-0.36103 1.82348,-0.29738 2.5625,-0.71875 1.3644,4.15307 4.29262,10.30563 4.40625,11.75 -1.59194,-0.66198 -3.44784,-5.12372 -4.8125,-7.53125 0.34115,3.0094 0.21914,5.99872 -0.40625,8.40625 2.44483,5.23643 5.4537,9.82989 10.96875,11.09375 1.02325,-5.53735 1.48501,-12.04699 -1.8125,-20.59375 12.62181,7.64393 15.65115,10.53608 23.15625,7.40625 -0.96655,-6.07891 -2.92977,-13.01244 -6,-15.78125 -0.62539,-0.60188 -6.082,-2.88185 -6.59375,-4.6875 2.10367,0.60188 4.3394,1.88415 6.5,2.125 0.39786,-4.5742 -1.99084,-7.35505 -2.84375,-10.90625 2.61542,2.10684 4.82065,7.16398 5.21875,11.4375 8.52834,3.67138 17.87016,2.88682 25.375,-3.3125 -4.09371,-7.04206 -8.13342,-9.52069 -12.625,-13.3125 -1.02325,-0.84273 -8.31948,-1.60861 -10.59375,-4.4375 1.81945,0.0603 4.74668,2.22688 9.75,1.625 -0.51174,-3.37043 -2.58161,-6.43267 -3.71875,-9.5625 2.27425,0.84273 5.01874,7.02985 6.78125,11.0625 8.35776,1.68522 18.31163,1.39483 24.28125,-3.78125 -3.12693,-6.31975 -9.95612,-10.54167 -16.4375,-11.625 -4.26428,1.32394 -7.1195,0.6621 -11.15625,-1.625 3.46832,0.72231 6.92978,1.08334 10,0 -0.96655,-2.64837 -3.74886,-5.84489 -5.625,-8.3125 3.52503,1.74531 5.464,4.71277 8.25,8.625 8.81256,0.96291 20.25083,-2.52857 23.09375,-8.96875 -5.00331,-9.44958 -13.75534,-10.31238 -23.25,-8.6875 -1.08042,1.86597 -3.03307,3.51042 -4.625,4.59375 4.0937,0.42138 11.83963,1.11928 14,1.78125 -1.87615,0.78241 -9.65615,-0.12284 -14.375,-0.0625 -0.22752,-0.54178 -0.36067,-0.77311 -0.53125,-1.375 -2.21732,0.66223 -4.89914,0.60645 -7.34375,0.125 0.11364,-0.42136 0.22986,-0.83105 0.34375,-1.3125 5.06002,-0.18052 7.00662,-0.61203 9.90625,-4.34375 -2.04674,-3.18993 -4.66028,-4.69435 -7.21875,-6.5 -0.0569,-0.36103 -0.0625,-0.73272 -0.0625,-1.09375 3.18386,1.44461 6.47278,2.96874 9.03125,6.21875 7.33427,-2.22702 13.71027,-3.97648 18.03125,-11.5 -3.29774,-4.63454 -10.4595,-6.79166 -16.03125,-7.875 -2.72906,3.37069 -6.52613,5.65155 -9.9375,7.15625 4.77603,0.12043 11.71422,-0.56605 14.5,0.15625 -2.61542,0.96291 -10.76063,1.65269 -16.21875,2.375 -0.51174,-1.14368 -1.23269,-2.17124 -1.6875,-3.375 3.86619,-1.32419 8.21956,-3.74542 11.0625,-6.875 -3.6389,-3.37069 -7.88642,-5.27998 -12.09375,-7.6875 0.22752,-0.84248 0.80373,-1.81593 1.03125,-2.71875 5.11695,-0.42137 11.53747,-1.8656 15.0625,-1.625 -3.01328,1.44462 -9.38344,2.42124 -13.875,3.625 4.37793,1.74556 8.44952,4.45235 12.03125,7.28125 5.91292,-2.2871 14.3848,-6.61889 17,-12.15625 -5.68541,-5.29651 -12.39302,-7.89469 -19.5,-7.59375 -2.61541,4.69462 -7.14996,8.73031 -12.4375,9.03125 3.58196,-2.94932 8.36249,-4.33193 10.125,-10.53125 -5.00331,-2.34744 -10.39997,-2.31034 -15.6875,-2.25 4.71909,-2.10658 9.08899,-6.23132 11.875,-10.625002 -3.18386,-2.106585 -6.83283,-3.156117 -10.1875,-4.78125 4.54851,0.300941 9.20447,1.759269 13.46875,3.625 -0.90984,2.467872 -2.70343,5.067202 -4.125,6.812502 1.42158,-0.0601 3.57866,-0.37259 5,-0.3125 -1.9898,0.72231 -4.04701,1.63198 -6.09375,1.8125 -0.4548,0.54179 -0.95144,1.26855 -1.40625,1.75 3.2408,0.42137 6.51796,1.00685 9.53125,2.8125 4.88967,-1.74556 9.21438,-5.59336 11.375,-10.46875 -3.18409,-2.527955 -8.2441,-3.369031 -12.90625,-4.031252 26.83578,-11.676342 66.79181,-28.477502 81.0625,-36.84375 -11.37103,10.231984 -48.89328,25.281737 -73,35.875 3.01329,0.962909 6.49823,2.29725 9,4.34375 -1.19406,4.815052 -4.61173,8.230302 -7.625,11.781252 2.786,1.02325 5.23412,2.24072 7.90625,3.625 55.20657,-29.371751 77.89705,-40.387147 74.65625,-70.000002 -21.83246,12.880355 -53.32292,27.852098 -98.125,47.59375 16.99974,-13.481985 40.31145,-29.846259 37.46875,-48.625 -19.78573,22.269602 -41.51415,41.837516 -67.78125,49 -27.51811,7.523522 -23.83086,50.917402 -13.3125,62.593752 5.96985,32.08047 -34.95433,47.83932 -56.84375,42.84375 -15.29418,-3.43077 -26.89373,-5.52251 -41.5625,2.84375 3.8662,-4.3336 9.15872,-7.41197 14.21875,-10 -1.19382,-5.41693 -2.10069,-11.53912 -0.28125,-17.4375 -0.0569,5.59745 1.13679,17.0672 4.71875,15.5625 -1.3077,-10.05147 -2.30071,-20.69395 1.28125,-30.625 1.08017,1.20375 2.61547,2.33777 4.09375,3 -1.99004,-10.1118 -4.19202,-20.50188 -1.40625,-30.3125 1.02347,-3.7918 -0.79841,-5.66297 -0.96875,-12.34375 1.08018,1.80564 2.5018,2.81351 4.09375,3.65625 -1.70558,-5.53736 -6.31321,-12.98666 -4.15625,-18.15625 5.79878,-13.897957 11.63717,-29.110044 7.3125,-40.437502 -5.45813,1.023246 -18.11987,3.121965 -21.53125,-2.65625 -1.64886,-2.888983 -4.13421,-3.927209 -7.375,-4.46875 2.55849,-1.745554 7.20585,-1.197036 9.59375,3.4375 0.6254,1.143669 0.70509,1.877407 4.34375,1.9375 23.87923,0.421361 34.44842,-9.410425 44,-17.65625 -7.16371,2.106587 -12.1341,0.301071 -20.09375,-1.625 -8.92622,-2.106581 -17.73279,-0.299935 -26.375,4.09375 -2.50153,1.203763 -5.57787,0.593748 -8.25,0.59375 1.0802,-2.82889 10.472,-4.136428 14.28125,-6.0625 -7.64234,-4.592662 -15.90987,-5.671941 -21.4375,-7.375 -1.42158,0.06034 -5.44527,-1.422388 -6.46875,-1.84375 -3.57545,-0.710354 -6.66137,-1.458523 -9.34375,-1.34375 z M 192.78126,241.84378 c -0.0207,0.0535 -0.0422,0.1023 -0.0625,0.15625 0.25514,-0.0382 0.51724,-0.0954 0.78125,-0.125 -0.25851,-0.0184 -0.47515,-0.0161 -0.71875,-0.0312 z m -0.0625,0.15625 c -5.78858,0.86594 -9.3226,3.93244 -11.71875,9.8125 2.41349,-1.8407 7.77534,-3.67942 10.6875,-5.03125 0.17357,-1.97639 0.52961,-3.44707 1.03125,-4.78125 z M 247.93751,37.750028 c 0.96918,-0.02258 2.1723,0.0188 3.75,0.1875 5.45812,0.851452 9.52911,2.922041 14.0625,3.9375 -3.80923,0.945724 -7.69196,-0.03053 -13.71875,-1.0625 -9.89277,-1.192954 -10.06755,2.352478 -12.62608,4.375845 -0.41543,-4.106839 -0.135,-5.115654 2.31358,-6.282095 2.17833,-1.037698 3.3112,-1.088501 6.21875,-1.15625 z m 0.375,3.71875 c 6.17882,1.468279 7.84186,1.908674 15.0625,2.5 -1.93308,1.083333 -4.6966,1.737838 -6.625,2.34375 -1.8799,1.790778 -3.11712,4.878781 -5.28125,6.03125 -3.83189,2.04061 -8.42652,-0.491403 -9.21875,-5.46875 0.29327,-4.192234 1.62763,-5.225734 6.0625,-5.40625 z m 182.28125,1.5 c -3.69561,6.139231 -26.20577,30.633619 -63.21875,43.875 -20.06997,7.162492 -30.98016,24.989662 -22.28125,45.875002 11.99641,28.76987 -1.47041,45.55398 -16.59375,54.28125 -17.45478,10.1719 -31.6363,-0.91235 -40.5625,4.625 4.94636,-0.0601 22.74888,8.43547 41.625,3.5 20.92262,-5.47702 34.79411,-24.91104 28.3125,-45.375 -9.89276,-31.1774 -0.0516,-54.103775 22.40625,-60.062502 20.80899,-5.477017 46.56018,-28.120523 50.3125,-46.71875 z m -119.90625,4.40625 c 0.42711,-0.02266 0.84439,-0.01862 1.28125,0 0.49926,0.02128 0.98828,0.06596 1.5,0.15625 -5.96987,2.949066 -11.88747,2.789376 -18.9375,2.1875 -4.54852,4.333595 -10.66242,2.39557 -10.09375,7.8125 -11.93971,-1.203764 -10.59506,-8.166662 8.90625,-9.25 2.67234,-0.120424 6.21978,0.403836 9.0625,0.34375 2.52482,-0.04601 5.29143,-1.091366 8.28125,-1.25 z m -18.34375,32.5625 c 2.84268,5.898641 -7.48527,12.159289 -8.28125,17.9375 -0.68231,5.115992 -2.71174,10.934952 -0.4375,15.750002 -4.03675,-4.03265 -1.71654,-10.76142 -0.75,-15.937502 1.0802,-5.898639 10.49199,-11.61076 9.46875,-17.75 z m 219.21875,11.71875 C 487.8539,103.2122 462.8951,113.4069 436.34376,122.37503 c -0.73926,2.46761 -4.20843,6.11674 -6.9375,8.34375 26.6652,-7.28292 64.58668,-24.42467 71.125,-26.53125 -4.20734,5.11599 -47.65028,21.31337 -74.03125,30.28125 4.37793,2.0465 8.36508,4.55309 10.46875,7.5625 -1.47829,4.69462 -5.22161,8.31822 -9.65625,10.90625 2.33096,0.36127 4.93613,1.20465 6.8125,2.46875 51.22651,-22.99192 85.16986,-36.06347 77.4375,-63.750002 z m -230.3125,39.250002 c 2.786,8.366 0.91287,14.45793 3.8125,24.75 -4.37791,-9.81062 -3.30075,-15.96263 -3.8125,-24.75 z m -28.78125,12.59375 c 0.39786,1.86599 -7.66181,6.19942 -7.71875,21.96875 3.6956,0.7824 5.50182,-5.07303 7.09375,-4.53125 -3.24079,7.70404 -7.09662,5.04828 -11.53125,7.9375 5.45812,-4.75496 1.35364,-16.58739 12.15625,-25.375 z m 257.5,1.3125 c -22.96959,6.13923 -47.25715,10.42479 -71.25,14.15625 1.76251,1.9864 3.66403,4.25113 4.6875,6.71875 -0.51174,0.84274 -0.98271,1.69093 -1.4375,2.59375 18.25052,-2.82888 49.62427,-11.25 54.96875,-11.25 -3.01327,3.0094 -37.5664,10.59591 -57.75,13.90625 -2.72906,2.52795 -7.86252,3.95491 -13.71875,5.21875 4.03676,2.0465 7.30812,6.19982 9.46875,10.59375 55.83195,-7.82471 73.95107,-11.84318 75.03125,-41.9375 z m -267.78125,0.125 c -6.2541,6.56059 -8.76107,7.32646 -17.6875,7.6875 6.25407,-1.5648 12.28631,-4.07621 17.6875,-7.6875 z m 162.71875,32.6875 c 9.72217,2.94906 15.17835,4.61814 16.03125,6.0625 -1.47828,0.18051 -6.77204,-1.38871 -16.4375,-5 0.17058,-0.36128 0.29237,-0.70147 0.40625,-1.0625 z m -186.25,3.96875 c 0.2273,2.22702 -8.98246,6.37943 -9.4375,14.625 9.77935,2.76881 17.62125,-8.1264 19.15625,-7.34375 -7.73238,11.73668 -18.42205,9.25559 -24.5625,10.21875 4.7758,-4.27351 4.43903,-11.18025 14.84375,-17.5 z m 209.625,10.59375 c -3.18386,1.62488 -6.04927,2.35188 -13.15625,1.75 29.16675,12.39891 47.76878,16.30437 53.625,16.90625 -4.60521,3.00941 -27.22773,-4.10592 -52.8125,-13.375 2.38789,2.64838 4.25517,5.53582 4.9375,8.90625 -1.25077,2.22701 -5.34778,4.38998 -7.90625,5.59375 37.86566,11.8571 69.49178,15.84367 77.90625,-2.875 -14.44125,-2.58804 -37.80471,-8.66043 -62.59375,-16.90625 z m -36.90625,1.25 c 11.42797,6.74112 16.54222,6.9234 17.28125,8.1875 -1.64889,0.66196 -8.36319,-2.05538 -17.6875,-6.75 0.17057,-0.4817 0.29261,-0.95605 0.40625,-1.4375 z m -127.40625,11.03125 c 0.90986,2.40753 2.10708,4.75102 3.1875,5.59375 0.4548,-0.24085 0.84635,-0.67937 1.1875,-1.28125 0.28424,1.5047 0.20481,2.88999 -0.25,4.09375 0.45479,2.82889 1.26655,5.53212 2.0625,8 -1.13712,-1.14367 -2.26614,-3.91044 -3.6875,-8.90625 -1.25076,-0.7824 -1.87437,-4.37017 -2.5,-7.5 z m 109.5,1.0625 c 2.10366,3.00941 3.46952,7.34705 2.21875,9.875 -3.58196,1.20376 -5.47278,-1.5484 -8.03125,-2.8125 2.04675,-0.54155 4.0864,1.55907 6.53125,0.65625 0.51173,-1.80565 -0.77546,-5.19105 -0.71875,-7.71875 z m 5.125,2.46875 c 3.12691,4.27326 6.97431,6.9234 7.03125,8.1875 -1.9331,-0.24085 -4.55478,-2.57862 -7.625,-6.25 0.22752,-0.66222 0.42318,-1.33562 0.59375,-1.9375 z m 19.03125,4.875 c 24.44789,18.29728 37.69671,24.2627 40.9375,27.03125 -2.95657,1.50471 -19.77821,-9.01547 -41.78125,-24.0625 1.36465,4.2735 2.71296,9.33308 2.65625,11.5 -0.68233,0.48144 -1.91701,0.77095 -2.65625,1.3125 25.18691,16.79259 50.80874,31.05516 65.25,15.40625 -7.84602,-2.70846 -28.34434,-14.74794 -53.53125,-30.15625 -2.27425,0.54179 -6.83822,-0.008 -10.875,-1.03125 z m -117.90625,3.5 c -10e-6,2.34718 -0.005,4.34145 -0.6875,5.90625 -3.1841,0.12043 -6.27468,-2.53341 -7.46875,-5.84375 2.27426,1.92608 4.55877,4.15624 6.09375,4.15625 1.25078,-0.90282 1.66465,-2.7744 2.0625,-4.21875 z m 1.625,1.6875 c 0.3981,0.12043 0.82066,0.2524 1.21875,0.3125 0.22728,2.46762 0.96321,6.29623 0.90625,7.5 -0.8529,-1.50471 -1.55631,-4.26131 -2.125,-7.8125 z m 67.34375,3.125 c 1.42134,5.89838 3.22751,10.23616 3,11.5 -1.25077,-1.02325 -3.00442,-5.0437 -4.9375,-11.0625 0.68232,-0.18076 1.31211,-0.31708 1.9375,-0.4375 z m -16.34375,3.96875 c 1.251,5.05591 3.23863,9.15156 3.125,10.65625 -1.19407,-1.20376 -3.00442,-5.23475 -4.9375,-10.53125 0.62538,-0.0601 1.24404,-0.12501 1.8125,-0.125 z m -18.0625,0.3125 c 0.79596,4.87539 2.3692,8.35062 2.3125,10.15625 -0.96653,-0.60188 -2.08978,-3.95236 -3.625,-10.03125 0.45481,-0.0601 0.91463,-0.12501 1.3125,-0.125 z m 63.5625,0.0625 c 0.56868,5.83804 1.03201,11.23946 -0.21875,15.03125 25.86901,26.90415 46.78377,38.94718 55.9375,29.4375 -13.70223,-13.60267 -27.29776,-26.70768 -41,-40.25 -2.33096,0.18052 -5.1736,-0.25444 -8.8125,-2 16.03319,19.14002 30.42681,31.29624 33.78125,35.75 -7.10699,-3.37043 -22.68778,-19.25034 -39.6875,-37.96875 z m -102.96875,1 c -0.62537,1.56503 -1.31188,2.78468 -1.9375,3.6875 2.61543,9.50969 6.47199,16.60531 10.28125,16.90625 -0.5115,-3.31035 -0.95761,-7.16539 -0.84375,-10.65625 -2.27424,-2.16691 -4.42979,-5.00202 -7.5,-9.9375 z m -31,1.59375 c -2.60163,6.71087 -2.70615,7.28447 -5.71875,17.71875 6.0268,4.69463 12.23231,-2.73044 13.3125,-1.40625 -2.55849,2.8289 -10.53494,6.72244 -17.8125,4.375 4.15039,-2.22676 3.82388,-14.6815 10.21875,-20.6875 z m 47.5,6.0625 c 3.97982,21.72807 10.54745,32.25343 16.0625,33.15625 -1.59217,-6.92163 -3.12126,-14.20311 -4.65625,-21.125 -0.45505,-0.30094 -0.88894,-0.23247 -1.34375,-0.59375 0.28421,2.04649 0.37204,4.76599 0.65625,6.8125 -1.0802,-2.64838 -1.80076,-3.98704 -2.3125,-7.71875 -2.27403,-2.82864 -6.132,-7.64202 -8.40625,-10.53125 z m 76.125,3.6875 c 6.14021,15.34798 14.78283,26.40967 16.375,30.5625 -4.32123,-2.94906 -11.71328,-15.72025 -19.84375,-30.40625 -1.25078,4.69462 -2.74047,7.84946 -4.21875,10.4375 12.50816,19.802 28.25654,33.80222 39.96875,31.09375 -7.78908,-9.20873 -17.00573,-22.49209 -25.875,-36.9375 -1.4783,-0.90282 -3.62049,-2.04153 -6.40625,-4.75 z m -22.8125,1.4375 c -0.0569,0.96316 -0.16739,2.40969 -0.28125,3.3125 4.1504,12.88037 11.48271,24.95821 11.9375,28.75 -3.12717,-3.12983 -8.01979,-12.87103 -12.625,-24.96875 -0.34117,1.62488 -0.83756,4.0799 -1.40625,5.34375 -3.0133,-0.30095 -6.10357,-1.78353 -8.71875,-3.46875 10.46119,19.80199 22.14187,33.64826 31.125,32.625 -3.18387,-8.06506 -7.61909,-20.1209 -12.28125,-33.84375 -1.81923,-0.96291 -5.36211,-4.98118 -7.75,-7.75 z m -37.40625,3.375 -0.5,2.46875 9.875,21.28125 5.8125,4.21875 c -3.92314,-5.11599 -9.44517,-15.99121 -15.1875,-27.96875 z m 3.59375,1.3125 c 7.3345,18.35739 16.1849,34.61459 28.75,36.78125 -2.04675,-3.91223 -8.05323,-19.45398 -13.625,-35.34375 -0.22753,1.56505 -0.75776,3.72675 -1.78125,4.75 2.10366,5.53736 4.14633,11.61648 6.25,17.09375 -2.67213,-2.58829 -5.28488,-8.66982 -8.46875,-17.15625 -3.24081,-0.30094 -7.14518,-2.75457 -11.125,-6.125 z m 17.28125,2.21875 c 5.91291,15.10738 11.75583,30.04711 15.90625,36.96875 2.89963,1.62512 5.78785,3.31478 8.6875,5 -10.40451,-12.94045 -17.14582,-27.58369 -24.59375,-41.96875 z m -23.71875,0.1875 c -10e-6,0 3.93751,15.15625 3.9375,15.15625 l 6.34375,4.09375 -9.15625,-19.1875 -1.125,-0.0625 z m -77.875,15.3125 c -0.17059,1.98643 -6.77647,4.91601 -5.46875,14.125 2.38788,-0.6019 2.78685,-4.6842 6.9375,-5.40625 4.71884,-0.84275 6.93908,-6.1236 8.53125,-6.90625 -1.42159,3.97257 -4.15074,7.01956 -8.1875,8.34375 -4.03677,1.3242 -6.38419,6.14926 -9.625,9.21875 1.42135,-10.59297 0.36434,-14.31908 7.8125,-19.375 z m 275.96875,2.875 c -1.81921,5.65755 -6.03929,6.91082 -11.15625,7.03125 4.03675,-1.80566 7.74511,-4.08218 11.15625,-7.03125 z m -259.15625,6.6875 c -4.9464,3.97257 -5.72834,7.75317 -8.34375,11.90625 0.68232,0.54155 10.86029,-2.18991 11.65625,-2.25 -3.86619,1.86575 -14.09481,6.23487 -16.9375,6.65625 6.0835,-4.93549 6.57494,-14.26601 13.625,-16.3125 z m 24.5625,12.34375 c 1.513,-0.1292 3.71155,1.69108 2.96875,3.71875 -4.83273,12.82002 -11.90839,19.23957 -21.6875,18.15625 1.87615,-3.06952 15.81433,-2.2e-4 17.40625,-20.34375 0.071,-1.01571 0.62479,-1.47252 1.3125,-1.53125 z m 14.9375,6.125 c 1.13656,0.0346 2.42647,1.14523 2,2.6875 -4.32098,15.4083 -15.23311,21.66768 -19.15625,20.34375 2.38813,-4.27351 12.27612,-1.25721 15.6875,-21.78125 0.14921,-0.90283 0.78683,-1.2708 1.46875,-1.25 z m 12.53125,5.75 c 0.0872,-0.009 0.19022,-0.007 0.28125,0 1.21374,0.094 2.6721,1.58845 2.28125,3.28125 -3.35445,14.44513 -15.53152,18.71442 -19.625,15.34375 2.10367,-1.98616 14.28306,0.60381 15.875,-17.03125 0.0933,-1.04671 0.57683,-1.52831 1.1875,-1.59375 z m 25.875,38.59375 c -11.9395,6.68104 -23.61203,9.8275 -34.8125,11.03125 -8.13026,0.84249 -14.96313,1.50356 -23.71875,0.78125 -7.33427,-0.60188 -20.28527,4.20563 -22.84375,12.8125 -1.13714,3.85215 -2.99927,9.43507 -8.34375,12.625 -5.23061,3.12985 -6.79222,6.70907 -7.53125,12.96875 -0.62539,5.11599 1.78269,15.14468 4,18.09375 4.83272,6.44018 6.65185,14.6861 4.71875,21.96875 -1.0802,3.97256 -1.71717,9.64684 -0.125,12.65625 1.93308,3.67136 4.11437,8.17096 -1.34375,12.625 -10.17722,8.18548 -21.39776,13.61318 -25.71875,16.5625 -3.7523,2.52796 -9.95623,7.23258 -11.71875,9.21875 -5.34447,5.89865 -13.63343,5.89521 -18.125,-0.90625 -2.8427,-4.27325 -3.19075,1.43063 -7,-0.375 8.9262,-6.74111 9.43084,-20.8139 2.4375,-16.78125 -2.61518,5.83829 -7.39105,6.68204 -13.53125,4.09375 -7.50509,6.07913 -2.14557,19.47817 7.40625,16.46875 0.34116,2.22702 2.39672,5.79407 3.875,6.9375 -2.72906,2.28711 -12.41248,7.52225 -15.9375,2.40625 -4.54851,-6.74111 -15.33858,-7.59427 -14.65625,2.15625 4.26429,2.76856 6.12174,17.40725 2.3125,18.25 1.42135,11.79703 21.57253,7.20914 14.75,-10.125 3.97983,-0.42136 2.222,7.96418 6.03125,7.84375 3.41138,-0.12042 5.90746,-1.75114 8.125,-4.21875 1.81922,1.44437 2.87783,4.07849 3.21875,6.125 0.3981,2.28711 -3.79816,2.59361 -3.96875,7.46875 -9.60853,-0.78242 -13.69676,7.40371 -8.125,12.21875 2.8427,-1.50474 10.55953,3.51132 10.84375,7.0625 8.07353,4.2132 14.66844,-7.95555 4.71875,-14.9375 1.25077,-2.76858 4.48864,1.68306 4.375,-3.3125 -0.0569,-2.22704 3.53307,-3.38314 5.125,-2.78125 1.19383,0.48143 4.09336,-2.51956 4.71875,-3.84375 1.87639,-4.03264 3.86767,-7.52541 6.3125,-6.5625 -0.79597,0.84275 0.28604,8.60762 1.59375,10.59375 -6.42466,6.68075 -2.44517,18.43751 4.71875,15.1875 -0.11387,-3.06978 6.71026,-6.52907 11.03125,-3.21875 5.23061,-2.34746 4.78793,-11.89798 -1.125,-14.125 -1.99002,-0.78238 -4.5554,-0.53937 -7,0.0625 -0.17057,-3.91222 5.27388,-0.6142 3.625,-7.65625 -0.62537,-2.70846 6.4445,-7.63212 8.71875,-2.9375 1.25078,2.5883 4.54418,5.05933 6.25,-2.34375 5.40117,2.40753 15.04782,-0.0833 19.9375,-2.25 -2.04697,-1.50469 -3.40884,-5.57621 -3.75,-9.1875 4.79528,5.55408 22.27978,2.79403 32.4375,-3.1875 -1.26421,0.33436 -3.16203,-2.6701 -4.28125,-6.28125 5.40119,6.62071 6.30554,5.6146 8.125,4.53125 -2.27424,-1.62512 -5.29122,-7.16754 -7.28125,-10.71875 5.68565,4.57446 17.11237,6.86943 23.59375,2.65625 -3.12694,-3.79179 -11.59055,-7.10351 -11.875,-16.3125 2.33122,5.83829 5.11811,10.15499 11.03125,12.5625 -11.76916,-15.34795 -9.54074,-23.76432 -16.875,-36.34375 3.69562,4.39367 8.4716,9.80095 12.90625,9.5 -12.33761,-13.54234 -6.60955,-21.43074 -12.75,-38.34375 2.55849,3.00941 7.05439,8.0184 10.75,10.125 -3.18388,-7.58386 -0.28312,-16.80612 6.9375,-28.84375 8.30081,-13.78317 33.08606,-29.43313 55.54392,-38.28083 -6.42438,-8.92525 -14.65457,-12.27455 -27.73142,-13.71917 z m -113.40625,44.9375 c -6.86982,0.068 -12.06637,3.49245 -18.125,9.90625 -6.76583,7.16249 -10.40174,16.08194 -13.1875,19.03125 4.66215,-0.18051 8.92982,-11.99059 16.09375,-15 6.7656,-2.82889 11.43164,-2.40536 20.1875,0.0625 8.47141,2.40753 11.82793,-9.86216 5.6875,-11.96875 -4.05092,-1.39188 -7.5336,-2.06217 -10.65625,-2.03125 z m -7.34375,13.8125 c -3.62987,0.0226 -7.2424,1.31582 -10.3125,5.0625 1.53499,0.18051 7.61512,-4.57534 13.8125,-2.46875 7.10677,2.40752 9.56614,3.42162 12.75,-0.25 -3.46807,0.90282 -7.96285,-1.06592 -12.625,-1.96875 -1.19394,-0.22571 -2.41504,-0.38252 -3.625,-0.375 z m 18.34375,6.6875 c -0.68325,0.0169 -1.35629,0.47913 -1.71875,1.5625 -2.67211,8.06531 -9.78125,7.28301 -9.78125,18.71875 1.70558,-0.42137 1.55263,-4.26117 7.75,-9.4375 2.33097,-1.92607 4.8205,-1.44854 5.84375,-8.25 0.21322,-1.42944 -0.95499,-2.62194 -2.09375,-2.59375 z m 108.15625,39.25 c -1.04134,-0.0104 -2.36604,0.20481 -4.125,0.65625 -8.86951,2.28709 -15.33907,19.75059 -9.3125,31.96875 5.96985,12.03789 6.25859,20.57266 -2.78125,24.90625 3.01327,3.49112 17.21148,-3.14033 10.84375,-19.8125 -5.91293,-15.40804 1.53015,-19.43851 7.5,-23.53125 3.46831,-2.34745 4.33934,-8.17594 2.40625,-11.125 -1.28987,-1.94488 -2.24032,-3.03972 -4.53125,-3.0625 z m 6.46875,11.96875 c -1.70558,3.55119 -5.18756,4.08079 -9.28125,7.8125 -4.09348,3.7317 -2.94964,12.39595 -1.8125,12.9375 0.56867,-1.7453 0.63161,-8.64315 3.53125,-10.75 4.5485,-3.18992 6.42539,-4.58306 7.5625,-10 z m 4.1875,1.21875 c -0.563,0.0709 -1.12618,0.55202 -1.53125,1.5 -1.25101,2.94931 -1.25618,6.78098 -0.6875,10.03125 1.70556,8.96811 4.40576,12.83103 9.75,13.3125 -2.27403,-2.28709 -5.98644,-7.04128 -4.90625,-13 0.56844,-3.3707 0.86724,-6.51943 -0.15625,-9.46875 -0.53308,-1.54227 -1.53044,-2.49312 -2.46875,-2.375 z"
       id="Body" />
    <path
       d="m 249.28391,43.802414 c 1.08019,0 1.99003,1.023248 1.99003,2.287098 0,1.264106 -0.90984,2.22701 -1.99003,2.22701 -1.08019,0 -1.99003,-0.962904 -1.99003,-2.22701 0,-1.26385 0.90984,-2.287098 1.99003,-2.287098 z m -4.37239,3.202064 c 0.90961,2.287097 2.45388,2.531298 4.38697,3.975658 -1.36441,0.240859 -2.80784,0.508716 -3.88802,-0.755384 -1.08043,-1.26385 -1.3609,-3.337355 -0.9061,-4.842058 l 0.40715,1.621784 z"
       id="Eye" />
    <path
       d="m 119.59375,44.78125 c -0.47579,-0.0054 -0.98757,0.04977 -1.53125,0.125 -2.72905,3.671628 -7.48854,5.539385 -12.09375,4.9375 -5.06025,5.777958 -2.01439,16.250132 6.96875,14.625 1.42135,7.463434 7.30247,18.159156 14.125,25.5625 -5.79928,-0.240858 -15.30579,-2.333325 -17.125,-4.5 -0.85291,-9.509928 -8.97536,-11.813031 -11.875,-2.0625 2.16038,2.166668 5.68027,8.551817 3.40625,13.96875 0.22728,6.80121 14.03318,14.63063 10.90625,-4.75 2.78577,0.722307 0.85256,3.853019 4.71875,5.71875 6.65218,3.25026 12.24343,5.64455 13.4375,10.21875 1.30747,5.17633 -1.30516,10.43267 -3.75,13.5625 -6.02656,-0.24085 -8.13091,7.81237 -3.46875,9.4375 4.71885,-0.96317 8.45365,2.09488 9.875,4.5625 8.30082,0.36102 8.59976,-9.07481 -0.78125,-13.46875 1.36442,-2.88898 2.65227,1.20847 4.1875,-1.5 1.25077,-2.22701 2.16181,-6.24961 2.21875,-11.125 8.07352,20.04285 34.11689,62.63743 37.8125,68.65625 1.64887,-1.86574 3.36225,-3.72561 5.125,-5.53125 -24.73211,-40.32605 -33.15989,-56.64417 -36.34375,-66.09375 7.22063,7.88479 8.25322,19.99445 37.875,64.59375 3.07022,-3.00941 6.25067,-5.60302 9.71875,-7.46875 -6.31079,-7.82446 -44.5092,-56.15989 -47.75,-74.15625 -0.8529,-4.815048 0.16248,-12.152558 3.6875,-17.75 3.01329,-4.754968 -2.7199,-4.407004 -0.84375,-8.5 7.10699,6.86155 15.15995,-1.067948 9.53125,-6.90625 -3.6956,-0.601884 -7.89153,-3.683685 -8.6875,-7.65625 -6.5383,-7.102153 -16.14221,0.777294 -7.5,9.625 -0.45504,1.745307 -4.33162,14.880447 -5.46875,23.96875 -7.10698,-6.801207 -11.24007,-14.50316 -13.34375,-21.90625 -1.59193,-5.657785 -4.51615,1.861284 -5.9375,-1.75 9.48775,-5.586309 10.04313,-14.356155 2.90625,-14.4375 z m 105.0625,143.4375 c -0.33697,-0.0228 -0.66383,-0.008 -0.96875,0.0312 -6.28949,-0.0482 -5.87605,3.75673 -8.59375,9.09375 -3.51267,8.39456 -7.97587,17.37323 -12.375,27.59375 -8.86993,20.6076 -17.68746,56.49443 -32.46875,80.40625 -4.70955,7.61868 -10.86253,5.53494 -16.71875,-0.0625 -3.80923,-3.55121 -5.88678,-5.66271 -9.46875,-15.59375 -1.64863,-4.69488 -2.06729,-0.44677 -3.375,-2.3125 6.0835,-3.00966 6.82353,-14.79053 -1.25,-13.40625 -2.44483,3.25026 -5.96582,3.90855 -10.34375,2.34375 -6.93617,5.59744 -0.17003,16.31023 8.1875,14.625 2.13439,12.5097 2.33257,18.79211 14.63977,20.39564 -7.28188,-1.3223 -23.63531,-3.94861 -30.51477,-8.58314 1.25077,-9.87096 -9.48633,-17.3881 -13.125,-8.78125 1.93309,6.62069 0.84888,11.66767 -2.5625,16.84375 1.70557,10.1118 10.20805,8.40792 13.5625,-2.125 2.10367,1.92607 -0.93888,3.50115 0.9375,5.96875 3.07022,4.03265 6.37169,5.37868 11.375,3.03125 2.89964,3.79181 11.28126,5.42988 20.02691,1.90842 -6.63029,2.47247 -19.70338,15.41552 -27.77691,17.34158 -8.24412,-8.66694 -13.97311,-5.04791 -11.8125,4.28125 3.41115,1.38428 5.69862,5.22431 5.8125,12.6875 8.30082,7.40335 15.3566,-0.55472 8.875,-13.375 2.67235,-0.78239 3.18793,3.69689 6.65625,3.9375 1.9898,0.12043 3.79122,-1.20476 5.78125,-4.09375 4.77581,2.16694 8.13458,-0.50202 10.75,-5.4375 4.66216,1.68522 9.15332,1.86344 13.53125,-1.6875 3.92289,3.85189 5.78169,4.89812 9.25,5.5 2.78577,0.48171 4.20624,0.76767 5.96875,-1.21875 -4.09371,8.72727 1.37015,14.39966 8.875,9.34375 0.68232,-2.82864 2.80738,-5.00685 6.21875,-6.8125 2.44483,-5.53737 -3.25109,-12.45516 -10.1875,-7.21875 -6.14044,-2.4676 -11.07391,-5.54838 -15.28125,-10.0625 22.9129,-10.83385 30.0635,-37.98197 44.21875,-60.40625 4.78666,-7.58292 4.86456,-10.32735 11.125,-18.375 3.27042,-4.20404 15.81508,-16.91996 16.15625,-20.53125 8.41648,-13.35729 4.6687,-24.09421 -1.34375,-27.96875 -0.42673,-0.0332 -8.72673,-6.93988 -13.78125,-7.28125 z m 0.0312,34.0625 C 220.65073,233.7771 207.72851,257.69319 198.96875,271.125 188.779,286.74947 186.0651,305.15128 173.5,313.15625 184.35929,303.34566 188.84549,280.3012 198.84375,266 c 7.71832,-11.04005 15.60984,-28.29343 25.84375,-43.71875 z"
       id="Arms" />
    <path
       d="m 225.96156,38.825063 c -2.44483,1.805642 -3.21356,3.735083 -2.0195,5.841671 1.93309,3.370431 6.82048,12.558038 6.76377,16.410181 -0.0569,2.467606 0.26935,3.800108 2.31608,4.341906 3.58197,0.902818 2.56122,2.201574 6.82526,4.609101 1.97558,3.353502 0.88718,2.264311 3.73033,6.301331 -4.79098,5.607153 -11.05158,7.799742 -16.45852,9.886187 -8.95272,3.454708 -21.45754,6.449586 -17.99729,16.37852 2.54648,-7.10943 14.34006,-9.575728 19.0631,-10.166256 2.42286,-0.302934 8.34325,-3.308468 12.25678,-4.631364 3.89403,-1.316313 6.12143,-2.958211 6.94824,-3.74072 2.32683,-2.202158 3.08972,-1.562274 4.85761,-4.78723 -2.3314,-4.441203 -2.7349,-5.471989 -4.48868,-8.015828 -1.69457,-2.457959 -5.472,-7.939239 -6.72278,-8.661547 -2.95635,-1.745562 -4.98878,-4.02671 -5.84144,-7.036115 -1.08042,-3.791807 -2.90569,-10.405926 -2.84898,-15.341403 0,-1.564796 0.51496,-3.145553 -0.96333,-3.807518 -1.91412,0.454615 -3.80598,1.137734 -5.42065,2.419084 z m -4.15223,4.703524 c -11.14375,2.347184 -32.98609,-10.979782 -26.1437,16.891427 6.32436,-13.580956 20.09466,0.843017 29.97762,3.250074 4.25767,1.036992 5.26943,-0.426107 4.30288,-3.315089 -1.43024,-5.465405 -4.28588,-12.613243 -8.1368,-16.826412 z"
       id="Beak"
       style="fill:#d40000" />
    <path
       d="m 232.56413,70.916995 c -4.32834,0 -6.52347,1.205801 -10.37088,3.351514 -3.84741,2.145712 -9.4358,-0.277303 -14.72599,1.439266 -5.29019,1.716563 -11.0613,4.720568 -13.94686,4.291418 -2.88556,-0.429142 -10.59098,-4.022891 -13.46593,-4.291418 -3.15699,-0.294868 -6.96615,-1.313755 -11.54222,0.429143 -2.38855,0.909729 -6.25204,4.291425 -6.25204,4.291425 0,0 3.84741,-1.877172 6.73296,-2.735457 2.88556,-0.858285 5.29019,-1.126826 8.65667,0.160602 3.36648,1.28742 6.94246,2.896043 9.82802,4.612613 2.88555,1.716567 7.00439,1.824517 10.8518,1.824517 3.84741,0 8.17574,-1.71657 12.02316,-3.43314 3.84741,-1.71657 10.39765,1.99388 13.76413,0.706452 3.36649,-1.287427 5.17872,-3.288548 7.90432,-4.317745 2.34269,-0.884612 7.45538,-1.632288 7.45538,-1.632288 0,0 -1.00336,-3.9352 -2.49259,-5.189061 -1.48923,-1.25386 -4.41993,0.492159 -4.41993,0.492159 z"
       id="Tongue"
       style="fill:#d40000" />
    <path
       d="m 105.84248,33.400044 c -1.03119,-0.05144 -2.06618,0.189779 -3.17692,0.779316 -3.554361,1.88652 -4.160744,2.516079 -4.160744,2.516079 -2e-6,0 4.740634,1.87108 6.517814,4.386439 1.77718,2.51536 2.95546,6.284452 4.14025,5.655612 3.55436,0 7.7066,-3.139533 7.7066,-3.139533 0,0 -0.58588,-4.387165 -4.14025,-6.902518 -2.44362,-1.729309 -4.61812,-3.182248 -6.88675,-3.295395 z m 50.44135,3.673921 c 0,0 -0.0105,1.771733 -0.5534,4.720431 -0.54286,2.948692 -2.70551,7.670385 -2.70551,7.080648 0,0 -1.0951,2.350027 1.61921,4.119245 2.7143,1.769217 3.25891,1.180108 3.25891,1.180108 0,0 3.81231,-4.131957 3.81231,-7.080648 0,-2.948699 -0.28255,-5.15318 -1.63971,-7.659569 -1.35715,-2.506396 -3.79181,-2.360215 -3.79181,-2.360215 z M 96.045262,86.126376 c -2e-6,0 -3.081786,0.426912 -5.001093,3.762985 -1.919308,3.336071 -2.679445,6.248559 -2.295583,8.750609 0.383861,2.50206 1.537221,4.58683 1.537221,4.58683 10e-7,0 -0.385878,-2.50784 2.685013,-5.009887 3.07089,-2.502057 6.517817,-2.493813 6.517817,-2.493813 -3e-6,0 1.157153,-1.667777 0.389429,-4.586835 -0.767725,-2.919055 -3.448944,-4.592881 -3.832804,-5.009889 z M 126.21579,134.2436 c -0.43185,0.0521 -0.61489,0.2672 -0.61489,0.2672 0.76772,-0.41701 0.37273,2.50784 -0.77886,5.00989 -1.15159,2.50205 -4.59117,4.16378 -4.59117,4.16378 0,-1e-5 6.12637,-0.002 8.8134,-1.66997 2.68703,-1.66804 4.22224,-3.76298 4.22224,-3.76298 0,-1e-5 -3.06129,-2.06664 -4.9806,-3.31766 -0.95965,-0.62552 -1.63828,-0.74238 -2.07012,-0.69026 z m 3.60734,130.79159 c -2.30317,0 -5.00109,1.24691 -5.00109,1.24691 0,0 3.46008,2.09496 4.61166,3.76298 1.15159,1.66804 1.53723,3.74072 1.53723,3.74072 -1e-5,0 1.14577,2.08091 3.8328,1.24691 2.68703,-0.83402 4.21667,-2.92293 3.8328,-3.33993 0,-1e-5 0.008,-2.07873 -2.29558,-4.16377 -2.30316,-2.08507 -4.21465,-2.49382 -6.51782,-2.49382 z m -24.96447,30.43788 c 0,-1e-5 -4.978578,0.82578 -7.665606,2.49381 -2.687031,1.66802 -3.074443,5.4368 -3.074443,8.77288 0,3.33605 0,4.16378 0,4.16378 0,10e-6 3.456287,-1.65978 5.759455,-2.49381 2.303164,-0.83402 4.611664,0 4.611664,0 0,0 2.68501,-4.18386 2.68501,-7.10292 0,-2.91906 -2.31608,-5.83374 -2.31608,-5.83374 z m 90.983,46.71446 c -1e-5,1e-5 -2.29737,1.66585 -3.83281,2.91687 -1.53546,1.25103 -1.53722,3.74073 -1.53722,3.74072 0.38385,-0.41699 2.69058,2.9188 3.07444,4.58684 0.38386,1.66805 0.75837,5.00989 0.75836,5.00989 0,1e-5 2.30116,-3.32563 2.68502,-5.41068 0.38385,-2.08505 0.77886,-4.17782 0.77886,-6.67986 -1e-5,-2.50204 -1.92665,-4.16378 -1.92665,-4.16378 z m -85.59248,1.24691 c 0,0.41703 -1.93778,1.24884 -2.7055,2.91687 -0.76773,1.66803 -1.90616,2.92074 -1.90616,6.2568 0,3.33608 0.75457,5.00772 1.90616,7.92676 1.15158,2.91907 2.70551,3.31767 2.7055,3.31766 0,0 -0.38943,-1.2326 -0.38942,-3.31766 0,-2.08504 0.76013,-2.51802 2.29558,-4.18604 1.53544,-1.66804 3.8328,-2.49382 3.8328,-2.49382 0,1e-5 0.0132,-4.58464 -1.90615,-7.5037 -1.91931,-2.91907 -3.8328,-2.91686 -3.83281,-2.91687 z m 47.48989,100.37597 c -0.76023,0.0342 -1.47337,0.22164 -2.1931,0.53439 -1.91931,0.83402 -3.46388,1.66996 -3.46388,1.66996 0,0 2.31229,0.83185 3.46388,2.91687 1.15158,2.08505 1.52786,3.74266 2.29558,5.41069 0.76772,1.66802 1.14779,4.6091 1.14779,4.6091 0,1e-5 1.9135,1.66391 3.83281,1.24691 1.91931,-0.41701 3.47121,-1.24885 5.39052,-2.91687 1.91931,-1.66807 1.90058,-2.93309 1.51672,-2.51608 0,-2e-5 0.78645,-1.23867 -1.51672,-3.74072 -2.30317,-2.50207 -3.46186,-4.18796 -6.14889,-5.85601 -1.67939,-1.04252 -3.05767,-1.41525 -4.32471,-1.35824 z m -20.61926,47.64964 c 0,10e-6 -4.61344,1.25076 -6.14888,4.58684 -1.53545,3.33609 -1.91552,6.2708 -1.1478,8.77288 0.76773,2.50203 1.53722,4.58683 1.53722,4.58683 10e-6,10e-6 1.13464,-4.16983 3.05395,-4.58683 1.9193,-0.41704 5.38495,-0.41703 5.00109,0 0,-2e-5 1.52609,-2.10292 0.75837,-5.85601 -0.76773,-3.75306 -3.05395,-7.50371 -3.05395,-7.50371 z m 209.4515,0.51213 c -0.53381,0.0196 -1.11142,0.12548 -1.78318,0.33399 -2.68702,0.83401 -5.75945,2.07075 -5.75945,2.07075 -1e-5,0 3.45071,2.101 5.37002,4.18605 1.91932,2.08503 4.61167,6.65759 4.61167,6.65759 -1e-5,1e-5 3.06686,2.08698 5.37002,1.66996 2.30317,-0.41701 2.67567,-1.23675 3.44338,-2.07075 0.76773,-0.83404 1.54659,-3.33993 0.77886,-3.33993 0,10e-6 -0.0129,-1.25488 -2.31608,-3.33993 -2.30315,-2.08505 -1.5203,-3.33581 -4.59117,-4.58684 -2.30317,-0.93827 -3.52264,-1.63954 -5.12407,-1.58089 z m -138.45238,34.93564 c -2.30317,0 -3.07444,2.5161 -3.07444,2.51608 0,0.834 1.53722,3.73852 1.53722,6.65759 0,2.91907 -1.1478,5.00989 -1.1478,5.00989 0,0 2.30294,-0.41894 4.22224,-1.66996 1.91931,-1.25102 2.69236,-3.34382 4.61167,-6.67986 1.9193,-3.33607 0,-4.58684 0,-4.58683 0,0 -3.84572,-1.24691 -6.14889,-1.24691 z m 111.00786,0.15587 c -0.79846,0.0367 -1.73887,0.22111 -2.7465,0.69025 -2.68704,1.25104 -4.9973,1.66173 -6.14889,4.16378 -1.15159,2.50203 -3.06886,6.67767 -2.68501,9.59672 0.38389,2.91906 2.68501,8.75061 2.68501,8.75061 0,0 0.76015,-2.91275 2.29559,-4.16377 1.53542,-1.25104 3.84572,-2.09302 6.14888,-2.09302 2.30317,0 3.07444,0.42305 3.07444,0.42305 0,10e-6 1.92665,-1.25488 1.92665,-3.33993 0,-2.08505 0,-3.76078 0,-6.67985 0,-2.91907 -1.54835,-7.08065 -2.31608,-7.08065 0,-10e-6 -0.90333,-0.32828 -2.23409,-0.26719 z m -156.48911,2.36021 c -1.44323,0 -2.50055,0.82384 -2.50055,0.82385 0.38386,0 -0.36893,2.07874 -0.36893,4.16378 0,2.08505 0.7657,5.00767 2.68501,7.92676 1.91931,2.91905 5.75946,4.58682 5.75946,4.58684 0,0 -0.77886,-4.15555 -0.77886,-6.65759 0,-2.50205 2.29558,-4.58685 2.29558,-4.58684 0,0 -1.5352,-2.50784 -4.22223,-5.00989 -1.00764,-0.93827 -2.00354,-1.24691 -2.86948,-1.24691 z m 238.94565,33.77781 c 0,0 -3.45072,0.81368 -5.37003,1.6477 -1.91931,0.83402 -2.29558,3.76297 -2.29558,3.76298 -0.38385,0 2.69058,4.58465 3.07444,7.50371 0.38386,2.91905 -0.77886,4.58685 -0.77886,4.58683 0,0 4.60788,-3.7487 5.75946,-5.83374 1.15158,-2.08505 0.76392,-5.00163 1.14779,-7.5037 0.38386,-2.50205 -1.53721,-4.16377 -1.53722,-4.16378 z m -66.40795,4.16378 c 0.38387,1.25102 -0.76951,3.34186 -1.53722,5.00989 -0.76773,1.66802 -0.36716,3.75065 1.16829,7.5037 1.53543,3.75308 1.53518,3.73853 4.22223,6.65759 2.68702,2.91905 3.05395,2.09302 3.05395,2.09303 0,0 0.38942,-5.01183 0.38942,-6.67986 0,-1.66803 3.46388,-3.74072 3.46388,-3.74072 0,0 -0.38007,-1.25489 -1.1478,-3.33993 -0.76772,-2.08505 -1.91906,-3.32565 -4.22223,-5.41068 -2.30317,-2.08505 -5.39052,-2.09302 -5.39052,-2.09302 z"
       id="Claws"
       style="fill:#d40000" />
  </g>
</svg>
