<?xml version="1.0" encoding="UTF-8" standalone="no"?>
<svg
   xmlns:dc="http://purl.org/dc/elements/1.1/"
   xmlns:cc="http://creativecommons.org/ns#"
   xmlns:rdf="http://www.w3.org/1999/02/22-rdf-syntax-ns#"
   xmlns:svg="http://www.w3.org/2000/svg"
   xmlns="http://www.w3.org/2000/svg"
   xmlns:xlink="http://www.w3.org/1999/xlink"
   id="svg4166"
   height="312.5"
   width="312.5"
   version="1.0">
  <defs
     id="defs4168" />
<metadata
   id="metadata1880"><rdf:RDF><cc:Work
         rdf:about=""><dc:title>Östergötlands läns vapenflagga</dc:title><dc:date>2012-01-19</dc:date><dc:creator><cc:Agent><dc:title>Lokal_Profil</dc:title></cc:Agent></dc:creator><cc:license
         rdf:resource="http://creativecommons.org/licenses/by-sa/2.5/" /><dc:rights><cc:Agent><dc:title>cc-by-sa-2.5</dc:title></cc:Agent></dc:rights><dc:format>image/svg+xml</dc:format><dc:type
         rdf:resource="http://purl.org/dc/dcmitype/StillImage" /></cc:Work><cc:License
         rdf:about="http://creativecommons.org/licenses/by-sa/2.5/"><cc:permits
         rdf:resource="http://web.resource.org/cc/Reproduction" /><cc:permits
         rdf:resource="http://web.resource.org/cc/Distribution" /><cc:requires
         rdf:resource="http://web.resource.org/cc/Notice" /><cc:requires
         rdf:resource="http://web.resource.org/cc/Attribution" /><cc:permits
         rdf:resource="http://web.resource.org/cc/DerivativeWorks" /><cc:requires
         rdf:resource="http://web.resource.org/cc/ShareAlike" /></cc:License></rdf:RDF>
</metadata>
  <rect
     style="fill:#d40000"
     id="Flaggduk"
     y="0"
     x="0"
     height="312.5"
     width="312.5" />
  <g
     style="fill:#ffcd50"
     id="Dragon-winged-griffin"
     transform="matrix(1.0045616,0,0,1.0045616,19.016602,12.165967)">
    <g
       style="stroke:#d40000;stroke-width:1;stroke-linecap:round"
       id="Dragon-wing-2"
       transform="translate(-19.12075,-0.475576)">
      <path
         id="path2057"
         d="m 173.82088,136.82618 c 2.68342,3.58074 3.81437,0.0773 4.29404,-1.43529 6.65873,-21.01337 22.0863,-21.45253 25.32116,-20.48312 3.23485,0.96942 4.08736,-1.47578 2.98592,-2.4684 -1.10179,-0.99303 -6.77857,-7.39183 -4.59374,-19.782465 2.18477,-12.390646 14.5891,-16.387534 16.7218,-16.41086 2.1323,-0.0234 3.61443,-1.157591 2.30581,-2.18709 -1.30864,-1.029505 -10.43227,-12.025934 -8.52054,-22.867917 1.91166,-10.841639 24.19745,-32.594405 27.338,-37.366079 3.60662,-0.130592 -1.25028,-2.498873 -1.25028,-2.498873 -41.16207,24.154027 -81.82496,38.425112 -87.73356,44.170234 -5.90893,5.745065 -1.86196,12.804469 2.31044,13.390059 4.13292,0.580391 9.97716,0.0058 10.90804,2.582546 1.07766,2.983899 -2.0817,4.153001 -7.81864,10.128076 -5.73616,5.97487 -6.97284,19.878079 -6.97282,19.878089" />
      <g
         id="g2059">
        <path
           id="path2061"
           d="m 239.31781,10.410868 c 0,0 5.48677,-4.4250053 10.40268,1.633009 0,0 -7.09941,-1.376082 -9.57788,1.373148 -0.36997,0.410382 -1.98893,-2.231665 -0.8248,-3.006157 z" />
        <path
           id="path2065"
           d="m 203.43885,114.8994 c 8.09588,1.18676 5.91215,8.18633 5.91215,8.18633 0,0 4.97933,-2.94797 2.78118,-7.16118 -1.95706,-3.75184 -6.61412,-4.45794 -6.61412,-4.45794 0,0 0.60367,2.45598 -2.07921,3.43279 z" />
        <path
           id="path2067"
           d="m 173.81693,136.82483 c 2.8265,2.48679 5.23927,5.47844 1.46043,9.66027 0,0 5.7317,-0.88994 5.95403,-6.17402 0.12034,-2.86436 -3.11671,-4.92396 -3.11671,-4.92396 0,0 -0.86367,1.95614 -4.29775,1.43771 z" />
      </g>
      <path
         style="fill:none"
         id="path2075"
         d="m 178.11474,135.38677 c 0,0 -17.97354,-28.27627 -21.32814,-34.32206 -3.35418,-6.046071 0.36661,-14.731144 8.73859,-10.091418 8.37201,4.639729 27.41664,16.951608 37.91444,23.925898" />
      <path
         style="fill:none"
         id="path2077"
         d="m 205.51885,111.4664 c 0,0 -26.00354,-17.306828 -34.60494,-23.81006 -8.60143,-6.503231 -3.69039,-10.901086 2.32525,-10.671342 6.01526,0.229669 45.92853,-0.795896 45.92853,-0.795896" />
      <path
         style="fill:none"
         id="path2079"
         d="m 219.60337,72.581225 c 0,0 -32.96375,-1.878439 -49.883,-2.243839 0,0 1.42905,-4.663782 -6.35545,-6.036399 -7.78449,-1.372612 -9.52084,-6.042204 -3.77502,-10.919903 7.04004,-3.207397 37.81283,-14.908862 74.7922,-35.794912" />
    </g>
    <path
       id="Body"
       d="m 122.14947,17.248063 c -5.73134,2.084318 -8.84887,1.446719 -12.87257,1.388366 2.49853,0.581311 6.0502,1.438159 7.93784,2.173095 1.83953,-0.464999 2.40883,-1.401896 4.93473,-3.561461 z m -23.285313,0.347092 c -1.295348,0.05543 -2.383812,0.534255 -3.289824,1.871276 -0.713886,1.017293 -1.832745,1.287143 -2.052368,2.972915 -0.274626,2.12175 0.220512,4.405385 0.769638,5.945829 0.466752,1.337083 0.841181,2.683364 2.625823,3.787825 1.867022,1.162619 2.586389,2.17656 3.818004,3.712371 1.17462,1.464735 1.4559,2.95101 2.82201,5.130919 0.762,1.584072 -0.0555,0.08101 -1.44873,2.444731 -1.05646,1.792366 -2.402836,1.672824 -3.501099,2.39946 -0.631284,1.160511 4.062709,3.273994 4.074549,6.926741 -2.24856,7.164047 -5.705572,11.414819 -8.149102,13.536571 0.713876,0.290654 1.423551,0.312491 2.08255,0.196182 -2.88291,1.889255 -4.445945,6.340338 -9.250745,7.183286 -2.498528,0.406963 -4.635738,0.728716 -6.640013,3.199279 2.745542,0.203479 5.491315,0.383899 8.20947,0.558365 -2.773038,1.714784 -6.756958,4.006337 -10.518383,4.587645 -4.420423,0.697626 -8.237542,3.020945 -9.280927,4.270735 -2.827911,3.429699 -6.594015,7.619262 -9.778927,8.752744 4.530295,0.261635 5.380491,-1.658772 7.741651,-3.984008 2.141643,-2.092739 5.448355,-3.369698 8.798016,-3.486006 3.32217,-0.116189 6.720601,-0.704175 9.356382,-2.535278 -1.564899,2.819253 -6.072758,2.786729 -9.17529,3.048369 -4.502798,0.406843 -7.678998,2.55699 -9.024381,4.300918 2.96528,-0.755653 5.630991,-2.641465 8.843289,-2.263641 -0.549131,2.644908 -3.554565,3.686723 -5.613828,3.802916 -1.867022,0.08717 -4.281036,2.18751 -5.296919,4.134917 -2.992777,5.696904 -6.631813,10.780024 -10.805112,10.518384 5.106807,2.55773 8.999337,-1.83029 11.635113,-5.08565 2.718156,-3.31351 6.538949,-5.322133 10.080746,-4.014186 -7.742587,-0.174465 -10.088009,5.085946 -13.657298,9.416746 3.075152,-2.4997 6.246368,-8.62141 10.337292,-6.38347 -2.608284,1.54057 -7.253762,6.00558 -8.571652,7.1682 -3.047655,2.7322 -4.28614,10.81707 -12.193478,15.84548 5.16169,0.55217 8.322051,-1.922 10.216565,-5.20637 2.745652,-4.73764 4.562809,-10.81021 8.873471,-10.54857 -3.432036,1.04631 -6.437234,7.53411 -8.194379,11.1673 2.388656,-1.54045 6.839039,-11.63696 10.820202,-8.14911 -5.518686,3.11003 -8.47988,5.72712 -10.292019,18.89385 2.580898,-5.26092 3.671724,-8.80752 4.934736,-10.23165 1.752848,-1.99413 2.736859,-2.20005 5.115828,-2.05237 0.402206,-1.03952 0.974276,-1.91876 1.569458,-3.41055 1.574045,-2.97617 1.33994,-2.92568 4.738554,-9.50729 0.815036,-1.57836 1.571032,-3.33519 3.742553,-7.651106 0.505732,-1.005129 14.667058,1.426526 15.498392,4.150006 0.899454,2.94665 -1.049773,6.70872 -2.942732,9.6582 -2.564586,3.99595 -8.100825,10.42239 -8.420743,10.94093 -0.315935,0.51208 -5.891734,9.9394 -6.11183,10.45802 -0.890114,2.09736 -5.957786,10.25122 -6.232557,10.75984 1.180642,-1.42414 2.521828,-4.69831 4.059462,-5.22146 1.921904,-0.66848 2.395977,-0.80992 3.591643,-0.8451 -1.740229,1.04368 -2.187486,2.32263 -3.033278,3.30492 -0.91101,1.05804 -1.401507,4.04788 -3.033279,8.45092 1.21887,-1.74422 3.523505,-5.62699 5.342192,-6.86637 1.499638,-1.02197 1.764645,-1.01527 2.24855,-1.44873 -0.72988,1.20473 -3.689046,2.71697 -4.331099,4.79891 0.925226,-1.01751 2.851269,-2.28408 3.742552,-2.00709 -1.19484,1.53331 -1.589658,3.38372 -1.463821,6.50419 1.850898,-2.11977 3.44636,-3.98836 4.678191,-3.84819 -0.893113,0.97648 -0.391495,4.10785 -0.63382,6.65511 0.494259,-2.00557 3.408452,-1.7141 4.451827,-5.08565 1.262892,1.24979 0.198495,4.62182 0.830002,5.11583 0.302002,-1.24979 1.714827,-2.44804 3.938734,-3.32001 -0.439264,1.2788 -1.779296,1.14513 -1.916549,2.27874 1.427641,0.46499 2.416974,-0.90375 3.04837,-1.25255 -0.658897,2.26707 0.607124,4.8251 1.705275,5.90055 0,-1.56958 1.147791,-3.96438 1.916545,-5.41764 -1.537513,9.73691 22.92912,7.67564 30.58933,8.3151 4.44792,0.37782 10.79517,2.67931 15.40785,5.64401 1.67477,1.10447 4.17058,0.87161 4.22546,-3.54637 0.0275,-3.2262 -2.64038,-7.14524 -5.52328,-7.72656 -8.3741,-1.68577 -17.54131,-8.11019 -21.54986,-14.56275 7.79758,7.29537 11.23401,10.6604 24.52278,11.21257 2.27889,3.7785 3.47572,7.33399 4.43673,11.25784 0.82363,3.40068 0.66062,7.28266 -0.43764,10.6542 -1.42765,4.30178 -4.36641,8.75759 -7.00219,11.63511 -2.69078,2.9647 -3.63923,4.55507 -4.27074,8.42074 -0.49425,3.05187 0.0701,6.3369 0.0151,9.44693 -0.0549,3.69133 -1.25024,4.91271 -0.61873,8.6622 0.46675,2.81924 0.56243,3.3243 2.73146,5.01019 3.8439,2.99371 10.31027,6.5337 15.96621,8.48111 1.94939,0.66847 3.25754,1.42456 4.30092,2.76164 3.89878,5.05732 3.76508,4.93695 7.03237,6.56456 1.2904,0.63947 1.7566,1.85722 0.90546,3.45582 -0.71377,1.33697 -1.9009,3.22651 -2.80692,4.3311 -2.69077,3.28438 -5.82012,6.72423 -7.13801,10.88057 -0.54913,1.74391 -2.60538,3.1686 -4.52728,1.19218 -0.54914,-0.58132 -1.97106,0.74842 -2.52019,-0.58855 5.21657,-2.20905 3.864,-9.70629 0.6791,-8.60183 -0.85115,3.05188 -4.5326,3.91647 -6.86638,2.55037 -2.96518,1.56958 -1.88445,7.10158 3.60673,8.90365 -0.57663,3.66231 -4.31016,3.74992 -6.83619,2.76164 -0.49414,-0.17436 -0.33962,1.54086 -1.328,1.19219 2.80052,-6.53984 -4.91151,-8.11237 -6.80602,-4.01419 1.26301,1.10445 1.40594,7.72539 -0.24145,9.26583 0.35699,4.47614 5.31752,5.76175 7.34928,-2.17309 0.68638,0.17436 0.11874,1.36763 1.16201,2.00709 1.07087,0.6685 2.49463,1.16539 3.75764,1.25255 1.15314,0.0872 2.64017,-0.6394 3.84819,-0.78473 -0.82364,1.19165 -1.93252,2.67164 -2.70128,3.86328 -1.07077,1.65677 0.45166,1.50228 -0.0151,2.11273 -5.21657,-3.48784 -9.88778,0.35703 -7.03238,2.97292 2.66327,0.11632 4.97091,2.49318 6.39856,6.50419 3.65166,1.68578 6.50845,-5.02956 2.14291,-8.28492 0.49414,-0.75565 1.69357,1.04631 2.79183,0 0.68638,-0.63946 1.62109,-1.03507 2.44473,-2.05237 1.89451,2.06361 4.2849,0.68592 5.79492,-3.06346 0.76887,1.59861 1.67578,2.79072 2.74655,3.54637 -4.83231,5.26093 0.60579,9.10333 3.51619,6.05146 0.93351,-3.7785 2.08183,-4.79774 5.26674,-4.76873 1.64738,-2.23805 -0.33234,-5.96036 -3.98401,-4.76874 -1.5924,-2.41239 0.1125,-6.04581 2.30891,-6.68528 1.29051,-0.37781 2.72917,0.79086 4.07455,0.55836 1.51003,-0.26162 3.03928,-1.27824 4.46692,-1.94673 -0.43926,-0.37781 -1.09453,-1.02495 -1.47891,-1.78073 5.29905,-1.59862 9.54828,-3.77936 11.93693,-7.09274 -1.70227,-0.0582 -3.3779,-0.66235 -5.02528,-1.79582 4.20079,-2.15089 7.08739,-4.13086 9.00929,-5.9911 -1.89452,0.29065 -3.45622,0.0587 -4.8291,-0.37728 3.67916,-0.14532 6.85679,-0.92153 8.88856,-3.30491 -0.60412,-0.029 -1.17391,-0.0302 -1.75055,-0.0302 2.5809,-3.48785 2.79307,-7.91334 9.19038,-16.31331 -1.94938,1.9474 -5.98508,1.78295 -8.8131,1.8411 5.10681,-0.66861 9.09467,-3.00297 10.71456,-6.14202 -4.17329,3.25535 -9.64177,4.77046 -16.01148,4.42165 2.69066,-1.48242 4.89458,-4.30625 5.55346,-7.59074 -3.45942,3.05187 -8.24529,3.89579 -12.25384,2.38437 1.45514,-1.13349 2.7559,-2.67833 3.30492,-4.8291 -3.07504,2.55772 -7.85762,3.11057 -10.85039,1.19218 -4.53018,-2.87754 -7.74092,-6.85446 -10.92584,-10.86548 -4.11842,-5.11547 -1.92381,-13.34344 0.73946,-18.92403 2.52591,-5.31895 3.84662,-10.62922 2.00709,-18.62222 2.19652,2.64491 3.10448,10.74566 1.23746,15.4833 1.9219,5.58059 4.02981,9.82181 7.37947,13.68748 5.62845,6.42342 8.75269,9.48766 17.26403,9.37148 9.82924,-0.14533 14.20057,-6.48674 14.20057,-20.96132 10e-6,-5.17362 -3.08001,-16.50516 -4.91964,-24.6435 -3.21229,-14.21306 4.78145,-22.21178 12.66129,-19.01458 1.81636,-0.12649 5.01656,-6.1649 -3.68218,-5.46292 -6.3972,-1.22077 -17.26476,8.57752 -14.07985,26.01678 1.20813,6.53984 4.01227,14.55004 4.75365,22.07804 0.87863,8.83595 -2.88303,15.41288 -8.20947,15.93603 -4.8598,0.46512 -10.43827,-2.26902 -13.43094,-6.33819 -5.49119,-7.41169 -8.20381,-13.72316 -10.42784,-26.04696 -1.04326,-5.8421 -2.60609,-9.09062 -7.57565,-13.56675 -3.95366,-3.51688 -8.65226,-6.31016 -13.26493,-8.72257 -9.24854,-8.08437 -23.65913,-18.70632 -33.50188,-20.62931 -1.24176,-9.70612 -2.29526,-15.06497 -2.16822,-20.0241 0.12634,-4.931624 -1.22055,-9.408533 -1.06124,-17.295786 -0.0275,2.703065 0.54897,8.241922 2.27873,7.515287 -0.6315,-4.853955 -1.11104,-9.993315 0.61873,-14.789119 0.52162,0.581303 1.26303,1.128933 1.97691,1.44873 -0.96101,-4.883089 -2.02437,-9.900562 -0.67909,-14.638209 0.49424,-1.831098 -0.38556,-2.734705 -0.46782,-5.96092 0.52163,0.871961 1.20814,1.358672 1.97691,1.765639 -0.82364,-2.674046 -3.04871,-6.271388 -2.00709,-8.767834 2.80029,-6.711463 5.6197,-14.057532 3.53128,-19.527674 -2.63579,0.494135 -8.75027,1.507628 -10.39766,-1.28273 -0.79625,-1.395119 -1.99645,-1.896489 -3.56146,-2.158004 1.23552,-0.842946 3.47978,-0.578061 4.63292,1.660003 0.30201,0.552289 0.34049,0.906619 2.09764,0.935638 11.53152,0.20348 16.63548,-4.544388 21.24804,-8.52638 -3.45943,1.017292 -5.85968,0.145391 -9.70347,-0.784728 -4.31057,-1.017289 -8.56335,-0.144842 -12.73676,1.976913 -1.20801,0.581309 -2.69361,0.286726 -3.984,0.286727 0.52164,-1.366099 5.05703,-1.997522 6.89655,-2.927642 -3.69056,-2.217842 -7.68303,-2.739037 -10.35238,-3.561461 -0.68649,0.02914 -2.62957,-0.686885 -3.12382,-0.890365 -1.72662,-0.343037 -3.21684,-0.704335 -4.512193,-0.64891 z M 73.285018,119.4288 c -0.01,0.0259 -0.02038,0.0494 -0.03018,0.0755 0.12321,-0.0184 0.249781,-0.0461 0.377274,-0.0604 -0.124837,-0.009 -0.229455,-0.008 -0.347092,-0.0151 z m -0.03018,0.0755 c -2.795363,0.41817 -4.501976,1.89901 -5.659101,4.73855 1.165498,-0.88889 3.754789,-1.77683 5.1611,-2.42964 0.08382,-0.95442 0.255754,-1.66462 0.498001,-2.30891 z M 99.920523,20.869888 c 0.468027,-0.01091 1.049027,0.0091 1.810917,0.09055 2.63578,0.411174 4.6017,1.411082 6.79092,1.901458 -1.83952,0.456699 -3.71453,-0.01474 -6.62492,-0.513092 -4.777322,-0.57609 -4.861725,1.136035 -6.097265,2.113139 -0.200615,-1.983233 -0.06519,-2.4704 1.117251,-3.033686 1.051938,-0.501115 1.599012,-0.525648 3.003097,-0.558365 z m 0.181087,1.795822 c 2.98382,0.709046 3.78692,0.921717 7.27384,1.207275 -0.93351,0.523152 -2.26804,0.839219 -3.19928,1.13182 -0.90783,0.864785 -1.50529,2.356012 -2.55037,2.912551 -1.850459,0.985431 -4.069252,-0.237304 -4.451828,-2.640914 0.141623,-2.024472 0.785999,-2.523559 2.927638,-2.610732 z m 30.12152,2.852187 c 0.20625,-0.01094 0.40776,-0.009 0.61872,0 0.2411,0.01028 0.47725,0.03185 0.72437,0.07545 -2.88291,1.424134 -5.74058,1.347018 -9.14511,1.056366 -2.19653,2.092736 -5.14899,1.156845 -4.87437,3.772734 -5.76581,-0.581309 -5.11646,-3.943762 4.30092,-4.466917 1.29049,-0.05815 3.00359,0.195016 4.37637,0.166 1.21926,-0.02222 2.55528,-0.527031 3.9991,-0.603637 z m -8.85838,15.724757 c 1.37275,2.848512 -3.61472,5.871842 -3.9991,8.662198 -0.3295,2.470563 -1.30953,5.280597 -0.21128,7.605833 -1.94938,-1.947407 -0.82893,-5.196797 -0.36218,-7.696379 0.52164,-2.848512 5.06669,-5.606952 4.57256,-8.571652 z m -5.35729,24.61332 c 1.34539,4.040025 0.44084,6.981879 1.8411,11.952022 -2.11414,-4.737646 -1.59397,-7.708513 -1.8411,-11.952022 z m -13.89875,6.081647 c 0.19213,0.901106 -3.699966,2.993762 -3.727463,10.60893 1.784643,0.377828 2.656883,-2.449817 3.425643,-2.188186 -1.56501,3.720358 -3.427029,2.437865 -5.568556,3.833098 2.635781,-2.296218 0.653686,-8.010217 5.870376,-12.253842 z m -4.96492,0.694184 c -3.020167,3.168174 -4.230808,3.53802 -8.54147,3.71237 3.020153,-0.755657 5.933182,-1.968442 8.54147,-3.71237 z M 85.780315,90.333474 c 0.109765,1.075451 -4.33772,3.080691 -4.557464,7.062559 4.722546,1.337086 8.509478,-3.92432 9.250745,-3.54637 -3.734044,5.66776 -8.896192,4.469617 -11.861477,4.934736 2.306282,-2.06372 2.143652,-5.399054 7.168196,-8.450925 z m 12.178386,22.470406 c -1.256353,3.24075 -1.306827,3.51774 -2.761641,8.55656 2.910402,2.26709 5.9071,-1.31855 6.42874,-0.67909 -1.23552,1.3661 -5.087429,3.24633 -8.601835,2.11273 2.004264,-1.07532 1.846589,-7.08984 4.934736,-9.9902 z m -8.360379,16.22276 c -0.08238,0.95926 -3.272425,2.37399 -2.640914,6.8211 1.153131,-0.29066 1.345797,-2.26205 3.350188,-2.61073 2.278775,-0.40697 3.350951,-2.95715 4.119826,-3.3351 -0.6865,1.9184 -2.004434,3.38982 -3.953826,4.02928 -1.949397,0.63947 -3.082989,2.96954 -4.648009,4.45183 0.686384,-5.11545 0.175944,-6.91483 3.772735,-9.35638 z m 8.118924,4.61782 c -2.388666,1.9184 -2.766273,3.74409 -4.02928,5.74965 0.329499,0.26152 5.244542,-1.05753 5.628919,-1.08655 -1.867021,0.90099 -6.806524,3.01089 -8.179288,3.21437 2.937783,-2.38339 3.175105,-6.88919 6.579649,-7.87747 z m 11.861474,5.96093 c 0.73065,-0.0624 1.79235,0.81663 1.43364,1.79582 -2.33377,6.19091 -5.75068,9.29098 -10.47311,8.76783 0.90601,-1.4823 7.6369,-1e-4 8.40565,-9.8242 0.0343,-0.4905 0.30172,-0.71109 0.63382,-0.73945 z m 7.21347,2.95782 c 0.54886,0.0167 1.17177,0.55304 0.96582,1.29782 -2.08664,7.44082 -7.35622,10.46354 -9.25074,9.8242 1.15325,-2.06372 5.92826,-0.60712 7.57565,-10.51838 0.0721,-0.43599 0.37997,-0.61369 0.70927,-0.60364 z m 6.05147,2.77673 c 0.0421,-0.005 0.0919,-0.003 0.13582,0 0.58612,0.0454 1.29038,0.76708 1.10163,1.58455 -1.61989,6.9757 -7.50032,9.03738 -9.4771,7.40965 1.01588,-0.95914 6.89743,0.29159 7.66619,-8.22456 0.045,-0.50547 0.27856,-0.73804 0.57346,-0.76964 z m 12.49529,18.63731 c -5.7657,3.22634 -11.40248,4.7458 -16.8113,5.3271 -3.92618,0.40685 -7.22585,0.72608 -11.45402,0.37727 -3.54179,-0.29065 -9.795962,2.03094 -11.031478,6.18729 -0.549136,1.86024 -1.448377,4.55629 -4.02928,6.09674 -2.525914,1.51143 -3.280031,3.23987 -3.636916,6.26274 -0.302007,2.47056 0.860879,7.31351 1.93164,8.73765 2.333769,3.11003 3.212245,7.09206 2.278731,10.60893 -0.521639,1.91839 -0.829238,4.65855 -0.06036,6.11183 0.933503,1.77293 1.98687,3.94584 -0.648911,6.09674 -4.914681,3.95285 -10.333192,6.57394 -12.419841,7.99819 -1.812023,1.22078 -4.807963,3.49269 -5.659102,4.45183 -2.580898,2.84852 -6.58372,2.84686 -8.752744,-0.43764 -1.372768,-2.06359 -1.540845,0.69087 -3.38037,-0.18109 4.310552,-3.25535 4.554247,-10.05124 1.177094,-8.10383 -1.262897,2.81937 -3.569212,3.22682 -6.534376,1.97691 -3.624283,2.93567 -1.036118,9.4062 3.576552,7.95292 0.164749,1.07545 1.1574,2.79802 1.871276,3.35019 -1.31789,1.10447 -5.994111,3.63257 -7.696378,1.162 -2.196521,-3.25534 -7.407154,-3.66734 -7.07765,1.04128 2.059268,1.33696 2.95625,8.40613 1.11673,8.81311 0.686384,5.6969 10.41759,3.48136 7.122922,-4.88947 1.9219,-0.20348 1.073026,3.84599 2.912551,3.78783 1.64739,-0.0582 2.852772,-0.84564 3.923644,-2.03728 0.878519,0.6975 1.389733,1.96955 1.554366,2.95783 0.192247,1.10446 -1.834169,1.25248 -1.916549,3.60673 -4.640055,-0.37784 -6.614302,3.57533 -3.923643,5.90056 1.372768,-0.72666 5.099302,1.69565 5.236555,3.41055 3.898788,2.03459 7.083536,-3.84182 2.278731,-7.21347 0.60401,-1.33697 2.16761,0.81277 2.112732,-1.59964 -0.0275,-1.07546 1.706154,-1.63375 2.474913,-1.34309 0.576513,0.23248 1.976725,-1.21672 2.278732,-1.85619 0.906127,-1.9474 1.867736,-3.63409 3.048369,-3.16909 -0.384382,0.40697 0.138132,4.1567 0.769638,5.11582 -3.102532,3.2262 -1.180797,8.90366 2.278732,7.3342 -0.05499,-1.48243 3.240451,-3.15295 5.327101,-1.55437 2.525914,-1.13361 2.312139,-5.74565 -0.543274,-6.8211 -0.961001,-0.37782 -2.199848,-0.26047 -3.38037,0.0302 -0.08237,-1.88925 2.546809,-0.2966 1.750549,-3.69728 -0.301998,-1.30794 3.112113,-3.68563 4.210371,-1.41855 0.604014,1.24992 2.19443,2.4432 3.018188,-1.13182 2.608279,1.16262 7.266742,-0.0402 9.628018,-1.08655 -0.988502,-0.72663 -1.646163,-2.6928 -1.810913,-4.43673 2.315689,2.68212 10.75913,1.34926 15.66439,-1.53928 -0.6105,0.16147 -1.52698,-1.28941 -2.06746,-3.03328 2.60829,3.19721 3.04501,2.71135 3.92365,2.18819 -1.09826,-0.78479 -2.55519,-3.46128 -3.51619,-5.17619 2.74565,2.20905 8.26373,3.31732 11.39366,1.28273 -1.51004,-1.83109 -5.5972,-3.43036 -5.73456,-7.87747 1.12577,2.81937 2.47159,4.90395 5.3271,6.06656 -5.68345,-7.41168 -4.60732,-11.47603 -8.14911,-17.55076 1.78466,2.12174 4.09102,4.73297 6.23256,4.58764 -5.95795,-6.53973 -3.19182,-10.34912 -6.1571,-18.51658 1.23552,1.45328 3.40663,3.87217 5.19128,4.88946 -1.53753,-3.66232 -0.13672,-8.11584 3.35019,-13.92893 4.00854,-6.65603 15.97759,-14.21355 26.82271,-18.4862 -3.10239,-4.31009 -7.07684,-5.9275 -13.39178,-6.62512 z m -54.765009,21.70077 c -3.317505,0.0328 -5.826971,1.68654 -8.752744,4.78382 -3.267287,3.45884 -5.023104,7.76613 -6.368375,9.19039 2.251399,-0.0872 4.312299,-5.79038 7.771833,-7.24365 3.267175,-1.3661 5.520453,-1.16158 9.748745,0.0302 4.090929,1.16262 5.711826,-4.76254 2.746551,-5.77983 -1.95623,-0.67215 -3.638051,-0.99584 -5.14601,-0.98091 z m -3.54637,6.67019 c -1.752901,0.0109 -3.497428,0.63542 -4.98001,2.44473 0.741262,0.0872 3.677418,-2.20947 6.670195,-1.19218 3.43193,1.16262 4.619584,1.65233 6.157102,-0.12073 -1.674765,0.43598 -3.84534,-0.51474 -6.096738,-0.95073 -0.576566,-0.10899 -1.166247,-0.18472 -1.750549,-0.18109 z m 8.85838,3.22946 c -0.329948,0.008 -0.654966,0.23138 -0.830001,0.75455 -1.290389,3.89482 -4.723464,3.51704 -4.723464,9.03947 0.823642,-0.20348 0.749781,-2.05776 3.742553,-4.55746 1.125648,-0.93012 2.327867,-0.69952 2.822005,-3.98401 0.102966,-0.69029 -0.461174,-1.26616 -1.011093,-1.25255 z m 52.229739,18.95422 c -0.50288,-0.005 -1.14259,0.0989 -1.99201,0.31691 -4.28317,1.10446 -7.40739,9.53776 -4.4971,15.43803 2.8829,5.81322 3.02234,9.93474 -1.34309,12.02748 1.45514,1.68589 8.3116,-1.5165 5.23655,-9.56766 -2.85541,-7.4407 0.73893,-9.38705 3.62183,-11.36347 1.67488,-1.13361 2.09551,-3.94825 1.162,-5.37238 -0.62289,-0.9392 -1.08187,-1.46791 -2.18818,-1.47891 z m 3.12382,5.77983 c -0.82364,1.7149 -2.50512,1.97065 -4.48201,3.77273 -1.97678,1.80208 -1.42441,5.98613 -0.87527,6.24765 0.27461,-0.84282 0.30501,-4.17386 1.70527,-5.19128 2.19652,-1.54045 3.10289,-2.21321 3.65201,-4.8291 z m 2.02219,0.58855 c -0.27188,0.0342 -0.54385,0.26657 -0.73946,0.72436 -0.60413,1.42425 -0.60662,3.2746 -0.332,4.84419 0.82363,4.33079 2.12758,6.19623 4.70837,6.42874 -1.09815,-1.10446 -2.89091,-3.4003 -2.36928,-6.27783 0.27451,-1.62774 0.4188,-3.1483 -0.0754,-4.57255 -0.25743,-0.74478 -0.73907,-1.20396 -1.19218,-1.14691 z" />
    <g
       style="stroke:#d40000;stroke-width:1;stroke-linecap:round"
       id="Dragon-wing">
      <path
         id="path7265"
         d="m 116.3858,124.83829 c 8.52959,-3.13108 20.0066,8.76632 26.62768,14.09311 0.67357,0.84089 1.32199,1.76294 1.94355,2.79307 0.24126,0.39979 0.56062,0.74496 0.91163,1.0062 0.35102,0.26123 0.74188,0.45002 1.14128,0.51649 0.39941,0.0665 0.80299,0.0217 1.18942,-0.16285 0.38643,-0.18452 0.75294,-0.50984 1.06504,-1.00156 0.54524,-0.83645 1.11544,-1.59885 1.71967,-2.27612 0.60423,-0.67726 1.24376,-1.2691 1.89386,-1.80118 0.6501,-0.53208 1.3116,-0.99563 1.99446,-1.39654 0.68287,-0.4009 1.38356,-0.73841 2.08608,-1.02214 7.717,-3.11779 16.23093,0.39693 16.86241,1.23941 2.68342,3.58074 3.81437,0.0773 4.29404,-1.43529 6.65873,-21.01337 22.0863,-21.45253 25.32116,-20.48312 3.23485,0.96942 4.08736,-1.47578 2.98592,-2.4684 -1.10179,-0.99303 -6.77857,-7.39183 -4.59374,-19.782465 2.18477,-12.390646 14.5891,-16.387534 16.7218,-16.41086 2.1323,-0.0234 3.61443,-1.157591 2.30581,-2.18709 -1.30864,-1.029505 -10.43227,-12.025934 -8.52054,-22.867917 1.91166,-10.841639 24.19745,-32.594405 27.338,-37.366079 3.60662,-0.130592 -1.25028,-2.498873 -1.25028,-2.498873 -41.16207,24.154027 -81.82496,38.425112 -87.73356,44.170234 -5.90893,5.745065 -1.86196,12.804469 2.31044,13.390059 4.13292,0.580391 9.97716,0.0058 10.90804,2.582546 1.07766,2.983899 -2.0817,4.153001 -7.81864,10.128076 -5.73616,5.97487 -6.97284,19.878079 -6.97282,19.878089 -1e-5,0 -8.71256,-6.751212 -19.71877,-7.632553 -4.70933,-0.377539 -10.49175,-0.275869 -13.90581,0.732402" />
      <g
         id="Wing-tips">
        <path
           id="path7297"
           d="m 239.31781,10.410868 c 0,0 5.48677,-4.4250053 10.40268,1.633009 0,0 -7.09941,-1.376082 -9.57788,1.373148 -0.36997,0.410382 -1.98893,-2.231665 -0.8248,-3.006157 z" />
        <path
           id="path7299"
           d="m 219.88151,72.661077 c 0,0 4.65348,0.44806 6.58633,3.247461 1.22831,1.77834 1.32567,3.941107 0.0965,5.681604 0,0 -1.67791,-5.973203 -7.39666,-5.400697 -0.98806,0.09876 -0.72951,-3.600894 0.71388,-3.528368 z" />
        <path
           id="path7301"
           d="m 203.43885,114.8994 c 8.09588,1.18676 5.91215,8.18633 5.91215,8.18633 0,0 4.97933,-2.94797 2.78118,-7.16118 -1.95706,-3.75184 -6.61412,-4.45794 -6.61412,-4.45794 0,0 0.60367,2.45598 -2.07921,3.43279 z" />
        <path
           id="path7303"
           d="m 173.81693,136.82483 c 2.8265,2.48679 5.23927,5.47844 1.46043,9.66027 0,0 5.7317,-0.88994 5.95403,-6.17402 0.12034,-2.86436 -3.11671,-4.92396 -3.11671,-4.92396 0,0 -0.86367,1.95614 -4.29775,1.43771 z" />
        <path
           style="stroke-width:0.82340151"
           id="path7305"
           d="m 145.1039,142.0011 c 0,0 0.34269,3.96259 -6.64978,5.98898 0,0 5.73271,0.67877 8.05592,-0.89081 2.29569,-1.5511 1.99576,-4.50794 1.99576,-4.50794 0,0 -1.8582,0.87695 -3.4019,-0.59023 z" />
      </g>
      <path
         style="fill:none"
         id="path7307"
         d="m 118.10646,100.92936 c 0,0 5.97429,-5.205637 15.65168,-2.740499 9.6774,2.465129 10.27244,7.121839 10.09121,18.470059 -0.18125,11.34822 1.11145,25.07077 1.11145,25.07077" />
      <path
         style="fill:none"
         id="path7309"
         d="m 149.09263,142.44692 c 0,0 -0.81404,-22.73005 -0.30035,-28.25344 0.5137,-5.52339 0.70736,-8.36455 2.04774,-8.13175 1.73453,0.30124 3.72596,3.24799 11.28012,13.50441 7.55418,10.25643 11.69679,17.25869 11.69679,17.25869" />
      <path
         style="fill:none"
         id="path7311"
         d="m 178.11474,135.38677 c 0,0 -17.97354,-28.27627 -21.32814,-34.32206 -3.35418,-6.046071 0.36661,-14.731144 8.73859,-10.091418 8.37201,4.639729 27.41664,16.951608 37.91444,23.925898" />
      <path
         style="fill:none"
         id="path7313"
         d="m 205.51885,111.4664 c 0,0 -26.00354,-17.306828 -34.60494,-23.81006 -8.60143,-6.503231 -3.69039,-10.901086 2.32525,-10.671342 6.01526,0.229669 45.92853,-0.795896 45.92853,-0.795896" />
      <path
         style="fill:none"
         id="path7315"
         d="m 219.60337,72.581225 c 0,0 -32.96375,-1.878439 -49.883,-2.243839 0,0 1.42905,-4.663782 -6.35545,-6.036399 -7.78449,-1.372612 -9.52084,-6.042204 -3.77502,-10.919903 7.04004,-3.207397 37.81283,-14.908862 74.7922,-35.794912" />
    </g>
    <path
       id="Tail"
       d="m 212.89505,137.79496 -1.66598,8.85589 22.43926,-15.01059 -27.22093,-0.873 6.44765,7.0277 z" />
    <path
       id="Eye"
       d="m 100.57071,23.792646 c 0.52164,0 0.96101,0.494136 0.96101,1.104462 0,0.61045 -0.43937,1.075446 -0.96101,1.075446 -0.52163,0 -0.961002,-0.464996 -0.961002,-1.075446 0,-0.610326 0.439372,-1.104462 0.961002,-1.104462 z m -2.111468,1.546308 c 0.43926,1.104462 1.185003,1.22239 2.118508,1.919885 -0.658883,0.116314 -1.35593,0.245665 -1.87756,-0.364782 -0.52175,-0.610326 -0.657192,-1.611642 -0.437565,-2.338278 l 0.196617,0.783175 z" />
    <path
       id="Arms"
       d="m 37.942038,24.265335 c -0.229764,-0.0026 -0.476908,0.02403 -0.739456,0.06036 -1.317886,1.773066 -3.616291,2.675025 -5.840193,2.384368 -2.443645,2.790234 -0.972769,7.847352 3.365279,7.062559 0.686384,3.604167 3.526436,8.769238 6.821104,12.344387 -2.80053,-0.116313 -7.391319,-1.126786 -8.269834,-2.173095 -0.411879,-4.592439 -4.334291,-5.704631 -5.734556,-0.996002 1.043269,1.046306 2.743059,4.129758 1.644912,6.745649 0.109756,3.284372 6.776763,7.065278 5.266737,-2.293822 1.345276,0.348809 0.41171,1.860661 2.278732,2.761641 3.212404,1.569583 5.912475,2.72581 6.489103,4.934737 0.63139,2.499701 -0.630275,5.03804 -1.810913,6.549467 -2.910286,-0.116309 -3.926497,3.772671 -1.675094,4.557463 2.27878,-0.465125 4.082352,1.011638 4.768737,2.203277 4.008549,0.17434 4.15291,-4.382317 -0.377274,-6.504194 0.658892,-1.395118 1.280808,0.583582 2.022186,-0.724365 0.604009,-1.075446 1.043959,-3.018 1.071456,-5.372374 3.898784,9.678893 16.475388,30.248241 18.260035,33.154789 0.796256,-0.90098 1.623664,-1.79913 2.474914,-2.671091 C 56.014529,66.815236 51.94467,58.935052 50.407152,54.371756 c 3.486915,3.807644 3.985563,9.65552 18.290216,31.192968 1.48264,-1.453275 3.018511,-2.705755 4.693282,-3.606735 C 70.343106,78.17948 51.896712,54.837817 50.331697,46.147195 c -0.411873,-2.325235 0.07846,-5.868592 1.780731,-8.571653 1.455148,-2.296221 -1.313467,-2.128186 -0.407455,-4.104735 3.432036,3.313511 7.320891,-0.515722 4.602736,-3.335097 -1.784642,-0.290656 -3.810899,-1.778888 -4.195281,-3.69728 -3.15741,-3.4297 -7.795235,0.375363 -3.621825,4.648009 -0.219743,0.842826 -2.091782,7.185917 -2.640914,11.574749 -3.432032,-3.284371 -5.427942,-7.003721 -6.44383,-10.578747 -0.768759,-2.732201 -2.180894,0.898833 -2.867278,-0.845092 4.581729,-2.697685 4.849928,-6.932731 1.403457,-6.972014 z M 88.67777,93.532739 c -0.162726,-0.01099 -0.32057,-0.004 -0.467819,0.01509 -3.037258,-0.02329 -2.837604,1.814162 -4.150008,4.391462 -1.696304,4.053819 -3.851628,8.389709 -5.976011,13.325299 -4.283378,9.95162 -8.541452,27.28173 -15.679484,38.82898 -2.274289,3.67914 -5.245625,2.67288 -8.073652,-0.0302 -1.839515,-1.71491 -2.842785,-2.73458 -4.572554,-7.53038 -0.79614,-2.2672 -0.998315,-0.21575 -1.629821,-1.11673 2.937783,-1.45339 3.29515,-7.14249 -0.603638,-6.47401 -1.180633,1.56958 -2.880954,1.88748 -4.9951,1.13182 -3.349546,2.70306 -0.08211,7.87637 3.953825,7.06256 1.030719,6.04106 1.126422,9.0749 7.069692,9.84926 -3.516493,-0.63855 -11.413728,-1.90682 -14.735888,-4.14489 0.60401,-4.76678 -4.581043,-8.39688 -6.338194,-4.24055 0.933509,3.1972 0.409933,5.63444 -1.237456,8.13402 0.823636,4.88309 4.929569,4.06027 6.549466,-1.02619 1.015884,0.93012 -0.453394,1.69074 0.452729,2.88237 1.48264,1.94741 3.076952,2.59742 5.493101,1.46382 1.400265,1.83111 5.447833,2.62215 9.671195,0.9216 -3.201833,1.19398 -9.514959,7.44431 -13.413748,8.37442 -3.981168,-4.18535 -6.747754,-2.43769 -5.704374,2.06746 1.647278,0.66848 2.751921,2.52287 2.806914,6.12692 4.008549,3.57515 7.415856,-0.26788 4.285827,-6.45892 1.290504,-0.37783 1.539483,1.78526 3.214369,1.90146 0.960895,0.0582 1.830818,-0.58179 2.791824,-1.97692 2.306286,1.04644 3.92827,-0.24243 5.191282,-2.62582 2.251404,0.81381 4.42023,0.89987 6.534376,-0.81491 1.894403,1.86012 2.792036,2.36535 4.466918,2.656 1.345276,0.23263 2.031235,0.37072 2.882369,-0.58854 -1.976894,4.21448 0.661659,6.95374 4.285826,4.51219 0.329499,-1.36598 1.355712,-2.41786 3.003096,-3.28983 1.180633,-2.67405 -1.569983,-6.01472 -4.919645,-3.486 -2.96528,-1.19163 -5.347702,-2.67937 -7.379469,-4.85928 11.064869,-5.23178 14.517965,-18.34188 21.353677,-29.17079 2.311526,-3.66186 2.349145,-4.98718 5.372374,-8.87347 1.579318,-2.03017 7.63726,-8.17082 7.802014,-9.91474 4.064407,-6.45037 2.254562,-11.63534 -0.64891,-13.506394 -0.206072,-0.01603 -4.214225,-3.351337 -6.655103,-3.516188 z m 0.01509,16.449121 c -1.949397,5.55146 -8.189666,17.10078 -12.419842,23.58714 -4.920732,7.54521 -6.231302,16.43163 -12.299114,20.29731 5.24406,-4.73764 7.410491,-15.86604 12.23875,-22.77223 3.727254,-5.33135 7.538148,-13.66318 12.480206,-21.11222 z" />
    <path
       style="fill:#003d8f"
       id="Beak"
       d="m 89.308117,21.389033 c -1.180633,0.871963 -1.55186,1.803709 -0.975237,2.821002 0.933509,1.627614 3.293678,6.064402 3.266292,7.92464 -0.02749,1.191632 0.130072,1.83511 1.118459,2.09675 1.729769,0.43598 1.236838,1.063162 3.295986,2.225781 0.954027,1.619439 0.428428,1.093458 1.801414,3.042976 -2.313613,2.70775 -5.336919,3.766573 -7.947984,4.774138 -4.323358,1.668313 -10.362061,3.11457 -8.691072,7.909351 1.229721,-3.433215 6.924959,-4.624215 9.205762,-4.909386 1.170023,-0.14629 4.029039,-1.597693 5.918922,-2.236532 1.880466,-0.635661 2.956099,-1.42855 3.355374,-1.806432 1.123647,-1.063444 1.492057,-0.754437 2.345787,-2.311801 -1.12585,-2.144701 -1.32071,-2.642478 -2.167627,-3.870923 -0.818325,-1.186973 -2.642483,-3.833938 -3.246498,-4.182748 -1.427651,-0.842949 -2.409131,-1.944538 -2.820889,-3.39781 -0.521746,-1.831102 -1.403187,-5.025126 -1.375801,-7.408517 0,-0.755656 0.248679,-1.519019 -0.465202,-1.838689 -0.924348,0.219538 -1.837946,0.549423 -2.617686,1.1682 z m -2.005153,2.271379 c -5.381429,1.133479 -15.929313,-5.302247 -12.625055,8.157039 3.054097,-6.55838 9.703913,0.407101 14.476493,1.569493 2.056071,0.500774 2.54466,-0.205771 2.077904,-1.600889 -0.690678,-2.639299 -2.069695,-6.091062 -3.929342,-8.125643 z" />
    <path
       style="fill:#003d8f"
       id="Tongue"
       d="m 93.98517,36.438908 c -0.70144,-0.0183 -1.5,0.4375 -1.5,0.4375 -2.090196,1e-6 -3.142047,0.588813 -5,1.625 -1.857949,1.036185 -4.539065,-0.141449 -7.09375,0.6875 -2.55469,0.828947 -5.356534,2.300991 -6.75,2.09375 -0.774186,-0.115137 -2.244355,-0.697633 -3.65625,-1.21875 l 2.375,-2.3125 -12.4375,-0.28125 10.0625,7.53125 -0.4375,-3.1875 c 0.405182,0.209148 0.820612,0.437994 1.1875,0.65625 1.393459,0.828948 3.360797,0.875 5.21875,0.875 1.857954,1e-6 3.954543,-0.827301 5.8125,-1.65625 1.857951,-0.828947 5.030543,0.965462 6.65625,0.34375 1.625711,-0.621709 2.496281,-1.59674 3.8125,-2.09375 1.131305,-0.427189 3.59375,-0.78125 3.59375,-0.78125 10e-7,1e-6 -0.468336,-1.894498 -1.1875,-2.5 -0.179791,-0.151376 -0.422437,-0.212648 -0.65625,-0.21875 z" />
    <path
       style="fill:#003d8f"
       id="Claws"
       d="m 31.301412,18.769237 c -0.497972,-0.02484 -0.997779,0.09165 -1.534166,0.37634 -1.716437,0.911019 -2.009265,1.215039 -2.009265,1.215039 -1e-6,0 2.289299,0.903564 3.147517,2.118256 0.858218,1.214692 1.427221,3.034824 1.999368,2.731151 1.716436,0 3.721595,-1.516112 3.721595,-1.516112 0,0 -0.282928,-2.118605 -1.999369,-3.333295 -1.180048,-0.8351 -2.230136,-1.536739 -3.32568,-1.591379 z m 24.358632,1.774173 c 0,0 -0.0051,0.855588 -0.267242,2.279544 -0.262153,1.423953 -1.306518,3.704105 -1.306518,3.419315 0,0 -0.528835,1.134852 0.781933,1.989225 1.310762,0.854373 1.57376,0.569886 1.57376,0.569886 0,0 1.841003,-1.995363 1.841003,-3.419316 0,-1.423956 -0.136447,-2.488522 -0.791833,-3.698882 -0.655381,-1.210364 -1.831103,-1.139772 -1.831103,-1.139772 z m -29.089807,23.6879 c 0,0 -1.488225,0.20616 -2.415077,1.817183 -0.926853,1.611022 -1.293931,3.017492 -1.10856,4.225757 0.18537,1.20827 0.742339,2.215026 0.742339,2.215026 1e-6,0 -0.186344,-1.211061 1.29662,-2.419325 1.482963,-1.208268 3.147519,-1.204287 3.147519,-1.204287 -2e-6,0 0.5588,-0.805386 0.188059,-2.215028 -0.370742,-1.409641 -1.66553,-2.217948 -1.8509,-2.419326 z m 14.56965,23.236289 c -0.208545,0.02517 -0.296936,0.129033 -0.296936,0.129033 0.370739,-0.201378 0.179995,1.211061 -0.37612,2.419326 -0.556114,1.208265 -2.217122,2.010731 -2.217122,2.010731 0,-4e-6 2.958486,-9.32e-4 4.256079,-0.806445 1.297594,-0.805513 2.038962,-1.81718 2.038962,-1.81718 0,-5e-6 -1.478327,-0.998002 -2.405181,-1.602132 -0.463425,-0.30207 -0.791142,-0.358502 -0.999682,-0.333333 z m 1.742021,63.160571 c -1.112224,0 -2.415077,0.60214 -2.415077,0.60214 0,0 1.670908,1.01168 2.227017,1.81718 0.556114,0.80551 0.742344,1.80643 0.742344,1.80643 -5e-6,0 0.553304,1.00489 1.850897,0.60215 1.297594,-0.40276 2.036272,-1.41151 1.850898,-1.61289 0,0 0.0037,-1.00384 -1.108559,-2.01072 -1.112219,-1.0069 -2.035296,-1.20429 -3.14752,-1.20429 z m -12.055592,14.69875 c 0,0 -2.404206,0.39878 -3.701798,1.20429 -1.297594,0.8055 -1.48468,2.62548 -1.48468,4.23651 0,1.61101 0,2.01073 0,2.01073 0,1e-5 1.669076,-0.80152 2.781299,-1.20429 1.112221,-0.40275 2.227019,0 2.227019,0 0,0 1.296618,-2.02042 1.296618,-3.43007 0,-1.40964 -1.118458,-2.81717 -1.118458,-2.81717 z m 43.9366,22.55888 c -5e-6,1e-5 -1.109423,0.80446 -1.850902,1.40859 -0.741489,0.60413 -0.742339,1.80643 -0.742339,1.80643 0.185365,-0.20137 1.299308,1.40952 1.484678,2.21503 0.185369,0.80552 0.366224,2.41933 0.366219,2.41933 0,0 1.111253,-1.60598 1.296623,-2.61288 0.185365,-1.00689 0.37612,-2.01751 0.37612,-3.22577 -5e-6,-1.20826 -0.930399,-2.01073 -0.930399,-2.01073 z m -41.333464,0.60215 c 0,0.20139 -0.935774,0.60307 -1.306513,1.40858 -0.370745,0.80551 -0.920504,1.41046 -0.920504,3.02147 0,1.61103 0.364389,2.41828 0.920504,3.82792 0.556109,1.40964 1.306517,1.60213 1.306513,1.60213 0,0 -0.18806,-0.59524 -0.188055,-1.60213 0,-1.00689 0.367074,-1.21598 1.108558,-2.02148 0.74148,-0.80552 1.850898,-1.2043 1.850898,-1.2043 0,1e-5 0.0064,-2.21396 -0.920499,-3.62361 -0.926854,-1.40964 -1.850898,-1.40858 -1.850902,-1.40858 z m 22.933342,48.47256 c -0.367122,0.0165 -0.711505,0.10703 -1.05907,0.25806 -0.926854,0.40276 -1.672742,0.80644 -1.672742,0.80644 0,0 1.116628,0.40171 1.672742,1.40859 0.55611,1.00689 0.737819,1.80736 1.108559,2.61287 0.37074,0.80551 0.554279,2.22578 0.554279,2.22578 0,10e-6 0.924048,0.80352 1.850902,0.60215 0.926854,-0.20138 1.676282,-0.60308 2.603136,-1.40859 0.926854,-0.80553 0.91781,-1.41642 0.73244,-1.21504 0,-10e-6 0.379784,-0.59816 -0.73244,-1.80643 -1.112223,-1.20827 -1.671766,-2.02241 -2.96936,-2.82793 -0.810994,-0.50344 -1.476579,-0.68343 -2.088446,-0.6559 z m -9.957247,23.01048 c 0,1e-5 -2.227876,0.60401 -2.969355,2.21504 -0.741484,1.61103 -0.925024,3.02823 -0.554284,4.23651 0.370744,1.20825 0.742339,2.21502 0.742339,2.21502 4e-6,1e-5 0.547929,-2.01365 1.474783,-2.21502 0.926849,-0.2014 2.600446,-0.20139 2.415076,0 0,-1e-5 0.736964,-1.01552 0.366224,-2.82793 -0.370744,-1.81239 -1.474783,-3.62362 -1.474783,-3.62362 z m 101.146223,0.24732 c -0.25778,0.009 -0.53671,0.0606 -0.86111,0.16128 -1.29759,0.40276 -2.7813,0.99999 -2.7813,0.99999 0,0 1.66638,1.01459 2.59324,2.02149 0.92686,1.00688 2.22702,3.21501 2.22702,3.21501 -1e-5,1e-5 1.48102,1.00783 2.59323,0.80644 1.11223,-0.20138 1.29211,-0.59724 1.66285,-0.99998 0.37074,-0.40277 0.74686,-1.61289 0.37612,-1.61289 0,1e-5 -0.006,-0.60599 -1.11846,-1.61288 -1.11222,-1.0069 -0.73417,-1.6109 -2.21712,-2.21503 -1.11223,-0.4531 -1.70112,-0.79176 -2.47447,-0.76343 z m -66.860038,16.87077 c -1.112223,0 -1.484677,1.21505 -1.484677,1.21504 0,0.40274 0.742339,1.80537 0.742339,3.21501 0,1.40965 -0.554285,2.41933 -0.554285,2.41933 0,0 1.112113,-0.20231 2.038962,-0.80644 0.926854,-0.60413 1.300168,-1.61476 2.227022,-3.22577 0.926849,-1.61102 0,-2.21503 0,-2.21503 0,0 -1.857137,-0.60214 -2.969361,-0.60214 z m 53.606808,0.0753 c -0.38559,0.0177 -0.83972,0.10677 -1.32631,0.33333 -1.2976,0.60414 -2.41325,0.80246 -2.96936,2.01073 -0.55612,1.20825 -1.48199,3.22471 -1.29662,4.63435 0.18538,1.40964 1.29662,4.22576 1.29662,4.22576 0,0 0.36708,-1.4066 1.10856,-2.01073 0.74147,-0.60414 1.85714,-1.01074 2.96935,-1.01074 1.11223,0 1.48468,0.2043 1.48468,0.2043 0,0 0.9304,-0.606 0.9304,-1.61289 0,-1.00689 0,-1.81612 0,-3.22577 0,-1.40964 -0.74771,-3.41931 -1.11846,-3.41931 0,-10e-6 -0.43622,-0.15853 -1.07886,-0.12903 z m -75.570158,1.13977 c -0.69695,0 -1.207541,0.39784 -1.207541,0.39784 0.18537,0 -0.17816,1.00385 -0.17816,2.01073 0,1.0069 0.369765,2.41826 1.296619,3.82792 0.926854,1.40963 2.7813,2.21502 2.7813,2.21503 0,0 -0.376119,-2.00676 -0.376119,-3.21502 0,-1.20827 1.108559,-2.21504 1.108559,-2.21503 0,0 -0.741364,-1.21106 -2.038957,-2.41933 -0.4866,-0.4531 -0.96753,-0.60214 -1.385701,-0.60214 z m 115.389248,16.31164 c 0,0 -1.66639,0.39293 -2.59325,0.79569 -0.92685,0.40276 -1.10855,1.81718 -1.10855,1.81718 -0.18537,0 1.2993,2.21397 1.48467,3.62362 0.18537,1.40964 -0.37612,2.21503 -0.37612,2.21502 0,0 2.2252,-1.81028 2.78131,-2.81717 0.55611,-1.00689 0.3689,-2.41533 0.55427,-3.62361 0.18537,-1.20826 -0.74233,-2.01073 -0.74233,-2.01073 z m -32.06907,2.01073 c 0.18538,0.60413 -0.3716,1.61382 -0.74234,2.41933 -0.37074,0.8055 -0.1773,1.81122 0.56418,3.62361 0.74148,1.8124 0.74136,1.80537 2.03896,3.21502 1.29759,1.40963 1.47478,1.01074 1.47478,1.01074 0,0 0.18806,-2.42026 0.18806,-3.22577 0,-0.80551 1.67274,-1.80643 1.67274,-1.80643 0,0 -0.18354,-0.606 -0.55428,-1.61289 -0.37074,-1.00689 -0.92674,-1.60599 -2.03896,-2.61287 -1.11223,-1.00689 -2.60314,-1.01074 -2.60314,-1.01074 z" />
  </g>
  <g
     transform="matrix(0.22041235,0,0,0.22041235,25.497811,287.14139)"
     id="Rose"
     style="fill:#eeeeee;stroke:#d40000;stroke-width:2.4732132">
    <g
       id="g3361">
      <path
         d="m -6,27 -7,36 C -5,77 -1,86 0,95 1,86 5,77 13,63 L 6,27 Z"
         id="g1_rose" />
      <use
         id="use7"
         transform="matrix(0.30901699,0.95105652,-0.95105652,0.30901699,0,0)"
         xlink:href="#g1_rose"
         x="0"
         y="0"
         width="100%"
         height="100%" />
      <use
         id="use9"
         transform="matrix(-0.80901699,0.58778525,-0.58778525,-0.80901699,0,0)"
         xlink:href="#g1_rose"
         x="0"
         y="0"
         width="100%"
         height="100%" />
      <use
         id="use11"
         transform="matrix(-0.80901699,-0.58778525,0.58778525,-0.80901699,0,0)"
         xlink:href="#g1_rose"
         x="0"
         y="0"
         width="100%"
         height="100%" />
      <use
         id="use13"
         transform="matrix(0.30901699,-0.95105652,0.95105652,0.30901699,0,0)"
         xlink:href="#g1_rose"
         x="0"
         y="0"
         width="100%"
         height="100%" />
    </g>
    <g
       id="g3368">
      <g
         id="g2_rose">
        <path
           d="m -19,-76 c -6.5,0 -12.5,4 -15,12 -2.5,8 -2.01,14 1.69,19.5 L 0,0 32.31,-44.5 C 36.01,-50 36.5,-56 34,-64 c -2.5,-8 -8.5,-12 -15,-12 -2,0 -8,1 -10,2 -5,2 -7,2 -9,2 -2,0 -4,0 -9,-2 -2,-1 -8,-2 -10,-2 z"
           id="path2843" />
        <path
           id="path17"
           d="m 0,-47 c -1,20 -5,32 -7,42 L 7,-5 C 5,-15 1,-27 0,-47 Z" />
      </g>
      <use
         height="100%"
         width="100%"
         y="0"
         x="0"
         id="use19"
         transform="matrix(0.30901699,0.95105652,-0.95105652,0.30901699,0,0)"
         xlink:href="#g2_rose" />
      <use
         height="100%"
         width="100%"
         y="0"
         x="0"
         id="use21"
         transform="matrix(-0.80901699,0.58778525,-0.58778525,-0.80901699,0,0)"
         xlink:href="#g2_rose" />
      <use
         height="100%"
         width="100%"
         y="0"
         x="0"
         id="use23"
         transform="matrix(-0.80901699,-0.58778525,0.58778525,-0.80901699,0,0)"
         xlink:href="#g2_rose" />
      <use
         height="100%"
         width="100%"
         y="0"
         x="0"
         id="use25"
         transform="matrix(0.30901699,-0.95105652,0.95105652,0.30901699,0,0)"
         xlink:href="#g2_rose" />
    </g>
    <circle
       r="25"
       id="circle27"
       cx="0"
       cy="0" />
  </g>
  <use
     xlink:href="#Rose"
     height="304.20001"
     width="251"
     y="0"
     x="0"
     id="Rose-2"
     transform="translate(262.08074,0)" />
  <use
     xlink:href="#Rose"
     height="304.20001"
     width="251"
     y="0"
     x="0"
     id="Rose-3"
     transform="translate(262.08074,-264.24572)" />
  <use
     xlink:href="#Rose"
     height="304.20001"
     width="251"
     y="0"
     x="0"
     id="Rose-4"
     transform="translate(0,-264.24572)" />
</svg>
