<?xml version="1.0" encoding="UTF-8" standalone="no"?>
<!-- Created with Inkscape (http://www.inkscape.org/) -->

<svg
   xmlns:dc="http://purl.org/dc/elements/1.1/"
   xmlns:cc="http://web.resource.org/cc/"
   xmlns:rdf="http://www.w3.org/1999/02/22-rdf-syntax-ns#"
   xmlns:svg="http://www.w3.org/2000/svg"
   xmlns="http://www.w3.org/2000/svg"
   xmlns:xlink="http://www.w3.org/1999/xlink"
   version="1.0"
   width="312.5"
   height="312.5"
   id="svg4166">
  <defs
     id="defs4168" />
<metadata
   id="metadata1880"><rdf:RDF><cc:Work
         rdf:about=""><dc:title>Kalmar läns vapenflagga</dc:title><dc:date>2012-01-19</dc:date><dc:creator><cc:Agent><dc:title>Lokal_Profil</dc:title></cc:Agent></dc:creator><cc:license
         rdf:resource="http://creativecommons.org/licenses/by-sa/2.5/" /><dc:rights><cc:Agent><dc:title>cc-by-sa-2.5</dc:title></cc:Agent></dc:rights><dc:format>image/svg+xml</dc:format><dc:type
         rdf:resource="http://purl.org/dc/dcmitype/StillImage" /></cc:Work><cc:License
         rdf:about="http://creativecommons.org/licenses/by-sa/2.5/"><cc:permits
         rdf:resource="http://web.resource.org/cc/Reproduction" /><cc:permits
         rdf:resource="http://web.resource.org/cc/Distribution" /><cc:requires
         rdf:resource="http://web.resource.org/cc/Notice" /><cc:requires
         rdf:resource="http://web.resource.org/cc/Attribution" /><cc:permits
         rdf:resource="http://web.resource.org/cc/DerivativeWorks" /><cc:requires
         rdf:resource="http://web.resource.org/cc/ShareAlike" /></cc:License></rdf:RDF>
</metadata>
  <rect
     width="312.5"
     height="312.5"
     x="0"
     y="0"
     id="Flaggduk"
     style="fill:#ffcd50" />
  <path
     d="m 156.25,0 0,156.25 156.25,0 L 312.5,0 156.25,0 z m 0,156.25 -156.25,0 0,156.25 156.25,0 0,-156.25 z"
     id="use3171"
     style="fill:#003d8f" />
  <g
     transform="matrix(0.32193765,0,0,0.32193765,-1.372779,156.6873)"
     id="Deer">
    <path
       d="m 168.00084,78.00039 c 0,-6.00003 0,-12.00006 3.00002,-17.000085 3.00001,-5.000025 9.00004,-9.000045 17.00008,-12.00006 8.00004,-3.000015 18.00009,-5.000025 24.00012,-7.000035 6.00003,-2.00001 8.00004,-4.00002 10.00005,-6.00003 0,2.00001 0,4.00002 -2.00001,7.000035 -2.00001,3.000015 -6.00003,7.000035 -13.00006,10.00005 -7.00004,3.000015 -17.00009,5.000025 -22.00011,8.00004 -5.00003,3.000015 -5.00003,7.000035 -4.00002,9.000045 1,2.00001 3.00001,2.00001 9.00004,1.000005 6.00003,-1.000005 16.00008,-3.000015 24.00012,-4.00002 8.00004,-1.000005 14.00007,-1.000005 18.00009,-3.000015 4.00002,-2.00001 6.00003,-6.00003 9.00005,-10.00005 3.00001,-4.00002 7.00003,-8.00004 14.00007,-10.00005 7.00003,-2.00001 17.00008,-2.00001 24.00012,-4.00002 7.00003,-2.00001 11.00005,-6.00003 15.00007,-10.00005 0,2.00001 0,4.00002 -2.00001,7.000035 -2.00001,3.000015 -6.00003,7.000035 -13.00006,10.00005 -7.00004,3.000015 -17.00009,5.000025 -23.00012,9.000045 -6.00003,4.00002 -8.00004,10.00005 -4.00002,11.000055 4.00002,1.000005 14.00007,-3.000015 22.00011,-4.00002 8.00004,-1.000005 14.00007,1.000005 18.00009,-2.00001 4.00002,-3.000015 6.00003,-11.000055 16.00008,-16.00008 10.00005,-5.000025 28.00014,-7.000035 38.00019,-9.000045 10.00005,-2.00001 12.00006,-4.00002 14.00007,-6.00003 0,2.00001 0,4.00002 -2.00001,6.00003 -2.00001,2.00001 -6.00003,4.00002 -14.00007,6.00003 -8.00004,2.00001 -20.0001,4.00002 -26.00013,8.00004 -6.00003,4.00002 -6.00003,10.00005 -2.00001,12.00006 4.00002,2.00001 12.00006,0 18.53343,1.000005 6.4667,1.000005 11.46672,5.000025 15.46674,4.00002 4.00002,-1.000005 7.00004,-7.000035 11.46672,-11.000055 4.53336,-4.00002 10.53339,-6.00003 17.53343,-6.00003 7.00003,0 15.00007,2.00001 21.0001,2.00001 6.00003,0 10.00005,-2.00001 14.00007,-4.00002 0,2.00001 0,4.00002 -3.00001,6.00003 -3.00002,2.00001 -9.00005,4.00002 -16.00008,5.000025 -7.00004,1.000005 -15.00008,1.000005 -21.00011,3.000015 -6.00003,2.00001 -10.00005,6.00003 -9.00004,9.000045 1,3.000015 7.00003,5.000025 14.00007,5.000025 7.00003,0 15.00007,-2.00001 22.00011,-1.000005 7.00003,1.000005 13.00006,5.000025 17.00008,8.00004 4.00002,3.000015 6.00003,5.000025 8.00004,7.000035 l -6.00003,0 c -8.00004,-2.00001 -16.00008,-4.00002 -24.75546,-4.222021 -8.75604,-0.222668 -18.26676,1.33334 -27.93347,0.200001 -9.66672,-1.133339 -19.48943,-4.956025 -29.24481,-7.378037 -9.75539,-2.422012 -19.44477,-3.444684 -29.11148,-3.866686 -9.66672,-0.422002 -19.31077,-0.244668 -29.13348,1.022005 -9.82205,1.266673 -19.8221,3.622685 -27.4888,4.178021 -7.66671,0.555336 -13.00007,-0.68867 -22.66678,-0.311335 -9.66672,0.378002 -23.66679,2.378012 -37.66686,4.378022"
       id="Antler-2"
       style="fill:#d40000;stroke:#d40000;stroke-width:4" />
    <path
       d="m 342.00171,285.00143 -54.00027,-15.00008 c -2.00001,6.00003 -4.00002,12.00006 -8.00004,21.00011 -4.00002,9.00004 -10.00005,21.0001 -9.00005,31.00015 1.00001,10.00005 9.00005,18.00009 13.00007,26.00013 4.00002,8.00004 4.00002,16.00008 1.00001,24.00012 -3.00002,8.00004 -9.00005,16.00008 -15.00008,23.00012 -6.00003,7.00003 -12.00006,13.00006 -17.00008,17.00008 -5.00003,4.00002 -9.00005,6.00003 -13.00007,9.00005 -4.00002,3.00001 -8.00004,7.00003 -9.46671,9.53338 -7.1521,16.29641 14.9334,18.46676 14.9334,18.46676 1.53335,-4.00002 -0.46666,-9.00005 -0.46666,-12.46673 0,-3.53335 2.00001,-5.53336 4.00002,-7.06671 2.00001,-1.46667 4.00002,-2.46667 6.00003,-0.46666 2.00001,2.00001 4.00002,7.00003 5.53336,7.53337 1.46667,0.46667 2.46668,-3.53335 3.46668,-7.53337 1.00001,-4.00002 2.00001,-8.00004 6.00003,-13.53341 4.00002,-5.46669 11.00006,-12.46672 18.53343,-18.00009 7.4667,-5.46669 15.46674,-9.46671 19.46676,-12.46672 4.00002,-3.00002 4.00002,-5.00003 3.00002,-7.00004 -1.00001,-2.00001 -3.00002,-4.00002 -4.00002,-11.00005 -1.00001,-7.00004 -1.00001,-19.0001 3.00001,-29.00015 4.00002,-10.00005 12.00006,-18.00009 18.00009,-23.00011 6.00003,-5.00003 10.00005,-7.00004 12.00006,-11.5334 2.00001,-4.46668 2.00001,-11.46672 2.00001,-18.46675 z"
       id="Leg-3"
       style="fill:#ffcd50;stroke:#ffcd50;stroke-width:4" />
    <path
       d="m 198.00099,276.00138 -42.00021,-24.00012 c 0,10.00005 0,20.0001 0,31.00016 0,11.00005 0,23.00011 1.00001,32.00016 1,9.00004 3.00001,15.00007 3.00001,22.00011 0,7.00003 -2.00001,15.00007 -2.00001,21.0001 0,6.00003 2.00001,10.00005 3.00002,16.00008 1,6.00003 1,14.00007 -1.00001,23.00012 -2.00001,9.00004 -6.00003,19.00009 -10.00005,29.00014 -30.85406,-0.9006 5.00003,18.00009 5.00003,18.00009 1,-4.00002 1,-8.00004 2.00001,-11.00005 1,-3.00002 3.00001,-5.00003 4.46668,-6.00003 1.53335,-1.00001 2.53335,-1.00001 3.53336,1 1,2.00001 2.00001,6.00003 3.93335,7.11137 1.86667,1.11067 4.66669,-0.66667 4.66669,-4.66669 0,-4.00002 -2.80002,-10.22272 -3.20002,-22.33345 -0.4,-12.11139 1.60001,-30.11148 3.60002,-38.11152 2.00001,-8.00004 4.00002,-6.00003 5.00003,-10.00005 1,-4.00002 1,-14.00007 3.00001,-27.00013 2.00001,-13.00007 6.00003,-29.00015 9.00005,-39.0002 3.00001,-10.00005 5.00002,-14.00007 7.00003,-18.00009 z"
       id="Leg-2"
       style="fill:#ffcd50;stroke:#ffcd50;stroke-width:4" />
    <path
       d="m 336.37853,420.0021 c 0,0 12.62322,5.00003 12.62322,5.00003 1,-3.00002 3.00001,-7.00004 5.00002,-7.00004 2.00001,0 4.00002,4.00002 6.00003,6.00003 2.00001,2.00001 4.00002,2.00001 5.00003,1.00001 1,-1.00001 1,-3.00002 2.00001,-11.00006 1,-8.00004 3.00001,-22.00011 6.00003,-32.00016 3.00001,-10.00005 7.00003,-16.00008 11.00005,-23.00011 4.00002,-7.00004 8.00004,-15.00008 8.00004,-19.0001 0,-4.00002 -4.00002,-4.00002 -7.00003,-9.00004 -3.00002,-5.00003 -5.00003,-15.00008 -3.00002,-29.53349 2.00001,-14.46673 8.00004,-33.46683 6.53337,-48.4669 -1.53334,-15.00008 -10.53339,-26.00013 -17.06676,-32.00016 -6.46669,-6.00003 -10.46671,-7.00004 -16.46674,-6.4667 -6.00003,0.46667 -14.00007,2.46668 -22.00011,4.46669 l -33.00017,45.00022 c 4.00002,2.00001 8.00004,4.00002 10.00005,7.00003 2.00001,3.00002 2.00001,7.00004 4.00002,10.00006 2.00001,3.00001 6.00003,5.00002 8.00004,8.00003 2.00001,3.00002 2.00001,7.00004 5.00003,11.00006 3.00001,4.00002 9.00004,8.00004 16.00008,14.00007 7.00003,6.00003 15.00007,14.00007 19.00009,22.00011 4.00002,8.00004 4.00002,16.00008 2.00001,28.00014 -2.00001,12.00006 -6.00003,28.00014 -11.00005,38.00019 -5.00003,10.00005 -10.62321,14.00007 -16.62324,18.00009 z"
       id="Leg-4"
       style="fill:#ffcd50;stroke:#ffcd50;stroke-width:4" />
    <path
       d="m 135.5625,57.4375 c -1.15852,0.0071 -2.356,0.05567 -3.5625,0.125 -4.82602,0.276666 -9.33331,1.062826 -13,2.4375 -3.66668,1.374675 -7.2134,3.603321 -10.71875,6 -3.50535,2.39668 -6.53124,4.625326 -9.28125,6 -2.750013,1.374674 -5.78174,2.18233 -8.59375,2.875 C 87.593573,75.568333 85.37467,76.083329 84,77 82.625324,77.916673 81.82617,79.415659 81.6875,80.875 81.549504,82.334337 82.08333,83.541331 83,84 c 0.916671,0.458668 2.40199,0.258335 4,-0.125 C 88.598008,83.49166 90.08333,83 91,83 c 0.916673,2e-6 1.4375,0.46433 1.4375,1.125 0,0.660006 -0.52083,1.41633 -1.4375,1.875 -0.916667,0.458659 -2.40199,0.72267 -4,1 -1.598012,0.277329 -3.08333,0.54133 -4,1 -0.916669,0.458661 -1.45508,1.20132 -1.59375,2 -0.138672,0.798674 0.13508,1.54133 0.59375,2 0.458661,0.458658 1.20916,0.73634 2.5625,0.875 C 85.915179,93.01367 87.70798,93 90,93 c 2.292013,-2e-6 5.52732,-0.01367 9,0.125 3.47268,0.138656 6.70798,0.41633 9,0.875 2.29201,0.458661 4.08999,1.20524 4.75,2.28125 0.66067,1.076007 0.11668,2.34407 -1.75,3.71875 -1.86668,1.37467 -5.28265,3.12532 -9,5 -3.717358,1.87468 -7.13332,3.62532 -9,5 -1.866682,1.37467 -2.40092,2.65641 -2.15625,3.59375 C 91.088424,114.53176 92.08333,115 93,115 c 0.916668,0 1.92399,-0.478 3,-1 1.076003,-0.52201 2.08333,-1 3,-1 0.916667,0 1.91424,0.47408 3.40625,0.71875 1.49134,0.24467 3.30173,0.19792 5.59375,-0.71875 2.29201,-0.91667 5.54099,-2.86991 8.875,-4.78125 3.33402,-1.91201 6.25832,-3.48733 8.125,-3.75 1.86668,-0.196 2.88058,0.87991 3.78125,2.53125 0.90066,1.65068 1.57066,3.62532 2.75,5 1.11267,1.37467 2.96457,2.39266 5.03125,3 2.06669,0.60733 4.06282,0.72725 5.4375,0.53125 1.37467,-0.26267 2.40341,-0.87808 3.21875,-1.46875 C 146.03409,113.47116 146.54133,113 147,113 c 0.45867,0 1.08474,0.0846 1.96875,0.28125 C 149.85276,113.47859 151,114.46665 150,117 c -1,2.53335 -3.37841,4.40917 -5.09375,5.0625 -1.71534,0.65401 -3.34566,0.9375 -5.375,0.9375 -2.096,0 -4.72931,-0.72025 -7.75,-1.15625 -3.02001,-0.43667 -6.03124,-0.48767 -8.78125,0.625 -2.75001,1.17934 -5.76807,3.73924 -8.71875,7.28125 -2.95135,3.54268 -5.41457,7.58332 -7.28125,11.25 -1.86668,3.66669 -3.36149,7.68164 -4.4375,12.125 C 101.48583,157.56769 101,161.87464 101,166 c 0,4.12534 0.46824,8.89664 1.40625,14 0.93734,5.10335 2.21907,9.87464 3.59375,14 1.37467,4.12535 3.11557,8.41864 5.40625,13 2.29068,4.58136 4.84374,8.87464 7.59375,13 2.75001,4.12536 6.24481,8.89664 10.6875,14 4.44336,5.10335 9.27114,9.87464 14.3125,14 5.04136,4.12534 11.29346,8.41081 18.6875,12.4375 7.39403,4.02734 14.97913,7.27048 22.3125,9.5625 7.33336,2.29201 15.86537,4.09783 24.71875,5.3125 C 218.57213,276.52718 226.5833,277 233,277 c 6.4167,0 12.51063,-0.46824 19,-1.40625 6.48936,-0.93734 12.5833,-2.21908 19,-3.59375 6.4167,-1.37467 14.41029,-3.13315 23.125,-5.5625 8.71472,-2.42935 17.00029,-5.22949 23.875,-8.4375 6.87469,-3.20802 13.45187,-7.47347 22.78125,-14.4375 C 350.11063,236.59914 357,231 357,231 l -12,-30 c 0,0 2.27648,0.0975 5.3125,0.6875 3.036,0.59001 5.12274,1.44582 7.21875,3.3125 2.02935,1.86668 4.42032,4.8144 6.625,7.59375 2.20533,2.78001 3.92708,4.94758 4.84375,5.40625 0.91667,0.45866 1.2135,-0.69833 1.4375,-2.125 0.224,-1.42668 0.37308,-2.875 1.09375,-2.875 0.65399,0 2.02016,1.43174 3.6875,3.34375 1.66667,1.91135 3.40657,4.00816 4.78125,5.1875 1.37467,1.11267 2.65641,1.53508 3.59375,1.34375 C 384.53175,222.68301 385,221.91667 385,221 c -10e-6,-0.91666 -0.478,-2.17016 -1,-3.4375 -0.52202,-1.26801 -1,-2.37308 -1,-3.09375 10e-6,-0.65399 0.46824,-1.05958 1.40625,-1.40625 0.93734,-0.34666 2.21907,-0.60384 3.59375,-1.0625 1.37468,-0.45867 3.13899,-1.21207 4.875,-2.21875 1.73668,-1.00667 3.20833,-2.13316 4.125,-3.3125 0.91668,-1.11267 1.44141,-2.49132 1.71875,-4 0.27734,-1.44199 0.28125,-2.82066 0.28125,-4 -10e-6,-1.11267 -0.004,-2.24625 -0.28125,-2.90625 -0.27733,-0.66068 -0.80208,-0.75192 -1.71875,-0.0312 -0.91666,0.654 -2.40591,2.23507 -4.28125,4.09375 -1.87467,1.85868 -3.85207,3.73108 -5.71875,4.84375 -1.86668,1.17934 -3.85191,1.85058 -6.28125,1.78125 -2.42934,-0.0693 -4.96874,-0.87533 -7.71875,-2.25 -2.75002,-1.37468 -6.24023,-3.58966 -10.40625,-6.125 C 358.4284,195.33965 354.12535,192.86668 350,191 c -4.12536,-1.86669 -8.89147,-3.36541 -14.6875,-4.71875 C 329.51581,184.92791 323.4167,183.91667 317,183 310.58331,182.08333 302.58122,181.07992 293.3125,180.28125 284.04313,179.48191 274.70804,179 266,179 c -8.70804,-1e-5 -18.52112,0.47799 -28.3125,1 -9.79071,0.522 -18.2708,1 -24.6875,1 -6.4167,0 -12.02998,-0.48191 -16.75,-1.28125 -4.72001,-0.79866 -7.95799,-1.80208 -10.25,-2.71875 -2.29202,-0.91667 -4.09783,-1.93183 -5.3125,-3.5625 C 179.47282,171.8075 179,169.75001 179,167 c -1e-5,-2.75002 0.48191,-6.72506 1.28125,-11.34375 0.79867,-4.61803 1.80208,-9.25814 2.71875,-13.1875 0.91667,-3.86268 1.93766,-7.78965 2.875,-11.625 0.93734,-3.83602 1.66633,-7.09374 2.125,-9.84375 0.45866,-2.75001 0.71875,-5.52581 0.71875,-8.5625 0,-3.03668 -0.26009,-5.96024 -0.71875,-8.90625 -0.45867,-3.01269 -1.19157,-6.63573 -2.40625,-10.59375 C 184.37907,88.979477 182.86668,85.208015 181,82 179.13332,78.791981 176.6701,75.495599 173.71875,72.40625 170.76808,69.316237 167.75001,66.866676 165,65 162.24999,63.133327 159.2241,61.620923 155.71875,60.40625 152.21339,59.191576 148.66669,58.458669 145,58 c -2.75001,-0.344003 -5.96195,-0.58375 -9.4375,-0.5625 z M 129,69 c 6.62745,0 12,2.686277 12,6 0,3.313723 -5.37255,5.999999 -12,6 -6.62745,0 -12,-2.686277 -12,-6 0,-3.313723 5.37255,-6 12,-6 z"
       transform="translate(21,15)"
       id="Main-body"
       style="fill:#ffcd50;stroke:#ffcd50;stroke-width:4" />
    <path
       d="m 204.00102,108.00054 c 2.00001,2.00001 4.00002,4.00002 6.00003,6.00003 2.00001,2.00001 4.00002,4.00002 5.00003,7.00004 1,3.00001 1,7.00003 5.00002,13.00006 4.00002,6.00003 12.00006,14.00007 16.00008,19.0001 4.00002,5.00002 4.00002,7.00003 4.00002,10.00005 0,3.00001 0,7.00003 0,11.00005 2.00001,-4.00002 4.00002,-8.00004 5.00003,-12.00006 1,-4.00002 1,-8.00004 -2.00001,-14.00007 -3.00002,-6.00003 -9.00005,-14.00007 -12.00006,-19.00009 -3.00002,-5.00003 -3.00002,-7.00004 0,-7.00004 3.00001,0 9.00004,2.00001 14.00007,4.00002 5.00002,2.00001 9.00004,4.00002 11.00005,10.00005 2.00001,6.00003 2.00001,16.00008 8.00004,21.00011 6.00003,5.00002 18.00009,5.00002 25.00012,8.00004 7.00004,3.00001 9.00005,9.00004 11.00006,15.00007 0,-4.00002 0,-8.00004 -2.00001,-12.00006 -2.00001,-4.00002 -6.00003,-8.00004 -10.00005,-11.00005 -4.00002,-3.00002 -8.00004,-5.00003 -11.00005,-7.00004 -3.00002,-2.00001 -5.00003,-4.00002 -6.00004,-7.00003 -1,-3.00002 -1,-7.00004 6.00004,-7.00004 7.00003,0 21.0001,4.00002 29.00014,9.00005 8.00004,5.00002 10.00005,11.00005 14.00007,15.00007 4.00002,4.00002 10.00005,6.00003 16.00008,6.00003 6.00003,0 12.00006,-2.00001 18.00009,-2.00001 6.00003,0 12.00006,2.00001 18.00009,4.00002 -2.00001,-2.00001 -4.00002,-4.00002 -7.00003,-6.00003 -3.00002,-2.00001 -7.00004,-4.00002 -13.00007,-5.00002 -6.00003,-1.00001 -14.00007,-1.00001 -19.00009,-3.00002 -5.00003,-2.00001 -7.00004,-6.00003 -6.4667,-8.53338 0.46667,-2.46667 3.46668,-3.46668 10.00005,-4.46668 6.4667,-1.00001 16.46675,-2.00001 24.93345,0.46666 8.53338,2.53335 15.53342,8.53338 24.00012,9.53339 8.53338,1 18.53343,-3.00002 25.53347,-5.00003 7.00003,-2.00001 11.00005,-2.00001 12.00006,-3.00001 1,-1.00001 -1.00001,-3.00002 -7.00004,-3.00002 -6.00003,0 -16.00008,2.00001 -24.00012,1.00001 -8.00004,-1.00001 -14.00007,-5.00003 -16.00008,-9.00005 -2.00001,-4.00002 0,-8.00004 6.00003,-12.00006 6.00003,-4.00002 16.00008,-8.00004 26.00013,-12.00006 l 12.00006,-6.00003 c -6.00003,0 -12.00006,0 -18.00009,1.00001 -6.00003,1 -12.00006,3.00001 -19.00009,7.00003 -7.00004,4.00002 -15.00008,10.00005 -25.00013,14.00007 -10.00005,4.00002 -22.00011,6.00003 -35.00017,6.00003 -13.00007,0 -27.00014,-2.00001 -38.00019,-4.00002 -11.00006,-2.00001 -19.0001,-4.00002 -28.00014,-8.00004 -9.00005,-4.00002 -19.0001,-10.00005 -26.00013,-14.00007 -7.00004,-4.00002 -11.00006,-6.00003 -15.00008,-8.00004"
       id="Antler-1"
       style="fill:#d40000;stroke:#d40000;stroke-width:2" />
    <path
       d="m 180.0009,264.00132 -30.00015,-30.00015 c -4.00002,4.00002 -8.00004,8.00004 -11.00005,11.00006 -3.00002,3.00001 -5.00003,5.00002 -9.00005,9.00004 -4.00002,4.00002 -10.00005,10.00005 -16.00008,14.00007 -6.00003,4.00002 -12.00006,6.00003 -17.000085,9.00005 -5.000025,3.00001 -9.000045,7.00003 -13.000065,10.00005 -4.00002,3.00001 -8.00004,5.00002 -9.000045,11.00005 -1.000005,6.00003 1.000005,16.00008 0,26.00013 -1.000005,10.00005 -5.000025,20.0001 -6.00003,29.00015 -1.000005,9.00004 1.000005,16.14736 3.000015,24.1474 0,0 17.5841,-3.89449 13.000065,-16.14736 -1.000005,-3.00002 -1.000005,-5.00003 1.000005,-5.00003 2.00001,0 6.00003,2.00001 8.00004,2.00001 2.00001,0 2.00001,-2.00001 0,-5.00002 -2.00001,-3.00002 -6.00003,-7.00004 -7.000035,-15.00008 -1.000005,-8.00004 1.000005,-20.0001 5.000025,-28.00014 4.00002,-8.00004 10.00005,-12.00006 17.00009,-15.00007 7.00003,-3.00002 15.00007,-5.00003 24.00012,-6.00004 9.00004,-1 19.00009,-1 27.00013,-2 8.00004,-1.00001 14.00007,-3.00002 17.00009,-7.00004 3.00001,-4.00002 3.00001,-10.00005 3.00001,-16.00008 z"
       id="Leg-1"
       style="fill:#ffcd50;stroke:#ffcd50;stroke-width:4" />
    <path
       d="m 192.00096,90.00045 c 2.00001,0 4.00002,0 8.00004,-1.000005 4.00002,-1.000005 10.00005,-3.000015 17.00009,-2.00001 7.00003,1.000005 15.00007,5.000025 19.00009,7.000035 4.00002,2.00001 4.00002,2.00001 0,5.000025 -4.00002,3.000015 -12.00006,9.000045 -19.00009,11.000055 -7.00004,2.00001 -13.00007,0 -19.0001,-2.00001 -6.00003,-2.00001 -12.00006,-4.00002 -18.00009,-6.00003"
       id="Ear"
       style="fill:#ffcd50;stroke:#003d8f;stroke-width:2" />
    <path
       d="m 121.69134,113.77025 c -13.07945,-1.07959 -37.857412,10.70457 -46.161167,-4.29406 -1.162678,-2.10009 -3.220546,-2.14704 -5.367578,0 -2.147031,2.14703 -4.294062,6.44109 -4.294062,9.66164 0,3.22054 2.147031,5.36757 6.441094,6.44109 4.294062,1.07351 10.735155,1.07351 17.176249,0 6.441093,-1.07352 12.882184,-3.22055 19.323284,-5.36758 6.44109,-2.14703 12.88218,-4.29406 19.32328,-6.44109"
       id="Tongue"
       style="fill:#d40000;stroke:none" />
    <path
       d="m 337.72262,313.49382 c -5.00003,-4.00002 -10.00005,-8.00004 -12.46673,-12.00006 -2.53335,-4.00002 -2.53335,-8.00004 -4.53336,-11.00006 -2.00001,-3.00001 -6.00003,-5.00002 -8.00004,-8.00003 -2.00001,-3.00002 -2.00001,-7.00004 -4.00002,-10.00006 -2.00001,-3.00001 -6.00003,-5.00002 -10.00005,-7.00003"
       id="Leg-line-4"
       style="fill:none;stroke:#003d8f;stroke-width:2" />
    <path
       d="m 275.37733,293.34644 c 7.00003,-1.00001 19.96913,-3.91864 25.50249,-5.45198 5.46669,-1.46667 8.40081,-2.82714 12.40083,-4.82715"
       id="Leg-line-3"
       style="fill:none;stroke:#003d8f;stroke-width:2" />
    <path
       d="m 209.57469,289.06734 c -6.00003,-2.00001 -12.00006,-4.00002 -16.00008,-6.00003 -4.00002,-2.00001 -6.00003,-4.00002 -8.00004,-6.00003"
       id="Leg-line-2"
       style="fill:none;stroke:#003d8f;stroke-width:2" />
    <path
       d="m 153.00077,291.00146 c 1,-1.00001 2.00001,-2.00002 6.46669,-2.46668 4.53336,-0.53334 12.5334,-0.53334 18.53343,-4.53336 6.00003,-4.00002 10.00005,-12.00006 14.00007,-20.0001"
       id="Leg-line-1"
       style="fill:none;stroke:#003d8f;stroke-width:2" />
    <path
       d="m 227.34103,433.46955 c -10.588,4.06012 -13.20948,13.24103 -22.4315,20.78652 0,0 42.61984,0.36955 42.61984,0.36955 1.71976,-4.48629 -0.52339,-16.0716 -0.52339,-19.95972 0,0 -19.66495,-1.19635 -19.66495,-1.19635 z"
       id="Hoof-3"
       style="fill:#d40000;stroke:none" />
    <path
       d="m 70.248298,377.82068 c 3.216771,11.06643 10.382478,13.45439 18.0379,27.65812 0,0 2.966232,-37.91968 2.966232,-37.91968 -1.763705,-1.76371 -4.168759,-6.57381 -5.371285,-10.18138 0,0 -18.070624,12.05643 -15.632847,20.44294 z"
       id="Hoof-1"
       style="fill:#d40000;stroke:none" />
    <path
       d="m 136.36954,426.87034 c -6.01767,6.89358 -8.50626,13.64577 -14.78348,18.59754 0,0 32.92247,5.49105 32.92247,5.49105 1.30601,-2.03157 2.17669,-4.35336 2.75714,-6.67515 1.16089,-4.64359 1.16089,-9.28717 2.32179,-12.76985 0,0 -23.21792,-4.64359 -23.21792,-4.64359 z"
       id="Hoof-2"
       style="fill:#d40000;stroke:none" />
    <path
       d="m 336.77075,417.28875 c -11.41833,5.21545 -12.89299,16.95806 -19.49366,23.55874 0,0 28.14579,-5.91712 33.73925,-9.31315 0,-2.37426 0.16454,-4.69785 1.18714,-8.30992 0.97253,-3.4352 -15.43273,-5.93567 -15.43273,-5.93567 z"
       id="Hoof-4"
       style="fill:#d40000;stroke:none" />
    <path
       d="m 169.34874,130.0316 c -0.0126,0.16401 -0.0638,0.82547 -0.23453,1.25796 -0.72614,1.83957 -4.89774,3.75658 -3.73908,3.9643 l 44.28816,7.93976 c 0,0 1.04946,-5.16679 1.59782,-7.97454 l -41.91237,-5.18748 z"
       id="Halsband"
       style="fill:#d40000;stroke:none" />
    <path
       d="m 146.90626,93.075998 c -1.74418,-0.792727 -2.51625,-2.851383 -1.72335,-4.595209 0.79288,-1.743826 2.85196,-2.515734 4.59614,-1.723005 1.74418,0.792724 2.51624,2.85138 1.72335,4.595209 -0.77361,1.701418 -2.74435,2.483454 -4.47441,1.775547"
       id="Eye"
       style="fill:#ffcd50;stroke:none" />
  </g>
  <g
     transform="matrix(0.50977629,0,0,0.50977629,170.37031,159.90409)"
     id="Smaland">
    <g
       transform="matrix(0.435795,0,0,0.435795,283.4092,14.87818)"
       id="Tass"
       style="fill:#d40000;stroke:#ffcd50;stroke-width:0.5">
      <g
         id="g3099"
         style="fill:#003d8f">
        <path
           d="m -532.96553,98.172985 c -0.23462,-0.08891 -0.39574,-0.101238 -0.46926,-0.177819 -9.56881,-1.725301 -16.4599,-0.194382 -20.83438,4.580424 -2.63636,3.63039 -3.04818,6.93417 -1.1479,9.84707 4.2899,-3.92971 8.60299,-5.65779 12.77814,-5.19655 3.76528,0.50086 6.26175,2.32394 7.32823,5.45691 0.0876,-0.0643 0.33634,-0.1162 0.58508,-0.16813 3.75725,2.20335 8.02001,2.60032 12.94943,1.20323 2.01199,-2.25886 2.31106,-4.43586 0.97066,-6.45437 -0.53171,-1.17609 -1.15106,-2.2879 -1.94562,-3.27118 -2.16312,-2.72012 -5.62632,-4.617141 -10.21438,-5.819585 z"
           id="path3437"
           style="stroke-width:0.53464818" />
        <path
           d="m -568.0318,137.07565 c -4.1318,3.1612 -7.3079,7.31801 -9.19199,12.35424 -0.61527,3.71401 0.16021,7.32147 2.31228,10.96326 2.07643,-4.52477 5.12266,-8.19478 9.29977,-10.9977 5.03109,-1.6022 9.1015,-1.71667 12.35826,-0.19027 0.16113,0.0123 0.39576,0.10123 0.46926,0.17783 2.88616,0.36264 5.16706,-0.52735 6.91626,-2.59346 l -0.0735,-0.0766 c -0.79259,-4.24745 -3.55792,-7.4394 -8.44304,-9.72901 l 0.0735,0.0766 c -0.23462,-0.0889 -0.30814,-0.1655 -0.45516,-0.31867 -4.18121,-2.02289 -8.57388,-1.93305 -13.26561,0.33378 z"
           id="path3439"
           style="stroke-width:0.53464818" />
        <path
           d="m -552.06576,183.5713 0.0907,0.71654 c -2.17618,1.46574 -3.6172,3.69732 -4.45604,6.40074 -1.2476,6.788 -0.6977,12.64905 1.64975,17.58313 2.49947,2.6039 4.7613,4.33809 6.94655,5.21485 3.60719,1.26936 7.04722,0.96472 10.08538,-1.00275 -5.007,-3.50534 -7.06038,-8.13306 -6.4089,-13.83126 2.18116,-3.94907 4.54665,-5.68415 7.31702,-4.97556 2.81657,-6.24225 1.5547,-10.6675 -3.94673,-13.28812 -3.10671,-0.5924 -6.29494,0.44111 -9.65234,3.1648 -0.84791,0.36093 -1.4189,0.38821 -1.62535,0.0176 z"
           id="path3441"
           style="stroke-width:0.53464818" />
      </g>
      <path
         d="m -552.26688,132.71444 c -1.74655,1.33004 -2.45779,2.70822 -2.11186,4.11845 0,0 0.0974,0.0917 0.01,0.15598 4.88513,2.28963 7.64677,5.46798 8.43936,9.71543 l 0.0689,0.0718 c -1.74918,2.06609 -4.04562,2.95933 -6.93179,2.59668 -0.0735,-0.0766 -0.27882,-0.15438 -0.43994,-0.1667 -2.36853,0.95427 -3.29051,2.51148 -2.75575,4.4684 1.04133,4.19549 2.66383,7.45084 5.10388,9.8373 1.99291,0.36532 3.77447,0.51044 5.50154,0.2877 2.37154,-0.17343 4.49826,-0.94218 6.41159,-2.21511 2.48236,1.96392 3.00233,4.82892 1.62679,8.83959 -2.51859,0.0203 -5.3915,0.94483 -8.46091,2.4132 -3.12275,2.8126 -5.06384,5.42729 -6.06379,8.11837 -0.37563,1.3196 -0.55414,2.24176 -0.18658,2.62468 0.20645,0.3706 0.75358,0.32818 1.60151,-0.0327 3.35738,-2.72367 6.54561,-3.75719 9.65231,-3.16478 5.50144,2.6206 6.76243,7.05468 3.94584,13.29693 0.75835,2.96748 2.5578,4.65743 5.26872,5.1486 3.60115,-0.29228 6.28468,-1.2003 8.07918,-2.90809 0.26177,-4.23777 -0.49638,-7.8661 -1.98682,-10.81863 3.88714,1.71656 6.2396,4.16731 6.98384,7.27564 5.41276,-1.36011 8.45194,-4.25006 9.12356,-8.52748 -0.0725,3.96842 0.8526,7.44984 2.98755,10.45164 0.36456,-0.39787 0.73827,-0.78623 1.17633,-1.10754 4.72796,-4.25103 9.30072,-6.03907 13.79811,-5.55319 l 0.42327,0.58679 -11.08916,7.88925 c 3.33633,3.16466 7.52949,4.25707 12.6653,3.23059 -1.62019,8.88841 0.91386,15.91243 7.80098,20.90984 -0.46428,-2.66115 0.43339,-5.29353 2.60654,-7.54006 0.18931,-0.26939 0.47228,-0.46065 0.574,-0.66576 0.17523,-0.12851 0.34498,-0.25303 0.52018,-0.38155 0,0 0.10404,-0.0763 0.19164,-0.14059 4.37753,-3.99395 12.57652,-7.38966 24.38289,-10.1768 l 0.17844,-0.009 -0.10953,0.0803 c -3.06229,7.07502 -9.83662,11.79933 -20.54636,14.17362 10.1912,3.61793 19.71306,0.79355 28.66843,-8.38544 l 0.44973,0.32269 c -4.51544,6.18328 -6.94976,12.81401 -7.09774,19.96998 -0.0141,0.14085 -0.0529,0.27538 -0.067,0.41623 l 0.15105,0.0115 c 0.17523,-0.12851 0.19939,-0.26859 0.287,-0.33286 l 0.0821,-0.0602 c 5.37442,-7.46592 13.21923,-13.45666 23.4365,-18.21041 -8.53448,8.21772 -13.08784,14.52672 -13.70008,19.02157 -0.42896,2.66379 0.61017,4.6504 3.14892,6.05093 5.5889,-8.79781 15.54257,-9.81403 30.20691,-11.95683 l -0.0132,0.13207 0.3509,0.80298 c -9.64323,5.50726 -13.67677,5.7211 -12.02218,9.46678 1.03723,-0.63032 1.96301,-3.71898 2.98614,-4.20842 7.54058,-3.96497 14.82866,-3.508 21.81342,-3.54153 -3.20127,5.21935 -8.22719,2.80015 -17.87149,4.26241 5.97071,2.79844 10.90033,9.17092 17.46916,7.61535 14.7359,-7.24788 22.09661,-8.78587 17.37572,-18.74043 l 4.26701,-34.21184 c 24.55246,-10.98432 -15.09509,-14.92102 -24.06213,-20.96804 -5.05733,-1.38027 -10.29624,-2.61919 -15.36763,-3.85862 -20.76907,-4.99461 -42.24846,-9.32951 -64.54914,-12.80914 -9.75815,-1.45591 -19.85218,-1.73558 -30.33333,-0.83405 -0.16112,-0.0123 -0.34239,-0.0262 -0.50351,-0.0385 -3.5749,3.27475 -8.50576,4.53425 -14.76145,3.77197 -4.25169,-1.31864 -8.04888,-2.97067 -11.46981,-5.29023 -1.21849,-0.80283 -2.45346,-1.59359 -3.57026,-2.60153 -2.0111,-5.05027 -5.94673,-8.41157 -11.63447,-9.98195 -0.81465,0.43442 -1.52689,0.85895 -2.10907,1.30231 z"
         id="path3435" />
      <path
         d="m -512.56906,105.26802 c -1.23868,-2.22363 -3.45518,-3.59951 -6.56186,-4.19193 l -3.62023,2.91648 c 0.79456,0.98328 1.41391,2.09509 1.94562,3.27118 1.3404,2.01851 1.04133,4.19551 -0.97066,6.45437 -4.92942,1.39709 -9.19218,1.00012 -12.94943,-1.20323 -0.24874,0.0519 -0.49747,0.10387 -0.58508,0.16813 -4.50544,1.21662 -6.32814,3.20613 -5.62923,5.95619 1.21655,4.06698 4.33536,7.78271 9.32826,11.42887 1.57608,6.15241 0.53991,10.82771 -3.25553,13.87271 l -0.0876,0.0643 c 3.42091,2.31957 7.23455,3.95954 11.48623,5.27818 6.25567,0.76229 11.17099,-0.49396 14.7459,-3.76871 0.16112,0.0123 0.32224,0.0247 0.48337,0.037 l -0.20946,-1.15144 c -0.64967,-8.92009 -2.20665,-17.69668 -4.67094,-26.32979 -1.01011,-3.69638 -0.90945,-7.94649 0.55067,-12.80224 z"
         id="path3423" />
    </g>
    <g
       transform="matrix(0.903796,0,0,1.151423,47.91608,-90.01779)"
       id="Crossbow_and_bolt">
      <path
         d="m 13.185658,111.36076 0,-6.24733 -3.4111339,0 0,-5.709725 -3.4111342,0 0,5.709725 -3.4111272,0 0,6.24734 0,7.67107 0,19.0232 c -0.1361698,29.94762 0.2423138,38.58528 0,55.96095 -0.3358033,23.54783 -0.7572098,25.34086 -4.7363335,33.19877 l -1.7222824,3.40113 1.980305,0.80787 c 1.34298511,0.54788 5.8474752,0.9028 9.4743301,1.00485 0,0 0.2413573,0 0.2413573,0 3.6268548,-0.10205 8.1313448,-0.45697 9.4743298,-1.00485 l 1.980305,-0.80787 -1.722282,-3.40113 c -3.979124,-7.85791 -4.40053,-9.65094 -4.736334,-33.19877 l 0,-55.96096 0,-19.02319 0,-7.67108 z"
         id="Body"
         style="fill:#d40000;stroke:#ffcd50" />
      <path
         d="m 8.0624979,84.468739 -5.8125,15.28125 4.125,0 0,5.375001 3.40625,0 0,-5.375001 4.0937501,0 -5.8125001,-15.28125 z"
         id="Bolt"
         style="fill:#eeeeee" />
      <path
         d="m 13.185658,149.01953 c 0,0 38.06351,-7.05139 38.06351,-7.05139 0.718919,0.54485 2.892313,2.38424 4.829759,2.84903 3.033165,0.72765 3.77493,0.67976 5.338467,-0.34473 2.402661,-1.57428 2.129672,-4.2231 -0.466349,-4.52508 -1.295937,-0.15075 -2.032527,0.21986 -2.498006,1.25685 -0.651694,1.45184 -0.692054,1.45375 -3.158136,0.14885 -1.373903,-0.72697 -4.041124,-3.38019 -5.927162,-5.896 -8.144655,-10.86798 -18.285553,-22.82846 -32.289112,-24.0963 l -3.892971,0 -10.2333953,1e-5 -3.89297101,0 c -14.00355769,1.26784 -24.14444869,13.22832 -32.28911169,24.0963 -1.886037,2.5158 -4.553258,5.16902 -5.927161,5.89599 -2.466082,1.3049 -2.506442,1.30299 -3.158136,-0.14885 -0.465479,-1.03699 -1.202069,-1.4076 -2.498006,-1.25685 -2.596021,0.30198 -2.86901,2.9508 -0.46635,4.52508 1.563538,1.02449 2.305303,1.07238 5.338468,0.34473 1.937446,-0.46479 4.11084,-2.30418 4.829759,-2.84903 0,0 38.0635087,7.05139 38.0635087,7.05139 l 10.2333953,0 z m 0,-29.98769 4.460725,-0.18171 c 12.02563,1.32736 23.336409,10.47464 31.874558,21.66788 l -36.335283,7.07409 -10.2333953,0 -36.3352817,-7.07409 c 8.538156,-11.19323 19.848927,-20.34052 31.8745567,-21.66787 l 4.460725,0.1817"
         id="BowANDstring"
         style="fill:#000000;fill-rule:evenodd" />
    </g>
    <g
       transform="matrix(0.435795,0,0,0.435795,283.4092,14.87818)"
       id="lion"
       style="fill:#d40000;stroke:#ffcd50;stroke-width:1">
      <path
         d="m -402.8896,381.5689 c -8.9,-0.101 -14.3,3.399 -16.2,10.6 -1,5.4 -0.6,9.5 1,12.3 0.6,0.9 1.2,1.7 2,2.4 1.7,1.3 4,2 6.8,2.1 4.2,0.101 9.7,-1 16.5,-3.5 -4.9,4.101 -9.6,6.8 -14.1,8 -0.8,0.2 -1.5,0.3 -2.3,0.5 -4.1,0.601 -8.1,0.101 -12,-1.7 -1.8,-0.8 -3.7,-1.899 -5.4,-3.3 -0.7,-0.5 -1.3,-1.1 -2,-1.6 0.4,0.7 0.7,1.399 1,2.1 5.6,10.8 12,14.4 19.4,10.7 0,-0.1 0,-0.1 0.1,-0.2 0.7,-0.399 1.4,-0.8 2.1,-1.1 0.3,-0.2 0.6,-0.3 0.9,-0.4 3.8,-1.7 7.6,-2.3 11.4,-1.8 -3.8,-0.5 -7.6,0.1 -11.4,1.8 -0.3,0.101 -0.6,0.2 -0.9,0.4 -0.7,0.3 -1.4,0.7 -2.1,1.1 -0.1,0.1 -0.1,0.1 -0.1,0.2 -2.6,8.3 -10.3,13.7 -23.2,16 13.4,5.1 23.3,2.3 29.9,-8.6 l 0.7,0.5 c -0.7,3.399 -1.7,6.6 -3,9.6 -3.7,8.6 -10,15.7 -18.9,21.5 7,1.1 12.7,0.3 17.3,-2.3 4.8,-2.7 8.3,-7.5 10.6,-14.2 -0.3,8.4 -2.9,15.3 -7.6,20.7 1.1,1.7 2.3,3.399 3.8,4.899 1.4,1.5 3,2.9 4.8,4.2 3.6,2.5 7.9,4.5 12.9,5.9 -6.3,0.6 -10.7,0 -13.3,-1.7 -0.6,-0.4 -1.2,-0.8 -1.7,-1.1 0,0 0,0 -0.1,-0.101 -0.7,-0.5 -1.2,-0.8 -1.4,-1 -2.1,-0.7 -3.5,-1.2 -4.1,-1.399 -0.6,-0.2 -1.3,-0.301 -2.2,-0.4 -2.8,-0.1 -6.9,0.5 -12.5,1.7 -7.1,3.2 -15.8,5.2 -25.8,5.899 -2.3,-0.1 -4.3,-0.6 -6.3,-1.5 -1.9,-1 -3.7,-2.399 -5.3,-4.1 -0.4,-6 -2.1,-12.4 -5,-19.5 -1.6,-1.2 -4.1,-1.6 -7.3,-1.3 -1.5,-0.3 -2.5,0.2 -2.8,1.5 -0.1,0.1 -0.1,0.2 -0.1,0.3 0,0.1 0,0.1 0,0.2 5.8,8.7 4.8,12.7 -3.1,12 -2,0 -5.1,0.6 -9.4,1.7 -4.4,2.199 -5.6,4.6 -3.8,7.399 l 0.5,0.4 c 0.2,0.399 0.4,0.7 0.7,1.1 0,0 0.1,0.101 0.1,0.2 2,2.7 4.8,4.8 8.4,6.1 5.5,2 12.7,2.5 21.7,1.5 -5,4 -12.8,4.9 -23.4,2.5 -3.3,-1 -7.1,-2.899 -11.4,-5.399 l -2.6,2.5 c 4.4,4.7 6.8,9.3 7.3,13.8 -0.6,3.1 -2.5,5.8 -5.7,8.4 -0.1,0.1 -0.2,0.3 -0.2,0.5 -1,2.8 -0.3,4.8 2.1,6.1 l 6.8,-0.3 c 3.9,-2.3 6,-5.3 6,-9.3 0.2,3.899 1.1,6.1 2.7,6.699 3.4,0.5 6.5,0.301 9.4,-0.699 2.6,-1.2 5.1,-1.5 7.7,-0.801 3.8,-1.899 6.2,-4.3 7.1,-7.199 -0.9,2.899 -3.3,5.3 -7.1,7.199 -2.6,-0.699 -5.1,-0.399 -7.7,0.801 -0.8,0.3 -1.6,0.8 -2.4,1.3 l -6.9,5.8 2.6,3.1 c 0,0.101 0.1,0.2 0.1,0.2 6.1,1.4 10.5,4.4 13.4,8.9 0.9,2 0.6,3.399 -0.7,4.1 0,0.101 0,0.101 -0.1,0.2 -0.4,1.8 0.7,3.1 3.4,3.5 3.1,1.3 5.6,1.4 7.6,0.1 4.7,-2.899 7.2,-7.1 7.8,-12.6 -2.4,-3.5 -0.9,-8 4.4,-13.6 -5.3,5.6 -6.8,10.1 -4.4,13.6 1,1.5 2.7,4.2 5.1,7.9 3.8,-6.7 7.4,-11.101 10.7,-13 -3.3,4.699 -4.6,9.5 -3.8,14.199 0,0.101 0,0.2 0.1,0.2 l 0,-0.2 c 6.3,-6.6 14,-10.3 23.1,-11 -2.9,8.2 -10,13.7 -21.2,16.601 -0.1,0 -0.2,0 -0.2,0.1 2.2,6.101 8.1,8.2 17.5,6.3 6.8,-2.6 11.3,-6.899 13.7,-12.8 l 0.6,0.101 c 0.6,-3.601 2.6,-6.801 5.9,-9.301 -3.3,2.5 -5.3,5.7 -5.9,9.301 -0.1,0.5 -0.1,1 -0.1,1.399 -1.2,13.9 6.7,20.5 23.5,20 0.2,-0.1 0.5,-0.1 0.7,-0.1 -0.1,0 -0.3,-0.101 -0.4,-0.101 -0.1,-0.1 -0.2,-0.1 -0.2,-0.199 -6.3,-2.9 -9.3,-7.801 -9,-14.5 l 0.1,-0.301 c -0.2,-3.699 2.1,-8 7,-13 5.2,7 8.1,14.5 8.8,22.4 5.9,-9.1 8.3,-19.1 6.9,-30.2 0.1,0.3 0.2,0.601 0.3,0.9 0,0.2 0.1,0.399 0.1,0.6 0.5,1.7 1,3.4 1.7,4.9 4.8,11.399 14.5,17.1 28.9,17.1 -8.5,-5.7 -14.5,-13.1 -18,-22.3 -0.9,-1 -1.7,-2 -2.5,-3.1 0.8,1.1 1.6,2.1 2.5,3.1 5.2,5.5 11.9,8.5 20.3,8.7 2.2,-0.101 4.2,-0.5 6.1,-1.2 3.4,-1.4 6.2,-3.8 8.2,-7.3 l -0.2,-0.3 0.5,-0.601 c -0.6,0.3 -1.199,0.7 -1.8,1 -3.4,2 -6.3,2.9 -8.8,2.8 -8.6,-1.3 -13.5,-6.8 -14.6,-16.5 0.7,-7.6 4.1,-14.1 10.4,-19.199 1.3,-1.2 2.7,-2.2 4.3,-3.2 l 0,-0.2 0.1,-0.2 c 0.6,-5.6 2.1,-11.8 4.4,-18.5 13.22939,-18.53729 15.73088,-21.15459 -7.6,-29.002 0.9,-7.6 3.4,-15.3 7.5,-23 3.9,-6.7 9.8,-13.399 17.6,-20.2 0.301,-0.3 0.5,-0.6 0.7,-0.8 2.3,-2.8 3.7,-5.8 4.101,-9.1 0.399,-3.5 -0.301,-7.4 -2.101,-11.601 -0.6,-3.1 -0.8,-6 -0.7,-8.8 l -1,-2.3 c -17,1.2 -31,6.8 -42.1,16.7 -4.7,-0.601 -9.5,-1.101 -14.1,-1.3 -9,-0.101 -16.8,2.1 -23.5,6.6 -7,8.3 -13.2,13.5 -18.6,15.5 -0.5,0.2 -1,0.4 -1.5,0.5 -4.8,1.3 -8.9,0.3 -12.4,-2.9 -3.8,-3.694 -2.5,-8.594 3.9,-14.694 z"
         id="path3459" />
      <path
         d="m -110.3595,29.842515 c -4.13439,-0.06699 -8.07459,1.165256 -11.74958,3.615256 -4.00001,4.000002 -5.06764,7.645769 -3.26764,10.845769 l 0.48667,-0.208573 c 1.70002,-4.600001 6.11058,-7.325755 13.20959,-7.925754 3.1,0.1 5.61717,0.599056 7.71718,1.599056 1.59999,0.800002 2.75431,1.79811 3.75431,3.198111 0.19998,0.300002 0.425707,0.673339 0.625707,0.973338 0.30101,0.599999 0.49524,1.346678 0.69524,1.946677 1.10102,7.999999 -0.80098,14.193426 -5.700977,18.493425 -6.09999,5.600001 -13.73439,7.314311 -22.7344,5.214312 -8.9,-2.2 -16.0449,-1.249508 -21.34391,2.85049 -1.9,-8.999994 -6.61341,-15.701055 -14.11341,-20.301053 -5.2,-1.8 -11.01051,-2.36858 -17.31151,-1.66858 l -0.0695,0 c -9.00001,1.400003 -14.39914,5.80959 -16.19913,13.20959 -1.19998,5.499994 0.28759,9.965784 4.58859,13.765783 2.69898,1.7 5.70666,1.917144 9.10767,0.417144 -5.99999,-1.999999 -7.94004,-5.498148 -5.84003,-10.498147 1.50001,-2.000002 4.42,-3.067635 8.62099,-3.267635 3.99999,0.200002 7.12582,1.983836 9.52481,5.283835 2.60101,6 3.39429,11.181985 2.2943,15.781984 -0.5,1.799997 -1.29431,3.475264 -2.2943,5.075263 -11.79999,16.400004 -18.83535,34.606944 -21.13534,54.506934 -1.2,15.70001 -1.46477,27.14494 -0.76477,34.34494 0.19901,2.5 0.46476,5.19528 0.76477,7.99528 0.7,5.29999 1.58097,11.01151 2.78096,17.31151 1.8,9.70001 6.54388,23.68402 14.04388,41.78402 3.7,9.59998 8.50008,16.75249 14.60008,21.55249 1.80099,1.3 3.50573,2.56287 5.00574,3.96287 5,4.4 7.78294,8.99627 8.48194,13.69626 -2.19901,-5.1 -6.08962,-8.21624 -11.88863,-9.31623 -0.89999,-0.29999 -1.95048,-0.52572 -2.85049,-0.62572 -4.80099,-0.6 -9.48294,-0.10953 -14.18293,1.39048 -3.00001,0.30001 -5.91242,0.2219 -8.41242,-0.27809 -5.30001,-1.00002 -9.60101,-3.79529 -13.00102,-7.99528 -3.3,-5.50002 -1.88849,-11.38105 4.3105,-17.38104 -6.69899,1.09999 -11.29726,4.70673 -13.69626,10.70672 -1.60101,5.6 -1.37428,10.43912 0.62572,14.73912 4.80001,6.89998 10.7677,10.2029 17.86771,9.80291 0.50002,0 1.02953,-0.0695 1.52953,-0.0695 -0.5,0.30001 -1.02954,0.67333 -1.52953,0.97334 -4.69999,3.09998 -10.40195,5.45241 -17.10294,6.95241 4.60098,3.09998 10.34199,3.24762 17.24199,0.34763 -9.80002,7.20001 -13.11148,15.5506 -10.01148,24.7506 4.49998,9.89999 11.76963,14.46578 21.96963,13.76578 l 0.13905,0 c 0.101,0 0.28766,0 0.48667,0 0.89999,-0.10001 1.92002,-0.31714 2.92001,-0.41715 7.89999,-3.2 11.38957,-7.16672 10.28958,-12.16672 -3.1,4.49998 -7.51916,6.3705 -13.41816,5.7705 -6.90003,-2.20001 -10.32106,-6.85246 -10.22005,-14.25245 0.899,-4.5 2.83144,-7.9591 5.63145,-10.3591 3.49999,-3 8.29907,-4.48859 14.60007,-4.58859 15.29999,1.4 24.77443,6.82104 28.57443,15.92103 3.30001,9.70001 3.82953,18.67536 1.52953,26.97537 -4.19999,11.39998 -12.97156,20.02394 -26.07155,25.72394 -8.30099,2.80101 -16.05913,4.09436 -23.36012,3.89335 -7.29999,-0.19998 -14.10962,-1.80574 -20.50963,-5.00574 -8.00001,-5.29999 -15.89816,-10.30864 -23.49916,-14.80864 -0.1,-0.10101 -0.14762,-0.1781 -0.34762,-0.2781 -9.80002,-6.70002 -18.00298,-16.08776 -24.40298,-28.08776 -3.69998,-6.9 -6.20004,-13.82676 -7.30004,-20.92677 -0.10002,-0.1 -0.13905,-0.17809 -0.13905,-0.2781 -0.801,-8.59999 -2.47425,-17.22395 -5.07526,-25.72394 l 0.48667,-0.41714 c 4.00001,3.59999 7.99621,5.45336 12.0972,5.35336 -6.69999,-6.00001 -11.30583,-12.88773 -13.90483,-20.78772 -2e-5,-0.6 -0.0695,-1.34668 -0.0695,-1.94668 l -0.83429,0 c -54.01313,-34.16606 -70.81377,-24.77343 -146.07025,-6.25717 0,0 2.57162,-4.09732 -12.51512,2.92462 -15.08674,7.02194 -47.83185,25.16314 -47.83185,25.16314 -2.20671,1.19886 -2.85893,2.64865 -1.94668,4.10192 -6.90631,-0.80984 -12.43921,0.0473 -16.89437,2.64192 -1.87252,1.34939 -3.86276,2.51482 -6.0486,3.61525 -5.24879,2.88422 -11.33714,5.3537 -18.35438,7.36957 -3.34851,0.82841 -6.5585,0.83362 -9.87243,0.34762 -2.13037,-0.31243 -4.18248,-1.04362 -6.18765,-1.94668 l -0.55619,-0.0695 -8.48195,-2.78097 c -4.9083,-1.02433 -7.93116,-0.53786 -9.31623,1.39048 -0.24357,0.57328 -0.36163,1.08952 -0.34763,1.59906 0.10465,1.23335 1.15847,2.0689 2.98954,2.64192 5.3191,1.38908 7.98791,3.13548 8.06481,5.07526 0.73158,3.45674 -0.56555,5.65468 -4.03241,6.46575 0.35592,5.22866 3.75891,9.23734 10.28958,11.8191 1.31505,-4.47608 4.40097,-6.87103 9.52481,-7.43908 l 5.07526,7.09146 c -3.9886,3.272 -6.79091,6.73993 -8.41242,10.3591 l 2.08572,5.77051 c 2.08807,-2.94175 5.67337,-3.84085 10.6372,-2.50287 4.67892,2.10614 6.99392,5.08899 6.67432,8.89909 2.87568,2.55324 8.08264,3.82461 15.43436,3.68478 -2.75047,-3.14385 -4.35111,-6.52668 -4.58859,-10.01148 0,0 0.0278,0.0473 -0.0695,-0.0695 l 1.66858,0 c 5.4786,-2.24148 10.99836,-2.26444 16.26866,-0.0695 7.95664,-4.72008 12.90153,-9.84053 15.15626,-15.29531 0,-2e-5 0.13886,0.0115 0.2781,-0.0695 1.44257,8.73751 8.8534,11.87718 22.31725,9.38576 -9.73281,-0.71688 -10.94522,-3.75063 -3.61525,-8.96861 0.21583,0.13315 0.43782,0.19122 0.55619,0.20857 6.21675,-1.11826 9.87865,-3.47227 10.84577,-6.88289 0.0835,-0.39376 0.17393,-0.7708 0.13905,-1.18191 0.17409,0.33 0.26389,0.68392 0.41714,1.11239 10e-6,0 -0.0486,-0.0289 -0.0695,0.0695 1.54634,4.79423 3.3414,6.79588 5.42288,6.18765 2.83221,-7.6031 6.73771,-12.66603 11.61054,-15.50389 -2.45596,9.28224 -0.48167,14.77568 5.84002,16.61628 2.09464,-5.27527 4.24502,-9.72927 6.81337,-13.20959 0.0626,-0.2953 0.20839,-0.33606 0.34762,-0.41715 3.33393,-4.789 7.0651,-8.02471 11.33244,-9.73338 -0.5423,4.28493 -2.8593,8.39095 -7.09146,12.23625 6.71104,-1.14725 12.57761,-3.61683 17.65913,-7.43908 3.83539,-3.70047 6.26403,-8.09653 6.95242,-13.07055 0.78037,-0.10516 1.40545,-0.24232 2.15525,-0.34762 3.60069,8.97603 2.79409,17.49161 -2.50287,25.3068 l 16.54675,-13.07054 c 1.19999,7.79998 0.0933,13.55055 -3.40669,17.45056 6.1,0.6 10.65722,-3.09339 13.55721,-11.19339 0.30001,-0.7 0.49524,-1.3162 0.69524,-2.0162 -1.59999,7.30001 -0.0333,12.40389 4.8667,15.50389 9.89999,4.59998 20.30777,7.72481 31.00777,9.52481 1.50001,0.29998 2.88001,0.72096 4.38002,1.32095 1.00001,0.4 2.1286,0.79049 3.12859,1.39049 1.2,0.6 2.30769,1.21619 3.40668,2.0162 4.9,3.19998 9.0534,7.79625 12.6534,13.69626 -0.19999,0.1 -0.13905,0.0781 -0.13905,0.27809 -2.10001,3.90001 -3.45429,8.12392 -3.7543,12.72292 -0.20001,0.70001 -0.13905,1.49429 -0.13905,2.2943 -0.10001,2.79999 0.0962,5.66005 0.69524,8.76004 1.80002,4.2 2.48471,8.11055 2.08572,11.61054 -0.39999,3.29998 -1.80193,6.30765 -4.10192,9.10766 -0.20001,0.20001 -0.39425,0.53428 -0.69524,0.83429 -7.79999,6.801 -13.68961,13.46202 -17.58962,20.16201 -4.09999,7.7 -6.60859,15.41249 -7.5086,23.01249 -0.6,7.9 -0.90382,14.51438 -0.90382,19.81439 0,2.89999 -1.02858,5.27055 -3.12859,7.36956 -2.1,1.99998 -5.29433,3.4886 -9.59433,4.58859 -3.89998,0.99999 -7.3591,0.99999 -10.3591,0 -3.40001,-1.3 -5.86098,-3.38764 -7.16099,-6.18765 -0.49999,-0.99999 -0.74285,-1.99811 -1.04286,-3.19811 -1.00001,-5.40001 1.08765,-10.58298 6.18765,-15.78198 -5.49999,1.09999 -9.98769,3.61819 -13.48768,7.71718 -2.4,5.10103 -3.10763,9.84289 -1.80763,14.04388 0.1,0.5 0.28666,0.96001 0.48667,1.46001 2.09998,5.39999 5.31622,9.24101 9.31623,11.54101 7.80001,2.89899 15.67727,3.31237 23.77726,1.11238 0.1,-0.1 0.31715,-0.0695 0.41715,-0.0695 4.10001,-2.19999 7.48956,-4.64008 10.28957,-7.43909 0.19999,-0.2 0.42571,-0.35518 0.62572,-0.55619 0.20001,-0.19998 0.28666,-0.38666 0.48667,-0.48667 1.3,-1.60101 2.47622,-3.23622 3.47621,-4.93621 -2.29999,6.70001 -3.78002,12.89342 -4.38002,18.49342 0,0.10101 0,0.10957 0,0.20858 3.50001,-4.20002 6.96009,-6.98194 10.3591,-8.48195 1.9,9.29999 2.23329,16.46105 0.83429,21.76106 -1.9,6.60099 -4.32194,11.45244 -7.02194,14.25245 1.19999,0.19999 2.41525,0.0524 3.61525,-0.34762 0.10001,2e-5 0.0695,0 0.0695,0 3.69999,-1.101 7.39338,-4.29334 11.19339,-9.59433 3.49999,-4.60001 5.20574,-10.11627 5.00574,-16.61628 -0.20001,-3.59999 -0.59148,-6.60766 -1.39049,-9.10766 -0.30101,-0.80099 -0.6048,-1.48473 -0.90381,-2.08573 0.49999,0.601 1.02953,1.34668 1.52953,1.94668 4.4,5.39901 9.49531,8.09528 15.29531,7.99528 l 0.97334,-0.20857 4.65812,-1.04287 5.70098,-1.66858 c -2.30001,1.2 -5.24067,1.47114 -8.55147,2.36383 -0.56033,0.15106 -1.17969,0.30072 -1.80763,0.34762 5.79999,11.5 17.32204,18.27915 34.62303,20.57915 -8.90002,12.20001 -14.82108,24.47728 -17.52009,36.77828 -1.99998,7.19898 -3.44955,14.71625 -4.44954,22.31725 -0.7,0.89899 -1.50288,1.73434 -2.50287,2.43334 -0.60102,0.30099 -1.3172,0.67333 -2.0162,0.97334 -1.9,0.80103 -4.29146,1.39805 -7.09147,1.59906 -3.09999,-0.19999 -5.81342,-1.60193 -8.41242,-4.10193 -3.19998,-0.50001 -6.83719,-0.49999 -10.63719,0 -2.00001,0.80099 -2.68573,2.20093 -2.08573,4.10193 l 0.13905,0 c 2.29999,0.7 4.00575,2.41332 5.00574,5.21431 0.49999,2.80001 0.30475,5.49528 -0.69524,7.99528 -0.10001,0.19898 -0.24662,0.39523 -0.34762,0.69524 -1.29998,4.00001 -1.15239,7.57624 0.34762,10.77624 7.80099,-1.5 11.99143,-5.60578 12.79244,-12.30577 0.79999,3.801 2.50574,5.9257 5.00574,6.3267 0.19898,-3e-5 0.14761,0 0.34762,0 l 0.13905,0.27809 -0.62572,0.20858 c -2.39899,2.1 -3.00762,4.22568 -1.80763,6.32669 l 0.13905,0.20858 c 1.30101,-0.60096 2.4533,-1.09148 3.75431,-1.39049 2.39901,-0.69998 4.69046,-1.00381 7.09146,-0.90381 2.79999,1.80104 4.93528,3.78007 6.53527,5.97908 0.10001,-3e-5 0.0695,0.10957 0.0695,0.20857 0.99999,1.30002 1.69329,2.81049 2.29429,4.3105 l 0.5562,0.34762 c 6.59999,-1.19998 8.95242,-3.85622 6.95241,-7.85623 -0.10098,-0.19903 -0.17709,-0.28666 -0.27809,-0.48667 l 7.5086,-4.79717 0.48667,0.5562 c 0.10101,0.29998 0.31815,0.64287 0.41715,1.04286 1.00001,1.89902 2.57526,3.30192 5.07526,4.10192 4.301,-1.59999 7.21999,-3.56193 8.621,-5.56193 -0.601,-3.09998 0.37997,-5.76481 2.78096,-8.0648 2.39998,-1.60102 4.90861,-2.47139 7.50861,-2.5724 1.59999,0.10096 3.29716,0.98097 4.79717,2.78097 0.101,0 0.10957,-0.039 0.20857,-0.13905 2.00001,-0.39999 2.87241,-1.24191 2.5724,-2.64192 0.30101,-2.50002 0.0352,-5.0086 -0.76477,-7.5086 -0.19999,-0.19999 -0.17809,-0.42471 -0.2781,-0.62572 -0.39999,-1.3 -1.00762,-2.48478 -1.80763,-3.68478 -0.2,-0.40002 -0.39523,-0.74285 -0.69524,-1.04286 0.20001,0.10002 0.35619,0.24761 0.5562,0.34762 0.90001,0.601 1.81243,1.06101 2.71144,1.46 0.30001,0.19999 0.78192,0.45619 1.18191,0.5562 3.1,1.30002 8.75533,0.77905 16.75532,-1.32096 -6.89998,-1.9 -10.96573,-4.73432 -12.16673,-8.13433 -1.69901,-3.80102 -2.34566,-7.65816 -1.94667,-11.95815 0,-0.50002 0,-1.0381 0,-1.73811 -0.10001,-0.8 -0.18568,-1.5724 -0.48667,-2.57239 0.90001,0.601 1.63334,1.25624 2.43334,2.15525 2.9,3.19998 5.43908,7.84388 7.43909,14.04388 4.10001,-6.2 5.36288,-12.58868 3.96288,-19.18867 4.5,2.10101 9.0572,2.66001 13.55721,1.46001 5.2,-2.09999 8.77624,-4.47057 10.77624,-7.36956 -3.1,0.39899 -5.91242,0.61815 -8.41242,0.41714 -0.10101,-2e-5 -0.10957,0 -0.20858,0 -4.19999,-0.39901 -7.77624,-1.72282 -10.77624,-3.82383 -0.30099,-0.19998 -0.49523,-0.42471 -0.69524,-0.62571 0,0 -0.13905,-0.10957 -0.13905,-0.20858 l -0.0695,0 c -0.99999,-0.90001 -1.8724,-1.78097 -2.5724,-2.78096 -2.30099,-2.90002 -3.43616,-6.21148 -3.33716,-10.01148 l 0.2781,-0.55619 c 6.899,1.70001 12.79818,6.5706 17.79818,14.66959 3.00002,-6.60001 -1.89906,-15.58395 -14.60007,-27.18394 5.30101,0.99999 9.11054,2.76192 11.61053,5.56193 2.10001,-2.10101 2.5124,-4.56199 1.11239,-7.16099 -2.29999,-5.90001 -6.37531,-10.07531 -12.3753,-12.3753 6.10002,2.19999 11.99818,3.87427 17.79819,5.07527 1.69999,0.30001 3.40474,0.6048 5.00573,0.90381 9.49999,0 15.27247,-3.03815 17.17247,-9.03814 -2.50002,0.89999 -4.89047,1.5162 -7.09146,2.0162 -0.20001,-2e-5 -0.31815,0 -0.41715,0 -0.10098,0.10098 -0.20857,0.13905 -0.20857,0.13905 -5.20001,0.89898 -9.28287,0.59619 -12.58387,-0.90382 -0.19899,-0.19998 -0.42471,-0.31814 -0.62572,-0.41714 -5.80001,-2.80101 -9.57148,-6.87531 -11.47149,-12.3753 3.80001,-2.79999 7.98387,-3.44669 12.58388,-1.94668 5.601,2.5 9.441,6.02006 11.54101,10.22005 2.601,-6.59999 0.47329,-12.4896 -6.3267,-17.58961 -0.5,-0.19998 -0.99149,-0.39523 -1.39048,-0.69524 -7.70001,-3.59999 -15.88108,-4.04286 -24.68108,-1.04286 9.00001,-3.8 15.80964,-8.66102 20.50963,-14.46103 1.60001,-3.60001 1.1886,-6.74671 -1.11239,-9.24671 -5.1,6.101 -12.62583,10.12012 -22.52583,11.81911 -6.10001,0.101 -11.30389,-0.97621 -15.50388,-3.47621 8.301,-2.09999 12.70959,-6.92098 13.20959,-14.32198 -0.30001,0.29999 -0.56476,0.60481 -0.76477,0.90382 -0.30001,0.30001 -0.6038,0.53428 -0.90381,0.83429 -3.80001,3.50001 -8.39625,5.14478 -13.69626,5.14478 -0.10101,-2e-5 -0.24662,0 -0.34762,0 -0.30001,-2e-5 -0.60481,0 -0.90382,0 -1.20002,-0.10102 -2.55531,-0.18665 -3.7543,-0.48666 -6.60101,-3.50002 -10.32386,-8.36103 -11.12387,-14.46103 3.90001,4.79999 9.10489,7.27812 15.50389,7.57813 3.79998,-0.49999 6.42574,-1.82382 7.92575,-3.82382 0.30001,-0.40002 0.56476,-0.85145 0.76477,-1.25144 -2.5,0.20001 -4.89148,0.005 -7.09146,-0.69524 -8.49999,-2.70001 -15.78397,-12.35252 -21.48297,-28.85253 0.005,0.0162 0.0695,-0.0167 0.0695,0 4.89999,8.00002 10.83722,11.44953 17.93723,10.15053 -3.39999,-3.7 -6.10485,-8.4124 -8.20385,-14.1134 -2.10101,-5.80001 -3.44097,-12.53153 -4.24098,-20.23153 -0.2,-2.30002 -0.41714,-4.80004 -0.41714,-7.30004 l 0,-5.00574 c 0.80098,0.80001 1.60386,1.70287 2.50287,2.50287 1.00001,1.10002 2.23616,2.1286 3.33716,3.12859 10.199,8.299 22.86875,12.21053 38.16876,11.61053 0.10098,3e-5 0.31814,0 0.41714,0 0.19999,3e-5 0.42571,0 0.62572,0 0.20001,3e-5 0.28767,0 0.48667,0 0.10098,3e-5 0.28766,0 0.48667,0 18.2,0.30001 34.28124,-5.63824 48.18024,-17.93723 15.90001,-13.79998 23.92387,-34.58507 24.12488,-62.08507 0.59998,-4.9 2.32389,-7.50385 5.42289,-8.20385 2.39999,-0.5 5.702907,0.38097 9.8029,2.78097 1.601013,-6.60002 -1.936193,-10.26293 -10.63719,-11.26292 l -0.0695,0 c -0.19998,2e-5 -0.28766,0 -0.48667,0 0.19899,-0.1 0.28667,-0.13905 0.48667,-0.13905 13.100019,-14.4 17.947688,-24.50396 14.947693,-30.10396 -2.000004,-4.6 -5.163856,-7.57719 -9.663853,-9.17718 6.200015,6.9 3.730427,13.01532 -7.36956,18.21532 -10.1,3.40001 -16.33248,11.49441 -18.63248,24.19441 -2.80001,-10.50002 -6.68862,-18.51632 -11.88863,-23.91631 -6.3,-6.3 -12.68009,-15.77442 -18.98009,-28.57443 -3.39899,-8.59999 -5.10574,-16.5382 -5.00574,-23.63821 0.101,-1.9 0.18666,-3.50574 0.48667,-5.00574 0,-0.10001 0,-0.13905 0,-0.13905 0.90001,-4.5 2.98765,-7.8029 6.18765,-9.8029 4.19999,-2.8 9.17817,-2.90858 14.87817,-0.20858 2.19899,2.4 2.01333,4.67432 -0.48667,6.67432 5.8,-0.6 7.97532,-2.96099 6.67432,-7.16099 -0.699,-1.1 -1.46481,-2.15906 -2.36382,-3.05906 -4.69999,-4.89999 -11.73435,-6.24954 -21.13535,-4.44954 -0.199,0.1 -0.35518,0.20857 -0.55619,0.20857 -0.29999,0.1 -0.6038,0.14762 -0.90381,0.34762 -5.89901,2.49999 -9.40672,7.48674 -10.70672,15.08674 -4.17423,-16.16235 -5.67653,-33.38454 -4.38003,-51.93454 0.79999,-10.1 4.98387,-20.10396 12.58388,-30.10396 9.60098,-9.3 17.69439,-13.92674 24.1944,-13.62674 6.50001,0.2 12.70201,2.28765 18.702,6.18765 5.90001,4 8.51719,10.9963 7.71718,20.9963 -0.79998,6.4 -4.8191,11.41722 -11.8191,15.01721 -0.30099,0.1 -0.60481,0.28667 -0.90382,0.48667 -1.10002,0.50001 -2.47145,1.09906 -4.17145,1.59906 -0.69998,0.2 -1.42376,0.42572 -2.22477,0.62572 -3.1,0.89999 -6.18576,-0.19811 -9.38576,-3.19811 -1.99998,-2.5 -2.52952,-6.33244 -1.52953,-11.33244 -6.3,6.99999 -6.61238,13.39724 -1.11239,19.39724 4.39998,4.9 10.13442,5.82001 17.03342,2.92001 -7.69999,10.3 -4.17138,16.26771 10.42862,17.86771 1.50001,0.1 3.0667,0.34762 4.86669,0.34762 -10.99999,-1.40001 -13.80485,-5.04577 -8.20385,-10.84577 0.79999,-0.9 1.92759,-1.85049 3.12859,-2.85049 0.90001,-0.69999 1.88954,-1.52477 2.98954,-2.22477 17.199982,-11.5 23.559184,-26.40404 19.258186,-44.70403 -3.898999,-11.3 -11.346716,-20.002038 -22.247726,-26.002038 -1.89898,-1.000004 -3.84003,-1.980966 -5.84003,-2.780966 2.29999,-2e-6 4.73051,0.217145 7.23051,0.417145 5.7,0.199996 10.60007,-1.700981 14.600077,-5.700981 6.699988,-7.299996 10.796196,-15.511553 12.097198,-24.611551 0.300011,-6.100001 -1.141976,-12.193427 -4.240973,-18.493426 2.2e-5,-0.100001 -0.06952,-0.247621 -0.06952,-0.34762 -0.398991,-0.5 -0.78292,-1.099056 -1.181911,-1.599056 -0.200007,-0.200003 -0.318143,-0.38667 -0.417145,-0.486669 -0.500997,-0.599999 -0.890488,-1.060006 -1.390483,-1.460007 -1.800002,-1.799997 -4.035272,-3.249546 -6.535273,-4.449546 -0.199,-0.1 -0.35518,-0.208573 -0.55619,-0.208573 -2.10001,-1.000002 -4.45242,-1.655249 -6.95242,-2.155249 -0.6,-0.0625 -1.14747,-0.129477 -1.7381,-0.139048 z"
         id="path3413" />
      <path
         d="m -242.3896,80.8689 c -1,-4.4 -3.8,-8.4 -8.6,-12.1 7.3,-0.9 11.3,-3.3 11.8,-7.4 -3.5,1.8 -7.1,2.3 -10.7,1.6 -3.1,-5.8 -7.899,-10.2 -14.399,-13.2 -3.801,-1.2 -7.801,-1.5 -12,-0.8 -0.7,0.1 -1.4,0.3 -2.301,0.4 0.9,-0.1 1.601,-0.3 2.301,-0.4 5.8,-1.5 8.199,-5.7 7.199,-12.8 -0.8,-7.7 -6,-13.2 -15.199,-16.5 -3.601,-1 -6.5,-0.6 -8.601,1.1 4.601,0.5 7.5,1.6 8.7,3.2 0.4,0.5 0.7,1 1,1.6 1.4,2.8 1.4,5.5 0.1,7.8 -2.5,2.9 -6.8,5.2 -13.1,7.2 -6.6,2.9 -16.7,4.9 -30.3,6 -0.4,0 -0.7,0.1 -1.1,0.1 l -0.1,0 c -21.3,2.9 -37.3,6.8 -47.8,11.7 -2.6,1.2 -4.9,2.5 -6.9,3.9 0.3,3.7 1.8,5.9 4.6,6.5 l 0.1,0.2 4.9,-2.9 0,-2.3 0,2.3 -4.9,2.9 -0.1,0.1 c -0.5,3.3 -0.5,6.3 -0.1,8.9 4.3,8.4 10.6,14.3 19.2,17.8 0,0 0.1,0 0.1,0.1 0.1,0 0.2,0 0.2,0.1 3.9,-0.1 7.5,-0.1 10.8,0.1 4.5,0.3 8.6,0.7 12.1,1.5 0.1,0 0.1,0 0.1,0 3.6,0.7 6.6,1.7 9.3,2.9 4.8,2.2 8.7,4.7 11.8,7.4 1.4,1.4 2.7,2.8 3.8,4.3 3.399,5.3 3.399,9.7 0,13.1 -0.1,0.1 -0.3,0.3 -0.4,0.4 -1.9,1.6 -5.2,2.5 -9.8,2.7 -8.7,-0.1 -15.8,-1.2 -21.1,-3.2 -0.7,-0.2 -1.5,-0.5 -2.2,-0.7 -3.8,-1.1 -8.2,-1.5 -13.2,-1.3 -1.6,0 -3.3,0.2 -5,0.4 -2.5,2.6 -2.4,5.3 0.2,8 -3,5.4 -8.6,6.8 -16.7,4.3 3,5.2 6.7,7.6 11.3,7.3 4.1,-0.4 8.4,-2 12.6,-4.9 0.3,-0.2 0.5,-0.4 0.8,-0.6 -0.3,0.3 -0.5,0.5 -0.6,0.7 -4.2,4.4 -6.9,8.3 -8.1,11.6 -0.1,0.1 -0.1,0.2 -0.1,0.2 0,0.1 0,0.1 0,0.2 -0.6,1.8 -0.8,3.4 -0.5,4.9 0.5,-1.6 1.3,-3.1 2.4,-4.5 3.5,-4 9.9,-6.6 19.3,-7.6 -0.5,3.7 -3.5,7.6 -9.1,11.5 10.9,-1.5 18.3,-5.2 22.2,-11.1 0.9,5.7 4.1,8.8 9.5,9.2 -1.7,-4.4 -1.2,-8 1.6,-10.7 3.9,7.5 10.7,12 20.3,13.6 -5,-4 -7.3,-9.3 -6.8,-15.8 4.2,4 7.7,5.9 10.7,5.6 -0.6,-5.6 1.1,-10.6 5.2,-15.1 1.3,5.1 7,8 17.2,8.7 -7.5,-6.5 -10.9,-13.2 -10.301,-20.1 0.5,-6.9 1.5,-12.2 3.101,-16.1 4.1,0.5 6.899,3.9 8.399,10.2 1.2,-11.1 -3.3,-18.5 -13.199,-22.2 2.899,0.7 5.699,1.1 8.5,1.2 1.699,0 3.399,-0.1 5.1,-0.3 5.8,-0.8 8.8,-5.7 8.9,-14.7 0.1,-1.8 -0.101,-3.4 -0.4,-4.8 0,-0.1 0,-0.1 0,-0.1 -1,-4.1 -3.4,-6.9 -7.2,-8.2 -0.2,-0.1 -0.399,-0.2 -0.6,-0.2 -0.101,-0.1 -0.2,-0.1 -0.3,-0.1 l -0.1,0 c -0.7,-0.3 -1.5,-0.5 -2.3,-0.6 -0.8,-0.2 -1.6,-0.2 -2.4,-0.3 -4.8,0.1 -8,1.5 -9.699,4.2 1.699,-2.7 4.899,-4.1 9.699,-4.2 0.801,0.1 1.601,0.1 2.4,0.3 0.8,0.1 1.6,0.3 2.3,0.6 l 0.101,0 c 0.1,0 0.199,0 0.3,0.1 0.2,0 0.399,0.1 0.6,0.2 3.8,1.3 6.2,4.1 7.2,8.2 0,0 0,0 0,0.1 0.3,1.4 0.5,3 0.4,4.8 -0.101,9 -3.101,13.9 -8.9,14.7 -1.7,0.2 -3.4,0.3 -5.1,0.3 -2.801,-0.1 -5.601,-0.5 -8.5,-1.2 9.899,3.7 14.399,11.1 13.199,22.2 -1.5,-6.3 -4.3,-9.7 -8.399,-10.2 -1.601,3.9 -2.601,9.2 -3.101,16.1 -0.6,6.9 2.801,13.6 10.301,20.1 -10.2,-0.7 -15.9,-3.6 -17.2,-8.7 -4.101,4.5 -5.8,9.5 -5.2,15.1 -3,0.3 -6.5,-1.6 -10.7,-5.6 -0.5,6.5 1.8,11.8 6.8,15.8 -9.6,-1.6 -16.399,-6.1 -20.3,-13.6 -2.8,2.7 -3.3,6.3 -1.6,10.7 -5.4,-0.4 -8.6,-3.5 -9.5,-9.2 -3.9,5.9 -11.3,9.6 -22.2,11.1 5.6,-3.9 8.6,-7.8 9.1,-11.5 -9.4,1 -15.8,3.6 -19.3,7.6 3.3,1.8 5.1,3.7 5.4,5.6 0.2,2.3 -0.9,3.7 -3.2,4.2 -1.9,-0.7 -3.8,-1.2 -5.7,-1.6 -6.9,-1.6 -13.8,-1.9 -20.7,-0.7 -0.1,0 -0.3,0 -0.4,0 -0.6,0.1 -1.1,0.2 -1.6,0.3 -6.5,-2.7 -10,-7.4 -10.2,-14 -5.9,2.6 -8.4,6.5 -7.8,11.6 3.7,8.2 10.8,12.4 21.1,12.7 0.3,0 0.6,0 0.8,0 -0.2,0 -0.5,0 -0.8,0.1 -14,2.3 -22.7,8.4 -26.1,18.3 -3.9,6.5 -9.6,5.9 -17,-2 0.5,1.1 1.1,2.2 1.6,3.3 1.9,3.4 4.1,6.6 6.4,9.4 0.1,0.1 0.1,0.1 0.1,0.2 3.1,3.6 6.6,6.6 10.6,9.1 -0.1,-5 1.5,-9 4.9,-11.9 0.6,-0.7 1.4,-1.2 2.3,-1.8 -0.9,0.6 -1.7,1.1 -2.3,1.8 -3.4,2.9 -5,6.9 -4.9,11.9 -0.5,5.4 -2.8,9.5 -7.1,12.2 -4.4,2.7 -8.1,2.5 -11.3,-0.5 -0.4,-0.3 -0.7,-0.7 -1,-1.1 -1,-1.4 -1.2,-3 -0.5,-4.6 10.0637,-8.12279 -2.18759,-5.47741 -3.8,-1.4 -0.9,1.1 -1.6,2.4 -2.1,4.1 -0.4,2.5 -0.5,4.8 0,6.8 0.6,3 2.2,5.3 4.8,6.9 1,0.6 2.1,1.2 3.3,1.6 1.7,0.6 3.3,1 4.8,1.4 0.3,0 0.6,0.1 0.9,0.1 0.8,0.2 1.6,0.3 2.4,0.4 1.8,0.1 3.6,0.1 5.3,-0.1 1.4,-0.3 2.7,-0.6 4,-1 0.2,-0.2 0.5,-0.3 0.7,-0.4 0.7,-0.3 1.4,-0.6 2.1,-0.9 1.7,-1 3.4,-2.2 5,-3.8 2.1,-2.2 4,-4.8 5.6,-8 2.1,-4.6 4.9,-7.7 8.2,-9 -3.3,1.3 -6.1,4.4 -8.2,9 -1.6,3.2 -3.5,5.8 -5.6,8 -1.6,1.6 -3.3,2.8 -5,3.8 -0.7,0.3 -1.4,0.6 -2.1,0.9 l -0.9,0.7 c -1.3,0.7 -2.5,1.1 -3.6,1.3 -0.3,0.1 -0.5,0.1 -0.7,0.1 -1.6,0.3 -3.2,0 -4.8,-0.6 -0.8,-0.1 -1.6,-0.2 -2.4,-0.4 -0.3,0 -0.6,-0.1 -0.9,-0.1 0.1,0.1 0.2,0.4 0.2,0.5 0.2,0.3 0.3,0.6 0.5,0.9 0.1,0.2 0.2,0.5 0.3,0.6 0,0.1 0.1,0.2 0.2,0.4 2.2,3.9 5.5,6.3 9.6,7.4 2.5,-2 5.2,-3.8 8.1,-5.2 2.6,-1.3 5.3,-2.4 8.1,-3.2 8.5,-2.4 13.8,-7.2 15.8,-14.5 -2,7.3 -7.3,12.1 -15.8,14.5 -2.8,0.8 -5.5,1.9 -8.1,3.2 -2.9,1.4 -5.6,3.2 -8.1,5.2 -3,2.4 -5.8,5.3 -8.4,8.6 -0.9,1.1 -1.7,2.3 -2.6,3.6 -1.6,4.1 -0.9,7.2 2.1,9.4 3.7,-4.4 8.3,-7.6 13.6,-9.7 2.8,-1.1 5.9,-1.8 9.3,-2.3 l 0.1,0 c 6.1,0.1 11.4,-1 15.8,-3.5 l 10.5,-7.3 c -0.9,2.1 -1.6,4.1 -2.1,6 -0.1,0.1 -0.1,0.2 -0.1,0.3 -1.9,6.5 -1.6,11.9 0.7,16.1 4.3,6.6 10.2,10.7 17.5,12.4 -0.1,-0.1 -0.2,-0.2 -0.2,-0.3 -1.2,-1.1 -2.2,-2.2 -3,-3.4 -0.2,-0.2 -0.3,-0.3 -0.4,-0.5 -2.3,-3.2 -3.8,-6.6 -4.5,-10.4 1,-7.6 6,-12.9 14.9,-16.2 0.3,-0.2 0.7,-0.2 1.1,-0.4 -0.4,0.2 -0.8,0.2 -1.1,0.4 -1.1,0.9 -2.1,1.9 -3,2.9 -5.1,5.7 -6.7,11.4 -5,17 0.1,0.2 0.2,0.4 0.3,0.7 0.5,1.2 1,2.2 1.7,3 2,2.6 4.9,3.6 8.8,3.1 -5.2,-6.5 -5.1,-12.6 0.3,-18.3 0.9,-1.1 1.9,-2.2 3,-3.1 2.6,-2.2 5.8,-3.7 9.5,-4.5 0.9,4.2 0.2,8.5 -2.2,12.7 -1,1.8 -2.3,3.5 -3.9,5.3 2.3,-0.8 4.6,-1.6 6.8,-2.5 8.8,-4 15.7,-10.2 20.7,-18.5 l -0.1,-0.5 c -0.1,0 -0.1,0 -0.2,0.1 -3.8,1.4 -7.7,1.7 -11.5,1.3 l -0.101,0 c 0,-0.1 0,-0.1 0.1,-0.1 l 0,0 c 2.5,-1.8 4.5,-3.9 6.1,-6.1 0.3,-0.2 0.5,-0.6 0.7,-0.9 0.8,-1.2 1.5,-2.4 2.1,-3.7 1,-2.2 1.7,-4.6 2.1,-7.2 -0.4,2.6 -1.1,5 -2.1,7.2 -0.6,1.3 -1.3,2.5 -2.1,3.7 -0.2,0.3 -0.4,0.7 -0.7,0.9 -1.6,2.2 -3.6,4.3 -6.1,6.1 l 0,0 c -0.1,0 -0.1,0 -0.1,0.1 l 0.1,0 c 3.8,0.4 7.7,0.1 11.5,-1.3 0.1,-0.1 0.1,-0.1 0.2,-0.1 0.1,0 0.3,0 0.4,-0.1 2.5,-0.9 5,-2.2 7.399,-3.9 -0.3,-2.5 -0.399,-4.9 -0.199,-7.1 0.5,-6.1 2.899,-11.4 7.199,-15.8 -4.3,4.4 -6.699,9.7 -7.199,15.8 -0.2,2.2 -0.101,4.6 0.199,7.1 1.9,5.8 4.801,10.2 8.5,13.3 3.7,3 8.2,4.8 13.5,5.4 4.9,0.2 9,-0.6 12.5,-2.5 0.301,-0.1 0.5,-0.2 0.801,-0.4 l 0.1,0 c 0.1,-0.1 0.3,-0.2 0.5,-0.3 0.4,-0.3 0.6,-0.5 1,-0.7 -0.6,-0.1 -1.1,-0.2 -1.6,-0.3 -6.101,-1 -11.5,-4.2 -16.101,-9.3 -2.5,-3.5 -2.3,-6.9 0.601,-10.2 l 0,0 0,-0.1 c 1.6,-1.9 2.899,-4.1 4,-6.2 1.899,-3.6 3.1,-7.4 3.699,-11.4 -0.6,4 -1.8,7.8 -3.699,11.4 -1.101,2.1 -2.4,4.3 -4,6.2 l 0,0.1 c 6.6,-1.6 11.6,-4.3 15,-8.2 0.199,-0.3 0.6,-0.6 0.8,-1 0.1,0 0.1,0 0.1,-0.1 0.2,-0.2 0.4,-0.5 0.601,-0.8 0,0 0,0 0.1,-0.1 l -0.1,0 c 0.1,-0.1 0.199,-0.2 0.199,-0.2 2.4,-3.3 3.801,-6.8 4.301,-10.5 0,-0.5 0.1,-1 0.1,-1.5 0,-0.2 0,-0.4 0.1,-0.6 l 0,-0.1 c 0,-0.2 0,-0.4 0,-0.5 0,-1.1 -0.1,-2.2 -0.199,-3.3 -0.101,-0.1 -0.101,-0.1 0,-0.1 -0.301,-1.5 -0.601,-3.1 -1.101,-4.6 0.5,1.5 0.8,3.1 1.101,4.6 -0.101,0 -0.101,0 0,0.1 0.1,1.1 0.199,2.2 0.199,3.3 0,0.1 0,0.3 0,0.5 l 0,0.1 c -0.1,0.2 -0.1,0.4 -0.1,0.6 0,0.5 -0.1,1 -0.1,1.5 -0.5,3.7 -1.9,7.2 -4.301,10.5 0,0 -0.1,0.1 -0.1,0.2 -0.1,0.1 -0.1,0.1 -0.1,0.1 -0.2,0.3 -0.4,0.6 -0.601,0.8 0,0.1 0,0.1 -0.1,0.1 0.2,0.1 0.3,0.2 0.399,0.2 0.4,0.1 0.801,0.3 1.301,0.5 2.399,0.7 4.899,1.2 7.399,1.5 5.2,0.5 10.7,-0.2 16.3,-2.3 5.9,-1.5 10.2,-4.5 12.801,-8.8 -4.301,2.1 -9.2,3 -14.601,2.4 -4.8,-0.5 -8.3,-2.7 -10.7,-6.8 l 0.2,-0.1 0.101,0 0.099,-1 c 7.3,-11.4 12.8,-11 16.4,1 3.699,-6.9 2.899,-13.9 -2.2,-21 8.2,5.5 17.399,7.5 27.8,6.2 7,-2.2 11.6,-5.6 13.9,-10.3 -2.9,2.2 -7.7,3.1 -14.301,2.6 -8.199,-0.7 -15.3,-3.4 -21.399,-7.9 -0.101,-0.1 -0.3,-0.2 -0.5,-0.4 -4.2,-3.3 -7.9,-7.5 -11.101,-12.8 18,-8.4 23,-5.7 15,8.1 -0.1,0 -0.1,0.1 -0.1,0.2 8.4,-4.5 12.6,-8.8 12.6,-13 0,-4.3 -4.6,-10.2 -13.8,-17.8 -4.899,-1.3 -7.899,-4.2 -8.8,-8.7 0.9,4.5 3.9,7.4 8.8,8.7 0.7,0.2 1.5,0.3 2.3,0.5 7.301,-0.2 12.5,-2.9 15.5,-8.3 -2.699,1.5 -5.1,2.4 -7.3,3 0,0 -0.1,0 -0.2,0 0,0.1 -0.1,0.1 -0.199,0.1 -0.301,0 -0.5,0.1 -0.601,0.1 -2.3,0.4 -4.2,0.3 -5.899,-0.3 -0.101,-0.1 -0.301,-0.2 -0.4,-0.2 -5,-2.6 -8.1,-6.8 -9.4,-12.6 3.801,-4.8 8.801,-2.2 15,7.8 4,-8.6 1.801,-15.3 -6.6,-20.3 -4.9,-2.9 -8.9,-5.8 -11.7,-8.8 l -0.2,-0.2 c -0.199,-0.3 -0.5,-0.5 -0.6,-0.7 -0.9,-0.9 -1.6,-1.9 -2.2,-3 0.601,1.1 1.3,2.1 2.2,3 0.1,0.2 0.4,0.4 0.6,0.7 l 0.2,0.2 c 2.3,2.4 5.101,3.8 8.2,4.4 1.1,0.2 2.1,0.3 3.1,0.3 3.101,-0.2 5.7,-1.5 7.9,-3.9 2.8,-3.4 3.4,-6.8 1.8,-10.4 -1.8,4.1 -4.7,6.3 -8.7,6.5 -3,0.1 -5.5,-0.9 -7.199,-2.9 -0.7,-0.7 -1.301,-1.5 -1.7,-2.5 -1.799,-3.7 -3.499,-9.3 -4.899,-16.5 z m -77.5,-19.3 c 0.4,0.2 0.7,0.4 1,0.6 5,3 9.2,6.3 12.7,10.1 l 0,0 5.3,-2 -5.3,2 0,0 -10.7,1.4 c -0.5,0.1 -0.9,0.1 -1.4,0.2 -1.3,0.1 -2.6,0.1 -3.8,0 -0.8,-0.1 -1.5,-0.1 -2.2,-0.3 -2.7,-1.1 -4.2,-3 -4.5,-5.7 -0.4,-2.6 0.7,-5.1 3.2,-7.2 -0.5,0 -1.1,0 -1.6,0 -1.3,0.1 -2.6,0.3 -4,0.6 -0.1,-2.7 1.4,-4.8 4.7,-6.3 -3.3,1.5 -4.8,3.6 -4.7,6.3 1.4,-0.3 2.7,-0.5 4,-0.6 0.5,0 1.1,0 1.6,0 1.9,0 3.8,0.3 5.7,0.9 l 0,0 z m 11.9,36.2 c -3.6,-3.5 -7.9,-6.2 -12.6,-8.1 -4.1,-1.3 -8.2,-1.7 -12.5,-0.9 4.3,-0.8 8.4,-0.4 12.5,0.9 4.7,1.9 9,4.6 12.6,8.1 z m 32.1,-25.5 c -0.3,0.1 -0.5,0.2 -0.7,0.3 -2.199,1.1 -4.1,1.5 -5.6,1.4 1.5,0.1 3.4,-0.3 5.6,-1.4 0.2,-0.1 0.4,-0.2 0.7,-0.3 1.9,-1 4,-2.6 6.101,-4.6 -2.101,2 -4.201,3.6 -6.101,4.6 1.9,1.3 3.7,3 5.2,5.1 -0.6,3 -1.8,5.3 -3.6,6.7 1.8,-1.4 3,-3.7 3.6,-6.7 -1.5,-2.1 -3.3,-3.8 -5.2,-5.1 z m -21.3,45.6 c -0.7,-3.2 -2,-6.5 -3.8,-9.9 1.8,3.4 3.1,6.7 3.8,9.9 0.7,5.3 -2.4,10 -9.4,14 7,-4 10.1,-8.7 9.4,-14 z"
         id="path3415" />
      <path
         d="m -324.2896,67.4689 c 0.4,-2.4 1.9,-4.3 4.4,-5.9 -1.9,-0.6 -3.8,-0.9 -5.7,-0.9 -2.5,2.1 -3.6,4.6 -3.2,7.2 0.3,2.7 1.8,4.6 4.5,5.7 0.7,0.2 1.4,0.2 2.2,0.3 -1.9,-2 -2.6,-4.2 -2.2,-6.4 z"
         id="path3417" />
      <path
         d="m -306.1896,72.2689 c -3.5,-3.8 -7.7,-7.1 -12.7,-10.1 l 0.6,11.7 c 0.5,-0.1 0.9,-0.1 1.4,-0.2 l 10.7,-1.4 z"
         id="path3419" />
      <path
         d="m -263.1896,234.3689 c 1.5,-2.7 3.2,-5.3 5.3,-7.8 -2.5,-0.3 -5,-0.8 -7.399,-1.5 l -2.5,0.3 c -3.4,3.9 -8.4,6.6 -15,8.2 -2.9,3.3 -3.101,6.7 -0.601,10.2 4.601,5.1 10,8.3 16.101,9.3 0.099,-6.2 1.399,-12.4 4.099,-18.7 z"
         id="path3421" />
      <path
         d="m -351.9896,109.0689 -0.2,0 -1.8,-2.9 c -7.8,0.1 -15.1,0.1 -22.1,0 -4.4,-0.5 -8.6,-3.8 -12.7,-10 -2,2.4 -2.7,5.4 -2,9.1 1.9,6 5.6,9.7 11,11.3 7.2,2.3 14.8,3.3 22.7,3.1 0.3,-0.1 0.6,-0.1 0.9,-0.1 l 3.3,-8.4 5.2,7.8 c 8.5,-0.4 17,-0.2 25.6,0.5 5.2,0.5 9.1,2.4 11.6,5.8 3.399,-3.4 3.399,-7.8 0,-13.1 -1.1,-1.5 -2.4,-2.9 -3.8,-4.3 -5.9,-1.4 -11.5,-2.2 -17.1,-2.2 -5.4,0.2 -11.2,0.2 -17.4,-0.1 l -3.2,3.5 z"
         id="path2400"
         style="fill:#003d8f" />
      <g
         id="Teeth"
         style="fill:#003d8f">
        <path
           d="m -347.5896,96.0689 c -3.3,-0.2 -6.9,-0.2 -10.8,-0.1 l -0.3,0.1 4.7,10.1 1.8,2.9 0.2,0 3.2,-3.5 1.2,-9.5 z"
           id="path3427" />
        <path
           d="m -347.6896,118.9689 -5.2,-7.8 -3.3,8.4 -1,3.6 c 5,-0.2 9.4,0.2 13.2,1.3 l -3.7,-5.5 z"
           id="path3433" />
      </g>
      <path
         d="m -511.44678,274.10231 c 0.20125,-3.82745 -0.89939,-7.84584 -3.42029,-12.07253 -2.2559,-1.44733 -4.54637,-1.58024 -6.77395,-0.28294 0.11179,2.35088 -0.98085,4.62662 -2.99945,6.66506 -4.70589,2.05035 -9.79485,3.02951 -15.54534,3.09966 -2.74274,1.42474 -3.68928,3.01141 -2.64468,4.9916 4.31653,0.93754 7.67935,2.34421 10.01185,4.00577 l 7.13587,-0.27297 -7.13587,0.27297 c 0.93997,0.74686 1.76159,1.47634 2.30477,2.368 2.39569,4.8173 3.37799,8.81833 2.87027,11.78885 3.31392,0.486 6.4955,0.44511 9.84402,-0.3833 7.01722,-2.01586 13.15023,-4.4659 18.39899,-7.35011 -5.10355,-2.98145 -9.20481,-7.23689 -12.04619,-12.83006 z"
         id="path3445" />
      <path
         d="m -307.2896,335.7689 c -1.5,0.6 -2.8,1.4 -3.8,2.4 -2.1,1.5 -3.5,4.1 -4.2,7.8 12,0.2 19.2,5.101 21.7,14.8 0.101,0.101 0.101,0.2 0.2,0.4 0.3,-4.6 1.601,-8.8 3.7,-12.7 0,-0.2 0,-0.2 0.2,-0.3 -3.601,-5.9 -7.8,-10.5 -12.7,-13.7 -1.9,0.2 -3.6,0.7 -5.1,1.3 z"
         id="path3461" />
      <g
         id="Claws"
         style="fill:#003d8f">
        <path
           d="m -521.64102,261.74684 c 0.0903,-1.00174 -0.19525,-1.95712 -0.50172,-2.81406 -6.6073,-2.79597 -13.62508,-4.23117 -21.33188,-4.14343 -7.80424,-0.0281 -12.7537,2.59555 -15.18254,7.72032 -2.31048,5.14212 -1.81562,8.56417 1.72131,10.30087 3.33394,-4.78903 7.5664,-6.90878 12.91322,-6.22615 4.27479,1.13442 5.52123,2.73821 3.83682,4.92717 l 0,0 c 5.75049,-0.0701 10.83945,-1.04931 15.54534,-3.09966 2.0186,-2.03844 3.11124,-4.31418 2.99945,-6.66506 z"
           id="path3447"
           style="stroke-width:0.54801726" />
        <path
           d="m -549.5455,295.51371 c -1.83108,-0.57303 -2.86853,-1.43567 -2.97317,-2.66902 -6.06382,-0.17879 -11.02727,1.93527 -14.84864,6.14531 -3.02061,5.03797 -3.40968,9.75138 -1.16723,14.14022 1.07292,4.72481 4.13672,8.11762 9.19138,10.1784 -1.45572,-4.07046 -1.28933,-8.30904 0.5966,-12.59991 1.71214,-2.89539 4.25305,-3.94373 7.54611,-3.35928 2.17212,0.11554 4.14929,-4.8e-4 5.67388,-0.2844 3.46689,-0.81105 4.79622,-3.05207 4.06465,-6.50884 -0.0769,-1.93977 -2.76448,-3.6534 -8.08358,-5.04248 z"
           id="path3449"
           style="stroke-width:0.54801726" />
        <path
           d="m -509.65332,341.05034 c 0.31961,-3.81009 -1.97832,-6.78608 -6.65704,-8.89323 -4.96383,-1.33798 -8.57013,-0.44486 -10.65819,2.49688 -2.15755,3.84506 -2.57465,7.53936 -1.36966,11.06556 1.43493,5.8954 4.78453,10.2426 10.02731,13.14298 2.51347,1.3836 5.07554,1.96234 7.7628,1.95044 4.70616,-0.3248 8.07536,-1.25066 10.01069,-2.89634 -5.18675,-0.86216 -8.7794,-2.91153 -10.89636,-6.16548 -1.10751,-3.41039 -0.59292,-6.98892 1.78045,-10.70081 z"
           id="path3451"
           style="stroke-width:0.54801726" />
        <path
           d="m -307.3896,573.4689 c -3,2.8 -5,6 -6,9.601 -1,4.6 -1.1,8.899 -0.2,13 1.6,4.699 5.3,8 11.2,9.899 -2.3,-3.8 -3.1,-8 -2.3,-12.8 2.2,-5.2 5.8,-8.7 10.8,-10.4 0.101,-0.3 0.2,-0.5 0.3,-0.699 1,-2.5 1.2,-5.2 0.7,-8 -1,-2.801 -2.7,-4.5 -5,-5.2 l -0.1,0 c -3.5,0.799 -6.6,2.399 -9.4,4.599 z"
           id="path3467" />
        <path
           d="m -468.9896,455.6689 c 0,-0.2 -0.1,-0.3 -0.2,-0.5 -3.6,-3 -8.2,-4.3 -13.6,-3.8 -7.9,0.6 -13.4,2.6 -16.4,5.8 -3.7,3.7 -5.1,7.4 -4.2,11.1 5.4,-4 11.3,-6 17.9,-5.899 4.2,2.1 5.4,4.6 3.4,7.399 l 2.1,-0.699 c -0.5,0.1 -0.9,0.3 -1.3,0.5 4.3,-1.101 7.4,-1.7 9.4,-1.7 7.9,0.7 8.9,-3.3 3.1,-12 -0.1,-0.101 -0.1,-0.201 -0.2,-0.201 z"
           id="path3469" />
        <path
           d="m -456.5896,534.4689 c 1.3,-0.7 1.6,-2.1 0.7,-4.1 -2.9,-4.5 -7.3,-7.5 -13.4,-8.9 0,0 -0.1,-0.1 -0.1,-0.2 -4.7,5.7 -7.1,12 -7.1,19 0.9,10.301 7,14 18.2,11 -4.8,-3 -6.8,-7.3 -6,-13 1.5,-3.5 4,-4.699 7.4,-3.699 0.1,0 0.1,0 0.2,0 0,-0.101 0,-0.101 0.1,-0.101 z"
           id="path3471" />
        <path
           d="m -506.3896,499.6689 c -1,6 -0.6,11.1 1.1,15.6 2.9,4.7 6.8,7.2 11.5,7.2 -2.1,-2.6 -2.9,-5.899 -2.4,-10.1 1.2,-2.7 3.4,-4 6.5,-3.8 0,-0.2 0.1,-0.4 0.2,-0.5 3.2,-2.601 5.1,-5.301 5.7,-8.4 -0.5,-4.5 -2.9,-9.1 -7.3,-13.8 -7.6,2.4 -12.7,7 -15.3,13.8 z"
           id="path3473" />
        <path
           d="m -277.6896,594.6689 c -0.4,5.3 0.3,10.5 2,15.5 1.4,3.3 3.5,5.7 6.1,7.5 4.5,1.7 7.9,2 10.4,0.7 2.8,-1.101 5,-2.3 6.5,-3.601 -4.1,0.4 -7.4,-0.6 -9.7,-2.899 -2.8,-3.601 -3.2,-7.2 -0.899,-10.7 l 2.199,-2.2 0.9,-0.7 c -1.6,-2.199 -3.7,-4.199 -6.5,-6 -2.4,-0.1 -4.7,0.2 -7.1,0.9 -1.301,0.3 -2.5,0.8 -3.801,1.4 10e-4,0 10e-4,0 -0.099,0.1 z"
           id="path3475" />
        <path
           d="m -228.4896,590.1689 0.1,0 c 2.4,0.6 3.9,1.9 4.4,3.8 0.899,2 1.1,3.9 0.399,5.601 -1.399,3.1 -4.3,4.6 -8.699,4.5 1,3.1 3.899,4.8 8.899,5.1 6.9,-1 10.5,-3.9 10.8,-8.8 0.801,-5.9 0.601,-11.8 -0.5,-17.8 -0.1,-0.2 -0.199,-0.301 -0.3,-0.301 -1.5,-1.8 -3.2,-2.699 -4.8,-2.8 -2.6,0.101 -5.1,1 -7.5,2.601 -2.399,2.299 -3.399,4.999 -2.799,8.099 z"
           id="path3477" />
      </g>
    </g>
  </g>
  <use
     transform="translate(156.25,-156.25)"
     id="use4755"
     x="0"
     y="0"
     width="312.5"
     height="312.5"
     xlink:href="#Deer" />
  <use
     transform="translate(-156.25,-156.24999)"
     id="use4767"
     x="0"
     y="0"
     width="312.5"
     height="312.5"
     xlink:href="#Smaland" />
</svg>
