<?xml version="1.0" encoding="UTF-8" standalone="no"?>
<!-- Created with Inkscape (http://www.inkscape.org/) -->

<svg
   xmlns:dc="http://purl.org/dc/elements/1.1/"
   xmlns:cc="http://creativecommons.org/ns#"
   xmlns:rdf="http://www.w3.org/1999/02/22-rdf-syntax-ns#"
   xmlns:svg="http://www.w3.org/2000/svg"
   xmlns="http://www.w3.org/2000/svg"
   version="1.0"
   width="312.5"
   height="312.5"
   id="svg4166">
  <defs
     id="defs4168" />
  <metadata
     id="metadata1880"><rdf:RDF><cc:Work
         rdf:about=""><dc:title>Gotlands läns vapenflagga</dc:title><dc:date>2012-01-19</dc:date><dc:creator><cc:Agent><dc:title>Lokal_Profil</dc:title></cc:Agent></dc:creator><cc:license
         rdf:resource="http://creativecommons.org/licenses/by-sa/2.5/" /><dc:rights><cc:Agent><dc:title>cc-by-sa-2.5</dc:title></cc:Agent></dc:rights><dc:format>image/svg+xml</dc:format><dc:type
         rdf:resource="http://purl.org/dc/dcmitype/StillImage" /></cc:Work><cc:License
         rdf:about="http://creativecommons.org/licenses/by-sa/2.5/"><cc:permits
         rdf:resource="http://web.resource.org/cc/Reproduction" /><cc:permits
         rdf:resource="http://web.resource.org/cc/Distribution" /><cc:requires
         rdf:resource="http://web.resource.org/cc/Notice" /><cc:requires
         rdf:resource="http://web.resource.org/cc/Attribution" /><cc:permits
         rdf:resource="http://web.resource.org/cc/DerivativeWorks" /><cc:requires
         rdf:resource="http://web.resource.org/cc/ShareAlike" /></cc:License></rdf:RDF>
  </metadata>
  <rect
     width="312.5"
     height="312.5"
     x="0"
     y="0"
     id="Flaggduk"
     style="fill:#003d8f" />
  <g
     transform="translate(28.55838,-371.7956)"
     id="Ram-and-flag"
     style="stroke:#003d8f">
    <g
       transform="translate(0.6444915,0)"
       id="Flag"
       style="fill:#ffcd50">
      <path
         d="m 120.3917,402.86612 0,12.09375 -12.90625,0 0,6.03125 12.90625,0 0,181.68679 6.0625,1.31523 0,-183.00202 12.90625,0 0,-6.03125 -12.90625,0 0,-12.09375 z"
         id="banner-pole-7" />
      <path
         d="m 120.43253,437.29951 118.8716,0 0,46.21117 -118.8716,0 z"
         id="banner" />
      <path
         d="m 239.20963,474.06306 -42.90209,0 m 42.90209,-9.19089 -42.90209,0 m 42.90209,-9.19088 -42.90209,0 m 42.90209,-9.19089 -42.90209,0"
         id="banner-lines"
         style="fill:none;stroke:#003d8f" />
      <rect
         width="67.703972"
         height="38.766037"
         x="126.10812"
         y="440.89371"
         id="banner-centre"
         style="fill:#d40000;stroke:none" />
      <path
         d="m 126.49765,583.22727 c -3.4614,0 -6.4162,-2.1774 -7.5696,-5.2365 m 1.4899,-62.89916 c 1.48,-1.8879 3.7841,-3.0999 6.3685,-3.0999"
         id="banner-ram-border"
         style="fill:none;stroke-width:2" />
    </g>
    <g
       transform="translate(-5.8478453,388.07507)"
       id="ram"
       style="fill-rule:evenodd;stroke:none">
      <g
         id="ram-hoofs"
         style="fill:#ffcd50">
        <path
           d="m 187.02,265.65 -15.74,0 2.9533,-5.3928 -6.0215,5.3928 -3.5633,0 12.537,-11.123 c 3.3577,3.3401 7.4271,5.9134 11.7,7.944 z"
           id="path12" />
        <path
           d="m 152.66,265.46 -15.739,0 2.9531,-5.3928 -6.0215,5.3928 -3.5633,0 12.809,-11.5 c 3.2701,3.4295 7.4989,6.0422 11.714,8.2092 z"
           id="path16" />
        <path
           d="m 59.126,265.44 3.5633,0 6.0215,-5.3926 -2.9531,5.3926 17.178,0 1.5893,-3.18 c -4.3243,-2.2105 -8.6803,-4.8824 -12.013,-8.421 z"
           id="path20" />
        <path
           d="m 138.8,217.46 -15.818,8.0779 c -2.3194,-3.9083 -5.6432,-7.3066 -9.0557,-10.304 l 2.4105,-2.7502 15.727,3.4838 -4.1121,4.338 7.1629,-3.6621 3.6849,0.81632 z"
           id="path28" />
      </g>
      <path
         d="m 73.818,77.988 c 1.757,-1.2499 3.906,-1.9846 6.2259,-1.9846 5.9399,0 10.757,4.8171 10.757,10.756 0,5.9397 -4.8171,10.757 -10.757,10.757 -4.4334,0 -8.5964,-2.888 -10.244,-6.9632 -1.0437,-2.5816 -1.2045,-5.55 -0.47575,-8.2572 1.2323,-4.5834 4.9408,-7.8485 9.8604,-8.2593 0.82734,-0.06904 3.2519,0.16245 3.349,-1.0124 0.0116,-0.13654 -0.02417,-0.28448 -0.18945,-0.578924 -0.16528,-0.294445 -0.76983,-0.702895 -1.51314,-0.853675 -0.74329,-0.15075 -1.2657,-0.2341 -1.7948,-0.29618 -5.4288,-0.62698 -10.201,0.86621 -14.084,4.4635 -1.5584,1.4441 -2.5091,2.0361 -0.51133,3.5995 0.39897,0.31194 0.86834,0.5796 1.4259,0.78789 l -0.17173,0.42102 c -1.3934,-0.44577 -2.3902,-1.2072 -3.1566,-2.1188 -1.6812,1.8051 -2.8375,3.2262 -0.05628,4.3533 0.49161,0.19958 1.0426,0.32896 1.668,0.36668 l -0.041,0.45293 c -1.5586,-0.02031 -2.7909,-0.5154 -3.8315,-1.2335 -1.7508,2.2316 -1.5234,3.1428 1.0938,4.0528 0.85016,0.29551 1.7968,0.38002 2.8862,0.11836 l 0.09322,0.44461 c -2.0411,0.59546 -3.759,0.16883 -5.2951,-0.57283 -0.9397,2.651 -0.67765,3.3407 2.1511,3.8746 1.1611,0.21989 2.3722,0.11584 3.6445,-0.63356 l 0.21931,0.398 c -2.166,1.4203 -4.3166,1.2532 -6.3224,0.78711 -0.40187,3.1285 0.05415,3.6625 3.1659,3.6681 1.4642,0.0039 2.8852,-0.37557 4.111,-1.7127 l 0.32606,0.31639 c -1.9131,2.3014 -4.4283,2.5716 -6.768,2.6483 0.47208,3.2624 1.1062,3.6598 4.3127,2.9887 1.7423,-0.36493 3.3544,-1.0925 4.2924,-3.0595 l 0.40458,0.20732 c -1.3162,3.1396 -4.1433,3.9936 -6.6013,4.814299 1.4319,3.1011 2.2026,3.2854 5.1915,1.7618 1.7257,-0.87975 3.2558,-2.054 3.6043,-4.388899 l 0.44732,0.08007 c -0.35836,3.564499 -3.0572,5.198599 -5.2331,6.769199 2.3606,2.616 2.9959,2.5673 5.4179,0.31253 1.4994,-1.3975 2.7679,-3.0108 2.3994,-5.475999 l 0.45119,-0.05434 c 0.71749,3.605999 -1.5164,5.990199 -3.1527,8.173799 2.3451,1.8189 3.1506,1.7421 4.6202,-0.64651 1.2242,-1.9871 2.3606,-4.1191 1.1321,-6.6847 l 0.41502,-0.18527 c 1.8162,3.367 0.19011,6.4062 -0.71885,9.0481 2.5882,1.2027 3.1862,0.89561 4.099,-1.664 0.78402,-2.1987 1.4534,-4.521 -0.28236,-6.7752 l 0.36726,-0.26746 c 2.4768,2.9152 1.5181,6.2265 1.1782,8.9992 2.723,0.72097 3.3036,0.21873 3.6642,-2.4774 0.30924,-2.3144 0.48174,-4.7254 -1.6864,-6.5696 l 0.30537,-0.33824 c 3.0295,2.337 2.7783,5.7774 3.0224,8.5602 2.7009,-0.0538 3.2744,-0.47536 3.0682,-3.1868 -0.17754,-2.3287 -0.50979,-4.7233 -3.0144,-6.076799 l 0.22859,-0.39414 c 3.4482,1.655599 3.9189,5.071399 4.7358,7.742299 2.6582,-0.6556 3.0995,-1.1907 2.2981,-3.895 -0.65174,-2.1935 -1.4976,-4.388899 -4.1713,-5.174999 l 0.14137,-0.4332 c 3.7153,0.90238 4.8873,4.141699 6.2402,6.583499 2.4675,-1.1223 2.7998,-1.7665 1.5071,-4.158199 -1.1085,-2.0531 -2.3874,-4.1017 -5.2234,-4.3193 l 0.04835,-0.45293 c 3.8215,0.11023 5.6415,3.0338 7.4726,5.141599 2.1987,-1.658699 2.3511,-2.343599 0.51849,-4.488099 -1.4878,-1.7388 -3.1533,-3.3999 -5.9161,-3.0311 l -0.04661,-0.45274 c 3.7629,-0.68694 6.1524,1.797 8.3825,3.4784 1.9204,-1.9243 1.8108,-2.7843 -0.42798,-4.4991 -1.8179,-1.3919 -3.793,-2.6719 -6.4195,-1.7363 l -0.13924,-0.43301 c 3.5381,-1.4549 6.3921,0.47865 8.923,1.6595 1.4166,-2.5383 1.1901,-3.1024 -1.3563,-4.3129 -2.0666,-0.98341 -4.2649,-1.8233 -6.6386,-0.36281 l -0.212,-0.382 c 3.1566,-2.1571 6.3493,-0.86176 9.0696,-0.23304 0.88362,-2.7009 0.52352,-3.2815 -2.2204,-3.9362 -2.2262,-0.53164 -4.5506,-0.89619 -6.5684,1.0263 l -0.30382,-0.33941 c 2.6402,-2.7667 6.0335,-2.1625 8.8255,-2.1132 0.21814,-2.8709 -0.21989,-3.3167 -2.9905,-3.3863 -2.2892,-0.05763 -4.6389,0.06633 -6.2139,2.3671 l -0.36726,-0.26862 c 2.0076,-3.2564 5.4529,-3.3676 8.1945,-3.9004 -0.27675,-2.8502 -0.85887,-3.2065 -3.6318,-2.6928 -2.2503,0.4187 -4.5233,1.03 -5.5846,3.6078 l -0.41541,-0.18643 c 1.2861,-3.6006 4.6312,-4.4274 7.2012,-5.5177 -0.78731,-2.7033 -1.5087,-2.9576 -4.1127,-1.8777 -2.1128,0.87782 -4.2063,1.9479 -4.7086,4.6879 l -0.445,-0.09612 c 0.50921,-3.7886 3.6072,-5.2928 5.8948,-6.893 -1.3963,-2.5261 -2.1113,-2.5679 -4.4127,-0.9836 -1.884,1.2971 -3.7085,2.7806 -3.6302,5.5649 l -0.45486,-0.0012 c -0.28951,-3.8122 2.4279,-5.9277 4.333,-7.9692 -1.8403,-2.0904 -2.5437,-2.1188 -4.4196,-0.15143 -1.6102,1.6903 -3.1643,3.5405 -2.495,6.306 l -0.44558,0.09322 c -1.0762,-3.6706 1.1447,-6.306 2.5836,-8.7 -2.3143,-1.7098 -2.9585,-1.5085 -4.4305,0.89696 -1.194,1.9533 -2.2602,4.0512 -1.0554,6.5653 l -0.41657,0.18353 c -1.8152,-3.3654 -0.19243,-6.4052 0.71749,-9.0452 -2.4959,-1.1814 -3.1713,-0.92926 -4.0522,1.5294 -0.80316,2.2378 -1.5328,4.6088 0.23904,6.9084 l -0.36958,0.2665 c -2.4751,-2.9143 -1.5207,-6.2248 -1.1797,-8.9959 -2.8359,-0.5504 -3.3177,-0.1816 -3.6822,2.617 -0.29667,2.2706 -0.4156,4.6213 1.7065,6.4276 l -0.30382,0.33786 c -3.0293,-2.3376 -2.7831,-5.7765 -3.027,-8.5602 -1.8717,-0.27249 -3.2662,0.44171 -3.0755,3.0446 0.17599,2.3728 0.47034,4.8379 3.0245,6.2188 l -0.22646,0.39433 c -3.4488,-1.6562 -3.9201,-5.0716 -4.7376,-7.7429 -0.802,-0.05763 -1.3721,0.25876 -1.7082,0.94898 0.55659,3.0452 1.4456,5.9917 2.6671,8.8387 2.8764,-1.0383 6.2047,-1.3607 9.2021,-1.0138 0.54498,0.06363 1.1064,0.15356 2.0949,0.35497 0.98853,0.20142 1.9106,0.87675 2.2317,1.4513 0.32103,0.57456 0.41522,0.98958 0.38118,1.3942 -0.17367,2.1221 -2.856,2.1428 -4.4415,2.253 -1.9171,0.13383 -4.1319,1.1441 -5.7676,2.4033 l 0.12822,0.19417 z"
         id="ram-horns"
         style="fill:#ffcd50" />
      <g
         id="ram-body"
         style="fill:#eeeeee">
        <path
           d="m 191.43169,203.12 c 4.818,-1.0372 8.4324,-5.323 8.4324,-10.451 0,-0.56955 -0.0454,-1.1304 -0.1315,-1.6758 0.9192,-0.23788 1.7893,-0.5943 2.5952,-1.0526 1.7647,4.0578 4.3713,7.552 8.3585,10.126 l -0.15568,7.8613 c -3.7886,4.9408 -5.908,12.968 -8.1846,21.377 -1.4151,5.2244 -2.9226,10.654 -3.6571,15.712 -0.5477,3.7679 -1.1408,7.4617 -1.8624,11.218 -0.31794,2.4412 -3.2196,2.4669 -3.7366,0.15684 -0.5005,-2.2339 -3.5194,-0.69834 -2.5518,1.404 0.69235,1.5048 0.68481,2.8851 -0.17715,3.5484 -4.5742,-2.0923 -8.9866,-4.818 -12.484,-8.4566 0.68036,-3.6416 5.4589,-5.2737 7.6776,-7.8135 1.7286,-1.2664 3.4494,-6.5576 5.98417,-15.25482 C 194.0735,221.122 195.6078,215.203 191.43169,203.12 z"
           id="path14" />
        <path
           d="m 169.3158,206.274 c 1.8349,1.4818 4.1696,2.3689 6.7112,2.3689 4.1789,0 7.7965,-2.4018 9.5546,-5.8981 0.85344,0.30421 1.7576,0.50495 2.6955,0.58328 l 0.20713,3.781 c -4.385,6.8436 -9.0909,15.403 -13.982,23.613 -3.3474,5.6175 -7.1504,10.722 -9.6194,15.64 -1.6315,3.2504 -0.65618,6.5588 -1.9763,9.5372 -0.8931,2.3287 -3.1877,2.787 -3.4339,0.43301 -0.23845,-2.2766 -3.4148,-1.1008 -2.6973,1.0992 0.23807,0.73006 0.63434,3.1312 -0.34482,3.7228 -4.4738,-2.2378 -9.0853,-4.9691 -12.484,-8.6824 -1.0093,-3.6024 7.2221,-7.1755 8.9965,-8.7851 1.8634,-1.0579 5.5156,-5.5982 8.64529,-12.0642 3.1297,-6.46599 6.5894,-15.38259 7.7275,-25.34859 z"
           id="path18" />
        <path
           d="m 86.1456,217.1568 c 0.30421,1.3969 0.61403,2.8234 0.26746,4.2804 -1.1956,5.0298 -2.8874,9.9258 -3.9628,14.981 -1.2894,6.0598 -3.6714,9.0004 -6.738,11.102 -1.705,1.1687 -2.5963,2.6489 -2.634,4.5045 3.2771,3.7656 7.8079,6.5439 12.26,8.813 0.60803,-1.1704 0.52313,-2.7212 0.05492,-4.6736 -0.62718,-2.6158 2.1122,-4.2661 3.2602,-1.9728 0.92752,1.8533 3.4776,1.8144 3.2436,-2.3907 0.26708,-16.23 3.3873,-30.676 9.3634,-43.339 l 3.9197,-9.7333 c -0.47865,0.0652 -0.96445,0.10075 -1.4605,0.10075 -1.8392,0 -3.5693,-0.46704 -5.0807,-1.2855 -1.8738,3.0908 -5.2712,5.1592 -9.1485,5.1592 -0.66121,0 -1.3079,-0.0615 -1.9357,-0.17599 0.10405,2.9259 -0.06904,5.8368 -0.77639,8.18782 -0.70735,2.35102 -1.07344,4.41902 -0.63269,6.44222 z"
           id="path22" />
        <g
           id="ram-fr-leg">
          <path
             d="m 71.837,215.5113 c -1.8003,-0.0174 -3.2394,-0.66489 -3.888,-2.7042 -0.39568,-1.2257 -0.79156,-2.4515 -1.1878,-3.6778 -0.93583,-1.4058 -0.68307,-2.8118 0.10791,-4.2191 0.6293,-1.3874 1.1809,-2.7744 1.6787,-4.162 1.7788,1.3218 3.9804,2.1035 6.3663,2.1035 2.8555,0 5.4506,-1.1223 7.3689,-2.9477 0.92597,0.84591 1.9993,1.5323 3.1796,2.013 0.05531,1.3497 0.05376,2.6961 -0.04061,4.0392 l -2.3534,0.90122 c 0.67978,0.49818 1.3727,0.98012 2.0738,1.4429 -0.23672,1.2565 -0.61615,2.4553 -0.8989,3.7101 -0.59275,2.6151 -0.1377,4.5858 0.140355,7.03959 C 80.4248,217.5398 76.246,216.4088 71.837,215.5113 z"
             id="path24" />
          <path
             d="m 118.108,229.3423 c -3.8385,0.78924 -4.8778,3.7277 -7.9862,3.7749 -3.6039,0.0543 -7.0593,-2.2575 -10.208,-4.953 -0.87646,-0.75057 -1.7651,-1.4621 -2.6692,-2.1353 0.92056,-3.6702 2.0355,-7.2126 3.3436,-10.632 1.6166,0.48735 3.2633,0.91882 4.9414,1.3008 0.64033,0.14543 1.2768,-0.0996 1.944,-0.54092 1.3491,-0.89252 2.1132,0.28235 1.2959,2.1637 -0.88594,2.0382 2.2958,2.5667 3.2399,0.10791 0.24987,-0.65231 0.59856,-1.2607 0.92868,-1.8775 3.3753,2.9696 6.6727,6.3542 8.88196,10.25905 -0.81868,1.31806 -2.20224,2.22136 -3.71204,2.53236 z"
             id="path26" />
        </g>
        <path
           d="m 197.2661,192.671 c 0,4.4647 -3.6215,8.086 -8.0862,8.086 -1.9423,0 -3.7261,-0.68674 -5.1201,-1.8287 -0.48464,4.0025 -3.8928,7.1068 -8.0257,7.1068 -3.9576,0 -7.2529,-2.8468 -7.95,-6.603 -1.4814,1.8672 -3.7691,3.0666 -6.3368,3.0666 -4.1235,0 -7.529,-3.0908 -8.0251,-7.0806 -1.4829,1.7032 -3.6642,2.7816 -6.0989,2.7816 -3.8812,0 -7.1256,-2.7383 -7.9067,-6.3872 -1.4698,2.0229 -3.8528,3.3397 -6.5433,3.3397 -3.4614,0 -6.4162,-2.1774 -7.5696,-5.2365 -1.3371,2.622 -4.0617,4.4202 -7.2061,4.4202 -2.9336,0 -5.504,-1.5657 -6.9218,-3.9042 -0.98998,3.3467 -4.0868,5.7918 -7.7538,5.7918 -2.513,0 -4.7594,-1.1492 -6.243,-2.9483 -0.60745,3.8642 -3.952,6.8218 -7.9862,6.8218 -3.1796,0 -5.9331,-1.8392 -7.2538,-4.509 -1.2911,2.751 -4.0835,4.6581 -7.3223,4.6581 -4.0557,0 -7.4161,-2.9893 -7.9978,-6.8837 -1.4752,1.5694 -3.5683,2.5513 -5.891,2.5513 -4.4645,0 -8.086,-3.6213 -8.086,-8.086 0,-0.93197 0.15684,-1.8272 0.44674,-2.6603 -0.73954,0.2226 -1.523,0.34424 -2.3348,0.34424 -4.4645,0 -8.086,-3.6215 -8.086,-8.086 0,-2.0316 0.75172,-3.8907 1.9894,-5.311 -4.3073,-0.17831 -7.7472,-3.7267 -7.7472,-8.0779 0,-3.0222 1.6611,-5.6591 4.1187,-7.0471 -3.2268,-1.0625 -5.5583,-4.099 -5.5583,-7.6804 0,-3.623 2.3863,-6.6918 5.6713,-7.7197 -2.2351,-1.439 -3.7174,-3.9476 -3.7174,-6.8021 0,-3.4772 2.1983,-6.4447 5.2797,-7.5861 -2.4691,-1.3843 -4.1406,-4.0249 -4.1406,-7.0566 0,-2.4927 1.1288,-4.7215 2.9034,-6.2045 1.65,-1.3739 2.4783,-4.4372 1.9351,-6.8723 -1.0153,-4.5546 -6.8115,-4.1829 -10.398,-3.8928 -3.5764,0.76372 -6.8788,0.89735 -8.513,-2.8309 5.9447,0.0174 9.719,-4.7579 14.68,-3.9394 1.1244,0.18527 1.7877,-2.833 0.20828,-3.0053 -5.0511,-0.55137 -10.902,5.0381 -15.52,4.9362 -1.8995,-0.92597 -4.022,-1.1464 -3.1916,-5.6307 0.36455,-0.63162 0.6792,-1.2861 0.95169,-1.9587 1.9742,0.32935 4.0632,0.50921 6.3532,-0.98128 1.5694,-1.0174 1.0722,-3.0618 -0.40632,-2.6304 -1.4949,0.43262 -3.537,1.1929 -5.1042,1.0697 0.17812,-0.65638 0.33283,-1.324 0.47691,-1.9956 10.202,-11.792 25.546,-18.806 42.83,-23.43 0.60262,3.004 1.4862,5.9179 2.683,8.7464 -1.6966,0.80645 -5.5719,3.2614 -6.6646,5.4021 -1.1149,1.1956 -2.657,2.5661 -2.657,4.3237 -0.9018,1.149 -2.0755,2.6686 -1.4907,4.2377 -0.46859,1.3205 -1.1468,2.9481 -0.42972,4.3071 -0.20945,1.6309 -0.70279,3.672 0.55968,5.0534 0.25006,1.7378 0.31639,4.1549 2.0842,5.1553 0.81748,1.7696 1.6589,4.3386 3.8211,4.7364 1.3545,1.5021 3.0634,3.9609 5.3526,3.502 1.5334,1.1892 3.5749,3.0831 5.6032,1.9396 1.6903,0.78556 3.9729,2.1111 5.622,0.59584 1.7756,0.46879 4.1849,1.2867 5.4963,-0.48561 1.8036,-0.0362 4.3017,0.17754 5.2721,-1.6885 1.7131,-0.30866 4.2968,-0.77725 4.8515,-2.7822 1.6709,-0.7318 4.0963,-1.5502 4.2092,-3.6882 0.56897,-0.42972 1.2455,-0.87762 1.8386,-1.3946 3.4766,0.90508 6.0445,4.0632 6.0445,7.8228 0,1.587 -0.4595,3.0666 -1.2499,4.3154 0.23188,-0.0197 0.46704,-0.0302 0.70434,-0.0302 4.4647,0 8.086,3.6215 8.086,8.086 0,0.31523 -0.0197,0.62505 -0.0547,0.93099 1.0689,-0.52081 2.2706,-0.81244 3.5397,-0.81244 3.7312,0 6.8717,2.5277 7.8033,5.9648 1.48,-1.8879 3.7841,-3.0999 6.3685,-3.0999 3.1005,0 5.7922,1.7454 7.149,4.3082 1.3569,-2.5629 4.0518,-4.3082 7.1525,-4.3082 2.9247,0 5.4852,1.553 6.9057,3.8795 1.3157,-2.6833 4.0764,-4.5302 7.2658,-4.5302 3.0738,0 5.7469,1.7158 7.1146,4.2425 1.3454,-2.5979 4.0601,-4.373 7.1869,-4.373 3.5169,0 6.5083,2.2461 7.6213,5.3824 1.4779,-1.927 3.805,-3.1688 6.4205,-3.1688 4.4645,0 8.086,3.6215 8.086,8.086 l -10e-4,0.0818 c 1.2101,-0.72194 2.6249,-1.1354 4.1357,-1.1354 4.4645,0 8.086,3.6215 8.086,8.086 0,1.3102 -0.31408,2.5458 -0.86718,3.6401 0.10636,-0.004 0.21486,-0.006 0.32219,-0.006 4.4647,0 8.086,3.6215 8.086,8.086 0,2.5261 -1.1609,4.7803 -2.9761,6.2633 3.0409,1.1621 5.2031,4.1088 5.2031,7.5569 0,4.1088 -3.069,7.5018 -7.0374,8.017 0.90798,1.307 1.4419,2.8957 1.4419,4.6072 0,4.4645 -3.6215,8.086 -8.086,8.086 -0.26707,0 -0.53183,-0.0135 -0.79272,-0.0395 1.1774,-1.717 1.8676,-3.7942 1.8676,-6.0331 0,-2.2683 -0.70879,-4.3692 -1.9142,-6.0998 2.4252,-1.9602 3.9789,-4.9596 3.9789,-8.3194 0,-3.9182 -2.1119,-7.3428 -5.2568,-9.2038 0.7204,-1.4385 1.1283,-3.0628 1.1283,-4.7803 0,-5.9026 -4.7875,-10.69 -10.69,-10.69 l 0,2.604 c 4.4647,0 8.086,3.6213 8.086,8.086 0,2.3809 -1.0312,4.5227 -2.6692,6.0022 3.8518,0.61789 6.7978,3.9565 6.7978,7.982 0,3.6114 -2.371,6.6727 -5.64,7.7098 2.1562,1.4528 3.5755,3.9153 3.5755,6.7094 0,4.7854 -4.2065,8.5264 -8.92269,8.04418 0.66324,1.17618 1.046,2.53518 1.046,3.98138 z"
           id="path3061" />
        <path
           d="m 79.8414,96.1518 c -4.8006,0 -8.7789,-3.4668 -9.4829,-7.9895 -0.41986,-2.7009 -0.12783,-5.6131 1.2745,-7.9725 2.3832,-4.0151 9.1019,-6.2101 13.376,-7.0769 4.4821,-0.90934 10.552,-1.0635 12.873,-0.85674 2.758,0.23246 4.3527,0.398 4.6471,1.2631 0.36668,1.2735 -3.0748,6.4079 -4.0802,7.824 -2.4325,3.4279 -5.3543,5.908 -9.12125,6.78772 C 88.6372,92.6692 84.6529,96.1518 79.8414,96.1518 z"
           id="path48" />
      </g>
      <path
         d="m 103.15,75.653 c 1.8326,-3.6992 -1.603,-4.0754 -6.1542,-4.3982 -4.7442,-0.33612 -10.186,-0.62118 -14.871,0.97084 0.13093,0.11778 0.23014,0.24116 0.30189,0.369 l 0.0012,-5.81e-4 c 0.08161,0.1464 0.11739,0.29435 0.10579,0.43088 -0.09708,1.1749 -2.5217,0.94338 -3.349,1.0124 -0.30208,0.02533 -0.59856,0.0615 -0.89135,0.10811 -1.797,1.3327 -3.8023,3.1883 -5.7496,2.735 0.05879,0.59817 1.8295,1.8167 3.3896,1.2849 1.3688,-0.48174 3.5376,-2.2745 4.9464,-2.9701 3.496,-1.7148 12.917,-2.0382 15.884,-1.7986 2.6166,0.19958 4.129,0.34153 4.408,1.0844 0.34811,1.0942 -2.9164,5.5034 -3.8702,6.7193 -2.882,3.6756 -6.4853,6.0867 -11.474,6.13 -3.2086,0.02804 -4.9635,-1.0389 -7.0775,-3.2848 0.15742,1.0838 0.25663,1.9088 0.38776,2.0436 2.2629,2.0707 4.4573,2.7768 6.6771,3.1281 8.7756,1.3897 14.057,-6.9485 17.335,-13.564 z m -8.414,1.4901 c 0,0 -5.7546,0.80201 -9.1709,1.5388 -1.523,0.34482 -7.2627,1.7071 -4.047,4.4958 0,0 -1.5541,-0.33728 -2.4159,-1.1169 -1.2039,-1.0913 -0.50708,-3.0864 0.86994,-3.71385 C 84.5665,76.2626 89.8769,76.6848 94.736,77.1431 z"
         id="ram-ear"
         style="fill:#003d8f" />
      <path
         d="m 54.5,70.0625 c -2.4616,0.2166 -4.90902,1.88395 -5.5625,4.34375 l -4,2.59375 0.25,0.75 5,-1.625 c 0.65176,1.719478 2.884915,2.551553 5.0625,1.84375 2.179306,-0.70813 3.487833,-2.693167 3,-4.46875 l 2.21875,-0.71875 C 59.69365,71.20025 56.9696,69.84532 54.5,70.0625 z M 52.09375,72 c 0.693104,-0.07794 1.370013,0.34266 1.59375,1.03125 0.25604,0.7876 -0.18052,1.6189 -0.96875,1.875 -0.78696,0.25562 -1.65085,-0.18115 -1.90625,-0.96875 -0.25625,-0.78696 0.18158,-1.619 0.96875,-1.875 0.09842,-0.03195 0.213485,-0.05137 0.3125,-0.0625 z"
         id="ram-eye"
         style="fill:#003d8f" />
    </g>
    <path
       d="m 127.08696,603.82427 -6.06204,6.40107 0,36.77926 6.06204,0 z"
       id="Fake-pole"
       style="fill:#ffcd50" />
  </g>
</svg>
