<?xml version="1.0" encoding="UTF-8" standalone="no"?>
<!-- Created with Inkscape (http://www.inkscape.org/) -->

<svg
   xmlns:dc="http://purl.org/dc/elements/1.1/"
   xmlns:cc="http://web.resource.org/cc/"
   xmlns:rdf="http://www.w3.org/1999/02/22-rdf-syntax-ns#"
   xmlns:svg="http://www.w3.org/2000/svg"
   xmlns="http://www.w3.org/2000/svg"
   version="1.0"
   width="312.5"
   height="312.5"
   id="svg4166">
  <defs
     id="defs4168" />
<metadata
   id="metadata1880"><rdf:RDF><cc:Work
         rdf:about=""><dc:title>Hallands läns vapenflagga</dc:title><dc:date>2012-01-19</dc:date><dc:creator><cc:Agent><dc:title>Lokal_Profil</dc:title></cc:Agent></dc:creator><cc:license
         rdf:resource="http://creativecommons.org/licenses/by-sa/2.5/" /><dc:rights><cc:Agent><dc:title>cc-by-sa-2.5</dc:title></cc:Agent></dc:rights><dc:format>image/svg+xml</dc:format><dc:type
         rdf:resource="http://purl.org/dc/dcmitype/StillImage" /></cc:Work><cc:License
         rdf:about="http://creativecommons.org/licenses/by-sa/2.5/"><cc:permits
         rdf:resource="http://web.resource.org/cc/Reproduction" /><cc:permits
         rdf:resource="http://web.resource.org/cc/Distribution" /><cc:requires
         rdf:resource="http://web.resource.org/cc/Notice" /><cc:requires
         rdf:resource="http://web.resource.org/cc/Attribution" /><cc:permits
         rdf:resource="http://web.resource.org/cc/DerivativeWorks" /><cc:requires
         rdf:resource="http://web.resource.org/cc/ShareAlike" /></cc:License></rdf:RDF>
</metadata>
  <rect
     width="312.5"
     height="312.5"
     x="0"
     y="0"
     id="Flaggduk"
     style="fill:#003d8f" />
  <g
     transform="matrix(0.449484,0,0,0.449484,295.35469,12.796378)"
     id="lion"
     style="fill:#eeeeee;stroke:#003d8f;stroke-width:0.5">
    <path
       d="m -94.5896,36.7689 c -1.8,-1.8 -4,-3.2 -6.5,-4.4 -0.199,-0.1 -0.399,-0.2 -0.6,-0.2 -2.1,-1 -4.4,-1.7 -6.9,-2.2 -4.8,-0.5 -9.3,0.7 -13.5,3.5 -4,4 -5.1,7.6 -3.3,10.8 l 0.5,-0.2 c 1.7,-4.6 6.101,-7.3 13.2,-7.9 3.1,0.1 5.6,0.6 7.7,1.6 1.6,0.8 2.8,1.8 3.8,3.2 0.2,0.3 0.4,0.7 0.6,1 0.301,0.6 0.5,1.3 0.7,1.9 1.101,8 -0.8,14.2 -5.7,18.5 -6.1,5.6 -13.699,7.3 -22.699,5.2 -8.9,-2.2 -16.101,-1.2 -21.4,2.9 0,0 -0.1,0 -0.1,0.1 -4.101,3.9 -7.101,8.6 -9.101,14 2,-5.4 5,-10.1 9.101,-14 l 0.1,-0.1 c -1.9,-9 -6.6,-15.7 -14.1,-20.3 -5.2,-1.8 -11,-2.4 -17.301,-1.7 l -0.1,0 c -9,1.4 -14.4,5.8 -16.2,13.2 -1.2,5.5 0.3,10 4.601,13.8 2.699,1.7 5.699,1.9 9.1,0.4 -6,-2 -7.9,-5.5 -5.8,-10.5 1.5,-2 4.399,-3.1 8.6,-3.3 4,0.2 7.101,2 9.5,5.3 2.601,6 3.4,11.2 2.3,15.8 -0.5,1.8 -1.3,3.5 -2.3,5.1 -11.8,16.4 -18.8,34.6 -21.1,54.5 -1.2,15.7 -1.5,27.1 -0.8,34.3 0.199,2.5 0.5,5.2 0.8,8 0.7,5.3 1.6,11 2.8,17.3 1.8,9.7 6.5,23.7 14,41.8 3.7,9.6 8.5,16.8 14.6,21.6 1.801,1.3 3.5,2.5 5,3.9 5,4.4 7.801,9 8.5,13.7 -2.199,-5.1 -6.1,-8.2 -11.899,-9.3 -0.9,-0.3 -1.9,-0.5 -2.8,-0.6 -4.801,-0.6 -9.5,-0.1 -14.2,1.4 -3,0.3 -5.9,0.2 -8.4,-0.3 -5.3,-1 -9.6,-3.8 -13,-8 -3.3,-5.5 -1.899,-11.4 4.3,-17.4 -6.699,1.1 -11.3,4.7 -13.699,10.7 -1.601,5.6 -1.4,10.5 0.6,14.8 4.8,6.9 10.8,10.2 17.9,9.8 0.5,0 1,-0.1 1.5,-0.1 -0.5,0.3 -1,0.7 -1.5,1 -4.7,3.1 -10.4,5.4 -17.101,6.9 4.601,3.1 10.3,3.3 17.2,0.4 -9.8,7.2 -13.1,15.5 -10,24.7 4.5,9.9 11.8,14.5 22,13.8 l 0.1,0 c 0.101,0 0.301,0 0.5,0 0.9,-0.1 1.9,-0.3 2.9,-0.4 7.9,-3.2 11.4,-7.2 10.3,-12.2 l 0,0 c -3.1,4.5 -7.5,6.4 -13.399,5.8 -6.9,-2.2 -10.301,-6.9 -10.2,-14.3 0.899,-4.5 2.8,-7.9 5.6,-10.3 3.5,-3 8.3,-4.5 14.601,-4.6 15.3,1.4 24.8,6.8 28.6,15.9 3.3,9.7 3.8,18.7 1.5,27 -4.2,11.4 -13,20 -26.1,25.7 -8.301,2.801 -16,4.101 -23.301,3.9 -7.3,-0.2 -14.1,-1.8 -20.5,-5 -8,-5.3 -15.899,-10.3 -23.5,-14.8 -0.1,-0.101 -0.199,-0.2 -0.399,-0.3 -9.8,-6.7 -18,-16.101 -24.4,-28.101 -3.7,-6.9 -6.2,-13.8 -7.3,-20.9 -0.1,-0.1 -0.1,-0.2 -0.1,-0.3 -0.801,-8.6 -2.5,-17.2 -5.101,-25.7 l 0.5,-0.4 c 4,3.6 8,5.4 12.101,5.3 -6.7,-6 -11.301,-12.9 -13.9,-20.8 0,-0.6 -0.1,-1.3 -0.1,-1.9 l -0.804,0 c -3.5,1.9 -7.6,2.7 -12.5,2.5 -5.3,-0.6 -9.8,-2.4 -13.5,-5.4 -3.699,-3.1 -6.6,-7.5 -8.5,-13.3 -2.399,1.7 -4.899,3 -7.399,3.9 -0.1,0.1 -0.2,0.3 -0.3,0.6 -5,8.3 -11.9,14.5 -20.7,18.5 -2.2,0.9 -4.5,1.7 -6.8,2.5 1.6,-1.8 2.9,-3.5 3.9,-5.3 2.4,-4.2 3.1,-8.5 2.2,-12.7 -3.7,0.8 -6.9,2.3 -9.5,4.5 -1.1,0.9 -2.1,2 -3,3.1 -5.4,5.7 -5.5,11.8 -0.3,18.3 -3.9,0.5 -6.8,-0.5 -8.8,-3.1 -0.7,-0.8 -1.2,-1.8 -1.7,-3 -0.1,-0.3 -0.2,-0.5 -0.3,-0.7 -1.7,-5.6 -0.1,-11.3 5,-17 0.9,-1 1.9,-2 3,-2.9 -8.9,3.3 -13.9,8.6 -14.9,16.2 0.7,3.8 2.2,7.2 4.5,10.4 0.1,0.2 0.2,0.3 0.4,0.5 0.8,1.2 1.8,2.3 3,3.4 0,0.1 0.1,0.2 0.2,0.3 -7.3,-1.7 -13.2,-5.8 -17.5,-12.4 -2.3,-4.2 -2.6,-9.6 -0.7,-16.1 0,-0.1 0,-0.2 0.1,-0.3 0.5,-1.9 1.2,-3.9 2.1,-6 l -10.5,7.3 c -4.4,2.5 -9.7,3.6 -15.8,3.5 l -0.1,0 c -3.4,0.5 -6.5,1.2 -9.3,2.3 -5.3,2.1 -9.9,5.3 -13.6,9.7 -3,-2.2 -3.7,-5.3 -2.1,-9.4 0.9,-1.3 1.7,-2.5 2.6,-3.6 l -5,1.3 -34.7,34.2 c -1.6,1.5 -1.9,3 -0.9,4.3 -5.8,0.2 -10.2,1.9 -13.4,5.1 -1.3,1.6 -2.7,3 -4.3,4.4 -3.8,3.6 -8.4,6.9 -13.8,9.9 -2.6,1.3 -5.2,1.8 -8,1.8 -1.8,0 -3.6,-0.4 -5.4,-1 l -0.5,0 -7.4,-1.5 c -4.2,-0.3 -6.6,0.6 -7.4,2.7 -0.1,0.6 -0.1,1.1 0,1.6 0.3,1.2 1.3,1.9 2.9,2.2 4.6,0.6 7.1,1.9 7.5,3.8 1.2,3.3 0.5,5.7 -2.2,7 1.2,5.1 4.7,8.5 10.5,10.1 0.3,-4.6 2.4,-7.4 6.5,-8.7 l 5.4,6.3 6.4,-6.1 c 2.3,-2.9 3.1,-6.3 2.5,-10.2 0.6,3.9 -0.2,7.3 -2.5,10.2 l -6.4,6.1 c -2.7,3.8 -4.4,7.6 -5.1,11.4 l 2.7,5.4 c 1.2,-3.2 4,-4.601 8.3,-4 4.2,1.399 6.6,4 7,7.8 2.8,2.1 7.3,2.6 13.3,1.4 -2.8,-2.7 -4.7,-5.801 -5.5,-9.2 0,0 0,0 -0.1,-0.101 -0.3,-1.6 -0.5,-3.3 -0.5,-5 0,1.7 0.2,3.4 0.5,5 l 1.4,-0.199 c 4.1,-3 8.6,-3.801 13.3,-2.4 5.7,-5.8 8.9,-11.6 9.8,-17.3 0,0 0.1,0 0.2,-0.1 2.7,8.4 9.3,10.4 19.9,6 -8.1,0.7 -9.6,-2.1 -4.5,-8.3 0.2,0.1 0.4,0.1 0.5,0.1 4.9,-2 7.5,-4.8 7.7,-8.3 0,-0.4 0,-0.8 -0.1,-1.2 0.2,0.3 0.3,0.6 0.5,1 0,0 0,0 0,0.1 2.1,4.5 3.9,6.2 5.5,5.3 1,-7.9 3.3,-13.4 6.8,-16.9 -0.4,9.5 2.2,14.6 7.7,15.5 0.8,-5.5 1.8,-10.2 3.3,-14 0,-0.3 0.1,-0.4 0.2,-0.5 1.9,-5.2 4.4,-8.9 7.6,-11.2 0.3,4.3 -0.9,8.7 -3.7,13.1 5.3,-2.1 9.7,-5.4 13.2,-9.9 2.5,-4.2 3.7,-8.9 3.4,-13.9 5.7,10.5 5.5,20.4 -0.6,29.4 l 16.6,-13.1 c 1.7,-1.4 3.5,-2.7 5.3,-3.8 7.2,-4.5 15.1,-7 23.6,-7.3 -8.5,0.3 -16.4,2.8 -23.6,7.3 -1.8,1.1 -3.6,2.4 -5.3,3.8 1.2,7.8 0.1,13.6 -3.4,17.5 6.1,0.6 10.6,-3.1 13.5,-11.2 0.3,-0.7 0.5,-1.3 0.7,-2 -1.6,7.3 0,12.4 4.9,15.5 9.9,4.6 20.3,7.7 31,9.5 1.5,0.3 2.9,0.7 4.4,1.3 1,0.4 2.1,0.8 3.1,1.4 1.2,0.6 2.301,1.2 3.4,2 4.9,3.2 9.1,7.8 12.7,13.7 1.3,-3.3 1.1,-7.4 -0.4,-12 -2.2,-3.4 -4.7,-6.2 -7.3,-8.5 -1.7,-1.4 -3.4,-2.6 -5.3,-3.6 1.899,1 3.6,2.2 5.3,3.6 2.6,2.3 5.1,5.1 7.3,8.5 1.5,4.6 1.7,8.7 0.4,12 -0.2,0.1 -0.2,0.1 -0.2,0.3 -2.1,3.9 -3.4,8.101 -3.7,12.7 -0.2,0.7 -0.2,1.5 -0.2,2.3 -0.1,2.8 0.101,5.7 0.7,8.8 1.8,4.2 2.5,8.101 2.101,11.601 -0.4,3.3 -1.801,6.3 -4.101,9.1 -0.2,0.2 -0.399,0.5 -0.7,0.8 -7.8,6.801 -13.7,13.5 -17.6,20.2 -4.1,7.7 -6.6,15.4 -7.5,23 -0.6,7.9 -0.9,14.5 -0.9,19.8 0,2.9 -1,5.301 -3.1,7.4 -2.1,2 -5.3,3.5 -9.6,4.6 -3.9,1 -7.4,1 -10.4,0 -3.4,-1.3 -5.8,-3.399 -7.1,-6.199 -0.5,-1 -0.8,-2 -1.1,-3.2 -1,-5.4 1.1,-10.601 6.2,-15.8 -5.5,1.1 -10,3.6 -13.5,7.699 -2.4,5.101 -3.1,9.9 -1.8,14.101 0.1,0.5 0.3,0.899 0.5,1.399 2.1,5.4 5.3,9.301 9.3,11.601 7.8,2.899 15.7,3.3 23.8,1.1 0.1,-0.1 0.3,-0.1 0.4,-0.1 4.1,-2.2 7.5,-4.601 10.3,-7.4 0.2,-0.2 0.4,-0.399 0.6,-0.6 0.2,-0.2 0.3,-0.4 0.5,-0.5 1.3,-1.601 2.5,-3.2 3.5,-4.9 1.1,-2 2,-4.2 2.7,-6.5 -0.7,2.3 -1.6,4.5 -2.7,6.5 -2.3,6.7 -3.8,12.9 -4.4,18.5 0,0.101 0,0.101 0,0.2 3.5,-4.2 7,-7 10.399,-8.5 1.9,9.3 2.2,16.5 0.801,21.8 -1.9,6.601 -4.3,11.4 -7,14.2 1.2,0.2 2.4,0.1 3.6,-0.3 0.1,0 0.1,0 0.1,0 3.7,-1.101 7.4,-4.3 11.2,-9.601 3.5,-4.6 5.2,-10.1 5,-16.6 -0.2,-3.6 -0.6,-6.6 -1.399,-9.1 -0.301,-0.801 -0.601,-1.5 -0.9,-2.101 -0.5,-1 -1.1,-1.899 -1.7,-2.6 0.601,0.7 1.2,1.6 1.7,2.6 0.5,0.601 1,1.3 1.5,1.9 4.4,5.399 9.5,8.1 15.3,8 l 5.65,-1.24748 5.65,-1.65252 c -3.5,0.101 -6.5,-0.3 -9.3,-1.2 -3.8,-1.199 -7,-3.3 -9.7,-6.3 2.7,3 5.9,5.101 9.7,6.3 2.8,0.9 5.8,1.301 9.3,1.2 3.7,-2 6,-4.899 7.101,-8.8 -1.101,3.9 -3.4,6.8 -7.101,8.8 -2.3,1.2 -5.18921,1.50707 -8.5,2.39976 -0.56033,0.15108 -1.17205,0.25435 -1.8,0.30124 5.8,11.5 17.3,18.3 34.601,20.6 1.8,0.2 3.699,0.4 5.699,0.5 -2,-0.1 -3.899,-0.3 -5.699,-0.5 -8.9,12.2 -14.801,24.5 -17.5,36.801 -2,7.199 -3.5,14.699 -4.5,22.3 -0.7,0.899 -1.5,1.7 -2.5,2.399 -0.601,0.301 -1.301,0.7 -2,1 -1.9,0.801 -4.301,1.4 -7.101,1.601 -3.1,-0.2 -5.8,-1.601 -8.399,-4.101 -3.2,-0.5 -6.801,-0.5 -10.601,0 -2,0.801 -2.7,2.2 -2.1,4.101 l 0.1,0 c 2.3,0.7 4,2.399 5,5.2 0.5,2.8 0.3,5.5 -0.7,8 -0.1,0.199 -0.199,0.399 -0.3,0.699 l 0,0 c -1.3,4 -1.2,7.601 0.3,10.801 7.801,-1.5 12,-5.601 12.801,-12.301 0.8,3.801 2.5,5.9 5,6.301 0.199,0 0.199,0 0.399,0 l 0.101,0 c 2.199,-4.7 5.699,-8.5 10.3,-11.4 0.7,-0.4 1.399,-0.9 2.1,-1.2 0.7,-0.399 1.5,-0.7 2.2,-1.1 -0.7,0.399 -1.5,0.7 -2.2,1.1 -0.7,0.3 -1.399,0.8 -2.1,1.2 -4.601,2.9 -8.101,6.7 -10.3,11.4 l -0.103,0 0.101,0.3 -0.601,0.2 c -2.399,2.1 -3,4.199 -1.8,6.3 l 0.1,0.2 c 1.301,-0.601 2.5,-1.101 3.801,-1.4 2.399,-0.7 4.699,-1 7.1,-0.9 2.8,1.801 4.9,3.801 6.5,6 0.1,0 0.1,0.101 0.1,0.2 1,1.3 1.7,2.8 2.301,4.3 l 0.5,0.4 c 6.6,-1.2 9,-3.9 7,-7.9 -0.101,-0.199 -0.2,-0.3 -0.301,-0.5 -0.199,-0.399 -0.5,-0.8 -0.699,-1.199 l -3.802,-3.802 3.801,3.801 c 0.199,0.399 0.5,0.8 0.699,1.199 l 7.5,-4.8 c 2.4,-2.3 4,-4.899 5,-7.7 0.2,-4.199 -1.8,-7 -6,-8.6 4.2,1.6 6.2,4.4 6,8.6 -1,2.801 -2.6,5.4 -5,7.7 l 0.5,0.601 c 0.101,0.3 0.301,0.6 0.4,1 1,1.899 2.6,3.3 5.1,4.1 4.301,-1.6 7.2,-3.5 8.601,-5.5 -0.601,-3.1 0.399,-5.8 2.8,-8.1 2.4,-1.601 4.9,-2.5 7.5,-2.601 1.6,0.101 3.3,1 4.8,2.8 0.101,0 0.101,0 0.2,-0.1 2,-0.4 2.9,-1.3 2.6,-2.7 0.301,-2.5 0,-5 -0.8,-7.5 -0.2,-0.2 -0.2,-0.399 -0.3,-0.6 -0.4,-1.3 -1,-2.5 -1.8,-3.7 -0.2,-0.4 -0.4,-0.7 -0.7,-1 -0.1,-0.2 -0.3,-0.3 -0.4,-0.6 0,0 0,0 0,-0.101 -3.8,-3.2 -8,-5.6 -12.699,-6.899 4.699,1.3 8.899,3.699 12.699,6.899 0,0.101 0,0.101 0,0.101 0,0 0,0 0.101,0.1 0.1,0.1 0.2,0.3 0.3,0.5 0.2,0.1 0.4,0.2 0.6,0.3 0.9,0.601 1.801,1.101 2.7,1.5 0.3,0.2 0.8,0.4 1.2,0.5 3.1,1.3 8.7,0.8 16.7,-1.3 -6.9,-1.9 -10.9,-4.7 -12.101,-8.1 -1.699,-3.801 -2.399,-7.7 -2,-12 0,-0.5 0,-1 0,-1.7 -0.1,-0.8 -0.199,-1.601 -0.5,-2.601 -1,-1.399 -3.3,-2.899 -7.1,-4.399 3.8,1.5 6.1,3 7.1,4.399 0.9,0.601 1.7,1.301 2.5,2.2 2.9,3.2 5.4,7.8 7.4,14 4.1,-6.2 5.4,-12.6 4,-19.2 -0.1,0 -0.2,-0.1 -0.3,-0.199 -0.101,-0.7 -0.2,-1.301 -0.4,-2 -0.7,-2.5 -1.8,-4.7 -3.6,-6.601 -1.8,-2 -4.3,-3.7 -7.3,-5.1 3,1.399 5.5,3.1 7.3,5.1 1.8,1.9 2.899,4.101 3.6,6.601 0.2,0.699 0.3,1.3 0.4,2 0.1,0.1 0.2,0.199 0.3,0.199 4.5,2.101 9,2.7 13.5,1.5 5.2,-2.1 8.8,-4.5 10.8,-7.399 -3.1,0.399 -5.899,0.6 -8.399,0.399 -0.101,0 -0.101,0 -0.2,0 -4.2,-0.399 -7.8,-1.699 -10.8,-3.8 -0.301,-0.2 -0.5,-0.399 -0.7,-0.6 0,0 -0.101,-0.101 -0.101,-0.2 l -0.1,0 c -1,-0.9 -1.9,-1.8 -2.6,-2.8 -2.301,-2.9 -3.4,-6.2 -3.301,-10 l 0.301,-0.601 c 6.899,1.7 12.8,6.601 17.8,14.7 3,-6.6 -1.9,-15.6 -14.601,-27.2 5.301,1 9.101,2.801 11.601,5.601 2.1,-2.101 2.5,-4.601 1.1,-7.2 -2.3,-5.9 -6.399,-10.1 -12.399,-12.4 6.1,2.2 12,3.9 17.8,5.101 1.7,0.3 3.399,0.6 5,0.899 9.5,0 15.3,-3 17.2,-9 -2.5,0.9 -4.9,1.5 -7.101,2 -0.2,0 -0.3,0 -0.399,0 -0.101,0.101 -0.2,0.101 -0.2,0.101 -5.2,0.899 -9.3,0.6 -12.601,-0.9 -0.199,-0.2 -0.399,-0.3 -0.6,-0.399 -5.8,-2.801 -9.6,-6.9 -11.5,-12.4 3.8,-2.8 8,-3.4 12.6,-1.9 5.601,2.5 9.4,6 11.5,10.2 2.601,-6.6 0.5,-12.5 -6.3,-17.6 -0.5,-0.2 -1,-0.4 -1.399,-0.7 -7.7,-3.6 -15.9,-4 -24.7,-1 9,-3.8 15.8,-8.7 20.5,-14.5 1.6,-3.6 1.2,-6.7 -1.101,-9.2 -5.1,6.101 -12.6,10.101 -22.5,11.8 -6.1,0.101 -11.3,-1 -15.5,-3.5 8.301,-2.1 12.7,-6.899 13.2,-14.3 -0.3,0.3 -0.6,0.601 -0.8,0.9 -0.3,0.3 -0.6,0.5 -0.9,0.8 -3.8,3.5 -8.399,5.2 -13.699,5.2 -0.101,0 -0.2,0 -0.301,0 -0.3,0 -0.6,0 -0.899,0 -1.2,-0.101 -2.601,-0.2 -3.8,-0.5 -6.601,-3.5 -10.301,-8.4 -11.101,-14.5 3.9,4.8 9.101,7.3 15.5,7.6 3.8,-0.5 6.4,-1.8 7.9,-3.8 0.3,-0.4 0.6,-0.9 0.8,-1.3 -2.5,0.2 -4.9,0 -7.1,-0.7 -8.5,-2.7 -15.801,-12.3 -21.5,-28.8 0,-0.101 -0.101,-0.2 -0.101,-0.3 0,0 0,0 0,0.1 0.101,0 0.2,0.1 0.2,0.2 4.9,8 10.8,11.399 17.9,10.1 -3.4,-3.7 -6.101,-8.399 -8.2,-14.1 -2.101,-5.8 -3.4,-12.5 -4.2,-20.2 -0.2,-2.3 -0.4,-4.8 -0.4,-7.3 l 0,-5 c 0.801,0.8 1.601,1.7 2.5,2.5 1,1.1 2.2,2.1 3.301,3.1 10.199,8.299 22.899,12.199 38.199,11.599 0.101,0 0.301,0 0.4,0 0.2,0 0.4,0 0.6,0 0.2,0 0.301,0 0.5,0 0.101,0 0.301,0 0.5,0 18.2,0.3 34.301,-5.601 48.2,-17.9 15.9,-13.8 23.9,-34.6 24.101,-62.1 0.6,-4.9 2.3,-7.5 5.399,-8.2 2.4,-0.5 5.7,0.4 9.8,2.8 1.601,-6.6 -1.899,-10.3 -10.6,-11.3 l -0.1,0 c -0.2,0 -0.301,0 -0.5,0 -5.4,1 -9.4,3.6 -11.9,7.7 -0.4,0.7 -0.8,1.5 -1.1,2.2 0.3,-0.7 0.699,-1.5 1.1,-2.2 2.5,-4.1 6.5,-6.7 11.9,-7.7 0.199,-0.1 0.3,-0.1 0.5,-0.1 l 0,0 c 13.1,-14.4 18,-24.5 15,-30.1 -2,-4.6 -5.2,-7.6 -9.7,-9.2 6.2,6.9 3.7,13 -7.4,18.2 -10.1,3.4 -16.3,11.5 -18.6,24.2 -2.8,-10.5 -6.7,-18.5 -11.9,-23.9 -6.3,-6.3 -12.7,-15.8 -19,-28.6 -3.399,-8.6 -5.1,-16.5 -5,-23.6 0.101,-1.9 0.2,-3.5 0.5,-5 0,-0.1 0,-0.2 0,-0.2 0.9,-4.5 3,-7.8 6.2,-9.8 4.2,-2.8 9.2,-2.9 14.9,-0.2 2.199,2.4 2,4.7 -0.5,6.7 5.8,-0.6 8,-3 6.699,-7.2 -0.699,-1.1 -1.5,-2.1 -2.399,-3 -4.7,-4.9 -11.7,-6.3 -21.101,-4.5 -0.199,0.1 -0.399,0.2 -0.6,0.2 -0.3,0.1 -0.6,0.2 -0.9,0.4 -5.899,2.5 -9.399,7.5 -10.699,15.1 l 0,0.1 c -4.2,-16.2 -5.7,-33.5 -4.4,-52.1 0.8,-10.1 5,-20.1 12.6,-30.1 9.601,-9.3 17.7,-13.9 24.2,-13.6 6.5,0.2 12.7,2.3 18.7,6.2 5.9,4 8.5,11 7.7,21 -0.8,6.4 -4.8,11.4 -11.8,15 -0.301,0.1 -0.601,0.3 -0.9,0.5 -1.1,0.5 -2.5,1.1 -4.2,1.6 -0.7,0.2 -1.399,0.4 -2.2,0.6 -3.1,0.9 -6.199,-0.2 -9.399,-3.2 -2,-2.5 -2.5,-6.3 -1.5,-11.3 -6.3,7 -6.601,13.4 -1.101,19.4 4.4,4.9 10.101,5.8 17,2.9 1.5,-0.6 3.2,-1.5 4.9,-2.6 -1.7,1.1 -3.4,2 -4.9,2.6 -7.7,10.3 -4.2,16.3 10.4,17.9 1.5,0.1 3.1,0.3 4.9,0.3 -11,-1.4 -13.801,-5 -8.2,-10.8 0.8,-0.9 1.899,-1.9 3.1,-2.9 0.9,-0.7 1.9,-1.5 3,-2.2 17.2,-11.5 23.601,-26.4 19.3,-44.7 -3.899,-11.3 -11.399,-20 -22.3,-26 -1.899,-1 -3.8,-2 -5.8,-2.8 -3.9,-0.1 -7.7,0.1 -11.2,0.5 -3.3,0.8 -5.8,1.8 -7.7,3.1 1.9,-1.3 4.4,-2.3 7.7,-3.1 3.5,-0.4 7.3,-0.6 11.2,-0.5 2.3,0 4.7,0.2 7.2,0.4 5.7,0.2 10.6,-1.7 14.6,-5.7 6.7,-7.3 10.8,-15.5 12.101,-24.6 0.3,-6.1 -1.101,-12.2 -4.2,-18.5 0,-0.1 -0.101,-0.2 -0.101,-0.3 -0.399,-0.5 -0.8,-1.1 -1.199,-1.6 -0.2,-0.2 -0.301,-0.4 -0.4,-0.5 -0.501,-0.6 -0.901,-1.1 -1.401,-1.5 z"
       id="path3413" />
    <path
       d="m -242.3896,80.8689 c -1,-4.4 -3.8,-8.4 -8.6,-12.1 7.3,-0.9 11.3,-3.3 11.8,-7.4 -3.5,1.8 -7.1,2.3 -10.7,1.6 -3.1,-5.8 -7.899,-10.2 -14.399,-13.2 -3.801,-1.2 -7.801,-1.5 -12,-0.8 -0.7,0.1 -1.4,0.3 -2.301,0.4 0.9,-0.1 1.601,-0.3 2.301,-0.4 5.8,-1.5 8.199,-5.7 7.199,-12.8 -0.8,-7.7 -6,-13.2 -15.199,-16.5 -3.601,-1 -6.5,-0.6 -8.601,1.1 4.601,0.5 7.5,1.6 8.7,3.2 0.4,0.5 0.7,1 1,1.6 1.4,2.8 1.4,5.5 0.1,7.8 -2.5,2.9 -6.8,5.2 -13.1,7.2 -6.6,2.9 -16.7,4.9 -30.3,6 -0.4,0 -0.7,0.1 -1.1,0.1 l -0.1,0 c -21.3,2.9 -37.3,6.8 -47.8,11.7 -2.6,1.2 -4.9,2.5 -6.9,3.9 0.3,3.7 1.8,5.9 4.6,6.5 l 0.1,0.2 4.9,-2.9 0,-2.3 0,2.3 -4.9,2.9 -0.1,0.1 c -0.5,3.3 -0.5,6.3 -0.1,8.9 4.3,8.4 10.6,14.3 19.2,17.8 0,0 0.1,0 0.1,0.1 0.1,0 0.2,0 0.2,0.1 3.9,-0.1 7.5,-0.1 10.8,0.1 4.5,0.3 8.6,0.7 12.1,1.5 0.1,0 0.1,0 0.1,0 3.6,0.7 6.6,1.7 9.3,2.9 4.8,2.2 8.7,4.7 11.8,7.4 1.4,1.4 2.7,2.8 3.8,4.3 3.399,5.3 3.399,9.7 0,13.1 -0.1,0.1 -0.3,0.3 -0.4,0.4 -1.9,1.6 -5.2,2.5 -9.8,2.7 -8.7,-0.1 -15.8,-1.2 -21.1,-3.2 -0.7,-0.2 -1.5,-0.5 -2.2,-0.7 -3.8,-1.1 -8.2,-1.5 -13.2,-1.3 -1.6,0 -3.3,0.2 -5,0.4 -2.5,2.6 -2.4,5.3 0.2,8 -3,5.4 -8.6,6.8 -16.7,4.3 3,5.2 6.7,7.6 11.3,7.3 4.1,-0.4 8.4,-2 12.6,-4.9 0.3,-0.2 0.5,-0.4 0.8,-0.6 -0.3,0.3 -0.5,0.5 -0.6,0.7 -4.2,4.4 -6.9,8.3 -8.1,11.6 -0.1,0.1 -0.1,0.2 -0.1,0.2 0,0.1 0,0.1 0,0.2 -0.6,1.8 -0.8,3.4 -0.5,4.9 0.5,-1.6 1.3,-3.1 2.4,-4.5 3.5,-4 9.9,-6.6 19.3,-7.6 -0.5,3.7 -3.5,7.6 -9.1,11.5 10.9,-1.5 18.3,-5.2 22.2,-11.1 0.9,5.7 4.1,8.8 9.5,9.2 -1.7,-4.4 -1.2,-8 1.6,-10.7 3.9,7.5 10.7,12 20.3,13.6 -5,-4 -7.3,-9.3 -6.8,-15.8 4.2,4 7.7,5.9 10.7,5.6 -0.6,-5.6 1.1,-10.6 5.2,-15.1 1.3,5.1 7,8 17.2,8.7 -7.5,-6.5 -10.9,-13.2 -10.301,-20.1 0.5,-6.9 1.5,-12.2 3.101,-16.1 4.1,0.5 6.899,3.9 8.399,10.2 1.2,-11.1 -3.3,-18.5 -13.199,-22.2 2.899,0.7 5.699,1.1 8.5,1.2 1.699,0 3.399,-0.1 5.1,-0.3 5.8,-0.8 8.8,-5.7 8.9,-14.7 0.1,-1.8 -0.101,-3.4 -0.4,-4.8 0,-0.1 0,-0.1 0,-0.1 -1,-4.1 -3.4,-6.9 -7.2,-8.2 -0.2,-0.1 -0.399,-0.2 -0.6,-0.2 -0.101,-0.1 -0.2,-0.1 -0.3,-0.1 l -0.1,0 c -0.7,-0.3 -1.5,-0.5 -2.3,-0.6 -0.8,-0.2 -1.6,-0.2 -2.4,-0.3 -4.8,0.1 -8,1.5 -9.699,4.2 1.699,-2.7 4.899,-4.1 9.699,-4.2 0.801,0.1 1.601,0.1 2.4,0.3 0.8,0.1 1.6,0.3 2.3,0.6 l 0.101,0 c 0.1,0 0.199,0 0.3,0.1 0.2,0 0.399,0.1 0.6,0.2 3.8,1.3 6.2,4.1 7.2,8.2 0,0 0,0 0,0.1 0.3,1.4 0.5,3 0.4,4.8 -0.101,9 -3.101,13.9 -8.9,14.7 -1.7,0.2 -3.4,0.3 -5.1,0.3 -2.801,-0.1 -5.601,-0.5 -8.5,-1.2 9.899,3.7 14.399,11.1 13.199,22.2 -1.5,-6.3 -4.3,-9.7 -8.399,-10.2 -1.601,3.9 -2.601,9.2 -3.101,16.1 -0.6,6.9 2.801,13.6 10.301,20.1 -10.2,-0.7 -15.9,-3.6 -17.2,-8.7 -4.101,4.5 -5.8,9.5 -5.2,15.1 -3,0.3 -6.5,-1.6 -10.7,-5.6 -0.5,6.5 1.8,11.8 6.8,15.8 -9.6,-1.6 -16.399,-6.1 -20.3,-13.6 -2.8,2.7 -3.3,6.3 -1.6,10.7 -5.4,-0.4 -8.6,-3.5 -9.5,-9.2 -3.9,5.9 -11.3,9.6 -22.2,11.1 5.6,-3.9 8.6,-7.8 9.1,-11.5 -9.4,1 -15.8,3.6 -19.3,7.6 3.3,1.8 5.1,3.7 5.4,5.6 0.2,2.3 -0.9,3.7 -3.2,4.2 -1.9,-0.7 -3.8,-1.2 -5.7,-1.6 -6.9,-1.6 -13.8,-1.9 -20.7,-0.7 -0.1,0 -0.3,0 -0.4,0 -0.6,0.1 -1.1,0.2 -1.6,0.3 -6.5,-2.7 -10,-7.4 -10.2,-14 -5.9,2.6 -8.4,6.5 -7.8,11.6 3.7,8.2 10.8,12.4 21.1,12.7 0.3,0 0.6,0 0.8,0 -0.2,0 -0.5,0 -0.8,0.1 -14,2.3 -22.7,8.4 -26.1,18.3 -3.9,6.5 -9.6,5.9 -17,-2 0.5,1.1 1.1,2.2 1.6,3.3 1.9,3.4 4.1,6.6 6.4,9.4 0.1,0.1 0.1,0.1 0.1,0.2 3.1,3.6 6.6,6.6 10.6,9.1 -0.1,-5 1.5,-9 4.9,-11.9 0.6,-0.7 1.4,-1.2 2.3,-1.8 -0.9,0.6 -1.7,1.1 -2.3,1.8 -3.4,2.9 -5,6.9 -4.9,11.9 -0.5,5.4 -2.8,9.5 -7.1,12.2 -4.4,2.7 -8.1,2.5 -11.3,-0.5 -0.4,-0.3 -0.7,-0.7 -1,-1.1 -1,-1.4 -1.2,-3 -0.5,-4.6 10.0637,-8.12279 -2.18759,-5.47741 -3.8,-1.4 -0.9,1.1 -1.6,2.4 -2.1,4.1 -0.4,2.5 -0.5,4.8 0,6.8 0.6,3 2.2,5.3 4.8,6.9 1,0.6 2.1,1.2 3.3,1.6 1.7,0.6 3.3,1 4.8,1.4 0.3,0 0.6,0.1 0.9,0.1 0.8,0.2 1.6,0.3 2.4,0.4 1.8,0.1 3.6,0.1 5.3,-0.1 1.4,-0.3 2.7,-0.6 4,-1 0.2,-0.2 0.5,-0.3 0.7,-0.4 0.7,-0.3 1.4,-0.6 2.1,-0.9 1.7,-1 3.4,-2.2 5,-3.8 2.1,-2.2 4,-4.8 5.6,-8 2.1,-4.6 4.9,-7.7 8.2,-9 -3.3,1.3 -6.1,4.4 -8.2,9 -1.6,3.2 -3.5,5.8 -5.6,8 -1.6,1.6 -3.3,2.8 -5,3.8 -0.7,0.3 -1.4,0.6 -2.1,0.9 l -0.9,0.7 c -1.3,0.7 -2.5,1.1 -3.6,1.3 -0.3,0.1 -0.5,0.1 -0.7,0.1 -1.6,0.3 -3.2,0 -4.8,-0.6 -0.8,-0.1 -1.6,-0.2 -2.4,-0.4 -0.3,0 -0.6,-0.1 -0.9,-0.1 0.1,0.1 0.2,0.4 0.2,0.5 0.2,0.3 0.3,0.6 0.5,0.9 0.1,0.2 0.2,0.5 0.3,0.6 0,0.1 0.1,0.2 0.2,0.4 2.2,3.9 5.5,6.3 9.6,7.4 2.5,-2 5.2,-3.8 8.1,-5.2 2.6,-1.3 5.3,-2.4 8.1,-3.2 8.5,-2.4 13.8,-7.2 15.8,-14.5 -2,7.3 -7.3,12.1 -15.8,14.5 -2.8,0.8 -5.5,1.9 -8.1,3.2 -2.9,1.4 -5.6,3.2 -8.1,5.2 -3,2.4 -5.8,5.3 -8.4,8.6 -0.9,1.1 -1.7,2.3 -2.6,3.6 -1.6,4.1 -0.9,7.2 2.1,9.4 3.7,-4.4 8.3,-7.6 13.6,-9.7 2.8,-1.1 5.9,-1.8 9.3,-2.3 l 0.1,0 c 6.1,0.1 11.4,-1 15.8,-3.5 l 10.5,-7.3 c -0.9,2.1 -1.6,4.1 -2.1,6 -0.1,0.1 -0.1,0.2 -0.1,0.3 -1.9,6.5 -1.6,11.9 0.7,16.1 4.3,6.6 10.2,10.7 17.5,12.4 -0.1,-0.1 -0.2,-0.2 -0.2,-0.3 -1.2,-1.1 -2.2,-2.2 -3,-3.4 -0.2,-0.2 -0.3,-0.3 -0.4,-0.5 -2.3,-3.2 -3.8,-6.6 -4.5,-10.4 1,-7.6 6,-12.9 14.9,-16.2 0.3,-0.2 0.7,-0.2 1.1,-0.4 -0.4,0.2 -0.8,0.2 -1.1,0.4 -1.1,0.9 -2.1,1.9 -3,2.9 -5.1,5.7 -6.7,11.4 -5,17 0.1,0.2 0.2,0.4 0.3,0.7 0.5,1.2 1,2.2 1.7,3 2,2.6 4.9,3.6 8.8,3.1 -5.2,-6.5 -5.1,-12.6 0.3,-18.3 0.9,-1.1 1.9,-2.2 3,-3.1 2.6,-2.2 5.8,-3.7 9.5,-4.5 0.9,4.2 0.2,8.5 -2.2,12.7 -1,1.8 -2.3,3.5 -3.9,5.3 2.3,-0.8 4.6,-1.6 6.8,-2.5 8.8,-4 15.7,-10.2 20.7,-18.5 l -0.1,-0.5 c -0.1,0 -0.1,0 -0.2,0.1 -3.8,1.4 -7.7,1.7 -11.5,1.3 l -0.101,0 c 0,-0.1 0,-0.1 0.1,-0.1 l 0,0 c 2.5,-1.8 4.5,-3.9 6.1,-6.1 0.3,-0.2 0.5,-0.6 0.7,-0.9 0.8,-1.2 1.5,-2.4 2.1,-3.7 1,-2.2 1.7,-4.6 2.1,-7.2 -0.4,2.6 -1.1,5 -2.1,7.2 -0.6,1.3 -1.3,2.5 -2.1,3.7 -0.2,0.3 -0.4,0.7 -0.7,0.9 -1.6,2.2 -3.6,4.3 -6.1,6.1 l 0,0 c -0.1,0 -0.1,0 -0.1,0.1 l 0.1,0 c 3.8,0.4 7.7,0.1 11.5,-1.3 0.1,-0.1 0.1,-0.1 0.2,-0.1 0.1,0 0.3,0 0.4,-0.1 2.5,-0.9 5,-2.2 7.399,-3.9 -0.3,-2.5 -0.399,-4.9 -0.199,-7.1 0.5,-6.1 2.899,-11.4 7.199,-15.8 -4.3,4.4 -6.699,9.7 -7.199,15.8 -0.2,2.2 -0.101,4.6 0.199,7.1 1.9,5.8 4.801,10.2 8.5,13.3 3.7,3 8.2,4.8 13.5,5.4 4.9,0.2 9,-0.6 12.5,-2.5 0.301,-0.1 0.5,-0.2 0.801,-0.4 l 0.1,0 c 0.1,-0.1 0.3,-0.2 0.5,-0.3 0.4,-0.3 0.6,-0.5 1,-0.7 -0.6,-0.1 -1.1,-0.2 -1.6,-0.3 -6.101,-1 -11.5,-4.2 -16.101,-9.3 -2.5,-3.5 -2.3,-6.9 0.601,-10.2 l 0,0 0,-0.1 c 1.6,-1.9 2.899,-4.1 4,-6.2 1.899,-3.6 3.1,-7.4 3.699,-11.4 -0.6,4 -1.8,7.8 -3.699,11.4 -1.101,2.1 -2.4,4.3 -4,6.2 l 0,0.1 c 6.6,-1.6 11.6,-4.3 15,-8.2 0.199,-0.3 0.6,-0.6 0.8,-1 0.1,0 0.1,0 0.1,-0.1 0.2,-0.2 0.4,-0.5 0.601,-0.8 0,0 0,0 0.1,-0.1 l -0.1,0 c 0.1,-0.1 0.199,-0.2 0.199,-0.2 2.4,-3.3 3.801,-6.8 4.301,-10.5 0,-0.5 0.1,-1 0.1,-1.5 0,-0.2 0,-0.4 0.1,-0.6 l 0,-0.1 c 0,-0.2 0,-0.4 0,-0.5 0,-1.1 -0.1,-2.2 -0.199,-3.3 -0.101,-0.1 -0.101,-0.1 0,-0.1 -0.301,-1.5 -0.601,-3.1 -1.101,-4.6 0.5,1.5 0.8,3.1 1.101,4.6 -0.101,0 -0.101,0 0,0.1 0.1,1.1 0.199,2.2 0.199,3.3 0,0.1 0,0.3 0,0.5 l 0,0.1 c -0.1,0.2 -0.1,0.4 -0.1,0.6 0,0.5 -0.1,1 -0.1,1.5 -0.5,3.7 -1.9,7.2 -4.301,10.5 0,0 -0.1,0.1 -0.1,0.2 -0.1,0.1 -0.1,0.1 -0.1,0.1 -0.2,0.3 -0.4,0.6 -0.601,0.8 0,0.1 0,0.1 -0.1,0.1 0.2,0.1 0.3,0.2 0.399,0.2 0.4,0.1 0.801,0.3 1.301,0.5 2.399,0.7 4.899,1.2 7.399,1.5 5.2,0.5 10.7,-0.2 16.3,-2.3 5.9,-1.5 10.2,-4.5 12.801,-8.8 -4.301,2.1 -9.2,3 -14.601,2.4 -4.8,-0.5 -8.3,-2.7 -10.7,-6.8 l 0.2,-0.1 0.101,0 0.099,-1 c 7.3,-11.4 12.8,-11 16.4,1 3.699,-6.9 2.899,-13.9 -2.2,-21 8.2,5.5 17.399,7.5 27.8,6.2 7,-2.2 11.6,-5.6 13.9,-10.3 -2.9,2.2 -7.7,3.1 -14.301,2.6 -8.199,-0.7 -15.3,-3.4 -21.399,-7.9 -0.101,-0.1 -0.3,-0.2 -0.5,-0.4 -4.2,-3.3 -7.9,-7.5 -11.101,-12.8 18,-8.4 23,-5.7 15,8.1 -0.1,0 -0.1,0.1 -0.1,0.2 8.4,-4.5 12.6,-8.8 12.6,-13 0,-4.3 -4.6,-10.2 -13.8,-17.8 -4.899,-1.3 -7.899,-4.2 -8.8,-8.7 0.9,4.5 3.9,7.4 8.8,8.7 0.7,0.2 1.5,0.3 2.3,0.5 7.301,-0.2 12.5,-2.9 15.5,-8.3 -2.699,1.5 -5.1,2.4 -7.3,3 0,0 -0.1,0 -0.2,0 0,0.1 -0.1,0.1 -0.199,0.1 -0.301,0 -0.5,0.1 -0.601,0.1 -2.3,0.4 -4.2,0.3 -5.899,-0.3 -0.101,-0.1 -0.301,-0.2 -0.4,-0.2 -5,-2.6 -8.1,-6.8 -9.4,-12.6 3.801,-4.8 8.801,-2.2 15,7.8 4,-8.6 1.801,-15.3 -6.6,-20.3 -4.9,-2.9 -8.9,-5.8 -11.7,-8.8 l -0.2,-0.2 c -0.199,-0.3 -0.5,-0.5 -0.6,-0.7 -0.9,-0.9 -1.6,-1.9 -2.2,-3 0.601,1.1 1.3,2.1 2.2,3 0.1,0.2 0.4,0.4 0.6,0.7 l 0.2,0.2 c 2.3,2.4 5.101,3.8 8.2,4.4 1.1,0.2 2.1,0.3 3.1,0.3 3.101,-0.2 5.7,-1.5 7.9,-3.9 2.8,-3.4 3.4,-6.8 1.8,-10.4 -1.8,4.1 -4.7,6.3 -8.7,6.5 -3,0.1 -5.5,-0.9 -7.199,-2.9 -0.7,-0.7 -1.301,-1.5 -1.7,-2.5 -1.799,-3.7 -3.499,-9.3 -4.899,-16.5 z m -77.5,-19.3 c 0.4,0.2 0.7,0.4 1,0.6 5,3 9.2,6.3 12.7,10.1 l 0,0 5.3,-2 -5.3,2 0,0 -10.7,1.4 c -0.5,0.1 -0.9,0.1 -1.4,0.2 -1.3,0.1 -2.6,0.1 -3.8,0 -0.8,-0.1 -1.5,-0.1 -2.2,-0.3 -2.7,-1.1 -4.2,-3 -4.5,-5.7 -0.4,-2.6 0.7,-5.1 3.2,-7.2 -0.5,0 -1.1,0 -1.6,0 -1.3,0.1 -2.6,0.3 -4,0.6 -0.1,-2.7 1.4,-4.8 4.7,-6.3 -3.3,1.5 -4.8,3.6 -4.7,6.3 1.4,-0.3 2.7,-0.5 4,-0.6 0.5,0 1.1,0 1.6,0 1.9,0 3.8,0.3 5.7,0.9 l 0,0 z m 11.9,36.2 c -3.6,-3.5 -7.9,-6.2 -12.6,-8.1 -4.1,-1.3 -8.2,-1.7 -12.5,-0.9 4.3,-0.8 8.4,-0.4 12.5,0.9 4.7,1.9 9,4.6 12.6,8.1 z m 32.1,-25.5 c -0.3,0.1 -0.5,0.2 -0.7,0.3 -2.199,1.1 -4.1,1.5 -5.6,1.4 1.5,0.1 3.4,-0.3 5.6,-1.4 0.2,-0.1 0.4,-0.2 0.7,-0.3 1.9,-1 4,-2.6 6.101,-4.6 -2.101,2 -4.201,3.6 -6.101,4.6 1.9,1.3 3.7,3 5.2,5.1 -0.6,3 -1.8,5.3 -3.6,6.7 1.8,-1.4 3,-3.7 3.6,-6.7 -1.5,-2.1 -3.3,-3.8 -5.2,-5.1 z m -21.3,45.6 c -0.7,-3.2 -2,-6.5 -3.8,-9.9 1.8,3.4 3.1,6.7 3.8,9.9 0.7,5.3 -2.4,10 -9.4,14 7,-4 10.1,-8.7 9.4,-14 z"
       id="path3415" />
    <path
       d="m -324.2896,67.4689 c 0.4,-2.4 1.9,-4.3 4.4,-5.9 -1.9,-0.6 -3.8,-0.9 -5.7,-0.9 -2.5,2.1 -3.6,4.6 -3.2,7.2 0.3,2.7 1.8,4.6 4.5,5.7 0.7,0.2 1.4,0.2 2.2,0.3 -1.9,-2 -2.6,-4.2 -2.2,-6.4 z"
       id="path3417" />
    <path
       d="m -306.1896,72.2689 c -3.5,-3.8 -7.7,-7.1 -12.7,-10.1 l 0.6,11.7 c 0.5,-0.1 0.9,-0.1 1.4,-0.2 l 10.7,-1.4 z"
       id="path3419" />
    <path
       d="m -263.1896,234.3689 c 1.5,-2.7 3.2,-5.3 5.3,-7.8 -2.5,-0.3 -5,-0.8 -7.399,-1.5 l -2.5,0.3 c -3.4,3.9 -8.4,6.6 -15,8.2 -2.9,3.3 -3.101,6.7 -0.601,10.2 4.601,5.1 10,8.3 16.101,9.3 0.099,-6.2 1.399,-12.4 4.099,-18.7 z"
       id="path3421" />
    <path
       d="m -425.7896,45.1689 c 0.6,-2.4 0,-4.7 -1.7,-6.9 l -4.3,0.2 c -0.1,1.2 -0.4,2.4 -0.8,3.6 -0.4,2.3 -2,3.8 -4.8,4.4 -4.2,-1.7 -6.8,-4.4 -7.9,-8.2 -0.2,-0.1 -0.4,-0.2 -0.5,-0.2 -3.8,-1.6 -6.3,-1.1 -7.6,1.4 -1.8,3.8 -2.1,8.4 -1.1,14 -2.9,5.6 -6.6,8.6 -11.1,8.8 l -0.1,0 c 0.8,3.7 2.3,7.1 4.3,10.5 3.7,4.1 7.8,5.9 12.3,5.4 0.1,0.1 0.2,0.2 0.3,0.3 l 0.6,-1 c 5.3,-7.2 9.9,-14.8 13.8,-22.8 1.7,-3.4 4.5,-6.6 8.6,-9.5 z"
       id="path3423" />
    <path
       d="m -351.9896,109.0689 -0.2,0 -1.8,-2.9 c -7.8,0.1 -15.1,0.1 -22.1,0 -4.4,-0.5 -8.6,-3.8 -12.7,-10 -2,2.4 -2.7,5.4 -2,9.1 1.9,6 5.6,9.7 11,11.3 7.2,2.3 14.8,3.3 22.7,3.1 0.3,-0.1 0.6,-0.1 0.9,-0.1 l 3.3,-8.4 5.2,7.8 c 8.5,-0.4 17,-0.2 25.6,0.5 5.2,0.5 9.1,2.4 11.6,5.8 3.399,-3.4 3.399,-7.8 0,-13.1 -1.1,-1.5 -2.4,-2.9 -3.8,-4.3 -5.9,-1.4 -11.5,-2.2 -17.1,-2.2 -5.4,0.2 -11.2,0.2 -17.4,-0.1 l -3.2,3.5 z"
       id="Tongue"
       style="fill:#d40000" />
    <g
       id="Teeth"
       style="fill:#d40000">
      <path
         d="m -347.5896,96.0689 c -3.3,-0.2 -6.9,-0.2 -10.8,-0.1 l -0.3,0.1 4.7,10.1 1.8,2.9 0.2,0 3.2,-3.5 1.2,-9.5 z"
         id="path3427" />
      <path
         d="m -347.6896,118.9689 -5.2,-7.8 -3.3,8.4 -1,3.6 c 5,-0.2 9.4,0.2 13.2,1.3 l -3.7,-5.5 z"
         id="path3433" />
    </g>
    <path
       d="m 120.0625,45.21875 c -2.025,0.0375 -3.3875,0.69375 -4.0625,1.96875 0,-10e-7 0.006,0.125 -0.0937,0.125 1.8,4.500001 1.60625,8.4875 -0.59375,12.1875 l 0,0.09375 c -2.5,0.600002 -4.6125,-0.0063 -6.3125,-1.90625 0,-0.100001 -0.0875,-0.275 -0.1875,-0.375 -2.2,-0.599999 -3.81875,0.075 -4.71875,1.875 -2,3.799999 -3.00625,7.20625 -2.90625,10.40625 1.1,1.400002 2.2,2.5125 3.5,3.3125 1.7,1.199998 3.61875,1.80625 5.71875,1.90625 0.4,2.899997 -1.09375,5.3875 -4.59375,7.6875 -1.7,-1.4 -4.21875,-2.30625 -7.21875,-2.90625 -3.899999,0.400002 -6.88125,1.3125 -9.28125,2.8125 C 88.212496,83.206248 87.5,83.8125 87.5,84.3125 c -0.100001,0.399997 0.29375,0.675 1.09375,0.875 4.000001,-0.199997 6.8,0.8 8.5,3 2.000001,5.100003 -0.0062,9.20625 -5.90625,12.40625 -1.399997,2.7 -1.28125,5.00625 0.21875,6.90625 2.599998,1.8 4.98125,2.6125 7.28125,2.3125 2.9,-3.1 4.725,-6.30625 5.625,-9.40625 1.5,3.5 1.5,6.7 0,9.5 4.5,2 8.39375,1.49375 11.59375,-1.40625 -2.6,3 -4.21875,6.1875 -4.71875,9.6875 0.5,-0.1 1,-0.1875 1.5,-0.1875 5.9,-0.6 10.1125,0.6 12.8125,3.5 l -0.0937,0.6875 -12.5,-0.1875 c 0.2,4.3 2.30625,7.49375 6.40625,9.59375 -6.8,5.89999 -9.61875,12.70625 -8.21875,20.40625 1.4,-2.3 3.69375,-3.8125 6.59375,-4.3125 0.3,-0.1 0.6125,-0.0875 0.8125,-0.1875 0.2,0 0.39375,0 0.59375,0 0,0 0.11875,0 0.21875,0 5.5,-0.6 13.175,1.40625 22.875,5.90625 l 0.125,0.0937 -0.125,0 c -6.60001,3.7 -14.175,3.5125 -22.875,-0.6875 4.5,8.5 12.69375,11.6875 24.59375,9.6875 L 144,163 c -6.99999,2.2 -12.89375,5.9125 -17.59375,11.3125 -0.1,0.1 -0.2125,0.18125 -0.3125,0.28125 l 0.0937,0.0937 c 0.2,0 0.30625,-0.0937 0.40625,-0.0937 l 0.0937,0 c 8.4,-2.70001 17.50625,-2.88125 27.40625,-0.78125 -11,1.5 -18.10625,3.775 -21.40625,6.875 -2.00001,1.8 -2.58125,3.90625 -1.78125,6.40625 9.4,-3.60001 19.58125,-2.19375 30.78125,4.40625 l -0.0937,0.0937 -0.28125,0.8125 c -10,-1.19999 -15.7,0.10625 -17,3.90625 1.1,0.1 2.09375,0.175 3.09375,0.375 7.6,1.2 13.8,3.725 18.5,7.625 -5.5,2.2 -11.9125,1.3 -19.3125,-3 2.2,5.5 6.00625,9.375 11.40625,11.875 1.60001,-2 3.7,-3.075 6.5,-3.375 0.10001,0 0.1875,0 0.1875,0 0.29999,0 0.6,0 1,0 -0.40001,0.3 -0.7875,0.7 -1.1875,1 -1.17978,1.0721 -1.99385,2.36152 -2.6875,3.78125 0.4,0.1 0.875,0.20625 1.375,0.40625 0.19999,0 0.3,-0.006 0.5,0.0937 3.19999,0.69999 6.9,1.09375 11,1.09375 -5.00001,0.5 -9.075,1.5 -12.375,3 0.3,0.4 0.6,0.825 1,1.125 3.2,3 6.88125,3.2 11.28125,0.5 4.3,-2.7 6.59375,-6.81875 7.09375,-12.21875 -4.00001,-2.50001 -7.49375,-5.49375 -10.59375,-9.09375 0,-0.1 0.006,-0.0875 -0.0937,-0.1875 -2.29999,-2.8 -4.50625,-6.00625 -6.40625,-9.40625 -0.5,-1.09999 -1.09375,-2.2125 -1.59375,-3.3125 7.40001,7.89999 13.1,8.5 17,2 3.40001,-9.90001 12.09375,-15.98125 26.09375,-18.28125 l 0,-0.125 C 195.79375,169.8875 188.7,165.7 185,157.5 c -0.59999,-5.1 1.9125,-8.99375 7.8125,-11.59375 0.2,6.60001 3.6875,11.3 10.1875,14 0.50001,-0.1 0.99375,-0.2125 1.59375,-0.3125 l -0.6875,-4.40625 c -2.5,-3.9 -5.2125,-7.79375 -7.8125,-11.59375 -10.7,-15.50001 -22.3,-30.89375 -35,-46.09375 -5.6,-6.6 -12.18125,-12.4875 -19.78125,-17.6875 C 141.2125,79.712497 141.1,79.6 141,79.5 c -4.49999,0.5 -8.6125,-1.30625 -12.3125,-5.40625 -2.00001,-3.399998 -3.48125,-6.8 -4.28125,-10.5 -0.3,-1.299998 -0.61875,-2.6 -0.71875,-4 1.9,-4.999998 1.425,-9.7875 -1.375,-14.1875 -0.825,-0.125 -1.575,-0.2 -2.25,-0.1875 z"
       transform="translate(-590.0886,-1.3311)"
       id="path3435" />
    <path
       d="m -434.1896,222.7689 c -1.5,1.9 -2.5,4.1 -2.9,6.7 -0.6,5 2.6,8 9.5,9 -3.8,-3.4 -4.4,-6.3 -1.8,-8.8 -2.6,-1.6 -4.2,-3.9 -4.8,-6.9 z"
       id="path3443" />
    <path
       d="m -489.2896,289.4689 c -0.5,-3.8 -2.1,-7.6 -4.9,-11.4 -2.1,-1.1 -4,-0.9 -5.6,0.7 0.5,2.3 0,4.7 -1.3,7 -3.5,2.7 -7.5,4.4 -12.2,5.3 -2,1.8 -2.5,3.5 -1.3,5.3 3.7,0.3 6.7,1.2 8.9,2.5 l 5.8,-1.3 -5.8,1.3 c 0.9,0.6 1.7,1.2 2.3,2 2.8,4.4 4.3,8.2 4.4,11.2 2.8,0 5.4,-0.5 8,-1.8 5.4,-3 10,-6.3 13.8,-9.9 -4.7,-2.2 -8.8,-5.8 -12.1,-10.9 z"
       id="path3445" />
    <path
       d="m -402.8896,381.5689 c -8.9,-0.101 -14.3,3.399 -16.2,10.6 -1,5.4 -0.6,9.5 1,12.3 0.6,0.9 1.2,1.7 2,2.4 1.7,1.3 4,2 6.8,2.1 4.2,0.101 9.7,-1 16.5,-3.5 -4.9,4.101 -9.6,6.8 -14.1,8 -0.8,0.2 -1.5,0.3 -2.3,0.5 -4.1,0.601 -8.1,0.101 -12,-1.7 -1.8,-0.8 -3.7,-1.899 -5.4,-3.3 -0.7,-0.5 -1.3,-1.1 -2,-1.6 0.4,0.7 0.7,1.399 1,2.1 5.6,10.8 12,14.4 19.4,10.7 0,-0.1 0,-0.1 0.1,-0.2 0.7,-0.399 1.4,-0.8 2.1,-1.1 0.3,-0.2 0.6,-0.3 0.9,-0.4 3.8,-1.7 7.6,-2.3 11.4,-1.8 -3.8,-0.5 -7.6,0.1 -11.4,1.8 -0.3,0.101 -0.6,0.2 -0.9,0.4 -0.7,0.3 -1.4,0.7 -2.1,1.1 -0.1,0.1 -0.1,0.1 -0.1,0.2 -2.6,8.3 -10.3,13.7 -23.2,16 13.4,5.1 23.3,2.3 29.9,-8.6 l 0.7,0.5 c -0.7,3.399 -1.7,6.6 -3,9.6 -3.7,8.6 -10,15.7 -18.9,21.5 7,1.1 12.7,0.3 17.3,-2.3 4.8,-2.7 8.3,-7.5 10.6,-14.2 -0.3,8.4 -2.9,15.3 -7.6,20.7 1.1,1.7 2.3,3.399 3.8,4.899 1.4,1.5 3,2.9 4.8,4.2 3.6,2.5 7.9,4.5 12.9,5.9 -6.3,0.6 -10.7,0 -13.3,-1.7 -0.6,-0.4 -1.2,-0.8 -1.7,-1.1 0,0 0,0 -0.1,-0.101 -0.7,-0.5 -1.2,-0.8 -1.4,-1 -2.1,-0.7 -3.5,-1.2 -4.1,-1.399 -0.6,-0.2 -1.3,-0.301 -2.2,-0.4 -2.8,-0.1 -6.9,0.5 -12.5,1.7 -7.1,3.2 -15.8,5.2 -25.8,5.899 -2.3,-0.1 -4.3,-0.6 -6.3,-1.5 -1.9,-1 -3.7,-2.399 -5.3,-4.1 -0.4,-6 -2.1,-12.4 -5,-19.5 -1.6,-1.2 -4.1,-1.6 -7.3,-1.3 -1.5,-0.3 -2.5,0.2 -2.8,1.5 -0.1,0.1 -0.1,0.2 -0.1,0.3 0,0.1 0,0.1 0,0.2 5.8,8.7 4.8,12.7 -3.1,12 -2,0 -5.1,0.6 -9.4,1.7 -4.4,2.199 -5.6,4.6 -3.8,7.399 l 0.5,0.4 c 0.2,0.399 0.4,0.7 0.7,1.1 0,0 0.1,0.101 0.1,0.2 2,2.7 4.8,4.8 8.4,6.1 5.5,2 12.7,2.5 21.7,1.5 -5,4 -12.8,4.9 -23.4,2.5 -3.3,-1 -7.1,-2.899 -11.4,-5.399 l -2.6,2.5 c 4.4,4.7 6.8,9.3 7.3,13.8 -0.6,3.1 -2.5,5.8 -5.7,8.4 -0.1,0.1 -0.2,0.3 -0.2,0.5 -1,2.8 -0.3,4.8 2.1,6.1 l 6.8,-0.3 c 3.9,-2.3 6,-5.3 6,-9.3 0.2,3.899 1.1,6.1 2.7,6.699 3.4,0.5 6.5,0.301 9.4,-0.699 2.6,-1.2 5.1,-1.5 7.7,-0.801 3.8,-1.899 6.2,-4.3 7.1,-7.199 -0.9,2.899 -3.3,5.3 -7.1,7.199 -2.6,-0.699 -5.1,-0.399 -7.7,0.801 -0.8,0.3 -1.6,0.8 -2.4,1.3 l -6.9,5.8 2.6,3.1 c 0,0.101 0.1,0.2 0.1,0.2 6.1,1.4 10.5,4.4 13.4,8.9 0.9,2 0.6,3.399 -0.7,4.1 0,0.101 0,0.101 -0.1,0.2 -0.4,1.8 0.7,3.1 3.4,3.5 3.1,1.3 5.6,1.4 7.6,0.1 4.7,-2.899 7.2,-7.1 7.8,-12.6 -2.4,-3.5 -0.9,-8 4.4,-13.6 -5.3,5.6 -6.8,10.1 -4.4,13.6 1,1.5 2.7,4.2 5.1,7.9 3.8,-6.7 7.4,-11.101 10.7,-13 -3.3,4.699 -4.6,9.5 -3.8,14.199 0,0.101 0,0.2 0.1,0.2 l 0,-0.2 c 6.3,-6.6 14,-10.3 23.1,-11 -2.9,8.2 -10,13.7 -21.2,16.601 -0.1,0 -0.2,0 -0.2,0.1 2.2,6.101 8.1,8.2 17.5,6.3 6.8,-2.6 11.3,-6.899 13.7,-12.8 l 0.6,0.101 c 0.6,-3.601 2.6,-6.801 5.9,-9.301 -3.3,2.5 -5.3,5.7 -5.9,9.301 -0.1,0.5 -0.1,1 -0.1,1.399 -1.2,13.9 6.7,20.5 23.5,20 0.2,-0.1 0.5,-0.1 0.7,-0.1 -0.1,0 -0.3,-0.101 -0.4,-0.101 -0.1,-0.1 -0.2,-0.1 -0.2,-0.199 -6.3,-2.9 -9.3,-7.801 -9,-14.5 l 0.1,-0.301 c -0.2,-3.699 2.1,-8 7,-13 5.2,7 8.1,14.5 8.8,22.4 5.9,-9.1 8.3,-19.1 6.9,-30.2 0.1,0.3 0.2,0.601 0.3,0.9 0,0.2 0.1,0.399 0.1,0.6 0.5,1.7 1,3.4 1.7,4.9 4.8,11.399 14.5,17.1 28.9,17.1 -8.5,-5.7 -14.5,-13.1 -18,-22.3 -0.9,-1 -1.7,-2 -2.5,-3.1 0.8,1.1 1.6,2.1 2.5,3.1 5.2,5.5 11.9,8.5 20.3,8.7 2.2,-0.101 4.2,-0.5 6.1,-1.2 3.4,-1.4 6.2,-3.8 8.2,-7.3 l -0.2,-0.3 0.5,-0.601 c -0.6,0.3 -1.199,0.7 -1.8,1 -3.4,2 -6.3,2.9 -8.8,2.8 -8.6,-1.3 -13.5,-6.8 -14.6,-16.5 0.7,-7.6 4.1,-14.1 10.4,-19.199 1.3,-1.2 2.7,-2.2 4.3,-3.2 l 0,-0.2 0.1,-0.2 c 0.6,-5.6 2.1,-11.8 4.4,-18.5 -1,1.7 -2.2,3.3 -3.5,4.9 -0.2,0.1 -0.3,0.3 -0.5,0.5 -0.2,0.2 -0.4,0.399 -0.6,0.6 -2.8,2.8 -6.2,5.2 -10.3,7.4 l -0.3,0.2 -0.1,-0.101 c -8.1,2.2 -16,1.8 -23.8,-1.1 -4,-2.3 -7.2,-6.2 -9.3,-11.601 -0.2,-0.5 -0.4,-0.899 -0.5,-1.399 -1.3,-4.2 -0.6,-9 1.8,-14.101 3.5,-4.1 8,-6.6 13.5,-7.699 -5.1,5.199 -7.2,10.399 -6.2,15.8 0.3,1.2 0.6,2.2 1.1,3.2 1.3,2.8 3.7,4.899 7.1,6.199 3,1 6.5,1 10.4,0 4.3,-1.1 7.5,-2.6 9.6,-4.6 2.1,-2.1 3.1,-4.5 3.1,-7.4 0,-5.3 0.3,-11.899 0.9,-19.8 0.9,-7.6 3.4,-15.3 7.5,-23 3.9,-6.7 9.8,-13.399 17.6,-20.2 0.301,-0.3 0.5,-0.6 0.7,-0.8 2.3,-2.8 3.7,-5.8 4.101,-9.1 0.399,-3.5 -0.301,-7.4 -2.101,-11.601 -0.6,-3.1 -0.8,-6 -0.7,-8.8 l -1,-2.3 c -17,1.2 -31,6.8 -42.1,16.7 -4.7,-0.601 -9.5,-1.101 -14.1,-1.3 -9,-0.101 -16.8,2.1 -23.5,6.6 -7,8.3 -13.2,13.5 -18.6,15.5 -0.5,0.2 -1,0.4 -1.5,0.5 -4.8,1.3 -8.9,0.3 -12.4,-2.9 -3.8,-3.694 -2.5,-8.594 3.9,-14.694 z"
       id="path3459" />
    <path
       d="m -307.2896,335.7689 c -1.5,0.6 -2.8,1.4 -3.8,2.4 -2.1,1.5 -3.5,4.1 -4.2,7.8 12,0.2 19.2,5.101 21.7,14.8 0.101,0.101 0.101,0.2 0.2,0.4 0.3,-4.6 1.601,-8.8 3.7,-12.7 0,-0.2 0,-0.2 0.2,-0.3 -3.601,-5.9 -7.8,-10.5 -12.7,-13.7 -1.9,0.2 -3.6,0.7 -5.1,1.3 z"
       id="path3461" />
    <g
       id="Claws"
       style="fill:#d40000">
      <path
         d="m -434.8896,28.2689 c -0.1,-0.2 -0.2,-0.3 -0.2,-0.4 -5.3,-6.7 -10.9,-9.4 -16.9,-8.2 -4.1,1.3 -6.5,3.6 -7.1,6.9 5.4,-0.6 9.4,0.5 11.9,3.2 2.2,2.5 2.7,5.3 1.4,8.3 0.1,0 0.3,0.1 0.5,0.2 1.1,3.8 3.7,6.5 7.9,8.2 2.8,-0.6 4.4,-2.1 4.8,-4.4 0.4,-1.2 0.7,-2.4 0.8,-3.6 0.3,-3.3 -0.8,-6.7 -3.1,-10.2 z"
         id="path3437" />
      <path
         d="m -483.3896,38.3689 c -4.8,0.1 -9.6,1.5 -14.1,4.3 -2.8,2.5 -4.6,5.7 -5.5,9.7 4.3,-2.3 8.7,-3.4 13.3,-3.2 4.4,1.6 7.2,3.8 8.4,6.8 0.1,0.1 0.2,0.3 0.2,0.4 1.7,1.9 3.8,2.5 6.3,1.9 l 0,-0.1 c 2.2,-3.7 2.4,-7.7 0.6,-12.2 l 0,0.1 c -0.1,-0.2 -0.1,-0.3 -0.1,-0.5 -1.5,-3.9 -4.5,-6.3 -9.1,-7.2 z"
         id="path3439" />
      <path
         d="m -502.5896,82.9689 -0.4,0.6 c -2.4,-0.1 -4.8,0.8 -7.1,2.4 -5.2,4.5 -8.6,9.3 -10.2,14.4 0,3.4 0.4,6 1.3,7.9 1.6,3 4.1,4.7 7.4,4.9 -1.1,-5.5 0.5,-10.2 4.6,-14.2 4,-1.8 6.7,-1.8 8.1,0.3 5.9,-3.2 7.9,-7.3 5.9,-12.4 -1.7,-2.2 -4.5,-3.2 -8.5,-3 -0.8,-0.2 -1.2,-0.5 -1.1,-0.9 z"
         id="path3441" />
      <path
         d="m -499.7896,278.7689 c -0.1,-1 -0.5,-1.9 -0.9,-2.7 -5.9,-1.8 -11.9,-2.2 -18.2,-1 -6.4,1.1 -10,4.4 -11.1,9.8 -1,5.4 0,8.7 3.2,9.9 1.9,-5.2 5,-7.9 9.5,-8 3.7,0.5 5,1.9 4,4.3 l 0,0 c 4.7,-0.9 8.7,-2.6 12.2,-5.3 1.3,-2.3 1.8,-4.7 1.3,-7 z"
         id="path3447" />
      <path
         d="m -516.7896,316.0689 c -1.6,-0.3 -2.6,-1 -2.9,-2.2 -5,0.7 -8.7,3.5 -11.1,8.2 -1.6,5.4 -1.1,10.1 1.5,14.1 1.7,4.5 4.8,7.4 9.3,8.7 -1.9,-3.8 -2.5,-8 -1.7,-12.5 0.9,-3.1 2.8,-4.5 5.6,-4.4 1.8,-0.2 3.4,-0.6 4.6,-1.1 2.7,-1.3 3.4,-3.7 2.2,-7 -0.4,-1.9 -2.9,-3.2 -7.5,-3.8 z"
         id="path3449" />
      <path
         d="m -476.1896,355.1689 c -0.4,-3.8 -2.8,-6.4 -7,-7.8 -4.3,-0.601 -7.1,0.8 -8.3,4 -1.1,4.1 -0.8,7.8 0.8,11.1 2.2,5.601 5.7,9.4 10.5,11.5 2.3,1 4.5,1.2 6.7,0.8 3.8,-1 6.4,-2.399 7.7,-4.3 -4.4,-0.1 -7.7,-1.6 -10,-4.5 -1.5,-3.2 -1.7,-6.8 -0.4,-10.8 z"
         id="path3451" />
      <path
         d="m -307.3896,573.4689 c -3,2.8 -5,6 -6,9.601 -1,4.6 -1.1,8.899 -0.2,13 1.6,4.699 5.3,8 11.2,9.899 -2.3,-3.8 -3.1,-8 -2.3,-12.8 2.2,-5.2 5.8,-8.7 10.8,-10.4 0.101,-0.3 0.2,-0.5 0.3,-0.699 1,-2.5 1.2,-5.2 0.7,-8 -1,-2.801 -2.7,-4.5 -5,-5.2 l -0.1,0 c -3.5,0.799 -6.6,2.399 -9.4,4.599 z"
         id="path3467" />
      <path
         d="m -468.9896,455.6689 c 0,-0.2 -0.1,-0.3 -0.2,-0.5 -3.6,-3 -8.2,-4.3 -13.6,-3.8 -7.9,0.6 -13.4,2.6 -16.4,5.8 -3.7,3.7 -5.1,7.4 -4.2,11.1 5.4,-4 11.3,-6 17.9,-5.899 4.2,2.1 5.4,4.6 3.4,7.399 l 2.1,-0.699 c -0.5,0.1 -0.9,0.3 -1.3,0.5 4.3,-1.101 7.4,-1.7 9.4,-1.7 7.9,0.7 8.9,-3.3 3.1,-12 -0.1,-0.101 -0.1,-0.201 -0.2,-0.201 z"
         id="path3469" />
      <path
         d="m -456.5896,534.4689 c 1.3,-0.7 1.6,-2.1 0.7,-4.1 -2.9,-4.5 -7.3,-7.5 -13.4,-8.9 0,0 -0.1,-0.1 -0.1,-0.2 -4.7,5.7 -7.1,12 -7.1,19 0.9,10.301 7,14 18.2,11 -4.8,-3 -6.8,-7.3 -6,-13 1.5,-3.5 4,-4.699 7.4,-3.699 0.1,0 0.1,0 0.2,0 0,-0.101 0,-0.101 0.1,-0.101 z"
         id="path3471" />
      <path
         d="m -506.3896,499.6689 c -1,6 -0.6,11.1 1.1,15.6 2.9,4.7 6.8,7.2 11.5,7.2 -2.1,-2.6 -2.9,-5.899 -2.4,-10.1 1.2,-2.7 3.4,-4 6.5,-3.8 0,-0.2 0.1,-0.4 0.2,-0.5 3.2,-2.601 5.1,-5.301 5.7,-8.4 -0.5,-4.5 -2.9,-9.1 -7.3,-13.8 -7.6,2.4 -12.7,7 -15.3,13.8 z"
         id="path3473" />
      <path
         d="m -277.6896,594.6689 c -0.4,5.3 0.3,10.5 2,15.5 1.4,3.3 3.5,5.7 6.1,7.5 4.5,1.7 7.9,2 10.4,0.7 2.8,-1.101 5,-2.3 6.5,-3.601 -4.1,0.4 -7.4,-0.6 -9.7,-2.899 -2.8,-3.601 -3.2,-7.2 -0.899,-10.7 l 2.199,-2.2 0.9,-0.7 c -1.6,-2.199 -3.7,-4.199 -6.5,-6 -2.4,-0.1 -4.7,0.2 -7.1,0.9 -1.301,0.3 -2.5,0.8 -3.801,1.4 10e-4,0 10e-4,0 -0.099,0.1 z"
         id="path3475" />
      <path
         d="m -228.4896,590.1689 0.1,0 c 2.4,0.6 3.9,1.9 4.4,3.8 0.899,2 1.1,3.9 0.399,5.601 -1.399,3.1 -4.3,4.6 -8.699,4.5 1,3.1 3.899,4.8 8.899,5.1 6.9,-1 10.5,-3.9 10.8,-8.8 0.801,-5.9 0.601,-11.8 -0.5,-17.8 -0.1,-0.2 -0.199,-0.301 -0.3,-0.301 -1.5,-1.8 -3.2,-2.699 -4.8,-2.8 -2.6,0.101 -5.1,1 -7.5,2.601 -2.399,2.299 -3.399,4.999 -2.799,8.099 z"
         id="path3477" />
    </g>
  </g>
</svg>
