<?xml version="1.0" encoding="UTF-8" standalone="no"?>
<!-- Created with Inkscape (http://www.inkscape.org/) -->

<svg
   xmlns:dc="http://purl.org/dc/elements/1.1/"
   xmlns:cc="http://web.resource.org/cc/"
   xmlns:rdf="http://www.w3.org/1999/02/22-rdf-syntax-ns#"
   xmlns:svg="http://www.w3.org/2000/svg"
   xmlns="http://www.w3.org/2000/svg"
   xmlns:xlink="http://www.w3.org/1999/xlink"
   version="1.0"
   width="312.5"
   height="312.5"
   id="svg4166">
  <defs
     id="defs4168" />
<metadata
   id="metadata1880"><rdf:RDF><cc:Work
         rdf:about=""><dc:title>Gävleborgs läns vapenflagga</dc:title><dc:date>2012-01-19</dc:date><dc:creator><cc:Agent><dc:title>Lokal_Profil</dc:title></cc:Agent></dc:creator><cc:license
         rdf:resource="http://creativecommons.org/licenses/by-sa/2.5/" /><dc:rights><cc:Agent><dc:title>cc-by-sa-2.5</dc:title></cc:Agent></dc:rights><dc:format>image/svg+xml</dc:format><dc:type
         rdf:resource="http://purl.org/dc/dcmitype/StillImage" /></cc:Work><cc:License
         rdf:about="http://creativecommons.org/licenses/by-sa/2.5/"><cc:permits
         rdf:resource="http://web.resource.org/cc/Reproduction" /><cc:permits
         rdf:resource="http://web.resource.org/cc/Distribution" /><cc:requires
         rdf:resource="http://web.resource.org/cc/Notice" /><cc:requires
         rdf:resource="http://web.resource.org/cc/Attribution" /><cc:permits
         rdf:resource="http://web.resource.org/cc/DerivativeWorks" /><cc:requires
         rdf:resource="http://web.resource.org/cc/ShareAlike" /></cc:License></rdf:RDF>
</metadata>
  <rect
     width="312.5"
     height="312.5"
     x="0"
     y="0"
     id="Flaggduk"
     style="fill:#eeeeee" />
  <path
     d="m 156.25,0 0,156.25 156.25,0 L 312.5,0 156.25,0 z m 0,156.25 -156.25,0 0,156.25 156.25,0 0,-156.25 z"
     id="use3171"
     style="fill:#000000" />
  <g
     transform="matrix(0.975037,-0.137032,0.137032,0.975037,25.150989,179.52239)"
     id="Bock">
    <use
       transform="matrix(0.856874,0.197824,-0.197824,0.856874,9.864201,-11.03074)"
       id="Horn-2"
       x="0"
       y="0"
       width="251"
       height="304.20001"
       xlink:href="#Horn" />
    <path
       d="m 28.799688,5.6602654 c 0.85066,1.6245 2.489,2.12137 4.375,2.375 2.21495,0.29786 6.49226,0.9156803 6.5625,0.7812503 0.10526,-0.20145 -3.95144,-1.8318503 -6.09375,-2.0937503 -1.03947,-0.12707 -2.35629,-0.35562 -3.12521,-1.00618 -1.02976,-0.87125 0.52248,-2.46739 0.21616,-2.71777 -1.11862,-0.91433 -2.73301,1.13693 -1.9347,2.66145 z"
       id="path2843"
       style="fill:#d40000;stroke:none" />
    <g
       id="g2845"
       style="fill:#ffcd50;stroke:none">
      <path
         d="m 20.3309,5.91025 c -0.179,0 -0.66669,0.31341 -1.0625,0.71875 -0.7046,0.7216 -0.70781,0.75725 -0.375,1.125 0.6887,0.4331 1.3223,1.04471 2.0625,1.34375 0.6379,0.56512 0.8291,0.94328 0.78125,1.6875 -0.49933,0.79943 -1.07165,1.22272 -0.46875,2.1875 0.22946,0.20007 0.93597,0.71222 1.5625,1.125 0.866,0.57057 1.34778,1.10418 2.0625,2.1875 1.23593,1.87343 2.81633,4.86017 3.625,6.9375 2.55323,6.55895 2.36245,6.21322 3.75,7.5625 0.66302,0.64473 1.90292,1.77686 2.875,2.5625 0.12329,-0.01154 0.18842,-0.01203 0.375,-0.03125 -0.03775,-0.01426 -0.08877,-0.01562 -0.125,-0.03125 -0.15031,-0.06485 -0.29864,-0.14908 -0.4375,-0.3125 -0.13886,-0.16342 -0.20936,-0.52898 -0.09375,-0.75 l 0.03125,-0.0625 0.0625,-0.0625 c 0.23719,-0.2372 0.5366,-0.31074 0.9375,-0.375 0.26261,-0.04209 0.72034,-0.06925 1.125,-0.09375 -0.04231,-0.02214 -0.07848,-0.02437 -0.125,-0.0625 -0.09858,-0.08079 -0.21876,-0.23455 -0.21875,-0.4375 l 0,-0.34375 0.3125,-0.125 c 1.06006,-0.42485 2.1053,-0.58295 3.125,-0.8125 -0.02567,-0.01147 -0.03548,-0.02034 -0.0625,-0.03125 -0.41092,-0.16595 -0.96531,-0.27863 -1.28125,-0.25 l -0.5625,0.0625 0,-0.5625 c 0,-0.15315 0.03247,-0.27682 0.09375,-0.375 -0.47214,-0.27539 -0.85114,-0.51574 -0.96875,-0.65625 -1.28283,-1.1567 -2.1696,-2.71267 -3.5625,-3.6875 -1.19689,-0.36653 -3.44498,-2.24135 -4.9375,-4.09375 -1.69799,-2.49087 -2.93024,-5.21099 -4.09375,-7.96875 0,-0.58979 -1.90153,-4.71182 -2.21875,-4.8125 C 21.79771,6.9491 21.14263,6.27779 20.3309,5.91025 z"
         id="Front-right-leg" />
      <path
         d="m 51.78446,3.15341 c -1.04078,-0.70485 -2.2014,-1.23196 -2.71875,-1.28125 -0.43112,8e-4 -0.8471,0.23281 -1.25,0.37501 -0.58225,0.22153 -1.63412,0.27486 -4.9375,0.28125 -4.07015,0.00788 -4.46616,0.46559 -4.83711,0.74336 -0.30895,0.23134 -0.73769,0.65038 -0.47185,0.91598 0.28144,0.28121 0.74545,0.38407 1.24336,0.65423 0.57691,0.31302 1.1704,0.54485 1.36633,-0.25204 0.16834,-0.68469 -0.02775,-1.38815 0.23972,-0.88837 0.31995,0.59778 -0.14472,1.62506 -0.8842,1.63934 -0.168,0.00324 -0.83537,-0.27951 -1.46875,-0.59375 -1.60568,-0.79666 -2.59375,-0.52593 -2.59375,0.6875 0,0.71044 0.2931,1.05119 1.15625,1.375 1.56665,0.58775 2.14402,0.86855 2.53125,1.28125 0.22946,0.24454 0.40625,0.50666 0.40625,0.59375 0,0.13543 -2.78623,0.2731 -3.78125,0.18749 -0.18279,-0.01571 -0.60861,0.09952 -0.96875,0.25 -0.55385,0.23143 -0.63794,0.33147 -0.53125,0.68751 0.18581,0.62003 0.81615,1.06201 1.65625,1.125 l 0.75,0.0625 c 2.10282,1.44826 4.69165,2.71593 7.21875,3.24999 l 1.625,1.53125 c 2.03347,1.96415 3.43098,2.64938 5.53125,2.71876 2.47462,-0.0891 3.80207,-1.11572 5.125,-3.09375 0.32006,-0.67445 0.625,-0.80986 0.625,-0.28125 10e-6,0.50606 -1.01654,1.97326 -1.71875,2.5 -1.55555,1.27459 -3.01517,1.69399 -5,1.65624 -2.33447,-0.05381 -2.20335,-0.09646 -3.1875,1.03125 -0.31824,0.36469 -0.30652,0.41225 -0.03125,0.68751 0.4548,0.45479 0.09848,0.85852 -1.28125,1.53125 -1.00017,0.48766 -2.04863,0.82611 -3.0625,1.28124 0,0 0.25203,0.81727 1.53125,1.30458 -0.86323,0.71936 -2.07699,0.52492 -3.125,0.91418 -1.10851,0.95136 0.73938,0.96228 1.53125,1.15624 -0.52029,0.52171 -1.23811,0.48372 -1.84375,0.75001 -0.78153,0.33871 -1.91425,0.75157 -1.91425,1.13942 0.87709,-0.07948 2.39702,0.43597 2.35175,1.04808 -1.29438,0.38078 -2.66152,0.50114 -3.90625,1 0,0.19697 0.84303,0.31257 2.90625,0.40625 0.37278,0.74588 -1.60391,0.54145 -2.4375,0.56249 -1.52339,0.06238 -2.08565,0.14815 -2.3125,0.37501 -0.28585,0.54652 2.4843,0.75439 3.05846,0.89742 -0.17779,0.17781 -3.12037,0.50184 -3.49596,0.50883 -0.40844,0.0076 -0.42958,0.34108 -0.03125,0.78124 0.91415,0.31141 3.39657,-0.01078 3.21875,0.71876 -1.61364,0.95523 -3.79164,-0.18057 -4.94498,1.68546 3.85467,1.45467 7.45667,3.4368 10.75748,6.00203 -1.76524,-0.17662 -5.48773,-3.8311 -9.96875,-4.65624 -0.40577,-0.05702 -0.91886,-0.21586 -1.125,-0.34376 -3.48876,-1.32048 -6.69618,-3.83647 -10.59375,-4.18749 0,0 -0.67188,-0.19543 -1.5625,0.30457 -0.89063,0.5 -2,1.69543 -2,1.69543 -2.62472,2.58218 -5.09689,4.86136 -8.0625,6.90624 -0.08421,-1e-5 -2.54232,1.63815 -2.71875,1.8125 -0.38158,0.2082 -0.4274,0.23931 -0.6875,0.34376 -0.84336,0.20811 -1.34191,0.67971 -1.5625,1.46875 -0.11389,0.40736 -0.40535,1.1131 -0.65625,1.5625 -0.25089,0.44939 -0.36923,0.87642 -0.28125,0.9375 0.08798,0.06108 0.33099,0.35604 0.5625,0.68749 0.54896,0.78602 1.27401,0.83351 1.4375,0.09375 0.06199,-0.28044 0.24732,-0.90132 0.40625,-1.40625 0.15893,-0.50493 0.27262,-1.02262 0.625,-1.37499 0.35238,-0.35239 0.6566,-0.24664 0.78125,0.24999 0.14873,0.59258 0.75125,0.90645 1.21875,0.65625 0.29212,-0.15635 1.125,-1.61805 1.125,-1.96875 0,-0.35271 1.78991,-2.78181 2.625,-3.5625 1.75321,-1.63902 2.46111,-2.28033 2.59375,-2.28124 2.81867,-1.79323 7.32861,-2.44638 9.8125,0.24999 10e-6,0.2182 1.1318,1.96622 2.40625,3.68751 0.25133,0.33945 0.99336,1.16118 1.65625,1.84374 0.6629,0.68254 1.45233,1.52228 1.75,1.84376 0.29764,0.32146 0.72522,0.65731 0.9375,0.75 0.99853,0.52511 2.0144,1.01533 3.0625,1.43749 1.42764,0.61184 1.95065,0.87227 2.1875,1.09376 0.13922,0.13017 0.7407,0.21875 1.34375,0.21875 1.01176,0 1.10805,-0.03857 1.875,-0.78126 0.44759,-0.43344 1.02629,-1.04785 1.28125,-1.37499 0.43767,-0.56153 1.09375,-0.82958 1.09375,-0.4375 -0.71289,1.58526 -1.82283,2.3691 -3.34375,3.34375 -0.85281,0.4264 -4.4375,-1.375 -4.4375,-1.375 -1.97718,-1.1873 -1.6596,-0.04126 -0.65625,1.34374 2.86119,3.46984 6.78403,6.27082 8.875,10.59376 0.61593,1.64973 1.75808,2.49556 3.125,3.40624 1.49929,0.92255 2.95919,1.84401 4.3125,2.96875 0.6617,0.58994 0.78378,0.58813 0.9375,0.18751 0.2669,-0.69554 0.11049,-1.66373 -0.75,-4.625 -0.51975,-1.78863 -0.54077,-2.17509 -0.125,-2.09376 0.75978,0.14861 1.51875,2.82131 1.53125,5.34376 0.0011,3.70025 -0.72725,7.27541 -1.21875,10.93749 -0.38716,2.78351 -0.62366,5.2968 -0.625,6.5 -0.0026,2.30138 -0.24943,3.22465 -1.3125,5.46876 -1.18622,2.50408 -1.49582,3.52341 -1.75,5.65624 -0.42716,2.87655 -1.80675,4.69232 -3.6875,6.96875 -1.72782,1.96941 -3.56636,3.81873 -5.6875,5.34376 -1.22231,0.71127 -2.43554,1.44083 -3.65625,2.15624 -0.89688,0.92396 -2.24132,0.44382 -1.34375,3.03125 0.0045,1.21138 0.22809,1.40124 1,0.81251 0.84139,-0.64179 1.12903,-0.63855 0.96875,0 -0.20637,0.82226 0.7002,1.08106 1.375,0.40625 0.20397,-0.20397 0.375,-0.48847 0.375,-0.65626 0,-0.63539 1.29586,-2.99433 2.125,-3.84374 1.46325,-1.58296 3.37444,-2.58099 5.03125,-3.90625 0.58462,-0.44917 1.14097,-0.84093 1.8125,-1.125 1.90639,-0.47069 3.80375,-0.8901 5.5625,-1.75 0.51881,-0.43056 0.60281,-0.93071 0.34375,-2.03126 -0.34586,-1.46916 -0.3035,-2.03438 0.21875,-3.15624 1.9319,-2.87783 5.24461,-3.8533 8.15625,-5.5625 0.20397,-0.09506 0.58314,-0.35299 0.84375,-0.59376 4.45925,-2.54357 8.19473,-2.06041 11.4375,-7.21875 0.31382,-0.45838 0.92044,-1.53938 1.34375,-2.40625 0.72594,-1.48664 0.76589,-1.70253 0.9375,-3.96875 0.20465,-2.7021 0.39505,-3.12531 1.21875,-2.74999 0.59225,0.26983 2.87561,0.2957 3.875,0.03125 1.79981,-0.41854 3.51821,-0.6177 5.375,-0.90626 0.341,-10e-6 0.71679,-0.12826 0.84375,-0.28125 0.34263,-0.41282 -0.07992,-0.84374 -0.84375,-0.84374 -0.49486,0 -0.59162,-0.04252 -0.5,-0.28126 0.09683,-0.25238 0.28721,-0.2916 1.34375,-0.18749 0.87214,0.08594 1.31346,0.05639 1.40625,-0.09375 0.20875,-0.33777 -0.28927,-0.52816 -1.34375,-0.53126 -0.78328,-0.0023 -0.96139,-0.05611 -0.875,-0.28125 1.98805,-0.40495 2.94622,0.37845 4.71875,1.37501 0.37675,0 0.10658,-1.54034 -0.4375,-2.46875 -0.43432,-0.74114 -0.60351,-0.85774 -1.34375,-0.96875 -1.14268,-0.17135 -2.33007,0.02494 -3.28125,0.56249 -0.43932,0.24826 -0.90953,0.52449 -1.0625,0.59375 -0.15297,0.06927 -0.59713,0.36725 -0.96875,0.65625 -0.37163,0.28904 -0.7213,0.53125 -0.78125,0.53125 -0.05997,0 -0.40026,0.2623 -0.75,0.59376 -1.05916,0.98907 -1.9879,2.029 -3.4375,2.1875 -1.55496,0 -2.8719,-1.44372 -4.09375,-4.46876 -0.60177,-1.76606 -1.83399,-3.13637 -3.03125,-4.53124 -2.18231,-2.77003 -4.28169,-5.65685 -6,-8.81251 -1.41325,-2.62577 -1.79627,-3.97812 -2.25,-7.78124 -0.12776,-1.07084 -0.52896,-3.40277 -0.875,-5.18751 -1.32689,-6.84343 -1.4571,-7.70013 -1.71875,-10.6875 -0.09861,-1.12569 -0.24515,-2.19952 -0.3125,-2.375 -1.07546,-0.64425 -1.27565,-0.9093 -0.78125,-1.96875 0.52403,0.86593 1.18662,1.38223 2.0625,1.84375 0.30212,0 0.3344,-0.08073 0.25,-0.5 -0.30701,-1.52469 -0.73843,-5.07406 -0.625,-5.18749 0.07258,-0.07258 0.44831,0.22807 0.8125,0.65625 0.71396,0.83937 1.2073,0.88573 0.625,0.06249 -0.207,-0.29261 -0.48449,-1.237 -0.65625,-2.28124 -0.3712,-2.25665 -0.35395,-2.29374 0,-2 0.54141,0.44932 0.83169,0.08792 0.71875,-0.875 -0.47708,-4.06767 -1.41364,-8.32587 -1.90625,-8.71875 -0.15983,-0.12748 -0.60818,-0.25 -1,-0.25 -0.95122,-0.05128 -1.72122,-0.53418 -2.46453,-1.03969 -0.38766,-0.47381 -0.56672,-1.49156 -0.56672,-1.49156 -0.39423,-1.50972 -0.32241,-1.58049 0.78125,-1.12501 2.1903,0.8935 4.2123,2.1304 6.44721,2.89865 0.76415,0.20881 1.42779,0.43574 1.42779,0.3201 0,-0.10615 -1.93248,-1.66207 -3.875,-3.12499 C 60.5094,8.41346 59.7927,7.86232 59.69071,7.77842 59.1187,7.30777 57.67274,6.79813 57.25321,6.90341 56.9293,6.98471 56.76728,6.91544 56.69071,6.71591 56.49744,6.21228 57.2393,6.20494 57.78024,6.24801 58.78763,6.27658 59.22758,6.4223 60.06571,6.74717 60.38523,6.92593 60.53069,6.563 60.31571,6.21591 59.81547,5.40827 57.91931,3.42613 57.51691,2.91776 56.37055,2.86854 56.05793,3.21878 54.88958,3.761 53.37281,4.47599 52.84844,4.20276 51.78446,3.15341 z"
         id="path2848" />
      <path
         d="m 57.88919,9.60867 c 0.7522,0.25843 1.76058,0.76867 2.22127,0.97381 2.92503,1.30247 7.3411,2.30277 0.9662,1.83106 -0.33002,-0.02458 -1.25046,0.40798 -3.51517,-0.81756 -0.67552,-0.36557 -1.81629,-3.53796 0.3277,-1.98731 z"
         id="path2850" />
      <path
         d="m 73.87821,85.05966 c 0.15736,0.02532 0.08809,0.31053 -0.65625,3.15625 -0.99028,3.78613 -1.2689,5.71794 -1.15625,8.15626 0.07135,1.54458 0.20711,2.44741 0.5,3.25 0.6484,1.77679 0.99283,3.18681 0.875,3.65624 -0.27767,0.6155 0.01153,0.62733 -1.5,1.5 0.04351,0.0435 -0.27115,0.85495 -0.71875,1.8125 -1.1123,2.43207 -1.88816,4.99133 -2.58531,7.56672 -0.37559,1.97902 -0.57367,3.83672 -0.82094,5.87079 -0.33671,2.64599 -0.60595,3.36175 -1.28125,3.53124 -0.98211,-0.0321 -0.99278,-0.9583 -1.21875,-1.78125 -0.53881,0.84098 -1.21564,1.57684 -1.96875,2.25001 -0.93504,0.46777 -1.42633,1.34372 -1.96875,2.18749 -0.64851,-0.19843 -1.11486,-0.64424 -1.625,-1.03125 -0.1302,-0.80283 0.61742,-1.47012 1.0625,-2.15624 0.41992,-0.81203 1.69849,-1.91984 2.65625,-2.28126 0.15399,-0.0581 0.59901,-0.57534 0.96875,-1.15625 1.06697,-1.6765 1.38401,-2.29756 2.625,-5.3125 0.64954,-1.57806 1.35574,-4.86256 1.59375,-7.24999 0.18754,-1.88133 0.19335,-2.11481 -0.15625,-3.125 -0.24573,-0.71012 -0.37499,-1.56866 -0.375,-2.4375 0,-1.11112 -0.07468,-1.34716 -0.34375,-1.4375 -0.842,-0.28275 -3.02983,-2.39266 -3.5625,-3.43751 -0.67683,-1.3276 -1.31249,-3.06356 -1.3125,-3.59374 0,-0.63764 0.63079,-1.23121 1.3125,-1.25001 4.74239,-1.35536 6.86423,-3.23654 9.5625,-6.6875 0.03087,0 0.07127,-0.0036 0.09375,0 z"
         id="Rear-right-leg" />
    </g>
    <g
       id="Hoofs"
       style="fill:#d40000;stroke:none">
      <path
         d="m 29.85055,115.04359 c -0.69525,0.60912 -1.5304,1.08627 -2.23653,1.54531 -1.01917,0.65169 -1.42481,-0.46824 -1.42481,-0.70753 1.83832,-1.48711 4.41181,-1.31468 6.03125,-3 0.36993,-0.58373 0.61575,-0.86023 0.75,-0.84376 0.13424,0.0165 0.17011,0.31393 0.125,0.9375 -0.04889,0.67577 0.009,1.29158 0.1875,1.71876 l 0.28125,0.6875 -1.15625,1.68749 c -1.12219,1.66438 -1.14453,1.69632 -1.875,1.68751 -1.35911,-0.1194 -2.44589,-0.77249 -3.5,-1.5625 1.18454,-0.71342 2.33067,-1.28637 3.3125,-2.34376 -0.07212,-0.11667 -0.32656,0.046 -0.49491,0.19348 z"
         id="path4856" />
      <path
         d="m 17.26091,0.72619 c 0.14795,0.07404 0.34268,0.35009 0.65625,0.78124 1.1799,1.4207 2.28125,3.81251 2.28125,3.81251 l -0.9375,0.875 C 18.57608,7.03316 17.97666,7.27242 16.97966,7.47619 12.32362,3.97583 13.90527,3.67424 15.57341,0.88244 c 1.5649,1.0709 3.27963,4.74452 3.9375,4.5625 -0.91799,-1.62423 -3.49387,-4.33171 -2.25,-4.71875 z"
         id="path4854" />
      <path
         d="m 4.11644,49.08577 c 0.28908,1e-5 1.84374,1.60768 1.84375,1.90625 0,0.41278 -0.90056,2.89255 -1.3125,3.625 -0.21393,0.38041 -0.6043,0.77877 -0.875,0.90625 -0.58243,0.27427 -1.5708,0.52214 -2.125,0 -0.93581,-0.88167 -1.05177,-1.18239 -0.33455,-1.97644 0.90664,-1.09778 2.29623,-2.74436 2.08455,-2.99231 -0.94432,0.96745 -2.62207,3.72142 -3.15625,3.34375 -0.21428,1e-5 0.45261,-1.58609 0.84375,-2 0.12521,-0.13247 0.33798,-0.38903 0.46875,-0.56249 0.42785,-0.56754 2.3021,-2.44264 2.5625,-2.25001 z"
         id="path4852" />
      <path
         d="m 58.38591,125.04275 c 0.11362,-0.0253 0.26144,-0.006 0.40625,0.0313 0.28962,0.0746 0.6142,0.28969 0.84375,0.56249 0.25745,0.30596 0.56909,0.55911 0.6875,0.5625 0.11842,0.003 0.4148,0.1739 0.65625,0.37501 0.41482,0.34556 0.42597,0.38737 0.21875,1.21874 -0.1206,0.4839 -0.35132,1.08304 -0.5,1.3125 -0.41598,0.64202 -1.68329,0.50413 -3.9375,-0.4375 -0.33492,-0.13986 -0.74947,-0.25 -0.9375,-0.24999 -0.18803,1e-5 -0.44789,-0.11188 -0.5625,-0.25001 -0.31527,-0.37984 0.86869,-1.84146 1.90625,-2.34374 0.46197,-0.22364 0.91118,-0.50059 0.96875,-0.59376 0.05696,-0.0922 0.13638,-0.16214 0.25,-0.1875 z"
         id="path4864" />
    </g>
    <path
       d="m 57.654418,2.6683754 c 2.04702,-2.16781994 4.8297,-2.00316994 5.53187,-1.5890099 0.70218,0.41415 1.34739,0.8825999 1.93935,1.6184999 -0.59196,-0.7359 -1.23717,-1.2043499 -1.93935,-1.6184999 2.01424,-0.72809004 3.17957,-0.32202004 3.88546,0.30528 0.52943,0.4704699 1.00188,0.9952399 1.13069,1.7392199 -0.12881,-0.74398 -0.60126,-1.26875 -1.13069,-1.7392199 1.26812,-0.34194 2.78826,0.4843499 3.38024,1.2202399 0.59196,0.73589 0.54242,1.21647 0.4378,1.85792 0.10462,-0.64145 0.15416,-1.12203 -0.4378,-1.85792 1.3932,0.18888 2.45575,1.34299 2.7536,1.8175 0.29784,0.47452 0.42294,1.00534 0.14555,1.7031 0.27739,-0.69776 0.15229,-1.22858 -0.14555,-1.7031 1.2223,0.35177 2.28674,1.61242 2.35672,2.30412 0.06999,0.69171 -0.26437,1.44377 -0.71822,1.9847003 0.45385,-0.5409303 0.78821,-1.2929903 0.71822,-1.9847003 0.82541,0.83843 2.08259,2.3204203 1.80522,3.0181803 -0.2774,0.6977703 -0.78821,1.2929903 -1.24207,1.8339303 0.45386,-0.54094 0.96467,-1.13616 1.24207,-1.8339303 0.9449,1.0495503 1.39654,2.7736603 1.1929,2.9858403 -0.51081,0.59524 -0.73868,0.81242 -1.42411,1.35739 0.68543,-0.54497 0.9133,-0.76215 1.42411,-1.35739 0.535,0.79019 0.91679,2.66042 0.66809,2.96071 -0.65386,0.78949 -0.81954,0.78125 -1.57312,0.74108 0.75358,0.04017 0.95024,0.06932 1.57312,-0.74108 0.25018,1.06165 0.12607,1.99916 -0.18574,2.16368 -0.33979,0.17927 -0.58247,0.35665 -1.27722,0.36877 0.69475,-0.01212 0.76082,-0.09325 1.27722,-0.36877 0.0315,1.06252 0.01421,2.16056 -0.43855,2.34669 -0.33537,0.13786 -1.37758,-0.22594 -0.95837,-0.10111 0.55052,0.16391 0.44409,0.1567 0.95837,0.10111 -0.14752,0.66723 -0.36627,3.27319 -0.82228,3.23586 -0.41502,-0.03398 -0.36934,-1.0243 -0.41413,-1.76615 -0.44751,-7.50876 -2.53283,-19.2727606 -16.34178,-14.9575906 l -3.37162,-4.04535 z"
       id="Horn"
       style="fill:#d40000;stroke:#000000;stroke-width:0.23568203" />
    <g
       id="g2859">
      <path
         d="m 46.88689,5.34424 c 1.37255,0.6156 1.53852,1.6868 3.03352,2.26351 1.30749,0.50468 2.35312,-0.24998 4.11321,0.09484 -2.6644,-0.92725 -1.91434,-2.43697 -3.32174,-3.01084 -1.5831,-0.64528 -2.19804,0.991 -3.82499,0.65249 z"
         id="path4169"
         style="fill:#000000;stroke:none" />
      <path
         d="m 50.92383,5.02068 c 1.89973,1.99463 0.46727,3.45935 -1.89109,1.87581 1.503,-0.15074 1.90051,-0.62241 1.89109,-1.87581 z"
         id="use2125"
         style="fill:#ffcd50;stroke:none" />
    </g>
  </g>
  <use
     transform="translate(156.25,-156.25)"
     id="use3269"
     x="0"
     y="0"
     width="312.5"
     height="312.5"
     xlink:href="#Bock" />
  <g
     transform="matrix(1.149045,0,0,1.149045,5.3388685,-5.0056119)"
     id="g3373">
    <g
       transform="matrix(0.21833743,0,0,0.21833743,10.646254,12.681336)"
       id="Elk">
      <g
         id="g8651"
         style="fill:#ffcd50;stroke:none">
        <path
           d="m 173.4723,93.43649 c -12.1301,4.0626 -40.61828,-9.847479 -40.61828,-9.847479 l -2.96873,-5.95134 -0.001,-7.1e-5 C 82.2991,78.92113 41.5822,41.5542 65.0154,19.4587 c 3.07899,19.2963 11.3743,36.2988 30.1598,36.9681 5.23248,-0.528662 10.465,-2.51858 13.0674,-5.09301 -10.3601,-15.1727 -16.6283,-24.9871 -10.6217,-32.366 12.6051,10.7612 19.3655,32.0434 37.8159,32.2835 22.3954,0.472536 50.3436,-41.4312 64.5563,-36.5746 -5.15367,10.321 -20.5362,22.6877 -15.461,30.9631 11.4384,3.19777 26.384,-26.3364 52.7276,-25.7686 -9.8813,21.8222 -39.3435,26.4016 -30.5206,41.2098 27.5865,2.2011 48.7435,-45.8652 73.1155,-41.6183 -14.9769,16.2505 -20.454,18.9584 -19.351,31.7971 9.65226,4.29562 21.6428,-20.9262 47.077,-26.8594 -8.3795,24.1441 -20.5583,20.232 -16.0787,32.3938 17.678,0.77641 36.9026,-7.69011 30.7126,-34.3863 12.1921,4.25934 15.3488,12.9764 14.292,24.251 5.55761,-1.05931 10.7255,-6.30737 13.1661,-15.1597 15.5013,28.7754 -41.0312,67.3861 -67.3563,68.203 -22.667,0.70356 -96.7139,-10.3283 -108.844,-6.2657 z"
           id="path2335" />
        <path
           d="m 165.798,526.014 c 4.26501,-4.71203 17.1927,-15.2975 21.0308,-30.4631 4.32794,-7.13055 31.4742,-3.50674 28.5163,3.58073 -16.8747,22.1159 -34.4149,29.6189 -49.5471,26.8824 l 0,-3e-5 z"
           id="path2329" />
        <path
           d="m 342.026,527.475 c 4.26501,-4.71203 22.161,-23.4811 21.9076,-33.9704 4.62047,-13.8524 30.5975,5.7e-4 27.6395,7.08804 -16.8747,22.1159 -34.4149,29.6189 -49.5471,26.8824 l 0,-4e-5 z"
           id="path2331" />
        <path
           d="m 149.473,467.749 c -8.80697,-14.1661 -22.8277,-26.5527 -36.7665,-33.6549 -2.94605,-3.82847 20.9719,-21.5051 23.0445,-18.4269 13.9003,22.4926 17.3772,39.2494 13.722,52.0818 z"
           id="path2333" />
        <path
           d="m 249.675,516.954 c 4.26501,-4.71203 22.161,-23.4811 21.9076,-33.9704 4.62047,-13.8524 30.5975,5.7e-4 27.6395,7.08804 -16.8747,22.1159 -34.4149,29.6189 -49.5471,26.8824 l 0,-4e-5 z"
           id="path2339" />
      </g>
      <path
         d="m 173.4723,93.43649 c -8.76586,2.93613 -13.9215,8.63093 -13.6471,14.262 19.607,-10.8507 57.6261,44.5904 67.6321,44.3534 14.8615,-6.08315 32.7957,-3.83584 52.2698,6.30029 16.5764,8.62782 30.1042,29.9191 52.5762,38.2805 7.95884,2.96136 59.8986,8.26385 93.318,28.6557 31.6111,19.2889 53.2344,57.21 34.4863,75.7891 -1.8703,-17.4317 -4.26898,-27.7126 -10.0352,-33.4534 11.8409,20.9744 0.468,41.9443 -1.44085,64.2844 -2.00239,23.4377 18.6319,33.6217 18.2537,43.666 -0.41187,10.9451 -37.6217,49.6905 -61.6388,83.7443 -13.2619,18.8036 4.20321,37.6146 -9.12048,53.4821 -0.65452,-21.4447 -14.5998,-22.2148 -30.1093,-23.3714 -1.81587,-7.7743 17.0014,-19.3847 33.1903,-41.1829 8.47985,-11.4177 11.1966,-28.4582 17.1675,-37.7351 2.22406,-12.5093 0.64913,-24.4338 -0.34129,-35.7738 -36.582,-14.8238 -66.6834,-49.3033 -70.6941,-75.9841 -2.68554,-18.2639 2.03244,-36.9176 14.1551,-55.9599 -13.9972,13.5278 -18.3864,32.5483 -18.3535,54.6503 -21.3871,0.0493 -100.967,49.1936 -106.855,34.3114 -0.73985,-21.8231 -1.51143,-37.0211 -8.5887,-43.7828 5.73364,8.32224 6.66907,41.2912 3.53764,44.8407 -10.2946,12.9546 -10.8853,31.0845 -9.46205,50.2886 1.82778,13.2809 1.21918,25.1011 -4.74775,33.7059 l 0.24236,66.9209 c 0.86995,8.42145 3.59065,14.046 9.76054,20.596 -8.37015,-1.42611 -19.478,-10.1015 -23.6319,-11.1407 -4.95496,-1.23987 -8.02715,1.05052 -15.1064,0.6205 -0.25512,-5.74441 4.26359,-12.365 11.8023,-15.7706 l -1.51228,-60.4554 c -5.5046,-14.9735 -9.57147,-39.3954 -6.50211,-48.1329 -14.8241,-23.1452 -25.7392,-56.0325 -31.1621,-83.1878 l -2.46699,0.51109 c 2.23342,15.7221 6.62089,31.9286 13.1536,46.5761 -3.68079,-2.772 -12.1201,-15.6835 -15.1654,-26.3412 -1.25603,2.5098 0.005,12.7106 -1.31159,11.2357 -11.4905,-12.8724 -13.1162,-23.4618 -10.0845,-37.3065 -6.43975,-0.90312 -11.126,4.03881 -15.8119,5.18145 -0.20466,-12.1198 11.573,-11.0883 9.03034,-29.3451 -5.74158,4.87276 -10.6064,5.36173 -17.2247,10.2345 1.46438,-8.89144 11.4044,-15.7371 12.869,-28.4275 -9.73446,3.56202 -13.3313,10.9233 -21.312,13.3166 -1.11884,-10.7283 23.1883,-40.1607 -1.31046,-33.9384 0.87109,-6.35811 2.8338,-14.6163 5.65172,-19.3303 4.69673,-7.85679 9.69251,-11.5863 0.73332,-22.1831 -6.86608,2.10614 -10.3995,28.2971 -17.107897,35.9737 -0.990993,-3.12208 -1.9817,-6.24416 -3.84917,-7.61244 -5.41389,2.25298 -7.32076,22.3333 -11.5654,27.2166 0.515906,-16.7454 -8.38148,-30.9563 -8.59635,-43.562 -0.219969,-12.9059 8.8526,-22.7177 -4.1967,-39.2264 -8.36278,0.14797 -12.7809,11.7309 -21.7602,13.235 -2.99282,0.50117 -7.66205,-3.5589 -10.8147,-2.99792 -2.51178,0.19474 -5.31581,-0.68173 -11.0424,3.50759 -4.14681,1.17638 -0.616819,-2.45565 -3.13824,-3.85484 -6.22233,-2.71332 -7.76665,-14.4978 -0.951591,-39.1028 5.75263,-12.2204 44.9232,-30.577599 110.210998,-36.428599"
         id="path2581"
         style="fill:#d40000;fill-opacity:1;stroke:#eeeeee;stroke-width:0.99212599" />
      <ellipse
         cx="21.1891"
         cy="145.979"
         rx="5.2209401"
         ry="8.5848703"
         id="ellipse2337"
         style="fill:#d40000;fill-opacity:1;stroke:#eeeeee;stroke-width:0.99212599" />
      <path
         d="m 63.9649,330.589 c 0.576,-12.0685 45.4402,-31.633 73.6543,-39.2794 1.30025,12.1978 6.859,23.91 16.9211,33.3658 1.89269,-1.76797 1.43348,-5.01307 1.68123,-5.39462 0.88895,2.95228 6.77055,13.4107 10.5267,15.986 -7.40948,2.06674 -18.6123,6.17698 -26.8552,5.33424 -7.92964,-0.81043 -13.0425,-2.21613 -15.5197,-2.27282 -6.33317,-0.96293 -8.79704,4.43112 -14.5775,3.1921 -11.8879,0.81354 -17.2344,-5.02895 -21.0144,-11.3085 0.352063,5.80224 4.49802,8.08186 9.56693,14.0015 3.9121,15.1291 0.905953,43.3052 10.0794,52.0274 9.33874,8.87925 32.2212,6.42813 33.5458,15.0316 -13.1057,4.6063 -24.645,12.9898 -34.0648,25.7032 -1.41931,-0.7611 3.0943,-14.7509 -2.00551,-22.1227 -14.5174,-20.986 -42.2303,-77.1755 -41.9386,-84.2636 l 2.5e-4,-2e-4 z"
         id="path2341"
         style="fill:#d40000;fill-opacity:1;stroke:#eeeeee;stroke-width:0.99212599" />
      <path
         d="m 306.353,315.001 c 4.09805,-6.22489 24.45,-12.867 35.8104,-14.942 1.27786,14.0811 10.1934,27.8666 22.1264,41.8995 20.7303,24.3782 44.4544,32.5956 42.914,41.6115 -0.40762,7.62889 -43.6978,27.7075 -57.2465,40.5241 -21.0696,16.7457 -47.4959,40.4192 -46.7161,50.387 -0.4011,12.5994 12.3976,16.5288 11.9478,20.2439 -14.5565,1.26794 -14.976,-10.5287 -23.0927,-12.3202 -8.15811,-1.80057 -18.906,1.83402 -19.5319,-5.26337 13.2154,-16.56 27.3665,-28.5605 42.6566,-43.8557 15.8119,-15.817 38.166,-48.8296 35.9805,-56.9909 1.00176,-13.6959 -41.8156,-19.3527 -44.8484,-61.2939 l -10e-5,7e-5 z"
         id="path2343"
         style="fill:#d40000;fill-opacity:1;stroke:#eeeeee;stroke-width:0.99212599" />
      <ellipse
         cx="0"
         cy="0"
         rx="6.76829"
         ry="2.2288799"
         transform="matrix(0.46451,0.885568,-0.885568,0.46451,141.893,442.571)"
         id="ellipse2345"
         style="fill:#eeeeee;stroke:#eeeeee;stroke-width:0.99212599" />
      <ellipse
         cx="0"
         cy="0"
         rx="6.76829"
         ry="2.2288799"
         transform="matrix(0.735367,0.011505,-0.0176347,0.479761,192.71,497.215)"
         id="ellipse2347"
         style="fill:#eeeeee;stroke:#eeeeee;stroke-width:0.99212599" />
      <ellipse
         cx="0"
         cy="0"
         rx="6.76829"
         ry="2.2288799"
         transform="matrix(0.726023,0.117422,-0.0866301,0.472204,278.047,484.356)"
         id="ellipse2349"
         style="fill:#eeeeee;stroke:#eeeeee;stroke-width:0.99212599" />
      <ellipse
         cx="0"
         cy="0"
         rx="6.76829"
         ry="2.2288799"
         transform="matrix(-0.591178,-0.0812206,0.155198,-1.09894,370.059,494.53)"
         id="ellipse2351"
         style="fill:#eeeeee;stroke:#eeeeee;stroke-width:0.99212599" />
      <line
         style="fill:none;stroke:#eeeeee;stroke-width:0.99212599"
         id="line2353"
         y2="424.47"
         x2="328.05301"
         y1="458.22299"
         x1="293.246" />
      <path
         d="m 376.573,399.156 c 4.21909,-4.57058 15.8216,-15.4698 25.3145,-20.0407"
         id="path2355"
         style="fill:none;stroke:#eeeeee;stroke-width:0.99212599" />
      <line
         style="fill:none;stroke:#eeeeee;stroke-width:0.99212599"
         id="line2357"
         y2="361.18399"
         x2="190.933"
         y1="348.52701"
         x1="181.44" />
      <line
         style="fill:none;stroke:#eeeeee;stroke-width:0.70866197"
         id="line2359"
         y2="392.065"
         x2="195.26601"
         y1="378.94299"
         x1="190.783" />
      <path
         d="m 123.427,177.654 c 4.30668,-1.84564 9.29197,-8.56545 17.7914,-10.2438 7.86218,-1.55254 18.9938,-15.9276 26.5091,-28.7827"
         id="path2361"
         style="fill:none;stroke:#eeeeee;stroke-width:1.98424995" />
      <ellipse
         cx="20.7826"
         cy="145.979"
         rx="4.8144798"
         ry="8.5848703"
         id="ellipse2363"
         style="fill:none;stroke:#eeeeee;stroke-width:0.99212599" />
      <path
         d="m 35.8812,154.449 c 5.53975,-6.45449 11.1648,-11.3766 16.8764,-14.7668"
         id="path2365"
         style="fill:none;stroke:#eeeeee;stroke-width:0.99212599" />
      <path
         d="m 362.861,317.938 c 3.37493,6.98514 4.49972,13.2194 16.8764,23.205"
         id="path2367"
         style="fill:none;stroke:#eeeeee;stroke-width:0.99212599" />
      <path
         d="m 348.895,313.282 c 4.11959,5.80592 5.92583,9.62051 16.4418,19.6061"
         id="path2369"
         style="fill:none;stroke:#eeeeee;stroke-width:0.99212599" />
      <line
         style="fill:none;stroke:#eeeeee;stroke-width:0.99212599"
         id="line2371"
         y2="371.73199"
         x2="462.009"
         y1="387.55301"
         x1="448.297" />
      <line
         style="fill:none;stroke:#eeeeee;stroke-width:0.99212599"
         id="line2373"
         y2="406.539"
         x2="422.983"
         y1="411.81299"
         x1="416.65399" />
      <line
         style="fill:none;stroke:#eeeeee;stroke-width:0.99212599"
         id="line2375"
         y2="392.827"
         x2="422.983"
         y1="395.991"
         x1="417.70901" />
      <path
         d="m 79.1269,147.065 c 15.1384,12.1941 20.2428,9.9703 23.205,-3.16432"
         id="path2377"
         style="fill:none;stroke:#eeeeee;stroke-width:0.70866197" />
      <path
         d="m 78.7403,163.852 c 2.50271,4.82145 9.57912,11.0115 15.7844,0.1046 1.34759,-2.36835 4.86596,7.73235 7.64221,5.2835 2.1634,-1.90857 1.78016,-8.54363 4.33729,-10.9409"
         id="path2379"
         style="fill:none;stroke:#eeeeee;stroke-width:0.36850399" />
      <ellipse
         cx="102.851"
         cy="97.900902"
         rx="2.7764001"
         ry="1.94779"
         id="ellipse2381"
         style="fill:#eeeeee;stroke:#eeeeee;stroke-width:0.99212599" />
      <path
         d="m 109.427,101.456 c 3.01975,-0.5845 4.28627,-1.31528 5.84504,-5.40681"
         id="path2383"
         style="fill:none;stroke:#eeeeee;stroke-width:0.36850399" />
      <line
         style="fill:none;stroke:#eeeeee;stroke-width:0.36850399"
         id="line2385"
         y2="200.85899"
         x2="289.02701"
         y1="191.366"
         x1="291.13599" />
      <path
         d="m 264.767,235.666 c 3.16432,0 6.32863,-6.32863 9.49295,-9.49295"
         id="path2387"
         style="fill:none;stroke:#eeeeee;stroke-width:0.36850399" />
      <path
         d="M 159.975,106.463 135.0298,91.1621 C 153.6642,76.5333 176.1653,68.875 191.9875,71.1214 l -32.0125,35.3415 0,10e-5 z"
         id="path2389"
         style="fill:#d40000;fill-opacity:1;stroke:#d40000;stroke-width:0.99212599;stroke-opacity:1" />
      <path
         d="m 135.03,91.1623 c 18.6344,-14.6288 41.1355,-22.2871 56.9577,-20.0407 l -32.129,35.2701"
         id="path2391"
         style="fill:none;stroke:#eeeeee;stroke-width:0.99212599" />
      <path
         d="M 143.468,100.655 C 156.8283,89.4043 173.0011,79.5601 191.9875,71.1214"
         id="path2393"
         style="fill:#d40000;fill-opacity:1;stroke:#eeeeee;stroke-width:0.99212599" />
      <line
         style="fill:none;stroke:#eeeeee;stroke-width:0.36850399"
         id="line2395"
         y2="143.394"
         x2="126.962"
         y1="139.30299"
         x1="127.839" />
      <line
         style="fill:none;stroke:#eeeeee;stroke-width:0.70866197"
         id="line2397"
         y2="427.46301"
         x2="199.91"
         y1="419.56601"
         x1="197.21201" />
    </g>
    <path
       d="m 21.239549,99.026008 c 0,2.330532 -1.889274,4.219812 -4.219813,4.219812 -2.330538,0 -4.219812,-1.88928 -4.219812,-4.219812 0,-2.330537 1.889274,-4.219812 4.219812,-4.219812 2.330539,0 4.219813,1.889275 4.219813,4.219812 z"
       id="use2477"
       style="fill:#003d8f;fill-opacity:1;stroke:none" />
    <path
       d="m 45.53775,95.355331 c 0,2.330537 -1.889274,4.219813 -4.219813,4.219813 -2.330539,0 -4.219813,-1.889276 -4.219813,-4.219813 0,-2.330538 1.889274,-4.219813 4.219813,-4.219813 2.330539,0 4.219813,1.889275 4.219813,4.219813 z"
       id="use2481"
       style="fill:#003d8f;fill-opacity:1;stroke:none" />
    <path
       d="m 114.75751,50.441686 c 0,2.330537 -1.88927,4.219813 -4.21981,4.219813 -2.33054,0 -4.21981,-1.889276 -4.21981,-4.219813 0,-2.330538 1.88927,-4.219813 4.21981,-4.219813 2.33054,0 4.21981,1.889275 4.21981,4.219813 z"
       id="use2487"
       style="fill:#003d8f;fill-opacity:1;stroke:none" />
    <path
       d="m 75.723383,97.060608 c 0,2.330537 -1.889274,4.219812 -4.219813,4.219812 -2.330539,0 -4.219813,-1.889275 -4.219813,-4.219812 0,-2.330538 1.889274,-4.219813 4.219813,-4.219813 2.330539,0 4.219813,1.889275 4.219813,4.219813 z"
       id="use2489"
       style="fill:#003d8f;fill-opacity:1;stroke:none" />
    <path
       d="m 41.504074,121.23194 c 0,2.33054 -1.889274,4.21981 -4.219813,4.21981 -2.330539,0 -4.219813,-1.88927 -4.219813,-4.21981 0,-2.33054 1.889274,-4.21981 4.219813,-4.21981 2.330539,0 4.219813,1.88927 4.219813,4.21981 z"
       id="use2493"
       style="fill:#003d8f;fill-opacity:1;stroke:none" />
    <path
       d="m 81.466083,128.95495 c 0,2.33054 -1.889274,4.21982 -4.219813,4.21982 -2.330539,0 -4.219813,-1.88928 -4.219813,-4.21982 0,-2.33053 1.889274,-4.21981 4.219813,-4.21981 2.330539,0 4.219813,1.88928 4.219813,4.21981 z"
       id="use2497"
       style="fill:#003d8f;fill-opacity:1;stroke:none" />
    <path
       d="m 99.166145,14.54173 c 0,2.330537 -1.88927,4.219813 -4.21981,4.219813 -2.330539,0 -4.219813,-1.889276 -4.219813,-4.219813 0,-2.330538 1.889274,-4.219813 4.219813,-4.219813 2.33054,0 4.21981,1.889275 4.21981,4.219813 z"
       id="use2499"
       style="fill:#003d8f;fill-opacity:1;stroke:none" />
    <path
       d="m 94.701633,110.2607 c 0,2.33054 -1.889274,4.21981 -4.219813,4.21981 -2.330539,0 -4.219813,-1.88927 -4.219813,-4.21981 0,-2.33054 1.889274,-4.21981 4.219813,-4.21981 2.330539,0 4.219813,1.88927 4.219813,4.21981 z"
       id="use2501"
       style="fill:#003d8f;fill-opacity:1;stroke:none" />
    <path
       d="m 25.782901,72.703981 c 0,2.330537 -1.889274,4.219813 -4.219813,4.219813 -2.330539,0 -4.219813,-1.889276 -4.219813,-4.219813 0,-2.330538 1.889274,-4.219813 4.219813,-4.219813 2.330539,0 4.219813,1.889275 4.219813,4.219813 z"
       id="use2503"
       style="fill:#003d8f;fill-opacity:1;stroke:none" />
    <path
       d="m 86.559013,41.006879 c 0,2.330537 -1.889274,4.219813 -4.219813,4.219813 -2.330539,0 -4.219813,-1.889276 -4.219813,-4.219813 0,-2.330538 1.889274,-4.219813 4.219813,-4.219813 2.330539,0 4.219813,1.889275 4.219813,4.219813 z"
       id="use2505"
       style="fill:#003d8f;fill-opacity:1;stroke:none" />
    <path
       d="m 19.55787,14.672704 c 0,2.330537 -1.889274,4.219813 -4.219813,4.219813 -2.330539,0 -4.219813,-1.889276 -4.219813,-4.219813 0,-2.330538 1.889274,-4.219813 4.219813,-4.219813 2.330539,0 4.219813,1.889275 4.219813,4.219813 z"
       id="use2507"
       style="fill:#003d8f;fill-opacity:1;stroke:none" />
    <use
       transform="translate(-7.7010876,27.651221)"
       id="use2970"
       x="0"
       y="0"
       width="251"
       height="304.20001"
       xlink:href="#use2477" />
    <path
       d="m 122.93099,127.9418 c 0,2.33053 -1.88927,4.21981 -4.21981,4.21981 -2.33054,0 -4.21982,-1.88928 -4.21982,-4.21981 0,-2.33054 1.88928,-4.21982 4.21982,-4.21982 2.33054,0 4.21981,1.88928 4.21981,4.21982 z"
       id="use2976"
       style="fill:#003d8f;fill-opacity:1;stroke:none" />
    <use
       transform="translate(9.0320473,32.448466)"
       id="use3620"
       x="0"
       y="0"
       width="312.5"
       height="312.5"
       xlink:href="#use2487" />
    <use
       transform="translate(22.078338,13.38081)"
       id="use3622"
       x="0"
       y="0"
       width="312.5"
       height="312.5"
       xlink:href="#use2499" />
    <use
       transform="translate(-89.316913,39.807913)"
       id="use3624"
       x="0"
       y="0"
       width="312.5"
       height="312.5"
       xlink:href="#use2499" />
  </g>
  <use
     transform="translate(156.07013,156.86329)"
     id="use3626"
     x="0"
     y="0"
     width="312.5"
     height="312.5"
     xlink:href="#g3373" />
</svg>
