<?xml version="1.0" encoding="UTF-8" standalone="no"?>
<!-- Created with Inkscape (http://www.inkscape.org/) -->

<svg
   xmlns:dc="http://purl.org/dc/elements/1.1/"
   xmlns:cc="http://web.resource.org/cc/"
   xmlns:rdf="http://www.w3.org/1999/02/22-rdf-syntax-ns#"
   xmlns:svg="http://www.w3.org/2000/svg"
   xmlns="http://www.w3.org/2000/svg"
   xmlns:xlink="http://www.w3.org/1999/xlink"
   version="1.0"
   width="312.5"
   height="312.5"
   id="svg4166">
  <defs
     id="defs4168">
    <clipPath
       id="clipPath6099">
      <path
         d="m 119.39836,12.54624 125.7892,0 0,259.37353 -125.7892,0 0,-259.37353 z"
         id="path6101"
         style="fill:#ffcd50" />
    </clipPath>
  </defs>
<metadata
   id="metadata1880"><rdf:RDF><cc:Work
         rdf:about=""><dc:title>Västernorrlands läns vapenflagga</dc:title><dc:date>2012-01-19</dc:date><dc:creator><cc:Agent><dc:title>Lokal_Profil</dc:title></cc:Agent></dc:creator><cc:license
         rdf:resource="http://creativecommons.org/licenses/by-sa/2.5/" /><dc:rights><cc:Agent><dc:title>cc-by-sa-2.5</dc:title></cc:Agent></dc:rights><dc:format>image/svg+xml</dc:format><dc:type
         rdf:resource="http://purl.org/dc/dcmitype/StillImage" /></cc:Work><cc:License
         rdf:about="http://creativecommons.org/licenses/by-sa/2.5/"><cc:permits
         rdf:resource="http://web.resource.org/cc/Reproduction" /><cc:permits
         rdf:resource="http://web.resource.org/cc/Distribution" /><cc:requires
         rdf:resource="http://web.resource.org/cc/Notice" /><cc:requires
         rdf:resource="http://web.resource.org/cc/Attribution" /><cc:permits
         rdf:resource="http://web.resource.org/cc/DerivativeWorks" /><cc:requires
         rdf:resource="http://web.resource.org/cc/ShareAlike" /></cc:License></rdf:RDF>
</metadata>
  <rect
     width="312.5"
     height="312.5"
     x="0"
     y="0"
     id="Flaggduk"
     style="fill:#003d8f" />
  <g
     transform="matrix(1.2421575,0,0,1.2048261,7.9384283,-15.116038)"
     clip-path="url(#clipPath6099)"
     id="vagskuror">
    <path
       d="m 132.40684,44.0625 c -8.78646,8e-6 -11.61762,9.464919 -16.59248,15.5 l 0,79.25 c 1.52928,0 133.28328,0 133.75059,0 l 0,-82.8125 C 245.92538,50.391052 242.71253,44.0625 235.53293,44.0625 222.64092,44.062509 222.65184,64.5 209.75983,64.5 196.86782,64.499989 196.87874,44.0625 183.98673,44.0625 171.09472,44.062509 171.0888,64.5 158.19679,64.5 145.30477,64.499989 145.29885,44.0625 132.40684,44.0625 z"
       id="wave-divider-2"
       style="color:#000000;fill:#eeeeee;fill-opacity:1;fill-rule:nonzero;stroke:none;stroke-width:1.88832211;marker:none;visibility:visible;display:block" />
    <path
       d="m 132.40684,102.71875 c -8.78646,1e-5 -11.61762,9.46492 -16.59248,15.5 l 0,56.71875 c -0.035,7.93861 0.26654,15.43269 0.82541,22.53125 3.10011,0 130.03558,0 132.09977,0 0.56395,-7.09802 0.86044,-14.59332 0.82541,-22.53125 l 0,-60.28125 c -3.63957,-5.60895 -6.85242,-11.9375 -14.03202,-11.9375 -12.89201,1e-5 -12.88109,20.4375 -25.7731,20.4375 -12.89201,-1e-5 -12.88109,-20.4375 -25.7731,-20.4375 -12.89201,1e-5 -12.89793,20.4375 -25.78994,20.4375 -12.89202,-1e-5 -12.89794,-20.4375 -25.78995,-20.4375 z"
       id="wave-divider"
       style="color:#000000;fill:#d40000;fill-opacity:1;fill-rule:nonzero;stroke:none;stroke-width:1.88832211;marker:none;visibility:visible;display:block" />
    <path
       d="m 168.40625,183.8125 c -10.91417,1e-5 -14.41419,11.75348 -20.59375,19.25 l 0,70.46875 c -0.004,0.81468 -0.002,1.59907 0,2.40625 6.17956,-7.49652 9.67958,-19.24999 20.59375,-19.25 16.01391,0 16.01733,25.37499 32.03125,25.375 16.01391,0 16.01734,-25.37499 32.03125,-25.375 16.01391,0 16.01734,25.37499 32.03125,25.375 16.01391,0 15.98609,-25.37499 32,-25.375 8.91819,0 12.91658,7.87655 17.4375,14.84375 l 0,-72.875 c -4.52092,-6.9672 -8.51931,-14.84375 -17.4375,-14.84375 -16.01391,1e-5 -15.98609,25.375 -32,25.375 -16.01391,-1e-5 -16.01734,-25.375 -32.03125,-25.375 -16.01391,1e-5 -16.01734,25.375 -32.03125,25.375 -16.01392,-1e-5 -16.01734,-25.375 -32.03125,-25.375 z"
       transform="matrix(0.80505089,0,0,0.80505089,-3.1706352,13.427651)"
       id="wave-divider-3"
       style="fill:#eeeeee" />
  </g>
  <g
     transform="translate(0,3.7589951)"
     id="g6028">
    <g
       transform="matrix(0.2813052,0,0,0.2813052,-0.09138119,38.643816)"
       id="Lax">
      <path
         d="m 442.1552,81.482275 c 0,0 28.01122,-26.165603 52.57468,-33.532432 5.54832,-1.663997 11.12299,0.14739 11.12299,0.14739 6.8508,17.325986 -3.56905,49.246232 -5.79027,61.445867 0.30195,9.26594 12.1152,20.74322 6.4982,62.51125 -21.31042,0.85666 -48.60282,-23.26555 -63.26091,-31.26412 l 11.8267,-29.28456 -12.97139,-30.023395 z"
         id="path27036"
         style="fill:#d40000;fill-opacity:1;fill-rule:evenodd;stroke:none" />
      <path
         d="m 274.93851,73.115584 c -3.91704,1.995779 -40.78155,1.947544 -38.70142,-4.621847 2.08013,-6.569391 17.63799,-34.284672 39.31184,-44.534955 13.1686,8.092208 14.96481,20.424983 27.28176,32.725154 0.80962,1.300913 0.98599,3.901194 -0.98979,4.513117 -11.14249,3.450967 -22.98535,9.922752 -26.90239,11.918531 z"
         id="path27012"
         style="fill:#d40000;fill-opacity:1;fill-rule:evenodd;stroke:none" />
      <path
         d="m 277.09764,162.20848 c 0,0 -64.63524,-29.16837 -28.68593,6.01008 34.9918,33.74219 39.74661,30.0461 40.54453,30.0461 13.67023,0 9.9654,-28.4534 9.50801,-29.49869 -0.35368,-0.80828 -1.64031,-2.17469 -2.56549,-2.30282 -6.83191,-0.94613 -18.80112,-4.25467 -18.80112,-4.25467 z"
         id="path27102"
         style="fill:#d40000;fill-opacity:1;fill-rule:evenodd;stroke:none" />
      <path
         d="m 380.90968,132.69006 c -16.06228,-9.84157 -42.81741,6.34891 -36.48795,16.03257 6.32946,9.68366 21.70496,28.52048 37.99045,33.05192 2.13043,0.0658 5.08946,-1.0817 6.02884,-2.1974 11.16323,-13.25849 11.44293,-19.8345 11.63264,-21.84431 10.54895,-14.44572 6.83649,-18.52041 6.83649,-18.52041 -0.95136,-3.23667 -9.93819,3.3192 -26.00047,-6.52237 z"
         id="path27082"
         style="fill:#d40000;fill-opacity:1;fill-rule:evenodd;stroke:none" />
      <path
         d="m 385.23267,91.64544 c -10.41035,2.16427 -53.36826,-10.0222 -26.48844,-9.76255 26.87982,0.25965 25.37809,-13.105737 41.89415,-5.87851 16.29387,7.130003 -4.99536,13.47679 -15.40571,15.64106 z"
         id="path27032"
         style="fill:#d40000;fill-opacity:1;fill-rule:evenodd;stroke:none" />
      <path
         d="m 57.46529,130.4699 c -4.665782,-1.12893 -21.643839,1.83576 -27.275454,-10.27904 -2.551249,-0.32822 -4.249676,1.34293 -4.249676,1.34293 -2.657437,0.94696 -2.916672,4.28197 -2.916672,4.28197 34.061606,45.96706 212.336572,43.1189 224.126212,42.21033 37.36914,-2.93295 62.67158,-10.46934 90.85426,-10.19146 3.31257,-0.43959 6.02698,-4.63322 8.31565,-5.30593 19.98309,-5.87366 34.19173,-16.14478 47.36201,-20.01989 8.50556,-1.86673 12.44249,-1.24121 19.64856,-1.62351 24.48868,-1.66061 28.09461,10.27282 31.859,9.75277 24.83759,-0.18827 25.76591,-59.17792 -2.41553,-59.29198 0,0 -4.19256,8.87917 -28.40976,12.99492 C 351.02353,80.35576 324.05804,68.81107 237.51793,64.55185 232.49482,64.29281 160.54876,60.136 98.42288,86.90551 c -22.011431,1.24423 -49.700351,14.13936 -49.700351,14.13936 0,0 -20.04568,0.33026 -18.939837,8.66327 4.205207,4.87689 25.175684,2.50084 36.608449,16.27864 4.526086,7.59013 -4.230577,5.47209 -8.925851,4.48312 z"
         id="path27112"
         style="fill:#eeeeee;fill-opacity:1;fill-rule:evenodd;stroke:#003d8f;stroke-width:1.19354832px;stroke-linecap:butt;stroke-linejoin:miter;stroke-opacity:1" />
      <path
         d="m 96.38125,98.55367 c 26.55737,-8.80294 33.38995,6.38244 29.67977,22.15974 -3.90126,16.58988 -26.99427,32.13889 -35.81135,36.1379"
         id="path27114"
         style="fill:none;stroke:#003d8f;stroke-width:1.19354832px;stroke-linecap:butt;stroke-linejoin:miter;stroke-opacity:1" />
      <path
         d="M 122.86621,134.23399 C 133.04228,114.98751 137.8144,96.10967 108.29374,92.23743"
         id="path27128"
         style="fill:none;stroke:#003d8f;stroke-width:1.19354832px;stroke-linecap:butt;stroke-linejoin:miter;stroke-opacity:1" />
      <path
         d="m 114.00205,153.63437 c 10.96179,-2.04917 8.29577,-7.92723 7.95694,-9.39923 10.47402,-1.55396 33.06424,-19.28572 55.4655,-10.08703 0.28926,16.54571 -23.88698,26.06788 -27.48629,26.75053 -16.9722,-0.91256 -25.92755,-5.37406 -35.93615,-7.26427 z"
         id="path27192"
         style="fill:#d40000;fill-opacity:1;fill-rule:evenodd;stroke:none" />
      <g
         id="g2711">
        <path
           d="m 61.777163,107.65207 c 0.899813,2.16933 8.381182,5.11682 10.154295,5.27214 1.773112,0.1553 3.179105,-0.11464 5.42235,-0.82639 2.938942,-0.93249 5.437941,-3.96331 5.297825,-6.15586 -0.206432,-3.23029 -3.306121,-5.29575 -9.919143,-4.97655 -3.13987,0.15156 -11.625246,5.07157 -10.955327,6.68666 z"
           id="path27212"
           style="fill:#003d8f;fill-opacity:1;fill-rule:evenodd;stroke:none" />
        <path
           d="m 72.393334,101.91468 c -2.528855,0.47063 -3.82909,1.28482 -3.570633,2.90352 0.258457,1.6187 2.213005,4.8031 4.899786,4.48111 2.686781,-0.32198 6.808266,-2.86729 5.521097,-5.25523 -0.938067,-1.74029 -2.678143,-2.89831 -6.85025,-2.1294 z"
           id="path27214"
           style="fill:#eeeeee;fill-opacity:1;fill-rule:evenodd;stroke:none" />
      </g>
    </g>
    <use
       transform="matrix(-1,0,0,1,149.07219,82.574084)"
       id="Lax-2"
       x="0"
       y="0"
       width="251"
       height="304.20001"
       xlink:href="#Lax" />
    <use
       transform="translate(3.1106058e-7,165.14819)"
       id="Lax-3"
       x="0"
       y="0"
       width="251"
       height="304.20001"
       xlink:href="#Lax" />
  </g>
</svg>
