<svg xmlns="http://www.w3.org/2000/svg" version="1.0" width="807.6925" height="500">
  <g transform="matrix(3.84615 0 0 3.84615 0 -1423.0772)">
    <path style="fill:#078930;fill-opacity:1;fill-rule:nonzero;stroke:none" d="M0 370h210v90H0z"/>
    <path style="fill:#fff;fill-opacity:1;fill-rule:nonzero;stroke:none" d="M0 467.99997h210v32H0z"/>
    <rect ry="0" style="fill:#fbbb00;fill-opacity:1;fill-rule:nonzero;stroke:none" y="460" height="8" width="210"/>
    <path style="fill:#000;fill-opacity:1;fill-rule:nonzero;stroke:none" transform="scale(1 -1)" d="M0-468.25h210v.5H0z"/>
    <path style="fill:#000;fill-opacity:1;fill-rule:nonzero;stroke:none" d="M0 459.5h210v.5H0z"/>
  </g>
  <path style="fill:#000;fill-opacity:1;fill-rule:nonzero;stroke:none" d="m175.14411 460.63179.82018 2.56256 2.69058-.0118-2.18369 1.57191.8427 2.55524-2.16977-1.59108-2.16977 1.59108.8427-2.55524-2.18369-1.57191 2.69059.0118.82017-2.56256z" transform="matrix(3.84615 0 0 3.84615 0 -1423.0772)"/>
  <path d="m149.79039 396.95812-.81871-1.91033-.47759 2.04678c-.72579.38645-1.56511.23514-2.66082 2.8655l-1.22807 4.09357c.5938 1.1365 1.23304 1.46856 3.27486.61403 3.77434-4.54789 5.08365-.97418 7.02729.13645-1.9543 3.00588-5.38125 5.12841-7.02729 8.32359-.19165 1.06839-.10337 2.11045 1.5692 1.63743-.52503-1.91433 1.45488-2.61165 2.38791-3.88889l3.00195-2.8655 1.43275-1.22807c.47385.86793.88394 1.79962 1.70565 2.31969.30996.56378-1.14977 1.71746-3.00194 3.00195-1.66794 1.45549-4.86919 2.91098-4.98051 4.36647-.0145.91772.23678 1.68782 1.8421 1.70566-.3072-2.40581 2.82835-3.38577 4.70761-4.57116 3.39215-2.01031 6.90319-5.2051 6.95906-9.4152 4.51981 2.27017 7.75379-3.56981 11.53022-5.66277 3.9995 1.14565 5.28371-.0374 9.4152-1.02339 5.61133.75424 8.56688 3.30075 8.80117 6.41325.52397.46766 1.12829-.47762 1.63743-1.02339-2.15556-3.96071-5.52293-6.49452-9.48343-8.52826-.23902.36669 4.27741-.42458 5.32163-.81871 1.86737.48766 4.04234 2.20573 6.07213 3.34307.91974.45227 1.02834-1.55438.75049-1.50097-3.04371-.57007-4.41204-2.45022-6.54971-4.16179l-4.84406.5458c-2.29154-.58512-1.29528-1.67606-1.43274-2.59259 4.79561-1.92079 5.42765-3.40331 6.95906-4.98051 1.47863-2.90993 3.68053-3.89113 5.66277-5.45809-.23143-.37553-.50051-.70803-1.97856.34113-2.55944 1.66017-3.79057 3.32034-5.11696 4.98051-1.298 1.58723-2.83029 2.97365-5.38986 3.47953l-3.1384-.40935c-6.04817-1.27754-7.11223 4.62324-12.0078 5.73099-5.56826.51826-8.96648-.81099-13.91813 4.23002-.89003.95287-3.95493-.57046-6.0039-.13645z" style="fill:#000;fill-opacity:1;fill-rule:evenodd;stroke:#000;stroke-width:.23333333px;stroke-linecap:butt;stroke-linejoin:miter;stroke-opacity:1" transform="matrix(3.84615 0 0 3.84615 0 -1423.0772)"/>
  <path style="fill:#000;fill-opacity:1;fill-rule:evenodd;stroke:#000;stroke-width:.20599902px;stroke-linecap:butt;stroke-linejoin:miter;stroke-opacity:1" d="M36.158894 392.96331c-1.984908-.26983-1.59995-1.93417-1.383298-2.60602 9.529443-10.73246-10.710548-10.51986-3.874484-.87179.677367 1.31081-1.911821 2.22443-2.891781 3.3122-.778536.22356-1.580677.60055-2.716518 3.1466-1.504886 2.1125-5.994268 6.26395-4.644375 7.12123.430371.38648 1.848729.37777 3.15467.41402 4.561741-.33445-3.654768 8.50287.175259 10.93027 1.926605 1.44442 8.511386 6.78682 4.293853 7.94928-3.338286-1.00391-6.748464 1.28052-9.989784.41403-1.352705-.0894-3.035918 3.45678-4.556744 5.21672-.734906 1.82561.304383 1.4579 2.093097.57963 2.385461-3.32135 5.025469-2.36256 8.772985-2.31854 12.226559.0854 12.866002-.49105 9.30815-11.51981 3.618678-1.44567 7.331804-2.78621 10.77583-2.66001-1.01049 1.92743-2.452343 3.4235-2.811543 6.00223-.468841 1.06423-.420103 2.35112-1.557302 3.42855-.844424 1.58342-.326858 2.13515 1.372656 2.26489 3.172626.0887 5.42668 1.00769 6.572228.74525-.790811-2.59461-6.249052-1.50759-3.680446-5.29952l3.329925-3.97465 2.979413 4.30586c9.539868-8.82355 8.719274-15.46669 9.814524-26.41481.640696-.30741.598192-1.29802.52578-2.31854l5.871189-1.90451-.525777 1.24207 3.592815-2.73256-4.469112-.24842 1.139187.91086-5.783564 1.6561c.04786-1.05039-.5887-.96008-1.051554-1.15927-2.672035-13.10016-8.962356-16.25176-17.61357-21.77773l-3.242299 25.91798c-.714964.26825-1.71868.344-2.97941.24841z" transform="matrix(3.84615 0 0 3.84615 10.11642302 -1337.42699252)"/>
  <path style="fill:#078930;fill-opacity:1;fill-rule:evenodd;stroke:#000;stroke-width:.18919072px;stroke-linecap:butt;stroke-linejoin:miter;stroke-opacity:1" d="m42.767405 406.95249-7.838966.2729c-1.912102-1.04202 1.406883-4.24294 2.212664-6.3303l1.869525.008 3.756777 6.04905z" transform="matrix(3.84615 0 0 3.84615 10.11642302 -1337.42699252)"/>
  <path style="fill:#078930;fill-opacity:1;fill-rule:evenodd;stroke:#000;stroke-width:.20769028px;stroke-linecap:butt;stroke-linejoin:miter;stroke-opacity:1" d="m38.647149 397.76008-2.069555.3564-.165564-.98009 2.249676.053-.01456.57073z" transform="matrix(3.84615 0 0 3.84615 10.11642302 -1337.42699252)"/>
  <path style="fill:#078930;fill-opacity:1;fill-rule:evenodd;stroke:#000;stroke-width:.19908899px;stroke-linecap:butt;stroke-linejoin:miter;stroke-opacity:1" d="m48.453092 414.30685 1.598333-3.30326c.89663-2.20519.779821-3.87699-1.766578-4.27007h-4.542629l-3.785523-6.12311.168242-2.25589-.33649-.40283v-.80568l4.710874-1.28908 5.131488-1.36964 4.374386-.56397 2.18719-.80567 2.523686.2417c1.085444 9.60764-.147291 18.42611-7.571052 25.137l-2.691927-4.1895z" transform="matrix(3.84615 0 0 3.84615 10.11642302 -1337.42699252)"/>
  <path style="fill:#078930;fill-opacity:1;fill-rule:evenodd;stroke:#000;stroke-width:.20088995px;stroke-linecap:butt;stroke-linejoin:miter;stroke-opacity:1" d="m40.217379 392.54945 3.66864-.40441 5.204353-.4853 5.630933-.24265 2.474201-.72795 1.535709-.72795c-.550853-10.97054-6.635421-16.98518-15.783682-22.00019l-2.730154 24.58845z" transform="matrix(3.84615 0 0 3.84615 10.11642302 -1337.42699252)"/>
</svg>
