<svg xmlns="http://www.w3.org/2000/svg" width="750" height="500" viewBox="0 0 7.5 5">
  <path style="fill:#078930;fill-opacity:1" d="M0 0h9v6H0z" transform="scale(.83333)"/>
  <path style="fill:#fff" d="M0 1h9v4H0z" transform="scale(.83333)"/>
  <path style="fill:#da121a;fill-opacity:1" d="M0 2h9v2H0z" transform="scale(.83333)"/>
  <path style="opacity:.61494254;fill:#fcef3c;fill-opacity:.990625;fill-rule:evenodd;stroke:#000;stroke-width:2.5;stroke-linecap:round;stroke-linejoin:round;stroke-miterlimit:4;stroke-opacity:1;stroke-dasharray:none;stroke-dashoffset:0" d="M-95.744682 281.38131v-4.67919h0z" transform="translate(-18.720201 -6.8484759) scale(.02115)"/>
  <g>
    <path style="fill:#fff;fill-opacity:1;fill-rule:evenodd;stroke:#da121a;stroke-width:1.17937469;stroke-linecap:butt;stroke-linejoin:miter;stroke-miterlimit:4;stroke-opacity:1;stroke-dasharray:none" d="M295.4375 266.375c-.48264.0243-.90086.099-1.28125.21875-6.9196 2.1782-1.36805 8.41625-5.65625 7.34375-10.61211-2.6543-13.78675-2.97-17.21875-.5625-2.4749 1.7359-1.9385 4.59155-1.4375 6.71875 1.2202 5.2135-2.88105 2.31725-6.46875 2.15625-2.4656-.2995-4.35975.1233-6.09375 1.9375-1.3422 1.4043.003 3.53935 1.21875 5.34375 2.288 3.4116 1.38445 3.12475-2.15625 4.59375-2.4719 1.1084-4.25745 1.6594-4.25 4.875.0105 4.5275 4.19665 2.98995 7.46875 5.21875 1.4452.9845-3.422 4.74625-1.4375 6.53125 2.87969 2.5895 4.8325 3.59245 12.6875 1.96875 3.2325-.66815-2.04895 7.48655-.15625 10.59375.6952 1.1414 1.85355 1.83075 3.65625 1.96875 5.34618.001 8.16225-4.3635 13.90625-4.8125 3.9084-.3055-2.1293 6.2992 4.1875 7.6875 1.3393.467 3.34185 1.003 6.53125.875 6.96771-.3928 6.8315-3.1574 12.9375-4.875 1.6723.1884 1.16527 2.0348 1.21875 3.5625.246 1.812 1.52205 2.6845 3.65625 2.8125 1.7783.1243 4.32445-.47675 8.46875-2.90625 2.029-1.2085 3.78555-2.68235 5.59375-4.09375 2.225-1.7127 4.32795-3.89075 7.46875-2.78125 1.0787.276 2.28805.60286 3.59375.59375 7.81024-.5419 1.0936-8.0757 10.3125-5.0625 2.2448.7337 3.77025-1.022 4.84375-3.1875.8089-1.3718 1.647-3.27425 2.5-5.84375.5755-1.7559 1.06145-2.7267 2.90625-3.75 1.6261-1.2786 2.8427-2.014 7-3 2.2275-.347 5.05625.1641 7.53125.15625 2.67554-.009 5.32502.13581 8.03125.25.3135.16005.63799.35153.9375.5625 3.7769 2.2225 4.1025 3.9969 5.5625 7 2.3772 6.0954 4.97775 8.304 7.40625 9 3.396.9729 4.78205-3.48675 6.78125-2.59375 5.0836 2.2705 6.29815 5.07675 8.59375 6.96875 6.01474 4.9564 8.7591 6.8055 13.0625 4.3125 2.9988-1.7373 1.75235-7.41995 4.46875-5.78125 15.05645 9.0837 20.98815 10.8955 24.03125 9.9375 6.9196-2.1782 1.36805-8.385 5.65625-7.3125 10.61211 2.6543 13.78675 2.97 17.21875.5625 2.4749-1.7359 1.9385-4.59155 1.4375-6.71875-1.2202-5.2135 2.88105-2.3485 6.46875-2.1875 2.4656.2995 4.35975-.1233 6.09375-1.9375 1.3422-1.4043-.003-3.5081-1.21875-5.3125-2.288-3.4116-1.38445-3.12475 2.15625-4.59375 2.4719-1.1084 4.25745-1.6594 4.25-4.875-.0105-4.5275-4.19665-2.98995-7.46875-5.21875-1.4452-.9845 3.45325-4.74625 1.46875-6.53125-2.87969-2.5895-4.86375-3.59245-12.71875-1.96875-3.2325.66815 2.04895-7.48655.15625-10.59375-.6952-1.1414-1.85355-1.83075-3.65625-1.96875-5.34618-.001-8.16225 4.33225-13.90625 4.78125-3.9084.3055 2.1293-6.26795-4.1875-7.65625-1.3393-.467-3.34185-1.003-6.53125-.875-6.96771.3928-6.8315 3.1574-12.9375 4.875-1.6723-.1884-1.16527-2.0348-1.21875-3.5625-.246-1.812-1.52205-2.6845-3.65625-2.8125-1.7783-.1243-4.32445.47675-8.46875 2.90625-2.029 1.2085-3.78555 2.6511-5.59375 4.0625-2.225 1.7127-4.32795 3.922-7.46875 2.8125-1.0787-.276-2.28805-.60286-3.59375-.59375-7.81024.5419-1.0936 8.0757-10.3125 5.0625-2.2448-.7337-3.77025 1.022-4.84375 3.1875-.8089 1.3718-1.647 3.243-2.5 5.8125-.5755 1.7559-1.06145 2.75795-2.90625 3.78125-1.6261 1.2786-2.8427 2.014-7 3-2.2275.347-5.05625-.19535-7.53125-.1875-2.6651.009-5.30496-.10494-8-.21875-.32512-.16403-.65864-.34406-.96875-.5625-3.7769-2.2225-4.1025-3.9969-5.5625-7-2.3772-6.0954-4.97775-8.33525-7.40625-9.03125-3.396-.9729-4.78205 3.518-6.78125 2.625-5.0836-2.2705-6.29815-5.07675-8.59375-6.96875-6.01474-4.9564-8.7591-6.8055-13.0625-4.3125-2.9988 1.7373-1.75235 7.3887-4.46875 5.75-13.17439-7.94824-19.37149-10.32663-22.75-10.15625z" transform="matrix(.00863 0 0 .00833 .51413501 .366685)"/>
    <path style="fill:none;stroke:#da121a;stroke-width:.01179374;stroke-linecap:round;stroke-linejoin:round;stroke-miterlimit:4;stroke-opacity:1;stroke-dasharray:none" d="M3.8709849 2.9866391c.037738-.013883.078519-.013301.1191269-.010725.2029974.00749.4062301.010025.6093244.00396.093278-.0002801.1880063-.00678.2801635.00854l.00431.00139" transform="matrix(.8629 0 0 .83318 .51413501 .366685)"/>
    <path style="fill:none;stroke:#da121a;stroke-width:.00294844;stroke-linecap:round;stroke-linejoin:round;stroke-miterlimit:4;stroke-opacity:1;stroke-dasharray:none" d="M4.0281051 2.977099c.0662224-.0236944.1056653-.080526.1480442-.1280201.0392194-.0482179.0799052-.0957532.1303188-.1355619M3.9972066 2.9762549c.074103.046588.1150821.1208084.1683723.1836606.020239.025295.041217.050154.063639.073997M4.2272755 2.9826116c.074248.048088.1225481.1193905.1802693.1812433.031396.03477.062711.070306.1017052.098874M4.2593747 2.9830354c.063158-.031509.1005252-.089287.1465372-.1366807.035316-.038557.071248-.07777.1168569-.1074158M4.473744 2.9830354c.063863-.041477.1049006-.1032738.1571491-.1548379.022998-.023559.046529-.047265.075345-.065527M4.4438098 2.9832473c.046987.026645.078886.069181.1174343.104167.041936.040737.083633.082384.1334065.1159861M4.5640305 2.981976c.09205.029519.166108.091727.2580831.1219942M4.6362112 2.9807045c.06878-.020306.1170299-.072076.1817085-.098965" transform="matrix(.8629 0 0 .83318 .51413501 .366685)"/>
    <path d="M3.6290231 2.9826397c-.037738.013883-.078519.013301-.1191269.010725-.2029974-.00749-.4062301-.010025-.6093244-.00396-.093278.0002801-.1880063.00678-.2801635-.00854l-.00431-.00139" style="fill:none;stroke:#da121a;stroke-width:.01179374;stroke-linecap:round;stroke-linejoin:round;stroke-miterlimit:4;stroke-opacity:1;stroke-dasharray:none" transform="matrix(.8629 0 0 .83318 .51413501 .366685)"/>
    <path d="M3.4719029 2.9921798c-.066222.023694-.1056653.080526-.1480442.1280201-.039219.048218-.079905.095753-.1303188.1355619M3.5028014 2.9930239c-.074103-.0465884-.1150821-.1208084-.1683723-.1836606-.0202385-.0252945-.0412169-.0501538-.0636388-.0739969M3.2727325 2.9866672c-.074248-.0480878-.1225481-.1193905-.1802693-.1812433-.0313956-.0347704-.0627112-.0703058-.1017052-.0988745M3.2406333 2.9862434c-.063158.031509-.1005252.089287-.1465372.1366807-.035316.038557-.071248.07777-.1168569.1074158M3.026264 2.9862434c-.0638628.0414766-.1049006.1032738-.1571491.1548379-.022998.023559-.046529.047265-.075345.065527M3.0561982 2.9860315c-.046987-.026645-.078886-.069181-.1174343-.104167-.041936-.040737-.083633-.082384-.1334065-.1159861M2.9359775 2.9873028c-.09205-.029519-.166108-.091727-.2580831-.1219942M2.8637968 2.9885743c-.06878.020306-.1170299.072076-.1817085.098965" style="fill:none;stroke:#da121a;stroke-width:.00294844;stroke-linecap:round;stroke-linejoin:round;stroke-miterlimit:4;stroke-opacity:1;stroke-dasharray:none" transform="matrix(.8629 0 0 .83318 .51413501 .366685)"/>
    <g>
      <g style="stroke:#da121a;stroke-width:1.17937469;stroke-opacity:1">
        <path d="m3.7767945 3.2190856-.060368.0004639c.00835-.043041.00724-.081652.00862-.1181758.00126-.033154.00308-.064733.00297-.097043-.0000785-.02475.00504-.052906.00157-.075181-.00986-.041573-.017172-.053955-.029958-.070216-.010233-.018448-.020056-.023314-.037615-.029069-.025695-.00853-.044612-.016898-.05833-.024987-.021655-.010735-.039117-.026025-.03178-.048473.030132-.092189-.045192-.02479-.050611-.1028924-.0000911-.013057.00309-.025201.00585-.035988.011095-.031408-.010759-.052463-.027886-.074713-.014114-.018082-.028814-.035691-.040899-.055981-.024295-.041443-.030316-.066781-.029073-.084564.00128-.021342.010099-.034298.028219-.036758.015277-.0005348.033705.00448.035589-.012243-.017176-.06106-.044711-.059427-.048639-.1291041-.00128-.031894.00393-.052034.0086-.065427.013883-.063168.079885-.0027.07683-.041784-.00449-.05744-.047933-.085598-.04792-.1390598.00138-.018027.00824-.029627.019654-.036579.031072-.018927.1125722.033705.1058907.00138-.016237-.07855-.00612-.098164.019775-.1269609.01785-.019845.055308.02892.065153.014468.022288-.032721.007-.074642.052275-.074747.032156-.0000745.037742.01779.048826.042509.01469.035407.011624.044584.04574.021704.018044-.012156.039384-.025627.053427-.012205.018142.01734.02237.036273.019375.060929-.00161.035877-.030402.076792.021733.06459.021272-.00501.049715-.010337.067074.014412.024075.03432.020893.066039-.00565.1721601-.010725.042882.051569-.012497.073351.056699.00958.030431-.00856.089678-.099397.2402425-.016387.027164.040299.014739.057672.044727.02493.043034.00646.070563-.043104.1307104-.01892.022956-.046966.034961-.069671.085797-.00893.019992.035801.03386.026072.06782-.00696.024285-.029303.050251-.090257.074023-.030031.0146-.047743.017968-.069968.055737-.00983.013955-.013625.029395-.016114.046636-.00352.025745-.00432.05306-.00498.076169-.00101.035063-.0012.070229-.00126.1054056-.0000521.035034.00393.068598.00867.105042l.010549.010527z" style="fill:#fff;fill-opacity:1;fill-rule:evenodd;stroke:#da121a;stroke-width:.01179374;stroke-linecap:butt;stroke-linejoin:miter;stroke-miterlimit:4;stroke-opacity:1;stroke-dasharray:none" transform="scale(.8629 .83318) rotate(-45 4.63274742 2.49268792)"/>
        <path d="M3.7520037 2.8636585c-.013883-.037738-.013301-.078519-.010725-.1191269.00749-.2029974.010025-.4062301.00396-.6093244-.0002801-.093278-.00678-.1880063.00854-.2801635l.00139-.00431" style="fill:none;stroke:#da121a;stroke-width:.01179374;stroke-linecap:round;stroke-linejoin:round;stroke-miterlimit:4;stroke-opacity:1;stroke-dasharray:none" transform="scale(.8629 .83318) rotate(-45 4.63274742 2.49268792)"/>
        <path d="M3.7424636 2.7065383c-.0236944-.0662224-.080526-.1056653-.1280201-.1480442-.0482179-.0392194-.0957532-.0799052-.1355619-.1303188M3.7416195 2.7374368c.0465884-.074103.1208084-.1150821.1836606-.1683723.0252945-.0202385.0501538-.0412169.0739969-.0636388M3.7479762 2.5073679c.0480878-.074248.1193905-.1225481.1812433-.1802693.0347704-.0313956.0703058-.0627112.0988745-.1017052M3.7484 2.4752687c-.0315092-.0631576-.0892873-.1005252-.1366807-.1465372-.0385566-.0353158-.0777696-.0712477-.1074158-.1168569M3.7484 2.2608994c-.0414766-.0638628-.1032738-.1049006-.1548379-.1571491-.0235588-.0229978-.0472652-.0465292-.0655268-.0753451M3.7486119 2.2908336c.026645-.046987.069181-.078886.104167-.1174343.040737-.041936.082384-.083633.1159861-.1334065M3.7473406 2.1706129c.029519-.09205.091727-.166108.1219942-.2580831M3.7460691 2.0984322c-.020306-.0687804-.0720763-.1170299-.0989648-.1817085" style="fill:none;stroke:#da121a;stroke-width:.00294844;stroke-linecap:round;stroke-linejoin:round;stroke-miterlimit:4;stroke-opacity:1;stroke-dasharray:none" transform="scale(.8629 .83318) rotate(-45 4.63274742 2.49268792)"/>
      </g>
      <g style="stroke:#da121a;stroke-width:1.17937469;stroke-opacity:1">
        <path style="fill:#fff;fill-opacity:1;fill-rule:evenodd;stroke:#da121a;stroke-width:.01179374;stroke-linecap:butt;stroke-linejoin:miter;stroke-miterlimit:4;stroke-opacity:1;stroke-dasharray:none" d="m3.7767945 3.2190856-.060368.0004639c.00835-.043041.00724-.081652.00862-.1181758.00126-.033154.00308-.064733.00297-.097043-.0000785-.02475.00504-.052906.00157-.075181-.00986-.041573-.017172-.053955-.029958-.070216-.010233-.018448-.020056-.023314-.037615-.029069-.025695-.00853-.044612-.016898-.05833-.024987-.021655-.010735-.039117-.026025-.03178-.048473.030132-.092189-.045192-.02479-.050611-.1028924-.0000911-.013057.00309-.025201.00585-.035988.011095-.031408-.010759-.052463-.027886-.074713-.014114-.018082-.028814-.035691-.040899-.055981-.024295-.041443-.030316-.066781-.029073-.084564.00128-.021342.010099-.034298.028219-.036758.015277-.0005348.033705.00448.035589-.012243-.017176-.06106-.044711-.059427-.048639-.1291041-.00128-.031894.00393-.052034.0086-.065427.013883-.063168.079885-.0027.07683-.041784-.00449-.05744-.047933-.085598-.04792-.1390598.00138-.018027.00824-.029627.019654-.036579.031072-.018927.1125722.033705.1058907.00138-.016237-.07855-.00612-.098164.019775-.1269609.01785-.019845.055308.02892.065153.014468.022288-.032721.007-.074642.052275-.074747.032156-.0000745.037742.01779.048826.042509.01469.035407.011624.044584.04574.021704.018044-.012156.039384-.025627.053427-.012205.018142.01734.02237.036273.019375.060929-.00161.035877-.030402.076792.021733.06459.021272-.00501.049715-.010337.067074.014412.024075.03432.020893.066039-.00565.1721601-.010725.042882.051569-.012497.073351.056699.00958.030431-.00856.089678-.099397.2402425-.016387.027164.040299.014739.057672.044727.02493.043034.00646.070563-.043104.1307104-.01892.022956-.046966.034961-.069671.085797-.00893.019992.035801.03386.026072.06782-.00696.024285-.029303.050251-.090257.074023-.030031.0146-.047743.017968-.069968.055737-.00983.013955-.013625.029395-.016114.046636-.00352.025745-.00432.05306-.00498.076169-.00101.035063-.0012.070229-.00126.1054056-.0000521.035034.00393.068598.00867.105042l.010549.010527z" transform="scale(.8629 .83318) rotate(45 3.47367235 3.95669548)"/>
        <path style="fill:none;stroke:#da121a;stroke-width:.01179374;stroke-linecap:round;stroke-linejoin:round;stroke-miterlimit:4;stroke-opacity:1;stroke-dasharray:none" d="M3.7520037 2.8636585c-.013883-.037738-.013301-.078519-.010725-.1191269.00749-.2029974.010025-.4062301.00396-.6093244-.0002801-.093278-.00678-.1880063.00854-.2801635l.00139-.00431" transform="scale(.8629 .83318) rotate(45 3.47367235 3.95669548)"/>
        <path style="fill:none;stroke:#da121a;stroke-width:.00294844;stroke-linecap:round;stroke-linejoin:round;stroke-miterlimit:4;stroke-opacity:1;stroke-dasharray:none" d="M3.7424636 2.7065383c-.0236944-.0662224-.080526-.1056653-.1280201-.1480442-.0482179-.0392194-.0957532-.0799052-.1355619-.1303188M3.7416195 2.7374368c.0465884-.074103.1208084-.1150821.1836606-.1683723.0252945-.0202385.0501538-.0412169.0739969-.0636388M3.7479762 2.5073679c.0480878-.074248.1193905-.1225481.1812433-.1802693.0347704-.0313956.0703058-.0627112.0988745-.1017052M3.7484 2.4752687c-.0315092-.0631576-.0892873-.1005252-.1366807-.1465372-.0385566-.0353158-.0777696-.0712477-.1074158-.1168569M3.7484 2.2608994c-.0414766-.0638628-.1032738-.1049006-.1548379-.1571491-.0235588-.0229978-.0472652-.0465292-.0655268-.0753451M3.7486119 2.2908336c.026645-.046987.069181-.078886.104167-.1174343.040737-.041936.082384-.083633.1159861-.1334065M3.7473406 2.1706129c.029519-.09205.091727-.166108.1219942-.2580831M3.7460691 2.0984322c-.020306-.0687804-.0720763-.1170299-.0989648-.1817085" transform="scale(.8629 .83318) rotate(45 3.47367235 3.95669548)"/>
      </g>
    </g>
    <g style="stroke:#da121a;stroke-width:1.17937469;stroke-opacity:1">
      <path d="m3.7767945 3.2190856-.060368.0004639c.00835-.043041.00724-.081652.00862-.1181758.00126-.033154.00308-.064733.00297-.097043-.0000785-.02475.00504-.052906.00157-.075181-.00986-.041573-.017172-.053955-.029958-.070216-.010233-.018448-.020056-.023314-.037615-.029069-.025695-.00853-.044612-.016898-.05833-.024987-.021655-.010735-.039117-.026025-.03178-.048473.030132-.092189-.045192-.02479-.050611-.1028924-.0000911-.013057.00309-.025201.00585-.035988.011095-.031408-.010759-.052463-.027886-.074713-.014114-.018082-.028814-.035691-.040899-.055981-.024295-.041443-.030316-.066781-.029073-.084564.00128-.021342.010099-.034298.028219-.036758.015277-.0005348.033705.00448.035589-.012243-.017176-.06106-.044711-.059427-.048639-.1291041-.00128-.031894.00393-.052034.0086-.065427.013883-.063168.079885-.0027.07683-.041784-.00449-.05744-.047933-.085598-.04792-.1390598.00138-.018027.00824-.029627.019654-.036579.031072-.018927.1125722.033705.1058907.00138-.016237-.07855-.00612-.098164.019775-.1269609.01785-.019845.055308.02892.065153.014468.022288-.032721.007-.074642.052275-.074747.032156-.0000745.037742.01779.048826.042509.01469.035407.011624.044584.04574.021704.018044-.012156.039384-.025627.053427-.012205.018142.01734.02237.036273.019375.060929-.00161.035877-.030402.076792.021733.06459.021272-.00501.049715-.010337.067074.014412.024075.03432.020893.066039-.00565.1721601-.010725.042882.051569-.012497.073351.056699.00958.030431-.00856.089678-.099397.2402425-.016387.027164.040299.014739.057672.044727.02493.043034.00646.070563-.043104.1307104-.01892.022956-.046966.034961-.069671.085797-.00893.019992.035801.03386.026072.06782-.00696.024285-.029303.050251-.090257.074023-.030031.0146-.047743.017968-.069968.055737-.00983.013955-.013625.029395-.016114.046636-.00352.025745-.00432.05306-.00498.076169-.00101.035063-.0012.070229-.00126.1054056-.0000521.035034.00393.068598.00867.105042l.010549.010527z" style="fill:#fff;fill-opacity:1;fill-rule:evenodd;stroke:#da121a;stroke-width:.01179374;stroke-linecap:butt;stroke-linejoin:miter;stroke-miterlimit:4;stroke-opacity:1;stroke-dasharray:none" transform="matrix(.8629 0 0 .83318 .51413157 .41667561)"/>
      <path d="M3.7520037 2.8636585c-.013883-.037738-.013301-.078519-.010725-.1191269.00749-.2029974.010025-.4062301.00396-.6093244-.0002801-.093278-.00678-.1880063.00854-.2801635l.00139-.00431" style="fill:none;stroke:#da121a;stroke-width:.01179374;stroke-linecap:round;stroke-linejoin:round;stroke-miterlimit:4;stroke-opacity:1;stroke-dasharray:none" transform="matrix(.8629 0 0 .83318 .51413157 .41667561)"/>
      <path d="M3.7424636 2.7065383c-.0236944-.0662224-.080526-.1056653-.1280201-.1480442-.0482179-.0392194-.0957532-.0799052-.1355619-.1303188M3.7416195 2.7374368c.0465884-.074103.1208084-.1150821.1836606-.1683723.0252945-.0202385.0501538-.0412169.0739969-.0636388M3.7479762 2.5073679c.0480878-.074248.1193905-.1225481.1812433-.1802693.0347704-.0313956.0703058-.0627112.0988745-.1017052M3.7484 2.4752687c-.0315092-.0631576-.0892873-.1005252-.1366807-.1465372-.0385566-.0353158-.0777696-.0712477-.1074158-.1168569M3.7484 2.2608994c-.0414766-.0638628-.1032738-.1049006-.1548379-.1571491-.0235588-.0229978-.0472652-.0465292-.0655268-.0753451M3.7486119 2.2908336c.026645-.046987.069181-.078886.104167-.1174343.040737-.041936.082384-.083633.1159861-.1334065M3.7473406 2.1706129c.029519-.09205.091727-.166108.1219942-.2580831M3.7460691 2.0984322c-.020306-.0687804-.0720763-.1170299-.0989648-.1817085" style="fill:none;stroke:#da121a;stroke-width:.00294844;stroke-linecap:round;stroke-linejoin:round;stroke-miterlimit:4;stroke-opacity:1;stroke-dasharray:none" transform="matrix(.8629 0 0 .83318 .51413157 .41667561)"/>
    </g>
  </g>
</svg>
