<svg xmlns="http://www.w3.org/2000/svg" xmlns:xlink="http://www.w3.org/1999/xlink" width="750" height="500">
  <rect width="750" height="500" fill="#da121a"/>
  <rect width="750" height="250" fill="#fcdd09"/>
  <path fill="#0f47af" d="m 375,370 c -15.75,-10 -34.75,-15.5 -61.75,-15.5 -22,0 -38.25,-21 -38.25,-42.75 V 130 c 30.5,16.75 69.25,16.75 100,0.25 30.75,16.5 69.5,16.5 100,-0.25 v 181.5 c 0,21.75 -16.25,43 -38.25,43 -27,0 -46,5.5 -61.75,15.5 z"/>
  <path fill="#fcdd09" d="m 375,328.25 c 11.25,-7 25,-9.5 38.75,-9.5 13.75,0 24.25,-13.25 24.25,-27 V 175 c -10.5,5 -23,2.5 -34.75,2.5 -9.5,0 -18.25,-2.5 -28.25,-7.5 -10,5 -18.75,7.5 -28.25,7.5 C 335,177.5 322.5,180 312,175 v 116.75 c 0,13.75 10.5,27 24.25,27 13.75,0 27.5,2.5 38.75,9.5 z"/>
  <path id="granada" fill="#fcdd09" d="m 384.25,355.5 c 6.25,-0.25 8.75,-3.75 10.25,-9.75 2.25,0.25 5.25,2 7,3 l 4,-3.5 c -6.5,-3.5 -13.75,-3.75 -16.75,-3.25 -3.25,0.5 -7.5,3 -11.5,2 1.5,-3.25 3.25,-8 -1.25,-9.25 0,3 -0.75,7.25 -2.25,8.5 0.25,-5.25 -1.75,-11 -7.25,-11.75 -3.25,-0.5 -8.75,1.75 -10.5,9.25 -1.75,7.5 3.75,13 8.25,12.75 3.75,0 7,-2.5 9,-8 0.5,2.75 0,4.75 -1.75,8.75 1.5,0.75 5.5,0 5.25,-7 4.25,0.75 10,-1.5 12.5,-1.75 -3.5,2 -5,7 -5,10 z m -19.75,-8 c -3.25,-0.5 -8.5,-3.75 -8,-6.5 0.5,-2.75 6.25,-3.75 9.5,-3 6,1.25 7.5,4.5 6.25,6.75 -1.25,2.5 -4,3.25 -7.75,2.75 z m -13.75,-2 c 0,-1 1.5,-4.25 4,-3.75 0.75,-0.5 0.75,-2.5 0.5,-2.75 -1.75,-1 -2.75,-3 -2.25,-5.25 -1.75,-1.25 -2.5,2.25 -2,4 -1.25,0 -2.75,0 -4.25,0.75 1,1.25 2.25,2 3.75,2.5 -1.5,1.5 -1.25,5 0.25,4.5 z"/>
  <use transform="rotate(45,365.5,249.5)" xlink:href="#granada"/>
  <use transform="rotate(82,386.5,251)" xlink:href="#granada"/>
  <use transform="rotate(82,429.75,213.25)" xlink:href="#granada"/>
  <use transform="rotate(167,369.5,248.75)" xlink:href="#granada"/>
  <use transform="rotate(13,-1810.5,51)scale(1,-1)" xlink:href="#granada"/>
  <use transform="rotate(98,189.25,-47.5)scale(1,-1)" xlink:href="#granada"/>
  <use transform="rotate(98,156.75,-10.25)scale(1,-1)" xlink:href="#granada"/>
  <use transform="rotate(135,271.5,3.75)scale(1,-1)" xlink:href="#granada"/>
  <path id="granada2" fill="#da121a" d="m 350,314.75 -5.75,-0.5 c 0,-9 -1.25,-13.25 -4,-16.75 -2.5,-3.25 -4.75,-6 -6.75,-8.25 -1.5,2 -5.5,7.75 -10.25,2.5 2.5,-1 6,-2.5 8.5,-5.5 -6.75,3.25 -13.25,1.5 -15.25,-4 -1.75,-5.75 3,-11.5 8,-13.75 4.5,-2.5 11.5,-2 13.75,3.25 2.25,4.75 -0.5,10.5 -4.5,13.5 3.5,0 6,-2.75 8.5,-4.75 1.75,2.75 -0.25,6 -4.75,7.5 3,2.25 5.75,5.75 7.25,8 1.5,2.25 4.25,9.25 5.25,18.75 z M 331.25,285.5 c 3.75,-1 3.75,-6 2,-8.75 -2,-3.25 -4.75,-7.25 -8.75,-7.25 -4.5,-0.25 -3.5,6.5 -2,9.25 1.5,3.25 4.75,7.75 8.75,6.75 z m 28,7.75 C 359.5,301 354,306 348.75,305.5 c -0.25,-6.75 4.75,-12 10.5,-12.25 z m -38.75,-23.5 c -1.75,-2.25 -4.75,-1.5 -6,-0.25 -1,-1.25 1.75,-3.5 3.5,-3.75 -0.5,-2.25 -1,-3.25 -0.75,-4.5 1.5,0.25 2.75,1.25 4,2.5 1.5,-2.5 4.25,-2.25 4.5,-1.5 -2,1 -3.25,3.5 -2.5,5.75 -0.25,0.75 -1.5,1.75 -2.75,1.75 z"/>
  <use transform="matrix(-1,0,0,1,750,0)" xlink:href="#granada2"/>
  <path id="aguila" d="m 375,323.75 c -5.5,-9 -8.5,-17.75 -4.5,-26 -2.5,-0.25 -4.75,1.5 -6,3.5 -1.25,-8.75 1,-15 4.5,-20 -2.25,0.25 -6.25,3 -8.5,5.75 l -1,-4 c -9.25,6.5 -10.5,6.25 -14.25,9.75 v 0.5 c 1.5,2 -1.25,3 -3.25,3.75 0.25,0.75 1.75,1.25 2.75,1.5 -2.25,3.75 -6.25,2.75 -7.75,1 -1.5,0.5 -3.25,-0.75 -3.25,-3.75 -2.5,-1.75 1,-9.25 8.5,-6.5 1.5,-0.75 6.75,-7 11.5,-12 l -4,-1.25 c 2.25,-4.25 9.75,-9.5 15,-11.75 7,-3 4.75,-7.75 0.5,-4.75 -5.5,4.25 -11.25,6.25 -19.25,2.5 4.5,-1.75 9.75,-7.5 10.5,-11.25 -8,5 -19.75,5 -26.75,-1.5 7,1.25 13.75,-2.25 18.75,-6.75 -9.5,2.5 -20.5,-1.5 -26.75,-9 7,-0.25 13.75,-2.5 20.25,-4.75 -11.5,-0.25 -22,-6 -26,-18.5 5,2.75 16,3.5 23,2.5 -14,-5.5 -22,-16.75 -22.25,-29.75 3.5,5 17,11.5 30.25,16 7.5,2.5 10,11.75 10,15.25 0.25,3.75 11.5,8.5 11.5,-4.5 0,-2.25 0.25,-7.5 0.5,-9 -2.5,-1.5 -6.5,-1 -8,-0.5 -0.25,-5.75 0,-10.25 6.25,-10.25 h 10 c 6.75,0 5.25,12.25 4.75,19.75 0,13 11.25,8.25 11,4.5 0,-3.5 2.5,-12.75 10,-15.25 13.25,-4.5 26.75,-11 30.25,-16 -0.25,13 -8.25,24.25 -22.25,29.75 7,1 18,0.25 23,-2.5 -4,12.5 -14.5,18.25 -26,18.5 6.5,2.25 13.25,4.5 20.25,4.75 -6.25,7.5 -17.25,11.5 -26.75,9 5,4.5 11.75,8 18.75,6.75 -7,6.5 -18.75,6.5 -26.75,1.5 0.75,3.75 6,9.5 10.5,11.25 -8,3.75 -13.75,1.75 -19.25,-2.5 -4.25,-3 -6.5,1.75 0.5,4.75 5.25,2.25 12.75,7.5 15,11.75 l -4,1.25 c 4.75,5 10,11.25 11.5,12 7.5,-2.75 11,4.75 8.5,6.5 0,3 -1.75,4.25 -3.25,3.75 -1.5,1.75 -5.5,2.75 -7.75,-1 1,-0.25 2.5,-0.75 2.75,-1.5 -2,-0.75 -4.75,-1.75 -3.25,-3.75 v -0.5 c -3.75,-3.5 -5,-3.25 -14.25,-9.75 l -1,4 c -2.25,-2.75 -6.25,-5.5 -8.5,-5.75 3.5,5 5.75,11.25 4.5,20 -1.25,-2 -3.5,-3.75 -6,-3.5 4,8.25 1,17 -4.5,26 z m -3.5,-126 c 3,0 3,-4.75 0,-4.75 -3,0 -3,4.75 0,4.75 z m -7.25,-17.75 8,2.75 2.75,-7.5 2.75,7.5 8,-3 -5.25,7.75 -11,0.25 z"/>
</svg>
