<?xml version="1.0" encoding="UTF-8"?>
<!-- Created with Inkscape (http://www.inkscape.org/) -->
<svg id="svg1" width="150mm" height="100mm" version="1.1" viewBox="0 0 150 100" xmlns="http://www.w3.org/2000/svg">
 <g id="layer1">
  <rect id="rect1" y="50" width="150" height="50" stroke-width="1.8844"/>
  <rect id="rect1-9" x="9.5367e-7" y="-3.8147e-6" width="150" height="50" fill="#fe0000" stroke-width="1.8844"/>
  <path id="path1" transform="matrix(.8055 0 0 .8055 90.832 -4.5251)" d="m-10.32 50-5.6431 4.1905 1.9683 6.7476-5.7292-4.0719-5.8091 3.9571 2.1022-6.7071-5.5586-4.302 7.0285-0.07329 2.3737-6.6159 2.2416 6.6618z" fill="#f1ff25" stroke-width="2.665"/>
  <path id="path1-8" transform="matrix(.8055 0 0 .8055 90.832 20.741)" d="m-10.32 50-5.6431 4.1905 1.9683 6.7476-5.7292-4.0719-5.8091 3.9571 2.1022-6.7071-5.5586-4.302 7.0285-0.07329 2.3737-6.6159 2.2416 6.6618z" fill="#f1ff25" stroke-width="2.665"/>
  <path id="path1-8-3" transform="matrix(.8055 0 0 .8055 128.4 8.0888)" d="m-10.32 50-5.6431 4.1905 1.9683 6.7476-5.7292-4.0719-5.8091 3.9571 2.1022-6.7071-5.5586-4.302 7.0285-0.07329 2.3737-6.6159 2.2416 6.6618z" fill="#f1ff25" stroke-width="2.665"/>
  <path id="path1-8-3-8" transform="matrix(.8055 0 0 .8055 53.268 8.0888)" d="m-10.32 50-5.6431 4.1905 1.9683 6.7476-5.7292-4.0719-5.8091 3.9571 2.1022-6.7071-5.5586-4.302 7.0285-0.07329 2.3737-6.6159 2.2416 6.6618z" fill="#f1ff25" stroke-width="2.665"/>
 </g>
</svg>
