<?xml version="1.0" encoding="UTF-8"?>
<!-- Created with Inkscape (http://www.inkscape.org/) -->
<svg id="svg1" width="150mm" height="100mm" version="1.1" viewBox="0 0 150 100" xmlns="http://www.w3.org/2000/svg">
 <g id="layer1" stroke-width="2.665">
  <rect id="rect1" width="150" height="100" fill="#00a812"/>
  <path id="path1" transform="matrix(.63978 0 0 .63978 10.358 45.923)" d="m10.32 46.824-6.234 4.5745 2.123 7.4352-6.277-4.5153-6.4152 4.3167 2.3546-7.3651-6.0879-4.7673 7.7323-0.03656 2.6527-7.2631 2.4242 7.3425z" fill="#fff"/>
  <path id="path1-1" transform="matrix(.63978 0 0 .63978 139.41 45.923)" d="m10.32 46.824-6.234 4.5745 2.123 7.4352-6.277-4.5153-6.4152 4.3167 2.3546-7.3651-6.0879-4.7673 7.7323-0.03656 2.6527-7.2631 2.4242 7.3425z" fill="#fff"/>
  <path id="path1-1-2" transform="matrix(.63978 0 0 .63978 132.84 30.92)" d="m10.32 46.824-6.234 4.5745 2.123 7.4352-6.277-4.5153-6.4152 4.3167 2.3546-7.3651-6.0879-4.7673 7.7323-0.03656 2.6527-7.2631 2.4242 7.3425z" fill="#fff"/>
  <path id="path1-1-2-7" transform="matrix(.63978 0 0 .63978 25.146 18.361)" d="m10.32 46.824-6.234 4.5745 2.123 7.4352-6.277-4.5153-6.4152 4.3167 2.3546-7.3651-6.0879-4.7673 7.7323-0.03656 2.6527-7.2631 2.4242 7.3425z" fill="#fff"/>
  <path id="path1-1-2-9" transform="matrix(.63978 0 0 .63978 16.928 32.142)" d="m10.32 46.824-6.234 4.5745 2.123 7.4352-6.277-4.5153-6.4152 4.3167 2.3546-7.3651-6.0879-4.7673 7.7323-0.03656 2.6527-7.2631 2.4242 7.3425z" fill="#fff"/>
  <path id="path1-1-2-9-3" transform="matrix(.63978 0 0 .63978 124.91 18.361)" d="m10.32 46.824-6.234 4.5745 2.123 7.4352-6.277-4.5153-6.4152 4.3167 2.3546-7.3651-6.0879-4.7673 7.7323-0.03656 2.6527-7.2631 2.4242 7.3425z" fill="#fff"/>
  <path id="path1-1-2-9-3-9" transform="matrix(.63978 0 0 .63978 38.285 5.8017)" d="m10.32 46.824-6.234 4.5745 2.123 7.4352-6.277-4.5153-6.4152 4.3167 2.3546-7.3651-6.0879-4.7673 7.7323-0.03656 2.6527-7.2631 2.4242 7.3425z" fill="#fff"/>
  <path id="path1-1-2-9-3-2" transform="matrix(.63978 0 0 .63978 111.77 5.8017)" d="m10.32 46.824-6.234 4.5745 2.123 7.4352-6.277-4.5153-6.4152 4.3167 2.3546-7.3651-6.0879-4.7673 7.7323-0.03656 2.6527-7.2631 2.4242 7.3425z" fill="#fff"/>
  <path id="path1-1-2-9-3-2-7" transform="matrix(.63978 0 0 .63978 94.228 -6.7576)" d="m10.32 46.824-6.234 4.5745 2.123 7.4352-6.277-4.5153-6.4152 4.3167 2.3546-7.3651-6.0879-4.7673 7.7323-0.03656 2.6527-7.2631 2.4242 7.3425z" fill="#fff"/>
  <path id="path1-1-2-9-3-2-7-3" transform="matrix(.63978 0 0 .63978 74.967 -6.7576)" d="m10.32 46.824-6.234 4.5745 2.123 7.4352-6.277-4.5153-6.4152 4.3167 2.3546-7.3651-6.0879-4.7673 7.7323-0.03656 2.6527-7.2631 2.4242 7.3425z" fill="#fff"/>
  <path id="path1-1-2-9-3-2-2" transform="matrix(.63978 0 0 .63978 55.705 -6.7576)" d="m10.32 46.824-6.234 4.5745 2.123 7.4352-6.277-4.5153-6.4152 4.3167 2.3546-7.3651-6.0879-4.7673 7.7323-0.03656 2.6527-7.2631 2.4242 7.3425z" fill="#fff"/>
 </g>
</svg>
