<?xml version="1.0" encoding="UTF-8" standalone="no"?>
<!-- Created with Inkscape (http://www.inkscape.org/) -->

<svg
   width="150mm"
   height="100mm"
   viewBox="0 0 150 100"
   version="1.1"
   id="svg1"
   inkscape:version="1.3.2 (091e20e, 2023-11-25, custom)"
   sodipodi:docname="ris.svg"
   xmlns:inkscape="http://www.inkscape.org/namespaces/inkscape"
   xmlns:sodipodi="http://sodipodi.sourceforge.net/DTD/sodipodi-0.dtd"
   xmlns="http://www.w3.org/2000/svg"
   xmlns:svg="http://www.w3.org/2000/svg">
  <sodipodi:namedview
     id="namedview1"
     pagecolor="#ffffff"
     bordercolor="#000000"
     borderopacity="0.25"
     inkscape:showpageshadow="2"
     inkscape:pageopacity="0.0"
     inkscape:pagecheckerboard="0"
     inkscape:deskcolor="#d1d1d1"
     inkscape:document-units="mm"
     inkscape:zoom="1.3843855"
     inkscape:cx="241.62345"
     inkscape:cy="181.66905"
     inkscape:window-width="1920"
     inkscape:window-height="991"
     inkscape:window-x="-9"
     inkscape:window-y="-9"
     inkscape:window-maximized="1"
     inkscape:current-layer="layer1" />
  <defs
     id="defs1" />
  <g
     inkscape:label="Слой 1"
     inkscape:groupmode="layer"
     id="layer1">
    <rect
       style="fill:#00a812;stroke-width:2.66499;fill-opacity:1"
       id="rect1"
       width="150"
       height="100"
       x="0"
       y="0" />
    <path
       sodipodi:type="star"
       style="fill:#ffffff;fill-opacity:1;stroke-width:2.66499"
       id="path1"
       inkscape:flatsided="false"
       sodipodi:sides="5"
       sodipodi:cx="0"
       sodipodi:cy="50"
       sodipodi:r1="10.798003"
       sodipodi:r2="4.3192005"
       sodipodi:arg1="-0.29851207"
       sodipodi:arg2="0.32980646"
       inkscape:rounded="0"
       inkscape:randomized="0"
       d="m 10.320463,46.824324 -6.2340456,4.574492 2.123028,7.43519 -6.27702601,-4.515334 -6.41523419,4.316719 2.3546303,-7.365121 -6.0878605,-4.767311 7.7322673,-0.03656 2.65272927,-7.263079 2.42417383,7.342525 z"
       inkscape:transform-center-x="-0.033402333"
       inkscape:transform-center-y="-0.62783743"
       transform="matrix(0.63977682,0,0,0.63977682,10.358383,45.923074)" />
    <path
       sodipodi:type="star"
       style="fill:#ffffff;fill-opacity:1;stroke-width:2.66499"
       id="path1-1"
       inkscape:flatsided="false"
       sodipodi:sides="5"
       sodipodi:cx="0"
       sodipodi:cy="50"
       sodipodi:r1="10.798003"
       sodipodi:r2="4.3192005"
       sodipodi:arg1="-0.29851207"
       sodipodi:arg2="0.32980646"
       inkscape:rounded="0"
       inkscape:randomized="0"
       d="m 10.320463,46.824324 -6.2340456,4.574492 2.123028,7.43519 -6.27702601,-4.515334 -6.41523419,4.316719 2.3546303,-7.365121 -6.0878605,-4.767311 7.7322673,-0.03656 2.65272927,-7.263079 2.42417383,7.342525 z"
       inkscape:transform-center-x="-0.033402333"
       inkscape:transform-center-y="-0.62783743"
       transform="matrix(0.63977682,0,0,0.63977682,139.40551,45.923074)" />
    <path
       sodipodi:type="star"
       style="fill:#ffffff;fill-opacity:1;stroke-width:2.66499"
       id="path1-1-2"
       inkscape:flatsided="false"
       sodipodi:sides="5"
       sodipodi:cx="0"
       sodipodi:cy="50"
       sodipodi:r1="10.798003"
       sodipodi:r2="4.3192005"
       sodipodi:arg1="-0.29851207"
       sodipodi:arg2="0.32980646"
       inkscape:rounded="0"
       inkscape:randomized="0"
       d="m 10.320463,46.824324 -6.2340456,4.574492 2.123028,7.43519 -6.27702601,-4.515334 -6.41523419,4.316719 2.3546303,-7.365121 -6.0878605,-4.767311 7.7322673,-0.03656 2.65272927,-7.263079 2.42417383,7.342525 z"
       inkscape:transform-center-x="-0.033402333"
       inkscape:transform-center-y="-0.62783743"
       transform="matrix(0.63977682,0,0,0.63977682,132.83612,30.920194)" />
    <path
       sodipodi:type="star"
       style="fill:#ffffff;fill-opacity:1;stroke-width:2.66499"
       id="path1-1-2-7"
       inkscape:flatsided="false"
       sodipodi:sides="5"
       sodipodi:cx="0"
       sodipodi:cy="50"
       sodipodi:r1="10.798003"
       sodipodi:r2="4.3192005"
       sodipodi:arg1="-0.29851207"
       sodipodi:arg2="0.32980646"
       inkscape:rounded="0"
       inkscape:randomized="0"
       d="m 10.320463,46.824324 -6.2340456,4.574492 2.123028,7.43519 -6.27702601,-4.515334 -6.41523419,4.316719 2.3546303,-7.365121 -6.0878605,-4.767311 7.7322673,-0.03656 2.65272927,-7.263079 2.42417383,7.342525 z"
       inkscape:transform-center-x="-0.033402333"
       inkscape:transform-center-y="-0.62783743"
       transform="matrix(0.63977682,0,0,0.63977682,25.145921,18.360935)" />
    <path
       sodipodi:type="star"
       style="fill:#ffffff;fill-opacity:1;stroke-width:2.66499"
       id="path1-1-2-9"
       inkscape:flatsided="false"
       sodipodi:sides="5"
       sodipodi:cx="0"
       sodipodi:cy="50"
       sodipodi:r1="10.798003"
       sodipodi:r2="4.3192005"
       sodipodi:arg1="-0.29851207"
       sodipodi:arg2="0.32980646"
       inkscape:rounded="0"
       inkscape:randomized="0"
       d="m 10.320463,46.824324 -6.2340456,4.574492 2.123028,7.43519 -6.27702601,-4.515334 -6.41523419,4.316719 2.3546303,-7.365121 -6.0878605,-4.767311 7.7322673,-0.03656 2.65272927,-7.263079 2.42417383,7.342525 z"
       inkscape:transform-center-x="-0.033402333"
       inkscape:transform-center-y="-0.62783743"
       transform="matrix(0.63977682,0,0,0.63977682,16.927774,32.142004)" />
    <path
       sodipodi:type="star"
       style="fill:#ffffff;fill-opacity:1;stroke-width:2.66499"
       id="path1-1-2-9-3"
       inkscape:flatsided="false"
       sodipodi:sides="5"
       sodipodi:cx="0"
       sodipodi:cy="50"
       sodipodi:r1="10.798003"
       sodipodi:r2="4.3192005"
       sodipodi:arg1="-0.29851207"
       sodipodi:arg2="0.32980646"
       inkscape:rounded="0"
       inkscape:randomized="0"
       d="m 10.320463,46.824324 -6.2340456,4.574492 2.123028,7.43519 -6.27702601,-4.515334 -6.41523419,4.316719 2.3546303,-7.365121 -6.0878605,-4.767311 7.7322673,-0.03656 2.65272927,-7.263079 2.42417383,7.342525 z"
       inkscape:transform-center-x="-0.033402333"
       inkscape:transform-center-y="-0.62783743"
       transform="matrix(0.63977682,0,0,0.63977682,124.9104,18.360935)" />
    <path
       sodipodi:type="star"
       style="fill:#ffffff;fill-opacity:1;stroke-width:2.66499"
       id="path1-1-2-9-3-9"
       inkscape:flatsided="false"
       sodipodi:sides="5"
       sodipodi:cx="0"
       sodipodi:cy="50"
       sodipodi:r1="10.798003"
       sodipodi:r2="4.3192005"
       sodipodi:arg1="-0.29851207"
       sodipodi:arg2="0.32980646"
       inkscape:rounded="0"
       inkscape:randomized="0"
       d="m 10.320463,46.824324 -6.2340456,4.574492 2.123028,7.43519 -6.27702601,-4.515334 -6.41523419,4.316719 2.3546303,-7.365121 -6.0878605,-4.767311 7.7322673,-0.03656 2.65272927,-7.263079 2.42417383,7.342525 z"
       inkscape:transform-center-x="-0.033402333"
       inkscape:transform-center-y="-0.62783743"
       transform="matrix(0.63977682,0,0,0.63977682,38.284703,5.8016763)" />
    <path
       sodipodi:type="star"
       style="fill:#ffffff;fill-opacity:1;stroke-width:2.66499"
       id="path1-1-2-9-3-2"
       inkscape:flatsided="false"
       sodipodi:sides="5"
       sodipodi:cx="0"
       sodipodi:cy="50"
       sodipodi:r1="10.798003"
       sodipodi:r2="4.3192005"
       sodipodi:arg1="-0.29851207"
       sodipodi:arg2="0.32980646"
       inkscape:rounded="0"
       inkscape:randomized="0"
       d="m 10.320463,46.824324 -6.2340456,4.574492 2.123028,7.43519 -6.27702601,-4.515334 -6.41523419,4.316719 2.3546303,-7.365121 -6.0878605,-4.767311 7.7322673,-0.03656 2.65272927,-7.263079 2.42417383,7.342525 z"
       inkscape:transform-center-x="-0.033402333"
       inkscape:transform-center-y="-0.62783743"
       transform="matrix(0.63977682,0,0,0.63977682,111.77162,5.8016763)" />
    <path
       sodipodi:type="star"
       style="fill:#ffffff;fill-opacity:1;stroke-width:2.66499"
       id="path1-1-2-9-3-2-7"
       inkscape:flatsided="false"
       sodipodi:sides="5"
       sodipodi:cx="0"
       sodipodi:cy="50"
       sodipodi:r1="10.798003"
       sodipodi:r2="4.3192005"
       sodipodi:arg1="-0.29851207"
       sodipodi:arg2="0.32980646"
       inkscape:rounded="0"
       inkscape:randomized="0"
       d="m 10.320463,46.824324 -6.2340456,4.574492 2.123028,7.43519 -6.27702601,-4.515334 -6.41523419,4.316719 2.3546303,-7.365121 -6.0878605,-4.767311 7.7322673,-0.03656 2.65272927,-7.263079 2.42417383,7.342525 z"
       inkscape:transform-center-x="-0.033402333"
       inkscape:transform-center-y="-0.62783743"
       transform="matrix(0.63977682,0,0,0.63977682,94.227757,-6.7575824)" />
    <path
       sodipodi:type="star"
       style="fill:#ffffff;fill-opacity:1;stroke-width:2.66499"
       id="path1-1-2-9-3-2-7-3"
       inkscape:flatsided="false"
       sodipodi:sides="5"
       sodipodi:cx="0"
       sodipodi:cy="50"
       sodipodi:r1="10.798003"
       sodipodi:r2="4.3192005"
       sodipodi:arg1="-0.29851207"
       sodipodi:arg2="0.32980646"
       inkscape:rounded="0"
       inkscape:randomized="0"
       d="m 10.320463,46.824324 -6.2340456,4.574492 2.123028,7.43519 -6.27702601,-4.515334 -6.41523419,4.316719 2.3546303,-7.365121 -6.0878605,-4.767311 7.7322673,-0.03656 2.65272927,-7.263079 2.42417383,7.342525 z"
       inkscape:transform-center-x="-0.033402333"
       inkscape:transform-center-y="-0.62783743"
       transform="matrix(0.63977682,0,0,0.63977682,74.966598,-6.7575824)" />
    <path
       sodipodi:type="star"
       style="fill:#ffffff;fill-opacity:1;stroke-width:2.66499"
       id="path1-1-2-9-3-2-2"
       inkscape:flatsided="false"
       sodipodi:sides="5"
       sodipodi:cx="0"
       sodipodi:cy="50"
       sodipodi:r1="10.798003"
       sodipodi:r2="4.3192005"
       sodipodi:arg1="-0.29851207"
       sodipodi:arg2="0.32980646"
       inkscape:rounded="0"
       inkscape:randomized="0"
       d="m 10.320463,46.824324 -6.2340456,4.574492 2.123028,7.43519 -6.27702601,-4.515334 -6.41523419,4.316719 2.3546303,-7.365121 -6.0878605,-4.767311 7.7322673,-0.03656 2.65272927,-7.263079 2.42417383,7.342525 z"
       inkscape:transform-center-x="-0.033402333"
       inkscape:transform-center-y="-0.62783743"
       transform="matrix(0.63977682,0,0,0.63977682,55.705439,-6.7575824)" />
  </g>
</svg>
