<?xml version="1.0" encoding="UTF-8"?>
<!-- Created with Inkscape (http://www.inkscape.org/) -->
<svg id="svg1" width="150mm" height="100mm" version="1.1" viewBox="0 0 150 100" xmlns="http://www.w3.org/2000/svg">
 <g id="layer1">
  <rect id="rect1" width="150" height="100" fill="#00b901" stroke-width="2.665"/>
  <rect id="rect2" width="50" height="100" fill="#b9000e" stroke-width="2.6088"/>
  <path id="path2" transform="matrix(.66602 -.0080329 .0080329 .66602 -22.053 19.053)" d="m79.126 45.374-5.4572 4.0484 1.8997 6.5239-5.5366-3.939-5.6176 3.8228 2.0353-6.4829-5.3716-4.1613 6.7945-0.06761 2.2978-6.3946 2.1639 6.4411z" fill="#fff" stroke-width="2.665"/>
  <path id="path2-4" transform="matrix(.66602 -.0080329 .0080329 .66602 -22.053 5.8292)" d="m79.126 45.374-5.4572 4.0484 1.8997 6.5239-5.5366-3.939-5.6176 3.8228 2.0353-6.4829-5.3716-4.1613 6.7945-0.06761 2.2978-6.3946 2.1639 6.4411z" fill="#fff" stroke-width="2.665"/>
  <path id="path2-4-5" transform="matrix(.66602 -.0080329 .0080329 .66602 -22.053 32.278)" d="m79.126 45.374-5.4572 4.0484 1.8997 6.5239-5.5366-3.939-5.6176 3.8228 2.0353-6.4829-5.3716-4.1613 6.7945-0.06761 2.2978-6.3946 2.1639 6.4411z" fill="#fff" stroke-width="2.665"/>
  <path id="path2-4-5-6" transform="matrix(.66602 -.0080329 .0080329 .66602 -22.053 45.502)" d="m79.126 45.374-5.4572 4.0484 1.8997 6.5239-5.5366-3.939-5.6176 3.8228 2.0353-6.4829-5.3716-4.1613 6.7945-0.06761 2.2978-6.3946 2.1639 6.4411z" fill="#fff" stroke-width="2.665"/>
  <path id="path2-4-5-6-3" transform="matrix(.66602 -.0080329 .0080329 .66602 -22.053 58.726)" d="m79.126 45.374-5.4572 4.0484 1.8997 6.5239-5.5366-3.939-5.6176 3.8228 2.0353-6.4829-5.3716-4.1613 6.7945-0.06761 2.2978-6.3946 2.1639 6.4411z" fill="#fff" stroke-width="2.665"/>
  <path id="path2-4-6" transform="matrix(.66602 -.0080329 .0080329 .66602 -22.053 -7.3949)" d="m79.126 45.374-5.4572 4.0484 1.8997 6.5239-5.5366-3.939-5.6176 3.8228 2.0353-6.4829-5.3716-4.1613 6.7945-0.06761 2.2978-6.3946 2.1639 6.4411z" fill="#fff" stroke-width="2.665"/>
  <path id="path2-4-0" transform="matrix(.66602 -.0080329 .0080329 .66602 -22.053 -20.619)" d="m79.126 45.374-5.4572 4.0484 1.8997 6.5239-5.5366-3.939-5.6176 3.8228 2.0353-6.4829-5.3716-4.1613 6.7945-0.06761 2.2978-6.3946 2.1639 6.4411z" fill="#fff" stroke-width="2.665"/>
  <rect id="rect3" x="50" y="44.28" width="100" height="11.439" stroke-width="2.176"/>
  <rect id="rect3-9" x="50" y="32.841" width="100" height="11.439" fill="#ffe816" stroke-width="2.176"/>
  <rect id="rect3-9-2" x="50" y="55.72" width="100" height="11.439" fill="#ffe816" stroke-width="2.176"/>
 </g>
</svg>
