<?xml version="1.0" encoding="UTF-8" standalone="no"?>
<!-- Created with Inkscape (http://www.inkscape.org/) -->

<svg
   width="150mm"
   height="100mm"
   viewBox="0 0 150 100"
   version="1.1"
   id="svg1"
   inkscape:version="1.3.2 (091e20e, 2023-11-25, custom)"
   sodipodi:docname="jun.svg"
   xmlns:inkscape="http://www.inkscape.org/namespaces/inkscape"
   xmlns:sodipodi="http://sodipodi.sourceforge.net/DTD/sodipodi-0.dtd"
   xmlns="http://www.w3.org/2000/svg"
   xmlns:svg="http://www.w3.org/2000/svg">
  <sodipodi:namedview
     id="namedview1"
     pagecolor="#ffffff"
     bordercolor="#000000"
     borderopacity="0.25"
     inkscape:showpageshadow="2"
     inkscape:pageopacity="0.0"
     inkscape:pagecheckerboard="0"
     inkscape:deskcolor="#d1d1d1"
     inkscape:document-units="mm"
     inkscape:zoom="1.4627806"
     inkscape:cx="287.46622"
     inkscape:cy="247.8157"
     inkscape:window-width="1920"
     inkscape:window-height="1017"
     inkscape:window-x="-8"
     inkscape:window-y="-8"
     inkscape:window-maximized="1"
     inkscape:current-layer="layer1" />
  <defs
     id="defs1" />
  <g
     inkscape:label="Layer 1"
     inkscape:groupmode="layer"
     id="layer1">
    <rect
       style="fill:#0060c6;stroke-width:0.132292;fill-opacity:1"
       id="rect6"
       width="150"
       height="100"
       x="0"
       y="0" />
    <path
       id="rect7-5"
       style="fill:#ffffff;fill-opacity:1;stroke-width:0.162066"
       d="M 74.883071,24.961023 150,100 H 1.5e-6 Z"
       sodipodi:nodetypes="cccc" />
    <path
       id="rect7"
       style="fill:#09bd20;stroke-width:0.108016"
       d="M 74.883069,66.666667 150,100 H 0 Z"
       sodipodi:nodetypes="cccc" />
    <path
       sodipodi:type="star"
       style="fill:#e9ff00;fill-opacity:1;stroke-width:0.132292"
       id="path7"
       inkscape:flatsided="false"
       sodipodi:sides="16"
       sodipodi:cx="11.39525"
       sodipodi:cy="66.666664"
       sodipodi:r1="4.7805085"
       sodipodi:r2="3.6809914"
       sodipodi:arg1="-0.33041218"
       sodipodi:arg2="-0.13406264"
       inkscape:rounded="0"
       inkscape:randomized="0"
       d="m 15.917175,65.11571 -0.873963,1.058948 1.123276,0.789577 -1.212677,0.643889 0.735613,1.159333 -1.366774,0.130805 0.235961,1.352591 -1.312791,-0.402194 -0.299615,1.33993 -1.058948,-0.873963 -0.789577,1.123276 -0.64389,-1.212678 -1.1593328,0.735614 -0.1308044,-1.366774 -1.3525915,0.235961 0.4021943,-1.312791 -1.3399299,-0.299615 0.8739625,-1.058948 -1.123276,-0.789577 1.2126779,-0.64389 -0.7356137,-1.159333 1.366774,-0.130804 -0.2359608,-1.352592 1.3127913,0.402194 0.299615,-1.339929 1.0589481,0.873962 0.789577,-1.123276 0.643889,1.212678 1.159333,-0.735614 0.130805,1.366774 1.352591,-0.235961 -0.402194,1.312792 z"
       inkscape:transform-center-x="0.024008846"
       inkscape:transform-center-y="-0.43360484"
       transform="translate(3.2557857)" />
    <path
       sodipodi:type="star"
       style="fill:#e9ff00;fill-opacity:1;stroke-width:0.132292"
       id="path7-2"
       inkscape:flatsided="false"
       sodipodi:sides="16"
       sodipodi:cx="11.39525"
       sodipodi:cy="66.666664"
       sodipodi:r1="4.7805085"
       sodipodi:r2="3.6809914"
       sodipodi:arg1="-0.33041218"
       sodipodi:arg2="-0.13406264"
       inkscape:rounded="0"
       inkscape:randomized="0"
       d="m 15.917175,65.11571 -0.873963,1.058948 1.123276,0.789577 -1.212677,0.643889 0.735613,1.159333 -1.366774,0.130805 0.235961,1.352591 -1.312791,-0.402194 -0.299615,1.33993 -1.058948,-0.873963 -0.789577,1.123276 -0.64389,-1.212678 -1.1593328,0.735614 -0.1308044,-1.366774 -1.3525915,0.235961 0.4021943,-1.312791 -1.3399299,-0.299615 0.8739625,-1.058948 -1.123276,-0.789577 1.2126779,-0.64389 -0.7356137,-1.159333 1.366774,-0.130804 -0.2359608,-1.352592 1.3127913,0.402194 0.299615,-1.339929 1.0589481,0.873962 0.789577,-1.123276 0.643889,1.212678 1.159333,-0.735614 0.130805,1.366774 1.352591,-0.235961 -0.402194,1.312792 z"
       inkscape:transform-center-x="0.024008846"
       inkscape:transform-center-y="-0.43360484"
       transform="translate(125.09304)" />
    <path
       sodipodi:type="star"
       style="fill:#e9ff00;fill-opacity:1;stroke-width:0.132292"
       id="path7-2-7"
       inkscape:flatsided="false"
       sodipodi:sides="16"
       sodipodi:cx="11.39525"
       sodipodi:cy="66.666664"
       sodipodi:r1="4.7805085"
       sodipodi:r2="3.6809914"
       sodipodi:arg1="-0.33041218"
       sodipodi:arg2="-0.13406264"
       inkscape:rounded="0"
       inkscape:randomized="0"
       d="m 15.917175,65.11571 -0.873963,1.058948 1.123276,0.789577 -1.212677,0.643889 0.735613,1.159333 -1.366774,0.130805 0.235961,1.352591 -1.312791,-0.402194 -0.299615,1.33993 -1.058948,-0.873963 -0.789577,1.123276 -0.64389,-1.212678 -1.1593328,0.735614 -0.1308044,-1.366774 -1.3525915,0.235961 0.4021943,-1.312791 -1.3399299,-0.299615 0.8739625,-1.058948 -1.123276,-0.789577 1.2126779,-0.64389 -0.7356137,-1.159333 1.366774,-0.130804 -0.2359608,-1.352592 1.3127913,0.402194 0.299615,-1.339929 1.0589481,0.873962 0.789577,-1.123276 0.643889,1.212678 1.159333,-0.735614 0.130805,1.366774 1.352591,-0.235961 -0.402194,1.312792 z"
       inkscape:transform-center-x="0.024008846"
       inkscape:transform-center-y="-0.43360484"
       transform="translate(115.83298,-16.666664)" />
    <path
       sodipodi:type="star"
       style="fill:#e9ff00;fill-opacity:1;stroke-width:0.132292"
       id="path7-2-7-3"
       inkscape:flatsided="false"
       sodipodi:sides="16"
       sodipodi:cx="11.39525"
       sodipodi:cy="66.666664"
       sodipodi:r1="4.7805085"
       sodipodi:r2="3.6809914"
       sodipodi:arg1="-0.33041218"
       sodipodi:arg2="-0.13406264"
       inkscape:rounded="0"
       inkscape:randomized="0"
       d="m 15.917175,65.11571 -0.873963,1.058948 1.123276,0.789577 -1.212677,0.643889 0.735613,1.159333 -1.366774,0.130805 0.235961,1.352591 -1.312791,-0.402194 -0.299615,1.33993 -1.058948,-0.873963 -0.789577,1.123276 -0.64389,-1.212678 -1.1593328,0.735614 -0.1308044,-1.366774 -1.3525915,0.235961 0.4021943,-1.312791 -1.3399299,-0.299615 0.8739625,-1.058948 -1.123276,-0.789577 1.2126779,-0.64389 -0.7356137,-1.159333 1.366774,-0.130804 -0.2359608,-1.352592 1.3127913,0.402194 0.299615,-1.339929 1.0589481,0.873962 0.789577,-1.123276 0.643889,1.212678 1.159333,-0.735614 0.130805,1.366774 1.352591,-0.235961 -0.402194,1.312792 z"
       inkscape:transform-center-x="0.024008846"
       inkscape:transform-center-y="-0.43360484"
       transform="translate(10.553814,-16.666664)" />
    <path
       sodipodi:type="star"
       style="fill:#e9ff00;fill-opacity:1;stroke-width:0.132292"
       id="path7-2-7-3-5"
       inkscape:flatsided="false"
       sodipodi:sides="16"
       sodipodi:cx="11.39525"
       sodipodi:cy="66.666664"
       sodipodi:r1="4.7805085"
       sodipodi:r2="3.6809914"
       sodipodi:arg1="-0.33041218"
       sodipodi:arg2="-0.13406264"
       inkscape:rounded="0"
       inkscape:randomized="0"
       d="m 15.917175,65.11571 -0.873963,1.058948 1.123276,0.789577 -1.212677,0.643889 0.735613,1.159333 -1.366774,0.130805 0.235961,1.352591 -1.312791,-0.402194 -0.299615,1.33993 -1.058948,-0.873963 -0.789577,1.123276 -0.64389,-1.212678 -1.1593328,0.735614 -0.1308044,-1.366774 -1.3525915,0.235961 0.4021943,-1.312791 -1.3399299,-0.299615 0.8739625,-1.058948 -1.123276,-0.789577 1.2126779,-0.64389 -0.7356137,-1.159333 1.366774,-0.130804 -0.2359608,-1.352592 1.3127913,0.402194 0.299615,-1.339929 1.0589481,0.873962 0.789577,-1.123276 0.643889,1.212678 1.159333,-0.735614 0.130805,1.366774 1.352591,-0.235961 -0.402194,1.312792 z"
       inkscape:transform-center-x="0.024008846"
       inkscape:transform-center-y="-0.43360484"
       transform="translate(22.102016,-30.241955)" />
    <path
       sodipodi:type="star"
       style="fill:#e9ff00;fill-opacity:1;stroke-width:0.132292"
       id="path7-2-7-3-5-2"
       inkscape:flatsided="false"
       sodipodi:sides="16"
       sodipodi:cx="11.39525"
       sodipodi:cy="66.666664"
       sodipodi:r1="4.7805085"
       sodipodi:r2="3.6809914"
       sodipodi:arg1="-0.33041218"
       sodipodi:arg2="-0.13406264"
       inkscape:rounded="0"
       inkscape:randomized="0"
       d="m 15.917175,65.11571 -0.873963,1.058948 1.123276,0.789577 -1.212677,0.643889 0.735613,1.159333 -1.366774,0.130805 0.235961,1.352591 -1.312791,-0.402194 -0.299615,1.33993 -1.058948,-0.873963 -0.789577,1.123276 -0.64389,-1.212678 -1.1593328,0.735614 -0.1308044,-1.366774 -1.3525915,0.235961 0.4021943,-1.312791 -1.3399299,-0.299615 0.8739625,-1.058948 -1.123276,-0.789577 1.2126779,-0.64389 -0.7356137,-1.159333 1.366774,-0.130804 -0.2359608,-1.352592 1.3127913,0.402194 0.299615,-1.339929 1.0589481,0.873962 0.789577,-1.123276 0.643889,1.212678 1.159333,-0.735614 0.130805,1.366774 1.352591,-0.235961 -0.402194,1.312792 z"
       inkscape:transform-center-x="0.024008846"
       inkscape:transform-center-y="-0.43360484"
       transform="translate(103.67753,-30.241955)" />
    <path
       sodipodi:type="star"
       style="fill:#e9ff00;fill-opacity:1;stroke-width:0.132292"
       id="path7-2-7-3-5-2-8"
       inkscape:flatsided="false"
       sodipodi:sides="16"
       sodipodi:cx="11.39525"
       sodipodi:cy="66.666664"
       sodipodi:r1="4.7805085"
       sodipodi:r2="3.6809914"
       sodipodi:arg1="-0.33041218"
       sodipodi:arg2="-0.13406264"
       inkscape:rounded="0"
       inkscape:randomized="0"
       d="m 15.917175,65.11571 -0.873963,1.058948 1.123276,0.789577 -1.212677,0.643889 0.735613,1.159333 -1.366774,0.130805 0.235961,1.352591 -1.312791,-0.402194 -0.299615,1.33993 -1.058948,-0.873963 -0.789577,1.123276 -0.64389,-1.212678 -1.1593328,0.735614 -0.1308044,-1.366774 -1.3525915,0.235961 0.4021943,-1.312791 -1.3399299,-0.299615 0.8739625,-1.058948 -1.123276,-0.789577 1.2126779,-0.64389 -0.7356137,-1.159333 1.366774,-0.130804 -0.2359608,-1.352592 1.3127913,0.402194 0.299615,-1.339929 1.0589481,0.873962 0.789577,-1.123276 0.643889,1.212678 1.159333,-0.735614 0.130805,1.366774 1.352591,-0.235961 -0.402194,1.312792 z"
       inkscape:transform-center-x="0.024008846"
       inkscape:transform-center-y="-0.43360484"
       transform="translate(88.864784,-41.705641)" />
    <path
       sodipodi:type="star"
       style="fill:#e9ff00;fill-opacity:1;stroke-width:0.132292"
       id="path7-2-7-3-5-2-8-4"
       inkscape:flatsided="false"
       sodipodi:sides="16"
       sodipodi:cx="11.39525"
       sodipodi:cy="66.666664"
       sodipodi:r1="4.7805085"
       sodipodi:r2="3.6809914"
       sodipodi:arg1="-0.33041218"
       sodipodi:arg2="-0.13406264"
       inkscape:rounded="0"
       inkscape:randomized="0"
       d="m 15.917175,65.11571 -0.873963,1.058948 1.123276,0.789577 -1.212677,0.643889 0.735613,1.159333 -1.366774,0.130805 0.235961,1.352591 -1.312791,-0.402194 -0.299615,1.33993 -1.058948,-0.873963 -0.789577,1.123276 -0.64389,-1.212678 -1.1593328,0.735614 -0.1308044,-1.366774 -1.3525915,0.235961 0.4021943,-1.312791 -1.3399299,-0.299615 0.8739625,-1.058948 -1.123276,-0.789577 1.2126779,-0.64389 -0.7356137,-1.159333 1.366774,-0.130804 -0.2359608,-1.352592 1.3127913,0.402194 0.299615,-1.339929 1.0589481,0.873962 0.789577,-1.123276 0.643889,1.212678 1.159333,-0.735614 0.130805,1.366774 1.352591,-0.235961 -0.402194,1.312792 z"
       inkscape:transform-center-x="0.024008846"
       inkscape:transform-center-y="-0.43360484"
       transform="translate(63.60475,-49.612818)" />
    <path
       sodipodi:type="star"
       style="fill:#e9ff00;fill-opacity:1;stroke-width:0.132292"
       id="path7-2-7-3-5-2-8-4-6"
       inkscape:flatsided="false"
       sodipodi:sides="16"
       sodipodi:cx="11.39525"
       sodipodi:cy="66.666664"
       sodipodi:r1="4.7805085"
       sodipodi:r2="3.6809914"
       sodipodi:arg1="-0.33041218"
       sodipodi:arg2="-0.13406264"
       inkscape:rounded="0"
       inkscape:randomized="0"
       d="m 15.917175,65.11571 -0.873963,1.058948 1.123276,0.789577 -1.212677,0.643889 0.735613,1.159333 -1.366774,0.130805 0.235961,1.352591 -1.312791,-0.402194 -0.299615,1.33993 -1.058948,-0.873963 -0.789577,1.123276 -0.64389,-1.212678 -1.1593328,0.735614 -0.1308044,-1.366774 -1.3525915,0.235961 0.4021943,-1.312791 -1.3399299,-0.299615 0.8739625,-1.058948 -1.123276,-0.789577 1.2126779,-0.64389 -0.7356137,-1.159333 1.366774,-0.130804 -0.2359608,-1.352592 1.3127913,0.402194 0.299615,-1.339929 1.0589481,0.873962 0.789577,-1.123276 0.643889,1.212678 1.159333,-0.735614 0.130805,1.366774 1.352591,-0.235961 -0.402194,1.312792 z"
       inkscape:transform-center-x="0.024008846"
       inkscape:transform-center-y="-0.43360484"
       transform="translate(38.344716,-41.705641)" />
  </g>
</svg>
