<?xml version="1.0" encoding="utf-8"?>
<!-- Generator: Adobe Illustrator 24.0.1, SVG Export Plug-In . SVG Version: 6.00 Build 0)  -->
<svg version="1.1" id="Paño" xmlns="http://www.w3.org/2000/svg" xmlns:xlink="http://www.w3.org/1999/xlink" x="0px" y="0px"
	 width="750px" height="500px" viewBox="0 0 750 500" style="enable-background:new 0 0 750 500;" xml:space="preserve">
<style type="text/css">
	.st0{fill:#0D48AF;}
	.st1{fill:#FFFFFF;}
	.st2{fill:#256F20;}
	.st3{fill:#F5DC16;}
</style>
<rect class="st0" width="750" height="500"/>
<polygon class="st1" points="0,500 750,500 375,135 "/>
<polygon class="st2" points="0,500 750,500 375,330 "/>
<polygon class="st3" points="302.9,115.2 307.5,120.2 302,124.1 304.1,130.5 297.4,131.8 296.8,138.6 290.2,137.1 286.9,143 
	281.4,138.9 276,143 272.7,137 266,138.5 265.5,131.7 258.8,130.4 261,124 255.4,120 260.1,115 256.6,109.2 262.9,106.5 262.1,99.8 
	268.9,99.9 270.9,93.4 277.1,96.3 281.6,91.2 286,96.3 292.2,93.5 294.2,100 301,99.9 300.2,106.7 306.4,109.4 "/>
<polygon class="st3" points="220.9,168.2 225.5,173.2 220,177.1 222.1,183.5 215.4,184.8 214.8,191.6 208.2,190.1 204.9,196 
	199.4,191.9 194,196 190.7,190 184,191.5 183.5,184.7 176.8,183.4 179,177 173.4,173 178.1,168 174.6,162.2 180.9,159.5 
	180.1,152.8 186.9,152.9 188.9,146.4 195.1,149.3 199.6,144.2 204,149.3 210.2,146.5 212.2,153 219,152.9 218.2,159.7 224.4,162.4 
	"/>
<polygon class="st3" points="150.9,234.2 155.5,239.2 150,243.1 152.1,249.5 145.4,250.8 144.8,257.6 138.2,256.1 134.9,262 
	129.4,257.9 124,262 120.7,256 114,257.5 113.5,250.7 106.8,249.4 109,243 103.4,239 108.1,234 104.6,228.2 110.9,225.5 
	110.1,218.8 116.9,218.9 118.9,212.4 125.1,215.3 129.6,210.2 134,215.3 140.2,212.5 142.2,219 149,218.9 148.2,225.7 154.4,228.4 
	"/>
<polygon class="st3" points="98.9,320.2 103.5,325.2 98,329.1 100.1,335.5 93.4,336.8 92.8,343.6 86.2,342.1 82.9,348 77.4,343.9 
	72,348 68.7,342 62,343.5 61.5,336.7 54.8,335.4 57,329 51.4,325 56.1,320 52.6,314.2 58.9,311.5 58.1,304.8 64.9,304.9 66.9,298.4 
	73.1,301.3 77.6,296.2 82,301.3 88.2,298.5 90.2,305 97,304.9 96.2,311.7 102.4,314.4 "/>
<polygon class="st3" points="447.1,115.2 442.4,120.2 448,124.1 445.8,130.5 452.5,131.8 453.2,138.6 459.8,137.1 463.1,143 
	468.6,138.9 474,143 477.3,137 483.9,138.5 484.5,131.7 491.2,130.4 489,124 494.5,120 489.9,115 493.4,109.2 487.1,106.5 
	487.9,99.8 481.1,99.9 479,93.4 472.9,96.3 468.4,91.2 463.9,96.3 457.7,93.5 455.8,100 449,99.9 449.8,106.7 443.5,109.4 "/>
<polygon class="st3" points="529.1,168.2 524.4,173.2 530,177.1 527.8,183.5 534.5,184.8 535.2,191.6 541.8,190.1 545.1,196 
	550.6,191.9 556,196 559.3,190 565.9,191.5 566.5,184.7 573.2,183.4 571,177 576.5,173 571.9,168 575.4,162.2 569.1,159.5 
	569.9,152.8 563.1,152.9 561,146.4 554.9,149.3 550.4,144.2 545.9,149.3 539.7,146.5 537.8,153 531,152.9 531.8,159.7 525.5,162.4 
	"/>
<polygon class="st3" points="599.1,234.2 594.4,239.2 600,243.1 597.8,249.5 604.5,250.8 605.2,257.6 611.8,256.1 615.1,262 
	620.6,257.9 626,262 629.3,256 635.9,257.5 636.5,250.7 643.2,249.4 641,243 646.5,239 641.9,234 645.4,228.2 639.1,225.5 
	639.9,218.8 633.1,218.9 631,212.4 624.9,215.3 620.4,210.2 615.9,215.3 609.7,212.5 607.8,219 601,218.9 601.8,225.7 595.5,228.4 
	"/>
<polygon class="st3" points="651.1,320.2 646.4,325.2 652,329.1 649.8,335.5 656.5,336.8 657.2,343.6 663.8,342.1 667.1,348 
	672.6,343.9 678,348 681.3,342 687.9,343.5 688.5,336.7 695.2,335.4 693,329 698.5,325 693.9,320 697.4,314.2 691.1,311.5 
	691.9,304.8 685.1,304.9 683,298.4 676.9,301.3 672.4,296.2 667.9,301.3 661.7,298.5 659.8,305 653,304.9 653.8,311.7 647.5,314.4 
	"/>
<polygon class="st3" points="396.9,90.2 401.5,95.2 396,99.1 398.1,105.5 391.4,106.8 390.8,113.6 384.2,112.1 380.9,118 
	375.4,113.9 370,118 366.7,112 360,113.5 359.5,106.7 352.8,105.4 355,99 349.4,95 354.1,90 350.6,84.2 356.9,81.5 356.1,74.8 
	362.9,74.9 364.9,68.4 371.1,71.3 375.6,66.2 380,71.3 386.2,68.5 388.2,75 395,74.9 394.2,81.7 400.4,84.4 "/>
</svg>
