<?xml version="1.0" encoding="utf-8"?>
<!-- Generator: Adobe Illustrator 24.0.1, SVG Export Plug-In . SVG Version: 6.00 Build 0)  -->
<svg version="1.1" id="Blasón" xmlns="http://www.w3.org/2000/svg" xmlns:xlink="http://www.w3.org/1999/xlink" x="0px" y="0px"
	 width="550px" height="550px" viewBox="0 0 550 550" style="enable-background:new 0 0 550 550;" xml:space="preserve">
<style type="text/css">
	.st0{fill:#F3D620;stroke:#E8C018;stroke-width:2;stroke-miterlimit:10;}
	.st1{fill:#13248F;stroke:#E8C018;stroke-width:2;stroke-miterlimit:10;}
	.st2{fill:#973F25;stroke:#E8C018;stroke-width:2;stroke-miterlimit:10;}
	.st3{fill:#D66B31;stroke:#E8C018;stroke-width:2;stroke-miterlimit:10;}
	.st4{fill:#0A8B3F;stroke:#E8C018;stroke-width:2;stroke-miterlimit:10;}
	.st5{fill:#C61320;stroke:#E8C018;stroke-width:2;stroke-miterlimit:10;}
	.st6{fill:#A82980;stroke:#E8C018;stroke-width:2;stroke-miterlimit:10;}
	.st7{fill:#1895D3;stroke:#E8C018;stroke-width:2;stroke-miterlimit:10;}
	.st8{fill:#B3C829;stroke:#E8C018;stroke-width:2;stroke-miterlimit:10;}
</style>
<polygon class="st0" points="274.6,115.8 274.6,36.4 111.3,36.4 111.3,91.5 219.5,91.5 219.5,115.8 219.5,140.1 111.3,140.1 
	111.3,195.3 274.6,195.3 "/>
<polygon class="st1" points="274.6,115.8 274.6,36.4 437.9,36.4 437.9,91.5 329.8,91.5 329.8,115.8 329.8,140.1 437.9,140.1 
	437.9,195.3 274.6,195.3 "/>
<polygon class="st2" points="274.6,376.2 274.6,296.8 111.3,296.8 111.3,352 219.5,352 219.5,376.2 219.5,400.5 111.3,400.5 
	111.3,455.7 274.6,455.7 "/>
<polygon class="st3" points="274.6,376.2 274.6,296.8 437.9,296.8 437.9,352 329.8,352 329.8,376.2 329.8,400.5 437.9,400.5 
	437.9,455.7 274.6,455.7 "/>
<polygon class="st4" points="56.1,325.5 56.1,246 219.5,246 219.5,301.2 111.3,301.2 111.3,325.5 111.3,349.7 219.5,349.7 
	219.5,404.9 56.1,404.9 "/>
<polygon class="st5" points="56.1,166.6 56.1,87.1 219.5,87.1 219.5,142.3 111.3,142.3 111.3,166.6 111.3,190.9 219.5,190.9 
	219.5,246 56.1,246 "/>
<polygon class="st6" points="493.1,325.5 493.1,246 329.8,246 329.8,301.2 437.9,301.2 437.9,325.5 437.9,349.7 329.8,349.7 
	329.8,404.9 493.1,404.9 "/>
<polygon class="st7" points="493.1,166.6 493.1,87.1 329.8,87.1 329.8,142.3 437.9,142.3 437.9,166.6 437.9,190.9 329.8,190.9 
	329.8,246 493.1,246 "/>
<polygon class="st8" points="274.6,327.7 354.1,327.7 354.1,164.4 298.9,164.4 298.9,272.5 274.6,272.5 250.3,272.5 250.3,164.4 
	195.2,164.4 195.2,327.7 "/>
<g>
	<path d="M71.8,501.6v10.1c0,1.9-0.3,3.5-1,4.8c-0.6,1.3-1.6,2.3-2.8,3s-2.7,1-4.5,1c-1.8,0-3.3-0.3-4.6-1c-1.3-0.7-2.2-1.6-2.9-2.9
		c-0.7-1.2-1-2.8-1-4.5v-18c0-1.9,0.3-3.5,1-4.8c0.6-1.3,1.6-2.3,2.8-3c1.2-0.7,2.7-1,4.5-1c1.7,0,3.2,0.3,4.4,1
		c1.2,0.7,2.1,1.7,2.8,2.9c0.6,1.3,1,2.8,1,4.6v1.7h-4.2v-1.7c0-1-0.2-1.9-0.5-2.6c-0.3-0.7-0.7-1.2-1.3-1.6
		c-0.6-0.4-1.3-0.6-2.1-0.6c-0.9,0-1.7,0.2-2.3,0.6c-0.6,0.4-1.1,1-1.5,1.7s-0.5,1.6-0.5,2.7v18c0,0.9,0.2,1.8,0.5,2.4
		c0.3,0.7,0.9,1.2,1.5,1.5c0.7,0.3,1.5,0.5,2.4,0.5c0.9,0,1.7-0.2,2.3-0.6c0.6-0.4,1.1-0.9,1.5-1.7s0.5-1.6,0.5-2.7v-6.4h-4.4v-3.7
		H71.8z"/>
	<path d="M79.1,519.5c-1.3-0.7-2.3-1.7-2.9-3c-0.7-1.3-1-2.9-1-4.7V494c0-1.8,0.3-3.4,1-4.7c0.7-1.3,1.6-2.3,2.9-3s2.8-1,4.6-1
		s3.3,0.3,4.6,1s2.3,1.7,2.9,3c0.7,1.3,1,2.9,1,4.7v17.8c0,1.8-0.3,3.4-1,4.7c-0.7,1.3-1.6,2.3-2.9,3c-1.3,0.7-2.8,1-4.6,1
		S80.3,520.2,79.1,519.5z M86.2,516.1c0.7-0.4,1.2-0.9,1.6-1.6c0.4-0.7,0.5-1.5,0.5-2.5v-18.2c0-1-0.2-1.8-0.5-2.5
		c-0.4-0.7-0.9-1.2-1.6-1.6s-1.5-0.5-2.5-0.5c-1,0-1.8,0.2-2.5,0.5s-1.2,0.9-1.6,1.6c-0.4,0.7-0.5,1.5-0.5,2.5V512
		c0,1,0.2,1.8,0.5,2.5c0.4,0.7,0.9,1.2,1.6,1.6s1.5,0.5,2.5,0.5C84.7,516.7,85.5,516.5,86.2,516.1z"/>
	<path d="M96,485.7h4v34.5h-4V485.7z M98.9,516.5h6.2c1,0,1.8-0.3,2.4-0.8s0.8-1.2,0.8-2.1v-5.3c0-0.9-0.2-1.6-0.5-2.3
		c-0.3-0.6-0.7-1.1-1.2-1.4c-0.5-0.3-1.1-0.5-1.8-0.5h-6v-3.7h6c0.9,0,1.7-0.3,2.2-1c0.5-0.6,0.8-1.6,0.8-2.8v-4.2
		c0-0.9-0.3-1.6-0.8-2.1s-1.2-0.8-2.2-0.8h-6v-3.7h5.9c1.5,0,2.8,0.2,3.8,0.7c1.1,0.5,1.8,1.2,2.4,2.2c0.5,1,0.8,2.1,0.8,3.5v4.1
		c0,1.1-0.2,2.1-0.5,2.9s-0.7,1.5-1.3,2.1c-0.6,0.5-1.2,0.9-2.1,1.1c0.9,0.2,1.7,0.5,2.3,1.1c0.6,0.6,1.1,1.3,1.4,2.2
		c0.3,0.9,0.5,1.9,0.5,3.1v5c0,1.4-0.3,2.6-0.8,3.6c-0.5,1-1.3,1.7-2.3,2.2c-1,0.5-2.3,0.8-3.7,0.8h-6.5V516.5z"/>
	<path d="M120.1,520.2h-4v-34.5h4V520.2z"/>
	<path d="M124.6,485.7h4v34.5h-4V485.7z M127,485.7h12.4v3.7H127V485.7z M127,501.2h11.3v3.7H127V501.2z M127,516.5h12.4v3.7H127
		V516.5z"/>
	<path d="M142.5,485.7h4v34.5h-4V485.7z M144.6,501.9h6.4c0.9,0,1.7-0.2,2.3-0.5c0.6-0.3,1.1-0.8,1.5-1.5c0.3-0.7,0.5-1.4,0.5-2.3
		V494c0-0.9-0.2-1.8-0.5-2.5c-0.3-0.7-0.8-1.2-1.5-1.6c-0.7-0.4-1.4-0.5-2.4-0.5h-6.4v-3.7h6c1.8,0,3.4,0.3,4.7,0.9s2.3,1.5,3,2.7
		c0.7,1.2,1,2.6,1,4.2v4c0,1.7-0.3,3.1-1,4.4s-1.7,2.1-3,2.8c-1.3,0.6-2.9,0.9-4.7,0.9h-6V501.9z M151.1,504.5l3.7-1.1l5.5,16.7
		h-4.5L151.1,504.5z"/>
	<path d="M163.9,485.7h3.6l10.2,27.4l-0.7,0.6v-28h3.8v34.4h-3.6l-10.1-27l0.7-0.6v27.6h-3.8V485.7z"/>
	<path d="M189.1,519.5c-1.3-0.7-2.3-1.7-2.9-3c-0.7-1.3-1-2.9-1-4.7V494c0-1.8,0.3-3.4,1-4.7c0.7-1.3,1.6-2.3,2.9-3s2.8-1,4.6-1
		s3.3,0.3,4.6,1s2.3,1.7,2.9,3c0.7,1.3,1,2.9,1,4.7v17.8c0,1.8-0.3,3.4-1,4.7c-0.7,1.3-1.6,2.3-2.9,3c-1.3,0.7-2.8,1-4.6,1
		S190.3,520.2,189.1,519.5z M196.2,516.1c0.7-0.4,1.2-0.9,1.6-1.6c0.4-0.7,0.5-1.5,0.5-2.5v-18.2c0-1-0.2-1.8-0.5-2.5
		c-0.4-0.7-0.9-1.2-1.6-1.6s-1.5-0.5-2.5-0.5c-1,0-1.8,0.2-2.5,0.5s-1.2,0.9-1.6,1.6c-0.4,0.7-0.5,1.5-0.5,2.5V512
		c0,1,0.2,1.8,0.5,2.5c0.4,0.7,0.9,1.2,1.6,1.6s1.5,0.5,2.5,0.5C194.7,516.7,195.5,516.5,196.2,516.1z"/>
	<path d="M217.8,485.7h4v34.5h-4V485.7z M219.9,501.9h6.4c0.9,0,1.7-0.2,2.3-0.5c0.6-0.3,1.1-0.8,1.5-1.5c0.3-0.7,0.5-1.4,0.5-2.3
		V494c0-0.9-0.2-1.8-0.5-2.5c-0.3-0.7-0.8-1.2-1.5-1.6c-0.7-0.4-1.4-0.5-2.4-0.5h-6.4v-3.7h6c1.8,0,3.4,0.3,4.7,0.9s2.3,1.5,3,2.7
		c0.7,1.2,1,2.6,1,4.2v4c0,1.7-0.3,3.1-1,4.4s-1.7,2.1-3,2.8c-1.3,0.6-2.9,0.9-4.7,0.9h-6V501.9z M226.4,504.5l3.7-1.1l5.5,16.7
		h-4.5L226.4,504.5z"/>
	<path d="M239.2,485.7h4v34.5h-4V485.7z M241.6,485.7H254v3.7h-12.4V485.7z M241.6,501.2h11.3v3.7h-11.3V501.2z M241.6,516.5H254
		v3.7h-12.4V516.5z"/>
	<path d="M273.8,501.6v10.1c0,1.9-0.3,3.5-1,4.8c-0.6,1.3-1.6,2.3-2.8,3s-2.7,1-4.5,1c-1.8,0-3.3-0.3-4.6-1
		c-1.3-0.7-2.2-1.6-2.9-2.9c-0.7-1.2-1-2.8-1-4.5v-18c0-1.9,0.3-3.5,1-4.8c0.6-1.3,1.6-2.3,2.8-3c1.2-0.7,2.7-1,4.5-1
		c1.7,0,3.2,0.3,4.4,1c1.2,0.7,2.1,1.7,2.8,2.9c0.6,1.3,1,2.8,1,4.6v1.7h-4.2v-1.7c0-1-0.2-1.9-0.5-2.6c-0.3-0.7-0.7-1.2-1.3-1.6
		c-0.6-0.4-1.3-0.6-2.1-0.6c-0.9,0-1.7,0.2-2.3,0.6c-0.6,0.4-1.1,1-1.5,1.7s-0.5,1.6-0.5,2.7v18c0,0.9,0.2,1.8,0.5,2.4
		c0.3,0.7,0.9,1.2,1.5,1.5c0.7,0.3,1.5,0.5,2.4,0.5c0.9,0,1.7-0.2,2.3-0.6c0.6-0.4,1.1-0.9,1.5-1.7s0.5-1.6,0.5-2.7v-6.4h-4.4v-3.7
		H273.8z"/>
	<path d="M281.8,520.2h-4v-34.5h4V520.2z"/>
	<path d="M290.2,519.5c-1.3-0.7-2.3-1.7-2.9-3s-1-2.9-1-4.7V494c0-1.8,0.3-3.4,1-4.7c0.7-1.3,1.6-2.3,2.9-3c1.3-0.7,2.8-1,4.6-1
		s3.3,0.3,4.6,1s2.3,1.7,2.9,3c0.7,1.3,1,2.9,1,4.7v17.8c0,1.8-0.3,3.4-1,4.7s-1.6,2.3-2.9,3c-1.3,0.7-2.8,1-4.6,1
		S291.5,520.2,290.2,519.5z M297.3,516.1c0.7-0.4,1.2-0.9,1.6-1.6c0.4-0.7,0.5-1.5,0.5-2.5v-18.2c0-1-0.2-1.8-0.5-2.5
		c-0.4-0.7-0.9-1.2-1.6-1.6s-1.5-0.5-2.5-0.5s-1.8,0.2-2.5,0.5s-1.2,0.9-1.6,1.6c-0.4,0.7-0.5,1.5-0.5,2.5V512c0,1,0.2,1.8,0.5,2.5
		c0.4,0.7,0.9,1.2,1.6,1.6s1.5,0.5,2.5,0.5S296.6,516.5,297.3,516.1z"/>
	<path d="M307.2,485.7h3.6l10.2,27.4l-0.7,0.6v-28h3.8v34.4h-3.6l-10.1-27l0.7-0.6v27.6h-3.8V485.7z"/>
	<path d="M334.2,485.7h4.1l8,34.5H342l-5.7-29l-5.7,29h-4.3L334.2,485.7z M331,508.5h11v3.7h-11V508.5z"/>
	<path d="M348.9,485.7h4v34.5h-4V485.7z M351.3,516.5h11.9v3.7h-11.9V516.5z"/>
	<path d="M377.6,485.7h4v34.5h-4V485.7z M379.9,516.5h7.3c0.8,0,1.5-0.2,1.9-0.7c0.4-0.5,0.7-1.2,0.7-2.1v-21.4
		c0-0.9-0.2-1.6-0.7-2.1c-0.4-0.5-1.1-0.7-1.9-0.7h-7.3v-3.7h7.2c1.4,0,2.6,0.3,3.6,0.8c1,0.5,1.8,1.3,2.3,2.3
		c0.5,1,0.8,2.2,0.8,3.6v21.1c0,1.4-0.3,2.6-0.8,3.6c-0.5,1-1.3,1.8-2.3,2.3c-1,0.5-2.2,0.8-3.6,0.8h-7.2V516.5z"/>
	<path d="M397.6,485.7h4v34.5h-4V485.7z M399.9,485.7h12.4v3.7h-12.4V485.7z M399.9,501.2h11.3v3.7h-11.3V501.2z M399.9,516.5h12.4
		v3.7h-12.4V516.5z"/>
	<path d="M426.7,485.7h4v34.5h-4V485.7z M429.1,516.5H441v3.7h-11.9V516.5z"/>
	<path d="M448.3,520.2h-4v-34.5h4V520.2z"/>
	<path d="M471.3,485.7h3.7v34.5h-3.7v-26.9l0.3,1.5l-6.3,20.2h-2.9l-6.2-19.7l0.4-2v26.9h-3.8v-34.5h3.7l7.3,23.4L471.3,485.7z"/>
	<path d="M485.1,485.7h4.1l8,34.5h-4.3l-5.7-29l-5.7,29h-4.3L485.1,485.7z M481.9,508.5h11v3.7h-11V508.5z"/>
</g>
</svg>
