<?xml version="1.0" encoding="UTF-8"?>
<svg width="600" height="400" xmlns="http://www.w3.org/2000/svg" xmlns:xlink="http://www.w3.org/1999/xlink">
 <path d="m0 0h600v400h-600z" fill="#0f47af"/>
 <path d="m0 0h600v194h-600z" fill="#fff"/>
 <path d="m201.02 76.986v150.86c0 52.402 44.638 97.948 98.984 97.948s98.984-45.546 98.984-97.948v-150.86l-98.984 0.5177z" fill="#fff" stroke="#000" stroke-width="1.84"/>
 <g id="a">
  <path d="m282.172 81.9877-.62041 1.11246c-.11106.334399-.30903.813418-.56692 1.34779l-.80226 1.658-.56693-.812953c-.3133-.447302-.56693-1.15058-.56693-1.56172 0-.570669-.15749-.709867-.66319-.577625-1.21042.316532-1.84977 1.34994-1.63661 2.66349.13863.854288.0756 1.20874-.23532 1.20873-.50633 0-1.36999-.92462-1.67939-1.79705-.29185-.822965-.7485-.747129-1.17664.192541-.25959.569724-.23646 1.13749.0749 2.04308.23693.689165.347 1.33239.24603 1.43336-.40368.403683-1.47179.148388-2.01099-.481354-.31413-.366883-.70106-.587646-.85574-.49205-.52647.325383-.27815 2.35048.42787 3.50853.91757 1.50508.64476 2.25119-.71668 1.9789-.56189-.112379-1.01619-.07284-1.01619.09627 0 .537768 1.75454 2.41747 2.25701 2.41746.26566 0 .48135.301272.48135.663199 0 .450837-.38332.783032-1.21942 1.05898-1.19037.392857-1.20899.418183-.60972 1.08037.4714.520896.9536.64543 2.07517.556231.80396-.06394 1.46545-.07596 1.46545-.03209s-.30876.581636-.68459 1.19803c-.37582.61641-.68388 1.26052-.68459 1.42267-.001.27062 1.72401.0814 3.16624-.34229.37002-.1087.59901.0127.59901.3102 0 .5399-1.39687 1.27292-2.41746 1.27291-.97221 0-.82216.47462.51344 1.6473.99524.87383 1.10058 1.09882.6846 1.44406-.47974.39815-1.4122.34132-2.6314-.17115-.91898-.38628-.76174.73729.2995 2.12866.72995.957.81136 1.24022.42787 1.48684-.51053.32833-2.28957.0822-2.89881-.40647-.91835-.73656-1.12034.97669-.26742 2.2784.72887 1.1124.37433 1.42323-.9948.86644-2.03724-.82849-2.64209-.86133-2.64209-.14975 0 .35658.25205 1.00978.55623 1.44406.7934 1.13275.16765 1.62578-1.17665.93061-.57448-.29707-1.14504-.69823-1.26221-.88783-.11718-.1896-.4347-.34229-.70599-.34229-.67261 0-.62454 1.34511.0749 2.11795.77157.85258.0747.78707-1.04828-.0963-1.12908-.88813-1.91538-.63496-1.92541.62041l-.0107.95201-.6632-.85574c-.97568-1.24733-.85639-1.52097.85574-1.97889 1.80291-.48221 1.92629-.8038.51344-1.3371-1.25074-.4721-1.3196-.98467-.17114-1.27291 1.18243-.29677 1.11791-1.22343-.0856-1.23012-.51772-.003-1.16143-.14478-1.42266-.31021-.38844-.24599-.34267-.43779.24602-1.06967.86174-.92498.71767-1.32736-.40648-1.11247-.95279.18214-2.38294-.47133-2.08586-.95201.11051-.17882.55611-.3209.9948-.3209 1.00629 0 2.43639-1.12545 2.10726-1.65799-.1352-.21876-.53258-.39578-.87714-.39578s-.97137-.283-1.40127-.63111l-.78086-.63111 1.47615.0321c1.71011.0392 2.2329-.64385.88783-1.15525-.48596-.18476-.87714-.40861-.87714-.49205 0-.0834.53912-.48059 1.19804-.88783.65892-.40723 1.19803-.88565 1.19803-1.06967 0-.184018-.13893-.255606-.3102-.149754-.17127.105851-.56144.09564-.86644-.02139-.53257-.204364-.5232-.550754.0749-2.13935.14082-.374034.0362-.391176-.53484-.08557-1.59654.854445-1.88388.563905-1.73287-1.80775l.13906-2.19283-.86644.684591c-.83074.655041-.87272.656674-.96271.05348-.1669-1.11884-.86151-3.19934-1.06967-3.19833-.11106.000548-.5113.463185-.88783 1.02689-.8809 1.31882-1.20222 1.29637-1.20873-.08557-.0114-2.41835-.77571-2.3461-1.81845.171148-.63123 1.52386-1.32243 1.72375-1.03758.299509.22717-1.13587-.27868-1.6454-.89853-.898527-.48201.580791-1.18946.70704-.84504.149755.12461-.20163.11398-1.08732-.0214-1.9682-.20356-1.32466-.29376-1.47446-.52415-.866437-.6635 1.75106-1.40055.606805-1.35848-2.10726l.0214-1.02689-.85574 1.02689c-.46702.564788-.84896 1.1527-.85574 1.305-.0273.614972-.80907-.271095-1.40127-1.59382l-.63111-1.41197-.6525 1.46545-.6632 1.47615-1.03758-1.04828c-.57563-.575625-1.16011-1.04828-1.29431-1.04828s-.14821.693153-.0321 1.54033c.23076 1.68355-.0225 1.90647-.9734.855739-1.18476-1.30914-1.60233-.60444-.68459 1.15525.28123.539243.51344 1.00706.51344 1.03758s-.62977-.012-1.40127-.08557l-1.40128-.128361.58832.898526c.32418.494751 1.34374 1.49994 2.26771 2.23562 1.68955 1.34524 1.7256 2.00275.0963 1.59381l-.82364-.213934.60971 1.12316c.47296.85512.95884 1.18672 2.05377 1.43336 1.64628.37083 1.80746.746277.53484 1.23013-.72503.275657-.81173.436276-.48135.834346.40568.488815 2.39965 1.27891 2.963 1.17664.7019-.12744.86824.0665.47065.54553-.23436.28239-.7326.51345-1.10176.51344-1.1183 0-.51409.80066 1.24082 1.6473 1.19708.57752 1.55567.90458 1.28361 1.17664s-.62429.25763-1.28361-.0428c-.50009-.22786-.99592-.33047-1.09107-.23533-.28555.28556.63622 2.18621 1.15525 2.38537.26516.10175.48135.35053.48135.55623 0 .2493-.51362.29303-1.54033.13906-.84718-.12704-1.54033-.14104-1.54033-.0321 0 .10896.46626.72917 1.03759 1.37988.98267 1.1192.99962 1.19604.35299 1.40127-.37596.11933-1.00305.0469-1.39058-.16045-1.39581-.74701-1.82446.36155-.69529 1.79706.59502.75644.61634.91413.17115 1.28361-.79037.65594-.59867 1.02689.52414 1.02688 1.34355 0 1.31956.6389-.0321.90923-.82719.16543-1.01172.35178-.87713.86643.10633.40661.0132.60861-.23533.52414-.24661-.0838-.34886-.68605-.27811-1.56172.12866-1.59271-.0777-1.70643-1.3157-.73808-.47066.36816-1.12934.66971-1.45476.6739-.5054.006-.53234-.11205-.20324-.83435.29563-.64884.28485-.9722-.0535-1.37988-.39567-.47674-.5271-.47834-1.24083-.0107-.43746.28663-1.10777.52414-1.49754.52414-.60416 0-.65671-.0971-.3423-.6846.40841-.76311-.0609-2.10956-.49205-1.41197-.27351.44256-2.54614.51018-3.19832.0963-.33301-.21134-.2724-.41968.25672-.89852.38097-.34478.69529-.98523.69529-1.42267 0-.72643-.0764-.76645-.86644-.40648-.65595.29888-.95778.30444-1.26221 0-.22081-.2208-.69268-.40647-1.04828-.40647-.58197 0-.56231-.10035.23532-1.04828 1.17654-1.39823 1.12401-1.76838-.22463-1.51894-1.18565.21929-2.95016-.70815-2.05377-1.08037.7321-.304 1.49275-1.20569 1.35848-1.61521-.07-.21348-.58358-.43902-1.13385-.50275-1.07279-.12423-1.85054-.60838-1.85054-1.15524 0-.19271.37863-.24547.88783-.11767 1.06159.26644 3.90431-.10762 3.90431-.51344 0-.156614-.41818-.481782-.93061-.727379-1.19265-.57162-.92615-1.12676.48135-1.00549.73607.06342 1.3177-.141063 1.79705-.620411.95897-.958962.89064-1.26593-.3209-1.50824-1.16449-.232898-1.37909-1.09699-.35299-1.42267.89744-.284834 2.06447-1.80167 2.06447-2.68488 0-.549802-.0977-.608287-.41717-.288812-.4658.465797-1.84749.548677-2.10726.128361-.0945-.152941.11679-.730565.48135-1.28361.36907-.559873.67264-1.59835.6739-2.34259.002-1.24393-.0416-1.29922-.59902-.812952-.32946.287381-.90708.683246-1.28361.877133-.63123.325051-.6841.240575-.68459-1.06968-.00062-1.63429-1.61218-4.42854-1.80775-3.13415-.24451 1.61831-.45562 2.22493-.77017 2.22492-.18467 0-.3316-.249003-.3316-.556231 0-.689123-2.33567-2.94289-2.77045-2.67419-.18972.117254-.17427.448774.0321.834346.41288.771484.41512 1.06024.0428 1.6473-.21288.335645-.58374.143638-1.49755-.770166-.6695-.669506-1.54039-1.21942-1.93611-1.21943h-.71668l.68459 1.28361c1.34512 2.50969.72328 2.86165-.9734.556231-.62874-.85433-1.20938-1.4862-1.28361-1.41197-.0742.07423-.15456 1.15937-.18185 2.41746-.0273 1.2581-.15763 2.28911-.28881 2.2891-.39741 0-1.72217-1.55713-1.72217-2.02168 0-.238885-.19254-.366198-.42787-.288812-.68129.224036-.72682 2.82882-.0642 3.84013.31827.485742.50986.966294.41717 1.05898-.35875.358743-1.34291-.321943-1.82914-1.26222-.28027-.541974-.66162-.984097-.84505-.984101-.52707 0-.37954 3.49191.19255 4.5889.2846.545732.43391 1.06363.34229 1.15525-.29795.297951-1.97645-1.00488-2.15004-1.66869-.24718-.945212-.77017-.434421-.77017.748772 0 1.32892.84775 3.34725 1.51894 3.6048.29089.111626.53483.334624.53483.502746 0 .419991-1.96268.39222-2.22492-.03209-.11635-.188262-.36639-.342292-.55623-.342296-.62969 0 .0934 1.51517 1.34779 2.82394 1.35811 1.41696.83325 1.82204-.74877.57762-1.04612-.82287-1.08061-.69087-.39578 1.61521.34817 1.17241.78663 1.85395 1.37988 2.17144 1.07419.57489.43899 1.11222-.77017.6525-1.14429-.43506-1.19393-.40835-.93061.45996.29706.97959 1.50449 2.3105 2.09656 2.3105.24958 0 .45996.17203.45996.38508 0 .25434-.47021.32382-1.36918.20324-.75306-.10101-1.36919-.0594-1.36919.0856 0 .58099 1.40782 2.00185 2.38538 2.40676 1.55337.64343 1.28479 1.1428-.50275.94132-1.32067-.14886-1.54033-.0803-1.54033.44926 0 .82408 1.50123 1.9654 2.9416 2.23562.63982.12003 1.16595.33709 1.16595.48135 0 .62241-1.08619 1.10275-2.05378.90923-1.30353-.26071-1.39196.46926-.19254 1.66869.59409.59409 1.21867.84504 2.12865.84504 1.21124 0 1.25366.0299.70599.57762-.3269.3269-1.11059.58833-1.78636.58833-1.53651 0-1.54311.59105-.0321 1.74356.86441.65932 1.39353.82891 2.05377.6632.54384-.13649.88783-.0856.88783.13906 0 .57351-1.35605 1.16042-2.2784.9841-.62616-.1197-.81655-.0224-.73808.38508.14417.74858 2.24865 2.10726 3.26251 2.10726 1.33141 0 .71327.84277-.70599.96271-.69143.0584-1.25151.21811-1.25151.35299 0 .13489.60217.85652 1.33709 1.60451 1.19486 1.21614 1.46788 1.87314.78086 1.87193-.13009-.00023-.68763-.3907-1.24082-.86643-1.50676-1.29581-3.65384-1.63815-2.68488-.42787.19204.23988.45846.78513.58832 1.20873.21425.69888.12399.77016-.9841.77016-.65482 0-1.18642-.0401-1.21943-.0856h-.0107l-.79156.0856c.0141.1074.0295.21133.0428.31021l1.11246.75947c.0478-.0532.18141.0458.43856.25672.31504.25838.57763.67169.57763.91992s-.15404.54684-.3423.6632c-.0753.0465-.14598.0628-.20324.0642l.0107.0749-.71668.86643 1.21943.93062.0749.22463c.0901-.38689.39677-.31991.91992.20324.46437.46437.48438.67075.12836 1.24082-.35823.57362-.33586.7245.11766.89853.29867.11461.92307.0312 1.39058-.18185 1.14403-.52125 1.16594-.5159 1.16594.49205 0 1.2 1.02967.99098 1.6687-.34229l.48135-1.0055.58832.72738c.66627.8228 1.3431.46832 1.41197-.74877.0346-.61234.0517-.63024.19254-.0856.0949.36698.36822.54766.6525.43856.77325-.29672.55153.42506-.37438 1.23013-.66646.57947-.75742.83743-.44927 1.20873.31101.37474.23305.50995-.35299.6632-.82624.21607-.90597.53495-.38508 1.50824.36588.68365-.1171.9795-.52414.3209-.27564-.446-2.22492-.446-2.22492 0 0 .18826.15403.34229.34229.3423.64567 0 .34238.70665-.42787.99479-.49232.18418-.86128.31986-1.16594.41718v.0107l-1.43337.6418 1.50824.50275.0214.0963c.25289.17985.47065.4227.47065.60971 0 .30301-.0937.5054-.22463.59902l.0214.12836-.57763.6525.72738.21394c.0249-.005.0476-.0189.0749-.0214.0716-.006.15296-.005.23533.0107.3967.0751.63417.49547.70598 1.24082.0945.98085.20446 1.09796.85574.89852.41102-.12587.93305-.37885 1.15525-.55623.44539-.35554 1.13385.62849 1.13385 1.61521 0 .82145.64562.46745 1.30501-.70598.31459-.55984.62249-1.08318.67389-1.16595.0514-.0828.32098.18679.60972.59902.7646 1.09161 1.14346.92497 1.39057-.62041.24297-1.51943.44996-1.61851 1.67939-.81295 1.09767.71921 1.06372 1.03307-.19254 1.79705-.90247.54883-.96866.68117-.51344 1.05898.83999.69713.60811 1.12888-.52414.9627-.97076-.14247-1.04069-.0949-.84505.68459.17856.71143.11363.80453-.40647.59902-1.11828-.44187-2.83464-.62387-2.83464-.29951 0 .17524.1837.50461.40648.72738.22278.22278.3383.45255.25672.50275-.0816.0502-.55314.44194-1.04828.87713l-.90923.79156-.0321-.0535-.52414.49205 1.29431-.21394.0535.0856c.40144.0658.84504.51061.84504 1.00549 0 .15469-.007.29065-.0214.40648l.12836.22463-.21394 1.2943 1.02689.0642c.37424-.33474 1.47615.72092 1.47615 1.47616 0 .91565.49148 1.03905 1.13386.28881.68594-.80113 1.03905-.8311 1.60451-.14976.63389.76379.94698.6296 1.19803-.51344.24238-1.10353.49167-1.25191 1.10177-.64181.28764.28765.44709.0681.62041-.85573.12821-.68345.31902-1.24083.41717-1.24083.30219 0 1.45126 1.45255 1.46546 1.85054.007.20652.23681-.12623.50274-.73808.69795-1.60579 1.34276-1.45104 1.06968.25673-.17297 1.08171-.11334 1.36918.28881 1.36918.39989 0 .43443.18071.18185.84504-.25233.66368-.19305.92662.26741 1.20873.44575.27309.27209.30391-.70598.13906-1.93248-.32571-3.1647.92603-1.52964 1.55103.76232.2914.75344.29668-.16045.53484-.50781.13233-1.16074.59956-1.45475 1.04828-.51079.77956-.49259.82804.34229 1.03758.48056.12062.8186.31984.74877.43857-.0698.11873-.34767.71454-.60971 1.32639-.16474.38465-.33499.70925-.47066.90923l.10697-.0749-.21393 1.14455.90922-.34229c.0423-.0449.0878-.0877.14975-.13906.10951-.0909.19314-.15304.26742-.17115.0248-.006.0531-.003.0749 0 .14495.0193.22862.23631.3209.71668.085.44253.12307.72637.10697.87714-.00031.003.00034.008 0 .0107l.10697.20323.71668 1.35849.48135-.58832c.0245-.0709.0674-.12888.12836-.16045h.0107l.0214-.0321.0107.0214c.025-.008.0456-.0197.0749-.0214.16704-.01.39952.094.67389.3423.35783.32384.6525.79507.6525 1.04828 0 .15802-.0333.26986-.0856.3423l.0428.0535.42787 1.15525.17114-.55623c-.004-.0801.0265-.16306.0749-.24603l.0428-.12836.0214.0214c.0513-.0673.11805-.14232.19254-.22464.75743-.83695 1.0408-.81084 1.28361.11767.19747.75511.20887.75334 1.24082-.23533.45141-.43248.71738-.65974.86644-.69529.0213-.005.0366-.002.0535 0 .0811.0121.11767.11335.11767.28881 0 .32397-.56728.92268-1.25152 1.3264-1.13257.66823-1.17879.74985-.54553.9841.38259.14153.79276.42127.90922.60971.22257.36012.17112.51008-.0535.49206l.0428.0428.42787.93062.94131.21393-.14975 1.0055 1.43336-.28881-.0642.94131.38509-.24603c.0102-.1166.12552-.25882.3102-.48135.33924-.40876.5449-.42891.91992-.11766.36549.30332.5877.30012.88783 0 .2456-.2456.45798-.37222.59902-.39578.23506-.0393.26446.20886-.11766.6311-.31158.34429-.56693.80638-.56693 1.02689 0 .32529-.13628.427-.48136.3209l.50275.40648v.71668l.93062.14976.43856.71668 1.06968.36369.72738.6418.29951-.43856c-.13985-.18428-.0399-.34813.0856-.6739.22419-.58195.25878-.57865.57762-.0107.48867.87045.8995.74174 1.6687-.51344l.68459-1.11246-.0856 1.71148c-.0701 1.3683.0131 1.69159.42787 1.6259.28535-.0452.71805.22438.95201.59902.3004.48102.35144.67834-.0321.57762l.44927.53484 1.2943.86644 1.6473.27811.42787.43857-.0535-.72738c-.17492-.0479-.23747-.21041-.23533-.47066.009-1.11523.54765-1.68454 1.13385-1.19803.42691.3543.5458.25501.73808-.62041.15839-.72113.43342-1.04829.88783-1.04829.73813 0 .84683-.36189.27811-.93061-.20944-.20944-.30456-.58254-.21393-.83435.0264-.0734.0569-.12264.0963-.13906.0147-.006.0263-.0125.0428-.0107.11562.0123.27751.22153.45996.60972.49999 1.06387 1.36801 1.51687 1.74357.90922.18114-.29309.48024-.31517.99479-.0856.18513.0826.29404.15935.31021.25672l.86644.11766.3209-.9841c-.0426-.0636-.009-.20251.0856-.44926.10837-.28239.41164-.51345.6739-.51344.22417 0 .35569.0719.41717.17115l.6525.19254-.12836-.87714c-.11891-.16185-.27612-.41779-.41717-.72738-.40604-.89115-.40034-.8888.80225-.66319 1.06365.19954 1.20873.13458 1.20873-.48136 0-.51857.22188-.69529.85574-.69528.31772 0 .53773.0259.6632.0856l.97341.0535.12836-1.09107c-.003-.004-.008-.006-.0107-.0107-.0971-.15713.2798-.54956.83435-.87714 1.23641-.73036 1.25878-1.01457.12836-1.52963-.63769-.29055-.82192-.5819-.6739-1.04828.15386-.48476-.009-.69161-.6632-.85574-1.00823-.25305-1.16996-.88784-.22463-.88783.35487 0 .88472.36742 1.17664.81295.74911 1.14328 1.94665 1.41169 1.94681.43857.00011-.6541.20469-.74564 1.79705-.80226l1.3157-.0428.0642-.0642.79156-.0749-.21393-.62041c-.0431-.0151-.0776-.0475-.0963-.0963-.16328-.4255.0804-.69925.94131-1.05897 1.38497-.57868 2.21964-1.84944 1.50824-2.28911-.37917-.23434-.35577-.45296.0963-1.24082.83341-1.45254 1.08171-3.17693.45996-3.17693-.35401 0-.50274-.37418-.50274-1.26222 0-.98505-.0977-1.17521-.41718-.85574-.65479.6548-1.29931.47288-1.305-.36369-.003-.42359-.14296-1.00213-.3209-1.28361-.27739-.43877-.39585-.41391-.82365.17115-.639.87388-1.04745.46379-1.0055-1.01619.0245-.86455-.0827-1.10995-.43856-.9734-.33813.12975-.48136-.09-.48136-.74877v-.94132l1.11247.84505c1.86807 1.40222 2.06718 1.46992 1.80775.6525-.33739-1.06302.3383-.89286 1.18733.29951.90251 1.26744 1.36919 1.30524 1.36919.11766v-.89853l.83434.89853c1.06234 1.14628 2.39882 1.25827 2.05378.17115-.19847-.62531-.13574-.69117.40647-.44927.76142.3397 2.21468.3562 3.05927.0321.46357-.17789.50775-.3266.20324-.63111-.57868-.57868-.49175-.95201.22463-.95201.68552 0 2.11796-1.34404 2.11796-1.98959 0-.2232-.23691-.40648-.52414-.40648-.46812 0-.46812-.10026 0-1.00549.58044-1.12246.70215-2.75977.20324-2.75976-.17716 0-.41849.15402-.53484.34229-.37568.60787-.77823.36625-1.14455-.68459-.40536-1.16282-1.08037-1.37642-1.08037-.3423 0 .84407-.52765.89751-.84505.0856-.20036-.51255-.30911-.45695-.74877.37438-.28261.53437-.594.89284-.68459.80226-.0906-.0906.15782-.75276.54553-1.47615.92918-1.73364.9381-2.64424.0214-2.35328-.86982.27606-.8593.0435.0428-1.17665.79073-1.06951.63326-1.73287-.40647-1.73287-.73357 0-.7628-.0452-.45996-.83435.0405-.10567.10471-.16587.19254-.17114.26348-.0158.78638.46001 1.83984 1.60451 1.53749 1.67034 1.84855 1.87055 2.05377 1.34779.21144-.53861.32268-.48387.87714.42787.77058 1.26711 1.59157 1.35218 1.88262.19254.16199-.6454.43411-.85574 1.12316-.85574.50249 0 1.26098-.24177 1.67939-.53484.11849-.083.23151-.14341.3316-.19254l.0214-.0749.79156-.50274-.26742-.17115c-.19018.12238-.42168.009-.80225-.24603-.44211-.29621-.41666-.42999.20324-.95201 1.46969-1.23763 1.99566-3.14484.86643-3.14484-.46633 0-.69223-.32228-.83434-1.19803-.10724-.66084-.43346-1.44966-.72738-1.74357-.58894-.58895-.7202-1.50825-.21394-1.50824.17715 0 .41849.15403.53484.34229s.82386.34229 1.57242.3423c1.27359 0 1.33093-.0486.97341-.71668-.43732-.81713-.42748-.82283.6525-1.15525.16839-.0518.3047-.092.40647-.10697.0214-.003.0363-.009.0535-.0107l.59901-.22463-1.00549-.85574 1.43336-.93062-.93061-1.36918 1.6473-1.658-1.0055-.13905v-.0428c-.4008.10307-.80851-.0699-.81295-.57762-.003-.32946-.14395-.8326-.3209-1.11247-.27332-.43228-.43167-.39366-1.03759.25673-.87683.94117-1.16686.9881-.69529.10696.5343-.99834.44807-2.1828-.13905-1.9575-.26863.10308-.65117-.0209-.85574-.26742-.28322-.34126-.0513-.77239.99479-1.81845 1.65623-1.65622 1.782-2.28571.38509-1.97889-.54687.12011-1.08941.0795-1.19804-.0963-.10863-.17578.41156-.41592 1.15525-.53484.82654-.13217 1.49564-.47383 1.71148-.87713.49997-.93421.45149-1.04828-.43857-1.04829-.43467 0-1.07658-.20689-1.42266-.45996-.57456-.42013-.49719-.49658.87713-.84504 2.23761-.56734 3.14464-2.46025 1.17664-2.46025-1.87064 0-2.51274-.79997-.95201-1.18734 1.87399-.46512 3.41354-2.66292 1.62591-2.32119-.47174.0902-1.1167-.0456-1.42267-.29951-.49083-.40735-.37981-.50198.94131-.82365 1.01811-.24789 1.63648-.62926 1.91472-1.18734.54068-1.08449.30497-1.36918-1.11246-1.36918-1.2876 0-1.62198-.57285-.43857-.74877 1.00169-.14891 2.07514-1.68141 1.93611-2.75976-.11211-.8696-.12429-.88126-1.46545-.41718-.74584.25809-1.43899.37885-1.54033.26742-.10134-.11142-.0161-.25645.19254-.3316.93004-.33499 1.5641-1.07699 2.00029-2.34258.25868-.75056.43557-1.40311.39578-1.44406-.0398-.041-.64084.0965-1.33709.3102-1.58653.48692-1.94613.16898-.97341-.86643.75655-.805311 1.42267-2.5751 1.42267-3.78665 0-.633312-.02-.633579-.68459-.03209-.82781.749155-1.22813.495668-.71668-.45996.50211-.938219.47836-3.47644-.0321-3.47644-.2205 0-.67321.244821-1.00549.545534-.57134.517055-.58136.485687-.23533-.641804.20125-.655733.26031-1.7676.12836-2.47095l-.24602-1.28361-.9948.962707c-1.19109 1.14114-1.5719.935135-1.04828-.566928.45474-1.30446.48117-2.36444.0749-3.00578-.23949-.378038-.4309-.328566-1.0162.256722-.98281.982813-1.41197.912362-1.41197-.235328 0-.528806-.20612-1.24668-.45996-1.59382-.49942-.683007-1.25151-.456287-1.25151.374386 0 .809071-.65157.199637-1.20874-1.13386-.007-.01651-.0146-.02636-.0214-.04279-.007.0066-.0642.06418-.0642.06418l-.71672-2.08588zm.70599 50.9379c.19174-.0363.74527.58635 1.14455 1.35848.28589.55286.35941 1.0055.17115 1.0055-.31083 0-1.37988-1.7255-1.37988-2.22492 0-.085.0199-.13069.0642-.13906zm1.89332 3.24111c.26407.01.43857.18722.43857.51345 0 .17715-.42359.31618-.94131.3102-.8919-.0103-.90417-.037-.28882-.50275.24527-.18565.47629-.28493.6739-.3102.0412-.005.0799-.0121.11766-.0107zm1.04828 1.05898c.1588.004.34364.0713.60972.19254.89366.40718 1.02226.82823.48135 1.6366-.30036.44888-.40088.43812-.80225-.0856-.59059-.77058-.77509-.75461-.9948.0856-.0985.37653-.34556.68459-.54554.68459-.40473 0-.17586-.80202.55623-1.9468.25677-.40152.43064-.57364.69529-.56693zm-49.5366 1.14455c.17367 0 .32091.0867.32091.19254 0 .55651-1.80622 3.89465-2.39608 4.42845-1.09467.99068-.89339 1.8798.42787 1.89333l1.11247.0107-.85574.71668-.85574.71668.72738.49205c.4784.31924.6807.72015.56692 1.15525-.17174.65676-.78086.94901-.78086.37439 0-.162-.40069-.88668-.88783-1.60452-1.15687-1.70474-.94678-3.69402.54553-5.12374.55314-.52993 1.18337-1.47939 1.39058-2.10725.20721-.62787.51094-1.14456.68459-1.14456zm20.527 1.73287c.15342-.0329.20934.20253.0749.71668-.12784.48888.0265.89756.45996 1.21943.63555.47199.62859.50238-.12836 1.12316-.74524.61118-.7433.64308-.10697.84504.53678.17037.60749.3837.39578 1.13386-.1439.50992-.20292 1.08465-.13906 1.27291.0639.18826-.34572.60991-.90922.93062-1.28038.72871-1.29865 1.14245-.0535 1.78635 1.03034.53282 1.79616 1.95011 1.66869 3.10206-.0578.52223.12807.68459.78086.68459.66943 0 .88108.19428.96271.89853.0954.82341.16753.86723.93062.51344.45886-.21274.84357-.50061.84504-.6418.001-.1412.17487-.25673.38508-.25672.38554 0 .28449.96321-.22463 2.18213-.23823.57038-.14472.63418.82365.49205 1.51503-.22236 1.60892.16488.36369 1.58312l-1.06968 1.20873.90923.35299c.5006.19033 1.05411.3423 1.23012.3423.46224 0 .3946.45731-.18184 1.21943-.77422 1.02361-.62797 1.26444.67389 1.11246.68047-.0794 1.2133.01 1.24083.21394.0267.19752.0652.74876.0856 1.21942.0326.75119.17734.84807 1.16594.77017 1.02572-.0808 1.10012-.0282.77017.58832-.30383.5677-.51252.6207-1.27291.3316-.67421-.25633-.97922-.23176-1.18734.0963-.21705.3421-.28475.34251-.28881.0107-.009-.74289-.48469-.4658-1.3264.77017-.44786.65763-.94202 1.19803-1.09107 1.19803-.36501 0-.77515-1.94461-.50274-2.38537.37433-.60569-.71638-.38384-1.62591.3316-1.18515.93224-1.31159.86102-.69529-.37439.38748-.77673.41994-1.15249.13906-1.43336-.28088-.28088-.48938-.27009-.79156.0321-.57422.57422-2.32119.52503-2.32119-.0642 0-.25934.23105-.66416.51344-.89853.2824-.23436.51344-.79728.51344-1.25152 0-.67792-.1073-.7711-.59901-.51344-.36594.19176-.93199.18728-1.45476-.0107-.82866-.31382-.83408-.33724-.17115-.70599 1.6708-.92935 2.06088-2.39748.55623-2.09656-1.26533.25307-1.74282-.43118-.77016-1.11246.97813-.68511.95463-1.69686-.0428-1.67939-1.3435.0236-1.16807-.59831.31021-1.09106 1.727-.57567 2.15431-1.36284.9841-1.80775-.71525-.27194-.80449-.47369-.64181-1.47616.17586-1.08366.11335-1.17109-.87713-1.36918-1.4143-.28286-1.39392-1.26203.0428-2.47095l1.10176-.91992-.75947-.62041c-.94799-.76763-.96394-1.01619-.0428-1.01619.63634 0 .70548-.14233.51345-1.16594-.12339-.65768-.0479-1.54955.18184-2.05378.24509-.53791.49909-.8335.6525-.86643zm-12.4831.0749c.0164-.002.0333.009.0535.0214.48554.30009 1.24793 3.1754.9627 3.6369-.13064.21138-.0477.61978.19255.90922.32887.39627.34174.68296.0535 1.14455-.31822.50955-.24174.66926.44926.9841.67959.30964.83435.62895.83435 1.75427 0 1.24909-.0811 1.37987-.87713 1.37988-.71328 0-.85724.14395-.77017.77016.0805.57867-.0845.79495-.6632.87714-1.10627.15711-.97598 1.26006.25672 2.17144 1.24989.92408 1.32872 1.46716.17115 1.17664-.59953-.15048-.85574-.0811-.85574.24602 0 .55312 1.07588 1.60451 1.6473 1.60451.2205 0 .40648.14209.40648.31021 0 .46492-.86542.68826-1.39058.36369-.25633-.15842-.58789-.21049-.73807-.11767-.50299.31086-.27251 1.09958.62041 2.16075.79232.94161.81545 1.07082.28881 1.27291-.32374.12423-.8704.0468-1.21943-.17115-.34903-.21797-.71627-.39578-.81295-.39578-.39494 0-.1366 1.61304.37438 2.34259.70461 1.00597.43082 1.24751-.87713.79156l-1.03758-.36369v1.52963c0 1.12516-.13401 1.51894-.51345 1.51894-.28239 0-.51344-.13077-.51344-.28881 0-.25121-1.58886-1.13581-2.05378-1.14455-.0941-.002-.12543.475-.0642 1.05897.17123 1.63239-.69374 1.31531-1.45475-.53483-.58553-1.42351-.68607-1.51683-.93062-.85574-.44399 1.20021-.9734.84829-.9734-.64181 0-1.25951.0594-1.35.66319-1.02688.97794.52337 1.04829.46458 1.04829-.84505 0-1.04198.10764-1.19804.83434-1.19803 1.11164 0 1.37135-.51398.72738-1.43337-.5012-.71556-.47491-.77797.52414-1.19803l1.04828-.43857-1.04828-1.05898c-1.3215-1.3215-1.33691-1.6126-.0428-1.42266 1.38545.20334 2.31039-.14986 1.77566-.68459-.84422-.84423-.45856-1.33763.85574-1.09107 1.0473.19647 1.21832.15429 1.04828-.28881-.20368-.53078 2.1353-3.33739 2.78116-3.33739.17275 0 .5179-.25227.77016-.55623.39532-.47632.32504-.66934-.51344-1.39058-.53506-.46023-1.18512-.75186-1.44406-.6525-.31764.12189-.47066-.0857-.47066-.6311 0-.44461.25305-.90644.56693-1.02689.43496-.16691.47566-.3052.17115-.60972-.55532-.55532-.49657-.95201.13905-.95201.3498 0 .47841-.20846.36369-.59901-.43093-1.46699-.60907-3.04301-.36369-3.06998zm33.684 1.48685c.19356.004.43585.22396.63111.6525.21176.46475.27622.83851.13906.82365-.65021-.0705-1.10177-.42302-1.10177-.84504 0-.42471.13804-.63492.3316-.63111zm-8.01186.95204c.037-.003.0641-.00011.0749.0107.33017.33017.49354 3.2732.18184 3.2732-.17886 0-.95464.54105-1.72217 1.19804-1.17652 1.00705-1.43303 1.10586-1.61521.6311-.13111-.34166.0782-.88309.53483-1.36918.41397-.44065.68891-.84177.60972-.89853-.0792-.0568-.5923-.29675-1.14455-.53483l-1.0055-.43857 2.00029-1.00549c.96227-.48538 1.82715-.84344 2.08587-.86644zm-43.7818 2.37468c.22768.0143.10587.60905-.36369 1.73287-.71262 1.70553-1.07822 1.6981-.94132-.0214.0669-.84072.2062-1.4411.31021-1.33709.104.104.39985.0171.6525-.19254.15348-.12737.2664-.18663.3423-.18184zm34.4863.75946c.53508-.0145.8647.31089.87713.91992.003.1412-.52842.25672-1.18734.25673-1.41934 0-1.57517-.55921-.28881-1.04829.2192-.0833.42066-.12353.59902-.12836zm-19.8211 1.17665c.2824 0 .51345.14208.51345.3102s-.23105.39438-.51345.50275c-.31276.12001-.51344-.004-.51344-.31021 0-.27648.23105-.50275.51344-.50274zm-9.1778 4.10755c.20255-.0103.39491.0633.55623.22463.12258.12258-.0479.42593-.37439.67389-.94739.71941-1.53905.60315-1.10176-.21393.22676-.42371.58233-.66735.91992-.68459zm39.5138.0642c.53226-.008.69542.23709.55623.78086-.097.37888-.82534.49768-1.71148.27811-.94421-.23395-.70832-.69906.49205-.9627.26275-.0577.48578-.0937.6632-.0963zm-38.9362 6.2148c.12274-.0237.21394.0406.21394.18185 0 .18826-.15404.43987-.3423.55623-.18826.11635-.3423.0599-.3423-.12836s.15404-.43988.3423-.55623c.0471-.0291.0874-.0456.12836-.0535z" fill="#da121a"/>
  <path d="m249.856 183.982c-1.45727-2.25796-1.58532-3.52174-.75435-7.44481.57984-2.73747.66444-5.30571.17476-5.30571-.36332 0-1.19609 2.71292-1.5654 5.09958-.29822 1.92731-.95777 3.49918-1.75329 4.17856-.76013.64915-2.80748 1.49184-3.04571 1.25361-.0944-.0944-.20495-.94515-.24575-1.89063-.0677-1.56889.0513-1.86787 1.36198-3.42239 1.54332-1.83042 2.6648-3.79305 3.03097-5.3043.35356-1.45918-.27013-1.11266-1.2159.67555-1.14252 2.1602-4.48909 5.5594-5.5261 5.61299-2.86229.14793-2.85678.14913-2.96966-.64615-.17607-1.24037 1.16691-3.06135 2.6062-3.53382 2.51021-.82402 5.20555-3.04964 5.20555-4.29838 0-.34318-.34947-.25529-1.28361.32281-1.87968 1.16326-3.76522 1.99138-5.71869 2.51162-3.5642.94919-5.7255.36577-7.26542-1.96119-1.40737-2.12669-.73315-4.40697 1.67055-5.64997 1.2381-.64025 1.7221-.60278 1.5581.12062-.42133 1.85846 2.19839 3.7508 4.64985 3.3588 1.86393-.29806 4.76439-1.99666 6.02888-3.53071 1.44609-1.75435 2.71263-5.14192 2.97404-7.95453.19226-2.06868.14714-2.39915-.32758-2.39915-1.31304 0-1.65515-2.44396-.51239-3.66037.71754-.76378.72916-.88554.29619-3.10273-.4601-2.35607-2.61899-8.91296-3.11202-9.45168-.36182-.39533-.77819 2.47824-.61184 4.22255.13848 1.45209-.0264 1.60501-1.10693 1.02672-.83536-.44707-.88382.18793-.14864 1.94746.28239.67587.51344 1.38332.51344 1.57213 0 .33086-1.27192.19977-2.43666-.25113-.36144-.13992-.61623.00034-.73295.4039-.0984.34011-.4323 1.20441-.74198 1.92067-.55492 1.28348-.55299 1.2969.13394.92926.38334-.20515.69699-.4969.69699-.64832 0-.478 1.6921-1.06979 3.05885-1.06979.80562 0 1.62823.26082 2.12324.6732.78159.65113.78479.67358.0976.6846-.39078.006-1.07227.39647-1.51443.86712-.44216.47066-1.16699.85574-1.61074.85574s-.89323.22519-.99884.50042-.51888.60415-.91838.73094c-.39949.1268-1.38647.89067-2.1933 1.69749-1.42369 1.42369-1.46695 1.53189-1.46695 3.66891 0 1.84188-.13261 2.34505-.81092 3.07697-.44601.48124-.91104 1.2739-1.03341 1.76146-.35436 1.41188-.78278 1.04708-1.54649-1.31686-.70093-2.16962-.67299-2.9442.14277-3.958.52155-.64817.87624-2.05378.51826-2.05378-.1483 0-.71151.44174-1.25157.98164-.6329.63271-1.46861 1.04656-2.35111 1.16431-.75305.10046-1.6635.30084-2.02322.44528-.5624.22581-.62452.14661-.44335-.56529.19452-.76438.13965-.74497-.71515.25299-2.36393 2.75984-5.77765 2.89999-6.43916.26435-.51788-2.06341 1.0834-3.70661 2.58627-2.65396.68074.47681.79072.46701 1.24608-.11105 2.0791-2.6393 3.07591-6.32251 3.42881-12.6694.29956-5.38771-.0181-6.27845-1.01789-2.85443-1.25685 4.30427-4.45565 8.91833-6.54666 9.44314-2.50402.62846-4.75495-.94537-4.08078-2.85326.29321-.82979.51387-.94514 1.85245-.96835 1.43255-.0249 1.55271-.10327 2.09771-1.36918.98859-2.29628 2.0121-8.11496 1.99388-11.3352l-.017-3.01484-.92426 1.88582c-1.76504 3.60134-3.69687 5.60019-5.82343 6.02551-.91941.18388-1.25284.0392-2.28191-.98983-1.4035-1.40349-1.58213-2.79368-.50724-3.94744.81712-.87708 1.44769-.94992 2.04044-.23569 1.20786 1.45538 2.39607-.56536 2.39607-4.07487 0-2.2751-.58155-5.00913-2.33686-10.9862-1.79836-6.12365-1.93306-6.98087-1.9363-12.3226-.003-4.35762.11166-5.4973.75554-7.53282 1.23241-3.89611 4.07657-7.77797 6.67022-9.10388 1.55881-.796885 4.44949-.874418 5.0625-.135785.23437.282394.63047.513444.88023.513444.55338 0 1.9309 1.81884 2.5319 3.34306 1.07873 2.73581-.51293 6.31242-3.47772 7.81479-.90524.458721-1.64589 1.05548-1.64589 1.32615 0 .27065.36552 1.49909.81226 2.72986 1.31194 3.61434 5.00297 7.82326 9.28547 10.5883 3.14396 2.02994 4.89906 2.82852 6.86228 3.12237 1.36797.20475 1.40596.18109 2.99473-1.86479l1.60918-2.07216h-1.36882c-.75286 0-1.36883-.0792-1.36883-.17599 0-.0968.68318-1.01474 1.51817-2.03989 3.03081-3.72102 3.83237-7.36122 2.18888-9.94065-.48157-.75581-1.12757-1.58335-1.43557-1.83896-.308-.25562-.56-.59694-.56-.758497 0-.161553-.53912-1.13651-1.19804-2.16657s-1.19803-1.95724-1.19803-2.06042c0-.744972 1.90277.534307 4.74277 3.18867 1.04505.976755 1.76085 1.34404 1.76085.903531 0-.09353-.73166-.921802-1.62591-1.84061-.89424-.9188-2.07648-2.2421-2.62718-2.94066-1.03287-1.31018-1.36175-1.37427-3.53414-.688644-.65124.205538-.76899.117982-.76255-.567017.0159-1.69272 1.81656-3.03501 4.07142-3.03501 1.47295 0 2.50622.832631 5.56724 4.48622 1.01194 1.20784 1.34554 1.41971 1.69436 1.07608.23889-.235329 1.07639-.42787 1.86113-.42787 1.3741 0 1.52325.113423 4.03909 3.07146 1.43676 1.6893 2.6123 3.21038 2.6123 3.38017s-.48177.40506-1.07061.52283c-1.03778.20756-1.06377.25683-.84784 1.60721.12252.76621.46798 1.76734.76768 2.22474.53221.81225.36901 1.03249-.64628.87218-.1412-.0223-.25587.22902-.25481.55848.004 1.32632.75487 3.1558 2.0583 5.0165.75582 1.07898 1.27466 2.12289 1.15296 2.3198-.12644.20458-.80055.28032-1.5729.17672l-1.35164-.18129.62585.73054c.34422.4018.79427.91476 1.00011 1.13991.20585.22515.57045.883.81023 1.46188.49625 1.19804.74736 1.19443 4.29224-.0618 6.96158-2.46694 11.4483-6.65217 13.5944-12.6809 1.39768-3.92631 1.32899-4.3876-.76414-5.13101-2.54831-.905082-3.58827-2.61815-3.58827-5.91078 0-2.25678.0933-2.58944 1.06317-3.79039 1.39437-1.72658 2.7596-2.49279 4.89162-2.74529 3.32562-.393873 6.2363 1.53648 7.91139 5.24682 3.11765 6.90562 3.85899 14.7037 2.02879 21.3407-1.62728 5.90118-2.08848 8.93471-1.95314 12.8469.14659 4.23741.3165 4.78907 1.3111 4.25677.88707-.47474 1.95896.11035 2.23784 1.22153.26421 1.05266-.53753 2.35529-1.87544 3.04715-.89954.46517-1.10202.44478-2.47843-.2496-1.92586-.97157-3.4753-3.27313-4.10039-6.09077-.42616-1.92093-.50268-2.04755-.69522-1.15032-.61168 2.8505-.0704 8.4767 1.12307 11.6738.8272 2.21586 1.43424 2.78774 2.17395 2.04803 1.35288-1.35289 3.19158 1.00085 2.09237 2.67847-1.12359 1.71481-3.71263 1.93038-5.75112.47885-1.98861-1.41602-3.81391-6.68568-4.25244-12.2768-.2118-2.70044-.30001-3.04867-.52027-2.05377-.71976 3.25114-.62578 9.0142.24175 14.8246 1.38678 9.28821 1.47972 9.65028 2.27344 8.85656.52471-.52471 2.06872-.52131 2.59574.006.66452.66451.49319 2.56644-.29754 3.30312-1.35191 1.25949-4.10485 1.15754-5.77512-.21387-.69632-.57174-2.75857-5.13396-2.75857-6.10269 0-.53693-.54161-.64395-.83733-.16547-.10623.17188-.7996.41498-1.54083.54021-2.57624.43525-2.71528 1.88565-.18077 1.88565 1.19232 0 1.75661.21809 2.69412 1.04123 1.06624.93617 1.91592 2.84079 1.46741 3.28929-.0957.0957-.57426-.0882-1.06345-.40876-.60316-.3952-1.23181-.5143-1.95316-.37004-.86667.17334-1.2803.0226-2.23283-.81375-1.07205-.94127-2.17219-1.34786-2.17219-.8028 0 .12303.38813 1.04412.8625 2.04686l.8625 1.82317-.72104 2.23184c-.74997 2.32141-1.68855 3.05101-1.68855 1.31258 0-.50559-.30869-1.24784-.68598-1.64945-.37729-.4016-.77025-1.41274-.87325-2.24698-.38385-3.10897-.48374-3.66874-.80595-4.5162-.42707-1.12329-1.64498-1.96388-2.84542-1.96388-.95015 0-1.60643-.52058-2.76375-2.19231-.33825-.48859-.90679-.88835-1.26341-.88835-.94841 0-1.15771-.59276-.36004-1.01965.43021-.23024 1.53611-.28275 2.93563-.13936 2.03754.20875 2.29372.32351 2.76754 1.23978.28718.55535.57193.95691.63276.89235.13359-.14178-1.07986-4.97112-1.36502-5.43251-.11074-.17918-.53674-.0133-.94665.36857-.7582.70637-2.19068 1.23283-2.50345.92007-.0948-.0948.14346-1.10962.52939-2.25523.9097-2.70042.91777-3.27115.0396-2.80116-1.02409.54807-1.0681.47471-.86545-1.44272.10446-.98838.0598-2.2456-.0992-2.79382-.26905-.92772-.4222-.69061-2.21102 3.42296-2.97218 6.83485-3.30518 8.71262-1.81016 10.2076 1.0877 1.0877 1.0877 2.24807 0 3.42172-1.03462 1.11637-1.06349 1.98669-.17137 5.16602.9269 3.30327 2.06801 5.55948 3.61337 7.14439 1.63684 1.67872 3.05757 2.26951 5.45769 2.26951 3.49129 0 5.90476-1.70737 5.54523-3.92289-.18457-1.13738-.1403-1.2108.72318-1.19941 2.15938.0285 3.82344 1.96214 3.82706 4.44712.004 2.59061-1.61499 4.04795-5.3474 4.81418-1.833.37631-2.33655.35559-3.98868-.16407-1.03997-.32711-2.56047-1.01928-3.37889-1.53815-1.61814-1.02589-3.02838-1.51688-3.02838-1.05435 0 .32324 2.80875 2.64856 5.21506 4.31745 1.05908.73453 1.68775 1.47932 1.96964 2.33343.22771.69.34297 1.32561.25612 1.41246-.34366.34366-3.89147.23067-4.59558-.14636-.41187-.22055-1.61947-1.70946-2.68356-3.30869-1.925-2.89308-2.44388-3.48033-2.77903-3.14518-.20301.20302.29434 1.05093 2.87729 4.9054 1.82309 2.72054 1.86227 2.82971 1.62767 4.53542-.26442 1.9226-.50196 2.04988-2.36937 1.26963-1.24327-.51947-2.10795-1.90277-2.45071-3.92059-.34529-2.03277-1.58383-5.65912-2.12177-6.21244-.43856-.45109-.47097-.3056-.2668 1.19804.12781.94131.60052 3.26058 1.05046 5.15393.45232 1.90333.72158 3.81635.60223 4.2787-.18155.70336-2.06697 4.08805-2.27722 4.08805-.0373 0-.63944-.88569-1.33809-1.9682zm-18.271-31.692c1.31749-.61614 1.56252-.85423 1.19397-1.1601-.25505-.21167-.89676-.43494-1.42603-.49616-.84175-.0974-1.01843.0495-1.41035 1.1723-.24643.70599-.35068 1.27812-.23167 1.27141.11902-.007.96235-.36106 1.87408-.78745zm36.9821-4.33478c.81696-.75305 1.71886-1.36919 2.00421-1.36919 1.11764 0 1.31975-.82677.80488-3.29257-.27048-1.29542-.66142-4.96477-.86875-8.1541-.20732-3.18934-.42975-5.8516-.49429-5.91614-.2531-.25311-.55189 4.06625-.57949 8.37755-.016 2.49448-.14153 4.53542-.27901 4.53542-.62353 0-2.55578-5.18995-3.26993-8.7829l-.46546-2.34172-.0322 2.35241c-.0276 2.01525-.10338 2.29331-.52901 1.94007-.27327-.2268-.8894-1.2001-1.36919-2.1629-.96721-1.94095-1.09809-1.63463-.40635.95109.7144 2.67041 3.00401 6.88328 4.2962 7.90497.7903.62486.18415 1.50816-1.03495 1.50816h-1.08639l.20946 2.00401c.24072 2.30305.73866 3.81502 1.25642 3.81502.19713 0 1.02685-.61613 1.84381-1.36918zm-32.732-1.11246c.42195-1.17665.76715-2.2282.76711-2.33679s-.46217-.12962-1.02696-.0467c-.56479.0829-1.02689.072-1.02689-.0243s.58746-1.15346 1.30547-2.34935c1.41886-2.36321 1.88448-3.44169 2.46273-5.70427.2075-.81189.45438-1.73609.54862-2.05378.0942-.31768-.26086.19256-.78912 1.13388l-.96048 1.71148-.0994-2.82394c-.0572-1.6237-.2476-2.82395-.44807-2.82395-.19176 0-.27678.11629-.18895.25841.0878.14212-.21529 1.95201-.67361 4.02197-.81019 3.65918-1.69914 5.9885-2.28542 5.9885-.15839 0-.18046-1.23262-.049-2.73915.14502-1.66249.0939-3.31065-.13005-4.19312-.20294-.79969-.46385-2.04734-.57978-2.77256-.11594-.72523-.27933-1.25005-.3631-1.16629-.0838.0838-.16532 3.52192-.18123 7.64034-.0206 5.3415.0834 7.52548.36289 7.61865.2155.0718.77102.73129 1.23448 1.46547.46347.73418.95764 1.33487 1.09816 1.33487s.60072-.96271 1.02266-2.13935zm10.608-51.9069c-.80744-.818727-.75374-1.13299.17115-1.00164.49495.07029.80925.3846.87955.879546.12985.914289-.22837.955912-1.0507.12209z"/>
  <g fill="#fcdd09">
   <path d="m267.377 160.877c-.0443-.42359.11579-1.17686.35564-1.67394.38862-.80539.33881-1.04696-.45748-2.21881-.82532-1.21456-1.16576-2.82361-.69668-3.2927.33815-.33814 2.27225.37444 3.0826 1.13572.50574.47512 1.31682.76114 2.34126.82562.86209.0543 1.56744.0666 1.56744.0275 0-.0392-.42359-.53945-.94131-1.11177-.72789-.80463-1.31795-1.08161-2.6025-1.22161-.91365-.0996-1.90129-.42116-2.19475-.71462-.48323-.48324-.42805-.63215.58492-1.5784.71932-.67196 1.47588-1.04484 2.11992-1.04484.65778 0 1.06248-.20556 1.17934-.59901.0978-.32946.40588-1.04347.68453-1.58669.61691-1.20266.45516-1.43285-.59788-.85088-.43972.24302-1.01996.39636-1.28944.34077-.26947-.0556-1.14978.61757-1.95624 1.49592-.88065.95915-1.70029 1.55187-2.05216 1.48402-.56103-.10819-1.29292-2.39979-1.97522-6.18457-.35126-1.94844-2.25497-2.65642-2.25497-.83861 0 .88686 1.09845 4.79119 1.73005 6.14932.35537.76415.35752 1.0327.011 1.36919-.34166.33175-.54921.25449-1.00049-.37239-1.69938-2.36068-2.01225-2.62557-2.56209-2.16924-.40618.3371-.70105.34937-1.25622.0522-.39899-.21354-.90904-.32705-1.13343-.25226-.23351.0778-.079.31205.36128.54769.42309.22643.76925.58669.76925.80057 0 .79646 1.15398 1.64081 2.24252 1.64081 2.1662 0 3.91285 2.99681 3.91689 6.72042.002 1.46838.11442 1.78655.68651 1.93616.3858.10089.68459.46689.68459.83861 0 .61237.2685 1.11598.59499 1.11598.0762 0 .10239-.34657.0581-.77016z"/>
   <path d="m235.323 159.426c.20281-.37864.39069-1.65609.41752-2.83879.045-1.98182.14102-2.23605 1.22547-3.24351 1.39029-1.29158 4.65325-3.33467 5.3257-3.33467.25958 0 .47197-.17556.47197-.39013 0-.21458.25136-.57394.55858-.79858.47364-.34633.37462-.41537-.65117-.45393-.9066-.0341-1.58271.25099-2.69794 1.13755-2.53201 2.01285-2.87193 1.58031-1.46982-1.87031.79469-1.95575.82578-2.20452.3423-2.73876-.29249-.32319-.53179-.78087-.53179-1.01706 0-.2362-.18738-.36699-.41638-.29066-.3614.12047-1.08746 2.19369-1.7695 5.0527-.11228.47066-.33995 1.06418-.50593 1.31895-.46375.71179-1.65359-.083-2.36104-1.57714-.42334-.8941-.89134-1.32697-1.62192-1.50018-.56479-.1339-1.41197-.35498-1.88263-.49129l-.85574-.24784.72524.82088c.39889.45148.82114 1.22743.93834 1.72434.14113.59836.51511.97926 1.10746 1.12793 1.18266.29683 2.53672 1.20154 2.52588 1.68766-.005.21367-1.05777.89417-2.34001 1.5122-2.17936 1.05044-3.81265 2.57203-3.81265 3.55189 0 .33026.0913.33334.41076.0139.22591-.22591.8585-.41075 1.40575-.41075.64603 0 1.59811-.4802 2.71462-1.36918.94579-.75305 1.87068-1.36919 2.0553-1.36919.47132 0 .0117 2.29685-.76227 3.80951-.45212.8836-.58061 1.65272-.44501 2.66373.18592 1.38611.2073 1.40637.86042.81532.36837-.33337.83569-.91592 1.03849-1.29455z" fill="#fcdd09"/>
   <path d="m265.18 123.8c7.482-1.8063 13.051-4.3988 16.131-7.5095 2.7238-2.7508 3.651-4.2431 4.5871-7.383 1.3284-4.456 0.61729-7.3377-3.1932-12.94l-1.0216-1.502 0.81909-0.62978c0.4505-0.34638 0.93461-0.6332 1.0758-0.63739 0.4203-0.01246 0.29165-1.1982-0.20347-1.8753-0.69713-0.95338-2.1999-0.46994-2.3411 0.75313-0.15465 1.3397-1.1583 1.4264-1.4191 0.12251-0.25437-1.2719-1.3134-1.9231-2.2832-1.404-1.2374 0.66226-0.49226 2.7384 0.98288 2.7384 0.5924 0 1.4132 0.61406 1.4132 1.0572 0 0.12966-0.53044 0.33525-1.1788 0.45688-1.2145 0.22784-1.7506 1.0127-1.3698 2.0053 0.50108 1.3058 2.6257 0.64538 3.2559-1.012 0.16643-0.43776 0.49896-0.79582 0.73894-0.79569 0.53995 2.84e-4 2.8348 4.7206 3.3772 6.9464 1.3324 5.4683-3.1676 12.08-10.869 15.969-2.7644 1.396-9.5878 3.8803-12.61 4.5909-1.5687 0.36887-1.7203 0.49259-1.8168 1.4828-0.10403 1.0672-0.0914 1.0767 1.0269 0.77739 0.62272-0.16666 2.8266-0.71207 4.8975-1.212z"/>
   <path d="m242.42 123.46c0-0.24015-0.63831-0.52597-1.4548-0.65141-4.0292-0.61908-14.058-3.4886-15.504-4.4362-0.40936-0.26823-0.95845-0.6966-1.2202-0.95194-0.26174-0.25535-1.0509-0.816-1.7536-1.2459-1.7068-1.0441-3.5056-3.1976-4.6046-5.5125-0.71738-1.5112-0.97278-2.563-1.0613-5.196-0.0552-1.6178 0.0263-2.1907 0.42272-3.6054 0.71121-2.5382 2.876-5.7484 4.622-6.6785 0.27188-0.03262 0.35847 0.27144 0.35847 0.70646 0 1.6284 2.4871 1.9326 2.6728 0.3269 0.0821-0.70975-0.10283-1.0146-0.83046-1.3692-1.5056-0.7337-1.4218-1.3119 0.19025-1.3119 1.1567 0 1.4722-0.14738 1.785-0.83391 0.50476-1.1078 0.18038-1.833-0.9464-2.1158-1.1874-0.29803-1.987 0.21336-2.1238 1.3583-0.11951 1.0006-1.0865 1.2724-1.095 0.30777-7e-3 -0.84256-0.3878-1.3249-1.2593-1.5968-0.57265-0.17863-0.88342-0.03238-1.3079 0.6155-0.69439 1.0598-0.22309 2.1516 1.0687 2.4758l0.87255 0.219-1.1727 1.2398c-1.8674 1.9742-2.8289 3.4876-3.6149 5.6896-1.0983 3.0771-1.2024 4.4892-0.59398 8.0527 0.70969 4.1564 1.7836 6.3444 4.1963 8.5495 3.6255 3.3135 7.9336 4.8709 16.452 5.9475 4.5347 0.57312 5.9026 0.57694 5.9026 0.0165z"/>
   <path d="m248.59 100.2c0.23668-0.28518 0.63507-1.3993 0.88531-2.4758 0.43762-1.8826 0.42486-1.9902-0.33428-2.8189-0.4341-0.47387-1.2796-1.5624-1.879-2.4188-1.452-2.0749-2.8078-2.8543-4.5573-2.6196-1.2835 0.17216-2.6763 1.0336-2.6763 1.6554 0 0.15505 0.37372 0.11163 0.83049-0.09649 1.4409-0.6565 2.4671-0.09648 4.0206 2.1941 0.79654 1.1744 1.9763 2.6345 2.6218 3.2446 0.93639 0.88514 1.0928 1.2066 0.77412 1.5906-0.60358 0.72727-1.5246 0.31402-3.4244-1.5364-1.9534-1.9027-2.3374-2.0936-1.4799-0.73555 2.6807 4.2454 4.1137 5.3484 5.2188 4.0169z"/>
   <path d="m254.059 99.5203c.36772-.443071.2958-.36561-.64268-.299509-.58814.04143-1.15126-.195085-1.08653-1.3266.0428-.747749-.52001-.790388-.79999-.06078-.55363 1.44274 1.5612 2.85326 2.5292 1.68689z"/>
  </g>
 </g>
 <g id="b">
  <g fill="#da121a">
   <path id="c" d="m313.84 81.618c-2.633 0-2.9439 2.5699-4.8032 2.5699s-1.8706-1.1618-2.7372-1.6848c-0.58905 2.3162 0.67137 4.9457 2.5034 4.9457 2.154 0 2.2724-2.9736 4.2226-2.9736 1.1916 0 1.2861 1.224 1.87 2.5854 0.52167 1.2164 2.0416 1.9363 3.6043 2.2826-2.3621 2.0245-4.2736 4.6196-5.6326 4.6196-1.37 0-2.4657-1.9643-2.4657-1.9643-0.69628 1.0802-1.2315 4.3013 1.5684 4.3013 1.5172 0 3.0463-1.0093 3.0463-1.0093-3.1349 6.1021-5.233 12.645-5.233 18.797 0 2.4409-2.1621 5.7911-4.6524 6.9954 0.3647 1.1266 1.1738 2.0963 2.5411 2.0963 3.6399 0 1.8095-7.5853 5.7382-8.7734-0.79374 5.025-0.72343 10.063-0.34686 16.336 0.24942 4.1547-1.6303 7.3216-4.4186 8.688-0.99186 0.48603 0.20732 2.0497 2.1113 2.0497 4.313 0 5.0748-8.3046 4.7278-14.519l2.3074 1.0482v18.983c0 5.722-0.84764 7.4953-3.6345 9.3402-1.3464 0.5901 0.66722 1.7702 2.8503 1.7702 4.8798 0 3.4387-10.679 4.0266-18.913l2.6165 1.1646s-0.065 2.5472-0.19605 4.5497c-0.13188 2.0146 0.9002 2.7452 1.4854 4.1072 0 0-0.8596 4.9417-0.8596 10.738 0 4.5421-1.202 5.718-3.084 6.5994-0.44093 0.20651-0.68143 1.3774 2.6165 1.4053 4.7316 0.04 3.8682-8.2026 3.8682-12.873 0-7.912 0.55044-18.75 0.55044-18.75l2.4205 0.8851s-0.15835 12.703-0.15835 17.702c0 1.1586-1.1737 2.3086-2.345 2.2593 0.54087 0.79006 1.0674 1.4364 2.33 1.4364 1.8552 0 2.373-1.8717 2.3601-3.0513-0.0574-5.2481 0.19605-17.663 0.19605-17.663l3.084 1.4131s0.21721 1.791 0 3.4162c-0.22621 1.6926-1.87 2.5466-1.87 2.5466 1.1445 2.2937 2.8339 1.7695 3.3479 0.88511 0.78882-1.3571 0.55799-5.8852 0.55799-5.8852l1.9077 0.93169s0.1642 6.6774-0.21867 10.691c-0.31736 3.3269 0.42807 4.9441 0.5429 5.1709-0.21662 2.0026-0.73842 3.9663-2.2093 5.8075-0.56573-1.2867-2.0097-3.9208-4.5242-3.9208-2.1168-1e-5 -3.3404 2.3603-3.3404 2.3603l0.37702 0.71429s0.75602-0.3882 1.5986-0.3882c0.3372 0 0.8921 0.30527 1.1914 0.27174 0.5104 0.71183 2.9935 3.3308 2.9935 3.3308s-2.0001-0.34262-4.2678-0.34939c-2.6664-8e-3 -4.2229 2.7213-3.4987 5.1786 0.608-0.95432 1.1658-1.5419 2.526-1.4596 1.5155-1.14 3.9352-1.4061 5.4064-1.3742-0.1077 1.1203-2.3046 2.367-2.8126 4.9457-0.34804 1.7668 0.5804 3.312 1.6815 3.9442-1.2463 0.28446-2.0581 3.0864-4.1924 3.2221 0 0 0.49714 0.87734 2.1264 0.87734 3.0753 0 4.0352-2.8727 5.4668-2.8727 1.1667 0 2.2393 2.1351 5.1124 2.1351 2.1663 0 3.4987-1.1646 3.4987-1.1646l8e-3 2.1817s-5.5703 0.0233-6.4018 0.38043c-0.83149 0.35709-3.5968 3.4861-3.5968 3.4861 3.0849 0.30776 4.0494-1.3975 5.429-1.3975 1.2651-1e-5 3.1284-0.22514 4.4941-0.51243v1.6072c-2.1527 1.0674-3.8377 3.4246-5.3914 5.6134 1.23-0.0573 1.8963 0.36641 4.9993-1.2888 1.2517 0.79451 2.06 1.7502 2.345 2.896l0.54291 0.10094c0.39531-1.5758 1.0691-2.1233 1.7418-2.6708 0.85794 0.68672 3.2178 0.80451 5.0596 1.118-1.8288-1.9689-2.3837-3.3733-4.5317-4.6662l-0.0829-1.3975c2.2231 0.16284 2.496 1.7236 3.9964 1.7236 0.60716 0 0.6155-0.27951 1.2291-0.27951 1.6419 0 2.7583 1.0673 3.7174 2.1041 1.4076-2.0203-0.74077-4.115-2.7296-4.115-0.73004 0-1.5471 0.1941-1.9077 0.1941-1.2029 0-1.5938-1.705-4.0492-2.3913l-0.0151-2.4379c1.109 0.35136 2.4195 2.9038 4.9992 2.9038 2.7052 0 3.1219-2.3447 5.3084-2.3447 1.4191-1e-5 3.4309 2.073 3.4309 2.073 0.58015-1.6663 0.0356-4.0065-1.2668-5.2019 0.85175-0.48758 1.4724-1.0908 1.9303-1.646 0.63785-2.4843-1.4354-4.8672-2.3224-6.8324 0 0 2.0966 1.3208 3.559 1.7392 0.76779 0.2196 2.1566 0.37267 2.1565 0.37267 0.7981 0.63442 1.3858 1.5315 1.9605 2.4534 0.46062-1.0475 0.76896-2.5049 0.33931-3.7112-0.24799-0.69632-1.0546-2.4067-2.8126-2.9193-1.4786-0.43111-3.1016-0.43497-4.2905-0.45808 1.0517-0.96295 1.9568-1.8866 2.7975-3.0125 0.86727-0.11705 1.3334-0.11353 2.0887 0 0 0-0.52085-2.8106-2.903-2.8106-0.91093 0-0.72388 0.50467-0.72388 0.50467-1.7973-0.35263-2.6339 1.237-3.8833 3.7112l-3.0237-4.9379s0.28653-2.5695 0.28653-6.6616c0-4.0477-1.1882-8.1306-2.345-9.5731 0.40697-0.5549 0.78614-1.3509 0.935-2.1817 0.19632-1.0956 0.0905-2.3493 0.0905-4.1382l1.5608 0.75312s-0.21113 2.7552-0.21113 5.3883c0 2.2869 0.57585 4.8292 2.2093 4.8292 1.1867 0 1.8549-1.2888 1.8549-1.2888-3.4543-0.12884-2.7968-6.9644-0.91238-6.9644 0.69064 0 1.141 0.92368 1.1461 1.7081 9e-3 1.4182-0.16752 2.2543 0.0754 3.5482 0.15258 0.81267 0.76571 1.4863 1.41 1.5606-0.35822 1.7684-0.47505 4.5-0.47505 6.7547 0 2.4869 0.30151 5.3106 2.805 5.3106 1.1737 0 1.6223-0.72922 1.8851-1.2966-0.7776 0.01-1.43-0.57689-1.7192-1.4441-1.1031-3.3076-0.12735-6.7632 0.31669-10.357-0.93401-6.2289 0.15424-8.0919 0.96517-9.2237-0.10716 3.679 0.7811 5.5276 1.689 7.0265 0 0-0.20076 9.2018-0.24129 15.606-0.0427 6.8265 1.5116 10.186 5.0068 10.186 1.0545-1e-5 1.8474-0.55125 1.8474-0.55125-4.8743-2.8207-4.4036-10.405-4.4036-16.134 0-3.4884-0.60249-13.907 1.772-17.159l1.2517 0.46584c0.0169 4.0188 0.0153 9.8116 0.95762 14.542 0.77681 3.8997 2.3202 7.3681 4.5921 7.3681 1.4618 0 2.6664-1.2612 2.9181-2.2283-3.827-0.44295-4.3828-5.2489-4.3432-11.064 0.0225-3.312 0.18097-7.1302 0.18097-10.21l1.8248 2.0109c-0.22659 2.0853-0.64497 10.093 4.6222 10.093 1.2343 0 2.055-1.0573 2.1641-2.3913-3.2498-1.1099-3.2916-4.1759-2.5185-6.9721-1.5856-1.4454-1.9771-3.9364-1.9906-6.1569-0.0202-3.3188 0.19393-6.7193 0.5806-9.938 2.3421 0 1.9597 6.9178 5.9418 6.9178 1.8954 0 2.8502-2.7718 2.8502-2.7718-1.7903-0.25232-3.1863-0.75822-3.6344-2.0575-0.96734-2.8045-0.73896-5.8137-0.73895-9.0063 0-1.1447-0.0803-2.7055-0.7465-3.6724-0.35365-2.2544-2.089-4.9204-3.823-6.2268 0.37465-1.5934 0.64192-3.0421 0.30915-4.7516-0.13412-0.68901-0.3202-1.3453-0.5429-1.9721 0.48127 0.13227 1.0508 0.24068 1.6362 0.24068 4.3203 0 3.0181-2.6918 2.7749-2.632-0.1391 0.03415-1.5029 1.4441-2.9407 1.4441-0.81532 0-1.5476-0.2562-2.0736-0.48137-0.60806-1.2417-1.3896-2.3532-2.2772-3.3618 0.54159-0.8149 1.1934-1.8302 1.7192-2.764 1.2969-2.3035 2.8521-4.0218 3.7777-4.0218 1.2052 0 1.0069 0.70653 2.1792 0.70653 2.197 0 2.0776-2.7564 1.8323-3.2066-0.23759-0.43611-0.88513 1.2267-2.1339 1.2267-1.2579 0-1.2068-1.4441-2.8578-1.4441-1.0451 0-2.3848 0.97236-3.5364 4.6507-0.4965 1.5857-1.3532 2.9281-1.9831 3.7889-1.4071-1.3684-3.0128-2.5295-4.6373-3.5559-2.0559-1.2991-4.3446-0.73509-4.5318 2.2128-0.13102 2.0637 0.88584 3.2756 1.8776 4.5032 0.2163 1.8072 0.23885 3.4944 0.12819 5.2718-2e-3 0.0077 2e-3 0.01561 0 0.02329-1.6e-4 0.0026 1.6e-4 0.0052 0 0.0078-0.27403 1.2556-1.4158 2.8656-2.6391 3.6957-0.86166 0.58466-1.4774 0.48137-2.7221 0.48137-4.1681 0-4.9917 2.3038-4.9917 4.6118 0 2.8725 1.3011 6.1026 2.2244 6.1026 0.79371 0 1.9152-1.6517 1.9152-3.5094 0-1.6906-1.4025-2.3585-1.4025-3.6957-1e-5 -1.3926 1.0159-1.7547 2.345-1.7547 4.4427 0 4.5621-2.7293 5.5045-4.9535 4.4961 3.9418 1.1564 10.264-2.986 12.912-2.8564 1.8254-6.6888 2.7284-10.82 1.7314 0.3113-3.098 0.20826-6.1956 0.11311-9.2936 0.3647-0.40849 0.96583-0.66807 1.4478-0.68323 0.69749-2.7022 0.20579-5.6922-0.89731-7.4069 2.125-1.2154 2.0314-3.6269 5.1199-3.7035-2.4584-3.0684-6.0065-2.1901-8.2869-4.9845 1.1033-0.69264 2.0501-1.4689 2.7372-2.3758-3.6125 0.03944-3.6643-2.8572-8.9504-2.8572-3.8112 0-6.9792 3.2367-8.7845 6.0482-1.2891 0.0037-3.6563 0.53097-5.3763 1.8168-1.3481 1.0078-2.5336 2.8804-2.5336 5.0466 0 1.9129 1.7928 3.3228 4.2301 3.3618 0 0 0.045-2.2185 1.5232-3.1289 1.4782-0.91039 3.7249-0.17081 3.7249-0.17081s1.4093-1.3121 2.8201-1.3121c1.315 0 2.2395 0.77947 2.2395 1.8478 0 0.95994-1.5269 1.6615-3.0915 1.6615-1.492-1e-6 -2.7348 0.38071-3.8456 1.0171-1.8374 1.0526-1.8248 2.8727-1.8248 2.8727 0.9449-0.75401 2.109-1.7935 5.3084-1.7935 1.9366 0 3.7249-0.57005 4.954-1.5373 0.0473 0.26158 0.0754 0.51225 0.0754 0.72982 0 1.8193-0.59857 2.535-3.4836 3.455 0.53484 0.60979 1.4854 0.6724 1.4854 1.6537 0 1.0142-3.4798 3.8012-5.5874 5.2252 0.91147 2.4967 1.0999 5.8386-4.6072 5.8386-3.0538 0-8.3136-1.9335-11.786-3.9286-3.557-2.044-5.0596-4.0723-5.0596-7.5001 0-2.0431 0.61234-4.3884 3.363-6.1569 0.1362-0.08757 0.25789-0.20375 0.36947-0.33386 1.4047 2.5624 2.1153 5.8813 4.8108 5.8929 2.747 0.0119 4.4557 2.6397 4.1397 5.7066 1.365-0.61488 2.3903-2.4595 2.3903-4.9612 0-1.8792-1.3117-2.764-3.1142-2.764-1.3985 0-1.6288 0.34939-3.1594 0.34939-1.9316 0-3.3371-2.8798-4.6298-4.9535 0.52687-1.2597 0.54878-3.2059 0.32424-4.7671-0.22157-1.5406 0.26508-2.2411 1.5232-3.059 1.179-0.76654 1.3026-3.0979-1.131-3.0979-1.8857 0-4.2964 0.84301-6.2133 1.8944-0.49573 0.27192-0.97567 0.59791-1.4402 0.95498-0.65623-0.16511-1.5558-0.47645-2.2319-1.0404-1.3689-1.1416-1.0632-2.1554-1.0632-3.455 0-1.3014-0.80641-2.6553-2.0661-2.6553zm39.843 72.967c0.55345 2.184 1.9961 3.9103 3.182 5.7687l2.7824 5.7454c-2.1677 0.26685-4.7314-0.10523-5.8664 2.0419-1.3841-0.25369-0.36708 4.1549 1.5382 4.7438-0.0462-1.1435-0.1649-2.3771 0.23375-2.5311 1.9324-2.1083 4.4419-1.0958 6.2057-1.5994 0.78519 1.4913 1.4219 3.0269 1.8097 4.6351-0.33403 0.54158-0.67918 1.0918-1.033 1.6537-2.5075 0.14104-4.1424 2.5466-6.3037 2.5466-1.4593 0-3.2003-1.1018-3.4836-2.1817-0.35932-1.3693-0.57306-3.8173-0.57306-8.9364 0-5.0894 0.4949-10.91 1.5081-11.887zm-8.7544 0.52795c2.5735 2.8329 2.3056 12.504 2.8126 18.805 0.12928 1.6064-1.3304 2.733-2.6919 2.733-2.4334 0-2.9539-2.764-5.414-2.764-2.1223 0-2.0305 1.5711-3.461 1.941-0.0621-0.96793-0.2163-1.8625 8e-3 -3.0513 1.3353-1.5671 1.8726-3.7069 3.0765-5.1864 3.4762-0.22333 5.0112 2.0996 5.8287 2.2516-0.0334 0.34244 1.7216 2.2664 2.526 3.1988-0.17648-1.669 9e-3 -3.3389-0.59569-5.0078l-0.51275-0.0932c-0.30289-1.0434-0.95475-1.8808-3.0765-3.2143-0.92358-0.261-1.7055-0.45833-2.5486-0.3882 1.579-1.8094 1.803-3.7474 2.4657-5.7066 0.3033-1.0539 1.0633-2.4061 1.5835-3.5171z"/>
  </g>
  <g stroke="#000">
   <path d="m340.74 99.227c0.31393-1.8439 2.2685-2.9814 5.4291-2.9814 2.5469 0 4.3734 0.12422 4.3734 0.12422l-3.4082 2.4845s-0.99277-1.3044-2.5939-1.3044c-2.5448 0-2.6284 1.4442-3.8003 1.677z" stroke-width=".245"/>
   <path d="m344.992 90.9967c.42101-.592493 1.06899-1.26571 1.83077-1.56995.34473-.137682.77824-.140318 1.09736-.131925.31913.0084.52273.148715.77403.229472.16187.05201.32681.191423.25381.370211-.0757.185388-.21805.362023-.4299.373419-.33052.01778-.69503-.110133-.99468.08875-.25896.171865-.35684.708056-.32799 1.10827-.62893.45841-1.55707.08195-2.2034-.468242z" stroke-width=".073"/>
  </g>
  <g fill="#fcdd09">
   <path d="m340.189 156.867c-.21662 2.00262-.73842 3.96634-2.20932 5.80752-.56573-1.28674-2.00973-3.92085-4.52422-3.92085-2.11679-.00001-3.34038 2.36027-3.34038 2.36027l.37702.71429s.75602-.3882 1.59856-.3882c.3372 0 .8921.30527 1.19138.27174.5104.71183 2.99352 3.33079 2.99352 3.33079s-2.00013-.34262-4.26785-.34939c-2.66638-.008-4.22294 2.72126-3.49872 5.17863.608-.95432 1.16577-1.54186 2.52602-1.45964 1.51551-1.14003 3.9352-1.40614 5.40644-1.37424-.1077 1.12031-2.30457 2.36695-2.81256 4.9457-.34804 1.76682.5804 3.31195 1.6815 3.94415.0667-.0152.13409-.0233.20359-.0233.12674 0 .24447-.0102.3544-.0233.0968-.0116.1862-.0261.27145-.0466.012-.003.0259-.005.0377-.008-.0621-.96793-.2163-1.86251.008-3.05127 1.33532-1.5671 1.87259-3.70691 3.07647-5.1864 3.47625-.22332 5.01115 2.09957 5.8287 2.25158-.0334.34244 1.72155 2.26642 2.52602 3.19879-.17648-1.66896.009-3.33885-.59569-5.00781l-.51275-.0932c-.30289-1.0434-.95475-1.88075-3.07646-3.21432-.92358-.261-1.70547-.45834-2.54864-.38821 1.57905-1.80942 1.80301-3.8352 2.46569-5.79442l-3.13679-1.62802s-.0133-.0282-.0226-.0466z"/>
   <path d="m359.5 158.28-2.70676 1.92838 2.85757 5.89003c-2.16771.26685-4.73136-.10523-5.8664 2.04194-1.38409-.25369-.36708 4.15486 1.53824 4.74385-.0462-1.14352-.1649-2.37714.23375-2.53109 1.93237-2.10829 4.44187-1.09579 6.20571-1.59939.78519 1.4913 1.42194 3.02691 1.80969 4.63514-.33403.54158-.67918 1.09176-1.03303 1.65374.0757-.004.14889-.008.22621-.008.0916 0 .18288.007.27145.0155.0883.009.17119.0214.25638.0388.0551.0113.11213.0242.16588.0388.005.001.01.006.0151.008.0527.0148.10701.0287.15835.0466.0149.005.0305.0101.0452.0155.038.014.0759.0309.11311.0466.0309.013.0601.0247.0905.0388.047.0219.09.0453.13573.0699.0756.0404.15419.0849.22621.13198.0121.008.0257.0152.0377.0233.0589.04.11693.08.17343.12423.0686.0536.13122.1113.19605.17081.85175-.48758 1.47241-1.09086 1.93033-1.64598.63785-2.48434-1.43545-4.86722-2.32243-6.83237 0 0 2.09659 1.32085 3.55905 1.73915.76779.2196 2.15655.37267 2.15654.37267.7981.63442 1.38577 1.53152 1.9605 2.45344.46062-1.04752.76896-2.50486.33931-3.71122-.24799-.69631-1.05457-2.40672-2.81255-2.91928-1.47862-.43111-3.10156-.43497-4.29047-.45808 1.05169-.96295 1.95681-1.88655 2.79748-3.01246.86727-.11705 1.33337-.11353 2.08868 0 0 0-.52085-2.81059-2.90304-2.81059-.91093 0-.72388.50467-.72388.50467-1.7973-.35263-2.63394 1.23701-3.88328 3.71122l-3.04631-4.91464z"/>
   <path d="m313.15 99.289c-1.0023 2.3757-1.8191 4.7918-2.3978 7.1973 5.8984 6.3514 14.145 14.006 30.29 12.958-14.75-2.1919-22.463-8.3679-27.892-20.156z" fill="#fcdd09"/>
   <path d="m385.26 102.19c-5.2926 9.6202-12.477 15.277-25.765 17.252 15.095 0.9794 23.557-4.8494 29.46-10.66-0.38855-2.2325-2.0921-4.8389-3.8003-6.1258 0.0369-0.15712 0.0712-0.31115 0.10556-0.46585z"/>
   <path d="m342.83 88.919c-1.2859 0-3.6725 0.51465-5.3987 1.8051-1.3481 1.0078-2.5311 2.8851-2.5311 5.0513 0 1.9129 1.7901 3.318 4.2274 3.357 0 0 0.0414-2.2191 1.5196-3.1295 1.4782-0.91039 3.73-0.1707 3.73-0.1707s1.4074-1.3087 2.8182-1.3087c1.315 0 2.238 0.78085 2.238 1.8492 0 0.95994-1.5281 1.656-3.0927 1.656-1.492 0-2.7316 0.3819-3.8424 1.0183-1.8374 1.0526-1.8236 2.8734-1.8236 2.8734 0.94491-0.75401 2.1055-1.7923 5.305-1.7923 3.5734 0 6.6312-1.9611 6.6312-4.7226 0-2.3928-2.397-4.1821-5.3602-4.1821-2.22 0-4.4208-2.3044-4.4208-2.3044z"/>
  </g>
  <g fill="none" stroke="#000" stroke-width=".245">
   <use xlink:href="#c"/>
   <path d="m334.47 158.95c-0.64256 0.61735-1.1265 1.8491-1.1763 2.7951"/>
   <path d="m330.515 165.035c-.42005.81841-.451 2.29467.42226 3.35407"/>
   <path d="m345.08 169.88c0.73713-0.2395 1.2534-0.85795 1.5081-1.9255"/>
   <path d="m333.56 172.21c1.0973-0.25323 1.8644 0.10569 2.5637 0.59007"/>
   <path d="m353.76 168.2c0.75277 0.5379 1.2942 1.3659 1.7062 2.3717"/>
   <path d="m366.47 159.46 1.4929 2.3717"/>
   <path d="m372.27 168.29c-0.91999-0.23501-1.8074 0.12907-2.0048 1.2737"/>
   <path d="m366.47 174.22c-0.69425-0.38139-1.1648-0.8319-2.9432-0.8784"/>
   <path d="m336.156 175.836c-.31929.10959-.50913-.0306-.85431.10662"/>
   <path d="m362.54 175.04c0.64639-0.0211 1.3125-1e-3 2.1617 0.81301"/>
  </g>
 </g>
 <use x="96.86589" y="115.39258" xlink:href="#a"/>
 <use x="-96.601278" y="115.92166" xlink:href="#b"/>
 <path d="m300 78.466v246.58m-98.858-131.59h197.19" stroke="#000" stroke-width="1.83"/>
</svg>
