<?xml version="1.0" encoding="utf-8"?>
<!-- Generator: Adobe Illustrator 23.0.1, SVG Export Plug-In . SVG Version: 6.00 Build 0)  -->
<svg version="1.1"
	 id="svg2" inkscape:output_extension="org.inkscape.output.svg.inkscape" inkscape:version="0.44+devel" sodipodi:docbase="C:\Documents and Settings\Flanker\Desktop" sodipodi:docname="Flag_of_Liguria_(regione).svg" sodipodi:version="0.32" xmlns:cc="http://web.resource.org/cc/" xmlns:dc="http://purl.org/dc/elements/1.1/" xmlns:inkscape="http://www.inkscape.org/namespaces/inkscape" xmlns:rdf="http://www.w3.org/1999/02/22-rdf-syntax-ns#" xmlns:sodipodi="http://sodipodi.sourceforge.net/DTD/sodipodi-0.dtd" xmlns:svg="http://www.w3.org/2000/svg"
	 xmlns="http://www.w3.org/2000/svg" xmlns:xlink="http://www.w3.org/1999/xlink" x="0px" y="0px" width="900px" height="600px"
	 viewBox="0 0 900 600" enable-background="new 0 0 900 600" xml:space="preserve">
<g>
	<rect id="rect8128" x="0" fill-rule="evenodd" clip-rule="evenodd" fill="#FF0000" width="900" height="600"/>
	<rect id="rect8130" x="0" fill-rule="evenodd" clip-rule="evenodd" fill="#009C31" width="300" height="600"/>
	<rect id="rect8132" x="600" fill-rule="evenodd" clip-rule="evenodd" fill="#009CCE" width="300" height="600"/>
</g>
<g>
	<path fill-rule="evenodd" clip-rule="evenodd" fill="#FFFFFF" d="M311.321,329.892V179.708h-0.012l0.005-2.684
		c0.004-2.793,0.161-5.403,0.535-7.841c0.388-2.543,1.005-4.951,1.914-7.246c0.899-2.272,2.098-4.451,3.665-6.56
		c1.544-2.078,3.423-4.059,5.7-5.963c3.473-2.905,9.826-5.748,18.274-8.36c8.464-2.616,19.114-5.046,31.118-7.103
		c11.784-2.021,24.843-3.674,38.403-4.79h0.01c12.711-1.046,25.945-1.62,39.072-1.581c13.126-0.039,26.359,0.535,39.07,1.581h0.011
		c13.561,1.117,26.619,2.77,38.403,4.79c12.003,2.057,22.653,4.487,31.118,7.103c8.447,2.612,14.8,5.455,18.274,8.36
		c2.278,1.904,4.157,3.885,5.7,5.963c1.566,2.11,2.765,4.288,3.665,6.56c0.908,2.295,1.524,4.703,1.914,7.246
		c0.372,2.438,0.531,5.048,0.534,7.841l0.004,2.684h-0.012v150.184v2.686h-2.685H435.742h-2.684H313.995h-2.674V329.892z"/>
	<rect x="443.344" y="128.295" fill-rule="evenodd" clip-rule="evenodd" fill="#FF0000" width="13.32" height="203.484"/>
	<rect x="311.549" y="230.083" fill-rule="evenodd" clip-rule="evenodd" fill="#FF0000" width="276.152" height="13.319"/>
	<path fill-rule="evenodd" clip-rule="evenodd" fill="#969696" d="M314.734,338.109l67.206,3.578l2.605,0.139l-0.066,2.599
		l-0.014,0.526v1.332c0,11.007,2.222,21.485,6.245,31.026c4.185,9.926,10.325,18.865,17.95,26.355
		c7.614,7.48,16.714,13.509,26.829,17.627c9.243,3.762,19.318,5.926,29.867,6.141h1.741c10.576,0,20.714-1.957,30.042-5.534
		c9.662-3.706,18.45-9.138,25.95-15.923c7.411-6.705,13.584-14.743,18.12-23.755c4.383-8.706,7.23-18.31,8.184-28.483l0.228-2.444
		h2.436h33.479h3.11l-0.456,3.072c-2.438,16.439-7.74,31.868-15.362,45.809c-7.854,14.365-18.169,27.139-30.351,37.798
		c-12.497,10.935-26.965,19.649-42.761,25.576c-15.303,5.743-31.832,8.871-48.999,8.871c-18.276,0-35.769-3.528-51.81-9.946
		c-16.616-6.648-31.66-16.401-44.388-28.55c-12.608-12.036-22.95-26.427-30.305-42.487c-7.099-15.499-11.412-32.548-12.291-50.525
		l-0.144-2.958L314.734,338.109z"/>
	<path fill-rule="evenodd" clip-rule="evenodd" d="M313.988,177.023h0.008v152.869h119.063h152.942V177.023h0.019
		c-0.007-5.25-0.607-9.895-2.27-14.101c-1.641-4.148-4.346-7.907-8.589-11.453c-6.487-5.426-24.633-10.85-48.123-14.876
		c-22.705-3.893-50.249-6.42-77.034-6.34c-26.785-0.08-54.33,2.447-77.034,6.34c-23.49,4.027-41.635,9.451-48.123,14.876
		c-4.241,3.547-6.947,7.306-8.588,11.453C314.595,167.128,313.995,171.773,313.988,177.023 M310,177.023h0.008
		c0.008-5.749,0.677-10.87,2.536-15.567c1.881-4.756,4.952-9.04,9.743-13.046c7.027-5.875,25.869-11.611,50.012-15.75
		c22.873-3.922,50.654-6.468,77.705-6.387c27.051-0.081,54.832,2.465,77.705,6.387c24.143,4.139,42.986,9.875,50.012,15.75
		c4.791,4.006,7.863,8.29,9.744,13.046c1.858,4.697,2.528,9.818,2.536,15.567h-0.003v156.864h-0.075v0.001H466.863H310v-0.001
		V177.023z"/>
	<polygon fill-rule="evenodd" clip-rule="evenodd" fill="#969696" points="523.423,263.757 517.382,276.571 503.264,275.397 
		511.339,287.036 503.264,298.676 517.382,297.501 523.501,310.217 529.466,297.502 543.593,298.618 535.508,287.036 
		543.593,275.433 529.466,276.571 	"/>
	<polygon fill-rule="evenodd" clip-rule="evenodd" fill="#969696" points="376.796,263.757 370.754,276.571 356.637,275.397 
		364.711,287.036 356.637,298.676 370.754,297.501 376.875,310.217 382.839,297.502 396.965,298.618 388.88,287.036 
		396.965,275.433 382.839,276.571 	"/>
	<polygon fill-rule="evenodd" clip-rule="evenodd" fill="#969696" points="523.423,157.067 517.382,169.881 503.264,168.707 
		511.339,180.346 503.264,191.986 517.382,190.811 523.501,203.527 529.466,190.811 543.593,191.927 535.508,180.346 
		543.593,168.743 529.466,169.881 	"/>
	<polygon fill-rule="evenodd" clip-rule="evenodd" fill="#969696" points="376.796,157.067 370.754,169.881 356.637,168.707 
		364.711,180.346 356.637,191.986 370.754,190.811 376.875,203.527 382.839,190.811 396.965,191.927 388.88,180.346 
		396.965,168.743 382.839,169.881 	"/>
	<rect x="447.687" y="332.3" fill-rule="evenodd" clip-rule="evenodd" width="4.633" height="94.264"/>
	<path fill-rule="evenodd" clip-rule="evenodd" d="M381.804,344.362l-67.206-3.578c1.756,35.893,17.464,67.998,41.768,91.197
		c24.529,23.414,57.818,37.752,94.352,37.752c34.266,0,65.868-12.662,89.998-33.775c23.537-20.595,39.963-49.225,44.821-81.98
		h-33.479c-2.006,21.408-12.105,40.345-27.175,53.978c-15.248,13.795-35.591,22.159-57.786,22.159v0.008
		c-23.548,0-44.874-9.384-60.315-24.552c-15.447-15.173-25.002-36.137-25.002-59.289h-0.008
		C381.771,345.805,381.783,345.157,381.804,344.362 M385.949,341.291l-0.057,0.936c-0.038,0.735-0.066,1.429-0.083,2.06
		c-0.014,0.492-0.021,1.153-0.021,1.996h-0.007c0,22.039,9.1,41.999,23.809,56.448c14.715,14.455,35.048,23.397,57.507,23.397v0.008
		c21.155,0,40.548-7.976,55.087-21.13c14.531-13.146,24.209-31.466,25.945-52.163v-2.511h41.729v1.635v0.035l-0.007,0.012
		c-4.514,34.793-21.657,65.218-46.484,86.941c-24.843,21.738-57.377,34.775-92.649,34.775c-37.6,0-71.871-14.765-97.129-38.876
		c-25.104-23.963-41.299-57.166-43.009-94.284l-0.01-0.001l-0.193-3.586L385.949,341.291z"/>
</g>
</svg>
