<?xml version="1.0" encoding="UTF-8"?>
<!-- Generator: Adobe Illustrator 23.0.1, SVG Export Plug-In . SVG Version: 6.00 Build 0)  -->
<svg id="svg2" width="900px" height="600px" enable-background="new 0 0 900 600" version="1.1" viewBox="0 0 900 600" xml:space="preserve" xmlns="http://www.w3.org/2000/svg">
<g clip-rule="evenodd" fill-rule="evenodd">
	<rect id="rect8128" width="900" height="600" fill="#f00"/>
	<rect id="rect8130" width="300" height="600" fill="#009C31"/>
	<rect id="rect8132" x="600" width="300" height="600" fill="#009CCE"/>
</g>
<g clip-rule="evenodd" fill-rule="evenodd">
	<path d="m311.32 329.89v-150.18h-0.012l5e-3 -2.684c4e-3 -2.793 0.161-5.403 0.535-7.841 0.388-2.543 1.005-4.951 1.914-7.246 0.899-2.272 2.098-4.451 3.665-6.56 1.544-2.078 3.423-4.059 5.7-5.963 3.473-2.905 9.826-5.748 18.274-8.36 8.464-2.616 19.114-5.046 31.118-7.103 11.784-2.021 24.843-3.674 38.403-4.79h0.01c12.711-1.046 25.945-1.62 39.072-1.581 13.126-0.039 26.359 0.535 39.07 1.581h0.011c13.561 1.117 26.619 2.77 38.403 4.79 12.003 2.057 22.653 4.487 31.118 7.103 8.447 2.612 14.8 5.455 18.274 8.36 2.278 1.904 4.157 3.885 5.7 5.963 1.566 2.11 2.765 4.288 3.665 6.56 0.908 2.295 1.524 4.703 1.914 7.246 0.372 2.438 0.531 5.048 0.534 7.841l4e-3 2.684h-0.012v152.87h-277.36v-2.686z" fill="#fff"/>
	<rect x="443.34" y="128.3" width="13.32" height="203.48" fill="#f00"/>
	<rect x="311.55" y="230.08" width="276.15" height="13.319" fill="#f00"/>
	<path d="m314.73 338.11 67.206 3.578 2.605 0.139-0.066 2.599-0.014 0.526v1.332c0 11.007 2.222 21.485 6.245 31.026 4.185 9.926 10.325 18.865 17.95 26.355 7.614 7.48 16.714 13.509 26.829 17.627 9.243 3.762 19.318 5.926 29.867 6.141h1.741c10.576 0 20.714-1.957 30.042-5.534 9.662-3.706 18.45-9.138 25.95-15.923 7.411-6.705 13.584-14.743 18.12-23.755 4.383-8.706 7.23-18.31 8.184-28.483l0.228-2.444h39.025l-0.456 3.072c-2.438 16.439-7.74 31.868-15.362 45.809-7.854 14.365-18.169 27.139-30.351 37.798-12.497 10.935-26.965 19.649-42.761 25.576-15.303 5.743-31.832 8.871-48.999 8.871-18.276 0-35.769-3.528-51.81-9.946-16.616-6.648-31.66-16.401-44.388-28.55-12.608-12.036-22.95-26.427-30.305-42.487-7.099-15.499-11.412-32.548-12.291-50.525l-0.144-2.958 2.955 0.156z" fill="#969696"/>
	<path d="m313.99 177.02h8e-3v152.87h272v-152.87h0.019c-7e-3 -5.25-0.607-9.895-2.27-14.101-1.641-4.148-4.346-7.907-8.589-11.453-6.487-5.426-24.633-10.85-48.123-14.876-22.705-3.893-50.249-6.42-77.034-6.34-26.785-0.08-54.33 2.447-77.034 6.34-23.49 4.027-41.635 9.451-48.123 14.876-4.241 3.547-6.947 7.306-8.588 11.453-1.664 4.206-2.264 8.851-2.271 14.101m-3.988 0h8e-3c8e-3 -5.749 0.677-10.87 2.536-15.567 1.881-4.756 4.952-9.04 9.743-13.046 7.027-5.875 25.869-11.611 50.012-15.75 22.873-3.922 50.654-6.468 77.705-6.387 27.051-0.081 54.832 2.465 77.705 6.387 24.143 4.139 42.986 9.875 50.012 15.75 4.791 4.006 7.863 8.29 9.744 13.046 1.858 4.697 2.528 9.818 2.536 15.567h-3e-3v156.86h-0.075v1e-3h-279.92v-156.86z"/>
	<polygon points="523.42 263.76 517.38 276.57 503.26 275.4 511.34 287.04 503.26 298.68 517.38 297.5 523.5 310.22 529.47 297.5 543.59 298.62 535.51 287.04 543.59 275.43 529.47 276.57" fill="#969696"/>
	<polygon points="376.8 263.76 370.75 276.57 356.64 275.4 364.71 287.04 356.64 298.68 370.75 297.5 376.88 310.22 382.84 297.5 396.96 298.62 388.88 287.04 396.96 275.43 382.84 276.57" fill="#969696"/>
	<polygon points="523.42 157.07 517.38 169.88 503.26 168.71 511.34 180.35 503.26 191.99 517.38 190.81 523.5 203.53 529.47 190.81 543.59 191.93 535.51 180.35 543.59 168.74 529.47 169.88" fill="#969696"/>
	<polygon points="376.8 157.07 370.75 169.88 356.64 168.71 364.71 180.35 356.64 191.99 370.75 190.81 376.88 203.53 382.84 190.81 396.96 191.93 388.88 180.35 396.96 168.74 382.84 169.88" fill="#969696"/>
	<rect x="447.69" y="332.3" width="4.633" height="94.264"/>
	<path d="m381.8 344.36-67.206-3.578c1.756 35.893 17.464 67.998 41.768 91.197 24.529 23.414 57.818 37.752 94.352 37.752 34.266 0 65.868-12.662 89.998-33.775 23.537-20.595 39.963-49.225 44.821-81.98h-33.479c-2.006 21.408-12.105 40.345-27.175 53.978-15.248 13.795-35.591 22.159-57.786 22.159v8e-3c-23.548 0-44.874-9.384-60.315-24.552-15.447-15.173-25.002-36.137-25.002-59.289h-8e-3c-1e-3 -0.477 0.011-1.125 0.032-1.92m4.145-3.071-0.057 0.936c-0.038 0.735-0.066 1.429-0.083 2.06-0.014 0.492-0.021 1.153-0.021 1.996h-7e-3c0 22.039 9.1 41.999 23.809 56.448 14.715 14.455 35.048 23.397 57.507 23.397v8e-3c21.155 0 40.548-7.976 55.087-21.13 14.531-13.146 24.209-31.466 25.945-52.163v-2.511h41.729v1.67l-7e-3 0.012c-4.514 34.793-21.657 65.218-46.484 86.941-24.843 21.738-57.377 34.775-92.649 34.775-37.6 0-71.871-14.765-97.129-38.876-25.104-23.963-41.299-57.166-43.009-94.284l-0.01-1e-3 -0.193-3.586 75.572 4.308z"/>
</g>
</svg>
