<?xml version="1.0" encoding="UTF-8" standalone="no"?>
<!-- Created with Inkscape (http://www.inkscape.org/) -->

<svg
   id="svg2"
   sodipodi:version="0.32"
   inkscape:version="1.2 (dc2aedaf03, 2022-05-15)"
   width="750"
   height="500"
   version="1.0"
   sodipodi:docname="Flag_of_Marche.svg"
   inkscape:output_extension="org.inkscape.output.svg.inkscape"
   sodipodi:modified="true"
   xmlns:inkscape="http://www.inkscape.org/namespaces/inkscape"
   xmlns:sodipodi="http://sodipodi.sourceforge.net/DTD/sodipodi-0.dtd"
   xmlns="http://www.w3.org/2000/svg"
   xmlns:svg="http://www.w3.org/2000/svg"
   xmlns:rdf="http://www.w3.org/1999/02/22-rdf-syntax-ns#"
   xmlns:cc="http://creativecommons.org/ns#"
   xmlns:dc="http://purl.org/dc/elements/1.1/">
  <metadata
     id="metadata7">
    <rdf:RDF>
      <cc:Work
         rdf:about="">
        <dc:format>image/svg+xml</dc:format>
        <dc:type
           rdf:resource="http://purl.org/dc/dcmitype/StillImage" />
      </cc:Work>
    </rdf:RDF>
  </metadata>
  <defs
     id="defs5" />
  <sodipodi:namedview
     inkscape:window-height="1005"
     inkscape:window-width="1920"
     inkscape:pageshadow="2"
     inkscape:pageopacity="0.0"
     guidetolerance="10.0"
     gridtolerance="10.0"
     objecttolerance="10.0"
     borderopacity="1.0"
     bordercolor="#666666"
     pagecolor="#ffffff"
     id="base"
     inkscape:zoom="0.6045763"
     inkscape:cx="196.00504"
     inkscape:cy="225.77795"
     inkscape:window-x="-9"
     inkscape:window-y="-9"
     inkscape:current-layer="svg2"
     inkscape:showpageshadow="false"
     inkscape:pagecheckerboard="0"
     inkscape:deskcolor="#d1d1d1"
     showgrid="false"
     inkscape:window-maximized="1" />
  <rect
     style="fill:#ffffff;fill-opacity:1;fill-rule:nonzero;stroke:none;stroke-width:3.75;stroke-linecap:round;stroke-linejoin:miter;stroke-miterlimit:4;stroke-dasharray:none;stroke-dashoffset:0;stroke-opacity:1"
     id="rect2254-4"
     width="750"
     height="500"
     x="0"
     y="0" />
  <g
     id="g2180"
     transform="matrix(1.0016695,0,0,1.0016695,250.24862,94.741227)">
    <g
       id="g14361"
       transform="translate(1,5.28125)">
      <path
         sodipodi:nodetypes="ccsccc"
         id="path14363"
         d="m 2.5,-0.03125 v 178 c 0,67.06799 54.432024,121.5 121.5,121.5 67.06801,0 121.50001,-54.43201 121.5,-121.5 v -178 z"
         style="opacity:1;fill:#ffffff;fill-opacity:1;fill-rule:evenodd;stroke:none;stroke-width:1;stroke-linecap:round;stroke-linejoin:miter;stroke-miterlimit:4;stroke-dasharray:none;stroke-opacity:1"
         inkscape:connector-curvature="0" />
      <path
         sodipodi:nodetypes="ccccccssccsc"
         id="path14365"
         d="m 185.6875,54.71875 c -6.70554,-0.129999 -13.34319,2.430189 -18.25,7.375 l -58.59375,59.09375 35.34375,35.34375 16,-16.125 v 60.25 c -0.12751,9.0159 4.61881,17.39234 12.40625,21.9375 7.78744,4.54516 17.40006,4.54516 25.1875,0 7.78744,-4.54516 12.53376,-12.9216 12.40625,-21.9375 V 79.71875 c 0.006,-10.132651 -6.10101,-19.262862 -15.46875,-23.125 -2.92742,-1.206918 -5.98328,-1.81591 -9.03125,-1.875 z"
         style="fill:#000000;fill-opacity:1;fill-rule:evenodd;stroke:none;stroke-width:50;stroke-linecap:round;stroke-linejoin:round;stroke-miterlimit:4;stroke-opacity:1"
         inkscape:connector-curvature="0" />
      <path
         sodipodi:nodetypes="ccsccscccccsccscccccccccccccsccsc"
         id="path14367"
         d="M 38.9375,83.963457 V 200.5 c 0,14.54484 11.861413,26.4375 26.40625,26.4375 14.544841,0 26.40625,-11.89266 26.40625,-26.4375 v -9.3125 c 9.23403,6.32513 20.40292,10.03125 32.40625,10.03125 16.13577,0 30.73062,-6.71334 41.1875,-17.46875 L 91.75,110.15625 V 82.327055 l -10,9.651268 V 105 c -9.352818,10.22879 -15.093748,23.81219 -15.09375,38.71875 0,14.91582 5.733015,28.51665 15.09375,38.75 V 200.5 c 0,9.17781 -7.228437,16.4375 -16.40625,16.4375 -9.177813,0 -16.40625,-7.25969 -16.40625,-16.4375 V 91.978323 c 0,0 -10,-8.014866 -10,-8.014866 z M 84.71875,117.28125 150.625,183.1875 c -1.84427,1.23748 -3.76568,2.36743 -5.78125,3.34375 l -33.3125,-33.3125 -7.09375,7.09375 29.875,29.84375 c -1.77808,0.38878 -3.59083,0.6608 -5.4375,0.84375 l -27.5625,-27.5625 -7.09375,7.09375 19.5625,19.5625 c -21.266624,-4.72825 -37.125,-23.66629 -37.125,-46.375 2e-6,-9.80301 2.994921,-18.88186 8.0625,-26.4375 z m 1.25,69.34375 c 0.423217,0.37719 0.847003,0.76024 1.28125,1.125 -0.434614,-0.36687 -0.857761,-0.7456 -1.28125,-1.125 z"
         style="opacity:1;fill:#000000;fill-opacity:1;fill-rule:evenodd;stroke:none;stroke-width:9.92943;stroke-linecap:round;stroke-linejoin:round;stroke-miterlimit:4;stroke-dasharray:none;stroke-opacity:1"
         inkscape:connector-curvature="0" />
      <circle
         transform="matrix(0.970954,0,0,0.970954,4.103613,7.334278)"
         id="path14369"
         style="opacity:1;fill:none;fill-opacity:1;fill-rule:evenodd;stroke:#000000;stroke-width:10.2991;stroke-linecap:round;stroke-linejoin:round;stroke-miterlimit:4;stroke-dasharray:none;stroke-opacity:1"
         cx="62.927773"
         cy="74.470734"
         r="24.20299" />
      <path
         sodipodi:nodetypes="ccc"
         id="path14371"
         d="M 41.703611,76.704857 14.894147,100.16314 h 39.46949"
         style="fill:none;fill-rule:evenodd;stroke:#000000;stroke-width:10;stroke-linecap:butt;stroke-linejoin:miter;stroke-miterlimit:4;stroke-dasharray:none;stroke-opacity:1"
         inkscape:connector-curvature="0" />
    </g>
    <g
       transform="translate(1,5.28125)"
       id="g14354">
      <path
         sodipodi:nodetypes="ccccccsccccsccc"
         style="opacity:1;fill:#036f3a;fill-opacity:1;fill-rule:evenodd;stroke:none;stroke-width:1;stroke-linecap:round;stroke-linejoin:miter;stroke-miterlimit:4;stroke-dasharray:none;stroke-opacity:1"
         d="M 2.5,-0.03125 V 92.75 L 26,72.15625 v -45.6875 h 196 v 146.5 c 1e-5,55.19999 -42.8,99.99999 -98,100 -55.199988,0 -98,-44.80002 -98,-100 v -59.0625 H 2.5 v 64.0625 c 0,67.06799 54.432024,121.5 121.5,121.5 67.06801,0 121.50001,-54.43201 121.5,-121.5 v -178 z"
         id="rect1873"
         inkscape:connector-curvature="0" />
      <path
         style="fill:#000000;fill-opacity:1;fill-rule:evenodd;stroke:none;stroke-width:50;stroke-linecap:round;stroke-linejoin:round;stroke-miterlimit:4;stroke-opacity:1"
         d="m 185.6875,54.71875 c -6.70554,-0.129999 -13.34319,2.430189 -18.25,7.375 l -58.59375,59.09375 35.34375,35.34375 16,-16.125 v 60.25 c -0.12751,9.0159 4.61881,17.39234 12.40625,21.9375 7.78744,4.54516 17.40006,4.54516 25.1875,0 7.78744,-4.54516 12.53376,-12.9216 12.40625,-21.9375 V 79.71875 c 0.006,-10.132651 -6.10101,-19.262862 -15.46875,-23.125 -2.92742,-1.206918 -5.98328,-1.81591 -9.03125,-1.875 z"
         id="path2770"
         sodipodi:nodetypes="ccccccssccsc"
         inkscape:connector-curvature="0" />
      <path
         style="opacity:1;fill:#000000;fill-opacity:1;fill-rule:evenodd;stroke:none;stroke-width:9.92943;stroke-linecap:round;stroke-linejoin:round;stroke-miterlimit:4;stroke-dasharray:none;stroke-opacity:1"
         d="M 38.9375,83.963457 V 200.5 c 0,14.54484 11.861413,26.4375 26.40625,26.4375 14.544841,0 26.40625,-11.89266 26.40625,-26.4375 v -9.3125 c 9.23403,6.32513 20.40292,10.03125 32.40625,10.03125 16.13577,0 30.73062,-6.71334 41.1875,-17.46875 L 91.75,110.15625 V 82.327055 l -10,9.651268 V 105 c -9.352818,10.22879 -15.093748,23.81219 -15.09375,38.71875 0,14.91582 5.733015,28.51665 15.09375,38.75 V 200.5 c 0,9.17781 -7.228437,16.4375 -16.40625,16.4375 -9.177813,0 -16.40625,-7.25969 -16.40625,-16.4375 V 91.978323 c 0,0 -10,-8.014866 -10,-8.014866 z M 84.71875,117.28125 150.625,183.1875 c -1.84427,1.23748 -3.76568,2.36743 -5.78125,3.34375 l -33.3125,-33.3125 -7.09375,7.09375 29.875,29.84375 c -1.77808,0.38878 -3.59083,0.6608 -5.4375,0.84375 l -27.5625,-27.5625 -7.09375,7.09375 19.5625,19.5625 c -21.266624,-4.72825 -37.125,-23.66629 -37.125,-46.375 2e-6,-9.80301 2.994921,-18.88186 8.0625,-26.4375 z m 1.25,69.34375 c 0.423217,0.37719 0.847003,0.76024 1.28125,1.125 -0.434614,-0.36687 -0.857761,-0.7456 -1.28125,-1.125 z"
         id="path3644"
         sodipodi:nodetypes="ccsccscccccsccscccccccccccccsccsc"
         inkscape:connector-curvature="0" />
      <circle
         style="opacity:1;fill:none;fill-opacity:1;fill-rule:evenodd;stroke:#000000;stroke-width:10.2991;stroke-linecap:round;stroke-linejoin:round;stroke-miterlimit:4;stroke-dasharray:none;stroke-opacity:1"
         id="path9028"
         transform="matrix(0.970954,0,0,0.970954,4.103613,7.334278)"
         cx="62.927773"
         cy="74.470734"
         r="24.20299" />
      <path
         style="fill:none;fill-rule:evenodd;stroke:#000000;stroke-width:10;stroke-linecap:butt;stroke-linejoin:miter;stroke-miterlimit:4;stroke-dasharray:none;stroke-opacity:1"
         d="M 41.703611,76.704857 14.894147,100.16314 h 39.46949"
         id="path9915"
         sodipodi:nodetypes="ccc"
         inkscape:connector-curvature="0" />
    </g>
  </g>
</svg>
