<?xml version="1.0" encoding="UTF-8"?>
<!-- Created with Inkscape (http://www.inkscape.org/) -->
<svg id="svg2" width="750" height="500" version="1.0" xmlns="http://www.w3.org/2000/svg" xmlns:cc="http://creativecommons.org/ns#" xmlns:dc="http://purl.org/dc/elements/1.1/" xmlns:rdf="http://www.w3.org/1999/02/22-rdf-syntax-ns#">
 <metadata id="metadata7">
  <rdf:RDF>
   <cc:Work rdf:about="">
    <dc:format>image/svg+xml</dc:format>
    <dc:type rdf:resource="http://purl.org/dc/dcmitype/StillImage"/>
   </cc:Work>
  </rdf:RDF>
 </metadata>
 <rect id="rect2254-4" width="750" height="500" fill="#fff"/>
 <g id="g2180" transform="matrix(1.0017 0 0 1.0017 250.25 94.741)">
  <g id="g14361" transform="translate(1 5.2812)">
   <path id="path14363" d="m2.5-0.03125v178c0 67.068 54.432 121.5 121.5 121.5 67.068 0 121.5-54.432 121.5-121.5v-178z" fill="#fff" fill-rule="evenodd"/>
   <path id="path14365" d="m185.69 54.719c-6.7055-0.13-13.343 2.4302-18.25 7.375l-58.594 59.094 35.344 35.344 16-16.125v60.25c-0.12751 9.0159 4.6188 17.392 12.406 21.938s17.4 4.5452 25.188 0 12.534-12.922 12.406-21.938v-120.94c6e-3 -10.133-6.101-19.263-15.469-23.125-2.9274-1.2069-5.9833-1.8159-9.0312-1.875z" fill-rule="evenodd"/>
   <path id="path14367" d="m38.938 83.963v116.54c0 14.545 11.861 26.438 26.406 26.438 14.545 0 26.406-11.893 26.406-26.438v-9.3125c9.234 6.3251 20.403 10.031 32.406 10.031 16.136 0 30.731-6.7133 41.188-17.469l-73.594-73.594v-27.829l-10 9.6513v13.022c-9.3528 10.229-15.094 23.812-15.094 38.719 0 14.916 5.733 28.517 15.094 38.75v18.031c0 9.1778-7.2284 16.438-16.406 16.438s-16.406-7.2597-16.406-16.438v-108.52l-10-8.0149zm45.781 33.318 65.906 65.906c-1.8443 1.2375-3.7657 2.3674-5.7812 3.3438l-33.312-33.312-7.0938 7.0938 29.875 29.844c-1.7781 0.38878-3.5908 0.6608-5.4375 0.84375l-27.562-27.562-7.0938 7.0938 19.562 19.562c-21.267-4.7282-37.125-23.666-37.125-46.375 2e-6 -9.803 2.9949-18.882 8.0625-26.438zm1.25 69.344c0.42322 0.37719 0.847 0.76024 1.2812 1.125-0.43461-0.36687-0.85776-0.7456-1.2812-1.125z" fill-rule="evenodd"/>
   <circle id="path14369" transform="matrix(.97095 0 0 .97095 4.1036 7.3343)" cx="62.928" cy="74.471" r="24.203" fill="none" stroke="#000" stroke-linecap="round" stroke-linejoin="round" stroke-width="10.299"/>
   <path id="path14371" d="m41.704 76.705-26.809 23.458h39.469" fill="none" stroke="#000" stroke-width="10"/>
  </g>
  <g id="g14354" transform="translate(1 5.2812)">
   <path id="rect1873" d="m2.5-0.03125v92.781l23.5-20.594v-45.688h196v146.5c1e-5 55.2-42.8 100-98 100-55.2 0-98-44.8-98-100v-59.062h-23.5v64.062c0 67.068 54.432 121.5 121.5 121.5 67.068 0 121.5-54.432 121.5-121.5v-178z" fill="#036f3a" fill-rule="evenodd"/>
   <path id="path2770" d="m185.69 54.719c-6.7055-0.13-13.343 2.4302-18.25 7.375l-58.594 59.094 35.344 35.344 16-16.125v60.25c-0.12751 9.0159 4.6188 17.392 12.406 21.938s17.4 4.5452 25.188 0 12.534-12.922 12.406-21.938v-120.94c6e-3 -10.133-6.101-19.263-15.469-23.125-2.9274-1.2069-5.9833-1.8159-9.0312-1.875z" fill-rule="evenodd"/>
   <path id="path3644" d="m38.938 83.963v116.54c0 14.545 11.861 26.438 26.406 26.438 14.545 0 26.406-11.893 26.406-26.438v-9.3125c9.234 6.3251 20.403 10.031 32.406 10.031 16.136 0 30.731-6.7133 41.188-17.469l-73.594-73.594v-27.829l-10 9.6513v13.022c-9.3528 10.229-15.094 23.812-15.094 38.719 0 14.916 5.733 28.517 15.094 38.75v18.031c0 9.1778-7.2284 16.438-16.406 16.438s-16.406-7.2597-16.406-16.438v-108.52l-10-8.0149zm45.781 33.318 65.906 65.906c-1.8443 1.2375-3.7657 2.3674-5.7812 3.3438l-33.312-33.312-7.0938 7.0938 29.875 29.844c-1.7781 0.38878-3.5908 0.6608-5.4375 0.84375l-27.562-27.562-7.0938 7.0938 19.562 19.562c-21.267-4.7282-37.125-23.666-37.125-46.375 2e-6 -9.803 2.9949-18.882 8.0625-26.438zm1.25 69.344c0.42322 0.37719 0.847 0.76024 1.2812 1.125-0.43461-0.36687-0.85776-0.7456-1.2812-1.125z" fill-rule="evenodd"/>
   <circle id="path9028" transform="matrix(.97095 0 0 .97095 4.1036 7.3343)" cx="62.928" cy="74.471" r="24.203" fill="none" stroke="#000" stroke-linecap="round" stroke-linejoin="round" stroke-width="10.299"/>
   <path id="path9915" d="m41.704 76.705-26.809 23.458h39.469" fill="none" stroke="#000" stroke-width="10"/>
  </g>
 </g>
</svg>
