<?xml version="1.0" encoding="UTF-8" standalone="no"?>
<svg xmlns="http://www.w3.org/2000/svg" width="1190.5" height="821.33002">
  <g transform="translate(0 -231.03218)">
    <path fill="#fee46e" fill-rule="evenodd" stroke="#9e8739" stroke-width="3" d="M1.5 232.52917H1189v818.33301H1.5z"/>
    <path fill="#e40544" fill-rule="evenodd" stroke="#9e8739" stroke-width="3" d="M1.5 252.52887H1169v778.33331H1.5z"/>
    <path fill="#fff" d="M756.3703 806.24098c0 17.673-14.3269 32-32 32h-108c-17.6731 0-32 14.3268-32 32 0-17.6732-14.3269-32-32-32h-110c-17.6731 0-32-14.327-32-32V409.24085h346z"/>
    <path fill="#1e5da8" d="M756.4953 806.61598c0 17.673-14.3269 32-32 32h-108c-17.6731 0-32 14.3268-32 32 0-17.6732-14.3269-32-32-32h-110c-17.6731 0-32-14.327-32-32v-73.925l346-253.14424z"/>
    <path fill="#78b82a" d="m409.3006 682.29138 272.5-272.50003 74.3553.34138 1.3249 141.76736-286.7857 286.78579-33.2704-.2098c-18.5775-2.4438-23.0096-14.532-27.2536-26.7486z"/>
    <path fill="none" stroke="#9e8739" stroke-width="6" d="M758.25 808.19528c0 17.673-14.3269 31.9999-32 31.9999h-108c-17.6731 0-32 14.3268-32 32 0-17.6732-14.3269-32-32-32h-110c-17.6731 0-32-14.3269-32-31.9999V411.19515h346z"/>
    <path fill="#fee46e" stroke="#9e8739" stroke-linecap="round" stroke-linejoin="round" stroke-width="1.5" d="M2.7503 250.61218v-15.8507c-.013-.9016.4609-1.7402 1.2396-2.1947.7788-.4545 1.7419-.4545 2.5207 0 .7787.4545 1.2524 1.2931 1.2397 2.1947v15.8507h-5zm7.2204 0v-15.8507c-.013-.9016.461-1.7402 1.2397-2.1947.7788-.4545 1.7419-.4545 2.5206 0 .7788.4545 1.2525 1.2931 1.2397 2.1947v15.8507h-5zm7.2205 0v-15.8507c-.013-.9016.4609-1.7402 1.2397-2.1947.7787-.4545 1.7419-.4545 2.5206 0 .7788.4545 1.2525 1.2931 1.2397 2.1947v15.8507h-5zm7.2205 0v-15.8507c-.013-.9016.4609-1.7402 1.2397-2.1947.7787-.4545 1.7418-.4545 2.5206 0 .7787.4545 1.2524 1.2931 1.2397 2.1947v15.8507h-5zm7.2204 0v-15.8507c-.013-.9016.461-1.7402 1.2397-2.1947.7788-.4545 1.7419-.4545 2.5207 0 .7787.4545 1.2524 1.2931 1.2396 2.1947v15.8507h-5zm7.2205 0v-15.8507c-.013-.9016.461-1.7402 1.2397-2.1947.7787-.4545 1.7419-.4545 2.5206 0 .7788.4545 1.2525 1.2931 1.2397 2.1947v15.8507h-5zm7.2205 0v-15.8507c-.013-.9016.4609-1.7402 1.2397-2.1947.7787-.4545 1.7419-.4545 2.5206 0 .7788.4545 1.2524 1.2931 1.2397 2.1947v15.8507h-5zm7.2205 0v-15.8507c-.013-.9016.4609-1.7402 1.2397-2.1947.7787-.4545 1.7418-.4545 2.5206 0 .7787.4545 1.2524 1.2931 1.2397 2.1947v15.8507h-5zm7.2204 0v-15.8507c-.013-.9016.461-1.7402 1.2397-2.1947.7788-.4545 1.7419-.4545 2.5207 0 .7787.4545 1.2524 1.2931 1.2396 2.1947v15.8507h-5zm7.2205 0v-15.8507c-.013-.9016.461-1.7402 1.2397-2.1947.7787-.4545 1.7419-.4545 2.5206 0 .7788.4545 1.2525 1.2931 1.2397 2.1947v15.8507h-5zm7.2205 0v-15.8507c-.013-.9016.4609-1.7402 1.2397-2.1947.7787-.4545 1.7419-.4545 2.5206 0s1.2524 1.2931 1.2397 2.1947v15.8507h-5zm7.2205 0v-15.8507c-.013-.9016.4609-1.7402 1.2396-2.1947.7788-.4545 1.7419-.4545 2.5207 0 .7787.4545 1.2524 1.2931 1.2397 2.1947v15.8507h-5zm7.2204 0v-15.8507c-.013-.9016.461-1.7402 1.2397-2.1947.7788-.4545 1.7419-.4545 2.5207 0 .7787.4545 1.2524 1.2931 1.2396 2.1947v15.8507h-5zm7.2205 0v-15.8507c-.013-.9016.461-1.7402 1.2397-2.1947.7787-.4545 1.7419-.4545 2.5206 0 .7788.4545 1.2525 1.2931 1.2397 2.1947v15.8507h-5zm7.2205 0v-15.8507c-.013-.9016.4609-1.7402 1.2397-2.1947.7787-.4545 1.7419-.4545 2.5206 0s1.2524 1.2931 1.2397 2.1947v15.8507h-5zm7.2205 0v-15.8507c-.013-.9016.4609-1.7402 1.2396-2.1947.7788-.4545 1.7419-.4545 2.5207 0 .7787.4545 1.2524 1.2931 1.2397 2.1947v15.8507h-5zm7.2204 0v-15.8507c-.013-.9016.461-1.7402 1.2397-2.1947.7788-.4545 1.7419-.4545 2.5207 0 .7787.4545 1.2524 1.2931 1.2396 2.1947v15.8507h-5zm7.2205 0v-15.8507c-.013-.9016.4609-1.7402 1.2397-2.1947.7787-.4545 1.7419-.4545 2.5206 0 .7788.4545 1.2525 1.2931 1.2397 2.1947v15.8507h-5zm7.2205 0v-15.8507c-.013-.9016.4609-1.7402 1.2397-2.1947.7787-.4545 1.7419-.4545 2.5206 0s1.2524 1.2931 1.2397 2.1947v15.8507h-5zm7.2205 0v-15.8507c-.013-.9016.4609-1.7402 1.2396-2.1947.7788-.4545 1.7419-.4545 2.5207 0 .7787.4545 1.2524 1.2931 1.2397 2.1947v15.8507h-5zm7.2204 0v-15.8507c-.013-.9016.461-1.7402 1.2397-2.1947.7787-.4545 1.7419-.4545 2.5206 0 .7788.4545 1.2525 1.2931 1.2397 2.1947v15.8507h-5zm7.2205 0v-15.8507c-.013-.9016.4609-1.7402 1.2397-2.1947.7787-.4545 1.7419-.4545 2.5206 0 .7788.4545 1.2525 1.2931 1.2397 2.1947v15.8507h-5zm7.2205 0v-15.8507c-.013-.9016.4609-1.7402 1.2397-2.1947.7787-.4545 1.7418-.4545 2.5206 0 .7787.4545 1.2524 1.2931 1.2397 2.1947v15.8507h-5zm7.2204 0v-15.8507c-.013-.9016.461-1.7402 1.2397-2.1947.7788-.4545 1.7419-.4545 2.5207 0 .7787.4545 1.2524 1.2931 1.2396 2.1947v15.8507h-5zm7.2205 0v-15.8507c-.013-.9016.461-1.7402 1.2397-2.1947.7788-.4545 1.7419-.4545 2.5206 0 .7788.4545 1.2525 1.2931 1.2397 2.1947v15.8507h-5zm7.2205 0v-15.8507c-.013-.9016.4609-1.7402 1.2397-2.1947.7787-.4545 1.7419-.4545 2.5206 0 .7788.4545 1.2524 1.2931 1.2397 2.1947v15.8507h-5zm7.2205 0v-15.8507c-.013-.9016.4609-1.7402 1.2396-2.1947.7788-.4545 1.7419-.4545 2.5207 0 .7787.4545 1.2524 1.2931 1.2397 2.1947v15.8507h-5zm7.2204 0v-15.8507c-.013-.9016.461-1.7402 1.2397-2.1947.7788-.4545 1.7419-.4545 2.5207 0 .7787.4545 1.2524 1.2931 1.2396 2.1947v15.8507h-5zm7.2205 0v-15.8507c-.013-.9016.4609-1.7402 1.2397-2.1947.7787-.4545 1.7419-.4545 2.5206 0 .7788.4545 1.2525 1.2931 1.2397 2.1947v15.8507h-5zm7.2205 0v-15.8507c-.013-.9016.4609-1.7402 1.2397-2.1947.7787-.4545 1.7419-.4545 2.5206 0s1.2524 1.2931 1.2397 2.1947v15.8507h-5zm7.2205 0v-15.8507c-.013-.9016.4609-1.7402 1.2397-2.1947.7787-.4545 1.7418-.4545 2.5206 0 .7787.4545 1.2524 1.2931 1.2397 2.1947v15.8507h-5zm7.2204 0v-15.8507c-.013-.9016.461-1.7402 1.2397-2.1947.7788-.4545 1.7419-.4545 2.5207 0 .7787.4545 1.2524 1.2931 1.2396 2.1947v15.8507h-5zm7.2205 0v-15.8507c-.013-.9016.4609-1.7402 1.2397-2.1947.7787-.4545 1.7419-.4545 2.5206 0 .7788.4545 1.2525 1.2931 1.2397 2.1947v15.8507h-5zm7.2205 0v-15.8507c-.013-.9016.4609-1.7402 1.2397-2.1947.7787-.4545 1.7419-.4545 2.5206 0s1.2524 1.2931 1.2397 2.1947v15.8507h-5zm7.2205 0v-15.8507c-.013-.9016.4609-1.7402 1.2397-2.1947.7787-.4545 1.7418-.4545 2.5206 0 .7787.4545 1.2524 1.2931 1.2397 2.1947v15.8507h-5zm7.2204 0v-15.8507c-.013-.9016.461-1.7402 1.2397-2.1947.7788-.4545 1.7419-.4545 2.5207 0 .7787.4545 1.2524 1.2931 1.2396 2.1947v15.8507h-5zm7.2205 0v-15.8507c-.013-.9016.461-1.7402 1.2397-2.1947.7787-.4545 1.7419-.4545 2.5206 0 .7788.4545 1.2525 1.2931 1.2397 2.1947v15.8507h-5zm7.2205 0v-15.8507c-.013-.9016.4609-1.7402 1.2397-2.1947.7787-.4545 1.7419-.4545 2.5206 0s1.2524 1.2931 1.2397 2.1947v15.8507h-5zm7.2204 0v-15.8507c-.013-.9016.461-1.7402 1.2397-2.1947.7788-.4545 1.7419-.4545 2.5207 0 .7787.4545 1.2524 1.2931 1.2396 2.1947v15.8507h-5zm7.2206 0v-15.8507c-.013-.9016.4609-1.7402 1.2396-2.1947.7788-.4545 1.7419-.4545 2.5207 0 .7787.4545 1.2524 1.2931 1.2396 2.1947v15.8507h-5zm7.2204 0v-15.8507c-.013-.9016.4609-1.7402 1.2397-2.1947.7787-.4545 1.7419-.4545 2.5206 0 .7788.4545 1.2524 1.2931 1.2397 2.1947v15.8507h-5zm7.2205 0v-15.8507c-.013-.9016.4609-1.7402 1.2397-2.1947.7787-.4545 1.7418-.4545 2.5206 0 .7787.4545 1.2524 1.2931 1.2397 2.1947v15.8507h-5zm7.2205 0v-15.8507c-.013-.9016.4609-1.7402 1.2396-2.1947.7788-.4545 1.7419-.4545 2.5207 0 .7787.4545 1.2524 1.2931 1.2397 2.1947v15.8507h-5zm7.2204 0v-15.8507c-.013-.9016.461-1.7402 1.2397-2.1947.7787-.4545 1.7419-.4545 2.5206 0 .7788.4545 1.2525 1.2931 1.2397 2.1947v15.8507h-5zm7.2205 0v-15.8507c-.013-.9016.4609-1.7402 1.2397-2.1947.7787-.4545 1.7419-.4545 2.5206 0 .7788.4545 1.2525 1.2931 1.2397 2.1947v15.8507h-5zm7.2205 0v-15.8507c-.013-.9016.4609-1.7402 1.2397-2.1947.7787-.4545 1.7419-.4545 2.5206 0s1.2524 1.2931 1.2397 2.1947v15.8507h-5zm7.2204 0v-15.8507c-.013-.9016.461-1.7402 1.2397-2.1947.7788-.4545 1.7419-.4545 2.5207 0 .7787.4545 1.2524 1.2931 1.2396 2.1947v15.8507h-5zm7.2205 0v-15.8507c-.013-.9016.461-1.7402 1.2397-2.1947.7787-.4545 1.7419-.4545 2.5206 0 .7788.4545 1.2525 1.2931 1.2397 2.1947v15.8507h-5zm7.2205 0v-15.8507c-.013-.9016.4609-1.7402 1.2397-2.1947.7787-.4545 1.7419-.4545 2.5206 0s1.2524 1.2931 1.2397 2.1947v15.8507h-5zm7.2205 0v-15.8507c-.013-.9016.4609-1.7402 1.2397-2.1947.7787-.4545 1.7419-.4545 2.5206 0s1.2524 1.2931 1.2397 2.1947v15.8507h-5zm7.2204 0v-15.8507c-.013-.9016.461-1.7402 1.2397-2.1947.7788-.4545 1.7419-.4545 2.5207 0 .7787.4545 1.2524 1.2931 1.2396 2.1947v15.8507h-5zm7.2205 0v-15.8507c-.013-.9016.4609-1.7402 1.2397-2.1947.7787-.4545 1.7419-.4545 2.5206 0 .7788.4545 1.2525 1.2931 1.2397 2.1947v15.8507h-5zm7.2205 0v-15.8507c-.013-.9016.4609-1.7402 1.2397-2.1947.7787-.4545 1.7419-.4545 2.5206 0 .7788.4545 1.2524 1.2931 1.2397 2.1947v15.8507h-5zm7.2205 0v-15.8507c-.013-.9016.4609-1.7402 1.2397-2.1947.7787-.4545 1.7418-.4545 2.5206 0 .7787.4545 1.2524 1.2931 1.2397 2.1947v15.8507h-5zm7.2204 0v-15.8507c-.013-.9016.461-1.7402 1.2397-2.1947.7788-.4545 1.7419-.4545 2.5206 0 .7788.4545 1.2525 1.2931 1.2397 2.1947v15.8507h-5zm7.2205 0v-15.8507c-.013-.9016.4609-1.7402 1.2397-2.1947.7787-.4545 1.7419-.4545 2.5206 0 .7788.4545 1.2525 1.2931 1.2397 2.1947v15.8507h-5zm7.2205 0v-15.8507c-.013-.9016.4609-1.7402 1.2397-2.1947.7787-.4545 1.7419-.4545 2.5206 0s1.2524 1.2931 1.2397 2.1947v15.8507h-5zm7.2204 0v-15.8507c-.013-.9016.461-1.7402 1.2397-2.1947.7788-.4545 1.7419-.4545 2.5207 0 .7787.4545 1.2524 1.2931 1.2396 2.1947v15.8507h-5zm7.2205 0v-15.8507c-.013-.9016.461-1.7402 1.2397-2.1947.7788-.4545 1.7419-.4545 2.5206 0 .7788.4545 1.2525 1.2931 1.2397 2.1947v15.8507h-5zm7.2205 0v-15.8507c-.013-.9016.461-1.7402 1.2397-2.1947.7787-.4545 1.7419-.4545 2.5206 0 .7788.4545 1.2525 1.2931 1.2397 2.1947v15.8507h-5zm7.2205 0v-15.8507c-.013-.9016.4609-1.7402 1.2397-2.1947.7787-.4545 1.7419-.4545 2.5206 0 .7788.4545 1.2524 1.2931 1.2397 2.1947v15.8507h-5zm7.2204 0v-15.8507c-.013-.9016.461-1.7402 1.2397-2.1947.7788-.4545 1.7419-.4545 2.5207 0 .7787.4545 1.2524 1.2931 1.2396 2.1947v15.8507h-5zm7.2205 0v-15.8507c-.013-.9016.461-1.7402 1.2397-2.1947.7787-.4545 1.7419-.4545 2.5206 0 .7788.4545 1.2525 1.2931 1.2397 2.1947v15.8507h-5zm7.2205 0v-15.8507c-.013-.9016.461-1.7402 1.2397-2.1947.7787-.4545 1.7419-.4545 2.5206 0 .7788.4545 1.2525 1.2931 1.2397 2.1947v15.8507h-5zm7.2205 0v-15.8507c-.013-.9016.4609-1.7402 1.2397-2.1947.7787-.4545 1.7418-.4545 2.5206 0 .7787.4545 1.2524 1.2931 1.2397 2.1947v15.8507h-5zm7.2204 0v-15.8507c-.013-.9016.461-1.7402 1.2397-2.1947.7788-.4545 1.7419-.4545 2.5206 0 .7788.4545 1.2525 1.2931 1.2397 2.1947v15.8507h-5zm7.2205 0v-15.8507c-.013-.9016.461-1.7402 1.2397-2.1947.7787-.4545 1.7419-.4545 2.5206 0 .7788.4545 1.2525 1.2931 1.2397 2.1947v15.8507h-5zm7.2205 0v-15.8507c-.013-.9016.4609-1.7402 1.2397-2.1947.7787-.4545 1.7419-.4545 2.5206 0 .7788.4545 1.2525 1.2931 1.2397 2.1947v15.8507h-5zm7.2205 0v-15.8507c-.013-.9016.4609-1.7402 1.2396-2.1947.7788-.4545 1.7419-.4545 2.5207 0 .7787.4545 1.2524 1.2931 1.2397 2.1947v15.8507h-5zm7.2204 0v-15.8507c-.013-.9016.461-1.7402 1.2397-2.1947.7788-.4545 1.7419-.4545 2.5207 0 .7787.4545 1.2524 1.2931 1.2396 2.1947v15.8507h-5zm7.2205 0v-15.8507c-.013-.9016.461-1.7402 1.2397-2.1947.7788-.4545 1.7419-.4545 2.5207 0 .7787.4545 1.2524 1.2931 1.2396 2.1947v15.8507h-5zm7.2205 0v-15.8507c-.013-.9016.461-1.7402 1.2397-2.1947.7787-.4545 1.7419-.4545 2.5206 0 .7788.4545 1.2525 1.2931 1.2397 2.1947v15.8507h-5zm7.2205 0v-15.8507c-.013-.9016.4609-1.7402 1.2396-2.1947.7788-.4545 1.7419-.4545 2.5207 0 .7787.4545 1.2524 1.2931 1.2397 2.1947v15.8507h-5zm7.2205 0v-15.8507c-.013-.9016.4609-1.7402 1.2397-2.1947.7787-.4545 1.7418-.4545 2.5206 0 .7787.4545 1.2524 1.2931 1.2397 2.1947v15.8507h-5zm7.2204 0v-15.8507c-.013-.9016.461-1.7402 1.2397-2.1947.7787-.4545 1.7419-.4545 2.5206 0 .7788.4545 1.2525 1.2931 1.2397 2.1947v15.8507h-5zm7.2205 0v-15.8507c-.013-.9016.4609-1.7402 1.2397-2.1947.7787-.4545 1.7419-.4545 2.5206 0 .7788.4545 1.2525 1.2931 1.2397 2.1947v15.8507h-5zm7.2205 0v-15.8507c-.013-.9016.4609-1.7402 1.2396-2.1947.7788-.4545 1.7419-.4545 2.5207 0 .7787.4545 1.2524 1.2931 1.2397 2.1947v15.8507h-5zm7.2204 0v-15.8507c-.013-.9016.4609-1.7402 1.2397-2.1947.7787-.4545 1.7419-.4545 2.5206 0 .7788.4545 1.2525 1.2931 1.2397 2.1947v15.8507h-5zm7.2205 0v-15.8507c-.013-.9016.461-1.7402 1.2397-2.1947.7787-.4545 1.7419-.4545 2.5206 0 .7788.4545 1.2525 1.2931 1.2397 2.1947v15.8507h-5zm7.2205 0v-15.8507c-.013-.9016.4609-1.7402 1.2397-2.1947.7787-.4545 1.7418-.4545 2.5206 0 .7787.4545 1.2524 1.2931 1.2397 2.1947v15.8507h-5zm7.2205 0v-15.8507c-.013-.9016.4609-1.7402 1.2397-2.1947.7787-.4545 1.7419-.4545 2.5206 0s1.2524 1.2931 1.2397 2.1947v15.8507h-5zm7.2204 0v-15.8507c-.013-.9016.4609-1.7402 1.2397-2.1947.7787-.4545 1.7419-.4545 2.5206 0 .7788.4545 1.2525 1.2931 1.2397 2.1947v15.8507h-5zm7.2205 0v-15.8507c-.013-.9016.461-1.7402 1.2397-2.1947.7787-.4545 1.7419-.4545 2.5206 0 .7788.4545 1.2525 1.2931 1.2397 2.1947v15.8507h-5zm7.2205 0v-15.8507c-.013-.9016.4609-1.7402 1.2396-2.1947.7788-.4545 1.7419-.4545 2.5207 0 .7787.4545 1.2524 1.2931 1.2397 2.1947v15.8507h-5zm7.2204 0v-15.8507c-.013-.9016.461-1.7402 1.2397-2.1947.7788-.4545 1.7419-.4545 2.5207 0 .7787.4545 1.2524 1.2931 1.2396 2.1947v15.8507h-5zm7.2205 0v-15.8507c-.013-.9016.4609-1.7402 1.2397-2.1947.7787-.4545 1.7419-.4545 2.5206 0 .7788.4545 1.2524 1.2931 1.2397 2.1947v15.8507h-5zm7.2205 0v-15.8507c-.013-.9016.4609-1.7402 1.2397-2.1947.7787-.4545 1.7419-.4545 2.5206 0 .7788.4545 1.2525 1.2931 1.2397 2.1947v15.8507h-5zm7.2204 0v-15.8507c-.013-.9016.461-1.7402 1.2397-2.1947.7788-.4545 1.7419-.4545 2.5207 0 .7787.4545 1.2524 1.2931 1.2396 2.1947v15.8507h-5zm7.2206 0v-15.8507c-.013-.9016.4609-1.7402 1.2396-2.1947.7788-.4545 1.7419-.4545 2.5207 0 .7787.4545 1.2524 1.2931 1.2397 2.1947v15.8507h-5zm7.2204 0v-15.8507c-.013-.9016.4609-1.7402 1.2397-2.1947.7787-.4545 1.7419-.4545 2.5206 0 .7788.4545 1.2524 1.2931 1.2397 2.1947v15.8507h-5zm7.2205 0v-15.8507c-.013-.9016.461-1.7402 1.2397-2.1947.7787-.4545 1.7419-.4545 2.5206 0 .7788.4545 1.2525 1.2931 1.2397 2.1947v15.8507h-5zm7.2205 0v-15.8507c-.013-.9016.4609-1.7402 1.2396-2.1947.7788-.4545 1.7419-.4545 2.5207 0 .7787.4545 1.2524 1.2931 1.2397 2.1947v15.8507h-5zm7.2204 0v-15.8507c-.013-.9016.4609-1.7402 1.2397-2.1947.7787-.4545 1.7419-.4545 2.5206 0 .7788.4545 1.2525 1.2931 1.2397 2.1947v15.8507h-5zm7.2205 0v-15.8507c-.013-.9016.4609-1.7402 1.2397-2.1947.7787-.4545 1.7419-.4545 2.5206 0 .7788.4545 1.2524 1.2931 1.2397 2.1947v15.8507h-5zm7.2205 0v-15.8507c-.013-.9016.4609-1.7402 1.2396-2.1947.7788-.4545 1.7419-.4545 2.5207 0 .7787.4545 1.2524 1.2931 1.2397 2.1947v15.8507h-5zm7.2205 0v-15.8507c-.013-.9016.4609-1.7402 1.2396-2.1947.7788-.4545 1.7419-.4545 2.5207 0 .7787.4545 1.2524 1.2931 1.2397 2.1947v15.8507h-5zm7.2204 0v-15.8507c-.013-.9016.461-1.7402 1.2397-2.1947.7787-.4545 1.7419-.4545 2.5206 0 .7788.4545 1.2525 1.2931 1.2397 2.1947v15.8507h-5zm7.2205 0v-15.8507c-.013-.9016.461-1.7402 1.2397-2.1947.7787-.4545 1.7419-.4545 2.5206 0 .7788.4545 1.2525 1.2931 1.2397 2.1947v15.8507h-5zm7.2205 0v-15.8507c-.013-.9016.4609-1.7402 1.2397-2.1947.7787-.4545 1.7418-.4545 2.5206 0 .7787.4545 1.2524 1.2931 1.2397 2.1947v15.8507h-5zm7.2204 0v-15.8507c-.013-.9016.461-1.7402 1.2397-2.1947.7788-.4545 1.7419-.4545 2.5207 0 .7787.4545 1.2524 1.2931 1.2396 2.1947v15.8507h-5zm7.2205 0v-15.8507c-.013-.9016.461-1.7402 1.2397-2.1947.7788-.4545 1.7419-.4545 2.5207 0 .7787.4545 1.2524 1.2931 1.2396 2.1947v15.8507h-5zm7.2205 0v-15.8507c-.013-.9016.461-1.7402 1.2397-2.1947.7787-.4545 1.7419-.4545 2.5206 0 .7788.4545 1.2525 1.2931 1.2397 2.1947v15.8507h-5zm7.2205 0v-15.8507c-.013-.9016.4609-1.7402 1.2397-2.1947.7787-.4545 1.7418-.4545 2.5206 0 .7787.4545 1.2524 1.2931 1.2397 2.1947v15.8507h-5zm7.2204 0v-15.8507c-.013-.9016.461-1.7402 1.2397-2.1947.7787-.4545 1.7419-.4545 2.5206 0 .7788.4545 1.2525 1.2931 1.2397 2.1947v15.8507h-5zm7.2205 0v-15.8507c-.013-.9016.461-1.7402 1.2397-2.1947.7788-.4545 1.7419-.4545 2.5206 0 .7788.4545 1.2525 1.2931 1.2397 2.1947v15.8507h-5zm7.2205 0v-15.8507c-.013-.9016.4609-1.7402 1.2397-2.1947.7787-.4545 1.7419-.4545 2.5206 0 .7788.4545 1.2524 1.2931 1.2397 2.1947v15.8507h-5zm7.2205 0v-15.8507c-.013-.9016.4609-1.7402 1.2397-2.1947.7787-.4545 1.7419-.4545 2.5206 0 .7788.4545 1.2524 1.2931 1.2397 2.1947v15.8507h-5zm7.2204 0v-15.8507c-.013-.9016.461-1.7402 1.2397-2.1947.7787-.4545 1.7419-.4545 2.5206 0 .7788.4545 1.2525 1.2931 1.2397 2.1947v15.8507h-5zm7.2205 0v-15.8507c-.013-.9016.461-1.7402 1.2397-2.1947.7788-.4545 1.7419-.4545 2.5207 0 .7787.4545 1.2524 1.2931 1.2396 2.1947v15.8507h-5zm7.2205 0v-15.8507c-.013-.9016.4609-1.7402 1.2397-2.1947.7787-.4545 1.7419-.4545 2.5206 0s1.2524 1.2931 1.2397 2.1947v15.8507h-5zm7.2204 0v-15.8507c-.013-.9016.461-1.7402 1.2397-2.1947.7788-.4545 1.7419-.4545 2.5207 0 .7787.4545 1.2524 1.2931 1.2396 2.1947v15.8507h-5zm7.2206 0v-15.8507c-.013-.9016.4609-1.7402 1.2396-2.1947.7788-.4545 1.7419-.4545 2.5207 0 .7787.4545 1.2524 1.2931 1.2397 2.1947v15.8507h-5zm7.2204 0v-15.8507c-.013-.9016.4609-1.7402 1.2397-2.1947.7787-.4545 1.7419-.4545 2.5206 0 .7788.4545 1.2524 1.2931 1.2397 2.1947v15.8507h-5zm7.2205 0v-15.8507c-.013-.9016.4609-1.7402 1.2397-2.1947.7787-.4545 1.7419-.4545 2.5206 0 .7788.4545 1.2524 1.2931 1.2397 2.1947v15.8507h-5zm7.2204 0v-15.8507c-.013-.9016.461-1.7402 1.2397-2.1947.7788-.4545 1.7419-.4545 2.5207 0 .7787.4545 1.2524 1.2931 1.2396 2.1947v15.8507h-5zm7.2206 0v-15.8507c-.013-.9016.4609-1.7402 1.2396-2.1947.7788-.4545 1.7419-.4545 2.5207 0 .7787.4545 1.2524 1.2931 1.2397 2.1947v15.8507h-5zm7.2204 0v-15.8507c-.013-.9016.461-1.7402 1.2397-2.1947.7788-.4545 1.7419-.4545 2.5206 0 .7788.4545 1.2525 1.2931 1.2397 2.1947v15.8507h-5zm7.2205 0v-15.8507c-.013-.9016.4609-1.7402 1.2397-2.1947.7787-.4545 1.7419-.4545 2.5206 0s1.2524 1.2931 1.2397 2.1947v15.8507h-5zm7.2204 0v-15.8507c-.013-.9016.461-1.7402 1.2397-2.1947.7788-.4545 1.7419-.4545 2.5207 0 .7787.4545 1.2524 1.2931 1.2396 2.1947v15.8507h-5zm7.2205 0v-15.8507c-.013-.9016.461-1.7402 1.2397-2.1947.7787-.4545 1.7419-.4545 2.5206 0 .7788.4545 1.2525 1.2931 1.2397 2.1947v15.8507h-5zm7.2205 0v-15.8507c-.013-.9016.4609-1.7402 1.2397-2.1947.7787-.4545 1.7419-.4545 2.5206 0s1.2524 1.2931 1.2397 2.1947v15.8507h-5zm7.2205 0v-15.8507c-.013-.9016.4609-1.7402 1.2397-2.1947.7787-.4545 1.7419-.4545 2.5206 0s1.2524 1.2931 1.2397 2.1947v15.8507h-5zm7.2204 0v-15.8507c-.013-.9016.461-1.7402 1.2397-2.1947.7788-.4545 1.7419-.4545 2.5207 0 .7787.4545 1.2524 1.2931 1.2396 2.1947v15.8507h-5zm7.2205 0v-15.8507c-.013-.9016.4609-1.7402 1.2397-2.1947.7787-.4545 1.7419-.4545 2.5206 0 .7788.4545 1.2524 1.2931 1.2397 2.1947v15.8507h-5zm7.2205 0v-15.8507c-.013-.9016.4609-1.7402 1.2397-2.1947.7787-.4545 1.7419-.4545 2.5206 0s1.2524 1.2931 1.2397 2.1947v15.8507h-5zm7.2228-.00757v-15.8507c-.013-.9016.4609-1.7402 1.2396-2.1947.7788-.4545 1.7419-.4545 2.5207 0 .7787.4545 1.2524 1.2931 1.2397 2.1947v15.8507h-5zm7.2204 0v-15.8507c-.013-.9016.461-1.7402 1.2397-2.1947.7788-.4545 1.7419-.4545 2.5206 0 .7788.4545 1.2525 1.2931 1.2397 2.1947v15.8507h-5zm7.2205 0v-15.8507c-.013-.9016.4609-1.7402 1.2397-2.1947.7787-.4545 1.7419-.4545 2.5206 0 .7788.4545 1.2525 1.2931 1.2397 2.1947v15.8507h-5zm7.2205 0v-15.8507c-.013-.9016.4609-1.7402 1.2397-2.1947.7787-.4545 1.7418-.4545 2.5206 0 .7787.4545 1.2524 1.2931 1.2397 2.1947v15.8507h-5zm7.2204 0v-15.8507c-.013-.9016.461-1.7402 1.2397-2.1947.7788-.4545 1.7419-.4545 2.5207 0 .7787.4545 1.2524 1.2931 1.2396 2.1947v15.8507h-5zm7.2205 0v-15.8507c-.013-.9016.461-1.7402 1.2397-2.1947.7787-.4545 1.7419-.4545 2.5206 0 .7788.4545 1.2525 1.2931 1.2397 2.1947v15.8507h-5zm7.2205 0v-15.8507c-.013-.9016.4609-1.7402 1.2397-2.1947.7787-.4545 1.7419-.4545 2.5206 0 .7788.4545 1.2524 1.2931 1.2397 2.1947v15.8507h-5zm7.2205 0v-15.8507c-.013-.9016.4609-1.7402 1.2397-2.1947.7787-.4545 1.7418-.4545 2.5206 0 .7787.4545 1.2524 1.2931 1.2397 2.1947v15.8507h-5zm7.2204 0v-15.8507c-.013-.9016.461-1.7402 1.2397-2.1947.7788-.4545 1.7419-.4545 2.5207 0 .7787.4545 1.2524 1.2931 1.2396 2.1947v15.8507h-5zm7.2205 0v-15.8507c-.013-.9016.461-1.7402 1.2397-2.1947.7787-.4545 1.7419-.4545 2.5206 0 .7788.4545 1.2525 1.2931 1.2397 2.1947v15.8507h-5zm7.2205 0v-15.8507c-.013-.9016.4609-1.7402 1.2397-2.1947.7787-.4545 1.7419-.4545 2.5206 0s1.2524 1.2931 1.2397 2.1947v15.8507h-5zm7.2205 0v-15.8507c-.013-.9016.4609-1.7402 1.2396-2.1947.7788-.4545 1.7419-.4545 2.5207 0 .7787.4545 1.2524 1.2931 1.2397 2.1947v15.8507h-5zm7.2204 0v-15.8507c-.013-.9016.461-1.7402 1.2397-2.1947.7788-.4545 1.7419-.4545 2.5207 0 .7787.4545 1.2524 1.2931 1.2396 2.1947v15.8507h-5zm7.2205 0v-15.8507c-.013-.9016.461-1.7402 1.2397-2.1947.7787-.4545 1.7419-.4545 2.5206 0 .7788.4545 1.2525 1.2931 1.2397 2.1947v15.8507h-5zm7.2205 0v-15.8507c-.013-.9016.4609-1.7402 1.2397-2.1947.7787-.4545 1.7419-.4545 2.5206 0s1.2524 1.2931 1.2397 2.1947v15.8507h-5zm7.2205 0v-15.8507c-.013-.9016.4609-1.7402 1.2396-2.1947.7788-.4545 1.7419-.4545 2.5207 0 .7787.4545 1.2524 1.2931 1.2397 2.1947v15.8507h-5zm7.2204 0v-15.8507c-.013-.9016.461-1.7402 1.2397-2.1947.7788-.4545 1.7419-.4545 2.5207 0 .7787.4545 1.2524 1.2931 1.2396 2.1947v15.8507h-5zm7.2205 0v-15.8507c-.013-.9016.4609-1.7402 1.2397-2.1947.7787-.4545 1.7419-.4545 2.5206 0 .7788.4545 1.2525 1.2931 1.2397 2.1947v15.8507h-5zm7.2205 0v-15.8507c-.013-.9016.4609-1.7402 1.2397-2.1947.7787-.4545 1.7419-.4545 2.5206 0s1.2524 1.2931 1.2397 2.1947v15.8507h-5zm7.2205 0v-15.8507c-.013-.9016.4609-1.7402 1.2396-2.1947.7788-.4545 1.7419-.4545 2.5207 0 .7787.4545 1.2524 1.2931 1.2397 2.1947v15.8507h-5zm7.2204 0v-15.8507c-.013-.9016.461-1.7402 1.2397-2.1947.7787-.4545 1.7419-.4545 2.5206 0 .7788.4545 1.2525 1.2931 1.2397 2.1947v15.8507h-5zm7.2205 0v-15.8507c-.013-.9016.4609-1.7402 1.2397-2.1947.7787-.4545 1.7419-.4545 2.5206 0 .7788.4545 1.2525 1.2931 1.2397 2.1947v15.8507h-5zm7.2205 0v-15.8507c-.013-.9016.4609-1.7402 1.2397-2.1947.7787-.4545 1.7418-.4545 2.5206 0 .7787.4545 1.2524 1.2931 1.2397 2.1947v15.8507h-5zm7.2204 0v-15.8507c-.013-.9016.461-1.7402 1.2397-2.1947.7788-.4545 1.7419-.4545 2.5207 0 .7787.4545 1.2524 1.2931 1.2396 2.1947v15.8507h-5zm7.2205 0v-15.8507c-.013-.9016.461-1.7402 1.2397-2.1947.7788-.4545 1.7419-.4545 2.5206 0 .7788.4545 1.2525 1.2931 1.2397 2.1947v15.8507h-5zm7.2205 0v-15.8507c-.013-.9016.4609-1.7402 1.2397-2.1947.7787-.4545 1.7419-.4545 2.5206 0 .7788.4545 1.2524 1.2931 1.2397 2.1947v15.8507h-5zm7.2205 0v-15.8507c-.013-.9016.4609-1.7402 1.2396-2.1947.7788-.4545 1.7419-.4545 2.5207 0 .7787.4545 1.2524 1.2931 1.2397 2.1947v15.8507h-5zm7.2204 0v-15.8507c-.013-.9016.461-1.7402 1.2397-2.1947.7788-.4545 1.7419-.4545 2.5207 0 .7787.4545 1.2524 1.2931 1.2396 2.1947v15.8507h-5zm7.2205 0v-15.8507c-.013-.9016.4609-1.7402 1.2397-2.1947.7787-.4545 1.7419-.4545 2.5206 0 .7788.4545 1.2525 1.2931 1.2397 2.1947v15.8507h-5zm7.2205 0v-15.8507c-.013-.9016.4609-1.7402 1.2397-2.1947.7787-.4545 1.7419-.4545 2.5206 0s1.2524 1.2931 1.2397 2.1947v15.8507h-5zm7.2205 0v-15.8507c-.013-.9016.4609-1.7402 1.2397-2.1947.7787-.4545 1.7418-.4545 2.5206 0 .7787.4545 1.2524 1.2931 1.2397 2.1947v15.8507h-5zm7.2204 0v-15.8507c-.013-.9016.461-1.7402 1.2397-2.1947.7788-.4545 1.7419-.4545 2.5207 0 .7787.4545 1.2524 1.2931 1.2396 2.1947v15.8507h-5zm7.2205 0v-15.8507c-.013-.9016.4609-1.7402 1.2397-2.1947.7787-.4545 1.7419-.4545 2.5206 0 .7788.4545 1.2525 1.2931 1.2397 2.1947v15.8507h-5zm7.2205 0v-15.8507c-.013-.9016.4609-1.7402 1.2397-2.1947.7787-.4545 1.7419-.4545 2.5206 0s1.2524 1.2931 1.2397 2.1947v15.8507h-5zm7.2205 0v-15.8507c-.013-.9016.4609-1.7402 1.2397-2.1947.7787-.4545 1.7418-.4545 2.5206 0 .7787.4545 1.2524 1.2931 1.2397 2.1947v15.8507h-5zm7.2204 0v-15.8507c-.013-.9016.461-1.7402 1.2397-2.1947.7788-.4545 1.7419-.4545 2.5207 0 .7787.4545 1.2524 1.2931 1.2396 2.1947v15.8507h-5zm7.2205 0v-15.8507c-.013-.9016.461-1.7402 1.2397-2.1947.7787-.4545 1.7419-.4545 2.5206 0 .7788.4545 1.2525 1.2931 1.2397 2.1947v15.8507h-5zM2.7503 1032.2183v15.8507c-.013.9016.4609 1.7402 1.2396 2.1947.7788.4545 1.7419.4545 2.5207 0 .7787-.4545 1.2524-1.2931 1.2397-2.1947v-15.8507h-5zm7.2204 0v15.8507c-.013.9016.461 1.7402 1.2397 2.1947.7788.4545 1.7419.4545 2.5206 0 .7788-.4545 1.2525-1.2931 1.2397-2.1947v-15.8507h-5zm7.2205 0v15.8507c-.013.9016.4609 1.7402 1.2397 2.1947.7787.4545 1.7419.4545 2.5206 0 .7788-.4545 1.2525-1.2931 1.2397-2.1947v-15.8507h-5zm7.2205 0v15.8507c-.013.9016.4609 1.7402 1.2397 2.1947.7787.4545 1.7418.4545 2.5206 0 .7787-.4545 1.2524-1.2931 1.2397-2.1947v-15.8507h-5zm7.2204 0v15.8507c-.013.9016.461 1.7402 1.2397 2.1947.7788.4545 1.7419.4545 2.5207 0 .7787-.4545 1.2524-1.2931 1.2396-2.1947v-15.8507h-5zm7.2205 0v15.8507c-.013.9016.461 1.7402 1.2397 2.1947.7787.4545 1.7419.4545 2.5206 0 .7788-.4545 1.2525-1.2931 1.2397-2.1947v-15.8507h-5zm7.2205 0v15.8507c-.013.9016.4609 1.7402 1.2397 2.1947.7787.4545 1.7419.4545 2.5206 0 .7788-.4545 1.2524-1.2931 1.2397-2.1947v-15.8507h-5zm7.2205 0v15.8507c-.013.9016.4609 1.7402 1.2397 2.1947.7787.4545 1.7418.4545 2.5206 0 .7787-.4545 1.2524-1.2931 1.2397-2.1947v-15.8507h-5zm7.2204 0v15.8507c-.013.9016.461 1.7402 1.2397 2.1947.7788.4545 1.7419.4545 2.5207 0 .7787-.4545 1.2524-1.2931 1.2396-2.1947v-15.8507h-5zm7.2205 0v15.8507c-.013.9016.461 1.7402 1.2397 2.1947.7787.4545 1.7419.4545 2.5206 0 .7788-.4545 1.2525-1.2931 1.2397-2.1947v-15.8507h-5zm7.2205 0v15.8507c-.013.9016.4609 1.7402 1.2397 2.1947.7787.4545 1.7419.4545 2.5206 0s1.2524-1.2931 1.2397-2.1947v-15.8507h-5zm7.2205 0v15.8507c-.013.9016.4609 1.7402 1.2396 2.1947.7788.4545 1.7419.4545 2.5207 0 .7787-.4545 1.2524-1.2931 1.2397-2.1947v-15.8507h-5zm7.2204 0v15.8507c-.013.9016.461 1.7402 1.2397 2.1947.7788.4545 1.7419.4545 2.5207 0 .7787-.4545 1.2524-1.2931 1.2396-2.1947v-15.8507h-5zm7.2205 0v15.8507c-.013.9016.461 1.7402 1.2397 2.1947.7787.4545 1.7419.4545 2.5206 0 .7788-.4545 1.2525-1.2931 1.2397-2.1947v-15.8507h-5zm7.2205 0v15.8507c-.013.9016.4609 1.7402 1.2397 2.1947.7787.4545 1.7419.4545 2.5206 0s1.2524-1.2931 1.2397-2.1947v-15.8507h-5zm7.2205 0v15.8507c-.013.9016.4609 1.7402 1.2396 2.1947.7788.4545 1.7419.4545 2.5207 0 .7787-.4545 1.2524-1.2931 1.2397-2.1947v-15.8507h-5zm7.2204 0v15.8507c-.013.9016.461 1.7402 1.2397 2.1947.7788.4545 1.7419.4545 2.5207 0 .7787-.4545 1.2524-1.2931 1.2396-2.1947v-15.8507h-5zm7.2205 0v15.8507c-.013.9016.4609 1.7402 1.2397 2.1947.7787.4545 1.7419.4545 2.5206 0 .7788-.4545 1.2525-1.2931 1.2397-2.1947v-15.8507h-5zm7.2205 0v15.8507c-.013.9016.4609 1.7402 1.2397 2.1947.7787.4545 1.7419.4545 2.5206 0s1.2524-1.2931 1.2397-2.1947v-15.8507h-5zm7.2205 0v15.8507c-.013.9016.4609 1.7402 1.2396 2.1947.7788.4545 1.7419.4545 2.5207 0 .7787-.4545 1.2524-1.2931 1.2397-2.1947v-15.8507h-5zm7.2204 0v15.8507c-.013.9016.461 1.7402 1.2397 2.1947.7787.4545 1.7419.4545 2.5206 0 .7788-.4545 1.2525-1.2931 1.2397-2.1947v-15.8507h-5zm7.2205 0v15.8507c-.013.9016.4609 1.7402 1.2397 2.1947.7787.4545 1.7419.4545 2.5206 0 .7788-.4545 1.2525-1.2931 1.2397-2.1947v-15.8507h-5zm7.2205 0v15.8507c-.013.9016.4609 1.7402 1.2397 2.1947.7787.4545 1.7418.4545 2.5206 0 .7787-.4545 1.2524-1.2931 1.2397-2.1947v-15.8507h-5zm7.2204 0v15.8507c-.013.9016.461 1.7402 1.2397 2.1947.7788.4545 1.7419.4545 2.5207 0 .7787-.4545 1.2524-1.2931 1.2396-2.1947v-15.8507h-5zm7.2205 0v15.8507c-.013.9016.461 1.7402 1.2397 2.1947.7788.4545 1.7419.4545 2.5206 0 .7788-.4545 1.2525-1.2931 1.2397-2.1947v-15.8507h-5zm7.2205 0v15.8507c-.013.9016.4609 1.7402 1.2397 2.1947.7787.4545 1.7419.4545 2.5206 0 .7788-.4545 1.2524-1.2931 1.2397-2.1947v-15.8507h-5zm7.2205 0v15.8507c-.013.9016.4609 1.7402 1.2396 2.1947.7788.4545 1.7419.4545 2.5207 0 .7787-.4545 1.2524-1.2931 1.2397-2.1947v-15.8507h-5zm7.2204 0v15.8507c-.013.9016.461 1.7402 1.2397 2.1947.7788.4545 1.7419.4545 2.5207 0 .7787-.4545 1.2524-1.2931 1.2396-2.1947v-15.8507h-5zm7.2205 0v15.8507c-.013.9016.4609 1.7402 1.2397 2.1947.7787.4545 1.7419.4545 2.5206 0 .7788-.4545 1.2525-1.2931 1.2397-2.1947v-15.8507h-5zm7.2205 0v15.8507c-.013.9016.4609 1.7402 1.2397 2.1947.7787.4545 1.7419.4545 2.5206 0s1.2524-1.2931 1.2397-2.1947v-15.8507h-5zm7.2205 0v15.8507c-.013.9016.4609 1.7402 1.2397 2.1947.7787.4545 1.7418.4545 2.5206 0 .7787-.4545 1.2524-1.2931 1.2397-2.1947v-15.8507h-5zm7.2204 0v15.8507c-.013.9016.461 1.7402 1.2397 2.1947.7788.4545 1.7419.4545 2.5207 0 .7787-.4545 1.2524-1.2931 1.2396-2.1947v-15.8507h-5zm7.2205 0v15.8507c-.013.9016.4609 1.7402 1.2397 2.1947.7787.4545 1.7419.4545 2.5206 0 .7788-.4545 1.2525-1.2931 1.2397-2.1947v-15.8507h-5zm7.2205 0v15.8507c-.013.9016.4609 1.7402 1.2397 2.1947.7787.4545 1.7419.4545 2.5206 0s1.2524-1.2931 1.2397-2.1947v-15.8507h-5zm7.2205 0v15.8507c-.013.9016.4609 1.7402 1.2397 2.1947.7787.4545 1.7418.4545 2.5206 0 .7787-.4545 1.2524-1.2931 1.2397-2.1947v-15.8507h-5zm7.2204 0v15.8507c-.013.9016.461 1.7402 1.2397 2.1947.7788.4545 1.7419.4545 2.5207 0 .7787-.4545 1.2524-1.2931 1.2396-2.1947v-15.8507h-5zm7.2205 0v15.8507c-.013.9016.461 1.7402 1.2397 2.1947.7787.4545 1.7419.4545 2.5206 0 .7788-.4545 1.2525-1.2931 1.2397-2.1947v-15.8507h-5zm7.2205 0v15.8507c-.013.9016.4609 1.7402 1.2397 2.1947.7787.4545 1.7419.4545 2.5206 0s1.2524-1.2931 1.2397-2.1947v-15.8507h-5zm7.2204 0v15.8507c-.013.9016.461 1.7402 1.2397 2.1947.7788.4545 1.7419.4545 2.5207 0 .7787-.4545 1.2524-1.2931 1.2396-2.1947v-15.8507h-5zm7.2206 0v15.8507c-.013.9016.4609 1.7402 1.2396 2.1947.7788.4545 1.7419.4545 2.5207 0 .7787-.4545 1.2524-1.2931 1.2396-2.1947v-15.8507h-5zm7.2204 0v15.8507c-.013.9016.4609 1.7402 1.2397 2.1947.7787.4545 1.7419.4545 2.5206 0 .7788-.4545 1.2524-1.2931 1.2397-2.1947v-15.8507h-5zm7.2205 0v15.8507c-.013.9016.4609 1.7402 1.2397 2.1947.7787.4545 1.7418.4545 2.5206 0 .7787-.4545 1.2524-1.2931 1.2397-2.1947v-15.8507h-5zm7.2205 0v15.8507c-.013.9016.4609 1.7402 1.2396 2.1947.7788.4545 1.7419.4545 2.5207 0 .7787-.4545 1.2524-1.2931 1.2397-2.1947v-15.8507h-5zm7.2204 0v15.8507c-.013.9016.461 1.7402 1.2397 2.1947.7787.4545 1.7419.4545 2.5206 0 .7788-.4545 1.2525-1.2931 1.2397-2.1947v-15.8507h-5zm7.2205 0v15.8507c-.013.9016.4609 1.7402 1.2397 2.1947.7787.4545 1.7419.4545 2.5206 0 .7788-.4545 1.2525-1.2931 1.2397-2.1947v-15.8507h-5zm7.2205 0v15.8507c-.013.9016.4609 1.7402 1.2397 2.1947.7787.4545 1.7419.4545 2.5206 0s1.2524-1.2931 1.2397-2.1947v-15.8507h-5zm7.2204 0v15.8507c-.013.9016.461 1.7402 1.2397 2.1947.7788.4545 1.7419.4545 2.5207 0 .7787-.4545 1.2524-1.2931 1.2396-2.1947v-15.8507h-5zm7.2205 0v15.8507c-.013.9016.461 1.7402 1.2397 2.1947.7787.4545 1.7419.4545 2.5206 0 .7788-.4545 1.2525-1.2931 1.2397-2.1947v-15.8507h-5zm7.2205 0v15.8507c-.013.9016.4609 1.7402 1.2397 2.1947.7787.4545 1.7419.4545 2.5206 0s1.2524-1.2931 1.2397-2.1947v-15.8507h-5zm7.2205 0v15.8507c-.013.9016.4609 1.7402 1.2397 2.1947.7787.4545 1.7419.4545 2.5206 0s1.2524-1.2931 1.2397-2.1947v-15.8507h-5zm7.2204 0v15.8507c-.013.9016.461 1.7402 1.2397 2.1947.7788.4545 1.7419.4545 2.5207 0 .7787-.4545 1.2524-1.2931 1.2396-2.1947v-15.8507h-5zm7.2205 0v15.8507c-.013.9016.4609 1.7402 1.2397 2.1947.7787.4545 1.7419.4545 2.5206 0 .7788-.4545 1.2525-1.2931 1.2397-2.1947v-15.8507h-5zm7.2205 0v15.8507c-.013.9016.4609 1.7402 1.2397 2.1947.7787.4545 1.7419.4545 2.5206 0 .7788-.4545 1.2524-1.2931 1.2397-2.1947v-15.8507h-5zm7.2205 0v15.8507c-.013.9016.4609 1.7402 1.2397 2.1947.7787.4545 1.7418.4545 2.5206 0 .7787-.4545 1.2524-1.2931 1.2397-2.1947v-15.8507h-5zm7.2204 0v15.8507c-.013.9016.461 1.7402 1.2397 2.1947.7788.4545 1.7419.4545 2.5206 0 .7788-.4545 1.2525-1.2931 1.2397-2.1947v-15.8507h-5zm7.2205 0v15.8507c-.013.9016.4609 1.7402 1.2397 2.1947.7787.4545 1.7419.4545 2.5206 0 .7788-.4545 1.2525-1.2931 1.2397-2.1947v-15.8507h-5zm7.2205 0v15.8507c-.013.9016.4609 1.7402 1.2397 2.1947.7787.4545 1.7419.4545 2.5206 0s1.2524-1.2931 1.2397-2.1947v-15.8507h-5zm7.2204 0v15.8507c-.013.9016.461 1.7402 1.2397 2.1947.7788.4545 1.7419.4545 2.5207 0 .7787-.4545 1.2524-1.2931 1.2396-2.1947v-15.8507h-5zm7.2205 0v15.8507c-.013.9016.461 1.7402 1.2397 2.1947.7788.4545 1.7419.4545 2.5206 0 .7788-.4545 1.2525-1.2931 1.2397-2.1947v-15.8507h-5zm7.2205 0v15.8507c-.013.9016.461 1.7402 1.2397 2.1947.7787.4545 1.7419.4545 2.5206 0 .7788-.4545 1.2525-1.2931 1.2397-2.1947v-15.8507h-5zm7.2205 0v15.8507c-.013.9016.4609 1.7402 1.2397 2.1947.7787.4545 1.7419.4545 2.5206 0 .7788-.4545 1.2524-1.2931 1.2397-2.1947v-15.8507h-5zm7.2204 0v15.8507c-.013.9016.461 1.7402 1.2397 2.1947.7788.4545 1.7419.4545 2.5207 0 .7787-.4545 1.2524-1.2931 1.2396-2.1947v-15.8507h-5zm7.2205 0v15.8507c-.013.9016.461 1.7402 1.2397 2.1947.7787.4545 1.7419.4545 2.5206 0 .7788-.4545 1.2525-1.2931 1.2397-2.1947v-15.8507h-5zm7.2205 0v15.8507c-.013.9016.461 1.7402 1.2397 2.1947.7787.4545 1.7419.4545 2.5206 0 .7788-.4545 1.2525-1.2931 1.2397-2.1947v-15.8507h-5zm7.2205 0v15.8507c-.013.9016.4609 1.7402 1.2397 2.1947.7787.4545 1.7418.4545 2.5206 0 .7787-.4545 1.2524-1.2931 1.2397-2.1947v-15.8507h-5zm7.2204 0v15.8507c-.013.9016.461 1.7402 1.2397 2.1947.7788.4545 1.7419.4545 2.5206 0 .7788-.4545 1.2525-1.2931 1.2397-2.1947v-15.8507h-5zm7.2205 0v15.8507c-.013.9016.461 1.7402 1.2397 2.1947.7787.4545 1.7419.4545 2.5206 0 .7788-.4545 1.2525-1.2931 1.2397-2.1947v-15.8507h-5zm7.2205 0v15.8507c-.013.9016.4609 1.7402 1.2397 2.1947.7787.4545 1.7419.4545 2.5206 0 .7788-.4545 1.2525-1.2931 1.2397-2.1947v-15.8507h-5zm7.2205 0v15.8507c-.013.9016.4609 1.7402 1.2396 2.1947.7788.4545 1.7419.4545 2.5207 0 .7787-.4545 1.2524-1.2931 1.2397-2.1947v-15.8507h-5zm7.2204 0v15.8507c-.013.9016.461 1.7402 1.2397 2.1947.7788.4545 1.7419.4545 2.5207 0 .7787-.4545 1.2524-1.2931 1.2396-2.1947v-15.8507h-5zm7.2205 0v15.8507c-.013.9016.461 1.7402 1.2397 2.1947.7788.4545 1.7419.4545 2.5207 0 .7787-.4545 1.2524-1.2931 1.2396-2.1947v-15.8507h-5zm7.2205 0v15.8507c-.013.9016.461 1.7402 1.2397 2.1947.7787.4545 1.7419.4545 2.5206 0 .7788-.4545 1.2525-1.2931 1.2397-2.1947v-15.8507h-5zm7.2205 0v15.8507c-.013.9016.4609 1.7402 1.2396 2.1947.7788.4545 1.7419.4545 2.5207 0 .7787-.4545 1.2524-1.2931 1.2397-2.1947v-15.8507h-5zm7.2205 0v15.8507c-.013.9016.4609 1.7402 1.2397 2.1947.7787.4545 1.7418.4545 2.5206 0 .7787-.4545 1.2524-1.2931 1.2397-2.1947v-15.8507h-5zm7.2204 0v15.8507c-.013.9016.461 1.7402 1.2397 2.1947.7787.4545 1.7419.4545 2.5206 0 .7788-.4545 1.2525-1.2931 1.2397-2.1947v-15.8507h-5zm7.2205 0v15.8507c-.013.9016.4609 1.7402 1.2397 2.1947.7787.4545 1.7419.4545 2.5206 0 .7788-.4545 1.2525-1.2931 1.2397-2.1947v-15.8507h-5zm7.2205 0v15.8507c-.013.9016.4609 1.7402 1.2396 2.1947.7788.4545 1.7419.4545 2.5207 0 .7787-.4545 1.2524-1.2931 1.2397-2.1947v-15.8507h-5zm7.2204 0v15.8507c-.013.9016.4609 1.7402 1.2397 2.1947.7787.4545 1.7419.4545 2.5206 0 .7788-.4545 1.2525-1.2931 1.2397-2.1947v-15.8507h-5zm7.2205 0v15.8507c-.013.9016.461 1.7402 1.2397 2.1947.7787.4545 1.7419.4545 2.5206 0 .7788-.4545 1.2525-1.2931 1.2397-2.1947v-15.8507h-5zm7.2205 0v15.8507c-.013.9016.4609 1.7402 1.2397 2.1947.7787.4545 1.7418.4545 2.5206 0 .7787-.4545 1.2524-1.2931 1.2397-2.1947v-15.8507h-5zm7.2205 0v15.8507c-.013.9016.4609 1.7402 1.2397 2.1947.7787.4545 1.7419.4545 2.5206 0s1.2524-1.2931 1.2397-2.1947v-15.8507h-5zm7.2204 0v15.8507c-.013.9016.4609 1.7402 1.2397 2.1947.7787.4545 1.7419.4545 2.5206 0 .7788-.4545 1.2525-1.2931 1.2397-2.1947v-15.8507h-5zm7.2205 0v15.8507c-.013.9016.461 1.7402 1.2397 2.1947.7787.4545 1.7419.4545 2.5206 0 .7788-.4545 1.2525-1.2931 1.2397-2.1947v-15.8507h-5zm7.2205 0v15.8507c-.013.9016.4609 1.7402 1.2396 2.1947.7788.4545 1.7419.4545 2.5207 0 .7787-.4545 1.2524-1.2931 1.2397-2.1947v-15.8507h-5zm7.2204 0v15.8507c-.013.9016.461 1.7402 1.2397 2.1947.7788.4545 1.7419.4545 2.5207 0 .7787-.4545 1.2524-1.2931 1.2396-2.1947v-15.8507h-5zm7.2205 0v15.8507c-.013.9016.4609 1.7402 1.2397 2.1947.7787.4545 1.7419.4545 2.5206 0 .7788-.4545 1.2524-1.2931 1.2397-2.1947v-15.8507h-5zm7.2205 0v15.8507c-.013.9016.4609 1.7402 1.2397 2.1947.7787.4545 1.7419.4545 2.5206 0 .7788-.4545 1.2525-1.2931 1.2397-2.1947v-15.8507h-5zm7.2204 0v15.8507c-.013.9016.461 1.7402 1.2397 2.1947.7788.4545 1.7419.4545 2.5207 0 .7787-.4545 1.2524-1.2931 1.2396-2.1947v-15.8507h-5zm7.2206 0v15.8507c-.013.9016.4609 1.7402 1.2396 2.1947.7788.4545 1.7419.4545 2.5207 0 .7787-.4545 1.2524-1.2931 1.2397-2.1947v-15.8507h-5zm7.2204 0v15.8507c-.013.9016.4609 1.7402 1.2397 2.1947.7787.4545 1.7419.4545 2.5206 0 .7788-.4545 1.2524-1.2931 1.2397-2.1947v-15.8507h-5zm7.2205 0v15.8507c-.013.9016.461 1.7402 1.2397 2.1947.7787.4545 1.7419.4545 2.5206 0 .7788-.4545 1.2525-1.2931 1.2397-2.1947v-15.8507h-5zm7.2205 0v15.8507c-.013.9016.4609 1.7402 1.2396 2.1947.7788.4545 1.7419.4545 2.5207 0 .7787-.4545 1.2524-1.2931 1.2397-2.1947v-15.8507h-5zm7.2204 0v15.8507c-.013.9016.4609 1.7402 1.2397 2.1947.7787.4545 1.7419.4545 2.5206 0 .7788-.4545 1.2525-1.2931 1.2397-2.1947v-15.8507h-5zm7.2205 0v15.8507c-.013.9016.4609 1.7402 1.2397 2.1947.7787.4545 1.7419.4545 2.5206 0 .7788-.4545 1.2524-1.2931 1.2397-2.1947v-15.8507h-5zm7.2205 0v15.8507c-.013.9016.4609 1.7402 1.2396 2.1947.7788.4545 1.7419.4545 2.5207 0 .7787-.4545 1.2524-1.2931 1.2397-2.1947v-15.8507h-5zm7.2205 0v15.8507c-.013.9016.4609 1.7402 1.2396 2.1947.7788.4545 1.7419.4545 2.5207 0 .7787-.4545 1.2524-1.2931 1.2397-2.1947v-15.8507h-5zm7.2204 0v15.8507c-.013.9016.461 1.7402 1.2397 2.1947.7787.4545 1.7419.4545 2.5206 0 .7788-.4545 1.2525-1.2931 1.2397-2.1947v-15.8507h-5zm7.2205 0v15.8507c-.013.9016.461 1.7402 1.2397 2.1947.7787.4545 1.7419.4545 2.5206 0 .7788-.4545 1.2525-1.2931 1.2397-2.1947v-15.8507h-5zm7.2205 0v15.8507c-.013.9016.4609 1.7402 1.2397 2.1947.7787.4545 1.7418.4545 2.5206 0 .7787-.4545 1.2524-1.2931 1.2397-2.1947v-15.8507h-5zm7.2204 0v15.8507c-.013.9016.461 1.7402 1.2397 2.1947.7788.4545 1.7419.4545 2.5207 0 .7787-.4545 1.2524-1.2931 1.2396-2.1947v-15.8507h-5zm7.2205 0v15.8507c-.013.9016.461 1.7402 1.2397 2.1947.7788.4545 1.7419.4545 2.5207 0 .7787-.4545 1.2524-1.2931 1.2396-2.1947v-15.8507h-5zm7.2205 0v15.8507c-.013.9016.461 1.7402 1.2397 2.1947.7787.4545 1.7419.4545 2.5206 0 .7788-.4545 1.2525-1.2931 1.2397-2.1947v-15.8507h-5zm7.2205 0v15.8507c-.013.9016.4609 1.7402 1.2397 2.1947.7787.4545 1.7418.4545 2.5206 0 .7787-.4545 1.2524-1.2931 1.2397-2.1947v-15.8507h-5zm7.2204 0v15.8507c-.013.9016.461 1.7402 1.2397 2.1947.7787.4545 1.7419.4545 2.5206 0 .7788-.4545 1.2525-1.2931 1.2397-2.1947v-15.8507h-5zm7.2205 0v15.8507c-.013.9016.461 1.7402 1.2397 2.1947.7788.4545 1.7419.4545 2.5206 0 .7788-.4545 1.2525-1.2931 1.2397-2.1947v-15.8507h-5zm7.2205 0v15.8507c-.013.9016.4609 1.7402 1.2397 2.1947.7787.4545 1.7419.4545 2.5206 0 .7788-.4545 1.2524-1.2931 1.2397-2.1947v-15.8507h-5zm7.2205 0v15.8507c-.013.9016.4609 1.7402 1.2397 2.1947.7787.4545 1.7419.4545 2.5206 0 .7788-.4545 1.2524-1.2931 1.2397-2.1947v-15.8507h-5zm7.2204 0v15.8507c-.013.9016.461 1.7402 1.2397 2.1947.7787.4545 1.7419.4545 2.5206 0 .7788-.4545 1.2525-1.2931 1.2397-2.1947v-15.8507h-5zm7.2205 0v15.8507c-.013.9016.461 1.7402 1.2397 2.1947.7788.4545 1.7419.4545 2.5207 0 .7787-.4545 1.2524-1.2931 1.2396-2.1947v-15.8507h-5zm7.2205 0v15.8507c-.013.9016.4609 1.7402 1.2397 2.1947.7787.4545 1.7419.4545 2.5206 0s1.2524-1.2931 1.2397-2.1947v-15.8507h-5zm7.2204 0v15.8507c-.013.9016.461 1.7402 1.2397 2.1947.7788.4545 1.7419.4545 2.5207 0 .7787-.4545 1.2524-1.2931 1.2396-2.1947v-15.8507h-5zm7.2206 0v15.8507c-.013.9016.4609 1.7402 1.2396 2.1947.7788.4545 1.7419.4545 2.5207 0 .7787-.4545 1.2524-1.2931 1.2397-2.1947v-15.8507h-5zm7.2204 0v15.8507c-.013.9016.4609 1.7402 1.2397 2.1947.7787.4545 1.7419.4545 2.5206 0 .7788-.4545 1.2524-1.2931 1.2397-2.1947v-15.8507h-5zm7.2205 0v15.8507c-.013.9016.4609 1.7402 1.2397 2.1947.7787.4545 1.7419.4545 2.5206 0 .7788-.4545 1.2524-1.2931 1.2397-2.1947v-15.8507h-5zm7.2204 0v15.8507c-.013.9016.461 1.7402 1.2397 2.1947.7788.4545 1.7419.4545 2.5207 0 .7787-.4545 1.2524-1.2931 1.2396-2.1947v-15.8507h-5zm7.2206 0v15.8507c-.013.9016.4609 1.7402 1.2396 2.1947.7788.4545 1.7419.4545 2.5207 0 .7787-.4545 1.2524-1.2931 1.2397-2.1947v-15.8507h-5zm7.2204 0v15.8507c-.013.9016.461 1.7402 1.2397 2.1947.7788.4545 1.7419.4545 2.5206 0 .7788-.4545 1.2525-1.2931 1.2397-2.1947v-15.8507h-5zm7.2205 0v15.8507c-.013.9016.4609 1.7402 1.2397 2.1947.7787.4545 1.7419.4545 2.5206 0s1.2524-1.2931 1.2397-2.1947v-15.8507h-5zm7.2204 0v15.8507c-.013.9016.461 1.7402 1.2397 2.1947.7788.4545 1.7419.4545 2.5207 0 .7787-.4545 1.2524-1.2931 1.2396-2.1947v-15.8507h-5zm7.2205 0v15.8507c-.013.9016.461 1.7402 1.2397 2.1947.7787.4545 1.7419.4545 2.5206 0 .7788-.4545 1.2525-1.2931 1.2397-2.1947v-15.8507h-5zm7.2205 0v15.8507c-.013.9016.4609 1.7402 1.2397 2.1947.7787.4545 1.7419.4545 2.5206 0s1.2524-1.2931 1.2397-2.1947v-15.8507h-5zm7.2205 0v15.8507c-.013.9016.4609 1.7402 1.2397 2.1947.7787.4545 1.7419.4545 2.5206 0s1.2524-1.2931 1.2397-2.1947v-15.8507h-5zm7.2204 0v15.8507c-.013.9016.461 1.7402 1.2397 2.1947.7788.4545 1.7419.4545 2.5207 0 .7787-.4545 1.2524-1.2931 1.2396-2.1947v-15.8507h-5zm7.2205 0v15.8507c-.013.9016.4609 1.7402 1.2397 2.1947.7787.4545 1.7419.4545 2.5206 0 .7788-.4545 1.2524-1.2931 1.2397-2.1947v-15.8507h-5zm7.2205 0v15.8507c-.013.9016.4609 1.7402 1.2397 2.1947.7787.4545 1.7419.4545 2.5206 0s1.2524-1.2931 1.2397-2.1947v-15.8507h-5zm7.2228.0076v15.8507c-.013.9016.4609 1.7402 1.2396 2.1947.7788.4545 1.7419.4545 2.5207 0 .7787-.4545 1.2524-1.2931 1.2397-2.1947v-15.8507h-5zm7.2204 0v15.8507c-.013.9016.461 1.7402 1.2397 2.1947.7788.4545 1.7419.4545 2.5206 0 .7788-.4545 1.2525-1.2931 1.2397-2.1947v-15.8507h-5zm7.2205 0v15.8507c-.013.9016.4609 1.7402 1.2397 2.1947.7787.4545 1.7419.4545 2.5206 0 .7788-.4545 1.2525-1.2931 1.2397-2.1947v-15.8507h-5zm7.2205 0v15.8507c-.013.9016.4609 1.7402 1.2397 2.1947.7787.4545 1.7418.4545 2.5206 0 .7787-.4545 1.2524-1.2931 1.2397-2.1947v-15.8507h-5zm7.2204 0v15.8507c-.013.9016.461 1.7402 1.2397 2.1947.7788.4545 1.7419.4545 2.5207 0 .7787-.4545 1.2524-1.2931 1.2396-2.1947v-15.8507h-5zm7.2205 0v15.8507c-.013.9016.461 1.7402 1.2397 2.1947.7787.4545 1.7419.4545 2.5206 0 .7788-.4545 1.2525-1.2931 1.2397-2.1947v-15.8507h-5zm7.2205 0v15.8507c-.013.9016.4609 1.7402 1.2397 2.1947.7787.4545 1.7419.4545 2.5206 0 .7788-.4545 1.2524-1.2931 1.2397-2.1947v-15.8507h-5zm7.2205 0v15.8507c-.013.9016.4609 1.7402 1.2397 2.1947.7787.4545 1.7418.4545 2.5206 0 .7787-.4545 1.2524-1.2931 1.2397-2.1947v-15.8507h-5zm7.2204 0v15.8507c-.013.9016.461 1.7402 1.2397 2.1947.7788.4545 1.7419.4545 2.5207 0 .7787-.4545 1.2524-1.2931 1.2396-2.1947v-15.8507h-5zm7.2205 0v15.8507c-.013.9016.461 1.7402 1.2397 2.1947.7787.4545 1.7419.4545 2.5206 0 .7788-.4545 1.2525-1.2931 1.2397-2.1947v-15.8507h-5zm7.2205 0v15.8507c-.013.9016.4609 1.7402 1.2397 2.1947.7787.4545 1.7419.4545 2.5206 0s1.2524-1.2931 1.2397-2.1947v-15.8507h-5zm7.2205 0v15.8507c-.013.9016.4609 1.7402 1.2396 2.1947.7788.4545 1.7419.4545 2.5207 0 .7787-.4545 1.2524-1.2931 1.2397-2.1947v-15.8507h-5zm7.2204 0v15.8507c-.013.9016.461 1.7402 1.2397 2.1947.7788.4545 1.7419.4545 2.5207 0 .7787-.4545 1.2524-1.2931 1.2396-2.1947v-15.8507h-5zm7.2205 0v15.8507c-.013.9016.461 1.7402 1.2397 2.1947.7787.4545 1.742.4545 2.5207 0 .7788-.4545 1.2525-1.2931 1.2397-2.1947v-15.8507h-5.0001zm7.2206 0v15.8507c-.013.9016.4609 1.7402 1.2397 2.1947.7787.4545 1.7419.4545 2.5206 0s1.2524-1.2931 1.2397-2.1947v-15.8507h-5zm7.2205 0v15.8507c-.013.9016.4609 1.7402 1.2396 2.1947.7788.4545 1.7419.4545 2.5207 0 .7787-.4545 1.2524-1.2931 1.2397-2.1947v-15.8507h-5zm7.2204 0v15.8507c-.013.9016.461 1.7402 1.2397 2.1947.7788.4545 1.7419.4545 2.5207 0 .7787-.4545 1.2524-1.2931 1.2396-2.1947v-15.8507h-5zm7.2205 0v15.8507c-.013.9016.4609 1.7402 1.2397 2.1947.7787.4545 1.7419.4545 2.5206 0 .7788-.4545 1.2525-1.2931 1.2397-2.1947v-15.8507h-5zm7.2205 0v15.8507c-.013.9016.4609 1.7402 1.2397 2.1947.7787.4545 1.7419.4545 2.5206 0s1.2524-1.2931 1.2397-2.1947v-15.8507h-5zm7.2205 0v15.8507c-.013.9016.4609 1.7402 1.2396 2.1947.7788.4545 1.7419.4545 2.5207 0 .7787-.4545 1.2524-1.2931 1.2397-2.1947v-15.8507h-5zm7.2204 0v15.8507c-.013.9016.461 1.7402 1.2397 2.1947.7787.4545 1.7419.4545 2.5206 0 .7788-.4545 1.2525-1.2931 1.2397-2.1947v-15.8507h-5zm7.2205 0v15.8507c-.013.9016.4609 1.7402 1.2397 2.1947.7787.4545 1.7419.4545 2.5206 0 .7788-.4545 1.2525-1.2931 1.2397-2.1947v-15.8507h-5zm7.2205 0v15.8507c-.013.9016.4609 1.7402 1.2397 2.1947.7787.4545 1.7418.4545 2.5206 0 .7787-.4545 1.2524-1.2931 1.2397-2.1947v-15.8507h-5zm7.2204 0v15.8507c-.013.9016.461 1.7402 1.2397 2.1947.7788.4545 1.7419.4545 2.5207 0 .7787-.4545 1.2524-1.2931 1.2396-2.1947v-15.8507h-5zm7.2205 0v15.8507c-.013.9016.461 1.7402 1.2397 2.1947.7788.4545 1.7419.4545 2.5206 0 .7788-.4545 1.2525-1.2931 1.2397-2.1947v-15.8507h-5zm7.2205 0v15.8507c-.013.9016.4609 1.7402 1.2397 2.1947.7787.4545 1.7419.4545 2.5206 0 .7788-.4545 1.2524-1.2931 1.2397-2.1947v-15.8507h-5zm7.2205 0v15.8507c-.013.9016.4609 1.7402 1.2396 2.1947.7788.4545 1.7419.4545 2.5207 0 .7787-.4545 1.2524-1.2931 1.2397-2.1947v-15.8507h-5zm7.2204 0v15.8507c-.013.9016.461 1.7402 1.2397 2.1947.7788.4545 1.7419.4545 2.5207 0 .7787-.4545 1.2524-1.2931 1.2396-2.1947v-15.8507h-5zm7.2205 0v15.8507c-.013.9016.4609 1.7402 1.2397 2.1947.7787.4545 1.7419.4545 2.5206 0 .7788-.4545 1.2525-1.2931 1.2397-2.1947v-15.8507h-5zm7.2205 0v15.8507c-.013.9016.4609 1.7402 1.2397 2.1947.7787.4545 1.7419.4545 2.5206 0s1.2524-1.2931 1.2397-2.1947v-15.8507h-5zm7.2205 0v15.8507c-.013.9016.4609 1.7402 1.2397 2.1947.7787.4545 1.7418.4545 2.5206 0 .7787-.4545 1.2524-1.2931 1.2397-2.1947v-15.8507h-5zm7.2204 0v15.8507c-.013.9016.461 1.7402 1.2397 2.1947.7788.4545 1.7419.4545 2.5207 0 .7787-.4545 1.2524-1.2931 1.2396-2.1947v-15.8507h-5zm7.2205 0v15.8507c-.013.9016.4609 1.7402 1.2397 2.1947.7787.4545 1.7419.4545 2.5206 0 .7788-.4545 1.2525-1.2931 1.2397-2.1947v-15.8507h-5zm7.2205 0v15.8507c-.013.9016.4609 1.7402 1.2397 2.1947.7787.4545 1.7419.4545 2.5206 0s1.2524-1.2931 1.2397-2.1947v-15.8507h-5zm7.2205 0v15.8507c-.013.9016.4609 1.7402 1.2397 2.1947.7787.4545 1.7418.4545 2.5206 0 .7787-.4545 1.2524-1.2931 1.2397-2.1947v-15.8507h-5zm7.2204 0v15.8507c-.013.9016.461 1.7402 1.2397 2.1947.7788.4545 1.7419.4545 2.5207 0 .7787-.4545 1.2524-1.2931 1.2396-2.1947v-15.8507h-5zm7.2205 0v15.8507c-.013.9016.461 1.7402 1.2397 2.1947.7787.4545 1.7419.4545 2.5206 0 .7788-.4545 1.2525-1.2931 1.2397-2.1947v-15.8507h-5zm5.5011 15.9334h15.8507c.9016.013 1.7402-.461 2.1947-1.2397.4545-.7788.4545-1.7419 0-2.5207-.4545-.7787-1.2931-1.2524-2.1947-1.2396H1170.75v5zm0-7.2205h15.8507c.9016.013 1.7402-.4609 2.1947-1.2397.4545-.7787.4545-1.7419 0-2.5206-.4545-.7788-1.2931-1.2525-2.1947-1.2397H1170.75v5zm0-7.2205h15.8507c.9016.013 1.7402-.4609 2.1947-1.2397.4545-.7787.4545-1.7419 0-2.5206s-1.2931-1.2524-2.1947-1.2397H1170.75v5zm0-7.2205h15.8507c.9016.013 1.7402-.4609 2.1947-1.2397.4545-.7787.4545-1.7418 0-2.5206-.4545-.7787-1.2931-1.2524-2.1947-1.2397H1170.75v5zm0-7.2204h15.8507c.9016.013 1.7402-.461 2.1947-1.2397.4545-.7788.4545-1.7419 0-2.5207-.4545-.7787-1.2931-1.2524-2.1947-1.2396H1170.75v5zm0-7.2205h15.8507c.9016.013 1.7402-.4609 2.1947-1.2397.4545-.7787.4545-1.7419 0-2.5206-.4545-.7788-1.2931-1.2525-2.1947-1.2397H1170.75v5zm0-7.2205h15.8507c.9016.013 1.7402-.4609 2.1947-1.2397.4545-.7787.4545-1.7419 0-2.5206s-1.2931-1.25238-2.1947-1.23968H1170.75v4.99998zm0-7.22048h15.8507c.9016.013 1.7402-.4609 2.1947-1.2397.4545-.7787.4545-1.7418 0-2.5206-.4545-.7787-1.2931-1.2524-2.1947-1.2397H1170.75v5zm0-7.2204h15.8507c.9016.013 1.7402-.461 2.1947-1.2397.4545-.7788.4545-1.7419 0-2.5207-.4545-.7787-1.2931-1.2524-2.1947-1.2396H1170.75v5zm0-7.2205h15.8507c.9016.013 1.7402-.461 2.1947-1.2397.4545-.7787.4545-1.7419 0-2.5206-.4545-.7788-1.2931-1.2525-2.1947-1.2397H1170.75v5zm0-7.2205h15.8507c.9016.013 1.7402-.4609 2.1947-1.2397.4545-.7787.4545-1.7419 0-2.5206s-1.2931-1.2524-2.1947-1.2397H1170.75v5zm0-7.2204h15.8507c.9016.013 1.7402-.461 2.1947-1.2397.4545-.7788.4545-1.7419 0-2.5207-.4545-.7787-1.2931-1.2524-2.1947-1.2396H1170.75v5zm0-7.2206h15.8507c.9016.013 1.7402-.4609 2.1947-1.2396.4545-.7788.4545-1.7419 0-2.5207-.4545-.7787-1.2931-1.2524-2.1947-1.2396H1170.75v5zm0-7.2204h15.8507c.9016.013 1.7402-.4609 2.1947-1.2397.4545-.7787.4545-1.7419 0-2.5206-.4545-.7788-1.2931-1.2524-2.1947-1.2397H1170.75v5zm0-7.2205h15.8507c.9016.013 1.7402-.4609 2.1947-1.2397.4545-.7787.4545-1.7418 0-2.5206-.4545-.7787-1.2931-1.2524-2.1947-1.2397H1170.75v5zm0-7.2205h15.8507c.9016.013 1.7402-.4609 2.1947-1.2396.4545-.7788.4545-1.7419 0-2.5207-.4545-.7787-1.2931-1.2524-2.1947-1.2397H1170.75v5zm0-7.2204h15.8507c.9016.013 1.7402-.461 2.1947-1.2397.4545-.7787.4545-1.7419 0-2.5206-.4545-.7788-1.2931-1.2525-2.1947-1.2397H1170.75v5zm0-7.2205h15.8507c.9016.013 1.7402-.4609 2.1947-1.2397.4545-.7787.4545-1.7419 0-2.5206-.4545-.7788-1.2931-1.2525-2.1947-1.2397H1170.75v5zm0-7.2205h15.8507c.9016.013 1.7402-.4609 2.1947-1.2397.4545-.7787.4545-1.7419 0-2.5206s-1.2931-1.2524-2.1947-1.2397H1170.75v5zm0-7.2204h15.8507c.9016.013 1.7402-.461 2.1947-1.2397.4545-.7788.4545-1.7419 0-2.5207-.4545-.7787-1.2931-1.2524-2.1947-1.2396H1170.75v5zm0-7.2205h15.8507c.9016.013 1.7402-.461 2.1947-1.2397.4545-.7787.4545-1.7419 0-2.5206-.4545-.7788-1.2931-1.2525-2.1947-1.2397H1170.75v5zm0-7.2205h15.8507c.9016.013 1.7402-.4609 2.1947-1.2397.4545-.7787.4545-1.7419 0-2.5206s-1.2931-1.2524-2.1947-1.2397H1170.75v5zm0-7.2205h15.8507c.9016.013 1.7402-.4609 2.1947-1.2397.4545-.7787.4545-1.7419 0-2.5206s-1.2931-1.2524-2.1947-1.2397H1170.75v5zm0-7.2204h15.8507c.9016.013 1.7402-.461 2.1947-1.2397.4545-.7788.4545-1.7419 0-2.5207-.4545-.7787-1.2931-1.2524-2.1947-1.2396H1170.75v5zm0-7.2205h15.8507c.9016.013 1.7402-.4609 2.1947-1.2397.4545-.7787.4545-1.7419 0-2.5206-.4545-.7788-1.2931-1.2525-2.1947-1.2397H1170.75v5zm0-7.2205h15.8507c.9016.013 1.7402-.4609 2.1947-1.2397.4545-.7787.4545-1.7419 0-2.5206-.4545-.7788-1.2931-1.2524-2.1947-1.2397H1170.75v5zm0-7.2205h15.8507c.9016.013 1.7402-.4609 2.1947-1.2397.4545-.7787.4545-1.7418 0-2.5206-.4545-.7787-1.2931-1.2524-2.1947-1.2397H1170.75v5zm0-7.2204h15.8507c.9016.013 1.7402-.461 2.1947-1.2397.4545-.7788.4545-1.7419 0-2.5206-.4545-.7788-1.2931-1.2525-2.1947-1.2397H1170.75v5zm0-7.2205h15.8507c.9016.013 1.7402-.4609 2.1947-1.2397.4545-.7787.4545-1.7419 0-2.5206-.4545-.7788-1.2931-1.2525-2.1947-1.2397H1170.75v5zm0-7.2205h15.8507c.9016.013 1.7402-.4609 2.1947-1.2397.4545-.7787.4545-1.7419 0-2.5206s-1.2931-1.2524-2.1947-1.2397H1170.75v5zm0-7.2204h15.8507c.9016.013 1.7402-.461 2.1947-1.2397.4545-.7788.4545-1.7419 0-2.5207-.4545-.7787-1.2931-1.2524-2.1947-1.2396H1170.75v5zm0-7.2205h15.8507c.9016.013 1.7402-.461 2.1947-1.2397.4545-.7788.4545-1.7419 0-2.5206-.4545-.7788-1.2931-1.2525-2.1947-1.2397H1170.75v5zm0-7.2205h15.8507c.9016.013 1.7402-.461 2.1947-1.2397.4545-.7787.4545-1.7419 0-2.5206-.4545-.7788-1.2931-1.2525-2.1947-1.2397H1170.75v5zm0-7.2205h15.8507c.9016.013 1.7402-.4609 2.1947-1.2397.4545-.7787.4545-1.7419 0-2.5206-.4545-.7788-1.2931-1.2524-2.1947-1.2397H1170.75v5zm0-7.2204h15.8507c.9016.013 1.7402-.461 2.1947-1.2397.4545-.7788.4545-1.7419 0-2.5207-.4545-.7787-1.2931-1.2524-2.1947-1.2396H1170.75v5zm0-7.2205h15.8507c.9016.013 1.7402-.461 2.1947-1.2397.4545-.7787.4545-1.7419 0-2.5206-.4545-.7788-1.2931-1.2525-2.1947-1.2397H1170.75v5zm0-7.2205h15.8507c.9016.013 1.7402-.461 2.1947-1.2397.4545-.7787.4545-1.7419 0-2.5206-.4545-.7788-1.2931-1.2525-2.1947-1.2397H1170.75v5zm0-7.2205h15.8507c.9016.013 1.7402-.4609 2.1947-1.2397.4545-.7787.4545-1.7418 0-2.5206-.4545-.7787-1.2931-1.2524-2.1947-1.2397H1170.75v5zm0-7.2204h15.8507c.9016.013 1.7402-.461 2.1947-1.2397.4545-.7788.4545-1.7419 0-2.5206-.4545-.7788-1.2931-1.2525-2.1947-1.2397H1170.75v5zm0-7.2205h15.8507c.9016.013 1.7402-.461 2.1947-1.2397.4545-.7787.4545-1.7419 0-2.5206-.4545-.7788-1.2931-1.2525-2.1947-1.2397H1170.75v5zm0-7.2205h15.8507c.9016.013 1.7402-.4609 2.1947-1.2397.4545-.7787.4545-1.7419 0-2.5206-.4545-.7788-1.2931-1.2525-2.1947-1.2397H1170.75v5zm0-7.2205h15.8507c.9016.013 1.7402-.4609 2.1947-1.2396.4545-.7788.4545-1.7419 0-2.5207-.4545-.7787-1.2931-1.2524-2.1947-1.2397H1170.75v5zm0-7.2204h15.8507c.9016.013 1.7402-.461 2.1947-1.2397.4545-.7788.4545-1.7419 0-2.5207-.4545-.7787-1.2931-1.2524-2.1947-1.2396H1170.75v5zm0-7.2205h15.8507c.9016.013 1.7402-.461 2.1947-1.2397.4545-.7788.4545-1.7419 0-2.5207-.4545-.7787-1.2931-1.2524-2.1947-1.2396H1170.75v5zm0-7.2205h15.8507c.9016.013 1.7402-.461 2.1947-1.2397.4545-.7787.4545-1.7419 0-2.5206-.4545-.7788-1.2931-1.2525-2.1947-1.2397H1170.75v5zm0-7.2205h15.8507c.9016.013 1.7402-.4609 2.1947-1.2396.4545-.7788.4545-1.7419 0-2.5207-.4545-.7787-1.2931-1.2524-2.1947-1.2397H1170.75v5zm0-7.2205h15.8507c.9016.013 1.7402-.4609 2.1947-1.2397.4545-.7787.4545-1.7418 0-2.5206-.4545-.7787-1.2931-1.2524-2.1947-1.2397H1170.75v5zm0-7.2204h15.8507c.9016.013 1.7402-.461 2.1947-1.2397.4545-.7787.4545-1.7419 0-2.5206-.4545-.7788-1.2931-1.2525-2.1947-1.2397H1170.75v5zm0-7.2205h15.8507c.9016.013 1.7402-.4609 2.1947-1.2397.4545-.7787.4545-1.7419 0-2.5206-.4545-.7788-1.2931-1.2525-2.1947-1.2397H1170.75v5zm0-7.2205h15.8507c.9016.013 1.7402-.4609 2.1947-1.2396.4545-.7788.4545-1.7419 0-2.5207-.4545-.7787-1.2931-1.2524-2.1947-1.2397H1170.75v5zm0-7.2204h15.8507c.9016.013 1.7402-.4609 2.1947-1.2397.4545-.7787.4545-1.7419 0-2.5206-.4545-.7788-1.2931-1.2525-2.1947-1.2397H1170.75v5zm0-7.2205h15.8507c.9016.013 1.7402-.461 2.1947-1.2397.4545-.7787.4545-1.7419 0-2.5206-.4545-.7788-1.2931-1.2525-2.1947-1.2397H1170.75v5zm0-7.2205h15.8507c.9016.013 1.7402-.4609 2.1947-1.2397.4545-.7787.4545-1.7418 0-2.5206-.4545-.7787-1.2931-1.2524-2.1947-1.2397H1170.75v5zm0-7.2205h15.8507c.9016.013 1.7402-.4609 2.1947-1.2397.4545-.7787.4545-1.7419 0-2.5206s-1.2931-1.2524-2.1947-1.2397H1170.75v5zm0-7.2204h15.8507c.9016.013 1.7402-.4609 2.1947-1.2397.4545-.7787.4545-1.7419 0-2.5206-.4545-.7788-1.2931-1.2525-2.1947-1.2397H1170.75v5zm0-7.2205h15.8507c.9016.013 1.7402-.461 2.1947-1.2397.4545-.7787.4545-1.7419 0-2.5206-.4545-.7788-1.2931-1.2525-2.1947-1.2397H1170.75v5zm0-7.2205h15.8507c.9016.013 1.7402-.4609 2.1947-1.2396.4545-.7788.4545-1.7419 0-2.5207-.4545-.7787-1.2931-1.2524-2.1947-1.2397H1170.75v5zm0-7.2204h15.8507c.9016.013 1.7402-.461 2.1947-1.2397.4545-.7788.4545-1.7419 0-2.5207-.4545-.7787-1.2931-1.2524-2.1947-1.2396H1170.75v5zm0-7.2205h15.8507c.9016.013 1.7402-.4609 2.1947-1.2397.4545-.7787.4545-1.7419 0-2.5206-.4545-.7788-1.2931-1.2524-2.1947-1.2397H1170.75v5zm0-7.2205h15.8507c.9016.013 1.7402-.4609 2.1947-1.2397.4545-.7787.4545-1.7419 0-2.5206-.4545-.7788-1.2931-1.2525-2.1947-1.2397H1170.75v5zm0-7.2204h15.8507c.9016.013 1.7402-.461 2.1947-1.2397.4545-.7788.4545-1.7419 0-2.5207-.4545-.7787-1.2931-1.2524-2.1947-1.2396H1170.75v5zm0-7.2206h15.8507c.9016.013 1.7402-.4609 2.1947-1.2396.4545-.7788.4545-1.7419 0-2.5207-.4545-.7787-1.2931-1.2524-2.1947-1.2397H1170.75v5zm0-7.2204h15.8507c.9016.013 1.7402-.4609 2.1947-1.2397.4545-.7787.4545-1.7419 0-2.5206-.4545-.7788-1.2931-1.2524-2.1947-1.2397H1170.75v5zm0-7.2205h15.8507c.9016.013 1.7402-.461 2.1947-1.2397.4545-.7787.4545-1.7419 0-2.5206-.4545-.7788-1.2931-1.2525-2.1947-1.2397H1170.75v5zm0-7.2205h15.8507c.9016.013 1.7402-.4609 2.1947-1.2396.4545-.7788.4545-1.7419 0-2.5207-.4545-.7787-1.2931-1.2524-2.1947-1.2397H1170.75v5zm0-7.2204h15.8507c.9016.013 1.7402-.4609 2.1947-1.2397.4545-.7787.4545-1.7419 0-2.5206-.4545-.7788-1.2931-1.2525-2.1947-1.2397H1170.75v5zm0-7.2205h15.8507c.9016.013 1.7402-.4609 2.1947-1.2397.4545-.7787.4545-1.7419 0-2.5206-.4545-.7788-1.2931-1.2524-2.1947-1.2397H1170.75v5zm0-7.2205h15.8507c.9016.013 1.7402-.4609 2.1947-1.2396.4545-.7788.4545-1.7419 0-2.5207-.4545-.7787-1.2931-1.2524-2.1947-1.2397H1170.75v5zm0-7.2205h15.8507c.9016.013 1.7402-.4609 2.1947-1.2396.4545-.7788.4545-1.7419 0-2.5207-.4545-.7787-1.2931-1.2524-2.1947-1.2397H1170.75v5zm0-7.2204h15.8507c.9016.013 1.7402-.461 2.1947-1.2397.4545-.7787.4545-1.7419 0-2.5206-.4545-.7788-1.2931-1.2525-2.1947-1.2397H1170.75v5zm0-7.2205h15.8507c.9016.013 1.7402-.461 2.1947-1.2397.4545-.7787.4545-1.7419 0-2.5206-.4545-.7788-1.2931-1.2525-2.1947-1.2397H1170.75v5zm0-7.2205h15.8507c.9016.013 1.7402-.4609 2.1947-1.2397.4545-.7787.4545-1.7418 0-2.5206-.4545-.7787-1.2931-1.2524-2.1947-1.2397H1170.75v5zm0-7.2204h15.8507c.9016.013 1.7402-.461 2.1947-1.2397.4545-.7788.4545-1.7419 0-2.5207-.4545-.7787-1.2931-1.2524-2.1947-1.2396H1170.75v5zm0-7.2205h15.8507c.9016.013 1.7402-.461 2.1947-1.2397.4545-.7788.4545-1.7419 0-2.5207-.4545-.7787-1.2931-1.2524-2.1947-1.2396H1170.75v5zm0-7.2205h15.8507c.9016.013 1.7402-.461 2.1947-1.2397.4545-.7787.4545-1.7419 0-2.5206-.4545-.7788-1.2931-1.2525-2.1947-1.2397H1170.75v5zm0-7.2205h15.8507c.9016.013 1.7402-.4609 2.1947-1.2397.4545-.7787.4545-1.7418 0-2.5206-.4545-.7787-1.2931-1.2524-2.1947-1.2397H1170.75v5zm0-7.2204h15.8507c.9016.013 1.7402-.461 2.1947-1.2397.4545-.7787.4545-1.7419 0-2.5206-.4545-.7788-1.2931-1.2525-2.1947-1.2397H1170.75v5zm0-7.2205h15.8507c.9016.013 1.7402-.461 2.1947-1.2397.4545-.7788.4545-1.7419 0-2.5206-.4545-.7788-1.2931-1.2525-2.1947-1.2397H1170.75v5zm0-7.2205h15.8507c.9016.013 1.7402-.4609 2.1947-1.2397.4545-.7787.4545-1.7419 0-2.5206-.4545-.7788-1.2931-1.2524-2.1947-1.2397H1170.75v5zm0-7.2205h15.8507c.9016.013 1.7402-.4609 2.1947-1.2397.4545-.7787.4545-1.7419 0-2.5206-.4545-.7788-1.2931-1.2524-2.1947-1.2397H1170.75v5zm0-7.2204h15.8507c.9016.013 1.7402-.461 2.1947-1.2397.4545-.7787.4545-1.7419 0-2.5206-.4545-.7788-1.2931-1.2525-2.1947-1.2397H1170.75v5zm0-7.2205h15.8507c.9016.013 1.7402-.461 2.1947-1.2397.4545-.7788.4545-1.7419 0-2.5207-.4545-.7787-1.2931-1.2524-2.1947-1.2396H1170.75v5zm0-7.2205h15.8507c.9016.013 1.7402-.4609 2.1947-1.2397.4545-.7787.4545-1.7419 0-2.5206s-1.2931-1.2524-2.1947-1.2397H1170.75v5zm0-7.2204h15.8507c.9016.013 1.7402-.461 2.1947-1.2397.4545-.7788.4545-1.7419 0-2.5207-.4545-.7787-1.2931-1.2524-2.1947-1.2396H1170.75v5zm0-7.2206h15.8507c.9016.013 1.7402-.4609 2.1947-1.2396.4545-.7788.4545-1.7419 0-2.5207-.4545-.7787-1.2931-1.2524-2.1947-1.2397H1170.75v5zm0-7.2204h15.8507c.9016.013 1.7402-.4609 2.1947-1.2397.4545-.7787.4545-1.7419 0-2.5206-.4545-.7788-1.2931-1.2524-2.1947-1.2397H1170.75v5zm0-7.2205h15.8507c.9016.013 1.7402-.4609 2.1947-1.2397.4545-.7787.4545-1.7419 0-2.5206-.4545-.7788-1.2931-1.2524-2.1947-1.2397H1170.75v5zm0-7.2204h15.8507c.9016.013 1.7402-.461 2.1947-1.2397.4545-.7788.4545-1.7419 0-2.5207-.4545-.7787-1.2931-1.2524-2.1947-1.2396H1170.75v5zm0-7.2206h15.8507c.9016.013 1.7402-.4609 2.1947-1.2396.4545-.7788.4545-1.7419 0-2.5207-.4545-.7787-1.2931-1.2524-2.1947-1.2397H1170.75v5zm0-7.2204h15.8507c.9016.013 1.7402-.461 2.1947-1.2397.4545-.7788.4545-1.7419 0-2.5206-.4545-.7788-1.2931-1.2525-2.1947-1.2397H1170.75v5zm0-7.2205h15.8507c.9016.013 1.7402-.4609 2.1947-1.2397.4545-.7787.4545-1.7419 0-2.5206s-1.2931-1.2524-2.1947-1.2397H1170.75v5zm0-7.2204h15.8507c.9016.013 1.7402-.461 2.1947-1.2397.4545-.7788.4545-1.7419 0-2.5207-.4545-.7787-1.2931-1.2524-2.1947-1.2396H1170.75v5zm0-7.2205h15.8507c.9016.013 1.7402-.461 2.1947-1.2397.4545-.7787.4545-1.7419 0-2.5206-.4545-.7788-1.2931-1.2525-2.1947-1.2397H1170.75v5zm0-7.2205h15.8507c.9016.013 1.7402-.4609 2.1947-1.2397.4545-.7787.4545-1.7419 0-2.5206s-1.2931-1.2524-2.1947-1.2397H1170.75v5zm0-7.2205h15.8507c.9016.013 1.7402-.4609 2.1947-1.2397.4545-.7787.4545-1.7419 0-2.5206s-1.2931-1.2524-2.1947-1.2397H1170.75v5zm0-7.2204h15.8507c.9016.013 1.7402-.461 2.1947-1.2397.4545-.7788.4545-1.7419 0-2.5207-.4545-.7787-1.2931-1.2524-2.1947-1.2396H1170.75v5zm0-7.2205h15.8507c.9016.013 1.7402-.4609 2.1947-1.2397.4545-.7787.4545-1.7419 0-2.5206-.4545-.7788-1.2931-1.2524-2.1947-1.2397H1170.75v5zm0-7.2205h15.8507c.9016.013 1.7402-.4609 2.1947-1.2397.4545-.7787.4545-1.7419 0-2.5206s-1.2931-1.2524-2.1947-1.2397H1170.75v5zm.0076-7.2228h15.8507c.9016.013 1.7402-.4609 2.1947-1.2396.4545-.7788.4545-1.7419 0-2.5207-.4545-.7787-1.2931-1.2524-2.1947-1.2397h-15.8507v5zm0-7.2204h15.8507c.9016.013 1.7402-.461 2.1947-1.2397.4545-.7788.4545-1.7419 0-2.5206-.4545-.7788-1.2931-1.2525-2.1947-1.2397h-15.8507v5zm0-7.2205h15.8507c.9016.013 1.7402-.4609 2.1947-1.2397.4545-.7787.4545-1.7419 0-2.5206-.4545-.7788-1.2931-1.2525-2.1947-1.2397h-15.8507v5zm0-7.2205h15.8507c.9016.013 1.7402-.4609 2.1947-1.2397.4545-.7787.4545-1.7418 0-2.5206-.4545-.7787-1.2931-1.2524-2.1947-1.2397h-15.8507v5zm0-7.2204h15.8507c.9016.013 1.7402-.461 2.1947-1.2397.4545-.7788.4545-1.7419 0-2.5207-.4545-.7787-1.2931-1.2524-2.1947-1.2396h-15.8507v5zm0-7.2205h15.8507c.9016.013 1.7402-.461 2.1947-1.2397.4545-.7787.4545-1.7419 0-2.5206-.4545-.7788-1.2931-1.2525-2.1947-1.2397h-15.8507v5zm0-7.2205h15.8507c.9016.013 1.7402-.4609 2.1947-1.2397.4545-.7787.4545-1.7419 0-2.5206-.4545-.7788-1.2931-1.2524-2.1947-1.2397h-15.8507v5zm0-7.2205h15.8507c.9016.013 1.7402-.4609 2.1947-1.2397.4545-.7787.4545-1.7418 0-2.5206-.4545-.7787-1.2931-1.2524-2.1947-1.2397h-15.8507v5zm0-7.2204h15.8507c.9016.013 1.7402-.461 2.1947-1.2397.4545-.7788.4545-1.7419 0-2.5207-.4545-.7787-1.2931-1.2524-2.1947-1.2396h-15.8507v5zm0-7.2205h15.8507c.9016.013 1.7402-.461 2.1947-1.2397.4545-.7787.4545-1.7419 0-2.5206-.4545-.7788-1.2931-1.2525-2.1947-1.2397h-15.8507v5zm0-7.2205h15.8507c.9016.013 1.7402-.4609 2.1947-1.2397.4545-.7787.4545-1.7419 0-2.5206s-1.2931-1.2524-2.1947-1.2397h-15.8507v5zm0-7.2205h15.8507c.9016.013 1.7402-.4609 2.1947-1.2396.4545-.7788.4545-1.7419 0-2.5207-.4545-.7787-1.2931-1.2524-2.1947-1.2397h-15.8507v5zm0-7.2204h15.8507c.9016.013 1.7402-.461 2.1947-1.2397.4545-.7788.4545-1.7419 0-2.5207-.4545-.7787-1.2931-1.2524-2.1947-1.2396h-15.8507v5zm0-7.2205h15.8507c.9016.013 1.7402-.461 2.1947-1.2397.4545-.7787.4545-1.742 0-2.5207-.4545-.7788-1.2931-1.2525-2.1947-1.2397h-15.8507v5.0001zm0-7.2206h15.8507c.9016.013 1.7402-.4609 2.1947-1.2397.4545-.7787.4545-1.7419 0-2.5206s-1.2931-1.2524-2.1947-1.2397h-15.8507v5z"/>
  </g>
</svg>