<?xml version="1.0" encoding="UTF-8" standalone="no"?>
<!-- Created with Inkscape (http://www.inkscape.org/) -->

<svg
   xmlns:dc="http://purl.org/dc/elements/1.1/"
   xmlns:cc="http://creativecommons.org/ns#"
   xmlns:rdf="http://www.w3.org/1999/02/22-rdf-syntax-ns#"
   xmlns:svg="http://www.w3.org/2000/svg"
   xmlns="http://www.w3.org/2000/svg"
   xmlns:sodipodi="http://sodipodi.sourceforge.net/DTD/sodipodi-0.dtd"
   xmlns:inkscape="http://www.inkscape.org/namespaces/inkscape"
   id="svg2"
   sodipodi:version="0.32"
   inkscape:version="0.48.5 r10040"
   width="750"
   height="500"
   version="1.0"
   sodipodi:docname="Flag_of_Molise.svg"
   inkscape:output_extension="org.inkscape.output.svg.inkscape"
   sodipodi:modified="true">
  <metadata
     id="metadata7">
    <rdf:RDF>
      <cc:Work
         rdf:about="">
        <dc:format>image/svg+xml</dc:format>
        <dc:type
           rdf:resource="http://purl.org/dc/dcmitype/StillImage" />
      </cc:Work>
    </rdf:RDF>
  </metadata>
  <defs
     id="defs5" />
  <sodipodi:namedview
     inkscape:window-height="1001"
     inkscape:window-width="1920"
     inkscape:pageshadow="2"
     inkscape:pageopacity="0.0"
     guidetolerance="10.0"
     gridtolerance="10.0"
     objecttolerance="10.0"
     borderopacity="1.0"
     bordercolor="#666666"
     pagecolor="#ffffff"
     id="base"
     inkscape:zoom="0.76041668"
     inkscape:cx="494.41428"
     inkscape:cy="175.99794"
     inkscape:window-x="-9"
     inkscape:window-y="-9"
     inkscape:current-layer="svg2"
     showgrid="false"
     inkscape:window-maximized="1" />
  <rect
     style="fill:#0085ce;fill-opacity:1;fill-rule:evenodd;stroke:none"
     id="rect3837"
     width="750"
     height="500"
     x="0"
     y="0" />
  <g
     transform="matrix(0.88562926,0,0,0.88399699,629.90343,83.02161)"
     style="font-size:37px;font-style:normal;font-variant:normal;font-weight:normal;font-stretch:normal;text-indent:0;text-align:start;text-decoration:none;line-height:125%;letter-spacing:0px;word-spacing:0px;text-transform:none;direction:ltr;block-progression:tb;writing-mode:lr-tb;text-anchor:start;baseline-shift:baseline;color:#000000;fill:#ffffff;fill-opacity:1;fill-rule:nonzero;stroke:#fbffff;stroke-width:2.26036549;stroke-miterlimit:4;stroke-opacity:1;stroke-dasharray:none;marker:none;visibility:visible;display:inline;overflow:visible;enable-background:accumulate;font-family:Arial;-inkscape-font-specification:Arial"
     id="text3880">
    <path
       d="m -443.07866,241.17335 23.92636,-11.35795 5.03593,10.60855 c 1.01232,2.13258 1.56702,3.8558 1.6641,5.16964 0.097,1.31383 -0.24094,2.56085 -1.0139,3.74108 -0.77302,1.18021 -1.81778,2.08281 -3.1343,2.70779 -1.6974,0.80574 -3.38902,0.93547 -5.07489,0.38921 -1.68591,-0.54629 -3.23154,-1.89243 -4.63688,-4.03843 -0.005,1.0289 -0.0999,1.85393 -0.28496,2.47511 -0.40967,1.32771 -1.05474,2.70718 -1.9352,4.13843 l -4.53638,7.2531 -1.89041,-3.98228 3.47482,-5.52926 c 0.99719,-1.60665 1.73458,-2.88995 2.21215,-3.84993 0.47755,-0.95999 0.75632,-1.74895 0.83631,-2.36686 0.08,-0.61794 0.0636,-1.20012 -0.0491,-1.74655 -0.0943,-0.39522 -0.33513,-1.00085 -0.72249,-1.81689 l -1.74321,-3.67219 -10.62487,5.04368 z m 14.8698,-3.17902 3.23074,6.80579 c 0.68694,1.44711 1.37371,2.50766 2.06033,3.18168 0.68657,0.67399 1.45972,1.06692 2.31945,1.17879 0.85969,0.11184 1.67581,-0.0156 2.44835,-0.3823 1.13155,-0.53717 1.86686,-1.38953 2.20592,-2.55706 0.33901,-1.16755 0.0876,-2.63808 -0.7543,-4.41161 l -3.59488,-7.57287 z"
       style="font-size:37px;font-style:normal;font-variant:normal;font-weight:normal;font-stretch:normal;fill:#ffffff;stroke:#fbffff;stroke-width:2.26036549;stroke-miterlimit:4;stroke-opacity:1;stroke-dasharray:none;marker:none;font-family:Harlow Solid Italic;-inkscape-font-specification:Harlow Solid Italic"
       id="path3890"
       inkscape:connector-curvature="0" />
    <path
       d="m -427.02485,270.85225 21.93971,-14.83654 10.72764,15.86364 -2.58906,1.75083 -8.76429,-12.96029 -6.7196,4.54407 8.20767,12.13718 -2.5741,1.74071 -8.20766,-12.13718 -7.46789,5.05009 9.10838,13.46913 -2.58906,1.75083 z"
       style="font-size:37px;font-style:normal;font-variant:normal;font-weight:normal;font-stretch:normal;fill:#ffffff;stroke:#fbffff;stroke-width:2.26036549;stroke-miterlimit:4;stroke-opacity:1;stroke-dasharray:none;marker:none;font-family:Harlow Solid Italic;-inkscape-font-specification:Harlow Solid Italic"
       id="path3892"
       inkscape:connector-curvature="0" />
    <path
       d="m -392.32641,297.08924 2.36192,-2.01926 7.30419,8.5159 -7.47027,6.38648 c -2.16285,-0.41691 -4.10229,-1.09611 -5.81831,-2.03758 -1.71605,-0.94151 -3.20019,-2.14463 -4.45243,-3.60938 -1.69055,-1.97743 -2.80311,-4.13603 -3.33768,-6.47579 -0.53458,-2.33977 -0.35303,-4.60644 0.54467,-6.80002 0.89768,-2.19357 2.33523,-4.13563 4.31266,-5.82617 1.9591,-1.67488 4.138,-2.82856 6.5367,-3.46105 2.39866,-0.63247 4.66739,-0.53191 6.80621,0.30168 2.13876,0.83362 4.06516,2.25286 5.77921,4.25774 1.24439,1.45561 2.13373,2.97314 2.66801,4.55259 0.53421,1.57945 0.66588,3.06334 0.39502,4.45168 -0.27093,1.38834 -0.93512,2.83562 -1.99258,4.34183 l -2.71362,-1.8396 c 0.76703,-1.17869 1.25176,-2.24277 1.45419,-3.19225 0.20237,-0.94948 0.12369,-1.99142 -0.23604,-3.12583 -0.35979,-1.1344 -0.97405,-2.20969 -1.84277,-3.22587 -1.04096,-1.21757 -2.1264,-2.11188 -3.25632,-2.68292 -1.12997,-0.57102 -2.22988,-0.87062 -3.29975,-0.89878 -1.06992,-0.0281 -2.09561,0.11588 -3.0771,0.43206 -1.68335,0.55176 -3.25281,1.44984 -4.7084,2.69426 -1.79434,1.53401 -3.03157,3.12654 -3.71169,4.77759 -0.68014,1.65105 -0.80834,3.31751 -0.38461,4.99937 0.42371,1.68186 1.203,3.18651 2.33787,4.51395 0.98613,1.15349 2.1708,2.08973 3.55401,2.80872 1.38318,0.71896 2.56915,1.14702 3.55793,1.28417 l 3.74886,-3.20499 z"
       style="font-size:37px;font-style:normal;font-variant:normal;font-weight:normal;font-stretch:normal;fill:#ffffff;stroke:#fbffff;stroke-width:2.26036549;stroke-miterlimit:4;stroke-opacity:1;stroke-dasharray:none;marker:none;font-family:Harlow Solid Italic;-inkscape-font-specification:Harlow Solid Italic"
       id="path3894"
       inkscape:connector-curvature="0" />
    <path
       d="m -384.15936,321.045 18.56699,-18.88758 2.49945,2.45702 -18.56699,18.88758 z"
       style="font-size:37px;font-style:normal;font-variant:normal;font-weight:normal;font-stretch:normal;fill:#ffffff;stroke:#fbffff;stroke-width:2.26036549;stroke-miterlimit:4;stroke-opacity:1;stroke-dasharray:none;marker:none;font-family:Harlow Solid Italic;-inkscape-font-specification:Harlow Solid Italic"
       id="path3896"
       inkscape:connector-curvature="0" />
    <path
       d="m -362.21411,319.13605 c 2.76101,-3.42095 5.84105,-5.35782 9.24013,-5.81062 3.39905,-0.45277 6.55131,0.49332 9.45681,2.83828 1.90259,1.5356 3.25088,3.37445 4.04487,5.51658 0.79394,2.14214 0.93538,4.34965 0.42433,6.62254 -0.51112,2.27288 -1.59875,4.4403 -3.26289,6.50225 -1.6869,2.09006 -3.61777,3.61947 -5.79261,4.58824 -2.17489,0.96875 -4.37784,1.25316 -6.60887,0.85325 -2.23106,-0.39993 -4.24165,-1.3223 -6.03178,-2.76709 -1.94012,-1.56585 -3.29581,-3.4339 -4.06707,-5.60415 -0.77128,-2.17025 -0.89623,-4.3838 -0.37487,-6.64066 0.52135,-2.25685 1.512,-4.28972 2.97195,-6.09862 z m 2.77771,2.31151 c -2.00459,2.48372 -2.91588,4.97919 -2.73387,7.48643 0.182,2.50723 1.28054,4.57403 3.29564,6.20039 2.05256,1.6566 4.32441,2.29841 6.81556,1.92543 2.49111,-0.37301 4.80704,-1.88571 6.9478,-4.53812 1.35401,-1.67768 2.25244,-3.37095 2.69528,-5.07983 0.44279,-1.70887 0.39625,-3.34838 -0.13963,-4.91852 -0.53594,-1.57013 -1.4834,-2.90362 -2.84238,-4.00047 -1.93076,-1.55827 -4.12722,-2.23596 -6.58938,-2.03308 -2.4622,0.2029 -4.94521,1.85549 -7.44902,4.95777 z"
       style="font-size:37px;font-style:normal;font-variant:normal;font-weight:normal;font-stretch:normal;fill:#ffffff;stroke:#fbffff;stroke-width:2.26036549;stroke-miterlimit:4;stroke-opacity:1;stroke-dasharray:none;marker:none;font-family:Harlow Solid Italic;-inkscape-font-specification:Harlow Solid Italic"
       id="path3898"
       inkscape:connector-curvature="0" />
    <path
       d="m -337.11002,351.36168 4.48692,-26.10252 3.54324,0.60907 10.18724,22.85056 3.52281,-20.49386 3.31177,0.56928 -4.48692,26.10252 -3.54324,-0.60906 -10.18418,-22.86838 -3.52587,20.51168 z"
       style="font-size:37px;font-style:normal;font-variant:normal;font-weight:normal;font-stretch:normal;fill:#ffffff;stroke:#fbffff;stroke-width:2.26036549;stroke-miterlimit:4;stroke-opacity:1;stroke-dasharray:none;marker:none;font-family:Harlow Solid Italic;-inkscape-font-specification:Harlow Solid Italic"
       id="path3900"
       inkscape:connector-curvature="0" />
    <path
       d="m -302.93745,357.40515 0.0505,-26.4853 19.15035,0.0365 -0.006,3.12546 -15.64548,-0.0298 -0.0155,8.11181 14.65183,0.0279 -0.006,3.10742 -14.65183,-0.0279 -0.0172,9.01511 16.25975,0.031 -0.006,3.12549 z"
       style="font-size:37px;font-style:normal;font-variant:normal;font-weight:normal;font-stretch:normal;fill:#ffffff;stroke:#fbffff;stroke-width:2.26036549;stroke-miterlimit:4;stroke-opacity:1;stroke-dasharray:none;marker:none;font-family:Harlow Solid Italic;-inkscape-font-specification:Harlow Solid Italic"
       id="path3902"
       inkscape:connector-curvature="0" />
    <path
       d="m -251.32075,352.77005 -11.21331,-23.99447 4.77943,-2.23313 13.61905,14.33509 c 1.26314,1.33742 2.19831,2.34285 2.80553,3.01628 -0.13521,-1.00039 -0.30874,-2.48137 -0.52085,-4.44292 l -2.05698,-19.37944 4.27185,-1.99641 11.21331,23.99447 -3.06063,1.43052 -9.38523,-20.0827 2.41277,23.34113 -2.86413,1.33888 -16.48562,-17.18325 9.54585,20.42641 z"
       style="font-size:37px;font-style:normal;font-variant:normal;font-weight:normal;font-stretch:normal;fill:#ffffff;stroke:#fbffff;stroke-width:2.26036549;stroke-miterlimit:4;stroke-opacity:1;stroke-dasharray:none;marker:none;font-family:Harlow Solid Italic;-inkscape-font-specification:Harlow Solid Italic"
       id="path3904"
       inkscape:connector-curvature="0" />
    <path
       d="m -224.71628,324.25654 c -2.04856,-3.88967 -2.60799,-7.48483 -1.67828,-10.78548 0.92972,-3.30063 3.04636,-5.8209 6.34992,-7.56082 2.16329,-1.1393 4.38565,-1.64956 6.66712,-1.53072 2.28143,0.11888 4.36461,0.86284 6.24953,2.23186 1.88491,1.36908 3.44475,3.22585 4.67951,5.57028 1.25157,2.37646 1.89173,4.75503 1.9203,7.13573 0.0287,2.38072 -0.58217,4.5163 -1.83256,6.40679 -1.25043,1.8905 -2.89335,3.37174 -4.92877,4.44373 -2.20592,1.1618 -4.45802,1.66729 -6.7563,1.51645 -2.29829,-0.15082 -4.38049,-0.91231 -6.24661,-2.28446 -1.86613,-1.37214 -3.34079,-3.08658 -4.42401,-5.14332 z m 3.22224,-1.6358 c 1.48732,2.82401 3.41821,4.64869 5.7927,5.47404 2.37448,0.82537 4.7073,0.6347 6.99849,-0.57204 2.33379,-1.22913 3.82248,-3.06135 4.46608,-5.49665 0.64358,-2.43526 0.1712,-5.16083 -1.41709,-8.17668 -1.00466,-1.90752 -2.20397,-3.40284 -3.59796,-4.48597 -1.39401,-1.08309 -2.91801,-1.68934 -4.57203,-1.81877 -1.65403,-0.12938 -3.25364,0.21278 -4.79884,1.02662 -2.19528,1.1562 -3.68708,2.90497 -4.47543,5.24632 -0.78833,2.34139 -0.25363,5.27576 1.60411,8.80308 z"
       style="font-size:37px;font-style:normal;font-variant:normal;font-weight:normal;font-stretch:normal;fill:#ffffff;stroke:#fbffff;stroke-width:2.26036549;stroke-miterlimit:4;stroke-opacity:1;stroke-dasharray:none;marker:none;font-family:Harlow Solid Italic;-inkscape-font-specification:Harlow Solid Italic"
       id="path3906"
       inkscape:connector-curvature="0" />
    <path
       d="m -187.87515,313.2197 -19.79794,-17.59303 2.32813,-2.61994 17.46163,15.51693 8.6645,-9.75042 2.33632,2.07611 z"
       style="font-size:37px;font-style:normal;font-variant:normal;font-weight:normal;font-stretch:normal;fill:#ffffff;stroke:#fbffff;stroke-width:2.26036549;stroke-miterlimit:4;stroke-opacity:1;stroke-dasharray:none;marker:none;font-family:Harlow Solid Italic;-inkscape-font-specification:Harlow Solid Italic"
       id="path3908"
       inkscape:connector-curvature="0" />
    <path
       d="m -168.36107,292.29184 -21.62683,-15.28899 2.02323,-2.86195 21.62684,15.28899 z"
       style="font-size:37px;font-style:normal;font-variant:normal;font-weight:normal;font-stretch:normal;fill:#ffffff;stroke:#fbffff;stroke-width:2.26036549;stroke-miterlimit:4;stroke-opacity:1;stroke-dasharray:none;marker:none;font-family:Harlow Solid Italic;-inkscape-font-specification:Harlow Solid Italic"
       id="path3910"
       inkscape:connector-curvature="0" />
    <path
       d="m -164.76932,276.2814 1.32736,-3.04176 c 1.23843,0.49614 2.36729,0.69604 3.38663,0.59971 1.01932,-0.0962 2.04704,-0.54806 3.08323,-1.3552 1.03616,-0.80716 1.91425,-1.87183 2.63429,-3.19403 0.6394,-1.17409 1.02939,-2.30572 1.16998,-3.39491 0.14056,-1.08917 0.0263,-2.01884 -0.34288,-2.78904 -0.36909,-0.77021 -0.91336,-1.35111 -1.63263,-1.74284 -0.72984,-0.39745 -1.48235,-0.53296 -2.2575,-0.40652 -0.77515,0.12644 -1.6128,0.57541 -2.51298,1.34693 -0.58311,0.4916 -1.713,1.66602 -3.3896,3.52326 -1.67659,1.85731 -2.97561,3.09047 -3.89704,3.69954 -1.18655,0.79384 -2.35924,1.22837 -3.51796,1.30365 -1.1587,0.0753 -2.27224,-0.178 -3.34059,-0.75981 -1.17406,-0.63937 -2.09003,-1.5702 -2.74786,-2.79248 -0.65787,-1.22221 -0.9026,-2.61732 -0.73491,-4.18514 0.16816,-1.56788 0.6785,-3.13457 1.53101,-4.70005 0.93896,-1.7241 2.04467,-3.09339 3.31713,-4.10789 1.27248,-1.01446 2.64115,-1.58227 4.10599,-1.70342 1.46487,-0.12113 2.89394,0.16344 4.28722,0.8536 l -1.38502,3.07209 c -1.55667,-0.64201 -2.95964,-0.71005 -4.20892,-0.20411 -1.24927,0.50599 -2.36064,1.65277 -3.33417,3.44035 -1.0138,1.86164 -1.41144,3.40398 -1.19292,4.62698 0.2187,1.22302 0.8091,2.09665 1.77163,2.62083 0.83563,0.4551 1.68734,0.52804 2.55512,0.21891 0.86205,-0.29849 2.25716,-1.54451 4.18538,-3.73794 1.92821,-2.19336 3.35734,-3.64026 4.28734,-4.34067 1.36139,-1.01404 2.69642,-1.58301 4.00505,-1.70695 1.30868,-0.12353 2.58703,0.15401 3.83519,0.83371 1.23755,0.67399 2.21074,1.66341 2.91956,2.96829 0.70881,1.3049 1.00579,2.78673 0.89116,4.44537 -0.11473,1.65869 -0.62427,3.31838 -1.52866,4.97902 -1.14631,2.10493 -2.4136,3.70166 -3.80185,4.79022 -1.38828,1.08858 -2.91885,1.70194 -4.59181,1.83999 -1.67292,0.13833 -3.29836,-0.19509 -4.87631,-0.99955 z"
       style="font-size:37px;font-style:normal;font-variant:normal;font-weight:normal;font-stretch:normal;fill:#ffffff;stroke:#fbffff;stroke-width:2.26036549;stroke-miterlimit:4;stroke-opacity:1;stroke-dasharray:none;marker:none;font-family:Harlow Solid Italic;-inkscape-font-specification:Harlow Solid Italic"
       id="path3912"
       inkscape:connector-curvature="0" />
    <path
       d="m -140.95915,253.21866 -23.97795,-11.24859 8.13337,-17.33742 2.8296,1.32744 -6.64482,14.16433 7.34387,3.44517 6.22279,-13.26476 2.81325,1.31976 -6.2228,13.26475 8.16166,3.82883 6.90571,-14.72043 2.82958,1.32742 z"
       style="font-size:37px;font-style:normal;font-variant:normal;font-weight:normal;font-stretch:normal;fill:#ffffff;stroke:#fbffff;stroke-width:2.26036549;stroke-miterlimit:4;stroke-opacity:1;stroke-dasharray:none;marker:none;font-family:Harlow Solid Italic;-inkscape-font-specification:Harlow Solid Italic"
       id="path3914"
       inkscape:connector-curvature="0" />
  </g>
  <g
     id="g3015"
     transform="translate(256.7,100)">
    <path
       sodipodi:nodetypes="ccccc"
       inkscape:connector-curvature="0"
       id="path3049-9"
       d="m 6,7 8.6e-5,32.891628 C 6.0388438,98.466249 19.201531,216.47157 118.5,247.5 217.79964,216.47121 230.96146,98.46346 230.99992,39.889551 L 231,7"
       style="fill:#d71919;fill-opacity:1;stroke:#bebebe;stroke-width:12;stroke-linecap:butt;stroke-linejoin:miter;stroke-miterlimit:4;stroke-opacity:1;stroke-dasharray:none" />
    <path
       transform="matrix(0.81472105,0,0,0.81355632,150.27719,54.56679)"
       d="m -94.826052,21.417974 -17.425228,-5.836683 -8.19434,16.448654 -8.19434,-16.448653 -17.42522,5.836682 5.83668,-17.4252263 -16.44865,-8.1943391 16.44865,-8.1943376 -5.83668,-17.425228 17.42522,5.836683 8.19434,-16.448654 8.19434,16.448653 17.425228,-5.836682 -5.836688,17.425226 16.448659,8.1943394 -16.448649,8.1943376 z"
       inkscape:randomized="0"
       inkscape:rounded="0"
       inkscape:flatsided="false"
       sodipodi:arg2="1.1780972"
       sodipodi:arg1="0.78539816"
       sodipodi:r2="21.412838"
       sodipodi:r1="36.231537"
       sodipodi:cy="-4.2015915"
       sodipodi:cx="-120.44562"
       sodipodi:sides="8"
       id="path2784-4"
       style="fill:#bebebe;fill-opacity:1;fill-rule:evenodd;stroke:none"
       sodipodi:type="star" />
    <path
       sodipodi:nodetypes="cccccc"
       inkscape:connector-curvature="0"
       id="path2781-8"
       d="M 203.45367,11.23086 36.930294,170.18169 c 6.87661,15.95951 15.58882,30.36494 26.635463,41.18288 L 228.75091,53.68845 228.08243,11.861158 z"
       style="fill:#bebebe;fill-opacity:1;fill-rule:evenodd;stroke:none" />
    <rect
       y="0.49975443"
       x="0.0016096684"
       height="12"
       width="236.99615"
       id="rect2986"
       style="fill:#bebebe;fill-opacity:1;fill-rule:evenodd;stroke:none" />
  </g>
</svg>
