<?xml version="1.0" encoding="UTF-8"?>
<svg version="1.1" viewBox="0 0 700 466.67" xml:space="preserve" xmlns="http://www.w3.org/2000/svg" xmlns:cc="http://creativecommons.org/ns#" xmlns:dc="http://purl.org/dc/elements/1.1/" xmlns:rdf="http://www.w3.org/1999/02/22-rdf-syntax-ns#" xmlns:xlink="http://www.w3.org/1999/xlink"><metadata><rdf:RDF><cc:Work rdf:about=""><dc:format>image/svg+xml</dc:format><dc:type rdf:resource="http://purl.org/dc/dcmitype/StillImage"/></cc:Work></rdf:RDF></metadata><defs><linearGradient id="b" x1="882.59" x2="886.14" y1="-54.041" y2="-54.041" gradientTransform="rotate(180 620.2 322.57)" gradientUnits="userSpaceOnUse"><stop stop-color="#c89937" offset="0"/><stop stop-color="#cca246" offset=".55"/><stop stop-color="#c3922e" offset="1"/></linearGradient><radialGradient id="d" cx="300" cy="210.57" r="111.11" gradientTransform="matrix(1 0 0 1.2307 0 -48.58)" gradientUnits="userSpaceOnUse" xlink:href="#b"/><clipPath id="f"><path d="m188.89 73.823v223.87c0 24.063 22.709 34.326 48.263 35.829 14.06 0.82702 31.514 1.8418 44.668 3.0643 13.016 1.2225 18.209 10.725 18.209 10.725s5.1928-9.5026 18.209-10.725c13.154-1.2225 30.608-2.2373 44.668-3.0643 25.554-1.5032 48.204-11.766 48.204-35.829v-223.87z"/></clipPath><clipPath id="g"><path id="a" d="m188.89 73.823v223.87c0 24.063 22.709 34.326 48.263 35.829 14.06 0.82702 31.514 1.8418 44.668 3.0643 13.016 1.2225 18.209 10.725 18.209 10.725s5.1928-9.5026 18.209-10.725c13.154-1.2225 30.608-2.2373 44.668-3.0643 25.554-1.5032 48.204-11.766 48.204-35.829v-223.87z"/></clipPath><linearGradient id="e" x1="188.15" x2="411.85" y1="210.97" y2="210.97" gradientUnits="userSpaceOnUse" xlink:href="#b"/></defs><rect y=".0030002" width="700" height="466.67" fill="#1b2f8d"/><g transform="matrix(1.5723 0 0 1.5723 156.59 134.03)"><use transform="matrix(.63247 0 0 .64325 -66.867 -72.893)" width="600" height="400" fill="#ffffff" xlink:href="#a"/><path transform="matrix(.63247 0 0 .64325 -66.741 -72.893)" d="m137.2 0 318.4 400" clip-path="url(#f)" fill="none" stroke="url(#d)" stroke-width="51.498"/><path transform="matrix(.63247 0 0 .64325 -66.867 -72.893)" d="m137.2 0 318.4 400" clip-path="url(#g)" fill="none" stroke="#d20019" stroke-width="45.853"/><use transform="matrix(.63247 0 0 .64325 -66.867 -72.893)" width="600" height="400" fill="none" stroke="url(#e)" stroke-width="1.9807" xlink:href="#a"/></g></svg>
