<?xml version="1.0" encoding="UTF-8" standalone="no"?>
<svg
   xmlns:dc="http://purl.org/dc/elements/1.1/"
   xmlns:cc="http://creativecommons.org/ns#"
   xmlns:rdf="http://www.w3.org/1999/02/22-rdf-syntax-ns#"
   xmlns:svg="http://www.w3.org/2000/svg"
   xmlns="http://www.w3.org/2000/svg"
   xmlns:sodipodi="http://sodipodi.sourceforge.net/DTD/sodipodi-0.dtd"
   xmlns:inkscape="http://www.inkscape.org/namespaces/inkscape"
   width="890"
   height="593.34003"
   id="svg2"
   version="1.1"
   inkscape:version="1.0.2-2 (e86c870879, 2021-01-15)"
   sodipodi:docname="Flag_of_Basilicata.svg">
  <defs
     id="defs4" />
  <sodipodi:namedview
     id="base"
     pagecolor="#ffffff"
     bordercolor="#666666"
     borderopacity="1.0"
     inkscape:pageopacity="0.0"
     inkscape:pageshadow="2"
     inkscape:zoom="0.3359281"
     inkscape:cx="454.37276"
     inkscape:cy="522.8336"
     inkscape:document-units="px"
     inkscape:current-layer="layer1"
     showgrid="false"
     inkscape:window-width="1920"
     inkscape:window-height="1001"
     inkscape:window-x="-9"
     inkscape:window-y="-9"
     inkscape:window-maximized="1"
     inkscape:document-rotation="0" />
  <metadata
     id="metadata7">
    <rdf:RDF>
      <cc:Work
         rdf:about="">
        <dc:format>image/svg+xml</dc:format>
        <dc:type
           rdf:resource="http://purl.org/dc/dcmitype/StillImage" />
        <dc:title />
      </cc:Work>
    </rdf:RDF>
  </metadata>
  <g
     inkscape:label="Livello 1"
     inkscape:groupmode="layer"
     id="layer1"
     transform="translate(0,-459.02221)">
    <rect
       style="fill:#2c4878;fill-opacity:1;fill-rule:evenodd;stroke:none"
       id="rect2988"
       width="890"
       height="593.33301"
       x="0"
       y="459.02917" />
    <path
       inkscape:connector-curvature="0"
       style="fill:#c5c5c5;fill-opacity:1;stroke:none"
       d="m 581.71429,892.14737 c 0,5.1176 -4.15159,9.2663 -9.27276,9.2663 -34.34344,0 -68.68686,0 -103.03031,0 -13.65646,0 -24.72724,11.0631 -24.72724,24.71001 0,-13.64691 -11.07079,-24.71001 -24.72725,-24.71001 -32.46442,0 -70.55659,-10e-5 -100.9697,-10e-5 -5.12113,0 -9.27274,-4.1486 -9.27274,-9.2662 l 2e-5,-314.02362 271.99995,0 z"
       id="path3788-7-4-1-7"
       sodipodi:nodetypes="cccccccccc" />
    <path
       inkscape:connector-curvature="0"
       style="fill:none;stroke:#2c4878;stroke-width:8;stroke-linecap:butt;stroke-linejoin:miter;stroke-miterlimit:4;stroke-opacity:1;stroke-dasharray:none;stroke-dashoffset:0"
       d="m 581,895.71877 c 0,5.1177 -4.15159,9.2663 -9.27277,9.2663 -34.34343,0 -68.68686,0 -103.0303,0 -13.65647,0 -24.72724,11.0631 -24.72724,24.71011 0,-13.64701 -11.07079,-24.71011 -24.72727,-24.71011 -32.4644,1e-4 -70.55657,0 -100.96968,0 -5.12113,0 -9.27274,-4.1486 -9.27274,-9.2663 l 2e-5,-314.02358 271.99995,0 z"
       id="path3788-7-4-7"
       sodipodi:nodetypes="cccccccccc" />
    <path
       sodipodi:nodetypes="cscscscscscscscscsccscscscscscscscscscc"
       inkscape:connector-curvature="0"
       id="path4208-9"
       d="m 583.05471,771.40467 c -4.13054,3.3633 -9.40155,5.3798 -15.14353,5.3798 -5.74561,0 -11.01964,-2.019 -15.33143,-5.2605 -4.20635,-2.9278 -9.22592,-4.7395 -14.66863,-4.7395 -5.50945,0 -10.58529,1.8564 -14.77038,4.8185 -4.25753,3.1807 -9.50996,5.1815 -15.22967,5.1815 -5.75695,0 -11.04048,-2.027 -15.34991,-5.2753 -4.19818,-2.9167 -9.21301,-4.7247 -14.65012,-4.7247 -5.51143,0 -10.58892,1.8578 -14.74333,4.7965 -4.23495,3.1837 -9.50997,5.2035 -15.25674,5.2035 -5.75514,0 -11.03712,-2.0257 -15.31005,-5.2448 -4.17499,-2.9244 -9.2187,-4.7552 -14.69001,-4.7552 -5.48755,0 -10.54498,1.8417 -14.7474,4.801 -4.28261,3.1989 -9.53405,5.199 -15.25264,5.199 -5.78503,0 -11.092,-2.0468 -15.37389,-5.2953 -4.16385,-2.893 -9.18343,-4.7047 -14.62614,-4.7047 -5.48155,0 -10.53386,1.8377 -14.72783,4.7854 -4.28021,3.2061 -9.54166,5.2146 -15.27223,5.2146 -5.95187,0 -11.3977,-2.1665 -15.59188,-5.754 l -0.65095,11.4226 c 4.27397,3.9311 9.97808,6.3314 16.24283,6.3314 5.73195,0 10.99456,-2.0094 15.25771,-5.2036 4.18177,-2.949 9.24632,-4.7964 14.74235,-4.7964 5.44707,0 10.47031,1.8147 14.68122,4.7494 4.31241,3.2367 9.58042,5.2506 15.31881,5.2506 5.75119,0 11.02987,-2.0229 15.2901,-5.2294 4.1688,-2.9303 9.22443,-4.7706 14.70994,-4.7706 5.45823,0 10.49088,1.8221 14.66683,4.737 4.28125,3.2316 9.56999,5.263 15.33323,5.263 5.71955,0 10.97183,-2.0007 15.27696,-5.2177 4.21697,-2.9547 9.2566,-4.7823 14.72311,-4.7823 5.44387,0 10.46438,1.8125 14.6135,4.6942 4.27077,3.2498 9.58856,5.3058 15.38653,5.3058 5.73873,0 11.00706,-2.0142 15.27355,-5.2161 4.18013,-2.9417 9.23819,-4.7839 14.7265,-4.7839 5.44649,0 10.46922,1.8143 14.70127,4.8886 4.23209,3.0744 9.52754,5.1114 15.29879,5.1114 5.73419,0 10.99872,-2.011 15.12672,-5.3662 z"
       style="fill:#2c4878;fill-opacity:1;stroke:none" />
    <path
       sodipodi:nodetypes="cscscscscscscscscsccscscscscscscscscscc"
       inkscape:connector-curvature="0"
       id="path4210-3"
       d="m 583.05471,747.40463 c -4.13054,3.36338 -9.40155,5.37984 -15.14353,5.37984 -5.74561,0 -11.01964,-2.019 -15.33143,-5.26054 -4.20635,-2.92772 -9.22592,-4.73944 -14.66863,-4.73944 -5.50945,0 -10.58529,1.85642 -14.77038,4.81852 -4.25753,3.18062 -9.50996,5.18146 -15.22967,5.18146 -5.75695,0 -11.04048,-2.02698 -15.34991,-5.27528 -4.19818,-2.9167 -9.21301,-4.7247 -14.65012,-4.7247 -5.51143,0 -10.58892,1.85774 -14.74333,4.79644 -4.23495,3.1837 -9.50997,5.20354 -15.25674,5.20354 -5.75514,0 -11.03712,-2.0257 -15.31005,-5.24484 -4.17499,-2.92432 -9.2187,-4.75514 -14.69001,-4.75514 -5.48755,0 -10.54498,1.8417 -14.7474,4.80096 -4.28261,3.19896 -9.53405,5.19902 -15.25264,5.19902 -5.78503,0 -11.092,-2.04678 -15.37389,-5.29532 -4.16385,-2.89294 -9.18343,-4.70466 -14.62614,-4.70466 -5.48155,0 -10.53386,1.83764 -14.72783,4.78536 -4.28021,3.20616 -9.54166,5.21462 -15.27223,5.21462 -7.38139,0 -13.98446,-3.33224 -18.38701,-8.57448 l 0.33536,12.39076 c 4.39887,5.0165 10.85538,8.18372 18.05165,8.18372 5.73195,0 10.99456,-2.0094 15.25771,-5.20356 4.18177,-2.94904 9.24632,-4.79642 14.74235,-4.79642 5.44707,0 10.47031,1.81464 14.68122,4.74942 4.31241,3.23664 9.58042,5.25056 15.31881,5.25056 5.75119,0 11.02987,-2.02292 15.2901,-5.2294 4.1688,-2.93028 9.22443,-4.77058 14.70994,-4.77058 5.45823,0 10.49088,1.82208 14.66683,4.73698 4.28125,3.23162 9.56999,5.263 15.33323,5.263 5.71955,0 10.97183,-2.00074 15.27696,-5.2177 4.21697,-2.95468 9.2566,-4.78228 14.72311,-4.78228 5.44387,0 10.46438,1.8125 14.6135,4.69416 4.27077,3.24986 9.58856,5.30582 15.38653,5.30582 5.73873,0 11.00706,-2.01416 15.27355,-5.21606 4.18013,-2.94172 9.23819,-4.78392 14.7265,-4.78392 5.44649,0 10.46922,1.81424 14.70127,4.88858 4.23209,3.07436 9.52754,5.1114 15.29879,5.1114 5.73419,0 10.99872,-2.01098 15.12672,-5.36618 z"
       style="fill:#2c4878;fill-opacity:1;stroke:none" />
    <path
       style="fill:#2c4878;fill-opacity:1;stroke:none"
       d="m 583.05471,723.40463 c -4.13054,3.36338 -9.40155,5.37984 -15.14353,5.37984 -5.74561,0 -11.01964,-2.019 -15.33143,-5.26054 -4.20635,-2.92772 -9.22592,-4.73944 -14.66863,-4.73944 -5.50945,0 -10.58529,1.85642 -14.77038,4.81852 -4.25753,3.18062 -9.50996,5.18146 -15.22967,5.18146 -5.75695,0 -11.04048,-2.02698 -15.34991,-5.27528 -4.19818,-2.9167 -9.21301,-4.7247 -14.65012,-4.7247 -5.51143,0 -10.58892,1.85774 -14.74333,4.79644 -4.23495,3.1837 -9.50997,5.20354 -15.25674,5.20354 -5.75514,0 -11.03712,-2.0257 -15.31005,-5.24484 -4.17499,-2.92432 -9.2187,-4.75514 -14.69001,-4.75514 -5.48755,0 -10.54498,1.8417 -14.7474,4.80096 -4.28261,3.19896 -9.53405,5.19902 -15.25264,5.19902 -5.78503,0 -11.092,-2.04678 -15.37389,-5.29532 -4.16385,-2.89294 -9.18343,-4.70466 -14.62614,-4.70466 -5.48155,0 -10.53386,1.83764 -14.72783,4.78536 -4.28021,3.20616 -9.54166,5.21462 -15.27223,5.21462 -7.02789,0 -13.35026,-3.02074 -17.73953,-7.83466 l -0.41628,11.53138 c 4.40077,5.0857 10.90254,8.30328 18.15581,8.30328 5.73195,0 10.99456,-2.0094 15.25771,-5.20356 4.18177,-2.94904 9.24632,-4.79642 14.74235,-4.79642 5.44707,0 10.47031,1.81464 14.68122,4.74942 4.31241,3.23664 9.58042,5.25056 15.31881,5.25056 5.75119,0 11.02987,-2.02292 15.2901,-5.2294 4.1688,-2.93028 9.22443,-4.77058 14.70994,-4.77058 5.45823,0 10.49088,1.82208 14.66683,4.73698 4.28125,3.23162 9.56999,5.263 15.33323,5.263 5.71955,0 10.97183,-2.00074 15.27696,-5.2177 4.21697,-2.95468 9.2566,-4.78228 14.72311,-4.78228 5.44387,0 10.46438,1.8125 14.6135,4.69416 4.27077,3.24986 9.58856,5.30582 15.38653,5.30582 5.73873,0 11.00706,-2.01416 15.27355,-5.21606 4.18013,-2.94172 9.23819,-4.78392 14.7265,-4.78392 5.44649,0 10.46922,1.81424 14.70127,4.88858 4.23209,3.07436 9.52754,5.1114 15.29879,5.1114 5.73419,0 10.99872,-2.01098 15.12672,-5.36618 z"
       id="path3786-8-1-7-3-1"
       inkscape:connector-curvature="0"
       sodipodi:nodetypes="cscscscscscscscscsccscscscscscscscscscc" />
    <path
       style="fill:#2c4878;fill-opacity:1;stroke:none"
       d="m 583.05471,699.40463 c -4.13054,3.36338 -9.40155,5.37984 -15.14353,5.37984 -5.74561,0 -11.01964,-2.019 -15.33143,-5.26054 -4.20635,-2.92772 -9.22592,-4.73944 -14.66863,-4.73944 -5.50945,0 -10.58529,1.85642 -14.77038,4.81852 -4.25753,3.18062 -9.50996,5.18146 -15.22967,5.18146 -5.75695,0 -11.04048,-2.02698 -15.34991,-5.27528 -4.19818,-2.9167 -9.21301,-4.7247 -14.65012,-4.7247 -5.51143,0 -10.58892,1.85774 -14.74333,4.79644 -4.23495,3.1837 -9.50997,5.20354 -15.25674,5.20354 -5.75514,0 -11.03712,-2.0257 -15.31005,-5.24484 -4.17499,-2.92432 -9.2187,-4.75514 -14.69001,-4.75514 -5.48755,0 -10.54498,1.8417 -14.7474,4.80096 -4.28261,3.19896 -9.53405,5.19902 -15.25264,5.19902 -5.78503,0 -11.092,-2.04678 -15.37389,-5.29532 -4.16385,-2.89294 -9.18343,-4.70466 -14.62614,-4.70466 -5.48155,0 -10.53386,1.83764 -14.72783,4.78536 -4.28021,3.20616 -9.54166,5.21462 -15.27223,5.21462 -7.19447,0 -13.64954,-3.16562 -18.04833,-8.17994 l 0.0534,12.06068 c 4.39755,4.97916 10.82952,8.11926 17.99493,8.11926 5.73195,0 10.99456,-2.0094 15.25771,-5.20356 4.18177,-2.94904 9.24632,-4.79642 14.74235,-4.79642 5.44707,0 10.47031,1.81464 14.68122,4.74942 4.31241,3.23664 9.58042,5.25056 15.31881,5.25056 5.75119,0 11.02987,-2.02292 15.2901,-5.2294 4.1688,-2.93028 9.22443,-4.77058 14.70994,-4.77058 5.45823,0 10.49088,1.82208 14.66683,4.73698 4.28125,3.23162 9.56999,5.263 15.33323,5.263 5.71955,0 10.97183,-2.00074 15.27696,-5.2177 4.21697,-2.95468 9.2566,-4.78228 14.72311,-4.78228 5.44387,0 10.46438,1.8125 14.6135,4.69416 4.27077,3.24986 9.58856,5.30582 15.38653,5.30582 5.73873,0 11.00706,-2.01416 15.27355,-5.21606 4.18013,-2.94172 9.23819,-4.78392 14.7265,-4.78392 5.44649,0 10.46922,1.81424 14.70127,4.88858 4.23209,3.07436 9.52754,5.1114 15.29879,5.1114 5.73419,0 10.99872,-2.01098 15.12672,-5.36618 z"
       id="path3786-8-1-7-2-3-9"
       inkscape:connector-curvature="0"
       sodipodi:nodetypes="cscscscscscscscscsccscscscscscscscscscc" />
  </g>
</svg>
