<?xml version="1.0" encoding="UTF-8"?>
<!-- Generator: Adobe Illustrator 27.7.0, SVG Export Plug-In . SVG Version: 6.00 Build 0)  -->
<svg id="Layer_1" enable-background="new 0 0 320.8 367.1" version="1.1" viewBox="0 0 320.8 367.1" xml:space="preserve" xmlns="http://www.w3.org/2000/svg">
<style type="text/css">
	.st0{fill:#EE363D;}
	.st1{fill:#FFD600;}
</style>

	<path class="st0" d="m4.2 4.2v198.5c0 5.2 0.3 13.3 0.8 18.4 7.8 78.9 74.6 140.6 155.8 140.6s148-61.6 155.8-140.6c0.5-5.1 0.8-13.2 0.8-18.4v-198.5h-313.2z"/>
	<path class="st1" d="m277.5 88.5c-1.9 1.1-3.9 2.1-5.8 3.2-4.1 2.2-8.2 4.3-12.4 6-2.1 0.8-4.2 1.7-6.3 2.7-3.5 1.7-6.9 3.9-9.3 7s-3.6 7-3.1 10.9c0.5 4.4 2.9 8.3 5.9 11.3 3.3 3.3 3.7 5.7 1.6 9.4-0.6 1.1-1.1 2.3-1.6 3.7-0.6-5.9-4.3-11.3-10.1-13.8-4.6-2-9.4-1.6-13.7 0.2l-11.4 4.5c-0.9 0.4-1.7 1.1-2.1 2s-0.4 2 0 2.9l5.2 12.8c1.5 3.8 4.7 6.9 8.8 8.7 6.1 2.6 12.8 1.4 17.6-2.7-0.1 0.4-0.3 0.8-0.4 1.2-1.4 4-3 8-4.2 12.1-1.6 5.3-4.6 16-6.3 22.1-1.3 4.7-3 9.3-4.6 13.9-1.1 3-2.4 5.5-4.8 7.6-3 2.5-7 4-11 4h-14.6c-0.3 0-13.5 0.9-17-22.4 0 0-7.4-58.4-8.2-62.9 3.6 4.1 8.8 6.8 14.7 7 5.4 0.2 10.5-1.6 14.3-4.9l12.5-11.4c0.9-0.8 1.5-2 1.5-3.3 0.1-1.3-0.4-2.5-1.2-3.4l-10.2-11c-3.8-4.3-9-7.2-15.1-7.5-7.2-0.3-13.6 3.1-17.6 8.5v-3.4c0-3.4 1.4-5.6 5.6-7.8 5.1-2.8 8.8-7.2 10.5-12.6 1.7-5.1 1.4-10.6-0.7-15.6-0.9-2.3-2.2-4.4-3.5-6.4-1.4-2.1-2.8-4.1-4.2-6.1-3.5-5.2-6.8-10.7-9.5-16.4s-5.8-13.5-5.9-13.9c0 0.4-3.2 8.2-5.9 13.9s-5.9 11.2-9.5 16.4c-1.4 2-2.8 4-4.2 6.1-1.3 2.1-2.6 4.2-3.5 6.4-2.1 5-2.3 10.5-0.7 15.6 1.7 5.4 5.4 9.8 10.5 12.6 4.3 2.3 5.6 4.5 5.6 7.8v3.4c-3.9-5.4-10.4-8.8-17.6-8.5-6.1 0.3-11.3 3.2-15.1 7.5l-10.2 11c-0.8 0.9-1.3 2.1-1.2 3.4 0.1 1.2 0.6 2.4 1.5 3.3l12.5 11.4c3.7 3.3 8.9 5.1 14.3 4.9 5.9-0.3 11.1-2.9 14.7-7-0.9 4.4-8.2 62.9-8.2 62.9-3.5 23.3-16.7 22.4-17 22.4h-14.6c-4 0-8-1.5-11-4-2.5-2.1-3.8-4.6-4.8-7.6-1.6-4.6-3.3-9.2-4.6-13.9-1.7-6.1-4.7-16.8-6.3-22.1-1.2-4.1-2.8-8.1-4.2-12.1-0.1-0.4-0.3-0.8-0.4-1.2 4.7 4 11.5 5.3 17.6 2.7 4.1-1.7 7.3-4.9 8.8-8.7l5.2-12.8c0.4-0.9 0.4-2 0-2.9s-1.2-1.7-2.1-2l-11.4-4.5c-4.3-1.8-9.1-2.1-13.7-0.2-5.8 2.5-9.5 7.9-10.1 13.8-0.5-1.4-1-2.6-1.6-3.7-2.1-3.6-1.7-6.1 1.6-9.4 3.1-3 5.4-7 5.9-11.3 0.5-3.9-0.7-7.8-3.1-10.9s-5.8-5.3-9.3-7c-2.1-1-4.2-1.8-6.3-2.7-4.3-1.7-8.4-3.8-12.4-6-1.9-1-3.9-2.1-5.8-3.2-3.1-1.7-6.1-3.5-9.1-5.4 18.3 33.1 44 100 50.5 197.3l0.2 2.8h150.2s0.1-2.8 0.2-2.8c6.6-97.3 32.2-164.2 50.5-197.3-3.2 1.9-6.3 3.7-9.3 5.4z"/>

</svg>
