<?xml version="1.0" encoding="UTF-8"?>
<svg id="svg2" width="420" height="500" enable-background="new 30.5 31.5 412 533" version="1.1" viewBox="30.5 31.5 420 500" xml:space="preserve" xmlns="http://www.w3.org/2000/svg" xmlns:cc="http://creativecommons.org/ns#" xmlns:dc="http://purl.org/dc/elements/1.1/" xmlns:rdf="http://www.w3.org/1999/02/22-rdf-syntax-ns#"><metadata id="metadata4"><rdf:RDF><cc:Work rdf:about=""><dc:format>
          
          
          
          
          image/svg+xml
        
        
        
        
        </dc:format><dc:type rdf:resource="http://purl.org/dc/dcmitype/StillImage"/><dc:title/></cc:Work></rdf:RDF></metadata><path id="path4524" d="m45.334 33.114c0.21713 101.87 0.14458 211.07 33.596 296.18 28.05 75.48 82.82 143.03 161.57 201.59 78.75-58.56 133.52-126.11 161.57-201.59 33.451-85.109 33.379-194.3 33.596-296.18-128.81-0.75995-273.97-0.0281-390.33 0z" fill="#0085ca" fill-rule="evenodd" stroke="#000"/><path id="path4216" d="m249.79 449.37 6.5362-57.973h50.379l-23.794-130.35 104.49 19.656v-114.83l-104.49 19.656 23.794-120.01h-132.42l23.794 120.01-104.49-19.656v114.83l104.49-19.656-23.794 130.35h50.379l6.5362 57.973c1.7519 15.539 4.1223 34.421 9.295 34.421s7.543-18.882 9.295-34.421z" fill="#fff" fill-rule="evenodd" stroke="#000" stroke-width="1.0345px"/></svg>
