<?xml version="1.0" encoding="UTF-8"?>
<svg id="svg2" width="420" height="500" enable-background="new 30.5 31.5 412 533" version="1.1" viewBox="30.5 31.5 420 500" xml:space="preserve" xmlns="http://www.w3.org/2000/svg" xmlns:cc="http://creativecommons.org/ns#" xmlns:dc="http://purl.org/dc/elements/1.1/" xmlns:rdf="http://www.w3.org/1999/02/22-rdf-syntax-ns#"><metadata id="metadata4"><rdf:RDF><cc:Work rdf:about=""><dc:format>
          
          
          
          
          image/svg+xml
        
        
        
        
        </dc:format><dc:type rdf:resource="http://purl.org/dc/dcmitype/StillImage"/><dc:title/></cc:Work></rdf:RDF></metadata><path id="path4524" d="m45.334 33.114c0.21713 101.87 0.14458 211.07 33.596 296.18 28.05 75.48 82.82 143.03 161.57 201.59 78.75-58.56 133.52-126.11 161.57-201.59 33.451-85.109 33.379-194.3 33.596-296.18-128.81-0.75995-273.97-0.0281-390.33 0z" fill="#0085ca" fill-rule="evenodd" stroke="#000"/><path id="path4544" d="m253.86 255.05c40.364-7.0559 69.169-42.502 69.169-81.255v-71.873h-50.349v-7.9548h50.349v-38.428h7.9548v38.428h50.349v7.9548h-50.349v71.873c0 38.754 28.805 74.199 69.169 81.255-2.9824 36.163-28.747 69.873-73.147 71.285-44.4-1.4122-70.164-35.123-73.147-71.285z" fill="#ffe000" fill-rule="evenodd" stroke="#000" stroke-width=".99435px"/><path id="path4546" d="m244.48 135.44v38.428h50.349v7.9548h-50.349v71.873c0 38.754 28.805 74.199 69.169 81.255-2.9824 36.163-28.747 69.873-73.147 71.285-44.4-1.4122-70.164-35.123-73.147-71.285 40.364-7.0559 69.169-42.502 69.169-81.255v-71.873h-50.349v-7.9548h50.349v-38.428h7.9548z" fill="#ffe000" fill-rule="evenodd" stroke="#000" stroke-width=".99435px"/><path id="path4550" d="m227.14 255.05c-40.364-7.0559-69.169-42.502-69.169-81.255v-71.873h50.349v-7.9548h-50.349v-38.428h-7.9548v38.428h-50.349v7.9548h50.349v71.873c0 38.754-28.805 74.199-69.169 81.255 2.9824 36.163 28.747 69.873 73.147 71.285 44.4-1.4122 70.164-35.123 73.147-71.285z" fill="#ffe000" fill-rule="evenodd" stroke="#000" stroke-width=".99435px"/></svg>
