<?xml version="1.0" encoding="UTF-8" standalone="no"?>
<!-- Created with Inkscape (http://www.inkscape.org/) -->
<svg
   xmlns:svg="http://www.w3.org/2000/svg"
   xmlns="http://www.w3.org/2000/svg"
   version="1.0"
   width="200"
   height="247.52617"
   id="svg3657">
  <defs
     id="defs3659" />
  <g
     transform="translate(-348.4981,-532.39517)"
     id="layer1">
    <path
       d="M 348.97426,532.87133 L 348.97426,622.62298 C 348.97426,712.54164 448.48906,779.44518 448.48906,779.44518 C 448.48906,779.44518 548.02194,712.54164 548.02194,622.62298 L 548.02194,532.87133 L 348.97426,532.87133 z"
       id="path2640"
       style="font-style:normal;font-variant:normal;font-weight:normal;font-stretch:normal;letter-spacing:normal;word-spacing:normal;text-anchor:start;fill:none;fill-opacity:1;stroke:none;stroke-width:0.60934383;stroke-linecap:butt;stroke-linejoin:miter;stroke-miterlimit:10.43299961;stroke-dasharray:none;stroke-dashoffset:0;stroke-opacity:1" />
    <path
       d="M 348.97426,532.87133 L 348.97426,622.62298 C 348.97426,712.54164 448.48906,779.44518 448.48906,779.44518 C 448.48906,779.44518 548.02194,712.54164 548.02194,622.62298 L 548.02194,532.87133 L 348.97426,532.87133 z"
       id="path2642"
       style="font-style:normal;font-variant:normal;font-weight:normal;font-stretch:normal;letter-spacing:normal;word-spacing:normal;text-anchor:start;fill:#ffd90f;fill-opacity:1;fill-rule:nonzero;stroke:#000000;stroke-width:0.95232344;stroke-linecap:butt;stroke-linejoin:miter;stroke-miterlimit:10.43299961;stroke-dasharray:none;stroke-dashoffset:0;stroke-opacity:1" />
    <path
       d="M 512.99938,637.31359 C 514.17354,635.38786 512.65547,635.01062 512.30495,634.99478 C 510.9917,634.93541 509.52982,635.13245 509.42818,636.78038 L 507.54334,669.9133 L 505.55933,670.3101 L 506.84896,634.39957 C 506.94175,631.81582 501.3298,630.3641 501.69054,631.72116 C 505.17586,644.8332 505.15199,659.89622 498.0201,671.7981 L 472.02961,676.95652 C 471.70039,677.02188 470.86095,677.95084 470.4424,678.74213 C 470.29168,679.02713 469.32387,680.7988 471.23604,680.62694 C 471.45723,679.5476 472.2036,678.8327 473.12084,678.64293 L 496.13533,673.88131 C 490.49786,679.74791 485.93544,680.73284 483.43768,680.82534 L 470.0456,681.32134 C 433.07527,642.91141 475.61822,594.6529 507.54334,568.23294 L 510.51934,568.23294 C 512.37104,568.23294 512.92584,565.39143 511.51138,565.35613 L 447.92396,563.76892 L 447.22952,545.61526 L 445.54315,545.21846 L 445.54315,547.20246 C 444.51378,547.20246 443.90985,547.40566 443.26154,547.84728 C 440.06605,550.02378 437.74442,547.62968 434.13508,547.10326 C 431.85191,546.77027 429.17754,548.88696 428.77826,549.18647 C 428.38149,549.4841 426.66899,550.83726 422.82624,547.69847 C 421.7143,546.7902 419.46447,546.21046 416.97345,546.21046 C 412.63244,546.21046 409.25248,553.55888 406.25981,549.28567 C 405.86301,550.01379 405.39059,552.0528 409.23582,552.46008 C 411.64593,552.71372 414.66622,550.83386 416.57662,550.87288 C 421.0684,550.96458 420.85144,552.37253 422.03266,553.45209 C 422.57965,553.97002 426.6307,556.5353 430.36546,554.64249 C 433.36201,553.103 433.44029,553.17623 434.43271,553.25368 C 435.39608,553.38438 435.59232,555.20128 439.98793,555.4361 C 440.42492,555.47266 441.22109,558.07194 445.34475,558.5113 L 445.24552,563.66972 L 387.21335,562.18172 C 385.61357,562.1407 386.03685,565.15773 386.81655,565.15773 L 390.88373,565.15773 C 387.04317,636.0043 424.06826,671.6518 436.11908,681.32134 C 415.11321,680.5829 407.15261,679.28775 402.5894,678.74213 C 388.09151,677.00858 382.88983,655.03001 382.65013,654.04124 L 390.68536,645.51001 C 391.77421,644.35396 392.04639,643.2659 390.58616,643.3276 L 383.54293,643.6252 C 382.16317,643.68352 382.72454,645.6588 382.9477,646.20442 C 382.9477,646.20442 382.69194,646.51443 381.65813,646.50202 C 381.01534,635.1493 383.17093,624.47954 383.64213,623.09073 C 384.51125,620.52895 384.26943,620.04422 383.54293,619.51952 L 379.97172,616.94031 C 378.32579,615.48319 377.7243,615.94666 377.69011,616.34511 C 377.46692,618.9473 377.7996,632.54673 378.28531,646.79962 C 377.45476,646.80374 377.09491,646.30362 377.09491,646.30362 C 376.99203,644.59496 376.41739,643.8236 375.80527,643.8236 L 370.54769,643.8236 C 368.62381,643.8236 370.05169,645.31164 370.05169,645.31161 C 371.85411,647.50535 377.51615,653.18202 378.48371,654.14044 L 379.77329,685.78536 C 380.23009,696.99414 389.99159,698.88898 392.96697,698.88872 L 496.2345,698.8798 C 503.64764,698.87916 504.07136,690.94377 504.07136,690.94377 L 505.55933,671.8973 L 507.44417,671.5005 L 505.95613,694.11818 C 505.79392,696.58429 507.10194,697.55915 509.22977,697.6894 C 511.36996,697.8204 513.08551,696.3771 513.29696,694.71338 L 514.78499,683.00774 C 515.1456,677.97795 513.59452,675.56772 513.09859,674.87332 C 510.39958,671.09453 510.66737,668.00062 510.71774,666.93729 L 511.70975,646.00602 C 512.0084,639.70465 512.75597,637.71277 512.99938,637.31359 z M 445.44392,548.78967 L 445.34475,556.9241 C 445.34475,556.9241 441.07913,555.9108 441.07913,552.55928 C 441.07913,549.20777 445.44392,548.78967 445.44392,548.78967 z M 442.96394,666.83809 L 442.76554,681.42054 L 438.00392,681.32134 C 432.04603,673.66304 432.79712,666.83809 442.96394,666.83809 z M 447.03112,667.63169 C 457.06093,671.1744 464.20234,678.7608 466.57362,681.51974 L 446.73352,681.51974 L 447.03112,667.63169 z"
       id="path2644"
       style="font-style:normal;font-variant:normal;font-weight:normal;font-stretch:normal;letter-spacing:normal;word-spacing:normal;text-anchor:start;fill:#000000;fill-opacity:1;fill-rule:nonzero;stroke:none;stroke-width:0.1;stroke-linecap:butt;stroke-linejoin:miter;stroke-miterlimit:10.43299961;stroke-dasharray:none;stroke-dashoffset:0;stroke-opacity:1" />
  </g>
</svg>
