<?xml version="1.0" encoding="UTF-8"?>
<svg id="svg4228" width="420" height="500" version="1.1" xmlns="http://www.w3.org/2000/svg" xmlns:cc="http://creativecommons.org/ns#" xmlns:dc="http://purl.org/dc/elements/1.1/" xmlns:rdf="http://www.w3.org/1999/02/22-rdf-syntax-ns#">
 <metadata id="metadata13">
  <rdf:RDF>
   <cc:Work rdf:about="">
    <dc:format>image/svg+xml</dc:format>
    <dc:type rdf:resource="http://purl.org/dc/dcmitype/StillImage"/>
    <dc:title/>
   </cc:Work>
  </rdf:RDF>
 </metadata>
 <path id="path3349" d="m7.5 1.5 0.25233 207.88c0.11919 98.191 78.013 219.07 202.25 289.12 124.24-70.042 202.13-190.92 202.25-289.12l0.25233-207.88h-405z" fill="#e00e00" stroke="#000"/>
 <path id="path3833" d="m227.64 157.83c59.84 11.219 127.38 7.4172 145.08-42.292 10.312 4.0319 10.97 18.363 8.3395 25.876-4.6337-0.36801-12.996-2.121-13.577 2.6976-0.56801 4.7133 5.1486 3.8877 9.4448 4.2671-1.0869 7.4624-4.5419 12.036-7.3787 14.027-10.255-6.2134-19.917 3.57-5.9029 8.0437-4.8424 6.1512-11.368 11.754-17.807 15.695-5.9321-8.9767-17.141-2.7955-7.8705 6.5723-9.1454 4.0087-18.172 6.7156-27.055 7.8474 0.79304-10.534-12.643-10.898-10.822 0.19618-7.4387 0.20024-14.821 0.2731-21.742-0.6866 2.5263-11.829-12.737-11.298-11.707 0.19612l-17.414-4.0218c4.475-11.934-7.7775-13.846-10.724-4.7086-5.1725-6e-3 -13.651-1.9441-17.046-3.8653-0.74733 4.8784-1.3898 9.6241-1.7426 14.108-0.95076 12.084 2.7126 52.439 39.953 58.265 26.52 4.1484 57.924-49.891 97.108-51.051 31.759-0.94002 27.786 29.534 24.554 42.034-5.8027 22.442-26.467 41.678-26.219 45.502 0.75119 11.582-1.2278 20.574-8.1847 28.577-11.818 13.595-28.409 18.655-32.046 44.531-8.7864-23.602 1.2516-51.156 29.271-75.328 15.757-13.593 28.769-33.588 31.213-53.27 3.0968-24.938-17.818-33.309-49.525-12.485-23.681 15.552-38.343 39.872-64.923 41.756-16.82 1.1921-22.613-3.0221-26.913-8.4623-0.59677 4.697 5.1645 9.4236 13.478 10.747 22.003 18.908 58.612 57.812 55.746 62.084-17.922 26.715-22.338 63.604-46.75 91.697-6.7043 7.7153-11.028 1.1445-19.005-6.7975-6.7249 8.7448-11.887 12.911-25.803 12.485-7.7115-0.23575-9.6904-0.91077-13.595-4.9942-4.8636-5.0861-11.923-2.6158-15.468 3.1908-2.3971-9.6478 5.038-10.47 6.7282-13.526 1.793-3.2415 12.029-3.8492 17.896-1.1098 2.4801 1.1581 4.7308 1.049 6.6588 0.6243-7.5917-5.0891-21.822-6.6902-14.982-19.422-1.7296-4.1496-7.0238-5.4304-13.248-5.0635 6.9439-6.3046 12.414-2.1094 16.231-2.0809 5.8264 0.0429 10.448 0.68082 13.595 5.9652 3.0602 5.1386 10.89 9.7801 10.89 9.7801-4.1768-7.8274-15.44-19.216-10.751-25.04 4.0144-4.9855 1.9123-10.078-4.3006-13.318 7.6633-1.955 10.364 3.8118 14.918 4.7805 3.884 0.82611 4.0343 5.1249 4.2952 9.7162 0.36811 6.4789-2.34 20.311 5.4103 19.005 19.884-3.3486 25.349-25.149 27.19-39.675 0.74294-5.8625-0.56311-10.681-5.5491-17.479-28.106-38.322-47.52-34.146-70.31-59.657-0.32833-0.36755-0.98714-1.1214-0.98714-1.1214-0.34023-3.888-2.2432-15.585-8.7476-20.722 3.559 7.982 6.9237 17.273 2.6359 28.092-5.194 13.106-18.45 50.802-29.41 44.67l-66.449-37.178c-4.1492-2.3215-8.5042-2.9574-7.0056-7.075 2.5788-7.0856-6.1939-6.8557-12-3.6069-13.597 7.6088-12.302-8.2961-17.618-10.266-3.8008-1.4083-9.2483-0.37131-13.248 2.4971 1.0189-6.1248 10.351-9.7783 15.706-9.1277 8.0855-4.8739 16.69-5.3745 25.287-1.6929 2.8428-11.931-8.9712-9.6944-5.9652-20.948 1.9965-7.4738 12.795-3.1948 12.347-10.82-0.12843-2.1842-4.8062-5.5811-8.7397-2.5664-1.1782-7.9711 22.572-10.222 16.37 10.266-1.5942 5.2657-5.6804 7.5283-2.9132 16.3 15.815-4.8784 7.546-27.575 17.896-31.491 5.1684-1.2571 7.4544-8.7646 6.6588-12.624 3.48 1.9218 4.8593 7.0884 4.403 10.462-0.48191 3.5632 5.7229 6.7605 2.3945 16.312-2.1243 6.0957-11.478 16.352-19.56 30.936-5.3274 9.6126 23.462 21.125 42.311 30.797-0.97107-22.612-9.0302-50.408-2.7745-66.866 3.8257-10.065 15.076-10.132 23.167-4.7167 4.245 2.841 8.2146 5.9728 12.347 11.237 0.64279-23.028-7.3563-47.219-16.092-63.952-2.6789-5.1314 16.325-4.7301 20.531-0.83244-2.2838-5.7189-25.746-8.7358-23.93 2.289 1.0725 6.5111 4.331 18.383-0.79759 18.416-26.98 0.17424-54.132-0.35973-82.299 0.65892-0.67014 13.755-6.1599 51.957-27.537 38.704 4.6834-0.72643 7.256-0.14249 7.9073-5.7571 1.1169-9.6282 15.367-11.54 14.427-22.682-0.80266-9.5193-7.6637-28.927-16.647-32.878-6.194-2.7238-7.2192-7.9737-6.4507-16.37 0.30974-3.3842-5.1337-4.6456-9.572-0.34676 0.40427-8.5964 11.674-10.462 14.913-3.3988l16.092 35.097c1.919-10.543 1.1041-23.484-0.97107-25.733-3.1676-3.4334-7.8461-6.893-3.1213-17.549 0.99707-2.2487-1.085-6.1646-8.7397-6.1039 2.7406-3.7284 18.834-5.0746 18.45 12.624l-0.76299 35.236c4.4854-5.9189 13.403-25.374 10.959-29.826-3.3575-6.1173-2.1146-10.895 1.2832-14.046 3.2702-3.0326-1.0191-8.7913-4.4045-10.023 5.9359-3.189 14.718 5.2075 12.277 16.855-2.9656 14.154-9.5258 24.092-16.37 38.843l58.542-4.1618c2.714-0.19294 4.7812-3.2847 6.5357-6.6104-15.601 1.228-40.786-61.626-53.926-77.724-2.0789 1.855-4.2358 2.8593-13.138 9.1782-5.4762 3.8867-18.803 22.15-30.963 8.3437 7.1667 1.8009 8.1564 0.33604 9.3715-2.4104 3.0965-6.9988 4.061-8.3122 12.22-8.4364 10.506-0.16001 26.48-23.683 28.39-27.72 2.5794-5.4513 6.5863-19.517 1.6955-22.101-2.8892-1.5266-10.198-9.8889-8.862-16.002 1.1336-5.1863-1.9394-7.3371-5.8217-8.4842 9.9232-3.7662 16.013 7.0069 18.225 14.51 1.9814 6.7201 3.6936 18.653 1.6538 25.124 6.0084-2.2779 10.91-18.762 6.9827-23.084-4.3589-4.7975-5.5876-12.097-2.2051-17.429 1.3228-2.0852-2.8582-5.4778-7.238-6.0466 8.698-4.3032 17.434 3.085 16.34 21.228-0.51533 8.5475-2.5181 14.025-4.876 21.067 5.4054-3.21 19.861-22.723 15.987-29.481-3.2833-5.7269-1.6145-11.817 2.1132-15.946 1.8445-2.0428-0.68382-7.4533-4.5939-9.1781 3.8494-1.8786 20.012 4.319 11.944 23.919-9.4583 22.978-25.811 39.62-40.426 57.016 9.8866 18.385 24.411 38.642 37.486 58.314 12.676-39.09 16.691-58.028 46.214-60.631 28.586-2.521 39.168-21.381 38.976-36.428-0.0498-3.9126-12.096-10.569-15.967-11.386-3.9891-0.02781-6.0709-0.13739-9.1941 0.10523-4.546 0.35314-8.5995 2.0887-11.794 4.8309v-3.62e-4 -5.65e-4 -3.5e-5 4.16e-4 4e-5c-0.73017-26.896 27.049-28.816 39.14-28.508 8.7504 0.22292 15.977-0.12818 24.348 4.0792 4.3288 2.1757 5.7719-4.0973 7.9245-4.1255 15.203-0.1986 38.647-0.06116 44.222-0.0056-1.6187 1.9868-21.252 14.066-29.387 13.469-4.4152-0.3242-4.4964-1.9733-6.8182-2.3836-2.5486-0.45038-5.0994-0.47546-5.4285 1.1274-0.187 0.91109 3.8947 1.3799 5.8478 4.6435 0.9862 1.648 1.3899 3.4482 1.5562 4.7041 13.041 2.6029 36.592-3.9306 46.306-11.125 0.0306 11.743-21.041 31.873-46.858 15.482-0.0142 17.414-5.06 61.073-13.331 61.072l19.716 0.42643c41.575 0.8992 85.773-19.563 92.538-42.187 2.6039-8.7079 3.7788-13.987 3.3947-25.387 4.6774 0.04515 15.623 8.4692 16.175 14.608-4.1444 3.8983-7.6145 6.1485-4.4494 9.9416 2.839 3.4023 7.3176-0.75318 10.168-3.1146 4.9639 3.2221 3.9188 21.398 2.9515 24.086-5.2498-0.22353-13.561-0.50287-14.047 4.5045-0.32114 3.3114 4.0902 4.4334 8.805 4.5709-3.992 7.3455-15.769 18.048-20.17 20.025-2.5624-4.6952-6.4028-6.615-9.2075-4.4871-2.3172 1.7581-2.4832 4.6687 1.4377 9.1958-5.4584 3.9995-19.121 13.626-26.001 14.754 0 0-2.7915-7.6769-7.7706-5.4179-4.6014 2.0878-1.3216 9.2627-1.3216 9.2627-5.7392 1.6462-13.683 3.639-24.408 5.16-0.54187-3.3332-0.8929-9.194-7.1399-8.4054-3.8103 0.48096-3.9962 5.7252-3.2532 9.7467-8.5111 1.1937-15.943 1.8228-21.963 2.4546-0.0377-5.4354-1.0024-9.2331-5.981-9.1452-5.3175 0.0943-5.9869 4.9231-5.8185 9.1993-7.2176 0.13319-12.966 0.66904-19.67 0.71864-8e-3 1.5217 0.0467 3.2519-0.0668 4.7798" fill="#ffe000" stroke="#000" stroke-linecap="round" stroke-linejoin="round"/>
 <path id="path4158" d="m137.61 182.97c8.3264-18.006 6.7776-41.892 20.97-62.835 2.4851-3.667 5.1257-7.7096 11.494-7.7l73.652 0.1116" fill="none" stroke="#000" stroke-width="1px"/>
 <path id="path4168" d="m145.31 153.05h16.331c-0.0659-4.1316 1.3485-7.5884 6.7515-7.5884 4.915 0 6.4627 4.0906 6.3051 7.5884h13.28c-0.0659-4.1316 1.3485-7.5884 6.7515-7.5884 4.915 0 6.4627 4.0906 6.3051 7.5884h13.28c-0.0659-4.1316 1.3485-7.5884 6.7515-7.5884 4.915 0 6.7975 4.0906 6.6398 7.5884" fill="none" stroke="#000" stroke-width="1px"/>
 <path id="path4174" d="m221.7 34.373c0 2.6589-1.7566 5.3158-5.3158 5.3158s-5.3158-2.6569-5.3158-5.3158" fill-rule="evenodd" stroke="#000" stroke-width=".85829px"/>
 <path id="path4170" d="m203.27 35.321c0.22317-0.89121 0.60546-1.2275 2.3906-1.2275h22.001c1.7851 0 2.1674 0.33632 2.3906 1.2275" fill="none" stroke="#000" stroke-linecap="round" stroke-linejoin="round" stroke-width="1px"/>
 <path id="path4178" d="m227.64 157.83c-0.40531 10.796-4.809 21.776-6.184 29.845" fill="none" stroke="#000" stroke-width="1px"/>
 <path id="path4180" d="m197.19 49.179h18.352" fill="none" stroke="#000" stroke-linecap="round" stroke-width="1px"/>
</svg>
