<?xml version="1.0" encoding="UTF-8"?>
<!DOCTYPE svg  PUBLIC '-//W3C//DTD SVG 1.1//EN'  'http://www.w3.org/Graphics/SVG/1.1/DTD/svg11.dtd'>
<svg id="Ebene_1" width="309.12px" height="387.22px" enable-background="new 0 0 309.115 387.217" version="1.1" viewBox="0 0 309.12 387.22" xml:space="preserve" xmlns="http://www.w3.org/2000/svg">
<path d="m154.7 387.22s-46.238-21.482-67.034-34.381c-12.648-7.843-25.021-16.148-35.441-26.863-19.939-20.498-34.054-44.613-43.08-71.705-5.511-16.532-9.048-33.468-9.065-50.968-0.057-66.917-0.08-203.3-0.08-203.3h309.12s-0.031 136.99-0.109 204.21c-4e-3 5.384-0.461 10.797-1.161 16.136-2.445 18.625-7.679 36.481-15.572 53.524-14.207 30.683-34.512 56.089-63.424 74.336-19.365 12.222-39.438 23.037-60.213 32.604-4.617 2.123-9.303 4.319-13.936 6.407z" fill="#008122"/>
<polygon points="202.68 120.15 155.06 72.514 108.97 118.6 93.55 103.18 155.06 41.664 218.1 104.73" fill="#fff"/>
<polygon points="54.312 95.003 21.813 127.5 21.812 158.35 54.312 125.85 125.69 197.23 141.11 181.81" fill="#fff"/>
<path d="m287.46 161.27v-30.849l-32.024-32.027-133.87 133.89 0.06 0.064c-8.648 9.055-13.437 20.867-13.437 33.436 0 12.941 5.043 25.111 14.197 34.265 9.443 9.446 21.852 14.17 34.26 14.17 12.41 0 24.815-4.724 34.264-14.17 18.734-18.734 18.865-49.107 0.443-68.044l0.02-0.016-0.346-0.348c-0.041-0.041-0.076-0.088-0.117-0.127l-0.01 4e-3 -3.373-3.375-15.41 15.412 3.377 3.375-6e-3 6e-3c10.389 10.393 10.389 27.297 0 37.688-10.387 10.394-27.295 10.394-37.684 0-5.033-5.032-7.806-11.725-7.806-18.84 0-7.123 2.771-13.812 7.806-18.848l-0.023-0.023 117.66-117.67 32.024 32.024z" fill="#fff"/>
</svg>
