<?xml version="1.0" encoding="UTF-8" standalone="no"?>
<!-- Generator: Adobe Illustrator 22.0.1, SVG Export Plug-In . SVG Version: 6.00 Build 0)  -->

<svg
   version="1.1"
   id="Layer_1"
   x="0px"
   y="0px"
   viewBox="0 0 2400 1500"
   style="enable-background:new 0 0 2400 1500;"
   xml:space="preserve"
   sodipodi:docname="42.svg"
   inkscape:version="1.3 (0e150ed6c4, 2023-07-21)"
   xmlns:inkscape="http://www.inkscape.org/namespaces/inkscape"
   xmlns:sodipodi="http://sodipodi.sourceforge.net/DTD/sodipodi-0.dtd"
   xmlns="http://www.w3.org/2000/svg"
   xmlns:svg="http://www.w3.org/2000/svg"><defs
   id="defs3" /><sodipodi:namedview
   id="namedview3"
   pagecolor="#ffffff"
   bordercolor="#000000"
   borderopacity="0.25"
   inkscape:showpageshadow="2"
   inkscape:pageopacity="0.0"
   inkscape:pagecheckerboard="0"
   inkscape:deskcolor="#d1d1d1"
   inkscape:zoom="0.5175"
   inkscape:cx="1200"
   inkscape:cy="750.72464"
   inkscape:window-width="1920"
   inkscape:window-height="1017"
   inkscape:window-x="-8"
   inkscape:window-y="-8"
   inkscape:window-maximized="1"
   inkscape:current-layer="Layer_1" />&#10;<style
   type="text/css"
   id="style1">&#10;	.st0{fill:#198909;}&#10;	.st1{fill:#FFE600;}&#10;</style>&#10;<g
   id="g2">&#10;	<g
   id="g1">&#10;		<path
   class="st0"
   d="M0,0h2400v1500H0V0z"
   id="path1"
   style="fill:#e01f1d;fill-opacity:1" />&#10;	</g>&#10;</g>&#10;<g
   id="g3">&#10;	<path
   class="st1"
   d="M1182.1,89.2c3.7-4.2,8.5-8.7,14.5-8.2c7.7,0.5,13,7,17.1,13c4.3,1,8.7,2.2,12.3,5   c6.9,5.4,11.4,13.1,17.9,18.9c2.1,2.3,5.4,4.4,5,8c-0.4,9.6-10.5,15.3-11.2,24.7c6,1.6,12.3,2.1,18.4,3.4   c-3.4,9.6-9.4,18.2-11,28.3c-2.3,11.4,1.8,22.9,6.9,33c-4,4.2-8.5,8.1-11.8,12.9c-1.2,1.6-2.1,3.9-1.1,5.9c4.5,2.8,12-0.7,15,4.9   c2.8,7.1-2.6,15-8.6,18.6c-0.2,2.3,0.5,4.9-0.9,6.9c-4.5,2.9-10.4,1.2-15.2,3.3c-0.4,2-0.9,3.9-1.1,6c3.4,2.3,6.7,6.1,5.9,10.7   c-1.8,9.2-9.1,16.1-11.4,25.1c-5.3,3.3-9.9,8-12.1,13.9c3.4,4,1.8,9.1,0.2,13.5c0.6,1.5,1.7,2.9,1.7,4.7c0.2,35.5-2.1,71,2.7,106.2   c11.5-19.9,22.8-40.5,39.4-56.8c16.2-15.8,33.9-30.2,52-43.7c8.2-5.9,16.3-12,25.6-16.1c8.1-4,16.7-7.4,23.8-13   c2.8-2.5,6-5.5,5.8-9.7c-0.4-3.9-3.6-6.6-6.5-9c3.7-9.7-2-19.7,0.5-29.4c1.2-4,5.9-4.2,9.3-4.4c-3.7-8.2-11.5-13.5-15.7-21.3   c-2.5-4.4-1.5-9.8,1.5-13.7c0.2-2.7-0.5-6,1.6-8.1c3.8-3.4,10.3,1,13.5-3.6c-4.8-2.8-9.7-6-11.7-11.4c-4.3-12-1.7-25.5,4.4-36.4   c1.6-3.3,1.7-7.1,2.9-10.5c5.9-2.9,11.4,1.8,14.5,6.6c2.2,2.9,2.1,6.7,2.2,10.2c2.2-1,5-2,5.3-4.8c-0.1-7.2-3.7-13.9-7.9-19.5   c-3.4-4.7-3.2-10.9-0.6-15.8c6.3-11.9,19.9-19.1,33.2-18.6c1.5,5.3,4.5,10.2,9.3,13c1-1,2-2,3.1-3.1c-3.3-4-5.2-9.3-3.6-14.5   c4.3-13.2,22.3-22.7,34.5-13.5c9.1,7.7,6,21.1,10.5,31c1.8,4.9,7.6,6.7,9.3,11.7c3.9,9.3,5.6,19.7,4.3,29.9   c-0.9,4.2-2.3,8.5-5.5,11.3c-3.8,3.4-9.7,1.8-13.4,5.3c-1.5,2.1,1.7,3.3,3.1,4.3c2.8,2.2,8.1,3.3,7.9,7.7c-0.9,1.2-2,2.3-2.8,3.4   c0,6.4-1,13-4.9,18.2c-5.9,8.1-16.2,11.5-25.8,12.4c4.7,2.3,8.1,7.4,7.2,12.8c-1.3,6.9-6.3,12.8-12.4,16.1c-2.9,1.5-5.5,3.6-8.5,5   c-5.4,1.7-11.8,1.3-16.1,5.6c1.7,5.2,2.3,11.2-0.4,16.1c-5.3,9.9-14.8,16.3-23.4,23.1c21.8-6,44.9-7.9,65.6-17.7   c6.3-3.1,12.6-7.1,16.1-13.5c2.5-4,1.7-9.2,3.9-13.4c3.8-7.4,11.2-12.4,14-20.4c1.5-4,0.5-8.2-0.2-12.3c-0.9-4.2,0.9-9.1,4.8-11.2   c5.9-3.1,13-0.5,18.9-3.2c3.2-1.6,3.7-5.6,2.7-8.7c-2.2-7.4-2.5-15.8,1.7-22.7c3.8-7.1,11.9-12,20.1-11c3.7,0.4,7,2.1,10.1,3.9   c-1.7-11.5,2.2-23.8,10.2-32.3c4.8-5.3,13.1-8.2,19.7-4.8c1.5,2.5,2,5.8,4.7,7.4c3.8,1.1,6.6-2.5,8.7-5.2   c4.5-5.5,6.4-12.9,11.7-17.8c4.7-4.7,10.5-8.2,17.2-9.1c4.9-0.5,9.8,2.5,11.5,7.1c1.6,3.6,2.6,8.5,6.9,9.7   c9.2-3.8,12.9-14.5,21.3-19.4c5.9-4.5,13.6-2.1,19.9,0.1c15.3,5.5,22.9,26.9,13,40.2c-3.2,3.9-3.2,10.2-8.1,12.6   c-5.9,2.8-12.5,2.7-18.8,3.8c8.2,0.5,14.6,7.6,15.1,15.6c0.9,6.6-2.8,12.9-7.9,16.8c-0.6,3.1-1.7,6.3-4.9,7.5   c-7.1,2.6-14.7-0.4-22,1.6c-2.3,0.5-3.4,2.7-4.8,4.3c4.3,5.2,8.3,12.3,6.1,19.1c-2.8,3.3-7.4,4.9-11,7.1   c-9.8,5.3-21.2,6.1-32.1,4.9c2.2,7,3.1,15.3-1.6,21.6c-3.8,5.2-10.4,6.3-16.3,6.9c-3.1,3.2-6.9,7.5-11.9,5.9   c-5.6-2.6-9.9-7.9-16.2-9.1c-1.2,4.9-2,9.9-3.6,14.7c-0.9,3.2-3.6,6.1-7,6.6c-7.4,0.2-13.5-5.2-21-4.8c-12.4-0.6-23.3,7.5-35.7,7   c-4.3,0.1-8.3-1.5-12.1-3.3c-10.5,7.6-21.2,15.6-33.7,20c-5.5,2-11.3,2.7-17.1,3.4c-0.9,2.2-1.6,4.4-2.3,6.6c0.5,0.6,1.3,2,1.7,2.6   c7.5-4.8,16.4-4.8,24.9-4.5c0.4,0.6,1.2,1.7,1.6,2.2c2.6,0.1,5.2,0.4,7.9,0.6c2.1,6,8.5,9.7,14.6,9.1c4.4-0.2,6.5-4.9,10.4-6.5   c8.5-3.8,18-3.3,27.1-2.7c3.9,2.3,5.9,7.4,6,11.8c0.4,4.9-5.3,6.5-7.2,10.3c3.3,0.4,6.6,0.5,10.1,0.1c4-3.6,9.6-1.7,14.4-2.8   c1.8-0.9,2.5-3.1,3.4-4.8c7.2-0.9,15.6,1,19.7,7.5c2,3.6,6.6,5.9,6.3,10.4c0.1,4.3-2.9,8-2.7,12.4c-0.1,2.5,0.9,4.7,1.7,6.9   c5.6-0.5,10.5-6.3,16.4-3.4c4.4,2.9,8.1,7,12.6,9.7c1.6,5.2-1.8,10.7,0.1,15.6c6.7,5.2,12.5,12.8,13.1,21.5c0,4-0.4,8.8-3.4,11.8   c-3.6,3.6-7.6,7.7-13,7.6c-1.8,0.5-2.7-1.5-3.8-2.3c-2.9-0.2-5.9-0.4-8.8-0.4c-0.9,4.7-4.3,8.5-8.8,9.7c-8.7,2.6-18.5,2.3-26.7-1.6   c-4-2-5.5-6.6-8.8-9.4c-4-3.6-9.2-5.5-14.4-6.1c-2.3,2.3-3.9,5.5-7.1,6.7c-4.7,2-9.8,0.2-14.4-1.5c-3.1,0.1-6.3,0.6-9-1   c-3.6-2.1-6.3-5.3-9.4-7.6c-1.2-1.1-3.2-2-3.4-3.8c-1.6-8.6,1.1-17.3-1.3-25.8c-4.4,1.8-6.4,6.7-10.4,9.1c-2.3,1.3-4.8-0.6-6.4-2.2   c-4.5-4.9-9.1-10.1-11.5-16.3c-1.8-4.4-2-9.2-3.9-13.6c-1.3-3.1-4.9-3.9-7.6-5.4c-0.5-6-7.6-4.2-11.5-6c-2.9-9.4-1.5-19.3-1.5-28.9   c0.1-2.3-1.8-4.2-3.4-5.6c-4.3-3.6-10.3-2.7-15.3-1.6c-20.1,5.3-39.5,13.2-58,22.7c-12.8,6.7-25.3,14.5-35.9,24.4   c-13.9,13.6-27.5,27.5-39.3,42.9c-12.5,16.3-22.9,34.7-27.2,55c-5.6,27-7.7,54.5-9.1,81.9c-2,64.4,0.7,129.2,12.5,192.6   c4.9-2.5,7.2-7.6,10.3-11.8c12.8-18.6,23.6-38.9,40-54.6c31.4-32.1,71.4-54.2,112.5-71.5c9.9-4.3,18-12.5,21.3-22.8   c-3.6,2.3-8,4.2-12.3,2.7c-9.2-2.9-14.6-11.9-18.3-20.2c-9.1,8-22.8,9-33.6,4.3c-3.4-1.2-5.5-4.3-6.5-7.6c1.1-3.9,3.4-7.2,6.5-9.9   c-10.4-0.1-21.1-2.1-30.4-7.1c-5-2.8-10.2-7.6-9.8-13.9c-0.1-4,2.5-7.4,4.2-10.8c1-2.5-0.5-5.3-3.1-6c-7.7-2.6-16.9-0.4-23.9-5.5   c-3.1-2.9-6.4-6-8.2-9.9c-2.5-7.9,3.6-14.4,5.6-21.5c1.2-3.2-2-5.4-3.1-8c-2.9-7.5-1-16.4,4.5-22.2c7.4-8.1,19.6-11.2,29.9-7.7   c5.3,1.7,9.1,5.9,11.9,10.4c6.9-2.3,14.4-2.7,21.3-0.9c7.2,2,14,8.1,14.2,15.9c0.6,4.9-3.4,10.5,0.7,14.6c4.4-1.3,4.9-8,9.7-9.2   c5.5-0.7,11.8,0.1,15.8,4.3c4,4.3,5.2,10.3,5.6,15.9c0.7,7.7,1.1,15.5,3.1,22.9c0.7-3.7,1.5-8.6,5.8-9.8c7.1,0,12.8,5.8,16.2,11.5   c2.6,4.4-1.1,9-1.3,13.4c-1.1,10.9,8.1,19.9,7.2,30.8c0,3.4-2,6.3-2.8,9.4c2.2,6.1,3.6,13.4,8.6,18c6.1,4.9,47.1,12.3,60.7,13.4   c10.1,0.7,19.6-3.1,28.2-7.9c12-6.9,22.6-15.8,33.6-24c14.4-10.2,24.3-25.1,37.3-36.8c-4.8-6.5-6.3-15.6-2.5-22.9   c5.4-10.5,15.2-17.8,21.7-27.5c-2.8-9.9-2.1-21,2.6-30.2c2-3.9,5.5-8.1,10.3-7.9c4.9-0.2,8.1,3.9,12,6.1c3.6-9.8,2-20.6,5.8-30.3   c1.7-4.8,5.5-8.6,10.1-10.8c5-2.1,6.1-9.1,11.9-10.1c8.5-1.1,16.2,4.3,24.8,3.8c-0.6-5-1.6-10.9,1.8-15.3   c5.3-6.9,14.1-9.4,19.6-16.1c2.6-3.3,7.4-4.2,11.3-2.8c3.6,2.2,4.7,6.7,7.5,9.6c2.1,0.5,3.3-1.7,4.7-2.8c6.3-6.9,17.1-9.2,25.4-5.2   c9.4,4.7,15.6,15.1,15.3,25.6c-0.2,6.3-3.4,12.1-8.2,16.3c15.8,7.1,15.9,31.5,2.3,41c-4.8,3.8-11.5,3.2-16.7,6.4   c2.5,6.5,9.9,9.2,12.8,15.3c1.1,3.2-0.5,6.4-3.2,8c-4.3,2.7-6.1,7.7-10.5,10.3c-7.4,4.5-16.4,4.2-24.8,5.4   c-5.9,0.6-11.4,2.6-16.3,5.5c4.5,5.3,9.9,11.4,8.1,18.9c-2.6,8.6-11.4,13.4-19.5,15.5c-5.6,1.2-10.5,5.4-16.6,4.5   c-10.1,0-18-9-28.1-8.1c-6.7,0.7-8.3,8.8-14,11.3c-6.7,3.2-14.5,2.2-21.6,1.8c-7-0.2-14.7,0.6-19.6,6   c-14.1,14.2-27.5,29.4-44.8,39.9c-6.1,4.2-13.4,6.7-19,11.7c-2.5,1.8-2.8,5.8-0.4,7.9c6,5.9,14.7,7.1,21.7,11.4   c11.4,7,23.6,12.9,34.8,20.1c5.6,3.3,10.5,7.6,16.1,11c6.3,3.9,14,4.9,19.6,9.7c6.1,5.5,6.9,14.4,7,22.1c2.1-3.1,4.8-6.9,9-5.9   c8.2,1.8,11.9,11,19.5,13.9c2.9,1.1,5.2-1.7,7.1-3.4c5.8-1.5,11.9-2.6,17.8-1.2c4.4,1.1,7.9,4.7,8.8,9.1c1.3,6.7,0.4,13.7-1.6,20.2   c3.6-3.3,8.3-5.8,13.4-4.9c6.4,1.2,11.4,6.3,14.4,11.8c3.4,6.3,6.1,14,3.3,21c9.3-2.8,21.2,2,24.3,11.7c1.5,6.5-4,11.8-9.4,14.1   c7,7.5,11,17.5,11.2,27.8c0.1,6.1-2.9,13-9.3,14.7c-7.9,2.9-15.5-2.2-23.3-1.5c-7.4,0.5-14.7,1.2-22.1,1.7   c-9,0.2-18.6-1.8-24.9-8.6c-1.1-3.6-1.5-7.4-3.2-10.7c-5.6,2-9.1,7.5-14.7,9.6c-3.7,1.2-5.6-2.8-8.3-4.4c-6.6-4.3-14.5-7.4-19-14.1   c-3.4-5-3.2-11.5-1.2-17.1c-4.2,4.5-11.8,5.8-16.6,1.6c-7.6-6.4-10.8-16.7-11.3-26.4c2.2-1.6,5.8-3.1,5.4-6.3   c-1.5-7.9-10.1-12.6-10.3-20.9c-0.4-3.1,2.3-4.9,4.4-6.7c-7.1-5.9-5.5-15.8-4.9-23.9c0.7-6.7,1.5-15-4-20   c-24-22.1-53.8-37.2-85-46.4c-11-3.6-22.9-3.6-34.5-3.1c-12.9,0.4-25.6,2.3-38.1,5.6c-12.6,3.2-25.4,6.5-37.4,11.7   c-12.3,5-22.9,13-34.3,19.4c-14.8,8.5-29.4,17.5-41.6,29.7c-15.6,15.8-28.3,34.2-40.1,53c-14,22.8-23.7,48.5-27.4,75.2   c-4.3,28.5-1.6,57.3,0.9,85.7c2.5,31.9,5.3,63.9,9.1,95.7c0.5,2.6,0.9,5.8,3.4,7c5.3,0.7,9.2-3.9,12.9-7   c9.7-9.6,17.9-20.6,26.3-31.4c5.2-6.3,9.6-13.4,16.2-18.2c32-24,69.2-41.3,108.6-49.1c8.1-1.8,17.1-1.5,24.4-5.8   c4.9-3.3,7.7-8.7,10.8-13.6c2.1-1.2,4.5-2,5.9-4c2.6-4,3.1-9.1,5.3-13.2c1.6-2.9,5.3-4.5,5.9-8c1.7-6.4,2.2-14-2.3-19.3   c-3.9-4.4-10.4-4.5-15.8-3.4c-4.8,1-9.8,4.2-14.8,2c-6-4.3-5-14.7-12.9-16.9c-10.2,5.2-23.1,2.3-30.9-5.5c-2.2-2.2-3.9-5.3-3.7-8.6   c-0.1-5.5,5.8-8.1,8.3-12.4c-4.8-6.6-14-3.9-20.9-3.9c-2.8-3.4-6-8-3.9-12.6c2.9-5.5,8.8-8.3,13.2-12.6   c-7.6-3.1-15.7-6.3-21.3-12.5c-3.1-3.3-3.9-8.6-1.1-12.1c3.1-3.3,0.4-7.4,0-11c-0.7-3.4-0.4-7.5,2.1-10.2c3.9-3.2,9.7-3.6,14.2-1.5   c7.2,2.8,13.9-5.2,21.2-2.6c4.2,2.5,8.6,6.3,8.3,11.5c0.4,5.3-0.9,12.8,5.4,15c0.9-4.2,2.1-9.1,6.1-11.3c6.9-4,15.8-0.2,20.5,5.4   c4.4,4.9,5,12.5,2,18.2c3.4-3.8,9.2-4.4,13.7-2.1c6.3,3.3,10.8,9.6,12,16.6c0.7,4.3-0.2,9.1-3.7,12c6-2.5,10.5,3.3,13.4,7.9   c1.2,9.1-3.3,17.8-2.6,26.9c0.2,4.9,4.7,7.7,6.4,12c4.4,11.4,9.4,23.3,8.2,35.9c-0.4,8.6-5.9,15.7-12.3,20.9   c1.8,1.5,3.8,2.8,6.3,2.7c11.3-0.5,22.4-5.2,33.9-3.2c11,4.3,23.2,3.1,34.8,3.8c8.7,0.6,17.4,0.1,26,1.3   c12.6,2.8,22.8-8.7,35.3-8.1c4-0.4,7.5,2,10.3,4.7c1,3.6,1.1,9.2,5.6,10.1c6.9-1.3,11.5-7.6,18.3-9.4c5.2-1.7,9.6,2.3,14.5,3.2   c6.3,2.5,4.2,10.3,4.7,15.6c-0.4,2.9,2.5,4.5,5,4.7c3.7-2.8,7.9-5.8,12.8-5.5c5-0.1,9.3,3.7,11,8.2c2,4.8,1.5,10.2,0.6,15.1   c7.7-1.6,15.9-1.3,23.6,1.1c3.8,1.5,8.2,3.7,9.2,8c0.7,4.4-2.5,8.1-4.8,11.4c7,6.5,12,15.8,11.3,25.5c-0.1,5.2-4.2,10.1-9.3,10.8   c-3.9,1-7.9,0.1-11.8-0.5c-2.2,7.1-9.8,10.5-16.6,12.3c-7.6,2.1-16.8,1.1-22.1-5.4c-4,5-10.4,8.7-17.1,7.7c-3.9-0.4-6.6-3.4-9.1-6   c-5.5-0.1-10.7-2.9-13.6-7.5c-3.4-4.9-5.9-10.5-10.7-14.5c-0.2,3.2,0.5,7.5-2.9,9.3c-7.1,4.5-17.3-0.6-18.4-8.8   c-4-0.1-8.7-0.5-10.9-4.4c-3.9-6.9-3.1-15.2-5.8-22.4c-0.9-1.8-1.2-4.4-3.4-5c-3.3,3.4-5.8,8.7-11,9.4c-3.9,0.5-6.9-2.9-8.2-6.1   c-3.2-7.2-2.8-15.5-1.1-23.1c-10.1-14.6-28.8-20.6-45.9-20.2c-18,3.4-34.3,13.4-52.9,15.5c-3.6,0.2-9.6,3.2-7.7,7.6   c5.4,6.3,14.6,8.1,19.3,15.2c2.5,4,5.8,8,10.7,9.1c11.8,2.7,23.6-2.9,35.5-1.6c6.5,0.5,11.5,5,17.2,7.9c6.3,6.3-0.4,15.8,3.3,23.2   c5.3-3.9,12-5.9,18.6-5c10.8,1.2,21.5,6.3,28.7,14.6c1.6,4-1.6,9.4,1.8,13c4,3.7,10.1,2.1,15,1.7c8.2-0.7,18.2-2.3,24.5,4.2   c3.2,3.2,9.1,5.6,7.9,11c-1.7,4.9-6.5,7.6-10.4,10.4c16.3-2.1,31.6,6.9,42.6,18.3c1.6,1.8,3.7,5.2,1.3,7.4   c-3.8,3.3-9.3,3.2-13.9,5.2c1.8,4.7,8.1,4.2,12.3,4.9c5.6,1.3,6.5,7.9,7.9,12.5c0.6,4.9,6.7,8.1,4.7,13.5c-2,4.4-5.5,7.9-7.6,12.1   c2.9,2.9,6,6.3,7.5,10.4c3.4,9.8-1.7,21.2-10.4,26.5c-5,3.3-11.3,4.2-17.2,3.6c-6.5,0.2-9.2-6.7-14.6-9.2   c-2.2,2.9-3.7,6.5-4.5,10.2c-9,3.6-19.1,3.1-28.1,0.2c-5.8-2.1-12-5.8-13.7-12c-1.5-3.8,0.2-7.6,1.5-11c-1.7-1-3.4-2.1-5.3-2.8   c-2.1,0.4-3.3,2.3-3.8,4.2c-2,5.9-2.1,12.4-5.6,17.7c-2.8,3.9-9,3.4-12.4,0.5c-8.3-6.1-17.4-11.8-24-20c-2.5-2.9-3.7-6.7-2.9-10.5   c0.7-2.6,2.8-4.5,3.9-7.1c0.5-2,0.1-3.9,0.1-5.9c-5.4,0.9-10.7,4.2-16.2,2.9c-3.2-0.7-4.2-4-5.6-6.5c-3.8-1.7-7.7-3.9-9.1-8.2   c-3.4-10.8,3.2-21.8,1-32.8c-0.6-3.3-3.2-5.6-5.8-7.5c-0.9,4.2-1.2,9.2-5.2,11.7c-5.5,1.7-10.5-2.5-14-6.1   c-6.7-7.5-11.7-17.5-9.9-27.8c3.1-2.6,7.6-5.6,6.4-10.3c-2-6-7.2-11-6.4-17.9c-7.5-6.7-12.5-16.3-12.8-26.4   c-0.2-4,0.1-8.1,0.5-12.1c-10.5-5.6-21.6-11.3-33.7-12.3c-15.7-2.2-31,2.8-45.5,8.3c-20.2,8-40.2,17.4-57.8,30.4   c-7.7,5.4-12.9,13.4-19.4,20c-10.2,11.4-22,21.5-30.9,34.1c-11.3,15.5-17.5,34.2-20,53.1c-4,28.9-1.6,58.1,1.7,87.1   c1.6,13.1,6.3,25.9,13.4,36.9c5.8,8.5,13.5,16.2,23.7,19.1c7.7,2.3,15.8,0.9,23.3-1.6c9.1-0.4,18.4-0.9,27.1-3.9   c16.8-5.3,32.4-14.5,49.9-17.3c9.8-1.8,19.9-1.1,29.6,0.9c27.8,3.9,52,19.4,78.5,27.2c13.4,4.3,27.6,5.4,41.5,3.8   c-3.8,11-10.5,22.4-22.2,26.4c-5.3,2.2-11.2,0.1-16.3,2.2c-12.9,4.8-27.1,3.1-40-0.5c-16.6-4.3-33.5-10.9-50.9-8.1   c-27.6,6.9-52.6,21.3-80.5,27.6c5.5,4.7,13,6.3,20,6.5c16.7,0,32.4-7.6,49.1-8c9.3-0.1,17.5,4.8,25.4,9.1   c13.4,7.2,26.6,16.1,42.1,18.3c11.8,2.1,23.6-2,33.2-8.5c0.1,7.6-2.7,15.6-9,20.2c-11.2,8.2-25.6,9.3-39,9.4   c-13.7-0.6-27.7-2.1-40.8-6.5c-7.9-4.9-17.1-8.2-26.5-6.9c-8.3,0.9-14,7.5-20.5,12c-8.5,6.7-18.9,11.4-29.8,11.4   c-6.3,0.4-12.3-1.1-18.4-1.7c2.5,7.7,10.3,11.3,17.1,14.6c6.5,3.3,13.7,5.5,19.9,9.6c1.5,1.1,4.2,2.8,2.5,4.9   c-5,8-13.5,13.6-22.7,15.5c-13.9,2.8-28.1-0.6-40.8-6.1c-8-3.4-15.1-8.3-22-13.5c-7.7-2.8-16.6-1.2-23.9,2.1   c5.4,8.5,12.6,15.8,20.1,22.6c5,4.7,11,8.5,17.9,9.8c-1.2,6.1-6.4,10.4-12.4,11.7c-13.5,2.6-27.6,0-40.1-5.3   c-6.4-2.9-13.1-6.5-16.4-13.1c-4.2-5.8-9-11.9-15.8-14.2c-0.4,0.2-1.1,0.6-1.5,0.9c-1,7.9-2.9,15.8-7.9,22.3   c-5.2,7.4-12.8,12.6-21.3,15.3c-10.2-10.3-15.9-24-20-37.8c-7.7,6-16.4,10.5-25.1,14.8c-13.1,6.3-26.6,11.8-40.8,15.2   c-7.9,1.7-16.2,3.3-24.2,1c9-4.4,17.3-10.4,23.2-18.5c4.9-6.9,7.2-15.1,9.4-23.2c-7.9,2.5-15.7,4.9-23.4,8.1c-2.3,0.9-4.7,2-7.2,2   c-17.3,0.1-34.2,4.2-51.5,5c-12.4,0.4-25.8,0.9-36.8-5.8c-6.5-3.7-10.2-10.4-12.1-17.3c21.7-8.1,45.5-6.6,67.5-14   c8.6-2.8,16.6-7.4,23.8-12.8c-16.7,2.3-34.2,3.2-50.2-3.2c-9.7-3.6-20.1-9.9-30.7-6c-14.4,6.9-30.3,10.3-46.1,10.9   c-12.3,0.1-25.1-1.5-35.9-7.7c-9.2-5.3-15.9-14.2-18.9-24.3c12-1.8,23.3,4.3,35.3,4.4c3.9,0,7.9-1.3,10.7-4.2c1.8-2.3,5-1.6,7.6-2   c24.5-1.5,45.8-17.4,70.5-17.9c6.5-0.2,12.8,3.1,19.3,1.5c-9.6-6.3-21.1-8.1-30.3-14.7c-25-15.6-58-18.3-84.8-5.3   c-4.3,2.5-9.3,1.3-14,1.5c-15.6-0.5-31.3-1.6-46.5-5.5c-7.6-2.2-15.8-4.8-21.3-10.8c-2.5-2.6-3.1-6.1-3.4-9.4   c32-7.9,65.1-14.8,93.3-32.6c10.9-3.3,22.4-0.9,33.6-0.2c17.9,2.1,35.7,5.2,53.4,9.1c4.5,0.7,7.6,4.5,11.7,6.5   c19.4,10.2,43.8,9.2,63-0.9c9.6-5,18.2-12.6,22.8-22.6c3.7-7.4,4.5-15.7,4.8-23.8c2-31.8,3.8-63.8,1.2-95.7c-2.1-27-8.1-54.7-24-77   c-11.7-15.9-24.7-30.9-39-44.4c-13.5-12.3-28.6-22.9-45.5-29.6c-23.2-9.2-48.9-11-73.4-6.9c-10.7,2-17.3,11.4-22.8,19.9   c-4.9,7.9-11.2,15.3-20,18.8c6.5,8,9.9,19.1,6.5,29.2c-2.6,8.6-9.2,15.1-16.4,20c-2.6,1.6-4.3,4.3-4.3,7.4   c-0.6,6.9,1.1,14.2-2.2,20.6c-2.8,4.8-2.1,11.5-7,15.1c-5.2,3.9-12.1,1.3-17.5-0.7c-2.2,10.7-3.8,21.6-7.7,31.9   c-2.9,7.5-7.5,14.5-13.5,19.6c-2.6,2.2-6.1,3.2-9.4,2.3c-3.9-3.2-3.9-9.1-7.6-12.4c-2.5-2.1-5.3,0.5-7.6,1.5   c0.7,8.6,1.3,18.3-3.9,25.6c-3.7,5.6-10.1,8.1-15.6,11.4c-2.9,2-7.1,2-9.7-0.5c-3.3-2.8-6.7-5.9-11.3-6.3   c0.7,14.8-15.9,26.9-29.8,21.7c-3.6-0.9-3.9-5-6.3-7.2c-2.2-2.5-5.9-2.2-8.8-1.5c-7.9,2.2-14.7,7.6-23.2,7.4   c-4.7,0.2-9.8-2-11.7-6.5c-3.6-8.5-0.2-18.3,4.9-25.4c-5.2-6.1-11.2-13.1-10.7-21.7c0.4-6,5.8-9.8,10.7-12.3   c-0.4-2.9-1.5-7,1.8-8.6c7.1-3.6,15.5-0.9,23.1-2.8c-0.4-2.5-2.6-3.7-4-5.2c-4-3.6-8-8.5-7.4-14.1c0.7-4.7,4-8.5,7.7-11.3   c6.7-5.5,15-9.1,21.2-15.1c4.2,0.9,9.8,3.2,12.9-1c3.7-5.6,0.6-12.5-1.5-18.2c9.6-5.9,20-11.5,31.4-12.1c6.3-0.5,12.5,1.6,17.1,5.9   c2.5-0.2,4.8-0.7,7-1.7c-0.6-6.1-3.7-11.5-4.7-17.5c14.8-5.2,31.8-10.8,47-3.9c6.9-14.7,22.8-23.7,38.9-24   c7.1-10.1,15.9-19.3,19.6-31.3c-12.3-9.2-28.3-10.3-42.9-8.2c-21.6,3.2-42.1,11.3-62.2,19.5c-2.6,10.1-10.4,18.5-20.2,22.1   c-5.9,2.1-12.3,1-17.9-1.3c0.7-3.7,2.6-7.9,0.5-11.4c-0.9-2-4-2.1-5.2-0.4c-2.6,3.2-2.3,7.9-5.3,10.8c-8.2,9.8-22.1,13-34.5,12   c-6.4-0.2-12.6-2.8-16.7-7.9c1.8-3.4,3.2-7,2.9-10.9c-3.7-1.2-7.6-1.2-11.3-0.1c-11.9,3.6-25.5,1.2-35.3-6.4   c-5.8-4.5-9.1-11.5-9.6-18.8c2.5-2.5,7.5-5.8,4.9-9.7c-6.1-5.2-14.7-6-21-11c-3.3-3.4-5.3-8.1-5.4-12.9c-0.1-6.7,4.2-12.9,9.9-15.9   c9.8-5.9,23.9-5.5,32,3.1c-2.5-3.9-3.8-9.3-0.6-13.2c5.4-6.1,14.2-6.9,22-6.3c5.3,0.2,10.2,2.7,14,6.3c2.5,0.2,5.5-0.7,7.4,1.5   c4.2,4.3,3.1,12.9,9.8,14.5c-1.1-3.9-1.8-8.7,1.3-11.8c3.8-3.4,9.1-4.3,14-4c5.5-0.1,10.4,2.5,15.7,3.7c3.3,0.5,5.4,3.7,6,6.9   c1.2,5,0.6,10.4,2.6,15.3c1,2.7,3.8,3.9,6.3,5.2c1.7-3.9,3.8-8.1,7.9-9.9c4.3-2.1,9.3-0.7,13.2,1.7c7.7,4.9,12.5,13.5,13.5,22.4   c32.3-2.6,64.4-7.7,96.7-9.6c7.6-0.4,15.3-0.5,22.9,0.6c-8.6-10.4-12.5-24.4-11.8-37.9c0.1-8.2,2.7-16.3,7.5-22.9   c-9.9,2.1-19-8.2-17.7-17.7c0.6-3.7,4.3-5.2,7.6-6c-1.2-11.4-3.3-22.9-1.6-34.3c0.9-4.3,3.1-8.7,7.1-10.7c3.1-1.6,6.6-1,9.9-1   c-0.7-7.1-0.9-14.5,1.2-21.5c1.8-6.7,5.4-12.9,9.1-18.9c5.8,1.8,12.4,1.6,17.3-2.2c4.5-3.2,6-8.8,6.9-14c8.6-2.6,17.7-1.1,26.5-1.7   c5.9-0.4,11.2-4.2,17.2-3.6c8.5,0.2,17.2,7.6,16.6,16.4c-0.2,4.5-3.6,8-7,10.5c2.9,2.3,5.9,5.2,6.6,9c2,9.9-1.7,20.7-8.7,28   c-2.7,1.5-6.3,0.2-8.8,2c4,3.6,9.3,4.9,14.6,5.5c3.3,5.6,2.8,12.9-0.7,18.3c-6.4,10.2-16.7,16.8-26.5,23.3   c1.8,3.2,3.7,7.2,1.7,10.9c-2.7,4.9-8.1,7.6-12.5,10.7c-3.7,2.9-8.8,2-12.6,4.5c-5,2.9-8,9-13.6,10.9c-5.8,0.5-12.3,1.1-16.6,5.6   c-2.5,2.8-1.8,6.9,0,9.8c4.7,8.1,12.4,13.9,18.2,21.2c15.2,2,30.7,2.1,45.8,4.7c23.4,5,46.5,13.2,66.9,26.1   c15.5,9.8,28.9,22.6,40.2,37c9.1,11.5,17.7,23.7,24.8,36.6c-0.1-61.1,5.9-122.4-1-183.4c-3.3-30.4-6.9-61.6-20.4-89.4   c-8.6-18.2-21.7-33.7-35.9-47.6c-11.4-11.3-25-19.9-39.5-26.7c-23.2-11.2-48.1-18.5-73.2-23.8c-14.7-3.1-29.8-1-44.3,2.1   c-21.1,4.7-41.3,12.1-61.9,18.2c-12.3,3.4-20.7,14.1-26.7,24.7c-3.8,6.9-6.9,14-9.2,21.5c-1.2,4.4-4.9,7.7-5.9,12.3   c-2.3,10.4,3.2,21.2-0.6,31.5c-1.5,4-5.3,6.4-9,8.2c-2.2,11.5-6.4,23.2-14.6,31.9c-5,5.3-11.7,8.8-18.8,10.2   c-1.6-6.3-2.5-12.6-5.2-18.5c-2.6,9.4,0.5,20-4.9,28.7c-5.8,9.8-16.9,13.9-26.6,18.8c-5,2.3-10.2,6.7-16.1,4.9   c-5.4-2.2-6-8.8-7.9-13.6c0.1,10.4-6.4,21.3-16.9,23.8c-6.3,1.6-12.6-1.7-16.2-6.7c-9.3,4.9-19.6,8.8-30.3,8.2   c-5.2-0.1-11-2.1-13.4-7c-2.9-5.6-1.6-12.3-0.1-18.2c1.7-1.2,4.2-2.1,4.5-4.4c1-6.5-4.8-12.8-2-19.3c3.7-4.7,10.7-5.4,13.9-10.7   c2.1-2.7,1.3-6.3-0.1-9c-3.4-6.6-9-12-11-19.3c10.7-14.1,28.9-18,45.3-21.5c-2.5-5.2-3.6-11.7,0.5-16.3c6.7-8.2,17.8-11.5,28-12.1   c1.3-2.5,2.3-6.1,5.8-6.3c8-1.1,14.5,7.1,22.3,4.8c3.2-4.5,5.9-9.9,11.4-12c8.5-3.2,17.1,0.9,25.3,2.8c7,2.1,14.5,2.8,21.6,0.9   c1.2-12.8,8.3-24,17.4-32.8c13.6-13,30.3-22.7,47.6-29.7c-28.7-15.1-56.2-33.4-79.6-55.8c-9.6-5-21.3-1.1-30.9-6   c-2.9-1.5-4.3-4.5-5.3-7.5c-6.5,5.6-15.7,6-23.8,5.4c-7.7-0.9-15.7-3.1-21.7-8.2c-3.2-2.7-4.4-7.2-2.9-11.2   c1.7-3.9,5.6-6.6,7.2-10.7c-0.1-0.4-0.4-1-0.5-1.3c-11,1.2-21.7,6.7-33,4.4c-3.7-0.6-5.8-3.9-7.5-7c-4.3-1.7-9.6-3.6-11-8.5   c-2-7.7,3.9-14.2,5.5-21.3c-5.2-1.3-10.5,0.1-15.7-1.2c-14.7-2.3-27.5-14.1-30.3-28.8c-0.6-4.2-3.1-8.5-2-12.8   c3.1-4.5,9.1-4.9,13.2-8.2c-4.9-8.2-8-18.6-3.7-27.8c7-14.8,26-20.9,41.1-16.6c3.1,1.6,5.3,4.3,8.6,5.6c7.2-2.5,11.7-12.1,20.2-9.9   c9.2,3.3,20.6,5.9,25.4,15.3c4.5,8.5-2.2,18,1.5,26.6c5.6,0.9,9.9-4.4,15.6-4c4.2-0.1,6.9,3.7,10.7,4.8c4.5,1.5,8.1,5.4,9.4,9.9   c2.8,8.8-0.7,18.9,3.7,27.4c2.3,4.4,7.7,2.9,11.8,3.4c5.2,0.4,9.7,4,11.5,8.8c3.4,9.2,1.7,19.3,3.3,28.7c0.4,4.2,4.4,6.4,5.5,10.2   c3.3,9.2,4.4,19.1,9,28c2.8,5.9,8.3,9.8,12.1,15.1c11.2,13,29.1,16.2,42.6,26c10.4,6.5,22.2,13.5,35.1,11.8   c5.6-0.5,47.6-3.4,63.7-6.9c4.7-0.9,8.6-3.7,11.9-6.9c-3.2-3.8-6.7-8.6-4.8-13.9c3.9-6.5,12.5-7.6,16.8-13.6c1.3-3.1-0.9-6-2.6-8.2   c0.4-7.1,0.2-15.5,5.5-21c3.4-3.4,8.6-2.9,13-2.5c1.7-12.5,0-26.4,7.5-37.3c2.3-3.8,6.4-5.9,9.9-8.5c1.6-2.6,1.8-6.5,5.3-7.5   c5.6,0.5,9.2,5.9,14.5,7.4c2.2,0.7,4.2-0.7,6.1-1.7c-2.5-5.6-4-12.3-1.2-18c4.7-9.8,15.8-14.6,26.1-15.5c4.3-0.7,7.7,2.8,12,2.5   c5.9-0.4,10.4-4.5,15.8-6.3c5.8-2,12.8-2.7,18,1.2c7.4,5.3,9.8,15.1,9.3,23.7c-0.1,7.7-3.8,15.7-10.8,19.5   c4.2,1.2,8.8,3.2,10.3,7.7c1.8,7.2-2.3,14.1-6.9,19.4c-4.2,4.5-8.8,9.2-15,10.9c-3.8-0.4-7.6-1.2-11.4-0.5   c-2.5,6.6,2.9,13.4,0.7,20.1c-1.5,2.8-4.7,3.4-7.5,3.9c-8.2,7.7-18,14.1-29.3,15.8c-6.1,1.2-12.4,0.5-18.4-0.6   c-5.2,4.9-9,11.7-15.7,14.6c-5.8,1.6-11.8-1.6-17.5,0.1c-5.3,1-11.5,2.8-14,8c-0.1,3.9,3.9,5.9,6.9,7.4c8.1,3.4,16.8,5.3,25.1,8   c24.9,7.7,49.8,16.7,71.9,31c14.5,9.3,26.6,21.6,38.3,34.2c19.1,22,34.1,48.1,40.4,76.8c8.2-58.3,17.8-116.7,17.2-175.7   c-0.4-34-4-68.1-11.8-101.2c-2.9-12.1-5.4-24.7-11-35.8c-9.9-19.3-25.5-35-42.1-48.7c-26.7-21.2-56.3-40.6-89.9-48.6   c-10.1-2.1-20.7-4.8-30.9-1.6c-12.1,3.7-21.5,13.2-27.8,23.9c-4,7.6-4.9,17.7-12.8,22.7c-4.3,2.9-9.6-1.3-14,1   c-1.5,0.9-2.5,2.5-2.9,3.9c-2.2,7.1-0.5,15-2.8,22.1c-2.7,5.5-7.7,10.8-14.2,11c-5.8,0.6-11.5-1-17.2,0.2c-3.9,1.2-3.8,5.6-4.2,9   c-9.9,2.7-16.8,11.2-26.3,14.7c-5.2,1.8-10.7-0.4-14.1-4.3c-0.7,6.1-3.4,12.4-9,15.6c-8.1,5-18.8,3.1-26-2.6   c-5,3.8-11.7,5.6-17.8,3.7c-5.6-2-9-8.1-8.6-14c0.2-5.8,3.9-10.5,5.2-15.9c1.6-6.6,1.7-13.6,4.9-19.9c2.2-4,6.3-6.5,10.4-8.1   c-0.9-7.5-0.4-15.9,5.3-21.6c8.7-8.6,21.3-10.5,32.9-12.4c-0.4-3.8-1-7.9,1-11.3c3.1-6.4,10.1-9.9,16.9-10.5c3.8,0,4.8-5.2,8.6-5.4   c8.1-1.6,15.6,5.6,23.4,2.5c0.6-1.8,1.3-3.7,2-5.5c4.4-3.9,10.3-5.9,16.2-5.4c8.3,0.4,16.2,4,24.5,3.6c5.6-0.2,9.4-5.2,11.5-9.8   c2.3-0.1,4.8-0.4,7.1-0.5c-2.5-2.5-4.9-4.8-7.5-7.1c-12.9,0.4-21.5-10.9-33.2-13.6c-5.6-1.5-10.4,3.3-15.9,2.5   c-11-0.7-18.5-11-29.4-12c-4.4-0.7-7.9,2.9-12.3,2.9c-8.2,0.1-16.6,0.9-24.5-1.2c-2.6-0.7-6.4-2.2-5.8-5.5   c0.9-6.1,7.2-8.3,12.3-10.1c-3.3-3.6-7.9-5.4-11.4-8.6c-11.4,8.2-26,7.7-39.4,7.5c-9.2,2.7-19.3-0.6-25.6-7.5   c-2.8-2.5-4.5-6.6-2.9-10.3c2.1-2.6,5.5-3.2,8.6-4c2.5-2.3,4.3-5,5.4-8.1c-9.4-3.7-19.9,0.5-29.4-2c-2-0.5-3.2-2.1-4.5-3.3   c-3.4,0.4-7.1,1.1-10.4,0c-9-3.4-13.1-15.9-7.2-23.7c5.6,2.1,12.3,2.7,17.4-1.1c-4.2-5.8-12-2.2-17.8-4.4   c-9.2-3.3-17.3-9.8-22.3-18.2c-2.1-3.2-3.6-7.9-0.9-11.2c2.7-3.1,7.2-2.8,10.9-3.4c-5.2-8.2-14.7-14.1-16.2-24.3   c0.2-8.1-0.6-17.3,5.2-23.8c6.6-7,16.9-9.3,26.3-9c7.2,0.1,14.2,2.5,20.5,6c9.2-1.7,17.9-5.8,27.2-5.9c5.8,0,11.5,3.4,13.7,8.8   c1.6,2.8,3.1,7.5,7.1,7.1c5-1.5,9.7-4.3,15-5.2c7.2,7.9,16.8,13,24.3,20.5c4.5,4.5,8.1,10.5,8.1,17.2c0.1,3.7,0.5,7.2,1.3,10.8   c2.2-3.2,4.5-6.3,7-9.2c6.5,0.7,12.6,4.4,16.2,10.1c7.6,11.9,9,26.4,9.9,40.1c5.5-3.4,10.1-8.5,16.4-10.4c4-1.2,8.1,0.6,11.5,2.7   c0.2,12.9,0.2,26.4,5.6,38.4c2.8,6.4,8.1,11.5,14.1,15.1c0.6,8,2.9,16.3,9,21.8c5.9,6.1,14.5,8.1,22.2,11.2   c16.3,6.1,33,13.1,50.8,12.8c-4.7-7.1-13.6-9.1-19.6-14.7c-3.8-3.1-6.4-7.6-6.3-12.6c-3.6,1.6-7.4,2.9-11.2,2.3   c-8-1-14.4-6.1-21-10.1c-2.9-1.8-7.1-4.4-5.9-8.6c1.5-4,3.9-7.5,5.4-11.5c-11.9-3.2-20.7-13.5-24.7-24.9   c-1.5-4.9-2.5-10.8,0.6-15.3c2.2-3.4,7.1-3.9,9.2-7.2l-0.2-1.2c-4.2-2.5-9-3.7-13.4-5.6c-1.1-7.7-5.5-14.4-7.1-22   c-0.2-4.8-1.5-9.4-1.3-14.1c1.7-5.6,9.1-6,11.5-11.2c-3.3-0.2-7.1,0-9.7-2.3c-6.7-5.4-7.9-15.1-6.7-23.1c0.9-4.4,3.1-9.7,8.1-10.8   c2.9-0.9,6.5-1.5,8.3-4.2c3.7-5.5,3.2-12.6,2.1-18.9c10.4-12,30.3-15.2,43.3-5.6c5,3.8,7.4,10.3,13.4,12.9c2-2.3,3.6-5.2,6.4-6.5   c7.2,0.1,12.4,6.5,15.2,12.6c2.3,5.6,5.2,11,7.9,16.6c-2.8,6.7-7.1,13.1-7.5,20.7c4.8-3.3,8.5-9.4,15.1-9.2c3.6,0,5.5,3.7,6.5,6.6   c3.1,10.2,1.7,21,3.8,31.3c0.5,2.9,0.9,6.4-1.3,8.6c-2.8,2.3-6.6,3.1-9.6,5.3c-1.5,1.5-1.1,3.8-1.5,5.8c5.4-1.6,12.9-0.7,14.7,5.4   c1,5.4,0.7,11,2.3,16.3c1,11.9-11.5,18.3-14.5,28.9c3.7-0.2,8.1-1.5,11.3,1c4.5,3.2,4.7,10.2,2,14.6c-2.3,4.2-8.1,5-9.8,9.7   c-3.7,8.1-1.2,17.2,0,25.6c1.3,6.9,2.2,13.7,2,20.9c13,2.1,25.3,7.4,36.8,13.6c12.1,6.7,25.1,11.9,36.8,19.7   c23.6,15.5,45.9,33.4,64,55c7.5,9.2,14.7,19.4,16.7,31.4c-0.6-34.5-2.8-69.1-1.3-103.7c-1-5.4-7.1-9-6.5-14.8   c0.1-3.9,3.8-7.1,2.6-11c-2.5-3.3-6.9-3.3-10.4-4c-0.2-7-6.3-11.2-10.1-16.3c-2-2.2-1.6-5.3-1.8-8c2.1-0.6,4.5-0.6,6.1-2.5   c5.9-7.1-1-20.9-10.7-17.9c-1.1-1.8-2.1-4.4-4.5-4.7c-4.5-0.6-9.2,0.2-13.5-1.7c0.4-5.8-0.2-11.7-0.5-17.4   c-0.1-3.6-0.1-7.7,2.9-10.1c2.8-1.3,6.1-1.2,9.1-2.1c2.1-1.3,0.2-4.2-1.6-4.7c-2.3-1.3-4.9-0.6-7.2,0c-0.2-5.4-5.5-8.2-8.1-12.5   c5.6-11.3,9-24.3,6.6-36.9c-0.6-6.1-3.7-11.7-4.2-17.7c5.2-5.9,13.6-3.8,20.4-5.5c-2.5-2.9-5.6-5-7.5-8.5   c-5.2-10.7-2.5-24.4,6-32.5c2.7-0.7,5.8-1,7.7-3.2c3.2-3.8,4.7-9,8.6-12.1C1172.3,90.5,1177.3,89.8,1182.1,89.2z"
   id="path2"
   style="fill:#ebd6a3;fill-opacity:1" />&#10;</g>&#10;</svg>
