<?xml version="1.0" encoding="UTF-8" standalone="no"?>
<svg
   xmlns:dc="http://purl.org/dc/elements/1.1/"
   xmlns:cc="http://creativecommons.org/ns#"
   xmlns:rdf="http://www.w3.org/1999/02/22-rdf-syntax-ns#"
   xmlns:svg="http://www.w3.org/2000/svg"
   xmlns="http://www.w3.org/2000/svg"
   xmlns:sodipodi="http://sodipodi.sourceforge.net/DTD/sodipodi-0.dtd"
   xmlns:inkscape="http://www.inkscape.org/namespaces/inkscape"
   viewBox="0 0 145.30613 181.69"
   version="1.1"
   id="svg17"
   sodipodi:docname="Agder våpen.svg"
   width="145.30614"
   height="181.69"
   inkscape:version="0.92.4 (5da689c313, 2019-01-14)">
  <metadata
     id="metadata21">
    <rdf:RDF>
      <cc:Work
         rdf:about="">
        <dc:format>image/svg+xml</dc:format>
        <dc:type
           rdf:resource="http://purl.org/dc/dcmitype/StillImage" />
        <dc:title>AGDER_fylkesvåpen_rgb</dc:title>
      </cc:Work>
    </rdf:RDF>
  </metadata>
  <sodipodi:namedview
     pagecolor="#ffffff"
     bordercolor="#666666"
     borderopacity="1"
     objecttolerance="10"
     gridtolerance="10"
     guidetolerance="10"
     inkscape:pageopacity="0"
     inkscape:pageshadow="2"
     inkscape:window-width="1920"
     inkscape:window-height="1027"
     id="namedview19"
     showgrid="false"
     fit-margin-top="0"
     fit-margin-left="0"
     fit-margin-right="0"
     fit-margin-bottom="0"
     inkscape:zoom="1.285193"
     inkscape:cx="-10.603752"
     inkscape:cy="90.874998"
     inkscape:window-x="-8"
     inkscape:window-y="-8"
     inkscape:window-maximized="1"
     inkscape:current-layer="svg17" />
  <defs
     id="defs4">
    <style
       id="style2">.cls-1{fill:#e01f1d;}.cls-2{fill:#ebd6a3;}</style>
  </defs>
  <title
     id="title6">AGDER_fylkesvåpen_rgb</title>
  <g
     id="Normal"
     transform="translate(-0.9977765,-1)">
    <path
       class="cls-1"
       d="M 146.3,1 H 1 v 95.69 c 0,0.34 -0.69,28.9 22.24,55 13.33,15.19 45.46,29 50.41,31 4.95,-2.07 37.08,-15.86 50.42,-31 22.93,-26.1 22.24,-54.69 22.23,-55 z"
       id="path8"
       inkscape:connector-curvature="0"
       style="fill:#e01f1d" />
    <path
       class="cls-2"
       d="M 64.86,63.72 Z"
       id="path10"
       inkscape:connector-curvature="0"
       style="fill:#ebd6a3" />
    <path
       class="cls-2"
       d="M 82.47,63.73 Z"
       id="path12"
       inkscape:connector-curvature="0"
       style="fill:#ebd6a3" />
    <path
       class="cls-2"
       d="m 133.58,84.44 c -1,-2.54 -4.94,0.2 -5.79,-1.84 -0.58,-1.39 2.62,-1.76 1.63,-3.91 -1.19,-2.6 -6.34,0.69 -7.35,-0.9 -0.82,-1.3 2.44,-1.5 1.45,-3.78 -0.55,-1.29 -2.54,-0.75 -3.39,-0.56 L 115,74.51 c -0.81,-0.89 -2.4,-2 -5.43,-3.33 -0.77,-0.24 2,-2.49 2.74,-3.05 0.42,-0.32 1.85,-1.44 2.75,-2.17 l 5.13,1.04 c 0.85,0.19 2.85,0.72 3.4,-0.56 1,-2.28 -2.28,-2.48 -1.45,-3.78 1,-1.59 6.15,1.69 7.35,-0.9 1,-2.15 -2.21,-2.52 -1.63,-3.91 0.85,-2 4.78,0.7 5.78,-1.84 1,-2.54 -3.32,-3 -2,-4.47 1.32,-1.47 3.43,-3.7 1.67,-5.47 -1.76,-1.77 -4,0.37 -5.48,1.66 -1.48,1.29 -1.93,-3 -4.47,-2 -2.54,1 0.21,4.93 -1.84,5.79 -1.39,0.58 -1.75,-2.63 -3.91,-1.64 -2.59,1.2 0.69,6.35 -0.9,7.36 -1.3,0.82 -1.5,-2.44 -3.78,-1.46 -1.28,0.56 -0.74,2.55 -0.55,3.4 l 1.15,5.62 c -2,1.89 -5.55,5.24 -7.83,5.12 -0.27,0 -8.14,-1.29 -13.63,1.44 -9.94,4.96 -12.22,9.64 -13.31,11.89 -0.48,1 -0.7,1.4 -1.1,1.42 0,0 0,0 -0.11,-0.06 -1,-1 -1.06,-6.85 -1.06,-13.82 -0.13,-5.07 4.11,-7.74 7.27,-9 l 5.88,2.89 c 0.77,0.4 2.56,1.43 3.42,0.33 1.54,-2 -1.57,-3 -0.45,-4 1.38,-1.28 5.53,3.2 7.35,1 1.5,-1.83 -1.51,-3 -0.59,-4.19 1.34,-1.76 4.45,1.88 6.06,-0.32 1.61,-2.2 -2.46,-3.71 -0.82,-4.83 1.64,-1.12 4.26,-2.72 3,-4.88 -1.26,-2.16 -4,-0.65 -5.72,0.23 -1.72,0.88 -1.1,-3.41 -3.81,-3.08 -2.71,0.33 -1.08,4.75 -3.25,5.06 -1.48,0.21 -1,-3 -3.36,-2.57 -2.82,0.5 -1,6.32 -2.74,6.89 -1.46,0.47 -0.83,-2.74 -3.29,-2.37 -1.38,0.22 -1.36,2.28 -1.39,3.15 l -0.25,4.64 a 16,16 0 0 0 -6.61,3.85 0.21,0.21 0 0 1 -0.36,-0.16 c 0.26,-6.12 0.28,-10 2.34,-13.61 2.06,-3.61 6,-9.26 12,-11.69 l 1.42,-0.64 6.12,1.63 c 0.83,0.24 2.79,0.89 3.42,-0.35 1.12,-2.22 -2.13,-2.61 -1.23,-3.86 1.1,-1.53 6,2.05 7.39,-0.47 1.12,-2.09 -2.06,-2.65 -1.4,-4 1,-2 4.74,1 5.89,-1.5 1.15,-2.5 -3.15,-3.16 -1.75,-4.58 1.4,-1.42 3.64,-3.5 2,-5.37 -1.64,-1.87 -4,0.14 -5.56,1.35 -1.56,1.21 -1.75,-3.13 -4.35,-2.27 -2.6,0.86 -0.07,4.93 -2.12,5.67 -1.42,0.49 -1.6,-2.73 -3.81,-1.86 -2.66,1 0.32,6.37 -1.33,7.29 -1.34,0.74 -1.35,-2.53 -3.69,-1.68 -1.31,0.48 -0.89,2.5 -0.75,3.36 L 92,35.42 A 35.3,35.3 0 0 0 77.42,47 l -0.46,0.7 c -0.56,0.87 -0.89,1.35 -1.37,1.42 0,-0.49 -0.47,-5.13 -0.58,-8.25 l 4.48,-3 c 0.74,-0.47 2.53,-1.5 2,-2.8 -0.91,-2.31 -3.36,-0.14 -3.7,-1.64 -0.41,-1.84 5.55,-3.16 4.56,-5.84 -0.82,-2.22 -3.34,-0.22 -3.91,-1.61 -0.84,-2.05 3.87,-2.89 2.79,-5.39 -1.08,-2.5 -4.46,0.25 -4.59,-1.74 -0.13,-1.99 -0.19,-5.05 -2.69,-5.05 a 3,3 0 0 0 -0.31,0 3,3 0 0 0 -0.31,0 c -2.5,0 -2.56,3.08 -2.69,5.05 -0.13,1.97 -3.5,-0.77 -4.58,1.74 -1.08,2.51 3.64,3.41 2.8,5.46 -0.57,1.39 -3.1,-0.61 -3.92,1.61 -1,2.68 5,4 4.56,5.84 -0.33,1.5 -2.78,-0.67 -3.7,1.64 -0.51,1.3 1.27,2.33 2,2.8 l 4.48,3 c -0.11,3.12 -0.53,7.76 -0.57,8.25 -0.49,-0.07 -0.82,-0.55 -1.38,-1.42 l -0.46,-0.7 A 35.3,35.3 0 0 0 55.26,35.42 l 0.66,-4.57 c 0.14,-0.86 0.56,-2.88 -0.75,-3.36 -2.33,-0.85 -2.34,2.42 -3.69,1.68 -1.64,-0.92 1.33,-6.25 -1.33,-7.29 -2.2,-0.87 -2.38,2.35 -3.8,1.86 -2.09,-0.74 0.41,-4.82 -2.18,-5.67 -2.59,-0.85 -2.77,3.49 -4.34,2.27 -1.57,-1.22 -3.9,-3.22 -5.56,-1.35 -1.66,1.87 0.59,4 2,5.37 1.41,1.37 -2.9,2.1 -1.75,4.58 1.15,2.48 4.91,-0.49 5.88,1.5 0.66,1.35 -2.52,1.91 -1.4,4 1.35,2.52 6.3,-1.06 7.39,0.47 0.9,1.25 -2.34,1.64 -1.23,3.86 0.63,1.24 2.59,0.59 3.43,0.35 l 6.12,-1.63 1.41,0.64 c 6,2.43 10.07,8.27 12,11.69 1.93,3.42 2.08,7.49 2.34,13.61 A 0.21,0.21 0 0 1 70.1,63.59 16,16 0 0 0 63.5,59.74 L 63.25,55.1 c 0,-0.87 0,-2.93 -1.4,-3.15 -2.46,-0.37 -1.82,2.84 -3.29,2.37 -1.79,-0.57 0.08,-6.39 -2.73,-6.89 C 53.5,47 54,50.21 52.47,50 c -2.19,-0.31 -0.54,-4.8 -3.25,-5.13 -2.71,-0.33 -2,4 -3.81,3.08 -1.81,-0.92 -4.45,-2.38 -5.72,-0.23 -1.27,2.15 1.37,3.77 3,4.88 1.63,1.11 -2.43,2.63 -0.82,4.83 1.61,2.2 4.72,-1.44 6.07,0.32 0.91,1.19 -2.1,2.36 -0.59,4.19 1.81,2.21 6,-2.27 7.34,-1 1.12,1 -2,2.07 -0.45,4 0.86,1.1 2.65,0.07 3.43,-0.33 l 5.87,-2.89 c 3.16,1.29 7.4,4 7.28,9 0,7 -0.11,12.87 -1.07,13.82 -0.06,0.07 -0.1,0.06 -0.11,0.06 -0.39,0 -0.62,-0.45 -1.09,-1.42 -1.1,-2.25 -3.37,-6.93 -13.3,-11.88 -5.5,-2.73 -13.37,-1.48 -13.63,-1.44 -2.28,0.12 -5.8,-3.23 -7.83,-5.12 l 1.15,-5.62 c 0.19,-0.85 0.72,-2.84 -0.56,-3.4 -2.28,-1 -2.48,2.28 -3.78,1.46 -1.59,-1 1.69,-6.16 -0.9,-7.36 -2.15,-1 -2.52,2.22 -3.91,1.64 -2,-0.86 0.7,-4.79 -1.84,-5.79 -2.54,-1 -3,3.32 -4.47,2 -1.47,-1.32 -3.7,-3.43 -5.47,-1.66 -1.77,1.77 0.37,4 1.66,5.47 1.29,1.47 -3,1.93 -2,4.47 1,2.54 4.93,-0.2 5.79,1.84 0.58,1.39 -2.63,1.76 -1.64,3.91 1.2,2.59 6.35,-0.69 7.36,0.9 0.82,1.3 -2.44,1.5 -1.46,3.78 0.56,1.28 2.55,0.75 3.4,0.56 L 32.27,66 c 0.89,0.73 2.33,1.85 2.74,2.17 0.74,0.56 3.52,2.81 2.74,3.05 -3,1.34 -4.62,2.44 -5.42,3.33 l -5.15,-1.06 c -0.85,-0.19 -2.85,-0.73 -3.4,0.56 -1,2.28 2.28,2.48 1.45,3.78 -1,1.59 -6.15,-1.7 -7.35,0.9 -1,2.15 2.21,2.52 1.63,3.91 -0.85,2 -4.78,-0.7 -5.78,1.84 -1,2.54 3.32,3 2,4.47 -1.32,1.47 -3.43,3.7 -1.66,5.47 1.77,1.77 4,-0.37 5.47,-1.67 1.47,-1.3 1.93,3 4.47,2 2.54,-1 -0.2,-4.93 1.84,-5.79 1.39,-0.58 1.76,2.63 3.91,1.63 2.59,-1.19 -0.69,-6.34 0.9,-7.35 1.3,-0.82 1.5,2.44 3.78,1.46 1.28,-0.56 0.75,-2.55 0.55,-3.4 l -1.15,-5.7 a 17.94,17.94 0 0 1 8.51,-3.67 c 12.33,-1.62 20.44,6.6 23.65,13.94 2.54,5.85 2.33,21.1 1.34,24.8 0,0 -0.3,0.21 -7.22,-4.32 a 11.6,11.6 0 0 1 -3.56,-3.71 l 2.26,-4.46 c 0.41,-0.77 1.46,-2.55 0.37,-3.42 -1.94,-1.55 -3,1.54 -4,0.4 -1.27,-1.39 3.25,-5.49 1.07,-7.33 -1.82,-1.52 -3,1.47 -4.2,0.55 -1.75,-1.37 1.93,-4.44 -0.25,-6.07 -2.18,-1.63 -3.75,2.42 -4.84,0.76 -1.09,-1.66 -2.67,-4.29 -4.84,-3 -2.17,1.29 -0.7,4 0.16,5.72 0.86,1.72 -3.42,1.07 -3.12,3.78 0.3,2.71 4.81,1.1 5.09,3.3 0.2,1.49 -3,1 -2.6,3.34 0.47,2.82 6.3,1 6.85,2.81 0.45,1.47 -2.75,0.8 -2.4,3.26 0.2,1.39 2.26,1.4 3.13,1.43 l 5.5,0.36 a 11.32,11.32 0 0 0 2.15,2.68 25.67,25.67 0 0 0 -10,2.45 l -5.49,-2.26 c -0.79,-0.35 -2.65,-1.25 -3.44,-0.09 -1.4,2 1.77,2.86 0.72,4 -1.29,1.37 -5.73,-2.82 -7.39,-0.5 -1.38,1.93 1.69,2.89 0.86,4.15 -1.22,1.84 -4.57,-1.59 -6,0.71 -1.43,2.3 2.71,3.55 1.14,4.77 -1.57,1.22 -4.07,3 -2.67,5.06 1.4,2.06 4,0.4 5.69,-0.6 1.69,-1 1.33,3.32 4,2.82 2.67,-0.5 0.73,-4.88 2.9,-5.34 1.47,-0.3 1.23,2.91 3.53,2.34 2.77,-0.68 0.52,-6.36 2.27,-7 1.43,-0.56 1,2.68 3.44,2.14 1.36,-0.3 1.21,-2.36 1.18,-3.23 v -4.86 a 12.68,12.68 0 0 1 2.7,-1.31 c 3.6,-1.06 14,-3.82 16.06,9.53 1.33,6.09 0.79,12 -1.09,15.56 -2.45,4.67 -7.59,-0.07 -12.57,-1.88 -9.47,-3.43 -15.45,2.74 -18.9,3.95 a 6,6 0 0 1 -4.17,0.09 0.42,0.42 0 0 0 -0.49,0.63 c 1.65,2.4 5.55,6.71 10.68,3.28 7.71,-5.13 15.07,-2.9 18.6,0.46 a 0.41,0.41 0 0 1 -0.41,0.69 c -6.37,-1.77 -9.15,2.93 -13.38,5.07 a 8,8 0 0 1 -7.21,-0.06 0.42,0.42 0 0 0 -0.57,0.54 7.25,7.25 0 0 0 3.63,3.95 c 5.13,2.09 10.24,-1.2 12.86,-3.39 3.26,-2.73 9.87,-0.79 9.33,2.56 -0.43,2.57 -5.2,4.17 -7.16,4.72 a 0.41,0.41 0 0 0 -0.12,0.74 7.52,7.52 0 0 0 4.41,1.36 c 6.83,-0.36 6.57,-6.16 9.07,-5.36 2,0.27 3.85,11.3 4.93,11.32 1.08,0.02 2.89,-11 4.94,-11.32 2.49,-0.8 2.24,5 9.06,5.36 a 7.49,7.49 0 0 0 4.41,-1.36 0.41,0.41 0 0 0 -0.12,-0.74 c -2,-0.55 -6.73,-2.15 -7.15,-4.72 -0.55,-3.35 6.06,-5.29 9.32,-2.56 2.62,2.19 7.74,5.48 12.87,3.39 a 7.23,7.23 0 0 0 3.62,-3.95 0.42,0.42 0 0 0 -0.56,-0.54 8,8 0 0 1 -7.22,0.06 c -4.22,-2.14 -7,-6.84 -13.37,-5.07 a 0.41,0.41 0 0 1 -0.41,-0.69 c 3.52,-3.36 10.89,-5.59 18.59,-0.46 5.14,3.43 9,-0.88 10.68,-3.28 a 0.42,0.42 0 0 0 -0.49,-0.63 6,6 0 0 1 -4.16,-0.09 c -3.45,-1.21 -9.44,-7.38 -18.91,-3.95 -5,1.81 -10.11,6.55 -12.56,1.88 -1.89,-3.59 -2.43,-9.47 -1.1,-15.56 2.1,-13.35 12.46,-10.59 16.06,-9.53 a 13,13 0 0 1 2.71,1.31 l -0.06,4.86 c 0,0.87 -0.18,2.93 1.19,3.23 2.42,0.54 2,-2.7 3.43,-2.14 1.75,0.69 -0.5,6.37 2.27,7 2.31,0.57 2.06,-2.64 3.53,-2.34 2.17,0.46 0.22,4.84 2.91,5.34 2.69,0.5 2.29,-3.82 4,-2.82 1.71,1 4.29,2.67 5.69,0.6 1.4,-2.07 -1.11,-3.85 -2.66,-5.06 -1.55,-1.21 2.59,-2.46 1.13,-4.77 -1.46,-2.31 -4.8,1.13 -6,-0.71 -0.83,-1.26 2.25,-2.22 0.87,-4.15 -1.67,-2.32 -6.11,1.87 -7.39,0.5 -1.06,-1.12 2.11,-1.93 0.71,-4 -0.79,-1.16 -2.64,-0.26 -3.44,0.09 l -5.48,2.26 A 25.74,25.74 0 0 0 90.68,106.75 10.84,10.84 0 0 0 92.62,104 l 5.5,-0.36 c 0.87,0 2.94,0 3.13,-1.43 0.35,-2.46 -2.85,-1.79 -2.4,-3.26 0.55,-1.8 6.39,0 6.86,-2.81 0.39,-2.34 -2.8,-1.85 -2.61,-3.34 0.29,-2.2 4.8,-0.59 5.1,-3.3 0.3,-2.71 -4,-2 -3.12,-3.78 0.88,-1.78 2.33,-4.48 0.16,-5.72 -2.17,-1.24 -3.75,1.41 -4.84,3 -1.09,1.59 -2.66,-2.4 -4.84,-0.76 -2.18,1.64 1.49,4.7 -0.25,6.07 -1.19,0.92 -2.39,-2.07 -4.2,-0.55 -2.19,1.84 2.33,5.94 1.07,7.33 -1,1.14 -2.09,-2 -4,-0.4 -1.09,0.87 -0.05,2.65 0.36,3.42 l 2.26,4.46 a 11.56,11.56 0 0 1 -3.55,3.71 c -6.93,4.53 -7.23,4.32 -7.23,4.32 -1,-3.7 -1.2,-19 1.34,-24.8 C 84.51,78.53 92.62,70.31 105,71.93 a 17.85,17.85 0 0 1 8.51,3.67 l -1.16,5.68 c -0.19,0.85 -0.73,2.84 0.56,3.4 2.27,1 2.48,-2.28 3.78,-1.46 1.58,1 -1.7,6.16 0.9,7.35 2.15,1 2.52,-2.21 3.9,-1.63 2,0.86 -0.69,4.79 1.85,5.79 2.54,1 3,-3.33 4.46,-2 1.46,1.33 3.71,3.44 5.48,1.67 1.77,-1.77 -0.37,-4 -1.67,-5.47 -1.3,-1.47 2.97,-1.93 1.97,-4.49 z"
       id="path14"
       inkscape:connector-curvature="0"
       style="fill:#ebd6a3" />
  </g>
</svg>
