<?xml version="1.0" encoding="UTF-8"?>
<!-- Created with Inkscape (http://www.inkscape.org/) -->
<svg width="820.34" height="1e3" version="1.1" viewBox="0 0 820.34 1e3" xml:space="preserve" xmlns="http://www.w3.org/2000/svg"><g transform="matrix(1.3333 0 0 -1.3333 -1.4658 43.954)"><g transform="matrix(24.101 0 0 24.101 -42.721 -761.53)"><path d="m1.856 32.966s-0.18281-8.9754 1.377-15.545l4.207-8.723 7.1423-3.4285 7.1414 3.4284 0.0015 0.00151c1.2414 1.6113 2.3799 3.4809 3.2666 5.6777 0.3676 0.9118 0.67756 1.9439 0.93896 3.0439 1.5601 6.5695 1.3784 15.545 1.3784 15.545l-12.727-4.6679z" fill="#d0d0ce"/><g fill="#007096"><path d="m27.309 32.966h-25.453l12.727-15.544z"/><path transform="matrix(.75 0 0 -.75 0 35.5)" d="m9.9199 35.736c3.1349 4.0682 6.7616 6.8964 9.5231 9.0938 2.7609-2.1974 6.3865-5.0255 9.5218-9.0938z"/><path transform="matrix(.75 0 0 -.75 0 35.5)" d="m4.3105 24.105c0.34844 1.4667 0.76328 2.8429 1.2539 4.0586 1.1818 2.9291 2.6997 5.4219 4.3555 7.5703l9.5234-11.629z"/></g></g></g></svg>
