<?xml version="1.0" encoding="UTF-8"?>
<svg id="svg2" width="1e3" height="600" version="1.1" viewBox="0 0 100 60" xmlns="http://www.w3.org/2000/svg" xmlns:cc="http://creativecommons.org/ns#" xmlns:dc="http://purl.org/dc/elements/1.1/" xmlns:rdf="http://www.w3.org/1999/02/22-rdf-syntax-ns#" xmlns:xlink="http://www.w3.org/1999/xlink">
 <metadata id="metadata37">
  <rdf:RDF>
   <cc:Work rdf:about="">
    <dc:format>image/svg+xml</dc:format>
    <dc:type rdf:resource="http://purl.org/dc/dcmitype/StillImage"/>
   </cc:Work>
  </rdf:RDF>
 </metadata>
 <title id="title4">Flagge von Berlin</title>
 <desc id="desc6">die Flagge von Berlin</desc>
 <g id="Flagge">
  <rect id="rect9" width="100" height="60" fill="#e2001a"/>
  <rect id="rect11" y="12" width="100" height="36" fill="#fff"/>
 </g>
 <svg id="Baer" x="30" y="13" width="20.5" height="34" version="1.1" viewBox="0 0 2500 4140">
  <path id="Koerper" d="m1522 109-244 9c-12 1-21 7-21 21 1 88 18 145 81 191-8 49-3 74 48 115 5-40 21-58 46-75 2 1 4 1 5 2-3 18-3 37 1 48 10 28 59 29 72 9 12 29 37 30 57 30 21 0 31-15 38-29 12 10 24 21 35 35 35 48 41 110 41 169l-33 3v-24c-1-34-80-40-98-11-20-22-82-18-82 17v11c-14-18-25-37-34-56-25 16-40 28-36 85-11 1-22 2-32 3 1 66 30 84 266 79 6 66-60 103-109 134-128 73-263 153-336 287-61 106-76 232-69 354l70-31 8 38c-126 60-356 182-507 252-37 17-133 41-153 7-69-119-124-209-204-300-143 63-209 121-263 254 113 173 300 421 610 423 321 2 600-116 661-134l13 41c-41 18-77 31-120 45 56 220 121 306 272 440l-31 23c-27-16-73-67-98-91-321 152-441 304-518 461-85 189-69 404-33 603 7 33-29 49-56 39-74-17-115-91-186-118-32-14-71-27-106-22-82 117-72 176-61 323 108 53 224 66 344 128 79 32 155 84 245 70 51-5 102-40 107-94 45-194 108-400 256-540 71-70 163-126 254-169-36-138-63-276-60-420l44-2c32 548 178 663 435 918 26 26 24 75-14 90-50 25-109 27-166 29-10 142 23 281 75 338 158-3 322-128 417-249 40-50 88-100 126-149 47-61-4-132-18-188-39-160-57-620-59-684l56 1 8-116c-167-207-140-531-209-740-27-85-57-173-57-263 0-122 138-351 135-555-1-86-49-198-48-249 1-148 86-116 84-424-1-85-11-148-33-235 149-157-56-314-174-216-95-25-107-50-293-50-159 0-250 43-349 109zm-288 917c-292-86-499-125-615-213-117-89-69-280-206-389-127-4-203 53-257 124 219 337-73 419 918 985-4-313 55-378 160-507zm605-727c-15 0-42-8-50-19-87-133-109-85-122-39-11 41-59 42-45-13 35-135 130-116 248 71zm277-135c24-32 61-63 101-76 59-20 83 28 36 44-39 14-72 41-100 69zm-767 173c15 9 36 20 67 29-17 14-33 34-38 56-27-19-38-54-29-85zm160 53c0 13-3 26-7 32-10 16-47 15-55-7-3-9-3-25 1-40 20 5 41 9 61 15zm12 3c27 8 53 17 76 32-5 12-14 24-32 24-16 0-34-1-44-20-5-10-3-24 0-36zm-54 260-59 5c-3-28 0-52 22-68 11 20 23 39 37 56zm10-0.5v-31.5c0-33 70-31 71 0v25zm80-7.5v-28c0-33 81-31 81-1v22z"/>
  <g id="rote_Elemente" fill="#e2001a">
   <path id="Zunge" d="m1178 378c1 256 379 130 499 191-2-16-5-32-10-48-61-22-148-7-241-22-187-30-210-83-210-122-1-41-38-43-38 1"/>
   <g id="Krallen">
    <path id="Kralle" d="m329 3474s35-13 110 26c36 18 58-51 28-60-92-29-138 34-138 34" fill="#e2001a"/>
    <use id="use19" transform="translate(-25,63)" fill="#e2001a" xlink:href="#Kralle"/>
    <use id="use21" transform="translate(-44,128)" fill="#e2001a" xlink:href="#Kralle"/>
    <use id="use23" transform="translate(-46,197)" fill="#e2001a" xlink:href="#Kralle"/>
    <use id="use25" transform="translate(-37,267)" fill="#e2001a" xlink:href="#Kralle"/>
   </g>
   <use id="use27" transform="matrix(.98585 -.36275 .36275 .98585 152.87 556.32)" xlink:href="#Krallen"/>
   <use id="use29" transform="matrix(.6627 .94841 -.71771 .8958 2492.2 -2039.7)" xlink:href="#Krallen"/>
   <use id="use31" transform="matrix(.50092 .73949 -.73949 .50092 2724.4 -1655.9)" xlink:href="#Krallen"/>
  </g>
 </svg>
</svg>
