<svg height="600" width="1200" xmlns="http://www.w3.org/2000/svg" xmlns:xlink="http://www.w3.org/1999/xlink"><clipPath id="a"><path d="m0 0v150h700v150h-100zm600 0h-300v350h-300v-50z"/></clipPath><path d="m0 0h1200v600h-1200z" fill="#012169"/><path d="m0 0 600 300m0-300-600 300" stroke="#fff" stroke-width="60"/><path clip-path="url(#a)" d="m0 0 600 300m0-300-600 300" stroke="#c8102e" stroke-width="40"/><path d="m300 0v350m-300-200h700" stroke="#fff" stroke-width="100"/><path d="m300 0v350m-300-200h700" stroke="#c8102e" stroke-width="60"/><path d="m0 300h600v-300h200v400h-800z" fill="#012169"/><g transform="matrix(4.5354331 0 0 4.5354331 780 -897.02355)"><path d="m1.0583333 232.17707c0 33.29588 3.8608765 44.76863 11.5897437 52.49754 4.609612 4.57608 6.65299 6.29802 13.810255 11.00246 7.157274-4.70444 9.200649-6.42638 13.810261-11.00246 7.728868-7.72891 11.58974-19.20166 11.58974-52.49754-5.621656 2.40694-8.825192 3.57385-13.461006 3.50245-4.14698-.0638-8.540908-1.9898-11.938995-3.50245-3.398085 1.51265-7.792001 3.43857-11.938987 3.50245-4.6358187.0714-7.8393567-1.09551-13.4610117-3.50245z" fill="#fff" stroke-width=".381233"/><g transform="matrix(.77356547 0 0 .73749905 -182.3757 184.68477)"><circle cx="15.07813" cy="-30.97657" fill="#fff" r="0"/><g transform="translate(0 -.000003)"><path d="m271 87c1.543 3.6293 6.49 7.637 7.85 9.6011-1.731 1.964-2.077 1.7501-1.85 5.3989 3.01-3.1493 3.064-3.4776 5-3 4.241 4.232.759 13.321-2.746 15.297-3.504 2.108-2.868-.073-8.12 2.569 2.408 2.059 5.198-.302 7.478.329 1.239 1.47-.589 4.149.374 6.672 2.015-.194 1.773-4.262 2.242-5.737 1.472-5.404 10.322-9.173 10.772-14.13 1.866-.876 3.731-.274 6 1-1.13-4.644-4.868-4.594-5.87-6.0444-2.385-3.6446-4.499-7.8024-9.593-8.881-3.867-.8188-3.578.2463-6.056-1.444-1.543-1.2014-6.231-3.4734-5.481-1.6306z" fill="#f90"/><circle cx="281.31705" cy="91.127861" fill="#fff" r=".805969"/></g><g transform="matrix(-.46715699 -.884169 .88416899 -.467157 308.31179 382.6492)"><path d="m271 87c1.543 3.6293 6.49 7.637 7.85 9.6011-1.731 1.964-2.077 1.7501-1.85 5.3989 3.01-3.1493 3.064-3.4776 5-3 4.241 4.232.759 13.321-2.746 15.297-3.504 2.108-2.868-.073-8.12 2.569 2.408 2.059 5.198-.302 7.478.329 1.239 1.47-.589 4.149.374 6.672 2.015-.194 1.773-4.262 2.242-5.737 1.472-5.404 10.322-9.173 10.772-14.13 1.866-.876 3.731-.274 6 1-1.13-4.644-4.868-4.594-5.87-6.0444-2.385-3.6446-4.499-7.8024-9.593-8.881-3.867-.8188-3.578.2463-6.056-1.444-1.543-1.2014-6.231-3.4734-5.481-1.6306z" fill="#f90"/><circle cx="281.31705" cy="91.127861" fill="#fff" r=".805969"/></g><g transform="matrix(-.51503599 .857166 -.85716599 -.51503599 492.99828 -82.935809)"><path d="m271 87c1.543 3.6293 6.49 7.637 7.85 9.6011-1.731 1.964-2.077 1.7501-1.85 5.3989 3.01-3.1493 3.064-3.4776 5-3 4.241 4.232.759 13.321-2.746 15.297-3.504 2.108-2.868-.073-8.12 2.569 2.408 2.059 5.198-.302 7.478.329 1.239 1.47-.589 4.149.374 6.672 2.015-.194 1.773-4.262 2.242-5.737 1.472-5.404 10.322-9.173 10.772-14.13 1.866-.876 3.731-.274 6 1-1.13-4.644-4.868-4.594-5.87-6.0444-2.385-3.6446-4.499-7.8024-9.593-8.881-3.867-.8188-3.578.2463-6.056-1.444-1.543-1.2014-6.231-3.4734-5.481-1.6306z" fill="#f90"/><circle cx="281.31705" cy="91.127861" fill="#fff" r=".805969"/></g></g><path d="m7.4300387 277.60944c1.4814946 2.81218 3.2195483 5.06645 5.2182843 7.0652 4.609613 4.57608 6.652744 6.29799 13.810009 11.00243 7.157275-4.70444 9.200914-6.42635 13.810527-11.00243 1.998701-1.99871 3.73629-4.25309 5.21777-7.0652z" fill="#9cf" stroke-width=".381233"/><path d="m0 230.85415c0 34.68317 4.0217533 46.6341 12.072648 54.68503 4.801675 4.76674 6.930209 6.56035 14.385685 11.4608 7.455486-4.90045 9.584013-6.69406 14.385685-11.4608 8.0509-8.05093 12.072648-20.00186 12.072648-54.68503-5.855874 2.50722-9.192913 3.72273-14.021883 3.64836-4.31977-.0665-8.89678-2.07269-12.43645-3.64836-3.539666 1.57567-8.116676 3.58182-12.43645 3.64836-4.8289718.0744-8.1659983-1.14114-14.021883-3.64836zm26.456783 1.99729c3.463187 1.53888 7.838857 3.43174 12.410612 3.50212 4.254456.0655 7.772168-1.05548 12.105204-2.79518-.117191 15.54711-1.041559 26.60602-2.87321 34.18964-1.951419 8.0795-4.752231 12.66699-8.5602 16.47652-4.470376 4.43784-6.753838 6.30765-13.080339 10.51202-6.323094-4.20211-8.610925-6.07381-13.076204-10.50634l-.002067-.00155c-.0016-.002-.002018-.00213-.003618-.00413-3.8075043-3.80935-6.6073842-8.39766-8.5586505-16.47652-1.8316486-7.58361-2.7560159-18.64257-2.8732096-34.18964 4.3327344 1.73955 7.8514541 2.86072 12.1057211 2.79518 4.571063-.0704 8.942986-1.96336 12.405961-3.50212z" fill="#fdc301" stroke-width=".377659"/></g></svg>