<?xml version="1.0" encoding="UTF-8"?>
<!-- Created with Sodipodi ("http://www.sodipodi.com/") -->
<svg id="svg820" width="640" height="480" version="1.1" xmlns="http://www.w3.org/2000/svg" xmlns:cc="http://creativecommons.org/ns#" xmlns:dc="http://purl.org/dc/elements/1.1/" xmlns:rdf="http://www.w3.org/1999/02/22-rdf-syntax-ns#">
 <metadata id="metadata3028">
  <rdf:RDF>
   <cc:Work rdf:about="">
    <dc:format>image/svg+xml</dc:format>
    <dc:type rdf:resource="http://purl.org/dc/dcmitype/StillImage"/>
   </cc:Work>
  </rdf:RDF>
 </metadata>
 <g id="flag">
  <g id="g3332" transform="matrix(.86011 0 0 .95321 0 -15.191)" fill-rule="evenodd" stroke-width="1pt">
   <rect id="rect918" y="15.937" width="744.09" height="255.53" fill="#f00"/>
   <rect id="rect919" y="263.97" width="744.09" height="255.53"/>
  </g>
  <g id="g3311" transform="translate(-113.16 4.8627)">
   <path id="path824" transform="translate(0 279.06)" d="m341.83-135.75c165.22 43.304 58.989 255.64-71.216 167.26-2.939 4.5148-5.877 9.0297-8.817 13.545 76.628 54.658 152.57 10.66 173.9-46.358 22.297-58.788-7.521-141.48-92.511-150.03-0.451 5.192-0.904 10.384-1.355 15.576z" fill="#ffec00" fill-rule="evenodd" stroke-width="1pt"/>
   <rect id="rect825" transform="matrix(.90642 .42239 -.42345 .90592 0 279.06)" x="276.34" y="-77.07" width="23.972" height="23.949" fill="#ffec00" fill-rule="evenodd" stroke-width="1pt"/>
   <rect id="rect826" transform="translate(0 279.06)" x="432.1" y="-52.576" width="23.979" height="23.942" fill="#ffec00" fill-rule="evenodd" stroke-width="1pt"/>
   <rect id="rect827" transform="matrix(.93193 -.36263 .3636 .93156 0 279.06)" x="424.9" y="67.214" width="23.974" height="23.947" fill="#ffec00" fill-rule="evenodd" stroke-width="1pt"/>
   <rect id="rect828" transform="matrix(.71094 -.70325 .70434 .70986 0 279.06)" x="365.04" y="191.67" width="23.961" height="23.961" fill="#ffec00" fill-rule="evenodd" stroke-width="1pt"/>
   <rect id="rect829" transform="matrix(.93575 .35267 -.35362 .93539 0 279.06)" x="287.71" y="-280" width="23.974" height="23.947" fill="#ffec00" fill-rule="evenodd" stroke-width="1pt"/>
   <rect id="rect830" transform="matrix(.92874 .37073 -.37172 .92835 0 279.06)" x="393.33" y="-172.06" width="23.974" height="23.947" fill="#ffec00" fill-rule="evenodd" stroke-width="1pt"/>
   <rect id="rect831" transform="matrix(.92012 -.39163 .39265 .91969 0 279.06)" x="308.48" y="192.4" width="23.973" height="23.948" fill="#ffec00" fill-rule="evenodd" stroke-width="1pt"/>
   <rect id="rect832" transform="translate(0 279.06)" x="319.88" y="58.906" width="23.979" height="23.942" fill="#ffec00" fill-rule="evenodd" stroke-width="1pt"/>
   <path id="path739" transform="translate(0 279.06)" d="m361.17-57.03-20.351-15.006-20.244 14.469 8.034-22.918-20.347-14.957 24.447-0.171 8.568-22.551 7.782 22.703 24.702-0.2416-19.587 15.232 6.996 23.441z" fill="#ffec00" fill-rule="evenodd" stroke-width="1pt"/>
   <path id="path878" transform="translate(0 279.06)" d="m449.19 62.453c-1.211 0.4184-6.229 12.389-9.675 18.248 1.797 0.5092 2.559 0.5965 3.625 1.0254 13.655 4.8007 20.384 9.1807 26.186 17.505 2.888 2.7911 7.032 2.9311 10.198 0.6972 0 0 2.795-1.1156 6.429-5.0223 2.969-4.5195 2.195-8.1095-1.383-11.16-10.944-7.9507-22.9-13.901-35.38-21.294z" fill="#fe0" fill-rule="evenodd" stroke-width="1pt"/>
   <path id="path879" transform="matrix(2.2895 0 0 2.286 21.377 13.672)" d="m199.62 154.99c0 1.0448-0.847 1.8918-1.8918 1.8918s-1.8918-0.847-1.8918-1.8918 0.847-1.8918 1.8918-1.8918 1.8918 0.847 1.8918 1.8918z" fill-rule="evenodd" stroke-width="1pt"/>
   <path id="path880" transform="scale(2.2895 2.286)" d="m199.62 154.99c0 1.0448-0.847 1.8918-1.8918 1.8918s-1.8918-0.847-1.8918-1.8918 0.847-1.8918 1.8918-1.8918 1.8918 0.847 1.8918 1.8918z" fill-rule="evenodd" stroke-width="1pt"/>
   <path id="path881" transform="matrix(2.2895 0 0 2.286 10.898 6.9754)" d="m199.62 154.99c0 1.0448-0.847 1.8918-1.8918 1.8918s-1.8918-0.847-1.8918-1.8918 0.847-1.8918 1.8918-1.8918 1.8918 0.847 1.8918 1.8918z" fill-rule="evenodd" stroke-width="1pt"/>
   <path id="path882" transform="translate(0 279.06)" d="m437.63 79.744c-42.57-24.273-87.31-50.521-129.88-74.796-18.751-11.636-19.683-33.385-7.17-49.876 1.302-2.3363 2.836-1.7579 3.514-0.5234 1.463 8.0284 5.969 16.324 11.37 21.495 44.693 28.383 87.732 55.804 131.71 85.613-3.448 5.7676-6.104 12.322-9.55 18.087z" fill="#fe0" fill-rule="evenodd" stroke-width="1pt"/>
   <rect id="rect892" transform="matrix(.74495 .66712 -.66826 .74393 0 279.06)" x="319.65" y="-257.7" width="23.963" height="23.959" fill="#ffec00" fill-rule="evenodd" stroke-width="1pt"/>
   <path id="path893" transform="translate(0 279.06)" d="m444.7 64.898-124.96-75.522" fill="none" stroke="#000" stroke-width="2.2878pt"/>
   <path id="path894" transform="translate(0 279.06)" d="m429.27 47.47-42.24-27.279" fill="none" stroke="#000" stroke-width="2.2878pt"/>
   <path id="path895" transform="translate(0 279.06)" d="m405.24 62.878-42.75-24.756" fill="none" stroke="#000" stroke-width="2.2878pt"/>
  </g>
 </g>
</svg>
