<?xml version="1.0" encoding="UTF-8"?>
<!-- Created with Sodipodi ("http://www.sodipodi.com/") -->
<svg id="svg548" width="640" height="480" version="1.1" xmlns="http://www.w3.org/2000/svg" xmlns:cc="http://creativecommons.org/ns#" xmlns:dc="http://purl.org/dc/elements/1.1/" xmlns:rdf="http://www.w3.org/1999/02/22-rdf-syntax-ns#">
 <metadata id="metadata3188">
  <rdf:RDF>
   <cc:Work rdf:about="">
    <dc:format>image/svg+xml</dc:format>
    <dc:type rdf:resource="http://purl.org/dc/dcmitype/StillImage"/>
   </cc:Work>
  </rdf:RDF>
 </metadata>
 <g id="g3428">
  <g id="flag" transform="matrix(.7553 0 0 1.1329 -28.678 -260.35)" fill-rule="evenodd" stroke-width="1pt">
   <rect id="rect552" x="37.969" y="229.8" width="847.35" height="141.61" fill="#00c4ff"/>
   <rect id="rect554" x="37.969" y="370.83" width="847.35" height="141.61" fill="#fff"/>
   <rect id="rect555" x="37.969" y="511.86" width="847.35" height="141.61" fill="#00c4ff"/>
  </g>
  <g id="g904" transform="matrix(1.614 0 0 1.614 -223.61 -145.74)">
   <path id="path598" transform="matrix(1.0193 0 0 1.0038 -26.198 18.075)" d="m382.49 221.33c0 14.564-11.864 26.37-26.499 26.37s-26.499-11.806-26.499-26.37 11.864-26.37 26.499-26.37 26.499 11.806 26.499 26.37z" fill="#ffd600" fill-rule="evenodd" stroke="#000" stroke-opacity=".38662" stroke-width=".625"/>
   <path id="path561" transform="matrix(.78705 0 0 .7627 57.458 72.384)" d="m364.43 195.28c-4.34-1.049-8.785 0.422-10.185 0.318-1.925 0-6.79-1.68-10.185 0" fill="none" stroke="#000" stroke-opacity=".38662" stroke-width=".5"/>
   <path id="path562" transform="matrix(.78705 0 0 .7627 57.458 72.384)" d="m338.71 200.49c4.305-3.01 9.115 1.086 10.394 0.315 3.492-2.294 6.736-1.868 10.08 0.21 2.155 1.272 5.914-3.71 10.289 0.315" fill="none" stroke="#000" stroke-opacity=".38662" stroke-width=".5"/>
   <path id="path564" transform="matrix(.78705 0 0 .7627 57.458 72.384)" d="m333.88 205.63c2.275-1.855 9.694-1.925 17.324 2.414 1.155-0.28 1.89-1.084 0.945-2.204-5.74-1.995-12.424-4.515-18.584-2.625-1.68 1.19-1.26 1.96 0.315 2.415z" fill="#efc000" fill-rule="evenodd" stroke="#000" stroke-opacity=".38662" stroke-width=".5"/>
   <path id="path565" transform="matrix(-.78705 0 0 .7627 614.99 72.384)" d="m333.88 205.63c2.275-1.855 9.694-1.925 17.324 2.414 1.155-0.28 1.89-1.084 0.945-2.204-5.74-1.995-12.424-4.515-18.584-2.625-1.68 1.19-1.26 1.96 0.315 2.415z" fill="#efc000" fill-rule="evenodd" stroke="#000" stroke-opacity=".38662" stroke-width=".5"/>
   <path id="path569" transform="matrix(.78705 0 0 .7627 57.458 72.384)" d="m330.84 211.83c7.525-4.83 17.464-2.31 21.629 0.315-6.09-1.155-6.195-1.68-10.605-1.785-3.115 0.106-7.699-0.21-11.024 1.47z" fill="#f0bf00" fill-rule="evenodd" stroke="#000" stroke-linejoin="round" stroke-opacity=".38662" stroke-width=".625"/>
   <path id="path570" transform="matrix(.78705 0 0 .7627 57.458 72.384)" d="m348.06 211.3c-3.675 7.665-10.079 7.77-14.594-0.42" fill="none" stroke="#000" stroke-opacity=".38662" stroke-width=".625"/>
   <path id="path571" transform="matrix(.85295 .12338 -.92423 1.011 231.88 -22.52)" d="m345.54 212.88c0 0.92779-1.6453 1.6799-3.6748 1.6799s-3.6748-0.75212-3.6748-1.6799c0-0.92779 1.6453-1.6799 3.6748-1.6799s3.6748 0.75212 3.6748 1.6799z" fill-opacity=".36803" fill-rule="evenodd"/>
   <path id="path572" transform="matrix(1.0476 -.34283 .38138 .94175 -115.92 151.91)" d="m344.07 212.56c0 0.23194-0.32906 0.41997-0.73497 0.41997s-0.73497-0.18803-0.73497-0.41997c0-0.23195 0.32906-0.41998 0.73497-0.41998s0.73497 0.18803 0.73497 0.41998z" fill="#ffd700" fill-rule="evenodd"/>
   <path id="path573" transform="matrix(.78705 0 0 .7627 57.458 72.384)" d="m349.18 224.5c-4.239 7.127 1.537 2.1 2.475 4.164 1.65 1.913 3.301 1.462 4.276 0 0.976-1.651 7.127 3.113 2.926-3.938" fill="none" stroke="#000" stroke-opacity=".38662" stroke-width=".625"/>
   <path id="path574" transform="matrix(.78705 0 0 .7627 57.458 72.384)" d="m341.64 236.31c3.638-0.413 9.753-3.188 11.929-0.9 1.875-2.063 8.477 0.6 12.715 0.9-3.076 1.875-9.302 0.6-12.265 2.588-2.889-1.763-9.266-0.15-12.379-2.588z" fill="none" stroke="#000" stroke-linecap="round" stroke-linejoin="round" stroke-opacity=".38662" stroke-width=".625"/>
   <path id="path575" transform="matrix(.78705 0 0 .7627 57.458 72.384)" d="m347.5 239.58c5.514 2.251 6.752 1.913 12.716 0.225-1.238 3.264-4.398 3.951-6.19 3.826-1.857-0.121-4.388 0.113-6.526-4.051z" fill="none" stroke="#000" stroke-linejoin="round" stroke-opacity=".38662" stroke-width=".625"/>
   <path id="path599" transform="matrix(.78705 0 0 .7627 57.458 72.384)" d="m343.17 258.06c-3.977 10.41 0.379 15.358-1.567 20.964-1.874 5.398-10.025 18.776-3.821 24.589 4.931 0.228-0.852-7.376 9.012-21.455 4.575-6.595-1.196-10.769 3.625-23.707 0.449-1.107-6.622-2.031-7.249-0.391z" fill="#ffd700" fill-rule="evenodd" stroke="#000" stroke-linejoin="round" stroke-opacity=".38662" stroke-width=".625"/>
   <path id="path600" transform="matrix(.78705 0 0 .7627 64.243 72.907)" d="m342.97 258.16c-1.528 11.683-0.62 47.577 3.037 46.141 4.049 1.305 4.583-35.163 4.212-45.946-0.052-1.194-7.036-1.938-7.249-0.195z" fill="#ffd700" fill-rule="evenodd" stroke="#000" stroke-linejoin="round" stroke-opacity=".38662" stroke-width=".625"/>
   <path id="path605" transform="matrix(-.56256 -.5334 -.55044 .54515 657.14 309.12)" d="m343.17 258.06c-3.977 10.41 0.379 15.358-1.567 20.964-1.874 5.398-10.025 18.776-3.821 24.589 4.931 0.228-0.852-7.376 9.012-21.455 4.575-6.595-1.196-10.769 3.625-23.707 0.449-1.107-6.622-2.031-7.249-0.391z" fill="none" stroke="#000" stroke-linejoin="round" stroke-opacity=".38662" stroke-width=".625"/>
   <path id="path607" transform="matrix(.55074 .54486 -.56226 .53369 265.32 -69.993)" d="m343.17 258.06c-3.977 10.41 0.379 15.358-1.567 20.964-1.874 5.398-10.025 18.776-3.821 24.589 4.931 0.228-0.852-7.376 9.012-21.455 4.575-6.595-1.196-10.769 3.625-23.707 0.449-1.107-6.622-2.031-7.249-0.391z" fill="none" stroke="#000" stroke-linejoin="round" stroke-opacity=".38662" stroke-width=".625"/>
   <path id="path609" transform="matrix(-.0045306 -.76268 -.78704 .0043904 511.37 509.69)" d="m343.17 258.06c-3.977 10.41 0.379 15.358-1.567 20.964-1.874 5.398-10.025 18.776-3.821 24.589 4.931 0.228-0.852-7.376 9.012-21.455 4.575-6.595-1.196-10.769 3.625-23.707 0.449-1.107-6.622-2.031-7.249-0.391z" fill="none" stroke="#000" stroke-linejoin="round" stroke-opacity=".38662" stroke-width=".625"/>
   <path id="path612" transform="matrix(-.72199 -.30364 -.31333 .69965 656.38 192.05)" d="m342.97 258.16c-1.528 11.683-0.62 47.577 3.037 46.141 4.049 1.305 4.583-35.163 4.212-45.946-0.052-1.194-7.036-1.938-7.249-0.195z" fill="none" stroke="#000" stroke-linejoin="round" stroke-opacity=".38662" stroke-width=".625"/>
   <path id="path613" transform="matrix(-.56065 -.53529 -.55238 .5433 651.5 306.4)" d="m342.97 258.16c-1.528 11.683-0.62 47.577 3.037 46.141 4.049 1.305 4.583-35.163 4.212-45.946-0.052-1.194-7.036-1.938-7.249-0.195z" fill="none" stroke="#000" stroke-linejoin="round" stroke-opacity=".38662" stroke-width=".625"/>
   <path id="path616" transform="matrix(-.30753 -.70206 -.72448 .29802 602.06 417.74)" d="m342.97 258.16c-1.528 11.683-0.62 47.577 3.037 46.141 4.049 1.305 4.583-35.163 4.212-45.946-0.052-1.194-7.036-1.938-7.249-0.195z" fill="none" stroke="#000" stroke-linejoin="round" stroke-opacity=".38662" stroke-width=".625"/>
   <path id="path617" transform="matrix(.78705 0 0 .7627 57.458 72.384)" d="m349.18 224.5c-4.239 7.127 1.537 2.1 2.475 4.164 1.65 1.913 3.301 1.462 4.276 0 0.976-1.651 7.127 3.113 2.926-3.938" fill="none" stroke="#000" stroke-opacity=".081784" stroke-width=".625"/>
   <path id="path618" transform="matrix(.78705 0 0 .7627 57.458 72.384)" d="m341.64 236.31c3.638-0.413 9.753-3.188 11.929-0.9 1.875-2.063 8.477 0.6 12.715 0.9-3.076 1.875-9.302 0.6-12.265 2.588-2.889-1.763-9.266-0.15-12.379-2.588z" fill="#f0bf00" fill-rule="evenodd" stroke="#000" stroke-linecap="round" stroke-linejoin="round" stroke-opacity=".081784" stroke-width=".625"/>
   <path id="path619" transform="matrix(.78705 0 0 .7627 57.458 72.384)" d="m347.5 239.58c5.514 2.251 6.752 1.913 12.716 0.225-1.238 3.264-4.398 3.951-6.19 3.826-1.857-0.121-4.388 0.113-6.526-4.051z" fill="#f0bf00" fill-rule="evenodd" stroke="#000" stroke-linejoin="round" stroke-opacity=".081784" stroke-width=".625"/>
   <path id="path630" transform="matrix(-.56256 -.5334 -.55044 .54515 657.14 309.12)" d="m343.17 258.06c-3.977 10.41 0.379 15.358-1.567 20.964-1.874 5.398-10.025 18.776-3.821 24.589 4.931 0.228-0.852-7.376 9.012-21.455 4.575-6.595-1.196-10.769 3.625-23.707 0.449-1.107-6.622-2.031-7.249-0.391z" fill="#ffd700" fill-rule="evenodd" stroke="#000" stroke-linejoin="round" stroke-opacity=".1487" stroke-width=".625"/>
   <path id="path632" transform="matrix(.55074 .54486 -.56226 .53369 265.32 -69.993)" d="m343.17 258.06c-3.977 10.41 0.379 15.358-1.567 20.964-1.874 5.398-10.025 18.776-3.821 24.589 4.931 0.228-0.852-7.376 9.012-21.455 4.575-6.595-1.196-10.769 3.625-23.707 0.449-1.107-6.622-2.031-7.249-0.391z" fill="#ffd700" fill-rule="evenodd" stroke="#000" stroke-linejoin="round" stroke-opacity=".1487" stroke-width=".625"/>
   <path id="path634" transform="matrix(-.0045306 -.76268 -.78704 .0043904 511.37 509.69)" d="m343.17 258.06c-3.977 10.41 0.379 15.358-1.567 20.964-1.874 5.398-10.025 18.776-3.821 24.589 4.931 0.228-0.852-7.376 9.012-21.455 4.575-6.595-1.196-10.769 3.625-23.707 0.449-1.107-6.622-2.031-7.249-0.391z" fill="#ffd700" fill-rule="evenodd" stroke="#000" stroke-linejoin="round" stroke-opacity=".1487" stroke-width=".625"/>
   <path id="path637" transform="matrix(-.72199 -.30364 -.31333 .69965 656.38 192.05)" d="m342.97 258.16c-1.528 11.683-0.62 47.577 3.037 46.141 4.049 1.305 4.583-35.163 4.212-45.946-0.052-1.194-7.036-1.938-7.249-0.195z" fill="#ffd700" fill-rule="evenodd" stroke="#000" stroke-linejoin="round" stroke-opacity=".1487" stroke-width=".625"/>
   <path id="path638" transform="matrix(-.56065 -.53529 -.55238 .5433 651.5 306.4)" d="m342.97 258.16c-1.528 11.683-0.62 47.577 3.037 46.141 4.049 1.305 4.583-35.163 4.212-45.946-0.052-1.194-7.036-1.938-7.249-0.195z" fill="#ffd700" fill-rule="evenodd" stroke="#000" stroke-linejoin="round" stroke-opacity=".1487" stroke-width=".625"/>
   <path id="path641" transform="matrix(-.30753 -.70206 -.72448 .29802 602.06 417.74)" d="m342.97 258.16c-1.528 11.683-0.62 47.577 3.037 46.141 4.049 1.305 4.583-35.163 4.212-45.946-0.052-1.194-7.036-1.938-7.249-0.195z" fill="#ffd700" fill-rule="evenodd" stroke="#000" stroke-linejoin="round" stroke-opacity=".1487" stroke-width=".625"/>
   <path id="path602" transform="matrix(0 -.7627 .78705 0 164.06 504.41)" d="m342.97 258.16c-1.528 11.683-0.62 47.577 3.037 46.141 4.049 1.305 4.583-35.163 4.212-45.946-0.052-1.194-7.036-1.938-7.249-0.195z" fill="#ffd700" fill-rule="evenodd" stroke="#000" stroke-linejoin="round" stroke-opacity=".38662" stroke-width=".625"/>
   <path id="path604" transform="matrix(-.78705 0 0 .7627 616.04 72.778)" d="m343.17 258.06c-3.977 10.41 0.379 15.358-1.567 20.964-1.874 5.398-10.025 18.776-3.821 24.589 4.931 0.228-0.852-7.376 9.012-21.455 4.575-6.595-1.196-10.769 3.625-23.707 0.449-1.107-6.622-2.031-7.249-0.391z" fill="#ffd700" fill-rule="evenodd" stroke="#000" stroke-linejoin="round" stroke-opacity=".38662" stroke-width=".625"/>
   <path id="path606" transform="matrix(.56256 -.5334 .55044 .54515 16.584 309.51)" d="m343.17 258.06c-3.977 10.41 0.379 15.358-1.567 20.964-1.874 5.398-10.025 18.776-3.821 24.589 4.931 0.228-0.852-7.376 9.012-21.455 4.575-6.595-1.196-10.769 3.625-23.707 0.449-1.107-6.622-2.031-7.249-0.391z" fill="#ffd700" fill-rule="evenodd" stroke="#000" stroke-linejoin="round" stroke-opacity=".38662" stroke-width=".625"/>
   <path id="path608" transform="matrix(-.55074 .54486 .56226 .53369 408.41 -69.796)" d="m343.17 258.06c-3.977 10.41 0.379 15.358-1.567 20.964-1.874 5.398-10.025 18.776-3.821 24.589 4.931 0.228-0.852-7.376 9.012-21.455 4.575-6.595-1.196-10.769 3.625-23.707 0.449-1.107-6.622-2.031-7.249-0.391z" fill="#ffd700" fill-rule="evenodd" stroke="#000" stroke-linejoin="round" stroke-opacity=".38662" stroke-width=".625"/>
   <path id="path610" transform="matrix(.0045306 -.76268 .78704 .0043904 162.13 509.69)" d="m343.17 258.06c-3.977 10.41 0.379 15.358-1.567 20.964-1.874 5.398-10.025 18.776-3.821 24.589 4.931 0.228-0.852-7.376 9.012-21.455 4.575-6.595-1.196-10.769 3.625-23.707 0.449-1.107-6.622-2.031-7.249-0.391z" fill="#ffd700" fill-rule="evenodd" stroke="#000" stroke-linejoin="round" stroke-opacity=".38662" stroke-width=".625"/>
   <path id="path611" transform="matrix(.72199 -.30364 .31333 .69965 17.304 192.45)" d="m342.97 258.16c-1.528 11.683-0.62 47.577 3.037 46.141 4.049 1.305 4.583-35.163 4.212-45.946-0.052-1.194-7.036-1.938-7.249-0.195z" fill="#ffd700" fill-rule="evenodd" stroke="#000" stroke-linejoin="round" stroke-opacity=".38662" stroke-width=".625"/>
   <path id="path614" transform="matrix(.56065 -.53529 .55238 .5433 21.69 306.4)" d="m342.97 258.16c-1.528 11.683-0.62 47.577 3.037 46.141 4.049 1.305 4.583-35.163 4.212-45.946-0.052-1.194-7.036-1.938-7.249-0.195z" fill="#ffd700" fill-rule="evenodd" stroke="#000" stroke-linejoin="round" stroke-opacity=".38662" stroke-width=".625"/>
   <path id="path615" transform="matrix(.30753 -.70206 .72448 .29802 71.779 417.74)" d="m342.97 258.16c-1.528 11.683-0.62 47.577 3.037 46.141 4.049 1.305 4.583-35.163 4.212-45.946-0.052-1.194-7.036-1.938-7.249-0.195z" fill="#ffd700" fill-rule="evenodd" stroke="#000" stroke-linejoin="round" stroke-opacity=".38662" stroke-width=".625"/>
   <path id="path631" transform="matrix(.56256 -.5334 .55044 .54515 16.584 309.51)" d="m343.17 258.06c-3.977 10.41 0.379 15.358-1.567 20.964-1.874 5.398-10.025 18.776-3.821 24.589 4.931 0.228-0.852-7.376 9.012-21.455 4.575-6.595-1.196-10.769 3.625-23.707 0.449-1.107-6.622-2.031-7.249-0.391z" fill="#ffd700" fill-rule="evenodd" stroke="#000" stroke-linejoin="round" stroke-opacity=".1487" stroke-width=".625"/>
   <path id="path633" transform="matrix(-.55074 .54486 .56226 .53369 408.41 -69.796)" d="m343.17 258.06c-3.977 10.41 0.379 15.358-1.567 20.964-1.874 5.398-10.025 18.776-3.821 24.589 4.931 0.228-0.852-7.376 9.012-21.455 4.575-6.595-1.196-10.769 3.625-23.707 0.449-1.107-6.622-2.031-7.249-0.391z" fill="#ffd700" fill-rule="evenodd" stroke="#000" stroke-linejoin="round" stroke-opacity=".1487" stroke-width=".625"/>
   <path id="path635" transform="matrix(.0045306 -.76268 .78704 .0043904 162.13 509.69)" d="m343.17 258.06c-3.977 10.41 0.379 15.358-1.567 20.964-1.874 5.398-10.025 18.776-3.821 24.589 4.931 0.228-0.852-7.376 9.012-21.455 4.575-6.595-1.196-10.769 3.625-23.707 0.449-1.107-6.622-2.031-7.249-0.391z" fill="#ffd700" fill-rule="evenodd" stroke="#000" stroke-linejoin="round" stroke-opacity=".1487" stroke-width=".625"/>
   <path id="path636" transform="matrix(.72199 -.30364 .31333 .69965 17.304 192.45)" d="m342.97 258.16c-1.528 11.683-0.62 47.577 3.037 46.141 4.049 1.305 4.583-35.163 4.212-45.946-0.052-1.194-7.036-1.938-7.249-0.195z" fill="#ffd700" fill-rule="evenodd" stroke="#000" stroke-linejoin="round" stroke-opacity=".1487" stroke-width=".625"/>
   <path id="path639" transform="matrix(.56065 -.53529 .55238 .5433 21.69 306.4)" d="m342.97 258.16c-1.528 11.683-0.62 47.577 3.037 46.141 4.049 1.305 4.583-35.163 4.212-45.946-0.052-1.194-7.036-1.938-7.249-0.195z" fill="#ffd700" fill-rule="evenodd" stroke="#000" stroke-linejoin="round" stroke-opacity=".1487" stroke-width=".625"/>
   <path id="path640" transform="matrix(.30753 -.70206 .72448 .29802 71.779 417.74)" d="m342.97 258.16c-1.528 11.683-0.62 47.577 3.037 46.141 4.049 1.305 4.583-35.163 4.212-45.946-0.052-1.194-7.036-1.938-7.249-0.195z" fill="#ffd700" fill-rule="evenodd" stroke="#000" stroke-linejoin="round" stroke-opacity=".1487" stroke-width=".625"/>
   <path id="path686" transform="matrix(0 .7627 -.78705 0 509.35 -23.965)" d="m342.97 258.16c-1.528 11.683-0.62 47.577 3.037 46.141 4.049 1.305 4.583-35.163 4.212-45.946-0.052-1.194-7.036-1.938-7.249-0.195z" fill="#ffd700" fill-rule="evenodd" stroke="#000" stroke-linejoin="round" stroke-opacity=".38662" stroke-width=".625"/>
   <path id="path687" transform="matrix(.78705 0 0 -.7627 57.38 407.66)" d="m343.17 258.06c-3.977 10.41 0.379 15.358-1.567 20.964-1.874 5.398-10.025 18.776-3.821 24.589 4.931 0.228-0.852-7.376 9.012-21.455 4.575-6.595-1.196-10.769 3.625-23.707 0.449-1.107-6.622-2.031-7.249-0.391z" fill="#ffd700" fill-rule="evenodd" stroke="#000" stroke-linejoin="round" stroke-opacity=".38662" stroke-width=".625"/>
   <path id="path688" transform="matrix(-.56256 .5334 -.55044 -.54515 656.83 170.93)" d="m343.17 258.06c-3.977 10.41 0.379 15.358-1.567 20.964-1.874 5.398-10.025 18.776-3.821 24.589 4.931 0.228-0.852-7.376 9.012-21.455 4.575-6.595-1.196-10.769 3.625-23.707 0.449-1.107-6.622-2.031-7.249-0.391z" fill="#ffd700" fill-rule="evenodd" stroke="#000" stroke-linejoin="round" stroke-opacity=".38662" stroke-width=".625"/>
   <path id="path689" transform="matrix(.55074 -.54486 -.56226 -.53369 265.01 550.24)" d="m343.17 258.06c-3.977 10.41 0.379 15.358-1.567 20.964-1.874 5.398-10.025 18.776-3.821 24.589 4.931 0.228-0.852-7.376 9.012-21.455 4.575-6.595-1.196-10.769 3.625-23.707 0.449-1.107-6.622-2.031-7.249-0.391z" fill="#ffd700" fill-rule="evenodd" stroke="#000" stroke-linejoin="round" stroke-opacity=".38662" stroke-width=".625"/>
   <path id="path690" transform="matrix(-.0045306 .76268 -.78704 -.0043904 511.29 -29.254)" d="m343.17 258.06c-3.977 10.41 0.379 15.358-1.567 20.964-1.874 5.398-10.025 18.776-3.821 24.589 4.931 0.228-0.852-7.376 9.012-21.455 4.575-6.595-1.196-10.769 3.625-23.707 0.449-1.107-6.622-2.031-7.249-0.391z" fill="#ffd700" fill-rule="evenodd" stroke="#000" stroke-linejoin="round" stroke-opacity=".38662" stroke-width=".625"/>
   <path id="path691" transform="matrix(-.72199 .30364 -.31333 -.69965 656.11 288)" d="m342.97 258.16c-1.528 11.683-0.62 47.577 3.037 46.141 4.049 1.305 4.583-35.163 4.212-45.946-0.052-1.194-7.036-1.938-7.249-0.195z" fill="#ffd700" fill-rule="evenodd" stroke="#000" stroke-linejoin="round" stroke-opacity=".38662" stroke-width=".625"/>
   <path id="path692" transform="matrix(-.56065 .53529 -.55238 -.5433 651.73 174.04)" d="m342.97 258.16c-1.528 11.683-0.62 47.577 3.037 46.141 4.049 1.305 4.583-35.163 4.212-45.946-0.052-1.194-7.036-1.938-7.249-0.195z" fill="#ffd700" fill-rule="evenodd" stroke="#000" stroke-linejoin="round" stroke-opacity=".38662" stroke-width=".625"/>
   <path id="path693" transform="matrix(-.30753 .70206 -.72448 -.29802 601.64 62.696)" d="m342.97 258.16c-1.528 11.683-0.62 47.577 3.037 46.141 4.049 1.305 4.583-35.163 4.212-45.946-0.052-1.194-7.036-1.938-7.249-0.195z" fill="#ffd700" fill-rule="evenodd" stroke="#000" stroke-linejoin="round" stroke-opacity=".38662" stroke-width=".625"/>
   <path id="path694" transform="matrix(-.56256 .5334 -.55044 -.54515 656.83 170.93)" d="m343.17 258.06c-3.977 10.41 0.379 15.358-1.567 20.964-1.874 5.398-10.025 18.776-3.821 24.589 4.931 0.228-0.852-7.376 9.012-21.455 4.575-6.595-1.196-10.769 3.625-23.707 0.449-1.107-6.622-2.031-7.249-0.391z" fill="#ffd700" fill-rule="evenodd" stroke="#000" stroke-linejoin="round" stroke-opacity=".1487" stroke-width=".625"/>
   <path id="path695" transform="matrix(.55074 -.54486 -.56226 -.53369 265.01 550.24)" d="m343.17 258.06c-3.977 10.41 0.379 15.358-1.567 20.964-1.874 5.398-10.025 18.776-3.821 24.589 4.931 0.228-0.852-7.376 9.012-21.455 4.575-6.595-1.196-10.769 3.625-23.707 0.449-1.107-6.622-2.031-7.249-0.391z" fill="#ffd700" fill-rule="evenodd" stroke="#000" stroke-linejoin="round" stroke-opacity=".1487" stroke-width=".625"/>
   <path id="path696" transform="matrix(-.0045306 .76268 -.78704 -.0043904 511.29 -29.254)" d="m343.17 258.06c-3.977 10.41 0.379 15.358-1.567 20.964-1.874 5.398-10.025 18.776-3.821 24.589 4.931 0.228-0.852-7.376 9.012-21.455 4.575-6.595-1.196-10.769 3.625-23.707 0.449-1.107-6.622-2.031-7.249-0.391z" fill="#ffd700" fill-rule="evenodd" stroke="#000" stroke-linejoin="round" stroke-opacity=".1487" stroke-width=".625"/>
   <path id="path697" transform="matrix(-.72199 .30364 -.31333 -.69965 656.11 288)" d="m342.97 258.16c-1.528 11.683-0.62 47.577 3.037 46.141 4.049 1.305 4.583-35.163 4.212-45.946-0.052-1.194-7.036-1.938-7.249-0.195z" fill="#ffd700" fill-rule="evenodd" stroke="#000" stroke-linejoin="round" stroke-opacity=".1487" stroke-width=".625"/>
   <path id="path698" transform="matrix(-.56065 .53529 -.55238 -.5433 651.73 174.04)" d="m342.97 258.16c-1.528 11.683-0.62 47.577 3.037 46.141 4.049 1.305 4.583-35.163 4.212-45.946-0.052-1.194-7.036-1.938-7.249-0.195z" fill="#ffd700" fill-rule="evenodd" stroke="#000" stroke-linejoin="round" stroke-opacity=".1487" stroke-width=".625"/>
   <path id="path699" transform="matrix(-.30753 .70206 -.72448 -.29802 601.64 62.696)" d="m342.97 258.16c-1.528 11.683-0.62 47.577 3.037 46.141 4.049 1.305 4.583-35.163 4.212-45.946-0.052-1.194-7.036-1.938-7.249-0.195z" fill="#ffd700" fill-rule="evenodd" stroke="#000" stroke-linejoin="round" stroke-opacity=".1487" stroke-width=".625"/>
   <path id="path701" transform="matrix(-.78705 0 0 -.7627 609.13 407.52)" d="m342.97 258.16c-1.528 11.683-0.62 47.577 3.037 46.141 4.049 1.305 4.583-35.163 4.212-45.946-0.052-1.194-7.036-1.938-7.249-0.195z" fill="#ffd700" fill-rule="evenodd" stroke="#000" stroke-linejoin="round" stroke-opacity=".38662" stroke-width=".625"/>
   <path id="path702" transform="matrix(0 .7627 .78705 0 163.72 -30.464)" d="m343.17 258.06c-3.977 10.41 0.379 15.358-1.567 20.964-1.874 5.398-10.025 18.776-3.821 24.589 4.931 0.228-0.852-7.376 9.012-21.455 4.575-6.595-1.196-10.769 3.625-23.707 0.449-1.107-6.622-2.031-7.249-0.391z" fill="#ffd700" fill-rule="evenodd" stroke="#000" stroke-linejoin="round" stroke-opacity=".38662" stroke-width=".625"/>
   <path id="path703" transform="matrix(-.55044 -.54515 .56256 -.5334 408.01 550.44)" d="m343.17 258.06c-3.977 10.41 0.379 15.358-1.567 20.964-1.874 5.398-10.025 18.776-3.821 24.589 4.931 0.228-0.852-7.376 9.012-21.455 4.575-6.595-1.196-10.769 3.625-23.707 0.449-1.107-6.622-2.031-7.249-0.391z" fill="#ffd700" fill-rule="evenodd" stroke="#000" stroke-linejoin="round" stroke-opacity=".38662" stroke-width=".625"/>
   <path id="path704" transform="matrix(.56226 .53369 .55074 -.54486 16.589 170.74)" d="m343.17 258.06c-3.977 10.41 0.379 15.358-1.567 20.964-1.874 5.398-10.025 18.776-3.821 24.589 4.931 0.228-0.852-7.376 9.012-21.455 4.575-6.595-1.196-10.769 3.625-23.707 0.449-1.107-6.622-2.031-7.249-0.391z" fill="#ffd700" fill-rule="evenodd" stroke="#000" stroke-linejoin="round" stroke-opacity=".38662" stroke-width=".625"/>
   <path id="path705" transform="matrix(-.78704 -.0043904 .0045306 -.76268 614.58 409.4)" d="m343.17 258.06c-3.977 10.41 0.379 15.358-1.567 20.964-1.874 5.398-10.025 18.776-3.821 24.589 4.931 0.228-0.852-7.376 9.012-21.455 4.575-6.595-1.196-10.769 3.625-23.707 0.449-1.107-6.622-2.031-7.249-0.391z" fill="#ffd700" fill-rule="evenodd" stroke="#000" stroke-linejoin="round" stroke-opacity=".38662" stroke-width=".625"/>
   <path id="path706" transform="matrix(-.31333 -.69965 .72199 -.30364 287.2 549.74)" d="m342.97 258.16c-1.528 11.683-0.62 47.577 3.037 46.141 4.049 1.305 4.583-35.163 4.212-45.946-0.052-1.194-7.036-1.938-7.249-0.195z" fill="#ffd700" fill-rule="evenodd" stroke="#000" stroke-linejoin="round" stroke-opacity=".38662" stroke-width=".625"/>
   <path id="path707" transform="matrix(-.55238 -.5433 .56065 -.53529 404.79 545.49)" d="m342.97 258.16c-1.528 11.683-0.62 47.577 3.037 46.141 4.049 1.305 4.583-35.163 4.212-45.946-0.052-1.194-7.036-1.938-7.249-0.195z" fill="#ffd700" fill-rule="evenodd" stroke="#000" stroke-linejoin="round" stroke-opacity=".38662" stroke-width=".625"/>
   <path id="path708" transform="matrix(-.72448 -.29802 .30753 -.70206 519.7 496.95)" d="m342.97 258.16c-1.528 11.683-0.62 47.577 3.037 46.141 4.049 1.305 4.583-35.163 4.212-45.946-0.052-1.194-7.036-1.938-7.249-0.195z" fill="#ffd700" fill-rule="evenodd" stroke="#000" stroke-linejoin="round" stroke-opacity=".38662" stroke-width=".625"/>
   <path id="path709" transform="matrix(-.55044 -.54515 .56256 -.5334 408.01 550.44)" d="m343.17 258.06c-3.977 10.41 0.379 15.358-1.567 20.964-1.874 5.398-10.025 18.776-3.821 24.589 4.931 0.228-0.852-7.376 9.012-21.455 4.575-6.595-1.196-10.769 3.625-23.707 0.449-1.107-6.622-2.031-7.249-0.391z" fill="#ffd700" fill-rule="evenodd" stroke="#000" stroke-linejoin="round" stroke-opacity=".1487" stroke-width=".625"/>
   <path id="path710" transform="matrix(.56226 .53369 .55074 -.54486 16.589 170.74)" d="m343.17 258.06c-3.977 10.41 0.379 15.358-1.567 20.964-1.874 5.398-10.025 18.776-3.821 24.589 4.931 0.228-0.852-7.376 9.012-21.455 4.575-6.595-1.196-10.769 3.625-23.707 0.449-1.107-6.622-2.031-7.249-0.391z" fill="#ffd700" fill-rule="evenodd" stroke="#000" stroke-linejoin="round" stroke-opacity=".1487" stroke-width=".625"/>
   <path id="path711" transform="matrix(-.78704 -.0043904 .0045306 -.76268 614.58 409.4)" d="m343.17 258.06c-3.977 10.41 0.379 15.358-1.567 20.964-1.874 5.398-10.025 18.776-3.821 24.589 4.931 0.228-0.852-7.376 9.012-21.455 4.575-6.595-1.196-10.769 3.625-23.707 0.449-1.107-6.622-2.031-7.249-0.391z" fill="#ffd700" fill-rule="evenodd" stroke="#000" stroke-linejoin="round" stroke-opacity=".1487" stroke-width=".625"/>
   <path id="path712" transform="matrix(-.31333 -.69965 .72199 -.30364 287.2 549.74)" d="m342.97 258.16c-1.528 11.683-0.62 47.577 3.037 46.141 4.049 1.305 4.583-35.163 4.212-45.946-0.052-1.194-7.036-1.938-7.249-0.195z" fill="#ffd700" fill-rule="evenodd" stroke="#000" stroke-linejoin="round" stroke-opacity=".1487" stroke-width=".625"/>
   <path id="path713" transform="matrix(-.55238 -.5433 .56065 -.53529 404.79 545.49)" d="m342.97 258.16c-1.528 11.683-0.62 47.577 3.037 46.141 4.049 1.305 4.583-35.163 4.212-45.946-0.052-1.194-7.036-1.938-7.249-0.195z" fill="#ffd700" fill-rule="evenodd" stroke="#000" stroke-linejoin="round" stroke-opacity=".1487" stroke-width=".625"/>
   <path id="path714" transform="matrix(-.72448 -.29802 .30753 -.70206 519.7 496.95)" d="m342.97 258.16c-1.528 11.683-0.62 47.577 3.037 46.141 4.049 1.305 4.583-35.163 4.212-45.946-0.052-1.194-7.036-1.938-7.249-0.195z" fill="#ffd700" fill-rule="evenodd" stroke="#000" stroke-linejoin="round" stroke-opacity=".1487" stroke-width=".625"/>
   <path id="path555" transform="matrix(.78705 0 0 .7627 57.865 72.976)" d="m105.48 235.29" fill="none" stroke="#000" stroke-opacity=".078067" stroke-width="1pt"/>
   <path id="path577" transform="matrix(.78705 0 0 .7627 57.865 72.976)" d="m328.14 202.55h-3.151" fill="none" stroke="#000" stroke-opacity=".171" stroke-width="1pt"/>
   <path id="path578" transform="matrix(.78705 0 0 .7627 57.245 74.52)" d="m328.14 202.55h-3.151" fill="none" stroke="#000" stroke-opacity=".171" stroke-width="1pt"/>
   <path id="path579" transform="matrix(.87138 0 0 .7627 29.308 75.979)" d="m328.14 202.55h-3.151" fill="none" stroke="#000" stroke-opacity=".171" stroke-width="1pt"/>
   <path id="path580" transform="matrix(.87137 0 0 .7627 28.514 77.353)" d="m328.14 202.55h-3.151" fill="none" stroke="#000" stroke-opacity=".171" stroke-width="1pt"/>
   <path id="path581" transform="matrix(1.04 0 0 .7627 -27.004 78.812)" d="m328.14 202.55h-3.151" fill="none" stroke="#000" stroke-opacity=".171" stroke-width="1pt"/>
   <path id="path582" transform="matrix(1.1524 0 0 .7627 -63.806 80.271)" d="m328.14 202.55h-3.151" fill="none" stroke="#000" stroke-opacity=".171" stroke-width="1pt"/>
   <path id="path583" transform="matrix(1.0962 0 0 .7627 -45.89 81.901)" d="m328.14 202.55h-3.151" fill="none" stroke="#000" stroke-opacity=".171" stroke-width="1pt"/>
   <path id="path584" transform="matrix(1.0681 0 0 .7627 -36.489 83.532)" d="m328.14 202.55h-3.151" fill="none" stroke="#000" stroke-opacity=".171" stroke-width="1pt"/>
   <path id="path585" transform="matrix(1.0962 0 0 .7627 -45.713 85.077)" d="m328.14 202.55h-3.151" fill="none" stroke="#000" stroke-opacity=".171" stroke-width="1pt"/>
   <path id="path586" transform="matrix(1.3773 0 0 .7627 -137.06 86.879)" d="m328.14 202.55h-3.151" fill="none" stroke="#000" stroke-opacity=".171" stroke-width="1pt"/>
   <path id="path587" transform="matrix(1.1805 0 0 .7627 -72.849 88.939)" d="m328.14 202.55h-3.151" fill="none" stroke="#000" stroke-opacity=".171" stroke-width="1pt"/>
   <path id="path588" transform="matrix(1.1805 0 0 .7627 -72.76 90.398)" d="m328.14 202.55h-3.151" fill="none" stroke="#000" stroke-opacity=".078067" stroke-width="1pt"/>
   <path id="path589" transform="matrix(1.1805 0 0 .7627 -72.14 92.372)" d="m328.14 202.55h-3.151" fill="none" stroke="#000" stroke-opacity=".078067" stroke-width="1pt"/>
   <path id="path590" transform="matrix(1.1805 0 0 .7627 -72.052 94.089)" d="m328.14 202.55h-3.151" fill="none" stroke="#000" stroke-opacity=".078067" stroke-width="1pt"/>
   <path id="path591" transform="matrix(1.1805 0 0 .7627 -70.989 95.977)" d="m328.14 202.55h-3.151" fill="none" stroke="#000" stroke-opacity=".078067" stroke-width="1pt"/>
   <path id="path592" transform="matrix(1.1805 0 0 .7627 -69.926 97.522)" d="m328.14 202.55h-3.151" fill="none" stroke="#000" stroke-opacity=".078067" stroke-width="1pt"/>
   <path id="path593" transform="matrix(1.1805 0 0 .7627 -68.952 99.324)" d="m328.14 202.55h-3.151" fill="none" stroke="#000" stroke-opacity=".078067" stroke-width="1pt"/>
   <path id="path594" transform="matrix(1.1805 0 0 .7627 -67.8 101.04)" d="m328.14 202.55h-3.151" fill="none" stroke="#000" stroke-opacity=".078067" stroke-width="1pt"/>
   <path id="path595" transform="matrix(1.1805 0 0 .7627 -67.003 102.67)" d="m328.14 202.55h-3.151" fill="none" stroke="#000" stroke-opacity=".078067" stroke-width="1pt"/>
   <path id="path596" transform="matrix(1.1805 0 0 .7627 -65.321 104.65)" d="m328.14 202.55h-3.151" fill="none" stroke="#000" stroke-opacity=".078067" stroke-width="1pt"/>
   <path id="path597" transform="matrix(.75892 0 0 .7627 73.738 106.45)" d="m328.14 202.55h-3.151" fill="none" stroke="#000" stroke-opacity=".078067" stroke-width="1pt"/>
   <path id="path620" transform="matrix(1.1805 0 0 .7627 -72.76 90.398)" d="m328.14 202.55h-3.151" fill="none" stroke="#000" stroke-opacity=".078067" stroke-width="1pt"/>
   <path id="path621" transform="matrix(1.1805 0 0 .7627 -72.14 92.372)" d="m328.14 202.55h-3.151" fill="none" stroke="#000" stroke-opacity=".078067" stroke-width="1pt"/>
   <path id="path622" transform="matrix(1.1805 0 0 .7627 -72.052 94.089)" d="m328.14 202.55h-3.151" fill="none" stroke="#000" stroke-opacity=".078067" stroke-width="1pt"/>
   <path id="path623" transform="matrix(1.1805 0 0 .7627 -70.989 95.977)" d="m328.14 202.55h-3.151" fill="none" stroke="#000" stroke-opacity=".078067" stroke-width="1pt"/>
   <path id="path624" transform="matrix(1.1805 0 0 .7627 -69.926 97.522)" d="m328.14 202.55h-3.151" fill="none" stroke="#000" stroke-opacity=".078067" stroke-width="1pt"/>
   <path id="path625" transform="matrix(1.1805 0 0 .7627 -68.952 99.324)" d="m328.14 202.55h-3.151" fill="none" stroke="#000" stroke-opacity=".078067" stroke-width="1pt"/>
   <path id="path626" transform="matrix(1.1805 0 0 .7627 -67.8 101.04)" d="m328.14 202.55h-3.151" fill="none" stroke="#000" stroke-opacity=".078067" stroke-width="1pt"/>
   <path id="path627" transform="matrix(1.1805 0 0 .7627 -67.003 102.67)" d="m328.14 202.55h-3.151" fill="none" stroke="#000" stroke-opacity=".078067" stroke-width="1pt"/>
   <path id="path628" transform="matrix(1.1805 0 0 .7627 -65.321 104.65)" d="m328.14 202.55h-3.151" fill="none" stroke="#000" stroke-opacity=".078067" stroke-width="1pt"/>
   <path id="path629" transform="matrix(.75892 0 0 .7627 74.123 106.3)" d="m328.14 202.55h-3.151" fill="none" stroke="#000" stroke-opacity=".078067" stroke-width="1pt"/>
   <path id="path749" transform="matrix(-.78705 0 0 .7627 615.44 72.581)" d="m105.48 235.29" fill="#00699d" fill-opacity=".86667" fill-rule="evenodd" stroke="#000" stroke-opacity=".078067" stroke-width="1pt"/>
   <path id="path750" transform="matrix(-.78705 0 0 .7627 615.44 72.581)" d="m328.14 202.55h-3.151" fill="#00699d" fill-opacity=".86667" fill-rule="evenodd" stroke="#000" stroke-opacity=".13383" stroke-width="1pt"/>
   <path id="path751" transform="matrix(-.78705 0 0 .7627 616.06 74.126)" d="m328.14 202.55h-3.151" fill="#00699d" fill-opacity=".86667" fill-rule="evenodd" stroke="#000" stroke-opacity=".13383" stroke-width="1pt"/>
   <path id="path752" transform="matrix(-.87138 0 0 .7627 643.99 75.585)" d="m328.14 202.55h-3.151" fill="#00699d" fill-opacity=".86667" fill-rule="evenodd" stroke="#000" stroke-opacity=".13383" stroke-width="1pt"/>
   <path id="path753" transform="matrix(-.87137 0 0 .7627 644.79 76.958)" d="m328.14 202.55h-3.151" fill="#00699d" fill-opacity=".86667" fill-rule="evenodd" stroke="#000" stroke-opacity=".13383" stroke-width="1pt"/>
   <path id="path754" transform="matrix(-1.04 0 0 .7627 700.31 78.417)" d="m328.14 202.55h-3.151" fill="#00699d" fill-opacity=".86667" fill-rule="evenodd" stroke="#000" stroke-opacity=".13383" stroke-width="1pt"/>
   <path id="path755" transform="matrix(-1.1524 0 0 .7627 737.11 79.876)" d="m328.14 202.55h-3.151" fill="#00699d" fill-opacity=".86667" fill-rule="evenodd" stroke="#000" stroke-opacity=".13383" stroke-width="1pt"/>
   <path id="path756" transform="matrix(-1.0962 0 0 .7627 719.19 81.507)" d="m328.14 202.55h-3.151" fill="#00699d" fill-opacity=".86667" fill-rule="evenodd" stroke="#000" stroke-opacity=".13383" stroke-width="1pt"/>
   <path id="path757" transform="matrix(-1.0681 0 0 .7627 709.79 83.138)" d="m328.14 202.55h-3.151" fill="#00699d" fill-opacity=".86667" fill-rule="evenodd" stroke="#000" stroke-opacity=".13383" stroke-width="1pt"/>
   <path id="path758" transform="matrix(-1.0962 0 0 .7627 719.02 84.683)" d="m328.14 202.55h-3.151" fill="#00699d" fill-opacity=".86667" fill-rule="evenodd" stroke="#000" stroke-opacity=".13383" stroke-width="1pt"/>
   <path id="path759" transform="matrix(-1.3773 0 0 .7627 810.36 86.485)" d="m328.14 202.55h-3.151" fill="#00699d" fill-opacity=".86667" fill-rule="evenodd" stroke="#000" stroke-opacity=".13383" stroke-width="1pt"/>
   <path id="path760" transform="matrix(-1.1805 0 0 .7627 746.15 88.545)" d="m328.14 202.55h-3.151" fill="#00699d" fill-opacity=".86667" fill-rule="evenodd" stroke="#000" stroke-opacity=".13383" stroke-width="1pt"/>
   <path id="path761" transform="matrix(-1.1805 0 0 .7627 746.06 90.004)" d="m328.14 202.55h-3.151" fill="#00699d" fill-opacity=".86667" fill-rule="evenodd" stroke="#000" stroke-opacity=".063197" stroke-width="1pt"/>
   <path id="path762" transform="matrix(-1.1805 0 0 .7627 745.44 91.978)" d="m328.14 202.55h-3.151" fill="#00699d" fill-opacity=".86667" fill-rule="evenodd" stroke="#000" stroke-opacity=".063197" stroke-width="1pt"/>
   <path id="path763" transform="matrix(-1.1805 0 0 .7627 745.35 93.694)" d="m328.14 202.55h-3.151" fill="#00699d" fill-opacity=".86667" fill-rule="evenodd" stroke="#000" stroke-opacity=".063197" stroke-width="1pt"/>
   <path id="path764" transform="matrix(-1.1805 0 0 .7627 744.29 95.583)" d="m328.14 202.55h-3.151" fill="#00699d" fill-opacity=".86667" fill-rule="evenodd" stroke="#000" stroke-opacity=".063197" stroke-width="1pt"/>
   <path id="path765" transform="matrix(-1.1805 0 0 .7627 743.23 97.128)" d="m328.14 202.55h-3.151" fill="#00699d" fill-opacity=".86667" fill-rule="evenodd" stroke="#000" stroke-opacity=".063197" stroke-width="1pt"/>
   <path id="path766" transform="matrix(-1.1805 0 0 .7627 742.25 98.93)" d="m328.14 202.55h-3.151" fill="#00699d" fill-opacity=".86667" fill-rule="evenodd" stroke="#000" stroke-opacity=".063197" stroke-width="1pt"/>
   <path id="path767" transform="matrix(-1.1805 0 0 .7627 741.1 100.65)" d="m328.14 202.55h-3.151" fill="#00699d" fill-opacity=".86667" fill-rule="evenodd" stroke="#000" stroke-opacity=".063197" stroke-width="1pt"/>
   <path id="path768" transform="matrix(-1.1805 0 0 .7627 740.31 102.28)" d="m328.14 202.55h-3.151" fill="#00699d" fill-opacity=".86667" fill-rule="evenodd" stroke="#000" stroke-opacity=".063197" stroke-width="1pt"/>
   <path id="path769" transform="matrix(-1.1805 0 0 .7627 738.62 104.25)" d="m328.14 202.55h-3.151" fill="#00699d" fill-opacity=".86667" fill-rule="evenodd" stroke="#000" stroke-opacity=".063197" stroke-width="1pt"/>
   <path id="path770" transform="matrix(-.75892 0 0 .7627 599.56 106.05)" d="m328.14 202.55h-3.151" fill="#00699d" fill-opacity=".86667" fill-rule="evenodd" stroke="#000" stroke-opacity=".063197" stroke-width="1pt"/>
   <path id="path771" transform="matrix(-1.1805 0 0 .7627 746.06 90.004)" d="m328.14 202.55h-3.151" fill="none" stroke="#000" stroke-opacity=".063197" stroke-width="1pt"/>
   <path id="path772" transform="matrix(-1.1805 0 0 .7627 745.44 91.978)" d="m328.14 202.55h-3.151" fill="none" stroke="#000" stroke-opacity=".063197" stroke-width="1pt"/>
   <path id="path773" transform="matrix(-1.1805 0 0 .7627 745.35 93.694)" d="m328.14 202.55h-3.151" fill="none" stroke="#000" stroke-opacity=".063197" stroke-width="1pt"/>
   <path id="path774" transform="matrix(-1.1805 0 0 .7627 744.29 95.583)" d="m328.14 202.55h-3.151" fill="none" stroke="#000" stroke-opacity=".063197" stroke-width="1pt"/>
   <path id="path775" transform="matrix(-1.1805 0 0 .7627 743.23 97.128)" d="m328.14 202.55h-3.151" fill="none" stroke="#000" stroke-opacity=".063197" stroke-width="1pt"/>
   <path id="path776" transform="matrix(-1.1805 0 0 .7627 742.25 98.93)" d="m328.14 202.55h-3.151" fill="none" stroke="#000" stroke-opacity=".063197" stroke-width="1pt"/>
   <path id="path777" transform="matrix(-1.1805 0 0 .7627 741.1 100.65)" d="m328.14 202.55h-3.151" fill="none" stroke="#000" stroke-opacity=".063197" stroke-width="1pt"/>
   <path id="path778" transform="matrix(-1.1805 0 0 .7627 740.31 102.28)" d="m328.14 202.55h-3.151" fill="none" stroke="#000" stroke-opacity=".063197" stroke-width="1pt"/>
   <path id="path779" transform="matrix(-1.1805 0 0 .7627 738.62 104.25)" d="m328.14 202.55h-3.151" fill="none" stroke="#000" stroke-opacity=".063197" stroke-width="1pt"/>
   <path id="path780" transform="matrix(-.75892 0 0 .7627 599.56 106.05)" d="m328.14 202.55h-3.151" fill="none" stroke="#000" stroke-opacity=".063197" stroke-width="1pt"/>
   <path id="path781" transform="matrix(-.78705 0 0 .7627 615.8 72.187)" d="m330.84 211.83c7.525-4.83 17.464-2.31 21.629 0.315-6.09-1.155-6.195-1.68-10.605-1.785-3.115 0.106-7.699-0.21-11.024 1.47z" fill="#f0bf00" fill-rule="evenodd" stroke="#000" stroke-linejoin="round" stroke-opacity=".38662" stroke-width=".625"/>
   <path id="path782" transform="matrix(.78705 0 0 .7627 78.009 71.99)" d="m348.06 211.3c-3.675 7.665-10.079 7.77-14.594-0.42" fill="none" stroke="#000" stroke-opacity=".38662" stroke-width=".625"/>
   <path id="path783" transform="matrix(.88114 .11814 -.95479 .96802 249.18 -11.902)" d="m345.54 212.88c0 0.92779-1.6453 1.6799-3.6748 1.6799s-3.6748-0.75212-3.6748-1.6799c0-0.92779 1.6453-1.6799 3.6748-1.6799s3.6748 0.75212 3.6748 1.6799z" fill-opacity=".36803" fill-rule="evenodd"/>
   <path id="path784" transform="matrix(1.0476 -.34283 .38138 .94175 -95.366 151.52)" d="m344.07 212.56c0 0.23194-0.32906 0.41997-0.73497 0.41997s-0.73497-0.18803-0.73497-0.41997c0-0.23195 0.32906-0.41998 0.73497-0.41998s0.73497 0.18803 0.73497 0.41998z" fill="#ffd700" fill-rule="evenodd"/>
  </g>
 </g>
</svg>
