<?xml version="1.0" encoding="UTF-8"?>
<!-- Created with Sodipodi ("http://www.sodipodi.com/") -->
<svg id="svg1358" width="640" height="480" version="1.1" xmlns="http://www.w3.org/2000/svg" xmlns:cc="http://creativecommons.org/ns#" xmlns:dc="http://purl.org/dc/elements/1.1/" xmlns:rdf="http://www.w3.org/1999/02/22-rdf-syntax-ns#">
 <metadata id="metadata3195">
  <rdf:RDF>
   <cc:Work rdf:about="">
    <dc:format>image/svg+xml</dc:format>
    <dc:type rdf:resource="http://purl.org/dc/dcmitype/StillImage"/>
   </cc:Work>
  </rdf:RDF>
 </metadata>
 <defs id="defs1558">
  <clipPath id="clipPath4541">
   <rect id="rect4543" y="-6.048e-5" width="288" height="216" fill-opacity=".67"/>
  </clipPath>
 </defs>
 <g id="flag">
  <g id="g3442" transform="matrix(2.2222 0 0 2.2222 0 .0001344)" clip-path="url(#clipPath4541)">
   <path id="path1359" d="m0-6.4185e-5v216h324v-216h-324z" fill="#39c"/>
   <path id="path1553" d="m0 144v12h324v-12h-324z" fill="#ff0"/>
   <path id="path1555" d="m0 168v12h324v-12h-324z" fill="#ff0"/>
  </g>
  <g id="g3256" transform="matrix(2.9521 0 0 2.9521 .946 -7.3585)">
   <path id="path1360" d="m48 12 1 1-1-1z" fill="#9cc"/>
   <path id="path1362" d="m47 14 1 1-1-1m2 0 1 1-1-1z" fill="#9cc"/>
   <path id="path1363" d="m47 15 1 1-1-1m2 0 1 1-1-1z" fill="#ccf"/>
   <path id="path1364" d="m46 17 1 1-1-1z" fill="#6cc"/>
   <path id="path1365" d="m48 17 1 1-1-1z" fill="#c66"/>
   <path id="path1366" d="m50 17 1 1-1-1z" fill="#6cc"/>
   <path id="path1367" d="m46 18 1 1-1-1z" fill="#ccf"/>
   <path id="path1369" d="m50 18 1 1-1-1z" fill="#ccf"/>
   <path id="path1370" d="m47 19 1 1-1-1m2 0 1 1-1-1z" fill="#fcc"/>
   <path id="path1371" d="m45 20 1 1-1-1z" fill="#6cc"/>
   <path id="path1372" d="m47.835 14.032-7.01 26.574-26.652 7.238 26.575 6.936 7.087 26.574 7.086-26.574 26.575-7.087-26.575-7.087-7.086-26.574z" fill="#c00" stroke="#fff" stroke-width="1.25"/>
   <path id="path1373" d="m51 20 1 1-1-1z" fill="#6cc"/>
   <path id="path1374" d="m45 21 1 1-1-1m6 0 1 1-1-1z" fill="#9cf"/>
   <path id="path1375" d="m46 22 1 1-1-1m4 0 1 1-1-1z" fill="#fcc"/>
   <path id="path1376" d="m44 23 1 1-1-1z" fill="#69c"/>
   <path id="path1377" d="m46.333 23.667 0.3334 0.6666-0.3334-0.6666m4 0 0.3334 0.6666-0.3334-0.6666z" fill="#c33"/>
   <path id="path1378" d="m52 23 1 1-1-1z" fill="#69c"/>
   <path id="path1379" d="m44 24 1 1-1-1m8 0 1 1-1-1z" fill="#9cf"/>
   <path id="path1380" d="m45 25 1 1-1-1m6 0 1 1-1-1z" fill="#fcc"/>
   <path id="path1381" d="m43 26 1 1-1-1z" fill="#69c"/>
   <path id="path1383" d="m53 26 1 1-1-1z" fill="#69c"/>
   <path id="path1384" d="m43 27 1 1-1-1m10 0 1 1-1-1z" fill="#9cc"/>
   <path id="path1385" d="m43 28 1 1-1-1m10 0 1 1-1-1z" fill="#cff"/>
   <path id="path1386" d="m42 29 1 1-1-1z" fill="#69c"/>
   <path id="path1387" d="m44 29 1 1-1-1m8 0 1 1-1-1z" fill="#fcc"/>
   <path id="path1388" d="m54 29 1 1-1-1z" fill="#69c"/>
   <path id="path1389" d="m42 30 1 1-1-1z" fill="#9cc"/>
   <path id="path1390" d="m44.333 30.667 0.3334 0.6666-0.3334-0.6666m8 0 0.3334 0.6666-0.3334-0.6666z" fill="#c33"/>
   <path id="path1391" d="m54 30 1 1-1-1z" fill="#9cc"/>
   <path id="path1392" d="m42 31 1 1-1-1m12 0 1 1-1-1z" fill="#cff"/>
   <path id="path1393" d="m43 32 1 1-1-1m10 0 1 1-1-1z" fill="#fcc"/>
   <path id="path1394" d="m41 33 1 1-1-1z" fill="#9cc"/>
   <path id="path1395" d="m43.333 33.667 0.3334 0.6666-0.3334-0.6666m10 0 0.3334 0.6666-0.3334-0.6666z" fill="#c33"/>
   <path id="path1396" d="m55 33 1 1-1-1z" fill="#9cc"/>
   <path id="path1397" d="m41 34 1 1-1-1m14 0 1 1-1-1z" fill="#ccf"/>
   <path id="path1398" d="m42 35 1 1-1-1m12 0 1 1-1-1z" fill="#fcc"/>
   <path id="path1399" d="m40 36 1 1-1-1z" fill="#9cc"/>
   <path id="path1400" d="m42.333 36.667 0.3334 0.6666-0.3334-0.6666m12 0 0.3334 0.6666-0.3334-0.6666z" fill="#c33"/>
   <path id="path1401" d="m56 36 1 1-1-1z" fill="#9cc"/>
   <path id="path1402" d="m40 37 1 1-1-1m16 0 1 1-1-1z" fill="#ccf"/>
   <path id="path1403" d="m41 38 1 1-1-1m14 0 1 1-1-1z" fill="#fcc"/>
   <path id="path1404" d="m39 39 1 1-1-1z" fill="#9cc"/>
   <path id="path1405" d="m41 39 1 1-1-1m14 0 1 1-1-1z" fill="#c33"/>
   <path id="path1406" d="m57 39 1 1-1-1m-21 1 1 1-1-1z" fill="#9cc"/>
   <path id="path1407" d="m37 40 1 1-1-1m22 0 1 1-1-1z" fill="#ccf"/>
   <path id="path1408" d="m60 40 1 1-1-1m-27 1 1 1-1-1z" fill="#9cc"/>
   <path id="path1409" d="m34 41 1 1-1-1z" fill="#ccf"/>
   <path id="path1410" d="m38 41 1 1-1-1z" fill="#fcc"/>
   <path id="path1411" d="m39 41 1 1-1-1m18 0 1 1-1-1z" fill="#c33"/>
   <path id="path1412" d="m58 41 1 1-1-1z" fill="#fcc"/>
   <path id="path1413" d="m62 41 1 1-1-1z" fill="#ccf"/>
   <path id="path1414" d="m63 41 1 1-1-1z" fill="#9cc"/>
   <path id="path1415" d="m29 42 1 1-1-1z" fill="#69c"/>
   <path id="path1416" d="m30 42 1 1-1-1z" fill="#9cc"/>
   <path id="path1417" d="m31 42 1 1-1-1z" fill="#cff"/>
   <path id="path1418" d="m35 42 1 1-1-1z" fill="#fcc"/>
   <path id="path1419" d="m36.667 42.333 0.6666 0.3334-0.6666-0.3334m23 0 0.6666 0.3334-0.6666-0.3334z" fill="#c33"/>
   <path id="path1420" d="m61 42 1 1-1-1z" fill="#fcc"/>
   <path id="path1421" d="m65 42 1 1-1-1z" fill="#cff"/>
   <path id="path1422" d="m66 42 1 1-1-1z" fill="#9cc"/>
   <path id="path1423" d="m67 42 1 1-1-1m-41 1 1 1-1-1z" fill="#69c"/>
   <path id="path1424" d="m27 43 1 1-1-1z" fill="#9cc"/>
   <path id="path1425" d="m28 43 1 1-1-1z" fill="#cff"/>
   <path id="path1426" d="m32 43 1 1-1-1z" fill="#fcc"/>
   <path id="path1427" d="m33.667 43.333 0.6666 0.3334-0.6666-0.3334m29 0 0.6666 0.3334-0.6666-0.3334z" fill="#c33"/>
   <path id="path1428" d="m64 43 1 1-1-1z" fill="#fcc"/>
   <path id="path1429" d="m68 43 1 1-1-1z" fill="#cff"/>
   <path id="path1430" d="m69 43 1 1-1-1z" fill="#9cc"/>
   <path id="path1431" d="m70 43 1 1-1-1m-47 1 1 1-1-1z" fill="#69c"/>
   <path id="path1432" d="m24 44 1 1-1-1z" fill="#9cf"/>
   <path id="path1433" d="m29 44 1 1-1-1z" fill="#fcc"/>
   <path id="path1434" d="m30.667 44.333 0.6666 0.3334-0.6666-0.3334m35 0 0.6666 0.3334-0.6666-0.3334z" fill="#c33"/>
   <path id="path1435" d="m67 44 1 1-1-1z" fill="#fcc"/>
   <path id="path1436" d="m72 44 1 1-1-1z" fill="#9cf"/>
   <path id="path1437" d="m73 44 1 1-1-1z" fill="#69c"/>
   <path id="path1438" d="m20 45 1 1-1-1z" fill="#6cc"/>
   <path id="path1439" d="m21 45 1 1-1-1z" fill="#9cf"/>
   <path id="path1440" d="m25 45 1 1-1-1z" fill="#fcc"/>
   <path id="path1442" d="m71 45 1 1-1-1z" fill="#fcc"/>
   <path id="path1443" d="m75 45 1 1-1-1z" fill="#9cf"/>
   <path id="path1444" d="m76 45 1 1-1-1m-59 1 1 1-1-1z" fill="#6cc"/>
   <path id="path1445" d="m18 46 1 1-1-1z" fill="#ccf"/>
   <path id="path1446" d="m22 46 1 1-1-1z" fill="#fcc"/>
   <path id="path1447" d="m23.667 46.333 0.6666 0.3334-0.6666-0.3334m49 0 0.6666 0.3334-0.6666-0.3334z" fill="#c33"/>
   <path id="path1448" d="m74 46 1 1-1-1z" fill="#fcc"/>
   <path id="path1449" d="m78 46 1 1-1-1z" fill="#ccf"/>
   <path id="path1450" d="m79 46 1 1-1-1z" fill="#6cc"/>
   <path id="path1451" d="m14 47 1 1-1-1z" fill="#9cc"/>
   <path id="path1452" d="m15 47 1 1-1-1z" fill="#ccf"/>
   <path id="path1453" d="m19 47 1 1-1-1z" fill="#fcc"/>
   <path id="path1455" d="m77 47 1 1-1-1z" fill="#fcc"/>
   <path id="path1456" d="m81 47 1 1-1-1z" fill="#ccf"/>
   <path id="path1457" d="m82 47 1 1-1-1m-70 1 1 1-1-1z" fill="#9cc"/>
   <path id="path1458" d="m17 48 1 1-1-1z" fill="#c66"/>
   <path id="path1460" d="m79 48 1 1-1-1z" fill="#c66"/>
   <path id="path1461" d="m84 48 1 1-1-1m-70 1 1 1-1-1z" fill="#9cc"/>
   <path id="path1462" d="m15 49 1 1-1-1z" fill="#ccf"/>
   <path id="path1463" d="m19 49 1 1-1-1m58 0 1 1-1-1z" fill="#fcc"/>
   <path id="path1464" d="m81 49 1 1-1-1z" fill="#ccf"/>
   <path id="path1465" d="m82 49 1 1-1-1z" fill="#9cc"/>
   <path id="path1466" d="m17 50 1 1-1-1z" fill="#6cc"/>
   <path id="path1467" d="m18 50 1 1-1-1z" fill="#ccf"/>
   <path id="path1468" d="m22 50 1 1-1-1z" fill="#fcc"/>
   <path id="path1469" d="m23.667 50.333 0.6666 0.3334-0.6666-0.3334m49 0 0.6666 0.3334-0.6666-0.3334z" fill="#c33"/>
   <path id="path1470" d="m74 50 1 1-1-1z" fill="#fcc"/>
   <path id="path1471" d="m78 50 1 1-1-1z" fill="#ccf"/>
   <path id="path1472" d="m79 50 1 1-1-1m-59 1 1 1-1-1z" fill="#6cc"/>
   <path id="path1473" d="m21 51 1 1-1-1z" fill="#9cf"/>
   <path id="path1474" d="m25 51 1 1-1-1z" fill="#fcc"/>
   <path id="path1476" d="m71 51 1 1-1-1z" fill="#fcc"/>
   <path id="path1477" d="m75 51 1 1-1-1z" fill="#9cf"/>
   <path id="path1478" d="m76 51 1 1-1-1z" fill="#6cc"/>
   <path id="path1479" d="m23 52 1 1-1-1z" fill="#69c"/>
   <path id="path1480" d="m24 52 1 1-1-1z" fill="#9cf"/>
   <path id="path1481" d="m29 52 1 1-1-1z" fill="#fcc"/>
   <path id="path1482" d="m30.667 52.333 0.6666 0.3334-0.6666-0.3334m35 0 0.6666 0.3334-0.6666-0.3334z" fill="#c33"/>
   <path id="path1483" d="m67 52 1 1-1-1z" fill="#fcc"/>
   <path id="path1484" d="m72 52 1 1-1-1z" fill="#9cf"/>
   <path id="path1485" d="m73 52 1 1-1-1m-47 1 1 1-1-1z" fill="#69c"/>
   <path id="path1486" d="m27 53 1 1-1-1z" fill="#9cc"/>
   <path id="path1487" d="m28 53 1 1-1-1z" fill="#cff"/>
   <path id="path1488" d="m32 53 1 1-1-1z" fill="#fcc"/>
   <path id="path1489" d="m33.667 53.333 0.6666 0.3334-0.6666-0.3334m29 0 0.6666 0.3334-0.6666-0.3334z" fill="#c33"/>
   <path id="path1490" d="m64 53 1 1-1-1z" fill="#fcc"/>
   <path id="path1491" d="m68 53 1 1-1-1z" fill="#cff"/>
   <path id="path1492" d="m69 53 1 1-1-1z" fill="#9cc"/>
   <path id="path1493" d="m70 53 1 1-1-1m-41 1 1 1-1-1z" fill="#69c"/>
   <path id="path1494" d="m30 54 1 1-1-1z" fill="#9cc"/>
   <path id="path1495" d="m31 54 1 1-1-1z" fill="#cff"/>
   <path id="path1496" d="m35 54 1 1-1-1z" fill="#fcc"/>
   <path id="path1497" d="m36.667 54.333 0.6666 0.3334-0.6666-0.3334m23 0 0.6666 0.3334-0.6666-0.3334z" fill="#c33"/>
   <path id="path1498" d="m61 54 1 1-1-1z" fill="#fcc"/>
   <path id="path1499" d="m65 54 1 1-1-1z" fill="#cff"/>
   <path id="path1500" d="m66 54 1 1-1-1z" fill="#9cc"/>
   <path id="path1501" d="m67 54 1 1-1-1z" fill="#69c"/>
   <path id="path1502" d="m33 55 1 1-1-1z" fill="#9cc"/>
   <path id="path1503" d="m34 55 1 1-1-1z" fill="#ccf"/>
   <path id="path1504" d="m38 55 1 1-1-1z" fill="#fcc"/>
   <path id="path1505" d="m39 55 1 1-1-1m18 0 1 1-1-1z" fill="#c33"/>
   <path id="path1506" d="m58 55 1 1-1-1z" fill="#fcc"/>
   <path id="path1507" d="m62 55 1 1-1-1z" fill="#ccf"/>
   <path id="path1508" d="m63 55 1 1-1-1m-27 1 1 1-1-1z" fill="#9cc"/>
   <path id="path1509" d="m37 56 1 1-1-1m22 0 1 1-1-1z" fill="#ccf"/>
   <path id="path1510" d="m60 56 1 1-1-1m-21 1 1 1-1-1z" fill="#9cc"/>
   <path id="path1511" d="m41 57 1 1-1-1m14 0 1 1-1-1z" fill="#c33"/>
   <path id="path1512" d="m57 57 1 1-1-1z" fill="#9cc"/>
   <path id="path1513" d="m41 58 1 1-1-1m14 0 1 1-1-1z" fill="#fcc"/>
   <path id="path1514" d="m40 59 1 1-1-1z" fill="#ccf"/>
   <path id="path1515" d="m42.333 59.667 0.3334 0.6666-0.3334-0.6666m12 0 0.3334 0.6666-0.3334-0.6666z" fill="#c33"/>
   <path id="path1516" d="m56 59 1 1-1-1z" fill="#ccf"/>
   <path id="path1517" d="m40 60 1 1-1-1m16 0 1 1-1-1z" fill="#9cc"/>
   <path id="path1518" d="m42 61 1 1-1-1m12 0 1 1-1-1z" fill="#fcc"/>
   <path id="path1519" d="m41 62 1 1-1-1z" fill="#ccf"/>
   <path id="path1520" d="m43.333 62.667 0.3334 0.6666-0.3334-0.6666m10 0 0.3334 0.6666-0.3334-0.6666z" fill="#c33"/>
   <path id="path1521" d="m55 62 1 1-1-1z" fill="#ccf"/>
   <path id="path1522" d="m41 63 1 1-1-1m14 0 1 1-1-1z" fill="#9cc"/>
   <path id="path1523" d="m43 64 1 1-1-1m10 0 1 1-1-1z" fill="#fcc"/>
   <path id="path1524" d="m42 65 1 1-1-1z" fill="#cff"/>
   <path id="path1525" d="m44.333 65.667 0.3334 0.6666-0.3334-0.6666m8 0 0.3334 0.6666-0.3334-0.6666z" fill="#c33"/>
   <path id="path1526" d="m54 65 1 1-1-1z" fill="#cff"/>
   <path id="path1527" d="m42 66 1 1-1-1m12 0 1 1-1-1z" fill="#9cc"/>
   <path id="path1528" d="m42 67 1 1-1-1z" fill="#69c"/>
   <path id="path1529" d="m44 67 1 1-1-1m8 0 1 1-1-1z" fill="#fcc"/>
   <path id="path1530" d="m54 67 1 1-1-1z" fill="#69c"/>
   <path id="path1531" d="m43 68 1 1-1-1z" fill="#cff"/>
   <path id="path1533" d="m53 68 1 1-1-1z" fill="#cff"/>
   <path id="path1534" d="m43 69 1 1-1-1m10 0 1 1-1-1z" fill="#9cc"/>
   <path id="path1535" d="m43 70 1 1-1-1m10 0 1 1-1-1z" fill="#69c"/>
   <path id="path1536" d="m45 71 1 1-1-1m6 0 1 1-1-1z" fill="#fcc"/>
   <path id="path1537" d="m44 72 1 1-1-1z" fill="#9cf"/>
   <path id="path1538" d="m46.333 72.667 0.3334 0.6666-0.3334-0.6666m4 0 0.3334 0.6666-0.3334-0.6666z" fill="#c33"/>
   <path id="path1539" d="m52 72 1 1-1-1z" fill="#9cf"/>
   <path id="path1540" d="m44 73 1 1-1-1m8 0 1 1-1-1z" fill="#69c"/>
   <path id="path1541" d="m46 74 1 1-1-1m4 0 1 1-1-1z" fill="#fcc"/>
   <path id="path1542" d="m45 75 1 1-1-1z" fill="#9cf"/>
   <path id="path1544" d="m51 75 1 1-1-1z" fill="#9cf"/>
   <path id="path1545" d="m45 76 1 1-1-1m6 0 1 1-1-1z" fill="#6cc"/>
   <path id="path1546" d="m47 77 1 1-1-1m2 0 1 1-1-1z" fill="#fcc"/>
   <path id="path1547" d="m46 78 1 1-1-1m4 0 1 1-1-1z" fill="#ccf"/>
   <path id="path1548" d="m46 79 1 1-1-1z" fill="#6cc"/>
   <path id="path1549" d="m48 79 1 1-1-1z" fill="#c66"/>
   <path id="path1550" d="m50 79 1 1-1-1z" fill="#6cc"/>
   <path id="path1551" d="m47 81 1 1-1-1m2 0 1 1-1-1z" fill="#ccf"/>
   <path id="path1552" d="m47 82 1 1-1-1m2 0 1 1-1-1m-1 2 1 1-1-1z" fill="#9cc"/>
  </g>
 </g>
</svg>
