<?xml version="1.0" encoding="UTF-8"?>
<!-- Created with Sodipodi ("http://www.sodipodi.com/") -->
<svg id="svg548" width="640" height="480" version="1.1" xmlns="http://www.w3.org/2000/svg" xmlns:cc="http://creativecommons.org/ns#" xmlns:dc="http://purl.org/dc/elements/1.1/" xmlns:rdf="http://www.w3.org/1999/02/22-rdf-syntax-ns#">
 <metadata id="metadata3234">
  <rdf:RDF>
   <cc:Work rdf:about="">
    <dc:format>image/svg+xml</dc:format>
    <dc:type rdf:resource="http://purl.org/dc/dcmitype/StillImage"/>
   </cc:Work>
  </rdf:RDF>
 </metadata>
 <defs id="defs550">
  <clipPath id="clipPath6485">
   <rect id="rect6487" x="5.67e-8" y="1.1252e-6" width="682.6" height="512" fill-opacity=".67"/>
  </clipPath>
 </defs>
 <g id="flag" transform="matrix(.93759 0 0 .9375 -5.3161e-8 -1.0549e-6)" clip-path="url(#clipPath6485)" fill-rule="evenodd">
  <rect id="rect1535" x=".001" y=".0001683" width="1024" height="340.11" fill="#b20000" stroke-width="1pt"/>
  <rect id="rect2026" x=".001" y="340.11" width="1024" height="171.89" fill="#429f00" stroke-width="1pt"/>
  <rect id="rect1291" x=".001" y="-2.0117e-7" width="113.37" height="512" fill="#fff" stroke-width="1.0004pt"/>
  <g id="g1528" transform="matrix(.30472 0 0 .24491 145.76 147.53)" fill="#b20000" stroke-width="1pt">
   <rect id="rect557" transform="matrix(5 0 0 5 549.21 -35.433)" x="-201.97" y="-106.3" width="3.5433" height="7.0866"/>
   <rect id="rect560" transform="matrix(5 0 0 5 549.21 -35.433)" x="-191.34" y="-106.3" width="10.63" height="7.0866"/>
   <rect id="rect561" transform="matrix(5 0 0 5 549.21 -35.433)" x="-187.8" y="-113.39" width="3.5433" height="7.0866"/>
   <rect id="rect562" transform="matrix(5 0 0 5 549.21 -35.433)" x="-170.08" y="-113.39" width="3.5433" height="7.0866"/>
   <rect id="rect563" transform="matrix(5 0 0 5 549.21 -35.433)" x="-155.91" y="-106.3" width="10.63" height="7.0866"/>
   <rect id="rect564" transform="matrix(5 0 0 5 549.21 -35.433)" x="-152.36" y="-113.39" width="3.5433" height="7.0866"/>
   <rect id="rect565" transform="matrix(5 0 0 5 549.21 -35.433)" x="-194.88" y="-99.213" width="7.0866" height="7.0866"/>
   <rect id="rect566" transform="matrix(5 0 0 5 549.21 -35.433)" x="-184.25" y="-99.213" width="7.0866" height="7.0866"/>
   <rect id="rect567" transform="matrix(5 0 0 5 549.21 -35.433)" x="-159.45" y="-99.213" width="7.0866" height="7.0866"/>
   <rect id="rect568" transform="matrix(5 0 0 5 549.21 -35.433)" x="-148.82" y="-99.213" width="7.0866" height="7.0866"/>
   <rect id="rect569" transform="matrix(5 0 0 5 549.21 -35.433)" x="-198.43" y="-92.126" width="7.0866" height="7.0866"/>
   <rect id="rect570" transform="matrix(5 0 0 5 549.21 -35.433)" x="-180.71" y="-92.126" width="7.0866" height="7.0866"/>
   <rect id="rect571" transform="matrix(5 0 0 5 549.21 -35.433)" x="-162.99" y="-92.126" width="7.0866" height="7.0866"/>
   <rect id="rect572" transform="matrix(5 0 0 5 549.21 -35.433)" x="-145.28" y="-92.126" width="7.0866" height="7.0866"/>
   <rect id="rect573" transform="matrix(5 0 0 5 549.21 -35.433)" x="-138.19" y="-106.3" width="3.5433" height="7.0866"/>
   <rect id="rect574" transform="matrix(5 0 0 5 549.21 -35.433)" x="-201.97" y="-85.039" width="7.0866" height="7.0866"/>
   <rect id="rect575" transform="matrix(5 0 0 5 549.21 -35.433)" x="-177.17" y="-85.039" width="7.0866" height="7.0866"/>
   <rect id="rect576" transform="matrix(5 0 0 5 549.21 -35.433)" x="-141.73" y="-85.039" width="7.0866" height="7.0866"/>
   <rect id="rect577" transform="matrix(5 0 0 5 549.21 -35.433)" x="-198.43" y="-63.78" width="7.0866" height="7.0866"/>
   <rect id="rect578" transform="matrix(5 0 0 5 549.21 -35.433)" x="-194.88" y="-56.693" width="7.0866" height="7.0866"/>
   <rect id="rect580" transform="matrix(5 0 0 5 549.21 -35.433)" x="-180.71" y="-63.78" width="7.0866" height="7.0866"/>
   <rect id="rect581" transform="matrix(5 0 0 5 549.21 -35.433)" x="-184.25" y="-56.693" width="7.0866" height="7.0866"/>
   <rect id="rect582" transform="matrix(5 0 0 5 549.21 -35.433)" x="-191.34" y="-49.606" width="10.63" height="7.0866"/>
   <rect id="rect583" transform="matrix(5 0 0 5 549.21 -35.433)" x="-187.8" y="-42.52" width="3.5433" height="7.0866"/>
   <rect id="rect584" transform="matrix(5 0 0 5 549.21 -35.433)" x="-162.99" y="-63.779" width="7.0866" height="7.0866"/>
   <rect id="rect585" transform="matrix(5 0 0 5 549.21 -35.433)" x="-159.45" y="-56.693" width="7.0866" height="7.0866"/>
   <rect id="rect587" transform="matrix(5 0 0 5 549.21 -35.433)" x="-145.28" y="-63.78" width="7.0866" height="7.0866"/>
   <rect id="rect588" transform="matrix(5 0 0 5 549.21 -35.433)" x="-148.82" y="-56.693" width="7.0866" height="7.0866"/>
   <rect id="rect589" transform="matrix(5 0 0 5 549.21 -35.433)" x="-155.91" y="-49.606" width="10.63" height="7.0866"/>
   <rect id="rect590" transform="matrix(5 0 0 5 549.21 -35.433)" x="-152.36" y="-42.52" width="3.5433" height="7.0866"/>
   <rect id="rect591" transform="matrix(5 0 0 5 549.21 -35.433)" x="-170.08" y="-49.606" width="3.5433" height="7.0866"/>
   <rect id="rect592" transform="matrix(5 0 0 5 549.21 -35.433)" x="-205.51" y="-49.606" width="3.5433" height="7.0866"/>
   <rect id="rect593" transform="matrix(5 0 0 5 549.21 -35.433)" x="-134.65" y="-49.606" width="3.5433" height="7.0866"/>
   <rect id="rect594" transform="matrix(5 0 0 5 549.21 -35.433)" x="-187.8" y="-14.173" width="3.5433" height="7.0866"/>
   <rect id="rect595" transform="matrix(5 0 0 5 549.21 -35.433)" x="-191.34" y="-7.0866" width="10.63" height="7.0866"/>
   <rect id="rect596" transform="matrix(5 0 0 5 549.21 -35.433)" x="-194.88" y="6.8e-5" width="17.717" height="7.0866"/>
   <rect id="rect597" transform="matrix(5 0 0 5 549.21 -35.433)" x="-152.36" y="-14.173" width="3.5433" height="7.0866"/>
   <rect id="rect598" transform="matrix(5 0 0 5 549.21 -35.433)" x="-155.91" y="-7.0866" width="10.63" height="7.0866"/>
   <rect id="rect599" transform="matrix(5 0 0 5 549.21 -35.433)" x="-159.45" y="6.8e-5" width="17.717" height="7.0866"/>
   <rect id="rect600" transform="matrix(5 0 0 5 549.21 -35.433)" x="-155.91" y="35.433" width="17.717" height="7.0866"/>
   <rect id="rect601" transform="matrix(5 0 0 5 549.21 -35.433)" x="-162.99" y="7.0866" width="24.803" height="7.0866"/>
   <rect id="rect602" transform="matrix(5 0 0 5 549.21 -35.433)" x="-198.43" y="7.0866" width="24.803" height="7.0866"/>
   <rect id="rect604" transform="matrix(5 0 0 5 549.21 -35.433)" x="-194.88" y="42.52" width="10.63" height="7.0866"/>
   <rect id="rect605" transform="matrix(5 0 0 5 549.21 -35.433)" x="-198.43" y="35.433" width="17.717" height="7.0866"/>
   <rect id="rect606" transform="matrix(5 0 0 5 549.21 -35.433)" x="-148.82" y="21.26" width="17.717" height="7.0866"/>
   <rect id="rect607" transform="matrix(5 0 0 5 549.21 -35.433)" x="-152.36" y="42.52" width="10.63" height="7.0866"/>
   <rect id="rect609" transform="matrix(5 0 0 5 549.21 -35.433)" x="-191.34" y="49.606" width="3.5433" height="7.0866"/>
   <rect id="rect610" transform="matrix(5 0 0 5 549.21 -35.433)" x="-148.82" y="49.606" width="3.5433" height="7.0866"/>
   <rect id="rect611" transform="matrix(5 0 0 5 549.21 -35.433)" x="-205.51" y="21.26" width="17.717" height="7.0866"/>
   <rect id="rect612" transform="matrix(5 0 0 5 549.21 -35.433)" x="-173.62" y="35.433" width="10.63" height="7.0866"/>
   <rect id="rect614" transform="matrix(5 0 0 5 549.21 -35.433)" x="-170.08" y="42.52" width="3.5433" height="7.0866"/>
   <rect id="rect615" transform="matrix(5 0 0 5 549.21 -35.433)" x="-180.71" y="21.26" width="24.803" height="7.0866"/>
   <rect id="rect616" transform="matrix(5 0 0 5 549.21 -35.433)" x="-166.54" y="-85.039" width="7.0866" height="7.0866"/>
   <rect id="rect617" transform="matrix(5 0 0 5 549.21 -35.433)" x="-173.62" y="-77.953" width="10.63" height="7.0866"/>
   <rect id="rect618" transform="matrix(5 0 0 5 549.21 -35.433)" x="-177.17" y="-70.866" width="7.0866" height="7.0866"/>
   <rect id="rect619" transform="matrix(5 0 0 5 549.21 -35.433)" x="-166.54" y="-70.866" width="7.0866" height="7.0866"/>
   <rect id="rect620" transform="matrix(5 0 0 5 549.21 -35.433)" x="-205.51" y="-77.953" width="7.0866" height="7.0866"/>
   <rect id="rect621" transform="matrix(5 0 0 5 549.21 -35.433)" x="-201.97" y="-70.866" width="7.0866" height="7.0866"/>
   <rect id="rect622" transform="matrix(5 0 0 5 549.21 -35.433)" x="-138.19" y="-77.953" width="7.0866" height="7.0866"/>
   <rect id="rect623" transform="matrix(5 0 0 5 549.21 -35.433)" x="-141.73" y="-70.866" width="7.0866" height="7.0866"/>
   <rect id="rect624" transform="matrix(5 0 0 5 549.21 -35.433)" x="-205.51" y="-7.0866" width="3.5433" height="7.0866"/>
   <rect id="rect625" transform="matrix(5 0 0 5 549.21 -35.433)" x="-134.65" y="-7.0866" width="3.5433" height="7.0866"/>
   <rect id="rect664" transform="matrix(5 0 0 5 549.21 -35.433)" x="-173.62" y="49.606" width="10.63" height="7.0866"/>
   <rect id="rect665" transform="matrix(5 0 0 5 549.21 -35.433)" x="-177.17" y="56.693" width="7.0866" height="7.0866"/>
   <rect id="rect666" transform="matrix(5 0 0 5 549.21 -35.433)" x="-166.54" y="56.693" width="7.0866" height="7.0866"/>
   <rect id="rect667" transform="matrix(5 0 0 5 549.21 -35.433)" x="-180.71" y="63.78" width="7.0866" height="7.0866"/>
   <rect id="rect668" transform="matrix(5 0 0 5 549.21 -35.433)" x="-162.99" y="63.78" width="7.0866" height="7.0866"/>
   <rect id="rect669" transform="matrix(5 0 0 5 549.21 -35.433)" x="-184.25" y="70.866" width="7.0866" height="7.0866"/>
   <rect id="rect670" transform="matrix(5 0 0 5 549.21 -35.433)" x="-159.45" y="70.866" width="7.0866" height="7.0866"/>
   <rect id="rect671" transform="matrix(5 0 0 5 549.21 -35.433)" x="-187.8" y="77.953" width="7.0866" height="7.0866"/>
   <rect id="rect672" transform="matrix(5 0 0 5 549.21 -35.433)" x="-155.91" y="77.953" width="7.0866" height="7.0866"/>
   <rect id="rect673" transform="matrix(5 0 0 5 549.21 -35.433)" x="-194.88" y="85.039" width="10.63" height="7.0866"/>
   <rect id="rect674" transform="matrix(5 0 0 5 549.21 -35.433)" x="-152.36" y="85.039" width="10.63" height="7.0866"/>
   <rect id="rect675" transform="matrix(5 0 0 5 549.21 -35.433)" x="-145.28" y="77.953" width="7.0866" height="7.0866"/>
   <rect id="rect676" transform="matrix(5 0 0 5 549.21 -35.433)" x="-141.73" y="70.866" width="7.0866" height="7.0866"/>
   <rect id="rect677" transform="matrix(5 0 0 5 549.21 -35.433)" x="-138.19" y="63.78" width="7.0866" height="7.0866"/>
   <rect id="rect680" transform="matrix(5 0 0 5 549.21 -35.433)" x="-198.43" y="77.953" width="7.0866" height="7.0866"/>
   <rect id="rect681" transform="matrix(5 0 0 5 549.21 -35.433)" x="-201.97" y="70.866" width="7.0866" height="7.0866"/>
   <rect id="rect682" transform="matrix(5 0 0 5 549.21 -35.433)" x="-205.51" y="63.78" width="7.0866" height="7.0866"/>
   <rect id="rect683" transform="matrix(5 0 0 5 549.21 -35.433)" x="-191.34" y="92.126" width="3.5433" height="7.0866"/>
   <rect id="rect685" transform="matrix(5 0 0 5 549.21 -35.433)" x="-148.82" y="92.126" width="3.5433" height="7.0866"/>
   <rect id="rect708" transform="matrix(5 0 0 5 549.21 -35.433)" x="-170.08" y="70.866" width="3.5433" height="7.0866"/>
   <rect id="rect709" transform="matrix(5 0 0 5 549.21 -35.433)" x="-180.71" y="92.126" width="3.5433" height="7.0866"/>
   <rect id="rect711" transform="matrix(5 0 0 5 549.21 -35.433)" x="-159.45" y="92.126" width="3.5433" height="7.0866"/>
   <rect id="rect712" transform="matrix(5 0 0 5 549.21 -35.433)" x="-170.08" y="92.126" width="3.5433" height="7.0866"/>
   <rect id="rect721" transform="matrix(5 0 0 5 549.21 -35.433)" x="-205.51" y="92.126" width="3.5433" height="7.0866"/>
   <rect id="rect722" transform="matrix(5 0 0 5 549.21 -35.433)" x="-134.65" y="92.126" width="3.5433" height="7.0866"/>
   <rect id="rect723" transform="matrix(5 0 0 5 549.21 -35.433)" x="-170.08" y="-7.0866" width="3.5433" height="7.0866"/>
   <rect id="rect881" transform="matrix(5 0 0 5 549.21 -35.433)" x="-187.8" y="-77.953" width="3.5433" height="7.0866"/>
   <rect id="rect882" transform="matrix(5 0 0 5 549.21 -35.433)" x="-152.36" y="-77.953" width="3.5433" height="7.0866"/>
   <rect id="rect883" transform="matrix(5 0 0 5 549.21 -35.433)" x="-173.62" y="-28.346" width="10.63" height="7.0866"/>
   <rect id="rect887" transform="matrix(5 0 0 5 549.21 -35.433)" x="-180.71" y="-21.26" width="10.63" height="7.0866"/>
   <rect id="rect888" transform="matrix(5 0 0 5 549.21 -35.433)" x="-177.17" y="-14.173" width="3.5433" height="7.0866"/>
   <rect id="rect889" transform="matrix(5 0 0 5 549.21 -35.433)" x="-184.25" y="-28.346" width="7.0866" height="7.0866"/>
   <rect id="rect890" transform="matrix(5 0 0 5 549.21 -35.433)" x="-180.71" y="-35.433" width="10.63" height="7.0866"/>
   <rect id="rect891" transform="matrix(5 0 0 5 549.21 -35.433)" x="-177.17" y="-42.52" width="3.5433" height="7.0866"/>
   <rect id="rect893" transform="matrix(5 0 0 5 549.21 -35.433)" x="-166.54" y="-35.433" width="10.63" height="7.0866"/>
   <rect id="rect894" transform="matrix(5 0 0 5 549.21 -35.433)" x="-162.99" y="-42.52" width="3.5433" height="7.0866"/>
   <rect id="rect895" transform="matrix(5 0 0 5 549.21 -35.433)" x="-159.45" y="-28.346" width="7.0866" height="7.0866"/>
   <rect id="rect896" transform="matrix(5 0 0 5 549.21 -35.433)" x="-166.54" y="-21.26" width="10.63" height="7.0866"/>
   <rect id="rect897" transform="matrix(5 0 0 5 549.21 -35.433)" x="-162.99" y="-14.173" width="3.5433" height="7.0866"/>
   <rect id="rect898" transform="matrix(5 0 0 5 549.21 -35.433)" x="-148.82" y="-28.346" width="7.0866" height="7.0866"/>
   <rect id="rect901" transform="matrix(5 0 0 5 549.21 -35.433)" x="-145.28" y="-35.433" width="10.63" height="7.0866"/>
   <rect id="rect902" transform="matrix(5 0 0 5 549.21 -35.433)" x="-138.19" y="-28.346" width="7.0866" height="7.0866"/>
   <rect id="rect903" transform="matrix(5 0 0 5 549.21 -35.433)" x="-145.28" y="-21.26" width="10.63" height="7.0866"/>
   <rect id="rect904" transform="matrix(5 0 0 5 549.21 -35.433)" x="-141.73" y="-14.173" width="3.5433" height="7.0866"/>
   <rect id="rect905" transform="matrix(5 0 0 5 549.21 -35.433)" x="-141.73" y="-42.52" width="3.5433" height="7.0866"/>
   <rect id="rect907" transform="matrix(5 0 0 5 549.21 -35.433)" x="-205.51" y="-28.346" width="7.0866" height="7.0866"/>
   <rect id="rect908" transform="matrix(5 0 0 5 549.21 -35.433)" x="-201.97" y="-35.433" width="10.63" height="7.0866"/>
   <rect id="rect909" transform="matrix(5 0 0 5 549.21 -35.433)" x="-194.88" y="-28.346" width="7.0866" height="7.0866"/>
   <rect id="rect910" transform="matrix(5 0 0 5 549.21 -35.433)" x="-201.97" y="-21.26" width="10.63" height="7.0866"/>
   <rect id="rect911" transform="matrix(5 0 0 5 549.21 -35.433)" x="-198.43" y="-14.173" width="3.5433" height="7.0866"/>
   <rect id="rect912" transform="matrix(5 0 0 5 549.21 -35.433)" x="-198.43" y="-42.52" width="3.5433" height="7.0866"/>
   <rect id="rect913" transform="matrix(5 0 0 5 549.21 -35.433)" x="-201.97" y="14.173" width="14.173" height="7.0866"/>
   <rect id="rect914" transform="matrix(5 0 0 5 549.21 -35.433)" x="-184.25" y="14.173" width="14.173" height="7.0866"/>
   <rect id="rect915" transform="matrix(5 0 0 5 549.21 -35.433)" x="-166.54" y="14.173" width="14.173" height="7.0866"/>
   <rect id="rect918" transform="matrix(5 0 0 5 549.21 -35.433)" x="-148.82" y="14.173" width="14.173" height="7.0866"/>
   <rect id="rect919" transform="matrix(5 0 0 5 549.21 -35.433)" x="-177.17" y="28.346" width="17.717" height="7.0866"/>
   <rect id="rect920" transform="matrix(5 0 0 5 549.21 -35.433)" x="-201.97" y="28.346" width="17.717" height="7.0866"/>
   <rect id="rect921" transform="matrix(5 0 0 5 549.21 -35.433)" x="-152.36" y="28.346" width="17.717" height="7.0866"/>
   <rect id="rect922" transform="matrix(5 0 0 5 549.21 -35.433)" x="-134.65" y="56.693" width="3.5433" height="7.0866"/>
   <rect id="rect923" transform="matrix(5 0 0 5 549.21 -35.433)" x="-205.51" y="56.693" width="3.5433" height="7.0866"/>
   <rect id="rect924" transform="matrix(5 0 0 -5 549.21 -35.433)" x="-201.97" y="-297.64" width="3.5433" height="7.0866"/>
   <rect id="rect925" transform="matrix(5 0 0 -5 549.21 -35.433)" x="-191.34" y="-297.64" width="10.63" height="7.0866"/>
   <rect id="rect926" transform="matrix(5 0 0 -5 549.21 -35.433)" x="-187.8" y="-304.72" width="3.5433" height="7.0866"/>
   <rect id="rect927" transform="matrix(5 0 0 -5 549.21 -35.433)" x="-170.08" y="-304.72" width="3.5433" height="7.0866"/>
   <rect id="rect928" transform="matrix(5 0 0 -5 549.21 -35.433)" x="-155.91" y="-297.64" width="10.63" height="7.0866"/>
   <rect id="rect929" transform="matrix(5 0 0 -5 549.21 -35.433)" x="-152.36" y="-304.72" width="3.5433" height="7.0866"/>
   <rect id="rect930" transform="matrix(5 0 0 -5 549.21 -35.433)" x="-194.88" y="-290.55" width="7.0866" height="7.0866"/>
   <rect id="rect931" transform="matrix(5 0 0 -5 549.21 -35.433)" x="-184.25" y="-290.55" width="7.0866" height="7.0866"/>
   <rect id="rect932" transform="matrix(5 0 0 -5 549.21 -35.433)" x="-159.45" y="-290.55" width="7.0866" height="7.0866"/>
   <rect id="rect933" transform="matrix(5 0 0 -5 549.21 -35.433)" x="-148.82" y="-290.55" width="7.0866" height="7.0866"/>
   <rect id="rect935" transform="matrix(5 0 0 -5 549.21 -35.433)" x="-180.71" y="-283.46" width="7.0866" height="7.0866"/>
   <rect id="rect936" transform="matrix(5 0 0 -5 549.21 -35.433)" x="-162.99" y="-283.46" width="7.0866" height="7.0866"/>
   <rect id="rect937" transform="matrix(5 0 0 -5 549.21 -35.433)" x="-145.28" y="-283.46" width="7.0866" height="7.0866"/>
   <rect id="rect938" transform="matrix(5 0 0 -5 549.21 -35.433)" x="-138.19" y="-297.64" width="3.5433" height="7.0866"/>
   <rect id="rect939" transform="matrix(5 0 0 -5 549.21 -35.433)" x="-201.97" y="-276.38" width="7.0866" height="7.0866"/>
   <rect id="rect940" transform="matrix(5 0 0 -5 549.21 -35.433)" x="-177.17" y="-276.38" width="7.0866" height="7.0866"/>
   <rect id="rect941" transform="matrix(5 0 0 -5 549.21 -35.433)" x="-141.73" y="-276.38" width="7.0866" height="7.0866"/>
   <rect id="rect942" transform="matrix(5 0 0 -5 549.21 -35.433)" x="-198.43" y="-255.12" width="7.0866" height="7.0866"/>
   <rect id="rect943" transform="matrix(5 0 0 -5 549.21 -35.433)" x="-194.88" y="-248.03" width="7.0866" height="7.0866"/>
   <rect id="rect944" transform="matrix(5 0 0 -5 549.21 -35.433)" x="-180.71" y="-255.12" width="7.0866" height="7.0866"/>
   <rect id="rect945" transform="matrix(5 0 0 -5 549.21 -35.433)" x="-184.25" y="-248.03" width="7.0866" height="7.0866"/>
   <rect id="rect946" transform="matrix(5 0 0 -5 549.21 -35.433)" x="-191.34" y="-240.94" width="10.63" height="7.0866"/>
   <rect id="rect947" transform="matrix(5 0 0 -5 549.21 -35.433)" x="-187.8" y="-233.86" width="3.5433" height="7.0866"/>
   <rect id="rect948" transform="matrix(5 0 0 -5 549.21 -35.433)" x="-162.99" y="-255.12" width="7.0866" height="7.0866"/>
   <rect id="rect949" transform="matrix(5 0 0 -5 549.21 -35.433)" x="-159.45" y="-248.03" width="7.0866" height="7.0866"/>
   <rect id="rect950" transform="matrix(5 0 0 -5 549.21 -35.433)" x="-145.28" y="-255.12" width="7.0866" height="7.0866"/>
   <rect id="rect951" transform="matrix(5 0 0 -5 549.21 -35.433)" x="-148.82" y="-248.03" width="7.0866" height="7.0866"/>
   <rect id="rect952" transform="matrix(5 0 0 -5 549.21 -35.433)" x="-155.91" y="-240.94" width="10.63" height="7.0866"/>
   <rect id="rect953" transform="matrix(5 0 0 -5 549.21 -35.433)" x="-152.36" y="-233.86" width="3.5433" height="7.0866"/>
   <rect id="rect954" transform="matrix(5 0 0 -5 549.21 -35.433)" x="-170.08" y="-240.94" width="3.5433" height="7.0866"/>
   <rect id="rect955" transform="matrix(5 0 0 -5 549.21 -35.433)" x="-205.51" y="-240.94" width="3.5433" height="7.0866"/>
   <rect id="rect956" transform="matrix(5 0 0 -5 549.21 -35.433)" x="-134.65" y="-240.94" width="3.5433" height="7.0866"/>
   <rect id="rect957" transform="matrix(5 0 0 -5 549.21 -35.433)" x="-187.8" y="-205.51" width="3.5433" height="7.0866"/>
   <rect id="rect958" transform="matrix(5 0 0 -5 549.21 -35.433)" x="-191.34" y="-198.43" width="10.63" height="7.0866"/>
   <rect id="rect959" transform="matrix(5 0 0 -5 549.21 -35.433)" x="-194.88" y="-191.34" width="17.717" height="7.0866"/>
   <rect id="rect960" transform="matrix(5 0 0 -5 549.21 -35.433)" x="-152.36" y="-205.51" width="3.5433" height="7.0866"/>
   <rect id="rect961" transform="matrix(5 0 0 -5 549.21 -35.433)" x="-155.91" y="-198.43" width="10.63" height="7.0866"/>
   <rect id="rect962" transform="matrix(5 0 0 -5 549.21 -35.433)" x="-159.45" y="-191.34" width="17.717" height="7.0866"/>
   <rect id="rect963" transform="matrix(5 0 0 -5 549.21 -35.433)" x="-155.91" y="-155.91" width="17.717" height="7.0866"/>
   <rect id="rect964" transform="matrix(5 0 0 -5 549.21 -35.433)" x="-162.99" y="-184.25" width="24.803" height="7.0866"/>
   <rect id="rect965" transform="matrix(5 0 0 -5 549.21 -35.433)" x="-198.43" y="-184.25" width="24.803" height="7.0866"/>
   <rect id="rect966" transform="matrix(5 0 0 -5 549.21 -35.433)" x="-194.88" y="-148.82" width="10.63" height="7.0905"/>
   <rect id="rect967" transform="matrix(5 0 0 -5 549.21 -35.433)" x="-198.43" y="-155.91" width="17.717" height="7.0866"/>
   <rect id="rect968" transform="matrix(5 0 0 -5 549.21 -35.433)" x="-148.82" y="-170.08" width="17.717" height="7.0866"/>
   <rect id="rect969" transform="matrix(5 0 0 -5 549.21 -35.433)" x="-152.36" y="-148.82" width="10.63" height="7.0866"/>
   <rect id="rect970" transform="matrix(5 0 0 -5 549.21 -35.433)" x="-205.51" y="-170.08" width="17.717" height="7.0866"/>
   <rect id="rect971" transform="matrix(5 0 0 -5 549.21 -35.433)" x="-173.62" y="-155.91" width="10.63" height="7.0866"/>
   <rect id="rect972" transform="matrix(5 0 0 -5 549.21 -35.433)" x="-170.08" y="-148.82" width="3.5433" height="7.0866"/>
   <rect id="rect973" transform="matrix(5 0 0 -5 549.21 -35.433)" x="-180.71" y="-170.08" width="24.803" height="7.0866"/>
   <rect id="rect974" transform="matrix(5 0 0 -5 549.21 -35.433)" x="-166.54" y="-276.38" width="7.0866" height="7.0866"/>
   <rect id="rect975" transform="matrix(5 0 0 -5 549.21 -35.433)" x="-173.62" y="-269.29" width="10.63" height="7.0866"/>
   <rect id="rect976" transform="matrix(5 0 0 -5 549.21 -35.433)" x="-177.17" y="-262.2" width="7.0866" height="7.0866"/>
   <rect id="rect977" transform="matrix(5 0 0 -5 549.21 -35.433)" x="-166.54" y="-262.2" width="7.0866" height="7.0866"/>
   <rect id="rect978" transform="matrix(5 0 0 -5 549.21 -35.433)" x="-205.51" y="-269.29" width="7.0866" height="7.0866"/>
   <rect id="rect979" transform="matrix(5 0 0 -5 549.21 -35.433)" x="-201.97" y="-262.2" width="7.0866" height="7.0866"/>
   <rect id="rect980" transform="matrix(5 0 0 -5 549.21 -35.433)" x="-138.19" y="-269.29" width="7.0866" height="7.0866"/>
   <rect id="rect981" transform="matrix(5 0 0 -5 549.21 -35.433)" x="-141.73" y="-262.2" width="7.0866" height="7.0866"/>
   <rect id="rect982" transform="matrix(5 0 0 -5 549.21 -35.433)" x="-205.51" y="-198.43" width="3.5433" height="7.0866"/>
   <rect id="rect983" transform="matrix(5 0 0 -5 549.21 -35.433)" x="-134.65" y="-198.43" width="3.5433" height="7.0866"/>
   <rect id="rect984" transform="matrix(5 0 0 -5 549.21 -35.433)" x="-177.17" y="-134.65" width="7.0866" height="7.0866"/>
   <rect id="rect985" transform="matrix(5 0 0 -5 549.21 -35.433)" x="-166.54" y="-134.65" width="7.0866" height="7.0866"/>
   <rect id="rect986" transform="matrix(5 0 0 -5 549.21 -35.433)" x="-180.71" y="-127.56" width="7.0866" height="7.0866"/>
   <rect id="rect987" transform="matrix(5 0 0 -5 549.21 -35.433)" x="-162.99" y="-127.56" width="7.0866" height="7.0866"/>
   <rect id="rect988" transform="matrix(5 0 0 -5 549.21 -35.433)" x="-184.25" y="-120.47" width="7.0866" height="7.0866"/>
   <rect id="rect989" transform="matrix(5 0 0 -5 549.21 -35.433)" x="-159.45" y="-120.47" width="7.0866" height="7.0866"/>
   <rect id="rect990" transform="matrix(5 0 0 -5 549.21 -35.433)" x="-187.8" y="-113.39" width="7.0866" height="7.0866"/>
   <rect id="rect991" transform="matrix(5 0 0 -5 549.21 -35.433)" x="-155.91" y="-113.39" width="7.0866" height="7.0866"/>
   <rect id="rect992" transform="matrix(5 0 0 -5 549.21 -35.433)" x="-194.88" y="-106.3" width="10.63" height="7.0866"/>
   <rect id="rect993" transform="matrix(5 0 0 -5 549.21 -35.433)" x="-152.36" y="-106.3" width="10.63" height="7.0866"/>
   <rect id="rect994" transform="matrix(5 0 0 -5 549.21 -35.433)" x="-145.28" y="-113.39" width="7.0866" height="7.0866"/>
   <rect id="rect995" transform="matrix(5 0 0 -5 549.21 -35.433)" x="-141.73" y="-120.47" width="7.0866" height="7.0866"/>
   <rect id="rect996" transform="matrix(5 0 0 -5 549.21 -35.433)" x="-138.19" y="-127.56" width="7.0866" height="7.0866"/>
   <rect id="rect997" transform="matrix(5 0 0 -5 549.21 -35.433)" x="-198.43" y="-113.39" width="7.0866" height="7.0866"/>
   <rect id="rect998" transform="matrix(5 0 0 -5 549.21 -35.433)" x="-201.97" y="-120.47" width="7.0866" height="7.0866"/>
   <rect id="rect999" transform="matrix(5 0 0 -5 549.21 -35.433)" x="-205.51" y="-127.56" width="7.0866" height="7.0866"/>
   <rect id="rect1000" transform="matrix(5 0 0 -5 549.21 -35.433)" x="-191.34" y="-99.213" width="3.5433" height="7.0866"/>
   <rect id="rect1002" transform="matrix(5 0 0 -5 549.21 -35.433)" x="-170.08" y="-120.47" width="3.5433" height="7.0866"/>
   <rect id="rect1011" transform="matrix(5 0 0 -5 549.21 -35.433)" x="-170.08" y="-198.43" width="3.5433" height="7.0866"/>
   <rect id="rect1012" transform="matrix(5 0 0 -5 549.21 -35.433)" x="-187.8" y="-269.29" width="3.5433" height="7.0866"/>
   <rect id="rect1013" transform="matrix(5 0 0 -5 549.21 -35.433)" x="-152.36" y="-269.29" width="3.5433" height="7.0866"/>
   <rect id="rect1014" transform="matrix(5 0 0 -5 549.21 -35.433)" x="-173.62" y="-219.69" width="10.63" height="7.0866"/>
   <rect id="rect1015" transform="matrix(5 0 0 -5 549.21 -35.433)" x="-180.71" y="-212.6" width="10.63" height="7.0866"/>
   <rect id="rect1016" transform="matrix(5 0 0 -5 549.21 -35.433)" x="-177.17" y="-205.51" width="3.5433" height="7.0866"/>
   <rect id="rect1017" transform="matrix(5 0 0 -5 549.21 -35.433)" x="-184.25" y="-219.69" width="7.0866" height="7.0866"/>
   <rect id="rect1018" transform="matrix(5 0 0 -5 549.21 -35.433)" x="-180.71" y="-226.77" width="10.63" height="7.0866"/>
   <rect id="rect1019" transform="matrix(5 0 0 -5 549.21 -35.433)" x="-177.17" y="-233.86" width="3.5433" height="7.0866"/>
   <rect id="rect1020" transform="matrix(5 0 0 -5 549.21 -35.433)" x="-166.54" y="-226.77" width="10.63" height="7.0866"/>
   <rect id="rect1021" transform="matrix(5 0 0 -5 549.21 -35.433)" x="-162.99" y="-233.86" width="3.5433" height="7.0866"/>
   <rect id="rect1022" transform="matrix(5 0 0 -5 549.21 -35.433)" x="-159.45" y="-219.69" width="7.0866" height="7.0866"/>
   <rect id="rect1023" transform="matrix(5 0 0 -5 549.21 -35.433)" x="-166.54" y="-212.6" width="10.63" height="7.0866"/>
   <rect id="rect1024" transform="matrix(5 0 0 -5 549.21 -35.433)" x="-162.99" y="-205.51" width="3.5433" height="7.0866"/>
   <rect id="rect1025" transform="matrix(5 0 0 -5 549.21 -35.433)" x="-148.82" y="-219.69" width="7.0866" height="7.0866"/>
   <rect id="rect1026" transform="matrix(5 0 0 -5 549.21 -35.433)" x="-145.28" y="-226.77" width="10.63" height="7.0866"/>
   <rect id="rect1027" transform="matrix(5 0 0 -5 549.21 -35.433)" x="-138.19" y="-219.69" width="7.0866" height="7.0866"/>
   <rect id="rect1028" transform="matrix(5 0 0 -5 549.21 -35.433)" x="-145.28" y="-212.6" width="10.63" height="7.0866"/>
   <rect id="rect1029" transform="matrix(5 0 0 -5 549.21 -35.433)" x="-141.73" y="-205.51" width="3.5433" height="7.0866"/>
   <rect id="rect1030" transform="matrix(5 0 0 -5 549.21 -35.433)" x="-141.73" y="-233.86" width="3.5433" height="7.0866"/>
   <rect id="rect1031" transform="matrix(5 0 0 -5 549.21 -35.433)" x="-205.51" y="-219.69" width="7.0866" height="7.0866"/>
   <rect id="rect1032" transform="matrix(5 0 0 -5 549.21 -35.433)" x="-201.97" y="-226.77" width="10.63" height="7.0866"/>
   <rect id="rect1033" transform="matrix(5 0 0 -5 549.21 -35.433)" x="-194.88" y="-219.69" width="7.0866" height="7.0866"/>
   <rect id="rect1034" transform="matrix(5 0 0 -5 549.21 -35.433)" x="-201.97" y="-212.6" width="10.63" height="7.0866"/>
   <rect id="rect1035" transform="matrix(5 0 0 -5 549.21 -35.433)" x="-198.43" y="-205.51" width="3.5433" height="7.0866"/>
   <rect id="rect1036" transform="matrix(5 0 0 -5 549.21 -35.433)" x="-198.43" y="-233.86" width="3.5433" height="7.0866"/>
   <rect id="rect1037" transform="matrix(5 0 0 -5 549.21 -35.433)" x="-201.97" y="-177.17" width="14.173" height="7.0866"/>
   <rect id="rect1038" transform="matrix(5 0 0 -5 549.21 -35.433)" x="-184.25" y="-177.17" width="14.173" height="7.0866"/>
   <rect id="rect1039" transform="matrix(5 0 0 -5 549.21 -35.433)" x="-166.54" y="-177.17" width="14.173" height="7.0866"/>
   <rect id="rect1040" transform="matrix(5 0 0 -5 549.21 -35.433)" x="-148.82" y="-177.17" width="14.173" height="7.0866"/>
   <rect id="rect1041" transform="matrix(5 0 0 -5 549.21 -35.433)" x="-177.17" y="-162.99" width="17.717" height="7.0866"/>
   <rect id="rect1042" transform="matrix(5 0 0 -5 549.21 -35.433)" x="-201.97" y="-162.99" width="17.717" height="7.0866"/>
   <rect id="rect1043" transform="matrix(5 0 0 -5 549.21 -35.433)" x="-152.36" y="-162.99" width="17.717" height="7.0866"/>
   <rect id="rect1044" transform="matrix(5 0 0 -5 549.21 -35.433)" x="-134.65" y="-134.65" width="3.5433" height="7.0866"/>
   <rect id="rect1045" transform="matrix(5 0 0 -5 549.21 -35.433)" x="-205.51" y="-134.65" width="3.5433" height="7.0866"/>
   <rect id="rect1046" transform="matrix(5 0 0 5 549.21 -35.433)" x="-173.62" y="99.213" width="3.5433" height="7.0866"/>
   <rect id="rect1047" transform="matrix(5 0 0 5 549.21 -35.433)" x="-166.54" y="99.213" width="3.5433" height="7.0866"/>
   <rect id="rect1048" transform="matrix(5 0 0 5 549.21 -35.433)" x="-166.54" y="85.039" width="3.5433" height="7.0866"/>
   <rect id="rect1049" transform="matrix(5 0 0 5 549.21 -35.433)" x="-173.62" y="85.039" width="3.5433" height="7.0866"/>
   <rect id="rect1050" transform="matrix(5 0 0 5 549.21 -35.433)" x="-198.43" y="276.38" width="7.0866" height="7.0866"/>
   <rect id="rect1521" transform="matrix(5 0 0 -5 549.21 -35.433)" x="-148.82" y="-141.73" width="3.5433" height="7.0866"/>
   <rect id="rect1522" transform="matrix(5 0 0 -5 549.21 -35.433)" x="-191.34" y="-141.73" width="3.5433" height="7.0866"/>
   <rect id="rect1527" x="-318.9" y="637.8" width="53.149" height="35.433"/>
  </g>
 </g>
</svg>
