<?xml version="1.0" encoding="UTF-8"?>
<!-- Created with Sodipodi ("http://www.sodipodi.com/") -->
<svg id="svg548" width="640" height="480" version="1.1" xmlns="http://www.w3.org/2000/svg" xmlns:cc="http://creativecommons.org/ns#" xmlns:dc="http://purl.org/dc/elements/1.1/" xmlns:rdf="http://www.w3.org/1999/02/22-rdf-syntax-ns#">
 <metadata id="metadata2999">
  <rdf:RDF>
   <cc:Work rdf:about="">
    <dc:format>image/svg+xml</dc:format>
    <dc:type rdf:resource="http://purl.org/dc/dcmitype/StillImage"/>
   </cc:Work>
  </rdf:RDF>
 </metadata>
 <defs id="defs550">
  <clipPath id="clipPath3544">
   <rect id="rect3546" x="-12.355" y="32" width="640" height="480" fill-opacity=".67"/>
  </clipPath>
 </defs>
 <g id="flag" transform="translate(12.355 -32)" clip-path="url(#clipPath3544)" fill-rule="evenodd">
  <rect id="rect554" x="-52" y="32" width="719.29" height="118.94" fill="#00f" stroke-width="1pt"/>
  <rect id="rect551" x="-52" y="391.65" width="719.29" height="120.35" fill="#ff0"/>
  <rect id="rect552" x="-52" y="271.3" width="719.29" height="120.35" fill="#009a00" stroke-width="1pt"/>
  <rect id="rect553" x="-52" y="150.94" width="719.29" height="120.35" fill="#fff" stroke-width="1pt"/>
  <rect id="rect555" x="247.7" y="32.474" width="119.88" height="479.53" fill="#f00" stroke-width="1pt"/>
  <polygon id="polygon558" transform="matrix(.96666 0 0 .97045 -52 30.593)" d="M 156.4718,110.31653 123.9666,87.934135 91.576445,110.53538 102.81871,72.704555 71.314537,48.883856 l 39.453303,-0.998341 12.91951,-37.323247 13.14122,37.213817 39.48886,0.753664 -31.33158,23.997744 z" points="156.47 110.32 123.97 87.934 91.576 110.54 102.82 72.705 71.314 48.884 110.77 47.886 123.69 10.562 136.83 47.776 176.32 48.53 144.99 72.528" fill="#ff0" stroke-width="1pt"/>
 </g>
</svg>
