<?xml version="1.0" encoding="UTF-8"?>
<svg id="svg2" width="640" height="480" version="1.1" viewBox="0 0 213.33 160" xmlns="http://www.w3.org/2000/svg" xmlns:cc="http://creativecommons.org/ns#" xmlns:dc="http://purl.org/dc/elements/1.1/" xmlns:rdf="http://www.w3.org/1999/02/22-rdf-syntax-ns#" xmlns:xlink="http://www.w3.org/1999/xlink">
 <metadata id="metadata27">
  <rdf:RDF>
   <cc:Work rdf:about="">
    <dc:format>image/svg+xml</dc:format>
    <dc:type rdf:resource="http://purl.org/dc/dcmitype/StillImage"/>
   </cc:Work>
  </rdf:RDF>
 </metadata>
 <defs id="defs4">
  <g id="smallcross">
   <clipPath id="vclip">
    <path id="path8" d="m-109 104a104 104 0 0 0 0-208h218a104 104 0 0 0 0 208z"/>
   </clipPath>
   <path id="varm" d="m-55 74a55 55 0 0 1 110 0v-148a55 55 0 0 1-110 0z" clip-path="url(#vclip)"/>
   <use id="use11" transform="rotate(90)" width="300" height="200" xlink:href="#varm"/>
  </g>
 </defs>
 <g id="flag">
  <rect id="rect3009" x="-1.6667e-6" y="1.4211e-14" width="213.33" height="160" fill="#fff"/>
  <g id="g3001">
   <rect id="rect13" x="6.3846" y="13.192" width="200.56" height="133.71" fill="#fff"/>
   <path id="path15" d="m93.296 13.192v53.484h-86.911v26.742h86.911v53.484h26.742v-53.484h86.911v-26.742h-86.911v-53.484h-26.742z" fill="#f00"/>
   <use id="use17" transform="matrix(.66855 0 0 .66855 49.472 39.566)" width="300" height="200" fill="#ff0000" xlink:href="#smallcross"/>
   <use id="use19" transform="matrix(.66855 0 0 .66855 163.86 120.53)" width="300" height="200" fill="#ff0000" xlink:href="#smallcross"/>
   <use id="use21" transform="matrix(.66855 0 0 .66855 163.86 39.566)" width="300" height="200" fill="#ff0000" xlink:href="#smallcross"/>
   <use id="use23" transform="matrix(.66855 0 0 .66855 49.472 120.53)" width="300" height="200" fill="#ff0000" xlink:href="#smallcross"/>
  </g>
 </g>
</svg>
