<?xml version="1.0" encoding="UTF-8"?>
<!-- Created with Sodipodi ("http://www.sodipodi.com/") -->
<svg id="svg734" width="640" height="480" version="1.1" xmlns="http://www.w3.org/2000/svg" xmlns:cc="http://creativecommons.org/ns#" xmlns:dc="http://purl.org/dc/elements/1.1/" xmlns:rdf="http://www.w3.org/1999/02/22-rdf-syntax-ns#">
 <metadata id="metadata4587">
  <rdf:RDF>
   <cc:Work rdf:about="">
    <dc:format>image/svg+xml</dc:format>
    <dc:type rdf:resource="http://purl.org/dc/dcmitype/StillImage"/>
   </cc:Work>
  </rdf:RDF>
 </metadata>
 <defs id="defs736">
  <clipPath id="clipPath6805">
   <rect id="rect6807" x="-85.311" y="7.8594e-6" width="682.67" height="512" fill-opacity=".67"/>
  </clipPath>
 </defs>
 <g id="flag" transform="matrix(.9375 0 0 .9375 79.98 -7.3682e-6)" clip-path="url(#clipPath6805)" fill-rule="evenodd">
  <rect id="rect1052" x="-191.96" y="1.4203e-5" width="896" height="512" fill="#fff" stroke-width="1pt"/>
  <rect id="rect1927" x="-191.96" y="343.84" width="896" height="168.16" fill="#da0000" stroke-width="1pt"/>
  <g id="g772" transform="matrix(1.5197 0 0 1.5197 -70.36 36.806)" fill="#fff" stroke-width="1pt">
   <rect id="rect750" x="32.067" y="206.72" width="32.289" height="2.2217"/>
   <rect id="rect751" x="36.881" y="217.83" width="2.2217" height="2.1576"/>
   <rect id="rect753" transform="rotate(90)" x="217.76" y="-64.44" width="2.2217" height="6.453"/>
   <rect id="rect755" x="67.911" y="206.72" width="2.2217" height="13.266"/>
   <rect id="rect756" transform="rotate(90)" x="217.76" y="-80.765" width="2.2217" height="12.229"/>
   <rect id="rect757" x="57.987" y="212.57" width="2.2217" height="7.4157"/>
   <rect id="rect758" transform="translate(11.035 -1.5259e-5)" x="67.911" y="206.72" width="2.2217" height="13.266"/>
   <rect id="rect759" x="73.391" y="206.72" width="2.2217" height="13.266"/>
   <rect id="rect760" transform="matrix(0 1 -1 0 .009222 -1.5259e-5)" x="212" y="-43.903" width="2.2217" height="11.785"/>
   <rect id="rect763" transform="rotate(90)" x="212" y="-69.772" width="2.2217" height="11.785"/>
   <rect id="rect764" x="57.987" y="212.57" width="2.2217" height="7.4157"/>
   <rect id="rect765" x="57.987" y="212.57" width="2.2217" height="7.4157"/>
   <rect id="rect766" x="57.987" y="212.57" width="2.2217" height="7.4157"/>
   <rect id="rect767" transform="translate(-.17213 -1.5259e-5)" x="32.299" y="212.57" width="2.2217" height="7.4157"/>
   <rect id="rect768" x="51.082" y="212.57" width="2.2217" height="7.4157"/>
   <rect id="rect769" transform="translate(0 -1.5259e-5)" x="41.691" y="212.57" width="2.2217" height="7.4157"/>
   <rect id="rect770" transform="rotate(90)" x="217.76" y="-52.641" width="2.2217" height="9.9621"/>
   <rect id="rect771" transform="rotate(90)" x="212" y="-53.304" width="2.2217" height="6.3161"/>
  </g>
  <g id="g791" transform="matrix(1.5197 0 0 1.5197 -150.96 36.806)" fill="#fff" stroke-width="1pt">
   <rect id="rect792" x="32.067" y="206.72" width="32.289" height="2.2217"/>
   <rect id="rect793" x="36.881" y="217.83" width="2.2217" height="2.1576"/>
   <rect id="rect794" transform="rotate(90)" x="217.76" y="-64.44" width="2.2217" height="6.453"/>
   <rect id="rect795" x="67.911" y="206.72" width="2.2217" height="13.266"/>
   <rect id="rect796" transform="rotate(90)" x="217.76" y="-80.765" width="2.2217" height="12.229"/>
   <rect id="rect797" x="57.987" y="212.57" width="2.2217" height="7.4157"/>
   <rect id="rect798" transform="translate(11.035 -1.5259e-5)" x="67.911" y="206.72" width="2.2217" height="13.266"/>
   <rect id="rect799" x="73.391" y="206.72" width="2.2217" height="13.266"/>
   <rect id="rect800" transform="matrix(0 1 -1 0 .009222 -1.5259e-5)" x="212" y="-43.903" width="2.2217" height="11.785"/>
   <rect id="rect801" transform="rotate(90)" x="212" y="-69.772" width="2.2217" height="11.785"/>
   <rect id="rect802" x="57.987" y="212.57" width="2.2217" height="7.4157"/>
   <rect id="rect803" x="57.987" y="212.57" width="2.2217" height="7.4157"/>
   <rect id="rect804" x="57.987" y="212.57" width="2.2217" height="7.4157"/>
   <rect id="rect805" transform="translate(-.17213 -1.5259e-5)" x="32.299" y="212.57" width="2.2217" height="7.4157"/>
   <rect id="rect806" x="51.082" y="212.57" width="2.2217" height="7.4157"/>
   <rect id="rect807" transform="translate(0 -1.5259e-5)" x="41.691" y="212.57" width="2.2217" height="7.4157"/>
   <rect id="rect808" transform="rotate(90)" x="217.76" y="-52.641" width="2.2217" height="9.9621"/>
   <rect id="rect809" transform="rotate(90)" x="212" y="-53.304" width="2.2217" height="6.3161"/>
  </g>
  <g id="g812" transform="matrix(1.5197 0 0 1.5197 9.5646 36.806)" fill="#fff" stroke-width="1pt">
   <rect id="rect813" x="32.067" y="206.72" width="32.289" height="2.2217"/>
   <rect id="rect814" x="36.881" y="217.83" width="2.2217" height="2.1576"/>
   <rect id="rect815" transform="rotate(90)" x="217.76" y="-64.44" width="2.2217" height="6.453"/>
   <rect id="rect816" x="67.911" y="206.72" width="2.2217" height="13.266"/>
   <rect id="rect817" transform="rotate(90)" x="217.76" y="-80.765" width="2.2217" height="12.229"/>
   <rect id="rect818" x="57.987" y="212.57" width="2.2217" height="7.4157"/>
   <rect id="rect819" transform="translate(11.035 -1.5259e-5)" x="67.911" y="206.72" width="2.2217" height="13.266"/>
   <rect id="rect820" x="73.391" y="206.72" width="2.2217" height="13.266"/>
   <rect id="rect821" transform="matrix(0 1 -1 0 .009222 -1.5259e-5)" x="212" y="-43.903" width="2.2217" height="11.785"/>
   <rect id="rect822" transform="rotate(90)" x="212" y="-69.772" width="2.2217" height="11.785"/>
   <rect id="rect823" x="57.987" y="212.57" width="2.2217" height="7.4157"/>
   <rect id="rect824" x="57.987" y="212.57" width="2.2217" height="7.4157"/>
   <rect id="rect825" x="57.987" y="212.57" width="2.2217" height="7.4157"/>
   <rect id="rect826" transform="translate(-.17213 -1.5259e-5)" x="32.299" y="212.57" width="2.2217" height="7.4157"/>
   <rect id="rect827" x="51.082" y="212.57" width="2.2217" height="7.4157"/>
   <rect id="rect828" transform="translate(0 -1.5259e-5)" x="41.691" y="212.57" width="2.2217" height="7.4157"/>
   <rect id="rect829" transform="rotate(90)" x="217.76" y="-52.641" width="2.2217" height="9.9621"/>
   <rect id="rect830" transform="rotate(90)" x="212" y="-53.304" width="2.2217" height="6.3161"/>
  </g>
  <g id="g840" transform="matrix(1.5197 0 0 1.5197 573.95 36.806)" fill="#fff" stroke-width="1pt">
   <rect id="rect841" x="32.067" y="206.72" width="32.289" height="2.2217"/>
   <rect id="rect842" x="36.881" y="217.83" width="2.2217" height="2.1576"/>
   <rect id="rect843" transform="rotate(90)" x="217.76" y="-64.44" width="2.2217" height="6.453"/>
   <rect id="rect844" x="67.911" y="206.72" width="2.2217" height="13.266"/>
   <rect id="rect845" transform="rotate(90)" x="217.76" y="-80.765" width="2.2217" height="12.229"/>
   <rect id="rect846" x="57.987" y="212.57" width="2.2217" height="7.4157"/>
   <rect id="rect847" transform="translate(11.035 -1.5259e-5)" x="67.911" y="206.72" width="2.2217" height="13.266"/>
   <rect id="rect848" x="73.391" y="206.72" width="2.2217" height="13.266"/>
   <rect id="rect849" transform="matrix(0 1 -1 0 .009222 -1.5259e-5)" x="212" y="-43.903" width="2.2217" height="11.785"/>
   <rect id="rect850" transform="rotate(90)" x="212" y="-69.772" width="2.2217" height="11.785"/>
   <rect id="rect851" x="57.987" y="212.57" width="2.2217" height="7.4157"/>
   <rect id="rect852" x="57.987" y="212.57" width="2.2217" height="7.4157"/>
   <rect id="rect853" x="57.987" y="212.57" width="2.2217" height="7.4157"/>
   <rect id="rect854" transform="translate(-.17213 -1.5259e-5)" x="32.299" y="212.57" width="2.2217" height="7.4157"/>
   <rect id="rect855" x="51.082" y="212.57" width="2.2217" height="7.4157"/>
   <rect id="rect856" transform="translate(0 -1.5259e-5)" x="41.691" y="212.57" width="2.2217" height="7.4157"/>
   <rect id="rect857" transform="rotate(90)" x="217.76" y="-52.641" width="2.2217" height="9.9621"/>
   <rect id="rect858" transform="rotate(90)" x="212" y="-53.304" width="2.2217" height="6.3161"/>
  </g>
  <g id="g859" transform="matrix(1.5197 0 0 1.5197 90.01 36.806)" fill="#fff" stroke-width="1pt">
   <rect id="rect860" x="32.067" y="206.72" width="32.289" height="2.2217"/>
   <rect id="rect861" x="36.881" y="217.83" width="2.2217" height="2.1576"/>
   <rect id="rect862" transform="rotate(90)" x="217.76" y="-64.44" width="2.2217" height="6.453"/>
   <rect id="rect863" x="67.911" y="206.72" width="2.2217" height="13.266"/>
   <rect id="rect864" transform="rotate(90)" x="217.76" y="-80.765" width="2.2217" height="12.229"/>
   <rect id="rect865" x="57.987" y="212.57" width="2.2217" height="7.4157"/>
   <rect id="rect866" transform="translate(11.035 -1.5259e-5)" x="67.911" y="206.72" width="2.2217" height="13.266"/>
   <rect id="rect867" x="73.391" y="206.72" width="2.2217" height="13.266"/>
   <rect id="rect868" transform="matrix(0 1 -1 0 .009222 -1.5259e-5)" x="212" y="-43.903" width="2.2217" height="11.785"/>
   <rect id="rect869" transform="rotate(90)" x="212" y="-69.772" width="2.2217" height="11.785"/>
   <rect id="rect870" x="57.987" y="212.57" width="2.2217" height="7.4157"/>
   <rect id="rect871" x="57.987" y="212.57" width="2.2217" height="7.4157"/>
   <rect id="rect872" x="57.987" y="212.57" width="2.2217" height="7.4157"/>
   <rect id="rect873" transform="translate(-.17213 -1.5259e-5)" x="32.299" y="212.57" width="2.2217" height="7.4157"/>
   <rect id="rect874" x="51.082" y="212.57" width="2.2217" height="7.4157"/>
   <rect id="rect875" transform="translate(0 -1.5259e-5)" x="41.691" y="212.57" width="2.2217" height="7.4157"/>
   <rect id="rect876" transform="rotate(90)" x="217.76" y="-52.641" width="2.2217" height="9.9621"/>
   <rect id="rect877" transform="rotate(90)" x="212" y="-53.304" width="2.2217" height="6.3161"/>
  </g>
  <g id="g878" transform="matrix(1.5197 0 0 1.5197 170.75 36.806)" fill="#fff" stroke-width="1pt">
   <rect id="rect879" x="32.067" y="206.72" width="32.289" height="2.2217"/>
   <rect id="rect880" x="36.881" y="217.83" width="2.2217" height="2.1576"/>
   <rect id="rect881" transform="rotate(90)" x="217.76" y="-64.44" width="2.2217" height="6.453"/>
   <rect id="rect882" x="67.911" y="206.72" width="2.2217" height="13.266"/>
   <rect id="rect883" transform="rotate(90)" x="217.76" y="-80.765" width="2.2217" height="12.229"/>
   <rect id="rect884" x="57.987" y="212.57" width="2.2217" height="7.4157"/>
   <rect id="rect885" transform="translate(11.035 -1.5259e-5)" x="67.911" y="206.72" width="2.2217" height="13.266"/>
   <rect id="rect886" x="73.391" y="206.72" width="2.2217" height="13.266"/>
   <rect id="rect887" transform="matrix(0 1 -1 0 .009222 -1.5259e-5)" x="212" y="-43.903" width="2.2217" height="11.785"/>
   <rect id="rect888" transform="rotate(90)" x="212" y="-69.772" width="2.2217" height="11.785"/>
   <rect id="rect889" x="57.987" y="212.57" width="2.2217" height="7.4157"/>
   <rect id="rect890" x="57.987" y="212.57" width="2.2217" height="7.4157"/>
   <rect id="rect891" x="57.987" y="212.57" width="2.2217" height="7.4157"/>
   <rect id="rect892" transform="translate(-.17213 -1.5259e-5)" x="32.299" y="212.57" width="2.2217" height="7.4157"/>
   <rect id="rect893" x="51.082" y="212.57" width="2.2217" height="7.4157"/>
   <rect id="rect894" transform="translate(0 -1.5259e-5)" x="41.691" y="212.57" width="2.2217" height="7.4157"/>
   <rect id="rect895" transform="rotate(90)" x="217.76" y="-52.641" width="2.2217" height="9.9621"/>
   <rect id="rect896" transform="rotate(90)" x="212" y="-53.304" width="2.2217" height="6.3161"/>
  </g>
  <rect id="rect1926" x="-191.96" y="6.9776e-6" width="896" height="168.16" fill="#239f40" stroke-width="1pt"/>
  <g id="g897" transform="matrix(1.5197 0 0 1.5197 251.96 36.806)" fill="#fff" stroke-width="1pt">
   <rect id="rect898" x="32.067" y="206.72" width="32.289" height="2.2217"/>
   <rect id="rect899" x="36.881" y="217.83" width="2.2217" height="2.1576"/>
   <rect id="rect900" transform="rotate(90)" x="217.76" y="-64.44" width="2.2217" height="6.453"/>
   <rect id="rect901" x="67.911" y="206.72" width="2.2217" height="13.266"/>
   <rect id="rect902" transform="rotate(90)" x="217.76" y="-80.765" width="2.2217" height="12.229"/>
   <rect id="rect903" x="57.987" y="212.57" width="2.2217" height="7.4157"/>
   <rect id="rect904" transform="translate(11.035 -1.5259e-5)" x="67.911" y="206.72" width="2.2217" height="13.266"/>
   <rect id="rect905" x="73.391" y="206.72" width="2.2217" height="13.266"/>
   <rect id="rect906" transform="matrix(0 1 -1 0 .009222 -1.5259e-5)" x="212" y="-43.903" width="2.2217" height="11.785"/>
   <rect id="rect907" transform="rotate(90)" x="212" y="-69.772" width="2.2217" height="11.785"/>
   <rect id="rect908" x="57.987" y="212.57" width="2.2217" height="7.4157"/>
   <rect id="rect909" x="57.987" y="212.57" width="2.2217" height="7.4157"/>
   <rect id="rect910" x="57.987" y="212.57" width="2.2217" height="7.4157"/>
   <rect id="rect911" transform="translate(-.17213 -1.5259e-5)" x="32.299" y="212.57" width="2.2217" height="7.4157"/>
   <rect id="rect912" x="51.082" y="212.57" width="2.2217" height="7.4157"/>
   <rect id="rect913" transform="translate(0 -1.5259e-5)" x="41.691" y="212.57" width="2.2217" height="7.4157"/>
   <rect id="rect914" transform="rotate(90)" x="217.76" y="-52.641" width="2.2217" height="9.9621"/>
   <rect id="rect915" transform="rotate(90)" x="212" y="-53.304" width="2.2217" height="6.3161"/>
  </g>
  <g id="g916" transform="matrix(1.5197 0 0 1.5197 332.69 36.806)" fill="#fff" stroke-width="1pt">
   <rect id="rect917" x="32.067" y="206.72" width="32.289" height="2.2217"/>
   <rect id="rect918" x="36.881" y="217.83" width="2.2217" height="2.1576"/>
   <rect id="rect919" transform="rotate(90)" x="217.76" y="-64.44" width="2.2217" height="6.453"/>
   <rect id="rect920" x="67.911" y="206.72" width="2.2217" height="13.266"/>
   <rect id="rect921" transform="rotate(90)" x="217.76" y="-80.765" width="2.2217" height="12.229"/>
   <rect id="rect922" x="57.987" y="212.57" width="2.2217" height="7.4157"/>
   <rect id="rect923" transform="translate(11.035 -1.5259e-5)" x="67.911" y="206.72" width="2.2217" height="13.266"/>
   <rect id="rect924" x="73.391" y="206.72" width="2.2217" height="13.266"/>
   <rect id="rect925" transform="matrix(0 1 -1 0 .009222 -1.5259e-5)" x="212" y="-43.903" width="2.2217" height="11.785"/>
   <rect id="rect926" transform="rotate(90)" x="212" y="-69.772" width="2.2217" height="11.785"/>
   <rect id="rect927" x="57.987" y="212.57" width="2.2217" height="7.4157"/>
   <rect id="rect928" x="57.987" y="212.57" width="2.2217" height="7.4157"/>
   <rect id="rect929" x="57.987" y="212.57" width="2.2217" height="7.4157"/>
   <rect id="rect930" transform="translate(-.17213 -1.5259e-5)" x="32.299" y="212.57" width="2.2217" height="7.4157"/>
   <rect id="rect931" x="51.082" y="212.57" width="2.2217" height="7.4157"/>
   <rect id="rect932" transform="translate(0 -1.5259e-5)" x="41.691" y="212.57" width="2.2217" height="7.4157"/>
   <rect id="rect933" transform="rotate(90)" x="217.76" y="-52.641" width="2.2217" height="9.9621"/>
   <rect id="rect934" transform="rotate(90)" x="212" y="-53.304" width="2.2217" height="6.3161"/>
  </g>
  <g id="g935" transform="matrix(1.5197 0 0 1.5197 413.43 36.806)" fill="#fff" stroke-width="1pt">
   <rect id="rect936" x="32.067" y="206.72" width="32.289" height="2.2217"/>
   <rect id="rect937" x="36.881" y="217.83" width="2.2217" height="2.1576"/>
   <rect id="rect938" transform="rotate(90)" x="217.76" y="-64.44" width="2.2217" height="6.453"/>
   <rect id="rect939" x="67.911" y="206.72" width="2.2217" height="13.266"/>
   <rect id="rect940" transform="rotate(90)" x="217.76" y="-80.765" width="2.2217" height="12.229"/>
   <rect id="rect941" x="57.987" y="212.57" width="2.2217" height="7.4157"/>
   <rect id="rect942" transform="translate(11.035 -1.5259e-5)" x="67.911" y="206.72" width="2.2217" height="13.266"/>
   <rect id="rect943" x="73.391" y="206.72" width="2.2217" height="13.266"/>
   <rect id="rect944" transform="matrix(0 1 -1 0 .009222 -1.5259e-5)" x="212" y="-43.903" width="2.2217" height="11.785"/>
   <rect id="rect945" transform="rotate(90)" x="212" y="-69.772" width="2.2217" height="11.785"/>
   <rect id="rect946" x="57.987" y="212.57" width="2.2217" height="7.4157"/>
   <rect id="rect947" x="57.987" y="212.57" width="2.2217" height="7.4157"/>
   <rect id="rect948" x="57.987" y="212.57" width="2.2217" height="7.4157"/>
   <rect id="rect949" transform="translate(-.17213 -1.5259e-5)" x="32.299" y="212.57" width="2.2217" height="7.4157"/>
   <rect id="rect950" x="51.082" y="212.57" width="2.2217" height="7.4157"/>
   <rect id="rect951" transform="translate(0 -1.5259e-5)" x="41.691" y="212.57" width="2.2217" height="7.4157"/>
   <rect id="rect952" transform="rotate(90)" x="217.76" y="-52.641" width="2.2217" height="9.9621"/>
   <rect id="rect953" transform="rotate(90)" x="212" y="-53.304" width="2.2217" height="6.3161"/>
  </g>
  <g id="g954" transform="matrix(1.5197 0 0 1.5197 494.64 36.806)" fill="#fff" stroke-width="1pt">
   <rect id="rect955" x="32.067" y="206.72" width="32.289" height="2.2217"/>
   <rect id="rect956" x="36.881" y="217.83" width="2.2217" height="2.1576"/>
   <rect id="rect957" transform="rotate(90)" x="217.76" y="-64.44" width="2.2217" height="6.453"/>
   <rect id="rect958" x="67.911" y="206.72" width="2.2217" height="13.266"/>
   <rect id="rect959" transform="rotate(90)" x="217.76" y="-80.765" width="2.2217" height="12.229"/>
   <rect id="rect960" x="57.987" y="212.57" width="2.2217" height="7.4157"/>
   <rect id="rect961" transform="translate(11.035 -1.5259e-5)" x="67.911" y="206.72" width="2.2217" height="13.266"/>
   <rect id="rect962" x="73.391" y="206.72" width="2.2217" height="13.266"/>
   <rect id="rect963" transform="matrix(0 1 -1 0 .009222 -1.5259e-5)" x="212" y="-43.903" width="2.2217" height="11.785"/>
   <rect id="rect964" transform="rotate(90)" x="212" y="-69.772" width="2.2217" height="11.785"/>
   <rect id="rect965" x="57.987" y="212.57" width="2.2217" height="7.4157"/>
   <rect id="rect966" x="57.987" y="212.57" width="2.2217" height="7.4157"/>
   <rect id="rect967" x="57.987" y="212.57" width="2.2217" height="7.4157"/>
   <rect id="rect968" transform="translate(-.17213 -1.5259e-5)" x="32.299" y="212.57" width="2.2217" height="7.4157"/>
   <rect id="rect969" x="51.082" y="212.57" width="2.2217" height="7.4157"/>
   <rect id="rect970" transform="translate(0 -1.5259e-5)" x="41.691" y="212.57" width="2.2217" height="7.4157"/>
   <rect id="rect971" transform="rotate(90)" x="217.76" y="-52.641" width="2.2217" height="9.9621"/>
   <rect id="rect972" transform="rotate(90)" x="212" y="-53.304" width="2.2217" height="6.3161"/>
  </g>
  <g id="g992" transform="matrix(1.5197 0 0 1.5197 -232.52 36.806)" fill="#fff" stroke-width="1pt">
   <rect id="rect993" x="32.067" y="206.72" width="32.289" height="2.2217"/>
   <rect id="rect994" x="36.881" y="217.83" width="2.2217" height="2.1576"/>
   <rect id="rect995" transform="rotate(90)" x="217.76" y="-64.44" width="2.2217" height="6.453"/>
   <rect id="rect996" x="67.911" y="206.72" width="2.2217" height="13.266"/>
   <rect id="rect997" transform="rotate(90)" x="217.76" y="-80.765" width="2.2217" height="12.229"/>
   <rect id="rect998" x="57.987" y="212.57" width="2.2217" height="7.4157"/>
   <rect id="rect999" transform="translate(11.035 -1.5259e-5)" x="67.911" y="206.72" width="2.2217" height="13.266"/>
   <rect id="rect1000" x="73.391" y="206.72" width="2.2217" height="13.266"/>
   <rect id="rect1001" transform="matrix(0 1 -1 0 .009222 -1.5259e-5)" x="212" y="-43.903" width="2.2217" height="11.785"/>
   <rect id="rect1002" transform="rotate(90)" x="212" y="-69.772" width="2.2217" height="11.785"/>
   <rect id="rect1003" x="57.987" y="212.57" width="2.2217" height="7.4157"/>
   <rect id="rect1004" x="57.987" y="212.57" width="2.2217" height="7.4157"/>
   <rect id="rect1005" x="57.987" y="212.57" width="2.2217" height="7.4157"/>
   <rect id="rect1006" transform="translate(-.17213 -1.5259e-5)" x="32.299" y="212.57" width="2.2217" height="7.4157"/>
   <rect id="rect1007" x="51.082" y="212.57" width="2.2217" height="7.4157"/>
   <rect id="rect1008" transform="translate(0 -1.5259e-5)" x="41.691" y="212.57" width="2.2217" height="7.4157"/>
   <rect id="rect1009" transform="rotate(90)" x="217.76" y="-52.641" width="2.2217" height="9.9621"/>
   <rect id="rect1010" transform="rotate(90)" x="212" y="-53.304" width="2.2217" height="6.3161"/>
  </g>
  <g id="g1225" transform="matrix(1.5197 0 0 1.5197 -70.36 -170.71)" fill="#fff" stroke-width="1pt">
   <rect id="rect1226" x="32.067" y="206.72" width="32.289" height="2.2217"/>
   <rect id="rect1227" x="36.881" y="217.83" width="2.2217" height="2.1576"/>
   <rect id="rect1228" transform="rotate(90)" x="217.76" y="-64.44" width="2.2217" height="6.453"/>
   <rect id="rect1229" x="67.911" y="206.72" width="2.2217" height="13.266"/>
   <rect id="rect1230" transform="rotate(90)" x="217.76" y="-80.765" width="2.2217" height="12.229"/>
   <rect id="rect1231" x="57.987" y="212.57" width="2.2217" height="7.4157"/>
   <rect id="rect1232" transform="translate(11.035 -1.5259e-5)" x="67.911" y="206.72" width="2.2217" height="13.266"/>
   <rect id="rect1233" x="73.391" y="206.72" width="2.2217" height="13.266"/>
   <rect id="rect1234" transform="matrix(0 1 -1 0 .009222 -1.5259e-5)" x="212" y="-43.903" width="2.2217" height="11.785"/>
   <rect id="rect1235" transform="rotate(90)" x="212" y="-69.772" width="2.2217" height="11.785"/>
   <rect id="rect1236" x="57.987" y="212.57" width="2.2217" height="7.4157"/>
   <rect id="rect1237" x="57.987" y="212.57" width="2.2217" height="7.4157"/>
   <rect id="rect1238" x="57.987" y="212.57" width="2.2217" height="7.4157"/>
   <rect id="rect1239" transform="translate(-.17213 -1.5259e-5)" x="32.299" y="212.57" width="2.2217" height="7.4157"/>
   <rect id="rect1240" x="51.082" y="212.57" width="2.2217" height="7.4157"/>
   <rect id="rect1241" transform="translate(0 -1.5259e-5)" x="41.691" y="212.57" width="2.2217" height="7.4157"/>
   <rect id="rect1242" transform="rotate(90)" x="217.76" y="-52.641" width="2.2217" height="9.9621"/>
   <rect id="rect1243" transform="rotate(90)" x="212" y="-53.304" width="2.2217" height="6.3161"/>
  </g>
  <g id="g1244" transform="matrix(1.5197 0 0 1.5197 -150.96 -170.71)" fill="#fff" stroke-width="1pt">
   <rect id="rect1245" x="32.067" y="206.72" width="32.289" height="2.2217"/>
   <rect id="rect1246" x="36.881" y="217.83" width="2.2217" height="2.1576"/>
   <rect id="rect1247" transform="rotate(90)" x="217.76" y="-64.44" width="2.2217" height="6.453"/>
   <rect id="rect1248" x="67.911" y="206.72" width="2.2217" height="13.266"/>
   <rect id="rect1249" transform="rotate(90)" x="217.76" y="-80.765" width="2.2217" height="12.229"/>
   <rect id="rect1250" x="57.987" y="212.57" width="2.2217" height="7.4157"/>
   <rect id="rect1251" transform="translate(11.035 -1.5259e-5)" x="67.911" y="206.72" width="2.2217" height="13.266"/>
   <rect id="rect1252" x="73.391" y="206.72" width="2.2217" height="13.266"/>
   <rect id="rect1253" transform="matrix(0 1 -1 0 .009222 -1.5259e-5)" x="212" y="-43.903" width="2.2217" height="11.785"/>
   <rect id="rect1254" transform="rotate(90)" x="212" y="-69.772" width="2.2217" height="11.785"/>
   <rect id="rect1255" x="57.987" y="212.57" width="2.2217" height="7.4157"/>
   <rect id="rect1256" x="57.987" y="212.57" width="2.2217" height="7.4157"/>
   <rect id="rect1257" x="57.987" y="212.57" width="2.2217" height="7.4157"/>
   <rect id="rect1258" transform="translate(-.17213 -1.5259e-5)" x="32.299" y="212.57" width="2.2217" height="7.4157"/>
   <rect id="rect1259" x="51.082" y="212.57" width="2.2217" height="7.4157"/>
   <rect id="rect1260" transform="translate(0 -1.5259e-5)" x="41.691" y="212.57" width="2.2217" height="7.4157"/>
   <rect id="rect1261" transform="rotate(90)" x="217.76" y="-52.641" width="2.2217" height="9.9621"/>
   <rect id="rect1262" transform="rotate(90)" x="212" y="-53.304" width="2.2217" height="6.3161"/>
  </g>
  <g id="g1263" transform="matrix(1.5197 0 0 1.5197 9.5646 -170.71)" fill="#fff" stroke-width="1pt">
   <rect id="rect1264" x="32.067" y="206.72" width="32.289" height="2.2217"/>
   <rect id="rect1265" x="36.881" y="217.83" width="2.2217" height="2.1576"/>
   <rect id="rect1266" transform="rotate(90)" x="217.76" y="-64.44" width="2.2217" height="6.453"/>
   <rect id="rect1267" x="67.911" y="206.72" width="2.2217" height="13.266"/>
   <rect id="rect1268" transform="rotate(90)" x="217.76" y="-80.765" width="2.2217" height="12.229"/>
   <rect id="rect1269" x="57.987" y="212.57" width="2.2217" height="7.4157"/>
   <rect id="rect1270" transform="translate(11.035 -1.5259e-5)" x="67.911" y="206.72" width="2.2217" height="13.266"/>
   <rect id="rect1271" x="73.391" y="206.72" width="2.2217" height="13.266"/>
   <rect id="rect1272" transform="matrix(0 1 -1 0 .009222 -1.5259e-5)" x="212" y="-43.903" width="2.2217" height="11.785"/>
   <rect id="rect1273" transform="rotate(90)" x="212" y="-69.772" width="2.2217" height="11.785"/>
   <rect id="rect1274" x="57.987" y="212.57" width="2.2217" height="7.4157"/>
   <rect id="rect1275" x="57.987" y="212.57" width="2.2217" height="7.4157"/>
   <rect id="rect1276" x="57.987" y="212.57" width="2.2217" height="7.4157"/>
   <rect id="rect1277" transform="translate(-.17213 -1.5259e-5)" x="32.299" y="212.57" width="2.2217" height="7.4157"/>
   <rect id="rect1278" x="51.082" y="212.57" width="2.2217" height="7.4157"/>
   <rect id="rect1279" transform="translate(0 -1.5259e-5)" x="41.691" y="212.57" width="2.2217" height="7.4157"/>
   <rect id="rect1280" transform="rotate(90)" x="217.76" y="-52.641" width="2.2217" height="9.9621"/>
   <rect id="rect1281" transform="rotate(90)" x="212" y="-53.304" width="2.2217" height="6.3161"/>
  </g>
  <g id="g1282" transform="matrix(1.5197 0 0 1.5197 573.95 -170.71)" fill="#fff" stroke-width="1pt">
   <rect id="rect1283" x="32.067" y="206.72" width="32.289" height="2.2217"/>
   <rect id="rect1284" x="36.881" y="217.83" width="2.2217" height="2.1576"/>
   <rect id="rect1285" transform="rotate(90)" x="217.76" y="-64.44" width="2.2217" height="6.453"/>
   <rect id="rect1286" x="67.911" y="206.72" width="2.2217" height="13.266"/>
   <rect id="rect1287" transform="rotate(90)" x="217.76" y="-80.765" width="2.2217" height="12.229"/>
   <rect id="rect1288" x="57.987" y="212.57" width="2.2217" height="7.4157"/>
   <rect id="rect1289" transform="translate(11.035 -1.5259e-5)" x="67.911" y="206.72" width="2.2217" height="13.266"/>
   <rect id="rect1290" x="73.391" y="206.72" width="2.2217" height="13.266"/>
   <rect id="rect1291" transform="matrix(0 1 -1 0 .009222 -1.5259e-5)" x="212" y="-43.903" width="2.2217" height="11.785"/>
   <rect id="rect1292" transform="rotate(90)" x="212" y="-69.772" width="2.2217" height="11.785"/>
   <rect id="rect1293" x="57.987" y="212.57" width="2.2217" height="7.4157"/>
   <rect id="rect1294" x="57.987" y="212.57" width="2.2217" height="7.4157"/>
   <rect id="rect1295" x="57.987" y="212.57" width="2.2217" height="7.4157"/>
   <rect id="rect1296" transform="translate(-.17213 -1.5259e-5)" x="32.299" y="212.57" width="2.2217" height="7.4157"/>
   <rect id="rect1297" x="51.082" y="212.57" width="2.2217" height="7.4157"/>
   <rect id="rect1298" transform="translate(0 -1.5259e-5)" x="41.691" y="212.57" width="2.2217" height="7.4157"/>
   <rect id="rect1299" transform="rotate(90)" x="217.76" y="-52.641" width="2.2217" height="9.9621"/>
   <rect id="rect1300" transform="rotate(90)" x="212" y="-53.304" width="2.2217" height="6.3161"/>
  </g>
  <g id="g1301" transform="matrix(1.5197 0 0 1.5197 90.01 -170.71)" fill="#fff" stroke-width="1pt">
   <rect id="rect1302" x="32.067" y="206.72" width="32.289" height="2.2217"/>
   <rect id="rect1303" x="36.881" y="217.83" width="2.2217" height="2.1576"/>
   <rect id="rect1304" transform="rotate(90)" x="217.76" y="-64.44" width="2.2217" height="6.453"/>
   <rect id="rect1305" x="67.911" y="206.72" width="2.2217" height="13.266"/>
   <rect id="rect1306" transform="rotate(90)" x="217.76" y="-80.765" width="2.2217" height="12.229"/>
   <rect id="rect1307" x="57.987" y="212.57" width="2.2217" height="7.4157"/>
   <rect id="rect1308" transform="translate(11.035 -1.5259e-5)" x="67.911" y="206.72" width="2.2217" height="13.266"/>
   <rect id="rect1309" x="73.391" y="206.72" width="2.2217" height="13.266"/>
   <rect id="rect1310" transform="matrix(0 1 -1 0 .009222 -1.5259e-5)" x="212" y="-43.903" width="2.2217" height="11.785"/>
   <rect id="rect1311" transform="rotate(90)" x="212" y="-69.772" width="2.2217" height="11.785"/>
   <rect id="rect1312" x="57.987" y="212.57" width="2.2217" height="7.4157"/>
   <rect id="rect1313" x="57.987" y="212.57" width="2.2217" height="7.4157"/>
   <rect id="rect1314" x="57.987" y="212.57" width="2.2217" height="7.4157"/>
   <rect id="rect1315" transform="translate(-.17213 -1.5259e-5)" x="32.299" y="212.57" width="2.2217" height="7.4157"/>
   <rect id="rect1316" x="51.082" y="212.57" width="2.2217" height="7.4157"/>
   <rect id="rect1317" transform="translate(0 -1.5259e-5)" x="41.691" y="212.57" width="2.2217" height="7.4157"/>
   <rect id="rect1318" transform="rotate(90)" x="217.76" y="-52.641" width="2.2217" height="9.9621"/>
   <rect id="rect1319" transform="rotate(90)" x="212" y="-53.304" width="2.2217" height="6.3161"/>
  </g>
  <g id="g1320" transform="matrix(1.5197 0 0 1.5197 170.75 -170.71)" fill="#fff" stroke-width="1pt">
   <rect id="rect1321" x="32.067" y="206.72" width="32.289" height="2.2217"/>
   <rect id="rect1322" x="36.881" y="217.83" width="2.2217" height="2.1576"/>
   <rect id="rect1323" transform="rotate(90)" x="217.76" y="-64.44" width="2.2217" height="6.453"/>
   <rect id="rect1324" x="67.911" y="206.72" width="2.2217" height="13.266"/>
   <rect id="rect1325" transform="rotate(90)" x="217.76" y="-80.765" width="2.2217" height="12.229"/>
   <rect id="rect1326" x="57.987" y="212.57" width="2.2217" height="7.4157"/>
   <rect id="rect1327" transform="translate(11.035 -1.5259e-5)" x="67.911" y="206.72" width="2.2217" height="13.266"/>
   <rect id="rect1328" x="73.391" y="206.72" width="2.2217" height="13.266"/>
   <rect id="rect1329" transform="matrix(0 1 -1 0 .009222 -1.5259e-5)" x="212" y="-43.903" width="2.2217" height="11.785"/>
   <rect id="rect1330" transform="rotate(90)" x="212" y="-69.772" width="2.2217" height="11.785"/>
   <rect id="rect1331" x="57.987" y="212.57" width="2.2217" height="7.4157"/>
   <rect id="rect1332" x="57.987" y="212.57" width="2.2217" height="7.4157"/>
   <rect id="rect1333" x="57.987" y="212.57" width="2.2217" height="7.4157"/>
   <rect id="rect1334" transform="translate(-.17213 -1.5259e-5)" x="32.299" y="212.57" width="2.2217" height="7.4157"/>
   <rect id="rect1335" x="51.082" y="212.57" width="2.2217" height="7.4157"/>
   <rect id="rect1336" transform="translate(0 -1.5259e-5)" x="41.691" y="212.57" width="2.2217" height="7.4157"/>
   <rect id="rect1337" transform="rotate(90)" x="217.76" y="-52.641" width="2.2217" height="9.9621"/>
   <rect id="rect1338" transform="rotate(90)" x="212" y="-53.304" width="2.2217" height="6.3161"/>
  </g>
  <g id="g1339" transform="matrix(1.5197 0 0 1.5197 251.96 -170.71)" fill="#fff" stroke-width="1pt">
   <rect id="rect1340" x="32.067" y="206.72" width="32.289" height="2.2217"/>
   <rect id="rect1341" x="36.881" y="217.83" width="2.2217" height="2.1576"/>
   <rect id="rect1342" transform="rotate(90)" x="217.76" y="-64.44" width="2.2217" height="6.453"/>
   <rect id="rect1343" x="67.911" y="206.72" width="2.2217" height="13.266"/>
   <rect id="rect1344" transform="rotate(90)" x="217.76" y="-80.765" width="2.2217" height="12.229"/>
   <rect id="rect1345" x="57.987" y="212.57" width="2.2217" height="7.4157"/>
   <rect id="rect1346" transform="translate(11.035 -1.5259e-5)" x="67.911" y="206.72" width="2.2217" height="13.266"/>
   <rect id="rect1347" x="73.391" y="206.72" width="2.2217" height="13.266"/>
   <rect id="rect1348" transform="matrix(0 1 -1 0 .009222 -1.5259e-5)" x="212" y="-43.903" width="2.2217" height="11.785"/>
   <rect id="rect1349" transform="rotate(90)" x="212" y="-69.772" width="2.2217" height="11.785"/>
   <rect id="rect1350" x="57.987" y="212.57" width="2.2217" height="7.4157"/>
   <rect id="rect1351" x="57.987" y="212.57" width="2.2217" height="7.4157"/>
   <rect id="rect1352" x="57.987" y="212.57" width="2.2217" height="7.4157"/>
   <rect id="rect1353" transform="translate(-.17213 -1.5259e-5)" x="32.299" y="212.57" width="2.2217" height="7.4157"/>
   <rect id="rect1354" x="51.082" y="212.57" width="2.2217" height="7.4157"/>
   <rect id="rect1355" transform="translate(0 -1.5259e-5)" x="41.691" y="212.57" width="2.2217" height="7.4157"/>
   <rect id="rect1356" transform="rotate(90)" x="217.76" y="-52.641" width="2.2217" height="9.9621"/>
   <rect id="rect1357" transform="rotate(90)" x="212" y="-53.304" width="2.2217" height="6.3161"/>
  </g>
  <g id="g1358" transform="matrix(1.5197 0 0 1.5197 332.69 -170.71)" fill="#fff" stroke-width="1pt">
   <rect id="rect1359" x="32.067" y="206.72" width="32.289" height="2.2217"/>
   <rect id="rect1360" x="36.881" y="217.83" width="2.2217" height="2.1576"/>
   <rect id="rect1361" transform="rotate(90)" x="217.76" y="-64.44" width="2.2217" height="6.453"/>
   <rect id="rect1362" x="67.911" y="206.72" width="2.2217" height="13.266"/>
   <rect id="rect1363" transform="rotate(90)" x="217.76" y="-80.765" width="2.2217" height="12.229"/>
   <rect id="rect1364" x="57.987" y="212.57" width="2.2217" height="7.4157"/>
   <rect id="rect1365" transform="translate(11.035 -1.5259e-5)" x="67.911" y="206.72" width="2.2217" height="13.266"/>
   <rect id="rect1366" x="73.391" y="206.72" width="2.2217" height="13.266"/>
   <rect id="rect1367" transform="matrix(0 1 -1 0 .009222 -1.5259e-5)" x="212" y="-43.903" width="2.2217" height="11.785"/>
   <rect id="rect1368" transform="rotate(90)" x="212" y="-69.772" width="2.2217" height="11.785"/>
   <rect id="rect1369" x="57.987" y="212.57" width="2.2217" height="7.4157"/>
   <rect id="rect1370" x="57.987" y="212.57" width="2.2217" height="7.4157"/>
   <rect id="rect1371" x="57.987" y="212.57" width="2.2217" height="7.4157"/>
   <rect id="rect1372" transform="translate(-.17213 -1.5259e-5)" x="32.299" y="212.57" width="2.2217" height="7.4157"/>
   <rect id="rect1373" x="51.082" y="212.57" width="2.2217" height="7.4157"/>
   <rect id="rect1374" transform="translate(0 -1.5259e-5)" x="41.691" y="212.57" width="2.2217" height="7.4157"/>
   <rect id="rect1375" transform="rotate(90)" x="217.76" y="-52.641" width="2.2217" height="9.9621"/>
   <rect id="rect1376" transform="rotate(90)" x="212" y="-53.304" width="2.2217" height="6.3161"/>
  </g>
  <g id="g1377" transform="matrix(1.5197 0 0 1.5197 413.43 -170.71)" fill="#fff" stroke-width="1pt">
   <rect id="rect1378" x="32.067" y="206.72" width="32.289" height="2.2217"/>
   <rect id="rect1379" x="36.881" y="217.83" width="2.2217" height="2.1576"/>
   <rect id="rect1380" transform="rotate(90)" x="217.76" y="-64.44" width="2.2217" height="6.453"/>
   <rect id="rect1381" x="67.911" y="206.72" width="2.2217" height="13.266"/>
   <rect id="rect1382" transform="rotate(90)" x="217.76" y="-80.765" width="2.2217" height="12.229"/>
   <rect id="rect1383" x="57.987" y="212.57" width="2.2217" height="7.4157"/>
   <rect id="rect1384" transform="translate(11.035 -1.5259e-5)" x="67.911" y="206.72" width="2.2217" height="13.266"/>
   <rect id="rect1385" x="73.391" y="206.72" width="2.2217" height="13.266"/>
   <rect id="rect1386" transform="matrix(0 1 -1 0 .009222 -1.5259e-5)" x="212" y="-43.903" width="2.2217" height="11.785"/>
   <rect id="rect1387" transform="rotate(90)" x="212" y="-69.772" width="2.2217" height="11.785"/>
   <rect id="rect1388" x="57.987" y="212.57" width="2.2217" height="7.4157"/>
   <rect id="rect1389" x="57.987" y="212.57" width="2.2217" height="7.4157"/>
   <rect id="rect1390" x="57.987" y="212.57" width="2.2217" height="7.4157"/>
   <rect id="rect1391" transform="translate(-.17213 -1.5259e-5)" x="32.299" y="212.57" width="2.2217" height="7.4157"/>
   <rect id="rect1392" x="51.082" y="212.57" width="2.2217" height="7.4157"/>
   <rect id="rect1393" transform="translate(0 -1.5259e-5)" x="41.691" y="212.57" width="2.2217" height="7.4157"/>
   <rect id="rect1394" transform="rotate(90)" x="217.76" y="-52.641" width="2.2217" height="9.9621"/>
   <rect id="rect1395" transform="rotate(90)" x="212" y="-53.304" width="2.2217" height="6.3161"/>
  </g>
  <g id="g1396" transform="matrix(1.5197 0 0 1.5197 494.64 -170.71)" fill="#fff" stroke-width="1pt">
   <rect id="rect1397" x="32.067" y="206.72" width="32.289" height="2.2217"/>
   <rect id="rect1398" x="36.881" y="217.83" width="2.2217" height="2.1576"/>
   <rect id="rect1399" transform="rotate(90)" x="217.76" y="-64.44" width="2.2217" height="6.453"/>
   <rect id="rect1400" x="67.911" y="206.72" width="2.2217" height="13.266"/>
   <rect id="rect1401" transform="rotate(90)" x="217.76" y="-80.765" width="2.2217" height="12.229"/>
   <rect id="rect1402" x="57.987" y="212.57" width="2.2217" height="7.4157"/>
   <rect id="rect1403" transform="translate(11.035 -1.5259e-5)" x="67.911" y="206.72" width="2.2217" height="13.266"/>
   <rect id="rect1404" x="73.391" y="206.72" width="2.2217" height="13.266"/>
   <rect id="rect1405" transform="matrix(0 1 -1 0 .009222 -1.5259e-5)" x="212" y="-43.903" width="2.2217" height="11.785"/>
   <rect id="rect1406" transform="rotate(90)" x="212" y="-69.772" width="2.2217" height="11.785"/>
   <rect id="rect1407" x="57.987" y="212.57" width="2.2217" height="7.4157"/>
   <rect id="rect1408" x="57.987" y="212.57" width="2.2217" height="7.4157"/>
   <rect id="rect1409" x="57.987" y="212.57" width="2.2217" height="7.4157"/>
   <rect id="rect1410" transform="translate(-.17213 -1.5259e-5)" x="32.299" y="212.57" width="2.2217" height="7.4157"/>
   <rect id="rect1411" x="51.082" y="212.57" width="2.2217" height="7.4157"/>
   <rect id="rect1412" transform="translate(0 -1.5259e-5)" x="41.691" y="212.57" width="2.2217" height="7.4157"/>
   <rect id="rect1413" transform="rotate(90)" x="217.76" y="-52.641" width="2.2217" height="9.9621"/>
   <rect id="rect1414" transform="rotate(90)" x="212" y="-53.304" width="2.2217" height="6.3161"/>
  </g>
  <g id="g1415" transform="matrix(1.5197 0 0 1.5197 -232.52 -170.71)" fill="#fff" stroke-width="1pt">
   <rect id="rect1416" x="32.067" y="206.72" width="32.289" height="2.2217"/>
   <rect id="rect1417" x="36.881" y="217.83" width="2.2217" height="2.1576"/>
   <rect id="rect1418" transform="rotate(90)" x="217.76" y="-64.44" width="2.2217" height="6.453"/>
   <rect id="rect1419" x="67.911" y="206.72" width="2.2217" height="13.266"/>
   <rect id="rect1420" transform="rotate(90)" x="217.76" y="-80.765" width="2.2217" height="12.229"/>
   <rect id="rect1421" x="57.987" y="212.57" width="2.2217" height="7.4157"/>
   <rect id="rect1422" transform="translate(11.035 -1.5259e-5)" x="67.911" y="206.72" width="2.2217" height="13.266"/>
   <rect id="rect1423" x="73.391" y="206.72" width="2.2217" height="13.266"/>
   <rect id="rect1424" transform="matrix(0 1 -1 0 .009222 -1.5259e-5)" x="212" y="-43.903" width="2.2217" height="11.785"/>
   <rect id="rect1425" transform="rotate(90)" x="212" y="-69.772" width="2.2217" height="11.785"/>
   <rect id="rect1426" x="57.987" y="212.57" width="2.2217" height="7.4157"/>
   <rect id="rect1427" x="57.987" y="212.57" width="2.2217" height="7.4157"/>
   <rect id="rect1428" x="57.987" y="212.57" width="2.2217" height="7.4157"/>
   <rect id="rect1429" transform="translate(-.17213 -1.5259e-5)" x="32.299" y="212.57" width="2.2217" height="7.4157"/>
   <rect id="rect1430" x="51.082" y="212.57" width="2.2217" height="7.4157"/>
   <rect id="rect1431" transform="translate(0 -1.5259e-5)" x="41.691" y="212.57" width="2.2217" height="7.4157"/>
   <rect id="rect1432" transform="rotate(90)" x="217.76" y="-52.641" width="2.2217" height="9.9621"/>
   <rect id="rect1433" transform="rotate(90)" x="212" y="-53.304" width="2.2217" height="6.3161"/>
  </g>
  <g id="g1668" transform="matrix(1.0321 0 0 1.0321 -191.96 176.9)" fill="#d90000" stroke-width="1pt">
   <rect id="rect1224" x="119.3" y="157.55" width="5.8601" height="10.178"/>
   <rect id="rect1645" x="274.84" y="157.55" width="5.8601" height="10.178"/>
   <rect id="rect1646" x="-.042406" y="157.55" width="5.8601" height="10.178"/>
   <rect id="rect1647" transform="translate(39.591 -1.5259e-5)" x="39.308" y="157.55" width="5.8601" height="10.178"/>
   <rect id="rect1648" transform="translate(117.97 -1.5259e-5)" x="39.308" y="157.55" width="5.8601" height="10.178"/>
   <rect id="rect1649" transform="translate(156.75 -1.5259e-5)" x="39.308" y="157.55" width="5.8601" height="10.178"/>
   <rect id="rect1650" transform="translate(196.34 -1.5259e-5)" x="39.308" y="157.55" width="5.8601" height="10.178"/>
   <rect id="rect1651" x="313.62" y="157.55" width="5.8601" height="10.178"/>
   <rect id="rect1652" x="510.36" y="157.55" width="5.8601" height="10.178"/>
   <rect id="rect1653" transform="translate(313.9 -1.5259e-5)" x="39.308" y="157.55" width="5.8601" height="10.178"/>
   <rect id="rect1654" transform="translate(352.69 -1.5259e-5)" x="39.308" y="157.55" width="5.8601" height="10.178"/>
   <rect id="rect1655" transform="translate(391.87 -1.5259e-5)" x="39.308" y="157.55" width="5.8601" height="10.178"/>
   <rect id="rect1656" transform="translate(431.06 -1.5259e-5)" x="39.308" y="157.55" width="5.8601" height="10.178"/>
   <rect id="rect1657" x="783.46" y="157.55" width="5.8601" height="10.178"/>
   <rect id="rect1658" transform="translate(509.03 -1.5259e-5)" x="39.308" y="157.55" width="5.8601" height="10.178"/>
   <rect id="rect1659" transform="translate(548.62 -1.5259e-5)" x="39.308" y="157.55" width="5.8601" height="10.178"/>
   <rect id="rect1660" transform="translate(588.62 -1.5259e-5)" x="39.308" y="157.55" width="5.8601" height="10.178"/>
   <rect id="rect1661" transform="translate(626.19 -1.5259e-5)" x="39.308" y="157.55" width="5.8601" height="10.178"/>
   <rect id="rect1662" transform="translate(666.18 -1.5259e-5)" x="39.308" y="157.55" width="5.8601" height="10.178"/>
   <rect id="rect1663" transform="translate(705.37 -1.5259e-5)" x="39.308" y="157.55" width="5.8601" height="10.178"/>
   <rect id="rect1664" x="860.63" y="157.55" width="5.8601" height="10.178"/>
   <rect id="rect1665" transform="translate(783.75 -1.5259e-5)" x="39.308" y="157.55" width="5.8601" height="10.178"/>
   <rect id="rect1667" x="39.308" y="157.55" width="5.8601" height="10.178"/>
  </g>
  <g id="g1692" transform="matrix(1.0321 0 0 1.0321 -191.96 2.582e-6)" fill="#239e3f" stroke-width="1pt">
   <rect id="rect1693" x="119.3" y="157.55" width="5.8601" height="10.178"/>
   <rect id="rect1694" x="274.84" y="157.55" width="5.8601" height="10.178"/>
   <rect id="rect1695" x="-.042406" y="157.55" width="5.8601" height="10.178"/>
   <rect id="rect1696" transform="translate(39.591 -1.5259e-5)" x="39.308" y="157.55" width="5.8601" height="10.178"/>
   <rect id="rect1697" transform="translate(117.97 -1.5259e-5)" x="39.308" y="157.55" width="5.8601" height="10.178"/>
   <rect id="rect1698" transform="translate(156.75 -1.5259e-5)" x="39.308" y="157.55" width="5.8601" height="10.178"/>
   <rect id="rect1699" transform="translate(196.34 -1.5259e-5)" x="39.308" y="157.55" width="5.8601" height="10.178"/>
   <rect id="rect1700" x="313.62" y="157.55" width="5.8601" height="10.178"/>
   <rect id="rect1701" x="510.36" y="157.55" width="5.8601" height="10.178"/>
   <rect id="rect1702" transform="translate(313.9 -1.5259e-5)" x="39.308" y="157.55" width="5.8601" height="10.178"/>
   <rect id="rect1703" transform="translate(352.69 -1.5259e-5)" x="39.308" y="157.55" width="5.8601" height="10.178"/>
   <rect id="rect1704" transform="translate(391.87 -1.5259e-5)" x="39.308" y="157.55" width="5.8601" height="10.178"/>
   <rect id="rect1705" transform="translate(431.06 -1.5259e-5)" x="39.308" y="157.55" width="5.8601" height="10.178"/>
   <rect id="rect1706" x="783.46" y="157.55" width="5.8601" height="10.178"/>
   <rect id="rect1707" transform="translate(509.03 -1.5259e-5)" x="39.308" y="157.55" width="5.8601" height="10.178"/>
   <rect id="rect1708" transform="translate(548.62 -1.5259e-5)" x="39.308" y="157.55" width="5.8601" height="10.178"/>
   <rect id="rect1709" transform="translate(588.62 -1.5259e-5)" x="39.308" y="157.55" width="5.8601" height="10.178"/>
   <rect id="rect1710" transform="translate(626.19 -1.5259e-5)" x="39.308" y="157.55" width="5.8601" height="10.178"/>
   <rect id="rect1711" transform="translate(666.18 -1.5259e-5)" x="39.308" y="157.55" width="5.8601" height="10.178"/>
   <rect id="rect1712" transform="translate(705.37 -1.5259e-5)" x="39.308" y="157.55" width="5.8601" height="10.178"/>
   <rect id="rect1713" x="860.63" y="157.55" width="5.8601" height="10.178"/>
   <rect id="rect1714" transform="translate(783.75 -1.5259e-5)" x="39.308" y="157.55" width="5.8601" height="10.178"/>
   <rect id="rect1715" x="39.308" y="157.55" width="5.8601" height="10.178"/>
  </g>
  <g id="g1043" transform="matrix(1.0321 0 0 1.0321 -179.65 -532.01)" fill="#da0000">
   <path id="path1928" d="m445.16 706.81c8.19 10.039 33.438 65.548-15.241 101.91-22.884 17.223-8.714 18.093-8.037 20.988 36.785-19.539 48.799-46.013 48.52-69.727-0.28-23.715-12.853-44.669-25.242-53.167z"/>
   <path id="path1929" d="m450.03 704.23c18.166 9.301 57.701 56.079 15.149 108.85 26.439-5.868 60.053-83.729-15.149-108.85z"/>
   <path id="path1930" d="m394.24 704.23c-18.166 9.301-57.701 56.079-15.149 108.85-26.439-5.868-60.053-83.729 15.149-108.85z"/>
   <path id="path1931" d="m399.04 706.81c-8.19 10.039-33.438 65.548 15.241 101.91 22.884 17.223 8.714 18.093 8.037 20.988-36.785-19.539-48.799-46.013-48.52-69.727 0.28-23.715 12.853-44.669 25.242-53.167z"/>
   <path id="path1932" d="m468.8 824.65c-14.398 0.228-32.549-1.984-46.01-8.979 2.217 4.311 4.059 7.026 6.276 11.337 12.838 1.184 30.554 2.649 39.734-2.358z"/>
   <path id="path1933" d="m376.78 824.65c14.398 0.228 32.549-1.984 46.01-8.979-2.217 4.311-4.059 7.026-6.276 11.337-12.838 1.184-30.554 2.649-39.734-2.358z"/>
   <path id="path1934" d="m403.19 690.25c2.917 7.753 10.57 8.88 18.762 4.315 5.97 3.582 15.202 3.809 18.386-3.94 2.421 19.169-17.736 14.634-18.487 10.882-7.504 7.254-21.475 3.064-18.661-11.257z"/>
   <path id="path1042" d="m422.49 836.72 7.57-8.652 1.082-116.44-9.012-7.931-9.012 7.57 1.802 117.16 7.57 8.291z"/>
  </g>
 </g>
</svg>
