<?xml version="1.0" encoding="UTF-8"?>
<svg id="svg2" width="640" height="480" version="1.0" viewBox="0 0 320 240" xmlns="http://www.w3.org/2000/svg" xmlns:cc="http://creativecommons.org/ns#" xmlns:dc="http://purl.org/dc/elements/1.1/" xmlns:rdf="http://www.w3.org/1999/02/22-rdf-syntax-ns#">
 <metadata id="metadata32">
  <rdf:RDF>
   <cc:Work rdf:about="">
    <dc:format>image/svg+xml</dc:format>
    <dc:type rdf:resource="http://purl.org/dc/dcmitype/StillImage"/>
   </cc:Work>
  </rdf:RDF>
 </metadata>
 <defs id="defs30">
  <clipPath id="clipPath3033">
   <rect id="rect3035" x="25" y="-60" width="400" height="300"/>
  </clipPath>
 </defs>
 <g id="flag" transform="matrix(.8 0 0 .8 -20 48)" clip-path="url(#clipPath3033)">
  <rect id="rect4" y="-60" width="450" height="300" fill="#fff"/>
  <rect id="rect6" y="150" width="450" height="90" fill="#009543"/>
  <rect id="rect8" y="-60" width="450" height="90" fill="#00209f"/>
  <g id="g10" transform="matrix(1.137 0 0 1.137 -30.564 -88.26)">
   <path id="path1873" d="m224.57 108.91c-1.5039 0.0324-2.9712 1.6982-2.9712 1.6982l0.12957 17.796-5.6184 5.8859h4.5482l-0.0384 10.205-26.907 36.231-3.9775-1.3748-6.952 14.83s17.195 10.767 42.152 10.473c27.392-0.32574 42.274-10.969 42.274-10.969l-7.1839-14.639-3.5178 1.5298-27.251-36.043-0.0384-10.51h4.5482l-6.1901-5.8127 0.0366-17.731s-1.5405-1.601-3.0443-1.5687z" stroke="#000" stroke-width=".87955px"/>
   <path id="path2760" d="m233.95 151.52h-18.605s-6.7528-14.228-5.6582-24.175c1.1146-10.128 6.9029-14.919 14.599-15.004 9.0988-0.10138 13.868 4.4585 15.308 14.599 1.4276 10.048-5.6442 24.58-5.6442 24.58z" fill="none" stroke="#000" stroke-width="4.3977"/>
   <path id="path3649" d="m192.05 185.43c-0.30414 0.40552-2.5345 4.8662-2.5345 4.8662l3.8524-0.81104-1.3179-4.0552z" fill="#fff"/>
   <path id="path3651" d="m194.28 191.21-4.0552 1.3179 4.8662 1.9262-0.81104-3.2442z" fill="#fff"/>
   <path id="path3653" d="m196.11 185.54 2.0276 5.9814 4.9676-1.4193-1.3179-2.8386-5.6773-1.7234z" fill="#fff"/>
   <path id="path3655" d="m199.25 193.65 0.70966 2.4331 6.5897 1.6221-2.6359-5.5759-4.6635 1.5207z" fill="#fff"/>
   <path id="path3657" d="m206.55 188.58 2.3317 5.5759 4.9676-1.9262-1.6221-2.4331-5.6773-1.2166z" fill="#fff"/>
   <path id="path3659" d="m209.79 196.18 0.81103 2.129 7.7049 1.1152-3.2442-5.069-5.2717 1.8248z" fill="#fff"/>
   <path id="path3661" d="m217.19 190.2 2.8386 4.9676 7.198-2.6359-0.81103-1.9262-9.2256-0.40552z" fill="#fff"/>
   <path id="path3663" d="m221.35 196.99 1.5207 2.6359 8.9214-0.30414-3.3455-4.9676-7.0966 2.6359z" fill="#fff"/>
   <path id="path3665" d="m230.78 190.4 2.4331 4.1566 5.6773-2.7372-1.5207-2.2304-6.5897 0.81104z" fill="#fff"/>
   <path id="path3667" d="m240.1 193.54-5.6773 2.8386 1.5207 2.4331 7.6035-1.2166-3.4469-4.0552z" fill="#fff"/>
   <path id="path3669" d="m241.93 189.18 2.94 3.6497 4.7648-3.751-1.6221-1.7234-6.0828 1.8248z" fill="#fff"/>
   <path id="path3671" d="m250.65 191.11-4.5621 3.4469 1.2166 2.129 6.2855-1.6221-2.94-3.9538z" fill="#fff"/>
   <path id="path3673" d="m256.93 183.91 1.1152 1.6221-3.1428 4.6635-3.2442-4.1566 5.2717-2.129z" fill="#fff"/>
   <path id="path3675" d="m259.06 187.97 1.9262 3.8524-3.8524 1.3179-0.30414-1.8248 2.2304-3.3455z" fill="#fff"/>
  </g>
 </g>
</svg>
