<?xml version="1.0" encoding="UTF-8"?>
<svg id="svg2" width="640" height="480" version="1.1" viewBox="0 0 6.4 4.8" xmlns="http://www.w3.org/2000/svg" xmlns:cc="http://creativecommons.org/ns#" xmlns:dc="http://purl.org/dc/elements/1.1/" xmlns:rdf="http://www.w3.org/1999/02/22-rdf-syntax-ns#" xmlns:xlink="http://www.w3.org/1999/xlink">
 <metadata id="metadata28">
  <rdf:RDF>
   <cc:Work rdf:about="">
    <dc:format>image/svg+xml</dc:format>
    <dc:type rdf:resource="http://purl.org/dc/dcmitype/StillImage"/>
    <dc:title/>
   </cc:Work>
  </rdf:RDF>
 </metadata>
 <defs id="defs4">
  <polygon id="pt" transform="scale(8.844)" points="0 -0.5 0.16246 0 -0.16246 0" fill="#fff"/>
  <g id="star">
   <use id="use8" transform="matrix(-.80902 -.58779 .58779 -.80902 0 0)" width="18" height="12" xlink:href="#pt"/>
   <use id="use10" transform="matrix(.30902 -.95106 .95106 .30902 0 0)" width="18" height="12" xlink:href="#pt"/>
   <use id="use12" width="18" height="12" xlink:href="#pt"/>
   <use id="use14" transform="matrix(.30902 .95106 -.95106 .30902 0 0)" width="18" height="12" xlink:href="#pt"/>
   <use id="use16" transform="matrix(-.80902 .58779 -.58779 -.80902 0 0)" width="18" height="12" xlink:href="#pt"/>
  </g>
  <clipPath id="clipPath3013">
   <rect id="rect3015" x="1" y="-7.2" width="16" height="12"/>
  </clipPath>
 </defs>
 <g id="flag" transform="matrix(.4 0 0 .4 -.4 2.88)" clip-path="url(#clipPath3013)">
  <rect id="rect18" y="-7.2" width="18" height="6" fill="#fecb00"/>
  <rect id="rect20" y="-1.2" width="18" height="6" fill="#ea2839"/>
  <rect id="rect22" y="-3.2" width="18" height="4" fill="#34b233"/>
  <use id="use24" transform="translate(0,-7.2)" x="9" y="6.4219999" width="18" height="12" xlink:href="#star"/>
 </g>
</svg>
