<?xml version="1.0" encoding="UTF-8"?>
<svg width="1200" height="600" xmlns="http://www.w3.org/2000/svg">
 <clipPath id="c">
  <path d="M0,0V150H700V300H600zM600,0H300V350H0V300z"/>
 </clipPath>
 <rect width="1200" height="600" fill="#012169"/>
 <path d="M0,0 600,300M600,0 0,300" stroke="#fff" stroke-width="60"/>
 <path d="M0,0 600,300M600,0 0,300" clip-path="url(#c)" stroke="#c8102e" stroke-width="40"/>
 <path d="M300,0V350M0,150H700" stroke="#fff" stroke-width="100"/>
 <path d="M300,0V350M0,150H700" stroke="#c8102e" stroke-width="60"/>
 <path d="M0,300H600V0H1200V600H0z" fill="#012169"/>
 <path d="m769.47 147.53h256.88l-0.306 182.79c2.1373 73.48-43.662 119.08-127.93 139.63-59.834-14.86-128.84-45.596-128.94-137.55l0.30537-184.87z" fill="#fff"/>
 <path d="m775.15 153.04h245.49l-0.2914 175.16c2.0416 70.41-41.727 114.1-122.26 133.8-57.188-14.237-123.13-43.692-123.23-131.8l0.29189-177.15z" fill="#00a2dd" stroke="#000" stroke-width="1.8125"/>
 <path d="m1018.7 348.94c-8.9307 67.21-60.692 96.576-120.66 112.16-53.073-14.238-110.17-36.968-121.24-111.82l241.9-0.33785z" fill="#a53d08"/>
 <path d="m888.36 185.66-0.34221-22.075 17.455 0.17111 0.17111 21.904h47.743l0.17109 17.113-47.914 0.17111-0.38281 201.82-17.026 0.10728-0.2175-202.09-47.582 0.17125 0.0101-17.455z" fill="#510"/>
 <g fill="#ff9a08" stroke="#000" stroke-width=".9676">
  <path d="m849.71 357.27 43.703 45.338c15.112-16.61 4.6299-78.696-15.247-90.13-2.3824 7.3516-6.4338 16.166-10.74 19.008-9.4744 6.457-32.692 14.006-24.932 18.84 1.7699-2.4505 6.3989-4.7648 8.5773 0.68151 2.5868 8.5769-9.6666 9.1221-9.6666 9.1221s-7.7604-0.95411-9.1219-8.8509c-1.3614-7.8954 11.559-15.105 12.662-15.656 1.0891-0.40891 17.971-4.9011 20.831-19.878 3.5395-14.705 7.2153-12.525 7.8968-12.798 22.055 2.1779 36.487 41.662 37.305 69.436 0.81634 27.774-11.3 46.154-13.479 47.379-2.1779 1.2253-52.553-59.768-52.553-59.768l4.7652-2.7231z" fill-rule="evenodd"/>
  <path d="m881.57 315.06 0.27116 81.825"/>
  <path d="m876.67 316.56c0 0.13629 0.27116 74.338 0.27116 74.338"/>
  <path d="m871.36 327.31 0.27115 59.088"/>
  <path d="m867 331.53 0.27261 48.879"/>
  <path d="m862.38 333.71v41.253"/>
  <path d="m857.34 336.98v32.675"/>
  <path d="m852.98 339.57v25.051"/>
  <g fill="none" stroke="#ffdf00" stroke-linecap="round" stroke-width="1.8125">
   <path d="m849.03 362.44 45.065 51.6" stroke-width=".9676"/>
   <path d="m896.28 329.9s20.424 44.658 1.4979 81.417"/>
   <path d="m843.72 353.05s1.4977-3.9484 3.4038-2.3142"/>
   <path d="m840.18 341.61s-8.169 7.2153-3.6759 11.845"/>
  </g>
 </g>
 <g stroke="#000" stroke-width=".3987">
  <path d="m905.78 228.04c3.0254-2.595 4.595-4.1811 6.4685-3.8925 1.8735 0.28798 4.4241 0.14367 6.2976-0.43292 1.8798-0.57723 11.177-1.7304 15-0.43292 1.2975 0.14431 3.0254 0.86584 5.69 3.1007 2.6709 2.2342 6.5634 6.128 5.2659 16.942-1.2975 10.814-0.87343 15.439-1.4431 21.483-1.0064 10.67-3.3735 19.455-7.6394 18.744 5.7659 10.093 6.3419 18.744 10.089 25.665 3.7532 6.921 6.0571 21.051 4.614 36.335-1.4367 15.284-5.4748 49.599 6.633 72.669-2.019 1.4418-6.9179 0-11.247-4.614-4.3229-4.614-6.2216-4.4628-9.804-1.7304-10.956 8.3628-21.216 18.442-36.33 8.3628-3.4621-2.307-4.557-5.0742-2.019-12.112 6.3419-17.59 9.4242-41.725 8.4242-53.06v-127.03z" fill="#008021"/>
  <g fill="#ffe1cf">
   <path d="m916.17 217.23c0.79116 2.4513 1.2216 5.6229-0.076 8.5065-1.2975 2.8836-1.5823 6.3444 0.57596 10.526 3.4621-4.902 8.3673-3.8925 11.247-6.7761 2.8861-2.8842 3.4621-5.6235 5.6267-6.2008-2.1646-1.8741-5.4811-3.8925-4.7596-9.3717 0.72154-5.4792 8.3609-9.9483 1.4431-18.312-4.4684-5.3982-10.962-3.8925-13.772-1.8019-1.3228 0.9823-2.4494 2.3785-2.8798 3.3159-0.43671 0.93736 0.1076 3.0703-0.94305 4.326-0.71521 0.86457-1.5886 1.7247-2.595 2.4507-0.64558 0.469-1.0506 1.1519-0.36077 1.9469 0.27849 0.31772 0.78483 0.38545 1.3418 0.57849-0.32279 0.64875-0.68988 1.2956-1.0506 1.7646-0.34178 0.43988-0.19621 0.85951 0.21519 1.2178-0.54431 1.7298 0.50634 1.9178-0.21519 3.2159-0.6266 1.1222-1.4747 2.45 0.8671 3.7488 0.64559 0.36013 3.7153 1.0722 5.3356 0.86521z"/>
   <path d="m888.13 245.92c-4.0381 1.0095-10.526-0.72026-15.431-0.1443-2.1646 0.2557-3.8925-0.86458-3.6013-3.0273 0.28481-2.1633 0.57596-5.4792 0.13924-8.5071-0.6709-4.7184 1.5886-11.246 4.7596-18.456 3.171-7.209 4.7596-11.246 4.7596-14.634 0-2.2349 0.2152-4.7583 2.2342-6.0558 1.4937-0.95888 1.7785-1.8899 2.3102-2.6671 1.2215-1.8026 2.3735-2.2348 2.519-1.1532 0.0886 0.64305-0.14557 1.2253-0.72153 2.0906 1.2975-1.0817 3.5001-2.3437 4.0001-2.7038 0.50634-0.36013 3.0697-2.1627 3.2089-0.46836 1.0127-0.50444 1.6962-0.469 1.9494 0.0715 0.27216 0.58482 0.1076 0.82976-0.39874 1.262 0.72153-0.14431 1.5507 1.1177 0.10759 2.2348 0.75951-0.25254 1.5127 1.0095 0.18355 2.1627-1.3798 1.1905-2.9558 2.019-3.4621 2.9558-0.50634 0.93736-3.9305 3.569-5.2976 4.1456-1.3734 0.57659-1.4431 1.3678-1.4431 3.388 0 22.204-2.6646 20.4-2.6646 25.737 0 1.4418-0.29114 2.7393 1.1519 2.3064 1.4431-0.43229 3.5317-1.081 5.6963-1.081v12.544z"/>
   <path d="m888.99 293.79c6.5191-3.2583 13.988-4.4697 17.88-5.4786 3.8925-1.0095 10.095-4.0368 13.12-5.6229 3.0317-1.5867 5.4811-3.7494 7.209-4.326 1.7342-0.57659 3.671-1.7696 4.7596-3.8925 5.6204-10.958 8.6521-19.752 8.6521-27.396 0-5.0463-1.2975-10.67-6.2026-6.6324-4.6077 3.795-9.6268 11.11-10.956 16.437-2.019 8.0742-3.7469 9.8046-4.1836 11.39-0.43039 1.5867-2.0633 1.5848-4.038 2.019-8.5065 1.8747-10.526 3.1716-16.867 7.9299-6.3419 4.7583-13.266 8.94-17.88 11.535-4.614 2.5956-5.4748 2.8836-6.4875 4.9742-1.0064 2.0906-1.9431 3.6766-2.8102 4.6146-0.86711 0.93673-1.114 2.0323-0.93673 3.1716 0.14557 0.93736-0.29115 5.2628-0.36077 6.7046-0.076 1.4418 0.28482 1.8026 0.86711 1.8741 0.57596 0.0728 1.3671-0.21583 1.6583-1.9462-0.29115 1.7304 2.0886 1.1532 2.2342-0.14368-0.076 1.8741 2.4494 0.79306 2.595-0.93736 0 1.2253 1.9114 0.37786 2.0886-0.21646 0.43038-1.4418 0.79115-3.0279 1.3671-4.1811 0.84179-1.6741 1.7405-3.8425 3.3925-5.0469 1.8735-1.3696 1.0064-2.8836 4.8988-4.8305z"/>
   <path d="m935.7 411.88c0.43672 1.5861 1.2279 3.3887 1.5127 4.4703 0.29115 1.081-0.21519 1.4184-0.50001 2.0184-1.5127 3.1722-3.1393 8.2286-3.3925 10.958-0.13924 1.5861-1.2215 3.1001-1.7279 4.0374-0.55698 1.0336-0.34178 1.831 0.93672 2.8114 0.61394 0.46837 2.595-0.1443 2.8102-1.1532 0.72153 0.72027 2.019 0.43229 2.595-0.64938 0.65192 0.64938 1.7342 0.21646 2.4558-0.86457 0.64558 0.43229 1.5823-0.43292 1.9431-1.0102 1.0127 0.50508 2.095-0.10759 2.1266-2.0899 6e-3 -0.39811 0.25317-1.0817 0.54431-1.55 0.28482-0.469 0.39242-1.3696 0.36077-2.1633-0.038-0.79306 0.46836-2.3785 1.1519-3.4963 0.68356-1.1177 1.8735-3.1001 1.3671-4.9741-0.46837-1.7462-1.2216-1.5861-1.8735-4.109-1.5823-1.6589-3.7469-3.9659-5.9811-4.1102-2.2342-0.14368-3.5317 1.3703-4.3292 1.8747z"/>
   <path d="m894.68 424.28c2.019 2.0184 6.5634 2.0906 9.7344-1.2981-1.1519-0.50444-3.6773-1.6583-4.8292-2.595-1.5886 1.5861-3.3925 3.388-4.9052 3.8931z"/>
  </g>
  <path d="m915.09 195.03c0.79116-5.1185 4.4178-4.9976 6.7027-4.4697 0.93672 0.21646 3.2469 0.43229 5.4052-0.14431 4.2786-1.1399 7.5001 0.36077 7.0698 4.4704 1.1519 0.86457 2.3735 2.883 2.1583 4.614-0.2152 1.7298 0.14557 2.4507 1.7342 2.6665 1.5823 0.21709 4.9748 2.1633 2.7342 4.9026 2.1646 1.2981 3.8229 4.614 2.6709 6.8489-1.1519 2.2348-4.614 2.5956-6.0571 0.57659-1.5823 0.7209-4.1836 0.86521-5.7659-0.79242-1.0823 1.2969-3.8229 1.1532-4.3292 0-0.50001-1.1538-1.3545-1.7709-2.3735-2.0912-1.1582-0.36014-1.2279-3.5324 0.50001-3.8931-0.2152-0.93736-0.13925-2.0184 0.29114-2.5228s0.0696-1.4418-0.93673-2.2355c-1.0127-0.79305-1.8734-3.821-0.8671-5.4786-1.7279 0.5766-5.5507-1.0817-6.3419-2.2348-0.79748-1.1538-1.8734-1.2253-2.595-0.21646z" fill="#ea0"/>
  <g fill="none">
   <path d="m916.17 217.23c2.8102-0.36077 3.7469-2.0906 5.8356-1.9469"/>
   <path d="m910.18 209.4c0.18355 0.16202 0.41773 0.2943 0.68356 0.44051 0.56963 0.3076 1.1899 0.34305 1.7659 0.41457"/>
   <path d="m911.02 206.42c0.39242 0.13544 0.81014 0.33292 1.1836 0.719"/>
   <path d="m917.54 195.03c-1.6583-1.5861 2.8102-4.8298 7.5002-0.21646 0.87343 0.86141 3.095 0.86584 3.7469 0.64875"/>
   <path d="m924.03 197.48c2.1646-0.50507 5.4052-0.50507 6.3419 1.9462 0.94306 2.4513 2.8165 0.86521 4.3292 3.7494 1.5127 2.8836 3.8925 6.1273 6.1963 3.8925"/>
   <path d="m931.74 213.7c-0.65191-0.86521-0.93673-2.7399-0.50634-4.0381-0.86711-1.0089-0.50634-3.0994 0-4.1089"/>
   <path d="m925.54 207.71c0.076 0.86521 1.2279 2.4513 3.0317 2.7393"/>
   <path d="m937.51 214.49c-1.0064-1.2975-0.86711-2.4507-0.64559-4.0374"/>
   <path d="m926.98 200.14c-0.0696 1.2975 0.72154 3.0279 2.0886 3.6045 0.29115 0.72027 1.7342 2.7393 4.614 2.4513"/>
   <path d="m934.27 194.88c-1.5823-1.2279-3.7279-2.7406-6.5634-3.1146"/>
   <path d="m916.67 236.26c-2.4494 3.3165-4.038 7.9299-2.8798 14.419 1.1519 6.4887 3.0254 16.005-1.7342 20.33"/>
   <path d="m935.42 283.56c-3.3165-0.72027-8.0761-0.72027-10.671 1.1538s-6.9242 2.0184-9.804 0.57659"/>
   <path d="m928.42 283.34c-2.8861 0.50444-4.2532 2.5228-4.2532 7.8578 0 5.3349-1.1519 13.12-0.14557 20.762"/>
   <path d="m923.16 285.57c-1.8734 0.50444-3.8165 0.57596-3.4558 5.6229"/>
   <path d="m913.43 291.34c0.0696-3.1001 1.1519-5.9837 3.171-5.4792"/>
   <path d="m934.19 291.92c0.14558-6.8489-1.3671-8.7951-3.3861-8.723 2.7406 0.0721 4.6077 0.40697 5.7659 11.607 0.8671 8.3628 2.614 11.323 4.614 17.88 5.19 17.014 2.595 43.255 5.19 52.483"/>
   <path d="m930.23 293.94c5.4748 15.861 8.3609 33.451-0.57596 61.711 6.0508 16.726 12.108 28.837 13.26 35.758"/>
   <path d="m912.92 331.42c1.0064-3.6039-2.595-4.0368 0.57596-16.725 1.3734-5.4963 1.5886-8.7951 0.72154-10.526"/>
   <path d="m914.22 311.67c-1.2975 5.6235 4.1836 16.149 1.4431 23.79"/>
   <path d="m908.89 336.9c0 4.902 1.1519 11.246 0.8671 16.149-0.29114 4.902 1.7089 7.1736 4.0381 11.823 8.3609 16.726 14.051 28.659 13.26 44.409-0.13924 2.8836 0.86711 8.9394-2.1583 10.669"/>
   <path d="m909.1 424.21c0.86711 0.0721 1.8038-0.36014 2.8861-2.9558s4.5444-18.167 3.1013-28.837"/>
   <path d="m916.82 404.53c0.43039 3.3159 0.43039 10.093-1.7279 15.428"/>
   <path d="m922.3 394.58c1.2975 7.0653 1.1519 13.41 0.14557 17.879"/>
   <path d="m919.41 412.46c0.14558 2.8836 1.4431 10.093-0.72153 10.67"/>
   <path d="m930.23 379.01c5.3292 8.3628 9.5128 28.982 13.981 33.306"/>
   <path d="m934.84 409c-0.14558-2.307-0.29115-5.4786-1.5886-6.921"/>
   <path d="m877.24 308.07c0.0696-1.5867-0.2152-3.1007 1.5127-5.5514"/>
   <path d="m874.64 309c0.21519-5.5514 0.13924-6.0564 1.7279-7.5704"/>
   <path d="m872.41 309.15c0.0696-3.9646-0.43672-5.3349 1.1519-7.8584"/>
   <path d="m892.3 190.2c-0.61393 0.39621-4.2153 3.1355-5.728 4.2893"/>
   <path d="m893.85 191.53c-0.68356 0.10759-2.6646 1.7304-6.1963 4.4697"/>
   <path d="m893.96 193.76c-1.1139 0.50444-3.2406 2.5596-5.19 3.9292"/>
   <path d="m885.1 193.37c-0.53798 0.39621-1.5823 1.55-2.0886 1.9462"/>
   <path d="m935.34 435.02c-0.3228-0.36076-0.3228-1.6228 0.25317-3.0279"/>
   <path d="m937.94 434.37c-0.39241-0.39621 0-2.1266 0.39875-3.2444"/>
   <path d="m940.39 433.51c-0.46837-0.21646-0.61394-1.226 0.0696-2.5956"/>
   <path d="m942.34 432.5c-0.32279-0.10759-0.46836-0.64874 0.1076-2.2342"/>
  </g>
  <g stroke="none">
   <path d="m913.97 199.57c1.0443 1.3696 2.1266 1.2247 2.3165 2.1076 0.18988 0.88419 0.32912 0.94685 0.53165 1.2089 0.20254 0.2614-0.49368 0.20887-0.83545 0.0677-0.33545-0.14114-1.1836-0.12658-1.7026-0.11899-0.51267 8e-3 -1.1266-0.59874-0.74052-0.67026 0.37975-0.0709 0.32912-0.19051 0.27216-0.4595-0.057-0.26836 0.21519-0.69306 0.37342-0.77091 0.16456-0.0779 0.0506-0.0633-0.0949-0.42342-0.1519-0.36077-0.34178-1.2361-0.12025-0.94116z"/>
   <path d="m914.6 198.31c1.1709 0.13734 3.1899 0.76963 4.2849 1.9817 0.86077 0.95318 0.15823 0.70065-0.27849 0.73609-0.43672 0.0367-1.2912-0.27279-1.7216-0.81457-0.42406-0.54115-1.6962-1.2272-2.3735-1.4057-0.4114-0.10633-0.79748-0.60191 0.0886-0.49747z"/>
  </g>
 </g>
</svg>
