<?xml version="1.0" encoding="UTF-8"?>
<!-- Created with Sodipodi ("http://www.sodipodi.com/") -->
<svg id="svg378" width="640" height="480" version="1" xmlns="http://www.w3.org/2000/svg" xmlns:cc="http://creativecommons.org/ns#" xmlns:dc="http://purl.org/dc/elements/1.1/" xmlns:rdf="http://www.w3.org/1999/02/22-rdf-syntax-ns#">
 <metadata id="metadata3676">
  <rdf:RDF>
   <cc:Work rdf:about="">
    <dc:format>image/svg+xml</dc:format>
    <dc:type rdf:resource="http://purl.org/dc/dcmitype/StillImage"/>
   </cc:Work>
  </rdf:RDF>
 </metadata>
 <defs id="defs380">
  <clipPath id="clipPath8442">
   <rect id="rect8444" x="-52.334" y="-1.8825e-6" width="682.67" height="512" fill-opacity=".67"/>
  </clipPath>
 </defs>
 <g id="flag" transform="matrix(.9375 0 0 .9375 49.063 1.7649e-6)" clip-path="url(#clipPath8442)" fill-rule="evenodd" stroke-width="1pt">
  <rect id="rect171" x="-95" y="1.6585e-5" width="768" height="512" fill="#0c590b"/>
  <rect id="rect403" x="-95" y="-7.5494e-7" width="192.52" height="512" fill="#fff"/>
  <g id="g6428" transform="matrix(.78618 0 0 .78618 1.1148 55.129)" fill="#fff">
   <path id="path273" d="m512.08 216.58-39.641-8.3395-20.846 34.733-4.3191-40.278-39.476-9.0939 36.972-16.554-3.5504-40.353 27.169 30.047 37.281-15.846-20.18 35.124 26.591 30.56z"/>
   <path id="path278" d="m527.03 319.21c-35.19 77.54-127.55 111.41-205.31 75.39-77.77-36.03-111.65-128.38-75.62-206.15 18.376-39.665 48.448-66.923 90.898-81.8-4.8826 4.129-9.7139 8.4119-15.008 13.875-54.836 56.591-53.411 147.03 3.179 201.86 56.591 54.836 147.03 53.412 201.86-3.179z"/>
  </g>
 </g>
</svg>
