<?xml version="1.0" encoding="UTF-8"?>
<!-- Created with Sodipodi ("http://www.sodipodi.com/") -->
<svg id="svg378" width="640" height="480" version="1" xmlns="http://www.w3.org/2000/svg" xmlns:cc="http://creativecommons.org/ns#" xmlns:dc="http://purl.org/dc/elements/1.1/" xmlns:rdf="http://www.w3.org/1999/02/22-rdf-syntax-ns#">
 <metadata id="metadata4320">
  <rdf:RDF>
   <cc:Work rdf:about="">
    <dc:format>image/svg+xml</dc:format>
    <dc:type rdf:resource="http://purl.org/dc/dcmitype/StillImage"/>
   </cc:Work>
  </rdf:RDF>
 </metadata>
 <defs id="defs380">
  <clipPath id="clipPath3030">
   <rect id="rect3032" x="-27.334" y="2.4116e-6" width="682.67" height="512" fill-opacity=".67"/>
  </clipPath>
 </defs>
 <g id="flag" transform="matrix(.9375 0 0 .9375 25.626 -2.2609e-6)" clip-path="url(#clipPath3030)" fill-rule="evenodd" stroke-width="1pt">
  <rect id="rect171" x="-70" y="2.4116e-6" width="768" height="512" fill="#660057"/>
  <path id="path193" d="m86.533 511.76-156.53 0.24-3e-3 -512 155.8 0.081472 100.53 32.327-99.795 31.51 99.791 32.489-99.791 31.511 99.791 32.489-99.791 31.511 99.791 32.489-99.791 31.511 99.791 32.49-99.791 31.511 99.791 32.49-99.791 31.511 99.791 32.489-99.791 31.511 99.791 32.489-99.791 31.511" fill="#fff"/>
 </g>
</svg>
