<?xml version="1.0" encoding="UTF-8"?>
<svg width="675" height="450" xmlns="http://www.w3.org/2000/svg">
 <path d="m0 0h675v450h-675z" fill="#012a87"/>
 <path d="m0 0h675v225h-675z" fill="#dc171d"/>
 <path d="m0 0v450l300-225z" fill="#fff"/>
 <g transform="matrix(3.7795 0 0 3.7795 565.39 -184.83)">
  <path d="m-109.49 93.842 0.0243-0.92172s-0.49494-0.78835 0.0795-1.6354c0 0-1.2203-0.64557-0.93633-1.6565 0 0-1.1035-0.28214-1.0223-1.4959 0 0-1.1911-0.08258-1.3144-1.0966 0 0-1.1911 0.19615-1.7152-0.79192 0 0-1.1619 0.22714-1.4897-0.58733 0 0-1.1294 0.39117-1.7996-0.56623 0 0-1.1927 0.48187-1.6925-0.42184-0.49332 0.90062-1.686 0.42184-1.686 0.42184-0.66208 0.954-1.7996 0.55812-1.7996 0.55812-0.31643 0.81772-1.4751 0.58571-1.4751 0.58571-0.52252 0.98823-1.712 0.79176-1.712 0.79176-0.11684 1.011-1.3063 1.0935-1.3063 1.0935 0.0941 1.2168-1.0077 1.4928-1.0077 1.4928 0.29047 1.0108-0.92821 1.6547-0.92821 1.6547 0.58905 0.85195 0.099 1.634 0.099 1.634l-0.0276 0.85 19.713 0.09102h-3e-3z" fill="#f9d90f" stroke="#000" stroke-width=".10583"/>
  <g transform="matrix(.49469 0 0 .49443 -98.342 125.39)" stroke-width="2.022">
   <path d="m-42.413-75.046c1.0677 1.0787 0.06951 1.668-0.91539 1.1144-2.4347-1.8434-5.2801-2.8656-9.1937-1.7512-5.6231 0.02056-11.597-0.31807-14.328 2.6666-0.19451 0.57585-1.7194 2.7453 4.179-0.4378-0.36773 2.2012 2.3761 0.40186 4.4974-0.59699-1.4615 1.5285 2.2375 1.7792 4.577 0.2786-1.15 1.5434 0.86994 1.5019 2.786 1.5124 2.8025 0.08773 1.2544 2.5262-3.5422 2.6268-0.34974-0.02429-1.6945 0.60673 0.1194 1.0746 0.84009 0.04174 0.1567 1.2138 3.0646-0.2786-0.18065 0.87341 1.0654 0.70423 2.8258 0.1592 0.99837 0.78492 1.8087-0.02873 2.6666-0.4378 3.674 1.4368 8.5254 2.8754 9.8305-2.1094 3.0663-0.35338 5.6042-0.80363 4.2303-1.9711 3.9945 1.6293 4.2257 1.0007 4.1651 0.197 1.9157 0.72418 4.1437 1.7047 3.2364 0.11257 1.8417 0.47076 3.8588 0.63455 5.4315 1.576 1.5935 0.82564 1.0779-0.61696 0.70356-1.2664-0.81612-1.3065-1.8481-1.6919-4.1753-1.7396-1.9733-0.04049-11.221-2.6199-16.031 0.16366h0.02814s-1.9981-1.8011-1.9981-1.8011c0.44029-0.01177 0.75812-0.23346 1.0131-0.56285 1.8762 0.09452 3.7523-0.08524 5.6285-0.59099 0.85481-0.26689 1.3422 0.24215 1.3227 0.61914 0.78192-1.3761-0.30064-1.661-1.0976-1.6041-3.1738 0.17992-5.079 0.01386-6.6135-0.25328-3.0421-1.5184-6.7036 0.81108-3.3208 2.7298z" fill="#bc715f" stroke="#000" stroke-width=".214"/>
   <path d="m-41.698-77.742c-0.63661 0.09486-1.2937 0.17121-1.5478 0.6121 0.01868-0.72556 1.0986-0.77565 1.5478-0.6121z"/>
   <ellipse cx="-42.036" cy="-77.474" rx=".27439" ry=".28143"/>
  </g>
  <g stroke="#000">
   <path d="m-136.21 91.441c0.62152 3.5272 1.3114 7.1423 1.6506 10.835 0.73834 5.4691-2.5884 10.061-1.2237 15.464 0.81462 2.5925 3.6657 4.0995 6.2751 4.3982 3.4616 0.65421 7.6463 2e-3 10.173 2.5911 2.5268-2.5895 6.7114-1.9368 10.173-2.5911 2.6094-0.29869 5.4604-1.8057 6.2751-4.3982 1.3647-5.4028-1.962-9.9945-1.2237-15.464 0.33916-3.6927 1.029-7.3078 1.6506-10.835-6.0932 3.308-12.114-0.99546-16.875 1.756-4.7611-2.7514-10.782 1.552-16.875-1.756z" fill="#dc171d" stroke-width=".10583"/>
   <path d="m-123.23 94.289c1.1015 0.02248 2.0473 0.20528 2.875 0.68359l1.0254 0.5918 1.0254-0.5918c1.6553-0.95662 3.7823-0.72928 6.6856-0.40625 1.9559 0.21763 4.2458 0.37565 6.6328-0.10742-0.43268 2.4796-0.90608 4.9355-1.1504 7.5625-0.42794 3.2059 0.32007 6.0019 0.8789 8.4648 0.55285 2.4366 0.91563 4.514 0.39454 6.668-0.49271 1.4888-2.5394 2.7178-4.5274 2.9453l-0.0742 0.01-0.0723 0.0137c-1.4604 0.276-3.3463 0.28463-5.332 0.55273-1.477 0.19942-3.026 0.7564-4.4609 1.6621-1.4349-0.90559-2.9839-1.4626-4.4609-1.6621-1.9857-0.26815-3.8696-0.27672-5.3301-0.55273l-0.0742-0.0137-0.0742-0.01c-1.9868-0.22743-4.0313-1.4556-4.5254-2.9434-0.5218-2.1546-0.15849-4.2326 0.39453-6.6699 0.55883-2.463 1.3068-5.259 0.8789-8.4648-0.24431-2.6269-0.71773-5.0829-1.1504-7.5625 2.3864 0.48257 4.6755 0.32499 6.6309 0.10742 1.4516-0.16152 2.7091-0.29982 3.8106-0.27734z" fill="#62afe1" stroke-width=".106"/>
   <g transform="translate(-32.179 165.39)" stroke-width=".23812">
    <g fill="#fff" stroke-width=".23812">
     <g stroke-linecap="round">
      <path d="m-90.037-62.937-6.158 4.2203v5.081h18.029v-5.081l-6.158-4.2203z"/>
      <path d="m-97.658-54.477v0.97134h0.593v4.99h19.768v-4.99h0.593v-0.97134z"/>
      <path d="m-87.181-68.44-2.8561 2.78v2.723h5.7129v-2.723z"/>
      <path d="m-95.305-58.028h1.8064v2.8606h-1.8064z"/>
      <path d="m-90.177-58.028h1.8064v2.8606h-1.8064z"/>
      <path d="m-79.057-58.028h-1.8064v2.8606h1.8064z"/>
      <path d="m-84.184-58.028h-1.8064v2.8606h1.8064z"/>
      <path d="m-95.305-53.053h1.8064v2.8606h-1.8064z"/>
      <path d="m-79.057-53.053h-1.8064v2.8606h1.8064z"/>
      <path d="m-85.765-53.215h-2.8318v4.699h2.8318z"/>
      <path d="m-90.243-54.477h-1.2699v5.9614h1.2699z"/>
      <path d="m-84.119-54.477h1.2705v5.9614h-1.2705z"/>
      <path d="m-82.377-54.273v-1.4724h-9.6086v1.4724z"/>
     </g>
     <path d="m-90.037-65.66h5.7129"/>
     <path d="m-96.195-58.717h18.029"/>
     <g stroke-linecap="round">
      <path d="m-98.111-49.139h21.86v1.5448h-21.86z"/>
      <path d="m-86.091-65.071h-2.18v1.544h2.18z"/>
     </g>
    </g>
    <g fill="none">
     <g stroke-width=".26458">
      <path d="m-91.299-55.745v1.4724"/>
      <path d="m-83.063-55.745v1.4724"/>
      <path d="m-83.749-55.745v1.4724"/>
      <path d="m-84.436-55.745v1.4724"/>
      <path d="m-85.122-55.745v1.4724"/>
      <path d="m-85.808-55.745v1.4724"/>
      <path d="m-86.495-55.745v1.4724"/>
      <path d="m-87.181-55.745v1.4724"/>
      <path d="m-87.867-55.745v1.4724"/>
      <path d="m-88.553-55.745v1.4724"/>
      <path d="m-89.24-55.745v1.4724"/>
      <path d="m-89.926-55.745v1.4724"/>
      <path d="m-90.612-55.745v1.4724"/>
     </g>
     <path d="m-82.377-55.645v1.372" stroke-width=".23812"/>
    </g>
   </g>
   <g transform="matrix(.46651 0 0 .46641 -114.37 136.44)" fill="#008830" stroke-width=".25525">
    <path d="m-30.543-85.287c2.9087 1.8564 4.2843 3.5731 4.2912 5.1649-3.62-0.1924-6.8934-1.8966-4.2912-5.1649z"/>
    <path d="m-28.2-83.598c2.8012 1.5939 4.3796 3.3293 4.8663 5.1909-2.8456 0.49517-5.8815-0.848-4.8663-5.1909z"/>
    <path d="m-31.821-80.859c0.37718 3.2008-0.08455 5.5007-1.2952 6.9964-2.0858-1.998-2.8041-5.2392 1.2952-6.9964z"/>
    <path d="m-31.818-80.849c2.6313 1.861 4.0319 3.7428 4.3336 5.6433-2.8805 0.21364-5.77-1.4209-4.3336-5.6433z"/>
    <path d="m-30.07-83.411 1.2125 0.75727 1.3012-0.12839 0.54588 0.89923s-0.14637 1.8478-0.1473 2.0164c-0.0011 0.16864 0.40202 1.2022 0.40202 1.2022l-0.88567 0.64376-2.3722 0.97197-2.2187-1.8023-1.3986 0.14486-0.61323-1.7377 0.6892-1.4816 1.7315-1.1242z"/>
    <path d="m-32.347-82.492c-1.14 3.0145-2.6096 4.843-4.3732 5.6127-0.93061-2.7343-0.07465-5.9419 4.3732-5.6127z"/>
    <path d="m-32.353-82.272c-3.1622-0.62258-5.2097-1.7674-6.2621-3.3784 2.5414-1.3726 5.8466-1.0622 6.2621 3.3784z"/>
    <path d="m-26.306-82.164c3.2103 0.28489 5.496-0.24286 6.9562-1.496-2.0572-2.0274-5.3177-2.6521-6.9562 1.496z"/>
    <path d="m-26.296-82.161c1.936 2.5767 3.8573 3.9225 5.7657 4.1694 0.13063-2.8854-1.5864-5.7267-5.7657-4.1694z"/>
    <path d="m-27.305-80.586c2.4128 2.1368 3.5998 4.1601 3.6925 6.0821-2.8866-0.10168-5.5807-2.0415-3.6925-6.0821z"/>
    <path d="m-28.299-77.045c1.6511 2.7679 2.1685 5.0559 1.674 6.9155-2.7198-0.97235-4.6987-3.6379-1.674-6.9155z"/>
    <path d="m-29.461-77.224c0.3656 3.2021-0.10444 5.5003-1.3205 6.9916-2.0786-2.0055-2.7851-5.2493 1.3205-6.9916z"/>
   </g>
   <g fill="#f9d90f">
    <g transform="matrix(.45532 0 0 .45524 -114.81 135.45)" stroke-width=".26152">
     <path d="m-31.377936-80.613179c-.237667-.168605-.416623-.461999-.458433-.751591-.03569-.247219-.0155-.406098.09589-.754568.05644-.17658.10123-.325146.09953-.330152-.0016-.005-.0458-.01797-.09805-.02865-.09098-.01873-.10211-.01291-.265734.138218-.559459.516811-1.069983.764514-1.419421.688689-.405153-.08791-.56021-.64965-.334843-1.213059.191339-.478718.550503-.771649 1.009224-.823565.169791-.01921.24134-.01241.439314.04174.130064.03559.231709.05417.225862.04132-.0059-.01286-.104728-.08305-.219737-.15599-.565671-.358746-.900141-.773668-.922602-1.144514-.0163-.269348.160004-.52779.46182-.676933.507272-.250677 1.142291-.07208 1.437563.404312.141764.228719.17852.41062.178088.881298-.000251.273032.01106.429482.03167.438124.01765.0073.06423.04986.103535.0944l.07147.08095.280215-.229696c.285458-.233997.492117-.376798.723963-.500253.320717-.17077.698619-.219109.887862-.113567.414706.231283.413004.985256-.0034 1.501497-.337812.418812-.851231.566449-1.32011.379601-.105206-.04192-.254116-.09317-.330917-.113866l-.139628-.03764.216045.274722c.291375.370515.45511.635733.567936.919949.212942.5364.104598.950039-.295301 1.127455-.307906.136605-.711338.08203-1.021811-.138231z"/>
     <path transform="matrix(.92896 .37019 -.37019 .92896 0 0)" d="m-59.336-65.64a0.64891 0.72938 0 0 1-0.64891 0.72938 0.64891 0.72938 0 0 1-0.64892-0.72938 0.64891 0.72938 0 0 1 0.64892-0.72938 0.64891 0.72938 0 0 1 0.64891 0.72938z"/>
    </g>
    <g transform="matrix(.46651 0 0 .46641 -114.37 136.34)">
     <path d="m-28.65746-84.002634c.0022.247976.04399.404014.198375.741076.07825.170789.141523.314706.140637.319811-.000891.0051-.04025.02135-.0876.03597-.0824.02559-.09365.02071-.268481-.116596-.597766-.469464-1.111001-.675771-1.426952-.573592-.366331.118466-.430466.687635-.138503 1.229103.247949.460078.626093.722938 1.062666.739035.161595.006.227547-.0063.404935-.0753.116538-.04534.208942-.07161.205323-.05841-.0037.01323-.086.09046-.183079.171681-.477473.399503-.730586.836886-.698181 1.206469.02354.268431.225643.511204.52949.635833.510622.209505 1.078909-.01665 1.286503-.511985.09966-.237813.10785-.421083.03965-.887927-.03957-.270806-.05151-.426866-.03347-.43703.01549-.0086.0529-.05442.08325-.101616l.05519-.08581.2952.20622c.300729.210079.514612.335777.749267.44034.324598.144645.68506.163431.846883.04414.354614-.261422.24443-1.009174-.219425-1.489112-.376318-.389363-.877845-.496186-1.289536-.274665-.09239.04967-.224284.112033-.293166.138449l-.125203.04809.162527-.28918c.219195-.390005.334158-.665716.398765-.956349.121931-.548501-.03899-.950436-.438618-1.095564-.307697-.111738-.677215-.02647-.90556.187567s-.353489.51887-.350887.809352z" stroke-width=".25511"/>
     <path d="m-28.622-82.545a0.63537 0.73166 32.565 0 1 0.89995-0.40738 0.63537 0.73166 32.565 0 1 0.27157 0.91018 0.63537 0.73166 32.565 0 1-0.89995 0.40738 0.63537 0.73166 32.565 0 1-0.27157-0.91018z" stroke-width=".25525"/>
    </g>
    <g transform="matrix(.51323 .13752 -.13745 .513 -123.8 144.42)" stroke-width=".22413">
     <path d="m-31.602948-77.281286c-.119766-.227603-.15825-.390665-.182769-.774433-.01243-.194463-.02529-.357026-.02859-.361254-.0033-.0042-.04726.000265-.09769.01019-.08785.01712-.09572.02711-.187989.238463-.315476.722633-.682985 1.163339-1.021789 1.225296-.392827.07184-.730964-.416541-.730202-1.054642.000529-.542123.216858-.968089.607758-1.197372.14469-.08487.210958-.106079.40689-.130244.128725-.01588.226039-.03728.216252-.04756-.0098-.01029-.122992-.04036-.251564-.06684-.632388-.130244-1.078428-.405363-1.230349-.758883-.110342-.256765-.04491-.577863.171394-.841044.363551-.442344.993757-.515075 1.426676-.164651.207849.168244.30534.331626.472334.791581.09687.266814.162602.415237.184073.415655.01836.000264.07505.02371.125961.0519l.09257.05125.168378-.333462c.171532-.339704.305175-.559647.468175-.770493.225475-.291666.545528-.485995.751943-.456563.452337.0645.718947.801685.530942 1.468068-.152527.540623-.558202.884703-1.04308.884703-.108794 0-.259908.0079-.335807.01759l-.137993.0176.290499.184267c.391787.248512.632222.443854.833985.677576.380783.441095.431197.887334.137414 1.216319-.226197.253302-.605631.357032-.919359.273786-.313729-.08325-.577768-.300185-.718063-.566803z"/>
     <path d="m-31.259-79.217a0.62338 0.76699 0 0 1-0.62338 0.76699 0.62338 0.76699 0 0 1-0.62338-0.76699 0.62338 0.76699 0 0 1 0.62338-0.76699 0.62338 0.76699 0 0 1 0.62338 0.76699z"/>
    </g>
    <g transform="matrix(.49776 -.14705 -.147 -.49761 -124.72 56.834)" stroke-width=".22943">
     <path d="m-28.18184-76.45808c-.119767-.227602-.15825-.390665-.182769-.774433-.01244-.194463-.02529-.357026-.02859-.361254-.0033-.0042-.04726.000265-.09769.01019-.08786.01712-.09572.02711-.187989.238463-.315476.722633-.682985 1.163339-1.021789 1.225296-.392827.07184-.730965-.416541-.730203-1.054642.000529-.542123.216858-.968089.607759-1.197372.14469-.08487.210957-.106079.406889-.130244.128725-.01588.226039-.03728.216252-.04756-.0098-.01029-.122992-.04036-.251563-.06684-.632389-.130244-1.078429-.405363-1.23035-.758883-.110342-.256765-.04491-.577863.171395-.841044.36355-.442344.993756-.515075 1.426675-.164651.207849.168244.30534.331626.472335.791581.09687.266814.162602.415237.184073.415655.01836.000264.07505.02371.12596.0519l.09257.05125.168378-.333462c.171532-.339704.305176-.559647.468175-.770493.225475-.291666.545529-.485995.751943-.456562.452337.0645.718947.801684.530942 1.468067-.152527.540623-.558202.884703-1.04308.884703-.108794 0-.259908.0079-.335806.0176l-.137994.01759.2905.184267c.391787.248512.632222.443854.833985.677576.380783.441095.431197.887334.137414 1.216319-.226198.253302-.605631.357032-.91936.273786-.313729-.08325-.577767-.300185-.718062-.566803z"/>
     <path transform="matrix(.25875 .96594 -.96591 .25888 0 0)" d="m-82.333 7.2068a0.69 0.76671 0 0 1-0.69 0.76671 0.69 0.76671 0 0 1-0.69-0.76671 0.69 0.76671 0 0 1 0.69-0.76671 0.69 0.76671 0 0 1 0.69 0.76671z"/>
    </g>
   </g>
   <path d="m-107.37211 102.75788h-.75662v-.53768h-.64454v-.61448h-.73794l-.00056-3.89937-.84045-1.470537-.84045 1.470537v3.89937h-.73794v.61448h-.64453v.53768h-.75663v.79371l5.95966.017z" fill="#fff" stroke-width=".21167"/>
  </g>
  <g transform="translate(-32.212 165.39)">
   <path d="m-87.081-38.151c3.028 0.0097 6.7523-0.60842 8.4967-1.5103l3.8313-0.33926 0.07627 4.6744c-3.2455 1.7894-10.739 2.1739-12.388 2.1609-1.6503 0.01298-9.2367-0.37787-12.497-2.1739l0.04219-4.6777 3.8394 0.34558c1.7445 0.89738 5.5823 1.5202 8.6071 1.5202h-0.0081" fill="#f9d90f"/>
   <path d="m-99.562-35.339 3.951-0.9037-3.9378-0.56349z" fill="#f9b60f"/>
   <path d="m-109.43-58.089 3.3753 1.0741-1.0207 5.4646-3.1952 0.49631s-0.53875-2.8734 0.84059-7.0382" fill="#f9d90f"/>
   <path d="m-110.27-51.054 2.0755-2.8636 1.1197 2.3673z" fill="#f9b60f"/>
   <g fill="none" stroke="#000" stroke-width=".106">
    <path d="m-109.43-58.089 3.3753 1.0741-1.0207 5.4646-3.1952 0.49631s-0.53875-2.8734 0.84059-7.0382v0.0033z"/>
    <path d="m-99.562-35.339 3.9762-0.9037"/>
    <path d="m-108.19-53.935 1.1165 2.3846"/>
   </g>
   <path d="m-74.677-35.326-3.951-0.9037 3.9378-0.56349z" fill="#f9b60f"/>
   <path d="m-64.814-58.076-3.3753 1.0741 1.0207 5.4646 3.1952 0.49631s0.53875-2.8734-0.84059-7.0382" fill="#f9d90f"/>
   <path d="m-63.974-51.041-2.0755-2.8636-1.1197 2.3673z" fill="#f9b60f"/>
   <g fill="none" stroke="#000" stroke-width=".106">
    <path d="m-64.814-58.076-3.3753 1.0741 1.0207 5.4646 3.1952 0.49631s0.53875-2.8734-0.84059-7.0382v0.0033z"/>
    <path d="m-74.677-35.326-3.9762-0.9037"/>
    <path d="m-66.052-53.922-1.1165 2.3846"/>
    <path d="m-87.081-38.151c3.028 0.0097 6.7523-0.60842 8.4967-1.5103l3.8313-0.33926 0.07627 4.6744c-3.2455 1.7894-10.739 2.1739-12.388 2.1609-1.6503 0.01298-9.2367-0.37787-12.497-2.1739l0.04219-4.6777 3.8394 0.34558c1.7445 0.89738 5.5823 1.5202 8.6071 1.5202h-0.0081"/>
   </g>
   <path d="m-62.795-54.14-3.2536 0.23509c-0.073 2.7567-0.40731 13.277-12.971 13.848l0.39108 3.8274c15.293 0.15884 16.455-12.903 15.833-17.91" fill="#f9d90f"/>
   <path d="m-62.795-54.14-3.2536 0.23509c-0.073 2.7567-0.40731 13.277-12.971 13.848l0.39108 3.8274c15.293 0.15884 16.455-12.903 15.833-17.91z" fill="none" stroke="#000" stroke-width=".106"/>
   <path d="m-111.44-54.153 3.2536 0.23509c0.073 2.7567 0.40731 13.277 12.971 13.848l-0.39108 3.8274c-15.293 0.15884-16.455-12.903-15.833-17.91" fill="#f9d90f"/>
   <path d="m-111.44-54.153 3.2536 0.23509c0.073 2.7567 0.40731 13.277 12.971 13.848l-0.39108 3.8274c-15.293 0.15884-16.455-12.903-15.833-17.91z" fill="none" stroke="#000" stroke-width=".106"/>
  </g>
  <g fill="#012a87" stroke-width=".026458">
   <g transform="translate(-32.212 165.39)">
    <path d="m-89.214549-35.847135c-.08601.05516-.202844.06993-.337532.06328l-.606908-.03083.05193-.757522.602041.03229c.118461.0081.212579.03099.270999.06652.121706.06327.175256.180253.163897.342337-.0081.13953-.0568.23055-.146047.283928m-1.019087 1.192664.06004-.923337.707517.04884c.228809.01786.399197-.04218.514411-.159163.120083-.113571.181747-.262675.189862-.431409.01461-.196479-.0357-.357103-.152538-.475543-.11197-.11357-.271-.1736-.470597-.192908l-1.010972-.06328-.139556 2.173924.300208.01964"/>
    <path d="m-87.935061-36.4734.739973.0081c.1071.0097.191485.02271.253147.05192.113594.05354.167144.160623.167144.316377 0 .146183-.04219.24353-.12495.30194-.07952.05338-.194732.07771-.332664.07771l-.710764-.0081.0065-.747949m-.01136 1.925851.0065-.928045.694535.0099c.123329 0 .214203.0096.277491.0404.102232.04705.152538.146183.157406.282307l.01786.365051c.0049.08761.0065.141316.01136.17685.0097.02596.01461.05354.02759.07317h.373232l-.0065-.04721c-.04219-.02271-.07627-.06636-.09087-.13304-.01298-.04218-.01949-.10546-.02271-.184961l-.0065-.290417c-.0049-.13142-.02759-.222114-.07789-.272574-.04381-.05841-.103856-.108703-.196353-.13953.103859-.055.18175-.118277.238544-.196317.05355-.08599.08114-.194694.08114-.327572 0-.24986-.102233-.420379-.309944-.512697-.111971-.05029-.254771-.07642-.423538-.0795l-1.043426-.0099-.0081 2.180577h.300209"/>
    <path d="m-85.476108-35.00346c-.133065-.162082-.204465-.364889-.220691-.605012-.01461-.301937.04381-.532165.181747-.688081.139556-.168737.319682-.249698.554979-.262675.23692-.01298.431652.06327.576076.212378.14767.146183.232053.34899.246658.602091.0081.243207-.03408.458991-.146047.648818-.110347.193236-.293717.30194-.564717.308267-.282358.01477-.493317-.05176-.628005-.215786m-.357003-1.372593c-.139556.215784-.196353.465644-.18175.767581.02109.325951.121709.59544.311571.798247.210955.202805.490067.304859.83409.285389.368365-.01623.645855-.155754.834094-.411942.152538-.23201.225561-.5015.209335-.834101-.02109-.29691-.107103-.538654-.267756-.718748-.202841-.241744-.499805-.348664-.902246-.332441-.379723.02417-.658835.163707-.838961.446015"/>
   </g>
   <g transform="translate(-32.212 165.09)">
    <path d="m-109.95413-49.804929.0503.272408c-.1217.02433-.21907.07317-.29047.136449-.1282.119898-.17201.300154-.1282.545145.0195.103674.0568.205888.10386.287174.0974.16549.22394.231848.38459.205888.11847-.02108.19636-.06636.23368-.150725.0357-.08291.0617-.209459.0698-.371543l.0146-.306804c.01-.189827.0308-.338931.073-.421838.0665-.149266.19149-.241746.3781-.272411.1996-.03586.37486.0096.52577.123145.15254.10546.25315.288797.29047.532164.0471.222439.026.422-.0617.601931-.0844.175386-.24666.282307-.49494.327734l-.0487-.275654c.11521-.04218.20122-.08291.25802-.139531.0974-.108866.12657-.266083.0892-.481868-.0292-.175389-.0892-.288959-.18013-.345583-.0892-.06668-.1785-.09264-.27586-.07625-.10873.01623-.18013.07625-.21421.173601-.0211.06474-.0373.1994-.0519.405614l-.0146.317838c-.008.149266-.0308.272733-.0811.357103-.0795.155591-.21421.251317-.41056.282144-.24828.04218-.43977-.01461-.57607-.173603-.13956-.155757-.22557-.342338-.26938-.574348-.0487-.275817-.013-.489981.0974-.661799.11197-.176847.28885-.27906.52902-.313133"/>
    <path d="m-110.09206-46.928323 2.14527-.645735.49981 1.51034-.26127.08275-.40893-1.241176-.65234.196477.3781 1.146912-.24991.0795-.37485-1.150157-.72699.217245.41542 1.268759-.25639.07317-.50792-1.538086"/>
    <path d="m-109.14113-44.309845 1.97326-1.046322.21096.368135-1.35662 1.434249 1.98137-.339094.20447.365216-1.96839 1.039992-.13956-.241909 1.16189-.611502c.0422-.02449.1071-.06019.20122-.110327.0925-.04218.19635-.09913.30021-.152673l-1.97326.335847-.14443-.256347 1.34688-1.429379-.0649.03261c-.0422.02417-.11521.06003-.2142.116654-.0974.06019-.17039.09735-.21745.116817l-1.15864.6214-.1428-.246451"/>
    <path d="m-105.46399-41.404033c-.099-.02255-.19635-.0795-.29209-.17847l-.41705-.429951.56147-.514317.4203.42849c.0811.0795.13306.157214.16065.223897.0389.128011 0 .244991-.11846.355155-.1071.09897-.21421.139533-.31482.115196m-1.58542.199561.68805-.631135.48844.494848c.15741.160623.31806.233634.48683.23055.17201-.0099.31968-.07317.4495-.196477.14605-.129797.21582-.282307.21582-.446014-.002-.15916-.0746-.308265-.20933-.447795l-.70103-.715664-1.63248 1.499146.21096.212541"/>
    <path d="m-105.08-39.452 1.183-1.8545 1.3988 0.85016-0.14604 0.22081-1.1489-0.68792-0.35538 0.56137 1.0564 0.64071-0.13631 0.2127-1.058-0.63762-0.40245 0.62773 1.1635 0.69944-0.13956 0.21903z"/>
    <path d="m-101.57913-39.810786.71077.225683c.10061.03066.17363.0696.22231.113573.0909.08599.11522.209132.0617.358398-.0438.129797-.11035.214164-.21421.25002-.0925.01607-.20933.01607-.34564-.02612l-.6702-.214001.2353-.707551m-.6134 1.822014.29534-.884235.66209.215787c.11846.03099.20446.07317.24665.116814.0811.07301.10548.181716.0649.316542l-.099.351909c-.0227.08599-.0341.142776-.0438.168736 0 .02774 0 .05695.005.07625l.34889.113573.0211-.0503c-.0373-.0292-.0584-.08258-.0568-.149104.008-.04072.0195-.10546.0422-.180254l.0844-.282307c.0341-.123307.0471-.215787.0162-.282144-.026-.06993-.0698-.133203-.1428-.193074.11034-.01964.20609-.0537.28722-.113733.0763-.06652.14118-.159.18013-.288634.0795-.235417.0357-.431734-.13956-.581-.0876-.07772-.21258-.144398-.37647-.206051l-.99313-.306481-.69453 2.068464.29047.08923"/>
   </g>
   <g transform="matrix(.99983 .01826 -.01826 .99983 -32.934 166.61)">
    <path d="m-75.741732-39.512256c.209335-.03569.391082-.0258.556602.03083.243412.07626.407312.25651.509544.532165l-.300209.04218c-.06491-.149101-.157405-.251318-.282358-.308264-.121706-.05338-.274244-.06652-.449503-.0404-.204464.03083-.368361.132881-.483576.29691-.113594.175062-.14767.408858-.09737.707226.04219.246776.133067.455911.282358.595441.137935.142777.340779.193071.605285.155754.197976-.03245.357006-.111785.468976-.248234.116838-.129634.150915-.326114.111968-.579215l-.699403.107243-.0357-.240123.973647-.149427.189861 1.153563-.193106.02921-.120082-.266084c-.08114.120223-.162276.212703-.233676.266084-.120085.09426-.282359.154293-.485203.183497-.262885.0404-.503052-.0067-.720499-.146183-.238544-.176847-.392706-.439684-.451123-.804573-.06329-.358563-.0065-.665367.159029-.907114.157406-.233471.386212-.369755.694535-.413724"/>
    <path d="m-73.539663-39.680989.697782-.253104c.09574-.03553.178502-.04705.249902-.03878.128197.0096.222318.08583.275868.238338.05031.129794.05031.243368-.0065.32303-.06004.08258-.154162.142774-.290471.192908l-.65559.235257-.271-.697654m.697782 1.802706-.340776-.874502.649099-.233796c.121706-.03894.206088-.06003.269376-.05338.115215.01445.202844.08437.261262.217248l.14767.332763c.03246.08258.05842.132878.07952.155757.0097.0292.03083.04705.04706.06636l.352138-.129635-.01949-.04705c-.05193 0-.102232-.02921-.139556-.08615-.02759-.0404-.05355-.09881-.09087-.166951l-.115218-.272733c-.05193-.11844-.105476-.191287-.167141-.235257-.06167-.03407-.139559-.05679-.232053-.06311.0714-.08291.123327-.16565.1428-.262999.02109-.0988.01136-.209132-.0357-.332439-.08925-.23201-.253149-.358563-.483579-.374787-.121706-.0097-.261261.01623-.421914.07285l-.98014.348989.791902 2.050618.287226-.10546"/>
    <path d="m-70.289-38.959-1.2446-1.8157 1.3664-0.87126 0.15091 0.21919-1.1197 0.71534 0.38297 0.55488 1.0337-0.66521 0.14118 0.21254-1.0337 0.66537 0.42192 0.61166 1.1392-0.72864 0.15092 0.21433-1.3907 0.88748"/>
    <path d="m-69.200434-42.16821.357005-.392632c.165521-.175226.340776-.254726.532261-.23201.191483.01623.386215.116814.593926.298531.05679.04381.1071.10059.15903.163867.09087.11844.144423.222439.1785.326113.02921.129957.02271.248397-.02271.361968-.02759.05662-.07627.123144-.149291.202807l-.358629.38939-1.290084-1.121115m1.885634.854869c.253149-.278898.30832-.579052.160652-.918146-.08601-.1835-.217449-.36197-.399196-.517724-.228809-.202807-.467353-.306644-.718879-.325951-.279112-.02124-.516032.0795-.722123.304858l-.608529.652228 1.677922 1.463612.608529-.655468"/>
    <path d="m-66.015-43.009-1.9311-1.1341 0.15741-0.2497 1.9343 1.1276-0.15903 0.25943"/>
    <path d="m-65.257-44.326-2.0852-0.8341 0.61502-1.4667 0.25315 0.09735-0.50143 1.2087 0.628 0.24677 0.46897-1.1132 0.24017 0.09913-0.46411 1.1114 0.70265 0.28539 0.51441-1.2232 0.25315 0.09556-0.62638 1.4928"/>
    <path d="m-64.3-46.886-2.194-0.48511 0.07302-0.33909 2.0268-0.68467-1.7802-0.39263 0.06491-0.26608 2.194 0.47197-0.06978 0.32936-2.0301 0.69944 1.7802 0.38452-0.06329 0.28231"/>
    <path d="m-64.473368-49.672051.02759-.275817c.126573.0034.233676-.01623.314814-.05987.159029-.08615.251524-.249857.275865-.491767.0097-.113407.0049-.21254-.02109-.306643-.04706-.181552-.149294-.282305-.313191-.298531-.121706-.01298-.209335.01623-.272621.08291-.0568.07625-.116838.186418-.162276.342337l-.100609.287174c-.06491.188041-.124953.317838-.189862.390848-.103855.136447-.249905.1835-.43652.17052-.199597-.02108-.361873-.100593-.477088-.253103-.118461-.139531-.167143-.339091-.137935-.585868.01946-.225358.09412-.415185.227185-.567695.12333-.13953.314815-.206213.55985-.180256l-.02271.275817c-.120086 0-.215827.02108-.285606.06977-.126573.06976-.196353.217407-.217447.433194-.01786.178633.0065.298531.07465.38955.06815.07626.154159.124768.25477.132881.107101.0097.191486-.02433.249903-.106921.04219-.05695.0925-.180253.160653-.379816l.09899-.301775c.04868-.139533.1071-.246613.175256-.32287.121706-.12655.280735-.180091.480335-.165328.243411.0258.417044.126554.506296.311511.08763.186583.121706.392634.100609.626268-.02759.264297-.113591.472134-.27262.611664-.159029.142614-.357006.191288-.59717.171818"/>
   </g>
  </g>
 </g>
</svg>
