<?xml version="1.0" encoding="UTF-8"?>
<!-- Created with Sodipodi ("http://www.sodipodi.com/") -->
<svg id="svg548" width="640" height="480" version="1.1" xmlns="http://www.w3.org/2000/svg" xmlns:cc="http://creativecommons.org/ns#" xmlns:dc="http://purl.org/dc/elements/1.1/" xmlns:rdf="http://www.w3.org/1999/02/22-rdf-syntax-ns#">
 <metadata id="metadata3717">
  <rdf:RDF>
   <cc:Work rdf:about="">
    <dc:format>image/svg+xml</dc:format>
    <dc:type rdf:resource="http://purl.org/dc/dcmitype/StillImage"/>
   </cc:Work>
  </rdf:RDF>
 </metadata>
 <defs id="defs550">
  <clipPath id="clipPath7468">
   <rect id="rect7470" y="-1.3091e-5" width="682.67" height="512" fill-opacity=".67"/>
  </clipPath>
 </defs>
 <g id="flag" transform="matrix(.9375 0 0 .9375 0 1.2273e-5)" clip-path="url(#clipPath7468)" fill-rule="evenodd">
  <rect id="rect558" y="-1.3369e-5" width="767.63" height="512" fill="#ffe300" stroke-width="1pt"/>
  <rect id="rect555" y="208.14" width="767.63" height="102.81" fill="#118600" stroke-width="1pt"/>
  <rect id="rect570" y=".24819" width="767.63" height="102.81" fill="#118600" stroke-width="1pt"/>
  <rect id="rect554" y=".24813" width="306.51" height="310.71" fill="#d80000" stroke-width="1pt"/>
  <path id="path567" d="m134.42 128.43c0-0.85625 18.836-53.083 18.836-53.083l17.124 52.227s57.365 1.7125 57.365 0.85625-45.378 34.248-45.378 34.248 21.404 59.933 20.549 58.221c-0.85625-1.7125-49.659-35.96-49.659-35.96s-49.658 34.248-48.802 34.248c0.85625 0 18.835-56.508 18.835-56.508l-44.522-33.392 55.652-0.85625z" fill="#fff"/>
  <rect id="rect569" y="409.19" width="767.63" height="102.81" fill="#118600" stroke-width="1pt"/>
 </g>
</svg>
