<?xml version="1.0" encoding="UTF-8"?>
<!-- Created with Sodipodi ("http://www.sodipodi.com/") -->
<svg id="svg832" width="640" height="480" version="1.0" xmlns="http://www.w3.org/2000/svg" xmlns:cc="http://creativecommons.org/ns#" xmlns:dc="http://purl.org/dc/elements/1.1/" xmlns:rdf="http://www.w3.org/1999/02/22-rdf-syntax-ns#" xmlns:xlink="http://www.w3.org/1999/xlink">
 <metadata id="metadata3192">
  <rdf:RDF>
   <cc:Work rdf:about="">
    <dc:format>image/svg+xml</dc:format>
    <dc:type rdf:resource="http://purl.org/dc/dcmitype/StillImage"/>
   </cc:Work>
  </rdf:RDF>
 </metadata>
 <defs id="defs834">
  <linearGradient id="linearGradient583">
   <stop id="stop584" stop-color="#faff00" offset="0"/>
   <stop id="stop585" stop-color="#f5c402" offset="1"/>
  </linearGradient>
  <linearGradient id="linearGradient3751" x1="123.79" x2="123.79" y1="360.52" y2="459.27" gradientTransform="matrix(.7507 -.024221 -.045871 1.4224 26.394 -26.59)" gradientUnits="userSpaceOnUse" xlink:href="#linearGradient583"/>
  <linearGradient id="linearGradient3753" x1="123.79" x2="123.79" y1="360.52" y2="459.27" gradientTransform="matrix(.72666 .00062667 .0011868 1.4679 -.62419 -48.245)" gradientUnits="userSpaceOnUse" xlink:href="#linearGradient583"/>
  <linearGradient id="linearGradient3755" x1="123.79" x2="123.79" y1="360.52" y2="459.27" gradientTransform="matrix(.7514 .024216 .045862 1.4211 -30.188 -29.545)" gradientUnits="userSpaceOnUse" xlink:href="#linearGradient583"/>
  <linearGradient id="linearGradient3757" x1="123.79" x2="123.79" y1="360.52" y2="459.27" gradientTransform="matrix(.7751 -.00034739 -.0006579 1.3762 -23.236 .16664)" gradientUnits="userSpaceOnUse" xlink:href="#linearGradient583"/>
  <linearGradient id="linearGradient3759" x1="123.79" x2="123.79" y1="360.52" y2="459.27" gradientTransform="matrix(.75059 -.02422 -.045869 1.4226 -1.5653 1.5838)" gradientUnits="userSpaceOnUse" xlink:href="#linearGradient583"/>
  <linearGradient id="linearGradient3761" x1="123.79" x2="123.79" y1="360.52" y2="459.27" gradientTransform="matrix(.75113 .02422 .04587 1.4216 -1.8465 -1.8275)" gradientUnits="userSpaceOnUse" xlink:href="#linearGradient583"/>
  <linearGradient id="linearGradient3763" x1="123.79" x2="123.79" y1="360.52" y2="459.27" gradientTransform="matrix(.7751 -.0002084 -.00039467 1.3762 16.423 -.070651)" gradientUnits="userSpaceOnUse" xlink:href="#linearGradient583"/>
  <linearGradient id="linearGradient3765" x1="123.79" x2="123.79" y1="360.52" y2="459.27" gradientTransform="matrix(.72665 0 0 1.4679 0 -8.4634)" gradientUnits="userSpaceOnUse" xlink:href="#linearGradient583"/>
  <clipPath id="clipPath3767">
   <rect id="rect3769" y="1.0965e-5" width="640" height="512" fill-opacity=".67"/>
  </clipPath>
 </defs>
 <g id="flag" transform="matrix(1 0 0 .9375 0 -1.0279e-5)" clip-path="url(#clipPath3767)">
  <g id="g594" transform="matrix(.48345 0 0 .48345 116.34 -61.375)" fill-rule="evenodd">
   <rect id="rect741" x="-240.65" y="126.95" width="1587" height="1059" fill="#fff" stroke-width="1pt"/>
   <path id="path593" transform="matrix(-.70971 .70449 -.70449 -.70971 390.96 688.93)" d="m101.66 488.82c9.641 18.113 21.855 33.027 30.418 58.686 1.846 34.313-2.07 40.849 4.635 57.059 2.696 5.929 6.544 8.378 7.285 22.123-1.146 19.675-9.645 20.899-18 20.359-1.5-6.043-2e-3 -9.946-10.648-20.357-5.765-6.161-12.613-16.348-16.234-29.493-1.1265-12.074-1.7577-27.767-7.7864-40.892-8.6741-14.17-9.9698-21.069-18.211-28.491-8.486-9.873-8.0016-13.336-12.65-24.094 11.39-18.449 22.187-20.33 41.192-14.9z" fill="url(#linearGradient3751)" fill-opacity=".56078" stroke="#cbaa19" stroke-width="3.2275"/>
   <path id="path591" transform="matrix(-.99992 -.012937 .012937 -.99992 101.58 850.68)" d="m101.66 488.82c9.641 18.113 21.855 33.027 30.418 58.686 1.846 34.313-2.07 40.849 4.635 57.059 2.696 5.929 6.544 8.378 7.285 22.123-1.146 19.675-9.645 20.899-18 20.359-1.5-6.043-2e-3 -9.946-10.648-20.357-5.765-6.161-12.613-16.348-16.234-29.493-1.1265-12.074-1.7577-27.767-7.7864-40.892-8.6741-14.17-9.9698-21.069-18.211-28.491-8.486-9.873-8.0016-13.336-12.65-24.094 11.39-18.449 22.187-20.33 41.192-14.9z" fill="url(#linearGradient3753)" fill-opacity=".56078" stroke="#cbaa19" stroke-width="3.2275"/>
   <path id="path590" transform="matrix(-.69945 -.71468 .71468 -.69945 -212.76 760.55)" d="m101.66 488.82c9.641 18.113 21.855 33.027 30.418 58.686 1.846 34.313-2.07 40.849 4.635 57.059 2.696 5.929 6.544 8.378 7.285 22.123-1.146 19.675-9.645 20.899-18 20.359-1.5-6.043-2e-3 -9.946-10.648-20.357-5.765-6.161-12.613-16.348-16.234-29.493-1.1265-12.074-1.7577-27.767-7.7864-40.892-8.6741-14.17-9.9698-21.069-18.211-28.491-8.486-9.873-8.0016-13.336-12.65-24.094 11.39-18.449 22.187-20.33 41.192-14.9z" fill="url(#linearGradient3755)" fill-opacity=".56078" stroke="#cbaa19" stroke-width="3.2275"/>
   <path id="path589" transform="matrix(.0071712 -.99997 .99997 .0071712 -371.84 475.5)" d="m101.66 488.82c9.641 18.113 21.855 33.027 30.418 58.686 1.846 34.313-2.07 40.849 4.635 57.059 2.696 5.929 6.544 8.378 7.285 22.123-1.146 19.675-9.645 20.899-18 20.359-1.5-6.043-2e-3 -9.946-10.648-20.357-5.765-6.161-12.613-16.348-16.234-29.493-1.1265-12.074-1.7577-27.767-7.7864-40.892-8.6741-14.17-9.9698-21.069-18.211-28.491-8.486-9.873-8.0016-13.336-12.65-24.094 11.39-18.449 22.187-20.33 41.192-14.9z" fill="url(#linearGradient3757)" fill-opacity=".56078" stroke="#cbaa19" stroke-width="3.2275"/>
   <path id="path587" transform="matrix(.71126 -.70293 .70293 .71126 -283.29 160.35)" d="m101.66 488.82c9.641 18.113 21.855 33.027 30.418 58.686 1.846 34.313-2.07 40.849 4.635 57.059 2.696 5.929 6.544 8.378 7.285 22.123-1.146 19.675-9.645 20.899-18 20.359-1.5-6.043-2e-3 -9.946-10.648-20.357-5.765-6.161-12.613-16.348-16.234-29.493-1.1265-12.074-1.7577-27.767-7.7864-40.892-8.6741-14.17-9.9698-21.069-18.211-28.491-8.486-9.873-8.0016-13.336-12.65-24.094 11.39-18.449 22.187-20.33 41.192-14.9z" fill="url(#linearGradient3759)" fill-opacity=".56078" stroke="#cbaa19" stroke-width="3.2275"/>
   <path id="path595" transform="matrix(.70345 .71074 -.71074 .70345 317.95 87.982)" d="m101.66 488.82c9.641 18.113 21.855 33.027 30.418 58.686 1.846 34.313-2.07 40.849 4.635 57.059 2.696 5.929 6.544 8.378 7.285 22.123-1.146 19.675-9.645 20.899-18 20.359-1.5-6.043-2e-3 -9.946-10.648-20.357-5.765-6.161-12.613-16.348-16.234-29.493-1.1265-12.074-1.7577-27.767-7.7864-40.892-8.6741-14.17-9.9698-21.069-18.211-28.491-8.486-9.873-8.0016-13.336-12.65-24.094 11.39-18.449 22.187-20.33 41.192-14.9z" fill="url(#linearGradient3761)" fill-opacity=".56078" stroke="#cbaa19" stroke-width="3.2275"/>
   <path id="path594" transform="matrix(-.0043019 .99999 -.99999 -.0043019 478.78 373.3)" d="m101.66 488.82c9.641 18.113 21.855 33.027 30.418 58.686 1.846 34.313-2.07 40.849 4.635 57.059 2.696 5.929 6.544 8.378 7.285 22.123-1.146 19.675-9.645 20.899-18 20.359-1.5-6.043-2e-3 -9.946-10.648-20.357-5.765-6.161-12.613-16.348-16.234-29.493-1.1265-12.074-1.7577-27.767-7.7864-40.892-8.6741-14.17-9.9698-21.069-18.211-28.491-8.486-9.873-8.0016-13.336-12.65-24.094 11.39-18.449 22.187-20.33 41.192-14.9z" fill="url(#linearGradient3763)" fill-opacity=".56078" stroke="#cbaa19" stroke-width="3.2275"/>
   <rect id="rect845" x="345.13" y="247.98" width="1001.2" height="120.52" fill="#002993" stroke-width="1pt"/>
   <rect id="rect846" x="345.13" y="482.62" width="1001.2" height="120.52" fill="#002993" stroke-width="1pt"/>
   <path id="path613" d="m101.66 488.82c9.641 18.113 21.855 33.027 30.418 58.686 1.846 34.313-2.07 40.849 4.635 57.059 2.696 5.929 6.544 8.378 7.285 22.123-1.146 19.675-9.645 20.899-18 20.359-1.5-6.043-2e-3 -9.946-10.648-20.357-5.765-6.161-12.613-16.348-16.234-29.493-1.1265-12.074-1.7577-27.767-7.7864-40.892-8.6741-14.17-9.9698-21.069-18.211-28.491-8.486-9.873-8.0016-13.336-12.65-24.094 11.39-18.449 22.187-20.33 41.192-14.9z" fill="url(#linearGradient3765)" fill-opacity=".56078" stroke="#cbaa19" stroke-width="3.2275"/>
   <rect id="rect847" x="-240.65" y="714.54" width="1587" height="120.52" fill="#002993" stroke-width="1pt"/>
   <rect id="rect848" x="-240.65" y="947.82" width="1587" height="120.52" fill="#002993" stroke-width="1pt"/>
   <path id="path585" d="m82.66 496.87-29.119 159.36v-159.36h29.119z" fill="#faff00" stroke="#cbaa19" stroke-linecap="round" stroke-width="3.2275"/>
   <path id="path588" transform="matrix(-1 0 0 1 107.08 -.00048828)" d="m82.66 496.87-29.119 159.36v-159.36h29.119z" fill="#f5c402" stroke="#cbaa19" stroke-width="3.2275"/>
   <path id="path596" transform="matrix(.70581 -.7084 .7084 .70581 -285.33 162.96)" d="m82.66 496.87-29.119 159.36v-159.36h29.119z" fill="#faff00" stroke="#cbaa19" stroke-linecap="round" stroke-width="3.2275"/>
   <path id="path597" transform="matrix(-.70581 .7084 .7084 .70581 -209.75 87.104)" d="m82.66 496.87-29.119 159.36v-159.36h29.119z" fill="#f5c402" stroke="#cbaa19" stroke-width="3.2275"/>
   <path id="path598" transform="matrix(-.0019282 -1 1 -.0019282 -371.37 479.37)" d="m82.66 496.87-29.119 159.36v-159.36h29.119z" fill="#faff00" stroke="#cbaa19" stroke-linecap="round" stroke-width="3.2275"/>
   <path id="path599" transform="matrix(.0019282 1 1 -.0019282 -371.57 372.29)" d="m82.66 496.87-29.119 159.36v-159.36h29.119z" fill="#f5c402" stroke="#cbaa19" stroke-width="3.2275"/>
   <path id="path600" transform="matrix(-.70544 -.70877 .70877 -.70544 -209.93 762.78)" d="m82.66 496.87-29.119 159.36v-159.36h29.119z" fill="#faff00" stroke="#cbaa19" stroke-linecap="round" stroke-width="3.2275"/>
   <path id="path601" transform="matrix(.70544 .70877 .70877 -.70544 -285.47 686.88)" d="m82.66 496.87-29.119 159.36v-159.36h29.119z" fill="#f5c402" stroke="#cbaa19" stroke-width="3.2275"/>
   <path id="path602" transform="matrix(-1 .0019556 -.0019556 -1 107.91 849.92)" d="m82.66 496.87-29.119 159.36v-159.36h29.119z" fill="#faff00" stroke="#cbaa19" stroke-linecap="round" stroke-width="3.2275"/>
   <path id="path603" transform="matrix(1 -.0019556 -.0019556 -1 .83117 850.13)" d="m82.66 496.87-29.119 159.36v-159.36h29.119z" fill="#f5c402" stroke="#cbaa19" stroke-width="3.2275"/>
   <path id="path604" transform="matrix(-.70577 .70844 -.70844 -.70577 392.42 687.04)" d="m82.66 496.87-29.119 159.36v-159.36h29.119z" fill="#faff00" stroke="#cbaa19" stroke-linecap="round" stroke-width="3.2275"/>
   <path id="path605" transform="matrix(.70577 -.70844 -.70844 -.70577 316.85 762.9)" d="m82.66 496.87-29.119 159.36v-159.36h29.119z" fill="#f5c402" stroke="#cbaa19" stroke-width="3.2275"/>
   <path id="path606" transform="matrix(.011057 .99994 -.99994 .011057 477.93 366.77)" d="m82.66 496.87-29.119 159.36v-159.36h29.119z" fill="#faff00" stroke="#cbaa19" stroke-linecap="round" stroke-width="3.2275"/>
   <path id="path607" transform="matrix(-.011057 -.99994 -.99994 .011057 479.12 473.85)" d="m82.66 496.87-29.119 159.36v-159.36h29.119z" fill="#f5c402" stroke="#cbaa19" stroke-width="3.2275"/>
   <path id="path608" transform="matrix(.71235 .70182 -.70182 .71235 313.68 84.677)" d="m82.66 496.87-29.119 159.36v-159.36h29.119z" fill="#faff00" stroke="#cbaa19" stroke-linecap="round" stroke-width="3.2275"/>
   <path id="path609" transform="matrix(-.71235 -.70182 -.70182 .71235 389.96 159.83)" d="m82.66 496.87-29.119 159.36v-159.36h29.119z" fill="#f5c402" stroke="#cbaa19" stroke-width="3.2275"/>
   <ellipse id="path566" transform="translate(.9561 2.8683)" cx="52.585" cy="422.29" rx="82.224" ry="81.268" d="m 134.80975,422.29388 c 0,44.88325 -36.813109,81.26831 -82.224385,81.26831 -45.4112753,0 -82.224388,-36.38506 -82.224388,-81.26831 0,-44.88324 36.8131127,-81.26831 82.224388,-81.26831 45.411276,0 82.224385,36.38507 82.224385,81.26831 z" fill="#faff00" stroke="#cbaa19" stroke-width="3.2275"/>
  </g>
 </g>
</svg>
