<?xml version="1.0" encoding="UTF-8"?>
<!-- Created with Sodipodi ("http://www.sodipodi.com/") -->
<svg id="svg548" width="640" height="480" version="1.1" xmlns="http://www.w3.org/2000/svg" xmlns:cc="http://creativecommons.org/ns#" xmlns:dc="http://purl.org/dc/elements/1.1/" xmlns:rdf="http://www.w3.org/1999/02/22-rdf-syntax-ns#">
 <metadata id="metadata3215">
  <rdf:RDF>
   <cc:Work rdf:about="">
    <dc:format>image/svg+xml</dc:format>
    <dc:type rdf:resource="http://purl.org/dc/dcmitype/StillImage"/>
   </cc:Work>
  </rdf:RDF>
 </metadata>
 <defs id="defs550">
  <clipPath id="clipPath3415">
   <rect id="rect3417" width="640" height="480" fill-opacity=".67"/>
  </clipPath>
 </defs>
 <g id="flag" clip-path="url(#clipPath3415)" fill-rule="evenodd">
  <rect id="rect568" y="-8.2911e-6" width="960" height="480" fill="#fff" stroke-width="1pt"/>
  <rect id="rect558" y=".00029167" width="960" height="166.14" fill="#94acd4" stroke-width="1pt"/>
  <rect id="rect555" y="155.14" width="960" height="11.005" fill="#b73000" stroke-width="1pt"/>
  <rect id="rect557" y="324.86" width="960" height="155.14" fill="#00a900" stroke-width="1pt"/>
  <rect id="rect556" y="324.86" width="960" height="11.005" fill="#b73000" stroke-width="1pt"/>
  <polygon id="polygon561" transform="matrix(.89301 0 0 .89794 69.068 -66.212)" d="m 205.58449,128.73621 -10.01635,-6.84893 -9.90282,7.01206 3.41849,-11.64254 -9.72901,-7.2513 12.12909,-0.34657 3.88997,-11.493607 4.0777,11.428357 12.13314,0.14786 -9.60893,7.40967 z" points="205.58 128.74 195.57 121.89 185.66 128.9 189.08 117.26 179.36 110.01 191.48 109.66 195.37 98.165 199.45 109.59 211.58 109.74 201.98 117.15" fill="#feffff" stroke-width="1pt"/>
  <polygon id="polygon562" transform="matrix(.89301 0 0 .89794 26.91 16.736)" d="m 205.58449,128.73621 -10.01635,-6.84893 -9.90282,7.01206 3.41849,-11.64254 -9.72901,-7.2513 12.12909,-0.34657 3.88997,-11.493607 4.0777,11.428357 12.13314,0.14786 -9.60893,7.40967 z" points="205.58 128.74 195.57 121.89 185.66 128.9 189.08 117.26 179.36 110.01 191.48 109.66 195.37 98.165 199.45 109.59 211.58 109.74 201.98 117.15" fill="#feffff" stroke-width="1pt"/>
  <polygon id="polygon563" transform="matrix(.89301 0 0 .89794 69.474 16.736)" d="m 205.58449,128.73621 -10.01635,-6.84893 -9.90282,7.01206 3.41849,-11.64254 -9.72901,-7.2513 12.12909,-0.34657 3.88997,-11.493607 4.0777,11.428357 12.13314,0.14786 -9.60893,7.40967 z" points="205.58 128.74 195.57 121.89 185.66 128.9 189.08 117.26 179.36 110.01 191.48 109.66 195.37 98.165 199.45 109.59 211.58 109.74 201.98 117.15" fill="#feffff" stroke-width="1pt"/>
  <polygon id="polygon564" transform="matrix(.89301 0 0 .89794 108.79 16.736)" d="m 205.58449,128.73621 -10.01635,-6.84893 -9.90282,7.01206 3.41849,-11.64254 -9.72901,-7.2513 12.12909,-0.34657 3.88997,-11.493607 4.0777,11.428357 12.13314,0.14786 -9.60893,7.40967 z" points="205.58 128.74 195.57 121.89 185.66 128.9 189.08 117.26 179.36 110.01 191.48 109.66 195.37 98.165 199.45 109.59 211.58 109.74 201.98 117.15" fill="#feffff" stroke-width="1pt"/>
  <polygon id="polygon565" transform="matrix(.89301 0 0 .89794 145.28 16.736)" d="m 205.58449,128.73621 -10.01635,-6.84893 -9.90282,7.01206 3.41849,-11.64254 -9.72901,-7.2513 12.12909,-0.34657 3.88997,-11.493607 4.0777,11.428357 12.13314,0.14786 -9.60893,7.40967 z" points="205.58 128.74 195.57 121.89 185.66 128.9 189.08 117.26 179.36 110.01 191.48 109.66 195.37 98.165 199.45 109.59 211.58 109.74 201.98 117.15" fill="#feffff" stroke-width="1pt"/>
  <polygon id="polygon566" transform="matrix(.89301 0 0 .89794 -17.681 16.736)" d="m 205.58449,128.73621 -10.01635,-6.84893 -9.90282,7.01206 3.41849,-11.64254 -9.72901,-7.2513 12.12909,-0.34657 3.88997,-11.493607 4.0777,11.428357 12.13314,0.14786 -9.60893,7.40967 z" points="205.58 128.74 195.57 121.89 185.66 128.9 189.08 117.26 179.36 110.01 191.48 109.66 195.37 98.165 199.45 109.59 211.58 109.74 201.98 117.15" fill="#feffff" stroke-width="1pt"/>
  <polygon id="polygon567" transform="matrix(.89301 0 0 .89794 26.099 -24.432)" d="m 205.58449,128.73621 -10.01635,-6.84893 -9.90282,7.01206 3.41849,-11.64254 -9.72901,-7.2513 12.12909,-0.34657 3.88997,-11.493607 4.0777,11.428357 12.13314,0.14786 -9.60893,7.40967 z" points="205.58 128.74 195.57 121.89 185.66 128.9 189.08 117.26 179.36 110.01 191.48 109.66 195.37 98.165 199.45 109.59 211.58 109.74 201.98 117.15" fill="#feffff" stroke-width="1pt"/>
  <polygon id="polygon568" transform="matrix(.89301 0 0 .89794 69.068 -24.432)" d="m 205.58449,128.73621 -10.01635,-6.84893 -9.90282,7.01206 3.41849,-11.64254 -9.72901,-7.2513 12.12909,-0.34657 3.88997,-11.493607 4.0777,11.428357 12.13314,0.14786 -9.60893,7.40967 z" points="205.58 128.74 195.57 121.89 185.66 128.9 189.08 117.26 179.36 110.01 191.48 109.66 195.37 98.165 199.45 109.59 211.58 109.74 201.98 117.15" fill="#feffff" stroke-width="1pt"/>
  <polygon id="polygon569" transform="matrix(.89301 0 0 .89794 109.6 -24.432)" d="m 205.58449,128.73621 -10.01635,-6.84893 -9.90282,7.01206 3.41849,-11.64254 -9.72901,-7.2513 12.12909,-0.34657 3.88997,-11.493607 4.0777,11.428357 12.13314,0.14786 -9.60893,7.40967 z" points="205.58 128.74 195.57 121.89 185.66 128.9 189.08 117.26 179.36 110.01 191.48 109.66 195.37 98.165 199.45 109.59 211.58 109.74 201.98 117.15" fill="#feffff" stroke-width="1pt"/>
  <polygon id="polygon570" transform="matrix(.89301 0 0 .89794 144.87 -24.432)" d="m 205.58449,128.73621 -10.01635,-6.84893 -9.90282,7.01206 3.41849,-11.64254 -9.72901,-7.2513 12.12909,-0.34657 3.88997,-11.493607 4.0777,11.428357 12.13314,0.14786 -9.60893,7.40967 z" points="205.58 128.74 195.57 121.89 185.66 128.9 189.08 117.26 179.36 110.01 191.48 109.66 195.37 98.165 199.45 109.59 211.58 109.74 201.98 117.15" fill="#feffff" stroke-width="1pt"/>
  <polygon id="polygon571" transform="matrix(.89301 0 0 .89794 144.47 -66.212)" d="m 205.58449,128.73621 -10.01635,-6.84893 -9.90282,7.01206 3.41849,-11.64254 -9.72901,-7.2513 12.12909,-0.34657 3.88997,-11.493607 4.0777,11.428357 12.13314,0.14786 -9.60893,7.40967 z" points="205.58 128.74 195.57 121.89 185.66 128.9 189.08 117.26 179.36 110.01 191.48 109.66 195.37 98.165 199.45 109.59 211.58 109.74 201.98 117.15" fill="#feffff" stroke-width="1pt"/>
  <polygon id="polygon572" transform="matrix(.89301 0 0 .89794 109.2 -66.212)" d="m 205.58449,128.73621 -10.01635,-6.84893 -9.90282,7.01206 3.41849,-11.64254 -9.72901,-7.2513 12.12909,-0.34657 3.88997,-11.493607 4.0777,11.428357 12.13314,0.14786 -9.60893,7.40967 z" points="205.58 128.74 195.57 121.89 185.66 128.9 189.08 117.26 179.36 110.01 191.48 109.66 195.37 98.165 199.45 109.59 211.58 109.74 201.98 117.15" fill="#feffff" stroke-width="1pt"/>
  <path id="path575" d="m137.83 25.111c-47.838-13.111-78.139 20.754-77.683 51.103 0.456 30.346 28.426 62.486 71.603 54.466-67.837 31.79-102.53-18.28-101.14-58.032 2.378-46.988 55.193-85.309 107.22-47.537z" fill="#fff"/>
 </g>
</svg>
