<?xml version="1.0" encoding="UTF-8"?>
<svg width="640" height="480" viewBox="0 0 128 96" xmlns="http://www.w3.org/2000/svg" xmlns:xlink="http://www.w3.org/1999/xlink">
 <defs>
  <g id="f" transform="translate(0 -36)">
   <g id="e">
    <g id="d">
     <path id="c" d="M0-5l-1.545 4.755 2.853.927z" fill="#fff"/>
     <use transform="scale(-1 1)" width="180" height="120" xlink:href="#c"/>
    </g>
    <use transform="rotate(72)" width="180" height="120" xlink:href="#d"/>
   </g>
   <use transform="rotate(-72)" width="180" height="120" xlink:href="#d"/>
   <use transform="matrix(-.809 .588 -.588 -.809 0 0)" width="180" height="120" xlink:href="#e"/>
  </g>
 </defs>
 <path d="m0 0h128v96h-128z" fill="#cf142b"/>
 <path d="m0 0h128v64h-128z" fill="#00247d"/>
 <path d="m0 0h128v32h-128z" fill="#fc0"/>
 <g transform="matrix(.8 0 0 .8 64 67.2)">
  <g id="b">
   <g id="a">
    <use transform="rotate(10)" width="180" height="120" xlink:href="#f"/>
    <use transform="rotate(30)" width="180" height="120" xlink:href="#f"/>
   </g>
   <use transform="rotate(40)" width="180" height="120" xlink:href="#a"/>
  </g>
  <use transform="rotate(-80)" width="180" height="120" xlink:href="#b"/>
 </g>
</svg>
