<?xml version="1.0" encoding="UTF-8"?>
<svg id="svg2" width="160" height="100" version="1.1" viewBox="0 0 160 100" xml:space="preserve" xmlns="http://www.w3.org/2000/svg" xmlns:cc="http://creativecommons.org/ns#" xmlns:dc="http://purl.org/dc/elements/1.1/" xmlns:rdf="http://www.w3.org/1999/02/22-rdf-syntax-ns#"><metadata id="metadata8"><rdf:RDF><cc:Work rdf:about=""><dc:format>image/svg+xml</dc:format><dc:type rdf:resource="http://purl.org/dc/dcmitype/StillImage"/></cc:Work></rdf:RDF></metadata><g id="g10" transform="matrix(1.3333 0 0 -1.3333 0 199.32)"><rect id="rect1" transform="scale(1,-1)" y="-149.49" width="120" height="75" fill="#fad203" stroke-width="7.5543"/><g id="g12" transform="matrix(.049531 0 0 .049531 28.607 75.137)" fill-rule="evenodd"><path id="path62" d="m837.23 1051.3c-11.386-0.71-22.628-3-32.91-7.52-0.011 0-0.722 0.92-0.804 1.05-9.203 14.47-20.594 27.5-40.278 38.65-40.758 23.08-62.242 62.16-57.855 98.51 4.191 2.59 8.445 6.13 12.101 12.52 8.555-14.38 11.422-37.35 34.442-34.78-1.606 4.93-1.199 8.23-1.852 12.79-10.172 24.04 6.239 51.62 20.91 69.44 4.227-5.45 10.012-17.7 19.512-15.69-4.465 11.72 0.399 19.7 0.086 28.81-2.812 80.56-33.719 123.27-119.16 151.94-10.778 3.61-34.285-1.12-39.778-3.65-16.753-7.73-21.609-6.07-35.539 0.33-21.168 9.75-44.871 25.42-68.511 26.65-26.289 1.41-47.508-7.89-57.801-24.04-8.758-13.64-6.606-33.81-2.957-49.05 2.004-8.45 4.172-18.16 10.238-22.02 3.899 0.51 2.067 12.41 12.606 17.98 29.746 15.86 70.199-11.84 82.652-32.89 4.465-7.56 13.305-20.82 0.648-26.06-8.074 22.13-46.789 46.24-70.097 40.26-7.25-1.84-11.766-11.49-10.657-20.28 26.215 17.84 65.625-39.13 78.137-80.68 0.524-1.72 0.219-1.05 0.84-2.76 16.199-44.43-9.582-118.3-61.797-147.33-20.98-11.67-32.949-25.4-42.906-40.67-4e-3 -0.01-0.012-0.02-0.012-0.02-0.023-0.04-0.051-0.08-0.07-0.12-0.012 0-0.012-0.01-0.016-0.02s-0.011-0.02-0.019-0.02c0-0.01-4e-3 -0.02-0.016-0.03-0.019-0.03-0.047-0.07-0.066-0.11h-4e-3c-8e-3 -0.01-0.012-0.02-0.016-0.02-8e-3 -0.01-0.012-0.02-0.015-0.03-0.137 0.06-0.258 0.13-0.387 0.19-0.067 0.03-0.129 0.06-0.184 0.09h-0.015c-0.016 0.01-0.024 0.02-0.036 0.02h-3e-3c-8e-3 0.01-0.024 0.01-0.04 0.02-7e-3 0-0.019 0.01-0.031 0.01 0 0-4e-3 0.01-8e-3 0.01-16.843 8.04-36.496 9.82-55.261 8.27-14.313 31.97-41.692 53.11-72.274 60.36-13.898 28.9-28.402 45.3-51.316 58.27 0.433 0.18 0.863 0.35 1.293 0.52 0.433 0.18 0.863 0.35 1.289 0.52h4e-3c0.433 0.18 0.859 0.35 1.289 0.53h8e-3c30.144 12.28 59.168 27.22 80.988 52.39 0.324 0.37 0.644 0.75 0.969 1.12h4e-3c0.324 0.39 0.64 0.76 0.961 1.15 0.324 0.38 0.64 0.77 0.96 1.16 0.321 0.39 0.637 0.78 0.958 1.17 0.32 0.39 0.632 0.8 0.949 1.2 0.316 0.4 0.629 0.8 0.949 1.2 0.305 0.41 0.625 0.81 0.93 1.23 0.308 0.41 0.625 0.82 0.929 1.24 0.309 0.41 0.614 0.83 0.922 1.26 0.305 0.41 0.61 0.83 0.906 1.26h8e-3c0.297 0.43 0.602 0.85 0.899 1.29h4e-3c0.296 0.43 0.593 0.87 0.894 1.3 0.297 0.44 0.59 0.88 0.883 1.31 0.293 0.45 0.582 0.89 0.867 1.34 16.582 25.73 24.785 57.23 17.199 87.46h-4e-3c-0.14 0.59-0.293 1.18-0.449 1.75-0.164 0.58-0.328 1.15-0.5 1.73-0.336 1.13-0.691 2.24-1.074 3.37-15.918 46.66-70.633 68.81-116.61 65.85-0.707-0.06-1.418-0.1-2.118-0.16h-3e-3c-1.407-0.1-2.817-0.23-4.227-0.38-0.695-0.08-1.398-0.16-2.09-0.25h-8e-3c-0.703-0.08-1.398-0.17-2.097-0.27-0.696-0.09-1.391-0.19-2.078-0.29h-8e-3c-0.699-0.11-1.387-0.21-2.082-0.32-0.688-0.11-1.379-0.23-2.067-0.36h-8e-3c-0.687-0.12-1.375-0.24-2.062-0.37-0.695-0.14-1.371-0.27-2.059-0.41-0.679-0.14-1.367-0.28-2.046-0.43-51.2-10.95-91.75-44.94-115.22-91.15h-4e-3c-0.336-0.67-0.676-1.35-1.012-2.02-0.336-0.68-0.668-1.36-1-2.05-1.66-3.46-3.246-6.95-4.734-10.48-0.305-0.71-0.602-1.42-0.902-2.14-0.293-0.72-0.59-1.44-0.875-2.17h-8e-3c-0.293-0.72-0.578-1.44-0.86-2.17-0.289-0.73-0.57-1.46-0.847-2.2-13.961-36.44-23.715-104.74-25.782-144.26h-3e-3c-0.043-0.7-0.075-1.41-0.11-2.12s-0.066-1.41-0.101-2.13c-1.536-31.01-1.266-61.24 0.039-92.09h-0.039c0.125-2.6 0.253-5.18 0.39-7.8 0-0.12 8e-3 -0.24 0.016-0.36 0-0.13 8e-3 -0.25 0.012-0.38 0.011-0.13 0.015-0.25 0.019-0.37 8e-3 -0.02 8e-3 -0.04 8e-3 -0.06 0-0.1 8e-3 -0.21 0.012-0.31 4e-3 -0.13 0.015-0.25 0.019-0.38 8e-3 -0.12 0.012-0.24 0.016-0.37s0.011-0.25 0.019-0.37c0-0.07 4e-3 -0.13 4e-3 -0.19 0.223-4.41 0.438-8.84 0.653-13.28 0.515-10.43 1.011-20.915 1.476-31.325 2.074-51.527 7.141-94.051-37.144-66.473-1.6836-33.297 25.535-53.586 49.91-53.308 37.672 0.445 60.511 71.015 65.222 101.43 2.504-34.48-16.144-233.74-54.695-228.41-15.809 2.188-19.855 8.512-28.805 13.981 0.102-34.547 14.793-59.567 51.02-61.754 53.949-3.262 103.21 122.04 115.16 167.96-15.687-162.1-59.476-306.26-97.754-304.37-16.633 0.82-30.508 11.347-39.488 21.914 2.012-41.661 27.777-70.254 49.832-73.868 94.984-15.504 161.32 201.56 187.35 267.71-7-62.398-18.895-133.71-17.489-192.94 18.285 2.109 60.278 78.789 95.309 142.56-12.039-101.23-41.75-163.18-67.203-215.51 7.535-3.75 41.133 5.664 50.183 1.25-17.168-43.672-41.074-70.039-59.375-105.19-10.14 21.93-25.359 42.461-38.988 50.051-2.25 15.57-15.699 28.871-30.875 22.25-18.019 0.43-36.383-6.5-34.891-19.32 6.625 2.89 4.504 2.109 11.887 0.691 2.27-0.429 4.09-1.511 5.68-2.949-1.344-11.934 9.598-22.113 20.621-25.57 23.535-0.922 34.875-19.453 44.711-41.293-21.699 5.57-52.172 8.812-69.688 3.793-11.765 9.75-31.996 7.558-37.464-6.621-12.875-12.641-20.707-30.621-10.481-38.493 2.535 6.75 1.629 4.704 7.797 9 1.887 1.332 3.918 1.891 6.066 2.032 7.539-6.739 22.598-3.18 32.707 1.519 28.579 9.09 42.954 4.531 58.715-4.347-14.914-21.493-27.148-40.313-32.183-47.52-12.11 0.777-17.938-19.57-9.95-35.473 2.309-17.871 12.508-31.89 24.657-28.437-4.282 6.84-9.211 10.648 0.265 22.269 10.246 1.661 14.696 0.899 16.2 12.188 5.738 30.91 29.562 58.32 41.054 70.68 30.321 8.5 47.074 12.261 66.031-4.528 7.469-9.883 18.852-10.332 30.297-7.293 2.059-0.597 6.203-3.859 7.746-5.578 5.075-5.551 4.637-5.609 5.614-12.781 8.976 5.43 4.726 27-1.735 42.133-1.355 16.918-20.336 24.398-35.453 17.5-13.652 7.168-23.226 4.078-48.414 7.418 11.883 17.371 59.57 100.69 68.453 108.56 7.989-4.648 21.617-33.707 25.59-43.027 4.52 9.508 15.152 47.051 19.91 59.551 13.102 34.433 23.403 68.359 32.657 96.816 3.226-13.848 7.8-31.66 10.32-43.691 10.433-49.981 17.101-84.375 23.183-113.05-23.836-6.969-39.535-18.668-39.535-31.891 0-15.789 16.731-29.398 48.614-35.39 15.179-121.2-85.594-161.49-152.23-106.7-39.434-23.461-6.055-106.68 63.574-94.609-2.285-10.711-5.949-39.668 3.129-67.129 29.762 2.559 54.793 9.469 70.344 19.488 7.613-34.359 25.242-59.179 56.203-75.16 0.09-0.0508 0.145-0.0703 0.254-0.1289 0.102 0.0391 0.191 0.0781 0.277 0.1289 30.965 15.98 48.598 40.801 56.207 75.16 15.547-10.019 40.582-16.929 70.344-19.488 9.074 27.461 5.414 56.418 3.129 67.129 69.629-12.07 103.01 71.148 63.574 94.609-66.633-54.789-167.41-14.5-152.23 106.7 31.883 5.992 48.613 19.601 48.613 35.39 0 13.223-15.699 24.922-39.535 31.891 6.082 28.672 12.746 63.066 23.183 113.05 2.516 12.031 7.098 29.843 10.321 43.691 9.254-28.457 19.554-62.383 32.66-96.816 4.754-12.5 15.391-50.043 19.902-59.551 3.981 9.32 17.606 38.379 25.598 43.027 8.887-7.867 56.566-91.187 68.445-108.56-25.183-3.34-34.761-0.25-48.414-7.418-15.109 6.898-34.094-0.582-35.453-17.5-6.461-15.133-10.703-36.703-1.73-42.133 0.98 7.172 0.546 7.23 5.613 12.781 1.543 1.719 5.687 4.981 7.75 5.578 11.437-3.039 22.82-2.59 30.293 7.293 18.953 16.789 35.711 13.028 66.027 4.528 11.5-12.36 35.324-39.77 41.059-70.68 1.504-11.289 5.949-10.527 16.199-12.188 9.477-11.621 4.547-15.429 0.273-22.269 12.137-3.453 22.34 10.566 24.649 28.437 7.988 15.903 2.156 36.25-9.945 35.473-5.039 7.207-17.278 26.027-32.188 47.52 15.766 8.878 30.141 13.437 58.719 4.347 10.101-4.699 25.157-8.258 32.697-1.519 2.15-0.141 4.18-0.7 6.07-2.032 6.17-4.296 5.26-2.25 7.8-9 10.23 7.872 2.4 25.852-10.48 38.493-5.47 14.179-25.693 16.371-37.466 6.621-17.508 5.019-47.988 1.777-69.684-3.793 9.836 21.84 21.172 40.371 44.707 41.293 11.024 3.457 21.961 13.636 20.618 25.57 1.593 1.438 3.418 2.52 5.679 2.949 7.383 1.418 5.266 2.199 11.891-0.691 1.485 12.82-16.871 19.75-34.895 19.32-15.175 6.621-28.621-6.68-30.871-22.25-13.625-7.59-28.847-28.121-38.984-50.051-18.301 35.153-42.207 61.52-59.379 105.19 9.051 4.414 42.648-5 50.184-1.25-25.454 52.324-55.165 114.28-67.2 215.51 35.028-63.77 77.02-140.45 95.305-142.56 1.41 59.238-10.488 130.55-17.488 192.94 26.035-66.148 92.359-283.22 187.34-267.71 22.06 3.614 47.84 32.207 49.84 73.868-8.99-10.567-22.86-21.094-39.49-21.914-38.28-1.895-82.07 142.26-97.76 304.37 11.95-45.926 61.22-171.22 115.16-167.96 36.23 2.187 50.92 27.207 51.02 61.754-8.95-5.469-13-11.793-28.8-13.981-38.55-5.332-57.2 193.93-54.7 228.41 4.71-30.418 27.56-100.99 65.23-101.43 24.38-0.278 51.59 20.011 49.9 53.308-44.28-27.578-39.21 14.946-37.14 66.473 0.46 10.41 0.96 20.895 1.48 31.325 0.21 4.44 0.43 8.87 0.65 13.28h0.34c1.7 34.56 2.22 68.13 0.52 102.68-0.04 0.72-0.07 1.42-0.1 2.13-0.04 0.71-0.08 1.42-0.11 2.12h-0.01c-2.06 39.52-11.82 107.82-25.77 144.26-0.29 0.74-0.57 1.47-0.85 2.2h-0.01c-0.28 0.73-0.57 1.45-0.86 2.17h-0.01c-0.28 0.73-0.57 1.45-0.87 2.17s-0.6 1.43-0.9 2.14c-1.49 3.53-3.07 7.02-4.74 10.48-0.33 0.69-0.65 1.37-0.99 2.05h-0.01c-0.33 0.67-0.67 1.35-1.01 2.02h-0.01c-23.46 46.21-64.02 80.2-115.21 91.15-0.69 0.15-1.36 0.29-2.06 0.43-0.68 0.14-1.36 0.27-2.05 0.41-0.69 0.13-1.37 0.25-2.06 0.37-0.7 0.13-1.39 0.25-2.08 0.36-0.692 0.11-1.379 0.21-2.079 0.32h-3e-3c-0.692 0.1-1.387 0.2-2.083 0.29h-7e-3c-0.696 0.1-1.395 0.19-2.09 0.27-0.699 0.09-1.403 0.17-2.102 0.25-1.41 0.15-2.812 0.28-4.218 0.38-0.711 0.06-1.415 0.1-2.118 0.16h-7e-3c-45.969 2.96-100.7-19.19-116.61-65.85-0.383-1.13-0.742-2.24-1.078-3.37-0.168-0.58-0.332-1.15-0.492-1.73-0.164-0.57-0.305-1.16-0.457-1.75-7.586-30.23 0.617-61.73 17.199-87.46 0.293-0.45 0.574-0.89 0.867-1.34 0.289-0.43 0.582-0.87 0.887-1.31 0.297-0.43 0.598-0.87 0.891-1.3 0.304-0.44 0.601-0.86 0.91-1.29 0.297-0.43 0.605-0.85 0.902-1.26h0.012c0.304-0.43 0.609-0.85 0.918-1.26 0.304-0.42 0.613-0.83 0.922-1.24h7e-3c0.309-0.42 0.618-0.82 0.934-1.23 0.309-0.4 0.625-0.8 0.938-1.2h7e-3c0.309-0.4 0.633-0.81 0.946-1.2 0.32-0.39 0.644-0.78 0.953-1.17h8e-3c0.312-0.39 0.628-0.78 0.961-1.16 0.32-0.39 0.64-0.76 0.957-1.15h3e-3c0.325-0.37 0.641-0.75 0.973-1.12 21.82-25.17 50.84-40.11 80.992-52.39 0.43-0.18 0.864-0.35 1.285-0.53h8e-3c0.43-0.17 0.856-0.34 1.285-0.52 0.43-0.17 0.864-0.34 1.293-0.52-22.91-12.97-37.41-29.37-51.312-58.27-30.582-7.25-57.957-28.39-72.277-60.36-6.747 0.56-13.606 0.68-20.415 0.24v0.01" fill="#1a1412"/><path id="path64" d="m680.24 1342.9c1.418 4.08 0.656 3.78 4.246 4.7 5.457-0.54 19.473-17.44 23.063-13.83-6.613 18.15-47.766 51.8-74.637 40.69-1.93-0.8-1.805-4.67-0.894-5.71 2.378-2.68 5.281-6.13 6.125-9.39-12.641-31.85 33.386-41.46 42.097-16.46zm-6.605 8.91c-5.555-31.54-39.317-8.27-25.61 6.07 0 1.36 0.336 4.31 0.45 5.6 3.046-0.05 8.304-1.9 11.269-4.02 1.516-2.26 2.594-7.09 0.82-7.53-15.015-3.72-6.086-7.76 3.227-5.7 3.508 0.77 4.012 6.77 3.656 9.67 1.848-1.03 4.813-3.04 6.188-4.09" fill="#fff"/><path id="path66" d="m1067.1 1160.2c-0.23-241.01-213.77-351.61-432.8-351.61-219.02 0-432.56 110.6-432.8 351.61 59.196-157.72 181.5-260.43 405.07-268.2 13.339 54.652 13.339 65.559 14.027 77.125-11.625-0.68-22.559-0.68-77.785-14.184v55.79c55.226-13.504 66.16-13.504 77.785-14.184-0.688 11.614-0.688 22.544-14.188 77.784h55.786c-13.504-55.24-13.504-66.17-14.184-77.784 11.613 0.68 22.555 0.68 77.785 14.184v-55.79c-55.23 13.504-66.172 13.504-77.785 14.184 0.68-11.566 0.684-22.473 14.023-77.125 223.57 7.774 345.87 110.48 405.06 268.2" fill="#fff"/></g></g></svg>
