<?xml version="1.0" encoding="UTF-8" standalone="no"?>
<!-- Creator: CorelDRAW -->
<svg
   xmlns:dc="http://purl.org/dc/elements/1.1/"
   xmlns:cc="http://web.resource.org/cc/"
   xmlns:rdf="http://www.w3.org/1999/02/22-rdf-syntax-ns#"
   xmlns:svg="http://www.w3.org/2000/svg"
   xmlns="http://www.w3.org/2000/svg"
   xmlns:sodipodi="http://sodipodi.sourceforge.net/DTD/sodipodi-0.dtd"
   xmlns:inkscape="http://www.inkscape.org/namespaces/inkscape"
   xml:space="preserve"
   width="800"
   height="500"
   style="shape-rendering:geometricPrecision; text-rendering:geometricPrecision; image-rendering:optimizeQuality; fill-rule:evenodd; clip-rule:evenodd"
   viewBox="0 0 210 297"
   id="svg2"
   sodipodi:version="0.32"
   inkscape:version="0.45.1"
   sodipodi:docname="POL województwo dolnośląskie flag.svg"
   inkscape:output_extension="org.inkscape.output.svg.inkscape"
   sodipodi:docbase="C:\Users\Mistrz\Desktop"
   version="1.0"><metadata
   id="metadata17"><rdf:RDF><cc:Work
       rdf:about=""><dc:format>image/svg+xml</dc:format><dc:type
         rdf:resource="http://purl.org/dc/dcmitype/StillImage" /></cc:Work></rdf:RDF></metadata><sodipodi:namedview
   inkscape:window-height="480"
   inkscape:window-width="640"
   inkscape:pageshadow="2"
   inkscape:pageopacity="0.0"
   guidetolerance="10.0"
   gridtolerance="10.0"
   objecttolerance="10.0"
   borderopacity="1.0"
   bordercolor="#666666"
   pagecolor="#ffffff"
   id="base" />
 <defs
   id="defs4">
  <style
   type="text/css"
   id="style6">
   
    .fil1 {fill:#0A0B0C}
    .fil0 {fill:#FACF00}
    .fil2 {fill:white}
   
  </style>
 </defs>
 <g
   id="Warstwa_x0020_1"
   transform="matrix(2.2628571,0,0,2.2628571,-132.6,-187.53428)">
  <metadata
   id="CorelCorpID_0Corel-Layer" />
  <rect
   class="fil0"
   y="82.875"
   width="210"
   height="131.25"
   id="rect10"
   x="0"
   style="fill:#facf00" />
  <g
   id="_75731968">
   <path
   id="_75732112"
   class="fil1"
   d="M 122.119,125.019 C 123.2139,122.5744 125.3079,120.9574 127.6468,120.4029 C 128.6089,118.4022 129.6729,117.0704 131.5713,115.9463 C 131.5382,115.933 131.5053,115.9198 131.4723,115.9065 C 131.4723,115.9065 131.4722,115.9065 131.4722,115.9065 C 131.4393,115.8932 131.4064,115.8798 131.3735,115.8665 C 131.3735,115.8665 131.3733,115.8665 131.3733,115.8665 C 131.3405,115.8531 131.3077,115.8398 131.275,115.8264 C 131.275,115.8264 131.2747,115.8264 131.2747,115.8264 C 126.7206,114.1911 121.6935,110.2057 122.6985,104.1347 C 123.3424,100.2448 127.4993,98.2428 131.1787,98.2333 C 135.7697,98.2215 139.9384,100.994 142.151,104.981 C 144.4833,109.1834 145.0286,114.4559 145.2082,119.1601 C 145.3515,122.9147 145.0969,126.671 144.9318,130.4197 C 144.7695,134.1043 144.568,136.9649 147.7964,134.9545 C 147.9248,137.5009 145.8435,139.0531 143.9793,139.0313 C 141.0981,138.9976 139.3511,133.5998 138.9906,131.2738 C 138.7995,133.9106 140.2259,149.1511 143.1738,148.7428 C 144.3831,148.5755 144.6924,148.0922 145.3772,147.6735 C 145.3692,150.3164 144.2456,152.2294 141.475,152.3966 C 137.3489,152.646 133.5817,143.0627 132.6671,139.5511 C 133.8673,151.9485 137.2165,162.9734 140.1435,162.8289 C 141.4159,162.7662 142.477,161.9602 143.1639,161.1525 C 143.0105,164.3394 141.0395,166.5265 139.3528,166.8026 C 132.0885,167.9889 127.0152,151.3864 125.0241,146.3278 C 125.5599,151.1005 126.4698,156.5539 126.362,161.0847 C 124.9635,160.9228 121.7522,155.058 119.0733,150.1818 C 119.9933,157.923 122.2657,162.6623 124.2128,166.6639 C 123.6365,166.9505 121.0663,166.2298 120.3741,166.5674 C 121.6874,169.9077 123.5161,171.9248 124.9154,174.6128 C 125.6911,172.9354 126.8551,171.3662 127.8974,170.7851 C 128.069,169.5945 129.0976,168.5767 130.2584,169.0834 C 131.6367,169.0502 133.041,169.5799 132.927,170.5614 C 132.4746,170.3629 131.9675,170.3843 131.5833,170.7332 C 131.6861,171.6472 130.8497,172.4258 130.0062,172.6882 C 128.2064,172.759 127.3396,174.1762 126.5871,175.8465 C 128.2462,175.4204 130.5773,175.1726 131.9165,175.5572 C 132.8168,174.8119 134.3638,174.9786 134.7823,176.0639 C 135.7669,177.0292 136.366,178.4053 135.5828,179.0078 C 135.41,178.5449 135.0409,178.1961 134.523,178.164 C 133.9467,178.6799 132.7948,178.4075 132.0219,178.0476 C 129.8361,177.3526 128.737,177.6996 127.5314,178.3804 C 128.6716,180.0228 129.6075,181.4637 129.9926,182.0144 C 130.9189,181.9543 131.3648,183.5114 130.7537,184.7264 C 130.5772,186.0931 129.7968,187.1665 128.8682,186.902 C 129.1951,186.3783 129.5725,186.0884 128.8476,185.1997 C 128.064,185.0712 127.7239,185.13 127.6082,184.2669 C 127.17,181.9026 125.3479,179.8079 124.4686,178.8602 C 122.1499,178.2106 120.8683,177.9232 119.4187,179.2078 C 118.8474,179.9627 117.977,179.9981 117.1018,179.7646 C 116.494,179.9427 116.1575,180.6013 116.08,181.1691 C 115.3937,180.7539 115.7187,179.1056 116.2125,177.9472 C 116.3163,176.654 117.7678,176.0805 118.9238,176.6089 C 119.9683,176.0614 120.7006,176.2965 122.6263,176.0409 C 121.7182,174.7125 118.071,168.3405 117.3915,167.7379 C 116.7803,168.0952 115.738,170.3168 115.4344,171.0294 C 113.9241,167.516 112.7231,162.8064 111.4142,159.0706 C 110.4857,163.0555 109.7001,167.0552 108.8517,171.0582 C 110.6749,171.591 111.8755,172.4861 111.8755,173.4973 C 111.8755,174.7041 110.596,175.746 108.1574,176.2036 C 106.9962,185.4717 114.7041,188.5541 119.8,184.3634 C 122.816,186.1593 120.263,192.524 114.9378,191.5997 C 115.1125,192.4182 115.3931,194.634 114.6984,196.7342 C 112.4227,196.5387 110.5078,196.0094 109.319,195.2441 C 108.7365,197.871 107.3882,199.7687 105.0204,200.9913 C 105.0135,200.9949 105.0067,200.9977 104.9987,201.0005 C 104.9901,200.9969 104.9863,200.9949 104.9794,200.9913 C 102.6115,199.7687 101.263,197.871 100.6806,195.2441 C 99.4918,196.0094 97.5771,196.5387 95.3012,196.7342 C 94.6066,194.634 94.887,192.4182 95.0618,191.5997 C 89.7366,192.524 87.1839,186.1593 90.1997,184.3634 C 95.2956,188.5541 103.0034,185.4717 101.8424,176.2036 C 99.4037,175.746 98.1242,174.7041 98.1242,173.4973 C 98.1242,172.4861 99.3247,171.591 101.148,171.0582 C 100.2995,167.0556 99.5142,163.0558 98.5853,159.0706 C 97.3256,162.5315 96.1528,167.0356 94.5651,171.0294 C 94.2616,170.3168 93.2195,168.0952 92.6081,167.7379 C 91.9287,168.3405 88.2815,174.7125 87.3732,176.0409 C 89.2992,176.2965 90.0313,176.0614 91.076,176.6089 C 92.2319,176.0805 93.6833,176.654 93.787,177.9472 C 94.281,179.1056 94.606,180.7539 93.9196,181.1691 C 93.8423,180.6013 93.5061,179.9428 92.8977,179.7646 C 92.0224,179.9981 91.1522,179.9627 90.581,179.2078 C 89.1312,177.9232 87.8498,178.2106 85.531,178.8602 C 84.6516,179.8079 82.8296,181.9026 82.3914,184.2669 C 82.2757,185.13 81.9358,185.0712 81.1518,185.1997 C 80.427,186.0884 80.8046,186.3783 81.1316,186.902 C 80.2027,187.1665 79.4225,186.0931 79.2461,184.7264 C 78.6348,183.5114 79.0807,181.9543 80.007,182.0144 C 80.3919,181.4637 81.328,180.0228 82.4683,178.3804 C 81.2628,177.6996 80.1635,177.3526 77.9776,178.0476 C 77.2049,178.4075 76.0528,178.6799 75.4765,178.164 C 74.9596,178.1961 74.5898,178.5445 74.4167,179.0078 C 73.6337,178.4053 74.2329,177.0292 75.2173,176.0639 C 75.6358,174.9786 77.183,174.8119 78.0831,175.5572 C 79.4222,175.1726 81.7533,175.4204 83.4125,175.8465 C 82.6599,174.1762 81.7931,172.759 79.9935,172.6882 C 79.1499,172.4258 78.3137,171.6472 78.4162,170.7332 C 78.0325,170.3845 77.5254,170.3627 77.0725,170.5614 C 76.9587,169.5799 78.3629,169.0502 79.7412,169.0834 C 80.9019,168.5767 81.9307,169.5945 82.1022,170.7851 C 83.1446,171.3662 84.3087,172.9354 85.0842,174.6128 C 86.4837,171.9248 88.3121,169.9077 89.6254,166.5674 C 88.9332,166.2298 86.363,166.9505 85.7868,166.6639 C 87.7339,162.6623 90.0065,157.923 90.9265,150.1818 C 88.2475,155.058 85.0361,160.9228 83.6377,161.0847 C 83.5298,156.5539 84.4396,151.1005 84.9756,146.3278 C 82.9846,151.3864 77.9111,167.9889 70.6469,166.8026 C 68.9602,166.5265 66.9892,164.3394 66.8357,161.1525 C 67.5225,161.9602 68.5838,162.7662 69.8561,162.8289 C 72.7832,162.9734 76.1322,151.9485 77.3325,139.5511 C 76.418,143.0627 72.6506,152.646 68.5248,152.3966 C 65.754,152.2294 64.6303,150.3164 64.6225,147.6735 C 65.3072,148.0922 65.6165,148.5755 66.8257,148.7428 C 69.7739,149.1511 71.2003,133.9106 71.0089,131.2738 C 70.6484,133.5998 68.9014,138.9976 66.0204,139.0313 C 64.1561,139.0531 62.0748,137.5009 62.2032,134.9545 C 65.5903,137.0638 65.2032,133.8112 65.0445,129.8705 C 64.8187,124.8223 64.5205,119.8218 65.1696,114.7785 C 65.5864,111.5401 66.1931,108.131 67.747,105.2156 C 69.9306,101.1204 73.8868,98.4545 78.5123,98.2377 C 82.2462,98.1259 86.5041,100.137 87.3165,104.0821 C 88.5574,109.9902 83.2618,113.9951 78.4544,115.9463 C 80.207,116.9385 81.3158,118.1923 82.3789,120.4029 C 84.7178,120.9574 86.8117,122.5744 87.9066,125.019 C 89.3419,124.9009 90.8444,125.037 92.133,125.6518 C 92.1332,125.6519 92.1336,125.6521 92.134,125.6523 C 92.1346,125.6526 92.1351,125.653 92.1359,125.6532 C 92.1368,125.6537 92.1379,125.6542 92.1388,125.6547 C 92.1388,125.6547 92.139,125.6547 92.139,125.6547 C 92.1401,125.6551 92.1409,125.6557 92.1419,125.6561 C 92.1421,125.6563 92.1424,125.6564 92.1427,125.6565 C 92.1474,125.6587 92.1521,125.6611 92.1569,125.6634 C 92.157,125.6634 92.157,125.6635 92.1571,125.6635 C 92.1667,125.6682 92.1765,125.6729 92.1863,125.6777 C 92.1868,125.6771 92.1873,125.6764 92.1877,125.6757 C 92.188,125.6751 92.1884,125.6745 92.1887,125.674 C 92.1888,125.6738 92.189,125.6736 92.1891,125.6735 C 92.1909,125.6707 92.1928,125.6679 92.1946,125.6652 C 92.1948,125.6646 92.1952,125.6641 92.1956,125.6635 C 92.1961,125.6628 92.1966,125.6621 92.197,125.6615 C 92.1974,125.661 92.1976,125.6604 92.198,125.6598 C 92.1999,125.657 92.2019,125.654 92.2037,125.6512 C 92.2041,125.6506 92.2043,125.65 92.2047,125.6495 C 92.9658,124.481 93.8812,123.4316 95.486,122.5393 C 99.8193,120.1303 101.5927,114.5388 99.796,110.0626 C 98.5892,107.0565 95.9733,103.6638 94.1722,104.8896 C 94.0873,104.2178 94.4324,103.4793 94.9872,103.339 C 96.7698,102.8814 99.7309,104.7249 100.3479,106.4183 C 101.3158,106.0169 100.6403,105.0027 100.2983,104.4244 C 99.3461,102.8152 96.2522,100.6966 93.977,101.9089 C 93.1715,102.3358 93.3117,103.2454 93.0135,103.2849 C 92.1268,102.3835 91.8963,100.3885 92.0822,99.0264 C 92.3958,96.726 94.78,95.8984 96.8768,96.0104 C 98.685,96.1046 100.4975,97.303 102.1167,98.0488 C 103.1821,98.5376 103.553,98.6651 104.8347,98.0736 C 105.2546,97.8799 107.0523,97.5181 107.8767,97.7946 C 114.411,99.9871 116.7747,103.2544 116.9896,109.4156 C 117.0139,110.112 116.6416,110.7223 116.9831,111.6186 C 116.2567,111.7721 115.8145,110.8351 115.4914,110.4184 C 114.3691,111.7813 113.1144,113.8905 113.8915,115.7293 C 113.9419,116.0779 113.9108,116.3305 114.033,116.7075 C 112.2728,116.9042 112.0538,115.1478 111.3995,114.0478 C 111.1198,114.5366 110.7944,114.8072 110.4736,115.0049 C 110.1386,117.7852 111.7817,120.7737 114.8986,122.5393 C 116.454,123.4031 117.4003,124.5712 118.0407,125.5751 C 119.3087,125.018 120.7517,124.9066 122.119,125.019 L 122.119,125.019 z "
   style="fill:#0a0b0c" />
   <path
   id="_75732040"
   class="fil2"
   d="M 138.141,116.668 C 138.1228,135.1005 121.7911,143.5587 105.0405,143.5587 C 88.2899,143.5587 71.9582,135.1005 71.94,116.668 C 76.4671,128.7301 85.8211,136.5851 102.9195,137.1802 C 103.9397,133.0003 103.9401,132.1665 103.9923,131.2814 C 103.1036,131.3336 102.2672,131.3336 98.043,132.3666 C 98.043,130.9443 98.043,129.522 98.043,128.0997 C 102.2672,129.1327 103.1036,129.1327 103.9923,129.1849 C 103.94,128.2962 103.94,127.4598 102.9071,123.2357 C 104.3293,123.2357 105.7515,123.2357 107.1738,123.2357 C 106.141,127.4598 106.141,128.2962 106.0886,129.1849 C 106.9775,129.1327 107.8138,129.1327 112.0379,128.0997 C 112.0379,129.522 112.0379,130.9443 112.0379,132.3666 C 107.8138,131.3336 106.9775,131.3336 106.0886,131.2814 C 106.1409,132.1665 106.1412,133.0003 107.1616,137.1802 C 124.26,136.5851 133.6139,128.7301 138.141,116.668 z M 108.5519,102.6999 C 108.6599,102.3883 108.6018,102.4112 108.8758,102.3406 C 109.2938,102.3818 110.3657,103.6742 110.6401,103.3983 C 110.1346,102.0102 106.9868,99.4365 104.9321,100.2861 C 104.7845,100.3472 104.7938,100.6434 104.8639,100.7228 C 105.0454,100.9282 105.2676,101.1917 105.332,101.4414 C 104.365,103.8767 107.8859,104.6118 108.5519,102.6999 L 108.5519,102.6999 z "
   style="fill:#ffffff" />
   <path
   id="_75731896"
   class="fil1"
   d="M 108.046,102.019 C 107.6207,104.4306 105.0387,102.6517 106.0872,101.554 C 106.0872,101.4503 106.1132,101.2246 106.1215,101.1261 C 106.3546,101.1295 106.7573,101.2713 106.984,101.4333 C 107.0993,101.6065 107.1821,101.976 107.0461,102.0097 C 105.8984,102.2941 106.581,102.6026 107.2932,102.4451 C 107.5613,102.3858 107.5997,101.9278 107.573,101.7061 C 107.714,101.7845 107.9405,101.9379 108.046,102.019 z "
   style="fill:#0a0b0c" />
  </g>
 </g>
</svg>