<?xml version="1.0" encoding="UTF-8" standalone="no"?>
<svg
   xmlns:dc="http://purl.org/dc/elements/1.1/"
   xmlns:cc="http://web.resource.org/cc/"
   xmlns:rdf="http://www.w3.org/1999/02/22-rdf-syntax-ns#"
   xmlns:svg="http://www.w3.org/2000/svg"
   xmlns="http://www.w3.org/2000/svg"
   xmlns:sodipodi="http://sodipodi.sourceforge.net/DTD/sodipodi-0.dtd"
   xmlns:inkscape="http://www.inkscape.org/namespaces/inkscape"
   width="800"
   height="500"
   id="svg2"
   sodipodi:version="0.32"
   inkscape:version="0.45.1"
   sodipodi:docname="POL_województwo_mazowieckie_flag.svg"
   inkscape:output_extension="org.inkscape.output.svg.inkscape"
   sodipodi:docbase="C:\Users\Mistrz\Desktop\Herby"
   version="1.0">
  <metadata
     id="metadata29">
    <rdf:RDF>
      <cc:Work
         rdf:about="">
        <dc:format>image/svg+xml</dc:format>
        <dc:type
           rdf:resource="http://purl.org/dc/dcmitype/StillImage" />
      </cc:Work>
    </rdf:RDF>
  </metadata>
  <sodipodi:namedview
     inkscape:window-height="480"
     inkscape:window-width="640"
     inkscape:pageshadow="2"
     inkscape:pageopacity="0.0"
     guidetolerance="10.0"
     gridtolerance="10.0"
     objecttolerance="10.0"
     borderopacity="1.0"
     bordercolor="#666666"
     pagecolor="#ffffff"
     id="base" />
  <defs
     id="defs4"><marker
   id="ArrowEnd"
   viewBox="0 0 10 10"
   refX="0"
   refY="5"
   markerUnits="strokeWidth"
   markerWidth="4"
   markerHeight="3"
   orient="auto">
  <path
     d="M 0,0 L 10,5 L 0,10 L 0,0 z "
     id="path7" />
</marker>
<marker
   id="ArrowStart"
   viewBox="0 0 10 10"
   refX="10"
   refY="5"
   markerUnits="strokeWidth"
   markerWidth="4"
   markerHeight="3"
   orient="auto">
  <path
     d="M 10,0 L 0,5 L 10,10 L 10,0 z "
     id="path10" />
</marker>
<marker
   orient="auto"
   markerHeight="3"
   markerWidth="4"
   markerUnits="strokeWidth"
   refY="5"
   refX="10"
   viewBox="0 0 10 10"
   id="marker2261">
  <path
     id="path2263"
     d="M 10,0 L 0,5 L 10,10 L 10,0 z " />
</marker>
<marker
   orient="auto"
   markerHeight="3"
   markerWidth="4"
   markerUnits="strokeWidth"
   refY="5"
   refX="0"
   viewBox="0 0 10 10"
   id="marker2257">
  <path
     id="path2259"
     d="M 0,0 L 10,5 L 0,10 L 0,0 z " />
</marker>

 <style
   id="style6"
   type="text/css">
   
    .fil2 {fill:white}
    .fil1 {fill:#E60D2E}
    .fil4 {fill:#E6B012}
    .fil3 {fill:#1F1A17;fill-rule:nonzero}
    .fil0 {fill:black;fill-rule:nonzero}
   
  </style>

  
  <metadata
   id="CorelCorpID_0Corel-Layer" />

  
  
  
  
  
  
 </defs>
  <path
     style="fill:#e60d2e;fill-opacity:1;fill-rule:evenodd;stroke:none"
     d="M 0,-4.9665999e-008 L 799.99333,-4.9665999e-008 L 800,500 L 0,500 L 0,0.0065727193 L 0,-4.9665999e-008 z "
     id="path2194" />
  <g
     id="g2223"
     transform="matrix(1.4945044,0,0,1.4945044,-1167.0849,317.22139)">
    <path
       style="fill:#000000;fill-rule:nonzero"
       id="path14"
       d="M 994.91032,-100.75171 C 995.24104,-100.53635 995.63386,-100.38285 996.07328,-100.27725 C 997.29475,-99.983357 998.88711,-100.03222 1000.5718,-100.16666 L 1000.5945,-100.16666 C 1002.6941,-100.27857 1004.3902,-100.64755 1005.5882,-101.33235 C 1006.664,-101.94744 1007.3374,-102.83819 1007.5339,-104.05526 L 1007.6083,-111.28161 L 1007.6083,-111.29126 C 1007.6422,-112.83226 1007.3428,-113.94254 1006.8011,-114.73902 C 1006.2747,-115.51286 1005.495,-116.01711 1004.5578,-116.352 L 1004.5287,-116.36225 L 1004.477,-116.3874 C 1003.2113,-117.0001 1002.1901,-117.78633 1001.5101,-118.81354 C 1000.8219,-119.85363 1000.4971,-121.11097 1000.637,-122.64494 L 1000.6346,-122.64506 L 1001.0096,-131.20229 L 1001.0192,-131.27321 C 1001.185,-132.53675 1001.594,-133.6369 1002.2704,-134.55697 C 1002.9348,-135.46071 1003.8477,-136.17841 1005.0308,-136.69303 C 1007.4694,-138.38193 1009.7529,-140.1676 1011.0836,-142.54083 C 1012.4025,-144.89285 1012.8115,-147.89523 1011.5431,-152.0956 L 1010.9855,-153.94158 C 1013.7154,-152.55921 1016.1605,-151.24645 1017.8874,-148.54881 L 1048.2299,-176.82829 C 1048.4952,-177.21384 1048.6873,-177.59629 1048.8054,-177.97409 C 1048.9216,-178.34652 1048.9638,-178.72456 1048.9315,-179.10713 L 1048.9315,-179.11035 C 1048.7644,-181.17323 1049.0262,-182.42593 1049.4868,-183.09823 C 1050.0777,-183.96049 1051.0535,-184.08146 1051.9211,-183.56875 C 1052.6786,-183.12147 1053.402,-182.14872 1053.7123,-181.13081 L 1053.7103,-181.13033 C 1055.7587,-175.02474 1056.4037,-170.22918 1056.0268,-166.38754 C 1055.6409,-162.45019 1054.1945,-159.51288 1052.0854,-157.20079 L 1052.0847,-157.20163 C 1047.887,-152.40344 1043.7989,-147.76997 1039.7591,-143.3267 C 1035.9373,-139.12299 1032.108,-135.03178 1028.1898,-131.03842 C 1028.6938,-131.04235 1029.2055,-131.02841 1029.7259,-130.99635 C 1034.6178,-133.89922 1039.4639,-137.00445 1044.2246,-140.25258 C 1049.6765,-143.97254 1054.999,-147.86913 1060.1371,-151.85665 C 1060.6136,-152.29737 1061.0201,-152.8481 1061.3395,-153.53315 C 1061.7359,-154.3835 1061.9246,-155.26281 1062.0569,-156.18752 C 1062.2743,-157.36407 1062.731,-158.05793 1063.2438,-158.4088 C 1063.8292,-158.80924 1064.5626,-158.8214 1065.1602,-158.43931 C 1065.6269,-158.14136 1065.971,-157.61578 1066.0372,-157.03311 L 1066.0372,-157.03001 C 1068.3009,-136.20046 1064.1186,-133.08831 1059.4118,-129.58598 C 1058.859,-129.1748 1058.3091,-128.76173 1057.7746,-128.32875 L 1057.7704,-128.32601 C 1048.7396,-122.38775 1039.7069,-116.40992 1030.2715,-111.1262 C 1039.3158,-112.97194 1048.3098,-115.61487 1057.3035,-118.25745 C 1058.8867,-118.72249 1060.4599,-119.18515 1062.4808,-119.77199 L 1062.4803,-119.77342 C 1064.1349,-120.2903 1065.4148,-121.05031 1066.4341,-121.97908 C 1067.4512,-122.90582 1068.2209,-124.01288 1068.851,-125.22125 C 1069.4551,-126.65391 1071.1329,-128.45365 1072.5516,-126.88524 C 1072.9424,-126.45357 1073.1982,-125.78199 1073.2224,-124.97276 L 1073.2224,-124.96954 C 1073.4027,-118.12099 1072.279,-112.79448 1069.9637,-108.86035 C 1067.6195,-104.87724 1064.0795,-102.34193 1059.456,-101.12009 C 1051.8496,-98.640318 1044.2308,-96.626774 1036.6045,-94.935492 C 1033.8839,-94.332084 1031.1632,-93.769913 1028.4428,-93.24278 C 1032.1278,-93.138378 1035.8212,-93.051734 1039.5304,-92.999653 C 1046.5951,-92.900614 1053.7524,-92.926476 1061.0882,-93.194035 L 1061.1173,-93.194035 C 1065.2858,-93.204761 1066.9722,-94.664715 1068.679,-96.142069 C 1069.5372,-96.885275 1070.2156,-97.99043 1071.2943,-98.367396 C 1072.9329,-98.939817 1073.7818,-97.478314 1073.5925,-96.056736 L 1073.5861,-96.00978 L 1073.5763,-95.969497 C 1071.7926,-88.68248 1069.0057,-83.615308 1065.407,-80.347038 C 1061.7699,-77.043967 1057.3363,-75.586993 1052.2927,-75.544803 L 1052.2927,-75.544565 C 1044.1386,-75.19787 1036.033,-74.981678 1028.0007,-74.960464 C 1025.841,-74.954743 1023.6882,-74.963682 1021.5435,-74.987518 C 1025.8578,-73.733269 1030.2226,-72.557559 1034.6245,-71.440366 C 1042.9654,-69.323493 1051.4409,-67.416853 1059.9597,-65.578503 L 1059.9593,-65.576715 C 1061.5595,-65.29259 1062.9326,-65.385789 1064.1591,-65.720566 C 1065.9561,-66.210991 1067.8708,-68.125854 1069.3966,-68.25874 C 1071.1114,-68.408191 1071.8603,-66.62824 1071.2535,-65.261723 C 1067.8165,-59.361722 1064.7947,-54.859701 1060.5451,-52.22368 C 1056.2647,-49.56859 1050.8438,-48.862688 1042.6827,-50.615705 L 1042.6827,-50.615943 C 1034.101,-52.001648 1026.2188,-53.999342 1018.9045,-56.440384 C 1015.2013,-57.676041 1011.646,-59.024324 1008.2209,-60.462944 C 1008.3704,-60.177151 1008.512,-59.887782 1008.6465,-59.594599 C 1014.2892,-55.966048 1019.9243,-52.499343 1025.5508,-49.204973 C 1033.1016,-44.783637 1040.6629,-40.656913 1048.2347,-36.8484 C 1051.0462,-35.430875 1053.961,-35.090735 1056.9697,-36.072182 C 1060.6573,-37.721512 1061.8218,-34.57993 1059.4123,-32.354126 C 1054.9245,-28.210241 1050.3032,-25.372806 1045.5279,-24.046572 C 1040.7143,-22.709851 1035.767,-22.910311 1030.6698,-24.856996 L 1030.6115,-24.882858 C 1021.898,-29.006363 1014.0723,-33.294218 1007.3721,-37.828536 C 1010.0227,-32.480934 1012.6393,-27.452972 1015.387,-23.31886 C 1018.6465,-18.41413 1022.0877,-14.75924 1025.9893,-13.320262 L 1028.3627,-12.444886 L 1025.9312,-11.75102 C 1016.2912,-8.9999908 1009.5971,-13.939521 1004.7731,-20.227452 C 1009.0787,-11.56069 1013.8432,-4.3466116 1021.1509,-3.9847814 L 1026.2084,-3.7345036 L 1021.3349,-2.3639348 C 1019.4586,-1.8362062 1017.6827,-1.5455264 1015.9962,-1.4703239 L 1025.1807,10.938211 C 1026.1993,12.036334 1027.2743,12.655116 1028.4046,12.794318 C 1029.5556,12.935666 1030.8054,12.590997 1032.1534,11.759837 L 1032.1978,11.732545 L 1032.2439,11.711331 L 1045.8098,5.4978865 C 1047.6368,4.6616011 1050.4918,5.4462816 1052.0859,6.9369838 L 1053.3142,7.6813815 C 1055.4119,8.9523159 1056.6808,10.358996 1057.1937,12.004156 C 1057.9506,14.432565 1056.8975,16.630123 1055.8956,18.773693 C 1054.6217,16.893869 1053.3977,15.471099 1050.9928,14.933478 C 1050.9746,14.948018 1050.9566,14.962558 1050.9382,14.97686 C 1049.2112,16.324308 1046.7834,16.858591 1044.218,15.528186 L 1035.1413,18.283149 L 1047.7146,21.155503 C 1048.4067,21.313774 1048.9243,21.677869 1049.5146,22.056146 C 1051.487,23.321241 1052.5514,24.677627 1052.9571,25.973113 L 1052.964,25.960122 L 1052.9665,26.003742 C 1053.1631,26.647075 1053.2086,27.324851 1053.079,27.987014 C 1053.3788,30.286591 1053.3911,33.049419 1051.8315,35.243521 C 1050.416,37.26362 1048.2117,37.802909 1045.9877,38.371636 C 1046.4796,36.023911 1046.51,34.23216 1045.601,31.902313 C 1044.0211,31.501391 1042.5203,30.472869 1041.485,28.608657 L 1031.7963,24.708018 L 1037.7605,35.497136 C 1038.203,36.297548 1038.4012,36.729218 1038.571,37.683968 C 1038.9245,39.66879 1038.4253,41.130055 1037.4923,42.076581 L 1036.8659,43.251576 C 1035.5833,45.657818 1033.8826,46.971896 1031.8309,47.365428 C 1028.884,47.930579 1026.1769,46.540822 1023.6302,45.273821 C 1025.9287,44.058186 1028.523,43.054452 1029.3303,40.288764 C 1028.7209,39.114484 1028.4721,37.614128 1028.8303,35.807361 L 1024.7662,25.216678 C 1024.5726,24.72947 1024.6417,24.644376 1024.2932,24.898348 L 1015.7257,33.856029 C 1015.9136,36.254167 1015.104,37.809941 1013.855,38.700692 L 1013.8771,38.797704 C 1014.3444,40.853676 1016.2955,42.409213 1017.7651,43.765241 C 1015.459,44.657661 1013.4194,45.435786 1011.1019,43.869762 C 1009.6538,42.891653 1008.3518,41.141138 1006.757,38.682457 L 1006.2138,37.75345 C 1005.337,36.820986 1004.931,35.608092 1005.381,34.24825 C 1006.6237,30.114256 1009.9667,27.499092 1014.5867,23.884604 C 1015.2295,23.382022 1016.8521,22.218588 1017.9775,21.231898 C 1018.8809,20.439709 1019.3952,19.859064 1019.3437,19.08809 C 1019.2987,18.411386 1018.6787,17.742906 1018.2063,17.302775 L 997.29594,-2.1856416 C 996.12953,3.4995971 992.78904,8.0352266 989.30004,12.494819 L 989.28252,10.127549 C 989.21829,1.5111997 987.59184,-5.3559462 985.02208,-11.166443 C 982.63515,-16.563862 979.43028,-21.063976 975.90506,-25.212152 C 975.70424,-24.149186 975.4741,-23.114586 975.21536,-22.108826 C 976.94872,-10.557553 979.84646,-0.689338 984.44346,6.7204339 C 988.9897,14.048568 995.21542,18.976776 1003.6494,20.747908 L 1005.4428,21.124397 C 997.64311,26.977561 989.37489,27.436761 980.07886,27.228434 C 980.6688,28.296763 981.28651,29.349479 981.93258,30.383365 C 988.66434,41.155082 998.46057,49.923982 1011.5633,53.939987 L 1013.0961,54.409794 C 1010.3784,56.48567 1007.6526,58.363468 1004.5697,59.887064 C 1002.097,61.109492 999.55428,62.08498 996.91588,62.898978 L 996.91576,62.89874 C 990.51353,64.964366 987.68313,61.919558 983.97711,57.931918 C 981.87526,55.671433 979.80844,53.404393 977.87522,50.996005 C 978.43346,53.122532 978.7407,55.424373 978.67861,58.010696 C 978.56944,62.578146 977.03238,68.685401 974.48312,74.074239 C 972.27567,78.740252 969.29427,82.893671 965.79574,85.10136 L 965.29971,85.414326 L 964.84314,85.049635 C 960.88267,81.886482 957.69485,77.811959 955.37727,73.278475 C 952.9646,68.55907 951.49129,63.341255 951.06868,58.136788 C 950.9029,56.096905 951.12195,53.996359 951.60952,51.846115 C 950.42273,53.641322 949.18266,55.425207 947.89289,57.198365 C 946.41483,59.230025 944.95273,60.892942 943.13285,62.010373 C 941.27686,63.150091 939.10147,63.698676 936.24985,63.457694 L 936.23698,63.451139 C 931.62114,62.99182 927.82741,62.045293 924.63208,60.744683 C 921.41589,59.435491 918.80251,57.768165 916.56658,55.877375 L 915.50611,54.980428 L 916.80231,54.479276 C 930.7267,49.095443 940.83733,40.668352 947.68075,30.051925 C 948.27475,29.130426 948.84431,28.192004 949.38968,27.23773 C 940.18184,27.330214 932.44241,26.803796 924.79905,21.124397 L 926.59247,20.747908 C 935.02635,18.976776 941.25219,14.048568 945.79831,6.7204339 C 950.16363,-0.31594738 952.99677,-9.569194 954.75563,-20.375474 C 954.2863,-21.941855 953.93722,-23.550426 953.70339,-25.199161 C 950.13312,-21.013682 946.88463,-16.474716 944.47172,-11.018898 C 941.90208,-5.2084015 940.27575,1.6587444 940.21139,10.275094 L 940.19387,12.642364 L 938.73583,10.778867 C 935.04673,6.0631568 933.03176,1.9398898 932.21621,-1.947401 L 912.15835,16.750614 C 910.92782,17.853148 910.69399,18.810401 911.84169,20.079071 C 913.30975,21.293156 914.62108,22.319414 915.83863,23.2719 C 920.45875,26.886388 923.80163,29.501553 925.04444,33.635427 C 925.48362,34.962376 925.10772,36.149646 924.27466,37.072813 L 923.23088,38.68198 C 921.62874,41.151984 920.4317,42.752093 919.07257,43.582539 C 916.89802,44.911156 914.78305,43.973806 912.66022,43.152418 C 914.16212,41.766475 916.07818,40.252533 916.54822,38.184881 L 916.57027,38.087988 C 915.32139,37.197118 914.51168,35.641105 914.69974,33.243206 L 906.13214,24.285525 C 905.88591,24.060394 905.88651,24.077675 905.65911,24.603855 L 901.59496,35.194538 C 901.95321,37.000709 901.70365,38.501184 901.09488,39.675345 C 901.90316,42.441868 904.49568,43.445005 906.79514,44.660998 C 904.2485,45.927999 901.54133,47.317875 898.59437,46.752605 C 896.54269,46.359073 894.84211,45.045114 893.55937,42.638753 L 892.93332,41.464235 C 891.81005,40.324756 891.31498,38.438853 892.18022,35.792106 L 892.20513,35.715712 L 892.24148,35.650044 L 898.62905,24.095314 L 888.94032,27.995834 C 887.90512,29.859807 886.40417,30.888449 884.82444,31.289489 C 883.94179,33.619457 884.04953,35.411326 884.43758,37.758694 C 882.13264,37.169468 879.99122,36.582746 878.58096,34.433336 C 877.18942,32.312768 877.19335,29.722512 877.331,27.291719 C 877.34388,27.376456 877.32648,25.626895 877.63956,24.900851 C 878.25346,23.477962 879.68195,22.003588 882.24539,20.676043 L 882.33811,20.627775 L 882.43906,20.604773 L 895.28403,17.670326 L 886.20729,14.915363 C 883.64194,16.245768 881.21412,15.711485 879.48709,14.364156 C 879.46873,14.349854 879.45038,14.335314 879.43227,14.320894 C 877.11743,14.890335 875.91169,16.427041 874.52968,18.160989 L 873.96668,16.956438 C 872.98928,14.864592 872.71874,12.979762 873.22848,11.26965 C 873.73868,9.5583457 875.00914,8.0796807 877.11112,6.8062434 C 878.7154,5.5540202 881.87653,4.1227888 884.21674,4.7024799 L 897.53069,10.800558 C 899.00339,11.48906 900.28768,12.394351 902.02067,12.181495 C 903.15097,12.042293 904.22609,11.423392 905.24461,10.325507 L 913.85666,-1.3095502 C 912.0636,-1.3572222 910.169,-1.6511198 908.15891,-2.2163901 L 903.28553,-3.5869589 L 908.34304,-3.8372367 C 915.98033,-4.2152753 920.83989,-12.07805 925.30091,-21.2611 C 920.66672,-14.065971 914.6597,-8.4366274 903.56274,-11.603476 L 901.13111,-12.297341 L 903.50458,-13.172717 C 907.40617,-14.611696 910.84737,-18.266586 914.10694,-23.171315 C 917.42527,-28.164 920.55195,-34.459916 923.77863,-41.048658 L 923.77994,-41.047943 C 923.81677,-41.131488 923.85431,-41.214199 923.89197,-41.296314 C 922.61472,-40.322852 921.28574,-39.360832 919.90743,-38.410015 C 913.02217,-33.660219 904.90196,-29.182153 895.81664,-24.882858 L 895.75848,-24.856996 C 890.66116,-22.910311 885.714,-22.709851 880.9002,-24.046572 C 876.1249,-25.372806 871.50358,-28.210241 867.01598,-32.354126 C 866.26765,-33.04537 865.80667,-33.905014 865.72407,-34.627006 C 865.62515,-35.491299 866.04824,-36.255719 866.91266,-36.496343 C 868.47677,-36.932065 871.467,-35.380342 873.59841,-35.523358 C 875.05443,-35.621086 876.57791,-36.033806 878.19339,-36.8484 C 885.76525,-40.656913 893.3265,-44.783637 900.8775,-49.204973 C 906.72184,-52.626866 912.5756,-56.234799 918.43722,-60.016854 C 918.61897,-60.277262 918.80823,-60.538385 919.00583,-60.801296 C 915.33557,-59.235272 911.51561,-57.772458 907.52368,-56.440384 C 900.20949,-53.999342 892.32729,-52.001648 883.74551,-50.615943 L 883.74551,-50.615705 C 875.5843,-48.862688 870.16353,-49.56859 865.88318,-52.22368 C 861.63346,-54.859701 858.61178,-59.361722 855.17475,-65.261723 C 854.92018,-65.835097 854.88323,-66.551607 855.12696,-67.137376 C 855.44767,-67.909543 856.20804,-68.330605 857.03169,-68.25874 C 857.60971,-68.208446 858.27283,-67.916694 858.93535,-67.314716 C 859.96089,-66.630147 861.04745,-66.054031 862.26905,-65.720566 C 863.49553,-65.385789 864.86872,-65.29259 866.46895,-65.576715 L 866.46859,-65.578503 C 874.98721,-67.416853 883.46269,-69.323493 891.80362,-71.440366 C 896.20553,-72.557559 900.57049,-73.733269 904.88492,-74.987518 C 902.74016,-74.963801 900.58729,-74.954743 898.42752,-74.960464 C 890.39515,-74.981678 882.2896,-75.19787 874.13543,-75.544565 L 874.13543,-75.544803 C 869.09186,-75.586993 864.65825,-77.043967 861.02112,-80.347038 C 857.42248,-83.615308 854.6357,-88.68248 852.85193,-95.969497 L 852.84216,-96.00978 L 852.83572,-96.056736 C 852.64623,-97.477838 853.49526,-98.939937 855.13399,-98.367396 C 856.21268,-97.990311 856.89106,-96.885394 857.74927,-96.142069 C 859.45593,-94.664715 861.14244,-93.204761 865.311,-93.194035 L 865.34008,-93.194035 C 872.67584,-92.926476 879.83319,-92.900614 886.89769,-92.999653 C 890.60717,-93.051734 894.30067,-93.138378 897.98583,-93.24278 C 895.26532,-93.769913 892.54444,-94.331965 889.8238,-94.935492 C 882.19748,-96.626774 874.57866,-98.640318 866.97213,-101.12009 C 862.34878,-102.34193 858.80878,-104.87724 856.46439,-108.86035 C 854.14908,-112.79448 853.02546,-118.12099 853.20589,-124.96954 L 853.20589,-124.97276 C 853.23009,-125.78199 853.48585,-126.45357 853.87652,-126.88524 C 854.44727,-127.51618 855.29536,-127.63905 856.03344,-127.22538 C 856.58095,-126.91849 857.13192,-126.27695 857.57729,-125.22125 C 858.2074,-124.01288 858.97706,-122.90582 859.99402,-121.97908 C 861.01349,-121.05031 862.29336,-120.2903 863.94782,-119.77342 L 863.94746,-119.77199 C 865.96827,-119.18515 867.54157,-118.72249 869.12475,-118.25745 C 878.11807,-115.61499 887.11174,-112.97206 896.15571,-111.12632 C 887.7198,-115.85049 879.29294,-121.33301 870.88516,-126.86081 C 869.54033,-127.74453 868.30515,-128.62717 867.01646,-129.58598 C 862.30957,-133.08831 858.12731,-136.20046 860.39101,-157.03001 L 860.39101,-157.03311 C 860.45728,-157.61578 860.80123,-158.14136 861.26794,-158.43931 C 861.86562,-158.8214 862.59906,-158.80924 863.18447,-158.4088 C 863.69718,-158.05793 864.15388,-157.36407 864.37126,-156.18752 L 864.37782,-156.14224 C 864.58054,-154.56727 865.09528,-152.96264 866.29113,-151.85665 C 871.42922,-147.86913 876.75179,-143.97254 882.20356,-140.25258 C 887.03725,-136.95463 891.95867,-133.80423 896.9268,-130.86323 C 896.94933,-131.33709 896.98532,-131.81059 897.02238,-132.28421 C 893.526,-135.88189 890.09458,-139.55895 886.66899,-143.3267 C 882.62939,-147.76997 878.54128,-152.40344 874.34352,-157.20163 L 874.34269,-157.20079 C 872.23368,-159.51288 870.78719,-162.45019 870.40141,-166.38754 C 870.02456,-170.22918 870.66944,-175.02474 872.71779,-181.13033 L 872.71588,-181.13081 C 873.02623,-182.14872 873.74965,-183.12147 874.50716,-183.56875 C 875.37455,-184.08146 876.35051,-183.96049 876.94141,-183.09823 C 877.40204,-182.42593 877.66387,-181.17323 877.49666,-179.11035 L 877.49666,-179.10713 C 877.46437,-178.72456 877.50668,-178.34652 877.62288,-177.97409 C 877.74098,-177.59629 877.9331,-177.21384 878.19828,-176.82829 L 909.97283,-147.21411 C 910.02896,-147.30767 910.08617,-147.40111 910.14445,-147.49419 C 911.61132,-149.8369 913.7618,-152.03816 916.71424,-153.89736 L 918.56201,-155.06104 L 917.94442,-152.9674 C 917.23851,-150.57344 917.0197,-148.46848 917.30633,-146.66422 C 917.78889,-143.62799 919.57551,-142.06268 921.94755,-140.464 C 924.17002,-138.96579 926.17581,-137.24948 927.09076,-134.63789 C 927.5359,-133.36779 927.42804,-132.28814 927.42804,-131.00541 L 927.42804,-120.77655 C 927.47249,-119.66699 927.29086,-118.65098 926.81402,-117.74712 C 926.27724,-116.72992 925.32999,-115.86551 924.28657,-115.39105 C 921.97222,-114.32988 919.65763,-113.26834 919.98251,-110.88129 L 919.98573,-110.86186 L 920.68067,-104.60718 C 921.09506,-102.68886 921.60181,-101.44295 922.86142,-100.72823 C 924.91835,-99.561221 928.50971,-99.674681 930.71621,-99.674681 C 933.52457,-99.663597 935.24791,-99.835574 936.32696,-100.25568 C 936.61657,-100.36843 936.85767,-100.50358 937.06218,-100.66304 C 938.74155,-105.44728 941.70877,-110.16382 945.74182,-114.82388 C 944.26649,-115.12111 942.83764,-115.9189 941.47422,-116.53995 L 944.16685,-116.97329 C 948.07822,-117.60279 950.947,-119.60764 953.00083,-122.43184 C 955.41052,-125.74516 956.72329,-130.19272 957.29214,-134.89818 C 950.93806,-139.15743 948.47235,-139.27768 946.15334,-139.39043 C 943.49003,-139.51974 937.86498,-140.43564 938.45778,-144.23223 C 936.04617,-144.21006 933.66007,-144.32007 931.35597,-144.93897 C 928.33166,-145.75118 926.60248,-147.3085 924.7018,-149.6523 C 922.23036,-152.69984 924.04833,-152.60045 926.8574,-151.1045 C 927.55532,-150.73993 928.29173,-150.44782 929.06235,-150.22186 C 931.3512,-149.55099 933.73849,-149.57995 936.14521,-149.60903 C 936.85815,-149.61773 937.57323,-149.62619 938.29415,-149.61749 C 941.65812,-149.57519 944.26053,-149.37139 946.30399,-149.04519 C 946.16669,-149.57244 946.08946,-150.10291 946.01212,-150.63315 C 945.80343,-152.06426 945.59439,-153.49585 943.86736,-154.43212 C 943.31841,-154.72984 942.48248,-154.85772 941.59269,-154.90253 C 940.63698,-154.9508 939.62062,-154.89907 938.79554,-154.85319 C 937.64891,-154.78954 936.3943,-153.73921 935.49139,-152.98313 C 934.81457,-152.41655 934.28529,-151.97344 933.76114,-151.94305 C 933.08682,-151.90396 932.69722,-152.23325 932.64824,-153.07669 C 932.64824,-153.72074 932.7313,-154.39732 932.76015,-155.04673 C 932.93391,-158.92425 933.10791,-162.80201 938.47828,-163.39922 C 940.48622,-163.62232 942.54696,-163.55439 944.57397,-163.48777 C 945.16522,-163.46822 945.75433,-163.44832 946.32759,-163.43628 C 946.01843,-167.86501 946.95662,-170.77753 948.73311,-172.68476 C 950.6394,-174.7312 953.43786,-175.55676 956.66489,-175.82301 C 961.97817,-176.26064 967.05237,-175.08862 972.14112,-173.91267 C 978.47958,-172.44843 984.842,-170.97847 991.57304,-172.76283 L 992.23592,-172.9385 L 992.52875,-172.31733 C 993.56525,-170.11822 993.08699,-168.29024 991.82749,-166.65438 C 990.97464,-165.54684 989.76449,-164.55646 988.44648,-163.60194 C 991.25829,-162.95265 993.30246,-163.75402 995.72575,-164.82187 L 994.97122,-162.98662 C 993.98953,-160.59909 992.43674,-158.84893 990.51925,-157.50685 C 988.77863,-156.28883 986.73839,-155.41226 984.55633,-154.69956 C 983.57941,-147.44663 983.89476,-141.67987 985.15854,-137.10396 C 986.43484,-132.48324 988.68174,-129.07743 991.53824,-126.57895 L 992.41529,-125.81167 C 990.64964,-124.81616 989.47083,-124.49676 987.50055,-124.83046 C 987.72341,-122.70655 988.20919,-120.80385 989.08123,-119.22722 C 990.57646,-116.52469 992.76115,-115.59497 995.43912,-114.57872 C 993.79241,-113.63089 992.36988,-112.78197 990.40305,-112.59581 C 992.62969,-108.5307 994.08619,-104.59026 994.91032,-100.75171 L 994.91032,-100.75171 z "
       class="fil0" />
    <path
       style="fill:#ffffff"
       id="path16"
       d="M 898.79125,-132.83112 C 901.55635,-133.15804 904.3156,-132.88333 906.97105,-132.05276 C 902.14176,-137.5199 894.96391,-146.17772 890.87711,-152.01909 C 895.73155,-148.00451 906.28874,-134.93477 907.96465,-135.37001 C 907.73606,-136.412 907.61045,-137.49428 907.59889,-138.59717 C 907.57553,-140.81904 908.01482,-143.12863 909.01093,-145.36718 L 908.76137,-146.08834 L 877.77149,-174.97135 C 876.94343,-175.74304 876.402,-176.34657 876.04684,-177.48378 C 875.86235,-178.07491 875.7943,-178.66164 875.84328,-179.243 L 875.84352,-179.243 C 875.84793,-179.2983 876.00882,-182.17077 875.54486,-182.22428 C 874.87018,-181.98092 874.36557,-180.86527 874.28822,-180.63085 C 872.31186,-174.74753 871.68569,-170.17007 872.04132,-166.54307 C 872.3879,-163.00688 873.68017,-160.3761 875.56309,-158.31179 L 875.57274,-158.29892 C 879.71591,-153.56306 883.77876,-148.95914 887.88939,-144.4377 C 891.50841,-140.45733 895.1217,-136.59006 898.79125,-132.83112 L 898.79125,-132.83112 z M 896.89152,-128.97268 C 891.59612,-132.08029 886.37533,-135.4097 881.27336,-138.89035 C 875.78679,-142.63403 870.41833,-146.56589 865.2259,-150.59739 C 864.54908,-151.12357 863.94782,-152.06879 863.59004,-152.83619 C 863.19412,-153.68546 862.90678,-154.6967 862.74875,-155.89863 C 862.62289,-156.57534 862.43983,-156.91989 862.25427,-157.04669 C 862.15225,-157.11641 862.04034,-156.93693 862.03093,-156.85267 L 862.03069,-156.85267 C 859.86924,-136.95892 863.69373,-134.11302 867.99791,-130.9103 C 877.69367,-123.90884 888.91207,-117.13871 899.55055,-111.14277 C 901.28462,-111.62127 903.27575,-111.88514 905.56305,-111.90206 C 905.54851,-111.9309 905.53386,-111.95963 905.51932,-111.98835 C 903.84925,-113.16942 902.35938,-114.52009 901.10608,-116.09171 L 899.7584,-116.9833 C 894.69909,-120.67847 890.82431,-123.63222 885.28316,-127.91174 C 889.97802,-125.45258 895.07904,-122.41182 898.22062,-121.22014 C 897.39411,-123.46287 896.92585,-126.02428 896.89152,-128.97268 L 896.89152,-128.97268 z M 895.74013,-109.52597 C 886.67185,-111.38303 877.6653,-114.02942 868.65948,-116.67557 C 865.32542,-117.65511 861.51428,-118.36185 858.88315,-120.75892 C 857.78943,-121.75562 856.68082,-123.18995 856.07181,-124.54371 C 855.94143,-124.85859 855.20192,-126.51006 854.91815,-125.38822 C 854.88466,-125.25665 854.86393,-125.10219 854.85868,-124.92795 L 854.85856,-124.92795 C 854.68682,-118.38962 855.73048,-113.35415 857.88478,-109.69366 C 860.00225,-106.09574 863.21975,-103.80617 867.43347,-102.70257 L 867.48198,-102.68957 C 875.05812,-100.21969 882.62271,-98.219613 890.17884,-96.543706 C 893.50324,-95.806459 896.828,-95.131305 900.15264,-94.505848 C 899.7864,-94.615017 899.42481,-94.735151 899.06906,-94.867798 C 896.52838,-95.81504 894.29829,-97.370218 892.56637,-99.898977 C 888.49625,-103.92309 879.51367,-105.46027 872.47931,-107.62696 C 880.55625,-106.05152 886.46972,-104.89107 891.20247,-104.89619 L 891.24156,-104.89619 C 892.33385,-106.76529 893.79189,-108.34156 895.74013,-109.52597 L 895.74013,-109.52597 z M 898.17605,-91.594283 C 894.4456,-91.488452 890.69798,-91.399782 886.91676,-91.346747 C 879.81853,-91.247351 872.63353,-91.272974 865.28168,-91.541248 L 865.28168,-91.541487 C 860.52437,-91.560317 858.6088,-93.218467 856.67069,-94.896163 C 856.07658,-95.409828 855.57996,-96.088438 855.01838,-96.553002 C 854.54881,-96.94129 854.39197,-96.936522 854.46443,-96.312497 C 856.1643,-89.393865 858.77803,-84.613559 862.13163,-81.568155 C 865.4471,-78.557075 869.51936,-77.232033 874.17071,-77.198186 L 874.19979,-77.198186 C 882.35634,-76.851253 890.44401,-76.635061 898.42728,-76.614085 C 899.28156,-76.611821 900.13501,-76.612059 900.9875,-76.614204 C 897.90741,-77.467652 894.89002,-79.239737 891.96046,-82.290266 C 887.18158,-82.949689 880.3807,-83.224875 873.71842,-83.775605 C 879.92102,-84.120393 887.15691,-84.249465 892.1844,-85.019248 C 893.62194,-87.692095 895.58662,-89.911702 898.17605,-91.594283 L 898.17605,-91.594283 z M 907.36482,-73.998325 C 902.36534,-72.50941 897.30579,-71.133836 892.20382,-69.839065 C 883.54218,-67.640673 875.34976,-65.284605 866.48087,-63.909627 C 863.32069,-63.41801 860.60971,-64.202452 857.9601,-65.985026 C 857.63831,-66.236495 857.32153,-66.568292 856.88927,-66.606072 C 856.53602,-66.63694 856.59323,-66.242812 856.65711,-65.994203 C 859.94933,-60.349485 862.83039,-56.055552 866.74831,-53.625355 C 870.65741,-51.20064 875.70384,-50.576614 883.40298,-52.230473 L 883.44493,-52.236909 C 891.94639,-53.60724 899.7547,-55.585507 907.00048,-58.003429 C 908.87089,-58.627693 910.70459,-59.281871 912.50362,-59.962508 C 909.71719,-60.170358 906.72351,-61.292913 903.11212,-63.389049 C 900.25657,-62.966556 893.57725,-61.343684 884.45022,-60.2601 C 896.26488,-63.211352 899.60394,-64.512558 902.19193,-66.611674 L 902.63218,-66.804626 C 903.71088,-69.458286 905.26856,-71.866315 907.36482,-73.998325 L 907.36482,-73.998325 z M 916.60174,-56.882899 C 911.64421,-53.729876 906.68025,-50.694721 901.71021,-47.784706 C 894.10867,-43.333694 886.51668,-39.18957 878.93576,-35.37629 C 877.10039,-34.450858 875.3668,-33.981766 873.70794,-33.870452 C 872.04168,-33.758542 870.45051,-34.006437 868.90713,-34.514501 C 868.69702,-34.598403 867.31894,-35.201096 867.36411,-34.814715 C 867.40487,-34.456341 867.67874,-33.988083 868.13294,-33.56845 C 872.43271,-29.598091 876.82997,-26.887821 881.33914,-25.635598 C 885.80398,-24.395769 890.40313,-24.584074 895.15329,-26.394178 C 904.14946,-30.65331 912.17897,-35.080843 918.97091,-39.766401 C 922.63367,-42.293253 925.93662,-44.894951 928.83734,-47.585198 C 928.16588,-47.283554 927.48238,-47.03268 926.78649,-46.832577 C 924.0624,-46.04897 921.1705,-46.047659 918.11747,-46.799565 L 917.79985,-46.773107 C 913.87681,-44.586632 909.71707,-42.848632 901.00168,-38.4994 C 908.73896,-42.937063 912.37824,-45.816569 914.93131,-48.203146 L 914.9269,-48.378222 C 914.84776,-51.525048 915.34701,-54.222446 916.60174,-56.882899 L 916.60174,-56.882899 z M 944.85238,-49.473962 C 941.20619,-54.05333 938.53084,-59.0888 937.03203,-64.674643 C 935.42942,-70.646867 935.17461,-77.240733 936.51705,-84.56982 C 935.13659,-89.284696 935.16317,-93.939386 936.40348,-98.541041 C 934.63806,-98.005566 932.4616,-98.021894 930.70966,-98.021894 C 926.32038,-97.993052 923.72273,-98.344514 922.04742,-99.294854 C 920.18333,-100.35258 919.36885,-102.36362 919.04504,-104.38288 L 918.34522,-110.68142 L 918.34605,-110.68154 C 917.86981,-114.26087 920.73585,-115.57554 923.60189,-116.88974 C 924.3029,-117.20533 924.99307,-117.83138 925.35419,-118.51595 C 925.73616,-119.23961 925.77454,-119.9448 925.77454,-120.74473 L 925.77454,-131.43446 C 925.82316,-133.6462 925.47134,-134.88328 924.02354,-136.61258 C 922.48076,-138.45606 920.19191,-139.40819 918.46309,-141.05263 C 916.93556,-142.50567 916.01442,-144.29444 915.67881,-146.40607 C 915.44462,-147.87997 915.49968,-149.50487 915.83612,-151.2766 C 913.99646,-149.85347 912.58263,-148.27243 911.54553,-146.61619 C 909.92313,-144.02522 909.22426,-141.24761 909.25203,-138.61004 C 909.2798,-135.97807 910.02849,-133.48828 911.3024,-131.46556 C 911.99424,-130.36684 912.8428,-129.40566 913.81495,-128.63563 C 915.20483,-127.68672 914.35102,-126.10068 912.79406,-127.3355 C 910.68147,-128.76852 908.49762,-129.87689 906.22045,-130.55586 C 903.80456,-131.27607 901.27508,-131.51311 898.60211,-131.14163 C 898.30464,-126.09389 899.23258,-122.19313 901.03374,-119.10994 C 902.91154,-115.89554 905.75338,-113.53578 909.15216,-111.67002 C 909.47883,-111.26445 909.24965,-110.05573 908.68712,-110.1202 C 903.96199,-110.5104 900.4239,-109.97659 897.77989,-108.74737 C 895.31323,-107.6005 893.60848,-105.83294 892.4274,-103.63932 C 894.061,-99.680401 896.60299,-97.544936 899.64387,-96.411416 C 902.68593,-95.277181 906.28397,-95.114858 909.9919,-95.145606 C 911.33386,-95.15669 910.82163,-93.517847 909.97259,-93.458495 C 905.53266,-93.147198 902.00601,-92.064567 899.25522,-90.328116 C 896.54876,-88.619553 894.57479,-86.263962 893.20362,-83.376949 C 897.08495,-79.361301 901.10179,-77.778234 905.1992,-77.641773 C 908.82501,-77.520925 912.54569,-78.517507 916.3045,-79.969595 C 919.22369,-81.255546 919.80172,-79.558067 916.93282,-78.446714 C 913.57933,-76.964593 910.87455,-75.156038 908.75159,-73.054897 C 906.38325,-70.710866 904.7332,-67.993803 903.70671,-64.953762 C 908.25402,-62.28008 911.68854,-61.23225 914.90581,-61.675123 C 918.16716,-62.124193 921.31304,-64.114736 925.24943,-67.503854 C 926.17617,-68.301525 926.82213,-66.694027 926.27771,-66.187512 C 922.67705,-62.834863 920.21992,-60.051654 918.68166,-57.314092 C 917.20193,-54.680931 916.5692,-52.063979 916.57289,-48.976743 C 920.07225,-47.757771 923.3298,-47.556953 926.33432,-48.421365 C 929.49104,-49.329516 932.40058,-51.428154 935.05019,-54.772342 C 935.4374,-55.241792 935.82474,-55.711122 936.21183,-56.180572 C 936.71108,-56.621657 937.41496,-56.207864 937.217,-55.615898 L 936.40646,-53.835946 C 935.82605,-52.867132 935.25041,-51.891049 934.69503,-50.887316 C 934.4258,-50.400466 934.16611,-49.913735 933.91857,-49.427958 C 937.17064,-50.152691 940.88214,-50.047217 944.85238,-49.473962 L 944.85238,-49.473962 z M 941.0236,-29.882574 C 941.09392,-30.035958 941.16436,-30.188508 941.23467,-30.342489 C 941.16376,-30.188389 941.09297,-30.036435 941.02205,-29.883646 C 940.70349,-30.159309 939.68915,-28.964293 938.16948,-25.788625 C 938.01967,-25.475539 937.87165,-25.165672 937.72423,-24.857353 C 934.46025,-18.265036 931.07184,-12.615313 927.12449,-8.7025178 C 923.0502,-4.6639877 918.3476,-2.4841873 912.5035,-3.0561316 C 920.07511,-6.0158453 924.68189,-15.931255 929.35458,-25.990754 C 930.74005,-28.973589 932.13171,-31.969533 933.60406,-34.786111 C 934.51984,-36.539367 933.66651,-38.10849 932.34087,-36.300173 C 930.67688,-34.030749 929.17819,-31.324174 927.63863,-28.543826 C 922.89062,-19.968951 917.73347,-10.65826 906.28362,-12.667991 C 909.64473,-14.610861 912.64675,-17.994736 915.48204,-22.261019 C 918.86615,-27.352623 922.01596,-33.69347 925.26373,-40.325712 L 925.2766,-40.35801 C 927.04344,-44.384503 929.86777,-46.589331 933.38906,-47.591277 C 934.43951,-47.89018 935.55468,-48.084801 936.72395,-48.190394 C 936.72371,-48.190394 936.72347,-48.190513 936.72312,-48.190513 C 938.30165,-48.333172 939.97983,-48.314103 941.73344,-48.171325 C 941.73308,-48.171325 941.73272,-48.171206 941.73249,-48.171206 C 942.99448,-48.068473 944.29557,-47.901621 945.6274,-47.685429 C 945.92285,-44.063552 946.73506,-40.562285 947.98943,-37.164227 C 949.09757,-34.161966 950.55239,-31.24182 952.3016,-28.391752 L 952.86627,-26.753625 C 949.03845,-22.323469 945.54124,-17.519804 942.9604,-11.68428 C 940.54986,-6.2334678 938.94284,0.10535357 938.6176,7.8602705 C 929.98945,-4.3804587 933.69356,-12.600892 939.38524,-24.501124 C 940.89787,-27.575847 941.36434,-29.581525 941.0236,-29.882574 L 941.0236,-29.882574 z M 955.88379,-17.231151 C 954.06749,-7.4522014 951.29238,0.98835745 947.19939,7.5854416 C 942.75302,14.752921 936.76531,19.741196 928.78609,21.913845 C 935.05376,25.64501 943.23487,25.678977 950.30796,25.572072 C 953.55966,19.462672 955.86531,12.731272 957.31442,5.5176704 C 955.48871,8.590009 953.16136,11.795829 949.74257,13.970743 C 953.97226,8.5146873 957.21026,1.0008713 958.75006,-5.6718921 C 959.16195,-7.4569686 959.11046,-9.482431 959.16255,-11.313034 C 959.16255,-11.318636 959.1635,-11.32388 959.16374,-11.329362 C 957.86372,-13.17379 956.75869,-15.152534 955.88379,-17.231151 L 955.88379,-17.231151 z M 983.04203,7.5854416 C 978.77038,0.70029963 975.93461,-8.1920702 974.1257,-18.518889 C 973.15927,-15.783711 971.94459,-13.293804 970.48142,-11.04917 C 970.47129,-9.1569507 970.56782,-7.7366839 970.97625,-5.9008367 C 972.44419,0.69517489 975.89517,8.1931399 979.58867,13.892561 C 977.22235,12.16195 974.07612,7.7997271 971.98726,4.6498023 C 973.38559,11.803099 975.76883,18.954966 979.18691,25.559797 C 986.46928,25.692086 994.98743,25.76419 1001.4554,21.913845 C 993.47611,19.741196 987.48839,14.752921 983.04203,7.5854416 L 983.04203,7.5854416 z M 960.74108,-9.2679072 C 960.04567,5.8933254 956.36492,19.623803 949.06884,30.942557 C 942.25866,41.507617 932.31096,49.956399 918.71766,55.491233 C 920.57996,56.916267 922.7165,58.1816 925.25181,59.213698 C 928.31223,60.459485 931.95127,61.366921 936.38476,61.809197 L 936.38524,61.804073 C 938.86204,62.013591 940.71922,61.556894 942.2738,60.602382 C 943.86414,59.625822 945.19144,58.10449 946.5557,56.229314 C 949.16002,52.64915 951.55637,49.029418 953.71686,45.365232 C 954.81951,42.633747 956.15206,39.843627 957.50368,37.013581 C 960.16211,31.447164 962.89586,25.722954 964.01901,20.102072 L 965.26277,13.878617 L 965.61316,19.522262 L 965.80599,20.811312 C 966.54729,25.765501 967.88425,30.297794 969.68387,34.502818 C 970.61824,36.340453 971.62888,38.062364 972.62046,39.751501 C 973.70416,41.597478 974.7657,43.406391 975.69041,45.285381 C 978.52261,49.374682 981.75369,53.116573 985.18452,56.808051 C 988.48759,60.362115 991.00992,63.075603 996.42164,61.326161 L 996.43129,61.322943 C 998.98663,60.53433 1001.4482,59.590187 1003.84,58.407922 C 1005.7787,57.449716 1007.6729,56.333477 1009.5368,55.015347 C 996.78657,50.673623 987.19354,41.915569 980.53103,31.254689 C 972.95702,19.135047 969.17461,4.5506447 968.84985,-8.7785545 C 967.70977,-7.3355243 966.44777,-6.0606569 965.09878,-4.8195174 C 963.54586,-6.2171401 962.07506,-7.6555223 960.74108,-9.2679072 L 960.74108,-9.2679072 z M 962.89884,29.125659 C 961.72003,32.018632 960.34803,34.891464 958.99534,37.723774 C 955.54675,44.944646 952.22532,51.899508 952.72159,58.007239 C 953.12763,63.005049 954.53884,68.009174 956.8495,72.528953 C 958.97269,76.682134 961.85279,80.426051 965.40662,83.379687 C 968.40924,81.278903 971.01165,77.554292 972.99111,73.369886 C 975.443,68.186752 976.92071,62.333231 977.02523,57.971366 C 977.19721,50.801027 974.29065,45.849698 971.19984,40.584449 C 969.35624,37.44382 967.44924,34.194738 966.05055,30.312572 C 965.78895,37.892771 965.80933,43.257178 965.03001,52.044312 C 963.94738,42.805605 964.49025,37.501623 962.89884,29.125659 L 962.89884,29.125659 z M 996.53867,-33.670588 C 997.77362,-31.229664 998.95862,-28.679095 1000.1389,-26.138299 C 1004.8114,-16.0788 1009.4183,-6.16339 1016.9899,-3.2037955 C 1011.1458,-2.631732 1006.4431,-4.8115324 1002.369,-8.8500625 C 998.4216,-12.762858 995.03319,-18.412581 991.76921,-25.004898 C 991.62179,-25.313216 991.47377,-25.623084 991.32384,-25.93617 C 989.70144,-29.327076 988.72143,-30.450823 988.44886,-30.079816 C 988.38546,-30.216516 988.32217,-30.352262 988.25877,-30.490034 C 988.32182,-30.352262 988.38462,-30.215682 988.44767,-30.078386 C 988.15663,-29.675558 988.68329,-27.54629 990.1082,-24.648669 C 995.79988,-12.748437 999.50399,-4.5280034 990.87584,7.7127258 C 990.55048,-0.042191147 988.94358,-6.3810125 986.53293,-11.831944 C 983.9522,-17.667349 980.45499,-22.471014 976.62717,-26.901169 L 977.23177,-28.655021 C 979.16463,-31.282222 980.70622,-34.295448 981.85619,-37.695293 C 982.89651,-40.770969 983.61671,-44.157942 984.01596,-47.856929 C 988.51072,-48.575345 992.65377,-48.720745 996.10438,-47.738821 C 999.62567,-46.736876 1002.45,-44.532048 1004.2168,-40.505555 L 1004.2297,-40.473257 C 1007.4775,-33.841015 1010.6273,-27.500167 1014.0114,-22.408564 C 1016.8363,-18.157774 1019.8268,-14.782957 1023.1734,-12.836868 C 1010.6559,-10.936664 1003.7461,-24.037634 999.47658,-32.135908 C 998.92704,-33.178375 998.41933,-34.141467 997.94416,-34.989432 C 996.92124,-36.815388 996.20032,-37.295563 995.89594,-36.964839 C 995.40789,-36.43437 996.23941,-34.262554 996.53867,-33.670588 L 996.53867,-33.670588 z M 1009.6174,-57.015666 C 1014.6442,-53.81497 1019.6778,-50.7356 1024.7176,-47.784706 C 1032.319,-43.333694 1039.9111,-39.18957 1047.492,-35.37629 C 1049.3274,-34.450858 1051.0609,-33.981766 1052.7198,-33.870452 C 1054.1463,-33.774751 1056.2858,-33.953997 1057.6013,-34.546798 C 1059.1153,-35.234705 1059.6636,-34.832592 1058.2946,-33.56845 C 1053.9949,-29.598091 1049.5978,-26.887821 1045.0886,-25.635598 C 1040.6238,-24.395769 1036.0245,-24.584074 1031.2745,-26.394178 C 1022.2782,-30.65331 1014.2488,-35.080843 1007.4569,-39.766401 C 1006.9196,-40.137051 1006.3898,-40.509726 1005.8682,-40.883594 C 1005.8171,-40.987876 1005.7662,-41.092278 1005.715,-41.19656 L 1005.7137,-41.195964 C 1004.0325,-45.008529 1001.5018,-47.369721 998.36487,-48.694406 C 998.27965,-48.872103 998.19301,-49.049324 998.10565,-49.226782 C 998.71073,-48.803336 999.34655,-48.428515 1000.0144,-48.104465 C 1002.4679,-46.914096 1005.3349,-46.421168 1008.6836,-46.742239 C 1012.5904,-44.570185 1016.7518,-42.828133 1025.4261,-38.4994 C 1016.7373,-43.482788 1013.2162,-46.501257 1010.598,-49.063148 C 1010.6629,-51.896412 1010.3566,-54.556746 1009.6174,-57.015666 L 1009.6174,-57.015666 z M 1019.8124,-73.776173 C 1024.5678,-72.372115 1029.3769,-71.06924 1034.224,-69.839065 C 1042.5977,-67.71373 1051.0859,-65.803991 1059.6106,-63.96445 L 1059.6397,-63.961113 C 1061.5249,-63.621688 1063.1436,-63.7305 1064.5915,-64.125819 C 1066.0279,-64.51816 1067.287,-65.190573 1068.4677,-65.985026 C 1068.7893,-66.236376 1069.1064,-66.568292 1069.5384,-66.606072 C 1069.8927,-66.636821 1069.8318,-66.232324 1069.7707,-65.994203 C 1066.4783,-60.349485 1063.5973,-56.055552 1059.6795,-53.625355 C 1055.7704,-51.20064 1050.7239,-50.576614 1043.0247,-52.230473 L 1042.9828,-52.236909 C 1034.4813,-53.60724 1026.673,-55.585507 1019.4272,-58.003429 C 1017.2045,-58.745204 1015.0336,-59.529289 1012.911,-60.350081 C 1016.2062,-60.054396 1019.9644,-60.649937 1024.3569,-62.466716 C 1027.2871,-62.013475 1033.8981,-60.425283 1042.8784,-59.3591 C 1031.1099,-62.298911 1027.7509,-63.601666 1025.167,-65.686361 C 1024.0888,-68.742372 1022.3782,-71.28877 1020.1709,-73.4352 C 1020.0529,-73.54997 1019.9332,-73.663667 1019.8124,-73.776173 L 1019.8124,-73.776173 z M 1026.0676,-91.658164 C 1030.5194,-91.524086 1034.9912,-91.410151 1039.5109,-91.346747 C 1046.6092,-91.247351 1053.7942,-91.272974 1061.1461,-91.541248 L 1061.1461,-91.541487 C 1065.9034,-91.560317 1067.819,-93.218467 1069.7571,-94.896163 C 1070.3637,-95.42115 1070.7739,-95.951381 1071.3244,-96.496749 C 1071.6933,-96.862035 1072.049,-97.05022 1071.9633,-96.312497 C 1070.2634,-89.393865 1067.6497,-84.613559 1064.2961,-81.568155 C 1060.9807,-78.557075 1056.9083,-77.232033 1052.2571,-77.198186 L 1052.228,-77.198186 C 1044.0713,-76.851253 1035.9838,-76.635061 1028.0005,-76.614085 C 1027.4504,-76.612536 1026.9003,-76.612297 1026.3509,-76.612655 C 1029.0641,-77.495897 1031.7994,-79.082062 1034.5634,-81.615827 L 1035.0226,-82.03689 L 1034.8692,-82.344016 C 1039.623,-82.965063 1046.2314,-83.240011 1052.7094,-83.775605 C 1046.0779,-84.14411 1038.2652,-84.26615 1033.2332,-85.188364 C 1031.6352,-87.550986 1029.7393,-89.332964 1027.6387,-90.715928 C 1027.1264,-91.053088 1026.602,-91.366531 1026.0676,-91.658164 L 1026.0676,-91.658164 z M 1030.3988,-109.46722 C 1039.5648,-111.3269 1048.6667,-114.00142 1057.7682,-116.67557 C 1059.6403,-117.22559 1061.5231,-117.77894 1062.9548,-118.19476 L 1062.9709,-118.19798 C 1064.8737,-118.79233 1066.3556,-119.67557 1067.5446,-120.75892 C 1069.0428,-122.12412 1069.7105,-123.56608 1070.6963,-125.22506 C 1070.9899,-125.71835 1071.3744,-126.12428 1071.5321,-125.28525 C 1071.5522,-125.17823 1071.565,-125.05857 1071.569,-124.92795 L 1071.5691,-124.92795 C 1071.7408,-118.38962 1070.6973,-113.35415 1068.5429,-109.69366 C 1066.4255,-106.09574 1063.208,-103.80617 1058.9943,-102.70257 L 1058.9457,-102.68957 C 1051.3697,-100.21969 1043.8051,-98.219613 1036.2489,-96.543706 C 1034.4999,-96.155894 1032.7505,-95.785245 1031.0013,-95.42985 C 1033.8058,-96.824255 1036.3227,-98.954477 1038.4009,-102.20666 C 1043.0082,-104.81682 1050.0246,-106.16367 1055.7505,-107.92741 C 1047.6734,-106.35197 1041.7599,-105.19152 1037.0272,-105.19664 L 1036.9975,-105.19664 C 1034.9089,-107.0748 1032.7044,-108.47767 1030.3988,-109.46722 L 1030.3988,-109.46722 z M 1018.6983,-147.05012 L 1049.4159,-175.6794 C 1049.8452,-176.17209 1050.1864,-176.86095 1050.3809,-177.48378 C 1050.5654,-178.07491 1050.6334,-178.66164 1050.5845,-179.243 L 1050.5843,-179.243 C 1050.5009,-180.27343 1050.5225,-181.00877 1050.6145,-181.50908 C 1050.9044,-183.09 1051.9231,-181.33234 1052.1299,-180.65349 L 1052.1396,-180.63085 C 1054.1159,-174.74753 1054.742,-170.17007 1054.3863,-166.54307 C 1054.0399,-163.00688 1052.7476,-160.3761 1050.8647,-158.31179 L 1050.855,-158.29892 C 1046.7119,-153.56306 1042.6489,-148.95914 1038.5384,-144.4377 C 1034.4954,-139.99098 1030.4599,-135.68524 1026.3449,-131.51431 C 1025.7264,-131.23376 1025.1019,-130.95285 1024.4736,-130.67111 C 1023.8497,-130.55002 1023.237,-130.39985 1022.6331,-130.2218 C 1020.4561,-129.58025 1018.4097,-128.57902 1016.4159,-127.27663 C 1016.8399,-128.23042 1017.2406,-129.19816 1017.6084,-130.17234 C 1022.334,-135.39468 1031.0254,-145.55096 1035.5507,-152.01909 C 1031.2073,-148.42713 1022.2991,-137.58736 1019.2709,-135.65617 C 1019.7703,-137.91975 1020.0031,-140.14531 1019.8551,-142.24228 C 1019.7348,-143.94727 1019.3681,-145.56526 1018.6983,-147.05012 L 1018.6983,-147.05012 z M 1032.4048,-130.68183 C 1036.718,-133.29068 1040.9761,-136.03992 1045.1543,-138.89035 C 1049.9332,-142.15111 1054.6225,-145.55465 1059.1838,-149.04233 C 1060.6964,-150.19885 1061.9987,-151.03681 1062.8377,-152.83619 C 1063.415,-153.95338 1063.7306,-156.21208 1063.9412,-156.79761 C 1064.0201,-157.01702 1064.3172,-157.21509 1064.3967,-156.85267 L 1064.3971,-156.85267 C 1064.398,-156.84373 1064.399,-156.83467 1064.3999,-156.82561 C 1066.555,-136.9563 1062.732,-134.11159 1058.4297,-130.9103 C 1057.9124,-130.52523 1057.3875,-130.13456 1056.8569,-129.70682 L 1056.6813,-129.5911 C 1046.5367,-122.91583 1036.3642,-116.22269 1026.2322,-110.79548 C 1025.3039,-110.99629 1024.3627,-111.14038 1023.4098,-111.23227 C 1025.8369,-113.29825 1028.0702,-115.52108 1029.8442,-118.11122 C 1029.9647,-118.28689 1030.0828,-118.46446 1030.1989,-118.64359 L 1031.7748,-119.68618 C 1036.8344,-123.38159 1040.709,-126.33511 1046.2502,-130.61462 C 1041.2963,-128.01983 1035.8897,-124.77707 1032.8106,-123.74258 C 1032.7565,-123.73567 1032.7055,-123.72757 1032.6577,-123.71791 C 1033.2648,-125.53565 1033.6567,-127.51522 1033.7817,-129.69574 L 1033.8224,-130.41106 C 1033.35,-130.50449 1032.8785,-130.60067 1032.4048,-130.68183 L 1032.4048,-130.68183 z M 995.6919,-98.669517 C 995.55151,-98.703364 995.41421,-98.74031 995.28001,-98.781308 C 996.0318,-94.098134 995.85923,-89.571681 995.01949,-85.159046 L 994.8928,-84.493545 L 994.21872,-84.484368 C 993.94496,-84.480554 993.68432,-84.493426 993.43821,-84.523459 C 994.21669,-77.397335 993.81827,-71.131452 992.33758,-65.65597 C 990.79039,-59.934381 988.0657,-55.075417 984.27351,-51.000418 C 984.24765,-50.549441 984.21774,-50.102755 984.18317,-49.660121 L 984.71793,-49.633067 C 988.89614,-50.230516 992.78582,-50.306314 996.15265,-49.437016 C 995.8628,-49.999545 995.56176,-50.563266 995.25129,-51.128298 C 994.75229,-52.036687 994.23099,-52.945672 993.69802,-53.854419 C 992.94671,-55.135126 994.55528,-55.55893 995.29312,-54.479398 C 996.7824,-52.300194 998.57522,-50.635846 1000.7313,-49.589924 C 1003.007,-48.485841 1005.7111,-48.057985 1008.9194,-48.426132 C 1009.0708,-51.850885 1008.6748,-54.993064 1007.6141,-57.791169 C 1006.6672,-60.289061 1005.1862,-62.527021 1003.0881,-64.464409 C 1002.816,-64.680363 1002.5476,-64.903111 1002.2823,-65.131698 C 1001.6237,-65.700067 1002.3704,-67.241659 1003.4196,-66.36509 C 1003.661,-66.16308 1003.8958,-65.958091 1004.1238,-65.749884 C 1006.3988,-63.945858 1008.9286,-62.635594 1011.88,-62.1435 C 1015.2378,-61.583831 1019.1738,-62.074018 1023.9479,-64.084702 C 1022.9976,-67.365129 1021.2964,-70.041075 1019.0212,-72.253412 C 1016.7782,-74.434761 1013.966,-76.178125 1010.7556,-77.614243 C 1009.2654,-78.281054 1009.8357,-79.753641 1011.3217,-79.224602 C 1014.8248,-77.976073 1018.3375,-77.153732 1021.8732,-77.412471 C 1025.5088,-77.678481 1029.1986,-79.103157 1032.9764,-82.415643 C 1031.3077,-85.533628 1029.1675,-87.72773 1026.728,-89.333798 C 1024.1198,-91.051181 1019.9984,-92.353579 1016.8965,-93.153991 C 1015.5323,-93.325491 1015.1141,-94.600239 1017.0196,-94.842412 C 1020.7862,-94.943 1025.6566,-95.012601 1028.9184,-96.308564 C 1031.9744,-97.522768 1034.7162,-99.563605 1036.9336,-102.98395 C 1034.6758,-105.24455 1032.2723,-106.86945 1029.7453,-107.95292 C 1027.0542,-109.10658 1024.2108,-109.6504 1021.2443,-109.69831 C 1019.6673,-109.62668 1019.807,-110.49336 1020.7407,-111.16732 C 1023.6861,-113.53209 1026.4279,-116.04237 1028.4816,-119.04106 C 1030.3961,-121.83606 1031.7233,-125.07811 1032.0753,-129.06254 C 1028.7456,-129.62483 1025.8128,-129.43986 1023.0983,-128.63981 C 1020.1747,-127.77814 1017.4788,-126.19745 1014.797,-124.0658 C 1013.131,-123.0219 1012.7144,-123.36097 1013.5474,-125.08288 C 1016.325,-130.57803 1018.5752,-136.83795 1018.2019,-142.12597 C 1017.9639,-145.49971 1016.6305,-148.4835 1013.6247,-150.60335 C 1014.3775,-146.89709 1013.8292,-144.06216 1012.5236,-141.73386 C 1011.3251,-139.59625 1009.5057,-137.93179 1007.4827,-136.42225 C 1006.2664,-135.51446 1004.4623,-134.75433 1003.6003,-133.5822 C 1003.1043,-132.90728 1002.7972,-132.08577 1002.6625,-131.1315 L 1002.6626,-131.1315 L 1002.2877,-122.57438 L 1002.2811,-122.53231 C 1002.17,-121.38294 1002.3964,-120.46359 1002.8854,-119.72455 C 1003.381,-118.97575 1004.1599,-118.38056 1005.1431,-117.89741 C 1006.3842,-117.44893 1007.4321,-116.75435 1008.1699,-115.66922 C 1008.8988,-114.59767 1009.3033,-113.17169 1009.2612,-111.25944 L 1009.2611,-111.25944 L 1009.1863,-103.98792 L 1009.1857,-103.93655 L 1009.1766,-103.87494 C 1008.9118,-102.0814 1007.9523,-100.78186 1006.4083,-99.899216 C 1004.9743,-99.079496 1003.0403,-98.641868 1000.7007,-98.51506 L 1000.7008,-98.513749 C 998.88151,-98.368827 997.13696,-98.32187 995.6919,-98.669517 L 995.6919,-98.669517 z M 949.94052,-171.56149 C 948.44946,-169.96079 947.67909,-167.4045 947.98299,-163.40554 C 948.3832,-163.37932 948.761,-163.33486 949.11759,-163.27205 C 950.75428,-170.78504 957.32062,-171.34911 965.70683,-169.68691 C 969.26721,-168.98113 973.14771,-167.87347 977.10949,-166.74257 C 980.23319,-165.85075 983.40839,-164.94439 986.46678,-164.22168 C 988.06606,-165.33101 989.59072,-166.45166 990.52283,-167.66205 C 991.28665,-168.6541 991.6461,-169.7384 991.27629,-170.98931 C 984.42749,-169.38157 978.08879,-170.84594 971.77285,-172.30518 C 966.82248,-173.44883 961.8864,-174.58926 956.80016,-174.17022 C 953.94628,-173.93472 951.50834,-173.24455 949.94052,-171.56149 L 949.94052,-171.56149 z M 973.129,-145.19926 C 977.22021,-140.16951 978.29819,-136.0025 978.29926,-131.17881 C 980.94065,-128.64636 984.23716,-126.64187 989.3768,-126.3475 C 986.80048,-128.93382 984.77562,-132.29911 983.56952,-136.66526 C 982.2465,-141.45522 981.91232,-147.45152 982.92547,-154.94901 C 975.42917,-158.99219 969.02945,-161.7941 963.95644,-163.09567 C 964.34735,-161.85441 964.1022,-160.69407 963.47507,-159.72717 C 962.7377,-158.59019 961.44937,-157.75307 960.07129,-157.41091 C 958.6658,-157.06195 957.14447,-157.21736 955.97401,-158.07617 C 954.7915,-158.94368 953.99586,-160.49492 954.09907,-162.91368 C 953.49459,-162.54291 952.98795,-162.06679 952.5831,-161.48162 C 952.76676,-161.274 952.93456,-161.04983 953.08687,-160.80968 C 954.05926,-159.2756 954.33731,-157.13191 954.17093,-154.39387 C 959.04062,-151.5003 961.35272,-148.37624 961.90642,-145.09438 C 962.46693,-141.77212 961.20374,-138.37394 958.95827,-134.9356 C 958.37441,-129.88833 956.96785,-125.08014 954.33743,-121.46351 C 952.69,-119.19814 950.57206,-117.40293 947.88872,-116.30647 C 948.32874,-116.26536 948.76708,-116.23377 949.20936,-116.21387 L 949.20066,-116.20434 C 952.53412,-115.99768 955.54961,-116.22698 958.27084,-116.8696 C 961.24557,-117.57228 963.86682,-118.77064 966.16615,-120.43415 C 966.03339,-120.7669 965.90932,-121.10311 965.79383,-121.44325 C 964.81298,-124.33241 964.42303,-126.70909 964.59048,-130.07008 C 964.64995,-131.26653 964.3974,-132.32306 965.62257,-132.21222 C 966.73822,-132.11116 966.31703,-130.93771 966.26734,-129.88738 C 966.11884,-126.75748 966.45052,-124.64204 967.35664,-121.97288 C 968.28839,-119.22757 969.83296,-116.73957 972.09285,-114.5525 C 974.56559,-119.60931 976.4099,-124.66599 976.6143,-129.72017 C 976.82286,-134.87554 976.0147,-139.156 971.7023,-144.40147 C 971.14179,-145.0833 970.6503,-145.88168 971.26622,-146.40846 C 972.00239,-147.03856 972.61986,-145.82519 973.129,-145.19926 L 973.129,-145.19926 z M 947.80148,-114.65917 C 943.43795,-109.79734 940.26955,-104.9006 938.56707,-99.962262 C 936.97447,-95.342491 936.66222,-90.67338 937.85306,-85.946467 C 943.08577,-89.256927 947.35647,-93.127652 950.35742,-97.73765 C 953.46146,-102.50663 955.2159,-108.08759 955.28098,-114.68396 C 954.85824,-114.63653 954.42979,-114.59732 953.9955,-114.56657 C 952.11103,-113.06383 949.94922,-110.97246 948.37164,-108.64201 C 947.20701,-106.92189 945.41419,-105.069 943.42639,-100.42742 C 944.42917,-105.38864 946.70789,-108.1709 947.56169,-109.43194 C 948.85027,-111.33548 950.11,-113.05465 951.53801,-114.48195 C 950.33453,-114.48207 949.08934,-114.54047 947.80148,-114.65917 L 947.80148,-114.65917 z M 938.11883,-84.168303 C 936.84504,-77.13502 937.09353,-70.815745 938.62701,-65.10083 C 940.11903,-59.540373 942.83109,-54.542683 946.54271,-50.0061 C 948.56209,-51.801307 950.33847,-53.898277 951.71785,-56.488295 C 953.1616,-59.19928 954.17868,-62.472675 954.59629,-66.534922 C 951.71893,-68.887295 949.40052,-71.930673 947.75846,-75.810574 C 946.37621,-79.077176 945.47795,-82.930381 945.134,-87.455761 C 944.19224,-85.170606 943.56059,-82.684394 943.355,-79.990571 C 943.2015,-77.979768 942.85349,-75.772437 943.08363,-69.423127 C 941.61414,-76.023787 941.99337,-78.299885 942.12125,-79.97329 C 942.33828,-82.815134 942.7305,-85.553412 943.63746,-88.044748 C 941.93235,-86.670843 940.08792,-85.381197 938.11883,-84.168303 L 938.11883,-84.168303 z M 947.233,-48.4191 C 947.47136,-44.731197 948.26819,-41.175346 949.53925,-37.732596 C 950.78134,-34.367313 952.47477,-31.106909 954.54087,-27.933625 C 956.85963,-29.971839 958.84875,-32.285121 960.41656,-34.948435 C 961.9715,-37.590176 963.11968,-40.58326 963.77445,-44.001578 C 961.28514,-45.275969 959.29043,-47.677086 957.79055,-51.205884 C 956.84354,-53.434071 956.09033,-56.118122 955.53209,-59.256367 C 954.69866,-57.044269 954.09621,-54.691777 953.94342,-52.196865 C 953.82209,-50.216095 953.74081,-48.255585 954.17677,-42.563792 C 952.3445,-49.584203 952.68452,-51.165839 952.77939,-52.713748 C 952.83815,-53.672789 952.91502,-54.576411 953.02633,-55.446901 C 951.47175,-52.614709 949.48192,-50.348146 947.233,-48.4191 L 947.233,-48.4191 z M 955.21876,-26.337568 C 955.63792,-22.667899 956.64427,-19.200479 958.29551,-15.95676 C 959.91648,-12.772273 962.16171,-9.8012373 965.08483,-7.0634366 C 970.10159,-11.93849 973.26999,-18.688006 974.58895,-27.311029 C 971.63472,-29.121848 969.18987,-31.376255 967.40431,-34.203322 C 966.63894,-35.415262 965.99596,-36.729697 965.48778,-38.155685 L 965.13751,-20.404196 L 964.05869,-38.833938 C 963.44575,-37.152548 962.701,-35.583187 961.83718,-34.115605 C 960.07892,-31.128719 957.83572,-28.568139 955.21876,-26.337568 z M 975.28115,-28.820562 C 977.40625,-31.494363 979.07727,-34.629271 980.29338,-38.224809 C 981.5493,-41.937978 982.32063,-46.150392 982.60714,-50.861096 C 979.96254,-52.409482 977.92027,-54.469268 976.4602,-57.027226 C 976.44625,-57.051539 976.43231,-57.07609 976.41872,-57.100522 C 976.61251,-55.301024 976.63384,-53.475427 976.63694,-51.81978 C 976.63992,-50.145659 976.39501,-47.725592 975.27555,-43.492322 C 975.31393,-47.147689 975.70293,-50.087976 975.61295,-51.749702 C 975.6089,-53.918299 975.1727,-56.450038 974.56726,-58.749614 C 974.00569,-55.63294 973.16654,-53.140412 972.1261,-51.099695 C 970.45127,-47.814381 968.27278,-45.708592 965.89871,-44.061645 C 966.23075,-40.51354 967.2377,-37.554661 968.79931,-35.081678 C 970.40729,-32.535399 972.61224,-30.485147 975.28115,-28.820562 z M 983.29278,-52.369914 C 986.78261,-56.19547 989.29849,-60.742183 990.74248,-66.082277 C 992.22508,-71.564671 992.58285,-77.883947 991.71296,-85.114949 C 989.32948,-86.369437 987.19545,-87.82224 985.27951,-89.447853 C 985.82297,-86.519007 986.01711,-83.527711 986.39563,-80.263493 C 986.58763,-78.607607 986.88701,-75.466263 986.27061,-69.475328 C 985.72584,-76.122349 985.45792,-77.887761 985.24471,-79.72623 C 984.96845,-82.109113 984.57671,-84.500219 984.1423,-86.778343 C 983.72278,-83.473484 982.999,-80.301034 981.94593,-77.31963 C 980.46786,-73.135581 978.34169,-69.331478 975.49901,-66.065949 C 975.79505,-62.87586 976.58736,-60.129717 977.89381,-57.840986 C 979.18048,-55.586579 980.97437,-53.759075 983.29278,-52.369914 z M 973.65029,-66.079178 C 971.09925,-67.939338 969.02087,-70.525661 967.4869,-73.947673 C 966.8021,-75.475679 966.22562,-77.170059 965.76499,-79.039515 L 964.60394,-56.841663 L 964.34985,-79.507773 C 963.87242,-77.937578 963.30023,-76.471427 962.64772,-75.09335 C 960.99065,-71.593155 958.82694,-68.680518 956.39435,-66.080131 L 956.34752,-66.029957 C 956.83866,-60.065598 957.82594,-55.338924 959.30818,-51.851601 C 960.71105,-48.55139 962.54928,-46.37731 964.82157,-45.329481 C 967.05321,-46.856294 969.09929,-48.800238 970.65363,-51.848859 C 972.29808,-55.074344 973.41146,-59.548954 973.65029,-66.079178 z M 964.05381,-86.390293 C 960.35029,-90.379364 957.97206,-94.745042 956.66036,-99.414511 C 956.30175,-100.69093 956.02311,-101.98963 955.81919,-103.30859 C 954.9226,-100.31563 954.38736,-97.246152 954.30835,-94.1234 C 954.25591,-92.043234 954.01302,-87.15078 954.59557,-82.239257 C 952.52041,-88.635523 953.09855,-92.342852 953.14444,-94.162253 C 953.19414,-96.128959 953.29735,-98.078385 953.55215,-100.00588 C 953.00833,-98.914909 952.40338,-97.859928 951.73943,-96.839987 C 950.30176,-94.631345 948.59129,-92.588721 946.63841,-90.693522 C 946.74066,-84.959658 947.66169,-80.264565 949.2761,-76.449736 C 950.81674,-72.809267 952.99499,-69.960748 955.69799,-67.766169 C 957.8207,-70.115324 959.70172,-72.725841 961.15607,-75.797345 C 962.57931,-78.803777 963.60224,-82.270244 964.05381,-86.390293 z M 982.88578,-91.679735 C 981.38507,-93.216203 980.03786,-94.874114 978.8233,-96.637619 C 977.89775,-97.98173 977.0499,-99.386742 976.27082,-100.84479 C 976.39107,-99.674085 976.45781,-98.434018 976.50525,-97.162011 C 976.57592,-95.266455 976.14461,-88.00232 974.89036,-82.925972 C 974.79096,-88.883179 975.21203,-94.946099 975.13158,-97.103851 C 975.02718,-99.900527 974.39898,-103.13829 973.54756,-105.32452 C 973.43577,-102.57397 973.00565,-100.02054 972.31464,-97.629077 C 971.05718,-93.27615 968.94245,-89.473596 966.32216,-85.996761 C 966.72272,-81.416439 967.63159,-77.653811 968.99167,-74.619371 C 970.38417,-71.512709 972.2516,-69.163673 974.5327,-67.475013 C 977.09578,-70.506234 979.029,-74.016559 980.38968,-77.868573 C 981.8886,-82.111973 982.69462,-86.776794 982.88578,-91.679735 L 982.88578,-91.679735 z M 993.52819,-86.179345 C 994.23207,-90.257085 994.33361,-94.433864 993.61436,-98.743647 C 992.87103,-103.19883 991.24899,-107.80549 988.50905,-112.60391 C 986.66772,-112.94226 984.70494,-113.85828 982.76851,-115.10335 C 983.51553,-113.93646 984.21416,-112.73012 984.86762,-111.49482 C 985.72667,-109.87124 987.05183,-107.93063 988.59521,-101.15335 C 986.52196,-105.865 984.71245,-109.12374 983.82766,-110.79631 C 982.26271,-113.75447 979.92988,-116.59763 977.73542,-119.05429 C 977.26359,-119.48786 976.80308,-119.92871 976.35603,-120.3723 C 975.4977,-117.91886 974.40327,-115.47305 973.17965,-113.03177 C 974.8583,-107.3482 977.06682,-102.09391 980.17944,-97.573777 C 982.7094,-93.900057 985.84383,-90.70544 989.78666,-88.152725 C 990.76071,-87.522145 992.41124,-86.354182 993.52819,-86.179345 L 993.52819,-86.179345 z M 966.8537,-118.90221 C 966.3895,-118.57637 965.91313,-118.26841 965.42533,-117.97761 L 964.60359,-102.34169 L 963.84918,-117.12012 C 961.81883,-116.11614 959.6494,-115.4218 957.42681,-115.00408 C 956.74343,-109.67852 956.91708,-104.60134 958.24903,-99.860005 C 959.46622,-95.52722 961.65639,-91.465927 965.05099,-87.740959 L 965.57979,-87.76992 C 967.82418,-90.887427 969.63059,-94.272852 970.73265,-98.087562 C 971.96664,-102.35861 972.32263,-107.27764 971.43605,-112.89531 C 970.57402,-113.44401 967.42982,-117.35788 966.8537,-118.90221 L 966.8537,-118.90221 z M 991.50285,-114.46753 C 989.78987,-115.45744 988.53455,-116.80631 987.6345,-118.43324 C 986.56939,-120.35895 986.01783,-122.6559 985.80223,-125.19396 C 984.08688,-125.53279 982.6063,-126.0946 981.19176,-126.91027 C 980.19327,-127.48591 979.22767,-128.19002 978.23395,-129.03274 C 978.08367,-126.72423 977.62041,-124.42596 976.9306,-122.13497 C 978.91495,-120.09926 981.12549,-118.1484 983.50433,-116.59429 C 985.96682,-114.98548 988.52526,-113.6378 991.50285,-114.46753 L 991.50285,-114.46753 z M 955.81264,-163.62411 C 955.53113,-161.37555 956.0709,-160.05062 956.94914,-159.40634 C 957.69413,-158.8599 958.71193,-158.77289 959.67728,-159.01257 C 960.67017,-159.25915 961.58559,-159.84241 962.09306,-160.62495 C 962.60315,-161.4113 962.66953,-162.43994 961.89749,-163.55487 C 960.98433,-163.72494 960.126,-163.83625 959.32451,-163.88643 C 959.01071,-163.36275 958.83444,-162.84015 958.79213,-162.31921 C 958.74446,-161.73154 958.86734,-161.14183 959.15528,-160.55189 L 959.40901,-160.03227 L 958.86007,-160.21581 C 958.2457,-160.42103 957.68722,-160.70981 957.35268,-161.33073 C 957.05974,-161.87479 956.95498,-162.66269 957.16628,-163.86009 C 956.68658,-163.81206 956.23525,-163.73352 955.81264,-163.62411 L 955.81264,-163.62411 z M 950.7084,-162.81345 C 950.91363,-162.72621 951.10849,-162.62991 951.29405,-162.52456 C 953.41247,-165.48832 957.39213,-166.20853 962.94877,-165.02746 C 968.4382,-163.86057 975.55276,-160.81766 983.987,-156.25057 C 986.0431,-156.91881 987.95736,-157.73508 989.56987,-158.86335 C 990.75487,-159.69272 991.77756,-160.69336 992.57439,-161.93438 C 991.88804,-161.79267 991.19334,-161.72188 990.48994,-161.72188 C 986.68452,-161.81377 980.65712,-164.11728 976.65732,-165.15379 C 972.72629,-166.2761 968.87607,-167.37506 965.39053,-168.06595 C 957.88458,-169.55391 952.03714,-169.14631 950.7084,-162.81345 L 950.7084,-162.81345 z "
       class="fil2" />
    <path
       style="fill:#000000;fill-rule:nonzero"
       id="path2195"
       d="M 963.32288,8.2359255 C 963.6312,7.2563859 963.80246,5.8858171 965.08829,5.8787855 C 965.47372,5.8767594 965.83102,6.022874 966.1528,6.3146264 L 966.1528,6.3178442 C 967.70643,8.1644176 968.77238,15.634256 970.15165,18.577761 C 972.11573,24.382776 974.80586,29.553992 977.60611,34.960588 C 971.60648,27.971044 970.24294,20.02544 966.38223,12.83329 C 965.95795,12.042651 964.66282,11.900827 964.06573,13.053892 C 960.07594,20.7578 957.81331,29.076319 951.00742,36.682142 C 956.47754,29.364853 959.80779,19.399983 963.32288,8.2359255 L 963.32288,8.2359255 z "
       class="fil3" />
    <path
       style="fill:#e6b012"
       id="path2197"
       d="M 917.84037,39.539718 C 917.37676,40.665253 916.60865,41.62477 915.76509,42.48954 C 916.74761,42.70168 917.5131,42.60288 918.2134,42.175143 C 918.89797,41.756941 919.5742,41.029944 920.34601,39.986524 C 919.59518,40.143007 918.90298,40.034672 917.84037,39.539718 z M 895.97539,43.318436 C 897.91135,45.641848 900.52437,45.55437 903.16003,44.543963 C 902.08717,43.878582 900.95711,43.065179 900.24787,42.000306 C 898.968,42.847318 897.51519,43.339292 895.97539,43.318436 z M 879.00787,30.661411 C 879.28877,32.930478 880.26652,34.583503 882.45228,35.466387 C 882.38614,34.42988 882.46015,33.3923 882.71353,32.382369 C 881.3084,32.185126 880.02268,31.659305 879.00787,30.661411 z M 876.38996,9.3792183 C 874.65363,10.959305 874.25521,12.832218 874.97804,15.053969 C 875.75688,14.257132 876.6512,13.597114 877.67996,13.158413 C 876.86048,12.042651 876.37554,10.770882 876.38996,9.3792183 L 876.38996,9.3792183 z M 1012.5733,40.126322 C 1011.475,40.561567 1010.6633,40.52176 1009.8309,40.242164 C 1011.032,41.831667 1012.4317,43.411158 1014.6288,43.070899 C 1013.7908,42.207322 1013.0304,41.249354 1012.5733,40.126322 z M 1034.449,43.931259 C 1032.9094,43.951996 1031.4564,43.460141 1030.1766,42.613129 C 1029.4669,43.67824 1028.3373,44.491405 1027.2643,45.156786 C 1029.9,46.167074 1032.5129,46.254671 1034.449,43.931259 z M 1051.4269,31.503894 C 1050.3923,32.428969 1049.0756,32.84288 1047.7137,33.00568 C 1047.9661,34.01716 1048.0386,35.056051 1047.9711,36.09387 C 1050.2885,35.327543 1051.2819,33.848401 1051.4269,31.503894 L 1051.4269,31.503894 z M 1054.0352,10.234215 C 1054.042,11.558184 1053.5469,12.729008 1052.7546,13.775646 C 1053.7801,14.214824 1054.6724,14.874246 1055.4489,15.669414 C 1056.3191,13.485443 1055.8634,11.754355 1054.0352,10.234215 L 1054.0352,10.234215 z M 1022.2989,9.8167277 L 1014.7106,-0.43548482 C 1011.1653,-0.5565716 1007.7368,-2.2217532 1004.6431,-4.4815232 C 1002.1522,-6.3009236 999.87631,-8.5096847 997.94059,-10.591638 C 998.01507,-9.7597627 998.1451,-8.8295635 998.27477,-7.8994836 C 998.51587,-6.1716134 998.75673,-4.4437432 998.6689,-3.1600565 L 1019.3688,16.13219 L 1019.3707,16.130045 C 1019.4015,16.157694 1019.4757,16.228487 1019.5897,16.339086 C 1020.4664,17.189316 1020.9354,18.069578 1020.9963,18.978683 C 1021.1741,21.642115 1017.4087,23.768165 1015.6001,25.18295 C 1011.2221,28.607703 1008.055,31.085573 1006.9624,34.719964 L 1006.9527,34.749044 C 1006.6445,35.656956 1007.1127,36.483945 1007.9142,37.061253 C 1009.1807,37.973813 1011.2488,38.313834 1012.6501,37.513064 C 1013.6419,36.946006 1014.2939,35.738356 1014.0461,33.658071 L 1014.0003,33.273596 L 1014.2689,32.992928 L 1023.1614,23.695465 C 1023.7652,23.177748 1024.6532,22.845117 1025.3983,23.287155 C 1025.8792,23.572233 1026.1253,24.072074 1026.3083,24.629478 L 1026.3091,24.62924 L 1030.4589,35.443267 L 1030.5467,35.671973 L 1030.4911,35.917841 C 1029.9508,38.308709 1030.732,39.974606 1031.9367,40.872388 C 1033.1298,41.761708 1035.147,42.08254 1036.2995,40.938175 C 1037.0212,40.221308 1037.3143,38.926776 1036.699,36.989387 L 1029.2275,23.474029 L 1028.5288,22.210484 L 1029.1314,21.858188 L 1030.2574,22.311668 L 1042.3776,27.191012 L 1042.6658,27.307093 L 1042.8072,27.585021 C 1043.9269,29.790326 1045.8511,30.563684 1047.6125,30.42913 C 1049.342,30.297078 1051.6241,29.088713 1051.4903,27.062178 C 1051.4049,25.77289 1050.2888,24.259186 1047.5151,22.80245 L 1031.7426,19.199165 L 1030.2671,18.862005 L 1030.085,18.090435 L 1031.6878,17.604181 L 1044.0716,13.845723 L 1044.4146,13.74156 L 1044.7237,13.919972 C 1046.7247,15.075064 1048.6102,14.703938 1049.9235,13.678991 C 1051.2952,12.608636 1052.3923,10.436344 1051.4561,8.7522129 C 1050.8542,7.6699402 1049.3848,6.875487 1046.7274,6.889431 L 1032.9711,13.190115 C 1031.3065,14.205885 1029.7173,14.620869 1028.2036,14.43471 C 1026.8088,14.263091 1025.5111,13.588772 1024.3114,12.411751 C 1023.5438,11.658534 1022.9389,10.681378 1022.2989,9.8167277 L 1022.2989,9.8167277 z M 915.71301,-1.0478311 L 906.53664,11.349739 L 906.50624,11.390856 L 906.48169,11.417433 C 905.18025,12.831026 903.75962,13.632511 902.2203,13.821887 C 900.70659,14.008046 899.11733,13.593062 897.45286,12.577411 L 883.69652,6.276608 C 881.03905,6.2627831 879.5698,7.056998 878.96794,8.139509 C 878.03154,9.8234018 879.12883,11.995932 880.50036,13.066287 C 881.81384,14.091115 883.69914,14.462241 885.70017,13.30703 L 886.00933,13.128737 L 886.35233,13.232781 L 898.73607,16.991358 L 899.92096,17.350923 L 900.04836,17.735994 L 900.21378,18.236192 L 898.68125,18.586461 L 882.90874,22.189627 C 880.13507,23.646482 879.01907,25.160186 878.93374,26.449355 C 878.79966,28.475771 881.08195,29.684255 882.81137,29.816426 C 884.57273,29.950861 886.49701,29.177622 887.61683,26.972198 L 887.75805,26.694151 L 888.04623,26.578189 L 900.16647,21.698845 L 901.36232,21.217239 L 901.81759,21.737936 L 901.19654,22.861325 L 893.72492,36.376684 C 893.10971,38.314072 893.40265,39.608485 894.12453,40.325352 C 895.27688,41.469837 897.29411,41.148766 898.48722,40.259565 C 899.6919,39.361782 900.47324,37.696005 899.93288,35.305137 L 899.87722,35.059269 L 899.96494,34.830324 L 904.11478,24.016536 L 904.11561,24.016774 C 904.29867,23.45937 904.54478,22.95953 905.02567,22.674332 C 905.56901,22.35195 906.23821,22.365537 907.12693,22.966442 L 907.19594,23.012922 L 907.26244,23.082642 L 916.15505,32.380105 L 916.42368,32.660893 L 916.3778,33.045129 C 916.13014,35.125414 916.78205,36.333302 917.77375,36.90036 C 919.17411,37.700653 921.2426,37.361586 922.50972,36.44843 C 923.71809,35.578059 923.70212,34.657752 923.23255,33.43878 C 921.96829,30.159545 918.92813,27.780833 914.82393,24.570127 C 913.53178,23.559481 912.13976,22.470177 910.74976,21.319852 L 910.72342,21.297923 L 910.68517,21.258594 C 910.58446,21.15455 910.52428,21.091861 910.51045,21.076487 C 909.72625,20.202064 909.36525,19.298323 909.42758,18.365859 C 909.48848,17.456755 909.95757,16.576612 910.83426,15.726263 C 910.94832,15.615664 911.02233,15.544871 911.0532,15.517222 L 911.0551,15.519486 L 931.74938,-3.7676356 C 931.63223,-5.0088943 931.71065,-6.6141284 931.78954,-8.2193624 C 931.83448,-9.1338298 931.87976,-10.048536 931.88811,-10.871234 C 929.9848,-8.7945246 927.82085,-6.6365342 925.43094,-4.875532 C 922.50591,-2.7202827 919.24729,-1.1612904 915.71301,-1.0478311 L 915.71301,-1.0478311 z M 952.09506,-146.04448 C 952.80716,-145.46848 953.59446,-144.67618 953.80195,-143.75241 C 950.00881,-144.67236 945.029,-145.80171 941.20738,-145.6935 C 938.04947,-145.60399 934.03704,-145.63808 931.16433,-146.40989 C 928.46764,-147.13438 927.6459,-148.32034 925.83556,-150.1277 C 929.10621,-148.61853 932.08297,-148.08115 935.91686,-148.20199 C 936.62026,-148.21058 937.57227,-148.21916 938.27412,-148.21046 C 944.98455,-148.12584 949.70407,-147.60323 952.09506,-146.04448 z M 957.95966,-136.44061 C 959.75022,-139.33859 960.72881,-142.15361 960.27878,-144.82217 C 959.79003,-147.71836 957.59593,-150.53196 952.89738,-153.22352 L 952.4402,-153.48548 L 952.48096,-154.00498 C 952.68834,-156.64816 952.50504,-158.64025 951.69128,-159.92381 C 950.96774,-161.06532 949.66319,-161.68994 947.57647,-161.77086 C 944.76919,-161.87693 941.41428,-162.06405 938.65824,-161.75835 C 934.6973,-161.31774 934.55476,-158.14625 934.41258,-154.97499 C 934.40101,-154.71577 934.38981,-154.45632 934.37706,-154.20223 C 935.59174,-155.22396 937.03048,-156.41277 938.70448,-156.50574 C 939.56615,-156.55353 940.62971,-156.60751 941.66944,-156.55508 C 942.77483,-156.4993 943.8515,-156.31958 944.6543,-155.88421 C 947.1069,-154.55464 947.37625,-152.70974 947.64524,-150.86507 C 947.69815,-150.50193 947.75179,-150.13843 947.82592,-149.78709 C 951.38522,-148.88966 954.63752,-147.08874 955.78642,-143.39213 C 956.33917,-141.6129 955.9081,-140.78829 954.1173,-141.73696 C 952.41184,-142.63963 950.36719,-143.18857 948.10182,-143.50619 C 945.64647,-143.85038 942.92083,-143.92284 940.07815,-143.87791 C 939.97232,-142.85523 940.77499,-142.41331 941.60425,-142.0448 C 943.56726,-141.17253 944.87359,-141.10876 946.2301,-141.04286 C 948.74086,-140.92106 951.40966,-140.7896 957.95966,-136.44061 L 957.95966,-136.44061 z "
       class="fil4" />
  </g>
</svg>
