<?xml version="1.0" encoding="UTF-8" standalone="no"?>
<!-- Creator: CorelDRAW -->
<svg
   xmlns:dc="http://purl.org/dc/elements/1.1/"
   xmlns:cc="http://web.resource.org/cc/"
   xmlns:rdf="http://www.w3.org/1999/02/22-rdf-syntax-ns#"
   xmlns:svg="http://www.w3.org/2000/svg"
   xmlns="http://www.w3.org/2000/svg"
   xmlns:sodipodi="http://sodipodi.sourceforge.net/DTD/sodipodi-0.dtd"
   xmlns:inkscape="http://www.inkscape.org/namespaces/inkscape"
   xml:space="preserve"
   width="799.99994"
   height="571.42865"
   style="shape-rendering:geometricPrecision; text-rendering:geometricPrecision; image-rendering:optimizeQuality; fill-rule:evenodd; clip-rule:evenodd"
   viewBox="0 0 210 297"
   id="svg2"
   sodipodi:version="0.32"
   inkscape:version="0.45.1"
   sodipodi:docname="POL województwo świętokrzyskie flag.svg"
   inkscape:output_extension="org.inkscape.output.svg.inkscape"
   sodipodi:docbase="C:\Users\Mistrz\Desktop"
   version="1.0"><metadata
   id="metadata63"><rdf:RDF><cc:Work
       rdf:about=""><dc:format>image/svg+xml</dc:format><dc:type
         rdf:resource="http://purl.org/dc/dcmitype/StillImage" /></cc:Work></rdf:RDF></metadata><sodipodi:namedview
   inkscape:window-height="480"
   inkscape:window-width="640"
   inkscape:pageshadow="2"
   inkscape:pageopacity="0.0"
   guidetolerance="10.0"
   gridtolerance="10.0"
   objecttolerance="10.0"
   borderopacity="1.0"
   bordercolor="#666666"
   pagecolor="#ffffff"
   id="base" />
 <defs
   id="defs4">
  <style
   type="text/css"
   id="style6">
   
    .fil4 {fill:#0093DD}
    .fil1 {fill:#0A0B0C}
    .fil2 {fill:#DB261B}
    .fil3 {fill:#FACF00}
    .fil0 {fill:white}
   
  </style>
 </defs>
 <g
   id="Warstwa_x0020_1"
   transform="matrix(1.9800002,0,0,1.9800002,-102.90005,-145.53004)">
  <metadata
   id="CorelCorpID_0Corel-Layer" />
  <g
   id="_113326872">
   <polygon
   id="_66103056"
   class="fil0"
   points="210,98.5001 210,198.5 50,198.5 50,98.5001 210,98.5001 "
   style="fill:#ffffff" />
   <g
   id="g12">
    <path
   id="_66102984"
   class="fil1"
   d="M 165.551,154.4 C 165.551,173.8292 149.5809,189.6755 130.0001,189.6755 C 110.4488,189.6755 94.4492,173.7999 94.4492,154.3999 L 94.4492,107.3247 L 165.551,107.3247 L 165.551,154.4 z "
   style="fill:#0a0b0c" />
    <path
   id="_66102912"
   class="fil2"
   d="M 130.141,148.416 L 130.141,108.832 L 163.9948,108.832 L 163.9948,148.416 L 130.141,148.416 z M 112.5863,183.3324 C 110.3666,181.998 108.3093,180.4182 106.4535,178.6303 L 129.846,178.6303 L 129.846,183.3324 L 112.5863,183.3324 L 112.5863,183.3324 z M 101.9345,173.2919 C 100.9191,171.8088 100.0173,170.2425 99.2432,168.6052 L 129.846,168.6052 L 129.846,173.2919 L 101.9345,173.2919 z M 97.2582,163.2976 C 96.8271,161.7602 96.5005,160.1801 96.2901,158.5648 L 129.846,158.5648 L 129.846,163.2976 L 97.2582,163.2976 z M 96.0058,153.3341 L 96.0058,148.7111 L 129.846,148.7111 L 129.846,153.3341 L 96.0058,153.3341 L 96.0058,153.3341 z "
   style="fill:#db261b" />
    <g
   id="g16">
     <path
   id="_66102840"
   class="fil1"
   d="M 148.362,136.568 C 148.7392,136.701 149.0116,137.0619 149.0116,137.4832 L 149.0116,137.4832 C 149.0116,137.9516 148.675,138.3452 148.2317,138.4342 C 148.4944,140.4341 150.1077,141.1131 151.7355,140.1028 C 151.9659,139.9597 152.1698,139.6957 152.1457,140.2291 C 152.0896,141.4697 150.3796,142.558 148.824,141.7209 C 149.1433,142.2003 150.2749,142.8649 151.622,142.4724 C 151.8824,142.3967 152.0956,142.3194 151.8482,142.7616 C 151.0237,144.2348 148.8363,143.9853 148.2206,143.071 C 148.2214,143.7364 148.0124,144.3971 147.6268,144.9383 C 147.4971,145.1202 147.3843,145.1273 147.2484,144.9363 C 146.8635,144.3953 146.6553,143.7357 146.6561,143.071 C 146.0404,143.9853 143.8531,144.2348 143.0286,142.7616 C 142.7811,142.3194 142.9944,142.3967 143.2548,142.4724 C 144.6019,142.8649 145.7334,142.2003 146.0528,141.7209 C 144.4972,142.558 142.7871,141.4697 142.731,140.2291 C 142.7069,139.6957 142.9108,139.9597 143.1412,140.1028 C 144.7685,141.1128 146.3813,140.4345 146.6448,138.4359 C 146.197,138.3505 145.8558,137.9548 145.8558,137.4832 L 145.8558,137.4832 C 145.8558,137.059 146.1318,136.6962 146.513,136.5653 C 146.4452,135.9644 146.3294,135.3096 146.1925,134.693 C 145.9468,135.144 145.6019,135.733 145.1369,136.3517 C 144.7844,136.8208 144.6082,137.2875 144.6057,137.7502 C 144.6042,138.0193 144.6299,138.1131 144.3148,137.9696 C 144.1209,137.8813 143.9245,137.7816 143.7835,137.6781 L 140.3787,142.4191 C 140.1603,142.7232 140.1224,142.7992 140.5723,142.8378 C 140.9767,142.8725 141.3764,142.8595 141.8472,142.9147 C 142.4726,142.9879 142.8038,143.7099 142.375,144.3986 C 142.2285,144.6338 142.2252,144.6098 142.0691,144.4529 C 141.6664,144.0482 140.2112,143.8303 139.5371,143.7015 C 139.2474,143.6462 139.032,143.6434 138.8515,143.691 C 137.9953,143.9166 136.9024,144.437 135.9807,144.8697 C 135.6813,145.0103 135.4897,145.2315 135.3293,145.4978 C 135.2353,145.6537 135.2035,145.7007 135.0404,145.5446 C 134.7076,145.2258 134.1832,144.4786 134.9445,143.9423 C 135.4583,143.5804 136.497,143.4291 136.998,143.2443 C 135.8684,143.2181 134.6626,143.2687 134.0726,143.8889 C 133.9429,144.0253 133.9408,144.0527 133.8122,143.8699 C 133.3757,143.2493 133.4825,142.455 134.3455,142.2767 C 135.0664,142.1277 135.8608,142.3414 136.7013,142.3664 C 135.7966,142.0068 134.7164,141.6315 133.8412,141.7639 C 133.5567,141.8068 133.5685,141.7704 133.6619,141.501 C 133.9958,140.5373 134.8831,140.2546 135.8687,140.7251 C 136.6531,141.0997 137.6812,141.7742 138.339,142.0974 C 138.5015,142.1773 138.7215,142.2124 138.8384,142.0319 L 141.9987,137.1521 C 141.7057,137.1436 141.4141,137.055 141.1942,136.9038 C 141.0147,136.7805 141.1465,136.6712 141.2673,136.571 C 141.7034,136.2096 142.1605,135.6849 142.5551,134.9539 C 143.1063,133.9327 143.221,132.9812 143.3819,131.8682 C 143.545,130.7393 143.8345,130.168 144.6779,130.1262 C 144.4236,129.4762 144.0939,128.5519 143.8367,127.6536 L 142.7135,132.8489 C 142.4775,133.9407 141.8687,135.2914 140.4111,135.5068 C 140.0924,135.5539 140.0437,135.4147 140.174,135.1509 C 140.5651,134.3593 140.8865,133.527 140.9302,132.6342 L 141.1454,128.2383 L 139.578,136.8977 C 139.3448,138.1007 138.5399,138.8703 137.5126,139.1918 C 137.1568,139.3031 137.0533,139.2254 137.1729,138.8872 C 137.4079,138.2223 137.6573,137.2684 137.703,136.6734 L 138.336,128.4376 L 136.9935,135.973 C 136.7507,137.2962 135.9406,137.7474 134.872,137.9794 C 134.5493,138.0494 134.3478,138.1001 134.5309,137.6986 C 134.8389,137.0237 135.1706,136.3343 135.2134,135.5916 L 135.6918,127.3051 L 134.72,133.1263 C 134.6085,134.2458 133.7742,134.7591 132.6067,134.9068 C 132.2778,134.9484 132.2513,134.8191 132.3826,134.5604 C 132.7331,133.8694 133.0205,133.1794 133.0299,132.5236 L 133.1677,122.9467 C 133.1848,121.7535 133.1414,119.8121 133.3862,118.0076 C 133.6618,115.9766 135.1158,112.9536 137.6295,113.045 C 139.4261,113.1104 140.5148,114.6407 140.5599,116.1346 C 140.6058,117.6563 139.8999,118.9526 138.3593,119.4083 C 138.5419,121.1914 140.317,122.7432 144.2937,122.7935 C 144.7997,122.2075 145.3542,121.6484 145.7925,121.0097 C 146.2535,120.338 146.6389,119.6294 146.6061,118.7325 C 146.4604,118.6087 146.3224,118.4738 146.1854,118.2243 C 145.94,117.7777 145.6428,117.3307 145.3828,116.9415 C 145.0424,116.432 144.8429,115.9291 144.5985,115.6503 C 144.3428,115.3585 143.9962,115.3353 143.6599,115.3765 C 143.6453,114.8818 143.5879,114.1953 143.842,113.7145 C 144.2053,113.0273 145.0113,113.0476 145.5949,113.3691 C 146.121,113.659 146.6567,114.1197 147.0578,114.2947 C 147.2544,113.6026 147.2387,112.3475 146.8036,111.5259 C 146.7128,111.3544 146.7176,111.2869 146.9143,111.2675 C 147.2205,111.2372 147.6293,111.2469 147.746,111.5616 C 148.0005,111.3196 148.7472,111.088 148.8767,112.1068 C 148.9026,112.3109 148.8402,112.3096 148.6697,112.2876 C 148.3538,112.2467 148.1338,112.382 148.1264,112.5888 C 148.1022,113.2682 148.8635,113.329 149.2117,113.0726 C 149.575,112.805 149.6431,112.4405 149.3534,112.2483 C 149.2293,112.1659 149.1716,112.1328 149.2686,111.9723 C 149.4525,111.6683 149.8743,111.6591 149.9725,111.7492 C 150.162,111.4074 150.4613,111.3273 150.6813,111.3085 C 150.8763,111.2917 150.962,111.2797 151.0532,111.4839 C 151.1662,111.7369 151.13,112.1334 151.0834,112.3128 C 151.3891,112.3959 151.3706,112.8036 151.1996,113.0803 C 151.106,113.2318 151.0789,113.2167 150.96,113.119 C 150.7386,112.9373 150.5959,113.0367 150.5108,113.2378 C 150.3949,113.5119 150.3819,113.9643 150.5933,114.1927 C 150.779,114.3933 151.0572,114.3743 151.2929,114.2525 C 151.5913,114.0982 151.5844,113.8792 151.3846,113.6093 C 151.2738,113.4595 151.2572,113.4001 151.4409,113.3278 C 152.1064,113.0656 152.6048,113.3694 152.4565,113.9573 C 152.7621,113.9064 153.1647,114.1549 153.294,114.4513 C 153.3721,114.6302 153.2473,114.6357 153.1027,114.6521 C 152.1358,114.762 150.9267,115.5816 150.4331,116.1584 C 150.464,116.8341 150.2743,117.5129 150.0147,117.9334 C 149.5714,118.6518 149.4326,119.085 149.6585,119.8998 C 149.9395,120.9133 150.4785,121.8336 150.9049,122.785 C 154.639,122.6514 156.3164,121.1389 156.4937,119.4083 C 154.953,118.9526 154.2471,117.6563 154.2931,116.1346 C 154.3382,114.6407 155.4268,113.1104 157.2234,113.045 C 159.7371,112.9536 161.1911,115.9766 161.4667,118.0076 C 161.7115,119.8121 161.6681,121.7535 161.6853,122.9467 L 161.823,132.5236 C 161.8324,133.1794 162.1198,133.8694 162.4703,134.5604 C 162.6017,134.8191 162.5751,134.9484 162.2462,134.9068 C 161.0788,134.7591 160.2444,134.2458 160.1329,133.1263 L 159.1611,127.3051 L 159.6395,135.5916 C 159.6824,136.3343 160.014,137.0237 160.322,137.6986 C 160.5052,138.1001 160.3036,138.0494 159.9809,137.9794 C 158.9123,137.7474 158.1022,137.2962 157.8594,135.973 L 156.5169,128.4376 L 157.1499,136.6734 C 157.1956,137.2684 157.445,138.2223 157.6801,138.8872 C 157.7996,139.2254 157.6961,139.3031 157.3403,139.1918 C 156.313,138.8703 155.5081,138.1007 155.2749,136.8977 L 153.7076,128.2383 L 153.9228,132.6342 C 153.9664,133.527 154.2878,134.3593 154.6789,135.1509 C 154.8092,135.4147 154.7605,135.5539 154.4419,135.5068 C 152.9842,135.2914 152.3754,133.9407 152.1394,132.8489 L 151.0659,127.8833 C 150.8144,128.607 150.5131,129.3992 150.2676,130.1331 C 151.04,130.2115 151.314,130.7816 151.4711,131.8682 C 151.6319,132.9812 151.7466,133.9327 152.2978,134.9539 C 152.6924,135.6849 153.1495,136.2096 153.5856,136.571 C 153.7064,136.6712 153.8382,136.7805 153.6588,136.9038 C 153.4388,137.055 153.1472,137.1436 152.8543,137.1521 L 156.0146,142.0319 C 156.1314,142.2124 156.3515,142.1773 156.514,142.0974 C 157.1717,141.7742 158.1998,141.0997 158.9843,140.7251 C 159.9698,140.2546 160.8571,140.5373 161.191,141.501 C 161.2844,141.7704 161.2962,141.8068 161.0117,141.7639 C 160.1365,141.6315 159.0563,142.0068 158.1516,142.3664 C 158.9921,142.3414 159.7865,142.1277 160.5074,142.2767 C 161.3704,142.455 161.4772,143.2493 161.0407,143.8699 C 160.9121,144.0527 160.91,144.0253 160.7803,143.8889 C 160.1904,143.2687 158.9846,143.2181 157.855,143.2443 C 158.3559,143.4291 159.3946,143.5804 159.9084,143.9423 C 160.6697,144.4786 160.1453,145.2258 159.8125,145.5446 C 159.6495,145.7007 159.6176,145.6537 159.5237,145.4978 C 159.3632,145.2315 159.1716,145.0103 158.8722,144.8697 C 157.9505,144.437 156.8576,143.9166 156.0014,143.691 C 155.8209,143.6434 155.6055,143.6462 155.3158,143.7015 C 154.6417,143.8303 153.1865,144.0482 152.7839,144.4529 C 152.6277,144.6098 152.6245,144.6338 152.478,144.3986 C 152.0491,143.7099 152.3803,142.9879 153.0057,142.9147 C 153.4765,142.8595 153.8762,142.8725 154.2807,142.8378 C 154.7306,142.7992 154.6926,142.7232 154.4743,142.4191 L 151.0694,137.6781 C 150.9284,137.7816 150.732,137.8813 150.5381,137.9696 C 150.2231,138.1131 150.2487,138.0193 150.2472,137.7502 C 150.2447,137.2875 150.0685,136.8208 149.716,136.3517 C 149.2649,135.7515 148.9269,135.1793 148.6828,134.7339 C 148.5407,135.4214 148.4306,136.055 148.362,136.568 L 148.362,136.568 z "
   style="fill:#0a0b0c" />
     <path
   id="_66102768"
   class="fil3"
   d="M 137.394,115.717 C 137.4276,115.3875 137.7073,115.129 138.0454,115.129 C 138.406,115.129 138.7002,115.4232 138.7002,115.7837 C 138.7002,116.1162 138.4502,116.3923 138.1286,116.4333 C 138.0541,116.4427 138.0477,116.4704 138.111,116.5136 C 138.2841,116.6316 138.3981,116.8305 138.3981,117.0549 C 138.3981,117.4156 138.1039,117.7097 137.7434,117.7097 C 137.3827,117.7097 137.0885,117.4156 137.0885,117.0549 C 137.0885,116.9775 137.1021,116.9031 137.127,116.8341 C 137.1816,116.6826 137.1654,116.6737 137.0245,116.7357 C 136.944,116.7712 136.855,116.791 136.7617,116.791 C 136.401,116.791 136.1068,116.4968 136.1068,116.1361 C 136.1068,115.7756 136.401,115.4814 136.7617,115.4814 C 136.9753,115.4814 137.1658,115.5848 137.2854,115.744 C 137.3671,115.8528 137.383,115.8254 137.394,115.717 L 137.394,115.717 z M 143.8375,115.033 C 143.8375,114.7124 143.8487,114.2464 144,113.89 C 144.2444,113.3141 144.9163,113.2542 145.416,113.5111 C 145.9562,113.7888 146.4227,114.2226 146.9644,114.5191 C 146.9405,114.9187 146.9505,115.3443 146.9533,115.7146 C 146.9562,116.1043 146.9706,116.4094 147.1555,116.7745 C 147.3344,117.1278 147.3571,117.4978 147.1708,117.7216 C 146.9823,117.948 146.9206,118.0563 146.7956,118.299 C 146.659,118.5645 146.5822,118.4142 146.4877,118.2635 C 146.2576,117.8967 146.0101,117.4592 145.7409,117.0907 C 145.4378,116.6757 145.2477,116.2781 144.9937,115.8618 C 144.7257,115.4225 144.4714,115.1162 144.1212,115.2163 C 144.2003,114.75 144.8794,115.0874 145.0208,115.2368 C 145.5047,115.7483 146.1098,116.4988 146.5744,117.2548 C 146.6306,117.3462 146.794,117.5097 146.9302,117.382 C 147.0426,117.2767 146.9589,117.1287 146.8713,117.0256 L 145.354,115.2385 C 144.953,114.7663 144.3442,114.4918 143.8375,115.033 L 143.8375,115.033 z M 157.4605,115.717 C 157.4269,115.3875 157.1472,115.129 156.8091,115.129 C 156.4485,115.129 156.1543,115.4232 156.1543,115.7837 C 156.1543,116.1162 156.4044,116.3923 156.7259,116.4333 C 156.8005,116.4427 156.8068,116.4704 156.7435,116.5136 C 156.5705,116.6316 156.4564,116.8305 156.4564,117.0549 C 156.4564,117.4156 156.7506,117.7097 157.1112,117.7097 C 157.4718,117.7097 157.766,117.4156 157.766,117.0549 C 157.766,116.9775 157.7524,116.9031 157.7275,116.8341 C 157.673,116.6826 157.6891,116.6737 157.83,116.7357 C 157.9105,116.7712 157.9995,116.791 158.0929,116.791 C 158.4535,116.791 158.7477,116.4968 158.7477,116.1361 C 158.7477,115.7756 158.4535,115.4814 158.0929,115.4814 C 157.8792,115.4814 157.6888,115.5848 157.5691,115.744 C 157.4875,115.8528 157.4715,115.8254 157.4605,115.717 L 157.4605,115.717 z M 152.53,137.104 L 155.8376,142.1988 C 156.0047,142.4562 156.3059,142.4279 156.5434,142.3292 C 157.231,142.0434 158.1804,141.3532 158.9478,140.9863 C 159.8335,140.5628 160.4936,140.5662 160.949,141.531 C 159.9422,141.3477 158.7303,141.9079 157.8391,142.2098 C 157.4308,142.3481 157.5766,142.681 157.9525,142.6547 C 158.7076,142.602 159.6216,142.4527 160.3665,142.4931 C 160.8697,142.5204 161.2736,142.9603 160.8892,143.6593 C 160.2887,143.0108 158.98,143.0242 157.8045,143.0011 C 157.435,142.9938 157.199,143.1676 157.6245,143.3861 C 158.0749,143.6174 159.0924,143.7402 159.663,144.0767 C 160.4899,144.5645 159.7854,145.1723 159.6913,145.3086 C 159.5063,144.9574 159.2814,144.8222 158.9178,144.6386 C 158.0176,144.1839 156.9311,143.7027 156.0918,143.4598 C 155.9123,143.4079 155.6267,143.3827 155.339,143.448 C 154.5994,143.6158 152.9677,143.7822 152.6666,144.2302 C 152.3135,143.4743 152.7195,143.2027 153.193,143.1461 C 153.6506,143.0913 154.1168,143.1104 154.55,143.0468 C 154.9969,142.9811 154.9693,142.7084 154.7511,142.4043 L 151.2418,137.5141 C 151.5519,137.1994 151.6171,137.0088 151.6112,136.7139 C 151.9175,136.8894 152.2238,137.0405 152.53,137.104 z M 151.472,124.3891 C 155.2079,123.8451 158.7316,122.1351 161.3304,119.1867 C 161.4123,120.2631 161.4379,121.3394 161.438,122.4156 C 158.4294,123.6395 155.3022,124.7447 151.5659,125.2406 C 151.5497,124.9492 151.5167,124.6663 151.472,124.3891 z M 158.2719,116.9511 C 159.3281,117.8985 159.5635,119.6814 159.464,120.6619 C 158.8846,121.1544 158.1799,121.6261 157.4574,122.0949 C 157.7342,121.9004 159.1512,119.5574 157.8857,117.365 C 157.9244,117.269 157.9456,117.1644 157.9456,117.0549 C 157.9456,117.0216 157.9437,116.9887 157.9398,116.9564 C 157.9895,116.9657 158.0406,116.9706 158.0929,116.9706 C 158.1544,116.9706 158.2142,116.9638 158.2719,116.9511 L 158.2719,116.9511 z M 146.8377,136.7259 L 148.0313,136.7259 C 148.4478,136.7259 148.7886,137.0666 148.7886,137.4831 L 148.7886,137.4831 C 148.7886,137.8996 148.4478,138.2403 148.0313,138.2403 L 146.8377,138.2403 C 146.4212,138.2403 146.0804,137.8996 146.0804,137.4831 L 146.0804,137.4831 C 146.0804,137.0666 146.4212,136.7259 146.8377,136.7259 z M 147.013,111.4799 C 147.395,112.1074 147.5023,112.943 147.342,114.2186 C 148.5505,113.5566 150.0396,114.5012 150.3827,115.8836 C 151.2585,115.0219 152.1364,114.5041 153.0327,114.4608 C 152.917,114.2222 152.5874,114.1143 152.2949,114.2016 C 152.1839,114.2347 152.0992,114.2021 152.1605,114.0574 C 152.4408,113.3959 151.8968,113.3723 151.5459,113.5234 C 151.7561,113.6454 151.8808,114.0417 151.7304,114.2112 C 151.2629,114.7379 150.6612,114.6914 150.3568,114.3033 C 150.2283,114.1395 150.1689,113.9147 150.1628,113.6465 C 150.1501,113.0828 150.5529,112.4988 151.0005,112.8975 C 151.1411,112.6807 151.0425,112.4837 150.9158,112.4265 C 150.7729,112.3619 150.7604,112.4556 150.8154,112.2707 C 150.8574,112.1294 150.9175,111.8053 150.8047,111.5827 C 150.4302,111.5235 150.2109,111.7367 150.069,112.0375 C 150.0081,112.1668 149.994,112.1083 149.9569,112.0517 C 149.8377,111.87 149.5687,111.9418 149.4646,112.0991 C 149.9369,112.2163 149.8252,112.7935 149.6034,113.0364 C 149.389,113.2711 149.0544,113.4574 148.7311,113.4663 C 148.2847,113.4786 147.8728,113.0514 147.8776,112.6044 C 147.8812,112.2657 148.1555,112.0063 148.6371,112.0773 C 148.6345,111.5759 148.1113,111.3816 147.8591,111.8129 C 147.7918,111.9279 147.6674,112.1346 147.6151,111.88 C 147.5773,111.6958 147.5684,111.4659 147.013,111.4799 L 147.013,111.4799 z M 142.3245,137.104 L 139.0169,142.1988 C 138.8498,142.4562 138.5486,142.4279 138.3111,142.3292 C 137.6235,142.0434 136.6741,141.3532 135.9068,140.9863 C 135.021,140.5628 134.3609,140.5662 133.9056,141.531 C 134.9123,141.3477 136.1242,141.9079 137.0154,142.2098 C 137.4238,142.3481 137.2779,142.681 136.902,142.6547 C 136.1469,142.602 135.2329,142.4527 134.4881,142.4931 C 133.9848,142.5204 133.5809,142.9603 133.9653,143.6593 C 134.5659,143.0108 135.8745,143.0242 137.05,143.0011 C 137.4196,142.9938 137.6556,143.1676 137.23,143.3861 C 136.7796,143.6174 135.7621,143.7402 135.1915,144.0767 C 134.3646,144.5645 135.0691,145.1723 135.1632,145.3086 C 135.3482,144.9574 135.5731,144.8222 135.9367,144.6386 C 136.837,144.1839 137.9234,143.7027 138.7628,143.4598 C 138.9422,143.4079 139.2278,143.3827 139.5156,143.448 C 140.2551,143.6158 141.8869,143.7822 142.1879,144.2302 C 142.5411,143.4743 142.1351,143.2027 141.6615,143.1461 C 141.2039,143.0913 140.7377,143.1104 140.3045,143.0468 C 139.8576,142.9811 139.8852,142.7084 140.1034,142.4043 L 143.6128,137.5141 C 143.3026,137.1994 143.2374,137.0088 143.2433,136.7139 C 142.9371,136.8894 142.6308,137.0405 142.3245,137.104 z M 143.428,124.3957 C 139.6753,123.859 136.1335,122.1471 133.5241,119.1867 C 133.4422,120.2631 133.4166,121.3394 133.4165,122.4156 C 136.4441,123.6473 139.5918,124.7587 143.3595,125.2499 C 143.3427,124.9867 143.3519,124.6974 143.428,124.3957 L 143.428,124.3957 z M 136.5826,116.9511 C 135.5264,117.8985 135.291,119.6814 135.3906,120.6619 C 135.9699,121.1544 136.6746,121.6261 137.3971,122.0949 C 137.1203,121.9004 135.7033,119.5574 136.9688,117.365 C 136.9302,117.269 136.9089,117.1644 136.9089,117.0549 C 136.9089,117.0216 136.9109,116.9887 136.9147,116.9564 C 136.865,116.9657 136.8139,116.9706 136.7616,116.9706 C 136.7002,116.9706 136.6403,116.9638 136.5826,116.9511 L 136.5826,116.9511 z "
   style="fill:#facf00" />
     <path
   id="_66102696"
   class="fil0"
   d="M 144.095,123.019 C 142.0843,123.0811 138.3247,122.2875 138.0403,119.2274 C 139.4601,119.0078 140.2863,117.6771 140.2954,116.32 C 140.3062,114.6973 139.2735,113.3884 137.6667,113.273 C 136.4918,113.1886 135.5176,113.9245 134.8296,114.941 C 134.1081,116.0071 133.5567,117.4808 133.5567,118.7825 C 134.0157,119.4195 134.5759,120.0143 135.193,120.4929 C 135.1235,118.4782 135.9133,117.2998 136.3855,116.881 C 136.1137,116.7432 135.9266,116.4608 135.9266,116.1362 C 135.9266,115.6766 136.3015,115.3018 136.761,115.3018 C 136.9522,115.3018 137.1287,115.3667 137.2696,115.4755 C 137.3927,115.1678 137.694,114.9494 138.0448,114.9494 C 138.5044,114.9494 138.8792,115.3242 138.8792,115.7838 C 138.8792,116.1172 138.682,116.406 138.3982,116.5395 C 138.5102,116.6816 138.5771,116.8606 138.5771,117.0549 C 138.5771,117.5145 138.2023,117.8894 137.7427,117.8894 C 137.4654,117.8894 137.219,117.7528 137.0672,117.5436 C 136.3196,118.8457 136.5173,120.8306 137.724,122.2379 C 139.774,123.4074 141.6776,123.9585 143.4902,124.1262 C 143.6095,123.7571 143.8136,123.3879 144.095,123.019 L 144.095,123.019 z M 146.8487,138.4531 C 146.5953,140.5713 144.9151,141.4764 142.9906,140.2718 C 142.987,141.6476 145.2964,142.2573 146.1858,141.2782 C 146.4567,140.98 146.49,141.451 146.4055,141.6236 C 145.831,142.7957 144.124,142.9752 143.2821,142.7244 C 144.1777,144.0902 146.2468,143.5439 146.6121,142.728 C 146.7104,142.5083 146.859,142.6 146.8602,142.8043 C 146.8643,143.503 147.0055,144.2452 147.4385,144.812 C 147.8712,144.2456 148.0128,143.5026 148.0169,142.8043 C 148.0181,142.6 148.1668,142.5083 148.2651,142.728 C 148.6304,143.5439 150.6994,144.0902 151.595,142.7244 C 150.7531,142.9752 149.0461,142.7957 148.4717,141.6236 C 148.3871,141.451 148.4204,140.98 148.6913,141.2782 C 149.5807,142.2573 151.8902,141.6476 151.8865,140.2718 C 149.962,141.4763 148.2817,140.5713 148.0283,138.4531 L 146.8487,138.4531 z M 151.0016,123.0222 C 153.0574,123.0157 156.5398,122.1679 156.813,119.2274 C 155.3932,119.0078 154.567,117.6771 154.5579,116.32 C 154.5471,114.6973 155.5798,113.3884 157.1866,113.273 C 158.3615,113.1886 159.3357,113.9245 160.0237,114.941 C 160.7452,116.0071 161.2966,117.4808 161.2966,118.7825 C 160.8377,119.4195 160.2774,120.0143 159.6604,120.4929 C 159.7298,118.4782 158.94,117.2998 158.4678,116.881 C 158.7396,116.7432 158.9267,116.4608 158.9267,116.1362 C 158.9267,115.6766 158.5519,115.3018 158.0923,115.3018 C 157.9011,115.3018 157.7246,115.3667 157.5837,115.4755 C 157.4606,115.1678 157.1593,114.9494 156.8085,114.9494 C 156.349,114.9494 155.9741,115.3242 155.9741,115.7838 C 155.9741,116.1172 156.1714,116.406 156.4552,116.5395 C 156.3431,116.6816 156.2762,116.8606 156.2762,117.0549 C 156.2762,117.5145 156.651,117.8894 157.1106,117.8894 C 157.3879,117.8894 157.6343,117.7528 157.7862,117.5436 C 158.5338,118.8457 158.336,120.8306 157.1294,122.2379 C 155.1021,123.3943 153.2182,123.9461 151.4237,124.1204 C 151.2922,123.699 151.1515,123.3329 151.0016,123.0222 L 151.0016,123.0222 z M 147.1618,114.7924 C 147.4478,114.0078 148.4924,114.163 149.0991,114.4898 C 149.4887,114.6997 149.8706,115.129 150.0508,115.5588 C 150.1811,115.8698 150.2203,116.1988 150.2047,116.5162 C 150.1772,117.0779 149.9458,117.5928 149.7145,117.9718 C 149.168,118.8675 149.2184,119.4924 149.6015,120.4677 C 150.0119,121.5122 150.6237,122.7029 150.9843,123.6457 C 151.4234,124.7941 151.4391,126.0822 150.9785,127.3556 C 150.7443,128.0028 150.5214,128.6987 150.2696,129.4018 C 149.8056,130.6972 149.1485,131.9262 148.779,133.2515 C 148.4704,134.3583 148.248,135.4288 148.1347,136.5179 C 148.1042,136.5149 148.0733,136.5134 148.042,136.5134 L 146.8259,136.5134 C 146.8003,136.5134 146.7751,136.5144 146.75,136.5163 C 146.5635,134.9832 146.2018,133.4594 145.6521,131.9852 C 145.1203,130.5588 144.5624,129.179 144.1324,127.7139 C 143.7261,126.329 143.1765,124.8284 144.0562,123.5043 C 144.3372,123.0813 144.7019,122.6917 145.0263,122.3226 C 145.9108,121.3166 146.8713,120.2426 146.8674,118.8516 C 146.8669,118.6761 146.9108,118.4455 147.028,118.2798 C 147.1278,118.1387 147.2461,117.9936 147.371,117.858 C 147.6641,117.5397 147.5739,117.0669 147.3859,116.7257 C 147.1798,116.352 147.172,115.772 147.1912,115.3096 C 147.2746,115.3225 147.358,115.3306 147.4415,115.3316 C 147.5748,115.794 147.8552,115.9669 148.1778,115.9731 C 148.4874,115.979 148.7523,115.7097 148.9673,115.2937 C 149.0752,115.2729 149.2511,115.2927 149.429,115.3211 C 149.2572,114.8323 148.0939,114.6795 147.5857,115.0105 C 147.4916,115.0442 147.3794,115.0641 147.2793,115.0471 C 147.1141,115.0191 147.1125,114.9277 147.1618,114.7924 L 147.1618,114.7924 z M 147.6464,115.3662 C 147.7438,115.6204 147.9585,115.7557 148.1967,115.7474 C 148.4451,115.7387 148.7427,115.4087 148.7976,115.1908 C 148.8316,115.0558 148.7509,115.0647 148.6648,115.0451 C 148.5608,115.0214 148.5089,115.0232 148.4905,115.1328 C 148.4589,115.321 148.4094,115.4696 148.1871,115.5013 C 148.0554,115.52 147.9058,115.4853 147.8598,115.3362 C 147.8255,115.225 147.6165,115.2723 147.6464,115.3662 L 147.6464,115.3662 z M 161.416,122.6805 L 161.5705,132.5409 C 161.5825,133.309 161.8209,133.7837 162.2553,134.6521 C 160.9143,134.4375 160.4505,133.9109 160.3023,132.8189 L 158.9461,124.4299 L 158.7515,124.4427 L 159.417,135.5901 C 159.4565,136.2519 159.8287,137.1388 160.1047,137.7809 C 158.9252,137.4703 158.2558,137.092 158.0749,135.8347 L 156.2798,125.3926 L 156.0532,125.4086 L 156.9,136.6471 C 156.9531,137.3514 157.1935,138.2551 157.4377,138.9295 C 156.5056,138.7717 155.6361,137.6615 155.4989,136.7398 L 153.5756,125.8382 L 153.328,125.8713 L 153.6701,132.5851 C 153.7199,133.5633 154.0328,134.3708 154.4857,135.2344 C 153.1215,135.1043 152.5724,133.689 152.332,132.5469 L 151.2411,127.363 C 151.4529,126.7761 151.5645,126.1005 151.593,125.4526 C 154.9289,125.0467 158.1747,124.0325 161.416,122.6805 L 161.416,122.6805 z M 150.1783,130.4052 C 150.7437,130.3649 151.0224,130.8961 151.1574,131.4839 C 151.2706,131.977 151.3126,132.4793 151.3849,132.9782 C 151.5564,134.1623 152.0678,135.1503 152.7605,136.1006 C 152.9537,136.3657 153.1812,136.6222 153.4454,136.7353 C 153.0135,136.9502 152.4886,136.9539 151.6922,136.4515 C 151.5091,136.336 151.415,136.2679 151.4186,136.5628 C 151.4277,137.3152 150.8731,137.4837 150.477,137.7123 C 150.5523,137.311 150.3862,136.8313 150.1475,136.4938 C 150.0212,136.3154 149.79,135.9329 149.5266,135.535 C 149.3222,135.2262 148.7823,134.5181 148.8258,134.1295 C 149.1114,132.8881 149.5943,131.6466 150.1783,130.4052 z M 133.4374,122.6805 L 133.2828,132.5409 C 133.2708,133.309 133.0325,133.7837 132.598,134.6521 C 133.939,134.4375 134.4029,133.9109 134.5511,132.8189 L 135.9073,124.4299 L 136.1019,124.4427 L 135.4363,135.5901 C 135.3969,136.2519 135.0246,137.1388 134.7486,137.7809 C 135.9281,137.4703 136.5975,137.092 136.7785,135.8347 L 138.5735,125.3926 L 138.8001,125.4086 L 137.9533,136.6471 C 137.9002,137.3514 137.6598,138.2551 137.4156,138.9295 C 138.3477,138.7717 139.2173,137.6615 139.3545,136.7398 L 141.2778,125.8382 L 141.5253,125.8713 L 141.1832,132.5851 C 141.1334,133.5633 140.8205,134.3708 140.3677,135.2344 C 141.7318,135.1043 142.2812,133.6891 142.5213,132.5469 L 143.6673,127.0948 C 143.4595,126.5396 143.3753,125.9812 143.3506,125.4621 C 139.9874,125.0626 136.7041,124.0431 133.4374,122.6805 L 133.4374,122.6805 z M 144.7605,130.4154 C 144.1374,130.3128 143.8376,130.8671 143.6959,131.4839 C 143.5828,131.977 143.5407,132.4793 143.4685,132.9782 C 143.2969,134.1623 142.7855,135.1503 142.0928,136.1006 C 141.8996,136.3657 141.6721,136.6222 141.4079,136.7353 C 141.8398,136.9502 142.3647,136.9539 143.1612,136.4515 C 143.3442,136.336 143.4383,136.2679 143.4347,136.5628 C 143.4257,137.3152 143.9802,137.4837 144.3763,137.7123 C 144.3011,137.311 144.4671,136.8313 144.7058,136.4938 C 144.8321,136.3154 145.0633,135.9329 145.3267,135.535 C 145.5312,135.2262 146.0859,134.5181 146.0425,134.1295 C 145.6885,132.8205 145.3603,131.7242 144.7605,130.4154 z "
   style="fill:#ffffff" />
    </g>
    <path
   id="_66102600"
   class="fil4"
   d="M 96.0055,148.416 L 96.0055,108.832 L 129.8457,108.832 L 129.8457,148.416 L 96.0055,148.416 L 96.0055,148.416 z M 163.9945,154.1839 C 163.9944,172.8548 148.7998,188.0898 130.1407,188.1662 L 130.1407,148.7111 L 163.9945,148.7111 L 163.9945,154.1839 z "
   style="fill:#0093dd" />
    <g
   id="g22">
     <path
   id="_66102528"
   class="fil1"
   d="M 146.021,151.016 L 147.0773,153.789 L 150.0035,153.3178 C 150.2306,153.2812 150.2825,153.3626 150.1366,153.5418 L 148.2632,155.8431 L 150.1344,158.1416 C 150.2796,158.32 150.2351,158.4056 150.007,158.3689 L 147.0773,157.8971 L 146.0223,160.6669 C 145.9404,160.8817 145.844,160.8861 145.7618,160.6701 L 144.7055,157.8971 L 141.7792,158.3683 C 141.5522,158.4049 141.5003,158.3235 141.6462,158.1443 L 143.5196,155.8431 L 141.6484,153.5445 C 141.5032,153.3662 141.5477,153.2805 141.7758,153.3173 L 144.7055,153.789 L 145.7605,151.0192 C 145.8424,150.8044 145.9388,150.8001 146.021,151.016 z "
   style="fill:#0a0b0c" />
     <polygon
   id="_66102456"
   class="fil3"
   points="145.891,151.35 146.922,154.057 149.782,153.597 147.953,155.844 149.782,158.09 146.922,157.63 145.891,160.337 144.86,157.63 142,158.09 143.828,155.844 142,153.597 144.86,154.057 145.891,151.35 "
   style="fill:#facf00" />
    </g>
    <g
   id="g26">
     <path
   id="_66102360"
   class="fil1"
   d="M 136.562,151.016 L 137.6183,153.789 L 140.5446,153.3178 C 140.7716,153.2812 140.8235,153.3626 140.6776,153.5418 L 138.8043,155.8431 L 140.6754,158.1416 C 140.8206,158.32 140.7761,158.4056 140.548,158.3689 L 137.6183,157.8971 L 136.5633,160.6669 C 136.4814,160.8817 136.385,160.8861 136.3028,160.6701 L 135.2465,157.8971 L 132.3203,158.3683 C 132.0932,158.4049 132.0414,158.3235 132.1872,158.1443 L 134.0606,155.8431 L 132.1894,153.5445 C 132.0443,153.3662 132.0888,153.2805 132.3169,153.3173 L 135.2465,153.789 L 136.3016,151.0192 C 136.3834,150.8044 136.4798,150.8001 136.562,151.016 L 136.562,151.016 z "
   style="fill:#0a0b0c" />
     <polygon
   id="_66102288"
   class="fil3"
   points="136.432,151.35 137.463,154.057 140.323,153.597 138.495,155.844 140.323,158.09 137.463,157.63 136.432,160.337 135.401,157.63 132.541,158.09 134.37,155.844 132.541,153.597 135.401,154.057 136.432,151.35 "
   style="fill:#facf00" />
    </g>
    <g
   id="g30">
     <path
   id="_66102192"
   class="fil1"
   d="M 155.486,151.016 L 156.5423,153.789 L 159.4685,153.3178 C 159.6956,153.2812 159.7475,153.3626 159.6016,153.5418 L 157.7282,155.8431 L 159.5994,158.1416 C 159.7446,158.32 159.7001,158.4056 159.472,158.3689 L 156.5423,157.8971 L 155.4873,160.6669 C 155.4054,160.8817 155.309,160.8861 155.2268,160.6701 L 154.1705,157.8971 L 151.2442,158.3683 C 151.0172,158.4049 150.9653,158.3235 151.1112,158.1443 L 152.9846,155.8431 L 151.1134,153.5445 C 150.9682,153.3662 151.0127,153.2805 151.2408,153.3173 L 154.1705,153.789 L 155.2255,151.0192 C 155.3074,150.8044 155.4038,150.8001 155.486,151.016 z "
   style="fill:#0a0b0c" />
     <polygon
   id="_66102120"
   class="fil3"
   points="155.356,151.35 156.387,154.057 159.248,153.597 157.419,155.844 159.248,158.09 156.387,157.63 155.356,160.337 154.325,157.63 151.465,158.09 153.294,155.844 151.465,153.597 154.325,154.057 155.356,151.35 "
   style="fill:#facf00" />
    </g>
    <g
   id="g34">
     <path
   id="_66102024"
   class="fil1"
   d="M 146.021,161.801 L 147.0773,164.574 L 150.0035,164.1028 C 150.2306,164.0663 150.2825,164.1476 150.1366,164.3268 L 148.2632,166.6281 L 150.1344,168.9266 C 150.2796,169.105 150.2351,169.1906 150.007,169.1539 L 147.0773,168.6821 L 146.0223,171.4519 C 145.9404,171.6667 145.844,171.6711 145.7618,171.4551 L 144.7055,168.6821 L 141.7792,169.1533 C 141.5522,169.1899 141.5003,169.1085 141.6462,168.9294 L 143.5196,166.6281 L 141.6484,164.3295 C 141.5032,164.1512 141.5477,164.0655 141.7758,164.1023 L 144.7055,164.574 L 145.7605,161.8042 C 145.8424,161.5894 145.9388,161.5851 146.021,161.801 z "
   style="fill:#0a0b0c" />
     <polygon
   id="_66101952"
   class="fil3"
   points="145.891,162.134 146.922,164.842 149.782,164.381 147.953,166.628 149.782,168.874 146.922,168.414 145.891,171.121 144.86,168.414 142,168.874 143.828,166.628 142,164.381 144.86,164.842 145.891,162.134 "
   style="fill:#facf00" />
    </g>
    <g
   id="g38">
     <path
   id="_66101856"
   class="fil1"
   d="M 136.562,161.801 L 137.6183,164.574 L 140.5446,164.1028 C 140.7716,164.0663 140.8235,164.1476 140.6776,164.3268 L 138.8043,166.6281 L 140.6754,168.9266 C 140.8206,169.105 140.7761,169.1906 140.548,169.1539 L 137.6183,168.6821 L 136.5633,171.4519 C 136.4814,171.6667 136.385,171.6711 136.3028,171.4551 L 135.2465,168.6821 L 132.3203,169.1533 C 132.0932,169.1899 132.0414,169.1085 132.1872,168.9294 L 134.0606,166.6281 L 132.1894,164.3295 C 132.0443,164.1512 132.0888,164.0655 132.3169,164.1023 L 135.2465,164.574 L 136.3016,161.8042 C 136.3834,161.5894 136.4798,161.5851 136.562,161.801 L 136.562,161.801 z "
   style="fill:#0a0b0c" />
     <polygon
   id="_66101784"
   class="fil3"
   points="136.432,162.134 137.463,164.842 140.323,164.381 138.495,166.628 140.323,168.874 137.463,168.414 136.432,171.121 135.401,168.414 132.541,168.874 134.37,166.628 132.541,164.381 135.401,164.842 136.432,162.134 "
   style="fill:#facf00" />
    </g>
    <g
   id="g42">
     <path
   id="_66101688"
   class="fil1"
   d="M 155.486,161.801 L 156.5423,164.574 L 159.4685,164.1028 C 159.6956,164.0663 159.7475,164.1476 159.6016,164.3268 L 157.7282,166.6281 L 159.5994,168.9266 C 159.7446,169.105 159.7001,169.1906 159.472,169.1539 L 156.5423,168.6821 L 155.4873,171.4519 C 155.4054,171.6667 155.309,171.6711 155.2268,171.4551 L 154.1705,168.6821 L 151.2442,169.1533 C 151.0172,169.1899 150.9653,169.1085 151.1112,168.9294 L 152.9846,166.6281 L 151.1134,164.3295 C 150.9682,164.1512 151.0127,164.0655 151.2408,164.1023 L 154.1705,164.574 L 155.2255,161.8042 C 155.3074,161.5894 155.4038,161.5851 155.486,161.801 z "
   style="fill:#0a0b0c" />
     <polygon
   id="_66101616"
   class="fil3"
   points="155.356,162.134 156.387,164.842 159.248,164.381 157.419,166.628 159.248,168.874 156.387,168.414 155.356,171.121 154.325,168.414 151.465,168.874 153.294,166.628 151.465,164.381 154.325,164.842 155.356,162.134 "
   style="fill:#facf00" />
    </g>
    <g
   id="g46">
     <path
   id="_66101520"
   class="fil1"
   d="M 146.021,172.585 L 147.0773,175.3581 L 150.0035,174.8868 C 150.2306,174.8503 150.2825,174.9316 150.1366,175.1108 L 148.2632,177.4121 L 150.1344,179.7106 C 150.2796,179.889 150.2351,179.9746 150.007,179.9379 L 147.0773,179.4661 L 146.0223,182.2359 C 145.9404,182.4507 145.844,182.4551 145.7618,182.2391 L 144.7055,179.4661 L 141.7792,179.9373 C 141.5522,179.9739 141.5003,179.8925 141.6462,179.7134 L 143.5196,177.4121 L 141.6484,175.1135 C 141.5032,174.9352 141.5477,174.8495 141.7758,174.8863 L 144.7055,175.3581 L 145.7605,172.5882 C 145.8424,172.3734 145.9388,172.3691 146.021,172.585 z "
   style="fill:#0a0b0c" />
     <polygon
   id="_66101448"
   class="fil3"
   points="145.891,172.919 146.922,175.626 149.782,175.165 147.953,177.412 149.782,179.659 146.922,179.198 145.891,181.906 144.86,179.198 142,179.659 143.828,177.412 142,175.165 144.86,175.626 145.891,172.919 "
   style="fill:#facf00" />
    </g>
    <g
   id="g50">
     <path
   id="_66101352"
   class="fil1"
   d="M 136.562,172.585 L 137.6183,175.3581 L 140.5446,174.8868 C 140.7716,174.8503 140.8235,174.9316 140.6776,175.1108 L 138.8043,177.4121 L 140.6754,179.7106 C 140.8206,179.889 140.7761,179.9746 140.548,179.9379 L 137.6183,179.4661 L 136.5633,182.2359 C 136.4814,182.4507 136.385,182.4551 136.3028,182.2391 L 135.2465,179.4661 L 132.3203,179.9373 C 132.0932,179.9739 132.0414,179.8925 132.1872,179.7134 L 134.0606,177.4121 L 132.1894,175.1135 C 132.0443,174.9352 132.0888,174.8495 132.3169,174.8863 L 135.2465,175.3581 L 136.3016,172.5882 C 136.3834,172.3734 136.4798,172.3691 136.562,172.585 L 136.562,172.585 z "
   style="fill:#0a0b0c" />
     <polygon
   id="_66101280"
   class="fil3"
   points="136.432,172.919 137.463,175.626 140.323,175.165 138.495,177.412 140.323,179.659 137.463,179.198 136.432,181.906 135.401,179.198 132.541,179.659 134.37,177.412 132.541,175.165 135.401,175.626 136.432,172.919 "
   style="fill:#facf00" />
    </g>
    <g
   id="g54">
     <path
   id="_66101184"
   class="fil1"
   d="M 110.318,117.504 L 108.2193,117.5046 C 107.1947,117.4944 104.631,117.4015 103.9823,116.2451 L 103.4764,116.2451 L 103.4764,123.0757 L 103.9823,123.0757 C 104.631,121.9193 107.1947,121.8264 108.2193,121.8162 L 110.3173,121.8168 L 110.3164,126.5801 L 104.5924,126.5817 C 103.5678,126.5716 101.004,126.4786 100.3554,125.3222 L 99.8495,125.3222 L 99.8495,132.1529 L 100.3554,132.1529 C 101.004,130.9965 103.5678,130.9036 104.5924,130.8934 L 110.3165,130.895 L 110.3183,141.4131 C 110.3081,142.4377 110.2152,145.0014 109.0588,145.6501 L 109.0588,146.156 L 115.8895,146.156 L 115.8895,145.6501 C 114.7331,145.0014 114.6402,142.4377 114.63,141.4131 L 114.6318,130.895 L 120.3242,130.8934 C 121.3488,130.9036 123.9126,130.9965 124.5612,132.1529 L 125.0671,132.1529 L 125.0671,125.3222 L 124.5612,125.3222 C 123.9126,126.4786 121.3488,126.5716 120.3242,126.5817 L 114.6317,126.5801 L 114.6309,121.8168 L 116.7153,121.8162 C 117.7399,121.8264 120.3036,121.9193 120.9523,123.0757 L 121.4582,123.0757 L 121.4582,116.2451 L 120.9523,116.2451 C 120.3036,117.4015 117.7399,117.4944 116.7153,117.5046 L 114.6302,117.504 L 114.63,115.9284 C 114.6402,114.9038 114.7331,112.3401 115.8895,111.6914 L 115.8895,111.1855 L 109.0588,111.1855 L 109.0588,111.6914 C 110.2152,112.3401 110.3081,114.9038 110.3183,115.9284 L 110.318,117.504 L 110.318,117.504 z "
   style="fill:#0a0b0c" />
     <path
   id="_66101112"
   class="fil3"
   d="M 114.376,130.639 L 114.376,141.3709 C 114.3692,142.304 114.4962,145.032 115.6359,145.8053 L 115.6355,145.9137 L 109.3122,145.9137 L 109.3118,145.8053 C 110.4515,145.032 110.5785,142.304 110.5716,141.3709 L 110.5716,130.639 L 104.6336,130.639 C 103.7005,130.6322 100.9724,130.7592 100.1992,131.8989 L 100.0908,131.8985 L 100.0908,125.5752 L 100.1992,125.5748 C 100.9724,126.7145 103.7005,126.8416 104.6336,126.8347 L 110.552,126.8347 L 110.5615,121.5619 L 108.2605,121.5619 C 107.3274,121.555 104.5994,121.6821 103.8261,122.8217 L 103.7177,122.8213 L 103.7177,116.4981 L 103.8261,116.4976 C 104.5994,117.6373 107.3274,117.7644 108.2605,117.7575 L 110.5684,117.7575 L 110.5716,115.9692 C 110.5785,115.0361 110.4515,112.3081 109.3118,111.5348 L 109.3122,111.4264 L 115.6355,111.4264 L 115.6359,111.5348 C 114.4962,112.3081 114.3692,115.0361 114.376,115.9692 L 114.376,117.7575 L 116.6735,117.7575 C 117.6066,117.7644 120.3346,117.6373 121.1079,116.4976 L 121.2163,116.4981 L 121.2163,122.8213 L 121.1079,122.8217 C 120.3346,121.6821 117.6066,121.555 116.6735,121.5619 L 114.376,121.5619 L 114.376,126.8347 L 120.2824,126.8347 C 121.2155,126.8416 123.9436,126.7145 124.7168,125.5748 L 124.8252,125.5752 L 124.8252,131.8985 L 124.7168,131.8989 C 123.9436,130.7592 121.2155,130.6322 120.2824,130.639 L 114.376,130.639 L 114.376,130.639 z "
   style="fill:#facf00" />
    </g>
    <path
   id="_113327112"
   class="fil0"
   d="M 129.846,188.166 C 123.7564,188.1385 118.0325,186.4879 113.0857,183.6274 L 129.846,183.6274 L 129.846,188.166 z M 106.1512,178.3352 C 104.6758,176.8785 103.3314,175.2896 102.1393,173.587 L 129.846,173.587 L 129.846,178.3352 L 106.1512,178.3352 z M 99.1063,168.3102 C 98.407,166.7934 97.8148,165.218 97.3429,163.5927 L 129.846,163.5927 L 129.846,168.3102 L 99.1063,168.3102 z M 96.2541,158.2697 C 96.0915,156.9294 96.0058,155.5662 96.0058,154.1838 L 96.0058,153.6292 L 129.846,153.6292 L 129.846,158.2697 L 96.2541,158.2697 L 96.2541,158.2697 z "
   style="fill:#ffffff" />
   </g>
   <rect
   id="_113327016"
   class="fil2"
   x="50"
   y="198.5"
   width="160"
   height="25"
   style="fill:#db261b" />
   <rect
   id="_113326944"
   class="fil3"
   x="4.9220202e-005"
   y="73.5"
   width="50"
   height="150"
   style="fill:#facf00" />
   <rect
   id="_113326800"
   class="fil4"
   x="50"
   y="73.500099"
   width="160"
   height="25"
   style="fill:#0093dd" />
  </g>
 </g>
</svg>