<?xml version="1.0" encoding="UTF-8" standalone="no"?>
<!-- Created with Inkscape (http://www.inkscape.org/) -->
<svg
   xmlns:dc="http://purl.org/dc/elements/1.1/"
   xmlns:cc="http://web.resource.org/cc/"
   xmlns:rdf="http://www.w3.org/1999/02/22-rdf-syntax-ns#"
   xmlns:svg="http://www.w3.org/2000/svg"
   xmlns="http://www.w3.org/2000/svg"
   xmlns:sodipodi="http://inkscape.sourceforge.net/DTD/sodipodi-0.dtd"
   xmlns:inkscape="http://www.inkscape.org/namespaces/inkscape"
   id="svg2"
   sodipodi:version="0.32"
   inkscape:version="0.42+devel"
   width="800pt"
   height="385pt"
   sodipodi:docbase="E:\Inkscape - rysunki\Nowe"
   sodipodi:docname="POL_województwo_wielkopolskie_flag.svg"
   version="1.0">
  <metadata
     id="metadata7">
    <rdf:RDF>
      <cc:Work
         rdf:about="">
        <dc:format>image/svg+xml</dc:format>
        <dc:type
           rdf:resource="http://purl.org/dc/dcmitype/StillImage" />
      </cc:Work>
    </rdf:RDF>
  </metadata>
  <defs
     id="defs5" />
  <sodipodi:namedview
     inkscape:window-height="657"
     inkscape:window-width="751"
     inkscape:pageshadow="2"
     inkscape:pageopacity="0.0"
     borderopacity="1.0"
     bordercolor="#666666"
     pagecolor="#ffffff"
     id="base"
     inkscape:zoom="0.61353411"
     inkscape:cx="503.71709"
     inkscape:cy="251.85855"
     inkscape:window-x="2"
     inkscape:window-y="4"
     inkscape:current-layer="svg2" />
  <g
     id="g3660">
    <g
       transform="matrix(1.000000,0.000000,0.000000,1.056602,6.000000,-5.415004)"
       id="g2467">
      <rect
         style="fill:#E3001B;fill-opacity:1;stroke:none;stroke-width:1.77165353;stroke-linecap:round;stroke-linejoin:round;stroke-miterlimit:4;stroke-dasharray:none;stroke-opacity:1"
         id="rect1308"
         width="454.23676"
         height="445.77274"
         x="0"
         y="11.907084" />
      <path
         style="fill:#ffffff;fill-opacity:1;stroke:none;stroke-width:1.77165353;stroke-linecap:round;stroke-linejoin:round;stroke-miterlimit:4;stroke-opacity:1"
         d="M 454.23676,11.907084 L 988.47351,11.907084 L 728.47351,457.67982 L 454.23676,457.67982 L 454.23676,11.907084 z "
         id="rect1589"
         sodipodi:nodetypes="ccccc" />
      <path
         sodipodi:nodetypes="ccccc"
         id="path1592"
         d="M 2.1081179e-007,11.907084 L 988.47351,11.907084 L 728.47351,457.67982 L 2.1081179e-007,457.67982 L 2.1081179e-007,11.907084 z "
         style="fill:none;fill-opacity:1;stroke:#000000;stroke-width:2.83464575;stroke-linecap:round;stroke-linejoin:round;stroke-miterlimit:4;stroke-dasharray:none;stroke-opacity:1" />
    </g>
    <g
       transform="translate(486.3161,-10.68827)"
       id="g3532">
      <path
         style="fill:none;fill-opacity:0.75;fill-rule:evenodd;stroke:#000000;stroke-width:0.59394008px;stroke-linecap:butt;stroke-linejoin:miter;stroke-opacity:1"
         d="M -303.75391,73.748116 C -304.02793,73.748116 -304.30195,73.748116 -303.75391,73.748116 z "
         id="path2893" />
      <g
         id="g2895"
         transform="matrix(0.556250,0.000000,0.000000,0.634184,-49.36215,20.01105)">
        <a
           style="fill:none;fill-opacity:1"
           id="a2897">
          <path
             style="fill:#000000;fill-opacity:1;fill-rule:evenodd;stroke:none;stroke-width:1px;stroke-linecap:butt;stroke-linejoin:miter;stroke-opacity:1"
             d="M -457.89482,94.67787 C -469.12096,84.045895 -470.06026,62.636063 -461.17956,50.109568 C -452.5333,37.365533 -440.43397,34.980725 -425.76218,40.31327 C -417.95161,46.229413 -410.76614,50.43409 -404.4259,60.546559 C -400.4155,57.364778 -396.92307,57.426965 -391.85192,62.920112 C -341.48754,52.197746 -316.53006,95.571026 -319.51002,124.71214 C -321.8417,145.50061 -327.08821,167.26069 -318.0029,184.24349 C -309.76466,199.31472 -305.14713,214.38595 -302.93167,229.45718 C -265.11087,224.97009 -231.24533,212.57247 -203.46157,188.0113 C -192.89901,183.74271 -196.69702,177.67904 -201.95445,171.43295 C -226.41148,155.25801 -228.5425,93.726927 -170.30487,84.773392 C -124.89289,79.479955 -89.055851,104.92784 -81.384629,169.92583 C -79.957977,208.10627 -87.406345,247.04028 -101.73079,284.46716 C -108.11794,349.1982 -127.26338,388.4201 -147.69803,431.41163 C -153.81316,439.08582 -158.13813,447.35673 -158.24789,457.03271 C -166.78825,463.0612 -172.31437,463.0612 -174.82624,457.03271 L -183.86898,441.96148 C -196.91949,451.63432 -207.34312,432.41157 -218.5328,421.61533 C -234.40525,436.99634 -244.76591,416.55075 -256.96443,408.05122 L -272.03566,410.31191 L -253.19662,434.42587 L -267.51429,441.20792 C -269.66003,448.49235 -263.23156,455.77677 -255.45731,463.0612 C -248.1866,470.51453 -242.66089,467.49777 -237.37183,463.0612 C -229.60113,455.00067 -220.40431,448.93672 -202.70801,454.77203 C -181.28343,455.73994 -183.15595,468.3564 -180.85473,478.88599 L -246.41457,478.88599 L -185.3761,479.63955 C -177.53424,495.04549 -181.66688,507.18565 -195.92596,516.56406 L -204.96869,501.49283 L -219.28636,500.73927 L -212.50431,512.79625 C -206.3265,539.79551 -222.70026,546.83443 -232.85047,550.47432 C -226.36727,537.78777 -228.53476,530.50789 -238.12539,527.86748 C -257.60422,521.98116 -256.57849,516.56202 -258.47155,506.76776 C -264.82507,500.13338 -266.57527,484.29238 -284.09264,499.98571 C -293.61323,504.61111 -303.60514,512.06448 -311.22085,505.26064 C -314.53911,509.7556 -320.66118,512.84865 -316.49578,521.08543 C -331.2125,519.63908 -345.31788,488.33306 -317.24934,484.16092 C -308.32318,475.40544 -296.31357,478.98376 -285.59976,477.37887 L -285.59976,469.08969 C -288.14246,464.76884 -289.35947,461.27655 -307.45304,447.23641 L -314.98866,464.56833 C -330.56959,457.04004 -334.6069,437.96814 -340.60974,420.86177 C -348.58645,429.52058 -357.02155,438.12846 -347.3918,448.74354 C -332.19169,464.30995 -333.70574,478.89317 -352.66673,492.4501 C -359.81441,565.44256 -305.42574,587.14219 -267.51429,554.99569 C -259.0068,591.78669 -269.0302,614.88095 -306.69948,617.54129 C -305.74618,629.11117 -308.07622,639.03938 -311.10138,648.62004 C -323.67451,650.71562 -335.32076,649.10367 -345.88467,643.16237 C -356.07401,664.31675 -369.35319,677.52095 -382.80918,689.88318 C -394.61497,679.46709 -406.42077,663.62446 -418.22656,643.16237 C -437.26456,648.97502 -436.65812,649.78714 -450.89893,649.67085 C -453.66369,638.69401 -454.88287,637.32797 -455.15107,616.78772 C -500.81966,617.32467 -508.08931,584.62794 -498.10407,558.7635 C -449.64735,583.27451 -413.21709,571.82667 -410.69095,490.94297 C -425.74472,482.08513 -432.22399,460.87552 -415.21232,452.51135 C -414.39703,444.76244 -411.80306,432.73927 -420.48725,426.89026 C -430.17046,436.01781 -436.17264,447.90613 -437.81916,463.0612 C -446.10148,464.05223 -450.82655,457.92878 -455.15107,451.00422 C -468.02935,456.31772 -478.3499,463.33638 -479.26504,476.6253 C -470.33321,480.00164 -448.92289,474.6673 -444.60121,483.40736 C -420.35836,487.42079 -422.28123,507.74805 -440.83341,520.33186 C -439.24781,514.16209 -438.70499,513.92946 -448.36902,510.53557 C -466.79806,518.09715 -470.50908,497.32941 -480.77216,496.2179 C -488.27438,492.87697 -491.46289,496.0066 -495.08983,498.47859 C -517.81987,503.82734 -498.9393,524.28086 -525.98584,531.63529 L -524.47872,547.46007 C -542.48137,545.77481 -555.76788,535.59602 -543.31775,512.79625 L -541.81063,505.26064 C -558.25868,497.16691 -560.99125,509.6464 -565.92459,518.82475 C -580.81678,509.6386 -588.66343,496.09445 -574.96733,484.16093 C -583.70342,458.9189 -565.52363,454.0272 -549.34624,454.77203 C -537.88656,453.64459 -527.91164,463.73117 -518.45023,465.32189 C -503.45867,471.29521 -495.26308,458.09064 -491.32202,440.45436 C -495.83587,441.59598 -500.22943,442.91803 -508.65393,438.19368 C -502.33506,429.65332 -495.30662,421.11295 -492.82914,412.57259 C -507.42166,419.56374 -505.94215,412.49186 -504.88612,405.79053 C -517.90334,418.68856 -535.52088,438.12821 -541.81063,419.35465 C -548.34149,435.09178 -567.6829,454.59324 -576.47445,439.7008 C -579.71328,455.84329 -588.05581,465.25501 -596.82061,467.58257 C -608.91864,437.55567 -656.11047,363.9627 -658.61264,290.49565 C -681.43335,230.20577 -702.18318,92.341999 -598.32773,85.526953 C -546.41006,80.672424 -515.9476,138.84571 -562.15679,176.70788 C -563.20456,180.97806 -564.41675,185.24824 -557.63542,189.51842 C -536.9098,204.86888 -495.16923,232.57068 -450.6297,228.70362 C -446.1395,212.85084 -439.31771,201.74576 -425.73164,191.80916 C -422.26742,182.68103 -415.50352,171.37846 -406.92314,167.66514 C -399.78269,162.85679 -398.78533,159.34173 -403.9089,157.11528 C -425.55531,144.28995 -428.77867,110.27449 -445.35477,91.555444 C -450.12733,84.063717 -455.84144,84.618532 -457.89482,94.67787 z "
             id="path2899"
             sodipodi:nodetypes="ccccccccccccccccccccccccccccccccccccccccccccccccccccccccccccccccccccccccccccccccccccccccccc" />
        </a>
        <g
           id="g2901">
          <g
             id="g2903">
            <path
               sodipodi:nodetypes="cccccccccccccc"
               id="path2905"
               d="M -459.3806,81.426505 C -465.25546,64.538164 -456.37694,40.663578 -436.32695,43.061709 C -424.12404,47.161725 -407.31556,59.892676 -405.91634,66.544077 C -402.25677,59.122555 -397.018,63.14043 -397.80453,68.584468 C -401.01158,82.936521 -404.50056,99.987453 -399.86998,112.03715 C -398.1143,124.0696 -379.18634,128.04141 -389.59123,146.56542 C -400.74911,150.24034 -408.89998,145.32382 -414.45876,133.00132 C -424.75321,114.64779 -435.00962,96.142071 -446.8619,84.01983 C -448.63668,79.307281 -443.86699,76.440878 -440.83341,77.991339 C -427.75857,93.270883 -413.84415,107.8158 -406.92314,128.47995 C -404.77405,141.36577 -392.13505,142.13621 -392.38587,130.62294 C -410.75727,114.64942 -403.87825,106.42492 -410.85659,97.568226 C -416.81359,90.007782 -424.30205,89.636744 -432.88441,76.324892 C -441.61376,60.889844 -457.64652,71.00576 -459.3806,81.426505 z "
               style="fill:#FFEE00;fill-opacity:1;fill-rule:evenodd;stroke:#FFEE00;stroke-width:1px;stroke-linecap:butt;stroke-linejoin:miter;stroke-opacity:1" />
            <path
               sodipodi:nodetypes="cccccscscscccccc"
               id="path2907"
               d="M -327.28991,110.76946 C -334.2345,90.237088 -346.44807,62.809927 -386.78268,67.418564 C -395.12695,68.049092 -396.25008,75.344371 -390.97677,81.546371 C -370.89526,84.494116 -356.74747,96.243072 -358.42764,115.81343 C -363.64692,119.4312 -373.3293,120.55265 -383.60311,114.47511 C -393.04856,109.39165 -392.19583,102.39165 -391.01064,91.91086 C -390.36742,86.222758 -395.71796,90.155376 -395.63687,91.157327 C -401.26867,112.79675 -389.71901,116.65303 -384.97855,129.0886 C -380.73613,140.21768 -380.85546,149.29743 -397.6083,152.2698 C -398.34962,159.17607 -393.87828,162.28612 -398.92467,165.86523 C -412.8973,175.77522 -415.16962,182.6007 -419.59355,187.87803 C -399.60007,190.17489 -388.38075,179.80517 -378.29771,176.29449 C -376.29823,182.26977 -376.83662,186.91574 -371.4277,191.24094 C -360.45747,187.82865 -359.67418,183.18575 -353.38543,176.9865 C -349.13945,184.97759 -348.54792,193.91713 -323.62907,187.82796 C -338.79653,156.18539 -320.35082,131.02463 -327.28991,110.76946 z "
               style="fill:#ffffff;fill-opacity:1;fill-rule:evenodd;stroke:none;stroke-width:1px;stroke-linecap:butt;stroke-linejoin:miter;stroke-opacity:1" />
            <path
               sodipodi:nodetypes="ccccc"
               id="path2909"
               d="M -442.10288,224.63454 C -417.22666,228.14833 -412.13301,210.44784 -410.8197,196.95718 C -410.73218,196.05811 -422.24546,209.78701 -422.18678,208.93285 C -423.14842,208.62816 -414.35784,193.7226 -415.54748,193.83397 C -425.94156,194.80703 -441.92078,210.89774 -442.10288,224.63454 z "
               style="fill:#ffffff;fill-opacity:1;fill-rule:evenodd;stroke:none;stroke-width:1px;stroke-linecap:butt;stroke-linejoin:miter;stroke-opacity:1" />
            <path
               style="fill:#ffffff;fill-opacity:1;fill-rule:evenodd;stroke:none;stroke-width:1px;stroke-linecap:butt;stroke-linejoin:miter;stroke-opacity:1"
               d="M -313.31019,224.71184 C -340.33587,222.18002 -337.72056,213.15487 -331.58309,193.53895 C -331.40386,192.96613 -324.99531,212.32324 -324.81073,211.73227 C -324.24039,211.75348 -325.70933,195.1173 -326.73485,191.68256 C -317.32744,194.19595 -309.63713,213.89224 -313.31019,224.71184 z "
               id="path2911"
               sodipodi:nodetypes="ccccc" />
            <g
               id="g2913">
              <g
                 id="g2915">
                <path
                   sodipodi:nodetypes="ccsccccccscc"
                   id="path2917"
                   d="M -591.81788,116.19401 C -599.48227,113.70392 -603.1117,119.21093 -604.38783,125.06775 C -607.82152,122.62097 -618.00331,120.94557 -621.17529,129.42972 C -624.39559,138.04308 -614.93587,144.29342 -608.08588,143.10178 C -614.35096,155.3794 -618.66332,169.79254 -618.31324,183.29392 C -613.0773,246.11749 -516.25661,263.29727 -456.13997,269.05851 L -456.67709,257.05874 C -533.53859,255.5916 -605.02067,221.48409 -607.18296,183.61325 C -607.86961,172.21886 -605.18726,156.78727 -599.39991,146.04366 C -596.30412,149.891 -585.09978,152.21266 -581.3447,144.52809 C -577.31329,136.27802 -584.17794,130.40104 -588.92333,130.56837 C -585.81065,127.49254 -584.20185,118.92312 -591.81788,116.19401 z "
                   style="opacity:1;fill:#FFEE00;fill-opacity:1;fill-rule:nonzero;stroke:none;stroke-width:2.83464575;stroke-linecap:round;stroke-linejoin:round;stroke-miterlimit:4;stroke-dasharray:none;stroke-dashoffset:0;stroke-opacity:1" />
                <path
                   sodipodi:nodetypes="cccccccccccccccccc"
                   id="path2919"
                   d="M -455.13365,234.88942 C -450.7715,241.97453 -455.67622,249.00015 -457.24345,253.12057 C -509.91239,253.60198 -563.87732,232.63991 -580.38937,217.15761 C -604.48316,197.88121 -607.22188,182.56169 -599.3828,161.57847 C -597.13513,153.77479 -592.6304,152.76861 -587.34326,153.89807 C -576.69459,155.29521 -570.46921,140.30148 -580.49316,128.98865 C -575.7865,110.84342 -598.48825,103.57102 -606.33669,118.14268 C -629.32377,115.59217 -631.4339,138.72962 -616.71561,146.16578 C -614.07413,151.22925 -617.30368,155.10618 -618.31961,158.23386 C -632.99683,203.41953 -606.79882,214.16381 -607.06321,228.83389 C -606.26828,258.2221 -611.52129,261.87082 -621.69749,265.05634 C -632.52726,259.40762 -631.24939,250.80871 -636.43556,234.5942 C -637.83334,263.18719 -638.11834,280.39663 -651.69258,283.11566 C -663.95081,248.91392 -685.31669,176.22874 -649.513,121.25636 C -624.99581,85.60094 -565.8441,85.748925 -555.01292,113.00512 C -542.90428,140.99701 -555.66627,159.43242 -566.58541,170.29677 C -570.68166,176.70325 -573.05948,184.25207 -563.7831,192.1444 C -535.66905,221.66933 -476.0607,236.42692 -455.13365,234.88942 z "
                   style="fill:#ffffff;fill-opacity:1;fill-rule:evenodd;stroke:none;stroke-width:1px;stroke-linecap:butt;stroke-linejoin:miter;stroke-opacity:1" />
                <g
                   id="g2921">
                  <path
                     style="fill:#ffffff;fill-opacity:1;fill-rule:evenodd;stroke:none;stroke-width:1px;stroke-linecap:butt;stroke-linejoin:miter;stroke-opacity:1"
                     d="M -601.18912,229.34871 C -605.30597,237.5316 -603.61134,267.29576 -588.08491,274.80029 C -574.84067,269.03946 -576.4772,257.25447 -577.34498,246.43052 C -585.29303,242.00176 -593.24108,236.70558 -601.18912,229.34871 z "
                     id="path2923"
                     sodipodi:nodetypes="cccc" />
                  <path
                     style="fill:#f7f7ff;fill-opacity:1;fill-rule:evenodd;stroke:none;stroke-width:1px;stroke-linecap:butt;stroke-linejoin:miter;stroke-opacity:1"
                     d="M -572.43535,248.76492 C -572.22555,260.78286 -573.6644,276.45995 -561.57648,281.39527 C -549.1822,276.88962 -549.94376,264.3612 -549.5866,257.27235 C -557.34126,255.10585 -565.49384,251.74457 -572.43535,248.76492 z "
                     id="path2925"
                     sodipodi:nodetypes="cccc" />
                  <path
                     style="fill:#f7f7ff;fill-opacity:1;fill-rule:evenodd;stroke:none;stroke-width:1px;stroke-linecap:butt;stroke-linejoin:miter;stroke-opacity:1"
                     d="M -544.09275,259.46989 C -544.43986,269.61308 -543.25506,282.74969 -533.85305,289.23696 C -527.46609,286.51965 -523.08277,278.67193 -521.73435,265.45767 C -529.11085,263.7504 -536.29776,261.59565 -544.09275,259.46989 z "
                     id="path2927"
                     sodipodi:nodetypes="cccc" />
                  <path
                     style="fill:#f7f7ff;fill-opacity:1;fill-rule:evenodd;stroke:none;stroke-width:1px;stroke-linecap:butt;stroke-linejoin:miter;stroke-opacity:1"
                     d="M -518.28772,265.92293 C -519.05498,276.50636 -517.30593,289.33009 -508.9714,292.22906 C -502.16241,291.72644 -499.74106,282.44856 -499.20772,269.39463 C -504.78254,269.04832 -513.13262,267.10867 -518.28772,265.92293 z "
                     id="path2929"
                     sodipodi:nodetypes="cccc" />
                  <path
                     sodipodi:nodetypes="cccc"
                     id="path2931"
                     d="M -493.16426,270.6877 C -493.93152,281.27113 -493.09683,292.183 -484.7623,295.08197 C -477.95331,294.57935 -476.0307,285.71709 -475.49736,272.66316 C -481.07218,272.31685 -488.00916,271.87344 -493.16426,270.6877 z "
                     style="fill:#f7f7ff;fill-opacity:1;fill-rule:evenodd;stroke:none;stroke-width:1px;stroke-linecap:butt;stroke-linejoin:miter;stroke-opacity:1" />
                  <path
                     style="fill:#f7f7ff;fill-opacity:1;fill-rule:evenodd;stroke:none;stroke-width:1px;stroke-linecap:butt;stroke-linejoin:miter;stroke-opacity:1"
                     d="M -471.30265,273.26455 C -472.06991,283.84798 -471.98334,292.848 -463.64881,295.74697 C -456.83982,295.24435 -455.9147,286.71458 -455.38136,273.66065 C -462.53553,273.89621 -466.14755,273.36968 -471.30265,273.26455 z "
                     id="path2933"
                     sodipodi:nodetypes="cccc" />
                  <g
                     id="g2935"
                     transform="translate(-750.0847,3.321207)">
                    <path
                       sodipodi:nodetypes="cccc"
                       id="path2937"
                       d="M 127.62244,184.88333 C 125.74011,204.24514 126.23407,230.31153 129.83198,244.75979 C 132.86067,241.79837 132.71026,211.26563 133.69044,202.97809 C 129.89524,196.43379 129.34898,193.08256 127.62244,184.88333 z "
                       style="fill:#000000;fill-opacity:1;fill-rule:evenodd;stroke:none;stroke-width:1px;stroke-linecap:butt;stroke-linejoin:miter;stroke-opacity:1" />
                    <path
                       sodipodi:nodetypes="cccc"
                       id="path2939"
                       d="M 158.17268,233.66236 C 158.38252,239.37463 158.06524,252.19245 162.2105,257.11764 C 164.68327,253.6408 164.89112,244.28024 165.28463,238.72413 L 158.17268,233.66236 z "
                       style="fill:#000000;fill-opacity:1;fill-rule:evenodd;stroke:none;stroke-width:1px;stroke-linecap:butt;stroke-linejoin:miter;stroke-opacity:1" />
                    <path
                       sodipodi:nodetypes="cccc"
                       style="fill:#000000;fill-opacity:1;fill-rule:evenodd;stroke:none;stroke-width:1px;stroke-linecap:butt;stroke-linejoin:miter;stroke-opacity:1"
                       d="M 186.81741,249.16797 C 187.43185,254.70089 186.06168,262.60455 188.94668,267.66503 C 191.00414,264.41877 192.57009,256.75456 192.73884,251.51495 L 186.81741,249.16797 z "
                       id="path2941" />
                    <path
                       id="path2943"
                       d="M 214.7459,258.64687 C 215.36034,264.17979 215.30343,269.34338 217.0138,274.8763 C 220.4356,271.49503 220.02113,264.45215 221.20909,260.32627 L 214.7459,258.64687 z "
                       style="fill:#000000;fill-opacity:1;fill-rule:evenodd;stroke:none;stroke-width:1px;stroke-linecap:butt;stroke-linejoin:miter;stroke-opacity:1"
                       sodipodi:nodetypes="cccc" />
                    <path
                       sodipodi:nodetypes="cccc"
                       style="fill:#000000;fill-opacity:1;fill-rule:evenodd;stroke:none;stroke-width:1px;stroke-linecap:butt;stroke-linejoin:miter;stroke-opacity:1"
                       d="M 263.49508,268.47797 C 263.44453,272.68091 264.10483,277.59185 265.62766,283.02402 C 267.83443,280.26269 268.5404,273.3887 268.90268,268.86994 L 263.49508,268.47797 z "
                       id="path2945" />
                    <path
                       id="path2947"
                       d="M 283.9329,270.14733 C 284.54734,275.68025 284.45579,278.02119 287.00703,283.79995 C 289.95502,281.3234 288.9799,274.42054 289.82804,270.37677 L 283.9329,270.14733 z "
                       style="fill:#000000;fill-opacity:1;fill-rule:evenodd;stroke:none;stroke-width:1px;stroke-linecap:butt;stroke-linejoin:miter;stroke-opacity:1"
                       sodipodi:nodetypes="cccc" />
                    <path
                       sodipodi:nodetypes="cccc"
                       style="fill:#000000;fill-opacity:1;fill-rule:evenodd;stroke:none;stroke-width:1px;stroke-linecap:butt;stroke-linejoin:miter;stroke-opacity:1"
                       d="M 239.7416,264.01986 C 239.69105,268.97091 237.74186,275.2214 241.41426,280.75432 C 243.29649,277.76979 244.83571,269.15743 245.06477,265.34631 L 239.7416,264.01986 z "
                       id="path2949" />
                  </g>
                  <path
                     style="fill:none;fill-opacity:0.75;fill-rule:evenodd;stroke:#000000;stroke-width:1px;stroke-linecap:butt;stroke-linejoin:miter;stroke-opacity:1"
                     d="M -515.90047,267.34741 C -515.95296,267.34741 -516.00546,267.34741 -515.90047,267.34741 z "
                     id="path2951" />
                </g>
              </g>
              <g
                 id="g2953">
                <path
                   sodipodi:nodetypes="cccccccc"
                   id="path2955"
                   d="M -606.53338,260.67739 C -601.61009,326.04384 -567.92013,427.88863 -588.05041,449.39829 C -590.48238,457.23967 -592.91435,454.57853 -595.34632,453.77584 C -608.76654,423.28982 -642.20503,367.97126 -651.28164,288.88825 C -642.43615,288.51485 -636.45727,278.72146 -633.77145,269.91888 C -624.05803,315.69052 -617.26331,363.65212 -602.64224,400.27249 C -614.63591,357.95216 -621.5175,310.51975 -629.8803,266.51412 C -621.33161,271.43667 -612.35175,267.27281 -606.53338,260.67739 z "
                   style="fill:#ffffff;fill-opacity:1;fill-rule:evenodd;stroke:none;stroke-width:1px;stroke-linecap:butt;stroke-linejoin:miter;stroke-opacity:1" />
                <path
                   sodipodi:nodetypes="cccccccccc"
                   id="path2957"
                   d="M -577.83614,273.81004 C -581.08811,276.79018 -584.82647,278.50774 -587.59205,280.86625 C -591.31173,280.30403 -594.05862,278.45213 -597.2919,276.24201 C -590.82975,329.28872 -570.56083,390.5505 -572.4858,432.3745 C -566.18779,445.10414 -544.41745,420.42947 -544.76134,401.24528 L -550.11168,281.10595 C -554.13625,282.96161 -558.11995,283.64012 -561.78392,286.61112 C -567.86885,283.74523 -568.77203,283.18142 -571.51301,278.67398 L -561.78514,390.05822 L -577.83614,273.81004 z "
                   style="fill:#ffffff;fill-opacity:1;fill-rule:evenodd;stroke:none;stroke-width:1px;stroke-linecap:butt;stroke-linejoin:miter;stroke-opacity:1" />
                <path
                   sodipodi:nodetypes="cccccccccc"
                   id="path2959"
                   d="M -543.28834,288.87098 L -533.28464,295.39005 L -523.46532,288.74591 L -520.71386,376.79264 L -518.65026,292.18524 L -509.67587,298.25065 L -501.45363,294.24883 C -501.57606,323.5137 -501.10193,352.62944 -502.82936,382.29556 C -505.82353,398.74464 -516.74239,410.3388 -531.03183,417.37668 C -543.61773,416.48147 -536.94122,329.4446 -543.28834,288.87098 z "
                   style="fill:#ffffff;fill-opacity:1;fill-rule:evenodd;stroke:none;stroke-width:1px;stroke-linecap:butt;stroke-linejoin:miter;stroke-opacity:1" />
                <path
                   sodipodi:nodetypes="cccccccc"
                   id="path2961"
                   d="M -493.18389,296.01287 C -487.21669,301.77761 -482.92683,302.47271 -478.44122,297.12551 L -479.55388,364.44109 L -472.32163,297.12552 C -467.75403,298.75464 -463.10085,302.56616 -459.24794,299.90715 L -460.63876,348.86393 C -461.07449,368.5824 -472.0931,400.34306 -491.79307,402.54949 C -503.77225,397.31516 -487.71334,397.72799 -493.18389,296.01287 z "
                   style="fill:#ffffff;fill-opacity:1;fill-rule:evenodd;stroke:none;stroke-width:1px;stroke-linecap:butt;stroke-linejoin:miter;stroke-opacity:1" />
              </g>
            </g>
            <g
               id="g2963">
              <g
                 id="g2965">
                <path
                   style="opacity:1;fill:#FFEE00;fill-opacity:1;fill-rule:nonzero;stroke:none;stroke-width:2.83464575;stroke-linecap:round;stroke-linejoin:round;stroke-miterlimit:4;stroke-dasharray:none;stroke-dashoffset:0;stroke-opacity:1"
                   d="M -168.81582,116.19401 C -161.15143,113.70392 -157.522,119.21093 -156.24587,125.06775 C -152.81218,122.62097 -142.63039,120.94557 -139.45841,129.42972 C -136.23811,138.04308 -145.69783,144.29342 -152.54782,143.10178 C -146.28274,155.3794 -141.97038,169.79254 -142.32046,183.29392 C -147.5564,246.11749 -244.37709,263.29727 -304.49373,269.05851 L -303.95661,257.05874 C -227.09511,255.5916 -155.61303,221.48409 -153.45074,183.61325 C -152.76409,172.21886 -155.44644,156.78727 -161.23379,146.04366 C -164.32958,149.891 -175.53392,152.21266 -179.289,144.52809 C -183.32041,136.27802 -176.45576,130.40104 -171.71037,130.56837 C -174.82305,127.49254 -176.43185,118.92312 -168.81582,116.19401 z "
                   id="path2967"
                   sodipodi:nodetypes="ccsccccccscc" />
                <path
                   style="fill:#ffffff;fill-opacity:1;fill-rule:evenodd;stroke:#000000;stroke-width:1px;stroke-linecap:butt;stroke-linejoin:miter;stroke-opacity:1"
                   d="M -302.18695,234.66397 C -306.5491,241.74908 -302.75968,247.28763 -301.19245,251.40805 C -248.52351,251.88946 -194.55858,230.92739 -178.04653,215.44509 C -156.2361,196.73953 -152.3557,181.99085 -160.19478,161.00763 C -162.44245,153.20395 -165.8055,151.05609 -171.09264,152.18555 C -181.74131,153.58269 -187.96669,138.58896 -177.94274,127.27613 C -182.6494,109.1309 -159.94765,101.8585 -152.09921,116.43016 C -129.11213,113.87965 -127.002,137.0171 -141.72029,144.45326 C -144.36177,149.51673 -141.13222,153.39366 -140.11629,156.52134 C -125.43907,201.70701 -152.20792,213.02213 -152.51437,224.26717 C -154.45099,246.23445 -149.76881,260.72914 -136.73841,263.34382 C -125.90864,257.6951 -126.04483,243.95862 -122.00034,232.88168 C -123.45676,260.90383 -120.31756,278.11327 -106.74332,280.8323 C -94.485092,246.63056 -73.119212,174.51622 -108.9229,119.54384 C -131.72757,79.321692 -193.73349,85.178084 -204.56467,112.43428 C -216.67331,140.42617 -205.62384,157.7199 -191.85049,170.29677 C -187.75424,176.70325 -186.5181,181.39787 -195.79448,189.2902 C -223.90853,218.81513 -281.2599,236.20147 -302.18695,234.66397 z "
                   id="path2969"
                   sodipodi:nodetypes="cccccccccccccccccc" />
                <g
                   transform="matrix(-1.000000,0.000000,0.000000,1.000000,-759.4669,0.000000)"
                   id="g2971">
                  <path
                     sodipodi:nodetypes="cccc"
                     id="path2973"
                     d="M -601.18912,229.34871 C -605.30597,237.5316 -603.61134,267.29576 -588.08491,274.80029 C -574.84067,269.03946 -576.4772,257.25447 -577.34498,246.43052 C -585.29303,242.00176 -593.24108,236.70558 -601.18912,229.34871 z "
                     style="fill:#ffffff;fill-opacity:1;fill-rule:evenodd;stroke:none;stroke-width:1px;stroke-linecap:butt;stroke-linejoin:miter;stroke-opacity:1" />
                  <path
                     sodipodi:nodetypes="cccc"
                     id="path2975"
                     d="M -572.43535,248.76492 C -572.22555,260.78286 -573.6644,276.45995 -561.57648,281.39527 C -549.1822,276.88962 -549.94376,264.3612 -549.5866,257.27235 C -557.34126,255.10585 -565.49384,251.74457 -572.43535,248.76492 z "
                     style="fill:#f7f7ff;fill-opacity:1;fill-rule:evenodd;stroke:none;stroke-width:1px;stroke-linecap:butt;stroke-linejoin:miter;stroke-opacity:1" />
                  <path
                     sodipodi:nodetypes="cccc"
                     id="path2977"
                     d="M -544.09275,259.46989 C -544.43986,269.61308 -543.25506,282.74969 -533.85305,289.23696 C -527.46609,286.51965 -523.08277,278.67193 -521.73435,265.45767 C -529.11085,263.7504 -536.29776,261.59565 -544.09275,259.46989 z "
                     style="fill:#f7f7ff;fill-opacity:1;fill-rule:evenodd;stroke:none;stroke-width:1px;stroke-linecap:butt;stroke-linejoin:miter;stroke-opacity:1" />
                  <path
                     sodipodi:nodetypes="cccc"
                     id="path2979"
                     d="M -518.28772,265.92293 C -519.05498,276.50636 -517.30593,289.33009 -508.9714,292.22906 C -502.16241,291.72644 -499.74106,282.44856 -499.20772,269.39463 C -504.78254,269.04832 -513.13262,267.10867 -518.28772,265.92293 z "
                     style="fill:#f7f7ff;fill-opacity:1;fill-rule:evenodd;stroke:none;stroke-width:1px;stroke-linecap:butt;stroke-linejoin:miter;stroke-opacity:1" />
                  <path
                     style="fill:#f7f7ff;fill-opacity:1;fill-rule:evenodd;stroke:none;stroke-width:1px;stroke-linecap:butt;stroke-linejoin:miter;stroke-opacity:1"
                     d="M -493.16426,270.6877 C -493.93152,281.27113 -493.09683,292.183 -484.7623,295.08197 C -477.95331,294.57935 -476.0307,285.71709 -475.49736,272.66316 C -481.07218,272.31685 -488.00916,271.87344 -493.16426,270.6877 z "
                     id="path2981"
                     sodipodi:nodetypes="cccc" />
                  <path
                     sodipodi:nodetypes="cccc"
                     id="path2983"
                     d="M -471.30265,273.26455 C -472.06991,283.84798 -471.98334,292.848 -463.64881,295.74697 C -456.83982,295.24435 -455.9147,286.71458 -455.38136,273.66065 C -462.53553,273.89621 -466.14755,273.36968 -471.30265,273.26455 z "
                     style="fill:#f7f7ff;fill-opacity:1;fill-rule:evenodd;stroke:none;stroke-width:1px;stroke-linecap:butt;stroke-linejoin:miter;stroke-opacity:1" />
                  <g
                     transform="translate(-750.0847,3.321207)"
                     id="g2985">
                    <path
                       style="fill:#000000;fill-opacity:1;fill-rule:evenodd;stroke:none;stroke-width:1px;stroke-linecap:butt;stroke-linejoin:miter;stroke-opacity:1"
                       d="M 129.30418,188.07933 C 126.0204,204.24514 127.07494,229.81984 130.11227,241.31795 C 133.14096,238.35653 134.11171,215.9367 135.09189,207.64916 C 131.29669,201.10486 131.03072,196.27856 129.30418,188.07933 z "
                       id="path2987"
                       sodipodi:nodetypes="cccc" />
                    <path
                       style="fill:#000000;fill-opacity:1;fill-rule:evenodd;stroke:none;stroke-width:1px;stroke-linecap:butt;stroke-linejoin:miter;stroke-opacity:1"
                       d="M 159.01355,234.64574 C 159.22339,240.35801 157.78495,252.68414 161.93021,257.60933 C 164.40298,254.13249 164.89112,244.28024 165.28463,238.72413 L 159.01355,234.64574 z "
                       id="path2989"
                       sodipodi:nodetypes="cccc" />
                    <path
                       id="path2991"
                       d="M 186.81741,249.16797 C 187.43185,254.70089 186.90255,263.34209 189.78755,268.40257 C 191.84501,265.15631 192.57009,256.75456 192.73884,251.51495 L 186.81741,249.16797 z "
                       style="fill:#000000;fill-opacity:1;fill-rule:evenodd;stroke:none;stroke-width:1px;stroke-linecap:butt;stroke-linejoin:miter;stroke-opacity:1"
                       sodipodi:nodetypes="cccc" />
                    <path
                       sodipodi:nodetypes="cccc"
                       style="fill:#000000;fill-opacity:1;fill-rule:evenodd;stroke:none;stroke-width:1px;stroke-linecap:butt;stroke-linejoin:miter;stroke-opacity:1"
                       d="M 214.7459,258.64687 C 215.36034,264.17979 213.90198,270.57261 217.57438,276.10553 C 220.99618,272.72426 220.02113,264.45215 221.20909,260.32627 L 214.7459,258.64687 z "
                       id="path2993" />
                    <path
                       id="path2995"
                       d="M 263.49508,268.47797 C 263.44453,272.68091 262.98367,278.32939 265.90795,282.53233 C 268.11472,279.771 268.5404,273.3887 268.90268,268.86994 L 263.49508,268.47797 z "
                       style="fill:#000000;fill-opacity:1;fill-rule:evenodd;stroke:none;stroke-width:1px;stroke-linecap:butt;stroke-linejoin:miter;stroke-opacity:1"
                       sodipodi:nodetypes="cccc" />
                    <path
                       sodipodi:nodetypes="cccc"
                       style="fill:#000000;fill-opacity:1;fill-rule:evenodd;stroke:none;stroke-width:1px;stroke-linecap:butt;stroke-linejoin:miter;stroke-opacity:1"
                       d="M 285.61464,269.90148 C 286.22908,275.4344 283.05434,279.00457 286.72674,284.53749 C 289.67473,282.06094 288.9799,274.42054 289.82804,270.37677 L 285.61464,269.90148 z "
                       id="path2997" />
                    <path
                       id="path2999"
                       d="M 239.7416,264.01986 C 239.69105,268.97091 238.30244,275.46725 241.97484,281.00017 C 243.85707,278.01564 244.83571,269.15743 245.06477,265.34631 L 239.7416,264.01986 z "
                       style="fill:#000000;fill-opacity:1;fill-rule:evenodd;stroke:none;stroke-width:1px;stroke-linecap:butt;stroke-linejoin:miter;stroke-opacity:1"
                       sodipodi:nodetypes="cccc" />
                  </g>
                  <path
                     id="path3001"
                     d="M -515.90047,267.34741 C -515.95296,267.34741 -516.00546,267.34741 -515.90047,267.34741 z "
                     style="fill:none;fill-opacity:0.75;fill-rule:evenodd;stroke:#000000;stroke-width:1px;stroke-linecap:butt;stroke-linejoin:miter;stroke-opacity:1" />
                </g>
              </g>
              <g
                 id="g3003"
                 transform="matrix(-1.000000,0.000000,0.000000,1.000000,-760.3191,0.443586)">
                <path
                   style="fill:#ffffff;fill-opacity:1;fill-rule:evenodd;stroke:none;stroke-width:1px;stroke-linecap:butt;stroke-linejoin:miter;stroke-opacity:1"
                   d="M -606.53338,260.67739 C -601.61009,326.04384 -567.92013,427.88863 -588.05041,449.39829 C -590.48238,457.23967 -592.91435,454.57853 -595.34632,453.77584 C -608.76654,423.28982 -642.20503,367.97126 -651.28164,288.88825 C -642.43615,288.51485 -636.45727,278.72146 -633.77145,269.91888 C -624.05803,315.69052 -617.26331,363.65212 -602.64224,400.27249 C -614.63591,357.95216 -621.5175,310.51975 -629.8803,266.51412 C -621.33161,271.43667 -612.35175,267.27281 -606.53338,260.67739 z "
                   id="path3005"
                   sodipodi:nodetypes="cccccccc" />
                <path
                   style="fill:#ffffff;fill-opacity:1;fill-rule:evenodd;stroke:none;stroke-width:1px;stroke-linecap:butt;stroke-linejoin:miter;stroke-opacity:1"
                   d="M -577.83614,273.81004 C -581.08811,276.79018 -584.82647,278.50774 -587.59205,280.86625 C -591.31173,280.30403 -594.05862,278.45213 -597.2919,276.24201 C -590.82975,329.28872 -570.56083,390.5505 -572.4858,432.3745 C -566.18779,445.10414 -544.41745,420.42947 -544.76134,401.24528 L -550.11168,281.10595 C -554.13625,282.96161 -558.11995,283.64012 -561.78392,286.61112 C -567.86885,283.74523 -568.77203,283.18142 -571.51301,278.67398 L -561.78514,390.05822 L -577.83614,273.81004 z "
                   id="path3007"
                   sodipodi:nodetypes="cccccccccc" />
                <path
                   style="fill:#ffffff;fill-opacity:1;fill-rule:evenodd;stroke:none;stroke-width:1px;stroke-linecap:butt;stroke-linejoin:miter;stroke-opacity:1"
                   d="M -543.28834,288.87098 L -533.28464,295.39005 L -523.46532,288.74591 L -520.71386,376.79264 L -518.65026,292.18524 L -509.67587,298.25065 L -501.45363,294.24883 C -501.57606,323.5137 -501.10193,352.62944 -502.82936,382.29556 C -505.82353,398.74464 -516.74239,410.3388 -531.03183,417.37668 C -543.61773,416.48147 -536.94122,329.4446 -543.28834,288.87098 z "
                   id="path3009"
                   sodipodi:nodetypes="cccccccccc" />
                <path
                   style="fill:#ffffff;fill-opacity:1;fill-rule:evenodd;stroke:none;stroke-width:1px;stroke-linecap:butt;stroke-linejoin:miter;stroke-opacity:1"
                   d="M -493.18389,296.01287 C -487.21669,301.77761 -482.92683,302.47271 -478.44122,297.12551 L -479.55388,364.44109 L -472.32163,297.12552 C -467.75403,298.75464 -463.10085,302.56616 -459.24794,299.90715 L -460.63876,348.86393 C -461.07449,368.5824 -472.0931,400.34306 -491.79307,402.54949 C -503.77225,397.31516 -487.71334,397.72799 -493.18389,296.01287 z "
                   id="path3011"
                   sodipodi:nodetypes="cccccccc" />
              </g>
            </g>
            <g
               id="g3013">
              <path
                 style="fill:#FFEE00;fill-opacity:1;fill-rule:evenodd;stroke:none;stroke-width:2.83464575;stroke-linecap:butt;stroke-linejoin:miter;stroke-miterlimit:4;stroke-dasharray:none;stroke-opacity:1"
                 d="M -441.0951,489.65697 C -429.90157,491.48623 -430.29941,504.74462 -437.94019,510.48612 C -438.85417,505.26988 -443.01323,505.43837 -445.54541,505.06192 C -449.02061,497.44762 -446.7339,492.71427 -441.0951,489.65697 z "
                 id="path3015"
                 sodipodi:nodetypes="cccc" />
              <path
                 style="fill:#FFEE00;fill-opacity:1;fill-rule:evenodd;stroke:none;stroke-width:0.58499998;stroke-linecap:butt;stroke-linejoin:miter;stroke-miterlimit:4;stroke-dasharray:none;stroke-opacity:1"
                 d="M -537.60475,516.66245 C -530.62099,516.92232 -528.34751,518.89888 -525.9267,526.45947 C -531.33091,528.16231 -533.45237,532.5227 -532.33916,539.11498 C -545.87062,535.48448 -544.00143,520.9283 -537.60475,516.66245 z "
                 id="path3017"
                 sodipodi:nodetypes="cccc" />
              <path
                 style="fill:#FFEE00;fill-opacity:1;fill-rule:evenodd;stroke:none;stroke-width:2.83464575;stroke-linecap:butt;stroke-linejoin:miter;stroke-miterlimit:4;stroke-dasharray:none;stroke-opacity:1"
                 d="M -558.40232,485.249 C -555.74077,489.48242 -554.04689,492.00297 -556.30599,497.78466 C -563.52257,501.03871 -567.77328,501.25507 -568.36871,506.0358 C -575.0258,502.03996 -577.60899,484.48595 -558.40232,485.249 z "
                 id="path3019"
                 sodipodi:nodetypes="cccc" />
              <path
                 style="fill:#FFEE00;fill-opacity:1;fill-rule:evenodd;stroke:none;stroke-width:0.58499998;stroke-linecap:butt;stroke-linejoin:miter;stroke-miterlimit:4;stroke-dasharray:none;stroke-opacity:1"
                 d="M -557.92937,461.88573 C -554.65332,466.79249 -555.90705,470.79928 -558.10233,475.70604 C -567.09969,473.10811 -566.23323,473.10195 -571.44611,478.09519 C -573.30914,467.51227 -571.50342,460.97271 -557.92937,461.88573 z "
                 id="path3021"
                 sodipodi:nodetypes="cccc" />
              <path
                 style="fill:#FFEE00;fill-opacity:1;fill-rule:evenodd;stroke:none;stroke-width:0.70999998;stroke-linecap:butt;stroke-linejoin:miter;stroke-miterlimit:4;stroke-dasharray:none;stroke-opacity:1"
                 d="M -479.5425,436.87468 C -488.73222,455.22172 -488.97726,464.78291 -504.05262,475.62494 C -513.31841,476.90184 -521.54605,473.12619 -528.10773,469.28642 C -533.18064,464.29159 -540.94614,460.05051 -549.22969,463.17038 C -548.26814,468.41947 -549.49394,470.36867 -551.28727,475.61776 C -547.04178,477.16852 -544.98748,478.60183 -538.92456,476.51773 C -527.20715,474.91405 -516.29523,475.42683 -507.90296,480.49869 C -521.20849,481.27337 -526.75688,482.90794 -534.62548,481.99223 C -542.63981,481.05957 -547.21345,478.68063 -552.48723,483.10673 C -550.29584,489.53522 -551.8351,491.90333 -551.84849,496.54238 C -546.02885,501.64179 -541.32088,498.35177 -535.50124,494.6154 C -533.17831,483.89854 -518.55378,488.26141 -512.70279,489.14527 C -514.30492,496.32967 -515.38789,495.03355 -518.21168,499.49633 C -528.29464,501.94314 -532.81108,505.52087 -531.98964,511.90496 C -528.42074,514.13358 -524.33534,517.12912 -521.33859,522.00197 C -517.83825,522.87732 -514.59361,518.4354 -514.49913,509.89332 C -504.20204,494.49829 -497.18267,479.17608 -467.07716,492.30377 C -466.81988,501.7572 -463.47536,501.77994 -451.7605,505.1466 C -452.88647,499.43334 -451.60243,492.74676 -447.99485,489.05699 C -451.64088,481.41573 -455.53985,481.13956 -464.76553,481.94912 L -477.77774,481.52569 C -486.5402,479.29937 -487.95189,479.32273 -484.07034,469.8864 C -475.32198,455.85834 -474.264,456.63349 -461.45561,444.22944 C -464.83127,439.61095 -472.497,434.24358 -479.5425,436.87468 z "
                 id="path3023"
                 sodipodi:nodetypes="cccccccscccccccccccccccc" />
            </g>
            <g
               transform="matrix(-1.000000,0.000000,0.000000,1.000000,-762.1148,0.000000)"
               id="g3025">
              <path
                 sodipodi:nodetypes="cccc"
                 id="path3027"
                 d="M -441.0951,489.65697 C -429.90157,491.48623 -430.29941,504.74462 -437.94019,510.48612 C -438.85417,505.26988 -443.01323,505.43837 -445.54541,505.06192 C -449.02061,497.44762 -446.7339,492.71427 -441.0951,489.65697 z "
                 style="fill:#FFEE00;fill-opacity:1;fill-rule:evenodd;stroke:none;stroke-width:2.83464575;stroke-linecap:butt;stroke-linejoin:miter;stroke-miterlimit:4;stroke-dasharray:none;stroke-opacity:1" />
              <path
                 sodipodi:nodetypes="cccc"
                 id="path3029"
                 d="M -537.60475,516.66245 C -530.62099,516.92232 -528.34751,518.89888 -525.9267,526.45947 C -531.33091,528.16231 -533.45237,532.5227 -532.33916,539.11498 C -545.87062,535.48448 -544.00143,520.9283 -537.60475,516.66245 z "
                 style="fill:#FFEE00;fill-opacity:1;fill-rule:evenodd;stroke:none;stroke-width:0.58499998;stroke-linecap:butt;stroke-linejoin:miter;stroke-miterlimit:4;stroke-dasharray:none;stroke-opacity:1" />
              <path
                 sodipodi:nodetypes="cccc"
                 id="path3031"
                 d="M -558.40232,485.249 C -555.74077,489.48242 -554.04689,492.00297 -556.30599,497.78466 C -563.52257,501.03871 -567.77328,501.25507 -568.36871,506.0358 C -575.0258,502.03996 -577.60899,484.48595 -558.40232,485.249 z "
                 style="fill:#FFEE00;fill-opacity:1;fill-rule:evenodd;stroke:none;stroke-width:2.83464575;stroke-linecap:butt;stroke-linejoin:miter;stroke-miterlimit:4;stroke-dasharray:none;stroke-opacity:1" />
              <path
                 sodipodi:nodetypes="cccc"
                 id="path3033"
                 d="M -557.92937,461.88573 C -554.65332,466.79249 -555.90705,470.79928 -558.10233,475.70604 C -567.09969,473.10811 -566.23323,473.10195 -571.44611,478.09519 C -573.30914,467.51227 -571.50342,460.97271 -557.92937,461.88573 z "
                 style="fill:#FFEE00;fill-opacity:1;fill-rule:evenodd;stroke:none;stroke-width:0.58499998;stroke-linecap:butt;stroke-linejoin:miter;stroke-miterlimit:4;stroke-dasharray:none;stroke-opacity:1" />
              <path
                 sodipodi:nodetypes="cccccccscccccccccccccccc"
                 id="path3035"
                 d="M -479.5425,436.87468 C -488.73222,455.22172 -488.97726,464.78291 -504.05262,475.62494 C -513.31841,476.90184 -521.54605,473.12619 -528.10773,469.28642 C -533.18064,464.29159 -540.94614,460.05051 -549.22969,463.17038 C -548.26814,468.41947 -549.49394,470.36867 -551.28727,475.61776 C -547.04178,477.16852 -544.98748,478.60183 -538.92456,476.51773 C -527.20715,474.91405 -516.29523,475.42683 -507.90296,480.49869 C -521.20849,481.27337 -526.75688,482.90794 -534.62548,481.99223 C -542.63981,481.05957 -547.21345,478.68063 -552.48723,483.10673 C -550.29584,489.53522 -551.8351,491.90333 -551.84849,496.54238 C -546.02885,501.64179 -541.32088,498.35177 -535.50124,494.6154 C -533.17831,483.89854 -518.55378,488.26141 -512.70279,489.14527 C -514.30492,496.32967 -515.38789,495.03355 -518.21168,499.49633 C -528.29464,501.94314 -532.81108,505.52087 -531.98964,511.90496 C -528.42074,514.13358 -524.33534,517.12912 -521.33859,522.00197 C -517.83825,522.87732 -514.59361,518.4354 -514.49913,509.89332 C -504.20204,494.49829 -497.18267,479.17608 -467.07716,492.30377 C -466.81988,501.7572 -463.47536,501.77994 -451.7605,505.1466 C -452.88647,499.43334 -451.60243,492.74676 -447.99485,489.05699 C -451.64088,481.41573 -455.53985,481.13956 -464.76553,481.94912 L -477.77774,481.52569 C -486.5402,479.29937 -487.95189,479.32273 -484.07034,469.8864 C -475.32198,455.85834 -474.264,456.63349 -461.45561,444.22944 C -464.83127,439.61095 -472.497,434.24358 -479.5425,436.87468 z "
                 style="fill:#FFEE00;fill-opacity:1;fill-rule:evenodd;stroke:none;stroke-width:0.70999998;stroke-linecap:butt;stroke-linejoin:miter;stroke-miterlimit:4;stroke-dasharray:none;stroke-opacity:1" />
            </g>
            <path
               d="M -346.7875 469.91071 A 34.198769 20.399265 0 1 1  -415.18504,469.91071 A 34.198769 20.399265 0 1 1  -346.7875 469.91071 z"
               sodipodi:ry="20.399265"
               sodipodi:rx="34.198769"
               sodipodi:cy="469.91071"
               sodipodi:cx="-380.98627"
               id="path3037"
               style="opacity:1;fill:#FFEE00;fill-opacity:1;fill-rule:nonzero;stroke:none;stroke-width:0.70999998;stroke-linecap:round;stroke-linejoin:round;stroke-miterlimit:4;stroke-dasharray:none;stroke-dashoffset:0;stroke-opacity:1"
               sodipodi:type="arc" />
            <path
               sodipodi:nodetypes="ccccccc"
               id="path3039"
               d="M -394.81663,188.65867 C -390.00073,187.55716 -388.70606,185.53668 -385.99378,183.53601 C -386.09726,186.52802 -387.24039,189.99533 -387.51507,194.02032 L -381.73296,184.24979 L -378.08711,191.26104 C -380.05666,198.47496 -385.13547,199.47036 -389.98366,200.92699 C -392.66499,198.62145 -395.06312,195.84392 -394.81663,188.65867 z "
               style="fill:#ffffff;fill-opacity:1;fill-rule:evenodd;stroke:none;stroke-width:1px;stroke-linecap:butt;stroke-linejoin:miter;stroke-opacity:1" />
            <path
               sodipodi:nodetypes="ccccccc"
               id="path3041"
               d="M -356.80952,194.96672 C -357.26224,195.43413 -356.84563,185.19789 -357.29835,185.68064 C -360.31546,188.89786 -362.05815,191.81328 -365.07526,192.37634 C -364.32428,201.27641 -360.94863,202.30249 -357.26815,202.41406 C -351.83201,201.64586 -348.32936,197.97743 -346.85867,191.26105 C -349.09306,190.5144 -351.32744,188.39901 -353.56183,185.38555 C -353.92981,184.88925 -356.44154,195.50963 -356.80952,194.96672 z "
               style="fill:#ffffff;fill-opacity:1;fill-rule:evenodd;stroke:none;stroke-width:1px;stroke-linecap:butt;stroke-linejoin:miter;stroke-opacity:1" />
            <path
               sodipodi:nodetypes="ccccccc"
               id="path3043"
               d="M -374.49982,205.93375 C -375.01382,206.4805 -374.35993,194.66862 -374.87392,195.25578 C -378.20152,199.05711 -380.22643,203.30658 -383.55402,202.83958 C -382.72391,208.7422 -378.89737,213.45268 -375.48474,214.3106 C -370.76486,214.20112 -365.66741,209.31947 -363.87187,205.31086 C -367.23938,204.38323 -369.84487,199.76548 -371.51812,195.44933 C -371.76615,194.80954 -374.24474,206.55944 -374.49982,205.93375 z "
               style="fill:#ffffff;fill-opacity:1;fill-rule:evenodd;stroke:none;stroke-width:1px;stroke-linecap:butt;stroke-linejoin:miter;stroke-opacity:1" />
            <path
               sodipodi:nodetypes="ccccccc"
               id="path3045"
               d="M -405.96964,198.69638 C -408.88472,214.87115 -407.36293,226.60906 -397.419,229.92482 C -388.31215,228.20431 -383.72775,223.09196 -382.54831,215.4259 C -383.31681,208.70133 -386.29405,206.65898 -391.10249,206.39832 C -391.85262,206.35765 -394.70964,216.52537 -395.48873,216.53105 C -394.27269,216.3614 -393.58709,205.01551 -393.69241,204.412 C -395.68532,192.99126 -401.59029,197.38947 -405.96964,198.69638 z "
               style="fill:#ffffff;fill-opacity:1;fill-rule:evenodd;stroke:none;stroke-width:1px;stroke-linecap:butt;stroke-linejoin:miter;stroke-opacity:1" />
            <path
               sodipodi:nodetypes="cccccccc"
               id="path3047"
               d="M -343.88454,197.95285 C -347.87172,203.57166 -351.85891,206.45584 -355.84609,208.70061 C -356.32011,208.96748 -358.01101,220.59693 -358.48503,220.84925 C -358.67685,219.63932 -358.60633,209.12384 -358.7698,208.57783 C -362.14226,209.10065 -366.9455,215.65746 -371.3953,218.77181 C -371.32329,225.42761 -365.73984,227.28297 -359.87052,231.04012 C -349.82952,226.44634 -340.33399,221.00405 -339.05157,202.78582 L -343.88454,197.95285 z "
               style="fill:#ffffff;fill-opacity:1;fill-rule:evenodd;stroke:none;stroke-width:1px;stroke-linecap:butt;stroke-linejoin:miter;stroke-opacity:1" />
            <path
               sodipodi:nodetypes="ccccccc"
               id="path3049"
               d="M -431.86185,228.34987 C -434.73124,228.03463 -436.87692,229.10819 -439.08441,229.53661 C -439.53158,229.6234 -441.28089,241.1479 -442.54568,242.50819 C -443.30109,240.64051 -442.12491,232.95002 -441.5163,229.65522 C -442.48396,229.53403 -443.50967,229.18043 -444.6481,228.45289 C -449.17154,237.17754 -453.44716,257.01474 -451.35275,258.73447 C -441.35018,264.692 -426.09469,248.75711 -431.86185,228.34987 z "
               style="fill:#ffffff;fill-opacity:1;fill-rule:evenodd;stroke:none;stroke-width:1px;stroke-linecap:butt;stroke-linejoin:miter;stroke-opacity:1" />
            <path
               sodipodi:nodetypes="ccccccc"
               id="path3051"
               d="M -415.29836,240.53651 C -415.84486,240.79437 -414.59603,220.76719 -415.05984,221.05467 C -418.29419,223.05939 -419.48362,226.67641 -425.73782,226.6422 C -427.97918,245.3121 -430.27006,263.25567 -416.31624,267.27278 C -408.47957,266.87953 -401.71251,259.2189 -402.47829,232.23627 C -408.95697,229.88073 -410.48795,225.75014 -412.02175,222.59525 C -412.33665,221.94753 -413.69264,240.58451 -415.29836,240.53651 z "
               style="fill:#ffffff;fill-opacity:1;fill-rule:evenodd;stroke:none;stroke-width:1px;stroke-linecap:butt;stroke-linejoin:miter;stroke-opacity:1" />
            <path
               sodipodi:nodetypes="ccccccc"
               id="path3053"
               d="M -380.60398,249.29047 C -381.91762,247.75931 -379.6716,222.29063 -380.4182,223.24865 C -384.05952,227.92112 -388.94849,232.91571 -395.11768,233.11954 C -397.26356,249.32497 -397.34716,263.93682 -382.45742,266.97836 C -364.72617,263.25662 -366.95912,247.73786 -365.67523,234.29723 C -370.3584,232.8399 -373.72643,227.95104 -376.66754,223.18789 C -377.2374,222.26501 -379.38805,248.16302 -380.60398,249.29047 z "
               style="fill:#ffffff;fill-opacity:1;fill-rule:evenodd;stroke:none;stroke-width:1px;stroke-linecap:butt;stroke-linejoin:miter;stroke-opacity:1" />
            <path
               sodipodi:nodetypes="cccccccc"
               id="path3055"
               d="M -338.58817,219.87044 C -340.55449,222.60076 -341.97665,224.5872 -344.00005,226.47166 C -344.49101,226.92891 -344.46619,248.09087 -345.90602,249.44631 C -347.2829,246.69668 -347.17055,228.97038 -347.75539,229.39392 C -351.27719,231.94436 -355.07972,233.61278 -359.49231,234.88608 C -361.46538,250.01874 -357.8004,260.76625 -345.65436,264.91738 C -332.83418,261.26719 -332.22669,246.0471 -334.1718,228.40875 C -333.50015,222.88294 -336.23669,221.61734 -338.58817,219.87044 z "
               style="fill:#ffffff;fill-opacity:1;fill-rule:evenodd;stroke:none;stroke-width:1px;stroke-linecap:butt;stroke-linejoin:miter;stroke-opacity:1" />
            <path
               sodipodi:nodetypes="ccccccc"
               id="path3057"
               d="M -330.04986,225.4645 C -326.08327,227.42632 -323.00814,228.57455 -319.42444,229.09497 C -318.81491,229.18349 -318.45933,242.28434 -317.00747,245.02414 C -316.21949,243.85783 -316.49222,229.3812 -315.94139,229.40208 C -314.18713,229.46856 -312.2549,229.42675 -310.029,229.29201 C -307.92783,238.49722 -308.12274,248.85046 -309.14572,259.61774 C -326.28042,257.97637 -329.67181,244.845 -330.04986,225.4645 z "
               style="fill:#ffffff;fill-opacity:1;fill-rule:evenodd;stroke:none;stroke-width:1px;stroke-linecap:butt;stroke-linejoin:miter;stroke-opacity:1" />
            <path
               sodipodi:nodetypes="ccccccc"
               id="path3059"
               d="M -436.17297,283.30565 C -438.23412,280.7718 -435.08439,259.17248 -435.7795,259.82338 C -439.92881,263.70874 -443.39499,268.05504 -449.1942,268.64059 C -449.04481,283.8727 -452.66461,301.54369 -436.68593,306.53331 C -426.42529,306.88613 -423.9781,290.04937 -423.44187,269.00848 C -427.36918,267.36351 -430.09854,264.52059 -431.95114,260.80091 C -433.24626,264.09232 -434.04715,281.6732 -436.17297,283.30565 z "
               style="fill:#ffffff;fill-opacity:1;fill-rule:evenodd;stroke:none;stroke-width:1px;stroke-linecap:butt;stroke-linejoin:miter;stroke-opacity:1" />
            <path
               sodipodi:nodetypes="ccccccc"
               id="path3061"
               d="M -402.89684,288.34983 C -405.0942,287.14351 -401.81776,260.14835 -402.46062,260.80106 C -406.29864,267.20147 -412.03038,272.13377 -417.55563,270.84794 C -420.05134,284.73277 -419.65408,300.34277 -404.67946,311.31588 C -388.63383,301.2182 -388.57411,296.4979 -388.12439,271.95161 C -392.4636,268.50909 -395.66734,265.06657 -398.46022,261.62405 C -398.95046,261.01978 -400.84366,286.9171 -402.89684,288.34983 z "
               style="fill:#ffffff;fill-opacity:1;fill-rule:evenodd;stroke:none;stroke-width:1px;stroke-linecap:butt;stroke-linejoin:miter;stroke-opacity:1" />
            <path
               sodipodi:nodetypes="ccccccc"
               id="path3063"
               d="M -365.68308,260.547 C -370.33375,267.21538 -376.23861,269.82018 -381.87025,271.58372 C -383.41748,291.80167 -381.03835,302.663 -364.9473,311.31588 C -347.39632,307.40493 -342.94942,289.80376 -345.4491,270.11215 C -350.80207,267.69101 -356.13875,265.18844 -360.53261,257.97177 C -360.19085,269.05272 -361.92107,282.89259 -363.47573,288.28428 C -365.37798,282.92143 -365.74143,268.85075 -365.68308,260.547 z "
               style="fill:#ffffff;fill-opacity:1;fill-rule:evenodd;stroke:none;stroke-width:1px;stroke-linecap:butt;stroke-linejoin:miter;stroke-opacity:1" />
            <path
               sodipodi:nodetypes="ccccccc"
               id="path3065"
               d="M -330.3656,254.29287 C -333.25561,259.3043 -335.76537,265.07623 -339.56286,268.2727 C -341.91449,295.32521 -337.36766,301.51964 -326.3188,306.53331 C -317.26988,303.35241 -310.40395,293.86508 -310.13162,265.32958 C -316.99904,261.40541 -324.51988,258.41536 -325.78135,254.4912 L -325.58302,282.34747 C -328.37679,280.55049 -329.51005,261.90453 -330.3656,254.29287 z "
               style="fill:#ffffff;fill-opacity:1;fill-rule:evenodd;stroke:none;stroke-width:1px;stroke-linecap:butt;stroke-linejoin:miter;stroke-opacity:1" />
            <path
               id="path3067"
               d="M -440.7709,355.46777 C -440.7709,355.35638 -440.7709,355.24499 -440.7709,355.46777 z "
               style="fill:none;fill-opacity:0.75;fill-rule:evenodd;stroke:#000000;stroke-width:1px;stroke-linecap:butt;stroke-linejoin:miter;stroke-opacity:1" />
            <path
               sodipodi:nodetypes="ccccccc"
               id="path3069"
               d="M -440.43673,355.80194 C -456.32625,348.95477 -453.05945,321.56373 -451.56066,300.2902 C -449.9646,301.78322 -447.73604,306.00382 -445.8671,307.39766 C -445.87253,310.78016 -446.75329,326.0851 -444.34895,331.29264 C -442.68156,328.63649 -442.96297,309.46361 -442.22192,309.79438 C -439.62355,310.95418 -436.88319,311.36913 -434.08749,310.35475 C -434.09884,325.74025 -429.60829,352.26695 -440.43673,355.80194 z "
               style="fill:#ffffff;fill-opacity:1;fill-rule:evenodd;stroke:none;stroke-width:1px;stroke-linecap:butt;stroke-linejoin:miter;stroke-opacity:1" />
            <path
               sodipodi:nodetypes="ccccccc"
               id="path3071"
               d="M -420.25734,330.40008 C -423.06269,328.03439 -422.47303,303.87493 -423.01504,304.55467 C -425.48056,307.64672 -427.94609,309.54785 -430.41161,311.02309 C -428.66787,328.87118 -430.06844,348.81549 -413.03475,356.47028 C -403.1172,352.57662 -403.53058,335.17329 -405.01465,316.36982 C -410.05171,314.56003 -414.47035,310.00565 -418.89034,303.87634 C -418.90482,305.63069 -418.22918,329.03533 -420.25734,330.40008 z "
               style="fill:#ffffff;fill-opacity:1;fill-rule:evenodd;stroke:none;stroke-width:1px;stroke-linecap:butt;stroke-linejoin:miter;stroke-opacity:1" />
            <path
               sodipodi:nodetypes="ccccccc"
               id="path3073"
               d="M -386.63528,300.32964 C -390.19976,306.80236 -395.10093,311.09025 -398.66541,314.03063 C -400.05701,335.58367 -397.00317,352.23498 -383.29357,355.1336 C -368.9211,354.2793 -368.41892,335.47522 -368.92424,315.36731 C -373.99485,312.36921 -379.1115,306.8819 -383.29357,300.32963 C -382.72961,308.91602 -382.21858,318.32295 -384.29608,323.3874 C -386.83326,318.65942 -386.76585,310.39312 -386.63528,300.32964 z "
               style="fill:#ffffff;fill-opacity:1;fill-rule:evenodd;stroke:none;stroke-width:1px;stroke-linecap:butt;stroke-linejoin:miter;stroke-opacity:1" />
            <path
               sodipodi:nodetypes="ccccccc"
               id="path3075"
               d="M -348.39879,330.66906 C -349.16654,331.67448 -344.73348,301.66237 -345.51764,302.63497 C -350.13058,308.35645 -355.14249,313.27997 -361.90666,314.69896 C -360.35697,329.52018 -366.78724,349.5049 -351.54737,355.46777 C -335.92245,348.81288 -333.89028,329.3648 -333.16799,308.6839 C -338.14585,307.41788 -339.66309,304.63181 -341.27776,302.02052 C -341.81665,301.14902 -345.73618,329.92153 -348.39879,330.66906 z "
               style="fill:#ffffff;fill-opacity:1;fill-rule:evenodd;stroke:none;stroke-width:1px;stroke-linecap:butt;stroke-linejoin:miter;stroke-opacity:1" />
            <path
               sodipodi:nodetypes="cccccccc"
               id="path3077"
               d="M -312.78359,302.33466 L -312.11525,346.11099 C -313.2688,352.60371 -316.67433,354.59248 -320.46952,355.80194 C -334.34568,357.4889 -327.13544,326.84338 -329.15795,310.35475 C -326.03335,310.2612 -323.26811,309.5687 -320.78215,308.41072 C -320.73143,310.72534 -319.94816,337.60974 -319.09472,338.67845 C -318.51641,338.34693 -317.49777,308.71302 -317.4884,306.50754 C -315.7935,305.32764 -314.23674,303.91749 -312.78359,302.33466 z "
               style="fill:#ffffff;fill-opacity:1;fill-rule:evenodd;stroke:none;stroke-width:1px;stroke-linecap:butt;stroke-linejoin:miter;stroke-opacity:1" />
            <path
               sodipodi:nodetypes="ccccccc"
               id="path3079"
               d="M -448.26442,360.34361 C -448.53602,371.70541 -458.07105,382.53558 -463.16032,393.89738 C -448.76672,396.97773 -438.26061,384.61339 -430.60401,360.58159 C -433.20865,361.51418 -436.36967,363.00131 -439.00228,363.40412 C -439.68079,367.87766 -444.11053,378.3533 -448.24131,381.84394 C -445.0404,375.33915 -441.59368,363.18765 -442.44529,362.96106 C -444.0093,362.5449 -446.44477,361.61612 -448.26442,360.34361 z "
               style="fill:#ffffff;fill-opacity:1;fill-rule:evenodd;stroke:none;stroke-width:1px;stroke-linecap:butt;stroke-linejoin:miter;stroke-opacity:1" />
            <path
               sodipodi:nodetypes="ccccccc"
               id="path3081"
               d="M -313.45193,361.14867 C -309.96633,376.67828 -303.76963,386.78569 -296.74341,395.23406 C -309.65321,395.2054 -323.86456,387.06883 -329.49212,363.15369 C -327.19457,364.19966 -324.6592,364.90314 -322.59648,365.00978 C -321.8887,365.04637 -319.66605,376.55274 -313.34119,381.41552 C -316.41516,374.85519 -319.50931,364.68567 -318.74271,364.43131 C -316.94306,363.83416 -315.02125,362.66714 -313.45193,361.14867 z "
               style="fill:#ffffff;fill-opacity:1;fill-rule:evenodd;stroke:none;stroke-width:1px;stroke-linecap:butt;stroke-linejoin:miter;stroke-opacity:1" />
            <path
               sodipodi:nodetypes="ccccc"
               id="path3083"
               d="M -425.70639,373.70328 C -425.75843,384.63524 -418.15606,400.07184 -426.76511,411.02043 C -440.19059,401.91744 -440.59987,385.89834 -433.68192,375.28272 C -430.41115,377.43579 -432.55491,390.70841 -429.79231,395.60273 C -427.67756,392.24078 -430.39499,374.77967 -425.70639,373.70328 z "
               style="fill:#ffffff;fill-opacity:1;fill-rule:evenodd;stroke:none;stroke-width:1px;stroke-linecap:butt;stroke-linejoin:miter;stroke-opacity:1" />
            <path
               sodipodi:nodetypes="cccccccc"
               id="path3085"
               d="M -424.63451,356.61711 C -421.56487,358.55395 -418.82085,361.46766 -415.17648,361.6803 L -410.41565,383.73325 L -410.16898,360.86513 C -405.96268,361.25765 -403.0743,355.37782 -400.03488,353.43657 C -399.18029,367.3841 -399.72593,388.32265 -396.04268,394.56572 C -394.46997,400.15149 -399.2818,406.87655 -404.83118,406.28786 C -425.68039,406.27562 -419.73015,374.16869 -424.63451,356.61711 z "
               style="fill:#ffffff;fill-opacity:1;fill-rule:evenodd;stroke:none;stroke-width:1px;stroke-linecap:butt;stroke-linejoin:miter;stroke-opacity:1" />
            <path
               sodipodi:nodetypes="ccccccc"
               id="path3087"
               d="M -394.43885,355.12109 C -391.79697,357.93907 -389.52165,361.1969 -385.05925,361.83025 C -384.29455,361.93878 -382.05426,385.49312 -381.14826,385.43209 C -380.33339,385.39434 -380.96147,361.73897 -380.20481,361.5266 C -376.2074,360.40465 -372.95308,357.05345 -369.71067,353.66649 C -370.16047,373.36507 -364.41955,399.56255 -381.10503,406.03206 C -393.06946,397.06643 -392.17251,373.78482 -394.43885,355.12109 z "
               style="fill:#ffffff;fill-opacity:1;fill-rule:evenodd;stroke:none;stroke-width:1px;stroke-linecap:butt;stroke-linejoin:miter;stroke-opacity:1" />
            <path
               sodipodi:nodetypes="ccccccc"
               id="path3089"
               d="M -352.25547,361.18192 C -355.188,361.01945 -358.69737,358.83804 -362.92254,354.15135 C -362.27515,372.39742 -369.75742,400.39908 -357.589,404.8199 C -344.06124,398.16913 -338.80423,377.04454 -335.52758,352.45432 C -339.48545,355.56502 -343.32468,359.09096 -347.76085,360.52761 C -348.72051,360.83839 -349.94333,379.75208 -354.2593,386.19314 C -352.75938,378.59211 -351.73831,361.19972 -352.25547,361.18192 z "
               style="fill:#ffffff;fill-opacity:1;fill-rule:evenodd;stroke:none;stroke-width:1px;stroke-linecap:butt;stroke-linejoin:miter;stroke-opacity:1" />
            <path
               sodipodi:nodetypes="ccccc"
               id="path3091"
               d="M -332.83007,392.86114 C -333.01744,383.31791 -333.80781,371.42406 -334.35395,372.6329 C -343.47147,392.8136 -343.52201,406.77695 -332.37595,413.06263 C -324.34098,407.08719 -320.63848,387.21514 -330.14395,372.32902 C -330.8867,371.16583 -330.43994,389.29719 -332.83007,392.86114 z "
               style="fill:#ffffff;fill-opacity:1;fill-rule:evenodd;stroke:none;stroke-width:1px;stroke-linecap:butt;stroke-linejoin:miter;stroke-opacity:1" />
            <path
               sodipodi:nodetypes="cccscc"
               id="path3093"
               d="M -478.62915,419.34222 C -473.92799,414.41755 -466.92692,402.96504 -467.72988,402.8499 C -478.50358,401.30504 -496.02374,424.8009 -494.56377,434.88162 C -485.13047,434.94525 -478.28375,430.0498 -472.13572,423.36008 C -468.09943,418.96815 -462.89318,410.0023 -464.06119,405.57951 C -464.28058,404.74874 -474.11698,417.80519 -478.62915,419.34222 z "
               style="fill:#ffffff;fill-opacity:1;fill-rule:evenodd;stroke:none;stroke-width:1px;stroke-linecap:butt;stroke-linejoin:miter;stroke-opacity:1" />
            <path
               sodipodi:nodetypes="ccscscc"
               id="path3095"
               d="M -284.48774,416.97399 C -284.3163,413.83955 -296.14995,400.03683 -295.38544,399.88729 C -290.87568,399.00516 -285.16482,404.4873 -279.47289,410.44862 C -273.60733,416.5918 -266.22647,423.31613 -269.22556,430.2269 C -280.30818,435.4165 -283.96332,427.26913 -289.93151,420.37818 C -295.06587,414.44998 -298.71324,407.11402 -297.97279,402.36963 C -295.9491,402.88771 -287.65603,412.8918 -284.48774,416.97399 z "
               style="fill:#ffffff;fill-opacity:1;fill-rule:evenodd;stroke:none;stroke-width:1px;stroke-linecap:butt;stroke-linejoin:miter;stroke-opacity:1" />
            <path
               sodipodi:nodetypes="ccccccc"
               id="path3097"
               d="M -322.11756,405.6511 C -313.94708,411.19922 -309.75986,451.50522 -320.01185,452.33681 C -325.16715,443.55373 -334.41952,429.04717 -332.58087,418.40751 C -331.36594,417.61269 -329.64924,416.39148 -327.94197,414.80036 C -327.52114,414.40815 -323.48853,428.62349 -322.53465,432.70261 C -320.82124,429.13529 -325.10003,411.75739 -324.41161,410.73845 C -323.37848,409.20933 -322.54819,407.50629 -322.11756,405.6511 z "
               style="fill:#ffffff;fill-opacity:1;fill-rule:evenodd;stroke:none;stroke-width:1px;stroke-linecap:butt;stroke-linejoin:miter;stroke-opacity:1" />
            <path
               sodipodi:nodetypes="cccccc"
               id="path3099"
               d="M -437.15559,409.61315 C -436.07962,410.00509 -435.12844,410.48586 -434.30082,411.05459 C -433.34367,411.71234 -435.26106,419.53183 -440.9542,430.53813 C -436.56936,428.66865 -430.88452,415.16222 -430.58094,416.20722 C -428.55642,423.176 -432.90705,434.68302 -443.16793,450.39734 C -460.45711,432.55155 -444.20573,422.09604 -437.15559,409.61315 z "
               style="fill:#ffffff;fill-opacity:1;fill-rule:evenodd;stroke:none;stroke-width:1px;stroke-linecap:butt;stroke-linejoin:miter;stroke-opacity:1" />
            <path
               sodipodi:nodetypes="ccscscc"
               id="path3101"
               d="M -455.98443,416.7697 C -451.84543,413.77908 -445.28446,400.58605 -444.95926,401.41117 C -442.37462,407.96902 -445.23378,411.00806 -448.62825,417.67457 C -452.98792,426.23666 -456.82455,434.49937 -465.80427,434.68767 C -468.32364,419.93448 -464.86468,417.82435 -461.0157,411.62199 C -456.56273,404.44633 -455.31107,398.51728 -448.9308,398.96369 C -447.97477,399.03058 -454.67014,414.05123 -455.98443,416.7697 z "
               style="fill:#ffffff;fill-opacity:1;fill-rule:evenodd;stroke:none;stroke-width:1px;stroke-linecap:butt;stroke-linejoin:miter;stroke-opacity:1" />
            <path
               sodipodi:nodetypes="ccsscccc"
               id="path3103"
               d="M -320.81088,395.75131 C -318.09074,407.60976 -304.21276,437.2921 -294.07843,435.35263 C -292.02319,423.21459 -296.43764,418.43841 -300.32188,410.20701 C -302.36424,405.8789 -302.71603,402.45546 -305.67611,399.97084 C -306.74262,399.07564 -308.14771,398.3023 -310.09247,397.65244 C -310.81637,397.35836 -305.76784,407.21036 -304.89293,415.62089 C -307.64605,408.17825 -313.70852,396.73479 -314.66936,396.57419 C -316.30207,396.30128 -318.68166,395.94054 -320.81088,395.75131 z "
               style="fill:#ffffff;fill-opacity:1;fill-rule:evenodd;stroke:none;stroke-width:1px;stroke-linecap:butt;stroke-linejoin:miter;stroke-opacity:1" />
          </g>
          <path
             style="fill:#ffffff;fill-opacity:1;fill-rule:evenodd;stroke:none;stroke-width:1px;stroke-linecap:butt;stroke-linejoin:miter;stroke-opacity:1"
             d="M -415.7206,408.10423 C -411.31571,410.16681 -406.26092,411.59707 -401.63939,409.83731 L -398.60652,445.79854 L -404.67227,447.53162 C -409.68377,442.05949 -412.56639,435.93231 -410.10072,428.15951 C -414.12537,422.19153 -418.43342,416.31803 -415.7206,408.10423 z "
             id="path3105"
             sodipodi:nodetypes="cccccc" />
          <path
             style="fill:#ffffff;fill-opacity:1;fill-rule:evenodd;stroke:none;stroke-width:1px;stroke-linecap:butt;stroke-linejoin:miter;stroke-opacity:1"
             d="M -391.24097,402.03848 C -393.04625,406.30718 -394.85153,408.21093 -396.65681,409.62067 L -393.4073,444.06547 L -384.30867,443.63221 L -384.52531,409.8373 C -386.99874,407.59001 -389.84748,405.90568 -391.24097,402.03848 z "
             id="path3107"
             sodipodi:nodetypes="cccccc" />
          <path
             style="fill:#ffffff;fill-opacity:1;fill-rule:evenodd;stroke:none;stroke-width:1px;stroke-linecap:butt;stroke-linejoin:miter;stroke-opacity:1"
             d="M -379.75936,410.27057 C -375.42887,409.39965 -371.93101,404.69715 -368.71103,401.60522 C -367.38437,403.97476 -366.24846,407.52285 -362.64528,408.75413 L -371.52727,443.84884 L -379.10946,442.9823 L -379.75936,410.27057 z "
             id="path3109"
             sodipodi:nodetypes="cccccc" />
          <path
             id="path3111"
             style="fill:#ffffff;fill-opacity:1;fill-rule:evenodd;stroke:none;stroke-width:1px;stroke-linecap:butt;stroke-linejoin:miter;stroke-opacity:1"
             d="M -355.02699,428.9733 C -351.09131,424.47261 -349.05187,414.28318 -347.26426,403.33829 C -350.67719,406.28852 -353.95909,409.43527 -358.42091,410.81216 L -367.12026,444.10264 L -358.74587,446.66508 C -354.51372,445.89787 -355.82894,435.62086 -355.02699,428.9733 z "
             sodipodi:nodetypes="cccccc" />
        </g>
        <g
           id="g3113">
          <path
             style="fill:#ffffff;fill-opacity:1;fill-rule:evenodd;stroke:none;stroke-width:1px;stroke-linecap:butt;stroke-linejoin:miter;stroke-opacity:1"
             d="M -404.70439,492.12399 C -407.81727,565.45939 -441.42662,590.7276 -493.70985,566.37716 C -502.50123,579.97638 -490.49071,622.64894 -437.65116,607.68356 C -421.16137,599.08979 -406.12773,585.60585 -398.80348,563.91845 C -394.39918,540.80653 -394.54492,517.69462 -393.88605,494.5827 L -404.70439,492.12399 z "
             id="path3115"
             sodipodi:nodetypes="cccccc" />
          <path
             style="fill:#000000;fill-opacity:1;fill-rule:evenodd;stroke:none;stroke-width:1px;stroke-linecap:butt;stroke-linejoin:miter;stroke-opacity:1"
             d="M -403.22916,546.2157 C -410.28888,589.81614 -449.13232,601.49363 -473.05665,588.50559 C -432.18648,591.2702 -412.72604,573.51716 -403.22916,546.2157 z "
             id="path3117"
             sodipodi:nodetypes="ccc" />
        </g>
        <g
           transform="matrix(-1.000000,0.000000,0.000000,1.000000,-764.3314,0.000000)"
           id="g3119">
          <path
             sodipodi:nodetypes="cccccc"
             id="path3121"
             d="M -404.70439,492.12399 C -407.81727,565.45939 -444.37708,591.21934 -491.74288,564.41019 C -502.50123,580.95987 -490.49071,622.64894 -437.65116,607.68356 C -421.16137,599.08979 -406.12773,585.60585 -398.80348,563.91845 C -394.39918,540.80653 -394.54492,517.69462 -393.88605,494.5827 L -404.70439,492.12399 z "
             style="fill:#ffffff;fill-opacity:1;fill-rule:evenodd;stroke:none;stroke-width:1px;stroke-linecap:butt;stroke-linejoin:miter;stroke-opacity:1" />
          <path
             sodipodi:nodetypes="ccc"
             id="path3123"
             d="M -403.22916,546.2157 C -410.28888,589.81614 -449.13232,601.49363 -473.05665,588.50559 C -432.18648,591.2702 -412.72604,573.51716 -403.22916,546.2157 z "
             style="fill:#000000;fill-opacity:1;fill-rule:evenodd;stroke:none;stroke-width:1px;stroke-linecap:butt;stroke-linejoin:miter;stroke-opacity:1" />
        </g>
        <path
           id="path3125"
           d="M -390.44385,496.54967 C -390.27993,496.38576 -390.11602,496.22184 -390.44385,496.54967 z "
           style="fill:none;fill-opacity:0.75;fill-rule:evenodd;stroke:#000000;stroke-width:1px;stroke-linecap:butt;stroke-linejoin:miter;stroke-opacity:1" />
        <path
           sodipodi:nodetypes="ccccccccccccc"
           id="path3127"
           d="M -390.93559,496.54967 L -385.03467,496.54967 L -383.55945,570.31111 C -380.70866,592.84634 -378.71091,613.41136 -383.0677,637.18814 C -386.88385,612.92882 -386.10101,592.60345 -382.08422,567.36065 L -381.10073,496.54967 L -373.72459,496.05793 C -373.74835,537.13925 -369.40831,572.80409 -358.9723,604.73311 C -352.2009,621.19615 -355.04251,637.89705 -359.95578,650.4652 C -365.25386,665.11185 -374.82384,672.19817 -382.57596,681.93674 C -391.05146,672.01498 -398.16051,666.06851 -407.16311,650.46519 C -414.9169,636.92048 -409.84988,617.08845 -406.17962,602.2744 C -392.98637,572.54305 -391.8532,539.54463 -390.93559,496.54967 z "
           style="fill:#ffffff;fill-opacity:1;fill-rule:evenodd;stroke:#000000;stroke-width:1px;stroke-linecap:butt;stroke-linejoin:miter;stroke-opacity:1" />
        <g
           id="g3129">
          <path
             style="fill:#ffffff;fill-opacity:1;fill-rule:evenodd;stroke:none;stroke-width:1px;stroke-linecap:butt;stroke-linejoin:miter;stroke-opacity:1"
             d="M -404.70439,587.03036 C -418.21879,601.88861 -432.52428,613.52876 -447.31087,616.77753 C -449.34774,625.0563 -448.40835,633.33506 -444.53557,641.61383 C -436.75544,642.59457 -427.60159,640.27836 -417.71544,636.20465 C -417.49329,618.24813 -411.30432,602.86096 -404.70439,587.03036 z "
             id="path3131"
             sodipodi:nodetypes="ccccc" />
          <path
             style="fill:#000000;fill-opacity:1;fill-rule:evenodd;stroke:none;stroke-width:1px;stroke-linecap:butt;stroke-linejoin:miter;stroke-opacity:1"
             d="M -410.9322,596.22548 C -422.43175,606.99389 -431.46996,616.95099 -433.88488,626.30142 C -421.59368,621.43619 -415.89638,609.25081 -410.9322,596.22548 z "
             id="path3133"
             sodipodi:nodetypes="ccc" />
        </g>
        <g
           transform="matrix(-1.000000,0.000000,0.000000,1.000000,-763.5177,0.453694)"
           id="g3135">
          <path
             sodipodi:nodetypes="ccccc"
             id="path3137"
             d="M -404.70439,587.03036 C -418.21879,601.88861 -432.52428,613.52876 -447.31087,616.77753 C -449.34774,625.0563 -450.3357,633.91326 -446.46292,642.19203 C -438.68279,643.17277 -427.60159,640.27836 -417.71544,636.20465 C -417.49329,618.24813 -411.30432,602.86096 -404.70439,587.03036 z "
             style="fill:#ffffff;fill-opacity:1;fill-rule:evenodd;stroke:none;stroke-width:1px;stroke-linecap:butt;stroke-linejoin:miter;stroke-opacity:1" />
          <path
             sodipodi:nodetypes="ccc"
             id="path3139"
             d="M -410.9322,596.22548 C -422.43175,606.99389 -431.46996,616.95099 -433.88488,626.30142 C -421.59368,621.43619 -415.89638,609.25081 -410.9322,596.22548 z "
             style="fill:#000000;fill-opacity:1;fill-rule:evenodd;stroke:none;stroke-width:1px;stroke-linecap:butt;stroke-linejoin:miter;stroke-opacity:1" />
        </g>
      </g>
      <path
         style="fill:#fefeff;fill-opacity:1;fill-rule:evenodd;stroke:none;stroke-width:1px;stroke-linecap:butt;stroke-linejoin:miter;stroke-opacity:1"
         d="M -264.18255,77.889982 C -262.25846,75.931543 -261.08789,77.176701 -260.19712,80.315507 C -264.06456,85.30946 -257.7749,94.390334 -252.99328,85.973609 C -251.15802,85.66988 -250.84562,89.92481 -251.55321,90.87868 C -253.02509,93.297008 -258.77636,94.195862 -262.89775,89.140876 C -264.91713,86.451403 -265.00317,84.093222 -264.18255,77.889982 z "
         id="path3142"
         sodipodi:nodetypes="cccccc" />
      <path
         transform="matrix(0.550659,8.968694e-2,-7.866543e-2,0.627810,-458.2554,-17.20667)"
         sodipodi:open="true"
         sodipodi:end="6.2753328"
         sodipodi:start="0"
         d="M 381.50011,104.36665 A 2.8072121,5.6144242 0 1 1 381.50003,104.32257"
         sodipodi:ry="5.6144242"
         sodipodi:rx="2.8072121"
         sodipodi:cy="104.36665"
         sodipodi:cx="378.6929"
         id="path2459"
         style="fill:#ffffff;fill-opacity:1;stroke:none;stroke-width:2.83464575;stroke-linecap:round;stroke-linejoin:round;stroke-miterlimit:4;stroke-dasharray:none;stroke-opacity:1"
         sodipodi:type="arc" />
    </g>
  </g>
</svg>
