<?xml version="1.0" encoding="UTF-8"?>
<svg width="1e3" height="500" xmlns="http://www.w3.org/2000/svg" xmlns:xlink="http://www.w3.org/1999/xlink">
 <rect width="1e3" height="500" fill="#eea400"/>
 <rect width="350.81" height="500" fill="#00005b"/>
 <g transform="matrix(1.0079 0 0 1.0079 -67.648 -2.8259e-5)">
  <g transform="matrix(.098425 0 0 .098425 -496.07 5.9548e-5)">
   <path id="s" d="m7560 480 69.421 215.84 212.04-80.301-125.47 188.85 194.99 115.71-225.88 19.651 31.105 224.59-156.1-164.3-156.2 164.35 31.105-224.59-225.88-19.651 194.99-115.71-125.47-188.85 212.04 80.301z" fill="#fff"/>
   <path d="m8064 2520 54.86 134.49 144.86 10.615-110.96 93.735 34.67 141.05-123.43-76.56-123.43 76.56 34.67-141.05-110.96-93.735 144.86-10.615z" fill="#fff"/>
   <use x="-1260.0016" y="1364.9497" xlink:href="#s"/>
   <use x="1119.9966" y="1028.9471" xlink:href="#s"/>
   <use y="3359.947" xlink:href="#s"/>
  </g>
 </g>
 <g transform="matrix(1.0058 0 0 .86433 54.484 20.258)">
  <g transform="matrix(.33458 0 0 .31429 404.54 400.9)">
   <path transform="matrix(2 0 0 2 -531.5 159.45)" d="m496.06-407.48v177.16c0 88.582 92.126 132.87 109.84 132.87 17.717 0 102.76-44.292 102.76-132.87v-177.16h-212.6z" fill="#00005b" fill-rule="evenodd"/>
   <g transform="matrix(.14096 .33951 -.3451 .15288 441.88 -453.34)" fill-rule="evenodd" stroke-width="3.75">
    <path transform="translate(-17.717 -301.18)" d="M35.433-17.716,70.866,0c17.717,0,17.717,17.717,0,17.717l-35.433-17.717c-17.69-1.5683-17.717-17.716,0-17.716z" fill="#00005b" stroke="#fff"/>
    <path transform="translate(-17.716 -318.9)" d="m35.433-17.716 35.433 17.716c17.717 0 17.717 17.717 0 17.717l-35.433-17.717c-17.69-1.5684-17.717-17.716 0-17.716z" fill="#00005b" stroke="#fff"/>
    <path transform="translate(-17.716 -283.46)" d="M35.433-17.716,70.866,0c17.717,0,17.717,17.717,0,17.717l-35.433-17.717c-17.69-1.5683-17.717-17.716,0-17.716z" fill="#00005b" stroke="#fff"/>
    <path transform="translate(-17.716 -265.75)" d="M35.433-17.716,70.866,0c17.717,0,17.717,17.717,0,17.717l-35.433-17.717c-17.69-1.5683-17.717-17.716,0-17.716z" fill="#00005b" stroke="#fff"/>
    <path transform="translate(-17.716 -248.03)" d="M35.433-17.716,70.866,0c17.717,0,17.717,17.717,0,17.717l-35.433-17.717c-17.69-1.5683-17.717-17.716,0-17.716z" fill="#00005b" stroke="#fff"/>
    <path transform="translate(-17.717 -212.6)" d="M35.433-17.716,70.866,0c17.717,0,17.717,17.717,0,17.717l-35.433-17.717c-17.69-1.5683-17.717-17.716,0-17.716z" fill="#00005b" stroke="#fff"/>
    <path transform="translate(-17.716 -230.32)" d="m35.433-17.716 35.433 17.716c17.717 0 17.717 17.717 0 17.717l-35.433-17.717c-17.69-1.5684-17.717-17.716 0-17.716z" fill="#00005b" stroke="#fff"/>
    <path transform="translate(-17.716 -194.88)" d="M35.433-17.716,70.866,0c17.717,0,17.717,17.717,0,17.717l-35.433-17.717c-17.69-1.5683-17.717-17.716,0-17.716z" fill="#00005b" stroke="#fff"/>
    <path transform="translate(-17.716 -177.17)" d="M35.433-17.716,70.866,0c17.717,0,17.717,17.717,0,17.717l-35.433-17.717c-17.69-1.5683-17.717-17.716,0-17.716z" fill="#00005b" stroke="#fff"/>
    <path transform="translate(-17.716 -159.45)" d="M35.433-17.716,70.866,0c17.717,0,17.717,17.717,0,17.717l-35.433-17.717c-17.69-1.5683-17.717-17.716,0-17.716z" fill="#00005b" stroke="#fff"/>
    <path transform="translate(-17.716 -159.45)" d="m35.433 1.1444e-4s35.433 17.716 35.433 17.716h-35.433c-17.69-1.568-17.717-17.716 0-17.716z" fill="#00005b" stroke="#fff"/>
    <path transform="matrix(1 0 0 1.2432 -17.717 -288.25)" d="m35.433-53.15 7.0866-602.36 10.63-53.149 14.173 53.149 3.5433 602.36h-35.433z" fill="#fffffe" stroke="#00005b"/>
    <path transform="translate(-17.717 -230.32)" d="m-17.716-124.02h141.73l35.433-35.433 17.716 17.717-53.149 53.149h-141.73l-53.15-53.149 17.716-21.26 35.433 38.976z" fill="#fffffe" stroke="#00005b"/>
    <path transform="translate(-17.716 -124.02)" d="m17.716-17.716h70.866c17.716 0 17.716 35.433 0 35.433l-70.866-2e-4c-17.69-1.5684-17.717-35.433 0-35.433z" fill="#fffffe" stroke="#00005b"/>
   </g>
   <g fill="#fff" fill-rule="evenodd" stroke-width="1pt">
    <rect x="612.99" y="-194.88" width="124.02" height="3.5433"/>
    <rect x="612.99" y="-205.51" width="124.02" height="3.5433"/>
    <rect x="612.99" y="-216.14" width="124.02" height="3.5433"/>
    <rect x="612.99" y="-226.77" width="124.02" height="3.5433"/>
    <rect x="616.54" y="-269.29" width="124.02" height="3.5433"/>
    <rect x="612.99" y="-237.4" width="124.02" height="3.5433"/>
    <rect x="612.99" y="-248.03" width="124.02" height="3.5433"/>
    <rect x="616.54" y="-279.92" width="124.02" height="3.5433"/>
    <rect x="612.99" y="-258.66" width="124.02" height="3.5433"/>
    <rect x="616.54" y="-290.55" width="124.02" height="3.5433"/>
    <rect x="673.23" y="-294.09" width="3.5432" height="106.3"/>
    <rect x="683.86" y="-294.09" width="3.5432" height="106.3"/>
    <rect x="662.6" y="-294.09" width="3.5432" height="106.3"/>
    <rect x="651.97" y="-294.09" width="3.5432" height="106.3"/>
    <rect x="641.34" y="-294.09" width="3.5432" height="106.3"/>
    <rect x="630.71" y="-294.09" width="3.5432" height="106.3"/>
    <rect x="620.08" y="-294.09" width="3.5432" height="106.3"/>
    <rect x="705.12" y="-294.09" width="3.5432" height="106.3"/>
    <rect x="694.49" y="-294.09" width="3.5432" height="106.3"/>
    <rect x="715.75" y="-294.09" width="3.5432" height="106.3"/>
    <rect x="726.38" y="-294.09" width="3.5432" height="106.3"/>
   </g>
   <g fill="#fff" fill-rule="evenodd" stroke="#00005b">
    <rect x="641.34" y="-411.02" width="63.78" height="88.583" stroke-width="1.1339pt"/>
    <path transform="matrix(1.2553 0 0 1.275 -171.44 51.548)" d="m627.16-187.8c0-60.236 35.036-82.106 46.063-81.496 10.233-0.61 46.063 21.26 46.906 81.827 9.787-0.331 34.59-0.331 34.59-0.331v-102.76h-166.54v102.76h38.976z" stroke-width="1pt"/>
    <path transform="matrix(3.05 0 0 -1.2222 -1049.4 -889.37)" d="m600.82-464.17v-7.087h-7.702v-7.087h-3.082v7.087h-9.243v-7.087h-3.081v7.087h-10.784v-7.087h-3.081v7.087h-10.784v-7.087h-3.081v7.087h-9.244v-7.087h-3.081v7.087h-7.703v7.087h70.866z" stroke-width="1pt"/>
    <path transform="matrix(3.034 0 0 1.2222 -1039.8 262.6)" d="m599.28-481.89 1.541-7.086h-6.162v-7.087h-6.162v7.087h-6.162v-7.087h-6.163v7.087h-7.702v-7.087h-6.163v7.087h-7.703v-7.087h-6.162v7.087h-6.162v-7.087h-6.162v7.087h-6.163l-1.541 7.086h70.866z" stroke-width="1pt"/>
    <path transform="matrix(1.25 0 0 1 -299.39 31.89)" d="m746.93-460.63 5.67 17.716h51.024l5.669-17.716h-62.363z" stroke-width="1pt"/>
    <path transform="matrix(1.1 0 0 .6 49.603 -152.36)" d="m531.5-496.06v35.433h70.866v-35.433h-3.543v7.087h-7.087v-7.087h-7.086v7.087h-14.174v-7.087h-7.086v7.087h-14.173v-7.087h-7.087v7.087h-7.087v-7.087h-3.543z" stroke-width="1pt"/>
    <g transform="matrix(.37741 .19488 -.22668 .48691 578.41 -351.36)" stroke-width="3.75">
     <rect x="-265.75" y="-407.48" width="673.23" height="35.433"/>
     <rect x="194.88" y="-407.48" width="17.717" height="35.433"/>
     <rect x="283.46" y="-407.48" width="17.717" height="35.433"/>
     <rect x="17.717" y="-407.48" width="17.717" height="35.433"/>
     <rect x="106.3" y="-407.48" width="17.717" height="35.433"/>
     <rect x="-177.17" y="-407.48" width="17.717" height="35.433"/>
     <rect x="-70.866" y="-407.48" width="17.717" height="35.433"/>
     <rect x="-265.75" y="-407.48" width="17.717" height="35.433"/>
     <path d="m-266.49-406.94-52.409-35.968-70.866 53.149h-35.433l106.3-70.866 52.409 53.685z"/>
     <path transform="matrix(1 0 0 -1 .74099 -777.38)" d="m-266.49-405.33-53.15-35.433-70.866 53.15h-35.433l106.3-70.866 53.15 53.149z"/>
     <path d="m-442.91-407.48-17.717 17.716 17.717 17.717 70.866-17.717-70.866-17.716z"/>
    </g>
    <g transform="matrix(.37281 0 0 .35169 686.75 -41.066)" stroke-width="5">
     <path d="m-159.45-265.75 35.433-70.866h70.866l17.716 70.866 17.717-70.866h70.866l35.433 70.866-70.866 35.433 70.866-17.716 17.716 70.866-35.433 53.149-70.857-54.45 53.15 72.168-71.153 38.253-70.579-38.253 35.772-67.367-85.217 120.02-19.203-15.603 88.817-108.02-55.603 53.251-54.818-37.648 19.385-86.367 70.866 17.716-70.866-35.433z"/>
     <path d="m17.717-212.6c0 29.354-23.796 53.15-53.15 53.15s-53.15-23.796-53.15-53.15 23.796-53.15 53.15-53.15 53.15 23.796 53.15 53.15z"/>
    </g>
    <path transform="matrix(.47059 0 0 .55556 594.02 -328.74)" d="m17.716-354.33 35.433 53.15h230.32l35.433-53.15-141.73-88.582-10.058-17.717-7.658 17.717-141.73 88.582zm35.433 0h230.32l-115.43-70.866-114.88 70.866zm-1.5396 17.433 16.803 26.405 37.886-1.2-10.28-24.921-44.408-0.284zm231.85 0.284-16.803 26.405h-36.347l8.742-26.405h44.408zm-168.24 0c8.794-0.917 44.227 0 44.227 0v24.921h-35.433l-8.794-24.921zm106.17 0.407c-8.794-0.917-44.227 0-44.227 0v24.921h35.433l8.794-24.921z" stroke-width="3.75"/>
   </g>
   <g id="c" fill-rule="evenodd">
    <rect x="496.06" y="-230.31" width="106.3" height="53.15" fill="#fff" stroke="#00005b" stroke-width="1pt"/>
    <path transform="translate(-230.31 6.1035e-5)" d="m744.09-265.75-17.716 35.433h106.3l-17.716-35.433h-70.867z" fill="#fff" stroke="#00005b" stroke-width="1pt"/>
    <path transform="matrix(1 0 0 .7 -230.31 -79.724)" d="m744.09-265.75 10.63-177.16h49.606l10.631 177.16h-70.867z" fill="#fff" stroke="#00005b" stroke-width="1pt"/>
    <path transform="translate(-230.32 53.15)" d="m744.09-460.63 10.63 17.716h49.606l10.631-17.716h-70.867z" fill="#fff" stroke="#00005b" stroke-width="1pt"/>
    <path transform="matrix(1 0 0 .6 -17.717 -131.1)" d="m531.5-496.06v35.433h70.866v-35.433h-3.543v7.087h-7.087v-7.087h-7.086v7.087h-14.174v-7.087h-7.086v7.087h-14.173v-7.087h-7.087v7.087h-7.087v-7.087h-3.543z" fill="#fff" stroke="#00005b" stroke-width="1pt"/>
    <path transform="translate(-14.173 -3.5433)" d="m545.67-361.42h3.544v10.63h7.086v3.543h-7.086v14.173h-3.544v-14.173h-7.086v-3.543h7.086v-10.63z" fill="#00005b"/>
    <path transform="translate(17.717 53.149)" d="m545.67-361.42h3.544v10.63h7.086v3.543h-7.086v14.173h-3.544v-14.173h-7.086v-3.543h7.086v-10.63z" fill="#00005b"/>
   </g>
   <rect x="577.56" y="-326.38" width="194.88" height="4.3307" fill="#00005b" fill-rule="evenodd" stroke-width="1pt"/>
   <path transform="matrix(-1 0 0 1 1222.4 -21.26)" d="m545.67-361.42h3.544v10.63h7.086v3.543h-7.086v14.173h-3.544v-14.173h-7.086v-3.543h7.086v-10.63z" fill="#00005b" fill-rule="evenodd"/>
   <use transform="matrix(-1 0 0 1 1350 0)" xlink:href="#c"/>
  </g>
  <g transform="matrix(1.1903 0 0 1.432 -192.83 -124.67)">
   <path transform="matrix(.35173 0 0 .38674 566.4 145.11)" d="m691.32 467.26-2.4 62.411s-26.405-2.4-43.208 7.201c-16.803 9.602-28.805 16.803-26.405 16.803 2.401 0 28.805-14.402 40.807-14.402 12.003 0 19.204 14.402 21.604 12.002 2.401-2.401 14.403-16.803 31.206-16.803s40.807 9.602 38.407 7.201c-2.401-2.4-36.007-16.803-40.808-21.604-4.8-4.801 0-48.008-4.8-48.008-4.801 0-9.602 0-14.403-4.801z" fill="#fff" fill-rule="evenodd" stroke="#00005b" stroke-width="3.6014"/>
   <path transform="matrix(-.058952 .30371 -.43532 -.06482 1025.1 118.56)" d="m713.67 479.88-24.745 49.784s-26.405-2.4-43.208 7.201c-16.803 9.602-28.805 16.803-26.405 16.803 2.401 0 28.805-14.402 40.807-14.402 12.003 0 19.204 14.402 21.604 12.002 2.401-2.401 14.403-16.803 31.206-16.803s40.807 9.602 38.407 7.201c-2.401-2.4-36.007-16.803-40.808-21.604-4.8-4.801 22.345-35.381 17.545-35.381-4.801 0-9.602 0-14.403-4.801z" fill="#fff" fill-rule="evenodd" stroke="#00005b" stroke-width="3.6014"/>
   <use transform="matrix(-1 0 0 1 1321.5 -4.8011)" fill="#fff" stroke="#00005b" stroke-width="1.3283" xlink:href="#g4137"/>
   <path transform="matrix(.56772 0 0 .49724 420.44 98.251)" d="m595.42 213.65s6.232-6.078 6.884-7.578c-1.749-0.3-4.898-1.547-7.235-3.79-4.832-5.255-6.996-16.373-6.996-15.525 0 0.849-9.275 17.36-9.275 17.36l16.622 9.533z" fill="#01015c" fill-rule="evenodd"/>
   <path transform="matrix(.72255 0 0 .65263 326.84 70.415)" d="m600.11 184.91c3.001-3.001 9.902-9.602 9.902-9.602" fill="none" stroke="#01015c" stroke-width="1.9343"/>
   <path transform="matrix(.29393 .21367 -.24776 .25349 630.95 12.41)" d="m612.41 181.91c0 4.3086-1.4106 7.8014-3.1506 7.8014s-3.1506-3.4928-3.1506-7.8014 1.4106-7.8014 3.1506-7.8014 3.1506 3.4928 3.1506 7.8014z" fill="none" stroke="#01015c" stroke-width="2.5"/>
  </g>
  <g transform="matrix(1.1903 0 0 1.432 -121.42 -131.55)">
   <path transform="matrix(-.35173 0 0 .38674 755.09 149.91)" d="m691.32 467.26-2.4 62.411s-26.405-2.4-43.208 7.201c-16.803 9.602-28.805 16.803-26.405 16.803 2.401 0 28.805-14.402 40.807-14.402 12.003 0 19.204 14.402 21.604 12.002 2.401-2.401 14.403-16.803 31.206-16.803s40.807 9.602 38.407 7.201c-2.401-2.4-36.007-16.803-40.808-21.604-4.8-4.801 0-48.008-4.8-48.008-4.801 0-9.602 0-14.403-4.801z" fill="#fff" fill-rule="evenodd" stroke="#00005b" stroke-width="3.6014"/>
   <path transform="matrix(.058952 .30371 .43532 -.06482 298.22 125.16)" d="m713.67 479.88-24.745 49.784s-26.405-2.4-43.208 7.201c-16.803 9.602-28.805 16.803-26.405 16.803 2.401 0 28.805-14.402 40.807-14.402 12.003 0 19.204 14.402 21.604 12.002 2.401-2.401 14.403-16.803 31.206-16.803s40.807 9.602 38.407 7.201c-2.401-2.4-36.007-16.803-40.808-21.604-4.8-4.801 22.345-35.381 17.545-35.381-4.801 0-9.602 0-14.403-4.801z" fill="#fff" fill-rule="evenodd" stroke="#00005b" stroke-width="3.6014"/>
   <g fill="#00005b" stroke="#eea400" stroke-width="1.3283">
    <g id="g4137" fill-rule="evenodd">
     <path transform="matrix(-.68853 -.25322 -.2198 .45847 1069.3 280.69)" d="m698.52 275.22c4.801-4.8-36.006-19.203-19.203-45.608s55.21-7.201 64.811 31.206c9.602 38.407-16.803 88.816-14.402 134.42 2.4 45.609-7.202 40.807 4.801 79.214-9.602-4.8-26.405-33.605-28.805-74.413-2.401-40.807 9.601-88.816 4.8-93.617" stroke-width="2.1799"/>
     <path transform="matrix(-.56772 0 0 .49724 901.05 103.05)" d="m700.93 354.44c9.601 4.8 55.21 48.008 67.212 74.413 4.801 19.203 12.001 40.807-14.403 38.406-16.803-2.4-7.201-24.003-16.803-31.205-9.601-7.201-45.608-33.606-45.608-36.006 0-2.401 7.201-38.407 9.602-45.608z" stroke-width="2.5001"/>
     <path transform="matrix(-.56772 0 0 .49724 901.05 103.05)" d="m648.12 407.25c-7.201 0-45.608-4.801-50.409 9.602-4.801 14.402 57.611 24.004 57.611 21.604 0-2.401-4.801-26.405-7.202-31.206z" stroke-width="2.5001"/>
     <path transform="matrix(-.56772 0 0 .49724 901.05 103.05)" d="m612.11 196.01c20.055-22.61 48.189-38.554 60.011-24.004 19.384 23.856-62.412 69.612-69.613 112.82s26.405 74.413 31.206 103.22c4.8 28.805 4.801 48.008 19.203 55.21 14.403 7.201 28.805 2.4 28.805 2.4s-4.8 28.805 14.403 26.405c12.002 0-2.401-117.62 2.4-165.63 4.801-48.008-36.006-60.01-36.006-60.01s50.956-48.27 38.407-74.414c-16.256-33.867-40.808-24.004-57.611-19.203-16.802 4.8-32.169 9.149-49.415 25.846-16.657 16.948-31.787 67.77-24.998 66.073l43.208-48.712z" stroke-width="2.5001"/>
     <path transform="matrix(-.56772 0 0 .49724 899.69 100.66)" d="m655.32 371.24s0 31.205 2.4 28.805c2.4-2.401 12.002-21.604 12.002-21.604s7.201 33.606 7.201 31.205c0-2.4 7.202-24.004 7.202-24.004s2.4 36.007 4.801 36.007c2.4 0 9.601-21.604 9.601-21.604s7.202 45.608 7.202 40.807 7.201-26.405 7.201-24.004c0 2.4 12.002 52.809 12.002 50.409 0-2.401-2.4-172.83-2.4-172.83l-40.808 4.801" stroke-width="2.5001"/>
     <path transform="matrix(-.74677 0 0 .49724 1029.2 104.25)" d="m662.52 280.02c2.4 0 31.205 0 36.006-4.801 4.801-4.8-36.006-19.203-19.203-45.608s55.21-7.201 64.811 31.206c9.602 38.407-16.803 88.816-14.402 134.42 2.4 45.609-7.202 40.807 4.801 79.214-9.602-4.8-26.405-33.605-28.805-74.413-2.401-40.807 9.601-88.816 4.8-93.617-4.8-4.801-26.404 0-26.404 0" stroke-width="2.1799"/>
    </g>
   </g>
   <path transform="matrix(-.56772 0 0 .49724 901.05 103.05)" d="m595.42 213.65s6.232-6.078 6.884-7.578c-1.749-0.3-4.898-1.547-7.235-3.79-4.832-5.255-6.996-16.373-6.996-15.525 0 0.849-9.275 17.36-9.275 17.36l16.622 9.533z" fill="#fff" fill-rule="evenodd"/>
   <path transform="matrix(-.72255 0 0 .65263 994.65 75.216)" d="m600.11 184.91c3.001-3.001 9.902-9.602 9.902-9.602" fill="none" stroke="#fff" stroke-width="1.9343"/>
   <path transform="matrix(-.29393 .21367 .24776 .25349 690.54 17.211)" d="m612.41 181.91c0 4.3086-1.4106 7.8014-3.1506 7.8014s-3.1506-3.4928-3.1506-7.8014 1.4106-7.8014 3.1506-7.8014 3.1506 3.4928 3.1506 7.8014z" fill="none" stroke="#fff" stroke-width="2.5"/>
  </g>
 </g>
</svg>
