<?xml version="1.0" encoding="UTF-8"?>
<!-- Created with Inkscape (http://www.inkscape.org/) -->
<svg id="svg1" width="1e3" height="500" version="1.0" xmlns="http://www.w3.org/2000/svg" xmlns:cc="http://creativecommons.org/ns#" xmlns:dc="http://purl.org/dc/elements/1.1/" xmlns:rdf="http://www.w3.org/1999/02/22-rdf-syntax-ns#" xmlns:xlink="http://www.w3.org/1999/xlink">
 <g id="g3513">
  <path id="rect1356" d="m0 0h1e3v500h-1e3z" fill="#002b7f"/>
  <path id="rect1359" d="m2.6318e-5 2.4361e-4h500v250h-500z" fill="#002b7f"/>
  <g id="upper_half" transform="matrix(.33333 0 0 .33333 2.6318e-5 .00024361)">
   <path id="upper_left_white" d="m625 228.65v-228.65h50l75 325-750-25v-50h332.29l-332.29-166.15v-83.853h167.71z" fill="#fff"/>
   <use id="use1363" transform="matrix(-1,0,0,1,1500,0)" width="1000" height="500" xlink:href="#upper_left_white"/>
   <path id="upper_red_diagonals" d="m0 0 500 250h-111.8l-388.2-194.1v-55.902zm1500 0-500 250h-111.8l500-250h111.8z" fill="#ce1126"/>
  </g>
  <use id="use1366" transform="matrix(-1 0 0 -1 500 250)" width="1000" height="500" xlink:href="#upper_half"/>
  <path id="path1368" d="m225 2.4361e-4h50v100h225v50h-225v100h-50v-100h-225v-50h225v-100z" fill="#ce1126"/>
  <path id="rect578" d="m750 126.96c68.164 0 123.04 54.876 123.04 123.04v1e-5c0 68.164-54.876 123.04-123.04 123.04s-123.04-54.876-123.04-123.04v-1e-5c0-68.164 54.876-123.04 123.04-123.04z" fill="#ffe300" fill-rule="evenodd" stroke-width="1pt"/>
  <g id="g962" transform="matrix(.15676 0 0 .16024 700.3 255.9)" fill-rule="evenodd">
   <g id="g958" transform="translate(9.8346 -53.15)" stroke="#000" stroke-width="3.75">
    <path id="rect955" d="m-8.9642 496.06h645.78c14.722 0 26.575 11.852 26.575 26.575s-11.852 26.575-26.575 26.575h-645.78c-14.722 0-26.575-11.852-26.575-26.575s11.852-26.575 26.575-26.575z" fill="#007501"/>
    <path id="rect956" d="m20.731 496.06h62.193v53.15h-62.193z" fill="#c00"/>
    <path id="rect957" d="m549.21 496.06h62.193v53.15h-62.193z" fill="#c00"/>
   </g>
   <g id="g921" transform="matrix(.90712 0 0 .68806 31 83.575)">
    <g id="g888" transform="matrix(.81068 -.5855 .5855 .81068 -198.49 275.55)">
     <path id="path882" transform="matrix(1.1248 0 0 1 54.876 -159.93)" d="m272.24 835.32c0 120.22-15.949 217.79-35.601 217.79-19.651 0-35.6-97.573-35.6-217.79 17.769-31.374 12.987-40.097 32.638-40.097 19.652 0 20.794 11.685 38.563 40.097z" stroke-width="1pt"/>
     <path id="path881" transform="matrix(1 0 0 1.0085 109.58 -162.15)" d="m248.84 853.44c0 95.946-20.934 103.34-39.43 103.34-18.495 0-36.468-7.391-36.468-103.34s17.973-244.29 36.468-244.29c18.496 0 39.43 148.35 39.43 244.29z" fill="#fff" stroke="#000" stroke-width="5.3523"/>
    </g>
    <g id="g891" transform="matrix(.81068 -.5855 .5855 .81068 -199.56 269.01)">
     <path id="path883" transform="matrix(1.1136 .1582 -.14065 .99006 142.05 -186.52)" d="m272.24 835.32c0 120.22-15.949 217.79-35.601 217.79-19.651 0-35.6-97.573-35.6-217.79 17.769-31.374 12.987-40.097 32.638-40.097 19.652 0 20.794 11.685 38.563 40.097z" stroke-width="1pt"/>
     <path id="path884" transform="matrix(.99006 .14065 -.14185 .99849 196.53 -181.03)" d="m248.84 853.44c0 95.946-20.934 103.34-39.43 103.34-18.495 0-36.468-7.391-36.468-103.34s17.973-244.29 36.468-244.29c18.496 0 39.43 148.35 39.43 244.29z" fill="#fff" stroke="#000" stroke-width="5.3523"/>
    </g>
    <g id="g894" transform="matrix(.93446 -.35608 .35608 .93446 -140.02 143.59)">
     <path id="path895" transform="matrix(1.1248 0 0 1 54.876 -159.93)" d="m272.24 835.32c0 120.22-15.949 217.79-35.601 217.79-19.651 0-35.6-97.573-35.6-217.79 17.769-31.374 12.987-40.097 32.638-40.097 19.652 0 20.794 11.685 38.563 40.097z" stroke-width="1pt"/>
     <path id="path896" transform="matrix(1 0 0 1.0085 109.58 -162.15)" d="m248.84 853.44c0 95.946-20.934 103.34-39.43 103.34-18.495 0-36.468-7.391-36.468-103.34s17.973-244.29 36.468-244.29c18.496 0 39.43 148.35 39.43 244.29z" fill="#fff" stroke="#000" stroke-width="5.3523"/>
    </g>
    <g id="g897" transform="matrix(.93446 -.35608 .35608 .93446 -139.36 137)">
     <path id="path898" transform="matrix(1.1136 .1582 -.14065 .99006 142.05 -186.52)" d="m272.24 835.32c0 120.22-15.949 217.79-35.601 217.79-19.651 0-35.6-97.573-35.6-217.79 17.769-31.374 12.987-40.097 32.638-40.097 19.652 0 20.794 11.685 38.563 40.097z" stroke-width="1pt"/>
     <path id="path899" transform="matrix(.99006 .14065 -.14185 .99849 196.53 -181.03)" d="m248.84 853.44c0 95.946-20.934 103.34-39.43 103.34-18.495 0-36.468-7.391-36.468-103.34s17.973-244.29 36.468-244.29c18.496 0 39.43 148.35 39.43 244.29z" fill="#fff" stroke="#000" stroke-width="5.3523"/>
    </g>
    <g id="g900" transform="matrix(.96342 -.26799 .26799 .96342 -116 94.33)">
     <path id="path901" transform="matrix(1.1136 .1582 -.14065 .99006 142.05 -186.52)" d="m272.24 835.32c0 120.22-15.949 217.79-35.601 217.79-19.651 0-35.6-97.573-35.6-217.79 17.769-31.374 12.987-40.097 32.638-40.097 19.652 0 20.794 11.685 38.563 40.097z" stroke-width="1pt"/>
     <path id="path902" transform="matrix(.99006 .14065 -.14185 .99849 196.53 -181.03)" d="m248.84 853.44c0 95.946-20.934 103.34-39.43 103.34-18.495 0-36.468-7.391-36.468-103.34s17.973-244.29 36.468-244.29c18.496 0 39.43 148.35 39.43 244.29z" fill="#fff" stroke="#000" stroke-width="5.3523"/>
    </g>
    <g id="g903" transform="matrix(-.81068 -.5855 -.5855 .81068 834.09 275.55)">
     <path id="path904" transform="matrix(1.1248 0 0 1 54.876 -159.93)" d="m272.24 835.32c0 120.22-15.949 217.79-35.601 217.79-19.651 0-35.6-97.573-35.6-217.79 17.769-31.374 12.987-40.097 32.638-40.097 19.652 0 20.794 11.685 38.563 40.097z" stroke-width="1pt"/>
     <path id="path905" transform="matrix(1 0 0 1.0085 109.58 -162.15)" d="m248.84 853.44c0 95.946-20.934 103.34-39.43 103.34-18.495 0-36.468-7.391-36.468-103.34s17.973-244.29 36.468-244.29c18.496 0 39.43 148.35 39.43 244.29z" fill="#fff" stroke="#000" stroke-width="5.3523"/>
    </g>
    <g id="g906" transform="matrix(-.81068 -.5855 -.5855 .81068 835.16 269.01)">
     <path id="path907" transform="matrix(1.1136 .1582 -.14065 .99006 142.05 -186.52)" d="m272.24 835.32c0 120.22-15.949 217.79-35.601 217.79-19.651 0-35.6-97.573-35.6-217.79 17.769-31.374 12.987-40.097 32.638-40.097 19.652 0 20.794 11.685 38.563 40.097z" stroke-width="1pt"/>
     <path id="path908" transform="matrix(.99006 .14065 -.14185 .99849 196.53 -181.03)" d="m248.84 853.44c0 95.946-20.934 103.34-39.43 103.34-18.495 0-36.468-7.391-36.468-103.34s17.973-244.29 36.468-244.29c18.496 0 39.43 148.35 39.43 244.29z" fill="#fff" stroke="#000" stroke-width="5.3523"/>
    </g>
    <g id="g909" transform="matrix(-.93446 -.35608 -.35608 .93446 775.62 143.59)">
     <path id="path910" transform="matrix(1.1248 0 0 1 54.876 -159.93)" d="m272.24 835.32c0 120.22-15.949 217.79-35.601 217.79-19.651 0-35.6-97.573-35.6-217.79 17.769-31.374 12.987-40.097 32.638-40.097 19.652 0 20.794 11.685 38.563 40.097z" stroke-width="1pt"/>
     <path id="path911" transform="matrix(1 0 0 1.0085 109.58 -162.15)" d="m248.84 853.44c0 95.946-20.934 103.34-39.43 103.34-18.495 0-36.468-7.391-36.468-103.34s17.973-244.29 36.468-244.29c18.496 0 39.43 148.35 39.43 244.29z" fill="#fff" stroke="#000" stroke-width="5.3523"/>
    </g>
    <g id="g912" transform="matrix(-.93446 -.35608 -.35608 .93446 774.96 137)">
     <path id="path913" transform="matrix(1.1136 .1582 -.14065 .99006 142.05 -186.52)" d="m272.24 835.32c0 120.22-15.949 217.79-35.601 217.79-19.651 0-35.6-97.573-35.6-217.79 17.769-31.374 12.987-40.097 32.638-40.097 19.652 0 20.794 11.685 38.563 40.097z" stroke-width="1pt"/>
     <path id="path914" transform="matrix(.99006 .14065 -.14185 .99849 196.53 -181.03)" d="m248.84 853.44c0 95.946-20.934 103.34-39.43 103.34-18.495 0-36.468-7.391-36.468-103.34s17.973-244.29 36.468-244.29c18.496 0 39.43 148.35 39.43 244.29z" fill="#fff" stroke="#000" stroke-width="5.3523"/>
    </g>
    <g id="g915" transform="matrix(-.96342 -.26799 -.26799 .96342 751.6 94.33)">
     <path id="path916" transform="matrix(1.1136 .1582 -.14065 .99006 142.05 -186.52)" d="m272.24 835.32c0 120.22-15.949 217.79-35.601 217.79-19.651 0-35.6-97.573-35.6-217.79 17.769-31.374 12.987-40.097 32.638-40.097 19.652 0 20.794 11.685 38.563 40.097z" stroke-width="1pt"/>
     <path id="path917" transform="matrix(.99006 .14065 -.14185 .99849 196.53 -181.03)" d="m248.84 853.44c0 95.946-20.934 103.34-39.43 103.34-18.495 0-36.468-7.391-36.468-103.34s17.973-244.29 36.468-244.29c18.496 0 39.43 148.35 39.43 244.29z" fill="#fff" stroke="#000" stroke-width="5.3523"/>
    </g>
    <g id="g918" transform="matrix(.98848 -.15136 .15136 .98848 -62.175 52.164)">
     <path id="path919" transform="matrix(1.1136 .1582 -.14065 .99006 142.05 -186.52)" d="m272.24 835.32c0 120.22-15.949 217.79-35.601 217.79-19.651 0-35.6-97.573-35.6-217.79 17.769-31.374 12.987-40.097 32.638-40.097 19.652 0 20.794 11.685 38.563 40.097z" stroke-width="1pt"/>
     <path id="path920" transform="matrix(.99006 .14065 -.14185 .99849 196.53 -181.03)" d="m248.84 853.44c0 95.946-20.934 103.34-39.43 103.34-18.495 0-36.468-7.391-36.468-103.34s17.973-244.29 36.468-244.29c18.496 0 39.43 148.35 39.43 244.29z" fill="#fff" stroke="#000" stroke-width="5.3523"/>
    </g>
   </g>
   <path id="path1082" transform="matrix(.73438 -.67857 .33403 .34998 118.46 582.74)" d="m690.94 180.39c0 1.7816-1.8585 3.2258-4.1511 3.2258s-4.1511-1.4442-4.1511-3.2258 1.8585-3.2258 4.1511-3.2258 4.1511 1.4442 4.1511 3.2258z" fill="#fff" stroke-width="1pt"/>
   <path id="path1083" transform="matrix(-.15176 -.30254 .1741 -.067465 755.83 400.06)" d="m690.94 180.39c0 1.7816-1.8585 3.2258-4.1511 3.2258s-4.1511-1.4442-4.1511-3.2258 1.8585-3.2258 4.1511-3.2258 4.1511 1.4442 4.1511 3.2258z" stroke-width="1pt"/>
   <path id="path866" d="m321.94 435.27c-50.347-2.962-36.765-64.734-51.573-64.734s-65.155 56.27-79.963 71.078-17.769 38.5-17.769 38.5-2.962-38.5-23.693-41.462c-20.731-2.961-44.423 29.616-44.423 29.616s2.961-32.577 20.731-44.423c17.769-11.847 50.346 0 50.346 0s71.078-68.117 85.886-94.771-33.445-28.476-45.291-49.207 5.923-79.962-11.846-91.808c-14.808 29.615-29.616 97.732-47.386 94.77-17.769-2.962-35.538-50.347-35.538-50.347s8.884 56.27-17.77 56.27c-26.654 0-32.577-56.27-32.577-56.27s-2.962 59.232-29.616 59.232-26.654-71.078-26.654-71.078-20.731 59.231-35.539 68.116c-14.808 8.885-8.884-65.154-8.884-65.154s-20.731 59.231-44.424 56.269c-23.693-2.961-20.731-50.346-20.731-50.346s-17.769 41.462-50.347 32.577c-32.577-8.885-23.692-56.27-23.692-56.27s-11.846 35.539-38.501 14.808c-26.654-20.731 8.885-53.308 8.885-53.308s-23.693 32.577-50.347 17.769 11.847-65.154 11.847-65.154-44.423 14.807-65.154-11.847c-20.731-26.654 29.615-41.462 29.615-41.462s-32.577-5.9233-38.5-29.616c-5.923-23.693 41.462-29.616 41.462-29.616s-38.501-8.8847-41.462-32.577c-2.962-23.692 44.423-5.9232 47.385-5.9232 2.961 0-59.232-41.462-59.232-59.231 0-17.769 59.232 8.8847 59.232 8.8847s-59.232-38.501-59.232-65.155 38.5-5.923 53.308-2.962c-11.846-17.769-53.308-35.538-50.346-56.269s56.27 2.961 56.27 2.961-50.347-53.308-41.462-71.078c8.884-17.769 62.193 23.693 62.193 23.693s-62.193-53.308-56.27-68.116 65.155 26.654 65.155 26.654-59.232-56.27-50.347-77.001 59.231 26.655 71.077 35.54c-11.846-5.923-68.115-79.963-56.269-97.733 11.846-17.769 74.039 56.27 74.039 56.27s-56.27-88.847-47.385-100.69c8.885-11.847 77.001 71.077 77.001 71.077s-53.308-91.808-32.577-106.62c20.73-14.808 56.269 77.001 59.231 77.001 2.961 0-29.616-100.69-5.923-109.58 23.692-8.884 59.231 94.771 62.192 94.771 2.962 0-23.692-136.23 5.923-133.27 29.616 2.962 23.693 65.155 23.693 68.117 0 2.961 2.962-35.539 20.731-35.539-2.962 8.884 53.308 325.77 71.078 399.81 17.769 74.039 38.5 53.308 53.308 77.001 14.808 23.692 35.538 26.654 59.231 29.616 23.692 2.9615 74.474 3.4666 88.847-23.693 10.542-25.087-2.962-127.35 81.443-130.31 84.406 2.961 70.902 105.22 81.444 130.31 14.373 27.159 65.155 26.654 88.847 23.693 23.693-2.9616 44.423-5.9233 59.231-29.616 14.808-23.693 35.539-2.9615 53.308-77.001 17.77-74.04 74.04-390.93 71.078-399.81 17.769 0 20.731 38.5 20.731 35.539 0-2.962-5.923-65.155 23.693-68.117 29.615-2.961 2.961 133.27 5.923 133.27 2.961 0 38.5-103.66 62.192-94.771 23.693 8.885-8.884 109.58-5.923 109.58 2.962 0 38.501-91.809 59.231-77.001 20.731 14.808-32.577 106.62-32.577 106.62s68.116-82.924 77.001-71.077c8.885 11.846-47.385 100.69-47.385 100.69s62.193-74.039 74.039-56.27c11.846 17.77-44.423 91.81-56.269 97.733 11.846-8.885 62.192-56.271 71.077-35.54s-50.347 77.001-50.347 77.001 59.232-41.462 65.155-26.654-56.27 68.116-56.27 68.116 53.309-41.462 62.193-23.693c8.885 17.77-41.462 71.078-41.462 71.078s53.308-23.692 56.27-2.961-38.5 38.5-50.346 56.269c14.808-2.961 53.308-23.692 53.308 2.962s-59.232 65.155-59.232 65.155 59.232-26.654 59.232-8.8847c0 17.769-62.193 59.231-59.232 59.231 2.962 0 50.347-17.769 47.385 5.9232-2.961 23.692-41.462 32.577-41.462 32.577s47.385 5.9232 41.462 29.616c-5.923 23.692-38.5 29.616-38.5 29.616s50.346 14.808 29.615 41.462c-20.731 26.654-65.154 11.847-65.154 11.847s38.501 50.346 11.847 65.154-50.347-17.769-50.347-17.769 35.539 32.577 8.885 53.308c-26.655 20.731-38.501-14.808-38.501-14.808s8.885 47.385-23.692 56.27c-32.578 8.885-50.347-32.577-50.347-32.577s2.962 47.385-20.731 50.346c-23.693 2.962-44.424-56.269-44.424-56.269s5.924 74.039-8.884 65.154-35.539-68.116-35.539-68.116 0 71.078-26.654 71.078-29.616-59.232-29.616-59.232-5.923 56.27-32.577 56.27-17.77-56.27-17.77-56.27-17.769 47.385-35.538 50.347c-17.77 2.962-32.578-65.155-47.386-94.77-17.769 11.846 0 71.077-11.846 91.808s-64.287 22.553-49.479 49.207 85.886 94.771 85.886 94.771 32.577-11.847 50.346 0c17.77 11.846 20.731 44.423 20.731 44.423s-23.692-32.577-44.423-29.616c-20.731 2.962-23.693 41.462-23.693 41.462s-2.961-23.692-17.769-38.5-65.155-71.078-79.963-71.078 7.15 61.772-46.158 64.734z" stroke="#000" stroke-width="1pt"/>
   <path id="path871" d="m379.08-78.482c1.596 0.4555-22.161 45.457-55.854 68.756-33.694 23.299-61.722 13.483-68.374 11.039 0.534 7.2265 2.19 46.685 3.671 67.416 6.117 91.748-20.731 122.47-20.731 122.47s17.77 29.616 17.77 44.424-0.806 34.164 13.94 69.789c26.263 47.603 29.616 53.308 29.616 71.077 0 17.77 4.547 43.433 23.259 39.514 20.806 5.833 23.258-21.924 23.258-39.694 0-17.769 3.353-23.474 29.616-71.077 21.029-33.531 9.752-54.981 9.752-69.789s17.77-44.424 17.77-44.424-26.848-29.676-20.731-121.42c2.961-41.462 26.654-85.886-2.962-148.08z" fill="#fff"/>
   <path id="path872" transform="matrix(1.3258 .10598 .17676 1.2358 -49.825 16.054)" d="m199.99-198.15s21.989 4.188 35.601 14.659 20.941 21.989 14.659 28.271c-6.282 6.283-19.894 3.141-30.365-2.094s-29.318-28.271-28.271-28.271 0 28.271 21.988 39.789c21.989 11.518 24.725 14.133 33.101 13.086 8.377-1.047 30.085-29.776 29.038-42.341s-12.926-23.099-30.726-29.381c-17.801-6.283-45.025 8.376-45.025 6.282z" fill="#ffe300" stroke="#000" stroke-width="1pt"/>
   <path id="path873" transform="translate(1.4808 -2.9616)" d="m337.62-155.48c0 5.7247-4.9723 10.366-11.106 10.366-6.1336 0-11.106-4.6408-11.106-10.366s4.9723-10.366 11.106-10.366c6.1336 0 11.106 4.6408 11.106 10.366z" fill="#fff"/>
   <path id="path874" transform="matrix(.97712 -.06834 .056334 .80546 22.637 19.919)" d="m528.64-38.502c7.549 0.1507 39.818-13.954 49.606-29.616 16.126-25.8 37.761-75.52 37.761-75.52s-4.443 38.5 4.442 41.462c8.885 2.9611 17.77-1.482 32.577-8.886-2.961 9.626-32.827 25.527-30.355 33.319 2.326 5.6446 43.683-2.9616 54.789-3.702-9.626 6.6635-57.891 14.49-59.973 27.395-1.621 10.047 31.097 10.366 41.463 15.548-13.327 1.4808-45.067-1.9883-54.049 8.8848-5.085 6.156 33.317 44.424 27.394 44.424s-31.761-36.417-42.942-28.135c-8.81 6.5256-2.221 30.356-3.702 42.202-6.664-8.1444-16.229-38.181-25.174-38.501-11.786-0.42094-31.096 33.318-39.981 39.981 5.183-10.365 16.711-45.448 12.587-50.347-5.88-8.0399-46.645-1.4807-59.973 8.8848 10.367-17.029 46.707-27.556 55.53-27.395z" fill="#fff" stroke="#000" stroke-width="1pt"/>
   <path id="path875" transform="matrix(-.97712 -.06834 -.056334 .80546 626.51 24.108)" d="m528.64-38.502c7.549 0.1507 39.818-13.954 49.606-29.616 16.126-25.8 37.761-75.52 37.761-75.52s-4.443 38.5 4.442 41.462c8.885 2.9611 17.77-1.482 32.577-8.886-2.961 9.626-32.827 25.527-30.355 33.319 2.326 5.6446 43.683-2.9616 54.789-3.702-9.626 6.6635-57.891 14.49-59.973 27.395-1.621 10.047 31.097 10.366 41.463 15.548-13.327 1.4808-45.067-1.9883-54.049 8.8848-5.085 6.156 33.317 44.424 27.394 44.424s-31.761-36.417-42.942-28.135c-8.81 6.5256-2.221 30.356-3.702 42.202-6.664-8.1444-16.229-38.181-25.174-38.501-11.786-0.42094-31.096 33.318-39.981 39.981 5.183-10.365 16.711-45.448 12.587-50.347-5.88-8.0399-46.645-1.4807-59.973 8.8848 10.367-17.029 46.707-27.556 55.53-27.395z" fill="#fff" stroke="#000" stroke-width="1pt"/>
   <path id="path876" transform="matrix(.52209 .71831 .46422 -.54894 417.9 -685.78)" d="m546.54-30.339c7.606-1.682 38.078-6.6925 47.866-22.355 16.126-25.8 8.658-64.009 14.717-88.507 6.868 22.339 2.441 36.063 11.326 39.025 8.885 2.9611 11.842-5.425 26.649-12.829-2.961 9.626-26.899 29.47-24.427 37.262 2.326 5.6446 43.683-2.9616 54.789-3.702-9.626 6.6635-57.891 14.49-59.973 27.395-1.621 10.047 31.097 10.366 41.463 15.548-13.327 1.4808-45.067-1.9883-54.049 8.8848-5.085 6.156 33.317 44.424 27.394 44.424s-31.761-36.417-42.942-28.135c-8.81 6.5256-2.221 30.356-3.702 42.202-6.664-8.1444-16.229-38.181-25.174-38.501-11.786-0.42094-31.096 33.318-39.981 39.981 5.183-10.365 16.711-45.448 12.587-50.347-5.88-8.0399-18.554-4.7794-32.821-12.81 23.563-3.5764 37.863 5.6836 46.278 2.4627z" fill="#fff" stroke="#000" stroke-width="1pt"/>
   <path id="path877" transform="matrix(-.52209 .71831 -.46422 -.54894 242.94 -664.84)" d="m546.54-30.339c7.606-1.682 38.078-6.6925 47.866-22.355 16.126-25.8 8.658-64.009 14.717-88.507 6.868 22.339 2.441 36.063 11.326 39.025 8.885 2.9611 11.842-5.425 26.649-12.829-2.961 9.626-26.899 29.47-24.427 37.262 2.326 5.6446 43.683-2.9616 54.789-3.702-9.626 6.6635-57.891 14.49-59.973 27.395-1.621 10.047 31.097 10.366 41.463 15.548-13.327 1.4808-45.067-1.9883-54.049 8.8848-5.085 6.156 33.317 44.424 27.394 44.424s-31.761-36.417-42.942-28.135c-8.81 6.5256-2.221 30.356-3.702 42.202-6.664-8.1444-16.229-38.181-25.174-38.501-11.786-0.42094-31.096 33.318-39.981 39.981 5.183-10.365 16.711-45.448 12.587-50.347-5.88-8.0399-18.554-4.7794-32.821-12.81 23.563-3.5764 37.863 5.6836 46.278 2.4627z" fill="#fff" stroke="#000" stroke-width="1pt"/>
  </g>
 </g>
 <metadata id="metadata9086">
  <rdf:RDF>
   <cc:Work rdf:about="">
    <dc:title/>
    <dc:description/>
    <dc:subject>
     <rdf:Bag>
      <rdf:li>oceania</rdf:li>
      <rdf:li>flags</rdf:li>
      <rdf:li>sign</rdf:li>
      <rdf:li>signs_and_symbols</rdf:li>
      <rdf:li/>
      <rdf:li>australia</rdf:li>
     </rdf:Bag>
    </dc:subject>
    <dc:publisher>
     <cc:Agent rdf:about="http://www.openclipart.org">
      <dc:title>Caleb Moore</dc:title>
     </cc:Agent>
    </dc:publisher>
    <dc:creator>
     <cc:Agent rdf:about="">
      <dc:title>Caleb Moore</dc:title>
     </cc:Agent>
    </dc:creator>
    <dc:rights>
     <cc:Agent rdf:about="">
      <dc:title>Caleb Moore</dc:title>
     </cc:Agent>
    </dc:rights>
    <dc:date/>
    <dc:format>image/svg+xml</dc:format>
    <dc:type rdf:resource="http://purl.org/dc/dcmitype/StillImage"/>
    <cc:license rdf:resource="http://web.resource.org/cc/PublicDomain">
     <dc:date/>
    </cc:license>
    <dc:language>en</dc:language>
   </cc:Work>
   <cc:License rdf:about="http://web.resource.org/cc/PublicDomain">
    <cc:permits rdf:resource="http://web.resource.org/cc/Reproduction"/>
    <cc:permits rdf:resource="http://web.resource.org/cc/Distribution"/>
    <cc:permits rdf:resource="http://web.resource.org/cc/DerivativeWorks"/>
   </cc:License>
  </rdf:RDF>
 </metadata>
</svg>
