<?xml version="1.0" encoding="UTF-8"?>
<!-- Created with Inkscape (http://www.inkscape.org/) -->
<svg id="svg100000" width="1500" height="750" version="1.0" xmlns="http://www.w3.org/2000/svg" xmlns:xlink="http://www.w3.org/1999/xlink">
 <rect id="rect1358" width="1500" height="750" fill="#00247d"/>
 <g id="g1349" transform="scale(.5)">
  <rect id="rect1517" width="1500" height="750" fill="#00247d"/>
  <g id="upper_half">
   <polygon id="upper_left_white" points="0 0 167.71 0 625 228.65 625 0 675 0 750 325 0 300 0 250 332.29 250 0 83.853" fill="#fff"/>
   <use id="use1521" transform="matrix(-1,0,0,1,1500,0)" width="1500" height="750" xlink:href="#upper_left_white"/>
   <path id="upper_red_diagonals" d="m0 0 500 250h-111.8l-388.2-194.1v-55.902zm1500 0-500 250h-111.8l500-250h111.8z" fill="#e60d2e"/>
  </g>
  <use id="use1524" transform="matrix(-1,0,0,-1,1500,750)" width="1500" height="750" xlink:href="#upper_half"/>
  <path id="path1526" d="m675 0h150v300h675v150h-675v300h-150v-300h-675v-150h675v-300z" fill="#e60d2e"/>
 </g>
 <polygon id="polygon592" transform="matrix(8.5957 0 0 8.5957 349.55 218.3)" points="90 5.7143 90.826 8.2839 93.351 7.3279 91.857 9.5762 94.178 10.954 91.489 11.188 91.86 13.861 90 11.905 88.14 13.861 88.511 11.188 85.822 10.954 88.143 9.5762 86.649 7.3279 89.174 8.2839" fill="#fff" fill-rule="evenodd" stroke-width="1pt"/>
 <polygon id="polygon593" transform="matrix(8.5957 0 0 8.5957 349.55 218.3)" points="75 21.964 75.826 24.534 78.351 23.578 76.857 25.826 79.178 27.204 76.489 27.438 76.86 30.111 75 28.155 73.14 30.111 73.511 27.438 70.822 27.204 73.143 25.826 71.649 23.578 74.174 24.534" fill="#fff" fill-rule="evenodd" stroke-width="1pt"/>
 <polygon id="polygon595" transform="matrix(8.5957 0 0 8.5957 349.55 218.3)" points="96 30 96.653 31.601 98.378 31.728 97.057 32.843 97.47 34.522 96 33.611 94.53 34.522 94.943 32.843 93.622 31.728 95.347 31.601" fill="#fff" fill-rule="evenodd" stroke-width="1pt"/>
 <g id="g1989" transform="matrix(.43108 0 0 .43108 1060.3 114.28)" stroke="#000">
  <path id="path1653" d="m137.66 97.434c-4.4773 0.13417-9.7145 0.88773-15.219 2-8.1834 0.15645-17.355 1.6583-28.063 7.5937-0.0496 0.02749-0.10658 0.03482-0.15625 0.0625-5.8608 1.8828-10.877 3.6343-14.219 4.8438-0.00927-0.00296-0.02196 0.00297-0.03125 0-13.061-4.171-50.394-12.123-53.781 31.969-0.02066 0.27094 0.08708 0.71863 0.3125 1.2812 0.00325 0.00811-0.0033 0.02308 0 0.03125-1.2452 6.9294 1.375 19.094 1.375 19.094 1.551 1.1124 2.67 3.5556 2.9688 4.3438 0.0035 0.01308-0.00142 0.04774 0 0.0625 0.02282 0.88024-3.1527 4.3847-2.5938 5.8438 0.00262 0.00638 0.02848 0.02495 0.03125 0.03125 0.01167 0.02486 0.01714 0.07022 0.03125 0.09375 0.00368 0.0058 0.02741 0.02554 0.03125 0.03125 0.00799 0.01125 0.02262 0.0516 0.03125 0.0625 0.00448 0.00536 0.02661 0.02598 0.03125 0.03125 0.0048 0.00518 0.02628 0.02616 0.03125 0.03125 0.00513 0.00499 0.02595 0.02635 0.03125 0.03125 0.01641 0.01442 0.04455 0.01769 0.0625 0.03125 1.1224 0.85119 2.1043 4.4611 2.875 7.625 0.00478 0.01963-0.00476 0.04291 0 0.0625-0.0025 0.01227 0.00243 0.01901 0 0.03125-0.24072 1.2114-0.15539 2.2708 0.53125 3 0.10379 0.11049 0.18493 0.21767 0.28125 0.34375 0.87637 3.9027 9.6897 41.229 9.1875 43.219-0.4958 1.9959 2.9908 4.502 6.1562 5.5 0.37021 0.11695 1.2557 0.23704 2.625 0.34375 0.04419 0.01572 0.08084 0.01566 0.125 0.03125 18.696 6.6023 34.76 2.2317 69.438 0.71875 9.0532-0.07746 18.745-0.19671 28.969-0.375 0.12195-0.00213 0.2534 0.00204 0.375 0 0.21784-0.00365 0.43951 0.00336 0.65625 0 10.224 0.17829 19.916 0.29754 28.969 0.375 34.678 1.513 50.741 5.8836 69.438-0.71875 0.04206-0.0032 0.08381-0.02804 0.125-0.03125 1.3693-0.10671 2.2548-0.2268 2.625-0.34375 3.1655-0.99795 6.652-3.5041 6.1562-5.5-0.50216-1.9896 0.65625-9.7964 0.65625-12.625 0-2.8286 1.993-6.1403 3.1562-7.4688 0.3422-0.39268 0.75107-1.2336 1.125-2.2812 1.6322 0.60227 3.7329 1.7276 4.4062 1.7812 0.00589 3.1e-4 0.0256-1.3e-4 0.03125 0 0.00541-5e-5 0.02608 2.4e-4 0.03125 0 0.00492-4.2e-4 0.02657 6.1e-4 0.03125 0 0.00443-8.1e-4 0.02708 1e-3 0.03125 0 0.00366-0.0014 0.02785 0.0016 0.03125 0 0.00626-0.0036 0.02606-0.02682 0.03125-0.03125 0.00205-0.00264-0.00177-0.02839 0-0.03125 0.00241-0.00659 0.02999-0.02376 0.03125-0.03125 3.3e-4 -0.00397-4e-5 -0.02705 0-0.03125-0.00167-0.01401-0.02682-0.04633-0.03125-0.0625-0.00358-0.01127 0.00484-0.05024 0-0.0625-0.00274-0.00638-0.02819-0.02461-0.03125-0.03125-0.16942-0.34463-0.74529-1.0185-1.9062-2.1562-0.00596-0.00584-0.02541-0.02498-0.03125-0.03125-1.4066-1.6476 0.74863-16.254 1.625-20.156 0.09632-0.12608 0.17746-0.23326 0.28125-0.34375 0.68664-0.72925 0.77196-1.7886 0.53125-3 0.00238-0.00979-0.00238-0.02145 0-0.03125-5e-3 -0.02454 0.00526-0.03784 0-0.0625 0.77066-3.1639 1.7526-6.7738 2.875-7.625 0.01795-0.01356 0.04609-0.01683 0.0625-0.03125 0.0053-0.0049 0.02611-0.02626 0.03125-0.03125 0.00497-0.00509 0.02645-0.02607 0.03125-0.03125 0.00464-0.00527 0.02677-0.02589 0.03125-0.03125 0.00863-0.0109 0.02326-0.05125 0.03125-0.0625 0.00384-0.00571 0.02757-0.02545 0.03125-0.03125 0.02116-0.03529 0.04678-0.08674 0.0625-0.125 0.559-1.4591-2.6166-4.9635-2.5938-5.8438 0.00212-0.02214 0.0244-0.04418 0.03125-0.0625 0.29876-0.78819 1.3865-3.2314 2.9375-4.3438 0 0 2.6202-12.164 1.375-19.094-0.00166-0.00926 0.00168-0.02201 0-0.03125 0.22542-0.56262 0.33316-1.0103 0.3125-1.2812-3.3873-44.092-40.72-36.14-53.781-31.969-0.00883-0.0032-0.02239 0.0032-0.03125 0-3.3422-1.2095-8.358-2.9609-14.219-4.8438-0.04462-0.02487-0.08043-0.03778-0.125-0.0625-10.708-5.9389-19.879-7.4358-28.062-7.5937-9.9077-2.0021-18.965-2.8372-24.25-1-0.85432 0.29695-1.7291 0.54631-2.5938 0.75-0.85557-0.20246-1.7171-0.45614-2.5625-0.75-2.3491-0.81651-5.4182-1.1073-9-1z" fill="#cf142b" stroke-width=".27185"/>
  <g id="g1821" fill-rule="evenodd" stroke-width=".27185">
   <path id="path13497" d="m82.306 132.97c-2.6616 0.94899-5.3372 23.812-3.0397 31.189 1.5905 5.1069 3.5073 8.557 4.6137 10.681-2.292-3.5327-7.4776-10.299-13.342-9.773-7.3725 0.6616-5.417 24.38-5.0481 25.884 0.00143 0.00532 0.00166 0.02006 0.003036 0.02466 0.001321 0.00387 0.018633 0.02002 0.019898 0.02315 8.14e-4 -8.3e-4 0.016001-3.7e-4 0.016862-0.00152 0.26135-0.59344 2.0419-10.63 9.3345-11.284 4.8005-0.43078 9.2248 4.7853 10.89 7.0261 0.091343 0.74523 0.19281 1.4652 0.28704 2.1932-0.80654 2.329-0.84476 7.6802-3.3639 14.638-3.0439 8.4073-15.296 10.341-17.362 10.608 0.52371-0.047 20.248-1.817 26.727-2.3984 0.025587-0.0023 0.059352-0.00299 0.084312-0.00757 0.012 5.4e-4 0.021711-0.00305 0.033724-0.00303 0.025529 5e-5 26.287-2.359 26.811-2.406-2.086 0.10485-5.8914-5.0731-17.912-8.2188-6.6162-5.6023-7.1534-10.662-8.5095-12.797-0.085111-0.72884-0.16119-1.4511-0.25331-2.1962 1.0827-2.4873 4.1401-8.3748 8.9406-8.8056 7.2926-0.65442 11.478 8.8466 11.878 9.3807 0.00113 9.6e-4 0.01587-0.00218 0.01687-0.00152 4.7e-4 -0.00328 0.01347-0.02215 0.01382-0.02617 2.3e-4 -0.00474-0.00313-0.0192-0.00303-0.02466-0.00559-1.537-3.8684-25.084-11.241-24.422-5.8641 0.52623-9.2886 8.0654-10.67 11.928 0.56498-2.2739 1.482-6.9747 1.7349-11.251 0.45809-7.7446-7.7781-30.212-10.526-29.972-0.042914 0.00394-0.092651-0.00296-0.1349 0.0121zm1.6597 42.012c0.23774 0.36992 0.44596 0.68794 0.61347 0.96718 0.00354 0.0059 0.58146 2.3226 0.58497 2.3284 0.004904 0.05038 2.4071 7.9106 2.412 7.961-0.18071-0.29628-3.3682-10.8-3.6105-11.257zm7.2171-0.64764c-0.1257 0.48988-0.80386 11.34-0.90848 11.662-0.007457-0.05014 0.55444-10.532 0.54697-10.583-0.001245-0.00835 0.052042 2.3598 0.050796 2.3514 0.095851-0.30287 0.16825-3.027 0.31072-3.431z" fill="#fcc917" stroke-width=".27185"/>
   <path id="path27451" d="m217.07 134.31c-2.8008 0.37487-10.171 22.182-9.4578 29.875 0.49398 5.326 1.6516 9.0992 2.2922 11.407-1.5075-3.932-5.1729-11.629-11.018-12.333-7.349-0.8857-10.367 22.721-10.319 24.269 2.9e-4 0.0055-0.00255 0.01997-0.00216 0.02475 4.9e-4 0.00406 0.01407 0.02345 0.01466 0.02678 9.6e-4 -6.4e-4 0.01572 0.00297 0.0168 0.00203 0.37903-0.52614 4.2074-9.9731 11.477-9.097 4.7852 0.57671 8.0283 6.5987 9.1908 9.1366-0.0656 0.74793-0.11604 1.4733-0.17523 2.205-1.2732 2.1104-6.258 10.35-13.73 13.345-8.2995 3.3268-9.7162 7.2084-11.793 7.0408 0.52204 0.06292 20.184 2.4325 26.641 3.2108 0.02551 0.00307 0.05868 0.00942 0.08405 0.01013 0.01162 0.00302 0.02187 0.00153 0.03361 0.00405 0.02496 0.00535 0.05854 0.00706 0.08405 0.01013 6.4578 0.77829 26.119 3.1479 26.641 3.2108-2.0622-0.33115-8.0958-3.3658-14.296-10.136-5.4847-5.9885-6.2955-13.543-7.178-15.914 0.06828-0.73061 0.14403-1.4529 0.20885-2.2009 1.5761-2.2078 5.7909-7.331 10.576-6.7543 7.2692 0.87609 9.3881 11.04 9.6684 11.645 9e-4 0.00118 0.01597 0.00117 0.01681 0.00203 0.00115-0.00312 0.01779-0.01887 0.01897-0.02273 0.0012-0.00459 9.2e-4 -0.01943 0.00215-0.02475 0.3141-1.5046 1.4314-25.34-5.9176-26.226-5.8454-0.70448-10.763 5.958-12.917 9.4486 1.0254-2.1067 2.8997-6.5142 4.0361-10.644 2.0583-7.4802-1.3267-31.169-4.0646-31.505-0.0428-0.00506-0.09001-0.02215-0.13447-0.0162zm-7.1113 41.439c0.15563 0.41126 0.29318 0.76562 0.39898 1.0736 0.00223 0.00651 0.08586 2.3927 0.08808 2.3992-0.00568 0.0503 0.7098 8.2382 0.70414 8.2885-0.11516-0.32737-1.0492-11.264-1.1912-11.761zm7.194 0.86703c-0.22481 0.45304-3.1441 10.925-3.3133 11.218 0.00313-0.05059 2.7321-10.187 2.7352-10.238 5.2e-4 -0.00843-0.43972 2.319-0.4392 2.3106 0.15673-0.27632 0.79392-2.9259 1.0173-3.2914z" fill="#fcc917" stroke-width=".27185"/>
   <g id="g33161" transform="matrix(1.0858 0 0 1.0858 6.9147 26.112)" fill="#fcc917" stroke-width=".25037">
    <g id="g33067">
     <g id="g33040">
      <path id="path28377" d="m24.308 134.56 9.6899-11.814s0.90367 1.1682 0 0c-19.866-25.681-20.87-40.415-18.634-47.876s6.7084-15.544 18.634-25.493c11.926-9.9483 20.156-4.4191 31.337-4.4191 11.181 0 14.162 2.4871 23.852 3.7306 9.6899 1.2435 35.778 2.4871 35.778 2.4871v-6.8395s1.0287 0.19178 0 0c-11.519-2.1474-26.088 0-35.778-2.4871-9.6899-2.4871-17.889-3.1088-28.324-3.1088s-17.92-3.0422-24.628 1.3102-14.907 11.814-20.87 18.031c-5.963 6.2177-8.9445 18.653-8.1991 26.736 0.74537 8.083 3.7269 14.922 8.1991 21.14 4.4722 6.2177 3.7269 11.192 5.2176 15.544 1.4907 4.3524 3.7269 13.679 3.7269 13.057z"/>
      <path id="path29282" d="m239.25 134.56-9.6899-11.814s-0.90367 1.1682 0 0c19.866-25.681 20.87-40.415 18.634-47.876s-6.7084-15.544-18.634-25.493c-11.926-9.9483-20.156-4.4191-31.337-4.4191-11.181 0-14.162 2.4871-23.852 3.7306s-35.778 2.4871-35.778 2.4871v-6.8395s-1.0287 0.19178 0 0c11.519-2.1474 26.088 0 35.778-2.4871 9.6899-2.4871 17.889-3.1088 28.324-3.1088s17.92-3.0422 24.628 1.3102 14.907 11.814 20.87 18.031c5.963 6.2177 8.9445 18.653 8.1991 26.736-0.74537 8.083-3.7269 14.922-8.1991 21.14-4.4722 6.2177-3.7269 11.192-5.2176 15.544-1.4908 4.3524-3.7269 13.679-3.7269 13.057z"/>
      <rect id="rect29364" x="115.55" y="38.701" width="34.563" height="70.894"/>
     </g>
     <g id="g33061" transform="translate(0,-8)">
      <path id="path29388" d="m119.68-15.799s3.7204 3.0282 6.5756 6.9217c2.8552 3.8934 4.8452 8.6521 4.8452 8.6521s-4.7587-1.99-8.6521-4.8452c-3.8934-2.8552-6.9217-6.5756-6.9217-6.5756v26.302s3.0282-3.7204 6.9217-6.5756c3.8934-2.8552 8.6521-4.8452 8.6521-4.8452s-1.5333 3.9266-2.5237 8.6521c-0.8909 4.2506-8.1827 14.065-8.1827 14.065l21.302 1.4286s-3.5418-11.243-4.9685-15.493c-1.5362-4.5772-2.1666-8.6521-2.1666-8.6521s4.7587 1.99 8.6521 4.8452c3.8934 2.8552 6.9217 6.5756 6.9217 6.5756v-26.302s-3.0282 3.7204-6.9217 6.5756c-3.8934 2.8552-8.6521 4.8452-8.6521 4.8452s1.99-4.7587 4.8452-8.6521c2.8552-3.8934 6.5756-6.9217 6.5756-6.9217h-26.302z"/>
      <g id="g33057">
       <path id="path29366" transform="translate(-.022093 8)" d="m150 23.076c0.00457 9.471-7.6719 17.151-17.143 17.151-9.471 0-17.147-7.6802-17.143-17.151-0.00457-9.471 7.6719-17.151 17.143-17.151 9.471 0 17.147 7.6802 17.143 17.151z"/>
       <path id="path31255" d="m116.07 33.535h34.102s0.49381-6.5959-1.9743-9.064h-10.594l-0.17857-9.888h-3.945-6.0969l-0.17857 9.888s-7.1272 0.35714-10.411 0.35714c-1.4889 4.0416-1.2591 4.3809-1.2591 4.3809l0.53571 4.326z"/>
      </g>
     </g>
    </g>
    <g id="g33156">
     <path id="path11917" d="m110.88 107.22s6.2118 5.0562 10.979 11.557c4.7672 6.5008 8.0899 14.446 8.0899 14.446s-7.9454-3.3226-14.446-8.0899c-6.5008-4.7672-11.557-10.979-11.557-10.979v43.916s5.0562-6.2118 11.557-10.979c6.5008-4.7672 14.446-8.0899 14.446-8.0899s-3.3226 7.9454-8.0899 14.446c-4.7672 6.5008-10.979 11.557-10.979 11.557h43.916s-6.2118-5.0562-10.979-11.557c-4.7672-6.5008-8.0899-14.446-8.0899-14.446s7.9454 3.3226 14.446 8.0899c6.5008 4.7672 11.557 10.979 11.557 10.979v-43.916s-5.0562 6.2118-11.557 10.979c-6.5008 4.7672-14.446 8.0899-14.446 8.0899s3.3226-7.9454 8.0899-14.446c4.7672-6.5008 10.979-11.557 10.979-11.557h-43.916z"/>
     <path id="path27435" d="m27.24 181.78 21.625-3.813s-6.9955-3.9007-12.819-9.4749c-5.8237-5.5742-10.476-12.822-10.476-12.822s8.4016 1.8924 15.631 5.4584c7.2298 3.566 13.288 8.8054 13.288 8.8054l-7.626-43.249s-3.9007 6.9955-9.4749 12.819c-5.5742 5.8237-12.822 10.476-12.822 10.476s1.8924-8.4016 5.4584-15.631c3.566-7.2298 8.8054-13.288 8.8054-13.288l-21.625 3.813 10.034 56.907z"/>
     <path id="path27433" d="m226.84 121.06s5.2395 6.058 8.8054 13.288c3.566 7.2298 5.4584 15.631 5.4584 15.631s-7.2477-4.6518-12.822-10.476c-5.5742-5.8237-9.4748-12.819-9.4748-12.819l-7.626 43.249s6.058-5.2395 13.288-8.8054c7.2298-3.566 15.631-5.4584 15.631-5.4584s-4.6518 7.2477-10.476 12.822c-5.8237 5.5742-12.819 9.4749-12.819 9.4749l21.625 3.813 10.034-56.907-21.625-3.813z"/>
    </g>
   </g>
   <path id="path14537" d="m36.734 221.04 0.16274 34.209s57.164-19.466 114.33-19.466c57.164 0 114.33 19.466 114.33 19.466v-34.209s-57.205-19.466-114.41-19.466c-57.205 0-114.41 19.466-114.41 19.466z" fill="#fcc917" stroke-width=".27185"/>
   <g id="g31151" transform="matrix(1.0858 0 0 1.0858 6.9147 26.112)" fill="#fff" stroke-width=".37864">
    <path id="path23567" transform="matrix(.66123 0 0 .66123 21.246 -360.32)" d="m2.0203 723.05c0.0012163 6.6956-5.4263 12.124-12.122 12.124-6.6956 0-12.123-5.4285-12.122-12.124-0.001216-6.6956 5.4263-12.124 12.122-12.124 6.6956 0 12.123 5.4285 12.122 12.124z"/>
    <path id="path29252" transform="matrix(.66123 0 0 .66123 10.965 -378.6)" d="m2.0203 723.05c0.0012163 6.6956-5.4263 12.124-12.122 12.124-6.6956 0-12.123-5.4285-12.122-12.124-0.001216-6.6956 5.4263-12.124 12.122-12.124 6.6956 0 12.123 5.4285 12.122 12.124z"/>
    <path id="path29254" transform="matrix(.66123 0 0 .66123 8.8223 -400.03)" d="m2.0203 723.05c0.0012163 6.6956-5.4263 12.124-12.122 12.124-6.6956 0-12.123-5.4285-12.122-12.124-0.001216-6.6956 5.4263-12.124 12.122-12.124 6.6956 0 12.123 5.4285 12.122 12.124z"/>
    <path id="path29256" transform="matrix(.66123 0 0 .66123 15.251 -420.03)" d="m2.0203 723.05c0.0012163 6.6956-5.4263 12.124-12.122 12.124-6.6956 0-12.123-5.4285-12.122-12.124-0.001216-6.6956 5.4263-12.124 12.122-12.124 6.6956 0 12.123 5.4285 12.122 12.124z"/>
    <path id="path29258" transform="matrix(.66123 0 0 .66123 28.822 -436.46)" d="m2.0203 723.05c0.0012163 6.6956-5.4263 12.124-12.122 12.124-6.6956 0-12.123-5.4285-12.122-12.124-0.001216-6.6956 5.4263-12.124 12.122-12.124 6.6956 0 12.123 5.4285 12.122 12.124z"/>
    <path id="path29260" transform="matrix(.66123 0 0 .66123 47.394 -447.89)" d="m2.0203 723.05c0.0012163 6.6956-5.4263 12.124-12.122 12.124-6.6956 0-12.123-5.4285-12.122-12.124-0.001216-6.6956 5.4263-12.124 12.122-12.124 6.6956 0 12.123 5.4285 12.122 12.124z"/>
    <path id="path29262" transform="matrix(.66123 0 0 .66123 68.108 -446.46)" d="m2.0203 723.05c0.0012163 6.6956-5.4263 12.124-12.122 12.124-6.6956 0-12.123-5.4285-12.122-12.124-0.001216-6.6956 5.4263-12.124 12.122-12.124 6.6956 0 12.123 5.4285 12.122 12.124z"/>
    <path id="path29264" transform="matrix(.66123 0 0 .66123 88.822 -443.03)" d="m2.0203 723.05c0.0012163 6.6956-5.4263 12.124-12.122 12.124-6.6956 0-12.123-5.4285-12.122-12.124-0.001216-6.6956 5.4263-12.124 12.122-12.124 6.6956 0 12.123 5.4285 12.122 12.124z"/>
    <path id="path29266" transform="matrix(.66123 0 0 .66123 109.54 -440.89)" d="m2.0203 723.05c0.0012163 6.6956-5.4263 12.124-12.122 12.124-6.6956 0-12.123-5.4285-12.122-12.124-0.001216-6.6956 5.4263-12.124 12.122-12.124 6.6956 0 12.123 5.4285 12.122 12.124z"/>
    <path id="path29284" transform="matrix(-.66123 0 0 .66123 242.32 -360.32)" d="m2.0203 723.05c0.0012163 6.6956-5.4263 12.124-12.122 12.124-6.6956 0-12.123-5.4285-12.122-12.124-0.001216-6.6956 5.4263-12.124 12.122-12.124 6.6956 0 12.123 5.4285 12.122 12.124z"/>
    <path id="path29286" transform="matrix(-.66123 0 0 .66123 252.6 -378.6)" d="m2.0203 723.05c0.0012163 6.6956-5.4263 12.124-12.122 12.124-6.6956 0-12.123-5.4285-12.122-12.124-0.001216-6.6956 5.4263-12.124 12.122-12.124 6.6956 0 12.123 5.4285 12.122 12.124z"/>
    <path id="path29288" transform="matrix(-.66123 0 0 .66123 254.74 -400.03)" d="m2.0203 723.05c0.0012163 6.6956-5.4263 12.124-12.122 12.124-6.6956 0-12.123-5.4285-12.122-12.124-0.001216-6.6956 5.4263-12.124 12.122-12.124 6.6956 0 12.123 5.4285 12.122 12.124z"/>
    <path id="path29290" transform="matrix(-.66123 0 0 .66123 248.31 -420.03)" d="m2.0203 723.05c0.0012163 6.6956-5.4263 12.124-12.122 12.124-6.6956 0-12.123-5.4285-12.122-12.124-0.001216-6.6956 5.4263-12.124 12.122-12.124 6.6956 0 12.123 5.4285 12.122 12.124z"/>
    <path id="path29292" transform="matrix(-.66123 0 0 .66123 234.74 -436.46)" d="m2.0203 723.05c0.0012163 6.6956-5.4263 12.124-12.122 12.124-6.6956 0-12.123-5.4285-12.122-12.124-0.001216-6.6956 5.4263-12.124 12.122-12.124 6.6956 0 12.123 5.4285 12.122 12.124z"/>
    <path id="path29294" transform="matrix(-.66123 0 0 .66123 216.17 -447.89)" d="m2.0203 723.05c0.0012163 6.6956-5.4263 12.124-12.122 12.124-6.6956 0-12.123-5.4285-12.122-12.124-0.001216-6.6956 5.4263-12.124 12.122-12.124 6.6956 0 12.123 5.4285 12.122 12.124z"/>
    <path id="path29296" transform="matrix(-.66123 0 0 .66123 195.45 -446.46)" d="m2.0203 723.05c0.0012163 6.6956-5.4263 12.124-12.122 12.124-6.6956 0-12.123-5.4285-12.122-12.124-0.001216-6.6956 5.4263-12.124 12.122-12.124 6.6956 0 12.123 5.4285 12.122 12.124z"/>
    <path id="path29298" transform="matrix(-.66123 0 0 .66123 174.74 -443.03)" d="m2.0203 723.05c0.0012163 6.6956-5.4263 12.124-12.122 12.124-6.6956 0-12.123-5.4285-12.122-12.124-0.001216-6.6956 5.4263-12.124 12.122-12.124 6.6956 0 12.123 5.4285 12.122 12.124z"/>
    <path id="path29300" transform="matrix(-.66123 0 0 .66123 154.03 -440.89)" d="m2.0203 723.05c0.0012163 6.6956-5.4263 12.124-12.122 12.124-6.6956 0-12.123-5.4285-12.122-12.124-0.001216-6.6956 5.4263-12.124 12.122-12.124 6.6956 0 12.123 5.4285 12.122 12.124z"/>
    <g id="g29354" transform="translate(1.0403)">
     <path id="path29306" transform="matrix(.66123 0 0 .66123 138.47 -378.32)" d="m2.0203 723.05c0.0012163 6.6956-5.4263 12.124-12.122 12.124-6.6956 0-12.123-5.4285-12.122-12.124-0.001216-6.6956 5.4263-12.124 12.122-12.124 6.6956 0 12.123 5.4285 12.122 12.124z"/>
     <path id="path29308" transform="matrix(.66123 0 0 .66123 138.47 -392.6)" d="m2.0203 723.05c0.0012163 6.6956-5.4263 12.124-12.122 12.124-6.6956 0-12.123-5.4285-12.122-12.124-0.001216-6.6956 5.4263-12.124 12.122-12.124 6.6956 0 12.123 5.4285 12.122 12.124z"/>
     <path id="path29312" transform="matrix(.66123 0 0 .66123 138.47 -404.03)" d="m2.0203 723.05c0.0012163 6.6956-5.4263 12.124-12.122 12.124-6.6956 0-12.123-5.4285-12.122-12.124-0.001216-6.6956 5.4263-12.124 12.122-12.124 6.6956 0 12.123 5.4285 12.122 12.124z"/>
     <path id="path29314" transform="matrix(.66123 0 0 .66123 138.47 -414.46)" d="m2.0203 723.05c0.0012163 6.6956-5.4263 12.124-12.122 12.124-6.6956 0-12.123-5.4285-12.122-12.124-0.001216-6.6956 5.4263-12.124 12.122-12.124 6.6956 0 12.123 5.4285 12.122 12.124z"/>
     <path id="path29316" transform="matrix(.66123 0 0 .66123 138.47 -447.89)" d="m2.0203 723.05c0.0012163 6.6956-5.4263 12.124-12.122 12.124-6.6956 0-12.123-5.4285-12.122-12.124-0.001216-6.6956 5.4263-12.124 12.122-12.124 6.6956 0 12.123 5.4285 12.122 12.124z"/>
     <path id="path29318" transform="matrix(.66123 0 0 .66123 138.47 -446.46)" d="m2.0203 723.05c0.0012163 6.6956-5.4263 12.124-12.122 12.124-6.6956 0-12.123-5.4285-12.122-12.124-0.001216-6.6956 5.4263-12.124 12.122-12.124 6.6956 0 12.123 5.4285 12.122 12.124z"/>
     <path id="path29320" transform="matrix(.66123 0 0 .66123 138.47 -439.03)" d="m2.0203 723.05c0.0012163 6.6956-5.4263 12.124-12.122 12.124-6.6956 0-12.123-5.4285-12.122-12.124-0.001216-6.6956 5.4263-12.124 12.122-12.124 6.6956 0 12.123 5.4285 12.122 12.124z"/>
     <path id="path29322" transform="matrix(.66123 0 0 .66123 138.47 -428.89)" d="m2.0203 723.05c0.0012163 6.6956-5.4263 12.124-12.122 12.124-6.6956 0-12.123-5.4285-12.122-12.124-0.001216-6.6956 5.4263-12.124 12.122-12.124 6.6956 0 12.123 5.4285 12.122 12.124z"/>
    </g>
   </g>
   <g id="g2038" transform="translate(0 -.00026004)">
    <rect id="rect36472" x="134.79" y="210.1" width="34.762" height="15.153" fill="#00247d" stroke-width=".27185"/>
    <path id="path37350" transform="matrix(-.67815 -.068828 .023825 .9577 195.48 -.8303)" d="m16.043 233.11c0 4.7254-10.295 8.5562-22.995 8.5562-12.7 0-22.995-3.8307-22.995-8.5562s10.295-8.5562 22.995-8.5562c12.7 0 22.995 3.8307 22.995 8.5562z" fill="#337321" stroke-width=".33775"/>
    <path id="path37352" d="m36.937 229.28-8.7095 8.7095 10.101 5.832 23.493-6.2949-4.187-13.303-20.698 5.0569z" fill="#cf142b" stroke-width=".27185"/>
    <path id="path37354" d="m267.41 229.28 8.7095 8.7095-10.101 5.832-23.493-6.2949 4.187-13.303 20.698 5.0569z" fill="#cf142b" stroke-width=".27185"/>
    <path id="path37356" transform="matrix(.67815 -.068828 -.023825 .9577 108.87 -.8303)" d="m16.043 233.11c0 4.7254-10.295 8.5562-22.995 8.5562-12.7 0-22.995-3.8307-22.995-8.5562s10.295-8.5562 22.995-8.5562c12.7 0 22.995 3.8307 22.995 8.5562z" fill="#337321" stroke-width=".33775"/>
    <path id="path1994" transform="translate(1.0695 -3.4759)" d="m126.2 214.7c0 2.3627-1.9154 4.2781-4.2781 4.2781-2.3627 0-4.2781-1.9154-4.2781-4.2781s1.9154-4.2781 4.2781-4.2781c2.3627 0 4.2781 1.9154 4.2781 4.2781z" fill="#fff" stroke-width=".27185"/>
    <path id="path1996" transform="translate(2.4064 10.16)" d="m126.2 214.7c0 2.3627-1.9154 4.2781-4.2781 4.2781-2.3627 0-4.2781-1.9154-4.2781-4.2781s1.9154-4.2781 4.2781-4.2781c2.3627 0 4.2781 1.9154 4.2781 4.2781z" fill="#fff" stroke-width=".27185"/>
    <path id="path1998" transform="translate(-52.406 6.1497)" d="m126.2 214.7c0 2.3627-1.9154 4.2781-4.2781 4.2781-2.3627 0-4.2781-1.9154-4.2781-4.2781s1.9154-4.2781 4.2781-4.2781c2.3627 0 4.2781 1.9154 4.2781 4.2781z" fill="#fff" stroke-width=".27185"/>
    <path id="path2000" transform="translate(-47.059 18.984)" d="m126.2 214.7c0 2.3627-1.9154 4.2781-4.2781 4.2781-2.3627 0-4.2781-1.9154-4.2781-4.2781s1.9154-4.2781 4.2781-4.2781c2.3627 0 4.2781 1.9154 4.2781 4.2781z" fill="#fff" stroke-width=".27185"/>
    <path id="path2020" transform="matrix(-1 0 0 1 303.07 -3.4759)" d="m126.2 214.7c0 2.3627-1.9154 4.2781-4.2781 4.2781-2.3627 0-4.2781-1.9154-4.2781-4.2781s1.9154-4.2781 4.2781-4.2781c2.3627 0 4.2781 1.9154 4.2781 4.2781z" fill="#fff" stroke-width=".27185"/>
    <path id="path2022" transform="matrix(-1 0 0 1 301.74 10.16)" d="m126.2 214.7c0 2.3627-1.9154 4.2781-4.2781 4.2781-2.3627 0-4.2781-1.9154-4.2781-4.2781s1.9154-4.2781 4.2781-4.2781c2.3627 0 4.2781 1.9154 4.2781 4.2781z" fill="#fff" stroke-width=".27185"/>
    <path id="path2024" transform="matrix(-1 0 0 1 356.55 6.1497)" d="m126.2 214.7c0 2.3627-1.9154 4.2781-4.2781 4.2781-2.3627 0-4.2781-1.9154-4.2781-4.2781s1.9154-4.2781 4.2781-4.2781c2.3627 0 4.2781 1.9154 4.2781 4.2781z" fill="#fff" stroke-width=".27185"/>
    <path id="path2026" transform="matrix(-1 0 0 1 351.2 18.984)" d="m126.2 214.7c0 2.3627-1.9154 4.2781-4.2781 4.2781-2.3627 0-4.2781-1.9154-4.2781-4.2781s1.9154-4.2781 4.2781-4.2781c2.3627 0 4.2781 1.9154 4.2781 4.2781z" fill="#fff" stroke-width=".27185"/>
   </g>
   <g id="g1811">
    <path id="path1793" d="m262.58 201.66 2.7178 1.2998c-1.0162 1.3471-7.1885 16.414-29.376 11.746-22.407-4.714-24.011-26.28-24.011-26.28l4.1595 1.5125s2.4311 16.646 20.041 21.364c17.432 4.6709 26.469-9.6424 26.469-9.6424z" fill="#fcc917" stroke-width=".27185"/>
    <path id="path1795" d="m212.29 188.61-4.1594 0.5672s-4.2895 15.673-26.753 12.478c-22.093-3.1421-22.995-19.663-23.728-22.499-4.3249 2.0797-3.4032 2.836-3.4032 2.836s2.5522 20.046 26.28 22.877c23.539 2.8312 31.574-10.02 31.763-16.26z" fill="#fcc917" stroke-width=".27185"/>
    <path id="path1797" d="m216.85 186.57s-1.9778-1.6609-4.1362-1.8546c-2.1584-0.19369-4.4974 1.0798-4.4974 1.0798l-0.48114 3.9085s2.339-1.2735 4.4974-1.0798c2.1584 0.19369 4.1362 1.8546 4.1362 1.8546l0.48114-3.9085z" fill="#fcc917" stroke-width=".27185"/>
    <path id="path1799" transform="matrix(-1.0858 0 0 1.0858 412.65 44.338)" d="m143.57 136.29c0.00356 5.7226-4.6345 10.364-10.357 10.364s-10.361-4.641-10.357-10.364c-0.00356-5.7226 4.6345-10.364 10.357-10.364s10.361 4.641 10.357 10.364z" fill="#fff" stroke-width=".25037"/>
    <path id="path1423" d="m38.948 201.66-2.7178 1.2998c1.0162 1.3471 7.1885 16.414 29.376 11.746 22.407-4.714 24.011-26.28 24.011-26.28l-4.1595 1.5125s-2.4311 16.646-20.041 21.364c-17.432 4.6709-26.469-9.6424-26.469-9.6424z" fill="#fcc917" stroke-width=".27185"/>
    <path id="path1532" d="m89.239 188.61 4.1595 0.5672s4.2895 15.673 26.753 12.478c22.093-3.1421 22.995-19.663 23.728-22.499 4.3249 2.0797 3.4032 2.836 3.4032 2.836s-2.5522 20.046-26.28 22.877c-23.539 2.8312-31.574-10.02-31.763-16.26z" fill="#fcc917" stroke-width=".27185"/>
    <path id="path13500" d="m84.677 186.57s1.9778-1.6609 4.1362-1.8546 4.4974 1.0798 4.4974 1.0798l0.48114 3.9085s-2.339-1.2735-4.4974-1.0798-4.1362 1.8546-4.1362 1.8546l-0.48114-3.9085z" fill="#fcc917" stroke-width=".27185"/>
    <path id="path34253" transform="matrix(1.0858 0 0 1.0858 -111.12 44.338)" d="m143.57 136.29c0.00356 5.7226-4.6345 10.364-10.357 10.364s-10.361-4.641-10.357-10.364c-0.00356-5.7226 4.6345-10.364 10.357-10.364s10.361 4.641 10.357 10.364z" fill="#fff" stroke-width=".25037"/>
   </g>
   <path id="path33378" transform="matrix(1.0858 0 0 1.0858 6.4184 23.941)" d="m143.57 136.29c0.00356 5.7226-4.6345 10.364-10.357 10.364s-10.361-4.641-10.357-10.364c-0.00356-5.7226 4.6345-10.364 10.357-10.364s10.361 4.641 10.357 10.364z" fill="#fff" stroke-width=".25037"/>
  </g>
  <g id="g1921" stroke-width=".27185">
   <path id="path41975" d="m52.504 257.67 98.536-17.68 102.64 17.68-47.626 19.802-87.862 1.4144-65.691-21.216z" fill="#96877d" fill-rule="evenodd"/>
   <path id="path2159" d="m238.54 280.6c3.2674-0.56746 22.978-5.2528 27.127-7.7602-2.6774-4.8285-7.4836-8.6056-3.7433-7.0179 2.014 0.85492 3.6064-5.7989-2.2394-10.885-16.973 5.5666-57.68 15.739-108.83 15.739-52.344 0-93.562-10.707-110.53-16.273-5.8458 5.0859-4.0252 10.865-4.3785 13.024-0.003084 0.01663 0.003637 2.7242 1.0695 4.8789 5.7535 6.2506 24.394 9.3317 27.662 9.8992 15.352 2.6662 30.705 6.6978 86.148 6.6978 51.289 0 72.366-5.6359 87.719-8.3021z" fill="#fff"/>
  </g>
  <g id="g35393" transform="matrix(1.0858 0 0 1.0858 -81.341 -69.111)" stroke-width=".25037">
   <path id="path34451" d="m132.91 289.66c-3.0093 0.52263-22.147 7.3004-25.969 9.6096 0.00335 0.01441-0.00284 0.0455 0 0.06082 0.32537 1.9887-3.3215 11.251 2.0625 15.935 15.632-5.1268 59.525-20.405 106.63-20.405 48.209 0 88.14 15.278 103.77 20.405 5.384-4.6841 1.7371-13.946 2.0625-15.935 0.00284-0.01532-0.00335-0.04641 0-0.06082-3.8215-2.3092-22.959-9.087-25.969-9.6096-14.14-2.4556-28.772-11.586-79.835-11.586-47.237 0-68.619 9.1307-82.759 11.586z" fill="#fff" stroke-width=".25037"/>
   <g id="g35337" transform="matrix(1.3844 -.14324 .15642 1.2678 -86.626 -64.755)" fill-rule="evenodd">
    <path id="path35329" transform="matrix(.4996 0 0 .4996 56.864 150.9)" d="m115.51 301.56c0 1.0337-0.83797 1.8717-1.8717 1.8717s-1.8717-0.83797-1.8717-1.8717 0.83797-1.8717 1.8717-1.8717 1.8717 0.83797 1.8717 1.8717z" stroke-width=".37588"/>
    <path id="path35331" transform="matrix(.4996 0 0 .4996 55.527 153.31)" d="m115.51 301.56c0 1.0337-0.83797 1.8717-1.8717 1.8717s-1.8717-0.83797-1.8717-1.8717 0.83797-1.8717 1.8717-1.8717 1.8717 0.83797 1.8717 1.8717z" stroke-width=".37588"/>
    <path id="path35333" transform="matrix(.4996 0 0 .4996 57.398 154.91)" d="m115.51 301.56c0 1.0337-0.83797 1.8717-1.8717 1.8717s-1.8717-0.83797-1.8717-1.8717 0.83797-1.8717 1.8717-1.8717 1.8717 0.83797 1.8717 1.8717z" stroke-width=".37588"/>
    <path id="path35335" d="m113.52 303.67 8.526-3.1661-4.1846 2.3925 2.6858-0.08339-2.4924 1.1687 4.0012 0.27504-8.536-0.58675z" stroke-width=".18779"/>
   </g>
   <g id="g35343" transform="matrix(1.3844 -.14324 .15642 1.2678 -45.032 -76.658)" fill-rule="evenodd">
    <path id="path35345" transform="matrix(.4996 0 0 .4996 56.864 150.9)" d="m115.51 301.56c0 1.0337-0.83797 1.8717-1.8717 1.8717s-1.8717-0.83797-1.8717-1.8717 0.83797-1.8717 1.8717-1.8717 1.8717 0.83797 1.8717 1.8717z" stroke-width=".37588"/>
    <path id="path35347" transform="matrix(.4996 0 0 .4996 55.527 153.31)" d="m115.51 301.56c0 1.0337-0.83797 1.8717-1.8717 1.8717s-1.8717-0.83797-1.8717-1.8717 0.83797-1.8717 1.8717-1.8717 1.8717 0.83797 1.8717 1.8717z" stroke-width=".37588"/>
    <path id="path35349" transform="matrix(.4996 0 0 .4996 57.398 154.91)" d="m115.51 301.56c0 1.0337-0.83797 1.8717-1.8717 1.8717s-1.8717-0.83797-1.8717-1.8717 0.83797-1.8717 1.8717-1.8717 1.8717 0.83797 1.8717 1.8717z" stroke-width=".37588"/>
    <path id="path35351" d="m113.52 303.67 8.526-3.1661-4.1846 2.3925 2.6858-0.08339-2.4924 1.1687 4.0012 0.27504-8.536-0.58675z" stroke-width=".18779"/>
   </g>
   <g id="g35353" transform="matrix(1.3784 .19234 -.15163 1.2683 100.17 -120.86)" fill-rule="evenodd">
    <path id="path35355" transform="matrix(.4996 0 0 .4996 56.864 150.9)" d="m115.51 301.56c0 1.0337-0.83797 1.8717-1.8717 1.8717s-1.8717-0.83797-1.8717-1.8717 0.83797-1.8717 1.8717-1.8717 1.8717 0.83797 1.8717 1.8717z" stroke-width=".37588"/>
    <path id="path35357" transform="matrix(.4996 0 0 .4996 55.527 153.31)" d="m115.51 301.56c0 1.0337-0.83797 1.8717-1.8717 1.8717s-1.8717-0.83797-1.8717-1.8717 0.83797-1.8717 1.8717-1.8717 1.8717 0.83797 1.8717 1.8717z" stroke-width=".37588"/>
    <path id="path35359" transform="matrix(.4996 0 0 .4996 57.398 154.91)" d="m115.51 301.56c0 1.0337-0.83797 1.8717-1.8717 1.8717s-1.8717-0.83797-1.8717-1.8717 0.83797-1.8717 1.8717-1.8717 1.8717 0.83797 1.8717 1.8717z" stroke-width=".37588"/>
    <path id="path35361" d="m113.52 303.67 8.526-3.1661-4.1846 2.3925 2.6858-0.08339-2.4924 1.1687 4.0012 0.27504-8.536-0.58675z" stroke-width=".18779"/>
   </g>
   <g id="g35373" transform="matrix(1.3844 .14324 .15642 -1.2678 54.434 659.46)" fill-rule="evenodd">
    <path id="path35375" transform="matrix(.4996 0 0 .4996 56.864 150.9)" d="m115.51 301.56c0 1.0337-0.83797 1.8717-1.8717 1.8717s-1.8717-0.83797-1.8717-1.8717 0.83797-1.8717 1.8717-1.8717 1.8717 0.83797 1.8717 1.8717z" stroke-width=".37588"/>
    <path id="path35377" transform="matrix(.4996 0 0 .4996 55.527 153.31)" d="m115.51 301.56c0 1.0337-0.83797 1.8717-1.8717 1.8717s-1.8717-0.83797-1.8717-1.8717 0.83797-1.8717 1.8717-1.8717 1.8717 0.83797 1.8717 1.8717z" stroke-width=".37588"/>
    <path id="path35379" transform="matrix(.4996 0 0 .4996 57.398 154.91)" d="m115.51 301.56c0 1.0337-0.83797 1.8717-1.8717 1.8717s-1.8717-0.83797-1.8717-1.8717 0.83797-1.8717 1.8717-1.8717 1.8717 0.83797 1.8717 1.8717z" stroke-width=".37588"/>
    <path id="path35381" d="m113.52 303.67 8.526-3.1661-4.1846 2.3925 2.6858-0.08339-2.4924 1.1687 4.0012 0.27504-8.536-0.58675z" stroke-width=".18779"/>
   </g>
   <g id="g35383" transform="matrix(1.3844 .14324 .15642 -1.2678 96.412 670.42)" fill-rule="evenodd">
    <path id="path35385" transform="matrix(.4996 0 0 .4996 56.864 150.9)" d="m115.51 301.56c0 1.0337-0.83797 1.8717-1.8717 1.8717s-1.8717-0.83797-1.8717-1.8717 0.83797-1.8717 1.8717-1.8717 1.8717 0.83797 1.8717 1.8717z" stroke-width=".37588"/>
    <path id="path35387" transform="matrix(.4996 0 0 .4996 55.527 153.31)" d="m115.51 301.56c0 1.0337-0.83797 1.8717-1.8717 1.8717s-1.8717-0.83797-1.8717-1.8717 0.83797-1.8717 1.8717-1.8717 1.8717 0.83797 1.8717 1.8717z" stroke-width=".37588"/>
    <path id="path35389" transform="matrix(.4996 0 0 .4996 57.398 154.91)" d="m115.51 301.56c0 1.0337-0.83797 1.8717-1.8717 1.8717s-1.8717-0.83797-1.8717-1.8717 0.83797-1.8717 1.8717-1.8717 1.8717 0.83797 1.8717 1.8717z" stroke-width=".37588"/>
    <path id="path35391" d="m113.52 303.67 8.526-3.1661-4.1846 2.3925 2.6858-0.08339-2.4924 1.1687 4.0012 0.27504-8.536-0.58675z" stroke-width=".18779"/>
   </g>
  </g>
 </g>
 <path id="path2181" transform="matrix(.80523 0 0 .80523 144.19 113.21)" d="m1175 662.03 25.916-7.1153-13.294-23.357 23.357 13.294 7.1152-25.916 7.1153 25.916 23.357-13.294-13.294 23.357 25.916 7.1153-25.916 7.1153 13.294 23.357-23.357-13.294-7.1153 25.916-7.1152-25.916-23.357 13.294 13.294-23.357-25.916-7.1153z" fill="#fff"/>
 <path id="path2183" transform="matrix(.74634 0 0 .74648 241.15 97.116)" d="m1295.1 439.42 20.208-23.251-20.208-23.251 30.24 5.8753 10.032-29.126 10.032 29.126 30.24-5.8753-20.208 23.251 20.208 23.251-30.24-5.8753-10.032 29.126-10.032-29.126-30.24 5.8753z" fill="#fff"/>
</svg>
