<?xml version="1.0" encoding="UTF-8"?>
<!-- Created with Inkscape (http://www.inkscape.org/) -->
<svg id="svg1" width="1800" height="900" version="1.0" xmlns="http://www.w3.org/2000/svg" xmlns:xlink="http://www.w3.org/1999/xlink">
 <rect id="rect1356" width="1800" height="900" fill="#002664"/>
 <path id="path3682" transform="matrix(3.0495 0 0 3.4616 -1850 1188.6)" d="m1114.9-213.37a65.584 57.776 0 1 1-131.17 0 65.584 57.776 0 1 1 131.17 0z" fill="#fed100"/>
 <rect id="rect1359" x="6.7742e-6" y=".00045" width="900" height="450" fill="#002664"/>
 <g id="upper_half" transform="matrix(.6 0 0 .6 6.7742e-6 .00045)">
  <polygon id="upper_left_white" points="167.71 0 625 228.65 625 0 675 0 750 325 0 300 0 250 332.29 250 0 83.853 0 0 0 0" fill="#fff"/>
  <use id="use1363" transform="matrix(-1,0,0,1,1500,0)" width="1000" height="500" xlink:href="#upper_left_white"/>
  <path id="upper_red_diagonals" d="m0 0 500 250h-111.8l-388.2-194.1v-55.902zm1500 0-500 250h-111.8l500-250h111.8z" fill="#ed2939"/>
 </g>
 <use id="use1366" transform="matrix(-1 0 0 -1 900 450)" width="1000" height="500" xlink:href="#upper_half"/>
 <path id="path1368" d="m405 4.5e-4h90v180h405v90h-405v180h-90v-180h-405v-90h405v-180z" fill="#ed2939"/>
 <path id="path3128" d="m1372.9 356.25c-1.5225 2.9715-7.2064 12.191-8.4139 13.661-4.823 5.9046-6.02 7.1296-8.7605 10.826-1.505 2.0195-4.7145 6.2406-6.6954 9.8351-4.3295 7.8751-4.3295 10.738-4.3295 10.738s-6.1075 3.5875-6.692 3.8395c-0.5915 0.245-3.325 2.002-7.0909 4.718-4.921 3.5385-2.7545 1.7815-8.0745 6.3071-4.5605 3.8955-8.5365 11.039-11.021 14.364-2.954 3.9375-5.229 9.9016-5.712 14.76-0.588 5.9151 0.1995 7.3921 0.1995 12.313 0 3.7905-0.9835 6.9896-3.1535 6.9896-1.6695 0-2.163 0.1995-3.346-4.13-0.686-2.5235-0.7245-1.9355-1.176-7.8751-0.1015-1.281-0.5915-5.2186 1.176-12.215 2.205-8.7606 4.753-12.114 9.1595-18.89 4.4274-6.7691 19.981-25.309 22.148-35.249 2.1384-9.8736 3.7379-20.087-3.2515-30.716-5.747-8.7326-16.166-9.9751-18.406-10.234-2.8035-0.329-6.4505-0.87851-12.145 0.68601-3.2095 0.88901-5.3794 1.575-9.2154 4.0355-5.1835 3.318-7.679 7.1366-9.254 10.927-1.477 3.5455-2.3135 6.3841-1.477 9.0651 0.5635 1.813 1.477 2.1665 1.477 2.1665s-3.0135 12.012-1.967 14.375c1.0815 2.408 3.36 2.5655 4.4275 2.7545 1.155 0.203 0.1715-7.2101 6.559-11.788 0 0 3.605-0.3535 7.2239-1.442 1.5365-0.469 5.054-2.625 5.768-3.283 1.932-1.7675 4.998-5.4006 7.224-4.9455 1.2565 0.252 2.373 0.609 3.6435 1.869 2.6319 3.0205 1.9914 6.6221 1.6729 10.819-0.21 2.674-2.4884 8.6241-12.302 19.009-11.812 12.502-16.243 16.727-24.318 27.157-5.8309 7.5426-7.9344 10.609-13.485 20.878-1.834 3.395-6.7935 17.325-4.921 29.04 2.842 17.756 11.382 26.173 16.499 30.709 5.131 4.543 17.857 9.9681 17.857 9.9681s5.8064 3.311 16.733 4.9c17.72 2.5585 20.044 1.736 27.895 0.6125 7.616-1.0815 25.063-4.844 30.971-6.8146 1.267-0.4305 2.0299 2.954 8.2669 6.5941 5.9045 3.444 6.5975 3.815 14.57 3.6435 8.9565-0.19951 10.507-1.3055 14.469-2.562 2.044-0.651 3.2514-1.0815 5.1204-1.4735 0.9205-0.196 3.2445-0.3955 4.529-0.78751 1.9285-0.6055-0.238-1.428-1.2845-1.575-3.9375-0.59151-5.1905-2.0685-5.607-2.66 0 0-0.6894-0.588 0.392-0.8855 0 0 2.4255 0 8.6625-1.967 3.7415-1.1795 6.951-2.5235 9.6494-3.8395 5.6315-2.7545 11.232-6.5101 13.482-8.1691 2.66-1.9705 5.4144-3.9375 11.322-8.8586 5.9185-4.9386 7.1855-7.4831 8.6625-9.5516 0.9835-1.3895 1.4035-3.115 0.294-2.5585-0.5915 0.2975-1.477 0.68951-2.261 1.0815 0 0-1.6765 0.0875-0.693-1.2775 0.2345-0.336 1.2565-1.106 1.8725-1.505 0 0 4.144-3.752 7.0874-7.1611 3.2375-3.7625 5.215-6.4961 6.692-8.9566 0 0 0.7-1.477-1.1795-0.49351-2.0685 1.085-2.4605 1.6765-2.4605 1.6765s-1.477 0.196-0.4935-2.954c1.12-3.556 1.1795-2.7545 2.1665-4.823 0.945-1.9915 3.248-5.712 4.921-7.9731 1.7745-2.401 3.444-4.333 5.5125-8.0711 2.0544-3.7205 0.161-2.7405-2.1665-1.785-1.869 0.77701-3.4335 1.2705-4.1335 1.491-1.2075 0.38151-6.5205 2.8-7.875 3.346-3.6189 1.463-4.1334 1.6975-7.5809 3.444-4.291 2.177-7.0735 3.4825-8.0675 3.9375-1.085 0.49-1.477 1.0815-4.431 1.281-4.0284 0.2695-3.6434 0.0945-6.3034 0.0945-2.555 0-4.3295 0.336-6.1005 0-1.7605-0.3325-2.968 0.40601-0.8855-2.6565 2.065-3.052 1.771-2.6565 3.248-4.543 0.9205-1.1655 3.9235-5.4076 3.836-5.3096-0.5005 0.567 4.3329-5.9921 4.039-6.6816-0.294-0.68951-2.2645 1.183-4.529 1.0815-1.379 0-3.248-0.49001-3.9375-0.59151-0.3815-0.0525-0.4935-1.078 1.0815-2.555 1.1235-1.0465 0.2485-0.2765 2.66-2.1665 1.463-1.141 2.863-2.576 3.8395-3.5455 1.9669-1.967 2.6564-2.5585 4.8229-5.3166 3.2235-4.102 4.4275-5.915 4.4275-5.915s1.393-1.925-0.9835-1.085c0 0-0.392 0.2975-4.0355 2.17-1.687 0.861-4.4554 1.337-6.0059 1.3755-1.5365 0.0245-1.106-0.81551-0.094-1.575 0.994-0.7455 0.5635-0.763-0.399-0.7875-1.561-0.0385-5.152 0.8155-4.2315-0.59151 1.0465-1.6065 4.0985-2.2295 3.346-2.653 0 0-4.13 0.392-6.0025 0.588 0 0-1.281-0.196-0.7875-1.477 0.1715-0.441 2.548-2.4815 2.8525-3.15 0 0 2.66-3.542 4.9245-6.7901 0 0 5.0189-4.8265 1.477-4.627-1.477 0.098-4.529 2.8525-6.993 3.738-2.4605 0.88901-10.038 4.235-5.509-0.686 0 0 0.987-0.88551 1.771-2.0685 0 0 3.346-4.2245 4.0355-5.404 0 0 0.7875-1.477-2.1665-0.1995 0 0-4.858 2.198-5.7085 1.7745-0.9835-0.4935-0.6895-0.0105-0.2975-2.177 0.1995-1.085 1.6765-4.431 2.7615-6.3 1.575-2.7265 3.4825-5.1136 4.0355-5.7086 0.924-1.015 1.512-1.6975-0.6895-1.183 0 0-4.48 3.003-7.581 4.039-2.3624 0.78401-3.5419 0.88551-5.0189 0.98351-1.2215 0.0805-4.627 0.196-4.627 0.196s-2.3625 0.196-3.6435 0.2975c-1.673 0.12951-0.098-1.477 1.477-3.6435 0 0 0.567-1.1235 2.2645-3.829l6.3-10.633s1.9915-2.6075-0.9835-1.0815c-0.21 0.1085-1.5155 1.1935-1.6765 1.3685-2.065 2.261-2.31 2.1525-4.6235 4.137 0 0-2.4605 1.5715-4.235 2.0615 0 0-3.7415 2.0685-3.64 0.399 0.133-2.3625 0.5915-3.1535 0.9835-3.843 0.553-0.97301 0.392-0.78751 1.477-3.1465 0 0 0.7875-2.3625 1.3755-5.614l0.4935-3.248s0.392-3.752-1.575-0.098c-1.9565 3.6155-4.2559 6.1006-6.2999 7.6756-1.1445 0.87851-1.771 1.3825-5.8065 2.8595 0 0-3.374 1.6485-5.712 2.065-1.6695 0.29751-0.9835-2.6565-0.4935-4.9245 0 0 0.693-1.771 1.876-8.5611 0 0 0.392-3.346-1.6765-0.79101 0 0-1.0465 2.6005-3.052 5.4146-2.4219 3.4195-3.9374 4.7286-4.8229 5.8136 0 0-2.7545 3.836-3.738 5.9046-0.175 0.343-0.693-0.0945-0.9835 0.0945-0.8155 0.5285-0.987-8.5611-0.987-8.5611s-0.49-1.085-1.379-0.098c0 0-0.987 1.771-1.5715 3.15 0 0-1.085 3.157-1.876 3.7485-0.784 0.59151-1.6695-9.5586-1.477-12.313 0 0-0.294-2.856-1.1305-1.246z" stroke="#000" stroke-width="3.15"/>
 <path id="path3130" d="m1296.8 356.25c0.2485 0.448-1.561 3.78-3.8359 5.5826-2.779 2.205-6.006 3.0835-7.0875 1.9005-0.9345-1.0115 1.869-5.215 4.0705-6.4051 3.101-1.6695 6.4854-1.7325 6.8529-1.078z" fill="#fed100" stroke="#000" stroke-width="1.575"/>
 <path id="path3132" d="m1288.2 359.01c0.686 0.3955 2.4465 2.576 3.444 3.4475 0.7875 0.686 0.8855 0.532 0.4935-0.39201-0.2975-0.693-1.085-2.8595-1.575-5.1205 0 0-3.052 1.673-2.3625 2.065"/>
</svg>
