<?xml version="1.0" encoding="UTF-8"?>
<!-- Created with Inkscape (http://www.inkscape.org/) -->
<svg id="svg548" width="450" height="300" version="1.0" xmlns="http://www.w3.org/2000/svg" xmlns:xlink="http://www.w3.org/1999/xlink">
 <rect id="rect552" width="450" height="300" fill="#bf0a30"/>
 <path id="path558" d="m37.5 148.84 186.72 126.16 188.28-126.4-188.28-123.6-186.72 123.84z" fill="#002868"/>
 <path id="path2508" d="m84 149.13 140.42 94.872 141.58-95.056-141.58-92.944-140.42 93.128z" fill="#fff"/>
 <path id="flowRoot2413" d="m148.18 145.01h7.8348l1.36 4.3756h4.8191l-7.48-21.228h-5.1148l-7.5687 21.228h4.6713l1.4783-4.3756zm3.9026-12.063h0.05914l2.6313 8.3965h-5.4104l2.72-8.3965zm12.969 16.438h4.3461v-8.3078h4.5826c1.5799-0.01354 2.5666 0.29443 2.9602 0.92391 0.39358 0.6295 0.55988 1.6618 0.49892 3.097 0.00121 1.073 0.0431 1.9353 0.12565 2.587 0.08252 0.65167 0.19832 1.2183 0.34739 1.7h4.9078v-0.56174c-0.45335-0.13735-0.7293-0.49829-0.82783-1.0828-0.09857-0.58453-0.13799-1.6329-0.11826-3.145-0.0031-1.9094-0.23346-3.2054-0.69108-3.8878-0.45767-0.68245-1.1241-1.1801-1.9994-1.493 1.0551-0.37509 1.8644-1.0144 2.428-1.918 0.56357-0.90357 0.84813-1.9494 0.8537-3.1376 0.02206-0.65115-0.13708-1.4414-0.47743-2.3707-0.34038-0.92928-0.99446-1.7567-1.9622-2.4824-0.96782-0.72561-2.3818-1.1085-4.242-1.1487h-10.732v21.228zm4.3461-11.885v-5.6765h5.5287c1.2676 0.0456 2.1102 0.36835 2.5278 0.96826 0.41759 0.59994 0.60976 1.2036 0.57652 1.8109 0.00122 1.0391-0.28212 1.7844-0.85 2.2359-0.56791 0.4515-1.4278 0.672-2.5796 0.66152h-5.2035zm21.78 4.7009 2.0696-2.1287 6.5635 9.313h5.7061l-9.1652-12.536 8.6626-8.6922h-5.7356l-8.1009 8.633v-8.633h-4.4348v21.228h4.4348v-7.1843zm21.1 2.8087h7.8348l1.36 4.3756h4.8191l-7.48-21.228h-5.1148l-7.5687 21.228h4.6713l1.4783-4.3756zm3.9026-12.063h0.05912l2.6313 8.3965h-5.4104l2.72-8.3965zm25.919 9.993h-0.05912l-8.4261-14.783h-4.6713v21.228h4.1391v-15.137h0.05913l8.6626 15.137h4.4348v-21.228h-4.1391v14.783zm7.3223-0.08869c-0.03139 0.91598 0.17922 1.919 0.63182 3.0091s1.3355 2.034 2.6488 2.8317c1.3133 0.79771 3.2452 1.216 5.7959 1.2549 0.68966 0.03249 1.6887-0.0949 2.997-0.38216 1.3083-0.28725 2.5132-0.92929 3.6146-1.9261 1.1014-0.99682 1.6865-2.5433 1.7553-4.6396-0.05053-1.862-0.61474-3.201-1.6926-4.0172-1.0779-0.81612-2.3665-1.3791-3.8656-1.6889l-5.1739-1.2713c-0.48168-0.07944-0.96704-0.26792-1.4561-0.56543-0.48906-0.29749-0.75268-0.84814-0.79086-1.652 0.04864-0.94669 0.45393-1.6107 1.2159-1.992 0.76191-0.38125 1.5885-0.5648 2.4798-0.55065 1.8681 0.07393 3.0618 0.48784 3.5811 1.2417 0.51923 0.75392 0.77423 1.4044 0.765 1.9513h4.2574c0.00892-0.90373-0.22906-1.8819-0.71395-2.9346-0.48492-1.0526-1.3295-1.9608-2.5338-2.7244-1.2043-0.76356-2.8812-1.1636-5.0304-1.2001-2.2694 0.03689-3.9951 0.42634-5.1772 1.1684-1.1821 0.74207-1.9814 1.6155-2.3981 2.6204-0.41665 1.0049-0.61156 1.9199-0.58473 2.7452 0.06651 2.2537 0.7613 3.7776 2.0843 4.5715 1.323 0.79395 2.8752 1.3495 4.6565 1.6667l2.2765 0.53218c1.1432 0.23899 2.0646 0.53711 2.7643 0.89434 0.6997 0.35726 1.0594 0.93624 1.0791 1.737-0.0536 1.0976-0.53034 1.8367-1.4302 2.2174-0.89991 0.38065-1.9014 0.55804-3.0046 0.53217-1.8798-0.06898-3.1093-0.49275-3.6882-1.2713-0.57899-0.77855-0.84754-1.498-0.80565-2.1583h-4.2574zm25.337 2.1583h7.8348l1.36 4.3756h4.8191l-7.48-21.228h-5.1148l-7.5687 21.228h4.6713l1.4783-4.3756zm3.9026-12.063h0.05913l2.6313 8.3965h-5.4104l2.72-8.3965zm11.875 9.9043c-0.03139 0.91598 0.17922 1.919 0.63182 3.0091s1.3355 2.034 2.6488 2.8317c1.3133 0.79771 3.2452 1.216 5.7959 1.2549 0.68966 0.03249 1.6887-0.0949 2.997-0.38216 1.3083-0.28725 2.5132-0.92929 3.6146-1.9261 1.1014-0.99682 1.6865-2.5433 1.7553-4.6396-0.05053-1.862-0.61473-3.201-1.6926-4.0172-1.0779-0.81612-2.3665-1.3791-3.8656-1.6889l-5.1739-1.2713c-0.48168-0.07944-0.96704-0.26792-1.4561-0.56543-0.48906-0.29749-0.75268-0.84814-0.79086-1.652 0.04864-0.94669 0.45393-1.6107 1.2159-1.992 0.76191-0.38125 1.5885-0.5648 2.4798-0.55065 1.8681 0.07393 3.0618 0.48784 3.5811 1.2417 0.51923 0.75392 0.77423 1.4044 0.765 1.9513h4.2574c0.00892-0.90373-0.22906-1.8819-0.71395-2.9346-0.48492-1.0526-1.3295-1.9608-2.5338-2.7244-1.2043-0.76356-2.8812-1.1636-5.0304-1.2001-2.2694 0.03689-3.9951 0.42634-5.1772 1.1684-1.1821 0.74207-1.9814 1.6155-2.3981 2.6204-0.41665 1.0049-0.61156 1.9199-0.58473 2.7452 0.06651 2.2537 0.7613 3.7776 2.0843 4.5715 1.323 0.79395 2.8752 1.3495 4.6565 1.6667l2.2765 0.53218c1.1432 0.23899 2.0646 0.53711 2.7643 0.89434 0.6997 0.35726 1.0594 0.93624 1.0791 1.737-0.0536 1.0976-0.53034 1.8367-1.4302 2.2174-0.8999 0.38065-1.9014 0.55804-3.0046 0.53217-1.8798-0.06898-3.1093-0.49275-3.6882-1.2713-0.57899-0.77855-0.84754-1.498-0.80565-2.1583h-4.2574z" fill="#002868"/>
 <path id="polygon560" d="m229.48 49.981-5.521-3.9996-5.511 4.0185 2.0946-6.491-5.5216-4.0038 6.8155-0.012123 2.0984-6.493 2.1176 6.4836 6.8185-0.009066-5.5067 4.0192 2.1156 6.4874z" fill="#fff"/>
 <path id="path2417" d="m234.96 190-9.9645 7.0811-9.976-7.0748 3.8099 11.452-9.9656 7.0886 12.319-0.00317 3.8169 11.456 3.8037-11.454 12.325-0.00857-9.9682-7.076 3.8002-11.461z" fill="#002868"/>
 <path id="path2421" d="m202.7 190-9.9645-7.0811-9.976 7.0748 3.8099-11.452-9.9656-7.0886 12.319 0.00315 3.8169-11.456 3.8037 11.454 12.325 0.00859-9.9682 7.076 3.8002 11.461z" fill="#002868"/>
 <path id="path3655" d="m215.98 243.54-3.9996 5.521 4.0185 5.511-6.491-2.0946-4.0038 5.5216-0.01212-6.8155-6.493-2.0984 6.4836-2.1176-0.00907-6.8185 4.0192 5.5067 6.4874-2.1156z" fill="#fff"/>
 <path id="path3694" d="m233.02 243.54 3.9996 5.521-4.0185 5.511 6.491-2.0946 4.0038 5.5216 0.01212-6.8155 6.493-2.0984-6.4836-2.1176 0.00907-6.8185-4.0192 5.5067-6.4874-2.1156z" fill="#fff"/>
 <use id="use2413" transform="translate(64.528)" width="450" height="300" xlink:href="#path2421"/>
 <use id="use2415" transform="translate(-32.264 -85)" width="450" height="300" xlink:href="#use2413"/>
 <use id="use2414" transform="translate(151.48 -119)" width="450" height="300" xlink:href="#path3655"/>
 <use id="use2416" transform="translate(-27,-18)" width="450" height="300" xlink:href="#use2414"/>
 <use id="use2418" transform="translate(-27,-18)" width="450" height="300" xlink:href="#use2416"/>
 <use id="use2420" transform="translate(-27,-17)" width="450" height="300" xlink:href="#use2418"/>
 <use id="use2422" transform="translate(-27,-18)" width="450" height="300" xlink:href="#use2420"/>
 <use id="use2424" transform="translate(-163.48 108)" width="450" height="300" xlink:href="#use2422"/>
 <use id="use2426" transform="translate(24,16)" width="450" height="300" xlink:href="#use2424"/>
 <use id="use2428" transform="translate(24,16)" width="450" height="300" xlink:href="#use2426"/>
 <use id="use2430" transform="translate(24,17)" width="450" height="300" xlink:href="#use2428"/>
 <use id="use2432" transform="translate(24,16)" width="450" height="300" xlink:href="#use2430"/>
 <use id="use2434" transform="translate(-144,-99.075)" width="450" height="300" xlink:href="#path3655"/>
 <use id="use2460" transform="translate(-151,-119)" width="450" height="300" xlink:href="#path3694"/>
 <use id="use2462" transform="translate(27 -18)" width="450" height="300" xlink:href="#use2460"/>
 <use id="use2464" transform="translate(27,-18)" width="450" height="300" xlink:href="#use2462"/>
 <use id="use2466" transform="translate(27,-17)" width="450" height="300" xlink:href="#use2464"/>
 <use id="use2468" transform="translate(27,-18)" width="450" height="300" xlink:href="#use2466"/>
 <use id="use2470" transform="translate(187,90.925)" width="450" height="300" xlink:href="#use2468"/>
 <use id="use2472" transform="translate(-24,17.075)" width="450" height="300" xlink:href="#use2470"/>
 <use id="use2474" transform="translate(-24,16)" width="450" height="300" xlink:href="#use2472"/>
 <use id="use2476" transform="translate(-24,16)" width="450" height="300" xlink:href="#use2474"/>
 <use id="use2478" transform="translate(-24,17)" width="450" height="300" xlink:href="#use2476"/>
 <use id="use2480" transform="translate(-24,16)" width="450" height="300" xlink:href="#use2478"/>
</svg>
