<?xml version="1.0" encoding="UTF-8"?>
<!-- Created with Inkscape (http://www.inkscape.org/) -->
<svg id="svg2" width="6912" height="4320" version="1.0" xml:space="preserve" xmlns="http://www.w3.org/2000/svg"><rect id="rect2559" y="1.4804e-5" width="6912" height="4320" fill="#fff"/><rect id="rect3246" width="6912" height="1440" fill="#b50027"/><rect id="rect4024" width="2880" height="2880" fill="#002577"/><polygon id="polygon46" transform="translate(0 -1120.5)" points="1444.3 1320.1 1403.9 1439 1278.3 1437.2 1378.9 1512.5 1338.5 1631.3 1441.1 1559 1541.6 1634.2 1504.5 1514.3 1607.1 1441.9 1481.5 1440.1" fill="#fff" fill-rule="evenodd"/><polygon id="polygon48" transform="translate(0 -1120.5)" points="867.65 1458.6 887.07 1582.6 775.06 1639.4 899.07 1659.3 918.5 1783.3 975.72 1671.6 1099.7 1691.5 1011.1 1602.5 1068.3 1490.8 956.29 1547.6" fill="#fff" fill-rule="evenodd"/><polygon id="polygon50" transform="translate(0 -1120.5)" points="419.83 1851.6 494.66 1952.4 421.85 2054.7 540.9 2014.7 615.74 2115.5 614.49 1990 733.54 1950 613.72 1912.4 612.46 1786.9 539.65 1889.2" fill="#fff" fill-rule="evenodd"/><polygon id="polygon52" transform="translate(0 -1120.5)" points="209.04 2406.8 322.13 2461.3 305.19 2585.7 392.03 2495 505.12 2549.4 445.69 2438.9 532.52 2348.2 408.96 2370.6 349.53 2260 332.59 2384.4" fill="#fff" fill-rule="evenodd"/><polygon id="polygon54" transform="translate(0 -1120.5)" points="277.71 2995.2 403.16 2990.9 445.97 3108.9 480.7 2988.2 606.14 2983.9 502.15 2913.6 536.87 2793 437.88 2870.2 333.89 2799.9 376.7 2918" fill="#fff" fill-rule="evenodd"/><polygon id="polygon56" transform="translate(0 -1120.5)" points="613.08 3487.1 722.15 3425 814.9 3509.6 789.57 3386.6 898.63 3324.5 773.9 3310.6 748.57 3187.6 696.81 3302 572.08 3288.1 664.83 3372.7" fill="#fff" fill-rule="evenodd"/><polygon id="polygon58" transform="translate(0 -1120.5)" points="1139.4 3764.1 1207.1 3658.4 1328.6 3690.3 1249 3593.1 1316.7 3487.4 1199.8 3533.1 1120.2 3436 1127.5 3561.3 1010.6 3607 1132.1 3638.8" fill="#fff" fill-rule="evenodd"/><polygon id="polygon60" transform="translate(0 -1120.5)" points="1731.5 3766.2 1742.4 3641.2 1864.7 3612.9 1749.1 3563.9 1759.9 3438.9 1677.6 3533.6 1562 3484.6 1626.8 3592.2 1544.5 3686.9 1666.8 3658.6" fill="#fff" fill-rule="evenodd"/><polygon id="polygon62" transform="translate(0 -1120.5)" points="2259.6 3493.4 2211.2 3377.6 2306.3 3295.8 2181.2 3306.1 2132.7 3190.4 2103.8 3312.5 1978.7 3322.8 2086 3388 2057.2 3510.1 2152.3 3428.2" fill="#fff" fill-rule="evenodd"/><polygon id="polygon64" transform="translate(0 -1120.5)" points="2598.8 3004.1 2502.1 2924.1 2548.3 2807.4 2442.3 2874.7 2345.6 2794.7 2376.8 2916.3 2270.8 2983.5 2396.1 2991.4 2427.3 3112.9 2473.5 2996.2" fill="#fff" fill-rule="evenodd"/><polygon id="polygon66" transform="translate(0 -1120.5)" points="2465.1 1859.8 2344.3 1894 2274.6 1789.7 2269.7 1915.1 2149 1949.3 2266.7 1992.6 2261.8 2118.1 2339.5 2019.5 2457.2 2062.8 2387.4 1958.5" fill="#fff" fill-rule="evenodd"/><polygon id="polygon68" transform="translate(0 -1120.5)" points="2020.6 1463.5 1929.6 1549.8 1819.3 1489.8 1873.3 1603.2 1782.3 1689.5 1906.7 1673.2 1960.6 1786.6 1983.5 1663.1 2107.9 1646.8 1997.7 1586.9" fill="#fff" fill-rule="evenodd"/><polygon id="polygon72" transform="translate(0 -1120.5)" points="2671.6 2416.2 2548.8 2390.3 2535.6 2265.5 2472.9 2374.3 2350.2 2348.5 2434.3 2441.6 2371.6 2550.4 2486.2 2499.2 2570.3 2592.3 2557.1 2467.5" fill="#fff" fill-rule="evenodd"/><path id="path76" d="m918.67 2090h-36.357v-4.044c1.024-0.075 2.503-0.189 4.438-0.342 1.934-0.151 3.3-0.379 4.097-0.684 1.252-0.493 2.162-1.157 2.731-1.993 0.569-0.873 0.854-2.069 0.854-3.589v-58.562c0-1.328-0.21-2.43-0.626-3.304-0.418-0.912-1.405-1.669-2.959-2.279-1.138-0.456-2.58-0.872-4.324-1.253-1.707-0.417-3.112-0.664-4.21-0.741v-4.044h36.357v4.044c-1.177 0.04-2.58 0.191-4.21 0.456-1.632 0.228-3.055 0.532-4.267 0.912-1.442 0.456-2.409 1.196-2.902 2.222-0.495 1.025-0.74 2.165-0.74 3.418v58.504c0 1.253 0.265 2.375 0.797 3.361 0.569 0.95 1.517 1.709 2.845 2.278 0.797 0.305 2.086 0.646 3.869 1.025 1.821 0.342 3.357 0.532 4.609 0.57v4.045h-2e-3z" fill="#fab700" fill-rule="evenodd" stroke="#fab700" stroke-miterlimit="3.8637" stroke-width="1.6333"/><path id="path78" d="m1018.3 2013.2c-1.063 0.04-2.694 0.342-4.893 0.912-2.201 0.569-3.775 1.159-4.722 1.766-1.366 0.951-2.296 2.773-2.788 5.469-0.455 2.697-0.683 6.115-0.683 10.254v59.188h-4.95l-48.932-66.138v41.7c0 4.671 0.285 8.26 0.854 10.767 0.606 2.506 1.516 4.292 2.731 5.354 0.871 0.837 2.672 1.615 5.405 2.336 2.731 0.723 4.532 1.102 5.405 1.139v4.044h-33.114v-4.044c1.024-0.075 2.749-0.436 5.178-1.083 2.427-0.684 3.944-1.291 4.552-1.823 1.326-1.063 2.237-2.675 2.731-4.842 0.493-2.202 0.738-5.942 0.74-11.222v-39.82c0-1.746-0.304-3.493-0.91-5.241-0.608-1.747-1.423-3.094-2.447-4.044-1.365-1.254-3.225-2.316-5.576-3.19-2.315-0.911-4.193-1.404-5.633-1.481v-4.044h23.044l45.404 61.638v-38.453c0-4.708-0.304-8.315-0.91-10.824-0.608-2.544-1.479-4.233-2.617-5.07-1.063-0.721-2.807-1.422-5.234-2.108-2.39-0.684-4.21-1.063-5.462-1.14v-4.044h32.83v4.044z" fill="#fab700" fill-rule="evenodd" stroke="#fab700" stroke-miterlimit="3.8637" stroke-width="1.6333"/><path id="path80" d="m1137.4 2057.7c-0.911 0.114-2.144 0.305-3.698 0.569-1.518 0.229-2.751 0.57-3.698 1.025-1.138 0.57-1.954 1.387-2.447 2.45-0.455 1.025-0.683 2.241-0.683 3.646v6.267c0 4.557 0.018 7.633 0.057 9.228 0.075 1.595 0.151 2.906 0.228 3.931-5.046 2.278-10.071 4.026-15.078 5.241-5.007 1.214-9.92 1.821-14.737 1.823-5.16 0-10.128-0.968-14.907-2.905-4.78-1.937-8.953-4.689-12.518-8.26-3.604-3.607-6.469-7.993-8.592-13.159-2.125-5.165-3.186-10.936-3.186-17.318 0-6.153 1.004-11.849 3.015-17.09 2.048-5.278 4.93-9.854 8.648-13.729 3.602-3.797 7.889-6.74 12.859-8.83 5.007-2.125 10.355-3.188 16.045-3.19 4.552 0 8.515 0.552 11.891 1.652 3.375 1.102 6.353 2.432 8.933 3.988l2.333-3.874h4.552l0.512 28.255h-4.666c-0.797-3.113-1.783-6.17-2.958-9.172-1.177-3.036-2.694-5.751-4.552-8.146-1.86-2.393-4.136-4.29-6.828-5.697-2.656-1.442-5.843-2.163-9.559-2.165-4.059 0-7.681 0.837-10.867 2.506-3.186 1.634-5.957 4.083-8.307 7.349-2.315 3.153-4.097 7.083-5.349 11.792-1.252 4.71-1.878 9.969-1.878 15.78 0 5.127 0.606 9.969 1.821 14.526 1.252 4.52 3.053 8.431 5.405 11.735 2.35 3.381 5.29 6.039 8.819 7.975 3.528 1.938 7.528 2.906 12.006 2.906 3.337 0 6.371-0.513 9.104-1.538 2.768-1.026 4.721-2.108 5.86-3.247 0.302-1.974 0.453-3.968 0.455-5.981 0.037-2.012 0.055-3.72 0.057-5.127v-4.443c0-1.595-0.228-3-0.683-4.216-0.418-1.253-1.309-2.165-2.674-2.734-1.252-0.57-2.959-0.986-5.121-1.254-2.125-0.302-3.794-0.493-5.007-0.569v-4.158h35.391v4.158z" fill="#fab700" fill-rule="evenodd" stroke="#fab700" stroke-miterlimit="3.8637" stroke-width="1.6333"/><path id="path82" d="m1216.8 2018.8c3.565 3.723 6.353 8.223 8.364 13.501 2.009 5.241 3.014 11.051 3.016 17.432 0 6.419-1.024 12.248-3.073 17.489s-4.893 9.704-8.535 13.387c-3.528 3.646-7.624 6.457-12.29 8.431-4.666 1.975-9.636 2.96-14.907 2.962-5.615 0-10.81-1.044-15.59-3.133-4.742-2.125-8.819-5.068-12.233-8.83-3.414-3.683-6.108-8.145-8.08-13.387-1.934-5.278-2.902-10.918-2.902-16.919 0-6.569 1.024-12.417 3.073-17.546 2.048-5.164 4.874-9.625 8.478-13.387 3.565-3.721 7.699-6.569 12.404-8.545 4.74-1.975 9.69-2.96 14.85-2.962 5.348 0 10.393 1.008 15.135 3.019 4.741 2.014 8.837 4.842 12.29 8.488zm-8.477 57.308c2.123-3.456 3.659-7.367 4.609-11.735 0.985-4.367 1.477-9.247 1.479-14.641 0-5.544-0.551-10.633-1.65-15.267-1.063-4.632-2.637-8.583-4.723-11.849-2.087-3.228-4.705-5.733-7.852-7.52-3.149-1.823-6.753-2.734-10.811-2.734-4.552 0-8.421 1.045-11.607 3.133-3.186 2.09-5.786 4.881-7.795 8.374-1.897 3.343-3.32 7.254-4.267 11.735-0.91 4.482-1.366 9.191-1.366 14.128 0 5.469 0.492 10.407 1.479 14.812 0.985 4.406 2.541 8.317 4.666 11.735 2.048 3.343 4.626 5.963 7.738 7.861 3.11 1.862 6.826 2.792 11.152 2.792 4.057 0 7.719-0.949 10.981-2.849 3.262-1.897 5.916-4.555 7.967-7.975z" fill="#fab700" fill-rule="evenodd" stroke="#fab700" stroke-miterlimit="3.8637" stroke-width="1.6333"/><path id="path84" d="m1317.6 2050.1c0 6.875-1.291 12.836-3.869 17.887-2.58 5.052-5.937 9.191-10.071 12.419-4.173 3.229-8.858 5.64-14.054 7.234-5.197 1.595-10.565 2.393-16.102 2.393h-33.456v-4.044c1.099 0 2.521-0.094 4.267-0.285 1.781-0.228 2.957-0.474 3.528-0.741 1.138-0.493 1.952-1.214 2.447-2.164 0.53-0.986 0.795-2.163 0.796-3.532v-58.333c0-1.291-0.228-2.448-0.683-3.475-0.418-1.025-1.271-1.841-2.56-2.449-1.177-0.57-2.447-0.986-3.812-1.253-1.365-0.266-2.542-0.437-3.528-0.514v-4.044h35.277c4.854 0 9.633 0.76 14.338 2.278 4.703 1.481 8.799 3.495 12.29 6.039 4.74 3.38 8.458 7.804 11.152 13.273 2.691 5.468 4.038 11.905 4.04 19.311zm-13.941-0.057c0-5.43-0.722-10.329-2.162-14.697-1.442-4.404-3.547-8.24-6.316-11.507-2.617-3.114-5.843-5.563-9.672-7.349-3.794-1.784-8.022-2.675-12.688-2.677-1.556 0-3.319 0.039-5.291 0.114-1.934 0.039-3.376 0.077-4.324 0.114v62.15c0 3.457 1.005 5.85 3.016 7.178 2.009 1.33 5.101 1.994 9.274 1.994 4.817 0 9.027-0.854 12.631-2.563 3.603-1.709 6.524-4.082 8.762-7.121 2.351-3.19 4.058-6.873 5.121-11.052 1.098-4.216 1.648-9.076 1.649-14.584z" fill="#fab700" fill-rule="evenodd" stroke="#fab700" stroke-miterlimit="3.8637" stroke-width="1.6333"/><path id="path86" d="m1471.8 2013.2c-0.949 0.04-2.048 0.268-3.3 0.684-1.252 0.381-2.409 0.894-3.471 1.538-1.328 0.836-2.409 1.805-3.243 2.905-0.797 1.064-1.499 2.563-2.105 4.5-2.694 8.772-5.823 19.026-9.388 30.762-3.567 11.698-7.416 24.173-11.551 37.427h-5.234l-20.369-62.207-21.223 62.207h-5.007c-3.755-13.291-7.644-27.077-11.664-41.357-4.022-14.316-6.714-23.906-8.08-28.768-0.341-1.177-0.854-2.22-1.536-3.133-0.646-0.911-1.536-1.746-2.674-2.506-0.949-0.645-2.068-1.12-3.357-1.424-1.252-0.342-2.39-0.55-3.414-0.627v-4.044h32.944v4.044c-2.884 0.154-5.348 0.438-7.396 0.855-2.011 0.418-3.016 1.122-3.016 2.108 0 0.381 0.057 0.894 0.171 1.538 0.114 0.609 0.208 1.102 0.284 1.481 0.871 3.343 2.408 8.869 4.609 16.577 2.237 7.672 5.537 19.18 9.9 34.522l20.141-59.986h5.576l20.312 61.296c2.731-9.417 5.082-17.64 7.056-24.667 1.972-7.063 3.602-13.103 4.893-18.115 0.91-3.532 1.479-5.942 1.707-7.235 0.228-1.328 0.342-2.448 0.342-3.361 0-1.291-0.893-2.373-2.674-3.247-1.746-0.873-4.591-1.461-8.535-1.767v-4.044h29.302v4.044z" fill="#fab700" fill-rule="evenodd" stroke="#fab700" stroke-miterlimit="3.8637" stroke-width="1.6333"/><path id="path88" d="m1550.2 2066.2-1.536 23.812h-67.025v-4.044c1.138-0.075 2.655-0.226 4.552-0.456 1.896-0.266 3.127-0.531 3.698-0.798 1.213-0.569 2.047-1.311 2.504-2.222 0.492-0.911 0.738-2.068 0.74-3.475v-58.106c0-1.253-0.21-2.354-0.626-3.304-0.418-0.986-1.291-1.783-2.617-2.393-1.024-0.493-2.409-0.929-4.153-1.31-1.707-0.379-3.072-0.607-4.097-0.684v-4.044h62.474v19.482h-4.267c-0.76-2.886-2.409-5.942-4.95-9.172-2.504-3.265-4.893-5.05-7.169-5.354-1.177-0.151-2.58-0.266-4.211-0.342-1.632-0.075-3.49-0.112-5.576-0.114h-12.688v32.129h9.104c2.919 0 5.044-0.265 6.373-0.797 1.365-0.57 2.561-1.5 3.584-2.792 0.834-1.1 1.534-2.562 2.105-4.386 0.606-1.86 1.005-3.607 1.195-5.241h4.268v31.616h-4.268c-0.153-1.823-0.569-3.74-1.251-5.754-0.646-2.05-1.328-3.531-2.048-4.443-1.177-1.481-2.523-2.449-4.04-2.905-1.48-0.456-3.453-0.684-5.917-0.684h-9.104v24.268c0 2.432 0.171 4.35 0.512 5.754 0.342 1.406 1.005 2.469 1.991 3.19 0.985 0.723 2.331 1.196 4.04 1.424 1.707 0.19 4.134 0.285 7.283 0.285h4.95c2.048 0 3.773-0.075 5.177-0.228 1.44-0.151 2.919-0.417 4.438-0.798 1.554-0.417 2.655-0.966 3.3-1.652 1.744-1.823 3.565-4.575 5.462-8.26 1.935-3.721 3.167-6.455 3.698-8.203h4.095z" fill="#fab700" fill-rule="evenodd" stroke="#fab700" stroke-miterlimit="3.8637" stroke-width="1.6333"/><path id="path90" d="m1668.9 2031.1h-3.926c-0.341-1.367-0.967-2.98-1.877-4.842-0.873-1.898-1.86-3.684-2.959-5.355-1.138-1.747-2.389-3.265-3.755-4.557-1.329-1.328-2.618-2.088-3.869-2.279-1.177-0.151-2.657-0.265-4.438-0.341-1.783-0.075-3.434-0.112-4.95-0.114h-3.3v64.656c0 1.254 0.265 2.413 0.797 3.476 0.53 1.025 1.46 1.822 2.788 2.393 0.683 0.267 2.105 0.626 4.268 1.082 2.199 0.456 3.906 0.703 5.121 0.741v4.044h-38.122v-4.044c1.062-0.075 2.673-0.226 4.836-0.456 2.2-0.228 3.717-0.513 4.552-0.854 1.252-0.493 2.162-1.195 2.731-2.108 0.606-0.948 0.909-2.202 0.91-3.76v-65.169h-3.3c-1.177 0-2.637 0.039-4.381 0.114-1.746 0.039-3.414 0.152-5.007 0.341-1.252 0.153-2.561 0.912-3.926 2.279-1.328 1.33-2.56 2.848-3.698 4.557s-2.144 3.532-3.015 5.469c-0.873 1.899-1.479 3.475-1.821 4.728h-3.983v-21.932h70.325v21.931z" fill="#fab700" fill-rule="evenodd" stroke="#fab700" stroke-miterlimit="3.8637" stroke-width="1.6333"/><path id="path92" d="m1760.7 2090h-21.735c-4.818-7.557-9.18-14.088-13.086-19.596-3.869-5.506-8.08-11.183-12.631-17.033h-8.25v25.635c0 1.329 0.208 2.506 0.626 3.531 0.416 0.988 1.307 1.749 2.674 2.279 0.683 0.267 1.878 0.513 3.585 0.74 1.707 0.228 3.147 0.361 4.324 0.399v4.044h-34.139v-4.044c0.91-0.075 2.219-0.208 3.926-0.399 1.744-0.188 2.957-0.436 3.642-0.74 1.138-0.493 1.952-1.214 2.446-2.165 0.53-0.949 0.795-2.163 0.797-3.646v-58.448c0-1.328-0.19-2.505-0.569-3.532-0.381-1.025-1.271-1.804-2.674-2.336-0.95-0.342-2.182-0.645-3.698-0.911-1.519-0.303-2.808-0.493-3.869-0.57v-4.044h37.268c3.414 0 6.618 0.361 9.616 1.082 2.996 0.684 5.707 1.806 8.136 3.361 2.351 1.521 4.228 3.514 5.633 5.981 1.403 2.432 2.104 5.374 2.105 8.83 0 3.116-0.475 5.868-1.422 8.26-0.949 2.393-2.352 4.463-4.21 6.209-1.707 1.635-3.755 3.059-6.145 4.272-2.389 1.179-5.026 2.185-7.908 3.02 3.982 5.28 7.282 9.724 9.9 13.33 2.655 3.608 5.897 7.995 9.729 13.159 1.668 2.278 3.167 3.97 4.495 5.07 1.366 1.064 2.712 1.937 4.04 2.62 0.985 0.495 2.217 0.874 3.698 1.14 1.479 0.267 2.711 0.418 3.698 0.456v4.046zm-29.928-60.271c0-4.899-1.404-8.772-4.21-11.621-2.808-2.886-6.771-4.327-11.892-4.329h-9.672v34.692h7.454c5.235 0 9.596-1.67 13.086-5.013 3.487-3.378 5.232-7.955 5.234-13.729z" fill="#fab700" fill-rule="evenodd" stroke="#fab700" stroke-miterlimit="3.8637" stroke-width="1.6333"/><path id="path94" d="m1845.1 2013.2c-1.063 0.04-2.617 0.268-4.666 0.684-2.048 0.418-3.718 1.045-5.007 1.88-1.291 0.875-2.182 2.677-2.674 5.412-0.494 2.734-0.74 6.078-0.74 10.026v35.148c0 4.482-0.93 8.374-2.788 11.678-1.86 3.304-4.306 6.021-7.34 8.146-2.998 2.05-6.164 3.514-9.502 4.386-3.3 0.911-6.469 1.367-9.502 1.367-4.856 0-9.18-0.646-12.973-1.937-3.794-1.253-6.981-2.962-9.559-5.127-2.542-2.165-4.458-4.632-5.747-7.406-1.291-2.809-1.935-5.734-1.935-8.773v-47.794c0-1.328-0.227-2.43-0.683-3.304-0.418-0.911-1.291-1.746-2.617-2.506-0.949-0.531-2.162-0.949-3.642-1.253-1.479-0.342-2.694-0.55-3.642-0.627v-4.044h33.627v4.044c-1.063 0.04-2.409 0.211-4.04 0.514-1.593 0.304-2.77 0.589-3.528 0.854-1.291 0.456-2.162 1.216-2.617 2.279-0.418 1.064-0.626 2.222-0.626 3.475v44.662c0 2.165 0.228 4.443 0.683 6.836 0.493 2.355 1.44 4.557 2.845 6.607 1.479 2.09 3.489 3.799 6.031 5.127 2.541 1.33 6.029 1.994 10.469 1.994 4.171 0 7.662-0.664 10.469-1.994 2.845-1.328 5.082-3.074 6.714-5.24 1.554-2.051 2.655-4.196 3.3-6.438 0.644-2.239 0.966-4.499 0.967-6.779v-33.155c0-4.215-0.304-7.651-0.91-10.311-0.608-2.695-1.499-4.461-2.674-5.298-1.328-0.949-3.149-1.689-5.462-2.222-2.276-0.531-4.022-0.835-5.235-0.912v-4.044h33.001v4.045z" fill="#fab700" fill-rule="evenodd" stroke="#fab700" stroke-miterlimit="3.8637" stroke-width="1.6333"/><path id="path96" d="m1905 2052.9c1.707 1.899 2.959 3.988 3.755 6.267 0.834 2.241 1.25 4.861 1.252 7.861 0 7.14-2.637 13.027-7.909 17.659-5.273 4.634-11.817 6.948-19.629 6.95-3.604 0-7.208-0.552-10.811-1.652-3.604-1.14-6.714-2.507-9.331-4.102l-2.447 4.159h-4.552l-0.797-27.686h4.609c0.948 3.418 2.046 6.514 3.3 9.286 1.289 2.734 2.976 5.298 5.064 7.69 1.972 2.241 4.265 4.026 6.885 5.354 2.655 1.33 5.727 1.994 9.218 1.994 2.617 0 4.893-0.342 6.827-1.025 1.972-0.684 3.565-1.652 4.78-2.905 1.212-1.253 2.104-2.715 2.674-4.387 0.606-1.709 0.908-3.664 0.91-5.868 0-3.227-0.91-6.227-2.731-9-1.821-2.809-4.534-4.937-8.136-6.38-2.466-0.986-5.292-2.069-8.478-3.247-3.186-1.215-5.937-2.354-8.25-3.418-4.552-2.05-8.099-4.728-10.64-8.032-2.503-3.341-3.755-7.689-3.755-13.045 0-3.076 0.626-5.942 1.878-8.602 1.252-2.658 3.033-5.031 5.348-7.121 2.199-1.974 4.797-3.512 7.795-4.614 2.996-1.139 6.125-1.709 9.388-1.709 3.716 0 7.036 0.57 9.957 1.709 2.959 1.14 5.651 2.469 8.079 3.988l2.333-3.874h4.552l0.455 26.831h-4.609c-0.836-3.076-1.783-6.019-2.845-8.83-1.024-2.809-2.372-5.353-4.04-7.633-1.632-2.202-3.624-3.949-5.974-5.241-2.353-1.328-5.235-1.992-8.648-1.994-3.604 0-6.677 1.159-9.218 3.475-2.542 2.318-3.812 5.146-3.812 8.488 0 3.495 0.814 6.4 2.447 8.716 1.631 2.279 4.001 4.159 7.112 5.64 2.769 1.33 5.48 2.489 8.137 3.475 2.692 0.951 5.29 1.976 7.795 3.077 2.276 0.987 4.456 2.107 6.543 3.36 2.123 1.253 3.964 2.716 5.519 4.386z" fill="#fab700" fill-rule="evenodd" stroke="#fab700" stroke-miterlimit="3.8637" stroke-width="1.6333"/><path id="path98" d="m1992.4 2031.1h-3.926c-0.341-1.367-0.967-2.98-1.877-4.842-0.873-1.898-1.86-3.684-2.959-5.355-1.138-1.747-2.39-3.265-3.755-4.557-1.328-1.328-2.617-2.088-3.869-2.279-1.177-0.151-2.656-0.265-4.438-0.341-1.783-0.075-3.433-0.112-4.95-0.114h-3.3v64.656c0 1.254 0.265 2.413 0.796 3.476 0.53 1.025 1.46 1.822 2.788 2.393 0.683 0.267 2.105 0.626 4.267 1.082 2.199 0.456 3.906 0.703 5.121 0.741v4.044h-38.122v-4.044c1.062-0.075 2.672-0.226 4.836-0.456 2.199-0.228 3.716-0.513 4.552-0.854 1.251-0.493 2.162-1.195 2.731-2.108 0.606-0.948 0.909-2.202 0.911-3.76v-65.169h-3.3c-1.177 0-2.637 0.039-4.381 0.114-1.746 0.039-3.414 0.152-5.007 0.341-1.251 0.153-2.56 0.912-3.926 2.279-1.328 1.33-2.56 2.848-3.698 4.557s-2.145 3.532-3.016 5.469c-0.873 1.899-1.479 3.475-1.821 4.728h-3.983v-21.932h70.326v21.931z" fill="#fab700" fill-rule="evenodd" stroke="#fab700" stroke-miterlimit="3.8637" stroke-width="1.6333"/><path id="path106" d="m1442.9 1066.2c0.164-0.066 0.257-0.094 0.263-0.092 0.064-0.025 10.041 3.569 10.126 19.197 8.829-1.654 12.393 3.009 10.691 13.987 0 0-10.482-2.834-12.193 3.143-2.57 6.91-0.61 12.539 5.879 16.888 0 0 10.9 8.638 17.759-7.735s9.328-21.942 9.328-21.942c1.908-6.032 13.265-20.168 23.578-22.149 3.929-1.575 7.69-1.264 11.886-0.261 0 0 9.024 1.953 9.28 9.494 0.257 7.54-2.822 10.822-7.911 13.01-5.626 2.419-12.573-2.773-12.573-2.773-2.422-0.453-3.195 0.385-4.683 1.417-0.685 0.475-3.541 3.61-5.196 7.139 0 0-5.009 10.588-7.398 18.675-1.882 6.368-6.03 25.629-25.531 28.52h-46.022c-19.501-2.891-23.649-22.152-25.531-28.52-2.39-8.087-7.398-18.675-7.398-18.675-1.655-3.529-4.511-6.664-5.196-7.139-1.487-1.031-2.261-1.869-4.683-1.417 0 0-6.948 5.192-12.574 2.773-5.089-2.188-8.168-5.469-7.911-13.01s9.281-9.494 9.281-9.494c4.196-1.002 7.957-1.314 11.886 0.261 10.313 1.981 21.67 16.117 23.577 22.149 0 0 2.469 5.569 9.328 21.942 6.858 16.373 17.759 7.735 17.759 7.735 6.489-4.349 8.448-9.979 5.879-16.888-1.71-5.978-12.193-3.143-12.193-3.143-1.701-10.978 1.862-15.64 10.691-13.987 0.085-15.628 10.062-19.222 10.127-19.197 0.01 0 0.099 0.026 0.263 0.092h-0.588z" fill="#fab700" stroke-miterlimit="3.8637" stroke-width="0"/><polygon id="polygon108" transform="translate(0 -1120.5)" points="1401.9 2277.7 1487.5 2277.7 1500.2 2712.4 1388.7 2712.4 1388.7 2712.4" fill="#fab700" fill-rule="evenodd" stroke="#002577" stroke-miterlimit="3.8637" stroke-width="8.4891"/><polygon id="polygon110" transform="translate(0 -1120.5)" points="1381.4 2756.7 1499.7 2756.7 1499.7 2954.1 1381.4 2954.1 1381.4 2954.1" fill="#fab700" fill-rule="evenodd" stroke="#002577" stroke-miterlimit="3.8637" stroke-width="8.4891"/><path id="path114" d="m1379.4 1613.8h119.93c8.354 0 15.125 5.091 15.125 11.372s-6.772 11.372-15.125 11.372h-119.93c-8.354 0-15.125-5.091-15.125-11.372s6.771-11.372 15.125-11.372z" fill="#fab700" stroke="#002577" stroke-miterlimit="3.8637" stroke-width="8.4891"/><path id="path118" d="m1388.3 1592.4h104.69c7.438 0 13.468 4.776 13.468 10.668s-6.03 10.668-13.468 10.668h-104.69c-7.438 0-13.468-4.776-13.468-10.668s6.03-10.668 13.468-10.668z" fill="#fab700" fill-rule="evenodd" stroke="#002577" stroke-miterlimit="3.8637" stroke-width="8.4891"/><rect id="rect120" x="1408.1" y="1673.3" width="63.204" height="130.14" fill="none" stroke="#002577" stroke-miterlimit="3.8637" stroke-width="8.4891"/><path id="path124" d="m1406.8 1142.1h72.604c5.967 0 10.804 3.515 10.804 7.852 0 4.336-4.837 7.851-10.804 7.851h-72.604c-5.967 0-10.804-3.515-10.804-7.851 1e-3 -4.336 4.838-7.852 10.804-7.852z" fill="#fab700" stroke="#002577" stroke-miterlimit="3.8637" stroke-width="4.8999"/><rect id="rect128" x="847.72" y="1857.3" width="1205.7" height="40.657" fill="#fab700" fill-rule="evenodd" stroke="#002577" stroke-miterlimit="3.8637" stroke-width="10"/><rect id="rect132" x="796.28" y="1897.6" width="1309.5" height="43.049" fill="#fab700" stroke="#002577" stroke-miterlimit="3.8637" stroke-width="6.0001"/><rect id="rect136" x="883.37" y="974.46" width="1125.8" height="24.908" fill="#fab700" fill-rule="evenodd" stroke="#002577" stroke-miterlimit="3.8637" stroke-width="9.5504"/><path id="path138" d="m1797.1 973.7c-58.327-139.73-193.7-237.36-351.38-237.36-157.59 0-292.89 97.769-351.27 237.36h-139.94c64.724-214.77 260.38-372.22 491.21-372.22 230.98 0 426.76 157.16 491.41 372.15l-140.04 0.069z" fill="#fab700" fill-rule="evenodd" stroke="#002577" stroke-linejoin="round" stroke-miterlimit="3.8637" stroke-width="4.8999"/><path id="path140" d="m913.62 999.68s19.459 11.64 35.665 46.297l1001.5-0.04s16.471-38.751 39.159-46.332l-1076.4 0.075z" fill="#fab700" fill-rule="evenodd" stroke="#002577" stroke-miterlimit="3.8637" stroke-width="6.0001"/><path id="path144" d="m1162.1 1055s92.78 159.23 281.45 157.04c186.37-2.166 281.45-151.62 281.45-151.62l49.699 73.646s18.367 24.909-17.286 56.317c-125.96 110.96-225.73 132.76-313.86 132.13-130.16-7.123-235.14-51.168-314.94-132.13-14.354-11.935-17.287-27.617-12.965-40.614l46.457-94.764z" fill="#fab700" fill-rule="evenodd" stroke="#002577" stroke-linejoin="round" stroke-miterlimit="3.8637" stroke-width="4.8999"/><path id="path146" d="m1113.7 1166.3s-5.672-32.219 45.107-6.226l3.781-104.51" fill="none" stroke="#002577" stroke-miterlimit="3.8637" stroke-width="6.3669"/><path id="path148" d="m1778.2 1144.3c-16.206-34.927-45.918 7.851-45.918 7.851l-7.481-91.244" fill="none" stroke="#002577" stroke-miterlimit="3.8637" stroke-width="6.3669"/><path id="path152" d="m943.87 1047.9h1006.9c3.58 0 6.482 3.027 6.482 6.761v2.252c0 3.734-2.902 6.761-6.482 6.761h-1006.9c-3.58 0-6.482-3.027-6.482-6.761v-2.252c-1e-3 -3.734 2.902-6.761 6.482-6.761z" fill="#fab700" stroke="#002577" stroke-miterlimit="3.8637" stroke-width="5"/><path id="path162" d="m1032.9 1064.9c0.164-0.066 0.257-0.094 0.263-0.092 0.065-0.025 10.041 3.569 10.126 19.197 8.829-1.654 12.393 3.009 10.692 13.987 0 0-10.482-2.834-12.193 3.143-2.57 6.91-0.61 12.539 5.879 16.888 0 0 10.9 8.638 17.759-7.735s9.328-21.942 9.328-21.942c1.907-6.032 13.264-20.168 23.578-22.149 3.929-1.575 7.69-1.264 11.886-0.261 0 0 9.024 1.953 9.28 9.494s-2.823 10.822-7.911 13.01c-5.626 2.419-12.573-2.773-12.573-2.773-2.422-0.453-3.196 0.385-4.683 1.417-0.685 0.475-3.541 3.61-5.196 7.139 0 0-5.009 10.588-7.398 18.675-1.882 6.368-6.03 25.629-25.531 28.52h-46.022c-19.501-2.891-23.649-22.152-25.531-28.52-2.389-8.087-7.398-18.675-7.398-18.675-1.655-3.529-4.511-6.664-5.196-7.139-1.487-1.031-2.261-1.869-4.683-1.417 0 0-6.948 5.192-12.573 2.773-5.089-2.188-8.168-5.469-7.912-13.01 0.257-7.54 9.281-9.494 9.281-9.494 4.196-1.002 7.957-1.314 11.886 0.261 10.313 1.981 21.67 16.117 23.577 22.149 0 0 2.469 5.569 9.328 21.942s17.759 7.735 17.759 7.735c6.489-4.349 8.448-9.979 5.879-16.888-1.711-5.978-12.193-3.143-12.193-3.143-1.701-10.978 1.863-15.64 10.691-13.987 0.086-15.628 10.062-19.222 10.127-19.197 0.01 0 0.099 0.026 0.263 0.092h-0.589z" fill="#fab700" stroke-miterlimit="3.8637" stroke-width="0"/><polygon id="polygon164" transform="translate(0 -1120.5)" points="992.28 2277.7 1074.6 2277.7 1088.9 2712.4 977.46 2712.4 977.46 2712.4" fill="#fab700" fill-rule="evenodd" stroke="#002577" stroke-miterlimit="3.8637" stroke-width="8.4891"/><polygon id="polygon166" transform="translate(0 -1120.5)" points="974.02 2756.7 1092.3 2756.7 1092.3 2954.1 974.02 2954.1 974.02 2954.1" fill="#fab700" fill-rule="evenodd" stroke="#002577" stroke-miterlimit="3.8637" stroke-width="8.4891"/><path id="path168" d="m973.2 1613.8h119.93c8.354 0 15.125 5.091 15.125 11.372s-6.772 11.372-15.125 11.372h-119.93c-8.353 0-15.125-5.091-15.125-11.372-1e-3 -6.281 6.771-11.372 15.125-11.372z" fill="#fab700" fill-rule="evenodd" stroke="#002577" stroke-miterlimit="3.8637" stroke-width="8.4891"/><path id="path170" d="m980.82 1592.4h104.69c7.438 0 13.468 4.776 13.468 10.668s-6.03 10.668-13.468 10.668h-104.69c-7.438 0-13.468-4.776-13.468-10.668s6.03-10.668 13.468-10.668z" fill="#fab700" fill-rule="evenodd" stroke="#002577" stroke-miterlimit="3.8637" stroke-width="8.4891"/><rect id="rect172" x="1001.6" y="1673.3" width="63.204" height="130.14" fill="none" stroke="#002577" stroke-miterlimit="3.8637" stroke-width="8.4891"/><path id="path176" d="m996.87 1143.8h72.604c5.967 0 10.804 3.515 10.804 7.852 0 4.336-4.837 7.852-10.804 7.852h-72.604c-5.967 0-10.804-3.515-10.804-7.852 0-4.336 4.837-7.852 10.804-7.852z" fill="#fab700" stroke="#002577" stroke-miterlimit="3.8637" stroke-width="4.8999"/><rect id="rect180" x="948.9" y="1834.2" width="168.54" height="22.744" fill="#fab700" fill-rule="evenodd" stroke="#002577" stroke-miterlimit="3.8637" stroke-width="4.0833"/><path id="path188" d="m1859 1066.2c0.164-0.066 0.257-0.094 0.263-0.092 0.065-0.025 10.042 3.569 10.127 19.197 8.829-1.654 12.393 3.009 10.691 13.987 0 0-10.482-2.834-12.193 3.143-2.57 6.91-0.61 12.539 5.879 16.888 0 0 10.9 8.638 17.759-7.735s9.328-21.942 9.328-21.942c1.908-6.032 13.264-20.168 23.578-22.149 3.929-1.575 7.69-1.264 11.886-0.261 0 0 9.024 1.953 9.28 9.494 0.257 7.54-2.822 10.822-7.912 13.01-5.625 2.419-12.573-2.773-12.573-2.773-2.422-0.453-3.195 0.385-4.683 1.417-0.685 0.475-3.541 3.61-5.196 7.139 0 0-5.009 10.588-7.398 18.675-1.882 6.368-6.03 25.629-25.531 28.52h-46.022c-19.501-2.891-23.649-22.152-25.531-28.52-2.39-8.087-7.399-18.675-7.399-18.675-1.655-3.529-4.51-6.664-5.196-7.139-1.487-1.031-2.261-1.869-4.683-1.417 0 0-6.948 5.192-12.574 2.773-5.089-2.188-8.168-5.469-7.911-13.01s9.281-9.494 9.281-9.494c4.196-1.002 7.957-1.314 11.886 0.261 10.313 1.981 21.67 16.117 23.578 22.149 0 0 2.469 5.569 9.328 21.942 6.858 16.373 17.759 7.735 17.759 7.735 6.488-4.349 8.448-9.979 5.878-16.888-1.71-5.978-12.193-3.143-12.193-3.143-1.701-10.978 1.862-15.64 10.691-13.987 0.085-15.628 10.062-19.222 10.126-19.197 0.01 0 0.099 0.026 0.263 0.092h-0.586z" fill="#fab700" stroke-miterlimit="3.8637" stroke-width="0"/><polygon id="polygon190" transform="translate(0 -1120.5)" points="1820.5 2277.7 1902.8 2277.7 1917.1 2712.4 1805.7 2712.4 1805.7 2712.4" fill="#fab700" fill-rule="evenodd" stroke="#002577" stroke-miterlimit="3.8637" stroke-width="8.4891"/><polygon id="polygon192" transform="translate(0 -1120.5)" points="1803.7 2756.7 1923.3 2756.7 1923.3 2954.1 1804.9 2954.1 1804.9 2954.1" fill="#fab700" fill-rule="evenodd" stroke="#002577" stroke-miterlimit="3.8637" stroke-width="8.4891"/><path id="path196" d="m1803.9 1613.8h119.93c8.354 0 15.125 5.091 15.125 11.372s-6.772 11.372-15.125 11.372h-119.93c-8.354 0-15.125-5.091-15.125-11.372s6.771-11.372 15.125-11.372z" fill="#fab700" stroke="#002577" stroke-miterlimit="3.8637" stroke-width="8.4891"/><path id="path200" d="m1809.9 1592.4h104.69c7.438 0 13.468 4.776 13.468 10.668s-6.03 10.668-13.468 10.668h-104.69c-7.438 0-13.468-4.776-13.468-10.668s6.029-10.668 13.468-10.668z" fill="#fab700" fill-rule="evenodd" stroke="#002577" stroke-miterlimit="3.8637" stroke-width="8.4891"/><rect id="rect202" x="1831.4" y="1673.3" width="63.204" height="130.14" fill="none" stroke="#002577" stroke-miterlimit="3.8637" stroke-width="8.4891"/><path id="path206" d="m1824.5 1142.1h72.604c5.967 0 10.804 3.515 10.804 7.852 0 4.336-4.837 7.851-10.804 7.851h-72.604c-5.967 0-10.804-3.515-10.804-7.851s4.837-7.852 10.804-7.852z" fill="#fab700" stroke="#002577" stroke-miterlimit="3.8637" stroke-width="4.8999"/><rect id="rect210" x="1353.5" y="1834.2" width="168.54" height="22.744" fill="#fab700" fill-rule="evenodd" stroke="#002577" stroke-miterlimit="3.8637" stroke-width="4.0833"/><path id="path212" d="m727.79 1526c-28.631-20.578-58.882-15.162-58.882-15.162s21.861-29.11 56.721-14.621c22.148 9.206 41.056 43.321 97.237 7.581s77.986-53.798 127.49-70.397c50.861-17.054 90.754-20.577 102.64-24.909 11.884-4.332 30.48-11.121 39.975-68.231 2.161-12.997 54.02 108.3 54.02 108.3s-7.563 40.072-57.262 62.816-135.81 36.349-183.67 74.729c-16.206 12.996-47.347 35.467-66.175 63.087-44.297 64.981-90.484 72.292-90.484 72.292s41.88-36.678 53.48-86.101c2.161-9.206-1.371-50.612 15.126-67.148-17.517 17.56-61.868-17.038-56.181-12.455 0-1e-3 -5.402-9.207-34.033-29.784z" fill="#fab700" fill-rule="evenodd" stroke="#002577" stroke-miterlimit="3.8637" stroke-width="7.428"/><path id="path214" d="m1800.1 1341.3s8.643 49.278 105.34 74.188 111.82 56.318 127.49 63.899 56.371 36.771 99.938 22.202c17.164-5.74 65.126-18.954 69.041-16.017 1.468 2.447-13.703 27.896-15.561 30.097-32.083 38.016-44.297 43.863-56.181 49.819-25.956 13.01-27.962 14.589-46.457 15.704 0 0 17.286 21.661 19.987 56.859s49.699 70.938 49.699 70.938-62.664-16.245-90.214-53.61c-27.551-37.365-72.927-69.314-89.674-77.437-16.746-8.123-102.1-37.365-119.92-44.404-17.827-7.04-73.468-36.281-81.031-83.393-7.565-47.112 27.549-108.84 27.549-108.84z" fill="#fab700" fill-rule="evenodd" stroke="#002577" stroke-miterlimit="3.8637" stroke-width="7.428"/><path id="path216" d="m883.31 1379.2c-65.635-25.722-45.367-43.083-45.367-43.083 16.15-28.875 37.307-65.144 117.28-95.913 106.96-41.155 216.08-22.743 186.91 24.91-17.734 28.969-48.348 79.603-48.348 79.603s-12.695-34.115-71.037-12.455c-58.342 21.661-76.352 30.839-79.813 42.288-5.402 17.87-3.241 29.242 38.895 22.744-27.551 9.206-58.244-0.399-92.704-15.732l-5.814-2.362z" fill="#fab700" stroke="#002577" stroke-miterlimit="3.8637" stroke-width="7.428"/><path id="path218" d="m1883.6 1330.6c12.13 3.125 32.835 13.174 45.04 21.939 59.464 42.705 48.516 79.96 32.031 80.933-18.367 1.083 116.59-2.691 132.8-11.355s21.608-18.412 11.885-38.989-83.191-146.21-203.12-170.04c-119.93-23.826-167.45 26.739-157.2 43.863 9.723 16.245 54.02 70.396 55.64 92.598 12.301-23.234 39.972-29.853 82.921-18.953z" fill="#fab700" stroke="#002577" stroke-linejoin="round" stroke-miterlimit="3.8637" stroke-width="6.3671"/><polygon id="polygon222" transform="translate(0 -1120.5)" points="1844.3 2360 1853.1 2358.5 1863.6 2421.5 1863.6 2421.5 1851.3 2423.6 1845.3 2387.4 1833 2426.6 1826.1 2427.8 1802.9 2394.5 1809 2430.7 1799.7 2432.2 1789.2 2369.3 1799.1 2367.6 1829.2 2409.7" fill="#002577" fill-rule="evenodd"/><path id="path224" d="m1921.6 1283.2c-2.002 9.865-5.758 16.942-11.262 21.229-5.501 4.26-11.903 5.643-19.209 4.154-7.227-1.474-12.555-5.251-15.984-11.332-3.423-6.108-4.147-14.025-2.173-23.753l0.724-3.565c1.84-9.063 5.422-16.03 10.746-20.902 5.35-4.865 12.058-6.476 20.124-4.831 7.881 1.608 13.249 5.724 16.104 12.35 2.88 6.631 3.417 14.396 1.612 23.293l-0.682 3.357zm-13.264-3.569 0.345-1.699c1.565-7.71 2.097-13.558 1.598-17.545-0.5-3.987-3.119-6.464-7.858-7.43-4.373-0.892-7.616 0.173-9.729 3.195-2.087 3.028-3.997 8.811-5.73 17.35l-0.312 1.534c-1.745 8.594-2.302 14.625-1.668 18.092 0.632 3.468 3.278 5.676 7.94 6.627 3.822 0.78 6.936-0.384 9.339-3.491 2.428-3.102 4.454-8.646 6.075-16.633z" fill="#002577" fill-rule="evenodd"/><path id="path226" d="m1972.8 1310.8c-4.927 9.096-10.3 14.916-16.116 17.46-5.796 2.558-12.038 2.015-18.731-1.628l-19.48-10.604 30.384-56.097 17.472 9.511c7.984 4.346 12.382 9.869 13.193 16.569 0.848 6.688-0.983 14.194-5.494 22.522l-1.228 2.267zm-11.846-6.93 0.826-1.524c3.329-6.146 4.862-11.393 4.602-15.739-0.262-4.345-2.131-7.464-5.605-9.357l-4.474-2.435-21.323 39.368 5.495 2.991c3.405 1.854 6.669 1.946 9.793 0.277 3.137-1.693 6.698-6.22 10.686-13.581z" fill="#002577" fill-rule="evenodd"/><polygon id="polygon228" transform="translate(0 -1120.5)" points="1993.9 2483.3 1987.2 2490.1 1987.2 2490.1 1959.8 2463.1 2004.4 2417.6 2030.7 2443.4 2024 2450.2 2007.5 2433.9 1995.5 2446.1 2008.4 2458.8 2001.6 2465.7 1988.8 2453 1976.2 2465.9" fill="#002577" fill-rule="evenodd"/><path id="path230" d="m2013.9 1414.4-6.835-11.635c8.792-5.317 14.631-9.853 17.519-13.61 2.923-3.748 3.422-7.26 1.497-10.539l-1.628-2.77-24.651 14.556-6.917-11.773 54.864-32.398 12.084 20.568c2.943 5.009 3.884 9.225 2.827 12.649-1.045 3.446-3.228 6.149-6.547 8.111l-2.982 1.76c-3.127 1.846-6.171 2.416-9.133 1.709-2.962-0.708-5.685-2.784-8.166-6.231 1.129 4.867 0.079 9.638-3.149 14.312-3.19 4.684-9.451 9.781-18.783 15.291zm31.291-36.014 1.49-0.88c2.375-1.402 3.718-3.004 4.032-4.806 0.313-1.802-0.222-3.88-1.606-6.234l-2.258-3.844-14.507 8.567 1.871 3.186c1.641 2.793 3.346 4.475 5.119 5.046 1.772 0.569 3.724 0.224 5.859-1.035z" fill="#002577" fill-rule="evenodd"/><path id="path234" d="m1841.6 1493.2-11.285-8.22 5.378-15.01-16.149-11.763-12.675 9.696-8.983-6.543 53.898-39.643 10.28 7.488-20.464 63.995zm-2.834-32.392 7.733-23.387-19.407 14.884 11.674 8.503z" fill="#002577" fill-rule="evenodd"/><polygon id="polygon236" transform="translate(0 -1120.5)" points="1876.9 2630.2 1864.7 2624.2 1888.4 2575.4 1876.3 2569.4 1880.5 2560.9 1916.6 2578.6 1912.5 2587.1 1912.5 2587.1 1900.7 2581.3" fill="#002577" fill-rule="evenodd"/><polygon id="polygon238" transform="translate(0 -1120.5)" points="1904.3 2641.8 1929.2 2583 1941.7 2588.4 1916.8 2647.1 1916.8 2647.1" fill="#002577" fill-rule="evenodd"/><path id="path240" d="m1990 1526.3c-4.085 9.198-9.279 15.292-15.579 18.282-6.291 2.966-12.839 2.927-19.651-0.113-6.738-3.008-11.124-7.851-13.159-14.533-2.024-6.706-1.022-14.594 3.005-23.663l1.476-3.323c3.752-8.45 8.753-14.474 15.004-18.076 6.274-3.59 13.171-3.706 20.69-0.35 7.348 3.28 11.7 8.464 13.057 15.553 1.38 7.099 0.229 14.797-3.454 23.092l-1.389 3.131zm-12.181-6.363 0.704-1.584c3.192-7.188 4.975-12.782 5.348-16.783s-1.651-6.988-6.069-8.96c-4.077-1.82-7.474-1.484-10.189 1.009-2.691 2.503-5.805 7.735-9.34 15.696l-0.635 1.43c-3.559 8.013-5.404 13.78-5.534 17.302-0.132 3.523 1.975 6.253 6.322 8.193 3.563 1.591 6.854 1.131 9.872-1.381 3.041-2.502 6.215-7.475 9.521-14.922z" fill="#002577" fill-rule="evenodd"/><polygon id="polygon242" transform="translate(0 -1120.5)" points="2027.9 2701 2022.9 2698.1 2016.6 2648.2 1996.6 2682.9 1988.2 2678.1 2020.1 2622.8 2026.4 2626.4 2032.5 2673.6 2051.4 2640.9 2059.8 2645.8" fill="#002577" fill-rule="evenodd"/><polygon id="polygon246" transform="translate(0 -1120.5)" points="959.8 2425.9 947.47 2386.2 956.92 2380.5 956.92 2380.5 975.35 2443.8 966.9 2448.9 934.65 2419.8 944.88 2462.2 936.42 2467.3 889.3 2421.2 901.12 2414.1 930.9 2443.3 920.4 2402.5 928.68 2397.5" fill="#002577" fill-rule="evenodd"/><polygon id="polygon248" transform="translate(0 -1120.5)" points="997.61 2436.9 978.99 2375.8 992.03 2371.8 1010.6 2432.9 1010.6 2432.9" fill="#002577" fill-rule="evenodd"/><path id="path250" d="m1065.2 1283.9c0.94 6.703-0.483 11.958-4.266 15.766-3.789 3.781-9.453 6.202-16.995 7.264-4.314 0.608-7.99 0.854-11.028 0.742-3.039-0.113-5.58-0.438-7.625-0.976l-1.527-10.892c1.646 0.765 4.141 1.339 7.487 1.722 3.341 0.355 6.573 0.313 9.697-0.128 4.393-0.618 7.323-1.657 8.792-3.118 1.495-1.463 2.043-3.619 1.643-6.469-0.258-1.843-1.083-3.393-2.473-4.649-1.391-1.257-5.043-2.664-10.955-4.224-4.712-1.272-8.492-3.202-11.337-5.793-2.85-2.616-4.631-6.467-5.343-11.55-0.681-4.859 0.701-9.24 4.148-13.143 3.472-3.907 8.676-6.348 15.61-7.326 3.36-0.473 6.418-0.605 9.174-0.395 2.778 0.179 4.74 0.415 5.888 0.708l1.351 9.635c-2.359-0.266-4.693-0.463-7.005-0.594-2.313-0.129-4.738-0.015-7.279 0.342-3.6 0.507-6.11 1.459-7.534 2.855-1.423 1.397-2.012 2.975-1.765 4.734 0.313 2.235 1.146 3.841 2.497 4.817 1.352 0.978 5.082 2.176 11.19 3.592 5.688 1.307 9.893 3.391 12.616 6.253 2.744 2.835 4.424 6.443 5.039 10.827z" fill="#002577" fill-rule="evenodd"/><path id="path254" d="m1262.3 1240.5c-1.954 3.845-4.823 6.479-8.605 7.902-3.747 1.41-8.083 0.856-13.013-1.661-2.882-1.472-5.101-2.86-6.658-4.161-1.535-1.29-2.689-2.559-3.462-3.81l4.425-8.707c0.724 0.877 1.752 1.892 3.085 3.048 1.368 1.143 2.827 2.109 4.375 2.9 1.476 0.754 2.966 0.978 4.473 0.671 1.506-0.307 2.77-1.466 3.792-3.476l21.649-42.594 12.144 6.203-22.205 43.685z" fill="#002577" fill-rule="evenodd"/><path id="path256" d="m1331.5 1266c-2.148 5.608-5.468 9.377-9.955 11.306-4.479 1.902-10.149 1.534-17.008-1.105-7.36-2.831-11.997-6.563-13.914-11.198s-1.595-10.295 0.967-16.983l15.356-40.087 12.723 4.894-15.977 41.707c-1.24 3.239-1.489 5.938-0.741 8.098 0.781 2.144 2.881 3.873 6.299 5.188 3.168 1.219 5.79 1.397 7.867 0.534 2.101-0.853 3.867-3.149 5.301-6.888l15.886-41.47 9.43 3.627-16.234 42.377z" fill="#002577" fill-rule="evenodd"/><path id="path258" d="m1398.8 1279.8c-0.823 6.718-3.554 11.425-8.191 14.122-4.636 2.668-10.732 3.538-18.292 2.607-4.324-0.532-7.938-1.248-10.844-2.145s-5.277-1.871-7.114-2.922l1.337-10.917c1.392 1.166 3.654 2.368 6.787 3.606 3.136 1.21 6.269 2.008 9.4 2.393 4.403 0.542 7.502 0.299 9.298-0.731 1.822-1.025 2.907-2.965 3.258-5.822 0.226-1.848-0.17-3.559-1.189-5.133s-4.183-3.882-9.491-6.922c-4.223-2.451-7.375-5.296-9.455-8.537-2.077-3.267-2.804-7.448-2.18-12.543 0.597-4.871 3.063-8.744 7.4-11.619 4.363-2.873 10.019-3.881 16.97-3.026 3.368 0.415 6.356 1.081 8.963 1.999 2.637 0.893 4.471 1.631 5.504 2.212l-1.183 9.657c-2.209-0.868-4.414-1.665-6.613-2.391-2.2-0.725-4.573-1.243-7.119-1.558-3.608-0.444-6.279-0.176-8.014 0.803-1.735 0.98-2.711 2.352-2.927 4.115-0.274 2.24 0.115 4.007 1.168 5.301 1.053 1.295 4.347 3.42 9.881 6.374 5.157 2.738 8.681 5.842 10.572 9.314 1.921 3.447 2.612 7.368 2.074 11.763z" fill="#002577" fill-rule="evenodd"/><polygon id="polygon260" transform="translate(0 -1120.5)" points="1447.5 2422.6 1433.9 2422.4 1434.8 2368.1 1421.4 2367.9 1421.5 2358.3 1461.8 2359 1461.6 2368.6 1461.6 2368.6 1448.5 2368.3" fill="#002577" fill-rule="evenodd"/><polygon id="polygon262" transform="translate(0 -1120.5)" points="1493 2420.5 1485.3 2357.2 1498.8 2355.5 1506.6 2418.9 1506.6 2418.9" fill="#002577" fill-rule="evenodd"/><path id="path264" d="m1575 1279.4c-0.706 0.895-2.148 1.985-4.325 3.272-2.171 1.313-4.802 2.443-7.893 3.392-7.795 2.389-14.932 1.804-21.41-1.756-6.461-3.594-11.193-10.313-14.196-20.157l-0.753-2.468c-2.797-9.17-2.551-17.296 0.738-24.379 3.314-7.09 8.741-11.79 16.28-14.102 3.245-0.994 6.015-1.622 8.312-1.884 2.287-0.288 4.13-0.292 5.529-0.013l2.961 9.709c-1.289-0.282-2.952-0.377-4.991-0.284-2.015 0.087-4.286 0.517-6.816 1.292-4.703 1.441-7.795 4.498-9.276 9.168-1.457 4.664-1.147 10.393 0.926 17.19l0.259 0.85c2.221 7.282 5.089 12.287 8.603 15.014 3.54 2.72 7.444 3.426 11.712 2.118 2.887-0.885 5.263-1.936 7.127-3.157 1.855-1.246 3.301-2.323 4.338-3.231l2.875 9.426z" fill="#002577" fill-rule="evenodd"/><polygon id="polygon266" transform="translate(0 -1120.5)" points="1636.3 2360.9 1640.6 2369.3 1640.6 2369.3 1606.3 2386.8 1577.4 2330 1610.2 2313.2 1614.5 2321.7 1593.9 2332.2 1601.6 2347.5 1617.7 2339.3 1622 2347.9 1606 2356.1 1614.2 2372.2" fill="#002577" fill-rule="evenodd"/><path id="path270" d="m922.57 1515.7c5.008 9.055 7.019 16.725 6.037 23.01-0.96 6.275-4.77 11.26-11.43 14.96l-19.385 10.769-30.885-55.839 17.387-9.658c7.945-4.414 14.954-5.163 21.028-2.248 6.083 2.878 11.416 8.461 16.001 16.75l1.247 2.256zm-12.193 6.29-0.839-1.517c-3.383-6.117-6.975-10.234-10.772-12.35-3.797-2.114-7.425-2.211-10.884-0.291l-4.452 2.473 21.675 39.188 5.469-3.038c3.388-1.882 5.219-4.592 5.493-8.131 0.259-3.562-1.638-9.005-5.69-16.334z" fill="#002577" fill-rule="evenodd"/><path id="path272" d="m980.03 1491.7c3.924 9.269 4.828 17.234 2.713 23.894-2.127 6.636-6.622 11.411-13.485 14.333-6.79 2.89-13.316 2.803-19.578-0.263-6.273-3.09-11.344-9.205-15.214-18.344l-1.418-3.349c-3.605-8.515-4.59-16.292-2.954-23.332 1.66-7.049 6.279-12.186 13.857-15.41 7.405-3.151 14.155-2.807 20.253 1.033 6.121 3.83 10.951 9.925 14.492 18.284l1.334 3.154zm-12.95 4.592-0.676-1.597c-3.067-7.244-5.933-12.366-8.598-15.369-2.665-3.002-6.224-3.556-10.676-1.661-4.109 1.748-6.18 4.468-6.214 8.159-9e-3 3.681 1.684 9.532 5.081 17.555l0.61 1.441c3.419 8.074 6.368 13.362 8.849 15.859 2.48 2.499 5.91 2.817 10.289 0.953 3.591-1.528 5.5-4.255 5.725-8.181 0.251-3.935-1.213-9.655-4.39-17.159z" fill="#002577" fill-rule="evenodd"/><polygon id="polygon274" transform="translate(0 -1120.5)" points="1035.8 2558.4 1044.2 2555.3 1066 2615.3 1066 2615.3 1054.3 2619.5 1041.8 2585.1 1036.8 2625.9 1030.2 2628.3 1001.4 2599.9 1013.9 2634.3 1005 2637.5 983.26 2577.5 992.75 2574.1 1030 2610" fill="#002577" fill-rule="evenodd"/><path id="path278" d="m1114.1 876.09c-0.038 1.311-0.615 3.334-1.728 6.068-1.088 2.754-2.719 5.681-4.889 8.783-5.475 7.82-12.354 12.516-20.639 14.089-8.292 1.529-17.116-0.982-26.474-7.534l-2.346-1.642c-8.716-6.103-13.964-13.503-15.745-22.2-1.762-8.722 0-16.864 5.299-24.428 2.28-3.255 4.374-5.838 6.285-7.748 1.885-1.927 3.556-3.279 5.016-4.053l9.229 6.462c-1.361 0.691-2.937 1.823-4.727 3.395-1.772 1.549-3.546 3.592-5.323 6.13-3.303 4.718-4.055 9.693-2.256 14.925 1.817 5.209 5.956 10.073 12.416 14.597l0.808 0.565c6.922 4.847 12.898 7.197 17.928 7.052 5.048-0.171 9.071-2.397 12.069-6.678 2.028-2.896 3.479-5.567 4.351-8.014 0.847-2.462 1.435-4.477 1.766-6.042l8.96 6.273z" fill="#002577" fill-rule="evenodd"/><path id="path280" d="m1148.7 790.85c8.037 7.761 12.324 15.6 12.86 23.513 0.514 7.894-2.263 14.978-8.327 21.26-6 6.213-12.963 9.213-20.891 8.997-7.949-0.237-15.886-4.182-23.812-11.835l-2.904-2.804c-7.384-7.13-11.677-14.735-12.882-22.815-1.182-8.102 1.575-15.62 8.271-22.554 6.543-6.776 13.853-9.615 21.929-8.517 8.097 1.077 15.77 5.115 23.02 12.114l2.736 2.641zm-11.828 10.897-1.385-1.337c-6.281-6.066-11.463-10.025-15.546-11.88-4.083-1.854-8.092-0.744-12.027 3.331-3.631 3.76-4.693 7.563-3.187 11.41 1.527 3.824 5.769 9.095 12.726 15.813l1.249 1.207c7.002 6.761 12.341 10.853 16.017 12.27 3.677 1.419 7.449 0.125 11.32-3.883 3.173-3.286 4.061-7.02 2.66-11.201-1.378-4.203-5.32-9.447-11.827-15.73z" fill="#002577" fill-rule="evenodd"/><polygon id="polygon282" transform="translate(0 -1120.5)" points="1238 1884.5 1232.5 1888.5 1177.7 1873.3 1203.8 1909.3 1194.6 1916 1153 1858.7 1159.9 1853.7 1211.8 1867.8 1187.2 1833.9 1196.4 1827.2" fill="#002577" fill-rule="evenodd"/><path id="path284" d="m1300.1 711.41c3.175 6.807 3.253 12.9 0.236 18.278-3.031 5.35-8.587 9.909-16.671 13.679-4.624 2.156-8.649 3.705-12.077 4.647-3.429 0.943-6.369 1.486-8.823 1.628l-5.158-11.062c2.08 0.239 5.048-0.023 8.905-0.786 3.843-0.791 7.439-1.967 10.787-3.528 4.708-2.195 7.65-4.327 8.827-6.396 1.205-2.08 1.134-4.567-0.216-7.461-0.873-1.872-2.285-3.234-4.236-4.085-1.951-0.852-6.475-1.073-13.57-0.665-5.664 0.294-10.496-0.439-14.494-2.202-4.012-1.789-7.221-5.265-9.628-10.428-2.302-4.935-2.148-10.083 0.464-15.445 2.638-5.374 7.673-9.794 15.105-13.26 3.602-1.679 6.974-2.889 10.117-3.63 3.158-0.781 5.424-1.216 6.798-1.305l4.563 9.786c-2.718 0.542-5.387 1.149-8.01 1.818-2.623 0.671-5.295 1.642-8.018 2.91-3.858 1.799-6.359 3.691-7.506 5.676s-1.303 3.871-0.47 5.658c1.059 2.27 2.497 3.688 4.315 4.255 1.819 0.568 6.364 0.539 13.633-0.09 6.765-0.599 12.121 0.149 16.068 2.245 3.963 2.056 6.982 5.31 9.059 9.763z" fill="#002577" fill-rule="evenodd"/><polygon id="polygon286" transform="translate(0 -1120.5)" points="1362.1 1835.4 1346.7 1839.5 1331.1 1781.3 1315.8 1785.4 1313.1 1775.2 1358.6 1763 1361.4 1773.2 1361.4 1773.2 1346.5 1777.2" fill="#002577" fill-rule="evenodd"/><rect id="rect288" transform="matrix(.99756 -.069797 .069797 .99756 0 0)" x="1354.9" y="733.32" width="15.962" height="70.841" fill="#002577" fill-rule="evenodd"/><polygon id="polygon290" transform="translate(0 -1120.5)" points="1484.4 1828.9 1468.5 1827.8 1472.7 1767.7 1457 1766.6 1457.7 1756 1504.7 1759.3 1504 1769.8 1504 1769.8 1488.6 1768.8" fill="#002577" fill-rule="evenodd"/><path id="path292" d="m1581.5 710.03c-1.949 6.375-5.438 10.773-10.465 13.196-5.019 2.393-11.644 2.331-19.874-0.185-8.83-2.7-14.583-6.57-17.264-11.611-2.68-5.041-2.859-11.362-0.534-18.965l13.931-45.566 15.263 4.667-14.494 47.406c-1.125 3.681-1.15 6.702-0.07 9.06 1.117 2.339 3.727 4.134 7.827 5.387 3.801 1.162 6.865 1.2 9.195 0.111 2.358-1.079 4.186-3.742 5.487-7.993l14.411-47.137 11.313 3.459-14.726 48.171z" fill="#002577" fill-rule="evenodd"/><polygon id="polygon294" transform="translate(0 -1120.5)" points="1629.4 1872.8 1615.2 1865.5 1642.5 1811.8 1628.5 1804.7 1633.3 1795.2 1675.3 1816.6 1670.5 1826 1670.5 1826 1656.8 1819.1" fill="#002577" fill-rule="evenodd"/><rect id="rect296" transform="matrix(.809 .5878 -.5878 .809 0 0)" x="1805.3" y="-423.88" width="15.961" height="70.839" fill="#002577" fill-rule="evenodd"/><path id="path298" d="m1771.7 821.84c-7.9 7.9-15.813 12.05-23.734 12.448-7.901 0.376-14.936-2.524-21.112-8.697-6.108-6.108-8.985-13.122-8.631-21.045 0.375-7.944 4.458-15.811 12.249-23.601l2.854-2.855c7.258-7.258 14.937-11.418 23.037-12.481 8.121-1.041 15.59 1.847 22.406 8.664 6.661 6.661 9.371 14.019 8.133 22.074-1.218 8.077-5.39 15.678-12.514 22.805l-2.688 2.688zm-10.688-12.017 1.361-1.361c6.174-6.174 10.224-11.286 12.149-15.336s0.885-8.077-3.12-12.083c-3.696-3.696-7.48-4.824-11.352-3.385-3.851 1.461-9.195 5.61-16.033 12.448l-1.229 1.228c-6.883 6.882-11.066 12.149-12.547 15.801-1.483 3.651-0.255 7.446 3.685 11.386 3.23 3.23 6.948 4.182 11.153 2.855 4.225-1.306 9.536-5.157 15.933-11.553z" fill="#002577" fill-rule="evenodd"/><polygon id="polygon300" transform="translate(0 -1120.5)" points="1799 2030.2 1795 2024.6 1810.1 1969.8 1774.1 1996 1767.4 1986.8 1824.8 1945.1 1829.8 1952 1815.7 2004 1849.6 1979.3 1856.3 1988.5" fill="#002577" fill-rule="evenodd"/><path id="path306" d="m1673.1 1399s3.906-4.294 5.173-1.16 1.536 5.806 0.452 6.977-0.955 1.911-2.49 3.876c-1.534 1.965-0.854 3.088-2.335 4.033s-2.161 0.519-3.793 0.433l-0.664 4.873-1.062 4.073 0.612 3.918 2.784 6.23-2.123-4.669 2.972 5.094c2.25 5.935 23.638 11.897 31.387 15.364 16.131 7.216 13.608 41.517 15.307 44.913 1.698 3.396 8.489 48.816 8.489 56.457s-8.489 48.816-9.338 57.306c-0.423 4.23-1.479 14.363-2.536 24.621-0.209 2.027-3.119-0.638-4.039 1.186-1.219 2.418-1.042 9.375-0.753 11.677-0.507 5.008-1.932 8.902-2.163 11.448-0.849 9.339-9.455 10.211-9.455 10.211s-0.306 31.94-2.004 39.58c-1.698 7.641-2.853 9.096-0.306 30.321s-3.396 47.543-3.396 47.543-8.767 38.694-10.465 44.637 1.126 11.396 1.975 15.64c0.849 4.245 0.849 11.037 0.849 11.037h-74.647c-1.898 0 1.311-6.715 3.82-11.461 1.162-2.198 4.669-5.518 9.763-6.367s5.518-6.367 8.49-13.159c2.971-6.792 1.698-21.224-0.849-30.139s-5.943-30.563-5.943-38.204-4.213-25.045-8.458-36.931c-4.245-11.885-6.367-37.779-6.367-40.326 0-1.111-0.485-2.545-1.384-4.796-1.162-2.908-1.349-7.181-3.741-13.882-4.245-11.885-3.852-26.318-4.276-38.628s-5.094-25.894-7.245-28.904l-1.313-5.318-13.092 4.083-12.657 9.911c-2.787 2.519-5.826 2.939-10.944 3.396-9.909 0.885-19.817-10.743-22.142-27.55-2.569-18.578 1.101-26.54 21.775-26.476l9.187 0.023 7.984 0.266h3.863s2.318 4.523-1.288 6.119c-3.605 1.596-4.635 1.862-4.635 1.862l4.613 5.282c-0.086 0.01 2.499-1.738 10.188-5.943l2.865-6.686c0.212-4.245 0.531-5.2-0.318-9.869s-2.497-31.513-2.497-37.88 0.185-13.9 0.833-21.25c0.59-6.686 0.5-21.587 3.75-27.917 4.032-7.853 25.833-11.25 25.833-11.25s9.435-1.033 10.708-3.581c0.475-0.949 2.845-5.021 3.853-6.611-6.068-2.154-8.059-9.613-8.947-11.429-0.924-1.889-2.547-10.613-2.759-11.461-0.313-1.253-2.214-9.138-3.278-12.261-1.063-3.123-0.16-8.814-0.16-8.814l-6.905-0.759-8.351-0.642s-4.669-0.654-5.871-1.125c-1.202-0.472-5.249-1.298-5.249-1.298s-6.634-5.682-0.055-10.245 14.313-8.793 15.579-9.545 1.773-2.002 1.773-2.002l-0.118-1.642c-1.514-2.329-2.985-5.474-4.876-12.321-1.89-6.847 16.079-9.705 16.079-9.705 5.198-0.446 22.627 1.861 20.833 1.465 3.639 0.804 6.019 0.674 12.974 0.63s16.025 2.476 21.081 3.559 10.211 5.763 12.82 10.604c2.609 4.84 13.172 10.963 16.286 13.989 4.711 4.579 10.31 14.174 12.465 17.678 3.769 6.128-0.296 4.665-1.562 5.417-5.89 3.496-38.687-3.9-35.828-3.545 2.348 0.292 1.797-0.544-0.74-1.913l-0.017 2.313-1.91 7.216-2.071 2.403z" fill="#fab700" fill-rule="evenodd" stroke="#fab700" stroke-miterlimit="3.8637" stroke-width="1.6333"/><path id="path314" d="m1638.2 1490.8c1.041-17.388 2.469-31.719 5.094-42.874 0.849-3.608 0-5.306 0-5.306-4.52-0.108-7.562-0.451-12.24-5.861" fill="none" stroke="#002577" stroke-miterlimit="3.8637" stroke-width="4.0833"/><path id="path316" d="m1609.6 1680.4 0.999-7.205s2.233-4.119 1.384-12.184 0-30.563 2.123-42.024c2.009-10.852 19.039-44.571 20.737-53.486 1.465-7.689 1.698-33.535 1.698-35.657 0-0.704-0.841-3.159-0.425-12.735" fill="none" stroke="#002577" stroke-miterlimit="3.8637" stroke-width="4.8999"/><path id="path320" d="m1595.3 1591.8c2.151 3.01 6.82 16.594 7.245 28.904s-1.635 26.743 2.61 38.628c2.393 6.701 4.246 10.973 5.408 13.882 0.899 2.25 4.717 3.685 4.717 4.796 0 2.547 2.122 28.441 6.367 40.326 4.245 11.886 6.792 29.29 6.792 36.931s3.396 29.29 5.943 38.204 3.82 23.347 0.849 30.139c-2.972 6.792-3.805 10.987-8.49 13.159-3.602 1.67-5.356 2.389-8.185 5.836-3.405 4.151-7.297 11.992-5.399 11.992h71.314s0-6.792-0.849-11.037-5.943-10.188-4.245-16.131 12.735-44.147 12.735-44.147 5.943-26.318 3.396-47.543-3.396-21.225-1.698-28.865c1.698-7.641 3.542-38.112 3.542-38.112s13.318-3.578 14.167-12.917 6.062-40.661 6.911-49.151 9.338-49.665 9.338-57.306-6.792-53.061-8.489-56.457c-1.698-3.396 0-29.714-16.131-36.93-7.75-3.467-28.313-17.412-30.563-23.347l-2.972-5.094" fill="none"/><path id="path322" d="m1631.9 1432.4-3.853 6.608s-32.509 6.98-36.542 14.833c-3.25 6.33-4.583 42.8-4.583 49.167s1.647 33.211 2.497 37.88c0.849 4.669 0.531 5.624 0.318 9.869" fill="none" stroke="#002577" stroke-linejoin="round" stroke-miterlimit="3.8637" stroke-width="5.4207"/><path id="path326" d="m1650.6 1538.7c0.424 3.396-0.451 25.145 8.49 39.053 3.821 5.943 20.519 38.312 24.196 42.449 2.2 2.475 7.857 3.437 9.283 6.806 7.375 17.43-0.417 34.583 10 37.083l2.917 10" fill="none" stroke="#002577" stroke-miterlimit="3.8637" stroke-width="4.8999"/><path id="path328" d="m1673.8 1432.1c-1.772 2.453-13.635 9.583-20.625 9.583-2.547 0-1.042 5.208-2.169 11.362-1.187 6.482-1.273 43.298-0.424 47.968 0.344 1.896-0.325 2.864-0.425 8.914" fill="none" stroke="#002577" stroke-miterlimit="3.8637" stroke-width="4.0833"/><path id="path330" d="m1684.8 1477.6 4.334 17.027 5.943 31.412 2.122 19.102 0.425 16.979-0.425 14.433-1.698 10.188-2.122 9.339-3.821 30.563c12.31-2.971 20.409-0.086 26.318 4.669" fill="none" stroke="#002577" stroke-linecap="round" stroke-linejoin="round" stroke-miterlimit="3.8637" stroke-width="4.8999"/><path id="path332" d="m1603.6 1446.3 0.833 2.917c-1.158-6.398 19.38 84.414 89.421 126.86l3.396 2.124" fill="none" stroke="#002577" stroke-miterlimit="3.8637" stroke-width="4.8999"/><path id="path334" d="m1617.3 1442.6c7.356 23.38 29.381 81.816 79.688 112.3l0.637 4.245" fill="none" stroke="#002577" stroke-miterlimit="3.8637" stroke-width="4.8999"/><path id="path336" d="m1627.9 1581.6c12.917 2.707 21.249 2.705 32.916-0.42" fill="none" stroke="#002577" stroke-miterlimit="3.8637" stroke-width="4.8999"/><path id="path338" d="m1648.2 1647.8c2.543 17.639 5.684 38.712 6.646 42.078 1.698 5.943 3.396 35.657 3.396 35.657l0.849 28.865 0.849 36.506v33.11 9.339c-6.972 4.877-10.632 12.156-10.982 21.836" fill="none" stroke="#002577" stroke-miterlimit="3.8637" stroke-width="4.8999"/><path id="path340" d="m1578.3 1557c-4.333 6.515-25.726-5.853-26.81 12.606-0.833 14.186 1.913 30.217 15.631 31.979l10.096-6.678 2.703-2.709" fill="none" stroke="#002577" stroke-linejoin="round" stroke-miterlimit="3.8637" stroke-width="4.5172"/><path id="path342" d="m1565.6 1549.4c-5.883-92.15-3.148-172.88 12.134-234.01-41.149 59.743-24.225 234.07-24.225 234.07l12.091-0.064z" fill="#fab700" fill-rule="evenodd"/><path id="path344" d="m1589.9 1549.4-2.971 8.065c-7.689 4.205-10.07 4.427-9.984 4.422" fill="none" stroke="#002577" stroke-linejoin="round" stroke-miterlimit="3.8637" stroke-width="5.4207"/><path id="path346" d="m1575.9 1559.9s7.545 20.054 1.37 35.011" fill="none" stroke="#002577" stroke-linejoin="round" stroke-miterlimit="3.8637" stroke-width="4.5172"/><path id="path348" d="m1565.8 1549.9 8.337 0.184h3.863s2.318 4.523-1.288 6.119c-3.605 1.596-6.069 1.561-6.069 1.561" fill="none" stroke="#002577" stroke-linejoin="round" stroke-miterlimit="3.8637" stroke-width="3.4882"/><path id="path350" d="m1568.3 1600.4c-2.787 2.519-5.826 2.939-10.944 3.396-9.909 0.885-19.817-10.743-22.142-27.55-2.569-18.578-0.094-26.309 18.311-26.832" fill="none" stroke="#002577" stroke-miterlimit="3.8637" stroke-width="3.4882"/><path id="path352" d="m1571.5 1557.6h-13.211s-7.026 1.87-7.34 7.583c-0.5 9.099-0.665 21.964 3.25 27.019l3.915 4.044" fill="none" stroke="#002577" stroke-miterlimit="3.8637" stroke-width="3.4882"/><path id="path354" d="m1616.8 1380.2 1.146 6.875-1.628 2.95-7.142-0.471-8.368-0.277s-4.692-0.449-5.914-0.868-5.299-1.067-5.299-1.067-6.055-8.015 0.316-12.86c6.371-4.844 12.934-8.258 14.167-9.064 1.232-0.806 1.843-0.596 1.843-0.596" fill="none" stroke="#002577" stroke-miterlimit="3.8637" stroke-width="4.0833"/><line id="line356" x1="1616.7" x2="1616.7" y1="1381.7" y2="1389.4" clip-rule="evenodd" fill="none" stroke="#002577" stroke-miterlimit="3.8637" stroke-width="1.6333"/><path id="path358" d="m1617.8 1387.5s-1.984 6.644-0.921 9.767 2.965 11.009 3.278 12.261c0.212 0.849 1.836 9.573 2.759 11.461 0.923 1.889 3.04 9.881 9.695 11.662s14.082 0.534 18.321-2.312" fill="none" stroke="#002577" stroke-miterlimit="3.8637" stroke-width="3.2666"/><path id="path360" d="m1630.7 1417.1s3.239-1.181 4.339-0.714 4.25 0.836 4.25 0.836 3.923-0.715 5.232-0.339c1.31 0.375 3.397 0.381 4.015 0.311" fill="none" stroke="#002577" stroke-miterlimit="3.8637" stroke-width="2.45"/><path id="path362" d="m1633.6 1421.3s7.731 1.508 10.972 0.145" fill="none" stroke="#002577" stroke-miterlimit="3.8637" stroke-width="2.45"/><path id="path364" d="m1644.3 1388.1s6.973-2.867 13.075 1.645" fill="none" stroke="#002577" stroke-miterlimit="3.8637" stroke-width="2.45"/><path id="path366" d="m1635.4 1387.7c0.537 1.46-0.503 5.7-1.41 7.39-0.906 1.69-1.169 4.744-1.748 6.043-0.58 1.299-1.309 3.51-1.271 4.739s0.043 1.127 1.933 2.146 3.222 0.139 4.676-0.296c1.455-0.435 2.746-0.849 4.055-0.474 1.31 0.375 3.204-0.65 3.172-1.981-0.033-1.331-0.441-3.295-1.321-4.057s-2.759-1.985-2.759-1.985" fill="none" stroke="#002577" stroke-miterlimit="3.8637" stroke-width="1.9598"/><path id="path368" d="m1622.4 1388.5c1.054-0.154 7.747-3.906 13.305-0.039" fill="none" stroke="#002577" stroke-miterlimit="3.8637" stroke-width="2.45"/><ellipse id="ellipse372" transform="matrix(-.9998 -.0175 .0175 -.9998 3212 3934.4)" cx="1628.1" cy="2513.4" rx="4.574" ry="1.136" fill="#002577" stroke="#002577" stroke-miterlimit="3.8637" stroke-width="1.6333"/><path id="path376" d="m1631.9 1432.4c0.243 0.086 0.492 0.164 0.748 0.232 6.655 1.78 14.082 0.534 18.321-2.312" fill="none" stroke="#002577" stroke-miterlimit="3.8637" stroke-width="3.2666"/><path id="path378" d="m1615.5 1339.2s-17.399 5.157-15.212 11.913c2.187 6.757 3.794 9.833 5.407 12.093 1.614 2.26 4.803 11.067 5.803 13.526 1 2.458 0.394 6.934 4.449 4.939 23.026-11.331 72.591 8.278 61.929 7.423-2.872-0.23 32.086 6.995 37.816 3.247 1.232-0.806 3.696-2.418-0.335-8.374-2.305-3.406-9.316-12.335-14.221-16.703-3.242-2.887-12.651-9.047-15.469-13.768-2.817-4.72-9.578-8.664-14.674-9.525-5.097-0.861-14.266-2.983-21.211-2.635s-8.98-0.282-12.65-0.927c1.807 0.319-16.46-1.88-21.632-1.209z" fill="none" stroke="#002577" stroke-miterlimit="3.8637" stroke-width="3.2651"/><path id="path380" d="m1657.5 1705.8s18.333 11.248 40-0.419c20.187-10.869 3.75-2.084 3.75-2.084" fill="none" stroke="#002577" stroke-miterlimit="3.8637" stroke-width="4.9001"/><path id="path382" d="m1614.2 1708.3s20.29 9.595 41.123-1.239" fill="none" stroke="#002577" stroke-miterlimit="3.8637" stroke-width="4.9001"/><ellipse id="ellipse386" transform="matrix(-.9945 -.1046 .1046 -.9945 3028.8 4066.5)" cx="1650.4" cy="2514.1" rx="4.808" ry="1.195" fill="#002577" stroke="#002577" stroke-miterlimit="3.8637" stroke-width="1.6333"/><path id="path390" d="m1623.8 1593.3c12.292 4.582 31.25 3.332 43.124-0.418" fill="none" stroke="#002577" stroke-miterlimit="3.8637" stroke-width="4.8999"/><rect id="rect394" x="1779.8" y="1834.2" width="168.54" height="22.744" fill="#fab700" fill-rule="evenodd" stroke="#002577" stroke-miterlimit="3.8637" stroke-width=".6805"/><rect id="rect4022" y="2880" width="6912" height="1440" fill="#b50027"/></svg>
