<?xml version="1.0" encoding="UTF-8"?>
<svg id="svg2" width="685" height="457" version="1.0" xmlns="http://www.w3.org/2000/svg" xmlns:cc="http://creativecommons.org/ns#" xmlns:dc="http://purl.org/dc/elements/1.1/" xmlns:rdf="http://www.w3.org/1999/02/22-rdf-syntax-ns#">
 <metadata id="metadata513">
  <rdf:RDF>
   <cc:Work rdf:about="">
    <dc:format>image/svg+xml</dc:format>
    <dc:type rdf:resource="http://purl.org/dc/dcmitype/StillImage"/>
   </cc:Work>
  </rdf:RDF>
 </metadata>
 <g id="g9523">
  <path id="path14" d="m-2513.4 2322.1z"/>
  <path id="path162" d="m0 457h685v-457h-685v457z" fill="#00287e"/>
  <g id="g9347" transform="matrix(1.25 0 0 1.25 -80.185 -55.705)">
   <path id="path164" d="m323.37 269.18h52.662l0.36-0.306v14.334c0 3.258 0.462 6.048-5.736 7.59-6.18 1.548-32.238 8.532-32.238 8.532s-26.058-6.984-32.238-8.532c-6.198-1.542-5.736-4.332-5.736-7.59v-0.234c0.102-0.012 0.294-0.036 0.54-0.084h0.036c0.414-0.06 0.984-0.15 1.638-0.258 0.012 0 0.018 0 0.03-0.012 0.15-0.024 0.306-0.048 0.462-0.072 0.024 0 0.054 0 0.084-0.012 0.144-0.024 0.288-0.042 0.438-0.066 0.03-0.012 0.054-0.012 0.084-0.012 0.144-0.024 0.288-0.048 0.426-0.072 0.048-0.012 0.096-0.012 0.144-0.024 0.126-0.024 0.258-0.048 0.384-0.06 0.054-0.012 0.102-0.024 0.156-0.036 0.126-0.012 0.252-0.03 0.378-0.054 0.054 0 0.114-0.012 0.168-0.024 0.12-0.024 0.234-0.036 0.348-0.06 0.066-0.012 0.126-0.024 0.186-0.036 0.126-0.012 0.24-0.036 0.36-0.06 0.048 0 0.096-0.012 0.138-0.024 0.168-0.018 0.33-0.054 0.492-0.078 2.61-0.456 4.602 0 8.598-0.612 3.99-0.618 6.75-0.456 11.664-0.924 4.914-0.456 10.44-1.068 11.976-1.536 1.536-0.456 2.916-1.068 6.906-1.842 3.984-0.762 2.46-0.924 2.46-0.924s-1.23-0.306-3.228-1.068c-1.992-0.768-1.686-1.074-4.296-1.53-2.61-0.462-0.768 0.456-3.072 0-2.304-0.462-2.76-0.762-2.76-0.762s-2.766-0.318-3.84-0.624-1.842-0.15-2.454-0.606c-0.618-0.462-3.228-1.386-3.228-1.386s-1.404-0.372-2.604-0.762" fill="#9ed9ff"/>
   <path id="path166" d="m338.73 302.78c1.536 0 3.684 0.624 1.536 4.608-2.148 3.996 4.53 6.294 4.53 6.294l2.526-2.604c-3.072-2.766-3.072-3.678 0.612-6.138s5.22 3.372 5.22 3.372l2.766-1.23 0.306-3.372c7.368 0.606 11.67 0 18.114-3.984-12.282 3.984-19.344-0.624-19.344-0.624s13.512-3.678 18.426-4.908c4.902-1.218 7.974-2.448 7.974-8.898v-62.028c0-19.65 7.368-17.496 7.368-17.496l-7.98-12.9c-20.268 7.068-24.564-5.838-42.066-5.838s-21.792 12.906-42.066 5.838l-7.974 12.9s7.362-2.154 7.362 17.496v62.028c0 6.45 3.072 7.668 7.986 8.898 4.908 1.23 18.42 4.908 18.42 4.908s-7.062 4.608-19.344 0.624c6.45 3.984 10.746 4.59 18.114 3.984l0.306 3.372 2.766 1.23s1.53-5.832 5.214-3.372c3.684 2.448 3.684 3.372 0.384 6.21l2.304 2.694s7.14-2.46 4.986-6.456c-2.148-3.984 0-4.608 1.536-4.608l-0.306-3.456s-26.058-6.984-32.238-8.532c-6.198-1.542-5.73-4.332-5.73-7.59v-55.476h75.942v55.476c0 3.258 0.462 6.048-5.73 7.59-6.18 1.548-32.238 8.532-32.238 8.532l0.306 3.456" fill="#006fff"/>
   <path id="path168" d="m308.79 286.67c3.684 0 5.064-0.924 7.368-0.924 2.298 0 3.678 0 6.9-0.918 3.228-0.924 12.438-1.836 8.292-0.456-4.146 1.374-2.766 1.842 3.684 1.374 6.45-0.45 10.596-0.918 10.134-2.298-0.462-1.386 0.15-0.456-3.534-0.156-3.684 0.306-3.99-0.3-3.99-0.3s1.23-1.536 3.684-1.236c2.46 0.306 6.144-0.138 7.524-0.456 1.38-0.306 2.916 1.386 1.224 1.692-1.686 0.3-0.762 1.38 0.462 1.53 1.23 0.156 2.154 3.072-5.064 2.616s-9.516 0.306-14.43 0.456c-4.914 0.156-10.902 0.306-8.292-0.456 2.61-0.774 3.99-1.23-1.998-0.306-5.976 0.918-5.208 0.156-9.972 0.456-4.758 0.306-7.212 0.306-7.212 0.306l5.22-0.912" fill="#006fff"/>
   <path id="path170" d="m350.05 277.99c-3.684 0.348 5.016-0.564 6.81-0.75 1.794-0.168 5.802-0.762 2.292 0.114-3.516 0.894-3.324 0.948-0.33 0.87 3-0.084 4.842-0.528 5.112-0.576 0.264-0.048 1.908-0.012 1.908-0.012s2.106 0.048-3.258 0.762c-5.358 0.702-9.516 0.948-7.746 0.6 1.77-0.354 5.616-0.834 1.182-0.636-4.434 0.21-5.466 0-3.684-0.27 1.782-0.258-0.492-0.294-2.286-0.102" fill="#006fff"/>
   <path id="path172" d="m376.04 274.56s2.454 0.294-2.304 0.108c-4.758-0.198-6.45-0.108-6.45-0.108s-1.842-0.09 1.998 0.402c3.834 0.504 8.598 0.996 4.758 1.194s-5.682 0.594-4.452 0.798c1.23 0.198 1.842 0.102 3.072-0.108 1.224-0.186 2.454 0 2.454 0l1.23 0.21v1.992s0.768 0.096-2.766 0.096c-3.528 0-8.748 0.198-6.138 0.294 2.61 0.09 3.684 0.09 5.37 0.09h3.678" fill="#006fff"/>
   <path id="path174" d="m340.88 270.4c1.386 0 5.532 0.444 3.684 0.444-1.842 0-2.61 0.468 0.312 0.624 2.91 0.15 5.364 0.15 5.364 0.15l-5.676 0.456s-3.684 0-2.916-0.306c0.768-0.3-1.38-0.762-1.38-0.762l-1.074-0.768 1.686 0.15" fill="#006fff"/>
   <path id="path176" d="m359.45 289.44c5.832-0.168 4.608-0.624 11.364-1.854 6.756-1.218 0.612-2.448-3.534-3.21-4.146-0.774 6.912-1.38 5.682-1.686s-8.442 0.306-13.05 0.306c-4.602 0-0.918 2.754 3.84 3.222 4.758 0.456-5.376 1.062-10.134 1.23 0 0 1.998 0.912-7.674 1.368-9.672 0.468-16.584 0.612-12.438 1.23 4.146 0.612 20.574 0.774 9.21 1.842-11.358 1.08-14.736 0.468-17.04 0.924s-7.062 1.068-7.062 1.068 5.526 1.38 5.988 1.38-1.536-0.606 5.376-0.606c6.906 0 11.514-0.456 17.04-1.08 5.526-0.606 14.58-1.836 9.21-2.298-5.37-0.456-8.748-1.23-4.452-1.23s7.674-0.606 7.674-0.606" fill="#006fff"/>
   <path id="path178" d="m325.53 160.01-1.842-1.23s-0.156 2.16 1.224 4.458" fill="#35b336"/>
   <path id="path180" d="m329.67 170.15s-1.998-0.762-2.766-1.23c-0.768-0.456-2.61-0.762-2.61-0.762s0.066-0.342 0.054-0.87c0.096-0.21 0.156-0.432 0.156-0.678 0-0.444-0.18-0.846-0.48-1.134-0.192-0.564-0.492-1.176-0.96-1.77-1.686-2.148-2.304-1.992-5.37-2.766-3.072-0.762-5.22-1.992-5.22-1.992s-0.606 2.142 2.61 3.372c3.222 1.23 6.6 3.072 6.6 3.072s-0.306 1.23-2.454 1.08c-0.408-0.024-0.84-0.096-1.284-0.216 0.072-0.174 0.108-0.36 0.108-0.558 0-0.894-0.708-1.596-1.59-1.596-0.684 0-1.26 0.432-1.488 1.044-0.948-0.48-1.824-1.032-2.502-1.596-1.692-1.38-4.758-2.916-7.362-2.916 0 0 1.218 0.924 3.216 2.46 0.708 0.54 1.506 1.182 2.25 1.782-0.852 0.024-1.536 0.714-1.536 1.584 0 0.114 0.018 0.234 0.036 0.348-1.05-0.198-1.326-0.558-2.256-1.122 0.018-0.108 0.03-0.198 0.03-0.294 0-0.894-0.714-1.608-1.596-1.608-0.54 0-1.026 0.282-1.32 0.708-0.342-0.036-0.792-0.084-1.44-0.168-2.454-0.306-4.908 0-4.908 0s0.768 0.762 1.842 1.068c1.068 0.318 2.448 0 2.76 1.38 0.186 0.858 0.084 1.068 0.012 1.644-0.054 0-0.114 0-0.174 0.012 0.036-0.144 0.066-0.282 0.066-0.432 0-0.882-0.708-1.596-1.59-1.596-0.876 0-1.59 0.714-1.59 1.596 0 0.198 0.036 0.384 0.102 0.546-0.204-0.09-0.426-0.138-0.66-0.138-0.882 0-1.596 0.714-1.596 1.584 0 0.888 0.714 1.59 1.596 1.59 0.876 0 1.59-0.702 1.59-1.59 0-0.192-0.036-0.378-0.102-0.54 0.204 0.078 0.426 0.138 0.66 0.138 0.108 0 0.216-0.012 0.318-0.024-0.042 0.132-0.066 0.282-0.066 0.426 0 0.828 0.636 1.506 1.452 1.578-0.108 0.672-0.57 0.6-1.854 1.35-1.848 1.08-5.376 3.996-5.376 3.996s2.61-0.774 4.452-1.23 3.378-0.93 3.99-2.616 2.142-3.372 2.142-3.372 0.24-0.21 0.588-0.444c-0.018 0.09-0.03 0.186-0.03 0.276 0 0.882 0.714 1.596 1.596 1.596 0.876 0 1.59-0.714 1.59-1.596 0-0.162-0.03-0.324-0.084-0.48 0.534 0.246 0.948 0.492 0.948 0.492s0.156 2.46-1.38 3.996c-1.536 1.524-4.758 3.528-4.758 3.528s3.222 0.456 5.064-0.924c1.842-1.386 1.686-2.142 2.61-3.834 0.918-1.698 1.686-2.004 1.686-2.004s0.312 0 0.852-0.036c-0.09 0.204-0.138 0.426-0.138 0.648 0 0.876 0.714 1.59 1.59 1.59 0.114 0 0.222-6e-3 0.33-0.03-0.186 0.15-0.396 0.3-0.636 0.444-2.304 1.38-4.302 3.678-4.302 3.678s1.536 1.08 4.146-1.068c2.61-2.142 3.228-3.528 4.608-4.146 1.38-0.612 3.072-0.15 3.072-0.15s-0.462 1.992-3.228 3.522c-2.76 1.536-4.602 3.846-4.602 3.846s1.992-0.15 3.684-1.08c1.68-0.912 3.678-2.142 3.678-2.142" fill="#35b336"/>
   <path id="path182" d="m300.5 263.79c1.692 0 3.072-0.15 5.526 1.386 2.46 1.536 3.222 2.142 4.914 2.448 1.68 0.306 1.68 0 3.534 0.774 1.836 0.762 0.912 0.924 2.91 0.762 1.992-0.156 3.528-0.612 4.758-0.156 1.224 0.474 3.528 1.08 3.528 1.08s2.61 0.924 3.228 1.386c0.612 0.456 1.38 0.3 2.454 0.606s3.84 0.624 3.84 0.624 0.456 0.3 2.76 0.762c2.304 0.456 0.462-0.462 3.072 0 2.61 0.456 2.304 0.762 4.296 1.53 1.992 0.762 3.228 1.068 3.228 1.068s1.524 0.168-2.46 0.93c-3.99 0.768-5.37 1.38-6.906 1.836-1.536 0.468-7.062 1.08-11.976 1.536-4.914 0.468-7.674 0.306-11.664 0.924-3.996 0.612-5.988 0.156-8.598 0.612-2.61 0.468-6.6 1.08-6.6 1.08l0.15-19.2" fill="#35b336"/>
   <path id="path184" d="m317.58 311.8c5.754 4.608 8.172 4.266 14.622 13.008-2.994-7.824-3.684-9.666-7.83-13.122 6.906 4.836 8.982 4.836 14.046 12.9-11.286-33.618-57.108-15.654-69.312-10.596 15.888-3.69 27.864 1.152 34.08 8.754 0 0-2.766-7.368-5.526-10.59 10.59 6.444 10.362 5.754 15.888 11.742 0 0-3.912-9.444-4.608-11.286 8.292 2.298 14.508 11.742 14.508 11.742s-2.646-7.488-5.868-12.552" fill="#35b336"/>
   <path id="path186" d="m359.26 311.8c-5.754 4.608-8.172 4.266-14.622 13.008 2.994-7.824 3.684-9.666 7.83-13.122-6.906 4.836-8.982 4.836-14.046 12.9 11.286-33.618 57.108-15.654 69.312-10.596-15.888-3.69-27.864 1.152-34.08 8.754 0 0 2.766-7.368 5.526-10.59-10.59 6.444-10.362 5.754-15.888 11.742 0 0 3.912-9.444 4.608-11.286-8.292 2.298-14.508 11.742-14.508 11.742s2.646-7.488 5.868-12.552" fill="#35b336"/>
   <path id="path188" d="m224.66 124.13c-0.576-2.412 0-4.032 0.462-2.298 0.462 1.722 0.69 1.956 0.69 1.956" fill="#86473f"/>
   <path id="path190" d="m296.05 223.27c0-19.65-7.368-17.508-7.368-17.508l7.98-12.888c7.044 2.448 12.156 2.496 16.566 1.512l0.096-0.366s-0.462-1.836-1.614-5.526c-1.152-3.684-2.07-3.684-4.608-3.906-2.532-0.234-8.286 3.456-12.894 4.83-4.608 1.38-9.672 3.222-9.672 3.222s-3.456-6.21-4.602-7.596c-1.146-1.38-2.76-2.07-3.912-5.532-1.152-3.444-1.614-3.444-3.912-5.976-1.974-2.178-5.466-6.198-6.426-7.308 0.06-0.132 0.258-0.48 0.9-1.224 0.804-0.912 2.646-0.558 5.64-0.912 2.994-0.348 2.874-3.342 3.57-4.368 0.69-1.044 0.342-0.93 0.114-3.462-0.234-2.526-2.418-3.336-3.684-3.678-1.266-0.348-3.228-1.044-5.412-2.766-2.19-1.722-8.406-4.722-9.672-5.532-1.266-0.792-0.114-2.178 1.152-2.634 1.266-0.468 9.096 0 11.97-0.234 2.88-0.234 1.038-0.924-0.114-1.266s-6.906-0.81-6.906-0.81 3.222-0.456 11.4-4.254c8.172-3.798 10.476-11.634 10.476-11.634-2.532 3.69-8.178 5.988-9.786 6.336-1.614 0.342-0.576-1.5 0.114-3.912s-0.462-1.044-2.304 2.412c-1.842 3.462-6.792 5.184-9.21 6.108-2.418 0.912-2.07 0.798 0.114-1.266 2.19-2.076 2.418-3.456 3.456-6.342 1.038-2.868 0.576-3.558-1.38 0.12-1.962 3.678-8.754 8.4-10.482 9.444-1.722 1.032-0.456-1.854 0.576-4.488 1.038-2.646 0.576-2.766-0.69-0.576-1.266 2.184-2.532 4.14-4.602 5.64-2.076 1.5-1.728 0.69-1.728-0.468 0-4.83-1.722-5.976-2.298-6.672-0.576-0.69-1.152-1.5-0.462 0.918 0.69 2.424 0.234 5.178 0 6.222-0.228 1.032-1.032 0.57-1.842 0.102-0.804-0.444-1.494-1.836-0.804-3.324 4.146-7.608 3.57-12.096 3.57-15.66 0-3.57-1.038-0.924-1.038-0.924 0.576 13.242-6.102 16.35-6.102 16.35-1.266-5.184-2.076-4.488-2.076-4.488 0 2.304-0.798 3.912-0.798 3.912s-5.754-6.444-4.602-12.318c1.146-5.868-0.462-8.988-0.462-8.988-1.5 18.084-14.394 11.754-14.394 11.754l6.33 4.254c-2.184 8.286-12.78 3.912-12.78 3.912 3.342 6.342 22.572 3.684 22.572 3.684s1.728 2.19 5.412 4.722 7.02 4.836 7.02 4.836l-1.032 0.54c-4.608-3.384-9.216-3.384-11.976-2.154-2.766 1.23-4.302 2.766-4.302 2.766 1.536 5.838 9.522 7.056 9.522 7.056-1.23 3.078-1.536 8.904-0.618 15.666 0.924 6.75-1.224 13.194-1.224 13.194l2.454-1.536s0.306 1.842 0 3.378c-0.3 1.536 0.612 2.154 1.842 2.766 1.23 0.606 1.23 2.154 1.23 2.154v3.678l2.148-1.23s0.924 7.068 0.924 9.834-0.618 5.214-0.924 6.444c-0.306 1.218-0.612 3.984-0.612 3.984l1.842-0.912s-2.154 8.286-3.684 11.658c-1.53 3.39-9.522 8.298-17.814 16.902-8.28 8.586-6.444 16.566-7.05 20.562-0.618 3.99 2.454 1.536 2.454 1.536s4.29 5.826 4.29 13.2c0 7.368-4.602 11.67-6.138 13.206-1.53 1.536-0.3 2.754-0.606 5.52-0.312 2.766 0 5.832 1.524 8.598 1.536 2.766 0.312 12.894 0 15.66-0.3 2.766 0 2.766 1.23 3.69 1.23 0.912 2.766 3.06 4.608 4.59 1.842 1.536 2.76-0.912 3.066-3.054 0.312-2.16-0.612-2.46-0.612-2.46l0.462-0.24s-1.38-0.912-3.456-3.678c-2.07-2.766-1.152-10.134-0.462-17.73 0.69-7.59 1.152-6.222 8.982-13.356 7.83-7.14 12.438-19.116 12.438-19.116s2.532 1.62 8.058 5.298c5.526 3.69 3.918 3.456 2.532 9.678-1.38 6.21-1.152 7.83 0 9.432 1.152 1.62 2.532 2.988 5.988 4.608 3.456 1.614 3.678 1.842 7.14 6.444 3.456 4.608 5.292 5.766 8.52 6.222 3.216 0.456 3.216 1.842 3.216 1.842l5.298-2.298c-1.152-3.222-3.918-2.766-6.906-3-2.988-0.222-3.228-0.924-6.672-4.602-3.456-3.684-5.526-6.684-7.83-12.438s0.222-10.356 3.678-20.028c3.45-9.666-1.38-13.356-1.38-13.356s4.374-5.064 8.514-8.754c4.146-3.678 8.754-12.894 9.216-15.42 0.456-2.532 0.918-2.532 4.374-2.31 3.456 0.234 1.842 6.678 1.38 11.976s-0.918 5.754 0.462 7.368c1.38 1.62 0.918 2.988 0.228 6.684-0.582 3.09 3.252 4.896 5.298 4.416v-34.362" fill="#86473f"/>
   <path id="path192" d="m442.97 143.58c9.672-1.146 17.502-9.432 20.73-13.818 3.222-4.368-0.924-3.222-2.304-1.602-1.386 1.602-0.234 0.912-3.228 3.678s-3.912 2.076-2.76-0.678c1.152-2.766-2.304 0.444-5.988 2.988-3.678 2.532-3.912 1.146-1.608-1.386 2.298-2.526-0.228-1.602-2.532-0.456-2.304 1.152-7.368 2.988-7.368 2.988s-0.462-1.836 5.298-5.058c5.754-3.228 13.584-9.684 14.73-12.672 1.152-3 0.228-4.836-1.374-1.146-1.614 3.678-3.456 3.222-6.216 0.912-6.684 5.754-6.45-0.69-6.45-0.69s-0.69 1.158-1.842 3-2.766 1.608-3.918 0.912c-1.146-0.69-1.608-1.146-5.064 2.076s-7.14-3.456-7.368-6.912c-0.228-3.45-0.462-3.684-1.614-0.222-1.152 3.456-0.222 7.824 1.614 12.432 1.842 4.602-1.38 2.766-3.456 2.532-2.07-0.234-6.678-4.374-9.21-6.906s-2.07-1.848-2.07 0.456c0 2.298 1.38 5.298 1.38 5.298s-7.14-2.988-9.666-5.532c-2.532-2.526-2.994-1.146-1.842 0.93 1.152 2.058 1.842 6.666 13.35 8.286 11.514 1.602 14.274 4.146 13.818 8.058-14.046 1.152-18.882-4.368-20.028-5.298-1.152-0.924-0.462 2.766-0.462 2.766s-4.836-1.614-6.912-3.924c-2.07-2.298-1.836 0.234 0 2.544 8.292 10.596 27.486 8.13 27.486 8.13s-3.69 1.842-5.22 3.378c-1.536 1.536-2.766 1.848-4.452 1.992-4.914 0.306-7.524 0.162-11.826 2.154-4.296 1.992-3.684 6.144-3.066 8.754 0.612 2.604 4.602 2.604 5.526 3.684 0.918 1.062 3.378 1.23 4.146 0.762 0.762-0.462 0.918-1.374 2.298-1.998 1.38-0.606 2.148-0.3 1.38 1.536-0.762 1.842-6.138 7.524-8.754 10.14-2.604 2.598-1.986 2.298-2.298 4.134-0.306 1.854 1.08 2.298 0.924 3.39-0.156 1.062-0.306 1.368-1.692 3.372-1.38 1.992-3.222 3.684-3.372 5.064-0.156 1.38-3.996 4.608-3.996 4.608-5.064-3.072-11.82-6.918-14.58-8.754-2.766-1.842-2.766-2.298-7.218-2.298s-6.138 5.064-6.45 9.516l0.372 0.27c3.132-0.024 6.702-0.612 10.992-2.112l7.98 12.888s-1.47-0.42-3.096 0.858l0.414 0.306 2.76 2.532-5.988 2.532h-0.234c-0.732 2.574-1.224 6.198-1.224 11.28v33.06c2.592-1.5 2.364-6.432 1.692-10.5 3.222-0.456 2.298-3.678 1.608-3.912-0.69-0.222-1.152-11.52-0.228-16.584 0.918-5.064 2.532-4.134 5.526-4.602 2.994-0.462 2.076 2.766 2.994 6.678 0.924 3.912 3.456 7.368 3.456 7.368l-0.234-2.766s-0.918-2.748 2.076 1.62c2.994 4.374 18.648 13.35 18.648 13.35s-2.994 2.07-5.526 9.678c-2.532 7.596 2.994 16.572 1.152 28.782-1.206 7.992-7.368 15.654-11.514 17.952-4.146 2.31-5.064 4.146-5.064 4.146l4.602 2.532s0.696-1.146 1.842-2.298c1.152-1.158 0-1.158 2.988-1.158 2.994 0 3.918-4.134 5.76-8.052 1.842-3.912 8.52-11.052 8.52-11.052 2.766-4.146 2.07-3.678 1.614-5.76-0.462-2.064-1.386-4.14-0.234-8.286 2.916-10.488 12.9-17.274 12.9-17.274v4.146c0 8.754 2.532 9.672 9.9 20.04 7.368 10.362 5.526 23.028 4.836 29.238s-3.456 8.52-3.456 8.52l1.842 6.678s0.234-0.69 0.924-2.07c0.69-1.386 2.07-4.374 3.456-5.298 1.374-0.93 1.83 0.468 1.602-5.52s0.228-11.754 1.614-20.04c1.38-8.286 0.69-6.21-2.076-14.04-2.76-7.83-0.918-8.754 1.386-13.818 2.298-5.07 3.684-9.444 3.684-9.444s2.07 0.234 1.842-2.31c0-5.754-4.608-10.812-13.128-18.642s-9.9-15.888-9.9-15.888h0.228c-1.152-4.386 1.614-2.298 1.614-2.298-1.38-5.076 1.836-10.596 1.836-10.596-2.076-4.146-1.836-5.532-1.836-5.532l1.836-1.146c-2.526-8.064-1.836-8.52-1.836-8.52l1.836-0.468c-0.222-4.14 0.228-7.362 0.228-7.362l2.304 0.234s-0.228-5.07 1.152-11.52c1.38-6.444 2.994-2.988 0-15.888 7.83-2.298 7.368-6.21 7.368-6.21s-3.912-2.076-8.748-2.076-2.994-2.532 0.456-2.766" fill="#86473f"/>
   <path id="path194" d="m354.08 144.51 2.304 1.842 0.918-3.21c0.3 0.912 3.072 2.904 3.072 2.904l0.762-2.46 2.304 3.996 1.842-1.38c0.612 1.536 2.76 2.304 2.76 2.304l1.38-2.916s-1.686-3.222 0.462 0 4.452 2.754 4.452 2.754l0.768-2.298 3.072 3.222 1.686-2.448c1.692 5.976 3.678 8.592 3.678 8.592l1.08-0.456c0.456 4.146 1.842 6.444 1.842 6.444l1.224-3.528s0.618 3.222 1.23 6.294 1.686 4.602 1.686 4.602l0.612-2.766 2.304 4.758c4.602-31.764-9.06-46.206-14.124-52.344-5.07-6.144-16.728-10.29-24.564-10.746-7.83-0.456-6.594 7.83-0.612 11.352 4.674 2.766-3.066 8.91-3.066 8.91s-0.792-1.206-1.746-2.676l-0.096 0.06s-0.156 0.624 0.306 1.842c0.456 1.23 0.456 2.31 0.456 2.31l-1.074 0.15s-0.15 1.08-0.456 1.992c-0.306 0.924 0.456 2.154 0.456 2.154l-2.148-1.836-0.456 2.598-2.304-1.53-0.768 2.304-1.692-1.536-1.074 1.536-1.842-0.924-1.074 2.31-1.68-2.16-1.536 2.16-1.074-2.31-0.312 0.612-0.918-1.386-1.074 2.616s-0.768-1.992-1.842-2.148c-1.074-0.15-1.386-0.15-1.836-0.468-0.462-0.306-0.462-2.448-0.462-2.448l-1.536 0.456 1.536-6.75 0.156 0.15c-5.22-3.828-9.366-6.756-7.374-13.812 1.386-5.226-3.99-10.746-16.884 0.15-14.892 14.124-19.344 40.374-18.27 57.408l2.454-4.908 1.08 1.23 2.298-4.758 1.068 0.762s3.84-3.678 4.608-6.75 0.156 0.456 0.156 0.456l0.918 1.386s0.924 0.606 1.842-1.08c0.924-1.686 3.84-7.056 3.84-7.056s-0.462 2.91 1.23 3.528c0 0 1.986-0.606 3.678-3.678l1.224 1.842s2.922-1.23 3.534-2.922l0.768 2.46s3.066-2.154 4.452-4.296l1.38 3.066s1.998-1.23 2.916-3.222l3.378 2.448s-1.536 2.16 0.768 4.926c-0.306 1.836 0 5.214 0 5.214s-0.306 1.38-0.612 2.766c-0.312 1.38-0.618 2.61-0.462 4.29 0.15 1.686 0.768 3.222 2.61 3.528 1.842 0.312 2.454 0.768 4.452 1.086 1.998 0.306 3.528-0.162 5.22-0.618 1.68-0.456 2.298-2.148 2.148-3.378s-0.306-0.924-0.306-3.072c0-2.154-0.768-3.84 0.768-3.84s1.842-0.612 2.916 1.848c1.074 2.454 1.074 1.842 1.074 4.446 0 2.61 0 4.296 1.53 4.614 1.536 0.306 0.768 0.612 3.528 0.444 2.766-0.138 3.228-0.138 5.07-0.3 1.842-0.144 3.066-1.218 3.528-2.604 0.462-1.38 0.306-1.992 0.156-3.222-0.156-1.23 0.462 0.456-0.618-2.142-1.074-2.616-2.148-6.762-2.454-9.216-0.3-2.46-0.768-4.908-0.612-7.368" fill="#86473f"/>
   <path id="path196" d="m324.84 178.01v-6.444l31.776-0.57v6.444l-31.776 0.57" fill="#86473f"/>
   <path id="path198" d="m330.44 168.7s1.386 0.528-2.148 2.754c-3.528 2.226-5.832 2.304-5.832 4.296 0 1.998 0.384 2.076 0.384 2.076s1.074-0.078 2.148 0c1.074 0.072 2.226 0.306 2.766 0.072 0.534-0.222 1.38 0.924 2.682 0.618 1.308-0.3 2.688-0.996 2.688-0.996s-0.078 0 1.074 0.378c1.152 0.384 0.69 0.306 2.304 0 1.608-0.306 2.688-0.612 2.688-0.612s1.914-2.292-0.612-3.828c-2.538-1.536-3.612-1.77-3.996-2.076s-0.69-1.302-0.84-2.076" fill="#ffef6f"/>
   <path id="path200" d="m348.56 169.46s1.302 0.996-1.458 2.61c-2.766 1.608-4.608 0.996-4.836 3.294-0.198 1.956 0.384 2.532 0.384 2.532s1.152-0.234 2.226-0.306c0 0 0.456-0.15 1.074-1.302 0.612-1.146 2.454-2.61 2.454-2.61s0.768-0.39 0.234 1.77c-0.54 2.142 0.84 2.832 0.84 2.832l1.692-0.15s0.144-1.38 0.222-2.142c0.078-0.774 0-2.232 0-2.232s0.306-0.15 1.074 0.612c0.768 0.774 0.924 0.924 1.38 2.31 0.462 1.368 0.384 1.218 0.69 1.218 0.312 0 1.848-0.378 1.848-0.378s1.914-2.154 0.228-3.384c-1.692-1.218-4.374-2.064-5.448-4.44" fill="#ffef6f"/>
   <path id="path202" d="m356.87 174.72 8.604-2.088 0.216 0.738 2.55-2.124-3.288-0.396 0.192 0.678-8.544 2.064" fill="#ffef6f"/>
   <path id="path204" d="m356.91 177.18 12.132 2.892-0.144 0.762 3.246-0.738-2.76-1.842-0.132 0.696-12.072-2.898" fill="#ffef6f"/>
   <path id="path206" d="m357.15 176.02 15.708-0.174 0.048 0.702 2.958-1.524-3.132-1.086 0.048 0.75-15.654 0.186" fill="#ffef6f"/>
   <path id="path208" d="m376.4 269.32v-41.598h-75.948l0.054 36.066c1.692 0 3.072-0.15 5.526 1.386 2.46 1.536 3.222 2.142 4.908 2.46 1.686 0.306 1.686 0 3.534 0.762 1.836 0.774 0.918 0.924 2.916 0.774 1.992-0.168 3.528-0.624 4.758-0.168l54.246 0.318" fill="#ffef6f"/>
   <path id="path210" d="m325.07 276.08c1.23-0.606 1.842-0.762 2.916 0.156 0 0 0.924-4.29 1.074-5.22 0.156-0.912 1.842-5.526 1.842-5.526s0.156 1.836 0.3 4.92c0.156 3.06-0.45 4.44 1.536 4.908 1.998 0.456 3.228 0 3.228 0s-1.23-0.318-1.23-2.46-0.768-10.134-0.918-11.052c-0.15-0.924-0.15-2.46-0.15-2.46l0.606-2.448s1.23 0.15 2.766 0c1.536-0.162 2.148-0.774 2.76-0.774 0.618 0 1.386-0.306 1.386-0.306l0.306-1.062s-1.998-0.306-3.684-0.306c-1.692 0-3.228-0.624-3.228-0.624s-0.3-0.306-0.45-1.38c-0.156-1.068-1.536-2.298-1.536-2.298s0.606-0.612 0.606-1.536 0.768-1.38 0.156-2.46c-0.612-1.068-0.918-1.842-2.46-1.374-1.53 0.45-1.53 0.306-2.142 1.842s-0.306 1.374-0.156 2.142c0.156 0.762-0.15 1.08-0.15 1.08s-0.924-0.924-1.38-0.162c-0.462 0.774-0.924 1.23-0.924 1.23l-1.686 0.15-0.462-1.686s-0.306-0.762-0.462-1.686c-0.156-0.918-0.768-3.378-0.768-3.378l-1.074-1.23s-0.606 1.536-0.456 2.004c0.15 0.456 0.768 1.992 0.768 3.21v3.846s0 1.536 1.53 1.842c1.536 0.3 3.378 0.3 3.378 0.3s0.462 0.612 0.612 3.222c0.156 2.616 0 0.774 0.156 2.16 0.15 1.38-0.156 0.762-0.462 3.528s-1.074 6.138-1.38 7.356c-0.306 1.23-0.768 5.532-0.768 5.532" fill="#86473f"/>
   <path id="path212" d="m266.88 253.67-4.302 3.984s4.608 6.75 0.924 16.584c-3.684 9.816 0.612 12.888 0.612 12.888s-1.842-7.056 2.46-17.802c4.296-10.746 3.366-11.064 0.3-15.654" fill="#b37535"/>
   <path id="path214" d="m218.37 300.96c1.536-2.46 3.378-9.528-0.612-13.206l-0.924 0.924 0.312 8.892 0.918 2.16" fill="#b37535"/>
   <path id="path216" d="m224.82 282.22c2.148-8.592 0.306-10.446 2.148-21.492 1.842-11.052 0.612-22.41 5.22-20.874s10.44 4.608 9.516 11.658c-0.918 7.068-5.832 17.196-10.434 23.334-4.608 6.144-6.45 9.516-6.144 6.144" fill="#b37535"/>
   <path id="path218" d="m224.82 258.88c4.266-7.116-0.306-17.19 6.45-21.492 6.75-4.302 3.99-2.766 3.99-2.766s-11.67 1.23-12.282 15.048c-0.618 13.818 0.918 10.746 1.842 9.21" fill="#b37535"/>
   <path id="path220" d="m251.84 214.05c-6.432 17.706-8.598 24.258-5.22 27.648 3.378 3.372 8.598 3.066 13.512-4.302 4.914-7.374 7.674-17.496 8.286-19.956 0.618-2.46 0.312-3.996 5.532-1.842 5.22 2.148 11.97 4.608 15.042 5.52 3.072 0.924 5.826 0 5.52 10.44-0.3 10.44-1.836 9.21-1.218 14.442 0.606 5.214-0.618 9.816 2.454 10.734l-0.306-37.458s-14.742-5.832-16.89-7.368-5.526-18.12-10.134-26.706c-4.602-8.604-11.358-14.742-15.654-21.492-4.302-6.762-4.608-10.14-1.536-8.604s6.138 5.532 11.664 6.144c0 0-2.76-2.454-4.296-4.302-1.536-1.842-2.46-2.754-0.924-2.754s3.072 0.306 3.072 1.836c0 1.536-0.306 1.536 2.454 2.454 2.766 0.924 4.302 0 1.536-1.536-2.76-1.536-2.76-4.596-2.76-4.596s3.072 0.612 4.914 1.842c1.842 1.218 3.066 2.754 3.066 2.754l4.914-2.448s-1.23-0.624-3.99-0.624c-2.766 0-6.756-1.83-7.68-2.754-0.918-0.924-4.908-4.908-10.128-3.678s-6.45 3.066-6.45 3.066h-2.148l0.924 1.536s-1.536 1.218-1.848 4.29c-0.3 3.072 1.536 1.536 1.536 1.536s0.924 1.536 1.23 7.068c0.306 5.52-1.23 3.372-1.23 7.674s0.312 5.214 0.312 5.214 1.224-3.678 1.53 0.306c0.312 3.984-0.918 6.75 2.154 11.364 3.066 4.596 2.76 7.668 2.76 7.668l-3.072-3.072s2.154 0.612 0.306 7.068c-1.836 6.444 0.918 5.826 0.918 5.826s1.842 0.618 0.612 3.384c-1.224 2.766 1.536 0.912 1.536 0.912s0.924-0.606-0.306 2.766" fill="#b37535"/>
   <path id="path222" d="m230.34 146.2s4.608-3.06 8.598-2.148c3.99 0.93 6.138 4.914 6.138 4.914s-5.832 2.766-7.98 1.53c-2.148-1.23-6.756-4.296-6.756-4.296" fill="#b37535"/>
   <path id="path224" d="m216.22 133.61c5.22 0 7.674-0.912 8.598-5.214-0.306 4.302 2.148 4.302-8.598 5.214" fill="#b37535"/>
   <path id="path226" d="m224.51 125.63c-2.478 0 5.832-1.842 7.062-4.908 1.224-3.072 1.224-2.466 0 0.912-1.23 3.372-1.536 3.996-7.062 3.996" fill="#b37535"/>
   <path id="path228" d="m443.12 272.08c-5.46-8.568-4.914-10.428-5.22-16.872-0.306-6.456-2.148-6.762-0.306-11.064 1.842-4.29 10.134-6.75 11.976 0 1.842 6.762 3.99 10.44 0.306 18.42s-4.608 12.906-6.756 9.516" fill="#b37535"/>
   <path id="path230" d="m433.61 253.98s-3.072-2.766-7.986 5.52c-4.914 8.292-6.756 7.674-7.062 14.118-0.306 6.456 0.612 10.44 0.612 10.44l2.46-0.306s-1.842-6.75-0.612-10.134c1.224-3.372 3.99-8.892 7.368-11.964s5.526-5.226 5.526-5.226l-0.306-2.448" fill="#b37535"/>
   <path id="path232" d="m411.19 217.44s0.612 9.516 7.674 15.048c7.062 5.514 10.44 8.28 12.9 6.126 2.454-2.142 3.678-2.142 0.3-9.516-3.378-7.356-5.52-12.888-5.52-15.348v-9.216l2.142 3.39-0.3-9.834 1.842 1.23s-0.618-2.766-0.924-6.444c-0.306-3.69-0.306-5.838-0.306-5.838l2.148 2.148s-0.612-5.214-1.536-8.592c-0.918-3.372-0.612-1.842-0.612-1.842l2.454 1.524 0.924-6.75 1.23-7.98s0.918-0.912 1.536-5.832c0.606-4.914 0.918-6.144 0.918-6.144s1.53 0 5.214-0.606c3.684-0.612 8.292-3.684 8.292-3.684s-4.608-3.066-9.828-1.23c-5.22 1.842-6.45 1.842-6.45 1.842s-3.984-3.984-7.362-1.842c-3.378 2.148-5.526 4.302-8.904 4.608s-8.598-0.306-10.128 2.448c-1.536 2.766-3.072 4.92-0.312 5.838 0 0 0-3.684 1.842-4.302 1.842-0.612 4.608-1.536 4.608-1.536s5.526-0.306 7.98-1.842c2.454-1.53 3.99-2.754 6.444-2.448 2.46 0.306 4.608-0.924 2.766 2.448-1.842 3.39-4.908 3.996-4.908 3.996s2.448 0.612 0.606 3.996c-1.842 3.378-3.984 4.29-4.908 5.52-0.918 1.224-3.99 5.532-3.99 5.532l3.99-0.924-7.068 10.134 3.69-1.23-3.378 3.072 1.842 0.612-5.838 7.062s-0.3 2.148-3.066 5.22c-2.76 3.066-3.072 2.76-4.296 4.296s-2.454 3.684-2.454 3.684-2.766 4.296-7.674 6.138c-4.914 1.842-11.058 3.678-11.058 3.678s-1.224 4.302-0.918 14.742c0.306 10.446 0.306 14.73 0.306 14.73s1.23-0.606 1.536-9.21c0.306-8.586-2.766-16.566 5.832-18.42 8.598-1.842 14.124-4.29 20.268-4.596 6.138-0.3 7.674 0.918 4.602 2.454-3.072 1.53-4.296 1.836-4.296 1.836s1.842-1.836 2.148 1.842" fill="#b37535"/>
   <path id="path234" d="m370.66 195.02s-0.306-6.75 3.378-7.05c3.684-0.306 3.99-0.306 8.292 3.678 4.296 3.984 3.984 7.068 3.066 8.604l-4.296-7.068-10.44 1.836" fill="#b37535"/>
   <path id="path236" d="m420.71 132.08s6.144 0 7.062 2.46c0.918 2.454 2.46 10.128 2.46 10.128s3.678 2.154 6.138 0.618c2.454-1.53 1.224-1.53 4.296-3.384 3.066-1.842 13.2-6.144 13.2-6.144s-2.454-0.606-0.924-2.448c1.536-1.836-0.3 0.918-0.3 0.918s-5.22 2.766-7.368 3.066c-2.148 0.306-1.842-1.218-0.918-2.142l-6.756 1.842s-1.842-0.306-0.924-2.454c0.924-2.154 3.072-3.996 3.072-3.996s-3.99-1.23-4.914 2.766c-0.912 3.984-0.606 8.592-0.606 8.592h-2.454s-0.312-2.766-0.924-5.826c-0.612-3.072-3.072-9.528-3.072-9.528s0.924 3.39-0.306 4.926c-1.23 1.53-6.756 0.606-6.756 0.606" fill="#b37535"/>
   <path id="path238" d="m401.06 123.17s3.378 3.984 5.838 5.532c2.454 1.536 7.674 2.142 7.674 2.142l-3.684-8.592 0.612 6.132s-7.98-3.072-10.44-5.214" fill="#b37535"/>
   <path id="path240" d="m399.52 133.61s4.914 3.072 7.68 4.302v-2.766s2.76 2.766 7.362 4.602c4.602 1.842 5.832 1.536 13.2 0.918l-0.606 1.536s-7.368 0-11.052-0.612c-3.684-0.606-7.368-3.072-7.368-3.072l0.918 2.148s-0.612 0.606-2.76-0.306c-2.154-0.912-7.68-5.826-7.68-5.826" fill="#b37535"/>
   <path id="path242" d="m325.68 275.77s0.924-5.058 1.386-7.062c0.456-1.992 0.762-3.834 1.074-5.37 0.3-1.536 0.918-2.154 0.612-3.072-0.306-0.924-0.156-0.606-0.306-1.992-0.156-1.38-0.618-2.766-0.618-3.69 0-0.912-0.456-0.762 0.462-1.674 0.924-0.924 1.536-3.39 1.998-0.774s0.462 2.766 0.462 2.766l2.142-3.69 0.462 0.312-2.604 4.608s-0.462-0.624-0.462 1.686c0 2.298 0.606 3.528-0.156 3.984-0.768 0.468-0.612 1.386-0.15 1.692 0.456 0.3 0.306 0.456-0.462 2.46-0.768 1.992-1.38 4.452-1.692 5.832-0.306 1.374-0.918 3.834-0.918 3.834l-1.23 0.15" fill="#b37535"/>
   <path id="path244" d="m332.9 274.84s0.15 0.624-0.156-2.598c-0.306-3.24-0.768-6.462-0.768-6.462l0.618-1.992s-0.462 0.456 0.15 2.766c0.618 2.31 0.768 5.214 0.924 6.444 0.15 1.236 0.606 2.16 0.606 2.16l-1.38-0.306" fill="#b37535"/>
   <path id="path246" d="m333.05 247.52s-1.224 0-1.686-0.606c-0.462-0.612-0.924 0.15-0.924 0.15s-0.306 0.762 0 1.536c0.312 0.762 0.618 1.536 0.618 1.536h1.38l0.924-1.218-0.312-1.398" fill="#b37535"/>
   <path id="path248" d="m329.98 259.66s1.536 0.444 2.298 0.306l0.768-0.168-1.842 0.624h0.918l-2.448 1.524" fill="#b37535"/>
   <path id="path250" d="m321.99 247.82s0.924 0.624 0.924 2.31 1.38 3.678 1.38 3.678-1.842 0.624-2.148-0.912-0.156-5.076-0.156-5.076" fill="#b37535"/>
   <path id="path252" d="m327.06 125.01s4.908-7.356 1.992-10.122-3.378-2.46-3.378-2.46-0.612-0.456-0.612-1.536c0 0-0.924-0.15-2.304 0.15-1.38 0.306-1.536-0.912-0.918-2.904 0.612-2.004 2.76-3.69 6.6-2.154 0 0 1.974-1.782 5.22-0.612 3.834 1.38 7.212 3.072 9.21 8.286 1.998 5.226 2.454 5.532 3.534 7.068 0.576 0.816 1.902 2.832 3.012 4.53l-0.096 0.06s-0.156 0.624 0.306 1.854c0.456 1.218 0.456 2.298 0.456 2.298l-1.074 0.15s-0.15 1.08-0.456 1.992c-0.306 0.924 0.456 2.154 0.456 2.154l-2.148-1.836-0.456 2.598-2.304-1.53-0.768 2.304-1.692-1.536-1.074 1.536-1.842-0.924-1.074 2.31-1.68-2.16-1.536 2.16-1.074-2.31-0.312 0.612-0.918-1.374-1.074 2.604s-0.768-1.992-1.842-2.148c-1.074-0.15-1.386-0.15-1.842-0.456s-0.456-2.46-0.456-2.46l-1.536 0.456 1.536-6.75 0.15 0.15" fill="#fff"/>
   <path id="path254" d="m354.85 152.96c3.222 3.222 10.128 6.75 6.6 7.98 0 0-1.692 0.306-2.766-0.762-1.074-1.08 0.156 0.444 0.156 0.444s0 1.23-1.074 1.536c0 0-2.304-4.44-2.916-9.198" fill="#fff"/>
   <path id="path256" d="m343.8 163.54c-1.536 0-4.608 0.258-4.608-3.054 0-1.236-0.768-1.536 0.612-2.004 1.386-0.462 1.074-1.68 2.304 0.618 0 0 1.836 2.448 1.692 4.44" fill="#fff"/>
   <path id="path258" d="m321.96 243.38-0.114-0.15-0.012 0.012 0.126 0.138" fill="#fff"/>
   <path id="path260" d="m321.99 248.6v-0.306c0-1.218-0.612-2.766-0.768-3.222-0.066-0.21 0.018-0.63 0.138-1.044l-0.444 0.738 0.924 2.454 0.15 1.38" fill="#fff"/>
   <path id="path262" d="m329.64 269.06 1.5 0.012c-0.132-2.262-0.24-3.582-0.24-3.582s-0.714 1.956-1.26 3.57" fill="#fff"/>
   <path id="path264" d="m327.21 263.19c0.306-2.766 0.612-2.16 0.462-3.528-0.156-1.398 0 0.444-0.156-2.16-0.15-2.61-0.612-3.222-0.612-3.222s-1.842 0-3.378-0.3c-1.536-0.306-1.536-1.842-1.536-1.842v-1.866c-0.378 0.648-1.566 2.334-4.452 4.008-3.678 2.148-3.984 4.302-1.536 4.302 2.46 0 1.842-1.23 4.914 1.23 3.072 2.448 2.766 2.148-3.072 0.918-5.832-1.23-4.29-1.23-6.756-0.612-2.454 0.612-3.984 0.912-1.842 1.842 2.154 0.924 3.996 1.836 1.536 2.46-2.454 0.606-4.758 0.762-4.758 0.762 2.46 1.536 3.222 2.142 4.914 2.46 1.686 0.306 1.686 0 3.534 0.762 1.836 0.774 0.918 0.924 2.916 0.774 1.992-0.168 3.528-0.624 4.758-0.168l4.038 0.024c0.354-1.578 0.804-3.864 1.026-5.844" fill="#fff"/>
   <path id="path266" d="m372.5 243.23c-3.072 0.912-4.602 1.23-5.526-1.236-0.924-2.46-4.608-1.53-6.138-0.912-1.536 0.612-3.69 0.912-4.608 0.912s-4.296-2.142-2.454-2.76c1.842-0.612 0.918-4.914-4.296-3.072-5.22 1.836-9.21 1.23-5.526 2.766 3.678 1.536 5.832 3.996 1.536 5.214-4.296 1.23-5.832 2.766-7.368 3.072-1.536 0.3-1.23 0.924-3.072-1.842s-2.766-4.908-5.526-2.766c-2.766 2.154-2.148 3.996-3.378 4.908-1.23 0.93-2.148 0.93-2.148 0.93l-1.044-3.39c0.192 0.798 0.486 2.028 0.582 2.616 0.156 0.924 0.462 1.686 0.462 1.686l0.462 1.698 1.686-0.162s0.462-0.456 0.918-1.23c0.456-0.762 1.38 0.162 1.38 0.162s0.306-0.306 0.15-1.074c-0.15-0.762-0.456-0.612 0.156-2.148s0.612-1.38 2.148-1.842c1.536-0.468 1.842 0.306 2.46 1.374 0.612 1.08-0.156 1.536-0.156 2.46s-0.612 1.536-0.612 1.536 1.38 1.23 1.536 2.298c0.15 1.074 0.456 1.38 0.456 1.38s1.536 0.624 3.228 0.624c1.686 0 3.684 0.306 3.684 0.306l-0.306 1.062s-0.768 0.306-1.386 0.306c-0.612 0-1.224 0.612-2.76 0.774-1.536 0.15-2.766 0-2.766 0l-0.612 2.448s0 1.536 0.15 2.46c0.102 0.612 0.468 4.242 0.708 7.29l41.874 0.234v-27.63s-0.822 0.606-3.894 1.536" fill="#fff"/>
   <path id="path268" d="m338.42 326.13c-31.626 0.612-48.204-3.378-74.61-13.206-26.406-9.822-27.33 1.836-35.616 8.298l-3.156 4.278c0.648-0.294 1.26-0.576 1.86-0.858l0.372 0.258c26.406 24.258 53.424 48.972 111.15 49.278 56.19-0.612 81.366-25.326 107.77-49.584l0.42-0.318c0.63 0.306 1.272 0.612 1.95 0.918l-2.676-4.584c-8.292-6.456-11.364-15.666-32.856-7.686-26.412 9.81-42.984 13.818-74.61 13.206v13.512c48.336-0.27 67.368-9.186 79.83-14.862-15.6 12.624-36.792 32.196-79.83 30.972-43.194 1.224-67.692-18.198-83.37-30.792 13.044 5.61 34.674 14.412 83.37 14.682v-13.512" fill="#fff"/>
   <path id="path270" d="m361.56 269.3c0.78-0.876 1.248-2.052 1.248-3.312 0-2.79-2.256-5.052-5.046-5.052s-5.046 2.262-5.046 5.052c0 1.158 0.39 2.226 1.05 3.078" fill="#ffb935"/>
   <path id="path272" d="m340.16 267.12h11.4v-1.194h-11.4v1.194z" fill="#ffb935"/>
   <path id="path274" d="m351.53 264.72-10.002-1.212-0.108 0.918 9.996 1.206 0.114-0.912" fill="#ffb935"/>
   <path id="path276" d="m351.81 263.48-10.542-4.668-0.372 0.846 10.542 4.662 0.372-0.84" fill="#ffb935"/>
   <path id="path278" d="m352.55 262.3-8.652-5.154-0.468 0.786 8.652 5.154 0.468-0.786" fill="#ffb935"/>
   <path id="path280" d="m353.31 261.27-8.79-9.678-0.684 0.624 8.796 9.678 0.678-0.624" fill="#ffb935"/>
   <path id="path282" d="m354.48 260.5-5.832-8.214-0.75 0.528 5.826 8.226 0.756-0.54" fill="#ffb935"/>
   <path id="path284" d="m355.59 259.87-4.794-14.412-0.87 0.282 4.788 14.424 0.876-0.294" fill="#ffb935"/>
   <path id="path286" d="m356.96 259.65-1.998-9.882-0.906 0.192 2.004 9.864 0.9-0.186" fill="#ffb935"/>
   <path id="path288" d="m358.23 259.52 1.458-15.126-0.918-0.096-1.452 15.132 0.912 0.09" fill="#ffb935"/>
   <path id="path290" d="m359.58 259.84 2.166-9.834-0.9-0.198-2.166 9.846 0.9 0.186" fill="#ffb935"/>
   <path id="path292" d="m360.8 260.25 7.452-13.254-0.804-0.444-7.452 13.242 0.804 0.456" fill="#ffb935"/>
   <path id="path294" d="m361.89 261.1 5.964-8.106-0.744-0.552-5.958 8.118 0.738 0.54" fill="#ffb935"/>
   <path id="path296" d="m362.84 261.97 12.174-9.096-0.552-0.738-12.174 9.096 0.552 0.738" fill="#ffb935"/>
   <path id="path298" d="m363.5 263.2 8.736-5.016-0.456-0.798-8.736 5.004 0.456 0.81" fill="#ffb935"/>
   <path id="path300" d="m364.02 264.36 10.254-2.346-0.204-0.888-10.254 2.346 0.204 0.888" fill="#ffb935"/>
   <path id="path302" d="m364.12 265.75 10.02-1.05-0.096-0.918-10.02 1.044 0.096 0.924" fill="#ffb935"/>
   <path id="path304" d="m364.13 267.03 9.336 1.806 0.174-0.9-9.336-1.806-0.174 0.9" fill="#ffb935"/>
   <path id="path306" d="m338.19 95.469c20.262 0 42.138 5.058 58.716 13.812 0 0 1.614 0 2.766-2.304 1.152-2.298 1.614-2.532 1.614-2.532s9.21 8.058 13.806 9.678c0 0-2.07-4.38-2.07-9.444l11.052-3.222c-8.058-3.684-17.958-9.906-23.028-15.438-5.064-5.52-13.356-7.59-14.274-2.754-0.918 4.83-2.076 6.438-2.076 6.438s-19.338-7.596-46.512-7.596c-27.168 0-46.512 7.596-46.512 7.596s-1.152-1.608-2.076-6.438c-0.918-4.836-9.21-2.766-14.274 2.754-5.07 5.532-14.97 11.742-23.028 15.438l11.052 3.222c0 5.064-2.07 9.444-2.07 9.444 4.596-1.62 13.806-9.678 13.806-9.678s0.462 0.234 1.614 2.532c1.152 2.304 2.766 2.304 2.766 2.304 16.578-8.754 38.454-13.812 58.722-13.812" fill="#ef1439"/>
   <path id="path308" d="m250.15 149.26c2.454-0.15 3.684-1.368 5.832-0.606 2.148 0.774 3.222 1.38 4.914 2.916 1.68 1.536 0.918 0.762 0.918 0.762s-1.992-0.762-2.76 0.156c-0.768 0.924-3.534 1.074-4.452 0-0.924-1.068-0.618-1.536-1.842-1.842-1.23-0.306-1.842-0.156-3.534-0.762-1.686-0.624-1.686-0.774-1.686-0.774s2.916 0.456 3.99 0.624c1.074 0.138 1.842-0.168 2.61 0.756 0.768 0.918 0.462 0.774 1.074 0.306 0.606-0.456 1.074-1.23 1.536-0.924 0.456 0.306 1.68 0.162 1.224 1.23-0.462 1.08-0.306 1.08-0.306 1.08s0.456-0.306 1.224-0.456c0.768-0.156 1.074-0.156 1.074-0.156s-3.066-1.536-3.84-2.004c-0.756-0.456-1.524-0.606-3.066-0.456-1.53 0.15-2.91 0.15-2.91 0.15"/>
   <path id="path310" d="m275.02 154.65c-1.386-0.306-1.386 0.306-2.916 0.912-1.536 0.612-2.46 0.93-2.46 0.93s1.23 0.912 2.304 0.606 2.76-0.924 3.684-0.924l-0.612-1.536"/>
   <path id="path312" d="m232.49 146.35c1.998-0.912 1.692-1.068 4.302-0.606 2.604 0.456 3.984 0.3 5.364 2.154 1.38 1.842-2.604 1.536-3.678 0.912-1.074-0.606-5.832-1.536-6.45-2.46"/>
   <path id="path314" d="m410.73 159.48c-2.76 3.912-5.604 0.852-3.222-1.842 0.864-0.972 1.188-1.08 1.842-1.428 1.632-0.906 3.456-1.104 3.456-1.104s-2.994 0.984-4.032 2.25-0.174 1.146-0.402 2.016c-0.234 0.858-0.114 0.81 0.576 0.282 0.69-0.516 0.804 0.06 1.266-0.912 0.462-0.99 0.978 0.102 0.516 0.738"/>
   <path id="path316" d="m420.56 153.26c1.992-1.38 3.378-2.46 4.602-2.766 1.23-0.3 2.154-0.15 3.228 0.306 1.074 0.468 1.536 0.774 1.536 0.774l-2.61-0.306s-0.924 3.684-2.304 0.462l-2.304 0.762-2.148 0.768"/>
   <path id="path318" d="m435.75 151.73c0.768-0.612 0.612-0.93 2.454-1.386s2.148-1.08 3.378-0.774 3.534 0.774 3.534 0.774-1.692 1.386-4.608 1.386h-4.758"/>
   <path id="path320" d="m328.44 105.91c1.842 0.762 3.3 1.368 6.138 3.21 2.844 1.854 0.384 1.464-0.456 0.774-0.846-0.69-1.386-0.612-1.386-0.612s-1.152 1.218-1.842-0.3c-0.69-1.536 0.156-1.152-0.69-1.704-0.846-0.534-2.226-1.296-2.226-1.296l0.462-0.072"/>
   <path id="path322" d="m326.3 176.98c0-1.692-0.156-2.466 0.612-3.156 0.768-0.678 2.526-1.602 2.526-1.602s-1.296 0.222-1.68 2.226c-0.384 1.992-0.768 2.832-0.384 3.294l-1.23-0.072 0.156-0.69"/>
   <path id="path324" d="m332.51 177.52c0.306-0.3 0.69-0.768 0.306-1.836-0.384-1.08-0.918-2.31-0.54-2.532 0.384-0.234 0.618-0.39 0.846 0.912 0.234 1.302 0 2.688 0.846 3.528l-0.768-0.306-0.69 0.234"/>
   <path id="path326" d="m322.76 177.98 0.768 1.146 0.612-1.218"/>
   <path id="path328" d="m329.21 178.44s0.534 0.456 0.84 1.536c0.312 1.074 0.312 0.618 0.312 0.618s0.3-0.774 0.45-1.08c0.156-0.3 0.312-0.996 0.312-0.996l-1.92-0.078"/>
   <path id="path330" d="m336.12 178.05c0.306 0.468 0.768 1.704 0.768 1.704s0.078-0.306 0.462-0.774c0.384-0.462 0.528-1.302 0.528-1.302l-1.524 0.234"/>
   <path id="path332" d="m342.72 177.82c-0.15 0.39 0.384 1.686 0.384 1.686l1.002-1.686h-1.386"/>
   <path id="path334" d="m349.32 178.36 1.152 1.524 0.534-1.758-1.686 0.234"/>
   <path id="path336" d="m354.16 177.91 1.074 1.674s0.078-0.072 0.384-0.606c0.306-0.54 0.69-1.458 0.69-1.458l-2.148 0.39"/>
   <path id="path338" d="m340.73 254.28 0.768-4.452 0.456 0.156-0.612 4.452"/>
   <path id="path340" d="m340.26 256.12-1.686 13.206-0.768 1.386-0.618 0.3 0.462 0.462-0.912 3.372 1.218 0.306 0.618-3.984s0.612-1.08 0.918-2.31 1.38-12.888 1.38-12.888"/>
   <path id="path342" d="m325.07 276.08s1.686-0.912 2.76-0.15c1.08 0.774-0.15 1.23-0.762 1.23-0.618 0-1.998-1.08-1.998-1.08"/>
   <path id="path344" d="m335.97 275.47 0.306 0.456s-0.462 0.15-1.998 0.15-2.454-0.912-2.454-0.912"/>
   <path id="path346" d="m286.23 308.08-1.23-2.754-3.75 3.432 0.984-0.984-6.906-0.678s3.222 0.678 3.912 1.152c0.618 0.408 1.23 0.996 1.356 1.11l-0.282 0.258 5.916-1.536"/>
   <path id="path348" d="m221.44 322.52c1.842 0.234 5.526-0.234 6.216-0.69l-0.918 3.918-1.386 0.456-3.912-3.684"/>
   <path id="path350" d="m400.37 311 0.228-0.912-4.14-3.456-1.842 2.532 5.754 1.836"/>
   <path id="path352" d="m446.66 316.76 3.45 2.064-0.918 1.398-2.766-1.398 0.234 5.532-1.152-4.608-1.386-0.69 2.538-2.298"/>
   <path id="path354" d="m260.22 321.34c-0.174 0.516 0.15 0.948 0.63 1.116 0.456 0.138 0.954-0.072 1.11-0.54 0.228-0.702-0.294-1.116-0.768-1.464-0.384-0.282-0.714-0.528-0.924-0.96-0.21-0.426-0.246-0.978-0.102-1.41 0.348-1.068 1.482-1.548 2.514-1.218 0.996 0.33 1.626 1.452 1.284 2.46l-1.23-0.396c0.114-0.414-0.132-0.798-0.504-0.918-0.396-0.126-0.75 0.084-0.864 0.474-0.168 0.468 0.21 0.792 0.552 1.05 0.402 0.306 0.798 0.588 1.062 1.008 0.342 0.516 0.408 1.068 0.198 1.704-0.378 1.146-1.626 1.734-2.772 1.344-1.104-0.36-1.812-1.536-1.44-2.658l1.254 0.408"/>
   <path id="path356" d="m265.83 318.04 1.2 0.39-2.112 6.468-1.2-0.39 2.112-6.468"/>
   <path id="path358" d="m275.9 328.6c-0.618-0.15-1.152-0.528-1.53-1.032-0.618 0.168-1.392 0.108-2.016-0.09-1.866-0.588-2.994-2.556-2.394-4.458 0.3-0.924 0.864-1.662 1.716-2.094 0.858-0.444 1.866-0.516 2.778-0.222 1.878 0.594 3.018 2.55 2.4 4.5-0.264 0.828-0.708 1.416-1.44 1.86 0.156 0.168 0.42 0.33 0.636 0.402l0.192 0.054-0.342 1.08"/>
   <path id="path360" d="m280.2 322.61-1.218 4.068c-0.09 0.294-0.198 0.606-0.138 0.912 0.078 0.39 0.318 0.702 0.696 0.822 0.318 0.09 0.696 0.012 0.96-0.21 0.276-0.246 0.366-0.588 0.468-0.93l1.218-4.062 1.206 0.36-1.218 4.068c-0.192 0.642-0.426 1.23-1.002 1.614-0.576 0.378-1.32 0.528-1.98 0.33-0.618-0.186-1.164-0.714-1.434-1.29-0.312-0.678-0.186-1.296 0.018-1.98l1.218-4.062 1.206 0.36"/>
   <path id="path362" d="m288.13 324.94 3.012 0.804-0.318 1.176-1.95-0.516-0.402 1.512 1.848 0.492-0.312 1.182-1.854-0.492-0.402 1.512 1.95 0.516-0.318 1.182-3.162-0.84 0.456-1.704-1.746-0.456-1.476 1.422-1.416-0.378 6.096-5.412"/>
   <path id="path364" d="m293.1 326.16 1.926 0.408c0.618 0.156 1.212 0.318 1.614 0.846 0.396 0.504 0.552 1.182 0.42 1.806-0.108 0.492-0.462 1.038-0.864 1.332-0.396 0.282-0.84 0.378-1.32 0.378l1.266 2.844-1.518-0.324-1.194-2.922-0.546 2.544-1.236-0.27 1.452-6.654"/>
   <path id="path366" d="m298.57 327.28 1.242 0.234-1.212 6.696-1.242-0.222 1.212-6.708"/>
   <path id="path368" d="m301.46 332.75c-0.078 0.534 0.312 0.912 0.816 0.984 0.474 0.066 0.924-0.228 0.996-0.732 0.102-0.738-0.48-1.038-1.008-1.296-0.426-0.21-0.792-0.402-1.08-0.786-0.276-0.39-0.408-0.918-0.342-1.374 0.162-1.11 1.194-1.782 2.268-1.626 1.038 0.15 1.854 1.146 1.692 2.202l-1.29-0.186c0.048-0.426-0.258-0.762-0.654-0.822-0.408-0.048-0.72 0.222-0.768 0.624-0.078 0.492 0.348 0.75 0.732 0.936 0.45 0.234 0.888 0.444 1.224 0.81 0.426 0.456 0.582 0.984 0.486 1.638-0.174 1.194-1.302 1.98-2.496 1.818-1.146-0.18-2.052-1.206-1.878-2.382l1.302 0.192"/>
   <path id="path370" d="m308.58 335.56 0.546-6.786 1.596 0.132c0.654 0.048 1.272 0.072 1.8 0.504 0.528 0.42 0.816 1.098 0.762 1.782-0.048 0.666-0.378 1.29-0.942 1.662-0.594 0.408-1.386 0.306-2.052 0.246l-0.246-0.012-0.204 2.568-1.26-0.096"/>
   <path id="path372" d="m314.54 329.19 3.648 0.174-0.06 1.23-2.394-0.126-0.078 1.566 2.292 0.12-0.066 1.218-2.286-0.12-0.084 1.572 2.394 0.12-0.066 1.218-3.648-0.186 0.348-6.798"/>
   <path id="path374" d="m319.61 329.43 1.416 0.048 2.688 5.046 0.15-4.968 1.26 0.036-0.204 6.798-1.398-0.036-2.706-5.04-0.15 4.956-1.26-0.03 0.204-6.81"/>
   <path id="path376" d="m326.73 329.62 1.26 0.024-0.126 6.798-1.26-0.024 0.126-6.798"/>
   <path id="path378" d="m329.62 329.68 1.422 0.012 2.778 5.004 0.054-4.968 1.26 0.012-0.072 6.804-1.404-0.024-2.796-4.98-0.054 4.956-1.266-0.018 0.078-6.798"/>
   <path id="path380" d="m337.55 334.65c-6e-3 0.54 0.432 0.852 0.942 0.852 0.48 0 0.888-0.348 0.888-0.84 6e-3 -0.75-0.618-0.972-1.182-1.164-0.45-0.15-0.834-0.276-1.17-0.63-0.33-0.342-0.534-0.846-0.528-1.314 6e-3 -1.11 0.93-1.92 2.016-1.92 1.05 0.012 1.992 0.876 1.98 1.944h-1.302c-0.012-0.432-0.36-0.714-0.756-0.714-0.414 0-0.684 0.306-0.678 0.714-6e-3 0.492 0.444 0.69 0.852 0.834 0.48 0.162 0.936 0.306 1.32 0.63 0.486 0.39 0.714 0.894 0.708 1.548-6e-3 1.218-1.014 2.148-2.22 2.148-1.158-0.012-2.196-0.918-2.19-2.1l1.32 0.012"/>
   <path id="path382" d="m343.09 329.76 0.06 4.242c0 0.306-0.012 0.636 0.138 0.918 0.192 0.348 0.516 0.576 0.906 0.576 0.33-0.012 0.666-0.204 0.846-0.498 0.192-0.312 0.18-0.666 0.174-1.026l-0.06-4.242 1.26-0.012 0.06 4.242c0.012 0.666-0.036 1.308-0.474 1.848-0.432 0.528-1.098 0.894-1.788 0.906-0.648 0.012-1.32-0.33-1.752-0.798-0.504-0.564-0.57-1.182-0.582-1.902l-0.048-4.242 1.26-0.012"/>
   <path id="path384" d="m348 329.67 1.26-0.048 0.192 5.58 2.082-0.072 0.042 1.218-3.342 0.12-0.234-6.798"/>
   <path id="path386" d="m354.6 329.38 0.984-0.06 3.252 6.624-1.386 0.078-0.834-1.71-2.412 0.144-0.648 1.8-1.392 0.072 2.436-6.948"/>
   <path id="path388" d="m359.38 329.09 1.716-0.162 2.304 5.016 1.35-5.358 1.704-0.15 0.636 6.774-1.254 0.114-0.468-5.082-1.278 5.25-1.068 0.09-2.226-4.908 0.474 5.076-1.254 0.114-0.636-6.774"/>
   <path id="path390" d="m372.97 327.56 0.972-0.138 3.834 6.318-1.38 0.198-0.984-1.632-2.388 0.354-0.486 1.842-1.374 0.21 1.806-7.152"/>
   <path id="path392" d="m377.69 326.84 1.692-0.318 2.772 4.758 0.834-5.46 1.686-0.318 1.272 6.696-1.23 0.222-0.96-5.004-0.768 5.34-1.05 0.204-2.688-4.68 0.96 5.004-1.236 0.246-1.284-6.69"/>
   <path id="path394" d="m392.85 330.56-0.18-0.726c-0.318 0.666-1.224 1.206-1.92 1.386-1.878 0.456-3.726-0.762-4.182-2.604-0.456-1.884 0.606-3.798 2.502-4.266 0.708-0.174 1.74-0.114 2.34 0.354l-0.18-0.75 3.168-0.774 0.294 1.182-1.962 0.48 0.372 1.524 1.866-0.456 0.288 1.182-1.86 0.456 0.378 1.524 1.956-0.48 0.294 1.194-3.174 0.774"/>
   <path id="path396" d="m395.7 322.77 1.356-0.396 4.134 3.96-1.416-4.77 1.212-0.36 1.938 6.528-1.344 0.396-4.146-3.936 1.41 4.746-1.206 0.36-1.938-6.528"/>
   <path id="path398" d="m404.61 320.01 0.936-0.312 4.89 5.532-1.314 0.444-1.26-1.428-2.286 0.768-0.15 1.914-1.32 0.444 0.504-7.362"/>
   <path id="path400" d="m409.14 318.46 1.608-0.612 3.558 4.206-0.126-5.52 1.596-0.606 2.424 6.348-1.176 0.462-1.818-4.77 0.174 5.4-0.996 0.378-3.456-4.14 1.818 4.77-1.182 0.432-2.424-6.348"/>
   <path id="path402" d="m266.53 343.58c0.192-1.08 0.294-2.4-0.882-3.186-1.368-0.9-2.694 0.174-3.534 1.452-1.014 1.536-1.542 3.39-0.126 4.314 1.08 0.714 2.226 0.072 3.192-0.468l1.182 1.38c-1.278 1.008-3.264 1.41-5.49-0.072-2.52-1.662-3.624-4.272-1.86-6.948 1.764-2.658 4.608-2.67 6.804-1.218 0.966 0.636 1.2 1.194 1.368 1.608l0.36-0.258 1.038 0.69-0.39 3.33-1.662-0.612"/>
   <path id="path404" d="m269.9 351.1 0.378 0.222c0.708 0.402 1.236 0.648 1.632-0.072l2.526-4.44c0.402-0.702-0.078-1.032-0.786-1.428l-0.372-0.21 0.582-1.032 5.904 3.342-0.588 1.026-0.372-0.21c-0.708-0.396-1.236-0.63-1.638 0.072l-2.52 4.428c-0.396 0.714 0.072 1.044 0.78 1.446l0.378 0.222-0.588 1.02-5.898-3.354 0.582-1.032"/>
   <path id="path406" d="m280.72 357.11 0.396 0.162c0.744 0.33 1.296 0.516 1.62-0.234l2.022-4.686c0.324-0.738-0.18-1.02-0.93-1.35l-0.396-0.162 0.474-1.092 5.946 2.58c2.88 1.242 3.99 3.306 3.48 4.488-0.516 1.182-1.878 1.524-3.36 1.182l0.48 2.286c0.168 0.834 0.348 1.2 1.338 1.632l0.534 0.222-0.474 1.092-4.098-1.782-0.774-4.446-0.678-0.288-0.684 1.566c-0.324 0.75 0.156 1.008 0.798 1.29l0.414 0.186-0.468 1.08-6.114-2.634 0.474-1.092"/>
   <path id="path408" d="m306.81 361.59c-0.15-1.092-0.474-2.388-1.83-2.766-1.59-0.42-2.502 1.02-2.904 2.484-0.48 1.782-0.402 3.702 1.23 4.152 1.26 0.336 2.142-0.636 2.886-1.446l1.554 0.942c-0.894 1.356-2.658 2.352-5.238 1.65-2.904-0.798-4.776-2.928-3.936-6.012 0.834-3.096 3.534-3.996 6.078-3.294 1.11 0.294 1.512 0.75 1.794 1.08l0.27-0.354 1.2 0.33 0.678 3.282-1.782-0.048"/>
   <path id="path410" d="m319.74 360.42-0.15 1.17-0.414-0.048c-0.642-0.078-0.966 0.024-1.026 0.492l-0.606 4.734c-0.114 0.966 0.432 1.596 1.614 1.746 1.29 0.168 1.854-0.264 2.01-1.452l0.582-4.566c0.054-0.462-0.156-0.648-0.762-0.72l-0.684-0.09 0.15-1.176 5.124 0.66-0.15 1.17-0.576-0.072c-0.768-0.09-1.008 0.036-1.062 0.492l-0.63 4.914c-0.264 2.082-2.364 2.322-4.518 2.052-4.11-0.528-4.362-2.124-4.158-3.75l0.546-4.338c0.06-0.444-0.258-0.654-1.056-0.762l-0.414-0.048 0.15-1.182 6.036 0.774"/>
   <path id="path412" d="m330.19 369.52h0.432c0.81-0.012 1.392-0.054 1.386-0.864l-0.042-5.124c-6e-3 -0.804-0.588-0.852-1.398-0.84h-0.438l-6e-3 -1.188 5.832-0.042 2.136 5.046h0.036l2.052-5.082 5.772-0.048 6e-3 1.182h-0.426c-0.81 0.012-1.392 0.072-1.38 0.882l0.036 5.094c6e-3 0.822 0.582 0.87 1.392 0.858h0.438l6e-3 1.182-6.366 0.048-0.012-1.17 0.486-0.012c0.792 0 1.134-0.12 1.128-0.66l-0.036-5.274h-0.036l-2.94 7.14-1.224 0.012-3.072-7.152h-0.036l0.042 5.334c0 0.552 0.348 0.648 1.14 0.648h0.474l6e-3 1.17-5.382 0.048-6e-3 -1.188"/>
   <path id="path414" d="m351.54 367.14 1.422-0.726c0.882 0.63 2.64 1.698 4.44 1.416 1.032-0.15 1.644-0.69 1.584-1.08-0.09-0.582-0.696-0.726-1.95-0.924l-3.378-0.564c-1.368-0.234-2.238-1.008-2.4-1.92-0.24-1.548 1.362-3.084 3.594-3.432 0.942-0.144 1.836 0 2.262 0.114l0.018-0.3 1.248-0.204 1.914 2.298-1.44 0.738c-0.978-0.786-2.148-1.602-3.666-1.368-0.906 0.138-1.326 0.606-1.254 1.062 0.09 0.588 1.08 0.732 2.112 0.906l3.198 0.492c1.404 0.21 2.244 0.876 2.412 1.968 0.252 1.62-1.614 3.132-3.948 3.492-0.516 0.096-1.38 0.162-2.616-0.108l-0.03 0.354-1.464 0.234-2.064-2.46"/>
   <path id="path416" d="m367.53 365.91 0.42-0.12c0.786-0.21 1.326-0.408 1.116-1.194l-1.344-4.92c-0.21-0.786-0.786-0.684-1.566-0.468l-0.42 0.114-0.312-1.146 6.078-1.656c2.544-0.702 5.244-0.528 5.772 1.398 0.546 2.016-2.376 3.306-4.866 3.984l-0.768 0.21 0.456 1.65c0.21 0.786 0.78 0.696 1.566 0.474l0.678-0.192 0.312 1.152-6.81 1.848-0.312-1.134"/>
   <path id="path418" d="m383.81 361.1 0.402-0.138c0.762-0.294 1.284-0.54 1.002-1.302l-1.788-4.782c-0.282-0.762-0.846-0.612-1.602-0.33l-0.408 0.156-0.414-1.116 6.354-2.364 0.42 1.11-0.408 0.144c-0.762 0.276-1.284 0.534-1.002 1.296l1.788 4.782c0.288 0.762 0.846 0.612 1.608 0.33l0.402-0.15 0.414 1.098-6.354 2.382-0.414-1.104"/>
   <path id="path420" d="m401 348.76c-0.828-0.714-1.92-1.488-3.192-0.876-1.482 0.702-1.224 2.4-0.57 3.774 0.798 1.662 2.112 3.06 3.642 2.334 1.17-0.564 1.2-1.89 1.23-2.994l1.8-0.3c0.21 1.614-0.474 3.528-2.886 4.674-2.712 1.314-5.526 0.912-6.912-1.968-1.38-2.886 0.066-5.322 2.442-6.468 1.044-0.492 1.644-0.414 2.076-0.342l-0.03-0.444 1.122-0.54 2.652 2.04-1.374 1.11"/>
   <path id="path422" d="m409.53 349.52 0.36-0.246c0.672-0.444 1.116-0.804 0.666-1.488l-2.85-4.23c-0.456-0.666-0.966-0.396-1.638 0.06l-0.36 0.246-0.66-0.984 7.944-5.358 2.952 1.08-1.074 1.29c-1.614-0.69-3.162-0.072-4.716 0.972l-0.33 0.222 1.53 2.262 0.612-0.408c0.552-0.378 0.72-0.738 0.384-1.242l-0.21-0.306 1.38-0.924 2.094 3.102-1.374 0.93-0.222-0.33c-0.312-0.456-0.642-0.66-1.344-0.174l-0.612 0.408 1.584 2.346 0.51-0.342c1.974-1.326 2.61-2.202 2.874-4.254l1.548-0.552-0.048 3.282-8.334 5.634-0.666-0.984"/>
   <path id="path424" d="m283.55 94.239 4.488-1.56 0.522 1.5-2.94 1.02 0.666 1.92 2.814-0.972 0.522 1.5-2.814 0.972 0.666 1.92 2.94-1.02 0.522 1.512-4.488 1.56-2.904-8.352" fill="#fff"/>
   <path id="path426" d="m300 98.265-2.226-8.562 2.016-0.528c0.822-0.21 1.59-0.444 2.436-0.144 0.834 0.294 1.47 1.008 1.698 1.866 0.216 0.834 0.078 1.746-0.456 2.448-0.558 0.75-1.566 0.96-2.412 1.182l-0.312 0.072 0.84 3.246-1.584 0.42" fill="#fff"/>
   <path id="path428" d="m305.01 87.885 1.608-0.354 1.542 7.092 2.64-0.576 0.336 1.56-4.242 0.924-1.884-8.658" fill="#fff"/>
   <path id="path430" d="m312.57 86.337 0.93 5.448c0.066 0.402 0.114 0.81 0.366 1.152 0.306 0.408 0.768 0.63 1.278 0.552 0.426-0.084 0.822-0.39 0.99-0.81 0.18-0.432 0.09-0.894 0.012-1.35l-0.924-5.436 1.62-0.282 0.924 5.436c0.144 0.87 0.216 1.704-0.234 2.472-0.456 0.774-1.236 1.386-2.124 1.536-0.822 0.144-1.764-0.162-2.412-0.678-0.75-0.624-0.96-1.404-1.116-2.31l-0.924-5.448 1.614-0.27" fill="#fff"/>
   <path id="path432" d="m319.4 85.257 2.544-0.288c0.834-0.084 1.626-0.12 2.358 0.348 0.69 0.456 1.17 1.23 1.266 2.052 0.072 0.642-0.132 1.476-0.504 1.992s-0.882 0.834-1.464 1.032l2.754 2.976-2.01 0.222-2.694-3.102 0.384 3.372-1.626 0.186-1.008-8.796" fill="#fff"/>
   <path id="path434" d="m327.05 84.465 1.632-0.12 0.66 8.826-1.638 0.114-0.654-8.82" fill="#fff"/>
   <path id="path436" d="m331.15 84.171 1.602-0.048c0.804-0.024 1.614-0.096 2.37 0.258 0.738 0.354 1.278 1.116 1.302 1.944 0.024 0.69-0.276 1.386-0.912 1.722 0.978 0.27 1.542 1.08 1.578 2.088 0.024 0.864-0.342 1.608-1.014 2.142-0.678 0.54-1.578 0.612-2.424 0.66l-2.214 0.078-0.288-8.844" fill="#fff"/>
   <path id="path438" d="m340.61 84.027-0.144 5.508c-0.012 0.414-0.048 0.834 0.138 1.212 0.228 0.456 0.636 0.768 1.152 0.78 0.432 0.012 0.882-0.222 1.128-0.594 0.264-0.402 0.264-0.858 0.276-1.326l0.144-5.52 1.638 0.048-0.144 5.52c-0.024 0.876-0.114 1.698-0.708 2.376-0.594 0.66-1.476 1.104-2.376 1.08-0.834-0.012-1.698-0.492-2.232-1.122-0.63-0.75-0.678-1.56-0.654-2.49l0.144-5.514 1.638 0.042" fill="#fff"/>
   <path id="path440" d="m348.02 90.723c-0.06 0.702 0.48 1.146 1.14 1.206 0.618 0.048 1.182-0.378 1.236-1.02 0.078-0.96-0.714-1.326-1.422-1.62-0.57-0.234-1.056-0.444-1.458-0.936-0.396-0.468-0.606-1.134-0.558-1.746 0.12-1.44 1.398-2.4 2.808-2.298 1.362 0.12 2.496 1.338 2.37 2.718l-1.68-0.138c0.024-0.552-0.402-0.948-0.912-0.996-0.54-0.048-0.918 0.342-0.948 0.864-0.066 0.636 0.51 0.942 1.02 1.164 0.606 0.258 1.188 0.492 1.656 0.948 0.588 0.552 0.834 1.218 0.762 2.076-0.126 1.578-1.524 2.694-3.09 2.562-1.5-0.126-2.754-1.392-2.634-2.928l1.71 0.144" fill="#fff"/>
   <path id="path442" d="m364.08 86.361-1.038 5.424c-0.078 0.402-0.18 0.81-0.066 1.212 0.15 0.48 0.504 0.852 1.014 0.96 0.42 0.078 0.9-0.072 1.206-0.402 0.324-0.348 0.402-0.804 0.486-1.266l1.044-5.424 1.602 0.318-1.032 5.412c-0.168 0.858-0.39 1.656-1.086 2.238-0.696 0.564-1.638 0.846-2.52 0.678-0.822-0.15-1.596-0.768-2.022-1.488-0.498-0.828-0.414-1.65-0.24-2.55l1.038-5.418 1.614 0.306" fill="#fff"/>
   <path id="path444" d="m370.84 87.723 1.788 0.456 1.986 7.17 1.584-6.27 1.59 0.402-2.166 8.574-1.764-0.444-2.016-7.146-1.584 6.234-1.59-0.402 2.172-8.574" fill="#fff"/>
   <path id="path446" d="m381.79 90.675-1.638 5.274c-0.12 0.384-0.27 0.774-0.198 1.182 0.096 0.504 0.408 0.924 0.9 1.08 0.408 0.114 0.906 0.024 1.248-0.27 0.354-0.318 0.48-0.75 0.618-1.194l1.632-5.274 1.566 0.492-1.632 5.262c-0.264 0.828-0.576 1.602-1.332 2.094-0.75 0.48-1.716 0.672-2.58 0.402-0.792-0.246-1.5-0.942-1.836-1.704-0.402-0.888-0.228-1.686 0.042-2.562l1.632-5.274 1.572 0.492" fill="#fff"/>
   <path id="path448" d="m388.34 92.739 2.094 0.768-0.12 7.164 4.602-5.508 2.088 0.774-3.066 8.298-1.536-0.564 2.298-6.222-4.446 5.424-1.302-0.48 0.156-7.008-2.304 6.222-1.536-0.576 3.072-8.292" fill="#fff"/>
   <path id="path450" d="m300.05 219.5h0.534c0.828 0 1.416-0.066 1.416-1.23v-8.526c-1.542 0.21-2.082 1.062-3.204 2.832l-1.584-0.606 1.956-3.918h9.006l1.824 3.762-1.494 0.774c-0.828-1.368-1.656-2.532-3.3-2.844v8.526c0 1.164 0.594 1.23 1.422 1.23h0.534v1.704h-7.11v-1.704" fill="#fff"/>
   <path id="path452" d="m316.64 208.04v1.704h-0.426c-0.66 0-0.972 0.21-0.972 0.876v6.822c0 1.392 0.642 2.19 1.86 2.19 1.326 0 1.842-0.714 1.842-2.424v-6.576c0-0.666-0.24-0.888-0.87-0.888h-0.696v-1.704h5.268v1.704h-0.588c-0.792 0-1.014 0.246-1.014 0.888v7.092c0 3-2.1 3.714-4.314 3.714-4.23 0-4.692-2.226-4.692-4.572v-6.234c0-0.642-0.354-0.888-1.176-0.888h-0.42v-1.704h6.204" fill="#fff"/>
   <path id="path454" d="m323.79 219.5h0.444c0.828 0 1.416-0.066 1.416-1.23v-7.284c0-1.164-0.588-1.242-1.416-1.242h-0.444v-1.692h9.78l1.878 3.648-1.638 0.666c-0.978-2.112-2.634-2.622-4.548-2.622h-0.408v3.912h0.756c0.684 0 1.032-0.294 1.032-1.17v-0.528h1.692v5.364h-1.692v-0.582c0-0.786-0.168-1.29-1.032-1.29h-0.756v4.05h0.63c2.43 0 3.462-0.51 4.86-2.742l1.62 0.6-1.914 3.846h-10.26v-1.704" fill="#fff"/>
   <path id="path456" d="m337.07 219.5h0.444c0.828 0 1.416-0.066 1.416-1.23v-7.284c0-1.164-0.588-1.242-1.416-1.242h-0.444v-1.692h5.028c2.748-0.036 5.802 0.39 5.838 3.456 0.018 1.644-1.068 2.712-3.426 2.934v0.036c2.694 0.03 4.218 1.512 4.26 2.988 0 3.492-3.096 3.726-5.73 3.726h-5.97v-1.692" fill="#fff"/>
   <path id="path458" d="m356.2 207.8c3.906 0 5.508 3.39 5.508 6.81 0 3.432-1.602 6.822-5.508 6.822-3.072 0-5.484-2.238-5.484-6.822 0-4.56 2.412-6.81 5.484-6.81" fill="#fff"/>
   <path id="path460" d="m363.3 219.5h0.438c0.834 0 1.422-0.066 1.422-1.23v-7.284c0-1.164-0.588-1.242-1.422-1.242h-0.438v-1.692h6.612c3.204 0 5.082 2.064 5.082 3.906 0 1.836-1.14 3.054-2.67 3.456l1.38 2.73c0.492 0.984 0.804 1.356 1.914 1.356h0.588v1.704h-4.572l-2.514-5.382h-0.756v2.448c0 1.164 0.546 1.23 1.266 1.23h0.462v1.692h-6.792v-1.692" fill="#fff"/>
   <path id="path462" d="m274.68 326.07c0.474-0.258 0.804-0.702 0.972-1.23 0.39-1.23-0.282-2.568-1.518-2.964-0.612-0.186-1.266-0.12-1.836 0.186-0.486 0.246-0.936 0.726-1.104 1.254l-0.096 0.366 0.084 1.086c0.27 0.822 0.852 1.326 1.662 1.572 0.282 0.096 0.504 0.06 0.804 0.024l1.032-0.294" fill="#fff"/>
   <path id="path464" d="m286.98 328.59 0.45-1.686-1.47 1.416 1.02 0.27" fill="#fff"/>
   <path id="path466" d="m294.32 329.74c0.318 0.066 0.744 0.114 1.038-0.06 0.24-0.156 0.402-0.378 0.462-0.66 0.066-0.276 0-0.594-0.198-0.816-0.24-0.282-0.522-0.366-0.864-0.438l-0.684-0.138-0.432 1.968 0.678 0.144" fill="#fff"/>
   <path id="path468" d="m310.37 331.89c0.312 0.024 0.666 0.072 0.978 0 0.378-0.096 0.648-0.396 0.678-0.786 0.036-0.408-0.216-0.726-0.582-0.864-0.27-0.096-0.66-0.108-0.936-0.12l-0.228-0.024-0.144 1.77 0.234 0.024" fill="#fff"/>
   <path id="path470" d="m356.04 333.12-0.846-2.016-0.606 2.112 1.452-0.096" fill="#fff"/>
   <path id="path472" d="m387.81 328.33c0.294 1.206 1.494 1.944 2.694 1.656 1.194-0.294 1.878-1.524 1.59-2.712-0.294-1.194-1.458-2.022-2.694-1.722-1.284 0.33-1.896 1.536-1.59 2.778" fill="#fff"/>
   <path id="path474" d="m407 323.25-1.35-1.728-0.03 2.196 1.38-0.468" fill="#fff"/>
   <path id="path476" d="m287.31 355.77c1.14 0.492 2.562 0.858 3.036-0.246 0.45-1.038-0.69-1.848-2.046-2.436l-0.366-0.162-1.14 2.634 0.516 0.21" fill="#fff"/>
   <path id="path478" d="m371.31 360.9 0.66-0.174c1.116-0.306 2.226-0.918 1.938-1.962-0.318-1.17-1.836-1.038-3.018-0.714l-0.33 0.096 0.75 2.754" fill="#fff"/>
   <path id="path480" d="m374.74 331.17-1.02-1.932-0.42 2.142 1.44-0.21" fill="#fff"/>
   <path id="path482" d="m300.64 92.997c0.39-0.108 0.852-0.204 1.2-0.426 0.426-0.27 0.636-0.75 0.504-1.254-0.132-0.516-0.576-0.798-1.086-0.798-0.372-0.012-0.852 0.144-1.2 0.234l-0.294 0.072 0.582 2.238 0.294-0.066" fill="#ef1439"/>
   <path id="path484" d="m322.4 89.163c0.426-0.048 0.972-0.174 1.254-0.516 0.234-0.282 0.336-0.636 0.294-1.008-0.042-0.378-0.252-0.738-0.588-0.924-0.414-0.246-0.798-0.222-1.248-0.156l-0.906 0.096 0.3 2.598 0.894-0.09" fill="#ef1439"/>
   <path id="path486" d="m333.71 91.341c0.48-0.012 0.918-0.048 1.344-0.348 0.294-0.216 0.414-0.504 0.402-0.87-0.012-0.432-0.228-0.69-0.618-0.888-0.372-0.18-0.768-0.156-1.164-0.144l-0.72 0.024 0.072 2.262 0.684-0.024" fill="#ef1439"/>
   <path id="path488" d="m333.21 87.507c0.348-0.012 0.804-0.012 1.11-0.162s0.486-0.492 0.48-0.834c-0.012-0.36-0.252-0.642-0.576-0.762-0.318-0.126-0.732-0.054-1.08-0.042l-0.3 0.012 0.06 1.8 0.3-0.012" fill="#ef1439"/>
   <path id="path490" d="m342.5 213.54c1.122 0 2.004-0.738 2.004-1.746 0-1.206-0.828-1.872-2.076-1.872h-0.3v3.618h0.372" fill="#006fff"/>
   <path id="path492" d="m342.5 219.5c1.692 0 2.616-0.78 2.616-1.956 0-1.542-1.566-2.106-2.562-2.106h-0.426v4.062h0.372" fill="#006fff"/>
   <path id="path494" d="m356.2 219.63c1.59 0 1.974-2.754 1.974-4.968s-0.384-4.968-1.974-4.968c-1.56 0-1.95 2.754-1.95 4.968s0.39 4.968 1.95 4.968" fill="#006fff"/>
   <path id="path496" d="m368.93 214.01c1.272 0 2.748-0.324 2.748-2.046 0-1.62-1.404-2.04-2.916-2.04h-0.402v4.086h0.57" fill="#006fff"/>
   <path id="path498" d="m226.97 319.99s0.924 0.3 0.612 2.46c-0.306 2.142-1.224 4.59-3.066 3.054-1.842-1.53-3.378-3.678-4.608-4.59-1.23-0.924-1.536-0.924-1.23-3.69 0.312-2.766 1.536-12.894 0-15.66-1.53-2.766-1.842-5.832-1.53-8.598 0.306-2.766-0.924-3.984 0.612-5.52s6.138-5.838 6.138-13.206c0-7.374-4.296-13.2-4.296-13.2s-3.072 2.454-2.454-1.536c0.612-3.996-1.23-11.976 7.056-20.562 8.292-8.604 16.278-13.512 17.814-16.902 1.53-3.372 3.684-11.658 3.684-11.658l-1.842 0.912s0.306-2.766 0.612-3.984c0.3-1.23 0.918-3.678 0.918-6.444s-0.918-9.834-0.918-9.834l-2.148 1.23v-3.678s0-1.536-1.23-2.154c-1.23-0.612-2.148-1.23-1.842-2.766s0-3.378 0-3.378l-2.454 1.536s2.148-6.444 1.224-13.194c-0.918-6.762-0.612-12.588 0.618-15.666 0 0-7.986-1.218-9.522-7.056 0 0 1.536-1.536 4.302-2.766 2.76-1.218 7.362-1.218 11.97 2.154l1.032-0.54s-3.336-2.304-7.02-4.836c-3.678-2.532-5.406-4.722-5.406-4.722s-19.23 2.646-22.572-3.684c0 0 10.59 4.374 12.774-3.912l-6.324-4.254s12.888 6.33 14.388-11.754c0 0 1.608 3.12 0.462 8.988-1.152 5.874 4.602 12.318 4.602 12.318s0.804-1.608 0.804-3.912c0 0 0.81-0.696 2.076 4.488 0 0 6.678-3.108 6.102-16.35 0 0 1.038-2.646 1.038 0.924 0 3.564 0.576 8.052-3.57 15.66-0.69 1.488 0 2.88 0.798 3.324 0.81 0.468 1.614 0.93 1.842-0.102 0.234-1.044 0.69-3.798 0-6.222-0.69-2.418-0.108-1.608 0.462-0.918 0.576 0.696 2.304 1.842 2.304 6.672 0 1.158-0.348 1.968 1.728 0.468 2.07-1.5 3.336-3.456 4.602-5.64 1.266-2.19 1.728-2.07 0.69 0.576-1.032 2.634-2.298 5.52-0.576 4.488 1.728-1.032 8.52-5.754 10.482-9.444 1.956-3.678 2.412-2.988 1.38-0.12-1.038 2.886-1.266 4.266-3.456 6.342-2.184 2.064-2.532 2.19-0.114 1.266s7.368-2.646 9.21-6.108c1.842-3.456 2.994-4.836 2.304-2.412-0.69 2.412-1.728 4.254-0.114 3.912 1.608-0.348 7.254-2.646 9.786-6.336 0 0-2.304 7.836-10.476 11.634-8.178 3.798-11.4 4.254-11.4 4.254s5.754 0.468 6.906 0.81 2.994 1.032 0.114 1.266c-2.874 0.234-10.704-0.234-11.97 0.234-1.266 0.456-2.418 1.842-1.152 2.634 1.266 0.81 7.482 3.81 9.672 5.532 2.178 1.722 4.14 2.418 5.406 2.766 1.266 0.342 3.45 1.152 3.684 3.678 0.228 2.532 0.576 2.418-0.114 3.462-0.696 1.026-0.576 4.02-3.57 4.368-2.988 0.354-4.83 0-5.64 0.912-0.804 0.93-0.918 1.278-0.918 1.278m-40.98-42.15c-0.576-2.412 0-4.032 0.462-2.298 0.462 1.722 0.69 1.956 0.69 1.956m39.612 42.144s4.374 5.064 6.678 7.59c2.292 2.532 2.76 2.532 3.906 5.988 1.152 3.45 2.766 4.14 3.912 5.532 1.152 1.374 4.608 7.596 4.608 7.596s5.064-1.842 9.672-3.222c4.608-1.386 10.362-5.076 12.894-4.842 2.538 0.234 3.456 0.234 4.608 3.918 1.152 3.678 1.608 5.514 1.608 5.514m-22.56 13.14c-1.152 1.146-2.994 2.31-3.222 3.456s-0.924 4.842-0.924 4.842l9.444 3.9m-0.15 38.322c-2.082 0.348-5.712-1.428-5.148-4.464 0.69-3.684 1.152-5.064-0.228-6.684-1.38-1.602-0.924-2.058-0.462-7.356s2.076-11.742-1.38-11.976c-3.456-0.222-3.918-0.222-4.368 2.298-0.462 2.526-5.07 11.742-9.216 15.432-4.14 3.678-8.514 8.754-8.514 8.754s4.83 3.678 1.38 13.344c-3.456 9.684-5.988 14.274-3.684 20.04 2.304 5.754 4.374 8.742 7.83 12.438 3.45 3.678 3.684 4.368 6.678 4.602 2.982 0.222 5.754-0.234 6.9 2.988m-5.298 2.31s0-1.386-3.222-1.842-5.064-1.614-8.52-6.222c-3.456-4.602-3.684-4.83-7.14-6.444-3.456-1.608-4.836-2.988-5.988-4.608-1.146-1.602-1.38-3.222 0-9.432 1.386-6.222 2.994-5.988-2.526-9.678-5.526-3.678-8.058-5.298-8.058-5.298s-4.608 11.976-12.438 19.116c-7.83 7.134-8.292 5.766-8.982 13.356-0.69 7.596-1.608 14.964 0.462 17.73 2.076 2.766 3.456 3.678 3.456 3.678m58.026-92.796s-3.456-0.93-4.836-1.842c-1.386-0.924-2.538-1.146-5.532-0.924-2.988 0.234-8.748-3.222-8.748-3.222m20.262-5.754s-7.368-2.766-8.52-4.152c-1.152-1.38-4.14-5.064-4.14-5.064m10.59-13.578s0.924 1.146 1.842 5.298c0.924 4.134 2.076 5.976 1.842 8.28-0.228 2.298-0.69 3.45-0.69 3.45m-42.6 56.424s1.608-7.134 1.38-11.052c-0.228-3.912 1.614-7.134 1.614-7.134" fill="none" stroke="#000" stroke-width=".69"/>
   <path id="path500" d="m266.58 253.67s-3.228 3.444-4.38 4.134-2.07 3.222-6.216 4.374c-4.146 1.158-7.14 2.532-7.14 2.532m-24.642-137.39s3.69 1.536 5.838 4.452c0 0-3.99 0.462-3.228-2.61m13.512 4.146s-1.686 1.536-2.916-0.15m8.136 4.134s3.072 0.468 4.452 1.536c1.38 1.08 4.758 4.758 4.758 4.758m7.83-9.048s-3.84 1.992-5.064 3.06c-1.23 1.08-2.46 0.774-1.842 3.084 0.612 2.298 1.074 2.766 1.074 2.766m18.882 16.11s-2.454 0.762-4.296 1.23c-1.842 0.462-2.61 1.374-3.228 1.842-0.606 0.456-2.454 0.306-2.916 0.15m104.24 31.938c0.312-4.458 1.998-9.516 6.45-9.516s4.452 0.456 7.218 2.298c2.76 1.836 9.516 5.682 14.58 8.754 0 0 3.834-3.228 3.99-4.608 0.15-1.386 1.992-3.072 3.372-5.064 1.386-2.004 1.536-2.31 1.692-3.372 0.156-1.092-1.23-1.536-0.924-3.39 0.312-1.836-0.306-1.536 2.304-4.134 2.61-2.616 7.986-8.298 8.754-10.14 0.768-1.836 0-2.142-1.386-1.536-1.38 0.612-1.536 1.536-2.298 1.992-0.768 0.474-3.228 0.306-4.146-0.756-0.918-1.08-4.914-1.08-5.526-3.696-0.612-2.598-1.224-6.75 3.066-8.754 4.302-1.98 6.912-1.836 11.826-2.142 1.686-0.156 2.916-0.456 4.452-1.992 1.53-1.536 5.22-3.378 5.22-3.378s-19.194 2.454-27.486-8.13c-1.836-2.31-2.07-4.842 0-2.544 2.076 2.31 6.912 3.924 6.912 3.924s-0.69-3.69 0.462-2.766c1.152 0.918 5.982 6.45 20.034 5.298 0.456-3.912-2.304-6.456-13.818-8.064-11.514-1.614-12.204-6.222-13.356-8.28-1.152-2.076-0.69-3.462 1.842-0.93s9.672 5.532 9.672 5.532-1.38-3-1.38-5.298c0-2.304-0.462-3 2.07-0.468s7.14 6.684 9.21 6.918c2.076 0.234 5.298 2.07 3.456-2.532-1.842-4.608-2.766-8.976-1.614-12.438 1.152-3.456 1.386-3.222 1.614 0.228 0.228 3.456 3.912 10.134 7.368 6.912 3.45-3.222 3.912-2.766 5.064-2.076 1.146 0.69 2.76 0.93 3.912-0.912s1.842-3 1.842-3-0.234 6.444 6.45 0.69c2.76 2.31 4.602 2.766 6.216-0.924 1.608-3.678 2.532-1.842 1.38 1.158-1.152 2.988-8.982 9.444-14.736 12.66-5.76 3.234-5.298 5.07-5.298 5.07s5.064-1.836 7.368-2.988c2.304-1.158 4.836-2.07 2.532 0.456-2.298 2.532-2.07 3.918 1.614 1.386 3.684-2.544 7.14-5.766 5.988-3s-0.234 3.456 2.76 0.69c2.988-2.766 1.842-2.076 3.222-3.678 1.38-1.62 5.526-2.766 2.304 1.602-3.228 4.386-11.052 12.672-20.73 13.818-3.45 0.234-5.286 2.766-0.45 2.766 4.83 0 8.742 2.076 8.742 2.076s0.462 3.912-7.368 6.21c2.994 12.9 1.38 9.444 0 15.9-1.374 6.438-1.146 11.508-1.146 11.508l-2.304-0.234s-0.456 3.234-0.228 7.374l-1.842 0.456s-0.69 0.468 1.842 8.52l-1.842 1.146s-0.234 1.386 1.842 5.532c0 0-3.222 5.52-1.842 10.596 0 0-2.766-2.076-1.614 2.304m-0.216-6e-3s1.38 8.058 9.9 15.888 13.128 12.888 13.128 18.642c0.228 2.544-1.842 2.31-1.842 2.31s-1.386 4.374-3.684 9.444c-2.304 5.064-4.146 5.976-1.386 13.818 2.766 7.83 3.456 5.754 2.076 14.04-1.386 8.286-1.842 14.052-1.614 20.04s-0.228 4.59-1.602 5.52c-1.386 0.924-2.766 3.912-3.456 5.298-0.69 1.38-0.924 2.07-0.924 2.07l-1.842-6.678s2.766-2.298 3.456-8.52c0.69-6.21 2.532-18.876-4.836-29.238s-9.9-11.286-9.9-20.04v-4.146s-9.984 6.774-12.9 17.274c-1.152 4.146-0.228 6.222 0.234 8.286 0.456 2.082 1.152 1.614-1.614 5.76 0 0-6.678 7.14-8.52 11.052-1.842 3.918-2.766 8.052-5.76 8.052-2.988 0-1.974-0.12-2.988 1.158-1.842 2.298-1.842 2.298-1.842 2.298l-4.602-2.532s0.918-1.836 5.064-4.146c4.146-2.298 10.308-9.96 11.514-17.952 1.842-12.21-3.684-21.192-1.152-28.782 2.532-7.608 5.526-9.678 5.526-9.678s-15.654-8.982-18.648-13.35c-2.994-4.374-2.076-1.62-2.076-1.62l0.234 2.766s-2.532-3.456-3.456-7.368c-0.918-3.912 0-7.14-2.994-6.678-2.994 0.468-4.608-0.462-5.526 4.602-0.924 5.064-0.462 16.35 0.228 16.584s1.614 3.456-1.608 3.912c0.69 4.152 0.918 9.21-1.842 10.596m1.596-44.436 5.988-2.532-2.76-2.532m2.76 2.298 6.216-2.076s0.234-3.222 0.924-4.152c0.69-0.912-0.234-1.368 1.38-2.988 1.608-1.602 3.45-1.836 5.064-2.988 1.608-1.158 2.76-2.07 2.76-2.07" fill="none" stroke="#000" stroke-width=".69"/>
   <path id="path502" d="m398.52 198.4s0.234-2.088 1.152-3.69m1.842-2.532s1.152 2.07 3.222 0.222m1.842-9.906s0.462 1.164 2.538-1.134c2.07-2.31 2.988-3.69 2.988-3.69m-20.49 43.056s11.052-2.064 14.964-2.988c3.918-0.918 4.608-0.918 4.608-0.918m22.566 39.378s0.462-2.532-1.152-6.456m-24.408-84.978s1.842 1.386 3.456-0.222c1.608-1.614 3.222-3.678 7.134-2.766m24.948-7.284s-0.306-0.168-2.76 0c-2.46 0.138-4.146 0.138-4.146 0.138m-152.29 14.13c-1.074-17.034 3.378-43.284 18.27-57.408 12.894-10.908 18.27-5.376 16.884-0.162-1.992 7.062 2.154 9.984 7.374 13.812 0 0 4.902-7.356 1.986-10.122s-3.378-2.46-3.378-2.46-0.612-0.456-0.612-1.536c0 0-0.918-0.138-2.298 0.162-1.38 0.306-1.536-0.924-0.918-2.916 0.612-2.004 2.76-3.678 6.6-2.154 0 0 1.974-1.782 5.22-0.612 3.834 1.38 7.212 3.072 9.21 8.286 1.992 5.226 2.448 5.532 3.528 7.068 1.074 1.53 4.758 7.206 4.758 7.206s7.746-6.144 3.066-8.898c-5.976-3.528-7.212-11.82 0.618-11.364 7.83 0.468 19.494 4.614 24.564 10.746 5.064 6.138 18.726 20.58 14.124 52.344l-2.304-4.758-0.618 2.766s-1.074-1.53-1.68-4.602c-0.612-3.072-1.23-6.294-1.23-6.294l-1.224 3.528s-1.386-2.298-1.842-6.444l-1.08 0.456s-1.992-2.604-3.684-8.592l-1.68 2.46-3.072-3.222-0.768 2.298s-2.304 0.456-4.452-2.766-0.462 0-0.462 0l-1.38 2.916s-2.148-0.768-2.76-2.304l-1.842 1.392-2.304-3.996-0.768 2.46s-2.766-2.004-3.072-2.916l-0.918 3.222-2.298-1.842m-69.558 24.246 2.454-4.908 1.08 1.218 2.298-4.758 1.068 0.774s3.84-3.678 4.608-6.762c0.768-3.06 0.156 0.468 0.156 0.468l0.918 1.386s0.924 0.606 1.842-1.08c0.924-1.686 3.84-7.068 3.84-7.068s-0.462 2.922 1.23 3.54c0 0 1.986-0.618 3.678-3.678l1.224 1.842s2.922-1.236 3.534-2.922l0.768 2.448s3.066-2.142 4.452-4.284l1.38 3.066s1.998-1.23 2.916-3.222l3.378 2.448s-1.536 2.16 0.768 4.914c-0.306 1.836 0 5.226 0 5.226s-0.306 1.368-0.612 2.766c-0.312 1.368-0.618 2.598-0.462 4.29 0.15 1.686 0.768 3.222 2.61 3.528 1.842 0.312 2.454 0.768 4.452 1.074s3.528-0.15 5.22-0.606c1.68-0.468 2.298-2.16 2.148-3.39-0.15-1.218-0.306-0.912-0.306-3.06 0-2.154-0.768-3.84 0.768-3.84s1.842-0.612 2.916 1.836c1.074 2.466 1.074 1.842 1.074 4.458 0 2.61 0 4.296 1.53 4.602 1.536 0.306 0.768 0.612 3.528 0.456 2.766-0.15 3.228-0.15 5.07-0.3 1.842-0.156 3.066-1.23 3.528-2.604 0.462-1.38 0.306-1.992 0.156-3.222-0.156-1.23 0.462 0.456-0.618-2.154-1.074-2.604-2.148-6.75-2.454-9.204-0.3-2.46-0.768-4.92-0.612-7.38m-67.074 19.044c0.768-1.386 1.386-18.27 5.532-27.33m-2.304 23.94c0.612-1.536 1.686-16.266 5.22-21.948m1.074 15.048c0.612-4.302 0.768-6.918 3.222-12.738m2.916 7.662 1.23-4.44m3.684 3.996 0.924-2.31m82.746 20.412s-0.312-5.988-1.074-10.746c-0.768-4.758-1.386-6.594-1.386-6.594m-1.224 9.516s-0.306-4.302-0.924-8.136c-0.612-3.84-1.992-7.218-1.992-7.218m0.15 12.132s-1.38-8.286-3.222-13.968m-1.692 5.988c-0.768-2.766-2.76-7.98-2.76-7.98m-1.842 6.9-1.842-5.52m-4.302 4.134-1.224-2.76m-40.992-16.89-1.536 6.75 1.536-0.444s0 2.142 0.462 2.448c0.456 0.306 0.768 0.306 1.842 0.456 1.074 0.156 1.842 2.16 1.842 2.16l1.068-2.616 0.918 1.386 0.312-0.612 1.074 2.298 1.536-2.148 1.686 2.148 1.074-2.298 1.842 0.912 1.068-1.536 1.692 1.536 0.768-2.298 2.304 1.536 0.456-2.61 2.148 1.836s-0.762-1.23-0.456-2.142c0.306-0.924 0.456-1.992 0.456-1.992l1.074-0.162s0-1.068-0.456-2.298c-0.462-1.218-0.306-1.842-0.306-1.842" fill="none" stroke="#000" stroke-width=".69"/>
   <path id="path504" d="m325.07 110.74s1.998-0.306 5.064 1.23m-32.082 20.868c0 1.698-0.306 4.152 3.378-0.762m-2.304-4.452c0 1.686-0.306 4.146 3.378-0.774m-0.306 6.15c0 1.68-0.312 4.14 3.372-0.768m1.386-2.616c0 1.686-0.312 4.146 3.378-0.762m-5.22-2.004c0 1.698-0.306 4.146 3.378-0.762m-5.682-5.532c0 1.698-0.306 4.152 3.378-0.762m-0.156 17.496c0 1.704-0.306 4.152 3.378-0.762m1.842-9.984c0 1.704-0.306 4.152 3.378-0.762m-1.38 7.218c0 1.68-0.306 4.14 3.378-0.768m-2.922 7.218c0 1.686-0.306 4.134 3.378-0.774m2.46-3.528c0 1.686-0.306 4.146 3.378-0.762m-15.966-0.924c0 1.686-0.312 4.134 3.378-0.762m-12.438-9.222c0 1.698-0.306 4.146 3.378-0.762m-6.6 6.75c0 1.698-0.306 4.146 3.378-0.762m5.526-12.132c0 1.686-0.306 4.152 3.378-0.774m72.462 17.04c0 1.698 0.306 4.152-3.378-0.762m2.298-4.452c0 1.686 0.312 4.146-3.372-0.774m0.306 6.15c0 1.68 0.306 4.14-3.378-0.768m-1.38-2.616c0 1.686 0.306 4.146-3.378-0.762m5.22-2.004c0 1.698 0.306 4.146-3.378-0.762m5.676-5.532c0 1.698 0.312 4.152-3.378-0.762m0.156 17.496c0 1.704 0.306 4.152-3.378-0.762m-1.842-9.984c0 1.704 0.306 4.152-3.378-0.762m1.38 7.218c0 1.68 0.312 4.14-3.372-0.768m2.916 7.218c0 1.686 0.306 4.134-3.378-0.774m-2.46-3.528c0 1.686 0.312 4.146-3.378-0.762m15.972-0.924c0 1.686 0.306 4.134-3.378-0.762m12.432-9.222c0 1.698 0.306 4.146-3.378-0.762m6.6 6.75c0 1.698 0.312 4.146-3.372-0.762m-5.532-12.132c0 1.686 0.312 4.152-3.372-0.774m-15.66 37.164c3.222 3.222 10.128 6.75 6.6 7.98 0 0-1.692 0.306-2.766-0.762-1.074-1.08 0.156 0.444 0.156 0.444s0 1.23-1.074 1.536m-13.968 1.38c-1.536 0-3.69 0.168-4.608-3.054m-8.754 8.214s1.386 0.528-2.148 2.754c-3.528 2.226-5.832 2.304-5.832 4.296 0 1.998 0.384 2.076 0.384 2.076s1.074-0.078 2.148 0c1.074 0.072 2.226 0.306 2.766 0.072 0.534-0.222 1.38 0.924 2.682 0.618 1.308-0.3 2.688-0.996 2.688-0.996s-0.078 0 1.074 0.378c1.152 0.384 0.69 0.306 2.304 0 1.608-0.306 2.688-0.612 2.688-0.612s1.914-2.292-0.612-3.828c-2.538-1.536-3.612-1.77-3.996-2.076s-0.69-1.302-0.84-2.076m14.814 0.156s1.302 0.996-1.458 2.61c-2.766 1.608-4.608 0.996-4.836 3.294-0.198 1.956 0.384 2.532 0.384 2.532s1.152-0.234 2.226-0.306c0 0 0.456-0.15 1.074-1.302 0.612-1.146 2.454-2.61 2.454-2.61s0.768-0.39 0.234 1.77c-0.54 2.142 0.84 2.832 0.84 2.832l1.692-0.15s0.144-1.38 0.222-2.142c0.078-0.774 0-2.232 0-2.232s0.306-0.15 1.074 0.612c0.768 0.774 0.924 0.924 1.38 2.31 0.462 1.368 0.384 1.218 0.69 1.218 0.312 0 1.848-0.378 1.848-0.378s1.914-2.154 0.228-3.384c-1.692-1.218-4.374-2.064-5.448-4.44m-75.834-65.484s-1.614-3.918-2.532-5.988c-0.924-2.064-3.456-4.14 2.07-6.45 5.526-2.292 14.97-3.222 14.28-9.198m-17.964 12.66c1.152 2.526 2.07 1.836 5.298 0.456 3.216-1.386 10.128-4.608 14.958-6.21m46.758 5.988c20.262 0 42.138 5.058 58.716 13.812 0 0 1.614 0 2.766-2.304 1.152-2.298 1.614-2.532 1.614-2.532s9.21 8.058 13.806 9.678c0 0-2.07-4.38-2.07-9.444l11.052-3.222c-8.058-3.684-17.958-9.906-23.028-15.438-5.064-5.52-13.356-7.59-14.274-2.754-0.918 4.83-2.076 6.438-2.076 6.438s-19.338-7.596-46.512-7.596c-27.168 0-46.512 7.596-46.512 7.596s-1.152-1.608-2.076-6.438c-0.918-4.836-9.21-2.766-14.274 2.754-5.07 5.532-14.97 11.742-23.028 15.438l11.052 3.222c0 5.064-2.07 9.444-2.07 9.444 4.596-1.62 13.806-9.678 13.806-9.678s0.462 0.234 1.614 2.532c1.152 2.304 2.766 2.304 2.766 2.304 16.578-8.754 38.454-13.812 58.722-13.812h6e-3z" fill="none" stroke="#000" stroke-width=".69"/>
   <path id="path506" d="m401.06 104.21s1.614-3.918 2.538-5.988c0.918-2.064 3.45-4.14-2.076-6.45-5.526-2.292-14.97-3.222-14.274-9.198m17.958 12.66c-1.152 2.526-2.07 1.836-5.298 0.456-3.222-1.386-10.128-4.608-14.964-6.21m-50.316 81.912 13.698-0.246m4.032-0.084 4.26-0.066v3.222m-2.31 3.27-3.102 0.042m-2.418 0.048-3.918 0.084m-2.412 0.036-4.608 0.078m-13.008-4.368v-1.842l3.336-0.06m1.5-1.356s-1.998-0.762-2.766-1.23c-0.768-0.456-2.61-0.762-2.61-0.762s0.066-0.342 0.054-0.87c0.096-0.21 0.156-0.432 0.156-0.678 0-0.444-0.18-0.846-0.48-1.134-0.192-0.564-0.492-1.176-0.96-1.77-1.686-2.148-2.304-1.992-5.37-2.766-3.072-0.762-5.22-1.992-5.22-1.992s-0.606 2.142 2.61 3.372c3.222 1.23 6.6 3.072 6.6 3.072s-0.306 1.23-2.454 1.08c-0.408-0.024-0.84-0.096-1.284-0.216 0.072-0.174 0.108-0.36 0.108-0.558 0-0.894-0.708-1.596-1.59-1.596-0.684 0-1.26 0.432-1.488 1.044-0.948-0.48-1.824-1.032-2.502-1.596-1.692-1.38-4.758-2.916-7.362-2.916 0 0 1.218 0.924 3.216 2.46 0.708 0.54 1.506 1.182 2.25 1.782-0.852 0.024-1.536 0.714-1.536 1.584 0 0.114 0.018 0.234 0.036 0.348-1.05-0.198-1.326-0.558-2.256-1.122 0.018-0.108 0.03-0.198 0.03-0.294 0-0.894-0.714-1.608-1.596-1.608-0.54 0-1.026 0.282-1.32 0.708-0.342-0.036-0.792-0.084-1.44-0.168-2.454-0.306-4.908 0-4.908 0s0.768 0.762 1.842 1.068c1.068 0.318 2.448 0 2.76 1.38 0.186 0.858 0.084 1.068 0.012 1.644-0.054 0-0.114 0-0.174 0.012 0.036-0.144 0.066-0.282 0.066-0.432 0-0.882-0.708-1.596-1.59-1.596-0.876 0-1.59 0.714-1.59 1.596 0 0.198 0.036 0.384 0.102 0.546-0.204-0.09-0.426-0.138-0.66-0.138-0.882 0-1.596 0.714-1.596 1.584 0 0.888 0.714 1.59 1.596 1.59 0.876 0 1.59-0.702 1.59-1.59 0-0.192-0.036-0.378-0.102-0.54 0.204 0.078 0.426 0.138 0.66 0.138 0.108 0 0.216-0.012 0.318-0.024-0.042 0.132-0.066 0.282-0.066 0.426 0 0.828 0.636 1.506 1.452 1.578-0.108 0.672-0.57 0.6-1.854 1.35-1.848 1.08-5.376 3.996-5.376 3.996s2.61-0.774 4.452-1.23 3.378-0.93 3.99-2.616 2.142-3.372 2.142-3.372 0.24-0.21 0.588-0.444c-0.018 0.09-0.03 0.186-0.03 0.276 0 0.882 0.714 1.596 1.596 1.596 0.876 0 1.59-0.714 1.59-1.596 0-0.162-0.03-0.324-0.084-0.48 0.534 0.246 0.948 0.492 0.948 0.492s0.156 2.46-1.38 3.996c-1.536 1.524-4.758 3.528-4.758 3.528s3.222 0.456 5.064-0.924c1.842-1.386 1.686-2.142 2.61-3.834 0.918-1.698 1.686-2.004 1.686-2.004s0.312 0 0.852-0.036c-0.09 0.204-0.138 0.426-0.138 0.648 0 0.876 0.714 1.59 1.59 1.59 0.114 0 0.222-6e-3 0.33-0.03-0.186 0.15-0.396 0.3-0.636 0.444-2.304 1.38-4.302 3.678-4.302 3.678s1.536 1.08 4.146-1.068c2.61-2.142 3.228-3.528 4.608-4.146 1.38-0.612 3.072-0.15 3.072-0.15s-0.462 1.992-3.228 3.522c-2.76 1.536-4.602 3.846-4.602 3.846s1.992-0.15 3.684-1.08c1.68-0.912 3.678-2.142 3.678-2.142m3.078-15.366-1.842-1.23s-0.156 2.16 1.224 4.458m31.956 11.484 8.604-2.088 0.216 0.738 2.55-2.124-3.288-0.396 0.192 0.678-8.544 2.064m0.318 3.588 12.132 2.892-0.144 0.762 3.246-0.738-2.76-1.842-0.132 0.696-12.072-2.898m-0.036-0.036 15.708-0.174 0.048 0.702 2.958-1.524-3.132-1.086 0.048 0.75-15.654 0.186m-18.702 124.45s-26.058-6.984-32.238-8.532c-6.198-1.542-5.736-4.332-5.736-7.59v-55.476h75.948v55.476c0 3.258 0.462 6.048-5.736 7.59-6.174 1.548-32.232 8.532-32.232 8.532m-6.222 14.436s7.14-2.376 4.986-6.36c-2.148-3.996 0-4.608 1.536-4.608" fill="none" stroke="#000" stroke-width=".69"/>
   <path id="path508" d="m324.3 308.08s1.536-5.598 5.22-3.138c3.678 2.46 3.378 3.762 0.3 6.528m26.184-4.842 0.228-2.916c7.368 0.606 11.67 0 18.114-3.984-12.282 3.984-19.344-0.624-19.344-0.624s13.512-3.678 18.426-4.896c4.902-1.23 7.974-2.46 7.974-8.91v-62.028c0-19.638 7.368-17.496 7.368-17.496l-7.98-12.888c-20.268 7.056-24.564-5.85-42.066-5.85s-21.792 12.906-42.066 5.85l-7.974 12.888s7.362-2.142 7.362 17.496v62.028c0 6.45 3.072 7.68 7.986 8.91 4.908 1.218 18.42 4.896 18.42 4.896s-7.062 4.608-19.344 0.624c6.45 3.984 10.746 4.602 18.114 3.984l0.306 3.15m25.8 4.218c-3.072-2.766-3.072-3.678 0.612-6.138s5.07 2.766 5.07 2.766m-14.28-4.926c1.536 0 3.684 0.624 1.536 4.608-2.148 3.996 4.452 6.222 4.452 6.222m-44.214-49.818c1.692 0 3.072-0.15 5.526 1.386 2.46 1.536 3.222 2.142 4.914 2.448 1.68 0.306 1.68 0 3.534 0.774 1.836 0.762 0.912 0.924 2.91 0.762 1.992-0.156 3.528-0.612 4.758-0.156 1.224 0.474 3.528 1.08 3.528 1.08m9.528 2.616s0.456 0.3 2.76 0.762c2.304 0.468 0.462-0.462 3.072 0 2.61 0.468 2.304 0.774 4.296 1.53 1.992 0.774 3.228 1.08 3.228 1.08s1.524 0.156-2.46 0.924c-3.99 0.762-5.37 1.374-6.906 1.842-1.536 0.456-7.062 1.068-11.976 1.536-4.914 0.456-7.674 0.306-11.664 0.912-3.996 0.624-5.988 0.156-8.598 0.624-2.61 0.456-6.6 1.068-6.6 1.068m75.684-13.806h-41.412m-3.63 0h-1.554m-3.456 0h-3.588m2.67 6.9c1.23-0.606 1.842-0.762 2.916 0.156 0 0 0.924-4.29 1.074-5.22 0.156-0.912 1.842-5.526 1.842-5.526s0.156 1.836 0.3 4.92c0.156 3.06-0.45 4.44 1.536 4.908 1.998 0.456 3.228 0 3.228 0s-1.23-0.318-1.23-2.46-0.768-10.134-0.918-11.052c-0.15-0.924-0.15-2.46-0.15-2.46l0.606-2.448s1.23 0.15 2.766 0c1.536-0.162 2.148-0.774 2.76-0.774 0.618 0 1.386-0.306 1.386-0.306l0.306-1.062s-1.998-0.306-3.684-0.306c-1.692 0-3.228-0.624-3.228-0.624s-0.3-0.306-0.45-1.38c-0.156-1.068-1.536-2.298-1.536-2.298s0.606-0.612 0.606-1.536 0.768-1.38 0.156-2.46c-0.612-1.068-0.918-1.842-2.46-1.374-1.53 0.45-1.53 0.306-2.142 1.842s-0.306 1.374-0.156 2.142c0.156 0.762-0.15 1.08-0.15 1.08s-0.924-0.924-1.38-0.162c-0.462 0.774-0.924 1.23-0.924 1.23l-1.686 0.15-0.462-1.686s-0.306-0.762-0.462-1.686c-0.156-0.918-0.768-3.378-0.768-3.378l-1.074-1.23s-0.606 1.536-0.456 2.004c0.15 0.456 0.768 1.992 0.768 3.21v3.846s0 1.536 1.53 1.842c1.536 0.3 3.378 0.3 3.378 0.3s0.462 0.612 0.612 3.222c0.156 2.616 0 0.774 0.156 2.16 0.15 1.38-0.156 0.762-0.462 3.528s-1.074 6.138-1.38 7.356c-0.306 1.23-0.768 5.532-0.768 5.532zm3.84-4.908 2.298 0.774m-13.62 39.864c5.754 4.608 8.172 4.266 14.622 13.008-2.994-7.824-3.684-9.666-7.83-13.122 6.906 4.836 8.982 4.836 14.046 12.9-11.286-33.618-57.108-15.654-69.312-10.596 15.888-3.69 27.864 1.152 34.08 8.754 0 0-2.766-7.368-5.526-10.59 10.59 6.444 10.362 5.754 15.888 11.742 0 0-3.912-9.444-4.608-11.286 8.292 2.298 14.508 11.742 14.508 11.742s-2.646-7.488-5.868-12.552zm41.676 0c-5.754 4.608-8.172 4.266-14.622 13.008 2.994-7.824 3.684-9.666 7.83-13.122-6.906 4.836-8.982 4.836-14.046 12.9 11.286-33.618 57.108-15.654 69.312-10.596-15.888-3.69-27.864 1.152-34.08 8.754 0 0 2.766-7.368 5.526-10.59-10.59 6.444-10.362 5.754-15.888 11.742 0 0 3.912-9.444 4.608-11.286-8.292 2.298-14.508 11.742-14.508 11.742s2.646-7.488 5.868-12.552zm86.622 8.79c-8.286-6.444-11.358-15.654-32.85-7.674-26.412 9.81-42.984 13.818-74.61 13.206-31.626 0.612-48.204-3.378-74.61-13.206-26.4-9.822-27.324 1.836-35.61 8.298m219.22 3.678c-8.904-3.984-11.97-7.374-24.558-2.148-12.594 5.22-29.784 16.572-84.438 16.89-54.654-0.306-75.228-11.37-87.816-16.584s-15.654-1.836-24.558 2.148" fill="none" stroke="#000" stroke-width=".69"/>
   <path id="path510" d="m418.86 324.28c-15.654 12.588-36.84 32.7-80.442 31.464-43.602 1.236-68.166-18.57-83.82-31.158m191.59 0c-26.406 24.246-51.582 48.972-107.77 49.584-57.726-0.306-84.744-25.02-111.15-49.278m97.794-214.16s1.998-0.306 5.064 1.23" fill="none" stroke="#000" stroke-width=".69"/>
  </g>
 </g>
</svg>
