<?xml version="1.0" encoding="UTF-8"?>
<!-- Created with Inkscape (http://www.inkscape.org/) -->
<svg id="svg166" width="750" height="500" version="1.0" xmlns="http://www.w3.org/2000/svg" xmlns:cc="http://creativecommons.org/ns#" xmlns:dc="http://purl.org/dc/elements/1.1/" xmlns:rdf="http://www.w3.org/1999/02/22-rdf-syntax-ns#">
 <metadata id="metadata58">
  <rdf:RDF>
   <cc:Work rdf:about="">
    <dc:format>image/svg+xml</dc:format>
    <dc:type rdf:resource="http://purl.org/dc/dcmitype/StillImage"/>
   </cc:Work>
  </rdf:RDF>
 </metadata>
 <rect id="rect172" x="250.03" y=".042899" width="499.97" height="250.06" fill="#bf0a30" fill-rule="evenodd" stroke-width="1.0177"/>
 <rect id="rect170" x="-3.2279e-10" y="-7.1273e-6" width="250.03" height="500" fill="#002868" fill-rule="evenodd" stroke-width="1pt"/>
 <rect id="rect603" x="250.07" y="250.17" width="499.87" height="249.83" fill="#fff" fill-rule="evenodd" stroke-width="1.0177"/>
 <path id="path607" d="m37.395 117.31c-15.631 8.7286-18.465 12.369-27.032 19.063l18.998 0.39755c-0.22617 1.7692-4.3734 23.796-4.7667 25.35 14.303-9.5047 21.089-13.862 40.604-19.359 7.7537-2.1529-0.6098-10.031-1.4167-12.126-5.3013 2.3927-9.3777 5.2339-13.286 8.7154" fill="#ffca00" fill-rule="evenodd" stroke="#002868"/>
 <path id="path628" d="m50.749 139.16c29.139-26.694 125.56-26.056 152.41 0.82479 0.86636-0.31158 18.24-29.621 17.373-29.31-52.723-36.935-147.19-30.607-186.84-1.4592l0.47032 1.7398 16.589 28.204z" fill="#ffca00" fill-rule="evenodd" stroke="#002868"/>
 <path id="path613" d="m55.757 127.58c-0.14471-0.38131-8.4724-15.889-8.4724-15.889l13.631 12.012-3.1716-17.552 8.9272 15.018" fill="none" stroke="#002868" stroke-linecap="round" stroke-linejoin="round" stroke-width="3.125"/>
 <path id="path618" d="m105.19 100.79c0.05942-4.7414 3.8591-5.0608 6.4745-4.2404 1.5342 1.1703 2.3397 4.984 0.50095 7.1579l-3.6924 3.1469c-1.2767 1.5961-2.6905 3.4184-2.5989 5.4247l8.3421-0.31857" fill="none" stroke="#002868" stroke-linecap="round" stroke-linejoin="round" stroke-width="3.125"/>
 <path id="path621" d="m120.34 95.731c-1.5235 0.74442-2.036 1.9221-2.3892 3.666-0.22778 2.0055-0.12627 6.7477 0.28391 8.7078 0.3656 1.4591 0.72873 2.4165 1.8239 3.3738 1.2767 0.72956 2.6896 0.59339 3.4654 0.0916 1.0481-0.59256 1.7777-1.8239 2.1425-3.283 0.59256-1.8693 0.54717-7.3403 0.13617-9.3466-0.37963-1.337-0.85088-2.4008-1.9147-3.1914-1.2767-0.54718-2.773-0.42833-3.548-0.018157z" fill="none" stroke="#002868" stroke-linecap="round" stroke-linejoin="round" stroke-width="3.125"/>
 <path id="path629" d="m160.18 100.29c1.588-0.66322 2.7953-1.475 4.119-3.0299l-2.3434 16.511" fill="none" stroke="#002868" stroke-linecap="round" stroke-linejoin="round" stroke-width="3.125"/>
 <path id="path630" d="m172.38 99.441c0.19052 0.072186 7.93 2.3224 7.93 2.3224-3.7743 4.7153-6.8689 8.9039-9.3913 14.227" fill="none" stroke="#002868" stroke-linecap="round" stroke-linejoin="round" stroke-width="3.125"/>
 <path id="path631" d="m187.07 103.55 7.672 3.7842c-4.555 3.2557-8.3003 7.3522-11.615 12.143" fill="none" stroke="#002868" stroke-linecap="round" stroke-linejoin="round" stroke-width="3.125"/>
 <path id="path632" d="m206.52 113.48-5.0252-2.9465-4.4443 6.0175c3.1923-0.62939 5.3378 0.33484 6.2556 3.2318 0.56313 4.2672-1.9942 6.703-4.7582 6.7791-2.9084-0.06608-4.4095-1.6633-4.8188-5.0148" fill="none" stroke="#002868" stroke-linecap="round" stroke-linejoin="round" stroke-width="3.125"/>
 <path id="path614" d="m70.938 119.02s0.48518-17.925 0.66642-17.905c0.07901-0.72528 10.122 14.861 10.122 14.861v0" fill="none" stroke="#002868" stroke-linecap="round" stroke-linejoin="round" stroke-width="3.125"/>
 <path id="path615" d="m71.267 112.64 6.8227-2.008" fill="none" stroke="#002868" stroke-linecap="round" stroke-linejoin="round" stroke-width="3.125"/>
 <path id="path678" d="m31.439 288.14 9.9688 0.13411-0.31497-43.187 19.108 43.415 10.372-8.6e-4v-63.523l-10.125 0.13583 0.15394 40.163-17.86-39.983-11.149 0.13497-0.15394 62.712z" fill="#ffca00" fill-rule="evenodd"/>
 <path id="path680" d="m213.63 245.13h10.617l-0.12809-5.5974c-0.30089-3.6159-1.6669-8.1972-5.2338-11.584-2.3744-2.6427-5.1848-4.1351-8.8307-5.1315-3.0949-1.2147-10.674-0.85711-14.52 1.2947-4.5486 2.5404-8.3905 7.071-10.955 14.371-3.3648 12.291-1.8449 27.682 0.28714 34.925 2.5386 7.6762 6.5207 11.773 11.821 14.357 3.2986 1.1081 9.0534 1.9541 14.438 0.49518 5.8665-2.2189 8.5479-6.0711 10.878-10.18 1.4142-2.7811 3.0373-8.112 2.7544-14.021l-11.078 0.13497c0.00774 2.1621-0.4307 4.6578-0.98004 6.8199-1.2534 3.0227-3.1894 5.0455-8.002 5.0447-3.2255-0.00344-5.4057-1.3317-7.211-3.7122-2.4364-2.3521-3.0751-7.6177-3.2376-9.1058-0.73417-6.7211-0.7548-13.375 1.1821-20.388 0.73761-2.8335 2.2042-5.4547 4.1231-6.7314 3.1095-1.6859 6.3264-1.4357 8.1455-0.9044 2.3882 0.73762 4.5916 2.5223 5.2793 4.8856 0.53472 2.2223 0.61983 3.5737 0.65078 5.0275z" fill="#ffca00" fill-rule="evenodd"/>
 <path id="polygon693" d="m152 290.22-23.799-18.495-24.426 18.38 9.6786-28.785-24.763-18.222 29.78 0.70472 9.1213-29.642 8.7267 29.22 30.401-0.09781-24.387 17.354 9.6674 29.581z" fill="#fff" fill-rule="evenodd"/>
 <path id="path668" d="m50.758 139.27" fill="none" stroke="#000" stroke-width="1pt"/>
 <path id="path679" d="m50.831 139.18c1.0482 1.072 3.1206 0.80575 5.98 0.26358 2.283-0.27557 4.8844-0.3803 6.9315-0.61656 3.3887 0.27678 5.3299 1.0698 3.937 2.6774" fill="none" stroke="#002868"/>
 <path id="path685" d="m216.64 118.25c15.631 8.7286 18.465 12.369 27.032 19.063l-18.998 0.39755c0.22617 1.7692 4.3734 23.796 4.7667 25.35-14.303-9.5047-21.089-13.862-40.604-19.359-7.7537-2.1529 0.88965-10.17 1.6966-12.266 5.3012 2.3927 9.7975 5.2337 13.006 8.8551" fill="#ffca00" fill-rule="evenodd" stroke="#002868"/>
 <path id="path689" d="m203.28 140.21" fill="none" stroke="#000" stroke-width="1pt"/>
 <path id="path690" d="m202.98 140.12c-1.7548 0.81119-3.566 0.45257-5.7573 0.26358-2.0794-0.30258-4.4389-0.65707-6.7743-0.73579-3.9148 0.02701-5.3299 1.6616-4.0942 2.7966" fill="none" stroke="#002868"/>
 <path id="path622" d="m129.37 101.87c3.0259 0.05506 5.9529 0.17415 5.9529 0.17415" fill="none" stroke="#002868" stroke-linecap="round" stroke-linejoin="round" stroke-width="2.25"/>
 <path id="path624" d="m138.67 97.914-0.35282 14.423" fill="none" stroke="#002868" stroke-linecap="round" stroke-linejoin="round" stroke-width="2.25"/>
 <path id="path627" d="m144.94 112.99c0.8437-10.352-0.51121-10.721-5.5116-10.698" fill="none" stroke="#002868" stroke-linecap="round" stroke-linejoin="round" stroke-width="2.25"/>
 <path id="path661" d="m131.73 97.392-0.22275 11.989c-0.03225 2.2745 0.67531 2.9223 2.6539 2.9223" fill="none" stroke="#002868" stroke-linecap="round" stroke-linejoin="round" stroke-width="2.25"/>
 <path id="path616" d="m80.601 98.959 7.4113 7.519 1.3385 8.1643" fill="none" stroke="#002868" stroke-linecap="round" stroke-linejoin="round" stroke-width="3.125"/>
 <path id="path617" d="m92.248 96.376-4.0613 10.462" fill="none" stroke="#002868" stroke-linecap="round" stroke-linejoin="round" stroke-width="3.125"/>
 <path id="path671" d="m38.025 387.45c-15.631-8.5354-18.465-12.095-27.032-18.641l18.998-0.38875c-0.22617-1.7301-4.3734-23.269-4.7667-24.789 14.303 9.2944 21.089 13.555 40.604 18.931 7.7537 2.1053-0.6098 9.8087-1.4167 11.858-5.3013-2.3398-9.3777-5.118-13.286-8.5226" fill="#ffca00" fill-rule="evenodd" stroke="#002868"/>
 <path id="path683" d="m51.379 366.08c29.139 26.103 125.56 25.479 152.41-0.80654 0.86636 0.3047 18.24 28.966 17.373 28.661-52.723 36.118-147.19 29.93-186.84 1.4269l0.47032-1.7013 16.589-27.58z" fill="#ffca00" fill-rule="evenodd" stroke="#002868"/>
 <path id="path686" d="m50.758 366.29" fill="none" stroke="#000" stroke-width=".98887pt"/>
 <path id="path687" d="m51.461 366.06c1.0482-1.0483 3.1206-0.78791 5.98-0.25774 2.283 0.26947 4.8844 0.37188 6.9315 0.60291 3.3887-0.27065 5.3299-1.0462 3.937-2.6181" fill="none" stroke="#002868"/>
 <path id="path693" d="m217.27 386.53c15.631-8.5354 18.465-12.095 27.032-18.641l-18.998-0.38875c0.22617-1.7301 4.3734-23.269 4.7667-24.789-14.303 9.2944-21.089 13.555-40.604 18.931-7.7537 2.1053 0.88965 9.9453 1.6966 11.994 5.3012-2.3398 9.7975-5.1179 13.006-8.6592" fill="#ffca00" fill-rule="evenodd" stroke="#002868"/>
 <path id="path694" d="m203.28 365.37" fill="none" stroke="#000" stroke-width=".98887pt"/>
 <path id="path695" d="m203.61 365.14c-1.7548-0.79323-3.566-0.44255-5.7573-0.25774-2.0794 0.29589-4.4389 0.64253-6.7743 0.71951-3.9148-0.02642-5.3299-1.6248-4.0942-2.7347" fill="none" stroke="#002868"/>
 <path id="path646" d="m126.72 400.31c1.2552-4.3071 4.1156-3.7801 6.6663-3.1899 2.0482 1.4055 2.3417 5.2355 0.38511 7.4644l-3.59 2.7338c-1.518 1.0083-3.0252 2.8792-2.9681 4.9705l8.6943-0.17254" fill="none" stroke="#002868" stroke-linecap="round" stroke-linejoin="round" stroke-width="3.125"/>
 <path id="path657" d="m117.95 399.73c1.575-0.85608 1.9528-1.1953 3.1592-2.9473l-0.67325 15.576" fill="none" stroke="#002868" stroke-linecap="round" stroke-linejoin="round" stroke-width="3.125"/>
 <path id="path676" d="m98.771 392.88c-0.002724 0.09539-2.6499 16.269-2.7638 16.931l8.4232 1.1908" fill="none" stroke="#002868" stroke-linecap="round" stroke-width="3.125"/>
 <path id="path675" d="m88.881 408.94 2.5924-17.644" fill="none" stroke="#002868" stroke-linecap="round" stroke-linejoin="round" stroke-width="3.125"/>
 <path id="path672" d="m58.79 399.69 6.4265-16.316c1.9248 0.96501 4.4048 1.3458 6.5436 3.2539 1.3888 2.309 0.74907 7.0448-3.2302 7.4941-2.1928-0.2926-4.025-1.3546-5.9473-2.225" fill="none" stroke="#002868" stroke-linecap="round" stroke-width="3.125"/>
 <path id="path654" d="m163.91 396.39c1.271-1.2352 2.1352-2.4811 2.8617-4.5104l3.2856 17.318" fill="none" stroke="#002868" stroke-linecap="round" stroke-linejoin="round" stroke-width="3.0843"/>
 <path id="path655" d="m171.32 391.41c0.20548-0.05308 8.4118-2.9231 8.4118-2.9231-0.37757 6.2801-0.49471 12.308 0.29059 17.882" fill="none" stroke="#002868" stroke-linecap="round" stroke-linejoin="round" stroke-width="3.125"/>
 <path id="path656" d="m184.04 387 8.4138-3.2928c-0.36159 6.3674-0.75563 13.148 0.41437 17.925" fill="none" stroke="#002868" stroke-linecap="round" stroke-linejoin="round" stroke-width="3.125"/>
 <path id="path677" d="m204.04 380.4c-0.961-1.5906-2.43-2.1746-4.494-1.6321-1.9139 1.6794-2.27 3.0042-2.4055 5.047 0.07871 2.5316 0.77545 5.0309 1.925 7.2646 0.78868 2.0823 2.4937 3.5691 3.778 3.8958 1.4543 0.5362 2.5437 0.39913 3.7101-0.60972 0.88983-1.1228 1.2945-3.0076 1.2124-4.4278-0.27682-1.8848-1.1278-3.5922-3.0497-4.5922-1.4874-0.60967-2.102-0.73445-3.4448-0.16364-2.039 1.2046-2.4095 3.435-2.1068 5.7093" fill="none" stroke="#002868" stroke-linecap="round" stroke-linejoin="round" stroke-width="3.125"/>
 <path id="path706" d="m138 401.71c3.0232-0.14029 5.9517-0.21029 5.9517-0.21029" fill="none" stroke="#002868" stroke-linecap="round" stroke-linejoin="round" stroke-width="2.25"/>
 <path id="path709" d="m140.07 397.09 0.55125 11.978c0.11456 2.2719 0.86246 2.8726 2.8369 2.745" fill="none" stroke="#002868" stroke-linecap="round" stroke-linejoin="round" stroke-width="2.25"/>
 <path id="path707" d="m145.93 396.96 1.6604 14.331" fill="none" stroke="#002868" stroke-linecap="round" stroke-linejoin="round" stroke-width="2.25"/>
 <path id="path708" d="m154.25 411.02c-0.60707-10.369-2.0002-10.545-6.9487-9.826" fill="none" stroke="#002868" stroke-linecap="round" stroke-linejoin="round" stroke-width="2.25"/>
 <path id="path659" d="m43.758 392.41s12.875-13.532 13.002-13.39c0.5669-0.50613-2.5312 18.558-2.5312 18.558v0" fill="none" stroke="#002868" stroke-linecap="round" stroke-linejoin="round" stroke-width="3.125"/>
 <path id="path660" d="m48.465 387.7 6.6797 3.2041" fill="none" stroke="#002868" stroke-linecap="round" stroke-linejoin="round" stroke-width="3.125"/>
 <path id="path673" d="m72.802 405.54c-0.002424-0.09539 4.6861-17.507 4.6861-17.507 2.0077 0.48736 4.1055 0.78236 6.023 1.4629 1.3415 0.44063 3.3788 2.0994 2.5918 4.7792-0.37047 1.6253-1.1256 3.0694-2.2749 3.9534" fill="none" stroke="#002868" stroke-linecap="round" stroke-width="3.125"/>
 <path id="path674" d="m75.424 396.55 6.4077 1.6432c1.726 0.62092 2.1443 2.1307 2.1467 2.2252 0.321 1.4177-0.75897 7.5251-0.75897 7.5251" fill="none" stroke="#002868" stroke-linecap="round" stroke-linejoin="round" stroke-width="3.125"/>
</svg>
