<?xml version="1.0" encoding="UTF-8"?>
<!-- Created with Inkscape (http://www.inkscape.org/) -->
<svg id="svg1" width="750" height="500" version="1.0" xmlns="http://www.w3.org/2000/svg" xmlns:cc="http://creativecommons.org/ns#" xmlns:dc="http://purl.org/dc/elements/1.1/" xmlns:rdf="http://www.w3.org/1999/02/22-rdf-syntax-ns#" xmlns:xlink="http://www.w3.org/1999/xlink">
 <metadata id="metadata2479">
  <rdf:RDF>
   <cc:Work rdf:about="">
    <dc:title>Flag of the State of Nevada</dc:title>
    <dc:description/>
    <dc:subject>
     <rdf:Bag/>
    </dc:subject>
    <dc:publisher>
     <cc:Agent rdf:about="http://www.openclipart.org">
      <dc:title/>
     </cc:Agent>
    </dc:publisher>
    <dc:creator>
     <cc:Agent>
      <dc:title/>
     </cc:Agent>
    </dc:creator>
    <dc:rights>
     <cc:Agent>
      <dc:title/>
     </cc:Agent>
    </dc:rights>
    <dc:date/>
    <dc:format>image/svg+xml</dc:format>
    <dc:type rdf:resource="http://purl.org/dc/dcmitype/StillImage"/>
    <cc:license rdf:resource="http://creativecommons.org/licenses/publicdomain/"/>
    <dc:language/>
   </cc:Work>
   <cc:License rdf:about="http://creativecommons.org/licenses/publicdomain/">
    <cc:permits rdf:resource="http://creativecommons.org/ns#Reproduction"/>
    <cc:permits rdf:resource="http://creativecommons.org/ns#Distribution"/>
    <cc:permits rdf:resource="http://creativecommons.org/ns#DerivativeWorks"/>
   </cc:License>
  </rdf:RDF>
 </metadata>
 <defs id="defs3">
  <linearGradient id="linearGradient7050">
   <stop id="stop7052" stop-color="#014004" offset="0"/>
   <stop id="stop7054" stop-color="#014004" stop-opacity="0" offset="1"/>
  </linearGradient>
  <radialGradient id="radialGradient7670" cx="79.311" cy="182.98" r="10.849" gradientTransform="matrix(1 0 0 .94827 0 9.4647)" gradientUnits="userSpaceOnUse" xlink:href="#linearGradient7050"/>
  <radialGradient id="radialGradient7672" cx="86.412" cy="158.87" r="10.748" gradientTransform="matrix(1 0 0 1.0164 0 -2.6036)" gradientUnits="userSpaceOnUse" xlink:href="#linearGradient7050"/>
  <radialGradient id="radialGradient7674" cx="63.265" cy="165.4" r="6.9756" gradientTransform="matrix(1 0 0 1.3515 0 -58.145)" gradientUnits="userSpaceOnUse" xlink:href="#linearGradient7050"/>
  <radialGradient id="radialGradient7676" cx="62.874" cy="141.39" r="9.7329" gradientTransform="matrix(1 0 0 .72588 0 38.759)" gradientUnits="userSpaceOnUse" xlink:href="#linearGradient7050"/>
  <radialGradient id="radialGradient7678" cx="59.143" cy="118.91" r="6.9074" gradientTransform="matrix(1 0 0 1.158 0 -18.784)" gradientUnits="userSpaceOnUse" xlink:href="#linearGradient7050"/>
  <radialGradient id="radialGradient7680" cx="77.34" cy="102.59" r="8.255" gradientTransform="matrix(1 0 0 .69489 0 31.301)" gradientUnits="userSpaceOnUse" xlink:href="#linearGradient7050"/>
  <radialGradient id="radialGradient7682" cx="95.646" cy="127.46" r="9.3894" gradientTransform="matrix(1 0 0 .97725 0 2.8999)" gradientUnits="userSpaceOnUse" xlink:href="#linearGradient7050"/>
 </defs>
 <rect id="rect1707" width="750" height="500" fill="#0047ab" fill-rule="evenodd"/>
 <g id="g6561" transform="matrix(.99777 0 0 1.0014 -216.66 -80.281)">
  <g id="g1625" transform="matrix(1.0124 0 0 1.0124 229.47 89.285)">
   <g id="g1561" transform="matrix(-1 0 0 1 288.04 .53829)" fill="#ffdf00" fill-rule="evenodd" stroke="#000" stroke-width="1pt">
    <path id="path1562" d="m61.461 74.333c-6.9955 12.492-26.483 12.492-27.482 16.989-0.99936 4.4971 2.9981 8.7444 2.9981 8.7444s28.732-8.9942 34.728-17.988-10.243-7.745-10.243-7.745z" fill-opacity=".94118"/>
    <path id="path1563" d="m33.829 92.95c-0.36787 3.2312 11.392-0.87857 13.89-0.62873 2.4984 0.24984 4.9968 3.2479 3.9974 4.9968s-7.2454 4.4971-10.493 4.747c-3.2479 0.24984-7.9163-5.4544-7.3942-9.115z"/>
    <path id="path1564" d="m39.974 111.14c-2.9981-9.2441 14.119-15.776 7.599-17.498 3.5092-0.18064 8.7656 3.9428 6.1422 7.5108-0.94737 1.2885-12.992 3.9916-13.741 9.9877z" fill-opacity=".94118"/>
   </g>
   <g id="g1557" fill="#ffdf00" fill-rule="evenodd" stroke="#000" stroke-width="1pt">
    <path id="path1554" d="m61.461 74.333c-6.9955 12.492-26.483 12.492-27.482 16.989-0.99936 4.4971 2.9981 8.7444 2.9981 8.7444s28.732-8.9942 34.728-17.988-10.243-7.745-10.243-7.745z"/>
    <path id="path1555" d="m33.829 92.95c-0.36787 3.2312 11.392-0.87857 13.89-0.62873 2.4984 0.24984 4.9968 3.2479 3.9974 4.9968s-7.2454 4.4971-10.493 4.747c-3.2479 0.24984-7.9163-5.4544-7.3942-9.115z" fill-opacity=".94118"/>
    <path id="path1556" d="m39.974 109.81c-2.9981-9.2441 14.119-15.777 7.599-17.5 3.5092-0.18064 8.7656 3.938 6.1422 7.506-0.94737 1.2885-12.992 3.9974-13.741 9.9936z"/>
   </g>
   <g id="g1550" transform="matrix(-1 0 0 1 287.21 -.2961)" fill="#ffdf00" fill-rule="evenodd" stroke="#000" stroke-width="1pt">
    <path id="path1551" d="m37.163 56.018c-4.8308-10.319 12.603-22.157-3.913-13.494 1.5669-9.6085 13.386-5.2895 13.386-1.5652s-4.9389 7.3678-4.8579 10.364c0.080965 2.9957 5.0198 5.1008 5.0198 5.1008l-9.6348-0.40482z"/>
    <path id="path1552" d="m63.019 38.497c-9.7107-1.0222-14.877 16.948-25.837 17.773-0.30105 1.0082 2.5557 3.8043 8.0497 3.8332 8.1777 0.042925 24.532-16.227 24.532-16.227l-6.7447-5.3789z"/>
    <path id="path1553" d="m51.555 68.83c0.28229-7.0572 13.877-16.336 15.065-23.865 0.84687-5.3635-4.2343-6.4926-4.2343-6.4926s6.4926-1.976 20.607 17.502c14.114 19.478-31.258 12.881-31.438 12.855z"/>
   </g>
   <g id="g1546" fill="#ffdf00" fill-rule="evenodd" stroke="#000" stroke-width="1pt">
    <path id="path923" d="m37.163 56.018c-4.8308-10.319 12.603-22.157-3.913-13.494 1.5669-9.6085 13.386-5.2895 13.386-1.5652s-4.9389 7.3678-4.8579 10.364c0.080965 2.9957 5.0198 5.1008 5.0198 5.1008l-9.6348-0.40482z"/>
    <path id="path922" d="m63.019 38.497c-9.7107-1.0222-14.877 16.948-25.837 17.773-0.30105 1.0082 2.5557 3.8043 8.0497 3.8332 8.1777 0.042925 24.532-16.227 24.532-16.227l-6.7447-5.3789z"/>
    <path id="path921" d="m51.555 68.83c0.28229-7.0572 13.877-16.336 15.065-23.865 0.84687-5.3635-4.2343-6.4926-4.2343-6.4926s6.4926-1.976 20.607 17.502c14.114 19.478-31.258 12.881-31.438 12.855z"/>
   </g>
   <path id="path919" d="m52.188 68.689c19.458 0.24447 42.167-37.61 91.561-37.61 49.567 0 76.669 36.224 90.705 36.85 6.8147 0.30367-18.109 24.056-21.844 24.271-8.2526 0.47402-39.212-33.206-68.372-33.206-25.202 0-53.059 31.965-69.078 31.591-3.0456-0.071028-27.989-21.958-22.972-21.896z" fill="#ffdf00" fill-rule="evenodd" stroke="#000" stroke-width="1pt"/>
   <g id="g1614">
    <path id="text1574" d="m210.69 65.174-10.782 13.469-2.623-2.0996 3.3446-7.3692-4.9013 6.1231-2.5021-2.0028 10.782-13.469 2.5021 2.0028-3.1771 7.4077 4.8547-6.0649 2.5021 2.0028"/>
    <path id="path1593" d="m191.9 51.734 2.2999 1.4396c1.5332 0.95974 2.5267 1.6779 2.9802 2.1546 0.4587 0.4799 0.67878 1.1122 0.66031 1.8968-0.00961 0.78185-0.40453 1.796-1.1848 3.0426-0.71244 1.1382-1.312 1.8273-1.7989 2.0673-0.48685 0.24006-1.1098 0.17701-1.8688-0.18914 0.52628 0.58925 0.80204 1.1097 0.82731 1.5613 0.02521 0.45162-0.01935 0.82602-0.13374 1.1232-0.1055 0.29437-0.52766 1.0317-1.2664 2.212l-2.4143 3.857-3.0177-1.8889 3.0419-4.8597c0.49-0.78285 0.73941-1.3014 0.74822-1.5557 0.01394-0.25109-0.20288-0.51673-0.65054-0.79692l-4.1274 6.594-3.2492-2.0338 9.1539-14.624m1.6831 4.5359-2.0355 3.2518c0.36531 0.22867 0.65581 0.33088 0.87149 0.30663 0.2246-0.027034 0.53855-0.36273 0.94188-1.0071l0.5032-0.80393c0.29024-0.46368 0.40856-0.81288 0.35497-1.0476-0.04848-0.23147-0.2605-0.46477-0.63608-0.69988"/>
    <path id="path1591" d="m182.08 57.942c-0.69572 1.5553-1.2217 2.6435-1.5778 3.2644-0.3479 0.617-0.8077 1.1189-1.3794 1.5058-0.56629 0.38927-1.1941 0.60186-1.8833 0.63778-0.68929 0.035916-1.407-0.113-2.1531-0.44676-0.70801-0.31671-1.2853-0.73559-1.732-1.2567-0.43837-0.52502-0.70793-1.1352-0.8087-1.8305-0.10074-0.6953-0.04125-1.3763 0.17854-2.0429 0.21976-0.66666 0.68605-1.7968 1.3989-3.3904l1.1847-2.6485c0.69568-1.5553 1.2175-2.6415 1.5654-3.2585 0.35618-0.62093 0.81742-1.126 1.3837-1.5153 0.57172-0.38682 1.2022-0.5982 1.8915-0.63413 0.68926-0.035904 1.407 0.11301 2.1531 0.44675 0.70801 0.31672 1.2812 0.73758 1.7196 1.2626 0.44665 0.52109 0.72035 1.1293 0.82113 1.8246 0.10076 0.6953 0.04123 1.3763-0.17853 2.0429-0.21977 0.66667-0.68608 1.7968-1.3989 3.3904l-1.1847 2.6485m-1.164-6.6251c0.32217-0.72029 0.49206-1.1951 0.50966-1.4244 0.02589-0.2332-0.06737-0.39731-0.27978-0.49233-0.17972-0.08038-0.35566-0.059639-0.52784 0.062233-0.16388 0.11795-0.42401 0.57532-0.78041 1.3721l-3.2333 7.2284c-0.40203 0.89878-0.62014 1.4667-0.65432 1.7039-0.02875 0.23958 0.07125 0.41054 0.30001 0.51286 0.23419 0.10476 0.43812 0.050637 0.61185-0.16235 0.17369-0.21299 0.4644-0.77525 0.87215-1.6868l3.182-7.1137"/>
    <path id="path1589" d="m164.03 40.317 3.6764 1.0527c1.1613 0.33252 2.0092 0.68986 2.5438 1.072 0.54043 0.38384 0.90157 0.95281 1.0834 1.7069 0.18381 0.74729 0.07037 1.8381-0.3403 3.2723-0.27771 0.96985-0.60261 1.6084-0.97471 1.9157-0.3663 0.30896-0.96099 0.45644-1.7841 0.44244 0.78745 0.46934 1.2576 1.0104 1.4105 1.6232 0.15481 0.60596 0.07773 1.4485-0.23124 2.5276l-0.44002 1.5367c-0.32073 1.1201-0.66922 1.9182-1.0454 2.3942-0.37042 0.47774-0.82324 0.74713-1.3584 0.80818-0.53524 0.061051-1.544-0.12063-3.0262-0.54504l-4.2629-1.2206 4.7492-16.586m2.8726 3.893-1.056 3.6881c0.15951 0.038295 0.28303 0.069968 0.37057 0.095021 0.36179 0.10361 0.62164 0.067159 0.77951-0.10934 0.15982-0.18331 0.38054-0.76672 0.66216-1.7502 0.14861-0.51906 0.21142-0.89274 0.1884-1.121-0.02109-0.23511-0.09091-0.3992-0.20947-0.49228-0.11274-0.091384-0.35779-0.1948-0.73514-0.31026m-1.7953 6.2698-1.3288 4.6409c0.52523 0.12822 0.88232 0.12701 1.0713-0.003638 0.19478-0.12897 0.38799-0.52812 0.57965-1.1975l0.44294-1.547c0.20338-0.7103 0.26239-1.159 0.17704-1.346-0.08536-0.18701-0.39938-0.3693-0.94205-0.54686"/>
    <path id="path1586" d="m140.23 37.014h6.4298v3.4733h-2.5738v3.291h2.4089v3.3017h-2.4089v3.0832h2.8302v3.4671h-6.6863v-16.616"/>
    <path id="path1585" d="m130.5 38.228 2.5733 13.195 3.7582-0.75668 0.65922 3.2683-7.4387 1.5044-3.2171-16.496 3.6651-0.71476"/>
    <path id="path1584" d="m120.51 40.724 1.187 3.2423-2.1375 0.78253 4.7442 12.959-3.5996 1.3178-4.7442-12.959-2.129 0.7794-1.187-3.2423 7.8661-2.8797"/>
    <path id="path1583" d="m107.85 45.787 1.5466 3.0869-2.0351 1.0196 6.1817 12.338-3.4271 1.7171-6.1817-12.338-2.027 1.0156-1.5466-3.0869 7.4892-3.7523"/>
    <path id="path1582" d="m94.511 53.509 11.218 13.291-3.2943 2.1326-1.8457-2.4993-1.1541 0.74714 1.4941 2.7269-3.3325 2.1573-7.7401-15.542 4.6548-3.0133m4.324 10.416c-1.2248-1.5345-2.6985-3.4536-4.4213-5.7574 1.4653 2.9783 2.5721 5.135 3.3207 6.4699l1.1006-0.71251"/>
    <path id="path1580" d="m76.862 64.481 3.1369-2.1872c0.99086-0.69087 1.8032-1.123 2.437-1.2965 0.63882-0.17692 1.3081-0.097944 2.0078 0.23694 0.69564 0.32908 1.4701 1.1055 2.3234 2.3293 0.577 0.82753 0.86724 1.4826 0.87072 1.9651 0.008464 0.47912-0.25249 1.0335-0.78286 1.6631 0.86105-0.31456 1.5775-0.33775 2.1493-0.069573 0.56773 0.26237 1.1726 0.85394 1.8146 1.7747l0.91426 1.3112c0.66638 0.95573 1.0655 1.7297 1.1973 2.322 0.13677 0.58884 0.059932 1.1101-0.23052 1.5638-0.29046 0.45369-1.068 1.1215-2.3327 2.0033l-3.6373 2.5361-9.8679-14.152m4.8327 0.22892 2.1942 3.1469c0.13038-0.099556 0.23291-0.17538 0.30759-0.22746 0.30871-0.21524 0.44444-0.43979 0.40718-0.67365-0.041316-0.23966-0.35454-0.77909-0.93966-1.6183-0.30881-0.44288-0.55902-0.72744-0.75064-0.85368-0.19567-0.13204-0.36702-0.18144-0.51405-0.14823-0.14204 0.029775-0.37692 0.15457-0.70464 0.3744m3.7302 5.3497 2.7611 3.9598c0.43095-0.32647 0.65539-0.60421 0.67331-0.83323 0.022893-0.23248-0.16476-0.63427-0.56297-1.2054l-0.92035-1.3199c-0.42259-0.60606-0.73336-0.93501-0.93229-0.98684-0.19894-0.051817-0.53852 0.076702-1.0188 0.38556"/>
   </g>
  </g>
  <path id="path920" d="m374.85 158.64 9.0909 25.152h26.061l-21.818 16.061 8.788 25.151-20.909-16.061-22.424 15.758 8.1819-24.848-21.818-16.061 27.273-0.60609 7.5758-24.546z" fill="#c9c0bb" fill-rule="evenodd"/>
  <g id="g1695" transform="matrix(1.0202 .22593 .082781 1.0133 204.48 76.648)">
   <path id="path1676" d="m178.47 223.04c-4.6853 3.4075-13.204-13.204-35.779-16.611-22.575-3.4075-20.445 17.889-31.519 11.074s15.334-10.648 15.334-10.648-6.815 0.42594-11.074 0c-4.2594-0.42593-11.5 4.2594-16.611 4.6853-5.1112 0.42593-7.6668-2.9816-8.5187-6.389s-1.2778-6.389-1.2778-6.389 6.389 5.5372 9.7965 5.9631c3.4075 0.42593 10.222 0 10.222 0s-5.5372-2.5556-9.7965-5.1112c-4.2594-2.5556-8.9446-6.389-8.9446-6.389s-8.0928 4.2594-15.76 2.9815c-7.6668-1.2778-12.778-13.63-12.778-13.63s7.6668 8.9446 13.204 9.7965 8.9446-1.7037 8.9446-1.7037-5.5372-6.389-8.5187-10.648c-2.9815-4.2594-3.4075-2.5556-2.9815-4.2594s0.42594-3.4075 0.42594-3.4075l-5.9631-2.1297-3.8334-4.2594s-5.1112-5.5372-5.5372-8.0928c-0.42594-2.5556 5.1112-7.2409 7.2409-6.389 2.1297 0.85187-1.2778 4.2594-0.85187 7.2409 0.42594 2.9815 7.2409 6.815 7.2409 6.815s-3.4075-5.9631-3.4075-8.5187-0.42594-3.8334-0.42594-3.8334 0.85187 1.2778-2.1297-1.7037c-2.9815-2.9815-8.5187-2.5556-8.5187-5.9631s-0.42594-5.1112-0.42594-5.1112 2.1297 2.9816 4.6853 4.6853 4.6853 1.7037 4.6853 1.7037-2.5556-2.9816-5.5372-7.2409c-2.9815-4.2594-13.63-9.3706-13.204-11.5 0.42594-2.1297 1.7037-4.2594 1.7037-4.2594s1.2778 4.2594 5.5372 4.2594 4.2594-8.5187 4.2594-8.5187 2.5556 7.2409 5.1112 7.2409c2.5556 0 5.5372-3.8334 5.5372-3.8334s-0.85187 8.0928-2.5556 10.222c-1.7037 2.1297-4.2594 4.2594-2.5556 6.815 1.7037 2.5556 5.1112 8.9446 5.1112 8.9446s1.2778 0.85187 2.9815-2.5556c1.7037-3.4075 4.2594-8.9446 1.7037-12.352-2.5556-3.4075-5.5372-5.9631-5.5372-5.9631s3.8334 2.1297 4.6853 1.2778-0.85187-7.2409-2.5556-13.63c-1.7037-6.389-5.5372-11.926-5.5372-11.926s3.8334 3.4075 10.222 3.8334c6.389 0.42594 13.63-0.85187 13.63-0.85187s-4.6853 2.1297-7.2409 2.9816-4.6853 2.1297-4.6853 2.1297 5.1112-0.85187 4.6853 0.85187-6.815 3.4075-6.389 6.389c0.42594 2.9815 6.815-2.5556 11.074-4.6853 4.2594-2.1297 9.7965-2.1297 9.7965-2.1297s-5.5372 7.2409-8.0928 8.5187c-2.5556 1.2778-9.3706 4.6853-9.3706 4.6853s2.1297 1.7037 4.6853 0.42594c2.5556-1.2778 4.6853-3.4075 4.6853-3.4075s-1.7037 6.815-4.6853 9.3706c-2.9815 2.5556-5.9631 1.7037-5.9631 1.7037s-0.42594 1.2778-0.42594 4.6853-0.85187 5.9631-0.85187 5.9631 5.9631-5.5372 7.2409-8.0928 6.815-4.2594 6.815-4.2594l-1.2778 5.1112 6.815-6.815 1.7037 5.1112s0.42594 1.7037 2.9815 1.7037c2.5556 0 3.8334 0.42594 3.8334 0.42594s-5.9631 1.7037-11.5 2.1297c-5.5372 0.42594-8.5187-1.2778-9.3706 0.85187-0.85187 2.1297 0 3.4075-2.5556 6.389-2.5556 2.9815-5.1112 11.074-5.1112 14.482s1.2778 4.2594 1.2778 4.2594 0 0.42593 2.1297-3.8334c2.1297-4.2594 6.815-8.9446 6.815-8.9446s-3.4075 9.3706-4.6853 11.926-3.4075 5.5372-1.7037 8.9446c1.7037 3.4075 10.648 13.204 14.908 17.037 4.2594 3.8334 8.5187 7.2409 8.5187 7.2409s-2.5556-4.2594-0.85187-6.815 6.815 2.5556 8.5187 5.5372c1.7037 2.9815 3.4075 6.389 5.5372 7.2409 2.1297 0.85187 1.7037 0.42593 1.7037 0.42593l-0.42594-5.9631s2.5556 3.4075 5.5372 4.2594c2.9815 0.85187 6.815 1.2778 6.815 1.2778s-5.1112-3.8334-8.5187-7.6668c-3.4075-3.8334-6.389-6.389-7.6668-5.5372-1.2778 0.85187-2.5556 3.4075-4.6853 0.42593-2.1297-2.9815-3.8334-6.389-6.815-6.815-2.9815-0.42593-5.1112 4.2594-5.1112 4.2594s-0.85187-4.6853-0.85187-7.6668c0-2.9815 4.2594-2.9815 3.4075-5.1112-0.85187-2.1297-2.9815-1.7037-4.6853-6.815s-5.9631-9.3706-5.9631-9.3706 7.2409 6.815 9.3706 6.389c2.1297-0.42593 6.389-6.815 6.389-6.815s-0.85187 5.1112-0.85187 10.648 0 11.074 2.5556 11.5c2.5556 0.42593 1.7037-4.2594 4.6853-1.7037 2.9815 2.5556 5.5372 10.222 8.0928 11.5 2.5556 1.2778 3.8334-1.2778 2.5556-4.6853-1.2778-3.4075-4.6853-2.9816-5.1112-6.815-0.42593-3.8334 0.42594-5.1112 0.42594-5.1112s1.7037 6.389 3.4075 6.389 3.4075-11.926 3.4075-11.926 5.9631 8.5187 5.5372 12.778c-0.42593 4.2594-4.2594 3.8334-4.2594 7.2409s-0.42593 8.9446 1.7037 8.5187c2.1297-0.42594 5.1112-7.6668 5.1112-7.6668s0.85187 4.2594 2.5556 7.2409c1.7037 2.9816 3.4075 5.9631 3.4075 5.9631s1.2778-1.2778 0-6.815c-1.2778-5.5372-2.9816-8.5187-3.4075-11.5-0.42593-2.9816 1.7037-6.389 3.8334-5.5372s2.1297 4.2594 1.7037 10.222c-0.42593 5.9631-0.85187 12.778 0.85187 12.778s13.63 2.5556 22.149 7.6668c8.5187 5.1112 17.463 9.3706 15.76 13.204z" fill="#017b21" fill-rule="evenodd" stroke="#014004" stroke-width="1.2503"/>
   <path id="path1677" d="m73.515 182.35c-2.6632-2.2828-6.0874-1.5218-3.8046-4.946 2.2828-3.4241 5.3265-3.0437 7.6092-1.5218s-1.5218-3.0437 1.9023-2.6632c3.4242 0.38048 8.7506 5.7069 6.8483 7.6093-1.9023 1.9023 2.6632 1.9023 3.4242 4.5656 0.76093 2.6632-1.1414 8.3701-4.946 7.2288-3.8046-1.1414-8.3702-0.38045-8.7506-3.0437-0.38046-2.6632-1.9023-10.653-2.2828-7.2288z" fill="#ffdf00" fill-rule="evenodd" stroke="url(#radialGradient7670)"/>
   <path id="path1678" d="m79.037 160.97c2.873 7.5416 5.746 8.619 9.6963 8.2598 3.9504-0.35914 10.055-9.3373 7.1825-12.928-2.873-3.5913-7.5416 3.232-7.5416 3.232s0-1.7955-0.71825-3.5911c-0.71826-1.7957-2.5139-1.7957-2.5139-1.7957s2.1547 1.4365 5.0277 0c2.873-1.4365 3.2321-3.2322 1.4365-4.6686-1.7956-1.4365-8.2599-1.4365-11.851 0.35915-3.5913 1.7955-3.5913 6.4642-3.5913 8.619 0 2.1546 0 1.4364 2.873 2.5138z" fill="#ffdf00" fill-rule="evenodd" stroke="url(#radialGradient7672)"/>
   <path id="path1679" d="m60.909 171.07c-5.5372 2.1297-4.6853-7.2409-2.1297-10.222 2.5556-2.9815 3.4075-5.5372 5.5372-3.8334 2.1297 1.7037-1.2778 4.2594 1.2778 3.4075 2.5556-0.85187 0.85187-4.6853 2.9815-3.8334s0.85187 5.1112 0 8.5187c-0.85187 3.4075-1.7037 7.6668-3.8334 8.5187-2.1297 0.85187-4.6853 1.7037-3.8334-2.5556z" fill="#ffdf00" fill-rule="evenodd" stroke="url(#radialGradient7674)"/>
   <path id="path1680" d="m63.038 147.22c-6.815 0-5.9631-0.42593-6.389-2.5556-0.42594-2.1297 2.9815-1.2778 0.42594-3.8334-2.5556-2.5556-2.9815 0.85187-3.4075-2.1297-0.42594-2.9815 4.2594-3.4075 7.6668-3.8334 3.4075-0.42594 1.2778 2.5556 4.2594 2.5556 2.9815 0 4.6853-0.85187 4.6853-0.85187l-1.2778 3.8334s3.8334-1.2778 2.9815 1.7037c-0.85187 2.9816-1.7037 7.6668-8.9446 5.1112z" fill="#ffdf00" fill-rule="evenodd" stroke="url(#radialGradient7676)"/>
   <path id="path1681" d="m58.353 119.96c-1.2778 4.6853 1.2778 6.815-2.5556 6.389-3.8334-0.42593-2.9815-4.2594-2.9815-8.0928 0-3.8334 2.1297-7.2409 5.9631-6.815 3.8334 0.42593 6.815 4.2594 4.6853 7.2409-2.1297 2.9816 4.2594-0.85187 1.2778 2.1297-2.9815 2.9815-4.6853 2.5556-6.389-0.85187z" fill="#ffdf00" fill-rule="evenodd" stroke="url(#radialGradient7678)"/>
   <path id="path1689" d="m70.705 97.814c1.2778 3.8334-4.2594 8.5187 1.7037 9.7965 5.9631 1.2778 14.482-3.4075 12.352-5.9631-2.1297-2.5556-4.6853 0-8.0928 0-3.4075 0-2.5556-5.9631-5.9631-3.8334z" fill="#ffdf00" fill-rule="evenodd" stroke="url(#radialGradient7680)"/>
   <path id="path1690" d="m103.93 134.44c-2.5556 3.8334-5.5372 0-8.9446-0.42593-3.4075-0.42594-7.2409 0-8.0928-2.9816s2.5556-0.42594 4.6853-2.1297c2.1297-1.7037 0-2.9815 2.1297-2.9815 2.1297 0 1.7037 0.42593 3.4075 2.1297 1.7037 1.7037-0.85187-4.6853 0.42594-6.815 1.2778-2.1297 5.1112-4.2594 5.5372 0 0.42593 4.2594-1.2778 8.0928-2.1297 9.3706-0.85187 1.2778 5.5372-2.1297 2.9816 3.8334z" fill="#ffdf00" fill-rule="evenodd" stroke="url(#radialGradient7682)"/>
  </g>
  <use id="use1704" transform="matrix(-1 0 0 1 750 1)" width="744.09448" height="496.06299" xlink:href="#g1695"/>
  <g id="g1682" transform="matrix(1.0052 0 0 1.0052 228.09 92.498)" fill="#ffdf00">
   <path id="text1654" d="m177.66 135.28 10.781 10.148-3.5306 2.671-1.755-1.9623-1.2369 0.93578 1.3782 2.2474-3.5715 2.702-7.0541-12.968 4.9887-3.7741m3.8362 8.8673c-1.1721-1.186-2.578-2.6813-4.2179-4.4857 1.3332 2.4887 2.346 4.2814 3.0383 5.3781l1.1796-0.89241"/>
   <path id="path1664" d="m159.71 146.81 2.7802-1.5106c1.7946-0.97508 3.0468-1.5596 3.7564-1.7537 0.71557-0.19725 1.3296-0.21621 1.8422-0.05692 0.51258 0.15934 0.92305 0.42542 1.2314 0.7983 0.30551 0.36761 0.78722 1.1594 1.4452 2.3753l2.433 4.4963c0.6236 1.1525 0.97949 1.9579 1.0676 2.4162 0.09114 0.44986 0.04675 0.86734-0.13318 1.2524-0.18281 0.37982-0.47052 0.73453-0.86319 1.0642-0.39552 0.32436-1.0375 0.72791-1.926 1.2107l-4.6866 2.5464-6.9471-12.839m4.9043 0.17769 4.5699 8.4454c0.53545-0.29092 0.81346-0.56511 0.83404-0.82258 0.01771-0.26274-0.20514-0.82232-0.66857-1.6788l-2.699-4.9879c-0.31467-0.58152-0.53694-0.94303-0.66681-1.0846-0.12987-0.1415-0.28836-0.20929-0.47552-0.20339-0.19001 6.4e-4 -0.48801 0.11124-0.89401 0.33184"/>
   <path id="path1662" d="m154.12 147.91 5.59 13.71-4.3212 0.9625-0.78099-2.5141-1.5139 0.33721 0.31978 2.6168-4.3713 0.97368-1.0281-14.726 6.1058-1.36m-0.19514 9.6596c-0.57327-1.5658-1.2308-3.5101-1.9727-5.8328 0.1786 2.8176 0.35491 4.8691 0.52895 6.1544l1.4438-0.32157"/>
   <path id="path1660" d="m146.52 149.22-4.1794 14.169-6.7075-0.8961-0.61777-14.81 4.6606 0.62264c0.00634 4.0579-0.05888 7.4786-0.19568 10.262 0.60263-2.7515 1.1744-5.1918 1.7153-7.3209l0.66378-2.6494 4.6606 0.62264"/>
   <path id="path1659" d="m123.3 144.14 9.461 3.0892-0.8799 2.786-3.7871-1.2366-0.83371 2.6398 3.5445 1.1574-0.83644 2.6484-3.5445-1.1574-0.96679 3.0612 4.1645 1.3598-0.87989 2.786-9.8384-3.2124 4.3967-13.921"/>
   <path id="path1658" d="m122.16 143.4-8.4019 11.937-3.8788-2.73 1.5175-7.0469-3.8195 5.4267-3.7001-2.6043 8.4019-11.937 3.7 2.6043-1.3025 7.1211 3.7832-5.375 3.7 2.6043"/>
  </g>
 </g>
</svg>
