<?xml version="1.0" encoding="UTF-8"?>
<!DOCTYPE svg  PUBLIC '-//W3C//DTD SVG 1.1//EN'  'http://www.w3.org/Graphics/SVG/1.1/DTD/svg11.dtd'>
<!-- Creator: CorelDRAW -->
<svg width="1e3px" height="700px" clip-rule="evenodd" fill-rule="evenodd" shape-rendering="geometricprecision" text-rendering="geometricprecision" viewBox="0 0 3e3 2100" xmlns="http://www.w3.org/2000/svg">
 <defs>
  <style type="text/css"><![CDATA[
    .str0 {stroke:#002868;stroke-width:4}
    .str1 {stroke:#002868;stroke-width:4;stroke-linejoin:bevel}
    .fil4 {fill:none}
    .fil3 {fill:#002868}
    .fil2 {fill:#002868}
    .fil0 {fill:#BF0A30}
    .fil1 {fill:white}
   ]]></style>
 </defs>
 <rect id="rect2289" class="fil0" width="3e3" height="2100"/>
 <rect id="rect2290" class="fil1" x="150" y="150" width="2700" height="1800"/>
 <rect id="rect2291" class="fil2" x="225" y="225" width="2550" height="1650"/>
 <path id="path2288" class="fil1" d="m1006.6 1200.7c-9.9354-49.674-41.395-91.069-51.331-94.381-9.9342-3.3106-28.149-8.2784-28.149-8.2784s13.247-9.9354 6.6248-28.149c-6.6248-18.214-36.429-67.889-38.085-96.037-1.6547-28.149 6.6236-64.577 0-87.758-6.6224-23.18-31.46-43.05-33.116-86.102-1.6559-43.05 69.543-102.66 110.94-104.32 41.395-1.6559 79.478 13.246 102.66 11.591 23.182-1.6571 51.33-31.461 69.544-38.085 18.214-6.6224 26.492 3.3118 38.082-1.6547 11.591-4.9677 105.97-82.792 200.35-82.792 94.382 0 165.58 34.773 187.11 34.773 21.524 0 61.264-9.9354 91.069 0 29.805 9.9342 66.232 54.641 109.28 66.232 43.05 11.591 291.42 56.298 319.57 101 28.149 44.707 46.363 109.28 46.363 140.74 0 31.46-8.2784 115.91-8.2784 132.46 0 16.557 8.2784 38.084 4.9665 59.609-3.3118 21.524-13.246 29.804-13.246 29.804s-6.6236-36.428-8.2784-57.953c-1.6571-21.526 13.245-81.135 11.59-115.91-1.6559-34.773-16.558-77.823-16.558-77.823s-9.9354 49.674-18.215 81.135c-8.2784 31.46-33.116 120.87-33.116 172.2 0 51.33 14.902 125.84 14.902 125.84s-41.395 71.2-44.707 99.348c-3.3106 28.149-9.9331 94.382-8.2784 102.66 1.6559 8.2784-9.9342-3.3118-13.246 6.6224-3.3118 9.9354-1.6559 23.18-1.6559 23.18l-38.085-3.3106s1.6571-16.559 8.2795-28.149c6.6236-11.59 16.558-19.87 14.903-34.772-1.6559-14.902 1.6547-79.479 1.6547-79.479s-28.148 48.019-36.428 66.233c-8.2795 18.214-8.2795 41.395-11.59 49.675-3.3118 8.2784-9.9342 8.2784-13.246 18.213-3.313 9.9354-8.2795 9.9354-8.2795 9.9354l-29.805 1.6547s57.954-142.4 61.266-178.83c3.3106-36.429-36.429-110.94-44.707-135.78-8.2795-24.837-8.2795-44.707-16.559-54.641-8.2784-9.9354-36.428-21.526-46.362-16.559-9.9354 4.9677-64.577 56.298-76.167 71.2-11.591 14.902-41.395 43.05-41.395 43.05s-66.233-36.428-101-44.707c-34.772-8.2784-120.87-14.902-120.87-14.902s6.6236 127.5 3.3106 147.37c-3.3106 19.87-19.87 26.493-19.87 39.739v41.395c0 9.9354-26.492 13.247-33.115 21.526-6.6248 8.2795 0 14.902-8.2795 26.493-8.2795 11.59-19.87 8.2784-24.837 14.901-4.9677 6.6248-1.6559 46.364-1.6559 46.364l-66.233-1.6571s26.493-54.64 24.837-86.101c-1.6559-31.46-28.148-77.823-33.116-102.66-4.9677-24.836-19.87-62.921-39.739-62.921s-36.428 9.9354-36.428 9.9354 4.9677-82.791-23.182-117.56c-28.149-34.772-96.037-31.461-117.56-26.493-21.527 4.9665-44.707 36.428-52.987 39.739-8.2795 3.3118-14.902 0-28.149 4.9665-13.245 4.9677-29.804 18.215-41.394 28.149z"/>
 <g id="g3286">
  <g id="g1883">
   <path id="path1825" class="fil1 str0" d="m1307.6 689.94c0-13.639 11.759-9.8764 23.048-15.052 11.289-5.1732 21.166-12.7 21.166-12.7l0.47126 35.28h-43.276l-1.4102-7.5272z"/>
   <path id="path1826" class="fil1 str0" d="m1494.3 723.81c-11.759 7.0559-14.581 0.47008-22.107-6.5858-7.526-7.0547-30.105-23.518-30.105-23.518l60.209 9.8776-7.9972 20.226z"/>
   <path id="path1824" class="fil1 str1" d="m1307.7 687.86c-1.4457 13.525-0.52205 23.33 6.5091 29.835 7.0547 6.5858 12.699 4.2342 17.874 3.2929 5.1744-0.94134 68.204-26.341 87.49-26.341 19.285 0 45.632 0.93425 60.208 14.582 6.5598 6.1417 13.17 10.818 12.229 14.582-0.94134 3.763 23.519-13.172 23.048-23.989-0.4689-10.819-34.337-32.456-70.556-37.631-36.218-5.1732-84.569 23.993-119.48 26.812-12.527 1.1929-17.343 3.0295-17.327-1.1421z"/>
   <path id="text1827" class="fil3" d="m1493.3 703.22c-1.2284 1.7079-0.75354 3.3614 0.86929 4.6713 1.102 0.88937 2.9315 1.7528 4.0441 0.37441 1.024-1.2709 0.12402-2.4437-0.72165-3.5173-0.85984-1.0866-2.0563-2.2949-2.4827-3.6189-0.66968-2.087 1.3335-4.0146 3.3154-4.148 2.3563-0.16181 4.8224 2.0669 5.4543 4.2331 0.33307 1.1079 0.046063 2.2264-0.8622 3.3508l-1.2886-1.0394c0.3685-0.59646 0.5563-1.1315 0.56575-1.6028 0.014173-1.5472-2.074-3.5409-3.6425-3.4051-1.1445 0.098032-2.2346 1.1374-1.7457 2.3445 0.51496 1.2413 1.7126 2.4378 2.5524 3.5043 1.1681 1.4811 1.6854 3.1252 0.3685 4.7563-1.852 2.2961-4.5886 1.461-6.587-0.15236-2.1992-1.7752-3.065-4.4504-1.128-6.7913l1.2886 1.0406z"/>
   <polygon id="path1848" class="fil3" points="1494.7 693.28 1493.8 694.55 1490.2 692.01 1483.6 701.36 1482.2 700.32 1488.8 690.98 1485.2 688.44 1486.1 687.18"/>
   <polygon id="path1847" class="fil3" points="1470.5 680.41 1472.1 681.15 1469.9 686.03 1476.1 688.85 1478.3 683.96 1479.9 684.7 1474.5 696.52 1472.9 695.78 1475.4 690.26 1469.3 687.44 1466.7 692.97 1465.1 692.23"/>
   <path id="path1846" class="fil3" d="m1457.3 677.09c1.1835 0.30118 2.1484 0.79016 2.8949 1.4681 1.0854 0.97559 1.5591 2.3232 1.4197 4.0406l-1.689-0.42992c0.027165-0.97205-0.22795-1.7504-0.76772-2.3315-0.53858-0.58819-1.3004-1.0075-2.2831-1.2567-1.1669-0.29764-2.2618-0.10984-3.2846 0.56102-1.0181 0.67323-1.7468 1.8756-2.1874 3.6083-0.3815 1.4988-0.36378 2.8028 0.054331 3.9142 0.41929 1.1055 1.3713 1.8472 2.8594 2.224 1.1374 0.29055 2.1626 0.20079 3.072-0.26811 0.91772-0.47362 1.5732-1.4445 1.9654-2.915l-3.9461-1.0039 0.36142-1.415 5.5311 1.4067-1.7138 6.7417-1.0972-0.27992v-1.7256c-0.73937 0.48898-1.363 0.79842-1.8709 0.93071-0.85748 0.23268-1.8638 0.20197-3.0189-0.090945-1.4917-0.38032-2.6528-1.1894-3.4819-2.4307-0.86457-1.5094-1.0276-3.3224-0.48898-5.439 0.53622-2.1094 1.5354-3.6425 2.9965-4.5992 1.389-0.91181 2.9468-1.1492 4.6748-0.70984z"/>
   <polygon id="path1844" class="fil3" points="1443 674.85 1444.8 675.03 1443.5 687.97 1441.7 687.79"/>
   <path id="path1842" class="fil3" d="m1433 680.07c0.82559 0.044882 1.4858-0.085039 1.9807-0.38976 0.50079-0.30354 0.7748-0.88465 0.82087-1.7457 0.050787-0.9248-0.25158-1.5744-0.90472-1.9453-0.34961-0.19724-0.82441-0.31063-1.4256-0.3437l-4.2957-0.23268-0.23976 4.4362 4.0642 0.22087m-5.5016-6.2634 6.0094 0.3248c0.98976 0.054331 1.7988 0.24331 2.426 0.56575 1.1894 0.62008 1.7433 1.676 1.6618 3.1654-0.041339 0.77835-0.2374 1.4067-0.58819 1.8839-0.34606 0.47716-0.81496 0.85039-1.4079 1.1197 0.49488 0.23386 0.85984 0.52559 1.0949 0.8752 0.24094 0.34961 0.35551 0.90354 0.34488 1.6583l-0.03189 1.7457c-0.0094488 0.49488 0.011811 0.86575 0.06378 1.1102 0.083858 0.41929 0.25748 0.69331 0.52205 0.82559l-0.015354 0.29291-2.1567-0.11811c-0.05315-0.11457-0.092126-0.2622-0.11811-0.43937-0.025984-0.17953-0.036614-0.52323-0.033071-1.0311l0.011811-2.1697c0.0047244-0.85158-0.27992-1.4374-0.85276-1.7575-0.32835-0.17716-0.85039-0.28583-1.5697-0.3248l-4.0028-0.21614-0.30236 5.5665-1.7587-0.094488 0.70276-12.983z"/>
   <polygon id="path1840" class="fil3" points="1377.3 682.59 1379 682.22 1381.4 693.42 1387.8 692.06 1388.2 693.57 1380 695.31"/>
   <path id="path1839" class="fil3" d="m1369.6 693.32-3.4051-5.0291-0.52441 6.0933 3.9295-1.0642m-4.7976-6.652 1.9228-0.51968 7.9476 11.32-1.8614 0.50315-2.2902-3.4158-4.9642 1.3429-0.34134 4.128-1.7433 0.47126 1.3299-13.83z"/>
   <path id="path1836" class="fil3" d="m1348.6 692.77 1.6346 7.8673c0.19134 0.92362 0.52441 1.6571 0.99921 2.1968 0.7063 0.8185 1.6689 1.1008 2.8878 0.84685 1.461-0.30472 2.3516-1.011 2.6693-2.1189 0.17008-0.60118 0.15945-1.363-0.030709-2.2807l-1.6358-7.8685 1.7504-0.36378 1.4858 7.1492c0.32598 1.5661 0.36378 2.8146 0.11811 3.7453-0.45472 1.6972-1.7563 2.7697-3.9059 3.2161-2.1484 0.44646-3.7665-0.018898-4.8555-1.3949-0.59646-0.75709-1.0571-1.9181-1.3831-3.4819l-1.4858-7.1504 1.7516-0.3626z"/>
   <polygon id="path1832" class="fil3" points="1317.1 702.91 1326.2 700 1326.6 701.51 1319.3 703.9 1320.5 707.66 1327.3 705.44 1327.8 706.88 1320.9 709.09 1322.3 713.28 1329.8 710.85 1330.3 712.32 1321.2 715.28"/>
   <path id="path1849" class="fil3" d="m1345.8 707.36-0.58583 1.2591-2.3315-0.97205c-0.87165 0.82559-1.9216 1.4114-3.0827 1.715-1.9524 0.51142-3.6484 0.27284-5.0917-0.71575-1.3016-0.98858-2.198-2.4177-2.6882-4.2909-0.44646-1.7008-0.40512-3.2669 0.12165-4.6984 0.67795-1.8366 2.0787-3.0342 4.2024-3.5894 2.2205-0.58228 4.05-0.29882 5.4921 0.84685 1.1256 0.89528 1.9146 2.2098 2.3693 3.9449 0.47953 1.8272 0.49016 3.9366-0.4878 5.6091l2.0823 0.89173m-5.2181 0.094488c0.29409-0.1311 0.5374-0.29882 0.72874-0.50197l-1.6606-0.71811 0.57874-1.2768 1.9784 0.84567c0.6874-1.3795 0.64252-2.9988 0.25866-4.4598-0.3874-1.4787-1.0866-2.5677-2.1-3.2658-1.0063-0.69921-2.1815-0.87402-3.522-0.52323-1.3594 0.35669-2.3209 1.0736-2.8878 2.1484-0.56693 1.0701-0.61535 2.5028-0.14409 4.3016 0.39685 1.513 1.0925 2.6173 2.0858 3.3142 1.4398 1.0028 3.1594 0.71929 4.6842 0.13583z"/>
  </g>
  <g id="use1823">
   <path id="path2293" class="fil1 str0" d="m1476.8 1013.6s-11.109-9.0284-13.887-13.194c-2.778-4.1669-10.415-17.359-10.415-17.359l19.442-20.138s14.582 18.054 14.582 21.527c0 3.4713-9.7216 29.164-9.7216 29.164z"/>
   <path id="path2294" class="fil1 str0" d="m1479.6 915.67s-24.302-20.138-26.387-24.998c-2.0823-4.8614-2.7768-22.22-2.7768-22.22l11.805-2.7768s4.8591 4.1658 11.109 7.637c6.2492 3.4724 15.276 4.1669 15.276 4.1669l-9.0272 38.191z"/>
   <path id="path2295" class="fil1 str0" d="m1496.4 741.43s-0.3189-7.9665-0.47835-11.632c-0.15945-3.665-5.2571-8.2854-5.2571-8.2854s-6.0543 5.8949-6.3744 8.1272c-0.3189 2.2299-0.47716 13.224-0.47716 13.224l12.587-1.4339z"/>
   <polygon id="path2296" class="fil1 str0" points="1505.8 1022.1 1501.4 788.31 1476.3 789.18 1472.9 1023.9"/>
   <path id="path2297" class="fil4 str0" d="m1481.3 1024.4 2.2181-243.66m-2.2181 243.66z"/>
   <path id="path2298" class="fil4 str0" d="m1476.9 1024.4 0.44409-243.66m-0.44409 243.66z"/>
   <path id="path2299" class="fil4 str0" d="m1494.6 1025.7 1.774-245.88m-1.774 245.88z"/>
   <path id="path2300" class="fil4 str0" d="m1488 1025.3c-0.44291-2.2193 1.7752-245.88 1.7752-245.88m-1.7752 245.88z"/>
   <path id="path2301" class="fil4 str0" d="m1502.2 1026.2 0.44291-246.76m-0.44291 246.76z"/>
   <polygon id="path2302" class="fil1 str0" points="1511 1039.5 1511 1024.7 1506.6 1021.3 1475.5 1021.3 1467.7 1025.6 1469.4 1041.2"/>
   <polygon id="path2303" class="fil1 str0" points="1504.8 753.86 1500.2 746.53 1509.4 738.4 1472 737.77 1480.1 746.53 1476.5 753.7"/>
   <path id="path2304" class="fil1 str0" d="m1501.7 776.96-6.9307-7.1705s15.137-14.34 17.209-14.34c2.0716 0 3.3461 3.3461 5.576 3.1866 2.2311-0.15945 3.5055-1.115 3.5055-3.5055 0-2.3894-2.2299-3.5055-5.576-3.3461l-49.076-0.63661c-3.5055 0.15827-4.6216 2.2299-4.461 3.9827 0.15827 1.7528 2.5488 3.5055 4.6205 3.3461 2.0716-0.15945 2.7083-3.5055 4.9394-3.3461 2.2311 0.15945 11.791 13.384 11.791 14.34l-7.9665 7.6488 26.369-0.15945z"/>
   <path id="path2305" class="fil1 str0" d="m1507.4 784.47c6.8102 7.6039 11.344 12.38 10.998 24.265 0 12.5-17.063 31.482-29.784 42.926-12.861 11.574-35.538 19.828-35.538 30.008 0 9.8929 1.9654 11.154 4.4102 14.32-2.015-2.302-12.692-9.4831-12.692-26.148 0-16.664 13.887-34.718 29.858-44.44 15.97-9.7216 35.413-22.915 35.413-29.858 0.42638-6.1866-2.6658-11.072-2.6658-11.072z"/>
   <path id="path2306" class="fil1 str0" d="m1504.1 889.26c0.2374 6.8256 0 12.524 0.48189 18.079 0.60591 6.561-20.138 20.138-28.469 28.469-8.3327 8.3327-29.164 17.36-30.553 29.858-1.389 12.498 10.941 24.135 13.818 28.882-3.1642-6.6177 4.0169-14.3 12.255-20.98 7.2567-5.8854 22.917-14.555 30.866-23.178 7.8815-8.5512 16.665-22.22 16.665-35.413s-8.8146-23.634-15.064-25.717z"/>
   <polygon id="path2307" class="fil1 str0" points="1510.2 782.46 1501.4 788.91 1476 789.71 1467.5 782.7 1476 776.96 1501.7 776.96"/>
  </g>
  <g id="g1930">
   <path id="path1927" class="fil1 str0" d="m1387.5 720.1c-17.944 2.8713-22.251 25.84-22.251 25.84s7.8945 1.435 7.8945 8.6126 0.71811 15.79 0.71811 15.79l15.791-17.226-2.1532-33.016z"/>
   <path id="path1928" class="fil1 str0" d="m1366.7 745.22c-6.4594 6.4594-9.3307 14.355-9.3307 14.355s-8.6126-19.38-6.4594-23.687c2.1532-4.3063 7.8945-9.3307 7.1776-13.637-0.71811-4.3063-4.3063-5.0244-8.6126-4.3063-4.3075 0.71811-4.3075 25.122-4.3075 31.582 0 6.4594 1.4362 17.943 5.0244 22.25 3.5894 4.3063 6.4594 10.766 10.049 11.484 3.5882 0.71811 13.637-14.355 13.637-14.355s1.435-14.354-0.71811-17.943c-2.1532-3.5882-6.4594-5.7413-6.4594-5.7413z"/>
   <path id="path1926" class="fil1 str0" d="m1433.4 726.56c23.686 13.638 20.816 32.3 20.098 38.759-0.71811 6.4594 0 10.766 0 10.766s10.049 10.049 14.355 16.508c4.3063 6.4606 16.507 25.122 16.507 25.122l-4.3063 4.3063s-17.943-12.92-25.121-21.533c-7.1764-8.6138-38.758-60.291-38.758-60.291l17.225-13.638z"/>
   <path id="path1929" class="fil4 str0" d="m1373.9 964.85-17.943-252.82m17.943 252.82z"/>
   <path id="path1905" class="fil1 str0" d="m1436.1 960.74-62.138-0.055512c0-1.7126 8.4472-210.04 8.4472-221.53 0-11.492-1.7102-20.295 0.73346-22.984 2.4461-2.6894 24.208-1.9559 29.098 0 4.8898 1.9559 19.805 6.6024 21.027 9.2917 1.2236 2.6894-2.9327 18.827-2.9327 24.451 0 5.6232 6.3555 20.783 5.8677 28.606-0.48898 7.8248 6.3732 88.395 6.3732 93.774 0 6.6378-5.4449-3.4063-7.9028-0.2315-2.9516 3.8114 8.6043 85.452 1.4268 88.681z"/>
   <g id="g1911">
    <path id="path1904" class="fil1 str0" d="m1400.3 697.58s-0.73346 15.404-0.73346 19.561c0 4.1563 6.8457 11.246 11.248 11.98 4.4008 0.73346 9.0472-4.1563 8.5583-11.003-0.49016-6.8457-2.6906-5.8677-2.6906-13.936 0-8.0705-1.4669-13.938-1.4669-13.938l-14.915 7.3358z"/>
    <path id="path1899" class="fil1 str0" d="m1397.1 679.24c-1.2224 6.8457-0.97913 18.093-0.24567 20.783 0.73465 2.6894 0.73465 10.025 5.1354 10.759 4.4008 0.73346 11.737-8.8028 13.938-12.959 2.1992-4.1563 3.1772-9.2917 3.1772-9.2917l-11.735-17.115-10.27 7.8248z"/>
    <path id="path1902" class="fil1 str0" d="m1397.6 703.7 6.6024-0.48898m-6.6024 0.48898z"/>
    <path id="path1903" class="fil1 str0" d="m1404.4 688.78h5.1354m-5.1354 0z"/>
    <path id="path1898" class="fil1 str0" d="m1395.9 679.49c-2.2004-4.6465 0.73346-13.694 9.0472-13.449 8.3126 0.24567 17.359 12.226 17.359 18.338 0 6.1146-1.7102 11.737-3.1784 11.737-1.4669 0-8.3126-19.316-13.937-19.56-5.6232-0.24449-5.1342 3.1784-9.2906 2.935z"/>
   </g>
   <path id="path1906" class="fil1 str0" d="m1411.8 751.38c-12.47 24.45-22.005 33.008-26.407 33.254-4.402 0.24331-10.025-0.49016-10.025-0.49016l2.4839 50.739 35.679 0.94488m-1.7303-84.448z"/>
   <path id="path1907" class="fil1 str0" d="m1422.5 752.11c-12.226 48.412-49.88 73.841-49.88 73.841l4.663 75.378 37.036-36.742m8.1815-112.48z"/>
   <path id="path1908" class="fil1 str0" d="m1416.4 788.54c-10.025 78.243-44.5 65.772-44.5 65.772l1.9039 69.353c28.779-6.9012 30.932-29.869 30.932-29.869s10.048 2.8701 17.225-4.3075c7.1776-7.1764 0.71811-30.862 2.8713-41.629 2.1532-10.766 2.8713-22.25 2.8713-22.25m-11.303-37.07z"/>
   <path id="path1919" class="fil4 str0" d="m1424.8 794.03c-2.8713 12.203-5.7425 38.041-5.7425 38.041m5.7425-38.041z"/>
   <path id="path1920" class="fil4 str0" d="m1384.6 833.51c12.201-5.7425 27.274-44.502 27.274-44.502m-27.274 44.502z"/>
   <path id="path1921" class="fil4 str0" d="m1415.5 862.22c-1.435 7.8945 0.71811 18.66 0.71811 18.66m-0.71811-18.66z"/>
   <path id="path1922" class="fil4 str0" d="m1416.2 913.89c0.71693-17.944-1.4362-20.098-1.4362-20.098m1.4362 20.098z"/>
   <path id="path1923" class="fil4 str0" d="m1421.2 743.07c4.3063-7.1787 5.0232-20.098 5.0232-20.098m-5.0232 20.098z"/>
   <path id="path1925" class="fil4 str0" d="m1437 871.55c-7.8957-3.5882-12.202-6.4594-12.202-6.4594m12.202 6.4594z"/>
  </g>
  <g id="g1775">
   <path id="path1773" class="fil1 str0" d="m1336.1 1015.2s11.111-9.0272 13.887-13.194c2.778-4.1658 10.416-17.36 10.416-17.36l-19.442-20.135s-14.583 18.053-14.583 21.524c0 3.4724 9.7216 29.165 9.7216 29.165z"/>
   <path id="path1774" class="fil1 str0" d="m1333.3 917.3s24.305-20.137 26.387-24.998c2.0835-4.8602 2.7768-22.22 2.7768-22.22l-11.803-2.778s-4.8614 4.1669-11.111 7.6394c-6.2504 3.4713-15.276 4.1658-15.276 4.1658l9.026 38.191z"/>
   <path id="path1764" class="fil1 str0" d="m1316.5 743.06s0.3189-7.9665 0.47716-11.63c0.15945-3.665 5.2594-8.2866 5.2594-8.2866s6.0543 5.8961 6.3732 8.126c0.3189 2.2323 0.47716 13.226 0.47716 13.226l-12.587-1.435z"/>
   <polygon id="path1760" class="fil1 str0" points="1307.1 1023.8 1311.4 789.94 1336.6 790.81 1340 1025.5"/>
   <path id="path1765" class="fil4 str0" d="m1331.6 1026-2.2193-243.66m2.2193 243.66z"/>
   <path id="path1769" class="fil4 str0" d="m1336 1026-0.44291-243.66m0.44291 243.66z"/>
   <path id="path1767" class="fil4 str0" d="m1318.3 1027.4-1.7752-245.88m1.7752 245.88z"/>
   <path id="path1766" class="fil4 str0" d="m1324.9 1026.9c0.44291-2.2193-1.7764-245.88-1.7764-245.88m1.7764 245.88z"/>
   <path id="path1768" class="fil4 str0" d="m1310.7 1027.8-0.44409-246.76m0.44409 246.76z"/>
   <polygon id="path1759" class="fil1 str0" points="1301.9 1041.1 1301.9 1026.4 1306.2 1022.9 1337.4 1022.9 1345.2 1027.2 1343.5 1042.8"/>
   <polygon id="path1763" class="fil1 str0" points="1308.1 755.49 1312.7 748.16 1303.4 740.03 1340.9 739.4 1332.8 748.16 1336.4 755.33"/>
   <path id="path1762" class="fil1 str0" d="m1311.3 778.11 6.8528-6.6921s-15.137-14.341-17.209-14.341c-2.0716 0-3.3461 3.3472-5.576 3.1866-2.2323-0.15945-3.5067-1.115-3.5067-3.5055 0-2.3894 2.2311-3.5043 5.5772-3.3461l49.076-0.6378c3.5055 0.16063 4.6205 2.2323 4.461 3.9839-0.15945 1.7528-2.5488 3.5055-4.6205 3.3461-2.0716-0.15945-2.7094-3.5055-4.9394-3.3461-2.2311 0.15945-11.791 13.385-11.791 14.341l7.9665 7.6476-26.291-0.63661z"/>
   <path id="path1770" class="fil1 str0" d="m1305.9 786.44c-6.8102 8.3315-11.611 12.183-11.465 23.92 0 12.5 17.063 31.481 29.783 42.927 12.862 11.572 35.539 19.827 35.539 30.008 0 9.8929-1.9642 11.154-4.4114 14.32 2.015-2.3032 12.693-9.4842 12.693-26.15 0-16.665-13.887-34.718-29.858-44.44-15.971-9.7205-35.413-22.915-35.413-29.858-0.17953-6.0059 3.1323-10.727 3.1323-10.727z"/>
   <path id="path1772" class="fil1 str0" d="m1308.8 890.88c-0.23858 6.8256 0 12.524-0.48189 18.08-0.60709 6.561 20.138 20.135 28.469 28.468 8.3327 8.3327 29.164 17.36 30.553 29.858 1.389 12.5-10.941 24.135-13.819 28.883 3.1654-6.6189-4.0158-14.301-12.254-20.981-7.2567-5.8842-22.918-14.554-30.866-23.177-7.8815-8.5524-16.665-22.22-16.665-35.414 0-13.193 8.8146-23.634 15.064-25.717z"/>
   <polygon id="path1761" class="fil1 str0" points="1302.7 784.09 1311.5 790.54 1336.9 791.34 1345.4 784.33 1336.9 778.59 1311.2 778.59"/>
  </g>
  <path id="text1791" class="fil3" d="m1360 859.92 0.97677 0.86339-3.1913 3.6035 6.7949-0.4122 1.3831 1.2236-5.713 0.25748-0.74646 7.2118-1.3028-1.1539 0.69567-5.9988-2.185 0.085039-2.2807 2.576-0.97677-0.86339 6.5457-7.3925m-4.0736-3.9661c0.93543 0.82795 1.4433 1.7173 1.5236 2.6681 0.079134 0.95079-0.12874 1.7646-0.62835 2.4425l-0.97559-0.86339c0.31181-0.5752 0.42402-1.148 0.3378-1.7209-0.081496-0.57047-0.42165-1.1185-1.0181-1.6476-0.72874-0.64488-1.5449-0.90827-2.4484-0.7937-0.89764 0.11457-1.8154 0.70039-2.7508 1.7575-0.76654 0.86575-1.187 1.7468-1.2626 2.6433-0.069685 0.89646 0.29646 1.6984 1.0984 2.4094 0.73819 0.65315 1.5508 0.86811 2.439 0.64252 0.4689-0.11811 0.96968-0.37559 1.5012-0.77244l0.97677 0.86339c-0.77716 0.70276-1.6441 1.0996-2.5996 1.1917-1.148 0.11457-2.2205-0.26929-3.2173-1.1516-0.85866-0.76063-1.35-1.6594-1.4728-2.6965-0.16063-1.3677 0.39685-2.7697 1.6677-4.2059 0.96496-1.0902 2.0457-1.7291 3.2409-1.9158 1.2945-0.20551 2.4909 0.17716 3.5882 1.1492m-0.20197-0.17835m-7.735-6.8492c1.3051 1.1563 1.9004 2.4319 1.7846 3.8244-0.088583 1.089-0.58465 2.1425-1.4882 3.163-0.97677 1.1032-2.0705 1.7728-3.2776 2.0079-1.4185 0.27638-2.7354-0.12402-3.9532-1.2024-1.1374-1.0063-1.6996-2.1744-1.6854-3.502 0.061417-1.2378 0.58228-2.4118 1.5626-3.5185 0.88583-1.0004 1.8909-1.6358 3.0165-1.9075 1.4457-0.34724 2.7933 0.030709 4.0406 1.135m-6.0213 7.0039c0.88228 0.78189 1.7988 1.0311 2.7496 0.74764 0.95787-0.28346 1.8-0.8374 2.5276-1.6594 0.77008-0.86811 1.161-1.7693 1.174-2.7035 0.016535-0.93071-0.36968-1.7468-1.1575-2.4437-0.76535-0.67677-1.6228-0.96614-2.5724-0.86693-0.94606 0.094488-1.8732 0.65551-2.7791 1.6772-0.72402 0.81968-1.1303 1.6937-1.2165 2.622-0.079134 0.92835 0.34488 1.8035 1.2744 2.6268m6.052-6.9768m-4.3205-3.4654-0.77953 0.8811-2.4909-2.2063-5.7661 6.5126-1.0158-0.90118 5.765-6.5114-2.4909-2.2051 0.77953-0.8811 5.9988 5.3114m-15.881-5.1284c-0.34842 0.43937-0.55158 0.86693-0.60827 1.2827-0.10158 0.78543 0.26811 1.5484 1.1055 2.2913 0.37677 0.33189 0.76535 0.5811 1.1693 0.74646 0.78189 0.32126 1.4102 0.21378 1.885-0.32244 0.35669-0.40276 0.48425-0.80197 0.38504-1.1953-0.10748-0.39331-0.37677-0.89409-0.81142-1.4976l-0.80079-1.1138c-0.52323-0.72638-0.84213-1.2992-0.95669-1.7185-0.19606-0.72402-0.022441-1.3925 0.52087-2.0079 0.58819-0.66378 1.3016-1.0051 2.1378-1.0252 0.8374-0.018898 1.676 0.3437 2.5193 1.0902 0.77362 0.68622 1.265 1.4563 1.4728 2.3102 0.21378 0.85276-0.043701 1.6913-0.77008 2.5134l-0.94134-0.83386c0.29882-0.43937 0.46181-0.83858 0.48425-1.1965 0.036614-0.65433-0.31181-1.3063-1.0429-1.9547-0.59055-0.52205-1.1256-0.77362-1.6028-0.75472-0.47835 0.018898-0.8622 0.1937-1.1539 0.52323-0.32126 0.36142-0.40512 0.76063-0.25158 1.1953 0.10276 0.28228 0.43228 0.81378 0.9874 1.5921l0.82795 1.1551c0.39921 0.5563 0.64606 1.0535 0.74291 1.4929 0.16417 0.76063-0.046063 1.4705-0.62716 2.1284-0.72638 0.8185-1.5425 1.1398-2.452 0.9626-0.90591-0.17362-1.7528-0.60945-2.5406-1.3063-0.92008-0.81378-1.4315-1.6866-1.5354-2.6173-0.1063-0.92598 0.19724-1.7846 0.91535-2.5736l0.94134 0.83386m6.6331-3.4181m-9.6236-8.1626 5.3906 4.7728-0.80315 0.90591-4.4126-3.9071-1.9878 2.2441 4.0819 3.613-0.75709 0.8563-4.0819-3.6142-2.2193 2.5063 4.4894 3.9744-0.77953 0.8811-5.465-4.8402 6.5445-7.3925m2.7331 2.4201m-9.15-8.1-3.45 8.1756 7.6724-4.4374 1.1232 0.99331-9.2433 5.0043-1.0618-0.94016 3.8528-9.776 1.1067 0.98032m-3.215-2.8476 1.011 0.89528-6.5445 7.3937-1.011-0.89646 6.5445-7.3925m0.50787 0.45m-6.4311-5.6941 1.0004 0.88701-5.7638 6.5114 3.7441 3.3154-0.78071 0.8811-4.7445-4.2024 6.5445-7.3925z"/>
  <path id="text1794" class="fil3" d="m1340.6 951.48 1.1823 1.0476-1.5685 9.2941 5.302-5.9882 0.95197 0.84213-6.5457 7.3913-1.1232-0.99331 1.5094-9.3378-5.2984 5.9835-0.95551-0.84567 6.5457-7.3937m2.8677 2.5406m-5.5004-4.8697 1.011 0.89409-6.5445 7.3925-1.0122-0.89528 6.5457-7.3913m0.50906 0.44882m-7.7291 0.94252 1.7705-4.2602-4.0854 2.2098 2.315 2.0504m2.2181-5.8205 1.1315 1.0028-3.8634 9.7665-1.0961-0.97205 1.2094-2.8772-2.922-2.589-2.7614 1.5059-1.0264-0.90945 9.3284-4.9276m0.5185 0.45827m-9.5764-2.4366c0.4689 0.41575 0.92362 0.65079 1.3618 0.70276 0.44055 0.055512 0.87874-0.16063 1.3122-0.65079 0.46654-0.52795 0.59291-1.0559 0.38032-1.585-0.11575-0.2811-0.34488-0.57402-0.6874-0.87638l-2.4461-2.1661-2.2358 2.5264 2.315 2.0492m-0.31772-6.3224 3.4216 3.0295c0.56339 0.49842 0.95551 0.99213 1.1764 1.4811 0.41457 0.92953 0.24685 1.8189-0.50551 2.6681-0.39213 0.44291-0.80433 0.72284-1.239 0.84213-0.4311 0.12165-0.88583 0.12165-1.3665 0.0023622 0.18543 0.37323 0.26457 0.71811 0.23976 1.037-0.02126 0.32244-0.21496 0.70512-0.57756 1.1504l-0.84213 1.0216c-0.24094 0.29055-0.40276 0.52087-0.4878 0.69094-0.14764 0.28937-0.17362 0.53504-0.077953 0.73819l-0.14764 0.16654-1.2284-1.0866c0.023622-0.093307 0.069685-0.19961 0.13937-0.31772 0.068504-0.11929 0.22441-0.32953 0.46535-0.62953l1.0323-1.2862c0.40276-0.50315 0.51142-0.98622 0.32008-1.448-0.11102-0.25866-0.37087-0.57047-0.77953-0.93307l-2.2807-2.0173-2.8063 3.1701-1.0016-0.88701 6.5457-7.3925m-4.6878-4.4917c0.69567 0.61535 1.1776 1.2815 1.4457 1.9984 0.39213 1.0358 0.24449 2.1094-0.44646 3.222l-0.99213-0.87756c0.35787-0.64724 0.45591-1.2614 0.29291-1.8413-0.15945-0.58346-0.52795-1.1315-1.1043-1.6429-0.68386-0.60591-1.4894-0.85984-2.413-0.76299-0.92126 0.10039-1.8319 0.66024-2.7307 1.676-0.77953 0.87874-1.2201 1.7658-1.324 2.661-0.10158 0.89173 0.28465 1.7244 1.1563 2.4968 0.66732 0.59055 1.3902 0.88583 2.1673 0.88583 0.78543 0 1.565-0.42756 2.3421-1.2839l-2.315-2.0504 0.73465-0.83032 3.2457 2.8736-3.502 3.9555-0.64488-0.56929 0.60118-1.1658c-0.6685 0.072047-1.1976 0.064961-1.5874-0.022441-0.65906-0.14173-1.3276-0.51024-2.0055-1.1102-0.8752-0.77598-1.3772-1.7256-1.5059-2.8524-0.057874-1.3193 0.46299-2.6008 1.5614-3.8421 1.0961-1.2378 2.3032-1.9252 3.6213-2.0622 1.2555-0.13465 2.3906 0.24803 3.4028 1.1445m-0.15591-0.15591z"/>
  <path id="text1797" class="fil3" d="m1490.2 832.63c0.39213 0.45827 0.80079 0.76181 1.2284 0.90709 0.80669 0.27165 1.689 0.040158 2.6457-0.68976 0.42992-0.32835 0.77362-0.6874 1.0323-1.0784 0.50079-0.75709 0.51614-1.4433 0.049606-2.0563-0.35197-0.45945-0.74528-0.67795-1.1811-0.65433-0.43701 0.030709-1.0205 0.2126-1.7492 0.54331l-1.3406 0.61535c-0.87638 0.40039-1.5461 0.6189-2.0114 0.65315-0.80433 0.056693-1.4752-0.26575-2.0102-0.96732-0.57756-0.75945-0.79134-1.5815-0.63661-2.4673 0.15236-0.88701 0.71102-1.6972 1.6724-2.4319 0.88465-0.67559 1.7988-1.0335 2.7425-1.0748 0.94606-0.048425 1.7752 0.39685 2.4921 1.3346l-1.0748 0.81968c-0.40276-0.40748-0.78898-0.66024-1.161-0.75827-0.68504-0.1748-1.4445 0.056693-2.2807 0.69449-0.67323 0.51378-1.0488 1.024-1.1291 1.5342-0.077953 0.50787 0.025984 0.94961 0.31181 1.3252 0.31654 0.41339 0.71929 0.58465 1.2106 0.51378 0.3189-0.050787 0.94724-0.28701 1.885-0.71102l1.389-0.63307c0.66968-0.30591 1.2472-0.46417 1.7303-0.4748 0.8374-0.015354 1.5425 0.35315 2.1142 1.1043 0.71339 0.93543 0.88228 1.8638 0.50906 2.7862-0.37205 0.9189-1.0075 1.7232-1.9075 2.4094-1.05 0.80079-2.0764 1.1598-3.0803 1.0772-0.99803-0.080315-1.8413-0.57992-2.5252-1.5012l1.0748-0.81968m-2.2287-7.7091m-10.609 8.4591 6.1524-4.6949 0.79016 1.0335-5.0398 3.8445 1.9559 2.563 4.6606-3.5551 0.74528 0.97677-4.6606 3.5563 2.1839 2.8606 5.1248-3.9106 0.76772 1.0051-6.2409 4.761-6.4394-8.4402m3.1193-2.3799m-11.663 8.8996 1.35-1.0311 9.4807 3.5858-5.2169-6.8386 1.0854-0.82795 6.4406 8.4413-1.2803 0.97677-9.5409-3.5303 5.2134 6.8327-1.0913 0.8315-6.4406-8.4402m3.274-2.4992m-6.2799 4.7917 1.1551-0.8811 6.4406 8.4402-1.1539 0.88228-6.4417-8.4413m0.5811-0.44173m-10.728 8.185 1.637-1.2496 7.8709 5.2866-3.0378-8.974 1.6205-1.2354 6.4406 8.4402-1.0854 0.82913-3.802-4.9831c-0.13228-0.17126-0.34488-0.45945-0.64252-0.86457-0.29528-0.40394-0.61772-0.83386-0.96614-1.2898l3.026 8.9563-1.1327 0.86339-7.8567-5.2689 0.19724 0.25866c0.15709 0.20669 0.40276 0.51968 0.73465 0.94016 0.33307 0.4122 0.57638 0.71811 0.72756 0.91654l3.8008 4.9831-1.0913 0.8315-6.4406-8.4402z"/>
  <path id="text1800" class="fil3" d="m1467.7 951.25 1.1433-0.87284 5.674 7.435 4.2744-3.2622 0.76772 1.0063-5.4189 4.1339-6.4406-8.4402m-3.0059 2.2925 1.1551-0.8811 6.4406 8.4402-1.1539 0.88228-6.4417-8.4413m0.5811-0.44291m-6.5185 4.611c1.4894-1.1374 2.9575-1.5 4.4055-1.089 1.128 0.32008 2.1378 1.063 3.026 2.2276 0.9626 1.2591 1.4421 2.5524 1.4398 3.8752-0.0035433 1.5532-0.70039 2.8606-2.0906 3.9213-1.298 0.99094-2.6457 1.3406-4.0441 1.05-1.2945-0.32126-2.4224-1.115-3.3874-2.3799-0.87165-1.1398-1.3335-2.3339-1.3866-3.5776-0.067323-1.598 0.61181-2.9409 2.0374-4.0276m6.1382 7.8071c1.0087-0.7689 1.461-1.6842 1.3594-2.7461-0.10039-1.0689-0.50906-2.0728-1.2248-3.0118-0.75709-0.99213-1.6264-1.5909-2.6102-1.7988-0.97795-0.21142-1.9181 0.027165-2.8181 0.71457-0.87284 0.66496-1.3559 1.5094-1.4492 2.5323-0.095669 1.0181 0.30236 2.1118 1.1941 3.2811 0.71339 0.93425 1.5508 1.5425 2.5122 1.8272 0.96378 0.27638 1.976 0.011811 3.0366-0.79842m-6.1051-7.8331z"/>
  <g id="g1723">
   <path id="path1627" class="fil1 str0" d="m1212.2 1036 397.04 0.58937-42.351 62.349s-160.58 58.821-167.64 57.644c-7.0583-1.1752-168.82-58.82-168.82-58.82l-18.235-61.762z"/>
   <polygon id="path1634" class="fil1 str0" points="1362.2 971.31 1362.2 1060.1 1371 1057.8 1371 970.14"/>
   <polygon id="path1635" class="fil1 str0" points="1442.2 970.14 1443.9 1060.1 1452.8 1060.1 1451.6 970.14"/>
   <polygon id="path1630" class="fil1 str0" points="1354 1058.4 1354.5 1073.7 1458.6 1073.7 1458.1 1058.4"/>
   <polygon id="path1629" class="fil1 str0" points="1348.6 1067.2 1348.6 1081.3 1462.8 1081.9 1462.2 1067.2"/>
   <g id="g1700">
    <polygon id="path1653" class="fil1 str0" points="1490.3 1105.8 1490.3 1131.2 1471 1129.5 1471.3 1099.2"/>
    <polygon id="path1652" class="fil1 str0" points="1339.5 1101.1 1338.8 1128 1321.8 1119.1 1323.7 1102.6"/>
    <path id="path1651" class="fil1 str0" d="m1322.5 1112.5c-0.98504-13.058 3.9425-19.709 7.8839-19.709 3.9425 0 142.16-0.4937 150.04 0 7.8839 0.49134 9.8539 8.1295 9.8539 12.318v14.043s-0.79724-7.5992-17.059-8.5854c-16.26-0.98504-6.3461 3.411-68.185 2.9197-61.841-0.4937-60.363-2.9114-69.725-3.6508-9.3614-0.73937-11.825 0.20079-12.811 2.6646z"/>
    <path id="text1660" class="fil3" d="m1471.7 1095.8c1.5555 0 2.6799 0.64016 3.3744 1.9205 0.53622 0.99094 0.80551 2.348 0.80551 4.0713 0 1.6335-0.24449 2.9835-0.7311 4.0524-0.70394 1.5331-1.8567 2.2996-3.4571 2.2996-1.4433 0-2.5169-0.62598-3.222-1.8791-0.58701-1.0465-0.8811-2.452-0.8811-4.213 0-1.3654 0.17598-2.537 0.52795-3.5161 0.66024-1.8236 1.8555-2.7354 3.5835-2.7354m-0.015354 10.968c0.78189 0 1.4067-0.34724 1.8709-1.0406 0.46417-0.69449 0.69567-1.9866 0.69567-3.8764 0-1.3654-0.16772-2.4874-0.50315-3.3661-0.33543-0.88346-0.9874-1.3252-1.9547-1.3252-0.89055 0-1.5413 0.41929-1.9559 1.2591-0.40866 0.83268-0.61299 2.0634-0.61299 3.6909 0 1.226 0.13228 2.211 0.39449 2.9539 0.40276 1.1362 1.0913 1.7043 2.0658 1.7043z"/>
    <path id="path1677" class="fil3" d="m1459.8 1104.9c0.044882 0.83268 0.36732 1.4091 0.96614 1.7291 0.30709 0.16772 0.65433 0.25158 1.0394 0.25158 0.72284 0 1.337-0.3 1.8461-0.89882 0.50906-0.60354 0.87047-1.826 1.0831-3.6661-0.33543 0.53032-0.75236 0.90591-1.2508 1.1232-0.49252 0.21378-1.024 0.3189-1.5945 0.3189-1.1575 0-2.0752-0.36024-2.752-1.0819-0.67087-0.72165-1.0063-1.6512-1.0063-2.7862 0-1.0902 0.33189-2.0504 0.99803-2.8784 0.66496-0.82795 1.6476-1.2413 2.9457-1.2413 1.7504 0 2.9587 0.78898 3.6248 2.3658 0.36968 0.86811 0.55394 1.9524 0.55394 3.2551 0 1.4716-0.22087 2.7756-0.6626 3.9106-0.73228 1.8921-1.976 2.837-3.7264 2.837-1.174 0-2.0669-0.30827-2.6764-0.92244-0.61063-0.61535-0.91535-1.3878-0.91535-2.3161h1.5272m2.2913-2.4673c0.59882 0 1.1445-0.19606 1.6358-0.58819 0.49842-0.39685 0.74764-1.0878 0.74764-2.0728 0-0.88346-0.22441-1.5402-0.67087-1.9713-0.44291-0.43701-1.0075-0.65433-1.6949-0.65433-0.73937 0-1.3276 0.24803-1.7634 0.74646-0.42992 0.49134-0.64606 1.1528-0.64606 1.9807 0 0.78307 0.19016 1.4067 0.57047 1.8709 0.38032 0.45945 0.98858 0.68858 1.8213 0.68858z"/>
    <path id="path1675" class="fil3" d="m1452.6 1100.8c0.66614 0 1.1858-0.18425 1.5602-0.55276 0.37559-0.37559 0.5622-0.81968 0.5622-1.3346 0-0.44764-0.17953-0.85866-0.5374-1.2331-0.35669-0.37559-0.90236-0.56339-1.6358-0.56339-0.72756 0-1.2532 0.1878-1.578 0.56339-0.32362 0.37441-0.48543 0.81378-0.48543 1.3169 0 0.56457 0.20906 1.0075 0.62835 1.3252 0.42047 0.32008 0.91417 0.47835 1.4858 0.47835m0.092126 5.9504c0.69921 0 1.278-0.1878 1.7374-0.5622 0.46417-0.38032 0.69567-0.94488 0.69567-1.6949 0-0.77716-0.2374-1.3689-0.71339-1.7705-0.4748-0.40276-1.0854-0.60472-1.8284-0.60472-0.72284 0-1.3122 0.20787-1.7716 0.62126-0.45236 0.40866-0.67913 0.97677-0.67913 1.7032 0 0.62716 0.20669 1.1693 0.62126 1.6287 0.41929 0.45354 1.0654 0.67913 1.9382 0.67913m-2.1484-5.3705c-0.42047-0.17953-0.74646-0.38858-0.9815-0.62953-0.44173-0.44764-0.6626-1.0287-0.6626-1.7457 0-0.89528 0.32362-1.663 0.97205-2.3079 0.64961-0.64252 1.5697-0.96496 2.7614-0.96496 1.1528 0 2.0563 0.30591 2.7106 0.91535 0.65433 0.60472 0.98268 1.3122 0.98268 2.1224 0 0.75-0.19134 1.3571-0.57165 1.8213-0.2126 0.26339-0.54213 0.52087-0.98976 0.77244 0.49724 0.22913 0.88937 0.49134 1.174 0.78898 0.5315 0.55866 0.79724 1.2862 0.79724 2.1815 0 1.0571-0.35433 1.9547-1.0654 2.6941-0.70984 0.73228-1.715 1.0984-3.0118 1.0984-1.1705 0-2.1602-0.31654-2.9705-0.94842-0.80669-0.6378-1.2094-1.5602-1.2094-2.7685 0-0.71102 0.17362-1.3228 0.52087-1.8378 0.34724-0.52087 0.8622-0.91772 1.5437-1.1917z"/>
    <path id="path1672" class="fil3" d="m1440 1099.3v-1.1575c1.0913-0.1063 1.852-0.28228 2.2831-0.52795 0.4311-0.25158 0.75236-0.84213 0.96496-1.7716h1.1917v11.967h-1.611v-8.5098h-2.8287z"/>
    <path id="path1671" class="fil3" d="m1368.4 1104.6c0.044882 0.83386 0.36732 1.4102 0.96496 1.728 0.30827 0.1689 0.65551 0.25394 1.0406 0.25394 0.72284 0 1.337-0.3 1.8461-0.89882 0.50906-0.60354 0.87047-1.826 1.0831-3.6673-0.33543 0.5315-0.75236 0.90709-1.2508 1.1244-0.49252 0.2126-1.024 0.3189-1.5945 0.3189-1.1575 0-2.074-0.36142-2.752-1.0819-0.67087-0.72284-1.0063-1.6512-1.0063-2.7862 0-1.0902 0.33189-2.0516 0.99803-2.8784 0.66496-0.82795 1.6476-1.2425 2.9457-1.2425 1.7504 0 2.9587 0.78898 3.6248 2.3669 0.36968 0.86693 0.55394 1.9524 0.55394 3.2551 0 1.4716-0.22087 2.7756-0.6626 3.9106-0.73228 1.8909-1.976 2.837-3.7264 2.837-1.174 0-2.0669-0.30827-2.6764-0.92244-0.61063-0.61654-0.91535-1.3878-0.91535-2.3173h1.5272m2.2913-2.4673c0.59882 0 1.1445-0.19606 1.637-0.58701 0.49724-0.39685 0.74646-1.0878 0.74646-2.0728 0-0.88465-0.22441-1.5402-0.67087-1.9713-0.44291-0.43701-1.0087-0.65433-1.6949-0.65433-0.73937 0-1.3276 0.24803-1.7634 0.74646-0.42992 0.49134-0.64488 1.1528-0.64488 1.9807 0 0.78307 0.18898 1.4067 0.56929 1.8709 0.38032 0.45945 0.98858 0.6874 1.8213 0.6874z"/>
    <path id="path1669" class="fil3" d="m1361.6 1095.4c1.3429 0 2.2772 0.34961 2.8028 1.0488 0.5315 0.69331 0.79724 1.4102 0.79724 2.1484h-1.4941c-0.088583-0.4748-0.2315-0.84803-0.42638-1.1161-0.36496-0.50315-0.91535-0.75472-1.6535-0.75472-0.84449 0-1.5165 0.39094-2.015 1.174-0.49842 0.77716-0.7748 1.8945-0.83032 3.3484 0.34724-0.50906 0.78425-0.88937 1.3087-1.1409 0.48189-0.22441 1.0181-0.33661 1.611-0.33661 1.0075 0 1.8862 0.32244 2.635 0.96496 0.75 0.64488 1.1256 1.6039 1.1256 2.8795 0 1.0902-0.35551 2.0575-1.0665 2.902-0.71102 0.83976-1.7232 1.2591-3.0378 1.2591-1.1244 0-2.0953-0.4252-2.9114-1.2744-0.81732-0.8563-1.226-2.2937-1.226-4.3146 0-1.4929 0.18307-2.7591 0.54567-3.8008 0.69921-1.9913 1.9772-2.987 3.835-2.987m-0.10866 11.034c0.79488 0 1.3878-0.26457 1.7787-0.79606 0.39803-0.5374 0.59646-1.1693 0.59646-1.8968 0-0.61535-0.17716-1.2-0.53032-1.7539-0.35079-0.55984-0.99213-0.83858-1.9205-0.83858-0.64961 0-1.2201 0.21496-1.7114 0.64606-0.48661 0.4311-0.7311 1.0795-0.7311 1.9465 0 0.76181 0.22205 1.402 0.66378 1.9216 0.44646 0.51378 1.0654 0.77126 1.8543 0.77126z"/>
    <path id="path1667" class="fil3" d="m1351.7 1100.5c0.66496 0 1.1858-0.18425 1.5602-0.55276 0.37441-0.37559 0.5622-0.81968 0.5622-1.3346 0-0.44764-0.17953-0.85866-0.5374-1.2342-0.35787-0.37441-0.90236-0.5622-1.637-0.5622-0.72638 0-1.252 0.1878-1.5768 0.5622-0.32362 0.37559-0.48661 0.81496-0.48661 1.3181 0 0.56457 0.21024 1.0063 0.62953 1.3252 0.41929 0.3189 0.91417 0.47835 1.4858 0.47835m0.090945 5.9492c0.70039 0 1.278-0.18661 1.7374-0.5622 0.46535-0.37913 0.69685-0.9437 0.69685-1.6937 0-0.77835-0.2374-1.3689-0.71339-1.7716-0.47598-0.40158-1.0854-0.60354-1.8295-0.60354-0.72165 0-1.311 0.20669-1.7705 0.62126-0.45236 0.40748-0.67913 0.97559-0.67913 1.7032 0 0.62716 0.20551 1.1693 0.62008 1.6276 0.42047 0.45236 1.0654 0.67913 1.9382 0.67913m-2.1484-5.3693c-0.41929-0.17953-0.74528-0.38858-0.98032-0.62953-0.44291-0.44764-0.66378-1.0299-0.66378-1.7457 0-0.89528 0.3248-1.6642 0.97323-2.3079 0.64961-0.64252 1.5697-0.96496 2.7602-0.96496 1.1539 0 2.0563 0.30472 2.7118 0.91535 0.65433 0.60354 0.9815 1.3122 0.9815 2.1224 0 0.74882-0.19016 1.3571-0.57165 1.8213-0.21142 0.2622-0.54213 0.51968-0.98976 0.77126 0.49842 0.22913 0.89055 0.49252 1.1752 0.79016 0.5315 0.55866 0.79724 1.285 0.79724 2.1815 0 1.0559-0.35551 1.9547-1.0665 2.6941-0.70984 0.73228-1.7138 1.0984-3.0118 1.0984-1.1693 0-2.1591-0.31654-2.9705-0.94842-0.80551-0.6378-1.2083-1.5614-1.2083-2.7697 0-0.70984 0.17362-1.3216 0.52087-1.8366 0.34606-0.52087 0.86102-0.91772 1.5425-1.1917z"/>
    <path id="path1664" class="fil3" d="m1339.1 1099v-1.1575c1.0913-0.1063 1.852-0.28228 2.2819-0.52795 0.4311-0.25158 0.75354-0.84331 0.96496-1.7716h1.1917v11.967h-1.611v-8.5098h-2.8276z"/>
   </g>
   <polygon id="path1628" class="fil1 str0" points="1244 1076.6 1569.2 1078.4 1563.9 1090.7 1258.7 1091.3"/>
   <polygon id="path1631" class="fil1 str0" points="1356.3 967.78 1356.9 974.25 1377.5 974.25 1378.1 967.19"/>
   <polygon id="path1632" class="fil1 str0" points="1437.5 967.19 1438.1 974.25 1455.7 974.25 1456.3 967.19"/>
   <polygon id="path1633" class="fil1 str0" points="1362.2 957.78 1361.6 967.19 1449.8 967.19 1449.8 958.37"/>
   <path id="path1638" class="fil1 str0" d="m1416.9 1006c-1.1764-6.4713-4.1185-35.292-14.118-35.882-9.9992-0.58819-12.939 7.6476-12.939 7.6476s14.116 1.7634 12.939 7.6465c-1.1752 5.8807-7.0583 20.588-9.9992 22.351-2.9398 1.7646 18.823-1.1764 24.117-1.7634z"/>
   <polygon id="path1639" class="fil1 str0" points="1396.9 1003.1 1394.5 1043.1 1422.8 1043.7 1421.6 1004.8"/>
   <path id="path1637" class="fil1 str0" d="m1371 1033.5s-0.51968-24.697 1.1752-31.586c1.1776-7.0583 5.2937-11.764 12.353-11.176 7.0583 0.58701 19.411 13.528 19.411 13.528s18.823-17.058 25.882-16.469c8.0811 2.3256 12.22 8.0634 12.986 14.658 0.19606 5.126 0.61417 31.342 0.61417 31.342s-14.672-16.587-19.484-18.353c-4.1173-1.1776-12.352-2.3528-12.352-2.3528l-1.1232 32-6.5232-0.2374s-0.58937-15.293-1.1776-21.175c-0.58701-5.8819-2.9398-11.177-2.9398-11.177s-10.589 5.2949-14.118 9.411c-4.2579 3.8811-14.705 11.588-14.705 11.588z"/>
   <g id="g1712">
    <path id="path1640" class="fil1 str0" d="m1371.6 1035.8 70.604 0.23032v29.411c-0.55394 25.89-35.663 62.373-35.665 62.374 0 0-35.538-33.542-35.509-63.55-0.58937-29.999 0.56929-28.465 0.56929-28.465z"/>
    <polygon id="path1641" class="fil3" points="1381.5 1069.9 1381.5 1096.3 1386.5 1104.2 1386.5 1069.9"/>
    <polygon id="path1642" class="fil3" points="1392.5 1069.9 1392.6 1112.3 1397.5 1118.2 1397.5 1069.9"/>
    <polygon id="path1643" class="fil3" points="1403.5 1069.9 1403.5 1124.8 1406.5 1127.8 1409.5 1124.5 1409.5 1069.9"/>
    <polygon id="path1644" class="fil3" points="1415.5 1069.9 1415.5 1117.5 1420.5 1111.2 1420.5 1069.9"/>
    <polygon id="path1645" class="fil3" points="1426.5 1069.9 1426.5 1102.9 1431.5 1095.2 1431.5 1069.9"/>
    <polygon id="path1646" class="fil3" points="1371.5 1069.9 1376.5 1069.9 1376.5 1085.7"/>
    <polygon id="path1647" class="fil3" points="1436.5 1069.9 1436.5 1085.8 1441.9 1069.9"/>
    <polygon id="path1649" class="fil1 str0" points="1371 1035.2 1442.2 1036 1442.2 1064 1371 1064.2"/>
   </g>
   <path id="_132303184" class="fil3" d="m1406.6 1038.5 2.9516 9.0815h9.548l-7.7256 5.6126 2.9516 9.0815-7.7256-5.6126-7.7256 5.6126 2.9516-9.0815-7.7256-5.6126h9.548l2.9516-9.0815z"/>
  </g>
  <g id="g1566">
   <polygon id="path1547" class="fil1 str0" points="1585 1020.6 1587.5 924.79 1594.1 924.79 1593.2 1021.4"/>
   <path id="path1548" class="fil1 str0" d="m1594.9 876.87v26.437c0 7.435-11.566 18.175-10.74 23.959 0.82677 5.7827 8.2618 4.9559 10.74 3.3035 2.4791-1.6524 15.698-23.959 15.698-37.176 0-13.219 1.6512-33.046-1.6524-33.872-3.3059-0.82677-14.871 12.391-14.871 12.391l0.82559 4.9583z"/>
   <path id="path1543" class="fil1 str0" d="m1541.2 1004.1s-1.6535 31.394-1.6535 39.656c0 8.2618-0.82559 17.349-6.6094 22.305-5.7827 4.9571-10.74 3.3059-12.392 6.6094-1.6512 3.3059 0.82677 5.7839 0.82677 5.7839l37.178-0.82677s-1.6535-29.74-0.82677-40.481c0.82677-10.741 8.2606-27.263 4.1303-30.567-4.1303-3.3059-17.349-3.3059-20.653-2.4791z"/>
   <path id="path1544" class="fil1 str0" d="m1502.4 995.01s19.827 15.697 19.002 21.48c-0.82677 5.7827-9.9142 12.392-6.6094 15.697 3.3047 3.3047 5.7827 2.4791 5.7827 2.4791l27.265-24.785-31.395-25.61-14.044 10.74z"/>
   <path id="path1546" class="fil1 str0" d="m1566.8 1007.4s8.2618 11.566 19.002 11.566c10.74 0 24.785-29.742 24.785-29.742s-4.9583 40.482-23.959 39.656c-19.002-0.82559-19.828-13.219-19.828-21.48z"/>
   <path id="path1545" class="fil1 str0" d="m1563.5 907.44c4.9571-4.1303 6.6094-28.089 6.6094-28.089l7.435-14.044s12.392 14.044 18.176 13.218c5.7827-0.82677 14.044-0.82677 14.044-5.7827 0-4.9571 2.478-12.392-1.6524-16.524-4.1303-4.1303-25.61-21.48-29.741-23.959-4.1303-2.478-47.091-7.435-50.395-7.435-3.3047 0-16.524 8.2618-18.176 15.697-1.6512 7.4362-4.9571 32.22-4.9571 38.83 0 6.6094 0.70748 16.659 0.70748 16.659l12.511-8.3976 4.1303 11.566 41.308 8.2606z"/>
   <path id="path1549" class="fil1 str0" d="m1519.7 828.13c9.0874 9.913 11.566 35.525 11.566 35.525s2.478-14.046 9.0874-19.003c6.6094-4.9559 22.306-5.7827 22.306-13.218 0-7.435-17.349-9.9142-22.306-9.9142-4.9571 0-13.219 0.82677-20.654 6.6094z"/>
   <path id="path1550" class="fil1 str0" d="m1531.3 824c0 8.2606 3.3047 11.566 7.435 12.392 4.1303 0.82677 14.044-4.1315 13.219-8.2618-0.82677-4.1303-20.654-4.1303-20.654-4.1303z"/>
   <path id="path1551" class="fil1 str0" d="m1534.6 823.17s0 9.9142 4.9559 9.0874c4.9571-0.82559 9.0874-10.74 9.0874-10.74l-14.043 1.6524z"/>
   <path id="path1554" class="fil1 str0" d="m1531.7 783.93c-0.30591 5.8252-0.92008 12.573-1.8402 13.799-0.92008 1.2272-3.9874 6.1335-4.2933 8.5866-0.30591 2.4532 2.7602 2.1472 2.7602 2.1472s-0.61299 11.347-0.92008 13.493c-0.30709 2.1461 4.9063 0.30591 7.0535 3.9862 2.1472 3.6803 2.1472 8.8937 3.3732 7.9736 1.226-0.92008 5.8264-5.5205 8.2795-8.2807 2.4532-2.7591 6.1335-0.61299 7.0535-4.2921 0.92008-3.6803 1.8402-31.28 1.8402-31.28l-23.307-6.1323z"/>
   <path id="path1542" class="fil1 str0" d="m1551.1 1004.9c-9.0874 0.82677-12.392-0.82559-13.219-4.9559-0.82559-4.1315-0.82559-30.569-2.478-39.656-1.6524-9.0874-4.1303-13.219-4.1303-13.219s-21.481 15.697-21.481 23.132c0 7.4362 6.6094 13.219 6.6094 13.219l-13.219 11.566s-27.263-15.697-27.263-24.785c0-9.0874 28.09-39.656 33.046-46.265 4.9583-6.6094 6.6094-25.61 11.566-26.437 4.9583-0.82559 35.525 1.6535 40.482 5.7839 4.9559 4.1303 15.697 22.305 14.871 33.872-0.82677 11.566-4.9571 9.9142-5.7839 14.046-0.82559 4.1303 0 7.4339-0.82559 13.218-0.82677 5.7827-4.9571 1.6524-4.9571 6.6094 0 4.9559 1.6512 26.437-0.82677 30.568-2.478 4.1303-4.1303 3.3035-12.392 3.3035z"/>
   <path id="path1552" class="fil1 str0" d="m1535.4 775.26c-5.7827 4.9583-9.0886 6.6094-7.435 9.9154 1.6524 3.3035 14.87 4.1303 16.522 8.2606 1.6524 4.1315 0 10.74 0 10.74l6.6094-1.6512v19s16.524-13.218 14.87-26.437c-1.6512-13.219-18.174-14.87-23.132-15.697-4.9571-0.82559-4.9571-1.6524-7.435-4.1315z"/>
   <path id="path1553" class="fil1 str0" d="m1504.7 897.39c0.30591 4.2921 1.2272 26.986-0.30709 30.359-1.5331 3.3732-4.2933 8.8937-0.61417 13.187 3.6815 4.2933 7.9736 6.1323 9.8138 2.7591 1.8402-3.3732-0.61299-19.012 1.5331-27.906 2.1472-8.8937 2.4543-24.84 0.92126-26.986-1.5342-2.1472-10.734-1.2272-11.347 8.5866z"/>
   <path id="path1555" class="fil4 str0" d="m1531.4 947.07c-4.9075-9.8126-4.2945-19.625-4.2945-19.625m4.2945 19.625z"/>
   <path id="path1556" class="fil4 str0" d="m1518.5 889.11 0.30709-32.813m-0.30709 32.813z"/>
   <path id="path1557" class="fil4 str0" d="m1570.3 879.6s-4.9063-3.6791-6.4406-5.5193c-1.5331-1.8402-3.3732-4.6004-3.3732-4.6004m9.8138 10.12z"/>
   <path id="path1558" class="fil4 str0" d="m1589.3 876.23c-0.30709-15.639 19.626-18.706 19.626-18.706m-19.626 18.706z"/>
   <path id="path1559" class="fil4 str0" d="m1527.7 813.98 4.9063 0.30709m-4.9063-0.30709z"/>
   <path id="path1560" class="fil4 str0" d="m1530.4 794.96 7.0535 6.1346m-7.0535-6.1346z"/>
  </g>
  <g id="g1607">
   <path id="path1603" class="fil1 str0" d="m1251.2 800.79s-2.5878-9.7051-0.32362-11.646c2.2654-1.9417 16.822-12.295 21.028-11.97 4.2071 0.32244 12.294 12.293 12.294 12.293l-32.999 11.323z"/>
   <path id="path1588" class="fil1 str0" d="m1259.5 831.3s-53.509 39.239-54.104 49.346c-0.59409 10.107 23.783 39.239 23.783 39.239l10.107-9.5126s-1.1882-7.1339-3.5669-13.675c-2.3776-6.5386-7.7291-13.674-7.7291-13.674s1.1894 0.59528 7.135-1.7835c5.9457-2.3776 10.107-5.3516 10.107-5.3516s-1.7835 11.891 1.1894 18.431c2.9716 6.5409 12.485 22.592 12.485 22.592l35.078-2.3776s1.1894-46.374 0.59409-57.076c-0.59409-10.702-13.674-30.916-13.674-30.916l-21.404 4.7575z"/>
   <path id="path1595" class="fil1 str0" d="m1267.8 1008.5s14.27 10.108 19.62 14.864c5.3504 4.7563 7.1339 7.1787 7.1339 7.1787l0.57638 5.3953-14.839-0.050787-15.463-17.874 2.9716-9.5138z"/>
   <path id="path1592" class="fil1 str0" d="m1261 830.32c-0.64606 2.5866 14.592 11.672 18.755 16.428s13.08 11.297 13.08 11.297 0.59409-7.7303-4.7563-17.837c-5.3504-10.108-3.0862-11.725-5.4638-12.319-2.3776-0.59528-23.914-0.90945-21.614 2.4307z"/>
   <path id="path1590" class="fil1 str0" d="m1256 923.45s-9.5126 39.239-10.702 70.75c-1.1894 31.511 6.5398 63.02 6.5398 63.02l22.592-2.9728v-37.455s42.213-43.401 42.213-49.942c0-6.5398-23.187-38.05-21.998-42.211 1.1894-4.1634-0.59409-10.108-0.59409-10.108l-38.05 8.9185z"/>
   <path id="path1591" class="fil1 str0" d="m1275 990.63s6.1028-18.972 7.8862-24.322c1.7835-5.3516 2.3256-9.5138 2.3256-9.5138s7.0299 5.8925 6.4346 9.4594c-0.59409 3.5693-8.9173-1.1882-16.646 24.377z"/>
   <path id="path1605" class="fil3 str0" d="m1241.2 1004.6s-0.64724-17.793-1.9406-22.969c-1.2957-5.178-6.1465-20.059-6.1465-31.382s2.2642-19.088 9.3815-28.146c7.1173-9.0591 14.558-11.97 14.558-11.97s7.1173 0 17.792-0.32362c10.677-0.32244 20.382-0.96968 20.382-0.96968l-0.32362 11.322s-13.587 3.8823-22.323 3.8823c-8.7354 0-18.117-1.9406-18.117-1.9406s-14.882 14.235-14.235 27.822c0.64724 13.589 4.5295 33.322 4.2059 38.823-0.32244 5.4992-3.235 15.852-3.235 15.852z"/>
   <path id="path1593" class="fil1 str0" d="m1258.6 831.67s-0.91772-14.049 0.27165-19.995c1.1894-5.9457 6.5398-20.215 6.5398-20.215l20.809-0.59409-0.59409 27.942-4.1622-0.59409 1.7835 9.5126s-7.1339 3.5681-13.675 4.1622c-6.5386 0.59409-10.972-0.21968-10.972-0.21968z"/>
   <path id="path1586" class="fil1 str0" d="m1262.7 810.06c-13.08 2.9716-19.846 8.7508-24.008 4.5898-4.161-4.161 4.7563-16.648 23.782-24.376 19.025-7.7303 36.862-3.5681 38.052 0 1.1882 3.5669-8.3244 10.107-13.081 10.701-4.7563 0.59409-13.675 0-17.242 2.3776-3.5669 2.3787-7.5024 6.7075-7.5024 6.7075z"/>
   <path id="path1587" class="fil1 str0" d="m1258.4 824.86c-7.35 0.36024-8.8134-6.9012-5.413-12 3.5681-5.3516 10.108-14.864 17.836-17.242 7.7303-2.3787 14.27 0 14.864 4.161 1.415 4.3701 0.24567 7.4976 0.24567 7.4976s-10.975-8.5441-15.704-3.9307c-4.1622 4.7575-4.7563 13.675-8.3232 17.837-1.1646 1.7457-1.4799 3.5823-3.5055 3.6768z"/>
   <path id="path1594" class="fil1 str0" d="m1251.2 911.56c0.59409-10.107 9.3024-12.485 11.891-12.485 2.2642 0 5.9445 11.296 5.9445 19.025 0 7.7303-4.7563 23.187-8.9173 23.782-4.1622 0.59409-2.9728-20.215-2.9728-20.215h-4.7575l-1.1882-10.107z"/>
   <path id="path1596" class="fil1 str0" d="m1252.4 1056.6-0.59409 21.404 46.374-1.1894s1.1906-3.5669-1.7835-6.5398c-2.9728-2.9728-16.051-4.1622-18.43-8.3232-2.3787-4.1622-2.9728-6.5409-2.9728-6.5409l-22.593 1.1894z"/>
   <path id="path1598" class="fil4 str0" d="m1272.6 831.2c8.7354 5.1756 19.088 20.704 19.735 23.292 0.64606 2.5878 0.64606 3.5587 0.64606 3.5587m-20.381-26.851z"/>
   <path id="path1599" class="fil1 str0" d="m1226 916.28c4.2047-9.0579 12.293-8.7342 12.293-8.7342s11.323 5.824 11 8.7342c-0.3248 2.9126-9.0591-0.32244-9.7063 1.6181-0.64724 1.9417 4.8532 8.0882 1.9417 11-2.9114 2.9114-12.618-5.8228-15.528-12.618z"/>
   <path id="path1601" class="fil4 str0" d="m1282.4 822.95-3.6567-0.48898m4.8532 0.64724z"/>
   <path id="path1602" class="fil4 str0" d="m1274.5 1016.9c0.21496-9.274-1.1858-19.195 0.64724-27.823m-0.64724 27.823z"/>
   <path id="path1604" class="fil3" d="m1281.7 809.69c0-1.6972-1.448-3.0744-3.235-3.0744s-3.235 1.3772-3.235 3.0744 1.448 3.072 3.235 3.072 3.235-1.3748 3.235-3.072z"/>
   <path id="path1606" class="fil4 str0" d="m1285.2 956.72c1.9417-11.97 0.64606-24.263 0.64606-24.263m-0.64606 24.263z"/>
  </g>
  <path id="path919" class="fil1 str0" d="m1704.6 891.04c0 164.39-133.6 297.8-298.22 297.8-164.62 0-298.22-133.42-298.22-297.8 0-164.39 133.6-297.81 298.22-297.81 164.62 0 298.22 133.42 298.22 297.81zm-59.291-0.94134c0 132.38-107.04 239.82-238.93 239.82s-238.93-107.44-238.93-239.82 107.04-239.82 238.93-239.82 238.93 107.44 238.93 239.82z"/>
  <path id="text1951" class="fil3" d="m1482.9 612.63c3.124 1.1457 5.6032 2.7413 7.4374 4.7858 2.6681 2.948 3.574 6.7311 2.7165 11.348l-4.4575-1.637c0.34724-2.628-0.12874-4.8059-1.4291-6.5339-1.2945-1.7433-3.2409-3.0909-5.8358-4.0453-3.078-1.1291-6.098-0.92835-9.0579 0.60472-2.9457 1.539-5.2571 4.5945-6.9366 9.1677-1.4516 3.9532-1.7658 7.4929-0.94488 10.62 0.82559 3.1122 3.202 5.3882 7.1244 6.8291 3.0035 1.102 5.8051 1.1457 8.4035 0.12992 2.6185-1.024 4.6665-3.4748 6.1406-7.3512l-10.411-3.822 1.3713-3.7358 14.6 5.361-6.5315 17.792-2.8984-1.0654 0.48543-4.676c-2.1402 1.115-3.9165 1.7811-5.3327 1.9984-2.387 0.38976-5.1035 0.025984-8.1532-1.0937-3.9378-1.4457-6.8575-3.965-8.7591-7.5567-1.9181-4.3346-1.852-9.2941 0.19724-14.877 2.0445-5.5689 5.1803-9.4429 9.4063-11.624 4.0193-2.087 8.3079-2.2925 12.866-0.6189z"/>
  <polygon id="path2004" class="fil3" points="1249 652.12 1253.9 649.41 1283.4 666.08 1269.6 640.87 1273.6 638.69 1290.6 669.81 1285.8 672.38 1256.2 655.86 1269.9 681.05 1265.9 683.24"/>
  <polygon id="path2002" class="fil3" points="1222.5 672.73 1226 669.47 1249.9 695.7 1246.3 698.96"/>
  <path id="path2000" class="fil3" d="m1174.2 721.37 4.2213-5.4224 29.883 10.37-17.424-26.372 4.1776-5.3658 27.95 21.763-2.8004 3.5953-16.495-12.843c-0.57165-0.44409-1.5071-1.1929-2.8063-2.2465-1.2992-1.0524-2.7024-2.165-4.2118-3.3413l17.366 26.327-2.9185 3.7476-29.825-10.325 0.8563 0.66732c0.68622 0.53268 1.7421 1.3358 3.1689 2.4059 1.4256 1.0488 2.4673 1.8284 3.1276 2.3421l16.495 12.843-2.8146 3.6165-27.95-21.762z"/>
  <path id="path1999" class="fil3" d="m1151.4 757.87c2.5323-5.7189 6.2445-9.1382 11.135-10.259 3.8161-0.87638 7.9594-0.32598 12.428 1.6535 4.8354 2.1425 8.3114 5.1496 10.429 9.0236 2.4874 4.5461 2.5488 9.4878 0.18543 14.824-2.2063 4.9819-5.5878 8.1709-10.142 9.5646-4.3016 1.135-8.8772 0.62953-13.728-1.5177-4.3795-1.9406-7.6465-4.6878-9.7984-8.2429-2.7614-4.5638-2.9315-9.5787-0.50906-15.046m30.488 12.974c1.7126-3.8658 1.5673-7.2709-0.43346-10.214-2.0102-2.9646-4.8165-5.2441-8.4165-6.8386-3.8079-1.6866-7.3146-2.0433-10.522-1.0736-3.2008 0.95669-5.5665 3.1606-7.0961 6.6142-1.4846 3.352-1.5425 6.5965-0.17126 9.7358 1.3547 3.1311 4.2744 5.6906 8.7579 7.676 3.587 1.5886 7.0146 2.0244 10.284 1.311 3.2622-0.73583 5.7957-3.1394 7.598-7.2106z"/>
  <polygon id="path1996" class="fil3" points="1130.9 822.23 1132.2 816.79 1151.1 810.82 1136.9 796.99 1138.2 791.52 1155.7 809.42 1169.6 812.72 1168.5 817.39 1154.6 814.09"/>
  <polygon id="path1994" class="fil3" points="1120.8 881.05 1150 875.77 1121.6 866.38 1121.8 861.18 1151 854.58 1122.5 846.51 1122.8 841.26 1157.7 852.27 1157.5 857.3 1127.7 864.05 1156.7 873.68 1156.4 878.72 1120.6 886.25"/>
  <polygon id="path1993" class="fil3" points="1134.1 975.87 1127.1 952.32 1131.3 951.08 1136.9 970.04 1147.2 966.98 1142.3 950.31 1146.3 949.11 1151.3 965.78 1166.7 961.2 1168.1 965.8"/>
  <path id="path1992" class="fil3" d="m1150 1016.9c-3.8043-4.963-5.0268-9.8587-3.6661-14.691 1.0594-3.7701 3.5291-7.1409 7.4067-10.114 4.1976-3.2173 8.5039-4.8272 12.918-4.8284 5.1827-0.0035433 9.5492 2.3102 13.1 6.9413 3.3165 4.324 4.4929 8.8205 3.5327 13.486-1.063 4.3205-3.6992 8.0929-7.9098 11.321-3.802 2.915-7.7787 4.4646-11.932 4.65-5.328 0.23622-9.8114-2.0185-13.449-6.7654m26-20.539c-2.5724-3.3555-5.6291-4.8602-9.1724-4.5142-3.5646 0.3437-6.9106 1.7138-10.036 4.1091-3.3047 2.5335-5.2996 5.4402-5.9858 8.7201-0.69449 3.2669 0.1063 6.4004 2.4047 9.3992 2.2311 2.9079 5.0504 4.5142 8.4626 4.8154 3.398 0.31063 7.0429-1.0252 10.935-4.0087 3.1122-2.3846 5.139-5.185 6.0803-8.3965 0.91654-3.2161 0.02126-6.5906-2.6882-10.124z"/>
  <polygon id="path1989" class="fil3" points="1207 1094.9 1190 1075.4 1193.3 1072.5 1207.2 1088.5 1215.3 1081.4 1202.5 1066.7 1205.6 1064 1218.4 1078.7 1227.4 1070.8 1213.3 1054.6 1216.5 1051.8 1233.7 1071.6"/>
  <polygon id="path1987" class="fil3" points="1222 1109.9 1224.4 1106.4 1234.2 1113.1 1251.8 1087.3 1255.8 1090.1 1238.3 1115.9 1248.1 1122.6 1245.8 1126.1"/>
  <path id="path1986" class="fil3" d="m1273.5 1119.6-2.7874 16.312 12.52-10.99-9.7323-5.322m-3.1087 22.127-4.761-2.6032 5.713-37.246 4.6134 2.5228-1.937 11.033 12.292 6.7193 8.4543-7.4693 4.3158 2.3587-28.69 24.685z"/>
  <polygon id="path1983" class="fil3" points="1297.7 1156.2 1299.1 1152.2 1310.4 1156 1320.4 1126.5 1325.1 1128 1315 1157.6 1326.3 1161.4 1325 1165.4"/>
  <path id="path1982" class="fil3" d="m1362 1149.3c0.20669-2.0032-0.0035433-3.6874-0.63071-5.0587-1.2012-2.5677-3.7866-4.1705-7.7551-4.8047-1.7776-0.28346-3.4382-0.28937-4.9784-0.015354-2.9835 0.53268-4.6772 2.0693-5.0846 4.6087-0.30354 1.9051 0.074409 3.3579 1.135 4.3571 1.0795 0.9874 2.8583 1.9795 5.3362 2.9787l4.5673 1.8284c2.9835 1.1929 5.0516 2.3138 6.202 3.3602 1.989 1.8165 2.7508 4.1752 2.2866 7.0807-0.50197 3.1429-2.002 5.5488-4.4988 7.2165-2.498 1.6677-5.739 2.1839-9.7228 1.5472-3.6673-0.58701-6.6354-1.9724-8.9067-4.1598-2.2902-2.172-3.1252-5.2039-2.5016-9.0933l4.4516 0.7122c-0.060236 1.9122 0.21732 3.4287 0.83504 4.5532 1.1528 2.0575 3.4594 3.3626 6.9201 3.9154 2.7933 0.44764 4.8945 0.18071 6.3047-0.79842 1.4114-0.98032 2.2394-2.2465 2.4898-3.802 0.27284-1.715-0.24094-3.0839-1.5425-4.1055-0.85512-0.65787-2.8736-1.6311-6.052-2.9209l-4.7268-1.9039c-2.2784-0.91772-3.9862-1.9476-5.1224-3.0898-1.9606-1.9902-2.6929-4.5413-2.1957-7.6524 0.62008-3.874 2.4756-6.4169 5.5677-7.6323 3.0768-1.2177 6.4784-1.5284 10.209-0.93189 4.3488 0.69567 7.5768 2.3516 9.6815 4.9677 2.1083 2.5996 2.8358 5.7839 2.1839 9.5539l-4.4528-0.71102z"/>
  <polygon id="path1980" class="fil3" points="1463.3 1171 1437.9 1175.6 1437.1 1171.3 1458 1167.6 1456.1 1157 1436.8 1160.4 1436.1 1156.4 1455.3 1153 1453.2 1141.1 1432 1144.9 1431.3 1140.8 1457.1 1136.2"/>
  <polygon id="path1978" class="fil3" points="1520.1 1153.9 1515.5 1155.4 1510.9 1141.5 1493.4 1147.3 1498 1161.2 1493.4 1162.7 1482.3 1129.1 1486.9 1127.6 1492.1 1143.3 1509.6 1137.5 1504.4 1121.8 1509 1120.3"/>
  <polygon id="path1977" class="fil3" points="1545.1 1141.1 1542.8 1137.6 1553 1131.2 1536.3 1104.8 1540.5 1102.2 1557.1 1128.6 1567.2 1122.3 1569.4 1125.8"/>
  <polygon id="path1976" class="fil3" points="1629.9 1071.1 1613.6 1089.5 1610.3 1086.6 1623.4 1071.8 1615.4 1064.7 1603.9 1077.7 1600.7 1074.9 1612.2 1061.9 1600.2 1051.2 1603.4 1047.6"/>
  <path id="path1975" class="fil3" d="m1653.2 1043.7c-4.1468 4.6807-8.7201 6.8138-13.722 6.4004-3.9024-0.32244-7.6831-2.1024-11.342-5.3433-3.9591-3.5067-6.3591-7.4268-7.2024-11.759-0.99213-5.087 0.44646-9.8138 4.3146-14.183 3.6142-4.0795 7.8012-6.0933 12.565-6.0402 4.4433 0.21968 8.6516 2.0882 12.622 5.6055 3.5858 3.176 5.8665 6.7854 6.8386 10.825 1.2484 5.1862-0.10984 10.017-4.0736 14.494m-25.123-21.606c-2.8028 3.1642-3.6957 6.4524-2.6811 9.8646 1.0169 3.4346 3 6.4571 5.948 9.0685 3.1169 2.7614 6.3508 4.1646 9.7016 4.2118 3.3402 0.059055 6.2634-1.3252 8.7685-4.1528 2.4295-2.7437 3.4665-5.8193 3.1122-9.2256-0.34252-3.3957-2.348-6.7193-6.0189-9.9685-2.9362-2.6008-6.072-4.0571-9.4039-4.3677-3.3319-0.28701-6.4736 1.2366-9.4264 4.5697z"/>
  <polygon id="path1972" class="fil3" points="1687.3 949.57 1686 954.19 1656 945.86 1651.2 963.14 1647.1 962.02 1653.2 940.1"/>
  <path id="path1971" class="fil3" d="m1671.5 917.13 16.185-3.4429-14.842-7.5673-1.3429 11.01m21.706-5.2961-0.65669 5.3846-36.717 8.4709 0.63661-5.2181 10.965-2.2819 1.6961-13.906-10.066-5.0906 0.59528-4.8839 33.547 17.525z"/>
  <polygon id="path1968" class="fil3" points="1689.9 853.34 1691.8 879.09 1687.5 879.42 1685.9 858.33 1675.2 859.13 1676.7 878.63 1672.6 878.94 1671.1 859.43 1659.2 860.33 1660.8 881.78 1656.6 882.09 1654.6 855.98"/>
  <path id="path1966" class="fil3" d="m1656.2 810.5c-1.8496 0.78898-3.2232 1.7906-4.1173 3.0024-1.6665 2.2949-1.8154 5.3327-0.44764 9.1122 0.61181 1.6925 1.4114 3.1465 2.3976 4.363 1.911 2.3516 4.0748 3.0898 6.4949 2.2146 1.813-0.65551 2.9008-1.6913 3.2622-3.1039 0.34016-1.422 0.34724-3.4583 0.020079-6.1098l-0.61181-4.8815c-0.40158-3.189-0.42284-5.5394-0.064961-7.0535 0.6248-2.6197 2.3209-4.4291 5.087-5.4307 2.9941-1.0819 5.824-0.93543 8.4933 0.44173 2.6693 1.3748 4.689 3.9614 6.0626 7.7551 1.2626 3.4925 1.4882 6.7618 0.67559 9.8067-0.79252 3.0567-3.0402 5.2547-6.7429 6.5953l-1.5342-4.2413c1.702-0.87165 2.8949-1.8508 3.5799-2.935 1.2402-2.0055 1.2638-4.6547 0.072047-7.9512-0.9626-2.6598-2.2134-4.3701-3.7524-5.1295-1.5402-0.75945-3.0508-0.87047-4.5319-0.33425-1.6335 0.58937-2.5807 1.702-2.8453 3.3354-0.16063 1.0677-0.035433 3.3047 0.37677 6.7122l0.6248 5.0551c0.3 2.439 0.22559 4.4315-0.22323 5.9787-0.79134 2.6799-2.6681 4.5555-5.6315 5.6268-3.6886 1.3346-6.8138 0.94252-9.3732-1.1728-2.5559-2.1024-4.4752-4.9287-5.7602-8.4815-1.4988-4.1421-1.6134-7.7669-0.34488-10.876 1.2532-3.1039 3.6874-5.2831 7.3016-6.5386l1.5331 4.2402z"/>
  <polygon id="path1964" class="fil3" points="1654 748.34 1650.4 750.53 1644.2 740.31 1617.5 756.47 1615 752.3 1641.7 736.15 1635.5 725.94 1639.1 723.75"/>
  <path id="path1963" class="fil3" d="m1604.2 717.07 8.7496-14.044-15.746 5.439 6.9968 8.6055m11.246-19.308 3.4216 4.2094-19.374 32.32-3.3165-4.0784 5.9646-9.4819-8.8382-10.87-10.65 3.7193-3.1039-3.8161 35.896-12.002z"/>
  <polygon id="path1960" class="fil3" points="1566.9 654.47 1587.4 670.17 1584.8 673.62 1568 660.76 1561.5 669.3 1577 681.19 1574.5 684.44 1559 672.55 1551.7 682.08 1568.7 695.16 1566.2 698.51 1545.4 682.59"/>
  <path id="path1956" class="fil3" d="m1315.4 618.45c3.228-0.81024 6.176-0.88583 8.8429-0.2315 3.8646 0.93661 6.7429 3.5539 8.6339 7.852l-4.6087 1.1575c-1.1906-2.3693-2.8098-3.9024-4.8579-4.598-2.0516-0.71102-4.4173-0.72992-7.0996-0.057874-3.1807 0.79842-5.563 2.6646-7.148 5.5972-1.5673 2.9303-1.7587 6.7571-0.57284 11.48 1.0252 4.0854 2.7567 7.1894 5.1957 9.3118 2.4354 2.1083 5.6787 2.6516 9.7323 1.6346 3.1039-0.77835 5.4437-2.3185 7.0193-4.6205 1.5886-2.322 1.9016-5.4992 0.93898-9.5327l-10.758 2.6988-0.9685-3.8587 15.085-3.7866 4.6134 18.383-2.9929 0.75236-2.2335-4.1386c-1.1398 2.126-2.2346 3.6756-3.2823 4.6524-1.7528 1.6654-4.2035 2.8949-7.3524 3.685-4.0701 1.0216-7.9016 0.58228-11.494-1.3169-4.0252-2.5028-6.7618-6.639-8.2098-12.409-1.4445-5.7532-1.0335-10.721 1.2307-14.902 2.1496-3.9874 5.5784-6.5705 10.286-7.7528z"/>
  <path id="path2005" class="fil3" d="m1526.8 650.3c1.9937 1.0441 3.776 1.4693 5.3468 1.2756 1.585-0.1878 2.922-1.3205 4.011-3.4004 1.1693-2.2358 1.1551-4.1846-0.044882-5.8465-0.64488-0.8811-1.6937-1.702-3.1476-2.4626l-10.383-5.4331-5.6102 10.726 9.828 5.1413m-6.5587-21.744 14.53 7.6004c2.3917 1.252 4.1823 2.6339 5.3693 4.1433 2.2488 2.8819 2.4307 6.124 0.54449 9.7276-0.98268 1.8803-2.1803 3.2138-3.5894 4.0004-1.3949 0.7937-2.9799 1.1894-4.7563 1.1846 0.96378 1.1398 1.5402 2.276 1.728 3.4087 0.20079 1.1398-0.13937 2.6398-1.0205 4.5l-2.0528 4.2874c-0.58346 1.2189-0.95079 2.1614-1.0984 2.8264-0.26575 1.1315-0.14528 2.0114 0.36142 2.6386l-0.3685 0.70512-5.2134-2.7272c-0.0011811-0.34488 0.067323-0.75354 0.20551-1.2248 0.13819-0.47362 0.49842-1.3358 1.0819-2.5913l2.4839-5.3681c0.97323-2.1035 0.92953-3.8776-0.12992-5.3197-0.61063-0.80906-1.7846-1.6689-3.522-2.5784l-9.6791-5.0634-7.0417 13.461-4.2508-2.2252 16.418-31.385z"/>
 </g>
</svg>
