<?xml version="1.0" encoding="UTF-8"?>
<svg width="900" height="600" version="1.1" viewBox="0 0 900 600" xmlns="http://www.w3.org/2000/svg">
 <path d="m0 300h900v300h-900z" fill="#007000" stroke-width="2.4495"/>
 <path d="m0 0h900v300h-900z" fill="#0070ff" stroke-width="2.4495"/>
 <path d="m0 200h900v200h-900z" fill="#fff" stroke-width="2"/>
 <circle cx="450" cy="300" r="75" fill="none" stroke="#ffd700" stroke-width="10"/>
 <circle cx="450" cy="300" r="16" fill="#ffd700" stroke-width="2"/>
 <g transform="matrix(2,0,0,2,450,300)">
  <path d="m0 0h25" stroke="#ffd700" stroke-width="2"/>
  <circle cx="25" r="5" fill="#ffd700"/>
 </g>
 <g transform="matrix(1.7321 -1 1 1.7321 450 300)">
  <path d="m0 0h25" stroke="#ffd700" stroke-width="2"/>
  <circle cx="25" r="5" fill="#ffd700"/>
 </g>
 <g transform="matrix(1 -1.7321 1.7321 1 450 300)">
  <path d="m0 0h25" stroke="#ffd700" stroke-width="2"/>
  <circle cx="25" r="5" fill="#ffd700"/>
 </g>
 <g transform="matrix(0,-2,2,0,450,300)">
  <path d="m0 0h25" stroke="#ffd700" stroke-width="2"/>
  <circle cx="25" r="5" fill="#ffd700"/>
 </g>
 <g transform="matrix(-1 -1.7321 1.7321 -1 450 300)">
  <path d="m0 0h25" stroke="#ffd700" stroke-width="2"/>
  <circle cx="25" r="5" fill="#ffd700"/>
 </g>
 <g transform="matrix(-1.7321 -1 1 -1.7321 450 300)">
  <path d="m0 0h25" stroke="#ffd700" stroke-width="2"/>
  <circle cx="25" r="5" fill="#ffd700"/>
 </g>
 <g transform="matrix(-2,0,0,-2,450,300)">
  <path d="m0 0h25" stroke="#ffd700" stroke-width="2"/>
  <circle cx="25" r="5" fill="#ffd700"/>
 </g>
 <path d="m450 300v50" stroke="#ffd700" stroke-width="4"/>
</svg>
