<?xml version="1.0" encoding="UTF-8"?>
<svg clip-rule="evenodd" fill-rule="evenodd" viewBox="0 0 2e3 1250" xmlns="http://www.w3.org/2000/svg">
 <rect width="2e3" height="1250" fill="#ffdf00"/>
 <path d="m1289.9 235.83 56.57-56.57v56.57h56.57l-56.57 56.57 56.57 56.57h-56.57v56.56l-56.57-56.57-56.56 56.57v-56.57h-56.57l56.57-56.56-56.57-56.57h56.56v-56.57zm-36.57 20v-28.29l36.57 36.57 36.57-36.56v28.28h28.29l-36.57 36.57 36.56 36.56h-28.28v28.29l-36.57-36.57-36.57 36.57v-28.29h-28.28l36.57-36.56-36.57-36.57z" fill="#a2260b"/>
 <path d="m710.06 235.83 56.57-56.57v56.57h56.57l-56.57 56.57 56.57 56.57-56.57-0.01 0.01 56.57-56.57-56.57-56.57 56.57v-56.57h-56.57l56.57-56.57-56.57-56.57h56.57v-56.56zm-36.57 19.99v-28.28l36.57 36.57 36.57-36.57v28.28h28.29l-36.57 36.57 36.56 36.57h-28.28v28.28l-36.56-36.56-36.58 36.57v-28.29h-28.27l36.56-36.57-36.57-36.57z" fill="#a2260b"/>
 <path d="m1e3 115.5 56.56-56.57 0.01 56.57h56.56l-56.56 56.57 56.57 56.57-56.57-0.01v56.57l-56.57-56.57-56.57 56.57v-56.57h-56.56l56.56-56.57-56.57-56.57 56.57 0.01v-56.57zm-36.57 19.99v-28.28l36.57 36.57 36.56-36.57v28.28h28.29l-36.57 36.57 36.57 36.57h-28.29v28.28l-36.56-36.56-36.57 36.57v-28.29h-28.28l36.56-36.57-36.57-36.57z" fill="#a2260b"/>
 <polygon points="1035 970 2e3 970 2e3 940 1065 940 1065 644.61 1141.4 568.19 1190.9 617.69 1162.6 645.97 1148.5 631.83 1162.6 617.69 1141.4 596.48 1106.1 631.83 1169.7 695.47 1212.1 653.05 1212.1 596.48 1141.4 525.77 1035 632.19" fill="#a2260b"/>
 <polygon points="965 970 0 970 0 940 935 940 935 644.61 858.58 568.19 809.08 617.69 837.37 645.97 851.51 631.83 837.37 617.69 858.58 596.48 893.93 631.83 830.29 695.47 787.87 653.05 787.87 596.47 858.58 525.76 965 632.19" fill="#a2260b"/>
 <polygon points="965 603.9 787.87 426.77 724.23 490.41 773.73 539.91 802.01 511.62 787.87 497.48 773.73 511.62 752.52 490.41 787.87 455.05 844.44 511.62 794.94 561.12 738.38 561.12 667.66 490.41 752.52 405.56 809.09 405.56 965 561.47" fill="#a2260b"/>
 <polygon points="1035 603.9 1212.1 426.77 1275.8 490.41 1226.3 539.91 1198 511.62 1212.1 497.48 1226.3 511.62 1247.5 490.41 1212.1 455.05 1155.6 511.62 1205.1 561.12 1261.6 561.12 1332.3 490.41 1247.5 405.56 1190.9 405.56 1035 561.47" fill="#a2260b"/>
 <polygon points="985 1e3 985 553.19 823.23 391.42 823.23 334.85 908.08 250 978.79 320.71 978.79 377.27 929.29 426.77 872.72 370.2 908.08 334.85 929.29 356.06 915.15 370.2 929.29 384.34 957.57 356.06 908.08 306.56 844.44 370.2 1e3 525.76 1155.6 370.2 1091.9 306.56 1042.4 356.06 1070.7 384.34 1084.8 370.2 1070.7 356.06 1091.9 334.85 1127.3 370.2 1070.7 426.77 1021.2 377.27 1021.2 320.71 1091.9 250 1176.8 334.85 1176.8 391.42 1015 553.19 1015 1e3 2e3 1e3 2e3 1250 0 1250 0 1e3" fill="#a2260b"/>
</svg>
