<?xml version="1.0" encoding="UTF-8"?>
<svg width="1200px" height="800px" viewBox="0 0 1800 1200" xmlns="http://www.w3.org/2000/svg">
 <defs>
  <style type="text/css"><![CDATA[
    .str2 {stroke:#ccc;stroke-width:1}
    .str1 {stroke:#fff;stroke-width:5}
    .str0 {stroke:#fff;stroke-width:8;stroke-linejoin:bevel}
    .fil0 {fill:#0051BA}
    .fil4 {fill:#000}
    .fil3 {fill:#D81E05}
    .fil2 {fill:#fff}
    .fil1 {fill:white}
   ]]></style>
 </defs>
 <rect class="fil0" width="1800" height="1200"/>
 <rect class="fil1" width="1800" height="800"/>
 <path class="fil2 str2" d="m383.18 473c-38.836 0.068504-67.022-29.633-105.19-29.89-33.68-0.22677-60.099 28.702-106.93 28.473 0.88701-30.722 0.24213-61.443-1.9335-92.164-8.4839-119.8 97.398-217.5 217.5-217.5 120.1 0 221.55 97.468 217.5 217.5-1.9972 21.042-4.8201 37.708-3.078 91.28-46.765 0.066142-71.43-28.655-106.61-28.271-36.293 0.39685-72.419 30.503-111.26 30.572z"/>
 <path class="fil0" d="m386.62 379.42-207.05 56.023-1.9453-56.023c-4.0039-115.34 93.592-209 209-209 115.41 0 216.54 93.846 209 209l-3.4323 52.392-205.57-52.392z"/>
 <polygon class="fil3 str0" points="385.53 164.54 414.59 199.3 451.99 174.72 468.88 216.76 512.04 204.94 515.12 250.14 559.82 252.24 548.78 296.17 590.65 311.98 566.57 350.36 600.65 378.33 560.13 421.79 592.5 436.98 385.28 397.8 179.72 439.67 211.82 415.88 171.75 380.51 206.5 351.46 181.93 314.06 223.96 297.16 212.14 254 257.34 250.92 259.44 206.22 303.37 217.26 319.19 175.4 357.56 199.47"/>
 <path class="fil2" d="m386.62 379.42-168.24 63.992c-7.7575-20.437-11.757-42.128-11.757-63.992 0-99.394 80.606-180 180-180s180 80.606 180 180c0 20.327-3.45 40.522-10.174 59.685l-169.83-59.685z"/>
 <path class="fil3" d="m386.62 379.42-158.9 60.437c-7.3276-19.302-11.105-39.785-11.105-60.437 0-93.873 76.128-170 170-170 93.873 0 170 76.128 170 170 0 20.028-3.5705 39.973-10.481 58.756l-159.52-58.756z"/>
 <path class="fil2" d="m179.57 435.44c44.23-32.479 97.468-70.948 131.35-114.74h17.039l33.255 50.829 31.624-29.427h17.799l37.788 40.663 23.226-23.508 18.385 0.67205c25.951 34.433 66.038 54.53 102.15 71.876l1.7658 29.53-90.957-47.538-256.28 5.8854-67.31 39.55 0.16299-23.797z"/>
 <path class="fil4" d="m179.32 464.67 0.39685-25.002c35.773-22.696 68.003-47.282 98.816-76.592l-8.7307 23.811 19.842-23.414-8.3339 30.558 23.414-24.605 3.1748 35.716 15.477-36.113 18.652 25.002-0.39685-22.224 57.146 43.257-26.986-34.526 25.002 16.668 6.7465-21.827 32.542 29.764-3.9685-21.033 58.337 32.145-32.939-26.986 22.224 7.5402 3.1748-11.112 23.414 14.684-7.5402-19.842c27.484 22.257 59.252 41.877 93.657 57.543l1.9842 26.986c-36.094-4.7398-66.36-30.654-103.79-29.643-34.531 0.93307-70.337 29.448-106.93 30.437-36.191-0.21024-69.656-30.436-105.85-30.645-31.931-0.18543-66.596 29.64-98.53 29.454z"/>
 <path class="fil3 str1" d="m312.68 320.68h12.504c6.2244-14.7 11.813-29.856 11.354-44.918-3.6496 1.5083-6.5764 4.1976-9.0496 8.0622-0.93425-6.9768-3.1311-13.049-7.4043-18.757-4.6784 4.7268-7.6394 10.54-8.8854 17.441-1.8909-2.7909-3.9614-4.402-7.5685-5.9232-0.60354 14.698 2.9067 29.396 9.0496 44.095z"/>
 <path class="fil3 str1" d="m395.53 342.35h12.504c6.2244-14.7 11.813-29.856 11.354-44.918-3.6496 1.5083-6.5764 4.1976-9.0496 8.0622-0.93425-6.9768-3.1311-13.049-7.4043-18.757-4.6784 4.7268-7.6394 10.54-8.8854 17.441-1.8909-2.7909-3.9614-4.402-7.5685-5.9232-0.60354 14.698 2.9067 29.396 9.0496 44.095z"/>
 <path class="fil3 str1" d="m474.4 359.94h12.504c6.2244-14.7 11.813-29.856 11.354-44.918-3.6496 1.5083-6.5764 4.1976-9.0496 8.0622-0.93425-6.9768-3.1311-13.049-7.4043-18.757-4.6784 4.7268-7.6394 10.54-8.8854 17.441-1.8909-2.7909-3.9614-4.402-7.5685-5.9232-0.60354 14.698 2.9067 29.396 9.0496 44.095z"/>
</svg>
