<?xml version="1.0" encoding="UTF-8"?>
<svg width="1350" height="900" version="1.1" xmlns="http://www.w3.org/2000/svg">
 <g transform="translate(0 7.2136)">
  <rect transform="translate(0 -7.2136)" x="235.04" y="-110.67" width="863.77" height="1130.1" fill="#fff"/>
  <rect x="-41.132" y="-63.042" width="372.15" height="1044" fill="#2f418c"/>
  <rect x="1002.8" y="-74.794" width="432.86" height="1024.4" fill="#d03528"/>
 </g>
 <g transform="translate(368.97 49.844)">
  <path d="m297.84 615v-422.6h-168.54v359.74s0.78117 11.836 11.345 20.427c10.564 8.5911 20.094 7.8571 20.094 7.8571h107.57s12.855 1.1737 21.212 12.248c8.3568 11.074 8.3215 22.329 8.3215 22.329" display="none"/>
  <path d="m129.56 192.28v356.97s0.0591 14.553 10.469 23.094c10.901 8.9432 23.75 8.0938 23.75 8.0938l102.65 0.34625s15.124 0.024 22.604 11.122c6.2605 9.289 8.8725 19.741 9.3438 22.594v0.78125s0.0356-0.22666 0.0625-0.40625c0.0269 0.17959 0.0625 0.40625 0.0625 0.40625v-0.78125c0.47129-2.8531 2.2996-13.074 9.3438-22.594 8.9679-12.119 23.296-11.469 23.296-11.469h101.95s13.662 0.82403 23.75-8.0938c10.901-9.6357 10.469-23.094 10.469-23.094v-356.97h-168.94z"/>
  <path d="m132.38 195.19v318.56h24.802c-0.49886-2.7934-2.0889-9.2657-7.1086-19.625-6.9107-14.262-10.381-15.074-10.365-18.031 0.016-2.9575 10.118-11.741 6.451-23.406-2.5701-8.1753-9.9909-5.7676-11.117-7.3125-1.0539-1.446-2.0443-16.565 2.3486-39.281 4.393-22.716 10.041-41.601 17.881-61.438 10.276-26.002 32.413-70.195 37.954-74.812 1.2677-1.0565 7.3278 6.25 7.3278 6.25s12.321 0.34825 15.031 1.25c2.7612 0.91859 7.1399 5.875 7.1399 5.875s5.4752 1.3338 8.0793 2.3438c3.0676 1.1896 4.7458 1.9569 6.2631 4.8125-3.7323 9.2925-4.8092 4.641-10.585 12.5-3.5919 1.6174-8.0045 0.2402-11.086 2.5-4.9834 3.655-6.451 18.219-6.451 18.219s7.8886 0.91033 15.031-2.875c6.4393-3.4126 10.635-8.3426 19.353-14.625 10.343-7.454 20.415-8.8073 20.415-8.8073s2.5602 5.1402 4.4496 8.6198c-5.6034 0.90593-6.2666 0.50469-14.499 9.6562-8.2324 9.1516-7.4515 12.578-15.698 21.62-8.2464 9.0415-13.265 9.3112-19.214 13.166 6.7336 1.0304 24.05-2.7875 28.373 1.4694 3.747 3.6902 3.0412 7.0218 1.9871 10.145-0.81474 2.4139-6.4908 3.6095-6.4908 3.6095s-3.6738-0.84347-10.024-0.75467c-7.9068 0.11059-7.3992 5.6288-13.719 7.0103-5.1887 1.1343-13.001-0.20325-13.001-0.20325s0.71231 2.9849 9.4885 2.6875c-4.7382 12.224-20.23 34.469-20.23 34.469s13.133 2.4065 20.042 10.156c8.2714 9.2781 3.0589 18.929 3.0689 24.281 0.0123 6.786-2.0989 12.513 4.6347 19.844 6.7335 7.3308 16.66 5.5312 16.66 5.5312l-0.18789 10.719h-21.482s-9.5724-9.6181-19.666-16.094c0.27515-3.1484 2.8237-10.972-0.72025-13.562-7.2076-5.2692-16.472-4.2812-16.472-4.2812l1.0647 14.281s-3.582 3.2539-7.5157 8.75c-3.9336 5.4961-5.3549 9.125-5.3549 9.125s-1.5239 10.955 2.1294 21.406c1.8171 5.1982 5.3862 5.375 5.3862 5.375s10.448-1.0448 14.656 2.125c2.5831 1.9459 2.9601 5.1386 2.8497 7.3125h205.3c-0.17162-2.1654 0.0433-5.6205 2.7871-7.6875 4.2078-3.1698 14.687-2.125 14.687-2.125s3.5378-0.17677 5.3549-5.375c3.6533-10.451 2.1608-21.406 2.1608-21.406s-1.4526-3.6289-5.3862-9.125c-3.9337-5.4961-7.5157-8.75-7.5157-8.75l1.096-14.281s-9.2643-0.9879-16.472 4.2812c-3.5439 2.5908-0.99539 10.414-0.72025 13.562-10.094 6.4757-19.697 16.094-19.697 16.094h-21.451l-0.18789-10.719s9.8949 1.7996 16.628-5.5312c6.7335-7.3308 4.6537-13.058 4.666-19.844 0.01-5.3519-5.2338-15.003 3.0376-24.281 6.9088-7.7497 20.042-10.156 20.042-10.156s-15.491-22.245-20.23-34.469c8.7762 0.29738 9.4885-2.6875 9.4885-2.6875s-10.72 0.60305-15.908-0.53125c-6.3197-1.3816-10.006-7.3894-17.912-7.5-6.35-0.0888-6.5784-3e-3 -6.5784-3e-3s-3.4787-0.36062-5.1359-2.9162c-1.4945-2.3048-1.1302-8.6001 1.4553-10.681 5.2209-4.2026 24.765 0.69599 31.499-0.33436-5.9486-3.855-9.8698-2.017-19.19-9.63-9.32-7.613-8.6823-11.524-15.72-21.622-7.7427-11.11-8.5823-9.2963-14.186-10.202-6.6132-2.9306-3.2712-10.349-3.2712-10.349s9.6984-2.4338 20.042 5.0202c8.7177 6.2824 17.177 13.36 26.837 17.844 7.333 3.4037 15.031 2.875 15.031 2.875s-1.4675-14.564-6.451-18.219c-3.0811-2.2598-7.4937-0.88261-11.086-2.5-5.7753-7.859-6.821-3.2075-10.553-12.5 1.5173-2.8556 3.1955-3.6228 6.2631-4.8125 2.6042-1.0099 8.048-2.3438 8.048-2.3438s4.41-4.9564 7.1712-5.875c2.7106-0.90175 15.031-1.25 15.031-1.25s6.06-7.3065 7.3278-6.25c5.5413 4.618 27.37 48.921 37.923 74.812 8.103 19.88 14.96 38.721 19.353 61.438 4.393 22.716 4.436 38.554 3.382 40-1.126 1.5449-11.021-1.5816-13.591 6.5938-3.6674 11.666 6.4349 20.449 6.451 23.406 0.016 2.9575-3.486 3.7694-10.397 18.031-5.2641 10.864-6.7546 17.451-7.1712 20h27.965v-318.56z" fill="#ccc"/>
  <path d="m242.32 370h-12.731s-0.16173-11.385 0.97933-12.767c1.5942-5.9821 12.766-13.342 20.321-20.566 7.5549-7.2236 16.893-19.342 16.893-19.342l-0.48966 13.955c-13.879 14.321-24.483 21.545-24.483 21.545z" fill="#ddb523" stroke="#8c5700" stroke-width="1px"/>
  <path d="m347.41 370h12.731s0.16173-11.385-0.97933-12.767c-1.5942-5.9821-12.766-13.342-20.321-20.566-7.5549-7.2236-16.893-19.342-16.893-19.342l0.48966 13.955c13.879 14.321 24.483 21.545 24.483 21.545z" fill="#ddb523" stroke="#8c5700" stroke-width="1px"/>
  <rect x="323.61" y="214.94" width="5.238" height="26.735" fill="#fff" stroke="#767479"/>
  <path d="m325.55 200.03c-0.0822 0-0.42169 2.6575-1.9402 6.0322-1.7029 3.7843 1.2306 6.5588 3.0896 8.7846 0.0321-1.9242 0.5385-3.5718 1.2534-6.4981 0.96533-3.9517-1.1909-5.8949-2.4027-8.3186z" fill="#d23225" stroke="#4a0000"/>
  <rect x="254.53" y="214.77" width="5.238" height="26.735" fill="#fff" stroke="#767479"/>
  <path d="m256.47 199.86c-0.0822 0-0.42169 2.6575-1.9402 6.0322-1.7029 3.7843 1.2306 6.5588 3.0896 8.7846 0.0321-1.9242 0.5385-3.5718 1.2534-6.4981 0.96533-3.9517-1.1909-5.8949-2.4027-8.3186z" fill="#d23225" stroke="#4a0000"/>
  <rect x="289.28" y="213.29" width="5.238" height="26.735" fill="#fff" stroke="#767479"/>
  <g fill="#ddb523">
   <path d="m286.67 237.05c0.34625 6.6628 3.0038 10.658 3.0038 10.658s-3.745 9.2694-2.9031 20.601h10.267c0.0453-13.935-2.5569-20.774-2.5569-20.774s2.4844-4.2863 2.6575-10.485z" stroke="#8c5700"/>
   <path d="m262.92 300.49s7.0019-5.4645 6.4482-19.217c14.604-2.5143 12.872-15.137 21.852-15.235 9.2736-0.10127 10.175 11.471 22.927 15.235 1.0772 13.702 8.9559 19.217 8.9559 19.217z" stroke="#8c5700"/>
   <rect x="273.75" y="302.94" width="39.649" height="70.275"/>
   <g stroke="#8c5700">
    <rect transform="rotate(-90)" x="-373.09" y="267.55" width="66.531" height="6.1145"/>
    <rect transform="rotate(-90)" x="-373.1" y="312.49" width="66.547" height="6.1145"/>
    <path d="m293.88 322.49c-10.865 0.0165-20.164 1.8398-27.346 5.3075l0.40875 7.255c6.1114-3.2077 14.58-5.7469 26.219-5.7812 10.657-0.0315 19.177 2.5905 25.875 6.1562v-8.1875c-6.805-2.8221-15.115-4.7652-25.156-4.75z"/>
    <path d="m293.65 343.71c-10.865 0.0165-19.818 1.1473-27 4.615l0.0625 7.9475c6.1114-3.2077 14.58-5.7469 26.219-5.7812 10.657-0.0315 19.177 2.5905 25.875 6.1562v-8.1875c-6.805-2.8221-15.115-4.7652-25.156-4.75z"/>
   </g>
  </g>
  <path d="m236.02 402.77h117.28s-20.427-39.778-60.719-39.418c-40.292 0.35963-56.556 39.418-56.556 39.418z" fill="#d9251c" stroke="#8c5700"/>
  <g fill="#ddb523">
   <path d="m235.92 405.03v71.844l58.781-67.562 58.812 67.562v-71.844l-58.812 0.3125-58.781-0.3125z"/>
   <g stroke="#8c5700">
    <path d="m240.15 429.93s1.598 1.2971 2.9431 4.3281-1.3335 5.5892 1.5581 10.041 11.013 2.9929 12.638-1.2119 0.43878-7.4148-2.9431-7.9637-5.4125 2.9266-5.7131 4.3281c-0.8825-0.0629-0.0441-4.5028-2.4237-6.6652s-6.0593-2.8565-6.0593-2.8565z"/>
    <path d="m245.81 478.43h-10.283s5.2602-15.117 9.7933-21.545c5.5328-7.8462 16.159-12.242 16.159-12.242s-0.63114-7.9284 2.6932-12.976c4.5347-6.8857 12.836-8.7208 18.362-15.669 2.1221-2.6681 1.9587-10.038 1.9587-10.038h10.283v5.3863s-0.87187 5.2182-3.9173 8.5692c-4.9029 5.3948-16.173 13.033-19.097 18.607-3.386 6.4545-2.6932 13.466-2.6932 13.466s-7.5385-0.61133-15.669 7.8347c-4.6457 4.8258-7.5898 18.607-7.5898 18.607z"/>
    <path d="m343.75 478.43h10.283s-5.2602-15.117-9.7933-21.545c-5.5328-7.8462-16.159-12.242-16.159-12.242s0.63114-7.9284-2.6932-12.976c-4.5347-6.8857-12.836-8.7208-18.362-15.669-2.1221-2.6681-1.9587-10.038-1.9587-10.038h-10.283v5.3863s0.87187 5.2182 3.9173 8.5692c4.9029 5.3948 16.173 13.033 19.097 18.607 3.386 6.4545 2.6932 13.466 2.6932 13.466s7.5385-0.61133 15.669 7.8347c4.6457 4.8258 7.5898 18.607 7.5898 18.607z"/>
    <rect x="237.42" y="402.75" width="115.4" height="5.1608"/>
    <rect x="232.49" y="369.95" width="6.7944" height="108.23" stroke-width="1.0084"/>
    <path d="m350.7 429.7s-1.598 1.2971-2.9431 4.3281 1.3335 5.5892-1.5581 10.041-11.013 2.9929-12.638-1.2119-0.43878-7.4148 2.9431-7.9637 5.4125 2.9266 5.7131 4.3281c0.8825-0.0629 0.0441-4.5028 2.4237-6.6652s6.0593-2.8565 6.0593-2.8565z"/>
    <rect x="351.05" y="370.07" width="6.6213" height="108.11"/>
    <path d="m265.94 411.92s3.7893 0.0461 4.5012 3.8087c0.71193 3.7626-3.5069 5.1169-5.8159 2.6461-2.6432-2.8284-5.1349-9.3937-14.613-8.3592s-12.317 17.09-0.69248 18.697c8.3426 1.1538 7.9637-6.4056 7.9637-6.4056s-3.5794 3.2347-6.7518 1.9044-3.0686-8.5287 3.4625-8.1368 7.7683 7.6664 14.542 7.7905c6.7741 0.12417 8.102-6.1514 6.0593-10.041-2.0427-3.8898-8.6562-1.9044-8.6562-1.9044z"/>
    <path d="m324.89 412.26s-3.7893 0.0461-4.5012 3.8087c-0.71193 3.7626 3.5069 5.1169 5.8159 2.6461 2.6432-2.8284 5.1349-9.3937 14.613-8.3592s12.317 17.09 0.69248 18.697c-8.3426 1.1538-7.9637-6.4056-7.9637-6.4056s3.5794 3.2347 6.7518 1.9044 3.0686-8.5287-3.4625-8.1368-7.7683 7.6664-14.542 7.7905c-6.7741 0.12417-8.102-6.1514-6.0593-10.041 2.0427-3.8898 8.6562-1.9044 8.6562-1.9044z"/>
    <rect x="221.39" y="478.2" width="154.85" height="16.869"/>
    <path transform="matrix(.88624 0 0 .93038 34.08 33.784)" d="m304.08 485.28a4.7742 4.2846 0 1 1-9.5485 0 4.7742 4.2846 0 1 1 9.5485 0z" stroke-width="1.1013"/>
   </g>
  </g>
  <path transform="translate(.15302)" d="m301.14 485.28a2.0199 1.8362 0 1 1-4.0398 0 2.0199 1.8362 0 1 1 4.0398 0z" fill="#8c5700"/>
  <g fill="#ddb523" stroke="#8c5700">
   <path d="m299.43 493.61c3.1836-5.3051 11.465-13.388 19.954-12.976 5.2157-0.0644 7.3378 3.4662 6.9777 6.9777-0.36002 3.5116-4.2295 6.8279-8.2019 5.5088-3.9724-1.3192-3.9173-5.1415-3.9173-5.1415s2.4629 2.4336 5.1415 1.5914 3.4958-6.1573-1.8362-5.9984c-5.7426 0.1711-13.098 6.5538-18.118 10.038z"/>
   <path d="m345.93 494.35c3.1836-5.3051 11.465-13.388 19.954-12.976 5.2157-0.0644 7.3378 3.4662 6.9777 6.9777-0.36002 3.5116-4.2295 6.8279-8.2019 5.5088-3.9724-1.3192-3.9173-5.1415-3.9173-5.1415s2.4629 2.4336 5.1415 1.5914 3.4958-6.1573-1.8362-5.9984c-5.7426 0.1711-13.098 6.5538-18.118 10.038z"/>
   <path d="m299.33 493.61c-3.1836-5.3051-11.465-13.388-19.954-12.976-5.2157-0.0644-7.3378 3.4662-6.9777 6.9777 0.36002 3.5116 4.2295 6.8279 8.2019 5.5088 3.9724-1.3192 3.9173-5.1415 3.9173-5.1415s-2.4629 2.4336-5.1415 1.5914-3.4958-6.1573 1.8362-5.9984c5.7426 0.1711 13.098 6.5538 18.118 10.038z"/>
   <path d="m322.68 494.35c3.1836-5.3051 11.465-13.388 19.954-12.976 5.2157-0.0644 7.3378 3.4662 6.9777 6.9777-0.36002 3.5116-4.2295 6.8279-8.2019 5.5088-3.9724-1.3192-3.9173-5.1415-3.9173-5.1415s2.4629 2.4336 5.1415 1.5914 3.4958-6.1573-1.8362-5.9984c-5.7426 0.1711-13.098 6.5538-18.118 10.038z"/>
   <path d="m276.19 494.35c-3.1836-5.3051-11.465-13.388-19.954-12.976-5.2157-0.0644-7.3378 3.4662-6.9777 6.9777 0.36002 3.5116 4.2295 6.8279 8.2019 5.5088 3.9724-1.3192 3.9173-5.1415 3.9173-5.1415s-2.4629 2.4336-5.1415 1.5914-3.4958-6.1573 1.8362-5.9984c5.7426 0.1711 13.098 6.5538 18.118 10.038z"/>
   <path d="m252.56 494.35c-3.1836-5.3051-11.465-13.388-19.954-12.976-5.2157-0.0644-7.3378 3.4662-6.9777 6.9777 0.36002 3.5116 4.2295 6.8279 8.2019 5.5088 3.9724-1.3192 3.9173-5.1415 3.9173-5.1415s-2.4629 2.4336-5.1415 1.5914-3.4958-6.1573 1.8362-5.9984c5.7426 0.1711 13.098 6.5538 18.118 10.038z"/>
   <rect x="203.15" y="495.21" width="191.12" height="16.398"/>
   <path transform="matrix(.88624 0 0 .93038 34.08 50.31)" d="m304.08 485.28a4.7742 4.2846 0 1 1-9.5485 0 4.7742 4.2846 0 1 1 9.5485 0z" stroke-width="1.1013"/>
  </g>
  <path transform="translate(.15302 16.526)" d="m301.14 485.28a2.0199 1.8362 0 1 1-4.0398 0 2.0199 1.8362 0 1 1 4.0398 0z" fill="#8c5700"/>
  <g fill="#ddb523" stroke="#8c5700">
   <path d="m299.23 508.31c-3.0362-4.5554-10.934-11.496-19.031-11.142-4.9744-0.0553-6.9982 2.9763-6.6548 5.9916 0.34336 3.0153 4.0338 5.863 7.8223 4.7302 3.7886-1.1328 3.7361-4.4149 3.7361-4.4149s-2.3489 2.0897-4.9036 1.3665-3.334-5.2871 1.7513-5.1507c5.4769 0.14692 12.492 5.6276 17.279 8.6195z"/>
   <path d="m277.35 509.26c-3.0374-4.7174-10.939-11.905-19.038-11.539-4.9762-0.0573-7.0008 3.0822-6.6574 6.2047 0.34349 3.1225 4.0353 6.0715 7.8253 4.8984 3.79-1.173 3.7375-4.5719 3.7375-4.5719s-2.3498 2.164-4.9054 1.4151c-2.5556-0.74889-3.3353-5.4752 1.7519-5.3339 5.4789 0.15214 12.497 5.8277 17.286 8.926z"/>
   <path d="m254.94 509.71c-3.0192-5.0034-10.873-12.627-18.923-12.238-4.9464-0.0607-6.9588 3.269-6.6174 6.5809 0.34142 3.3118 4.0111 6.4396 7.7783 5.1954s3.715-4.849 3.715-4.849-2.3357 2.2952-4.876 1.5009c-2.5403-0.79428-3.3152-5.8071 1.7414-5.6572 5.446 0.16137 12.422 6.181 17.182 9.4672z"/>
   <path d="m232.29 509.29c-2.9726-4.7414-10.705-11.966-18.632-11.598-4.8701-0.0576-6.8515 3.0979-6.5153 6.2364 0.33616 3.1385 3.9492 6.1025 7.6584 4.9235s3.6578-4.5952 3.6578-4.5952-2.2997 2.175-4.8008 1.4223-3.2641-5.5031 1.7146-5.3611c5.3621 0.15291 12.23 5.8574 16.917 8.9716z"/>
   <path d="m299.89 508.31c3.0362-4.5554 10.934-11.496 19.031-11.142 4.9744-0.0553 6.9982 2.9763 6.6548 5.9916-0.34336 3.0153-4.0338 5.863-7.8223 4.7302-3.7886-1.1328-3.7361-4.4149-3.7361-4.4149s2.3489 2.0897 4.9036 1.3665 3.334-5.2871-1.7513-5.1507c-5.4769 0.14692-12.492 5.6276-17.279 8.6195z"/>
   <path d="m321.77 509.26c3.0374-4.7174 10.939-11.905 19.038-11.539 4.9762-0.0573 7.0008 3.0822 6.6574 6.2047-0.34349 3.1225-4.0353 6.0715-7.8253 4.8984-3.79-1.173-3.7375-4.5719-3.7375-4.5719s2.3498 2.164 4.9054 1.4151c2.5556-0.74889 3.3353-5.4752-1.7519-5.3339-5.4789 0.15214-12.497 5.8277-17.286 8.926z"/>
   <path d="m344.19 509.71c3.0192-5.0034 10.873-12.627 18.923-12.238 4.9464-0.0607 6.9588 3.269 6.6174 6.5809-0.34142 3.3118-4.0111 6.4396-7.7783 5.1954s-3.715-4.849-3.715-4.849 2.3357 2.2952 4.876 1.5009c2.5403-0.79428 3.3152-5.8071-1.7414-5.6572-5.446 0.16137-12.422 6.181-17.182 9.4672z"/>
   <path d="m366.83 509.29c2.9726-4.7414 10.705-11.966 18.632-11.598 4.8701-0.0576 6.8515 3.0979 6.5153 6.2364-0.33616 3.1385-3.9492 6.1025-7.6584 4.9235s-3.6578-4.5952-3.6578-4.5952 2.2997 2.175 4.8008 1.4223 3.2641-5.5031-1.7146-5.3611c-5.3621 0.15291-12.23 5.8574-16.917 8.9716z"/>
   <path d="m320.96 239.13c0.51937 4.7526 0.9465 8.7919 2.81 9.2806-0.0111 2.2714-0.59641 6.8167-6.5938 7.0213-7.3986 0.25233-10.516-5.153-15.928-5.2019-5.4122-0.0489-8.0882 2.997-8.4781 6.6081s1.3669 7.343 6.75 7.25 6.3368-6.7075 2.2594-7.7912c-1.3586-0.36111 1.1954 3.4061-2.4156 3.8031-3.7822 0.41585-4.3044-6.1937 1.8969-6.06 6.2012 0.13367 10.907 5.7162 17.471 4.5044 7.1315-1.3166 8.6202-6.6922 9.4619-10.134 1.8648-0.48833 2.6681-4.5274 3.0144-9.2806z"/>
  </g>
  <path d="m291.21 198.38c-0.0822 0-0.42169 2.6575-1.9402 6.0322-1.7029 3.7843 1.2306 6.5588 3.0896 8.7846 0.0321-1.9242 0.5385-3.5718 1.2534-6.4981 0.96533-3.9517-1.1909-5.8949-2.4027-8.3186z" fill="#d23225" stroke="#4a0000"/>
  <g fill="#ddb523" stroke="#8c5700">
   <path d="m275.81 291.31s9.5907 7.3438 16.658 7.4443 17.016-7.0981 17.016-7.0981-4.8772-7.0223-7.5229-10.387c-3.1823-4.0474-4.773-11.912-10.031-11.772-5.0375 0.13369-6.0324 7.805-8.9559 11.772-2.4404 3.3117-7.1647 10.041-7.1647 10.041z"/>
   <path d="m270.26 300.91s5.0183-5.8321 5.0153-16.1c3.1352-0.0953 4.3181-0.21492 6.9856 0 0.49494 10.211-3.2241 16.1-3.2241 16.1z"/>
   <path d="m314.43 300.91s-5.0183-5.8321-5.0153-16.1c-3.1352-0.0953-4.3181-0.21492-6.9856 0-0.49495 10.211 3.2241 16.1 3.2241 16.1z"/>
   <path d="m289.72 276.19v15.026c0.50663 2.8156 4.9936 2.7544 5.3102 0l0.12666-15.026c-0.75994-2.2647-4.6136-2.3871-5.4369 0z"/>
   <rect x="269.18" y="281.19" width="45.284" height="4.7597" stroke-width=".99698"/>
   <rect x="262.29" y="300.45" width="61.495" height="6.3419" stroke-width="1.0535"/>
   <rect transform="rotate(-90)" x="-373.09" y="262.32" width="71.794" height="6.7091" stroke-width="1.0388"/>
   <rect transform="rotate(-90)" x="-373.09" y="316.95" width="72.093" height="6.7091" stroke-width="1.041"/>
   <path d="m366.1 229.81c-3.2052 0-5.8125 2.6073-5.8125 5.8125 0 1.1862 0.3579 2.2997 0.96875 3.2188l-9.0938 12.938-5.6875-4.0938c0.11861-0.46239 0.15625-0.93812 0.15625-1.4375 0-3.2052-2.576-5.8125-5.7812-5.8125s-5.8125 2.6073-5.8125 5.8125 2.6073 5.8125 5.8125 5.8125c1.1096 0 2.1185-0.33478 3-0.875l5.8438 4.125-87.781 125.03 2.9481 2.172 88.208-124.83 6.5938 4.6562c-0.11391 0.45372-0.15625 0.9172-0.15625 1.4062 0 3.2052 2.576 5.8125 5.7812 5.8125s5.8125-2.6073 5.8125-5.8125-2.6073-5.8125-5.8125-5.8125c-1.1862 0-2.2685 0.3579-3.1875 0.96875l-6.5625-4.6875 9.3125-12.938c0.40725 0.0905 0.81548 0.15625 1.25 0.15625 3.2052 0 5.8125-2.6073 5.8125-5.8125s-2.6073-5.8125-5.8125-5.8125z"/>
   <path d="m218.79 225.53c-2.2295 0-4.0312 1.8018-4.0312 4.0312 0 2.2295 1.8018 4.0312 4.0312 4.0312 0.0964 0 0.18652-0.0247 0.28125-0.0312l5.0312 7.25-5.4062 3.6875c-0.48971-0.21109-1.0266-0.3125-1.5938-0.3125-2.2295 0-4.0625 1.8018-4.0625 4.0312 0 2.2295 1.833 4.0312 4.0625 4.0312s4.0312-1.8018 4.0312-4.0312c0-0.107-0.0231-0.2076-0.0312-0.3125l5.375-3.6875 7 10.094c-0.40353 1.1402-0.35565 2.5322 0.28125 3.8438 0.91591 1.8861 2.7351 2.9968 4.4375 2.9062l2.0312 2.9062c-0.42081 1.8901 0.0622 4.5098 1.4688 7 1.8842 3.336 4.7908 5.358 7 5.0625l1.9688 2.8125v0.0312c-0.28355 1.2109-0.0205 2.7091 0.84375 4.0625 0.96997 1.5191 2.43 2.4268 3.7812 2.5312l15.875 22.688c0.35772 2.3396 2.0057 5.9482 4.5938 9.625 2.5667 3.6465 5.3732 6.4491 7.4688 7.625l1.7812 2.5312c-0.0545 1.0485 0.0893 2.8078 0.96875 4.0625 1.0878 1.552 2.5927 2.7909 4.0938 3.1562l16.125 23.031c0.0128 0.0192 0.0184 0.0433 0.0312 0.0625 5.1839 7.7605 15.469 23.25 15.469 23.25l2.6485-2.0261s-20.619-31.374-31.18-46.255c0.17955-1.5196-0.0944-3.176-1.1562-4.5625-1.0085-1.3171-2.4316-2.7876-4.1562-3.0312l-1.5-2.125c-1e-3 -9e-3 1e-3 -0.0221 0-0.0312-0.32312-2.3322-2.0298-5.9874-4.6562-9.7188-2.5556-3.6307-5.3704-6.4089-7.4688-7.5938l-15.969-22.781c0.35162-1.2416 0.0913-2.8346-0.8125-4.25-1.0181-1.5945-2.5614-2.535-3.9688-2.5625l-2.2188-3.1562c0.4496-1.892-0.0141-4.511-1.4375-7.0312-1.8951-3.3553-4.8169-5.3847-7.0312-5.0625l-1.625-2.3438c0.51059-1.1812 0.46407-2.6877-0.21875-4.0938-0.84632-1.7428-2.4507-2.8527-4.0312-2.9375l-7.0312-10.062 5.125-3.5c0.47549 0.19691 0.98458 0.3125 1.5312 0.3125 2.2295 0 4.0625-1.8018 4.0625-4.0312 0-2.2295-1.833-4.0625-4.0625-4.0625s-4.0312 1.833-4.0312 4.0625c0 0.13873 0.0177 0.27111 0.0312 0.40625l-5 3.4062-5.0625-7.25c0.22892-0.50653 0.34375-1.0643 0.34375-1.6562 0-2.2295-1.8018-4.0312-4.0312-4.0312z"/>
   <path d="m262.44 239.13c-0.51937 4.7526-0.9465 8.7919-2.81 9.2806 0.0111 2.2714 0.59641 6.8167 6.5938 7.0213 7.3986 0.25233 10.516-5.153 15.928-5.2019 5.4122-0.0489 8.0882 2.997 8.4781 6.6081s-1.3669 7.343-6.75 7.25-6.3368-6.7075-2.2594-7.7912c1.3586-0.36111-1.1954 3.4061 2.4156 3.8031 3.7822 0.41585 4.3044-6.1937-1.8969-6.06-6.2012 0.13367-10.907 5.7162-17.471 4.5044-7.1315-1.3166-8.6202-6.6922-9.4619-10.134-1.8648-0.48833-2.6681-4.5274-3.0144-9.2806z"/>
  </g>
  <path d="m132.25 515.44v31.844s-0.68858 12.968 9.3438 21.906c10.032 8.9386 25.906 8.2188 25.906 8.2188h98.688s14.077-0.1052 22.781 9.5625c6.8794 7.6411 8.6615 13.84 9.125 16.125v1s0.0449-0.20215 0.0937-0.5c0.0488 0.29785 0.0937 0.5 0.0937 0.5v-1c0.46352-2.2854 2.2769-8.4839 9.1562-16.125 8.704-9.6677 22.781-9.5625 22.781-9.5625h98.688s15.874 0.71989 25.906-8.2188 9.3438-21.906 9.3438-21.906v-31.844h-166.07zm106.22 4.8438 8.0025 9.6512c6.4608-0.0866 11.717 0.38084 14.716 0.78625 11.577 1.565 12.524 4.3129 17.438 5.5 4.3833 1.059 8.5625 1.4688 8.5625 1.4688s-5.334 4.0598-8.3125 5.375-9.3125 2.4375-9.3125 2.4375 6.4259 0.18545 8.5625 1 4.1562 2.9375 4.1562 2.9375-5.0823 0.52182-7.5938 0.96875c-8.323 1.4811-16.109 5.4059-24.719 5.625-3.6051 0.0917-8.0465 0.20265-12.719 0.28125-0.96862 1.0512-2.3154 2.4942-2.5 3.9688s1.75 4.6875 1.75 4.6875-9.283 1.4419-14.219 1.375-15.219-1.9062-15.219-1.9062l4.3438-8.125c-0.85195-0.0172-1.7313-9e-3 -2.5625-0.0312-5.7268-0.15374-12.677-0.65593-19.562-1.2188l-3.9375 7.3438-15.188-2.2188 2.875-6.4375c-6.1346-0.45575-10.426-0.82043-13.406-0.40625s-6.0013 2.4894-8.8125 4.4062-8.3125 7.0938-8.3125 7.0938-0.57115-6.7374 1.2188-10.031 6.125-5.875 6.125-5.875-3.7129-3.0385-5.4062-5.875-4.4062-11.25-4.4062-11.25 14.708 8.2459 22.531 8.3125c4.5056 0.0384 9.1079-0.50533 13.75-1.3438l-5.4062-5.75 18.594-8.8125 6.7212 10.517c6.4745-0.99449 12.105-2.11 18.029-2.5794l-5.4062-9.9063zm108.44 0 28.938 1.9688-5.1081 9.56c4.0307 0.75634 13.694 2.6522 17.103 3.0987l6.9112-10.69 18.156 8.8125-5.2812 5.75c4.5343 0.83842 9.0365 1.3821 13.438 1.3438 7.6413-0.0666 22-8.3125 22-8.3125s-2.6272 8.4135-4.2812 11.25-5.2812 5.875-5.2812 5.875 4.2204 2.5812 5.9688 5.875 1.1875 10.031 1.1875 10.031-5.1548-5.0801-8.125-7.0938c-2.6751-1.8136-5.0162-3.8972-8.5938-4.4062-2.2442-0.31932-7.1015-0.0495-13.094 0.40625l2.8125 6.4375-14.844 2.2188-3.8438-7.3438c-6.7259 0.56282-13.531 1.065-19.125 1.2188-0.81191 0.0223-1.6678 0.014-2.5 0.0312l4.25 8.125s-10.054 1.8394-14.875 1.9062c-4.8212 0.0669-13.875-1.375-13.875-1.375s1.899-3.2129 1.7188-4.6875c-0.18029-1.4746-1.5226-2.9175-2.4688-3.9688-4.5638-0.0786-8.8848-0.18953-12.406-0.28125-8.4104-0.21909-16.026-4.1439-24.156-5.625-2.4532-0.44693-7.4062-0.96875-7.4062-0.96875s1.9755-2.123 4.0625-2.9375c2.087-0.81455 8.3438-1 8.3438-1s-6.1844-1.1223-9.0938-2.4375c-2.9093-1.3152-8.0938-5.375-8.0938-5.375s4.0622-0.40974 8.3438-1.4688c4.7993-1.1871 5.754-3.935 17.062-5.5 2.9298-0.40546 8.3766-0.87282 14.688-0.78619z" fill="#056a9e"/>
  <path d="m247.25 531.44c-10.019 0.12679-22.054 1.0743-31.531 2.0312-14.16 1.4298-42.561 7.8825-51.25 7.9375-5.1218 0.0324-9.9618-1.4714-13.344-2.75-3.0659-1.1591-8.8125-4.3438-8.8125-4.3438s1.5896 5.396 3.625 8.5 4.7635 4.5509 5.9375 6.2188c-1.5666 1.2385-2.1303 0.90877-5.2812 4.0312s-2.9062 9.0938-2.9062 9.0938 3.2452-3.3757 6.4062-5.5625 6.4549-4.1808 9.875-4.5938 39.892 2.8351 52.281 2.9375 34.967 0.19646 40.156-0.53125c6.8705-0.96346 13.413-3.7501 20.25-5.0312 2.2302-0.41791 6.75-0.84375 6.75-0.84375s-0.87053-0.78328-3.625-1.4062-9.2022 0.29018-10.219-1.2188c1.5438-2.0661 7.1907-2.1773 10.906-3.4375s7.2812-3.8125 7.2812-3.8125-3.9395-0.70231-5.875-1.2188c-5.3425-1.4255-6.2824-3.4316-15.781-5.1875-3.5621-0.65848-8.8321-0.88857-14.844-0.8125zm10.918 0.36532c1.0462 0.94625-7.4063 5.506-7.742 12.51-0.24685 5.1507 6.1602 9.1361 5.1124 9.8267-1.0478 0.69064-7.2414-4.3777-6.8923-9.7264 0.47809-7.3251 8.4757-13.557 9.5219-12.61zm-7.9808 0.79093c0.94457 1.0205-7.2944 5.0073-8.0625 11.469-0.76316 6.4197 5.1994 9.209 4.1875 10.156s-6.5944-4.4468-6.0938-9.6562c0.6772-7.0463 9.0242-12.989 9.9688-11.969zm14.094 3.8125c1.482 0 2.6875 1.053 2.6875 2.3438s-1.2055 2.3125-2.6875 2.3125-2.6875-1.0217-2.6875-2.3125 1.2055-2.3438 2.6875-2.3438zm-31.188 2.5 4.3125 7.5312-8.625 0.25zm-8.6562 0.75 3.7812 7-7.5625 0.21875zm-8.125 0.59375 3.4688 6.5938-6.9375 0.0312zm-8.1562 0.84375 3.5938 5.9688-7.1562 0.1875zm-7.9062 0.65625 3.25 5.5312-6.75 0.0937zm-8.2188 0.6875 2.9062 4.9688-6 0.1875zm-8.0938 0.75 2.875 4.4062-5.7812 0.1875zm-8.0938 0.625 2.8438 3.9688-5.9062 0.21875zm-7.75 0.71875 2.25 3.4688-4.6562 0.15625z" fill="#e6e6e6"/>
  <path d="m338.51 531.38c9.7766 0.12679 21.52 1.0743 30.767 2.0312 13.817 1.4298 41.53 7.8825 50.008 7.9375 4.9976 0.0324 9.7204-1.4714 13.02-2.75 2.9916-1.1591 8.5989-4.3438 8.5989-4.3438s-1.551 5.396-3.5371 8.5-4.648 4.5509-5.7936 6.2188c1.5287 1.2385 2.0787 0.90877 5.1533 4.0312s2.8358 9.0938 2.8358 9.0938-3.1665-3.3757-6.251-5.5625-6.2985-4.1808-9.6357-4.5938c-3.3372-0.41293-38.925 2.8351-51.014 2.9375-12.089 0.10237-34.12 0.19646-39.183-0.53125-6.704-0.96346-13.088-3.7501-19.759-5.0312-2.1762-0.41791-6.5864-0.84375-6.5864-0.84375s0.84944-0.78328 3.5372-1.4062c2.6877-0.62297 8.9792 0.29018 9.9711-1.2188-1.5064-2.0661-7.0164-2.1773-10.642-3.4375-3.6255-1.2602-7.1048-3.8125-7.1048-3.8125s3.844-0.70231 5.7326-1.2188c5.213-1.4255 6.1302-3.4316 15.399-5.1875 3.4757-0.65848 8.618-0.88857 14.484-0.8125zm-10.654 0.36532c-1.0208 0.94625 7.2268 5.506 7.5543 12.51 0.24087 5.1507-6.011 9.1361-4.9885 9.8267 1.0224 0.69064 7.0659-4.3777 6.7253-9.7264-0.46651-7.3251-8.2703-13.557-9.2911-12.61zm7.7874 0.79093c-0.92168 1.0205 7.1176 5.0073 7.8671 11.469 0.74467 6.4197-5.0734 9.209-4.086 10.156 0.98732 0.94726 6.4346-4.4468 5.9461-9.6562-0.66079-7.0463-8.8055-12.989-9.7272-11.969zm-13.752 3.8125c-1.4461 0-2.6224 1.053-2.6224 2.3438s1.1763 2.3125 2.6224 2.3125 2.6224-1.0217 2.6224-2.3125-1.1763-2.3438-2.6224-2.3438zm30.432 2.5-4.208 7.5312 8.416 0.25zm8.4465 0.75-3.6896 7 7.3792 0.21875zm7.9281 0.59375-3.3847 6.5938 6.7694 0.0312zm7.9586 0.84375-3.5067 5.9688 6.9828 0.1875zm7.7146 0.65625-3.1712 5.5312 6.5864 0.0937zm8.0196 0.6875-2.8358 4.9688 5.8546 0.1875zm7.8976 0.75-2.8053 4.4062 5.6412 0.1875zm7.8976 0.625-2.7748 3.9688 5.7631 0.21875zm7.5622 0.71875-2.1955 3.4688 4.5434 0.15625z" fill="#e6e6e6"/>
 </g>
 <g transform="translate(0 7.2136)">
  <path d="m604.37 404.19c-2.4846-0.15593-4.041 4.8565-12.119 5.142 0 0-0.87075-9.965-0.86561-15.662 7.348 0.19318 20.177-4.828 25.795 1.7054 2.6838 3.1207 2.9031 11.247-1.0387 12.304-8.2565 2.214-9.2878-3.3333-11.772-3.4892z"/>
  <path d="m723.11 403.39c2.4894 0.0251 3.3309 5.3106 11.713 6.0096 0 0 1.138-10.776 1.5472-16.459-7.3426-0.34163-19.501-5.77-25.396 0.72628-2.7036 2.9794-3.7132 11.006 0.1413 12.347 8.0737 2.8085 9.5056-2.6491 11.995-2.624z"/>
 </g>
</svg>
