<?xml version="1.0" encoding="UTF-8"?>
<svg width="496mm" height="331mm" clip-rule="evenodd" fill-rule="evenodd" image-rendering="optimizeQuality" shape-rendering="geometricPrecision" text-rendering="geometricPrecision" version="1.1" viewBox="0 0 496 331" xmlns="http://www.w3.org/2000/svg">
 <defs>
  <style type="text/css"><![CDATA[
    .str0 {stroke:white;stroke-width:0.0762}
    .str10 {stroke:#70614E;stroke-width:0.5;stroke-linejoin:bevel}
    .str1 {stroke:#70614E;stroke-width:0.5;stroke-linecap:round;stroke-linejoin:round}
    .str11 {stroke:#C2C1C1;stroke-width:0.5;stroke-linecap:round;stroke-linejoin:round}
    .str9 {stroke:#A92926;stroke-width:0.5;stroke-linecap:round;stroke-linejoin:round}
    .str3 {stroke:#007CC3;stroke-width:0.6;stroke-linecap:round;stroke-linejoin:round}
    .str8 {stroke:#0A0B0C;stroke-width:0.6;stroke-linecap:round;stroke-linejoin:round}
    .str7 {stroke:#1F1A17;stroke-width:0.6;stroke-linecap:round;stroke-linejoin:round}
    .str2 {stroke:#70614E;stroke-width:0.6;stroke-linecap:round;stroke-linejoin:round}
    .str4 {stroke:#0F488E;stroke-width:0.6;stroke-linecap:round;stroke-linejoin:round}
    .str6 {stroke:#A92926;stroke-width:0.6;stroke-linecap:round;stroke-linejoin:round}
    .str5 {stroke:#707477;stroke-width:0.8;stroke-linecap:round;stroke-linejoin:round}
    .fil4 {fill:none}
    .fil3 {fill:#007CC3}
    .fil6 {fill:#0A0B0C}
    .fil8 {fill:#1F1A17}
    .fil10 {fill:#96AEBE}
    .fil5 {fill:#DEDEDD}
    .fil2 {fill:#F8C300}
    .fil0 {fill:white}
    .fil1 {fill:#A92926}
    .fil7 {fill:#D52E26}
    .fil9 {fill:#DA2724}
    .fil11 {fill:#EFF0F2}
   ]]></style>
 </defs>
 <rect class="fil0 str0" width="496" height="331"/>
 <path class="fil1 str1" d="m248 115.31c13.846 0 25.074 1.9741 25.074 4.4083 0 2.4343-11.228 4.4084-25.074 4.4084-13.845 0-25.074-1.9741-25.074-4.4084 0-2.4342 11.228-4.4083 25.074-4.4083z"/>
 <path class="fil2 str2" d="m199.07 213c5.0516.3212.9318-6.5377 5.195-11.297-4.0815-1.3348-3.8518 2.4205-7.2098 2.8877l2.0148 8.4096z"/>
 <path class="fil3 str3" d="m307.88 143.39c1.6597-2.4714 5.1023-3.4742 2.2733-6.7478.9978 1.108.593 2.6991-.9273 3.7233l-1.346 3.0245z"/>
 <path class="fil3 str3" d="m297.2 156.24 9.3602-.0115c-.2605-.8356-.3615-1.8721-.3596-3.288.0019-1.2532-.0794-2.271-.2216-3.1111l7e-4 2e-4c-.4197-2.4887-1.377-3.4072-2.3211-4.2162 1.3496-2.4435-.2435-4.2616 1.6868-4.2379 4.4904.0552 6.4764-3.0659 4.7171-4.8238-.8313-.8246-2.4905-1.3485-5.1116-1.1007-.0407.0038-.0811.0083-.121.0133l.0016-.0039c-4.7835.6981-5.6904 5.0712-7.4311 6.6756-1.9126 1.7629-7.9052 4.6927-.4548 13.732.0898.1089.1745.2338.2544.3721z"/>
 <path class="fil3 str3" d="m306.29 202.01c.5978-1.7341.9813-3.754 1.0276-5.8106.127-5.644-.8783-5.1935-1.052-7.364-.142-1.7735 2.9582-2.4073 5.0791-5.5133.0475-.0697.0931-.1407.138-.212l.032-.0518c.0436-.0706.0855-.1418.1266-.2139 2.257-4.0223-.9277-8.8953-5.6027-12.528v-1e-4c-.3568 1.8087-2.9612 8.7581-6.7347 11.926-2.0426 1.7148-1.6758 7.0121-.789 10.415.5903 2.2648.3944 3.0356.2946 5.2059-.0742 1.6147-.3964 2.8629-.7937 3.9319l8.2742.2153z"/>
 <path class="fil4 str4" d="m306.04 170.31c-.3515 1.7977-2.9579 8.7612-6.7362 11.933-2.0426 1.7148-1.6758 7.0121-.789 10.415.5903 2.2648.3944 3.0356.2946 5.2059-.0572 1.2448.1346 2.2029.4264 3.0612"/>
 <path class="fil2 str2" d="m257.5 235.2 7.5997 9.5568 3.3555-11.828c.4403-4.1007-1.0998-4.4044-3.3443-2.6426-1.1975.94-1.8081-2.4717-3.4174-1.6076-1.0862.5833-.0609 3.2601-.8732 4.0478-1.0793 1.0466-4.4276-1.7161-3.3203 2.4736z"/>
 <path class="fil4 str2" d="m264.93 232.46c-1.6695 1.1793-3.0026 3.1757-4.0932 5.7608"/>
 <path class="fil2 str2" d="m272.38 251.84 9.9841 1.3424-.5873 10.32c-.1424 3.4655-2.3524 5.4866-4.0324 3.5249-1.5394-1.7975-.4302-4.0098-2.9608-3.7303-3.6249.4003-.3393-3.9835-2.2959-4.0645-2.0631-.0854-2.4312-.6837-1.813-3.2332.4385-1.8084 1.2889-3.6904 1.7053-4.159z"/>
 <path class="fil2 str2" d="m272.38 251.84 1.84-4.7104c2.2319.3957 4.8785.3703 6.7008 1.0902 3.6304 1.4342 1.8416 2.8583 3.1732 3.3207 3.0782 1.069 4.5583 1.7093 4.193 4.013-.4696 2.9613.8263 4.6472-.0972 5.9309-.8394 1.1666-2.1973.2215-3.8357.0737-.9494-.0856-2.7548 1.2527-3.8.8079-1.1028-.4693-.3646-2.816-1.0063-3.3777-.8198-.7174-2.0754.795-2.8997.1228-.8205-.6691-.0769-2.9951-.7167-4.3709-.7482-1.609-2.9283 1.7328-3.5514-2.9002z"/>
 <path class="fil4 str2" d="m273.55 248.85c5.8621 1.3359 9.1718 4.3735 11.05 8.3658"/>
 <polyline class="fil4 str2" points="277.55 253.38 277.82 250.32 280.25 250.31"/>
 <polyline class="fil4 str2" points="280.33 256.41 280.54 252.01 282.49 252.39"/>
 <path class="fil2 str2" d="m315.07 196.22.8289-1.93c-1.5523-.623-2.758.4052-.8289 1.93z"/>
 <path class="fil2 str2" d="m315.86 194.37-.7593 1.7534c2.2183 1.034 2.9248-.8075.7593-1.7534z"/>
 <path class="fil2 str2" d="m311.49 161.53.0067-4.2237c-2.9511.1257-4.2283 3.3574-.0067 4.2237z"/>
 <path class="fil2 str2" d="m311.49 157.45-.0062 3.9135c4.5964.6624 5.2057-4.0273.0062-3.9135z"/>
 <path class="fil2 str2" d="m312.3 123.25 1.8721-2.2214c-1.8043-1.4476-4.0436-.0842-1.8721 2.2214z"/>
 <path class="fil2 str2" d="m314.08 121.13-1.709 2.0157c2.5207 2.259 4.195.1056 1.709-2.0157z"/>
 <path class="fil2 str2" d="m322.86 234.61 18.572 5.186c.9643.7838.5556 3.1102 1.1024 3.6799 1.8853 1.9646 2.2559 3.7313 1.5373 4.7761-.4911.7142-2.8635.3246-4.7089-.2288-2.1059-.6314-3.9653.1194-4.7072-.077-1.6802-.4447-1.7382-2.0176-3.6687-3.762-1.084-.9796-2.3847-.0091-3.2976-1.5599-1.5474-2.6286-1.5179-4.334-4.8296-8.0143z"/>
 <path class="fil4 str2" d="m338.8 245.17c-3.8765-3.2377-9.908-7.0225-15.948-10.56"/>
 <polyline class="fil4 str2" points="338.35 242.27 334.94 242.22 335.48 244.95"/>
 <polyline class="fil4 str2" points="330.93 241.88 331.02 239.61 333.25 239.84"/>
 <path class="fil2 str2" d="m322.86 234.61.4704-1.1787c4.0018-.1571 4.9291-1.6483 6.8454-2.8929 2.7571-1.7905 1.7566 2.1449 2.9106 2.1928 1.3229.0549 2.4932-2.1786 3.4389-2.6444 2.5879-1.2747 1.968 2.2344 3.1264 2.2741 1.2475.0428 2.0552-1.3456 3.6313-1.4055 1.1336-.0431.6351 1.498 1.3405 2.0296.6973.5255 2.6677.1853 2.5614 1.5041-.1252 1.5533-2.7411 1.5311-3.0764 2.6478-.4609 1.5348-.1502 3.5123-2.5569 2.0047-3.4381-2.1537-2.7968 3.6187-6.1874.0065-2.6967-2.8729-4.3644 1.2765-5.979-.0688-2.5361-2.1131-2.2025-2.2165-6.5252-4.4693z"/>
 <path class="fil4 str2" d="m323.09 234.04c3.4264 1.215 11.272 1.4305 17.613 1.1776"/>
 <polyline class="fil4 str2" points="338.14 233.37 335.38 235.32 337.42 237.26"/>
 <polyline class="fil4 str2" points="330.36 233.16 329.18 235.06 330.31 236.7"/>
 <path class="fil2 str2" d="m313.51 224.86 1.4841 9.4673c2.983-.0206 2.8461-4.9256 5.3976-7.2289 1.1034-.9961 1.4839-2.5644.4366-3.1133-1.633-.8559-2.9693 1.9782-4.9337-.1521-.6836-.7412-1.6999-.8722-2.3846 1.027z"/>
 <path class="fil2 str2" d="m309.73 212.08.9468-1.4202c3.3646-.3754 11.14-2.2699 13.377-1.6433 2.7979.7838.0992 1.9941 5.123 5.8267 1.851 1.4121 1.6751 5.6781 1.0306 7.4373-.8057 2.1993-2.6437 2.0977-3.0492.9854-1.3133-3.6023-3.1351 1.8173-3.8006-2.8261-.5331-3.7198-3.1013 1.2651-4.1204-2.0692-1.7085-5.59-2.8523.194-4.2993-2.5144-1.7279-3.2342-2.1625-3.6633-5.2078-3.7762z"/>
 <path class="fil4 str2" d="m310.7 210.65c6.596-1.1027 11.755 2.0261 14.662 6.4496"/>
 <polyline class="fil4 str2" points="320.49 214.88 319.02 211.62 320.86 211.54"/>
 <polyline class="fil4 str2" points="316.55 213.16 315.8 210.64 316.87 210.19"/>
 <polyline class="fil4 str2" points="324.71 214.87 322.57 213.89 323.55 216.88"/>
 <path class="fil2 str2" d="m322.67 201.1c2.3343-5.9039.1414-7.2599-1.1185-4.7323-.7256 1.4558-2.8878-.5797-3.3056 2.0119-.5796 3.5951-2.2758.308-2.1676 4.9253l6.5917-2.2049z"/>
 <path class="fil2 str2" d="m311.61 208.99-.9008 1.689c1.3669-.7818 2.8319-1.9003 4.0917-1.7714 3.9603.4051 2.1243-2.8365 6.1386-1.1959 3.5641 1.4566 2.2576-3.9123 6.3097-.0443 2.1424 2.0451 2.8894-.8824 3.1545-2.776.1684-1.2029 2.6246-1.9703 2.5079-3.6071-.1626-2.28-3.9089.2628-4.2538-2.1016-.2382-1.6328-2.0068-1.803-2.7848-.5455-3.3216 5.3687-2.883-3.4927-5.7333.9451-2.0134 3.1348-4.8399-1.263-4.7798 3.9053.0344 2.958.1391 2.5095-3.7499 5.5024z"/>
 <path class="fil4 str2" d="m311.28 209.6c7.1797-3.0426 8.2087-7.1309 15.655-6.3565"/>
 <polyline class="fil4 str2" points="321.46 206.4 319.1 204.93 321.1 202.56"/>
 <polyline class="fil4 str2" points="324.88 204.15 323.82 203.23 324.53 202.92"/>
 <path class="fil2 str2" d="m319.92 176.35 1.8169-2.3052c-1.6481-1.1332-3.5989-.1326-1.8169 2.3052z"/>
 <path class="fil2 str2" d="m317.6 175.87.7016.5102c15.442-23.111 8.6277-22.136 7.88-20.656-1.7446 3.453-2.6309.2383-3.6282 2.7905-1.0753 2.7517-2.0687.3089-2.2987 2.7287-.4479 4.7124-3.0641.607-2.6192 4.2573.6977 5.7245.2003 7.7144-.0355 10.369z"/>
 <path class="fil2 str2" d="m317.6 175.87.7289.4733c1.4381-3.436 2.4625-2.9599 5.0324-2.689 3.7462.3949.7138-2.8003 2.7268-2.6646 1.3172.0888 1.2654 1.1713 3.3386 1.2524 2.4935.0975.7777-3.7786 1.5535-4.2347 1.1901-.6998 2.0922 1.243 3.4423.7548 2.3293-.8424-1.4777-2.9455 1.1084-3.4118 2.2432-.4045 2.5712-3.4357-1.4212-2.5323-1.9276.4362-1.3414-2.7792-3.9234-1.4106-2.9479 1.5625-2.8047-1.0021-4.0604.7322-3.1589 4.363-3.0897.6153-4.4227 2.5811-2.7013 3.9834-.692 5.1516-4.1032 11.149z"/>
 <path class="fil2 str2" d="m321.66 174.16-1.6544 2.0832c2.304 1.8166 3.926-.3968 1.6544-2.0832z"/>
 <path class="fil2 str2" d="m318.22 187.02 9.189-2.0817c.2084-1.1919 1.0203-1.7768 1.3355-2.4599 1.9389-4.2014-3.3642-.1085-1.0108-4.3342 1.0396-1.8667-.8761-2.949-1.6613-1.8818-3.1637 4.2999-3.1073-1.7743-4.9429 1.9357-1.9668 3.9751-3.935 4.2219-2.9095 8.8219z"/>
 <path class="fil4 str2" d="m325.28 179.3c-2.5317 2.7962-3.6029 4.6089-4.785 7.2109"/>
 <path class="fil2 str2" d="m314.13 189.57.2868 1.1472c1.471-.1262 2.2801-.1296 3.6743.8566 1.8982 1.3427 1.4382-1.5079 4.9388.8385 2.9927 2.006 3.3088-1.5448 5.2326-1.5182 4.3734.0605 2.6523-2.9401.968-3.2795-2.6213-.5283-.2596-3.7782-3.2021-2.8078-6.3402 2.091-2.4763-1.426-5.5565-.3534-2.5134.8752-2.4932 4.2465-6.3419 5.1166z"/>
 <path class="fil4 str2" d="m314.3 190.13c5.1027-1.2692 7.2844-2.3866 13.011-1.1108"/>
 <polyline class="fil4 str2" points="320.8 189.28 319.16 188.88 320.21 188.1"/>
 <polyline class="fil4 str2" points="325.27 189.34 324.02 188.49 325.14 188.23"/>
 <path class="fil2 str2" d="m296.93 213c-5.0516.3212-.9318-6.5377-5.195-11.297 4.0815-1.3348 3.8518 2.4205 7.2098 2.8877l-2.0148 8.4096z"/>
 <path class="fil2 str2" d="m303.51 170.2.3428 10.29c.9059-.6277 5.5481-14.564-.3428-10.29z"/>
 <path class="fil4 str2" d="m330.13 164.99c-5.9346 4.8287-8.1475 3.0393-12.176 11.125"/>
 <polyline class="fil4 str2" points="329.27 164.36 328.48 166.24 330.01 166.09"/>
 <polyline class="fil4 str2" points="326.26 166.49 323.89 168.99 327.1 169.14"/>
 <path class="fil2 str2" d="m306.79 151.49 15.172-4.8694c7.7545 4.3667 1.0003 3.2914 3.5206 5.224.8657.6638 1.1175 3.6972-2.8831 1.9593-3.7349-1.6226-1.1567 2.1772-5.0817 1.5849-6.3654-.9606-1.9746-5.5302-10.728-3.8988z"/>
 <path class="fil2 str2" d="m306.17 151.78-.0563-1.5201c2.4139-.9906 3.9996-3.6134 5.3757-6.501.8083-1.696 1.7456 1.5857 4.514-3.0519 1.2617-2.1135 1.7833.1982 5.4888-1.6528 2.5333-1.2654 2.5386 1.6785 5.8236 1.2245 5.2942-.7317 4.3335 5.1273.9344 4.9013-5.8535-.3892.112 5.9101-5.8261 4.3362-8.4979-2.2524-.6801 4.8861-7.4892 3.2445-5.0256-1.2117-6.1499-1.1647-8.7649-.9807z"/>
 <path class="fil4 str2" d="m323.94 143.2c-6.6802-.3945-10.87 6.3206-17.791 7.8149"/>
 <polyline class="fil4 str2" points="321 145.06 316.74 145.38 318.24 142.7"/>
 <polyline class="fil4 str2" points="315.31 150.22 312.47 148.16 313.65 146.66"/>
 <path class="fil2 str2" d="m310.91 135.26-.1883-.6343 9.7868-4.6803c.9056-.1978 1.9849.3631 2.8398.2766 3.0692-.3105 2.9048-2.0364 4.7129-2.0125 1.5562.0206.8757 2.4451 1.8679 2.7666 2.1786.706 2.8459 2.5395-2.1645 2.9438-2.9413.2373-2.9362 3.0562-6.5244 1.1876-3.7375-1.9464-3.9889-1.7369-10.33.1525z"/>
 <path class="fil4 str2" d="m319.99 132.24c1.5465-.0663 2.2135.4961 5.2155-.3591"/>
 <path class="fil2 str2" d="m310.68 134.6.2628.7008c5.552-2.2571 8.3771-2.9618 10.195-3.3178 2.7423-.5371-.8269-1.9264 2.6363-3.755 2.4815-1.3103-1.0007-3.1815.4202-5.6035.9713-1.6556-.7085-3.6194-2.1575-1.7386-1.894 2.4584-5.1206-1.3009-5.2645 2.2834-.2872 7.1548-2.7124 1.8222-3.8184 4.4336-.7856 1.8548 1.5245 4.4955-2.2735 6.9971z"/>
 <path class="fil4 str2" d="m310.83 134.93c9.7942-5.8995 6.8601-7.2241 10.55-11.043"/>
 <polyline class="fil4 str2" points="319.46 130.79 317.09 130.3 317.68 127.68"/>
 <polyline class="fil4 str2" points="321.43 127.39 319.26 126.99 319.26 125.32"/>
 <path class="fil2 str2" d="m309.69 124.5.733-.2818-7.7149-14.327c-5.0763-4.4707-6.072-.7095-5.0746.2605 1.8466 1.7959.106 3.4588 1.869 4.1083 4.1809 1.5403-.1772 3.2005 2.8251 3.944 4.5774 1.1336 5.8469-.0947 7.3624 6.2959z"/>
 <path class="fil2 str2" d="m309.69 124.48.7319-.2815c-1.7633-8.6365 3.4455-10.396 3.769-12.58.5426-3.6627-3.1968.0277-2.5771-4.5715.6413-4.7602-3.6861-.9282-5.0246-4.0654-1.1698-2.7418-4.1558-3.0363-3.5777.0657.3138 1.6838-.9814 2.393-.5211 3.9006 1.2532 4.1045-.1176 6.3518 1.3045 8.1246 3.3796 4.213 4.3314 4.6644 5.8951 9.4075z"/>
 <path class="fil4 str2" d="m310.03 124.37c-2.5523-9.7774-1.1636-10.828-3.4906-16.946"/>
 <polyline class="fil4 str2" points="306.2 113.5 308.34 115.59 308.66 113.67"/>
 <path class="fil4 str2" d="m306.32 109.17c.1689.0563.2252.1689.3378.2252l.7319.563.3007-.9573"/>
 <path class="fil4 str4" d="m304.83 135.46c-4.7835.6981-5.6904 5.0712-7.4311 6.6756"/>
 <path class="fil4 str4" d="m301.26 140.55c-.0843-2.4349 1.1139-4.8645 3.6826-5.1074 4.8715-.4606 6.4262 1.7432 5.5027 3.5928"/>
 <path class="fil2 str2" d="m308.31 135.92-.5088.7556c-2.7055-1.2691-3.5096-1.8944-8.3825-1.6378-2.2208.1169-1.0254-1.885-3.4452-1.8327-2.6895.0581-1.0528-1.9503-2.6659-3.7848-1.7788-2.0231-.1673-5.2452 6.5776-.4291l8.4248 6.9288z"/>
 <path class="fil2 str2" d="m307.8 136.68.5344-.7348c-4.1993-4.6927-1.5408-6.3261-2.4924-10.995-.5313-2.6067-1.9951.6976-3.2835-3.2538-.727-2.2297-3.1953-.7754-4.5882-1.8306-1.0333-.7828-2.6388-.1768-2.1321 1.8115.9012 3.5364-1.6072 4.799.948 6.2705 3.5186 2.0263.0247 3.9749 2.4144 4.8841 4.4345 1.6872 5.7443 1.2255 8.5994 3.8479z"/>
 <path class="fil4 str2" d="m298.44 122.85c2.8972 5.5284 4.9667 9.0351 9.6192 13.494"/>
 <polyline class="fil4 str2" points="298.58 126.32 301.38 128.19 301.32 124.18"/>
 <polyline class="fil4 str2" points="303.45 127.79 303.52 131.26 300.85 130.33"/>
 <path class="fil4 str4" d="m310.1 141.01c1.1744-1.1951 1.8436-2.3687-.0271-4.4668"/>
 <path class="fil2 str2" d="m309.67 124.48c-.1949 4.5638.2436 10.458-1.3354 11.472l-.5463.7284c-.6836 2.8256-1.6236 5.1493-2.4887 5.9486l1.4116 2.14c1.0368-3.5194 3.2582-8.1227 4.2335-9.4847l-.2428-.6677c-.6535-.2621.1535-6.8583-.3035-10.44l-.7284.3035z"/>
 <polyline class="fil4 str2" points="311.55 120.98 310.88 120.9 309.85 123.65"/>
 <line class="fil4 str2" x1="314.13" x2="311.62" y1="194.53" y2="193.91"/>
 <path class="fil2 str2" d="m322.68 229.14 2.7096 1.4956c-.8762 1.5272-3.5291.4391-2.7096-1.4956z"/>
 <path class="fil2 str2" d="m325.27 230.57-2.4686-1.3531c1.2905-3.0164 3.9236-1.5404 2.4686 1.3531z"/>
 <path class="fil3 str3" d="m308.5 233.03-4.9415 1.2073c-1.314 2.0414-2.2723 1.4446-4.8057 3.3233-1.4964 1.1098-2.0997 3.4001-5.2091 3.5542-3.833.19-3.3354-2.3704-7.6636-2.5921-2.1341-.1093-4.277 1.2589-5.1279-.1127-.8638-1.3925-1.8605-1.278-3.4539-1.6273v3.2806c1.1487-.6709 2.2446-.7092 2.5537.0584.9631 2.3917-.8773 2.6015-.7319 4.2788.2634 3.0381 2.4007 4.0041 3.6558 4.1344 4.5162.4688 6.169 1.761 7.755 3.3999.5044.5213 4.6513 3.1659 7.6575.8941 2.2131-1.6723 6.4938-5.1966 7.6372-7.5273 2.6436-5.3887 7.0988-4.7069 8.8017-8.9125l-6.1273-3.3591z"/>
 <path class="fil4 str4" d="m314.36 236.98c-1.9777 3.7823-12.362 12.978-16.169 15.855-3.0062 2.2718-7.1531-.3728-7.6575-.8941-1.586-1.6389-3.2388-2.9311-7.755-3.3999-1.2551-.1303-3.3924-1.0963-3.6558-4.1344-.1454-1.6773 1.695-1.8871.7319-4.2788-.2634-.6543-1.0989-.7231-2.0513-.3136"/>
 <path class="fil2 str2" d="m321.79 237.77-3.0838.0386c.0626-1.8259 2.8938-2.6159 3.0838-.0386z"/>
 <path class="fil2 str2" d="m318.83 237.81 2.829-.0423c.474 3.5447-3.0926 3.8945-2.829.0423z"/>
 <path class="fil2 str2" d="m323.3 233.43-7.8936-1.1932c-.0354.4428-.0852.9182-.1495 1.4279l7.5832.9479.4599-1.1826z"/>
 <line class="fil4 str2" x1="323.36" x2="321.66" y1="231.18" y2="233.17"/>
 <path class="fil2 str2" d="m286.77 246.04 3.9858-.1752c-.2191-2.2995-3.307-4.9494-3.9858.1752z"/>
 <path class="fil4 str2" d="m286.82 241.02c.7401.5001 1.2297 1.1342 1.5794 2.086"/>
 <line class="fil4 str2" x1="320.42" x2="320.34" y1="236.12" y2="234.29"/>
 <path class="fil2 str2" d="m290.62 245.88-3.6931.1623c-.5947 4.5103 4.0239 4.7391 3.6931-.1623z"/>
 <path class="fil3 str3" d="m298.01 201.8c-.6622 1.7816-1.5329 3.0656-1.8109 4.7193-.8892 5.2901-.2636 10.045 2.7495 12.956 1.3797 1.4155 3.4746 2.3737 4.0043 2.9171 2.6576 2.7265 1.6568 10.218.6058 11.85l4.9416-1.2073 6.1272 3.3591c.2432-.6008.4305-1.3013.548-2.1335.159-1.1255.2504-2.0898.2833-2.9256.2305-5.8508-2.4016-5.4175-4.7101-10.121-.9631-1.9621.6916-4.9489-2.5623-8.7381-.9283-1.081-1.9435-1.5253-2.8779-2.026.5725-3.5929-2.2702-3.3943-1.3383-4.3374.9039-.9147 1.7162-2.3634 2.314-4.0976l-8.2742-.2153z"/>
 <path class="fil4 str4" d="m309.85 185.04c-1.8338 1.7166-3.7016 2.4066-3.5908 3.7921.1737 2.1704 1.1791 1.72 1.052 7.364-.0927 4.1135-1.5338 8.0787-3.3416 9.9082-.9319.9431 1.911.7445 1.3382 4.3378"/>
 <path class="fil3 str3" d="m309.22 140.37c-.9124.6146-2.2265 1.0251-3.8801 1.0048-1.9303-.0236-.3372 1.7944-1.6868 4.2379.9441.809 1.9014 1.7275 2.3211 4.2162 2.2119-1.3604.2269-3.9434 1.8998-6.4344l1.346-3.0245z"/>
 <path class="fil4 str4" d="m299.18 219.68c-3.2066-2.8884-3.8848-7.7468-2.9738-13.166.4449-2.6462 2.4067-4.3452 2.6046-8.6512"/>
 <line class="fil4 str4" x1="303.79" x2="302.49" y1="206.46" y2="206.88"/>
 <path class="fil2 str2" d="m308.7 197.19c-6.0411 6.4214-10.327.6925-19.399 4.7676 8.0151-2.8766 3.127-11.943 19.07-7.8912l.3288 3.1236z"/>
 <path class="fil4 str2" d="m295.06 198.95c2.143-1.6733 4.466-3.0225 6.9531-4.0764"/>
 <path class="fil2 str2" d="m311.43 206.84c-.055.5506-1.9821 2.8916-3.7719 5.0902.1777.1616.3532.3409.526.5421.2844.3312.5308.6559.7453.9747l.7997-1.3611.9669-1.4147.9105-1.6996 1.1533-.8498c4.0222-3.3489-5.9655-13.548 1.6439-17.418l-.2628-1.1388c-1.2274.4241-3.5871 3.5134-2.1462-1.2702.9833-3.2643 3.7084-5.8254 6.351-11.957l-.7446-.4818c-2.4367 3.983-5.602 9.6206-6.4118 8.7722l-.1456-.8984-1.2449 1.3613.1024.6464-.7973-.6835-.7176 1.0743c1.786 2.6208 1.396 4.889 1.2189 7.3851l3.1548 10.038-.0389 3.1924-1.2911.0967z"/>
 <path class="fil4 str4" d="m299.23 200.92c.6421 1.8886 1.7681 3.2955 1.7904 6.2154.0381 5.0016-3.7813 5.6823-3.3067 10.026.298 2.7277 4.4604 4.422 5.2391 5.2209 2.6576 2.7265 1.6568 10.218.6058 11.85"/>
 <path class="fil4 str4" d="m301.59 205.58c.4628-.0664.6612.2665.809.9265.9834 4.3913 3.6212 3.4473 5.786 5.9683 3.2539 3.7892 1.5992 6.7759 2.5623 8.7381 2.6385 5.3753 5.6994 4.0414 4.4268 13.046-.158 1.1181-.4415 1.9985-.8181 2.7187"/>
 <path class="fil4 str4" d="m305.98 149.82c2.2119-1.3604.2267-3.9433 1.8998-6.4344.6289-.9366 1.5155-1.6613 2.2201-2.3782"/>
 <path class="fil4 str4" d="m310.45 139.04c-.6319 1.2654-2.4242 2.3649-5.1082 2.3317-1.9307-.0239-.3416 1.7906-1.6912 4.2341"/>
 <path class="fil2 str2" d="m311.43 206.85c.4355.9292 1.2947.6393 1.7575-.1406-.3242-4.3983-1.6767-7.8685-3.2573-12.479-.997-2.9081-3.2315.1606-3.9576-6.6855-.4162-3.9242-2.2932.852-6.1465-4.5834-1.5128-2.134-4.6662-1.2058-4.0437.2873 2.0895 5.0117-3.2579 4.2246.6766 6.5753 5.3885 3.2196-.7146 5.745 4.8549 6.2829 10.81 1.0442 9.947 7.4309 10.116 10.743z"/>
 <path class="fil2 str2" d="m305.98 183.3c-3.0755-.9829-8.2506.449-25.11-6.5132 18.67-4.446 17.695-3.0928 25.11 6.5132z"/>
 <path class="fil2 str2" d="m308.41 186.1.7008-1.0512c-3.3024-3.1616-4.3631-3.3955-4.5944-6.9558-.1691-2.6019.9187-6.1709.1803-7.9151-2.658-6.2783-2.8861 3.8682-4.8069-2.133-1.4249-4.4522-2.5217-5.4697-4.3323-4.1591-.8405.6085-.9344 2.7925.3176 5.5341 2.1761 4.7653-2.9292 2.5312.4103 6.551 3.1398 3.7794 8.9255 5.9419 12.125 10.129z"/>
 <path class="fil4 str2" d="m300.18 173.53c1.4266 5.9532 4.8913 8.5095 8.5747 12.047"/>
 <path class="fil4 str2" d="m311.49 198.86c-3.3682-8.3822-5.8405-.4459-13.007-14.428"/>
 <polyline class="fil4 str2" points="297.55 187.56 300.44 187.95 300.49 186.95"/>
 <polyline class="fil4 str2" points="300.88 192.06 303.94 192.23 302.66 189.51"/>
 <path class="fil3 str3" d="m188.12 143.39c-1.6597-2.4714-5.1023-3.4742-2.2733-6.7478-.9978 1.108-.593 2.6991.9273 3.7233l1.346 3.0245z"/>
 <path class="fil3 str3" d="m198.8 156.24-9.3602-.0115c.2605-.8356.3615-1.8721.3596-3.288-.0019-1.2532.0794-2.271.2216-3.1111l-7e-4 2e-4c.4197-2.4887 1.377-3.4072 2.3211-4.2162-1.3496-2.4435.2435-4.2616-1.6868-4.2379-4.4904.0552-6.4764-3.0659-4.7171-4.8238.8313-.8246 2.4905-1.3485 5.1116-1.1007.0407.0038.0811.0083.121.0133l-.0016-.0039c4.7835.6981 5.6904 5.0712 7.4311 6.6756 1.9126 1.7629 7.9052 4.6927.4548 13.732-.0898.1089-.1745.2338-.2544.3721z"/>
 <path class="fil3 str3" d="m189.71 202.01c-.5978-1.7341-.9813-3.754-1.0276-5.8106-.127-5.644.8783-5.1935 1.052-7.364.142-1.7735-2.9582-2.4073-5.0791-5.5133-.0475-.0697-.0931-.1407-.138-.212l-.032-.0518c-.0436-.0706-.0855-.1418-.1266-.2139-2.257-4.0223.9277-8.8953 5.6027-12.528v-1e-4c.3568 1.8087 2.9612 8.7581 6.7347 11.926 2.0426 1.7148 1.6758 7.0121.789 10.415-.5903 2.2648-.3944 3.0356-.2946 5.2059.0742 1.6147.3964 2.8629.7937 3.9319l-8.2742.2153z"/>
 <path class="fil4 str4" d="m189.96 170.31c.3515 1.7977 2.9579 8.7612 6.7362 11.933 2.0426 1.7148 1.6758 7.0121.789 10.415-.5903 2.2648-.3944 3.0356-.2946 5.2059.0572 1.2448-.1346 2.2029-.4264 3.0612"/>
 <path class="fil2 str2" d="m238.5 235.2-7.5997 9.5568-3.3555-11.828c-.4403-4.1007 1.0998-4.4044 3.3443-2.6426 1.1975.94 1.8081-2.4717 3.4174-1.6076 1.0862.5833.0609 3.2601.8732 4.0478 1.0793 1.0466 4.4276-1.7161 3.3203 2.4736z"/>
 <path class="fil2 str2" d="m223.63 251.84-9.9841 1.3424.5873 10.32c.1424 3.4655 2.3524 5.4866 4.0324 3.5249 1.5394-1.7975.4302-4.0098 2.9608-3.7303 3.6249.4003.3393-3.9835 2.2959-4.0645 2.0631-.0854 2.4312-.6837 1.813-3.2332-.4385-1.8084-1.2889-3.6904-1.7053-4.159z"/>
 <path class="fil2 str2" d="m223.62 251.84-1.84-4.7104c-2.2319.3957-4.8785.3703-6.7008 1.0902-3.6304 1.4342-1.8416 2.8583-3.1732 3.3207-3.0782 1.069-4.5583 1.7093-4.193 4.013.4696 2.9613-.8263 4.6472.0972 5.9309.8394 1.1666 2.1973.2215 3.8357.0737.9494-.0856 2.7548 1.2527 3.8.8079 1.1028-.4693.3646-2.816 1.0063-3.3777.8198-.7174 2.0754.795 2.8997.1228.8205-.6691.0769-2.9951.7167-4.3709.7482-1.609 2.9283 1.7328 3.5514-2.9002z"/>
 <path class="fil4 str2" d="m222.45 248.85c-5.8621 1.3359-9.1718 4.3735-11.05 8.3658"/>
 <polyline class="fil4 str2" points="218.45 253.38 218.18 250.32 215.75 250.31"/>
 <polyline class="fil4 str2" points="215.67 256.41 215.46 252.01 213.51 252.39"/>
 <path class="fil4 str2" d="m231.07 232.46c1.6695 1.1793 3.0026 3.1757 4.0932 5.7608"/>
 <path class="fil2 str2" d="m180.93 196.22-.8289-1.93c1.5523-.623 2.758.4052.8289 1.93z"/>
 <path class="fil2 str2" d="m180.14 194.37.7593 1.7534c-2.2183 1.034-2.9248-.8075-.7593-1.7534z"/>
 <path class="fil2 str2" d="m184.51 161.53-.0067-4.2237c2.9511.1257 4.2283 3.3574.0067 4.2237z"/>
 <path class="fil2 str2" d="m184.51 157.45.0062 3.9135c-4.5964.6624-5.2057-4.0273-.0062-3.9135z"/>
 <path class="fil2 str2" d="m183.71 123.25-1.8721-2.2214c1.8043-1.4476 4.0436-.0842 1.8721 2.2214z"/>
 <path class="fil2 str2" d="m181.92 121.13 1.709 2.0157c-2.5207 2.259-4.195.1056-1.709-2.0157z"/>
 <path class="fil2 str2" d="m173.14 234.61-18.572 5.186c-.9643.7838-.5556 3.1102-1.1024 3.6799-1.8853 1.9646-2.2559 3.7313-1.5373 4.7761.4911.7142 2.8635.3246 4.7089-.2288 2.1059-.6314 3.9653.1194 4.7072-.077 1.6802-.4447 1.7382-2.0176 3.6687-3.762 1.084-.9796 2.3847-.0091 3.2976-1.5599 1.5474-2.6286 1.5179-4.334 4.8296-8.0143z"/>
 <path class="fil4 str2" d="m157.2 245.17c3.8765-3.2377 9.908-7.0225 15.948-10.56"/>
 <polyline class="fil4 str2" points="157.65 242.27 161.06 242.22 160.52 244.95"/>
 <polyline class="fil4 str2" points="165.07 241.88 164.98 239.61 162.75 239.84"/>
 <path class="fil2 str2" d="m173.14 234.61-.4704-1.1787c-4.0018-.1571-4.9291-1.6483-6.8454-2.8929-2.7571-1.7905-1.7566 2.1449-2.9106 2.1928-1.3229.0549-2.4932-2.1786-3.4389-2.6444-2.5879-1.2747-1.968 2.2344-3.1264 2.2741-1.2475.0428-2.0552-1.3456-3.6313-1.4055-1.1336-.0431-.6351 1.498-1.3405 2.0296-.6973.5255-2.6677.1853-2.5614 1.5041.1252 1.5533 2.7411 1.5311 3.0764 2.6478.4609 1.5348.1502 3.5123 2.5569 2.0047 3.4381-2.1537 2.7968 3.6187 6.1874.0065 2.6967-2.8729 4.3644 1.2765 5.979-.0688 2.5361-2.1131 2.2025-2.2165 6.5252-4.4693z"/>
 <path class="fil4 str2" d="m172.91 234.04c-3.4264 1.215-11.272 1.4305-17.613 1.1776"/>
 <polyline class="fil4 str2" points="157.86 233.37 160.62 235.32 158.58 237.26"/>
 <polyline class="fil4 str2" points="165.64 233.16 166.82 235.06 165.69 236.7"/>
 <path class="fil2 str2" d="m182.49 224.86-1.4841 9.4673c-2.983-.0206-2.8461-4.9256-5.3976-7.2289-1.1034-.9961-1.4839-2.5644-.4366-3.1133 1.633-.8559 2.9693 1.9782 4.9337-.1521.6836-.7412 1.6999-.8722 2.3846 1.027z"/>
 <path class="fil2 str2" d="m186.27 212.08-.9468-1.4202c-3.3646-.3754-11.14-2.2699-13.377-1.6433-2.7979.7838-.0992 1.9941-5.123 5.8267-1.851 1.4121-1.6751 5.6781-1.0306 7.4373.8057 2.1993 2.6437 2.0977 3.0492.9854 1.3133-3.6023 3.1351 1.8173 3.8006-2.8261.5331-3.7198 3.1013 1.2651 4.1204-2.0692 1.7085-5.59 2.8523.194 4.2993-2.5144 1.7279-3.2342 2.1625-3.6633 5.2078-3.7762z"/>
 <path class="fil4 str2" d="m185.3 210.65c-6.596-1.1027-11.755 2.0261-14.662 6.4496"/>
 <polyline class="fil4 str2" points="175.51 214.88 176.98 211.62 175.14 211.54"/>
 <polyline class="fil4 str2" points="179.45 213.16 180.21 210.64 179.13 210.19"/>
 <polyline class="fil4 str2" points="171.29 214.87 173.43 213.89 172.45 216.88"/>
 <path class="fil2 str2" d="m173.33 201.1c-2.3343-5.9039-.1414-7.2599 1.1185-4.7323.7256 1.4558 2.8878-.5797 3.3056 2.0119.5796 3.5951 2.2758.308 2.1676 4.9253l-6.5917-2.2049z"/>
 <path class="fil2 str2" d="m184.39 208.99.9008 1.689c-1.3669-.7818-2.8319-1.9003-4.0917-1.7714-3.9603.4051-2.1243-2.8365-6.1386-1.1959-3.5641 1.4566-2.2576-3.9123-6.3097-.0443-2.1424 2.0451-2.8894-.8824-3.1545-2.776-.1684-1.2029-2.6246-1.9703-2.5079-3.6071.1626-2.28 3.9089.2628 4.2538-2.1016.2382-1.6328 2.0068-1.803 2.7848-.5455 3.3216 5.3687 2.883-3.4927 5.7333.9451 2.0134 3.1348 4.8399-1.263 4.7798 3.9053-.0344 2.958-.1391 2.5095 3.7499 5.5024z"/>
 <path class="fil4 str2" d="m184.72 209.6c-7.1797-3.0426-8.2087-7.1309-15.655-6.3565"/>
 <polyline class="fil4 str2" points="174.54 206.4 176.9 204.93 174.9 202.56"/>
 <polyline class="fil4 str2" points="171.12 204.15 172.18 203.23 171.47 202.92"/>
 <path class="fil2 str2" d="m176.08 176.35-1.8169-2.3052c1.6481-1.1332 3.5989-.1326 1.8169 2.3052z"/>
 <path class="fil2 str2" d="m178.4 175.87-.7016.5102c-15.442-23.111-8.6277-22.136-7.88-20.656 1.7446 3.453 2.6309.2383 3.6282 2.7905 1.0753 2.7517 2.0687.3089 2.2987 2.7287.4479 4.7124 3.0641.607 2.6192 4.2573-.6977 5.7245-.2003 7.7144.0355 10.369z"/>
 <path class="fil2 str2" d="m178.4 175.87-.7289.4733c-1.4381-3.436-2.4625-2.9599-5.0324-2.689-3.7462.3949-.7138-2.8003-2.7268-2.6646-1.3172.0888-1.2654 1.1713-3.3386 1.2524-2.4935.0975-.7777-3.7786-1.5535-4.2347-1.1901-.6998-2.0922 1.243-3.4423.7548-2.3293-.8424 1.4777-2.9455-1.1084-3.4118-2.2432-.4045-2.5712-3.4357 1.4212-2.5323 1.9276.4362 1.3414-2.7792 3.9234-1.4106 2.9479 1.5625 2.8047-1.0021 4.0604.7322 3.1589 4.363 3.0897.6153 4.4227 2.5811 2.7013 3.9834.692 5.1516 4.1032 11.149z"/>
 <path class="fil2 str2" d="m174.34 174.16 1.6544 2.0832c-2.304 1.8166-3.926-.3968-1.6544-2.0832z"/>
 <path class="fil2 str2" d="m177.78 187.02-9.189-2.0817c-.2084-1.1919-1.0203-1.7768-1.3355-2.4599-1.9389-4.2014 3.3642-.1085 1.0108-4.3342-1.0396-1.8667.8761-2.949 1.6613-1.8818 3.1637 4.2999 3.1073-1.7743 4.9429 1.9357 1.9668 3.9751 3.935 4.2219 2.9095 8.8219z"/>
 <path class="fil4 str2" d="m170.72 179.3c2.5317 2.7962 3.6029 4.6089 4.785 7.2109"/>
 <path class="fil2 str2" d="m181.87 189.57-.2868 1.1472c-1.471-.1262-2.2801-.1296-3.6743.8566-1.8982 1.3427-1.4382-1.5079-4.9388.8385-2.9927 2.006-3.3088-1.5448-5.2326-1.5182-4.3734.0605-2.6523-2.9401-.968-3.2795 2.6213-.5283.2596-3.7782 3.2021-2.8078 6.3402 2.091 2.4763-1.426 5.5565-.3534 2.5134.8752 2.4932 4.2465 6.3419 5.1166z"/>
 <path class="fil4 str2" d="m181.7 190.13c-5.1027-1.2692-7.2844-2.3866-13.011-1.1108"/>
 <polyline class="fil4 str2" points="175.2 189.28 176.84 188.88 175.79 188.1"/>
 <polyline class="fil4 str2" points="170.73 189.34 171.98 188.49 170.86 188.23"/>
 <path class="fil4 str2" d="m165.87 164.99c5.9346 4.8287 8.1475 3.0393 12.176 11.125"/>
 <polyline class="fil4 str2" points="166.73 164.36 167.52 166.24 165.99 166.09"/>
 <polyline class="fil4 str2" points="169.74 166.49 172.11 168.99 168.9 169.14"/>
 <path class="fil2 str2" d="m189.21 151.49-15.172-4.8694c-7.7545 4.3667-1.0003 3.2914-3.5206 5.224-.8657.6638-1.1175 3.6972 2.8831 1.9593 3.7349-1.6226 1.1567 2.1772 5.0817 1.5849 6.3654-.9606 1.9746-5.5302 10.728-3.8988z"/>
 <path class="fil2 str2" d="m189.83 151.78.0563-1.5201c-2.4139-.9906-3.9996-3.6134-5.3757-6.501-.8083-1.696-1.7456 1.5857-4.514-3.0519-1.2617-2.1135-1.7833.1982-5.4888-1.6528-2.5333-1.2654-2.5386 1.6785-5.8236 1.2245-5.2942-.7317-4.3335 5.1273-.9344 4.9013 5.8535-.3892-.112 5.9101 5.8261 4.3362 8.4979-2.2524.6801 4.8861 7.4892 3.2445 5.0256-1.2117 6.1499-1.1647 8.7649-.9807z"/>
 <path class="fil4 str2" d="m172.06 143.2c6.6802-.3945 10.87 6.3206 17.791 7.8149"/>
 <polyline class="fil4 str2" points="175 145.06 179.26 145.38 177.76 142.7"/>
 <polyline class="fil4 str2" points="180.69 150.22 183.53 148.16 182.35 146.66"/>
 <path class="fil2 str2" d="m185.09 135.26.1883-.6343-9.7868-4.6803c-.9056-.1978-1.9849.3631-2.8398.2766-3.0692-.3105-2.9048-2.0364-4.7129-2.0125-1.5562.0206-.8757 2.4451-1.8679 2.7666-2.1786.706-2.8459 2.5395 2.1645 2.9438 2.9413.2373 2.9362 3.0562 6.5244 1.1876 3.7375-1.9464 3.9889-1.7369 10.33.1525z"/>
 <path class="fil4 str2" d="m176.01 132.24c-1.5465-.0663-2.2135.4961-5.2155-.3591"/>
 <path class="fil2 str2" d="m185.32 134.6-.2628.7008c-5.552-2.2571-8.3771-2.9618-10.195-3.3178-2.7423-.5371.8269-1.9264-2.6363-3.755-2.4815-1.3103 1.0007-3.1815-.4202-5.6035-.9713-1.6556.7085-3.6194 2.1575-1.7386 1.894 2.4584 5.1206-1.3009 5.2645 2.2834.2872 7.1548 2.7124 1.8222 3.8184 4.4336.7856 1.8548-1.5245 4.4955 2.2735 6.9971z"/>
 <path class="fil4 str2" d="m185.17 134.93c-9.7942-5.8995-6.8601-7.2241-10.55-11.043"/>
 <polyline class="fil4 str2" points="176.54 130.79 178.91 130.3 178.32 127.68"/>
 <polyline class="fil4 str2" points="174.57 127.39 176.74 126.99 176.74 125.32"/>
 <path class="fil2 str2" d="m186.31 124.5-.733-.2818 7.7149-14.327c5.0763-4.4707 6.072-.7095 5.0746.2605-1.8466 1.7959-.106 3.4588-1.869 4.1083-4.1809 1.5403.1772 3.2005-2.8251 3.944-4.5774 1.1336-5.8469-.0947-7.3624 6.2959z"/>
 <path class="fil2 str2" d="m186.31 124.48-.7319-.2815c1.7633-8.6365-3.4455-10.396-3.769-12.58-.5426-3.6627 3.1968.0277 2.5771-4.5715-.6413-4.7602 3.6861-.9282 5.0246-4.0654 1.1698-2.7418 4.1558-3.0363 3.5777.0657-.3138 1.6838.9814 2.393.5211 3.9006-1.2532 4.1045.1176 6.3518-1.3045 8.1246-3.3796 4.213-4.3314 4.6644-5.8951 9.4075z"/>
 <path class="fil4 str2" d="m185.97 124.37c2.5523-9.7774 1.1636-10.828 3.4906-16.946"/>
 <polyline class="fil4 str2" points="189.8 113.5 187.66 115.59 187.34 113.67"/>
 <path class="fil4 str2" d="m189.68 109.17c-.1689.0563-.2252.1689-.3378.2252l-.7319.563-.3007-.9573"/>
 <path class="fil4 str4" d="m191.17 135.46c4.7835.6981 5.6904 5.0712 7.4311 6.6756"/>
 <path class="fil4 str4" d="m194.74 140.55c.0843-2.4349-1.1139-4.8645-3.6826-5.1074-4.8715-.4606-6.4262 1.7432-5.5027 3.5928"/>
 <path class="fil2 str2" d="m187.69 135.92.5088.7556c2.7055-1.2691 3.5096-1.8944 8.3825-1.6378 2.2208.1169 1.0254-1.885 3.4452-1.8327 2.6895.0581 1.0528-1.9503 2.6659-3.7848 1.7788-2.0231.1673-5.2452-6.5776-.4291l-8.4248 6.9288z"/>
 <path class="fil2 str2" d="m188.2 136.68-.5344-.7348c4.1993-4.6927 1.5408-6.3261 2.4924-10.995.5313-2.6067 1.9951.6976 3.2835-3.2538.727-2.2297 3.1953-.7754 4.5882-1.8306 1.0333-.7828 2.6388-.1768 2.1321 1.8115-.9012 3.5364 1.6072 4.799-.948 6.2705-3.5186 2.0263-.0247 3.9749-2.4144 4.8841-4.4345 1.6872-5.7443 1.2255-8.5994 3.8479z"/>
 <path class="fil4 str2" d="m197.56 122.85c-2.8972 5.5284-4.9667 9.0351-9.6192 13.494"/>
 <polyline class="fil4 str2" points="197.42 126.32 194.62 128.19 194.68 124.18"/>
 <polyline class="fil4 str2" points="192.55 127.79 192.48 131.26 195.15 130.33"/>
 <path class="fil4 str4" d="m185.9 141.01c-1.1744-1.1951-1.8436-2.3687.0271-4.4668"/>
 <path class="fil2 str2" d="m186.33 124.48c.1949 4.5638-.2436 10.458 1.3354 11.472l.5463.7284c.6836 2.8256 1.6236 5.1493 2.4887 5.9486l-1.4116 2.14c-1.0368-3.5194-3.2582-8.1227-4.2335-9.4847l.2428-.6677c.6535-.2621-.1535-6.8583.3035-10.44l.7284.3035z"/>
 <polyline class="fil4 str2" points="184.45 120.98 185.12 120.9 186.15 123.65"/>
 <line class="fil4 str2" x1="181.87" x2="184.38" y1="194.53" y2="193.91"/>
 <path class="fil2 str2" d="m173.32 229.14-2.7096 1.4956c.8762 1.5272 3.5291.4391 2.7096-1.4956z"/>
 <path class="fil2 str2" d="m170.73 230.57 2.4686-1.3531c-1.2905-3.0164-3.9236-1.5404-2.4686 1.3531z"/>
 <path class="fil3 str3" d="m218.7 236.78c1.3013-.2853 3.0004-.8798 5.35-2.8583 2.6371-2.2205 4.6608-.0903 5.5653 1.33 1.6677 2.6187.3855 4.7033 1.6536 6.9781l.0577.1284c.0297-.0894.0577-.1787.0816-.2679.8783-3.2744.7185-7.2749 5.2037-7.0259 5.0733.2818 3.726 3.1742 11.388 3.2054 7.6624-.0312 6.3153-2.9236 11.389-3.2054 4.4852-.249 4.3254 3.7515 5.2037 7.0259.0239.0892.0519.1785.0816.2679l.0577-.1284c1.2681-2.2748-.0141-4.3594 1.6536-6.9781.9045-1.4203 2.9282-3.5505 5.5653-1.33 2.3496 1.9785 4.0487 2.573 5.35 2.8583v3.2806c-1.4625.8542-3.0105 2.7339-3.1278 5.2821-.1297 2.8202.1011 6.3681-5.5477 9.0433-2.4635 1.1667-4.6069 1.6925-7.3434.7959-1.1476-.376-2.0657-1.5646-2.103-2.5901l-6e-4-1e-4-1e-4-.0245c-4e-4-.0194-6e-4-.0388-4e-4-.0581-.0169-1.4095-.4594-3.4134-.9046-3.9845l1e-4-2e-4c-2.591.375-6.8517.6992-10.149.715v8e-4l-.1244-2e-4-.1242 2e-4v-8e-4c-3.297-.0158-7.5575-.34-10.149-.715l1e-4 2e-4c-.4452.5711-.8877 2.575-.9046 3.9845 2e-4.0193 0 .0387-4e-4.0581l-1e-4.0245-6e-4 1e-4c-.0373 1.0255-.9554 2.2141-2.103 2.5901-2.7365.8966-4.8799.3708-7.3434-.7959-5.6488-2.6752-5.418-6.2231-5.5477-9.0433-.1173-2.5482-1.6653-4.4279-3.1278-5.2821v-3.2806z"/>
 <path class="fil4 str4" d="m303.56 234.24c-7.1728 8.7015-10.505 4.6528-17.678 4.2854-2.1341-.1093-4.277 1.2589-5.1279-.1127-1.5693-2.5296-3.5772-.0844-8.8039-4.4856"/>
 <path class="fil3 str3" d="m187.5 233.03 4.9415 1.2073c1.314 2.0414 2.2723 1.4446 4.8057 3.3233 1.4964 1.1098 2.0997 3.4001 5.2091 3.5542 3.833.19 3.3354-2.3704 7.6636-2.5921 2.1341-.1093 4.277 1.2589 5.1279-.1127.8638-1.3925 1.8605-1.278 3.4539-1.6273v3.2806c-1.1487-.6709-2.2446-.7092-2.5537.0584-.9631 2.3917.8773 2.6015.7319 4.2788-.2634 3.0381-2.4007 4.0041-3.6558 4.1344-4.5162.4688-6.169 1.761-7.755 3.3999-.5044.5213-4.6513 3.1659-7.6575.8941-2.2131-1.6723-6.4938-5.1966-7.6372-7.5273-2.6436-5.3887-7.0988-4.7069-8.8017-8.9125l6.1273-3.3591z"/>
 <path class="fil4 str4" d="m181.64 236.98c1.9777 3.7823 12.362 12.978 16.169 15.855 3.0062 2.2718 7.1531-.3728 7.6575-.8941 1.586-1.6389 3.2388-2.9311 7.755-3.3999 1.2551-.1303 3.3924-1.0963 3.6558-4.1344.1454-1.6773-1.695-1.8871-.7319-4.2788.2634-.6543 1.0989-.7231 2.0513-.3136"/>
 <path class="fil4 str4" d="m192.44 234.24c7.1728 8.7015 10.505 4.6528 17.678 4.2854 2.1341-.1093 4.277 1.2589 5.1279-.1127 1.5693-2.5296 3.5772-.0844 8.8039-4.4856"/>
 <path class="fil2 str2" d="m205.38 240.42-1.9272-1.9272-14.279 4.0296c-.8451 1.4039-.7346 2.9569-1.6005 4.3795-2.0029 3.2905 1.0907.79.386 2.7659-.7423 2.0816-.4355 4.5815 1.4879 3.1283 2.3377-1.7662 2.7173.2614 3.9906-.0666 1.4825-.3819.9522-1.9504 1.8751-3.1791.5058-.6733 3.7185-.002 4.417-1.2492 1.1422-2.0394.8273-2.2176 2.7671-3.7003 1.111-.8493.3186-2.7376 2.8828-4.1809z"/>
 <path class="fil2 str2" d="m174.21 237.77 3.0838.0386c-.0626-1.8259-2.8938-2.6159-3.0838-.0386z"/>
 <path class="fil2 str2" d="m177.17 237.81-2.829-.0423c-.474 3.5447 3.0926 3.8945 2.829.0423z"/>
 <path class="fil2 str2" d="m172.7 233.43 7.8936-1.1932c.0354.4428.0852.9182.1495 1.4279l-7.5832.9479-.4599-1.1826z"/>
 <line class="fil4 str2" x1="172.64" x2="174.34" y1="231.18" y2="233.17"/>
 <path class="fil2 str2" d="m209.23 246.04-3.9858-.1752c.2191-2.2995 3.307-4.9494 3.9858.1752z"/>
 <path class="fil4 str2" d="m209.18 241.02c-.7401.5001-1.2297 1.1342-1.5794 2.086"/>
 <path class="fil4 str2" d="m191.79 248.62c3.3336-4.4387 7.3319-6.0386 12.64-9.1415"/>
 <line class="fil4 str2" x1="175.58" x2="175.66" y1="236.12" y2="234.29"/>
 <line class="fil4 str2" x1="200.65" x2="200.26" y1="241.61" y2="244.07"/>
 <path class="fil2 str2" d="m205.38 245.88 3.6931.1623c.5947 4.5103-4.0239 4.7391-3.6931-.1623z"/>
 <path class="fil2 str2" d="m218.87 240.77c-1.1432-.1728-2.0733-.8246-2.7156-2.285l-1.1388.1752 1.0564 1.8764c-2.2931-.0218-3.6379-.8226-4.0348-2.402h-1.4892c1.0124 2.6021-8.334-2.7095-9.2152-7.6036l-.6142-.6842c-3.3343-1.3553-5.6935-5.1551-7.3559-7.7192-.1314.0938-.2383.179-.3134.256-.418.4289-.7452.976-.9962 1.5994 3.3212 5.4283 8.1588 6.9004-.525 6.9505.0806.5946.1849 1.1482.3034 1.6349 5.9516-.2054 6.4613-1.6271 7.7333.051 1.206 1.591 5.3577 5.8859 3.9296 5.8536l1.8684 1.9376c1.5936-.681 2.4192.1767 3.8142.6078 5.6754 1.7538 9.2018 2.0751 12.2 2.2124-.3969-.9965-1.0103-1.8203-1.6813-2.4342l-.8258-.0266z"/>
 <path class="fil3 str3" d="m197.99 201.8c.6622 1.7816 1.5329 3.0656 1.8109 4.7193.8892 5.2901.2636 10.045-2.7495 12.956-1.3797 1.4155-3.4746 2.3737-4.0043 2.9171-2.6576 2.7265-1.6568 10.218-.6058 11.85l-4.9416-1.2073-6.1272 3.3591c-.2432-.6008-.4305-1.3013-.548-2.1335-.159-1.1255-.2504-2.0898-.2833-2.9256-.2305-5.8508 2.4016-5.4175 4.7101-10.121.9631-1.9621-.6916-4.9489 2.5623-8.7381.9283-1.081 1.9435-1.5253 2.8779-2.026-.5725-3.5929 2.2702-3.3943 1.3383-4.3374-.9039-.9147-1.7162-2.3634-2.314-4.0976l8.2742-.2153z"/>
 <path class="fil4 str4" d="m186.15 185.04c1.8338 1.7166 3.7016 2.4066 3.5908 3.7921-.1737 2.1704-1.1791 1.72-1.052 7.364.0927 4.1135 1.5338 8.0787 3.3416 9.9082.9319.9431-1.911.7445-1.3382 4.3378"/>
 <path class="fil2 str2" d="m216.18 238.46c.942-3.3227 3.9032-3.0919 4.1672-4.9282.3593-2.4988-1.7422-1.4407-1.8156-3.1752-.0881-2.0821 2.6869-2.1362 1.8255-6.0321l-12.844-2.3132 7.4586 16.67 1.208-.2218z"/>
 <path class="fil2 str2" d="m212.03 238.14c.3133-2.7106 4.7282-2.4311 4.6047-4.4116-.1386-2.2232-3.8724-1.2491-4.0484-3.5275-.1489-1.9266 2.2406-2.7089.9829-5.492l-5.8316-2.2493c-4.4971 1.1584-5.1283 3.3227-1.1002 7.7157.9389 1.024-2.2223 1.5897-1.5759 3.047.6457 1.4558 2.876-.7506 5.4793 4.9177h1.4892z"/>
 <path class="fil4 str2" d="m211.28 238.12c-.5742-4.4091-1.5086-8.5031-2.6826-12.387"/>
 <path class="fil2 str2" d="m203.45 238.49 1.278 1.278c-4.0337.6679-4.1678 1.4837-6.6982 4.1751-3.5197 3.7437-2.9764-3.5643-5.1113-1.1761-1.4374 1.6079-1.3149 4.9714-3.5618 4.9498-2.2212-.0214-.1855-5.1972-2.3889-3.7507-1.9215 1.2614-3.1955 3.795-4.8869 3.4822-1.38-.2552-1.7222-3.9708-.4209-5.3765 1.7721-1.9143-1.8065-1.3622-.3764-3.8394.5036-.8724 3.4669-.3976 4.6342-1.0154 1.1267-.5963-.7464-3.1657 1.8809-3.376 2.639-.2112 2.2493 2.2734 3.8582 2.3563 1.4717.0759 2.2156-2.42 4.9179-.1032 3.3908 2.9071 4.3337 1.989 6.8752 2.3959z"/>
 <path class="fil4 str2" d="m203.46 238.46c-9.2684-1.1175-15.776.2629-19.523 4.1412"/>
 <path class="fil4 str2" d="m187.88 236.88c1.3804.3944 2.7608 1.1832 4.0426 1.6762l-2.0706 3.7468"/>
 <polyline class="fil4 str2" points="194.68 237.08 196.16 238.16 195.57 240.71"/>
 <path class="fil3 str3" d="m186.78 140.37c.9124.6146 2.2265 1.0251 3.8801 1.0048 1.9303-.0236.3372 1.7944 1.6868 4.2379-.9441.809-1.9014 1.7275-2.3211 4.2162-2.2119-1.3604-.2269-3.9434-1.8998-6.4344l-1.346-3.0245z"/>
 <path class="fil4 str4" d="m218.2 239.81c1.5872.6824 3.4995 2.6938 3.6302 5.5373.1297 2.8201-.1011 6.3681 5.5477 9.0433 2.4635 1.1667 4.6069 1.6925 7.3434.7959 1.8682-.6121 3.1298-3.3772.9697-4.0877-.9091-.299-2.2431-.1168-3.7001-.8378-1.5791-.7814-1.7159-2.827-1.1493-3.3128 1.2025-1.0311 2.6869.5853 5.1226 1.2491"/>
 <path class="fil4 str4" d="m224.05 233.92c2.6371-2.2205 4.6608-.0903 5.5653 1.33 1.6677 2.6187.3855 4.7033 1.6536 6.9781"/>
 <path class="fil4 str4" d="m196.82 219.68c3.2066-2.8884 3.8848-7.7468 2.9738-13.166-.4449-2.6462-2.4067-4.3452-2.6046-8.6512"/>
 <path class="fil4 str4" d="m233.98 250.83c-9.6521-1.2028-3.5538-5.0872-2.5752-8.7352.8783-3.2744.7187-7.2749 5.2037-7.0259 5.1009.2831 3.5853 3.2054 11.388 3.2054s6.2877-2.9223 11.389-3.2054c4.485-.249 4.3254 3.7515 5.2037 7.0259.9786 3.648 7.0769 7.5324-2.5752 8.7352"/>
 <path class="fil4 str4" d="m236.82 252.6c0-1.4125.4511-3.4848.9051-4.0671"/>
 <line class="fil4 str4" x1="192.21" x2="193.51" y1="206.46" y2="206.88"/>
 <path class="fil2 str2" d="m187.3 197.19c6.0411 6.4214 10.327.6925 19.399 4.7676-8.0151-2.8766-3.127-11.943-19.07-7.8912l-.3288 3.1236z"/>
 <path class="fil4 str2" d="m200.94 198.95c-2.143-1.6733-4.466-3.0225-6.9531-4.0764"/>
 <path class="fil2 str2" d="m184.57 206.84c.055.5506 1.9821 2.8916 3.7719 5.0902-.1777.1616-.3532.3409-.526.5421-.2844.3312-.5308.6559-.7453.9747l-.7997-1.3611-.9669-1.4147-.9105-1.6996-1.1533-.8498c-4.0222-3.3489 5.9655-13.548-1.6439-17.418l.2628-1.1388c1.2274.4241 3.5871 3.5134 2.1462-1.2702-.9833-3.2643-3.7084-5.8254-6.351-11.957l.7446-.4818c2.4367 3.983 5.602 9.6206 6.4118 8.7722l.1456-.8984 1.2449 1.3613-.1024.6464.7973-.6835.7176 1.0743c-1.786 2.6208-1.396 4.889-1.2189 7.3851l-3.1548 10.038.0389 3.1924 1.2911.0967z"/>
 <path class="fil4 str4" d="m196.77 200.92c-.6421 1.8886-1.7681 3.2955-1.7904 6.2154-.0381 5.0016 3.7813 5.6823 3.3067 10.026-.298 2.7277-4.4604 4.422-5.2391 5.2209-2.6576 2.7265-1.6568 10.218-.6058 11.85"/>
 <path class="fil4 str4" d="m194.41 205.58c-.4628-.0664-.6612.2665-.809.9265-.9834 4.3913-3.6212 3.4473-5.786 5.9683-3.2539 3.7892-1.5992 6.7759-2.5623 8.7381-2.6385 5.3753-5.6994 4.0414-4.4268 13.046.158 1.1181.4415 1.9985.8181 2.7187"/>
 <path class="fil4 str4" d="m190.02 149.82c-2.2119-1.3604-.2267-3.9433-1.8998-6.4344-.6289-.9366-1.5155-1.6613-2.2201-2.3782"/>
 <path class="fil4 str4" d="m185.55 139.04c.6319 1.2654 2.4242 2.3649 5.1082 2.3317 1.9307-.0239.3416 1.7906 1.6912 4.2341"/>
 <path class="fil2 str2" d="m184.57 206.85c-.4355.9292-1.2947.6393-1.7575-.1406.3242-4.3983 1.6767-7.8685 3.2573-12.479.997-2.9081 3.2315.1606 3.9576-6.6855.4162-3.9242 2.2932.852 6.1465-4.5834 1.5128-2.134 4.6662-1.2058 4.0437.2873-2.0895 5.0117 3.2579 4.2246-.6766 6.5753-5.3885 3.2196.7146 5.745-4.8549 6.2829-10.81 1.0442-9.947 7.4309-10.116 10.743z"/>
 <path class="fil4 str2" d="m184.51 198.86c3.3682-8.3822 5.8405-.4459 13.007-14.428"/>
 <polyline class="fil4 str2" points="198.45 187.56 195.56 187.95 195.51 186.95"/>
 <polyline class="fil4 str2" points="195.12 192.06 192.06 192.23 193.34 189.51"/>
 <path class="fil4 str4" d="m230.66 240.33c-.4143.3638-.1996.9722-.6969 1.1176"/>
 <path class="fil4 str4" d="m222.72 243.97c-.5072.2543-.4933.3797-.9399.8462"/>
 <path class="fil2 str2" d="m247.4 249.24c-7.599 5.8494-15.445 10.213-17.193 15.405l-4.8594-.8528c8.3338-10.027 10.163-9.0164 18.374-14.692 1.2827.0853 2.5087.1319 3.6778.1403z"/>
 <ellipse class="fil2 str2" transform="matrix(-.98892 -.14072 -.10674 .6739 227.76 264.23)" rx="2.4824" ry="1.044"/>
 <path class="fil4 str4" d="m277.8 239.81c-1.5872.6824-3.4995 2.6938-3.6302 5.5373-.1297 2.8201.1011 6.3681-5.5477 9.0433-2.4635 1.1667-4.6069 1.6925-7.3434.7959-1.8682-.6121-3.1298-3.3772-.9697-4.0877.9091-.299 2.2431-.1168 3.7001-.8378 1.5791-.7814 1.7159-2.827 1.1493-3.3128-1.2025-1.0311-2.6869.5853-5.1226 1.2491"/>
 <path class="fil4 str4" d="m273.28 243.97c.5072.2543.4933.3797.9399.8462"/>
 <path class="fil4 str4" d="m259.18 252.6c0-1.4125-.4511-3.4848-.9051-4.0671"/>
 <path class="fil2 str2" d="m248.6 249.24c7.599 5.8494 15.445 10.213 17.193 15.405l4.8594-.8528c-8.3338-10.027-10.163-9.0164-18.374-14.692-1.2827.0853-2.5087.1319-3.6778.1403z"/>
 <ellipse class="fil2 str2" transform="matrix(.98892 -.14072 .10674 .6739 268.24 264.23)" rx="2.4824" ry="1.044"/>
 <path class="fil4 str4" d="m235.96 248.2c1.8464.5032 7.7707 1.0473 12.038 1.0473s10.192-.5441 12.039-1.0473"/>
 <path class="fil4 str4" d="m271.95 233.92c-2.6371-2.2205-4.6608-.0903-5.5653 1.33-1.6677 2.6187-.3855 4.7033-1.6536 6.9781"/>
 <path class="fil4 str4" d="m265.34 240.33c.4143.3638.1996.9722.6969 1.1176"/>
 <path class="fil2 str2" d="m290.62 240.42 1.9272-1.9272 14.279 4.0296c.8451 1.4039.7346 2.9569 1.6005 4.3795 2.0029 3.2905-1.0907.79-.386 2.7659.7423 2.0816.4355 4.5815-1.4879 3.1283-2.3377-1.7662-2.7173.2614-3.9906-.0666-1.4825-.3819-.9522-1.9504-1.8751-3.1791-.5058-.6733-3.7185-.002-4.417-1.2492-1.1422-2.0394-.8273-2.2176-2.7671-3.7003-1.111-.8493-.3186-2.7376-2.8828-4.1809z"/>
 <path class="fil4 str2" d="m304.21 248.62c-3.3336-4.4387-7.3319-6.0386-12.64-9.1415"/>
 <line class="fil4 str2" x1="295.35" x2="295.74" y1="241.61" y2="244.07"/>
 <path class="fil2 str2" d="m277.13 240.77c1.1432-.1728 2.0733-.8246 2.7156-2.285l1.1388.1752-1.0564 1.8764c2.2931-.0218 3.6379-.8226 4.0348-2.402h1.4892c-1.0124 2.6021 8.334-2.7095 9.2152-7.6036l.6142-.6842c3.3343-1.3553 5.6935-5.1551 7.3559-7.7192.1314.0938.2383.179.3134.256.418.4289.7452.976.9962 1.5994-3.3212 5.4283-8.1588 6.9004.525 6.9505-.0806.5946-.1849 1.1482-.3034 1.6349-5.9516-.2054-6.4613-1.6271-7.7333.051-1.206 1.591-5.3577 5.8859-3.9296 5.8536l-1.8684 1.9376c-1.5936-.681-2.4192.1767-3.8142.6078-5.6754 1.7538-9.2018 2.0751-12.2 2.2124.3969-.9965 1.0103-1.8203 1.6813-2.4342l.8258-.0266z"/>
 <path class="fil2 str2" d="m279.82 238.46c-.942-3.3227-3.9032-3.0919-4.1672-4.9282-.3593-2.4988 1.7422-1.4407 1.8156-3.1752.0881-2.0821-2.6869-2.1362-1.8255-6.0321l12.844-2.3132-7.4586 16.67-1.208-.2218z"/>
 <path class="fil2 str2" d="m283.97 238.14c-.3133-2.7106-4.7282-2.4311-4.6047-4.4116.1386-2.2232 3.8724-1.2491 4.0484-3.5275.1489-1.9266-2.2406-2.7089-.9829-5.492l5.8316-2.2493c4.4971 1.1584 5.1283 3.3227 1.1002 7.7157-.9389 1.024 2.2223 1.5897 1.5759 3.047-.6457 1.4558-2.876-.7506-5.4793 4.9177h-1.4892z"/>
 <path class="fil4 str2" d="m284.72 238.12c.5742-4.4091 1.5086-8.5031 2.6826-12.387"/>
 <path class="fil2 str2" d="m292.55 238.49-1.278 1.278c4.0337.6679 4.1678 1.4837 6.6982 4.1751 3.5197 3.7437 2.9764-3.5643 5.1113-1.1761 1.4374 1.6079 1.3149 4.9714 3.5618 4.9498 2.2212-.0214.1855-5.1972 2.3889-3.7507 1.9215 1.2614 3.1955 3.795 4.8869 3.4822 1.38-.2552 1.7222-3.9708.4209-5.3765-1.7721-1.9143 1.8065-1.3622.3764-3.8394-.5036-.8724-3.4669-.3976-4.6342-1.0154-1.1267-.5963.7464-3.1657-1.8809-3.376-2.639-.2112-2.2493 2.2734-3.8582 2.3563-1.4717.0759-2.2156-2.42-4.9179-.1032-3.3908 2.9071-4.3337 1.989-6.8752 2.3959z"/>
 <path class="fil4 str2" d="m292.54 238.46c9.2684-1.1175 15.776.2629 19.523 4.1412"/>
 <path class="fil4 str2" d="m308.12 236.88c-1.3804.3944-2.7608 1.1832-4.0426 1.6762l2.0706 3.7468"/>
 <polyline class="fil4 str2" points="301.32 237.08 299.84 238.16 300.43 240.71"/>
 <path class="fil3 str3" d="m298.66 163.58c.1482 1.399.2901 2.6663.5029 3.4968.1367.5336 1.6474 3.6057 3.0245 3.0902.6093-.228.1187-1.0907.5316-2.0752l-.0022-.0013.0048.0028c.0975.0564.195.1135.2922.1712l.0119.0071c.0902.0536.1801.1077.2697.1623l.0505.0307c.0911.0557.1818.1117.2724.1684l.0058.0036.0052.0033 5e-4 3e-4c.0866.0543.1729.1091.259.1642l.0765.0492c.0644.0415.1287.0835.1928.1256l.113.0745c.0664.044.1325.0882.1986.1327l.0999.0677c.0613.0417.1226.0836.1835.1258l.1294.0902.1023.0719.051.036c.0526.0372.105.0748.1573.1124l.0967.0698.0506.0367.0967.0708.004.0029.0503.0372.1068.0792.1302.0977.0126.0095.0496.0377.0906.069.1338.1031.0219.017v1e-4c4.6761 3.6334 7.8611 8.5078 5.6012 12.531 2.1086-3.6857 1.0467-9.2146 1.9898-11.501 1.4392-3.4887 4.4884-5.8641.263-8.8105-4.578-3.1922-6.5951-3.9459-7.3329-6.312h-9.3669c.8769 1.5038 1.1846 4.6699 1.4689 7.352z"/>
 <path class="fil4 str4" d="m302.72 168.09c6.5018 3.7562 12.036 10.243 8.6262 15.236-.4639.6794-.9748 1.2405-1.4883 1.7212"/>
 <path class="fil4 str4" d="m296.94 155.86c1.5816 1.919 1.562 8.6447 2.2193 11.209.1367.5336 1.6474 3.6057 3.0245 3.0902.6093-.228.1187-1.0907.5316-2.0752.8163-1.9466 1.9096-3.1681 3.0578-4.3529"/>
 <path class="fil4 str4" d="m311.34 183.32c2.5022-3.6684 1.3003-9.5892 2.2849-11.976 1.4392-3.4887 4.4884-5.8641.263-8.8105-6.1943-4.3193-7.7007-4.1737-7.6923-9.5995.0146-9.471-4.6956-5.5482-4.9323-12.382"/>
 <path class="fil2 str2" d="m190.02 183.3c3.0755-.9829 8.2506.449 25.11-6.5132-18.67-4.446-17.695-3.0928-25.11 6.5132z"/>
 <path class="fil2 str2" d="m192.49 170.2-.3428 10.29c-.9059-.6277-5.5481-14.564.3428-10.29z"/>
 <path class="fil2 str2" d="m187.59 186.1-.7008-1.0512c3.3024-3.1616 4.3631-3.3955 4.5944-6.9558.1691-2.6019-.9187-6.1709-.1803-7.9151 2.658-6.2783 2.8861 3.8682 4.8069-2.133 1.4249-4.4522 2.5217-5.4697 4.3323-4.1591.8405.6085.9344 2.7925-.3176 5.5341-2.1761 4.7653 2.9292 2.5312-.4103 6.551-3.1398 3.7794-8.9255 5.9419-12.125 10.129z"/>
 <path class="fil4 str2" d="m195.82 173.53c-1.4266 5.9532-4.8913 8.5095-8.5747 12.047"/>
 <path class="fil3 str3" d="m197.34 163.58c-.1482 1.399-.2901 2.6663-.5029 3.4968-.1367.5336-1.6474 3.6057-3.0245 3.0902-.6093-.228-.1187-1.0907-.5316-2.0752l.0022-.0013-.0048.0028c-.0975.0564-.195.1135-.2922.1712l-.0119.0071c-.0902.0536-.1801.1077-.2697.1623l-.0505.0307c-.0911.0557-.1818.1117-.2724.1684l-.0058.0036-.0052.0033-5e-4 3e-4c-.0866.0543-.1729.1091-.259.1642l-.0765.0492c-.0644.0415-.1287.0835-.1928.1256l-.113.0745c-.0664.044-.1325.0882-.1986.1327l-.0999.0677c-.0613.0417-.1226.0836-.1835.1258l-.1294.0902-.1023.0719-.051.036c-.0526.0372-.105.0748-.1573.1124l-.0967.0698-.0506.0367-.0967.0708-.004.0029-.0503.0372-.1068.0792-.1302.0977-.0126.0095-.0496.0377-.0906.069-.1338.1031-.0219.017v1e-4c-4.6761 3.6334-7.8611 8.5078-5.6012 12.531-2.1086-3.6857-1.0467-9.2146-1.9898-11.501-1.4392-3.4887-4.4884-5.8641-.263-8.8105 4.578-3.1922 6.5951-3.9459 7.3329-6.312h9.3669c-.8769 1.5038-1.1846 4.6699-1.4689 7.352z"/>
 <path class="fil4 str4" d="m193.28 168.09c-6.5018 3.7562-12.036 10.243-8.6262 15.236.4639.6794.9748 1.2405 1.4883 1.7212"/>
 <path class="fil4 str4" d="m199.06 155.86c-1.5816 1.919-1.562 8.6447-2.2193 11.209-.1367.5336-1.6474 3.6057-3.0245 3.0902-.6093-.228-.1187-1.0907-.5316-2.0752-.8163-1.9466-1.9096-3.1681-3.0578-4.3529"/>
 <path class="fil4 str4" d="m184.66 183.32c-2.5022-3.6684-1.3003-9.5892-2.2849-11.976-1.4392-3.4887-4.4884-5.8641-.263-8.8105 6.1943-4.3193 7.7007-4.1737 7.6923-9.5995-.0146-9.471 4.6956-5.5482 4.9323-12.382"/>
 <path class="fil5 str5" d="m202.92 123.26h90v91.342c0 6.0741-4.8759 10.977-10.95 10.977l-23.021.584c-5.6134 0-10.171 4.2068-10.83 9.6391h-.1661c-.6705-5.4323-5.3026-9.6391-10.916-9.6391l-23.022-.584c-6.0741 0-11.095-4.9025-11.095-10.977v-91.342z"/>
 <path class="fil6" d="m250.42 149.33c-6.2291-1.0602-6.1062-6.5682-4.771-10.992.622-2.0608 2.9384-6.2818 8.039-8.0385-5.9093-.3571-6.938 4.2376-7.9357 3.8311-.6533-.2662.2105-4.3919.9787-6.1537-3.2417 1.9847-2.3654 7.6707-2.5742 9.5415-.4987 4.4673-1.3686 5.0793-4.1643 1.5508-.9249-1.1674-1.1698-2.2319-1.5875-4.9965-1.6846 6.0377 3.9197 8.942 5.1838 11.244.5525 1.0061-.4765 1.6556-2.3233.8757-1.0415-.4398-1.2245-.6187-2.2109-2.1932 1.0639 5.5761 4.5889 2.0436 7.0005 6.1663.9357-.2318 1.8374-.2132 2.7051.0555l1.6598-.8905z"/>
 <path class="fil7 str6" d="m274.95 177.57.8895 1.2c.494-.2318 1.3329-.5891 1.3581-1.6358.0461-1.9171-.2901.3398-2.2423.4354-2.8727-2.4112-3.9289-4.0455-8.8977-3.9708-4.2874.0645-3.9215 1.474-7.2623 1.5953-2.1727.0788-2.3577-1.0532-5.5248-1.2116-2.0273-.1014-4.0061 1.4989-5.0545.5604-1.1107-.9941-1.124-3.8723-.2298-4.8863 4.9902-5.6594 4.8921-12.708 4.0391-16.171-.2336-.0408-.4774-.09-.7487-.1496 1.8859.4143 3.2446.5334 4.0356-1.6031.4342-1.1726-.0528-.998-.4956-.5181-.8523.9237-2.3893 1.1361-3.3151.8381-.9401-1.1995-2.4008-1.9834-3.8957-2.0356-2.976-.1039-2.4604 1.4004-6.2043 1.931l.1168.4763-.1168-.4763c-.7347.1041-1.6578.1777-2.8432.2025l-.5951 2.2229c3.7001.0507 4.9088 1.3586 1.2778 1.341-.5659-.0027-1.8529-.1928-1.418.5851.3532.6318.6553.2649 1.389.2452.6472-.0174 1.4971.0469 2.3887.1586.9054.1134 1.1421 1.4328 2.7229 1.6779 1.8483.2866 3.4454-.951 5.0518-3.098-1.6064 2.147-3.2034 3.3847-5.0518 3.098-.0484 2.0296-.5384 4.4264-3.2225 4.9269-1.0961.2043-9.949 1.8017-9.983 10.104-.0138 3.3604-.0549 3.3025.0581 5.1726.1188 1.9658.7363 3.2921 1.1586 4.6487-3.4166.7667-3.7193 1.2889-5.5008 1.7569-2.8612.7515-5.8318 1.0104-9.042.8327l-.6111.3997c-1.4847 3.5761-5.7972 6.1579-9.2558 9.1267l-.0542.2644c.3273 1.4208.0276 2.9702-.2162 4.2773l1.6829-.5854c-.0851-1.179.0876-2.2826.658-3.1843l.9004-.418c2.8042-3.1214 5.4813-5.1473 8.6086-7.4604 2.33-.8447 5.4674-.7783 7.3433-.4889 2.4973.3852 4.5655 2.1829 7.7729 2.8661-.2657-1.204-.2899-2.5275-.2359-3.5053-.054.9778-.0298 2.3013.2359 3.5053.2851 1.2918.5843 2.6576 1.0119 3.4736 1.4002 2.6717 1.7732 4.7041 1.4239 8.2167l.1559.4246c2.0304 2.8641 3.8344 5.9427 4.7555 10.452l.0156.2017c-.0574 1.2096-1.2268 3.2938-2.8797 5.1786l1.7108.4967c.8406-1.5554 2.2557-3.2183 3.7961-4.4492l.0274-.6313c-1.9608-3.7886-3.4345-8.1659-4.225-12.545l-.0992-.3971c-1.2535-2.4535-1.279-7.5477.8481-9.2318.6835-.5412.0933-5.1052.1399-7.6578-.0466 2.5526.5436 7.1166-.1399 7.6578 3.9657 3.5254 10.009.35 17.343-1.4864 1.833-.459 3.3403-1.0467 4.4935-1.6606-1.1532.6139-2.6603 1.2016-4.4935 1.6606-1.6529 1.4316-1.4691 6.1286.9318 14.767.0382 1.9564-2.8209 6.2751-5.2358 8.5229-.6902 2.1112-1.5941 3.4278-3.1393 4.9541l1.7108.4967c.7943-1.6762 1.923-2.7873 2.9433-3.3076l.6731-.6066c.5451-2.8385 3.89-6.9527 6.1721-9.663v-1.0564c-1.864-2.3698-1.9991-3.4104-2.0095-4.3095-.0332-2.8783 4.7022-2.8662 6.4774-6.9975-1.9671-1.1623-4.1442-3.8851-5.5779-7.7876 1.4337 3.9025 3.6108 6.6253 5.5779 7.7876 7.9138 4.676 10.661 5.9939 14.154 11.011 1.6803 2.4135 2.8628 6.0362 4.2346 10.123-.871 1.7874-1.7606 3.1185-2.8654 4.3094l1.7108.4967c.7199-1.0907 1.987-3.122 3.2756-3.2199l-.2793-1.4771c-1.8572-3.5727-2.5474-7.2227-2.9927-11.363l-.6029-1.098c-5.0336-3.094-8.7369-8.1049-8.0407-12.688.4662-3.0686 3.713-4.6636.2169-10.447l-.8895-1.2z"/>
 <ellipse class="fil6" cx="245.7" cy="152.74" rx=".7993" ry=".51422"/>
 <path class="fil4 str4" d="m297.4 142.13c-1.9126 1.7629-7.9052 4.6927-.4548 13.732"/>
 <path class="fil4 str4" d="m198.6 142.13c1.9126 1.7629 7.9052 4.6927.4548 13.732"/>
 <path class="fil8 str7" d="m238.57 152.14-.6033 2.2341c-.6174-3e-4-.8571-.8072-.8267-1.5991.0245-.6371.4677-.6499 1.43-.635z"/>
 <path class="fil6 str8" d="m252.73 220.71.0497-1.639-1.7108-.4967c-1.0087.4973-1.671 1.2033-2.2901 2.1357h3.9512z"/>
 <path class="fil6 str8" d="m240.77 220.71.0497-1.639-1.7108-.4967c-1.0087.4973-1.671 1.2033-2.2901 2.1357h3.9512z"/>
 <path class="fil6 str8" d="m284.22 220.71.0497-1.639-1.7108-.4967c-1.0087.4973-1.671 1.2033-2.2901 2.1357h3.9512z"/>
 <path class="fil6 str8" d="m210.25 200.68-.9081-1.3653-1.6826.5852c-.5347.9894-.6662 1.9485-.6313 3.0672l3.222-2.2871z"/>
 <path class="fil6" d="m248.76 150.22c.8678.2687 1.7016.7877 2.5014 1.557 3.9888-3.4782 9.3012-4.2361 11.654-8.9957 1.5477-3.1305 2.0137-11.086-.6496-15.638 1.538 11.343-.4956 14.642-3.0566 3.944-1.137 6.1837 4.2133 10.224.6061 13.473-1.9106 1.7208-3.2141-.3945-4.5501-5.4862-1.777 4.6751 1.7387 6.2191-.0105 8.0489-1.9557 2.046-4.4384 1.8701-4.8209-2.9217-1.1902 1.6349-.5965 3.5999-.0142 5.1283l-1.302-.1535-2.1431.0064 1.7853 1.0376z"/>
 <path class="fil9 str9" d="m251.4 93.1c1.3878-8.6897 2.4199-11.388 5.6555-16.344 19.035-2.6082 29.863 16.247 13.324 32.653l-17.805-3.0879-3.1747-7.2051 2.0002-6.0152z"/>
 <path class="fil9 str9" d="m244.6 93.1c-1.3878-8.6897-2.4199-11.388-5.6555-16.344-19.035-2.6082-29.863 16.247-13.324 32.653l17.805-3.0879 3.1747-7.2051-2.0002-6.0152z"/>
 <polygon class="fil2 str1" points="251.97 89.779 251.4 93.1 249.42 99.113 252.56 106.33 270.4 109.4 272.94 106.6 273.07 112.67 222.9 112.67 223.04 106.6 225.58 109.4 243.41 106.33 246.55 99.113 244.6 93.1 243.94 89.779"/>
 <path class="fil2 str1" d="m235.38 107.95c-.2445-13.45-1.4582-20.99-3.535-31.341 2.451-.3214 4.2947-.3034 6.4243-.1591 2.4455 8.4953 4.0864 20.583 4.073 30.855l-6.9623.6448z"/>
 <path class="fil2 str1" d="m231.63 101.87c1.6192-.2058 2.3202.181 2.8664 1.5129l.2739-.0489c.3154-2.0421.5448-2.4206 2.0573-3.192l-.0617-.4428c-1.6525-.2096-1.9755-.49-2.8422-2.3222l-.2738.0483c-.1497 1.4555-.7121 2.0626-2.3087 2.4277-.2618-2.4848.1566-3.5557 1.6498-4.3686l-.0603-.4206c-2.3099-.5204-2.7415-.8786-3.6396-3.2107l-.4979.0865c-.2062 2.5281-.517 3.018-2.5686 4.3124l.0595.4208c1.6453.2558 2.3405 1.1289 2.7815 3.582-1.6192.2059-2.3226-.1764-2.869-1.5084l-.2739.0488c-.3151 2.0421-.5444 2.4207-2.0571 3.1922l.0642.4421c1.6523.2096 1.9754.4902 2.8422 2.3225l.274-.0485c.1496-1.4555.7122-2.0626 2.3087-2.4275.0879 3.2591.0209 6.4654-1.7955 7.2343 2.5808-.7467 5.2524-1.2521 7.9994-1.5572-1.9405-.102-3.1775-2.9415-3.9286-6.0831z"/>
 <path class="fil2 str1" d="m220.32 105c2.0507 3.0857 2.232 4.8182 4.8734 5.3005-.9323.4178-2.0327 1.1368-2.2067 2.0599-1.0704-2.0981-1.9722-4.1149-3.5204-6.9907l.1618 1.3654c-1.1951-1.3058-1.797-3.1135-2.0888-4.7712l.997 1.2106c-.6395-2.1574-.3996-2.0669-1.2941-4.1178-.1173-.3796-.3059-1.3905-.3555-1.8607.0761-.8256-.0016-1.9738-.1355-3.2285l.2904-.0196c.9021 2.7017.6724 3.0491 2.0766 3.6242l.137.4825c-.6189.9687-.7476 2.198.0584 4.8901.6668-.5288.7576-1.2138.6913-2.7538l.1823-.0695c.654 1.8256.9828 2.1004 1.9044 2.1487l.1061.4276c-.4783.9417-.4432 1.3509.4383 3.4524l-.1042.0772c-1.0259-1.2852-1.5236-1.6075-2.2118-1.2273z"/>
 <path class="fil2 str1" d="m260.62 107.95c.2445-13.45 1.4582-20.99 3.535-31.341-2.451-.3214-4.2947-.3034-6.4243-.1591-2.4455 8.4953-4.0864 20.583-4.073 30.855l6.9623.6448z"/>
 <path class="fil2 str1" d="m264.37 101.87c-1.6192-.2058-2.3202.181-2.8664 1.5129l-.2739-.0489c-.3154-2.0421-.5448-2.4206-2.0573-3.192l.0617-.4428c1.6525-.2096 1.9755-.49 2.8422-2.3222l.2738.0483c.1497 1.4555.7121 2.0626 2.3087 2.4277.2618-2.4848-.1566-3.5557-1.6498-4.3686l.0603-.4206c2.3099-.5204 2.7415-.8786 3.6396-3.2107l.4979.0865c.2062 2.5281.517 3.018 2.5686 4.3124l-.0595.4208c-1.6453.2558-2.3405 1.1289-2.7815 3.582 1.6192.2059 2.3226-.1764 2.869-1.5084l.2739.0488c.3151 2.0421.5444 2.4207 2.0571 3.1922l-.0642.4421c-1.6523.2096-1.9754.4902-2.8422 2.3225l-.274-.0485c-.1496-1.4555-.7122-2.0626-2.3087-2.4275-.0879 3.2591-.0209 6.4654 1.7955 7.2343-2.5808-.7467-5.2524-1.2521-7.9994-1.5572 1.9405-.102 3.1775-2.9415 3.9286-6.0831z"/>
 <path class="fil2 str1" d="m275.68 105c-2.0507 3.0857-2.232 4.8182-4.8734 5.3005.9323.4178 2.0327 1.1368 2.2067 2.0599 1.0704-2.0981 1.9722-4.1149 3.5204-6.9907l-.3966 1.2298c1.1951-1.3058 1.797-3.1135 2.0888-4.7712l-.7622 1.3462c.6395-2.1574.3996-2.0669 1.2941-4.1178.1173-.3796.3059-1.3905.3555-1.8607-.0761-.8256.0016-1.9738.1355-3.2285l-.2904-.0196c-.9021 2.7017-.6724 3.0491-2.0766 3.6242l-.137.4825c.6189.9687.7476 2.198-.0584 4.8901-.6668-.5288-.7576-1.2138-.6913-2.7538l-.1823-.0695c-.654 1.8256-.9828 2.1004-1.9044 2.1487l-.1061.4276c.4783.9417.4432 1.3509-.4383 3.4524l.1042.0772c1.0259-1.2852 1.5236-1.6075 2.2118-1.2273z"/>
 <path class="fil2 str1" d="m250.45 94.424c.4195-13.614.7636-11.554 2.1651-16.419h-9.201c1.4015 4.8644 1.7108 2.8044 2.1303 16.419h4.9056z"/>
 <path class="fil0 str1" d="m252.62 78.005c-.5029 2.0743-2.3717 3.6155-4.6005 3.6155s-4.0976-1.5412-4.6005-3.6155h9.201z"/>
 <path class="fil0 str1" d="m246.9 75.768h-3.4821c.4158-1.7159 1.7664-3.0667 3.4821-3.4825v3.4825z"/>
 <path class="fil0 str1" d="m249.14 72.286c1.7156.4159 3.0662 1.7666 3.482 3.4824h-3.482v-3.4824z"/>
 <path class="fil10 str1" d="m249.14 72.286v3.4824h3.482c.0869.3586.1334.7333.1334 1.1186 0 .3855-.0466.7597-.1335 1.1185h-9.201c-.0869-.3588-.1335-.733-.1335-1.1185 0-.3853.0465-.76.1334-1.1186h3.4821v-3.4826c.3586-.0869.7332-.1328 1.1185-.1328.3855 0 .7599.0461 1.1186.133z"/>
 <path class="fil2 str10" d="m247.39 67.702c-2.0551 0-2.7314.291-3.2387 1.0533v-3.3646c.5073.7623 1.1836 1.0533 3.2387 1.0533 0-2.0551-.291-2.7314-1.0533-3.2387h3.3646c-.7623.5073-1.0533 1.1836-1.0533 3.2387 2.0551 0 2.7314-.291 3.2387-1.0533v3.3646c-.5073-.7623-1.1836-1.0533-3.2387-1.0533 0 2.0551.291 2.7314 1.0533 3.2387v1.5202c-.5229-.199-1.0897-.3079-1.6823-.3079-.5925 0-1.1595.1089-1.6823.3078v-1.5201c.7623-.5073 1.0533-1.1836 1.0533-3.2387z"/>
 <path class="fil2 str1" d="m248.31 90.398c.6915 2.4543 1.1564 2.8826 3.8876 3.7989l5e-4.4249c-1.9653.5397-2.6627 1.5214-2.7749 4.015 2.0137-.0803 2.8065-.5799 3.2423-1.9876l.3431 2e-4c.74 1.9565 1.0859 2.2894 3.0679 2.7848l-.0015.4468c-1.982.4954-2.3279.8283-3.0681 2.7848l-.3431 2e-4c-.4358-1.4077-1.2286-1.9073-3.2423-1.9876.4593 3.2258.797 6.2176 3.1496 6.6574h-9.132c2.3526-.4398 2.6903-3.4316 3.1496-6.6574-2.0137.0803-2.8065.5799-3.2423 1.9876l-.3431-2e-4c-.7402-1.9565-1.0861-2.2894-3.0681-2.7848l-.0015-.4468c1.982-.4954 2.3279-.8283 3.0679-2.7848l.3431-2e-4c.4358 1.4077 1.2286 1.9073 3.2423 1.9876-.1122-2.4936-.8096-3.4753-2.7749-4.015l5e-4-.4249c2.7312-.9163 3.1961-1.3446 3.8876-3.7989h.6098z"/>
 <rect class="fil11 str11" x="245.85" y="97.386" width="4.3" height="4.3" rx="1.0996" ry="1.0996"/>
 <rect class="fil11 str11" transform="matrix(1.1083 .15131 -.15869 1.1624 263.96 98.667)" width="3.6654" height="3.6654" rx="1.0996" ry="1.0996"/>
 <rect class="fil11 str11" transform="matrix(-1.1083 .15131 .15869 1.1624 232.04 98.667)" width="3.6654" height="3.6654" rx="1.0996" ry="1.0996"/>
 <rect class="fil11 str11" transform="matrix(.19867 .095186 -.50688 1.058 277.29 102.08)" width="3.6654" height="3.6654" rx="1.0996" ry="1.0996"/>
 <path class="fil11 str11" d="m277.81 102.32c1.2279.4655-.6687 4.3324-1.858 3.8779-.0907-.0347.0918-.5997.3983-1.2395l.7432-1.5512c.3066-.6399.6257-1.1217.7165-1.0872z"/>
 <rect class="fil0 str11" x="246.75" y="83.11" width="2.5" height="2.5" rx=".904" ry=".904"/>
 <rect class="fil0 str11" x="246.75" y="86.792" width="2.5" height="2.5" rx=".904" ry=".904"/>
 <rect class="fil0 str11" x="255.78" y="101.3" width="3" height="3" rx=".904" ry=".904"/>
 <rect class="fil0 str11" x="256.14" y="97.297" width="2.8" height="2.8" rx=".904" ry=".904"/>
 <rect class="fil0 str11" x="256.55" y="93.341" width="2.7" height="2.7" rx=".904" ry=".904"/>
 <rect class="fil0 str11" x="257.04" y="89.451" width="2.6" height="2.6" rx=".904" ry=".904"/>
 <rect class="fil0 str11" x="257.62" y="85.647" width="2.5" height="2.5" rx=".904" ry=".904"/>
 <rect class="fil0 str11" x="258.34" y="81.658" width="2.4" height="2.4" rx=".904" ry=".904"/>
 <rect class="fil0 str11" x="259.1" y="78.019" width="2.3" height="2.3" rx=".904" ry=".904"/>
 <rect class="fil0 str11" x="237.22" y="101.3" width="3" height="3" rx=".904" ry=".904"/>
 <rect class="fil0 str11" x="237.06" y="97.297" width="2.8" height="2.8" rx=".904" ry=".904"/>
 <rect class="fil0 str11" x="236.75" y="93.341" width="2.7" height="2.7" rx=".904" ry=".904"/>
 <rect class="fil0 str11" x="236.36" y="89.451" width="2.6" height="2.6" rx=".904" ry=".904"/>
 <rect class="fil0 str11" x="235.88" y="85.647" width="2.5" height="2.5" rx=".904" ry=".904"/>
 <rect class="fil0 str11" x="235.26" y="81.658" width="2.4" height="2.4" rx=".904" ry=".904"/>
 <rect class="fil0 str11" x="234.6" y="78.019" width="2.3" height="2.3" rx=".904" ry=".904"/>
 <rect class="fil11 str11" transform="matrix(-.19867 .095186 .50688 1.058 218.71 102.08)" width="3.6654" height="3.6654" rx="1.0996" ry="1.0996"/>
 <path class="fil11 str11" d="m218.19 102.32c-1.2279.4655.6687 4.3324 1.858 3.8779.0907-.0347-.0918-.5997-.3983-1.2395l-.7432-1.5512c-.3066-.6399-.6257-1.1217-.7165-1.0872z"/>
 <path class="fil3 str3" d="m284.73 112.99c-1.5783.6111-2.7634.4443-1.5417 3.3879 2.1319 5.1369-1.0316 4.9271-3.4899 6.0842-.6721.3163-1.3218.6896-1.945 1.0432l.0052.0015c-4.4154 2.6369-5.8983 1.3942-7.3306.0753-1.9347-1.7813-5.4243-.31-7.4342-1.2134-1.6308-.7329-3.2053-4.5311-3.4637-7.8108l9.2603-.0595c-.056.9863.0346 1.777.2227 2.4574 4.7268 6.4107 5.7348 3.2896 7.3487 2.2371 1.3949-.9097 4.6727-.1514 2.3974-4.3131-3.1118-5.6918 4.1078-8.984 6.2795-7.2409 3.1394 2.5199 6.1392-.4323 5.4906 5.3082l.0131.0052 3.0912-.7087-.0066.008-.0026-.0016-.0344.008c.3697-.1669 2.2902.6503 2.8707 1.9967.7488 1.7369-.6989 1.8887-8.5399 5.0463-.051.0321-.1054.0546-.1635.0659l-.0051.0021 9e-4-.0011c-.6558.1206-1.7512-1.195-3.0159-6.3418l7e-4-6e-4-.0079-.0355z"/>
 <path class="fil4 str4" d="m268.79 114.49c-.2304 4.0576 2.0129 4.8113 3.3769 8.1454 1.6708 4.0841 4.3562 1.3127 7.5311-.1817 2.4583-1.1571 5.6218-.9473 3.4899-6.0842-1.5815-3.8106.8693-2.4078 2.9866-4.229 3.8589-3.3193 4.2587-1.9784 4.3544.7982"/>
 <path class="fil4 str4" d="m259.53 114.55c.2584 3.2797 1.8329 7.0779 3.4637 7.8108 2.0099.9034 5.4995-.5679 7.4342 1.2134 1.4323 1.3189 2.9152 2.5616 7.3306-.0753"/>
 <path class="fil4 str4" d="m290.53 112.94c.6486-5.7405-2.3512-2.7883-5.4906-5.3082-2.1717-1.7431-9.3913 1.5491-6.2795 7.2409 2.2753 4.1617-1.0025 3.4034-2.3974 4.3131-1.614 1.0526-2.622 4.174-7.3495-2.2381"/>
 <path class="fil4 str4" d="m284.74 113.02c2.3664 9.63 4.1412 5.8503 3.5496 4.3384"/>
 <path class="fil4 str4" d="m295.45 113.85c-4.4378-2.583.0639-1.7922 1.0094.4008.7542 1.7494-.7186 1.8903-8.7085 5.1143m7.6991-5.5151c-2.5151.9305-5.2141 2.0686-8.1706 3.8644-1.4596-2.4274-2.2566-3.5483 2.5917-4.6124l3.7548-.8609"/>
 <path class="fil3 str3" d="m211.27 112.99c1.5783.6111 2.7634.4443 1.5417 3.3879-2.1319 5.1369 1.0316 4.9271 3.4899 6.0842.6721.3163 1.3218.6896 1.945 1.0432l-.0052.0015c4.4154 2.6369 5.8983 1.3942 7.3306.0753 1.9347-1.7813 5.4243-.31 7.4342-1.2134 1.6308-.7329 3.2053-4.5311 3.4637-7.8108l-9.2603-.0595c.056.9863-.0346 1.777-.2227 2.4574-4.7268 6.4107-5.7348 3.2896-7.3487 2.2371-1.3949-.9097-4.6727-.1514-2.3974-4.3131 3.1118-5.6918-4.1078-8.984-6.2795-7.2409-3.1394 2.5199-6.1392-.4323-5.4906 5.3082l-.0131.0052-3.0912-.7087.0066.008.0026-.0016.0344.008c-.3697-.1669-2.2902.6503-2.8707 1.9967-.7488 1.7369.6989 1.8887 8.5399 5.0463.051.0321.1054.0546.1635.0659l.0051.0021-9e-4-.0011c.6558.1206 1.7512-1.195 3.0159-6.3418l-7e-4-6e-4.0079-.0355z"/>
 <path class="fil4 str4" d="m227.21 114.49c.2304 4.0576-2.0129 4.8113-3.3769 8.1454-1.6708 4.0841-4.3562 1.3127-7.5311-.1817-2.4583-1.1571-5.6218-.9473-3.4899-6.0842 1.5815-3.8106-.8693-2.4078-2.9866-4.229-3.8589-3.3193-4.2587-1.9784-4.3544.7982"/>
 <path class="fil4 str4" d="m236.47 114.55c-.2584 3.2797-1.8329 7.0779-3.4637 7.8108-2.0099.9034-5.4995-.5679-7.4342 1.2134-1.4323 1.3189-2.9152 2.5616-7.3306-.0753"/>
 <path class="fil4 str4" d="m205.47 112.94c-.6486-5.7405 2.3512-2.7883 5.4906-5.3082 2.1717-1.7431 9.3913 1.5491 6.2795 7.2409-2.2753 4.1617 1.0025 3.4034 2.3974 4.3131 1.614 1.0526 2.622 4.174 7.3495-2.2381"/>
 <path class="fil4 str4" d="m211.26 113.02c-2.3664 9.63-4.1412 5.8503-3.5496 4.3384"/>
 <path class="fil4 str4" d="m200.55 113.85c4.4378-2.583-.0639-1.7922-1.0094.4008-.7542 1.7494.7186 1.8903 8.7085 5.1143m-7.6991-5.5151c2.5151.9305 5.2141 2.0686 8.1706 3.8644 1.4596-2.4274 2.2566-3.5483-2.5917-4.6124l-3.7548-.8609"/>
 <path class="fil2 str1" d="m273.08 112.7c0-2.9596-11.228-5.3597-25.074-5.3597s-25.074 2.3748-25.074 5.3344v7.048c0-2.4342 11.228-4.4083 25.074-4.4083s25.074 1.9741 25.074 4.4083v-7.0227z"/>
 <rect class="fil11 str11" x="246.2" y="109.5" width="3.6" height="3.6" rx="1.0996" ry="1.0996"/>
 <rect class="fil11 str11" x="251" y="109.59" width="3.55" height="3.6" rx="1.0996" ry="1.0996"/>
 <rect class="fil11 str11" x="255.74" y="109.88" width="3.45" height="3.6" rx="1.0996" ry="1.0996"/>
 <rect class="fil11 str11" x="260.39" y="110.42" width="3.3" height="3.6" rx="1.0996" ry="1.0996"/>
 <rect class="fil11 str11" x="264.88" y="111.06" width="3.1" height="3.6" rx="1.0996" ry="1.0996"/>
 <rect class="fil11 str11" x="269.16" y="112.52" width="2.8" height="3.6" rx="1.0996" ry="1.0996"/>
 <rect class="fil11 str11" x="241.46" y="109.59" width="3.55" height="3.6" rx="1.0996" ry="1.0996"/>
 <rect class="fil11 str11" x="236.81" y="109.88" width="3.45" height="3.6" rx="1.0996" ry="1.0996"/>
 <rect class="fil11 str11" x="232.31" y="110.42" width="3.3" height="3.6" rx="1.0996" ry="1.0996"/>
 <rect class="fil11 str11" x="228.02" y="111.06" width="3.1" height="3.6" rx="1.0996" ry="1.0996"/>
 <rect class="fil11 str11" x="224.04" y="112.52" width="2.8" height="3.6" rx="1.0996" ry="1.0996"/>
</svg>
