<?xml version="1.0" encoding="UTF-8"?>
<svg width="563.8" height="376.5" clip-rule="evenodd" fill-rule="evenodd" image-rendering="optimizeQuality" shape-rendering="geometricPrecision" text-rendering="geometricPrecision" version="1.0" viewBox="0 0 160 106" xmlns="http://www.w3.org/2000/svg">
 <defs>
  <style type="text/css">.str1 {stroke:#0093DD;stroke-width:0.0762}
    .str2 {stroke:#1F1A17;stroke-width:0.0762}
    .str0 {stroke:#DA251D;stroke-width:0.0762}
    .fil4 {fill:none}
    .fil1 {fill:#0093DD}
    .fil2 {fill:#1F1A17}
    .fil0 {fill:#DA251D}
    .fil3 {fill:#FFF500}</style>
 </defs>
 <rect x="-2.7756e-17" y="-.4232" width="160" height="106.85" fill="#fff"/>
 <g fill-rule="evenodd">
  <polygon class="fil0 str0" transform="matrix(1.0056 0 0 1.0056 -.44194 -.30195)" points="0.4779 -0.0977 0.4776 84.952 140.1 -0.0982" fill="#da251d" stroke="#da251d" stroke-width=".0762"/>
  <polygon class="fil1 str1" transform="matrix(1.0056 0 0 1.0056 -.44194 -.30195)" points="21.916 106.1 159.52 17.85 159.52 106.1" fill="#0093dd" stroke="#0093dd" stroke-width=".0762"/>
  <g transform="matrix(1.0056 0 0 1.0056 -.44194 -.30195)">
   <path class="fil2" d="m14.007 8.4471c0.2068 0.1798 0.4945 0.5304 0.5394 0.7731 0.5574 0.0899 1.0069 0.4495 1.4115 0.8541 0.5573 0.0179 1.1507-0.072 1.5552 0.2966 0.5394 0.2787 1.0339 0.6743 1.6542 0.7552 0.908 0.0809 1.8789 0.0539 2.7689-0.018 0.5574-0.018 1.0069 0.1169 1.5104 0.2607 0.7102 0.2428 1.5822 0.2428 2.3733 0.1708 0.6473 0.054 2.9937 0.1888 3.3353 1.0339 0.1798 0.1438 0.3416 0.3236 0.5484 0.4135 0.1798 0.072 0.1528 0.3057 0.3416 0.3776 0.6383 0.6743 2.2296 1.3935 2.9757 0.4585 0.1978-0.2427 0.0899-0.6473 0.1079-0.9709-0.7911-1.5913-3.2993-1.8789-4.8186-1.6991-0.5304 0.0179-1.0429 0.1438-1.6003 0.1078-0.9799 0-2.5441 0.1709-3.4521-0.2697-0.5394-0.2337-1.0249-0.4585-1.6182-0.6203-1.1687-0.3506-0.8002-1.6092 0.2067-1.6092 1.4115-0.5574 2.8049 1.0518 4.0006 0.6203 0.7102 0 1.3575-0.1798 2.0767-0.1348 0.8451-0.1619 1.6542 0.0449 2.4992 0.0539 1.9958 0.4136 4.567 1.2227 4.9625 3.623 0.2967 2.0677-1.9778 3.9197-4.0005 3.2454 0.1618 0.7462 0.827 2.5172 1.6631 2.8319 0.3776 0.2337 0.89 0.0899 1.2316 0.4046 0.2787 0.7371 0.4945 1.5103 0.908 2.2205 0.045 0.3686-0.9529 1.6811-1.1327 2.2205h-4.2433c-0.3866-0.5304 0.3506-1.8429 0.2607-1.6811 0.3057-0.4045 0.7282-0.7102 1.1867-0.8361-0.1528-0.1258-0.2427-0.4045-0.4765-0.3776-0.6023-0.4674-1.3485-0.6472-1.8969-1.2226-0.0629 0.0809-0.1708 0.1618-0.1708 0.2247-0.5214 0.6204-0.2877 1.6093-0.9709 2.1487-0.872 0.3146-1.0429 1.2136-1.5643 1.6811h-7.8303c-0.1259-1.1597 0.3866-2.0677 1.5013-2.3464 0.018-0.0449 0.072-0.1079 9e-3 -0.1528-0.4315-0.3506-0.9709-1.3935-1.4743-1.5913-0.3596 0.5304-0.4316 1.0699-0.8271 1.5463-0.4495 0.063-0.89 0.3776-1.2946 0.6293-0.845 0.4855-0.9439 1.3665-1.1867 1.9778-0.1078 0.081-0.2337 0.027-0.3865 0.027h-4.549c0.036-1.3395 0.908-2.2925 2.2475-2.4543 0.2877-0.7282 1.1238-1.1507 1.4384-1.8699 0.1708-0.7462 0.2967-1.4834 0.5934-2.1756-0.9889-0.4225-2.0048-1.5103-2.4903-2.4813-0.2877-0.1888-0.6473-0.2787-0.872-0.5753-0.4315 9e-3 -1.1507-0.4046-1.5013-0.2428-0.3057 0.027-0.6743 0.054-0.944-0.0809-0.4675 0.1708-0.917-1.5732-0.3057-1.9868 0.3147-0.1888 0.7642 0.0719 1.0339-0.1618-0.5933-0.1528-1.2137 0.3776-1.7441-0.3057-0.2247-0.2787 0.1439-0.5843-0.0989-0.845-0.5034-0.063-0.3955-0.9889-0.0269-1.2227 0.2337-0.0629 0.4495-0.1618 0.7012-0.1438 0.1978-0.1259 0.3866-0.2607 0.6293-0.2877 0.8451 0.0449 1.2946-0.944 2.2205-0.6922 0.4405 0.0539 0.926 0.0719 1.3845 0.0449 0.3956-0.2517 1.2766-0.4585 1.6002 0.054zm10.617 9.2238c-0.2067 0.7641 0.1709 1.8969 0.3956 2.6341-0.3416 0.3596-0.7012 0.7641-1.1867 1.0158-0.2966 0.036-0.6473 0.1259-0.9259 0.2338-0.045-0.5754 0.1438-1.2137-0.3686-1.5193-0.3147-0.5035-0.7282-1.1867-0.8901-1.7711 1.1238-0.0539 2.0408-0.4944 2.9757-0.5933z" fill="#1f1a17"/>
   <path class="fil3" d="m14.47 20.787c0 0.0269 0 0.0449-0.027 0.0719-0.3506-0.063-0.5753 0.0719-0.4405-0.3327l0.4675 0.2608zm-0.1708-0.7013c0.3326 0.3057 0.7551 0.3506 1.1057 0.5035-0.0629 0.2697-1.0518-0.1079-1.1866-0.2338-9e-3 -0.1168 0.0809-0.3955 0.0809-0.2697zm11.849-0.1708 0.3417 0.027c-0.2338 0.1528-0.5574 0.1169-0.8541 0.1438v-0.1888c0.018 9e-3 0.4046-0.1798 0.5124 0.018zm-5.8345-0.3326-0.4855 0.4765c-0.1798-0.018-0.1798 9e-3 -0.1798-0.1888 0.081-0.027 0.1259-0.072 0.2158-0.0809v-0.045c0.1798-9e-3 0.2787-0.1978 0.4495-0.2158v0.054zm-5.7716-0.1169c0.1798 0.0629 0.3956 0.054 0.5754 0.1169 0.3776 0.1978 0.881 0.4135 1.2676 0.7012-0.5035-0.1618-1.1418-0.4315-1.7171-0.3506-0.2697-0.0719-0.3147-0.2967-0.2607-0.5484 0.0629 0 0.0988 0.045 0.1348 0.0809zm12.442 0.0899c-0.4045 0.018-1.2766 0.0719-1.5732-0.2247l0.0089-0.1169c0.6024-0.0539 1.0429 0.2517 1.5643 0.3416zm3.6949-0.6023c-0.1258 0.2247-0.89 0.6563-1.0878 0.4585 0.1708-0.1349 0.8451-0.4675 1.0878-0.4585zm-10.24-0.0899c0.0719 0.2337-0.917 0.6652-1.1867 0.6652-0.0629-0.0629-0.0629-0.1528-0.1528-0.1887 0.1078-0.0989 0.2697 0.0089 0.4045-0.045 0.3416-0.036 0.6653-0.2068 0.935-0.4315zm-5.0434 0.2068c0.1977 0 0.9799 0.5753 1.1866 0.7012v0.0449c-0.6382-0.4135-1.3664-0.4944-2.0317-0.8001 0.018-0.0719 0.018-0.1438 0.0539-0.1978 0.3147-0.0269 0.5934 0.018 0.7912 0.2518zm4.3871-0.4585c-0.2337 0.1977-0.6563 9e-3 -0.8541 0.2247-0.0809-0.018-0.0719 0.0719-0.1258 0.0899-0.1618 0-0.4855-0.0359-0.5574-0.1888 0.1618 0 0.3147-0.0359 0.4765-0.0989 0.3506-0.0269 0.7102-0.0449 1.0608-0.0899v0.063zm10.761-0.2967c0 9e-3 9e-3 0.018 0.0179 0.027-0.1708 0.0629-0.3775 0.0988-0.5394 0.2067-0.2157 0.054-0.3685 0.2248-0.5573 0.3147s-0.3956-0.018-0.5934-0.036v-0.0449c0.6024-0.2158 1.0339-0.4226 1.6722-0.4675zm-4.4231 0.0809c0.2427 0.027 1.0878 0.2068 1.2766 0.3956-0.7103-0.2967-1.4474 0.1078-2.1127-0.2428-0.2337-0.4135 0.7372-0.1798 0.8361-0.1528zm-10.41-0.1708c0.3237 0.2068 0.6293 0.5214 0.935 0.7192-0.6024-0.2158-1.2946-0.5394-1.9329-0.6473-0.027-0.6383 0.7552-0.1169 0.9979-0.0719zm10.132-0.4675c0.3865 0.0899 0.7821 0.3147 1.1867 0.4225-0.5125 0.018-0.944-0.2247-1.4834-0.1528-0.036-0.027-0.4585-0.1708-0.2607-0.3236 0.2068-0.018 0.3596 0.0809 0.5574 0.0539zm-9.97 0.0809c0.2248 0.1079 0.4226 0.2338 0.6653 0.3147l-0.018 9e-3c0.3956 0.3146 0.8181 0.6472 1.2316 0.9169-0.0539 0.2428-0.2247 0.5035-0.4045 0.7192-0.1349 0.2518-0.1798 0.5934-0.3057 0.8541-0.9619 0.2427-2.4722 1.4204-2.5621 2.5622l-3.8298 0.018c-0.0809-0.6024 0.8451-0.989 1.2227-1.1777 0.1888-0.081 0.4135-0.063 0.6023-0.1259 0.5214-0.7462 1.3755-1.4294 1.7171-2.2206 0.1348-0.6382 0.3057-1.3305 0.5214-1.9508-0.0629-0.3416 1.0698 0.0539 1.1597 0.0809zm14.375-0.2247c-0.1259 0.1348-0.3686-9e-3 -0.5124 0.1798-0.3057 0.1708-0.6114 0.3326-0.899 0.5663-0.2338 0.063-0.3866-0.0809-0.5844-0.1528 0.5574-0.3146 1.3665-0.5754 1.9958-0.6383v0.045zm-10.464-0.1439c-0.1978 0.1978-0.6203 0.1708-0.8271 0.3596-0.3146 0.0809-0.9889 1.0968-1.3845 0.5574-0.0629-0.018-0.1708-0.027-0.1708-0.0899 0.3686 0.027 0.6383-0.2158 0.944-0.3416v-0.045c0.4135-0.2067 0.9889-0.3686 1.4384-0.4405zm10.096-0.3596c-0.2337 0.1169-0.5394 0.0989-0.7642 0.2697-0.4225 0.0719-0.6562 0.4855-1.0698 0.5574-0.0269-0.0629-0.4045-0.018-0.4225-0.2247 0.4495 0.0899 0.6473-0.3866 1.0339-0.4496 0.4225-0.0269 0.8091-0.1528 1.2226-0.2067v0.0539zm-10.518-0.2337c-0.1349 0.0629-0.2428 0.1079-0.4136 0.1258-0.4675 0.2607-0.9349 0.6204-1.3665 0.962-0.1618 0.0719-0.7102 0.0809-0.7102-0.1888 0.2338 0.0629 1.1957-0.6653 1.4744-0.7732 0.3146-0.0269 0.6832-0.1078 1.0159-0.1258zm9.916-0.3237c-0.8361-0.0539-1.1418 1.0069-2.0138 0.7822-0.1079-0.054-0.2697-0.018-0.3596-0.0899 0.1798-0.1169 0.4945-0.027 0.6473-0.2697 0.5484-0.2338 1.0968-0.4405 1.7261-0.4495v0.0269zm-11.067-0.1708c-0.1078 0.063-0.3506 0.1529-0.4405 0.2068-0.2966 0.2158-0.4495 0.6293-0.8001 0.8181-0.2517 0.1079-0.5214 0-0.7641-0.0719 0-0.1708 1.78-1.0159 2.0137-1.0519 0.072 0.027-9e-3 0.063-9e-3 0.0989zm-2.0497-0.89c-0.1708 0.3776-0.3686 1.1687-0.6652 1.4294-0.1978 0.0989-0.3597-0.0449-0.4316-0.018 0.2877-0.2786 0.4585-0.5843 0.7822-0.89-9e-3 -0.1438 0.1977-0.4405 0.2787-0.5394l0.0359 0.018zm-0.7641-0.5124c-0.063 0.2607-0.1439 0.5484-0.2158 0.8091-0.2607-0.027-0.5484 0.5933-0.7282 0.7731-0.1888 0.018-0.4135 0.018-0.4944-0.1798 0.5214-0.0719 1.1866-1.3125 1.5373-1.6991-0.054 0.0899-9e-3 0.2427-0.0989 0.2967zm11.822 0.6203c0.5483 0.0359 1.7081 0.0449 2.1306 0.4675-0.6653-0.072-1.3575 0.0359-2.0048 0.0899-0.2877-0.1259-0.5484-0.3147-0.8271-0.4405-0.0899-0.045-0.7012-1.2317-0.6473-1.1328 0.5305 0.5844 0.6294 0.7911 1.3486 1.0159zm-12.73-1.3485c-0.0809 0.5304-0.7462 1.8609-1.3665 1.2406 0.7102-0.2787 0.9349-0.6293 1.3215-1.2406h0.045zm4.3152-0.054c0.2427 0.1888 0.3686 0.4945 0.6293 0.6383 0.4045 0.3327-0.054 0.7192-0.027 1.0159-0.1618-0.018-0.1708-0.4225-0.1798-0.5304 0.1259 0-0.4585-1.0698-0.4675-1.1238h0.045zm9.907-0.3506c0.0629 0.2967 0.1259 0.6563 0.2517 0.953-0.5394-0.5035-0.8091-0.8271-0.9349-1.6182 0.2247 0.1977 0.5843 0.2876 0.6832 0.6652zm-5.8255-0.7372c0.2697 0.4765 0.3596 0.899 0.5483 1.3575 0 0.6473 0.6833 1.1058 0.3776 1.7981-0.0629-0.5395-0.3506-0.8181-0.6473-1.2227-0.3056-0.4046-0.1887-1.4204-0.3056-1.9329h0.027zm-2.4453 9e-3c0.0269 0.2697 0.1708 0.4405 0.3146 0.7013 0.2517 0.5843 0.3776 1.2406 0.2068 1.8969-0.0629 0.2247-0.1349 0.4315-0.1618 0.6472-0.054-0.3865 0.0359-0.845-0.0809-1.2136-0.1079-0.7732-0.3596-1.4834-0.3776-2.2475 0.0989 9e-3 0.0539 0.1528 0.0989 0.2157zm7.0661 0.063c0.1888 0.5034 0.3776 1.0338 0.7282 1.4653-0.3146-0.1977-0.5574-0.3775-0.881-0.5843-0.1708-0.4315-0.4585-0.7911-0.7192-1.2137-0.027-0.0359-0.0989-0.018-0.1169-0.0809 0.3956-9e-3 0.7192 0.1439 0.9889 0.4136zm-1.6901-0.4046c0.1438 0.0899 0.5124 0.2248 0.4855 0.4765 0 0.1978 0.2787 1.3575 0.6383 1.3575 0 0.0989 0.4944 0.4315 0.5573 0.5933-1.0967-0.5933-1.5193-0.9889-1.8879-2.1486 0-9e-3 -0.3686-0.3236-0.3596-0.3776 0.2338-0.0629 0.3776 0.0899 0.5664 0.0989zm-1.3125-0.0719c0.1528 0.0719 0.2966 0.1798 0.4495 0.2697 0.1348 0.0449 0.3865 2.0138 0.2966 2.3014-0.1528-0.3506-0.2607-0.7641-0.5214-1.0698-0.1169-0.4135-0.1618-0.854-0.3056-1.2406-0.0899-0.1618-0.2877-0.1888-0.3507-0.3596 0.1709-0.027 0.2608 0.1169 0.4316 0.0989zm-0.926-0.0899c0.3416 0.1798 0.5394 1.1687 0.6383 1.5732 0.1169 0.2697 0.2967 0.4585 0.4135 0.7372 0.018 0.2967-0.0539 0.5934 0.0719 0.89l-0.0629-0.0089c-0.2427-0.8181-1.0428-1.4924-1.0518-2.3105-0.1079-0.3146-0.4136-0.926-0.7282-1.0518 0.2877-0.045 0.4765 0.1168 0.7192 0.1708zm-12.2 0.7462c-0.1888 0.0449-0.3776 0.2067-0.6023 0.1528 0.3955-0.3506 0.7012-0.7911 0.9709-1.2227-9e-3 0.4046-0.1438 0.7642-0.3686 1.0699zm7.5606-1.2227c1.1418 0.1978 3.8657-0.6113 3.677 1.3305-0.3237 0.6563 0.4045 1.0699 0.1528 1.7351-0.1528-0.2157-0.1978-0.7282-0.4675-0.9349-0.2697-0.4136 0.018-0.8901-0.027-1.3665-0.1618-0.1708-0.1618-0.4945-0.5034-0.4316-0.7731 0.7013 0.2607 1.807-0.1438 2.5352 0.0089 0.2608-0.1349 0.5125-0.072 0.7552-0.0539-0.3776-0.0179-0.8271-0.0269-1.2496-0.3686-0.6653-0.6024-1.2047-0.971-1.834-0.1708-0.2247-0.1977-0.1348-0.3596-0.1618-0.6742 0.872 0.3866 1.7261 0.054 2.688-0.0719-0.3326-0.1618-0.6832-0.3147-0.9889-0.5214-0.4495-0.0359-1.5103-0.8181-1.7261-0.3865 0.2068-0.3236 1.1238-0.1348 1.4294-0.3057 0-0.4225-1.4653-0.4945-1.6721-0.0179-0.1798-0.2427-0.1079-0.2877-0.2697 0.2428 0.0719 0.4765 0.1528 0.7372 0.1618zm-4.9894-0.1798c-0.1708 0.5754-1.6182 3.0297-2.3464 1.9868 1.0788-0.2607 1.6991-1.0608 2.2744-1.9598 0.027-9e-3 0.045-0.036 0.072-0.027zm3.5061-0.2517c0.7102 0.5214 0.4315 0.7372 0.2067 1.4564 0 0.3326 0.2248 0.5753 0.2518 0.899-0.054 0.5214-0.2877 0.9619-0.5215 1.4024-0.0539 0.5394-0.6293 0.7462-0.854 1.2047h-0.045c0.1349-0.4765 0.6563-0.7372 0.7372-1.2316 0.0809-0.3956 0.1708-0.7912 0.2338-1.2047 0-0.6743-0.6203-0.2877-0.8541 0-0.018-0.1708 0.1439-0.2787 0.1708-0.4405 0.5394-0.4585 0.6473-1.4294 0.6113-2.0857h0.063zm-0.4315-0.3057c0.0269 0.0989 0.1708 0.1259 0.1438 0.2607 0.0719 0.0809-0.018 0.2068-0.027 0.2877-0.3506 0.4315-0.5753 1.0159-0.8181 1.5103 0 0.2158-0.3146 0.944-0.5843 0.962 0.2517-0.6473 0.4405-1.3485 0.7462-2.0138 0.1258-0.4495 0.2067-0.6742-0.1978-0.926-0.1708 0.8541-0.6923 2.0947-1.2496 2.76h-0.054c0.1439-0.2877 0.6563-1.5014 0.5125-1.834-0.2248-0.0539-0.2158 0.2967-0.4316 0.2427-0.0809-0.2157 0.4495-1.2855 0.5574-1.4563 0.4136-0.3237 1.0339-9e-3 1.4025 0.2067zm-7.0482-0.1438c0.3776 0.3416 0.5574 1.0428 0.0809 1.3934 0 0.4585-1.1148 0.2428-1.3395 0.2428v-0.045c0.4135-0.018 1.1327-0.0989 1.2676-0.5933 0.0359-0.2787 0.1528-0.6923-0.1798-0.8721-0.1709-0.1528-0.3507-0.2787-0.5754-0.3056-0.1798-0.1798 0.7192 0.1708 0.7462 0.1798zm0.854-0.3327c0.3147 0.6383 0.2068 1.0609-0.2966 1.5643-0.1529-0.1528 0.5124-1.0518-0.1709-1.4384-0.1977-0.1708-0.6742-0.3596-0.9259-0.2877v-0.0629c0.5573 0.0899 0.854-0.2967 1.3934 0.2247zm4.2343-0.1438c0.2248 0.3416-0.0269 1.1957-0.2607 1.4924-0.1348-0.018-0.0359-0.1798-0.0809-0.2608-0.0719 0.1529-0.7552 1.3306-0.917 1.3306-0.0449-0.2967 0.6203-1.3575 0.6383-1.7621 0.0989-0.1888 0.1888-1.0698-9e-3 -1.2406h0.063l0.5663 0.4405zm-3.2004-0.4944c0.1978 0.3236 0.2697 0.5753 0.4045 0.908h0.063c-0.054 0.2966 0.0629 1.2765-0.2428 1.4923-0.1348-0.1888 0.2248-1.2137-0.2067-1.3575-0.1978 0.1888-0.3237 0.4225-0.4406 0.6473-0.0449 0.0359-0.1168 0-0.1528 0.0539 0.018-0.0989 0.1888-0.6293 0.2248-0.6832 0.0269-0.3327-0.027-0.917 0.1528-1.1777 0.036 0.0719 0.1348 0.0719 0.1978 0.1169zm2.2745-0.045c0 0.3326-0.3237 1.0069-0.4855 1.3395-0.5394 0.3866-1.0159 1.7171-1.6542 1.834 0.8001-0.6293 0.6653-1.3755 0.953-2.2205 0.4315-0.3507 0.5663-0.971 0.5124-0.1079 0.0539-9e-3 0.0809 0.0719 0.1259 0.0269 0.2427-0.2427 0.0449-0.7102 0.2876-0.9979 0.1259-0.0449 0.2608-0.0269 0.2608 0.1259zm-4.6659-0.0719 0.027 0.0449c-0.4405 0.2518-0.89 0.4585-1.3305 0.7732 0-0.054-0.054-0.1798 0.0449-0.2068 0.4405-0.1618 0.6563-0.854 1.2227-0.6922l0.0359 0.0809zm3.4972-0.7192c-0.036 0.3955-0.2068 0.6473-0.5395 0.8361-0.0269-0.3507 0.3686-0.6204-0.0629-1.0069 0.036-0.1529 0.5754-0.0989 0.6024 0.1708zm0.4854 0.0449c-0.018 0.3686 0.1528 0.926-0.3146 1.1867-0.1798 0-0.3147 9e-3 -0.3506-0.2247 0.2157-0.4945 0.5034-0.8181 0.2966-1.3575 0.2607-9e-3 0.2428 0.2517 0.3686 0.3955zm-0.1528-0.7641c0.2068 0.2337 0.4765 0.4405 0.4854 0.7551-0.0179 9e-3 -0.0449-9e-3 -0.0629 0.018 0.0719 9e-3 0.054 0.0899 0.0719 0.1259 0.3596 0.1438 0.7822 0.0989 1.0519 0.4315 0.2697 0.0899 0.4585 0.4046 0.7192 0.5394 0.4045 0.036 0.845-9e-3 1.2316 0.0899 1.6632 1.2316 3.0386 1.0249 4.9985 0.953 0.6113-0.018 1.2226 0.1887 1.789 0.3596 0.6203 0.1348 1.3485 0.0988 2.0048 0.0629 0.6832 0.0539 1.4294 0.1348 2.1036 0.2877v0.0449c0.7372 0.063 0.8541 0.7552 1.4834 1.0339 0.0629 0.0629 0.0629 0.2068 0.1708 0.2068 0.908 1.0338 1.8429 1.1687 3.1735 1.0967 0.2157-0.1708 0.8001-0.3686 0.836-0.7102 0.3057-0.2247 0.2518-1.1507 0.1439-1.4114-0.1169-0.8271-1.6991-1.6452-2.4273-1.9329-0.6563-0.0989-1.3305-0.1708-2.0048-0.2247-1.789-0.072-4.4411 0.6742-6.0323-0.1978-0.5754-0.1978-1.2137-0.4226-1.7441-0.6833 0.1079-0.3865 1.1418-0.3326 1.4204-0.3326 0.953 0.2158 2.0228 0.953 3.0477 0.6743 1.5193-0.1888 3.2993-0.2518 4.8186-9e-3 1.5283 0.3776 3.4072 1.0518 3.9287 2.706 0.5034 1.762-1.3755 3.3982-3.1465 2.9487-0.4316-0.0359-0.8002-0.1888-1.1957-0.3236 0.027 0.4045 0.3236 0.7551 0.4765 1.1597 0.1887 0.908 0.6742 2.0947 1.4114 2.706 0.0719 0.3956 1.3125 0.6203 1.6182 0.6833 0 0.6472 0.4765 1.3934 0.7102 1.9508-0.1888 0.4855-0.7012 0.908-0.8271 1.4564l-3.3892 0.018c0.018-0.9889 0.9889-1.5553 1.8969-1.5643 0.0359-0.018 9e-3 -0.0539 0.018-0.0809-0.2608-0.3147-0.6473-0.7282-0.8541-1.0608-0.7462-0.3237-1.3755-0.8002-2.0677-1.2137-0.1708-0.1169-0.2248-0.2967-0.3686-0.4315-0.3956-0.3057-0.7821-0.6024-1.1417-1.0069-1.816-1.1507-3.2994-1.0069-5.2772-0.3326-0.4854 0.1258-0.9979 0.1258-1.4114 0.0539-0.1349-0.1798-0.1618-0.4046-0.2517-0.6023 0.0269-0.1619-0.1708-0.1978-0.2607-0.3147-0.4406-0.1258-0.8901-0.5034-1.2586-0.8451 0.1168 0.072 0.0809 0.3327 0.2427 0.3776 0.1978 0.2787 0.4944 0.4495 0.7462 0.6203 0.1078 9e-3 0.1977 0.045 0.2607 0.1349 9e-3 0.5214 0.2876 0.899 0.3686 1.4114 0.4585 0.7013 0.6383 1.6452 1.2765 2.2476 0 0.4944-0.1528 1.9418 0.1619 2.3374 0.1168-0.018 0.1798-0.1618 0.2517-0.2517 0.1798-0.4136 0.8271-0.908 1.3125-0.8361 0.1529 0.018 1.5014-1.0519 1.7531-1.3036-0.0809-0.4675-0.3776-0.917-0.4495-1.4294 0.027-0.5664-0.3147-1.1417 0-1.6452-0.1798-0.4855 2.3284 0.4945 2.3464 0.5035 0.0629 0.0539 0.9799 0.881 0.9709 0.9619-0.1798 0.1438-0.1438 0.3956-0.3686 0.4944-0.3146 0.5035-0.6203 1.2946-0.6832 1.9239-0.1888 0.3147-0.5304 0.3776-0.5934 0.4315-0.5304 0.3956-0.6023 0.9979-1.1147 1.3755h-6.9134c0.3327-1.2676 0.9889-1.1237 1.4205-1.3485 0.0809-0.2337 0.3506-0.7372 0.0179-0.854-0.3865-0.4226-0.7282-0.962-1.1687-1.3575-0.1618-0.2967-0.4854-0.4316-0.7371-0.6204-0.7462-0.3596-1.2946-0.7371-1.825-1.3575-0.6833-0.4315-1.4564-0.6023-2.1756-0.9259-0.6473-0.4316-1.1148-0.953-1.6991-1.4654l-0.4136-0.8541c-0.3236-0.2157-0.7461-0.2966-0.9529-0.6562-0.3686-0.1709-0.8091 0-1.1238-0.3147 0.1888-0.0989 0.7282-0.3326 0.7282-0.5664-0.0719-0.0449-0.1258-0.1618-0.2427-0.1258-0.4135 0.5034-1.6542 1.1327-2.1666 0.4045 0.0809-0.1978-0.036-0.4225 0-0.6563 0.0449 0 0.0809 9e-3 0.1169-0.0089-0.036-0.027-0.0809-0.018-0.1169-0.036-0.027-0.1079 0.036-0.1798 0.1169-0.2517 0.1168 0.0809-0.036 0.3955 0.2247 0.3056 0.1528 0.1888 0.935-0.2067 0.9709-0.4495 0.3956-1.3485-1.1866-0.6023-1.789-0.845 0.0989-0.3057 0.054-0.3417 9e-3 -0.5664 0.3596-0.1978 0.4675-0.4675 0.4315-0.8721 0.8541-0.5304 1.9239 0.2158 2.8049 0.2158-0.1258-0.4315 0.0899-0.4225-0.3955-0.6113-0.3776 0.0719-0.7822 0.0719-1.1867 0.0719 0.0899-0.0449 0.2966-0.4225 0.4765-0.4135 0.2517-0.2248 1.9238-0.072 2.2564-0.063 0.1619-0.0989 0.3147-0.1977 0.5125-0.2157 0.1258-0.1349 0.2877 0.0359 0.4495 0zm-5.3401 1.0338c0 0.2518-0.2967 0.7552-0.5664 0.4675h9e-3c-9e-3 -0.0899-0.0449-0.1888-0.0449-0.3146 0.0719-0.1619 0.4585-0.2518 0.6023-0.1529zm0.9709 1.7621c-0.1168 0.0359-0.0989-0.0899-0.1708-0.1349-0.0629 0.1079 0.018 0.2787-0.0719 0.3956-0.1169-0.0629-0.1708-0.2158-0.2337-0.3236-0.1259 0.0539-0.072 0.2067-0.1349 0.3236-0.1079-0.045-0.2517-0.3147-0.2517-0.4225l0.899-0.036c9e-3 0.0629 0 0.1438-0.036 0.1978zm0.5574 0.3686c-0.1169 0.2427-0.3236 0.5304-0.6473 0.5304 0-0.3686 0.2607-0.5304 0.6473-0.5304z" fill="#fff500"/>
  </g>
 </g>
</svg>
