<?xml version="1.0" encoding="UTF-8"?>
<!-- Created with Inkscape (http://www.inkscape.org/) -->
<svg id="svg2922" width="682" height="744" version="1.1" xmlns="http://www.w3.org/2000/svg">
 <g id="g2985" transform="translate(-1.5 -1.5)">
  <path id="path28-1" d="m682.17 667.42c0 17.52-10.12 32.689-24.806 40.063-1.8328 0.9236-3.7305 1.73-5.7004 2.3974-4.5134 1.5279-9.3262 2.3938-14.35 2.3938h-130.67-6.1423-37.319-68.337c-15.135 0-28.937 5.6968-39.484 14.996l-5.3648 5.3612c-2.8826 3.2723-5.3702 6.882-7.497 10.726-2.1286-3.8441-4.6144-7.4538-7.497-10.726l-5.363-5.3612c-10.549-9.2991-24.353-14.996-39.489-14.996h-76.599-29.054-6.1387-130.68c-5.021 0-9.8328-0.8659-14.343-2.3938-1.97-0.66739-3.8719-1.4738-5.7085-2.3974-14.679-7.3743-24.802-22.543-24.802-40.063v-663.78h679.35v663.78z" fill="#fff"/>
  <g id="g3227" transform="translate(2.25e-6 -305.36)">
   <path id="path24" d="m105.68 694.58c-0.75476 2.8935-4.2861 3.3228-5.5472 0.66023 0 0-9.4712-16.726-14.415-27.156-2.6348 17.437-46.888 310.46-52.381 346.83 4.5101 1.7408 9.3219 2.7239 14.343 2.7239h130.68c-3.2777-19.59-55.819-333.75-60.014-358.81-4.1066 15.79-12.665 35.752-12.665 35.752z" fill="#1f1a16"/>
   <path id="path32" d="m71.321 563.47c0 14.752 25.123 21.871 25.123 35.295 0 15.304-26.043 8.9023-27.219 27.822-1.1754 18.921 28.995 27.998 34.083 38.835 3.1024 6.6077-1.4254 13.647-5.8914 15.436 14.343-1.5802 17.13-16.114 8.6322-26.458-8.498-10.344-12.89-8.8446-13.047-19.769-0.15694-10.926 30.907-13.629 30.907-29.438 0-15.405-24.705-23.75-25.78-39.121-0.94976-13.578 24.291-13.369 24.291-28.302 0-11.011-14.601-22.498-27.676-22.742 23.428 30.919-23.424 29.178-23.424 48.442z" fill="#da241d"/>
  </g>
  <g id="g3235" transform="translate(2.25e-6 -305.36)">
   <path id="path26" d="m213.55 309v708.63h76.599c15.137 0 28.94 5.6968 39.489 14.996l5.363 5.3612c2.8826 3.2723 5.3684 6.882 7.497 10.726 2.1268-3.8441 4.6144-7.4538 7.497-10.726l5.3648-5.3612c10.547-9.2991 24.349-14.996 39.484-14.996h68.337v-708.63h-249.63z" fill="#005ca1"/>
   <g id="g3207">
    <g id="g3189" fill="#fff500">
     <path id="path42" d="m312.46 815.2 2.5471-7e-3c-0.42212-0.45278-0.85866-0.8767-1.27-1.3493-0.41309 0.47803-0.85144 0.90376-1.2772 1.3565z"/>
     <path id="path44" d="m361.88 815.03 2.2296-0.0126c-0.368-0.39506-0.75584-0.76125-1.1112-1.1762-0.36258 0.4149-0.74862 0.7883-1.1184 1.1888z"/>
     <path id="path46" d="m263.02 815.37 2.87-0.0144c-0.47803-0.50329-0.9687-0.98132-1.4305-1.5171-0.46541 0.53576-0.95968 1.021-1.4395 1.5315z"/>
     <path id="path48" d="m284.63 769.93-3.1262 18.793 8.4206-1.3403 0.46722-18.326-5.7617 0.87309z"/>
     <path id="path50" d="m325.42 787.44 8.5018 1.3944 27.953-21.355-7.212-2.2134-29.243 22.174z"/>
     <path id="path52" d="m314.03 763.26-1.4377 0.25074-5.4135 0.42934v26.207h6.7683l0.083-26.887z"/>
     <path id="path54" d="m305.11 791.5-6.5157-23.155h-6.7683l-0.25255 23.155h13.537z"/>
     <path id="path56" d="m226.75 810.94c3.3192 3.0901 8.188 5.0455 12.261 5.9493-4.4484-22.809-7.3275-30.912-12.22-32.95l-0.0415 27.001z"/>
     <path id="path58" d="m370.4 772.26-10.416 10.638-91.952 4.995-0.81717-9.9323-11.641 9e-3 -2.3974-23.974-33.757-4.6252 4.8381 30.066 9.3082 6.8657 9.1296 30.621 0.18941 2e-3c6.6781 0 12.808-2.6121 17.664-6.9432 2.4281-2.1701 4.5314-4.7659 6.2235-7.6919 1.6957 2.9259 3.799 5.5218 6.2289 7.6919 4.8561 4.3312 10.982 6.9432 17.66 6.9432 6.6709 0 12.799-2.6121 17.657-6.9432 2.4299-2.1701 4.535-4.7659 6.2289-7.6919 1.6939 2.9259 3.7972 5.5218 6.2199 7.6919 4.8597 4.3312 10.989 6.9432 17.664 6.9432s12.804-2.6121 17.662-6.9432c2.4245-2.1701 4.526-4.7659 6.2235-7.6919 1.6903 2.9259 3.8008 5.5218 6.2289 7.6919 4.8597 4.3312 10.977 6.9432 17.651 6.9432 0.84603 0 1.6812-0.0415 2.5074-0.12447 1.4052-0.25615 2.8177-0.51952 4.2338-0.78831 4.0498-1.1148 7.7604-3.2055 10.93-6.0305 2.4208-2.1701 4.526-4.7659 6.2217-7.6919 2.3108 3.9957 5.5669 7.4303 9.1765 10.288 19.406-13.881 34.015-46.9 37.46-61.69l-50.219 11.339c48.873-43.869 48.309-150.12-26.319-164.59-40.003-7.7568-88.879-16.351-127.86-25.433 62.83 75.533 50.256 137.86 8.4031 204.01l59.28-11.793c17.444-3.1964 37.166 1.5189 50.392 7.8362z"/>
     <path id="path60" d="m265.6 791.5 12.313-23.155h5.2945l-4.0714 23.155h-13.537z"/>
     <path id="path62" d="m306.47 475.45h4.1454v111.74h-4.1454v-111.74z"/>
     <path id="path64" d="m251.12 565.96 129.19 25.042 2.3613 4.6198-130.75-25.711-0.80274-3.9506z"/>
     <path id="path66" d="m298.81 554.98h19.838l-3.7341 11.81h-12.746l-3.3571-11.81z"/>
     <path id="path68" d="m309.22 487.68-1.7841-0.28863-47.497 292.58 1.7841 0.29043 47.497-292.58z"/>
     <path id="path70" d="m277.72 573.04 27.611-9.2631 0.58808 1.7534-27.611 9.2631-0.58807-1.7534z"/>
     <path id="path72" d="m328.54 498.87c6.099 1.7498 7.5836 9.3442 14.029 10.273 5.3053 0.76486 11.036-3.6024 15.411-6.1189 7.3978-4.2446 10.856 4.5729 17.792 4.6108 6.7286 0.0253 13.955-4.0065 13.452-11.617-12.33 11.487-24.001-15.391-37.875-6.1062-2.2711 1.5189-5.5542 5.6985-8.5343 3.3751-2.9801-2.3252-5.2368-5.6282-7.1056-7.6305s-6.2361-4.342-11.213-3.781c-4.977 0.56282-11.942 7.5602-15.494 6.6582v16.408c8.4621 2.7059 8.9528-9.0863 19.538-6.072z"/>
    </g>
    <path id="path74" d="m457.85 805.49c-1.6921 2.9259-3.7954 5.5218-6.2235 7.6919-4.8597 4.3312-10.989 6.9432-17.664 6.9432-4.9084 0-9.5102-1.4323-13.542-3.9091-1.4467-0.88752-2.8303-1.8905-4.1147-3.0342-2.4299-2.1701-4.5314-4.7659-6.2235-7.6919-1.6957 2.9259-3.8008 5.5218-6.2235 7.6919-4.8597 4.3312-10.988 6.9432-17.669 6.9432-6.6745 0-12.792-2.6121-17.651-6.9432-2.4281-2.1701-4.5386-4.7659-6.2289-7.6919-1.6975 2.9259-3.799 5.5218-6.2235 7.6919-4.8579 4.3312-10.988 6.9432-17.662 6.9432s-12.804-2.6121-17.664-6.9432c-2.4226-2.1701-4.526-4.7659-6.2199-7.6919-1.6939 2.9259-3.799 5.5218-6.2289 7.6919-4.8579 4.3312-10.986 6.9432-17.657 6.9432-6.6781 0-12.804-2.6121-17.66-6.9432-2.4299-2.1701-4.5332-4.7659-6.2307-7.6919-1.6903 2.9259-3.7936 5.5218-6.2217 7.6919-4.8561 4.3312-10.986 6.9432-17.664 6.9432-2.1286 0-4.1706-0.35356-6.1604-0.85324-4.2608-1.0733-8.1879-3.1406-11.496-6.09-2.4281-2.1701-4.5296-4.7659-6.2253-7.6919l-4e-3 17.734c6.4959 6.0503 14.817 9.6816 23.886 9.6816 8.4459 0 16.221-3.1713 22.493-8.4856 0.46722-0.39866 0.94525-0.77748 1.3962-1.196 0.44917 0.41851 0.9236 0.79011 1.3872 1.1852 6.274 5.3197 14.051 8.4964 22.5 8.4964 8.5126 0 16.343-3.2254 22.646-8.6227 0.41309-0.35356 0.83882-0.68548 1.2393-1.0589 0.39867 0.368 0.82078 0.69992 1.2303 1.0535 6.2992 5.4027 14.135 8.6281 22.653 8.6281 8.5866 0 16.479-3.2777 22.801-8.7544 0.35718-0.31208 0.73419-0.60431 1.0842-0.92721 0.34455 0.3229 0.72156 0.60972 1.0787 0.91819 6.3227 5.4803 14.211 8.7634 22.801 8.7634 9.0791 0 17.401-3.6313 23.893-9.6816 6.4923 6.0503 14.808 9.6816 23.88 9.6816 9.0845 0 17.393-3.6313 23.895-9.6816l-7e-3 -17.734z" fill="#fff"/>
   </g>
  </g>
  <g id="g3231" transform="translate(2.25e-6 -305.36)">
   <path id="path30" d="m581.43 694.75c0.75583 2.8953 4.2861 3.3246 5.547 0.66023 0 0 9.4597-16.89 14.404-27.32 2.6337 17.437 46.9 310.63 52.393 347-4.5098 1.739-9.3226 2.7221-14.343 2.7221h-130.68c3.2777-19.589 55.851-333.94 60.047-359 4.1057 15.79 12.633 35.937 12.633 35.937z" fill="#1f1a16"/>
   <path id="path76" d="m554.04 563.55c0 14.751 25.125 21.871 25.125 35.293 0 15.304-26.045 8.9023-27.219 27.823-1.1762 18.919 28.994 27.997 34.081 38.835 3.1027 6.6077-1.4251 13.647-5.8898 15.436 14.343-1.582 17.13-16.114 8.6317-26.46-8.4982-10.344-12.891-8.8428-13.048-19.769-0.15694-10.924 30.908-13.629 30.908-29.438 0-15.404-24.706-23.748-25.78-39.121-0.95066-13.576 24.291-13.367 24.291-28.3 0-11.013-14.603-22.5-27.677-22.744 23.429 30.919-23.424 29.178-23.424 48.444z" fill="#da241d"/>
  </g>
  <path id="path28" d="m682.17 667.42c0 17.52-10.12 32.689-24.806 40.063-1.8328 0.9236-3.7305 1.73-5.7004 2.3974-4.5134 1.5279-9.3262 2.3938-14.35 2.3938h-130.67-6.1423-37.319-68.337c-15.135 0-28.937 5.6968-39.484 14.996l-5.3648 5.3612c-2.8826 3.2723-5.3702 6.882-7.497 10.726-2.1286-3.8441-4.6144-7.4538-7.497-10.726l-5.363-5.3612c-10.549-9.2991-24.353-14.996-39.489-14.996h-76.599-29.054-6.1387-130.68c-5.021 0-9.8327-0.8659-14.343-2.3938-1.97-0.6674-3.8719-1.4738-5.7085-2.3974-14.679-7.3743-24.802-22.543-24.802-40.063v-663.78h679.35v663.78z" fill="none" stroke="#1f1a16" stroke-width="1.8037"/>
 </g>
</svg>
