<?xml version="1.0" encoding="UTF-8"?>
<svg width="800" height="533.68" version="1.1" xmlns="http://www.w3.org/2000/svg" xmlns:xlink="http://www.w3.org/1999/xlink">
 <defs>
  <linearGradient id="a">
   <stop stop-color="#00adef" offset="0"/>
   <stop stop-color="#46c3f3" offset=".5"/>
   <stop stop-color="#8cd9f7" offset="1"/>
  </linearGradient>
  <linearGradient id="d" x1="-347.32" x2="-295.76" y1="592.96" y2="624.08" gradientUnits="userSpaceOnUse">
   <stop stop-color="#00adef" offset="0"/>
   <stop stop-color="#46c3f3" offset=".56234"/>
   <stop stop-color="#8cd9f7" offset="1"/>
  </linearGradient>
  <linearGradient id="c" x1="-346.49" x2="-408.37" y1="654.37" y2="654.37" gradientUnits="userSpaceOnUse" xlink:href="#a"/>
  <linearGradient id="b" x1="-310.32" x2="-295.11" y1="663.9" y2="673.45" gradientUnits="userSpaceOnUse" xlink:href="#a"/>
 </defs>
 <g transform="translate(980.31 -878.11)">
  <rect x="-980.31" y="878.11" width="800" height="533.68" fill="#009bde"/>
  <path d="m-616.91 993.04v6.2895h73.542v-6.2895h-73.542z" fill="#ccc" stroke="#000" stroke-width="1.2"/>
  <g transform="matrix(.50328 0 0 .50316 -333.22 598.85)" fill="#fff" stroke="#000" stroke-width="1.5898">
   <path d="m-622.71 1522.9v41.75h264.15v-41.75h-264.15z"/>
   <path d="m-594.93 1494.4c-8.9283 9.5201-15.463 19.19-27.75 28.5h264.12c-12.287-9.3102-18.822-18.98-27.75-28.5h-208.62z"/>
   <path d="m-561.05 925.68v12.5h140.88v-12.5h-140.88z"/>
   <path d="m-583.58 1339.4v132.44h185.94v-132.44h-185.94z"/>
   <path d="m-587.18 1263.7c-4.432 0-8 3.568-8 8v12.75c0 4.432 3.568 8 8 8h193.12c4.432 0 8-3.568 8-8v-12.75c0-4.432-3.568-8-8-8h-193.12z"/>
   <path d="m-564.68 907.02c-3.6236 0-6.5312 2.9077-6.5312 6.5312v9.1875c0 3.6236 2.9077 6.5312 6.5312 6.5312h148.12c3.6236 0 6.5312-2.9077 6.5312-6.5312v-9.1875c0-3.6236-2.9077-6.5312-6.5312-6.5312h-148.12z"/>
   <path d="m-570.68 794.43v20.75h160.12v-20.75h-160.12z"/>
   <path d="m-579.93 812.68v18.5h178.62v-18.5h-178.62z"/>
   <path d="m-554.43 938.21-16.5 325.47h160.62l-16.5-325.47h-127.62z"/>
   <path d="m-579.83 831.05c17.476 24.523 13.15 58.92 26.375 75.969h125.69c13.225-17.049 8.8991-51.446 26.375-75.969h-178.44z"/>
   <path d="m-595.93 1320.2v22.25h210.62v-22.25h-210.62z"/>
   <path transform="translate(-125.05 76.625)" d="m-289.5 1372.6c0 4.1421-3.3579 7.5-7.5 7.5s-7.5-3.3579-7.5-7.5c0-4.1422 3.3579-7.5 7.5-7.5s7.5 3.3578 7.5 7.5z"/>
   <path d="m-528.65 1356.6c0 14.755-17.026 30.938-30.938 30.938v45.125c14.249 0 31.125 14.71 31.125 31.125h75.656c0-16.415 16.876-31.125 31.125-31.125v-45.125c-13.911 0-30.938-16.183-30.938-30.938h-76.031z"/>
   <path d="m-519.3 1382.3c-2.3586 3.5032-3.592 6.0622-9.2812 8.9376v32.5c4.7461 3.0965 6.4729 4.2011 9.375 9.0312h57.156c2.9021-4.8301 4.6289-5.9347 9.375-9.0312v-32.5c-5.6892-2.8754-6.9227-5.4344-9.2812-8.9376h-57.344z"/>
   <path transform="translate(-125.05 -12.375)" d="m-289.5 1372.6c0 4.1421-3.3579 7.5-7.5 7.5s-7.5-3.3579-7.5-7.5c0-4.1422 3.3579-7.5 7.5-7.5s7.5 3.3578 7.5 7.5z"/>
   <path d="m-438.66 851.51c-0.78129-6.1283-0.64914-11.373-9.6343-17.501-11.06 4.0712-17.716 10.55-18.65 22.009"/>
   <g transform="translate(0 -.21644)">
    <path transform="translate(-125.05 75.625)" d="m-365.57 1183.7c8.3109 0 10.174-4.9765 11.699-8.3085 0 0 3.0026 8.3085 10.575 8.3085s10.175-8.3085 10.175-8.3085 1.9251 8.214 8.75 8.3085c6.8249 0.094 9.25-8.3085 9.25-8.3085s1.1859 8.3085 8.625 8.3085 8.625-8.3085 8.625-8.3085 0.0221 8.3085 5.4969 8.3085c5.4747 0 6.5031-8.371 6.5031-8.371"/>
    <path d="m-490.63 941.48c6.7655 0 8.2826 3.4792 9.5238 5.8087 0 0 2.4443-5.8087 8.6084-5.8087s8.2833 5.8087 8.2833 5.8087 1.5672-5.7427 7.123-5.8087c5.5558-0.0657 7.53 5.8087 7.53 5.8087s0.96538-5.8087 7.0212-5.8087 7.0212 5.8087 7.0212 5.8087 0.018-5.8087 4.4747-5.8087 4.6351 5.8087 4.6351 5.8087"/>
    <path transform="translate(-125.05 75.625)" d="m-297.94 1175.4-12.482-304.23"/>
    <path transform="translate(-125.05 75.625)" d="m-315.06 1175.4-9.3438-304.23"/>
    <path transform="translate(-125.05 75.625)" d="m-333.14 1175.4-6.0546-304.23"/>
    <path transform="translate(-125.05 75.625)" d="m-353.92 1175.4-2.0511-304.23"/>
   </g>
   <path transform="translate(-265.05 76.625)" d="m-289.5 1372.6c0 4.1421-3.3579 7.5-7.5 7.5s-7.5-3.3579-7.5-7.5c0-4.1422 3.3579-7.5 7.5-7.5s7.5 3.3578 7.5 7.5z"/>
   <path transform="translate(-265.05 -12.375)" d="m-289.5 1372.6c0 4.1421-3.3579 7.5-7.5 7.5s-7.5-3.3579-7.5-7.5c0-4.1422 3.3579-7.5 7.5-7.5s7.5 3.3578 7.5 7.5z"/>
   <g transform="matrix(-1 0 0 1 -981.24 -.21644)">
    <path transform="translate(-125.05 75.625)" d="m-365.57 1183.7c8.3109 0 10.174-4.9765 11.699-8.3085 0 0 3.0026 8.3085 10.575 8.3085s10.175-8.3085 10.175-8.3085 1.9251 8.214 8.75 8.3085c6.8249 0.094 9.25-8.3085 9.25-8.3085s1.1859 8.3085 8.625 8.3085 8.625-8.3085 8.625-8.3085 0.0221 8.3085 5.4969 8.3085c5.4747 0 6.5656-8.3085 6.5656-8.3085"/>
    <path d="m-490.63 941.48c6.7655 0 8.2826 3.4792 9.5238 5.8087 0 0 2.4443-5.8087 8.6084-5.8087s8.2833 5.8087 8.2833 5.8087 1.5672-5.7427 7.123-5.8087c5.5558-0.0657 7.53 5.8087 7.53 5.8087s0.96538-5.8087 7.0212-5.8087 7.0212 5.8087 7.0212 5.8087 0.018-5.8087 4.4747-5.8087 4.7235 5.8087 4.7235 5.8087"/>
    <path transform="translate(-125.05 75.625)" d="m-297.94 1175.4-12.482-304.23"/>
    <path transform="translate(-125.05 75.625)" d="m-315.06 1175.4-9.3438-304.23"/>
    <path transform="translate(-125.05 75.625)" d="m-333.14 1175.4-6.0546-304.23"/>
    <path transform="translate(-125.05 75.625)" d="m-353.92 1175.4-2.0511-304.23"/>
   </g>
   <path d="m-543.69 851.51c0.78129-6.1283 0.64914-11.373 9.6343-17.501 11.06 4.0712 17.716 10.55 18.65 22.009"/>
   <path d="m-490.62 835.53c-3.3678 1.2858-20.221 10.578-12.656 25.75 0.98968 1.9849-1.5327 3.8826-3.25 1.4375-15.779-22.466-34.821 16.317-8.9375 14.312 0 0-0.4064-5.6163 4.6562-5.1875 4.373 0.3704 5.4095 7.4316 4.6562 10.312-3.5531 13.588-22.806 13.341-34.531 4.25-4.945-3.8341-9.2277-14.27-5.1562-17.438 4.4355-3.4507 6.093 2.2083 3.625 4.125 29.059-1.9091 0.819-39.435-10.25-11.125-0.888 2.2711-2.3983 1.0159-2.1875-0.3125 5.5001-34.658-36.651-20.566-21.312-5.125 0.84217-3.7271 10.338-1.4277 13.812 13.469 9.261 39.71 52.625 47.477 71.531 20.281 18.906 27.195 62.239 19.429 71.5-20.281 3.4741-14.896 12.97-17.196 13.812-13.469 15.338-15.441-26.813-29.533-21.312 5.125 0.21082 1.3284-1.2995 2.5836-2.1875 0.3125-11.069-28.31-39.309 9.2159-10.25 11.125-2.468-1.9167-0.81052-7.5757 3.625-4.125 4.0715 3.1674-0.2113 13.603-5.1562 17.438-11.725 9.0912-30.978 9.3385-34.531-4.25-0.75329-2.8809 0.28329-9.9421 4.6562-10.312 5.0626-0.4288 4.6562 5.1875 4.6562 5.1875 25.883 2.0042 6.8413-36.779-8.9375-14.312-1.7173 2.4451-4.2397 0.5474-3.25-1.4375 7.5647-15.172-9.2572-24.464-12.625-25.75z"/>
   <path d="m-591.43 1469.2c-5.54 0-10 4.46-10 10v5.25c0 5.54 4.46 10 10 10h201.62c5.54 0 10-4.46 10-10v-5.25c0-5.54-4.46-10-10-10h-201.62z"/>
   <path d="m-609.18 1292.4v32.5h237.12v-32.5h-237.12z"/>
  </g>
  <g transform="matrix(.50328 0 0 .50316 -333.22 598.85)">
   <g transform="translate(0 205.17)">
    <g stroke="#000">
     <path transform="matrix(1.0367 0 0 .96215 -111.68 95.82)" d="m-289.7 504.99h-149.83c0-8.2843 33.238-16.102 74.659-16.102s75.171 7.8181 75.171 16.102z" fill="#800000" stroke-width=".99488"/>
     <g transform="translate(0 -60.811)" stroke-width=".9936">
      <path d="m-312.8 632.97c10.559-5.2192 23.412-1.1778 25.75-6.25 8.1962-17.784-14.132-11.472-29.188-20.812-4.6294-2.8721-10.827-16.972-17.609-21.655-11.067-7.6416-22.516-5.1985-22.516 0.65505 0 28.81 38.529 54.811 43.562 48.062z" fill="url(#d)"/>
      <path d="m-356.45 584.13c1.7652 18.885 18.189 21.188 19.915 26.617 3.5995 12.222-17.682 27.323-18.324 26.681 1.4689-15.598-3.8193-39.156-1.591-53.298z" fill="#00adef"/>
      <path d="m-428.05 635.72c7.2079 34.461 82.487 31.782 89 12 1.7566-5.3354-0.1203-11.621 1.0175-17.445 1.1027-5.6443 5.3104-10.764 1.4825-19.805 2.0935 25.676-64.071 45.808-82.5 30.5-3.6338-3.6338-5.2219-3.0461-9-5.25z" fill="url(#c)"/>
      <path d="m-297.32 654.31c-0.16981-5.2949 8.7853-22.758 10.479-28.314-4.9974 7.207-22.686 0.1255-26.072 2.0144-9.8029 6.5353 10.118 24.931 15.593 26.299z" fill="#00aeef"/>
      <path d="m-291.22 680.92c9.2201 9.6859 7.6259 20.707 6.7175 25.102 8.0595-7.6737 8.2904-15.138 7.2478-22.627-4.7097-33.832-39.864-36.912-36.151-55.331-2.8148 0.43271-4.1763 5.5163-1.6778 21.52-5.5198 4.818-4.0531 12.071 0.88229 17.37 9.0913 9.7611 21.886 21.601 9.8995 42.957 10.461-2.912 12.272-18.817 13.081-28.991z" fill="url(#b)"/>
     </g>
     <g transform="matrix(-1 0 0 1 -982.87 -60.811)" stroke-width=".9936">
      <path d="m-312.8 632.97c10.559-5.2192 23.412-1.1778 25.75-6.25 8.1962-17.784-14.132-11.472-29.188-20.812-4.6294-2.8721-10.827-16.972-17.609-21.655-11.067-7.6416-22.516-5.1985-22.516 0.65505 0 28.81 38.529 54.811 43.562 48.062z" fill="url(#d)"/>
      <path d="m-356.45 584.13c1.7652 18.885 18.189 21.188 19.915 26.617 3.5995 12.222-17.682 27.323-18.324 26.681 1.4689-15.598-3.8193-39.156-1.591-53.298z" fill="#00adef"/>
      <path d="m-428.05 635.72c7.2079 34.461 82.487 31.782 89 12 1.7566-5.3354-0.1203-11.621 1.0175-17.445 1.1027-5.6443 5.3104-10.764 1.4825-19.805 2.0935 25.676-64.071 45.808-82.5 30.5-3.6338-3.6338-5.2219-3.0461-9-5.25z" fill="url(#c)"/>
      <path d="m-297.32 654.31c-0.16981-5.2949 8.7853-22.758 10.479-28.314-4.9974 7.207-22.686 0.1255-26.072 2.0144-9.8029 6.5353 10.118 24.931 15.593 26.299z" fill="#00aeef"/>
      <path d="m-291.22 680.92c9.2201 9.6859 7.6259 20.707 6.7175 25.102 8.0595-7.6737 8.2904-15.138 7.2478-22.627-4.7097-33.832-39.864-36.912-36.151-55.331-2.8148 0.43271-4.1763 5.5163-1.6778 21.52-5.5198 4.818-4.0531 12.071 0.88229 17.37 9.0913 9.7611 21.886 21.601 9.8995 42.957 10.461-2.912 12.272-18.817 13.081-28.991z" fill="url(#b)"/>
     </g>
    </g>
    <path d="m-497.61 382.39 4.5962 16.591-16.591-4.5962v15.364l16.591-4.5962-4.5962 16.591h15.364l-4.5962-16.591 16.591 4.5962v-15.364l-16.591 4.5962 4.5962-16.591z" fill="#f3cd00" stroke="#000" stroke-width=".9936"/>
    <g fill="#9a6105" stroke="#000">
     <path transform="matrix(1.0558 0 0 1.2236 -121.39 -15.336)" d="m-328.45 383.66c0 4.1981-2.3546 7.6014-5.2591 7.6014s-5.2591-3.4033-5.2591-7.6014 2.3546-7.6014 5.2591-7.6014 5.2591 3.4033 5.2591 7.6014z" stroke-width=".87421"/>
     <path transform="matrix(1.1092 0 0 1.4826 -86.657 -110.48)" d="m-328.45 383.66c0 4.1981-2.3546 7.6014-5.2591 7.6014s-5.2591-3.4033-5.2591-7.6014 2.3546-7.6014 5.2591-7.6014 5.2591 3.4033 5.2591 7.6014z" stroke-width=".77481"/>
     <path transform="matrix(-1.0558 0 0 1.2236 -858.7 -15.336)" d="m-328.45 383.66c0 4.1981-2.3546 7.6014-5.2591 7.6014s-5.2591-3.4033-5.2591-7.6014 2.3546-7.6014 5.2591-7.6014 5.2591 3.4033 5.2591 7.6014z" stroke-width=".87421"/>
     <path transform="matrix(-1.1092 0 0 1.4826 -893.61 -110.48)" d="m-328.45 383.66c0 4.1981-2.3546 7.6014-5.2591 7.6014s-5.2591-3.4033-5.2591-7.6014 2.3546-7.6014 5.2591-7.6014 5.2591 3.4033 5.2591 7.6014z" stroke-width=".77481"/>
    </g>
    <g stroke="#000">
     <path transform="translate(-125.05 76.65)" d="m-351.12 356.88c0 7.6152-6.1734 13.789-13.789 13.789-7.6152 0-13.789-6.1734-13.789-13.789 0-7.6152 6.1734-13.789 13.789-13.789 7.6152 0 13.789 6.1734 13.789 13.789z" fill="#f4c901" stroke-width=".9936"/>
     <path d="m-489.99 419.32c-1.25 0.0101-3.1591 0.1307-3.4375 0.6875v10.062c-2.9833 0.2333-7.9898 0.41951-10.062 1.5625-0.69667 0.38417-1.8292 5.5668 0.9375 4.625 3.8752-1.3192 8.8511-1.4375 12.562-1.4375s8.6872 0.11831 12.562 1.4375c2.7668 0.94184 1.6342-4.2408 0.9375-4.625-2.0727-1.143-7.0792-1.3292-10.062-1.5625v-10.062c-0.2784-0.5568-2.1875-0.67739-3.4375-0.6875z" fill="#c68413" stroke-width=".9936"/>
     <rect transform="matrix(.9261 -.37728 .9261 .37728 0 0)" x="-1008.6" y="466.7" width="12.884" height="12.884" fill="#f3cd00" stroke-width="1.1886"/>
     <path transform="translate(-125.05 76.291)" d="m-288.78 426.7c0 25.97-34.064 47.023-76.084 47.023s-76.084-21.053-76.084-47.023 34.064-47.023 76.084-47.023 76.084 21.053 76.084 47.023z" fill="#880523" stroke-width=".9936"/>
     <path transform="translate(-125.05 75.625)" d="m-373.56 369.62c-3.7376 0.10676-7.0866 0.60735-6.3125 1.875 5.8314 9.6436 9.2612 42.256 9.5 51.5 1.3303-0.22171 4.7561-1.8852 5.5-3.125 0.7439 1.2398 4.1697 2.9033 5.5 3.125 0.23879-9.2443 3.6686-41.856 9.5-51.5 1.5482-2.5353-13.352-2.0144-15-1.375-0.82378-0.31967-4.9499-0.60676-8.6875-0.5z" fill="#c68413" stroke-width=".9936"/>
    </g>
    <g transform="translate(1.75)" stroke-width=".5">
     <path d="m-414.95 556.42c7.3721-11.306 18.724-21.12 23.102-31.752 15.732-38.202-8.8127-74.451-51.533-72.461-9.6468 17.061-36.24 77.289-43.969 86.967 20.312 8.2263 77.215 28.952 72.4 17.246z" fill="#d59b11"/>
     <g stroke-width=".5">
      <g transform="translate(-.7955 3.5355)">
       <path transform="translate(-125.05 75.625)" d="m-279.66 446.41-2.5633-9.3692 7.955-2.8284z" fill="#d0a609"/>
       <path transform="translate(-125.05 75.625)" d="m-282.58 437.13 2.8284 9.3692-13.17-6.8059z" fill="#ce8a14"/>
       <path transform="translate(-125.05 75.625)" d="m-286.56 427.5 4.4194 9.8111 7.8666-3.0052z" fill="#f2cc00"/>
       <path transform="translate(-125.05 75.625)" d="m-286.64 427.32-6.1086 12.307 10.586-2.3918z" fill="#e9c002"/>
      </g>
      <g transform="matrix(.98973 -.1327 .077426 1 -57.136 -56.615)">
       <path transform="translate(-125.05 75.625)" d="m-279.66 446.41-2.5633-9.3692 7.955-2.8284z" fill="#d0a609"/>
       <path transform="translate(-125.05 75.625)" d="m-282.58 437.13 2.8284 9.3692-13.17-6.8059z" fill="#ce8a14"/>
       <path transform="translate(-125.05 75.625)" d="m-286.56 427.5 4.4194 9.8111 7.8666-3.0052z" fill="#f2cc00"/>
       <path transform="translate(-125.05 75.625)" d="m-286.64 427.32-6.1086 12.307 10.586-2.3918z" fill="#e9c002"/>
      </g>
      <g transform="matrix(.98973 -.20128 .077426 .99464 -70.041 -86.837)">
       <path transform="translate(-125.05 75.625)" d="m-279.66 446.41-2.5633-9.3692 7.955-2.8284z" fill="#d0a609"/>
       <path transform="translate(-125.05 75.625)" d="m-282.58 437.13 2.8284 9.3692-13.17-6.8059z" fill="#ce8a14"/>
       <path transform="translate(-125.05 75.625)" d="m-286.56 427.5 4.4194 9.8111 7.8666-3.0052z" fill="#f2cc00"/>
       <path transform="translate(-125.05 75.625)" d="m-286.64 427.32-6.1086 12.307 10.586-2.3918z" fill="#e9c002"/>
      </g>
      <g transform="matrix(.98973 -.20128 .077426 .99464 -83.188 -91.072)">
       <path transform="translate(-125.05 75.625)" d="m-279.66 446.41-2.5633-9.3692 7.955-2.8284z" fill="#d0a609"/>
       <path transform="translate(-125.05 75.625)" d="m-282.58 437.13 2.8284 9.3692-13.17-6.8059z" fill="#ce8a14"/>
       <path transform="translate(-125.05 75.625)" d="m-286.56 427.5 4.4194 9.8111 7.8666-3.0052z" fill="#f2cc00"/>
       <path transform="translate(-125.05 75.625)" d="m-286.64 427.32-6.1086 12.307 10.586-2.3918z" fill="#e9c002"/>
      </g>
      <g transform="matrix(1.0042 .021402 .072187 .99739 -22.647 20.412)">
       <path transform="translate(-125.05 75.625)" d="m-280.93 441.55-1.2944-4.5086 3.5093-0.72779z" fill="#d0a609"/>
       <path transform="translate(-125.05 75.625)" d="m-282.2 437.12 1.1888 3.9936-1.9426 3.2592-9.9616-4.6815z" fill="#ce8a14"/>
       <path transform="translate(-125.05 75.625)" d="m-286.56 427.5 4.4194 9.8111 3.8368-1.4657 1.4178-3.3007z" fill="#f2cc00"/>
       <path transform="translate(-125.05 75.625)" d="m-286.64 427.32-6.1086 12.307 10.586-2.3918z" fill="#e9c002"/>
      </g>
      <g transform="matrix(.9937 -.11207 .11207 .9937 -55.574 -51.966)">
       <path transform="translate(-125.05 75.625)" d="m-279.66 446.41-2.5633-9.3692 7.955-2.8284z" fill="#d0a609"/>
       <path transform="translate(-125.05 75.625)" d="m-282.58 437.13 2.8284 9.3692-13.17-6.8059z" fill="#ce8a14"/>
       <path transform="translate(-125.05 75.625)" d="m-286.56 427.5 4.4194 9.8111 7.8666-3.0052z" fill="#f2cc00"/>
       <path transform="translate(-125.05 75.625)" d="m-286.64 427.32-6.1086 12.307 10.586-2.3918z" fill="#e9c002"/>
      </g>
      <g transform="matrix(.98973 -.1327 .077426 1 -52.432 -70.255)">
       <path transform="translate(-125.05 75.625)" d="m-279.66 446.41-2.5633-9.3692 7.955-2.8284z" fill="#d0a609"/>
       <path transform="translate(-125.05 75.625)" d="m-282.58 437.13 2.8284 9.3692-13.17-6.8059z" fill="#ce8a14"/>
       <path transform="translate(-125.05 75.625)" d="m-286.56 427.5 4.4194 9.8111 7.8666-3.0052z" fill="#f2cc00"/>
       <path transform="translate(-125.05 75.625)" d="m-286.64 427.32-6.1086 12.307 10.586-2.3918z" fill="#e9c002"/>
      </g>
      <g transform="matrix(.98973 -.20128 .077426 .99464 -65.955 -100.74)">
       <path transform="translate(-125.05 75.625)" d="m-279.66 446.41-2.5633-9.3692 7.955-2.8284z" fill="#d0a609"/>
       <path transform="translate(-125.05 75.625)" d="m-282.58 437.13 2.8284 9.3692-13.17-6.8059z" fill="#ce8a14"/>
       <path transform="translate(-125.05 75.625)" d="m-286.56 427.5 4.4194 9.8111 7.8666-3.0052z" fill="#f2cc00"/>
       <path transform="translate(-125.05 75.625)" d="m-286.64 427.32-6.1086 12.307 10.586-2.3918z" fill="#e9c002"/>
      </g>
      <g transform="matrix(.98973 -.20128 .077426 .99464 -79.455 -105.24)">
       <path transform="translate(-125.05 75.625)" d="m-279.66 446.41-2.5633-9.3692 7.955-2.8284z" fill="#d0a609"/>
       <path transform="translate(-125.05 75.625)" d="m-282.58 437.13 2.8284 9.3692-13.17-6.8059z" fill="#ce8a14"/>
       <path transform="translate(-125.05 75.625)" d="m-286.56 427.5 4.4194 9.8111 7.8666-3.0052z" fill="#f2cc00"/>
       <path transform="translate(-125.05 75.625)" d="m-286.64 427.32-6.1086 12.307 10.586-2.3918z" fill="#e9c002"/>
      </g>
      <g transform="matrix(1.0042 .021402 .072187 .99739 -17.235 8.4508)">
       <path transform="translate(-125.05 75.625)" d="m-281.4 437.23-0.21526 3.0803-1.536 4.1939-9.7656-4.8111z" fill="#ce8a14"/>
       <path transform="translate(-125.05 75.625)" d="m-286.56 427.5 4.3548 9.8438 1.1828-0.0733 1.3554-6.4053z" fill="#f2cc00"/>
       <path transform="translate(-125.05 75.625)" d="m-286.64 427.32-6.1086 12.307 10.586-2.3918z" fill="#e9c002"/>
      </g>
      <g transform="translate(10.008 -22.037)">
       <path transform="translate(-125.05 75.625)" d="m-279.66 446.41-2.5633-9.3692 7.955-2.8284z" fill="#d0a609"/>
       <path transform="translate(-125.05 75.625)" d="m-282.58 437.13 2.8284 9.3692-13.17-6.8059z" fill="#ce8a14"/>
       <path transform="translate(-125.05 75.625)" d="m-286.56 427.5 4.4194 9.8111 7.8666-3.0052z" fill="#f2cc00"/>
       <path transform="translate(-125.05 75.625)" d="m-286.64 427.32-6.1086 12.307 10.586-2.3918z" fill="#e9c002"/>
      </g>
      <g transform="matrix(.98973 -.1327 .077426 1 -47.394 -83.159)">
       <path transform="translate(-125.05 75.625)" d="m-279.66 446.41-2.5633-9.3692 7.955-2.8284z" fill="#d0a609"/>
       <path transform="translate(-125.05 75.625)" d="m-282.58 437.13 2.8284 9.3692-13.17-6.8059z" fill="#ce8a14"/>
       <path transform="translate(-125.05 75.625)" d="m-286.56 427.5 4.4194 9.8111 7.8666-3.0052z" fill="#f2cc00"/>
       <path transform="translate(-125.05 75.625)" d="m-286.64 427.32-6.1086 12.307 10.586-2.3918z" fill="#e9c002"/>
      </g>
      <g transform="matrix(.98973 -.20128 .077426 .99464 -60.564 -114.44)">
       <path transform="translate(-125.05 75.625)" d="m-279.66 446.41-2.5633-9.3692 7.955-2.8284z" fill="#d0a609"/>
       <path transform="translate(-125.05 75.625)" d="m-282.58 437.13 2.8284 9.3692-13.17-6.8059z" fill="#ce8a14"/>
       <path transform="translate(-125.05 75.625)" d="m-286.56 427.5 4.4194 9.8111 7.8666-3.0052z" fill="#f2cc00"/>
       <path transform="translate(-125.05 75.625)" d="m-286.64 427.32-6.1086 12.307 10.586-2.3918z" fill="#e9c002"/>
      </g>
      <g transform="matrix(.98973 -.20128 .077426 .99464 -73.975 -119.03)">
       <path transform="translate(-125.05 75.625)" d="m-279.66 446.41-2.5633-9.3692 7.955-2.8284z" fill="#d0a609"/>
       <path transform="translate(-125.05 75.625)" d="m-282.58 437.13 2.8284 9.3692-13.17-6.8059z" fill="#ce8a14"/>
       <path transform="translate(-125.05 75.625)" d="m-286.56 427.5 4.4194 9.8111 7.8666-3.0052z" fill="#f2cc00"/>
       <path transform="translate(-125.05 75.625)" d="m-286.64 427.32-6.1086 12.307 10.586-2.3918z" fill="#e9c002"/>
      </g>
      <g transform="matrix(1.0042 .021402 .072187 .99739 -12.462 -4.2771)">
       <path transform="translate(-125.05 75.625)" d="m-284.96 437.85-0.40497 5.9824-7.5524-4.1349z" fill="#ce8a14"/>
       <path transform="translate(-125.05 75.625)" d="m-286.27 426.43-6.481 13.202 7.7517-1.5334c0.80555-5.424-0.20987-8.7718-1.2707-11.668z" fill="#e9c002"/>
      </g>
      <g transform="matrix(.96522 -.26143 .26143 .96522 -135.07 -123.29)">
       <path transform="translate(-125.05 75.625)" d="m-281.14 437.07 1.0438 10.699-11.723-10.234z" fill="#ce8a14"/>
       <path transform="translate(-125.05 75.625)" d="m-285.35 425.75-6.3032 11.843 10.303-0.49981z" fill="#e9c002"/>
      </g>
      <g transform="matrix(.97153 -.23086 .17689 .98727 -101.93 -130.25)">
       <path transform="translate(-125.05 75.625)" d="m-280.47 447.39-1.7492-10.343 7.2241-0.31348z" fill="#d0a609"/>
       <path transform="translate(-125.05 75.625)" d="m-282.58 437.13 2.2449 10.576-12.092-8.4787z" fill="#ce8a14"/>
       <path transform="translate(-125.05 75.625)" d="m-285.32 425.23 3.1884 12.075 6.846-0.64755z" fill="#f2cc00"/>
       <path transform="translate(-125.05 75.625)" d="m-285.44 425.19-7.0992 14.001 10.369-1.9502z" fill="#e9c002"/>
      </g>
      <g transform="matrix(.96868 -.2859 .16293 .98425 -108.86 -157.2)">
       <path transform="translate(-125.05 75.625)" d="m-279.66 446.41-2.5633-9.3692 7.955-2.8284z" fill="#d0a609"/>
       <path transform="translate(-125.05 75.625)" d="m-282.58 437.13 2.8284 9.3692-13.17-6.8059z" fill="#ce8a14"/>
       <path transform="translate(-125.05 75.625)" d="m-286.98 425.98 4.8487 11.328 7.8666-3.0052c-4.154-2.6814-7.1077-7.0654-12.715-8.3225z" fill="#f2cc00"/>
       <path transform="translate(-125.05 75.625)" d="m-286.88 426-5.8752 13.632 10.586-2.3918z" fill="#e9c002"/>
      </g>
      <g transform="matrix(.95092 -.34032 .21843 .97344 -158.21 -177.36)">
       <path transform="translate(-125.05 75.625)" d="m-279.99 446.43-2.2318-9.3817 8.5396-3.3504z" fill="#d0a609"/>
       <path transform="translate(-125.05 75.625)" d="m-282.58 437.13 2.8284 9.3692-13.17-6.8059z" fill="#ce8a14"/>
       <path transform="translate(-125.05 75.625)" d="m-286.56 427.5 4.4194 9.8111 8.6479-3.7763c-4.0276-3.0461-8.6192-4.3141-13.067-6.0348z" fill="#f2cc00"/>
       <path transform="translate(-125.05 75.625)" d="m-286.64 427.32-6.1086 12.307 10.586-2.3918z" fill="#e9c002"/>
      </g>
     </g>
     <path d="m-414.95 556.42c7.3721-11.306 18.724-21.12 23.102-31.752 15.732-38.202-8.8127-74.451-51.533-72.461-8.5547 15.13-26.797 70.308-41.292 83.214-1.9646 1.7493 0.94794 5.4071 0.0729 6.5027 20.312 8.2263 74.465 26.202 69.65 14.496z" fill="none" stroke="#000" stroke-width=".9936"/>
    </g>
    <g transform="matrix(-1 0 0 1 -982.02 0)" stroke-width=".5">
     <path d="m-414.95 556.42c7.3721-11.306 18.724-21.12 23.102-31.752 15.732-38.202-8.8127-74.451-51.533-72.461-8.5878 15.188-27.1 65.926-40.695 83.894-1.5194 2.0083 0.32381 4.7601-0.5247 5.8225 20.312 8.2263 74.465 26.202 69.65 14.496z" fill="#d59b11"/>
     <g stroke-width=".5">
      <g transform="translate(-.7955 3.5355)">
       <path transform="translate(-125.05 75.625)" d="m-279.66 446.41-2.5633-9.3692 7.955-2.8284z" fill="#d0a609"/>
       <path transform="translate(-125.05 75.625)" d="m-282.58 437.13 2.8284 9.3692-13.17-6.8059z" fill="#ce8a14"/>
       <path transform="translate(-125.05 75.625)" d="m-286.56 427.5 4.4194 9.8111 7.8666-3.0052z" fill="#f2cc00"/>
       <path transform="translate(-125.05 75.625)" d="m-286.64 427.32-6.1086 12.307 10.586-2.3918z" fill="#e9c002"/>
      </g>
      <g transform="matrix(.98973 -.1327 .077426 1 -57.136 -56.615)">
       <path transform="translate(-125.05 75.625)" d="m-279.66 446.41-2.5633-9.3692 7.955-2.8284z" fill="#d0a609"/>
       <path transform="translate(-125.05 75.625)" d="m-282.58 437.13 2.8284 9.3692-13.17-6.8059z" fill="#ce8a14"/>
       <path transform="translate(-125.05 75.625)" d="m-286.56 427.5 4.4194 9.8111 7.8666-3.0052z" fill="#f2cc00"/>
       <path transform="translate(-125.05 75.625)" d="m-286.64 427.32-6.1086 12.307 10.586-2.3918z" fill="#e9c002"/>
      </g>
      <g transform="matrix(.98973 -.20128 .077426 .99464 -70.041 -86.837)">
       <path transform="translate(-125.05 75.625)" d="m-279.66 446.41-2.5633-9.3692 7.955-2.8284z" fill="#d0a609"/>
       <path transform="translate(-125.05 75.625)" d="m-282.58 437.13 2.8284 9.3692-13.17-6.8059z" fill="#ce8a14"/>
       <path transform="translate(-125.05 75.625)" d="m-286.56 427.5 4.4194 9.8111 7.8666-3.0052z" fill="#f2cc00"/>
       <path transform="translate(-125.05 75.625)" d="m-286.64 427.32-6.1086 12.307 10.586-2.3918z" fill="#e9c002"/>
      </g>
      <g transform="matrix(.98973 -.20128 .077426 .99464 -83.188 -91.072)">
       <path transform="translate(-125.05 75.625)" d="m-279.66 446.41-2.5633-9.3692 7.955-2.8284z" fill="#d0a609"/>
       <path transform="translate(-125.05 75.625)" d="m-282.58 437.13 2.8284 9.3692-13.17-6.8059z" fill="#ce8a14"/>
       <path transform="translate(-125.05 75.625)" d="m-286.56 427.5 4.4194 9.8111 7.8666-3.0052z" fill="#f2cc00"/>
       <path transform="translate(-125.05 75.625)" d="m-286.64 427.32-6.1086 12.307 10.586-2.3918z" fill="#e9c002"/>
      </g>
      <g transform="matrix(1.0042 .021402 .072187 .99739 -22.647 20.412)">
       <path transform="translate(-125.05 75.625)" d="m-280.93 441.55-1.2944-4.5086 3.5093-0.72779z" fill="#d0a609"/>
       <path transform="translate(-125.05 75.625)" d="m-282.2 437.12 1.1888 3.9936-1.9426 3.2592-9.9616-4.6815z" fill="#ce8a14"/>
       <path transform="translate(-125.05 75.625)" d="m-286.56 427.5 4.4194 9.8111 3.8368-1.4657 1.4178-3.3007z" fill="#f2cc00"/>
       <path transform="translate(-125.05 75.625)" d="m-286.64 427.32-6.1086 12.307 10.586-2.3918z" fill="#e9c002"/>
      </g>
      <g transform="matrix(.9937 -.11207 .11207 .9937 -55.574 -51.966)">
       <path transform="translate(-125.05 75.625)" d="m-279.66 446.41-2.5633-9.3692 7.955-2.8284z" fill="#d0a609"/>
       <path transform="translate(-125.05 75.625)" d="m-282.58 437.13 2.8284 9.3692-13.17-6.8059z" fill="#ce8a14"/>
       <path transform="translate(-125.05 75.625)" d="m-286.56 427.5 4.4194 9.8111 7.8666-3.0052z" fill="#f2cc00"/>
       <path transform="translate(-125.05 75.625)" d="m-286.64 427.32-6.1086 12.307 10.586-2.3918z" fill="#e9c002"/>
      </g>
      <g transform="matrix(.98973 -.1327 .077426 1 -52.432 -70.255)">
       <path transform="translate(-125.05 75.625)" d="m-279.66 446.41-2.5633-9.3692 7.955-2.8284z" fill="#d0a609"/>
       <path transform="translate(-125.05 75.625)" d="m-282.58 437.13 2.8284 9.3692-13.17-6.8059z" fill="#ce8a14"/>
       <path transform="translate(-125.05 75.625)" d="m-286.56 427.5 4.4194 9.8111 7.8666-3.0052z" fill="#f2cc00"/>
       <path transform="translate(-125.05 75.625)" d="m-286.64 427.32-6.1086 12.307 10.586-2.3918z" fill="#e9c002"/>
      </g>
      <g transform="matrix(.98973 -.20128 .077426 .99464 -65.955 -100.74)">
       <path transform="translate(-125.05 75.625)" d="m-279.66 446.41-2.5633-9.3692 7.955-2.8284z" fill="#d0a609"/>
       <path transform="translate(-125.05 75.625)" d="m-282.58 437.13 2.8284 9.3692-13.17-6.8059z" fill="#ce8a14"/>
       <path transform="translate(-125.05 75.625)" d="m-286.56 427.5 4.4194 9.8111 7.8666-3.0052z" fill="#f2cc00"/>
       <path transform="translate(-125.05 75.625)" d="m-286.64 427.32-6.1086 12.307 10.586-2.3918z" fill="#e9c002"/>
      </g>
      <g transform="matrix(.98973 -.20128 .077426 .99464 -79.455 -105.24)">
       <path transform="translate(-125.05 75.625)" d="m-279.66 446.41-2.5633-9.3692 7.955-2.8284z" fill="#d0a609"/>
       <path transform="translate(-125.05 75.625)" d="m-282.58 437.13 2.8284 9.3692-13.17-6.8059z" fill="#ce8a14"/>
       <path transform="translate(-125.05 75.625)" d="m-286.56 427.5 4.4194 9.8111 7.8666-3.0052z" fill="#f2cc00"/>
       <path transform="translate(-125.05 75.625)" d="m-286.64 427.32-6.1086 12.307 10.586-2.3918z" fill="#e9c002"/>
      </g>
      <g transform="matrix(1.0042 .021402 .072187 .99739 -17.235 8.4508)">
       <path transform="translate(-125.05 75.625)" d="m-281.4 437.23-0.21526 3.0803-1.536 4.1939-9.7656-4.8111z" fill="#ce8a14"/>
       <path transform="translate(-125.05 75.625)" d="m-286.56 427.5 4.3548 9.8438 1.1828-0.0733 1.3554-6.4053z" fill="#f2cc00"/>
       <path transform="translate(-125.05 75.625)" d="m-286.64 427.32-6.1086 12.307 10.586-2.3918z" fill="#e9c002"/>
      </g>
      <g transform="translate(10.008 -22.037)">
       <path transform="translate(-125.05 75.625)" d="m-279.66 446.41-2.5633-9.3692 7.955-2.8284z" fill="#d0a609"/>
       <path transform="translate(-125.05 75.625)" d="m-282.58 437.13 2.8284 9.3692-13.17-6.8059z" fill="#ce8a14"/>
       <path transform="translate(-125.05 75.625)" d="m-286.56 427.5 4.4194 9.8111 7.8666-3.0052z" fill="#f2cc00"/>
       <path transform="translate(-125.05 75.625)" d="m-286.64 427.32-6.1086 12.307 10.586-2.3918z" fill="#e9c002"/>
      </g>
      <g transform="matrix(.98973 -.1327 .077426 1 -47.394 -83.159)">
       <path transform="translate(-125.05 75.625)" d="m-279.66 446.41-2.5633-9.3692 7.955-2.8284z" fill="#d0a609"/>
       <path transform="translate(-125.05 75.625)" d="m-282.58 437.13 2.8284 9.3692-13.17-6.8059z" fill="#ce8a14"/>
       <path transform="translate(-125.05 75.625)" d="m-286.56 427.5 4.4194 9.8111 7.8666-3.0052z" fill="#f2cc00"/>
       <path transform="translate(-125.05 75.625)" d="m-286.64 427.32-6.1086 12.307 10.586-2.3918z" fill="#e9c002"/>
      </g>
      <g transform="matrix(.98973 -.20128 .077426 .99464 -60.564 -114.44)">
       <path transform="translate(-125.05 75.625)" d="m-279.66 446.41-2.5633-9.3692 7.955-2.8284z" fill="#d0a609"/>
       <path transform="translate(-125.05 75.625)" d="m-282.58 437.13 2.8284 9.3692-13.17-6.8059z" fill="#ce8a14"/>
       <path transform="translate(-125.05 75.625)" d="m-286.56 427.5 4.4194 9.8111 7.8666-3.0052z" fill="#f2cc00"/>
       <path transform="translate(-125.05 75.625)" d="m-286.64 427.32-6.1086 12.307 10.586-2.3918z" fill="#e9c002"/>
      </g>
      <g transform="matrix(.98973 -.20128 .077426 .99464 -73.975 -119.03)">
       <path transform="translate(-125.05 75.625)" d="m-279.66 446.41-2.5633-9.3692 7.955-2.8284z" fill="#d0a609"/>
       <path transform="translate(-125.05 75.625)" d="m-282.58 437.13 2.8284 9.3692-13.17-6.8059z" fill="#ce8a14"/>
       <path transform="translate(-125.05 75.625)" d="m-286.56 427.5 4.4194 9.8111 7.8666-3.0052z" fill="#f2cc00"/>
       <path transform="translate(-125.05 75.625)" d="m-286.64 427.32-6.1086 12.307 10.586-2.3918z" fill="#e9c002"/>
      </g>
      <g transform="matrix(1.0042 .021402 .072187 .99739 -12.462 -4.2771)">
       <path transform="translate(-125.05 75.625)" d="m-284.96 437.85-0.40497 5.9824-7.5524-4.1349z" fill="#ce8a14"/>
       <path transform="translate(-125.05 75.625)" d="m-286.27 426.43-6.481 13.202 7.7517-1.5334c0.80555-5.424-0.20987-8.7718-1.2707-11.668z" fill="#e9c002"/>
      </g>
      <g transform="matrix(.96522 -.26143 .26143 .96522 -135.07 -123.29)">
       <path transform="translate(-125.05 75.625)" d="m-281.14 437.07 1.0438 10.699-11.723-10.234z" fill="#ce8a14"/>
       <path transform="translate(-125.05 75.625)" d="m-285.35 425.75-6.3032 11.843 10.303-0.49981z" fill="#e9c002"/>
      </g>
      <g transform="matrix(.97153 -.23086 .17689 .98727 -101.93 -130.25)">
       <path transform="translate(-125.05 75.625)" d="m-280.47 447.39-1.7492-10.343 7.2241-0.31348z" fill="#d0a609"/>
       <path transform="translate(-125.05 75.625)" d="m-282.58 437.13 2.2449 10.576-12.092-8.4787z" fill="#ce8a14"/>
       <path transform="translate(-125.05 75.625)" d="m-285.32 425.23 3.1884 12.075 6.846-0.64755z" fill="#f2cc00"/>
       <path transform="translate(-125.05 75.625)" d="m-285.44 425.19-7.0992 14.001 10.369-1.9502z" fill="#e9c002"/>
      </g>
      <g transform="matrix(.96868 -.2859 .16293 .98425 -108.86 -157.2)">
       <path transform="translate(-125.05 75.625)" d="m-279.66 446.41-2.5633-9.3692 7.955-2.8284z" fill="#d0a609"/>
       <path transform="translate(-125.05 75.625)" d="m-282.58 437.13 2.8284 9.3692-13.17-6.8059z" fill="#ce8a14"/>
       <path transform="translate(-125.05 75.625)" d="m-286.98 425.98 4.8487 11.328 7.8666-3.0052c-4.154-2.6814-7.1077-7.0654-12.715-8.3225z" fill="#f2cc00"/>
       <path transform="translate(-125.05 75.625)" d="m-286.88 426-5.8752 13.632 10.586-2.3918z" fill="#e9c002"/>
      </g>
      <g transform="matrix(.95092 -.34032 .21843 .97344 -158.21 -177.36)">
       <path transform="translate(-125.05 75.625)" d="m-279.99 446.43-2.2318-9.3817 8.5396-3.3504z" fill="#d0a609"/>
       <path transform="translate(-125.05 75.625)" d="m-282.58 437.13 2.8284 9.3692-13.17-6.8059z" fill="#ce8a14"/>
       <path transform="translate(-125.05 75.625)" d="m-286.56 427.5 4.4194 9.8111 8.6479-3.7763c-4.0276-3.0461-8.6192-4.3141-13.067-6.0348z" fill="#f2cc00"/>
       <path transform="translate(-125.05 75.625)" d="m-286.64 427.32-6.1086 12.307 10.586-2.3918z" fill="#e9c002"/>
      </g>
     </g>
     <path d="m-414.95 556.42c7.3721-11.306 18.724-21.12 23.102-31.752 15.732-38.202-8.8127-74.451-51.533-72.461-8.5997 15.209-24.45 67.002-41.39 84.152-1.7417 1.7632 1.01 4.5142 0.17103 5.5647 20.312 8.2263 74.465 26.202 69.65 14.496z" fill="none" stroke="#000" stroke-width=".9936"/>
    </g>
    <g transform="translate(-2.25)" stroke="#000" stroke-width=".9936">
     <path d="m-538.97 447.51c1.3546-3.8912 13.203-6.5623 19.5 0-14.045 3.5503 18.591 84.504 26.207 85.796-0.5545 2.8811-1.6633 3.7372-3.7152 2.9134-23.205-9.316-43.768-74.221-41.992-88.709z" fill="#d59b11"/>
     <g transform="matrix(-1 0 0 1 -981.02 0)" fill="#fff">
      <path transform="translate(-125.05 75.625)" d="m-338.26 432.8c0 2.0502-1.6621 3.7123-3.7123 3.7123s-3.7123-1.6621-3.7123-3.7123c0-2.0503 1.6621-3.7123 3.7123-3.7123s3.7123 1.6621 3.7123 3.7123z"/>
      <path transform="translate(-125.05 75.625)" d="m-334.11 425.55c0 2.3432-1.8995 4.2426-4.2426 4.2426s-4.2426-1.8995-4.2426-4.2426 1.8995-4.2426 4.2426-4.2426c2.3432 0 4.2426 1.8995 4.2426 4.2426z"/>
      <path transform="translate(-125.05 75.625)" d="m-330.57 417.42c0 2.5384-2.0578 4.5962-4.5962 4.5962s-4.5962-2.0578-4.5962-4.5962 2.0578-4.5962 4.5962-4.5962 4.5962 2.0578 4.5962 4.5962z"/>
      <path transform="translate(-125.05 75.625)" d="m-326.95 408.23c0 2.7825-2.2556 5.0381-5.0381 5.0381s-5.0381-2.2556-5.0381-5.0381 2.2556-5.0381 5.0381-5.0381 5.0381 2.2556 5.0381 5.0381z"/>
      <path transform="translate(-125.05 75.625)" d="m-324.21 398.24c0 2.8801-2.3348 5.2149-5.2149 5.2149s-5.2149-2.3348-5.2149-5.2149 2.3348-5.2149 5.2149-5.2149 5.2149 2.3348 5.2149 5.2149z"/>
      <path transform="translate(-125.05 75.625)" d="m-320.32 387.1c0 3.3194-2.691 6.0104-6.0104 6.0104-3.3195 0-6.0104-2.691-6.0104-6.0104 0-3.3195 2.691-6.0104 6.0104-6.0104s6.0104 2.691 6.0104 6.0104z"/>
      <path transform="translate(-125.05 74.653)" d="m-318.37 375.35c0 3.7588-3.0471 6.8059-6.8059 6.8059s-6.8059-3.0471-6.8059-6.8059 3.0471-6.8059 6.8059-6.8059 6.8059 3.0471 6.8059 6.8059z"/>
     </g>
     <path d="m-495.32 499.11c1.4513-17.687-6.8767-54.901-11.837-52.566 0.7513-2.2205 3.2267-3.7746 5.9166-2.302 1.5483 0.84764 10.94 41.055 8.635 54.439-0.17599 1.022-1.9592 0.15351-2.7145 0.42816z" fill="#f2cc00"/>
    </g>
    <g transform="translate(1.75)" stroke="#000" stroke-width=".9936">
     <path transform="translate(-125.05 75.625)" d="m-315.75 371.89c-1.3546-3.8912-13.203-6.5623-19.5 0 14.045 3.5503-18.768 84.239-26.384 85.53 0.5545 2.8811 1.84 4.0023 3.892 3.1786 23.205-9.316 43.768-74.221 41.992-88.709z" fill="#d59b11"/>
     <g transform="translate(1.2461)" fill="#fff">
      <path transform="translate(-125.05 75.625)" d="m-338.26 432.8c0 2.0502-1.6621 3.7123-3.7123 3.7123s-3.7123-1.6621-3.7123-3.7123c0-2.0503 1.6621-3.7123 3.7123-3.7123s3.7123 1.6621 3.7123 3.7123z"/>
      <path transform="translate(-125.05 75.625)" d="m-334.11 425.55c0 2.3432-1.8995 4.2426-4.2426 4.2426s-4.2426-1.8995-4.2426-4.2426 1.8995-4.2426 4.2426-4.2426c2.3432 0 4.2426 1.8995 4.2426 4.2426z"/>
      <path transform="translate(-125.05 75.625)" d="m-330.57 417.42c0 2.5384-2.0578 4.5962-4.5962 4.5962s-4.5962-2.0578-4.5962-4.5962 2.0578-4.5962 4.5962-4.5962 4.5962 2.0578 4.5962 4.5962z"/>
      <path transform="translate(-125.05 75.625)" d="m-326.95 408.23c0 2.7825-2.2556 5.0381-5.0381 5.0381s-5.0381-2.2556-5.0381-5.0381 2.2556-5.0381 5.0381-5.0381 5.0381 2.2556 5.0381 5.0381z"/>
      <path transform="translate(-125.05 75.625)" d="m-324.21 398.24c0 2.8801-2.3348 5.2149-5.2149 5.2149s-5.2149-2.3348-5.2149-5.2149 2.3348-5.2149 5.2149-5.2149 5.2149 2.3348 5.2149 5.2149z"/>
      <path transform="translate(-125.05 75.625)" d="m-320.32 387.1c0 3.3194-2.691 6.0104-6.0104 6.0104-3.3195 0-6.0104-2.691-6.0104-6.0104 0-3.3195 2.691-6.0104 6.0104-6.0104s6.0104 2.691 6.0104 6.0104z"/>
      <path transform="translate(-125.05 74.653)" d="m-318.37 375.35c0 3.7588-3.0471 6.8059-6.8059 6.8059s-6.8059-3.0471-6.8059-6.8059 3.0471-6.8059 6.8059-6.8059 6.8059 3.0471 6.8059 6.8059z"/>
     </g>
     <path d="m-484.1 499.11c-1.4513-17.687 6.8767-54.901 11.837-52.566-0.7513-2.2205-3.2267-3.7746-5.9166-2.302-1.5483 0.84764-10.94 41.055-8.635 54.439 0.17599 1.022 1.9592 0.15351 2.7145 0.42816z" fill="#f2cc00"/>
    </g>
    <path transform="translate(-125.05 75.625)" d="m-364.91 414.25c-4.5087 2.3902-3.2394 4.6029-4.1875 7.3125-0.9123-0.66312-7.2597-2.0536-8.7812 5.75 9.5052-0.43397 6.951 7.8793 6.8125 8.1562-1.9283 3.8565-9.6072 0.95373-7.5-4.9062-1.478 0.0633-9.0804 0.42547-5.2812 8.9062-4.2251 0.28836-10.746 7.8233-0.28125 9.75-0.35661 1.0698-0.76076 10.672 6.9062 7.4375-1.1097-1.6572-0.55729-10.102 4.5-7.75 7.8224 3.6375-0.68606 13.885-7.7812 16.25-7.0986 2.1615-35.986 1.7663-27.938-11.312 3.3816-3.3816 6.3438 3.1352 6.3438 5.6562 0 1.0693 6.5644-1.0842 3.625-8.5 11.055-4.2597 3.6541-8.9375 0.28125-8.9375 1.9504-4.0907-3.3973-8.8895-7.4375-6.5938 0.87064 0.86147 1.5289 9.6267-5.9375 5.7812-0.97997-0.50473-4.056-8.8105 3.625-6.8438-0.29199-6.0957-2.5115-5.4826-8.4375-5-0.6378-8.0876-12.197-6.247-8.5312 2.25-5.796 0.29521-8.2809 3.3762-5.875 7.7188 2.1092-0.29753 7.941-0.67893 6.3438 4.4375-1.7407 5.5761-6.884 1.3001-7.7188-1.6562-4.4624-0.33037-5.4652 6.562-3.0625 8.5-6.7412 3.6006-2.6908 9.8626 3.6562 8.2812-2.3964 5.7992 5.1805 8.384 6.5938 6-2.0384-2.5748-0.7123-8.8348 3.3438-7.7188 9.1792 2.5257-3.5935 16.672-9.8125 17.844-4.0252 0.75857-23.235-1.5153-17.312-7.4375 2.1658-2.1658 4.2997 0.12554 6.375 3 3.3981-2.5142 1.8319-6.5713-2.3438-7.2812 7.3385-2.4541 3.137-10.15-2.4375-6.6562-0.77242-1.9176-2.5597-7.3013-7.6875-5.0625 0.86153 0.75857 3.2315 7.0034-2.375 6.8125-1.1112-0.0378-6.4483-5.8382-0.21875-7.2812-0.9233-4.4146-6.4703-2.3085-7.2188-2.4375-0.34872-1.962-8.3438-6.0904-10.469 1.6875 3.2124-1.6257 7.304 1.3991 8.5 10.531 2.1215 16.199 23.769 6.8803 24.938 24.375l1.7812-0.71875c18.289-6.6504 74.935-13.838 75-13.969 0.0653 0.13069 56.711 7.3184 75 13.969l1.75 0.71875c1.1687-17.495 22.816-8.1764 24.938-24.375 1.196-9.1322 5.2876-12.157 8.5-10.531-2.125-7.7779-10.089-3.6495-10.438-1.6875-0.74849 0.12896-6.2954-1.9771-7.2188 2.4375 6.2295 1.4431 0.89244 7.2434-0.21875 7.2812-5.6065 0.19087-3.2365-6.0539-2.375-6.8125-5.1278-2.2388-6.9151 3.1449-7.6875 5.0625-5.5744-3.4933-9.8073 4.2022-2.4688 6.6562-4.1756 0.70999-5.7106 4.7671-2.3125 7.2812 2.0753-2.8745 4.2092-5.1658 6.375-3 5.9222 5.9222-13.319 8.1961-17.344 7.4375-6.219-1.172-18.992-15.318-9.8125-17.844 4.056-1.116 5.4134 5.144 3.375 7.7188 1.4132 2.384 8.9902-0.20078 6.5938-6 6.3471 1.5814 10.397-4.6807 3.6562-8.2812 2.4027-1.938 1.3687-8.8304-3.0938-8.5-0.83475 2.9563-5.9468 7.2324-7.6875 1.6562-1.5972-5.1164 4.2346-4.735 6.3438-4.4375 2.4059-4.3426-0.079-7.4235-5.875-7.7188 3.6657-8.497-7.8934-10.338-8.5312-2.25-5.926-0.48256-8.1455-1.0957-8.4375 5 7.681-1.9667 4.605 6.339 3.625 6.8438-7.4664 3.8455-6.8394-4.9198-5.9688-5.7812-4.0402-2.2957-9.3879 2.503-7.4375 6.5938-3.3729 0-10.774 4.6778 0.28125 8.9375-2.9394 7.4158 3.625 9.5693 3.625 8.5 0-2.521 2.9934-9.0379 6.375-5.6562 8.0483 13.079-20.839 13.474-27.938 11.312-7.0952-2.3651-15.604-12.613-7.7812-16.25 5.0573-2.3517 5.6097 6.0928 4.5 7.75 7.667 3.235 7.2629-6.3677 6.9062-7.4375 10.465-1.9267 3.9126-9.4616-0.3125-9.75 3.7992-8.4808-3.772-8.8429-5.25-8.9062 2.1072 5.86-5.603 8.7628-7.5312 4.9062-0.13849-0.27699-2.6927-8.5902 6.8125-8.1562-1.5216-7.8036-7.8377-6.4131-8.75-5.75-0.94811-2.7096 0.32122-4.9223-4.1875-7.3125z" fill="#f3cd00" stroke="#000" stroke-width=".9936"/>
    <g fill="#f2cc00" stroke="#000">
     <g transform="translate(0 -22.719)" stroke-width=".9936">
      <path d="m-489.96 567.72c-39.804 0-66.129 8.4006-76.062 14.062-3.3102 7.2303-1.6955 19.412-0.28125 21.75 7.2478-1.4626 21.651-13.719 76.344-13.719s69.065 12.256 76.312 13.719c1.4142-2.3382 3.029-14.52-0.28125-21.75-9.9336-5.662-36.227-14.062-76.031-14.062z"/>
      <path d="m-489.96 588.25c-54.657 0-85.64 16.812-77.844 16.812s23.151-12.75 77.844-12.75 70.016 12.75 77.812 12.75-23.156-16.812-77.812-16.812z"/>
      <path d="m-489.96 566c-54.657 0-85.64 16.812-77.844 16.812s23.151-12.75 77.844-12.75 70.016 12.75 77.812 12.75-23.156-16.812-77.812-16.812z"/>
     </g>
     <g stroke-width=".5">
      <g stroke-width=".9936">
       <path transform="translate(-125.05 75.625)" d="m-301.93 489.63c0 1.9526-1.5829 3.5355-3.5355 3.5355s-3.5355-1.5829-3.5355-3.5355 1.5829-3.5355 3.5355-3.5355 3.5355 1.5829 3.5355 3.5355z"/>
       <path transform="translate(-163.94 68.2)" d="m-301.93 489.63c0 1.9526-1.5829 3.5355-3.5355 3.5355s-3.5355-1.5829-3.5355-3.5355 1.5829-3.5355 3.5355-3.5355 3.5355 1.5829 3.5355 3.5355z"/>
       <path transform="translate(-125.05 75.625)" d="m-299.94 492.32s14.713 10.301 14.688 6.5625l-0.0625-9.125c-0.0163-2.3872-9.3635 1.4408-14.625 2.5625z"/>
      </g>
      <rect transform="matrix(.96757 -.25262 .83015 .55754 0 0)" x="-963.35" y="565.02" width="13.766" height="13.766" stroke-width="1.1479"/>
      <g transform="matrix(-1 0 0 1 -981.19 0)">
       <g stroke-width=".9936">
        <path transform="translate(-125.05 75.625)" d="m-301.93 489.63c0 1.9526-1.5829 3.5355-3.5355 3.5355s-3.5355-1.5829-3.5355-3.5355 1.5829-3.5355 3.5355-3.5355 3.5355 1.5829 3.5355 3.5355z"/>
        <path transform="translate(-163.94 68.2)" d="m-301.93 489.63c0 1.9526-1.5829 3.5355-3.5355 3.5355s-3.5355-1.5829-3.5355-3.5355 1.5829-3.5355 3.5355-3.5355 3.5355 1.5829 3.5355 3.5355z"/>
        <path transform="translate(-125.05 75.625)" d="m-299.94 492.32s14.713 10.301 14.688 6.5625l-0.0625-9.125c-0.0163-2.3872-9.3635 1.4408-14.625 2.5625z"/>
       </g>
       <rect transform="matrix(.96757 -.25262 .83015 .55754 0 0)" x="-963.35" y="565.02" width="13.766" height="13.766" stroke-width="1.1479"/>
      </g>
     </g>
    </g>
    <g fill="#fff" stroke="#000" stroke-width=".9936">
     <path transform="matrix(.77095 .63689 -.63689 .77095 110.9 354.95)" d="m-266.58 465.06c0 3.71-1.5038 6.7175-3.3588 6.7175s-3.3588-3.0075-3.3588-6.7175 1.5038-6.7175 3.3588-6.7175 3.3588 3.0075 3.3588 6.7175z"/>
     <path transform="matrix(.98779 .15581 -.15581 .98779 -58.785 129.9)" d="m-308.65 449.86c0 3.8076-1.9786 6.8943-4.4194 6.8943s-4.4194-3.0867-4.4194-6.8943 1.9786-6.8943 4.4194-6.8943 4.4194 3.0867 4.4194 6.8943z"/>
     <g transform="matrix(-1 0 0 1 -980.57 0)">
      <path transform="matrix(.77095 .63689 -.63689 .77095 110.9 354.95)" d="m-266.58 465.06c0 3.71-1.5038 6.7175-3.3588 6.7175s-3.3588-3.0075-3.3588-6.7175 1.5038-6.7175 3.3588-6.7175 3.3588 3.0075 3.3588 6.7175z"/>
      <path transform="matrix(.98779 .15581 -.15581 .98779 -58.785 129.9)" d="m-308.65 449.86c0 3.8076-1.9786 6.8943-4.4194 6.8943s-4.4194-3.0867-4.4194-6.8943 1.9786-6.8943 4.4194-6.8943 4.4194 3.0867 4.4194 6.8943z"/>
     </g>
     <path transform="translate(-125.05 75.625)" d="m-360.36 442.7c0 4.0282-2.0182 7.2938-4.5078 7.2938s-4.5078-3.2655-4.5078-7.2938 2.0182-7.2938 4.5078-7.2938 4.5078 3.2655 4.5078 7.2938z"/>
    </g>
   </g>
   <rect transform="matrix(.92297 -.38488 .92297 .38488 0 0)" x="-1261.6" y="717.34" width="13.47" height="13.47" fill="#f2cc00" stroke="#000" stroke-width="1.1788"/>
  </g>
 </g>
</svg>
