<?xml version="1.0" encoding="UTF-8"?>
<svg xmlns="http://www.w3.org/2000/svg" xml:space="preserve" width="1500" height="1000" version="1.0" style="shape-rendering:geometricPrecision; text-rendering:geometricPrecision; image-rendering:optimizeQuality; fill-rule:evenodd; clip-rule:evenodd"
viewBox="0 0 12000 8000">
<defs>
<style type="text/css">
<![CDATA[
.fil2 {fill:#FFF500}
.fil0 {fill:#D52B1E}
.fil3 {fill:black}
.fil5 {fill:#008E1F}
.fil1 {fill:#2AA6FE}
.fil4 {fill:white}
]]>
</style>
</defs>
<rect class="fil0" width="12000" height="8000"/>
<rect class="fil1" width="1500" height="8000"/>
<path class="fil2" d="M235 693l139 140 114 -117c252,261 505,523 758,784 56,-13 86,-35 104,-99l-779 -767 157 -141 -229 -62 -264 262 0 0 0 0z"/>
<path class="fil2" d="M752 300c336,123 547,405 548,613 4,459 -497,680 -820,310l-23 16 5 40c-98,-10 -186,290 -291,206 -96,-121 169,-177 197,-300l38 3 32 -34 30 5 39 -40c315,333 713,75 657,-256 -40,-254 -200,-400 -414,-563l2 0 0 0 0 0 0 0 0 0 0 0z"/>
<path class="fil3" d="M6298 3102l926 0 27 -154c8,-26 44,-107 53,-140 27,12 52,-19 48,-43 -2,-12 25,-36 47,-43l46 -8c-27,-17 -46,-32 -79,-23l-6 3c12,-27 14,-46 13,-75l-10 1 1 0 -1 0 10 -19 7 -15c19,-30 11,-54 11,-62 1,-14 18,-42 -12,-82l-10 -12c4,-12 3,-17 0,-32 -11,-42 -52,-61 -59,-58l0 0 0 0c2,-10 -16,-42 -36,-54l-36 -14 -5 2c-36,-34 -63,-42 -113,-45l0 0c-12,5 -39,-37 -98,8 -32,-24 -61,-22 -96,-16l-31 43c-23,37 -42,78 -57,119l0 -97 -45 0c21,-10 38,-29 44,-52l1 0c3,-22 3,-27 -3,-49l-1 -1c-9,-21 -27,-38 -49,-45l0 -28c28,1 47,14 70,28l0 -105c-21,13 -43,28 -69,28 4,-24 15,-39 28,-60l-106 0c13,21 24,36 28,60 -26,-1 -47,-15 -68,-28l0 105c23,-14 41,-27 69,-28l0 27c-23,8 -41,25 -50,47l0 0c-6,21 -6,26 -3,48l0 0c7,24 23,43 45,53l-45 0 0 97c-15,-40 -45,-106 -70,-140l-19 -22c-34,-6 -63,-8 -95,16 -59,-45 -87,-3 -98,-8l0 0c-33,2 -68,8 -94,29 -27,20 -8,8 -39,17 -27,9 -46,28 -55,55l-2 10 0 0 0 0c-7,-3 -55,16 -62,72l3 18c-21,26 -34,48 -25,84 5,20 -1,16 1,37 3,27 18,42 19,44l7 18 3 7 0 0 0 0 -9 -1c-1,32 1,45 13,75 -9,-8 -37,-7 -54,1l-31 19c34,5 65,6 87,39 12,17 1,10 8,30 6,18 25,34 46,25 9,33 45,114 52,140l28 154z"/>
<path class="fil2" d="M7027 2912c-81,-12 -87,23 -5,35 81,13 87,-22 5,-35l0 0zm-266 -22c82,0 82,36 0,36 -82,0 -82,-36 0,-36zm-266 22c81,-12 86,23 5,35 -82,13 -87,-22 -5,-35zm-217 40l148 -36c137,-29 279,-45 419,-35 157,10 247,34 397,71l-11 58c-351,-98 -594,-97 -940,0l-13 -58zm319 -51l53 -7 4 31 -53 7 -4 -31zm-259 48l52 -11 7 31 -53 11 -6 -31zm423 -534c28,0 28,42 0,42 -28,0 -28,-42 0,-42zm0 -60c28,0 28,42 0,42 -28,0 -28,-42 0,-42zm0 -60c28,0 28,42 0,42 -28,0 -28,-42 0,-42zm-221 19c27,0 27,40 0,40 -26,0 -26,-40 0,-40zm-382 315c-3,42 22,83 42,110l13 -16 -53 -93 -2 -1zm17 3l46 81 25 -33 -7 43 33 -13 -32 -64 -65 -14zm-36 -103c-4,24 2,45 18,63l11 27 65 13 -42 -92 -52 -11zm15 -86c-21,25 -24,50 -16,74l48 9 -32 -83zm101 208l28 55 41 -17c-8,-17 -2,-13 -35,-26l-34 -12zm-49 -107l42 92 63 23 -36 -90 -69 -25zm-40 -102l34 88 70 24 -30 -91 -74 -21zm44 -93c-32,11 -49,34 -51,70l3 10 74 20 -25 -100 -1 0zm81 227l36 91 24 12 27 -11 -61 -62 17 -7 -43 -23zm-37 -108l31 92 62 34 3 -1c3,-59 5,-37 -7,-82l-89 -43zm-30 -114l25 100 90 41 -21 -98 -94 -43zm59 -73c-31,6 -53,24 -62,58l0 1 94 43 -13 -94 -19 -8zm75 238c7,28 2,16 41,52l20 -10 -1 -4 -60 -38zm-27 -115l23 99 62 38 -12 -97 -73 -40zm-17 -109l14 95 74 40 -5 -96 -83 -39zm84 -57c-30,2 -60,8 -87,28l2 15 84 40 1 -83zm36 345l11 58 52 -21 -62 -51 -1 14zm-18 -132l13 99 4 3 4 -2 -1 4c26,18 51,38 73,61l12 -5c-9,-37 -17,-73 -22,-109l-83 -51zm-7 -111l6 97 81 49c-5,-36 -9,-72 -11,-107l-76 -39zm1 -98l-2 85 77 39c-1,-29 0,-57 3,-85l-78 -39zm83 1c-23,-18 -45,-24 -75,-10l71 35c1,-8 2,-17 4,-25zm49 9c26,0 26,40 0,40 -27,0 -27,-40 0,-40zm-2 121c27,0 27,40 0,40 -26,0 -26,-40 0,-40zm6 59c27,0 27,40 0,40 -26,0 -26,-40 0,-40zm9 61c26,0 26,41 0,41 -27,0 -27,-41 0,-41zm12 58c27,0 27,40 0,40 -27,0 -27,-40 0,-40zm113 -153c-23,-62 -48,-113 -76,-153 -18,108 4,226 26,337l55 21 -5 -205zm-89 -162l-24 4c-10,122 2,238 33,348l18 -4c-26,-109 -38,-225 -27,-348zm-74 10l-18 -3c-13,106 -7,225 27,363l17 -10c-29,-117 -40,-233 -26,-350zm176 50l27 0 0 206 -27 0 0 -206zm-536 405c15,12 27,27 35,43 -7,1 -12,2 -17,9 -15,-26 -39,-40 -73,-45 17,-10 34,-15 55,-7zm59 66c19,30 -14,50 -32,20 -19,-30 13,-50 32,-20zm20 -65l-5 36 34 -4 -8 31 36 9 -63 17c-1,-5 2,-10 -3,-21l12 -16 -19 4 -17 -13 33 -43zm61 4l78 -22 -1 15 -41 13 9 6 -12 23 30 -1 -3 18 32 -23 12 10 -65 46 7 -35 -37 1 17 -34 -26 -17zm151 -15c14,59 -55,56 -56,4 -1,-33 39,-46 56,-4zm8 -3c18,73 -72,72 -73,8 -1,-43 52,-60 73,-8zm-17 6c11,34 -26,45 -36,12 -11,-34 25,-46 36,-12zm-106 -85l25 -10 3 -51 36 34 30 -16 -6 81 -8 0 -3 -55 -15 8 -21 -19 -2 28 -14 6 33 41 -6 7 -52 -54zm212 106l-81 9 3 -14 44 -6 -9 -8 16 -21 -30 -4 6 -17 -36 18 -9 -12 71 -36 -12 35 37 4 -23 31 23 21zm0 -106c27,0 27,41 0,41 -26,0 -26,-41 0,-41zm19 62c27,0 27,40 0,40 -26,0 -26,-40 0,-40zm41 -73l99 25 0 16 -57 -11 12 16 -24 17 27 6 -5 23 53 -18c2,7 6,14 10,20l-101 27 15 -39 -44 -16 41 -27 -26 -39zm377 -284c-27,0 -27,40 0,40 26,0 26,-40 0,-40zm382 315c3,42 -22,83 -42,110l-13 -16 53 -93 2 -1zm-17 3l-46 81 -25 -33 7 43 -34 -13 33 -64 65 -14zm36 -103c4,24 -2,45 -18,63 -2,4 4,-1 -6,17l-5 10 -65 13 42 -92 52 -11zm-15 -86c21,25 23,50 16,74l-48 9 32 -83zm-102 208l-28 55 -40 -17c7,-17 2,-13 34,-26l34 -12zm50 -107l-42 92 -63 23 35 -90 70 -25zm39 -102l-33 88 -70 24 30 -91 73 -21zm-43 -93c32,11 49,34 51,70l-3 10 -74 20 25 -100 1 0zm-81 227l-36 91 -24 12 -27 -11 61 -62 -17 -7 43 -23zm37 -108l-31 92 -62 34 -3 -1c-3,-59 -6,-37 6,-82l90 -43zm30 -114l-26 100 -90 41 22 -98 94 -43zm-59 -73c31,6 53,24 62,58l0 1 -94 43 13 -94 19 -8zm-75 238c-7,28 -2,16 -41,52l-20 -10 1 -4 60 -38zm27 -115l-23 99 -62 38 12 -97 73 -40zm17 -109l-14 95 -75 40 6 -96 83 -39zm-84 -57c30,2 60,8 86,28l-1 15 -84 40 -1 -83zm-37 345l-10 58 -52 -21 61 -51 1 14zm19 -132l-13 99 -4 3 -4 -2 0 4c-25,18 -50,38 -72,61l-12 -5c9,-37 16,-73 22,-109l83 -51zm7 -111l-6 97 -81 49c5,-36 9,-72 10,-107l77 -39zm-1 -98l1 85 -76 39c1,-29 0,-57 -3,-85l78 -39zm-83 1c23,-18 45,-24 75,-10l-71 35c-1,-8 -3,-17 -4,-25zm-49 9c-26,0 -27,40 0,40 27,0 27,-40 0,-40zm2 121c-27,0 -27,40 0,40 26,0 26,-40 0,-40zm-6 59c-27,0 -27,40 0,40 26,0 26,-40 0,-40zm-9 61c-27,0 -27,41 0,41 27,0 27,-41 0,-41zm-12 58c-27,0 -27,40 0,40 26,0 26,-40 0,-40zm-114 -153c24,-62 49,-113 77,-153 17,108 -4,226 -26,337l-55 21 4 -205zm90 -162l24 4c10,122 -3,238 -33,348l-18 -4c25,-109 37,-225 27,-348zm74 10l18 -3c13,106 7,225 -27,363l-18 -10c30,-117 40,-233 27,-350zm-176 50l-27 0 0 206 27 0 0 -206zm536 405c-16,12 -27,27 -35,43 7,1 12,2 17,9 15,-26 39,-40 73,-45 -17,-10 -34,-15 -55,-7zm-59 66c-19,30 13,50 32,20 19,-30 -13,-50 -32,-20zm-21 -65l6 36 -35 -4 9 31 -36 9 62 17c2,-5 -1,-10 3,-21l-11 -16 19 4 16 -13 -33 -43zm-60 4l-78 -22 0 15 42 13 -10 6 13 23 -31 -1 4 18 -32 -23 -12 10 65 46 -7 -35 37 1 -17 -34 26 -17zm-151 -15c-14,59 55,56 56,4 0,-33 -39,-46 -56,-4zm-8 -3c-18,73 72,72 73,8 1,-43 -52,-60 -73,-8zm17 6c-11,34 25,45 36,12 11,-34 -25,-46 -36,-12zm106 -85l-25 -10 -3 -51 -36 34 -30 -16 6 81 8 0 3 -55 15 8 21 -19 1 28 14 6 -33 41 7 7 52 -54zm-212 106l81 9 -3 -14 -44 -6 9 -8 -16 -21 30 -4 -6 -17 36 18 9 -12 -72 -36 13 35 -37 4 23 31 -23 21zm0 -106c-27,0 -27,41 0,41 26,0 26,-41 0,-41zm-20 62c-26,0 -26,40 0,40 27,0 27,-40 0,-40zm-40 -73l-99 25 0 16 57 -11 -12 16 23 17 -26 6 5 23 -53 -18c-3,7 -6,14 -10,20l101 27 -15 -39 44 -16 -41 -27 26 -39zm-156 -126l-24 49 -45 4 34 46c3,-4 7,-7 10,-9l-16 -25 27 -2 14 -29 14 29 28 2 -16 24c3,3 7,5 10,9l33 -45 -45 -4 -24 -49 0 0zm1 230c57,0 57,-134 0,-134 -57,0 -57,134 0,134zm-64 -519c8,-16 22,-29 39,-35l0 29 -39 6zm131 49c-19,69 -118,68 -136,-1 49,-11 87,-10 136,1zm-44 -84c17,6 31,18 39,34l-39 -5 0 -29zm-91 45c19,-4 36,-6 52,-7l0 -84c-31,-1 -51,10 -70,22l0 -74c19,11 39,22 70,22 -2,-26 -12,-44 -22,-61l74 0c-10,17 -20,35 -22,61 31,0 51,-11 70,-22l0 74c-19,-12 -39,-23 -70,-22l0 83c16,1 33,3 52,7l2 31c-54,-11 -89,-12 -139,0l3 -30zm67 527c-100,85 -205,77 -312,33 -47,65 -108,91 -218,54l11 37c95,27 159,7 214,-52 108,43 215,31 305,-32 90,63 197,75 305,32 54,59 119,79 214,52l11 -37c-110,37 -171,10 -219,-54 -106,44 -211,52 -311,-33zm493 182l-27 23 24 7 8 -28 -5 -2zm-996 3l13 27 52 -45 -65 18zm938 -19c-9,8 -18,16 -28,24l36 9c8,-8 17,-16 26,-24l-34 -9zm-60 -15c-9,8 -19,16 -28,24l36 9c9,-8 18,-16 27,-24l-35 -9zm-63 -13c-10,8 -19,16 -29,24l37 8c10,-9 19,-17 28,-25l-36 -7zm-66 -12c-10,8 -20,16 -30,25l39 6c10,-8 19,-17 28,-25l-37 -6zm-68 -10c-11,8 -21,17 -31,26l40 5c10,-9 19,-18 29,-26l-38 -5zm-73 -8c-10,9 -21,18 -32,27l42 4c10,-9 20,-18 31,-27l-41 -4zm-75 -4c-12,9 -23,19 -34,29l44 1c11,-10 21,-19 32,-28l-42 -2zm-79 1c-13,10 -26,21 -38,31l49 -2c12,-11 23,-21 35,-31l-46 2zm-83 6c-14,11 -27,22 -41,34l53 -6c12,-11 24,-22 37,-33l-49 5zm-87 10c-15,13 -29,25 -44,37l57 -9c13,-11 26,-23 39,-35l-52 7zm-90 16c-16,14 -32,27 -48,41l61 -13c14,-13 28,-26 43,-38l-56 10zm-95 21c-18,15 -35,30 -53,45l67 -18c15,-13 31,-27 46,-41l-60 14zm873 183l-3 3 2 1 1 -4zm-940 -6l33 -29 -36 10 3 19zm906 -29c-9,7 -18,15 -28,23l36 9c8,-8 17,-15 26,-23l-34 -9zm-60 -15c-9,8 -19,16 -28,24l36 8c9,-8 18,-16 27,-24l-35 -8zm-63 -14c-10,8 -19,16 -29,25l37 7c10,-8 19,-16 28,-24l-36 -8zm-66 -12c-10,8 -20,17 -30,25l39 7c10,-9 19,-17 28,-25l-37 -7zm-68 -10c-11,9 -21,17 -31,26l40 5c10,-9 19,-17 29,-26l-38 -5zm-73 -7c-10,9 -21,18 -32,27l42 3c10,-9 20,-18 31,-27l-41 -3zm-75 -5c-12,10 -23,19 -34,29l44 1c11,-9 21,-19 32,-28l-42 -2zm-79 1c-13,11 -26,21 -38,32l49 -3c12,-10 23,-20 35,-31l-46 2zm-83 6c-14,11 -27,23 -41,34l53 -6c12,-10 24,-21 37,-32l-49 4zm-87 11c-15,12 -29,24 -44,37l57 -9c13,-12 26,-24 39,-35l-52 7zm-90 15c-16,14 -32,27 -48,41l61 -13c14,-13 28,-25 43,-38l-56 10zm-95 22c-18,14 -35,29 -53,44l67 -17c15,-14 31,-28 46,-41l-60 14zm-60 79c329,-95 602,-92 928,0l-1 5c-68,0 -42,1 -103,-13 -279,-64 -495,-58 -769,11 -13,4 -40,2 -54,2l-1 -5zm781 5c-219,-52 -430,-52 -634,0l634 0z"/>
<path class="fil3" d="M6089 2845l100 85 3 103 79 -11 7 37 -145 38 -28 -117 -17 -7 -10 85 2 3 -186 -41 -3 2 0 -3 -11 -2 15 -7 27 -73 3 -1 22 -66c-36,-21 -73,-40 -111,-57l-43 68 90 -25 -10 67 -114 40 -5 10 -5 -6 -5 1 2 -5 -52 -72 57 -110 -8 -2 111 -86c64,22 153,54 183,122l4 -2 1 12 -3 2c-3,17 0,34 9,49l41 -31zm1322 0l41 31c9,-15 12,-32 9,-49l-3 -2 1 -12 4 2c30,-68 119,-100 183,-122l112 85 -9 3 57 110 -52 72 2 5 -5 -1 -5 6 -5 -10 -114 -40 -10 -67 90 25 -43 -68c-38,17 -75,36 -111,57l22 66 3 1 27 73 15 7 -11 2 1 3 -4 -2 -186 41 2 -3 -10 -85 -16 7 -28 117 -146 -38 7 -37 79 11 3 -103 100 -85z"/>
<path class="fil2" d="M5872 2869l-80 22 -30 62 103 -37 7 -47zm-167 21l28 -50 51 50 -32 66 -47 -66zm123 -81l-67 -27 -24 53 46 45 45 -71zm28 -106c79,26 150,60 174,118l-79 41c-59,-35 -123,-66 -189,-87l94 -72zm173 127l-72 40 -22 64 45 -7 60 -46c-9,-14 -13,-37 -11,-51zm-100 115l53 -8 14 27 -89 40 22 -59zm-21 69l94 -43 56 76 -150 -33zm84 -79l87 33 -8 68 -79 -101zm97 -78l91 77 3 109 81 -11 3 21 -128 33 -27 -113 -115 -47 92 -69zm1539 12l80 22 30 62 -103 -37 -7 -47zm167 21l-28 -50 -51 50 32 66 47 -66zm-123 -81l67 -27 24 53 -46 45 -45 -71zm-28 -106c-79,26 -150,60 -174,118l80 41c59,-35 122,-66 188,-87l-94 -72zm-173 127l72 40 22 64 -44 -7 -61 -46c9,-14 14,-37 11,-51zm100 115l-53 -8 -14 27 89 40 -22 -59zm21 69l-93 -43 -57 76 150 -33zm-84 -79l-87 33 8 68 79 -101zm-97 -78l-91 77 -3 109 -80 -11 -4 21 128 33 27 -113 115 -47 -92 -69z"/>
<path class="fil3" d="M5588 3232c-27,16 -30,38 -27,71l-17 -1 5 -91 11 -43c-10,28 -2,64 28,64l0 0zm131 -107c-11,9 -17,23 -19,38 -12,-2 -25,-2 -36,3 -9,-14 -21,-20 -21,-21 -1,0 -16,-43 -54,-16 -2,1 -3,2 -5,4l30 -24c10,-4 30,-1 43,4 14,6 45,15 62,12zm-187 593l-13 -15 20 -1c-2,5 -5,11 -7,16zm-61 103c4,-51 -8,-22 22,-74l14 16c-12,20 -24,39 -36,58zm157 486l8 -43 -6 -4c-19,30 -20,20 -2,47zm-40 -72l47 -79c-25,-12 -11,-43 -10,-51 -2,-11 -4,-21 -6,-31 -3,-8 -10,-14 -13,-35 -42,57 -49,90 -28,164l10 32zm-111 174l70 103 7 -15 -77 -88zm-99 -154c-15,-1 -29,-14 -36,-25 -2,2 -4,3 -6,5l49 53 -7 -33zm251 552c-14,24 -30,47 -50,66l13 -96c4,2 0,4 4,12l13 15 20 3zm66 -90c-10,8 -24,13 -32,24 -5,-9 -7,-10 -23,-13 9,-16 8,-38 -4,-53 11,-3 21,-20 27,-28l32 70zm239 559c-19,-7 -16,-8 -34,-27l38 13c-3,5 -4,9 -4,14zm-69 52l-21 -1c8,-4 16,-8 22,-14 2,1 5,1 8,1 -3,5 -6,9 -9,14zm-60 16c-3,11 0,18 7,28 -9,18 -10,12 -10,32l-33 2c-3,-4 12,-15 -3,-25l-31 -15c29,-20 42,-16 72,-25l-2 3zm190 22l-30 7c-2,-6 -5,-12 -7,-17 -72,0 -25,3 -63,-19 3,-3 6,-6 9,-9 10,8 70,29 91,38zm107 -18l-26 -42 18 -31c9,21 9,50 8,73zm-525 -118c61,5 119,22 178,36l-73 10c-18,-20 -31,-14 -40,-15 -6,-1 -9,-8 -20,0 -13,-8 -40,-19 -57,-14l12 -17zm729 352c0,-1 -1,-3 -1,-5 3,-1 6,-2 9,-3 18,46 -17,-18 -8,8zm-223 29l-8 13c-5,13 -12,24 -7,38 -44,32 -50,91 -46,141 0,6 1,12 2,19 -1,17 -5,46 30,49l39 -9c0,0 13,-30 36,-46 24,10 42,15 62,-7 16,-27 31,-54 47,-81 60,14 89,-94 89,-94l-21 -52c34,-3 42,-3 69,-17 -11,-13 -15,-13 0,-43 16,-31 -33,-50 -53,-56 15,-33 22,-36 53,-46 26,24 26,31 45,33 7,-17 4,-12 -25,-46l-41 -55 0 3 -3 -4 4 28 -55 -9 1 -1c-7,-43 -50,-103 -82,-54l-19 43 -12 -1c19,-19 15,-39 16,-41 0,-1 34,-37 6,-55 25,-37 23,-72 10,-111l-140 -19 -6 -29c-71,-28 -89,-62 -146,-89 -22,-10 -68,-32 -84,7 -6,15 -1,26 4,39 -18,0 -44,4 -40,31 2,15 15,27 27,36 -34,27 -15,57 29,68l26 6c-4,9 -10,26 -4,35 -8,-8 -16,-16 -24,-25 -11,13 -15,18 -38,17 -31,0 -41,-8 -69,-18 -40,-14 -83,-24 -125,-30 40,-43 80,-86 119,-131 17,-21 35,-42 49,-65 27,-38 62,-74 64,-130 2,-43 -25,-78 -27,-149 -1,-36 13,-46 33,-86 15,-32 71,-160 21,-183 -19,-9 -42,8 -56,21l12 -21c-5,-16 -12,-27 -30,-31 19,-19 19,-33 10,-54l-6 -1c0,-19 5,-29 -12,-53 -4,-7 -4,-7 -16,-11 -38,-14 -58,9 -69,43 -27,-31 -54,-13 -64,19 0,0 0,-1 0,-1l16 -48c6,5 56,0 75,-22l9 -12c6,-5 32,-6 38,-23l0 -12c31,-5 65,-6 56,-51l63 -85c-18,-12 -36,-24 -53,-36l2 -92c-14,4 -41,8 -50,16 0,0 -1,-1 -1,-2 10,-11 15,-24 9,-39 38,-30 30,-85 -10,-83 -11,-20 -36,-27 -55,-15 42,-60 77,-114 57,-191 -19,-73 -63,-85 -111,-131 12,-4 21,-10 24,-23 47,20 93,-4 93,-36 29,-10 42,-18 56,-40 10,-16 28,-39 16,-64l-16 -17c5,-12 24,-25 10,-57 -7,-16 -10,-19 -32,-25 2,-25 -15,-31 -29,-38 5,-14 32,-34 20,-64 -3,-8 -4,-8 -11,-12 -16,-7 -45,-9 -60,3 -8,-16 -22,-32 -41,-29 15,-14 2,-42 -6,-56 49,4 69,-19 64,-67 27,-15 127,-75 62,-113 9,-25 9,-54 -22,-57 28,-69 -20,-102 -70,-48l-17 -9c6,-33 -32,-46 -61,-38 9,-37 -30,-103 -82,-44 -7,8 -10,19 -10,31 -24,-23 -75,-20 -66,55 -53,-10 -46,69 -25,95l10 19c-63,5 -32,74 -14,106 -31,11 -30,58 -3,85 6,7 28,23 40,25l-5 11c-10,-6 -20,-10 -32,-7 -15,-34 -47,-45 -64,-21 -1,0 -2,0 -2,0 -12,-72 -94,-55 -88,19l-9 -7c36,-70 -34,-117 -79,-56l-12 24c-41,-15 -84,22 -53,72 15,25 -6,15 -6,51l4 21c-106,-5 -143,128 -28,174 0,70 94,56 131,54 3,28 23,34 51,37l39 0c2,10 12,38 20,47l18 15c-2,16 -3,27 -3,33 -16,-20 -46,-46 -68,-19 -37,-75 -107,-62 -99,2 -17,-12 -66,-39 -74,-7l0 2c-68,-3 -134,88 -14,118 -34,22 -22,62 32,74 0,2 0,4 0,6 -48,6 -68,26 -36,69 -56,25 -66,94 15,91 0,59 32,60 72,24 35,37 68,-3 87,-34 40,33 66,-17 77,-50 8,10 19,21 31,23l-54 76c-12,-23 -36,-27 -51,-14 -45,-6 -116,49 -48,93l33 13c9,11 23,16 37,11 -4,26 -6,63 4,89 -30,-4 -39,32 -32,62l-2 3 -12 -10c15,-26 6,-89 -35,-71 2,-22 3,-70 -30,-73l-12 2c0,-51 -5,-41 -26,-64 -5,-5 -8,-7 -18,-7l-16 4c-10,-38 -51,-66 -78,-24 -60,-32 -76,30 -53,65 -35,11 -37,39 -7,66 -28,2 -33,30 -33,53 -16,-6 -21,-8 -31,-3 -6,3 -50,2 -36,68 4,21 17,41 36,51 5,27 26,32 50,26 -7,8 -9,9 -8,28 2,31 24,43 53,40 14,-1 22,-9 39,-18 18,34 56,17 82,2l27 6c-6,28 3,38 4,47 2,8 -1,21 16,35 31,25 71,-22 78,-46 3,-11 39,-17 -11,-64 6,-4 11,-7 17,-11 36,31 114,134 142,171 0,1 0,1 -1,1 -22,-13 -29,21 -34,30l-12 -5c-5,-16 -23,-33 -41,-35 -30,-62 -101,-30 -104,12 -1,19 11,40 23,53l1 23 -22 5c-23,-24 -57,-24 -64,13 -44,-20 -75,-29 -88,28 -25,-1 -28,-14 -59,6 -49,32 0,104 28,113 10,3 -9,23 16,55 17,20 45,21 69,14l33 16c-29,12 -48,13 -58,60 -26,10 -40,40 -33,67 8,31 5,1 0,38 -1,13 7,50 25,64 19,15 57,11 62,8 8,-8 16,-15 24,-23 50,8 53,-30 58,-30 32,50 88,-22 101,-57l1 7c37,20 55,-7 77,-37l40 -61 12 12c0,10 1,20 1,30l6 67 -52 57c-16,16 -33,31 -49,46 -14,19 -28,37 -43,55 -24,28 -48,57 -71,86 -12,2 -23,3 -35,5l-3 -18c35,-13 45,-53 9,-70 -3,-27 -10,-65 -47,-63 -41,3 -49,47 -37,79 -20,27 1,58 41,60l2 16c-5,1 -10,1 -14,2 -2,-6 -3,-12 -5,-18 -59,-12 -36,-29 -62,-49 -10,-7 -20,-6 -27,-11 -4,-3 -12,-6 -17,-1 -11,-11 -48,-37 -65,-21 -19,-10 -41,-14 -57,2 -21,-20 -45,-20 -70,-9 -6,2 -10,10 -13,15 -41,-13 -85,-7 -80,42 -15,-1 -51,-7 -60,8 -12,18 -36,36 -2,71 15,15 54,48 74,47 35,-2 23,-9 36,4 -4,14 -1,29 3,42 -19,18 -43,10 -47,30 -4,17 -5,32 9,45 4,3 8,6 14,8 -45,51 3,89 44,69l27 -15c21,50 62,47 88,-5 35,23 84,-1 93,-52 39,22 76,-19 69,-79 36,35 82,-27 61,-75l30 -3c-43,67 -34,72 32,113 -9,6 -8,11 -10,15 -4,10 -22,31 2,55 -23,23 -26,47 -22,78 10,92 100,42 113,-36l14 -3c1,2 1,5 2,7 -17,17 -67,72 -15,83l35 0 16 25c17,-1 10,-2 17,2 -20,29 -47,79 -18,111 15,17 38,9 54,-1 48,31 82,11 110,-34 23,8 42,3 59,-14 9,-8 9,-12 15,-25l71 -1c5,1 6,4 19,2 28,-6 75,-40 93,-36l53 6c-15,31 -7,115 43,103 33,-8 62,-58 66,-91 22,2 44,3 66,4zm-596 -2421c14,-12 17,-32 16,-51 6,2 10,8 12,13 -22,64 -16,41 -25,109 -3,-2 -7,-4 -11,-5l-8 -32 -11 -28c10,3 18,1 27,-6z"/>
<path class="fil2" d="M5458 3537l23 -15 2 29 -14 3 -11 -17zm-241 1782c16,-13 24,-46 11,-68 -11,-1 -36,9 -35,21 1,15 13,36 -9,47 11,11 18,11 33,0zm749 -183l-58 -77 46 83 -78 -21 86 40 38 64 -80 -11 85 26 55 64 -40 -70 10 -63 -19 49 -31 -68 -10 -85 -4 69zm129 219c-14,-25 -37,-50 -26,-55 -11,5 59,-61 -1,-87 15,-57 5,-59 -2,-105 -61,-21 -97,-72 -158,-93 -53,-30 -80,25 -35,58 -58,-20 -82,16 -21,54 -17,3 -68,50 51,66 -21,40 -14,51 50,63 -8,8 -10,16 -10,23l68 22 22 -1 2 10c34,12 33,20 43,46l17 -1zm-506 72c-21,27 -46,35 -79,35 -1,1 -2,2 -2,2l40 2 58 -22 -17 -17c0,0 0,0 0,0zm294 -24c-43,8 -100,13 -118,12 -16,-15 9,-21 -7,-28 -12,-6 -22,-11 -32,-15 -21,16 -33,51 -67,6 -29,21 -44,4 -52,22l-14 23 4 2 0 1 24 16 100 -22 -44 -13c48,7 44,6 91,18l-34 5 -27 33 15 -33 -104 21 -33 44 20 -41 -64 26 -34 50 25 -49 -81 53 70 -60 -16 -3c0,0 0,0 0,0 -11,-1 -7,5 -26,10 -31,8 -51,-12 -63,-17l-10 2c1,5 1,9 2,14 -27,28 -77,83 16,70l15 26c30,-3 104,-3 114,-38 50,12 91,-4 120,-54 18,19 51,16 87,-1 5,-3 30,-29 59,-48 23,-15 41,-20 64,-32zm43 -38l9 16 21 -6c-1,-4 -3,-7 -4,-10l-26 0zm-603 -1426c-7,0 -14,3 -23,6 -61,27 -29,67 11,79 -12,-26 -6,-62 12,-85zm34 -7c-45,-7 -61,101 -17,108 6,0 12,-1 17,-4l18 -68 5 -13c-5,-12 -13,-21 -23,-23zm-165 -806c-22,-47 32,-79 76,-33 69,1 84,24 113,87 34,-25 79,5 84,61 3,13 4,11 7,23 4,0 11,3 17,6 -1,13 16,86 20,104 -4,2 -9,4 -13,6 -6,-7 -14,-13 -14,-17 -27,-23 -32,-38 -59,-61 -12,-17 -7,-52 -11,-73 2,14 -4,51 -2,66 -12,-11 -31,-32 -43,-43 -7,-31 -5,-56 -12,-87 -1,24 -2,47 -3,70 -14,-12 -28,-25 -42,-38 -2,-18 -3,-36 -5,-53 -2,10 -1,28 -3,39 -15,-19 -57,-52 -71,-71 13,25 52,57 65,82 -22,-4 -44,-7 -67,-10 26,7 52,15 77,23 14,16 33,32 47,48 -19,0 -43,0 -62,1 23,4 45,8 68,12 13,10 26,21 40,32 -15,1 -42,7 -56,8 16,2 46,-2 63,0l87 73 -18 15c-13,-6 -25,-12 -34,-19 -21,-5 -46,0 -63,-1 -35,-2 -44,-32 -39,-49 -47,-5 -75,-3 -70,-52 -4,-27 -16,-31 -30,-32 -49,-21 -59,-57 -35,-89 0,-14 -4,-14 -12,-28zm109 -103c-21,0 -42,21 -50,46l20 15c1,0 29,0 53,9 17,-33 7,-71 -23,-70zm85 25c-34,0 -39,55 -33,65l15 20c4,-24 27,-45 53,-48 -4,-21 -18,-37 -35,-37zm41 46c-42,2 -67,50 -39,72 14,-6 30,-5 43,2 -11,-21 -14,-52 -4,-74zm195 38c-14,-6 -32,3 -44,21 -11,-7 -15,-6 -22,-1l-18 -38 -5 13c-20,-16 -32,-15 -43,-9 -19,-62 -72,-41 -59,24 14,66 71,58 63,-9 12,-8 24,3 31,18l-19 56 -8 68 27 130 28 2c-24,-87 -25,-164 -2,-242 5,-8 12,-8 20,0 -26,58 30,83 58,25 11,-25 8,-51 -7,-58zm-56 -376l30 66 -8 36 -12 9 -47 -51 41 59c-18,23 -13,57 -3,83l-17 4 -44 -42 36 46c-39,27 -20,90 -11,126 -9,-3 -19,-11 -32,-22 -35,-40 -11,-76 12,-70 -80,-128 26,-103 19,-104 -8,-2 -19,-32 -23,-34 -24,-39 -20,-101 30,-76 -20,-74 30,-95 60,-48 9,-5 -7,-32 15,-50 43,-47 73,19 60,46 -1,2 -12,5 -15,19 -12,5 -23,14 -31,24l16 -70 -36 105 -40 -56zm181 100c21,-14 41,-70 -14,-81 18,-53 -76,-43 -67,-15 -28,4 -75,62 -40,109 -25,-21 -85,12 -46,97 -88,-3 -40,114 -37,138l16 34c87,-59 123,-97 90,-133 59,-5 66,-36 59,-74 29,16 70,-19 39,-75zm-39 -84l-36 96 -32 -66 21 85 -37 66 -22 -62 13 69 -31 65 -27 -30 22 40 -12 71 22 -54 48 -28 -45 14 39 -70 68 -28 -64 14 49 -83 67 -42 -61 26 18 -83zm108 63c37,-66 -2,-104 -49,-52 19,22 10,58 -9,76l4 10 43 -82 -31 92 54 -11 -56 21c-11,8 0,20 -18,40l63 7 -77 4c-5,2 -17,3 -21,11 0,0 1,27 -13,40l52 24 -76 -7 -16 6c6,12 5,24 1,36l4 5 -11 8 34 14 -40 -6 -27 28c12,-1 23,1 34,6 72,26 89,8 48,-55 50,10 81,-1 72,-60 75,-43 111,-80 61,-104 17,-39 5,-56 -26,-51zm-623 384c-93,-14 -148,114 -24,158 -6,33 23,58 80,53 17,-1 35,-1 52,-2 -8,25 9,41 78,37 6,-34 46,-30 70,-22 6,2 19,19 19,9 11,-9 -12,-33 1,-49l-25 -13c-32,12 -63,24 -95,35 26,-13 46,-26 70,-38 6,-1 12,-1 19,-1 -17,-12 -86,21 -106,-34 -4,-1 -7,-2 -11,-2 -22,6 -73,24 -96,30 17,-10 59,-29 76,-39 -27,-7 -41,-18 -67,-26 -23,2 -51,9 -74,11 19,-7 42,-12 61,-19 -22,-14 -48,-31 -70,-46 25,12 50,23 75,34 4,-15 -6,-34 -3,-49 3,18 12,33 15,51 9,3 17,6 25,10 -9,-21 5,-52 -23,-55 -15,-2 -39,-20 -47,-33zm496 94l-20 -6 33 -27 53 -2c-1,2 -2,3 -2,5 -28,-4 -51,4 -64,30zm-52 56l1 -7c11,-7 24,-14 38,-7 1,-3 2,-5 3,-8l7 -27 -28 -2 -55 30c13,4 25,11 34,21zm184 -162c15,-18 24,-34 13,-52 -18,-11 -60,-13 -62,12 -18,-61 -61,-48 -64,6 -37,-8 -66,4 -72,58 -6,6 -1,11 -7,18 -24,-24 -70,-14 -58,65 -10,-2 -19,-3 -27,-3l3 26 44 8 23 -17 21 -68 -9 66 43 -40 20 -85 -2 73 105 -66 -75 59 41 6c14,-18 37,-24 53,-11 8,-8 24,-8 34,-6 3,-35 -43,-15 -24,-49zm-186 -9c-7,12 -17,24 -30,30 7,0 13,2 19,6 1,-3 2,-5 4,-7l7 -29zm21 -27c-3,-5 -7,-9 -11,-13l-7 33 18 -20zm216 157c16,-19 10,-35 0,-53 -18,-11 -57,-21 -59,4 -14,-27 -48,-14 -54,14 -37,-8 -65,4 -71,58 -6,7 -2,11 -8,18 -12,-12 -24,-8 -33,-2l-3 22c14,17 25,40 30,61l9 -6 20 -68 -8 66 42 -40 20 -85 -2 73 105 -66 -74 59 75 10 -90 3 -34 27 63 18 -73 -7 -50 27c7,29 2,35 19,52 21,-5 25,-16 22,-31 51,30 98,4 92,-28 32,-9 51,-22 59,-38 19,-24 25,-52 6,-67 -10,-4 -10,-8 -3,-21zm-427 123c-3,-1 -5,-1 -8,-2 -39,-7 -61,5 -42,42 4,16 13,27 25,36 52,19 73,-12 48,-54 -5,-8 -13,-13 -23,-22zm-90 223c35,-24 19,-19 66,-19 -21,3 -36,14 -46,34l-20 -15zm-30 -10l36 -12 -17 17 -19 -5zm174 5l-27 -4 25 12c1,6 17,10 18,16 14,-1 15,1 28,-1 0,0 0,0 0,0l-44 -23zm-81 -81c-27,-41 -57,-58 -72,-19 -40,-98 -117,-69 -80,15 -21,-33 -90,-67 -83,-27 -69,-13 -149,94 22,105 -70,4 -73,56 -10,68 15,-39 48,-39 84,-25 5,-12 12,-25 22,-33l-74 25 89 -50 -157 -44 176 33 -46 -69 65 69 43 4 -22 -59 37 58 49 8c0,-1 34,1 33,1 39,19 40,-1 18,-37 -20,-39 -75,-84 -95,-22l1 -1zm69 94c-50,-26 -90,-28 -109,21 -36,-32 -71,-52 -94,14 -52,-23 -81,-11 -84,36 -69,6 -55,34 -29,65 -67,23 -69,89 9,76 -3,58 18,65 63,22 33,41 60,8 85,-35 31,33 56,14 75,-55 41,57 61,42 60,-44 10,-18 19,-35 29,-52 4,4 6,7 6,8l14 17 15 -28 -31 -36 -51 30 -25 66 14 -65 -46 38 -26 83 7 -73 -73 45 -32 78 15 -66 -97 34 84 -46 -58 -21 62 8 69 -27 -79 -25 94 13 36 -25 -54 -31 65 21 74 -44 12 -2zm-713 1489c3,-18 37,-8 66,-9 -12,-62 45,-50 70,-42 9,2 10,-18 19,-16 21,-13 49,-6 64,16 0,-3 13,-32 58,-6 9,-24 64,16 65,28 5,-9 1,-18 14,-6 47,3 19,47 83,56 1,5 2,8 2,12 -25,2 -92,-17 -108,-12 -14,4 -16,20 -16,32 -42,-7 -46,-8 -93,-4l35 -23 113 -10 -117 -9 -48 -44 26 53 -86 -6 -48 -31 26 36 -80 18 89 -7 16 4 -51 49 75 -38 39 0c-20,21 -8,7 -23,17 -15,11 -17,24 -20,27l1 0 -1 7c-18,-2 -8,3 -24,-1 -13,-3 -30,2 -39,13 -2,-2 -3,-4 -5,-6 -14,-8 -16,3 -35,1 -12,2 -30,-15 -42,-22 -23,-20 -62,-45 -25,-77zm468 -60c56,-6 72,47 19,62l4 25 -17 2 -3 -24c-61,3 -64,-58 -3,-65zm29 -6c-1,-6 -2,-12 -3,-18 -9,-52 -84,-41 -65,31 13,-8 19,-15 43,-16l25 3zm106 -313c-30,13 -59,33 -81,58l-79 -3 69 19 -64 51 -54 -10 48 21 -56 68 68 -63 9 44 2 -52 72 -65 4 64 11 -82c18,-25 28,-37 51,-49l0 -1zm-152 13c-39,17 -59,15 -67,65 -20,5 -46,32 -27,72 2,12 -11,21 -1,50 8,43 38,44 70,40 8,-9 17,-17 25,-25 22,5 40,2 49,-19 3,-9 9,-12 18,-9 12,24 34,18 50,0 18,-19 34,-39 40,-62 4,-8 7,-8 11,0 1,5 2,9 3,14 13,8 30,2 37,-6 28,-31 44,-58 63,-88 -17,-5 -37,-16 -49,-30 -8,-9 -9,-13 -28,-23 -10,-5 -18,-4 -31,-2 -8,1 -37,31 -78,6 -20,-12 -22,11 -67,17l-18 0zm473 -780l22 -34 11 -3c-5,10 -5,22 -2,33 -8,12 -11,-3 -31,4zm-19 30l2 -6c0,2 0,3 0,5 -1,0 -2,1 -2,1zm127 -187c-7,-29 -55,-37 -67,18 -4,-2 -8,-3 -11,-3l-44 68c-12,16 -16,9 -17,25l-18 11c-12,13 -24,27 -35,41 -1,13 3,27 13,42 2,8 3,16 5,23 4,-5 13,-8 20,-7 10,-35 17,6 1,-84l20 44 36 -66 -8 -56 17 45 36 -39 7 -55 3 46 49 -39 -44 50 33 12 -36 -8 -38 42 10 -1c0,0 35,-39 69,-5 9,-11 11,-22 3,-35 47,-30 26,-83 -4,-69zm-298 653c-2,50 55,106 43,143 -20,-14 -21,4 -17,35 2,14 -6,11 0,26 -33,12 -47,44 -14,82 2,14 7,10 7,23 -1,28 0,67 5,108 19,-24 27,-47 27,-47l10 -9c4,-46 12,-91 17,-126 9,-11 1,-25 11,-35 -4,-30 9,-49 39,-55 16,-17 26,-33 32,-48 11,-10 -35,-37 -22,-46 11,-9 31,-17 59,-17 13,-3 20,-6 33,-10 12,13 26,22 41,23l0 -5 9 -6c9,-22 7,-45 15,-65 -2,0 -4,0 -5,0 -31,12 -43,9 -56,37 -50,4 -98,19 -131,55 3,-31 17,-70 58,-55 19,-1 38,-2 57,-3 42,-42 71,-42 85,-47 8,-13 16,-33 24,-46 -5,-18 -24,-30 -55,-11 27,-18 51,-41 39,-64 -22,-4 7,-23 -21,-61 -36,-17 -59,-7 -73,52 -46,-78 -77,29 -58,66 -18,20 -16,52 -12,85 0,0 -1,0 -1,0 -15,9 -30,19 -46,28 -9,11 -12,26 -9,46 -19,23 17,64 -2,88 1,-12 -3,-23 -3,-35 -13,-34 -29,-85 1,-118l11 -229 58 -87c125,8 74,-14 139,-45l48 -24 3 -147c-20,6 -36,4 -40,23l-12 2c10,-14 2,-21 -7,-29 -11,-4 -21,-12 -43,4 -17,11 -19,26 -14,45 -6,13 -13,15 -20,12 -20,-6 -31,4 -27,26 -26,9 -30,24 -32,38 -17,-10 -31,4 -30,36 4,23 22,6 14,29l-63 104c-15,69 -17,137 -7,206l-24 59c-31,-51 -146,-219 -224,-295 4,-10 11,-15 20,-19 30,53 74,24 52,-34 -24,-62 -79,-47 -60,16l-13 16c-7,14 -28,-18 -24,-22 15,-18 11,-36 8,-52 -11,-35 -46,-1 -43,-2 5,-21 13,-85 -21,-84 -10,4 -20,2 -19,3 3,3 4,-41 -3,-50 -6,-7 -15,-13 -21,-21 -17,-6 -27,9 -32,6 -5,-46 -51,-68 -67,-23 -68,-45 -70,40 -38,58 -32,2 -63,24 -8,62 -1,29 7,68 54,73 15,22 35,54 102,47 20,-4 21,4 28,6 16,26 38,32 59,29 1,2 2,5 4,8 -60,10 -60,-39 -86,-34l-25 1 7 15 111 56 -115 -35 -111 22 61 -33 -43 -15 -86 13 70 -27 -14 -11 -90 -29 86 14 -11 -44 34 49 83 40 -2 -17c-32,-6 -49,-20 -67,-46 -40,-6 -58,-38 -58,-76 -26,-1 -34,17 -33,44 9,7 19,15 28,22 -30,-9 -68,-24 -62,-16 -57,2 -38,88 2,105 3,36 36,27 73,12 -10,10 -20,21 -29,32 -5,37 11,52 49,46 12,-7 25,-14 37,-21 10,34 39,28 77,5 58,24 93,-13 133,-33 23,16 92,96 186,228zm329 -512l-59 54 -10 -55 -2 61 -18 25 -29 13 3 -52 -19 60 -45 59 49 -44 93 -9 -71 -9 35 -16 19 -17 59 -23 -44 5 39 -52zm65 86c-14,-9 -27,-18 -40,-27l-2 62c-29,14 -72,30 -92,56 -19,24 -68,18 -100,16l-32 50c3,3 6,6 10,9l-10 56c5,7 10,14 16,21l17 -56c3,3 7,5 10,8 37,1 61,-10 73,-34 33,-6 43,-17 31,-36 39,0 72,-5 60,-44 19,-27 39,-54 59,-81zm-670 36l3 -48 -18 39 -62 -66 -15 -59 -6 46 -75 -44 74 59 9 15 -75 1 90 10 37 41 -76 6 98 10 77 86 -61 -96zm551 197l-54 66 -18 -40 14 56 -26 38 -11 -39 4 65 -28 40c51,-52 29,-36 92,-69l-50 19 28 -51 56 -31 -58 18 51 -72zm-354 187c12,2 14,-49 32,-29 3,-2 5,-3 8,-4 10,14 20,28 30,42 0,19 7,37 15,54 9,19 29,54 30,73 -31,-8 -17,49 -20,56 -1,4 -2,8 -1,13 -11,5 -22,15 -27,26l-7 -50 25 -45 -36 30 -11 -68 15 -42 -23 26 -28 -60 21 68 0 14 -48 -31 44 51 7 31 -43 -25 62 58 18 58c-2,28 17,44 20,50l6 19c0,2 0,5 0,7 -6,-6 -13,-12 -20,-18 -23,-4 -46,-18 -49,-52 -5,-5 -2,-12 -21,-17 -58,-24 -61,-59 -65,-84 -37,-24 -40,-49 -26,-73 3,-17 33,15 29,-4 -6,-10 -11,-23 -8,-36 10,-29 28,-62 71,-38zm-198 -127c-4,21 22,53 52,20 15,-12 22,-25 25,-40 23,-10 12,-26 -12,-50 -26,15 -41,23 -70,25 -3,13 -3,29 5,45zm158 92c-21,-16 -47,2 -66,20 -15,15 -28,37 -18,56l25 16c5,5 8,7 21,5 -10,-31 16,-78 50,-79l5 0c-3,-6 -9,-12 -17,-18zm-24 -14c-29,-58 -122,-12 -68,54 10,-22 42,-51 68,-54zm-283 139c8,-8 19,4 46,3 11,-66 45,-43 91,-23 -8,-30 21,-53 52,-15 17,-17 40,-6 59,15 -4,5 -11,26 -9,38 2,21 18,37 34,48 13,85 75,80 83,95l8 26c-7,-13 -47,-27 -65,-18 -19,15 -44,23 -72,3 -7,0 -10,-6 -26,5 -56,29 -85,8 -106,-5 -43,13 -64,-1 -73,-27 -11,-13 8,-31 -9,-41 -30,-10 -77,-81 -13,-104zm200 87l-29 -58 6 59 -79 -36 -33 -46 11 42 -81 -11 85 25 14 10 -65 27 83 -9 37 14 -56 27 105 -24 108 31 -106 -51zm338 48c-7,-11 -12,-6 -19,-7 -1,3 -1,5 -1,8 -2,18 -5,9 -7,26 5,2 8,5 10,8 -2,9 4,12 11,21 7,2 14,2 20,2l24 -48c-2,-3 -4,-6 -6,-9 -15,-5 -26,-5 -32,-1zm7 -62c11,12 14,34 2,50 -2,0 -4,0 -6,1 -6,-6 -12,-5 -17,-5 2,-3 -10,-33 21,-46zm-572 617l-67 -17 50 36 -83 37 -60 -5 41 20 -67 57 81 -51 17 -3 -24 71 52 -73 37 -19 -19 63 55 -100 101 -64 -114 48zm767 74c4,6 -11,10 -11,35 17,-2 102,-11 102,-22 0,-19 -11,-31 -25,-38l-1 0c-1,-1 -4,-2 -9,-3 39,-38 16,-24 39,-16 26,10 67,26 94,38l54 -7 14 -1 -19 -10c-4,-21 -135,-56 -147,-69 -13,-14 -37,-38 -51,-52 -11,13 -35,16 -72,8 -206,-89 -406,-36 -578,-19 0,0 0,1 -1,1 -30,-4 -60,-9 -90,-14 -18,-4 -21,11 -21,21 34,20 16,17 -29,9 -20,-5 -46,-3 -73,-1 -22,-1 -39,10 -45,32 -1,11 10,23 11,23 4,-2 -20,-15 -31,-12 -9,3 -17,-4 -26,-1 -27,4 -26,22 -17,57 -18,22 -49,16 -49,29 -7,18 0,51 42,42 -2,-11 -73,58 -11,74 15,2 28,-5 37,-13 20,-7 6,-7 25,-7 15,42 49,56 78,-10 30,30 86,9 88,-54 43,36 79,-12 67,-73 35,-9 15,-24 17,-50 7,-13 22,-20 38,-25 13,2 38,-1 72,-5 11,0 20,-1 29,-3 98,-11 244,-26 349,3 66,19 115,25 111,33 -29,11 -70,8 -105,18 -8,-10 -16,-19 -38,-16 -15,-9 -9,-1 -12,9 -4,-12 -65,-39 -69,-14 -50,-16 -57,15 -56,18 -20,-18 -48,-19 -67,-2 -8,0 -6,19 -14,20 -26,-3 -85,-3 -60,56 -28,6 -63,4 -62,21 -30,40 13,57 40,70 13,6 35,18 45,13 20,-1 19,-12 35,-8 22,18 56,32 85,-1 25,-1 61,1 92,-54 16,-34 34,-6 62,-34 0,1 2,2 4,3 3,1 23,41 41,12 6,-8 50,-43 78,-41 89,-23 81,-43 82,-38 13,11 13,-4 25,7 -6,9 -15,22 -21,32 -28,-4 -73,-3 -46,29zm-272 -36l-56 -33 37 46 -86 13 -53 -20 32 29 -74 34 85 -25 17 1 -40 59 66 -54 38 -8 -32 53 74 -77 108 -33 -116 15zm-251 104c-13,12 -22,29 -22,46 0,120 85,55 97,-10 -17,-3 -62,-25 -75,-36zm270 113l-16 5c2,-2 4,-4 5,-7 4,1 7,1 11,2zm-102 33c-21,27 -38,56 -36,89 9,37 34,29 58,14 53,38 81,7 105,-34 24,12 44,5 62,-14 11,-27 21,-43 33,-70 1,1 2,3 3,4 14,-27 32,-50 53,-73 -36,12 -51,5 -54,5l-31 14 -40 78 12 -57c-19,10 -30,9 -35,11l-23 15 -17 82 1 -71 -93 75 74 -82 -11 2c-18,7 -43,10 -61,12zm641 -292c4,18 4,40 2,63l18 0 2 -46c-6,-6 -13,-14 -22,-17zm-20 -103c2,9 3,19 3,30 12,11 12,30 7,46 3,4 5,9 7,15l8 2 0 0 19 7 -8 -53 -26 -38 -10 -9zm125 -30c-44,-6 -88,-12 -131,-18 9,46 -8,28 18,49l-1 1 26 25 1 -63 13 65 52 -36 -50 54 4 38 45 -19c-9,9 -47,45 -50,56l-2 45 37 1c13,-10 22,-22 19,-43 23,-27 24,-43 2,-49 28,-35 29,-71 17,-106zm64 172c-38,-54 -52,-9 -67,29l79 10c1,-1 2,-2 3,-3 -2,-11 -7,-23 -15,-36zm-360 267c-13,25 -11,92 27,92 27,0 60,-48 64,-82l-91 -10zm374 -31l-108 78 -63 -5 54 13 -25 37 -59 4 51 7 -82 114 84 -97 3 54 11 -74 31 -44 6 65 6 -68 95 -72c-1,-4 -3,-8 -4,-12zm-15 -41c-22,8 -44,10 -61,50 -16,10 -28,3 -36,-1 -35,0 -63,9 -95,50 -5,17 -15,28 -4,41 -46,28 -56,84 -47,157 -6,37 12,48 53,33 12,-22 26,-39 41,-49 24,9 39,17 57,-3 17,-29 33,-57 50,-86 39,14 63,-25 83,-83 -15,-36 -27,-72 -41,-109z"/>
<path class="fil2" d="M5512 3383c-8,3 -16,6 -24,12l20 4 4 -16zm163 117c-5,-36 -13,-65 -26,-88 -3,44 -8,88 -11,132 0,15 -3,24 -13,37 -11,15 -25,23 -44,27 -4,39 -13,69 -37,104 -28,63 -100,166 -152,237 -36,90 -40,167 -17,195l183 -18c-2,-56 75,-137 119,-181 47,-81 103,-141 123,-193 19,-52 10,-104 -13,-141 -19,-39 -93,-72 -112,-111zm-38 -118c-27,-34 -61,-28 -89,-36l12 59c33,-2 47,-8 77,-23zm27 1155l-38 21c7,-19 19,-28 38,-21zm-9 -180c-14,-19 -28,-37 -41,-55l-10 209c0,1 -5,7 -7,17 8,-12 35,-25 48,-33 -2,-25 -5,-60 12,-82 -7,-18 -5,-37 -2,-56zm13 281c15,25 27,50 35,73 39,-31 77,-83 76,-134 -17,-1 -32,-10 -44,-22l-33 9c-16,1 -34,4 -49,13 10,15 34,29 23,46l-8 15zm-112 -503l-168 17c32,35 31,95 -1,102 2,19 7,38 16,56 11,14 23,29 34,44 4,4 9,7 13,10 30,35 69,78 108,124 10,-25 5,-12 2,-53 -4,-44 -3,-87 4,-131 5,-36 3,-35 19,-59 -13,-30 -22,-65 -27,-110zm-277 1112c-14,21 -24,40 -29,56 -3,15 28,34 60,54l39 -7c-13,-49 27,-62 70,-58 5,-15 4,-13 13,-20 22,-14 42,-17 66,-4 12,-17 34,-18 53,-14 4,-8 8,-16 15,-24 -43,-3 -96,-1 -139,2 -34,3 -69,6 -103,10l-45 5zm509 -680c3,63 -37,129 -115,175 -25,35 -34,93 -106,155 -11,26 -31,55 -81,106l-56 54c-29,40 -72,88 -109,134 109,-15 190,-24 297,-13 1,-1 1,-1 1,-1 68,-73 144,-154 172,-199 40,-51 81,-106 54,-174 -10,-32 -29,-108 -12,-140 109,-188 72,-285 -17,-177 -14,17 -8,48 -21,77 -4,2 -5,0 -7,3zm84 851c-87,32 -173,136 -189,197 37,0 66,-3 65,1 18,9 92,-46 109,-36 113,16 143,18 234,23 23,-25 47,-37 81,-38 18,-1 8,2 21,5 16,5 17,-7 23,-16 17,-27 37,-30 65,-40l22 60c26,-3 48,-6 58,-12 -11,-12 -1,-24 4,-41 31,-40 -121,-63 -86,-63 8,5 20,12 36,1 17,-40 40,-41 61,-49 -3,-8 41,40 38,32 -2,-1 -51,-58 -50,-60 34,32 -278,-82 -492,36zm-231 -2028c-13,7 -37,20 -51,20 -53,12 -69,-3 -112,-7 5,52 11,100 16,152 30,54 113,66 135,-1 2,-55 10,-109 12,-164z"/>
<path class="fil2" d="M5572 3606c-11,6 -23,3 -30,0l0 78 26 -37 4 -41z"/>
<path class="fil3" d="M7912 3232c27,16 31,38 27,71l17 -1 -5 -91 -11 -43c10,28 2,64 -28,64l0 0zm-131 -107c11,9 17,23 19,38 12,-2 25,-2 36,3 9,-14 21,-20 22,-21 0,0 15,-43 54,-16 1,1 3,2 4,4l-30 -24c-10,-4 -29,-1 -43,4 -14,6 -45,15 -62,12zm188 593l12 -15 -20 -1c2,5 5,11 8,16zm61 103c-5,-51 7,-21 -23,-74l-14 16c12,20 24,39 37,58zm-158 486l-8 -43 6 -4c20,30 20,20 2,47zm40 -72l-47 -79c25,-12 11,-43 10,-51 2,-11 4,-21 6,-31 3,-8 10,-14 14,-35 41,57 48,90 28,164l-11 32zm111 174l-70 103 -7 -15 77 -88zm99 -154c15,-1 29,-14 36,-25 3,2 4,3 6,5l-49 53 7 -33zm-251 552c14,24 30,47 50,66l-13 -96c-4,2 1,4 -4,12l-13 15 -20 3zm-66 -90c10,8 25,13 32,24 5,-9 7,-10 24,-13 -10,-16 -8,-38 3,-53 -10,-3 -21,-20 -27,-28l-32 70zm-239 559c19,-7 16,-8 34,-27l-38 13c3,5 4,9 4,14zm69 52l21 -1c-8,-4 -16,-8 -22,-14 -2,1 -5,1 -8,1 3,5 6,9 9,14zm60 16c3,11 0,18 -7,28 9,17 10,12 10,32l33 2c3,-4 -12,-15 3,-25l31 -15c-29,-20 -42,-16 -71,-25l1 3zm-190 22l30 7c2,-6 5,-12 7,-17l43 0 20 -19c-3,-3 -6,-6 -9,-9 -10,8 -70,29 -91,38zm-106 -18l25 -42 -18 -31c-9,21 -9,51 -7,73zm524 -118c-61,5 -119,22 -178,36l73 10c19,-20 31,-14 40,-15 6,-1 9,-8 20,0 13,-8 40,-19 57,-14l-12 -17zm-729 352c0,-1 1,-3 2,-5 -4,-1 -7,-2 -10,-3 -17,46 17,-18 8,8zm223 29l8 13c5,14 12,24 7,38 44,32 50,91 46,141 0,6 -1,12 -1,19 0,18 4,46 -31,49l-39 -9c0,0 -13,-30 -35,-46 -21,8 -41,17 -63,-7 -15,-27 -31,-54 -47,-81 -60,14 -89,-94 -89,-94l21 -52c-34,-3 -42,-3 -69,-17 11,-13 16,-13 0,-43 -16,-31 34,-50 53,-56 -15,-33 -22,-36 -53,-46 -26,24 -26,31 -45,33 -6,-17 -4,-12 25,-46l41 -55 0 3 3 -4 -4 28 55 -9 -1 -1c7,-43 51,-103 82,-54l19 43 12 -1c-19,-18 -15,-40 -15,-41 -1,-1 -35,-37 -7,-55 -25,-37 -22,-71 -10,-111l141 -19 5 -29c72,-28 89,-62 146,-89 25,-11 64,-30 82,3 9,16 4,29 -2,43 18,0 44,4 40,31 -2,15 -15,27 -27,36 34,27 15,57 -28,68l-26 6c3,8 9,27 3,35 8,-8 16,-16 24,-25 11,13 15,18 39,17 31,0 40,-8 68,-18 41,-14 84,-24 126,-30 -41,-43 -81,-86 -120,-131 -17,-21 -35,-42 -49,-65 -27,-38 -62,-75 -64,-130 -2,-43 25,-78 27,-149 1,-37 -13,-46 -33,-86 -15,-32 -71,-160 -21,-183 19,-9 43,8 56,21l-12 -21c5,-16 12,-27 30,-31 -18,-19 -19,-33 -10,-54l6 -1c1,-18 -5,-29 12,-53 4,-7 5,-7 16,-11 38,-14 58,9 70,43 26,-30 53,-14 63,18 0,0 0,0 0,0l-15 -48c-6,5 -57,0 -76,-22l-9 -12c-6,-5 -32,-6 -37,-23l-1 -12c-31,-5 -65,-6 -56,-51l-63 -85c18,-12 36,-24 53,-36l-2 -92c14,4 41,8 50,16 1,0 1,-1 1,-2 -10,-11 -14,-25 -9,-40 -37,-29 -30,-85 10,-82 11,-20 36,-27 55,-15 -42,-60 -77,-114 -57,-191 19,-73 64,-85 111,-131 -12,-4 -21,-10 -24,-23 -47,20 -92,-4 -92,-36 -29,-10 -43,-18 -57,-41 -10,-16 -31,-44 -12,-70l12 -10c-4,-12 -24,-25 -10,-57 7,-16 10,-19 32,-25 -2,-25 15,-31 29,-38 -4,-14 -32,-34 -20,-64 3,-8 4,-8 11,-12 16,-7 45,-9 61,2 7,-15 21,-31 40,-28 -15,-14 -2,-42 6,-56 -48,4 -69,-19 -64,-67 -27,-16 -127,-75 -62,-113 -9,-25 -9,-54 22,-57 -28,-69 20,-102 71,-48l16 -9c-5,-34 33,-46 61,-38 -9,-36 30,-103 82,-44 8,8 10,19 10,31 24,-23 75,-20 66,55 53,-10 46,69 25,95l-10 19c63,5 32,74 14,106 31,11 30,58 4,85 -7,7 -29,23 -41,25l5 11c10,-6 21,-10 32,-7 15,-36 48,-45 64,-21l2 0c12,-72 94,-55 88,19l9 -7c-35,-71 35,-117 79,-56l13 24c40,-15 83,22 53,72 -16,25 5,15 5,51l-4 21c106,-5 144,128 28,174 0,70 -94,56 -131,54 -3,28 -23,34 -51,37l-39 0c-1,10 -12,38 -20,47l-18 15c2,16 3,27 3,33 16,-20 46,-46 68,-19 37,-75 107,-62 99,2 17,-12 67,-39 74,-7l0 2c68,-3 134,88 14,118 34,22 22,62 -32,74 0,2 0,4 1,6 47,6 67,26 35,69 56,25 66,94 -15,90 0,59 -31,61 -72,25 -35,37 -68,-3 -87,-34 -40,33 -66,-17 -77,-50 -8,10 -18,21 -31,23l54 76c12,-23 36,-27 51,-14 45,-6 116,49 48,92l-33 14c-9,11 -23,16 -37,11 4,26 6,63 -4,88 30,-3 40,33 32,63l2 3 12 -10c-15,-26 -6,-89 35,-71 -2,-22 -3,-70 30,-73l12 2c0,-52 5,-41 26,-64 5,-5 8,-7 18,-7l16 4c10,-39 51,-66 78,-24 60,-32 76,30 53,65 35,11 37,39 7,66 28,2 33,30 33,53 16,-6 21,-8 32,-3 5,3 49,2 35,68 -4,21 -17,40 -36,51 -5,27 -26,32 -50,26 7,8 9,9 8,28 -2,31 -24,43 -53,40 -14,-1 -22,-9 -39,-18 -18,34 -56,17 -82,2l-27 6c6,28 -3,38 -4,47 -2,8 1,21 -16,35 -30,25 -71,-22 -78,-46 -3,-11 -39,-17 11,-64 -5,-4 -11,-7 -17,-11 -36,31 -114,134 -142,171 0,1 0,1 1,1 22,-13 29,21 34,30l12 -5c5,-16 23,-33 41,-35 30,-62 101,-30 104,12 1,19 -11,40 -23,53l0 23 22 5c22,-24 57,-24 63,13 45,-21 75,-29 88,28 25,-1 28,-14 59,6 49,32 0,104 -28,113 -10,3 9,23 -16,55 -17,20 -45,21 -69,14l-33 16c29,12 48,13 58,60 26,10 40,40 33,67 -8,31 -5,1 0,38 1,13 -7,50 -25,64 -19,15 -57,11 -62,8 -8,-8 -16,-15 -24,-23 -50,8 -53,-30 -58,-30 -32,50 -88,-22 -101,-57l-1 7c-37,20 -55,-7 -77,-37l-40 -61 -12 12c0,10 -1,20 -1,30l-6 67 52 57c16,15 33,31 49,46 14,19 28,37 43,55 24,28 48,57 72,86 11,2 22,3 34,5l3 -18c-35,-13 -44,-53 -9,-70 3,-27 10,-65 48,-63 39,3 48,44 36,79 20,26 0,57 -41,60l-2 16c5,1 10,1 15,2 1,-6 2,-12 4,-18 59,-12 36,-29 62,-49 10,-7 20,-6 27,-11 4,-3 12,-6 17,-1 11,-11 48,-37 65,-21 19,-10 41,-14 57,2 21,-20 45,-20 70,-9 6,2 10,10 13,15 40,-13 85,-8 80,42 15,-1 51,-7 60,8 12,18 36,36 2,71 -15,15 -54,48 -74,47 -35,-2 -23,-9 -36,4 4,13 1,29 -3,42 19,18 43,10 48,30 3,17 4,32 -10,45 -4,3 -8,6 -14,8 45,51 -3,89 -44,69l-27 -15c-22,50 -62,47 -88,-5 -35,23 -84,-1 -93,-52 -39,22 -76,-19 -69,-79 -36,35 -82,-27 -61,-75l-30 -3c43,67 34,72 -32,113 9,6 8,11 10,15 4,9 22,32 -2,55 23,23 26,47 22,78 -10,89 -96,45 -112,-32 -1,-2 -1,-3 -1,-4l-14 -3c-1,2 -1,5 -2,7 17,17 67,72 15,83l-35 0 -15 25c-18,-1 -11,-2 -18,2 20,29 47,79 18,111 -15,17 -38,9 -54,-1 -48,31 -82,11 -110,-34 -23,8 -42,3 -59,-14 -9,-8 -8,-12 -15,-25l-71 -1c-5,1 -6,4 -19,2 -28,-6 -75,-40 -93,-36l-53 6c15,31 7,115 -43,103 -33,-8 -62,-57 -66,-91 -22,2 -44,3 -66,4zm597 -2421c-14,-12 -18,-33 -17,-51 -6,2 -9,8 -12,13 22,64 17,41 25,109 3,-2 7,-4 11,-5l8 -32 11 -28c-10,3 -18,1 -26,-6z"/>
<path class="fil2" d="M8042 3537l-23 -15 -2 29 14 3 11 -17zm242 1782c-17,-13 -25,-46 -12,-68 11,-1 36,9 35,21 -1,15 -12,36 9,47 -10,11 -18,11 -32,0zm-750 -183l58 -77 -46 83 78 -21 -86 40 -38 64 80 -11 -85 26 -54 64 39 -70 -10 -63 19 49 31 -68 10 -85 4 69zm-129 219c14,-25 37,-50 26,-55 12,5 -59,-61 1,-87 -15,-57 -5,-59 2,-105 62,-21 97,-72 158,-93 53,-30 80,25 35,58 58,-20 82,16 21,54 17,3 68,50 -51,66 21,40 14,51 -50,63 8,8 11,16 11,23l-68 22 -23 -1 -2 10c-34,12 -33,19 -43,46l-17 -1zm506 72c21,27 46,35 79,35 1,1 2,2 2,2l-40 2 -58 -22 17 -17c0,0 0,0 0,0zm-294 -24c43,8 100,13 118,12 17,-15 -9,-21 7,-28 12,-6 22,-11 32,-15 22,16 32,51 67,6 29,21 44,4 52,22l14 23 -4 2 0 1 -24 16 -100 -22 44 -13c-48,7 -44,6 -91,18l35 5 26 33 -15 -33 104 21 33 44 -20 -41 65 26 33 50 -24 -49 81 53 -70 -60 15 -3c0,0 0,0 0,0 11,-1 7,5 26,10 31,8 51,-12 63,-17l10 2c0,5 -1,9 -2,14 27,28 77,83 -15,70l-16 26c-30,-3 -104,-3 -114,-38 -50,12 -91,-4 -120,-54 -18,19 -51,16 -87,-1 -5,-3 -30,-29 -59,-48 -23,-15 -40,-20 -64,-32zm-43 -38l-9 16 -21 -6c1,-4 3,-7 4,-10l26 0zm603 -1426c7,0 15,3 23,6 61,27 29,67 -11,79 13,-26 6,-62 -12,-85zm-34 -7c45,-7 61,101 17,108 -6,0 -11,-1 -17,-4l-18 -68 -5 -13c5,-12 13,-21 23,-23zm165 -806c22,-47 -32,-79 -76,-33 -69,1 -84,24 -113,87 -34,-25 -78,5 -84,61 -3,13 -3,11 -7,23 -4,0 -10,3 -17,6 1,13 -16,86 -20,104 5,2 9,4 13,6 6,-7 14,-13 15,-17 26,-23 31,-38 58,-61 12,-17 7,-52 11,-73 -2,14 4,51 2,66 12,-11 31,-32 44,-43 7,-31 4,-56 11,-87 1,24 2,47 3,70 14,-12 28,-25 42,-38 2,-18 4,-36 5,-53 2,10 2,28 4,39 14,-19 56,-52 70,-71 -13,25 -52,57 -65,82 22,-4 45,-7 67,-10 -26,7 -51,15 -77,23 -14,16 -33,32 -46,48 18,0 42,0 61,1 -23,4 -45,8 -68,12 -13,10 -26,21 -39,32 14,1 41,7 55,8 -16,2 -46,-2 -63,0l-87 73 18 15c13,-6 25,-12 34,-19 21,-5 46,0 63,-1 35,-2 44,-32 39,-49 47,-5 75,-3 71,-52 3,-27 15,-31 29,-32 49,-21 59,-57 35,-89 1,-14 4,-14 12,-28zm-109 -103c21,0 42,21 50,46l-20 15c-1,0 -29,0 -53,9 -17,-32 -7,-71 23,-70zm-85 25c34,0 39,55 33,65l-15 20c-4,-23 -27,-45 -53,-48 4,-21 18,-37 35,-37zm-40 46c41,2 66,50 39,72 -15,-6 -30,-5 -44,2 11,-21 15,-54 5,-74zm-195 38c13,-6 31,3 43,21 11,-7 16,-6 23,-1l17 -38 5 13c20,-16 32,-15 43,-9 19,-62 72,-41 59,24 -14,66 -71,58 -63,-9 -12,-8 -24,3 -31,18l19 56 8 68 -27 130 -28 2c24,-87 25,-164 2,-242 -5,-8 -12,-8 -20,0 26,58 -30,83 -58,25 -11,-25 -8,-51 8,-58zm55 -376l-30 66 8 36 12 9 47 -51 -41 59c18,23 13,57 3,83l17 4 44 -42 -36 46c39,27 20,90 11,126 9,-3 19,-11 32,-22 35,-40 11,-76 -12,-70 80,-128 -26,-103 -19,-104 8,-2 19,-32 23,-34 24,-39 20,-101 -30,-76 20,-74 -30,-95 -60,-48 -9,-5 7,-32 -15,-50 -43,-47 -73,19 -60,46 1,2 12,5 15,19 12,5 23,14 31,24l-16 -70 36 105 40 -56zm-181 100c-21,-14 -41,-70 14,-81 -18,-53 76,-43 67,-15 29,4 75,62 40,109 25,-21 85,12 46,97 88,-3 40,114 37,138l-16 34c-87,-59 -123,-97 -90,-133 -59,-5 -66,-36 -59,-74 -29,16 -70,-19 -39,-75zm39 -84l36 96 32 -66 -21 85 37 66 23 -62 -14 69 31 65 27 -30 -22 40 12 71 -22 -54 -48 -28 45 14 -39 -70 -68 -28 64 14 -49 -83 -67 -42 61 26 -18 -83zm-108 63c-37,-66 2,-104 49,-52 -19,22 -9,58 9,76l-4 10 -43 -82 31 92 -54 -11 56 21c11,8 0,20 18,40l-62 7 76 4c5,2 17,3 21,11 0,0 -1,26 13,40l-52 24 77 -7 15 6c-6,12 -5,23 -1,36l-3 5 10 8 -34 14 40 -6 27 28c-12,-1 -22,1 -33,6 -73,26 -90,8 -49,-55 -50,10 -81,-1 -72,-60 -75,-43 -111,-80 -61,-104 -17,-39 -5,-56 26,-51zm623 384c93,-14 148,114 25,158 5,33 -24,58 -81,53 -17,-1 -35,-1 -52,-2 8,25 -9,41 -78,37 -6,-34 -46,-29 -70,-22 -6,2 -19,19 -19,9 -11,-9 12,-33 -1,-49l26 -13c31,12 62,24 94,35 -26,-13 -45,-26 -70,-38 -6,-1 -12,-1 -19,-1 16,-12 86,21 106,-34 4,-1 7,-2 11,-2 22,6 73,24 96,30 -17,-10 -59,-29 -75,-39 26,-7 40,-18 66,-26 23,2 51,9 74,11 -18,-7 -42,-12 -60,-19 21,-14 47,-31 69,-46 -25,12 -50,23 -75,34 -4,-15 6,-34 3,-49 -3,18 -12,33 -15,51 -9,3 -17,6 -25,10 9,-21 -4,-52 23,-55 15,-2 40,-20 47,-33zm-496 94l20 -6 -33 -27 -53 -2c1,2 2,3 2,5 28,-4 51,4 64,30zm52 56l-1 -7c-11,-7 -24,-14 -38,-7 0,-3 -2,-5 -3,-8l-6 -27 27 -2 55 30c-13,5 -24,11 -34,21zm-184 -162c-15,-18 -24,-34 -13,-52 18,-11 61,-13 62,12 18,-61 61,-48 65,6 36,-8 65,4 71,58 6,6 1,11 7,18 24,-24 70,-14 58,65 10,-2 19,-3 27,-3l-3 26 -44 8 -23 -17 -20 -68 8 66 -42 -40 -20 -85 1 73 -105 -66 75 59 -41 6c-13,-18 -37,-24 -53,-11 -8,-8 -24,-9 -34,-6 -3,-35 43,-15 24,-49zm186 -9c7,13 17,24 30,30 -7,0 -13,2 -19,6 -1,-3 -2,-5 -4,-7l-7 -29zm-21 -27c3,-5 7,-9 11,-13l7 33 -18 -20zm-216 157c-16,-19 -10,-35 0,-53 19,-11 57,-21 59,4 14,-27 48,-14 54,14 37,-8 65,4 71,58 6,7 2,11 8,18 12,-12 24,-8 33,-2l3 22c-14,16 -24,40 -30,61l-9 -6 -20 -68 9 66 -43 -40 -20 -85 2 73 -105 -66 75 59 -76 10 90 3 34 27 -63 18 73 -7 50 27c-7,31 -1,34 -18,52 -22,-5 -26,-16 -23,-31 -51,30 -98,4 -92,-28 -32,-9 -51,-22 -58,-38 -20,-24 -26,-52 -7,-67 10,-4 10,-8 3,-21zm427 123c3,-1 5,-1 8,-2 39,-7 61,5 42,42 -4,16 -13,27 -25,36 -52,19 -73,-12 -48,-54 5,-8 13,-13 23,-22zm91 223c-36,-24 -20,-19 -67,-19 21,3 36,14 46,34l21 -15zm29 -10l-36 -12 17 17 19 -5zm-174 5l27 -4 -25 12c-1,6 -17,10 -17,16 -15,-1 -16,1 -29,-1 0,0 0,0 0,0l44 -23zm82 -81c26,-41 56,-58 71,-19 40,-98 118,-69 80,15 21,-33 90,-67 83,-27 69,-13 149,94 -22,105 70,4 73,56 10,68 -15,-39 -48,-39 -84,-25 -5,-12 -12,-25 -22,-33l74 25 -89 -50 157 -44 -176 33 46 -69 -65 69 -43 4 22 -59 -37 58 -49 8c0,-1 -34,1 -33,1 -39,19 -40,-1 -18,-37 20,-39 76,-84 95,-22l0 -1zm-70 94c50,-26 90,-28 109,21 36,-32 71,-52 94,14 52,-23 81,-11 84,36 69,6 55,34 29,65 67,23 69,89 -9,76 3,58 -18,65 -63,22 -33,41 -59,8 -85,-35 -30,33 -56,14 -75,-55 -41,57 -61,42 -60,-44 -10,-18 -19,-35 -29,-52 -4,4 -6,7 -6,8l-14 17 -15 -28 31 -36 51 30 25 66 -14 -65 46 38 26 83 -7 -73 73 45 32 78 -15 -66 97 34 -84 -46 58 -21 -62 8 -69 -27 79 -25 -94 13 -36 -25 54 -31 -65 21 -74 -44 -12 -2zm713 1489c-3,-18 -37,-8 -66,-9 13,-62 -45,-50 -70,-42 -8,2 -10,-18 -19,-16 -21,-13 -49,-6 -64,16 0,-3 -13,-32 -58,-6 -9,-24 -64,16 -65,28 -5,-9 -1,-18 -14,-6 -47,3 -19,47 -83,56 -1,5 -2,8 -2,12 25,2 92,-17 108,-12 14,4 16,20 16,32 43,-7 46,-8 93,-4l-35 -23 -113 -10 117 -9 48 -44 -26 53 86 -6 48 -31 -26 36 81 18 -89 -7 -17 4 51 49 -75 -38 -39 0c20,21 8,7 23,17 15,11 17,24 20,27l-1 0 1 7c18,-2 8,3 24,-1 13,-3 30,2 39,13 2,-2 3,-4 5,-6 15,-8 16,3 36,1 11,2 29,-15 41,-22 24,-20 62,-45 25,-77zm-468 -60c-56,-6 -72,47 -19,62l-4 25 17 2 4 -24c60,3 63,-58 2,-65zm-29 -6c1,-6 2,-12 3,-18 9,-52 84,-41 65,31 -20,-15 -43,-21 -68,-13zm-106 -313c30,13 59,33 81,58l79 -3 -69 19 64 51 54 -10 -48 21 56 68 -68 -63 -9 44 -2 -52 -72 -65 -4 64 -11 -82c-18,-25 -28,-37 -51,-49l0 -1 0 0zm153 13c39,17 58,15 66,65 21,5 46,32 27,72 -1,12 11,21 1,50 -8,43 -37,44 -70,40 -8,-9 -17,-17 -25,-25 -22,5 -40,2 -49,-19 -3,-9 -9,-12 -18,-9 -12,24 -34,18 -50,0 -18,-19 -34,-39 -40,-62 -3,-8 -7,-8 -11,0 -1,5 -2,9 -3,14 -13,8 -30,2 -37,-6 -28,-31 -44,-58 -63,-88 17,-5 37,-16 49,-30 8,-9 9,-13 28,-23 10,-5 18,-4 31,-2 9,1 37,31 79,6 19,-12 21,11 66,17l19 0zm-473 -780l-23 -34 -11 -3c5,10 5,22 2,33 8,12 11,-3 32,4zm19 30l-3 -6c0,2 0,3 0,5 1,0 2,1 3,1zm-128 -187c7,-29 55,-37 67,18 4,-2 8,-3 11,-3l44 68c12,16 16,9 17,25l18 11c12,13 24,27 35,41 1,13 -3,27 -13,42 -2,8 -3,16 -5,23 -4,-5 -13,-8 -20,-7 -10,-35 -17,5 -1,-84l-20 44 -36 -66 8 -56 -17 45 -36 -39 -7 -55 -3 46 -49 -39 44 50 -32 12 35 -8 38 42 -10 -1c0,0 -35,-39 -69,-5 -9,-11 -11,-22 -3,-35 -47,-30 -26,-83 4,-69zm298 653c2,50 -55,106 -43,143 21,-14 21,4 17,35 -2,14 7,11 0,26 33,12 48,44 14,82 -1,14 -7,10 -7,23 1,28 0,67 -5,108 -18,-24 -27,-47 -27,-47l-10 -9c-4,-46 -12,-91 -16,-126 -10,-11 -2,-25 -12,-35 4,-30 -9,-49 -39,-55 -16,-17 -26,-33 -32,-48 -11,-10 35,-37 22,-46 -11,-9 -31,-17 -59,-17 -13,-3 -19,-6 -33,-10 -12,13 -26,22 -41,23l0 -5 -9 -6c-9,-22 -7,-45 -15,-65 2,0 4,0 5,0 31,12 43,9 57,37 49,4 97,19 130,55 -3,-31 -17,-70 -58,-55 -19,-1 -38,-2 -56,-3 -43,-42 -71,-42 -86,-47 -8,-13 -16,-33 -24,-46 5,-18 24,-30 55,-11 -27,-18 -51,-41 -39,-64 22,-4 -7,-23 22,-61 35,-17 58,-7 72,52 46,-78 78,29 58,66 18,20 16,52 12,85 0,0 1,0 1,0 15,9 31,19 46,28 9,11 12,26 9,46 19,23 -17,64 2,88 -1,-12 4,-23 3,-35 13,-34 29,-85 -1,-118l-11 -229 -57 -87c-126,8 -75,-14 -140,-45l-48 -24 -3 -147c21,6 36,4 40,23l12 2c-10,-14 -2,-21 7,-29 11,-4 22,-12 43,4 17,11 19,26 14,45 6,13 13,15 20,12 20,-6 31,4 27,26 26,9 31,24 32,38 17,-10 31,4 30,36 -4,23 -21,6 -14,29l64 104c14,69 16,137 6,206l24 59c32,-52 145,-218 224,-295 -4,-10 -11,-15 -20,-19 -29,53 -74,24 -52,-34 24,-62 79,-47 60,16l13 16c7,14 28,-18 24,-22 -15,-18 -11,-36 -8,-52 11,-35 46,-1 43,-2 -5,-21 -13,-85 21,-84 10,4 20,2 19,3 -3,3 -4,-41 3,-50 6,-7 15,-13 21,-21 17,-6 27,9 32,6 5,-46 51,-68 67,-23 68,-45 70,40 38,58 33,2 63,24 8,62 2,29 -7,68 -53,73 -16,22 -36,54 -103,47 -20,-4 -21,4 -28,6 -16,26 -38,32 -59,29 -1,2 -2,5 -4,8 60,10 60,-39 86,-34l25 1 -7 15 -110 56 114 -35 111 22 -61 -33 43 -15 86 13 -70 -27 14 -11 90 -29 -86 14 11 -44 -34 49 -82 40 1 -17c32,-6 49,-20 68,-46 39,-6 57,-38 57,-76 26,-1 34,17 33,44 -9,7 -18,15 -28,22 30,-9 68,-24 62,-16 57,2 38,88 -2,105 -3,36 -36,27 -72,12 9,10 19,21 28,32 5,37 -11,52 -49,46 -12,-7 -25,-14 -37,-21 -10,34 -39,28 -77,5 -58,24 -93,-13 -133,-33 -23,16 -92,96 -186,228zm-328 -512l58 54 10 -55 3 61 17 25 29 13 -3 -52 19 60 45 59 -49 -44 -93 -9 71 -9 -35 -16 -19 -17 -59 -23 44 5 -38 -52zm-66 86c14,-9 27,-18 41,-27l1 62c30,14 72,30 92,56 19,24 68,18 100,16l32 50c-3,3 -6,6 -9,9l9 56c-5,7 -10,14 -15,21l-18 -56c-3,3 -6,5 -10,8 -37,1 -61,-10 -73,-34 -33,-6 -43,-17 -31,-36 -39,0 -71,-5 -59,-44 -20,-27 -40,-54 -60,-81zm670 36l-3 -48 18 39 62 -66 15 -59 6 46 75 -44 -74 59 -9 15 75 1 -90 10 -37 41 76 6 -98 10 -77 86 61 -96zm-551 197l54 66 18 -40 -14 56 26 38 11 -39 -3 65 27 40c-51,-52 -29,-36 -91,-69l49 19 -28 -51 -56 -31 58 18 -51 -72zm354 187c-12,2 -13,-49 -32,-29 -3,-2 -5,-3 -7,-4 -11,14 -21,28 -31,42 0,19 -7,37 -15,54 -8,19 -29,54 -30,73 31,-8 17,49 20,56 1,4 2,8 1,13 11,6 22,15 27,26l7 -50 -25 -45 36 30 12 -68 -16 -42 23 26 28 -60 -21 68 0 14 48 -31 -43 51 -8 31 43 -25 -62 58 -18 58c2,27 -17,44 -20,50l-6 19c1,2 1,5 1,7 5,-6 12,-12 19,-18 24,-4 46,-18 49,-52 5,-5 2,-12 21,-17 58,-24 61,-59 65,-84 37,-24 40,-49 26,-73 -3,-17 -33,15 -29,-4 6,-10 11,-23 8,-36 -10,-29 -28,-62 -71,-38zm199 -127c3,21 -23,53 -53,20 -15,-12 -22,-25 -25,-40 -23,-10 -12,-26 13,-50 25,15 40,23 69,25 3,13 3,29 -4,45zm-159 92c21,-16 47,2 66,20 15,15 28,37 18,56 0,0 -15,6 -25,16 -5,5 -8,7 -20,5 9,-31 -17,-78 -51,-79l-5 0c3,-6 9,-12 17,-18zm24 -14c29,-58 122,-12 68,54 -10,-22 -42,-51 -68,-54zm284 139c-9,-8 -20,4 -47,3 -11,-66 -45,-43 -91,-23 9,-30 -21,-53 -52,-15 -17,-17 -40,-6 -59,15 4,5 11,26 9,38 -2,21 -17,37 -34,48 -13,85 -75,80 -83,95l-8 26c8,-14 47,-27 65,-18 19,15 44,23 72,3 7,0 10,-6 26,5 56,29 85,8 106,-5 43,13 64,-1 73,-27 11,-13 -8,-31 9,-41 30,-10 77,-81 14,-104zm-201 87l29 -58 -6 59 79 -36 33 -46 -11 42 82 -11 -86 25 -14 10 66 27 -84 -9 -37 14 56 27 -104 -24 -109 31 106 -51zm-338 48c7,-11 12,-6 19,-7 1,3 1,5 1,8 2,18 5,9 7,26 -4,2 -8,5 -10,8 2,9 -4,12 -11,21 -7,2 -14,2 -20,2l-24 -48c2,-3 4,-6 6,-9 15,-5 26,-5 32,-1zm-7 -62c-11,12 -14,34 -2,50 2,0 4,0 6,1 6,-6 12,-5 17,-5 -2,-3 10,-33 -21,-46zm573 617l66 -17 -50 36 83 37 60 -5 -41 20 67 57 -80 -51 -18 -3 24 71 -52 -73 -36 -19 18 63 -55 -100 -101 -64 115 48zm-768 74c-4,6 11,10 11,35 -17,-2 -102,-11 -102,-22 0,-19 11,-31 25,-38l1 0c1,-1 5,-2 9,-3 -39,-38 -16,-24 -38,-16 -27,10 -68,26 -95,38l-54 -7 -14 -1 19 -10c4,-21 135,-56 147,-69 13,-14 37,-38 51,-52 11,13 35,16 72,8 206,-89 406,-36 578,-19 0,0 0,1 1,1 30,-4 60,-9 90,-14 18,-4 21,11 21,21 -34,20 -15,17 29,9 21,-5 46,-3 73,-1 22,-1 39,10 46,32 0,11 -11,23 -12,23 -3,-2 21,-15 31,-12 9,3 17,-4 26,-1 27,4 26,22 17,57 18,22 49,16 49,29 7,18 0,51 -42,42 2,-11 73,58 11,74 -15,2 -27,-5 -37,-13 -20,-7 -6,-7 -24,-7 -15,42 -49,56 -79,-10 -30,30 -86,9 -88,-54 -43,36 -79,-12 -67,-73 -35,-9 -15,-24 -16,-50 -8,-13 -23,-20 -39,-25 -12,2 -38,-1 -72,-5 -11,0 -20,-1 -29,-3 -98,-11 -244,-26 -349,3 -66,19 -115,25 -111,33 29,11 70,8 105,18 8,-10 16,-19 38,-16 15,-9 9,-1 12,9 4,-12 65,-39 69,-14 50,-16 57,15 56,18 20,-18 48,-19 67,-2 8,0 6,19 15,20 25,-3 84,-3 59,56 28,6 63,4 62,21 30,40 -13,57 -40,70 -13,6 -35,18 -45,13 -20,-1 -19,-12 -35,-8 -22,18 -56,32 -85,-1 -25,-1 -61,1 -92,-54 -16,-34 -34,-6 -62,-34 0,1 -2,2 -4,3 -3,1 -23,41 -41,12 -5,-8 -49,-43 -78,-41 -89,-23 -80,-43 -82,-38 -13,11 -12,-4 -25,7 7,9 15,22 21,32 28,-4 73,-3 46,29zm272 -36l56 -33 -36 46 85 13 53 -20 -32 29 74 34 -85 -25 -17 1 40 59 -66 -54 -38 -8 32 53 -74 -77 -108 -33 116 15zm251 104c13,12 22,29 22,46 0,120 -85,55 -97,-10 17,-3 62,-25 75,-36zm-270 113l16 5c-2,-2 -4,-4 -5,-7 -4,1 -7,1 -11,2zm103 33c20,27 38,56 35,89 -9,37 -34,29 -58,14 -53,38 -81,7 -105,-34 -24,12 -44,5 -62,-14 -11,-27 -21,-43 -33,-70 -1,1 -2,3 -2,4 -15,-27 -33,-50 -54,-73 36,12 52,5 54,5l31 14 40 78 -11 -57c18,10 29,9 34,11l24 15 16 82 -1 -71 93 75 -74 -82 11 2c18,7 43,10 62,12zm-642 -292c-4,18 -4,40 -2,63l-17 0 -3 -46c6,-6 14,-14 22,-17zm20 -103c-2,9 -3,19 -3,30 -12,11 -12,30 -7,46 -3,4 -5,9 -7,15l-7 2 0 0 -20 7 8 -53 26 -38 10 -9zm-125 -30c44,-6 88,-12 131,-18 -9,46 8,28 -17,49l0 1 -26 25 -1 -63 -13 65 -52 -36 50 54 -4 38 -44 -19c8,9 46,45 50,56l1 45 -37 1c-13,-10 -22,-22 -19,-43 -23,-27 -24,-43 -2,-49 -28,-35 -29,-71 -17,-106zm-64 172c38,-54 52,-9 67,29l-79 10c-1,-1 -2,-2 -2,-3 1,-11 6,-23 14,-36zm360 267c13,25 11,92 -27,92 -27,0 -60,-48 -63,-82l90 -10zm-374 -31l108 78 63 -5 -54 13 25 37 60 4 -52 7 82 114 -84 -97 -3 54 -11 -74 -31 -44 -6 65 -5 -68 -96 -72c1,-4 3,-8 4,-12zm15 -41c22,8 44,10 61,50 17,10 28,3 36,-1 35,0 63,9 95,50 5,17 15,28 4,41 46,28 56,84 47,157 6,37 -12,48 -53,33 -12,-22 -26,-39 -41,-49 -24,9 -39,17 -57,-3 -16,-29 -33,-57 -50,-86 -39,14 -63,-25 -83,-83 16,-36 27,-72 41,-109z"/>
<path class="fil2" d="M7988 3383c8,3 16,6 24,12l-20 4 -4 -16zm-163 117c5,-36 13,-65 26,-88 3,44 9,88 11,132 1,15 3,24 13,37 11,15 25,23 44,27 4,39 14,69 37,104 28,63 100,166 152,237 36,90 41,167 18,195l-184 -18c2,-56 -75,-137 -119,-181 -47,-81 -103,-141 -123,-193 -19,-52 -10,-104 13,-141 19,-39 93,-72 112,-111zm38 -118c27,-34 61,-28 89,-36l-12 59c-32,-2 -47,-8 -77,-23zm-27 1155l38 21c-7,-19 -19,-28 -38,-21zm9 -180c15,-19 28,-37 41,-55l10 209c0,1 6,7 7,17 -8,-12 -35,-25 -48,-33 2,-25 5,-60 -11,-82 6,-18 5,-37 1,-56zm-13 281c-15,25 -27,50 -35,73 -39,-31 -77,-83 -76,-134 17,-1 32,-10 44,-22l33 9c16,1 34,4 49,13 -10,15 -34,29 -23,46l8 15zm112 -503l168 17c-32,35 -31,95 1,102 -2,19 -7,38 -15,56 -12,14 -24,29 -35,44 -4,4 -8,7 -13,10 -30,35 -69,78 -107,124 -11,-25 -6,-12 -3,-53 4,-44 3,-87 -4,-131 -5,-36 -3,-35 -18,-59 12,-30 22,-65 26,-110zm277 1112c14,21 24,40 29,56 4,15 -28,34 -60,54l-39 -7c13,-49 -27,-62 -69,-58 -5,-15 -4,-13 -14,-20 -22,-14 -42,-17 -66,-4 -12,-17 -34,-18 -53,-14 -4,-8 -8,-16 -15,-24 43,-3 96,-1 139,2 35,3 69,6 103,10l45 5zm-509 -680c-3,63 37,129 115,175 25,35 34,93 106,155 11,26 31,55 81,106l56 54c30,40 72,88 109,134 -108,-15 -190,-24 -297,-13 -1,-1 -1,-1 -1,-1 -68,-73 -144,-154 -171,-199 -41,-51 -82,-106 -54,-174 9,-32 28,-108 11,-140 -109,-188 -72,-285 17,-177 14,17 8,48 21,77 4,2 5,0 7,3zm-84 851c87,32 173,136 189,197 -37,0 -66,-3 -65,1 -17,9 -92,-46 -109,-36 -113,16 -143,18 -234,23 -23,-25 -47,-37 -81,-38 -17,-1 -8,2 -21,5 -16,5 -17,-7 -23,-16 -17,-27 -37,-30 -65,-40l-22 60c-26,-3 -48,-6 -58,-12 11,-12 1,-24 -4,-41 -31,-40 121,-63 86,-63 -8,5 -19,12 -36,1 -17,-40 -39,-41 -61,-49 3,-8 -41,40 -38,32 2,-1 51,-58 50,-60 -34,32 278,-82 492,36zm231 -2028c13,7 37,20 52,20 52,12 68,-3 111,-7 -5,52 -10,100 -16,152 -30,54 -113,66 -135,-1 -2,-55 -10,-109 -12,-164z"/>
<path class="fil2" d="M7928 3606c11,6 23,3 30,0l-5 78 -21 -37 -4 -41z"/>
<path class="fil3" d="M6905 5561l-1 -16 31 0 -30 16 0 0zm-66 -115c-38,-14 -69,8 -69,8l-35 -3c-19,0 -42,3 -59,13 -29,-52 19,-96 -44,-186 -58,-86 -152,-72 -208,7 -7,10 -2,4 -16,13l-46 29c-67,34 -113,77 -110,155 0,12 3,15 9,29 34,86 48,146 100,224 24,36 54,60 99,45l7 -3 102 -94c8,-6 19,-10 28,-12l-120 111c-16,11 -67,26 -91,60 -12,18 3,4 -31,20 -36,16 -55,36 -81,64l183 14 76 -69c9,-4 54,-4 63,-50 25,2 49,3 74,4 4,-19 9,-39 13,-59 -23,-3 -47,-6 -70,-10 15,-16 31,-33 46,-49l40 32c7,2 35,7 47,-1l19 1c8,0 16,0 25,0l58 55 47 11c98,32 156,111 208,193 9,-34 12,-52 66,-55 35,-3 81,5 115,10l-388 -242 25 -16c25,23 68,63 108,60l0 0 0 0c27,21 119,-23 144,-39 15,-9 50,-40 55,-53 6,-12 6,-59 5,-75l-13 -64c-3,-6 -13,-13 -20,-39 -15,-49 -2,-95 -8,-114 -8,-27 -26,-50 -50,-64 -8,-5 -18,-3 -27,-4 -44,-2 -86,-5 -128,-18 -8,-2 -16,-5 -24,-8 -9,-1 -46,6 -61,18l-14 16c-5,6 -51,30 -20,73l-29 62z"/>
<path class="fil2" d="M7062 5629c-25,-16 -48,-34 -74,-50 -22,25 -49,28 -86,24l-8 42c12,15 25,29 38,43 -1,1 -2,1 -3,2 31,28 59,53 92,55l-2 -2c14,-19 28,-38 42,-57 -1,-18 1,-36 1,-54 0,-1 0,-2 0,-3l0 0zm-106 -84c-17,8 -34,17 -51,27l-2 22 38 1c12,-7 24,-12 36,-17 9,-10 8,-12 16,-7 4,-1 9,-3 13,-4 4,-7 6,-14 7,-22l-57 0zm-81 -152l-27 57 32 31c13,17 18,34 23,55l114 0 -47 -112 -95 -31zm147 152c-2,15 -7,27 -14,36l54 37c-2,-12 -29,-52 -40,-73zm-374 -218c-56,-138 -168,-115 -222,-29 -26,12 -39,27 -65,39 -73,39 -105,82 -100,151 30,71 46,137 86,207 28,46 55,99 115,74 40,-39 61,-53 101,-92 20,-18 52,-18 82,-15 4,-38 12,-16 2,-51 -38,-10 -77,-14 -116,-17l0 -9c38,3 76,7 113,16l-7 -31c-42,-29 -86,-48 -137,-55l2 -9c49,7 92,25 134,52l2 -40c-62,-43 -112,-36 -129,-101l8 -2c8,30 26,47 59,60l0 0 65 34 9 -20c-42,-18 -71,-44 -79,-88l9 -1c7,41 36,65 76,81l12 -12c-25,-43 2,-96 -20,-142zm105 402c73,7 122,-11 165,-43 -9,-10 -18,-20 -27,-30 -3,11 -1,8 -9,14 -21,16 -53,29 -77,23 -16,-5 -33,-7 -49,-11 -6,0 -26,17 -11,29l12 8 -4 10zm95 -266c-10,-16 -53,-17 -73,-2 6,1 32,34 35,39 9,13 17,28 22,47l-8 2c-6,-18 -13,-31 -21,-44 -9,-12 -25,-30 -38,-43 -103,-15 -130,44 -118,113 4,19 10,37 15,56 -10,30 -25,60 41,99 21,4 40,6 43,-7 -28,-16 -14,-44 9,-51 7,-66 33,-102 -27,-150 -1,-1 -2,-2 -4,-3l6 -7c24,19 52,39 44,101l-10 61 -4 -1c18,5 32,6 51,12 41,0 56,-15 70,-25 27,-100 18,-161 -33,-197zm287 -150c-55,-3 -113,-4 -173,-27 -26,4 -54,5 -67,31 -33,21 -37,44 -14,68 32,11 64,21 96,32 23,66 50,125 88,184 13,20 2,59 6,87 -14,18 -27,36 -40,54 4,5 2,13 33,8 88,-22 125,-50 156,-90 10,-46 3,-89 -9,-132 -30,-38 -30,-93 -26,-149 -7,-28 -25,-51 -50,-66zm-527 344c-56,0 -111,9 -125,-63l0 -1c-8,-59 -20,-151 -56,-185 -30,-26 -55,-36 -75,-32 -21,5 -37,23 -50,52 -7,29 -5,61 6,102 12,42 35,93 71,159 6,9 12,17 18,20 7,3 14,2 24,-7 5,-8 30,-70 57,-54l-5 8c-17,-10 -43,49 -46,52 -21,24 -43,9 -56,-15 -46,-83 -98,-193 -78,-267l0 -1c15,-32 33,-52 57,-57 23,-5 51,5 83,33 41,40 48,125 59,191 11,65 63,56 116,56l0 9 0 0z"/>
<path class="fil2" d="M6802 5739l50 46c101,15 182,84 248,190 10,-44 69,-48 144,-37l-358 -222c-27,14 -53,21 -84,23l0 0zm-190 -70c-43,40 -86,82 -130,121 -40,19 -78,35 -96,70 -39,11 -68,32 -93,58 51,6 110,8 161,13 28,-24 47,-45 75,-68 48,-8 57,-28 60,-51 24,1 49,3 74,4 3,-14 6,-28 9,-43 -26,-3 -51,-6 -77,-10 19,-21 39,-42 59,-64l-10 -28 -32 -2z"/>
<path class="fil3" d="M6761 3074l-903 0 0 1814c1,160 88,260 300,287l342 0c125,21 217,-14 261,118 44,-132 136,-97 261,-118l342 0c212,-27 299,-127 300,-287l0 -1814 -903 0z"/>
<path class="fil2" d="M5876 4956c31,135 135,185 265,206l18 2 342 0c11,2 23,4 34,5 101,10 179,-5 226,93 47,-97 125,-83 225,-93 12,-1 23,-3 35,-5l342 0c49,-3 127,-26 171,-52 86,-50 118,-127 119,-224l0 -1802 -1784 0 0 1802 7 68z"/>
<path class="fil3" d="M6368 3362c39,32 7,81 -32,73 -10,-3 -18,-8 -24,-16l-107 0c-3,5 -7,9 -12,13l0 1596 -46 0 0 -1596c-5,-4 -9,-8 -12,-13l-94 0c-29,44 -96,-2 -67,-46 16,-23 51,-24 67,0l98 0c2,-3 5,-6 8,-8l0 -162c-44,-30 2,-96 46,-67 23,16 24,51 0,67l0 162c3,2 6,5 8,8l111 0c13,-19 35,-22 56,-11z"/>
<path class="fil4" d="M6170 3141c31,0 40,43 12,56l0 175c5,2 10,7 13,12l123 0c13,-29 56,-20 56,12 0,31 -43,40 -56,11l-120 0c-3,8 -9,15 -16,18l0 1592 -24 0 0 -1592c-7,-3 -13,-10 -16,-18l-107 0c-13,29 -56,20 -56,-11 0,-32 43,-41 56,-12l109 0c4,-5 8,-10 14,-12l0 -175c-29,-13 -20,-56 12,-56z"/>
<path class="fil3" d="M6556 3463c-9,16 -27,22 -55,18 1,8 2,15 3,23 -13,24 -32,39 -54,53 14,12 10,41 -14,53 4,11 17,8 6,33 -11,29 -30,59 -40,88 1,11 8,15 10,24 3,9 1,24 12,20 8,24 10,47 1,71 20,39 48,80 68,119 -27,-5 -54,0 -82,-6 -50,-9 -101,-29 -148,-38 -44,-22 -41,-40 -41,-62 -9,-23 -22,-18 -35,-7 -9,1 -19,1 -27,-4 -17,-1 -21,-2 -38,-3 -17,15 -27,30 -21,47 -8,12 -31,25 -11,43 1,12 3,22 4,35 2,13 1,27 43,35 26,-3 49,-2 55,18 25,-12 28,6 39,34 44,-45 66,-55 55,15 23,2 35,-11 47,-26 15,20 28,41 25,69 61,-31 67,-43 80,5 7,-14 38,-14 79,4 -38,12 -75,24 -113,37 -66,1 -125,3 -172,22 -12,1 -18,9 -38,15 -34,25 -52,50 -48,71 10,-3 30,-14 38,-4 -6,26 7,38 22,28 3,-5 -4,6 28,40 2,-23 35,-33 97,-29 24,-25 56,-78 49,14 54,-41 98,-80 93,-12 65,-30 55,-27 56,4 46,6 35,-46 77,11 56,68 118,161 200,180 -8,12 -32,19 -41,31 27,-2 -33,45 -82,77 9,4 9,0 19,4 -23,28 -85,113 -78,133 9,3 18,-12 27,-9 1,46 -5,86 -28,113 15,24 42,9 68,-4 2,11 -2,31 0,42 19,-4 43,-17 61,-21 -18,41 -43,96 -80,142 -35,2 -71,-6 -106,-3 -32,12 -45,45 -42,77 12,1 21,-9 33,-7 1,8 1,16 2,24 7,-5 14,-10 22,-14 2,10 5,21 7,32 9,-7 18,-13 27,-19 -34,42 61,2 73,-3 15,22 36,9 56,-9 -3,-9 -3,-16 -1,-24 2,-6 8,4 11,-2 4,-7 5,-30 8,-37 32,-38 64,-76 95,-114 18,0 35,0 53,0 22,-10 25,-28 10,-54 -34,-21 -32,-38 -25,-54 6,3 11,7 17,11 1,-16 2,-32 2,-48 15,32 29,65 43,97 8,23 17,27 25,13 10,-9 19,-8 29,4 3,26 6,53 10,79 28,4 42,-11 49,-33 28,7 42,34 54,63 6,-5 13,-10 19,-14 13,-23 28,-40 57,-20 9,16 19,33 29,49 3,18 -1,35 -8,53 -26,21 -35,45 -42,67 14,0 36,-6 22,17 23,2 46,3 69,5 25,-18 50,-36 75,-54 5,-20 0,-36 -16,-46 -27,-17 -39,-40 -29,-74 -24,-8 -42,-20 -14,-60 34,-7 49,-22 45,-45 -34,1 -41,-16 -22,-52 -40,3 -73,3 -54,-20 -5,-9 -11,-17 -16,-26 -27,-36 -11,-68 12,-50 12,-29 15,-58 11,-86 6,3 12,6 18,9 2,-30 5,-60 7,-90 8,5 15,9 23,14 6,-30 8,-64 -27,-95 11,-1 22,-1 33,-2 4,6 7,12 10,19 6,-4 12,-8 18,-12 5,2 10,4 15,7 3,-4 7,-8 10,-12 6,1 13,2 19,4 2,-4 3,-9 5,-13 4,1 9,1 13,2 2,-7 4,-14 6,-20 5,0 10,1 15,2 -1,-11 -2,-22 -3,-32 5,1 10,2 15,4 -3,-10 -6,-19 -8,-29 3,-10 6,-20 8,-30 0,-16 -1,-32 -2,-48 1,-12 1,-25 1,-37 -20,-27 -61,-109 -81,-136 -64,-33 -69,-58 -110,-121 -49,-69 -55,-142 -59,-222 6,-36 19,-89 59,-113 39,-4 76,-13 85,18 -1,39 -31,74 -44,112 52,-16 88,-9 77,71 16,-5 26,-28 43,-32 24,29 53,60 87,79 1,-26 -5,-70 -4,-96 27,-4 54,-7 80,-11 -14,-18 -28,-36 -42,-54 13,-10 25,-20 38,-30 -18,-11 -37,-22 -56,-33 6,-17 26,-28 31,-45 -44,-10 -111,-1 -165,-10 -149,-93 -233,32 -240,176 0,101 23,198 80,256 78,74 130,156 129,261 -9,43 -33,81 -102,79 -43,-18 -98,-33 -120,-54 -108,-98 -147,-224 -164,-362 44,-42 41,-94 30,-146 4,-13 7,-25 10,-38 -6,-7 -12,-15 -18,-22 4,1 9,1 14,2 0,-7 1,-15 1,-22 -9,-17 -18,-34 -27,-51 -3,-25 -7,-49 -10,-73l-40 -92c6,-6 13,-13 19,-20 -14,-4 -28,-9 -42,-13 -1,-8 -2,-16 -2,-23 8,-6 16,-11 24,-17 -23,-4 -44,-10 -54,-18l4 0 101 -219c-46,6 -66,4 -105,30 -37,-23 -70,-32 -112,-38l-38 -60 -39 61c-43,5 -74,14 -112,37 -36,-25 -63,-25 -105,-30l97 209z"/>
<path class="fil2" d="M6125 3957c21,0 21,23 0,23 -21,0 -21,-23 0,-23l0 0zm-6 -34c19,0 19,24 0,24 -19,0 -19,-24 0,-24zm3 -38c19,0 19,24 0,24 -19,0 -19,-24 0,-24zm19 -28c19,0 19,24 0,24 -19,0 -19,-24 0,-24zm1098 966c-9,81 49,69 61,71 -5,-5 -20,-14 -17,-47 -15,-15 -34,-25 -44,-24zm-382 28c-1,3 3,33 2,36 -32,13 -43,25 -43,33 1,-10 56,-29 68,-26 0,-21 -20,-23 -27,-43zm-46 -91c-1,3 10,10 8,13l14 20c4,-5 -4,-11 -1,-16 -17,-11 -3,-6 -21,-17zm-8 -84c-1,3 -10,0 -11,2l22 39c4,-5 -7,-19 -4,-24 -17,-11 11,-6 -7,-17zm-15 32c-1,2 -10,-1 -11,2l33 31c4,-5 -5,-11 -1,-16 -17,-11 -3,-6 -21,-17zm98 -255c43,10 32,21 42,29 2,2 21,-11 28,-2 11,15 17,28 45,30l15 -1 0 14c-20,-5 -46,3 -68,-35 -14,3 -24,14 -34,-7 -8,-16 -22,-13 -47,-22l-9 -2 10 -10 18 6zm170 318c-37,16 -68,17 -88,-13 -13,-3 -16,-1 -10,7 25,27 60,30 102,16 3,-7 2,-10 -4,-10zm-45 -68c-1,3 -7,18 -8,21 -23,9 9,53 7,13 -6,-11 14,-20 13,-8 -2,15 -1,36 13,36 4,-5 0,-42 4,-47 -23,5 -15,6 -29,-15zm94 128c-1,3 -10,0 -11,3l33 30c4,-5 -5,-11 -1,-16 -17,-11 -4,-6 -21,-17zm43 4c-1,3 -3,6 -4,9 -11,-5 -22,-9 -34,-14 25,25 51,45 79,53 3,-5 7,-10 11,-15 -17,-11 -35,-22 -52,-33zm-530 -520c21,25 42,49 64,74 17,15 22,13 14,-6 -23,-45 -50,-58 -78,-68zm65 -18c21,25 42,50 64,75 17,15 22,13 14,-6 -23,-45 -50,-58 -78,-69zm116 -87l159 195c-38,-77 -96,-143 -159,-195zm9 30c-5,0 -11,0 -17,0 50,82 102,150 160,181 -47,-60 -95,-121 -143,-181zm669 -410c-11,-10 -22,-20 -33,-30 -9,39 -3,73 37,97 -1,-22 -3,-45 -4,-67zm32 -158c-43,-3 -86,-5 -130,-8 -56,-47 -79,-38 -103,-32 -131,37 -148,163 -90,365 23,20 6,38 59,93 49,51 78,84 116,156 45,152 -29,182 -119,194 37,13 73,30 131,-14 45,-53 40,-110 28,-168 -15,-61 -62,-111 -118,-165 -18,-22 -36,-46 -51,-71 -48,-30 -135,-355 84,-371 30,12 44,34 43,67 -13,23 -26,45 -39,68 19,-10 39,-19 59,-28 -3,10 -6,20 -9,30 7,20 14,40 21,60 18,-21 32,-43 19,-74 13,5 25,9 37,14 0,-41 -11,-53 -31,-35 -8,-6 -16,-13 -24,-19 20,5 39,7 44,-8 8,14 16,28 24,42 -5,12 0,26 15,43 24,1 48,1 73,2 -9,-16 -18,-32 -27,-49 -7,-4 -13,-9 -19,-14 -7,2 -13,4 -19,6 -4,-8 -7,-16 -11,-24 12,-1 24,-2 36,-3 0,-19 1,-38 1,-57zm-446 689c-43,-67 -86,-134 -130,-202 33,68 66,136 98,204 -40,-63 -80,-125 -120,-187 -5,2 -10,4 -15,5 53,83 93,170 158,212 3,-5 5,-10 7,-15 14,10 27,20 41,29 2,6 3,11 5,16 55,21 100,54 123,107 2,25 3,49 5,74 -20,25 -40,51 -60,76 34,-35 84,-40 81,-145 11,12 23,19 1,91 19,-33 27,-66 14,-99 -18,-26 -37,-51 -55,-77 -21,3 -26,-1 -16,-10 -62,-9 -78,-29 -88,-49 6,-1 12,-1 18,-1 -28,-26 -55,-52 -83,-77 6,16 11,32 16,48zm-210 -217c-2,8 -5,16 -8,24 53,90 107,176 175,224 -71,-73 -122,-159 -167,-248zm199 267c13,11 27,21 40,32 -1,3 -2,7 -3,10 -9,-6 -17,-11 -26,-17 -94,-48 -162,-161 -238,-256 -1,7 -2,15 -4,22 85,108 178,234 220,239 5,8 11,16 16,23 -13,-8 -26,-16 -39,-24 4,10 8,20 11,30 -10,-6 -20,-12 -31,-18 2,-5 3,-10 4,-15 -15,-2 -30,-2 -35,10 -95,-47 -132,-130 -191,-203 -5,5 -11,9 -16,14 31,42 61,85 92,127 2,-5 5,-9 7,-14 20,29 41,56 69,77 -25,-13 -51,-26 -76,-38 -1,5 -2,10 -3,15 -41,-47 -82,-94 -123,-142 1,7 2,14 3,21 28,33 56,62 84,106 -1,9 0,26 -1,35 -8,-10 -20,-28 -28,-37 -7,4 -14,6 -24,3 -29,-37 -58,-74 -86,-111 -7,2 -13,4 -19,5 37,48 79,90 109,161 31,10 64,18 85,38 11,10 28,15 42,11 11,6 23,-1 31,8 21,24 51,50 76,50 -17,-10 -34,-22 -32,-34 13,8 26,15 39,23 -1,-7 -1,-14 -2,-21 9,-3 18,6 27,20 11,-1 4,-10 1,-17 12,9 24,17 36,26 -20,4 -39,7 -58,10 -23,50 -47,100 -70,150 3,38 17,90 36,124 53,-12 74,1 65,66 16,5 28,-24 46,-14 19,11 54,40 75,38 -1,-13 -7,-20 -8,-34 31,25 61,39 78,71 2,21 4,43 6,64 -26,21 -44,44 -46,69 12,-14 20,-19 25,-16 -3,8 0,20 7,37 19,-14 24,-32 27,-50 6,14 12,28 19,42 4,-1 9,-2 13,-3 6,-9 11,-18 17,-27 24,1 35,-7 32,-25 -12,-12 -24,-23 -36,-34 -13,11 -20,11 -18,3 17,-24 8,-34 -6,-42 -3,-12 -5,-23 -7,-35 -9,-2 -17,-5 -25,-8 27,-5 23,-25 15,-46 -23,52 -26,47 -10,-13 -27,-15 -28,-30 -24,-46 -15,-3 -29,-7 -44,-11 -6,-9 -18,-19 -25,-28 12,-9 29,-16 40,-25 -2,-2 -4,-5 -7,-7 -38,31 -39,-23 -4,-43 -32,-13 -48,-33 -36,-38 6,-3 19,0 18,-24 25,-30 49,-61 74,-92 1,-12 1,-24 1,-36 -6,8 -12,15 -18,22 10,-45 -11,-66 -42,-89 -31,-22 -69,-47 -106,-72 -7,1 -15,-3 -19,3zm-82 241c11,-28 10,-54 4,-79 -24,-8 -34,-21 -51,-36 -38,-3 -61,-8 -90,-30 -7,9 -26,3 -33,11 -4,5 -8,10 -11,15 37,-8 -11,33 -62,65 -2,14 0,1 -2,15 15,27 -41,72 -69,96 27,18 51,38 3,119 23,7 46,2 69,-5 -7,9 -14,17 -21,26 16,-1 31,1 46,0 13,5 23,8 12,24 -15,50 -54,100 -96,149 -61,-11 -112,-14 -123,13 -10,9 -9,14 2,16 21,-22 42,-16 63,-12 -19,1 -38,-3 -56,21 -1,7 0,14 14,15 20,-7 41,-15 61,-23 -14,9 -27,18 -41,27 -1,11 22,1 49,-11 8,-2 11,3 7,16 9,-7 17,-13 26,-20 9,7 16,7 22,-1 6,4 13,7 19,11 -1,-16 -3,-32 -4,-48 21,-1 32,-21 41,-44 4,-3 7,-6 11,-9 -1,-9 -1,-19 -1,-29 17,-10 14,-18 14,-29 21,-8 36,-20 37,-31 3,4 6,9 9,13 31,-24 18,-40 -14,-52 5,-3 7,-9 25,1 -1,-3 -3,-6 -5,-9 -1,-9 3,-13 11,-10 8,6 15,10 23,1 18,29 36,60 51,52 -19,-35 -24,-58 -22,-75 1,-13 -3,-23 -14,-24 -19,-2 -17,-43 -26,-56 11,7 13,28 24,35 -3,-10 -6,-20 -9,-30 9,5 18,11 26,16 -13,-24 -13,-54 -26,-79 14,16 16,37 30,52 -6,-26 -5,-54 -10,-80 13,53 19,114 38,76 -13,-32 3,-67 -7,-90 12,25 12,49 24,73 7,-34 7,-66 4,-98 15,-4 13,14 17,36 1,6 11,9 11,16zm-447 -1063c17,23 5,49 -12,55 1,-9 7,-41 12,-55zm355 144c-8,27 5,34 15,36 -1,-9 -11,-23 -15,-36zm-23 -1c-8,28 5,34 15,37 -2,-10 -11,-24 -15,-37zm-33 43c-10,23 -6,44 9,61 1,-10 -3,-49 -9,-61zm31 -12c-7,-3 -15,-6 -22,-10 4,22 8,44 12,65 12,-12 18,-29 10,-55zm-65 -43c-20,17 -42,4 -64,0 -6,-4 -13,-8 -21,-2 -23,10 -46,19 -69,6 -14,2 -23,5 -6,16 29,9 51,-3 74,-11 29,-14 48,26 99,2 3,-12 -5,-12 -13,-11zm-235 -201c-3,-4 -6,-7 -9,-10 -8,21 -18,42 6,53 7,-21 7,-20 3,-43zm26 221c-8,24 -13,45 7,57 4,-7 8,-14 11,-21 -2,-18 -8,-30 -18,-36zm-91 14c1,-4 2,-8 3,-12 -17,-11 -22,-27 -25,-43 -13,21 -14,42 -5,62 4,-5 7,-10 10,-15 11,22 22,46 31,39 -5,-11 -10,-21 -14,-31zm391 -188c-3,-3 -6,1 -10,8 3,22 9,39 20,49 3,-1 6,-2 10,-2 -2,-25 -9,-42 -20,-55zm-9 -54c-11,-2 -16,2 -12,14 7,4 21,12 28,16 1,7 -4,9 -3,15 3,14 7,23 17,19 13,-4 18,-11 15,-21 -5,-3 -11,-6 -16,-9 -3,-17 -15,-26 -29,-34zm60 177c-6,-13 -13,-26 -19,-39 -16,-9 -23,-3 -20,17 23,28 47,56 70,83 -10,-20 -21,-40 -31,-61zm11 -57c-3,-21 -13,-34 -28,-38 0,21 1,42 2,62 7,19 17,34 30,43 6,2 11,3 16,5 -7,-24 -13,-48 -20,-72zm-255 405c-19,-2 -33,4 -41,17 3,8 5,16 7,24 12,-8 24,-16 36,-24 2,-7 2,-13 -2,-17zm-251 195c-12,-4 -22,0 -32,6 2,12 4,24 6,36 36,-34 48,-38 26,-42zm293 -42c-6,-10 -15,-12 -27,-5 -2,15 -6,31 -17,46 6,6 11,12 17,19 9,-20 18,-40 27,-60zm-432 -177l9 47c14,1 34,-54 -9,-47zm227 39c-5,-11 -11,-21 -16,-32 2,-25 -13,-26 -31,-23 -15,-11 -30,-19 -45,-12 -16,-18 -35,-22 -56,-12 -5,-14 -15,-19 -30,-14 -16,-12 -25,-11 -32,-8 -23,-11 -43,-16 -61,-13 -11,-26 -32,-47 -56,-66 -15,3 -29,6 -43,10 3,13 10,27 26,40 4,-5 8,-10 12,-15 2,16 9,19 17,15 -1,8 -2,16 -3,24 -26,-4 -37,-24 -52,-40 -20,5 -17,17 8,36 -43,7 -14,19 0,31 3,5 6,10 9,15 9,-1 17,-2 26,-3 -3,-8 -6,-15 -8,-22 8,4 16,9 25,14 15,13 23,29 24,47 9,13 13,-15 17,-47 18,7 36,14 55,21 15,4 30,8 46,12 12,20 44,20 79,17 21,13 36,25 13,30 -13,-8 -27,-15 -40,-22 -15,2 -29,3 -44,5 4,12 9,28 14,40 15,-4 30,-12 45,-16 8,10 16,19 23,29 13,2 26,5 38,7 -1,-18 -3,-36 -5,-55 8,13 14,35 21,47 -4,-20 10,-26 36,-1 21,-16 17,-37 10,-58 -7,6 -15,13 -22,19zm225 -31c-13,-7 -27,-14 -40,-21 3,28 15,49 35,64 2,-14 3,-29 5,-43zm62 -50c-26,5 -41,21 -43,46 7,11 15,22 23,33 -1,-13 -1,-27 -1,-40 8,5 17,11 26,16 -2,-18 -4,-37 -5,-55zm36 -108c-11,0 -22,-1 -33,-1 7,32 13,64 20,96 4,14 9,28 14,42 4,-5 9,-10 13,-15 5,-42 1,-83 -14,-122zm-319 -82c-9,17 -21,31 -37,39 13,29 12,16 6,54l21 -2 1 52 28 -51 -17 -17 -2 -75zm78 -180l-23 -14 3 19 20 -5zm33 -61c20,0 20,14 0,14 -20,0 -20,-14 0,-14zm52 9c-10,0 -16,-7 -23,-12 -37,-13 -67,-4 -93,15 -1,23 14,35 48,35 5,-2 6,-6 2,-12 3,0 5,0 7,0 0,9 2,16 18,12 1,-7 1,-14 -3,-20 -36,3 -43,0 -36,-7 16,1 31,2 46,0 7,26 17,54 11,91 5,-2 6,-3 11,-5 1,-21 1,-41 2,-62 3,-11 7,-23 10,-35zm54 115c-29,-12 -50,-8 -67,2 40,26 31,26 67,-2zm65 20c-33,-18 -62,-19 -83,5 -12,12 -9,19 9,22 39,-2 63,-3 85,-8 2,-6 -4,-15 -11,-19zm-110 9c-7,-5 -14,-10 -20,-15 -24,-3 -39,3 -54,9 -13,13 -18,24 -16,33 4,-3 8,-6 12,-10 22,-5 31,2 48,6 29,0 43,-9 30,-23zm113 355c-6,5 -13,11 -19,16 -8,-10 -21,-10 -38,1 -3,-1 -7,-2 -11,-2 -2,5 -4,10 -7,15 -11,-1 -22,-2 -33,-3 -3,7 -6,14 -10,21 -1,-5 -3,-10 -4,-15 -6,1 -12,1 -18,1 -5,9 -9,17 -14,26 -15,4 -30,8 -45,11 0,-5 0,-10 0,-15 -9,-1 -18,-1 -27,-2 -9,12 -18,24 -28,37 -51,12 -102,25 -153,38 -57,6 -115,13 -172,19 -34,16 -56,33 -66,51 22,-1 30,10 26,35 3,-9 7,-16 23,-9 6,9 12,18 17,27 12,-24 49,-12 43,-37 12,1 23,1 35,2 4,5 9,10 14,16 18,-7 23,-19 22,-33 4,-16 21,-24 43,-29 12,5 20,4 33,-5 3,7 26,14 48,0 45,-5 91,-10 136,-14 12,3 23,7 35,10 7,-7 13,-15 20,-22 -3,-9 -6,-17 -9,-25 4,-2 9,-3 14,-5 2,11 5,22 7,33 -7,11 -14,21 -21,32 -38,-1 -76,-2 -114,-3 -38,13 -35,34 -35,55 15,-11 29,-21 44,-32 45,-10 65,3 60,38 33,-18 56,-37 71,-57 12,-15 11,-30 10,-44 -3,-13 -5,-26 -8,-40 7,9 15,19 22,28 -5,-14 -9,-27 -4,-35 10,-16 19,-17 26,-1 -2,9 -4,17 -6,26 17,-11 29,-26 33,-45 8,-1 15,-1 23,-2 -10,-23 2,-36 48,-33 -4,-10 -7,-20 -11,-30zm45 -347c15,18 30,36 45,54 -2,15 -3,31 -5,46 -4,6 -8,12 -13,18 -10,5 -21,10 -31,15 5,11 9,21 14,32 7,17 8,33 14,49 6,90 19,176 68,186 -13,-34 -25,-69 -22,-103 5,-1 11,-1 16,-2 -12,-18 -24,-36 -36,-54 0,-19 0,-38 0,-58 4,15 8,29 11,43 8,15 15,14 23,-6 -8,-21 -15,-42 -22,-63 2,-2 4,-5 6,-7 11,39 21,78 31,117 2,-16 4,-33 5,-50 8,6 15,12 23,17 5,-31 -35,-126 -17,-108l20 19 -18 -42c-7,0 -14,1 -20,1 7,31 8,21 -5,45 -17,-11 -30,-22 -19,-33 5,2 11,4 16,6 -20,-34 -16,-49 7,-56 -22,-29 -47,-59 -73,-68 10,-11 10,-23 0,-34 1,-15 1,-30 2,-45 -8,-7 -15,-15 -23,-22 -6,5 -11,10 -17,15 -12,4 -4,15 1,24 4,1 8,3 12,5 4,10 8,19 12,28 -8,7 -9,17 -5,31zm-35 43c-4,1 -8,2 -13,3 -13,19 -26,39 -40,58 -3,-3 -6,-6 -10,-9 -3,2 -6,5 -9,8 -4,-5 -7,-9 -11,-14 -6,6 -12,11 -19,17 4,10 8,20 11,31 -5,3 -11,6 -17,9 10,19 17,38 39,53 4,10 9,20 13,30 -15,38 -14,23 -6,61 13,-12 26,-23 39,-35 -1,-22 -2,-45 -2,-67 -13,-15 -9,-25 10,-28 -9,-41 -21,-46 -34,-47 3,-3 6,-6 9,-9 6,4 13,8 20,12 0,-4 0,-9 0,-13 -3,-2 -6,-5 -8,-7 1,-2 3,-4 4,-6 5,0 10,0 15,0 3,-16 6,-31 9,-47zm-160 161c-14,4 -20,11 -25,26 16,31 30,62 33,101 8,-20 17,-39 26,-59 -6,-32 -21,-51 -34,-68zm-112 -280c20,-56 -10,-48 -29,-52 -11,-27 -5,-50 19,-69 -31,12 -68,37 -64,90 -17,10 -17,18 -2,23 0,4 0,8 0,13 -4,2 -7,5 -10,7 -8,12 -7,20 5,25 1,4 1,8 1,12 -5,2 -9,4 -13,6 -1,-4 -2,-9 -3,-14 -10,14 -20,27 -30,41 -1,11 1,18 5,20 0,6 -3,12 -10,19 -1,11 4,13 11,10 3,-6 7,-6 10,-12 4,11 4,22 7,33 -10,0 -10,6 -6,16 0,18 7,28 31,20 -8,8 -16,16 -24,24 -3,18 7,17 22,8 15,2 19,11 7,19 -4,2 -12,-1 -17,1 -1,6 2,13 6,21 -6,6 -10,9 -4,18 10,-7 13,0 16,7 9,16 18,32 27,49 -4,17 7,21 33,10 11,-29 23,-57 34,-85 -6,-21 -11,-41 -16,-62 22,8 15,3 31,21 3,-10 6,-20 9,-30 3,13 6,27 10,41 -9,-1 -17,-1 -25,-2 4,13 8,26 12,38 0,3 -37,78 -38,97 6,23 11,46 16,69 4,-1 8,-2 12,-4 3,-26 5,-53 8,-79 7,18 16,26 37,27 5,-9 10,-10 16,-18 -8,-11 -15,-21 -23,-31 -3,-13 -3,-26 12,-41 17,-6 27,-16 21,-36 9,-6 13,0 20,-4 0,0 0,0 0,0 1,14 5,28 23,41 6,13 12,26 18,40 0,10 -1,20 -2,30 7,12 15,15 25,13 8,-27 30,-78 -2,-74 -45,-55 -6,-84 -36,-91 -12,-4 -34,1 -42,22 -8,3 -14,2 -17,-2 -11,-20 -20,-37 -31,-57 -1,-8 -2,-15 -2,-22 5,3 11,7 16,10 6,21 16,39 32,56 35,-22 25,-11 43,-42 -24,1 -18,-1 -28,9 -17,-29 -26,-32 -30,-21 -4,-6 -8,-12 -12,-18 13,5 25,10 38,14 -1,-7 -2,-14 -2,-21 9,9 19,18 29,26 0,-4 1,-9 1,-13 17,14 31,23 28,2 6,-9 13,-10 19,-1 7,15 12,16 14,2 3,0 10,-8 9,2 0,6 13,2 18,-4 13,-9 11,-17 2,-25 -35,0 -71,-1 -106,-1 -13,1 -57,11 -76,8 -18,-7 -13,-19 -4,-31 -3,-18 2,-28 14,-32 15,-10 27,-21 55,-23 7,-20 33,-25 77,-13 0,-31 1,-63 2,-94 -4,-3 -5,-5 -8,-8 10,-5 19,-10 30,-15 25,-5 49,10 71,18 -19,-1 -40,-9 -60,-10 11,4 22,8 32,12 14,1 18,6 12,15 2,10 -5,18 -17,23 -12,-3 -22,0 -32,3 -3,-19 11,-8 33,-19 8,-6 7,-11 -5,-17 -43,-11 -50,12 -20,3 8,7 14,12 -5,15 -14,-3 -22,0 -25,10 0,24 0,48 0,73 47,7 36,2 71,21 2,11 4,23 6,35 6,-20 11,-40 17,-59 -7,-8 -13,-15 -20,-22 -4,8 -9,16 -13,24 5,-24 10,-48 16,-72 6,-6 12,-11 18,-17 1,-15 2,-30 3,-45 -28,-25 -20,-12 -31,-56 -76,0 -153,0 -229,0 -7,8 -14,15 -22,23 -1,27 -3,54 -5,81 0,21 6,34 19,38 10,7 18,14 19,32 -4,5 -13,14 -17,19 1,-24 -6,-43 -25,-35 -15,14 -20,31 -28,45 2,18 1,32 20,48 12,3 19,-1 21,-11 -1,-7 -8,-13 -9,-19 0,-12 15,-14 24,-13 0,12 0,24 0,36 -7,8 -14,16 -21,23 -16,9 -28,8 -37,-5 -11,-21 -12,-39 -12,-57 11,-18 21,-36 32,-53zm146 -133c-19,13 -18,35 -13,47 1,-9 6,-35 13,-47zm40 3c20,13 18,35 13,47 -1,-10 -5,-35 -13,-47z"/>
<path class="fil4" d="M6750 3410l-2 46 76 0 6 -40 -80 -6zm-71 0l-80 6 6 40 76 0 -2 -46zm-121 -101c15,0 15,22 0,22 -14,0 -14,-22 0,-22zm22 53c15,0 15,22 0,22 -14,0 -14,-22 0,-22zm-35 52l23 48 146 0 0 -2 1 2 147 0 22 -48c-116,-13 -223,-16 -339,0zm169 -208l-90 144c-82,-83 -111,-78 -146,-82l21 45c21,-24 54,53 28,61l0 0 13 29c119,-17 230,-14 349,0l13 -29c-21,-3 -2,-73 23,-64l5 3 22 -45c-35,4 -65,-1 -147,82l-90 -144 -1 3 0 -3zm2 93c39,0 39,60 0,60 -40,0 -40,-60 0,-60zm-2 -42c15,0 15,22 0,22 -14,0 -14,-22 0,-22zm-45 48c14,0 14,23 0,23 -15,0 -15,-23 0,-23zm92 0c-15,0 -15,23 0,23 14,0 14,-23 0,-23zm-108 51c14,0 14,22 0,22 -15,0 -15,-22 0,-22zm123 0c-14,0 -14,22 0,22 15,0 15,-22 0,-22zm73 6c-15,0 -15,22 0,22 15,0 15,-22 0,-22zm22 -53c-14,0 -14,22 0,22 15,0 15,-22 0,-22zm52 -30c-14,0 -14,22 0,22 15,0 15,-22 0,-22zm-162 -20c34,4 66,15 94,32l-48 41 -46 -73zm-93 0c-34,4 -65,15 -94,32l48 41 46 -73zm-162 20c15,0 15,22 0,22 -14,0 -14,-22 0,-22z"/>
<path class="fil0" d="M6506 3315c16,-6 35,50 19,54l-23 -49c1,-3 2,-4 4,-5l0 0zm417 0c-16,-6 -35,49 -18,54l22 -49c0,-3 -2,-4 -4,-5z"/>
<path class="fil5" d="M6716 3306c13,0 23,10 23,23 0,13 -10,24 -23,24 -13,0 -24,-11 -24,-24 0,-13 11,-23 24,-23z"/>
<path class="fil0" d="M6756 3416l68 5 -5 30 -65 0 2 -35zm-83 0l-67 5 4 30 65 0 -2 -35z"/>
</svg>