<?xml version="1.0" encoding="UTF-8"?>
<!-- Created with Inkscape (http://www.inkscape.org/) -->
<svg id="svg2" width="1e3" height="666" version="1.1" xmlns="http://www.w3.org/2000/svg" xmlns:cc="http://creativecommons.org/ns#" xmlns:dc="http://purl.org/dc/elements/1.1/" xmlns:rdf="http://www.w3.org/1999/02/22-rdf-syntax-ns#">
 <metadata id="metadata8">
  <rdf:RDF>
   <cc:Work rdf:about="">
    <dc:format>image/svg+xml</dc:format>
    <dc:type rdf:resource="http://purl.org/dc/dcmitype/StillImage"/>
    <dc:title/>
   </cc:Work>
  </rdf:RDF>
 </metadata>
 <rect id="rect3142" y="-5.8981e-14" width="1e3" height="666" fill="#fdfd00"/>
 <path id="path3119" d="m430.44 69.125c1.0431-0.07237 1.8528 0.54473 2.5312 1.8125 2.4752 4.625-0.21705 15.844-5.625 23.406-3.1082 4.3462-3.335 5.0172-2 6.5 2.8574 3.1738 5.6562 12.12 5.6562 18.094 0 5.694 0.0845 5.8628 3.4688 7.4688 4.6053 2.1854 8.2943 7.18 9.125 12.375 0.65922 4.1225-0.70897 6.0017-1.9688 2.7188-0.8543-2.2263-4.2841-1.8203-6.0625 0.71875-2.9976 4.2797-1.5792 18.558 2.375 23.906 2.4879 3.3651 2.5461 3.875 0.46875 3.875-2.8996 0-7.1558 3.9063-8.8438 8.125-2.0048 5.0104-1.3745 8.6927 2.125 12.469 2.0131 2.1722 2.3313 3.1174 1.4688 4.3438-1.0658 1.5153-1.6519 2.7369-6.8125 13.781-2.867 6.1358-7.0609 9.9406-11.875 10.844-3.1196 0.58524-3.4688 1.0013-3.4688 3.9375 0 4.4287-2.1856 9.3544-6.4062 14.406-1.9356 2.3167-4.5306 5.9866-5.75 8.1562-2.4958 4.4407-3.8195 5.0155-3.875 1.6875-0.0206-1.2375-1.6111-4.05-3.5312-6.25l-3.5-4-2.4688 3c-4.3715 5.3096-6.4688 11.027-6.4688 17.594 0 7.5405 2.1742 11.033 7.9062 12.75 3.9339 1.1786 5.6466 0.82239 12.344-2.625 1.293-0.66557 0.82846 7.6776-0.625 11.156-1.7305 4.1416-5.8691 7.1595-11.938 8.6875-2.5736 0.64803-4.6875 1.5362-4.6875 1.9688 0 0.43258 2.0074 4.0391 4.4688 8.0312 5.1594 8.3683 8.4226 16.704 11.531 29.438 2.7131 11.113 6.3878 17.34 17.625 29.938 6.5454 7.3376 9.0394 9.475 10.438 9.0312 2.6562-0.84306 8.9516 2.706 20.688 11.625 11.306 8.5923 15.835 10.417 23.875 9.5938 12.355-1.2655 20.505-11.516 19.031-24-1.4485-12.27-10.356-22.799-29.531-34.875-14.785-9.3117-25.198-19.439-30.656-29.812-3.9316-7.4722-3.9693-7.5427-3.9688-19 4.3e-4 -9.2074 0.36239-12.178 1.8125-14.844 1.6864-3.1003 1.7089-3.6245 0.25-7.9062-3.3509-9.8342-0.79168-20.394 7.7188-31.75 9.6154-12.83 10.204-14.112 10.125-22.5-0.0467-4.9374-0.65166-8.5806-1.75-10.688-2.0925-4.014-2.0546-4.3125 0.1875-4.3125 1.872 0 11.123 5.6609 11.188 6.8438 0.0198 0.36067 1.1203 1.9824 2.4375 3.5938 1.9891 2.4333 2.6564 2.7248 3.9062 1.6875 0.82764-0.68688 1.7921-2.6231 2.1562-4.2812 0.56794-2.5858 1.0193-2.9269 3.0938-2.4062 3.5201 0.8835 12.706-2.0925 15.438-5 1.8217-1.9391 2.4209-3.9046 2.7188-8.7188 0.35097-5.672 0.13078-6.5996-2.6875-10.469-1.6992-2.3327-3.0938-4.4702-3.0938-4.75 0-1.3818 7.0925-0.20191 11.688 1.9375 4.7342 2.2042 7.8882 5.4198 11.875 12.125 0.78176 1.3148 2.3814 1.8182 6.0938 1.875 5.935 0.0908 9.9783-1.8051 11.938-5.5938 1.6207-3.1341 1.9008-12.42 0.40625-13.344-2.1943-1.3562-0.97054-3.5 2-3.5 4.8685 0 12.321 7.9695 14.469 15.469 1.5773 5.5076 1.5782 6.4552 0.125 12.344-1.8284 7.4093-6.6524 14.57-12.594 18.688-3.9924 2.7667-4.0346 2.8572-3.4062 7.5938 0.98856 7.4521-0.18523 11.423-4.6562 15.719l-3.9688 3.8125 2.5625 2.375c4.8111 4.5198 6.9358 12.117 4.5 15.969-0.79316 1.2541-1.5024 1.1455-4.875-0.75-8.8991-5.0016-18.59-2.0508-31.188 9.4688-10.696 9.7807-13.63 11.761-20.969 14.281-5.3772 1.8469-7.789 2.1262-13.906 1.625l-7.375-0.59375 0.625 6.625c0.83715 8.9648 5.5653 16.913 12.875 21.625 4.1863 2.6985 4.7812 2.2102 4.7812-3.8125 0-6.9892 3.0078-13.378 6.3438-13.438 0.47212-8e-3 0.5954 1.1238 0.25 2.5-0.86922 3.4633 2.1181 12.206 5.7812 16.906 1.6777 2.1525 7.5738 7.2589 13.094 11.344s11.992 9.3061 14.375 11.594c4.3082 4.136 8.1562 10.276 8.1562 13 0 1.4822 3.2202 2.4426 11 3.2812 3.9447 0.42525 4.9628 0.087 8.25-2.6562 3.1279-2.6103 3.75-3.7327 3.75-6.9062 0-2.1496-0.65877-4.3644-1.5-5.0625-0.81894-0.67967-1.2713-1.5922-1-2.0312 0.84399-1.3656 6.6215 1.3772 9.125 4.3438 4.3478 5.1519 2.7507 15.283-3.4062 21.594-1.1594 1.1883-0.89489 1.6889 1.7188 3.3438 3.1617 2.0018 4.0278 3.6212 1.8125 3.375-1.5866-0.17629-1.898 1.088-1.1875 4.875 0.31062 1.6557-2e-3 4.3557-0.6875 6l-1.2188 3-0.4375-2.5c-0.6762-4.1319-4.0678-7-8.3125-7-4.5115 0-6.9062 2.0911-6.9062 6.0625 0 2.6013 0.33941 2.9375 3.0625 2.9375 6.0212 0 9.5882 3.8235 8.4375 9.0625-0.77311 3.52-1.667 3.718-3 0.6875-1.6775-3.8137-4.0005-3.2-7.7812 2.0625-2.7642 3.8476-4.6405 5.306-8.6562 6.75-3.9498 1.4203-4.9592 2.2178-4.4062 3.4062 0.98853 2.1246 0.78615 6.5304-0.625 13-1.1808 5.4135-1.0287 9.9023 0.4375 13.281 1.4036 3.2347-1.3481 1.835-7.8125-4-7.8026-7.0429-11.465-8.25-25.094-8.25-5.7566 0-12.779-0.49004-15.594-1.0938-2.815-0.60372-5.2837-0.93508-5.5-0.71875s0.21631 1.5809 0.96875 3.0312c0.75244 1.4503 1.6753 3.9732 2.0312 5.5938 0.8946 4.0731 5.6704 9.1798 8.625 9.2188 2.3723 0.0313 2.3743 0.0629 0.40625 1.5938-1.5152 1.1786-3.636 1.4376-8.75 1.0938l-6.75-0.4375v3.8438c0 3.7247 0.12444 3.875 3.375 3.875 8.264 0 16.466 5.2082 19.312 12.25 1.6087 3.9802 2.575 4.3536 6.875 2.7188 1.483-0.56384 6.5198-1.1263 11.188-1.25l8.5-0.21875 3.7188-4.3438 3.75-4.375 1.125 3.1875c0.90346 2.5917 0.73845 4.086-0.84375 8.25-1.0641 2.8004-3.1472 6.3637-4.625 7.9062l-2.6875 2.8125 3.6562 4.0312c2.0079 2.2225 3.6562 4.9028 3.6562 5.9688 0 1.066 0.45 2.2226 1 2.5625s1 1.8941 1 3.4375 0.88676 3.9057 1.9688 5.2812c1.082 1.3755 1.7103 2.7584 1.4062 3.0625-0.30405 0.30406-2.9908 0.30736-5.9688 0-6.0138-0.62068-7.1856 0.79549-3.4375 4.1875 3.8744 3.5063 7.9304 18.531 5 18.531-0.56935 0-2.0962-0.69335-3.375-1.5312-2.123-1.391-2.5179-1.3506-4.6875 0.40625-2.0535 1.6628-2.3542 2.7262-2.2188 7.7812 0.16012 5.9742 2.2723 12.451 5.0938 15.625 2.1346 2.401 0.50584 3.9214-5 4.6562-3.5364 0.47198-4.3461 0.96551-4.625 2.9375-0.61325 4.3364 0.90574 9.1321 4 12.656l3.0625 3.4688h-4.4062c-3.3675 0-5.4218-0.7546-8.6875-3.1562-2.8206-2.0743-5.5128-3.1792-7.9375-3.25-3.4381-0.1004-3.6839 0.0985-3.6875 2.9062-2e-3 1.65-0.36723 3.5586-0.8125 4.25-1.5719 2.4408-7.2584 4.694-13.188 5.2188l-6 0.53125 0.34375 3.8125c0.93702 10.76-9.0725 17.131-20.844 13.281-5.0278-1.6445-9-1.0092-9 1.4375 0 1.5542-1.7444 1.0998-2.4062-0.625-0.33385-0.86998-0.59375-2.6162-0.59375-3.9062 0-2.688-4.6474-6.8381-6.75-6.0312-1.6052 0.61595-6.302-1.6344-8.1875-3.9062-1.6981-2.0461-5.9099-1.9958-8.2188 0.0937-1.7379 1.5728-1.8438 1.4808-1.8438-1.7812 0-1.8879 0.59976-4.3214 1.3438-5.4062 0.74399-1.0849 1.3544-4.1216 1.3438-6.75-0.0135-3.3186 0.6264-5.6403 2.0938-7.625 2.4861-3.3626 2.0628-4.0938-2.4375-4.0938-1.8333 0-3.3438-0.45-3.3438-1 0-1.7236 3.9119-5 5.9688-5 1.0817 0 3.4914-1.5227 5.3438-3.375 5.0495-5.0495 9.3211-6.141 14.781-3.7812 2.4195 1.0457 5.8638 3.5143 7.6562 5.5 3.8914 4.311 7.223 5.354 12.688 3.9062 2.2325-0.59145 5.2673-0.85139 6.75-0.5625 2.3216 0.45234 3.1544-0.13432 6-4.1562 5.0294-7.1084 7.6901-14.933 7.75-22.812 0.0706-9.2853-2.4024-14.127-8.5938-16.781-4.16-1.7832-4.9411-1.8174-9.1875-0.53125-2.5562 0.77422-7.8062 2.8402-11.656 4.5938-5.8161 2.6491-7.932 3.1019-12.531 2.7812l-5.5312-0.375-2.625 4.1875c-2.0372 3.2722-4.1313 4.9213-9.4688 7.4375-8.3588 3.9405-10.344 5.5953-10.344 8.5938 0 1.7732-0.40876 2.1632-1.75 1.6875-4.9668-1.7614-9.1821-9.0566-9.2188-15.938l-0.0312-4.125-4.9375-0.46875c-2.7187-0.26123-6.0542-1.2079-7.4062-2.0938-3.1862-2.0877-6.1235-9.6854-5.1875-13.406l0.6875-2.7812 1.3438 3.1562c1.588 3.7717 4.1392 5.3438 8.75 5.3438 6.9852 0 9.6174-7.1514 6.3438-17.219-4.3066-13.244-5.5862-18.098-6.7812-25.781-1.4574-9.3704-1.7187-24.193-0.5625-30.625 0.66349-3.6908 0.49173-4.3113-1.6562-5.7188-1.3248-0.86806-5.4318-2.0713-9.0938-2.6562-24.99-3.9921-44.69 16.896-41.969 44.469 0.82791 8.39 1.7898 10.52 4.75 10.562 2.6538 0.0381 4.9809 1.6866 6.5625 4.6562 3.2532 6.108 0.21258 10.659-14.5 21.719-7.0534 5.3022-8.5054 8.5377-5.5938 12.438 2.9862 3.9996 4.7824 4.7658 8.2188 3.4688 4.8927-1.8468 3.5647 0.57576-1.5625 2.8438-5.5512 2.4555-10.008 1.8935-14.375-1.7812-3.621-3.0469-5.6343-2.7986-8.4375 0.96875-1.6626 2.2344-2.0476 4.0998-1.9062 8.875 0.18301 6.1813-0.59631 6.5913-3.0625 1.6875-0.6238-1.2404-1.6391-2.4238-2.25-2.625-1.6053-0.5288-4.4166 4.244-6.9375 11.719l-2.1875 6.5-1.625-3.875c-0.89156-2.1297-1.625-4.9998-1.625-6.375 0-2.1044-0.24287-2.2933-1.5-1.25-0.82151 0.68179-2.8593 3.6403-4.5312 6.5625-5.4755 9.5701-15.919 17.414-23.219 17.438-1.4848 5e-3 -1.6773 0.61636-1.1562 3.875 0.79685 4.9832-0.74763 7.75-5.4062 9.7812-2.0362 0.88779-4.5801 3.0132-5.6875 4.7188-2.8131 4.3327-5.5 4.704-5.5 0.75 0-2.5285-0.73817-3.457-4.4375-5.625-2.4391-1.4294-5.3172-4.1229-6.4062-5.9688-1.9387-3.2859-2.068-3.3321-6.3125-2.4062-2.3843 0.52008-6.4822 1.6491-9.0938 2.5-5.3438 1.7411-9.4932 1.2206-14.438-1.7812-3.1702-1.9247-3.2163-1.9399-5.1562 0-1.9439 1.9439-1.9822 1.9486-2.5-0.0312-0.28682-1.0968-5e-3 -4.4376 0.625-7.4375 1.135-5.4109 1.1289-5.4712-1.8125-7.875-3.2541-2.6593-6.423-3.1708-8.2812-1.3125-1.816 1.816-1.4992-5.1884 0.34375-7.625 0.80751-1.0677 1.4688-2.9027 1.4688-4.0626s0.38681-2.54 0.875-3.0625c0.48818-0.5225 1.2199-1.95 1.5938-3.1875 0.55198-1.827 0.27246-2.25-1.4062-2.25-2.7742 0-2.5879-1.593 0.46875-4.2812 1.3847-1.2178 3.7472-3.366 5.25-4.7812 5.5296-5.2075 8.3773-6.3731 15.125-6.0625 2.6271 0.12092 10.094 7.2701 10.094 9.6562 0 2.057 4.1777 2.8137 11.094 2.0312 4.5124-0.51052 8.0338-0.15888 14.281 1.4062 7.4652 1.8702 8.6162 1.9213 11.719 0.625 1.8939-0.79133 4.1817-2.2421 5.0938-3.25 2.6013-2.8748 5.4958-10.441 6.2812-16.406 0.83888-6.3714 3.0754-14.328 5.0938-18.094 3.0643-5.7179 0.37769-6.4661-6.8125-1.9062-4.7028 2.9824-10.632 5.0814-14.25 5.0312-1.8369-0.0254-1.7961-0.21209 0.5-2.0312 1.375-1.0894 3.1874-2.5077 4.0312-3.1875 1.6661-1.3423 5.3487-6.7909 4.8125-7.125-0.18144-0.11307-2.5938-0.77511-5.3438-1.4688-5.5764-1.4065-9.4814-4.1562-5.9062-4.1562 3.2275 0 7.9936-5.9652 10.406-13 1.6292-4.7504 3.3318-7.4842 6.3125-10.188l4.0938-3.7188-2.4688-0.9375c-4.3861-1.6766-6.4375-4.9339-6.4375-10.188 0-6.0043 3.1916-9.9864 7.9375-9.9375l3.0625 0.0312-2.75 2.0625c-5.0875 3.7958-2.2438 12.875 4.0312 12.875 2.0968 0 9.2188-6.1548 9.2188-7.9688 0-0.4997 2.4277-6.0912 5.4062-12.406 12.444-26.384 22.819-37.687 41.594-45.375 5.8941-2.4135 19.385-4.3887 27.406-4 4.8421 0.23467 4.937 0.19824 5.8438-3.25 0.50621-1.925 1.661-4.3079 2.5625-5.3125 1.5323-1.7076 1.4693-1.9597-0.84375-3.7812-1.3608-1.0717-6.1506-3.719-10.656-5.875-8.9046-4.2608-13.377-8.8505-21.094-21.75-2.0507-3.4279-4.3164-6.2404-5.0312-6.25-0.71481-0.01-2.6099 0.63676-4.2188 1.4688-3.0887 1.5972-14.969 3.2603-14.969 2.0938 0-0.37635 0.92179-1.6529 2.0312-2.8438s2.4858-3.9208 3.0625-6.0625c3.1065-11.537-6.4856 0.3391-11.406 14.125-1.4385 4.0302-4.3872 10.509-6.5312 14.375-3.6172 6.5219-3.9243 6.8246-4.5312 4.4062-0.85296-3.3985-2.8281-3.3071-4.375 0.1875-0.67701 1.5295-3.6941 5.692-6.7188 9.25-3.0246 3.558-5.5236 7.0312-5.5312 7.7188-8e-3 0.6875-0.45 1.25-1 1.25s-1-2.22-1-4.9375-0.48405-5.2362-1.0625-5.5938c-0.57846-0.35751-6.541 4.6977-13.25 11.219-9.2107 8.9526-13.25 12.194-16.562 13.281-3.2677 1.0724-4.7302 2.2319-5.6875 4.5-1.9829 4.6981-7.6558 9.5646-12.375 10.625-4.3352 0.97405-11.415-0.2181-12.594-2.125-0.99711-1.6134-4.0358-1.1013-5.9375 1-2.514 2.778-3.5312 1.6776-3.5312-3.875 0-2.6355-0.48994-6.2054-1.0938-7.9375-0.88553-2.5402-1.6666-3.1562-3.9688-3.1562-1.9712 0-3.9524-1.1296-6.4062-3.6562-3.3762-3.4764-3.6726-3.589-6.2812-2.2812-1.5099 0.75693-3.0875 1.549-3.5 1.75-1.2776 0.62246-0.82055-3.1761 0.75-6.1875 0.82161-1.5754 1.5-4.5862 1.5-6.6875 0-5.0128 1.4014-8.479 4.5938-11.438 3.0636-2.8392 2.4388-4.5-1.6562-4.5-4.3756 0-3.5599-1.5913 1.8125-3.5625 2.6125-0.95854 5.2-2.2904 5.75-2.9375 1.8849-2.2177 5.3711-3.5 9.5-3.5 5.0688 0 7.3254 1.1193 12.594 6.1875 3.3894 3.2606 4.8222 3.9527 8.25 4 7.9626 0.10989 14.834-6.8659 24.062-24.469 6.8736-13.111 8.938-16.308 14.969-22.906 2.8182-3.0835 5.125-5.8225 5.125-6.0938s-0.9-0.71234-2-1c-2.2077-0.57732-2.7454-2.7188-0.6875-2.7188 0.71338 0 2.8899-1.6875 4.8438-3.75 2.9046-3.0661 3.8401-5.1951 5.2188-11.688 0.92736-4.3672 2.1616-8.485 2.7188-9.1562 0.6924-0.8343 0.6555-1.4551-0.125-1.9375-0.64921-0.40123-2.9491 0.99688-5.3125 3.25-8.0159 7.6419-15.923 10.669-21.688 8.2812-2.8932-1.1984-4.0538-3-1.9375-3 0.57356 0 3.2094-2.0046 5.8438-4.4688 5.2533-4.9138 9.7169-12.531 8.7812-14.969-0.32764-0.85382-3.4195-2.9173-6.875-4.5938-7.204-3.495-9.1183-4.595-13.469-7.7188-4.3935-3.1546-5.3125-2.8597-5.3125 1.75 0 4.1381-0.33587 4.9307-5.625 13.188l-3.125 4.875-1.6562-4.0938c-0.90386-2.259-3.5481-6.6307-5.875-9.7188l-4.2188-5.625v-11.312-11.344l-4.8125-4.125-4.8125-4.0938-3 2.875c-2.6426 2.5304-3.754 2.8868-9.1875 2.9062-3.4005 0.0122-7.1737 0.5747-8.375 1.25-2.6933 1.514-7.9466 1.6079-8.8438 0.15625-0.36508-0.59071 0.32189-2.1502 1.5312-3.4375l2.1875-2.3438-2.5938-3.8125c-1.6577-2.4395-2.5938-5.1548-2.5938-7.5625 0-2.5991-0.4519-3.7812-1.4375-3.7812-2.665 0-8.3301-6.4367-9.5-10.781-1.0517-3.9057-1.3871-4.2188-4.5-4.2188-2.9299 0-3.2907-0.26521-2.8125-2.0938 0.31391-1.2004 2.1721-2.8087 4.3438-3.75 4.1449-1.7965 9.1297-7.9189 10.312-12.656 0.41092-1.6457 1.4896-3.8268 2.4062-4.8438 1.5711-1.743 1.5143-1.9892-1.125-4.0938-2.1946-1.7499-2.5231-2.4559-1.5-3.25 2.609-2.025 4.9965-2.2736 8.3438-0.875 2.9999 1.2534 3.7996 1.2378 6.5312-0.125 2.093-1.0441 4.3957-1.3277 7.0312-0.90625 4.2247 0.67557 5.3647-0.95095 2.4062-3.4062-0.825-0.68469-1.5-1.6424-1.5-2.125 0-1.5938 5.6958-0.91637 8.125 0.96875 1.3117 1.0179 4.2978 2.0986 6.6562 2.4062 5.0075 0.65311 8.4863 2.7278 10.938 6.4688 1.4083 2.1493 1.7122 4.4526 1.5 11.781-0.2561 8.8462-0.1605 9.2665 2.9062 13.5 1.74 2.402 4.5391 5.6417 6.25 7.2188 3.8102 3.512 13.719 8.3535 19.125 9.3438 2.2 0.40299 7.15 2.0209 11 3.5938 6.4612 2.6397 7.3562 2.7818 11.688 1.6875 3.9411-0.99572 5.3436-0.92513 8.8125 0.4375l4.1562 1.625 1.5-3.7188c1.9766-4.799 4.8903-7.8761 9.8438-10.469 6.8727-3.5972 21.526-2.622 34 2.2812 8.3308 3.2748 23.621 8 25.906 8 3.5488 0 9.5938-2.835 9.5938-4.5 0-0.69923-3.1419-3.1689-7-5.5-5.9735-3.6092-7.9402-4.2742-13.25-4.5l-6.25-0.28125 0.21875-4.3438c0.42511-8.7187 5.2072-14.875 11.562-14.875 1.3031 0 3.3357-1.125 4.5312-2.5 2.8847-3.3177 4.2723-3.174 3.5625 0.375-0.85603 4.2801 1.0458 4.5801 4.0625 0.625 1.4642-1.9196 3.0737-3.5 3.5625-3.5 0.4888 0 1.0168 1.6735 1.1875 3.7188 0.56536 6.7737 8.1549 8.3318 13.062 2.6875 2.4177-2.7806 4.9997-10.202 4.0625-11.719-0.73018-1.1815-17.796-0.28189-21.312 1.125-7.4599 2.9849-18.598 5.3168-25.469 5.3438-9.0984 0.0357-15.288-2.5722-19.969-8.4688-2.5826-3.2531-3.0163-4.6676-3-9.5 0.0294-8.7233 4.4681-14.579 11.938-15.719 4.8368-0.73795 8.735 0.59952 12.031 4.1562 3.0613 3.3032 3.1959 6.1339 0.3125 6.5625-1.1823 0.17575-3.0547 1.519-4.1562 3-1.8934 2.5456-1.8866 2.8475-0.3125 5.25 2.9389 4.4853 6.161 4.3695 29.625-1 4.125-0.94397 10.425-2.0088 14-2.3438s6.4363-0.81875 6.3438-1.0938c-0.0925-0.275-0.4932-1.76-0.875-3.2812-1.397-5.5659-9.1946-8.548-14.656-5.625-1.5905 0.85119-1.8907 1.7339-1.4375 4 0.33813 1.6906 0.15581 2.9062-0.4375 2.9062-1.6192 0-5.9375-4.7487-5.9375-6.5312 0-1.0019-0.6669-1.4874-1.75-1.2812-1.2083 0.22992-1.9048 1.5574-2.25 4.3125l-0.5 4-2.75-2.7188c-1.5269-1.5017-2.75-3.7856-2.75-5.1562 0-1.403-1.2836-3.7523-2.9688-5.4375l-2.9688-2.9688 0.625-10c0.55426-9.0978 0.41821-10.346-1.5312-13.5-2.8573-4.6232-2.7618-8.2781 0.34375-11.156 3.3539-3.1083 6.6752-3.621 18.031-2.875l9.5625 0.625 3.1875-3.0938c4.5811-4.4072 7.5005-4.8265 15.969-2.25 3.9836 1.212 9.05 2.6958 11.25 3.2812s5.0069 1.683 6.25 2.4375c1.747 1.0603 2.7599 1.0999 4.4062 0.21875 1.2769-0.68337 4.0063-0.87225 6.8125-0.5 7.022 0.9315 10.869-0.24102 15.062-4.5625 2.3307-2.4016 4.0652-3.6257 5.4062-3.7188z" fill="#f90000"/>
 <path id="path2987" d="m422.61 579.42c-0.33385-0.86998-0.60699-2.6373-0.60699-3.9274 0-2.688-4.6428-6.8418-6.7454-6.035-1.6052 0.61595-6.3144-1.618-8.1999-3.8899-1.6981-2.0461-5.9171-2.0004-8.226 0.0891-1.7379 1.5728-1.8287 1.4845-1.8287-1.7775 0-1.8879 0.60872-4.3201 1.3527-5.405 0.74399-1.0849 1.344-4.123 1.3333-6.7514-0.0135-3.3186 0.6263-5.6523 2.0936-7.637 2.4861-3.3626 2.0539-4.0842-2.4464-4.0842-1.8333 0-3.3333-0.45-3.3333-1 0-1.7236 3.9098-5 5.9667-5 1.0817 0 3.4822-1.5155 5.3345-3.3678 5.0495-5.0495 9.3396-6.1475 14.8-3.7877 2.4195 1.0457 5.8656 3.5259 7.658 5.5116 3.8914 4.311 7.2175 5.329 12.682 3.8812 2.2325-0.59145 5.2721-0.83901 6.7548-0.55012 2.3216 0.45234 3.1544-0.12295 6-4.1449 5.0294-7.1084 7.6928-14.952 7.7526-22.832 0.0706-9.2853-2.4086-14.121-8.6-16.775-4.16-1.7832-4.9544-1.8302-9.2008-0.54403-2.5562 0.77422-7.7976 2.8424-11.648 4.596-5.8161 2.6491-7.9362 3.123-12.535 2.8024l-5.5355-0.38593-2.6146 4.1995c-2.0372 3.2722-4.1271 4.9126-9.4646 7.4287-8.3588 3.9405-10.35 5.5935-10.35 8.592 0 1.7732-0.40876 2.1687-1.75 1.693-4.9668-1.7614-9.1914-9.0585-9.228-15.939l-0.022-4.1228-4.9432-0.47498c-2.7187-0.26123-6.0494-1.1998-7.4014-2.0857-3.1862-2.0877-6.1273-9.6796-5.1913-13.4l0.70271-2.7934 1.3352 3.1713c1.588 3.7717 4.1471 5.3287 8.7579 5.3287 6.9852 0 9.6203-7.1477 6.3467-17.215-4.3066-13.244-5.5836-18.102-6.7786-25.785-1.4574-9.3704-1.7402-24.207-0.58395-30.639 0.66349-3.6908 0.48324-4.3098-1.6647-5.7172-1.3248-0.86806-5.4049-2.0569-9.0668-2.6419-24.99-3.9921-44.7 16.879-41.979 44.452 0.82791 8.39 1.7916 10.535 4.7519 10.578 2.6538 0.0381 4.9699 1.6829 6.5515 4.6525 3.2532 6.108 0.2138 10.661-14.499 21.721-7.0534 5.3022-8.5127 8.5442-5.6011 12.444 2.9862 3.9996 4.8014 4.7635 8.2378 3.4664 4.8927-1.8468 3.5502 0.56462-1.5769 2.8326-5.5512 2.4555-9.986 1.9104-14.353-1.7643-3.621-3.0469-5.6353-2.821-8.4385 0.94634-1.6626 2.2344-2.0683 4.1039-1.9269 8.8791 0.18301 6.1813-0.57872 6.6075-3.0449 1.7037-0.6238-1.2404-1.634-2.4199-2.245-2.6211-1.6053-0.5288-4.4342 4.2332-6.955 11.708l-2.1922 6.5-1.621-3.8721c-0.89156-2.1297-1.621-4.9973-1.621-6.3724 0-2.1044-0.23652-2.304-1.4936-1.2607-0.82151 0.68179-2.8616 3.6305-4.5335 6.5527-5.4755 9.5701-15.935 17.424-23.235 17.447-1.4848 5e-3 -1.6646 0.61368-1.1435 3.8723 0.79685 4.9832-0.73393 7.7636-5.3926 9.7949-2.0362 0.88779-4.6082 3.0096-5.7155 4.7152-2.8131 4.3327-5.4866 4.6927-5.4866 0.73871 0-2.5285-0.73538-3.4621-4.4347-5.6301-2.4391-1.4294-5.3258-4.1092-6.4148-5.955-1.9387-3.2859-2.0708-3.3363-6.3153-2.4105-2.3843 0.52008-6.4719 1.6418-9.0835 2.4927-5.3438 1.7411-9.5069 1.231-14.451-1.7708-3.1702-1.9247-3.2176-1.9245-5.1576 0.0154-1.9439 1.9439-1.9617 1.9437-2.4794-0.0362-0.28682-1.0968-7e-3 -4.4486 0.62258-7.4485 1.135-5.4109 1.1205-5.4736-1.821-7.8774-3.2541-2.6593-6.4068-3.1532-8.265-1.295-1.816 1.816-1.5112-5.2045 0.3318-7.6411 0.80751-1.0676 1.4682-2.8901 1.4682-4.05s0.39942-2.5364 0.88761-3.0589c0.48818-0.5225 1.1935-1.9625 1.5674-3.2 0.55198-1.827 0.29111-2.25-1.3876-2.25-2.7742 0-2.6063-1.5975 0.45029-4.2857 1.3847-1.2178 3.7472-3.3722 5.25-4.7874 5.5296-5.2075 8.3895-6.3482 15.137-6.0376 2.6271 0.12092 10.095 7.2476 10.095 9.6337 0 2.057 4.1824 2.8278 11.098 2.0453 4.5124-0.51052 8.0224-0.16651 14.27 1.3986 7.4652 1.8702 8.6263 1.9332 11.729 0.6369 1.8939-0.79133 4.1897-2.2634 5.1017-3.2713 2.6013-2.8748 5.4906-10.417 6.276-16.382 0.83888-6.3714 3.0844-14.338 5.1027-18.105 3.0643-5.7179 0.37821-6.4719-6.812-1.912-4.7028 2.9824-10.648 5.0775-14.266 5.0274-1.8369-0.0254-1.7961-0.18922 0.5-2.0084 1.375-1.0894 3.1904-2.5369 4.0342-3.2167 1.6661-1.3423 5.3319-6.781 4.7957-7.1151-0.18144-0.11307-2.5799-0.7731-5.3299-1.4667-5.5764-1.4065-9.4856-4.1542-5.9104-4.1542 3.2275 0 8.0101-5.9652 10.423-13 1.6292-4.7504 3.3271-7.4957 6.3078-10.199l4.0786-3.699-2.4494-0.93628c-4.3861-1.6766-6.4494-4.9366-6.4494-10.19 0-6.0043 3.1785-9.9928 7.9243-9.9439l3.0757 0.0317-2.75 2.0517c-5.0875 3.7957-2.2439 12.885 4.0311 12.885 2.0968 0 9.2189-6.1612 9.2189-7.9752 0-0.4997 2.437-6.0754 5.4156-12.39 12.444-26.384 22.809-37.696 41.584-45.384 5.8941-2.4135 19.394-4.3777 27.415-3.989 4.8421 0.23467 4.9284 0.18643 5.8352-3.2618 0.50621-1.925 1.658-4.3219 2.5594-5.3265 1.5323-1.7076 1.4779-1.9535-0.83519-3.775-1.3608-1.0717-6.1607-3.7124-10.666-5.8684-8.9046-4.2608-13.362-8.8631-21.079-21.763-2.0507-3.4279-4.3134-6.2404-5.0282-6.25-0.71481-0.01-2.616 0.66325-4.2249 1.4952-3.0887 1.5972-14.975 3.2545-14.975 2.0879 0-0.37635 0.90774-1.6586 2.0172-2.8495s2.489-3.9175 3.0657-6.0591c3.1065-11.537-6.4802 0.34961-11.401 14.136-1.4385 4.0302-4.3696 10.49-6.5137 14.356-3.6172 6.5219-3.9455 6.8408-4.5524 4.4224-0.85296-3.3985-2.8119-3.32-4.3587 0.17462-0.67701 1.5295-3.7056 5.692-6.7302 9.25-3.0246 3.558-5.5056 7.0316-5.5132 7.7191-8e-3 0.6875-0.46385 1.25-1.0138 1.25s-1-2.2234-1-4.941-0.47329-5.2335-1.0517-5.591c-0.57846-0.35751-6.541 4.6854-13.25 11.206-9.2107 8.9526-13.273 12.209-16.585 13.296-3.2677 1.0724-4.7146 2.2164-5.6718 4.4845-1.9829 4.6981-7.6693 9.5839-12.389 10.644-4.3352 0.97405-11.391-0.21973-12.57-2.1266-0.99711-1.6134-4.0602-1.0977-5.9619 1.0036-2.514 2.778-3.5213 1.6663-3.5213-3.8862 0-2.6355-0.49402-6.2089-1.0978-7.941-0.88553-2.5402-1.6497-3.1492-3.9519-3.1492-1.9712 0-3.9531-1.1317-6.407-3.6583-3.3762-3.4764-3.6894-3.5899-6.2981-2.2821-1.5099 0.75693-3.0827 1.5407-3.4952 1.7417-1.2776 0.62246-0.81439-3.1542 0.75616-6.1656 0.82161-1.5754 1.4938-4.5836 1.4938-6.6849 0-5.0128 1.3882-8.4793 4.5805-11.438 3.0636-2.8392 2.4556-4.513-1.6395-4.513-4.3756 0-3.5634-1.6062 1.809-3.5774 2.6125-0.95854 5.2-2.2723 5.75-2.9194 1.8849-2.2177 5.3711-3.5032 9.5-3.5032 5.0688 0 7.3312 1.1092 12.6 6.1774 3.3894 3.2606 4.8179 3.9537 8.2457 4.001 7.9626 0.10989 14.823-6.8709 24.051-24.474 6.8736-13.111 8.9486-16.28 14.979-22.879 2.8182-3.0835 5.1239-5.8283 5.1239-6.0996s-0.9-0.72851-2-1.0162c-2.2077-0.57732-2.7609-2.7102-0.70295-2.7102 0.71338 0 2.8956-1.6875 4.8495-3.75 2.9046-3.0661 3.8599-5.198 5.2386-11.69 0.92736-4.3672 2.1419-8.4897 2.6991-9.161 0.6924-0.8343 0.65162-1.4439-0.12888-1.9262-0.64921-0.40123-2.9352 1.004-5.2986 3.2571-8.0159 7.6419-15.909 10.651-21.673 8.2636-2.8932-1.1984-4.0568-2.9931-1.9405-2.9931 0.57356 0 3.1983-2.0161 5.8327-4.4803 5.2533-4.9138 9.7213-12.522 8.7857-14.96-0.32764-0.85382-3.423-2.924-6.8784-4.6004-7.204-3.495-9.1074-4.5853-13.458-7.709-4.3935-3.1546-5.3249-2.8461-5.3249 1.7636 0 4.1381-0.33678 4.9273-5.6259 13.184l-3.1259 4.8798-1.6434-4.1072c-0.90386-2.259-3.5472-6.6338-5.8741-9.7219l-4.2307-5.6146v-11.33-11.33l-9.6206-8.2327-3.007 2.8793c-2.6426 2.5304-3.7562 2.882-9.1897 2.9015-3.4005 0.0122-7.1656 0.5747-8.367 1.25-2.6933 1.514-7.9643 1.6054-8.8615 0.15379-0.36508-0.59071 0.3257-2.1273 1.5351-3.4146l2.1989-2.3406-2.5941-3.8175c-1.6577-2.4395-2.5941-5.1777-2.5941-7.5854 0-2.5991-0.4432-3.7679-1.4288-3.7679-2.665 0-8.3406-6.4299-9.5105-10.774-1.0517-3.9057-1.3927-4.2256-4.5057-4.2256-2.9299 0-3.2964-0.27331-2.8182-2.1018 0.31391-1.2004 2.1805-2.8087 4.3522-3.75 4.1449-1.7965 9.1368-7.9186 10.32-12.656 0.41092-1.6457 1.4972-3.8243 2.4138-4.8413 1.5711-1.743 1.5061-1.9771-1.1332-4.0817-2.1946-1.7499-2.5178-2.4516-1.4946-3.2457 2.609-2.025 4.986-2.2749 8.3332-0.87634 2.9999 1.2534 3.7952 1.2383 6.5269-0.1245 2.093-1.0441 4.3924-1.3469 7.028-0.92548 4.2247 0.67557 5.3756-0.94195 2.4172-3.3972-0.825-0.68469-1.5-1.6398-1.5-2.1224 0-1.5938 5.6859-0.912 8.1151 0.97312 1.3117 1.0179 4.3145 2.1024 6.673 2.41 5.0075 0.65311 8.4865 2.7026 10.938 6.4436 1.4083 2.1493 1.7016 4.4736 1.4894 11.802-0.2561 8.8462-0.16725 9.2597 2.8995 13.493 1.74 2.402 4.5636 5.6576 6.2745 7.2346 3.8102 3.512 13.705 8.3456 19.111 9.3359 2.2 0.40299 7.15 2.0196 11 3.5925 6.4612 2.6397 7.3612 2.7685 11.692 1.6742 3.9411-0.99572 5.3538-0.92577 8.8227 0.43686l4.1303 1.6224 1.5232-3.6981c1.9766-4.799 4.878-7.8937 9.8314-10.486 6.8727-3.5972 21.526-2.608 34 2.2953 8.3308 3.2748 23.626 7.9929 25.911 7.9929 3.5488 0 9.5893-2.8342 9.5893-4.4992 0-0.69923-3.1566-3.1786-7.0147-5.5096-5.9735-3.6092-7.9402-4.2777-13.25-4.5035l-6.2353-0.26515 0.21264-4.3613c0.42511-8.7187 5.2021-14.861 11.557-14.861 1.3031 0 3.3475-1.125 4.543-2.5 2.8847-3.3177 4.271-3.1703 3.5612 0.37872-0.85603 4.2801 1.0487 4.5667 4.0654 0.61154 1.4642-1.9196 3.0621-3.4903 3.5509-3.4903 0.4888 0 1.0284 1.6734 1.1991 3.7186 0.56536 6.7737 8.1628 8.3416 13.07 2.6973 2.4177-2.7806 4.9802-10.218 4.0431-11.734-0.73018-1.1815-17.787-0.27591-21.303 1.131-7.4599 2.9849-18.604 5.3269-25.475 5.3538-9.0984 0.0357-15.276-2.592-19.958-8.4886-2.5826-3.2531-3.0316-4.6676-3.0153-9.5 0.0294-8.7233 4.4781-14.575 11.948-15.714 4.8368-0.73795 8.742 0.61551 12.038 4.1722 3.0613 3.3032 3.1954 6.116 0.31202 6.5446-1.1823 0.17575-3.051 1.5313-4.1525 3.0123-1.8934 2.5456-1.9118 2.8317-0.33768 5.2341 2.9389 4.4853 6.1759 4.3768 29.64-0.99269 4.125-0.94397 10.425-1.9903 14-2.3252s6.4243-0.83394 6.3318-1.1089c-0.0925-0.275-0.48058-1.7446-0.86238-3.2658-1.397-5.5659-9.18-8.565-14.642-5.642-1.5905 0.85119-1.9125 1.7339-1.4593 4 0.33813 1.6906 0.15442 2.9078-0.43889 2.9078-1.6192 0-5.9296-4.7453-5.9296-6.5279 0-1.0019-0.6669-1.4919-1.75-1.2858-1.2083 0.22992-1.9048 1.5682-2.25 4.3233l-0.5 3.9903-2.75-2.7046c-1.5269-1.5017-2.75-3.8024-2.75-5.1731 0-1.403-1.2798-3.7484-2.965-5.4335l-2.965-2.965 0.60981-10.01c0.55426-9.0978 0.41444-10.326-1.535-13.48-2.8573-4.6232-2.7362-8.2818 0.36939-11.16 3.3539-3.1083 6.6668-3.6403 18.023-2.8944l9.5506 0.62735 3.2062-3.0845c4.5811-4.4072 7.495-4.816 15.963-2.2396 3.9836 1.212 9.043 2.6827 11.243 3.2681s5.0171 1.6817 6.2602 2.4362c1.747 1.0603 2.7438 1.113 4.3902 0.23186 1.2769-0.68337 4.005-0.89124 6.8111-0.51899 7.022 0.9315 10.88-0.23441 15.073-4.5559 4.1435-4.2695 6.3791-4.8081 7.9299-1.9104 2.4752 4.625-0.22616 15.85-5.6341 23.412-3.1082 4.3462-3.3124 5.0172-1.9774 6.5 2.8574 3.1738 5.6467 12.103 5.6467 18.077 0 5.694 0.0921 5.8928 3.4763 7.4987 4.6053 2.1854 8.2743 7.1668 9.105 12.362 0.65922 4.1225-0.68322 5.9994-1.943 2.7165-0.8543-2.2263-4.3032-1.8165-6.0817 0.72251-2.9976 4.2797-1.5798 18.55 2.3743 23.898 2.4879 3.3651 2.5507 3.8794 0.47336 3.8794-2.8996 0-7.1511 3.9096-8.8391 8.1284-2.0048 5.0104-1.3763 8.7045 2.1232 12.48 2.0131 2.1722 2.3281 3.1027 1.4656 4.329-1.0658 1.5153-1.664 2.7219-6.8245 13.766-2.867 6.1358-7.0448 9.9643-11.859 10.867-3.1196 0.58524-3.4706 0.98144-3.4706 3.9177 0 4.4287-2.1941 9.357-6.4147 14.409-1.9356 2.3167-4.5169 5.9874-5.7364 8.1571-2.4958 4.4407-3.8309 5.0229-3.8864 1.6949-0.0206-1.2375-1.6086-4.05-3.5287-6.25l-3.4911-4-2.47 3c-4.3715 5.3096-6.4727 11.018-6.4727 17.585 0 7.5405 2.174 11.052 7.906 12.769 3.9339 1.1786 5.6468 0.81309 12.344-2.6343 1.293-0.66557 0.8166 7.6854-0.63686 11.164-1.7305 4.1416-5.8655 7.1477-11.934 8.6757-2.5736 0.64803-4.6792 1.5322-4.6792 1.9648 0 0.43258 2.0138 4.0528 4.4751 8.0449 5.1594 8.3683 8.4228 16.697 11.531 29.431 2.7131 11.113 6.3714 17.331 17.609 29.928 6.5454 7.3376 9.0365 9.4995 10.435 9.0558 2.6562-0.84306 8.9771 2.7038 20.713 11.623 11.306 8.5923 15.834 10.411 23.874 9.587 12.355-1.2655 20.483-11.537 19.009-24.021-1.4485-12.27-10.349-22.777-29.524-34.854-14.785-9.3117-25.207-19.446-30.665-29.819-3.9316-7.4722-3.9463-7.5427-3.9457-19 4.3e-4 -9.2074 0.3616-12.164 1.8117-14.83 1.6864-3.1003 1.7032-3.6464 0.24432-7.9281-3.3509-9.8342-0.78155-20.386 7.7289-31.742 9.6154-12.83 10.191-14.112 10.112-22.5-0.0467-4.9374-0.64096-8.5935-1.7393-10.7-2.0925-4.014-2.0819-4.2997 0.16018-4.2997 1.872 0 11.143 5.6614 11.207 6.8442 0.0198 0.36067 1.1137 1.9742 2.4309 3.5855 1.9891 2.4333 2.6499 2.7182 3.8998 1.6809 0.82764-0.68688 1.8028-2.6055 2.167-4.2636 0.56794-2.5858 1.0062-2.9284 3.0807-2.4077 3.5201 0.8835 12.711-2.0921 15.442-4.9995 1.8217-1.9391 2.4396-3.9079 2.7375-8.7221 0.35097-5.672 0.11361-6.5899-2.7047-10.459-1.6992-2.3327-3.0894-4.4702-3.0894-4.75 0-1.3818 7.0954-0.21192 11.69 1.9275 4.7342 2.2042 7.8831 5.4211 11.87 12.126 0.78176 1.3148 2.3834 1.8036 6.0958 1.8604 5.935 0.0908 9.97-1.7992 11.929-5.5879 1.6207-3.1341 1.9092-12.411 0.41469-13.335-2.1943-1.3562-0.96722-3.5 2.0033-3.5 4.8685 0 12.322 7.9661 14.469 15.465 1.5773 5.5076 1.5877 6.4548 0.13451 12.343-1.8284 7.4093-6.6509 14.564-12.592 18.681-3.9924 2.7667-4.0366 2.8654-3.4083 7.6019 0.98856 7.4521-0.19243 11.436-4.6634 15.732l-3.9634 3.8084 2.536 2.3824c4.8111 4.5198 6.9621 12.1 4.5263 15.952-0.79316 1.2541-1.4983 1.1455-4.8708-0.75-8.8991-5.0016-18.602-2.0598-31.199 9.4598-10.696 9.7807-13.633 11.784-20.972 14.304-5.3772 1.8469-7.7773 2.1278-13.895 1.6266l-7.3946-0.60591 0.61781 6.616c0.83715 8.9648 5.5764 16.921 12.886 21.633 4.1863 2.6985 4.7852 2.223 4.7852-3.7997 0-6.9892 3.0224-13.376 6.3584-13.435 0.47212-8e-3 0.5758 1.1107 0.2304 2.4869-0.86922 3.4633 2.125 12.212 5.7881 16.911 1.6777 2.1525 7.5667 7.2558 13.087 11.341s11.986 9.2987 14.369 11.586c4.3082 4.136 8.1675 10.282 8.1675 13.006 0 1.4822 3.2202 2.4429 11 3.2816 3.9447 0.42525 4.9628 0.0989 8.25-2.6444 3.1279-2.6103 3.75-3.7606 3.75-6.9342 0-2.1496-0.64776-4.3424-1.489-5.0405-0.81894-0.67967-1.267-1.5949-0.99568-2.034 0.84399-1.3656 6.5956 1.385 9.0991 4.3515 4.3478 5.1519 2.752 15.262-3.405 21.573-1.1594 1.1883-0.90106 1.6934 1.7126 3.3482 3.1617 2.0018 4.0433 3.6375 1.828 3.3913-1.5866-0.17629-1.8925 1.0845-1.1821 4.8715 0.31062 1.6557 5e-3 4.3557-0.68011 6l-1.2449 2.9896-0.40914-2.5c-0.6762-4.1319-4.092-7-8.3367-7-4.5115 0-6.8971 2.1-6.8971 6.0714 0 2.6013 0.34265 2.9286 3.0657 2.9286 6.0212 0 9.5721 3.8196 8.4214 9.0586-0.77311 3.52-1.667 3.7277-3 0.69719-1.6775-3.8137-3.9782-3.2031-7.7589 2.0594-2.7642 3.8476-4.6404 5.3119-8.6561 6.7559-3.9498 1.4203-4.9621 2.1978-4.4092 3.3862 0.98853 2.1246 0.77151 6.5377-0.63964 13.007-1.1808 5.4135-1.0349 9.9062 0.4313 13.285 1.4036 3.2347-1.3206 1.835-7.785-4-7.8026-7.0429-11.476-8.25-25.105-8.25-5.7566 0-12.77-0.49395-15.585-1.0977-2.815-0.60372-5.2952-0.92067-5.5116-0.70434s0.22231 1.58 0.97475 3.0303c0.75244 1.4503 1.6593 3.9629 2.0152 5.5835 0.8946 4.0731 5.676 9.181 8.6305 9.22 2.3723 0.0313 2.3789 0.0566 0.4108 1.5874-1.5152 1.1786-3.636 1.4456-8.75 1.1017l-6.75-0.4539v3.8665c0 3.7247 0.12371 3.8665 3.3743 3.8665 8.264 0 16.481 5.2082 19.327 12.25 1.6087 3.9802 2.5646 4.3597 6.8647 2.7248 1.483-0.56384 6.5154-1.1263 11.183-1.25l8.4867-0.22482 7.4964-8.7065 1.1047 3.169c0.90346 2.5917 0.75226 4.0967-0.82994 8.2607-1.0641 2.8004-3.1438 6.3537-4.6216 7.8962l-2.6869 2.8046 3.6507 4.0409c2.0079 2.2225 3.6507 4.913 3.6507 5.979 0 1.066 0.45 2.2162 1 2.5561s1 1.8808 1 3.4242 0.88526 3.9316 1.9672 5.3071c1.082 1.3755 1.7185 2.7497 1.4144 3.0538-0.30405 0.30406-2.9893 0.30136-5.9672-6e-3 -6.0138-0.62068-7.1835 0.81001-3.4354 4.202 3.8744 3.5063 7.9162 18.519 4.9858 18.519-0.56935 0-2.0815-0.68555-3.3603-1.5234-2.123-1.391-2.5316-1.3562-4.7012 0.40062-2.0535 1.6628-2.3548 2.7184-2.2194 7.7734 0.16012 5.9742 2.2705 12.449 5.092 15.623 2.1346 2.401 0.49975 3.9217-5.0061 4.6565-3.5364 0.47198-4.3277 0.97887-4.6066 2.9509-0.61325 4.3364 0.89538 9.1162 3.9896 12.64l3.0543 3.4786h-4.4066c-3.3675 0-5.4143-0.74107-8.68-3.1427-2.8206-2.0743-5.5224-3.1792-7.947-3.25-3.4381-0.1004-3.6738 0.085-3.6774 2.8927-2e-3 1.65-0.36814 3.5657-0.81341 4.2571-1.5719 2.4408-7.2536 4.6871-13.183 5.2119l-6 0.53103 0.33235 3.8166c0.93702 10.76-9.0523 17.131-20.824 13.281-5.0278-1.6445-9.0088-1.0092-9.0088 1.4375 0 1.5542-1.7311 1.1078-2.393-0.61697zm24.05-7.9845c2.5893-2.5893 2.6559-3.492 0.75102-10.181-0.54692-1.9204-5e-3 -2.5349 3.7259-4.228 2.4012-1.0896 6.2416-1.9909 8.5341-2.003 5.9988-0.0316 7.1837-0.7583 8.3602-5.1275 0.60166-2.2344 2.1028-4.5896 3.5152-5.515 2.4684-1.6174 8.7449-2.0575 12.472-0.87458 1.7698 0.56172 1.9849 0.1628 1.9882-3.6875 4e-3 -4.286 2.9863-10.817 4.9397-10.817 0.60529 0 0.74602-3.7235 0.37247-9.8549-0.52115-8.5544-0.35066-10.279 1.2918-13.071 1.1683-1.986 2.9522-3.4299 4.663-3.7742 3.6554-0.73576 4.1014-1.6824 2.3651-5.02-1.8157-3.4903-5.4214-6.8946-8.5144-8.0387l-2.3775-0.87949 3.1205-3.5541c1.7329-1.9736 4.4579-3.8216 6.128-4.1556 2.6456-0.52911 3.0075-1.0164 3.0075-4.0498 0-4.309-3.9258-9.2186-9.2928-11.621l-3.8755-1.7351 4.5842-3.2921c2.5213-1.8107 4.5842-3.6658 4.5842-4.1226s-3.8474-0.83048-8.5497-0.83048c-9.4028 0-12.198 0.97837-16.887 5.9107-1.6154 1.6991-3.1904 3.0887-3.5 3.088s-0.56984-2.8142-0.57831-6.2524c-0.0267-10.845-5.4621-16.45-15.545-16.031-2.508 0.10427-5.6751 0.61354-7.038 1.1317l-2.478 0.94213 2e-3 -10.645c8.7e-4 -5.8546-0.34638-12.367-0.77167-14.471l-0.77325-3.8266 3.7918 2.5766c2.0855 1.4171 4.1374 2.5766 4.5597 2.5766 5.6446 0-16.627-34.724-36.239-56.5-14.969-16.621-20.107-25.434-21.63-37.098-0.35191-2.6961-0.97572-5.352-1.3862-5.902-0.4105-0.55-1.0771-2.5447-1.4814-4.4326-1.8586-8.6795-13.725-26.781-20.109-30.675-1.9001-1.159-4.5264-3.1141-5.8361-4.3445l-2.3813-2.2371-1.5172 2.3445c-0.83449 1.2895-1.8205 3.5779-2.1911 5.0855-0.37063 1.5076-2.3136 4.5649-4.3177 6.794l-3.6438 4.053-6-3.1314c-3.3-1.7223-6.7591-3.8112-7.687-4.642-2.1104-1.8896-3.384-1.1489-4.1514 2.4146-0.5521 2.5636-4.641 10.002-8.1381 14.805-1.3728 1.8854-1.05 2.6916 4.4042 11 7.2519 11.047 9.5406 13.216 19.291 18.284 11.36 5.905 16.39 9.8785 21.412 16.916 11.344 15.898 14.8 33.553 12.568 64.217-1.25 17.177-0.045 32.163 3.3907 42.163 5.7947 16.868 6.4783 25.987 2.3423 31.245-2.5361 3.2241-1.1339 4.0716 2.6307 1.5899 1.6157-1.0651 4.1486-1.9394 5.6286-1.9431 1.48-4e-3 2.9933-0.4958 3.3629-1.0937 1.3207-2.137 2.5492 0.68577 1.4998 3.446-0.69811 1.8362-1.9836 2.8771-4.0677 3.294-4.2943 0.85886-6.986 4.6822-6.986 9.923 0 5.258 1.1698 6.1466 4.7568 3.6134 1.5088-1.0655 4.7682-2.8578 7.2432-3.9828 6.5611-2.9826 10.126-7.1411 10.732-12.52l0.50338-4.466 3.5219 2.39c5.8356 3.9601 11.778 2.8927 26.563-4.7713 2.8609-1.483 12.858-1.132 16.231 0.5699 3.9314 1.9838 6.7183 5.0355 9.4738 10.374 1.9357 3.7502 2.1561 5.428 1.7727 13.5-0.39825 8.386-0.80987 9.95-4.5625 17.335-2.2686 4.4648-5.4655 9.4584-7.1041 11.097-2.7541 2.7541-3.6784 3.0246-12.228 3.5785-10.559 0.68409-15.86-0.94203-20.071-6.1567-2.9499-3.6532-6.3486-5.4249-8.8711-4.6243-2.313 0.73412-4.1686 3.7875-3.4429 5.6652 0.5126 1.3263 13.274 7.8224 15.367 7.8224 1.4593 0 1.42 1.295-0.0849 2.8-1.8297 1.8297-6.2554 1.4386-11.266-0.99566-5.2638-2.5574-9.2632-1.806-10.664 2.0035-0.6716 1.8265-0.33132 2.7872 1.6316 4.6063 1.3641 1.2642 3.1652 3.9382 4.0026 5.9422 1.8268 4.3721 4.9593 4.9148 6.672 1.1559 1.4666-3.2197 10.089-7.5122 15.089-7.5122 3.3865 0 3.833 0.26793 3.5536 2.1322-0.23876 1.5931-1.8123 2.6676-6.2237 4.25-9.2052 3.3019-10.074 7.5887-1.827 9.0122 2.0521 0.35421 5.0811 1.7581 6.7311 3.1198 3.8974 3.2164 7.8891 3.1876 11.157-0.0805zm-206.2-19.174c0.31839-0.82971-0.55347-3.982-1.9375-7.005-3.1201-6.8151-3.3453-11.255-0.57092-11.255 1.1376 0 2.4903 1.142 3.2575 2.75 1.0754 2.2539 2.0654 2.8049 5.4885 3.0543 7.2861 0.53082 13.667-4.7511 21.287-17.622 5.4627-9.2262 13.021-15.379 13.021-10.599 0 2.5485 2.2842 1.0834 5.3161-3.4099 1.5488-2.2954 3.4358-4.1734 4.1933-4.1734s1.9652-0.82859 2.6839-1.8413c1.7932-2.5269 5.1272-4.1587 8.4968-4.1587 2.2328 0 3.1104-0.67822 4.2057-3.25 1.857-4.3606 5.2747-7.9224 13.38-13.944 7.777-5.7776 9.2113-7.7582 7.4059-10.227-0.9704-1.3271-1.7866-1.4897-3.7436-0.74566-2.3274 0.8849-2.6403 0.62661-4.4703-3.691-1.6535-3.9011-1.9673-6.9579-1.9654-19.142 2e-3 -13.805 0.13631-14.782 2.7997-20.388 5.211-10.969 16.646-20.705 28.769-24.495 4.2905-1.3415 15.391-1.4751 17.748-0.21358 0.92793 0.49661 3.2608 1.0591 5.1843 1.25 3.1998 0.31756 3.5248 0.10472 3.8232-2.5037 0.32096-2.8054 0.26277-2.8401-3.6593-2.1774-4.5024 0.76069-8.213-0.72538-12.039-4.8218-2.2166-2.373-2.3265-3.032-1.6714-10.023 0.58454-6.2379 0.38238-8.2023-1.2148-11.805-3.0528-6.8858-4.0484-7.3232-16.645-7.3119-12.14 0.0109-19.144 1.8168-29.096 7.5027-13.483 7.7027-19.649 16.49-35.936 51.213-2.4485 5.2199-5.7446 8.9629-8.8638 10.066-0.86393 0.30541-0.69408 1.3039 0.60672 3.5666l1.8065 3.1425h-4.1885c-3.5073 0-4.7362 0.58077-7.5565 3.5712-1.8524 1.9642-3.3681 4.2321-3.3681 5.0398s-0.9 3.2328-2 5.389c-2.8273 5.542-2.6258 6.208 1.637 5.4083l3.637-0.6823-0.68027 3.6262-0.68028 3.6262 5.7933-0.58393c6.2048-0.62541 11.293 0.68417 11.293 2.9065 0 0.74274-1.1688 2.4414-2.5973 3.7748-4.7806 4.4622-6.8659 9.9516-9.4681 24.924-1.8169 10.454-6.6038 18.192-13.331 21.548-3.7993 1.8953-10.965 1.8249-16.604-0.16316-3.5009-1.2342-6.5445-1.4402-13.709-0.92814-10.702 0.76495-12.222 0.21895-15.467-5.5558-3.0373-5.4042-6.8759-7.4619-10.603-5.6839-3.559 1.6978-4.3252 6.298-1.2134 7.2857 1.1681 0.37075 3.6057 1.9752 5.4168 3.5654s5.0441 3.4634 7.1843 4.1626c2.8775 0.94007 3.9792 1.8926 4.2286 3.6561 0.3247 2.2956 0.14782 2.3666-4.7265 1.8982-4.2044-0.40399-5.8277-1.1907-9.565-4.6356-2.4757-2.282-4.8488-4.139-5.2735-4.1268-0.42479 0.0122-1.8054 0.81714-3.068 1.7887-1.9701 1.516-2.2032 2.344-1.6442 5.8399 1.0371 6.4855 1.7146 7.0655 5.9147 5.0626 4.398-2.0973 5.8171-2.1309 9.5024-0.22514 1.5829 0.81854 5.229 1.6719 8.1026 1.8964 5.3727 0.41965 7.664 2.2345 6.5352 5.1761-0.83956 2.1879-8.2418 1.7852-14.445-0.78574-5.1352-2.1284-5.4253-2.1469-6.6834-0.42646-1.1099 1.5178-0.99702 2.564 0.72307 6.703 2.6144 6.291 5.8801 7.1846 14.47 3.9593 3.2011-1.202 7.7276-2.2173 10.059-2.2563 3.2764-0.0548 4.5817-0.59453 5.75-2.3775 0.83123-1.2686 1.5113-2.9816 1.5113-3.8066 0-1.4859 2.8807-3.5704 4.9343-3.5704 1.7935 0 1.172 6.3197-0.93426 9.5-2.1425 3.235-2.5719 6.5284-1.0496 8.05 0.52272 0.5225 3.8696 1.0104 7.4375 1.0842 4.9488 0.10234 6.6243-0.22357 7.066-1.3744zm260.28-150.56c0.37157-4.629 0.0926-7.3397-0.97558-9.481l-1.4959-2.9986 4.6424-0.61584c4.9024-0.65032 12.551-5.0571 11.56-6.6604-0.32168-0.5205-1.6925-0.94637-3.0462-0.94637h-2.4613l2.0203-3.9602c1.1112-2.1781 2.0203-5.7174 2.0203-7.8651 0-4.8141 2.7912-8.6207 7.4483-10.158 2.5528-0.84248 3.5781-1.8611 4.0539-4.0271 0.35024-1.5946 1.4938-3.1713 2.5412-3.5038 2.0277-0.64356 6.298-5.4781 5.5232-6.253-0.25377-0.25377-2.1726 0.59979-4.264 1.8968-3.9168 2.4291-3.3484 2.384-20.48 1.6251-3.3591-0.14879-3.7331-0.46232-4.3269-3.6272-0.92561-4.9339-6.5283-13.072-11.633-16.898-14.065-10.54-19.619-15.012-21.704-17.473-2.3221-2.7404-4.7894-2.8431-3.7584-0.1564 0.93506 2.4367-4.642 1.6182-11.157-1.6374-7.205-3.6004-12.493-9.1315-16.104-16.844-2.1517-4.5953-2.6371-7.1022-2.6624-13.749-0.0349-9.1767-1.5664-12.709-4.3171-9.9588-2.2988 2.2988-2.1349 15.674 0.27904 22.775 4.1864 12.316 11.883 20.183 33.427 34.167 19.994 12.978 28.888 24.542 29.919 38.899 0.61463 8.5596-1.4974 14.629-7.1605 20.579-6.3377 6.6585-10.65 8.4654-20.206 8.4665-9.2875 1e-3 -16.352-2.6004-23.038-8.4837-7.2507-6.3805-12.342-9.957-13.316-9.3546-1.2664 0.78266 11.889 19.423 15.59 22.09 5.6529 4.0738 11.218 5.277 26.346 5.6962 12.408 0.34384 15.103 0.71358 18.682 2.5629 2.3002 1.1886 4.4885 2.6567 4.8629 3.2625 1.3423 2.172 2.6712-0.89775 3.1908-7.3706zm-127.2-11.381c2.6359-2.6359 0.52202-13.355-4.803-24.355-4.5511-9.4012-9.1556-14.691-11.265-12.94-2.2449 1.8631-1.79 4.4785 2.0316 11.68 1.925 3.6275 3.5 7.2831 3.5 8.1237 0 0.84056 0.54694 3.0408 1.2154 4.8895 0.95391 2.638 0.95391 3.78 0 5.3074-1.7566 2.8128-1.4925 6.7126 0.53457 7.8932 2.6771 1.5592 6.917 1.2702 8.7862-0.59898zm-159.57-11.197c2.7668-2.0054 5.853-6.7905 5.9637-9.2466 0.0491-1.0888 1.3408-1.8249 3.9282-2.2386 4.5853-0.73321 11.622-6.0938 18.488-14.085 6.2634-7.2895 16.439-15.743 18.477-15.351 0.87585 0.16867 1.8575 1.4293 2.1814 2.8014s1.0186 2.4871 1.5438 2.4777c1.4426-0.0257 7.3707-10.436 8.532-14.983 1.85-7.2433 1.8674-7.2606 4.2875-4.25 1.2158 1.5125 2.6695 2.75 3.2305 2.75 1.2107 0 3.9358-6.071 4.9376-11 1.0312-5.0735 3.7186-9.9347 9.4192-17.038l5.0258-6.2623-2.1489-3.6c-1.1819-1.98-2.4485-3.9491-2.8147-4.3758s-2.1327 1.3738-3.9256 4.0012c-4.4492 6.5199-10.325 10.605-15.39 10.7-3.8092 0.0715-4.0601-0.11662-5.3835-4.0352-0.76342-2.2606-2.4818-5.1377-3.8186-6.3936l-2.4306-2.2834-3.5218 2.6862c-7.8307 5.9728-12.929 12.719-20.1 26.601-9.7427 18.858-16.986 26.391-27.255 28.345-4.3641 0.83042-9.352-1.3195-14.877-6.4125-3.885-3.5811-4.8681-4.0084-8.5985-3.7377-3.6523 0.26502-4.2509 0.63847-4.5047 2.8103-0.23428 2.0044 0.75739 3.3025 4.9656 6.5 7.2659 5.5207 8.9308 6.4192 11.97 6.4599 2.5928 0.0348 4.419 2.3171 3.3012 4.1257-0.30925 0.50037-2.6732 0.90503-5.2532 0.89925-3.995-9e-3 -5.5782-0.67657-10.671-4.5-6.6563-4.997-8.5936-5.4156-11.52-2.4895-2.5916 2.5916-2.5221 3.5908 0.5 7.1824 1.375 1.6341 2.5 3.8044 2.5 4.8229 0 1.0185 0.70714 2.559 1.5714 3.4233 1.7175 1.7175 6.9619 2.1356 7.8929 0.62921 0.32028-0.51822 2.7093-1.2214 5.309-1.5625s6.9039-1.2893 9.565-2.107c5.0396-1.5485 7.6617-0.79994 7.6617 2.1873 0 1.9658-8.6104 5.4244-13.505 5.4244-7.4096 0-8.6763 4.6441-2.0248 7.4232 1.9567 0.81754 3.8388 2.2194 4.1826 3.1153 1.4181 3.6956 7.6129 3.9904 12.31 0.58588zm101.21-74.868c4.5468-3.7502 5.6307-5.1197 7.7212-9.7561 3.9617-8.7862 3.1441-16.692-2.5013-24.189-3.0581-4.0608-1.6471-5.0621 4.0612-2.8821 5.3033 2.0253 6.7642 3.603 10.524 11.365 3.2562 6.722 6.2996 9.3269 11.164 9.5556 3.0042 0.14127 3.3268-0.19671 5.5838-5.8501 2.3916-5.9906 2.7443-14.202 0.80535-18.75-1.1553-2.7101 1.2482-2.1275 4.1256 1 1.3916 1.5125 3.9504 4.9744 5.6862 7.693 4.193 6.5671 10.055 9.7658 18.156 9.9075 4.3022 0.0753 6.7781-0.41647 8.75-1.7378 3.7769-2.5309 3.4469-3.6127-1.1021-3.6127-4.5832 0-9.6272-3.1036-12.874-7.9217-4.3739-6.4904-2.5972-20.537 3.8334-30.308 2.161-3.2833 9.9741-9.7707 11.767-9.7707 0.52728 0 1.596 1.9125 2.3749 4.25s2.0786 4.3786 2.8882 4.5357c0.81096 0.15742 3.0013-1.8438 4.8776-4.4565 2.9573-4.1179 3.4106-5.5379 3.4437-10.786 0.0209-3.3239-0.36684-6.8829-0.86172-7.9089-0.79311-1.6443-0.61513-1.7649 1.5015-1.0176 7.7452 2.7347 12.867-0.67675 18.453-12.292l3.477-7.229-2.0108-3.298c-2.4348-3.9935-2.7099-12.56-0.53821-16.759 0.81401-1.5741 2.6736-3.8009 4.1323-4.9484l2.6523-2.0863-1.6323-5.8176c-2.9766-10.608-1.9908-19.674 2.6432-24.308 3.5331-3.5331 2.8448-4.7843-3.0682-5.5774l-4.0349-0.54119 0.5177-7.1299c0.41695-5.7423 0.10089-8.2312-1.624-12.789-3.0238-7.9897-4.1192-8.6685-9.5842-5.9392-6.1195 3.0562-9.8899 3.2276-10.285 0.46759-0.24923-1.7415 0.84623-2.6718 5.999-5.0946 7.6139-3.58 14.371-10.098 15.957-15.392 0.64197-2.1427 0.94821-4.1148 0.68055-4.3824-0.26766-0.26766-2.4219 0.44835-4.7872 1.5911-3.1263 1.5105-5.8359 2.0014-9.9236 1.798-6.7864-0.3377-9.8142 0.56205-10.639 3.1616-0.85144 2.6827-1.697 2.4401-3.6874-1.0578-1.891-3.3231-2.7087-3.7385-14.608-7.4211-10.188-3.153-10.293-3.1537-13.164-0.09837-2.5489 2.7132-2.355 2.9028 4.0503 3.9606 3.8508 0.63593 6.8199 3.3684 11.305 10.404 1.521 2.386 4.08 5.086 5.6866 6 1.6066 0.91403 2.924 2.2244 2.9275 2.9119 0.01 1.9006-4.1795 1.4513-6.9937-0.75-3.1553-2.4681-4.1831-2.4686-8.2258-4e-3 -3.9578 2.4131-5.51 2.4811-9.637 0.4223-3.1558-1.574-6.1372-5.8945-6.1372-8.8934 0-0.86593-1.1392-2.0075-2.5314-2.5369-2.4028-0.91355-2.4527-1.0826-0.98172-3.3276l1.5497-2.3652-9.0442-1.2963c-6.8011-0.97483-9.6578-1.0168-11.518-0.16907-3.0899 1.4079-3.0869 2.2391 0.0259 7.1702 2.7245 4.3159 3.1093 8.6435 1.4204 15.973-1.2827 5.5666-0.12112 6.6621 7.9414 7.4897 14.687 1.5076 28.181 4.4114 34.328 7.387 6.9733 3.3757 9.2395 8.2971 9.2788 20.15 0.0292 8.8138-0.19276 9.8953-3.073 14.973-2.1608 3.8096-4.4406 6.2414-7.5 8-3.9454 2.2679-5.4708 2.5245-14.896 2.5054-8.709-0.0176-12.002-0.49998-19.307-2.8279-8.2527-2.6302-8.9602-2.706-11.25-1.2057-4.0289 2.6398-3.1342 4.9175 2.453 6.2447 2.693 0.63971 8.6192 3.3262 13.169 5.97 7.2726 4.2256 8.968 4.8069 14.022 4.8069 5.0003 0 6.28-0.42702 9.8307-3.2805l4.0821-3.2805v3.3728c0 5.4792-3.6309 8.0787-11.94 8.5482-6.1645 0.34833-7.0528 0.67152-8.969 3.2634-5.6031 7.5786-14.596 8.1059-32.591 1.9111-23.488-8.0859-30.998-9.3469-38.128-6.4016-7.266 3.0016-10.302 7.4117-11.291 16.4l-0.60495 5.5-1.9443-3.2338c-2.0689-3.4412-6.8556-6.2662-10.618-6.2662-2.3206 0-8.9977 2.9496-12.148 5.3662-1.6276 1.2487-1.582 1.6428 0.75 6.4768 1.3657 2.831 2.4831 5.5337 2.4831 6.0061 0 0.47239 1.1132 2.0601 2.4738 3.5282l2.4738 2.6693 5.2762-2.9089c2.9019-1.5999 7.9762-3.7313 11.276-4.7364 7.2187-2.1986 13.261-5.454 16.476-8.8762 2.4111-2.5665 8.0236-3.5664 8.0236-1.4295 0 4.4984-9.3829 11.194-21.561 15.386-4.3665 1.503-8.8391 3.1908-9.9391 3.7506-5.4163 2.7564-9.3899 9.0371-10.938 17.289-0.4079 2.1742-2.0608 6.612-3.6731 9.8616s-2.6886 6.1512-2.3919 6.448c0.29678 0.29678 2.2378-1.1187 4.3134-3.1454 3.3452-3.2665 4.35-3.685 8.8468-3.685 3.6332 0 5.8278 0.59376 7.7327 2.0921l2.6597 2.0921-4.0409 3.6579c-3.5026 3.1706-4.1632 4.4572-4.9591 9.6579-0.505 3.3-1.0602 6.9-1.2339 8-0.1876 1.1884 0.19154 1.8986 0.93428 1.75 0.83187-0.16637 1.25 1.0764 1.25 3.7152 0 2.9132 0.7512 4.8367 2.8313 7.25 1.5572 1.8066 3.1181 4.0723 3.4686 5.0348 2.5157 6.9076 15.165-8.5491 17.186-21 0.3794-2.3375 1.2128-4.2431 1.8519-4.2347 2.8308 0.0373 4.0394 2.1489 4.7877 8.3649 0.76099 6.3211 1.5142 8.2432 6.0547 15.451 1.4017 2.2251 2.2627 5.6279 2.5934 10.25 0.57485 8.0343 1.849 8.7533 7.3996 4.1752zm148.83-38.318c3.4277-1.4896 9.1966-5.7002 15.311-11.175 13.068-11.701 15.987-13.161 26.439-13.218 4.5375-0.0249 8.25-0.35979 8.25-0.7443s-1.6522-1.9595-3.6715-3.5c-3.2775-2.5004-4.4873-2.8009-11.275-2.8009-8.0501 0-12.235 1.3284-21.164 6.7173-5.1265 3.0941-7.1125 3.4237-8.7487 1.4523-2.501-3.0136 12.746-12.221 22.141-13.371 5.4434-0.66598 9.7186-4.6138 9.7186-8.9745 0-2.8403-5.2059-8.3245-7.902-8.3245-2.1008 0-15.743 8.8924-19.011 12.391-1.8469 1.9779-2.7262 2.3235-3.75 1.4738-0.73558-0.61048-1.3374-1.8976-1.3374-2.8602 0-2.087 7.3984-9.1326 12.136-11.557 5.8252-2.9813 10.63-7.3421 13.473-12.227 2.2612-3.8856 2.7599-5.9722 2.8191-11.795 0.0637-6.2665-0.2479-7.4941-2.7289-10.75-1.5405-2.0216-3.1155-3.6756-3.5-3.6755s-0.73104 2.8606-0.77006 6.3566c-0.12481 11.181-6.634 18.504-18.101 20.365-2.3103 0.37491-4.3492 1.819-6.8124 4.825-3.094 3.7759-3.5244 4.9888-3.5914 10.122-0.0785 6.017-1.8266 12.466-3.5332 13.035-0.53435 0.17812-1.7551-0.24912-2.7128-0.94941-1.487-1.0873-1.5744-1.7518-0.59881-4.5506 1.6531-4.7422 0.78767-16.765-1.3615-18.914-1.6233-1.6233-1.7175-1.5908-1.7175 0.59289 0 4.9267-3.2646 12.916-8.0165 19.618-11.03 15.557-12.908 20.71-10.965 30.082 1.1804 5.693 5.8664 11.094 11.982 13.81 4.6931 2.0844 12.175 1.5117 19-1.4545zm-244.32-35.244c-0.27923-2.3065-0.82248-5.418-1.2072-6.9145-0.58401-2.2716-0.291-2.907 1.7744-3.848 2.1751-0.99105 3.0333-0.70019 7.1057 2.4084 7.2562 5.5388 20.837 12.862 24.142 13.019 2.4915 0.11785 3.0567-0.28187 3.3347-2.3581 0.18407-1.375 0.74657-2.9275 1.25-3.45 1.6556-1.7183 0.95982-4.3516-1.9084-7.2231-1.553-1.5548-3.6557-5.0769-4.6725-7.8269s-3.1212-6.9351-4.6763-9.3001-2.8274-4.491-2.8274-4.7243c0-0.23331 1.35-1.1223 3-1.9756 5.2903-2.7357 3.7096-4.072-8.5-7.1856-12.148-3.0978-22.183-9.7766-28.707-19.105-3.1615-4.5208-3.2954-5.0976-3.3456-14.412-0.0431-7.9941-0.37857-10.063-1.905-11.75-1.9708-2.1777-6.4577-2.7322-8.1792-1.0108-1.2071 1.2071 0.53931 12.045 2.5448 15.792 1.5654 2.925 0.76017 5.1712-1.8539 5.1712-2.8511 0-5.0865-3.9649-5.9903-10.625-0.62655-4.6171-1.3424-6.1869-3.6712-8.0504-3.7374-2.9906-6.87-2.9415-9.5579 0.14991-1.1834 1.3611-3.6157 2.9578-5.405 3.5484-3.3981 1.1215-5.2879 3.7734-3.1632 4.4388 0.67823 0.2124 2.8928 0.89606 4.9212 1.5192 2.3363 0.71776 6.0015 3.5123 10 7.6244 7.1623 7.3659 7.4699 7.8968 5.7654 9.9506-1.0906 1.3142-1.5419 1.2961-3.8445-0.15412-1.4349-0.90366-4.8858-4.0638-7.6688-7.0225-4.544-4.831-5.4836-5.3795-9.2148-5.3795-3.1835 0-4.4149 0.48585-5.2671 2.0781-0.6117 1.143-0.86361 2.7259-0.55979 3.5177s-0.22 3.0593-1.164 5.0389l-1.7164 3.5994 3.4533 2.8829c3.9761 3.3194 5.1645 3.4953 8.564 1.2679 2.2754-1.4909 2.6615-1.4862 5.0239 0.0617l2.559 1.6767-4.2167 3.742c-3.6284 3.2199-4.1209 4.1239-3.5298 6.4788 0.9708 3.868 8.9717 8.834 13.608 8.4465 3.0057-0.2512 3.9976-1.0746 7.2775-6.0408 3.6946-5.5942 5.6712-6.7153 8.5846-4.8687 1.1229 0.71169 1.1229 1.2141 0 3.0752-1.2559 2.0815-0.9564 2.5722 4.6578 7.6314l6 5.4068-0.29084 11.563-0.29083 11.563 3.6622 4.9889c3.5835 4.8817 3.6939 4.9436 5.137 2.8832 0.98156-1.4014 1.3051-3.5083 0.96717-6.2993zm294.03-7.572c2.9883-3.5385 3.0558-10.232 0.14424-14.321-1.765-2.4787-1.8969-3.1628-0.75-3.889 0.76545-0.48471 1.918-0.88819 2.5611-0.89661 2.0403-0.0267 12.368-10.168 14.388-14.129 3.5307-6.9207 2.0848-21.887-2.1145-21.887-0.51882 0-0.9433 1.7334-0.9433 3.8521 0 8.03-8.4463 15.022-18.25 15.107-2.6125 0.0227-4.75 0.18357-4.75 0.35756 0 3.5577-2.7605 12.904-4.6105 15.609l-2.4443 3.5747 3.997 3.5c4.6547 4.076 6.4386 8.1572 5.5757 12.757-0.33817 1.8026-0.34071 3.721-6e-3 4.2631 0.83044 1.3437 4.4124-0.59512 7.2019-3.8981zm-129.3-68.245c1.9882-3.3658 2.0248-6.2683 0.0992-7.8665-2.0076-1.6661-4.5128-0.5523-4.5128 2.0064 0 1.1438-0.88873 3.9192-1.975 6.1674-1.0862 2.2482-1.7512 4.4498-1.4777 4.8924 0.78921 1.277 6.1231-2.2488 7.8662-5.1996zm-62.414-11.222c0-0.73976-0.85291-2.1169-1.8954-3.0603-3.7166-3.3635-3.0309-10.921 1.3184-14.531 2.1388-1.775 1.0532-3.0639-2.5809-3.0639-3.8778 0-8.8422 5.0262-8.8422 8.9521 0 4.3274 2.8438 8.9151 6.8324 11.022 4.4184 2.334 5.1676 2.4328 5.1676 0.68079zm64.422-12.174c-1.0573-1.9661-2.9349-4.2389-4.1724-5.0507-2.1234-1.3929-2.25-1.3376-2.25 0.98204 0 3.9604 1.7994 7.576 4.2355 8.5105 3.5013 1.3431 4.36-0.40085 2.1869-4.4418zm-8.0329-37.053c1.7396-4.5333-4.4404-7.2387-7.8724-3.4463-1.4673 1.6214-1.5641 2.2571-0.53255 3.5 1.6876 2.0334 7.6186 1.9955 8.405-0.05368z"/>
</svg>
