<?xml version="1.0" encoding="UTF-8"?>
<svg width="1e3" height="700" version="1.0" xmlns="http://www.w3.org/2000/svg">
 <path d="m0 3.87e-6h1e3v700h-1e3z" fill="#fff"/>
 <path d="m0 0 250 250h750v200H250L0 700V0z" fill="#00994c" fill-rule="evenodd"/>
 <path d="m1e3 200h-729.29l-200-200h929.29v200z" fill="#002580" fill-rule="evenodd"/>
 <path d="m70.711 700 200-200h729.29v200h-929.29z" fill="#f3e718" fill-rule="evenodd"/>
 <path d="m0 0 250 250h750v-17h-742.96l-233-233h-24.042zm0 700 250-250h750v17h-742.96l-233 233h-24.042z" fill-rule="evenodd"/>
 <path d="m46.669 0 217 217h736.33v-17h-729.29l-200-200h-24.042zm0 700 217-217h736.33v17h-729.29l-200 200h-24.042z" fill-rule="evenodd"/>
 <g fill-rule="evenodd">
  <path d="m152 398-6 12 18 24 18-24-6-12 36-36 12 6 24-18-24-18-12 6-36-36 6-12-18-24-18 24 6 12-36 36-12-6-24 18 24 18 12.6-6 35.4 36z" fill="#fff" stroke="#000" stroke-width="5"/>
  <path d="m164 386 36-36-36-36-36 36 36 36z" fill="#038301" stroke="#000" stroke-width="5"/>
  <path d="m116 350-12-6-8 6 8 6 12-6zm96 0 12-6 8 6-8 6-12-6zm-48-48 6-12-6-8-6 8 6 12zm0 96 6 12-6 8-6-8 6-12z"/>
 </g>
</svg>
