<svg xmlns="http://www.w3.org/2000/svg" height="700" width="1000" version="1.0">
  <path style="opacity:1;fill:#fff;fill-opacity:1;stroke:none;stroke-width:2;stroke-linecap:butt;stroke-linejoin:bevel;stroke-miterlimit:4;stroke-dasharray:none;stroke-opacity:1" d="M0 .00000387h1000v700H0z"/>
  <path style="stroke-opacity:1;stroke-linejoin:miter;stroke-linecap:butt;stroke-width:1px;stroke:none;fill-rule:evenodd;fill-opacity:1;fill:#00994c" d="m0 0 250 250h750v200H250L0 700V0z"/>
  <path style="fill:#002580;fill-opacity:1;fill-rule:evenodd;stroke:none;stroke-width:1px;stroke-linecap:butt;stroke-linejoin:miter;stroke-opacity:1" d="M1000 200H270.71068L70.710678 0H1000v200z"/>
  <path style="stroke-opacity:1;stroke-linejoin:miter;stroke-linecap:butt;stroke-width:1px;stroke:none;fill-rule:evenodd;fill-opacity:1;fill:#f3e718" d="M70.710678 700 270.71068 500H1000v200H70.710678z"/>
  <path style="fill:#000;fill-opacity:1;fill-rule:evenodd;stroke:none;stroke-width:1px;stroke-linecap:butt;stroke-linejoin:miter;stroke-opacity:1" d="m0 0 250 250h750v-17H257.04163L24.041631 0H0zM0 700l250-250h750v17H257.04163L24.041631 700H0z"/>
  <path style="fill:#000;fill-opacity:1;fill-rule:evenodd;stroke:none;stroke-width:1px;stroke-linecap:butt;stroke-linejoin:miter;stroke-opacity:1" d="M46.669048 0 263.66905 217H1000v-17H270.71068L70.710678 0h-24.04163zM46.669048 700 263.66905 483H1000v17H270.71068L70.710678 700h-24.04163z"/>
  <g style="display:inline">
    <path style="fill:#fff;fill-opacity:1;fill-rule:evenodd;stroke:#000;stroke-width:5;stroke-linecap:butt;stroke-linejoin:miter;stroke-miterlimit:4;stroke-opacity:1" d="m152 398-6 12 18 24 18-24-6-12 36-36 12 6 24-18-24-18-12 6-36-36 6-12-18-24-18 24 6 12-36 36-12-6-24 18 24 18 12.6-6 35.4 36z"/>
    <path style="stroke-opacity:1;stroke-miterlimit:4;stroke-linejoin:miter;stroke-linecap:butt;stroke-width:5;stroke:#000;fill-rule:evenodd;fill-opacity:1;fill:#038301" d="m164 386 36-36-36-36-36 36 36 36z"/>
    <path style="fill:#000;fill-opacity:1;fill-rule:evenodd;stroke:none;stroke-width:1px;stroke-linecap:butt;stroke-linejoin:miter;stroke-opacity:1" d="m116 350-12-6-8 6 8 6 12-6zM212 350l12-6 8 6-8 6-12-6zM164 302l6-12-6-8-6 8 6 12zM164 398l6 12-6 8-6-8 6-12z"/>
  </g>
</svg>
