<?xml version="1.0" encoding="UTF-8"?>
<svg width="2e3" height="1400" version="1.1" viewBox="0 0 1320 924" xmlns="http://www.w3.org/2000/svg" xmlns:cc="http://creativecommons.org/ns#" xmlns:dc="http://purl.org/dc/elements/1.1/" xmlns:rdf="http://www.w3.org/1999/02/22-rdf-syntax-ns#">
 <title>Bandeira do Espírito Santo</title>
 <path d="m0 297h1320v330h-1320z" fill="#ffffff" stroke-width="1.0351"/>
 <path d="m0 0h1320v297h-1320z" fill="#0096e1" stroke-width=".981981"/>
 <path d="m0 627h1320v297h-1320z" fill="#f09bbe" stroke-width=".981981"/>
 <path d="m329.18978 527.94611-16.28852-37.00043-12.58277 6.11811-3.31849-7.60542 33.75186-16.34537 3.31791 7.51965-12.58276 6.11812 16.28853 37.00043-8.58576 4.19491m26.7214-12.76494-17.53426-45.56814 18.51211-7.80131c4.59047-2.01434 8.1483-2.98995 10.52384-3.09704 2.4498-0.10778 4.6826 0.64428 6.77208 2.16975 2.09007 1.61123 3.58956 3.74248 4.647 6.39246 1.28537 3.42001 1.45579 6.67847 0.36218 9.69089-1.01937 3.01175-3.37762 5.69237-6.92737 7.86896 2.30417 0.32247 4.38789 0.99008 6.10149 1.8326 1.78786 0.84184 4.39885 2.61999 7.90666 5.24795l8.73267 6.61318-10.51462 4.46958-10.14753-7.20099c-3.65631-2.62666-6.04282-4.14944-7.23491-4.73927-1.19209-0.58982-2.30764-0.83718-3.34661-0.74207-1.03955 9e-3 -2.59599 0.45224-4.59508 1.32806l-1.77689 0.78804 7.33064 18.97936-8.8114 3.76799m-1.31566-30.0143 6.44162-2.80304c4.22093-1.75366 6.81116-3.06373 7.69701-3.84378 0.88528-0.86584 1.47296-1.81479 1.68765-3.01774 0.28952-1.11787 0.13236-2.40329-0.39664-3.77117-0.60442-1.53877-1.4287-2.64663-2.62079-3.23646-1.11785-0.59049-2.45557-0.75006-3.93833-0.39361-0.81564 0.1789-2.96324 1.05606-6.51761 2.54637l-6.81173 2.97794 4.45882 11.5415m85.22945-2.8237-9.77844 3.51929-7.26431-9.11422-17.70512 6.33566-0.21743 11.84081-9.55624 3.43152 2.17053-52.69384 9.48256-3.34506 32.86845 40.02584m-22.50941-12.40899-11.68566-15.07978-0.38943 19.39179 12.07509-4.31201m14.90439-36.33664 18.00906-5.30892c3.63151-1.06205 6.3006-1.68653 8.15579-1.87474 1.78036-0.27335 3.56419-0.0319 5.2018 0.55383 1.63762 0.58583 3.12904 1.51612 4.54966 2.96179 1.3458 1.36054 2.32262 3.06756 2.85567 5.03591 0.53477 2.22572 0.54976 4.45609-0.1041 6.60668-0.65329 2.23638-1.82924 4.0485-3.52727 5.52213 2.97072 0.0591 5.50112 0.89432 7.51635 2.42044 2.01581 1.6119 3.3668 3.7445 4.05353 6.48359 0.60845 2.13926 0.69828 4.45475 0.26833 6.77491-0.43053 2.23437-1.30773 4.30117-2.63276 6.02884-1.32562 1.64188-3.17274 3.03108-5.46825 3.99536-1.48104 0.61381-5.11197 1.76164-10.89223 3.52929l-15.41537 4.51354-12.57021-47.24266m11.24749 5.1322 2.89546 10.955 5.92877-1.76897c3.55725-1.06139 5.78025-1.76765 6.59473-2.11812 1.48105-0.6138 2.58851-1.56743 3.24929-2.68861 0.58596-1.20629 0.72523-2.58017 0.34359-4.12094-0.38108-1.45499-1.13111-2.56351-2.10102-3.24113-1.04417-0.67694-2.30821-0.92297-3.86581-0.65162-0.96414 0.18023-3.55841 0.88982-7.85706 2.12943l-5.18795 1.50496m4.95338 18.8291 3.42676 12.66601 8.37453-2.47724c3.33507-0.97359 5.33531-1.67785 6.22347-2.11476 1.25769-0.6976 2.21665-1.64988 2.72836-2.85552 0.65963-1.29275 0.72408-2.75174 0.26702-4.46341-0.38049-1.36921-1.05628-2.47841-1.95309-3.32825-0.89624-0.76405-2.08718-1.18231-3.42432-1.2561-1.4114-0.0731-4.15533 0.46623-8.2312 1.70384l-7.41153 2.12543m83.24823 0.71144-10.00926 2.32032-6.30479-9.98071-18.23931 4.19573-1.55457 11.76703-9.78708 2.23253 7.89267-52.05887 9.78707-2.23254 28.21527 43.75652m-20.96796-15.08228-9.98648-16.38185-2.46969 19.23887 12.45617-2.85702m26.38329 14.26159-7.37822-48.14714 9.34617-1.54228 6.13479 39.92258 23.21662-3.89725 1.24285 8.1388-32.56221 5.52529m39.31296-6.52955-4.78396-48.85673 9.42389-1.02823 1.83759 19.286 18.47648-2.05314-1.91127-19.19956 9.42388-1.02823 4.78396 48.85671-9.42388 1.02824-2.0742-21.3428-18.47707 1.96735 2.0742 21.34282-9.34962 1.02757m89.21376-6.63414-10.2447 0.43507-4.52905-10.94033-18.7079 0.76838-3.4138 11.35476-10.02195 0.43309 16.29834-49.90381 10.02195-0.43307 20.59711 48.2859m-18.16996-18.62474-7.10095-17.95193-5.6678 18.49545 12.76875-0.54352m59.68587 19.45325 3.08638-49.01312 34.62068 2.43458-0.4644 8.23991-25.25954-1.74651-0.66929 10.9012 23.47628 1.59091-0.53866 8.24057-23.4763-1.59091-0.87532 13.39092 26.15058 1.73849-0.53809 8.32635-35.51232-2.51239m112.02525-4.52252 8.57089 4.64148c-2.26784 5.0819-5.21492 8.53989-8.91435 10.54623-3.62516 2.00567-7.92842 2.55902-12.8355 1.65937-6.17114-1.14566-10.79621-4.27836-14.02315-9.31095-3.22751-5.11837-4.23606-11.54349-2.95025-19.10445 1.35661-8.07633 4.36179-13.93694 9.08924-17.66826 4.6526-3.81647 10.28781-5.06807 16.75597-3.92507 5.57653 1.06522 9.90054 3.60009 12.8247 7.7775 1.79823 2.38595 2.85971 5.63641 3.25866 9.75069l-9.57528 0.60065c-0.16581-2.57217-0.9976-4.79521-2.4942-6.49757-1.42293-1.78879-3.43528-2.886-5.88912-3.37871-3.41971-0.56984-6.45892 0.22953-8.96912 2.39678-2.58447 2.1679-4.34003 6.12994-5.26669 11.88612-0.99803 6.18575-0.67045 10.72962 0.98333 13.71739 1.65377 2.98778 4.1905 4.76658 7.53595 5.33709 2.45384 0.49271 4.75282 0.0432 6.82269-1.34806 1.9962-1.30475 3.76272-3.63689 5.07623-7.08023m17.57967-2.90298c1.08093-4.89968 2.68856-8.77459 4.89599-11.79702 1.54491-2.15858 3.4634-3.97736 5.68121-5.45567 2.2178-1.4783 4.51333-2.44258 6.88657-2.89281 3.11518-0.5427 6.53259-0.31599 10.25162 0.59431 6.69438 1.65571 11.54451 5.12953 14.62525 10.50658 3.00647 5.37773 3.64492 11.97775 1.91473 19.71427-1.73018 7.73652-5.10837 13.34311-10.13571 16.64819-4.95251 3.39021-10.81336 4.21489-17.50773 2.55918-6.76862-1.65504-11.61876-5.12886-14.6995-10.50592-3.00591-5.29194-3.64377-11.80617-1.91243-19.37111m9.51832 1.97351c-1.22598 5.4157-0.89898 9.87379 0.83193 13.28982 1.73032 3.33022 4.41788 5.45084 8.1369 6.36115 3.64478 0.91096 6.98217 0.2805 9.9379-1.89074 2.95573-2.17123 5.08314-6.05083 6.38222-11.63876 1.22598-5.41571 0.9738-9.78867-0.68227-13.11957-1.65549-3.24513-4.41731-5.36507-8.21059-6.27471-3.79329-0.90964-7.13124-0.36496-10.08697 1.80629-2.95573 2.17123-5.00946 5.96438-6.30912 11.46652m36.4717 34.7604 13.56998-47.04827 8.92948 2.7509 9.30925 37.14884 8.69991-31.391 8.92891 2.66512-13.79275 47.05027-9.07852-2.83535-9.30407-36.37678-8.85364 30.62028-8.40855-2.58402m45.32092 14.52061 16.02608-46.21243 29.77931 11.3143-2.1751 7.8263-21.58889-8.04201-3.63891 11.01362 18.6107 6.8677-2.91759 7.83296-18.61078-6.86769-6.55138 19.61865-8.93344-3.3514m37.22541 14.33587 17.51469-45.71104 8.19266 3.61541-16.77205 45.70439-8.9353-3.60876m55.85992 24.7207-9.683-4.37413 0.6623-11.9306-17.13193-7.82463-7.36767 8.64499-9.68187-4.20257 35.39257-37.37836 9.6814 4.11678-1.8718 52.94853m-8.3376-25.14712 0.6123-19.39378-12.5297 14.01022 11.9174 5.38357" fill="#0096e1" stroke-width=".798132"/>
 <metadata>
  <rdf:RDF>
   <cc:Work rdf:about="">
    <dc:title>Bandeira do Espírito Santo</dc:title>
   </cc:Work>
  </rdf:RDF>
 </metadata>
</svg>
