<?xml version="1.0" encoding="UTF-8"?>
<svg id="svg162" width="560" height="392" version="1.0" xmlns="http://www.w3.org/2000/svg">
 <rect id="rect996" width="560" height="392" fill="#1fa22e" fill-rule="evenodd" stroke-width="6.4111"/>
 <rect id="rect1281" y="49" width="560" height="49" fill="#fd0" fill-rule="evenodd" stroke-width="12.167"/>
 <path id="path158" d="m0 0h196v147h-196z" fill="#00519e"/>
 <g id="g895" transform="matrix(.37333 0 0 .37333 .4228 2.9898)" fill="#fff">
  <path id="path888" d="m298.24 245.85-36.871-26.904-36.871 26.904 14.083-43.531-36.871-26.904h45.575l14.083-43.531 14.083 43.531h45.575l-36.871 26.904z"/>
  <path id="path886" transform="matrix(1.0455 0 0 1.05 0 .016578)" d="m147.02 339.72-47.023-34.164-47.023 34.164 17.961-55.279-47.023-34.164h58.123l17.961-55.279 17.961 55.279h58.123l-47.023 34.164z"/>
  <path id="path884" transform="matrix(1.0455 0 0 1.05 0 .016578)" d="m147.02 164.72-47.023-34.164-47.023 34.164 17.961-55.279-47.023-34.164h58.123l17.961-55.279 17.961 55.279h58.123l-47.023 34.164z"/>
  <path id="path882" transform="matrix(1.0455 0 0 1.05 0 .016578)" d="m447.02 164.72-47.023-34.164-47.023 34.164 17.961-55.279-47.023-34.164h58.123l17.961-55.279 17.961 55.279h58.123l-47.023 34.164z"/>
  <path id="path160" transform="matrix(1.0455 0 0 1.05 0 .016578)" d="m447.02 339.72-47.023-34.164-47.023 34.164 17.961-55.279-47.023-34.164h58.123l17.961-55.279 17.961 55.279h58.123l-47.023 34.164z"/>
 </g>
 <g fill="#fd0" fill-rule="evenodd" stroke-width="12.167">
  <rect id="rect1281-6" y="147" width="560" height="49"/>
  <rect id="rect1281-6-1" y="245" width="560" height="49"/>
  <rect id="rect1281-6-1-1" y="343" width="560" height="49"/>
 </g>
</svg>
