<svg xmlns="http://www.w3.org/2000/svg" xml:space="preserve" width="600" height="420" style="shape-rendering:geometricPrecision;text-rendering:geometricPrecision;image-rendering:optimizeQuality;fill-rule:evenodd;clip-rule:evenodd">
  <defs>
    <style>
      .fil2{fill:#000}
    </style>
  </defs>
  <g id="Camada_x0020_1">
    <g id="_3115381174528">
      <path d="M-.23.06h600v420h-600V.06zm300 97.07 60 103.93 60 103.92h-240l60-103.92 60-103.93zm39.21 220.25H325v6.08h9.77v2.4H325v6.72h13.98v2.4H322.6v-20h16.38v2.4zm-102.21 17.6v-17.6h-8.15v-2.4h18.7v2.4h-8.15v17.6h-2.4zm27.19-17.08-4.2 9.31h8.39l-4.19-9.31zm-1.32-2.92h2.63l9.01 20h-2.63l-2.42-5.37h-10.55l-2.42 5.37h-2.62l9-20zm21.91 20v-20h1.65l11.66 10.26 11.65-10.26h1.65v20h-2.4v-16.14l-10.9 9.6-.81-.72-.01.01-9.61-8.48-.48-.41v16.14h-2.4zm65.35 0v-20h1.68l16.94 16.1v-16.1h2.4v20h-1.77l-16.85-16.01v16.01h-2.4zM338 134.16c-1.2.69-2.38.72-3.4.42-.58-.16-1.1-.44-1.55-.76l-.07.4-2.36-.42.45-2.45-2.25-3.9c-.42-.73-.85-2.19-.54-3.6.23-1.03.82-2.02 2.03-2.72l10.18-5.88c.9-.51 1.95-.65 2.94-.36.9.26 1.73.86 2.29 1.83l3.68 6.37.31.53-.04.02c.3.74.39 1.56.23 2.32-.19.91-.72 1.74-1.67 2.29L338 134.16zm-3.51-8.23-.9 4.97.14.26c.22.37.79.91 1.53 1.12.46.13.99.12 1.54-.2l10.23-5.91c.3-.17.47-.42.53-.7.07-.36-.02-.79-.23-1.16l-.01-.02-3.68-6.37c-.23-.4-.54-.64-.88-.74-.35-.1-.73-.04-1.07.15l-10.18 5.88c-.54.31-.79.73-.89 1.16-.16.74.06 1.5.28 1.88l.84 1.45.4-2.2 2.35.43zm68.12 94.13-5.76-9.99-5.26 3.04 3.99 6.92-2.08 1.2-3.99-6.92-5.83 3.36 5.77 9.99-2.08 1.2-6.97-12.07 17.33-10 6.96 12.07-2.08 1.2zm9.27 16.05-4.42-7.65-5.26 3.04 4.42 7.65c.18.31.52.53.89.64.39.11.78.1 1.04-.05l2.79-1.61c.33-.19.59-.5.7-.86.11-.35.08-.76-.15-1.16l-.01.01 2.08-1.21-2.08 1.2zm2.08-1.2v.01c.59 1.02.66 2.1.37 3.05-.29.94-.94 1.74-1.79 2.23h-.01l-2.78 1.61c-.84.48-1.92.56-2.89.28-.94-.27-1.81-.86-2.32-1.74l-.32-.56-5.6 8.55-1.34-2.32 5.6-8.55-2.76-4.77-7.9 4.56-1.2-2.08 17.32-10 5.62 9.73zm6.3 17.24-9.71 1.32 3.71 6.42 6-7.74zm-19.31.23 1.29 2.23 5.75-.79 4.68 8.12-3.55 4.59 1.29 2.23 13.23-17.07-.64-1.12-.65-1.12-21.4 2.93zm-18.93-51.03-3.25-5.63c-.5-.87-.62-1.91-.42-2.84.22-.98.78-1.86 1.62-2.35l2.99-1.72c.9-.52 1.95-.65 2.93-.37.91.26 1.74.87 2.3 1.84l3.68 6.36.3.54-.03.02c.29.74.39 1.55.23 2.31-.19.92-.72 1.75-1.67 2.3l-.28.16-1.2-2.08.28-.16c.3-.18.47-.43.52-.7.08-.37-.01-.79-.22-1.17l-.01-.02-3.68-6.36c-.23-.4-.55-.64-.88-.74-.35-.1-.73-.05-1.07.15l-2.99 1.72c-.24.14-.41.43-.48.77-.08.38-.04.8.16 1.14l3.25 5.63.03.06.02.01c.45.79.72 1.93.59 3.04-.14 1.17-.7 2.33-1.92 3.09l-.11.06-.01.02-2.23 1.28c-1.2.7-2.38.72-3.41.43-1.4-.41-2.51-1.48-2.94-2.23l-2.83-4.9c-.42-.74-.85-2.2-.54-3.6.23-1.03.82-2.03 2.02-2.72l.36-.21 1.2 2.08-.36.21c-.53.31-.79.73-.88 1.16-.17.73.06 1.5.28 1.88l2.83 4.9c.21.37.78.91 1.53 1.13.46.13.99.11 1.54-.2l2.23-1.29.06-.03c.5-.31.74-.82.8-1.34.07-.59-.07-1.17-.29-1.56l-.03-.06 1.02-.61-1.04.6zm-16.31-43.69-9.71 1.32 3.71 6.42 6-7.74zm-19.32.23 1.29 2.23 5.75-.78 4.69 8.11-3.56 4.59 1.29 2.23 5.48 9.48 2.07-1.2-5.96-10.33 4.45-5.74 3.65 6.31 2.08-1.2-4.14-7.16 4.02-5.19 5.55 9.61 2.07-1.2-6.03-10.45-.65-1.12-.64-1.12-21.41 2.93zm2.21-5.38c-1.2.69-2.38.72-3.41.42-1.4-.4-2.51-1.48-2.94-2.22l-2.83-4.9c-.43-.74-.85-2.2-.54-3.61.23-1.02.82-2.02 2.02-2.71l13.47-7.78 1.2 2.08-13.47 7.78c-.53.3-.79.73-.88 1.16-.17.73.06 1.49.28 1.88l2.83 4.9c.21.37.78.91 1.53 1.12.45.14.99.12 1.54-.2l13.34-7.7 1.2 2.08-13.34 7.7zm-137.22 42.53-5.77 9.98 5.26 3.04 4-6.92 2.08 1.2-4 6.92 5.83 3.36 5.76-9.98 2.08 1.2-6.96 12.06-17.32-10 6.96-12.06 2.08 1.2zm10.22-17.71-4.41 7.65 5.26 3.04 4.42-7.66c.17-.31.2-.71.1-1.08-.1-.39-.3-.73-.57-.88l-2.78-1.61c-.33-.2-.73-.26-1.1-.18-.35.09-.69.32-.92.71h.01l-2.08-1.19c.59-1.03 1.49-1.63 2.46-1.85.95-.22 1.97-.06 2.83.44v-.01.01l2.78 1.61c.84.48 1.45 1.38 1.69 2.36.24.94.16 2-.35 2.87l-.32.56 10.2.58-1.34 2.32-10.2-.57-2.76 4.77 7.91 4.56-1.2 2.08-17.32-10 5.62-9.73 2.07 1.2zm-24.21 41.93-3.99 6.92 5.26 3.04 4-6.92c.17-.3.17-.7.07-1.09-.12-.42-.34-.78-.62-.95l-2.59-1.49c-.37-.21-.83-.28-1.24-.18-.35.09-.67.3-.89.67zm7.34 4.24-3.99 6.92 5.82 3.36 4-6.92c.31-.55.52-1.23.38-1.84-.11-.44-.41-.87-1.03-1.23l-2.16-1.25c-.62-.33-1.18-.47-1.65-.37-.44.1-.87.46-1.27 1.15l-.1.18zm7.91 4.56-5.2 9-17.32-10 5.2-9c.56-.98 1.43-1.56 2.38-1.79 1.02-.26 2.14-.09 3.02.42l2.59 1.5c.69.39 1.24 1.09 1.56 1.88.23-.1.46-.18.71-.23 1.06-.24 2.18 0 3.3.59l.23.13 2 1.15c1.27.74 1.92 1.72 2.16 2.77.29 1.28-.06 2.58-.63 3.58zm-27.55 7.71 17.32 10-1.2 2.08-17.32-10 1.2-2.08zm-11.37 19.69 15.24 8.8 6.03-10.43 2.07 1.2-7.22 12.51-17.32-10 1.2-2.08zm72.03-84.76-15.24-8.8-3.11 5.39-2.08-1.2 3.71-6.43.6-1.04 3.11-5.38 2.08 1.2-3.11 5.38 15.24 8.8-1.2 2.08zm-3.46-27.69 6 7.74 3.71-6.41-9.71-1.33zm9.86 16.61 1.29-2.23-3.56-4.59 4.69-8.11 5.75.78 1.29-2.23-21.41-2.93-.64 1.12-.65 1.12 13.24 17.07zm9.96-35.51-3.25 5.64c-.5.86-1.34 1.48-2.25 1.77-.95.31-1.99.26-2.84-.23l-2.99-1.72c-.89-.52-1.53-1.37-1.78-2.36-.23-.91-.12-1.93.44-2.9l3.68-6.37.31-.53.03.02c.5-.63 1.15-1.12 1.89-1.36.89-.29 1.87-.25 2.82.3l.28.16-1.2 2.08-.28-.16c-.3-.18-.6-.19-.87-.1-.35.11-.67.4-.89.77l-.01.02-3.68 6.37c-.23.4-.28.79-.2 1.13.09.35.33.66.66.85l2.99 1.73c.24.14.58.14.91.03.37-.12.71-.37.9-.7l3.26-5.64.03-.06.01-.01c.45-.79 1.3-1.59 2.33-2.03 1.08-.47 2.37-.56 3.64.12l.11.06h.02l2.22 1.29c1.2.69 1.82 1.7 2.07 2.73.35 1.42-.02 2.92-.45 3.66l-2.83 4.91c-.43.73-1.48 1.84-2.85 2.27-1.01.31-2.17.3-3.37-.4l-.36-.2 1.2-2.08.36.2c.53.31 1.03.32 1.45.19.72-.22 1.27-.8 1.49-1.18l2.83-4.91c.21-.37.39-1.13.21-1.88-.12-.46-.4-.92-.95-1.23l-2.22-1.29-.06-.04c-.52-.28-1.08-.23-1.56-.02-.54.23-.98.64-1.2 1.03l-.01-.01-.03.06-1.05-.58 1.04.6z" style="fill:#fff"/>
      <path style="fill:#ed1c24" d="m299.77 97.13 60 103.93 60 103.92h-240l60-103.92z"/>
      <path class="fil2" d="M338 134.16c-1.2.69-2.38.72-3.4.42-.58-.16-1.1-.44-1.55-.76l-.07.4-2.36-.42.45-2.45-2.25-3.9c-.42-.73-.85-2.19-.54-3.6.23-1.03.82-2.02 2.03-2.72l10.18-5.88c.9-.51 1.95-.65 2.94-.36.9.26 1.73.86 2.29 1.83l3.68 6.37.31.53-.04.02c.3.74.39 1.56.23 2.32-.19.91-.72 1.74-1.67 2.29L338 134.16zm-3.51-8.23-.9 4.97.14.26c.22.37.79.91 1.53 1.12.46.13.99.12 1.54-.2l10.23-5.91c.3-.17.47-.42.53-.7.07-.36-.02-.79-.23-1.16l-.01-.02-3.68-6.37c-.23-.4-.54-.64-.88-.74-.35-.1-.73-.04-1.07.15l-10.18 5.88c-.54.31-.79.73-.89 1.16-.16.74.06 1.5.28 1.88l.84 1.45.4-2.2 2.35.43zM402.61 220.06l-5.76-9.99-5.26 3.04 3.99 6.92-2.08 1.2-3.99-6.92-5.83 3.36 5.77 9.99-2.08 1.2-6.97-12.07 17.33-10 6.96 12.07zM411.88 236.11l-4.42-7.65-5.26 3.04 4.42 7.65c.18.31.52.53.89.64.39.11.78.1 1.04-.05l2.79-1.61c.33-.19.59-.5.7-.86.11-.35.08-.76-.15-1.16l-.01.01 2.08-1.21-2.08 1.2zm2.08-1.2v.01c.59 1.02.66 2.1.37 3.05-.29.94-.94 1.74-1.79 2.23h-.01l-2.78 1.61c-.84.48-1.92.56-2.89.28-.94-.27-1.81-.86-2.32-1.74l-.32-.56-5.6 8.55-1.34-2.32 5.6-8.55-2.76-4.77-7.9 4.56-1.2-2.08 17.32-10 5.62 9.73zM420.26 252.15l-9.71 1.32 3.71 6.42 6-7.74zm-19.31.23 1.29 2.23 5.75-.79 4.68 8.12-3.55 4.59 1.29 2.23 13.23-17.07-.64-1.12-.65-1.12-21.4 2.93zM382.02 201.35l-3.25-5.63c-.5-.87-.62-1.91-.42-2.84.22-.98.78-1.86 1.62-2.35l2.99-1.72c.9-.52 1.95-.65 2.93-.37.91.26 1.74.87 2.3 1.84l3.68 6.36.3.54-.03.02c.29.74.39 1.55.23 2.31-.19.92-.72 1.75-1.67 2.3l-.28.16-1.2-2.08.28-.16c.3-.18.47-.43.52-.7.08-.37-.01-.79-.22-1.17l-.01-.02-3.68-6.36c-.23-.4-.55-.64-.88-.74-.35-.1-.73-.05-1.07.15l-2.99 1.72c-.24.14-.41.43-.48.77-.08.38-.04.8.16 1.14l3.25 5.63.03.06.02.01c.45.79.72 1.93.59 3.04-.14 1.17-.7 2.33-1.92 3.09l-.11.06-.01.02-2.23 1.28c-1.2.7-2.38.72-3.41.43-1.4-.41-2.51-1.48-2.94-2.23l-2.83-4.9c-.42-.74-.85-2.2-.54-3.6.23-1.03.82-2.03 2.02-2.72l.36-.21 1.2 2.08-.36.21c-.53.31-.79.73-.88 1.16-.17.73.06 1.5.28 1.88l2.83 4.9c.21.37.78.91 1.53 1.13.46.13.99.11 1.54-.2l2.23-1.29.06-.03c.5-.31.74-.82.8-1.34.07-.59-.07-1.17-.29-1.56l-.03-.06 1.02-.61-1.04.6zM365.71 157.66l-9.71 1.32 3.71 6.42 6-7.74zm-19.32.23 1.29 2.23 5.75-.78 4.69 8.11-3.56 4.59 1.29 2.23 5.48 9.48 2.07-1.2-5.96-10.33 4.45-5.74 3.65 6.31 2.08-1.2-4.14-7.16 4.02-5.19 5.55 9.61 2.07-1.2-6.03-10.45-.65-1.12-.64-1.12-21.41 2.93zM348.6 152.51c-1.2.69-2.38.72-3.41.42-1.4-.4-2.51-1.48-2.94-2.22l-2.83-4.9c-.43-.74-.85-2.2-.54-3.61.23-1.02.82-2.02 2.02-2.71l13.47-7.78 1.2 2.08-13.47 7.78c-.53.3-.79.73-.88 1.16-.17.73.06 1.49.28 1.88l2.83 4.9c.21.37.78.91 1.53 1.12.45.14.99.12 1.54-.2l13.34-7.7 1.2 2.08-13.34 7.7z"/>
      <g>
        <path class="fil2" d="m211.38 195.04-5.77 9.98 5.26 3.04 4-6.92 2.08 1.2-4 6.92 5.83 3.36 5.76-9.98 2.08 1.2-6.96 12.06-17.32-10 6.96-12.06zM221.6 177.33l-4.41 7.65 5.26 3.04 4.42-7.66c.17-.31.2-.71.1-1.08-.1-.39-.3-.73-.57-.88l-2.78-1.61c-.33-.2-.73-.26-1.1-.18-.35.09-.69.32-.92.71h.01l-2.08-1.19c.59-1.03 1.49-1.63 2.46-1.85.95-.22 1.97-.06 2.83.44v-.01.01l2.78 1.61c.84.48 1.45 1.38 1.69 2.36.24.94.16 2-.35 2.87l-.32.56 10.2.58-1.34 2.32-10.2-.57-2.76 4.77 7.91 4.56-1.2 2.08-17.32-10 5.62-9.73 2.07 1.2zM197.39 219.26l-3.99 6.92 5.26 3.04 4-6.92c.17-.3.17-.7.07-1.09-.12-.42-.34-.78-.62-.95l-2.59-1.49c-.37-.21-.83-.28-1.24-.18-.35.09-.67.3-.89.67zm7.34 4.24-3.99 6.92 5.82 3.36 4-6.92c.31-.55.52-1.23.38-1.84-.11-.44-.41-.87-1.03-1.23l-2.16-1.25c-.62-.33-1.18-.47-1.65-.37-.44.1-.87.46-1.27 1.15l-.1.18zm7.91 4.56-5.2 9-17.32-10 5.2-9c.56-.98 1.43-1.56 2.38-1.79 1.02-.26 2.14-.09 3.02.42l2.59 1.5c.69.39 1.24 1.09 1.56 1.88.23-.1.46-.18.71-.23 1.06-.24 2.18 0 3.3.59l.23.13 2 1.15c1.27.74 1.92 1.72 2.16 2.77.29 1.28-.06 2.58-.63 3.58zM185.09 235.77l17.32 10-1.2 2.08-17.32-10zM173.72 255.46l15.24 8.8 6.03-10.43 2.07 1.2-7.22 12.51-17.32-10zM245.75 170.7l-15.24-8.8-3.11 5.39-2.08-1.2 3.71-6.43.6-1.04 3.11-5.38 2.08 1.2-3.11 5.38 15.24 8.8zM242.29 143.01l6 7.74 3.71-6.41-9.71-1.33zm9.86 16.61 1.29-2.23-3.56-4.59 4.69-8.11 5.75.78 1.29-2.23-21.41-2.93-.64 1.12-.65 1.12 13.24 17.07zM262.11 124.11l-3.25 5.64c-.5.86-1.34 1.48-2.25 1.77-.95.31-1.99.26-2.84-.23l-2.99-1.72c-.89-.52-1.53-1.37-1.78-2.36-.23-.91-.12-1.93.44-2.9l3.68-6.37.31-.53.03.02c.5-.63 1.15-1.12 1.89-1.36.89-.29 1.87-.25 2.82.3l.28.16-1.2 2.08-.28-.16c-.3-.18-.6-.19-.87-.1-.35.11-.67.4-.89.77l-.01.02-3.68 6.37c-.23.4-.28.79-.2 1.13.09.35.33.66.66.85l2.99 1.73c.24.14.58.14.91.03.37-.12.71-.37.9-.7l3.26-5.64.03-.06.01-.01c.45-.79 1.3-1.59 2.33-2.03 1.08-.47 2.37-.56 3.64.12l.11.06h.02l2.22 1.29c1.2.69 1.82 1.7 2.07 2.73.35 1.42-.02 2.92-.45 3.66l-2.83 4.91c-.43.73-1.48 1.84-2.85 2.27-1.01.31-2.17.3-3.37-.4l-.36-.2 1.2-2.08.36.2c.53.31 1.03.32 1.45.19.72-.22 1.27-.8 1.49-1.18l2.83-4.91c.21-.37.39-1.13.21-1.88-.12-.46-.4-.92-.95-1.23l-2.22-1.29-.06-.04c-.52-.28-1.08-.23-1.56-.02-.54.23-.98.64-1.2 1.03l-.01-.01-.03.06-1.05-.58 1.04.6z"/>
      </g>
      <g>
        <path class="fil2" d="M338.98 317.38H325v6.08h9.77v2.4H325v6.72h13.98v2.4H322.6v-20h16.38zM236.77 334.98v-17.6h-8.15v-2.4h18.7v2.4h-8.15v17.6zM263.96 317.9l-4.2 9.31h8.39l-4.19-9.31zm-1.32-2.92h2.63l9.01 20h-2.63l-2.42-5.37h-10.55l-2.42 5.37h-2.62l9-20zM284.55 334.98v-20h1.65l11.66 10.26 11.65-10.26h1.65v20h-2.4v-16.14l-10.9 9.6-.81-.72-.01.01-9.61-8.48-.48-.41v16.14zM349.9 334.98v-20h1.68l16.94 16.1v-16.1h2.4v20h-1.77l-16.85-16.01v16.01z"/>
      </g>
    </g>
  </g>
</svg>
