<?xml version="1.0" encoding="UTF-8"?>
<svg width="2e3" height="1400" viewBox="0 0 6e3 4200" xmlns="http://www.w3.org/2000/svg">
 <title>Bandeira da Paraíba"</title>
 <rect width="100%" height="100%"/>
 <rect x="2e3" width="4e3" height="100%" fill="#f00000"/>
 <path id="NEGO" d="m3250 2290v-379h78l156 253v-253h66v379h-72l-156-247v247zm384 0v-379h282v64h-204v84h186v64h-186v103h210v64zm528-140v-63h168v151c-18 15-42 29-72 41-30 11-60 17-90 17-42 0-78-8-108-25-24-16-48-40-66-71-12-31-18-65-18-101 0-39 6-74 24-105s42-54 72-71c24-12 54-18 90-18 48 0 84 9 108 29 30 20 48 47 54 82l-78 14c-6-18-12-33-30-44-12-11-30-16-54-16-36 0-60 10-78 31-24 22-30 53-30 95 0 45 6 79 30 101 18 23 42 34 78 34 18 0 30-3 48-9 18-7 30-15 42-23v-49zm222-47c0-39 6-71 18-97 6-20 18-37 36-53 12-15 30-26 48-33 24-10 48-15 78-15 60 0 102 17 138 51 30 35 48 83 48 145 0 61-18 109-48 143-36 35-78 52-132 52-60 0-102-17-138-52-30-34-48-81-48-141zm78-3c0 43 12 75 30 98 18 22 42 33 72 33 36 0 60-11 78-33s30-55 30-99-12-76-30-97c-18-22-42-32-78-32-30 0-54 10-72 33-18 21-30 54-30 97z" fill="#fff"/>
</svg>
