<?xml version="1.0" encoding="UTF-8"?>
<svg width="826.76" height="496.06" xmlns="http://www.w3.org/2000/svg">
 <rect id="rect667" y="8e-6" width="826.76" height="248.03" fill="#fff" fill-rule="evenodd" stroke-width="1pt"/>
 <rect id="rect669" y="248.03" width="826.76" height="248.03" fill="#00ab39" fill-rule="evenodd" stroke-width="1pt"/>
 <path id="path554" d="m541.62 28.562c-52.282 28.904-99.066 58.983-145.06 97.312-22.061 19.27-15.834 34.632-16.688 51.938 0.711 11.618-2.5112 22.426-9.6562 28.938-16.35 3.306-32.714 6.6315-49.062 9.9375-1.566-4.523-3.1215-9.0405-4.6875-13.562 1.495-6.94 7.2315-10.352 19.312-6 0.952-8.923-6.227-12.555-14.625-15.656-2.885-2.246-6.468-3.9715-6-11.688-1.412-17.467 26.615 1.25 26.875 1.25 0.261 0-0.9335-17.627-13.812-21.156-7.022-2.485-9.9935-9.892-7.3125-15.375 5.618-11.209 16.193 0.8785 24.281 1.3125-0.303-7.317-2.3865-12.532-8.6875-18.438-3.392-2.087-11.722-3.6572-11.938-7.1562-0.177-4.752 7.8072-6.7838 18.781-5.4688-2.288-6.6597-9.6675-10.968-19.812-14.094-2-3.4787-4-6.9588-6-10.438-2.841-5.26-4.1152-5.4017 2.4688-15.375 5.915-3.8266 13.774-9.2361 19.688-13.062-2.175-0.261-4.3562-0.52035-6.5312-0.78125 0.869-7.1313 0.969-9.5307 2.625-21.375-6.346 8.6716-14.275 7.1218-21.406 10.688 0 0-20.33 3.6092-26.875 12.25-0.261 0-51.125-2.5938-51.125-2.5938-10.84 1.5095-20.099 4.5822-21.906 15.125-24.792 2.5024-50.755 0.2888-69.656 24 12.87-0.6087 24.136-3.6737 38.594-1.8125 0 0 12.321 0.23265 14.875 13.281 0.261 0.521 4.1875 0.53125 4.1875 0.53125 1.566 1.217 3.1215 2.4392 4.6875 3.6562 0.609-1.652 1.2035-3.3168 1.8125-4.9688 1.392 0.957 2.7955 1.918 4.1875 2.875 0.434-1.826 0.8785-3.6426 1.3125-5.4688 1.392 0.9565 2.7642 1.9184 4.1562 2.875 0.087-2.1741 0.19525-4.3572 0.28125-6.5312 1.827 1.3044 3.6428 2.6018 5.4688 3.9062v-8.5938s20.192-0.04735 26.344 12.781c0.262 0.261-56.669 10.463-111.66 5.75 5.306-2.609 10.601-5.2348 15.906-7.8438-20.05-4.0763-38.901-7.761-56.594-21.656 6.6772 25.137 41.181 54.663 48.25 54.531 0 0.261-6.7812-12.25-6.7812-12.25 19.916 0.87 39.835 1.7248 59.75 2.5938 2.175 6.61 1.2132 14.02 6.5312 19.844 0 0-3.2988 10.925 4.0312 15.375 0.262 0.521 8.75-22.156 8.75-22.156s2.5998 6.1002 5.2188 10.156c3.795-19.508 25.031-22.688 25.031-22.688s4.4375 10.176 4.4375 10.438c-6.636 0.96-14.89 14.486-10.438 21.906-4.45 0.085-12.351 13.186-9.9062 20.344-3.741 3.723-13.058 8.6862-10.688 24.281-7.334 1.572-11.676 14.991-9.4062 29.219-11.349 10.564-8.5635 29.956 1.5625 37.812-4.203 3.74-6.7902 6.6158-6.7812 11.219-3.996-1.485-7.6792-0.244-9.4062 2.375-4.898-5.021-11.932-9.4178-16.938-4.7188-1.296-5.94-9.032-12.475-17.5-11.719 0.496-6.264-2.7548-14.018-11.719-16.719 0 0-1.8138-29.358-10.719-38.875-0.873-5.326 0.50975-8.9475 7.8438-13.312 7.323-3.906 8.8788-6.935 8.3438-18 2.887-7.396 5.0808-14.936-3.9062-20.062 0.271 8.795-2.429 13.032-6 16.938-4.266-0.621-5.755 4.3572-8.625 6.5312-4.016-5.413 8.4718-13.799-0.78125-25.844-0.521-0.523-6.459-15.723-21.125-15.375 6.971 4.082 9.9192 10.951 9.9062 18-4.624 13.045-6.9738 23.127-2.3438 38.094-6.093-9.129-9.5488-26.482-14.594-29.5-4.422-0.863-6.5822-11.322-23.75-8.3438 7.4057 1.992 9.7571 7.6472 11.75 12.781-4.541 2.342-2.285 8.5192 1.0312 12.781-0.6297 10.015 5.3698 15.866 14.344 19.594-1.478 13.653-2.9595 27.284-4.4375 40.938-3.565-0.455-9.0506 13.425-11.219 13.844-3.4888 2.171-9.5812 8.0092-2.5938 9.6562-2.0758 7.491-4.001 12.008-15.156 13.562 0 0 11.787 6.9912 21.562-4.9688 10.474-0.262 7.0298-12.752 12.094-18.25 0-0.26 2.8745-2.0655 7.0625-13.062 1.832 9.819 11.908 39.888 34.688 54.812 19.856 21.256 36.175 41.33 36 69.656 7.75-7.209 12.378-18.625 15.938-29.5 10.777-3.748 26.192-5.1795 39.938-4.5625-2.358 4.961-4.9968 9.7215-1.5938 12.938-9.593 3.295-11.695 10.257-7.8438 17.219-10.112 6.867-10.778 11.28-10.938 22.688-18.708 23.985-30.249 23.189-48.781 16.969-6.086-3.572-15.505-8.714-19.844-6-8.004-5.334-19.512-6.127-21.406 6 6.006-4.978 9.592-4.0188 14.375 0.78125-0.962 2.436-1.7655 4.862 1.8125 6.25-1.566 1.739-3.1215 3.4798-4.6875 5.2188-8.613-1.324-20.194-1.2502-23.219 11.219 4.424-3.665 14.24-4.5252 22.156-1.0312 1.479 0.522 2.9585 1.0395 4.4375 1.5625 0.174 2 0.35825 4 0.53125 6 0 0-11.732-1.8112-14.875 17.219 11-11.702 18.781-8.625 18.781-8.625 4.239 6.205 19.84 5.2705 31.062-4.9375 15.762-8.812 20.357 3.8515 30.531-4.4375 8.436-6.292 18.417-2.1082 25.281 5.2188 7.915 2.969 16.2 5.413 22.719 0 0 0 7.9632-5.081 15.906 3.125 0.087-9.253-6.47-14.169-15.375-14.344-0.87-0.87-0.359 0.34-2.625-2.625-8.349-1.74-17.73-1.0338-25.031-5.2188 3.442-13.065 8.457-24.904 18.25-34.969 12.088-12.958 20.987-18.85 36.25-38.688-0.589 11.211 8.0032 23.676 12.531 35.062 0 0 9.1165-14.555 10.438-26.375 0.26 0 11.424-5.81 16.188-10.75 10.056 6.237 26.446-4.9932 37.031-14.281 6.525 2.47 11.478 2.293 19.062 0-6.088 12.39 3.5212 23.884 18.781 28.688 1.411 10.938 12.459 13.228 29.219 13.312 0.706 6.436 10.688 7.3125 10.688 7.3125-6.307 2.94-9.595 5.8862-9.375 12.531-6.465 0.044-11.36 1.671-13.062 9.125-8.876 0.152-17.922 0.83275-25.562 5.2188-8.175-1.269-18.121-4.6568-24.531-11.219-3.306-2.783-4.1312-6.7958-9.9062-8.3438-3.66-4.326-8.0392-3.3608-9.4062 0.78125-3.783-2.955-17.972-4.328-20.344 9.125 6.624-4.848 12.564-6.6962 16.719-0.78125-2.264 4.107 5.516 6.4558 12.25 8.0938 4.776 0.296 13.247 4.647 15.906 12-6.16 1.869-15.496 1.2528-21.656-3.4062-5.476-4.582-12.872-4.0362-16.938-1.0312-5.64-3.596-19.071 3.1925-19.594 14.062 5.658-5.184 10.808-7.6912 15.938-4.4062-2.553 0.606-1.5825 0.85475-1.3125 2.3438 4.348 2.522 8.6832 5.0405 13.031 7.5625-6.394 1.687-12.405 4.2372-9.625 16.156 0 0 5.2085-10.296 16.938-6.5 0.261-0.261 1.6168 3.6772 4.9688 1.0312 5.076-5.776 16.682-8.362 26.875-9.375 8.18-0.977 16.347-3.3868 23.469 1.2812 6.341-3.262 13.401-5.456 20.625-0.25 8.523 2.696 14.746 12.631 25.562 8.0938 5.379-3.723 11.99-3.9118 18.781 3.6562 0.083-9.543-7.0688-12.742-17.219-14.875-2.349-1.393-4.6822-2.7955-7.0312-4.1875-6.522-0.957-13.072 0.199-19.594-2.875 34.134-8.824 58.062-27.859 74.906-55.031 5.392 1.913 10.764 3.8048 16.156 5.7188 3.825 0.245 4.117 1.5745 12 3.9375 0.297-11.614-4.6885-23.577-25.562-24.781l-27.406-10.438c-5.817-6.135-8.4462-19.152-1.0312-26.875 7.258-6.463 8.5245-5.6885 13.312-13.562 5.822-0.53 11.31 5.4688 16.688 5.4688 2.554 7.587 17.274 14.294 26.625 12 5.859 5.187 17.008 8.0702 29.219 3.9062 6.93 6.067 15.959 8.6002 26.594 3.9062 2.823 2.823 8.7832 5.0682 15.656 3.6562 0.522 0 3.4728 7.5415 10.969 10.188-3.268 3.176-1.2582 16.966 2.0938 21.906-2.288 5.302-3.0085 10.958-1.0625 16.438-7.559 4.86-9.0978 8.4755-5.7188 16.688-9.899 15.906-21.741 17.724-32.875 12.812-4.002-2.522-7.998-5.0708-12-7.5938-4.261-4.175-8.5202-8.325-12.781-12.5-2.17-2.037-6.6598-2.6775-7.5938 1.8125 0 0-16.4-3.6575-17.719 10.188 6.797-6.62 16.438-0.79225 16.438-0.53125s-2.2962 1.8228-0.53125 4.4688c0.39718-0.33099 11.973 4.3202 22.281 8.75 5.6004 2.1226 6.8307 2.7859 9.2812 4.0938-2.6848-1.2291-5.858-2.6226-9.2812-4.0938-6.2751-2.3783-12.388-4.2792-14.188-3.8125-5.84-0.545-12.035-1.27-14.875 3.125-6.277 2.656-16.083 4.7835-15.656 16.438 4.239-6.94 10.055-6.647 17.469-6-0.174 0.522-0.326 1.0405-0.5 1.5625 8.0496 3.6663 6.5232-0.99842 14.031-1.6875 6.277-0.5761 15.174 1.6726 19.875 3.25-5.913 1.739-13.954 1.0098-17.75 5.2188-0.696 1.392-3.1315 0.82325-2.0625 4.1562 0 0-11.534-0.29775-14.625 15.656 11.728-7.509 20.615-7.2812 20.875-7.2812 0.261 0 3.6562 0.78125 3.6562 0.78125s14.084-9.4062 14.344-9.4062c0.262 0 13.638-5.9228 19.812 0.78125 5.389 2.649 11.153 2.8178 16.719-0.53125 10.966-4.77 21.23-5.1042 31.312 1.5938l9.125 5.4688c1.304-0.869 2.6022-1.755 3.9062-2.625 0 0 10.329-2.9168 17.906 6.2812-3.132-15.915-14.5-16.438-14.5-16.438-0.87-0.783-1.756-1.5608-2.625-2.3438-5.392-2.087-10.764-4.1942-16.156-6.2812-2.354-5.826-8.268-10.465-2.375-17.469 6.02-29.926 13.218-52.401 1.5625-82.719 10.871 4.696 19.005 19.217 32.625 14.094 0-12.176-44.822-35.294-79.062-53.875 56.094-2.87 123.51-44.277 97.594-96.906 4.088-12.697 8.162-25.397 12.25-38.094 5.77 11.623 17.454 20.483 27.938 24.25-8.641-16.496-13.6-66.93-8.625-101.75-22.603 27.922-47.563 52.702-74.094 77.875 13.05 3.05 24.452 0.90375 37.062-0.65625-3.566 7.305-7.0288 14.632-10.594 21.938-34.473-20.188-74.947-5.0378-75.25 21.906 1.179 31.42 40.028 35.886 62.438 24.938-4.443 28.647-70.281 18.094-70.281 18.094-23.394-8.064-45.614-6.683-70.188-6.5 5.106-15.71 33.46-29.652 55.062-23.5-30.243-33.909 4.2742-76.008 45.906-88.969-45.376-14.966-6.3048-49.558 27.656-74.344 0 0-97.66 41.101-106.56 40.969-27.755-2.0957-20.136-35.045-9.5312-52.719zm-311.27 39.975c1.0059-0.54512 7.4782-0.74093 11.714 0.29118 4.4039 1.0731 9.7463 1.6917 9.6717 3.003-2.0387 3.4124-7.0325 7.5269-11.954 7.2793s-7.7917-3.1777-9.4315-10.573z" fill="#d21034" fill-rule="evenodd" stroke="#000" stroke-linejoin="round" stroke-width="1.7229"/>
 <path id="path555" d="m667.73 194.66c-3.6 10.371-34.84 15.678-36.935 0.32544-1.0657-7.8158 18.503-19.872 36.935-0.32544z" fill="#fff" fill-rule="evenodd" stroke="#000" stroke-width="1.5255pt"/>
 <path id="path556" d="m715.96 116.25s-2.136 25.915-5.268 31.184" fill="none" stroke="#000" stroke-linecap="round" stroke-width="1.3783pt"/>
 <path id="path557" d="m703.85 117.68c0 0.142-10.822 29.191-10.822 29.191" fill="none" stroke="#000" stroke-linecap="round" stroke-width="1.725"/>
 <path id="path558" d="m682.47 168.84c2.167 1.686 10.539 6.154 16.069 16.496" fill="none" stroke="#000" stroke-width="1.3783pt"/>
 <path id="path559" d="m668.03 195s7.7898 6.7994 0.9361 23.205" fill="none" stroke="#000" stroke-width="1.3783pt"/>
 <path id="path560" d="m552.06 243.41c15.38-1.851 37.449 32.323 48.698 39.016" fill="none" stroke="#000" stroke-width="1.3783pt"/>
 <path id="path561" d="m666.12 430.37s-6.408 4.698-2.99 10.822" fill="none" stroke="#000" stroke-width="1.3783pt"/>
 <path id="path562" d="m558.47 436.07s7.688 2.136 6.835 8.544" fill="none" stroke="#000" stroke-width="1.3783pt"/>
 <path id="path563" d="m542.95 413.71s5.553 5.839 1.851 10.679" fill="none" stroke="#000" stroke-width="1.3783pt"/>
 <path id="path564" d="m551.78 391.21s7.404 3.559-1.424 9.683" fill="none" stroke="#000" stroke-width="1.3783pt"/>
 <path id="path565" d="m458.79 430.09s-6.408 5.411-1.708 11.535" fill="none" stroke="#000" stroke-width="1.3783pt"/>
 <path id="path566" d="m349.58 431.65s11.677 0.569 7.547 9.397" fill="none" stroke="#000" stroke-width="1.3783pt"/>
 <path id="path567" d="m340.89 412s3.901 7.23-3.646 9.223" fill="none" stroke="#000" stroke-width="1.3783pt"/>
 <path id="path568" d="m355.56 387.94s3.846 7.689-3.56 8.686" fill="none" stroke="#000" stroke-width="1.3783pt"/>
 <path id="path569" d="m347.16 429.94s11.249-9.683 16.518-4.557c5.268 5.126 27.624-4.413 27.624-4.413" fill="none" stroke="#000" stroke-width="1.3783pt"/>
 <path id="path570" d="m398.99 406.59-18.511 9.682" fill="none" stroke="#000" stroke-width="1.3783pt"/>
 <path id="path571" d="m425.05 401.32s13.669 14.667 23.637-3.134" fill="none" stroke="#000" stroke-width="1.3783pt"/>
 <path id="path572" d="m438.29 392.07c9.255 7.404 5.463 11.841 34.513-7.666" fill="none" stroke="#000" stroke-width="1.3783pt"/>
 <path id="path573" d="m447.12 379.68s24.776 2.564 25.915 4.415c2.849-2.991 24.972-20.911-2.225-23.473-4.555 18.654-23.263 19.343-23.69 19.058z" fill="none" stroke="#000" stroke-width="1.3783pt"/>
 <path id="path574" d="m152.43 435.12s9.123 1.336 3.782 8.678" fill="none" stroke="#000" stroke-width="1.3783pt"/>
 <path id="path575" d="m148.42 417.76s6.675 4.229-0.89 9.791" fill="none" stroke="#000" stroke-width="1.3783pt"/>
 <path id="path576" d="m158.88 399.29s3.115 8.01-7.344 6.898" fill="none" stroke="#000" stroke-width="1.3783pt"/>
 <path id="path578" d="m152.2 429.11s12.685-10.459 19.36-4.005c6.454 2.226 10.013 1.78 10.013 1.78" fill="none" stroke="#000" stroke-width="1.3783pt"/>
 <path id="path579" d="m266.36 428.44c-0.223 0-3.783 7.565-0.667 11.347" fill="none" stroke="#000" stroke-width="1.3783pt"/>
 <path id="path580" d="m153.32 411.97c8.01-0.445 9.735 3.172 17.023 3.172 8.396 0.256 16.577-3.172 27.259-6.065" fill="none" stroke="#000" stroke-width="1.3783pt"/>
 <path id="path581" d="m99.022 171.2s5.1179 2.448 10.014-5.117" fill="none" stroke="#000" stroke-width="1.3783pt"/>
 <path id="path582" d="m95.907 267.33s8.2332 2.448 6.8982 8.679" fill="none" stroke="#000" stroke-width="1.3783pt"/>
 <path id="path583" d="m127.73 157.41s0 4.895 10.236-2.67" fill="none" stroke="#000" stroke-width="1.3783pt"/>
 <path id="path584" d="m138.85 180.55s-7.789 20.917 1.557 25.811" fill="none" stroke="#000" stroke-width="1.3783pt"/>
 <path id="path585" d="m148.2 174.77s4.005 8.679 9.569 3.783" fill="none" stroke="#000" stroke-width="1.3783pt"/>
 <path id="path586" d="m139.74 119.8-6.454-10.458 5.786-2.003" fill="none" stroke="#000" stroke-width="1.3783pt"/>
 <path id="path587" d="m204.05 66.62s6.23 7.7881 6.452 12.238c0.223 4.4505-4.672 7.7885-4.672 7.7885" fill="none" stroke="#000" stroke-width="1.3783pt"/>
 <path id="path588" d="m199.6 76.189s-1.334 4.6728-1.779 7.7883c0 2.2252-7.122 5.1181-7.122 5.1181" fill="none" stroke="#000" stroke-width="1.3783pt"/>
 <path id="path589" d="m284.83 53.047c0.222 0.2225-0.891 6.2305-4.229 9.791" fill="none" stroke="#000" stroke-width="1.3783pt"/>
 <path id="path590" d="m223.86 69.736s9.7742-2.6898 17.088-1.165c7.245 1.4888 16.958 4.0578 16.958 4.0578s11.57-1.5576 15.354-4.2279" fill="none" stroke="#000" stroke-width="1.3783pt"/>
 <path id="path592" d="m234.76 68.178 12.016 2.2253s-8.456 11.349-12.016-2.2253z" fill-rule="evenodd" stroke="#000" stroke-linejoin="round" stroke-width="1.3783pt"/>
 <path id="path593" d="m251 101.78 15.8 30.263 7.565-11.349 4.006 7.788 6.453-11.348 11.126 7.12-4.228-13.796 9.345-0.667s-2.448-6.676-10.904-8.011c2.226-1.7803 10.014-6.8983 10.014-6.8983s-4.449-5.118-11.348-5.3406c2.225-2.4476 5.34-8.4558 5.118-8.4558s-6.899-1.5576-6.899-1.5576 15.8 5.1179 28.038-2.0027" fill="none" stroke="#000" stroke-linecap="round" stroke-linejoin="round" stroke-width="1.7229"/>
 <path id="path594" d="m199.36 122.83 24.274-0.361c7.723-0.115 20.442-10.819 34.684-7.481" fill="none" stroke="#000" stroke-width="1.3783pt"/>
 <path id="path595" d="m202.94 122.25c0-0.223 1.78-4.673 1.78-4.673l1.9836 5.1444 3.1933-0.0834 2.1072-5.1575 1.7301 5.1769h3.1729l1.9573-5.7483 2.9571 5.4428 2.5111 0.12743 1.9776-6.6295 4.0772 4.7487 1.4806-0.57339 1.2699-6.6313 4.0277 4.6378 1.1554-0.67754 1.8676-6.5354 3.3459 4.8596 1.6845-0.54918 1.5632-5.4927 3.1098 5.0477" fill="none" stroke="#000" stroke-linejoin="round" stroke-width="1.3783pt"/>
 <path id="path596" d="m304.19 73.741s-12.463-0.4451-11.573-5.3405c0.892-5.563 13.13-9.5684 13.13-9.5684s16.243-10.458 18.691-14.019" fill="none" stroke="#000" stroke-width="1.3783pt"/>
 <path id="path597" d="m307.08 52.602s4.006-4.0053 10.682-2.0026" fill="none" stroke="#000" stroke-width="1.3783pt"/>
 <path id="path598" d="m207.61 278.68s-1.557 7.788 9.346 23.365c-3.115 17.356 13.195 30.996 19.649 33.221" fill="none" stroke="#000" stroke-width="1.3783pt"/>
 <path id="path599" d="m151.92 247.55c-12.238 6.899 6.964 50.494 65.041 54.722" fill="none" stroke="#000" stroke-width="1.3783pt"/>
 <path id="path600" d="m198.44 280.79s4.052 12.803 0.714 18.812" fill="none" stroke="#000" stroke-width="1.3783pt"/>
 <path id="path601" d="m181.73 276.2s-4.829 9.382-5.942 13.832" fill="none" stroke="#000" stroke-width="1.3783pt"/>
 <path id="path602" d="m164.28 264.53s-3.615 7.703-8.066 9.929" fill="none" stroke="#000" stroke-width="1.3783pt"/>
 <path id="path603" d="m370.28 206.36s15.576-0.222 31.153-42.501c15.354-57.855 137.07-122.39 139.52-134.4" fill="none" stroke="#000" stroke-width="1.3783pt"/>
 <path id="path604" d="m414.62 138.14c22.867-12.693 93.476-38.575 140.57-57.561" fill="none" stroke="#000" stroke-linecap="round" stroke-width="1.3783pt"/>
 <path id="path605" d="m651.73 42.86s-216.19 101.02-219.34 106.37c36.505-11.016 191.33-36.82 195.11-34.617-9.126 2.203-197 45.315-205.81 55.701 46.889-1.574 145.08 15.105 160.49 31.154-33.358-7.552-133.12-22.343-163.64-15.735 22.344 5.351 107.94 60.737 107.94 69.548-12.902-12.272-115.81-54.757-119.9-50.665 23.6 14.161 56.96 66.714 56.958 79.617-6.923-11.014-66.4-74.898-69.861-70.807 6.294 8.813 18.766 84.222 12.39 87.717 0-9.126-23.09-75.129-24.978-77.017-4.721 1.258-34.152 80.528-28.321 87.899-3.776-26.433 0.628-81.604 7.866-79.402-12.901 1.888-54.078 56.18-49.673 64.677 1.259-13.532 3.1-22.507 26.386-67.509-25.805 1.572-79.302 35.246-88.43 47.204 7.239-21.398 52.555-57.59 72.381-60.107" fill="none" stroke="#000" stroke-linejoin="round" stroke-width="1.3783pt"/>
 <path id="path606" d="m249.28 123.21 12.975 0.161" fill="none" stroke="#000" stroke-width="1.3783pt"/>
 <path id="path607" d="m198.02 99.519s8.722 3.3378 26.812-10.984" fill="none" stroke="#000" stroke-width="1.3783pt"/>
 <path id="path608" d="m256.28 264.06c-5.168-6.676 3.876-109.19 23.044-135.89-6.676 48.241 15.506 97.558 21.105 97.343" fill="none" stroke="#000" stroke-width="1.3783pt"/>
 <path id="path609" d="m253.26 133.12s9.046 9.907 19.384 8.184" fill="none" stroke="#000" stroke-width="1.3783pt"/>
 <path id="path610" d="m243.14 155.73s4.522 7.753 21.751 9.045" fill="none" stroke="#000" stroke-width="1.3783pt"/>
 <path id="path611" d="m233.19 176.12s11.679 14.283 27.4 12.13" fill="none" stroke="#000" stroke-width="1.3783pt"/>
 <path id="path612" d="m222.68 200.52s3.229 10.553 34.243 11.199" fill="none" stroke="#000" stroke-width="1.3783pt"/>
 <path id="path613" d="m213.64 230.24s14.43 12.92 41.566 8.829" fill="none" stroke="#000" stroke-width="1.3783pt"/>
 <path id="path614" d="m215.15 267.5s18.52 10.337 41.349-3.661" fill="none" stroke="#000" stroke-width="1.3783pt"/>
 <path id="path615" d="m528.5 227.01s-12.922 10.984-0.862 28.643c-40.058-0.645-61.592 17.875-63.315 30.365-51.041-3.66-41.78 11.416-58.364 16.368-22.182-18.521-54.702-8.183-52.548 10.337-14.861-20.89-37.688-10.767-40.487-5.599-2.8 5.169-1.723-25.628-1.723-25.628s-14.86 6.677-25.199 18.952c0.217-8.183 0-21.536 0-25.843-12.418 2.512-24.407 2.654-37.257 2.369" fill="none" stroke="#000" stroke-width="1.3783pt"/>
 <path id="path616" d="m259.99 277.09c-0.216 0-21.372 33.268 11.794 42.098" fill="none" stroke="#000" stroke-width="1.3783pt"/>
 <path id="path617" d="m310.77 296.79s-5.385 2.584-7.323 2.153c-6.461 1.508-5.17 16.584 3.014 15.722 2.799-3.23 5.815-7.753 5.815-7.753" fill="none" stroke="#000" stroke-width="1.3783pt"/>
 <path id="path618" d="m299.14 305.84s-2.368 3.232-6.03-0.215c-1.939-3.445-8.829 15.507 3.231 16.152 2.153-5.6 8.83-7.107 8.83-7.107" fill="none" stroke="#000" stroke-width="1.3783pt"/>
 <path id="path619" d="m289.23 312.94c-9.476-0.646-14.644 20.245 3.662 7.11" fill="none" stroke="#000" stroke-width="1.3783pt"/>
 <path id="path620" d="m282.55 315.96s-10.553-8.184-10.121 3.23c-0.217 7.106 3.229 8.829 3.229 8.829 0.43 5.169 4.954 12.49 8.614 5.815 1.508-6.461-1.076-9.261-1.076-9.261" fill="none" stroke="#000" stroke-width="1.3783pt"/>
 <path id="path621" d="m227.21 388.32c-0.215 0 1.723 14.215 11.63 3.446 6.891-14.428 28.643-55.132 33.597-69.131" fill="none" stroke="#000" stroke-width="1.3783pt"/>
 <path id="path622" d="m257.36 311.44s-15.291 4.307-9.476 22.397c8.829 7.108 17.444 6.03 17.444 6.03" fill="none" stroke="#000" stroke-width="1.3783pt"/>
 <path id="path623" d="m246.16 348.05s10.337 4.522 13.783 2.799" fill="none" stroke="#000" stroke-width="1.3783pt"/>
 <path id="path624" d="m238.3 365.78s4.624 8.114 11.086 5.313" fill="none" stroke="#000" stroke-width="1.3783pt"/>
 <path id="path625" d="m320.46 301.96s1.291 21.751-5.169 29.504c-6.462 7.753 1.513 23.856 1.513 23.856" fill="none" stroke="#000" stroke-width="1.3783pt"/>
 <path id="path626" d="m336.83 300.88c0.215 0.43 4.091 34.673-4.524 44.364" fill="none" stroke="#000" stroke-width="1.3783pt"/>
 <path id="path627" d="m369.78 293.99s12.636 24.449-0.071 36.509" fill="none" stroke="#000" stroke-width="1.3783pt"/>
 <path id="path628" d="m405.96 301.53s-7.323 21.753-17.66 29.074" fill="none" stroke="#000" stroke-width="1.3783pt"/>
 <path id="path629" d="m441.92 302.39s-34.028 58.148 28.858 58.148" fill="none" stroke="#000" stroke-width="1.3783pt"/>
 <path id="path630" d="m395.62 323.06c0-0.215 34.845 0.097 37.213 6.557" fill="none" stroke="#000" stroke-width="1.3783pt"/>
 <path id="path631" d="m407.03 359.25c0.431-0.432 24.982-2.801 29.505-11.631" fill="none" stroke="#000" stroke-width="1.3783pt"/>
 <path id="path632" d="m436.56 372.46c0.216 0 15.05-8.905 12.036-15.152" fill="none" stroke="#000" stroke-width="1.3783pt"/>
 <path id="path633" d="m435.25 285.81c1.722 22.613-26.059 35.535-37.043 33.382" fill="none" stroke="#000" stroke-width="1.3783pt"/>
 <path id="path634" d="m433.09 299.37s19.383 9.476 35.964-5.815" fill="none" stroke="#000" stroke-width="1.3783pt"/>
 <path id="path635" d="m464.54 286.24s7.323 13.136 16.152 12.275c11.629-3.446 15.936 3.661 15.936 3.661" fill="none" stroke="#000" stroke-width="1.3783pt"/>
 <path id="path636" d="m513.42 256.09s-0.862 32.735 45.225 39.41c51.472 14.215 75.807 6.677 78.823 64.394-1.938 21.967-4.668 46.778-20.604 37.301" fill="none" stroke="#000" stroke-width="1.3783pt"/>
 <path id="path637" d="m622.61 380.56s7.607 6.391 12.776-2.007" fill="none" stroke="#000" stroke-width="1.3783pt"/>
 <path id="path638" d="m623.62 363.63s9.399 1.697 13.706-7.347" fill="none" stroke="#000" stroke-width="1.3783pt"/>
 <path id="path639" d="m620.98 341.69s10.167 2.534 13.397-4.143" fill="none" stroke="#000" stroke-width="1.3783pt"/>
 <path id="path640" d="m621.32 314.88s-7.727 15.126-10.526 16.634" fill="none" stroke="#000" stroke-width="1.3783pt"/>
 <path id="path641" d="m601.29 305.19s0.432 16.151-6.46 22.612" fill="none" stroke="#000" stroke-width="1.3783pt"/>
 <path id="path642" d="m579.54 301.31s-0.215 13.353-11.199 22.613" fill="none" stroke="#000" stroke-width="1.3783pt"/>
 <path id="path643" d="m539.05 319.83c0.215-0.216 17.659-19.383 13.137-25.198" fill="none" stroke="#000" stroke-width="1.3783pt"/>
 <path id="path644" d="m533.24 286.88s-2.299 18.453-20.82 21.252" fill="none" stroke="#000" stroke-width="1.3783pt"/>
 <path id="path645" d="m254.87 250.98s35.657-21.381 37.595-37.102" fill="none" stroke="#000" stroke-width="1.3783pt"/>
 <path id="path646" d="m256.06 232.4c0-0.215 22.33-5.693 31.591-30.244" fill="none" stroke="#000" stroke-width="1.3783pt"/>
 <path id="path647" d="m256.71 218.83c1.94 0.861 26.367-16.732 27.014-29.653" fill="none" stroke="#000" stroke-width="1.3783pt"/>
 <path id="path648" d="m258.22 203.11c7.107-1.938 20.183-17.753 22.767-26.152" fill="none" stroke="#000" stroke-width="1.3783pt"/>
 <path id="path649" d="m261.45 186.09s10.122-7.107 17.875-17.875" fill="none" stroke="#000" stroke-width="1.3783pt"/>
 <path id="path650" d="m265.37 165.91c0.215 5.815 9.437-2.048 13.098-7.002" fill="none" stroke="#000" stroke-width="1.3783pt"/>
 <path id="path651" d="m285.35 227.66 4.308 5.383" fill="none" stroke="#000" stroke-width="1.3783pt"/>
 <path id="path652" d="m276.25 236.05 2.862 4.534" fill="none" stroke="#000" stroke-width="1.3783pt"/>
 <path id="path653" d="m266.4 244.24c0 0.215 3.445 4.954 3.445 4.954" fill="none" stroke="#000" stroke-width="1.3783pt"/>
 <path id="path654" d="m260.37 247.69s0.215 6.891 3.661 7.321" fill="none" stroke="#000" stroke-width="1.3783pt"/>
 <path id="path655" d="m261.88 230.24s3.877 13.137 7.323 10.982" fill="none" stroke="#000" stroke-width="1.3783pt"/>
 <path id="path656" d="m271.79 224c0.215 0.432 4.307 12.277 4.307 12.277" fill="none" stroke="#000" stroke-width="1.3783pt"/>
 <path id="path657" d="m280.4 216.03 5.168 10.338" fill="none" stroke="#000" stroke-width="1.3783pt"/>
 <path id="path658" d="m274.58 206.12c0.216 0.215 5.606 7.974 7.112 6.897" fill="none" stroke="#000" stroke-width="1.3783pt"/>
 <path id="path659" d="m266.83 213.23s3.015 11.845 5.383 10.767" fill="none" stroke="#000" stroke-width="1.3783pt"/>
 <path id="path660" d="m256.54 222.12 5.556 8.339" fill="none" stroke="#000" stroke-width="1.3783pt"/>
 <path id="path661" d="m264.68 199.23s1.938 12.491 3.66 12.061" fill="none" stroke="#000" stroke-width="1.3783pt"/>
 <path id="path662" d="m271.88 192.11c0 0.215 5.501 10.565 5.932 10.565" fill="none" stroke="#000" stroke-width="1.3783pt"/>
 <path id="path663" d="m260.8 190.62c0.215 0 6.031 6.677 6.031 6.677" fill="none" stroke="#000" stroke-width="1.3783pt"/>
 <path id="path664" d="m269.42 180.28c0.215 0.216 4.954 8.184 4.954 8.184" fill="none" stroke="#000" stroke-width="1.3783pt"/>
 <path id="path665" d="m271.79 165.85s0 9.259 1.938 9.476" fill="none" stroke="#000" stroke-width="1.3783pt"/>
 <path id="path666" d="m267.26 158.74 4.737 6.891" fill="none" stroke="#000" stroke-width="1.3783pt"/>
</svg>
