<?xml version="1.0" encoding="UTF-8"?>
<!-- Created with Inkscape (http://www.inkscape.org/) -->
<svg id="svg6354" width="314.39" height="436.36" version="1.1" xmlns="http://www.w3.org/2000/svg" xmlns:cc="http://creativecommons.org/ns#" xmlns:dc="http://purl.org/dc/elements/1.1/" xmlns:rdf="http://www.w3.org/1999/02/22-rdf-syntax-ns#">
 <defs id="defs6356">
  <clipPath id="clipPath4536-2-4">
   <path id="path4538-5-0" d="m0 595.28h841.89v-595.28h-841.89v595.28z"/>
  </clipPath>
 </defs>
 <metadata id="metadata6359">
  <rdf:RDF>
   <cc:Work rdf:about="">
    <dc:format>image/svg+xml</dc:format>
    <dc:type rdf:resource="http://purl.org/dc/dcmitype/StillImage"/>
    <dc:title/>
   </cc:Work>
  </rdf:RDF>
 </metadata>
 <g id="layer1" transform="translate(-207.24 -369.42)">
  <g id="g5447" transform="matrix(2 0 0 2 -1303.9 -22.433)">
   <g id="g4530" transform="matrix(1.25 0 0 -1.25 727.68 593.73)">
    <g id="g4532">
     <g id="g4534" clip-path="url(#clipPath4536-2-4)">
      <g id="g4556" transform="translate(139.88 204.4)">
       <path id="path5258" d="m-0.202 68.123 0.291-68c-1.977-40.266-29.103-60.322-55.316-60.322s-53.338 20.056-55.316 60.322l0.291 68z" fill="#0064ae" fill-rule="evenodd" stroke="#000"/>
      </g>
      <g id="g4564" transform="translate(58.001 247.46)">
       <path id="path4566" d="m0 0c-2.964 1.441-7.614-0.951-10.713 0.244 0.978-4.077 6.825-3.207 8.565-2.99l2.148 2.746z" fill="#ffd300" fill-rule="evenodd" stroke="#000"/>
      </g>
      <g id="g4594" transform="translate(76.92 255.47)">
       <path id="path4596" d="m47.038-46.085c3.0435-2.7631 7.4009 0.13735 8.3313 1.8826-0.787-0.162-1.169-0.191-2.148 0.027 1.415 0.951 3.236 3.208 2.801 4.814-2.882-2.394-5.982-3.888-11.747-0.191-8.076 5.14-16.316 1.714-23.929 2.202-0.299 0.436 0.054 1.279 0.109 1.823-1.768 0.38-3.562-0.327-4.704-0.3-0.027 0.789 0.435 1.442 0.68 2.04-1.279 0.3-6.01-1.224-7.288-1.74 0.027 0.626 0.489 1.521 1.142 2.881-2.801 0.328-8.538-3.724-8.81 0.463 0.979 0.108 2.229-0.436 3.453 0.435-0.407 1.413-0.979 2.202-0.544 3.29 1.332 0.108 2.502-0.38 4.595 1.359-1.794 1.795-2.718 2.476-2.202 4.325 0.843 0.379 2.61-0.517 4.459 1.63-2.393 1.36-3.371 2.503-3.534 3.807 2.012 0.301 4.106 2.066 4.459 3.291-0.979 0.163-2.039-0.082-3.997 1.414 1.713 1.496 2.801 3.263 3.018 4.242-1.196-0.218-3.807-0.707-4.024 0.055 0.598 0.598 1.028 1.049 1.246 2 2.284 0.055 16.592-12.606 22.656-15.025 7.179-2.883 14.928-2.176 21.672 3.399 2.256 1.875 3.644 4.513 6.906 5.709-3.561 3.564-10.848-2.501-13.216-4.866-3.561-3.563-5.6 1.713-1.657 3.29 5.275 2.147 7.993 5.656 7.505 8.239-0.457 0.1445-0.83 0.0235-1.332-0.027 0.245 1.333 0.516 2.882 1.794 4.134l7.369 7.177c-12.046 3.427-9.897-9.816-16.669-9.407-3.97 4.16 5.738 5.628 3.835 12.59-5.548 0.788-7.098-8.375-11.829-10.66-5.357-2.584-6.119 4.16-2.991 7.369 1.414 1.413 3.535 3.508 6.743 4.379-8.212 3.18-14.547-9.383-19.143-9.518 0.353 1.387 3.154 7.939 6.145 9.653-6.771 0.952-8.926-6.73-12.127-9.246-0.218 1.66 0.353 6.582 5.247 10.904-7.178 0-7.151-5.682-10.958-9.517-0.00194 0.18854-0.00389 0.37708-0.00583 0.56563l-1.5383 0.36007c-3.1614 2.247-3.8989 5.3754-3.1869 8.4833-4.0656-1.373-3.0504-6.7225-1.7532-9.3417l-0.14791-0.068301c-3.997 2.312-4.4619 4.923-5.4959 8.322-3.263-2.583-2.474-9.055 3.426-10.442l0.348-0.121c-8.103 2.665-14.324-0.477-19.681-1.238-3.97-0.354-7.342 1.142-7.342-4.052 0.408-0.951 5.439-0.951 5.357-2.53 0.489-2.093-3.589-2.854-2.501-3.914 1.848-2.449 5.274-0.109 7.722-0.816 2.203-0.952 1.795-1.93 5.248-2.149-9.191-0.543-9.87-9.653-16.723-9.898 1.196-1.903 2.665-2.121 3.889-1.929-1.36-2.257-4.488-4.896-7.424-4.896 1.006-1.006 1.849-1.359 2.447-1.713-1.06-1.659-1.903-4.323-1.903-7.341 0.707 0 1.522 0.352 1.931 0.625-0.925-1.712-0.816-4.188-0.816-5.548 0.707 0 2.257 1.252 3.399 2.123-0.897-2.394-0.789-6.718 0.598-9.764-1.224-0.815-10.578-0.978-13.95-3.044-1.686-1.034-1.794-2.747-1.359-5.005 0.952-4.759 3.834-4.541 8.973-16.858 1.577-3.781 4.432-4.678 7.941-5.058 1.903-0.218 2.882-0.164 3.969 0.081 0.245 1.224-2.828 5.603-5.629 6.172 0.816 0.219 1.85 0.246 2.394 1.225-1.605 1.795-6.336 1.713-6.88 5.275-0.544 2.773-1.387 6.064-2.719 8.62 4.486-2.258 14.601-2.447 16.261-1.034 1.849-3.1 0.598-4.404 0.978-7.56 1.115-4.866 2.692-2.746 2.203-18.164-0.055-2.663-1.985-3.725-3.127-5.737-1.305-2.311-1.877-4.485-2.583-6.064 5.247-1.55 7.94 1.061 9.87 5.656 1.115-1.306 2.122-2.149 2.992-2.42 1.903 3.318-1.822 8.757-1.741 15.038 0.082 4.867 2.039 11.746 2.883 16.532 1.794-0.299 7.804 0.517 10.523 1.442 2.393 0.842 4.732 2.228 6.771 3.262 0.244-1.196 0.652-2.474 1.196-3.861 1.904-6.879 13.433-7.178 7.098-16.07-2.23-3.127-5.058-7.533-10.605-11.232-1.088-0.76-4.406-6.117-4.406-9.843 3.508 0 7.832 2.964 8.865 6.309 0.217-1.359 1.333-2.583 2.692-3.126 0.707 7.531 7.043 14.52 12.861 19.632 0.98 0.952 1.605 1.469 2.584 2.12 0.625 0.437 1.142 5.63 0.789 5.983-0.789 0.925-0.953 2.094-0.354 2.502 1.551-0.897 2.502-1.468 3.699-2.012 4.65-2.202 5.602-6.717 4.704-8.784-2.474-5.057-6.989-10.468-12.183-13.432-2.284-1.577-3.752-5.329-4.703-8.893 5.492-0.433 9.082 3.971 10.958 7.126 0.272-1.959 1.06-2.693 1.768-3.019 1.332 3.915 4.758 10.741 9.026 14.927 2.177 1.958 3.781 2.422 3.781 5.114 0 1.877 0.706 3.426 0.76 4.84-4.757 1.522-4.594 3.317-4.349 6.933 0.34675 5.1373 3.8642 12.176 0.61365 19.256z" fill="#ffd300" fill-rule="evenodd" stroke="#000"/>
      </g>
      <g id="g4610" transform="translate(96.252 250.63)">
       <path id="path4612" transform="matrix(.4 0 0 -.4 -73.656 70.612)" d="m184.12 173.97c0.4225-4.505 1.565-7.2175 2.875-10.312l-2-1.625c-1.305 3.08-3.2125 6.665-3.5 13.812zm63.094 12.811c5.5668-2.5656 10.992-5.5882 16.562-7.2482l-0.875-2.125c-5.6025 1.67-10.538 4.6912-16.281 6.9062zm-21.344-3.1856c3.9525-4.525 7.4625-7.5925 11.25-9.8125l2.1875-1.2812-2.3438-0.96875c-11.053-4.5042-17.021-2.6718-26 8.1562l1.0938 2.5312c7.9369-9.7586 12.985-12.205 21.656-9.25v5e-5c-3.5 2.3925-7.3062 5.105-13.404 13.58z"/>
      </g>
      <g id="g4606" transform="translate(107.14 248.77)">
       <path id="path4608" transform="matrix(.4 0 0 -.4 -84.838 69.476)" d="m183.53 167.44c-1.8075 13.8 18.162 25.215 28.562 6.25-9.0425-3.7375-19.115-3.9375-28.562-6.25zm40.812 9.375c-13.12 15.365-3.9588 24.681 5.2188 22.031 6.46-2.2425 9.7838-16.93 18.281-20.875-9.38 2.38-16.972 0.40875-23.5-1.1562z" fill="#0064ae" fill-rule="evenodd" stroke="#000" stroke-width="2.5"/>
      </g>
      <g id="g4081" transform="translate(0 -3)">
       <g id="g4132" transform="translate(-.11535)">
        <g id="g4572" transform="translate(34.042 306.23)">
         <path id="path4574" d="m0 0c3.957 0 7.184-3.227 7.184-7.184s-3.227-7.184-7.184-7.184-7.185 3.227-7.185 7.184 3.228 7.184 7.185 7.184" fill="#fff" stroke="#000"/>
        </g>
        <g id="g4634" transform="translate(48.685 306.4)">
         <path id="path4636" d="m0 0c3.957 0 7.184-3.227 7.184-7.184s-3.227-7.186-7.184-7.186-7.185 3.229-7.185 7.186 3.228 7.184 7.185 7.184" fill="#fff" stroke="#000"/>
        </g>
        <g id="g4642" transform="translate(63.328 306.56)">
         <path id="path4644" d="m0 0c3.957 0 7.185-3.227 7.185-7.184s-3.228-7.185-7.185-7.185-7.185 3.228-7.185 7.185 3.228 7.184 7.185 7.184" fill="#fff" stroke="#000"/>
        </g>
        <g id="g4650" transform="translate(77.971 306.56)">
         <path id="path4652" d="m0 0c3.957 0 7.185-3.227 7.185-7.184s-3.228-7.185-7.185-7.185-7.185 3.228-7.185 7.185 3.228 7.184 7.185 7.184" fill="#fff" stroke="#000"/>
        </g>
        <g id="g4658" transform="translate(92.613 306.56)">
         <path id="path4660" d="m0 0c3.957 0 7.185-3.227 7.185-7.184s-3.228-7.185-7.185-7.185-7.185 3.228-7.185 7.185 3.228 7.184 7.185 7.184" fill="#fff" stroke="#000"/>
        </g>
        <g id="g4666" transform="translate(107.26 306.73)">
         <path id="path4668" d="m0 0c3.957 0 7.184-3.227 7.184-7.184s-3.227-7.186-7.184-7.186-7.185 3.229-7.185 7.186 3.228 7.184 7.185 7.184" fill="#fff" stroke="#000"/>
        </g>
        <g id="g4674" transform="translate(121.9 306.73)">
         <path id="path4676" d="m0 0c3.957 0 7.184-3.227 7.184-7.184s-3.227-7.186-7.184-7.186-7.185 3.229-7.185 7.186 3.228 7.184 7.185 7.184" fill="#fff" stroke="#000"/>
        </g>
        <g id="g4682" transform="translate(136.54 306.56)">
         <path id="path4684" d="m0 0c3.957 0 7.184-3.227 7.184-7.184s-3.227-7.185-7.184-7.185-7.185 3.228-7.185 7.185 3.228 7.184 7.185 7.184" fill="#fff" stroke="#000"/>
        </g>
        <g id="g4626" transform="translate(30.1 320.73)">
         <path id="path4628" d="m0 0c3.957 0 7.184-3.227 7.184-7.184s-3.227-7.184-7.184-7.184-7.185 3.227-7.185 7.184 3.228 7.184 7.185 7.184" fill="#fff" stroke="#000"/>
        </g>
        <g id="g4690" transform="translate(140.49 320.75)">
         <path id="path4692" d="m0 0c3.957 0 7.184-3.227 7.184-7.184s-3.227-7.185-7.184-7.185-7.185 3.228-7.185 7.185 3.228 7.184 7.185 7.184" fill="#fff" stroke="#000"/>
        </g>
        <g id="g4698" transform="translate(85.292 319.73)">
         <path id="path4700" d="m0 0c3.957 0 7.184-3.227 7.184-7.184s-3.227-7.185-7.184-7.185-7.185 3.228-7.185 7.185 3.228 7.184 7.185 7.184" fill="#fff" stroke="#000"/>
        </g>
       </g>
       <g id="g4156">
        <g id="g4175">
         <g id="g4544" transform="translate(31.17 288.98)">
          <path id="path4546" d="m0 0c-2.637 0.027-2.622 2.773 0.025 2.773l108.17-0.02c2.612 0.026 2.631-2.746 0-2.746v-10.035c2.478 7e-3 2.462-3.199 0-3.207l-108.17 8e-3c-2.638 0-2.655 3.188 9e-3 3.197z" fill="#ffd300" fill-rule="evenodd" stroke="#000"/>
         </g>
         <path id="path4592" d="m139.28 288.5h-108.07v1h108.07v-1zm-108.17-10.046v1l108.31 8e-3v-1l-108.31-8e-3z" fill="#231f20"/>
        </g>
        <g id="g4192" transform="translate(-.017095)">
         <g id="g4584" transform="translate(23.519 283.85)">
          <path id="path4586" d="M 0,0 7.623,4.918 15.472,-0.032 7.623,-4.72 0,0 z" fill="#f33" stroke="#000"/>
         </g>
         <g id="g4792" transform="translate(77.55 283.81)">
          <path id="path4794" d="M 0,0 7.732,4.966 15.472,-0.011 7.761,-4.698 0,0 z" fill="#f33" stroke="#000"/>
         </g>
         <g id="g4800" transform="translate(131.58 283.84)">
          <path id="path4802" d="M 0,0 7.726,4.921 15.473,-0.029 7.723,-4.717 0,0 z" fill="#f33" stroke="#000"/>
         </g>
         <g id="g4808" transform="translate(112.3 287.75)">
          <path id="path4810" d="m0 0c4.028 0 7.314-1.74 7.314-3.875 0-2.136-3.286-3.734-7.314-3.734-4.029 0-7.314 1.598-7.314 3.734 0 2.177 3.206 3.875 7.314 3.875" fill="#0064ae" stroke="#000"/>
         </g>
         <g id="g4816" transform="translate(58.27 287.76)">
          <path id="path4818" d="m0 0c4.029 0 7.315-1.74 7.315-3.875 0-2.136-3.269-3.761-7.298-3.761-4.028 0-7.331 1.625-7.331 3.761 0 2.177 3.207 3.875 7.314 3.875" fill="#0064ae" stroke="#000"/>
         </g>
         <g id="g4220" transform="translate(125.6 286.73)" fill="#fff" stroke="#000">
          <path id="path4218" d="m-0.0043 1.0707c-0.92 0-1.6625-0.7425-1.6625-1.6625 0-0.921 0.7425-1.675 1.6625-1.675s1.675 0.754 1.675 1.675c0 0.92-0.755 1.6625-1.675 1.6625z"/>
          <path id="path4210" d="m0.0082-3.3043c-0.919 0-1.675-0.755-1.675-1.675s0.756-1.6625 1.675-1.6625c0.921 0 1.6625 0.7425 1.6625 1.6625s-0.7415 1.675-1.6625 1.675z"/>
         </g>
         <g id="g4228" transform="translate(126 286.87)" fill="#fff" stroke="#000">
          <path id="path4216" d="m-54.429 0.9332c-0.92 0-1.675-0.7425-1.675-1.6625s0.755-1.675 1.675-1.675 1.6625 0.755 1.6625 1.675-0.7425 1.6625-1.6625 1.6625z"/>
          <path id="path4208" d="m-54.442-3.4418c-0.92 0-1.6625-0.755-1.6625-1.675s0.7425-1.6625 1.6625-1.6625c0.919 0 1.675 0.7425 1.675 1.6625s-0.756 1.675-1.675 1.675z"/>
         </g>
         <g id="g4224" transform="translate(125.03 286.87)" fill="#fff" stroke="#000">
          <path id="path4214" d="m-26.029 0.9332c-0.92 0-1.6625-0.7425-1.6625-1.6625s0.7425-1.675 1.6625-1.675c0.921 0 1.675 0.755 1.675 1.675s-0.754 1.6625-1.675 1.6625z"/>
          <path id="path4206" d="m-26.017-3.4418c-0.921 0-1.675-0.755-1.675-1.675s0.754-1.6625 1.675-1.6625c0.919 0 1.6625 0.7425 1.6625 1.6625s-0.7435 1.675-1.6625 1.675z"/>
         </g>
         <g id="g4232" transform="translate(125.48 286.98)" fill="#fff" stroke="#000">
          <path id="path4212" d="m-80.504 0.8207c-0.92 0-1.675-0.7425-1.675-1.6625s0.755-1.675 1.675-1.675 1.6625 0.755 1.6625 1.675-0.7425 1.6625-1.6625 1.6625z"/>
          <path id="path3299" d="m-80.517-3.5543c-0.92 0-1.6625-0.7415-1.6625-1.6625 0-0.92 0.7425-1.675 1.6625-1.675s1.675 0.755 1.675 1.675c0 0.921-0.755 1.6625-1.675 1.6625z"/>
         </g>
        </g>
       </g>
      </g>
      <path id="path5081" transform="matrix(.4 0 0 -.4 22.3 318.25)" d="m150.34 148c-3.0767 0.0848-6.1208 0.59402-10.344 2.4375-3.0994 1.8306-4.3062 3.0712-5.2188 4.5938l1.3438 3c1.1291-1.6764 3.1112-4.1634 5.8438-5.5625 4.1286-1.6934 8.8002-2.2555 12.5-2zm20.031 6.375c-3.6249 3.5389-9.4832 6.4456-15.469 4.4688 2.205-2.2275 3.4438-4.5588 3.7188-6.9688l-2.375-1c-1.0827 4.9475-4.9992 8.5064-10.75 11.5l-0.6875 0.375 0.0312 0.8125c0.18 3.6525 2.1462 5.5612 3.7812 6.5312 2.4525 1.4575 5.54 1.6838 8 1.1562l-0.0625 0.78125 2.5 0.1875 0.75-4.9688-2.1562 1.0312c-1.95 0.935-5.4 1.0875-7.75-0.3125-1.405-0.835-2.24-2.0925-2.5-3.75 2.0875-1.13 3.8962-2.305 5.4062-3.5 7.5122 3.2749 14.881-0.2621 19.312-4.5938z"/>
      <path id="path5053" d="m64.25 254.22c-0.15857-0.40932-0.10849-0.91874 0.2875-1.1125-0.15768-0.45219-0.03979-1.0613 0.125-1.575 1.1238-0.0534 2.4022 0.22744 2.375 1.4zm1.3647-12.95 1.7103 0.0928s-0.4773-0.92808-1.5645-1.0872"/>
      <path id="path4723" transform="matrix(.4 0 0 -.4 22.3 318.25)" d="m218.19 326.16c-25.062-16.361-27.424-23.356-25.125-41.656-2.535 6.485-3.0562 11.791-2.0938 16.594l-1 0.0937c-7.1086 0.59093-15.153 1.2607-24.062 6.3125l2.0312 1.7812c8.138-4.393 15.612-5.0418 22.25-5.5938l1.4062-0.125c2.5325 7.84 9.6538 14.63 24.781 24.562m-142.75-38.125-2.2188 1.1562c5.3606 9.8274 12.265 15.724 21 22.5l2.8438-1.3438c-2.4175-6.555-3.4688-10.276-4.7812-15.094-1.195 4.38-0.375 7.9375 1.375 13-7.685-6.055-13.401-11.404-18.219-20.219zm51.188 15.219c-1.2923 4.8858-1.8205 9.8924-2.6562 14.406l1.125 0.15625c0.36085 0.06 0.88683 0.106 1.4688 0.125 0.73416-4.4176 1.2373-9.5743 0.0625-14.688zm128.26-30.78 2.6356-2.574s-3.7123-5.5685-8.2201-6.8943c0 0 3.1981 4.2105 5.5846 9.4683z"/>
     </g>
    </g>
   </g>
  </g>
 </g>
</svg>
