<?xml version="1.0" encoding="UTF-8"?>
<svg width="346.88" height="401.88" xml:space="preserve" xmlns="http://www.w3.org/2000/svg">
  <path transform="translate(2.5e-6 2.5e-6)" d="m342.84 260.69h-338.81c15.036 80.027 84.883 140.25 169.41 140.25 84.523 0 154.37-60.223 169.41-140.25z"/>
  <path transform="translate(2.5e-6 2.5e-6)" d="m0.9375 0.9375v227.5c0 11.042 1.1294 21.795 3.0938 32.25h338.81c1.9644-10.455 3.0938-21.208 3.0938-32.25v-227.5h-345z" fill="#da291c"/>
  <path transform="translate(2.5e-6 2.5e-6)" d="m1 233.06c0.4908 18.84 3.9808 36.907 10 53.75 8.1162 3.0667 12.287 9.125 24.438 9.125 16.263 0 18.237-10.875 34.5-10.875 16.264 0 18.237 10.875 34.5 10.875 16.263 0 18.237-10.875 34.5-10.875 16.263 0 18.237 10.875 34.5 10.875 16.263 0 18.237-10.875 34.5-10.875 16.263 0 18.237 10.875 34.5 10.875 16.264 0 18.237-10.875 34.5-10.875 16.263 0 18.237 10.875 34.5 10.875 12.151 0 16.321-6.0583 24.438-9.125 6.0192-16.843 9.5092-34.91 10-53.75-16.204 0.0288-18.196 10.875-34.438 10.875-16.263 0-18.237-10.875-34.5-10.875-16.263 0-18.236 10.875-34.5 10.875-16.263 0-18.237-10.875-34.5-10.875-16.263 0-18.237 10.875-34.5 10.875-16.263 0-18.237-10.875-34.5-10.875-16.263 0-18.237 10.875-34.5 10.875-16.263 0-18.236-10.875-34.5-10.875-16.263 0-18.237 10.875-34.5 10.875-16.242 0-18.234-10.846-34.438-10.875z" fill="#fff"/>
  <path transform="matrix(1.25 0 0 1.25 -457.93 471.21)" d="m643.09-376.22v182c0 76.452-61.548 138-138 138s-138-61.548-138-138v-182z" fill="none" stroke="#000" stroke-width="1.5"/>
  <path transform="translate(-.13261 -.1409)" d="m91.875 80.437s-19.513 37.273-25.269 49.629c-5.756 12.356-3.2312 21.996-3.2312 21.996s10.905-1.7536 18.197-14.615c7.2918-12.861 25.678-50.26 25.678-50.26z" fill="#fff" stroke="#000"/>
  <path transform="matrix(1.25 0 0 -1.25 -458.06 471.07)" d="m427.3 273.77c3.3346 5.408 14.42 27.219 14.42 27.219 1.0833 0.28333 2.9002 0.81727 3.925 1.975l-3.775-0.91213-0.875 3.7621c-0.21657-1.475-0.15704-2.95 0.025-4.425 0 0-11.432-21.398-14.331-27.053s-3.3443-6.7216-3.3443-6.7216 0.6206 0.74771 3.9552 6.1558z" style="block-progression:tb;text-indent:0;text-transform:none"/>
  <path transform="translate(-.13261 -.1409)" d="m111.06 40.953s-1.0701 2.25-0.47541 4.9848c0.68078 3.1308 13.975 8.25 13.975 8.25s3.5303 0.03217 5.25-3.75c0 0-5.909-10.655-18.75-9.4848zm-23.558 35.76c-0.39775 3.0494 1.7236 3.8449 3.9775 5.4359 2.2539 1.591 13.126 7.1595 15.247 7.955s5.701-0.53033 5.5685-3.9775c-0.11731-3.05-4.5078-4.5078-4.2426-4.3752 0.26517 0.13258-10.138-7.7286-17.695-8.5241 0 0-2.4575 0.43658-2.8552 3.486z" fill="#ffcd00" stroke="#000"/>
  <path transform="translate(-.13261 -.1409)" d="m116.5 96.644s1.591 23.069 7.4246 30.229c5.8336 7.1595 2.3865 15.042 2.3865 15.042s-11.319 0.75781-19.124 4.2504l-0.0602 1.0265s-8.1227 1.4953-13.185 4.1203l0.1875 0.9375s-8.625 1.6875-12.938 4.3125l-0.1875 1.125s-8.0625 1.5-12.562 6c0.35329 11.828 15.017 35.88 28.875 42.75 0 0 4.6435-0.45697 8.2232-4.3019l0.7955 0.53033s7.292-3.5797 11.667-8.3527l0.7955 0.66291s5.7238-2.6677 10.099-8.5014l0.77275 0.54642s9.4134-5.8336 12.33-10.209c13.121-6.5001 22.504-17.875 22.504-17.875s-1.5-13.5-3.375-34.5-17.312-45.938-17.312-45.938l-23.25 6.5625z" fill="#fff" stroke="#000"/>
  <path transform="translate(-.13261 -.1409)" d="m94.059 151.32c1.7016 14.524 15.023 36.018 24.536 43.455m-13.059 7.3583c-12.451-10.992-21.687-28.096-24.337-45.31m26.018-10.384c1.8742 12.7 10.803 30.453 21.676 40.033" fill="none" stroke="#000"/>
  <g>
    <path transform="translate(-.13261 -.1409)" d="m113.93 45.025c7.6898 2.1213 17.501 16.175 19.092 23.335 0 0 5.4721 1.568 11.259 6.8714 1.0352 0.1139 1.3191 0.38732 1.7341 1.0836 0 0-4.205 6.0602-7.7676 15.998 0 0-13.5 0.75-22.5 4.5 0 0-1.2891-1.3359-0.24609-3.1523-0.17578-2.6602-0.51195-5.7647-0.69141-9.4102 0 0-2.9867 1.125-7.6875-2.0852-3.628-2.4776-12.96-7.784-16.83-9-2.8017-1.2295-2.6713-6.3737 0.35616-9.4471 1.3661-0.7258 2.3332-0.83594 2.3332-0.83594s-0.29422-3.9276 3.5475-6.746c1.6967-0.52023 3.2138-0.43256 3.2138-0.43256 0.06663-1.6117 0.70261-4.2178 3.198-6.7576 1.0537-0.51604 1.6433-0.48041 2.6307-0.49055 0.26357-1.2286 0.9442-2.84 2.727-3.7955 0 0 3.0353-0.35006 5.6306 0.36588z" fill="#fff" stroke="#000"/>
    <path transform="matrix(1.25 0 0 -1.25 -458.06 471.07)" d="m450.74 338.61-0.05-0.8c1.3891-0.15534 3.0279-0.46684 4.375-1.1-1.1377 1.3675-2.6172 1.7259-4.325 1.9zm-4.4-5.7375-0.2125-0.8375c1.9371-0.0568 3.0969-0.28808 4.6625-0.6125-1.3762 1.0094-2.8047 1.2404-4.45 1.45zm-5.8371-5.8928-0.1-0.725c1.6244 3e-3 3.3255-0.0415 4.925-0.6875-1.516 1.3647-2.8382 1.4944-4.825 1.4125zm32.662-4.9322-0.65 0.45s-3.3061-5.056-7.025-7.425c4.3811 1.831 7.675 6.975 7.675 6.975z" style="block-progression:tb;text-indent:0;text-transform:none"/>
    <path transform="translate(-.13261 -.1409)" d="m115.44 93.812s9.75-3.375 21.562-3.75c1.3125-4.6875 3.75-10.5 7.6875-15" fill="none" stroke="#000"/>
  </g>
  <g stroke="#000">
    <path transform="translate(-.13261 -.1409)" d="m120.5 131.88s-1.6875-5.4375 1.5-8.8125c0 0 5.625 6.75 12.188 9.5625 0 0 23.812-12.562 25.688-13.5s3.9375 0 3.9375 2.25c0 0 2.8125-1.3125 5.0625 0.375s1.5 6.5625-1.6875 8.4375c0 0 2.4375 2.0625-0.1875 4.875 0 0 3 15.562 2.625 26.062 0 0-7.125 6.75-17.062 10.125 0 0-0.22518 3.2643-4.3352 3.1317 0 0 0.66291 3.7123-1.9887 5.1707-2.6516 1.4584-5.3033 0.26517-5.3033 0.26517s-1.5969 3.6876-4.3752-0.53033-7.5267-22.204-8.2201-31.024c0 0-6.0988 0.26516-9.9437-1.591-3.8449-1.8562-4.1101-4.3752-3.8449-5.8336 0.26516-1.4584 3.182-1.3258 3.182-1.3258s-1.4934-6.1268 2.7667-7.6375z" fill="#ffcd00"/>
    <path transform="matrix(1.2131 0 0 1.0827 -28.556 -11.593)" d="m134.62 139.25c0 2.4896-1.8104 4.5078-4.0438 4.5078-2.2333 0-4.0438-2.0182-4.0438-4.5078s1.8104-4.5078 4.0438-4.5078c2.2333 0 4.0438 2.0182 4.0438 4.5078z" fill="none" stroke-width=".87255"/>
    <path transform="matrix(1.25 0 0 -1.25 -458.06 471.07)" d="m473.05 271.17c1.5732-0.50423 4.8665-3.175 4.259-6.8539-0.60756-3.6788-3.3977-5.7041-8.4959-5.9874m-6.1967 13.155s4.2 0.6375 6.975-2.2875m-9.075-3.922s0.92574-3.4553 7.725-3.053m7.6308 6.9937s19.728 8.8035 21.744 10.713m2.4395-7.1064s-14.107-3.288-22.698-6.364m0-2.1213c0.21213 0.10606 20.683 3.3941 22.592 4.5608m-20.783-35.801s-3.975 9.225-5.625 14.325-2.7957 11.046-2.7957 11.046m2.8638 0.84853s9.7399-18.468 11.437-22.075m3.3062 2.7706s-8.3792 15.486-12.834 20.683" fill="none" stroke-width=".8"/>
  </g>
  <g>
    <path transform="matrix(1.2085 .05121 -.00456 -1.205 -433.69 434.91)" d="m566.38 313.16s15.001-11.32 8.4597-49.898c0 0 10.042-1.11 19.959-7.4095 0 0 3.6819 40.366-19.281 63.586l-7.1294-1.1759z" fill="#fff" stroke="#000" stroke-width=".82876"/>
    <path transform="matrix(1.2085 .05121 -.00456 -1.205 -433.69 434.91)" d="m581.56 300.16c-3.2062 9.2665-7.1881 12.566-7.1881 12.566s3.0429-4.9501 6.1779-12.874c3.135-7.9236 5.1207-20.028 4.9532-31.896 2.0336 12.93-1.1361 24.092-3.943 32.204z" style="block-progression:tb;text-indent:0;text-transform:none"/>
    <path transform="matrix(.96496 .07214 -.02746 .9636 11.912 -8.3658)" d="m234.36 40.65c2.6516-3.8449 0.26516-7.0269-3.0494-6.8943-3.3146 0.13258-5.0381 2.1213-9.2808 7.1595-4.5958 5.4575-1.7236 9.9437-1.7236 9.9437l19.13 25.829s-2.625 1.9688-4.2188 4.125c0 0-0.0937 1.7812 0.0937 2.8125 0 0 2.8286 3.0549 5.3599 4.8362 0 0 2.1496 0.15533 2.9933-0.31342 0 0 21.499-21.025 24.549-24.207 0 0 0.53033-3.0494-0.13258-4.1101 0 0-4.773-5.3033-7.0269-6.4965 0 0-1.7236 0.13258-4.1101 0.53033l-7.4246 6.4965s-15.777-14.451-16.573-15.38z" fill="#ffcd00" stroke="#000" stroke-width="1.0359"/>
    <g stroke="#000" stroke-width="1.0359">
      <path transform="matrix(.96496 .07214 -.02746 .9636 11.912 -8.3658)" d="m253.72 50.726c-1.0607-3.182-3.4913-3.5355-3.4913-3.5355-0.79549-3.8449-5.3033-3.7123-5.3033-3.7123-1.0607-4.1101-6.0988-2.3865-6.0988-2.3865-0.7955-2.7842-3.5355-2.1655-3.5355-2.1655-4.3752 3.8449-5.3033 9.5459-5.3033 9.5459 0.79549 1.591 2.4086 2.6296 2.4086 2.6296s-0.28726 0.95017-0.28726 1.7457c0 0 1.0828 1.7678 4.7951 1.7678l-0.15468 1.812s1.8783 3.0936 5.5906 1.1049l-0.16463 2.1333s1.1737 1.1354 2.1313 1.6674c2.3865 1.3258 7.292-3.3146 7.292-3.8449s2.1213-6.7617 2.1213-6.7617z" fill="#fff"/>
      <path transform="matrix(.96496 .07214 -.02746 .9636 11.912 -8.3658)" d="m242.34 57.532s2.8505-7.955 7.8887-10.341m-13.325 7.4246c0-0.26516 2.718-9.0156 8.0212-11.137m-12.529 7.6235c0.13258-0.26516 2.3202-8.6842 6.4302-10.01" fill="none"/>
    </g>
    
      <path transform="matrix(.96496 .07214 -.02746 .9636 11.912 -8.3658)" d="m280.97 157.45s-36.217-17.142-64.342-17.892c0 0 7.3532-4.2872 9.375-30.375 2.0218-26.088 9.4235-30.954 9.4235-30.954s4.1774-1.4638 7.9188-2.8876c6.0413-2.299 11.407-8.5401 13.779-13.792 0 0-0.53033-7.1595 0-10.872 0 0-5.6842-1.2447-7.7467 4.0053v3.375s-3.1875 1.3125-5.0625 3.375c0 0-3.5625-0.75-9.1875-1.125-6.3905-10.499-8.9264-5.7108-15-9.375 0 0-8.544 8.799-8.7315 15.361 0 0-1.2685-0.29897-2.3935 0.07603 0 0-16.844 20.723-25.859 51.482-9.0156 30.759-5.8336 44.017-5.8336 44.017 2.1225 3.1837 38.351 29.226 74.237 42.066 8.8347-3.8232 28.823-28.64 29.423-46.487z" fill="#fff" stroke="#000" stroke-width="1.0359"/>
      <path transform="matrix(1.2062 .09018 .03432 -1.2045 -442.91 412.65)" d="m555.09 329.07c-2.8945 0.24268-5.5132-0.16357-7.4084-0.63049-1.8951-0.46692-2.8166-1.7445-2.8166-1.7445s1.2289 0.51028 3.0527 0.96229c1.8238 0.45202 4.3426 0.84577 7.1223 0.61271zm-27.03-70.824c-1.9958-2.3397-3.5329-3.1556-5.5697-4.2013 1.3509 3.7807 4.224 6.0488 8.925 6.9s9.5 5.3 9.5 5.3l0.125 1s-4.0819-4.1835-10.225-5.35-8.4441-4.8759-9.6625-9.4625c3.3345 0.8725 5.4516 2.736 7.2197 5.1013 0.34674-0.0463 2.4116-0.78403 4.4666 1.213-2.3035-1.1992-4.7791-0.5005-4.7791-0.5005z" style="block-progression:tb;text-indent:0;text-transform:none"/>
      <path transform="matrix(.96496 .07214 -.02746 .9636 11.912 -8.3658)" d="m211.39 66.299c1.9957 4.5662 10.633 12.52 24.03 11.935" fill="none" stroke="#000" stroke-width="1.0359"/>
      <path transform="matrix(1.2062 .09018 .03432 -1.2045 -442.91 412.65)" d="m541.84 317.17s1.35-11.7 6.6-17.25m-7.3739-74.158c0.42428 0 12.237-0.42506 23.547 6.5761 11.31 7.0012 22.188 4.7667 22.188 4.7667m-27.915-19.616c0.42426 0 12.842 1.388 18.214 4.6814m-47.276 96.824s4.879 2.3335 8.1671 1.2728m-21.107-27.047s3.4211 4.8067 14.425 5.7806c11.004 0.97389 17.953 5.0157 18.774 7.4776m-2.2917-10.808s-3.6701-5.3082-15.007-8.3662c-11.337-3.058-16.345-4.3754-21.143-9.3338m-1.15-32.75c0.15 0.45 6.8923 13.82 18.692 17.291s14.308 9.1092 14.308 9.1092m47.533-21.039s-7.955 1.6971-28.744-8.061c-20.789-9.7581-36.911-7.6368-36.911-7.6368s-2.3658 12.374 1.3842 21.224c0 0 8.7375-1.2375 14.587 2.0625s11.25 4.95 15.45 4.65m-23.125 60.875s-3.4176-26.374 12.492-42.284c-4.5193-4.4977-10.736-5.2069-22.375-8.3938-11.639-3.1868-14.748-7.799-14.748-7.799s4.4548-8.9095 13.364-10.394m29.168 59.503s-2.184-1.121-9.8641-1.6971c-7.6801-0.57601-17.872-4.1542-17.872-4.1542s1.0778-27.193 15.778-43.393c0 0-7.2395-22.067 1.4579-39.321m-25.326 64.958s1.4871-22.068 13.056-30.159c10.369-0.7409 10.144 4.0591 18.544 3.7591 0 0-2.2434-10.839 1.9992-21.022 4.2426-10.182 8.061-17.89 9.5459-25.809m0.21213 44.689s2.5456-11.031 7.4246-23.759c4.879-12.728 3.4233-23.332 3.4233-23.332m-61.475 32.302c1.3243-1.1871 19.898-4.3024 33.02 1.4956 13.122 5.798 23.653 9.2277 34.471 8.1671 0 0-0.10606-2.9345 3.7123-9.5106 3.8184-6.5761 1.108-20.749 1.108-20.749" fill="none" stroke="#000" stroke-width=".41438"/>
    
  </g>
</svg>
