<svg xmlns="http://www.w3.org/2000/svg" version="1.0" width="550" height="628.57159" id="svg1974">
  <defs id="defs1977">
    <clipPath id="clipPath14909-3" clipPathUnits="userSpaceOnUse">
      <path style="fill:red;stroke:none" d="M516.00059-81.818275V296.39116c0 143.45873-108.68089 252.13962-260.83413 252.13962S-5.6676647 439.84998-5.6676647 296.39116V-81.818275z" id="path14911-8"/>
    </clipPath>
    <clipPath id="clipPath4795" clipPathUnits="userSpaceOnUse">
      <path style="fill:#858c98;fill-opacity:1;stroke:none" d="M336.15805 231.77836c5.73995 15.89525-5.15616 27.89519-5.15616 27.89519s-5.98845 16.74931 3.35228 20.83384c9.34073 4.08452 20.06572-3.19233 21.20335-21.58053 1.13765-18.38821 7.84045-17.33687 18.70167-22.72812 10.86122-5.39125 10.77015-12.93525 10.77015-12.93525s6.76087 5.1879-1.2149 14.50309c-7.97576 9.31519-1.5647 12.86178-1.5647 12.86178-6.27915 1.95456-4.54307 7.10188-1.25079 9.15966 0 0-10.09181 3.77585-1.80669 12.18029 0 0-5.78897.65778-4.56062 6.79189 1.22836 6.13412-7.78442 9.04545-8.75847 5.00732 0 0 4.98894-4.2037 1.38065-8.43035-3.60827-4.22664-7.43593.6752-11.11832 8.931-3.6824 8.2558-13.19902 18.86074-34.18284 12.62905-20.98382-6.23168-42.7713-31.51174-15.75747-69.38222 0 0 3.12212.78051 2.80991 5.4637 0 0 3.43433-3.43434 6.08813-3.59045 0 0 1.87328 2.02939 3.59044 6.55647 0 0 4.52707-4.83929 7.80529-4.83929 0 0 3.90266 2.96601 4.52708 6.24423 0 0 2.79093-5.05447 5.14201-5.5713z" id="path4797"/>
    </clipPath>
    <clipPath id="clipPath4932" clipPathUnits="userSpaceOnUse">
      <path id="path4934" d="M320.21858 157.19107c.86592 1.1114 2.51343-1.16108 3.62722-.096 1.23155 1.11648-1.44015 3.13144.77363 3.5217 2.32969.19752.0658 2.6654.8823 4.02624.85738.26242 1.78273 1.39062.48433 3.15165 3.20884 1.26506.74327 6.0202 2.77828 4.79485 1.40107-1.00202 1.86773-.2579 2.34492.33391.74173 2.93577-1.0183 6.59981 5.42656 8.15118 0 0-1.1504-3.33448.0437-4.81952 3.18706 2.27196 5.11774-.91115 5.11774-.91115s-3.07339-3.05147-2.52774-3.77591c.0126.0109 2.44534.74308 4.67255-2.11949 0 0-3.48741-1.64177-3.60603-3.3971 2.57094-.8943 4.00498-7.30212-.92792-9.20554.80909-3.55284-2.38552-6.60947-7.95929-6.10369-4.51581-8.41411-22.00013-1.42504-18.01465 6.06048 2.35014-1.48136 6.39703-2.00109 6.8844.38839z" style="fill:#f2d477;fill-opacity:1;stroke:none"/>
    </clipPath>
    <clipPath id="clipPath4848" clipPathUnits="userSpaceOnUse">
      <path style="fill:#f5ceb4;fill-opacity:1;stroke:none" d="M295.2131 147.8125c-.37967.0432-.77027.18214-1.21875.5-.61368.43495-2.90338-.16213-2.84376 1.1875.0408 1.72888 2.01645 2.43757 1.5625 5.875-1.52677-.62032-1.08333-.43091-2.59375-.84375-1.29919 2.51656.52182 5.54343-.8125 7-3.18501 7.55663-6.78644 16.90924-6.0625 25.125.32914 3.12679 1.04439 5.58282 1.65625 6 1.81025 1.23426 10.40144 2.09902 14.90626 3.78125 4.50481 1.68224 5.2121.0761 8.51277 3.37944-.1037 1.71669.0436 4.58405 1.71164 5.992.48741 3.76459 1.63283 6.22404 1.59375 9.09731-.0675 4.95947-2.72012 7.75574-5.34375 14.3125-2.62362 6.55676 4.78345 17.29627 12.5 17.96875 7.71654.67249 17.963 1.55661 17.5-13.40625-1.42771-6.20525-2.94956-7.55252-1.40625-12.25 1.17144-3.5656 4.13442-9.68096 5.09375-16.71875 2.83725.34958 5.04907 2.57883 8.65625 3.09375 4.65074.66389 12.40297 3.97423 14.53125 3.75.71936-.0758 2.48322-1.90647 4.21875-4.5l-8-7.90625s-6.05181-3.26546-8.375-3.96875c-4.07386-1.23328-7.42404-5.75676-13.375-6.15625-.90466-1.73105-1.98203-3.17179-3.125-4.375-2.15995-8.52445-.35729-11.24076.34375-14.15625l-4.09375-5.78125-10.53125 12.3125c.96108.61375.21485 3.58994-.3125 5.5-1.57699 2.64708-2.39611 2.27444-5.09375 2.71875-5.58381-2.61432-6.88313-.25113-11.16191-1.15625-2.42713-.51343-9.4375-.59375-9.4375-.59375s.48858-3.19717.40625-6.40625c-.0823-3.20908.9375-9.96875.9375-9.96875.38591-3.54825 2.60056-5.12377 3.71875-7.8125 1.81447-.90648 3.05945-1.22167 3.875-3.34375.81554-2.12207 1.39271-4.51118 1.875-6.21875-1.84432-.92137-2.78087 2.12506-3.15625 1.75-.0286-.0285.16652-2.92779-.5-3.59375-.25088-.25068-1.82432-.12947-2.6875.0937-1.3857.35842-3.46875-1.42762-3.46875-.28125z" id="path4850"/>
    </clipPath>
    <clipPath id="clipPath9481-6" clipPathUnits="userSpaceOnUse">
      <path id="path9483-1" d="M-19.467048 441.85652c2.039 156.552 113.5882 237.8149 249.514008 237.8149 135.9258 0 247.47503-81.2629 249.51399-237.8149z" style="fill:#ff0;stroke:none"/>
    </clipPath>
    <clipPath id="clipPath14909-1" clipPathUnits="userSpaceOnUse">
      <path style="fill:red;stroke:none" d="M516.00059-81.818275V296.39116c0 143.45873-108.68089 252.13962-260.83413 252.13962S-5.6676647 439.84998-5.6676647 296.39116V-81.818275z" id="path14911-9"/>
    </clipPath>
    <clipPath id="clipPath14909" clipPathUnits="userSpaceOnUse">
      <path style="fill:red;stroke:none" d="M516.00059-81.818275V296.39116c0 143.45873-108.68089 252.13962-260.83413 252.13962S-5.6676647 439.84998-5.6676647 296.39116V-81.818275z" id="path14911"/>
    </clipPath>
    <clipPath id="clipPath5284-8-8" clipPathUnits="userSpaceOnUse">
      <path style="fill:#e90000;fill-opacity:1;stroke:none" d="M516.00059-81.818275V296.39116c0 143.45873-108.68089 252.13962-260.83413 252.13962S-5.6676647 461.58607-5.6676647 296.39116V-81.818275z" id="path5286-0-2"/>
    </clipPath>
    <clipPath id="clipPath14932" clipPathUnits="userSpaceOnUse">
      <path style="fill:#d10000;fill-opacity:1;stroke:none" d="M296.44454 263.25046v96.19905c0 36.48929-25.60189 64.1327-61.44454 64.1327-35.84265 0-61.44454-27.64339-61.44454-64.1327v-96.19905z" id="path14934"/>
    </clipPath>
    <clipPath id="clipPath14932-9-7" clipPathUnits="userSpaceOnUse">
      <path style="fill:#d10000;fill-opacity:1;stroke:none" d="M296.44454 263.25046v96.19905c0 36.48929-25.60189 64.1327-61.44454 64.1327-35.84265 0-61.44454-27.64339-61.44454-64.1327v-96.19905z" id="path14934-8-7"/>
    </clipPath>
    <clipPath clipPathUnits="userSpaceOnUse" id="clipPath6491">
      <path d="m177.52196 246.72668-3.3184-2.70657c-2.23246 1.31276-2.80223 2.0525-2.24495 5.86142.55728 3.80893-.80836 3.29017-.028 6.30951.7804 3.01934-1.76502 3.61956-.31668 5.93101.13728-1.58933 1.39253-1.90624 2.36799-4.67852 1.44697.81203-1.16843 3.44426 1.08963 5.51199-.20109-2.47673 2.51207-3.57437 1.23083-6.36621-1.28123-2.79184.20439-2.15888.10347-4.89792-.10092-2.73904-.15088-4.00551 1.11606-4.96471z" id="path6493" style="fill:#16478d;fill-opacity:1"/>
    </clipPath>
    <clipPath id="clipPath9481-6-8" clipPathUnits="userSpaceOnUse">
      <path id="path9483-1-1" d="M-19.467048 441.85652c2.039 156.552 113.5882 237.8149 249.514008 237.8149 135.9258 0 247.47503-81.2629 249.51399-237.8149z" style="fill:#ff0;stroke:none"/>
    </clipPath>
    <clipPath clipPathUnits="userSpaceOnUse" id="clipPath11773">
      <path style="fill:#16478d;fill-opacity:1;stroke:none" d="M356.53257 755.63712v21.74999c0 8.25-6.25 14.5-15 14.5s-15-6.24999-15-14.5v-21.74999z" id="path11775"/>
    </clipPath>
    <clipPath clipPathUnits="userSpaceOnUse" id="clipPath12430">
      <path style="fill:#ffd52b;fill-opacity:1;stroke:none" d="M170 437.36218v86.99999c0 32.99999-25 57.99999-60 57.99999s-60-24.99998-60-57.99999v-86.99999z" id="path12432"/>
    </clipPath>
    <clipPath clipPathUnits="userSpaceOnUse" id="clipPath3584-7">
      <path style="fill:#fff200;fill-opacity:1;fill-rule:nonzero;stroke:none" d="M236.20724-.71875058V122.68441s.71647 96.59684 95.00001 96.59684c94.28352 0 94.99999-96.59684 94.99999-96.59684V-.71875058z" id="path3586-4"/>
    </clipPath>
    <clipPath id="clipPath5063" clipPathUnits="userSpaceOnUse">
      <path id="path5065" d="M-2.8571417 76.647896H777.14286l-180 130.000004 180 130-180 130 180 130H-2.8571417z" style="fill:#000;fill-opacity:1;fill-rule:evenodd;stroke:none"/>
    </clipPath>
    <clipPath id="clipPath4646" clipPathUnits="userSpaceOnUse">
      <path id="path4648" d="M0 0h595.276v841.89H0V0z"/>
    </clipPath>
    <clipPath id="clipPath4646-7" clipPathUnits="userSpaceOnUse">
      <path id="path4648-8" d="M0 0h595.276v841.89H0V0z"/>
    </clipPath>
    <linearGradient id="linearGradient2893">
      <stop id="stop2895" offset="0" style="stop-color:white;stop-opacity:.3137255"/>
      <stop style="stop-color:white;stop-opacity:.25098041" offset=".19" id="stop2897"/>
      <stop id="stop2901" offset=".60000002" style="stop-color:#6b6b6b;stop-opacity:.1254902"/>
      <stop id="stop2899" offset="1" style="stop-color:black;stop-opacity:.1254902"/>
    </linearGradient>
    <style type="text/css" id="style6-8">
      .fil1{fill-rule:nonzero}.str0{stroke:#000;stroke-width:.216}.str3{stroke:#008837;stroke-linecap:round}.str1,.str2,.str3,.str8{stroke-width:.264473}.str1{stroke:#f2aa00;stroke-linecap:round}.str2,.str8{stroke:#fdd9a6}.str2{stroke-linecap:round}.str6,.str7{stroke:#615233;stroke-width:1.05846}.str6{stroke-linecap:round}.str4,.str5{stroke:#615233;stroke-width:1.41732}.str4{stroke-linecap:round}.fil13,.fil19{fill:none}.fil13{fill-rule:nonzero}.fil12{fill:#969594}.fil11{fill:#dededd}.fil9{fill:#fff}.fil17{fill:#008837}.fil6{fill:#0446e4}.fil18{fill:#615233}.fil3{fill:#ed1a24}.fil7{fill:#ed241a}.fil0{fill:#f00000}.fil15{fill:#f2aa00}.fil4{fill:#f3a29a}.fil16{fill:#fdd9a6}.fil14{fill:#ffb70f}.fil2{fill:#ffd90f}.fil8{fill:#e5e5e5}.fil5{fill:#fff}.fil1{fill:#004a8d}.st0{fill:#cc4d21}.st1{fill:#ed6c30}.st2{fill:#fff}.st3{fill:#fcc31b}
    </style>
  </defs>
  <g id="g6537" transform="matrix(-1 0 0 1 550.00002 0)">
    <g id="g4650" transform="matrix(1.214 0 0 -1.214 550.00002 -7.8e-7)">
      <path d="M0 0h-453.046l.248-293.31c0-123.964 101.307-224.457 226.275-224.457S-.248-417.274-.248-293.31" style="fill:#121722;fill-opacity:1;fill-rule:nonzero;stroke:none" id="path4652"/>
    </g>
    <g transform="matrix(1.214 0 0 -1.214 -86.333709 825.31494)" id="g6345">
      <g transform="translate(332.8063 388.5378)" id="g4658">
        <path id="path4660" style="fill:#fff;fill-opacity:1;fill-rule:nonzero;stroke:none" d="M.8.79999602-1.469-43.44l15.634-10.82s1.041 14.446 2.211 14.412c1.169-.034 2.034-17.35 2.034-17.35l11.551-7.993s1.049 15.776 2.218 15.742c1.169-.035 2.027-18.681 2.027-18.681l11.517-7.97s1.027 11.813 2.197 11.778c1.169-.034 2.049-14.716 2.049-14.716l11.826-8.201 3.909 23.134996z"/>
      </g>
      <g transform="translate(182.1017 286.2228)" id="g4662">
        <path style="font-size:medium;font-style:normal;font-variant:normal;font-weight:400;font-stretch:normal;text-indent:0;text-align:start;text-decoration:none;line-height:normal;letter-spacing:normal;word-spacing:normal;text-transform:none;direction:ltr;block-progression:tb;writing-mode:lr-tb;text-anchor:start;baseline-shift:baseline;color:#000;fill:#ffce26;fill-opacity:1;fill-rule:nonzero;stroke:none;stroke-width:2.4000001;marker:none;visibility:visible;display:inline;overflow:visible;enable-background:accumulate;font-family:Sans;-inkscape-font-specification:Sans" d="m-460.0625 181.25-1.0625 1.03125-8.125 8.125c-2.46245-1.22025-14.63643-6.79444-34.125-6.5625h-.0937c-13.81254.76054-25.69577 8.02631-34.59375 17.40625-8.86334 9.34342-14.78412 20.80094-16.71875 30.5625-.0104.0384-.0521.0865-.0625.125-4.52333 16.86531.25566 39.8414 8.8125 63.0625 8.57637 23.27409 21.03108 46.7547 32.375 64.25 19.10411 31.02669 23.5 62.3125 23.5 62.3125L-490 422.75l1.21875.0937 32.28125 2.5 1.65625.125-.0312-1.65625s-1.20788-45.71242-26.6875-101.75c-.004-.009.004-.0226 0-.0312-3.71344-8.88384-10.78694-23.97613-14.28125-38.96875-1.74884-7.50355-2.6008-14.92417-1.71875-21.5.87948-6.55671 3.40247-12.18219 8.4375-16.40625.0147-.0122.0165-.05.0312-.0625 9.69432-7.48262 19.69524-7.24589 27.4375-5.15625C-453.90176 242.03044-448.625 246-448.625 246l1.0625.78125.90625-.9375 24.5625-24.53125 1.0625-1.09375-1.0625-1.0625L-459 182.28125l-1.0625-1.03125zm-54.21875 266.90625c-.55288-.002-1.12891.0269-1.71875.0625-9.22128.5578-17.36753 7.91435-17.53125 20.9375-.089 7.06329 4.00643 16.94243 12.84375 21.84375v.0312c.007.004.024-.004.0312 0 3.03153 1.74023 9.61941 4.37325 17.84375 4.4375 8.24408.0644 18.11168-2.54982 27-11.4375 12.57256-12.57382 16.59375-22.5625 16.59375-22.5625l.75-1.84375-1.9375-.25-30.15625-3.53125-1.53125-.21875-.15625 1.53125s-.64341 4.41499-3.6875 6.25c-1.77321 1.06904-2.89546 1.3164-3.625 1.375.16692-1.62035.31385-4.36781-.84375-7.75-.80368-2.34812-2.2726-4.73736-4.8125-6.4375-2.22241-1.48762-5.19236-2.42003-9.0625-2.4375z" transform="matrix(.8 0 0 -.8 396.116 371.76165)" id="path5528"/>
      </g>
      <g transform="translate(428.6384 562.8482)" id="g4666">
        <path style="font-size:medium;font-style:normal;font-variant:normal;font-weight:400;font-stretch:normal;text-indent:0;text-align:start;text-decoration:none;line-height:normal;letter-spacing:normal;word-spacing:normal;text-transform:none;direction:ltr;block-progression:tb;writing-mode:lr-tb;text-anchor:start;baseline-shift:baseline;color:#000;fill:#fff;fill-opacity:1;fill-rule:nonzero;stroke:none;stroke-width:3;marker:none;visibility:visible;display:inline;overflow:visible;enable-background:accumulate;font-family:Sans;-inkscape-font-specification:Sans" d="M-.1207 1.211246c-2.205584-.243832-3.796088-2.117144-3.925-4.275l-.15-.15.05-.575 24.9-247.149996c.03946-.39149.04777-.8279.075-1.325.0015-.0281-.0017-.0465 0-.075.01641-2.94417-.5238-9.73357-4.45-14.075-4.342776-3.92758-11.106128-4.46643-14.05-4.45-.026216.002-.048976-.002-.075 0-.462232.0274-.895864.0567-1.325.1l-247.175 24.9-1.325.125v-.3c-1.88285-.36588-3.42988-1.85891-3.65-3.85-.2263-2.04824 1.0498-3.84787 2.9-4.55v-.25l1.075-.125 247.15-24.875c.15824-.0161 1.023496-.0879 2.25-.1.0272-.00028.0224.0002.05 0 8.352368-.41324 15.188536 1.76353 20.05 6.625.203016.20301.313904.35244.4.45.0048.005.01974.0203.025.025.0047.005.02058.0203.025.025.09187.0803.223296.17329.425.375 4.863 4.863 7.038248 11.7224 6.625 20.075-.000432.009.00044.0162 0 .025-.000112.0137.00012.0115 0 .025-.01038 1.2047-.0452 1.93159-.075 2.225L4.7793-2.763754l-.125 1.075h-.225c-.69976 1.839752-2.507056 3.12572-4.55 2.9z" id="path5607"/>
        <path style="font-size:medium;font-style:normal;font-variant:normal;font-weight:400;font-stretch:normal;text-indent:0;text-align:start;text-decoration:none;line-height:normal;letter-spacing:normal;word-spacing:normal;text-transform:none;direction:ltr;block-progression:tb;writing-mode:lr-tb;text-anchor:start;baseline-shift:baseline;color:#000;fill:#fff;fill-opacity:1;fill-rule:nonzero;stroke:none;stroke-width:3;marker:none;visibility:visible;display:inline;overflow:visible;enable-background:accumulate;font-family:Sans;-inkscape-font-specification:Sans" d="M11.5793.261246c-2.462776-.258744-4.306184-2.458704-4.05-4.9l3.325-34.225c.257376-2.45124 2.537952-4.208808 5-3.95 2.462408.258848 4.307768 2.458096 4.05 4.9-.0873.831928-.890624 8.98924-1.675 17.1-.784376 8.11076-1.549368 16.171144-1.65 17.125-.257376 2.45124-2.537952 4.208808-5 3.95z" id="path5605"/>
        <path style="font-size:medium;font-style:normal;font-variant:normal;font-weight:400;font-stretch:normal;text-indent:0;text-align:start;text-decoration:none;line-height:normal;letter-spacing:normal;word-spacing:normal;text-transform:none;direction:ltr;block-progression:tb;writing-mode:lr-tb;text-anchor:start;baseline-shift:baseline;color:#000;fill:#fff;fill-opacity:1;fill-rule:nonzero;stroke:none;stroke-width:3;marker:none;visibility:visible;display:inline;overflow:visible;enable-background:accumulate;font-family:Sans;-inkscape-font-specification:Sans" d="M-246.2957-257.53875c-2.08285-.21562-3.77334-1.9176-4-4.075-.25982-2.47164 1.53597-4.71892 3.975-4.975.94775-.1 8.99549-.88438 17.1-1.675 8.10451-.79063 16.26197-1.58706 17.1-1.675 2.45295-.25893 4.64127 1.61372 4.9 4.075.25869 2.46092-1.50981 4.71878-3.95 4.975l-34.225 3.35c-.30563.0321-.60884.0301-.9 0z" id="path5599"/>
      </g>
      <g transform="translate(352.9257 408.6571)" id="g4670">
        <path id="path4672" style="fill:#fff;fill-opacity:1;fill-rule:nonzero;stroke:none" d="M-.8-.79999602 43.44 1.469l10.82-15.634s-14.446-1.041-14.412-2.211c.034-1.169 17.35-2.034 17.35-2.034l7.993-11.551s-15.776-1.049-15.742-2.218c.035-1.17 18.681-2.027 18.681-2.027l7.97-11.517S64.287-46.75 64.322-47.92c.034-1.169 14.716-2.049 14.716-2.049l8.201-11.826-23.135-3.908996z"/>
      </g>
      <g transform="translate(455.2408 559.3619)" id="g4682">
        <path style="font-size:medium;font-style:normal;font-variant:normal;font-weight:400;font-stretch:normal;text-indent:0;text-align:start;text-decoration:none;line-height:normal;letter-spacing:normal;word-spacing:normal;text-transform:none;direction:ltr;block-progression:tb;writing-mode:lr-tb;text-anchor:start;baseline-shift:baseline;color:#000;fill:#ffce26;fill-opacity:1;fill-rule:nonzero;stroke:none;stroke-width:2.4000001;marker:none;visibility:visible;display:inline;overflow:visible;enable-background:accumulate;font-family:Sans;-inkscape-font-specification:Sans" d="M-372.78125 61.84375c-4.88706.05656-9.47117.619168-13.6875 1.75-.0384.01033-.0866.02087-.125.03125-9.76156 1.934629-21.25033 7.85541-30.59375 16.71875-9.37994 8.897981-16.61446 20.81246-17.375 34.625v.0624c-.23194 19.48857 5.34225 31.6938 6.5625 34.15625l-8.125 8.125-1.0625 1.03125 1.0625 1.0625 36.875 36.90625 1.0625 1.0625 1.09375-1.0625 24.53125-24.5625.9375-.90625-.78125-1.03125s-3.96956-5.30801-6.0625-13.0625c-2.08964-7.74226-2.32637-17.71193 5.15625-27.40625.0122-.0147.0188-.0478.0312-.0625 4.22406-5.03503 9.84954-7.55802 16.40625-8.4375 6.57582-.88205 14.0277-.0301 21.53125 1.71875 14.99262 3.49431 30.05366 10.59906 38.9375 14.3125.0114.005.0199-.005.0312 0 56.03756 25.47835 101.78125 26.6875 101.78125 26.6875l1.625.0312-.125-1.6875-2.5-32.25-.0625-1.21875-1.21875-.15625s-31.28581-4.42714-62.3125-23.53125c-17.4953-11.34392-40.97585-23.798631-64.25-32.375-17.41582-6.417633-34.68258-10.70093-49.34375-10.53125zm223.5 23.03125c-13.02315.163723-20.3797 8.309971-20.9375 17.53125-.28514 4.71869.70611 8.24135 2.40625 10.78125 1.70014 2.5399 4.08938 4.00882 6.4375 4.8125 3.38219 1.1576 6.0984 1.04192 7.71875.875-.0586.72954-.27471 1.85179-1.34375 3.625-1.83501 3.04409-6.25 3.65625-6.25 3.65625l-1.53125.15625.1875 1.53125L-159.03125 158l.21875 1.96875 1.84375-.75s10.01993-4.02119 22.59375-16.59375c8.88768-8.88832 11.5019-18.75592 11.4375-27-.0642-8.22434-2.72852-14.81222-4.46875-17.84375-.005-.0094.005-.05312 0-.0625h-.0312c-4.90132-8.837317-14.78046-12.932775-21.84375-12.84375z" transform="matrix(.8 0 0 -.8 122.9769 98.622546)" id="path5566"/>
      </g>
      <g transform="translate(443.9027 309.3035)" id="g4686">
        <path style="font-size:medium;font-style:normal;font-variant:normal;font-weight:400;font-stretch:normal;text-indent:0;text-align:start;text-decoration:none;line-height:normal;letter-spacing:normal;word-spacing:normal;text-transform:none;direction:ltr;block-progression:tb;writing-mode:lr-tb;text-anchor:start;baseline-shift:baseline;color:#000;fill:#ffce26;fill-opacity:1;fill-rule:nonzero;stroke:none;stroke-width:2.4000001;marker:none;visibility:visible;display:inline;overflow:visible;enable-background:accumulate;font-family:Sans;-inkscape-font-specification:Sans" d="m-247.56875 222.38125 13.4375 13.4375L.96875.703125C2.4699269-.93968976 2.6843858-3.0086315 2.09375-4.875 1.49881-6.7549692.18977698-8.560223-1.5-10.25c-1.689726-1.689197-3.495107-2.998688-5.375-3.59375-.9399465-.297531-1.9331963-.373654-2.875-.21875-.928158.15266-1.816855.535674-2.734375 1.375z" id="path5611"/>
      </g>
      <path d="M120.58325 620.34124s34.97515-95.98271 34.92316-95.9987c8.2178 9.17878 12.18272 29.40028 12.18272 29.40028l23.24343-23.03128 19.49252 19.49254-23.21142 22.99828s21.80446 5.44887 29.88829 12.8047c-.16199-.14299-96.5187 34.33418-96.5187 34.33418" style="fill:#fff;fill-opacity:1;fill-rule:nonzero;stroke:none" id="path4656"/>
    </g>
  </g>
</svg>
