<svg xmlns="http://www.w3.org/2000/svg" width="439.99997" height="520">
  <defs>
    <clipPath clipPathUnits="userSpaceOnUse" id="a">
      <path style="fill:none;stroke:red;stroke-width:1.81310689" d="M50.093759 449.318v71.91218c0 27.27702 24.960935 47.94144 59.906241 47.94144 34.94532 0 59.90625-20.6644 59.90625-47.94144V449.318z"/>
    </clipPath>
  </defs>
  <path style="fill:#feed00;fill-opacity:1;stroke:none" d="M219.99999 0v156.00001C219.99999 215.17241 174.16666 260 110 260 45.833332 260 0 215.17245 0 156.00001V0z" transform="scale(2)"/>
  <path clip-path="url(#a)" d="m50.093752 472.36677 9.29687 14.71875-5.625-1.625 7.5 9.8125-5.625-1.625 9.375 14.75 9.375-14.75-5.625 1.625 7.5-9.8125-5.625 1.625 9.375-14.71875 9.375 14.71875-5.625-1.625 7.5 9.8125-5.625-1.625 9.375 14.75 9.374998-14.75-5.624998 1.625 7.499998-9.8125-5.625 1.625 9.34375-14.71875 9.375 14.71875-5.625-1.625 7.5 9.8125-5.625-1.625 9.375 14.75 9.375-14.75-5.625 1.625 7.5-9.8125-5.625 1.625 9.375-14.71875 9.375 14.71875-5.625-1.625 7.5 9.8125-5.625-1.625 9.375 14.75 9.375-14.75-5.625 1.625 7.5-9.8125-5.625 1.625 9.29688-14.71875v56.61425c-7.47984 0-7.53583 4.31575-15.01563 4.31575-7.47984 0-7.48895-4.31575-14.96875-4.31575-7.47984 0-7.48891 4.31575-14.96875 4.31575s-7.48891-4.31575-14.96875-4.31575-7.45766 4.31575-14.937498 4.31575c-7.47984 0-7.48891-4.31575-14.96875-4.31575-7.4798 0-7.48895 4.31575-14.96875 4.31575-7.47984 0-7.53582-4.31575-15.01562-4.31575z" style="fill:#2b954a;fill-opacity:1;fill-rule:evenodd;stroke:none" transform="matrix(-3.6724 0 0 4.33863 623.96454 -1949.42258)"/>
</svg>
