<svg xmlns="http://www.w3.org/2000/svg" xmlns:xlink="http://www.w3.org/1999/xlink" xml:space="preserve" width="500" height="643" shape-rendering="geometricPrecision" text-rendering="geometricPrecision" image-rendering="optimizeQuality" fill-rule="evenodd" clip-rule="evenodd" version="1.0">
  <path d="m23.55782 170.825 25.8557 285.705c13.2635 124.511 108.3302 185.50075 201.02805 184.86787 92.69785.63288 187.76455-60.35687 201.02805-184.86787l25.8557-285.705z" style="fill:#155bdb;fill-opacity:1;stroke:#000;stroke-width:1.98424995"/>
  <g style="fill:#000" transform="translate(.596575 2)">
    <path d="M118.0811 239.5769c5.39543-.70431 18.5033 3.10025 28.1153 12.0926v-47.9053c-8.9147 8.06199-18.6817 13.17853-28.836 16.2785 3.1002-14.2634 8.06114-24.80569 14.883-31.6267H85.26849c6.82186 6.82101 11.7828 17.3633 14.883 31.6267-10.1543-3.09997-19.9213-8.21651-28.836-16.2785v47.9053c9.612-8.99235 22.719867-12.79691 28.1153-12.0926l9.32515 54.8813z" style="fill:#000" id="a"/>
    <use style="fill:#000" height="643" width="500" transform="translate(143.08905)" xlink:href="#a"/>
    <use style="fill:#000" xlink:href="#a" transform="translate(286.17812)" width="500" height="643"/>
    <use style="fill:#000" xlink:href="#a" transform="translate(71.544523 309.2139)" width="500" height="643"/>
    <use style="fill:#000" height="643" width="500" transform="translate(214.63357 309.2139)" xlink:href="#a"/>
  </g>
  <g transform="translate(-1.403435)">
    <path d="M118.0811 239.5769c5.39543-.70431 18.5033 3.10025 28.1153 12.0926v-47.9053c-8.9147 8.06199-18.6817 13.17853-28.836 16.2785 3.1002-14.2634 8.06114-24.80569 14.883-31.6267H85.26849c6.82186 6.82101 11.7828 17.3633 14.883 31.6267-10.1543-3.09997-19.9213-8.21651-28.836-16.2785v47.9053c9.612-8.99235 22.719867-12.79691 28.1153-12.0926l9.32515 54.8813z" style="fill:#ccc;fill-opacity:1" id="b"/>
    <use height="643" width="500" transform="translate(143.08905)" xlink:href="#b"/>
    <use xlink:href="#b" transform="translate(286.17812)" width="500" height="643"/>
    <use xlink:href="#b" transform="translate(71.544523 309.2139)" width="500" height="643"/>
    <use height="643" width="500" transform="translate(214.63357 309.2139)" xlink:href="#b"/>
  </g>
  <path d="m159.22142 303.52701 3.04643 12.26656M148.98942 300.272l10.17257 14.82357m-15.49914-11.10256 14.00872 11.04415m-14.6833-6.39315 9.98644 5.39386" style="fill:none;stroke:#000;stroke-width:.99199998;stroke-linecap:round;stroke-miterlimit:4;stroke-opacity:1;stroke-dasharray:none"/>
  <path d="m276.356 384.92 34.3627 32.8918 9.94479 17.2947-13.9918 19.8697-2.1651-2.77569c-3.8897 2.83351-5.20526 5.41616-5.30589 8.24967l-4.40618-3.54047-3.51638 7.58807c-1.12309-1.40513-2.08035-3.82337-1.93975-5.8595-3.10762 2.9109-5.26791 7.73604-6.48085 12.5419-1.53524-1.11855-3.36926-2.80347-3.6411-4.55301-7.3372 7.18923-20.6912-1.10041-38.1328-15.3833.97228-3.69496 9.04139 2.5475 15.4417.74069 5.61884-1.58627 9.66416-7.1572 12.9223-11.8023 1.82721-2.60561 4.05695-4.59638 4.59666-6.21837 3.20627-10.6203-24.8205-6.87884-20.4786-35.0646l22.7903-13.9793z" style="fill:#000"/>
  <path d="m275.726 384.92 32.3243 33.2544 9.76706 16.511-11.632 17.898-1.68803-3.20117c-3.81997 2.78277-5.77928 5.56583-5.87792 8.34889l-3.41405-4.39087-5.28095 9.05131c-1.10296-1.37991-1.58599-3.06964-1.44794-5.06948-3.05206 2.85874-5.17408 6.6481-6.3652 11.3678-1.50775-1.09814-2.39556-2.50668-2.66258-4.22504-7.20596 7.06082-21.2352-.37729-38.3652-14.4051.95499-3.6292 8.87982 2.50186 15.1659.72737 5.51849-1.55821 9.49182-7.02936 12.6916-11.5914 1.79462-2.55912 3.98438-4.51446 4.51474-6.10753 3.47301-10.4307-22.4892-6.29887-19.1993-33.9817l21.4696-14.1863z" style="fill:#ccc"/>
  <path d="m154.542 334.457 25.1153-.23273c-.11565 4.10854-2.59625 7.90668-9.53462 9.53462l-28.1384-1.86038c1.3955-3.72104 5.58142-6.20192 12.5578-7.44152z" style="fill:#000"/>
  <path d="m152.475 334.224 25.1153-.23244c-.11565 4.10854-2.13109 6.97635-9.06945 8.60429l-28.6036-.93005c1.3955-3.72132 5.58142-6.20221 12.5578-7.4418z" style="fill:#d5a92d;fill-opacity:1"/>
  <path d="M78.5245 400.268c.318614-1.6115.86967-4.46315 4.67717-4.1366 7.25896 3.98523 13.3158 14.0553 22.6035 12.2922l32.9497 24.1688 3.25559.46517c-1.21975 4.69984-9.26108 5.98989-12.7284 6.89216l-.54-4.92066c-7.16145-.67323-8.50933 4.00195-13.8104 3.56117l-.80022-3.98863-8.11843.0173-.2058-6.00265c-2.05965 1.28268-4.07991 2.64416-6.771966 2.6623-1.62425-1.08142-2.62857-2.78334-3.01181-5.10492-5.75632.62816-8.95352-.87562-10.9874-3.34829.181417-2.41625-.557292-7.80974-2.15065-11.9137-1.80567-4.65109-4.27862-9.14089-4.36082-10.6435z" style="fill:#000"/>
  <path d="M79.6873 400.035c.318331-1.6115 1.33484-4.69588 5.14233-4.36904 7.25896 3.98523 13.0833 13.125 22.371 11.3618l32.9494 24.1688v2.79043c-2.15008 3.30492-6.00548 3.66435-9.47254 4.5669l-.54028-4.92066c-7.16145-.67351-8.50933 4.00195-13.8101 3.56088l-.80051-3.98835-8.11815.017-.20608-6.00265c-2.05965 1.28296-4.07991 2.64444-6.77197 2.66258-1.624247-1.08142-2.628567-2.78362-3.011807-5.10492-5.75632.62816-8.95352-.87562-10.9874-3.34829.181701-2.41625-.557292-7.80974-2.15065-11.9137-1.80567-4.65137-4.51106-7.97811-4.59326-9.48076z" style="fill:#ccc"/>
  <path d="M102.977 308.775c10.9913.0136 9.20126-3.74995 14.3844-3.35736 1.57776.11934 5.02526 2.00296 9.34782 2.87915 2.95795.59953 6.33005.10573 9.79512.73361 2.91062.52696 7.54923 2.71021 10.4647 3.25417 10.4142 1.94372 17.7083 3.69638 18.6491 5.40227.39912 2.32271-1.08907 6.05112-1.86605 8.84467.25484 4.20095-3.708 7.6887-7.22183 10.006l-.35263-9.13153c-5.80479-.87506-3.69468 4.27011-7.62889 5.86007-2.89843 1.17128-4.50851-.78463-8.98356.1457-7.79443 4.35317-5.69112 6.83405 3.20117 8.17767 3.05433.46119 5.70104-1.79717 10.7408-1.60044 2.08148-1.40287 4.62841-1.42101 6.71074-4.70551.95953 2.99197-.19332 5.51877-3.2332 7.09966l6.60983.71603c-12.1969 3.51808-11.1288 8.31912-17.4424 10.1307-6.31418 1.81162-11.9812-2.9024-17.1196 2.2629 11.336 10.5537 13.5221 8.43478 23.3212 9.08674 13.0567.8691 29.4228-15.6203 44.6258-17.9436 2.08318.18539 2.1223 2.97496 2.19884 4.49972l2.32413-1.63729c1.61688-.42123 1.32605.69959 1.60498 3.96142 4.78687-4.17969 8.08328-3.65301 10.3609-.30302 5.77871 1.49329 8.65531 2.0452 8.1601 3.53877l6.23963-.21714c20.0886-3.6275 49.2336-19.7181 77.321-17.464 28.9797 2.32554 44.7463 34.0577 87.1373 31.2078 23.6234-.0907 12.1107-26.6698-15.7141-30.2103-24.5778 7.49537-6.72633 1.73679-9.97144-4.57087-8.87783.9411-12.5943 2.88114-18.1837 1.53553 1.26595-1.47175.32287-2.36551 4.53855-5.2852-8.5921.3634-11.4605-1.32406-15.4298-2.91005 3.50447-2.00211 1.90318-1.86605 7.14218-2.27849-4.28882-.93288-15.4828-.76847-19.5171-3.09714 1.10778-.71773.90907-1.20671 4.47903-2.0469-4.75427.64545-15.1279-1.01452-18.4479-3.48095 1.46268-.41357 1.68491-1.11118 5.72939-1.43405-8.0263-.74126-11.5033 1.21068-16.9577-.77499.37757-1.4468 1.87484-2.26942 2.50696-3.29556-3.98013-.75458-9.4269-1.13272-11.0075-2.39953 1.08312-.37503 1.2121-.80391 6.95679-.93118-3.0892-2.14073-6.38192-4.79764-7.89307-6.55399 1.05534-.49267.5091-1.22258 5.81896-.17915-1.7348-1.99814-1.296-2.77143-1.93323-3.56429 1.66621-.49437 5.32007.79143 12.9138 3.55635-2.06249-2.36721-1.94117-3.15043-3.21846-4.78744 6.2263-.56381 6.73909.17404 11.8644 3.57222-.75232-1.42101-1.55112-2.84173-1.96073-3.90416 2.39358-.18681 3.77632-.0153 7.73774 2.62403-2.53814-2.33263-1.45304-3.11783-1.60299-4.40022 2.11975-.28574 4.85348.68853 9.3515 4.29477-.48954-1.25972.18142-2.14328-.0933-3.49512 1.14917-.37021 2.89247-.0709 4.8155 1.48961-1.53411-1.90857-.21855-2.78873-1.04287-3.72756 3.00558-.80618 5.32233-.18142 10.9998 2.22548 0-1.26765.95131-.81411.66614-3.71566 3.86107-1.00347 5.58142-.33988 20.471 5.7943-.21401-1.47487-1.30139-3.27799-1.51002-4.35827 2.00041-1.48847 11.2076.90056 19.0358 5.41644 6.91059-2.77512 13.0567-.70753 18.0859 8.43903 1.2566-5.74186 4.86567-5.40397 13.6539 8.30977 2.72069-7.92822 5.93263-.0646 9.28234 4.87956 3.29613-9.66558 4.71005 4.66781 7.06536 7.00186 9.21799.3566 2.69405 6.29263 8.14763 10.4924 1.38387-2.65465 3.08154.33732 5.09301 8.97648 3.58611-5.47881 5.13298-3.56542 3.70035 9.15194 2.37969-.39487.5247 2.97468-2.74224 7.28561 3.69099 3.68618.79455 4.78432-3.04299 7.52967 5.63953 2.2663 3.75024 5.47399-5.66844 9.62278 6.28555 1.97376 1.54885 3.79304-4.76221 6.39723 5.05162 6.67559 1.99984 8.17427-9.87506 6.65689 3.92712 3.94271-2.06561 2.92592-9.47537 1.20047 3.61956 7.78167-3.50589-.12218-10.7875-.41783-1.98199 7.75985-10.4763-.0249-21.7599-1.99956-2.63991 5.89833-4.87446-9.36341-23.9817-13.5816 2.39358 2.46898.51336 1.77534 2.90693 3.53877 1.17468 4.23581 3.81458 3.29811 3.57761 9.41641 3.69128 1.55906 12.3602 6.74873 4.64032 13.722 3.10791.1817 5.4 2.14696 7.63909 3.07077 5.72372 2.36183 10.0913-.24945 11.6918 3.53282 1.99247 4.70807 3.03364 14.2903.0853 18.5281 1.41109.19757 1.52873 6.91937 1.05817 15.9032-1.98397-2.87235-3.48378-4.80331-5.4669-5.7926 1.88674 5.28973 1.09332 9.29906-1.41137 13.9618l-2.71786-4.2446c-2.38876 4.54706-1.07376 17.4422-8.0538 6.21751-3.87383 16.6139-6.70621 10.1092-7.52967 7.30942-7.48517.89632-10.9704 7.1915-13.9847 7.14728-17.6669-9.93856-10.1157-8.43903-15.3791-13.3648-5.60325-5.24325-4.99692-1.77307-10.2393-9.1063 10.0298-2.46643 19.3572 2.52255 27.853-1.68208 4.69474-2.32356 5.13213-7.61188 4.87049-15.6008-7.36101-1.07972-13.1533-3.14079-15.4933-7.35789-14.6755.66671-22.6111-.61654-28.3173-3.30548l-11.1572 1.37622c2.58321-.92353 5.63159-1.84706 8.21509-2.7703-5.97884-3.68788-11.1433-4.81607-15.2606-4.78092l6.42926-.70923c-3.22384-4.12186-8.90391-3.74485-14.6582-4.0697l9.98306-2.25638c.54029-.12217-1.43405-1.35468-2.31421-2.14838-3.81402-3.43956-10.9879-9.75941-12.7474-10.048-3.01862-.49606-5.00627-4.32114-5.13978-5.73818-4.71345 3.02995-8.03141 4.49093-12.7443 4.38407-4.21767 4.94447-9.06322 7.69295-14.5352 8.24627-18.5292 14.4975-37.372 25.2309-56.5282 32.1999l-6.8315 2.07496c-6.10753 12.5768-14.1049 21.9155-15.0523 16.4886-8.6298 4.07339-5.77446 10.137-8.10652 10.3479-2.83323.25625-3.58526-3.99515-6.26911-3.45543-.67407 8.74035-2.60306 10.2657-5.78637 4.57654-6.61663 3.53282-8.52804 7.3012-11.3794 3.54104-4.07736.74353-6.74306 3.8401-9.40848 3.6428-1.90828-.28601-8.31997-3.85285-12.4526-7.93474-5.50177-5.43374-9.24832-12.5204-7.50671-16.5447 2.42958-4.77666 22.2698 16.3276 36.2282-12.9181-19.1699-7.21644-38.1929-23.0355-51.715295-42.9562l-1.97178 2.93981c-15.8414-27.7798-16.4616-49.7271-4.69531-68.0947-6.75241-16.1909-.006-25.5169 16.849395-17.7863z" style="fill:#000"/>
  <path d="M102.825 309.536c10.8638.0136 9.09411-3.70772 14.2175-3.31824 1.56076.11849 4.96602 1.97887 9.23925 2.84599 2.92422.59301 6.25578.10375 9.68117.72482 2.87717.52186 7.00158 2.21896 9.88356 2.75669 10.2935 1.92161 18.4224 2.7343 19.3519 4.42035.39458 2.2955-1.5361 5.52133-2.30428 8.28199.252 4.15247-1.8258 7.13991-5.29881 9.4303l-.34838-8.10596c-5.73761-.86514-5.91591 2.92677-9.83934 4.4127-3.05178 1.1554-7.23402.60406-8.87925 1.52306-7.70372 4.30271-5.62479 8.59352 3.16432 9.92126 3.0189.45581 6.55455-1.77591 11.5356-1.58145 2.05739-1.38643 4.11477-3.7029 6.17273-6.94942.94847 2.9571.26901 5.91421-2.73572 7.47667l3.7749 1.62709c-12.0552 3.47726-9.51846 6.02504-15.7595 7.81626-6.24104 1.79093-10.5642-1.59109-15.6427 3.5144 11.2045 10.4307 13.8243 11.0948 23.5097 11.7394 12.905.8589 29.0812-17.2775 44.1077-19.5738 2.05909.18312 1.63814 2.02054 1.71354 3.52772l2.2972-1.6183c1.59817-.41641 1.31046.69165 1.58627 3.9155 4.73131-4.13121 7.98945-3.61077 10.2407-.29934 5.53091 1.11449 8.37406 2.0211 8.24604 3.85862l5.06688.34375c19.855-3.58526 58.3149-19.0301 86.076-16.8015 28.6435 2.2989 41.0088 33.2022 82.9075 30.3857 23.3487-.0899 11.9701-26.36-15.5319-29.8593-24.2921 7.40835-6.6481 1.71638-9.8555-4.51786-7.97698.84557-14.1823 2.09254-18.6194 1.35581.91163-2.124 2.5852-2.82529 5.13298-5.06183-8.49232.35915-11.6748-.68769-15.0137-2.40236 2.34114-1.16844 1.99077-1.62482 7.16911-2.03244-4.23893-.9224-15.9673-1.45247-19.2906-3.06142.93629-.7115.89858-1.19282 4.42715-2.02309-4.88381.26816-15.0293-1.81559-17.9952-3.84066 1.40542-.44164 1.9355-.72057 6.11745-.67068-7.43585-2.56904-14.4731-.97795-19.4423-1.87909.32259-.62532.20551-1.47713.83027-2.49137-3.54047-.67125-5.31241-1.04117-8.74517-2.61014 3.18898-1.20076 1.40627-1.22769 8.03084-1.37452-3.35877-2.32781-8.45689-5.37477-8.76019-7.01235 1.12054.0204 2.3366-.50202 6.71018.35745-1.89893-2.21017-1.35128-3.41688-2.03471-4.14539 2.13052-.22139 5.20073.45723 12.8877 4.13745-2.03017-1.64523-2.76605-2.83947-3.52743-4.90507 3.96879.38721 5.98507.95414 11.0341 3.53084-1.44624-1.1829-1.63417-2.36665-2.0211-3.45855 1.92473-.009 3.76583-.0184 8.76983 2.36636-1.88419-1.84422-2.53191-3.26381-2.17162-3.96369 1.82665.0604 6.45336.71745 9.83849 3.85966-1.19962-1.26057-1.64636-2.81339-1.77647-3.25899 1.97291-.0955 4.26303.21486 6.4355 1.27673-1.51654-1.88617-.94734-2.17814-1.14038-3.22441 3.41518-.16753 5.02385-.29311 10.6356 2.08602 0-1.7898.00057-3.05745-.12558-3.71736 3.19238.12501 7.23997.21146 20.1903 5.54712-.26447-1.82211-.68456-2.71899-1.08539-4.26643 3.74372-.60151 6.97153.17971 14.0641 4.27125 6.83008-2.7428 12.905-.69931 17.8759 8.34095 1.24186-5.67525 4.80898-5.34104 13.4952 8.21311 2.68923-7.8361 5.86403-.0638 9.17462 4.82315 3.25786-9.55333 4.65534 4.61367 6.98344 6.92051 9.11084.35234 4.50114 7.13878 9.89122 11.2901 1.36772-2.62403 3.04583.33307 5.03405 8.87216 3.54444-5.41531 5.07317-3.52403 3.65726 9.04564 2.35219-.39033.51846 2.93981-2.71049 7.20085 3.64819 3.64337.78549 4.72876-3.00756 7.44237 5.57405 2.23994 3.70658 5.41021-5.6024 9.51109 6.21213 1.95052 1.53071 3.74882-4.70721 6.32268 4.99323 6.59792 1.97688 8.07931-9.76026 6.5795 3.88177 3.89707-2.04151 2.89191-9.36511 1.18658 3.57732 7.69125-3.46536-.12076-10.6622-.41301-1.95902 7.6697-8.89484-1.0321-20.0472-2.98347-1.64948 5.82974-6.55455-10.1996-27.04-14.3694 2.3658 2.44035.54567 2.78788 2.91147 4.5309 1.16107 4.18649 5.11285 5.1171 4.87871 11.1643 3.16857 2.50101 11.4534 7.79273 4.62246 13.0844 3.07219.17943 4.4178 3.96029 6.63137 4.87389 5.65796 2.3349 10.912 1.13244 12.4937 4.87077 1.96923 4.65336 2.07921 10.0055-.8348 14.1939 1.39465.19531 1.51087 6.36095 1.0457 15.2405-1.96101-2.8389-3.92145-4.74747-5.88161-5.72542 1.86491 5.22822 1.55877 10.1469-.91672 14.7558l-2.68611-4.67348c-1.72347 5.76907-.4235 18.5148-7.96054 6.14523-2.55402 17.0589-4.87531 10.6299-6.96416 7.22467-7.39815.88611-10.8428 7.58608-13.8223 7.54215-17.4617-9.8229-10.9539-9.29708-16.1566-14.1656-5.53805-5.18259-4.93881-1.75238-10.1203-9.00029 9.91333-2.4378 19.1325 2.49307 27.5292-1.66252 4.64032-2.29663 5.07288-7.52372 4.81408-15.4196-7.27541-1.06724-13.0003-3.10451-15.3133-7.27257-35.7049 1.62199-33.3853-11.4477-42.6371-17.0136-2.50696-1.50803-12.5158-11.7023-14.6568-12.0546-2.9846-.49068-5.40794-3.58129-5.53975-4.98189-4.65874 2.9948-9.31692 4.43906-13.9751 4.33304-4.16863 4.88722-8.95777 7.60366-14.3666 8.15046-18.3138 14.3291-36.9377 24.9378-55.8712 31.826l-6.75241 2.05087c-6.03638 12.4305-13.9411 21.661-14.8774 16.297-8.52945 4.02605-5.70756 10.0193-8.01213 10.2277-2.80035.25342-3.54359-3.94895-6.19626-3.41518-.66643 8.63887-2.57301 10.1463-5.71947 4.52325-6.53981 3.49172-8.42882 7.21644-11.247 3.49994-4.03002.73502-6.66454 3.79559-9.29934 3.60057-1.88589-.28261-8.22303-3.80835-12.3078-7.84262-5.43799-5.37081-9.14089-12.3749-7.41969-16.3525 2.40151-4.72139 22.0113 16.1379 35.8075-12.7681-18.9473-7.13254-37.7493-22.7676-51.114404-42.4571l-1.9491 2.90551c-15.6575-27.4572-15.8108-49.6089-4.1811-67.7634-6.67389-16.0027-.925512-23.3819 15.734004-15.7411z" style="fill:#ccc;stroke:none"/>
  <path d="M88.7568 316.783c7.86274-8.68026 9.487-4.49178 18.3713-.93033l-.23244-2.55799c-7.209071-.69761-15.115801-6.74391-18.138901 3.48832zM132.476 352.595c-6.35641 1.8601-14.4184 1.70476-21.3945.46517 6.58857 4.57399 14.8051 4.8841 21.3945-.46517z" style="fill:#000"/>
  <path style="fill:none;stroke:#000;stroke-width:1.41732001" d="m124.802 328.41-2.093 4.18601M113.174 318.41101h-3.255M118.058 322.36401l-3.488 3.95298M121.546 325.38699l-2.79 3.95301M117.128 320.96899l-5.582 1.62702M231.076 399.338c5.92186-.35688 10.3598-2.19713 10.6974-8.13941M225.728 390.501c8.25563-2.63509 14.3793-6.43266 15.8131-12.7902M215.031 375.385c7.44152-1.39465 13.7203-3.95263 17.4413-9.06945"/>
  <path d="M215.961 362.595c1.96668-1.32747 4.07877-2.93584 8.60429-4.41865l-.23272 3.48832-8.37156.93033z" style="fill:#000"/>
  <path d="M203.868 360.269c.77471-3.25531 4.34041-4.34041 10.6971-3.25559" style="fill:none;stroke:#000;stroke-width:.99212599"/>
  <path style="fill:#000" d="m195.962 352.363-1.628.465.93-3.721 2.558-.233z"/>
  <path d="M198.59685 354.86862c2.42849-1.11165 3.74603-2.81599 4.13409-3.66894M214.333 354.688c2.17021 1.16277 4.34041 1.70504 6.51147 1.62765M208.752 352.363c-1.62765 1.62794-3.87581 2.63509-6.74391 3.02315M375.722 415.849c5.11597 2.09254 7.75106 5.11569 7.90668 9.06917" style="fill:none;stroke:#000;stroke-width:.99212599"/>
  <path d="M344.793 383.757c2.79043-2.09282 7.44152-2.32554 12.0926-2.55799" style="fill:none;stroke:#000;stroke-width:1.41732001"/>
  <path d="m355.955 393.757 4.18592-2.55827 3.25559 2.55827c-2.79071-.93033-5.27159-.93033-7.44152 0zM183.869 435.383c.69761-3.25588 5.46548-7.20964 6.74391-11.2785 1.27871-4.06942-.46517-9.18596-.69761-14.7671l5.11597-3.25559-3.02315 4.65081.46517 2.32554 3.48832-3.25559-3.02315 4.65081 2.55799.69761-2.09282 2.55827-.23273 2.32526 3.02315-2.32526c-1.39805 1.78186-2.56309 3.64224-2.09282 6.0463l7.20907.6976-8.13941 1.16277c-1.0851 2.40293-3.10082 5.03859-3.72076 7.67396l-5.58114 2.0931z" style="fill:#000"/>
  <path style="fill:none;stroke:#000;stroke-width:.99212599" d="m146.196 316.31799 13.953 1.86002M145.731 322.829c3.87525-2.0931 8.68139-2.63537 14.4179-1.62794"/>
  <path style="fill:#000" d="m121.779 312.597 10.232.698-3.23154 3.21708 3.69654 4.22392-6.977-4.418 4.30323-2.33946-6.20115-.32231-1.35708.80077z"/>
  <path style="fill:none;stroke:#ccc;stroke-width:.99199998;stroke-linecap:round;stroke-miterlimit:4;stroke-opacity:1;stroke-dasharray:none" d="m158.754 303.52701 3.04643 12.26656M148.522 300.272l10.17257 14.82357M142.94 303.99301l14.00872 11.04415m-14.93873-6.39315 9.98644 5.39386"/>
  <path d="M161.98657 325.49229c-1.93776-.77556-4.33171.14606-5.13896 1.23145" style="fill:none;stroke:#000;stroke-width:.70899999;stroke-linecap:round;stroke-miterlimit:4;stroke-dasharray:none"/>
  <path d="M153.00929 340.60729c1.13514 1.1395 2.84009.84831 2.84009.84831" style="fill:none;stroke:#000;stroke-width:.70866197;stroke-linecap:round"/>
  <path d="M256.657 398.407c7.1297-1.08595 21.0833 2.94435 38.1379 9.30189" style="fill:none;stroke:#000;stroke-width:.99212599"/>
  <path d="M309.445 437.476c3.17821-2.0931 3.56599-4.49603 1.16277-7.20907 4.49603 2.40293 3.17821 6.89868-1.16277 7.20907z" style="fill:#000"/>
  <path d="M108.756 414.918c1.31754.0777 2.63509-.15477 3.9532-.69761M112.244 419.104c2.01543-.0774 3.72019-.46488 5.11625-1.16277" style="fill:none;stroke:#000;stroke-width:.70866197"/>
  <path d="M116.662 423.523c2.71304.0777 5.03859.0777 6.27903-.69761" style="fill:none;stroke:#000;stroke-width:.99212599"/>
  <path d="M120.848 427.476c3.33326.3875 6.35613.15505 9.06945-.69789" style="fill:none;stroke:#000;stroke-width:1.41732001"/>
  <g style="fill:#d5a92d;fill-opacity:1">
    <path style="fill:#d5a92d;fill-opacity:1;stroke:#000;stroke-width:.99212599000000001" d="M313.399 460.73c-1.43547-5.19364-.35008-9.612 6.27874-12.325 2.79043.23273 4.0303 1.3955 3.72076 3.48803.19361 3.10082-2.34482 1.37594-4.44756 3.22696-2.10274 1.85074-3.07162 5.41644-5.55194 5.61005z"/>
    <path style="fill:#d5a92d;fill-opacity:1;stroke:#000;stroke-width:.99212599000000001" d="M320.916 466.858c-2.87943-5.16359-4.56236-10.8335 2.92904-13.7478 2.78447-.29395 4.22022.61568 4.3081 2.72948.77102 3.00926-2.04548 1.79065-3.76441 4.00281-1.71865 2.21188-1.07235 6.36066-3.47273 7.01547z"/>
    <path style="fill:#d5a92d;fill-opacity:1;stroke:#000;stroke-width:.99212599000000001" d="M326.497 471.51c-2.87972-5.16388-4.56265-10.8335 2.92876-13.748 2.78447-.29395 4.22022.61597 4.30838 2.72948.77074 3.00954-2.04576 1.79093-3.76469 4.00281-1.71865 2.21216-1.07235 6.36095-3.47244 7.01575z"/>
    <path style="fill:#d5a92d;fill-opacity:1;stroke:#000;stroke-width:.99212599000000001" d="M334.478 476.019c-3.96227-2.49194-6.21496-8.71257-.9-12.8849 2.69121-.77358 4.26303.33817 4.71714 2.40435.35178 3.52715-1.4709 1.65402-2.77909 4.13093-1.30847 2.47691 1.21181 5.28775-1.03805 6.34961zM345.101 478.985c-4.6114-.80277-9.055-5.70444-5.71975-11.581 2.19685-1.73622 4.0731-1.30365 5.2767.43597 1.66337 3.1303-.73361 2.088-1.00488 4.87616-.27099 2.78816 3.1269 4.4331 1.44794 6.26882zM94.6259 452.671c.443055-5.36996 3.91521-7.98095 10.3754-8.01015 2.53899.2503 3.53452 2.23399 2.52255 4.09181-1.35213 2.74479-3.66888.69562-6.44996 1.03096-2.61156.31465-4.05298 3.5606-6.44797 2.88737z"/>
    <path style="fill:#d5a92d;fill-opacity:1;stroke:#000;stroke-width:.99212599000000001" d="M100.023 462.208c-2.34851-4.80983-1.75606-10.5902 4.09181-12.818 2.78447-.29395 3.75506.38353 3.84321 2.49704.0731 3.70715-2.04576 1.79093-3.76441 4.00281-1.71893 2.21216-2.46813 3.57024-4.17062 6.31814z"/>
    <path style="fill:#d5a92d;fill-opacity:1;stroke:#000;stroke-width:.99212599000000001" d="M105.604 468.719c-2.25184-3.52942-4.69899-8.57311 1.53354-14.2129 2.78447-.29395 5.38299 1.77874 5.47115 3.89225.0734 3.2417-1.36517 3.39109-3.53197 5.16558-2.41597 1.97887-2.93301 3.80268-3.47273 5.15509zM114.515 477.879c-4.42914-.85805-7.6904-9.94167-1.59761-16.8384 2.69121-.77329 4.26303 1.73367 4.71714 3.79984.35178 3.29471-1.32888 2.43865-2.31392 5.06098-.84302 2.24419.049 4.59014-.80561 7.97755zM120.255 480.613c-2.51717-2.19855-2.77512-10.0451-.6035-13.2083 2.66315-1.71751 4.38605-.39317 4.81125 1.36602 1.95421 3.67795-3.16772 6.3584-4.20775 11.8423zM235.728 462.126c-1.43547-5.19336-.35008-9.612 6.27874-12.325 2.79043.23272 4.0303 1.3955 3.72076 3.48832.19361 3.10054-2.34482 1.37594-4.44756 3.22668-2.10274 1.85074-3.07162 5.41644-5.55194 5.61005z"/>
    <path style="fill:#d5a92d;fill-opacity:1;stroke:#000;stroke-width:.99212599000000001" d="M242.521 467.473c-1.91452-5.59361-2.56224-11.4724 5.32829-13.0073 2.79241.20608 4.04334 1.35695 3.75392 3.45232.22309 3.09884-2.3315 1.39833-4.41638 3.2692-2.08517 1.87087-2.18721 6.0687-4.66583 6.28583zM251.862 474.102c-3.54331-4.73301-5.96835-10.1271 1.06668-14.0159 2.72041-.66302 4.26473.0471 4.63436 2.12995 1.16589 2.87943-1.7881 2.04775-3.19635 4.46939-1.40797 2.42192-.21345 6.44712-2.50469 7.41657z"/>
    <path style="fill:#d5a92d;fill-opacity:1;stroke:#000;stroke-width:.99212599000000001" d="M260.76 475.786c-3.96227-2.49194-6.21496-8.71257-.9-12.8852 2.69093-.77329 4.26303.33846 4.71714 2.40463.35178 3.52715-1.4709 1.65373-2.77909 4.13093-1.30847 2.47691 1.21181 5.28775-1.03805 6.34961zM272.313 478.288c-4.61112-.80277-9.055-5.70444-5.71975-11.581 2.19685-1.73622 4.0731-1.30365 5.2767.43568 1.66337 3.13058-.73361 2.08828-1.0046 4.87644-.27128 2.78816 3.12662 4.4331 1.44765 6.26882zM67.1851 402.906c.443055-5.36996 3.91521-7.98067 10.3754-8.00986 2.53899.2503 3.99969 1.7691 2.988 3.62693-1.35241 2.74479-3.43673.92806-6.21751 1.2634-2.61184.31465-4.75059 3.32788-7.14586 3.11953z"/>
    <path style="fill:#d5a92d;fill-opacity:1;stroke:#000;stroke-width:.99212599000000001" d="M69.327 412.442c-2.34851-4.80983 2.89446-10.8227 8.74234-13.0504 2.78447-.29424 2.59257 3.4064 2.68073 5.52019.07342 3.70687-2.1617 2.85959-4.92718 3.30492-2.18353.35178-4.79339 1.47742-6.49588 4.22532z"/>
    <path style="fill:#d5a92d;fill-opacity:1;stroke:#000;stroke-width:.99212599000000001" d="M71.8847 419.884c-2.25156-3.52942 1.81276-11.3638 8.51018-12.8177 2.78476-.29395 3.9875 2.70879 4.07566 4.82259.07342 3.2417-4.62133 1.76372-6.3224 2.14214-3.04781.67833-5.72344 4.50057-6.26344 5.85298zM75.6794 428.811c-1.52249-8.66892 3.48066-11.4775 7.70429-13.117 3.15808-1.24016 4.11052 2.58378 1.92671 4.49717-1.04372 1.89978-1.97603.64772-4.63947 2.50299-2.55515 1.77987-4.13688 2.72948-4.99153 6.11688zM81.4196 437.126c-2.51717-2.19884 1.64324-11.2082 3.81487-14.3711 2.66315-1.7178 4.15361.76961 4.57881 2.52879 1.95421 3.40668-7.35336 6.00888-8.39367 11.8423z"/>
  </g>
  <g>
    <path transform="translate(4.06477 1.4656)" style="fill:#edc656;fill-opacity:1;stroke:#000;stroke-width:1.5;stroke-miterlimit:4" d="M463.49 160.278H29.7099l-.5213-32.085H463.565z"/>
    <g transform="translate(5.12467)">
      <g id="c">
        <path d="M29.7099 170.6376h431.214c9.58734 0 9.58734-14.53208 0-14.53208H29.7099c-9.58734-.00004-9.58734 14.53208 0 14.53208z" style="fill:#edc656;fill-opacity:1;fill-rule:nonzero;stroke:#000;stroke-width:1.61049175;stroke-miterlimit:4;stroke-dasharray:none" transform="matrix(1 0 0 .8675 0 22.61083)"/>
        <path style="fill:#fff;fill-opacity:1" d="M26.93145 160.10292v-1.66655h436.7709v1.66655z" transform="matrix(1 0 0 .8675 0 22.61083)"/>
        <path d="M26.93145 167.59828v-1.66655h436.7709v1.66655z" style="fill:#d5a92d;fill-opacity:1" transform="matrix(1 0 0 .8675 0 22.61083)"/>
      </g>
      <use xlink:href="#c" transform="translate(0 -38.717273)" width="500" height="643"/>
    </g>
    <g id="d" transform="translate(0 .00000584)">
      <circle r="29.3048" cy="30.451099" cx="30.896601" style="fill:#fff;stroke:#000;stroke-width:1.5;stroke-miterlimit:4;stroke-dasharray:none"/>
      <circle transform="matrix(.96 0 0 .96 1.2358739 1.2180537)" r="24.9998" cy="30.451099" cx="30.896601" style="fill:#e5e5e5"/>
    </g>
    <use xlink:href="#d" transform="translate(11.572798 58.285417)" width="500" height="643"/>
    <use height="643" width="500" transform="translate(70.993415 58.285417)" xlink:href="#d"/>
    <use xlink:href="#d" transform="translate(130.41403 58.285417)" width="500" height="643"/>
    <use height="643" width="500" transform="translate(189.83465 58.285417)" xlink:href="#d"/>
    <use xlink:href="#d" transform="translate(219.54497 7.3774908)" width="500" height="643"/>
    <use xlink:href="#d" transform="matrix(-1 0 0 1 500.88314 0)" width="500" height="643"/>
    <use height="643" width="500" transform="matrix(-1 0 0 1 489.31035 58.285417)" xlink:href="#d"/>
    <use xlink:href="#d" transform="matrix(-1 0 0 1 429.88973 58.285417)" width="500" height="643"/>
    <use height="643" width="500" transform="matrix(-1 0 0 1 370.4691 58.285417)" xlink:href="#d"/>
    <use xlink:href="#d" transform="matrix(-1 0 0 1 311.04848 58.285417)" width="500" height="643"/>
    <g transform="translate(-.396165 1.890335)">
      <path style="fill:#ed241a;fill-opacity:1" d="M246.3125 132.15625V143h35.90625l-35.90625-10.84375zm0 10.84375h-35.875l35.875 10.875V143z" transform="translate(4.5977371)"/>
      <path style="fill:#f3a29a;fill-opacity:1" d="M246.3125 132.15625 210.4375 143h35.875zm0 10.84375v10.875l35.90625-10.85938z" transform="translate(4.5977371)"/>
      <path style="fill:#fff" d="m246.3125 132.15625-8.375 2.40625 8.375 8.4375v-10.84375zm0 10.84375v10.875l8.375-2.40625L246.3125 143z" transform="translate(4.5977371)"/>
      <path style="fill:none;stroke:#ed1a24;stroke-width:1.15227997" d="m210.267 143.02475 36.051-10.86575 35.895 10.86575-35.895 10.86575z" transform="translate(4.5977371 -.015485)"/>
      <g id="g">
        <path d="M28.53125 132.28125V143l30.583506.0125zm-11.2218 10.69925 11.2218 10.776V143z" style="fill:#f3a29a" transform="translate(5.8748676 -.012235)"/>
        <path style="fill:none" d="M25.2802 132.286v10.739l33.109-.064z" transform="translate(5.8748676 -.012235)"/>
        <path d="m28.53125 153.7565 30.583506-10.744L28.53125 132.286l-11.2218 10.6945z" style="fill:none;stroke:#ed1a24;stroke-width:1.15369999" transform="translate(5.8748676 -.012235)"/>
        <path d="m28.53125 132.28125-11.2218 10.69925 11.2218.0195zm0 10.71875v10.7565l30.583506-10.744z" style="fill:#ed241a" transform="translate(5.8748676 -.012235)"/>
        <path d="M28.53125 138.65625v4.375H39.25zm0 4.375h-3.25l3.25 5.59375z" style="fill:#fff" transform="translate(5.8748676 -.012235)"/>
      </g>
      <g id="h" transform="translate(6.5749836 .847465)">
        <path style="fill:#155bdb;fill-opacity:1" d="M133.316 132.402c15.8961 0 19.5871 4.39172 19.5871 9.75941 0 5.36797-4.62133 9.75969-19.5871 9.75969-14.9658 0-19.514-4.39172-19.514-9.75969 0-5.36769 3.61786-9.75941 19.514-9.75941z"/>
        <path style="fill:#fff" d="M132.36556 149.96445c9.93969 0 18.1253-3.68994 18.1253-8.80729 0-1.75678-.94989-3.94776-2.63084-5.32259H147.86c2.41172 1.6038 3.87326 3.33445 3.87326 6.23914 0 5.19367-8.40473 8.95995-18.7829 8.95995-10.3051 0-18.45467-3.2554-18.45467-8.67823.51165 4.73523 8.14958 7.60902 17.86987 7.60902z"/>
        <ellipse ry="4.1105199" rx="5.3195" transform="matrix(-.2249 .80484 -1.28006 -.0776 122.153 140.414)" style="fill:#fff"/>
        <path d="M138.896 147.285c2.79043-2.79071 6.51118-8.37185 0-12.5578 12.2477 2.79071 12.2474 9.30189 0 12.5578z" style="fill:#000"/>
      </g>
      <g id="f" transform="translate(3.6609083)">
        <g id="e">
          <path d="M89.36 134.892c3.16318 0 5.73279 1.71553 5.73279 3.74882s-2.56961 3.7491-5.73279 3.7491c-3.26154 0-5.83115-1.71581-5.83115-3.7491S86.09846 134.892 89.36 134.892z" style="fill:#155bdb;fill-opacity:1"/>
          <path d="M86.7907 136.544c1.38331-.63553 3.16262-.57203 3.85427.12699.790867.63553.197858 1.71581-1.18602 2.35106-1.38331.57175-3.16262.50825-3.85455-.12699-.691937-.69931-.197575-1.77931 1.1863-2.35106z" style="fill:#fff"/>
        </g>
        <use height="643" width="500" transform="translate(0 8.73611)" xlink:href="#e"/>
      </g>
      <use x="0" y="0" xlink:href="#f" id="i" transform="translate(93.911614)" width="500" height="643"/>
      <use height="643" width="500" xlink:href="#g" transform="matrix(-1 0 0 1 501.67547 0)"/>
      <use height="643" width="500" xlink:href="#h" transform="translate(221.82039)"/>
      <use height="643" width="500" xlink:href="#f" transform="translate(315.73202)"/>
      <use height="643" width="500" xlink:href="#i" transform="translate(127.90879)"/>
    </g>
  </g>
</svg>
