<svg xmlns="http://www.w3.org/2000/svg" xmlns:xlink="http://www.w3.org/1999/xlink" width="1000" height="700">
  <path style="color:#000;display:inline;overflow:visible;visibility:visible;fill:#1153d4;fill-opacity:1;fill-rule:nonzero;stroke:none;stroke-width:.501716;marker:none;enable-background:accumulate" d="M140.79321 130.32101h500v700h-500z" transform="translate(109.20679 -130.32101)"/>
  <path style="color:#000;display:inline;overflow:visible;visibility:visible;fill:#fff;fill-opacity:1;fill-rule:nonzero;stroke:none;stroke-width:.354766;marker:none;enable-background:accumulate" d="M-109.20679 130.32101h250v700h-250zM640.79321 130.32101h250v700h-250z" transform="translate(109.20679 -130.32101)"/>
  <g style="fill-rule:evenodd">
    <g transform="matrix(1.24668 0 0 1.24668 183.42269068 -134.2534225)">
      <g style="fill:#155bdb" transform="translate(.596575 2)">
        <use style="fill:#155bdb" height="643" width="500" transform="translate(143.08905)" xlink:href="#a"/>
        <use style="fill:#155bdb" xlink:href="#a" transform="translate(286.17812)" width="500" height="643"/>
        <use style="fill:#155bdb" xlink:href="#a" transform="translate(71.544523 309.2139)" width="500" height="643"/>
        <use style="fill:#155bdb" height="643" width="500" transform="translate(214.63357 309.2139)" xlink:href="#a"/>
      </g>
      <path style="fill:#fff;fill-opacity:1" d="M121.69684 210.54963c4.70282-.6139 16.12803 2.70227 24.50614 10.54027v-41.75569c-7.77032 7.02707-16.28353 11.4868-25.13432 14.18883 2.70222-12.43241 7.02633-21.62138 12.97246-27.56678H93.096375c5.946137 5.9454 10.270245 15.13437 12.972475 27.56678-8.850799-2.70203-17.364008-7.16176-25.134328-14.18883v41.75569c8.378107-7.838 19.803318-11.15417 24.506148-10.54027l8.12808 47.83618z" transform="translate(5.3005844 -8.0213285)" id="b"/>
      <use xlink:href="#b" transform="translate(135.06773)" width="500" height="643"/>
      <use height="643" width="500" transform="translate(270.13545)" xlink:href="#b"/>
      <use height="643" width="500" transform="translate(67.533859 381.40587)" xlink:href="#b"/>
      <use xlink:href="#b" transform="translate(202.60158 381.40587)" width="500" height="643"/>
    </g>
    <path d="m275.726 384.92 32.3243 33.2544 9.76706 16.511-11.632 17.898-1.68803-3.20117c-3.81997 2.78277-5.77928 5.56583-5.87792 8.34889l-3.41405-4.39087-5.28095 9.05131c-1.10296-1.37991-1.58599-3.06964-1.44794-5.06948-3.05206 2.85874-5.17408 6.6481-6.3652 11.3678-1.50775-1.09814-2.39556-2.50668-2.66258-4.22504-7.20596 7.06082-21.2352-.37729-38.3652-14.4051.95499-3.6292 8.87982 2.50186 15.1659.72737 5.51849-1.55821 9.49182-7.02936 12.6916-11.5914 1.79462-2.55912 3.98438-4.51446 4.51474-6.10753 3.47301-10.4307-22.4892-6.29887-19.1993-33.9817l3.4696-14.1863z" style="fill:#fff" transform="matrix(1.19615 0 0 1.31057 215.10243593 -146.79622752)"/>
    <path d="m152.475 334.224 25.1153-.23244c-.11565 4.10854-2.13109 6.97635-9.06945 8.60429l-28.6036-.93005c1.3955-3.72132 5.58142-6.20221 12.5578-7.4418z" style="fill:#d5a92d;fill-opacity:1" transform="matrix(1.19615 0 0 1.31057 215.10243593 -146.79622752)"/>
    <path d="M79.6873 400.035c.318331-1.6115 1.33484-4.69588 5.14233-4.36904 7.25896 3.98523 13.0833 13.125 22.371 11.3618l32.9494 24.1688v2.79043c-2.15008 3.30492-6.00548 3.66435-9.47254 4.5669l-.54028-4.92066c-7.16145-.67351-8.50933 4.00195-13.8101 3.56088l-.80051-3.98835-8.11815.017-.20608-6.00265c-2.05965 1.28296-4.07991 2.64444-6.77197 2.66258-1.624247-1.08142-2.628567-2.78362-3.011807-5.10492-5.75632.62816-8.95352-.87562-10.9874-3.34829.181701-2.41625-.557292-7.80974-2.15065-11.9137-1.80567-4.65137-4.51106-7.97811-4.59326-9.48076z" style="fill:#fff" transform="matrix(1.19615 0 0 1.31057 215.10243593 -146.79622752)"/>
    <path transform="matrix(1.02282 0 0 1 247.5618739 14.06133097)" d="M348.28125 203.875c-3.56228-.0918-6.8765 1.29821-9.96875 3.9375-10.27569-2.73363-14.49429-2.57476-18.75-.4375 1.13758 1.8611 2.0355 2.88957 3.125 5.15625-17.85908-2.22284-22.78865-.87035-26.6875.125.43117.80992.99277 2.46059 1.75 4.78125-7.76721-1.05018-9.67525-.33042-13.71875 1.125.6752 1.28662.12497 1.88546 2.75 3.78125-3.0665-.58918-5.94482-.15163-8.28125.6875.34527.53058 1.52146 2.36298 3.5 3.5625-5.40755-2.84689-11.24257-2.02145-13.46875-1.4375-.13796 1.0381 1.23107 2.66691 4.28125 4.375-7.03741-1.2778-9.24753-.61575-11.5625.0937.92809 1.27548 1.66346 2.74059 3.90625 3.75-7.17287-1.51039-9.86733-1.49936-14.8125-.5625 1.79117 2.40223 3.20189 3.66536 6.34375 5.0625-10.81775-1.98479-14.8082-1.747-17.28125-.6875 1.13156.6968.99599 2.47902 4.21875 4.65625-5.63261.47131-6.89141 1.58893-8.25 1.96875 1.05822 2.01333 8.50001 4.10577 13.53125 5.90625-7.91872 2.5922-5.75989 1.97439-9.09375 4.6875 4.79935.78976 7.07569.63204 11.625.21875-.32355 1.54158.1866 2.6035.0625 3.53125 6.3678-.63321 14.17364-5.26009 24.21875-4.625-5.05924 1.45153-5.58746 2.01156-7.09375 3.09375 4.42986 1.5504 17.54226.58712 23.3125-1.53125-3.89974 2.35585-3.64178 2.95677-4.46875 4.21875 4.68439.88128 19.03421-2.69036 24.53125-3.03125-6.06607 2.40599-5.45513 2.88618-7.78125 5.25 4.74791 1.0127 9.01472 1.20093 19.09375-2.34375-2.12319 3.82364-3.8316 5.35298-4.03125 8.4375 5.6572-.65347 12.59137-4.51149 21.84375-8.5 6.50161 6.92049-12.34997 20.69436 13.78125 2.28125 34.61305-5.43395 66.93466 28.98059 38.84375 37.5625-6.1116 2.3366-12.59767-1.22032-19.15625-1.21875-14.00427-9.83732-24.68508-12.26038-41.59375-13.7812-32.46536-2.92073-77.43672 17.33253-100.65625 22.03125l-5.9375-.4375c.14971-2.40819-3.15685-3.60189-9.625-5.0625-2.63274-4.33985-6.46694-5.03923-12 .375-.32255-4.22507.0252-5.67073-1.84375-5.125l-2.6875 2.125c-.0882-1.97526.40801-4.38501-2-4.625-17.57282 3.00945-36.50193 26.7819-51.59375 25.65625-11.32664-.84479-14.39684-1.70487-27.5-15.375 5.93908-6.69109 11.01388-2.27787 18.3125-4.625 7.29862-2.34751 4.33948-5.69282 18.4375-10.25l-4.4375-2.125c3.5139-2.04771 4.32794-5.90577 3.21875-9.78125-2.40669 4.25478-4.81272 7.27674-7.21875 9.09375-5.82512-.25485-9.96953 2.65987-13.5 2.0625-10.27847-1.74009-12.69666-7.36101-3.6875-13 1.92402-1.20441 6.80608-.48577 10.375-2 4.58828-1.94741 4.79012-6.91507 11.5-5.78125l.40625 10.625c4.06153-3.00171 6.4822-6.90166 6.1875-12.34375.89835-3.61803 3.18019-7.83534 2.71875-10.84375-1.08701-2.20968-10.61846-3.2941-22.65625-5.8125-3.37035-.70473-8.16653-2.90982-11.53125-3.59375-4.00584-.81395-7.92401-.19157-11.34375-.96875-4.99735-1.13642-8.95601-3.56346-10.78125-3.71875-5.991575-.51044-3.95152 4.36157-16.65625 4.34375-19.482559-10.01378-26.179816-.34761-18.375 20.625C56.524586 289.23019 56.689254 318.2655 75 354.25l2.28125-3.8125c15.629891 25.80441 37.62323 46.30858 59.78125 55.65625-16.13404 37.88325-39.066541 10.53105-41.875 16.71875-2.012866 5.21291 2.328014 14.39869 8.6875 21.4375 4.77696 5.28718 12.16954 9.91087 14.375 10.28125 3.08128.25559 6.16207-3.75546 10.875-4.71875 3.29574 4.87072 5.50823-.0176 13.15625-4.59375 3.67964 7.36938 5.90814 5.38432 6.6875-5.9375 3.10218-.69954 3.97512 4.83212 7.25 4.5 2.69509-.27312-.59981-8.12984 9.375-13.40625C166.68871 437.40488 175.94072 425.291 183 409l7.875-2.6875c22.14188-9.02745 43.92658-22.93951 65.34375-41.71875 6.32538-.71662 11.93747-4.25122 16.8125-10.65625 5.44753.13895 10.89556-1.76261 16.34375-5.6875.15415 1.83558 2.97839 5.88818 6.46875 6.53125 2.5038.46171 14.19322 13.80488 17.125 15.78125 10.81957 7.29448 8.11972 24.43823 49.875 22.3125 2.70495 5.46252 9.39798 8.13256 17.90625 9.53125.30266 10.34808-.19835 17.20886-5.625 20.21875-9.81957 5.44618-20.5943-1.03865-32.1875 2.15625 6.05952 9.49887 5.336 5.02037 11.8125 11.8125 6.08432 6.38052-1.51443 5.68893 18.90625 18.5625 3.48439.0576 7.50444-8.71369 16.15625-9.875 2.44282 4.46278 5.16944 12.88808 8.15625-9.46875 8.81423 16.21115 7.29698-.50175 9.3125-8.0625l3.125 6.125c2.89497-6.04027 3.27468-12.49182 1.09375-19.34375 2.29232 1.28167 4.58169 3.77943 6.875 7.5.544-11.63724.41223-19.71278-1.21875-19.96875 3.4078-5.48918 3.27168-12.49521.96875-18.59375-1.84973-4.89933-8.00827-3.34621-14.625-6.40625-2.58867-1.19733-4.15721-6.13984-7.75-6.375 7.98848-6.93509-1.70075-13.87851-5.40625-17.15625.27382-7.92526-4.32968-9.13833-5.6875-14.625-2.7667-2.28434-.63955-2.73926-3.40625-5.9375l-1-5.65625c13.11318-.35878 23.67516 6.79392 22.84375-3.21875 8.79392-2.23036 20.59492 5.33178 13.03125-3.34375 9.54445-.44411 17.10649-1.29191 10.78125-4.9375 14.77465-2.31077 17.77566-5.31794 8.96875-12.0625 6.4261-5.59893 11.30918-9.62947 3-9.90625 9.47987-8.69231 10.38164-13.49161 2.71875-14.375 3.42155-4.89371 6.43649-7.31744.5-10.71875 2.08728-6.69561 2.88735-11.70266.21875-10.34375-3.61211-16.81128-6.27095-18.71286-8.25-10.40625-6.00794-10.351-9.27491-13.55447-9.8125-9.65625-8.24991-3.42839-5.5623-13.90889-16.6875-11.0625-3.78069-2.147-11.46058-20.00559-11.34375-6.4375-6.05591-5.13616-13.16918-14.07285-13.09375-2.9375-16.19897-14.42512-20.65494-13.55883-19.75-5.75-5.51999-5.57967-10.51367-8.16318-15.09375-8.28125z" style="fill:#fff;stroke:#1153d4;stroke-width:1.30975;stroke-opacity:1"/>
    <path d="M88.7568 316.783c7.86274-8.68026 9.487-4.49178 18.3713-.93033l-.23244-2.55799c-7.209071-.69761-15.115801-6.74391-18.138901 3.48832zM132.476 352.595c-9.27421 3.63547-14.64555 1.84297-21.3945.46517 6.58857 4.57399 14.8051 4.8841 21.3945-.46517z" style="fill:#1153d4" transform="matrix(1.19615 0 0 1.31057 215.10243593 -146.79622752)"/>
    <path style="fill:none;stroke:#1153d4;stroke-width:1.41732" d="m124.802 328.41-2.093 4.18601M113.174 318.41101h-3.255M118.058 322.36401l-3.488 3.95298M121.546 325.38699l-2.79 3.95301M117.128 320.96899l-5.582 1.62702M231.076 399.338c5.92186-.35688 10.3598-2.19713 10.6974-8.13941M225.728 390.501c8.25563-2.63509 14.3793-6.43266 15.8131-12.7902M215.031 375.385c7.44152-1.39465 13.7203-3.95263 17.4413-9.06945" transform="matrix(1.19615 0 0 1.31057 215.10243593 -146.79622752)"/>
    <path d="M215.961 362.595c1.96668-1.32747 4.07877-2.93584 8.60429-4.41865l-.23272 1.48537-8.37156 2.93328z" style="fill:#1153d4" transform="matrix(1.19615 0 0 1.31057 215.10243593 -146.79622752)"/>
    <path d="M203.868 360.269c.77471-3.25531 4.34041-4.34041 10.6971-3.25559" style="fill:none;stroke:#1153d4;stroke-width:.992126" transform="matrix(1.19615 0 0 1.31057 215.10243593 -146.79622752)"/>
    <path style="fill:#1153d4" d="m195.962 352.363-1.628.465.93-3.721 2.558-.233z" transform="matrix(1.19615 0 0 1.31057 215.10243593 -146.79622752)"/>
    <path d="M198.59685 354.86862c2.42849-1.11165 3.74603-2.81599 4.13409-3.66894M214.333 354.688c2.17021 1.16277 4.34041 1.70504 6.51147 1.62765M208.752 352.363c-1.62765 1.62794-3.87581 2.63509-6.74391 3.02315M375.722 415.849c5.11597 2.09254 7.75106 5.11569 7.90668 9.06917" style="fill:none;stroke:#1153d4;stroke-width:.992126" transform="matrix(1.19615 0 0 1.31057 215.10243593 -146.79622752)"/>
    <path d="M344.793 383.757c2.79043-2.09282 7.44152-2.32554 12.0926-2.55799" style="fill:none;stroke:#1153d4;stroke-width:1.41732" transform="matrix(1.19615 0 0 1.31057 215.10243593 -146.79622752)"/>
    <path d="m355.955 393.757 4.18592-2.55827 3.25559 2.55827c-2.79071-.93033-5.27159-.93033-7.44152 0zM183.869 435.383c.69761-3.25588 5.46548-7.20964 6.74391-11.2785 1.27871-4.06942-.46517-9.18596-.69761-14.7671l5.11597-3.25559-3.02315 4.65081.46517 2.32554 3.48832-3.25559-3.02315 4.65081 2.55799.69761-2.09282 2.55827-.23273 2.32526 3.02315-2.32526c-1.39805 1.78186-2.56309 3.64224-2.09282 6.0463l7.20907.6976-8.13941 1.16277c-1.0851 2.40293-3.10082 5.03859-3.72076 7.67396l-5.58114 2.0931z" style="fill:#1153d4" transform="matrix(1.19615 0 0 1.31057 215.10243593 -146.79622752)"/>
    <path style="fill:none;stroke:#1153d4;stroke-width:.992126" d="m146.196 316.31799 13.953 1.86002M145.731 322.829c3.87525-2.0931 8.68139-2.63537 14.4179-1.62794" transform="matrix(1.19615 0 0 1.31057 215.10243593 -146.79622752)"/>
    <path style="fill:#1153d4" d="m121.779 312.597 10.232.698-3.23154 3.21708 3.69654 4.22392-6.977-4.418 4.30323-2.33946-6.20115-.32231-1.35708.80077z" transform="matrix(1.19615 0 0 1.31057 215.10243593 -146.79622752)"/>
    <path style="fill:none;stroke:#fff;stroke-width:.992;stroke-linecap:round;stroke-miterlimit:4;stroke-dasharray:none;stroke-opacity:1" d="m158.754 303.52701 3.04643 12.26656M148.522 300.272l10.17257 14.82357M142.94 303.99301l14.00872 11.04415m-14.93873-6.39315 9.98644 5.39386" transform="matrix(1.19615 0 0 1.31057 215.10243593 -146.79622752)"/>
    <path d="M161.98657 325.49229c-1.93776-.77556-4.33171.14606-5.13896 1.23145" style="fill:none;stroke:#1153d4;stroke-width:.709;stroke-linecap:round;stroke-miterlimit:4;stroke-dasharray:none" transform="matrix(1.19615 0 0 1.31057 215.10243593 -146.79622752)"/>
    <path d="M153.00929 340.60729c1.13514 1.1395 2.84009.84831 2.84009.84831" style="fill:none;stroke:#1153d4;stroke-width:.708662;stroke-linecap:round" transform="matrix(1.19615 0 0 1.31057 215.10243593 -146.79622752)"/>
    <path d="M256.657 398.407c7.1297-1.08595 21.0833 2.94435 38.1379 9.30189" style="fill:none;stroke:#1153d4;stroke-width:.992126" transform="matrix(1.19615 0 0 1.31057 215.10243593 -146.79622752)"/>
    <path d="M309.445 437.476c3.17821-2.0931 3.56599-4.49603 1.16277-7.20907 4.49603 2.40293 3.17821 6.89868-1.16277 7.20907z" style="fill:#1153d4" transform="matrix(1.19615 0 0 1.31057 215.10243593 -146.79622752)"/>
    <path d="M108.756 414.918c1.31754.0777 2.63509-.15477 3.9532-.69761M112.244 419.104c2.01543-.0774 3.72019-.46488 5.11625-1.16277" style="fill:none;stroke:#1153d4;stroke-width:.708662" transform="matrix(1.19615 0 0 1.31057 215.10243593 -146.79622752)"/>
    <path d="M116.662 423.523c2.71304.0777 5.03859.0777 6.27903-.69761" style="fill:none;stroke:#1153d4;stroke-width:.992126" transform="matrix(1.19615 0 0 1.31057 215.10243593 -146.79622752)"/>
    <path d="M120.848 427.476c3.33326.3875 6.35613.15505 9.06945-.69789" style="fill:none;stroke:#1153d4;stroke-width:1.41732" transform="matrix(1.19615 0 0 1.31057 215.10243593 -146.79622752)"/>
    <g style="fill:#d5a92d;fill-opacity:1">
      <path style="fill:#d5a92d;fill-opacity:1;stroke:#155bdb;stroke-width:.992126" d="M313.399 460.73c-1.43547-5.19364-.35008-9.612 6.27874-12.325 2.79043.23273 4.0303 1.3955 3.72076 3.48803.19361 3.10082-2.34482 1.37594-4.44756 3.22696-2.10274 1.85074-3.07162 5.41644-5.55194 5.61005z" transform="matrix(1.19615 0 0 1.31057 215.10243593 -146.79622752)"/>
      <path style="fill:#d5a92d;fill-opacity:1;stroke:#155bdb;stroke-width:.992126" d="M320.916 466.858c-2.87943-5.16359-4.56236-10.8335 2.92904-13.7478 2.78447-.29395 4.22022.61568 4.3081 2.72948.77102 3.00926-2.04548 1.79065-3.76441 4.00281-1.71865 2.21188-1.07235 6.36066-3.47273 7.01547z" transform="matrix(1.19615 0 0 1.31057 215.10243593 -146.79622752)"/>
      <path style="fill:#d5a92d;fill-opacity:1;stroke:#155bdb;stroke-width:.992126" d="M326.497 471.51c-2.87972-5.16388-4.56265-10.8335 2.92876-13.748 2.78447-.29395 4.22022.61597 4.30838 2.72948.77074 3.00954-2.04576 1.79093-3.76469 4.00281-1.71865 2.21216-1.07235 6.36095-3.47244 7.01575z" transform="matrix(1.19615 0 0 1.31057 215.10243593 -146.79622752)"/>
      <path style="fill:#d5a92d;fill-opacity:1;stroke:#155bdb;stroke-width:.992126" d="M334.478 476.019c-3.96227-2.49194-6.21496-8.71257-.9-12.8849 2.69121-.77358 4.26303.33817 4.71714 2.40435.35178 3.52715-1.4709 1.65402-2.77909 4.13093-1.30847 2.47691 1.21181 5.28775-1.03805 6.34961zM345.101 478.985c-4.6114-.80277-9.055-5.70444-5.71975-11.581 2.19685-1.73622 4.0731-1.30365 5.2767.43597 1.66337 3.1303-.73361 2.088-1.00488 4.87616-.27099 2.78816 3.1269 4.4331 1.44794 6.26882zM94.6259 452.671c.443055-5.36996 3.91521-7.98095 10.3754-8.01015 2.53899.2503 3.53452 2.23399 2.52255 4.09181-1.35213 2.74479-3.66888.69562-6.44996 1.03096-2.61156.31465-4.05298 3.5606-6.44797 2.88737z" transform="matrix(1.19615 0 0 1.31057 215.10243593 -146.79622752)"/>
      <path style="fill:#d5a92d;fill-opacity:1;stroke:#155bdb;stroke-width:.992126" d="M100.023 462.208c-2.34851-4.80983-1.75606-10.5902 4.09181-12.818 2.78447-.29395 3.75506.38353 3.84321 2.49704.0731 3.70715-2.04576 1.79093-3.76441 4.00281-1.71893 2.21216-2.46813 3.57024-4.17062 6.31814z" transform="matrix(1.19615 0 0 1.31057 215.10243593 -146.79622752)"/>
      <path style="fill:#d5a92d;fill-opacity:1;stroke:#155bdb;stroke-width:.992126" d="M105.604 468.719c-2.25184-3.52942-4.69899-8.57311 1.53354-14.2129 2.78447-.29395 5.38299 1.77874 5.47115 3.89225.0734 3.2417-1.36517 3.39109-3.53197 5.16558-2.41597 1.97887-2.93301 3.80268-3.47273 5.15509zM114.515 477.879c-4.42914-.85805-7.6904-9.94167-1.59761-16.8384 2.69121-.77329 4.26303 1.73367 4.71714 3.79984.35178 3.29471-1.32888 2.43865-2.31392 5.06098-.84302 2.24419.049 4.59014-.80561 7.97755zM120.255 480.613c-2.51717-2.19855-2.77512-10.0451-.6035-13.2083 2.66315-1.71751 4.38605-.39317 4.81125 1.36602 1.95421 3.67795-3.16772 6.3584-4.20775 11.8423zM235.728 462.126c-1.43547-5.19336-.35008-9.612 6.27874-12.325 2.79043.23272 4.0303 1.3955 3.72076 3.48832.19361 3.10054-2.34482 1.37594-4.44756 3.22668-2.10274 1.85074-3.07162 5.41644-5.55194 5.61005z" transform="matrix(1.19615 0 0 1.31057 215.10243593 -146.79622752)"/>
      <path style="fill:#d5a92d;fill-opacity:1;stroke:#155bdb;stroke-width:.992126" d="M242.521 467.473c-1.91452-5.59361-2.56224-11.4724 5.32829-13.0073 2.79241.20608 4.04334 1.35695 3.75392 3.45232.22309 3.09884-2.3315 1.39833-4.41638 3.2692-2.08517 1.87087-2.18721 6.0687-4.66583 6.28583zM251.862 474.102c-3.54331-4.73301-5.96835-10.1271 1.06668-14.0159 2.72041-.66302 4.26473.0471 4.63436 2.12995 1.16589 2.87943-1.7881 2.04775-3.19635 4.46939-1.40797 2.42192-.21345 6.44712-2.50469 7.41657z" transform="matrix(1.19615 0 0 1.31057 215.10243593 -146.79622752)"/>
      <path style="fill:#d5a92d;fill-opacity:1;stroke:#155bdb;stroke-width:.992126" d="M260.76 475.786c-3.96227-2.49194-6.21496-8.71257-.9-12.8852 2.69093-.77329 4.26303.33846 4.71714 2.40463.35178 3.52715-1.4709 1.65373-2.77909 4.13093-1.30847 2.47691 1.21181 5.28775-1.03805 6.34961zM272.313 478.288c-4.61112-.80277-9.055-5.70444-5.71975-11.581 2.19685-1.73622 4.0731-1.30365 5.2767.43568 1.66337 3.13058-.73361 2.08828-1.0046 4.87644-.27128 2.78816 3.12662 4.4331 1.44765 6.26882zM67.1851 402.906c.443055-5.36996 3.91521-7.98067 10.3754-8.00986 2.53899.2503 3.99969 1.7691 2.988 3.62693-1.35241 2.74479-3.43673.92806-6.21751 1.2634-2.61184.31465-4.75059 3.32788-7.14586 3.11953z" transform="matrix(1.19615 0 0 1.31057 215.10243593 -146.79622752)"/>
      <path style="fill:#d5a92d;fill-opacity:1;stroke:#155bdb;stroke-width:.992126" d="M69.327 412.442c-2.34851-4.80983 2.89446-10.8227 8.74234-13.0504 2.78447-.29424 2.59257 3.4064 2.68073 5.52019.07342 3.70687-2.1617 2.85959-4.92718 3.30492-2.18353.35178-4.79339 1.47742-6.49588 4.22532z" transform="matrix(1.19615 0 0 1.31057 215.10243593 -146.79622752)"/>
      <path style="fill:#d5a92d;fill-opacity:1;stroke:#155bdb;stroke-width:.992126" d="M71.8847 419.884c-2.25156-3.52942 1.81276-11.3638 8.51018-12.8177 2.78476-.29395 3.9875 2.70879 4.07566 4.82259.07342 3.2417-4.62133 1.76372-6.3224 2.14214-3.04781.67833-5.72344 4.50057-6.26344 5.85298zM75.6794 428.811c-1.52249-8.66892 3.48066-11.4775 7.70429-13.117 3.15808-1.24016 4.11052 2.58378 1.92671 4.49717-1.04372 1.89978-1.97603.64772-4.63947 2.50299-2.55515 1.77987-4.13688 2.72948-4.99153 6.11688zM81.4196 437.126c-2.51717-2.19884 1.64324-11.2082 3.81487-14.3711 2.66315-1.7178 4.15361.76961 4.57881 2.52879 1.95421 3.40668-7.35336 6.00888-8.39367 11.8423z" transform="matrix(1.19615 0 0 1.31057 215.10243593 -146.79622752)"/>
    </g>
  </g>
</svg>
