<?xml version="1.0" encoding="UTF-8"?>
<svg width="500" height="675" version="1.1" viewBox="0 0 132.29166 178.59376" xmlns="http://www.w3.org/2000/svg">
 <defs>
  <clipPath id="a">
   <path d="M0 78.676h528.295v405.103H0Z"/>
  </clipPath>
  <clipPath id="b">
   <path d="M0 78.676h528.295v405.103H0Z"/>
  </clipPath>
  <clipPath id="c">
   <path d="M0 78.676h528.295v405.103H0Z"/>
  </clipPath>
  <clipPath id="d">
   <path d="M0 78.676h528.295v405.103H0Z"/>
  </clipPath>
  <clipPath id="e">
   <path d="M0 78.676h528.295v405.103H0Z"/>
  </clipPath>
 </defs>
 <path transform="matrix(.49461 0 0 -.4946 2.2829409 46.09044714)" d="m0 0v-142.858h0.07c2.152-69.42 59.102-125.037 129.044-125.037s126.892 55.617 129.049 125.037h0.07v142.858z" fill="#d1241c"/>
 <path transform="matrix(.49461 0 0 -.4946 64.689097 120.85472)" d="m-11.400863 26.648611-17.787137-17.089611c-1.569-5.453-2.66-11.033-3.26-16.676-0.538-5.863 0.156-10.936 0.624-14.293 0.218-1.22 0.335-2.456 0.35-3.695-0.134-1.226-0.395-2.433-0.78-3.604-0.325-0.989-0.553-2.007-0.684-3.04-0.01-1.273 0.097-2.544 0.318-3.797 0.273-1.53 0.385-3.084 0.333-4.637-0.113-1.076-0.823-2.642-1.651-4.481-1.027-2.276-2.184-4.842-2.566-7.198-0.678-4.19 0.317-16.676 0.328-16.826 0.597-6.455 0.145-7.703-0.952-8.774-1.131-1.07-2.345-2.049-3.631-2.926-2.184-1.614-4.653-3.411-5.277-4.777-0.538-1.194 0.124-3.61 0.129-3.637v-0.032c0-0.217 0.176-0.393 0.393-0.393s0.392 0.176 0.392 0.393c0.358 1.475 1.315 2.733 2.642 3.47l0.279 0.15-0.086-0.301c-0.44-1.563-0.521-3.205-0.236-4.803-9e-3 -0.223 0.164-0.411 0.386-0.42h6e-3c0.217 0 0.393 0.176 0.393 0.393v0.053c0.043 0.092 1.033 2.26 2.813 2.927l0.226 0.086-0.048-0.237c-0.651-3.184-0.194-4.389-0.188-4.4v-0.049c-0.026-0.215 0.128-0.41 0.344-0.435 0.215-0.026 0.41 0.128 0.436 0.344 3e-3 0.03 3e-3 0.061 0 0.091v0.06c0.354 0.631 0.747 1.24 1.178 1.823 0.242 0.378 0.525 0.728 0.844 1.044 0.302 0.343 0.629 0.663 0.979 0.957l0.221 0.183v-0.285c0-2.56 0.274-4.718 0.274-4.739 0-0.022 0.081-0.447 0.377-0.538s0.774 0.215 1.339 0.85c0.167 0.188 0.318 0.371 0.463 0.538 0.208 0.388 0.462 0.749 0.758 1.076 0.305 0.456 0.538 0.957 0.689 1.484v0.043l0.037 0.033c0.155 0.121 0.342 0.192 0.538 0.204h0.081c0.194-0.028 0.365-0.14 0.468-0.306l0.032-0.049v-0.059c-0.203-1.305-0.311-2.623-0.322-3.943 0.118-0.775 0.441-1.915 0.78-1.974 0.338-0.059 1.882 1.339 2.727 2.549 0.298 0.522 0.566 1.061 0.801 1.614 0 0 0.856 2.055 1.195 2.932l0.581 1.28 0.43 0.646c0.44 0.587 0.802 1.229 1.076 1.909 6e-3 0.027 0.017 0.053 0.032 0.076l0.048 0.204c0 0.28 0.038 0.673 0.081 1.237v0.377c-0.844-0.683-1.581-1.221-1.614-1.227-0.183-0.086-1.613-0.699-2.21-0.441-0.123 0.042-0.219 0.137-0.264 0.259-0.123 0.513 0.039 1.053 0.425 1.414h0.032c0.775 0.348 1.499 0.801 2.152 1.345 0.652 0.87 1.101 1.876 1.312 2.943-0.037 0.451-0.08 0.925-0.123 1.382 0 0.059 0 0.129-0.033 0.194-0.039 0.272-0.071 0.536-0.096 0.79-0.135 0.592-0.296 1.254-0.452 1.872-0.194 0.775-0.377 1.501-0.463 1.969-0.197 1.659-0.31 3.327-0.339 4.998 0 0.597-0.048 1.129-0.07 1.506-0.053 0.968 0.339 4.056 0.657 6.536 0.156 1.237 0.29 2.302 0.317 2.689 0.07 1.076 0.656 3.863 1.312 4.347 0.088 0.071 0.203 0.097 0.313 0.07 0.753-0.189 0.446-1.926 0.414-2.152 0-0.086-1.302-9.145-0.737-14.212 0.23 0.848 0.621 1.644 1.151 2.345 2.114 3.007 4.685 8.892 5.492 11.953 0.452 1.716 0.447 4.954 0.441 7.805 0 2.276 0 4.239 0.205 5.159 0.232 0.856 0.595 1.671 1.076 2.416 0.637 0.998 1.098 2.099 1.361 3.254 0.27 1.082 0.37 2.2 0.295 3.314-0.043 0.618-0.034 1.239 0.027 1.855 0.06 0.944 0.294 1.869 0.689 2.728 0.253 0.963 0.586 1.958 0.941 3.012 0.572 1.593 1.041 3.221 1.404 4.874 0.398 2.325 0.521 4.688 0.366 7.041 0 0.377 0.215 0.662 0.495 0.662s0.721-0.667 0.737-0.99c0.995-3.873 0.156-7.579-0.796-11.485 1.624 1.437 5.314 5.606 8.031 24.514zm-17.497137-53.324611c1.497 0.103 3.001 0.07 4.492-0.097l0.204-0.032c0.169-0.032 0.325-0.07 0.468-0.113l0.388-0.081h0.054l0.145-0.043c0.209-0.056 0.378-0.21 0.452-0.414 0.051-0.103 0.065-0.221 0.037-0.334-0.025-0.139-0.104-0.263-0.22-0.344-0.191-0.146-0.427-0.221-0.667-0.21h-0.059c-0.178 0-0.673 0.065-1.727 0.205-1.17 0.199-2.353 0.316-3.54 0.349-0.286-0.022-0.539 0.184-0.575 0.468-6e-3 0.243 0.231 0.641 0.548 0.646zm7.962-11.791c-0.049-0.054-2.399-2.507-5.439-2.507-0.492-1e-3 -0.983 0.066-1.458 0.199-1.522 0.443-2.823 1.442-3.647 2.797-0.14 0.113-0.221 0.283-0.22 0.463-3e-3 0.338 0.269 0.615 0.608 0.618h0.01c0.162 2e-3 0.317-0.062 0.431-0.177 2.598-2.281 4.604-2.001 5.347-1.775 0.15 0.043 3.722 1.194 4.099 6.708 0.333 4.986 1.076 7.385 1.77 9.08 0.417 0.859 0.908 1.68 1.468 2.453 0.442 0.606 0.833 1.249 1.167 1.92 0.243 0.66 0.424 1.34 0.538 2.034 6e-3 0.336 0.282 0.605 0.619 0.602 0.328 0 0.941-0.371 0.941-0.726-0.166-1.834-0.936-3.588-1.683-5.277-0.178-0.398-0.35-0.791-0.511-1.178-0.187-0.429-0.397-0.847-0.63-1.254-0.704-1.285-1.366-2.506-1.307-6.455 0.124-5.132-2.006-7.423-2.103-7.525zm5.492 2.264c-0.688-0.773-1.224-1.669-1.582-2.641 0-0.297-0.24-0.538-0.537-0.538-0.298 0-0.538 0.241-0.538 0.538 0.077 0.837 0.393 1.634 0.909 2.297 0.502 0.672 0.798 1.476 0.85 2.313l0.032 0.301c-0.014 0.437-0.109 0.868-0.28 1.27-0.189 0.455-0.29 0.943-0.296 1.436 0.109 0.573 0.275 1.133 0.495 1.673l0.092 0.226 0.037-0.048c0.184 0.233 0.522 0.274 0.756 0.091 0.056-0.044 0.103-0.099 0.137-0.161 0.018-0.024 0.031-0.052 0.038-0.081 0.076-0.158 0.114-0.331 0.113-0.506 3e-3 -0.037 3e-3 -0.075 0-0.113 0.183-1.016 0.667-2.899 0.672-2.921 0.163-1.125-0.164-2.267-0.898-3.136z" fill="#f8baa2"/>
 <path transform="matrix(.49461 0 0 -.4946 57.04231313 135.4510794)" d="m0 0" fill="#f8baa2"/>
 <path transform="matrix(.49461 0 0 -.4946 82.215006 165.65211)" d="m0 0 0.296-0.108 0.29-0.113c0.332-0.135 0.654-0.293 0.963-0.473 0.124-0.075 0.264-0.151 0.457-0.253 0.577-0.314 1.118-0.689 1.614-1.119 0.51-0.456 1.078-0.844 1.689-1.151 2.97-0.817 6.114-0.753 9.048 0.183 0.5 0.219 1.056 0.27 1.587 0.145l0.253-0.032c0.32-0.039 0.636-0.102 0.947-0.188 0.461-0.152 0.946-0.214 1.431-0.183 0.382 0.075 0.538 1.189 0.538 1.979-0.505 0.664-1.164 1.195-1.921 1.544-0.979 0.511-2.56 0.538-3.426 0.538-0.061-7e-3 -0.123-7e-3 -0.183 0-0.063-1e-3 -0.12 0.035-0.146 0.092-0.035 0.097-0.06 0.198-0.075 0.301 1e-3 0.076 0.034 0.149 0.092 0.199 0.016 0.028 0.043 0.047 0.075 0.054 0.044 0.024 0.095 0.035 0.145 0.032 0.653 0.172 1.326 0.253 2.001 0.242 0.225-0.022 0.445-0.08 0.651-0.172 0.145-0.059 0.36-0.151 0.78-0.296 0.271-0.121 0.58-0.121 0.85 0 0.116 0.057 0.208 0.155 0.258 0.274-0.01 0.03-0.01 0.062 0 0.092 3e-3 0.021 3e-3 0.043 0 0.064 0 0.307-0.064 0.452-0.129 0.485-0.017 9e-3 -0.031 0.022-0.043 0.037-0.54 0.662-1.307 1.099-2.152 1.227-0.642 0.099-1.293 0.126-1.942 0.08h-0.839c-0.068 3e-3 -0.123 0.056-0.129 0.124-0.082 1.765-1.079 3.36-2.63 4.207l-2.399 1.178c-1.049 0.538-2.125 1.076-3.158 1.614-3.115 1.581-5.804 2.942-6.724 3.991-1.297 1.463-2.502 3.825-1.862 14.928 1.179 10.107 0.77 15.842 0.205 18.886-2.313-0.296-6.396-0.382-8.747 2.19-1e-3 0.012-1e-3 0.025 0 0.037-0.174 0.098-0.286 0.279-0.296 0.479 0 0.371 0.415 0.662 0.947 0.662 0.239 4e-3 0.474-0.066 0.672-0.199 2.652-1.437 4.772-1.738 6.294-0.893 2.152 1.189 2.356 4.303 2.362 4.335 0 0.041 0.02 0.08 0.054 0.103 0.107 1.481-0.043 2.969-0.442 4.4-0.312 1.157-0.466 2.352-0.457 3.55 0.054 1.221 0.506 3.766 1.033 6.767 0.646 3.658 1.377 7.806 1.641 10.91 0.376 4.389-0.414 12.281-0.796 15.648l-16.356667 16.78424-13.859333-22.19624c0.517-8.042 2.403-15.938 5.579-23.346l2.598-6.654c2e-3 -0.018 2e-3 -0.036 0-0.054-0.13-2.206-0.076-4.419 0.161-6.616 0.16-1.106 0.486-2.182 0.968-3.19 0.283-0.524 0.452-1.101 0.495-1.695-0.171-1.16-0.424-2.307-0.758-3.432-0.753-2.98-1.894-7.488-2.001-10.511-0.086-2.576 1.156-5.804 2.593-9.537 1.319-3.21 2.398-6.513 3.227-9.882 0.904-4.013 0.188-7.106-0.387-9.591-0.576-2.486-1.076-4.524 0.21-6.574 1.726-3.141 3.534-3.028 6.837-2.533 1.549 0.231 3.824 0.693 6.019 1.135 1.157 0.231 2.346 0.473 3.4 0.672-0.709 0.147-1.429 0.233-2.152 0.258-0.564-5e-3 -1.123-0.092-1.662-0.258-0.1-0.072-0.221-0.11-0.344-0.108h-0.033c-0.269 0-0.468 0.172-0.468 0.377 0 0 0 0.662 0.232 0.753l0.134 0.086h0.038l0.339 0.097c0.329 0.142 0.669 0.259 1.016 0.35 0.909 0.247 3.228 0 4.406-0.323 0.374-0.107 0.739-0.244 1.092-0.409m-9.581 60.603 0.243 0.231c0.086 0.054 1.689 1.017 4.583 0.608 0.215 0 0.538-0.704 0.538-0.85 0.012-0.195-0.137-0.364-0.333-0.376h-6e-3c-1.385 0.115-2.777-0.094-4.067-0.608-0.114-0.082-0.252-0.126-0.393-0.124-0.282-0.023-0.534 0.177-0.575 0.457-7e-3 0.044-0.016 0.087-0.027 0.13-0.022 0.226-0.092 0.43 0.037 0.532m-13.717 8.607c-1.337 3.475-1.941 7.189-1.775 10.909 0 0.334 0.199 0.603 0.457 0.603 0.259 0 0.42-0.226 0.452-0.538 0-0.113 1.555-11.076 6.827-15.353 0.271-0.07 0.462-0.311 0.468-0.591-0.012-0.352-0.305-0.628-0.657-0.619-0.084-2e-3 -0.168 0.012-0.247 0.043-0.796 0.124-3.647 0.92-5.525 5.568zm5.051-16.073c-0.36 1.484-0.279 5.739-0.274 5.917 0.076 0.426 0.401 0.766 0.823 0.861 0.301 0 0.538-0.307 0.538-0.7-0.063-1.439 0.022-2.881 0.253-4.303 0.296-1.307 1.721-3.013 2.152-3.524 0.26-0.179 0.415-0.475 0.414-0.79 9e-3 -0.512-0.397-0.935-0.909-0.947-0.345 0-0.856 0-1.022 0.29-0.404 0.42-1.679 1.889-1.975 3.196m8.268-49.49c-0.355-0.538-1.613-2.152-3.609-2.34-0.084-5e-3 -0.169-5e-3 -0.253 0-0.703 0.02-1.374 0.3-1.883 0.786-1.29 1.292-2.057 3.017-2.151 4.841-0.038 1.339 0.634 2.878 1.274 4.368 0.449 0.925 0.798 1.895 1.039 2.894 0.263 1.485-0.189 4.879-0.49 7.128-0.113 0.849-0.21 1.581-0.242 2.011-0.113 1.512-0.048 3.535-0.043 3.766 0 0.645 0.312 1.151 0.705 1.151 0.392 0 0.699-0.506 0.699-1.151-0.108-1.243 0.204-2.588 0.538-4.142 0.557-2.072 0.838-4.208 0.834-6.353-0.059-2.189-0.743-4.417-1.35-6.38-0.635-2.055-1.184-3.83-0.673-4.675 0.411-0.759 1.149-1.287 2.001-1.43 0.852-0.011 1.674 0.316 2.286 0.909 0.318 0.415 0.912 0.494 1.328 0.176 0.415-0.318 0.494-0.912 0.176-1.327-0.062-0.082-0.138-0.153-0.223-0.21z" fill="#f8baa2"/>
 <path transform="matrix(.49461 0 0 -.4946 70.31647012 104.1884697)" d="M0 0h.285C.188.033.097.082.016.145.006.097.001.049 0 0" fill="#f8baa2"/>
 <path transform="matrix(.49461 0 0 -.4946 74.1770817 106.4313736)" d="M0 0c.078.005.153.033.215.081l1.921.688c.133.169.222.369.258.581-.014.227-.056.451-.124.667 0 0-.059.275.183.334s.484-.21.484-.21c.067-.187.119-.38.156-.576v-.462c1.076.382 2.098.737 2.367.812.5.145 2.211.36 3.201.538.17.209.308.443.409.694.016.25-.027.501-.124.731-.146.248-.327.472-.538.668-.006.102.025.203.086.285l-.898-.242c-.677-.182-1.363-.329-2.055-.442C1.103 3.389-.258.71-.258.71-.407.529-.381.261-.2.112c.069-.057.154-.09.243-.096Z" fill="#f8baa2"/>
 <path transform="matrix(.49461 0 0 -.4946 27.19487352 71.92007246)" d="M0 0c.006.055.006.111 0 .167.009.984-.074 1.968-.247 2.937-.129.632-.293 1.257-.49 1.872l-.538 1.404c-.043.188-.36.371-.801.371-.165.003-.329-.025-.485-.081-.032-.013-.069-.013-.102 0-.573-.198-1.105-.499-1.571-.887-.007-.027-.022-.051-.043-.07-.175-.152-.277-.371-.279-.603-.006-.197.064-.389.193-.538.467-.768 1.007-1.489 1.614-2.151C-1.965 1.576-1.134.777-.258.027c.036-.02.077-.031.118-.032.046-.014.095-.012.14.005" fill="#f8baa2"/>
 <path transform="matrix(.49461 0 0 -.4946 29.33135921 70.25714718)" d="M0 0c-.18.64-.44 1.254-.775 1.829L-1.85 4.578c-.003.016-.003.032 0 .048-.009.26-.225.463-.485.457-.69.092-1.391.063-2.071-.086-.01-.012-.023-.021-.037-.027-.275-.102-.409-.355-.409-.758-.002-.161.045-.318.134-.452C-3.53 1.106-2-1.38-.167-3.636c.045-.049.107-.078.172-.081.127.003.229.105.232.231C.318-2.319.239-1.146 0 0" fill="#f8baa2"/>
 <path transform="matrix(.49461 0 0 -.4946 31.56365166 72.00786558)" d="M0 0c.133 1.093.113 2.199-.059 3.287 0 .167-.538 2.151-.608 2.394-.274.86-1.194 3.722-1.614 4.518-.026.046-.057.089-.091.129l-.038.038-.043.059s-.038.081-.29.124h-.162c-.737.024-1.47-.11-2.152-.393-.348-.079-.601-.38-.618-.737-.001-.138.036-.274.107-.393C-4.126 4.798-.57-.086-.538-.118c.006-.021.006-.044 0-.065.059-.097.07-.107.124-.107.189-.038.373.085.411.274.001.005.002.011.003.016" fill="#f8baa2"/>
 <path transform="matrix(.49461 0 0 -.4946 33.59374585 71.44915513)" d="M0 0s0 2.001-.129 3.195c0 .366-.742 4.842-.974 5.977.024.513-.372.949-.886.973h-.012c-.749.163-1.522.176-2.276.038h-.037c-.447-.003-.807-.366-.807-.812.002-.071.013-.142.032-.21.003-.016.003-.032 0-.048C-2.996 2.899-.554-.032-.527-.065c.001-.01.001-.021 0-.032.049-.134.197-.202.331-.153.106.039.175.142.169.255z" fill="#f8baa2"/>
 <path transform="matrix(.49461 0 0 -.4946 74.35266972 68.9693829)" d="M0 0h-.065C.016 0 .091-.011 0 0" fill="#f8baa2"/>
 <path transform="matrix(.49461 0 0 -.4946 78.064353 102.5335076)" d="M0 0c-.538-.226-1.393-.473-2.119-.683-.286-.081-.958-.188-1.803-.318-1.821-.226-3.621-.605-5.379-1.135-.831-.341-1.498-.991-1.861-1.812-.008-.02-.021-.036-.038-.049-.086-.21-.376-.92-.457-1.189-.063-.224-.098-.455-.102-.688.023-.147.16-.247.307-.225.038.006.075.02.107.042.016.003.032.003.048 0l.538.355c.694.36 1.512.769 2.405 1.151.112.239.202.487.269.742.014.224.014.449 0 .673 0 .032-.135.538.183.731.317.194.575-.118.699-.317 0-.054.323-.791.382-1.006 0-.065.038-.14.059-.21h.076c1.425.463 4.841 1.383 6.864 1.905.005.102.005.204 0 .306-.011.111-.011.223 0 .334-.036.228-.114.447-.232.645C-.199-.513-.177-.212 0 0" fill="#f8baa2"/>
 <path transform="matrix(.49461 0 0 -.4946 95.850974 92.27937)" d="m0 0c-0.748 4.809-4.158 21.367-16.504 32.502-0.027 0.023-0.044 0.056-0.048 0.091 0 0.086-0.64 8.951-7.456 12.039-3.765 1.706-7.982 2.144-12.017 1.248 0.36-0.226 0.678-0.43 0.947-0.619 0.193-0.081 0.321-0.268 0.328-0.478 0-0.302-0.129-0.926-0.538-0.926-0.166 0-0.326 0.059-0.452 0.167l-0.269 0.14c-1.959 1.03-3.999 1.897-6.1 2.593v0.14c-0.156 0-0.769 0.107-1.151 0.177l-0.189 0.033-36.525-0.823-0.248 0.134c-0.037-0.07-0.08-0.124-0.118-0.188-1.883-0.92-4.648-2.69-6.046-3.556l-0.829-0.538c-0.055-0.075-0.143-0.121-0.236-0.124-0.151 0-0.829 0.334-0.829 0.603 0 0.183 0.328 0.538 0.366 0.586l0.538 0.388 0.253 0.188c-2.152 0.279-7.924 0.737-10.635-1.84-4.922-4.449-5.062-11.022-5.062-11.092-1e-3 -0.045-0.026-0.085-0.064-0.108-4.304-2.689-6.622-5.981-7.074-10.005 0.102-0.145 0.371-0.538 0.538-0.775 0.08-0.097 8.542-10.645 5.573-19.844-6e-3 -0.021-0.017-0.039-0.033-0.054-0.18-0.226-0.466-0.34-0.753-0.301-0.452 0.097-0.672 0.689-0.683 0.715-8e-3 0.025-8e-3 0.051 0 0.076 0.309 1.678 0.343 3.394 0.102 5.083-0.576 4.22-2.339 8.19-5.083 11.447-0.393 0.393-0.893 0.856-1.157 1.076-2.071 1.614-4.427 5.917-6.821 12.502-0.631-0.418-1.33-0.724-2.065-0.904-0.216 0-0.581 0.14-0.581 0.409 0.029 0.245 0.193 0.453 0.425 0.538 0.616 0.557 1.186 1.163 1.705 1.813 0.14 0.215 0.285 0.473 0.457 0.763 0.615 1.113 1.335 2.163 2.152 3.137 1.678 2.001 0.914 4.077 0.457 5.32-0.095 0.237-0.175 0.479-0.242 0.726-0.108 0.457-0.172 0.947-0.253 1.511-0.102 0.727-0.22 1.55-0.446 2.513-0.372 1.56-2.432 3.765-2.69 4.007l-1.834 0.678c-1.205 0.565-3.422 1.452-3.448 1.463-0.2 0.097-0.415 0.157-0.635 0.178-0.275-0.662-1.211-3.766 3.954-6.746 0.045-0.026 0.072-0.076 0.069-0.129-0.236-2.813-0.231-6.73-0.231-6.767 0-0.039-0.016-0.075-0.043-0.102-0.028-0.024-0.065-0.036-0.102-0.033-0.043 0-4.443 0.258-6.38-1.969-0.855-0.979-1.113-2.307-0.775-3.948 0.013-0.05-6e-3 -0.103-0.048-0.134-0.041-0.027-0.094-0.027-0.134 0-2.023 0.903-1.862 2.974-1.743 3.657-1.017-0.285-5.326-1.516-6.1-1.796-0.181-0.052-0.329-0.183-0.404-0.355-0.068-0.247-0.045-0.511 0.065-0.743 1.123-1.196 2.417-2.218 3.84-3.034 0.022-0.013 0.041-0.032 0.054-0.053 0.616-0.215 1.25-0.375 1.894-0.479 0.199 0 0.538-0.194 0.538-0.425-0.017-0.248-0.201-0.453-0.447-0.495-0.43-0.076-0.865-0.123-1.302-0.14 1.143-2.764 2.134-5.589 2.97-8.461 0.123-0.442 0.263-1.028 0.441-1.776 1.474-6.164 5.379-22.55 17.816-28.424 0.667-0.427 1.538-0.355 2.125 0.178 4.76 4.165 8.984 8.904 12.577 14.11 1.156 1.925 2.178 3.765 3.023 5.519 0.097 0.258 0.204 0.538 0.333 0.844 1.78 4.08 3.166 8.32 4.142 12.663-1.385 0.1-2.778 2e-3 -4.136-0.29-0.25-0.161-0.583-0.089-0.744 0.16-0.062 0.096-0.091 0.21-0.085 0.324 0 0.274 0.329 0.887 0.651 0.925 2.039 0.629 4.189 0.812 6.305 0.538 1.915-0.237 4.303-2.259 6.858-4.395 2.308-1.947 4.697-3.964 6.848-4.728 4.185-1.49 8.435 0.317 9.005 0.581 0.264 0.107 0.345 0.215 0.538 0.215 0.074-2e-3 0.146-0.022 0.21-0.059 0.507-0.255 0.712-0.872 0.457-1.38-0.09-0.179-0.23-0.327-0.403-0.428-2.095-1.493-4.615-2.27-7.187-2.216-4.223 0.118-11.738 6.504-12.055 6.778-1.467 1.182-3.028 2.242-4.669 3.168-0.401-2.14-0.99-4.241-1.759-6.277-0.301-1.271-0.534-2.557-0.7-3.852 1.162-9.919 3.766-19.963 5.315-25.966 0.494-1.69 0.898-3.404 1.211-5.137 0.08-1.151-0.447-2.464-1.006-3.766l-2.393075-5.720304 34.277024-5.70119 0.474572 12.304325c-0.352 0.202-0.664521 0.637169-0.755521 1.032169-0.079 0.579 0.047 1.167 0.355 1.663 1.883 2.738 6.912 5.164 10.097 6.18 4.19 1.329 4.911 1.878 6.251 4.724 0.088 0.389 0.227 0.765 0.414 1.118v0.038c1.135 2.819 2.318 6.455 3.308 13.588-0.07 0.14-0.048 0.318 0 0.823 0.038 0.28 0.086 0.673 0.145 1.227 0.538 4.916-0.091 11.969-0.398 14.524l-0.134-0.059c-1.614-0.764-2.119-1.205-3.728-2.69l-0.979-0.888c-2.415-2.151-6.611-4.405-6.654-4.427-2.416-1.098-5.008-1.761-7.655-1.958-3.765-0.145-4.766 2.152-4.841 2.356-0.085 0.124-0.13 0.27-0.129 0.42 0 0.328 0.145 1.226 0.618 1.226 0.31 1e-3 0.588-0.192 0.694-0.484 0.232-0.344 1.125-1.334 3.368-0.812 6.869 1.377 10.807 4.104 14.615 6.74 0.861 0.592 1.748 1.211 2.647 1.792 4.545 2.942 8.698-0.302 9.215-0.732 0.268-0.286 0.434-0.653 0.473-1.044-2e-3 -0.341-0.281-0.616-0.623-0.614-0.221 1e-3 -0.424 0.121-0.534 0.313-1.296 1.269-3.175 1.74-4.916 1.232 0.337-2.256 0.804-4.49 1.398-6.692 1.684-5.347 4.304-10.57 11.894-12.544 0.068-0.016 0.112-0.082 0.102-0.151-0.012-0.066-0.068-0.115-0.134-0.118-0.038 0-3.884-0.129-8.795-9.005-1.128-2.058-2.397-4.035-3.798-5.917 0.367-0.437 0.693-0.907 0.973-1.404 5e-3 -0.018 5e-3 -0.037 0-0.054-2e-3 -0.163-0.063-0.32-0.172-0.441-0.112-0.133-0.273-0.214-0.446-0.226-0.459 0.102-0.885 0.318-1.237 0.629-0.147 0.107-0.3 0.206-0.458 0.296-0.032 0.015-0.057 0.042-0.07 0.075l-0.301 0.721c-0.914 2.114-2.265 1.899-2.324 1.888-0.281 0.01-0.541-0.149-0.661-0.403l-0.667-1.076c3e-3 -0.018 3e-3 -0.036 0-0.054-0.388-0.484-0.809-0.94-1.259-1.366-0.58-0.499-1.24-0.895-1.953-1.173-10.285-2.652-12.119-5.772-12.372-6.417 0 0-0.081-0.205-0.081-0.216-0.102-0.306 0.204-0.376 0.35-0.301l0.29 0.113c1.157 0.663 2.391 1.181 3.674 1.544 0 0.882 0.038 1.469 0.038 1.678-0.011 0.037-0.011 0.077 0 0.113 0.013 0.072 0.078 0.123 0.151 0.119 0.123 0.118 0.312 0.29 0.505 0.274 0.094-8e-3 0.179-0.057 0.231-0.134 0.211-0.539 0.301-1.118 0.264-1.695 3.12 0.909 6.579 1.657 8.021 1.953 0.057 0.192 0.094 0.391 0.107 0.591 1e-3 0.34-0.05 0.677-0.15 1.001-0.066 0.134-0.144 0.262-0.232 0.382v0.038c0 0.053-0.145 0.538 0.14 0.683s0.748-0.312 0.829-0.452c0.214-0.443 0.383-0.906 0.505-1.383 0.08-0.454 0.091-0.919 0.032-1.377 0-0.053-0.07-0.247-0.096-0.371-5e-3 -0.038-0.03-0.071-0.065-0.086-1.006-0.586-2.534-0.882-4.158-1.194-3.325-0.646-7.095-1.377-8.559-4.702 2e-3 -0.016 2e-3 -0.032 0-0.048-0.028-0.035-0.045-0.078-0.048-0.124 0.025-0.17 0.184-0.288 0.354-0.263 0.038 6e-3 0.075 0.018 0.109 0.037l2.323 0.775c0.044 0.229 0.067 0.461 0.07 0.694-0.029 0.194-0.104 0.379-0.22 0.538v0.032c-0.032 0.086-0.161 0.538 0.075 0.699 0.237 0.162 0.49-0.048 0.613-0.204 0.188-0.216 0.349-0.455 0.479-0.71 0-0.059 0.038-0.14 0.054-0.226 0.028-0.155 0.079-0.306 0.151-0.447l0.624 0.21 7.843 1.711c0.191 0.19 0.351 0.41 0.473 0.651 0.073 0.225 0.098 0.463 0.075 0.699v0.78c-0.061 0.207 0.028 0.43 0.216 0.538 0.252 0.129 0.677-0.113 0.801-0.188l0.043-0.043c0.195-0.319 0.351-0.661 0.463-1.017 0.068-0.366 0.068-0.742 0-1.108 0-0.043-0.167-0.651-0.167-0.651-0.01-0.033-0.031-0.062-0.059-0.081-0.068-0.042-0.138-0.08-0.21-0.113 0.185 0.02 0.373-0.015 0.538-0.102h0.032c0.199-0.181 0.365-0.396 0.49-0.635 0.079-0.289 0.133-0.584 0.161-0.882 0.012-0.276 3e-3 -0.553-0.027-0.828 0.011-0.057 0.011-0.116 0-0.173v-0.08c0.033-0.066 0.01-0.146-0.054-0.183l-0.091-0.059c0.222-0.23 0.413-0.486 0.57-0.764 0.163-0.352 0.28-0.722 0.35-1.103v-0.264c0.261 0.045 0.525 0.069 0.791 0.07 0.219 5e-3 0.438-0.02 0.65-0.075h0.038c1.017-0.624 2.614-0.495 4.497 0.35l0.065 0.032h0.054c0.12 0 0.238 0.029 0.344 0.086 0.22 0.07 0.403 0.188 0.414 0.672 0 0.054 0.576 2.292 0.414 3.632-5e-3 0.042 0.011 0.084 0.043 0.112 0.083 0.075 0.171 0.143 0.264 0.205 0.296 0.177 0.457 0.113 0.538 0 1e-3 -0.013 1e-3 -0.025 0-0.038 0.182-0.388 0.319-0.796 0.409-1.215l0.139-1.114c13.104 7.294 17.645 13.33 19.592 15.912 0.307 0.409 0.538 0.732 0.753 0.968 1.278 1.338 2.646 2.587 4.094 3.739 0.595 0.611 0.833 1.485 0.629 2.313m-80.152 11.259c0.189-0.011 0.356-0.128 0.431-0.301 1.979-2.502 6.342-2.857 6.385-2.862 0.329 6e-3 0.602-0.253 0.613-0.581 2e-3 -0.192-0.098-0.37-0.263-0.468-0.01-0.023-0.027-0.041-0.049-0.054-0.717-0.387-1.52-0.587-2.334-0.581-1.646 0-3.648 0.807-5.202 3.55-7e-3 0.027-7e-3 0.055 0 0.081 4e-3 0.025 4e-3 0.051 0 0.075-0.057 0.125-0.087 0.261-0.086 0.399-0.065 0.414 0.177 0.742 0.479 0.742zm-1.904-4.841c0.229-0.015 0.423-0.173 0.484-0.393 3.228-3.298 6.525-3.255 6.563-3.255 0.388 0.034 0.73-0.252 0.764-0.64s-0.253-0.73-0.641-0.764c-0.041-3e-3 -0.082-3e-3 -0.123 0-0.288-0.03-0.577-0.044-0.866-0.043-1.641 0.028-3.26 0.385-4.761 1.049-0.938 0.684-1.62 1.664-1.936 2.781-0.045 0.128-0.067 0.263-0.065 0.398-0.027 0.463 0.242 0.845 0.554 0.845zm3.287-10.345c-1.318 0-3.007 0.49-4.508 2.421-5e-3 0.019-5e-3 0.04 0 0.059-0.115 0.128-0.179 0.295-0.177 0.468-0.019 0.342 0.239 0.636 0.58 0.662 0.145-2e-3 0.283-0.063 0.382-0.167 0.323-0.258 3.287-2.582 5.751-2.023 0.295 0.037 0.563-0.173 0.6-0.468 1e-3 -9e-3 2e-3 -0.018 2e-3 -0.027-0.022-0.24-0.203-0.436-0.441-0.478-0.691-0.297-1.437-0.449-2.189-0.447m4.196-15.126c0-0.298-0.241-0.538-0.538-0.538-0.166 0.019-0.328 0.066-0.479 0.139-0.053 0.031-0.077 0.093-0.059 0.151-0.108 0.066-0.181 0.176-0.199 0.301-0.118 0.592-0.366 1.507-0.468 1.872-0.093 0.214-0.141 0.445-0.14 0.678-2e-3 0.612 0.466 1.122 1.076 1.173 0.462 0 0.828-0.538 0.828-1.227 0.04-0.855 0.033-1.711-0.021-2.566zm2.27 3.378c-0.07-0.145-0.086-0.425-0.221-0.495-0.084-0.062-0.186-0.096-0.29-0.097-0.312 0-0.796 0.301-0.796 0.699l-0.076 0.259c-0.064 0.247-0.086 0.328-0.091 0.36-0.096 0.417-0.248 0.818-0.452 1.194l-0.124 0.253c-0.124 0.115-0.194 0.277-0.193 0.446 0.067 0.401 0.354 0.73 0.742 0.85 0.159-3e-3 0.306-0.089 0.387-0.226l0.242-0.435c0.511-0.612 0.829-1.36 0.915-2.152 0.032-0.088 0.048-0.181 0.048-0.274 3e-3 -0.139-0.028-0.275-0.091-0.398zm0.979 3.824c-0.334 0-0.818 0.269-0.818 0.689-0.118 0.752-0.289 1.494-0.511 2.222-0.048 0.09-0.077 0.189-0.086 0.29-0.048 0.125-0.048 0.263 0 0.387 0.128 0.335 0.43 0.571 0.785 0.614 0.248-0.015 0.461-0.179 0.538-0.415 0.597-0.806 0.684-2.947 0.684-3.039 0.047-0.374-0.218-0.716-0.592-0.764zm2.227 3.298c-0.35 0.037-0.618 0.326-0.63 0.678 0 0.075-0.059 0.226-0.134 0.538-0.038 0.588-0.132 1.172-0.28 1.743-0.051 0.175-0.051 0.362 0 0.537 0.089 0.372 0.389 0.657 0.764 0.727 0.293-0.026 0.53-0.248 0.576-0.538 0.277-0.834 0.449-1.7 0.511-2.577 6e-3 -0.064 6e-3 -0.129 0-0.194-0.02-0.46-0.354-0.846-0.807-0.93zm3.071 3.007c0-0.344-0.634-0.737-0.898-0.737-0.297-1e-3 -0.538 0.24-0.539 0.537 0 0.013 0 0.026 1e-3 0.039-0.092 0.757-0.26 1.503-0.5 2.227-3e-3 0.012-3e-3 0.025 0 0.037-4e-3 0.063-4e-3 0.126 0 0.189 0.077 0.47 0.462 0.828 0.936 0.871 0.42 0 0.888-0.29 0.888-0.71 0.139-0.808 0.176-1.63 0.112-2.448zm2.152 2.216c-0.02-0.264-0.23-0.474-0.495-0.495-0.084-1e-3 -0.166 0.028-0.231 0.081-0.14 0.048-0.215 0.199-0.231 0.452-0.083 0.734-0.216 1.462-0.398 2.179-6e-3 0.024-6e-3 0.05 0 0.075v0.102c-0.05 0.54 0.343 1.019 0.882 1.076 0.5 0 0.748-0.49 0.748-1.076 0.132-0.814 0.035-1.648-0.28-2.41zm1.856 0.834c-0.059 0.629-0.161 2.152-0.161 2.152 0 0.608 0.156 1.076 0.586 1.076 0.56-0.06 0.997-0.514 1.033-1.076 0.121-0.722 0.148-1.456 0.081-2.184 0-0.328-0.538-0.463-0.818-0.463-0.135 0-0.268 0.025-0.393 0.075-0.148 0.026-0.267 0.135-0.306 0.28-0.017 0.039-0.026 0.081-0.027 0.124zm3.766-12.98c0-0.388-0.694-0.63-1.184-0.63-0.489 0-0.597 0.377-0.672 0.689-6e-3 0.401 0.052 0.801 0.172 1.183 0.07 0.171-0.012 0.366-0.183 0.436s-0.366-0.012-0.436-0.183c-0.29-0.801 0.102-1.77 0.102-2.151 0.048-0.431-0.254-0.821-0.683-0.883-0.38 3e-3 -0.686 0.314-0.683 0.694v0.011c-0.135 1.108-0.187 2.225-0.156 3.341 0 0.484 0.689 0.882 1.571 0.882 0.418 3e-3 0.833-0.068 1.226-0.21 0 0 0.447-0.291 0.538-0.538 0.635-0.99 0.452-2.512 0.409-2.657zm0.193 12.184c3e-3 -0.321-0.254-0.583-0.575-0.586-0.323 0.025-0.564 0.307-0.539 0.63 0 3e-3 0 6e-3 1e-3 0.01 5e-3 0.641-0.043 1.282-0.146 1.915-0.04 0.114-0.06 0.234-0.059 0.355-0.044 0.481 0.305 0.909 0.786 0.963 0.499-0.074 0.861-0.513 0.839-1.017-5e-3 -0.771-0.101-1.538-0.285-2.286zm19.941 6.6c0.097 0.067 0.211 0.103 0.328 0.103 0.415 0 0.759-0.727 0.759-1.189 0.016-0.345-0.174-0.666-0.484-0.818-0.592-0.403-2.69-1.786-3.938-2.152-0.113-0.065-0.241-0.098-0.371-0.097-0.328 0-0.581 0.183-0.581 0.42 0 0 0 0.603 0.269 0.694l0.678 0.457c1.141 0.779 2.235 1.626 3.276 2.534 0.024 0.02 0.054 0.031 0.086 0.032zm-0.091 3.615c-6e-3 -0.05-6e-3 -0.1 0-0.15 0.033-0.155-0.048-0.31-0.194-0.372l-0.091-0.059-0.092-0.059c-1.555-1.166-3.341-1.988-5.239-2.41-0.079-0.037-0.165-0.057-0.253-0.059-0.355 0-0.662 0.602-0.645 0.941 0.011 0.337 0.286 0.606 0.624 0.608 1.687 0.711 3.322 1.537 4.895 2.475h0.027c0.101 0.073 0.224 0.111 0.349 0.107 0.366-0.037 0.656-0.661 0.64-1.038zm-7.531 2.97c2.035 0.529 3.997 1.307 5.842 2.318 0.117 0.116 0.276 0.182 0.441 0.183 0.377-0.012 0.673-0.327 0.662-0.704-1e-3 0-1e-3 -1e-3 -1e-3 -1e-3 -0.016-0.256-0.092-0.504-0.22-0.726 0 0-3.723-2.501-6.342-2.69h-0.043c-0.093 0.047-0.193 0.08-0.296 0.097-0.41 0-0.742 0.333-0.742 0.743s0.332 0.742 0.742 0.742zm-4.261-21.27c0.468 0 0.748-0.172 0.764-0.457 0.134-0.581 0.236-1.168 0.307-1.759-0.072-0.413-0.407-0.729-0.823-0.775-0.202-0.01-0.399 0.068-0.538 0.215-0.076 0.069-0.126 0.162-0.14 0.264-3e-3 0.039-3e-3 0.079 0 0.118 0 0.538-0.075 0.995-0.113 1.318v0.194c-0.031 0.076-0.048 0.159-0.048 0.242-3e-3 0.341 0.271 0.621 0.613 0.624h5e-3zm-1.721 3.545c0.296 0.024 0.555-0.197 0.579-0.493 1e-3 -0.015 2e-3 -0.03 2e-3 -0.045 0.199-0.691 0.322-1.402 0.366-2.12-6e-3 -0.352-0.274-0.645-0.624-0.683-0.169-1e-3 -0.332 0.064-0.452 0.183-0.111 0.091-0.172 0.228-0.167 0.371 0 0.409-0.183 1.458-0.253 1.888-0.023 0.073-0.034 0.15-0.032 0.226-9e-3 0.348 0.261 0.639 0.608 0.657zm-2.34 3.12c0.253 0 0.473-0.296 0.57-0.646 0.245-0.877 0.385-1.78 0.42-2.689 0-0.388-0.377-0.538-0.705-0.538-0.23-5e-3 -0.449 0.099-0.592 0.279-0.05 0.054-0.083 0.122-0.096 0.194-6e-3 0.043-6e-3 0.086 0 0.129 0 0.646-0.156 1.856-0.189 2.093v0.215c0 0.506 0.269 0.947 0.619 0.947zm-2.324 2.571c0.43-0.038 0.763-0.392 0.775-0.823 0.146-0.769 0.2-1.553 0.161-2.335 0-0.333-0.409-0.537-0.651-0.537-0.297 0-0.538 0.24-0.538 0.537-0.059 0.495-0.236 1.437-0.339 1.953-0.046 0.113-0.07 0.233-0.069 0.355-0.035 0.419 0.27 0.789 0.688 0.834z" fill="#f8baa2"/>
 <path transform="matrix(.49461 0 0 -.4946 110.9848796 66.09590181)" d="M0 0c1.947 1.56 4.034 4.115 2.867 10.081-.968 4.927-2.797 5.815-4.131 6.455-1.313 0-1.517-.054-1.77-.161-.332-.138-.685-.221-1.043-.248-.134-.041-.28.011-.355.129-.14.264.258.791.457 1.033.043.135.226.393 1.076.613-.124.221-.226.447-.329.667-.265.872-.934 1.562-1.796 1.856-1.076.377-2.615.076-4.099-.215-.71-.156-1.429-.271-2.152-.344.99-.834 1.877-1.463 1.883-1.474l.032-.032c.048-.06.258-.382.108-.603-.151-.22-.538-.156-.791-.091-.759.193-2.528 1.699-3.879 2.931-.242.146-.538.323-.806.538-1.571 1.028-3.529 2.308-6.052 2.227-2.184-.07-4.804-2.205-7.117-4.093-.888-.727-1.721-1.404-2.485-1.937-1.014-.749-1.972-1.571-2.867-2.458-.312-.35-.581-.479-.818-.393-.425.145-.49.925-.495 1.011v.086l.586.829c-1.521.393-3.013.893-4.464 1.495-2.857 1.076-6.101 2.34-7.86 1.819-1.759-.522-3.765-2.211-5.685-3.836-.668-.538-1.302-1.076-1.91-1.571-.121-.214-.274-.41-.452-.581-1.221-1.226-2.302-2.571-2.313-2.582-.156-.134-.619-.489-.877-.328-.258.162-.14.484-.118.603.125.433.306.849.538 1.237-1.652-.28-4.024-.151-6.127-.032-1.32.127-2.648.139-3.97.037-1.028-.183-1.646-1.258-2.636-1.829-.137-.489-.358-.951-.651-1.366-.384-.428-.834-.792-1.334-1.076-.466-.229-.955-.409-1.458-.538.043-.828.296-5.551.35-5.992 0-.113.043-.259.07-.42.133-.677.2-1.365.199-2.055 0-.941 0-3.539.027-4.04 2.625-1.172 7.09-.242 11.038.576 1.668.35 3.26.678 4.653.85-.952.29-1.829.538-2.426.651-.597.113-.855.242-.845.425 0 .097 0 .317 1.431.403 2.461-.153 4.872-.76 7.112-1.791.215-.092.409-.183.586-.269 1.114-.35 2.184-.791 3.324-1.259 1.578-.7 3.21-1.272 4.879-1.71 2.523-.598 5.062.753 7.532 2.06 1.003.567 2.045 1.061 3.12 1.479-.679.175-1.33.441-1.937.791-.323.247-.446.457-.387.651.097.306.624.344.731.349h.043c.033 0 3.47-1 5.729-1.899 1.178-.392 2.502-.984 3.9-1.613 2.889-1.281 5.864-2.609 8.241-2.545 2.765.081 4.535 2.098 5.955 3.717l.323.366c-.751-.097-1.489-.277-2.2-.538H-11.926c-.452.102-.688.275-.731.538-.07.42.537.812.613.855h.032c1.56.473 3.164.783 4.788.926.843.184 1.696.319 2.555.403C-2.991-1.06-1.038-.828 0 0" fill="#e3c062"/>
 <path transform="matrix(.49461 0 0 -.4946 53.87876122 69.4483129)" d="M0 0c1.396.343 2.74.871 3.997 1.571.165 1.366.108 2.75-.167 4.099-.441 1.678-.613 5.239-.645 6.035-1.017-.172-6.864-1.14-8.258-1.436-1.393-.296-6.627-1.797-8.822-2.512-1.555-.657-3.041-1.466-4.438-2.415-.432-.303-.885-.574-1.355-.813-.538-.258-.845-.295-.995-.118-.151.178.113.759.263.963v.032s.866.635 2.152 1.501l-.909-.129c-1.704-.202-3.396-.497-5.068-.882-2.205-.614-6.53-2.152-7.38-2.459.789-1.528 1.474-3.108 2.05-4.728.247-.745.411-1.516.489-2.297.07-.484.145-1.027.269-1.614 2.844.981 5.775 1.691 8.752 2.12h.14c.355.053.931.091 1.614.134 1.367.034 2.728.205 4.061.511.597.183 1.334.468 2.109.764.538.204 1.076.42 1.614.608l.043.032c.366.156 5.191 3.126 5.917 3.034.086 0 .36-.043.398-.242.038-.199-1.867-1.996-2.044-2.098h1.199C-3.336-.359-1.66-.246 0 0" fill="#e3c062"/>
 <path transform="matrix(.49461 0 0 -.4946 26.38336014 73.5616801)" d="M0 0c.198-.699.289-1.425.269-2.152.606.277 1.239.494 1.888.646.759.161 1.872.538 2.862.871.473.162.914.312 1.259.42.8.212 1.612.379 2.431.5.629.108 1.227.21 1.614.312.468.115.917.296 1.334.538.271.153.551.29.839.409.484.166.981.294 1.485.382.625.099 1.237.269 1.823.505.503.271.949.636 1.313 1.076.134.915.387 3.266 0 3.766-.439.469-.961.853-1.539 1.135l.103-5.589-.07-.038c-.407-.211-.867-.301-1.324-.258-.444.071-.846.307-1.124.662l-1.614 2.28c.086-.973.226-2.974-.037-3.442-.35-.608-.635-.635-.683-.635-.357-.049-.719-.049-1.076 0-.382.075-1.851 1.823-2.518 2.636L6.95 2.34c-.12-.563-.317-1.106-.586-1.614L6.272.592l-.118.113C4.843 1.947 3.667 3.324 2.647 4.814c.028-1.095-.089-2.19-.35-3.254l-.032-.14-.14.043c-1.49.474-5.046 3.809-5.455 4.196-.457.043-4.093.36-4.766.36-.538 0-1.022-.989-1.173-1.371 0-.027-.871-1.926-.64-3.083.106-.544.287-1.071.538-1.565.107-.224.203-.454.285-.689.038-.107.081-.258.14-.441.269-.877.909-2.942 1.399-3.125.704-.268 1.459-.376 2.211-.317.243.015.488.015.731 0 .567-.056 1.139.047 1.652.295.451.231.864.528 1.226.883.171.159.35.308.538.446.049.154.089.31.118.468.085.814.085 1.634 0 2.448v.053l.033.044c.032.037.301.387.629.344C-.269.403-.113.258 0 0" fill="#e3c062"/>
 <path transform="matrix(.49461 0 0 -.4946 7.80649463 4.6e-7)" d="m0 0c8.717 0 15.783-7.066 15.783-15.783s-7.066-15.783-15.783-15.783-15.783 7.066-15.783 15.783 7.066 15.783 15.783 15.783" fill="#c8c8c8"/>
 <path transform="matrix(.49461 0 0 -.4946 5.40123563 2.95331145)" d="m0 0c2.121 0 3.841-1.72 3.841-3.841s-1.72-3.841-3.841-3.841-3.841 1.72-3.841 3.841 1.72 3.841 3.841 3.841" fill="#e2e1e1"/>
 <path transform="matrix(.49461 0 0 -.4946 12.38815469 3.43224146)" d="M0 0c-.105-.087-.12-.243-.033-.348l.001-.002c4.053-5.404 2.958-13.072-2.447-17.125-5.405-4.053-13.072-2.958-17.126 2.447-.065.086-.128.174-.191.262-.111.108-.287.108-.398 0-.136-.088-.185-.264-.113-.409 3.6-6.134 11.491-8.189 17.625-4.589 6.134 3.6 8.189 11.491 4.589 17.625C1.459-1.376.933-.661.339-.005.245.086.097.088 0 0" fill="#bbbaba"/>
 <path transform="matrix(.49461 0 0 -.4946 124.4851742 4.6e-7)" d="m0 0c8.717 0 15.783-7.066 15.783-15.783s-7.066-15.783-15.783-15.783-15.783 7.066-15.783 15.783 7.066 15.783 15.783 15.783" fill="#c8c8c8"/>
 <path transform="matrix(.49461 0 0 -.4946 122.0799152 2.95331145)" d="m0 0c2.121 0 3.841-1.72 3.841-3.841s-1.72-3.841-3.841-3.841-3.841 1.72-3.841 3.841 1.72 3.841 3.841 3.841" fill="#e2e1e1"/>
 <path transform="matrix(.49461 0 0 -.4946 129.0642128 3.43224146)" d="M0 0c-.107-.085-.124-.241-.039-.348 0 0 .001-.001.001-.002C4.069-5.714 3.05-13.392-2.315-17.499c-5.364-4.106-13.042-3.087-17.148 2.277-.115.15-.226.301-.333.456-.112.108-.291.108-.403 0-.137-.088-.186-.264-.113-.409 3.6-6.134 11.49-8.189 17.624-4.589 6.135 3.6 8.189 11.491 4.589 17.625C1.453-1.376.928-.661.334-.005.242.085.095.087 0 0" fill="#bbbaba"/>
 <path transform="matrix(.49461 0 0 -.4946 66.14716985 4.6e-7)" d="m0 0c8.717 0 15.783-7.066 15.783-15.783s-7.066-15.783-15.783-15.783-15.783 7.066-15.783 15.783 7.066 15.783 15.783 15.783" fill="#c8c8c8"/>
 <path transform="matrix(.49461 0 0 -.4946 63.74191085 2.95331145)" d="m0 0c2.121 0 3.841-1.72 3.841-3.841s-1.72-3.841-3.841-3.841-3.841 1.72-3.841 3.841 1.72 3.841 3.841 3.841" fill="#e2e1e1"/>
 <path transform="matrix(.49461 0 0 -.4946 70.7288299 3.43224146)" d="M0 0c-.105-.087-.12-.243-.033-.348l.001-.002C4.19-5.624 3.337-13.322-1.937-17.544c-5.275-4.222-12.973-3.369-17.195 1.905-.225.282-.437.573-.637.873-.112.108-.291.108-.403 0-.135-.089-.181-.265-.108-.409 3.6-6.134 11.491-8.189 17.625-4.589 6.134 3.6 8.188 11.491 4.589 17.625C1.486-1.376.96-.661.366-.005.271.097.111.103.009.008.006.006.003.003 0 0" fill="#bbbaba"/>
 <path transform="matrix(.49461 0 0 -.4946 12.43341188 13.2899494)" d="m0 0c8.717 0 15.783-7.066 15.783-15.783s-7.066-15.783-15.783-15.783-15.783 7.066-15.783 15.783 7.066 15.783 15.783 15.783" fill="#c8c8c8"/>
 <path transform="matrix(.49461 0 0 -.4946 10.02815287 16.24330986)" d="m0 0c2.121 0 3.841-1.72 3.841-3.841s-1.72-3.841-3.841-3.841-3.841 1.72-3.841 3.841 1.72 3.841 3.841 3.841" fill="#e2e1e1"/>
 <path transform="matrix(.49461 0 0 -.4946 17.01774285 16.72486129)" d="M0 0c-.107-.085-.124-.241-.039-.348 0 0 .001-.001.001-.002 4.094-5.374 3.055-13.049-2.319-17.143-5.375-4.093-13.05-3.055-17.144 2.32-.103.135-.203.273-.3.412-.112.105-.286.105-.398 0-.137-.087-.186-.264-.113-.409 3.6-6.134 11.49-8.188 17.624-4.589 6.135 3.6 8.189 11.491 4.589 17.625C1.453-1.371.928-.656.334 0 .241.092.092.092 0 0" fill="#bbbaba"/>
 <path transform="matrix(.49461 0 0 -.4946 27.78019987 13.2899494)" d="m0 0c8.717 0 15.783-7.066 15.783-15.783s-7.066-15.783-15.783-15.783-15.783 7.066-15.783 15.783 7.066 15.783 15.783 15.783" fill="#c8c8c8"/>
 <path transform="matrix(.49461 0 0 -.4946 25.37494087 16.24330986)" d="m0 0c2.121 0 3.841-1.72 3.841-3.841s-1.72-3.841-3.841-3.841-3.841 1.72-3.841 3.841 1.72 3.841 3.841 3.841" fill="#e2e1e1"/>
 <path transform="matrix(.49461 0 0 -.4946 32.36453084 16.72486129)" d="M0 0c-.106-.081-.127-.233-.046-.339.003-.004.005-.007.008-.011 4.094-5.374 3.055-13.049-2.319-17.143-5.375-4.093-13.05-3.055-17.144 2.32-.103.135-.203.273-.3.412-.112.105-.286.105-.398 0-.137-.087-.186-.263-.113-.409 3.6-6.134 11.49-8.188 17.624-4.589 6.135 3.6 8.189 11.491 4.589 17.625C1.453-1.371.928-.656.334 0 .241.092.092.092 0 0" fill="#bbbaba"/>
 <path transform="matrix(.49461 0 0 -.4946 43.12698786 13.2899494)" d="m0 0c8.717 0 15.783-7.066 15.783-15.783s-7.066-15.783-15.783-15.783-15.783 7.066-15.783 15.783 7.066 15.783 15.783 15.783" fill="#c8c8c8"/>
 <path transform="matrix(.49461 0 0 -.4946 40.72172886 16.24330986)" d="m0 0c2.121 0 3.841-1.72 3.841-3.841s-1.72-3.841-3.841-3.841-3.841 1.72-3.841 3.841 1.72 3.841 3.841 3.841" fill="#e2e1e1"/>
 <path transform="matrix(.49461 0 0 -.4946 47.70864792 16.72486129)" d="M0 0c-.105-.087-.12-.243-.033-.348 0-.001 0-.001.001-.002 4.093-5.374 3.055-13.049-2.32-17.143-5.375-4.093-13.05-3.055-17.143 2.32-.103.135-.203.273-.301.412-.112.105-.286.105-.398 0-.136-.087-.185-.263-.113-.409 3.6-6.134 11.491-8.188 17.625-4.589 6.134 3.6 8.189 11.491 4.589 17.625C1.459-1.371.933-.656.339 0 .244.089.095.089 0 0" fill="#bbbaba"/>
 <path transform="matrix(.49461 0 0 -.4946 58.47377586 13.2899494)" d="m0 0c8.717 0 15.783-7.066 15.783-15.783s-7.066-15.783-15.783-15.783-15.783 7.066-15.783 15.783 7.066 15.783 15.783 15.783" fill="#c8c8c8"/>
 <path transform="matrix(.49461 0 0 -.4946 56.06851685 16.24330986)" d="m0 0c2.121 0 3.841-1.72 3.841-3.841s-1.72-3.841-3.841-3.841-3.841 1.72-3.841 3.841 1.72 3.841 3.841 3.841" fill="#e2e1e1"/>
 <path transform="matrix(.49461 0 0 -.4946 63.05543591 16.72486129)" d="M0 0c-.105-.087-.12-.243-.033-.348 0-.001 0-.001.001-.002 4.093-5.374 3.055-13.049-2.32-17.143-5.375-4.093-13.05-3.055-17.143 2.32-.103.135-.203.273-.301.412-.113.106-.29.106-.403 0-.135-.089-.181-.265-.108-.409 3.6-6.134 11.491-8.188 17.625-4.589 6.134 3.6 8.189 11.491 4.589 17.625C1.459-1.371.933-.656.339 0 .244.089.095.089 0 0" fill="#bbbaba"/>
 <path transform="matrix(.49461 0 0 -.4946 73.82056385 13.2899494)" d="m0 0c8.717 0 15.783-7.066 15.783-15.783s-7.066-15.783-15.783-15.783-15.783 7.066-15.783 15.783 7.066 15.783 15.783 15.783" fill="#c8c8c8"/>
 <path transform="matrix(.49461 0 0 -.4946 71.41530484 16.24330986)" d="m0 0c2.121 0 3.841-1.72 3.841-3.841s-1.72-3.841-3.841-3.841-3.841 1.72-3.841 3.841 1.72 3.841 3.841 3.841" fill="#e2e1e1"/>
 <path transform="matrix(.49461 0 0 -.4946 78.4022239 16.72486129)" d="M0 0c-.105-.087-.12-.243-.033-.348 0-.001 0-.001.001-.002 4.093-5.374 3.055-13.049-2.32-17.143-5.375-4.093-13.05-3.055-17.143 2.32-.103.135-.203.273-.301.412-.113.106-.29.106-.403 0-.135-.089-.181-.265-.108-.409 3.6-6.134 11.491-8.188 17.625-4.589 6.134 3.6 8.189 11.491 4.589 17.625C1.459-1.371.933-.656.339 0 .244.089.095.089 0 0" fill="#bbbaba"/>
 <path transform="matrix(.49461 0 0 -.4946 89.16468093 13.2899494)" d="m0 0c8.717 0 15.783-7.066 15.783-15.783s-7.066-15.783-15.783-15.783-15.783 7.066-15.783 15.783 7.066 15.783 15.783 15.783" fill="#c8c8c8"/>
 <path transform="matrix(.49461 0 0 -.4946 86.75942192 16.24330986)" d="m0 0c2.121 0 3.841-1.72 3.841-3.841s-1.72-3.841-3.841-3.841-3.841 1.72-3.841 3.841 1.72 3.841 3.841 3.841" fill="#e2e1e1"/>
 <path transform="matrix(.49461 0 0 -.4946 93.74906136 16.72486129)" d="M0 0c-.107-.085-.124-.241-.039-.348 0 0 .001-.001.001-.002 3.98-5.456 2.783-13.105-2.673-17.084-5.456-3.98-13.105-2.783-17.085 2.673-.113.106-.29.106-.403 0-.137-.087-.186-.263-.113-.409 3.6-6.134 11.49-8.188 17.624-4.589 6.135 3.6 8.189 11.491 4.589 17.625C1.453-1.371.928-.656.333 0 .241.092.092.092 0 0" fill="#bbbaba"/>
 <path transform="matrix(.49461 0 0 -.4946 104.5114689 13.2899494)" d="m0 0c8.717 0 15.783-7.066 15.783-15.783s-7.066-15.783-15.783-15.783-15.783 7.066-15.783 15.783 7.066 15.783 15.783 15.783" fill="#c8c8c8"/>
 <path transform="matrix(.49461 0 0 -.4946 102.1062099 16.24330986)" d="m0 0c2.121 0 3.841-1.72 3.841-3.841s-1.72-3.841-3.841-3.841-3.841 1.72-3.841 3.841 1.72 3.841 3.841 3.841" fill="#e2e1e1"/>
 <path transform="matrix(.49461 0 0 -.4946 109.109105 16.72486129)" d="M0 0c-.107-.085-.124-.241-.039-.348l.001-.002c4.094-5.374 3.055-13.049-2.319-17.143-5.375-4.093-13.05-3.055-17.144 2.32-.103.135-.203.273-.3.412-.112.105-.286.105-.398 0-.137-.087-.186-.263-.113-.409 3.6-6.134 11.49-8.188 17.624-4.589 6.135 3.6 8.189 11.491 4.589 17.625C1.453-1.371.928-.656.333 0 .241.092.092.092 0 0" fill="#bbbaba"/>
 <path transform="matrix(.49461 0 0 -.4946 119.8582569 13.2899494)" d="m0 0c8.717 0 15.783-7.066 15.783-15.783s-7.066-15.783-15.783-15.783-15.783 7.066-15.783 15.783 7.066 15.783 15.783 15.783" fill="#c8c8c8"/>
 <path transform="matrix(.49461 0 0 -.4946 117.4529979 16.24330986)" d="m0 0c2.121 0 3.841-1.72 3.841-3.841s-1.72-3.841-3.841-3.841-3.841 1.72-3.841 3.841 1.72 3.841 3.841 3.841" fill="#e2e1e1"/>
 <path transform="matrix(.49461 0 0 -.4946 124.4399664 16.72486129)" d="M0 0c-.105-.087-.12-.243-.033-.348 0-.001 0-.001.001-.002 4.093-5.374 3.055-13.049-2.32-17.143-5.375-4.093-13.05-3.055-17.143 2.32-.103.135-.203.273-.301.412-.112.105-.286.105-.398 0-.136-.087-.185-.263-.113-.409 3.6-6.134 11.491-8.188 17.625-4.589 6.134 3.6 8.189 11.491 4.589 17.625C1.459-1.371.933-.656.339 0 .244.089.095.089 0 0" fill="#bbbaba"/>
 <path transform="matrix(.49461 0 0 -.4946 124.5969075 42.23516697)" d="M0 0h-.764v19.053H0c2.191-.08 4.033 1.631 4.113 3.822.081 2.191-1.63 4.032-3.821 4.113-.097.004-.195.004-.292 0h-236.35c-2.191.081-4.033-1.63-4.114-3.821-.08-2.191 1.63-4.033 3.821-4.114.098-.003.195-.003.293 0h.769V0h-.769c-2.191.081-4.033-1.63-4.114-3.821-.08-2.191 1.63-4.033 3.821-4.113.098-.004.195-.004.293 0H0c2.191-.081 4.033 1.63 4.113 3.821C4.194-1.922 2.483-.081.292 0 .195.004.097.004 0 0" fill="#e3c062"/>
 <path transform="matrix(.49461 0 0 -.4946 -63.220093 239.148748)" d="M144.143 417.173H378.96V415H144.143Z" fill="#b8923d"/>
 <g transform="matrix(.49461 0 0 -.4946 -63.220093 239.148748)" clip-path="url(#a)">
  <path transform="translate(139.8183 395.9033)" d="M0 0h243.462c-.666 1.353-2.043 2.21-3.551 2.211H3.55C2.042 2.21.666 1.353 0 0" fill="#f5d87a"/>
 </g>
 <path transform="matrix(.49461 0 0 -.4946 51.86197215 37.91164036)" d="m0 0 28.666-8.359L56.988 0 28.494 8.193Z" fill="#e24617"/>
 <g transform="matrix(.49461 0 0 -.4946 -63.220093 239.148748)" clip-path="url(#b)">
  <path transform="translate(261.1646 414.6448)" d="M0 0c0-.108 0-.242.027-.387V0Z" fill="#b53b3a"/>
  <path transform="translate(278.9754 406.7748)" d="M0 0c-15.519 0-17.569 5.412-17.784 7.483V0Z" fill="#b53b3a"/>
  <path transform="translate(261.1807 399.1685)" d="M0 0v7.59h-19.704C-6.821 7.59 0 6.057 0 0" fill="#b53b3a"/>
  <path transform="translate(283.7523 406.7748)" d="M0 0h-22.561v-8.01l.829.264v.134c0 5.326 5.47 7.279 21.732 7.569z" fill="#f08372"/>
  <path transform="translate(238.6253 406.7802)" d="M0 0h22.561v8.015l-.829-.269v-.129C21.732 2.292 16.262.339 0 .043Z" fill="#f08372"/>
  <path transform="translate(181.3788 414.5426)" d="M0 0c2.092 0 3.787-1.696 3.787-3.787 0-2.092-1.695-3.787-3.787-3.787-2.091 0-3.787 1.695-3.787 3.787C-3.787-1.696-2.091 0 0 0" fill="#ededed"/>
  <path transform="translate(180.2115 413.1116)" d="M0 0c.508 0 .92-.412.92-.92S.508-1.84 0-1.84s-.92.412-.92.92S-.508 0 0 0" fill="#fff"/>
  <path transform="translate(183.6005 412.8804)" d="M0 0c-.024-.022-.025-.06-.002-.084 0-.001.001-.001.002-.002.995-1.281.763-3.126-.519-4.121-1.281-.995-3.126-.763-4.121.518-.036.047-.071.095-.105.144-.027.026-.069.026-.096 0-.033-.021-.044-.062-.027-.097.869-1.467 2.763-1.951 4.23-1.082C.829-3.855 1.314-1.961.445-.494.341-.32.221-.156.086-.005.07.019.036.026.012.01.007.007.003.004 0 0" fill="#c8c8c8"/>
  <path transform="translate(181.3788 406.5812)" d="m0 0c2.092 0 3.787-1.695 3.787-3.787s-1.695-3.787-3.787-3.787c-2.091 0-3.787 1.695-3.787 3.787s1.696 3.787 3.787 3.787" fill="#ededed"/>
  <path transform="translate(180.2115 405.1503)" d="M0 0c.508 0 .92-.412.92-.92S.508-1.84 0-1.84s-.92.412-.92.92S-.508 0 0 0" fill="#fff"/>
  <path transform="translate(183.6005 404.9028)" d="M0 0c-.024-.022-.025-.06-.002-.084L0-.086c.995-1.281.763-3.126-.519-4.121-1.281-.995-3.126-.763-4.121.519-.036.046-.071.094-.105.143-.027.026-.069.026-.096 0-.032-.024-.043-.066-.027-.102.854-1.479 2.746-1.986 4.225-1.131C.836-3.923 1.343-2.031.488-.552c-.113.196-.248.38-.402.547C.065.02.028.023.003.002.002.002.001.001 0 0" fill="#c8c8c8"/>
  <path transform="translate(226.0969 414.5426)" d="M0 0c2.091 0 3.787-1.696 3.787-3.787 0-2.092-1.696-3.787-3.787-3.787-2.092 0-3.787 1.695-3.787 3.787C-3.787-1.696-2.092 0 0 0" fill="#ededed"/>
  <path transform="translate(224.9296 413.1116)" d="M0 0c.508 0 .92-.412.92-.92S.508-1.84 0-1.84s-.92.412-.92.92S-.508 0 0 0" fill="#fff"/>
  <path transform="translate(228.3239 412.8804)" d="M0 0c-.024-.022-.025-.06-.002-.084 0-.001.001-.001.002-.002.995-1.281.763-3.126-.519-4.121-1.281-.995-3.126-.763-4.121.518-.036.047-.071.095-.105.144-.025.025-.066.025-.091 0-.026-.027-.026-.07 0-.097.869-1.467 2.763-1.951 4.23-1.082C.862-3.855 1.346-1.961.477-.494.374-.32.254-.156.118-.005.12.027.095.055.062.056.029.058.001.033 0 0" fill="#c8c8c8"/>
  <path transform="translate(226.0969 406.5812)" d="m0 0c2.091 0 3.787-1.695 3.787-3.787s-1.696-3.787-3.787-3.787c-2.092 0-3.787 1.695-3.787 3.787s1.695 3.787 3.787 3.787" fill="#ededed"/>
  <path transform="translate(224.9296 405.1503)" d="M0 0c.508 0 .92-.412.92-.92S.508-1.84 0-1.84s-.92.412-.92.92S-.508 0 0 0" fill="#fff"/>
  <path transform="translate(228.3239 404.9028)" d="M0 0c-.024-.022-.025-.06-.002-.084L0-.086c.995-1.281.763-3.126-.519-4.121-1.281-.995-3.126-.763-4.121.519-.036.046-.071.094-.105.143-.025.025-.066.025-.091 0-.027-.029-.027-.073 0-.102.855-1.479 2.746-1.986 4.226-1.131C.869-3.923 1.375-2.031.52-.552c-.113.196-.248.38-.402.547-.012.033-.05.05-.083.037C.02.026.007.015 0 0" fill="#c8c8c8"/>
  <path transform="translate(296.4743 414.5426)" d="M0 0c2.091 0 3.787-1.696 3.787-3.787 0-2.092-1.696-3.787-3.787-3.787s-3.787 1.695-3.787 3.787C-3.787-1.696-2.091 0 0 0" fill="#ededed"/>
  <path transform="translate(295.307 413.1116)" d="M0 0c.508 0 .92-.412.92-.92S.508-1.84 0-1.84s-.92.412-.92.92S-.508 0 0 0" fill="#fff"/>
  <path transform="translate(298.7014 412.8804)" d="M0 0c-.024-.022-.025-.06-.002-.084 0-.001.001-.001.002-.002.955-1.309.669-3.144-.64-4.099-1.309-.955-3.144-.669-4.099.64-.035.028-.086.022-.114-.012-.019-.024-.023-.057-.01-.085.869-1.467 2.763-1.951 4.231-1.082C.835-3.855 1.319-1.961.45-.494.347-.32.227-.156.091-.005.077.021.045.031.019.017.011.013.005.007 0 0" fill="#c8c8c8"/>
  <path transform="translate(296.4743 406.5812)" d="m0 0c2.091 0 3.787-1.695 3.787-3.787s-1.696-3.787-3.787-3.787-3.787 1.695-3.787 3.787 1.696 3.787 3.787 3.787" fill="#ededed"/>
  <path transform="translate(295.307 405.1503)" d="M0 0c.508 0 .92-.412.92-.92S.508-1.84 0-1.84s-.92.412-.92.92S-.508 0 0 0" fill="#fff"/>
  <path transform="translate(298.7014 404.9028)" d="M0 0c-.024-.022-.025-.06-.002-.084L0-.086C.955-1.395.669-3.23-.64-4.185c-1.309-.955-3.144-.669-4.099.64-.027.026-.07.026-.097 0-.035-.021-.047-.066-.027-.102.855-1.479 2.747-1.986 4.226-1.131S1.348-2.031.494-.552c-.114.196-.249.38-.403.547C.068.021.027.024 0 0" fill="#c8c8c8"/>
  <path transform="translate(341.1978 414.5426)" d="M0 0c2.091 0 3.787-1.696 3.787-3.787 0-2.092-1.696-3.787-3.787-3.787-2.092 0-3.787 1.695-3.787 3.787C-3.787-1.696-2.092 0 0 0" fill="#ededed"/>
  <path transform="translate(340.0305 413.1116)" d="M0 0c.508 0 .92-.412.92-.92S.508-1.84 0-1.84s-.92.412-.92.92S-.508 0 0 0" fill="#fff"/>
  <path transform="translate(343.4194 412.8804)" d="M0 0c-.022-.025-.022-.062 0-.086.995-1.281.763-3.126-.519-4.121-1.281-.995-3.126-.763-4.121.518-.036.047-.071.095-.105.144 0 0-.048.032-.096 0-.033-.021-.044-.062-.027-.097.869-1.467 2.763-1.951 4.23-1.082C.829-3.855 1.314-1.961.445-.494.341-.32.221-.156.086-.005.07.019.036.026.012.01.007.007.003.004 0 0" fill="#c8c8c8"/>
  <path transform="translate(341.1978 406.5812)" d="m0 0c2.091 0 3.787-1.695 3.787-3.787s-1.696-3.787-3.787-3.787c-2.092 0-3.787 1.695-3.787 3.787s1.695 3.787 3.787 3.787" fill="#ededed"/>
  <path transform="translate(340.0305 405.1503)" d="M0 0c.508 0 .92-.412.92-.92S.508-1.84 0-1.84s-.92.412-.92.92S-.508 0 0 0" fill="#fff"/>
  <path transform="translate(343.4194 404.9028)" d="M0 0c-.022-.024-.022-.062 0-.086.995-1.281.763-3.126-.519-4.121-1.281-.995-3.126-.763-4.121.519-.036.046-.071.094-.105.143 0 0-.048.032-.096 0-.032-.024-.043-.066-.027-.102.854-1.479 2.746-1.986 4.225-1.131C.836-3.923 1.343-2.031.488-.552c-.113.196-.248.38-.402.547C.065.02.028.023.003.002.002.002.001.001 0 0" fill="#c8c8c8"/>
  <path transform="translate(218.851 407.0869)" d="M0 0c-.038.545-.126 1.085-.264 1.614-.231.672-1.242 2.555-5.47 3.722h-.474c-.07 0-2.103-.753-2.178-.758-1.259.054-7.747.306-13.029 0h-.355l-.42-.043c-3.862-.463-6.794-2.787-6.794-5.584 0-2.625 2.588-4.841 6.095-5.476l.113-.027h.145c2.894-.748 7.149-1.076 13.389-.333l.436.043.57.086.323.043h.032C-.35-5.412-.081-1.178 0 0" fill="#454b9a"/>
  <path transform="translate(211.9117 412.6974)" d="m0 0-.102.027c-1.637.338-3.3.538-4.971.597h-.15c-7.096.317-11.211-.683-11.431-.737-3.099-.732-5.326-2.754-5.326-5.143 0-3.001 3.524-5.438 7.87-5.438h.21c1.21-.048 7.429-.291 12.491 0h.344l.403.043c3.696.446 6.515 2.69 6.515 5.379C5.853-2.733 3.367-.619 0 0" fill="#4d5ea8"/>
  <path transform="translate(217.7644 407.4096)" d="M0 0c0 3.002-3.523 5.438-7.87 5.438h-.215c-1.21.054-7.429.296-12.491 0h-.344l-.404-.043c-3.695-.446-6.508-2.689-6.508-5.352 0-2.523 2.479-4.632 5.847-5.25h.102c5.654-1.248 13.421-.339 15.433-.07l.296.043.199.027C-2.539-4.658 0-2.544 0 0" fill="#4d5ea8"/>
  <path transform="translate(204.5743 413.2031)" d="M0 0c-1.635.108-3.275.122-4.911.043H-5.1c-3.265-.274-5.761-2.297-5.573-4.519.146-1.786 1.98-3.157 4.39-3.491.237-.032.479-.054.726-.064 1.664-.142 3.336-.16 5.003-.054h.183c3.265.269 5.761 2.291 5.573 4.519C5.051-1.565 2.808-.091 0 0" fill="#454b9a"/>
  <path transform="translate(198.6941 410.782)" d="M0 0c.031.796 1.037 1.403 2.248 1.356C3.46 1.31 4.417.627 4.386-.169c-.03-.795-1.037-1.402-2.248-1.356C.927-1.478-.031-.796 0 0" fill="#c3c6e5"/>
  <path transform="translate(217.4362 408.9319)" d="M0 0c-.14.49-1.651 2.48-2.049 1.463-.06-.586.537-1 .387-1.684-.334-2.781-3.163-3.991-5.509-4.749-2.2-.861-4.61-.936-6.939-1.141-1.699-.009-3.397.112-5.078.361-1.894.43-3.9.629-5.654 1.522-.635.32-1.162.82-1.517 1.436-.161.323-.688 1.512-.995.71-.263-5.632 13.986-6.089 13.986-6.073C-8.65-8.166 2.55-7.117 0 0" fill="#7393cc"/>
  <path transform="translate(333.3494 407.2482)" d="M0 0c-.038.545-.126 1.085-.264 1.614-.231.672-1.242 2.555-5.47 3.728h-.468c-.076 0-2.109-.753-2.184-.759-1.259.054-7.747.307-13.029 0h-.355l-.42-.043c-3.862-.462-6.794-2.786-6.794-5.584 0-2.625 2.588-4.841 6.1-5.476l.108-.027.145-.026c2.894-.748 7.149-1.076 13.389-.334l.436.043.57.086.323.043h.032C-.328-5.39-.081-1.178 0 0" fill="#454b9a"/>
  <path transform="translate(326.437 412.8588)" d="M0 0h-.108c-1.637.338-3.299.538-4.97.597h-.151c-7.095.317-11.21-.683-11.431-.737-3.098-.731-5.325-2.754-5.325-5.142 0-3.002 3.523-5.439 7.87-5.439h.209c1.211-.048 7.429-.29 12.491 0h.344l.404.043c3.696.447 6.514 2.69 6.514 5.352C5.837-2.733 3.362-.619 0 0" fill="#4d5ea8"/>
  <path transform="translate(332.2735 407.5925)" d="M0 0c0 3.002-3.523 5.438-7.87 5.438h-.199c-1.21.049-7.429.291-12.491 0h-.344l-.403-.043c-3.696-.446-6.509-2.689-6.509-5.379 0-2.517 2.48-4.631 5.847-5.25l.102-.027c5.654-1.243 13.422-.339 15.433-.07l.296.043h.199C-2.528-4.702 0-2.566 0 0" fill="#4d5ea8"/>
  <path transform="translate(319.0942 413.3645)" d="M0 0c-1.635.108-3.275.122-4.911.043H-5.1c-3.265-.269-5.761-2.297-5.572-4.519.145-1.786 1.979-3.157 4.389-3.491.237-.032.484-.054.726-.064 1.664-.143 3.337-.159 5.003-.049h.183c3.265.269 5.761 2.292 5.573 4.519C5.067-1.565 2.808-.091 0 0" fill="#454b9a"/>
  <path transform="translate(313.2101 410.9405)" d="M0 0c.031.796 1.037 1.403 2.248 1.356C3.46 1.31 4.417.627 4.386-.169c-.03-.795-1.037-1.402-2.248-1.356C.927-1.478-.031-.796 0 0" fill="#c3c6e5"/>
  <path transform="translate(331.9077 409.4214)" d="M0 0c-.14.484-1.651 2.48-2.055 1.458-.054-.587.538-.995.387-1.684-.328-2.776-3.157-3.991-5.503-4.744-2.2-.867-4.615-.942-6.944-1.141-1.698-.014-3.394.106-5.073.361-1.899.43-3.9.624-5.654 1.522-.637.317-1.166.815-1.522 1.431-.161.323-.689 1.511-.995.715-.264-5.637 13.986-6.089 13.986-6.078C-8.65-8.171 2.55-7.117 0 0" fill="#7393cc"/>
 </g>
 <path transform="matrix(.49461 0 0 -.4946 5.50767659 38.21760555)" d="m0 0 5.191 8.392L35.487 0 5.035-7.445Z" fill="#e24617"/>
 <g transform="matrix(.49461 0 0 -.4946 -63.220093 239.148748)" clip-path="url(#c)">
  <path transform="translate(174.4395 406.2423)" d="M0 0h-35.503l5.062-7.445c3.453 2.843 7.496 4.885 11.834 5.976C-15.213-.592 0 0 0 0" fill="#b53b3a"/>
  <path transform="translate(174.4395 406.2423)" d="M0 0h-35.503l5.191 8.392c2.885-3.526 6.82-6.039 11.232-7.176C-15.681.339 0 0 0 0" fill="#f08372"/>
 </g>
 <path transform="matrix(.49461 0 0 -.4946 126.7839922 38.20964235)" d="m0 0-5.191 8.392L-35.487 0-5.03-7.445Z" fill="#e24617"/>
 <g transform="matrix(.49461 0 0 -.4946 -63.220093 239.148748)" clip-path="url(#d)">
  <path transform="translate(348.6589 406.2584)" d="M0 0h35.503l-5.035-7.445c-3.455 2.841-7.496 4.88-11.834 5.971C15.213-.592 0 0 0 0" fill="#b53b3a"/>
  <path transform="translate(348.6589 406.2584)" d="M0 0h35.503l-5.191 8.392c-2.885-3.526-6.82-6.039-11.232-7.176C15.681.334 0 0 0 0" fill="#f08372"/>
  <path transform="translate(296.3076 255.1216)" d="M0 0c-.169.555-.305 1.119-.409 1.689-.006.71.05 1.419.167 2.12.167 1.285.355 2.743.156 3.631-.22.726-.733 1.328-1.415 1.662-.462.306-.898.592-1.033 1.049-.073.395-.034.803.113 1.178.381.89.207 1.921-.446 2.636-.92 1.076-1.458.882-2.077.64-.365-.173-.768-.253-1.172-.231-.422.018-.839.097-1.238.236-.327.122-.669.204-1.016.242-1.134.154-2.287-.045-3.303-.57-.425-.172-.861-.355-1.388-.538-.732-.231-1.307-.398-1.77-.538-.532-.145-1.055-.325-1.565-.538-1.114-.269-2.247-.449-3.389-.538-.332.845-.169 1.804.425 2.491l.301.387-.457-.177c-1.434-.451-2.913-.74-4.411-.861.048.538.274 2.518 1.178 3.723l.188.247-.312-.038c-1.097-.106-2.201-.138-3.303-.096.087 1.043.534 2.025 1.264 2.775l.334.312-.447-.08c-.527-.133-1.071-.18-1.613-.14h-.189c-.538-.813-1.613-2.243-2.081-2.41-.527-.017-1.05.09-1.528.312-.759.247-1.544.538-2.06.344-.517-.194-.77-.78-.958-1.318-.145-.409-.28-.791-.538-.898-.258-.108-1.076.048-1.754.204-.558.19-1.15.262-1.737.21-.298-.11-.537-.338-.662-.629-.172-.307-.312-.538-.758-.538-.361.032-.387.193-.441.468-.028.423-.345.772-.764.839-.519.101-1.057-.014-1.49-.318-.321-.209-.693-.324-1.076-.333-.393 0-.715.393-1.076.828-.49.683-1.183 1.195-1.979 1.464-.781.202-1.607-.074-2.109-.705-.318-.296-.592-.538-.931-.538-.316.021-.599.204-.747.484-.295.448-.745.77-1.265.904-.762.152-1.552.068-2.264-.242-.52-.23-1.093-.315-1.657-.248-.433.115-.828.341-1.146.656-.391.374-.862.654-1.377.818-.626.194-1.306.106-1.861-.242-.235-.148-.503-.233-.78-.247-.389.11-.754.292-1.076.538-.839.489-1.878 1.075-3.007.962-1.84-.215-4.035-3.168-4.035-4.228 0-.419.06-1.076.124-1.829.111-.908.152-1.823.124-2.738-.17-.52-.424-1.009-.753-1.447-.538-.844-1.135-1.796-1.205-2.657-.05-.858-.05-1.719 0-2.577.099-.962.099-1.932 0-2.894-.166-.467-.392-.91-.673-1.318-.538-.85-1.076-1.813-1.124-2.808-.043-1.533.484-3.588 1.436-4.368.538-.446 1.555-.538 2.539-.618.588-.011 1.17-.11 1.727-.296.441-.266.811-.635 1.076-1.076.302-.493.717-.908 1.21-1.21.497-.199 1.047-.216 1.555-.049.561.175 1.163.162 1.716-.038.465-.202.791-.632.861-1.135.102-.55.437-1.029.919-1.312.818-.457 1.802-.334 2.593-.231.316.058.638.074.958.048.29-.043.651-.463 1.038-.904.495-.57 1.076-1.221 1.727-1.388.721-.092 1.455-.031 2.151.178.484.157.996.21 1.501.156.351-.17.655-.426.882-.742.35-.491.839-.866 1.404-1.076.673-.165 1.385-.003 1.921.435.123.085.25.162.382.232.204.107 1.447-.189 2.652-.474 1.617-.45 3.275-.737 4.949-.855h.258c1.35.139 2.657.552 3.841 1.216.465.255.96.452 1.474.586.472.051.949-.039 1.371-.258.417-.149.86-.213 1.302-.188.583.059 1.122.333 1.512.769.314.324.701.567 1.13.71.594.093 1.196.118 1.796.075.822-.063 1.648-.005 2.453.172.538.177.996.54 1.291 1.022.184.302.449.546.764.705.312.135.42.038.64-.145.43-.409 1.036-.575 1.614-.441.609.055 1.197.252 1.716.575.327.209.693.348 1.076.409.489.065.986-.044 1.404-.306.435-.258.937-.38 1.442-.35.555.088 1.081.31 1.533.645.427.31.909.537 1.42.667.437.072.884.061 1.318-.032 1.438-.265 2.923-.077 4.249.538C.215-8.607.506-6.181.694-4.578c0 .124.032.248.043.361C.871-3.19.387-1.42 0 0" fill="#8ea827"/>
  <path transform="translate(295.3339 250.6084)" d="M0 0c-.095.208-.311.333-.538.312-.251-.009-.501-.038-.748-.086-.328-.081-.64-.215-.963-.317-.18-.092-.375-.152-.575-.178h-.737c-.248 0-.371.038-.538.059 0 .151-.054.312.059.339l2.421.538c.134.042.262.1.382.172.107.054.204.129.312.188.174.071.332.177.462.312.23.236.413.514.538.818.091.178.135.376.129.576-.03.34-.233.64-.538.796-.297.201-.619.363-.957.484-.367.124-.756.166-1.14.124-.334-.043-.662-.092-.99-.151-.329-.05-.648-.15-.947-.296l-.855-.452c-.557-.293-1.076-.655-1.544-1.076l-.35-.301c-.563-.402-1.102-.837-1.614-1.302 0 0-.053-.037-.08-.059C-9 .36-9.188.221-9.382.086c-.365-.282-.75-.539-1.151-.769-.215-.113-.414-.253-.624-.382-.187-.118-.308-.317-.328-.538-.041-.14.038-.286.177-.328.023-.007.047-.01.071-.011.273-.056.555-.056.828 0 .159.038.321.054.484.048.328 0 .662-.064.99-.096.257-.013.513-.047.764-.103.444-.093.882-.214 1.312-.36.441-.177.909-.301 1.361-.473.52-.211 1.061-.363 1.614-.452.357-.038.717-.05 1.076-.038.18.007.36.027.538.059.288.072.569.171.839.296.283.124.548.283.791.474.107.075.167.209.258.301.206.219.377.47.506.742.091.204.172.412.242.624v.291C.21-.403.118-.194 0 0" fill="#008337"/>
  <path transform="translate(265.5702 242.9052)" d="M0 0c-.108.055-.232.068-.35.038-.154-.032-.311-.055-.468-.07l-.968-.049h-.312c-.073.006-.147.006-.22 0-.42-.051-.845-.051-1.265 0-.095.019-.193.03-.29.033h-1.431c-.104-.006-.208-.006-.312 0-.148.013-.298.013-.446 0-.42-.078-.781-.344-.979-.721-.123-.261-.018-.571.236-.705.215-.121.454-.193.7-.21.057-.011.113-.029.166-.054h1.178l.129.033c.538.07 1.076.129 1.614.215.853.157 1.694.371 2.518.64.244.051.459.196.597.403.102.124.085.307-.039.409C.04-.023.021-.01 0 0" fill="#008337"/>
  <path transform="translate(271.0732 268.2041)" d="M0 0c-1.098-.141-2.188-.339-3.265-.592-.753-.236-1.533-.387-2.297-.586-.5-.129-1.001-.269-1.49-.436-.323-.107-.614-.285-.931-.403-.948-.35-1.918-.636-2.905-.856-.844-.204-1.694-.392-2.533-.602-.485-.118-.958-.28-1.442-.398-.474-.121-.935-.287-1.377-.495-.15-.036-.243-.187-.207-.337.012-.05.037-.095.072-.131.127-.188.318-.322.538-.377l.146-.059c.085-.044.175-.078.269-.102.571-.107 1.135-.249 1.689-.425.399-.157.811-.28 1.231-.366.067-.014.132-.035.194-.064.398-.183.807-.361 1.2-.538.392-.178.866-.452 1.291-.689.077-.045.151-.098.22-.156.14-.097.275-.204.425-.29.398-.237.807-.463 1.211-.689.199-.107.398-.204.602-.301.247-.107.511-.171.78-.188.482-.033.965.043 1.415.22.415.168.801.398 1.146.683.56.39.837 1.074.704 1.743-.027.316-.208.598-.484.753-.086.043-.15.124-.231.173-.149.098-.31.177-.479.236-.63.162-1.281.226-1.931.189-.358-.02-.718-.02-1.076 0-.36 0-.721.069-1.076.107-.369.009-.733.083-1.076.221-.128.042-.239.125-.317.236l.446.038c.572.044 1.147.031 1.716-.038.486-.098.979-.15 1.474-.156.447.033.904 0 1.356.033.618.018 1.233.099 1.834.242.447.129 1.829.355 2.26.538.392.167.773.359 1.14.575.281.144.549.311.802.501.606.501 1.062 1.16 1.317 1.904.026.053.039.112.038.172 0 .161-.038.35-.188.414-.241.11-.496.184-.759.221C.974.015.485.041 0 0" fill="#008337"/>
  <path transform="translate(263.9564 255.3906)" d="M0 0c.242.054.473.145.721.199.247.054.64.102.957.167.205.037.404.102.608.156l1.512.387c.53.164 1.037.397 1.506.694.458.267.885.582 1.275.941.152.121.25.297.274.49.039.251-.016.508-.156.721-.293.398-.753.64-1.248.656-.599.038-1.2-.048-1.764-.253-.201-.077-.397-.167-.587-.269-.209-.107-.408-.231-.613-.349l-.694-.415c-.072-.048-.147-.091-.226-.129L.559 2.571c-.285-.118-.575-.242-.866-.339-.403-.139-.819-.238-1.242-.295-.759-.108-1.512-.264-2.26-.42-.747-.156-1.334-.301-1.995-.473C-6.251.931-6.686.78-7.128.651-7.821.466-8.495.214-9.139-.102l-.119-.038c-.285-.068-.521-.268-.634-.538-.041-.096-.041-.205 0-.301.066-.115.168-.206.29-.258.16-.053.327-.084.495-.092.461-.07.918-.171 1.366-.301.771-.21 1.523-.483 2.249-.818.431-.21.884-.374 1.35-.489.539-.142 1.107-.142 1.646 0 .237.075.479.151.71.237.361.117.704.285 1.017.5.107.075.231.134.339.215.113.07.215.157.301.258.108.152.2.314.274.484.062.275-.038.561-.258.737-.218.124-.465.189-.715.189-.154.01-.306.027-.458.053v.043h.097C-.791-.156-.393-.086 0 0" fill="#008337"/>
  <path transform="translate(291.1703 263.7608)" d="M0 0c-.451-.022-.9-.085-1.339-.188-.393-.113-.791-.237-1.179-.377-.798-.237-1.541-.632-2.184-1.162-.028-.024-.058-.046-.091-.064-1.076-.721-2.2-1.404-3.362-2.018-.5-.268-1.017-.537-1.522-.785-.156-.086-.302-.194-.463-.274-.161-.081-.457-.194-.678-.302-.223-.072-.345-.312-.272-.535.028-.085.081-.16.154-.212.065-.053.14-.091.22-.113.258-.082.526-.129.797-.14.683-.049 1.361-.156 2.044-.21.683-.054 1.296-.075 1.942-.086.505 0 1.011.032 1.517.038.472.031.946-.017 1.404-.14.379-.098.766-.162 1.156-.194l.845-.14c.161 0 .328-.064.489-.075h.748c.659-.095 1.331.044 1.899.393.58.321.919.952.866 1.613-.05.539-.409 1-.92 1.179-.398.123-.807.199-1.21.29-.097.016-.193.027-.291.032l-.925.059c.258.054.538.103.775.162.118.027.226.081.344.113.155.053.313.098.473.134.157.026.315.044.474.054.388.035.76.174 1.075.404.309.208.491.558.485.93-.015.227-.057.45-.124.667-.034.164-.11.316-.221.441-.211.23-.501.372-.812.398-.144.006-.288.022-.43.049C1.127.033.561.053 0 0" fill="#008337"/>
  <path transform="translate(253.0042 249.7961)" d="M0 0c-.178.03-.358.043-.538.038-.258 0-.538-.033-.775-.027-.468.018-.937-.029-1.393-.14-.39-.06-.73-.299-.92-.646-.027-.059-.07-.107-.102-.166-.162-.235-.139-.55.054-.759.21-.267.481-.479.791-.618.671-.312 1.421-.413 2.151-.291.045.003.09.003.135 0 .446.054.904.091 1.35.161.923.175 1.825.449 2.69.818 1.06.405 2.062.947 2.98 1.614.134.097.276.181.425.253.156.051.299.135.419.247 0 .032.076.043.119.059.081.036.158.079.231.129.134.103.258.226.387.339.129.113.124.092.103.178-.022.086-.108.118-.189.134-.333.065-.667.146-1 .178-1.294.121-2.571.383-3.809.78-.71.237-1.42.462-2.152.694L-2.9 4.207c-1.005.317-1.979.726-3.012.957l-.463.124c-.468.14-.936.296-1.409.414-.338.077-.682.133-1.027.167-.248.032-.495.032-.748.043-.355.02-.679-.2-.791-.538-.042-.156-.054-.318-.037-.479.009-.234.129-.449.322-.581.212-.191.466-.328.743-.398.05-.016.097-.039.14-.07.295-.167.58-.344.876-.505.254-.15.516-.284.786-.404.629-.263 1.269-.506 1.909-.758.674-.304 1.375-.543 2.093-.716.192-.041.381-.097.565-.167.742-.252 1.468-.537 2.232-.737.343-.101.674-.236.99-.403C.22.053.113-.009 0 0" fill="#008337"/>
  <path transform="translate(238.3348 256.0899)" d="M0 0c.615-.063 1.233-.082 1.85-.059.544.028 1.085.105 1.614.231.674.122 1.339.287 1.991.495.156.059.322.102.484.156.032 0 .07.027.097 0 .169-.017.339.017.489.097.147.056.298.101.452.134.339.076.689.135 1.033.216.817.199 1.614.403 2.447.613.145.032.287.075.425.129.109.027.184.125.183.237.005.118-.066.227-.177.269-.151.069-.312.134-.458.215-.46.211-.899.465-1.312.758l-.081.054c-.373.165-.713.399-1 .689-.038.038-.079.072-.124.102l-1.044.656c-.459.252-.895.545-1.301.877h-.033c-.659.435-1.356.811-2.081 1.124-.307.129-.614.242-.92.366-.076.032-.156.054-.237.064-.35 0-.705.049-1.076.054-.305.008-.604-.091-.844-.28l-.103-.069C.14 7.025-.005 6.923-.14 6.81c-.134-.113-.134-.312-.301-.403v-.038c-.038-.151-.092-.296-.113-.441-.032-.122-.032-.25 0-.371.112-.274.298-.51.538-.683.242-.151.484-.291.71-.458.523-.384 1.085-.71 1.678-.973.263-.107.535-.19.813-.248l1.576-.398c.123 0 .252-.043.376-.064l-1.033-.237c-.418-.09-.847-.125-1.274-.102-.415.014-.829-.015-1.238-.086-.393-.076-.79-.13-1.189-.162-.249-.032-.495-.082-.736-.15l-.253-.054c-.268-.013-.533-.065-.786-.156-.313-.122-.515-.428-.505-.764V.845c-.006-.124.062-.24.172-.296.17-.109.35-.203.538-.28C-.79.135-.398.045 0 0" fill="#008337"/>
  <path transform="translate(259.54 259.339)" d="M0 0c-.281.186-.578.348-.888.484-.22.09-.428.207-.618.35-.178.124-.355.253-.538.371-.688.426-1.42.776-2.184 1.044l-1.372.5c-.355.124-.71.247-1.076.344-.64.172-1.285.323-1.926.479-.365.091-.736.177-1.075.28-.339.102-.614.193-.926.29-.858.24-1.692.56-2.49.958-.045.028-.094.049-.145.064-.389.123-.786.213-1.189.269-.171.017-.344.006-.511-.032-.372-.107-.657-.405-.748-.78-.013-.042-.013-.087 0-.129.031-.243.132-.471.29-.656.097-.097.189-.194.285-.28.28-.248.576-.479.85-.732.284-.275.604-.508.953-.694.508-.28 1.05-.493 1.613-.634.065-.02.128-.045.189-.076.339-.145.672-.306 1.011-.436.506-.193 1.017-.376 1.533-.537C-8.428.234-7.85.153-7.278.21c.051.011.104.011.156 0L-5.734 0c.279-.038.564-.059.876-.091-.086-.07-.145-.124-.209-.167-.173-.118-.339-.237-.538-.35-.569-.381-1.177-.7-1.813-.952-.607-.226-1.234-.395-1.872-.506-.124 0-.247-.064-.371-.091-.162-.035-.325-.062-.49-.081-.586-.022-1.163-.155-1.7-.392-.264-.126-.44-.386-.457-.678-.003-.097.034-.191.102-.258.136-.139.289-.259.458-.356.531-.28 1.135-.392 1.732-.322.656.059 1.318.14 1.974.231.694.091 1.369.291 2.001.592.129.059.269.102.398.156.687.244 1.353.544 1.99.898.034.017.068.031.103.043l1.102.565.877.452.748.36c.113.06.23.112.35.156.183.065.371.119.538.188.053.02.097.058.123.108.07.189-.011.4-.188.495" fill="#008337"/>
  <path transform="translate(240.1208 248.4352)" d="M0 0c.06.034.126.058.194.07l1.613.436c.048.018.095.039.14.064.053.04.109.076.167.108l1.404.473c.517.19 1.064.283 1.614.275H5.6c.277-.016.552-.054.823-.113.306-.076.619-.081.925-.135.032-.008.065-.008.097 0 .16.004.287.137.283.298-.001.042-.011.084-.03.122-.061.169-.171.315-.318.419-.791.639-1.639 1.204-2.533 1.689-.431.226-.845.485-1.27.71-.425.226-.871.436-1.307.651-.792.419-1.614.778-2.458 1.076-.257.083-.52.148-.786.194-.33.04-.664.04-.995 0-.08.011-.162.011-.242 0-.252-.072-.509-.126-.769-.162-.49-.059-.848-.492-.812-.984-.103-.054-.151-.097-.151-.156.004-.048.021-.095.048-.134.039-.064.084-.124.135-.178.455-.483 1.025-.844 1.657-1.049.5-.172 1.027-.285 1.543-.414.267-.041.532-.098.791-.172.172-.07.355-.102.538-.156l.468-.156v-.038h-.091c-.264 0-.538.043-.791.032-.484 0-.963-.064-1.442-.096-.097 0-.193 0-.285-.033l-.764-.102c-.08 0-.166 0-.242-.038-.365-.113-.737-.231-1.076-.355-.168-.064-.334-.138-.494-.22-.119-.059-.221-.14-.339-.188-.219-.087-.421-.211-.597-.366-.182-.122-.299-.32-.318-.538V.716c-.035-.182.036-.368.183-.479.27-.228.588-.39.931-.474.153-.028.299-.087.43-.172.134-.081.29-.12.447-.113h.796c.27-.007.54.024.801.092.193.063.391.11.592.14.355.037.701.135 1.022.29" fill="#008337"/>
  <path transform="translate(249.9702 269.4091)" d="M0 0c.217-.147.447-.274.689-.377.349-.161.699-.312 1.075-.441.437-.207.915-.314 1.399-.312.045-.005.088-.018.129-.037.151-.049.301-.092.447-.151.29-.113.575-.242.866-.36v-.065l-.538.065c-.14.027-.283.042-.425.043l-2.039-.081c-.538 0-1.022 0-1.533-.091-.626-.033-1.231-.237-1.748-.592-.184-.124-.341-.283-.463-.468-.159-.308-.245-.649-.253-.995-.031-.263.058-.526.242-.716.294-.299.648-.532 1.039-.683.642-.231 1.327-.318 2.006-.253.337.026.672.08 1.001.162.514.146 1.019.326 1.511.538.506.193 1.006.392 1.512.575.349.129.71.231 1.076.355l1.882.635c.236.083.483.128.732.134.389.027.779.027 1.167 0 .084-.005.169-.005.253 0 .101-.003.19.064.215.162.086.26-.022.545-.258.683-.161.107-.339.199-.5.307-.791.537-1.576 1.075-2.373 1.613C6.547.022 5.971.371 5.39.726c-.263.156-.534.297-.812.425-.129.065-.275.081-.404.135-.5.215-.989.435-1.484.656l-.172.054c-.636.185-1.288.31-1.948.371-.284.046-.576.024-.85-.065L-.581 2.2c-.215-.068-.403-.201-.538-.382-.123-.182-.123-.42 0-.602C-.846.729-.463.312 0 0" fill="#008337"/>
  <path transform="translate(239.4537 270.571)" d="M0 0c.91-.76 1.939-1.365 3.045-1.791.312-.124.634-.232.989-.355l-.371-.248c-.456-.296-.969-.496-1.506-.586L.441-3.233c-.216-.018-.432-.046-.645-.086-.377-.086-.748-.199-1.119-.296-.182-.038-.362-.087-.538-.145-.146-.067-.288-.142-.425-.226-.14-.081-.156-.248-.248-.36-.084-.102-.084-.249 0-.35.092-.142.225-.251.382-.312.619-.278 1.302-.378 1.974-.291.095.017.19.026.286.027l1.839-.032c.163-.013.327-.013.49 0 .538.086 1.076.188 1.581.285.028.005.053.016.076.032.538.259 1.043.538 1.56.78.312.162.613.345.914.538.255.14.497.3.726.479.423.345.867.663 1.329.952.151.102.29.221.446.318.124.065.171.218.105.342-.024.044-.06.08-.105.104-.108.058-.221.105-.338.14-.162.054-.323.097-.485.156-.274.108-.538.221-.823.35-.457.215-.909.452-1.366.672L4.228.721c-.366.177-.732.355-1.076.538-.538.237-1.076.419-1.554.705-.048.027-.098.049-.151.064l-1.006.317c-.06.011-.122.011-.183 0-.269-.004-.536-.058-.785-.161-.367-.129-.56-.532-.43-.899.013-.037.029-.073.048-.107C-.698.722-.388.32 0 0" fill="#008337"/>
  <path transform="translate(268.8462 262.9539)" d="M0 0c-.179-.088-.344-.203-.49-.339-.16-.118-.194-.343-.076-.504.008-.012.018-.023.028-.034.153-.185.374-.301.613-.323.345.043.694.043 1.039 0 .086 0 .177 0 .268-.032.383-.039.756-.143 1.103-.306l.834-.447c.473-.273.993-.455 1.533-.538.344-.043.689-.097 1.033-.134.5-.06 1-.124 1.501-.162.5-.037 1-.037 1.495-.059.512-.038 1.026-.016 1.533.065.716.134 1.431.285 2.152.419.581.107 1.131.338 1.614.678.197.16.406.305.624.436.461.239.836.615 1.076 1.076.139.196.093.468-.103.607-.036.026-.076.046-.118.06-.159.065-.323.119-.489.161-.108 0-.226 0-.334.059-.261.075-.536.086-.801.032-.113 0-.226-.037-.334-.064-.398-.086-.801-.156-1.189-.274-.637-.192-1.291-.325-1.952-.398-.538-.07-1.076-.119-1.614-.167-.323-.041-.649-.05-.974-.027-.452.048-.898.091-1.355.097H5.492v.043c.097.048.194.102.291.145.306.145.608.29.92.43.161.07.333.129.5.189.366.123.731.236 1.076.371.318.149.483.505.392.844-.087.242-.27.436-.505.538-.451.223-.97.267-1.453.124-.416-.104-.825-.231-1.226-.382-.506-.188-1.006-.387-1.496-.613-.79-.377-1.613-.662-2.442-.974C1.033.425.516.226 0 0" fill="#008337"/>
  <path transform="translate(231.0459 268.118)" d="M0 0c.09-.126.216-.223.36-.28.618-.255 1.286-.368 1.953-.328.301 0 .597.049.898.075.307.016.607.087.888.21.215.102.447.189.672.285.514.232 1.057.393 1.614.479.408.08.825.098 1.237.054.393-.054.393-.048.657.22.094.08.121.214.064.323-.022.042-.047.081-.075.119-.436.602-.918 1.171-1.442 1.699-.586.63-1.189 1.238-1.737 1.899-.373.413-.774.799-1.2 1.157-.142.125-.295.236-.457.333-.503.265-1.079.36-1.641.269-.265-.023-.52-.112-.742-.258-.139-.114-.261-.248-.36-.398-.248-.309-.403-.682-.447-1.076-.021-.165.011-.333.092-.479.067-.122.145-.239.231-.349.242-.31.588-.524.973-.603.747-.136 1.471-.375 2.152-.71.289-.145.565-.316.823-.511v-.037l-.737.22c-.579.223-1.198.326-1.818.301h-.124c-.356.051-.719.051-1.075 0-.314-.023-.62-.111-.899-.258-.154-.082-.269-.221-.323-.387 0-.065-.032-.129-.059-.194C-.733 1.28-.638.708-.28.307-.204.231-.081.151 0 0" fill="#008337"/>
  <path transform="translate(269.723 251.5659)" d="M0 0c.398.043.785-.059 1.178-.054.117-.001.234-.01.35-.027l1.345-.193c.033-.006.068-.006.102 0 .414.001.827-.044 1.232-.135.325-.069.657-.098.989-.086.25.032.504.032.754 0 .29-.022.582.011.86.097l.156.038c.208.041.397.149.538.306.06.069.104.15.129.237.032.086.038.183.076.269.08.177.091.204-.06.328-.272.249-.598.433-.952.538-.538.14-1.108.274-1.667.382-.315.052-.633.083-.952.091h-.587c-.194 0-.43.049-.651.049-.387 0-.774-.032-1.162-.032-.46-.028-.917-.092-1.366-.194-.22-.075-.452-.106-.683-.092.031.124.129.219.253.248.279.081.538.167.828.269.61.222 1.177.55 1.673.968.195.151.376.32.538.506.241.285.405.628.473.995.027.302-.118.593-.376.753-.1.042-.202.076-.307.102-.287.059-.584.048-.866-.032-.375-.053-.717-.245-.957-.538-.037-.04-.078-.074-.124-.102-.511-.355-.99-.759-1.523-1.076-.344-.215-.677-.441-1.016-.651-.339-.21-.646-.393-.974-.581-.318-.2-.649-.379-.99-.538-.511-.204-1.033-.366-1.56-.538-.281-.109-.542-.264-.774-.457-.136-.095-.2-.264-.162-.425.048-.156.175-.275.334-.312.237-.063.481-.092.726-.086.337-.051.68-.051 1.017 0 .324.073.66.088.99.043.263-.016.527-.016.79 0h.899c.36.016.72-.007 1.075-.07.135-.013.27-.013.404 0" fill="#008337"/>
  <path transform="translate(274.1179 245.5734)" d="M0 0c-.332.192-.697.32-1.076.377-.068.004-.134.016-.199.037-.386.141-.805.166-1.205.07C-2.824.42-3.158.312-3.497.221c-.044-.017-.087-.037-.129-.06-.342-.137-.706-.214-1.075-.226l.204.189c.358.287.757.519 1.183.688.506.226 1.022.425 1.523.667.5.242.93.484 1.393.737.108.059.204.129.307.194.211.168.393.369.538.597.13.176.13.416 0 .592-.131.176-.323.297-.538.339-.068.007-.135.024-.199.048-.148.069-.311.098-.474.086-.177 0-.355 0-.538-.048-.446-.057-.877-.2-1.269-.42l-.818-.538-.726-.43-.253-.172L-6.934.828c-.307-.193-.613-.398-.931-.57-.463-.228-.952-.398-1.457-.505-.081-.011-.162-.011-.242 0-.214 0-.423-.065-.597-.189-.096-.054-.151-.159-.14-.269.003-.166.104-.314.258-.376.044-.015.084-.039.118-.07.154-.14.338-.241.538-.296.296-.097.603-.172.904-.242.66-.129 1.329-.205 2.001-.226.215 0 .436 0 .651-.038.215-.037.441-.086.661-.091.694 0 1.388 0 2.077-.065.311-.024.624-.024.936 0 .426.008.85.052 1.269.129.226.054.458.07.684.124.433.058.78.388.86.818.068.234.002.486-.172.656C.33-.246.169-.118 0 0" fill="#008337"/>
  <path transform="translate(228.9049 259.6026)" d="M0 0c.204-.442.601-.766 1.076-.877.234-.035.465-.083.694-.145.56-.142 1.142-.18 1.716-.113.407.068.819.104 1.232.108.046-.009.093-.009.139 0 .355.064.705.129 1.076.215.63.15 1.264.258 1.899.382.093.004.186.02.275.048.192.088.401.132.613.129.168.026.313.13.393.28.017.053.002.112-.038.151-.097.089-.201.17-.312.242l-.457.295c-.056.047-.123.078-.194.092-.102.01-.197.051-.274.118-.432.342-.841.71-1.227 1.103-.226.215-.446.425-.678.629L4.287 4.11c-.242.21-.457.452-.721.64-.377.281-.831.438-1.301.452-.348 0-.693-.071-1.012-.21-.195-.054-.365-.176-.478-.344-.134-.182-.236-.386-.302-.603-.057-.368.061-.742.318-1.011.199-.256.462-.455.764-.576.127-.06.251-.129.371-.204.387-.21.764-.436 1.156-.629.386-.201.809-.318 1.243-.345.023.004.047.004.07 0-.177-.045-.362-.045-.538 0l-1.076.242-.855.189c-.215.043-.441.064-.656.123-.307.113-.639.135-.958.065-.094-.012-.179-.06-.237-.135-.026-.039-.059-.073-.097-.102-.216-.174-.323-.451-.279-.726C-.273.605-.17.285 0 0" fill="#008337"/>
  <path transform="translate(235.6183 250.7967)" d="M0 0c.118.025.231.065.339.118.186.101.366.215.538.339.106.077.146.217.097.339-.049.129-.108.221-.275.215-.089.008-.174.04-.247.092-.472.275-.922.586-1.345.93-.253.216-.538.415-.796.619-.258.204-.452.296-.651.468-.199.172-.484.484-.737.715l-1.027.963c-.291.269-.592.538-.872.807-.103.117-.227.214-.366.285-.111.043-.217.097-.317.162-.575.426-1.351.462-1.963.091-.141-.098-.276-.204-.404-.317-.126-.105-.211-.252-.237-.414-.043-.233-.043-.472 0-.705.04-.4.221-.772.511-1.049.342-.348.735-.641 1.168-.866.193-.086.371-.194.538-.291l1.194-.618v-.049l-.968.215c-.285.062-.556.173-.802.329-.293.182-.599.344-.914.484-.061.027-.128.038-.194.032-.178 0-.355-.059-.538-.102-.064-.018-.123-.051-.172-.097-.367-.333-.483-.862-.291-1.318.036-.071.067-.145.092-.22.056-.197.151-.38.28-.538C-7.85.014-7.183-.438-6.434-.689c.197-.056.396-.101.597-.134.065 0 .135 0 .199-.043.68-.231 1.399-.323 2.115-.269.113.007.225.029.333.065l1.006.333c.307.102.619.194.92.312.41.174.832.316 1.264.425" fill="#008337"/>
  <path transform="translate(252.0144 244.8633)" d="m0 0 .468.215C.586.271.66.391.656.522c0 .086-.064.14-.15.167l-1.076.322c-.201.062-.397.138-.587.226-.215.108-.414.242-.624.355-.823.463-1.64.936-2.474 1.372-.556.314-1.156.542-1.781.678-.274.054-.538.145-.806.215-.217.071-.451.071-.668 0-.184-.079-.364-.169-.537-.269-.144-.068-.253-.193-.302-.344-.096-.24-.096-.508 0-.748.136-.331.369-.614.667-.812.219-.145.445-.278.678-.398.301-.156.619-.291.925-.436l-.306.059c-.49.144-.968.324-1.431.538-.576.221-1.146.457-1.705.705-.52.195-1.062.321-1.614.376-.178.03-.358.044-.538.043h-.613c-.227.013-.449-.06-.624-.204-.041-.034-.089-.058-.14-.07-.173-.03-.288-.195-.258-.367.003-.02.009-.039.016-.058.057-.309.23-.584.484-.769.156-.102.312-.205.463-.318.405-.256.834-.474 1.28-.651.966-.441 1.973-.787 3.007-1.032.732-.175 1.48-.279 2.232-.312.511-.061 1.026-.074 1.539-.038.462.059.925.113 1.382.199.21.058.416.126.619.204.145.043.296.049.446.081.47.106.918.287 1.329.538.156.054.333.14.511.226" fill="#008337"/>
  <path transform="translate(285.4091 247.1065)" d="M0 0c-.078.015-.156.034-.231.059-.223.081-.451.144-.683.188-.646.065-1.297.108-1.948.151-.639.047-1.281.007-1.909-.118-.382-.081-.764-.172-1.141-.285-.192-.075-.397-.11-.602-.103.204.173.382.329.564.468.109.079.222.151.339.216.054.037.119.059.173.091l.424.301c.665.433 1.227 1.006 1.647 1.679.093.142.161.301.199.468.053.406-.232.779-.639.833-.085.011-.171.008-.254-.01-.151 0-.296-.043-.441-.07-.095 0-.19-.015-.28-.043-.258-.101-.507-.225-.743-.372-.441-.301-.855-.645-1.291-.962-.274-.205-.538-.398-.839-.592-.398-.264-.801-.538-1.205-.78-.215-.135-.419-.291-.645-.404-.447-.225-.909-.425-1.361-.64-.102-.052-.197-.115-.285-.188-.087-.057-.119-.169-.076-.264.063-.156.191-.278.35-.333.194-.097.387-.194.586-.274.131-.057.268-.095.409-.113.154-.005.307-.034.452-.086.064-.024.131-.036.199-.038.205 0 .409 0 .613-.043.205-.043.474-.043.705-.086.355-.065.699-.151 1.076-.226.66-.134 1.338-.157 2.006-.07.214.033.43.047.646.043.592-.032 1.183-.081 1.77-.134.586-.054 1.183 0 1.775 0 .32.005.635.078.925.215.408.165.604.629.439 1.037-.117.288-.392.482-.703.496z" fill="#008337"/>
  <path transform="translate(278.7011 264.7291)" d="M0 0c.29.032.581.081.866.118h.135l1.355.129c.291.027.581.081.877.092C3.89.334 4.543.251 5.18.091c.41-.099.828-.164 1.248-.193.323 0 .646-.038.969-.054l2.286-.113v.043h.86c.49.043.974.108 1.464.172.268.028.534.075.796.14.237.068.469.154.694.258.262.084.471.282.57.538.026.077.066.148.118.21.283.42.254.977-.07 1.366-.044.057-.075.124-.091.194-.034.153-.122.288-.248.382-.11.079-.225.15-.344.215-.256.164-.588.148-.828-.038-.088-.067-.182-.126-.28-.177-.43-.221-.91-.328-1.393-.312H9.043c-.218-.011-.436 0-.651.032-.421.092-.85.139-1.281.14-.376 0-.758 0-1.135-.027-.489-.032-.979-.043-1.463-.124-.683-.113-1.361-.269-2.039-.414-.462-.106-.903-.288-1.307-.538-.328-.195-.636-.422-.92-.677C.036.897-.124.636-.221.35-.256.243-.231.126-.156.043-.113.007-.056-.009 0 0" fill="#008337"/>
  <path transform="translate(281.1325 253.1743)" d="M0 0c.264-.027.538-.065.785-.086.248-.022.366 0 .538 0 .505-.046 1.013-.046 1.517 0 .577.059 1.146.183 1.695.371.187.08.382.141.581.183.435.093.845.276 1.205.538.284.151.542.347.764.581.035.036.075.069.118.097.178.136.345.285.5.446.197.153.233.437.08.634-.001.002-.003.004-.005.006-.092.137-.226.24-.381.296-.239.113-.511.134-.764.059-.103-.027-.207-.049-.312-.064-.345-.059-.7-.102-1.044-.188-.64-.167-1.275-.355-1.91-.538-.403-.097-.801-.216-1.21-.275-.409-.059-.925-.097-1.393-.134-.419-.059-.844-.048-1.259.032-.126.02-.254.033-.382.038l.323.737c.135.392.033.828-.264 1.119-.363.35-.85.543-1.355.538h-.049c-.337.051-.681-.018-.973-.194-.279-.124-.527-.307-.727-.538-.344-.366-.704-.721-1.075-1.076-.261-.289-.578-.521-.931-.683l-.888-.387c-.191-.074-.328-.244-.36-.447-.048-.204.032-.317.258-.328.312 0 .613-.108.936-.102.323.005.673-.097 1.011-.102.673 0 1.335-.146 2.002-.21C-2.2.253-1.426.156-.656.07z" fill="#008337"/>
  <path transform="translate(261.837 247.1549)" d="M0 0c.346.232.722.413 1.119.538.538.156 1.076.344 1.614.538.799.246 1.628.383 2.463.409.483.022.954.154 1.378.387.093.045.18.103.258.172.142.131.273.273.392.425.127.149.18.346.146.538-.093.318-.334.572-.646.683-.162.061-.333.098-.506.108l-1.436.14c-.12.008-.24.008-.36 0-.8-.029-1.595-.139-2.372-.329-.546-.138-1.066-.365-1.539-.672-.538-.344-1.076-.726-1.614-1.076-.209-.145-.414-.296-.608-.457-.41-.32-.88-.556-1.382-.694-.312-.102-.64-.161-.963-.242-.316-.096-.608-.259-.855-.479-.169-.151-.225-.392-.14-.602.043-.205.21-.248.376-.296.167-.048.178-.038.259-.065l.71-.231c.134-.043.279-.07.409-.124.426-.179.887-.261 1.35-.242.068.006.136.006.204 0 .631-.104 1.27-.154 1.91-.15.438 0 .871.095 1.269.279.426.15.799.419 1.076.775.032.054.102.086.14.14.107.122.197.258.269.403.114.245.008.537-.237.651-.079.036-.166.051-.253.043-.306-.038-.609-.095-.909-.172C1.231.3.947.181.672.043.391-.065.099-.142-.199-.188v.064c.064.046.13.087.199.124" fill="#008337"/>
  <path transform="translate(260.9763 269.635)" d="M0 0c.175-.055.355-.093.538-.113.64-.038 1.275-.048 1.91-.118.662-.073 1.315-.217 1.947-.431.499-.193 1.03-.291 1.565-.29.102-.005.205-.005.307 0 .624.081 1.248.161 1.872.263.267.045.532.108.791.189.139.037.269.123.408.161.41.123.781.351 1.076.662.086.091.164.19.232.296.177.279.032.478-.21.602-.22.123-.469.185-.721.178l-1.447-.065c.266.186.497.417.683.683.156.301.161.436-.172.576-.09.032-.178.07-.264.113-.228.116-.48.181-.737.188-.586.026-1.171-.058-1.726-.247-.593-.183-1.174-.404-1.738-.662-.544-.237-1.101-.446-1.667-.624-.299-.096-.605-.167-.915-.21C1.202 1.086.681.963.177.785.126.77.08.743.043.705-.033.62-.1.529-.156.43-.234.273-.169.083-.012.005-.008.004-.004.002 0 0" fill="#008337"/>
  <path transform="translate(259.653 244.164)" d="M0 0c.094.094.174.201.237.317C.292.402.268.515.183.57.047.653-.105.704-.264.721c-.274.021-.549.021-.823 0-.053-.006-.107-.006-.161 0-.192.036-.386.061-.581.075-.164.014-.322.066-.463.151-.156.092-.325.162-.5.21-.385.112-.779.19-1.178.231-.428.075-.869.019-1.264-.161-.179-.091-.324-.236-.414-.415-.04-.141-.058-.288-.054-.435.004-.049.025-.095.059-.13.133-.158.3-.283.49-.365.145-.054.285-.124.462-.205-.064-.037-.091-.07-.123-.07-.312-.032-.619-.075-.931-.086-.214 0-.428.011-.64.033-.416.011-.828-.073-1.205-.248-.246-.105-.431-.317-.5-.575-.064-.187.021-.392.199-.479.209-.122.442-.201.683-.232h.274l.898-.053h.07l1.135.204.501.102c.314.034.627.084.936.151.387.102.764.247 1.14.377l.344.129.571.242C-.848-.632-.395-.352 0 0" fill="#008337"/>
  <path transform="translate(234.7952 256.1544)" d="M0 0c-.362.335-.759.631-1.183.882-.221.129-.436.258-.662.377-.249.14-.553.14-.802 0-.171-.074-.308-.208-.387-.377-.037-.137-.059-.278-.064-.419.021-.113.059-.222.113-.323.472-.686 1.197-1.157 2.017-1.307.247-.059.5-.103.753-.146.085-.024.175-.033.263-.026.218.021.437.01.651-.033h.156c.108-.016.215.035.269.129.038.124 0 .258-.097.345C.683-.592.328-.307 0 0" fill="#008337"/>
  <path transform="translate(237.2267 263.4273)" d="M0 0c-.108.133-.225.259-.35.377-.306.285-.634.537-.946.85-.312.312-.474.467-.716.704-.248.248-.54.449-.861.592-.198.096-.427.108-.634.032-.24-.079-.376-.331-.312-.575.151-.498.408-.956.753-1.345.061-.066.132-.122.21-.167.259-.148.527-.281.801-.398.463-.21.961-.33 1.469-.355.156 0 .312 0 .468.054C.038-.178.07-.065 0 0" fill="#008337"/>
  <path transform="translate(273.3756 257.8436)" d="M0 0c.296-.054.597-.075.888-.108l.505.06c.786.087 1.542.352 2.211.774.124.081.264.156.248.339-.017.183-.162.253-.302.328-.034.014-.07.025-.107.032-.461.144-.949.18-1.426.108-.098-.017-.196-.026-.296-.027-.384-.002-.767-.036-1.145-.102-.453-.087-.854-.345-1.119-.721C-.662.55-.65.346-.517.227-.51.221-.502.215-.495.21-.341.117-.174.046 0 0" fill="#008337"/>
  <path transform="translate(261.5573 266.7786)" d="m0 0 .624.097c.274.049.545.111.812.188.146.057.283.133.409.226.149.123.169.344.046.492-.014.017-.029.032-.046.046-.141.084-.286.159-.436.226-.639.28-1.349.355-2.033.215-.096-.014-.185-.055-.258-.118-.095-.123-.175-.256-.237-.398-.075-.188-.026-.402.124-.538C-.745.15-.38-.01 0 0" fill="#008337"/>
  <path transform="translate(271.9124,350.2868)" d="m4.6711361 20.26001h-32.1896081v-28.2076009h18.9922699v6.2475909c0.116 0.281 0.1592021 0.586 0.1242021 0.888-0.162 0.747-1.211 1.452-1.458 2.646-0.199 0.985-0.07 5.433 0 6.961l0.9561 0.376257 0.6469-1.237257c-0.119-1.323-0.468-5.411-0.328-5.954 0.161-0.646 0.952-1.211 1.414-2.427 0.17-0.548 0.1697838-1.135-2.162e-4 -1.683v-5.3521896h11.8423523" fill="#f8baa2"/>
  <path transform="translate(250.3522 358.5709)" d="m0 0 .194-.054c.339-.123.742-.253 1.205-.382-.189-.327-.291-.698-.296-1.076-.059-1.142.82-2.115 1.963-2.173 1.142-.059 2.115.82 2.173 1.962.004.071.004.141 0 .211 0 .167-.02.333-.059.495 1.732.038 3.099.667 3.825 2.152v.027c.08.147.123.311.124.479.024.474-.338.88-.813.909-.322-.01-.608-.211-.726-.511C6.579.775 4.497.888 3.453.92 2.512.947.629 1.964-.264 2.286c-.162.098-.348.148-.538.145-.461.002-.867-.304-.995-.747-.021-.083-.032-.168-.032-.253-.045-.439.074-.88.334-1.237C-.989.251-.476.184 0 0" fill="#2b1f1b"/>
 </g>
 <path transform="matrix(.49461 0 0 -.4946 58.75308445 60.0642921)" d="M0 0v.13l-.193.031Z" fill="#2b1f1b"/>
 <g transform="matrix(.49461 0 0 -.4946 -63.220093 239.148748)" clip-path="url(#e)">
  <path transform="translate(379.7243 425.1075)" d="M0 0h-236.35c-1.526 0-2.915-.877-3.572-2.254H3.572C2.915-.877 1.525 0 0 0" fill="#f5d87a"/>
  <path transform="translate(274.785 375.2199)" d="M0 0c-.067-1.256.167-2.51.683-3.658C-.495-2.119-3.62 1.339-7.138 1.474c.102-.717.266-1.425.489-2.114-2.117 2.06-5.079 3.008-7.999 2.56.371-1.011.958-1.929 1.722-2.689-1.811.147-3.619-.315-5.138-1.313.819.965 1.375 2.125 1.614 3.368-3.938.812-7.38-1.356-7.38-1.356.268.663.38 1.379.328 2.093-5.573-1.614-7.257-5.294-7.45-5.751.404 1.005.647 2.067.72 3.147-8.069-1.614-6.525-8.698-6.525-8.698s-.99-2.222 1.108-4.992c2.098-2.771 8.984-.129 8.984-.129l-1.722 1.409s5.089-.941 7.263 1.404c-.124.984-1.722 1.668-1.722 1.668s6.455-1.152 8.37 2.689c-.553.433-1.132.834-1.732 1.2 1.365-.226 2.75-.305 4.132-.237-1.477-.689-2.672-1.864-3.384-3.33 0 0 2.953-1.151 9.231.576-1.271-.46-2.31-1.401-2.894-2.62 3.176-1.067 6.614-1.067 9.79 0-1.5-.491-2.783-1.487-3.631-2.819 0 0 11.141-5.379 9.231 3.906C10.28-4.798 0 0 0 0" fill="#8ea827"/>
  <path transform="translate(256.6782 375.6287)" d="M0 0c-3.421.409-5.449-1.13-7.079-2.329.156.656.538 2.582.538 2.582-1.245-.742-2.441-1.561-3.583-2.453-1.175-1.023-2.256-2.15-3.227-3.368.233 1.07.296 2.171.188 3.26-1.071-.077-2.071-.564-2.792-1.361-1.039-1.23-1.677-2.748-1.829-4.352 1.313.538 3.308 4.352 3.308 4.352.014-.52-.055-1.039-.204-1.538-.248-.829-3.125-4.115-2.878-4.842.247-.726 3.835-2.92 5.315-4.201-1.727.065-4.089 2.539-5.299 2.281.662-1.151 1.727-4.519 7.531-2.469-1.538 1.791-5.557 4.357-5.476 4.841 1.571-1.215 6.789-3.83 11.248-2.302 0 0-.828 1.447-4.787 3.927 3.286-1.108 7.617-2.329 11.49-.172 0 0-2.098 2.426-7.429 3.034C-4.131-4.642-.834-2.673 0 0m-2.152-1.366c-2.025-1.159-4.112-2.208-6.25-3.142.309.29.584.615.817.968l.032.054C-3.825-.925-2.13-1.388-2.13-1.388zm-7.585-1.727c.397.338.812.654 1.243.947-.565-.866-2.464-3.61-4.303-4.465h-.038c.978 1.226 2.019 2.4 3.12 3.518zm2.69-7.488s-5.557.188-8.069 1.791c.194.366 1.582.925 2.254.769 1.167-.258 5.853-2.56 5.853-2.56zm5.256 3.158c-3.545-.538-5.702.893-6.267 1.323l.285.097c1.662-.006 4.147-.764 6.019-1.42z" fill="#008337"/>
  <path transform="translate(277.0604 371.6373)" d="M0 0c.495-.188 3.766-3.943 3.766-3.943.005 1.025-.315 2.025-.915 2.856C1.579.078.178 1.094-1.323 1.942-.901-.456-.159-2.786.882-4.987l-.08-.043-1.324.64c-2.399 6.622-7.3 8.274-7.3 8.274-.005-.84.078-1.679.248-2.502-5.132 3.798-7.752 3.077-7.752 3.077.738-1.051 1.648-1.971 2.69-2.721-.812.116-1.632.172-2.453.166-4.142-.134-6.181-2.501-6.181-2.501 2.853-1.095 5.92-1.518 8.962-1.237-1.428-.996-2.759-2.123-3.975-3.368 3.693-.431 7.435.109 10.855 1.566.121-.21.262-.408.42-.592-3.733-1.463-4.379-3.47-4.379-3.47 3.137-.423 6.321-.335 9.43.258-1.888-1.215-3.814-3.071-3.647-3.394 1.149-.442 2.373-.659 3.604-.64 1.662.129 2.733.812 3.039 1.705-1.786-1.151-4.271-.425-4.271-.425C.554-8.209 3.292-8.402 3.292-8.402l-.086 1.307c.196.387.289.819.269 1.253C.678-2.813-.49.194 0 0m-19.817-.129s4.206 1.614 7.579-.592c-2.541-.125-5.088.074-7.579.592zm7.692-3.706c1.614 1.468 4.739 1.613 5.223 1.613h.033c-.382-.22-3.465-1.678-5.256-1.63zm4.987 2.877c-2.109.883-4.207 2.69-5.38 3.852 2.403-.516 4.497-1.978 5.81-4.056zM-5.933.086c-.128.559-.182 1.132-.162 1.705 0 0 2.453-1.361 4.18-5.465l-.054.027C-3.208-2.318-4.532-1.071-5.933.086zm-.436-6.928c.538.441 2.291 1.855 3.539 1.855.909-.05 1.803-.25 2.647-.591-2.356-1.049-5.61-1.238-6.186-1.264z" fill="#008337"/>
  <path transform="translate(309.8526 153.0548)" d="M0 0c.423-.058.84-.159 1.243-.301.132-.064.278-.092.425-.081.36.032.629.274.602.538-.015.136-.095.257-.215.323-.408.49-.962.837-1.582.99-.995.215-2.872-.291-2.872-.291l.479-1.226S-.613.038 0 0" fill="#f8baa2"/>
  <path transform="translate(308.6853 155.4486)" d="M0 0c.457.065.807-.204 1.264-.178.324.028.58.285.608.608-.025.197-.172.357-.366.398-.625.187-1.273.29-1.926.307-.59-.004-1.176-.1-1.737-.285l.538-1.076S-.522-.081 0 0" fill="#f8baa2"/>
  <path transform="translate(307.362 157.9338)" d="M0 0c-.04.024-.084.042-.129.054-.413.15-.847.23-1.286.236C-2.018.286-2.616.19-3.19.005c0 0 .538-.398 1.028-.71.383-.003.766.024 1.145.081l.775.048c.2-.022.381.123.403.323-.003.099-.055.19-.139.242z" fill="#f8baa2"/>
  <path transform="translate(279.1045 340.631)" d="M0 0c.032.57.07.984-.57 2.152-.336.854-.472 1.774-.398 2.689 0 .318.054.689.075 1.141.167 3.297-.371 6.632-.425 12.614-1.304.034-2.595.273-3.825.71-.118-1.689-.57-4.196-.57-5.75 0-1.463.587-3.481.823-5.186-.651.524-1.376.948-2.151 1.259-.053.03-.112.046-.173.048-.213 0-.387-.173-.387-.387.002-.114.056-.221.145-.29.686-.539 1.229-1.237 1.582-2.034-.656.678-1.448 1.209-2.324 1.56-.06.042-.131.067-.204.07-.211 0-.382-.171-.382-.382v-.005c.001-.087.034-.171.091-.237.015-.019.034-.035.054-.048.877-.829 1.604-1.803 2.152-2.878l-.129-.156c-.873 1.115-2.053 1.949-3.395 2.399-.048.026-.101.039-.156.038-.211.003-.384-.166-.387-.377v-.005c0-.145.084-.277.215-.339 1.015-.886 1.904-1.907 2.641-3.034l-.425-.538c-2.008 2.166-4.487 3.843-7.246 4.9-.072.035-.151.054-.231.054-.161-.001-.313-.074-.414-.199-.331-.513-.733-.976-1.194-1.377-.78-.374-1.683-.389-2.475-.043-.821.601-1.592 1.267-2.307 1.99-.1.163-.278.262-.468.259-.15-.001-.292-.063-.393-.173-2.288-1.52-4.46-3.209-6.498-5.051l-.269.323c.774 1.668 1.447 2.308 1.759 2.518.122.064.199.19.199.328 0 .211-.171.382-.382.382h-.006c-.071-.002-.14-.024-.199-.065-.306-.124-1.699-.688-2.915-1.216.582.679 1.273 1.257 2.044 1.711.178.113.231.349.119.527-.069.109-.189.176-.318.178-.056-.001-.111-.014-.161-.038-.194-.059-1.367-.436-2.405-.871.299.697.762 1.312 1.35 1.791.09.072.143.181.146.296-.001.211-.172.381-.383.381-.09 0-.178-.032-.247-.091-.702-.3-1.377-.66-2.017-1.076.339 1.312.599 2.643.78 3.986.124 1.985-.689 4.541-.646 5.67.029.512.094 1.02.194 1.523-1.387-.404-2.826-.6-4.271-.581-.231-2.254-.855-5.283-.624-7.365.323-2.915 1.044-3.464 1.044-5.917 0 0-.361-2.996-1.614-4.045-.027 0-.221-.135-.21-.151-.106-.069-.222-.122-.344-.156-.135-.003-.242-.113-.242-.247s.108-.242.242-.242c.62-.129 1.266.023 1.764.414l.075.07c-.018-.175-.083-.342-.188-.484-.379-.683-.646-1.422-.791-2.19-.242-1.275.129-3.2.129-3.684.042-.368-.067-.736-.301-1.023-.023-.025-.041-.054-.054-.086-.005-.024-.005-.05 0-.075 0-.135.108-.244.243-.247.066 0 .129.029.172.08.5.361 1.124 2.098 1.124 2.534 0 .436.231 1.641 1.017 2.023.301-.84.301-1.641-.248-3.196-.611-1.593-.611-3.356 0-4.949.18-.28.219-.628.108-.941-.079-.04-.129-.121-.129-.21 0-.134.108-.242.242-.242.065-.001.128.026.172.075.024.029.042.062.054.097.538.931.183 1.221.355 2.12.296 1.517.817 1.447 1.043 2.2.122.494.324.964.597 1.393.086-.672.059-1.354-.08-2.017-.14-.587-1.56-3.179-.178-5.105.296-.372.531-.788.699-1.232.128-.409.009-.855-.306-1.146-.066-.045-.106-.119-.108-.199 0-.133.108-.242.242-.242.079.001.152.041.194.108.489.33.849.818 1.022 1.382.301 1.033-.468 1.232-.425 2.367.043 1.135 1.199.99 1.269 3.766l.124-.237c.216-.677.334-1.382.35-2.093-.043-1.226-.409-1.431-.468-2.49-.21-2.647 1.006-4.304 1.016-4.788.011-.484-.156-1.14-.537-1.242-.134-.001-.242-.11-.242-.243.001-.133.109-.241.242-.242.815.016 1.53.551 1.775 1.329.258 1.641-.409 1.872-.108 3.023.095.408.279.79.538 1.119.226-2.017.818-3.184.828-4.158 0-1.14-.376-1.469-.274-2.582.102-1.114.78-1.883.78-2.259.001-.216-.051-.428-.151-.619-.056-.047-.089-.115-.091-.188-.009-.131.09-.244.22-.253.09-.006.176.04.221.118.411.349.697.824.812 1.35.194.877-.473.969 0 2.459.233.623.524 1.223.872 1.791-.108-1.146 0-2.076.602-4.088.205-.726.608-1.017.592-1.765.048-.644-.144-1.284-.538-1.796-.113-.072-.146-.221-.075-.334.043-.069.118-.111.199-.113.032-.006.065-.006.097 0l.07.049c.713.517 1.225 1.266 1.447 2.119.349 1.431-.113 1.533-.027 2.604.09.522.272 1.025.538 1.484-.015-1.472.398-2.916 1.188-4.158 1.076-1.915-.064-3.141-.064-3.141-.105-.028-.179-.123-.178-.232.003-.134.113-.242.248-.242.019-.003.039-.003.059 0 .538.065 1.313 1.022 1.538 1.49.226.468.538.856.199 2.389-.338 1.533.318 1.791.624 2.539.093.22.145.455.156.694l.356.156c.075-2.222.941-3.023 1.075-4.605.172-1.738-.629-2.539-.629-2.539-.08-.042-.13-.125-.129-.215 0-.134.108-.242.242-.242.034-.006.068-.006.102 0 1.108.489 1.901 1.497 2.114 2.689.307 1.324 0 1.657-.059 2.825-.032.537.382 1.382.839 2.533.447-1.199 1.141-2.27 1.141-2.921 0-.538-.226-1.033-.226-1.415.017-.294.1-.58.242-.839.034-.095.125-.157.226-.156.133 0 .242.109.242.242.054.248-.076.425.167.732.832.942 1.335 2.13 1.43 3.383.07 1.275-.365 1.399-.726 3.766-.115.733-.14 1.477-.075 2.216l.172.103c.081-1.7.624-2.152 1.2-2.905.578-.622.903-1.437.909-2.287-.037-.648-.221-1.279-.538-1.845-.008-.033-.008-.068 0-.102-.001-.134.106-.243.24-.244.065 0 .128.026.174.072.625.418 1.121 1.004 1.431 1.689.99 2.152.269 2.98.081 3.943-.189.963.349 1.91.564 3.228.388-1.614 1.415-2.087 1.238-2.808-.226-.904-.651-1.324-.667-1.888-.008-.335.096-.662.295-.931.043-.073.121-.118.205-.118.133-.012.251.086.262.219.003.031 0 .063-.009.093.008.03.008.061 0 .091 0 0-.318.64.14.898.893.538 1.398 1.663 1.398 3.12 0 1.458-.382 1.803-.382 2.916.016.429.109.852.275 1.248.35-.397.616-.862.78-1.366.068-.633-.017-1.273-.248-1.867-.146-.528-.041-1.093.285-1.533.066-.113.211-.151.324-.086.076.044.121.127.117.215.008.035.008.072 0 .108-.113.484.237.903.635 1.253.398.35 1.506 2.152 0 6.24-.979 2.657-.887 3.265-.742 3.986.613-.828 1.286-1.436 1.377-1.797.134-.538-.102-.898-.14-1.678-.038-.78.893-1.356.893-1.356.047-.029.101-.048.156-.053.141-.01.263.096.274.236-.005.105-.073.197-.172.232-.258.255-.364.626-.28.979.167.538.797 1.199.797 1.979 0 2.319-1.033 2.894-1.049 3.965.059.571.242 1.121.538 1.614.312-.328.564-.452.618-.727.086-.425-.22-.866 0-1.377.11-.272.279-.517.495-.715.045-.047.107-.075.172-.075.136.002.245.112.248.247-.001.093-.055.177-.14.215 0 0-.215.307-.108.538.173.348.269.73.28 1.119m-13.706.608c-.151.076-.312.127-.479.15-.254-.001-.495-.115-.656-.312-.984-.851-2.264-1.28-3.562-1.194-1.289.042-2.546.412-3.652 1.076-.158.195-.395.307-.646.307-.255-.001-.496-.118-.656-.318l-.064-.064c-.119-.111-.229-.232-.329-.361-.446-.489-1.242-.898-2.689-.72 1.41.983 2.623 2.222 3.577 3.652 2.929-.238 5.872-.238 8.801 0 .36.038.717-.098.962-.366 0 0 1.84-2.732 2.222-3.857-.883.751-1.829 1.422-2.829 2.007" fill="#2b1f1b"/>
  <path transform="translate(256.221 343.4659)" d="M0 0c-.949-1.429-2.157-2.668-3.561-3.653 1.463-.177 2.259.232 2.69.721.099.129.209.249.328.361l.064.064c.16.2.401.317.656.318.251 0 .488-.112.646-.307C1.929-3.16 3.186-3.53 4.476-3.572c1.297-.086 2.577.343 3.561 1.194.161.197.402.311.656.312.167-.021.329-.072.479-.15.992-.577 1.933-1.238 2.813-1.974-.382 1.124-2.222 3.857-2.222 3.857-.245.267-.602.403-.962.365C5.873-.217 2.93-.228 0 0" fill="#f8baa2"/>
  <path transform="translate(262.4018 358.8076)" d="M0 0c.866-.559 1.865-.877 2.894-.92-.089-.241-.134-.496-.134-.753-.059-1.142.82-2.116 1.962-2.174 1.143-.058 2.116.821 2.174 1.963.004.07.004.141 0 .211 0 .523-.192 1.028-.538 1.42l.581.248c.786.22 1.501 0 1.797.172.296.172.393 1.156.393 1.156 0 .493-.4.893-.893.893-.088 0-.175-.015-.258-.043C5.939 1.813 5.396.699 3.787.726c-.992.02-1.965.269-2.846.726-.336.361-.901.381-1.262.044-.36-.336-.38-.901-.043-1.262C-.265.128-.142.048-.005 0Z" fill="#2b1f1b"/>
 </g>
</svg>
