<?xml version="1.0" encoding="UTF-8"?>
<svg width="480.04" height="490" xmlns="http://www.w3.org/2000/svg">
 <defs>
  <clipPath id="a">
   <path d="m265.65 522.94s-7.5379-0.22971-11.592 38.923c-4.0542 39.152-6.0713 58.632-11.462 110.69-5.3909 52.061-37.225 97.282-97.709 97.282-60.484 0-92.318-45.221-97.709-97.282-5.3909-52.061-7.408-71.54-11.462-110.69s-11.592-38.923-11.592-38.923z" fill="#f1be03"/>
  </clipPath>
 </defs>
 <path transform="matrix(1.9875 0 0 1.9846 -47.957 -1037.8)" d="m265.65 522.94s-7.5379-0.22971-11.592 38.923c-4.0542 39.152-6.0713 58.632-11.462 110.69-5.3909 52.061-37.225 97.282-97.709 97.282-60.484 0-92.318-45.221-97.709-97.282-5.3909-52.061-7.408-71.54-11.462-110.69s-11.592-38.923-11.592-38.923z" fill="#efbc00"/>
 <g transform="matrix(1.9875 0 0 1.9846 -47.957 -1037.8)" clip-path="url(#a)">
  <path d="m18.394 517.15 18.113 123.21 13.548-13v-30l13.548-13 13.548 13v30l13.548 13 13.548-13v-30l13.548-13 13.548 13v30l13.548 13 13.548-13v-30l13.548-13 13.548 13v30l13.548 13 13.548-13v-30l13.548-13 13.548 13v30l13.548 13 18.113-123.21z" clip-path="none" fill="#d72829"/>
 </g>
</svg>
