<?xml version="1.0" encoding="UTF-8"?>
<svg width="510.17" height="588.93" clip-rule="evenodd" fill-rule="evenodd" image-rendering="optimizeQuality" shape-rendering="geometricPrecision" text-rendering="geometricPrecision" version="1.0" xml:space="preserve" xmlns="http://www.w3.org/2000/svg">
  <path d="m0 0h510.17v333.47c0.0102 125.14-85.365 255.46-255.08 255.46s-255.08-130.32-255.08-255.46z" fill="#0e57a1"/>
  
    <path class="fil1" transform="matrix(1.0233 .00694 -.00644 1.1327 7.5669 -13.658)" d="m44.522 133.27c-4.1831 5.2181-1.6617 12.226-1.6617 12.226s-4.8802 2.8268-8.8338-3.1553c-3.9536-5.982 2.4913-21.283 12.995-25.022 0 0-6.5115-2.4081-10.248-11.139-3.7363-8.7313-3.3196-18.117-0.83-23.853 3.7573 0.7043 9.0497 0.71264 12.273-3.2531-10.803 1.9028-23.575-2.0236-24.951-8.707s9.6537-13.528 24.738-11.178c4.4943-4.3238 8.7952-3.0864 9.0563-2.2586 0.1566 0.49639 0.66517 5.0003-2.0607 8.2577 3.5926 12.645 9.1652 20.946 18.84 26.443s55.025-11.04 81.64-13.354 29.219 7.1512 49.956 6.2563l0.0904 14.374c-15.974 0.69925-15.248-7.5797-25.835-7.5149 16.028 11.418 10.202 16.726 16.443 21.044 4.4905 3.107 11.494 1.5039 12.969 4.3467 1.4744 2.8428-2.0782 7.068 5.8211 11.412 1.0081 0.55423 7.272-0.1846 8.6245 1.9045 1.3526 2.0891 1.8899 8.6262-7.3779 7.4034-9.0143-1.2073-13.343-12.281-17.289-13.677-4.7271-1.6723-8.4316 1.7103-22.376-4.3674-13.945-6.0777-8.5449-11.127-16.9-14.581 2.1411 2.6467 3.1229 7.0287 3.1229 7.0287s-19.266 6.7887-28.357 8.7523c0.43484-1.6878 1.138-5.8206 1.0263-6.0452-0.52657-1.0574-37.249 16.304-70.615 12.1 3.182-3.3892 2.1929-7.0902 2.1929-7.0902-8.1886 8.4146-18.269 8.4287-22.452 13.647zm-3.6003-70.972c2.8693 0.0769 4.1323 1.4143 4.0674 3.2053-0.06491 1.791-1.7932 3.2876-4.0267 3.2549-2.2335-0.03271-4.0076-1.6161-4.0674-3.2053-0.0598-1.5892 1.1574-3.3318 4.0267-3.2549z" fill="#fff"/>
    <path class="fil1" transform="matrix(1.0233 .00694 -.00644 1.1327 7.5669 -13.658)" d="m42.292 117.84c-11.663 7.0741-14.463 19.86-9.1545 25.844-10.392 5e-3 -8.1643-13.469-4.4438-19.795s10.608-9.39 10.608-9.39zm155.05 7.4788c-3.9372-1.8763-18.175 3.3587-33.665-11.642l-6.6714 2.3863c17.197 16.61 27.883 10.604 32.868 12.85 5.5545 3.5184 12.801 15.94 21.347 8.99-10.044-5.0802-10.735-11.086-13.878-12.584z" fill="#fff"/>
    <path class="fil2" transform="matrix(1.0233 .00694 -.00644 1.1327 7.5669 -13.658)" d="m205.44 84.53c7.704-0.33254 18.046-0.14343 26.965-7.4073-0.94176 15.148-15.728 21.714-26.875 21.782z"/>
  
  
    <path class="fil1" transform="matrix(1.0233 .00694 -.00644 1.1327 7.5669 133.49)" d="m44.522 133.27c-4.1831 5.2181-1.6617 12.226-1.6617 12.226s-4.8802 2.8268-8.8338-3.1553c-3.9536-5.982 2.4913-21.283 12.995-25.022 0 0-6.5115-2.4081-10.248-11.139-3.7363-8.7313-3.3196-18.117-0.83-23.853 3.7573 0.7043 9.0497 0.71264 12.273-3.2531-10.803 1.9028-23.575-2.0236-24.951-8.707s9.6537-13.528 24.738-11.178c4.4943-4.3238 8.7952-3.0864 9.0563-2.2586 0.1566 0.49639 0.66517 5.0003-2.0607 8.2577 3.5926 12.645 9.1652 20.946 18.84 26.443s55.025-11.04 81.64-13.354 29.219 7.1512 49.956 6.2563l0.0904 14.374c-15.974 0.69925-15.248-7.5797-25.835-7.5149 16.028 11.418 10.202 16.726 16.443 21.044 4.4905 3.107 11.494 1.5039 12.969 4.3467 1.4744 2.8428-2.0782 7.068 5.8211 11.412 1.0081 0.55423 7.272-0.1846 8.6245 1.9045 1.3526 2.0891 1.8899 8.6262-7.3779 7.4034-9.0143-1.2073-13.343-12.281-17.289-13.677-4.7271-1.6723-8.4316 1.7103-22.376-4.3674-13.945-6.0777-8.5449-11.127-16.9-14.581 2.1411 2.6467 3.1229 7.0287 3.1229 7.0287s-19.266 6.7887-28.357 8.7523c0.43484-1.6878 1.138-5.8206 1.0263-6.0452-0.52657-1.0574-37.249 16.304-70.615 12.1 3.182-3.3892 2.1929-7.0902 2.1929-7.0902-8.1886 8.4146-18.269 8.4287-22.452 13.647zm-3.6003-70.972c2.8693 0.0769 4.1323 1.4143 4.0674 3.2053-0.06491 1.791-1.7932 3.2876-4.0267 3.2549-2.2335-0.03271-4.0076-1.6161-4.0674-3.2053-0.0598-1.5892 1.1574-3.3318 4.0267-3.2549z" fill="#fff"/>
    <path class="fil1" transform="matrix(1.0233 .00694 -.00644 1.1327 7.5669 133.49)" d="m42.292 117.84c-11.663 7.0741-14.463 19.86-9.1545 25.844-10.392 5e-3 -8.1643-13.469-4.4438-19.795s10.608-9.39 10.608-9.39zm155.05 7.4788c-3.9372-1.8763-18.175 3.3587-33.665-11.642l-6.6714 2.3863c17.197 16.61 27.883 10.604 32.868 12.85 5.5545 3.5184 12.801 15.94 21.347 8.99-10.044-5.0802-10.735-11.086-13.878-12.584z" fill="#fff"/>
    <path class="fil2" transform="matrix(1.0233 .00694 -.00644 1.1327 7.5669 133.49)" d="m205.44 84.53c7.704-0.33254 18.046-0.14343 26.965-7.4073-0.94176 15.148-15.728 21.714-26.875 21.782z"/>
  
  
    <path class="fil1" transform="matrix(1.0233 .00694 -.00644 1.1327 7.5669 280.63)" d="m44.522 133.27c-4.1831 5.2181-1.6617 12.226-1.6617 12.226s-4.8802 2.8268-8.8338-3.1553c-3.9536-5.982 2.4913-21.283 12.995-25.022 0 0-6.5115-2.4081-10.248-11.139-3.7363-8.7313-3.3196-18.117-0.83-23.853 3.7573 0.7043 9.0497 0.71264 12.273-3.2531-10.803 1.9028-23.575-2.0236-24.951-8.707s9.6537-13.528 24.738-11.178c4.4943-4.3238 8.7952-3.0864 9.0563-2.2586 0.1566 0.49639 0.66517 5.0003-2.0607 8.2577 3.5926 12.645 9.1652 20.946 18.84 26.443s55.025-11.04 81.64-13.354 29.219 7.1512 49.956 6.2563l0.0904 14.374c-15.974 0.69925-15.248-7.5797-25.835-7.5149 16.028 11.418 10.202 16.726 16.443 21.044 4.4905 3.107 11.494 1.5039 12.969 4.3467 1.4744 2.8428-2.0782 7.068 5.8211 11.412 1.0081 0.55423 7.272-0.1846 8.6245 1.9045 1.3526 2.0891 1.8899 8.6262-7.3779 7.4034-9.0143-1.2073-13.343-12.281-17.289-13.677-4.7271-1.6723-8.4316 1.7103-22.376-4.3674-13.945-6.0777-8.5449-11.127-16.9-14.581 2.1411 2.6467 3.1229 7.0287 3.1229 7.0287s-19.266 6.7887-28.357 8.7523c0.43484-1.6878 1.138-5.8206 1.0263-6.0452-0.52657-1.0574-37.249 16.304-70.615 12.1 3.182-3.3892 2.1929-7.0902 2.1929-7.0902-8.1886 8.4146-18.269 8.4287-22.452 13.647zm-3.6003-70.972c2.8693 0.0769 4.1323 1.4143 4.0674 3.2053-0.06491 1.791-1.7932 3.2876-4.0267 3.2549-2.2335-0.03271-4.0076-1.6161-4.0674-3.2053-0.0598-1.5892 1.1574-3.3318 4.0267-3.2549z" fill="#fff"/>
    <path class="fil1" transform="matrix(1.0233 .00694 -.00644 1.1327 7.5669 280.63)" d="m42.292 117.84c-11.663 7.0741-14.463 19.86-9.1545 25.844-10.392 5e-3 -8.1643-13.469-4.4438-19.795s10.608-9.39 10.608-9.39zm155.05 7.4788c-3.9372-1.8763-18.175 3.3587-33.665-11.642l-6.6714 2.3863c17.197 16.61 27.883 10.604 32.868 12.85 5.5545 3.5184 12.801 15.94 21.347 8.99-10.044-5.0802-10.735-11.086-13.878-12.584z" fill="#fff"/>
    <path class="fil2" transform="matrix(1.0233 .00694 -.00644 1.1327 7.5669 280.63)" d="m205.44 84.53c7.704-0.33254 18.046-0.14343 26.965-7.4073-0.94176 15.148-15.728 21.714-26.875 21.782z"/>
  
  
    <path class="fil1" transform="matrix(1.0233 .00694 -.00644 1.1327 242.04 -13.658)" d="m44.522 133.27c-4.1831 5.2181-1.6617 12.226-1.6617 12.226s-4.8802 2.8268-8.8338-3.1553c-3.9536-5.982 2.4913-21.283 12.995-25.022 0 0-6.5115-2.4081-10.248-11.139-3.7363-8.7313-3.3196-18.117-0.83-23.853 3.7573 0.7043 9.0497 0.71264 12.273-3.2531-10.803 1.9028-23.575-2.0236-24.951-8.707s9.6537-13.528 24.738-11.178c4.4943-4.3238 8.7952-3.0864 9.0563-2.2586 0.1566 0.49639 0.66517 5.0003-2.0607 8.2577 3.5926 12.645 9.1652 20.946 18.84 26.443s55.025-11.04 81.64-13.354 29.219 7.1512 49.956 6.2563l0.0904 14.374c-15.974 0.69925-15.248-7.5797-25.835-7.5149 16.028 11.418 10.202 16.726 16.443 21.044 4.4905 3.107 11.494 1.5039 12.969 4.3467 1.4744 2.8428-2.0782 7.068 5.8211 11.412 1.0081 0.55423 7.272-0.1846 8.6245 1.9045 1.3526 2.0891 1.8899 8.6262-7.3779 7.4034-9.0143-1.2073-13.343-12.281-17.289-13.677-4.7271-1.6723-8.4316 1.7103-22.376-4.3674-13.945-6.0777-8.5449-11.127-16.9-14.581 2.1411 2.6467 3.1229 7.0287 3.1229 7.0287s-19.266 6.7887-28.357 8.7523c0.43484-1.6878 1.138-5.8206 1.0263-6.0452-0.52657-1.0574-37.249 16.304-70.615 12.1 3.182-3.3892 2.1929-7.0902 2.1929-7.0902-8.1886 8.4146-18.269 8.4287-22.452 13.647zm-3.6003-70.972c2.8693 0.0769 4.1323 1.4143 4.0674 3.2053-0.06491 1.791-1.7932 3.2876-4.0267 3.2549-2.2335-0.03271-4.0076-1.6161-4.0674-3.2053-0.0598-1.5892 1.1574-3.3318 4.0267-3.2549z" fill="#fff"/>
    <path class="fil1" transform="matrix(1.0233 .00694 -.00644 1.1327 242.04 -13.658)" d="m42.292 117.84c-11.663 7.0741-14.463 19.86-9.1545 25.844-10.392 5e-3 -8.1643-13.469-4.4438-19.795s10.608-9.39 10.608-9.39zm155.05 7.4788c-3.9372-1.8763-18.175 3.3587-33.665-11.642l-6.6714 2.3863c17.197 16.61 27.883 10.604 32.868 12.85 5.5545 3.5184 12.801 15.94 21.347 8.99-10.044-5.0802-10.735-11.086-13.878-12.584z" fill="#fff"/>
    <path class="fil2" transform="matrix(1.0233 .00694 -.00644 1.1327 242.04 -13.658)" d="m205.44 84.53c7.704-0.33254 18.046-0.14343 26.965-7.4073-0.94176 15.148-15.728 21.714-26.875 21.782z"/>
  
  
    <path class="fil1" transform="matrix(1.0233 .00694 -.00644 1.1327 242.04 133.49)" d="m44.522 133.27c-4.1831 5.2181-1.6617 12.226-1.6617 12.226s-4.8802 2.8268-8.8338-3.1553c-3.9536-5.982 2.4913-21.283 12.995-25.022 0 0-6.5115-2.4081-10.248-11.139-3.7363-8.7313-3.3196-18.117-0.83-23.853 3.7573 0.7043 9.0497 0.71264 12.273-3.2531-10.803 1.9028-23.575-2.0236-24.951-8.707s9.6537-13.528 24.738-11.178c4.4943-4.3238 8.7952-3.0864 9.0563-2.2586 0.1566 0.49639 0.66517 5.0003-2.0607 8.2577 3.5926 12.645 9.1652 20.946 18.84 26.443s55.025-11.04 81.64-13.354 29.219 7.1512 49.956 6.2563l0.0904 14.374c-15.974 0.69925-15.248-7.5797-25.835-7.5149 16.028 11.418 10.202 16.726 16.443 21.044 4.4905 3.107 11.494 1.5039 12.969 4.3467 1.4744 2.8428-2.0782 7.068 5.8211 11.412 1.0081 0.55423 7.272-0.1846 8.6245 1.9045 1.3526 2.0891 1.8899 8.6262-7.3779 7.4034-9.0143-1.2073-13.343-12.281-17.289-13.677-4.7271-1.6723-8.4316 1.7103-22.376-4.3674-13.945-6.0777-8.5449-11.127-16.9-14.581 2.1411 2.6467 3.1229 7.0287 3.1229 7.0287s-19.266 6.7887-28.357 8.7523c0.43484-1.6878 1.138-5.8206 1.0263-6.0452-0.52657-1.0574-37.249 16.304-70.615 12.1 3.182-3.3892 2.1929-7.0902 2.1929-7.0902-8.1886 8.4146-18.269 8.4287-22.452 13.647zm-3.6003-70.972c2.8693 0.0769 4.1323 1.4143 4.0674 3.2053-0.06491 1.791-1.7932 3.2876-4.0267 3.2549-2.2335-0.03271-4.0076-1.6161-4.0674-3.2053-0.0598-1.5892 1.1574-3.3318 4.0267-3.2549z" fill="#fff"/>
    <path class="fil1" transform="matrix(1.0233 .00694 -.00644 1.1327 242.04 133.49)" d="m42.292 117.84c-11.663 7.0741-14.463 19.86-9.1545 25.844-10.392 5e-3 -8.1643-13.469-4.4438-19.795s10.608-9.39 10.608-9.39zm155.05 7.4788c-3.9372-1.8763-18.175 3.3587-33.665-11.642l-6.6714 2.3863c17.197 16.61 27.883 10.604 32.868 12.85 5.5545 3.5184 12.801 15.94 21.347 8.99-10.044-5.0802-10.735-11.086-13.878-12.584z" fill="#fff"/>
    <path class="fil2" transform="matrix(1.0233 .00694 -.00644 1.1327 242.04 133.49)" d="m205.44 84.53c7.704-0.33254 18.046-0.14343 26.965-7.4073-0.94176 15.148-15.728 21.714-26.875 21.782z"/>
  
  
    <path class="fil1" transform="matrix(1.0233 .00694 -.00644 1.1327 242.04 280.63)" d="m44.522 133.27c-4.1831 5.2181-1.6617 12.226-1.6617 12.226s-4.8802 2.8268-8.8338-3.1553c-3.9536-5.982 2.4913-21.283 12.995-25.022 0 0-6.5115-2.4081-10.248-11.139-3.7363-8.7313-3.3196-18.117-0.83-23.853 3.7573 0.7043 9.0497 0.71264 12.273-3.2531-10.803 1.9028-23.575-2.0236-24.951-8.707s9.6537-13.528 24.738-11.178c4.4943-4.3238 8.7952-3.0864 9.0563-2.2586 0.1566 0.49639 0.66517 5.0003-2.0607 8.2577 3.5926 12.645 9.1652 20.946 18.84 26.443s55.025-11.04 81.64-13.354 29.219 7.1512 49.956 6.2563l0.0904 14.374c-15.974 0.69925-15.248-7.5797-25.835-7.5149 16.028 11.418 10.202 16.726 16.443 21.044 4.4905 3.107 11.494 1.5039 12.969 4.3467 1.4744 2.8428-2.0782 7.068 5.8211 11.412 1.0081 0.55423 7.272-0.1846 8.6245 1.9045 1.3526 2.0891 1.8899 8.6262-7.3779 7.4034-9.0143-1.2073-13.343-12.281-17.289-13.677-4.7271-1.6723-8.4316 1.7103-22.376-4.3674-13.945-6.0777-8.5449-11.127-16.9-14.581 2.1411 2.6467 3.1229 7.0287 3.1229 7.0287s-19.266 6.7887-28.357 8.7523c0.43484-1.6878 1.138-5.8206 1.0263-6.0452-0.52657-1.0574-37.249 16.304-70.615 12.1 3.182-3.3892 2.1929-7.0902 2.1929-7.0902-8.1886 8.4146-18.269 8.4287-22.452 13.647zm-3.6003-70.972c2.8693 0.0769 4.1323 1.4143 4.0674 3.2053-0.06491 1.791-1.7932 3.2876-4.0267 3.2549-2.2335-0.03271-4.0076-1.6161-4.0674-3.2053-0.0598-1.5892 1.1574-3.3318 4.0267-3.2549z" fill="#fff"/>
    <path class="fil1" transform="matrix(1.0233 .00694 -.00644 1.1327 242.04 280.63)" d="m42.292 117.84c-11.663 7.0741-14.463 19.86-9.1545 25.844-10.392 5e-3 -8.1643-13.469-4.4438-19.795s10.608-9.39 10.608-9.39zm155.05 7.4788c-3.9372-1.8763-18.175 3.3587-33.665-11.642l-6.6714 2.3863c17.197 16.61 27.883 10.604 32.868 12.85 5.5545 3.5184 12.801 15.94 21.347 8.99-10.044-5.0802-10.735-11.086-13.878-12.584z" fill="#fff"/>
    <path class="fil2" transform="matrix(1.0233 .00694 -.00644 1.1327 242.04 280.63)" d="m205.44 84.53c7.704-0.33254 18.046-0.14343 26.965-7.4073-0.94176 15.148-15.728 21.714-26.875 21.782z"/>
  
</svg>
