<svg xmlns="http://www.w3.org/2000/svg" xmlns:xlink="http://www.w3.org/1999/xlink" width="780" height="520" id="svg2" version="1.1">
  <defs id="defs4">
    <clipPath clipPathUnits="userSpaceOnUse" id="clipPath5063">
      <path style="fill:#000;fill-opacity:1;fill-rule:evenodd;stroke:none" d="M-2.8571417 76.647896H777.14286l-180 130.000004 180 130-180 130 180 130H-2.8571417z" id="path5065"/>
    </clipPath>
    <clipPath id="clipPath3584-7" clipPathUnits="userSpaceOnUse">
      <path id="path3586-4" d="M236.20724-.71875058V122.68441s.71647 96.59684 95.00001 96.59684c94.28352 0 94.99999-96.59684 94.99999-96.59684V-.71875058z" style="fill:#fff200;fill-opacity:1;fill-rule:nonzero;stroke:none"/>
    </clipPath>
    <clipPath id="clipPath12430" clipPathUnits="userSpaceOnUse">
      <path id="path12432" d="M170 437.36218v86.99999c0 32.99999-25 57.99999-60 57.99999s-60-24.99998-60-57.99999v-86.99999z" style="fill:#ffd52b;fill-opacity:1;stroke:none"/>
    </clipPath>
    <clipPath id="clipPath11773" clipPathUnits="userSpaceOnUse">
      <path id="path11775" d="M356.53257 755.63712v21.74999c0 8.25-6.25 14.5-15 14.5s-15-6.24999-15-14.5v-21.74999z" style="fill:#16478d;fill-opacity:1;stroke:none"/>
    </clipPath>
    <clipPath clipPathUnits="userSpaceOnUse" id="clipPath9481-6-8">
      <path style="fill:#ff0;stroke:none" d="M-19.467048 441.85652c2.039 156.552 113.5882 237.8149 249.514008 237.8149 135.9258 0 247.47503-81.2629 249.51399-237.8149z" id="path9483-1-1"/>
    </clipPath>
    <clipPath id="clipPath6491" clipPathUnits="userSpaceOnUse">
      <path style="fill:#16478d;fill-opacity:1" id="path6493" d="m177.52196 246.72668-3.3184-2.70657c-2.23246 1.31276-2.80223 2.0525-2.24495 5.86142.55728 3.80893-.80836 3.29017-.028 6.30951.7804 3.01934-1.76502 3.61956-.31668 5.93101.13728-1.58933 1.39253-1.90624 2.36799-4.67852 1.44697.81203-1.16843 3.44426 1.08963 5.51199-.20109-2.47673 2.51207-3.57437 1.23083-6.36621-1.28123-2.79184.20439-2.15888.10347-4.89792-.10092-2.73904-.15088-4.00551 1.11606-4.96471z"/>
    </clipPath>
    <clipPath clipPathUnits="userSpaceOnUse" id="clipPath14932-9-7">
      <path id="path14934-8-7" d="M296.44454 263.25046v96.19905c0 36.48929-25.60189 64.1327-61.44454 64.1327-35.84265 0-61.44454-27.64339-61.44454-64.1327v-96.19905z" style="fill:#d10000;fill-opacity:1;stroke:none"/>
    </clipPath>
    <clipPath clipPathUnits="userSpaceOnUse" id="clipPath14932">
      <path id="path14934" d="M296.44454 263.25046v96.19905c0 36.48929-25.60189 64.1327-61.44454 64.1327-35.84265 0-61.44454-27.64339-61.44454-64.1327v-96.19905z" style="fill:#d10000;fill-opacity:1;stroke:none"/>
    </clipPath>
    <clipPath clipPathUnits="userSpaceOnUse" id="clipPath5284-8-8">
      <path id="path5286-0-2" d="M516.00059-81.818275V296.39116c0 143.45873-108.68089 252.13962-260.83413 252.13962S-5.6676647 461.58607-5.6676647 296.39116V-81.818275z" style="fill:#e90000;fill-opacity:1;stroke:none"/>
    </clipPath>
    <clipPath clipPathUnits="userSpaceOnUse" id="clipPath14909">
      <path id="path14911" d="M516.00059-81.818275V296.39116c0 143.45873-108.68089 252.13962-260.83413 252.13962S-5.6676647 439.84998-5.6676647 296.39116V-81.818275z" style="fill:red;stroke:none"/>
    </clipPath>
    <clipPath clipPathUnits="userSpaceOnUse" id="clipPath14909-1">
      <path id="path14911-9" d="M516.00059-81.818275V296.39116c0 143.45873-108.68089 252.13962-260.83413 252.13962S-5.6676647 439.84998-5.6676647 296.39116V-81.818275z" style="fill:red;stroke:none"/>
    </clipPath>
    <clipPath clipPathUnits="userSpaceOnUse" id="clipPath9481-6">
      <path style="fill:#ff0;stroke:none" d="M-19.467048 441.85652c2.039 156.552 113.5882 237.8149 249.514008 237.8149 135.9258 0 247.47503-81.2629 249.51399-237.8149z" id="path9483-1"/>
    </clipPath>
    <clipPath clipPathUnits="userSpaceOnUse" id="clipPath4848">
      <path id="path4850" d="M295.2131 147.8125c-.37967.0432-.77027.18214-1.21875.5-.61368.43495-2.90338-.16213-2.84376 1.1875.0408 1.72888 2.01645 2.43757 1.5625 5.875-1.52677-.62032-1.08333-.43091-2.59375-.84375-1.29919 2.51656.52182 5.54343-.8125 7-3.18501 7.55663-6.78644 16.90924-6.0625 25.125.32914 3.12679 1.04439 5.58282 1.65625 6 1.81025 1.23426 10.40144 2.09902 14.90626 3.78125 4.50481 1.68224 5.2121.0761 8.51277 3.37944-.1037 1.71669.0436 4.58405 1.71164 5.992.48741 3.76459 1.63283 6.22404 1.59375 9.09731-.0675 4.95947-2.72012 7.75574-5.34375 14.3125-2.62362 6.55676 4.78345 17.29627 12.5 17.96875 7.71654.67249 17.963 1.55661 17.5-13.40625-1.42771-6.20525-2.94956-7.55252-1.40625-12.25 1.17144-3.5656 4.13442-9.68096 5.09375-16.71875 2.83725.34958 5.04907 2.57883 8.65625 3.09375 4.65074.66389 12.40297 3.97423 14.53125 3.75.71936-.0758 2.48322-1.90647 4.21875-4.5l-8-7.90625s-6.05181-3.26546-8.375-3.96875c-4.07386-1.23328-7.42404-5.75676-13.375-6.15625-.90466-1.73105-1.98203-3.17179-3.125-4.375-2.15995-8.52445-.35729-11.24076.34375-14.15625l-4.09375-5.78125-10.53125 12.3125c.96108.61375.21485 3.58994-.3125 5.5-1.57699 2.64708-2.39611 2.27444-5.09375 2.71875-5.58381-2.61432-6.88313-.25113-11.16191-1.15625-2.42713-.51343-9.4375-.59375-9.4375-.59375s.48858-3.19717.40625-6.40625c-.0823-3.20908.9375-9.96875.9375-9.96875.38591-3.54825 2.60056-5.12377 3.71875-7.8125 1.81447-.90648 3.05945-1.22167 3.875-3.34375.81554-2.12207 1.39271-4.51118 1.875-6.21875-1.84432-.92137-2.78087 2.12506-3.15625 1.75-.0286-.0285.16652-2.92779-.5-3.59375-.25088-.25068-1.82432-.12947-2.6875.0937-1.3857.35842-3.46875-1.42762-3.46875-.28125z" style="fill:#f5ceb4;fill-opacity:1;stroke:none"/>
    </clipPath>
    <clipPath clipPathUnits="userSpaceOnUse" id="clipPath4932">
      <path style="fill:#f2d477;fill-opacity:1;stroke:none" d="M320.21858 157.19107c.86592 1.1114 2.51343-1.16108 3.62722-.096 1.23155 1.11648-1.44015 3.13144.77363 3.5217 2.32969.19752.0658 2.6654.8823 4.02624.85738.26242 1.78273 1.39062.48433 3.15165 3.20884 1.26506.74327 6.0202 2.77828 4.79485 1.40107-1.00202 1.86773-.2579 2.34492.33391.74173 2.93577-1.0183 6.59981 5.42656 8.15118 0 0-1.1504-3.33448.0437-4.81952 3.18706 2.27196 5.11774-.91115 5.11774-.91115s-3.07339-3.05147-2.52774-3.77591c.0126.0109 2.44534.74308 4.67255-2.11949 0 0-3.48741-1.64177-3.60603-3.3971 2.57094-.8943 4.00498-7.30212-.92792-9.20554.80909-3.55284-2.38552-6.60947-7.95929-6.10369-4.51581-8.41411-22.00013-1.42504-18.01465 6.06048 2.35014-1.48136 6.39703-2.00109 6.8844.38839z" id="path4934"/>
    </clipPath>
    <clipPath clipPathUnits="userSpaceOnUse" id="clipPath4795">
      <path id="path4797" d="M336.15805 231.77836c5.73995 15.89525-5.15616 27.89519-5.15616 27.89519s-5.98845 16.74931 3.35228 20.83384c9.34073 4.08452 20.06572-3.19233 21.20335-21.58053 1.13765-18.38821 7.84045-17.33687 18.70167-22.72812 10.86122-5.39125 10.77015-12.93525 10.77015-12.93525s6.76087 5.1879-1.2149 14.50309c-7.97576 9.31519-1.5647 12.86178-1.5647 12.86178-6.27915 1.95456-4.54307 7.10188-1.25079 9.15966 0 0-10.09181 3.77585-1.80669 12.18029 0 0-5.78897.65778-4.56062 6.79189 1.22836 6.13412-7.78442 9.04545-8.75847 5.00732 0 0 4.98894-4.2037 1.38065-8.43035-3.60827-4.22664-7.43593.6752-11.11832 8.931-3.6824 8.2558-13.19902 18.86074-34.18284 12.62905-20.98382-6.23168-42.7713-31.51174-15.75747-69.38222 0 0 3.12212.78051 2.80991 5.4637 0 0 3.43433-3.43434 6.08813-3.59045 0 0 1.87328 2.02939 3.59044 6.55647 0 0 4.52707-4.83929 7.80529-4.83929 0 0 3.90266 2.96601 4.52708 6.24423 0 0 2.79093-5.05447 5.14201-5.5713z" style="fill:#858c98;fill-opacity:1;stroke:none"/>
    </clipPath>
    <clipPath clipPathUnits="userSpaceOnUse" id="clipPath14909-3">
      <path id="path14911-8" d="M516.00059-81.818275V296.39116c0 143.45873-108.68089 252.13962-260.83413 252.13962S-5.6676647 439.84998-5.6676647 296.39116V-81.818275z" style="fill:red;stroke:none"/>
    </clipPath>
    <linearGradient id="linearGradient2893">
      <stop style="stop-color:white;stop-opacity:.3137255" offset="0" id="stop2895"/>
      <stop id="stop2897" offset=".19" style="stop-color:white;stop-opacity:.25098041"/>
      <stop style="stop-color:#6b6b6b;stop-opacity:.1254902" offset=".60000002" id="stop2901"/>
      <stop style="stop-color:black;stop-opacity:.1254902" offset="1" id="stop2899"/>
    </linearGradient>
    <style id="style12475" type="text/css">
      .str1,.str3{stroke-linecap:round}.str8{stroke:#fdd9a6;stroke-width:.264473}.str7{stroke-width:1.05846}.str5,.str6,.str7{stroke:#615233}.str6{stroke-width:1.05846;stroke-linecap:round}.str5{stroke-width:1.41732}.str4{stroke-linecap:round}.fil19{fill:none}.fil13{fill-rule:nonzero}.fil17{fill:#008837}.fil18{fill:#615233}.fil16{fill:#fdd9a6}.str3,.str4{stroke:#1f1a17;stroke-width:.216}.str3{stroke:#004a8d}.fil15{fill:none}.fil1{fill-rule:nonzero}.fil14{fill:#1f1a17}.fil13{fill:red}.fil11{fill:#000}.str0,.str1{stroke:#969594;stroke-width:14}.str0{stroke-width:56}.fil7{fill:none}.fil0{fill:#0052a5}.fil2{fill:#d5d5d5}.fil9{fill:#e5e5e5}.fil5,.fil6,.fil8{fill:#d21034}.fil1{fill:#ffce00}.fil3{fill:#fff}.st0{fill:#cc4d21}.st1{fill:#ed6c30}.st2{fill:#fff}.st3{fill:#fcc31b}
    </style>
  </defs>
  <g id="layer1" transform="translate(20 -52.362183)">
    <g id="g4978" transform="translate(-17.142858 -24.285713)">
      <path id="rect3020-4" d="M-2.8571417 76.647896H777.14286l-180 130.000004 180 130-180 130 180 130H-2.8571417z" style="fill:#000;fill-opacity:1;fill-rule:evenodd;stroke:none"/>
      <g transform="translate(-4732.3146 -6002.3942) scale(11.51503)" id="g9355-4-9">
        <g transform="matrix(.10074 -.0351 .0154 .09852 390.09145 522.82428)" style="fill-rule:evenodd;stroke:none" id="g7090-3-1">
          <path style="fill:#ffd52b;fill-opacity:1;fill-rule:nonzero" d="m295.90427 322.47544 10.73288-6.18316L446.23743 544.4273l-10.73289 6.18316z" id="path6893-7-6"/>
          <path style="fill:#fff;stroke:none;stroke-width:14;stroke-linecap:round" d="m309.34055 311.59401-10.40422-14.41442c9.39638-.91405 17.84512-3.2349 25.34653-6.96286l-70.30075-48.11203 9.88028 82.91998c6.96432-4.60568 13.10891-10.69197 18.43418-18.259l8.06231 15.76359z" id="path6895-4-9"/>
          <path id="path6903-9-5" d="M453.7445 380.20375c2.20429-1.06176 5.17438.45351 4.788 4.62794l-1.78336 156.91688c-.12347 6.52528-3.57643 12.43139-9.36184 16.66711-6.60229 2.90078-13.59953 3.01498-19.56301-.004l-142.84086-73.59919c-6.33945-2.67066-2.2211-9.44725 3.36819-6.21667l142.42394 73.45098c3.78525 1.66082 7.41273 1.50946 12.0388-1.10422 4.57959-2.68965 6.45308-5.70737 6.76234-9.72703l1.95925-156.62945c-.0928-2.36549.88598-3.74533 2.20855-4.38235zm7.34832.82044c1.9898-1.47859 6.8002-.76388 6.38415 1.37589l.25973 27.063c.0961 5.0941-6.65465 4.97783-6.75551-.38445l-.69625-25.64527c-.25495-1.05495.14457-1.91632.80788-2.40917zM280.31254 485.17086c.76349-.32913 1.73416-.25712 2.56669.4651l23.113 12.73108c4.80381 2.65293 1.4363 8.59826-3.12714 6.0778l-24.12273-13.31564c-2.13536-.66992-.72028-4.97109 1.57018-5.95834z" style="fill:#fff"/>
          <g transform="translate(.00607495 -.00349975)" id="g7225">
            <path style="fill:#ffd52b;fill-opacity:1;fill-rule:nonzero" d="M366.5389 301.37687c30.33665 4.34132 65.49915 75.82272 81.81936 83.09612l.42286 18.80524c-31.54993-4.01158-60.7777-62.12608-82.58212-65.16287-20.09628-2.79874-18.25831 17.65812-14.54774 24.70821l-10.27134 5.91723-18.90717-30.89814 8.34261-4.80614c-2.39437-11.39419.35014-22.94338 8.22975-27.48291 7.87961-4.53954 16.24838-5.78597 27.49379-4.17674zm97.33115 57.83228c22.86738-11.09792 32.4705 32.35536 6.22651 42.6744-.32795-7.44441-.28885-15.03945 1.23846-22.48357-9.79484 1.12614-17.02448-15.55134-7.46497-20.19083z" id="path6891-8-9"/>
            <use x="0" y="0" xlink:href="#path6891-8-9" id="use7217" transform="matrix(-.47872 .85188 .90486 .47872 156.48567 -90.15065)" width="744.09448" height="1052.3622" style="fill:#ffd52b;fill-opacity:1"/>
          </g>
          <g transform="translate(.00607507 -.00349982)" id="g7221">
            <path style="fill:#fff" d="m388.67146 443.73839 38.14128 8.34964 4.449 12.59827c-5.30282-.45864-10.55438-.70908-15.85627.19343l17.46518 5.09971 4.449 12.59828c-5.06781-.61965-9.73932-.57393-13.81722-.20376l15.31541 4.78318 3.63475 10.73485c-4.05413.28831-8.27356-.17632-12.32541.10308l13.8236 4.47635 4.38384 13.02456-17.93352-2.4974z" id="path6897-2-8"/>
            <use x="0" y="0" xlink:href="#path6897-2-8" id="use7219" transform="matrix(-.47872 .85188 .90486 .47872 156.48567 -90.15065)" width="744.09448" height="1052.3622"/>
          </g>
        </g>
      </g>
      <g id="g5057" clip-path="url(#clipPath5063)">
        <path transform="rotate(90)" id="rect4996" style="fill:#ffd52b;fill-opacity:1;fill-rule:evenodd;stroke:none" d="M76.647919-777.14288h59.999973v780H76.647919z"/>
        <use height="1052.3622" width="744.09448" transform="translate(0 459.99998)" id="use5055" xlink:href="#rect4996" y="0" x="0"/>
      </g>
    </g>
  </g>
</svg>
