<svg xmlns="http://www.w3.org/2000/svg" version="1.0" baseProfile="tiny" width="500" height="587" viewBox="0 0 397.5 464" xml:space="preserve">
  <path style="fill:#006bb6;fill-rule:evenodd" d="M397.5 125v159l-.5 5-1.25 8.5-1.5 8.5-2.25 8.25-2.25 7.5-2.25 7-2 5.75-1.75 4.25-1.5 3.75-2.25 5.25-2.5 5-2.5 5-2.75 5-3 4.75-3 4.75-3 4.5-3.5 4.5-3.25 4.5-3.75 4.25-7.25 8.5-8 8.25-8.25 7.75-6.25 5-6.25 5-6.5 4.5-6.5 4.25-6.75 4.25-7 3.75-7 3.5-7 3.25-7.25 3-7.25 2.75L254 456l-7.5 2.25-7.75 1.75-7.75 1.5-8 1-7.75 1-.25-.25h-.5l-.5.25-.5.25h-.75l-.5-.25-.5.25-.75-.25-1 .25-.75.25h-20l-7.5-.5-7.25-.75-7.5-1-7.25-1.25-2-.25h-1l-.75-.5-3-.5-2.75-.75-5.75-1.5-1.75-.5-2-.5-2-.5-1.75-.75-5-1.75-5-1.75-.75-.5-1-.25-7-3-7.25-3.25-7-3.75-6.75-3.75-7-4.25-6.5-4.5-6.5-4.75L71 418l-6-5.25-6-5.5-5.5-5.75-5.5-6-5-6-5-6.25-4.5-6.5-4.25-6.75-4.5-7.5-4-7.5-3.75-7.75-3.5-8-3-8.25-2.75-8.25-2.5-8.25-2-8.5-.75-3.75-.75-3.75-.5-2.75L1 293l-.75-5.75-.25-.5V0h397.5v125z" transform="translate(0 -2.2656494)"/>
  <path style="fill:#fff200;fill-rule:evenodd" d="M378.5 122H373l-7 .5-3.5.5-3 .5-2.75.75-2 .75-5 2.25-5.5 2-5.5 1.5-5.5 1-3 .25-2.75.25-2.75-.25-3-.25-2.75-.5-2.75-.5-2.75-1-2.5-1.25-4-1.5-4-1.5-4.25-1-4.25-.75-4.25-.5L286 123h-4.25l-4.25.5-2.75-.25H270l-1.5.25-2-.25h-1.25l-1-.25-2.5-1-2.25-1.25-2.25-1H257l-2-.75-2-.5h-4.25l-2.5.5-2.25.75-2.5 1.25-2 1.25-2.75 1.25-2.25 1.5-2 1-1 .5-6.5 2.5.25.25H228l6.5 2.25 6.5 2.25 3.25 1.75 3.25 1.5 6.5 2.5 3.75 1 4 1 4 .5h8.5l4-.75 4-1 3.75-1.5 3.5-.75 3.25-.5h7l3.5.5 3.25.75 6.5 1.5 3 .25 3 .25h5.75l5.5-.75 5.5-1.25 5.5-1.75 5.25-2.25 4.75-2.75 4.75-3 2.5-1.5 2.75-1.5 2.5-1 2.75-1 3-1 3-.5 3-.25 3-.25zM381.5 306.25l-2-.75-2.25-.75-2.25-.5-2.5-.5-2.25-.25h-4.75l-2.5.25-1 .5-1 .5-3 .75-3 .75-2.75 1.25-3 1.25-5.5 2.75-5.25 3.25-5 3.5-5 4-4.75 4-4.75 4.25-5.5 5.75-5.25 5.5-5 6-5 6.25-.5-.25-.25-.25 3.25-4 3.25-4 7-8 4.75-4.75 4.75-4.75 5.25-4.75L331 319l5.5-4 5.75-3.5 6-3.25 6.25-2.75 1.5-.5 1.5-.75 1.5-.5 1.5-.25.25-.25-1.75-.75-2-.5-2.25-.25h-2l-2 .25-2 .5-2 .5-1.75.5-2.5.75-2.5 1-4.75 2.25-4.25 2.75-4.25 2.75-5.5 4.25-5.25 4.5-5 4.75-2.25 2.25-2.25 2.75-3.75 4.5-3.5 4.75-3.75 5-3.25 5-.25.25h-.25l-.25-.25v-.25l4.25-6.5 4.5-6 4.75-6 5.25-5.5 5.25-5.25 5.75-5.25 6.25-4.5 6.5-4.5 3-1.5 3.25-1.75 6.5-2.5-.25-.5-3.75-.25h-5.5l-1.75.25-1.75.5-1.5.75-1.75.5-1.75.75-3 1.75-2.75 2-3 2-3 2.5-2.75 2.75-5.5 5.5-5 6-4.5 6.25-3 4.25-2.75 4.75-5 9h-.25l-.5-.25 3.25-5.5 3-5.5 3.5-5.25 3.5-5.25 3.75-5 4.25-4.75 4.25-4.5 4.75-4.5 3-2.25 3.25-2.5 6.75-4-3-.5h-3l-2.75.5-2.75.5-2.75 1-2.75 1-2.5 1.5-2.25 1.5-3.25 3-1.25 1.5-1.25 1.75-1.25 1.25-1 1.25-.75 1.5-1 1-.75.75-.25 1-.75.75-.5.75v.75l-.5.25.5-5 .25-2.5v-2.75l-.25-2.5-.25-2.5-.5-2.5-1-2.5-.5-2-1-2-1-1.75-1.25-1.75-2.75-3.25-2.75-3-.25.5v.5l.5 1 .75 4 .25 2v2l.5 1.25v4.25l.25.75-.25 1v1l.25 1v2.25l-.25 2v2.5l-.25 1.5v1.25l-.25 1.5v1.25l-.25 1.25v1.25l-.25 1-.25 1-.25 2-.25 1.75-.25 1.5-.25 1.5-.5 1.5v1.75l-.5 1v.75l-.25 1-.25 1.25V339l-.5 1v1.5l-.5 1.5-.75 2-.25 2.25-.25.25h-.25l-.5-.25.25-2.25.75-2 1.25-4.5 2-10.75L287 317v-2.75l.25-1v-12l-.25-.5v-2l-.25-1.5-.5-3.25-.75-2.5-1-2.25-1.25-2.25-1.5-2.25-1.75-2-1.75-2-2-1.75-2-1.75-.25.25.25 1.25.5 1 .5 1V282l1.25 3.75.5 2 .25 2 .5 1.25.25 1.25.25 2.75.25 1.75.25 1.75.25 3.25v.75l.25 1v.75l-.25.75.25.75v3.5l-.25.5v7.5l-.5 2.5v.75l-.25.5.25.5-.25.25v1l-.25 1.75v1l-.25.5v1.75l-.5 1.5-.5 1.75v1.75l-.25.5v1l-.25.5-.25 1-.25 1-.25 1v1l-.5 1.5-.5 1.75-.25 1.75-.25.75-.25.75-.75-.25 1.75-7.25 1.5-7.5 1.25-7.5.75-7.5v-4.75l.25-1.5-.25-1v-1.25l.25-2.25-.75-6.5-1-6.5-1.5-6.5-1-3-1-3-.75-2.25-.75-2-1.25-2-1.25-2-2.75-3.5-3.25-3.5-3.25-3-1.75-1.25-1.5-1.5-1-.5 3.75 6.75v.5l1.25 2 1 2 1 2.25.75 2.25.75 1.75.5 2 .5.75.25.75.25 1 .25.75.75 3.5 1 3.75v.75l.25.75v1.75l.25 1.75.5 1.75-.25 1 .25.75v2l.25.25v1.25l.25.25L269 301l.25 1.25.25 1.5-.25 1.5v1.5l.25 1.5-.25.5v.75l.25 1.25v4.5l-.5 4 .25 1.5-.25 4-.5 3.75v2.25l-.25.5V334l-.5.75v.5l.25.5-.25.5v.75l-.25.25.25.5-.25.5-.5 4.5h-1V341l.5-2 .5-3.5v-1l.25-.75.75-6.75.25-6.5.25-6v-6.25l-.25-6-.75-5.75.25-1-.25-.75V293l-1-5.5-1-5.25-1.5-5-2-5.25-2.25-5-2.5-4.75-3-4.5-3.25-4.25-2-2.25-2-2-2-1.5-1.25-.75-1.25-.5-1.75-1-.75-.25h-1l2.5 3 2.5 3.5 2.25 3.5 2 3.75 1.75 3.5 1.75 4L255 274l1.25 4.5 1 4.75 1.75 9 .75 7.25.5 7.25.25 7.5-.25 7.5L260 329l-.5 7.5-.75 7.25-1 7 2.25-.25 2.5.25 1.25.25 1 .5 1 .75 1 .75.25.5.75.5.25.25.25.75.25.25 1.25-1 1.5-1 1.5-.5 1.75-.25h.75l1 .25 1.25 1 1.25 1.25 1.25 1.25.5 2v1l.25.5.5-.25.5-.25 1.25-.5 2.25-.25h1.25l1 .25h.75l1 .75 1 1 .75 1.25.5 1.25-.25 1.75H291v1l.25.25 1.25-.75 1.5-.5h1.75l1.5.25.25-.25v-1l1-.75.5-1 1-1.75 7.75-8.5 8.25-8.5 4-4 4.25-3.75 4.5-3.75 4.5-3.5 5.5-3.75 5.5-3.5 6-3.5 6-3 6-2.75 6.25-2.25 6.5-1.75 6.5-1.25v-.25zM229.5 70.25l3.25 3.75 3.25 3.5-1 .5-1.5.25-2.75.5-2.75-.25-3-.75-2.5-1-2.5-1.5-2.5-1.5-2.25-2-2-2-2-2.25-.75-1.5-1-1.25-2-2.5-2.25-2.5L204 59l-1.25-1-2.75-1.5-2.75-.75L194 55h-3l-3.25.25-3.25.75-2.75 1-1.5.5-.5.25H179v-.5l.25-.5.5-.75 1-1.25 1.75-1.5 2-1.25 2.25-.75 2.25-.75 2.25-.25 2.25-.25h4.75l2.5.25 2.25.5 2.5.5 2.25.75 4.25 2 4.25 2.25 4 3 3.5 3.25 3 3.75 2.75 4zM178.5 54.75l-.25 1.25-.5 1-1.25 2.25-1 2-1.5 1.5-1.75 1.25-2 .75-2 .75-2 .75-4 1.25-3.5.75-3.5 1L152 70.5l-3.25 1.75-2.25.75-2 1-2 1.25-1.75 1.25-1.75 1.75-1.5 1.75-1.25 2-1 2.25-.75 2.5-.25 2.5v3l.25 3.25.5 2.25 1.25 2.5 1.5 2.25 1 1 .75.5 1.25 1 1.5 1 3 1.25 6 2 2 .75 1.5.75 5.75 3.25 1.75 2.25.75 1 .5 1 .5 1.25v2.25l-.25 1.25-.75-.75-2.25-1.5-3-2-1.75-1-1.5-.75-3.25-1-3.5-.75-4.75-1-2.5-1-2.25-1.25-2.25-1.25-2-1.5-2-1.75-1.5-2-1.25-2.25-1-2.5-.5-1.75-.25-2v-5.75l.5-1.75 1-3.5 1.75-3.5 1.5-2.75 2.75-3 3-2.75 3-2.5 3-2.25 6-4.75 3-2.75 2.75-2.75 3.75-3.5 2-1.5 2.25-1.5 2-1 2.5-.75 2.5-.5 2.5.25 1.5.75 1.5 1 1.25 1 1 1.5z" transform="translate(0 -2.2656494)"/>
  <path style="fill:#fff200;fill-rule:evenodd" d="m176 63.5-.5 1.75-1 1.5-1.25 1.25-1.5 1-1.75.75-1.75.75-3.25 1-2.75.75-3.25 1.5-1.75.75-1.75 1-1.5 1.25-1.5 1.5-1.5 2-1.25 2.25-.75 2.25-.25 1.25v1.25l.25 2 .5 1.5.5 1.25 1 1.5 1.75 2.25 2 2 2.25 2 2.25 1.75 2 1.5.75 1 .5 1 1.25 2 .75 2.25.25 1-1.75-1.75-2-1.5-2.5-1.5-3.75-1.75-2-1-2-.75-2-1-2-1.25L145 98l-1.25-1.75-.75-2-.75-2.25-.25-1.5v-2.25l.25-2 .25-2 1.25-3.5 1-2 1-1.5L147 75.5l1.5-1.5 2.75-1.75 3-1.25 3.25-1 3-.75 4.25-1.25 4.25-1.25 2-1 2-1 1.75-1.25 1.5-1.75.25.25v.5l-.5 1z" transform="translate(0 -2.2656494)"/>
  <path style="fill:#fff200;fill-rule:evenodd" d="m180.5 68.5 3 1.75 1.5.75 1.75.25 1.5.5 1.5.5 1.5.5.5.5.5.5L193 75l.25 1.25.5 2.5.75 2.5.5 1.25.75 1 1.25 1.25 1 1.75.75 1.75.25 1.5-.25 2.5-.25 1.25-.5.75-.75 1-1 1.5-1.5 1.75-1.25 1.75-.5 1-.25 1-.25 1.25v1.25l.5 3.25.5 1.75.5 1.25v.75l-.5.5-1.5 1.25-2.5 1.5-2.75 1.5-3 1.5-3 1-2.75 1-2.75.5-1.25-.25-1-.25-.75-.5-.75-.75-2-3.5-1.5-3.5-2.25-3.75-2-3.75-1.25-1.75-.5-1.75-.75-4v-2l.5-2.25-.25-1.25-.25-1.75v-3l-.5-1.25-.25-1.75-.5-2.75.25-.5.75-2.75 1.5-3.75.5-.25 1.25-1 2.5-.75 2.5-.75 2.25-.75 1.25-.75 1-.75 1.25-1 1-1.25.75-1.25.75-1.5.5 1.25.75 1.25 1.75 2.25z" transform="translate(0 -2.2656494)"/>
  <path style="fill:#fff200;fill-rule:evenodd" d="m160.75 74.25-.25 1.25-.5 1.5-1.25 3-.25 1.25.25 1.25.5 3 .5 1.25V89l.25 1.25.25 1 .25 1.25-.25 1-.25 1-.25 1v2.25l.5 2.25.75 1.75-2.75-2.5L155.5 97l-1.25-1-1.25-1.5-1-1.25-1-1.75-.75-1.5-.25-2.5v-2l.5-1.5 1-2.5 1.75-2.5 2-2 1.25-.75 1.25-.75 1.5-.75 1.5-.5z" transform="translate(0 -2.2656494)"/>
  <path style="fill:#fff200;fill-rule:evenodd" d="m145 76.25-1.25 1.5-1 2L142 82l-.75 2.25-.25 2.5-.25 2.5L141 92l.75 2.75.5 1.5.75 1.25 1 1 1 1 2.25 1.75 2.5 1.5 2.75 1.25 2.5 1.25 2.5 1 2 1 2.75 2 2.5 2.25 2 2.75 2 3 .75 1.5.75 1.75.25 1.5v1.75l-.25 1.5-.5 1.25-.75 1.5-1 1.25-1 1-1.25 1-1.25.75-1.5.5h-1.75l-1.75-.25-1.5-.25-1.5-.5 3.25-1 1.75-.75 1.5-1.25 1.25-1.5.75-1.75.5-1.5.25-1.5-.25-1.5-.25-1.5-.25-1.5-.75-1.25-.75-1.25-1-1.25-1.75-1.25-1.5-1-3.5-2-2.5-1.25-3-1-4-1.5-3.75-1.5-1.5-1-1-1-1.5-1.75-1.25-1.75-.75-1.75-.5-2-.25-2v-2L136 89l.25-2 .5-2 .75-1.75.75-2L140 79l1.75-1.75 2.25-1.5 2.25-1.5-.5 1-.75 1z" transform="translate(0 -2.2656494)"/>
  <path style="fill:#fff200;fill-rule:evenodd" d="m57 79.25.75 1.75 1 1.5 2.25 3 2.5 2.75 3 2.25L71 94l2.5 2.25 1 1 1 1.5 1.75 8 2 8 1.25 4 1.5 4 1.5 4 1.75 3.75 3.25 7.25 3.5 7 3.75 7.25 3.75 7v.25l-.5.25-.25.25-.25.25h2l1.75-.25L106 159l3.25-.75 3.25-1 3-1.25 3-1.25 3-1.5 3-1.5 2.75-1.75 2.75-2 1.5-1.5 1.5-1 3.5-2.5 3.25-2 3.25-2 3.5-1.75 1.75-.5 2-.5 4.25-.75 4.5-.75 2.25-.5 2-.75 2-.75 1.75-1 .25-.25L169 130l1.5-2 .5-1 .5-1.25.25-1v-2.25l-.25-1-.75-1.5 1.25 1 1.25.75h1.5l2-.25 2.75-.75 2.75-1 5.5-2.5 3.5-2 1.25-1 1.25-1.25.75 1.25 1 1.25 1 1 1 1 1 1 .75 1 .25 2.25.5 2.25 1.25 4.5.25.75.25.75.75 1.5 1 1.5 1.25 1.25 1.25 1 3 2 2.75 2 1.75.5 1.75 1 1.75.75 1.75.5 3.75 1.5 4 1.5 1.5.5 1.5.5 3 1.5 2.75 2 3 1.75 9.25 9 4.75 4.5 5 4 4.5 3.75 4.25 4 3.75 4.25 3.5 4.75 1.5 2 .75 1.25.25 1.25-1 2-1 1.75-2.5 3.75-3.5 5-4 5-4.25 4.75-4.25 4.75-9.25 9-8.75 8.5-4.25 4-4.25 4-2.75 3-2.75 2.5v1.5l.5.5.5.5 1 .75.5.75.75 1 1 1.75 1.25 2.25 1.25 4.25.75 2 .25 2.5v1.5l.5 1.75v.5l.5.5.5 1.75.5 1.5.25 1.5.25 1.75v.5l-.5.5-.5.5-.25.5h.5l.25.25.25.25v1l-.25.25-.75.25h-1l-1-.25-1-.5-2-1-3-2-2.5-2-1.5-1.75-2.75-3-.5-2.5-.75-3-.75-3.5-1.5-4-1.25-3-.75-1.25-.5-1.25-.5-1.5-.5-1.25v-1.5l.25-1.25.5-1.25.75-1 1.75-2 1.75-2.25 3.5-4.25 3.75-4 3.75-4 3.75-4.25 2.5-3 2.5-3 2-3 2.25-3 2-3.25 1.75-3.25L245 201l1.5-3.25 1.75-4.25 1.5-4 .25.25v-.25l-4.5-2.25-4.5-2.5-4.25-2.75-4.25-3-4.25-3.25-4-3.25-7.75-6.75-.25-.25h-.5l-.75.25v1.5l.25 1.25-.25 2.25-.5 2.25-.5 2.25-1 2-1 1.75-1.5 1.75-1.5 1.5-2 1.5-1.25.5-1.25.75-2.75.75H201l-.75.25h-4.5l-2.25-.5-2-.75-2-1-1.75-1.25L186 181l-1.25-1.75-1-1.5-.5-1.5v-.5l-.25-.25h-.25l-.25-.75-.25-.5v-.5l-.25-.25-.25-2v-5l-.25-.75v-1l-.25-.25H181l-.75 1-.25 1v2.5l-.25 2 .25 1.75.5 1.75.25 2h.5v.5l.25.25.75 1.5 1 1.5 1 1.25 1.25 1.25 2.5 2 3 1.75 2 .5 2 .5 2.25.25h2l2.25-.25 2-.5 2-.75 2-1h.25l.25-.25h.25l1.75-1.75 1.75-1.75 1.75-1.75 1.25-2v-.5l.5-.5.25-1 .25-1 .25-1.25.5-.75v3.5l-.25 3.75-.75 3.5-1 3.5-.75 2.5-.75 2.5-1.75 5-.75.75-.25 1.25-.25 1-.75 1.25-1 2.25-.75 2.25-1.5 4.75-1.5 4.75-1.25 4.75-.75 4-.5 3.75-.25 2v2l.25 1.75.25 2 .5 2 .5 2 1.75 3.75 2 3.5 2.5 3.25 2 3.5 1.75 3.75 1.25 3.75 1 4 1 3.5.5 3.25.25 3.5v3.25L217 282l-.75 3.25-.25-.5-.75-.5H214l-1 .75-.75.75-.75 1-.5 1v.75l-.25 1-.25.75.25.25.25.5.25.75.5.5.25.75v.25l-.25.5-.75 2.75-1 2.5-1.25 2.5-1.75 2.25-2.75 1.75-1.5.75-1.5.75-.5.25-.75.25-.5.25-.5.5-1-.5-.5-.5-.75-.75-.75-.5-3-3.5-1.25-1.75-.75-2.25-1-2.5-.5-1.25v-1.5l1-2 1-2.25.75-2 .25-1v-1.25l-.5-1.25-.25-.75-.5-.5-.25-.25-.5-.25-1 .25-1 .25h-1l-.5.75-.5.5-.5.5-.5.75-.25.25-.25.5v2.75l.75 1.75.25 1.75v2l-.5 1.75-.75 1.75L184 299l-2.25 3.25-2 1.25-2.25.75-4.5 2-.5-1.25-.75-.75-1.5-1.5-1.75-1.5-.75-1-.5-1-1.25-2-1-2-.5-1-.25-1v-2.5l.75-1.25.75-1.5.75-2.75v-1.5l-.5-1.5-.25-.5-.5-.75-.75-.25-.75-.5H162l-1 .25-.75.25-1 .75-.5 1-.5 1v3.25l.25 2.25.5.5.25.5v2.5l-.5 1.25-.75 1.5-1.25 1.25-2.5 2.25-2.75 1.75-2.75 1.75-.75.5-.5.25-.25-.25-1-1-1.25-.5-5.75-6.25-1.25-1.5-1-1.5-.5-1.75-.25-1.75.25-.5v-1l.5-2 .25-1 .75-.75.75-1.5.25-1.75v-1.5l-.25-1-.25-.75-1.25-.75-.75-.25-.75.25-.75.25-.5.25-1 1-.5 1.25-.5 1.25v1.5l.75 1 .5 1.25v.75l-.25.5-.75 1.75-.75 1.5-1 1.5-1.5 1-2 1.25-2.5.75-1 .25h-1.25l-1.25-.25-1.25-.25-2-1-.75-.75-.75-.75-.75-1-.75-1-.75-1.25-.5-1.25-.25-1.25-.25-1.5.25-2.75.75-1.25.75-1 1-1 .5-1.5v-1l-.5-1.5-1-.5H114l.5-.75.5-1 2.75-4 2.75-4 1.75-2.5 2-2.5 4.25-4.75 4.75-4.5 4.5-4.5 2-3 1.75-3.25 1.5-3.25 1-3.5.5-3.75.25-3.75v-3.75l-.5-3.75-.75-4.5-1.25-4.75-.25-2.5-.5-2.5v-2.25l.25-2.5.25-2.25.25-2.25.5-2.25.25-1 .5-1 1.75.25 1.75.25 1.75.25h1.75l2.75-.25 2.75-.75 2.5-1 2.5-1.5 2-1.75 1.75-2 1.75-2.5 1-2.5.5-1.25.25-1.5h.25v-2.25l.25-1.25-.25-1.25-.25-2-.25-1.5h-1l-.75.25.5 1 .25 1v2l-.25 2v2l-1 2.5-1.25 2.5L163 181l-2 2-2 1.5-2.25 1.25-2.5.75-2.5.5H149l-2.5-.25-2.5-.5-2.25-1-2-1.5-1.75-1.5-1.75-2-1.25-2-1-2.25-.5-2.25-.5-2.5.25-2.5.25-.5v-.75l.25-1.5.25-.25v-.5l.25-.25 1-2.25 1-2.25-.25-.75v-.25l-.5-.25-1 1.25-.75 1.25L133 163l-.5 1.5-.75 3-.25 3-9.5 4.25-5 2-5 1.75-5 1.5-5.25 1-5.25.5-5.5.25-2.25-2.75-2-2.75L85 173.5l-1.75-3-1.5-3-1.5-3-2.25-6-2-6.5-1.75-6.5L73 139l-1.25-6.75-.25-1-.25-1.5L71 128l-.5-1.75-1.25-3.25-.75-1-.75-1.25-.5-.5-.5-.25-.5-.25-.75.25-3.75-1.5-3.75-1.25-3.25-1.25-3.5-1.25-6.75-2.5-1.25-2-1.5-1.75-2.25-4.25L35.25 96l-1-1.75-.75-1.75-.75-3.75-.5-3V85l.25-.75.25-.5.75-.75-.25-1.5-.25-.75.25-.75 1.25 1.25 1 1.5.75 1.5 1.25 1.5L39.75 89l2.5 3.25 1 .5.5.25L45 94.25l1.25 1.25 1.25 1 1.5 1 1.5 1 3.5 1.25 3.5 1.25 3.5 1h1.5l.5-.25.5-.75.5-.5v-.5l-.25-1.5L61 94l-2.75-4.25L57 87.5l-.75-2.25-.75-2.5v-2.5l.25-.25.5-.25.25-.25.5-.25z" transform="translate(0 -2.2656494)"/>
  <path style="fill:#006bb6;fill-rule:evenodd" d="M34 85.25v.25l-.5.25-.25-.25v-.25l.25-.25h.25l.25.25z" transform="translate(0 -2.2656494)"/>
  <path stroke-miterlimit="2.6131" style="fill-rule:evenodd;stroke:#000;stroke-width:.21600001;stroke-miterlimit:2.61310005" d="m342.75 85.5.25-.25.25.25h-.5z" transform="translate(0 -2.2656494)"/>
  <path stroke-miterlimit="2.6131" style="fill:#fff200;fill-rule:evenodd;stroke:#006bb6;stroke-width:.2001;stroke-miterlimit:2.61310005" d="m239 132.75 11.25 5L262.5 143l2.5.75 3 .5h2.5l2.5.25 2.25-.25 2.25-.25 5-1 5.5-1.5 2.75-.5 2.5-.25h2.25l2.25.25 4.5 1 5 1.25L303 143h-3.25l-3.5.25-4 .5-3 .75-2.75.5-5.75 1.75-2.75.75-3.25.75-3.25.5H268l-4-.5-3.75-1-3.75-.75-3.5-1.25-3.5-1.25-3.25-1.5-3.5-1.75-3.5-1.75-5.25-2.5-5.25-2.25-5.5-1.75-3-.75-2.75-.5 2.25-1 3.25-.75 5.5-1.75 1.75.25 1.25.5 1.25.5 1 .75 2.25 1.5 1.25.75 1.75.75z" transform="translate(0 -2.2656494)"/>
  <path style="fill:#006bb6;fill-rule:evenodd" d="M205.75 172v1.75l-.5.75-.5.75-1.5 1-1 .25-1-.25h-.5l-.25-.25-.75-.5-.25-.75-.25-.25.25-.5.5-.25.25.25.5.5.5.25.5.25.75-.25 1-.25.5-1v-1.75l-.5-1 .5-.5h.5l.25.5.5.75.5.5zM144.25 171l-.25.5-.5.25-.25.25-.25.5.25 1.25.25.5.5.25h1.25l.5-.25.5-.5h.25l.25.25.25.5-.25.75-.5.5-.75.5-.5.25-.5-.25h-.25l-.25.25-1.5-1-.75-.75-.25-1v-1.25l.75-1 .25-.25.75-.25h1zM233.75 278.75v.25h-.25l-.75-.25-1.75-.5-1-.5-1.75-1-2-1.25-2-1.75-1-1-1-1-.75-.75v-.25h.5l1.25.75.75.75.5.75 1.25 1 1.75 1.5 1.5 1.25 1.5.75 1.5.5 1.25.5.5.25zM235 277.25l-3.75-2.25-2-1.75-2-2-1.5-2v-.5l.75.5.75.75 1 1.5 1 .75 1.5 1.75 1 .5 1.25.5 1 .5.75.5.25 1.25z" transform="translate(0 -2.2656494)"/>
  <path style="fill:#fff200;fill-rule:evenodd" d="m238.25 276.5.5.75.25.5v.5l-.5.25-1-.75-1-.75-1-.75-1.25-.5-1.5-.75-.5-.5v-.25l-.5-1-.5-1.5v-2.25l1.5 1.75 1.75 2 3.75 3.25zM115.25 274l.25.75-.25 1-.75 1.5-1.25 1.25-1 1.25-.5 1V283l.5 1.75.25 1.5.5.75v.25l-.25.25-.75 1.5-1 1.5-1.5 2.75-.5-.25v-.5l.25-1V288l.25-1.25.5-.75.5-.75v-3.75l.25-.75.25-1-.25-2.5v-1L111 275l.5-.75.5-.5.75-.25h1.75l.75.5zM109.5 280.25v1.5L109 283l-.5 1.25-.5 1.25-.75 1-1 1-.75 1-.75.25-.5.25-.75.25-.75.25-1.5.25v-.25L103 286l1.75-3.5 2-3L108 278l1.25-1.5v1l.25 1v1.75zM239.5 281.75l-2.25-1-1.25-.5-1-.75-.75-.5-.75-.5-1.25-.5-.5-.5-.25-.5v-.25l.75-.25.75-.25 2 1 4.75 2.75.25.5v.5l-.25.5v.25h-.25zM137.25 279l-.75 2.5-.75 2.5-.75 2.25-.5 2.75v1.5l.25.75.25.75-.5 1-.25 1-.5.75-.5 1v.5l-.25.25-.25.5.25.25-.25.25-.25-1.25v-.5l.25-.5V293l.25-1-.25-.5-.25-.5.25-.75.75-.25.25-.5.25-.5v-.25l.5-.75.75-5-.5-.75-.25-.75v-2.25l.5-.5 1.25-.5.5.25.25.25.25.25zM164 283.25l.25 1.5-.25 1.5-.75 1.5-.75 1.5-.25 2.25v1.25l.5 1.25-.5 1-.5.75-.5.75-.5 1v-1l-.5-1v-1l.25-.5.25-.5.5-1v-2l.25-1.25-.25-1.25-.5-1-.25-1v-1.25l.5-1.5.5-.5.75-.5h.5l.5.25.75.75zM190.25 285v2.25l-.5 1.25-.75 1-.5.25-.25.5-.5 1V289l-.75-.5.25-.5v-2.25l.25-.75.25-.5.5-.25h.5l.5.25.5.25.5.25zM215.75 288l-2.5 8.75-2.75 8.75-2.5 8.75-1 4.5-.75 4.5V326l.5 3-1.5-2-1.5-2-1.25-2.25-1.5-2-.25-1-.75-1.25-1.25-4 .25-1.75v-1l-.25-.5v-.5l.25-.5 2.5-.75 2.5-1.25 2-1.5 2-1.75 2-2 1.25-2.25 1.25-2.5.5-2.5v-.5l.25-.5.5-1 .25-1v-.5l-.5-.5-.25-.75-.25-.5-.25-.75-.25-.75.5-1.5.5-.75.25-.25h.25l.75-.25.75.25.5.5-.25.5v.5z" transform="translate(0 -2.2656494)"/>
  <path style="fill:#fff200;fill-rule:evenodd" d="M107.5 291.25v3l-.25 1.25-.25 1.5.25.25v.5l-.25.5-.25.75v.5l.25.25v1l-.25 1v.75l.25 1 .5-.25.25-.25.25-1v-1l.5-.75 1-3 .5-1.5 1-1.25 1.5-2.5.75-1.25 1-1.25 1 1.5 1.5 1 1.25 1.25 1.5.75.25.5h1.5l-.5 2-.25.75-.25 1-.25.5-.25.75-.25.75v.75l-.25 1-.25.75-.25.25-.25.5-.5.75-.25 1-.75 2.25-1 1.25-1 1.5-.75 1.25-.75 1.25-1.75.75-1.5.5-1.75.25-1.75.25-1.5-.25-1.75-.25-1.5-.75-1.5-.75-1-1-.75-.75-.5-1-.25-1-.5-2.25v-2.25l.25-2.25.5-2 1-4.25 1.25-4.25 3.5-.75 1.75-.5.75-.5.75-.75.25 1v1.25zM131.25 295.75v.75l-.25.5-.25.25.25.75.25 3-.25 1.75v1.75l.5.25.25-.25.25-.25.25-.75.25-1 .5-.75 1.25-3.5.5-1.75 1-1.75.5.25.5.75.75 1.25 1.5 1 1 1.25 1 1.25 1.25 1 .75 1.5 1 1 .5 1.5.25.5-.25 1-1.5 3.75-1 1.75-.5.75-.75.5-.25 1.25-.5.75-.75.75-.75.5-2 1.25-1.75.75-1.5.25H130l-1.75-.25-1.5-.5-1.25-.75-1.5-1-1-1-1.5-2-1-2-.5-2.25-.25-1.25.25-1 .25-2 .25-2 1.25-4 .25-.25.25-.5v-.5l.5-.5.25-.75.25-.75.5-.5v-.75l1-.5h1L127 294l1-.5 1.25-.75 1-.25.5.75v.75l.25 1 .25.75zM188.75 299l-1 2-1 2h-.25v-3.25l.25-1.25.25-.75.5-.5.25.25h.25l-.25-.25v-.5l.25-.75.25 1.5.5 1.5zM159.5 302.75l-.25 1.75v2l.25.5v.75l-.25 1-.25.75v.5l.5.5.5-.75.25-.75v-2l.25-2.25.25-.75.75-1v-1.25l.5-1.25.75-2.5h.25l.25-.25v-.25l.25-.25 1 2 1.25 1.75.5.75.5.75 1.25 1 1.25 1 .5.5v.75l.75.25.25.75-.25.5v.75l.25 1.5-1 3.75-.5 1.75-1 1.5-1.5 1.5-1.75 1-2 1-2 .75-.5-.25h-.5l-.5.25h-.5l-1.75-.25-1.75-.5-1.5-.5-1.5-1-1.5-.75-.75-.75-.5-.75L149 315l-.5-1-.5-2-.25-2v-2.25l-.25-2.25.75-1.25.75-.25 1-.25 1.5-.75 3-2 2.5-1.75 1-1 .75-1.25.25 1.25v1.5l.25 1.5.25 1.5zM305.5 296.5v4l-.25 4.25-.25 2-.75 2-.75 1.75-1.5 1.5-3.25 4.5v-3l-.25-3V309l-.25-1.25-.5-1.5v-1.5l1.5-2.25 1.75-2.25 2-2 2.25-1.75h.25z" transform="translate(0 -2.2656494)"/>
  <path style="fill:#fff200;fill-rule:evenodd" d="M185.25 302.75v4.5L185 309l.25.25-.25.25v.25l.25.25v1.75l.25.75.25.25.5.25.25-.5v-.25l-.25-.5.5-.25-.25-1.75.5-1.5v-1.75l.5-1.5 1-1.5.25-1.25.75-.75 1 1.75L192 305l1.5 1.75 1.75 1.75.25.25.25.25.5 1.25.5 1L197 314v1.25l-.5 1.5-.5 1.5-.75 1.25-.75 1.25-1 1.25-1.25 1-1.25.75-1 .5-1.25.25-2.25.5-2.5-.25-2.25-.25-1.5-.5-1.25-.75-1.25-1-1-1-1-1L175 319l-.75-1.5-.25-1.5-.25-.75-.25-.75v-3.75l.5-1.75.25-.75.5-.75 2-.75 2-1 2-1.25 2-1.25.5-.25.25-.25.75-1 .5-.25h.25l.25.25v1zM146 312.25v1l-.25.5-.75.75-.5.75v-.75l-.25-.75V313l.5-1.75.75-1.5.75-1.75-.25 1v3.25zM94.5 317.25l1.5-4 .75-1.25.75-.75 2.25 2 3 2-.5 1-.25 1.25-.25 1.25-.5 1-.25 1-.5 1.25-1.5 2.25-2 2.75-.75.5-.5.5-3 2.5-3.25 2.25v-1.25.25l.25-1.25.75-3 1.25-3.75 2.75-6.5zM121.5 316.5l1.25 1.5 1.5 1 1.5 1 1.75.75-.5 3-.75 3-1.75 2.5-1 1.25-.75.5-.75.25-1.25.75-1.25.75-1.5.5-1.5.25-1.5.25-1.75-.25-1.5-.25-1.5-.5-.75-.5-.75-.5-1-.5-.5-.75-1-.75-.75-1-.75-1-.5-1.25-.5-1.5-.5-1.75v-1.75l.25-1.5.25-2 .75-1.75h6l1-.25.75-.5.25 3.75-.25 4-.25.5v.5l.5 1.25h.25l.25-.25v-1l.25-.5.5-1.5.75-1.5.75-1.5.75-1.75.75-1.25.5-1.25.75-1.25.75-1.25 1.25 2 .5 1.25 1 .75z" transform="translate(0 -2.2656494)"/>
  <path style="fill:#fff200;fill-rule:evenodd" d="m118 309.75-1.25 3.5L116 315l-1 1.5-.25.75-.25.75-1 1.25V318l.5-1.25.25-1 .25-1.25 1.5-2.5 1.25-1.5.75-.75zM171 321l-.25.75v1.5l-.25.5-.5-1.25-.25-1.25V319l-.25-.75v-.5l.25-.5.5-1 .75-1 .25-.5.25-.5.5 1.75v3.5l-.5.75-.5.75zM141.75 321.5l-.75 4-.5 3.75h.75l.5-2.25.75-1.75.75-2 .5-2.25 1.25-2.25 1.25-2.25h.5v-.25l1 1 1 1 1 .75 1 1 2 1.25 1.25.5 1 .5.25 1.75-.25 2-.25 3.75-.75 1.75-1 1.5-1.25 1.5-1.25 1.25-1.5 1-1.5.75-1.75.5-1.75.25h-3.5l-1.75-.5L137 337l-1.5-1-1.5-1-1.25-1.25-1-1.5-.5-1L131 330l-.25-.75-.25-1V326h-.25l.25-.25-.25-.5v-1.75l.25-.5v-.5l.25-.75.25-.5h1.5l1.25-.25 1.5-.25 1.25-.25 1.25-.75L139 319l1-1 1-1 1.5-2v3.25l-.25 1.75-.5 1.5z" transform="translate(0 -2.2656494)"/>
  <path style="fill:#fff200;fill-rule:evenodd" d="m168 319.25.5 1.25.25 1.25v1.5l.25 1.25v1.75l.25 1-.25.5-.25.5.25.75v1l-.25 1v1l.5-.75.5-1v-1.75l.5-2 .25-.75.75-.75.75-2.75.5-1.25.75-1 2.75 3.5.75.5.75.75 1.75.75 2 .75.25 1.75v1.75l-.25 1.75-.75 1.75-.75 1.75-.75 1.5-1.25 1.25-1.5 1.25-1.25.75-1.5.5-1.75.5-1.5.25H167l-1.75-.5-1.5-.5-1.25-.75-1.25-1-1.25-1-1-1.25-.75-1.5-.5-1.25-.5-1.5-.25-1.5V327l.25-.75-.25-.5.75-3.25H160l2.25-.25 2-.75 1.75-1 .75-.25.5-.25.25-.5.5-.25zM200.75 325l1.25 1.5 1 1.5-.25 2-.5 2-.75 1.75-.75 2-1.25 1.5-1.25 1.75-1.25 1.25-1.5 1.5-1.75.75-.75.25-.75-.25h-1.5L189 342l-2-1.5-1.75-1.75-1.5-2-.5-1-.25-1.25-.25-.25V334l-.25-1 .5-1.25.25-.75-.25-.75.25-.5v-3l1.25.25h1.25l2.5-.25 2.25-.75 2.25-1.25.25 1.5v.5l.25.75-.5 3v3h.25l.25.25v.5l.25.25h.5l.25-2.75.5-2.75 1-3.5 1.25-3.25.25-.75.25-.75.5-.75v-.75l1.25 2.75 1.5 3z" transform="translate(0 -2.2656494)"/>
  <path style="fill:#fff200;fill-rule:evenodd" d="m194.75 324.75.25-.75.25-1 .25-.75.5-1-.5 1.75-.25 1-.5.75zM102.25 327.5l.25.5-2.25 4.25-.25-.5v-4l.25-1.25.5-.75.5-.75.75 1.25.25 1.25zM129.25 330.75l-1.25 2.5-1 2.75-.25-.75v-1l.25-1-.25-.75v-1l-.25-.75v-1.25l.25-.5.75-.5.5-.75.25-1 .5-.5v2.25l.5 2.25z" transform="translate(0 -2.2656494)"/>
  <path style="fill:#fff200;fill-rule:evenodd" d="m98 329.5-.25 8.25-.25 3.75-.25 4-.25.75v1.5l.25.25.25.25.5-2 .25-2 .25-1 .25-1.5.75-1v-1l.25-1.25.5-1 .25-.75.5-.75.5-1.5.5-1.25 1.75-2.75 1 .5.75 1 .75.75.25.25.5.25 1.25.75 1.5.75 1.5.5 1.5.25v3.25l-.5 1.5L112 342l-.75 2-.75 1.75-1 2-1.25 1.5-1.25 1.5-1.75 1.25-1.75 1-2 .5-1.25.25h-2.5l-1-.25-2.5-.75-2-1-.5-.25-.25-.5-.25-1-.5-1-.5-.75-.75-4-.25-1.75v-2l-.25-1 .25-1 .5-2H90v-.75l1.75-1 1.5-1 2.25-2 2-2.5.5.25zM156 333.5l.25.5v.5l-.5 1.25v.5l-.5.25-1 2.5-.25-1v-1l.25-1.25V334l.5-.75.75-1.25.25.25.25.25v1zM125.25 334.5v1.75l.25.75v1l-.25 5.5.25 5.5.25.25h.25v-2.75l.25-1.25.5-1.25.5-3.5.25-.25v-.75l.25-.25.25-.5v-.25l.25-1 .5-1 .5-.75.5-1 .25-1h.5v-.5h.25L132 335l1.5 1.5 1.5 1.25 2 1 .5.5h.75l.5 1.25v2.75l-.25 1.5-.25 1.25-.75 1.25-1.25 2.25-1.25 1.25-1.25 1-1.25.75-1.5.75-1.5.5-1.5.25-1.5.25h-1.75l-.25-.25h-1l-1.25-.5-1.25-.5-1.25-.5-1.25-.75-2-2-1.5-2.5-.5-1.25-.25-1-.25-1v-3.25l.5-2 .5-2 .25-.75v-.25l.5-.25h.25l1 .25h1l3.25-1.5 1.75-.75 1.25-1.25.5.5.25.5v.75l.25.5zM182.25 338.25l-1.25 2.5-.25-1v-3l.25-.5.25-.5.75 1.25.25.5v.75z" transform="translate(0 -2.2656494)"/>
  <path style="fill:#fff200;fill-rule:evenodd" d="m152.25 336.5-.25.75v.5l.5 1.25.25 1.5v1.25l.25 1-.25 1.25v1.25l-.25 1-.25 2v1l.25.75h.25l.25-.25.25-.5.25-1.75.25-1.75 1-3.75.75-1.25.75-1.5.75-1.25 1-1 1.5 1.75 2 1.5 2.25 1.25 2.25.75.25 1.75v1.75l-.25 2-.75 1.75-.75 1.25-1 1.5-1 1-1.25 1-1.25 1-1.5.5-1.5.5-1.75.25-3.5-.25-1.75-.5-1.5-.5-1.5-.75-1.5-1-1.25-1.5-1-1.5-1-2.25-.75-2.5v-1.5l.25-1.5 1-2.75H144l1.25-.25 2.5-.5 2-1.25 2.25-1.5h.25zM179.25 340.25V347l-.25 2 .25.5.25.5.5-.25.25-.25.25-.75V348l.25-.75v-1l.25-.5.5-1.5.5-1.75.75-1.5.25-.75.25-.25.25-.25 1.75 1.5 2 1.5 1 .75 1 .25 1.25.5h1.25l-.25 2.25-.25 2.5-.5 2.25-.5 1.25-.75 1-1.5 1.5-1.75 1.5-2 .75-2.25.5-.5.25h-2.25l-2.5-.5-1.75-1-2-1-1.5-1-.75-1-.75-1h.25l-.75-.75-.75-1-.75-2V346l.25-2.5-.25-.75h3l1.25-.25 1.5-.5 2.75-1.25L179 339l.25 1.25zM197.25 342.75l-.5 4.5-.5 4.5-1 4.25-1 4.25-.25.75v.75l-.25 1v.75l-1.5-1.25-.5-.75-.25-.75-.75-.75-.25-.75-.25-.75v-.75L190 357l-.5-.75 1.5-1.75.75-1 .25-1.25 1-3 .5-1.5.25-1.75v-1.25l1.75-.5.75-1 1-.5zM112.75 345.75l.5 1.25v1.25l-.25 1.25-.25 1.25-.25-.5v-.75l-.25-1.5.25-.5-.25-.5v-1.25h.5zM140.75 349.75l.25.5v.25l-.25.75-.25.75-.25.25.25.5-.25.5-.25.25-.25.25-.25-.25.25-1.25-.25-1v-.75l.5-1v-2.75l.5 1.5.25 1.5zM89.5 350.75l-.75 4-.25 4-.25 4 .5 4 .5.25.25-.25.25-.5.5-.25v-4.75l.25-.75.25-2 .5-2 .25-.5.25-.5.25-.25.5-.25 1.25.75 1.5.25 3 .5.25.25-.25.25.25.5v5.25l-.25 2-.75 2.25-.75 2-1.25 1.75-1.25 1.75-1.75 1.25-1.5.25-.5-.25-.75-.25-1.75-3.25-.25-.75-.25-.75-.25-1.25-.5-3.75-.25-3.75v-3.75l.5-2 .5-1.75v-1l.25-1.25.5-1.75.5 1 .75 1.25z" transform="translate(0 -2.2656494)"/>
  <path style="fill:#fff200;fill-rule:evenodd" d="M110.75 351.5v1.5l.25 1.75v1.5l.25 1.5-.25.5-.25.5.25 1v5.75h.5l.25-.25.25-.5v-3.25l.25-1.5.5-1.5v-.5l.25-.5v-1l.75-3 .75-3 .5.25.5.5 1 1.25 2 1.25 1.75 1 2 .75 2.25.5.5 1 .25 1.25.25 2.25-.5 2.5-.25 1-.5 1-1 1.5-1 1.5-1.5 1.5-1.5 1-1.5.75-1.75.75-2 .25-1.75.25-1.75-.25-1.5-.5-1.5-.5-1.5-.75-1.25-1-1.25-1.25-1-1.25-.75-1.5-.5-1-.25-1.25-.25-2.25.25-2.25.5-2.25.25-.25.25-.25.25-.5.5-.25 1.25-.5 1.5-.5 1.5-.75 1.5-1 1.25-1.25.25-1 .25.5.5.75zM138.5 361.25l.25.75v4.5l.5.75.25-.5v-3l.25-1v-.25l.25-.25v-.5l.25-.25-.25-.5v-.75l.5-1.25v-1.75l.25-1.5.75-1.5 1.25-1.25.75 1 1 .75 2.25 1.75 2.75 1 2.5.75.5 1.25.25 1.25v1l-.25 1.25-.75 2.5-1 2.25-1 1.5-1.25 1.25-1.25 1-1.5.75-1.75.75-1.75.5h-1.75l-1.75.25v-.25h-.25l-.25.25-1.75-.5-1.5-.5-1.5-1-1.25-1-1.25-1-1-1.25-1-1.5-.75-1.5-.5-2.5v-1.25l.25-1.25v-1l.25-1 .25-1 .5-1h.25l-.25-.5 2.25-.75 2-1 2-1.5 2-1.75.5 2.5.5 2.5.5 2.75-.25 2.5zM266.25 354.25 267 356l.25 2v1l-.25.75-.25 1-.5.75-1.25-.25h-1.25l-1.25.25-1 .5-.25-.5.25-.5.25-.75.25-1.5-.25-1-.25-2.5h-.5l-.25.25v1l-1 2.25-1 2-1-.75-1.25-.5-1-.5-1.25-.25v-2.25l.5-1.5.75-1.5 1-1 1.5-.75 1-.25 1.25-.25 1 .25 1.25.25 1 .5 1 .5 1 .75.75.75zM165.25 353.25l.25 1.75v6l.5 2.5.25 2.5.25-.5.25-.5.25-.75.25-.5V362l.5-1.5.75-1.75.25-1.5.5-.5v-.5l.25-.25.25-.5 1.25 1.25 1.25 1 1.5.75 1.5.75 2 .5 1 .25h1l.25 1.75.25 1.75v1.75l-.5 1.5-.5 1.75-.75 1.5-1 1.5-1 1.25-2.25 1.5-2.25 1.25-2.5.75-2.5.25-2.5-.75-2.25-1-2-1.25-2-1.75-.5-1-.25-1.25-.25.5-.75-1.25-.5-1.5-.25-1.25v-3l.25-1.25.25-1.5.5-1.25h.25l.25-.25v-.5l.25-.25h1.25l.5-.5 1.5-.5 1.75-1 1.5-1.25 1.5-1.5h.25z" transform="translate(0 -2.2656494)"/>
  <path style="fill:#fff200;fill-rule:evenodd" d="M168 354.75v.75l-.25.75-.5 1.5v-.25l.25-.5v-.25l-.25-.25v-.75l.25-.5.25-.75-.25-.75v.25l.25.25.25.5zM276.5 354.25l1.25 1.25.75 1.5.5 1.5v1.5l-.5 2.5-.25 1-.75 1-1-.25h-1.25l-2.25.5.25-1.5.25-1.25.5-2 .25-2v-.5l.25-.5v-.5l-.5-.25h-.25l-.25.25-.25.5-.25.75v.5l-1.5 3L270 364l-.5-.5-.5-.75-.75-.75-.75-.25 1.5-4.25.25-.25v-.75l.5-.75.75-.5.75-.25.75-.5 1-.5h1.25l2.25.25zM187.75 359.5v5.5l.25 3 .5 2.5.25 1.75.5 1.5.5 1.75v1.5l-1.75-.5-1.5-1-1.5-1-1-1.25-.5-.25v-.25l-.25-.5-.25-.5-.25-.25h-.25l-.75-1.25-.5-1-.25-.5-.25-.75v-.5l.5-.75.25-.5V365l.25-.5-.25-.25v-.75l.25-.5v-.25l-.25-.25v-1.75l.25-.5-.25-.25 1.75-.5 1.75-.5 1.5-.75 1.5-1v1l-.25 1.25zM260 363.25l-.5-.25v-.5l-.25-.5v-1l.5-.75.5-.5.25-.5.25-.5V360l-.25 1-.5 2.25zM289.75 361.5v2.75l-.25 1.5-.5 1.5-.5.5-.25.75-.25.75-.5.75-1-.5h-3.25l.25-1.5.25-1v-2l.25-.5.25-.5v-1.25l.25-.5-.25-.5H284l-.5.25-.25.25V364l-.25.5v.25l-1 2-1 2-.75-1.75-1-1.25-.25-.25-.25-.5.25-.5.25-.5.5-1 .5-1.25.75-1.25 1-.25.75-.5 2-.25h1.75l1 .25.75.25.75.75.75.75zM257.5 362l.75 2.25-.25 1.25-.25.5-.5.5-.25 1-.25 1h-.25l-.5-.25-.25-.5-.5-.25h-1.5v-.5l.25-.75v-.75l.25-.75V363l.25-.5-.25-.5-.5-.25-.25.25-.5 1.5-.75 1.25-1.5 2.75-3 1-.5-.75.25-1 .25-.75.25-1 .75-1.75 1.25-1.75.5-.75 1-.5.75-.5h2.5l1 .5 1 .75.75 1z" transform="translate(0 -2.2656494)"/>
  <path style="fill:#fff200;fill-rule:evenodd" d="M270.25 366.25v-.75l.25-.75.75-1.25 1.5-2.5-.25 1.5-.25 1.5-.75 1.25-.5.75-.75.25zM190 362.5l-.25 2.75-.5 2.75-.25-1.5V362l.25-.25h.25l.5.75zM268.25 364.75l.25.75.5 1v2.25l-.5 2-.75 2-1.25-.25h-2l-1-.5.5-1.5.25-1.5.25-1.75-.25-1.75v-.5H264l-.25-.25-.5.75-.5 1.25-.25 1-.5 1-1.25 2.5-.5 1.25-1 1-.25-1-.25-1-.75-2.25.5-1.75.25-1 .75-.75.25-.75.75-.75 1.25-1h3.5l1.5.5.75.25.75.75zM101.5 368.25l-.25.5.25.75.25 1 .25 1.25v.5l-.25.5.5.5.25.5.25 1.5.25 2.75.5 3 .25 1.25.5 1.25h.5l.25-.25v-1l-.25-.25v-3.75l.25-1V376l.25-1.25.25-1.25.75-1 .5.25.5.25 1.25.5 3.75.75H116l.25.75.25 1 .25 2v2.75l-.25 1.25-.25 1.25-.5 1.25-.5 1.25-1 1-1 .75-2.5 1-2.5.75h-2.75l-1.25-.25-1.25-.5-1.75-1-1.75-1.25-1.25-1.25-1-1.75-.5-.5v-1.5l-.5-.5.25-.5v-.75l-.25-.5v-5.75l.25-.75.5-.75.75-.75.75-1.25.5-1.25.25-1.25.5-1.25v-1l.5 1.75.5.75.75.75zM278.75 366.75l.25 1.5V370l-.25 1.5-.75 1.25-.5.5v1l-.25.25-.5 1.5-.5 1.25h-.75l-.5.25-1.5.75.25-.75.25-1 .5-1.5.25-1.25.5-1.5.25-1.5.25-1.5-.5-.25-.25.25-.25.25-.25.5v.75l-.25.5-.25.25-2.75 4.5-.75-.5-.5-.75-.5-.75-.5-.5.25-1.25v-.75l.5-.5v-1.25l.75-.75.75-.75.5-.5V367l.75-.5 1-.5 1.25-.25 1-.25 1.75.25.5.5.75.5zM297.25 366l-.25.5-.75.5-.5.25-.5.5-.5.75-.75.5-.5.75-.5.75-.75.75-.5.75-.75 1-.75.75v-.5L290 373l-.25-.25v-.5l-.75-1-.25-.25.25-.75.75-1 .75-1 .75-.75 1-.75 1.25-.5 1.25-.5H296l1.25.25zM252.75 367.5h-.25l-.25-.25.5-1.25v1.5zM282.75 367l-.25 1-.25 1-.5 1-.75.5v-1l.5-.75.75-.75.5-1zM127.5 375.25v2l.25 1v1l.5 1v2.25l.25.5.25.5.25-.25.25-.25-.25-1 .25-.25.25-.5V379l.25-.5v-1.25L130 376l.25-.5v-.25l.25-1V373l.5-.5v-.25l1.75 1 2 1.25 1.75.5 1.75.5H140l2-.25v3l-.5 2.75-.75 2.5-1 2.75-.75 1-1 1-.75.75-1.25.75-1 .5-1.25.5h-1.25l-1.25.25-1.25-.5h-1.5l-1.25-.25-1.5-.5-1.75-1.25-1-.75-.5-1-1-1-.75-1-.75-1.25-.25-1.25-.75-2.75V377l-.25-1.75v-2l2.5-.75 2-1.5 1.5-1.75.75-1 .5-1 .5 1 .25 1v2l.25 2.25v1l.5.75zM297.25 368.25 294 372l-3.25 4-.25-.5.25-.25.5-.75.75-.5.25-.75 2.5-3 2.75-2.75-.25.75z" transform="translate(0 -2.2656494)"/>
  <path style="fill:#fff200;fill-rule:evenodd" d="M261 373.25v-.75l.5-.5.25-.25.25-.5.25-1 .5-.75.25-.75-.25 1.25v1.5l-.25.5-.25.75-.5.25-.75.25zM154 374.25l-.25 1 .25 1 .25 1.25-.25 1 .25.5v1.5l.25.5v1.5l.25.75.25.5.25-.75v-1.5l.25-.75v-1.25l.5-1 .25-1.75.25-.75v-.75l.25-.75v-1l.5.25.5.25 1 1 1.5 1.25 1.75.75 2 .75 1.75.25.25 1.25v.75l-.25.5v2l-.75 2-1 2-1 1.75-1.5.75-1.5.75-1.5.5-1.5.5h-3.25l-1.5-.5-1.75-.75-1.75-1.25-1.5-1.5-1.25-2-.5-1v-1.25l-.75-1.5-.5-1.75v-2l-.25-1.75h.5v-.25l-.25-.25.25-.25 2-1 2.25-1.25 1.75-1.5.75-1 .75-1 .75 1.25.5 1.25.75 2.75zM252.5 369.5l-.25 1.75-.75 2-1 1.5-1.25 1.5-2 .25-.75.25-1 .5v-.75l-.25-1.25v-1l.25-.5.5-.25v-1.25l.5-.75 1.5-1.25 2.25-.75h2.25zM257 371.5l.5 1 .5 1v1.25l-.25 1-.75 1-.5 1.25-.5 1-.75 1-1-1-.5-.75-.75-.25-.25-.5h-.25l-.25-.25.5-1.75.25-2 .5-4 1 .5 1 .25.75.5.75.75zM129.75 371v.25l-.5.25.25-1 .25.25v.25z" transform="translate(0 -2.2656494)"/>
  <path style="fill:#fff200;fill-rule:evenodd" d="m155.5 372.75-.5.75V372l.25-1.25.25.5.25.5v.5l-.25.5zM180 371l-.75 3-1 2.75v.25l.25-1-.25-.75.5-.5v-.25l-.25-.75-.25-.5.25-.25.25-.5.5-.25.25-.5v-.5l.5-.25zM104.25 373l-.25-.5v-.5l.25-.5-.25-.5.5.25-.25 1.75zM287 371.5l.75 1 .5 1 .5 2v2.25l-.25 1-.25 1-1.25 1.75-1.5 2-1.75 1.5-1.75 1.25.5-2.5-.25-1-.5-1.25.5-1.25.5-1.25.5-1.5.5-1.25.5-.5.25-.5.5-1.25-.25-.25-.25-.25-.5.25-.75 1.25-.75 1.5-2 2.5-.75-.25-.75-.5-.75-.5-.5-.25-.25-.5v-.25h.25l.25-.25v-.5l.25-.5.25-.25h.25l.75-1.5 1.25-1.25 1.75-.75 1.75-.5h.75l.5.25.75.25h.5l.25-.25zM242.25 381.5l-1.25-.25h-1.5l-1.5.25-1.5.25.75-.75.75-1 1.5-1.75 1.5-1.75 1.25-2 .5-1 .5-1 .25 1 .25 1.25V377l-.5 2.5-1 2z" transform="translate(0 -2.2656494)"/>
  <path style="fill:#fff200;fill-rule:evenodd" d="m182.5 374.25 1 1 1 .75 2.25 1.5-.5 2.5-.5 2.5-1 2.5-1.25 2.25-.5 1-.5.75-1.5 1-3.25 1.75-1 .25h-1l-1.75-.25-1.75-.75-1.5-.75-1.25-1.5-.75-1.25-.5-1.5-.25-1.5V383l.25-1.75.25-3.25 2-.25 2-.75 1.75-.75 1.75-1 .25 1.25.25 1.25-.25 2.25-.5 2.25-.25 2.25v1l-.25 1.25-.25 2h.5l.25-.5v-.75l.25-.5.25-.25.25-.25.25-1 .5-1.25.5-1 .5-1.25v-.5l.25-.5.25-.5-.25-.5.5-.25.25-.5.25-1v-1l.25-.5.5-.5.5-1.5.5-1.75h.5l.25.5.5.75zM268 375l1 .75.75.75.5 1.25v3.5l-.75 2-2.25 4H267l-.25.5v.25h-.5l-.5-1-.5-1.25-.75-1.25-.5-.5-.75-.25 1-3.5 1-3.5v-.5l-.5-.25h-.25l-.75 2-.5 1.75-.75.5-.25.5-.75 1.25-.25.5-.5.25H260l-.75-.25-1.25.5h-.75l-.75.25h-.25v-1l.25-.75.5-1 .25-1 .25-.25.25-.75.5-1.25 1.75-1.5 1.75-1.25 1-.25 1-.25H265l1 .25 1 .5 1 .25zM272 379.25l-.25.25V378l-.25-.5v-.75l1.25-1.5.5-.5.25-.75-.25 1.25-.25 1.5-1 2.5zM251.5 376.75h-.5l-.25-.25v-.5l.25-.5.75-1-.25 2.25zM93.75 375l.25-.25.25 1.75v3.25l.25.75.25.5-.25.5v.5l.25 1-.25 3-.5 3.25-.5 1.5-.75 1.25-1 1.25-1.25 1-.25-2.75-.25-3v-2.75l-.25-3v-1.5l-.25-1.75-.25-2.5.25-2.5.75.75 1.25.25h1.25l1-.5zM254 381.5v1.25l-.25.5-.5.25.25.5v.5l-.25 1-1.25 1.75-1.25-.25h-1l-1.25.25-1 .25.5-2.25.25-1.25.5-1.25V382l.5-.75v-.75l-.5-.25-.25.25-.25.5-.5 1.25-1 1.5-1.25 1.5-1.5-2.5-.25-.5.25-.25.25-.25v-.5l.5-1 .5-1 1-.75 1.25-.5 1.25-.25h1l1 .25 1 .5.75.5.75.75.5.75.25 1zM281.25 380l-.5-.25.25-.5.75-.75-.5 1.5zM189.5 382.5v1.75l-2-1.75.5-.75.25-.75v-.75l-.25-.75.25-.25h.25l.5.25.25 1.5v.75l.25.75zM279.25 380.5l.5 1.5 1 1 .25.75v.75l-.25 1.25-.25 1-.25 1.25-1.5 1-1.5 1-1.25 1-1 1.5h-.5v-.25l-.25-.5-.5-.5-.25-.25-.25-.5.25-.25.5-.5.5-.75.5-1 .5-1.75.5-1.75.75-1.75v-.25l-.25-.25-.25.25-.5.5-.5.75-.75 1.5-1 1.25-1 1.25-2.25 2.5-.75-.25-1 .25-1 .25h-.75v-.75l.25-.5.5-1 1-1 .75-1 1.25-2.25.5-1.25.5-1.25h.25l.25-.25.25-.25.25-.25 1.5-.75 1.75-.25h2l.75.25.75.5z" transform="translate(0 -2.2656494)"/>
  <path style="fill:#fff200;fill-rule:evenodd" d="m262.5 382.75-.25-.25v-.25l.5-.75.25.5-.5.75zM144.5 385l-1.25 2.5V382l.5.5.25.75.25 1 .25.75zM243.5 384.5l.5 1.25.25 1.5.25 1.25v.5l-.5.75-.5.5-.25.75-.5.5H242l-.75-.75-.75-.5-2-.75 1-1.75.75-2 .5-.75v-.5l-.5-.25-1.25 1.25-1.25 1-2.5 2.25-.25-1.5-.5-.5-.5-.5 1.25-1.5 1-.75h.75l.75-.75.5-.25.5-.25 1.25.25h1.25l.75.25.5.25.5.5.5.5zM191 391l-.25 1.25-.25 1-.5 1.25-1 1-1 .5-1.25.25-1.25.25-1.25-.25L183 396l-1-.5-2.25-1.25-.25-.75.25-.75.5-.25.25-.25h.25l.75-.5.5-.5.75-.5h.75L185 392l.75.75.75.75.5.25.75.25.5.25.25-.25v-.75l-.25-.25-.25-.25v-.25l-1-1-1-1-1.25-2.25.5-1L186 386l.5-1 .5-1.25 1.75 1.5L190 387l.75 2 .25 1v1zM119.5 386.25l.75.75-1.25 4.5-.25-.5v-.5l.25-1V388l-.25-.5v-1l-.25-.75-.25-.75v-1l.5.5.25.5.25.75.25.5zM263.25 386l.5.75.5 1 .25 1v1l-.25 2-.5 2-.5.25-.25.5-.5.5h-.5l-1.75-1-1-.25h-1l.75-2.25.75-2 .75-1 .25-.5-.25-.75-.25-.25-2 2.25-1 1.25-1 .75-.75-1-.5-.75-1.75-1.75 1.25-1.25 1.5-1 2-.75h1.75l1-.25 1 .25.75.5.75.75zM99 388.5v3.25l.25 3.25v1.25l.25 1.25.25 1.25-.25 1.25.5.25h.75l.25-.5-.25-.25-.25-.5v-.25l.25-1v-2.25l.25-.75.5-2 .25-2 .25-.75 1 .5 1 .25 2 .5.5.25.5.25.25 1V394l.25 1v2l-.5 1.75-.75 1.75-1 1.5-1.75.75-.75.5h-1l-1.5-.5-.75-.5-.5-.5-.5-.5-.5-.25-.5-1-.75-2 .25-.5-.25-.5-.5-1.25V393l-.25-.75v-.75l.25-.75-.25-.5v-.75l.25-1 .25-1v-.5l-.25-.5.5-.5 1.25 1.25.75.5.25.75zM166.25 391v-3.75l-.25-1 .25-.25.5 1 .25 1.25-.25 1.5-.5 1.25zM246.25 386.75v-.5l.25-.25v.25l-.25.5zM233 387.25l.25 1.75.25 1-.25.75-.5.25-.5.5-1 .75-1-.5-.75-.25-.5-.25-.25-.25.25-.25.5-.75.5-.5.25-.5v-.5l.25-.25.25-.25v-1.5h1.75l.5.75z" transform="translate(0 -2.2656494)"/>
  <path style="fill:#fff200;fill-rule:evenodd" d="m237.25 389.25-.75.25h-.75l1.5-1.25 1.25-1.25v.75l-.25.5-1 1zM154.25 392.25l-.25 2.25-.5 1-.75.75.5.5-.75 1.75-1.25 1.75-2.5 3-.75.5-.75.5-1.75.25-1.75.25h-3.25l-1.75-.5-.75-.25-1-.75-1-.75-1-1-.75-1-.5-1-.5-1.25L133 397v-2.75l-.25-.25v-1H134l1-.5 1-.5 1.25-.5 1.25-1 1.25-1 1-1.75.75 2.75.75 2.75-.25 6 .5.5h.25l.25-.25.25-.75.25-.75v-2.25l.25-.5V394l.25-1.25.5-1.5.75-3h.5v-1l1.75 2 2 1.5 1 .75 1.25.5 1.25.25h1.25zM229.5 387.5 228 389l-2 1.25-3.75 2.5.25-.5.5-.5.5-.25.5-.5 1.5-.75 1.25-1 2.75-1.75zM272.5 390.5h-.75l.25-1 .5-.75 1.5-1.25-.25.75-.5.75-.75 1.5zM118 394.5l.25 2.5v1.25l-.25 1.25.25.75.25.25h.75l.25-.25v-3.75l.75-4 .25-.25V392l-.25-.25.25-.5.5-1 .75-1.25 1.75 1.75 2.25 1.25 2.5.5 2.5.25-.25 2-.5 1.75-.5 1.75-1 1.75-1 1.5-1.25 1.25-1.5 1-1.5 1h-4.75l-1.5-.25-1.5-.5-1.25-.75-1.25-.75-1-1.25-2.25-4-.5-3-.25-1.5v-1.5l2.5-1 2.75-1 .5-.25.5-.5 1-.75.5 1.5.25 2 .5 1.75.25.75.25.75zM253.25 390l.5.5.25.75.25.75.25.5-.25.75.25.5v.5l-.25.5-.5.75v.5l-.25.75-.5.25-.75 1.5-.75.75-.75.25-1.5-.75-1-.25h-.75l.25-.5.25-.75.75-1 .5-1 .25-.5V394l1.5-1.75-.25-.25v-.25l-.25-.25-.5.5-.5.5-.25.5-.25.5-1.25 1.5-1.5 1.5-3 2.5H243v-.75l.5-.75v-1.75l-.25-1.5.25-1.5.5-1.5 1.25-1.25 1.5-.75 1.75-.5h1.75l1.75.25.25.25h.5l.25.25.25.5zM276 396v-.25l.25-.25v-.25l-.25-.75-.25-.5.25-.25.5-1 .5-.5 1.25-1.5 3.5-2.25-1.25 2-1.5 1.75-1.25 2L276 396zM165.25 396.25l.25 4.5.25.25h.25l.5-2.25.25-1v-1l.25-1.5.25-.75.25-.75V393l.25-1 1-1.5 1.75 1.5 1 .75 1.25.5 1.25.5h2.5l1.25-.25-.25 1.75-.75 1.75-1.5 3-.25.75-.25.5-1 1-2.25 1.75-.75.5-1 .25-1.75.25-4.5-1.25-2.25-.75-1-.75-.75-.75-.75-.75-.25-.5-.5-.5v-.5l-.25-.25h-.25v-.5l-.5-2.5-.25-1.25.25-1.25v-.5l.25-.75h1.5l1.75-.5 1.5-1 1.25-.75.5-.75.25 1.75.75 1.75.5 1.75v1.75zM184 389.5v.25h-.25v-.5h.25v.25zM227.5 391h-.75l1.5-1.25v.25l-.25.25-.5.75zM196.75 396.5l.25 2-.25 1-.25.75-1 1-1.25.75-1.25.5h-1.25l-1.5-.75-1.75-.75-1.5-.75-1.75-.5v-.5L185 399l-.25-.25v-.25h1.5l1.5-.75h.75l.75-.25.75.25.5.5.75.5.75.25.75.25.5.5h1l.25-.25-.25-.5-.25-.25-.5-.25-.75-.25-.5-.5-.75-.75-.25-1v-.75l.25-.75.75-1.75.25-1V390l1.5 1.25 1.5 1.5.75 1.75.25 1 .25 1zM240.5 393.25l.5.25.5.75.5 1.5-.5 2.25-.25 1.25-.75.75-.25.5-.25.25h-.75l-.75-.75-.5-.25h-.25l-1-.25h-.5l-.5-.25 1.5-2.25 1.25-2.75-.25-.25h-.5l-.25.5-.5.75-.5.5-.75.75-.25.25-.25.5-.75.5-.75.75-.75.5-.75.5.75-2.75v-1.25l-.25-1.25-.25-.75v-.25l.25-.25 1.75-1 .75-.5 1-.25 1 .25h1.5l1 .5.5.5.25.75zM273.75 393.5l.25 1v1.25l-.25 1-.25 1.25-.5 1-.5 1-.75.75-.75.75-1.75-.25-1.75-.25.75-2.25.5-1 .75-1 .75-1 .5-1.25.25-.5.25-1h-.5l-.5.25-.25.5-.25.25-.75 1.5-1.25 1.5-1.25 1.25-1.5 1.25.25-1-.5-.75-.5-.75-.25-.75.5-1 .75-.75.5-.75.75-.5 1.5-1 1-.5h2l1.25.25.75.5.5.5.25.5zM257 394.25l-.25.25-.25-1.5.75-.75.25.5-.25.5-.25.5v.5zM230 393.25l.5 1.25.25 1.25v2.75l-.25.75-.25.75-.5.75-.75.25-1-1-1.25-.5-1.5-.5h-1.5l1-.75 1-.5.75-.75.25-.5.25-.75-.5-.25-.5-.25h-.5l-.5.25-1 .75-1.25.5-1.5.5-1.25.25-.75-1.5 2.75-2.25 1.75-.5 1.5-.5 1.75-.25h1.5l1.5.75zM94.75 394.75v2l.5.5v1.5l-.5.5-.5-.75-.5-.75-.25-.75-.75-.75-.25-.25v-.25l1-1.25.5-.75.25-.75.25.5v.75l.25.5zM201.5 395.25l.5.25h.75l1.5.25H206l3.25-.25-.25.75-.5.5-1.25 1.25-1.5 1-1.5 1-1.25-.75-1.5-.75-1.5-.75-1.5-.5v-.75l.25-.25-.25-.75-.5-.75-.25-.5v-.75l1.75 1.25 2 .5zM219.5 394.25l-.5.25h-.25l-.5.25H218l-.25-.25h.75l1-.25zM217.5 396l.5.5.25.75.5 1.5-.5 1-.25.5-.25.25-1.25-.75-1-.5-.25-.25h-.75v-.25l-3-.25H210l-1.25.25.25-.75.5-.5.5-.5v-.75l.25-.25v-.75h.5l.5.25h.25l.5-.25h-.25l1.5-.25 1.5-.25 1.5.25.75.5.5.5zM262 397l1 2.25-.5 1.75-.5 2-1 2-1.25 1.75-.5 1-.5.25-.5.25h-2.75l-.25.25h-.75l-.25-.25 1.5-2 1.25-2.5 1.5-2.5L260 399l-.25-.5h-.25l-1 .5-.5 1-.5 1-.75 1-.75.5-.75.75-.5.75-.75.5-.25-.75v-1l-.25-.5-.5-.5-.25-.5-.25-.5-.25-.5.75-.75.75-1 .75-.75.5-.5h.75v-.5l.75-.5.75-.25 1.75-.5.75.25 1 .25.75.25.5.75zM184.5 402l.25 2.25-.25 2-.5 2-.5 1-.5.75-2.5 1-1.25.5-1.5.25h-1.25l-1.5-.25-1.25-.25-1.25-.75-.25-.75-.75-.5-.5-.5-.25-.75h-.25l-.25-.25.25-.75 2.25-1.5 1.25-.75.75-1h.75l.5.25.25.5.5.25 1 .75 1.25.5 2 1 .25-.25-.75-.5-.5-.75-1-1.25-.75-1.75-1-1.25.5-1 .75-.75.5-1v-1l.25-.25.25-.5v-.5l.25-.25 1.75 1.25 1.25 1.25 1 1.5.75 2z" transform="translate(0 -2.2656494)"/>
  <path style="fill:#fff200;fill-rule:evenodd" d="m247.25 396.75-.5.75-.25 1h-1l.75-1 1-.75zM272.25 403.5l-.5-1 .75-.5.75-.25 1-1.25.75-1.5.75-1.75 1-.5-2 3.5-1.25 1.75-1.25 1.5zM223.75 397.75l-1 .75-1 .5-1.25.5h-1v-.75l.5-.25h.75l.75-.25 1-.25 1.25-.25zM131.25 399.5l.5 1v1.25l.5 1.75.5 3 .5 3 .5 3 .5 1.5.25 1.5.25.25.25-2 .25-1.25v-1l.25-1.5v-4.5l.25-.25v-.75l2.5 1.25 1.5.5 1.5.5h2l2-.25.25 1.25-.25 1.25-.25 1-.75 1-.75 1.75-1.25 1.5-1.5 1.5-1.5 1.25-.75.5-1 .5-1 .25h-4L131 418l-1.25-.5-1.25-1-1.25-1-1-1.25-.75-1.25-.75-1.25-.5-1.5-.25-1-.25-1v-2l2-1 1.75-1.25 1.75-1.75.5-.75.5-1.25 1-2.25.25.25v.5l-.25.75zM234.5 399.5l-.5.5h-.25l-.25-.25 1.75-1.75-.25.75-.5.75zM156.25 412.5l.5.5h.75l.25-3.25v-3L158 405v-1.75l.5-.5 2.75 1.5 1.25.75 1.25.75h1l1 .5 1 .25h1v1.25l-.25 1.5-.5 1.25-.5 1.25L165 414l-2 1.75-1.75.75-1.75.5h-1.75l-2-.25-2.25-.75-2-1.25-1-.75-.75-.75-.75-1-.5-1-.25-.5v-.5L148 409v-.75l-.25-.75v-1.75l.75-.25.75-.5 1.5-1.25 1-1.25L153 401l.25-.5.25-.25.25-.5v-.5l.25-.25.5 3.25 1 3.25.75 3.5v3.5zM203 402l.5.25.25.5.25 1v.75l.25.75v3.25l-.75.75-1.75 1.25-1.75.75-2 .25-1-.25-1.25-.25-.25-2v-2l-.5-.5-.5-.25-.25-.25-.25-.5-.25-.25 1.5.25 1.5.5 1.5.5h1.5l1.5.25.5.25.5-.5v-.5l-2.75-1.25-1.25-.75-1.25-.75-.5-.5.5-.25.25-.5.25-.5.75-1.25.25-.75v-.5l1.25.25 1.25.75 1.25.75.75 1.25z" transform="translate(0 -2.2656494)"/>
  <path style="fill:#fff200;fill-rule:evenodd" d="M156.75 403.75v.5l-.25.25-.25-1 .25-1.25V401l-.25-.75-.25-.5.25-.25.5.25.25.5v1l-.25 1.25v1.25zM266 401l-.5.25-.5.25h-.25l-.25-.5 2-1.5v.75l-.5.75zM252 403l.5 1.5v1.75l-.25 2-.5 1.5-.5.5-.75.75-.5.5-.75.25-1.75-1-1-.5-1.25-.25.25-.75.5-.75.5-.5.5-.75.25-.5.25-.75.75-.5.5-.75 1-1.75-.25-.5-.25-.25-.25.25-.25.25-.5.5-2.5 2.75-1.5 1.25-1.5 1-.75.75.5-2.25v-1l-.25-1-.25-1.25-.25-.75.25-.75 1-1 1.5-.5 1.5-.5h1.5l1.5.25 1.25.5 1 1L252 403zM110.5 402.5l.25 1.75.25 1.5.5 3.5.25 3.25.25 1.5.25 1.5h.75l.25-.5v-.5l.25-.5v-3l.5-1.5.75-1.5.25-1 .5-1 3 .5 1.75.25h1.5l.25 1.75v2l-.25 1.75-.25 1.75-.5 1.75-1 1.5-1 1.25-1.5 1-1.75.5H114l-1.75-.5-1.5-.75-1.5-1.25-1-1.25-1-1.5-.5-1.5-.5-1.5-.5-1.5-.5-3.5.25-.25.25-.25-.25-.25v-.75l-.25-.25.25-.5v-.5l.25-.25.5-.5 1.25-1.5 1-1.75.75.5.25.75.5.75.5.5zM217 402.25l.75 1 .25 1.25.75 2.25-.25.25v.25l.25.75.25.5-.25.25-.25.5-.25.75-.25.5-1.5 1-1.5 1-.75.5-.5.75-.5-.5-.25-.25v-.25l-.75-2.5-.75-1-.75-1h.25l.75-.25h.5l.75-.25 1.75-1 1.25-1.25h.25v-.5l-.5-.5-.5.25-1 .5-1.75.25h-5.75l-.25-.75-.5-.5-.25-.5.25-.5-.25-.5-.25-.5-.25-.5-.5-.25.25-.25h1l1.5-.75 2-.5h1.75l2 .25 1 .25 1 .5 1 .5.75.75zM227.75 401.5l1 1.5.75 2 .25 1.75-.25 2-.25.75-.25.5-.75 1.25-1.25 1-1.25.75H225l-.5-.5-.75-.75-.25-.25-.5-.25-.75-.25-.75-.25-.75-.25-.75-.25v-.5l1-.25 1-.25 1-.5 1-.75 1.5-1.5 1.75-1.25-.25-.5-.25-.25-1.75.5-1.5.5-1.5.75-1.75.5v-1.5L220 404l-.5-1.25-.75-1 1-.5h1l1.75-.5h3.5l.75.25 1 .5zM240.25 403l.5 1 .25.75v2l-.5 2-1 1.75-.75.5-.75.5-1.5 1-1.75-.75-2-.75.25-.5.5-.5 1-1 1.25-1 .5-.5.25-.5 1.25-.75.25-.25.25-.5-.75-.25-.5.25-1.25.5-1 .75-1 .75-.5.25h-.5l-.75.25-.5-.75v-.5l-.75-3.5.5-.25.5-.5 1-.25 1.25-.75 1.25-.25 1.5-.25 1.5.25 1 .75.5.5.5.5zM190.25 403.25l1 1 .75.75.75 1 .5 1.25.5 1.25.25 1v2.5l-.75 2.25-1.25 2-.75 1-.75.75-1 .5-1.25.5-1 .5-1.25.25h-1l-1-.25-2.25-.5-2-.75-1.5-1.25-.75-.5-.25-.75-.25-.5-.25-.75-.25-1.5h3.25l1.5-.5 1.5-.75 1.25.75.75.25.75.25.5.5.5.25 1.5.25 1.5.25h.75l.5-.5v-.25l-.25-.25-.5-.25-1-.5-1-.5-.75-.75-.5-1.25-.5-.25v-.5l-.25-.5-.5-.25.5-1.25.5-1.5h.25l-.25-.5.25-.5v-.5l-.25-.25v-1.25l-.25-1 2 1 1 .5h1zM134 405.25v-.75l-.25-.25v-1l-.25-.5V402l.5.25.25.25v1l-.25 1.75zM270.25 403.75l-.5 1-1 1-1.75 2-2.25 1.25-2.5 1.25-2.25-1.5.75-1.25 1-1.25L263 405l1.25-.75 1.5-.75 1.5-.5 1.5-.25 1.75.25-.25.75zM197 404.5l-1-.25-1.25-.25v-.5l.25-.25.75.25.5.25.75.75zM101.5 405.75h2.25V408l.5 2.25v.75l.25.75.5 1.5-1.5-1.75-1.5-2-2.5-4-.5-1.5 1.25.75 1.25 1zM254.25 406.75l-.25-.25.25-.25v-.5l-.25-.25.75-.75 1-.5-.75 1.25-.75 1.25z" transform="translate(0 -2.2656494)"/>
  <path style="fill:#fff200;fill-rule:evenodd" d="M113 407v.75l-.25.75v-4l.5.25.25.25-.25.5-.25.75v.75zM224.5 406.5l-1 .5-1 .75-1 .75-1.25.25v-.5l.25-.5.75-.25 1.25-.25.5-.25.25-.25h.25l.25-.25h.75zM212 414.5v1.75l-.5 1.5-1.5 2-2 1.5-2.25 1.25-1.25.25-1.25.25v-.75l.25-.5.25-.5-.25-.75.25-.75V419l-.25-1.75-.25-.25v-1h5.5l.75-.25 1-.25-.25-.5-.5-.25H208l-1-.25-1.25-.25-1.25-.5-1.25-.5L202 413h-.25l-.25.25h-.25V413l2.75-1.75.75-.75.5-.5.5-.75v-1l.5-.75.25-.5 1 .25 1.25.75.75.75.75 1 .75 1 .5 1.25.5 2.5zM211.5 407l-.5.25h-1.5l.5-.25h1.5zM245.5 407.25l-.25.75-.5.5-.5.75-.25.5-1 .25h-1l1.75-1.25 1.75-1.5zM174.75 413l.5 1.25.5 1.25v1.5l-.25 1.25-.5 2.25-.25 1-.5 1.25-.75.75-.75 1-1 .75-1 .5-1.25.5-1 .25H166l-2.25-.5-2.25-.75-1.75-1.75-.5-1-.25-1-.25-.5-.25-.5-.25-.5v-1.5l1.5-.25 1.5-.5 3-1 .25.25.25.25.25.25.25.25.75 1.5 1 1.5 2.25 2.5h.5l.25-.25v-.5l-.25-.25-.25-.5-.25-.25-.5-1.5-.5-1.5-.5-1.25v-.75l.25-.75v-2.5l-.25-.75.75-2 1-1.75 1 1.25 1.25 1.25 1.5 1 1.5.75zM232.75 409l-.25.75-.5.5-1.25 1-.25-.25v-.5l.75-.5.25-.5.5-.5h.75zM266.25 409.25l-.75.75-.75.75-.75.5-.5 1-.25.25v-.75l-.25-.5 1.5-1 1.75-1zM185.5 411.25h-.25l-.5-.25-.25-.5-.5-.25.5-.5 1 1.5zM147.25 412.5l-1.5 3.75-.25-.25v-1l.25-.25-.25-.25-.25-.5v-1.5l.25-.5.5-.5v-.5l.25-.25V410l1 2.5zM262.25 413l-1.5.75-1.5 1-2.75 2.25 1.25-1.5 1.75-1.25v-.5l-.25-.25h-.75l-1 .5-.75.5-.75.5-3.25 3-.5-.5v-1.25l-.25-.75-.25-.5-.25-.5-.25-.75-.25-.75.25-.25.25-.25.75-.75 2-1 1-.25 1.25-.5 1.75.5 1.75.5.75.25.5.5.75.5.25.75zM248.75 413l1 2 .75 2v4l-.5 1.25-.75 1-.75 1-.75 1-2.25 1.25-2.25 1h-.5l-.25-.5-1.75-.75-1-.5-1-.25-.25-.25.75-.25.5-.25.75-.25.5-.5h.5l.5-.5.75-.5.5-.5.5-.75 1-.75.75-1 .5-1 .5-1.25-.25-.5-.5-.25-2.75 2.5-1.5 1-1.75.75-.75.25h-.5l-.25-.25v-.5l.5-.5.25-1v-1l-.25-1v-1l-.25-.5-.25-.5-.25-.5-.25-.5v-.5l.5-.5 1.25-1 1-.5 1.5-.25h3.75l1 .5 2 1zM223.25 413l1 1.75.5 1.75.25 2-.5 2-.5 1-.5 1-1 .75-1 .5-2.25.75-2 .75-.5-1-.25-1-.25-1-.5-1v-.5l.5-.25h.5l.25-.25h.75l.75-.25 1.25-.75 1-.75 1.25-.75v-.5l-.25-.25h-.25l-3.5 1.5-1.5.5-1 .25h-1v-.5l-.5-.25h-.25l-.25.25v-.25l-.25-.5v-.5l.25-.75.25-1v-.25l-.25-.5 2-1 1-.25.75-.75 1.5-.75 1.5-.25h.75l.75.25.75.25.75.5zM124.5 417.25l-1-1.75-.75-2 .25-.25v-.5l.25-.25 1.5 2.25-.25 2.5zM200.25 414.25l.5.5.5.5.5 1.5.25 3-.25 2-.75 2-1.25 1.5-.75.75-1 .5-2.25.5-2.75.5h-1.25l-1.25-.25-1-.25-1-.5-.25-2v-.75l-.5-.75-.25-.5-.25-.25v-.75l1-.25 1-.25 1-.25.5.25.5.25h5l1.5-.5.75.25.25-.25.25-.25v-.25l-2.75-.75-1.25-.75-1.25-.5v-.75l.25-.5.5-.75.5-1 .25-.25v-.75l.5-1.75.5.5.75.25 1.25-.25h.5l.75.25.5.5.25.5z" transform="translate(0 -2.2656494)"/>
  <path style="fill:#fff200;fill-rule:evenodd" d="m235.75 414.25.75 1.25.25 1.25.25 2.25-.25 1.75-.5 1.5-1.25 1.5-1.25 1-1.5.75-1.5.5-3 .5-1-.75-1-.75-1-.5-1.25-.25v-.5l.75-.5.75-.25.5-.25v-.5l1-.25 1-.25 1.75-1 3.25-2.75.25-.75v-.5l-.25-.25-.5.25-1 .75-1 .75-2.25 1-1.5-.25.25-1v-.75l-.5-2 .25-.5.25-.25.75-.5h.75l.75-.5 2-.5 1.75-.25 1 .25.75.25 1 .5.5.5zM155.5 418.5l.25-.25.5.25.25.75v.75l-.25 1.5-.5 1.75-.5 1.5-1.25 1.5-1.5 1.5-1.75 1.25-1.75 1-1.75.25-1.5.25h-1.5l-1.5-.25-1.5-.5-1.25-.5-1.25-1-1.25-.75-.5-.75-.75-.75-.75-1.75-.25-2 .25-2h.5l.75-.5 2-.25.75-.5.75-.75.75-.5.5-.5.75-.5.25-.5.5-.5.5-.25.5 1 .25 1.25.25 1 .25 1.25-.25 1.25v1.25l.25.75v.75l.25.75v.25l.5.25.5-2.75.25-2 .75-2.25 1.25-4.5 1.5 1.5 1.75 1.5 2 1 1 .5 1 .25zM204.75 415h-1.5l-.75-.25-.25-.25v-.5l.75.25.5.25 1.25.5zM166.25 417.5l-.5-1v-1.25l.25-.25.25.5.25.75-.25 1.25zM261 416l-2 1.75-1.75 2-2 2-2.5 1.75-1.25 1.25-.75.75-.5.75-2 1.25-1.75 1.75-1.75 1.5-2 1.5.25-.5.25-.5.75-.75.25-.25.25-.5v-.5l-.25-.5 2.25-.75 1.25-.5 1-.75 1-.75.75-1 .5-1 .5-1.25 1-.25.75-.5 1.75-1.25 1.5-1.5 1.5-1 1.5-1.25 1.5-1zM123 417.75l.75 1.25.5 1.25.25 1.5.5 1.25.5 2 .5 1 .75.75.5-.25V425l-.5-.75-.25-.75v-4.25l-.25-1 .25-1 .75.25.75.5 1.5 1.25 1.75.5 1.75.5.5 1.25v1.5l-.25 1.25.25 1.5-.25 1-.25 1-.25 1-.25.5-.5.25-1 .75-1 .5-1 .5-1 .25-2.25.25-1-.25-1.25-.25-1-1-1-1.25-1-1.25-.5-1.25-1-2.75-.75-3 .75-.25.75-.5 1-1.25 1.75-2.5.5 1.5zM255.25 417l-1.25 2.25-1.75 1.75v-.75l.25-.25-.25-.5.75-.5.75-.75.75-.75.75-.5zM184.25 421l.25.5.5.5.5.5.25.75.5 2.25v2.5l-.5 2.25-.5 1.25-.5 1-.75 1-1 .75-1.25.5-1 .5-1.25.25-1.25.25-2.75-.25-1-.5-1.25-.5-1-.75-1-.75-1-1-.75-1.25-.5-1.25-.5-1.25 1.5-.5 1.5-.25 1.5-.5.75-.5.5-.5 3.25 1.5 1.75.75 2 .5.25-.25.25-.25.75-.5-.5-.25-.25-.25h-.5l-.25-.5-2.75-1.75-1.25-1-1-1.25h.25V422l.25-.25.5-.75.25-3.5 1.5 1.25 1.75 1 1.75.75 2 .5zM194.5 419.75l-.25.25-2.5-.5.25-.5h1l1.5.75zM214 421.75l.75.75.5 1.25.25 1.25v1.25l-1 1.75-1 1.5-1.25 1.5-1.75 1-1.5.5-.75.25h-.75l-1-2.5-.75-1.25-.75-1-.5-.75-.75-.5-1-.5-.75-.25v-1.25h.5l1 .25 1 .5 1 .25h1l2.25.75 1.25.25h1l.25-.25v-.25l-5-2.25 2.75-1.75 1.5-1 1.25-1.5 1.5.75.5.5.25.25v.5z" transform="translate(0 -2.2656494)"/>
  <path style="fill:#fff200;fill-rule:evenodd" d="m228 420-.5.75-1 .25v-.5l.25-.25 1-.5v.25h.25zM243.5 420.5l-1.25 1.25-1.5 1.25-1.75 1-2 .5.25-.5.25-.25.5-1h1.5l1.5-.75 1.25-.75 1.25-.75zM116.5 422l.5 1.5.5 1.5 1.5 3-2.5-1.75-1-1-.75-1.25-1.25-1.5-1.25-1.25 4.25.75zM160.5 426.25l1.5.75 1.5.5 3.5 1-.25 3.75-.25 1.75-.75 1.75-.75 1.5-.75 1.5L163 440l-1.75.75-3.25 1h-2.5l-1-.25h-1l-.75-.5-.75-.25-.75-.75-1.25-1.25-.75-1.75-.5-.5v-.75l-.25-1v-1.25l-.25-1v-.5l.25-.25.75-.5 1.25-.25 1-.75 1-.5 1.25-.25 2.75 5.75.75.75.5 1 .25.5.25.25h.5l.5-.25-.5-1-.5-.75-.25-.75v-1l-.25-1.75-.25-2-.25-.5v-.25l.25-1 .25-.75-.25-.25-.25-.5.5-1.75.25-2 1.25 1.5 1.25 1.5zM226.75 427.75l.5 1 .5 1.25.5 1.25.25 1.25v2.75l-.25 1.25-.5 1.25-.5.75-.5.5-.5.5-.75.25-.5.75-1 .75-.75.25-1 .5-2 .5-2 .5v-.75l-.25-.75v-1l-.5-.75.25-.25-.25-.25-.25-.25v-.25l-1-2.25 1.75-.25 1.75-.75 1.75-1 1.5-1 .25-.5v-.25l-.75-.25-.75.25-1.75.5-2 .25-2.25.25-1 .25h-1l-1-.25-1-.5L213 432l1.25-.75 1.75-2 .5-1.25.25-1.25 2.5-.75 1.5-.25h2.5l1.25.5 1.25.5 1 1zM135.75 429.25l1.25 3.25.5 1.5 1 1.25.25.5.25.75.5.5.75.25.25-.25-.25-.25-.25-.5-.25-.25-.25-1.25v-1.5l-.25-1.5-.25-.5v-.75l1.75.75 1.75.5 1.75.25h1l1-.25v.25l.25.25.25-.25v1.25l.25 1.25.25 1.5v1.25l-1.25 1.5-1.75 1.25-1.75 1-1.25.25h-2.75l-1.75-.5-1.75-.5-1.5-1.25-1-1.25-.75-1.25-.75-1.5-.25-1.5-.25-.25v-.75l1-.5.75-.5.75-.75.5-1 .75-2 .5-1.75.5.75v.75l.25 1 .25.75zM241.75 428.5l.25.75v.5l-.5.5-.75.5-1 1.5-1.25 1.25-1.25 1-1.5 1-3 1.5-3 1.5v-1.25l.25-.25v-1h-.25v-.75l.5-.5h.5l1.75-.75 1.5-1 2.75-2.25-.25-.75-.25-.25h-.5l-.5.25-1 .75-.5.25h-.5l-1.5.5h-1.5l-.25-.75-.25-.75v-.75l-.5-.75 2.25-.75 1-.25 1.25-.75 2 .25 2.25.25 2 .25.75.5 1 .5zM205 430.75l.5 2.25.5 2.25-.25 1-.25 1.25-.5 1-.75.75-1 1-1 .5-1.25.75-1.25.25-1.25.25h-2.75l-1-.25-.25-.5.25-.75v-2.75l-.25-1.25-.75-2.75 1.5 1 1.75.25 1.75.25h2l.25-.5-.75-.5-.75-.25-1-.25-1-.5-.5-.5-.75-.25-.75-.25-.75-.75-1.25-.25-1-.75-2-1.5h5.25l2.5-.75 1.25-.5 1-.75h.75l.75.25.75.25.5.5 1 1.25.75 1.5z" transform="translate(0 -2.2656494)"/>
  <path style="fill:#fff200;fill-rule:evenodd" d="M155.25 429.5v-.5l-.25-.5v-.5l.25-.5.25.5v.5l-.25 1zM137.75 429.75l-.25.25v-.75h.25v.5zM193.5 438.5v2.5l-.25 1-.5 1-.5 1-.5 1-.75.75-1 .75-2.25 1-2.25.5-1.75.25-1.5-.25-2.75-1.25v-.5l.25-.25 1-1 .75-.75.75-1 .5-1.75.25-.75-.25-1 3 .25 1.5.25 1.5.5.75-.25 1-.25-.25-.5-.25-.25-1-.25-.75-.25-1-.5-1.5-1-1.25-1-.5-.5-.25-.5.25-.5.5-.25.5-.5.5-.5.5-.25 1.25-1 .25-.5.25-.5v-.5l.25-.5.25-.75v-.5l1 1 1 1 1.5 2.25 1 2.25.75 2.75zM170.5 438.25l-.5-.25v-.5l-.75-.5-.25-.75-.5-1.5-.25-1.75v-1.5l.5 1.75.5 1.75 1.25 3.25zM232 432.5l-.75.5-.75.5v-.75h1.25l.25-.25zM193.5 433h-.25v-.25l.25.25zM128.5 433.25l1 2 .25 1 .75 1-1.5-.75-1.5-1-1.25-1.25-1-1.25 1.75.25h1.5zM214.25 438.5l1 2.5.5 1.5-.25 1.5-.25 1.5-2 .5-2 .5-2 .25h-1l-.75-.25-.25-.25-.25-.5-.5-.25-.25-.25-1-1-1-.75.5-.25h1.75l1.25.25.5-.25.5-.25.75-.25h.5l.75-.25.25-.25V442l-1-.5h-4.5l-1.25-.25 1.5-1.5 1-1.5 1-2 .25-2 2 .5 1.75.75.75.5.75.75.75.75.25 1zM219.75 434.25l-1 .5-1 .5-2.25.25-.75-.5 2.5-.25 2.5-.5z" transform="translate(0 -2.2656494)"/>
  <path style="fill:#fff200;fill-rule:evenodd" d="m180.75 436.75.25.25.25.25v.75l-.25 1.75-.25 1.5-1.25 3.25-1.25 1-1.25.75-1.25.75-1.25.25-1.5.5h-4.25L167 447l-1.5-1-.75-.25-.75-.75-.5-.75-.5-1-.25-.25-.5-.5.25-.25V442l.75-.5.75-.25.5-.75.5-.25.5-.25.75-1 .5-1 .25-1.25h.5l.25.5.25.5 1 .5.75.5.5.5.25.5 3 2.5h.5l.25-.5-1.25-1.5-.75-1.75-.75-1.75-.25-2 1 .75 1 .75 1.25.5 1.25.25 1.25.25h1.25l1.25-.25 1.25-.25zM185 438.5h-.5l-.5-.25-1.25-.5-.25-.75v-.75l2.5 2.25zM150.75 441.75l1 .75 1.25.5 1.25.5h4l2.5-.75 1 1.25 1 1.25h-1.25l-.5.25-.25.25h-2l-2-.25-4-1-3.75-1.25-3.5-1.75.5-.5 1-.5.5-.5.75-.75.75.5.5.5.5.75.75.75zM227 441.5l.75-.5.5-.75.75-.5h1l-3 1.75zM218.5 445.75l-.75.25h-.5l-.5-.25.25-.5.25-.25.5-.75 4-.75 2-.5 2-1-1.75 1.25-1.75.75-2 .75-1.75 1zM202.5 442.5l-.25.25h-.5l.25-.5h.25l.25.25zM202.75 444.75l2.25 1.75 1 1 .75 1-.75-.25h-1l-1.5.25-1.75.25-1 .25-.75-.25-5.25.25h-2.5l-2.75-.25 1.25-.75 1.25-1 1-1.25.75-1.5.25-.5 1 .25h3.5l2.25.25h1l1 .5zM209.75 448.5l-.75.25-.75.25v-.75l1.5.25zM187.25 449.75l.25-.25 1.5.5-1.75-.25zM96.25 303.5 95 306.25l-2 5-1 3-.75 3-.75 3.5-.25 3.25.5-.75.75-2.75 1-3 1-2.75 2-3.5 1-1.75-.25-2.25v-3.75z" transform="translate(0 -2.2656494)"/>
  <path style="fill:#006bb6;fill-rule:evenodd" d="M183.75 80.75h3.5l1 .5 1 .75.25.25V83l-.25.25-.25.25h-.75l-2.25-.75-1.25-.25h-1.25l-2.5.25-2.25 1-1 .75-1.25.75h-.25L176 85l.25-1 .5-.5.5-.5 2.25-1.5 1.25-.5 1.25-.25h1.75zM190 88.25l.25.5.5.25.25.25-.25.5h-1.25l-1.25-.5-.25.75-.5.5-.75.5-.75.5h-.75l-.75-.25-.75-.25-.5-.5L183 89l-1 .5-1 .25-.75.25H180l-.5-.25.25-.5.5-.25.25-.25.75-1.25 1-.75 1.25-.75 1.25-.25h1.5l1.25.5 1.5.75.5.5.5.75z" transform="translate(0 -2.2656494)"/>
  <path style="fill:#fff200;fill-rule:evenodd" d="m188.25 87.75.25.25v.25l-1.25-.5-1.25-.25-1.5-.25-1.5.5-1.25.75 1-1 .5-.5.75-.25h2.25l2 1z" transform="translate(0 -2.2656494)"/>
  <path style="fill:#006bb6;fill-rule:evenodd" d="M180.75 100.25v2l-.5.5-.5.25h-.25l-.25-.25v-.25l.5-.25.25-.5.25-.25-.25-1-.25-.5-.25-.25v-.5h.5l.5.25.25.75zM178.25 101.5l-.25.25-.25.5H177l-.5.25-1 .5-1 .5-1.25-.25-1.5-.5H171v-.5l.25-.25h.75l.75.25.5.25h1.5l.75-.25.5-.5.5-.25h1.75zM175 106.5l.25.5h.25l.5-.25.5-.5h.25l.5.25 1 .25 3 .5h.5l.25-.5h.5l.25.5.25.25-.25.5-1 .75-1.25.25h-2.25l-1 .25-.5.25-.25.25-.5.25-.5.25-1-.5-.75-.25h-2.25l-.75-.25-.75-.25v-.75l.5-.75h.25l.25.25v.25h.25l.75-.25.75-.5.75-.75h1.5zM174.5 112h2l1-.25 1-.25.5-.25.25-.25h.25v.5l-1 .75-1.5.5h-3l-.75-.5-.5-.5.25-.25.25-.25h.25l.25.25.25.5h.5zM162.5 91l.25-.25h.5l.75-.25h.5l.25.25.25.5.25.75.5.5.5.25H168l.5-.25.75-.75.5-1 .5.25h2v1.75L172 94.5l-.5 3.5-.25.75v.75l.25.25h.5l.25-.5.25-1.25.5-1.25V93.5l.5-3.5v-.75l-.25-1-.75-1.5-.75-1-.75-1-1-.75-1.25-.5-1.75-.25-1.75-.25-2 .25-1.5.75-.5.25-.5.5.25.5.25.25.5-.25h.5l.5-.25.5.25h1l1.25-.25h2.25l.75.5 1 .5.75.25.5.75 1 1.25.25.75.25.75-.75-.5-.5-.75-.5-.5-.5-.5-.25-.25-2.25-.5h-1l-1 .25-1.25.5-1 .5-.75 1-.5 1 .5 1z" transform="translate(0 -2.2656494)"/>
  <path style="fill:#fff200;fill-rule:evenodd" d="m167 87.75 2 .5.75.25.75 1 .25.5h-.25l-1.25-.5-.5-.25L168 89l-1.25-.25h-1l-1.25.25-1 .5v-.25l.25-.5.75-.25.75-.5.5-.25H167zM99.5 9.5l.25.75v1l-.25 1-.5.75-18.5 21.25-.25-.75L80 33l-.25-.25-1.25.5-1.25.75v-.25l2.75-4.5 2.5-4.5 2.75-4.5 2.75-4.5.5-.5.25-.75.25-.5.5-.75 1-1.75 1.25-1.75.75-.75 1-.5 1-.5h3.25l1 .5.5.5.25.5zM90.75 10l-3.5 6-3.5 6-3.5 6-3.5 6-.25.25-.25.25h-.5l-.25.25.25-1.25.75-1.25 1-2.25 1.75-4.5 2.25-4 2-4.25 1.75-4.5 1.25-1 1.25-1 1.5-.5 1.5-.25zM100.25 15.5l-.5 1.5-.75 1.25-1 1.25-1 1-2.25 2.25L92.5 25l-6.75 6.75-6.5 7-.25-.5v-.5l.25-.5-.25-.5 5-6L89.25 25 99.5 13.5l.5.25.25.5v1.25zM83.75 14.75 79 25.25 74.75 35.5l-.5.5-.5.25-1 .5 1.5-3.75 1.25-3.5 1.25-3.5 1.5-3.75L79 20l1-2.25.5-1 .75-.75 1-.75 1.25-.5h.25zM98.5 21.25l-.25 1.25-.75 1.5-5 4.5-4.75 4.25-9.5 9v-1.5l5-5L88 30l5-5 5.25-5 .25 1.25zM78.25 20.25v.5l-.25.75-.75 1.25-2.75 7.75L72 38l-1.25.25-.75.5-.25-.25L72 31l2-7.75 1-1 1-1 1-.75 1.25-.25zM95 27.25v1.25l-.25 1-1.5 2L86 37.75l-3.5 3-3.5 3-.75-.75v-.75l4.25-3.75 4-3.75 4-3.75 4.25-3.75H95z" transform="translate(0 -2.2656494)"/>
  <path style="fill:#fff200;fill-rule:evenodd" d="M79 33.75v.75l-.25 1-.25.75-.5.75v.25l.25.25L78 39l-.25.75-.5.75.25.5v.5l-.25.75v.5l-.5.75.25.25.25.25v.75l-.25 1.5-.25.25-.25.25-.25.25v.25l.5.25.5-.25.25.75-.25 1-.5.75-.75.75-.5.25-.25.25-1-.25L73 50.5l-1-.25-.75-.5-1-.5-2-.75v.25H68l-.5-.25H65l-1 .25-1.25-.25-.75.25-.75.25.25.25.25-.25H62l2.25.25 1-.25H68l.75.5h1l.75.5.5.25-.25.25H69.5l-.25.25.5.5h3l1.5.25 1.5.25.25.5.5.25h-2l-.75.25.5.5h.5l3.5-.25 1.75.25 1.75.5V54h-1.5l-1.25.25-1.25.25h-1.5v.5l1.25-.25 1 .25h1l1.25-.25L82 54.5l1.75-.25h1.5l1.5.25-.25.25-1.5.5-1.75.25-2 .25-1.75.25 1.25.5h1l2.5-.5 2.5-.75H88l1.5-.25 1.25.25 1.25.25v.25h-.75l-1.75.5-1.75.5L86 57l-1.75.25v.5h2L88 57.5l3-1 1.75-.25 1.5-.25 1.75.25 1.75.25v.5l-4.5 1.25-4.75.75-4.75.5h-5l-5.75.25-5.75-.25h-2l-5-.5v-1.25L60 57l.25-.75 1.5.25h.5l.5-.5h-.25l-.25-.25h-.75l-.75-.25v-.75h1l.5.25.25-.25.25-.25-.75-.25h-.75l-.5-.25-.25-.25v-.25l.5-.5.5-.25 1.25.25v-.25l-.25-.25-.5-.25h-1v-.5l.25-.25.25-.25h.75v-.5h-.5l-.5-.25-.75-.75-.5-1.25-.5-.25L59 48l-.25.25.75.5.5.5.25 1 .25.75v1.25L60 52l-.5-.5-.25-.5h-.5l.75 1 .5 1.25v1.5L59.75 56l-.25-.25-.5-.25-.25-.25-.25-.5v-.25h-.25v.75l.5.5.5.75.25.75v.5l.25.5v.5L59 59h-2l-.75-.25-.75-.5.5-1 .25-1L56.5 54l.25-1.5L57 51v-1.5l-.25-1.25-.5-1-.5-.75-.75-.75h-1l.25.25.25.5 1 .5.25.5.25.5.5 1.25v1.5L56 50l-.75-.5-.75-.75-.75-.25-.25.25.5.5.75.5.5.25.5.75.5 1.5v1.5l-.75-1-.75-.75-.75-.5-.75-.5-.25.25 1.25 1 1 1.25.5.5.25.75v1l-.25.75-.25.5v.25h-.25L55 56.5l-.5-1-.5-.5-.75-.5-.5-.5h-.25l-.25.25 1 1 1 1 .5 1 .25.5-.25.75-2.25-.25-2.25-.5-2.25-.5-2-1-.75-1-.25-.5V54l-.25-.25.25-.5.25-.25v-1l1-1 1.25-.75L50 48.5l1-1 .75-1 .5-1.5-.25-.75-.25-.75V43l.25-.25h.25l.5-.25 1.5-.5 1.75-.5h3.75l3.75-.25h1.75L67 41l1-.75 1-.5 1-.5 1.25-.25.25-.5.5-.5 1-.5h.25l.5-.25L74 37l.25-.75.5-.5 1-.25 1-.25 1-1 .5-.25.75-.25z" transform="translate(0 -2.2656494)"/>
  <path style="fill:#fff200;fill-rule:evenodd" d="m40.5 40.75 1.5.75h2.75l.75-.25.75-.25.75-.75V41l-.25.75-.75 1h.5l.75-.25 1-1 .25-.25h.25l.25.5-.25.5-.5.75-.5.5h.75l1-1 .5-1.25.5 1.5.25 1.5-.25 1.5-.5 1L48.5 48l-2 1.25-1.75 1.5-.75.75-.5 1-.25.5v.75L43.5 55l.75 1 1 1 1.25.75 1.5.5 2.75.75 3 .5 5 .5 5.25.25 10.75.25 3.75-.25H82l-.75.75-.75.5-1.5.75-1.75.25-1.75.25-.25.25.25.25v.25l-.25.5-.5.5-.25.5-.25.75 1.5.25 1.75 1 1.25 1 1 1.25-1.25-1-.75-.5H77l1 2.5-1.25-1-1.5-1-1.5-.5H73l-.75.25-1.5.25-1.5.75-1 .75-1.25 1V70l.25-.75 1-1 .5-.5.5-.25.25-.25V67l-1.5.5-1.5.75-1 1-1.25 1 .25-.75.75-.75L66 68l2-1 2-.75 2.25-.25.75-.75.5-.75.5-.75 1-.75-.25-.5-6.5 1-3 .25h-3l-.5.25h-4l-4-.25-2-.25-1.75-.25-2-.5-1.75-.75-.5-.5-.5-.25-.75-1-.75-1.25-.5-.25-.5-.5h-1l-1-.25L39 57l-1.25-1.5-1.25-1.75-.25.25v.5L36 55l-.25.25-.25-1-.25-.75-.5-1.5h-.25l-.25.25v1.25l-.25.25-.25.25-1-3.5-.25.25-.25.25.25.25v.5l-.25.5H32l-.25-.75v-1l-.25-.75-.25-.75-.25.25-.25.25.25.25v.5l-.25.75-.25.25-.25-.5-.5-.5-1-1-.75-1V47h.25l.25-.5-.5.25-.25.25v.25l-.25.25-5-1.5-5.25-1 2-.5h6.25l2 .25 1 .25 1.25.25v.5h.5l.25-.25v-.75l-.5-.5-.5-.5-.5-1.25-.25-1-.75-1.25v-1l-.25-.5-.25-.25-.25.75.25 1 .25.75.25.75.75 1.5-.5.25-.5-.25-1-.5-1-.5-1.25-.5-5-.5L17 41l-2.75.25.5-.75.5-.5 1.5-.75 3.75-1h2l2 .25h.75l.75-.25 1.25-.75 1.25-.75.5-.5h.75l1.75-.5H33l1.5.5 1.25.5 1.25.75 1.25 1 2.25 2.25z" transform="translate(0 -2.2656494)"/>
  <path style="fill:#fff200;fill-rule:evenodd" d="m25.5 39.25.25 1 .5 1 .5.75.75.75V43l-1-.75-.75-1-.5-1-.5-1.25H25l.5.25z" transform="translate(0 -2.2656494)"/>
  <path style="fill:#006bb6;fill-rule:evenodd" d="m33 40 .25.75v.75l-.5.5-.75.5-.75.25-.75-.25H30l-.25-.5-.25-.75v-.5l.25-.5 1-.75h1.75l.5.5z" transform="translate(0 -2.2656494)"/>
  <path style="fill:#fff200;fill-rule:evenodd" d="m31.25 40-.25.25.25.25v.5l-.5.25V42l-.5-.75-.25-.5.25-.25.5-.5h.5zM23 42.5l1.5.5 1.25.25h-1l-1.25.25-2.25.5-1.25.25-1-.25-.75-.75-.5-1.25 1.25.5 1.25.25L23 42.5zM26.5 43.25h-.75.75zM78.5 44.75v.75l-.25.25.25.5.5-.25.25.25-.5 3.75-.25.5-.25.5-.75.75h-.75L76 51.5l.25-.5.5-.75.5-.5.5-.5.25-1.5v-1l-.25-.25-.25-.25.25-.75v-2h.5l.25.5v.75zM28.75 45.5v.5H28l-.25.25h-.25L28 46l.25-.25.25-.25h.25z" transform="translate(0 -2.2656494)"/>
  <path style="fill:#fff200;fill-rule:evenodd" d="m81.75 45.5-.25.5v.25h1L83 46l1-.25h.5l.5.25-.75.75h.25l.5.25 1-.25 1.25-.25 1 .25h.5l-.25.5h-.75l-.5.25-.25.25V48h1.5l.5-.25 3.25-.25 1.75.25 1.5.25L80 52.25 79 52l-1-.25.25-.5.75-.5.5-1 .25-1.25.25-1.25-.25-1.25.75-.5h1.25zM62.75 57.75H60.5l-.25-.25.25-.25h1.25l.75.25.25.25zM70.5 63.75l-.25.5-.25.5 1 .25-.25.5h-2l-1.75.25-1.5.5L64 67l-1.5 1-.75.5-.5.75v-.5l.25-.5.25-.5.25-.5.5-.5.25-.5H62l-.75.25-1.25.75-2.25 1.5v-.5l1-1 1-.75 1.25-.75 1.25-.25L65 65l2.75-.25L69 64l.75-.25h.75zM167.25 90.75l.25-.5.75-.5.5.5.25.5-.25.75-.5.25-.75-.25-.25-.75zM185 89.5l.25-.75.5-.25.75.25.25.75-.25.5-.75.25-.5-.25-.25-.5z" transform="translate(0 -2.2656494)"/>
  <path stroke-miterlimit="2.6131" style="fill:#fff200;fill-rule:evenodd;stroke:#006bb6;stroke-width:.2001;stroke-miterlimit:2.61310005" d="m233.25 126.25 2.25.25 3 .75 3.5 1.25 4 1.75 4.25 2 4.5 2 2.5.75 2.25.5h4.25l3.25-.5 2.5-.75 4-1.25 4-1.5 2.75-.75 3.25-1 2.75-.5 2.5-.25 2.5-.25h4.5l2 .25 1.75.5 1.5.5 1.75.75h.5L301 129.5l-2.25-.75-2.5-1-3-1-2.75-.5-2.75-.25H285l-2.5.25-2.75.25-4.5 1-3.25 1-3.25 1-1.5.25-1.5.25-1.75-.25-2-.5-2.5-1-3-1.5-2-.75-2.25-1-5-1.25-2.5-.5-2.5-.25H238l-2.25.75-1.5.75-2 1.25-1 .5h2z" transform="translate(0 -2.2656494)"/>
  <path style="fill:#fff200;fill-rule:evenodd" d="M254.75 84.5H257l2-.25 4-1 4-1.5 3.75-1.75 7.25-3.75 3.5-2 3.75-1.5L290 71.5l5-.75 5-.25 5 .25 5 .75 4.75 1.25 4.5 1.5 4.25 2 6.25 3.25 2.75 1.25 3 1.25 3 1 3.25 1 3.25.75 3.25.5 3.25.5 3.5.25h3.25l3.25-.25 3.25-.5 3.25-.5 3-1 3-1.25 3-1.5 2.5-1.75-2 2.5L375 84l-2.5 1.75-2.75 1.5-3 1.5-3 1-3.25.75-3.25.75-3.25.25-3.25.25-3.5-.25-3.25-.25-3.25-.25-3.25-.75-3.25-.75-3-.75L326.5 87l-4.75-2-9.25-4.25L310 80l-2.5-.5-2.75-.25h-2.5l-2.75.25-2.75.25-2.5.5-2.5.5-2.25.75-1 .5-1 .5.5.25 1.5-.25 4.75.25 5 .5 3.5 1 3.5 1.25 3.25 1.75 1.5 1 1.5 1.25-.25.25-5-.5L302 89l-5.25.25-5 .75-5 1-4.75 1.5-4.75 2-4.25 2.25v.5l.5.25 1.75-.75L277 96l3.75-1 3.25-.25 4.25-.75h4l4.25.25 4 .25 4 .75 4 1 4 1 3.75 1.25 3.75.75 4 .75 3.75.25h4l4-.25 4-.25 3.75-.75 4-1-2 1.25-2 1.25-4.25 2-4.5 1.5-4.75 1-4.75.5-5 .25-4.75-.25-4.75-.75-4.25-1-4.25-.75-4.5-.25-4.5-.25-4.5.25-4.25.75-4.25 1.25-4 1.5-.5.25-.25.25v.5h.25l.25.25 5.5-.75h5.5l5.5.25 5.25.75 5.5 1 5.25 1.25 5.25 1.25 5 1.5 3.25.75 3.5.25 3.5.25 3.5-.25 3.5-.25 3.25-.5 3.25-1 3-1 4.5-1 4.5-.5 4.75-.25 4.75.25 4.75.5 4.5 1 4.25 1.25 4.25 1.75-6.75-.25h-3.25l-3.25.25-3.25.25-3.25.75-3 .75-3 1-5.25 2-5.25 1.75-5.25 1.25-5.5 1-5.75.75h-5.5l-5.75-.5-2.75-.5-2.75-.5-4.5-1-4.75-.5-4.5-.5h-9.25l-4.75.5-4.5.5-4.25 1-3.5.25-3.75.25-2.25-.25-2-.5-2-.75-2-1-3-1-3-1-1.5-.25h-3.25l-2 .25-2 .5-2.25.75-3.75 2-4 2.25-2 1-2 1-1 .5-2.5 1-2.5 1-5.25 1.5-6.25 1.25-3 .25h-1.75l-1.75-.25-2-.75-1.5-1-1.5-1.25-1-1.75-.25-1.5-.25-1.5-.25-1.5-.25-1.5-.5-1-1-1.25-1.25-1.75-1.5-1.5-1-1.5-.75-2.25-.75-2.75-.5-2.75v-1l.25-1.25.25-1 .25-.75.5-1.25 2-1.75.75-.75.5-1 1-1.5.75-1.5.25-1.75.25-2-.5-1.75-1.5-3-1.75-2-.75-1.75-.5-1.5-.5-3-.5-1.25-.5-1.25-.75-1-1.25-1-3.75-1.25-1.75-.5-2-.75-1.75-1-1.5-1-1.25-1.5-.5-1-.5-1-.25-1.25v-1.25l.25-2.75 3.25-1.25 3.25-1 3.5-.75 3.5-.5 4.5.5 2 .5 2.25.75 1.75 1.25 1.75 1.25L206 61l1.5 1.75 1.25 1.5 1.25 2 3.25 3.75.75.75 3.25 3 3.5 2.5 1.75 1 2 .75 1.75.75 2 .25h4.5l2.5-.25 1.25-.5 1-.5 2 1.75 2 1.25 4 2.75 2.25.5 2.5.5h4.5z" transform="translate(0 -2.2656494)"/>
  <path stroke-miterlimit="2.6131" style="fill:none;stroke:#006bb6;stroke-width:.2001;stroke-miterlimit:2.61310005" d="m198 117.25 1.5 1.25 2.25 1.75 2.75 1.5 1.5.75 1.25.25 3.5.5 2 .25h4.75l2.25-.5 2.5-.5 2.5-1 2.25-1.25 2.5-1.25 5.25-3.5 2.75-1.5 2.75-1.5 2.5-1 2.25-.5h5.75l1.75.5 1.75.5 2 1 2.25 1.25 2.5 1.5 2.5 1.5 2.5 1 2.25.5h2l1.75-.25 1.75-.25 2-.75 6.75-1.5 4.5-1 3.5-.5h2.5l2.25.5 3.25.75-.5-.5-2-1.75-2.5-1.5-1.5-.75-1.5-.25-1.75-.25-2.25.25-4.75.5-4.75.75-3.5.5h-3l-1.5-.25-1.5-.5-2-.75-2.25-1-7.25-3.75-2-1-2.25-.5-2.25-.5H247l-2.25.25-2.25.25-1.75.25-1.5.5-5.5 2.75-3.5 1.75-4 2.25-1 .5-1.5.5-2 .5-2 .25h-5l-2.5-.5-2.5-1" transform="translate(0 -2.2656494)"/>
</svg>
