<svg xmlns="http://www.w3.org/2000/svg" width="427.63" height="570.21997">
  <path style="color:#000;fill:#006bb6;fill-opacity:1;fill-rule:nonzero;stroke:none;stroke-width:.42402202;marker:none;visibility:visible;display:inline;overflow:visible;enable-background:accumulate" d="M0 482.36215h427.63336v570.22107H0z" transform="translate(0 -482.14217)"/>
  <path style="fill:#fff200;fill-rule:evenodd" transform="matrix(1.06543 0 0 1.1427 3.8546377 23.85260244)" d="m303 125.5-4.25-1-4.25-.75-4.25-.5L286 123h-4.25l-4.25.5-2.75-.25H270l-1.5.25-2-.25h-1.25l-1-.25-2.5-1-2.25-1.25-2.25-1H257l-2-.75-2-.5h-4.25l-2.5.5-2.25.75-2.5 1.25-2 1.25-2.75 1.25-2.25 1.5-2 1-1 .5-6.5 2.5.25.25H228l6.5 2.25 6.5 2.25 3.25 1.75 3.25 1.5 6.5 2.5 3.75 1 4 1 4 .5h8.5l4-.75 4-1 3.75-1.5 3.5-.75 3.25-.5h7l3.5.5 3.25.75 6.5 1.5 3 .25 3 .25h5.75l5.5-.75 5.5-1.25 5.5-1.75 5.25-2.25 4.75-2.75 4.75-3 2.5-1.5 2.75-1.5 2.5-1 2.75-1 3-1 3-.5 3-.25 3-.25H373l-7 .5-3.5.5-3 .5-2.75.75-2 .75-5 2.25-5.5 2-5.5 1.5-5.5 1-3 .25-2.75.25-2.75-.25-3-.25-2.75-.5-2.75-.5-2.75-1-2.5-1.25-4-1.5zM319 330.5l-5.5 5.75-5.25 5.5-5 6-5 6.25-.5-.25-.25-.25 3.25-4 3.25-4 7-8 4.75-4.75 4.75-4.75 5.25-4.75L331 319l5.5-4 5.75-3.5 6-3.25 6.25-2.75 1.5-.5 1.5-.75 1.5-.5 1.5-.25.25-.25-1.75-.75-2-.5-2.25-.25h-2l-2 .25-2 .5-2 .5-1.75.5-2.5.75-2.5 1-4.75 2.25-4.25 2.75-4.25 2.75-5.5 4.25-5.25 4.5-5 4.75-2.25 2.25-2.25 2.75-3.75 4.5-3.5 4.75-3.75 5-3.25 5-.25.25h-.25l-.25-.25v-.25l4.25-6.5 4.5-6 4.75-6 5.25-5.5 5.25-5.25 5.75-5.25 6.25-4.5 6.5-4.5 3-1.5 3.25-1.75 6.5-2.5-.25-.5-3.75-.25h-5.5l-1.75.25-1.75.5-1.5.75-1.75.5-1.75.75-3 1.75-2.75 2-3 2-3 2.5-2.75 2.75-5.5 5.5-5 6-4.5 6.25-3 4.25-2.75 4.75-5 9h-.25l-.5-.25 3.25-5.5 3-5.5 3.5-5.25 3.5-5.25 3.75-5 4.25-4.75 4.25-4.5 4.75-4.5 3-2.25 3.25-2.5 6.75-4-3-.5h-3l-2.75.5-2.75.5-2.75 1-2.75 1-2.5 1.5-2.25 1.5-3.25 3-1.25 1.5-1.25 1.75-1.25 1.25-1 1.25-.75 1.5-1 1-.75.75-.25 1-.75.75-.5.75v.75l-.5.25.5-5 .25-2.5v-2.75l-.25-2.5-.25-2.5-.5-2.5-1-2.5-.5-2-1-2-1-1.75-1.25-1.75-2.75-3.25-2.75-3-.25.5v.5l.5 1 .75 4 .25 2v2l.5 1.25v4.25l.25.75-.25 1v1l.25 1v2.25l-.25 2v2.5l-.25 1.5v1.25l-.25 1.5v1.25l-.25 1.25v1.25l-.25 1-.25 1-.25 2-.25 1.75-.25 1.5-.25 1.5-.5 1.5v1.75l-.5 1v.75l-.25 1-.25 1.25V339l-.5 1v1.5l-.5 1.5-.75 2-.25 2.25-.25.25h-.25l-.5-.25.25-2.25.75-2 1.25-4.5 2-10.75L287 317v-2.75l.25-1v-12l-.25-.5v-2l-.25-1.5-.5-3.25-.75-2.5-1-2.25-1.25-2.25-1.5-2.25-1.75-2-1.75-2-2-1.75-2-1.75-.25.25.25 1.25.5 1 .5 1V282l1.25 3.75.5 2 .25 2 .5 1.25.25 1.25.25 2.75.25 1.75.25 1.75.25 3.25v.75l.25 1v.75l-.25.75.25.75v3.5l-.25.5v7.5l-.5 2.5v.75l-.25.5.25.5-.25.25v1l-.25 1.75v1l-.25.5v1.75l-.5 1.5-.5 1.75v1.75l-.25.5v1l-.25.5-.25 1-.25 1-.25 1v1l-.5 1.5-.5 1.75-.25 1.75-.25.75-.25.75-.75-.25 1.75-7.25 1.5-7.5 1.25-7.5.75-7.5v-4.75l.25-1.5-.25-1v-1.25l.25-2.25-.75-6.5-1-6.5-1.5-6.5-1-3-1-3-.75-2.25-.75-2-1.25-2-1.25-2-2.75-3.5-3.25-3.5-3.25-3-1.75-1.25-1.5-1.5-1-.5 3.75 6.75v.5l1.25 2 1 2 1 2.25.75 2.25.75 1.75.5 2 .5.75.25.75.25 1 .25.75.75 3.5 1 3.75v.75l.25.75v1.75l.25 1.75.5 1.75-.25 1 .25.75v2l.25.25v1.25l.25.25L269 301l.25 1.25.25 1.5-.25 1.5v1.5l.25 1.5-.25.5v.75l.25 1.25v4.5l-.5 4 .25 1.5-.25 4-.5 3.75v2.25l-.25.5V334l-.5.75v.5l.25.5-.25.5v.75l-.25.25.25.5-.25.5-.5 4.5h-1V341l.5-2 .5-3.5v-1l.25-.75.75-6.75.25-6.5.25-6v-6.25l-.25-6-.75-5.75.25-1-.25-.75V293l-1-5.5-1-5.25-1.5-5-2-5.25-2.25-5-2.5-4.75-3-4.5-3.25-4.25-2-2.25-2-2-2-1.5-1.25-.75-1.25-.5-1.75-1-.75-.25h-1l2.5 3 2.5 3.5 2.25 3.5 2 3.75 1.75 3.5 1.75 4L255 274l1.25 4.5 1 4.75 1.75 9 .75 7.25.5 7.25.25 7.5-.25 7.5L260 329l-.5 7.5-.75 7.25-1 7 2.25-.25 2.5.25 1.25.25 1 .5 1 .75 1 .75.25.5.75.5.25.25.25.75.25.25 1.25-1 1.5-1 1.5-.5 1.75-.25h.75l1 .25 1.25 1 1.25 1.25 1.25 1.25.5 2v1l.25.5.5-.25.5-.25 1.25-.5 2.25-.25h1.25l1 .25h.75l1 .75 1 1 .75 1.25.5 1.25-.25 1.75H291v1l.25.25 1.25-.75 1.5-.5h1.75l1.5.25.25-.25v-1l1-.75.5-1 1-1.75 7.75-8.5 8.25-8.5 4-4 4.25-3.75 4.5-3.75 4.5-3.5 5.5-3.75 5.5-3.5 6-3.5 6-3 6-2.75 6.25-2.25 6.5-1.75 6.5-1.25v-.25l-2-.75-2.25-.75-2.25-.5-2.5-.5-2.25-.25h-4.75l-2.5.25-1 .5-1 .5-3 .75-3 .75-2.75 1.25-3 1.25-5.5 2.75-5.25 3.25-5 3.5-5 4-4.75 4-4.75 4.25zM204 59l-1.25-1-2.75-1.5-2.75-.75L194 55h-3l-3.25.25-3.25.75-2.75 1-1.5.5-.5.25H179v-.5l.25-.5.5-.75 1-1.25 1.75-1.5 2-1.25 2.25-.75 2.25-.75 2.25-.25 2.25-.25h4.75l2.5.25 2.25.5 2.5.5 2.25.75 4.25 2 4.25 2.25 4 3 3.5 3.25 3 3.75 2.75 4 3.25 3.75 3.25 3.5-1 .5-1.5.25-2.75.5-2.75-.25-3-.75-2.5-1-2.5-1.5-2.5-1.5-2.25-2-2-2-2-2.25-.75-1.5-1-1.25-2-2.5-2.25-2.5zM137.5 80l-1.25 2-1 2.25-.75 2.5-.25 2.5v3l.25 3.25.5 2.25 1.25 2.5 1.5 2.25 1 1 .75.5 1.25 1 1.5 1 3 1.25 6 2 2 .75 1.5.75 5.75 3.25 1.75 2.25.75 1 .5 1 .5 1.25v2.25l-.25 1.25-.75-.75-2.25-1.5-3-2-1.75-1-1.5-.75-3.25-1-3.5-.75-4.75-1-2.5-1-2.25-1.25-2.25-1.25-2-1.5-2-1.75-1.5-2-1.25-2.25-1-2.5-.5-1.75-.25-2v-5.75l.5-1.75 1-3.5 1.75-3.5 1.5-2.75 2.75-3 3-2.75 3-2.5 3-2.25 6-4.75 3-2.75 2.75-2.75 3.75-3.5 2-1.5 2.25-1.5 2-1 2.5-.75 2.5-.5 2.5.25 1.5.75 1.5 1 1.25 1 1 1.5-.25 1.25-.5 1-1.25 2.25-1 2-1.5 1.5-1.75 1.25-2 .75-2 .75-2 .75-4 1.25-3.5.75-3.5 1L152 70.5l-3.25 1.75-2.25.75-2 1-2 1.25-1.75 1.25-1.75 1.75z"/>
  <path style="fill:#fff200;fill-rule:evenodd" transform="matrix(1.06543 0 0 1.1427 3.8546377 23.85260244)" d="M149.5 90.75 150 92l1 1.5 1.75 2.25 2 2 2.25 2 2.25 1.75 2 1.5.75 1 .5 1 1.25 2 .75 2.25.25 1-1.75-1.75-2-1.5-2.5-1.5-3.75-1.75-2-1-2-.75-2-1-2-1.25L145 98l-1.25-1.75-.75-2-.75-2.25-.25-1.5v-2.25l.25-2 .25-2 1.25-3.5 1-2 1-1.5L147 75.5l1.5-1.5 2.75-1.75 3-1.25 3.25-1 3-.75 4.25-1.25 4.25-1.25 2-1 2-1 1.75-1.25 1.5-1.75.25.25v.5l-.5 1-.5 1.75-1 1.5-1.25 1.25-1.5 1-1.75.75-1.75.75-3.25 1-2.75.75-3.25 1.5-1.75.75-1.75 1-1.5 1.25-1.5 1.5-1.5 2-1.25 2.25-.75 2.25-.25 1.25v1.25l.25 2z"/>
  <path style="fill:#fff200;fill-rule:evenodd" transform="matrix(1.06543 0 0 1.1427 3.8546377 23.85260244)" d="m198.75 92.25-.25 1.25-.5.75-.75 1-1 1.5-1.5 1.75-1.25 1.75-.5 1-.25 1-.25 1.25v1.25l.5 3.25.5 1.75.5 1.25v.75l-.5.5-1.5 1.25-2.5 1.5-2.75 1.5-3 1.5-3 1-2.75 1-2.75.5-1.25-.25-1-.25-.75-.5-.75-.75-2-3.5-1.5-3.5-2.25-3.75-2-3.75-1.25-1.75-.5-1.75-.75-4v-2l.5-2.25-.25-1.25-.25-1.75v-3l-.5-1.25-.25-1.75-.5-2.75.25-.5.75-2.75 1.5-3.75.5-.25 1.25-1 2.5-.75 2.5-.75 2.25-.75 1.25-.75 1-.75 1.25-1 1-1.25.75-1.25.75-1.5.5 1.25.75 1.25 1.75 2.25 3 1.75 1.5.75 1.75.25 1.5.5 1.5.5 1.5.5.5.5.5.5L193 75l.25 1.25.5 2.5.75 2.5.5 1.25.75 1 1.25 1.25 1 1.75.75 1.75.25 1.5z"/>
  <path style="fill:#fff200;fill-rule:evenodd" transform="matrix(1.06543 0 0 1.1427 3.8546377 23.85260244)" d="M158.25 99.25 155.5 97l-1.25-1-1.25-1.5-1-1.25-1-1.75-.75-1.5-.25-2.5v-2l.5-1.5 1-2.5 1.75-2.5 2-2 1.25-.75 1.25-.75 1.5-.75 1.5-.5-.25 1.25-.5 1.5-1.25 3-.25 1.25.25 1.25.5 3 .5 1.25V89l.25 1.25.25 1 .25 1.25-.25 1-.25 1-.25 1v2.25l.5 2.25.75 1.75z"/>
  <path style="fill:#fff200;fill-rule:evenodd" transform="matrix(1.06543 0 0 1.1427 3.8546377 23.85260244)" d="m166.75 114.25 2 3 .75 1.5.75 1.75.25 1.5v1.75l-.25 1.5-.5 1.25-.75 1.5-1 1.25-1 1-1.25 1-1.25.75-1.5.5h-1.75l-1.75-.25-1.5-.25-1.5-.5 3.25-1 1.75-.75 1.5-1.25 1.25-1.5.75-1.75.5-1.5.25-1.5-.25-1.5-.25-1.5-.25-1.5-.75-1.25-.75-1.25-1-1.25-1.75-1.25-1.5-1-3.5-2-2.5-1.25-3-1-4-1.5-3.75-1.5-1.5-1-1-1-1.5-1.75-1.25-1.75-.75-1.75-.5-2-.25-2v-2L136 89l.25-2 .5-2 .75-1.75.75-2L140 79l1.75-1.75 2.25-1.5 2.25-1.5-.5 1-.75 1-1.25 1.5-1 2L142 82l-.75 2.25-.25 2.5-.25 2.5L141 92l.75 2.75.5 1.5.75 1.25 1 1 1 1 2.25 1.75 2.5 1.5 2.75 1.25 2.5 1.25 2.5 1 2 1 2.75 2 2.5 2.25z"/>
  <path style="fill:#fff200;fill-rule:evenodd" transform="matrix(1.06543 0 0 1.1427 3.8546377 23.85260244)" d="M99.5 159v.25l-.5.25-.25.25-.25.25h2l1.75-.25L106 159l3.25-.75 3.25-1 3-1.25 3-1.25 3-1.5 3-1.5 2.75-1.75 2.75-2 1.5-1.5 1.5-1 3.5-2.5 3.25-2 3.25-2 3.5-1.75 1.75-.5 2-.5 4.25-.75 4.5-.75 2.25-.5 2-.75 2-.75 1.75-1 .25-.25L169 130l1.5-2 .5-1 .5-1.25.25-1v-2.25l-.25-1-.75-1.5 1.25 1 1.25.75h1.5l2-.25 2.75-.75 2.75-1 5.5-2.5 3.5-2 1.25-1 1.25-1.25.75 1.25 1 1.25 1 1 1 1 1 1 .75 1 .25 2.25.5 2.25 1.25 4.5.25.75.25.75.75 1.5 1 1.5 1.25 1.25 1.25 1 3 2 2.75 2 1.75.5 1.75 1 1.75.75 1.75.5 3.75 1.5 4 1.5 1.5.5 1.5.5 3 1.5 2.75 2 3 1.75 9.25 9 4.75 4.5 5 4 4.5 3.75 4.25 4 3.75 4.25 3.5 4.75 1.5 2 .75 1.25.25 1.25-1 2-1 1.75-2.5 3.75-3.5 5-4 5-4.25 4.75-4.25 4.75-9.25 9-8.75 8.5-4.25 4-4.25 4-2.75 3-2.75 2.5v1.5l.5.5.5.5 1 .75.5.75.75 1 1 1.75 1.25 2.25 1.25 4.25.75 2 .25 2.5v1.5l.5 1.75v.5l.5.5.5 1.75.5 1.5.25 1.5.25 1.75v.5l-.5.5-.5.5-.25.5h.5l.25.25.25.25v1l-.25.25-.75.25h-1l-1-.25-1-.5-2-1-3-2-2.5-2-1.5-1.75-2.75-3-.5-2.5-.75-3-.75-3.5-1.5-4-1.25-3-.75-1.25-.5-1.25-.5-1.5-.5-1.25v-1.5l.25-1.25.5-1.25.75-1 1.75-2 1.75-2.25 3.5-4.25 3.75-4 3.75-4 3.75-4.25 2.5-3 2.5-3 2-3 2.25-3 2-3.25 1.75-3.25L245 201l1.5-3.25 1.75-4.25 1.5-4 .25.25v-.25l-4.5-2.25-4.5-2.5-4.25-2.75-4.25-3-4.25-3.25-4-3.25-7.75-6.75-.25-.25h-.5l-.75.25v1.5l.25 1.25-.25 2.25-.5 2.25-.5 2.25-1 2-1 1.75-1.5 1.75-1.5 1.5-2 1.5-1.25.5-1.25.75-2.75.75H201l-.75.25h-4.5l-2.25-.5-2-.75-2-1-1.75-1.25L186 181l-1.25-1.75-1-1.5-.5-1.5v-.5l-.25-.25h-.25l-.25-.75-.25-.5v-.5l-.25-.25-.25-2v-5l-.25-.75v-1l-.25-.25H181l-.75 1-.25 1v2.5l-.25 2 .25 1.75.5 1.75.25 2h.5v.5l.25.25.75 1.5 1 1.5 1 1.25 1.25 1.25 2.5 2 3 1.75 2 .5 2 .5 2.25.25h2l2.25-.25 2-.5 2-.75 2-1h.25l.25-.25h.25l1.75-1.75 1.75-1.75 1.75-1.75 1.25-2v-.5l.5-.5.25-1 .25-1 .25-1.25.5-.75v3.5l-.25 3.75-.75 3.5-1 3.5-.75 2.5-.75 2.5-1.75 5-.75.75-.25 1.25-.25 1-.75 1.25-1 2.25-.75 2.25-1.5 4.75-1.5 4.75-1.25 4.75-.75 4-.5 3.75-.25 2v2l.25 1.75.25 2 .5 2 .5 2 1.75 3.75 2 3.5 2.5 3.25 2 3.5 1.75 3.75 1.25 3.75 1 4 1 3.5.5 3.25.25 3.5v3.25L217 282l-.75 3.25-.25-.5-.75-.5H214l-1 .75-.75.75-.75 1-.5 1v.75l-.25 1-.25.75.25.25.25.5.25.75.5.5.25.75v.25l-.25.5-.75 2.75-1 2.5-1.25 2.5-1.75 2.25-2.75 1.75-1.5.75-1.5.75-.5.25-.75.25-.5.25-.5.5-1-.5-.5-.5-.75-.75-.75-.5-3-3.5-1.25-1.75-.75-2.25-1-2.5-.5-1.25v-1.5l1-2 1-2.25.75-2 .25-1v-1.25l-.5-1.25-.25-.75-.5-.5-.25-.25-.5-.25-1 .25-1 .25h-1l-.5.75-.5.5-.5.5-.5.75-.25.25-.25.5v2.75l.75 1.75.25 1.75v2l-.5 1.75-.75 1.75L184 299l-2.25 3.25-2 1.25-2.25.75-4.5 2-.5-1.25-.75-.75-1.5-1.5-1.75-1.5-.75-1-.5-1-1.25-2-1-2-.5-1-.25-1v-2.5l.75-1.25.75-1.5.75-2.75v-1.5l-.5-1.5-.25-.5-.5-.75-.75-.25-.75-.5H162l-1 .25-.75.25-1 .75-.5 1-.5 1v3.25l.25 2.25.5.5.25.5v2.5l-.5 1.25-.75 1.5-1.25 1.25-2.5 2.25-2.75 1.75-2.75 1.75-.75.5-.5.25-.25-.25-1-1-1.25-.5-5.75-6.25-1.25-1.5-1-1.5-.5-1.75-.25-1.75.25-.5v-1l.5-2 .25-1 .75-.75.75-1.5.25-1.75v-1.5l-.25-1-.25-.75-1.25-.75-.75-.25-.75.25-.75.25-.5.25-1 1-.5 1.25-.5 1.25v1.5l.75 1 .5 1.25v.75l-.25.5-.75 1.75-.75 1.5-1 1.5-1.5 1-2 1.25-2.5.75-1 .25h-1.25l-1.25-.25-1.25-.25-2-1-.75-.75-.75-.75-.75-1-.75-1-.75-1.25-.5-1.25-.25-1.25-.25-1.5.25-2.75.75-1.25.75-1 1-1 .5-1.5v-1l-.5-1.5-1-.5H114l.5-.75.5-1 2.75-4 2.75-4 1.75-2.5 2-2.5 4.25-4.75 4.75-4.5 4.5-4.5 2-3 1.75-3.25 1.5-3.25 1-3.5.5-3.75.25-3.75v-3.75l-.5-3.75-.75-4.5-1.25-4.75-.25-2.5-.5-2.5v-2.25l.25-2.5.25-2.25.25-2.25.5-2.25.25-1 .5-1 1.75.25 1.75.25 1.75.25h1.75l2.75-.25 2.75-.75 2.5-1 2.5-1.5 2-1.75 1.75-2 1.75-2.5 1-2.5.5-1.25.25-1.5h.25v-2.25l.25-1.25-.25-1.25-.25-2-.25-1.5h-1l-.75.25.5 1 .25 1v2l-.25 2v2l-1 2.5-1.25 2.5L163 181l-2 2-2 1.5-2.25 1.25-2.5.75-2.5.5H149l-2.5-.25-2.5-.5-2.25-1-2-1.5-1.75-1.5-1.75-2-1.25-2-1-2.25-.5-2.25-.5-2.5.25-2.5.25-.5v-.75l.25-1.5.25-.25v-.5l.25-.25 1-2.25 1-2.25-.25-.75v-.25l-.5-.25-1 1.25-.75 1.25L133 163l-.5 1.5-.75 3-.25 3-9.5 4.25-5 2-5 1.75-5 1.5-5.25 1-5.25.5-5.5.25-2.25-2.75-2-2.75L85 173.5l-1.75-3-1.5-3-1.5-3-2.25-6-2-6.5-1.75-6.5L73 139l-1.25-6.75-.25-1-.25-1.5L71 128l-.5-1.75-1.25-3.25-.75-1-.75-1.25-.5-.5-.5-.25-.5-.25-.75.25-3.75-1.5-3.75-1.25-3.25-1.25-3.5-1.25-6.75-2.5-1.25-2-1.5-1.75-2.25-4.25L35.25 96l-1-1.75-.75-1.75-.75-3.75-.5-3V85l.25-.75.25-.5.75-.75-.25-1.5-.25-.75.25-.75 1.25 1.25 1 1.5.75 1.5 1.25 1.5L39.75 89l2.5 3.25 1 .5.5.25L45 94.25l1.25 1.25 1.25 1 1.5 1 1.5 1 3.5 1.25 3.5 1.25 3.5 1h1.5l.5-.25.5-.75.5-.5v-.5l-.25-1.5L61 94l-2.75-4.25L57 87.5l-.75-2.25-.75-2.5v-2.5l.25-.25.5-.25.25-.25.5-.25.75 1.75 1 1.5 2.25 3 2.5 2.75 3 2.25L71 94l2.5 2.25 1 1 1 1.5 1.75 8 2 8 1.25 4 1.5 4 1.5 4 1.75 3.75 3.25 7.25 3.5 7 3.75 7.25z"/>
  <path style="fill:#006bb6;fill-rule:evenodd" transform="matrix(1.06543 0 0 1.1427 3.8546377 23.85260244)" d="M34 85.25v.25l-.5.25-.25-.25v-.25l.25-.25h.25l.25.25z"/>
  <path style="fill-rule:evenodd;stroke:#000;stroke-width:.21600001;stroke-miterlimit:2.61310005" stroke-miterlimit="2.6131" transform="matrix(1.06543 0 0 1.1427 3.8546377 23.85260244)" d="m342.75 85.5.25-.25.25.25h-.5z"/>
  <path style="fill:#fff200;fill-rule:evenodd;stroke:#006bb6;stroke-width:.2001;stroke-miterlimit:2.61310005" stroke-miterlimit="2.6131" transform="matrix(1.06543 0 0 1.1427 3.8546377 23.85260244)" d="m296.25 143.25-4 .5-3 .75-2.75.5-5.75 1.75-2.75.75-3.25.75-3.25.5H268l-4-.5-3.75-1-3.75-.75-3.5-1.25-3.5-1.25-3.25-1.5-3.5-1.75-3.5-1.75-5.25-2.5-5.25-2.25-5.5-1.75-3-.75-2.75-.5 2.25-1 3.25-.75 5.5-1.75 1.75.25 1.25.5 1.25.5 1 .75 2.25 1.5 1.25.75 1.75.75 11.25 5L262.5 143l2.5.75 3 .5h2.5l2.5.25 2.25-.25 2.25-.25 5-1 5.5-1.5 2.75-.5 2.5-.25h2.25l2.25.25 4.5 1 5 1.25L303 143h-3.25z"/>
  <path style="fill:#006bb6;fill-rule:evenodd" transform="matrix(1.06543 0 0 1.1427 3.8546377 23.85260244)" d="m201.75 175 .75-.25 1-.25.5-1v-1.75l-.5-1 .5-.5h.5l.25.5.5.75.5.5v1.75l-.5.75-.5.75-1.5 1-1 .25-1-.25h-.5l-.25-.25-.75-.5-.25-.75-.25-.25.25-.5.5-.25.25.25.5.5.5.25zM144.5 176.25h-.25l-.25.25-1.5-1-.75-.75-.25-1v-1.25l.75-1 .25-.25.75-.25h1l-.25.5-.5.25-.25.25-.25.5.25 1.25.25.5.5.25h1.25l.5-.25.5-.5h.25l.25.25.25.5-.25.75-.5.5-.75.5-.5.25zM225.75 274l1.75 1.5 1.5 1.25 1.5.75 1.5.5 1.25.5.5.25v.25h-.25l-.75-.25-1.75-.5-1-.5-1.75-1-2-1.25-2-1.75-1-1-1-1-.75-.75v-.25h.5l1.25.75.75.75.5.75 1.25 1zM235 277.25l-3.75-2.25-2-1.75-2-2-1.5-2v-.5l.75.5.75.75 1 1.5 1 .75 1.5 1.75 1 .5 1.25.5 1 .5.75.5.25 1.25z"/>
  <path style="fill:#fff200;fill-rule:evenodd" transform="matrix(1.06543 0 0 1.1427 3.8546377 23.85260244)" d="m238.25 276.5.5.75.25.5v.5l-.5.25-1-.75-1-.75-1-.75-1.25-.5-1.5-.75-.5-.5v-.25l-.5-1-.5-1.5v-2.25l1.5 1.75 1.75 2 3.75 3.25zM109.25 291.5V288l.25-1.25.5-.75.5-.75v-3.75l.25-.75.25-1-.25-2.5v-1L111 275l.5-.75.5-.5.75-.25h1.75l.75.5.25.75-.25 1-.75 1.5-1.25 1.25-1 1.25-.5 1V283l.5 1.75.25 1.5.5.75v.25l-.25.25-.75 1.5-1 1.5-1.5 2.75-.5-.25v-.5zM109.25 277v.5l.25 1v3.25L109 283l-.5 1.25-.5 1.25-.75 1-1 1-.75 1-.75.25-.5.25-.75.25-.75.25-1.5.25v-.25L103 286l1.75-3.5 2-3L108 278l1.25-1.5zM239.5 281.75l-2.25-1-1.25-.5-1-.75-.75-.5-.75-.5-1.25-.5-.5-.5-.25-.5v-.25l.75-.25.75-.25 2 1 4.75 2.75.25.5v.5l-.25.5v.25zM132.75 295.25V293l.25-1-.25-.5-.25-.5.25-.75.75-.25.25-.5.25-.5v-.25l.5-.75.75-5-.5-.75-.25-.75v-2.25l.5-.5 1.25-.5.5.25.25.25.25.25-.75 2.5-.75 2.5-.75 2.25-.5 2.75v1.5l.25.75.25.75-.5 1-.25 1-.5.75-.5 1v.5l-.25.25-.25.5.25.25-.25.25-.25-1.25v-.5zM161.25 290.5l.25-1.25-.25-1.25-.5-1-.25-1v-1.25l.5-1.5.5-.5.75-.5h.5l.5.25.75.75.25 1.5-.25 1.5-.75 1.5-.75 1.5-.25 2.25v1.25l.5 1.25-.5 1-.5.75-.5.75-.5 1v-1l-.5-1v-1l.25-.5.25-.5.5-1v-1zM188.75 284.25l.5.25.5.25.5.25v2.25l-.5 1.25-.75 1-.5.25-.25.5-.5 1V289l-.75-.5.25-.5v-2.25l.25-.75.25-.5.5-.25zM198.75 310.75l.25-.5 2.5-.75 2.5-1.25 2-1.5 2-1.75 2-2 1.25-2.25 1.25-2.5.5-2.5v-.5l.25-.5.5-1 .25-1v-.5l-.5-.5-.25-.75-.25-.5-.25-.75-.25-.75.5-1.5.5-.75.25-.25h.25l.75-.25.75.25.5.5-.25.5v.5l-2.5 8.75-2.75 8.75-2.5 8.75-1 4.5-.75 4.5V326l.5 3-1.5-2-1.5-2-1.25-2.25-1.5-2-.25-1-.75-1.25-1.25-4 .25-1.75v-1l-.25-.5z"/>
  <path style="fill:#fff200;fill-rule:evenodd" transform="matrix(1.06543 0 0 1.1427 3.8546377 23.85260244)" d="m109.5 297.25.5-1.5 1-1.25 1.5-2.5.75-1.25 1-1.25 1 1.5 1.5 1 1.25 1.25 1.5.75.25.5h1.5l-.5 2-.25.75-.25 1-.25.5-.25.75-.25.75v.75l-.25 1-.25.75-.25.25-.25.5-.5.75-.25 1-.75 2.25-1 1.25-1 1.5-.75 1.25-.75 1.25-1.75.75-1.5.5-1.75.25-1.75.25-1.5-.25-1.75-.25-1.5-.75-1.5-.75-1-1-.75-.75-.5-1-.25-1-.5-2.25v-2.25l.25-2.25.5-2 1-4.25 1.25-4.25 3.5-.75 1.75-.5.75-.5.75-.75.25 1v4.25l-.25 1.25-.25 1.5.25.25v.5l-.25.5-.25.75v.5l.25.25v1l-.25 1v.75l.25 1 .5-.25.25-.25.25-1v-1l.5-.75zM136.25 295l.5.75.75 1.25 1.5 1 1 1.25 1 1.25 1.25 1 .75 1.5 1 1 .5 1.5.25.5-.25 1-1.5 3.75-1 1.75-.5.75-.75.5-.25 1.25-.5.75-.75.75-.75.5-2 1.25-1.75.75-1.5.25H130l-1.75-.25-1.5-.5-1.25-.75-1.5-1-1-1-1.5-2-1-2-.5-2.25-.25-1.25.25-1 .25-2 .25-2 1.25-4 .25-.25.25-.5v-.5l.5-.5.25-.75.25-.75.5-.5v-.75l1-.5h1L127 294l1-.5 1.25-.75 1-.25.5.75v.75l.25 1 .25.75v.75l-.25.5-.25.25.25.75.25 3-.25 1.75v1.75l.5.25.25-.25.25-.25.25-.75.25-1 .5-.75 1.25-3.5.5-1.75 1-1.75zM187.75 301l-1 2h-.25v-3.25l.25-1.25.25-.75.5-.5.25.25h.25l-.25-.25v-.5l.25-.75.25 1.5.5 1.5zM163 298l.25-.25v-.25l.25-.25 1 2 1.25 1.75.5.75.5.75 1.25 1 1.25 1 .5.5v.75l.75.25.25.75-.25.5v.75l.25 1.5-1 3.75-.5 1.75-1 1.5-1.5 1.5-1.75 1-2 1-2 .75-.5-.25h-.5l-.5.25h-.5l-1.75-.25-1.75-.5-1.5-.5-1.5-1-1.5-.75-.75-.75-.5-.75L149 315l-.5-1-.5-2-.25-2v-2.25l-.25-2.25.75-1.25.75-.25 1-.25 1.5-.75 3-2 2.5-1.75 1-1 .75-1.25.25 1.25v1.5l.25 1.5.25 1.5-.25 1.75v2l.25.5v.75l-.25 1-.25.75v.5l.5.5.5-.75.25-.75v-2l.25-2.25.25-.75.75-1v-1.25l.5-1.25.75-2.5zM305.5 296.5v4l-.25 4.25-.25 2-.75 2-.75 1.75-1.5 1.5-3.25 4.5v-3l-.25-3V309l-.25-1.25-.5-1.5v-1.5l1.5-2.25 1.75-2.25 2-2 2.25-1.75h.25z"/>
  <path style="fill:#fff200;fill-rule:evenodd" transform="matrix(1.06543 0 0 1.1427 3.8546377 23.85260244)" d="M187 308.25v-1.75l.5-1.5 1-1.5.25-1.25.75-.75 1 1.75L192 305l1.5 1.75 1.75 1.75.25.25.25.25.5 1.25.5 1L197 314v1.25l-.5 1.5-.5 1.5-.75 1.25-.75 1.25-1 1.25-1.25 1-1.25.75-1 .5-1.25.25-2.25.5-2.5-.25-2.25-.25-1.5-.5-1.25-.75-1.25-1-1-1-1-1L175 319l-.75-1.5-.25-1.5-.25-.75-.25-.75v-3.75l.5-1.75.25-.75.5-.75 2-.75 2-1 2-1.25 2-1.25.5-.25.25-.25.75-1 .5-.25h.25l.25.25v5.5L185 309l.25.25-.25.25v.25l.25.25v1.75l.25.75.25.25.5.25.25-.5v-.25l-.25-.5.5-.25-.25-1.75zM146 312.75v.5l-.25.5-.75.75-.5.75v-.75l-.25-.75V313l.5-1.75.75-1.5.75-1.75-.25 1v3.25zM89.5 332.75v-1.25.25l.25-1.25.75-3 1.25-3.75 2.75-6.5 1.5-4 .75-1.25.75-.75 2.25 2 3 2-.5 1-.25 1.25-.25 1.25-.5 1-.25 1-.5 1.25-1.5 2.25-2 2.75-.75.5-.5.5-3 2.5-3.25 2.25zM109.5 332.25l-.75-.5-1-.5-.5-.75-1-.75-.75-1-.75-1-.5-1.25-.5-1.5-.5-1.75v-1.75l.25-1.5.25-2 .75-1.75h6l1-.25.75-.5.25 3.75-.25 4-.25.5v.5l.5 1.25h.25l.25-.25v-1l.25-.5.5-1.5.75-1.5.75-1.5.75-1.75.75-1.25.5-1.25.75-1.25.75-1.25 1.25 2 .5 1.25 1 .75 1.25 1.5 1.5 1 1.5 1 1.75.75-.5 3-.75 3-1.75 2.5-1 1.25-.75.5-.75.25-1.25.75-1.25.75-1.5.5-1.5.25-1.5.25-1.75-.25-1.5-.25-1.5-.5z"/>
  <path style="fill:#fff200;fill-rule:evenodd" transform="matrix(1.06543 0 0 1.1427 3.8546377 23.85260244)" d="m115 316.5-.25.75-.25.75-1 1.25V318l.5-1.25.25-1 .25-1.25 1.5-2.5 1.25-1.5.75-.75-1.25 3.5L116 315l-1 1.5zM172 319.5l-.5.75-.5.75-.25.75v1.5l-.25.5-.5-1.25-.25-1.25V319l-.25-.75v-.5l.25-.5.5-1 .75-1 .25-.5.25-.5.5 1.75v1.75zM150.75 320l2 1.25 1.25.5 1 .5.25 1.75-.25 2-.25 3.75-.75 1.75-1 1.5-1.25 1.5-1.25 1.25-1.5 1-1.5.75-1.75.5-1.75.25h-3.5l-1.75-.5L137 337l-1.5-1-1.5-1-1.25-1.25-1-1.5-.5-1L131 330l-.25-.75-.25-1V326h-.25l.25-.25-.25-.5v-1.75l.25-.5v-.5l.25-.75.25-.5h1.5l1.25-.25 1.5-.25 1.25-.25 1.25-.75L139 319l1-1 1-1 1.5-2v3.25l-.25 1.75-.5 1.5-.75 4-.5 3.75h.75l.5-2.25.75-1.75.75-2 .5-2.25 1.25-2.25 1.25-2.25h.5v-.25l1 1 1 1 1 .75 1 1z"/>
  <path style="fill:#fff200;fill-rule:evenodd" transform="matrix(1.06543 0 0 1.1427 3.8546377 23.85260244)" d="m171.25 325 .75-2.75.5-1.25.75-1 2.75 3.5.75.5.75.75 1.75.75 2 .75.25 1.75v1.75l-.25 1.75-.75 1.75-.75 1.75-.75 1.5-1.25 1.25-1.5 1.25-1.25.75-1.5.5-1.75.5-1.5.25H167l-1.75-.5-1.5-.5-1.25-.75-1.25-1-1.25-1-1-1.25-.75-1.5-.5-1.25-.5-1.5-.25-1.5V327l.25-.75-.25-.5.75-3.25H160l2.25-.25 2-.75 1.75-1 .75-.25.5-.25.25-.5.5-.25.5 1.25.25 1.25v1.5l.25 1.25v1.75l.25 1-.25.5-.25.5.25.75v1l-.25 1v1l.5-.75.5-1v-1.75l.5-2 .25-.75zM183.75 336.75l-.5-1-.25-1.25-.25-.25V334l-.25-1 .5-1.25.25-.75-.25-.75.25-.5v-3l1.25.25h1.25l2.5-.25 2.25-.75 2.25-1.25.25 1.5v.5l.25.75-.5 3v3h.25l.25.25v.5l.25.25h.5l.25-2.75.5-2.75 1-3.5 1.25-3.25.25-.75.25-.75.5-.75v-.75l1.25 2.75 1.5 3 1.25 1.5 1 1.5-.25 2-.5 2-.75 1.75-.75 2-1.25 1.5-1.25 1.75-1.25 1.25-1.5 1.5-1.75.75-.75.25-.75-.25h-1.5L189 342l-2-1.5-1.75-1.75z"/>
  <path style="fill:#fff200;fill-rule:evenodd" transform="matrix(1.06543 0 0 1.1427 3.8546377 23.85260244)" d="m195 324 .25-1 .25-.75.5-1-.5 1.75-.25 1-.5.75zM100 328.75v-1l.25-1.25.5-.75.5-.75.75 1.25.25 1.25.25.5-2.25 4.25-.25-.5v-.5zM129.25 330.75l-1.25 2.5-1 2.75-.25-.75v-1l.25-1-.25-.75v-1l-.25-.75v-1.25l.25-.5.75-.5.5-.75.25-1 .5-.5v2.25l.5 2.25z"/>
  <path style="fill:#fff200;fill-rule:evenodd" transform="matrix(1.06543 0 0 1.1427 3.8546377 23.85260244)" d="m101 336 .5-1.5.5-1.25 1.75-2.75 1 .5.75 1 .75.75.25.25.5.25 1.25.75 1.5.75 1.5.5 1.5.25v3.25l-.5 1.5L112 342l-.75 2-.75 1.75-1 2-1.25 1.5-1.25 1.5-1.75 1.25-1.75 1-2 .5-1.25.25h-2.5l-1-.25-2.5-.75-2-1-.5-.25-.25-.5-.25-1-.5-1-.5-.75-.75-4-.25-1.75v-2l-.25-1 .25-1 .5-2H90v-.75l1.75-1 1.5-1 2.25-2 2-2.5.5.25-.25 8.25-.25 3.75-.25 4-.25.75v1.5l.25.25.25.25.5-2 .25-2 .25-1 .25-1.5.75-1v-1l.25-1.25.5-1 .25-.75zM156 333.5l.25.5v.5l-.5 1.25v.5l-.5.25-1 2.5-.25-1v-1l.25-1.25V334l.5-.75.75-1.25.25.25.25.25v1zM127.75 339.25l.25-.5v-.25l.25-1 .5-1 .5-.75.5-1 .25-1h.5v-.5h.25L132 335l1.5 1.5 1.5 1.25 2 1 .5.5h.75l.5 1.25v2.75l-.25 1.5-.25 1.25-.75 1.25-1.25 2.25-1.25 1.25-1.25 1-1.25.75-1.5.75-1.5.5-1.5.25-1.5.25h-1.75l-.25-.25h-1l-1.25-.5-1.25-.5-1.25-.5-1.25-.75-2-2-1.5-2.5-.5-1.25-.25-1-.25-1v-3.25l.5-2 .5-2 .25-.75v-.25l.5-.25h.25l1 .25h1l3.25-1.5 1.75-.75 1.25-1.25.5.5.25.5v.75l.25.5v1.75l.25.75v1l-.25 5.5.25 5.5.25.25h.25v-2.75l.25-1.25.5-1.25.5-3.5.25-.25v-.75l.25-.25zM180.75 336.75l.25-.5.25-.5.75 1.25.25.5v.75l-1.25 2.5-.25-1v-3z"/>
  <path style="fill:#fff200;fill-rule:evenodd" transform="matrix(1.06543 0 0 1.1427 3.8546377 23.85260244)" d="m154.75 342 .75-1.25.75-1.5.75-1.25 1-1 1.5 1.75 2 1.5 2.25 1.25 2.25.75.25 1.75v1.75l-.25 2-.75 1.75-.75 1.25-1 1.5-1 1-1.25 1-1.25 1-1.5.5-1.5.5-1.75.25-3.5-.25-1.75-.5-1.5-.5-1.5-.75-1.5-1-1.25-1.5-1-1.5-1-2.25-.75-2.5v-1.5l.25-1.5 1-2.75H144l1.25-.25 2.5-.5 2-1.25 2.25-1.5h.25l-.25.75v.5l.5 1.25.25 1.5v1.25l.25 1-.25 1.25v1.25l-.25 1-.25 2v1l.25.75h.25l.25-.25.25-.5.25-1.75.25-1.75zM182.75 341l.25-.75.25-.25.25-.25 1.75 1.5 2 1.5 1 .75 1 .25 1.25.5h1.25l-.25 2.25-.25 2.5-.5 2.25-.5 1.25-.75 1-1.5 1.5-1.75 1.5-2 .75-2.25.5-.5.25h-2.25l-2.5-.5-1.75-1-2-1-1.5-1-.75-1-.75-1h.25l-.75-.75-.75-1-.75-2V346l.25-2.5-.25-.75h3l1.25-.25 1.5-.5 2.75-1.25L179 339l.25 1.25V347l-.25 2 .25.5.25.5.5-.25.25-.25.25-.75V348l.25-.75v-1l.25-.5.5-1.5.5-1.75zM191 354.5l.75-1 .25-1.25 1-3 .5-1.5.25-1.75v-1.25l1.75-.5.75-1 1-.5-.5 4.5-.5 4.5-1 4.25-1 4.25-.25.75v.75l-.25 1v.75l-1.5-1.25-.5-.75-.25-.75-.75-.75-.25-.75-.25-.75v-.75L190 357l-.5-.75zM112.5 350.25v-.75l-.25-1.5.25-.5-.25-.5v-1.25h.5l.5 1.25v1.25l-.25 1.25-.25 1.25zM140.75 349.75l.25.5v.25l-.25.75-.25.75-.25.25.25.5-.25.5-.25.25-.25.25-.25-.25.25-1.25-.25-1v-.75l.5-1v-2.75l.5 1.5.25 1.5zM92 355.25l.5-.25 1.25.75 1.5.25 3 .5.25.25-.25.25.25.5v5.25l-.25 2-.75 2.25-.75 2-1.25 1.75-1.25 1.75-1.75 1.25-1.5.25-.5-.25-.75-.25-1.75-3.25-.25-.75-.25-.75-.25-1.25-.5-3.75-.25-3.75v-3.75l.5-2 .5-1.75v-1l.25-1.25.5-1.75.5 1 .75 1.25-.75 4-.25 4-.25 4 .5 4 .5.25.25-.25.25-.5.5-.25v-4.75l.25-.75.25-2 .5-2 .25-.5.25-.5z"/>
  <path style="fill:#fff200;fill-rule:evenodd" transform="matrix(1.06543 0 0 1.1427 3.8546377 23.85260244)" d="m112.75 358 .25-.5v-1l.75-3 .75-3 .5.25.5.5 1 1.25 2 1.25 1.75 1 2 .75 2.25.5.5 1 .25 1.25.25 2.25-.5 2.5-.25 1-.5 1-1 1.5-1 1.5-1.5 1.5-1.5 1-1.5.75-1.75.75-2 .25-1.75.25-1.75-.25-1.5-.5-1.5-.5-1.5-.75-1.25-1-1.25-1.25-1-1.25-.75-1.5-.5-1-.25-1.25-.25-2.25.25-2.25.5-2.25.25-.25.25-.25.25-.5.5-.25 1.25-.5 1.5-.5 1.5-.75 1.5-1 1.25-1.25.25-1 .25.5.5.75v1.5l.25 1.75v1.5l.25 1.5-.25.5-.25.5.25 1v5.75h.5l.25-.25.25-.5v-3.25l.25-1.5.5-1.5zM140 361v-.75l.5-1.25v-1.75l.25-1.5.75-1.5 1.25-1.25.75 1 1 .75 2.25 1.75 2.75 1 2.5.75.5 1.25.25 1.25v1l-.25 1.25-.75 2.5-1 2.25-1 1.5-1.25 1.25-1.25 1-1.5.75-1.75.75-1.75.5h-1.75l-1.75.25v-.25h-.25l-.25.25-1.75-.5-1.5-.5-1.5-1-1.25-1-1.25-1-1-1.25-1-1.5-.75-1.5-.5-2.5v-1.25l.25-1.25v-1l.25-1 .25-1 .5-1h.25l-.25-.5 2.25-.75 2-1 2-1.5 2-1.75.5 2.5.5 2.5.5 2.75-.25 2.5.25.75v4.5l.5.75.25-.5v-3l.25-1v-.25l.25-.25v-.5l.25-.25zM261 355.25l-.25.25v1l-1 2.25-1 2-1-.75-1.25-.5-1-.5-1.25-.25v-2.25l.5-1.5.75-1.5 1-1 1.5-.75 1-.25 1.25-.25 1 .25 1.25.25 1 .5 1 .5 1 .75.75.75.75 1.75.25 2v1l-.25.75-.25 1-.5.75-1.25-.25h-1.25l-1.25.25-1 .5-.25-.5.25-.5.25-.75.25-1.5-.25-1-.25-2.5h-.5zM169.75 355.5l1.25 1.25 1.25 1 1.5.75 1.5.75 2 .5 1 .25h1l.25 1.75.25 1.75v1.75l-.5 1.5-.5 1.75-.75 1.5-1 1.5-1 1.25-2.25 1.5-2.25 1.25-2.5.75-2.5.25-2.5-.75-2.25-1-2-1.25-2-1.75-.5-1-.25-1.25-.25.5-.75-1.25-.5-1.5-.25-1.25v-3l.25-1.25.25-1.5.5-1.25h.25l.25-.25v-.5l.25-.25h1.25l.5-.5 1.5-.5 1.75-1 1.5-1.25 1.5-1.5h.25l.25 1.75v6l.5 2.5.25 2.5.25-.5.25-.5.25-.75.25-.5V362l.5-1.5.75-1.75.25-1.5.5-.5v-.5l.25-.25.25-.5z"/>
  <path style="fill:#fff200;fill-rule:evenodd" transform="matrix(1.06543 0 0 1.1427 3.8546377 23.85260244)" d="m167.75 356.25-.5 1.5v-.25l.25-.5v-.25l-.25-.25v-.75l.25-.5.25-.75-.25-.75v.25l.25.25.25.5v.75zM274 356.25h-.25l-.25.25-.25.5-.25.75v.5l-1.5 3L270 364l-.5-.5-.5-.75-.75-.75-.75-.25 1.5-4.25.25-.25v-.75l.5-.75.75-.5.75-.25.75-.5 1-.5h1.25l2.25.25 1.25 1.25.75 1.5.5 1.5v1.5l-.5 2.5-.25 1-.75 1-1-.25h-1.25l-2.25.5.25-1.5.25-1.25.5-2 .25-2v-.5l.25-.5v-.5zM181.25 369.25l-.25-.5-.25-.75v-.5l.5-.75.25-.5V365l.25-.5-.25-.25v-.75l.25-.5v-.25l-.25-.25v-1.75l.25-.5-.25-.25 1.75-.5 1.75-.5 1.5-.75 1.5-1v1l-.25 1.25v5.5l.25 3 .5 2.5.25 1.75.5 1.5.5 1.75v1.5l-1.75-.5-1.5-1-1.5-1-1-1.25-.5-.25v-.25l-.25-.5-.25-.5-.25-.25h-.25l-.75-1.25zM259.25 362v-1l.5-.75.5-.5.25-.5.25-.5V360l-.25 1-.5 2.25-.5-.25v-.5l-.25-.5zM284 364.5l.25-.5v-1.25l.25-.5-.25-.5H284l-.5.25-.25.25V364l-.25.5v.25l-1 2-1 2-.75-1.75-1-1.25-.25-.25-.25-.5.25-.5.25-.5.5-1 .5-1.25.75-1.25 1-.25.75-.5 2-.25h1.75l1 .25.75.25.75.75.75.75v2.75l-.25 1.5-.5 1.5-.5.5-.25.75-.25.75-.5.75-1-.5h-3.25l.25-1.5.25-1v-2l.25-.5zM254.25 363.5v-.5l.25-.5-.25-.5-.5-.25-.25.25-.5 1.5-.75 1.25-1.5 2.75-3 1-.5-.75.25-1 .25-.75.25-1 .75-1.75 1.25-1.75.5-.75 1-.5.75-.5h2.5l1 .5 1 .75.75 1 .75 2.25-.25 1.25-.25.5-.5.5-.25 1-.25 1h-.25l-.5-.25-.25-.5-.5-.25h-1.5v-.5l.25-.75v-.75l.25-.75V364z"/>
  <path style="fill:#fff200;fill-rule:evenodd" transform="matrix(1.06543 0 0 1.1427 3.8546377 23.85260244)" d="M270.25 366.25v-.75l.25-.75.75-1.25 1.5-2.5-.25 1.5-.25 1.5-.75 1.25-.5.75zM190 362.5l-.25 2.75-.5 2.75-.25-1.5V362l.25-.25h.25zM262.5 367.75l-.5 1-1.25 2.5-.5 1.25-1 1-.25-1-.25-1-.75-2.25.5-1.75.25-1 .75-.75.25-.75.75-.75 1.25-1h3.5l1.5.5.75.25.75.75.25.75.5 1v2.25l-.5 2-.75 2-1.25-.25h-2l-1-.5.5-1.5.25-1.5.25-1.75-.25-1.75v-.5H264l-.25-.25-.5.75-.5 1.25zM104.75 382v-3.75l.25-1V376l.25-1.25.25-1.25.75-1 .5.25.5.25 1.25.5 3.75.75H116l.25.75.25 1 .25 2v2.75l-.25 1.25-.25 1.25-.5 1.25-.5 1.25-1 1-1 .75-2.5 1-2.5.75h-2.75l-1.25-.25-1.25-.5-1.75-1-1.75-1.25-1.25-1.25-1-1.75-.5-.5v-1.5l-.5-.5.25-.5v-.75l-.25-.5v-5.75l.25-.75.5-.75.75-.75.75-1.25.5-1.25.25-1.25.5-1.25v-1l.5 1.75.5.75.75.75-.25.5.25.75.25 1 .25 1.25v.5l-.25.5.5.5.25.5.25 1.5.25 2.75.5 3 .25 1.25.5 1.25h.5l.25-.25v-1l-.25-.25zM275.25 372.25l.25-1.5.25-1.5-.5-.25-.25.25-.25.25-.25.5v.75l-.25.5-.25.25-2.75 4.5-.75-.5-.5-.75-.5-.75-.5-.5.25-1.25v-.75l.5-.5v-1.25l.75-.75.75-.75.5-.5V367l.75-.5 1-.5 1.25-.25 1-.25 1.75.25.5.5.75.5.25 1.5V370l-.25 1.5-.75 1.25-.5.5v1l-.25.25-.5 1.5-.5 1.25h-.75l-.5.25-1.5.75.25-.75.25-1 .5-1.5.25-1.25zM289 370.25l.75-1 .75-1 .75-.75 1-.75 1.25-.5 1.25-.5H296l1.25.25-.25.5-.75.5-.5.25-.5.5-.5.75-.75.5-.5.75-.5.75-.75.75-.5.75-.75 1-.75.75v-.5L290 373l-.25-.25v-.5l-.75-1-.25-.25zM252.75 366.75v.75h-.25l-.25-.25.5-1.25zM282.75 367l-.25 1-.25 1-.5 1-.75.5v-1l.5-.75.75-.75.5-1zM129.75 377.25 130 376l.25-.5v-.25l.25-1V373l.5-.5v-.25l1.75 1 2 1.25 1.75.5 1.75.5H140l2-.25v3l-.5 2.75-.75 2.5-1 2.75-.75 1-1 1-.75.75-1.25.75-1 .5-1.25.5h-1.25l-1.25.25-1.25-.5h-1.5l-1.25-.25-1.5-.5-1.75-1.25-1-.75-.5-1-1-1-.75-1-.75-1.25-.25-1.25-.75-2.75V377l-.25-1.75v-2l2.5-.75 2-1.5 1.5-1.75.75-1 .5-1 .5 1 .25 1v2l.25 2.25v1l.5.75v2l.25 1v1l.5 1v2.25l.25.5.25.5.25-.25.25-.25-.25-1 .25-.25.25-.5V379l.25-.5zM292.25 373.25l2.5-3 2.75-2.75-.25.75L294 372l-3.25 4-.25-.5.25-.25.5-.75.75-.5z"/>
  <path style="fill:#fff200;fill-rule:evenodd" transform="matrix(1.06543 0 0 1.1427 3.8546377 23.85260244)" d="m261.75 371.75.25-.5.25-1 .5-.75.25-.75-.25 1.25v1.5l-.25.5-.25.75-.5.25-.75.25v-.75l.5-.5zM156.25 376.75l.25-.75v-.75l.25-.75v-1l.5.25.5.25 1 1 1.5 1.25 1.75.75 2 .75 1.75.25.25 1.25v.75l-.25.5v2l-.75 2-1 2-1 1.75-1.5.75-1.5.75-1.5.5-1.5.5h-3.25l-1.5-.5-1.75-.75-1.75-1.25-1.5-1.5-1.25-2-.5-1v-1.25l-.75-1.5-.5-1.75v-2l-.25-1.75h.5v-.25l-.25-.25.25-.25 2-1 2.25-1.25 1.75-1.5.75-1 .75-1 .75 1.25.5 1.25.75 2.75-.25 1 .25 1 .25 1.25-.25 1 .25.5v1.5l.25.5v1.5l.25.75.25.5.25-.75v-1.5l.25-.75v-1.25l.5-1zM252.5 369.5l-.25 1.75-.75 2-1 1.5-1.25 1.5-2 .25-.75.25-1 .5v-.75l-.25-1.25v-1l.25-.5.5-.25v-1.25l.5-.75 1.5-1.25 2.25-.75h2.25zM254.5 370l1 .25.75.5.75.75.5 1 .5 1v1.25l-.25 1-.75 1-.5 1.25-.5 1-.75 1-1-1-.5-.75-.75-.25-.25-.5h-.25l-.25-.25.5-1.75.25-2 .5-4zM129.75 370.75v.5l-.5.25.25-1z"/>
  <path style="fill:#fff200;fill-rule:evenodd" transform="matrix(1.06543 0 0 1.1427 3.8546377 23.85260244)" d="M155.75 371.75v.5l-.25.5-.5.75V372l.25-1.25.25.5zM178.25 376.75v.25l.25-1-.25-.75.5-.5v-.25l-.25-.75-.25-.5.25-.25.25-.5.5-.25.25-.5v-.5l.5-.25-.75 3zM104.5 371.25l-.25 1.75-.25-.5v-.5l.25-.5-.25-.5zM284.25 375.75l.25-.5.5-1.25-.25-.25-.25-.25-.5.25-.75 1.25-.75 1.5-2 2.5-.75-.25-.75-.5-.75-.5-.5-.25-.25-.5v-.25h.25l.25-.25v-.5l.25-.5.25-.25h.25l.75-1.5 1.25-1.25 1.75-.75 1.75-.5h.75l.5.25.75.25h.5l.25-.25.75 1 .5 1 .5 2v2.25l-.25 1-.25 1-1.25 1.75-1.5 2-1.75 1.5-1.75 1.25.5-2.5-.25-1-.5-1.25.5-1.25.5-1.25.5-1.5.5-1.25zM242.25 381.5l-1.25-.25h-1.5l-1.5.25-1.5.25.75-.75.75-1 1.5-1.75 1.5-1.75 1.25-2 .5-1 .5-1 .25 1 .25 1.25V377l-.5 2.5-1 2z"/>
  <path style="fill:#fff200;fill-rule:evenodd" transform="matrix(1.06543 0 0 1.1427 3.8546377 23.85260244)" d="m168.25 386-.25-1.5V383l.25-1.75.25-3.25 2-.25 2-.75 1.75-.75 1.75-1 .25 1.25.25 1.25-.25 2.25-.5 2.25-.25 2.25v1l-.25 1.25-.25 2h.5l.25-.5v-.75l.25-.5.25-.25.25-.25.25-1 .5-1.25.5-1 .5-1.25v-.5l.25-.5.25-.5-.25-.5.5-.25.25-.5.25-1v-1l.25-.5.5-.5.5-1.5.5-1.75h.5l.25.5.5.75 1 1 1 .75 2.25 1.5-.5 2.5-.5 2.5-1 2.5-1.25 2.25-.5 1-.5.75-1.5 1-3.25 1.75-1 .25h-1l-1.75-.25-1.75-.75-1.5-.75-1.25-1.5-.75-1.25zM265.25 376.75v-.5l-.5-.25h-.25l-.75 2-.5 1.75-.75.5-.25.5-.75 1.25-.25.5-.5.25H260l-.75-.25-1.25.5h-.75l-.75.25h-.25v-1l.25-.75.5-1 .25-1 .25-.25.25-.75.5-1.25 1.75-1.5 1.75-1.25 1-.25 1-.25H265l1 .25 1 .5 1 .25 1 .75.75.75.5 1.25v3.5l-.75 2-2.25 4H267l-.25.5v.25h-.5l-.5-1-.5-1.25-.75-1.25-.5-.5-.75-.25 1-3.5zM271.75 378l-.25-.5v-.75l1.25-1.5.5-.5.25-.75-.25 1.25-.25 1.5-1 2.5-.25.25v-.75zM250.75 376.5v-.5l.25-.5.75-1-.25 2.25h-.5l-.25-.25zM89.75 382.75v-1.5l-.25-1.75-.25-2.5.25-2.5.75.75 1.25.25h1.25l1-.5.25-.25.25 1.75v3.25l.25.75.25.5-.25.5v.5l.25 1-.25 3-.5 3.25-.5 1.5-.75 1.25-1 1.25-1.25 1-.25-2.75-.25-3v-2.75l-.25-3zM248.75 380.25l-.25.25-.25.5-.5 1.25-1 1.5-1.25 1.5-1.5-2.5-.25-.5.25-.25.25-.25v-.5l.5-1 .5-1 1-.75 1.25-.5 1.25-.25h1l1 .25 1 .5.75.5.75.75.5.75.25 1v1.25l-.25.5-.5.25.25.5v.5l-.25 1-1.25 1.75-1.25-.25h-1l-1.25.25-1 .25.5-2.25.25-1.25.5-1.25V382l.5-.75v-.75zM281 379.25l.75-.75-.5 1.5-.5-.25zM189.5 383.25v1l-2-1.75.5-.75.25-.75v-.75l-.25-.75.25-.25h.25l.5.25.25 1.5v.75l.25.75v.5zM273.5 390.25l.5-.5.5-.75.5-1 .5-1.75.5-1.75.75-1.75v-.25l-.25-.25-.25.25-.5.5-.5.75-.75 1.5-1 1.25-1 1.25-2.25 2.5-.75-.25-1 .25-1 .25h-.75v-.75l.25-.5.5-1 1-1 .75-1 1.25-2.25.5-1.25.5-1.25h.25l.25-.25.25-.25.25-.25 1.5-.75 1.75-.25h2l.75.25.75.5.5 1.5 1 1 .25.75v.75l-.25 1.25-.25 1-.25 1.25-1.5 1-1.5 1-1.25 1-1 1.5h-.5v-.25l-.25-.5-.5-.5-.25-.25-.25-.5z"/>
  <path style="fill:#fff200;fill-rule:evenodd" transform="matrix(1.06543 0 0 1.1427 3.8546377 23.85260244)" d="m263 382-.5.75-.25-.25v-.25l.5-.75zM144.5 385l-1.25 2.5V382l.5.5.25.75.25 1zM240.25 384.25 239 385.5l-1.25 1-2.5 2.25-.25-1.5-.5-.5-.5-.5 1.25-1.5 1-.75h.75l.75-.75.5-.25.5-.25 1.25.25h1.25l.75.25.5.25.5.5.5.5.5 1.25.25 1.5.25 1.25v.5l-.5.75-.5.5-.25.75-.5.5H242l-.75-.75-.75-.5-2-.75 1-1.75.75-2 .5-.75v-.5l-.5-.25zM182.75 390.75h.75L185 392l.75.75.75.75.5.25.75.25.5.25.25-.25v-.75l-.25-.25-.25-.25v-.25l-1-1-1-1-1.25-2.25.5-1L186 386l.5-1 .5-1.25 1.75 1.5L190 387l.75 2 .25 1v1l-.25 1.25-.25 1-.5 1.25-1 1-1 .5-1.25.25-1.25.25-1.25-.25L183 396l-1-.5-2.25-1.25-.25-.75.25-.75.5-.25.25-.25h.25l.75-.5.5-.5zM119 391.5l-.25-.5v-.5l.25-1V388l-.25-.5v-1l-.25-.75-.25-.75v-1l.5.5.25.5.25.75.25.5.75.75-1.25 4.5zM260.5 387.25l-.25-.25-2 2.25-1 1.25-1 .75-.75-1-.5-.75-1.75-1.75 1.25-1.25 1.5-1 2-.75h1.75l1-.25 1 .25.75.5.75.75.5.75.5 1 .25 1v1l-.25 2-.5 2-.5.25-.25.5-.5.5h-.5l-1.75-1-1-.25h-1l.75-2.25.75-2 .75-1 .25-.5zM101.5 392.75l.25-2 .25-.75 1 .5 1 .25 2 .5.5.25.5.25.25 1V394l.25 1v2l-.5 1.75-.75 1.75-1 1.5-1.75.75-.75.5h-1l-1.5-.5-.75-.5-.5-.5-.5-.5-.5-.25-.5-1-.75-2 .25-.5-.25-.5-.5-1.25V393l-.25-.75v-.75l.25-.75-.25-.5v-.75l.25-1 .25-1v-.5l-.25-.5.5-.5 1.25 1.25.75.5.25.75v3.25l.25 3.25v1.25l.25 1.25.25 1.25-.25 1.25.5.25h.75l.25-.5-.25-.25-.25-.5v-.25l.25-1v-2.25l.25-.75zM166.25 391v-3.75l-.25-1 .25-.25.5 1 .25 1.25-.25 1.5-.5 1.25zM246.5 386.25l-.25.5v-.5l.25-.25v.25zM230.75 387.25v-.75h1.75l.5.75.25 1.75.25 1-.25.75-.5.25-.5.5-1 .75-1-.5-.75-.25-.5-.25-.25-.25.25-.25.5-.75.5-.5.25-.5v-.5l.25-.25.25-.25z"/>
  <path style="fill:#fff200;fill-rule:evenodd" transform="matrix(1.06543 0 0 1.1427 3.8546377 23.85260244)" d="m237.25 389.25-.75.25h-.75l1.5-1.25 1.25-1.25v.75l-.25.5-1 1zM136 402.5l-1-1-.75-1-.5-1-.5-1.25L133 397v-2.75l-.25-.25v-1H134l1-.5 1-.5 1.25-.5 1.25-1 1.25-1 1-1.75.75 2.75.75 2.75-.25 6 .5.5h.25l.25-.25.25-.75.25-.75v-2.25l.25-.5V394l.25-1.25.5-1.5.75-3h.5v-1l1.75 2 2 1.5 1 .75 1.25.5 1.25.25h1.25l-.25 2.25-.5 1-.75.75.5.5-.75 1.75-1.25 1.75-2.5 3-.75.5-.75.5-1.75.25-1.75.25h-3.25l-1.75-.5-.75-.25-1-.75zM224 391l1.5-.75 1.25-1 2.75-1.75-1.5 1.5-2 1.25-3.75 2.5.25-.5.5-.5.5-.25zM271.75 390.5l.25-1 .5-.75 1.5-1.25-.25.75-.5.75-.75 1.5h-.75zM121.75 389l1.75 1.75 2.25 1.25 2.5.5 2.5.25-.25 2-.5 1.75-.5 1.75-1 1.75-1 1.5-1.25 1.25-1.5 1-1.5 1h-4.75l-1.5-.25-1.5-.5-1.25-.75-1.25-.75-1-1.25-2.25-4-.5-3-.25-1.5v-1.5l2.5-1 2.75-1 .5-.25.5-.5 1-.75.5 1.5.25 2 .5 1.75.25.75.25.75.25 2.5v1.25l-.25 1.25.25.75.25.25h.75l.25-.25v-3.75l.75-4 .25-.25V392l-.25-.25.25-.5.5-1 .75-1.25zM247.5 398.5l.25-.5.25-.75.75-1 .5-1 .25-.5V394l1.5-1.75-.25-.25v-.25l-.25-.25-.5.5-.5.5-.25.5-.25.5-1.25 1.5-1.5 1.5-3 2.5H243v-.75l.5-.75v-1.75l-.25-1.5.25-1.5.5-1.5 1.25-1.25 1.5-.75 1.75-.5h1.75l1.75.25.25.25h.5l.25.25.25.5.5.5.25.75.25.75.25.5-.25.75.25.5v.5l-.25.5-.5.75v.5l-.25.75-.5.25-.75 1.5-.75.75-.75.25-1.5-.75-1-.25h-.75zM276 395.75l.25-.25v-.25l-.25-.75-.25-.5.25-.25.5-1 .5-.5 1.25-1.5 3.5-2.25-1.25 2-1.5 1.75-1.25 2L276 396zM177.75 393.5l-.25 1.75-.75 1.75-1.5 3-.25.75-.25.5-1 1-2.25 1.75-.75.5-1 .25-1.75.25-4.5-1.25-2.25-.75-1-.75-.75-.75-.75-.75-.25-.5-.5-.5v-.5l-.25-.25h-.25v-.5l-.5-2.5-.25-1.25.25-1.25v-.5l.25-.75h1.5l1.75-.5 1.5-1 1.25-.75.5-.75.25 1.75.75 1.75.5 1.75v1.75l.25 4.5.25.25h.25l.5-2.25.25-1v-1l.25-1.5.25-.75.25-.75V393l.25-1 1-1.5 1.75 1.5 1 .75 1.25.5 1.25.5h2.5zM184 389.5v.25h-.25v-.5h.25v.25zM227.5 391h-.75l1.5-1.25v.25l-.25.25-.5.75zM188.5 397.75l.75-.25.75.25.5.5.75.5.75.25.75.25.5.5h1l.25-.25-.25-.5-.25-.25-.5-.25-.75-.25-.5-.5-.75-.75-.25-1v-.75l.25-.75.75-1.75.25-1V390l1.5 1.25 1.5 1.5.75 1.75.25 1 .25 1 .25 2-.25 1-.25.75-1 1-1.25.75-1.25.5h-1.25l-1.5-.75-1.75-.75-1.5-.75-1.75-.5v-.5L185 399l-.25-.25v-.25h1.5l1.5-.75zM238.5 394.25l-.25-.25h-.5l-.25.5-.5.75-.5.5-.75.75-.25.25-.25.5-.75.5-.75.75-.75.5-.75.5.75-2.75v-1.25l-.25-1.25-.25-.75v-.25l.25-.25 1.75-1 .75-.5 1-.25 1 .25h1.5l1 .5.5.5.25.75.5.25.5.75.5 1.5-.5 2.25-.25 1.25-.75.75-.25.5-.25.25h-.75l-.75-.75-.5-.25h-.25l-1-.25h-.5l-.5-.25 1.5-2.25 1.25-2.75zM270.75 393l-.5.25-.25.5-.25.25-.75 1.5-1.25 1.5-1.25 1.25-1.5 1.25.25-1-.5-.75-.5-.75-.25-.75.5-1 .75-.75.5-.75.75-.5 1.5-1 1-.5h2l1.25.25.75.5.5.5.25.5.25 1v1.25l-.25 1-.25 1.25-.5 1-.5 1-.75.75-.75.75-1.75-.25-1.75-.25.75-2.25.5-1 .75-1 .75-1 .5-1.25.25-.5.25-1zM257.25 392.25l.25.5-.25.5-.25.5v.5l-.25.25-.25-1.5.75-.75zM225.5 395.25l-.5.25-1 .75-1.25.5-1.5.5-1.25.25-.75-1.5 2.75-2.25 1.75-.5 1.5-.5 1.75-.25h1.5l1.5.75.5 1.25.25 1.25v2.75l-.25.75-.25.75-.5.75-.75.25-1-1-1.25-.5-1.5-.5h-1.5l1-.75 1-.5.75-.75.25-.5.25-.75-.5-.25-.5-.25zM94.5 394.25l.25.5v2l.5.5v1.5l-.5.5-.5-.75-.5-.75-.25-.75-.75-.75-.25-.25v-.25l1-1.25.5-.75.25-.75.25.5v.25zM198.5 396.5l.25-.25-.25-.75-.5-.75-.25-.5v-.75l1.75 1.25 2 .5.5.25h.75l1.5.25H206l3.25-.25-.25.75-.5.5-1.25 1.25-1.5 1-1.5 1-1.25-.75-1.5-.75-1.5-.75-1.5-.5v-.5zM219 394.5h-.25l-.5.25H218l-.25-.25h.75l1-.25zM210 397v-.75l.25-.25v-.75h.5l.5.25h.25l.5-.25h-.25l1.5-.25 1.5-.25 1.5.25.75.5.5.5.5.5.25.75.5 1.5-.5 1-.25.5-.25.25-1.25-.75-1-.5-.25-.25h-.75v-.25l-3-.25H210l-1.25.25.25-.75.5-.5zM259.5 398.5l-1 .5-.5 1-.5 1-.75 1-.75.5-.75.75-.5.75-.75.5-.25-.75v-1l-.25-.5-.5-.5-.25-.5-.25-.5-.25-.5.75-.75.75-1 .75-.75.5-.5h.75v-.5l.75-.5.75-.25 1.75-.5.75.25 1 .25.75.25.5.75 1 2.25-.5 1.75-.5 2-1 2-1.25 1.75-.5 1-.5.25-.5.25h-2.75l-.25.25h-.75l-.25-.25 1.5-2 1.25-2.5 1.5-2.5L260 399l-.25-.5zM170.5 407l2.25-1.5 1.25-.75.75-1h.75l.5.25.25.5.5.25 1 .75 1.25.5 2 1 .25-.25-.75-.5-.5-.75-1-1.25-.75-1.75-1-1.25.5-1 .75-.75.5-1v-1l.25-.25.25-.5v-.5l.25-.25 1.75 1.25 1.25 1.25 1 1.5.75 2 .25 2.25-.25 2-.5 2-.5 1-.5.75-2.5 1-1.25.5-1.5.25h-1.25l-1.5-.25-1.25-.25-1.25-.75-.25-.75-.75-.5-.5-.5-.25-.75h-.25l-.25-.25.25-.75z"/>
  <path style="fill:#fff200;fill-rule:evenodd" transform="matrix(1.06543 0 0 1.1427 3.8546377 23.85260244)" d="m246.75 397.5-.25 1h-1l.75-1 1-.75zM274.75 400.25 273.5 402l-1.25 1.5-.5-1 .75-.5.75-.25 1-1.25.75-1.5.75-1.75 1-.5zM219.5 398.75l.5-.25h.75l.75-.25 1-.25 1.25-.25-1 .75-1 .5-1.25.5h-1v-.5zM135.75 404.75v-.25l2.5 1.25 1.5.5 1.5.5h2l2-.25.25 1.25-.25 1.25-.25 1-.75 1-.75 1.75-1.25 1.5-1.5 1.5-1.5 1.25-.75.5-1 .5-1 .25h-4L131 418l-1.25-.5-1.25-1-1.25-1-1-1.25-.75-1.25-.75-1.25-.5-1.5-.25-1-.25-1v-2l2-1 1.75-1.25 1.75-1.75.5-.75.5-1.25 1-2.25.25.25v.5l-.25.75.5 1v1.25l.5 1.75.5 3 .5 3 .5 3 .5 1.5.25 1.5.25.25.25-2 .25-1.25v-1l.25-1.5v-4.5l.25-.25V405zM233.5 399.75l1.75-1.75-.25.75-.5.75-.5.5h-.25zM167.75 406.5v1.25l-.25 1.5-.5 1.25-.5 1.25L165 414l-2 1.75-1.75.75-1.75.5h-1.75l-2-.25-2.25-.75-2-1.25-1-.75-.75-.75-.75-1-.5-1-.25-.5v-.5L148 409v-.75l-.25-.75v-1.75l.75-.25.75-.5 1.5-1.25 1-1.25L153 401l.25-.5.25-.25.25-.5v-.5l.25-.25.5 3.25 1 3.25.75 3.5v3.5l.5.5h.75l.25-3.25v-3L158 405v-1.75l.5-.5 2.75 1.5 1.25.75 1.25.75h1l1 .5 1 .25h.5zM195 406.5l-.5-.25-.25-.25-.25-.5-.25-.25 1.5.25 1.5.5 1.5.5h1.5l1.5.25.5.25.5-.5v-.5l-2.75-1.25-1.25-.75-1.25-.75-.5-.5.5-.25.25-.5.25-.5.75-1.25.25-.75v-.5l1.25.25 1.25.75 1.25.75.75 1.25.5.25.25.5.25 1v.75l.25.75v3.25l-.75.75-1.75 1.25-1.75.75-2 .25-1-.25-1.25-.25-.25-2v-2z"/>
  <path style="fill:#fff200;fill-rule:evenodd" transform="matrix(1.06543 0 0 1.1427 3.8546377 23.85260244)" d="M156.5 402.25V401l-.25-.75-.25-.5.25-.25.5.25.25.5v1l-.25 1.25v1.75l-.25.25-.25-1zM266 401l-.5.25-.5.25h-.25l-.25-.5 2-1.5v.75l-.5.75zM248.25 405.5l.5-.75 1-1.75-.25-.5-.25-.25-.25.25-.25.25-.5.5-2.5 2.75-1.5 1.25-1.5 1-.75.75.5-2.25v-1l-.25-1-.25-1.25-.25-.75.25-.75 1-1 1.5-.5 1.5-.5h1.5l1.5.25 1.25.5 1 1L252 403l.5 1.5v1.75l-.25 2-.5 1.5-.5.5-.75.75-.5.5-.75.25-1.75-1-1-.5-1.25-.25.25-.75.5-.75.5-.5.5-.75.25-.5.25-.75zM121.75 406.75l.25 1.75v2l-.25 1.75-.25 1.75-.5 1.75-1 1.5-1 1.25-1.5 1-1.75.5H114l-1.75-.5-1.5-.75-1.5-1.25-1-1.25-1-1.5-.5-1.5-.5-1.5-.5-1.5-.5-3.5.25-.25.25-.25-.25-.25v-.75l-.25-.25.25-.5v-.5l.25-.25.5-.5 1.25-1.5 1-1.75.75.5.25.75.5.75.5.5.25 1.75.25 1.5.5 3.5.25 3.25.25 1.5.25 1.5h.75l.25-.5v-.5l.25-.5v-3l.5-1.5.75-1.5.25-1 .5-1 3 .5 1.75.25zM213 412.75l-.75-2.5-.75-1-.75-1h.25l.75-.25h.5l.75-.25 1.75-1 1.25-1.25h.25v-.5l-.5-.5-.5.25-1 .5-1.75.25h-5.75l-.25-.75-.5-.5-.25-.5.25-.5-.25-.5-.25-.5-.25-.5-.5-.25.25-.25h1l1.5-.75 2-.5h1.75l2 .25 1 .25 1 .5 1 .5.75.75.75 1 .25 1.25.75 2.25-.25.25v.25l.25.75.25.5-.25.25-.25.5-.25.75-.25.5-1.5 1-1.5 1-.75.5-.5.75-.5-.5-.25-.25v-.25zM220 409.75l1-.25 1-.25 1-.5 1-.75 1.5-1.5 1.75-1.25-.25-.5-.25-.25-1.75.5-1.5.5-1.5.75-1.75.5v-1.5L220 404l-.5-1.25-.75-1 1-.5h1l1.75-.5h3.5l.75.25 1 .5 1 1.5.75 2 .25 1.75-.25 2-.25.75-.25.5-.75 1.25-1.25 1-1.25.75H225l-.5-.5-.75-.75-.25-.25-.5-.25-.75-.25-.75-.25-.75-.25-.75-.25zM238 406l.25-.5-.75-.25-.5.25-1.25.5-1 .75-1 .75-.5.25h-.5l-.75.25-.5-.75v-.5l-.75-3.5.5-.25.5-.5 1-.25 1.25-.75 1.25-.25 1.5-.25 1.5.25 1 .75.5.5.5.5.5 1 .25.75v2l-.5 2-1 1.75-.75.5-.75.5-1.5 1-1.75-.75-2-.75.25-.5.5-.5 1-1 1.25-1 .5-.5.25-.5 1.25-.75zM179.75 418.25l-1.5-1.25-.75-.5-.25-.75-.25-.5-.25-.75-.25-1.5h3.25l1.5-.5 1.5-.75 1.25.75.75.25.75.25.5.5.5.25 1.5.25 1.5.25h.75l.5-.5v-.25l-.25-.25-.5-.25-1-.5-1-.5-.75-.75-.5-1.25-.5-.25v-.5l-.25-.5-.5-.25.5-1.25.5-1.5h.25l-.25-.5.25-.5v-.5l-.25-.25v-1.25l-.25-1 2 1 1 .5h1l1 1 .75.75.75 1 .5 1.25.5 1.25.25 1v2.5l-.75 2.25-1.25 2-.75 1-.75.75-1 .5-1.25.5-1 .5-1.25.25h-1l-1-.25-2.25-.5-2-.75zM134 404.5l-.25-.25v-1l-.25-.5V402l.5.25.25.25v1l-.25 1.75v-.5zM267 407.75l-2.25 1.25-2.5 1.25-2.25-1.5.75-1.25 1-1.25L263 405l1.25-.75 1.5-.75 1.5-.5 1.5-.25 1.75.25-.25.75-.5 1-1 1zM197 404.5l-1-.25-1.25-.25v-.5l.25-.25.75.25.5.25zM103.75 405.75V408l.5 2.25v.75l.25.75.5 1.5-1.5-1.75-1.5-2-2.5-4-.5-1.5 1.25.75 1.25 1h2.25zM254.25 406.75l-.25-.25.25-.25v-.5l-.25-.25.75-.75 1-.5-.75 1.25z"/>
  <path style="fill:#fff200;fill-rule:evenodd" transform="matrix(1.06543 0 0 1.1427 3.8546377 23.85260244)" d="M112.75 405.5v-1l.5.25.25.25-.25.5-.25.75v1.5l-.25.75v-2zM220.25 408.75v-.5l.25-.5.75-.25 1.25-.25.5-.25.25-.25h.25l.25-.25h.75l-1 .5-1 .75-1 .75zM203.25 416h5.5l.75-.25 1-.25-.25-.5-.5-.25H208l-1-.25-1.25-.25-1.25-.5-1.25-.5L202 413h-.25l-.25.25h-.25V413l2.75-1.75.75-.75.5-.5.5-.75v-1l.5-.75.25-.5 1 .25 1.25.75.75.75.75 1 .75 1 .5 1.25.5 2.5v1.75l-.5 1.5-1.5 2-2 1.5-2.25 1.25-1.25.25-1.25.25v-.75l.25-.5.25-.5-.25-.75.25-.75V419l-.25-1.75-.25-.25v-.75zM209.5 407.25l.5-.25h1.5l-.5.25h-.5zM245.5 407.25l-.25.75-.5.5-.5.75-.25.5-1 .25h-1l1.75-1.25zM159 421.5l-.25-.5-.25-.5-.25-.5v-1.5l1.5-.25 1.5-.5 3-1 .25.25.25.25.25.25.25.25.75 1.5 1 1.5 2.25 2.5h.5l.25-.25v-.5l-.25-.25-.25-.5-.25-.25-.5-1.5-.5-1.5-.5-1.25v-.75l.25-.75v-2.5l-.25-.75.75-2 1-1.75 1 1.25 1.25 1.25 1.5 1 1.5.75.5 1.25.5 1.25v1.5l-.25 1.25-.5 2.25-.25 1-.5 1.25-.75.75-.75 1-1 .75-1 .5-1.25.5-1 .25H166l-2.25-.5-2.25-.75-1.75-1.75-.5-1zM231.25 410l.25-.5.5-.5h.75l-.25.75-.5.5-1.25 1-.25-.25v-.5zM263 411.25l1.5-1 1.75-1-.75.75-.75.75-.75.5-.5 1-.25.25v-.75l-.25-.5zM184.5 409.75l1 1.5h-.25l-.5-.25-.25-.5-.5-.25zM147.25 412.5l-1.5 3.75-.25-.25v-1l.25-.25-.25-.25-.25-.5v-1.5l.25-.5.5-.5v-.5l.25-.25V410l1 2.5zM251.75 415l-.25-.5-.25-.75-.25-.75.25-.25.25-.25.75-.75 2-1 1-.25 1.25-.5 1.75.5 1.75.5.75.25.5.5.75.5.25.75-1.5.75-1.5 1-2.75 2.25 1.25-1.5 1.75-1.25v-.5l-.25-.25h-.75l-1 .5-.75.5-.75.5-3.25 3-.5-.5v-1.25l-.25-.75zM241 424h.5l.5-.5.75-.5.5-.5.5-.75 1-.75.75-1 .5-1 .5-1.25-.25-.5-.5-.25-2.75 2.5-1.5 1-1.75.75-.75.25h-.5l-.25-.25v-.5l.5-.5.25-1v-1l-.25-1v-1l-.25-.5-.25-.5-.25-.5-.25-.5v-.5l.5-.5 1.25-1 1-.5 1.5-.25h3.75l1 .5 2 1 1 2 .75 2v4l-.5 1.25-.75 1-.75 1-.75 1-2.25 1.25-2.25 1h-.5l-.25-.5-1.75-.75-1-.5-1-.25-.25-.25.75-.25.5-.25.75-.25zM217.75 420.25l.75-.25 1.25-.75 1-.75 1.25-.75v-.5l-.25-.25h-.25l-3.5 1.5-1.5.5-1 .25h-1v-.5l-.5-.25h-.25l-.25.25v-.25l-.25-.5v-.5l.25-.75.25-1v-.25l-.25-.5 2-1 1-.25.75-.75 1.5-.75 1.5-.25h.75l.75.25.75.25.75.5 1 1.75.5 1.75.25 2-.5 2-.5 1-.5 1-1 .75-1 .5-2.25.75-2 .75-.5-1-.25-1-.25-1-.5-1v-.5l.5-.25h.5l.25-.25zM124.5 417.25l-1-1.75-.75-2 .25-.25v-.5l.25-.25 1.5 2.25-.25 2.5zM187.5 422.5l-.25-.25v-.75l1-.25 1-.25 1-.25.5.25.5.25h5l1.5-.5.75.25.25-.25.25-.25v-.25l-2.75-.75-1.25-.75-1.25-.5v-.75l.25-.5.5-.75.5-1 .25-.25v-.75l.5-1.75.5.5.75.25 1.25-.25h.5l.75.25.5.5.25.5.5.5.5.5.5 1.5.25 3-.25 2-.75 2-1.25 1.5-.75.75-1 .5-2.25.5-2.75.5h-1.25l-1.25-.25-1-.25-1-.5-.25-2v-.75l-.5-.75z"/>
  <path style="fill:#fff200;fill-rule:evenodd" transform="matrix(1.06543 0 0 1.1427 3.8546377 23.85260244)" d="m225 423 .5-.25v-.5l1-.25 1-.25 1.75-1 3.25-2.75.25-.75v-.5l-.25-.25-.5.25-1 .75-1 .75-2.25 1-1.5-.25.25-1v-.75l-.5-2 .25-.5.25-.25.75-.5h.75l.75-.5 2-.5 1.75-.25 1 .25.75.25 1 .5.5.5.75 1.25.25 1.25.25 2.25-.25 1.75-.5 1.5-1.25 1.5-1.25 1-1.5.75-1.5.5-3 .5-1-.75-1-.75-1-.5-1.25-.25v-.5l.75-.5zM137.5 427.5l-.5-.75-.75-.75-.75-1.75-.25-2 .25-2h.5l.75-.5 2-.25.75-.5.75-.75.75-.5.5-.5.75-.5.25-.5.5-.5.5-.25.5 1 .25 1.25.25 1 .25 1.25-.25 1.25v1.25l.25.75v.75l.25.75v.25l.5.25.5-2.75.25-2 .75-2.25 1.25-4.5 1.5 1.5 1.75 1.5 2 1 1 .5 1 .25.25-.25.5.25.25.75v.75l-.25 1.5-.5 1.75-.5 1.5-1.25 1.5-1.5 1.5-1.75 1.25-1.75 1-1.75.25-1.5.25h-1.5l-1.5-.25-1.5-.5-1.25-.5-1.25-1-1.25-.75zM203.25 415l-.75-.25-.25-.25v-.5l.75.25.5.25 1.25.5zM166 415l.25.5.25.75-.25 1.25-.5-1v-1.25zM246.5 428l1.25-.5 1-.75 1-.75.75-1 .5-1 .5-1.25 1-.25.75-.5 1.75-1.25 1.5-1.5 1.5-1 1.5-1.25 1.5-1-2 1.75-1.75 2-2 2-2.5 1.75-1.25 1.25-.75.75-.5.75-2 1.25-1.75 1.75-1.75 1.5-2 1.5.25-.5.25-.5.75-.75.25-.25.25-.5v-.5l-.25-.5zM126.5 420.25v-1l-.25-1 .25-1 .75.25.75.5 1.5 1.25 1.75.5 1.75.5.5 1.25v1.5l-.25 1.25.25 1.5-.25 1-.25 1-.25 1-.25.5-.5.25-1 .75-1 .5-1 .5-1 .25-2.25.25-1-.25-1.25-.25-1-1-1-1.25-1-1.25-.5-1.25-1-2.75-.75-3 .75-.25.75-.5 1-1.25 1.75-2.5.5 1.5.75 1.25.5 1.25.25 1.5.5 1.25.5 2 .5 1 .75.75.5-.25V425l-.5-.75-.25-.75v-2.25zM252.25 419.5l.75-.5.75-.75.75-.75.75-.5-1.25 2.25-1.75 1.75v-.75l.25-.25-.25-.5zM171.25 433l-1-1-.75-1.25-.5-1.25-.5-1.25 1.5-.5 1.5-.25 1.5-.5.75-.5.5-.5 3.25 1.5 1.75.75 2 .5.25-.25.25-.25.75-.5-.5-.25-.25-.25h-.5l-.25-.5-2.75-1.75-1.25-1-1-1.25h.25V422l.25-.25.5-.75.25-3.5 1.5 1.25 1.75 1 1.75.75 2 .5.25.5.5.5.5.5.25.75.5 2.25v2.5l-.5 2.25-.5 1.25-.5 1-.75 1-1 .75-1.25.5-1 .5-1.25.25-1.25.25-2.75-.25-1-.5-1.25-.5-1-.75zM193 419l1.5.75-.25.25-2.5-.5.25-.5h.25zM202 426v-1.25h.5l1 .25 1 .5 1 .25h1l2.25.75 1.25.25h1l.25-.25v-.25l-5-2.25 2.75-1.75 1.5-1 1.25-1.5 1.5.75.5.5.25.25v.5l.75.75.5 1.25.25 1.25v1.25l-1 1.75-1 1.5-1.25 1.5-1.75 1-1.5.5-.75.25h-.75l-1-2.5-.75-1.25-.75-1-.5-.75-.75-.5-1-.5-.75-.25z"/>
  <path style="fill:#fff200;fill-rule:evenodd" transform="matrix(1.06543 0 0 1.1427 3.8546377 23.85260244)" d="m228 420-.5.75-1 .25v-.5l.25-.25 1-.5v.25h.25zM237.25 424l.25-.25.5-1h1.5l1.5-.75 1.25-.75 1.25-.75-1.25 1.25-1.5 1.25-1.75 1-2 .5zM114.75 424l-1.25-1.5-1.25-1.25 4.25.75.5 1.5.5 1.5 1.5 3-2.5-1.75-1-1-.75-1.25zM149.25 437l-.5-.5v-.75l-.25-1v-1.25l-.25-1v-.5l.25-.25.75-.5 1.25-.25 1-.75 1-.5 1.25-.25 2.75 5.75.75.75.5 1 .25.5.25.25h.5l.5-.25-.5-1-.5-.75-.25-.75v-1l-.25-1.75-.25-2-.25-.5v-.25l.25-1 .25-.75-.25-.25-.25-.5.5-1.75.25-2 1.25 1.5 1.25 1.5 1.5.75 1.5.5 3.5 1-.25 3.75-.25 1.75-.75 1.75-.75 1.5-.75 1.5L163 440l-1.75.75-3.25 1h-2.5l-1-.25h-1l-.75-.5-.75-.25-.75-.75-1.25-1.25zM218 441.5v-1l-.5-.75.25-.25-.25-.25-.25-.25v-.25l-1-2.25 1.75-.25 1.75-.75 1.75-1 1.5-1 .25-.5v-.25l-.75-.25-.75.25-1.75.5-2 .25-2.25.25-1 .25h-1l-1-.25-1-.5L213 432l1.25-.75 1.75-2 .5-1.25.25-1.25 2.5-.75 1.5-.25h2.5l1.25.5 1.25.5 1 1 .5 1 .5 1.25.5 1.25.25 1.25v2.75l-.25 1.25-.5 1.25-.5.75-.5.5-.5.5-.75.25-.5.75-1 .75-.75.25-1 .5-2 .5-2 .5v-.75zM140.75 431.25l1.75.5 1.75.25h1l1-.25v.25l.25.25.25-.25v1.25l.25 1.25.25 1.5v1.25l-1.25 1.5-1.75 1.25-1.75 1-1.25.25h-2.75l-1.75-.5-1.75-.5-1.5-1.25-1-1.25-.75-1.25-.75-1.5-.25-1.5-.25-.25v-.75l1-.5.75-.5.75-.75.5-1 .75-2 .5-1.75.5.75v.75l.25 1 .25.75 1.25 3.25.5 1.5 1 1.25.25.5.25.75.5.5.75.25.25-.25-.25-.25-.25-.5-.25-.25-.25-1.25v-1.5l-.25-1.5-.25-.5v-.75zM229.75 435.25l.5-.5h.5l1.75-.75 1.5-1 2.75-2.25-.25-.75-.25-.25h-.5l-.5.25-1 .75-.5.25h-.5l-1.5.5h-1.5l-.25-.75-.25-.75v-.75l-.5-.75 2.25-.75 1-.25 1.25-.75 2 .25 2.25.25 2 .25.75.5 1 .5.25.75v.5l-.5.5-.75.5-1 1.5-1.25 1.25-1.25 1-1.5 1-3 1.5-3 1.5v-1.25l.25-.25v-1h-.25v-.75zM194.5 436.5l-.75-2.75 1.5 1 1.75.25 1.75.25h2l.25-.5-.75-.5-.75-.25-1-.25-1-.5-.5-.5-.75-.25-.75-.25-.75-.75-1.25-.25-1-.75-2-1.5h5.25l2.5-.75 1.25-.5 1-.75h.75l.75.25.75.25.5.5 1 1.25.75 1.5.5 2.25.5 2.25-.25 1-.25 1.25-.5 1-.75.75-1 1-1 .5-1.25.75-1.25.25-1.25.25h-2.75l-1-.25-.25-.5.25-.75v-2.75z"/>
  <path style="fill:#fff200;fill-rule:evenodd" transform="matrix(1.06543 0 0 1.1427 3.8546377 23.85260244)" d="m155.25 429-.25-.5v-.5l.25-.5.25.5v.5l-.25 1zM137.75 429.75l-.25.25v-.75h.25v.5zM183 440.75l-.25-1 3 .25 1.5.25 1.5.5.75-.25 1-.25-.25-.5-.25-.25-1-.25-.75-.25-1-.5-1.5-1-1.25-1-.5-.5-.25-.5.25-.5.5-.25.5-.5.5-.5.5-.25 1.25-1 .25-.5.25-.5v-.5l.25-.5.25-.75v-.5l1 1 1 1 1.5 2.25 1 2.25.75 2.75v2.5l-.25 1-.5 1-.5 1-.5 1-.75.75-1 .75-2.25 1-2.25.5-1.75.25-1.5-.25-2.75-1.25v-.5l.25-.25 1-1 .75-.75.75-1 .5-1.75zM168.5 434.75l-.25-1.75v-1.5l.5 1.75.5 1.75 1.25 3.25-.5-.25v-.5l-.75-.5-.25-.75zM230.5 432.75h1.25l.25-.25-.75.5-.75.5zM193.25 433v-.25l.25.25h-.25zM125.25 433l1.75.25h1.5l1 2 .25 1 .75 1-1.5-.75-1.5-1-1.25-1.25zM207.75 443.5l.5-.25.5-.25.75-.25h.5l.75-.25.25-.25V442l-1-.5h-4.5l-1.25-.25 1.5-1.5 1-1.5 1-2 .25-2 2 .5 1.75.75.75.5.75.75.75.75.25 1 1 2.5.5 1.5-.25 1.5-.25 1.5-2 .5-2 .5-2 .25h-1l-.75-.25-.25-.25-.25-.5-.5-.25-.25-.25-1-1-1-.75.5-.25h1.75zM215.5 435.5l-.75-.5 2.5-.25 2.5-.5-1 .5-1 .5z"/>
  <path style="fill:#fff200;fill-rule:evenodd" transform="matrix(1.06543 0 0 1.1427 3.8546377 23.85260244)" d="m163 443.25-.25-.25-.5-.5.25-.25V442l.75-.5.75-.25.5-.75.5-.25.5-.25.75-1 .5-1 .25-1.25h.5l.25.5.25.5 1 .5.75.5.5.5.25.5 3 2.5h.5l.25-.5-1.25-1.5-.75-1.75-.75-1.75-.25-2 1 .75 1 .75 1.25.5 1.25.25 1.25.25h1.25l1.25-.25 1.25-.25.25.25.25.25v.75l-.25 1.75-.25 1.5-1.25 3.25-1.25 1-1.25.75-1.25.75-1.25.25-1.5.5h-4.25L167 447l-1.5-1-.75-.25-.75-.75-.5-.75-.5-1zM182.75 437.75l-.25-.75v-.75l2.5 2.25h-.5l-.5-.25zM147 440.5l.5-.5.75-.75.75.5.5.5.5.75.75.75 1 .75 1.25.5 1.25.5h4l2.5-.75 1 1.25 1 1.25h-1.25l-.5.25-.25.25h-2l-2-.25-4-1-3.75-1.25-3.5-1.75.5-.5zM230 439.75l-3 1.75.75-.5.5-.75.75-.5h.5zM216.75 445.75l.25-.5.25-.25.5-.75 4-.75 2-.5 2-1-1.75 1.25-1.75.75-2 .75-1.75 1-.75.25h-.5l-.5-.25zM202.25 442.25l.25.25-.25.25h-.5l.25-.5zM196.25 444h2.25l2.25.25h1l1 .5 2.25 1.75 1 1 .75 1-.75-.25h-1l-1.5.25-1.75.25-1 .25-.75-.25-5.25.25h-2.5l-2.75-.25 1.25-.75 1.25-1 1-1.25.75-1.5.25-.5 1 .25zM208.25 449v-.75l1.5.25-.75.25zM187.25 449.75l.25-.25 1.5.5-1.75-.25zM95 306.25l-2 5-1 3-.75 3-.75 3.5-.25 3.25.5-.75.75-2.75 1-3 1-2.75 2-3.5 1-1.75-.25-2.25v-3.75z"/>
  <path style="fill:#006bb6;fill-rule:evenodd" transform="matrix(1.06543 0 0 1.1427 3.8546377 23.85260244)" d="M176.5 85.25h-.25L176 85l.25-1 .5-.5.5-.5 2.25-1.5 1.25-.5 1.25-.25h5.25l1 .5 1 .75.25.25V83l-.25.25-.25.25h-.75l-2.25-.75-1.25-.25h-1.25l-2.5.25-2.25 1-1 .75-1.25.75zM181 89.75l-.75.25H180l-.5-.25.25-.5.5-.25.25-.25.75-1.25 1-.75 1.25-.75 1.25-.25h1.5l1.25.5 1.5.75.5.5.5.75.25.5.5.25.25.25-.25.5h-1.25l-1.25-.5-.25.75-.5.5-.75.5-.75.5h-.75l-.75-.25-.75-.25-.5-.5L183 89l-1 .5z"/>
  <path style="fill:#fff200;fill-rule:evenodd" transform="matrix(1.06543 0 0 1.1427 3.8546377 23.85260244)" d="m188.5 88.25-1.25-.5-1.25-.25-1.5-.25-1.5.5-1.25.75 1-1 .5-.5.75-.25h2.25l2 1 .25.25v.25z"/>
  <path style="fill:#006bb6;fill-rule:evenodd" transform="matrix(1.06543 0 0 1.1427 3.8546377 23.85260244)" d="m180 99.25.5.25.25.75v2l-.5.5-.5.25h-.25l-.25-.25v-.25l.5-.25.25-.5.25-.25-.25-1-.25-.5-.25-.25v-.5h.25zM174 102.5h.75l.75-.25.5-.5.5-.25h1.75l-.25.25-.25.5H177l-.5.25-1 .5-1 .5-1.25-.25-1.5-.5H171v-.5l.25-.25h.75l.75.25.5.25zM178.25 109l-1 .25-.5.25-.25.25-.5.25-.5.25-1-.5-.75-.25h-2.25l-.75-.25-.75-.25v-.75l.5-.75h.25l.25.25v.25h.25l.75-.25.75-.5.75-.75h1.5l.25.5h.25l.5-.25.5-.5h.25l.5.25 1 .25 3 .5h.5l.25-.5h.5l.25.5.25.25-.25.5-1 .75-1.25.25h-1zM173.5 111.25l.25.25.25.5h2.5l1-.25 1-.25.5-.25.25-.25h.25v.5l-1 .75-1.5.5h-3l-.75-.5-.5-.5.25-.25.25-.25zM172.25 91v1.75L172 94.5l-.5 3.5-.25.75v.75l.25.25h.5l.25-.5.25-1.25.5-1.25V93.5l.5-3.5v-.75l-.25-1-.75-1.5-.75-1-.75-1-1-.75-1.25-.5-1.75-.25-1.75-.25-2 .25-1.5.75-.5.25-.5.5.25.5.25.25.5-.25h.5l.5-.25.5.25h1l1.25-.25h2.25l.75.5 1 .5.75.25.5.75 1 1.25.25.75.25.75-.75-.5-.5-.75-.5-.5-.5-.5-.25-.25-2.25-.5h-1l-1 .25-1.25.5-1 .5-.75 1-.5 1 .5 1 .25-.25h.5l.75-.25h.5l.25.25.25.5.25.75.5.5.5.25H168l.5-.25.75-.75.5-1 .5.25h.75z"/>
  <path style="fill:#fff200;fill-rule:evenodd" transform="matrix(1.06543 0 0 1.1427 3.8546377 23.85260244)" d="M165.75 87.75H167l2 .5.75.25.75 1 .25.5h-.25l-1.25-.5-.5-.25L168 89l-1.25-.25h-1l-1.25.25-1 .5v-.25l.25-.5.75-.25.75-.5zM89 14l.5-.75 1-1.75 1.25-1.75.75-.75 1-.5 1-.5h3.25l1 .5.5.5.25.5.25.75v1l-.25 1-.5.75-18.5 21.25-.25-.75L80 33l-.25-.25-1.25.5-1.25.75v-.25l2.75-4.5 2.5-4.5 2.75-4.5 2.75-4.5.5-.5.25-.75zM90.75 10l-3.5 6-3.5 6-3.5 6-3.5 6-.25.25-.25.25h-.5l-.25.25.25-1.25.75-1.25 1-2.25 1.75-4.5 2.25-4 2-4.25 1.75-4.5 1.25-1 1.25-1 1.5-.5zM100.25 15.5l-.5 1.5-.75 1.25-1 1.25-1 1-2.25 2.25L92.5 25l-6.75 6.75-6.5 7-.25-.5v-.5l.25-.5-.25-.5 5-6L89.25 25 99.5 13.5l.5.25.25.5v1.25zM79 25.25 74.75 35.5l-.5.5-.5.25-1 .5 1.5-3.75 1.25-3.5 1.25-3.5 1.5-3.75L79 20l1-2.25.5-1 .75-.75 1-.75 1.25-.5h.25zM97.5 24l-5 4.5-4.75 4.25-9.5 9v-1.5l5-5L88 30l5-5 5.25-5 .25 1.25-.25 1.25-.75 1.5zM78 21.5l-.75 1.25-2.75 7.75L72 38l-1.25.25-.75.5-.25-.25L72 31l2-7.75 1-1 1-1 1-.75 1.25-.25v.5zM93.25 31.5 86 37.75l-3.5 3-3.5 3-.75-.75v-.75l4.25-3.75 4-3.75 4-3.75 4.25-3.75H95v1.25l-.25 1z"/>
  <path style="fill:#fff200;fill-rule:evenodd" transform="matrix(1.06543 0 0 1.1427 3.8546377 23.85260244)" d="m77 46.25-.25.25-.25.25-.25.25v.25l.5.25.5-.25.25.75-.25 1-.5.75-.75.75-.5.25-.25.25-1-.25L73 50.5l-1-.25-.75-.5-1-.5-2-.75v.25H68l-.5-.25H65l-1 .25-1.25-.25-.75.25-.75.25.25.25.25-.25H62l2.25.25 1-.25H68l.75.5h1l.75.5.5.25-.25.25H69.5l-.25.25.5.5h3l1.5.25 1.5.25.25.5.5.25h-2l-.75.25.5.5h.5l3.5-.25 1.75.25 1.75.5V54h-1.5l-1.25.25-1.25.25h-1.5v.5l1.25-.25 1 .25h1l1.25-.25L82 54.5l1.75-.25h1.5l1.5.25-.25.25-1.5.5-1.75.25-2 .25-1.75.25 1.25.5h1l2.5-.5 2.5-.75H88l1.5-.25 1.25.25 1.25.25v.25h-.75l-1.75.5-1.75.5L86 57l-1.75.25v.5h2L88 57.5l3-1 1.75-.25 1.5-.25 1.75.25 1.75.25v.5l-4.5 1.25-4.75.75-4.75.5h-5l-5.75.25-5.75-.25h-2l-5-.5v-1.25L60 57l.25-.75 1.5.25h.5l.5-.5h-.25l-.25-.25h-.75l-.75-.25v-.75h1l.5.25.25-.25.25-.25-.75-.25h-.75l-.5-.25-.25-.25v-.25l.5-.5.5-.25 1.25.25v-.25l-.25-.25-.5-.25h-1v-.5l.25-.25.25-.25h.75v-.5h-.5l-.5-.25-.75-.75-.5-1.25-.5-.25L59 48l-.25.25.75.5.5.5.25 1 .25.75v1.25L60 52l-.5-.5-.25-.5h-.5l.75 1 .5 1.25v1.5L59.75 56l-.25-.25-.5-.25-.25-.25-.25-.5v-.25h-.25v.75l.5.5.5.75.25.75v.5l.25.5v.5L59 59h-2l-.75-.25-.75-.5.5-1 .25-1L56.5 54l.25-1.5L57 51v-1.5l-.25-1.25-.5-1-.5-.75-.75-.75h-1l.25.25.25.5 1 .5.25.5.25.5.5 1.25v1.5L56 50l-.75-.5-.75-.75-.75-.25-.25.25.5.5.75.5.5.25.5.75.5 1.5v1.5l-.75-1-.75-.75-.75-.5-.75-.5-.25.25 1.25 1 1 1.25.5.5.25.75v1l-.25.75-.25.5v.25h-.25L55 56.5l-.5-1-.5-.5-.75-.5-.5-.5h-.25l-.25.25 1 1 1 1 .5 1 .25.5-.25.75-2.25-.25-2.25-.5-2.25-.5-2-1-.75-1-.25-.5V54l-.25-.25.25-.5.25-.25v-1l1-1 1.25-.75L50 48.5l1-1 .75-1 .5-1.5-.25-.75-.25-.75V43l.25-.25h.25l.5-.25 1.5-.5 1.75-.5h3.75l3.75-.25h1.75L67 41l1-.75 1-.5 1-.5 1.25-.25.25-.5.5-.5 1-.5h.25l.5-.25L74 37l.25-.75.5-.5 1-.25 1-.25 1-1 .5-.25.75-.25v.75l-.25 1-.25.75-.5.75v.25l.25.25L78 39l-.25.75-.5.75.25.5v.5l-.25.75v.5l-.5.75.25.25.25.25v.75l-.25 1.5z"/>
  <path style="fill:#fff200;fill-rule:evenodd" transform="matrix(1.06543 0 0 1.1427 3.8546377 23.85260244)" d="M47.75 43.5h.75l1-1 .5-1.25.5 1.5.25 1.5-.25 1.5-.5 1L48.5 48l-2 1.25-1.75 1.5-.75.75-.5 1-.25.5v.75L43.5 55l.75 1 1 1 1.25.75 1.5.5 2.75.75 3 .5 5 .5 5.25.25 10.75.25 3.75-.25H82l-.75.75-.75.5-1.5.75-1.75.25-1.75.25-.25.25.25.25v.25l-.25.5-.5.5-.25.5-.25.75 1.5.25 1.75 1 1.25 1 1 1.25-1.25-1-.75-.5H77l1 2.5-1.25-1-1.5-1-1.5-.5H73l-.75.25-1.5.25-1.5.75-1 .75-1.25 1V70l.25-.75 1-1 .5-.5.5-.25.25-.25V67l-1.5.5-1.5.75-1 1-1.25 1 .25-.75.75-.75L66 68l2-1 2-.75 2.25-.25.75-.75.5-.75.5-.75 1-.75-.25-.5-6.5 1-3 .25h-3l-.5.25h-4l-4-.25-2-.25-1.75-.25-2-.5-1.75-.75-.5-.5-.5-.25-.75-1-.75-1.25-.5-.25-.5-.5h-1l-1-.25L39 57l-1.25-1.5-1.25-1.75-.25.25v.5L36 55l-.25.25-.25-1-.25-.75-.5-1.5h-.25l-.25.25v1.25l-.25.25-.25.25-1-3.5-.25.25-.25.25.25.25v.5l-.25.5H32l-.25-.75v-1l-.25-.75-.25-.75-.25.25-.25.25.25.25v.5l-.25.75-.25.25-.25-.5-.5-.5-1-1-.75-1V47h.25l.25-.5-.5.25-.25.25v.25l-.25.25-5-1.5-5.25-1 2-.5h6.25l2 .25 1 .25 1.25.25v.5h.5l.25-.25v-.75l-.5-.5-.5-.5-.5-1.25-.25-1-.75-1.25v-1l-.25-.5-.25-.25-.25.75.25 1 .25.75.25.75.75 1.5-.5.25-.5-.25-1-.5-1-.5-1.25-.5-5-.5L17 41l-2.75.25.5-.75.5-.5 1.5-.75 3.75-1h2l2 .25h.75l.75-.25 1.25-.75 1.25-.75.5-.5h.75l1.75-.5H33l1.5.5 1.25.5 1.25.75 1.25 1 2.25 2.25 1.5.75h2.75l.75-.25.75-.25.75-.75V41l-.25.75-.75 1h.5l.75-.25 1-1 .25-.25h.25l.25.5-.25.5-.5.75z"/>
  <path style="fill:#fff200;fill-rule:evenodd" transform="matrix(1.06543 0 0 1.1427 3.8546377 23.85260244)" d="M27.5 42.75V43l-1-.75-.75-1-.5-1-.5-1.25H25l.5.25.25 1 .5 1 .5.75z"/>
  <path style="fill:#006bb6;fill-rule:evenodd" transform="matrix(1.06543 0 0 1.1427 3.8546377 23.85260244)" d="m33 40 .25.75v.75l-.5.5-.75.5-.75.25-.75-.25H30l-.25-.5-.25-.75v-.5l.25-.5 1-.75h1.75l.5.5z"/>
  <path style="fill:#fff200;fill-rule:evenodd" transform="matrix(1.06543 0 0 1.1427 3.8546377 23.85260244)" d="m31.25 41-.5.25V42l-.5-.75-.25-.5.25-.25.5-.5h.5l-.25.25.25.25v.25zM21.25 44l-1.25.25-1-.25-.75-.75-.5-1.25 1.25.5 1.25.25L23 42.5l1.5.5 1.25.25h-1l-1.25.25zM26.5 43.25h-.75.75zM78 46.75l-.25-.25-.25-.25.25-.75v-2h.5l.25.5v1.5l-.25.25.25.5.5-.25.25.25-.5 3.75-.25.5-.25.5-.75.75h-.75L76 51.5l.25-.5.5-.75.5-.5.5-.5.25-1.5zM28.75 45.5v.5H28l-.25.25h-.25L28 46l.25-.25.25-.25z"/>
  <path style="fill:#fff200;fill-rule:evenodd" transform="matrix(1.06543 0 0 1.1427 3.8546377 23.85260244)" d="m87.25 47.5-.25.25V48h1.5l.5-.25 3.25-.25 1.75.25 1.5.25L80 52.25 79 52l-1-.25.25-.5.75-.5.5-1 .25-1.25.25-1.25-.25-1.25.75-.5h1.25l-.25.5v.25h1L83 46l1-.25h.5l.5.25-.75.75h.25l.5.25 1-.25 1.25-.25 1 .25h.5l-.25.5h-.75zM62.75 57.75H60.5l-.25-.25.25-.25h1.25l.75.25.25.25zM62 66.25l-.75.25-1.25.75-2.25 1.5v-.5l1-1 1-.75 1.25-.75 1.25-.25L65 65l2.75-.25L69 64l.75-.25h.75l-.25.5-.25.5 1 .25-.25.5h-2l-1.75.25-1.5.5L64 67l-1.5 1-.75.5-.5.75v-.5l.25-.5.25-.5.25-.5.5-.5.25-.5zM168.25 91.75l-.75-.25-.25-.75.25-.5.75-.5.5.5.25.5-.25.75-.5.25zM185.75 90.25l-.5-.25-.25-.5.25-.75.5-.25.75.25.25.75-.25.5-.75.25z"/>
  <path style="fill:#fff200;fill-rule:evenodd;stroke:#006bb6;stroke-width:.2001;stroke-miterlimit:2.61310005" stroke-miterlimit="2.6131" transform="matrix(1.06543 0 0 1.1427 3.8546377 23.85260244)" d="M293.5 128.75h2.25l2 .25 1.75.5 1.5.5 1.75.75h.5L301 129.5l-2.25-.75-2.5-1-3-1-2.75-.5-2.75-.25H285l-2.5.25-2.75.25-4.5 1-3.25 1-3.25 1-1.5.25-1.5.25-1.75-.25-2-.5-2.5-1-3-1.5-2-.75-2.25-1-5-1.25-2.5-.5-2.5-.25H238l-2.25.75-1.5.75-2 1.25-1 .5h2l2.25.25 3 .75 3.5 1.25 4 1.75 4.25 2 4.5 2 2.5.75 2.25.5h4.25l3.25-.5 2.5-.75 4-1.25 4-1.5 2.75-.75 3.25-1 2.75-.5 2.5-.25 2.5-.25z"/>
  <path style="fill:#fff200;fill-rule:evenodd" transform="matrix(1.06543 0 0 1.1427 3.8546377 23.85260244)" d="m341.75 84 3.25.75 3.25.5 3.25.5 3.5.25h3.25l3.25-.25 3.25-.5 3.25-.5 3-1 3-1.25 3-1.5 2.5-1.75-2 2.5L375 84l-2.5 1.75-2.75 1.5-3 1.5-3 1-3.25.75-3.25.75-3.25.25-3.25.25-3.5-.25-3.25-.25-3.25-.25-3.25-.75-3.25-.75-3-.75L326.5 87l-4.75-2-9.25-4.25L310 80l-2.5-.5-2.75-.25h-2.5l-2.75.25-2.75.25-2.5.5-2.5.5-2.25.75-1 .5-1 .5.5.25 1.5-.25 4.75.25 5 .5 3.5 1 3.5 1.25 3.25 1.75 1.5 1 1.5 1.25-.25.25-5-.5L302 89l-5.25.25-5 .75-5 1-4.75 1.5-4.75 2-4.25 2.25v.5l.5.25 1.75-.75L277 96l3.75-1 3.25-.25 4.25-.75h4l4.25.25 4 .25 4 .75 4 1 4 1 3.75 1.25 3.75.75 4 .75 3.75.25h4l4-.25 4-.25 3.75-.75 4-1-2 1.25-2 1.25-4.25 2-4.5 1.5-4.75 1-4.75.5-5 .25-4.75-.25-4.75-.75-4.25-1-4.25-.75-4.5-.25-4.5-.25-4.5.25-4.25.75-4.25 1.25-4 1.5-.5.25-.25.25v.5h.25l.25.25 5.5-.75h5.5l5.5.25 5.25.75 5.5 1 5.25 1.25 5.25 1.25 5 1.5 3.25.75 3.5.25 3.5.25 3.5-.25 3.5-.25 3.25-.5 3.25-1 3-1 4.5-1 4.5-.5 4.75-.25 4.75.25 4.75.5 4.5 1 4.25 1.25 4.25 1.75-6.75-.25h-3.25l-3.25.25-3.25.25-3.25.75-3 .75-3 1-5.25 2-5.25 1.75-5.25 1.25-5.5 1-5.75.75h-5.5l-5.75-.5-2.75-.5-2.75-.5-4.5-1-4.75-.5-4.5-.5h-9.25l-4.75.5-4.5.5-4.25 1-3.5.25-3.75.25-2.25-.25-2-.5-2-.75-2-1-3-1-3-1-1.5-.25h-3.25l-2 .25-2 .5-2.25.75-3.75 2-4 2.25-2 1-2 1-1 .5-2.5 1-2.5 1-5.25 1.5-6.25 1.25-3 .25h-1.75l-1.75-.25-2-.75-1.5-1-1.5-1.25-1-1.75-.25-1.5-.25-1.5-.25-1.5-.25-1.5-.5-1-1-1.25-1.25-1.75-1.5-1.5-1-1.5-.75-2.25-.75-2.75-.5-2.75v-1l.25-1.25.25-1 .25-.75.5-1.25 2-1.75.75-.75.5-1 1-1.5.75-1.5.25-1.75.25-2-.5-1.75-1.5-3-1.75-2-.75-1.75-.5-1.5-.5-3-.5-1.25-.5-1.25-.75-1-1.25-1-3.75-1.25-1.75-.5-2-.75-1.75-1-1.5-1-1.25-1.5-.5-1-.5-1-.25-1.25v-1.25l.25-2.75 3.25-1.25 3.25-1 3.5-.75 3.5-.5 4.5.5 2 .5 2.25.75 1.75 1.25 1.75 1.25L206 61l1.5 1.75 1.25 1.5 1.25 2 3.25 3.75.75.75 3.25 3 3.5 2.5 1.75 1 2 .75 1.75.75 2 .25h4.5l2.5-.25 1.25-.5 1-.5 2 1.75 2 1.25 4 2.75 2.25.5 2.5.5H257l2-.25 4-1 4-1.5 3.75-1.75 7.25-3.75 3.5-2 3.75-1.5L290 71.5l5-.75 5-.25 5 .25 5 .75 4.75 1.25 4.5 1.5 4.25 2 6.25 3.25 2.75 1.25 3 1.25 3 1z"/>
  <path style="fill:none;stroke:#006bb6;stroke-width:.2001;stroke-miterlimit:2.61310005" stroke-miterlimit="2.6131" transform="matrix(1.06543 0 0 1.1427 3.8546377 23.85260244)" d="m198 117.25 1.5 1.25 2.25 1.75 2.75 1.5 1.5.75 1.25.25 3.5.5 2 .25h4.75l2.25-.5 2.5-.5 2.5-1 2.25-1.25 2.5-1.25 5.25-3.5 2.75-1.5 2.75-1.5 2.5-1 2.25-.5h5.75l1.75.5 1.75.5 2 1 2.25 1.25 2.5 1.5 2.5 1.5 2.5 1 2.25.5h2l1.75-.25 1.75-.25 2-.75 6.75-1.5 4.5-1 3.5-.5h2.5l2.25.5 3.25.75-.5-.5-2-1.75-2.5-1.5-1.5-.75-1.5-.25-1.75-.25-2.25.25-4.75.5-4.75.75-3.5.5h-3l-1.5-.25-1.5-.5-2-.75-2.25-1-7.25-3.75-2-1-2.25-.5-2.25-.5H247l-2.25.25-2.25.25-1.75.25-1.5.5-5.5 2.75-3.5 1.75-4 2.25-1 .5-1.5.5-2 .5-2 .25h-5l-2.5-.5-2.5-1"/>
</svg>
