<svg xmlns="http://www.w3.org/2000/svg" width="500" height="690" version="1.0">
  <path style="fill:#ed1b2d;fill-opacity:1;fill-rule:evenodd;stroke:none" d="M481.08541 219.26304H18.258426v278.2638c0 104.81269 120.112424 189.68315 231.413504 189.68315 111.30108 0 231.41348-84.87046 231.41348-189.68315v-278.2638z"/>
  <path d="m188.02156 507.74173-40.37563 40.81203s8.81134 3.94207 23.18773 20.40601c14.37639 16.46394 13.68075 22.49299 33.39032 44.52221 19.70957 22.02922 45.44794 40.81202 45.44794 40.81202s25.73838-18.7828 45.44794-40.81202c19.70957-22.02922 19.01394-28.05827 33.39033-44.52221 14.37639-16.46394 23.18772-20.40601 23.18772-20.40601l-40.37562-40.81203s-31.97008 53.79767-61.65037 53.79767c-29.68029 0-61.65037-53.79767-61.65036-53.79767zm61.07067 114.55193c.18729-.0166.38809 0 .57969 0 3.50357-.00001 6.34764 2.84419 6.34764 6.3479.00001 3.50373-2.84407 6.34789-6.34764 6.34789-3.50357-.00001-6.34764-2.84418-6.34764-6.34789 0-3.31208 2.5304-6.06006 5.76795-6.3479z" style="color:#000;fill:#ffd51f;fill-opacity:1;fill-rule:evenodd;stroke:#ffd51f;stroke-width:.99999976;stroke-linecap:round;stroke-linejoin:miter;stroke-miterlimit:4;stroke-opacity:1;stroke-dasharray:none;stroke-dashoffset:0;marker:none;visibility:visible;display:inline;overflow:visible" transform="matrix(-1 0 0 1 499.34384 0)"/>
  <path d="M249.67192 553.1796c30.60779 0 57.93806-51.01503 57.93806-51.01503s-5.99756-6.89993-5.99756-12.98565c0-16.69583 30.6078-42.29023 30.6078-76.05877 0-25.97129-22.26022-64.00067-22.26022-64.00067H189.38383s-22.26021 38.02938-22.26021 64.00067c0 33.76854 30.60779 59.36294 30.60779 76.05877 0 6.08572-5.99756 12.98565-5.99756 12.98565s27.33027 51.01503 57.93807 51.01503zm7.36936-188.68636s12.07496.41706 13.96334 3.17716c6.98062 10.203 14.42468 26.89883 14.40329 50.08748-.0254 27.59483-7.21273 41.9581-14.95141 58.4354-1.30689 2.78264-17.07455 6.95993-17.07455 6.95993s14.84015-35.71623 14.84015-65.39533c0-29.68147-11.18082-53.26464-11.18082-53.26464zm16.74587 114.48268s29.68029-29.14614 29.68029-63.07313c0-26.89884-16.69516-50.48433-16.69516-50.48433s9.27509-4.24088 13.91263-2.38579c6.26942 2.50786 19.47769 22.2611 19.47769 48.23239 0 38.95693-37.12357 67.59521-46.37545 67.71086zm-31.4846-114.48268s-12.07496.41706-13.96334 3.17716c-6.98062 10.203-14.42467 26.89883-14.40329 50.08748.0255 27.59483 7.21273 41.9581 14.95142 58.4354 1.30689 2.78264 17.07454 6.95993 17.07454 6.95993s-14.84014-35.71623-14.84014-65.39533c0-29.68147 11.18081-53.26464 11.18081-53.26464zm-16.74587 114.48268s-29.68028-29.14614-29.68028-63.07313c0-26.89884 16.69516-50.48433 16.69516-50.48433s-9.27509-4.24088-13.91264-2.38579c-6.26941 2.50786-19.47769 22.2611-19.47769 48.23239 0 38.95693 37.12358 67.59521 46.37545 67.71086z" style="fill:#ffd51f;fill-opacity:1;fill-rule:evenodd;stroke:#ffd51f;stroke-width:.99999976px;stroke-linecap:butt;stroke-linejoin:miter;stroke-opacity:1" transform="matrix(-1 0 0 1 499.34384 0)"/>
  <path d="m205 424.36218-120.462165-116-3.537835-17s-23-7-26-4c-3.535534 3.53553 2 25 2 25l17.56287 6 123.43713 122 7-16z" style="fill:#ffd51f;fill-opacity:1;fill-rule:evenodd;stroke:#ffd51f;stroke-width:1.07813489px;stroke-linecap:butt;stroke-linejoin:miter;stroke-opacity:1" transform="matrix(.9275 0 0 .92755 -13.277003 -29.65523)"/>
  <path style="fill:#006bb6;fill-opacity:1;fill-rule:evenodd;stroke:#006bb6;stroke-width:1.07813489px;stroke-linecap:butt;stroke-linejoin:miter;stroke-opacity:1" d="m165.51828 386.34294-80.980445-77.98076s-25.537835 18.46558-27.031576 49C55.30464 401.57906 75.503755 463.36219 78 485.36218c6.648694 58.59651 3 85-7 107.50376 0 0 24.726212-10.07676 51-49.04661 0 0 15.41299 24.88391 17 85.54285 0 0 26.74639-25.67417 29-73 2-42-12.04771-73.53552-14-116-2-44 11.51828-54.01924 11.51828-54.01924z" transform="matrix(.9275 0 0 .92755 -13.277003 -29.65523)"/>
  <path d="M115.43938 404.36218s.043-40.57454 17.5001-49.39125l-14.63551-14.09338s-9.50698 4.11348-14.83297 16.48463c-5.325995 12.37116-6.471 33.529-6.471 33.529s-37-24.529-39.654406-27.99847c-.07372 7.81203.462683 16.07126 1.40708 24.48862C61 388.36218 90.493633 409.8518 98.454761 415.36218c8.545239 54 16.545239 92 14.013859 141.49737 3.12566-3.93724 6.31694-8.27249 9.53138-13.04022 0 0 3.76705 6.08182 7.76823 19.56141C134 523.36218 125 465.36218 117.40743 427.86776 120 429.89174 146 448.36218 155.09031 454.4233c-.49171-4.56721-.86884-9.24384-1.09031-14.06112-.1422-3.12842-.20595-6.08506-.20169-8.87852-24.79831-17.12148-38.35893-27.12148-38.35893-27.12148z" style="fill:#ffd51f;fill-opacity:1;fill-rule:evenodd;stroke:#ffd51f;stroke-width:1.07813489px;stroke-linecap:butt;stroke-linejoin:miter;stroke-opacity:1" transform="matrix(.9275 0 0 .92755 -13.277003 -29.65523)"/>
  <g>
    <path d="M128.63439 638.07291c-4.52869 4.43987-11.80737 4.36764-16.24703-.16123-4.4397-4.52886-4.36747-11.80781.16122-16.24768l20.80593-21.29862 4.62409 4.55904 23.22941-23.35783-6.91714-6.87216 7.87579-8.06542C174.91607 579.57002 181.5 594.30833 181.5 594.30833l-6.70607 5.30605-6.6722-7.25665-21.22441 21.36506 3.09131 2.97966-21.35424 21.37046zM369.31817 638.07291c4.52869 4.43987 11.80737 4.36764 16.24703-.16122 4.4397-4.52887 4.36747-11.80782-.16122-16.24769l-20.80593-21.29861-4.62409 4.55903-23.22941-23.35783 6.91714-6.87215-7.87579-8.06542c-12.74941 12.94101-19.33334 27.67931-19.33334 27.67931l6.70607 5.30605 6.6722-7.25665 21.22441 21.36506-3.09131 2.97967 21.35424 21.37045z" style="color:#000;fill:#ffd51f;fill-opacity:1;fill-rule:evenodd;stroke:#ffd51f;stroke-width:.99999976;stroke-linecap:round;stroke-linejoin:miter;stroke-miterlimit:4;stroke-opacity:1;stroke-dasharray:none;stroke-dashoffset:0;marker:none;visibility:visible;display:inline;overflow:visible" transform="matrix(-1 0 0 1 498.648206 0)"/>
  </g>
  <g>
    <path style="fill:#ffd51f;fill-opacity:1;fill-rule:evenodd;stroke:#ffd51f;stroke-width:1.07813489px;stroke-linecap:butt;stroke-linejoin:miter;stroke-opacity:1" d="m205 424.36218-120.462165-116-3.537835-17s-23-7-26-4c-3.535534 3.53553 2 25 2 25l17.56287 6 123.43713 122 7-16z" transform="matrix(-.9275 0 0 .92755 512.620847 -29.65523)"/>
    <path d="m165.51828 386.34294-80.980445-77.98076s-25.537835 18.46558-27.031576 49C55.30464 401.57906 75.503755 463.36219 78 485.36218c6.648694 58.59651 3 85-7 107.50376 0 0 24.726212-10.07676 51-49.04661 0 0 15.41299 24.88391 17 85.54285 0 0 26.74639-25.67417 29-73 2-42-12.04771-73.53552-14-116-2-44 11.51828-54.01924 11.51828-54.01924z" style="fill:#006bb6;fill-opacity:1;fill-rule:evenodd;stroke:#006bb6;stroke-width:1.07813489px;stroke-linecap:butt;stroke-linejoin:miter;stroke-opacity:1" transform="matrix(-.9275 0 0 .92755 512.620847 -29.65523)"/>
    <path style="fill:#ffd51f;fill-opacity:1;fill-rule:evenodd;stroke:#ffd51f;stroke-width:1.07813489px;stroke-linecap:butt;stroke-linejoin:miter;stroke-opacity:1" d="M115.43938 404.36218s.043-40.57454 17.5001-49.39125l-14.63551-14.09338s-9.50698 4.11348-14.83297 16.48463c-5.325995 12.37116-6.471 33.529-6.471 33.529s-37-24.529-39.654406-27.99847c-.07372 7.81203.462683 16.07126 1.40708 24.48862C61 388.36218 90.493633 409.8518 98.454761 415.36218c8.545239 54 16.545239 92 14.013859 141.49737 3.12566-3.93724 6.31694-8.27249 9.53138-13.04022 0 0 3.76705 6.08182 7.76823 19.56141C134 523.36218 125 465.36218 117.40743 427.86776 120 429.89174 146 448.36218 155.09031 454.4233c-.49171-4.56721-.86884-9.24384-1.09031-14.06112-.1422-3.12842-.20595-6.08506-.20169-8.87852-24.79831-17.12148-38.35893-27.12148-38.35893-27.12148z" transform="matrix(-.9275 0 0 .92755 512.620847 -29.65523)"/>
  </g>
  <path d="m184.74629 341.69911-25.97025-84.40669c7.25867 0 19.57218 10.73307 29.92612 21.67533l-3.02836 2.44087c-7.42007-2.78264-7.42007 4.17512-4.63754 7.42037 2.56144 2.9874 11.1301 3.33536 7.42007-4.22466l3.27635-2.43385c9.18748 9.70952 16.20134 18.7166 16.20134 18.7166l-7.95876 9.27546s-5.95388-2.78263-7.8089 0c-2.2479 3.372 3.71004 10.20301 20.4052 10.20301s23.40114-5.6502 21.33271-9.27546c-1.85502-3.25122-7.79248-.49115-7.79248-.49115l-14.46774-13.42204 15.28113-14.90901 2.80646 2.85091c-1.96602 3.23829 1.3901 9.27546 6.95516 3.71019 5.56505-5.56528-.009-9.44948-3.71004-6.90511l-2.89246-2.73818 19.58762-19.11064 19.58763 19.11064-2.89247 2.73818c-3.70075-2.54437-9.27509 1.33983-3.71003 6.90511 5.56505 5.56527 8.92118-.4719 6.95516-3.71019l2.80645-2.85091 15.28113 14.90901-14.46774 13.42204s-5.93746-2.76007-7.79248.49115c-2.06842 3.62526 4.63755 9.27546 21.33271 9.27546 16.69516 0 22.6531-6.83101 20.4052-10.20301-1.85502-2.78263-7.80889 0-7.80889 0l-7.95876-9.27546s7.01386-9.00708 16.20133-18.7166l3.27636 2.43385c-3.71004 7.56002 4.85862 7.21206 7.42007 4.22466 2.78253-3.24525 2.78253-10.20301-4.63755-7.42037l-3.02836-2.44087c10.35394-10.94226 22.66746-21.67533 29.92612-21.67533l-25.97025 84.40669H184.74629z" style="fill:#ffd51f;fill-opacity:1;fill-rule:evenodd;stroke:#ffd51f;stroke-width:.99999976px;stroke-linecap:butt;stroke-linejoin:miter;stroke-opacity:1" transform="matrix(-1 0 0 1 499.34384 0)"/>
  <g style="stroke:none">
    <path d="m25.214737 219.26304-6.49257-5.56528 4.63755-5.56528v-41.73957l-8.34758-8.34791 9.27509-7.42037C23.824627 6.5209996 13.157117 1.2897286 13.157117 1.2897286c5.46269-.64269398 18.50939 16.8339404 43.7578 47.2793404l-4.80242 3.73569s-8.32413-5.00676-12.05762 3.71018c-2.38362 5.56528 5.80343 15.61668 12.98513 12.98564 8.78654-3.21895 2.78252-12.05809 2.78252-12.05809l5.0003-3.66113c10.27022 12.38418 22.44644 26.67389 36.73761 42.61806l-39.88289 34.319201-6.49256-5.56528s6.80975-7.75677.92751-12.98564c-8.34758-7.42036-17.62267 9.27546-15.277 19.47847 2.46445 10.71967 10.93189 22.2611 30.11714 22.2611 48.667323 0 40.810403-44.52221 40.810403-44.52221h32.46281s-3.71004 46.3773 34.31783 46.3773c20.4052 0 35.23871-4.64083 41.73791-18.55092 6.06727-12.98564-6.05887-30.60902-14.84015-23.18865-6.60475 5.58116.4326 14.84074.4326 14.84074l-5.07014 7.82907-45.44794-43.506441 40.39739-37.93533 3.19553 4.04675c-5.56505 5.0703 2.29402 16.69583 12.44067 7.42037 9.88351-9.03492.54446-18.98779-5.94811-13.42252l-3.70797-3.66025L249.67191.36218262 301.61036 49.135179l-3.70798 3.66025c-6.49256-5.56527-15.83161 4.3876-5.94811 13.42252 10.14666 9.27546 18.00573-2.35007 12.44067-7.42037l3.19553-4.04675 40.3974 37.93533-45.44794 43.506441-5.07015-7.82907s7.03735-9.25958.4326-14.84074c-8.78127-7.42037-20.90742 10.20301-14.84014 23.18865 6.49919 13.91009 21.3327 18.55092 41.7379 18.55092 38.02787 0 34.31783-46.3773 34.31783-46.3773h32.46282s-7.85693 44.52221 40.8104 44.52221c19.18525 0 27.65268-11.54143 30.11714-22.2611 2.34567-10.20301-6.92942-26.89883-15.277-19.47847-5.88224 5.22887.92751 12.98564.92751 12.98564l-6.49256 5.56528-39.88289-34.319201c14.29117-15.94417 26.46739-30.23388 36.73761-42.61806l5.00029 3.66113s-6.00401 8.83914 2.78253 12.05809c7.1817 2.63104 15.36875-7.42036 12.98513-12.98564-3.7335-8.71694-12.05762-3.71018-12.05762-3.71018l-4.80243-3.73569c25.24842-30.4454 38.29511-47.92203438 43.75781-47.2793404 0 0-10.66752 5.231271-11.13011 149.3349014l9.27509 7.42037-8.34758 8.34791v41.73957l4.63754 5.56528-6.49256 5.56528H25.214737z" style="fill:#ffd51f;fill-opacity:1;fill-rule:evenodd;stroke:none;display:inline" transform="translate(.000003)"/>
    <g style="stroke:none">
      <path transform="matrix(.9275 0 0 .92755 107.763043 -33.36541)" d="M177 134.36218c0 13.25484-10.74517 24-24 24s-24-10.74516-24-24c0-13.25483 10.74517-24 24-24s24 10.74517 24 24z" style="color:#000;fill:#baccd6;fill-opacity:1;fill-rule:evenodd;stroke:none;stroke-width:1.07813489;marker:none;visibility:visible;display:inline;overflow:visible"/>
      <path style="color:#000;fill:#baccd6;fill-opacity:1;fill-rule:evenodd;stroke:none;stroke-width:1.07813489;marker:none;visibility:visible;display:inline;overflow:visible" d="M177 134.36218c0 13.25484-10.74517 24-24 24s-24-10.74516-24-24c0-13.25483 10.74517-24 24-24s24 10.74517 24 24z" transform="matrix(.9275 0 0 .92755 -17.450727 -31.51032)"/>
      <path style="color:#000;fill:#baccd6;fill-opacity:1;fill-rule:evenodd;stroke:none;stroke-width:1.07813489;marker:none;visibility:visible;display:inline;overflow:visible" d="M177 134.36218c0 13.25484-10.74517 24-24 24s-24-10.74516-24-24c0-13.25483 10.74517-24 24-24s24 10.74517 24 24z" transform="matrix(.9275 0 0 .92755 232.976813 -31.51032)"/>
      <g style="stroke:none">
        <path d="M499.63559 89.406594c0 12.288126-9.97258 22.261096-22.26022 22.261096-7.88382 0-15.3039-7.88414-15.3039-22.261096 0-12.08285 6.49257-22.2611 15.3039-22.2611 12.28764 0 22.26022 9.97297 22.26022 22.2611zM.63574622 89.406599c0 12.288131 9.97257578 22.261101 22.26021578 22.261101 7.883826 0 15.303898-7.88414 15.303898-22.261101 0-12.08285-6.492563-22.26111-15.303898-22.26111-12.28764 0-22.26021578 9.97298-22.26021578 22.26111z" style="color:#000;fill:#baccd6;fill-opacity:1;fill-rule:evenodd;stroke:none;stroke-width:.99999976;marker:none;visibility:visible;display:inline;overflow:visible" transform="translate(-.46375161)"/>
      </g>
    </g>
    <path d="m23.359716 166.85669 51.940504 20.40602-51.940504 21.33355L9.8493042 186.8514l13.5104118-19.99471zM249.67191 211.60823l-77.91075-24.06606 77.91075-23.69745 77.91076 23.70768-77.91076 24.05583zM475.92258 166.85669l-51.94051 20.40602 51.94051 21.33355 13.51041-21.74486-13.51041-19.99471z" style="fill:#ed1b2d;fill-opacity:1;fill-rule:evenodd;stroke:none" transform="translate(.000003)"/>
    <path transform="matrix(.9275 0 0 .92755 -11.770015 -33.82919)" d="M176.75313 238.86218c0 11.04224-12.64936 19.99374-28.25313 19.99374-15.60377 0-28.25313-8.9515-28.25313-19.99374s12.64936-19.99374 28.25313-19.99374c15.60377 0 28.25313 8.9515 28.25313 19.99374z" style="color:#000;fill:#006bb6;fill-opacity:1;fill-rule:evenodd;stroke:none;stroke-width:1.07813489;marker:none;visibility:visible;display:inline;overflow:visible"/>
    <path style="color:#000;fill:#006bb6;fill-opacity:1;fill-rule:evenodd;stroke:none;stroke-width:1.07813489;marker:none;visibility:visible;display:inline;overflow:visible" d="M176.75313 238.86218c0 11.04224-12.64936 19.99374-28.25313 19.99374-15.60377 0-28.25313-8.9515-28.25313-19.99374s12.64936-19.99374 28.25313-19.99374c15.60377 0 28.25313 8.9515 28.25313 19.99374z" transform="matrix(.9275 0 0 .92755 235.643673 -33.82919)"/>
  </g>
</svg>
