<svg xmlns="http://www.w3.org/2000/svg" viewBox="0 0 900 600"><style>.O{fill:#fff}.P{stroke:#010101}.Q{fill-rule:evenodd}.R{fill:#fed8ae}.S{fill:#fed500}.T{fill:#d4af35}.U{fill:#010101}.V{stroke-linejoin:round}.W{stroke-miterlimit:1.798}.X{stroke-width:.08}.Y{fill:#9b1b2c}.Z{stroke-miterlimit:1.3032}</style><path d="M0 0h900v600H0z" class="T"/><path fill="#205aa9" d="M18.1 19.6H882v560.8H18.1z"/><g class="Q"><g stroke-width=".33" class="P Z"><path fill="#d5af31" d="M471.71 83.23c-25.41-.17-39.34 18.7-39.94 39.17-.59 22.09 10.28 33.82 25.75 37.82.51-1.95.59-4.08.68-7.13-22.86-5.78-13.51-50.4 11.64-50.31 22.18.08 35.61 41.81 11.13 50.48.08 3.15.34 5.35 1.11 7.31 16.66-3.74 27.37-16.31 27.53-37.98 0-20.15-14.87-39.19-37.9-39.35z"/><path d="M471.11 86.54c20.22 0 35.95 16.82 35.95 37.22s-16.31 35.61-36.54 35.61c-20.22 0-35.95-13.09-35.95-36.03.01-20.39 16.32-36.8 36.54-36.8z" class="S"/></g><path d="M452.78 169.12c5.68-3.95 6.67-7.53 7.04-13.71 6.3 5.06 14.33 4.2 19.51.86.62 7.04 2.59 10.13 8.03 12.47-.87 6.31-32.98 6.68-34.58.38zm98.92 97.44c0-.99 0-7.53 1.48-7.53 3.58.12 1.61 25.19 1.85 29.52.25 4.32-.37 5.56-3.71 5.56-7.41.12-2.96-21.86-4.57-34.58-.25-2.22 1.85-1.48 2.35-1.11 1.73 1.36 1.11 22.6 1.73 22.72 1 .24 1-11.36.87-14.58z" class="O"/><g class="P"><path d="m510.45 168.51 10.62-13.46c-12.6-30.26-1.73-81.63 32.36-65.21 55.95 29.89 30.63 162.03 32.23 207.97 1.61 44.95 5.19 93.98 15.31 129.55-2.96-1.24-8.89-.37-10.13-.37.86 11.49 5.31 22.48 7.04 30.26-12.97-.12-24.58-17.29-29.64-30.13l-4.57 4.2-.74-5.19 5.19-4.82c-11.12-25.19-19.14-40.88-24.33-132.64 10.13-15.07 13.09-32.73 10.13-63.97-2.46-26.8-7.9-57.31-43.47-56.19z" class="T"/><path d="M564.67 245.82c-1.85.25-.49-12.6-.99-23.96l-3.83.62c.62 26.18-2.84 42.85 5.06 41.74 6.92-.99 4.82-9.76 5.43-43.47l-3.95.74c-.49 13.09 1.12 23.83-1.72 24.33z" class="O"/></g><path d="M401.03 218.89c-49.4 52.24-30.01 18.9-51.13 40.26-6.3 6.42-1.85 13.59 5.43 19.27 8.52 6.79 12.35.25 15.68-6.17 3.95-2.1 5.56-4.82 6.55-8.77 7.04-4.2 12.84-6.55 21.49-13.46-.25 10.25-5.06 98.43-6.55 109.17 2.96 28.65 11.73 54.83 26.55 82.25l7.16 7.41c.37 11.86 1.23 22.85 1.48 26.18 1.98 21.37-21.74 15.44-22.23 41.74 32.23-3.33 21.98-8.65 40.01-19.51 13.71-8.27.99-12.84 5.43-34.33 9.88 5.06 25.07 5.93 31.74 5.19.25 7.04-8.15 17.17 4.2 23.71 7.66 4.08 10 22.97 36.06 18.77.74-21.24-20.75-13.96-21.61-46.56 9.39-1.98 46.07-22.35 67.31-42.36-12.72-27.05-18.28-41.13-24.45-132.76 12.23-20.5 12.6-38.9 10.87-63.97-11.86-95.84-73.24-29.64-74.22-71.63 24.45-8.65 11.12-50.26-10.99-50.26-25.19-.12-34.21 44.46-11.49 50.14-.6 37.54-39.63-19.27-57.29 65.69z" class="U"/><g class="O P"><path d="M539.6 179.5c2.47 3.33 4.2 5.56 6.42 9.51 8.65.74 2.59-24.08-3.46-53.11l-1.85 4.94c4.08 23.22 6.18 33.1 3.33 33.72-1.61.37-2.96-16.18-5.31-29.89l-2.72 8.4c3.84 22.72 3.59 26.43 3.59 26.43zm4.94-47.55c7.53 27.42 11.61 44.09 17.04 40.76 9.76-6.18-.12-33.72-12.6-51.5l-1.73 3.83c4.08 8.77 13.46 32.11 10.62 33.59-1.36.74-6.55-18.03-11.73-30.88l-1.6 4.2z" class="V"/><path d="M567.63 320.66c-6.55.86-7.29-15.19-8.15-50.02l3.33-.62c.62 8.77-.49 27.17 1.98 26.92 2.84-.25 1.73-11.49 1.36-27.54l3.71-.86c.49 33.72 4.2 51.25-2.23 52.12zm-14.08 9.51c-1.61 0-1.48-18.4-2.47-25.81l-3.46.49c3.46 43.84 3.09 50.88 8.03 50.64 6.3-.37 4.32-6.92 1.23-51.75l-3.46.25c.63 8.89 2.6 26.18.13 26.18zm3.83 55.57 6.05 19.76c3.33-1.73 3.21-6.05-4.69-44.95l-3.83.74c2.6 13.09 5.44 23.59 2.47 24.45zm-7.28-109.67c.99-2.35 2.22-7.41 3.46-10.87 1.85 23.34 2.22 33.1-2.72 33.96-5.43.86-4.57-5.56-5.31-12.84l2.35-5.31c.86 2.1.37 6.92 1.73 6.3 1.72-.86.86-9.01.49-11.24z"/></g><path d="M427.09 220.75s0 1.73 2.22 1.98c-.49 15.68 2.47 27.29-.25 35.69-4.57 14.33-8.89 28.78-15.44 109.79-.62 7.29 7.04 9.26 9.51 10.62 2.35 20.5 5.06 14.7 4.94 19.88-.12 2.84-2.59-2.47-1.85 47.67l-6.18-6.42c-14.2-24.95-23.09-54.22-25.94-80.4 3.83-48.17 5.19-81.76 6.55-110.78 7.66-4.82 14.45-10 20.38-15.07 2.97-5.8 4.83-8.76 6.06-12.96z" class="Y"/><g class="P W X"><path d="M453.89 413.78c2.47 16.55-17.91 26.43-26.06 19.88-.86-14.7.62-28.28.62-28.28 14.57-3.83-1.24 2.35-3.21-26.18 9.51 2.96 16.55 2.96 27.79 2.96 3.21 14.2-9.39 21.24.86 31.62z" class="R"/><path d="m427.83 436.38.37 20.5c8.52 6.18 18.4-.12 21.12-4.32.12-10.74 4.57-18.77 3.58-25.32-3.21 5.19-14.94 14.82-25.07 9.14z" class="O"/><path d="M449.32 455.03c-5.43 6.67-13.83 7.9-21.12 4.57.49 6.67 1.11 13.83 1.11 19.88 4.94 2.59 15.93-2.1 18.53-5.93.12-6.67 1.6-11.85 1.48-18.52z" class="R"/><path d="M448.09 476.27c-3.71 2.84-7.29 6.92-19.02 5.8-3.21 14.08-20.13 13.83-21.86 32.11 27.05-1.23 22.6-11.73 36.19-18.4 10.24-4.94 5.67-10.37 4.69-19.51z" class="O"/><path d="M499.59 379.57c-6.42 1.85-13.83 2.59-27.66 2.47-1.73 18.65 5.93 15.56 4.32 22.48-4.82 20.25 16.8 23.96 24.33 13.71 1.35-7.79.86-16.06-.99-38.66zm-4.57 20.13c.74 2.1-4.94 13.09-8.89.86 2.09.99 7.03.13 8.89-.86z" class="R"/><path d="M476.61 419.58c-.37 6.92-.62 10.5.37 17.78 1.98 15.81 17.91 13.59 23.84 7.04l-.37-23.71c-2.47 5.19-17.66 8.4-23.84-1.11z" class="O"/><path d="M483.9 465.65c-1.61-6.05-2.47-8.89-3.33-17.17 6.79 4.32 12.6 4.2 20.25-1.48.37 6.79-1.23 18.77-1.23 18.77-4.57 3.95-10.13 3.34-15.69-.12z" class="R"/><path d="M499.83 468.12c2.84 29.15 22.6 24.95 21.37 40.14-22.72 3.33-25.56-14.08-33.35-18.28-11.73-6.3-3.46-12.72-3.83-21.74 6.3 3.83 11 3.09 15.81-.12z" class="O"/></g><g class="O"><path d="M450.8 177.89c-1.48 1.36-3.21 1.98-6.79 2.1.12 7.04-.86 16.18-2.72 21.74.74 3.46-.37 5.68-2.59 17.78-.62 2.96-1.85 3.58-7.78 3.21l.74 28.65c28.16 0 16.67 5.56 50.76 5.68a140.8 140.8 0 0 1-1.73-18.53c-3.46.99-6.79 3.09-11.49 3.09-13.83 0-26.31-9.88-26.31-23.96 0-14.2 10.87-25.19 24.82-25.19 4.94 0 9.02 1.61 9.02 1.61-7.28-4.82-14.69-10.62-25.93-16.18zm32.11 81.39 1.48 6.42c-29.15 4.94-22.97-6.79-53.72-6.55l.99-5.19c23.96.01 21.12 5.32 51.25 5.32zm-52.86 1.85-1.85 8.15c8.27-1.23 17.91 8.4 26.68 15.93 8.27 7.04 30.01 3.71 34.46-4.82-2.22-3.7-3.83-9.88-4.57-12.47-35.2 4.7-18.41-6.3-54.72-6.79zm41.87 29.39c-7.04.99-11.86-.86-16.8-2.59-3.09 23.22-3.83 36.06-5.06 68.05-.12 3.95 23.22 3.21 23.09 0l-1.23-65.46zm-33.59-15.8s-10.25-7.53-11.24-1.61c-4.45 22.97-6.92 42.11-9.76 75.46-.62 2.84 13.09 7.41 13.34 4.45 2.97-42.61 7.66-78.3 7.66-78.3zm9.88 88.67c-3.46 1.85-10.87 1.73-15.93-1.36-.37 4.82-.37 8.15-.62 14.82-1.36 3.46 16.3 4.08 16.67 2.1l-.12-15.56zm25.69-72.87c4.2-.49 10-2.72 12.97-5.19 0 0 7.29 48.91 8.4 70.27.37 3.21-19.14 4.45-19.76.37l-1.61-65.45zm14.45-6.54 1.61-2.1c3.46 7.9 9.02 14.33 13.59 18.15l6.05 51.38c.49 2.59-11.86 6.55-12.47 3.95-1.74-20.87-8.78-71.38-8.78-71.38zm-58.3 77.43c-8.03-.74-11.12-4.82-13.21-9.39-.74 7.41-1.23 12.84-1.23 18.4 0 2.96 14.08 9.88 14.08 6.3l.36-15.31zm43.11 2.23c-2.1 4.69-20.62 5.06-22.85-.62-.12 5.31 0 10.25.49 15.07.25 3.33 22.97 2.84 22.85.37l-.49-14.82zm2.59.37c2.22 3.33 20.75 2.22 20.87-.99 1.11 5.68.99 7.41 1.85 13.46 1.23 1.73-15.93 4.94-22.11 2.47-.61-5.31-.36-9.39-.61-14.94zm22.72-1.98c2.84 1.73 11.73-3.46 11.86-6.79.74 3.95 1.73 9.88 1.98 13.96-2.47 2.72-6.67 6.79-11.86 7.04l-1.98-14.21zm-45.07-75.46c-2.35-1.73-6.92-7.9-13.46-10.99-2.96 23.34-5.31 49.4-6.92 77.93-.25 3.09 14.82 5.68 14.94 1.48 1.24-28.4 2.72-49.15 5.44-68.42zm13.4-78.8c2.18 0 4.29-2.24 3.76-6.19-.45-3.71-2.49-6.88-3.76-7.2-1.43.39-3.31 3.63-3.77 7.2-.37 3.95 1.58 6.19 3.77 6.19zm-9.33 9.51c0-2.24-2.18-4.34-6.02-3.79-3.69.46-6.78 2.56-7.07 3.79.38 1.47 3.53 3.4 7.07 3.79 3.84.46 6.02-1.55 6.02-3.79zm9.33 9.51c-2.18 0-4.22 2.24-3.77 6.19.45 3.71 2.49 6.88 3.77 7.2 1.43-.39 3.31-3.63 3.76-7.2.46-3.95-1.58-6.19-3.76-6.19zm9.33-9.51c-.07 2.24 1.8 4.34 5.04 3.79l.68-7.66c-.07.08-5.42-1.39-5.72 3.87zm-15.96-6.73c1.58-1.55 1.5-4.64-1.66-7.04-2.94-2.32-6.55-3.09-7.68-2.4-.75 1.31.15 4.95 2.33 7.81 2.56 3.1 5.5 3.18 7 1.63zm0 13.46c-1.58-1.55-4.52-1.47-6.92 1.7-2.26 3.02-3.01 6.73-2.33 7.81 1.28.77 4.89-.16 7.68-2.4 3.01-2.55 3.16-5.57 1.58-7.12zm13.63.39c-1.28 1.78-1.43 4.64 1.66 7.04 1.73 1.31 3.69 2.17 5.19 2.47l.07-7.89c0 .08-3.46-6.34-6.92-1.62zm-.38-13.85c1.58 1.55 4.52 1.47 6.92-1.7 2.25-3.02 3.01-6.73 2.33-7.81-1.28-.78-4.89.16-7.68 2.4-3.01 2.47-3.16 5.49-1.58 7.12zM458.3 196.4c1.58-.69 3.16-1.01 3.61 1.08.38 1.94-.45 4.1-1.28 4.64-1.13.23-3.08-.78-4.14-2.32-1.06-1.85.22-2.78 1.8-3.4zm-11.97 29.55c-.68-1.62-.98-3.25 1.05-3.63 1.88-.39 4.06.46 4.52 1.31.23 1.16-.75 3.17-2.33 4.18-1.66 1.08-2.63-.24-3.24-1.86zm29.12 12.61c-1.58.69-3.16.93-3.61-1.08-.38-1.94.45-4.1 1.28-4.64 1.13-.23 3.08.78 4.14 2.32 1.06 1.85-.22 2.78-1.8 3.4z"/><path d="M446.34 208.62c.68-1.62 1.58-3.02 3.31-1.85 1.66 1.08 2.56 3.25 2.33 4.18-.6 1.01-2.71 1.7-4.52 1.31-2.11-.47-1.8-2.02-1.13-3.64zm12.27 29.55c-1.58-.69-2.94-1.62-1.8-3.4 1.05-1.62 3.16-2.56 4.14-2.32.98.62 1.66 2.79 1.28 4.64-.45 2.09-2.04 1.78-3.61 1.08zm16.71-41.77c1.58.69 2.94 1.62 1.8 3.4-1.05 1.62-3.16 2.56-4.14 2.32-.98-.62-1.66-2.79-1.28-4.64.45-2.09 2.03-1.78 3.61-1.08z"/></g><path stroke-miterlimit="10" stroke-width=".03" d="M355.74 261.45c-5.86 4.33-7.13 1.19-2.38-3.23 4.76-4.34 7.65-6.03 14.96-5.1 10.88-10.2 23.62-21.59 33.65-32.55 1.11-1.27 1.27-3.99 1.62-4.93.76 1.19 9.52 3.65 10.62 1.53.17 2.46 9.43 3.91 10.79 3.15-1.44 4.67-2.72 6.97-5.18 11.39-12.92 10.45-37.64 28.47-42.92 29.48-2.46 6.29-4.51 8.16-6.63 7.91-4.09-.43-8.17-8.5-14.54-7.65z" class="P R"/><path d="M481.92 237.54c.49 31.62 12.23 65.08 37.79 66.69 14.2.86 36.93-20.87 34.95-65.83-1.85-42.36-11.73-67.18-36.06-68.67-27.04-1.59-39.15 38.17-36.68 67.81zm36.31-59.4c14.82 0 26.8 26.18 26.8 58.54s-11.98 58.54-26.8 58.54-26.8-26.18-26.8-58.54 11.98-58.54 26.8-58.54z" class="S"/><path d="M469.57 115.65c12.84 0 14.82 10 13.46 21.49-1.36 10.74-5.06 19.02-13.34 18.77-7.41-.25-12.1-8.03-13.83-18.77-1.85-11.74 1.49-21.49 13.71-21.49z" class="P R W X"/><path d="M472.29 130.34c1.73-1.61 3.09-2.22 3.83-2.84a4 4 0 0 1 4.94.25c.12.74-1.98.25-2.59.37-2.23.37-3.58 1.61-6.18 2.22zm-9.01-1.6c1.48.74 2.84 1.73 4.69 1.11-2.59-2.1-8.15-3.58-10.5-1.73 3.09.5 3.21-.12 5.81.62z" class="U"/></g><g class="U"><path d="M473.64 146.82c-.99 1.85-5.56 2.47-7.53.12a3.3 3.3 0 0 1 3.95-1.48c1.6-.37 2.71.12 3.58 1.36zm-5.42-15.12zm0 0zm0 0c-.12-.25-.12-.62 0-.86s.37-.25.49-.12l.12.12c.99 1.48 0 5.8-.37 7.41v.12c-.12.49-.12.86-.12 1.24a1.09 1.09 0 0 0 .37.86c.12.25.25.49.12.86-.12.25-1.11-.86-1.11-1.48 0-.49 0-1.11.12-1.73v-.25c.25-1.35 1.12-5.3.38-6.17zm8.89 2.1zm0 0c-.37 0-.74 0-1.11-.12-.25 0-.37-.12-.62-.25-.12-.12-.37-.12-.49-.25-.62-.37-.99-.86-1.11-1.36 0-.12.12-.25.25-.37l.37-.37c.62-.62 1.73-.86 2.84-.74h.99c.25 0 .37.12.62.12.86.25 1.48.62 1.85 1.24 0 .12-.12.12-.12.25l-.37.37a5.3 5.3 0 0 1-3.1 1.48zm-1.36.5a4.5 4.5 0 0 0 1.36.25 5.64 5.64 0 0 0 3.46-1.61c.12-.12.25-.37.37-.49s.25-.37.25-.49v-.25c-.37-.86-1.24-1.48-2.35-1.85-.25 0-.49-.12-.74-.12s-.49 0-.74-.12h-.37c-1.36 0-2.47.25-3.33.86-.12.12-.37.25-.49.49-.12.12-.25.37-.37.62v.37c.12.62.62 1.36 1.48 1.85.25.12.37.25.62.37.48-.01.6.12.85.12zm1.36-4.7zm.12 0c-.12 0-.12 0 0 0z"/><path d="M476.86 129.97c-1.11 0-1.85.86-1.85 1.98 0 1.11.86 1.98 1.85 1.98s1.85-.86 1.85-1.98c0-1.11-.86-1.98-1.85-1.98z" class="Q"/><path d="M462.66 133.8zm0 0c.37 0 .86 0 1.23-.12.25 0 .37-.12.62-.25.25-.12.37-.12.49-.25.62-.37.99-.86 1.11-1.24-.12-.12-.12-.25-.25-.37l-.37-.37c-.62-.49-1.73-.74-2.96-.74h-1.11c-.25 0-.49.12-.62.12-.86.25-1.61.62-1.85 1.24 0 .12.12.12.12.25l.37.37c.87.62 1.98 1.24 3.22 1.36zm1.36.5c-.37.12-.86.12-1.36.12-1.36-.12-2.72-.74-3.46-1.48-.12-.12-.25-.37-.37-.49s-.25-.37-.25-.49v-.25c.37-.86 1.23-1.48 2.35-1.73.25 0 .49-.12.74-.12s.49 0 .74-.12h.37c1.36 0 2.59.25 3.33.86.12.12.37.25.49.49.12.12.25.37.37.49v.37c-.12.62-.74 1.36-1.48 1.85-.25.12-.37.25-.62.37-.36 0-.61 0-.85.13zm-1.36-4.57zm0 0z"/></g><path d="M454.88 382.16h14.94c-.12 22.35 5.31 15.07 4.94 35.94-.62 29.52 3.95 28.41 7.41 47.79-10.62 1.36-21.49-.99-31.62-5.06-.62-20.25 9.76-39.27 2.96-51.13-5.42-9.88 2.97-6.54 1.37-27.54zm46.43 79.78c11.73-2.22 50.51-26.68 65.46-41.13-17.78-41.25-18.28-61.75-23.59-129.8-14.08 17.91-27.29 16.92-38.04 10 0 0 5.19 46.44 8.65 66.69.86 5.19-12.35 10.87-12.35 10.87.37 22.36 3.58 11.62-.13 83.37z" class="Y"/><g class="O"><path d="m516.5 168.26 10.74-10.37c-21.61-68.54 35.32-96.82 55.33-2.47 6.79 32.23.25 75.95-.37 130.29-.49 46.07 6.55 102.63 14.45 136.59l-4.2.12c-15.31-78.79-20.01-109.79-18.03-189.45 1.48-58.05-4.94-104.11-27.54-117.82-6.3-3.83-11.36 18.65-13.96 36.06-2.1 13.96 2.72 18.4 4.08 25.56-5.06-4.56-10.74-7.52-20.5-8.51z" class="P Q"/><path d="M475.38 217.04c0 4.69-3.58 8.4-7.9 8.4-4.45 0-7.9-3.71-7.9-8.4s3.58-8.4 7.9-8.4 7.9 3.83 7.9 8.4z"/></g><path d="M450.93 170.36c1.85 1.36 2.1 4.2.86 6.55 2.96 1.85 19.51 9.88 33.35 21.98 4.45-12.6 10.99-23.71 22.23-28.78-6.18-.12-15.31 1.36-19.88-.37-1.86 5.06-34.09 3.95-36.56.62zm-41.01 24.33c5.93-13.59 14.08-24.7 29.27-24.7-4.45 2.47-2.72 8.77 3.09 9.76.12 6.79-.62 15.07-2.22 20.13-1.36-1.85-8.03-3.46-10.37-.49-.37-2.96-8.52-4.45-10.99-1.24-1.24-2.97-5.07-4.33-8.78-3.46z" class="Y"/><path d="m434.75 200.49 1.48.25c2.1.37 3.58 2.47 3.21 4.69l-2.1 11.73c-.37 2.22-2.47 3.58-4.57 3.21l-1.48-.25c-2.1-.37-3.58-2.47-3.21-4.69l2.1-11.73c.37-2.22 2.34-3.7 4.57-3.21zm-11.12-1.48 1.61.37c2.1.49 3.46 2.59 2.96 4.69l-2.59 10.87c-.49 2.1-2.59 3.46-4.82 3.09l-1.61-.37c-2.1-.49-3.46-2.59-2.96-4.69l2.59-10.87c.5-2.1 2.72-3.46 4.82-3.09zm-10.62-2.1.99.25a4 4 0 0 1 2.84 4.82L414 212.84a3.9 3.9 0 0 1-4.82 2.84l-.99-.25a4 4 0 0 1-2.84-4.82l2.84-10.87c.5-2.09 2.6-3.45 4.82-2.83z" class="O"/><g class="P"><path d="M357.93 263.23c.12 1.24-1.61 3.71-3.7 5.56-2.22 1.73-4.08 2.22-4.2.99-.12-1.24 1.61-3.71 3.71-5.56s4.07-2.35 4.19-.99zm4.08 1.98c.25 1.36-1.73 4.45-4.45 6.79-2.72 2.47-5.06 3.33-5.31 1.98-.25-1.36 1.73-4.45 4.45-6.79 2.71-2.48 5.06-3.34 5.31-1.98zm2.47 4.32c.12 1.36-1.48 3.95-3.83 5.93-2.22 1.98-4.2 2.47-4.45 1.11-.12-1.36 1.48-3.95 3.83-5.93 2.35-1.85 4.32-2.47 4.45-1.11zm4.07 2.59c.12 1.24-1.48 3.71-3.71 5.56-2.22 1.85-4.08 2.35-4.32 1.23-.12-1.23 1.48-3.7 3.71-5.56 2.22-1.85 4.2-2.34 4.32-1.23z" class="R W X"/><path d="m424.74 158.13 8.65 10.37c-10.37 2.72-23.09 7.66-32.36 50.39-8.77 9.39-16.18 16.67-24.33 24.08-6.05 4.94-9.39 8.52-16.67 7.9-8.03 5.56-14.45 10.62-12.97 16.67l-5.8 2.22-8.15-13.96 8.27-6.18c-5.93-4.57-9.26-14.7-9.51-22.35-11.86-11.73-14.45-17.91-16.43-34.21-10.5-8.4-16.18-26.68-16.43-48.91 14.33 10.25 25.69 23.47 28.53 41 9.88 8.52 15.44 14.57 17.91 33.72 7.04 4.82 9.02 10.87 10.5 20.62l2.35-1.73c-29.27-172.62 91.51-191.64 66.44-79.63z" class="T"/><g class="Q"><path d="M391.77 193.33c-.99 12.47-.62 35.69-.62 35.69 4.08-4.32 6.79-6.67 9.63-10l1.61-7.16c-.25-6.3-.12-12.72-.62-17.29l-3.46-.49c-.49 9.39 1.36 20.62-1.48 19.64-2.22-.74-1.61-20.01-1.61-20.01s-2.34-.38-3.45-.38zm-7.53-21c5.93.74 7.66-10.99 15.68-40.26l-2.22-4.69c-8.65 21.37-10.13 33.47-11.98 29.27-1.48-3.58 7.04-22.97 9.51-32.73l-2.1-3.95c-7.54 8.77-22.85 50.76-8.89 52.36zm14.32 16.92c6.18 1.85 11.98-23.47 11.98-35.2l-3.46-9.14c-1.73 16.8-3.71 30.13-6.05 29.15-3.09-1.24 2.35-15.44 3.83-32.97l-2.1-4.69c-8.64 39.02-15.19 49.64-4.2 52.85z" class="O V"/><path d="m341.85 267.23-6.12-10.45 27.79-19.89 5.35 9.18c-5.44 4.42-4.51 3.06-9.52 2.21-2.72 2.04-15.55 8.75-14.45 17.85l-3.06 1.1z" stroke-width=".33" class="S Z"/></g></g><path d="M451.05 173.94c0 2.59-2.84 4.69-6.3 4.69s-6.3-2.1-6.3-4.69 2.84-4.69 6.3-4.69 6.3 2.1 6.3 4.69z" class="S"/><g class="P"><g class="O"><path d="m428.45 169.74-9.76-8.77c20.25-100.16-78.3-89.04-56.32 73.36l1.11-.74 7.29 12.72c-3.46-93.49 13.34-129.55 26.31-131.65 5.56-.99 15.56 32.97 16.06 38.53 1.85 20.5-7.41 26.55-7.04 46.31 4.32-12.35 8.27-22.84 22.35-29.76z"/><path d="M377.57 174.19c-2.47 28.03-4.94 39.15 2.96 40.14 7.16.99 5.56-4.94 7.41-37.05l-3.46-1.24c-1.85 15.93-1.73 23.59-4.32 22.72-1.98-.62.74-15.44.86-23.47l-3.45-1.1zm-2.97 43.1c-.37 8.03-.86 17.04-.37 27.54 6.05-5.19 8.03-7.16 12.84-11.86 0-5.68 0-8.4-.62-14.2l-3.95-.37c-.25 5.31 1.11 18.9-1.85 19.64-2.22.49-1.61-6.05-2.1-20.25l-3.95-.5z" class="Q V"/></g><path d="M361.02 281.38c2.59-.12 4.82.74 10.13-9.02a12.6 12.6 0 0 0 6.55-9.02c7.04-4.32 10.87-5.43 21.61-13.71l-3.95 109.8c1.24 17.17 4.32 34.81 4.32 34.81l-16.92 38.9c-1.23-1.36-2.59-2.72-3.95-5.06-6.3 11.86-13.09 23.84-29.52 29.89l4.32-31.99c-3.09-.12-5.31.74-7.66 1.48 14.2-54.69 16.8-100.75 15.07-146.08z" class="T"/><g class="O"><path d="M377.81 269.03c-1.85 49.89-4.45 48.91 2.47 49.52 8.15.74 5.06-7.29 8.15-56.81l-3.83 2.72c-1.85 22.97-.49 27.79-2.84 28.78-2.1.86-.99-6.3-.49-26.92l-3.46 2.71zm.99 76.95c1.85-.12 1.36-5.93 2.22-21l3.71.12c-1.24 32.36-2.35 47.05-8.52 46.31-6.79-.86-3.09-20.01-.99-46.93l3.33.25c-1.35 16.43-1.85 21.37.25 21.25zm9.64 51.87c1.85-1.36 4.94-22.48 4.94-22.48l1.98 9.26c-4.2 22.48-10.13 40.26-14.33 36.8-2.72-2.22 1.73-16.43 7.66-62.49l2.84 1.48c-.13 11.37-6.8 40.27-3.09 37.43zm-20.88 19.14c2.1 1.24 6.67-21.49 9.76-39.15l3.21.49c-2.47 21.61-8.4 54.22-18.9 66.44-6.79 7.78-1.23-32.97 8.89-67.8l3.58.49c-4.81 25.08-8.88 38.17-6.54 39.53z" class="Q"/><path d="M364.97 287.93c2.22 1.61 4.57 2.59 6.3 2.22-3.58 46.81-3.58 85.09-16.55 132.02l-4.69.37c10.12-40.5 14.32-81.38 14.94-134.61zm28.53 42.24c-2.59-.37-1.73-3.21-1.11-21.74l-2.47-.86c-2.22 41.25-2.22 46.93 1.48 47.55.62-.01 1.85-20.01 2.1-24.95zm2.59-48.29c-2.59 0-1.48-9.51-.99-24.7l-2.84 1.98c-1.61 36.8-3.09 43.35 1.85 43.72 1.24.12.99-2.85 1.98-21z"/></g><path d="M363.61 283.85c8.03-4.2 5.43-6.05 9.02-9.14 1.36 11.49 1.48 18.04-9.02 9.14z" class="S"/><path d="m561.95 177.89-4.32 1.61c.49 21.24.49 36.8 7.16 36.43 7.41-.49 5.93-4.69 3.71-40.01l-3.58.99c.25 8.52 1.48 21.98-.99 21.74-1.48-.13-1.48-12.24-1.98-20.76z" class="O Q"/><g stroke-width=".69"><path fill="#96995f" d="M510.82 181.72c-7.53 4.2-16.3 21.24-17.91 44.58l19.64 1.98-1.73-46.56zm14.7-.49-2.1 47.05 20.13-1.85c-1.85-24.09-9.51-38.41-18.03-45.2zm-2.1 57.3 1.73 53.48c10.62-6.92 18.4-26.43 18.77-51.75l-20.5-1.73zm-31 1.85c1.24 25.32 7.9 43.23 18.03 50.88l2.1-52.73-20.13 1.85z"/><path d="m492.79 227.42 20.62 1.73-1.61-48.04c3.33-2.84 8.77-2.72 12.72-.37l-1.85 48.41 21.24-1.73c.12 3.33.25 8.89 0 11.49l-21.37-1.36 1.61 54.71c-4.32 3.21-10.5 1.36-12.97-.62l2.1-54.22-21 1.73c.27-10.99.39-9.76.51-11.73z" class="S"/></g><path d="M459.69 152.94c6.3 7.16 14.82 6.92 19.64 0 .49 7.66 1.36 11.98 7.16 16.06-5.93 3.46-30.38 2.96-36.43 0 6.05-.86 9.26-4.57 9.63-16.06z" class="R W X"/></g><linearGradient id="A" x1="469.64" x2="469.64" y1="106.63" y2="130.78" gradientUnits="userSpaceOnUse"><stop offset="0" stop-color="#7e5827"/><stop offset="1" stop-color="#010101"/></linearGradient><path fill="url(#A)" d="M448.58 130.84c2.72-32.73 39.03-31.37 42.11-.86l-4.82.12c1.24-23.34-34.33-23.59-32.36.62l-4.93.12z"/><path d="M418.82 352.64c2.72 3.83 5.56 6.18 11.24 6.55.49-.99.25-1.61 0-2.59-6.67-.13-8.28-2.47-11.24-3.96zm90.65 1.86c-2.72 3.83-5.19 5.56-10.99 5.93-.25-.62-.49-1.48-.49-2.47 6.78-.13 8.51-1.86 11.48-3.46zm-76.7 2.1c4.08 2.84 9.88 4.2 15.19 1.73 0 1.11.12 1.73-.12 2.84-3.83 1.98-11.24 1.36-15.19-1.73-.25-1.36 0-2.1.12-2.84zm17.54 2.22c4.08 3.83 16.55 2.84 22.72.25.25.99.37 1.85 0 2.84-5.68 4.2-18.4 4.45-22.72-.74-.37-1.61-.12-1.61 0-2.35zm25.56.49c5.93 2.47 15.31 1.98 19.64-.99.37.74.99 1.23.49 2.96a21.1 21.1 0 0 1-19.88.86c-.37-.73-.49-1.72-.25-2.83z" class="O"/><g class="Q"><path d="M462.78 130.1c-1.11 0-1.85.86-1.85 1.98 0 1.11.86 1.98 1.85 1.98s1.85-.86 1.85-1.98-.86-1.98-1.85-1.98z" class="U"/><g class="P"><g class="O"><path d="M568.99 346.72c-1.85-.12-1.36-5.93-2.22-21l-3.71.12c1.24 32.36 2.1 45.82 8.27 45.08 6.79-.86 3.33-18.9 1.23-45.82l-3.33.25c1.24 16.55 1.86 21.49-.24 21.37zm10.13 68.91c-2.1 1.23-6.67-21.49-9.76-39.15l-3.21.49c2.47 21.61 8.4 54.22 18.9 66.44 6.79 7.78 1.24-32.97-8.89-67.8l-3.58.49c4.93 25.08 9.01 38.05 6.54 39.53z"/><path d="M554.05 193.82c.99 12.47.62 35.69.62 35.69-.25-4.2-2.1-20.62-4.2-28.53 0-3.33-.12-6.67-.12-6.67s2.71-.49 3.7-.49z" class="V"/></g><path d="M315.08 163.07c12.97 11.61 9.51 39.4 14.08 26.8 20.62 16.67 9.88 44.34 17.29 32.6 4.57 4.08 7.29 11.73 7.53 18.77l-9.88 7.04c-7.29-5.06-9.76-19.39-10.74-29.76-.25 9.26-15.07-4.2-15.81-31.12-6.05 1.85-11.36-11.61-12.1-16.43 9.88 7.53-5.31-7.66-3.95-22.6-.13.13 9.62 11.12 13.58 14.7z" class="S"/></g></g></svg>