<?xml version="1.0" encoding="UTF-8" standalone="no"?>
<!-- Created with Inkscape (http://www.inkscape.org/) -->

<svg
   xmlns:dc="http://purl.org/dc/elements/1.1/"
   xmlns:cc="http://creativecommons.org/ns#"
   xmlns:rdf="http://www.w3.org/1999/02/22-rdf-syntax-ns#"
   xmlns:svg="http://www.w3.org/2000/svg"
   xmlns="http://www.w3.org/2000/svg"
   version="1.1"
   width="450"
   height="300"
   viewBox="0 0 441.09208 294.06121"
   id="svg2">
  <metadata
     id="metadata12">
    <rdf:RDF>
      <cc:Work
         rdf:about="">
        <dc:format>image/svg+xml</dc:format>
        <dc:type
           rdf:resource="http://purl.org/dc/dcmitype/StillImage" />
        <dc:title></dc:title>
      </cc:Work>
    </rdf:RDF>
  </metadata>
  <defs
     id="defs10">
    <style
       type="text/css"
       id="style3005-1" />
    <style
       type="text/css"
       id="style6-7" />
    <style
       type="text/css"
       id="style3005" />
    <style
       type="text/css"
       id="style6" />
  </defs>
  <rect
     width="441.09207"
     height="294.0614"
     x="0"
     y="-0.00013812925"
     id="rect3043"
     style="fill:#ffffff;fill-opacity:1;stroke:none" />
  <rect
     width="441.09207"
     height="147.0307"
     x="0"
     y="73.515213"
     id="rect3817"
     style="fill:#ffd500;fill-opacity:1;stroke:none" />
  <rect
     width="441.09207"
     height="49.010048"
     x="0"
     y="122.52554"
     id="rect3819"
     style="fill:#005bbb;fill-opacity:1;stroke:none" />
  <g
     id="g4032"
     style="stroke-width:0.7351535;stroke-miterlimit:4;stroke-dasharray:none">
    <path
       d="m 281.37771,68.201485 9.09534,-1.06844 c 4.69792,-0.954671 8.59823,4.885888 7.83523,8.423859 -1.79434,4.359087 -3.21645,7.32574 -3.21645,12.118881 l 0,15.320495 11.43379,17.57608 c -2.25188,13.06243 -1.35162,25.67348 0.98188,38.08173 l -17.74427,10.24169 c -11.02323,8.60564 -4.62372,24.22045 7.92921,25.4546 0.0458,7.31832 -2.85041,13.42475 -9.87688,17.83083 -7.83276,4.91062 -15.26485,8.38676 -21.42074,15.76196 -1.36152,8.54134 -7.00793,12.60982 -13.46927,13.24668 -2.69955,11.98409 -21.65199,8.07514 -32.37968,20.34612 -10.72644,-12.27098 -29.67889,-8.36203 -32.37967,-20.34612 -6.4601,-0.63686 -12.10651,-4.70534 -13.46927,-13.24668 -6.15589,-7.3752 -13.58798,-10.85134 -21.4195,-15.76196 -7.02648,-4.40608 -9.92264,-10.51251 -9.87813,-17.83083 12.55418,-1.23415 18.95245,-16.84896 7.92921,-25.4546 l -17.74303,-10.24169 c 2.33227,-12.40825 3.23253,-25.0193 0.98188,-38.08173 l 11.43256,-17.57608 0,-15.320495 c 0,-4.793141 -1.42212,-7.759794 -3.21645,-12.118881 -0.76176,-3.537971 3.1373,-9.37853 7.83646,-8.423859 l 9.09535,1.06844 121.66243,0 z"
       id="path3027"
       style="fill:#ffd300;fill-rule:evenodd;stroke:#800000;stroke-width:0.7351535;stroke-miterlimit:4;stroke-dasharray:none" />
    <path
       d="m 268.11619,229.12167 -1.00413,-3.46377 c 4.71523,-8.4894 12.65062,-9.68521 19.37413,-15.135 5.52275,-4.47656 7.98362,-9.51085 7.82904,-15.02123 -6.69259,-1.50991 -11.71079,-7.7499 -11.71079,-15.21538 0,-6.66043 3.99675,-12.34518 9.61101,-14.56615 l 0,3.235 c -3.90896,1.93284 -6.59861,5.96051 -6.59861,10.61391 0,7.54092 6.85336,12.80026 14.01833,11.66876 1.68057,9.61719 -2.39409,18.84609 -11.05909,23.48095 -8.11965,4.34177 -15.10903,5.34467 -20.45989,14.40291 z"
       id="path3029"
       style="fill:#ffd300;fill-rule:evenodd;stroke:#800000;stroke-width:0.7351535;stroke-miterlimit:4;stroke-dasharray:none" />
    <path
       d="m 289.99819,59.222384 c 3.46996,0 4.38753,1.889556 4.38753,4.220586 0,6.51328 -11.05415,6.859533 -15.09172,6.859533 l -50.51842,0 0,-4.387529 50.51842,0 c 6.51947,0 7.23547,-6.69259 10.70419,-6.69259 z"
       id="path3031"
       style="fill:#ffd300;fill-rule:evenodd;stroke:#800000;stroke-width:0.7351535;stroke-miterlimit:4;stroke-dasharray:none" />
    <path
       d="m 277.12497,85.148133 c 2.20984,0 4.00418,1.794336 4.00418,4.004177 0,2.209841 -1.79434,4.004177 -4.00418,4.004177 -2.20984,0 -4.00418,-1.794336 -4.00418,-4.004177 0,-2.209841 1.79434,-4.004177 4.00418,-4.004177 z"
       id="path3033"
       style="fill:#ffd300;fill-rule:evenodd;stroke:#800000;stroke-width:0.7351535;stroke-miterlimit:4;stroke-dasharray:none" />
    <path
       d="m 305.94318,75.666963 c 0,-2.329793 -1.8908,-4.220586 -4.22059,-4.220586 -6.51452,0 -8.69715,8.049163 -8.69715,15.091717 l 0,42.116826 3.71975,0 0,-42.116826 c 0,-8.021957 9.19799,-4.926696 9.19799,-10.871131 z"
       id="path3035"
       style="fill:#ffd300;fill-rule:evenodd;stroke:#800000;stroke-width:0.7351535;stroke-miterlimit:4;stroke-dasharray:none" />
    <path
       d="m 297.01107,101.32808 c 19.71915,0 16.88358,29.9732 -3.86073,29.9732 -8.89872,0 -16.25538,-5.88384 -17.43264,-13.51873 5.17402,7.38015 12.35631,8.73548 17.22241,2.89987 -3.55281,-1.5668 -6.03471,-5.11837 -6.03471,-9.24992 0,-5.57963 4.52603,-10.10442 10.10567,-10.10442 z"
       id="path3037"
       style="fill:#ffd300;fill-rule:evenodd;stroke:#800000;stroke-width:0.7351535;stroke-miterlimit:4;stroke-dasharray:none" />
    <path
       d="m 296.78971,173.92388 c 19.71915,0 17.11607,-29.39447 -3.86073,-28.81449 -8.89501,0.24485 -19.26902,8.89872 -19.05508,23.02711 2.50786,-8.25939 9.67408,-12.34395 14.54636,-9.97829 -1.09564,1.61502 -1.73497,3.56394 -1.73497,5.66001 0,5.57963 4.52479,10.10566 10.10442,10.10566 z"
       id="path3039"
       style="fill:#ffd300;fill-rule:evenodd;stroke:#800000;stroke-width:0.7351535;stroke-miterlimit:4;stroke-dasharray:none" />
    <path
       d="m 220.54587,264.06239 c -5.85787,-5.75771 -12.65433,-9.87936 -20.81603,-11.19637 -8.25444,-1.33307 -13.48782,-5.0182 -14.56121,-11.93709 l 5.23338,0.19167 c 1.02392,3.63443 4.10187,6.27709 10.09454,8.111 7.85996,2.40646 13.77595,3.81744 20.04932,10.02775 6.27462,-6.21031 12.18937,-7.62129 20.04933,-10.02775 6.10025,-1.8673 9.18067,-4.57179 10.14895,-8.30638 l 5.1802,0.004 c -1.07339,6.91889 -6.30676,10.60402 -14.56244,11.93709 -8.16046,1.31701 -15.23146,5.3014 -20.81604,11.19637 z"
       id="path3041"
       style="fill:#ffd300;fill-rule:evenodd;stroke:#800000;stroke-width:0.7351535;stroke-miterlimit:4;stroke-dasharray:none" />
    <path
       d="m 172.97556,229.12167 1.00413,-3.46377 c -4.71523,-8.4894 -12.65063,-9.68521 -19.37289,-15.135 -5.52399,-4.47656 -7.98363,-9.51085 -7.82905,-15.02123 6.69259,-1.50991 11.70956,-7.7499 11.70956,-15.21538 0,-6.66043 -3.99552,-12.34518 -9.61101,-14.56615 l 0,3.235 c 3.90895,1.93284 6.5986,5.96051 6.5986,10.61391 0,7.54092 -6.85211,12.80026 -14.01833,11.66876 -1.68056,9.61719 2.39534,18.84609 11.06034,23.48095 8.11965,4.34177 15.10903,5.34467 20.45865,14.40291 z"
       id="path3043"
       style="fill:#ffd300;fill-rule:evenodd;stroke:#800000;stroke-width:0.7351535;stroke-miterlimit:4;stroke-dasharray:none" />
    <path
       d="m 258.91821,230.362 c -1.0264,0.93365 -2.39039,1.50497 -3.8867,1.50497 -3.18801,0 -5.64394,-2.58824 -5.77378,-5.77378 -0.53175,-12.98946 20.32509,-12.30066 21.04975,2.36318 0.47487,9.58505 -9.5702,14.59336 -19.3259,14.59336 -11.99027,0 -21.71382,-8.71323 -21.71382,-19.45822 0,-3.2078 0.86687,-6.23381 2.40152,-8.9012 -0.69622,1.87967 -1.90069,4.01036 -1.90069,6.10025 0,9.87813 9.24868,17.87659 19.98997,18.7348 3.24118,0.25846 6.60232,-0.27824 8.95808,-2.40646 2.7589,-2.4955 2.07628,-5.67238 0.20157,-6.7569 z"
       id="path3045"
       style="fill:#ffd300;fill-rule:evenodd;stroke:#800000;stroke-width:0.7351535;stroke-miterlimit:4;stroke-dasharray:none" />
    <path
       d="m 216.36115,241.8094 c 1.57298,-1.45797 3.19172,-3.28941 4.18472,-5.46339 1.00414,2.1072 2.46583,3.89536 4.18473,5.46339 -1.57298,1.64223 -2.96913,3.46254 -4.18473,5.46339 -1.32813,-2.15667 -2.72303,-3.84342 -4.18472,-5.46339 z"
       id="path3047"
       style="fill:#ffd300;fill-rule:evenodd;stroke:#800000;stroke-width:0.7351535;stroke-miterlimit:4;stroke-dasharray:none" />
    <path
       d="m 144.30204,173.92388 c -19.71915,0 -17.11607,-29.39447 3.86073,-28.81449 8.89501,0.24485 19.26902,8.89872 19.05508,23.02711 -2.50663,-8.25939 -9.67408,-12.34395 -14.54513,-9.97829 1.09441,1.61502 1.73498,3.56394 1.73498,5.66001 0,5.57963 -4.52603,10.10566 -10.10566,10.10566 z"
       id="path3049"
       style="fill:#ffd300;fill-rule:evenodd;stroke:#800000;stroke-width:0.7351535;stroke-miterlimit:4;stroke-dasharray:none" />
    <path
       d="m 182.17478,230.362 c 1.02639,0.93365 2.38915,1.50497 3.88669,1.50497 3.18801,0 5.64394,-2.58824 5.77379,-5.77378 0.53051,-12.98946 -20.3251,-12.30066 -21.05099,2.36318 -0.47363,9.58505 9.5702,14.59336 19.3259,14.59336 11.99027,0 21.71506,-8.71323 21.71506,-19.45822 0,-3.2078 -0.86811,-6.23381 -2.40276,-8.9012 0.69746,1.87967 1.90069,4.01036 1.90069,6.10025 0,9.87813 -9.24745,17.87659 -19.98997,18.7348 -3.23995,0.25846 -6.60232,-0.27824 -8.95808,-2.40646 -2.7589,-2.4955 -2.07629,-5.67238 -0.20033,-6.7569 z"
       id="path3051"
       style="fill:#ffd300;fill-rule:evenodd;stroke:#800000;stroke-width:0.7351535;stroke-miterlimit:4;stroke-dasharray:none" />
    <path
       d="m 135.14981,75.666963 c 0,-2.329793 1.89079,-4.220586 4.22058,-4.220586 6.51328,0 8.69592,8.049163 8.69592,15.091717 l 0,42.116826 -3.71975,0 0,-42.116826 c 0,-8.021957 -9.19675,-4.926696 -9.19675,-10.871131 z"
       id="path3053"
       style="fill:#ffd300;fill-rule:evenodd;stroke:#800000;stroke-width:0.7351535;stroke-miterlimit:4;stroke-dasharray:none" />
    <path
       d="m 151.09356,59.222384 c -3.46872,0 -4.38753,1.889556 -4.38753,4.220586 0,6.51328 11.05415,6.859533 15.09171,6.859533 l 50.51842,0 0,-4.387529 -50.51842,0 c -6.51946,0 -7.23423,-6.69259 -10.70418,-6.69259 z"
       id="path3055"
       style="fill:#ffd300;fill-rule:evenodd;stroke:#800000;stroke-width:0.7351535;stroke-miterlimit:4;stroke-dasharray:none" />
    <path
       d="m 163.96678,85.148133 c -2.20984,0 -4.00418,1.794336 -4.00418,4.004177 0,2.209841 1.79434,4.004177 4.00418,4.004177 2.20984,0 4.00417,-1.794336 4.00417,-4.004177 0,-2.209841 -1.79433,-4.004177 -4.00417,-4.004177 z"
       id="path3057"
       style="fill:#ffd300;fill-rule:evenodd;stroke:#800000;stroke-width:0.7351535;stroke-miterlimit:4;stroke-dasharray:none" />
    <path
       d="m 144.08192,101.32808 c -19.72039,0 -16.88482,29.9732 3.86073,29.9732 8.89748,0 16.25414,-5.88384 17.4314,-13.51873 -5.17402,7.38015 -12.35631,8.73548 -17.22118,2.89987 3.55281,-1.5668 6.03347,-5.11837 6.03347,-9.24992 0,-5.57963 -4.52479,-10.10442 -10.10442,-10.10442 z"
       id="path3059"
       style="fill:#ffd300;fill-rule:evenodd;stroke:#800000;stroke-width:0.7351535;stroke-miterlimit:4;stroke-dasharray:none" />
    <path
       d="m 227.11604,84.742521 c -4.09074,-12.345182 7.06481,-14.665082 15.84111,-6.991852 -6.22762,-11.106089 -2.07134,-21.583974 6.30182,-27.120324 l -57.42619,0 c 8.3744,5.53635 12.52944,16.014235 6.30306,27.120324 8.77506,-7.67323 19.93061,-5.35333 15.83987,6.991852 l 13.14033,0 z"
       id="path3061"
       style="fill:#ffd300;fill-rule:evenodd;stroke:#800000;stroke-width:0.7351535;stroke-miterlimit:4;stroke-dasharray:none" />
    <path
       d="m 251.71242,76.031766 c 0.44766,0.762995 0.70487,1.653362 0.70487,2.60185 0,2.849173 -2.31248,5.161654 -5.16165,5.161654 -6.79894,0 -9.56279,-10.406162 -9.56279,-15.484962 0,-9.753226 9.2017,-23.609559 19.88733,-23.609559 5.78739,0 11.7615,5.000894 11.7615,11.169157 0,5.62786 -2.54867,11.170393 -9.22395,11.170393 -3.45141,0 -6.46258,-1.896976 -8.04298,-4.705341 -4.81911,-1.112959 -9.64317,2.593193 -9.64317,7.667047 0,3.284464 2.49303,8.183954 6.81873,8.040506 1.06597,-0.03586 2.27785,-0.802567 2.46211,-2.010745 z"
       id="path3063"
       style="fill:#ffd300;fill-rule:evenodd;stroke:#800000;stroke-width:0.7351535;stroke-miterlimit:4;stroke-dasharray:none" />
    <path
       d="m 235.02917,83.658005 c 0,1.540829 -0.74815,2.793526 -1.83143,3.555284 -1.34915,0.947251 -2.80095,1.312054 -4.18225,1.187156 -8.32988,-0.753102 -7.89582,-13.095812 -0.96828,-15.989504 4.16618,-1.741161 9.54548,-0.566372 11.32497,4.454307 -3.7383,-4.140205 -10.84021,-1.568034 -10.55331,2.831861 2.79476,-1.303398 6.2103,0.743209 6.2103,3.960896 z"
       id="path3067"
       style="fill:#ffd300;fill-rule:evenodd;stroke:#800000;stroke-width:0.7351535;stroke-miterlimit:4;stroke-dasharray:none" />
    <path
       d="m 189.37933,76.031766 c -0.44766,0.762995 -0.70488,1.653362 -0.70488,2.60185 0,2.849173 2.31248,5.161654 5.16166,5.161654 6.80017,0 9.56278,-10.406162 9.56278,-15.484962 0,-9.753226 -9.20169,-23.609559 -19.88609,-23.609559 -5.78862,0 -11.76273,5.000894 -11.76273,11.169157 0,5.62786 2.54867,11.170393 9.22395,11.170393 3.45264,0 6.46258,-1.896976 8.04421,-4.705341 4.81788,-1.112959 9.64193,2.593193 9.64193,7.667047 0,3.284464 -2.49179,8.183954 -6.81748,8.040506 -1.06721,-0.03586 -2.27786,-0.802567 -2.46335,-2.010745 z"
       id="path3069"
       style="fill:#ffd300;fill-rule:evenodd;stroke:#800000;stroke-width:0.7351535;stroke-miterlimit:4;stroke-dasharray:none" />
    <path
       d="m 206.06381,83.658005 c 0,1.540829 0.74816,2.793526 1.83144,3.555284 1.34791,0.947251 2.80094,1.312054 4.18225,1.187156 8.32864,-0.753102 7.89582,-13.095812 0.96703,-15.989504 -4.16617,-1.741161 -9.54547,-0.566372 -11.32373,4.454307 3.73707,-4.140205 10.83898,-1.568034 10.55332,2.831861 -2.79476,-1.303398 -6.21031,0.743209 -6.21031,3.960896 z"
       id="path3071"
       style="fill:#ffd300;fill-rule:evenodd;stroke:#800000;stroke-width:0.7351535;stroke-miterlimit:4;stroke-dasharray:none" />
    <path
       d="m 235.85153,47.611754 -1.73374,0 c -0.44766,-1.732505 -1.63605,-3.165749 -3.20408,-3.946056 l 1.23167,-10.297339 c 0.39572,-3.185534 1.72509,-6.082936 3.70615,-8.407783 z m -13.77472,15.308125 3.47985,0 c -0.56514,2.463348 -1.79063,4.680609 -3.47985,6.445266 z m -6.54049,0 3.47985,0 0,6.445266 c -1.68922,-1.764657 -2.91595,-3.981918 -3.47985,-6.445266 z m 9.82866,-6.840985 c 0.34378,1.201996 0.53793,2.467058 0.53793,3.779113 l -3.8261,0 c 0,-1.929128 1.43077,-3.516949 3.28817,-3.779113 z m -9.63698,0 c 1.85617,0.262164 3.28817,1.849985 3.28817,3.779113 l -3.82734,0 c 0,-1.312055 0.19539,-2.577117 0.53917,-3.779113 z m 18.38978,-5.405268 1.73375,0 0,9.184381 -6.88798,0 c 0,-1.551959 -0.21517,-3.056926 -0.60965,-4.483986 l 1.47157,-0.335124 c 2.09608,-0.583685 3.74573,-2.253123 4.29231,-4.365271 z m -28.87632,0 1.73374,0 c 0.54535,2.112148 2.195,3.781586 4.29231,4.365271 l 1.47034,0.335124 c -0.39324,1.42706 -0.60965,2.932027 -0.60965,4.483986 l -6.88674,0 z m 15.30441,-5.012023 c 0.82236,2.690887 1.95386,5.245745 3.3599,7.618819 -1.33678,0.406848 -2.50168,1.197049 -3.3599,2.260543 -0.85697,-1.063494 -2.02187,-1.853695 -3.35989,-2.260543 1.40727,-2.373074 2.53754,-4.927932 3.35989,-7.618819 z M 205.24146,24.960576 c 1.98106,2.324847 3.31043,5.222249 3.70615,8.407783 l 1.23167,10.297339 c -1.56803,0.780307 -2.75642,2.213551 -3.20408,3.946056 l -1.73374,0 z m 15.30441,-10.967587 c -1.42582,1.618736 -2.29516,3.738304 -2.29516,6.064387 0.0841,5.106006 0.70982,10.202119 0.76546,15.308125 0.11254,4.757279 -1.31452,9.226426 -3.0495,13.585513 -0.57874,1.204468 -1.20447,2.384204 -1.82896,3.56394 l -1.84257,-0.370986 c -1.65583,-0.330178 -2.73417,-1.941494 -2.40275,-3.599802 0.28937,-1.449319 1.56556,-2.457165 2.98891,-2.463348 l 0.67025,0.07172 -1.49508,-12.486157 c -0.48846,-5.559846 -3.35618,-10.437077 -7.58048,-13.609009 -0.7259,-0.54535 -1.49507,-1.043708 -2.2964,-1.483945 l 0,44.346448 10.2355,0 c 0.76547,4.155045 3.05198,7.774633 6.26596,10.26024 0.76423,0.528037 1.4048,1.223018 1.86482,2.034241 0.46003,-0.811223 1.1006,-1.506204 1.86606,-2.034241 3.21274,-2.485607 5.50049,-6.105195 6.26472,-10.26024 l 10.23551,0 0,-44.346448 c -0.80009,0.440237 -1.56927,0.938595 -2.29517,1.483945 -4.22553,3.171932 -7.09201,8.049163 -7.58172,13.609009 l -1.49383,12.486157 0.66901,-0.07172 c 1.42335,0.0062 2.69954,1.014029 2.99015,2.463348 0.33017,1.658308 -0.74692,3.269624 -2.40399,3.599802 l -1.84133,0.370986 c -0.62573,-1.179736 -1.25146,-2.359472 -1.82896,-3.56394 -1.73622,-4.359087 -3.16328,-8.828234 -3.04951,-13.585513 0.0544,-5.106006 0.68014,-10.202119 0.76547,-15.308125 0,-2.326083 -0.86935,-4.445651 -2.29641,-6.064387 z"
       id="path4025"
       style="fill:#ffd500;fill-opacity:1;stroke:#800000;stroke-width:0.7351535;stroke-miterlimit:4;stroke-dasharray:none" />
  </g>
  <g
     id="g4028">
    <path
       d="m 277.24369,167.32404 0,-78.072801 -113.39563,0 0,78.072801 c 0,31.30876 25.39029,56.69905 56.69781,56.69905 31.30876,0 56.69782,-25.39029 56.69782,-56.69905 z"
       id="path3075"
       style="fill:#d20000;fill-rule:evenodd;stroke:#800000;stroke-width:1.47030699;stroke-miterlimit:4;stroke-dasharray:none" />
    <path
       d="m 228.0905,143.32989 7.83399,-29.23865 -30.75723,0 7.83523,29.23865 -29.23866,-7.83399 0,30.75722 29.23866,-7.83522 -7.83523,29.23865 30.75723,0 -7.83399,-29.23865 29.23865,7.83522 0,-30.75722 -29.23865,7.83399 z"
       id="path3077"
       style="fill:#ffffff;fill-rule:evenodd;stroke:none" />
  </g>
</svg>
