<?xml version="1.0" encoding="UTF-8" standalone="no"?>
<!-- Generator: Adobe Illustrator 15.0.0, SVG Export Plug-In . SVG Version: 6.00 Build 0)  -->

<svg
   id="svg2"
   xml:space="preserve"
   height="400"
   width="600"
   version="1.1"
   y="0px"
   x="0px"
   viewBox="0 0 600 400"
   sodipodi:docname="Flag_of_Sumy_Oblast.svg"
   inkscape:version="1.2.1 (9c6d41e410, 2022-07-14)"
   xmlns:inkscape="http://www.inkscape.org/namespaces/inkscape"
   xmlns:sodipodi="http://sodipodi.sourceforge.net/DTD/sodipodi-0.dtd"
   xmlns:xlink="http://www.w3.org/1999/xlink"
   xmlns="http://www.w3.org/2000/svg"
   xmlns:svg="http://www.w3.org/2000/svg"
   xmlns:rdf="http://www.w3.org/1999/02/22-rdf-syntax-ns#"
   xmlns:cc="http://creativecommons.org/ns#"
   xmlns:dc="http://purl.org/dc/elements/1.1/"><defs
   id="defs18581" /><sodipodi:namedview
   id="namedview18579"
   pagecolor="#ffffff"
   bordercolor="#000000"
   borderopacity="0.25"
   inkscape:showpageshadow="2"
   inkscape:pageopacity="0.0"
   inkscape:pagecheckerboard="0"
   inkscape:deskcolor="#d1d1d1"
   showgrid="false"
   inkscape:zoom="0.71299934"
   inkscape:cx="252.45465"
   inkscape:cy="406.03123"
   inkscape:window-width="1350"
   inkscape:window-height="1040"
   inkscape:window-x="505"
   inkscape:window-y="49"
   inkscape:window-maximized="0"
   inkscape:current-layer="svg2" /><metadata
   id="metadata127"><rdf:RDF><cc:Work
       rdf:about=""><dc:format>image/svg+xml</dc:format><dc:type
         rdf:resource="http://purl.org/dc/dcmitype/StillImage" /><dc:title /></cc:Work></rdf:RDF></metadata>
<rect
   id="rect3597"
   height="400"
   width="600"
   y="0"
   x="0"
   fill="#77B5FE"
   style="fill:#76c5f0;fill-opacity:1" /><symbol
   id="Dot"
   transform="translate(216.58029,-200.32921)"
   viewBox="-1.625 -1.625 3.25 3.25">
	<path
   id="path5"
   fill="#404040"
   d="M1.625,0c0-0.897-0.728-1.625-1.625-1.625s-1.625,0.728-1.625,1.625,0.728,1.625,1.625,1.625,1.625-0.728,1.625-1.625z" />
</symbol>
<symbol
   id="flower"
   stroke-linejoin="round"
   transform="translate(216.58029,-200.32921)"
   viewBox="-5.213 -12.238 11.086 24.477"
   stroke="#404040"
   fill="#FFF">
	<path
   id="path8"
   d="m0.699-4.193c-1.693,2.446-4.117,4.076-5.412,4.008,1.303,0.039,2.966,1.838,3.558,4.378,1.26-1.009,2.87-2.454,4.307-4.054-0.711-1.688-1.658-3.24-2.453-4.332z" />
	<path
   id="path10"
   d="M2.842-11.738c0.716,1.941-0.403,5.135-2.143,7.545,0.795,1.093,1.742,2.645,2.452,4.332,1.956-4.199,2.309-7.698-0.309-11.877z" />
	<path
   id="path12"
   d="m-2.987,11.738c4.221-2.213,6.139-5.775,6.139-11.6-1.437,1.6-3.047,3.045-4.307,4.054,0.65,2.505-0.287,5.699-1.832,7.546z" />
	<path
   id="path14"
   d="M2.515,3.699c-0.58-0.107-0.754-1.791-0.39-3.762s1.129-3.482,1.708-3.375c1.158,0.214,1.802,1.985,1.439,3.955-0.365,1.973-1.599,3.396-2.757,3.182z" />
</symbol>
<symbol
   id="grain"
   transform="translate(216.58029,-200.32921)"
   viewBox="-8.944 -5.785 17.889 11.569">
	<path
   id="path17"
   fill="gold"
   d="m-8.165,4.965c0.856-2.747,3.204-5.641,6.593-7.724,3.389-2.082,7.03-2.868,9.869-2.391-0.856,2.749-3.203,5.642-6.593,7.725-3.388,2.082-6.101,1.003-9.869,2.39z"
   stroke="#404040" />
</symbol>
<g
   id="g4621"
   transform="matrix(0.78132399,0,0,0.78132399,216.46865,97.424288)"><symbol
     id="Dot-8"
     viewBox="-1.625 -1.625 3.25 3.25">
	<path
   id="path4497"
   fill="#404040"
   d="M1.625,0c0-0.897-0.728-1.625-1.625-1.625s-1.625,0.728-1.625,1.625,0.728,1.625,1.625,1.625,1.625-0.728,1.625-1.625z" />
</symbol><symbol
     id="flower-2"
     stroke-linejoin="round"
     stroke="#404040"
     fill="#FFF"
     viewBox="-5.213 -12.238 11.086 24.477"
     style="fill:#c3c3c1;fill-opacity:1">
	<path
   id="path4500"
   d="m0.699-4.193c-1.693,2.446-4.117,4.076-5.412,4.008,1.303,0.039,2.966,1.838,3.558,4.378,1.26-1.009,2.87-2.454,4.307-4.054-0.711-1.688-1.658-3.24-2.453-4.332z"
   style="fill:#c3c3c1;fill-opacity:1" />
	<path
   id="path4502"
   d="M2.842-11.738c0.716,1.941-0.403,5.135-2.143,7.545,0.795,1.093,1.742,2.645,2.452,4.332,1.956-4.199,2.309-7.698-0.309-11.877z"
   style="fill:#c3c3c1;fill-opacity:1" />
	<path
   id="path4504"
   d="m-2.987,11.738c4.221-2.213,6.139-5.775,6.139-11.6-1.437,1.6-3.047,3.045-4.307,4.054,0.65,2.505-0.287,5.699-1.832,7.546z"
   style="fill:#c3c3c1;fill-opacity:1" />
	<path
   id="path4506"
   d="M2.515,3.699c-0.58-0.107-0.754-1.791-0.39-3.762s1.129-3.482,1.708-3.375c1.158,0.214,1.802,1.985,1.439,3.955-0.365,1.973-1.599,3.396-2.757,3.182z"
   style="fill:#c3c3c1;fill-opacity:1" />
</symbol><symbol
     id="grain-4"
     viewBox="-8.944 -5.785 17.889 11.569">
	<path
   id="path4509"
   fill="gold"
   stroke="#404040"
   d="m-8.165,4.965c0.856-2.747,3.204-5.641,6.593-7.724,3.389-2.082,7.03-2.868,9.869-2.391-0.856,2.749-3.203,5.642-6.593,7.725-3.388,2.082-6.101,1.003-9.869,2.39z" />
</symbol><g
     id="Layer_5">
	<path
   id="path4512"
   fill="gold"
   d="M106.9,267.97c-4.34-14.2-13.742-24.84-22.99-24.84h-57c-14.35,0-25.59-11.641-25.59-26.5v-215.54h211.18v215.54c0,14.859-11.24,26.5-25.59,26.5h-57c-9.086,0-18.492,10.654-23.005,24.872v-0.034z" />
	<path
   id="path4514"
   fill="#77B5FE"
   d="m8.32,8.088v208.54c0,11.117,7.992,19.5,18.59,19.5h57c12.353,0,19.046,8.026,23.043,16.638,4.069-8.608,10.785-16.638,22.957-16.638h57c10.598,0,18.59-8.383,18.59-19.5v-208.54h-197.18z"
   style="fill:#76c5f0;fill-opacity:1" />
</g><g
     id="Layer_2">
	<path
   id="path4517"
   fill="gold"
   stroke="#404040"
   d="m120.42,54.414-4.585-8.497h-7.25l-3.509,8.556c-12.928,2.925-22.58,14.47-22.58,28.277v10.75h60.75v-10.75c0-13.898-9.779-25.507-22.831-28.336z" />
	<path
   id="path4519"
   fill="#FFF"
   stroke="#404040"
   d="m144.75,100.15c0,1.104-0.896,2-2,2h-59.5c-1.104,0-2-0.896-2-2v-4.375c0-1.104,0.896-2,2-2h59.5c1.104,0,2,0.896,2,2v4.375z"
   style="fill:#c3c3c1;fill-opacity:1" />
	<path
   id="path4521"
   stroke-linejoin="round"
   d="m115.53,87.011c1.297-0.876,2.149-2.36,2.149-4.042,0-2.106-1.343-3.883-3.213-4.565,1.131-1.145,2.479-2.279,2.802-2.279-0.55,0-4.464-3.938-4.464-4.464,0,0.589-3.867,4.464-4.464,4.464,0.332,0,1.678,1.134,2.806,2.277-1.872,0.681-3.217,2.459-3.217,4.566,0,1.687,0.857,3.173,2.16,4.048-4.665,1.213-8.113,5.439-8.113,10.483l-0.031,4.563h21.688l0.031-4.563c0-5.05-3.459-9.283-8.134-10.488z"
   stroke="#404040"
   stroke-linecap="round"
   fill="#FFF"
   style="fill:#c3c3c1;fill-opacity:1" />
		<use
   id="use4523"
   xlink:href="#Dot-8"
   transform="matrix(1,0,0,-1,84.75,97.9644)"
   height="3.25"
   width="3.25"
   y="-1.625"
   x="-1.625" />
		<use
   id="use4525"
   xlink:href="#Dot-8"
   transform="matrix(1,0,0,-1,91.625,97.9644)"
   height="3.25"
   width="3.25"
   y="-1.625"
   x="-1.625" />
		<use
   id="use4527"
   xlink:href="#Dot-8"
   transform="matrix(1,0,0,-1,98.5,97.9644)"
   height="3.25"
   width="3.25"
   y="-1.625"
   x="-1.625" />
		<use
   id="use4529"
   xlink:href="#Dot-8"
   transform="matrix(1,0,0,-1,127.25,97.9644)"
   height="3.25"
   width="3.25"
   y="-1.625"
   x="-1.625" />
		<use
   id="use4531"
   xlink:href="#Dot-8"
   transform="matrix(1,0,0,-1,134.2295,97.9644)"
   height="3.25"
   width="3.25"
   y="-1.625"
   x="-1.625" />
		<use
   id="use4533"
   xlink:href="#Dot-8"
   transform="matrix(1,0,0,-1,141.209,97.9644)"
   height="3.25"
   width="3.25"
   y="-1.625"
   x="-1.625" />
		<use
   id="use4535"
   xlink:href="#Dot-8"
   transform="matrix(1,0,0,-1,112.875,76)"
   height="3.25"
   width="3.25"
   y="-1.625"
   x="-1.625" />
		<use
   id="use4537"
   xlink:href="#Dot-8"
   transform="matrix(1.4651,0,0,-1.4651,108.4941,96.7441)"
   height="3.25"
   width="3.25"
   y="-1.625"
   x="-1.625" />
		<use
   id="use4539"
   xlink:href="#Dot-8"
   transform="matrix(1.4651,0,0,-1.4651,117.1191,96.7441)"
   height="3.25"
   width="3.25"
   y="-1.625"
   x="-1.625" />
		<use
   id="use4541"
   xlink:href="#flower-2"
   transform="matrix(1,0,0,-1,140.4277,77.0737)"
   height="24.476999"
   width="11.086"
   y="-12.238"
   x="-5.2129998" />
		<use
   id="use4543"
   xlink:href="#flower-2"
   transform="matrix(-1,0,0,-1,85.5005,77.0742)"
   height="24.476999"
   width="11.086"
   y="-12.238"
   x="-5.2129998" />
	<g
   id="g4545">
		<path
   id="path4547"
   fill="#FFF"
   stroke="#404040"
   d="m112.58,27.833c0,2.917-6,26.5-12.583,27.75,0,0,6.499,0.416,8.333-2.167,0.386-1.635-0.583-1.448-0.583-3.583,1.656,0,2.917,0.417,2.917,0.417s0.552,0.938,0.146,1.406-1.344,1.531-1.344,2.313,3.114,3.125,3.114,4.75c0-1.625,3.114-3.969,3.114-4.75s-0.938-1.844-1.344-2.313,0.146-1.406,0.146-1.406,1.261-0.417,2.917-0.417c0,2.135-0.969,1.948-0.583,3.583,1.834,2.583,8.333,2.167,8.333,2.167-6.583-1.25-12.583-24.833-12.583-27.75z"
   style="fill:#c3c3c2;fill-opacity:1" />
		<g
   id="g4549">
			<path
   id="path4551"
   fill="gold"
   stroke="#404040"
   d="m112.58,27.833c0,1.024-0.741,4.597-1.985,8.854h3.971c-1.245-4.256-1.986-7.83-1.986-8.854z" />
		</g>
		<circle
   id="circle4553"
   d="m 114.188,26.938 c 0,0.828427 -0.67157,1.5 -1.5,1.5 -0.82842,0 -1.5,-0.671573 -1.5,-1.5 0,-0.828427 0.67158,-1.5 1.5,-1.5 0.82843,0 1.5,0.671573 1.5,1.5 z"
   stroke="#404040"
   cy="26.938"
   cx="112.69"
   r="1.5"
   fill="#fcfcfc"
   style="fill:#c3c3c1;fill-opacity:1" />
	</g>
</g><g
     id="Layer_3">
	<path
   id="path4556"
   fill="gold"
   stroke="#404040"
   d="m162.78,171.82c-0.006,0.073-0.022,0.144-0.022,0.219,0,1.795,1.455,3.25,3.25,3.25s3.25-1.455,3.25-3.25c0-0.194-0.024-0.383-0.057-0.568,0.02,0,0.037,0.006,0.057,0.006,1.795,0,3.25-1.455,3.25-3.25s-1.455-3.25-3.25-3.25c-0.013,0-0.025,0.004-0.038,0.004,0.015-0.126,0.038-0.249,0.038-0.379,0-1.795-1.455-3.25-3.25-3.25s-3.25,1.455-3.25,3.25c0,0.075,0.017,0.146,0.022,0.219h-25.257v-25.257c0.073,0.006,0.144,0.022,0.219,0.022,1.795,0,3.25-1.455,3.25-3.25s-1.455-3.25-3.25-3.25c-0.194,0-0.383,0.024-0.568,0.057,0-0.02,0.006-0.037,0.006-0.057,0-1.795-1.455-3.25-3.25-3.25s-3.25,1.455-3.25,3.25c0,0.013,0.004,0.025,0.004,0.038-0.126-0.015-0.249-0.038-0.379-0.038-1.795,0-3.25,1.455-3.25,3.25s1.455,3.25,3.25,3.25c0.075,0,0.146-0.017,0.219-0.022v25.257h-25.257c0.006-0.073,0.022-0.144,0.022-0.219,0-1.795-1.455-3.25-3.25-3.25s-3.25,1.455-3.25,3.25c0,0.194,0.024,0.383,0.057,0.568-0.02,0-0.037-0.006-0.057-0.006-1.795,0-3.25,1.455-3.25,3.25s1.455,3.25,3.25,3.25c0.013,0,0.025-0.004,0.038-0.004-0.015,0.126-0.038,0.249-0.038,0.379,0,1.795,1.455,3.25,3.25,3.25s3.25-1.455,3.25-3.25c0-0.075-0.017-0.146-0.022-0.219h25.257v24.257c-0.073-0.006-0.144-0.022-0.219-0.022-1.795,0-3.25,1.455-3.25,3.25s1.455,3.25,3.25,3.25c0.194,0,0.383-0.024,0.568-0.057,0,0.02-0.006,0.037-0.006,0.057,0,1.795,1.455,3.25,3.25,3.25s3.25-1.455,3.25-3.25c0-0.013-0.004-0.025-0.004-0.038,0.126,0.015,0.249,0.038,0.379,0.038,1.795,0,3.25-1.455,3.25-3.25s-1.455-3.25-3.25-3.25c-0.075,0-0.146,0.017-0.219,0.022v-24.257h25.257z" />
</g><g
     id="Layer_4">
	<path
   id="path4559"
   stroke-linejoin="round"
   d="m70.15,198.75c10.1,19.25,33.35,20.125,42.475,20.125-0.25-1.625,0-3,1.125-3.625-31.25-0.125-43.6-16.5-43.6-16.5z"
   stroke="#404040"
   fill="gold" />
	<polygon
   id="polygon4561"
   points="87.917,119.75,110.25,113.08,90,120.92,115.58,114.75,89.417,122.67,119.5,117.92,91.625,123.83,119.08,120.08,93.25,124.58,117.12,123.08,91.625,125.33,80.917,127.58"
   stroke="#404040"
   fill="gold" />
	<g
   id="g4563">
			<use
   id="use4565"
   xlink:href="#grain-4"
   transform="matrix(-0.5952,-0.4493,0.4447,-0.6991,89.7363,126.0762)"
   height="11.569"
   width="17.889"
   y="-5.7849998"
   x="-8.9440002" />
			<use
   id="use4567"
   xlink:href="#grain-4"
   transform="matrix(-0.6105,-0.4284,0.4202,-0.7141,83.4697,129.5986)"
   height="11.569"
   width="17.889"
   y="-5.7849998"
   x="-8.9440002" />
			<use
   id="use4569"
   xlink:href="#grain-4"
   transform="matrix(-0.6796,-0.3073,0.2799,-0.7798,77.7983,133.4097)"
   height="11.569"
   width="17.889"
   y="-5.7849998"
   x="-8.9440002" />
			<use
   id="use4571"
   xlink:href="#grain-4"
   transform="matrix(-0.8868,-0.1443,0.1443,-0.8868,74.2764,137.2998)"
   height="11.569"
   width="17.889"
   y="-5.7849998"
   x="-8.9440002" />
			<use
   id="use4573"
   xlink:href="#grain-4"
   transform="matrix(-0.8979,0.0298,-0.0298,-0.8979,69.166,143.8848)"
   height="11.569"
   width="17.889"
   y="-5.7849998"
   x="-8.9440002" />
			<use
   id="use4575"
   xlink:href="#grain-4"
   transform="matrix(-0.8802,0.1798,-0.1798,-0.8802,66.21,149.9248)"
   height="11.569"
   width="17.889"
   y="-5.7849998"
   x="-8.9440002" />
			<use
   id="use4577"
   xlink:href="#grain-4"
   transform="matrix(-0.8293,0.3456,-0.3456,-0.8293,63.8818,157.042)"
   height="11.569"
   width="17.889"
   y="-5.7849998"
   x="-8.9440002" />
			<use
   id="use4579"
   xlink:href="#grain-4"
   transform="matrix(-0.7515,0.4924,-0.4924,-0.7515,63.3994,165.25)"
   height="11.569"
   width="17.889"
   y="-5.7849998"
   x="-8.9440002" />
			<use
   id="use4581"
   xlink:href="#grain-4"
   transform="matrix(-0.7339,0.6792,-0.6792,-0.7339,64.3716,172.5596)"
   height="11.569"
   width="17.889"
   y="-5.7849998"
   x="-8.9440002" />
			<use
   id="use4583"
   xlink:href="#grain-4"
   transform="matrix(-0.6786,0.7345,-0.7345,-0.6786,66.7295,180.0059)"
   height="11.569"
   width="17.889"
   y="-5.7849998"
   x="-8.9440002" />
			<use
   id="use4585"
   xlink:href="#grain-4"
   transform="matrix(-0.5949,0.8038,-0.8038,-0.5949,69.4053,186.832)"
   height="11.569"
   width="17.889"
   y="-5.7849998"
   x="-8.9440002" />
			<use
   id="use4587"
   xlink:href="#grain-4"
   transform="matrix(-0.5347,0.845,-0.845,-0.5347,72.689,194.1914)"
   height="11.569"
   width="17.889"
   y="-5.7849998"
   x="-8.9440002" />
	</g>
	<g
   id="g4589">
			<use
   id="use4591"
   xlink:href="#grain-4"
   transform="matrix(-0.0528,0.6069,0.7324,0.0271,88.3823,120.4639)"
   height="11.569"
   width="17.889"
   y="-5.7849998"
   x="-8.9440002" />
			<use
   id="use4593"
   xlink:href="#grain-4"
   transform="matrix(-0.0228,0.7836,0.8333,0.0215,80.9033,123.8076)"
   height="11.569"
   width="17.889"
   y="-5.7849998"
   x="-8.9440002" />
			<use
   id="use4595"
   xlink:href="#grain-4"
   transform="matrix(0.1668,0.8165,0.8179,-0.1667,74.7236,127.0215)"
   height="11.569"
   width="17.889"
   y="-5.7849998"
   x="-8.9440002" />
			<use
   id="use4597"
   xlink:href="#grain-4"
   transform="matrix(0.2286,0.8433,0.8074,-0.2388,68.9619,131.3618)"
   height="11.569"
   width="17.889"
   y="-5.7849998"
   x="-8.9440002" />
			<use
   id="use4599"
   xlink:href="#grain-4"
   transform="matrix(0.458,0.8316,0.9825,-0.4043,63.6592,138.2012)"
   height="11.569"
   width="17.889"
   y="-5.7849998"
   x="-8.9440002" />
			<use
   id="use4601"
   xlink:href="#grain-4"
   transform="matrix(0.6127,0.72,0.7903,-0.5582,58.8374,145.9512)"
   height="11.569"
   width="17.889"
   y="-5.7849998"
   x="-8.9440002" />
			<use
   id="use4603"
   xlink:href="#grain-4"
   transform="matrix(0.7664,0.6424,0.6424,-0.7664,56.3428,154.001)"
   height="11.569"
   width="17.889"
   y="-5.7849998"
   x="-8.9440002" />
			<use
   id="use4605"
   xlink:href="#grain-4"
   transform="matrix(0.8589,0.5122,0.5122,-0.8589,55.1582,163.791)"
   height="11.569"
   width="17.889"
   y="-5.7849998"
   x="-8.9440002" />
			<use
   id="use4607"
   xlink:href="#grain-4"
   transform="matrix(0.9327,0.3607,0.3607,-0.9327,56.124,172.9883)"
   height="11.569"
   width="17.889"
   y="-5.7849998"
   x="-8.9440002" />
			<use
   id="use4609"
   xlink:href="#grain-4"
   transform="matrix(0.9829,0.1839,0.1839,-0.9829,57.5337,181.8271)"
   height="11.569"
   width="17.889"
   y="-5.7849998"
   x="-8.9440002" />
			<use
   id="use4611"
   xlink:href="#grain-4"
   transform="matrix(0.9914,0.1311,0.1311,-0.9914,61.2739,190.5508)"
   height="11.569"
   width="17.889"
   y="-5.7849998"
   x="-8.9440002" />
			<use
   id="use4613"
   xlink:href="#grain-4"
   transform="matrix(1,0,0,-1,65.5835,199.083)"
   height="11.569"
   width="17.889"
   y="-5.7849998"
   x="-8.9440002" />
	</g>
</g></g></svg>
