<?xml version="1.0" encoding="UTF-8"?>
<!-- Generator: Adobe Illustrator 15.0.0, SVG Export Plug-In . SVG Version: 6.00 Build 0)  -->
<svg id="svg121" width="150" height="100" version="1.1" viewBox="0 0 150 100" xml:space="preserve" xmlns="http://www.w3.org/2000/svg">



<g id="Layer_5" transform="matrix(.23945 0 0 .23945 49.401 17.784)">
	<rect id="rect55" x="-206.31" y="-74.272" width="626.45" height="417.63" fill="#77c4f8" stroke-width="2.0882"/><path id="path17" d="m106.9 267.97c-4.345-14.194-13.747-24.838-22.995-24.838h-57c-14.35 0-25.59-11.641-25.59-26.5v-215.54h211.18v215.54c0 14.859-11.24 26.5-25.59 26.5h-57c-9.086 0-18.492 10.654-23.005 24.872z" fill="#ffd700" stroke-width="0"/>
	<path id="path19" d="m8.32 8.088v208.54c0 11.117 7.992 19.5 18.59 19.5h57c12.353 0 19.046 8.026 23.043 16.638 4.069-8.608 10.785-16.638 22.957-16.638h57c10.598 0 18.59-8.383 18.59-19.5v-208.54z" fill="#78c5f9" stroke-miterlimit="10" stroke-width="0"/>
</g>
<g id="Layer_2" transform="matrix(.23945 0 0 .23945 49.401 17.784)">
	<path id="path22" d="m120.42 54.414-4.585-8.497h-7.25l-3.509 8.556c-12.923 2.925-22.575 14.47-22.575 28.277v10.75h60.75v-10.75c0-13.898-9.779-25.507-22.831-28.336z" fill="#ffd700" stroke="#404040"/>
	<path id="path24" d="m144.75 100.15c0 1.104-0.896 2-2 2h-59.5c-1.104 0-2-0.896-2-2v-4.375c0-1.104 0.896-2 2-2h59.5c1.104 0 2 0.896 2 2z" fill="#c3c3c1" stroke="#404040"/>
	<path id="path26" d="m115.53 87.011c1.297-0.876 2.149-2.36 2.149-4.042 0-2.106-1.343-3.883-3.213-4.565 1.131-1.145 2.479-2.279 2.802-2.279-0.55 0-4.464-3.938-4.464-4.464 0 0.589-3.867 4.464-4.464 4.464 0.332 0 1.678 1.134 2.806 2.277-1.872 0.681-3.217 2.459-3.217 4.566 0 1.687 0.857 3.173 2.16 4.048-4.665 1.213-8.113 5.439-8.113 10.483l-0.031 4.563h21.688l0.031-4.563c0-5.05-3.459-9.283-8.134-10.488z" fill="#c3c3c1" stroke="#404040" stroke-linecap="round" stroke-linejoin="round"/>
	
		<g id="use28" transform="matrix(1 0 0 -1 84.75 97.964)">
	<path id="path44" d="m1.625 0c0-0.897-0.728-1.625-1.625-1.625s-1.625 0.728-1.625 1.625 0.728 1.625 1.625 1.625 1.625-0.728 1.625-1.625z" fill="#404040"/>
</g>
	
		<g id="use30" transform="matrix(1 0 0 -1 91.625 97.964)">
	<path id="path45" d="m1.625 0c0-0.897-0.728-1.625-1.625-1.625s-1.625 0.728-1.625 1.625 0.728 1.625 1.625 1.625 1.625-0.728 1.625-1.625z" fill="#404040"/>
</g>
	
		<g id="use32" transform="matrix(1 0 0 -1 98.5 97.964)">
	<path id="path46" d="m1.625 0c0-0.897-0.728-1.625-1.625-1.625s-1.625 0.728-1.625 1.625 0.728 1.625 1.625 1.625 1.625-0.728 1.625-1.625z" fill="#404040"/>
</g>
	
		<g id="use34" transform="matrix(1 0 0 -1 127.25 97.964)">
	<path id="path47" d="m1.625 0c0-0.897-0.728-1.625-1.625-1.625s-1.625 0.728-1.625 1.625 0.728 1.625 1.625 1.625 1.625-0.728 1.625-1.625z" fill="#404040"/>
</g>
	
		<g id="use36" transform="matrix(1 0 0 -1 134.23 97.964)">
	<path id="path48" d="m1.625 0c0-0.897-0.728-1.625-1.625-1.625s-1.625 0.728-1.625 1.625 0.728 1.625 1.625 1.625 1.625-0.728 1.625-1.625z" fill="#404040"/>
</g>
	
		<g id="use38" transform="matrix(1 0 0 -1 141.21 97.964)">
	<path id="path49" d="m1.625 0c0-0.897-0.728-1.625-1.625-1.625s-1.625 0.728-1.625 1.625 0.728 1.625 1.625 1.625 1.625-0.728 1.625-1.625z" fill="#404040"/>
</g>
	
		<g id="use40" transform="matrix(1 0 0 -1 112.88 76)">
	<path id="path51" d="m1.625 0c0-0.897-0.728-1.625-1.625-1.625s-1.625 0.728-1.625 1.625 0.728 1.625 1.625 1.625 1.625-0.728 1.625-1.625z" fill="#404040"/>
</g>
	
		<g id="use42" transform="matrix(1.4651 0 0 -1.4651 108.49 96.744)">
	<path id="path53" d="m1.625 0c0-0.897-0.728-1.625-1.625-1.625s-1.625 0.728-1.625 1.625 0.728 1.625 1.625 1.625 1.625-0.728 1.625-1.625z" fill="#404040"/>
</g>
	
		<g id="use44" transform="matrix(1.4651 0 0 -1.4651 117.12 96.744)">
	<path id="path54" d="m1.625 0c0-0.897-0.728-1.625-1.625-1.625s-1.625 0.728-1.625 1.625 0.728 1.625 1.625 1.625 1.625-0.728 1.625-1.625z" fill="#404040"/>
</g>
	
		<g id="use46" transform="matrix(1 0 0 -1 140.43 77.074)" fill="#c3c3c1" stroke="#404040" stroke-linejoin="round">
	<path id="path1" d="m0.699-4.193c-1.693 2.446-4.117 4.076-5.412 4.008 1.303 0.039 2.966 1.838 3.558 4.378 1.26-1.009 2.87-2.454 4.307-4.054-0.711-1.688-1.658-3.24-2.453-4.332z"/>
	<path id="path3" d="m2.842-11.738c0.716 1.941-0.403 5.135-2.143 7.545 0.795 1.093 1.742 2.645 2.452 4.332 1.956-4.199 2.309-7.698-0.309-11.877z"/>
	<path id="path4" d="m-2.987 11.738c4.221-2.213 6.139-5.775 6.139-11.6-1.437 1.6-3.047 3.045-4.307 4.054 0.65 2.505-0.287 5.699-1.832 7.546z"/>
	<path id="path6" d="m2.515 3.699c-0.58-0.107-0.754-1.791-0.39-3.762s1.129-3.482 1.708-3.375c1.158 0.214 1.802 1.985 1.439 3.955-0.365 1.973-1.599 3.396-2.757 3.182z"/>
</g>
	
		<g id="use48" transform="rotate(180 42.75 38.537)" fill="#c3c3c1" stroke="#404040" stroke-linejoin="round">
	<path id="path8" d="m0.699-4.193c-1.693 2.446-4.117 4.076-5.412 4.008 1.303 0.039 2.966 1.838 3.558 4.378 1.26-1.009 2.87-2.454 4.307-4.054-0.711-1.688-1.658-3.24-2.453-4.332z"/>
	<path id="path10" d="m2.842-11.738c0.716 1.941-0.403 5.135-2.143 7.545 0.795 1.093 1.742 2.645 2.452 4.332 1.956-4.199 2.309-7.698-0.309-11.877z"/>
	<path id="path12" d="m-2.987 11.738c4.221-2.213 6.139-5.775 6.139-11.6-1.437 1.6-3.047 3.045-4.307 4.054 0.65 2.505-0.287 5.699-1.832 7.546z"/>
	<path id="path13" d="m2.515 3.699c-0.58-0.107-0.754-1.791-0.39-3.762s1.129-3.482 1.708-3.375c1.158 0.214 1.802 1.985 1.439 3.955-0.365 1.973-1.599 3.396-2.757 3.182z"/>
</g>
	<g id="g58">
		<path id="path50" d="m112.58 27.833c0 2.917-6 26.5-12.583 27.75 0 0 6.499 0.416 8.333-2.167 0.386-1.635-0.583-1.448-0.583-3.583 1.656 0 2.917 0.417 2.917 0.417s0.552 0.938 0.146 1.406-1.344 1.531-1.344 2.313 3.114 3.125 3.114 4.75c0-1.625 3.114-3.969 3.114-4.75s-0.938-1.844-1.344-2.313 0.146-1.406 0.146-1.406 1.261-0.417 2.917-0.417c0 2.135-0.969 1.948-0.583 3.583 1.834 2.583 8.333 2.167 8.333 2.167-6.583-1.25-12.583-24.833-12.583-27.75z" fill="#c3c3c1" stroke="#404040"/>
		<g id="g54">
			<path id="path52" d="m112.58 27.833c0 1.024-0.741 4.597-1.985 8.854h3.971c-1.245-4.256-1.986-7.83-1.986-8.854z" fill="#ffd700" stroke="#404040"/>
		</g>
		<circle id="circle56" cx="112.69" cy="26.938" r="1.5" fill="#c4c3c1" stroke="#404040"/>
	</g>
</g>
<g id="Layer_3" transform="matrix(.23945 0 0 .23945 49.401 17.784)">
	<path id="path61" d="m162.78 171.82c-6e-3 0.073-0.022 0.144-0.022 0.219 0 1.795 1.455 3.25 3.25 3.25s3.25-1.455 3.25-3.25c0-0.194-0.024-0.383-0.057-0.568 0.02 0 0.037 6e-3 0.057 6e-3 1.795 0 3.25-1.455 3.25-3.25s-1.455-3.25-3.25-3.25c-0.013 0-0.025 4e-3 -0.038 4e-3 0.015-0.126 0.038-0.249 0.038-0.379 0-1.795-1.455-3.25-3.25-3.25s-3.25 1.455-3.25 3.25c0 0.075 0.017 0.146 0.022 0.219h-25.257v-25.257c0.073 6e-3 0.144 0.022 0.219 0.022 1.795 0 3.25-1.455 3.25-3.25s-1.455-3.25-3.25-3.25c-0.194 0-0.383 0.024-0.568 0.057 0-0.02 6e-3 -0.037 6e-3 -0.057 0-1.795-1.455-3.25-3.25-3.25s-3.25 1.455-3.25 3.25c0 0.013 4e-3 0.025 4e-3 0.038-0.126-0.015-0.249-0.038-0.379-0.038-1.795 0-3.25 1.455-3.25 3.25s1.455 3.25 3.25 3.25c0.075 0 0.146-0.017 0.219-0.022v25.257h-25.257c6e-3 -0.073 0.022-0.144 0.022-0.219 0-1.795-1.455-3.25-3.25-3.25s-3.25 1.455-3.25 3.25c0 0.194 0.024 0.383 0.057 0.568-0.02 0-0.037-6e-3 -0.057-6e-3 -1.795 0-3.25 1.455-3.25 3.25s1.455 3.25 3.25 3.25c0.013 0 0.025-4e-3 0.038-4e-3 -0.015 0.126-0.038 0.249-0.038 0.379 0 1.795 1.455 3.25 3.25 3.25s3.25-1.455 3.25-3.25c0-0.075-0.017-0.146-0.022-0.219h25.257v24.257c-0.073-6e-3 -0.144-0.022-0.219-0.022-1.795 0-3.25 1.455-3.25 3.25s1.455 3.25 3.25 3.25c0.194 0 0.383-0.024 0.568-0.057 0 0.02-6e-3 0.037-6e-3 0.057 0 1.795 1.455 3.25 3.25 3.25s3.25-1.455 3.25-3.25c0-0.013-4e-3 -0.025-4e-3 -0.038 0.126 0.015 0.249 0.038 0.379 0.038 1.795 0 3.25-1.455 3.25-3.25s-1.455-3.25-3.25-3.25c-0.075 0-0.146 0.017-0.219 0.022v-24.257z" fill="#ffd700" stroke="#404040"/>
</g>
<g id="Layer_4" transform="matrix(.23945 0 0 .23945 49.401 17.784)">
	<path id="path64" d="m70.15 198.75c10.1 19.25 33.35 20.125 42.475 20.125-0.25-1.625 0-3 1.125-3.625-31.25-0.125-43.6-16.5-43.6-16.5z" fill="#ffd700" stroke="#404040" stroke-linejoin="round"/>
	<polygon id="polygon66" points="117.12 123.08 91.625 125.33 80.917 127.58 87.917 119.75 110.25 113.08 90 120.92 115.58 114.75 89.417 122.67 119.5 117.92 91.625 123.83 119.08 120.08 93.25 124.58" fill="#ffd700" stroke="#404040"/>
	<g id="g92">
		
			<g id="use68" transform="matrix(-.5952 -.4493 .4447 -.6991 89.736 126.08)">
	<path id="path15" d="m-8.165 4.965c0.856-2.747 3.204-5.641 6.593-7.724 3.389-2.082 7.03-2.868 9.869-2.391-0.856 2.749-3.203 5.642-6.593 7.725-3.388 2.082-6.101 1.003-9.869 2.39z" fill="#ffd700" stroke="#404040"/>
</g>
		
			<g id="use70" transform="matrix(-.6105 -.4284 .4202 -.7141 83.47 129.6)">
	<path id="path16" d="m-8.165 4.965c0.856-2.747 3.204-5.641 6.593-7.724 3.389-2.082 7.03-2.868 9.869-2.391-0.856 2.749-3.203 5.642-6.593 7.725-3.388 2.082-6.101 1.003-9.869 2.39z" fill="#ffd700" stroke="#404040"/>
</g>
		
			<g id="use72" transform="matrix(-.6796 -.3073 .2799 -.7798 77.798 133.41)">
	<path id="path18" d="m-8.165 4.965c0.856-2.747 3.204-5.641 6.593-7.724 3.389-2.082 7.03-2.868 9.869-2.391-0.856 2.749-3.203 5.642-6.593 7.725-3.388 2.082-6.101 1.003-9.869 2.39z" fill="#ffd700" stroke="#404040"/>
</g>
		
			<g id="use74" transform="matrix(-.8868 -.1443 .1443 -.8868 74.276 137.3)">
	<path id="path20" d="m-8.165 4.965c0.856-2.747 3.204-5.641 6.593-7.724 3.389-2.082 7.03-2.868 9.869-2.391-0.856 2.749-3.203 5.642-6.593 7.725-3.388 2.082-6.101 1.003-9.869 2.39z" fill="#ffd700" stroke="#404040"/>
</g>
		
			<g id="use76" transform="matrix(-.8979 .0298 -.0298 -.8979 69.166 143.88)">
	<path id="path21" d="m-8.165 4.965c0.856-2.747 3.204-5.641 6.593-7.724 3.389-2.082 7.03-2.868 9.869-2.391-0.856 2.749-3.203 5.642-6.593 7.725-3.388 2.082-6.101 1.003-9.869 2.39z" fill="#ffd700" stroke="#404040"/>
</g>
		
			<g id="use78" transform="matrix(-.8802 .1798 -.1798 -.8802 66.21 149.92)">
	<path id="path23" d="m-8.165 4.965c0.856-2.747 3.204-5.641 6.593-7.724 3.389-2.082 7.03-2.868 9.869-2.391-0.856 2.749-3.203 5.642-6.593 7.725-3.388 2.082-6.101 1.003-9.869 2.39z" fill="#ffd700" stroke="#404040"/>
</g>
		
			<g id="use80" transform="matrix(-.8293 .3456 -.3456 -.8293 63.882 157.04)">
	<path id="path25" d="m-8.165 4.965c0.856-2.747 3.204-5.641 6.593-7.724 3.389-2.082 7.03-2.868 9.869-2.391-0.856 2.749-3.203 5.642-6.593 7.725-3.388 2.082-6.101 1.003-9.869 2.39z" fill="#ffd700" stroke="#404040"/>
</g>
		
			<g id="use82" transform="matrix(-.7515 .4924 -.4924 -.7515 63.399 165.25)">
	<path id="path27" d="m-8.165 4.965c0.856-2.747 3.204-5.641 6.593-7.724 3.389-2.082 7.03-2.868 9.869-2.391-0.856 2.749-3.203 5.642-6.593 7.725-3.388 2.082-6.101 1.003-9.869 2.39z" fill="#ffd700" stroke="#404040"/>
</g>
		
			<g id="use84" transform="matrix(-.7339 .6792 -.6792 -.7339 64.372 172.56)">
	<path id="path28" d="m-8.165 4.965c0.856-2.747 3.204-5.641 6.593-7.724 3.389-2.082 7.03-2.868 9.869-2.391-0.856 2.749-3.203 5.642-6.593 7.725-3.388 2.082-6.101 1.003-9.869 2.39z" fill="#ffd700" stroke="#404040"/>
</g>
		
			<g id="use86" transform="matrix(-.6786 .7345 -.7345 -.6786 66.73 180.01)">
	<path id="path29" d="m-8.165 4.965c0.856-2.747 3.204-5.641 6.593-7.724 3.389-2.082 7.03-2.868 9.869-2.391-0.856 2.749-3.203 5.642-6.593 7.725-3.388 2.082-6.101 1.003-9.869 2.39z" fill="#ffd700" stroke="#404040"/>
</g>
		
			<g id="use88" transform="rotate(126.51 -12.377 110.91)">
	<path id="path30" d="m-8.165 4.965c0.856-2.747 3.204-5.641 6.593-7.724 3.389-2.082 7.03-2.868 9.869-2.391-0.856 2.749-3.203 5.642-6.593 7.725-3.388 2.082-6.101 1.003-9.869 2.39z" fill="#ffd700" stroke="#404040"/>
</g>
		
			<g id="use90" transform="matrix(-.5347 .845 -.845 -.5347 72.689 194.19)">
	<path id="path31" d="m-8.165 4.965c0.856-2.747 3.204-5.641 6.593-7.724 3.389-2.082 7.03-2.868 9.869-2.391-0.856 2.749-3.203 5.642-6.593 7.725-3.388 2.082-6.101 1.003-9.869 2.39z" fill="#ffd700" stroke="#404040"/>
</g>
	</g>
	<g id="g118">
		
			<g id="use94" transform="matrix(-.0528 .6069 .7324 .0271 88.382 120.46)">
	<path id="path32" d="m-8.165 4.965c0.856-2.747 3.204-5.641 6.593-7.724 3.389-2.082 7.03-2.868 9.869-2.391-0.856 2.749-3.203 5.642-6.593 7.725-3.388 2.082-6.101 1.003-9.869 2.39z" fill="#ffd700" stroke="#404040"/>
</g>
		
			<g id="use96" transform="matrix(-.0228 .7836 .8333 .0215 80.903 123.81)">
	<path id="path33" d="m-8.165 4.965c0.856-2.747 3.204-5.641 6.593-7.724 3.389-2.082 7.03-2.868 9.869-2.391-0.856 2.749-3.203 5.642-6.593 7.725-3.388 2.082-6.101 1.003-9.869 2.39z" fill="#ffd700" stroke="#404040"/>
</g>
		
			<g id="use98" transform="matrix(.1668 .8165 .8179 -.1667 74.724 127.02)">
	<path id="path34" d="m-8.165 4.965c0.856-2.747 3.204-5.641 6.593-7.724 3.389-2.082 7.03-2.868 9.869-2.391-0.856 2.749-3.203 5.642-6.593 7.725-3.388 2.082-6.101 1.003-9.869 2.39z" fill="#ffd700" stroke="#404040"/>
</g>
		
			<g id="use100" transform="matrix(.2286 .8433 .8074 -.2388 68.962 131.36)">
	<path id="path35" d="m-8.165 4.965c0.856-2.747 3.204-5.641 6.593-7.724 3.389-2.082 7.03-2.868 9.869-2.391-0.856 2.749-3.203 5.642-6.593 7.725-3.388 2.082-6.101 1.003-9.869 2.39z" fill="#ffd700" stroke="#404040"/>
</g>
		
			<g id="use102" transform="matrix(.458 .8316 .9825 -.4043 63.659 138.2)">
	<path id="path36" d="m-8.165 4.965c0.856-2.747 3.204-5.641 6.593-7.724 3.389-2.082 7.03-2.868 9.869-2.391-0.856 2.749-3.203 5.642-6.593 7.725-3.388 2.082-6.101 1.003-9.869 2.39z" fill="#ffd700" stroke="#404040"/>
</g>
		
			<g id="use104" transform="matrix(.6127 .72 .7903 -.5582 58.837 145.95)">
	<path id="path37" d="m-8.165 4.965c0.856-2.747 3.204-5.641 6.593-7.724 3.389-2.082 7.03-2.868 9.869-2.391-0.856 2.749-3.203 5.642-6.593 7.725-3.388 2.082-6.101 1.003-9.869 2.39z" fill="#ffd700" stroke="#404040"/>
</g>
		
			<g id="use106" transform="matrix(.7664 .6424 .6424 -.7664 56.343 154)">
	<path id="path38" d="m-8.165 4.965c0.856-2.747 3.204-5.641 6.593-7.724 3.389-2.082 7.03-2.868 9.869-2.391-0.856 2.749-3.203 5.642-6.593 7.725-3.388 2.082-6.101 1.003-9.869 2.39z" fill="#ffd700" stroke="#404040"/>
</g>
		
			<g id="use108" transform="matrix(.8589 .5122 .5122 -.8589 55.158 163.79)">
	<path id="path39" d="m-8.165 4.965c0.856-2.747 3.204-5.641 6.593-7.724 3.389-2.082 7.03-2.868 9.869-2.391-0.856 2.749-3.203 5.642-6.593 7.725-3.388 2.082-6.101 1.003-9.869 2.39z" fill="#ffd700" stroke="#404040"/>
</g>
		
			<g id="use110" transform="matrix(.9327 .3607 .3607 -.9327 56.124 172.99)">
	<path id="path40" d="m-8.165 4.965c0.856-2.747 3.204-5.641 6.593-7.724 3.389-2.082 7.03-2.868 9.869-2.391-0.856 2.749-3.203 5.642-6.593 7.725-3.388 2.082-6.101 1.003-9.869 2.39z" fill="#ffd700" stroke="#404040"/>
</g>
		
			<g id="use112" transform="matrix(.9829 .1839 .1839 -.9829 57.534 181.83)">
	<path id="path41" d="m-8.165 4.965c0.856-2.747 3.204-5.641 6.593-7.724 3.389-2.082 7.03-2.868 9.869-2.391-0.856 2.749-3.203 5.642-6.593 7.725-3.388 2.082-6.101 1.003-9.869 2.39z" fill="#ffd700" stroke="#404040"/>
</g>
		
			<g id="use114" transform="matrix(.9914 .1311 .1311 -.9914 61.274 190.55)">
	<path id="path42" d="m-8.165 4.965c0.856-2.747 3.204-5.641 6.593-7.724 3.389-2.082 7.03-2.868 9.869-2.391-0.856 2.749-3.203 5.642-6.593 7.725-3.388 2.082-6.101 1.003-9.869 2.39z" fill="#ffd700" stroke="#404040"/>
</g>
		
			<g id="use116" transform="matrix(1 0 0 -1 65.584 199.08)">
	<path id="path43" d="m-8.165 4.965c0.856-2.747 3.204-5.641 6.593-7.724 3.389-2.082 7.03-2.868 9.869-2.391-0.856 2.749-3.203 5.642-6.593 7.725-3.388 2.082-6.101 1.003-9.869 2.39z" fill="#ffd700" stroke="#404040"/>
</g>
	</g>
</g>
</svg>
