<?xml version="1.0" encoding="UTF-8" standalone="no"?>
<!-- Created with Inkscape (http://www.inkscape.org/) -->

<svg
   xmlns:dc="http://purl.org/dc/elements/1.1/"
   xmlns:cc="http://creativecommons.org/ns#"
   xmlns:rdf="http://www.w3.org/1999/02/22-rdf-syntax-ns#"
   xmlns:svg="http://www.w3.org/2000/svg"
   xmlns="http://www.w3.org/2000/svg"
   version="1.0"
   width="600"
   height="400"
   id="svg2">
  <defs
     id="defs40">
    <style
       type="text/css"
       id="style6" />
    <style
       type="text/css"
       id="style3005" />
    <style
       type="text/css"
       id="style6-7" />
    <style
       type="text/css"
       id="style3005-1" />
  </defs>
  <metadata
     id="metadata7">
    <rdf:RDF>
      <cc:Work
         rdf:about="">
        <dc:format>image/svg+xml</dc:format>
        <dc:type
           rdf:resource="http://purl.org/dc/dcmitype/StillImage" />
        <dc:title></dc:title>
      </cc:Work>
    </rdf:RDF>
  </metadata>
  <path
     d="m 417.40672,202.5311 -7.59328,0 0,-5.06219 7.59328,0 c 1.39771,9.6e-4 2.5311,-1.13338 2.5311,-2.53109 0,-1.39651 -1.13339,-2.5299 -2.5311,-2.5299 l -7.59328,0 5.0622,-5.06218 2.53108,0 c 4.12999,0.0142 7.59328,3.40018 7.59328,7.59208 0,1.94535 -0.73218,3.71925 -1.93462,5.06338 1.20244,1.34293 1.93462,3.11683 1.93462,5.061 0,4.19308 -3.46329,7.57899 -7.59328,7.59328 l -7.59328,0 0,-5.0622 7.59328,0 c 1.39771,0 2.5311,-1.13338 2.5311,-2.53108 0,-1.39769 -1.13339,-2.5311 -2.5311,-2.5311 z m -196.84737,-2.53109 c 0,-6.98729 5.66722,-12.65548 12.65534,-12.65548 6.98813,0 12.65535,5.66819 12.65535,12.65548 0,6.98848 -5.66722,12.65547 -12.65535,12.65547 -6.98812,0 -12.65534,-5.66699 -12.65534,-12.65547 z m 12.65534,17.71764 c 9.78352,0 17.71753,-7.93378 17.71753,-17.71764 0,-9.78269 -7.93401,-17.71766 -17.71753,-17.71766 -9.78339,0 -17.71754,7.93497 -17.71754,17.71766 0,9.78387 7.93415,17.71764 17.71754,17.71764 z m -5.06075,-25.31093 5.06075,0 c 4.19286,0 7.59328,3.40019 7.59328,7.59328 0,4.19309 -3.46352,7.57899 -7.59328,7.59327 l -5.06075,0 0,-5.06218 5.06075,0 c 1.39758,0 2.5311,-1.13339 2.5311,-2.53109 0,-1.3977 -1.13352,-2.5311 -2.5311,-2.5311 l -5.06075,0 z m 43.0256,-5.06099 5.06208,0 0,25.30974 -5.06208,0 -10.12437,-15.89018 0,15.89018 -5.06206,0 0,-25.30974 5.06206,0 10.12437,15.89016 z m -75.9309,0 15.18646,0 0,5.06218 -10.12439,0 0,5.06099 10.12439,0 0,5.06219 -10.12439,0 0,5.06218 10.12439,0 0,5.0622 -15.18646,0 z m 86.05384,0 5.06243,0 0,25.30974 -5.06243,0 z m 20.24899,25.30974 c 5.59079,0 10.12438,-4.53359 10.12438,-10.12438 l 0,-5.061 c 0,-5.59079 -4.53359,-10.12436 -10.12438,-10.12436 l -10.12437,0 0,25.30974 z m 0,-20.24756 c 2.7954,0 5.06218,2.26679 5.06218,5.06219 l 0,5.061 c 0,2.7954 -2.26678,5.06218 -5.06218,5.06218 l -5.06219,0 0,-15.18536 z m 88.01443,7.5921 c 0,6.98848 -5.66699,12.65547 -12.65548,12.65547 -6.98728,0 -12.65546,-5.66699 -12.65546,-12.65547 0,-6.98729 5.66818,-12.65548 12.65546,-12.65548 6.98849,0 12.65548,5.66819 12.65548,12.65548 z m -12.65548,-17.71766 c -9.78268,0 -17.71646,7.93497 -17.71646,17.71766 0,9.78387 7.93378,17.71764 17.71646,17.71764 9.78388,0 17.71766,-7.93378 17.71766,-17.71764 0,-9.78269 -7.93378,-17.71766 -17.71766,-17.71766 z M 175,187.34453 l 5.06221,0 0,20.24874 10.12425,0 0,5.0622 -15.18646,0 z m 229.75126,9.6e-4 0,25.30974 -5.06219,0 0,-20.24756 z m -58.21276,15.18536 c -1.3977,0 -2.53109,1.1334 -2.53109,2.5311 l 0,2.5311 10.12437,0 0,5.06218 -15.18657,0 c 0,-2.5311 0,-5.06218 0,-7.59328 0.0143,-4.12997 3.4002,-7.59326 7.59329,-7.59326 1.3965,9.4e-4 2.53109,-1.1334 2.53109,-2.53112 0,-1.39651 -1.13459,-2.5299 -2.53109,-2.5299 l -7.59329,0 5.0622,-5.06218 2.53109,0 c 4.1288,0.0143 7.59328,3.40018 7.59328,7.59208 0,4.1931 -3.40138,7.59328 -7.59328,7.59328 z"
     id="path3027"
     style="fill:#800080;fill-opacity:1;stroke:none" />
  <rect
     width="600"
     height="400"
     x="0"
     y="0"
     id="rect5751"
     style="fill:#005bbb;fill-opacity:1;stroke:none" />
  <rect
     width="600"
     height="200"
     x="0"
     y="100"
     id="rect5753"
     style="fill:#ffffff;fill-opacity:1;stroke:none" />
  <g
     transform="matrix(0.50073566,0,0,0.50073566,14.660916,104.77908)"
     id="g5175">
    <path
       d="m 210.92065,380.08552 c 0,-12.52272 5.7347,-25.5964 20.38926,-25.5964 l 43.13001,0.002 c 18.89302,-0.004 36.71472,-15.98696 36.71472,-35.08163 l 0,-1.60608 0,-0.004 0,-38.0273 c 9.73009,0 21.59921,-13.15651 21.59921,-22.47068 l 0,-94.80357 c -10.85902,0 -21.35254,-2.16064 -27.41494,-12.06899 -4.96408,-8.11141 -4.08902,-17.92613 0.28628,-26.07355 l 0.0162,-0.0162 0.009,-0.0162 -0.007,-0.004 c 0.89666,-1.65829 2.16964,-3.12753 3.7037,-4.22405 -1.23157,1.97698 -1.82394,4.15563 -1.83475,6.29467 -0.0432,7.72429 7.13372,12.88823 14.36647,11.60084 5.89315,-1.04971 9.58065,-5.95617 10.61596,-11.56663 2.06881,-11.19213 -4.66519,-19.60423 -12.25624,-26.557896 -11.32196,-10.368692 -17.1809,-22.821192 -20.5533,-38.131142 l -57.853,0 0,-25.951113 -77.57785,0 0,25.951113 -57.85299,0 c -3.37061,15.30995 -9.231348,27.76245 -20.553113,38.131732 -7.591056,6.953666 -14.325057,15.365766 -12.256243,26.557896 1.035308,5.61046 4.722804,10.51692 10.615955,11.56663 7.23275,1.28739 14.409683,-3.87655 14.36647,-11.60084 -0.0108,-2.13904 -0.601379,-4.31769 -1.834745,-6.29467 1.535856,1.09652 2.807034,2.56576 3.703696,4.22405 l -0.005,0.004 0.007,0.0162 0.018,0.0162 c 4.3735,8.14742 5.24856,17.96214 0.28629,26.07355 -6.064207,9.90835 -16.557725,12.06899 -27.416753,12.06899 l 0,94.80357 c 0,9.31417 11.869128,22.47068 21.599219,22.47068 l 0,38.0273 0,0.004 0,1.60608 c 0,19.09467 17.821694,35.07802 36.714714,35.08163 l 43.13002,-0.002 c 14.65455,0 20.38925,13.07368 20.38925,25.5964 l 15.75469,0 z"
       id="path3791"
       style="fill:#005bbb;fill-opacity:1;fill-rule:evenodd;stroke:none" />
    <path
       d="m 192.74425,74.727373 -1.6727,0 c 0.6842,-4.733607 5.57806,-8.404898 11.51442,-8.404898 l 0.86786,0 c 5.93456,0 10.83022,3.671291 11.51442,8.404898 l -1.6727,0 0.80844,1.755522 0.94708,0 0,14.838209 -0.84085,0 0,3.339993 22.5427,0 0,-5.749108 -1.84915,0 0,-26.165377 1.71591,0 1.72852,-2.293881 -2.37131,0 0,-6.737603 2.64499,0 1.51425,-2.745816 -3.3724,0 c -0.11344,-1.841947 -0.48075,-3.253567 -1.82214,-4.594965 -0.90207,-0.902068 -1.91577,-1.834745 -1.70331,-3.29678 0.0864,-0.60678 0.3313,-1.256773 0.57977,-1.88516 l -0.72201,-1.096526 -29.14887,0 -1.85455,0 -29.14886,0 -0.72201,1.096526 c 0.24667,0.628387 0.49154,1.27838 0.57977,1.88516 0.21246,1.462035 -0.80124,2.394712 -1.70511,3.29678 -1.3396,1.341398 -1.70691,2.753018 -1.82034,4.594965 l -3.3724,0 1.51425,2.745816 2.64498,0 0,6.737603 -2.3713,0 1.72851,2.293881 1.71591,0 0,26.165377 -1.84915,0 0,5.749108 22.5409,0 0,-2.886258 -0.83905,-0.453735 0,-14.838209 0.94708,0 0.80845,-1.755522 z"
       id="path3795"
       style="fill:#ffd500;fill-opacity:1;fill-rule:evenodd;stroke:#000000;stroke-width:0.81811273" />
    <path
       d="m 199.14155,59.588474 7.7567,0 -1.39001,7.497428 -4.97668,0 -1.39001,-7.497428 z"
       id="path3799"
       style="fill:#000000;fill-rule:evenodd;stroke:none" />
    <path
       d="m 237.46954,52.636608 0.76703,-1.6835 -70.43334,0 0.76523,1.6835 68.90108,0 z"
       id="path3801"
       style="fill:#000000;fill-rule:evenodd;stroke:none" />
    <path
       d="m 214.01037,50.434553 c 0.004,-2.162442 0.91467,-3.453426 1.75912,-4.490534 1.08572,-1.332396 1.82394,-2.122831 1.09292,-4.098018 l -0.48434,0.04141 c 0.56897,1.528655 -0.0288,2.459531 -1.02811,3.505642 -1.13073,1.186553 -2.57116,2.520749 -2.50634,5.041498 l 1.16675,0 z"
       id="path3803"
       style="fill:#000000;fill-rule:evenodd;stroke:none" />
    <path
       d="m 226.83378,49.719741 0,-5.689691 0.6806,0 0,5.689691 3.63168,0 0,-5.689691 0.6824,0 0,6.3919 -13.62285,0 0,-6.3919 0.6824,0 0,5.689691 3.63168,0 0,-5.689691 0.68061,0 0,5.689691 3.63348,0 z"
       id="path3805"
       style="fill:#000000;fill-rule:evenodd;stroke:none" />
    <path
       d="m 179.21863,89.781647 0.94348,1.164946 0,1.020904 -1.84555,-0.729217 -3.94678,0 -1.84734,0.729217 0,-1.020904 0.94528,-1.164946 -0.12784,-26.268007 -0.96509,-1.433226 2.22906,0 0,0 3.55426,0 1.06052,1.319793 0,26.38144 z m -1.3432,-26.152772 -3.43723,0 0,25.94571 c 1.15235,-0.0126 2.28848,-0.01801 3.43723,-0.0018 l 0,-25.94391 z"
       id="path3807"
       style="fill:#000000;fill-rule:evenodd;stroke:none" />
    <path
       d="m 192.78746,61.76352 -2.14084,0 0,7.645072 c 2.21646,-3.015896 5.89495,-4.886652 9.50683,-5.48443 l -0.17465,-0.47354 c -2.3551,0.189056 -5.23416,0.655394 -7.19134,1.41342 l 0,-3.100522 z"
       id="path3809"
       style="fill:#000000;fill-rule:evenodd;stroke:none" />
    <path
       d="m 192.02943,50.434553 c -0.004,-2.162442 -0.91647,-3.453426 -1.76092,-4.490534 -1.08392,-1.332396 -1.82214,-2.122831 -1.09112,-4.098018 l 0.48434,0.04141 c -0.56897,1.528655 0.0288,2.459531 1.0281,3.505642 1.13074,1.186553 2.57117,2.520749 2.50635,5.041498 l -1.16675,0 z"
       id="path3811"
       style="fill:#000000;fill-rule:evenodd;stroke:none" />
    <path
       d="m 231.49356,41.266229 -0.43573,0.984892 -56.07586,0 -0.43573,-0.984892 56.94732,0 z"
       id="path3813"
       style="fill:#000000;fill-rule:evenodd;stroke:none" />
    <path
       d="m 177.25064,59.023106 3.52545,0 0,0.844451 -3.52545,0 0,-0.844451 z m 5.74011,0 3.52364,0 0,0.844451 -3.52364,0 0,-0.844451 z m 5.7401,0 3.52365,0 0,0.844451 -3.52365,0 0,-0.844451 z m 5.74011,0 3.52365,0 0,0.844451 -3.52365,0 0,-0.844451 z m 5.7401,0 3.52365,0 0,0.844451 -3.52365,0 0,-0.844451 z m 5.73831,0 3.52545,0 0,0.844451 -3.52545,0 0,-0.844451 z m 5.74011,0 3.52544,0 0,0.844451 -3.52544,0 0,-0.844451 z m 5.7401,0 3.52365,0 0,0.844451 -3.52365,0 0,-0.844451 z m 5.74011,0 3.52364,0 0,0.844451 -3.52364,0 0,-0.844451 z m 5.7401,0 3.52365,0 0,0.844451 -3.52365,0 0,-0.844451 z m -57.39745,0 3.52364,0 0,0.844451 -3.52364,0 0,-0.844451 z"
       id="path3815"
       style="fill:#000000;fill-rule:evenodd;stroke:none" />
    <path
       d="m 212.70498,50.434553 0,-5.776116 -19.37196,0 0,5.776116 -0.6806,0 0,-6.478325 20.73496,0 0,6.478325 -0.6824,0 z"
       id="path3817"
       style="fill:#000000;fill-rule:evenodd;stroke:none" />
    <path
       d="m 226.97782,58.994297 -2.54776,0 0,-6.782615 2.54776,0 0,6.782615 z m -4.55716,0 -2.54775,0 0,-6.782615 2.54775,0 0,6.782615 z m -4.55715,0 -2.54776,0 0,-6.782615 2.54776,0 0,6.782615 z m -4.55715,0 -2.54776,0 0,-6.782615 2.54776,0 0,6.782615 z m -4.55896,0 -2.54776,0 0,-6.782615 2.54776,0 0,6.782615 z m 22.78757,0 -2.54775,0 0,-6.782615 2.54775,0 0,6.782615 z m -52.47299,0 2.54776,0 0,-6.782615 -2.54776,0 0,6.782615 z m 4.55715,0 2.54776,0 0,-6.782615 -2.54776,0 0,6.782615 z m 4.55716,0 2.54775,0 0,-6.782615 -2.54775,0 0,6.782615 z m 4.55715,0 2.54776,0 0,-6.782615 -2.54776,0 0,6.782615 z m 4.55716,0 2.54955,0 0,-6.782615 -2.54955,0 0,6.782615 z m -22.78758,0 2.54956,0 0,-6.782615 -2.54956,0 0,6.782615 z m 27.2421,0 2.54956,0 0,-6.782615 -2.54956,0 0,6.782615 z"
       id="path3819"
       style="fill:#000000;fill-rule:evenodd;stroke:none" />
    <path
       d="m 179.20602,49.719741 0,-5.689691 -0.6806,0 0,5.689691 -3.63168,0 0,-5.689691 -0.6824,0 0,6.3919 13.62285,0 0,-6.3919 -0.68241,0 0,5.689691 -3.63168,0 0,-5.689691 -0.6806,0 0,5.689691 -3.63348,0 z"
       id="path3821"
       style="fill:#000000;fill-rule:evenodd;stroke:none" />
    <path
       d="m 183.22122,89.781647 -0.94529,1.164946 0,1.020904 1.84735,-0.729217 3.94498,0 1.84734,0.729217 0,-1.020904 -0.94528,-1.164946 0.12784,-26.268007 0.96509,-1.433226 -2.22906,0 0,0 -3.55426,0 -1.05871,1.319793 0,26.38144 z m 1.34319,-26.152772 3.43543,0 0,25.94571 c -1.15235,-0.0126 -2.28848,-0.01801 -3.43543,-0.0018 l 0,-25.94391 z"
       id="path3823"
       style="fill:#000000;fill-rule:evenodd;stroke:none" />
    <path
       d="m 222.81858,89.781647 0.94528,1.164946 0,1.020904 -1.84735,-0.729217 -3.94497,0 -1.84735,0.729217 0,-1.020904 0.94528,-1.164946 -0.12783,-26.268007 -0.96689,-1.433226 2.23086,0 0,0 3.55426,0 1.05871,1.319793 0,26.38144 z m -1.3432,-26.152772 -3.43542,0 0,25.94571 c 1.15235,-0.0126 2.28848,-0.01801 3.43542,-0.0018 l 0,-25.94391 z"
       id="path3825"
       style="fill:#000000;fill-rule:evenodd;stroke:none" />
    <path
       d="m 226.82117,89.781647 -0.94348,1.164946 0,1.020904 1.84555,-0.729217 3.94677,0 1.84735,0.729217 0,-1.020904 -0.94528,-1.164946 0.12784,-26.268007 0.96509,-1.433226 -2.22907,0 0,0 -3.55425,0 -1.06052,1.319793 0,26.38144 z m 1.3432,-26.152772 3.43722,0 0,25.94571 c -1.15234,-0.0126 -2.28848,-0.01801 -3.43722,-0.0018 l 0,-25.94391 z"
       id="path3827"
       style="fill:#000000;fill-rule:evenodd;stroke:none" />
    <path
       d="m 213.25234,61.76352 2.14084,0 0,7.645072 c -2.21646,-3.015896 -5.89496,-4.886652 -9.50683,-5.48443 l 0.17465,-0.47354 c 2.3533,0.189056 5.23416,0.655394 7.19134,1.41342 l 0,-3.100522 z"
       id="path3829"
       style="fill:#000000;fill-rule:evenodd;stroke:none" />
    <path
       d="m 199.84736,60.177249 1.17214,6.319878 4.00079,0 1.17215,-6.319878 -6.34508,0 z m 3.52724,5.106317 0.42673,-4.247462 0.58337,0.05762 -0.42672,4.247463 -0.58338,-0.05762 z m -1.29458,0.05762 -0.42493,-4.247463 0.58338,-0.05762 0.42492,4.247462 -0.58337,0.05762 z"
       id="path3831"
       style="fill:#ffd500;fill-opacity:1;fill-rule:evenodd;stroke:none" />
    <path
       d="m 145.03187,0.73798414 27.30331,0 c 2.6918,3.99898846 5.18194,8.04299026 7.49203,12.12840486 l 11.34337,0 0,-12.12840486 22.66153,0 0,12.12840486 11.34157,0 c 2.31009,-4.0854146 4.80023,-8.1294164 7.49383,-12.12840486 l 27.30151,0 C 252.34916,10.586911 246.31557,20.752732 241.3677,31.138219 l -77.73451,0 C 158.68712,20.752732 152.65173,10.586911 145.03187,0.73798414 z"
       id="path3833"
       style="fill:#ffd500;fill-opacity:1;fill-rule:evenodd;stroke:#aa8800;stroke-width:1;stroke-miterlimit:4;stroke-opacity:1;stroke-dasharray:none" />
    <path
       d="m 203.50244,114.49759 c 4.49414,0 8.14202,3.64789 8.14202,8.14202 0,4.49414 -3.64788,8.14202 -8.14202,8.14202 -4.49413,0 -8.14022,-3.64788 -8.14022,-8.14202 0,-4.49413 3.64609,-8.14202 8.14022,-8.14202 z"
       id="path3835"
       style="fill:none;stroke:none" />
    <path
       d="m 210.06539,115.62833 c 3.87295,3.87475 3.86215,10.16042 -0.0108,14.03337 -3.87475,3.87295 -10.16222,3.86395 -14.03337,-0.0108 -3.87295,-3.87476 -3.86395,-10.16042 0.0108,-14.03337 3.87475,-3.87296 10.16042,-3.86395 14.03337,0.0108 z m -11.52162,2.51715 c -2.48114,2.47933 -2.47034,6.51613 0.004,8.99367 2.47934,2.48114 6.51794,2.47033 8.99547,-0.004 2.47934,-2.47934 2.47214,-6.51794 -0.005,-8.99548 -2.47753,-2.48113 -6.51613,-2.47213 -8.99367,0.005 z"
       id="path3837"
       style="fill:#ffd500;fill-opacity:1;fill-rule:evenodd;stroke:none" />
    <path
       d="m 103.0722,90.606292 c -1.59348,2.401914 -3.329194,4.683192 -5.207152,6.856438 -4.422114,5.11712 -10.239643,8.94506 -14.362868,14.23863 -4.038601,5.18374 -6.309075,12.1176 0.749022,18.63554"
       id="path3839"
       style="fill:none;stroke:none" />
    <path
       d="m 109.01576,126.05883 c 1.73752,3.93777 2.71701,8.30046 2.71701,12.91164 0,17.36075 -13.653458,31.43734 -30.488461,31.43734 l 0,84.42169 c -0.0018,9.40599 7.625266,17.03306 17.031261,17.03306 l 4.56796,-0.002 0,45.93885 c 0,15.90953 12.90263,28.81036 28.81036,28.81036 l 43.11921,0 c 14.7878,0 26.78116,11.99157 26.78116,26.77936"
       id="path3841"
       style="fill:none;stroke:none" />
    <path
       d="m 163.48915,69.646263 -50.92633,0 c -2.76022,9.62206 -6.82943,17.785686 -12.27785,24.852786"
       id="path3843"
       style="fill:none;stroke:none" />
    <path
       d="m 203.04331,361.73987 c -4.63278,-11.35237 -15.89873,-18.94343 -28.2666,-18.94343 l -43.13002,0 c -13.68227,-0.002 -24.98963,-11.31096 -24.98963,-24.99323 l 0.0144,-49.75778 -8.3959,0.004 0,-0.0144 -0.0072,0 0,0.0144 c -7.293968,-0.002 -13.212327,-6.0408 -13.212327,-13.21593 l 0.01621,-80.82782 c 25.920507,-2.95288 39.330887,-34.06253 23.352947,-55.43308 -4.72821,-6.32168 -12.753197,-10.81401 -20.616133,-7.90435 3.078915,-3.23196 6.683586,-6.02459 8.957662,-8.06279 8.694791,-7.796319 14.735581,-17.025862 18.631941,-29.130859 l 45.7678,0 0,-7.655876 -51.4827,0 c -2.57476,11.698077 -7.89895,23.151281 -15.997757,32.085536 -3.894557,4.292479 -8.707388,7.654079 -12.175218,12.339069 -4.098018,5.53664 -6.25686,15.28474 -1.323393,21.06626 4.57876,5.36559 14.760786,2.681 14.30345,-5.18014 -0.212463,-3.66949 -2.758419,-7.22555 -7.513633,-7.22555 -2.15344,0 -4.096217,0.88767 -5.488031,2.31729 -0.07742,-2.20926 1.121734,-4.3807 3.145535,-5.64468 2.331693,-1.45843 5.738306,-1.75732 8.793814,-1.23156 4.40771,0.75802 8.419303,3.97378 10.623163,8.0808 11.89253,22.14658 -2.97449,44.15452 -26.635322,44.15452 l 0.0144,88.25323 c 0,11.31816 9.330373,20.83759 20.837593,20.84119 l 0,0.0162 0.0072,0 0,-0.0162 0.74002,0 0.0144,42.12892 c 0.0018,17.91173 14.704969,32.6167 32.616699,32.6203 l 43.13002,-0.002 c 13.96675,0.002 24.47287,12.08699 24.47287,25.5802 l 7.58925,0 c 0,-13.49321 10.50613,-25.5784 24.47108,-25.5802 l 43.13001,0.002 c 17.91173,-0.004 32.6149,-14.70857 32.6167,-32.6203 l 0.0144,-42.12892 0.74002,0 0,0.0162 0.007,0 0,-0.0162 c 11.50722,-0.004 20.8376,-9.52303 20.8394,-20.84119 l 0.0144,-88.25323 c -23.66083,0 -38.52965,-22.00794 -26.63531,-44.15452 2.20385,-4.10702 6.21364,-7.32278 10.62315,-8.0808 3.05371,-0.52576 6.46032,-0.22687 8.79202,1.23156 2.0238,1.26398 3.22295,3.43542 3.14733,5.64468 -1.39181,-1.42962 -3.33639,-2.31729 -5.48803,-2.31729 -4.75701,0 -7.30297,3.55606 -7.51543,7.22555 -0.45734,7.86114 9.72469,10.54573 14.30345,5.18014 4.93526,-5.78152 2.77462,-15.52962 -1.3216,-21.06626 -3.46783,-4.68499 -8.28246,-8.04659 -12.17521,-12.339069 -8.10061,-8.934255 -13.42479,-20.387459 -15.99776,-32.085536 l -51.4827,0 0,7.655876 45.7678,0 c 3.89636,12.104997 9.93536,21.33454 18.63194,29.130859 2.27228,2.0382 5.87695,4.83083 8.95586,8.06279 -7.86293,-2.90966 -15.88792,1.58267 -20.61432,7.90435 -15.97975,21.37055 -2.56937,52.4802 23.35294,55.43308 l 0.0144,80.82782 c 0,7.17513 -5.91836,13.21413 -13.21233,13.21593 l 0,-0.0144 -0.007,0 0,0.0144 -8.39589,-0.004 0.0162,49.75778 c -0.002,13.68227 -11.30916,24.99143 -24.99143,24.99323 l -43.13001,0 c -12.36788,0 -23.63203,7.59106 -28.2666,18.94343 z"
       id="path3845"
       style="fill:#ffd500;fill-opacity:1;fill-rule:evenodd;stroke:none" />
    <path
       d="m 266.32851,302.73453 -6.20644,0 c -13.06648,0 -17.47599,-9.14311 -11.50182,-24.2496 l 9.51583,-24.05695 c 6.90865,-17.47059 17.58402,-18.61573 34.71071,-17.51921 -0.16925,-20.02735 -3.3832,-41.42671 -13.52021,-60.08205 l -38.12633,95.567 c -6.0372,15.12989 -10.97066,18.15119 -22.88481,18.15119 l -30.54427,0 c -11.91414,0 -16.84761,-3.0213 -22.8848,-18.15119 l -38.12814,-95.567 c -10.13521,18.65534 -13.34916,40.0547 -13.51841,60.08205 17.12489,-1.09652 27.80026,0.0486 34.71071,17.51921 l 9.51583,24.05695 c 5.97418,15.10649 1.56467,24.2496 -11.50182,24.2496 l -6.20644,0 0,11.00127 48.57123,0 c 4.45093,0 9.13772,0.93988 10.0938,9.37539 l 9.24035,0 c 0.95608,-8.43551 5.64288,-9.37539 10.0938,-9.37539 l 48.57123,0 0,-11.00127 z m -4.98208,3.03931 c -1.3594,0 -2.46133,1.10193 -2.46133,2.46133 0,1.3594 1.10193,2.46313 2.46133,2.46313 1.35941,0 2.46133,-1.10373 2.46133,-2.46313 0,-1.3594 -1.10192,-2.46133 -2.46133,-2.46133 z m 18.20701,-112.10852 c -2.09042,0 -3.78652,1.10193 -3.78652,2.46133 0,1.35941 1.6961,2.46133 3.78652,2.46133 2.09043,0 3.78473,-1.10192 3.78473,-2.46133 0,-1.3594 -1.6943,-2.46133 -3.78473,-2.46133 z m -153.02027,0 c 2.09222,0 3.78652,1.10193 3.78652,2.46133 0,1.35941 -1.6943,2.46133 -3.78652,2.46133 -2.09042,0 -3.78653,-1.10192 -3.78653,-2.46133 0,-1.3594 1.69611,-2.46133 3.78653,-2.46133 z m 18.20701,112.10852 c 1.3594,0 2.46133,1.10193 2.46133,2.46133 0,1.3594 -1.10193,2.46313 -2.46133,2.46313 -1.35941,0 -2.46133,-1.10373 -2.46133,-2.46313 0,-1.3594 1.10192,-2.46133 2.46133,-2.46133 z"
       id="path3847"
       style="fill:#ffd500;fill-opacity:1;fill-rule:evenodd;stroke:none" />
    <path
       d="m 205.56586,271.36021 c 4.27267,3.28778 12.7982,4.57516 19.43137,-7.97457 2.22006,-4.19705 3.18875,-7.96917 6.60616,-12.29045 -9.38078,5.17654 -16.04096,-1.98419 -22.18439,7.05269 0.91107,-5.61587 0.36371,-9.55904 -0.96509,-12.91884 -1.33059,-3.35979 -3.44802,-5.87514 -5.34578,-10.63216 -1.89777,4.75702 -4.0152,7.27237 -5.34399,10.63216 -1.3306,3.3598 -1.87616,7.30297 -0.96509,12.91884 -6.14523,-9.03688 -12.8036,-1.87615 -22.18619,-7.05269 3.41921,4.32128 4.3861,8.0934 6.60616,12.29045 6.63317,12.54973 15.16051,11.26235 19.43137,7.97457 l 0,11.40279 4.91547,0 0,-11.40279 z"
       id="path3849"
       style="fill:#ffd500;fill-opacity:1;fill-rule:evenodd;stroke:none" />
    <path
       d="m 167.99949,230.20538 c 3.23916,3.12753 6.716,4.19705 9.91015,4.80563 3.79552,0.72381 7.44521,0.80484 10.23064,3.79733 7.34258,7.88634 -3.06631,15.47379 -11.02288,8.95586 -4.47253,-3.66229 -8.56334,-9.95516 -9.11791,-17.55882 z m 29.15247,-18.07377 c -0.77243,6.35949 -3.3526,10.53493 -5.28277,14.44209 -1.48725,3.0159 -3.06632,6.01019 -2.78543,9.72109 0.46814,6.12182 6.3937,9.79671 10.092,3.30218 1.61148,-2.83044 2.90246,-6.25686 2.93487,-9.72829 0.0504,-5.66809 -1.72671,-13.26814 -4.95867,-17.73707 z m -35.61999,1.10013 c 3.23916,3.12752 6.7178,4.19704 9.91194,4.80562 3.79553,0.72202 7.44342,0.80484 10.22884,3.79733 7.34439,7.88635 -3.06631,15.4738 -11.02287,8.95586 -4.47253,-3.66229 -8.56335,-9.95516 -9.11791,-17.55881 z m 29.18307,-17.99635 c -0.77243,6.35949 -3.35439,10.53493 -5.28277,14.44209 -1.48904,3.0159 -3.06811,6.01018 -2.78543,9.72109 0.46634,6.12182 6.3937,9.79671 10.092,3.30218 1.60968,-2.83044 2.90247,-6.25686 2.93488,-9.72829 0.0486,-5.66809 -1.72852,-13.26634 -4.95868,-17.73707 z m -6.43871,-16.89622 c -0.77243,6.35949 -3.3526,10.53493 -5.28277,14.44209 -1.48724,3.01589 -3.06631,6.01018 -2.78363,9.72109 0.46634,6.12182 6.3919,9.79851 10.0902,3.30218 1.61148,-2.83044 2.90426,-6.25506 2.93487,-9.72829 0.0504,-5.66809 -1.72851,-13.26635 -4.95867,-17.73707 z m -29.21188,17.91892 c 3.23916,3.12933 6.71779,4.19705 9.91194,4.80563 3.79553,0.72381 7.44342,0.80484 10.22884,3.79733 7.34258,7.88634 -3.06631,15.4738 -11.02287,8.95586 -4.47253,-3.66229 -8.56335,-9.95336 -9.11791,-17.55882 z m -6.46752,-16.97364 c 3.23916,3.12933 6.71599,4.19704 9.91014,4.80562 3.79553,0.72382 7.44521,0.80484 10.23064,3.79733 7.34258,7.88635 -3.06631,15.4738 -11.02288,8.95586 -4.47252,-3.66228 -8.56514,-9.95335 -9.1179,-17.55881 z m 29.24069,-17.84151 c -0.77063,6.35949 -3.3526,10.53674 -5.28097,14.4421 -1.48905,3.01769 -3.06812,6.01198 -2.78543,9.72108 0.46634,6.12362 6.3937,9.79852 10.0902,3.30399 1.61148,-2.83224 2.90426,-6.25686 2.93487,-9.72829 0.0504,-5.66989 -1.72671,-13.26815 -4.95867,-17.73888 z m -6.43872,-16.89442 c -0.77063,6.35949 -3.35259,10.53673 -5.28097,14.4421 -1.48904,3.01769 -3.06811,6.01198 -2.78543,9.72108 0.46634,6.12362 6.3937,9.79852 10.0902,3.30219 1.61148,-2.83045 2.90427,-6.25506 2.93488,-9.7265 0.0504,-5.66988 -1.72672,-13.26814 -4.95868,-17.73887 z m -29.2713,17.76408 c 3.23917,3.12753 6.7178,4.19525 9.91195,4.80383 3.79553,0.72382 7.44341,0.80484 10.23064,3.79913 7.34258,7.88454 -3.06811,15.472 -11.02468,8.95586 -4.47253,-3.66229 -8.56334,-9.95516 -9.11791,-17.55882 z m 10.16942,-20.1858 c -0.58157,5.10452 -1.13253,10.44671 -0.79943,16.34166 0.95968,16.94304 19.23331,1.97519 12.30305,-7.18053 -2.97988,-3.93777 -7.85213,-7.02209 -11.50362,-9.16113 z m -5.84453,20.33525 -23.11887,-60.67083 2.22186,-1.3378 23.45917,61.5657 c 0.063,0.57977 0.12964,1.15954 0.19806,1.73931 -0.36551,-0.12784 -0.73102,-0.27188 -1.09473,-0.43213 -0.55456,-0.24307 -1.11093,-0.52575 -1.66549,-0.86425 z m 2.0184,-9.98937 -20.40007,-53.537113 2.22187,-1.337797 18.57251,48.74229 c -0.25927,1.99139 -0.38171,4.0422 -0.39431,6.13262 z m 1.47644,-11.41539 -17.1393,-44.977371 2.22186,-1.337798 16.94304,44.466019 c -0.45374,-0.20707 -0.91107,-0.41413 -1.37381,-0.61759 l -0.65179,2.46674 z m 5.84633,0.0558 -18.24662,-47.887029 2.22006,-1.339598 19.63124,51.516907 c -1.16135,-0.85345 -2.36411,-1.60427 -3.60468,-2.29028 z m 8.35629,6.63858 -21.8657,-57.381258 2.22006,-1.337798 23.11167,60.649226 c -0.19446,0.56897 -0.40332,1.11633 -0.61939,1.64929 -0.87326,-1.24597 -1.82394,-2.44513 -2.84664,-3.57946 z m 4.65978,-3.05731 -21.78827,-57.179597 2.22006,-1.337797 20.23081,53.090574 -0.60498,4.98208 c -0.018,0.14945 -0.0378,0.29709 -0.0576,0.44474 z m -29.47116,14.38807 -20.74216,-54.43558 2.22006,-1.33959 21.03385,55.1972 -2.51175,0.57797 z"
       id="path3851"
       style="fill:#ffd500;fill-opacity:1;fill-rule:evenodd;stroke:none" />
    <path
       d="m 144.28824,253.61234 -25.9367,59.43566 13.65886,-12.83061 16.5145,-36.01251 -3.42101,-8.65337 c -0.26648,-0.6734 -0.53656,-1.31979 -0.81565,-1.93917 z m 59.39065,-121.32726 -6.43691,-0.018 -14.4691,33.15506 c 1.21176,3.12212 1.97879,6.43331 2.3587,9.7589 0.88046,1.22076 1.77533,2.41451 2.50455,3.73611 l 10.20363,-22.25102 3.06811,0 0,22.38066 5.54205,0 0,-22.38066 3.06811,0 10.20183,22.24742 c 0.72922,-1.3198 1.62589,-2.51355 2.50635,-3.73251 0.37991,-3.32739 1.14514,-6.63858 2.3569,-9.7625 l -14.4673,-33.15146 -6.43692,0.018 z m -43.91325,85.86032 -6.91585,15.84831 4.43472,11.1129 7.61266,-16.60094 c -2.24347,-2.86645 -4.10882,-6.38289 -5.13153,-10.36027 z m 82.69498,10.35847 6.93386,15.1191 4.44912,-11.15252 -6.25326,-14.32866 c -1.0227,3.97739 -2.88805,7.49563 -5.12972,10.36208 z m 15.68986,34.21017 17.19691,37.50335 13.65886,12.83061 -26.54889,-60.84008 c -0.50955,1.0317 -1.00109,2.14444 -1.47464,3.34359 l -2.83224,7.16253 z"
       id="path3853"
       style="fill:#ffd500;fill-opacity:1;fill-rule:evenodd;stroke:none" />
    <path
       d="m 239.3583,230.20538 c -3.23916,3.12753 -6.716,4.19705 -9.91015,4.80563 -3.79552,0.72381 -7.44521,0.80484 -10.23064,3.79733 -7.34258,7.88634 3.06631,15.47379 11.02468,8.95586 4.47073,-3.66229 8.56334,-9.95516 9.11611,-17.55882 z m -29.15247,-18.07377 c 0.77243,6.35949 3.3544,10.53493 5.28277,14.44209 1.48905,3.0159 3.06812,6.01019 2.78543,9.72109 -0.46634,6.12182 -6.3937,9.79671 -10.092,3.30218 -1.60968,-2.83044 -2.90246,-6.25686 -2.93487,-9.72829 -0.0486,-5.66809 1.72851,-13.26814 4.95867,-17.73707 z m 35.61999,1.10013 c -3.23916,3.12752 -6.716,4.19704 -9.91195,4.80562 -3.79372,0.72202 -7.44341,0.80484 -10.22884,3.79733 -7.34258,7.88635 3.06632,15.4738 11.02288,8.95586 4.47253,-3.66229 8.56515,-9.95516 9.11791,-17.55881 z m -29.18127,-17.99635 c 0.77063,6.35949 3.35259,10.53493 5.28097,14.44209 1.48904,3.0159 3.06811,6.01018 2.78543,9.72109 -0.46634,6.12182 -6.3937,9.79671 -10.0902,3.30218 -1.61148,-2.83044 -2.90427,-6.25686 -2.93488,-9.72829 -0.0504,-5.66809 1.72672,-13.26634 4.95868,-17.73707 z m 6.43691,-16.89622 c 0.77243,6.35949 3.3544,10.53493 5.28277,14.44209 1.48724,3.01589 3.06811,6.01018 2.78543,9.72109 -0.46634,6.12182 -6.3937,9.79851 -10.092,3.30218 -1.61148,-2.83044 -2.90246,-6.25506 -2.93487,-9.72829 -0.0486,-5.66809 1.72851,-13.26635 4.95867,-17.73707 z m 29.21188,17.91892 c -3.23916,3.12933 -6.71599,4.19705 -9.91014,4.80563 -3.79553,0.72381 -7.44522,0.80484 -10.23064,3.79733 -7.34259,7.88634 3.06631,15.4738 11.02287,8.95586 4.47253,-3.66229 8.56515,-9.95336 9.11791,-17.55882 z m 6.46752,-16.97364 c -3.23736,3.12933 -6.71599,4.19704 -9.91014,4.80562 -3.79553,0.72382 -7.44521,0.80484 -10.23064,3.79733 -7.34258,7.88635 3.06631,15.4738 11.02468,8.95586 4.47072,-3.66228 8.56334,-9.95335 9.1161,-17.55881 z m -29.24069,-17.84151 c 0.77243,6.35949 3.3526,10.53674 5.28277,14.4421 1.48725,3.01769 3.06632,6.01198 2.78363,9.72108 -0.46634,6.12362 -6.3919,9.79852 -10.0902,3.30399 -1.61148,-2.83224 -2.90426,-6.25686 -2.93487,-9.72829 -0.0504,-5.66989 1.72851,-13.26815 4.95867,-17.73888 z m 6.43872,-16.89442 c 0.77243,6.35949 3.3544,10.53673 5.28097,14.4421 1.48904,3.01769 3.06811,6.01198 2.78723,9.72108 -0.46814,6.12362 -6.3937,9.79852 -10.092,3.30219 -1.61148,-2.83045 -2.90247,-6.25506 -2.93488,-9.7265 -0.0504,-5.66988 1.72852,-13.26814 4.95868,-17.73887 z m 29.2713,17.76408 c -3.23917,3.12753 -6.716,4.19525 -9.91015,4.80383 -3.79553,0.72382 -7.44521,0.80484 -10.23064,3.79913 -7.34258,7.88454 3.06631,15.472 11.02288,8.95586 4.47253,-3.66229 8.56334,-9.95516 9.11791,-17.55882 z m -10.16942,-20.1858 c 0.58157,5.10452 1.13253,10.44671 0.79943,16.34166 -0.95788,16.94304 -19.23331,1.97519 -12.30305,-7.18053 2.98168,-3.93777 7.85393,-7.02209 11.50362,-9.16113 z m 5.84453,20.33525 23.11887,-60.67083 -2.22006,-1.3378 -23.46097,61.5657 c -0.0612,0.57977 -0.12964,1.15954 -0.19806,1.73931 0.36551,-0.12784 0.73282,-0.27188 1.09653,-0.43213 0.55456,-0.24307 1.10913,-0.52575 1.66369,-0.86425 z m -2.0184,-9.98937 20.40006,-53.537113 -2.22005,-1.337797 -18.57433,48.74229 c 0.26108,1.99139 0.38172,4.0422 0.39432,6.13262 z m -1.47644,-11.41539 17.1393,-44.977371 -2.22006,-1.337798 -16.94484,44.466019 c 0.45374,-0.20707 0.91107,-0.41413 1.37381,-0.61759 l 0.65179,2.46674 z m -5.84633,0.0558 18.24842,-47.887029 -2.22186,-1.339598 -19.62943,51.516907 c 1.16134,-0.85345 2.3623,-1.60427 3.60287,-2.29028 z m -8.35629,6.63858 21.8657,-57.381258 -2.22006,-1.337798 -23.11167,60.649226 c 0.19446,0.56897 0.40332,1.11633 0.61939,1.64929 0.87326,-1.24597 1.82394,-2.44513 2.84664,-3.57946 z m -4.65798,-3.05731 21.78827,-57.179597 -2.22186,-1.337797 -20.22901,53.090574 0.60318,4.98208 c 0.018,0.14945 0.0378,0.29709 0.0594,0.44474 z m 29.46936,14.38807 20.74396,-54.43558 -2.22186,-1.33959 -21.03205,55.1972 2.50995,0.57797 z"
       id="path3855"
       style="fill:#ffd500;fill-opacity:1;fill-rule:evenodd;stroke:none" />
    <path
       d="m 203.07752,363.14249 0,12.85942"
       id="path3979"
       style="fill:none;stroke:none" />
  </g>
</svg>
