<?xml version="1.0" encoding="UTF-8"?>
<svg width="1076pt" height="1074pt" viewBox="0 0 1076 1074" xmlns="http://www.w3.org/2000/svg">
 <g transform="translate(0 1074) scale(.1 -.1)" fill="#fefefe">
  <path d="m0 5370c0-5370 0-5370 5380-5370s5380 0 5380 5370 0 5370-5380 5370-5380 0-5380-5370zm5655 5090c2683-161 4777-2327 4822-4989 23-1338-431-2535-1345-3545-283-313-774-718-1067-881-27-15-95-53-150-85-1448-827-3151-904-4665-210-141 64-237 114-405 210-55 32-122 70-150 85-368 205-900 668-1250 1090-1025 1235-1403 2888-1019 4455 278 1135 952 2150 1899 2860 134 100 333 236 362 247 10 4 69 38 133 76 820 490 1871 744 2835 687z"/>
  <path d="m5656 9763c-21-181-41-342-43-359-5-31-5-31 63-38 38-4 78-10 90-12 20-5 22 1 37 132 9 75 18 138 20 141 14 13 40-24 102-144 87-168 78-159 177-168 46-4 98-13 116-21 30-12 413-114 430-114 9 0 46 139 39 147-3 2-58 18-123 35-65 16-121 31-124 33-4 2 0 31 8 63 16 59 16 59 86 41 118-31 119-30 140 52 10 39 16 72 14 73-1 2-44 13-94 25-91 22-91 22-76 79 9 31 17 58 18 60s46-8 99-22c136-36 130-38 150 44 10 39 16 72 14 74-9 6-368 96-386 96s-29-35-104-325c-46-179-86-325-90-325-3 0-44 71-91 157-86 157-86 157-56 172 91 44 121 222 52 308-47 59-102 81-245 98-68 8-138 17-155 20-30 5-30 5-68-322zm311 113c45-53 6-112-72-108-60 2-58-2-50 79 7 69 7 69 53 63 32-5 53-16 69-34z"/>
  <path d="m4782 10065c-115-25-207-98-259-203-44-89-41-240 5-334 135-275 562-269 699 10 40 82 41 239 2 323-78 166-253 246-447 204zm156-171c179-74 177-335-4-394-123-41-254 64-254 204 0 141 136 241 258 190z"/>
  <path d="m4158 9936c-38-11-68-24-68-27s26-85 58-182c57-176 57-176 27-157-137 83-406 230-420 230-29 0-127-33-131-45-3-6 41-151 96-322 55-172 100-317 100-322 0-6-70 24-155 67-137 67-155 79-150 97 54 167-36 305-198 305-60 0-75-5-206-70-77-38-141-74-141-80 0-19 321-630 331-630 21 0 149 71 149 83 0 6-27 63-60 125-67 130-63 145 24 98 265-142 235-135 334-80 49 28 126 61 170 74 59 16 82 27 82 39 0 9-27 99-60 201-32 101-58 186-56 188s69-34 147-81c257-149 345-197 366-197 25 0 83 20 83 28 0 4-48 159-107 344-122 382-101 351-215 314zm-823-541c42-41 26-89-42-124-30-15-28-17-62 44-38 67-39 61 7 84 49 27 68 26 97-4z"/>
  <path d="m7079 9730c-26-4-67-17-92-28-230-102-279-445-88-614 92-82 261-139 362-124 45 7 45 7 113 167 38 88 67 161 65 163-13 10-250 106-261 106-14 0-58-91-58-118 0-7 21-22 48-34 26-11 49-22 51-24 7-6-34-94-45-94-94 0-214 117-214 209 0 219 255 300 414 132 17-17 37-31 47-31 18 0 89 90 89 114s-99 106-165 137c-88 42-175 54-266 39z"/>
  <path d="m7539 9183c-95-163-175-303-177-312-3-17 117-91 147-91 16 1 353 561 359 599 3 17-119 101-145 101-5 0-88-133-184-297z"/>
  <path d="m2745 9290c-27-21-54-39-58-39-17-2-207-142-207-154 0-13 183-274 204-291 7-6 57-73 111-148 53-76 101-138 107-138 19 0 358 245 358 259 0 21-70 111-86 111-9 0-60-32-115-71s-101-69-103-67c-1 1-13 19-27 38s-29 40-32 47c-5 7 20 31 68 65 87 62 85 55 38 123-47 67-52 67-139 5-71-49-71-49-102-4-41 58-45 50 53 118 97 68 100 77 53 142-39 55-57 55-123 4z"/>
  <path d="m7999 9157c-166-47-264-182-263-362 0-119 22-178 98-262 140-154 400-169 551-32 256 234 94 648-260 665-48 2-99-1-126-9zm241-201c55-36 95-119 86-178-34-214-310-272-397-83-84 182 143 372 311 261z"/>
  <path d="m5190 8989c-1674-76-3114-1348-3389-2994-66-393-66-859 0-1245 165-976 733-1835 1585-2400 781-518 1754-712 2679-534 1477 284 2645 1469 2894 2934 48 282 64 772 33 1020-121 974-554 1773-1293 2387-709 589-1572 875-2509 832zm385-224c743-28 1533-366 2116-905 90-83 133-129 339-359 165-185 358-501 480-784 478-1117 341-2372-367-3344-40-57-79-106-86-110-7-5-46-48-87-97-99-119-275-294-397-396-1443-1208-3543-1036-4781 393-47 54-97 111-112 127-38 41-199 280-264 394-632 1097-594 2482 96 3533 97 148 157 230 210 284 18 19 78 86 133 148 515 587 1285 991 2087 1097 120 16 403 32 463 27 17-1 93-5 170-8z"/>
  <path d="m4841 8211c-12-8-12-23 2-108 16-98 16-98-53-168-101-101-98-109 43-130 50-8 93-18 95-22 1-4 22-44 45-88 60-113 73-113 132 4 33 67 51 92 68 95 22 5 161 26 171 26 3 0 6 13 6 29 0 23-14 42-67 90-66 61-66 61-50 159 23 138 17 143-105 80-91-48-91-48-174-3-88 48-92 49-113 36z"/>
  <path d="m3320 7428c0-18 4-49 9-70 8-34 6-39-35-79-64-63-60-85 14-94 73-8 75-9 102-72 31-73 55-72 95 5 30 57 30 57 94 67 81 13 85 25 27 84-46 47-46 47-40 119 8 85 2 89-77 43-50-28-50-28-102 0-70 39-87 38-87-3z"/>
  <path d="m7610 7198c1-13 5-43 10-68 8-44 8-46-37-91-61-64-57-81 25-93 63-9 63-9 93-67 39-77 57-78 95-1 29 57 29 57 93 67 82 13 85 25 26 85-48 49-48 49-36 109 18 91 8 98-76 54-52-28-52-28-108 0-68 33-85 34-85 5z"/>
  <path d="m6003 7095c6-41 4-46-23-65-49-35-40-51 35-62 11-2 29-20 40-41 25-47 40-47 62 0 11 22 26 39 38 41 75 11 84 27 36 63-25 19-28 25-23 65 5 50-6 56-56 30-23-12-31-12-52 0-49 27-63 19-57-31z"/>
  <path d="m2268 8932c-31-26-57-55-57-64-1-21 446-538 465-538 21 0 134 99 134 119 0 9-36 55-80 102-44 46-147 161-228 256-81 94-154 172-162 172-8 1-41-21-72-47z"/>
  <path d="m8510 8458c-140-122-256-227-258-235-5-19 87-123 109-123 10 0 89 61 175 136 121 105 155 131 150 111-8-33-54-400-62-499-7-78 15-136 53-137 16-1 537 448 541 466 5 21-86 123-109 123-11 0-79-51-152-114-72-63-132-114-133-113 0 1 9 83 22 182 42 334 42 324-2 377-23 27-47 47-59 47s-126-93-275-221z"/>
  <path d="m1949 8610c-36-19-220-210-218-226 1-14 510-479 523-479 22 0 207 208 232 260 73 155-22 315-187 315-67 0-69 1-75 28-9 38-49 89-84 107-42 22-146 19-191-5zm121-160c27-27 25-58-4-95-25-30-25-30-71 15s-46 45-15 73c36 32 63 34 90 7zm231-140c58-32 57-100-4-158-32-30-32-30-92 24s-60 54-13 99 73 54 109 35z"/>
  <path d="m1578 8095c-299-96-353-541-83-699 331-194 722 188 537 527-80 148-285 226-454 172zm192-186c195-88 170-343-37-382-88-17-206 63-232 156-45 160 116 296 269 226z"/>
  <path d="m9110 7755c-173-29-334-56-357-60-52-8-53-12-5-93 41-70 36-69 173-46 35 6 35 6 87-81 29-47 52-89 52-92s-23-34-51-69-49-68-47-72c14-35 84-142 93-142s443 544 469 588c6 10-1 32-20 68-35 65 4 66-394-1zm153-137c-40-54-87-108-92-108-3 0-18 20-33 44-26 44-26 44 45 59 93 19 91 19 80 5z"/>
  <path d="m1071 7333c-185-209-144-527 82-638 254-124 518 35 567 341 22 139 20 143-156 214-84 34-159 60-167 57-15-5-111-241-105-258 5-14 84-48 114-48 15-1 24 11 38 50 10 27 24 48 30 46s28-10 49-18c37-13 38-15 32-48-23-122-143-215-247-192-194 44-242 257-92 411 45 47 43 53-18 95-68 45-78 44-127-12z"/>
  <path d="m9560 7260c-80-33-223-92-317-131-130-54-173-76-173-89 0-19 147-380 160-394 11-11 130 33 137 50 2 6-17 61-42 123-26 62-44 116-40 119 3 3 117 52 253 108 138 57 248 108 250 116 4 22-53 153-69 155-8 2-79-24-159-57z"/>
  <path d="m2275 2661c-66-27-220-88-342-136-123-48-223-92-223-98 1-20 98-117 117-117 10 0 47 13 83 28 64 27 64 27 137-51s73-78 38-147c-19-38-35-75-35-83 0-16 101-117 118-117 15 0 321 620 329 666 6 38-45 104-81 104-11-1-75-23-141-49zm-41-243c-36-72-36-72-70-32-18 21-33 42-34 45 0 5 117 57 133 58 4 1-9-31-29-71z"/>
  <path d="m8317 2672c-20-21-37-46-37-56 0-29 322-686 336-686 17 0 104 103 104 123 0 9-14 45-32 81-31 64-31 64 38 140 78 86 72 84 148 51 31-14 65-25 75-25 20 0 121 101 121 122 0 12-678 288-706 288-6 0-27-17-47-38zm332-248c5-5-60-74-68-74-4 0-23 31-44 69-37 69-37 69 35 39 40-17 75-32 77-34z"/>
  <path d="m8060 2408c-86-61-400-319-400-330 0-15 80-108 93-108 7 0 43 25 81 55s71 55 75 55c3-1 30-31 58-68 29-37 72-88 95-113 24-26 79-92 123-147 44-56 84-101 88-101 14-1 137 102 137 115s-299 389-332 417c-11 10-19 19-17 20 48 32 149 121 149 131 0 21-71 106-89 106-9-1-36-15-61-32z"/>
  <path d="m2740 2352c0-4-16-26-36-48-61-65-374-491-374-507s110-107 128-107c6 0 61 68 123 152s121 160 131 170c21 21 18 37 48-272 30-320 27-303 64-328 18-12 37-22 42-22 14 0 424 554 424 573s-103 97-129 97c-19 0-35-20-177-217-62-86-52-111-85 222-22 221-22 221-73 258-47 34-86 48-86 29z"/>
  <path d="m7542 2014c-223-60-308-280-159-411 61-53 129-64 246-39 73 16 107 9 120-26 22-58-72-125-188-135-74-7-76-14-20-88 48-64 74-69 175-35 196 68 277 235 181 377-71 106-143 121-349 77-26-6-68 23-68 47 0 26 60 69 119 85 69 20 71 25 42 109-20 57-26 59-99 39z"/>
  <path d="m3327 1875c-38-78-37-80 57-127 84-42 84-42-35-280-65-131-119-246-119-256 0-18 113-82 145-82 9 0 60 90 136 243 67 133 123 243 124 245 2 2 39-15 84-37 44-23 85-41 91-41 10 0 70 111 70 130 0 11-491 260-513 260-7 0-25-25-40-55z"/>
  <path d="m6843 1672c-43-16-43-16-43-404 0-337 2-388 15-388 8 0 44 12 80 26 65 26 65 26 65 113 0 86 0 86 101 125 66 26 103 36 107 29 4-6 29-34 56-63 49-52 49-52 125-22 42 16 77 36 79 44 5 23-497 558-523 557-11 0-39-8-62-17zm160-305c55-63 55-63 2-84-54-21-54-21-57 63-2 46-2 84-2 84 1 0 26-28 57-63z"/>
  <path d="m4084 1580c-202-30-344-230-306-431 70-379 605-437 743-81 108 279-131 558-437 512zm129-171c115-32 177-167 126-279-64-140-227-175-326-68-134 144 12 399 200 347z"/>
  <path d="m6181 1485c-185-52-287-182-285-365 1-164 61-268 192-332 145-72 404-38 501 66 20 22 20 22-11 189-37 195-16 180-200 145-133-24-128-19-107-118 10-46 14-51 33-47 98 24 100 24 110-39 7-40 6-41-33-58-198-90-388 135-265 315 51 75 196 120 288 89 46-15 42-20 49 72 5 65 3 78-11 83-36 15-207 15-261 0z"/>
  <path d="m4726 1403c-12-79-76-626-76-652 0-27 2-28 61-35 125-13 113-24 131 124 8 72 18 133 22 137 3 3 47 1 98-5s93-10 95-8c2 1 6 36 9 78 7 75 7 75-87 87-112 14-103 7-94 78 6 59 6 59 118 46 61-8 116-12 122-9 11 4 30 135 21 143-3 3-386 53-408 53-3 0-9-17-12-37z"/>
  <path d="m5429 1393c-24-4-34-25-153-351-69-191-126-353-126-359 0-9 24-13 84-13 84 0 84 0 111 80s27 80 134 80c106 0 106 0 135-75s29-75 117-75c77 0 89 2 89 17 0 9-64 171-142 360-156 378-137 353-249 336zm96-393c6-18 2-20-49-20-31 0-56 2-56 3 0 4 35 109 46 137 5 13 38-54 59-120z"/>
 </g>
 <g transform="translate(0 1074) scale(.1 -.1)" fill="#7c0000">
  <path d="m5071 10469c-785-47-1611-298-2261-686-64-38-123-72-133-76-29-11-228-147-362-247-1036-777-1736-1908-1969-3181-88-478-101-1083-35-1583 228-1727 1339-3227 2929-3956 1517-695 3235-618 4685 210 55 32 123 70 150 85 28 16 91 55 140 88 1225 819 2043 2127 2234 3573 66 500 53 1105-35 1583-465 2545-2761 4346-5343 4190zm967-451c25-13 60-40 76-61 67-84 37-249-53-288-17-8-31-18-31-23 0-8 120-233 161-302 18-30 18-30-59-22-42 5-86 10-97 13-14 3-43 48-95 150-57 110-81 147-98 151-32 9-31 12-49-137-15-135-15-135-95-125-73 8-79 11-75 30 3 12 22 167 43 346 37 326 37 326 182 308 105-12 157-23 190-40zm-1092 41c348-64 416-534 99-684-192-90-418-17-507 163-46 93-48 226-5 314 76 154 243 238 413 207zm1658-136c100-25 182-47 183-47 6-4-31-126-38-126-4 0-50 11-101 25-124 33-122 34-136-22-6-27-14-58-18-69-5-20 2-23 90-45 78-19 95-26 91-39-4-8-11-36-17-62-13-55-12-55-120-27-44 11-81 19-82 17-11-16-35-133-29-139 4-4 61-21 126-37 65-17 120-32 122-34 3-2-23-112-30-125-1-3-405 103-409 108-8 8 167 669 177 669 6 0 91-21 191-47zm-2265-236c147-458 135-405 91-418-41-13-147 41-474 238-48 30-90 52-93 49-2-2 26-97 62-211 37-114 65-208 63-210-5-5-142-44-144-42-4 4-202 623-206 642-2 15 10 23 58 38 61 20 61 20 283-106 192-111 241-136 241-124 0 1-26 83-59 182-58 180-58 180 8 201 36 12 71 22 76 23 6 0 48-117 94-262zm2931 21c62-18 146-68 189-112s43-44 6-95c-43-60-43-60-81-20-41 43-101 76-162 90-225 48-371-245-194-391 63-52 165-77 175-42 3 9 12 34 21 55 16 37 16 37-39 62-30 13-55 26-55 28 0 5 41 100 45 105 2 2 59-21 127-50 124-52 124-52 59-205-65-152-65-152-108-159-92-14-253 44-344 124-117 104-151 280-82 423 81 165 260 241 443 187zm-3862-157c95-49 137-161 97-258-8-19-15-37-15-39s75-41 167-87c166-84 166-84 88-127-43-24-83-43-89-43s-75 35-153 77c-120 65-146 75-163 66-27-14-28-11 40-143 61-116 61-116-9-151-70-36-70-36-167 152-53 103-126 242-161 309-65 123-65 123 77 193 160 79 215 88 288 51zm4405-136c26-15 47-31 45-36-8-22-344-588-349-589-12 0-139 75-136 81 1 3 80 139 176 302 167 283 176 296 195 284 12-8 43-26 69-42zm-4955-139c42-59 45-53-58-125-49-35-90-66-90-69 0-12 74-112 82-112 5 0 43 24 85 52 61 43 76 50 83 38 5-8 22-33 38-55 30-39 30-39-44-93-85-61-85-60-41-124 41-61 40-61 157 22 54 39 101 70 104 70 7 0 79-100 75-104-3-3-202-144-321-227-26-19-26-19-124 119-54 75-104 142-110 147-11 8-172 232-197 272-7 11 178 152 200 154 4 0 31 18 58 39 63 49 65 49 103-4zm5395-146c70-26 162-108 199-177 169-316-169-655-494-495-226 111-286 393-123 580 99 113 264 150 418 92zm-2543-161c713-61 1411-351 1979-822 739-614 1172-1413 1293-2387 17-139 17-629 0-775-130-1095-697-2015-1618-2625-1019-676-2321-785-3441-289-757 335-1401 941-1772 1669-388 760-492 1658-290 2488 184 753 600 1412 1210 1919 746 619 1663 905 2639 822zm-3217-172c81-95 183-210 227-256 44-47 80-88 80-93 0-4-28-30-61-58-62-52-62-52-84-28-55 56-435 500-434 506 0 8 111 102 119 101 3 0 71-78 153-172zm6340-174c45-54 45-21 1-372-13-107-22-196-19-199 2-3 67 50 144 117 77 66 144 121 150 121 11 0 106-109 100-114-2-2-122-105-267-230-263-226-263-226-289-196-24 29-25 36-19 98 8 85 54 445 62 495 10 56-2 50-171-98-85-74-159-135-164-135s-30 25-56 56c-48 56-48 56-19 79 16 13 133 113 259 224 127 110 235 200 240 200 6 0 27-21 48-46zm-6703-18c39-20 80-76 83-112 2-30 2-30 72-25 160 10 261-145 191-293-22-47-212-264-225-257-3 2-119 108-257 236-251 233-251 233-155 334 53 55 110 108 126 116 39 20 128 20 165 1zm-272-539c332-170 237-669-135-710-371-42-538 445-231 676 99 75 258 90 366 34zm7634-315c27-49 27-49-198-338-124-158-229-291-233-295-3-4-25 23-47 61-41 68-41 68 13 134 54 67 54 67 2 155-29 48-56 92-60 98-6 7-32 6-90-4-70-13-83-13-90-1-74 122-73 117-27 124 24 4 185 31 358 60s322 53 330 54c8 0 27-21 42-48zm-8303-417c53-36 53-36 18-72-157-162-107-388 95-434 119-26 246 73 264 204 6 43 6 43-51 65-56 22-56 22-76-23-10-25-19-50-19-56 0-12-29-6-84 17-21 9-36 21-33 28s24 59 47 117 45 108 49 113c4 4 75-20 158-54 173-70 173-71 153-197-49-298-303-455-547-337-225 111-264 412-80 621 46 53 40 52 106 8zm8565-103c14-36 23-68 19-72-5-3-120-52-258-109-137-56-251-103-253-105-1-1 18-51 42-111 25-60 46-115 48-122 3-15-103-65-114-54-12 13-161 382-156 388 14 14 634 262 640 256 3-4 18-36 32-71zm-7294-4567c41-47 49-22-135-399-156-319-156-319-211-263-56 55-56 55-19 128 44 87 45 82-54 184-63 67-63 67-141 35s-78-32-128 22c-28 30-49 55-47 57 6 6 680 271 691 271 7 1 26-15 44-35zm6260-104c184-73 337-134 339-136s-21-29-52-60c-55-58-55-58-131-26-41 18-77 32-79 32-1 0-38-38-80-84-77-85-77-85-40-160s37-75-12-132-49-57-188 227c-212 436-197 393-151 440 21 22 43 38 49 35 5-2 161-64 345-136zm-556-177c42-54 43-50-55-125-69-52-69-52-40-83 43-47 320-392 323-404 2-5-24-32-57-59-60-49-60-49-153 67-51 64-101 123-110 131-10 8-46 51-81 95-36 44-68 84-72 89-5 5-33-10-64-35-115-90-97-86-144-30-42 49-42 49 136 193 171 139 261 207 274 208 4 0 23-21 43-47zm-5341-75c44-33 44-33 66-253 32-321 34-330 70-272s194 267 202 267c11 0 119-80 119-87 0-3-93-130-206-284-218-294-208-284-256-246-15 12-22 60-44 278-32 323-32 329-45 329-14 0-30-19-160-192-111-148-111-148-170-102-32 25-59 48-59 51 0 9 335 456 374 497 20 22 36 44 36 49 0 13 25 2 73-35zm4812-356c20-63 25-55-49-76-98-29-142-90-96-136 24-24 34-24 131-4 125 27 199 5 259-77 101-139 24-301-174-369-93-31-107-28-155 35-51 67-52 61 20 68 125 11 215 83 190 150-16 42-51 50-139 32-117-24-168-15-229 38-144 127-61 334 159 391 62 16 60 17 83-52zm-4015-157c250-125 250-125 220-185s-30-60-120-15-90 45-215-205c-69-137-127-250-130-250-13 0-135 65-135 72 0 5 54 116 120 248s120 243 120 248c0 4-36 26-81 47-44 22-83 43-85 47-4 6 46 118 53 118 2 0 116-56 253-125zm3548-386c139-149 250-274 247-278-4-3-36-18-72-32-66-26-66-26-117 32-62 69-57 69-178 22-98-38-98-38-98-124 0-87 0-87-65-113-36-14-67-26-70-26s-5 170-5 378c0 378 0 378 43 394 23 9 47 17 52 17 6 1 125-121 263-270zm-2894 145c367-113 336-636-43-706-246-46-487 179-443 415 44 235 254 361 486 291zm2159-79c11-4 16-14 13-22s-6-39-6-68c0-54 0-54-31-43-92 32-251-16-303-91-133-191 71-432 285-336 41 19 41 19 34 69-8 67-14 71-79 60-55-10-55-10-66 38-5 27-10 55-10 62 0 11 201 56 251 56 12 0 22-35 45-161 31-160 31-160 1-185-118-99-330-125-469-56-255 125-261 498-10 635 95 52 269 73 345 42zm-1498-70c224-26 204-17 198-83-7-76-3-74-133-58-63 8-116 13-117 12s-5-34-9-73c-7-79-21-70 135-89 53-7 53-7 47-73-4-36-8-66-9-67-1 0-45 4-99 11-112 13-98 31-119-154-13-113-13-113-88-106-42 4-78 9-80 11-4 3 63 590 76 662 5 30 8 32 37 27 17-3 90-12 161-20zm733-358c78-189 142-346 142-350s-35-7-79-7c-78 0-78 0-107 75s-29 75-145 75c-117 0-117 0-144-80s-27-80-102-80c-56 0-74 3-71 13 196 548 252 686 277 690 93 14 72 45 229-336z"/>
  <path d="m5835 9850c-8-96-12-91 60-93 64-2 105 29 105 79 0 35-51 84-87 84-15 0-38 3-49 6-21 5-22 1-29-76z"/>
  <path d="m4805 9908c-207-72-168-408 49-426 134-11 230 79 229 213-1 154-141 261-278 213z"/>
  <path d="m3228 9409c-21-11-38-26-38-34 0-12 48-108 66-133 4-6 69 30 92 51 31 28 30 80-3 112-29 30-66 31-117 4z"/>
  <path d="m8035 8982c-216-102-160-412 75-412 280 0 310 415 31 428-49 2-76-2-106-16z"/>
  <path d="m1971 8454c-40-34-39-42 12-92s68-52 96-13c62 87-27 174-108 105z"/>
  <path d="m2185 8289c-59-54-57-65 19-132 64-56 64-56 105-12 47 51 58 84 41 126-30 72-98 79-165 18z"/>
  <path d="m1589 7917c-166-88-132-337 53-392 186-55 335 122 248 295-53 104-198 151-301 97z"/>
  <path d="m9193 7627c-51-11-93-24-93-28 0-14 61-109 70-109s130 144 130 154c0 7 7 8-107-17z"/>
  <path d="m2195 2478c-93-40-93-40-49-92 51-61 57-59 104 34 54 108 56 106-55 58z"/>
  <path d="m8490 2489c0-16 80-159 89-159 16 0 95 90 86 99-11 10-155 71-167 71-5 0-8-5-8-11z"/>
  <path d="m6938 1353c2-54 6-100 8-102 5-6 124 44 124 53 0 11-120 146-130 146-4 0-5-44-2-97z"/>
  <path d="m4106 1420c-94-28-156-119-156-228 0-227 304-282 399-72 76 168-72 351-243 300z"/>
  <path d="m5432 1060c-31-90-31-90 39-90 59 0 69 2 68 18 0 26-55 156-67 160-5 1-24-38-40-88z"/>
 </g>
 <g transform="translate(0 1074) scale(.1 -.1)" fill="#e2721b">
  <path d="m5210 8779c-904-42-1781-457-2365-1119-55-62-127-143-159-179-152-170-383-571-499-866-48-121-97-268-97-289 0-15 53 0 315 94 970 345 1740 596 2007 655 120 26 200 1 943-300 1835-743 2461-969 3238-1170 209-54 204-54 200-12-34 423-117 769-273 1133-494 1152-1699 1997-2921 2049-68 3-149 7-179 9-30 1-125-1-210-5zm-83-617c109 58 115 55 97-45-22-122-22-123 51-189 54-50 83-98 59-98-10 0-149-21-171-26-17-3-35-28-68-95-26-51-51-89-58-87-9 3-85 133-99 171-2 4-45 14-97 22-128 19-129 21-42 109 73 74 73 74 57 172-22 124-18 126 95 66 87-47 87-47 176 0zm-1726-743c58-31 58-31 113 0 72 40 69 42 61-40-7-71-7-71 41-120 52-53 53-53-36-66-54-8-55-9-85-65-37-71-47-72-75-5-27 63-29 64-102 72-70 8-71 16-13 75 46 46 46 47 36 91-12 50-14 89-5 89 3 0 33-14 65-31zm4290-239c60-31 60-31 117 0 68 37 73 33 59-48-11-62-11-62 38-112 53-54 54-54-35-67-54-8-55-9-83-63-36-72-41-72-76-2-30 60-30 60-91 67-79 9-81 18-25 75 47 47 47 47 36 105-17 90-22 86 60 45zm-1638-66c31-15 36-15 65 0 43 22 45 21 38-27-6-40-4-45 24-66 36-26 34-32-17-40-32-5-41-13-56-45-19-39-19-39-41 0-17 31-29 40-59 45-51 8-53 13-17 39 30 21 31 26 25 66-7 50-8 50 38 28z"/>
 </g>
 <g transform="translate(0 1074) scale(.1 -.1)" fill="#3157a7">
  <path d="m8625 4624c-408-338-1053-640-1600-748-267-52-352-60-655-61-492 0-804 62-1330 265-839 324-1565 394-2315 224-185-42-535-161-535-182 1-33 16-35 171-21 230 21 783 18 973-4 443-53 739-129 1716-440 719-230 856-264 1234-307 225-26 737-29 944-5 54 7 62 5 62-9 0-21 2-21 138 14 245 62 616 197 806 292 76 38 101 47 107 37 10-18 9-20 72 101 123 232 226 503 292 765 19 77 35 143 35 147 0 20-32 1-115-68z"/>
  <path d="m8304 3625c-3-14-10-25-15-25s-9-7-9-15c0-26 16-16 39 25 18 33 20 40 7 40-9 0-18-11-22-25z"/>
  <path d="m8250 3535c0-8-4-15-10-15-5 0-10-7-10-15s-4-15-10-15c-5 0-10-7-10-15s-4-15-10-15c-5 0-10-6-10-14s-5-16-11-18c-7-2-10-11-7-18 5-14 38 27 91 111 17 26 17 29 3 29-9 0-16-7-16-15z"/>
  <path d="m2960 3384c0-10-6-14-17-10-54 15-91 16-202 7-68-6-126-12-128-15-6-5 62-102 75-108 4-2 46-49 94-104 178-207 397-408 616-565 113-81 113-81 425-100 172-11 548-35 836-54 786-52 1016-60 1401-46 703 26 1159 97 1309 203 62 44 73 58 46 58-8 0-15-4-15-10 0-5-6-10-14-10s-16-5-18-12c-6-17-521-23-760-9-737 45-1328 168-2454 511-542 166-750 217-959 236-64 6-79 10-82 25-7 26-153 29-153 3z"/>
  <path d="m3610 3385c0-12 16-15 85-15s85 3 85 15-16 15-85 15-85-3-85-15z"/>
  <path d="m3860 3375c0-12 13-15 60-15s60 3 60 15-13 15-60 15-60-3-60-15z"/>
  <path d="m8140 3376c0-8-7-16-15-20-8-3-15-11-15-18s-9-19-20-26c-20-12-28-42-12-42 5 0 24 21 43 47 50 69 52 73 34 73-8 0-15-6-15-14z"/>
  <path d="m4030 3365c0-11 12-15 50-15s50 4 50 15-12 15-50 15-50-4-50-15z"/>
  <path d="m4180 3355c0-11 11-15 40-15s40 4 40 15-11 15-40 15-40-4-40-15z"/>
  <path d="m4300 3345c0-11 11-15 40-15s40 4 40 15-11 15-40 15-40-4-40-15z"/>
  <path d="m4420 3335c0-10 11-15 35-15s35 5 35 15-11 15-35 15-35-5-35-15z"/>
  <path d="m4520 3325c0-10 11-15 35-15s35 5 35 15-11 15-35 15-35-5-35-15z"/>
  <path d="m7168 3322c-50-10-78-20-78-29 0-17 8-16 108 3 54 11 82 21 82 30 0 17-12 16-112-4z"/>
  <path d="m4620 3315c0-10 10-15 30-15s30 5 30 15-10 15-30 15-30-5-30-15z"/>
  <path d="m4710 3305c0-10 10-15 30-15s30 5 30 15-10 15-30 15-30-5-30-15z"/>
  <path d="m4800 3295c0-10 10-15 30-15s30 5 30 15-10 15-30 15-30-5-30-15z"/>
  <path d="m4880 3285c0-10 10-15 30-15s30 5 30 15-10 15-30 15-30-5-30-15z"/>
  <path d="m7003 3293c-34-4-48-33-15-33 45 0 92 14 92 26 0 14-12 15-77 7z"/>
  <path d="m4960 3275c0-10 10-15 30-15s30 5 30 15-10 15-30 15-30-5-30-15z"/>
  <path d="m5040 3265c0-10 10-15 30-15s30 5 30 15-10 15-30 15-30-5-30-15z"/>
  <path d="m6910 3265c0-9 9-15 25-15s25 6 25 15-9 15-25 15-25-6-25-15z"/>
  <path d="m5120 3255c0-10 10-15 30-15s30 5 30 15-10 15-30 15-30-5-30-15z"/>
  <path d="m6840 3255c0-9 9-15 25-15s25 6 25 15-9 15-25 15-25-6-25-15z"/>
  <path d="m5210 3245c0-10 10-15 30-15s30 5 30 15-10 15-30 15-30-5-30-15z"/>
  <path d="m6760 3245c0-10 10-15 30-15s30 5 30 15-10 15-30 15-30-5-30-15z"/>
  <path d="m8027 3253c-10-10-8-33 3-33 5 0 14 9 20 20 11 20-7 30-23 13z"/>
  <path d="m5300 3235c0-11 11-15 40-15s40 4 40 15-11 15-40 15-40-4-40-15z"/>
  <path d="m6670 3235c0-10 11-15 35-15s35 5 35 15-11 15-35 15-35-5-35-15z"/>
  <path d="m5410 3225c0-11 11-15 40-15s40 4 40 15-11 15-40 15-40-4-40-15z"/>
  <path d="m6560 3225c0-11 11-15 40-15s40 4 40 15-11 15-40 15-40-4-40-15z"/>
  <path d="m5540 3215c0-11 12-15 50-15s50 4 50 15-12 15-50 15-50-4-50-15z"/>
  <path d="m6430 3215c0-11 12-15 45-15s45 4 45 15-12 15-45 15-45-4-45-15z"/>
  <path d="m5720 3205c0-12 15-15 75-15s75 3 75 15-15 15-75 15-75-3-75-15z"/>
  <path d="m6200 3205c0-12 15-15 75-15s75 3 75 15-15 15-75 15-75-3-75-15z"/>
  <path d="m7987 3203c-10-10-8-33 3-33 5 0 14 9 20 20 11 20-7 30-23 13z"/>
  <path d="m7922 3128c-15-15-16-41 0-36 20 7 43 48 26 48-8 0-19-5-26-12z"/>
  <path d="m7776 2971c-32-32-57-64-54-71 4-13 87 57 118 101 37 51-1 33-64-30z"/>
  <path d="m7620 2825c-19-23-8-37 18-20 12 9 22 20 22 26 0 14-26 11-40-6z"/>
  <path d="m7547 2763c-17-16-7-34 13-23 11 6 20 15 20 20 0 11-23 13-33 3z"/>
  <path d="m7497 2723c-17-16-7-34 13-23 11 6 20 15 20 20 0 11-23 13-33 3z"/>
  <path d="m7447 2683c-17-16-7-34 13-23 11 6 20 15 20 20 0 11-23 13-33 3z"/>
 </g>
 <g transform="translate(0 1074) scale(.1 -.1)" fill="#6a3126">
  <path d="m4075 6266c-39-18-281-148-540-288-613-333-777-418-1213-634-363-179-363-179-357-249 25-293 90-598 187-871 39-112 39-112 121-77 802 338 1750 312 2757-77 527-204 836-265 1335-265 353 0 429 9 863 102 12 3 22 11 22 18 0 8-44 15-142 24-396 34-998 133-1577 259-33 7-32 8 105 92 177 109 204 132 204 176 0 109-194 204-880 430-443 146-490 167-624 278-104 88-211 256-258 406-52 170-29 421 57 608 54 116 50 121-60 68z"/>
 </g>
 <g transform="translate(0 1074) scale(.1 -.1)" fill="#5292ca">
  <path d="m2540 4124c-19-2-102-9-185-15-82-6-151-12-153-14-17-16 193-415 320-606 90-136 90-136 131-127 23 5 106 10 184 10 78 1 141 4 139 7s175 6 394 6c226 0 396-4 393-9s40-5 102-1c83 5 106 4 100-5-6-10 11-11 75-5 65 6 81 5 75-5s7-11 65-6c55 6 70 5 65-5-6-9 8-10 60-4 52 5 66 4 60-6-6-9 6-10 54-5s61 4 56-5c-6-9 6-10 50-4 44 5 56 4 50-6-6-9 4-10 44-5s51 4 45-5c-5-9 6-10 45-5 40 5 51 4 45-5-5-9 6-10 45-5s51 4 45-5c-5-9 5-10 41-5 36 6 45 5 40-5-6-9 4-10 40-5 36 6 45 5 40-5-6-9 4-10 40-5 36 6 45 5 40-5-6-9 4-10 40-5 36 6 45 5 40-5-6-9 4-10 44-5 39 5 51 4 46-5-6-8 9-9 55-4 48 6 61 4 55-5s7-11 55-5 61 4 55-5c-6-10 11-11 75-5s81 5 75-5c-6-9 20-10 115-5 91 6 121 5 116-4-5-8 42-11 179-11s184 3 179 11c-5 9 25 10 116 4 95-5 121-4 115 5s9 11 65 5 71-5 65 5c-6 9 7 11 55 5s61-4 55 5 5 11 45 5c40-5 51-4 45 5-5 9 5 10 40 4 35-5 46-4 41 5-6 8 4 10 35 5 32-5 40-4 35 5-6 9 1 11 29 5 30-5 36-4 30 6s0 11 30 6c26-5 35-4 30 4s4 9 30 4c29-5 36-4 30 6-6 9 0 10 25 5 24-5 31-4 25 5s1 10 25 5 31-4 25 5 1 10 25 5c22-5 30-4 26 4-5 7 3 9 25 4 24-4 30-3 25 6-6 9 0 10 20 5 19-5 25-4 20 5-6 9 0 10 20 5 19-5 25-4 20 5-6 9 0 10 20 5 19-5 25-4 20 5-6 9 0 10 20 5 19-5 25-4 20 5-6 9 0 10 21 5s25-4 17 5-27 9-75 2c-339-54-900-57-1259-5-329 47-421 71-1110 291-970 309-1274 387-1710 439-126 15-718 28-810 18z"/>
  <path d="m8444 3859c-14-28-24-53-22-55s16 21 31 51 25 55 22 55-16-23-31-51z"/>
  <path d="m8330 3665c0-8 4-15 9-15s11 7 15 15c3 9 0 15-9 15-8 0-15-7-15-15z"/>
  <path d="m8270 3564c0-14 3-14 15-4 8 7 15 14 15 16s-7 4-15 4-15-7-15-16z"/>
  <path d="m8040 3260c0-5 6-10 14-10s18 5 21 10c3 6-3 10-14 10-12 0-21-4-21-10z"/>
  <path d="m7850 3045c-21-25-1-31 23-7 17 18 18 22 5 22-8 0-21-7-28-15z"/>
  <path d="m2920 3003c23-27 65-68 93-92 31-27 16-7-38 47-99 101-119 118-55 45z"/>
  <path d="m7702 2898c-22-22-15-44 8-23 21 19 26 35 12 35-4 0-13-5-20-12z"/>
  <path d="m7360 2605c0-9 6-12 15-9 8 4 12 10 9 15-8 14-24 10-24-6z"/>
  <path d="m3380 2600c35-24 54-31 30-11-14 11-29 21-35 21-5 0-3-5 5-10z"/>
  <path d="m7318 2569c-74-43-482-118-778-143-550-48-934-44-1871 19-288 19-667 44-842 54-207 13-323 24-333 32-8 6-16 10-19 8-7-8 235-151 371-220 953-483 2115-483 3068 0 136 69 354 197 403 237 30 25 30 30 1 13z"/>
 </g>
 <g transform="translate(0 1074) scale(.1 -.1)" fill="#9c3f29">
  <path d="m4595 9960c-16-17-26-30-22-30 9 0 59 51 54 56-2 2-16-10-32-26z"/>
  <path d="m3630 9760c-13-8-13-11-1-22 9-8 12-9 7-1-3 6 2 16 11 22 10 6 14 10 8 11-5 0-17-5-25-10z"/>
  <path d="m2543 9622c-24-15-43-31-43-35 0-7 51 26 85 55 19 16-1 7-42-20z"/>
  <path d="m4716 9555c4-9 16-21 28-27 19-10 19-9-3 16-28 30-33 32-25 11z"/>
  <path d="m4205 9550c-8-13-1-24 14-19 6 3 7 10 2 18-6 10-10 10-16 1z"/>
  <path d="m3705 9488c4-13 11-27 16-33 5-5 4 5-2 23-12 36-24 44-14 10z"/>
  <path d="m6203 9314c0-8 6-14 14-14 7 0 13 4 13 9s-6 11-13 14c-8 3-14-1-14-9z"/>
  <path d="m7889 9099c-19-16-20-18-4-10 34 17 51 31 39 31-7 0-22-9-35-21z"/>
  <path d="m1763 8988c-24-32-24-41 0-19 15 14 27 26 27 28 0 8-19 2-27-9z"/>
  <path d="m8990 8975c13-14 26-23 28-20 7 7-29 45-41 45-6 0 0-11 13-25z"/>
  <path d="m8770 8675c-11-13-10-14 5-9 10 4 20 1 25-7 5-7 11-11 15-8 3 3-3 13-14 23-16 15-19 15-31 1z"/>
  <path d="m2336 8195c-9-14-13-25-8-25s14 11 20 25 10 25 8 25-11-11-20-25z"/>
  <path d="m1430 7995c-13-14-20-25-17-25 10 0 49 41 45 46-3 2-15-7-28-21z"/>
  <path d="m1999 7955c17-34 31-51 31-39 0 7-9 22-21 35-16 19-18 20-10 4z"/>
  <path d="m1392 7298c-7-7-12-16-12-22 0-5 6-2 13 9 9 11 19 15 27 10 9-5 11-4 6 3-9 15-19 15-34 0z"/>
  <path d="m4305 7061c-317-82-1024-316-1910-631-154-55-285-100-292-100-21 0-87-280-117-500-34-247-42-670-13-670 38 0 950 470 1631 839 493 268 524 284 558 283 72-2 201-89 543-368 283-230 493-394 506-394 5 0 139 45 296 101 251 88 293 106 337 142 139 117 144 246 14 331-62 40-120 61-403 151-820 261-1152 531-974 792 53 77 39 79-176 24z"/>
  <path d="m1055 6770c16-16 30-28 32-26 5 5-45 56-54 56-4 0 6-13 22-30z"/>
  <path d="m1926 4258c13-43 23-68 28-68 3 0-2 20-11 45-15 45-31 65-17 23z"/>
  <path d="m8816 4233c-9-26-12-43-7-38 11 13 32 77 27 82-2 2-11-17-20-44z"/>
  <path d="m5730 4160c0-5 7-10 15-10s15 5 15 10c0 6-7 10-15 10s-15-4-15-10z"/>
  <path d="m5780 4150c0-5 7-10 15-10s15 5 15 10c0 6-7 10-15 10s-15-4-15-10z"/>
  <path d="m5830 4140c0-5 7-10 15-10s15 5 15 10c0 6-7 10-15 10s-15-4-15-10z"/>
  <path d="m5930 4120c0-5 7-10 15-10s15 5 15 10c0 6-7 10-15 10s-15-4-15-10z"/>
  <path d="m5980 4110c0-5 7-10 15-10s15 5 15 10c0 6-7 10-15 10s-15-4-15-10z"/>
  <path d="m6030 4100c0-5 7-10 15-10s15 5 15 10c0 6-7 10-15 10s-15-4-15-10z"/>
  <path d="m6140 4080c0-5 7-10 15-10s15 5 15 10c0 6-7 10-15 10s-15-4-15-10z"/>
  <path d="m6250 4060c0-5 7-10 15-10s15 5 15 10c0 6-7 10-15 10s-15-4-15-10z"/>
  <path d="m6310 4050c0-5 7-10 15-10s15 5 15 10c0 6-7 10-15 10s-15-4-15-10z"/>
  <path d="m6370 4040c0-5 7-10 15-10s15 5 15 10c0 6-7 10-15 10s-15-4-15-10z"/>
  <path d="m6430 4030c0-5 7-10 15-10s15 5 15 10c0 6-7 10-15 10s-15-4-15-10z"/>
  <path d="m6500 4020c0-5 7-10 15-10s15 5 15 10c0 6-7 10-15 10s-15-4-15-10z"/>
  <path d="m6560 4010c0-5 7-10 15-10s15 5 15 10c0 6-7 10-15 10s-15-4-15-10z"/>
  <path d="m6630 4e3c0-5 7-10 15-10s15 5 15 10c0 6-7 10-15 10s-15-4-15-10z"/>
  <path d="m6780 3980c0-5 7-10 15-10s15 5 15 10c0 6-7 10-15 10s-15-4-15-10z"/>
  <path d="m6860 3970c0-5 7-10 15-10s15 5 15 10c0 6-7 10-15 10s-15-4-15-10z"/>
  <path d="m6950 3960c0-5 7-10 15-10s15 5 15 10c0 6-7 10-15 10s-15-4-15-10z"/>
  <path d="m7050 3950c0-5 7-10 15-10s15 5 15 10c0 6-7 10-15 10s-15-4-15-10z"/>
  <path d="m7170 3940c0-5 7-10 15-10s15 5 15 10c0 6-7 10-15 10s-15-4-15-10z"/>
  <path d="m2350 3384c0-7 9-22 21-35 16-19 18-20 10-4-17 34-31 51-31 39z"/>
  <path d="m8386 3358c-17-33-17-33 3-9 18 20 27 41 18 41-1 0-11-15-21-32z"/>
  <path d="m2765 2870c10-11 20-20 22-20s-1 9-7 20-16 20-22 20-3-9 7-20z"/>
  <path d="m7979 2868c-12-23-12-23 10-4 23 21 26 26 11 26-5 0-15-10-21-22z"/>
  <path d="m2875 2760c10-11 20-18 23-15 7 6-18 35-31 35-5 0-2-9 8-20z"/>
  <path d="m7874 2766c-10-8-16-17-13-20s14 3 24 14c21 23 17 26-11 6z"/>
  <path d="m9047 2434c7-3 9-13 6-22-5-13-3-14 7-5 14 13 5 33-13 32-9 0-9-2 0-5z"/>
  <path d="m8046 2195c4-8 12-15 20-15 20 0 17 7-6 20-16 9-18 8-14-5z"/>
  <path d="m3310 1795c0-2 38-24 85-48s85-41 85-38c0 4-38 26-85 49s-85 40-85 37z"/>
  <path d="m7476 1755c4-9 16-21 28-27 19-10 19-9-3 16-28 30-33 32-25 11z"/>
  <path d="m7742 1480c-13-16-18-30-13-30 6 0 17 14 26 30 9 17 14 30 12 30s-13-13-25-30z"/>
  <path d="m6119 1268c-12-23-12-23 10-4 23 21 26 26 11 26-5 0-15-10-21-22z"/>
  <path d="m4874 1150c1-8 10-16 21-17 15-1 15 0 3 3-9 3-19 11-21 17-2 7-3 5-3-3z"/>
  <path d="m6110 784c0-7 52-25 57-20 2 2-10 8-26 14-17 6-31 9-31 6z"/>
  <path d="m3730 547c0-3 15-10 32-16 18-6 28-7 23-2-12 10-55 25-55 18z"/>
  <path d="m6993 540c-34-14-28-21 7-9 17 6 30 13 30 15 0 6-12 4-37-6z"/>
 </g>
 <g transform="translate(0 1074) scale(.1 -.1)" fill="#b9564d">
  <path d="m4461 7096c12-10 59-15 59-6 0 5-14 10-32 10-17 0-29-2-27-4z"/>
  <path d="m4580 6636c0-2 7-9 15-16 12-10 15-10 15 4 0 9-7 16-15 16s-15-2-15-4z"/>
  <path d="m4814 6485c22-17 36-19 36-6 0 10-24 21-43 21-7 0-3-7 7-15z"/>
  <path d="m4860 6465c0-5 55-35 65-35 15 0 2 18-20 28-27 13-45 15-45 7z"/>
  <path d="m4127 6211c-68-148-82-216-82-396 0-308 123-540 379-715 73-50 167-86 526-204 557-184 769-273 844-357 67-73 55-90-160-224-80-49-145-94-145-100 0-9 148-45 241-59 19-3 46-8 60-12 14-3 32-7 40-8s24-5 35-9 38-9 60-12c71-11 128-21 153-29 9-3 33-7 52-10 19-2 46-7 60-10s43-8 65-12c22-3 49-8 60-10 40-6 118-19 190-30 22-3 49-7 60-9s40-6 65-9c25-4 52-8 60-11 8-2 44-7 80-10s79-8 95-10c28-4 68-9 175-20 25-2 79-7 120-10 41-4 76-10 78-14 14-40 833 292 819 332-3 12-129 50-562 171-271 76-499 148-503 158-2 4-12 8-22 8-11 0-69 18-130 39-434 155-940 425-1390 741-85 60-174 122-198 137-71 46-291 217-537 417-269 219-367 292-451 335-91 46-95 44-137-48z"/>
  <path d="m5466 6231c15-14 54-23 54-13 0 5-10 12-22 16-33 8-44 8-32-3z"/>
  <path d="m5920 6022c0-5 7-17 15-28 15-19 20-8 9 20-6 17-24 22-24 8z"/>
  <path d="m5940 5945c0-8 5-15 10-15 6 0 10 7 10 15s-4 15-10 15c-5 0-10-7-10-15z"/>
  <path d="m5917 5867c-20-30-21-37-7-37 6 0 10 6 10 14s5 16 12 18c6 2 9 10 7 17-3 9-11 5-22-12z"/>
  <path d="m5810 5755c-10-12-10-15 4-15 9 0 16 7 16 15s-2 15-4 15-9-7-16-15z"/>
  <path d="m6220 5745c0-8 7-15 15-15s15 7 15 15-7 15-15 15-15-7-15-15z"/>
  <path d="m5751 5719c-13-5-22-12-19-15 8-8 58 7 58 17 0 11-8 11-39-2z"/>
  <path d="m5491 5629c-13-5-22-12-19-15 8-8 58 7 58 17 0 11-8 11-39-2z"/>
  <path d="m6280 5525c0-8 7-15 15-15s15-4 15-10c0-5 7-10 15-10s15 7 15 15-7 15-15 15-15 5-15 10c0 6-7 10-15 10s-15-7-15-15z"/>
  <path d="m6640 5265c0-8 7-15 15-15s15 7 15 15-7 15-15 15-15-7-15-15z"/>
  <path d="m6680 5215c0-8 5-15 10-15 6 0 10-7 10-15s7-15 15-15 15 7 15 15-4 15-10 15c-5 0-10 7-10 15s-7 15-15 15-15-7-15-15z"/>
  <path d="m6770 4985c0-8 7-15 15-15s15 7 15 15-7 15-15 15-15-7-15-15z"/>
  <path d="m8550 4565c0-9 6-12 15-9 8 4 15 10 15 15s-7 9-15 9-15-7-15-15z"/>
  <path d="m8510 4535c0-9 6-12 15-9 8 4 15 10 15 15s-7 9-15 9-15-7-15-15z"/>
  <path d="m8440 4485c0-9 6-12 15-9 8 4 15 10 15 15s-7 9-15 9-15-7-15-15z"/>
  <path d="m8290 4385c0-9 6-12 15-9 8 4 15 10 15 15s-7 9-15 9-15-7-15-15z"/>
 </g>
 <g transform="translate(0 1074) scale(.1 -.1)" fill="#df9257">
  <path d="m5213 8773c9-2 25-2 35 0 9 3 1 5-18 5s-27-2-17-5z"/>
  <path d="m4345 8625c-39-17-21-18 25 0 19 7 28 14 20 14s-28-6-45-14z"/>
  <path d="m4212 8583c-24-8-41-17-39-19 5-5 69 16 82 27 11 11 10 11-43-8z"/>
  <path d="m6520 8584c0-7 52-25 57-20 2 2-10 8-26 14-17 6-31 9-31 6z"/>
  <path d="m3850 8425c-58-30-102-54-97-54 10-1 207 98 207 104 0 7 6 10-110-50z"/>
  <path d="m6790 8475c0-7 81-47 86-43 2 3-17 14-41 26-25 12-45 20-45 17z"/>
  <path d="m6910 8415c0-7 101-57 106-53 2 2-21 16-51 31s-55 25-55 22z"/>
  <path d="m7180 8261c14-11 30-21 35-21 11 0-7 14-40 31-13 7-12 3 5-10z"/>
  <path d="m3480 8210c-41-27-72-50-67-50 8 0 147 91 147 96 0 7-4 4-80-46z"/>
  <path d="m5158 8189c-21-11-38-22-38-24 0-5 79 32 89 41 12 11-18 1-51-17z"/>
  <path d="m7280 8197c0-6 77-57 87-57 4 0-1 6-12 13-48 33-75 49-75 44z"/>
  <path d="m5210 7997c0-4 32-38 70-75 39-37 70-65 70-62s-31 37-70 75c-38 38-70 66-70 62z"/>
  <path d="m7662 7894c15-15 30-26 33-23 2 3-10 16-28 29-32 23-32 23-5-6z"/>
  <path d="m3055 7875c-16-14-25-25-19-25s21 11 34 25c30 32 24 31-15 0z"/>
  <path d="m5092 7704c-47-94-56-98-89-38-13 21-23 34-23 28 0-19 45-79 60-79 14 0 107 162 98 170-2 3-23-34-46-81z"/>
  <path d="m2870 7687c-23-32-23-32 6-5 15 15 26 30 23 33-3 2-16-10-29-28z"/>
  <path d="m7870 7692c0-5 12-19 27-33 26-24 26-24 3 9-25 33-30 38-30 24z"/>
  <path d="m2686 7484c-22-21-20-27 4-14 11 6 20 15 20 20 0 14-6 12-24-6z"/>
  <path d="m8050 7482c0-4 9-13 20-20 19-12 20-11 8 8-13 20-28 27-28 12z"/>
  <path d="m3324 7445c-3-8-4-20-1-27s6-3 6 10c1 26 3 27 41 7 17-9 30-13 30-11 0 6-55 36-65 36-3 0-8-7-11-15z"/>
  <path d="m8130 7395c0-5 10-21 21-35 13-17 17-18 10-5-17 33-31 51-31 40z"/>
  <path d="m2581 7347c-8-12-21-32-29-44-8-13-12-23-9-23 7 0 59 81 55 85-2 2-10-6-17-18z"/>
  <path d="m8180 7327c0-9 91-147 98-147 4 0-7 19-65 105-18 27-33 46-33 42z"/>
  <path d="m2476 7188c-18-33-18-33 3-8 18 22 26 40 18 40-1 0-11-15-21-32z"/>
  <path d="m7613 7205c-3-9-3-19 1-22 3-4 6 2 6 11 0 12 5 16 16 12 8-3 12-2 9 4-9 15-25 12-32-5z"/>
  <path d="m7703 7174c37-19 51-22 65-14 16 11 16 11-1 6-10-3-36 3-57 14-22 11-43 20-47 20-4-1 14-12 40-26z"/>
  <path d="m3516 7168c-8-13-22-40-32-60-9-20-24-39-33-41-14-4-14-5 1-6 11-1 29 21 51 64 34 64 41 86 13 43z"/>
  <path d="m6118 7124c-38-20-36-29 2-9 37 19 38 19 43-7 4-20 4-19 6 5 1 31-11 33-51 11z"/>
  <path d="m4476 7053c-74-101-71-215 10-322 24-32 54-65 66-74 13-8 37-27 53-41 72-64 323-194 510-266 11-4 34-13 50-20 31-13 303-103 485-161 311-98 371-212 201-378-42-41-67-72-56-69s121 38 245 78c286 93 332 97 455 35 44-22 86-45 92-52 7-6 29-17 48-23s35-15 35-20 20-16 45-26c25-9 45-20 45-25 0-4 20-15 45-25 25-9 45-20 45-24s25-18 55-30 55-25 55-29c0-6 254-132 395-197 96-43 150-68 170-75 11-4 45-18 75-32s102-41 160-62 119-43 135-51c113-48 796-234 863-234 24 0 31 46 40 280 15 369 23 350-170 398-641 162-1423 435-2565 896-227 91-596 240-820 330-361 145-621 241-705 260-24 6-32 0-62-41z"/>
  <path d="m7587 7032c-26-26-47-53-47-59 0-13 38-28 47-19 4 3-1 6-10 6-34 0-28 24 19 71 27 27 46 49 43 49s-26-22-52-48z"/>
  <path d="m5984 7028c-29-31-29-31 4-9 17 12 32 27 32 32 0 14-4 11-36-23z"/>
  <path d="m6150 7052c0-5 15-19 33-32 32-23 32-23 3 8-31 34-36 37-36 24z"/>
  <path d="m2357 6985c-9-19-15-35-12-35 7 0 37 61 33 66-3 2-12-12-21-31z"/>
  <path d="m7933 6992c10-10 14-22 10-27-5-4-2-5 5-1 14 9-2 46-20 46-6 0-4-8 5-18z"/>
  <path d="m7680 6937c0-13 54-117 61-117 4 0-7 26-24 58-33 62-37 69-37 59z"/>
  <path d="m8420 6926c0-11 30-66 36-66 2 0-3 15-12 33-19 36-24 44-24 33z"/>
  <path d="m2172 6581c-6-17-9-31-6-31 7 0 25 52 20 57-2 2-8-10-14-26z"/>
  <path d="m8575 6568c4-13 11-27 16-33 5-5 4 5-2 23-12 36-24 44-14 10z"/>
  <path d="m2131 6469c-12-35-17-59-12-54 11 12 42 107 37 112-2 2-13-24-25-58z"/>
  <path d="m8750 4895c0-8 5-15 10-15 6 0 10 7 10 15s-4 15-10 15c-5 0-10-7-10-15z"/>
  <path d="m8740 4825c0-8 5-15 10-15 6 0 10 7 10 15s-4 15-10 15c-5 0-10-7-10-15z"/>
  <path d="m8730 4765c0-8 5-15 10-15 6 0 10 7 10 15s-4 15-10 15c-5 0-10-7-10-15z"/>
  <path d="m8720 4715c0-8 5-15 10-15 6 0 10 7 10 15s-4 15-10 15c-5 0-10-7-10-15z"/>
 </g>
 <g transform="translate(0 1074) scale(.1 -.1)" fill="#213b8e">
  <path d="m8265 3674c-294-154-771-312-1160-383-364-67-605-86-1075-86-411 0-522 7-895 51-115 13-284 33-375 44-580 68-1213 100-1655 85-213-8-268-21-100-24 262-4 507-58 1140-251 1337-407 2014-528 2915-519 258 3 307 6 318 19 12 13 13 13 7 0-4-8 3-4 14 9 12 13 21 19 21 15 1-5 12 5 26 21 15 17 23 23 19 15s8 1 25 20 29 28 25 20 8 1 25 20 29 28 25 20c-3-8 15 8 41 35 26 28 41 41 34 30s13 7 44 40 60 59 65 58c4-1 28 18 52 43 24 24 39 44 34 44-6 0 19 28 55 61 36 34 56 56 45 49s3 8 30 34c28 26 43 44 35 41-8-4 1 8 20 25s28 28 20 24c-13-7-13-5-1 9 7 9 19 17 26 17s19 8 26 17c12 14 12 16-1 9-8-4-4 2 10 15 14 12 24 25 23 30-2 5 6 13 17 19s18 15 15 21c-4 5 1 12 9 15 9 3 16 12 16 19s7 16 16 19c8 3 13 10 10 15s1 12 10 15c8 3 13 10 10 15s1 12 10 15c8 3 13 10 10 15s1 12 10 15c8 3 12 10 9 16-3 5-1 10 4 10 6 0 11 7 11 15s5 15 11 15c5 0 8 4 5 9s1 12 10 15c8 3 12 10 9 16-3 5-1 10 5 10s9 4 6 9 1 12 10 15c8 3 12 10 9 16-3 5-1 10 5 10s8 5 5 10c-3 6-1 10 5 10s8 5 5 10c-3 6-2 10 3 10 6 0 12 7 16 15 3 8 4 14 3 14-1-1-56-30-122-65zm-435-677c0-2-19-21-42-42-43-40-43-40-3 3 36 39 45 47 45 39z"/>
 </g>
 <g transform="translate(0 1074) scale(.1 -.1)" fill="#bc6633">
  <path d="m6279 5827c-27-37-47-72-44-78 4-5 1-8-6-7-18 4-59-61-59-95 0-36 91-133 116-123 8 3 13 0 11-7-1-7 6-11 15-11 10 1 16-2 13-6-3-5 40-36 95-70 55-33 129-85 164-115s67-51 71-47c5 4 5 1 1-6-9-14 21-55 34-47 4 3 7-3 6-13 0-9 4-16 9-15 6 1 11-6 12-15 0-9 12-44 27-77 14-33 26-73 26-88 0-16 4-26 9-23 5 4 6-7 1-26-5-18-13-51-19-74-15-55-64-121-106-141s-45-40-7-54c126-51 317-117 324-113 4 3 8 1 8-4s24-16 53-24c28-8 104-31 167-51 63-19 270-79 460-132s360-103 379-111c33-14 36-13 133 43 55 32 108 66 119 76 10 10 19 15 19 12s32 16 70 41c39 26 70 51 70 56s4 7 8 4c5-3 23 8 40 24 18 16 32 26 32 22 1-4 10 4 21 18 12 14 23 24 26 22 9-7 162 124 158 135-2 7 1 15 6 19 6 3 9 15 6 25s-1 22 5 25c5 3 8 16 7 27-1 12 1 30 6 40 4 9 5 26 2 37s-1 23 4 26c21 13 9 40-18 42-35 2-78 9-78 12 0 1-9 4-20 6-11 1-31 6-45 9-14 4-33 7-42 7-10-1-20 3-23 8s-12 7-19 4c-8-3-17 0-21 5-3 6-11 9-16 6-5-4-15-3-21 2-7 4-19 9-25 10-27 6-48 12-53 14-3 1-9 3-15 4-5 2-12 4-15 5s-14 4-25 6c-34 8-50 12-50 14 0 1-9 4-20 6-33 8-50 12-52 14s-7 4-13 5c-5 1-12 4-15 5s-8 3-12 4c-5 1-14 5-20 9-7 5-17 6-22 2-5-3-12-1-16 5s-10 8-15 5-11-1-15 5-11 8-16 4c-5-3-16 0-24 6-8 7-15 9-15 5s-7-2-15 5-15 9-15 5-7-2-15 5-15 9-15 5-7-2-15 5-15 9-15 5-7-2-15 5-15 10-15 6-11 1-25 10-25 13-25 9-7-2-15 5-15 9-15 5-7-2-15 5-15 9-15 6c0-4-10-1-22 6-13 7-26 13-30 14-5 1-11 3-15 4-5 1-11 2-15 1-5 0-8 4-8 11 0 6-3 8-7 5-3-4-12-2-20 4-7 6-13 8-13 5 0-4-10-1-22 6-13 7-26 11-30 10-5-1-8 3-8 8s-3 9-7 8c-5-1-18 3-30 10-13 7-23 10-23 7s-10 1-23 10c-13 8-27 12-30 8-4-3-7 0-7 7s-3 10-7 7c-3-4-21 3-40 14-18 11-33 18-33 14s-24 7-53 24c-30 17-57 28-60 24-4-3-7-1-7 6s-4 9-10 6c-5-3-10-1-10 6s-3 10-6 6c-7-7-247 111-252 124-2 5-8 7-13 3-5-3-9 0-9 6s-4 8-10 5c-5-3-10-2-10 4 0 5-20 17-45 27-25 9-45 21-45 26s-4 6-10 3c-5-3-10-2-10 4 0 5-16 15-35 21s-35 16-35 21c0 6-4 7-10 4-5-3-10-2-10 4 0 5-16 15-35 21s-35 16-35 21c0 6-4 7-10 4-5-3-10-2-10 4 0 5-16 15-35 21s-35 16-35 21c0 6-4 8-9 5-5-4-11-3-13 1-3 7-153 85-170 89-5 1-11 3-15 4-51 16-75 5-124-63z"/>
 </g>
 <g transform="translate(0 1074) scale(.1 -.1)" fill="#783e33">
  <path d="m4060 6255c-25-13-40-24-35-24 6 0 30 11 55 24s41 24 35 24c-5 0-30-11-55-24z"/>
  <path d="m3920 6180c-19-11-31-19-27-20 11 0 67 29 67 35 0 7-1 7-40-15z"/>
  <path d="m3810 6120c-19-11-31-19-27-20 11 0 67 29 67 35 0 7-1 7-40-15z"/>
  <path d="m3570 5990c-19-11-31-19-27-20 11 0 67 29 67 35 0 7-1 7-40-15z"/>
  <path d="m3460 5930c-19-11-31-19-27-20 11 0 67 29 67 35 0 7-1 7-40-15z"/>
  <path d="m6210 5865c-126-36-557-179-740-245-63-22-142-50-175-60-93-31-93-30-2-97 313-232 762-503 1074-649 194-91 254-114 266-104 7 6 28 20 47 33 75 48 117 165 100 272-27 164-141 300-366 435-180 108-242 166-231 212 4 13 40 68 82 123 72 96 84 116 68 115-5-1-60-16-123-35z"/>
  <path d="m3330 5860c-19-11-31-19-27-20 11 0 67 29 67 35 0 7-1 7-40-15z"/>
  <path d="m3080 5725c-25-13-41-24-37-25 11 0 87 39 87 45 0 7 0 7-50-20z"/>
  <path d="m2948 5654c-38-20-36-28 2-9 17 9 30 18 30 20 0 7-1 6-32-11z"/>
  <path d="m2715 5534c-38-19-59-32-45-28 30 8 120 52 120 59 0 6 7 9-75-31z"/>
  <path d="m2330 5340c-85-43-152-79-147-79 10-1 307 148 307 154 0 7 11 12-160-75z"/>
  <path d="m4250 5254c0-6 17-26 38-45 37-34 37-34 2 6-19 22-36 42-37 44-2 2-3 0-3-5z"/>
  <path d="m4450 5085c0-7 81-47 86-43 2 3-17 14-41 26-25 12-45 20-45 17z"/>
  <path d="m4610 5014c0-7 52-25 57-20 2 2-10 8-26 14-17 6-31 9-31 6z"/>
  <path d="m5014 4874c38-13 71-22 73-20 5 5-116 46-131 45-6 0 20-11 58-25z"/>
  <path d="m5215 4811c12-11 107-42 112-37 2 2-24 13-58 25-35 12-59 17-54 12z"/>
  <path d="m5380 4754c0-7 52-25 57-20 2 2-10 8-26 14-17 6-31 9-31 6z"/>
  <path d="m5580 4675c0-7 121-67 126-63 2 2-26 18-61 36-36 17-65 30-65 27z"/>
  <path d="m5795 4540c47-55 48-56 37-35-6 11-23 31-39 45-28 25-28 25 2-10z"/>
  <path d="m2092 4409c6-16 12-28 14-26 5 5-13 57-20 57-3 0 0-14 6-31z"/>
  <path d="m5658 4331c-68-44-90-64-33-31 64 38 110 70 100 69-6 0-36-17-67-38z"/>
  <path d="m5491 4226c-12-15 3-35 16-22 4 3 0 6-8 6-10 1-8 5 5 15 11 8 15 15 9 15s-16-6-22-14z"/>
 </g>
 <g transform="translate(0 1074) scale(.1 -.1)" fill="#b26b66">
  <path d="m4735 10050c-13-5-14-9-5-9 8 0 24 4 35 9 13 5 14 9 5 9-8 0-24-4-35-9z"/>
  <path d="m3210 9994c-25-15-25-15 0-8 28 7 35 12 29 18-2 2-15-2-29-10z"/>
  <path d="m7520 10001c0-8 41-23 47-17 2 1-8 8-22 14s-25 8-25 3z"/>
  <path d="m4853 9913c9-2 25-2 35 0 9 3 1 5-18 5s-27-2-17-5z"/>
  <path d="m2993 9888c-13-6-23-15-23-20s11-1 25 8c37 24 35 30-2 12z"/>
  <path d="m7740 9896c0-2 11-11 25-20s25-13 25-8-11 14-25 20-25 10-25 8z"/>
  <path d="m4506 9814c-4-14-5-28-3-31 3-2 8 8 11 23 4 14 5 28 3 31-3 2-8-8-11-23z"/>
  <path d="m5975 9789c-4-6-17-14-29-19-14-6-16-9-5-9 9-1 24 8 34 19s15 20 12 20-9-5-12-11z"/>
  <path d="m4141 9765c-1-6 12-49 28-95 16-47 30-80 30-75 1 6-12 49-28 95-16 47-30 80-30 75z"/>
  <path d="m4322 9750c0-8 8-37 18-65 10-27 18-43 18-35s-8 38-18 65c-10 28-18 43-18 35z"/>
  <path d="m7331 9686c2-2 15-9 29-16 23-12 24-12 11 3-7 10-20 17-29 17-8 0-13-2-11-4z"/>
  <path d="m3662 9630c0-8 6-31 13-50s13-28 13-20-6 31-13 50-13 28-13 20z"/>
  <path d="m5236 9594c-4-14-5-28-3-31 3-2 8 8 11 23 4 14 5 28 3 31-3 2-8-8-11-23z"/>
  <path d="m7270 9552c0-4 11-12 25-19 14-6 25-8 25-4s-11 13-25 19-25 8-25 4z"/>
  <path d="m3159 9530c-24-20-24-20 4-9 15 7 27 16 27 21 0 12-5 10-31-12z"/>
  <path d="m3871 9525c-1-6 12-49 28-95 16-47 30-80 30-75 1 6-12 49-28 95-16 47-30 80-30 75z"/>
  <path d="m4755 9520c9-15 45-32 45-22 0 5-12 14-26 20-14 7-23 8-19 2z"/>
  <path d="m4412 9470c0-8 8-37 18-65 10-27 18-43 18-35s-8 38-18 65c-10 28-18 43-18 35z"/>
  <path d="m5959 9423c24-44 42-59 24-20-9 20-21 37-25 37-5 0-4-8 1-17z"/>
  <path d="m4995 9353c-30-14-30-14 0-8 31 7 41 12 34 19-2 2-17-3-34-11z"/>
  <path d="m3752 9350c0-8 6-31 13-50s13-28 13-20-6 31-13 50-13 28-13 20z"/>
  <path d="m4405 9260c-13-5-14-9-5-9 8 0 24 4 35 9 13 5 14 9 5 9-8 0-24-4-35-9z"/>
  <path d="m3069 9233c24-44 42-59 24-20-9 20-21 37-25 37-5 0-4-8 1-17z"/>
  <path d="m3520 9243c0-5 30-24 68-42 78-38 72-27-10 19-32 17-58 28-58 23z"/>
  <path d="m6810 9218c0-9 7-22 17-29 15-13 15-12 3 11-17 34-20 36-20 18z"/>
  <path d="m7060 9160c0-9 39-25 45-18 2 2-7 8-21 15-13 6-24 7-24 3z"/>
  <path d="m3991 9149c-1-9-16-21-33-27-33-11-33-12-3-6 36 7 49 18 42 36-4 9-6 9-6-3z"/>
  <path d="m3400 9126c0-2 11-11 25-20s25-13 25-8-11 14-25 20-25 10-25 8z"/>
  <path d="m3814 9084c-11-12-27-23-35-26s-12-8-9-11c9-9 79 38 72 49-4 5-16 0-28-12z"/>
  <path d="m6980 9037c8-8 26-18 40-22 32-9 25-2-20 20-27 13-32 14-20 2z"/>
  <path d="m3189 9003c24-44 42-59 24-20-9 20-21 37-25 37-5 0-4-8 1-17z"/>
  <path d="m3424 8914c8-17 12-34 9-38-4-3-1-6 5-6 18 0 14 22-9 50-20 25-20 25-5-6z"/>
  <path d="m3330 8826c-14-8-28-12-32-10-5 3-8 0-8-5 0-17 22-13 50 9 29 23 25 25-10 6z"/>
  <path d="m7733 8800c0-25 2-35 4-22 2 12 2 32 0 45-2 12-4 2-4-23z"/>
  <path d="m4235 8810c-27-10-43-18-35-18s38 8 65 18c28 10 43 18 35 18s-37-8-65-18z"/>
  <path d="m6495 8810c28-10 57-18 65-18s-7 8-35 18c-27 10-57 18-65 18s8-8 35-18z"/>
  <path d="m6951 8626c10-9 89-46 89-41s-75 45-86 45c-4 0-5-2-3-4z"/>
  <path d="m3748 8604c-39-21-35-28 5-8 37 19 44 24 31 24-5-1-21-8-36-16z"/>
  <path d="m1929 8589c-24-20-24-20 6-3 39 24 40 24 28 24-6 0-21-9-34-21z"/>
  <path d="m3435 8425c-30-25-30-25 2-8 18 10 33 21 33 26 0 10-2 9-35-18z"/>
  <path d="m7290 8443c0-4 14-16 30-25 39-22 39-15 0 12-16 12-30 18-30 13z"/>
  <path d="m3315 8344c-19-15-22-21-9-15 18 9 52 41 43 41-2 0-17-12-34-26z"/>
  <path d="m7419 8357c14-18 51-42 51-33 0 3-15 15-32 27-24 17-29 18-19 6z"/>
  <path d="m2198 8300c-33-32-33-32 2-8 19 12 37 24 39 25 2 2 2 6-1 9-4 3-21-9-40-26z"/>
  <path d="m1178 8283c-19-23-31-43-24-43 2 0 14 14 26 30 23 33 22 40-2 13z"/>
  <path d="m9579 8273c12-18 24-33 27-33 9 0-15 37-33 51-12 10-11 5 6-18z"/>
  <path d="m1067 8120c-10-16-16-30-13-30 2 0 14 14 26 30 12 17 18 30 13 30s-17-13-26-30z"/>
  <path d="m9680 8120c12-16 24-30 26-30 3 0-3 14-13 30-9 17-21 30-26 30s1-13 13-30z"/>
  <path d="m1575 8090c-13-5-14-9-5-9 8 0 24 4 35 9 13 5 14 9 5 9-8 0-24-4-35-9z"/>
  <path d="m8840 8075c-11-13-15-13-21-3-6 9-9 9-9 1 0-21 17-23 35-3 10 11 16 20 13 20s-11-7-18-15z"/>
  <path d="m1841 8076c2-2 15-9 29-16 23-12 24-12 11 3-7 10-20 17-29 17-8 0-13-2-11-4z"/>
  <path d="m1374 7920c-14-21-24-44-22-49 1-6 15 12 29 39 32 60 29 65-7 10z"/>
  <path d="m1483 7735c0-22 2-30 4-17 2 12 2 30 0 40-3 9-5-1-4-23z"/>
  <path d="m797 7645c-20-41-33-75-29-74 9 0 81 149 72 149-3 0-22-34-43-75z"/>
  <path d="m9517 7712c2-3-4-17-13-31-16-26-16-26 7-4 16 15 20 26 13 32-6 5-9 6-7 3z"/>
  <path d="m9949 7646c20-41 39-75 43-75 4-1-9 33-29 74-21 41-40 75-43 75-4 0 10-33 29-74z"/>
  <path d="m8780 7555c7-8 22-14 34-14 20 2 20 2-1 6-13 2-23 9-23 14s-5 9-11 9c-8 0-8-5 1-15z"/>
  <path d="m1450 7435c0-2 14-13 30-25 17-12 30-18 30-13 0 4-14 16-30 25-17 9-30 15-30 13z"/>
  <path d="m2350 7370c-12-16-18-30-13-30s17 14 26 30c10 17 16 30 13 30-2 0-14-13-26-30z"/>
  <path d="m8397 7370c9-16 21-30 26-30s-1 14-13 30c-12 17-24 30-26 30-3 0 3-13 13-30z"/>
  <path d="m1805 7375c-16-8-23-14-14-15 8 0 24 7 35 15 23 18 18 18-21 0z"/>
  <path d="m976 7164c-4-14-5-28-3-31 3-2 8 8 11 23 4 14 5 28 3 31-3 2-8-8-11-23z"/>
  <path d="m9070 7125c-10-13-15-13-21-3-4 7-11 10-14 7-3-4 1-11 8-18 11-8 18-6 32 9 10 11 16 20 13 20s-11-7-18-15z"/>
  <path d="m10201 7065c-1-6 12-49 28-95 16-47 30-80 30-75 1 6-12 49-28 95-16 47-30 80-30 75z"/>
  <path d="m521 6969c-12-39-21-72-19-75 2-2 14 28 27 67 12 39 21 72 19 75-2 2-14-28-27-67z"/>
  <path d="m1120 6994c0-10 5-26 10-34 8-11 9-7 4 15-8 37-14 45-14 19z"/>
  <path d="m1696 6974c-4-14-5-28-3-31 3-2 8 8 11 23 4 14 5 28 3 31-3 2-8-8-11-23z"/>
  <path d="m990 6868c0-9 7-22 17-29 15-13 15-12 3 11-17 34-20 36-20 18z"/>
  <path d="m1628 6830c-22-39-15-39 12 0 12 17 18 30 13 30-4 0-16-14-25-30z"/>
  <path d="m1195 6680c11-5 27-9 35-9 9 0 8 4-5 9-11 5-27 9-35 9-9 0-8-4 5-9z"/>
  <path d="m1956 6584c-4-14-5-28-3-31 3-2 8 8 11 23 4 14 5 28 3 31-3 2-8-8-11-23z"/>
  <path d="m8791 6600c0-8 4-24 9-35 5-13 9-14 9-5 0 8-4 24-9 35-5 13-9 14-9 5z"/>
  <path d="m1916 6464c-4-14-5-28-3-31 3-2 8 8 11 23 4 14 5 28 3 31-3 2-8-8-11-23z"/>
  <path d="m8831 6480c0-8 4-24 9-35 5-13 9-14 9-5 0 8-4 24-9 35-5 13-9 14-9 5z"/>
  <path d="m4147 6255c-23-48-21-59 2-15 11 19 30 38 42 41 24 7 24 7-2 8-20 1-29-7-42-34z"/>
  <path d="m4311 6227c2-2 20-14 39-26 35-23 35-23 5 3-16 14-34 26-39 26s-7-1-5-3z"/>
  <path d="m4042 5900c0-19 2-27 5-17 2 9 2 25 0 35-3 9-5 1-5-18z"/>
  <path d="m4042 5730c0-19 2-27 5-17 2 9 2 25 0 35-3 9-5 1-5-18z"/>
  <path d="m5612 5673c-24-8-41-17-39-19 4-5 97 26 97 32s-11 4-58-13z"/>
  <path d="m6180 5624c0-6 17-26 38-45 37-34 37-34 2 6-19 22-36 42-37 44-2 2-3 0-3-5z"/>
  <path d="m5425 5605c-25-12-26-14-5-9 28 7 60 23 45 23-5 0-23-6-40-14z"/>
  <path d="m5255 5545c-25-12-26-14-5-9 28 7 60 23 45 23-5 0-23-6-40-14z"/>
  <path d="m5265 5486c38-33 145-109 145-103 0 5-44 37-140 105-35 24-35 24-5-2z"/>
  <path d="m5420 5376c0-3 34-28 75-56s75-48 75-46c0 3-34 28-75 56s-75 48-75 46z"/>
  <path d="m5580 5267c0-4 20-18 103-71 15-10 27-16 27-13 0 4-20 18-102 71-16 10-28 16-28 13z"/>
  <path d="m5735 5165c11-9 29-21 40-26 20-10 20-10 0 6-11 9-29 21-40 26-20 10-20 10 0-6z"/>
  <path d="m5905 5063c6-6 37-26 70-44s56-28 50-22c-5 5-37 25-70 43s-55 28-50 23z"/>
  <path d="m6040 4985c0-2 23-16 50-30 28-14 50-23 50-20 0 2-22 16-50 30-27 14-50 23-50 20z"/>
  <path d="m6190 4905c0-7 161-87 166-83 2 2-35 23-81 46-47 23-85 40-85 37z"/>
  <path d="m6460 4770c19-11 40-19 45-19 6 0-6 8-25 19s-39 19-45 19c-5 0 6-8 25-19z"/>
  <path d="m6540 4735c14-8 30-14 35-14 6 0-1 6-15 14s-29 14-35 14c-5 0 1-6 15-14z"/>
  <path d="m6610 4705c32-18 44-19 29-2-7 7-22 14-33 14-19 2-18 0 4-12z"/>
  <path d="m6995 4560c11-5 27-9 35-9 9 0 8 4-5 9-11 5-27 9-35 9-9 0-8-4 5-9z"/>
  <path d="m8045 4250c3-5 13-10 21-10s12 5 9 10c-3 6-13 10-21 10s-12-4-9-10z"/>
  <path d="m1961 4160c0-8 4-24 9-35 5-13 9-14 9-5 0 8-4 24-9 35-5 13-9 14-9 5z"/>
  <path d="m8786 4144c-4-14-5-28-3-31 3-2 8 8 11 23 4 14 5 28 3 31-3 2-8-8-11-23z"/>
  <path d="m461 3980c0-8 4-24 9-35 5-13 9-14 9-5 0 8-4 24-9 35-5 13-9 14-9 5z"/>
  <path d="m10286 3964c-4-14-5-28-3-31 3-2 8 8 11 23 4 14 5 28 3 31-3 2-8-8-11-23z"/>
  <path d="m492 3880c0-8 6-31 13-50s13-28 13-20-6 31-13 50-13 28-13 20z"/>
  <path d="m10251 3849c-7-22-11-43-8-45 2-2 9 14 16 37 7 22 11 43 8 45-2 2-9-14-16-37z"/>
  <path d="m551 3700c0-8 4-24 9-35 5-13 9-14 9-5 0 8-4 24-9 35-5 13-9 14-9 5z"/>
  <path d="m10196 3684c-4-14-5-28-3-31 3-2 8 8 11 23 4 14 5 28 3 31-3 2-8-8-11-23z"/>
  <path d="m752 3195c6-14 13-24 14-22 6 6-9 47-17 47-5 0-3-11 3-25z"/>
  <path d="m9997 3198c-9-31-2-33 11-3 6 14 8 25 3 25s-11-10-14-22z"/>
  <path d="m842 3015c6-14 15-25 20-25s1 11-8 25-18 25-20 25 2-11 8-25z"/>
  <path d="m9906 3015c-9-14-13-25-8-25s14 11 20 25 10 25 8 25-11-11-20-25z"/>
  <path d="m8280 2612c0-18 23-62 32-62 5 0 1 15-8 33-20 39-24 44-24 29z"/>
  <path d="m8490 2496c0-23 11-46 23-46 7 0 7 4-1 12-19 19-14 30 11 22 26-8 22-2-10 15-19 10-23 9-23-3z"/>
  <path d="m2249 2438c-7-13-19-33-27-45-8-13-10-23-5-23s19 20 31 45c22 46 23 64 1 23z"/>
  <path d="m8630 2440c0-5 7-10 16-10 8 0 12-4 9-10-3-5-1-10 4-10 18 0 12 19-9 30-14 7-20 7-20 0z"/>
  <path d="m3330 2397c0-4 27-25 60-47s60-37 60-33-15 17-33 29c-17 11-44 29-59 38-16 10-28 16-28 13z"/>
  <path d="m7368 2362c-32-20-58-41-58-45s27 11 60 33c51 35 69 50 58 50-2 0-29-17-60-38z"/>
  <path d="m2352 2325c-12-25-18-45-13-45 8 0 44 81 38 87-2 1-13-18-25-42z"/>
  <path d="m8424 2315c5-11 13-32 18-47 5-16 14-28 19-28s0 19-12 43c-24 46-36 63-25 32z"/>
  <path d="m3640 2206c0-2 11-11 25-20s25-13 25-8-11 14-25 20-25 10-25 8z"/>
  <path d="m7093 2198c-13-6-23-15-23-20s11-1 25 8c37 24 35 30-2 12z"/>
  <path d="m8662 2156c12-25 26-46 30-46 10 0-28 76-42 85-6 4 0-14 12-39z"/>
  <path d="m2075 2115c-14-25-25-50-23-56 2-5 16 15 31 45 33 68 29 73-8 11z"/>
  <path d="m3840 2101c0-8 41-23 47-17 2 1-8 8-22 14s-25 8-25 3z"/>
  <path d="m6890 2094c-25-15-25-15 0-8 28 7 35 12 29 18-2 2-15-2-29-10z"/>
  <path d="m2183 1979c-12-21-18-41-14-44 7-4 44 75 38 81-1 1-12-15-24-37z"/>
  <path d="m8585 1985c4-11 10-28 12-37 3-10 9-18 14-18s2 15-7 33c-19 38-30 50-19 22z"/>
  <path d="m3410 1582c-87-179-87-189 0-19 39 77 70 142 68 146-2 3-32-54-68-127z"/>
  <path d="m3505 1389c-66-132-123-243-127-245-4-3-39 11-78 31-38 19-70 32-70 28 0-8 137-73 152-73 8 0 250 491 245 496-1 2-57-105-122-237z"/>
  <path d="m7733 1558c12-13 23-20 25-16 5 10-23 38-37 38-6 0 0-10 12-22z"/>
  <path d="m4494 1367c17-34 32-59 34-56 4 10-37 96-52 108-7 6 2-18 18-52z"/>
  <path d="m3998 1343c-17-20-41-63-35-63 3 0 16 18 31 40 28 42 29 52 4 23z"/>
  <path d="m6941 1278c-1-29 13-36 39-17 12 9 11 10-7 6-16-4-23 0-26 17s-5 15-6-6z"/>
  <path d="m4363 1215c0-22 2-30 4-17 2 12 2 30 0 40-3 9-5-1-4-23z"/>
  <path d="m6080 1204c-7-19-9-38-6-41 3-4 6 0 6 8s7 26 14 42c8 15 11 27 6 27s-14-16-20-36z"/>
  <path d="m6804 1100c0-69 1-97 3-62 2 34 2 90 0 125-2 34-3 6-3-63z"/>
  <path d="m5465 1161c-4-7-3-16 2-20 6-3 13-13 16-21 5-13 5-13 6 0 0 29-15 55-24 41z"/>
  <path d="m6950 1090c0-16 2-30 4-30s6 14 8 30c3 17 1 30-4 30-4 0-8-13-8-30z"/>
  <path d="m5246 954c-10-37-2-39 11-4 6 17 8 30 3 30-4 0-11-12-14-26z"/>
  <path d="m5403 833c15-2 37-2 50 0 12 2 0 4-28 4-27 0-38-2-22-4z"/>
  <path d="m7673 828c-31-15-29-30 2-16 14 6 25 15 25 20 0 9 1 10-27-4z"/>
  <path d="m6070 800c0-9 39-25 46-18 2 3-7 10-21 16s-25 7-25 2z"/>
  <path d="m5176 764c-10-37-2-39 11-4 6 17 8 30 3 30-4 0-11-12-14-26z"/>
  <path d="m6425 780c-13-5-14-9-5-9 8 0 24 4 35 9 13 5 14 9 5 9-8 0-24-4-35-9z"/>
  <path d="m5313 700c-6-17-8-30-3-30 8 0 24 50 18 56-2 2-9-10-15-26z"/>
  <path d="m3625 580c11-5 27-9 35-9 9 0 8 4-5 9-11 5-27 9-35 9-9 0-8-4 5-9z"/>
  <path d="m7105 580c-13-5-14-9-5-9 8 0 24 4 35 9 13 5 14 9 5 9-8 0-24-4-35-9z"/>
  <path d="m5328 273c28-2 76-2 105 0 28 2 5 3-53 3s-81-1-52-3z"/>
 </g>
 <g transform="translate(0 1074) scale(.1 -.1)" fill="#a24f4b">
  <path d="m5981 10046c8-7 79-35 79-31 0 7-58 35-71 35-7 0-10-2-8-4z"/>
  <path d="m5070 10023c0-5 14-17 30-26 17-10 30-16 30-13 0 2-13 14-30 26-16 12-30 18-30 13z"/>
  <path d="m3100 9940c-52-27-92-49-87-49 10-1 187 88 187 94 0 7 5 9-100-45z"/>
  <path d="m7560 9985c0-7 121-67 126-63 2 2-26 18-61 36-36 17-65 30-65 27z"/>
  <path d="m4135 9925c-22-8-31-14-20-14s34 6 50 14c38 17 22 17-30 0z"/>
  <path d="m5181 9925c0-5 6-19 14-29 8-11 15-15 15-10 0 6-7 19-15 30-8 10-14 15-14 9z"/>
  <path d="m4271 9909c-1-18 20-82 25-77 2 2-3 24-11 48-7 25-14 38-14 29z"/>
  <path d="m4111 9860c0-3 6-25 13-50 8-25 15-36 15-25 0 17-26 88-28 75z"/>
  <path d="m6138 9760c-9-22-15-40-13-40 8 0 36 61 33 70-2 5-11-9-20-30z"/>
  <path d="m6523 9785c-3-9-3-19 1-22 3-4 6 1 6 10 0 8 8 18 18 20 16 4 16 5-1 6-10 0-20-6-24-14z"/>
  <path d="m3637 9705c3-16 10-39 14-50 8-20 8-20 8 0 0 11-6 34-14 50-14 30-14 30-8 0z"/>
  <path d="m2618 9672c-16-9-28-20-28-25s14 1 30 13c17 12 30 23 30 26 0 6-2 5-32-14z"/>
  <path d="m8110 9686c0-2 14-14 30-26 17-12 30-18 30-13s-13 17-30 26c-16 10-30 16-30 13z"/>
  <path d="m4361 9629c-1-18 20-82 25-77 2 2-3 24-11 48-7 25-14 38-14 29z"/>
  <path d="m5870 9606c0-11 30-66 36-66 2 0-3 15-12 33-19 36-24 44-24 33z"/>
  <path d="m8260 9586c0-2 14-14 30-26 17-12 30-18 30-13s-13 17-30 26c-16 10-30 16-30 13z"/>
  <path d="m4186 9545c10-8 26-14 34-14 9 0 4 6-10 14-33 19-49 19-24 0z"/>
  <path d="m3726 9425c11-48 25-76 18-35-4 19-10 42-15 50-6 10-7 5-3-15z"/>
  <path d="m3362 9350c0-19 2-27 5-17 2 9 2 25 0 35-3 9-5 1-5-18z"/>
  <path d="m4456 9330c3-19 6-41 7-47 0-7 4-13 9-13 10 0 11-3-7 50-13 37-14 39-9 10z"/>
  <path d="m3931 9339c-1-18 20-82 25-77 2 2-3 24-11 48-7 25-14 38-14 29z"/>
  <path d="m6791 9269c-1-8 6-24 15-35 15-19 15-19 6 1-5 11-12 27-15 35-5 13-6 13-6-1z"/>
  <path d="m3801 9200c0-3 6-25 13-50 8-25 15-36 15-25 0 17-26 88-28 75z"/>
  <path d="m3100 9186c0-11 30-66 36-66 2 0-3 15-12 33-19 36-24 44-24 33z"/>
  <path d="m3641 9176c10-9 149-76 149-71s-136 75-146 75c-4 0-5-2-3-4z"/>
  <path d="m8083 9163c9-2 25-2 35 0 9 3 1 5-18 5s-27-2-17-5z"/>
  <path d="m3865 9095c-30-14-30-14 0-8 17 3 39 10 50 14 20 8 20 8 0 8-11 0-33-6-50-14z"/>
  <path d="m1808 9025c-21-19-34-35-30-35 5 0 23 16 42 35 44 45 36 45-12 0z"/>
  <path d="m8942 9025c21-22 39-37 41-34 2 2-15 19-37 38-41 35-41 35-4-4z"/>
  <path d="m3397 8965c9-19 18-33 21-31 4 5-26 66-33 66-3 0 3-16 12-35z"/>
  <path d="m9010 8964c0-6 17-26 38-45 37-34 37-34 2 6-19 22-36 42-37 44-2 2-3 0-3-5z"/>
  <path d="m1714 8928c-29-33-29-33 4-4 30 28 37 36 29 36-2 0-16-15-33-32z"/>
  <path d="m3220 8956c0-11 30-66 36-66 2 0-3 15-12 33-19 36-24 44-24 33z"/>
  <path d="m7922 8875c-6-14-10-25-8-25s11 11 20 25 13 25 8 25-14-11-20-25z"/>
  <path d="m2213 8874c-3-8-1-20 5-26 7-7 10-2 9 16-2 30-5 32-14 10z"/>
  <path d="m2882 8861c-15-9 3-51 22-51 4 0 3 7-4 15s-10 22-6 30c6 17 6 18-12 6z"/>
  <path d="m3380 8850c-19-11-31-19-27-20 11 0 67 29 67 35 0 7-1 7-40-15z"/>
  <path d="m3245 8788c4-11 2-18-4-18s-11-5-11-12c0-8 6-6 17 5 14 14 15 19 4 29-10 11-11 10-6-4z"/>
  <path d="m8502 8770c0-19 2-27 5-17 2 9 2 25 0 35-3 9-5 1-5-18z"/>
  <path d="m4153 8780c-34-14-28-21 7-9 17 6 30 13 30 15 0 6-12 4-37-6z"/>
  <path d="m6570 8787c0-3 15-10 32-16 18-6 28-7 23-2-12 10-55 25-55 18z"/>
  <path d="m3808 8634c-39-21-35-28 5-8 37 19 44 24 31 24-5-1-21-8-36-16z"/>
  <path d="m1974 8614c-19-15-19-15 1-6 11 5 27 12 35 15 13 5 13 6-1 6-8 1-24-6-35-15z"/>
  <path d="m8436 8578c-17-33-17-33 3-9 18 20 27 41 18 41-1 0-11-15-21-32z"/>
  <path d="m8103 8573c9-2 25-2 35 0 9 3 1 5-18 5s-27-2-17-5z"/>
  <path d="m2225 8470c-13-5-14-9-5-9 8 0 24 4 35 9 13 5 14 9 5 9-8 0-24-4-35-9z"/>
  <path d="m1131 8218c-8-13-21-33-29-45-27-43-3-23 28 22 17 25 27 45 23 45-5 0-14-10-22-22z"/>
  <path d="m9630 8195c31-45 55-65 28-22-8 12-21 32-29 45-8 12-17 22-22 22-4 0 6-20 23-45z"/>
  <path d="m1800 8093c8-3 24-10 35-15 20-9 20-9 1 6-11 9-27 16-35 15-14 0-14-1-1-6z"/>
  <path d="m1896 7785c8-37 14-45 14-19 0 10-5 26-10 34-8 11-9 7-4-15z"/>
  <path d="m9452 7803c9-2 20-13 23-24 4-11 9-18 12-16 10 10-18 47-35 46-16-1-16-2 0-6z"/>
  <path d="m8663 7723c14-14 19-15 29-4 11 11 10 13-4 8-10-4-18-2-18 3 0 6-5 10-12 10-8 0-6-6 5-17z"/>
  <path d="m9100 7595c0-8 5-15 11-15 5 0 8 4 5 9-4 5 0 12 6 14 8 3 6 6-4 6-10 1-18-6-18-14z"/>
  <path d="m1760 7530c-21-7-21-8-5-9 11 0 27 4 35 9 18 11 5 11-30 0z"/>
  <path d="m2390 7430c-12-16-18-30-13-30s17 14 26 30c10 17 16 30 13 30-2 0-14-13-26-30z"/>
  <path d="m8357 7430c9-16 21-30 26-30s-1 14-13 30c-12 17-24 30-26 30-3 0 3-13 13-30z"/>
  <path d="m1886 7415c-11-8-18-17-15-19 2-3 15 4 29 14 14 11 21 20 15 19-5 0-19-6-29-14z"/>
  <path d="m1140 7373c0-5 14-17 30-26 17-10 30-16 30-13 0 2-13 14-30 26-16 12-30 18-30 13z"/>
  <path d="m1450 7097c-10-19-9-20 2-6 7 9 19 14 26 12 17-6 15 4-3 11-9 3-19-3-25-17z"/>
  <path d="m1551 7008c0-9-4-25-7-35-5-17-5-17 6 0 6 10 9 25 7 35-4 15-5 15-6 0z"/>
  <path d="m1147 6930c9-16 21-30 25-30 5 0-1 14-14 30-12 17-23 30-25 30s4-13 14-30z"/>
  <path d="m9271 6951c-10-7-11-12-1-27 8-14 10-14 7-3-3 9 0 22 6 28 13 13 7 14-12 2z"/>
  <path d="m3998 6224c-38-20-36-28 2-9 17 9 30 18 30 20 0 7-1 6-32-11z"/>
  <path d="m3868 6154c-38-20-36-28 2-9 17 9 30 18 30 20 0 7-1 6-32-11z"/>
  <path d="m3758 6094c-38-20-36-28 2-9 17 9 30 18 30 20 0 7-1 6-32-11z"/>
  <path d="m3638 6029c-21-11-38-22-38-24 0-3 18 4 40 15s40 23 40 25c0 7 0 7-42-16z"/>
  <path d="m3518 5964c-38-20-36-28 2-9 17 9 30 18 30 20 0 7-1 6-32-11z"/>
  <path d="m3408 5904c-38-20-36-28 2-9 17 9 30 18 30 20 0 7-1 6-32-11z"/>
  <path d="m3278 5834c-38-20-36-28 2-9 17 9 30 18 30 20 0 7-1 6-32-11z"/>
  <path d="m3158 5769c-21-11-38-22-38-24 0-3 18 4 40 15s40 23 40 25c0 7 0 7-42-16z"/>
  <path d="m3008 5689c-21-11-38-22-38-24 0-3 18 4 40 15s40 23 40 25c0 7 0 7-42-16z"/>
  <path d="m2828 5594c-27-13-48-27-48-29 0-3 23 6 50 20 28 14 50 28 50 30 0 7 1 7-52-21z"/>
  <path d="m2578 5469c-43-21-78-41-78-44s36 13 80 35 80 42 80 45c0 7 4 8-82-36z"/>
  <path d="m2070 5215c-36-19-60-34-55-34 6 0 39 15 75 34s61 34 55 34c-5 0-39-15-75-34z"/>
  <path d="m8709 4683c-17-20-18-23-3-10 11 9 24 14 27 10 4-3 7 1 7 10 0 22-2 22-31-10z"/>
  <path d="m2126 4296c14-42 28-75 30-73 5 5-36 130-47 141-5 6 3-25 17-68z"/>
  <path d="m8088 4261c-52-24-62-37-13-17 22 10 44 21 50 27 12 12 7 11-37-10z"/>
  <path d="m7810 4125c-14-8-20-14-15-14 6 0 21 6 35 14s21 14 15 14c-5 0-21-6-35-14z"/>
  <path d="m2100 3826c0-10 60-126 65-126 3 0-9 28-26 63-33 65-39 75-39 63z"/>
  <path d="m8622 3765c-17-36-30-65-27-65 7 0 67 121 63 126-2 2-18-26-36-61z"/>
  <path d="m521 3789c-1-18 20-82 25-77 2 2-3 24-11 48-7 25-14 38-14 29z"/>
  <path d="m10228 3775c-4-16-9-39-12-50-4-11 1-5 9 14 9 18 14 41 13 50-2 9-7 3-10-14z"/>
  <path d="m797 3105c20-41 39-73 41-71 4 5-66 146-73 146-3 0 12-34 32-75z"/>
  <path d="m9954 3109c-19-39-34-73-32-75s21 30 41 71 35 75 32 75-21-32-41-71z"/>
  <path d="m2822 2815c26-27 49-47 51-45 2 3-20 25-47 50-51 44-51 44-4-5z"/>
  <path d="m7930 2815c-24-25-42-45-39-45s25 20 49 45 42 45 39 45-25-20-49-45z"/>
  <path d="m2392 2405c-12-25-20-45-17-45 7 0 47 81 43 86-3 2-14-17-26-41z"/>
  <path d="m8380 2406c0-11 40-86 45-86 3 0-4 19-16 43-23 45-29 54-29 43z"/>
  <path d="m8187 2355c6-11 8-26 5-34s0-11 7-7c16 10 14 31-6 47-15 13-15 12-6-6z"/>
  <path d="m2112 2185c-17-37-14-45 4-12 9 16 14 31 11 33-2 2-9-7-15-21z"/>
  <path d="m2222 2055c-12-25-20-45-17-45 7 0 47 81 43 86-3 2-14-17-26-41z"/>
  <path d="m8540 2076c0-11 40-86 45-86 3 0-4 19-16 43-23 45-29 54-29 43z"/>
  <path d="m2699 2021c-26-29-32-41-15-35 16 6 51 55 39 53-5 0-15-9-24-18z"/>
  <path d="m4186 1960c11-11 106-41 112-36 2 2-25 13-59 25-35 12-59 17-53 11z"/>
  <path d="m6502 1943c-40-14-72-27-70-29 6-5 132 36 143 47 12 12 13 12-73-18z"/>
  <path d="m7533 1858c-13-6-23-15-23-20s11-1 25 8c37 24 35 30-2 12z"/>
  <path d="m2331 1806c-8-10-8-16 3-25 11-10 14-7 12 14-1 29 0 29-15 11z"/>
  <path d="m5363 1753c9-2 25-2 35 0 9 3 1 5-18 5s-27-2-17-5z"/>
  <path d="m7513 1553c9-2 25-2 35 0 9 3 1 5-18 5s-27-2-17-5z"/>
  <path d="m4410 1487c0-10 41-49 46-45 2 3-7 15-21 28s-25 20-25 17z"/>
  <path d="m7743 1476c-4-8-25-24-45-36-51-30-48-37 3-8 22 12 45 31 50 40 11 21 4 25-8 4z"/>
  <path d="m6930 1447c0-8 6-14 14-14s12 6 9 14c-3 7-9 13-14 13s-9-6-9-13z"/>
  <path d="m3284 1329c-30-61-54-113-52-115s29 48 61 111c31 63 55 115 52 115s-30-50-61-111z"/>
  <path d="m4052 1393c-23-15-42-32-42-37s11 1 24 13c13 13 41 29 63 36 23 9 30 14 18 15-12 0-40-12-63-27z"/>
  <path d="m6210 1330c-11-8-7-9 15-4 37 8 45 14 19 14-10 0-26-5-34-10z"/>
  <path d="m7695 1285c-16-7-23-14-14-14 8-1 24 6 35 14 24 18 18 18-21 0z"/>
  <path d="m3952 1190c0-19 2-27 5-17 2 9 2 25 0 35-3 9-5 1-5-18z"/>
  <path d="m2480 1173c0-4 22-22 48-39s59-39 75-48c15-10 27-16 27-12 0 3-34 28-75 56s-75 47-75 43z"/>
  <path d="m8211 1135c-61-42-105-78-71-60 14 8 130 84 139 92 2 1 2 5 0 7s-33-16-68-39z"/>
  <path d="m5436 1073c-9-26-12-43-7-38 11 13 32 77 27 82-2 2-11-17-20-44z"/>
  <path d="m6801 928c-1-27 3-48 7-48s6 17 4 38c-5 58-10 62-11 10z"/>
  <path d="m4163 833c9-2 25-2 35 0 9 3 1 5-18 5s-27-2-17-5z"/>
  <path d="m5473 833c9-2 25-2 35 0 9 3 1 5-18 5s-27-2-17-5z"/>
  <path d="m6020 836c0-2 14-14 30-26 17-12 30-18 30-13s-13 17-30 26c-16 10-30 16-30 13z"/>
  <path d="m3670 567c0-3 15-10 32-16 18-6 28-7 23-2-12 10-55 25-55 18z"/>
  <path d="m7053 560c-34-14-28-21 7-9 17 6 30 13 30 15 0 6-12 4-37-6z"/>
  <path d="m3815 515c17-8 39-14 50-14s0 7-25 15c-56 17-64 17-25-1z"/>
  <path d="m6915 515c-22-8-31-14-20-14s34 6 50 14c38 17 22 17-30 0z"/>
 </g>
 <g transform="translate(0 1074) scale(.1 -.1)" fill="#f4ebeb">
  <path d="m5050 10025c14-7 27-11 30-9 6 7-22 24-40 23-9 0-5-6 10-14z"/>
  <path d="m3240 10010c-8-5-12-11-9-14s14 1 25 9c21 16 8 20-16 5z"/>
  <path d="m7504 10005c11-8 22-12 25-9 6 6-19 24-34 24-5-1-1-7 9-15z"/>
  <path d="m2954 9865c-10-8-14-14-9-15 15 0 40 18 34 24-3 3-14-1-25-9z"/>
  <path d="m4725 9860c-10-11-13-20-8-20 13 0 38 29 31 35-3 3-13-4-23-15z"/>
  <path d="m7780 9871c0-10 30-24 37-17 3 2-5 9-16 16-12 6-21 7-21 1z"/>
  <path d="m2864 9815c-10-8-14-14-9-15 15 0 40 18 34 24-3 3-14-1-25-9z"/>
  <path d="m7870 9821c0-10 30-24 37-17 3 2-5 9-16 16-12 6-21 7-21 1z"/>
  <path d="m7460 9595c13-14 25-23 27-21 6 6-30 46-41 46-5 0 1-11 14-25z"/>
  <path d="m4205 9560c3-5 1-10-5-10s-8-5-4-11c4-8 9-7 15 2 12 19 11 29-2 29-5 0-7-4-4-10z"/>
  <path d="m5940 9465c0-15 18-40 24-34 3 3-1 14-9 25-8 10-14 15-15 9z"/>
  <path d="m6180 9359c7-11 14-19 16-16 7 7-7 37-17 37-6 0-5-9 1-21z"/>
  <path d="m3200 9339c7-11 14-19 16-16 7 7-7 37-17 37-6 0-5-9 1-21z"/>
  <path d="m3050 9275c0-15 18-40 24-34 3 3-1 14-9 25-8 10-14 15-15 9z"/>
  <path d="m3504 9245c11-8 22-12 25-9 6 6-19 24-34 24-5-1-1-7 9-15z"/>
  <path d="m3330 9089c7-11 14-19 16-16 7 7-7 37-17 37-6 0-5-9 1-21z"/>
  <path d="m8380 9045c13-14 26-23 28-20 7 7-29 45-41 45-6 0 0-11 13-25z"/>
  <path d="m3754 9045c-10-8-14-14-9-15 15 0 40 18 34 24-3 3-14-1-25-9z"/>
  <path d="m3170 9045c0-15 18-40 24-34 3 3-1 14-9 25-8 10-14 15-15 9z"/>
  <path d="m3570 9031c0-10 30-24 37-17 3 2-5 9-16 16-12 6-21 7-21 1z"/>
  <path d="m5303 8983c9-2 25-2 35 0 9 3 1 5-18 5s-27-2-17-5z"/>
  <path d="m5423 8983c9-2 25-2 35 0 9 3 1 5-18 5s-27-2-17-5z"/>
  <path d="m2684 8575c21-16 32-13 21 4-3 6-14 11-23 11-15-1-15-2 2-15z"/>
  <path d="m9100 8302c0-5 7-13 16-16 10-4 14-1 12 6-5 15-28 23-28 10z"/>
  <path d="m1890 8240c6-11 16-20 22-20s3 9-7 20-20 20-22 20 1-9 7-20z"/>
  <path d="m2165 8190c10-11 20-20 22-20s-1 9-7 20-16 20-22 20-3-9 7-20z"/>
  <path d="m4930 8175c0-7 61-37 66-33 2 3-12 12-31 21s-35 15-35 12z"/>
  <path d="m2294 7959c-19-22-19-22 4-10 12 6 22 16 22 21 0 15-5 12-26-11z"/>
  <path d="m2820 7935c-13-14-21-27-18-30 2-3 17 9 33 25 16 17 24 30 19 30-6 0-21-11-34-25z"/>
  <path d="m7925 7930c16-16 31-28 33-25 7 7-39 55-52 55-5 0 3-13 19-30z"/>
  <path d="m3014 7838c-29-33-29-33 4-4 30 28 37 36 29 36-2 0-16-15-33-32z"/>
  <path d="m2904 7728c-29-33-29-33 4-4 17 17 32 31 32 33 0 8-8 1-36-29z"/>
  <path d="m840 7731c-6-12-7-21-1-21 10 0 24 30 17 37-2 3-9-5-16-16z"/>
  <path d="m9900 7745c0-15 18-40 24-34 3 3-1 14-9 25-8 10-14 15-15 9z"/>
  <path d="m1540 7585c13-14 26-23 28-20 6 6-33 45-44 45-4 0 3-11 16-25z"/>
  <path d="m756 7564c-10-25 1-29 14-5 6 12 7 21 1 21-5 0-12-7-15-16z"/>
  <path d="m9990 7559c7-11 14-19 16-16 7 7-7 37-17 37-6 0-5-9 1-21z"/>
  <path d="m1594 7545c11-8 25-15 30-15 6 0 2 7-8 15-11 8-25 15-30 15-6 0-2-7 8-15z"/>
  <path d="m3500 7420c-19-11-31-19-27-20 11 0 67 29 67 35 0 7-1 7-40-15z"/>
  <path d="m1850 7395c-15-8-19-14-10-14 18-1 46 16 40 23-3 2-16-2-30-9z"/>
  <path d="m7810 7190c-19-11-31-19-27-20 11 0 67 29 67 35 0 7-1 7-40-15z"/>
  <path d="m2176 7084c-10-25 1-29 14-5 6 12 7 21 1 21-5 0-12-7-15-16z"/>
  <path d="m8570 7079c7-11 14-19 16-16 7 7-7 37-17 37-6 0-5-9 1-21z"/>
  <path d="m7905 7020c21-22 41-40 44-40s-13 18-34 40-41 40-44 40 13-18 34-40z"/>
  <path d="m8397 6965c9-19 18-33 21-31 4 5-26 66-33 66-3 0 3-16 12-35z"/>
  <path d="m6057 6935c9-19 18-33 21-31 4 5-26 66-33 66-3 0 3-16 12-35z"/>
  <path d="m7790 6899c-12-23-20-43-18-45 3-2 14 17 26 41 27 56 20 60-8 4z"/>
  <path d="m2080 6891c-6-12-7-21-1-21 10 0 24 30 17 37-2 3-9-5-16-16z"/>
  <path d="m8660 6905c0-15 18-40 24-34 3 3-1 14-9 25-8 10-14 15-15 9z"/>
  <path d="m8451 6865c0-5 8-26 19-45s19-30 19-25c0 6-8 26-19 45s-19 31-19 25z"/>
  <path d="m1575 6770c-10-11-13-20-8-20 13 0 38 29 31 35-3 3-13-4-23-15z"/>
  <path d="m1953 5370c0-41 2-58 4-37 2 20 2 54 0 75-2 20-4 3-4-38z"/>
  <path d="m2310 3856c0-11 50-106 55-106 3 0-7 24-21 53-28 55-34 65-34 53z"/>
  <path d="m8397 3765c-9-19-15-35-12-35 7 0 37 61 33 66-3 2-12-12-21-31z"/>
  <path d="m2460 3585c0-5 10-21 21-35 13-17 17-18 10-5-17 33-31 51-31 40z"/>
  <path d="m860 2979c7-11 14-19 16-16 7 7-7 37-17 37-6 0-5-9 1-21z"/>
  <path d="m7790 2955c-24-25-42-45-39-45s25 20 49 45 42 45 39 45-25-20-49-45z"/>
  <path d="m9886 2984c-10-25 1-29 14-5 6 12 7 21 1 21-5 0-12-7-15-16z"/>
  <path d="m2740 2900c0-5 10-15 23-21 22-12 22-12 3 10-21 23-26 26-26 11z"/>
  <path d="m7994 2889c-19-22-19-22 4-10 12 6 22 16 22 21 0 15-5 12-26-11z"/>
  <path d="m2886 2755c9-14 21-25 27-25s0 11-13 25-25 25-27 25 4-11 13-25z"/>
  <path d="m7855 2750c-10-11-13-20-7-20s16 9 22 20 9 20 7 20-12-9-22-20z"/>
  <path d="m2484 2608c-1-29 0-30 12-13 15 20 14 37-2 42-5 2-10-11-10-29z"/>
  <path d="m8310 2539c7-11 14-19 16-16 7 7-7 37-17 37-6 0-5-9 1-21z"/>
  <path d="m3560 2481c14-11 30-21 35-21 11 0-7 14-40 31-13 7-12 3 5-10z"/>
  <path d="m8515 2429c9-17 19-29 21-26 7 7-18 57-28 57-5 0-1-14 7-31z"/>
  <path d="m2206 2363c-5-12-9-14-18-5-21 21-32 13-13-8 23-26 29-25 43 5 6 14 8 25 3 25s-12-8-15-17z"/>
  <path d="m3760 2365c0-7 181-97 186-93 2 2-39 25-91 51s-95 45-95 42z"/>
  <path d="m6900 2320c-52-27-92-49-87-49 10-1 187 88 187 94 0 7 5 9-100-45z"/>
  <path d="m8193 2343c4-3 2-12-4-20-9-9-8-13 0-13 6 0 11 2 11 4s3 11 6 20c4 10 1 16-7 16-7 0-9-3-6-7z"/>
  <path d="m8754 2329c-19-22-19-22 4-10 12 6 22 16 22 21 0 15-5 12-26-11z"/>
  <path d="m2321 2264c-17-38-6-42 14-5 8 17 12 31 7 31s-14-12-21-26z"/>
  <path d="m8465 2219c9-17 19-29 21-26 7 7-18 57-28 57-5 0-1-14 7-31z"/>
  <path d="m3680 2181c0-10 30-24 37-17 3 2-5 9-16 16-12 6-21 7-21 1z"/>
  <path d="m7054 2175c-10-8-14-14-9-15 15 0 40 18 34 24-3 3-14-1-25-9z"/>
  <path d="m4245 2151c12-11 107-42 112-37 2 2-24 13-58 25-35 12-59 17-54 12z"/>
  <path d="m6457 2138c-32-11-56-22-54-24 5-5 99 26 112 37 12 11 11 11-58-13z"/>
  <path d="m8697 2085c16-34 16-36-7-60-30-32-19-33 15-1 25 24 26 24 8 60-9 20-20 36-25 36-4 0 0-16 9-35z"/>
  <path d="m3147 2063c-12-12-7-22 8-17 8 4 15 10 15 15 0 11-14 12-23 2z"/>
  <path d="m7730 1993c0-6 6-13 13-15 16-7 37 1 37 14 0 7-4 7-13-1-10-8-17-7-25 1s-12 9-12 1z"/>
  <path d="m2140 1962c0-6 10-16 21-23 13-6 19-7 15-1-3 6-3 12 1 15 5 2 3 3-3 1-6-1-17 3-23 9-8 8-11 8-11-1z"/>
  <path d="m3321 1862c-25-50-28-61-15-66 8-3 12-1 9 4s6 32 20 61c15 28 24 53 21 56-2 3-18-22-35-55z"/>
  <path d="m1684 1841c16-17 32-29 34-26 7 7-18 34-42 47-16 8-14 3 8-21z"/>
  <path d="m9063 1846c-15-13-25-27-22-30s18 8 34 24c35 36 27 40-12 6z"/>
  <path d="m1830 1695c13-14 26-23 28-20 7 7-29 45-41 45-6 0 0-11 13-25z"/>
  <path d="m8915 1700c-27-30-12-34 15-5 13 14 19 25 13 25-5 0-18-9-28-20z"/>
  <path d="m3838 1607c-19-36-30-63-23-61 13 5 68 114 61 121-2 2-19-25-38-60z"/>
  <path d="m7004 1581c21-23 26-26 26-11 0 5-10 15-22 21-23 12-23 12-4-10z"/>
  <path d="m7145 1430c10-11 20-18 23-15 7 6-18 35-31 35-5 0-2-9 8-20z"/>
  <path d="m7274 1291c21-23 26-26 26-11 0 5-10 15-22 21-23 12-23 12-4-10z"/>
  <path d="m5925 1279c-10-30 0-33 13-4 6 14 7 25 2 25s-12-9-15-21z"/>
  <path d="m3044 835c11-8 22-12 25-9 6 6-19 24-34 24-5-1-1-7 9-15z"/>
  <path d="m7700 840c-8-5-12-11-9-14s14 1 25 9c21 16 8 20-16 5z"/>
  <path d="m3080 822c0-10 91-55 97-48 3 3-18 16-46 30-28 15-51 23-51 18z"/>
  <path d="m7617 799c-22-11-37-23-34-25 6-7 77 28 77 38s2 11-43-13z"/>
 </g>
 <g transform="translate(0 1074) scale(.1 -.1)" fill="#c28a8a">
  <path d="m3760 10215c-36-13-60-24-54-24 13-1 134 39 134 45 0 7-12 4-80-21z"/>
  <path d="m6945 10225c17-8 37-14 45-14s-1 7-20 14c-46 18-64 17-25 0z"/>
  <path d="m4222 9951c-9-5-4-8 16-7 17 1 28 4 25 9-6 9-25 9-41-2z"/>
  <path d="m3675 9775c-39-17-21-18 25 0 19 7 28 14 20 14s-28-6-45-14z"/>
  <path d="m6050 9660c-25-21-25-21 3-9 15 7 27 16 27 21 0 11-1 10-30-12z"/>
  <path d="m7078 9554c-39-21-35-28 5-8 37 19 44 24 31 24-5-1-21-8-36-16z"/>
  <path d="m5937 9465c9-19 18-33 21-31 4 5-26 66-33 66-3 0 3-16 12-35z"/>
  <path d="m5057 9381c-41-26-46-36-10-17 17 9 35 20 38 26 8 13 6 12-28-9z"/>
  <path d="m3200 9356c0-11 30-66 36-66 2 0-3 15-12 33-19 36-24 44-24 33z"/>
  <path d="m3340 9298c-15-21-17-28-6-19 16 13 41 51 33 51-2 0-14-15-27-32z"/>
  <path d="m3047 9275c9-19 18-33 21-31 4 5-26 66-33 66-3 0 3-16 12-35z"/>
  <path d="m3494 9269c-7-11 12-29 31-29 6 1 2 5-8 11-9 6-15 14-12 20 4 5 4 9 1 9s-8-5-12-11z"/>
  <path d="m3962 9235c0-5 6-26 13-45s14-28 14-20-6 29-14 45c-7 17-13 26-13 20z"/>
  <path d="m7190 9142c0-7-10-13-22-13-19-1-20-2-4-6 20-5 44 12 33 24-4 3-7 1-7-5z"/>
  <path d="m3330 9106c0-11 30-66 36-66 2 0-3 15-12 33-19 36-24 44-24 33z"/>
  <path d="m3167 9045c9-19 18-33 21-31 4 5-26 66-33 66-3 0 3-16 12-35z"/>
  <path d="m3738 9034c-39-21-35-28 5-8 37 19 44 24 31 24-5-1-21-8-36-16z"/>
  <path d="m7488 8787c14-6 26-7 32-1 5 5-4 9-23 10-30 1-30 1-9-9z"/>
  <path d="m1973 8454c-28-25-28-25 5-3 17 13 32 24 32 26 0 8-11 1-37-23z"/>
  <path d="m3375 8384c-30-26-30-26 3-4 17 12 32 23 32 26 0 7-4 5-35-22z"/>
  <path d="m7350 8406c0-2 14-14 30-26 17-12 30-19 30-16 0 2-13 14-30 26-16 12-30 19-30 16z"/>
  <path d="m2335 8282c4-8 11-26 15-40 7-22 8-23 9-6 1 11-6 29-15 40-8 10-12 13-9 6z"/>
  <path d="m1590 7555c0-7 61-37 66-33 2 3-12 12-31 21s-35 15-35 12z"/>
  <path d="m9760 7152c-23-22-23-24-3-13 12 6 25 16 28 22 13 20 0 15-25-9z"/>
  <path d="m556 7074c-4-14-5-28-3-31 3-2 8 8 11 23 4 14 5 28 3 31-3 2-8-8-11-23z"/>
  <path d="m2167 7065c-9-19-15-35-12-35 7 0 37 61 33 66-3 2-12-12-21-31z"/>
  <path d="m1546 7073c7-4 14-17 17-28 5-16 5-15 4 4-1 14-9 26-17 28-10 3-11 2-4-4z"/>
  <path d="m1440 6860c-19-11-31-19-27-20 11 0 67 29 67 35 0 7-1 7-40-15z"/>
  <path d="m1936 6524c-4-14-5-28-3-31 3-2 8 8 11 23 4 14 5 28 3 31-3 2-8-8-11-23z"/>
  <path d="m8811 6540c0-8 4-24 9-35 5-13 9-14 9-5 0 8-4 24-9 35-5 13-9 14-9 5z"/>
  <path d="m1753 5435c0-27 2-38 4-22 2 15 2 37 0 50-2 12-4 0-4-28z"/>
  <path d="m9003 5440c0-25 2-35 4-22 2 12 2 32 0 45-2 12-4 2-4-23z"/>
  <path d="m1753 5310c0-25 2-35 4-22 2 12 2 32 0 45-2 12-4 2-4-23z"/>
  <path d="m9003 5310c0-25 2-35 4-22 2 12 2 32 0 45-2 12-4 2-4-23z"/>
  <path d="m2330 3410c12-16 24-30 26-30 3 0-4 14-16 30-12 17-24 30-26 30-3 0 4-13 16-30z"/>
  <path d="m8420 3410c-12-16-19-30-16-30 2 0 14 14 26 30 12 17 19 30 16 30-2 0-14-13-26-30z"/>
  <path d="m860 2996c0-11 30-66 36-66 2 0-3 15-12 33-19 36-24 44-24 33z"/>
  <path d="m9877 2965c-9-19-15-35-12-35 7 0 37 61 33 66-3 2-12-12-21-31z"/>
  <path d="m2480 2579c-12-23-20-43-18-45 3-2 14 17 26 41 27 56 20 60-8 4z"/>
  <path d="m1116 2558c20-32 39-58 41-58 7 0-29 58-55 88-13 15-6 1 14-30z"/>
  <path d="m9650 2580c-12-16-19-30-16-30 2 0 14 14 26 30 12 17 19 30 16 30-2 0-14-13-26-30z"/>
  <path d="m8322 2515c12-24 23-43 26-41 4 5-36 86-43 86-3 0 5-20 17-45z"/>
  <path d="m8510 2456c0-11 50-106 55-106 3 0-7 24-21 53-28 55-34 65-34 53z"/>
  <path d="m2201 2359c-7-12-10-23-8-26 3-3 11 5 17 17s10 23 8 25-10-5-17-16z"/>
  <path d="m2314 2239c-14-28-24-53-22-55s16 21 31 51 25 55 22 55-16-23-31-51z"/>
  <path d="m8472 2205c12-24 23-43 26-41 4 5-36 86-43 86-3 0 5-20 17-45z"/>
  <path d="m8690 2116c0-11 30-66 36-66 2 0-3 15-12 33-19 36-24 44-24 33z"/>
  <path d="m7621 2004c-1-6 6-32 15-58 14-41 14-50 3-57s-11-9-1-9c22 0 23 24 3 80-11 30-20 50-20 44z"/>
  <path d="m7463 1980c-18-11-33-22-33-25 0-2 16 5 35 16 19 12 35 23 35 25 0 6-3 5-37-16z"/>
  <path d="m3322 1865c-17-36-30-65-27-65s18 27 35 60 33 60 35 60c3 0 82-38 175-85s173-85 177-84c11 0-339 178-352 178-6 1-25-28-43-64z"/>
  <path d="m3865 1670c3-5-6-32-20-59-14-28-25-54-25-58 1-12 59 100 60 115 0 6-5 12-11 12-5 0-8-4-4-10z"/>
  <path d="m6804 1335c0-71 1-99 3-62s2 96 0 130-3 4-3-68z"/>
  <path d="m7750 1305c-14-8-20-14-15-14 6 0 21 6 35 14s21 14 15 14c-5 0-21-6-35-14z"/>
  <path d="m8324 1208c-19-21-19-21 9-3s33 25 19 25c-5 0-17-10-28-22z"/>
  <path d="m6952 1040c0-19 2-27 5-17 2 9 2 25 0 35-3 9-5 1-5-18z"/>
  <path d="m4325 875c-16-8-23-14-15-14s26 6 40 14c32 18 15 18-25 0z"/>
  <path d="m3e3 865c0-7 61-37 66-33 2 3-12 12-31 21s-35 15-35 12z"/>
  <path d="m7720 850c-19-11-31-19-27-20 11 0 67 29 67 35 0 7-1 7-40-15z"/>
  <path d="m3080 825c0-7 121-67 126-63 2 2-26 18-61 36-36 17-65 30-65 27z"/>
  <path d="m7600 790c-30-16-51-29-47-30 10 0 107 49 107 55 0 7 1 7-60-25z"/>
  <path d="m5238 273c12-2 30-2 40 0 9 3-1 5-23 4-22 0-30-2-17-4z"/>
  <path d="m5488 273c12-2 32-2 45 0 12 2 2 4-23 4s-35-2-22-4z"/>
 </g>
 <g transform="translate(0 1074) scale(.1 -.1)" fill="#841010">
  <path d="m7e3 9213c0-13 29-38 35-31 3 3-4 13-15 23s-20 13-20 8z"/>
  <path d="m1920 9135c-7-8-8-15-2-15 5 0 15 7 22 15s8 15 2 15c-5 0-15-7-22-15z"/>
  <path d="m8820 9135c7-8 17-15 22-15 6 0 5 7-2 15s-17 15-22 15c-6 0-5-7 2-15z"/>
  <path d="m2310 8965c-7-8-8-15-2-15 5 0 15 7 22 15s8 15 2 15c-5 0-15-7-22-15z"/>
  <path d="m8265 8940c10-11 20-18 23-15 7 6-18 35-31 35-5 0-2-9 8-20z"/>
  <path d="m1605 8820c-10-11-16-22-13-25s13 4 23 15 16 22 13 25-13-4-23-15z"/>
  <path d="m9130 8833c0-5 9-18 20-28s20-14 20-8c0 5-9 18-20 28s-20 14-20 8z"/>
  <path d="m1520 8725c-7-9-11-18-8-20 3-3 11 1 18 10s11 18 8 20c-3 3-11-1-18-10z"/>
  <path d="m2320 8732c0-5 7-15 15-22s15-8 15-2c0 5-7 15-15 22s-15 8-15 2z"/>
  <path d="m9220 8732c0-5 7-15 15-22s15-8 15-2c0 5-7 15-15 22s-15 8-15 2z"/>
  <path d="m2620 8652c0-5 7-15 15-22s15-8 15-2c0 5-7 15-15 22s-15 8-15 2z"/>
  <path d="m8386 8520c-15-17-24-30-19-30 12 0 58 48 52 55-3 2-17-9-33-25z"/>
  <path d="m2760 8502c0-5 7-15 15-22s15-8 15-2c0 5-7 15-15 22s-15 8-15 2z"/>
  <path d="m1785 8450c-10-11-16-22-13-25s13 4 23 15 16 22 13 25-13-4-23-15z"/>
  <path d="m8430 8385c-7-8-8-15-2-15 5 0 15 7 22 15s8 15 2 15c-5 0-15-7-22-15z"/>
  <path d="m8655 8360c-10-11-14-20-8-20 5 0 18 9 28 20s14 20 8 20c-5 0-18-9-28-20z"/>
  <path d="m1775 8340c10-11 23-20 28-20 6 0 2 9-8 20s-23 20-28 20c-6 0-2-9 8-20z"/>
  <path d="m2015 8335c28-23 55-20 55 7 0 6-7 5-15-2-13-10-19-10-33 4-10 9-23 16-28 16-5-1 4-12 21-25z"/>
  <path d="m2135 8240c-4-7 0-19 9-28 20-21 26-13 10 16-8 16-14 20-19 12z"/>
  <path d="m1915 8210c10-11 23-20 28-20 6 0 2 9-8 20s-23 20-28 20c-6 0-2-9 8-20z"/>
  <path d="m8890 8125c-7-8-8-15-2-15 5 0 15 7 22 15s8 15 2 15c-5 0-15-7-22-15z"/>
  <path d="m8340 8110c0-15 21-23 32-12 6 6 2 11-11 15-12 3-21 1-21-3z"/>
  <path d="m2990 8095c-7-8-8-15-2-15 5 0 15 7 22 15s8 15 2 15c-5 0-15-7-22-15z"/>
  <path d="m7750 8095c7-8 17-15 22-15 6 0 5 7-2 15s-17 15-22 15c-6 0-5-7 2-15z"/>
  <path d="m2050 8085c7-8 17-15 22-15 6 0 5 7-2 15s-17 15-22 15c-6 0-5-7 2-15z"/>
  <path d="m9090 8075c-7-8-8-15-2-15 5 0 15 7 22 15s8 15 2 15c-5 0-15-7-22-15z"/>
  <path d="m2325 7990c-10-11-16-22-13-25s13 4 23 15 16 22 13 25-13-4-23-15z"/>
  <path d="m2859 7974c-20-22-26-32-14-26 25 13 72 62 59 62-6 0-26-16-45-36z"/>
  <path d="m7875 7980c16-16 33-30 39-30 5 0-3 14-19 30-16 17-33 30-39 30-5 0 3-13 19-30z"/>
  <path d="m2185 7960c10-11 23-20 28-20 6 0 2 9-8 20s-23 20-28 20c-6 0-2-9 8-20z"/>
  <path d="m2770 7885c-18-19-31-37-29-40 3-2 21 11 39 30s31 37 29 40c-3 2-21-11-39-30z"/>
  <path d="m7950 7914c0-6 16-25 35-44s35-29 35-24c0 6-16 25-35 44s-35 29-35 24z"/>
  <path d="m1535 7880c-27-30-12-34 15-5 13 14 19 25 13 25-5 0-18-9-28-20z"/>
  <path d="m1840 7865c13-14 26-23 28-20 7 7-29 45-41 45-6 0 0-11 13-25z"/>
  <path d="m8100 7762c0-5 7-15 15-22s15-8 15-2c0 5-7 15-15 22s-15 8-15 2z"/>
  <path d="m8630 7762c0-5 7-15 15-22s15-8 15-2c0 5-7 15-15 22s-15 8-15 2z"/>
  <path d="m1845 7580c-10-11-13-20-8-20 13 0 38 29 31 35-3 3-13-4-23-15z"/>
  <path d="m1400 7483c0-12 38-48 45-41 3 2-6 15-20 28s-25 19-25 13z"/>
  <path d="m1080 7345c-20-24-6-28 15-5 10 11 13 20 8 20-6 0-16-7-23-15z"/>
  <path d="m1600 6795c-7-9-11-18-8-20 3-3 11 1 18 10s11 18 8 20c-3 3-11-1-18-10z"/>
  <path d="m1550 6745c-7-8-8-15-2-15 5 0 15 7 22 15s8 15 2 15c-5 0-15-7-22-15z"/>
  <path d="m273 5445c0-22 2-30 4-17 2 12 2 30 0 40-3 9-5-1-4-23z"/>
  <path d="m10482 5450c0-19 2-27 5-17 2 9 2 25 0 35-3 9-5 1-5-18z"/>
  <path d="m272 5300c0-19 2-27 5-17 2 9 2 25 0 35-3 9-5 1-5-18z"/>
  <path d="m10482 5300c0-19 2-27 5-17 2 9 2 25 0 35-3 9-5 1-5-18z"/>
  <path d="m2710 2933c0-5 9-18 20-28s20-14 20-8c0 5-9 18-20 28s-20 14-20 8z"/>
  <path d="m8025 2920c-10-11-16-22-13-25s13 4 23 15 16 22 13 25-13-4-23-15z"/>
  <path d="m2915 2720c10-11 23-20 28-20 6 0 2 9-8 20s-23 20-28 20c-6 0-2-9 8-20z"/>
  <path d="m7825 2720c-10-11-14-20-8-20 5 0 18 9 28 20s14 20 8 20c-5 0-18-9-28-20z"/>
  <path d="m8325 2680c-10-11-16-22-13-25s13 4 23 15 16 22 13 25-13-4-23-15z"/>
  <path d="m3010 2635c7-8 17-15 22-15 6 0 5 7-2 15s-17 15-22 15c-6 0-5-7 2-15z"/>
  <path d="m7730 2635c-7-8-8-15-2-15 5 0 15 7 22 15s8 15 2 15c-5 0-15-7-22-15z"/>
  <path d="m8640 2405c-20-24-6-28 15-5 10 11 13 20 8 20-6 0-16-7-23-15z"/>
  <path d="m1740 2393c0-5 9-18 20-28s20-14 20-8c0 5-9 18-20 28s-20 14-20 8z"/>
  <path d="m8780 2355c-20-24-6-28 15-5 10 11 13 20 8 20-6 0-16-7-23-15z"/>
  <path d="m8965 2320c-10-11-13-20-8-20 13 0 38 29 31 35-3 3-13-4-23-15z"/>
  <path d="m2050 2292c0-5 7-15 15-22s15-8 15-2c0 5-7 15-15 22s-15 8-15 2z"/>
  <path d="m8655 2220c-10-11-13-20-8-20 13 0 38 29 31 35-3 3-13-4-23-15z"/>
  <path d="m8710 2045c-7-9-11-18-8-20 3-3 11 1 18 10s11 18 8 20c-3 3-11-1-18-10z"/>
  <path d="m2110 1993c0-5 9-18 20-28s20-14 20-8c0 5-9 18-20 28s-20 14-20 8z"/>
  <path d="m1570 1972c0-5 7-15 15-22s15-8 15-2c0 5-7 15-15 22s-15 8-15 2z"/>
  <path d="m9170 1965c-7-9-11-18-8-20 3-3 11 1 18 10s11 18 8 20c-3 3-11-1-18-10z"/>
  <path d="m7375 1920c-27-30-12-34 15-5 13 14 19 25 13 25-5 0-18-9-28-20z"/>
  <path d="m7490 1825c-7-8-8-15-2-15 5 0 15 7 22 15s8 15 2 15c-5 0-15-7-22-15z"/>
  <path d="m1710 1824c0-13 108-119 114-113 3 3-21 32-54 64-33 33-60 55-60 49z"/>
  <path d="m8985 1770c-33-33-55-60-49-60 13 0 119 108 113 114-3 3-32-21-64-54z"/>
  <path d="m7855 1690c10-11 20-18 23-15 7 6-18 35-31 35-5 0-2-9 8-20z"/>
  <path d="m7360 1633c0-12 38-48 44-42 3 2-6 15-20 28-13 13-24 19-24 14z"/>
  <path d="m1950 1585c7-8 17-15 22-15 6 0 5 7-2 15s-17 15-22 15c-6 0-5-7 2-15z"/>
  <path d="m8790 1585c-7-8-8-15-2-15 5 0 15 7 22 15s8 15 2 15c-5 0-15-7-22-15z"/>
  <path d="m7020 1573c0-5 9-18 20-28s20-14 20-8c0 5-9 18-20 28s-20 14-20 8z"/>
  <path d="m7160 1423c0-5 9-18 20-28s20-14 20-8c0 5-9 18-20 28s-20 14-20 8z"/>
  <path d="m7490 1391c0-4 11-6 25-3 14 2 25 6 25 8s-11 4-25 4-25-4-25-9z"/>
  <path d="m7855 1380c-10-11-13-20-8-20 13 0 38 29 31 35-3 3-13-4-23-15z"/>
  <path d="m5990 1375c-20-24-6-28 15-5 10 11 13 20 8 20-6 0-16-7-23-15z"/>
  <path d="m7040 1332c0-5 7-15 15-22s15-8 15-2c0 5-7 15-15 22s-15 8-15 2z"/>
  <path d="m7290 1283c0-5 9-18 20-28s20-14 20-8c0 5-9 18-20 28s-20 14-20 8z"/>
  <path d="m7220 1122c0-5 7-15 15-22s15-8 15-2c0 5-7 15-15 22s-15 8-15 2z"/>
  <path d="m4291 1054c-13-13-19-24-14-24 12 0 48 38 42 44-2 3-15-6-28-20z"/>
  <path d="m6110 983c0-12 38-48 44-42 3 2-6 15-20 28-13 13-24 19-24 14z"/>
 </g>
 <g transform="translate(0 1074) scale(.1 -.1)" fill="#d7afad">
  <path d="m5328 10473c28-2 76-2 105 0 28 2 5 3-53 3s-81-1-52-3z"/>
  <path d="m3030 9465c-14-8-20-14-15-14 6 0 21 6 35 14s21 14 15 14c-5 0-21-6-35-14z"/>
  <path d="m3011 9355c0-5 6-21 14-35s14-20 14-15c0 6-6 21-14 35s-14 21-14 15z"/>
  <path d="m3230 9297c0-14 24-57 32-57 5 0 1 12-9 28-22 35-23 36-23 29z"/>
  <path d="m3680 9006c-17-10-30-11-43-4-10 5-21 8-23 5-17-17 46-23 76-6 19 10 31 18 25 18-5 0-21-6-35-13z"/>
  <path d="m3261 8875c0-5 6-21 14-35s14-20 14-15c0 6-6 21-14 35s-14 21-14 15z"/>
  <path d="m8590 7056c0-10 70-146 75-146 3 0-11 33-31 73-38 74-44 85-44 73z"/>
  <path d="m2122 6975c-17-36-30-65-27-65 7 0 67 121 63 126-2 2-18-26-36-61z"/>
  <path d="m9003 5375c0-22 2-30 4-17 2 12 2 30 0 40-3 9-5-1-4-23z"/>
  <path d="m1752 5370c0-19 2-27 5-17 2 9 2 25 0 35-3 9-5 1-5-18z"/>
  <path d="m2440 2500c-11-22-18-40-15-40 2 0 14 18 25 40s18 40 15 40c-2 0-14-18-25-40z"/>
  <path d="m8355 2450c9-16 18-30 21-30 2 0-2 14-11 30-9 17-18 30-21 30-2 0 2-13 11-30z"/>
  <path d="m2270 2150c-11-22-18-40-15-40 2 0 14 18 25 40s18 40 15 40c-2 0-14-18-25-40z"/>
  <path d="m8510 2130c11-22 23-40 25-40 3 0-4 18-15 40s-23 40-25 40c-3 0 4-18 15-40z"/>
  <path d="m3721 2156c10-9 89-46 89-41s-75 45-86 45c-4 0-5-2-3-4z"/>
  <path d="m6988 2139c-21-11-38-22-38-24 0-5 79 32 89 41 12 11-18 1-51-17z"/>
  <path d="m3710 1755c0-7 161-87 166-83 2 2-35 23-81 46-47 23-85 40-85 37z"/>
  <path d="m6804 1545c0-55 1-76 3-47s2 74 0 100-3 2-3-53z"/>
  <path d="m3641 1626c10-9 169-86 169-81s-156 85-166 85c-4 0-5-2-3-4z"/>
  <path d="m6442 1350c0-19 2-27 5-17 2 9 2 25 0 35-3 9-5 1-5-18z"/>
  <path d="m6952 990c0-19 2-27 5-17 2 9 2 25 0 35-3 9-5 1-5-18z"/>
  <path d="m5775 690c-40-7-40-7-3-9 20 0 40 4 43 9 3 6 5 9 3 9-2-1-21-5-43-9z"/>
  <path d="m5238 673c12-2 32-2 45 0 12 2 2 4-23 4s-35-2-22-4z"/>
 </g>
 <g transform="translate(0 1074) scale(.1 -.1)" fill="#e9d9da">
  <path d="m8379 8514c-22-25-22-26-3-16 12 6 24 18 28 27 8 21 3 19-25-11z"/>
  <path d="m2019 8331c24-22 51-15 51 13 0 6-5 3-11-6-9-17-12-17-37-2-27 16-27 16-3-5z"/>
  <path d="m7882 7975c15-16 29-27 31-24 3 2-10 15-27 28-31 24-31 24-4-4z"/>
  <path d="m2776 7881c-30-36-30-36 4-4 19 18 32 34 29 36-2 2-17-12-33-32z"/>
  <path d="m7950 7914c0-6 15-23 33-40 32-29 32-29 2 6-16 19-31 37-32 39-2 2-3 0-3-5z"/>
  <path d="m1535 7880c-26-28-15-31 12-3 12 13 19 23 14 23-4 0-16-9-26-20z"/>
  <path d="m1843 7867c12-13 24-22 26-20 6 4-30 43-40 43-5 0 2-10 14-23z"/>
  <path d="m2959 7783c-34-38-34-38 4-4 20 19 37 36 37 38 0 8-8 0-41-34z"/>
  <path d="m1322 7710c0-19 2-27 5-17 2 9 2 25 0 35-3 9-5 1-5-18z"/>
  <path d="m1710 1821c0-9 109-116 112-110 2 2-23 29-54 60-32 31-58 53-58 50z"/>
  <path d="m8989 1768c-31-32-53-58-50-58 9 0 116 109 110 112-2 2-29-23-60-54z"/>
  <path d="m5668 683c12-2 30-2 40 0 9 3-1 5-23 4-22 0-30-2-17-4z"/>
  <path d="m5163 673c9-2 25-2 35 0 9 3 1 5-18 5s-27-2-17-5z"/>
 </g>
 <g transform="translate(0 1074) scale(.1 -.1)" fill="#902828">
  <path d="m5293 1753c9-2 25-2 35 0 9 3 1 5-18 5s-27-2-17-5z"/>
  <path d="m5433 1753c9-2 25-2 35 0 9 3 1 5-18 5s-27-2-17-5z"/>
  <path d="m5463 973c9-2 25-2 35 0 9 3 1 5-18 5s-27-2-17-5z"/>
  <path d="m5543 833c9-2 25-2 35 0 9 3 1 5-18 5s-27-2-17-5z"/>
 </g>
 <g transform="translate(0 1074) scale(.1 -.1)" fill="#e3c6c2">
  <path d="m4754 7888c-29-33-29-33 4-4 30 28 37 36 29 36-2 0-16-15-33-32z"/>
  <path d="m7780 7785c30-30 57-55 59-55 3 0-19 25-49 55s-57 55-59 55c-3 0 19-25 49-55z"/>
  <path d="m3600 7275c19-19 36-35 39-35s-10 16-29 35-36 35-39 35 10-16 29-35z"/>
 </g>
 <g transform="translate(0 1074) scale(.1 -.1)" fill="#ebac7c">
  <path d="m4824 7958c-29-33-29-33 4-4 17 17 32 31 32 33 0 8-8 1-36-29z"/>
  <path d="m3285 7258c-40-43-40-43 3-3 23 21 42 40 42 42 0 8-9 0-45-39z"/>
  <path d="m8793 5525c0-22 2-30 4-17 2 12 2 30 0 40-3 9-5-1-4-23z"/>
  <path d="m8793 5215c0-22 2-30 4-17 2 12 2 30 0 40-3 9-5-1-4-23z"/>
 </g>
 <g transform="translate(0 1074) scale(.1 -.1)" fill="#88b0d8">
  <path d="m5188 1963c12-2 32-2 45 0 12 2 2 4-23 4s-35-2-22-4z"/>
  <path d="m5528 1963c12-2 32-2 45 0 12 2 2 4-23 4s-35-2-22-4z"/>
 </g>
 <g transform="translate(0 1074) scale(.1 -.1)" fill="#474875">
  <path d="m3423 4383c48-2 125-2 170 0 45 1 6 3-88 3-93 0-130-2-82-3z"/>
  <path d="m3213 4373c9-2 25-2 35 0 9 3 1 5-18 5s-27-2-17-5z"/>
  <path d="m3773 4373c9-2 25-2 35 0 9 3 1 5-18 5s-27-2-17-5z"/>
  <path d="m6163 3803c15-2 37-2 50 0 12 2 0 4-28 4-27 0-38-2-22-4z"/>
  <path d="m6528 3803c12-2 32-2 45 0 12 2 2 4-23 4s-35-2-22-4z"/>
 </g>
</svg>
