<svg xmlns="http://www.w3.org/2000/svg" xmlns:xlink="http://www.w3.org/1999/xlink" version="1.0" width="900" height="600" viewBox="0 0 27 18">
  <defs>
    <g id="c">
      <g id="b">
        <path d="M0 0v1h.5L0 0z" transform="rotate(18.000003 3.15687565 -.50000014)" id="a"/>
        <use transform="scale(-1 1)" width="27" height="18" xlink:href="#a"/>
      </g>
      <use transform="rotate(72)" width="27" height="18" xlink:href="#b"/>
      <use transform="rotate(144)" width="27" height="18" xlink:href="#b"/>
      <use transform="rotate(-144)" width="27" height="18" xlink:href="#b"/>
      <use transform="rotate(-72)" width="27" height="18" xlink:href="#b"/>
    </g>
  </defs>
  <path d="M.642857.42857143V17.571429h25.714286V.42857143H.642857z" style="fill:#fff" transform="matrix(1.05 0 0 1.05 -.675 -.4500002)"/>
  <path d="M3.5726419 6.1428771c-.154287-.0000013-.302484.0156885-.4455206.0422315-.1430367.026543-.2798488.064299-.4148532.1098016-.1350043.0455-.2685211.0993784-.3987061.1562564-.1301849.0568769-.257219.1167028-.3857975.1773719-.1285785.0606709-.2588358.1219013-.3890208.1787797-.1301901.0568766-.26209.1107535-.3970944.1562563-.1350043.0455009-.27181658.0832592-.4148532.1098017-.02786764.0051722-.05565263.0083891-.08393866.0126694v1.2179508c.02820339-.0043618.05620016-.0089291.08393866-.014077.14303662-.0265438.2798489-.064299.4148532-.1098017.1350044-.0455005.2669094-.0979707.3970944-.1548486.130185-.0568775.2604423-.1209237.3890208-.1815951.1285837-.0606704.2556126-.120494.3857975-.177372.130185-.0568798.2637018-.1107545.3987061-.1562562.1350044-.0455051.2718114-.0832566.4148532-.1098017.1430366-.0265421.2912388-.0422315.4455206-.0422315.1542818-9e-7 .3008671.0156894.4439037.0422315.1430367.0265451.2830773.0642984.4180817.1098017.1349991.0455009.2652926.0993774.3954776.1562562.130185.0568766.2588306.1167016.3874092.177372.1285836.0606714.2572242.1247167.3874091.1815951.130185.0568788.26209.1093476.3970944.1548486.1350043.0455032.2718114.0832592.4148532.1098017.1430315.026542.2928504.0422314.4471327.0422314.1542828 8e-7 .3008687-.015688.4439064-.0422314.1430381-.0265438.2830741-.064299.418079-.1098017.1350054-.0455005.2652953-.0979707.3954802-.1548486.0758584-.0331419.1508143-.0706109.2259887-.1055786.0065529.0101942.0127922.0207914.0193705.0309698.0698984-.0355398.1420805-.0706336.2114608-.1069863.1157945-.0606704.2304723-.120494.3486683-.177372.0886495-.0426612.1787868-.0828628.2711864-.1196557.0308027-.0122662.0638843-.0252258.0952381-.0366005.0005383-.000196.0010785.0001937.0016142 0 .1350043-.0455051.2718135-.0832566.4148507-.1098017.1375394-.0255219.2798896-.0411143.4277642-.0422315.148427.001023.289753.0166219.427764.0422315.143038.0265451.283076.0642984.41808.1098017.135004.0455009.265295.0993774.395479.1562562.130185.0568766.258832.1167016.38741.177372.12858.060669.258838.1219003.389023.1787796.130186.0568772.260476.1107541.39548.1562564.135003.0454982.275043.0832587.418079.1098017.11773.0218458.238064.0350955.363197.039416.026901.0009271.055027.0028154.082324.0028154.011211.0001589.022617.0014077.033899.0014077.154279 8e-7 .300867-.015688.443906-.0422314.143035-.0265438.28146-.064299.416464-.1098017.135006-.0455005.265295-.0979707.395481-.1548486.130185-.0568775.260444-.1209237.389023-.1815951.128574-.0606704.257225-.120494.387409-.177372.130187-.0568798.260476-.1107545.395481-.1562562.135005-.0455051.273427-.0832566.416464-.1098017.137543-.0255219.27989-.0411143.427764-.0422315.147876.0011154.290223.0167096.427765.0422315.143033.0265451.283074.0642984.418079.1098017.135004.0455009.265294.0993774.39548.1562562.130184.0568766.260445.1167016.389024.177372.050041.0236118.099928.0469992.150121.0703856.065163.0367128.130911.0764617.196932.1112095.046425.0244325.092997.0406142.140436.0633472.003801-.0059612.009005-.0110199.012914-.0168926.092887.0384998.186841.0747489.282486.1069863.135002.0454982.275043.0832587.418079.1098017.143036.026543.289625.0422314.443907.0422314.154281-.0000023.302482-.0156877.44552-.0422314.143034-.0265435.281461-.0643004.416465-.1098017.135004-.045505.266909-.0993792.397095-.1562564.130183-.0568806.257215-.11811.385794-.1787796.128576-.0606704.258838-.120494.389023-.177372.130185-.0568798.260477-.1107545.395481-.1562562.135004-.0455051.273426-.0832566.416464-.1098017.143038-.0265421.289624-.0422315.443907-.0422315.154283-9e-7 .304098.0156894.447134.0422315.143037.0265451.279845.0642984.414852.1098017.135002.0455009.268523.0993774.398708.1562562.130185.0568766.258832.1167016.387409.177372.128576.060669.257223.1219003.387409.1787796.130184.0568772.262091.1107541.397095.1562564.135004.0454982.273428.0832587.416464.1098017.072742.0134973.145899.0237811.221146.0309696.000202-.4846888.00165-.7304421.001615-1.2151354-.07602-.0071178-.149205-.0173201-.222761-.0309697-.143034-.0265438-.28146-.064299-.416464-.1098017-.135004-.045504-.26691-.0993779-.397095-.1562563-.130187-.0568802-.258829-.1181093-.387409-.1787797-.12858-.0606682-.257224-.1204932-.387409-.1773719-.130185-.0568794-.263706-.1107559-.398708-.1562564-.135007-.0455031-.271814-.0832591-.414852-.1098016-.143037-.0265425-.292852-.0422315-.447134-.0422315-.154283-.0000013-.30087.0156885-.443907.0422315-.143036.026543-.281459.064299-.416464.1098016-.135005.0455-.265295.0993784-.395481.1562564-.130186.0568769-.260445.1167028-.389023.1773719-.128581.0606709-.25561.1219013-.385794.1787797-.130187.0568766-.262091.1107535-.397095.1562563-.135005.0455009-.273429.0832592-.416465.1098017-.143039.026542-.291239.0422314-.44552.0422314-.143997-.0000018-.283897-.0156885-.421308-.0422314-.137412-.0265438-.273703-.064299-.40678-.1098017-.266151-.0910055-.523817-.213696-.786118-.335036-.131152-.0606682-.265147-.1204932-.398708-.1773719-.133559-.0568794-.266948-.1107559-.405166-.1562564-.034555-.0113761-.070073-.0220095-.104923-.0323774-.095967-.0311071-.195546-.0575172-.298628-.0774242-.137442-.0265425-.281554-.0422315-.435835-.0422315-.005927-.0000013-.011847-.0000437-.017757 0-.005913-.000045-.011827 0-.017756 0-.154279-.0000013-.300869.0156885-.443906.0422315-.14304.026543-.281461.064299-.416465.1098016-.135005.0455-.265294.0993784-.39548.1562564-.130186.0568769-.258831.1167028-.38741.1773719-.128577.0606709-.258838.1219013-.389022.1787797-.130188.0568766-.260477.1107535-.395481.1562563-.135003.0455009-.273426.0832592-.416464.1098017-.107281.0199057-.217559.0339063-.330912.039416-.026574.0012919-.052142.002423-.079096.0028154-.038573-.0000018-.07844-.0009793-.116223-.0028154-.113354-.0055093-.222021-.0195085-.329298-.039416-.143037-.0265438-.28146-.064299-.416465-.1098017-.135006-.045504-.268523-.0993779-.398708-.1562563-.130185-.0568802-.257217-.1181093-.385796-.1787797-.128578-.0606682-.258837-.1204932-.389023-.1773719-.130184-.0568794-.260477-.1107559-.39548-.1562564-.135005-.0455031-.275042-.0832591-.418079-.1098016-.143038-.0265425-.289625-.0422315-.443907-.0422315-.005929-.0000013-.011848-.0000437-.017756 0-.005401-.0000378-.010722 0-.016142 0-.1542787-.0000013-.2983934.0156885-.4358354.0422315-.1368546.0264294-.2657193.0645588-.3906375.1098016-.0005351.0001933-.0010775-.0001954-.0016142 0-.0313518.0113748-.064437.0243353-.0952381.0366006-.1014811.0372029-.2012286.0763968-.3002422.1196558-.1301854.0568769-.2588301.1167028-.3874091.1773719-.1285796.0606709-.2588379.1219013-.3890234.1787797-.1301845.0568766-.2604753.1107535-.3954802.1562563-.1350043.0455009-.2750429.0832592-.418079.1098017-.1430351.026542-.289624.0422314-.4439064.0422314-.1439979-.0000018-.2855107-.0156885-.4229222-.0422314-.1374114-.0265438-.2720903-.064299-.4051628-.1098017-.2661553-.0910055-.5254302-.213696-.787732-.335036-.1311509-.0606682-.2635364-.1204932-.3970944-.1773719-.1335632-.0568794-.2685623-.1107559-.4067796-.1562564-.1382224-.0455031-.2794098-.0832591-.4245385-.1098016-.1451235-.0265425-.2928503-.0422315-.4471321-.0422315z" style="fill:#fc0;fill-opacity:1;fill-rule:evenodd;stroke:none;stroke-width:1.85137916;stroke-linecap:butt;stroke-linejoin:miter;marker:none;stroke-miterlimit:4;stroke-dasharray:none;stroke-dashoffset:0;stroke-opacity:1;visibility:visible;display:inline;overflow:visible" transform="matrix(1.05 0 0 1.05 -.675 -.4500002)"/>
  <path d="M3.5726419 7.9053715c-.154287-.0000013-.302484.0156885-.4455206.0422315-.1430367.026543-.2798488.064299-.4148532.1098016-.1350043.0455001-.2685211.0993785-.3987061.1562564-.1301849.056877-.257219.1167029-.3857975.1773719-.1285785.060671-.2588358.1219013-.3890208.1787797-.1301901.0568766-.26209.1107535-.3970944.1562563-.1350043.0455009-.27181658.0832592-.4148532.1098017-.02786764.0051723-.05565263.0083891-.08393866.0126695v1.2179519c.02820339-.004362.05620016-.00893.08393866-.014077.14303662-.026544.2798489-.0642991.4148532-.1098021.1350044-.045501.2669094-.097971.3970944-.154849.130185-.056877.2604423-.120924.3890208-.181595.1285837-.0606709.2556126-.1204945.3857975-.1773724.130185-.0568798.2637018-.1107546.3987061-.1562563.1350044-.0455051.2718114-.0832565.4148532-.1098017.1430366-.026542.2912388-.0422315.4455206-.0422315.1542818-8e-7 .3008671.0156895.4439037.0422315.1430367.0265452.2830773.0642984.4180817.1098017.1349991.0455009.2652926.0993774.3954776.1562563.130185.0568766.2588306.1167015.3874092.1773724.1285836.060671.2572242.124717.3874091.181595.130185.056879.26209.109348.3970944.154849.1350043.045503.2718114.0832591.4148532.1098021.1430315.026542.2928504.042231.4471327.042231.1542828.000001.3008687-.015688.4439064-.042231.1430381-.026544.2830741-.0642991.418079-.1098021.1350054-.045501.2652953-.097971.3954802-.154849.0758584-.033142.1508143-.070611.2259887-.105579.0065529.010195.0127922.020792.0193705.03097.0698984-.03554.1420805-.070634.2114608-.106986.1157945-.0606709.2304723-.1204945.3486683-.1773724.0886495-.0426613.1787868-.0828629.2711864-.1196557.0308027-.0122663.0638843-.0252259.0952381-.0366006.0005383-.000196.0010785.0001937.0016142 0 .1350043-.0455051.2718135-.0832565.4148507-.1098017.1375394-.0255218.2798896-.0411143.4277642-.0422315.148427.0010231.289753.0166219.427764.0422315.143038.0265452.283076.0642984.41808.1098017.135004.0455009.265295.0993774.395479.1562563.130185.0568766.258832.1167015.38741.1773724.12858.060668.258838.1219.389023.178779.130186.056878.260476.110755.39548.156257.135003.045499.275043.0832591.418079.1098021.11773.021846.238064.035096.363197.039416.026901.000927.055027.002816.082324.002816.011211.000158.022617.001407.033899.001407.154279.000001.300867-.015688.443906-.042231.143035-.026544.28146-.0642991.416464-.1098021.135006-.045501.265295-.097971.395481-.154849.130185-.056877.260444-.120924.389023-.181595.128574-.0606709.257225-.1204945.387409-.1773724.130187-.0568798.260476-.1107546.395481-.1562563.135005-.0455051.273427-.0832565.416464-.1098017.137543-.0255218.27989-.0411143.427764-.0422315.147876.0011154.290223.0167097.427765.0422315.143033.0265452.283074.0642984.418079.1098017.135004.0455009.265294.0993774.39548.1562563.130184.0568766.260445.1167015.389024.1773724.050041.023611.099928.046999.150121.070385.065163.036713.130911.076462.196932.11121.046425.024432.092997.040614.140436.063347.003801-.005961.009005-.01102.012914-.016892.092887.0385.186841.074748.282486.106986.135002.045499.275043.0832591.418079.1098021.143036.026543.289625.042232.443907.042232.154281-.000002.302482-.015688.44552-.042232.143034-.026543.281461-.0643001.416465-.1098021.135004-.045505.266909-.099379.397095-.156257.130183-.05688.257215-.11811.385794-.178779.128576-.0606709.258838-.1204945.389023-.1773724.130185-.0568798.260477-.1107546.395481-.1562563.135004-.0455051.273426-.0832565.416464-.1098017.143038-.026542.289624-.0422315.443907-.0422315.154283-8e-7 .304098.0156895.447134.0422315.143037.0265452.279845.0642984.414852.1098017.135002.0455009.268523.0993774.398708.1562563.130185.0568766.258832.1167015.387409.1773724.128576.060668.257223.1219.387409.178779.130184.056878.262091.110755.397095.156257.135004.045499.273428.0832591.416464.1098021.072742.013498.145899.023781.221146.030969.000202-.4846891.00165-.7304423.001615-1.2151357-.07602-.0071178-.149205-.0173201-.222761-.0309697-.143034-.0265438-.28146-.064299-.416464-.1098017-.135004-.045504-.26691-.0993779-.397095-.1562563-.130187-.0568802-.258829-.1181092-.387409-.1787797-.12858-.0606682-.257224-.1204931-.387409-.1773719-.130185-.0568794-.263706-.1107559-.398708-.1562564-.135007-.0455031-.271814-.0832591-.414852-.1098016-.143037-.0265425-.292852-.0422315-.447134-.0422315-.154283-.0000013-.30087.0156885-.443907.0422315-.143036.026543-.281459.064299-.416464.1098016-.135005.0455001-.265295.0993785-.395481.1562564-.130186.056877-.260445.1167029-.389023.1773719-.128581.060671-.25561.1219013-.385794.1787797-.130187.0568766-.262091.1107535-.397095.1562563-.135005.0455009-.273429.0832592-.416465.1098017-.143039.0265421-.291239.0422314-.44552.0422314-.143997-.0000018-.283897-.0156885-.421308-.0422314-.137412-.0265438-.273703-.064299-.40678-.1098017-.266151-.0910055-.523817-.213696-.786118-.335036-.131152-.0606682-.265147-.1204931-.398708-.1773719-.133559-.0568794-.266948-.1107559-.405166-.1562564-.034555-.0113761-.070073-.0220094-.104923-.0323774-.095967-.031107-.195546-.0575172-.298628-.0774242-.137442-.0265425-.281554-.0422315-.435835-.0422315-.005927-.0000013-.011847-.0000436-.017757 0-.005913-.000045-.011827 0-.017756 0-.154279-.0000013-.300869.0156885-.443906.0422315-.14304.026543-.281461.064299-.416465.1098016-.135005.0455001-.265294.0993785-.39548.1562564-.130186.056877-.258831.1167029-.38741.1773719-.128577.060671-.258838.1219013-.389022.1787797-.130188.0568766-.260477.1107535-.395481.1562563-.135003.0455009-.273426.0832592-.416464.1098017-.107281.0199057-.217559.0339064-.330912.039416-.026574.0012919-.052142.0024231-.079096.0028154-.038573-.0000018-.07844-.0009793-.116223-.0028154-.113354-.0055092-.222021-.0195084-.329298-.039416-.143037-.0265438-.28146-.064299-.416465-.1098017-.135006-.045504-.268523-.0993779-.398708-.1562563-.130185-.0568802-.257217-.1181092-.385796-.1787797-.128578-.0606682-.258837-.1204931-.389023-.1773719-.130184-.0568794-.260477-.1107559-.39548-.1562564-.135005-.0455031-.275042-.0832591-.418079-.1098016-.143038-.0265425-.289625-.0422315-.443907-.0422315-.005929-.0000013-.011848-.0000436-.017756 0-.005401-.0000377-.010722 0-.016142 0-.1542787-.0000013-.2983934.0156885-.4358354.0422315-.1368546.0264294-.2657193.0645588-.3906375.1098016-.0005351.0001933-.0010775-.0001954-.0016142 0-.0313518.0113749-.064437.0243353-.0952381.0366007-.1014811.0372028-.2012286.0763967-.3002422.1196557-.1301854.056877-.2588301.1167029-.3874091.1773719-.1285796.060671-.2588379.1219013-.3890234.1787797-.1301845.0568766-.2604753.1107535-.3954802.1562563-.1350043.0455009-.2750429.0832592-.418079.1098017-.1430351.0265421-.289624.0422314-.4439064.0422314-.1439979-.0000018-.2855107-.0156885-.4229222-.0422314-.1374114-.0265438-.2720903-.064299-.4051628-.1098017-.2661553-.0910055-.5254302-.213696-.787732-.335036-.1311509-.0606682-.2635364-.1204931-.3970944-.1773719-.1335632-.0568794-.2685623-.1107559-.4067796-.1562564-.1382224-.0455031-.2794098-.0832591-.4245385-.1098016-.1451235-.0265425-.2928503-.0422315-.4471321-.0422315z" style="fill:#008f4c;fill-opacity:1;fill-rule:evenodd;stroke:none;stroke-width:1.85137916;stroke-linecap:butt;stroke-linejoin:miter;marker:none;stroke-miterlimit:4;stroke-dasharray:none;stroke-dashoffset:0;stroke-opacity:1;visibility:visible;display:inline;overflow:visible" transform="matrix(1.05 0 0 1.05 -.675 -.4500002)"/>
  <path d="M3.5726419 9.6678659c-.154287-.000002-.302484.015689-.4455206.042231-.1430367.026544-.2798488.064299-.4148532.109803-.1350043.045499-.2685211.099378-.3987061.156256-.1301849.0568771-.257219.1167031-.3857975.1773721-.1285785.060671-.2588358.121902-.3890208.17878-.1301901.056877-.26209.110753-.3970944.156257-.1350043.0455-.27181658.083259-.4148532.109801-.02786764.005172-.05565263.00839-.08393866.01267v1.217953c.02820339-.004362.05620016-.008929.08393866-.014077.14303662-.026544.2798489-.064299.4148532-.109802.1350044-.045501.2669094-.097971.3970944-.154849.130185-.056877.2604423-.120924.3890208-.181596.1285837-.060669.2556126-.120494.3857975-.177371.130185-.056881.2637018-.110756.3987061-.156257.1350044-.045505.2718114-.083257.4148532-.109802.1430366-.026542.2912388-.042231.4455206-.042231.1542818-.000001.3008671.015689.4439037.042231.1430367.026545.2830773.064299.4180817.109802.1349991.045501.2652926.099377.3954776.156257.130185.056876.2588306.116702.3874092.177371.1285836.060672.2572242.124718.3874091.181596.130185.056879.26209.109348.3970944.154849.1350043.045503.2718114.083259.4148532.109802.1430315.026542.2928504.042231.4471327.042231.1542828.000001.3008687-.015687.4439064-.042231.1430381-.026544.2830741-.064299.418079-.109802.1350054-.045501.2652953-.097971.3954802-.154849.0758584-.033142.1508143-.070611.2259887-.105579.0065529.010195.0127922.020792.0193705.03097.0698984-.035539.1420805-.070634.2114608-.106987.1157945-.060669.2304723-.120494.3486683-.177371.0886495-.042662.1787868-.082863.2711864-.119657.0308027-.012266.0638843-.025226.0952381-.0366.0005383-.000196.0010785.000194.0016142 0 .1350043-.045505.2718135-.083257.4148507-.109802.1375394-.025522.2798896-.041114.4277642-.042231.148427.001023.289753.016621.427764.042231.143038.026545.283076.064299.41808.109802.135004.045501.265295.099377.395479.156257.130185.056876.258832.116702.38741.177371.12858.060669.258838.121901.389023.178781.130186.056877.260476.110754.39548.156256.135003.045499.275043.083259.418079.109803.11773.021845.238064.035095.363197.039415.026901.000927.055027.002816.082324.002816.011211.000158.022617.001407.033899.001407.154279.000001.300867-.015687.443906-.042231.143035-.026544.28146-.064299.416464-.109802.135006-.045501.265295-.097971.395481-.154849.130185-.056877.260444-.120924.389023-.181596.128574-.060669.257225-.120494.387409-.177371.130187-.056881.260476-.110756.395481-.156257.135005-.045505.273427-.083257.416464-.109802.137543-.025522.27989-.041114.427764-.042231.147876.001115.290223.016709.427765.042231.143033.026545.283074.064299.418079.109802.135004.045501.265294.099377.39548.156257.130184.056876.260445.116702.389024.177371.050041.023612.099928.047.150121.070387.065163.036712.130911.076461.196932.111209.046425.024432.092997.040614.140436.063347.003801-.00596.009005-.01102.012914-.016892.092887.0385.186841.074748.282486.106986.135002.045499.275043.083259.418079.109803.143036.026542.289625.042231.443907.042231.154281-.000002.302482-.015688.44552-.042231.143034-.026544.281461-.064301.416465-.109803.135004-.045505.266909-.099379.397095-.156256.130183-.056881.257215-.118111.385794-.178781.128576-.060669.258838-.120494.389023-.177371.130185-.056881.260477-.110756.395481-.156257.135004-.045505.273426-.083257.416464-.109802.143038-.026542.289624-.042231.443907-.042231.154283-.000001.304098.015689.447134.042231.143037.026545.279845.064299.414852.109802.135002.045501.268523.099377.398708.156257.130185.056876.258832.116702.387409.177371.128576.060669.257223.121901.387409.178781.130184.056877.262091.110754.397095.156256.135004.045499.273428.083259.416464.109803.072742.013497.145899.02378.221146.030968.000202-.484689.00165-.730442.001615-1.215137-.07602-.007118-.149205-.01732-.222761-.03097-.143034-.026543-.28146-.064299-.416464-.109801-.135004-.045505-.26691-.099378-.397095-.156257-.130187-.05688-.258829-.118109-.387409-.17878-.12858-.060668-.257224-.120493-.387409-.1773721-.130185-.056879-.263706-.110756-.398708-.156256-.135007-.045504-.271814-.08326-.414852-.109803-.143037-.026542-.292852-.042231-.447134-.042231-.154283-.000002-.30087.015689-.443907.042231-.143036.026544-.281459.064299-.416464.109803-.135005.045499-.265295.099378-.395481.156256-.130186.0568771-.260445.1167031-.389023.1773721-.128581.060671-.25561.121902-.385794.17878-.130187.056877-.262091.110753-.397095.156257-.135005.0455-.273429.083259-.416465.109801-.143039.026543-.291239.042232-.44552.042232-.143997-.000002-.283897-.015688-.421308-.042232-.137412-.026543-.273703-.064299-.40678-.109801-.266151-.091006-.523817-.213697-.786118-.335037-.131152-.060668-.265147-.120493-.398708-.1773721-.133559-.056879-.266948-.110756-.405166-.156256-.034555-.011376-.070073-.02201-.104923-.032379-.095967-.031106-.195546-.057517-.298628-.077424-.137442-.026542-.281554-.042231-.435835-.042231-.005927-.000002-.011847-.000043-.017757 0-.005913-.000045-.011827 0-.017756 0-.154279-.000002-.300869.015689-.443906.042231-.14304.026544-.281461.064299-.416465.109803-.135005.045499-.265294.099378-.39548.156256-.130186.0568771-.258831.1167031-.38741.1773721-.128577.060671-.258838.121902-.389022.17878-.130188.056877-.260477.110753-.395481.156257-.135003.0455-.273426.083259-.416464.109801-.107281.019906-.217559.033907-.330912.039416-.026574.001292-.052142.002423-.079096.002816-.038573-.000002-.07844-.000979-.116223-.002816-.113354-.005509-.222021-.019508-.329298-.039416-.143037-.026543-.28146-.064299-.416465-.109801-.135006-.045505-.268523-.099378-.398708-.156257-.130185-.05688-.257217-.118109-.385796-.17878-.128578-.060668-.258837-.120493-.389023-.1773721-.130184-.056879-.260477-.110756-.39548-.156256-.135005-.045504-.275042-.08326-.418079-.109803-.143038-.026542-.289625-.042231-.443907-.042231-.005929-.000002-.011848-.000043-.017756 0-.005401-.000038-.010722 0-.016142 0-.1542787-.000002-.2983934.015689-.4358354.042231-.1368546.02643-.2657193.064559-.3906375.109803-.0005351.000192-.0010775-.000196-.0016142 0-.0313518.011374-.064437.024335-.0952381.0366-.1014811.037203-.2012286.076396-.3002422.119656-.1301854.0568771-.2588301.1167031-.3874091.1773721-.1285796.060671-.2588379.121902-.3890234.17878-.1301845.056877-.2604753.110753-.3954802.156257-.1350043.0455-.2750429.083259-.418079.109801-.1430351.026543-.289624.042232-.4439064.042232-.1439979-.000002-.2855107-.015688-.4229222-.042232-.1374114-.026543-.2720903-.064299-.4051628-.109801-.2661553-.091006-.5254302-.213697-.787732-.335037-.1311509-.060668-.2635364-.120493-.3970944-.1773721-.1335632-.056879-.2685623-.110756-.4067796-.156256-.1382224-.045504-.2794098-.08326-.4245385-.109803-.1451235-.026542-.2928503-.042231-.4471321-.042231z" style="fill:#0071bc;fill-opacity:1;fill-rule:evenodd;stroke:none;stroke-width:1.85137916;stroke-linecap:butt;stroke-linejoin:miter;marker:none;stroke-miterlimit:4;stroke-dasharray:none;stroke-dashoffset:0;stroke-opacity:1;visibility:visible;display:inline;overflow:visible" transform="matrix(1.05 0 0 1.05 -.675 -.4500002)"/>
  <path d="M15.088236 2.6636028a8.1893387 8.1893387 0 1 1-16.3786775 0 8.1893387 8.1893387 0 1 1 16.3786775 0z" transform="matrix(.60444 0 0 .60444 9.3300005 7.39000005)" style="fill:#fff;fill-opacity:1;stroke:none;stroke-width:1;stroke-miterlimit:4;stroke-dasharray:none;stroke-opacity:1"/>
  <g transform="matrix(.65175 0 0 .65175 13.5 9.06223624)" style="fill:#fc0">
    <use transform="translate(0 -6)" width="27" height="18" xlink:href="#c"/>
    <g id="d">
      <use transform="rotate(72 -5.07594518 .53350335)" width="27" height="18" xlink:href="#c"/>
      <use transform="rotate(72 -4.66264915 -2.07594512)" width="27" height="18" xlink:href="#c"/>
      <use transform="translate(6)" width="27" height="18" xlink:href="#c"/>
      <use transform="rotate(144 -2.11069658 -2.34416615)" width="27" height="18" xlink:href="#c"/>
      <use transform="rotate(-144 -2.34416615 -2.11069658)" width="27" height="18" xlink:href="#c"/>
    </g>
    <use transform="translate(0 6)" width="27" height="18" xlink:href="#c"/>
    <use transform="scale(-1 1)" width="27" height="18" xlink:href="#d"/>
  </g>
</svg>
