<?xml version="1.0" encoding="UTF-8" standalone="no"?>
<!-- Created with Inkscape (http://www.inkscape.org/) -->
<svg
   xmlns:svg="http://www.w3.org/2000/svg"
   xmlns="http://www.w3.org/2000/svg"
   xmlns:xlink="http://www.w3.org/1999/xlink"
   version="1.0"
   width="500.00003"
   height="600"
   id="svg5688">
  <defs
     id="defs5690">
    <linearGradient
       id="linearGradient4476">
      <stop
         style="stop-color:#403800;stop-opacity:1"
         offset="0"
         id="stop4478" />
      <stop
         style="stop-color:#c8af00;stop-opacity:1"
         offset="0.5"
         id="stop3321" />
      <stop
         style="stop-color:#403900;stop-opacity:1"
         offset="1"
         id="stop4480" />
    </linearGradient>
    <linearGradient
       id="linearGradient36935">
      <stop
         style="stop-color:#7b0916;stop-opacity:1"
         offset="0"
         id="stop36937" />
      <stop
         style="stop-color:#ce1126;stop-opacity:1"
         offset="1"
         id="stop36939" />
    </linearGradient>
    <linearGradient
       x1="135.04291"
       y1="343.1196"
       x2="416.24893"
       y2="343.1196"
       id="linearGradient4890"
       xlink:href="#linearGradient36935"
       gradientUnits="userSpaceOnUse" />
    <style
       type="text/css"
       id="style7827" />
    <linearGradient
       x1="-418.38882"
       y1="700.10571"
       x2="-136.18279"
       y2="700.10571"
       id="linearGradient8149"
       xlink:href="#linearGradient8135"
       gradientUnits="userSpaceOnUse" />
    <linearGradient
       x1="133.89697"
       y1="927.11957"
       x2="416.10303"
       y2="927.11957"
       id="linearGradient8551"
       xlink:href="#linearGradient36935"
       gradientUnits="userSpaceOnUse" />
    <linearGradient
       x1="133.79698"
       y1="343.1196"
       x2="416.20303"
       y2="343.1196"
       id="linearGradient8549"
       xlink:href="#linearGradient4476"
       gradientUnits="userSpaceOnUse"
       gradientTransform="translate(0,112)" />
    <linearGradient
       x1="133.89697"
       y1="773.11957"
       x2="416.10303"
       y2="773.11957"
       id="linearGradient8153"
       xlink:href="#linearGradient36935"
       gradientUnits="userSpaceOnUse"
       gradientTransform="translate(0,204)" />
    <linearGradient
       id="linearGradient8939">
      <stop
         style="stop-color:#3c030b;stop-opacity:1"
         offset="0"
         id="stop8941" />
      <stop
         style="stop-color:#ad1518;stop-opacity:1"
         offset="0.5"
         id="stop16346" />
      <stop
         style="stop-color:#3b040a;stop-opacity:1"
         offset="1"
         id="stop8944" />
    </linearGradient>
    <linearGradient
       x1="133.79698"
       y1="343.1196"
       x2="416.20303"
       y2="343.1196"
       id="linearGradient8937"
       xlink:href="#linearGradient4476"
       gradientUnits="userSpaceOnUse"
       gradientTransform="translate(563,278)" />
    <linearGradient
       id="linearGradient8929">
      <stop
         style="stop-color:#776201;stop-opacity:1"
         offset="0"
         id="stop8931" />
      <stop
         style="stop-color:#eac102;stop-opacity:1"
         offset="0.5"
         id="stop8933" />
      <stop
         style="stop-color:#776201;stop-opacity:1"
         offset="1"
         id="stop8935" />
    </linearGradient>
    <linearGradient
       x1="133.79698"
       y1="343.1196"
       x2="416.20303"
       y2="343.1196"
       id="linearGradient8927"
       xlink:href="#linearGradient4476"
       gradientUnits="userSpaceOnUse"
       gradientTransform="translate(0,1052.1168)" />
    <linearGradient
       x1="133.79698"
       y1="343.1196"
       x2="416.20303"
       y2="343.1196"
       id="linearGradient8925"
       xlink:href="#linearGradient4476"
       gradientUnits="userSpaceOnUse"
       gradientTransform="translate(0,869.35766)" />
    <linearGradient
       x1="133.79698"
       y1="343.1196"
       x2="416.20303"
       y2="343.1196"
       id="linearGradient8923"
       xlink:href="#linearGradient4476"
       gradientUnits="userSpaceOnUse"
       gradientTransform="translate(0,565.35766)" />
    <linearGradient
       x1="133.79698"
       y1="343.1196"
       x2="416.20303"
       y2="343.1196"
       id="linearGradient8921"
       xlink:href="#linearGradient4476"
       gradientUnits="userSpaceOnUse"
       gradientTransform="translate(0,259.35766)" />
    <linearGradient
       x1="133.79698"
       y1="343.1196"
       x2="416.20303"
       y2="343.1196"
       id="linearGradient8919"
       xlink:href="#linearGradient4476"
       gradientUnits="userSpaceOnUse" />
    <linearGradient
       id="linearGradient8135">
      <stop
         style="stop-color:#5d070b;stop-opacity:1"
         offset="0"
         id="stop8137" />
      <stop
         style="stop-color:#ed1c24;stop-opacity:1"
         offset="0.5"
         id="stop8139" />
      <stop
         style="stop-color:#5d070a;stop-opacity:1"
         offset="1"
         id="stop8141" />
    </linearGradient>
    <linearGradient
       x1="-418.38882"
       y1="700.10571"
       x2="-136.18279"
       y2="700.10571"
       id="linearGradient11110"
       xlink:href="#linearGradient8135"
       gradientUnits="userSpaceOnUse" />
    <linearGradient
       x1="135.04291"
       y1="343.1196"
       x2="416.24893"
       y2="343.1196"
       id="linearGradient36941"
       xlink:href="#linearGradient36935"
       gradientUnits="userSpaceOnUse" />
    <linearGradient
       id="linearGradient12281">
      <stop
         style="stop-color:#7b0916;stop-opacity:1"
         offset="0"
         id="stop12283" />
      <stop
         style="stop-color:#ce1126;stop-opacity:1"
         offset="1"
         id="stop12285" />
    </linearGradient>
    <g
       transform="matrix(0.6839411,0.7295372,-0.7295372,0.6839411,0,0)"
       id="star">
      <g
         id="cone">
        <path
           d="M 0,0 L 0,1 L 0.5,1 L 0,0 z "
           transform="matrix(0.9510565,0.309017,-0.309017,0.9510565,0,-1)"
           style="fill:#ffffff"
           id="triangle" />
        <use
           transform="scale(-1,1)"
           id="use8170"
           x="0"
           y="0"
           width="500.00003"
           height="600"
           xlink:href="#triangle" />
      </g>
      <use
         transform="matrix(0.309017,0.9510565,-0.9510565,0.309017,0,0)"
         id="use8172"
         x="0"
         y="0"
         width="500.00003"
         height="600"
         xlink:href="#cone" />
      <use
         transform="matrix(-0.809017,0.5877853,-0.5877853,-0.809017,0,0)"
         id="use8174"
         x="0"
         y="0"
         width="500.00003"
         height="600"
         xlink:href="#cone" />
      <use
         transform="matrix(-0.809017,-0.5877853,0.5877853,-0.809017,0,0)"
         id="use8176"
         x="0"
         y="0"
         width="500.00003"
         height="600"
         xlink:href="#cone" />
      <use
         transform="matrix(0.309017,-0.9510565,0.9510565,0.309017,0,0)"
         id="use8178"
         x="0"
         y="0"
         width="500.00003"
         height="600"
         xlink:href="#cone" />
    </g>
    <radialGradient
       cx="221.44487"
       cy="226.33101"
       r="300"
       fx="221.44487"
       fy="226.33101"
       id="radialGradient2236"
       xlink:href="#linearGradient2893"
       gradientUnits="userSpaceOnUse"
       gradientTransform="matrix(1.1393743,0,0,1.1357624,-19.007925,-60.835084)" />
    <linearGradient
       id="linearGradient2893">
      <stop
         style="stop-color:#ffffff;stop-opacity:0.3137255"
         offset="0"
         id="stop2895" />
      <stop
         style="stop-color:#ffffff;stop-opacity:0.25098041"
         offset="0.19"
         id="stop2897" />
      <stop
         style="stop-color:#6b6b6b;stop-opacity:0.1254902"
         offset="0.60000002"
         id="stop2901" />
      <stop
         style="stop-color:#000000;stop-opacity:0.1254902"
         offset="1"
         id="stop2899" />
    </linearGradient>
    <radialGradient
       cx="221.44487"
       cy="226.33101"
       r="300"
       fx="221.44487"
       fy="226.33101"
       id="radialGradient10561"
       xlink:href="#linearGradient2893"
       gradientUnits="userSpaceOnUse"
       gradientTransform="matrix(1.1393743,0,0,1.1357624,-19.007925,-60.835084)" />
  </defs>
  <g
     transform="translate(771.05149,-255.99965)"
     id="layer1">
    <path
       d="M 425.25,412.34375 L 250,311.15625 L 74.625,412.40625 C 103.1378,458.90978 149.70902,494.4894 203.5625,506.125 C 284.16916,525.76183 374.4089,490.46729 419.90625,420.875 C 421.84281,418.10886 423.48561,415.19947 425.25,412.34375 z "
       transform="translate(-771.05149,255.99965)"
       style="color:#000000;fill:#ff8400;fill-opacity:1;fill-rule:evenodd;stroke:none;stroke-width:8.22661114;stroke-linecap:butt;stroke-linejoin:miter;marker:none;marker-start:none;marker-mid:none;marker-end:none;stroke-miterlimit:4;stroke-dasharray:none;stroke-dashoffset:0;stroke-opacity:1;visibility:visible;display:inline;overflow:visible;enable-background:accumulate"
       id="path5153" />
    <path
       d="M 250,18.71875 L 250,311.15625 L 425.25,412.34375 C 448.31136,375.01822 457.02464,330.45941 454.9375,286.90625 C 454.93751,197.51723 454.9375,108.10776 454.9375,18.71875 C 386.62421,18.71875 318.3133,18.71875 250,18.71875 z "
       transform="translate(-771.05149,255.99965)"
       style="color:#000000;fill:#c0c2c5;fill-opacity:1;fill-rule:evenodd;stroke:none;stroke-width:8.22661114;stroke-linecap:butt;stroke-linejoin:miter;marker:none;marker-start:none;marker-mid:none;marker-end:none;stroke-miterlimit:4;stroke-dasharray:none;stroke-dashoffset:0;stroke-opacity:1;visibility:visible;display:inline;overflow:visible;enable-background:accumulate"
       id="path4181" />
    <path
       d="M 74.625,412.40625 L 250,311.15625 L 250,18.71875 C 181.59294,18.71875 113.18834,18.71875 44.78125,18.71875 C 44.949302,118.05074 44.43618,217.39371 45.03125,316.71875 C 46.239901,350.76329 57.006624,383.6712 74.625,412.40625 z "
       transform="translate(-771.05149,255.99965)"
       style="color:#000000;fill:#0000cc;fill-opacity:1;fill-rule:evenodd;stroke:none;stroke-width:8.22661114;stroke-linecap:butt;stroke-linejoin:miter;marker:none;marker-start:none;marker-mid:none;marker-end:none;stroke-miterlimit:4;stroke-dasharray:none;stroke-dashoffset:0;stroke-opacity:1;visibility:visible;display:inline;overflow:visible;enable-background:accumulate"
       id="path4560" />
    <path
       d="M -730.375,270.625 L -730.375,274.75 C -730.207,374.06338 -730.72025,473.39455 -730.125,572.75 L -730.125,572.8125 L -730.125,572.875 C -726.88909,664.02201 -657.43355,746.87623 -568.34375,766.125 C -485.95009,786.19718 -394.19943,750.26918 -347.6875,679.125 C -319.83954,639.34766 -309.75992,590.44252 -312,542.90625 C -312,542.83334 -312,542.76041 -312,542.6875 C -312,453.37141 -312,364.03485 -312,274.71875 L -312,270.625 L -316.09375,270.625 C -452.81408,270.625 -589.52958,270.625 -726.25,270.625 L -730.375,270.625 z M -722.15625,278.84375 C -588.17545,278.84375 -454.19946,278.84375 -320.21875,278.84375 C -320.21875,366.85787 -320.21875,454.89215 -320.21875,542.90625 L -320.21875,543 L -320.21875,543.09375 C -318.00641,589.25967 -327.89405,636.49672 -354.5,674.5 L -354.53125,674.5625 L -354.59375,674.625 C -399.07652,742.6654 -487.68029,777.32652 -566.5,758.125 L -566.5625,758.09375 L -566.625,758.09375 C -651.79548,739.69178 -718.81279,659.72821 -721.90625,572.59375 C -722.4929,474.67387 -722.00866,376.81519 -722.15625,278.84375 z "
       style="color:#000000;fill:#000000;fill-opacity:1;fill-rule:evenodd;stroke:none;stroke-width:8.22661114;stroke-linecap:butt;stroke-linejoin:miter;marker:none;stroke-miterlimit:4;stroke-dasharray:none;stroke-dashoffset:0;stroke-opacity:1;visibility:visible;display:inline;overflow:visible;enable-background:accumulate"
       id="path4174" />
    <path
       d="M -501.05149,309.1678 L -501.05149,329.1678 L -481.05149,329.1678 L -481.05149,309.1678 L -501.05149,309.1678 z M -481.05149,329.1678 L -481.05149,349.1678 L -461.05149,349.1678 L -461.05149,329.1678 L -481.05149,329.1678 z M -461.05149,329.1678 L -441.05149,329.1678 L -441.05149,309.1678 L -461.05149,309.1678 L -461.05149,329.1678 z M -441.05149,329.1678 L -441.05149,349.1678 L -421.05149,349.1678 L -421.05149,329.1678 L -441.05149,329.1678 z M -421.05149,329.1678 L -401.05149,329.1678 L -401.05149,309.1678 L -421.05149,309.1678 L -421.05149,329.1678 z M -401.05149,329.1678 L -401.05149,349.1678 L -381.05149,349.1678 L -381.05149,329.1678 L -401.05149,329.1678 z M -381.05149,329.1678 L -361.05149,329.1678 L -361.05149,309.1678 L -381.05149,309.1678 L -381.05149,329.1678 z M -361.05149,329.1678 L -361.05149,349.1678 L -341.05149,349.1678 L -341.05149,329.1678 L -361.05149,329.1678 z M -341.05149,329.1678 L -321.05149,329.1678 L -321.05149,309.1678 L -341.05149,309.1678 L -341.05149,329.1678 z M -341.05149,349.1678 L -341.05149,369.1678 L -321.05149,369.1678 L -321.05149,349.1678 L -341.05149,349.1678 z M -361.05149,349.1678 L -381.05149,349.1678 L -381.05149,369.1678 L -361.05149,369.1678 L -361.05149,349.1678 z M -401.05149,349.1678 L -421.05149,349.1678 L -421.05149,369.1678 L -401.05149,369.1678 L -401.05149,349.1678 z M -441.05149,349.1678 L -461.05149,349.1678 L -461.05149,369.1678 L -441.05149,369.1678 L -441.05149,349.1678 z M -481.05149,349.1678 L -501.05149,349.1678 L -501.05149,369.1678 L -481.05149,369.1678 L -481.05149,349.1678 z M -501.05149,349.1678 L -501.05149,329.1678 L -521.05149,329.1678 L -521.05149,349.1678 L -501.05149,349.1678 z "
       style="fill:#ed1c24;fill-opacity:1;stroke:none;stroke-width:10;stroke-linecap:round;stroke-linejoin:round;stroke-miterlimit:4;stroke-dasharray:none;stroke-dashoffset:0;stroke-opacity:1"
       id="rect5157" />
    <path
       d="M -501.05149,411.1678 L -501.05149,431.1678 L -481.05149,431.1678 L -481.05149,411.1678 L -501.05149,411.1678 z M -481.05149,431.1678 L -481.05149,451.1678 L -461.05149,451.1678 L -461.05149,431.1678 L -481.05149,431.1678 z M -461.05149,431.1678 L -441.05149,431.1678 L -441.05149,411.1678 L -461.05149,411.1678 L -461.05149,431.1678 z M -441.05149,431.1678 L -441.05149,451.1678 L -421.05149,451.1678 L -421.05149,431.1678 L -441.05149,431.1678 z M -421.05149,431.1678 L -401.05149,431.1678 L -401.05149,411.1678 L -421.05149,411.1678 L -421.05149,431.1678 z M -401.05149,431.1678 L -401.05149,451.1678 L -381.05149,451.1678 L -381.05149,431.1678 L -401.05149,431.1678 z M -381.05149,431.1678 L -361.05149,431.1678 L -361.05149,411.1678 L -381.05149,411.1678 L -381.05149,431.1678 z M -361.05149,431.1678 L -361.05149,451.1678 L -341.05149,451.1678 L -341.05149,431.1678 L -361.05149,431.1678 z M -341.05149,431.1678 L -321.05149,431.1678 L -321.05149,411.1678 L -341.05149,411.1678 L -341.05149,431.1678 z M -341.05149,451.1678 L -341.05149,471.1678 L -321.05149,471.1678 L -321.05149,451.1678 L -341.05149,451.1678 z M -361.05149,451.1678 L -381.05149,451.1678 L -381.05149,471.1678 L -361.05149,471.1678 L -361.05149,451.1678 z M -401.05149,451.1678 L -421.05149,451.1678 L -421.05149,471.1678 L -401.05149,471.1678 L -401.05149,451.1678 z M -441.05149,451.1678 L -461.05149,451.1678 L -461.05149,471.1678 L -441.05149,471.1678 L -441.05149,451.1678 z M -481.05149,451.1678 L -501.05149,451.1678 L -501.05149,471.1678 L -481.05149,471.1678 L -481.05149,451.1678 z M -501.05149,451.1678 L -501.05149,431.1678 L -521.05149,431.1678 L -521.05149,451.1678 L -501.05149,451.1678 z "
       style="fill:#ed1c24;fill-opacity:1;stroke:none;stroke-width:10;stroke-linecap:round;stroke-linejoin:round;stroke-miterlimit:4;stroke-dasharray:none;stroke-dashoffset:0;stroke-opacity:1"
       id="path5178" />
    <path
       d="M -501.05149,513.1678 L -501.05149,533.1678 L -481.05149,533.1678 L -481.05149,513.1678 L -501.05149,513.1678 z M -481.05149,533.1678 L -481.05149,553.1678 L -461.05149,553.1678 L -461.05149,533.1678 L -481.05149,533.1678 z M -461.05149,533.1678 L -441.05149,533.1678 L -441.05149,513.1678 L -461.05149,513.1678 L -461.05149,533.1678 z M -441.05149,533.1678 L -441.05149,553.1678 L -421.05149,553.1678 L -421.05149,533.1678 L -441.05149,533.1678 z M -421.05149,533.1678 L -401.05149,533.1678 L -401.05149,513.1678 L -421.05149,513.1678 L -421.05149,533.1678 z M -401.05149,533.1678 L -401.05149,553.1678 L -381.05149,553.1678 L -381.05149,533.1678 L -401.05149,533.1678 z M -381.05149,533.1678 L -361.05149,533.1678 L -361.05149,513.1678 L -381.05149,513.1678 L -381.05149,533.1678 z M -361.05149,533.1678 L -361.05149,553.1678 L -341.05149,553.1678 L -341.05149,533.1678 L -361.05149,533.1678 z M -341.05149,533.1678 L -321.05149,533.1678 L -321.05149,513.1678 L -341.05149,513.1678 L -341.05149,533.1678 z M -341.05149,553.1678 L -341.05149,573.1678 L -321.05149,573.1678 L -321.05149,553.1678 L -341.05149,553.1678 z M -361.05149,553.1678 L -381.05149,553.1678 L -381.05149,573.1678 L -361.05149,573.1678 L -361.05149,553.1678 z M -401.05149,553.1678 L -421.05149,553.1678 L -421.05149,573.1678 L -401.05149,573.1678 L -401.05149,553.1678 z M -441.05149,553.1678 L -461.05149,553.1678 L -461.05149,573.1678 L -441.05149,573.1678 L -441.05149,553.1678 z M -481.05149,553.1678 L -501.05149,553.1678 L -501.05149,573.1678 L -481.05149,573.1678 L -481.05149,553.1678 z M -501.05149,553.1678 L -501.05149,533.1678 L -521.05149,533.1678 L -521.05149,553.1678 L -501.05149,553.1678 z "
       style="fill:#ed1c24;fill-opacity:1;stroke:none;stroke-width:10;stroke-linecap:round;stroke-linejoin:round;stroke-miterlimit:4;stroke-dasharray:none;stroke-dashoffset:0;stroke-opacity:1"
       id="path5180" />
    <g
       transform="matrix(0.4080954,-0.2356139,0.2356139,0.4080954,-627.15853,184.28921)"
       id="g8226">
      <use
         transform="matrix(44,0,0,44,-454.89221,562.25629)"
         id="use8186"
         x="0"
         y="0"
         width="500.00003"
         height="600"
         xlink:href="#star" />
      <use
         transform="matrix(44,0,0,44,-362.89221,391.25629)"
         id="use8188"
         x="0"
         y="0"
         width="500.00003"
         height="600"
         xlink:href="#star" />
      <use
         transform="matrix(44,0,0,44,-261.89221,608.25629)"
         id="use8190"
         x="0"
         y="0"
         width="500.00003"
         height="600"
         xlink:href="#star" />
      <use
         transform="matrix(22,0,0,22,-216.89221,433.25629)"
         id="use8192"
         x="0"
         y="0"
         width="500.00003"
         height="600"
         xlink:href="#star" />
      <use
         transform="matrix(44,0,0,44,-53.89221,377.25629)"
         id="use8194"
         x="0"
         y="0"
         width="500.00003"
         height="600"
         xlink:href="#star" />
    </g>
    <g
       transform="translate(0,17.148216)"
       style="fill:#fdcb00;fill-opacity:1"
       id="g9218">
      <path
         d="M -602.10212,665.46087 C -603.6514,666.92337 -606.12174,673.95295 -606.12174,677.55363 C -606.45498,685.5489 -608.97457,671.80506 -617.47428,677.55363 C -611.45733,680.47156 -605.31814,693.82665 -602.10212,702.3344 C -598.8861,693.82665 -592.74692,680.40888 -586.72997,677.49098 C -595.22968,671.7424 -597.74927,685.48623 -598.08251,677.49098 C -598.08251,673.8903 -600.55284,666.92339 -602.10212,665.46087 z "
         style="fill:#fdcb00;fill-opacity:1;fill-rule:evenodd;stroke:none;stroke-width:0.9077251px;stroke-linecap:butt;stroke-linejoin:miter;stroke-opacity:1"
         id="path8234" />
      <path
         d="M -440.00081,664.33517 C -441.55009,665.79767 -444.02043,672.82725 -444.02043,676.42793 C -444.35367,684.4232 -446.87326,670.67936 -455.37297,676.42793 C -449.35602,679.34586 -443.21683,692.70095 -440.00081,701.2087 C -436.78479,692.70095 -430.64561,679.28318 -424.62866,676.36528 C -433.12837,670.6167 -435.64796,684.36053 -435.9812,676.36528 C -435.9812,672.7646 -438.45153,665.79769 -440.00081,664.33517 z "
         style="fill:#fdcb00;fill-opacity:1;fill-rule:evenodd;stroke:none;stroke-width:0.9077251px;stroke-linecap:butt;stroke-linejoin:miter;stroke-opacity:1"
         id="path9208" />
      <path
         d="M -521.05147,598.03873 C -522.60075,599.50123 -525.07109,606.53081 -525.07109,610.13149 C -525.40433,618.12676 -527.92392,604.38292 -536.42363,610.13149 C -530.40668,613.04942 -524.26749,626.40451 -521.05147,634.91226 C -517.83545,626.40451 -511.69627,612.98674 -505.67932,610.06884 C -514.17903,604.32026 -516.69862,618.06409 -517.03186,610.06884 C -517.03186,606.46816 -519.50219,599.50125 -521.05147,598.03873 z "
         style="fill:#fdcb00;fill-opacity:1;fill-rule:evenodd;stroke:none;stroke-width:0.9077251px;stroke-linecap:butt;stroke-linejoin:miter;stroke-opacity:1"
         id="path9216" />
    </g>
    <g
       transform="translate(-771.56457,259.44785)"
       style="display:inline"
       id="layer2">
      <path
         d="M 215.64411,509.5163 C 215.64411,509.5163 460.21913,520.76166 460.21913,280.4189 C 460.21913,40.076153 455.71632,13.194146 455.71632,13.194146 L 47.616925,13.194146 L 47.616925,230.88794 C 18.860163,471.2307 208.06592,509.5163 215.64411,509.5163 z "
         style="opacity:1;fill:url(#radialGradient10561);fill-opacity:1;fill-rule:evenodd;stroke:none;stroke-width:1px;stroke-linecap:butt;stroke-linejoin:miter;stroke-opacity:1"
         id="path2875" />
      <text
         x="95.685089"
         y="608.54669"
         style="font-size:36px;font-style:normal;font-weight:normal;fill:#000000;fill-opacity:1;stroke:none;stroke-width:1px;stroke-linecap:butt;stroke-linejoin:miter;stroke-opacity:1;font-family:Arial"
         id="text2253"
         xml:space="preserve"><tspan
           x="95.685089"
           y="608.54669"
           id="tspan2255" /></text>
    </g>
    <g
       transform="matrix(-1,0,0,-1,-1045.5978,1609.4414)"
       id="g11913">
      <path
         d="M -747.34332,843.39903 C -746.19637,843.3954 -744.05858,843.67207 -742.5927,844.01387 C -739.19452,844.80622 -736.22818,844.80934 -733.69202,844.02321 C -731.83191,843.44664 -726.05663,840.48412 -724.09123,839.01344 C -723.31094,838.42957 -722.89387,838.28428 -723.27063,837.83031 C -724.06396,836.8744 -727.57636,835.0536 -729.11128,834.87182 C -730.32088,834.72856 -731.38484,836.05915 -733.5959,836.81684 C -735.12614,837.34123 -738.89504,838.20171 -741.97124,838.72902 C -748.58217,839.86224 -750.53749,840.6376 -752.94037,843.07867 C -753.8288,843.98123 -754.5557,844.81439 -754.5557,844.93015 C -754.5557,845.0459 -753.40212,844.75024 -751.9922,844.27313 C -750.2108,843.67031 -748.79247,843.40364 -747.34332,843.39903 z "
         style="fill:#ffffff;fill-opacity:1;stroke:#000000;stroke-width:1.86436355;stroke-miterlimit:4;stroke-dasharray:none;stroke-opacity:1"
         id="path3866" />
      <path
         d="M -721.64527,837.29956 C -719.8836,836.25891 -716.23774,830.04073 -717.187,829.45405 C -717.72372,829.12234 -723.04234,828.13055 -727.71225,827.50571 C -730.22709,827.16923 -732.99171,827.07362 -736.02713,827.18937 C -742.14532,827.42269 -745.06513,829.44552 -746.02409,831.29994 C -747.72823,834.59538 -744.51766,835.54169 -733.8909,834.87616 C -728.79213,834.55684 -726.89425,834.93022 -724.66884,836.69049 C -723.11973,837.91582 -722.79818,837.9806 -721.64527,837.29956 z "
         style="fill:#b3b3b3;fill-opacity:1;stroke:#000000;stroke-width:1.86436355;stroke-miterlimit:4;stroke-dasharray:none;stroke-opacity:1"
         id="path3862" />
      <path
         d="M -688.21967,833.31698 C -687.5384,833.03156 -686.67054,832.50637 -686.2911,832.14991 C -685.6517,831.54922 -685.63433,831.43772 -686.05381,830.62653 C -686.30275,830.14514 -686.50643,829.38079 -686.50643,828.92796 C -686.50643,827.82768 -688.212,826.15258 -689.78364,825.70929 C -692.0863,825.05981 -695.3493,824.99432 -700.52756,825.49362 C -709.14214,826.32427 -711.52512,826.11091 -712.72227,824.40174 C -713.00096,824.00386 -713.2276,823.18508 -713.22593,822.58223 C -713.2228,821.4502 -712.18661,818.91628 -711.10149,817.3871 C -710.30299,816.26182 -709.61939,813.10676 -709.16433,808.44631 C -708.84451,805.17104 -708.88016,798.83449 -709.22014,798.52448 C -709.40716,798.35396 -718.76537,797.45711 -725.81342,796.93427 C -733.01314,796.40018 -737.6675,796.35689 -740.70409,796.79579 C -743.22059,797.15951 -743.75167,797.48403 -743.39278,798.43872 C -741.83922,802.5713 -741.45836,814.17815 -742.67675,820.25958 C -743.05519,822.14847 -743.71544,824.72481 -744.14398,825.98478 C -744.57253,827.24475 -745.55416,829.99478 -745.55416,830.1128 C -745.55416,830.23081 -743.97932,828.44044 -742.82574,828.11734 C -738.47262,826.89813 -731.43928,826.85698 -724.19128,828.00832 C -722.51996,828.27381 -716.4683,829.53148 -710.74315,830.80314 C -701.50937,832.85413 -698.89628,833.37737 -695.36215,833.883 C -693.49574,834.15002 -689.44108,833.82871 -688.21967,833.31698 z "
         style="fill:#ffffff;fill-opacity:1;stroke:#000000;stroke-width:1.86436355;stroke-miterlimit:4;stroke-dasharray:none;stroke-opacity:1"
         id="path3858" />
      <path
         d="M -684.20405,829.66184 C -682.87665,826.08012 -680.66962,813.21797 -681.20674,810.76558 L -681.47863,809.52417 L -689.73197,811.36494 C -698.27233,811.59013 -704.48399,816.66026 -709.14181,818.22546 C -712.36926,819.31001 -712.4951,820.35354 -712.87112,821.66465 C -713.78958,824.86712 -711.32098,826.71284 -701.09454,825.68973 C -695.34512,825.11452 -691.58523,824.89635 -689.0707,825.83716 C -686.939,826.63473 -686.61567,830.15542 -686.61567,831.67841 C -686.61567,833.08598 -684.78773,831.2368 -684.20405,829.66184 z "
         style="fill:#b3b3b3;fill-opacity:1;stroke:#000000;stroke-width:1.86436355;stroke-miterlimit:4;stroke-dasharray:none;stroke-opacity:1"
         id="path3854" />
      <path
         d="M -754.04892,826.08055 C -752.17653,825.34076 -751.48903,825.2374 -748.44852,825.23866 L -744.17124,825.24009 L -742.93275,820.29826 L -746.52115,820.92584 C -750.61483,821.63097 -753.26608,823.02408 -755.34683,825.56337 C -755.95999,826.31164 -756.39904,826.92387 -756.3225,826.92387 C -756.24595,826.92387 -755.22284,826.54438 -754.04892,826.08055 z "
         style="fill:#ffffff;fill-opacity:1;stroke:#000000;stroke-width:1.86436355;stroke-miterlimit:4;stroke-dasharray:none;stroke-opacity:1"
         id="path3850" />
      <path
         d="M -294.27276,842.88987 C -294.27276,842.75385 -295.00684,841.89626 -295.9041,840.98409 C -298.34579,838.50174 -300.26398,837.73531 -306.81499,836.62456 C -309.86796,836.10692 -313.58999,835.26308 -315.08613,834.74938 C -318.06107,833.72792 -319.84232,832.54454 -321.61449,833.17696 C -322.87423,833.62652 -325.94575,835.35489 -325.94575,835.78834 C -325.94575,836.14144 -320.68866,839.39451 -318.34836,840.57564 C -314.26538,842.63629 -310.96093,842.99602 -306.23577,841.89426 C -301.82531,840.86588 -298.99212,841.15438 -294.35045,843.10453 C -294.3077,843.12248 -294.27276,843.02588 -294.27276,842.88987 z "
         style="fill:#ffffff;fill-opacity:1;stroke:#000000;stroke-width:1.86436355;stroke-miterlimit:4;stroke-dasharray:none;stroke-opacity:1"
         id="path3864" />
      <path
         d="M -349.73757,832.10017 C -348.3704,831.85582 -343.07716,830.82531 -338.08506,829.69994 C -333.09296,828.57458 -327.47025,827.37544 -325.47993,827.03518 C -317.85118,825.73097 -310.55685,825.7138 -306.00272,826.98932 C -303.90621,827.5765 -302.91869,828.93624 -303.48654,827.87521 C -304.03644,826.84773 -306.10312,818.79611 -306.55583,815.63781 C -307.36369,810.00155 -306.93646,801.33569 -305.63803,797.02135 C -305.29918,795.89536 -305.29279,795.55202 -305.60588,795.29216 C -306.16958,794.82435 -310.09203,794.37365 -313.69321,794.36291 C -319.85197,794.34455 -340.49578,796.05274 -340.88374,796.64542 C -341.22545,797.16746 -341.25784,803.53778 -340.88209,806.97753 C -340.42447,811.1669 -340.14022,813.74576 -338.52585,816.83198 C -337.00947,819.7309 -336.49482,820.85492 -336.73721,822.0117 C -337.16512,824.05407 -337.79324,823.48351 -346.40788,822.65289 C -351.60234,822.15204 -357.35731,822.12111 -359.53108,822.75333 C -361.17239,823.23068 -362.86242,825.14176 -362.8648,826.17241 C -362.86586,826.62469 -363.34866,828.0313 -363.60718,828.527 C -364.03573,829.34879 -363.21749,829.30146 -362.71701,829.85448 C -362.0255,830.61862 -360.81315,831.25007 -359.30254,831.63294 C -357.83638,832.00455 -353.02417,832.68753 -349.73757,832.10017 z "
         style="fill:#ffffff;fill-opacity:1;stroke:#000000;stroke-width:1.86436355;stroke-miterlimit:4;stroke-dasharray:none;stroke-opacity:1"
         id="path3856" />
      <path
         d="M -363.20437,828.38693 C -363.20437,826.86394 -362.06974,823.4334 -359.93807,822.63583 C -357.42353,821.69502 -354.20451,821.55261 -348.45506,822.12782 C -339.99195,822.97452 -337.17136,823.56282 -336.77096,821.96751 C -336.28175,820.01831 -337.6961,816.95902 -342.01872,815.53197 C -346.78436,813.95867 -354.87602,811.83913 -362.11622,811.62367 L -365.85078,811.2589 L -366.14172,814.55026 C -366.52056,815.96636 -366.20194,820.86854 -365.57343,823.29406 C -364.57769,827.13669 -363.20437,830.59851 -363.20437,828.38693 z "
         style="fill:#b3b3b3;fill-opacity:1;stroke:#000000;stroke-width:1.86436355;stroke-miterlimit:4;stroke-dasharray:none;stroke-opacity:1"
         id="path3852" />
      <path
         d="M -293.36246,823.59821 C -294.97021,821.42364 -297.84785,819.71977 -301.06402,819.03808 C -305.08469,818.18588 -306.2996,818.01036 -305.43041,821.10813 L -304.6712,823.30092 L -300.38692,823.11997 C -297.37843,823.11939 -296.64382,823.22678 -294.8942,823.92288 C -293.78337,824.36484 -292.82722,824.68504 -292.76944,824.63442 C -292.71169,824.5838 -292.97854,824.11751 -293.36246,823.59821 z "
         style="fill:#ffffff;fill-opacity:1;stroke:#000000;stroke-width:1.86436355;stroke-miterlimit:4;stroke-dasharray:none;stroke-opacity:1"
         id="path3848" />
      <path
         d="M -407.13471,806.93176 C -375.96715,807.39302 -347.35629,813.95576 -340.80331,816.33005 C -339.89967,816.65746 -339.09378,816.92533 -339.01247,816.92533 C -338.93113,816.92533 -339.07825,816.41399 -339.33939,815.78906 C -340.17428,813.79085 -340.76122,810.67068 -341.1272,806.28466 C -341.54801,801.24198 -341.11216,794.11282 -340.07761,789.11587 C -339.16618,784.71347 -339.15135,784.85966 -340.58192,784.14437 C -347.4529,783.83753 -377.9843,781.43382 -408.04307,781.9292 C -438.10184,782.42454 -467.68799,785.81895 -474.82362,786.3333 C -515.48805,789.12779 -556.33375,787.99502 -596.80553,783.34514 C -600.09444,782.93262 -626.97664,778.19343 -653.6051,778.50048 C -680.23356,778.80747 -706.60828,784.1607 -708.8822,785.64697 C -708.98195,785.96124 -708.6666,787.01078 -708.57917,788.04811 C -707.92077,795.86034 -707.6077,806.0467 -709.30535,813.2924 C -709.65841,814.79929 -712.01894,819.61152 -711.67167,819.13924 C -710.90111,818.09132 -709.10003,817.59615 -708.75512,817.41154 C -702.71304,815.88637 -675.91387,805.4479 -649.07873,804.57301 C -616.02753,805.55291 -581.72108,811.61277 -547.44841,815.1769 C -533.58635,817.31261 -519.77356,817.01252 -505.85678,815.96651 C -472.94656,813.3637 -440.90724,807.61123 -407.13471,806.93176 z "
         style="fill:#ffffff;fill-opacity:1;stroke:#000000;stroke-width:1.86436355;stroke-miterlimit:4;stroke-dasharray:none;stroke-opacity:1"
         id="path2945" />
      <path
         d="M -325.33131,836.78 C -327.09297,835.73936 -330.73884,829.52117 -329.78957,828.9345 C -329.25285,828.60279 -323.93422,827.61099 -319.26433,826.98616 C -316.74947,826.64968 -313.98486,826.55407 -310.94946,826.66982 C -304.83126,826.90313 -301.91144,828.92596 -300.9525,830.78039 C -299.24835,834.07583 -302.45893,835.02213 -313.08569,834.3566 C -318.18445,834.03728 -320.08231,834.41067 -322.30773,836.17094 C -323.85685,837.39627 -324.17841,837.46104 -325.33131,836.78 z "
         style="fill:#b3b3b3;fill-opacity:1;stroke:#000000;stroke-width:1.86436355;stroke-miterlimit:4;stroke-dasharray:none;stroke-opacity:1"
         id="path11863" />
      <path
         d="M -397.31897,798.30508 C -397.31941,797.58242 -397.17821,796.94268 -396.89537,796.38587 C -396.6125,795.82905 -396.22054,795.36819 -395.71947,795.0033 C -395.2249,794.6384 -394.68145,794.37114 -394.08911,794.2015 C -393.49677,794.03185 -392.86856,793.94682 -392.20451,793.94641 L -390.65177,793.94544 L -390.6544,789.74623 C -390.65454,789.51836 -390.6921,789.31819 -390.76708,789.14571 C -390.84206,788.97323 -390.99676,788.84149 -391.2312,788.75049 C -391.34841,788.70499 -391.55514,788.6628 -391.85139,788.62393 C -392.14764,788.58505 -392.41946,788.56243 -392.66687,788.55608 L -392.6673,787.86272 L -386.72004,787.859 L -386.7196,788.55236 C -386.87584,788.56547 -387.10206,788.5884 -387.39827,788.62114 C -387.69447,788.65388 -387.90115,788.69632 -388.01831,788.74848 C -388.21356,788.83324 -388.35509,788.95702 -388.44288,789.11984 C -388.53067,789.28266 -388.57448,789.49102 -388.57432,789.74492 L -388.56807,799.74492 C -388.56792,799.97277 -388.53524,800.17783 -388.47003,800.36009 C -388.4048,800.54233 -388.25172,800.67896 -388.01078,800.76996 C -387.76333,800.85443 -387.51753,800.9145 -387.27337,800.95017 C -387.0292,800.98581 -386.81923,801.01009 -386.64344,801.02301 L -386.643,801.71637 L -392.97113,801.72033 C -394.26018,801.72113 -395.30692,801.41091 -396.11136,800.78968 C -396.91577,800.16843 -397.31831,799.34023 -397.31897,798.30508 L -397.31897,798.30508 z M -394.3517,795.93995 C -394.57285,796.25258 -394.71913,796.57656 -394.79054,796.9119 C -394.86194,797.24722 -394.89756,797.54835 -394.8974,797.81529 C -394.89716,798.18637 -394.85298,798.56395 -394.76486,798.94802 C -394.67672,799.33207 -394.52514,799.66726 -394.31012,799.95359 C -394.08206,800.25943 -393.78243,800.49687 -393.41124,800.66592 C -393.04003,800.83495 -392.57774,800.91929 -392.02436,800.91896 L -390.64741,800.9181 L -390.65124,794.79505 L -391.64734,794.79568 C -392.35045,794.79611 -392.92167,794.90552 -393.361,795.1239 C -393.80031,795.34226 -394.13054,795.61428 -394.3517,795.93995 L -394.3517,795.93995 z M -412.40072,788.23264 L -408.67155,788.13438 C -407.81087,789.40772 -407.03457,790.50744 -406.34262,791.43355 C -405.65066,792.35965 -404.90099,793.31354 -404.09361,794.29522 L -402.67809,794.25792 L -402.79384,789.86492 C -402.79984,789.63713 -402.84091,789.43795 -402.91705,789.26737 C -402.99318,789.09679 -403.14959,788.96903 -403.38629,788.88409 C -403.50463,788.84162 -403.71075,788.80472 -404.00466,788.77339 C -404.29855,788.74205 -404.54646,788.72579 -404.74839,788.7246 L -404.76665,788.03148 L -398.90931,787.87714 L -398.89105,788.57026 C -399.0469,788.58739 -399.27245,788.61613 -399.56772,788.65647 C -399.86298,788.69681 -400.0685,788.74456 -400.18428,788.79971 C -400.37729,788.88946 -400.51558,789.01685 -400.59916,789.18187 C -400.68273,789.34689 -400.72117,789.55631 -400.71449,789.81012 L -400.45056,799.82618 C -400.44456,800.05395 -400.4067,800.25485 -400.33699,800.42887 C -400.26728,800.60286 -400.11082,800.73225 -399.86762,800.81703 C -399.70337,800.8713 -399.49044,800.91942 -399.22883,800.96138 C -398.96721,801.00332 -398.74512,801.02841 -398.56255,801.03663 L -398.54429,801.72975 L -404.93855,801.89824 C -405.52428,801.91366 -406.07581,801.86795 -406.59313,801.76111 C -407.11044,801.65425 -407.58087,801.47289 -408.00444,801.21705 C -408.41479,800.96734 -408.7459,800.63578 -408.99778,800.22236 C -409.24963,799.80892 -409.38336,799.30608 -409.39898,798.71385 C -409.41303,798.18017 -409.34411,797.70619 -409.19223,797.29189 C -409.04031,796.87758 -408.80886,796.51654 -408.49786,796.20877 C -408.21236,795.9212 -407.8673,795.66951 -407.4627,795.45371 C -407.05808,795.23789 -406.61035,795.05188 -406.11951,794.89567 C -406.8267,794.00904 -407.4146,793.26255 -407.88322,792.6562 C -408.35182,792.04983 -408.92644,791.31276 -409.6071,790.44498 C -409.90374,790.06203 -410.17002,789.78086 -410.40596,789.60147 C -410.64188,789.42207 -410.87528,789.2768 -411.10616,789.16566 C -411.27759,789.08551 -411.49082,789.026 -411.74585,788.98714 C -412.00086,788.94827 -412.21306,788.92781 -412.38246,788.92576 L -412.40072,788.23264 z M -406.99363,798.42578 C -406.97149,799.26532 -406.71316,799.92443 -406.21862,800.40312 C -405.72406,800.88178 -405.03748,801.10955 -404.15889,801.08641 L -402.49931,801.04268 L -402.65596,795.09748 L -403.93482,795.13117 C -404.83294,795.15483 -405.57378,795.46254 -406.15737,796.0543 C -406.74093,796.64604 -407.01968,797.43653 -406.99363,798.42578 L -406.99363,798.42578 z M -418.9764,788.57901 L -412.74275,788.29245 L -412.71091,788.98507 C -412.88591,789.00615 -413.13865,789.03732 -413.46914,789.07859 C -413.79962,789.11985 -414.03195,789.16963 -414.16614,789.22794 C -414.37687,789.32235 -414.52764,789.44496 -414.61847,789.59578 C -414.7093,789.74659 -414.74873,789.95207 -414.73677,790.21221 L -414.27577,800.24068 C -414.2653,800.4683 -414.22079,800.65688 -414.14222,800.80644 C -414.06366,800.95597 -413.88866,801.07664 -413.61723,801.16845 C -413.41854,801.23751 -413.16967,801.29939 -412.87062,801.35409 C -412.57157,801.40876 -412.32744,801.43827 -412.13824,801.44262 L -412.1064,802.13525 L -418.34005,802.42181 L -418.37189,801.72918 C -418.17057,801.7134 -417.93106,801.67795 -417.65336,801.62283 C -417.37565,801.56769 -417.13423,801.50282 -416.92911,801.42823 C -416.68556,801.33882 -416.52555,801.20438 -416.44908,801.02491 C -416.3726,800.84541 -416.3393,800.64836 -416.34917,800.43376 L -416.80973,790.41504 C -416.81959,790.20042 -416.87548,790.01236 -416.97741,789.85086 C -417.07933,789.68935 -417.24635,789.56505 -417.47846,789.47796 C -417.61742,789.43221 -417.84279,789.38555 -418.15455,789.33796 C -418.4663,789.29038 -418.72964,789.26827 -418.94456,789.27163 L -418.9764,788.57901 z M -437.38119,789.71665 L -431.27106,789.3191 L -431.22604,790.01099 C -431.44649,790.03186 -431.72924,790.07309 -432.07429,790.13469 C -432.41931,790.19628 -432.65447,790.26704 -432.77977,790.34696 C -432.97312,790.4835 -433.11173,790.63442 -433.19559,790.79972 C -433.27942,790.96501 -433.31352,791.16785 -433.29789,791.40823 L -432.64354,801.46509 L -432.49736,801.45558 L -428.54736,789.36696 L -428.06011,789.33526 L -422.78522,801.06831 L -422.65853,801.06006 L -423.19559,792.80603 C -423.24758,792.00694 -423.33745,791.40278 -423.4652,790.99354 C -423.59295,790.58431 -423.76669,790.2955 -423.98643,790.12712 C -424.13823,789.99999 -424.44228,789.88929 -424.89859,789.79502 C -425.35488,789.70075 -425.65146,789.6548 -425.78832,789.65718 L -425.83334,788.96529 L -420.24944,788.60197 L -420.20442,789.29386 C -420.49508,789.33887 -420.79888,789.40757 -421.11582,789.49996 C -421.43275,789.59235 -421.67427,789.71571 -421.84039,789.87005 C -422.05593,790.06675 -422.19368,790.35625 -422.25362,790.73856 C -422.31355,791.12086 -422.31478,791.75378 -422.25729,792.63733 L -421.79696,799.71222 C -421.77033,800.1215 -421.69984,800.45291 -421.58548,800.70644 C -421.47112,800.95996 -421.3177,801.16201 -421.12523,801.31261 C -420.91242,801.4749 -420.65709,801.58877 -420.35924,801.65422 C -420.0614,801.71964 -419.76913,801.74955 -419.48243,801.74396 L -419.43741,802.43586 L -424.154,802.74274 L -428.78512,792.63147 L -431.60232,801.52456 C -431.70504,801.85092 -431.78894,802.19074 -431.85405,802.54403 C -431.91912,802.8973 -431.95111,803.13262 -431.95001,803.25 L -436.46196,803.54357 L -436.50698,802.85167 C -436.32547,802.83333 -436.09512,802.78898 -435.81591,802.71863 C -435.53667,802.64826 -435.33357,802.58611 -435.20662,802.53219 C -434.99079,802.43985 -434.84982,802.30019 -434.78371,802.11323 C -434.71757,801.92623 -434.69148,801.72555 -434.70544,801.51117 L -435.35409,791.54202 C -435.36887,791.31463 -435.42032,791.12551 -435.50844,790.97467 C -435.59653,790.82382 -435.75483,790.69711 -435.98335,790.59454 C -436.1045,790.53718 -436.3163,790.49062 -436.61876,790.45484 C -436.92118,790.41906 -437.16032,790.40363 -437.33617,790.40855 L -437.38119,789.71665 z M -452.12681,790.97088 L -446.37553,790.48839 L -446.31757,791.17933 C -446.82087,791.25421 -447.2355,791.35433 -447.56146,791.47968 C -447.8874,791.60502 -448.04439,791.73905 -448.03242,791.88178 C -448.02752,791.94017 -448.01504,792.01099 -447.995,792.09424 C -447.97494,792.17749 -447.94922,792.25047 -447.91784,792.31317 L -446.50991,795.31143 L -441.67339,794.90569 C -441.52983,794.43631 -441.41544,794.02818 -441.33021,793.68131 C -441.24497,793.33442 -441.16892,793.01444 -441.10204,792.72137 C -441.0411,792.43533 -441.00176,792.20336 -440.98402,792.02548 C -440.96627,791.84759 -440.96203,791.7035 -440.97128,791.59321 C -440.99305,791.3337 -441.21428,791.14973 -441.63498,791.04129 C -442.05567,790.93285 -442.52337,790.88716 -443.03807,790.9042 L -443.09604,790.21327 L -437.89945,789.77732 L -437.84148,790.46825 C -438.00907,790.49538 -438.21679,790.55037 -438.46464,790.63323 C -438.71248,790.71609 -438.91315,790.81622 -439.06663,790.93363 C -439.31144,791.13056 -439.49718,791.33071 -439.62386,791.53407 C -439.75053,791.73743 -439.86783,792.0135 -439.97577,792.36229 C -440.52463,794.15272 -441.12689,796.16322 -441.78256,798.39382 C -442.43822,800.6244 -443.02292,802.61057 -443.53667,804.35233 L -444.31519,804.41765 L -449.91742,792.89251 C -450.03595,792.64766 -450.16338,792.45255 -450.29972,792.30719 C -450.43603,792.16182 -450.62075,792.02379 -450.85386,791.89308 C -451.01068,791.81477 -451.2117,791.75487 -451.45693,791.71337 C -451.70213,791.67188 -451.9061,791.65469 -452.06885,791.66181 L -452.12681,790.97088 z M -446.08692,796.14814 L -443.54565,801.32491 L -441.94133,795.80036 L -446.08692,796.14814 z M -463.69809,792.07298 L -457.48486,791.49313 L -457.42043,792.18349 C -457.59424,792.21279 -457.84523,792.25583 -458.17341,792.31261 C -458.50158,792.36939 -458.73131,792.43007 -458.8626,792.49463 C -459.06865,792.59886 -459.21348,792.72844 -459.29711,792.88337 C -459.38073,793.03829 -459.41044,793.2454 -459.38625,793.50469 L -458.45341,803.50032 C -458.43223,803.72718 -458.37889,803.91346 -458.29337,804.05915 C -458.20784,804.20482 -458.02736,804.31711 -457.75191,804.39604 C -457.55018,804.45566 -457.29867,804.50575 -456.99738,804.5463 C -456.69608,804.58683 -456.45084,804.60481 -456.26164,804.60024 L -456.19721,805.2906 L -462.41045,805.87045 L -462.47488,805.18009 C -462.27453,805.15484 -462.03695,805.10815 -461.76215,805.04001 C -461.48734,804.97185 -461.24925,804.89569 -461.04787,804.81152 C -460.8088,804.71073 -460.6553,804.5689 -460.58737,804.38603 C -460.51943,804.20313 -460.49545,804.00473 -460.51541,803.79083 L -461.44734,793.80493 C -461.4673,793.59101 -461.53199,793.40579 -461.64142,793.24927 C -461.75083,793.09274 -461.92352,792.97645 -462.15947,792.90039 C -462.30043,792.86123 -462.52774,792.82523 -462.8414,792.79239 C -463.15505,792.75954 -463.41914,792.74986 -463.63366,792.76334 L -463.69809,792.07298 z M -478.60087,806.27318 C -478.41932,806.25529 -478.14317,806.18584 -477.77241,806.06482 C -477.40163,805.94378 -477.13827,805.8262 -476.98234,805.7121 C -476.75857,805.53501 -476.6205,805.21327 -476.56814,804.74686 C -476.51575,804.28043 -476.51171,803.6931 -476.55601,802.98486 L -477.18923,792.85815 L -476.34128,792.80513 L -467.25163,803.59679 L -467.69776,796.46228 C -467.74773,795.66306 -467.83648,795.05217 -467.96402,794.62962 C -468.09154,794.20707 -468.26496,793.91133 -468.48427,793.74239 C -468.64265,793.60879 -468.95962,793.49488 -469.43518,793.40068 C -469.91073,793.30648 -470.22344,793.2608 -470.3733,793.26365 L -470.41657,792.57164 L -464.74405,792.21694 L -464.70078,792.90894 C -464.87541,792.93291 -465.16709,793.01475 -465.57584,793.15446 C -465.98458,793.29418 -466.23809,793.41277 -466.33637,793.51024 C -466.55241,793.70639 -466.69098,793.99392 -466.75209,794.37283 C -466.8132,794.75172 -466.81552,795.39277 -466.75904,796.29595 L -466.33303,803.10882 C -466.31434,803.4077 -466.24367,803.70335 -466.12101,803.99575 C -465.99836,804.28814 -465.84423,804.51007 -465.65864,804.66155 C -465.41131,804.86134 -465.08307,805.02509 -464.67391,805.15281 C -464.26475,805.28051 -463.93631,805.34314 -463.68859,805.34071 L -463.64531,806.03272 L -467.59268,806.27955 L -476.0299,796.22009 L -475.61851,802.79904 C -475.56812,803.60474 -475.47744,804.2204 -475.34646,804.64601 C -475.21547,805.0716 -475.04804,805.34977 -474.84418,805.48055 C -474.65452,805.59262 -474.34973,805.69423 -473.92982,805.78541 C -473.50989,805.87655 -473.19231,805.92192 -472.97709,805.92153 L -472.93381,806.61353 L -478.5576,806.96519 L -478.60087,806.27318 z M -496.33376,803.80596 L -495.66027,803.78485 C -495.59435,804.01727 -495.47989,804.29214 -495.31689,804.60946 C -495.15386,804.92676 -494.97351,805.22562 -494.77584,805.50604 C -494.57123,805.79924 -494.34991,806.05448 -494.11188,806.27175 C -493.87383,806.489 -493.64693,806.61053 -493.43118,806.63635 C -493.22863,806.65604 -492.97424,806.66761 -492.668,806.67105 C -492.36174,806.67447 -492.07847,806.6721 -491.81819,806.66396 L -491.25207,806.64622 L -491.59927,795.56767 C -491.606,795.35293 -491.65772,795.15751 -491.75443,794.98142 C -491.85113,794.80533 -492.01489,794.67205 -492.24571,794.58158 C -492.36426,794.5397 -492.61185,794.48558 -492.98847,794.41922 C -493.36507,794.35286 -493.6576,794.31969 -493.86604,794.31971 L -493.88776,793.62669 L -487.348,793.42173 L -487.32628,794.11475 C -487.50807,794.13347 -487.78544,794.16822 -488.15839,794.21899 C -488.53132,794.26976 -488.78846,794.32667 -488.92978,794.38972 C -489.14187,794.48104 -489.29584,794.608 -489.39171,794.77059 C -489.48757,794.93317 -489.53132,795.14787 -489.52297,795.41466 L -489.17301,806.58106 L -488.60688,806.56331 C -488.40515,806.55698 -488.15478,806.54425 -487.85575,806.52512 C -487.55672,806.50596 -487.27107,806.47584 -486.99879,806.43475 C -486.78486,806.40198 -486.56602,806.26648 -486.34226,806.02824 C -486.11849,805.78999 -485.91358,805.52139 -485.72755,805.22246 C -485.54151,804.92351 -485.3788,804.60738 -485.23944,804.27409 C -485.10007,803.94077 -485.00447,803.66583 -484.95263,803.44927 L -484.26938,803.42786 L -484.1516,807.18578 L -496.21599,807.56388 L -496.33376,803.80596 z M -509.37493,797.95147 L -509.15925,793.86662 L -497.65613,793.73143 L -497.64799,794.42474 C -497.84313,794.44005 -498.1032,794.47078 -498.42821,794.51692 C -498.75321,794.56306 -498.96426,794.60949 -499.06138,794.65621 C -499.26855,794.75631 -499.4119,794.88495 -499.49144,795.04215 C -499.57098,795.19934 -499.60933,795.39838 -499.6065,795.63925 L -499.48944,805.5995 C -499.48692,805.81431 -499.44887,806.00431 -499.37532,806.16948 C -499.30175,806.33463 -499.15044,806.46795 -498.92137,806.56945 C -498.7446,806.652 -498.50773,806.72409 -498.21077,806.78572 C -497.9138,806.84733 -497.67735,806.88361 -497.50143,806.89458 L -497.49328,807.58789 L -508.2152,807.71391 L -508.25445,804.37429 L -507.52208,804.36568 C -507.38605,804.8589 -507.09832,805.38127 -506.65887,805.9328 C -506.21941,806.4843 -505.80408,806.7838 -505.41288,806.8313 C -505.21075,806.85496 -504.96966,806.87166 -504.68958,806.8814 C -504.40949,806.89112 -504.09043,806.89388 -503.73239,806.88968 L -501.5548,806.86409 L -501.61953,801.35666 L -503.18192,801.37502 C -503.68318,801.3809 -504.04881,801.4324 -504.27882,801.52952 C -504.5088,801.62663 -504.71038,801.78688 -504.88356,802.0103 C -505.02455,802.20076 -505.14365,802.45445 -505.24085,802.77138 C -505.33804,803.08829 -505.40126,803.38691 -505.43053,803.66723 L -506.1629,803.67584 L -506.2266,798.25629 L -505.49423,798.24768 C -505.4645,798.55985 -505.39064,798.88941 -505.27263,799.23636 C -505.1546,799.58329 -505.03283,799.83416 -504.90732,799.98895 C -504.70252,800.24046 -504.47109,800.40377 -504.21303,800.47887 C -503.95496,800.55396 -503.61436,800.58902 -503.19122,800.58406 L -501.62883,800.5657 L -501.67772,796.40583 C -501.68261,795.98919 -501.71577,795.66078 -501.77719,795.4206 C -501.83861,795.18042 -501.95468,794.99948 -502.12539,794.87778 C -502.2961,794.75608 -502.52814,794.67905 -502.82152,794.64669 C -503.11488,794.61432 -503.53173,794.60132 -504.07206,794.60767 C -504.28688,794.61019 -504.57007,794.61352 -504.92161,794.61765 C -505.27314,794.62178 -505.56919,794.63829 -505.80976,794.66716 C -506.05683,794.6961 -506.31179,794.7463 -506.57465,794.81776 C -506.83749,794.88921 -507.02356,794.98418 -507.13286,795.10266 C -507.42864,795.41865 -507.73718,795.89595 -508.05848,796.53453 C -508.37976,797.17312 -508.58422,797.64267 -508.67185,797.94321 L -509.37493,797.95147 z M -524.35445,793.75182 L -520.62413,793.78484 C -519.80879,795.08768 -519.07167,796.21404 -518.41274,797.16392 C -517.7538,798.1138 -517.03816,799.09348 -516.26582,800.10297 L -514.84986,800.1155 L -514.81096,795.72114 C -514.80894,795.49328 -514.84297,795.29278 -514.91306,795.11963 C -514.98314,794.94647 -515.13496,794.81329 -515.36853,794.72007 C -515.4853,794.67346 -515.69,794.62933 -515.98261,794.58768 C -516.27522,794.54602 -516.5224,794.52105 -516.72417,794.51275 L -516.71803,793.81942 L -510.85888,793.87129 L -510.86502,794.56462 C -511.02138,794.57626 -511.24781,794.59704 -511.54431,794.62697 C -511.84081,794.6569 -512.04788,794.69738 -512.16553,794.74843 C -512.36158,794.83133 -512.50427,794.95377 -512.5936,795.11575 C -512.68293,795.27772 -512.72871,795.48566 -512.73096,795.73956 L -512.81966,805.75869 C -512.82167,805.98654 -512.79091,806.18864 -512.72737,806.365 C -512.66382,806.54134 -512.51201,806.67615 -512.27195,806.76944 C -512.10971,806.82946 -511.8986,806.88504 -511.63863,806.93619 C -511.37865,806.98731 -511.15758,807.02019 -510.97542,807.03484 L -510.98155,807.72817 L -517.37779,807.67154 C -517.96369,807.66634 -518.51327,807.60125 -519.02651,807.47628 C -519.53974,807.35127 -520.0035,807.15348 -520.4178,806.88288 C -520.81911,806.61889 -521.13835,806.27588 -521.37552,805.85386 C -521.61267,805.43181 -521.72863,804.92458 -521.7234,804.33216 C -521.71866,803.79832 -521.6331,803.32705 -521.46673,802.91836 C -521.30033,802.50966 -521.05632,802.15699 -520.73468,801.86035 C -520.43923,801.583 -520.08554,801.34361 -519.67359,801.14218 C -519.26163,800.94073 -518.80763,800.77059 -518.3116,800.63175 C -518.98715,799.72078 -519.54841,798.95407 -519.99541,798.3316 C -520.44238,797.70913 -520.99071,796.95229 -521.64041,796.06109 C -521.92339,795.66794 -522.17962,795.37758 -522.4091,795.18999 C -522.63855,795.00241 -522.86669,794.84901 -523.09353,794.72981 C -523.26203,794.64368 -523.47303,794.57671 -523.72654,794.52889 C -523.98002,794.48107 -524.19137,794.45316 -524.36059,794.44515 L -524.35445,793.75182 z M -519.30939,804.12892 C -519.31682,804.96872 -519.08184,805.63651 -518.60444,806.1323 C -518.12703,806.62807 -517.4489,806.87986 -516.57003,806.88765 L -514.90994,806.90234 L -514.8573,800.95531 L -516.13654,800.94399 C -517.03494,800.93603 -517.78616,801.21747 -518.3902,801.78833 C -518.99423,802.35917 -519.30062,803.13936 -519.30939,804.12892 L -519.30939,804.12892 z M -538.37192,793.32285 L -534.64312,793.43444 C -533.85542,794.75416 -533.14218,795.8958 -532.50341,796.85935 C -531.86462,797.8229 -531.16977,798.81743 -530.41887,799.84296 L -529.00349,799.88532 L -528.87203,795.49276 C -528.86521,795.26499 -528.89502,795.06382 -528.96144,794.88923 C -529.02786,794.71463 -529.17684,794.57828 -529.40839,794.48017 C -529.52416,794.43111 -529.72788,794.38267 -530.01955,794.33487 C -530.31122,794.28706 -530.55782,794.25688 -530.75936,794.24434 L -530.73862,793.55129 L -524.88187,793.72656 L -524.90261,794.41961 C -525.05918,794.42795 -525.286,794.44396 -525.58306,794.46764 C -525.88013,794.49131 -526.088,794.52743 -526.2067,794.57598 C -526.40445,794.65474 -526.54969,794.77414 -526.64241,794.9342 C -526.73513,795.09426 -526.78529,795.30118 -526.79289,795.55498 L -527.09261,805.57003 C -527.09942,805.79778 -527.07292,806.00048 -527.0131,806.17815 C -526.95328,806.35578 -526.80435,806.49376 -526.5663,806.59209 C -526.40537,806.65551 -526.19548,806.71553 -525.93664,806.77214 C -525.6778,806.82872 -525.45747,806.86625 -525.27565,806.88473 L -525.29639,807.57778 L -531.69001,807.38644 C -532.27568,807.3689 -532.82376,807.29225 -533.33426,807.15649 C -533.84474,807.0207 -534.30423,806.81318 -534.71274,806.53392 C -535.1084,806.26153 -535.42035,805.91188 -535.64858,805.48495 C -535.87678,805.058 -535.98203,804.54844 -535.96432,803.95626 C -535.94834,803.42264 -535.85287,802.95328 -535.67793,802.54819 C -535.50296,802.14307 -535.25157,801.79562 -534.92375,801.50583 C -534.62253,801.23476 -534.26387,801.00287 -533.84778,800.81016 C -533.43166,800.61744 -532.97418,800.4569 -532.47533,800.32854 C -533.13154,799.40354 -533.67654,798.62517 -534.11032,797.99343 C -534.54408,797.36168 -535.07635,796.59346 -535.70713,795.68877 C -535.98176,795.28975 -536.23182,794.99406 -536.4573,794.80168 C -536.68275,794.6093 -536.90761,794.45114 -537.13188,794.32719 C -537.29853,794.23752 -537.50808,794.16612 -537.76052,794.11297 C -538.01293,794.05982 -538.22365,794.02747 -538.39266,794.01589 L -538.37192,793.32285 z M -533.54657,803.80391 C -533.57168,804.64337 -533.35082,805.31596 -532.88398,805.8217 C -532.41712,806.32742 -531.74443,806.59343 -530.86593,806.61973 L -529.20652,806.66939 L -529.02861,800.72479 L -530.30734,800.68652 C -531.20537,800.65964 -531.96234,800.9252 -532.57828,801.4832 C -533.19419,802.04119 -533.51696,802.81476 -533.54657,803.80391 L -533.54657,803.80391 z M -551.80219,792.63459 L -546.038,792.92476 L -546.07286,793.61725 C -546.58166,793.62423 -547.00595,793.66805 -547.34573,793.74873 C -547.68549,793.8294 -547.85898,793.94127 -547.86619,794.08432 C -547.86913,794.14283 -547.86622,794.21469 -547.85748,794.29987 C -547.84873,794.38505 -547.83298,794.46081 -547.81026,794.52714 L -546.8155,797.68662 L -541.96812,797.93063 C -541.76315,797.48464 -541.59526,797.09546 -541.46445,796.76307 C -541.33364,796.43069 -541.21552,796.12374 -541.11009,795.84223 C -541.01148,795.56688 -540.94151,795.34225 -540.90016,795.16833 C -540.85881,794.99441 -540.83535,794.85218 -540.82979,794.74164 C -540.8167,794.48156 -541.01137,794.26968 -541.41381,794.10601 C -541.81624,793.94234 -542.27364,793.83457 -542.78601,793.78271 L -542.75115,793.09022 L -537.5429,793.35241 L -537.57776,794.04489 C -537.74747,794.04938 -537.96067,794.07613 -538.21737,794.12514 C -538.47406,794.17414 -538.6863,794.24657 -538.8541,794.34242 C -539.12302,794.50489 -539.33384,794.67843 -539.48654,794.86304 C -539.63924,795.04765 -539.79238,795.30558 -539.94595,795.63682 C -540.72907,797.33788 -541.59452,799.24991 -542.54231,801.37292 C -543.49008,803.49591 -544.33488,805.38616 -545.07671,807.04368 L -545.85697,807.0044 L -549.86931,794.83416 C -549.95407,794.57567 -550.05429,794.36528 -550.16999,794.20301 C -550.28567,794.04074 -550.45028,793.87927 -550.66384,793.71859 C -550.8088,793.62003 -551.00001,793.53381 -551.2375,793.45993 C -551.47496,793.38605 -551.67481,793.34176 -551.83705,793.32708 L -551.80219,792.63459 z M -546.50808,798.57233 L -544.68117,804.0422 L -542.35319,798.78149 L -546.50808,798.57233 z M -563.21276,791.48293 C -562.38836,791.54623 -561.6105,791.76919 -560.87919,792.15182 C -560.14787,792.53446 -559.51353,793.05329 -558.97617,793.70833 C -558.44529,794.36288 -558.0416,795.14314 -557.7651,796.04913 C -557.48859,796.95512 -557.39271,797.95987 -557.47744,799.0634 C -557.56217,800.16691 -557.80783,801.15524 -558.21441,802.02838 C -558.62099,802.90149 -559.1478,803.63969 -559.79484,804.24298 C -560.43489,804.84025 -561.17084,805.28326 -562.00268,805.572 C -562.83451,805.86071 -563.70807,805.96993 -564.62335,805.89967 C -565.30493,805.84732 -565.91512,805.71558 -566.45393,805.50446 C -566.99272,805.2933 -567.50033,805.016 -567.97674,804.67254 L -568.4268,805.304 L -569.20576,805.24419 L -568.91508,800.31056 L -568.11665,800.37186 C -568.04966,800.86019 -567.93387,801.39308 -567.76927,801.97053 C -567.60465,802.54797 -567.39774,803.04215 -567.14853,803.45307 C -566.87083,803.91839 -566.52737,804.29247 -566.11814,804.57529 C -565.70889,804.85809 -565.22839,805.02068 -564.67664,805.06305 C -564.04698,805.11139 -563.45042,805.01681 -562.88697,804.77931 C -562.32351,804.54179 -561.82286,804.16561 -561.38503,803.65075 C -560.96816,803.15385 -560.62147,802.50793 -560.34495,801.71297 C -560.06843,800.918 -559.8918,800.02069 -559.81504,799.02103 C -559.74725,798.13821 -559.79705,797.31982 -559.96443,796.56587 C -560.13181,795.8119 -560.40179,795.13985 -560.77437,794.5497 C -561.14744,793.96604 -561.60602,793.49661 -562.15009,793.14142 C -562.69415,792.78622 -563.31671,792.58171 -564.01778,792.52788 C -564.54356,792.48751 -565.03352,792.53314 -565.48765,792.66477 C -565.94176,792.79641 -566.34157,792.98608 -566.68708,793.2338 C -567.03356,793.49449 -567.3441,793.79713 -567.61869,794.1417 C -567.89326,794.48627 -568.1249,794.86679 -568.3136,795.28326 L -569.01695,794.87666 C -568.35352,793.54985 -567.53838,792.62811 -566.57151,792.11142 C -565.60463,791.59473 -564.48505,791.38524 -563.21276,791.48293 L -563.21276,791.48293 z M -584.24334,789.88628 L -578.51879,790.44714 L -578.5864,791.1372 C -578.74317,791.13492 -578.97023,791.1323 -579.26759,791.12933 C -579.56493,791.12637 -579.77122,791.1454 -579.88646,791.18645 C -580.08845,791.24515 -580.24258,791.34944 -580.34886,791.4993 C -580.45511,791.64915 -580.52062,791.85043 -580.54539,792.10313 L -581.02626,797.01127 L -574.54363,797.6464 L -574.07323,792.84517 C -574.05101,792.61839 -574.06954,792.4236 -574.12882,792.26079 C -574.18809,792.09799 -574.32217,791.94748 -574.53105,791.80927 C -574.63548,791.74016 -574.82576,791.66264 -575.10191,791.57671 C -575.37804,791.49078 -575.59679,791.43664 -575.75815,791.41429 L -575.69054,790.72424 L -569.96599,791.2851 L -570.0336,791.97516 C -570.19038,791.97288 -570.41744,791.97026 -570.71479,791.96729 C -571.01214,791.96432 -571.21843,791.98336 -571.33366,792.02441 C -571.53566,792.08311 -571.68979,792.1874 -571.79606,792.33725 C -571.90232,792.48711 -571.96783,792.68839 -571.99259,792.94108 L -572.96767,802.89343 C -572.98798,803.10076 -572.96443,803.29441 -572.89703,803.47438 C -572.82961,803.65432 -572.697,803.80305 -572.49919,803.92057 C -572.33249,804.02193 -572.12759,804.11723 -571.88449,804.20648 C -571.64138,804.2957 -571.42974,804.35569 -571.24959,804.38643 L -571.3172,805.07649 L -577.04175,804.51563 L -576.97414,803.82557 C -576.79207,803.83685 -576.5673,803.82944 -576.29981,803.80333 C -576.03231,803.77719 -575.83155,803.7478 -575.69752,803.71515 C -575.4696,803.65897 -575.3095,803.54382 -575.21721,803.36971 C -575.12492,803.19558 -575.0683,803.00161 -575.04736,802.7878 L -574.62838,798.5114 L -581.11101,797.87627 L -581.52047,802.05547 C -581.54077,802.2628 -581.51722,802.45645 -581.44983,802.63642 C -581.3824,802.81636 -581.24979,802.9651 -581.05198,803.08261 C -580.88528,803.18397 -580.68038,803.27928 -580.43729,803.36852 C -580.19417,803.45774 -579.98253,803.51773 -579.80239,803.54847 L -579.87,804.23853 L -585.59454,803.67767 L -585.52694,802.98761 C -585.34486,802.9989 -585.12009,802.99148 -584.85261,802.96537 C -584.5851,802.93923 -584.38434,802.90984 -584.25032,802.87719 C -584.02239,802.82101 -583.86229,802.70587 -583.77001,802.53175 C -583.67771,802.35762 -583.62109,802.16365 -583.60016,801.94984 L -582.62603,792.00721 C -582.6038,791.78043 -582.62233,791.58564 -582.68162,791.42284 C -582.74088,791.26003 -582.87496,791.10952 -583.08384,790.97131 C -583.18827,790.9022 -583.37855,790.82468 -583.65471,790.73875 C -583.93083,790.65283 -584.14958,790.59869 -584.31094,790.57634 L -584.24334,789.88628 z M -592.11574,788.89959 L -585.92973,789.72047 L -586.02094,790.40781 C -586.19691,790.39759 -586.45117,790.38355 -586.78375,790.36569 C -587.11632,790.34783 -587.35379,790.35572 -587.49618,790.38937 C -587.72029,790.445 -587.89038,790.53901 -588.00646,790.67137 C -588.12253,790.80374 -588.1977,790.999 -588.23196,791.25715 L -589.55256,801.20897 C -589.58253,801.43485 -589.57209,801.62833 -589.52123,801.78943 C -589.47036,801.9505 -589.31947,802.10023 -589.06857,802.23862 C -588.88523,802.34175 -588.65123,802.44668 -588.36658,802.55343 C -588.08192,802.66015 -587.84686,802.73238 -587.66142,802.77014 L -587.75263,803.45748 L -593.93863,802.63659 L -593.84742,801.94926 C -593.64649,801.96934 -593.40449,801.97683 -593.12141,801.97172 C -592.83832,801.96658 -592.58924,801.94545 -592.37416,801.90833 C -592.11863,801.86342 -591.93736,801.75941 -591.83034,801.5963 C -591.72331,801.43317 -591.65567,801.24512 -591.62741,801.03215 L -590.30809,791.09001 C -590.27983,790.87703 -590.30157,790.68205 -590.37331,790.50506 C -590.44505,790.32807 -590.58744,790.17618 -590.80048,790.0494 C -590.92916,789.97978 -591.14271,789.89398 -591.44113,789.79199 C -591.73955,789.69 -591.99482,789.62164 -592.20695,789.58693 L -592.11574,788.89959 z M -605.47608,791.10946 L -604.62337,787.06692 L -593.89464,788.5451 L -593.98928,789.23197 C -594.14584,789.22354 -594.37307,789.21523 -594.67097,789.20705 C -594.96886,789.19887 -595.17941,789.21258 -595.30261,789.24818 C -595.50764,789.30536 -595.6648,789.40857 -595.77409,789.55782 C -595.88337,789.70706 -595.95534,789.90744 -595.99,790.15897 L -597.34422,799.988 C -597.37443,800.20727 -597.364,800.40586 -597.31294,800.58378 C -597.26187,800.76167 -597.1338,800.91733 -596.92874,801.05074 C -596.79106,801.14856 -596.59351,801.253 -596.33608,801.36406 C -596.07864,801.47509 -595.86374,801.54906 -595.69139,801.58597 L -595.78602,802.27284 L -601.58089,801.47443 L -601.48625,800.78756 C -601.30477,800.80598 -601.06653,800.80594 -600.77154,800.78745 C -600.47653,800.76894 -600.26143,800.746 -600.12623,800.71864 C -599.89627,800.67144 -599.72811,800.55989 -599.62173,800.38397 C -599.51533,800.20803 -599.44748,800.01365 -599.41816,799.80083 L -598.14791,790.58129 C -598.08926,790.15562 -598.06468,789.82219 -598.07417,789.58101 C -598.08365,789.33983 -598.1569,789.14408 -598.29393,788.99377 C -598.42626,788.85724 -598.63672,788.75102 -598.92529,788.67512 C -599.21385,788.59921 -599.62256,788.52483 -600.15142,788.45197 C -600.39005,788.41909 -600.63924,788.39133 -600.899,788.36868 C -601.15875,788.34604 -601.40739,788.33807 -601.64491,788.34477 C -601.87596,788.35237 -602.09129,788.37692 -602.29089,788.41843 C -602.49047,788.45993 -602.64252,788.52606 -602.74704,788.61681 C -603.05233,788.87706 -603.42228,789.28448 -603.85687,789.83908 C -604.29144,790.39368 -604.60222,790.84868 -604.78921,791.20409 L -605.47608,791.10946 z M -617.87524,789.73778 L -617.18101,785.70659 L -605.74172,786.92417 L -605.8151,787.61364 C -606.01069,787.60591 -606.27258,787.60586 -606.60075,787.61349 C -606.92892,787.62112 -607.14397,787.64242 -607.2459,787.6774 C -607.4634,787.75246 -607.62088,787.86337 -607.71834,788.01013 C -607.8158,788.15688 -607.87728,788.35003 -607.90278,788.58956 L -608.95705,798.49455 C -608.97979,798.70818 -608.96434,798.90133 -608.9107,799.074 C -608.85705,799.24665 -608.72245,799.39683 -608.5069,799.52454 C -608.34106,799.6273 -608.11431,799.72672 -607.82664,799.82283 C -607.53897,799.91891 -607.30842,799.98273 -607.13501,800.01429 L -607.2084,800.70376 L -617.87082,799.56886 L -617.51733,796.24778 L -616.78903,796.3253 C -616.71191,796.83108 -616.48755,797.38365 -616.11597,797.983 C -615.74436,798.58232 -615.36711,798.92856 -614.9842,799.0217 C -614.78626,799.06895 -614.54879,799.11386 -614.2718,799.15645 C -613.9948,799.19902 -613.67827,799.23926 -613.32222,799.27717 L -611.15671,799.50766 L -610.57376,794.03079 L -612.12748,793.86541 C -612.62596,793.81235 -612.99511,793.82052 -613.23493,793.88994 C -613.47474,793.95934 -613.69376,794.0948 -613.89199,794.29631 C -614.05439,794.46888 -614.20247,794.70682 -614.33625,795.01013 C -614.47,795.31343 -614.56788,795.60254 -614.62989,795.87748 L -615.3582,795.79996 L -614.78455,790.41048 L -614.05624,790.488 C -614.06341,790.8015 -614.02879,791.13745 -613.95237,791.49587 C -613.87593,791.85427 -613.78449,792.11771 -613.67803,792.28618 C -613.50421,792.56001 -613.29358,792.74939 -613.04614,792.8543 C -612.79868,792.9592 -612.46456,793.03404 -612.04376,793.07884 L -610.49004,793.24421 L -610.04973,789.10742 C -610.00562,788.6931 -609.99995,788.36307 -610.03273,788.11733 C -610.06549,787.8716 -610.15949,787.67827 -610.31472,787.53736 C -610.46995,787.39644 -610.69133,787.29267 -610.97887,787.22606 C -611.26639,787.15944 -611.67882,787.09754 -612.21616,787.04035 C -612.42979,787.01761 -612.7114,786.98763 -613.061,786.95042 C -613.41058,786.91321 -613.70651,786.89481 -613.94881,786.89521 C -614.19756,786.89492 -614.45666,786.91481 -614.72609,786.95488 C -614.99551,786.99494 -615.19145,787.06739 -615.31392,787.1722 C -615.64478,787.45125 -616.00728,787.88897 -616.4014,788.48538 C -616.7955,789.08178 -617.05372,789.52405 -617.17607,789.8122 L -617.87524,789.73778 z M -633.92199,797.74062 C -633.73964,797.74595 -633.4569,797.71215 -633.07377,797.63924 C -632.69061,797.56629 -632.41444,797.48314 -632.24527,797.38978 C -632.00081,797.24257 -631.82297,796.94098 -631.71176,796.48501 C -631.60052,796.02902 -631.52187,795.44696 -631.4758,794.73884 L -630.81689,784.61377 L -629.96908,784.66894 L -622.32464,796.52829 L -621.86043,789.39494 C -621.80842,788.59585 -621.81882,787.97864 -621.89161,787.5433 C -621.96441,787.10797 -622.09883,786.79258 -622.29489,786.59715 C -622.43501,786.4445 -622.73493,786.29123 -623.19467,786.13736 C -623.65439,785.98348 -623.95875,785.89843 -624.10776,785.88221 L -624.06273,785.19032 L -618.39113,785.5594 L -618.43616,786.2513 C -618.61242,786.25288 -618.91214,786.29698 -619.33532,786.38362 C -619.75851,786.47025 -620.02503,786.55566 -620.1349,786.63985 C -620.37412,786.80696 -620.54811,787.07455 -620.65688,787.44261 C -620.76565,787.81067 -620.84941,788.44622 -620.90818,789.34926 L -621.35147,796.16102 C -621.37091,796.45986 -621.33839,796.76209 -621.25389,797.06771 C -621.16939,797.37331 -621.04472,797.61303 -620.87988,797.78688 C -620.65995,798.01647 -620.35518,798.22062 -619.96558,798.3993 C -619.57596,798.57796 -619.25815,798.68183 -619.01212,798.7109 L -619.05714,799.4028 L -623.00387,799.14596 L -630.09422,788.09578 L -630.52229,794.67367 C -630.5747,795.47924 -630.56299,796.10143 -630.48718,796.54024 C -630.41133,796.97902 -630.28062,797.27622 -630.09503,797.43184 C -629.92114,797.56711 -629.63174,797.70664 -629.22682,797.85044 C -628.82189,797.99421 -628.51265,798.07958 -628.29911,798.10653 L -628.34414,798.79843 L -633.96701,798.43251 L -633.92199,797.74062 z M -642.93767,790.8115 C -643.2249,790.48091 -643.43512,790.12074 -643.56831,789.73099 C -643.70149,789.34123 -643.76359,788.88923 -643.75462,788.37499 C -643.73323,787.15121 -643.2632,786.15016 -642.34453,785.37182 C -641.42584,784.59347 -640.29603,784.21601 -638.95509,784.23944 C -638.33669,784.25024 -637.71998,784.35705 -637.10494,784.55988 C -636.48989,784.76271 -635.96019,785.00475 -635.51582,785.28599 L -635.08351,784.58055 L -634.30238,784.59419 L -634.24857,789.34195 L -635.03947,789.32813 C -635.19197,788.73944 -635.37313,788.20722 -635.58295,787.73148 C -635.79277,787.25574 -636.07311,786.80969 -636.42397,786.39335 C -636.75574,786.00338 -637.14585,785.69053 -637.59428,785.45479 C -638.0427,785.21906 -638.56634,785.09596 -639.16521,785.0855 C -639.61436,785.07766 -640.00757,785.12939 -640.34486,785.24071 C -640.68214,785.35202 -640.95681,785.51326 -641.16887,785.72443 C -641.38091,785.9356 -641.53992,786.18514 -641.64588,786.47305 C -641.75183,786.76096 -641.80811,787.09368 -641.81471,787.47123 C -641.82437,788.02453 -641.67715,788.54313 -641.37307,789.02704 C -641.06896,789.51093 -640.60988,789.88196 -639.99581,790.14013 C -639.57565,790.31676 -639.09397,790.51237 -638.55076,790.72698 C -638.00755,790.94157 -637.539,791.14347 -637.14511,791.33268 C -636.37012,791.69782 -635.77116,792.16897 -635.34824,792.74611 C -634.92531,793.32324 -634.72186,794.07072 -634.73789,794.98856 C -634.7471,795.51581 -634.86309,796.0054 -635.08587,796.45732 C -635.30864,796.90921 -635.62168,797.3107 -636.02502,797.6618 C -636.40847,797.99368 -636.859,798.25115 -637.3766,798.43421 C -637.8942,798.61724 -638.4329,798.70387 -638.99272,798.69411 C -639.63063,798.68295 -640.20013,798.57533 -640.70121,798.37125 C -641.20227,798.16714 -641.65883,797.93127 -642.07089,797.66363 L -642.48282,798.32059 L -643.26395,798.30695 L -643.26173,793.70668 L -642.47083,793.72049 C -642.33683,794.25025 -642.18453,794.75754 -642.01395,795.24238 C -641.84334,795.72719 -641.61825,796.16739 -641.33867,796.56297 C -641.06535,796.94539 -640.72886,797.25242 -640.32921,797.48406 C -639.92954,797.71567 -639.43679,797.8366 -638.85094,797.84685 C -638.23254,797.85763 -637.70181,797.66831 -637.25875,797.27886 C -636.81568,796.8894 -636.58914,796.40825 -636.57914,795.83544 C -636.56867,795.23656 -636.69996,794.73777 -636.97299,794.33907 C -637.24601,793.94035 -637.64719,793.6094 -638.17653,793.34622 C -638.64773,793.11008 -639.11135,792.90501 -639.56737,792.73101 C -640.02337,792.557 -640.46454,792.37186 -640.89087,792.17559 C -641.27848,791.99951 -641.65104,791.80092 -642.00857,791.5798 C -642.36608,791.35867 -642.67578,791.10257 -642.93767,790.8115 L -642.93767,790.8115 z M -651.46861,784.62643 L -645.23022,784.47507 L -645.2134,785.16823 C -645.38881,785.18551 -645.64217,785.21119 -645.97347,785.24528 C -646.30477,785.27937 -646.53813,785.3241 -646.67355,785.37949 C -646.88627,785.46931 -647.03967,785.58862 -647.13375,785.73743 C -647.22782,785.88624 -647.2717,786.09082 -647.26539,786.35116 L -647.0219,796.38727 C -647.01637,796.61505 -646.97595,796.80456 -646.90065,796.95578 C -646.82534,797.10698 -646.653,797.23142 -646.38363,797.32909 C -646.18648,797.40245 -645.93901,797.46971 -645.64121,797.53087 C -645.34342,797.59201 -645.09999,797.62681 -644.91093,797.63526 L -644.89411,798.32842 L -651.13251,798.47977 L -651.14933,797.78662 C -650.94771,797.7752 -650.70749,797.74495 -650.42866,797.69587 C -650.14981,797.64676 -649.90705,797.58714 -649.70036,797.51702 C -649.45493,797.4329 -649.29204,797.30196 -649.2117,797.12419 C -649.13135,796.9464 -649.09378,796.75011 -649.09899,796.53535 L -649.34225,786.509 C -649.34746,786.29422 -649.39926,786.10499 -649.49767,785.94131 C -649.59606,785.77763 -649.76034,785.64975 -649.99051,785.55765 C -650.12845,785.50889 -650.35275,785.45735 -650.66341,785.40302 C -650.97406,785.34869 -651.23685,785.32088 -651.4518,785.31958 L -651.46861,784.62643 z M -661.42842,791.57281 C -661.74147,791.26655 -661.98014,790.92457 -662.14445,790.54688 C -662.30874,790.16918 -662.40722,789.72369 -662.4399,789.21041 C -662.51764,787.98892 -662.13018,786.95311 -661.27752,786.10296 C -660.42484,785.25281 -659.32929,784.78514 -657.99086,784.69995 C -657.37362,784.66066 -656.75028,784.71721 -656.12084,784.86959 C -655.4914,785.02197 -654.94384,785.22034 -654.47816,785.46469 L -654.10437,784.72656 L -653.3247,784.67694 L -652.88678,789.40476 L -653.6762,789.45501 C -653.87585,788.88059 -654.09949,788.36478 -654.34713,787.90759 C -654.59477,787.45039 -654.91029,787.0285 -655.2937,786.64192 C -655.65595,786.28008 -656.0701,785.99983 -656.53614,785.80117 C -657.00217,785.60251 -657.53406,785.5222 -658.13181,785.56025 C -658.58012,785.58878 -658.96785,785.67217 -659.29503,785.81042 C -659.62219,785.94867 -659.8829,786.13162 -660.07717,786.35926 C -660.27143,786.5869 -660.40972,786.84849 -660.49203,787.14403 C -660.57433,787.43957 -660.60349,787.77576 -660.57951,788.1526 C -660.54435,788.70487 -660.35564,789.20985 -660.01338,789.66755 C -659.67111,790.12525 -659.1835,790.4579 -658.55055,790.66552 C -658.11747,790.80756 -657.62154,790.96354 -657.06275,791.13348 C -656.50394,791.3034 -656.02059,791.46671 -655.61268,791.62341 C -654.81067,791.92463 -654.17555,792.34575 -653.70729,792.88677 C -653.23904,793.42777 -652.97576,794.15633 -652.91745,795.07245 C -652.88395,795.59872 -652.95993,796.09609 -653.14539,796.56456 C -653.33085,797.033 -653.61038,797.45852 -653.98397,797.8411 C -654.3393,798.20293 -654.76751,798.49603 -655.2686,798.72038 C -655.76968,798.94471 -656.29961,799.07466 -656.85838,799.11024 C -657.4951,799.15075 -658.07144,799.08958 -658.58739,798.92673 C -659.10333,798.76384 -659.57748,798.5657 -660.00986,798.33229 L -660.36726,799.02044 L -661.14693,799.07007 L -661.51707,794.48471 L -660.72765,794.43446 C -660.55121,794.95164 -660.35835,795.44494 -660.14908,795.91437 C -659.93979,796.38379 -659.67981,796.80432 -659.36912,797.17597 C -659.06575,797.53502 -658.70552,797.81381 -658.28843,798.01233 C -657.87132,798.21084 -657.3704,798.29148 -656.78565,798.25428 C -656.1684,798.21498 -655.65474,797.98331 -655.24465,797.55929 C -654.83456,797.13523 -654.64771,796.63733 -654.6841,796.06559 C -654.72215,795.46783 -654.89337,794.9813 -655.19778,794.60601 C -655.50217,794.2307 -655.92883,793.93331 -656.47774,793.71383 C -656.96651,793.51661 -657.44519,793.34974 -657.9138,793.21322 C -658.3824,793.07669 -658.83711,792.92786 -659.27793,792.76674 C -659.67851,792.62262 -660.06592,792.45483 -660.44018,792.26338 C -660.81441,792.07192 -661.14383,791.84173 -661.42842,791.57281 L -661.42842,791.57281 z "
         id="text11886" />
    </g>
  </g>
</svg>
