<?xml version="1.0" encoding="UTF-8" standalone="no"?>
<!-- Created with Inkscape (http://www.inkscape.org/) -->

<svg
   xmlns:dc="http://purl.org/dc/elements/1.1/"
   xmlns:cc="http://creativecommons.org/ns#"
   xmlns:rdf="http://www.w3.org/1999/02/22-rdf-syntax-ns#"
   xmlns:svg="http://www.w3.org/2000/svg"
   xmlns="http://www.w3.org/2000/svg"
   xmlns:xlink="http://www.w3.org/1999/xlink"
   version="1.0"
   width="500"
   height="600"
   id="svg2">
  <metadata
     id="metadata409">
    <rdf:RDF>
      <cc:Work
         rdf:about="">
        <dc:format>image/svg+xml</dc:format>
        <dc:type
           rdf:resource="http://purl.org/dc/dcmitype/StillImage" />
        <cc:license
           rdf:resource="http://creativecommons.org/licenses/by-sa/2.5/" />
        <dc:title></dc:title>
        <dc:date>2008-12-16</dc:date>
        <dc:creator>
          <cc:Agent>
            <dc:title>Osmar Valdebenito G.</dc:title>
          </cc:Agent>
        </dc:creator>
        <dc:source>Wikimedia Commons</dc:source>
        <dc:subject>
          <rdf:Bag>
            <rdf:li>maule region coat escudo chile</rdf:li>
          </rdf:Bag>
        </dc:subject>
        <dc:description>Escudo de armas de la VI Región del Maule</dc:description>
      </cc:Work>
      <cc:License
         rdf:about="http://creativecommons.org/licenses/by-sa/2.5/">
        <cc:permits
           rdf:resource="http://web.resource.org/cc/Reproduction" />
        <cc:permits
           rdf:resource="http://web.resource.org/cc/Distribution" />
        <cc:requires
           rdf:resource="http://web.resource.org/cc/Notice" />
        <cc:requires
           rdf:resource="http://web.resource.org/cc/Attribution" />
        <cc:permits
           rdf:resource="http://web.resource.org/cc/DerivativeWorks" />
        <cc:requires
           rdf:resource="http://web.resource.org/cc/ShareAlike" />
      </cc:License>
    </rdf:RDF>
  </metadata>
  <defs
     id="defs5">
    <linearGradient
       id="linearGradient10999">
      <stop
         id="stop11001"
         style="stop-color:#ffcc00;stop-opacity:1"
         offset="0" />
      <stop
         id="stop11009"
         style="stop-color:#ff5400;stop-opacity:1"
         offset="1" />
    </linearGradient>
    <linearGradient
       x1="375.08768"
       y1="711.92914"
       x2="392.49213"
       y2="735.66571"
       id="linearGradient12316"
       xlink:href="#linearGradient10999"
       gradientUnits="userSpaceOnUse" />
    <linearGradient
       x1="375.08768"
       y1="711.92914"
       x2="392.49213"
       y2="735.66571"
       id="linearGradient12318"
       xlink:href="#linearGradient10999"
       gradientUnits="userSpaceOnUse"
       gradientTransform="matrix(-1,0,0,1,521.9847,0)" />
  </defs>
  <text
     x="149.53918"
     y="378.89688"
     id="text6536"
     xml:space="preserve"
     style="font-size:10px;font-style:normal;font-variant:normal;font-weight:normal;font-stretch:normal;text-align:center;line-height:100%;writing-mode:lr-tb;text-anchor:middle;fill:#000000;fill-opacity:1;stroke:none;font-family:Calibri"><tspan
       x="149.53918"
       y="378.89688"
       id="tspan6538" /></text>
  <g
     transform="matrix(0.9698467,0,0,0.9698467,7.538325,3.8615618)"
     id="g12276">
    <g
       id="g12224">
      <path
         d="m 246.46117,22.012207 c -17.45803,0.287908 -32.56116,5.717857 -58.81527,16.066267 -37.37302,13.033289 -55.95558,9.575625 -91.018589,-4.742026 l -59.169159,60.018477 15.99549,17.446405 c 31.680051,34.58657 33.458965,79.04452 5.803674,143.78247 -21.331802,49.93548 -22.773174,96.77752 -3.85732,125.38058 18.457279,27.90972 53.830744,45.61923 102.201274,51.13603 48.39981,6.92653 57.25313,13.18681 92.39873,42.60746 35.14557,-29.42065 43.96353,-35.68093 92.36334,-42.60746 48.37052,-5.5168 83.744,-23.22631 102.20128,-51.13603 18.91584,-28.60306 17.50987,-75.4451 -3.82194,-125.38058 -27.65526,-64.73795 -25.87637,-109.1959 5.80368,-143.78247 L 462.54185,93.354925 403.3373,33.336448 C 368.27431,47.654099 349.72712,51.111763 312.3541,38.078474 284.34977,27.040171 269.01828,21.586061 250,22.012207 c -1.18864,-0.02663 -2.37495,-0.01919 -3.53883,0 z"
         id="path2174"
         style="fill:#ffffff;stroke:#000000;stroke-width:25;stroke-miterlimit:4;stroke-dasharray:none" />
      <path
         d="m 68.387485,249.35164 181.137615,0 0,219.7337 C 176.26037,411.0124 8.6346579,448.67591 68.387485,249.35164 z"
         id="path6632"
         style="fill:#ed1c24;fill-opacity:1;fill-rule:evenodd;stroke:#000000;stroke-width:1.03109074;stroke-linecap:butt;stroke-linejoin:miter;stroke-miterlimit:4;stroke-opacity:1;stroke-dasharray:none" />
      <path
         d="m 434.66243,249.35164 -185.13761,0 0,219.7337 c 73.26471,-58.07294 265.39286,-24.40749 185.13761,-219.7337 z"
         id="path7519"
         style="fill:#008f4c;fill-opacity:1;fill-rule:evenodd;stroke:none" />
      <path
         d="m 249.52482,249.35164 180.78378,0 C 384.46962,175.79211 473.03367,126.1844 453.85899,98.473518 L 401.66897,23.049471 C 374.82273,43.126081 360.20705,59.48372 249.52482,10.663896 l 0,238.687744 z"
         id="path8408"
         style="fill:#eac102;fill-opacity:1;fill-rule:evenodd;stroke:#000000;stroke-width:1.03109074;stroke-linecap:butt;stroke-linejoin:miter;stroke-miterlimit:4;stroke-opacity:1;stroke-dasharray:none" />
      <path
         d="m 58.159351,307.71721 41.004879,0 32.80392,-33.31701 42.37164,55.97261 75.17565,0 m -191.356089,-3.55385 41.004879,0 29.61465,-27.09782 40.09361,49.75343 80.64295,0 m -191.356089,-3.55386 41.004879,0 26.42539,-20.87862 37.81556,43.53421 86.11026,0 m -191.356089,-3.55383 41.004879,0 23.23612,-14.65944 35.53753,37.31506 91.57756,0"
         id="path1943"
         style="fill:none;stroke:#ffffff;stroke-width:6.56663132;stroke-linecap:butt;stroke-linejoin:miter;stroke-miterlimit:4;stroke-opacity:1;stroke-dasharray:none" />
      <g
         transform="matrix(0.7992618,0,0,0.7992618,72.240685,30.731367)"
         id="g7058">
        <g
           transform="matrix(0.3719204,0,0,0.4110979,237.31845,82.892822)"
           id="g2051">
          <path
             d="m 78.00039,354.00177 144.00072,0 18.00009,-18.00009 0,-234.00117 -162.00081,0 0,252.00126 z"
             id="buchu-1"
             style="fill:none;stroke:#000000;stroke-width:8.00004005;stroke-linecap:butt;stroke-linejoin:round;stroke-miterlimit:10" />
          <path
             d="m 258.00129,354.00177 144.00072,0 0,-252.00126 -162.00081,0 0,234.00117 18.00009,18.00009 z"
             id="buchu-2"
             style="fill:none;stroke:#000000;stroke-width:8.00004005;stroke-linecap:butt;stroke-linejoin:round;stroke-miterlimit:10" />
          <path
             d="m 96.00048,330.00165 -18.00009,24.00012 144.00072,0 18.00009,-18.00009 -18.00009,-6.00003 -126.00063,0 z"
             id="buchs-1"
             style="fill:#e9ddaf;fill-rule:evenodd;stroke:#202020;stroke-width:1.64960599;stroke-linecap:butt;stroke-linejoin:miter;stroke-miterlimit:10;stroke-dasharray:none" />
          <path
             d="m 384.00192,330.00165 -126.00063,0 -18.00009,6.00003 18.00009,18.00009 144.00072,0 -18.00009,-24.00012 z"
             id="buchs-2"
             style="fill:#e9ddaf;fill-rule:evenodd;stroke:#202020;stroke-width:1.64960599;stroke-linecap:butt;stroke-linejoin:miter;stroke-miterlimit:10;stroke-dasharray:none" />
          <path
             d="m 402.00201,102.00051 -18.00009,-24.00012 0,252.00126 18.00009,24.00012 0,-252.00126 z"
             id="buchs-3"
             style="fill:#e9ddaf;fill-opacity:1;fill-rule:evenodd;stroke:#202020;stroke-width:1.64960599;stroke-linecap:butt;stroke-linejoin:miter;stroke-miterlimit:10;stroke-dasharray:none" />
          <path
             d="m 78.00039,102.00051 0,252.00126 18.00009,-24.00012 0,-252.00126 -18.00009,24.00012 z"
             id="buchs-4"
             style="fill:#e9ddaf;fill-rule:evenodd;stroke:#000000;stroke-width:1.64960599;stroke-linecap:butt;stroke-linejoin:miter;stroke-miterlimit:10;stroke-dasharray:none" />
          <path
             d="m 96.00048,330.00165 126.00063,0 18.00009,6.00003 0,-252.00126 -18.00009,-6.00003 -126.00063,0 0,252.00126 z"
             id="bucho-1"
             style="fill:#ffffff;fill-rule:evenodd;stroke:#202020;stroke-width:1.64960599;stroke-linecap:butt;stroke-linejoin:miter;stroke-miterlimit:10;stroke-dasharray:none" />
          <path
             d="m 240.0012,336.00168 18.00009,-6.00003 126.00063,0 0,-252.00126 -126.00063,0 -18.00009,6.00003 0,252.00126 z"
             id="bucho-2"
             style="fill:#ffffff;fill-opacity:1;fill-rule:evenodd;stroke:#202020;stroke-width:1.64960599;stroke-linecap:butt;stroke-linejoin:miter;stroke-miterlimit:10;stroke-dasharray:none" />
        </g>
      </g>
      <g
         transform="translate(-2,0)"
         id="g7072">
        <path
           d="m 451.06465,342.11458 -199.53955,-1.33267 0,144.43423 c 73.26471,-58.07291 216.92066,-37.06503 199.53955,-143.10156 z"
           id="path2866"
           style="fill:#ffffff;fill-opacity:1;fill-rule:evenodd;stroke:none" />
        <path
           d="m 457.27236,338.28214 c -9.2039,8.29452 -13.24674,-8.74658 -22.87294,0 -9.2039,8.29452 -13.24675,-8.74658 -22.87295,0 -9.2039,8.29452 -13.24674,-8.74658 -22.87294,0 -9.2039,8.29452 -13.24674,-8.74658 -22.87294,0 -9.2039,8.29452 -13.24674,-8.74658 -22.87294,0 -9.2039,8.29452 -13.24675,-8.74658 -22.87295,0 -9.2039,8.29452 -13.24674,-8.74658 -22.87294,0 -9.2039,8.29452 -13.24674,-8.74658 -22.87294,0 -9.2039,8.29452 -13.24675,-8.74658 -22.764,0 l 0,7.62644 199.43191,0 6.31563,-7.62644 z"
           id="path4853"
           style="fill:#00007d;fill-opacity:1;fill-rule:evenodd;stroke:none" />
        <path
           d="m 457.27236,363.42578 c -9.2039,8.29452 -13.24674,-8.74658 -22.87294,0 -9.2039,8.29452 -13.24675,-8.74658 -22.87295,0 -9.2039,8.29452 -13.24674,-8.74658 -22.87294,0 -9.2039,8.29452 -13.24674,-8.74658 -22.87294,0 -9.2039,8.29452 -13.24674,-8.74658 -22.87294,0 -9.2039,8.29452 -13.24675,-8.74658 -22.87295,0 -9.2039,8.29452 -13.24674,-8.74658 -22.87294,0 -9.2039,8.29452 -13.24674,-8.74658 -22.87294,0 -9.2039,8.29452 -13.24675,-8.74658 -22.764,0 l 0,7.62644 199.43191,0 6.31563,-7.62644 z"
           id="path5795"
           style="fill:#00007d;fill-opacity:1;fill-rule:evenodd;stroke:none" />
        <path
           d="m 434.39942,388.56941 c -9.2039,8.29451 -13.24675,-8.74659 -22.87295,0 -9.2039,8.29451 -13.24674,-8.74659 -22.87294,0 -9.2039,8.29451 -13.24674,-8.74659 -22.87294,0 -9.2039,8.29451 -13.24674,-8.74659 -22.87294,0 -9.2039,8.29451 -13.24675,-8.74659 -22.87295,0 -9.2039,8.29451 -13.24674,-8.74659 -22.87294,0 -9.2039,8.29451 -13.24674,-8.74659 -22.87294,0 -9.2039,8.29451 -13.24675,-8.74659 -22.764,0 l 0,7.62643 173.80199,0 9.07261,-7.62643 z"
           id="path5797"
           style="fill:#00007d;fill-opacity:1;fill-rule:evenodd;stroke:none" />
        <path
           d="m 365.78059,413.71305 c -9.2039,8.29452 -13.24674,-8.74658 -22.87294,0 -9.2039,8.29452 -13.24675,-8.74658 -22.87295,0 -9.2039,8.29452 -13.24674,-8.74658 -22.87294,0 -9.2039,8.29452 -13.24674,-8.74658 -22.87294,0 -9.2039,8.29452 -13.24675,-8.74658 -22.764,0 l 0,7.62643 96.83416,0 17.42161,-7.62643 z"
           id="path5799"
           style="fill:#00007d;fill-opacity:1;fill-rule:evenodd;stroke:none" />
        <path
           d="m 297.16176,438.85669 c -9.2039,8.29452 -13.24674,-8.74658 -22.87294,0 -9.2039,8.29452 -13.24675,-8.74658 -22.764,0 l 0,7.62643 37.34212,0 8.29482,-7.62643 z"
           id="path5801"
           style="fill:#00007d;fill-opacity:1;fill-rule:evenodd;stroke:none" />
      </g>
      <g
         transform="matrix(-0.03268548,-0.34324074,0.34360584,-0.03253522,136.48675,245.94352)"
         id="g5011"
         style="fill:#e3e4e5;stroke:#000000;stroke-width:1.49447286;stroke-miterlimit:4;stroke-opacity:1;stroke-dasharray:none">
        <path
           d="m 244.52047,664.76064 c 13.78649,-7.8458 31.22966,2.97793 36.24221,5.48795 11.95154,5.98466 15.21399,5.87684 46.3284,35.35365 l -5.67711,1.00439 c 6.26956,1.65883 11.62087,5.17844 16.86806,8.90907 13.73665,11.27387 23.30969,20.53063 32.26506,30.42915 l -7.38682,2.27991 12.08169,3.08712 c 2.90481,3.65578 5.65439,7.15798 9.05449,11.30389 -11.44148,-5.61232 -21.7282,-7.81995 -32.14369,-10.40719 l 37.25743,16.64174 c 6.16952,6.20566 12.1866,12.8768 17.33563,22.19829 l -18.02691,-2.25937 c 5.40139,1.57536 12.54261,4.1506 20.0586,8.86214 5.23925,5.81961 9.82974,14.44915 13.20174,24.80297 2.16118,6.62439 6.56224,17.30529 -12.65636,11.60324 -11.55885,-3.76178 -23.91973,-10.41847 -35.32139,-21.72177 -2.85949,-4.15954 -4.24517,-11.30574 -6.16462,-17.37027 0.40478,4.33887 -0.91475,6.29025 1.83873,13.88113 -9.96486,-6.52881 -21.2521,-16.9565 -32.21651,-26.43238 l -7.11513,-14.04572 -0.74546,7.04541 c -19.27072,-18.66263 -36.52465,-35.9612 -54.70702,-59.52415 -2.80298,-6.19858 -4.01637,-6.77944 -4.73771,-10.13898 -0.62405,1.09768 -1.07264,4.26946 -1.07264,4.26946 -15.26602,-18.15616 -31.87831,-36.25586 -24.56067,-45.25968 z"
           id="path5026"
           style="fill:#e3e4e5;fill-rule:evenodd;stroke:#000000;stroke-width:1.49447286;stroke-linecap:butt;stroke-linejoin:miter;stroke-miterlimit:4;stroke-opacity:1;stroke-dasharray:none" />
        <path
           d="m 273.71987,687.13583 c 13.87616,-0.0768 25.55421,5.42632 37.43042,10.42639"
           id="path5028"
           style="fill:#e3e4e5;fill-rule:evenodd;stroke:#000000;stroke-width:1.49447286;stroke-linecap:butt;stroke-linejoin:miter;stroke-miterlimit:4;stroke-opacity:1;stroke-dasharray:none" />
        <path
           d="m 282.21651,694.36973 c 9.51947,-1.263 19.69863,3.14056 29.73711,6.33572"
           id="path5030"
           style="fill:#e3e4e5;fill-rule:evenodd;stroke:#000000;stroke-width:1.49447286;stroke-linecap:butt;stroke-linejoin:miter;stroke-miterlimit:4;stroke-opacity:1;stroke-dasharray:none" />
        <path
           d="m 289.7224,700.23183 c 7.01557,0.15304 14.1091,0.68553 21.65656,3.42735"
           id="path5032"
           style="fill:#e3e4e5;fill-rule:evenodd;stroke:#000000;stroke-width:1.49447286;stroke-linecap:butt;stroke-linejoin:miter;stroke-miterlimit:4;stroke-opacity:1;stroke-dasharray:none" />
        <path
           d="m 305.74141,716.47517 c 18.36895,1.82737 27.96745,6.62939 38.81047,11.00931"
           id="path5034"
           style="fill:#e3e4e5;fill-rule:evenodd;stroke:#000000;stroke-width:1.49447286;stroke-linecap:butt;stroke-linejoin:miter;stroke-miterlimit:4;stroke-opacity:1;stroke-dasharray:none" />
        <path
           d="m 311.67568,722.73893 c 3.82213,0.45476 7.87452,0.20645 11.22376,2.10504"
           id="path5036"
           style="fill:#e3e4e5;fill-rule:evenodd;stroke:#000000;stroke-width:1.49447286;stroke-linecap:butt;stroke-linejoin:miter;stroke-miterlimit:4;stroke-opacity:1;stroke-dasharray:none" />
        <path
           d="m 357.75533,769.51219 c 6.978,1.16502 13.89505,2.26973 23.44035,5.97529"
           id="path5038"
           style="fill:#e3e4e5;fill-rule:evenodd;stroke:#000000;stroke-width:1.49447286;stroke-linecap:butt;stroke-linejoin:miter;stroke-miterlimit:4;stroke-opacity:1;stroke-dasharray:none" />
        <path
           d="m 393.35063,805.12766 c 4.05144,0.30251 8.00028,0.43604 13.59045,3.27291"
           id="path5040"
           style="fill:#e3e4e5;fill-rule:evenodd;stroke:#000000;stroke-width:1.49447286;stroke-linecap:butt;stroke-linejoin:miter;stroke-miterlimit:4;stroke-opacity:1;stroke-dasharray:none" />
        <path
           d="m 365.06967,776.35886 c 3.82212,0.45476 7.87452,0.20644 11.22376,2.10503"
           id="path5042"
           style="fill:#e3e4e5;fill-rule:evenodd;stroke:#000000;stroke-width:1.49447286;stroke-linecap:butt;stroke-linejoin:miter;stroke-miterlimit:4;stroke-opacity:1;stroke-dasharray:none" />
        <path
           d="m 299.92739,720.27197 c 0.46911,3.02232 0.54131,8.69228 2.56997,15.30152"
           id="path5044"
           style="fill:#e3e4e5;fill-rule:evenodd;stroke:#000000;stroke-width:1.49447286;stroke-linecap:butt;stroke-linejoin:miter;stroke-miterlimit:4;stroke-opacity:1;stroke-dasharray:none" />
        <path
           d="m 306.37825,726.25962 c 0.053,2.0093 0.32441,4.865 1.42305,7.90906"
           id="path5046"
           style="fill:#e3e4e5;fill-rule:evenodd;stroke:#000000;stroke-width:1.49447286;stroke-linecap:butt;stroke-linejoin:miter;stroke-miterlimit:4;stroke-opacity:1;stroke-dasharray:none" />
        <path
           d="m 187.36309,612.2468 12.4287,21.43726 c 75.4305,58.55771 146.01886,132.01793 217.29178,195.71181 C 330.06321,732.00702 265.42655,674.3402 187.36309,612.2468 z"
           id="path5048"
           style="fill:#e3e4e5;fill-rule:evenodd;stroke:#000000;stroke-width:1.49447286;stroke-linecap:butt;stroke-linejoin:miter;stroke-miterlimit:4;stroke-opacity:1;stroke-dasharray:none" />
      </g>
      <path
         d="m 141.93726,118.35932 c 1.51621,35.63878 5.09761,86.78357 6.99416,97.77888 1.89801,10.99532 1.13881,23.88646 0.75921,25.78155 2.27761,1.51767 5.87872,1.13807 7.39712,0 -1.14099,-20.85402 -6.20868,-30.3959 -8.1556,-55.73506 -1.51841,-19.71667 -3.961,-62.51825 -3.961,-67.82537 -0.001,-5.31151 -3.03389,0 -3.03389,0 z"
         id="path120"
         style="fill:#742e00;fill-opacity:1;stroke:#000000;stroke-width:0.51554537;stroke-miterlimit:4;stroke-dasharray:none" />
      <path
         d="m 167.70931,241.71097 c 0.3796,-5.30786 -0.37741,-12.89114 -0.37741,-29.19358 0,-16.30391 5.43998,-69.27955 8.47242,-79.51785 3.03463,-10.23465 1.89801,0.76066 1.89801,0.76066 -4.16978,19.33561 -6.57879,65.48645 -6.57879,78.37685 0,12.89114 2.65356,27.29849 2.65356,28.81544 -1.13881,1.13808 -4.92899,2.27542 -6.06779,0.75848 z"
         id="path122"
         style="fill:#742e00;fill-opacity:1;stroke:#000000;stroke-width:0.51554537;stroke-miterlimit:4;stroke-dasharray:none" />
      <path
         d="m 136.73379,101.4955 c 0.15184,0.11534 0.29857,0.24455 0.44165,0.3869 0.0336,-0.28908 0.0255,-0.56575 -0.0124,-0.83366 l -0.42924,0.44676 z"
         id="path124"
         style="fill:#009036" />
      <path
         d="m 177.64247,138.72569 c -1.07311,1.9221 -0.48107,3.45292 0.50078,3.31495 0.98405,-0.13651 -2.43821,1.14391 -2.60319,3.5865 -0.15914,2.44114 -0.23068,3.09449 -1.40453,2.77402 -1.17676,-0.31974 -2.48493,-3.2018 -2.87475,-1.5352 -0.39129,1.66587 0.57451,2.66086 -0.65336,1.86443 -1.2264,-0.79789 -2.48858,-0.62269 -2.48858,-0.62269 0,0 -1.59141,-1.55126 -1.49213,0.69058 0.10001,2.24184 0.0241,5.47722 -1.57024,5.21515 -1.59724,-0.26207 -0.90447,-3.09741 -2.69663,-1.23517 -1.79508,1.85932 -2.62947,-1.8929 -3.57921,-0.14892 -0.95192,1.74471 -1.31181,6.30869 0.63584,5.87726 1.94984,-0.43362 1.34758,1.9075 -0.21243,1.96298 -1.56221,0.0555 -2.36084,-3.37846 -3.01054,-4.09678 -0.64678,-0.71467 -1.23079,-6.11378 1.23955,-5.65242 2.47033,0.46282 1.58556,-3.76463 3.81208,-2.94775 2.22797,0.81979 5.26405,-1.37533 4.84722,-2.60539 -0.42194,-1.23151 1.5279,-2.95359 2.23162,-3.05068 0.70227,-0.0971 3.2894,4.05736 5.43634,1.50161 2.14037,-2.55501 1.42278,-2.61487 0.47669,-3.45218 -0.94389,-0.83586 0.25696,-4.22599 0.95412,-3.03244 0.69861,1.19283 3.52445,-0.32996 2.45135,1.59214 z m -25.86038,37.54336 c -0.50444,-0.10439 -1.05121,-0.3066 -1.49651,-0.43289 -1.46804,-0.41683 0.36573,0.83074 -0.73073,3.32079 -1.10523,2.49369 -5.14142,2.49369 -6.97592,-0.41465 -1.83669,-2.90541 -2.20242,2.90834 -4.40411,0 -2.20461,-2.90541 -4.4063,0 -4.77204,2.49297 -0.34602,2.33747 -5.53489,3.21201 -6.17437,1.25487 0.75045,5.85901 -5.17937,6.96278 -4.10408,3.31349 -4.77057,0 -8.80603,-3.32225 -6.23861,-4.56763 2.20169,-3.73762 -0.73292,-4.15226 -2.56815,-3.73762 -1.75274,0.39493 -1.8345,-5.26187 0.71759,-5.05528 -4.40703,-0.93002 1.98561,-3.98217 6.98906,-0.34383 -1.46877,-2.49296 -4.03839,-3.73689 -7.70738,-3.73689 -3.67046,0 -4.03765,-0.83074 -1.10304,-3.73762 -2.93461,-2.49223 2.20242,-3.32079 6.60872,-2.49223 -8.07676,-2.49369 -7.34164,-4.56836 -4.03692,-5.81448 3.30108,-1.24466 0.73147,-1.66076 -2.20169,-2.90615 -4.04057,-1.66148 -3.67265,-4.56763 -0.73511,-4.15226 -5.13996,-4.56763 0.365,-9.13599 3.30254,-9.13599 -2.93754,-1.66149 0,-5.81448 6.97153,-4.15226 1.83815,-2.0776 -1.09938,-2.0776 -5.50569,-3.73908 -4.40411,-1.66076 -0.36719,-5.81229 0.73512,-7.89061 2.20242,1.24611 10.27772,0 5.87288,-1.66149 -3.30546,-2.49151 -4.40412,-4.98301 -0.36793,-4.15226 0.50079,-1.70237 3.34707,-2.28492 6.54011,-2.33529 0.0474,0.79279 0.37376,1.44541 1.14099,1.4111 2.38347,-0.1095 -0.62342,3.68725 2.49443,4.53186 3.11784,0.84462 -0.12921,2.08198 0.79278,4.24863 0.922,2.16592 4.10408,-0.1241 6.19481,-1.90239 2.09,-1.77756 1.76807,1.3359 1.76807,1.3359 0,0 1.09939,1.433 1.23225,3.53468 0.13578,2.10314 0.38617,0.17958 2.28053,-0.56648 1.89801,-0.7468 0.081,2.9952 0.63583,4.6837 0.55846,1.6885 1.24028,1.29503 3.72083,-0.30222 2.47471,-1.59944 6.23642,1.6885 5.37794,0.57305 -0.85411,-1.11252 0.18469,-2.9733 2.82949,-3.0609 2.64919,-0.0913 -0.90447,-2.46449 -0.26645,-4.20847 0.63657,-1.74179 -3.52373,-0.72636 -3.6325,1.05704 -0.10731,1.78632 0.3599,2.72 -3.68725,1.9513 -4.04787,-0.76796 -1.94327,-7.0292 -2.55355,-7.82491 -0.61174,-0.7957 -3.71061,-1.93743 -4.59537,-0.51392 -0.88039,1.42716 -6.87226,2.85942 -7.72125,-0.49494 -0.66138,-2.61634 -1.90166,-2.80395 -3.06456,-4.36762 2.87622,0.192 5.54949,0.66869 6.59413,1.00303 -3.30473,-2.07467 -5.87872,-4.15153 -1.10742,-5.39911 -3.46752,0.73585 -11.18293,-0.26645 -12.39692,-1.20815 L 124.177,113.342 c -5.32027,3.377 -5.32027,-5.43123 -1.16874,-7.48692 -1.55783,-2.05569 1.29722,-4.11065 3.1142,-2.64188 2.85577,-3.230269 -2.59371,-2.34988 -2.33529,-4.406305 0.25989,-2.05496 3.89311,-3.230266 2.07686,-4.696114 -1.81624,-1.468767 -0.77891,-4.406302 2.07687,-2.937535 2.85431,1.469498 1.81624,-2.05423 1.55563,-3.522998 -0.25769,-1.468767 2.33602,-5.581608 4.15226,-4.112841 -1.29575,-2.05423 -3.89165,-6.751074 2.33748,-3.227346 -1.81406,-3.81938 -1.29795,-3.81938 -0.5205,-5.286687 0.78111,-1.470228 2.33748,1.467307 4.67203,0.587653 2.33528,-0.881845 1.03733,-4.112841 2.33528,-4.991766 1.30014,-0.882574 4.41214,-2.644073 5.19106,0 1.42934,-3.228806 3.72521,-3.499637 4.50193,-1.715508 1.41621,-0.446763 2.82803,1.265826 2.40098,4.517993 1.97758,-1.659299 3.63469,1.804569 4.253,3.368967 0.61613,1.561478 -2.08489,3.365317 -0.61831,5.604969 1.46658,2.238191 2.91271,2.595163 2.80832,4.302642 l 1.30963,-1.593599 c 0.21608,-0.15987 2.06445,-0.273751 2.41704,-0.305141 -1.18844,-3.440508 -0.22849,-7.631459 1.8929,-7.219737 l 0.0876,-4.459593 c -1.09865,-5.189596 1.8345,-8.514033 3.12004,-5.605698 1.60017,-1.550528 2.3455,-0.124101 3.07916,1.524977 l -0.411,-7.471588 c 1.10304,-3.737619 2.20169,3.114926 2.75212,0.830744 0.55261,-2.283451 2.20242,-9.135996 3.67265,-6.645224 1.46657,2.492233 1.46657,7.891341 3.12003,6.435713 1.652,-1.452707 2.017,-6.643034 4.58443,-4.152261 1.28407,-2.904685 4.2238,0.416102 3.12222,5.607889 l 0.0876,4.459593 c 2.12066,-0.413183 4.64867,3.785799 3.45803,7.226307 2.38492,0.206591 1.65127,3.94421 -0.55042,4.359582 0,4.567633 3.30107,-0.415372 4.40411,1.246116 1.09865,1.661489 -0.73365,5.399108 1.46804,4.983006 2.20461,-0.415373 3.30326,2.491502 0.36573,3.737619 -2.93754,1.246846 0,2.908335 1.10303,3.739809 1.10012,0.828554 1.8345,5.81156 -0.36792,6.227662 2.18636,0.41318 6.90584,1.64324 0.50224,4.10116 l 0.10002,0.13286 c 3.07039,1.06216 3.10543,1.5206 3.34049,2.77986 0.40588,0.007 0.75337,0.0533 0.93587,0.26207 0.55042,0.62196 -1.28189,2.4915 -3.30254,3.32224 -0.16498,-0.2628 -5.46335,-0.48253 -5.72761,-0.66211 -0.20878,0.23287 -0.39785,0.51465 -0.55261,0.8614 -0.32412,0.73293 -0.29638,1.35927 -0.10731,1.91991 0.28981,0.22266 0.77161,0.23288 1.50089,-0.0431 1.65272,-0.62415 3.48941,0.41611 3.12222,1.871 0.91762,1.03734 7.8198,1.86589 5.61811,3.94421 3.30546,-2.07832 6.4233,-1.04025 6.4233,1.66149 2.57181,-1.24611 3.30327,4.77496 0,6.85109 3.48796,-0.83075 4.95454,-0.41537 3.48796,2.90614 2.93535,-2.28345 7.52415,-0.20659 4.5888,2.90907 -2.35645,2.49734 -4.0048,1.65492 -4.56252,0.90447 0.66211,1.43665 1.14684,1.80311 -1.67755,3.87048 2.01773,-1.24465 3.48796,-2.07613 3.48796,-0.62196 1.46658,-2.07832 2.75284,-2.70029 3.30108,0.20513 4.58953,-0.41537 0.73511,3.5303 -1.09939,3.94567 0.88842,3.81938 -2.3528,4.72239 -4.06028,5.33925 3.0485,0.75482 3.60476,2.63677 2.40901,3.79675 1.83231,2.49296 -8.62499,6.85254 -11.19679,4.15226 -1.652,-0.62197 -4.21943,0.83074 -0.91616,2.07832 3.30327,1.24611 -2.75284,2.49004 -0.73584,3.11419 2.01992,0.62197 8.07676,2.49078 5.87288,4.15227 -2.20023,1.65929 -6.97373,1.65929 -5.68819,3.53102 1.28553,1.86808 5.87215,2.28127 3.67046,5.1896 2.56815,1.45271 -0.36793,4.77714 -4.95673,3.53103 l -3.94348,0.0971 c 0.36792,2.40244 -3.3405,5.26187 -6.38753,3.91501 -0.17885,2.69882 -3.48358,1.86808 -3.8515,-0.62415 -4.03619,0 0.36792,3.73907 -1.10012,4.983 -1.4673,1.24685 -4.77203,-0.82855 -4.40192,1.66222 0.36354,2.49077 -2.20461,3.73689 -3.30546,0.4161 -1.10011,-3.32225 -2.56742,0 -3.30253,1.24393 -0.73512,1.24611 -5.13923,2.07759 -5.50569,-0.41318 -0.36719,2.49077 -1.46804,7.88988 -3.66973,0.41318 -1.10304,4.15445 -1.4695,3.73981 -2.93753,4.15445 -1.46658,0.41537 -0.73366,-2.90834 -2.93535,-4.15445 -2.20169,-1.24393 -3.30254,2.07759 -4.7713,1.66149 -1.46877,-0.41538 -4.77204,-1.66149 -3.67046,-4.15153 -3.30254,1.24684 -5.13923,-0.83148 -4.03619,-2.90615 -1.10304,-1.66149 -0.73585,-3.32444 2.56742,-2.49296 -0.75117,-0.68402 -0.82271,-1.99656 -0.46939,-3.1653 z"
         id="path126"
         style="fill:#009036;stroke:#000000;stroke-width:0.51554537;stroke-miterlimit:4;stroke-dasharray:none" />
      <path
         d="m 176.58542,108.0867 c 1.71478,0.1606 2.5156,-0.81906 2.04109,-1.52351 -0.47304,-0.70227 1.725,1.47022 3.43394,0.75555 1.71186,-0.71467 2.18271,-0.88623 2.42288,0.12045 0.2431,1.00813 -1.19647,2.99812 0.0818,2.72291 1.27751,-0.27448 1.57389,-1.35342 1.51476,-0.14162 -0.0613,1.21035 0.54824,2.11482 0.54824,2.11482 0,0 -0.42779,1.75055 1.04755,0.90156 1.47461,-0.849 3.68871,-1.90385 4.13401,-0.59495 0.44311,1.30816 -1.74106,1.75711 0.21462,2.48858 1.95349,0.72781 -0.25477,2.65721 1.29357,2.7835 1.54615,0.12483 4.76765,-1.17092 3.71645,-2.50829 -1.04975,-1.33956 0.76504,-1.68704 1.4111,-0.51319 0.64605,1.17238 -1.36365,2.96673 -1.59433,3.70769 -0.22995,0.74095 -3.64929,3.0463 -4.30045,0.99791 -0.64752,-2.04839 -3.16019,0.084 -3.4719,-1.89655 -0.3139,-1.98269 -2.97696,-3.54928 -3.6471,-2.80467 -0.66795,0.74241 -2.58932,-0.15257 -2.92878,-0.65701 -0.33799,-0.50224 1.45855,-3.90771 -1.10084,-4.66764 -2.56012,-0.75774 -2.32141,-0.18834 -2.51851,0.82198 -0.19638,1.00814 -2.95068,1.25999 -2.4207,0.3161 0.53218,-0.94609 -1.59286,-2.58057 0.12264,-2.42362 z"
         id="path128"
         style="fill:#ffffff" />
      <path
         d="m 68.387485,249.35164 181.137615,0 0,219.7337 C 176.26037,411.0124 8.6346579,448.67591 68.387485,249.35164 z"
         id="path3919"
         style="fill:none;stroke:#000000;stroke-width:1.03109074;stroke-linecap:butt;stroke-linejoin:miter;stroke-miterlimit:4;stroke-opacity:1;stroke-dasharray:none" />
    </g>
    <path
       d="M 246.1875,6.34375 C 225.63241,6.6827335 208.32483,13.086764 181.90625,23.5 c -17.54838,6.119739 -28.8156,8.342535 -39.96875,7.40625 -11.15315,-0.936285 -22.33312,-5.090849 -39.40625,-12.0625 L 93.75,15.28125 92.84375,14.875 92.125,15.59375 85.46875,22.375 l -59.15625,60 -9.46875,9.5625 -1,1 0.96875,1.0625 9.09375,9.9375 16,17.46875 C 55.605307,136.36213 62.154841,151.7944 62.96875,172 c 0.812619,20.17358 -4.854793,45.37342 -18.125,76.4375 -22.615769,52.94111 -25.929528,104.72798 -2.5,140.15625 21.849818,33.03968 62.23422,52.21549 113.5,58.0625 47.39523,6.78278 49.07135,9.74495 84.09375,39.0625 l 9.09375,7.59375 0.96875,0.8125 0.96875,-0.8125 9.09375,-7.59375 c 35.02267,-29.31778 37.13724,-32.34241 84.53125,-39.125 51.26536,-5.84695 91.18589,-24.96708 113.03125,-58 23.42467,-35.42093 20.1495,-87.20933 -2.46875,-140.15625 -13.2702,-31.06408 -18.93761,-56.26392 -18.125,-76.4375 0.81389,-20.20559 7.36345,-35.63787 21.0625,-50.59375 l 16,-17.46875 9.09375,-9.9375 0.96875,-1.0625 -1,-1 L 473.6875,82.34375 414.5,22.3125 407.84375,15.59375 407.125,14.875 l -0.90625,0.40625 -8.78125,3.5625 c -34.14056,13.940985 -44.8067,16.7092 -79.90625,4.46875 -27.90099,-10.997567 -45.36097,-17.3274917 -67.25,-16.96875 -0.28118,-0.0063 -0.42071,0.00244 -0.59375,0 -1.22175,-0.017205 -2.41474,-0.017897 -3.5,0 z m 0.0625,3 c 1.0473,-0.017271 2.21137,-0.016827 3.40625,0 0.27082,0.00381 0.45353,-0.00384 0.625,0 l 0.0312,0 0.0312,0 c 21.28473,-0.3488377 38.25581,5.796219 66.125,16.78125 l 0.0312,0 0.0312,0.03125 c 35.42665,12.354524 47.80381,9.445213 82.03125,-4.53125 l 7.84375,-3.21875 5.9375,6.03125 59.21875,60 8.4375,8.59375 -8.125,8.875 -16,17.46875 c -14.07835,15.36998 -21.00598,31.70172 -21.84375,52.5 -0.83907,20.8303 4.96456,46.39952 18.34375,77.71875 22.38143,52.39254 25.35757,103.15838 2.75,137.34375 -21.20994,32.07208 -60.1971,50.90399 -110.90625,56.6875 l -0.0312,0 -0.0312,0 c -47.51485,6.79989 -51.03428,10.48498 -86.03125,39.78125 l -8.125,6.8125 -8.125,-6.8125 C 206.88488,454.11574 203.73431,450.4875 156.21875,443.6875 l -0.0312,0 C 105.47878,437.90403 66.049231,419.00286 44.84375,386.9375 22.232072,352.74591 25.245539,301.98169 47.625,249.59375 61.004203,218.27453 66.807823,192.70531 65.96875,171.875 65.130967,151.07672 58.203352,134.74498 44.125,119.375 l -16,-17.46875 L 20,93.03125 28.4375,84.5 87.625,24.46875 l 5.9375,-6.0625 7.84375,3.21875 c 17.10781,6.985815 28.55832,11.297133 40.28125,12.28125 11.72293,0.984117 23.5379,-1.416915 41.25,-7.59375 l 0.0312,0 0.0312,0 C 209.39248,15.90955 226.29028,9.6729148 246.25,9.34375 z"
       id="path5047"
       style="fill:#000000;fill-opacity:1;stroke:none" />
    <path
       d="m 246.21346,7.8453173 c -20.25741,0.3340742 -37.36411,6.6490447 -63.76964,17.0571377 -35.26048,12.296573 -46.29194,9.286217 -80.47288,-4.671249 l -8.77629,-3.574214 -6.652991,6.759157 -59.169159,60.018477 -9.448664,9.554828 9.094781,9.944096 15.99549,17.44641 c 13.888704,15.16293 20.619436,31.05875 21.445282,51.56069 0.825846,20.50194 -4.900245,45.88396 -18.22495,77.07561 -22.497614,52.66453 -25.674722,103.94741 -2.654119,138.75734 21.527648,32.55251 61.44123,51.58451 112.42848,57.39975 47.4554,6.79138 49.89016,10.0831 84.89642,39.38713 l 9.09478,7.60847 9.09478,-7.60847 c 35.00983,-29.30702 37.83126,-32.66667 85.28569,-39.45791 50.98725,-5.81523 90.47617,-24.77647 112.00382,-57.32897 23.01611,-34.80316 19.88111,-86.08761 -2.61873,-138.75734 -13.32469,-31.19165 -19.05079,-56.57367 -18.22495,-77.07561 0.82584,-20.50194 7.55658,-36.39776 21.44528,-51.56069 l 15.99549,-17.44641 9.09478,-9.944096 -9.44866,-9.590216 -59.20455,-60.018478 -6.65299,-6.723768 -8.77629,3.574214 c -34.18399,13.958725 -45.70522,16.791795 -80.96832,4.494308 -27.88508,-10.9913 -45.11998,-17.2339864 -66.70686,-16.8801967 -0.22632,-0.00507 -0.41505,0.00313 -0.63698,0 -1.20832,-0.017016 -2.40177,-0.017584 -3.46805,0 z m 0.49543,28.3106027 c 1.06562,-0.01757 2.0539,-0.02059 2.97262,0 l 0.31849,0 0.31849,0 c 16.14366,-0.361734 28.98904,4.100091 56.83354,15.075396 l 0.2831,0.106164 0.24772,0.106165 c 36.10129,12.589792 60.67816,10.156359 92.08024,-1.557083 l 43.24444,43.810657 -6.90071,7.537701 c -17.79134,19.42363 -27.77162,43.01514 -28.84142,69.5733 -1.0698,26.55817 6.12383,55.77366 20.45441,89.31995 20.16376,47.20123 19.8407,89.63626 5.02513,112.03921 -15.3869,23.26694 -46.22028,39.65396 -91.97407,44.87231 l -0.21233,0.0354 -0.21233,0 C 295.53246,423.4884 279.04928,431.83538 250,455.40055 220.94307,431.83356 204.43128,423.48829 159.6184,417.07508 l -0.21233,0 -0.21233,-0.0354 c -45.75381,-5.21836 -76.587159,-21.60537 -91.974067,-44.87231 -14.811105,-22.39619 -15.105469,-64.83277 5.06052,-112.03921 14.330586,-33.5463 21.52421,-62.76178 20.45441,-89.31995 -1.0698,-26.55816 -11.050079,-50.14967 -28.841426,-69.5733 l -6.90071,-7.537701 43.209053,-43.810657 c 31.40871,11.714349 56.01194,14.147711 92.11563,1.557083 l 0.24772,-0.106165 0.2831,-0.106164 C 218.95066,40.94259 232.05022,36.397663 246.70889,36.15592 z"
       id="path19564"
       style="fill:#0071bc;fill-opacity:1;stroke:#000000;stroke-width:1.03109074;stroke-miterlimit:4;stroke-opacity:1;stroke-dasharray:none" />
    <g
       transform="translate(-10.99235,-164)"
       id="g12212">
      <path
         d="m 373.56916,746.15349 c -1.3634,12.16196 88.33157,14.93975 93.40965,5.78948 -9.68602,-5.4731 -13.36481,-8.82112 -16.06426,-13.38988 11.81382,-7.46043 12.99949,-14.66283 14.05041,-24.3059 -9.67278,11.95007 -76.35849,-3.79221 -79.1579,-10.81621 l -12.2379,42.72251 z"
         id="path44564"
         style="fill:#eac102;fill-opacity:1;fill-rule:evenodd;stroke:#000000;stroke-width:0.73214126px;stroke-linecap:butt;stroke-linejoin:miter;stroke-opacity:1;display:inline" />
      <path
         d="m 370.14683,765.24397 c 8.058,-14.94877 9.58753,-32.70234 21.12606,-33.31143 4.30582,-5.95977 -9.27578,-18.85452 -5.57602,-28.14218 -16.31744,11.29002 -18.60028,23.91445 -27.64761,35.89567 l 12.09757,25.55794 z"
         id="path44562"
         style="fill:url(#linearGradient12316);fill-opacity:1;fill-rule:evenodd;stroke:#000000;stroke-width:0.73214126px;stroke-linecap:butt;stroke-linejoin:miter;stroke-opacity:1;display:inline" />
      <path
         d="m 148.41554,746.15349 c 1.3634,12.16196 -88.33157,14.93975 -93.40965,5.78948 9.68602,-5.4731 13.36481,-8.82112 16.06426,-13.38988 -11.81382,-7.46043 -12.99949,-14.66283 -14.05041,-24.3059 9.67278,11.95007 76.35849,-3.79221 79.1579,-10.81621 l 12.2379,42.72251 z"
         id="path12125"
         style="fill:#eac102;fill-opacity:1;fill-rule:evenodd;stroke:#000000;stroke-width:0.73214126px;stroke-linecap:butt;stroke-linejoin:miter;stroke-opacity:1;display:inline" />
      <path
         d="m 151.83787,765.24397 c -8.058,-14.94877 -9.58753,-32.70234 -21.12606,-33.31143 -4.30582,-5.95977 9.27578,-18.85452 5.57602,-28.14218 16.31744,11.29002 18.60028,23.91445 27.64761,35.89567 l -12.09757,25.55794 z"
         id="path12127"
         style="fill:url(#linearGradient12318);fill-opacity:1;fill-rule:evenodd;stroke:#000000;stroke-width:0.73214126px;stroke-linecap:butt;stroke-linejoin:miter;stroke-opacity:1;display:inline" />
      <path
         d="m 260.98438,718.90625 c 42.46659,0.14558 77.80744,7.29505 108.92187,49.125 5.9374,-15.51181 11.38884,-32.32326 21.65625,-36.34375 -47.50301,-45.83819 -79.97503,-55.49034 -130.57812,-55.65625 -50.59797,0.16701 -83.04664,9.82073 -130.54688,55.65625 10.2674,4.02049 15.71885,20.83194 21.65625,36.34375 31.11314,-41.82821 66.42646,-48.97884 108.89063,-49.125 z"
         id="path44558"
         style="color:#000000;fill:#eac102;fill-opacity:1;fill-rule:evenodd;stroke:#000000;stroke-width:0.66140425;stroke-linecap:butt;stroke-linejoin:miter;stroke-miterlimit:4;stroke-opacity:1;stroke-dasharray:none;stroke-dashoffset:0;marker:none;visibility:visible;display:inline;overflow:visible;enable-background:accumulate" />
      <path
         d="m 177.98158,701.81963 6.53363,-2.18916 11.5893,14.3259 0.45568,-18.36171 6.3114,-2.1147 0.42195,1.25932 -0.53336,0.1787 c -0.64202,0.21514 -1.05594,0.41425 -1.24175,0.59733 -0.18585,0.18314 -0.29746,0.43201 -0.33483,0.74662 -0.0374,0.31467 0.0481,0.78311 0.25665,1.40534 l 4.56696,13.63024 c 0.2879,0.85931 0.52673,1.39998 0.71651,1.62202 0.18973,0.22207 0.42793,0.35922 0.71462,0.41147 0.28664,0.0523 0.75591,-0.0308 1.40782,-0.24924 l 0.53335,-0.17871 0.41699,1.2445 -7.89665,2.64586 -0.41699,-1.2445 0.56299,-0.18863 c 0.50371,-0.16877 0.85839,-0.33156 1.06404,-0.48835 0.20562,-0.15678 0.35437,-0.35218 0.44626,-0.58621 0.0918,-0.23401 0.11456,-0.4531 0.0682,-0.65727 -0.0863,-0.42149 -0.16753,-0.74583 -0.24362,-0.97301 l -5.09813,-15.2155 -0.54585,20.74838 -1.46674,0.49145 -12.90613,-15.94452 4.90948,14.65251 c 0.2482,0.74078 0.48035,1.22052 0.69646,1.43923 0.21609,0.21873 0.48394,0.35419 0.80355,0.40639 0.3196,0.0522 0.83004,-0.0392 1.53131,-0.27414 l 0.47409,-0.15885 0.41699,1.2445 -7.28922,2.44234 -0.41698,-1.2445 0.41483,-0.139 c 0.70127,-0.23496 1.1777,-0.47699 1.42931,-0.72609 0.25161,-0.24908 0.3961,-0.53095 0.4335,-0.84559 0.0374,-0.31464 -0.0779,-0.87197 -0.346,-1.67201 l -4.52229,-13.49691 c -0.25151,-0.75063 -0.47213,-1.22874 -0.66186,-1.43435 -0.18973,-0.20556 -0.43038,-0.32542 -0.72196,-0.35957 -0.29157,-0.0341 -0.75836,0.0564 -1.40037,0.27146 l -0.71114,0.23828 -0.42195,-1.25932 z m 51.31923,-12.10975 2.56761,-0.23253 8.3813,17.53426 c 0.41463,0.88287 0.80393,1.45687 1.16789,1.72199 0.36392,0.26514 0.83117,0.37187 1.40178,0.32019 l 0.34235,-0.031 0.11838,1.30715 -7.73398,0.70043 -0.11838,-1.30715 c 0.24709,-0.0433 0.48994,-0.0757 0.72857,-0.0974 0.49794,-0.0451 0.82003,-0.12656 0.96627,-0.2444 0.28298,-0.22436 0.41086,-0.48696 0.38363,-0.78782 -0.0197,-0.21785 -0.21337,-0.73897 -0.58088,-1.56335 l -1.81215,-4.0719 -7.87403,0.71311 -1.25501,4.85172 c -0.13221,0.50356 -0.18985,0.84871 -0.17294,1.03544 0.0188,0.20749 0.0897,0.38411 0.21272,0.52985 0.12302,0.14575 0.28142,0.24907 0.47521,0.30997 0.19378,0.0609 0.49815,0.0725 0.91313,0.035 0.28009,-0.0254 0.5088,-0.0408 0.6861,-0.0465 l 0.11839,1.30715 -6.48907,0.58768 -0.11838,-1.30715 c 0.6017,-0.0545 1.02942,-0.15337 1.28316,-0.29663 0.25373,-0.14326 0.46718,-0.35609 0.64033,-0.63849 0.17315,-0.28239 0.38201,-0.86349 0.62657,-1.7433 l 5.14143,-18.58637 z m -1.62398,12.38445 6.70693,-0.6074 -4.20683,-9.03238 -2.5001,9.63978 z m 27.81191,-13.75362 8.41808,0.25264 -0.0398,1.32753 -0.56225,-0.0169 c -0.6872,-0.0206 -1.17859,0.0324 -1.47418,0.15898 -0.23219,0.0973 -0.4093,0.26911 -0.53133,0.51554 -0.12204,0.24647 -0.1943,0.74453 -0.21679,1.49417 l -0.29435,9.80809 c -0.0525,1.74921 0.11943,3.05183 0.51582,3.90785 0.39636,0.85603 1.07792,1.58514 2.04468,2.18732 0.96673,0.60219 2.03838,0.92094 3.21495,0.95625 1.18695,0.0356 2.32066,-0.23778 3.40113,-0.82022 1.08044,-0.58243 1.84677,-1.28893 2.29899,-2.11949 0.45218,-0.83055 0.70563,-2.15688 0.76033,-3.97898 l 0.2831,-9.43326 c 0.0206,-0.68717 -0.0322,-1.18377 -0.15851,-1.4898 -0.12631,-0.30599 -0.32523,-0.53602 -0.59675,-0.69008 -0.27156,-0.15403 -0.69887,-0.2398 -1.28192,-0.25732 l -0.6091,-0.0183 0.0398,-1.32753 7.29359,0.21889 -0.0398,1.32753 -0.49978,-0.015 c -0.82257,-0.0247 -1.3921,0.11456 -1.70861,0.41768 -0.31655,0.30316 -0.48778,0.88683 -0.51369,1.751 l -0.30138,10.04236 c -0.055,1.83251 -0.44447,3.35016 -1.16836,4.55294 -0.72392,1.20278 -1.75253,2.1411 -3.08583,2.81495 -1.33333,0.67384 -2.86938,0.98468 -4.60817,0.93249 -1.6451,-0.0494 -3.13869,-0.45894 -4.48078,-1.22871 -1.3421,-0.76977 -2.31699,-1.70829 -2.92467,-2.81556 -0.60769,-1.10727 -0.88684,-2.48345 -0.83747,-4.12855 l 0.3206,-10.68269 c 0.0206,-0.68717 -0.0274,-1.1706 -0.14406,-1.45028 -0.11667,-0.27965 -0.29286,-0.48555 -0.52858,-0.6177 -0.23573,-0.13211 -0.65034,-0.20708 -1.24382,-0.22491 l -0.78089,-0.0234 0.0398,-1.32753 z m 38.83395,2.36678 8.30194,1.59158 -0.25007,1.30437 -0.76727,-0.14709 c -0.59338,-0.11374 -1.02361,-0.13788 -1.2907,-0.0724 -0.26711,0.0655 -0.47752,0.19484 -0.63123,0.38809 -0.15374,0.19328 -0.28355,0.56613 -0.38945,1.11855 l -2.86249,14.93122 c -0.13141,0.68544 -0.18429,1.09955 -0.15862,1.24235 0.0261,0.19592 0.13357,0.35441 0.32249,0.47548 0.13145,0.0888 0.5399,0.19896 1.22534,0.33037 l 1.15091,0.22064 c 1.31971,0.253 2.50228,0.28085 3.54773,0.0835 1.04542,-0.19732 1.99119,-0.59404 2.83734,-1.19019 0.84611,-0.59614 1.73579,-1.5578 2.66905,-2.885 l 1.2775,0.7222 -3.67952,6.24706 -15.40693,-2.95368 0.24712,-1.28903 0.6752,0.12945 c 0.65474,0.12552 1.10544,0.15359 1.35208,0.0842 0.24664,-0.0694 0.45635,-0.22275 0.62913,-0.46009 0.17277,-0.23733 0.31996,-0.67314 0.44157,-1.30743 l 2.79188,-14.56292 c 0.1412,-0.73657 0.17957,-1.24097 0.11509,-1.51321 -0.0645,-0.2722 -0.19385,-0.48261 -0.38809,-0.63123 -0.19425,-0.14859 -0.6392,-0.28958 -1.33486,-0.42296 l -0.67521,-0.12945 0.25007,-1.30437 z m 33.51817,8.27998 16.17757,7.22774 -0.4703,6.07055 -1.46573,-0.0901 c 0.0685,-0.99617 0.0268,-1.82202 -0.12528,-2.47754 -0.1521,-0.6555 -0.41083,-1.27023 -0.77616,-1.8442 -0.36539,-0.57395 -0.78649,-1.03591 -1.26332,-1.38587 -0.47687,-0.34994 -1.40482,-0.83298 -2.78384,-1.44911 l -4.82188,-2.1543 -3.25695,7.28989 2.39668,1.07078 c 0.88447,0.39517 1.61952,0.54388 2.20513,0.44612 0.58559,-0.0978 1.06384,-0.33188 1.43475,-0.7024 0.28185,-0.27338 0.60762,-0.82378 0.97732,-1.65121 l 0.14659,-0.32812 1.39806,0.62462 -3.90068,8.73075 -1.39807,-0.62462 0.33781,-0.75609 c 0.29742,-0.66574 0.46207,-1.16834 0.49395,-1.50778 0.0318,-0.33945 -0.0269,-0.69943 -0.17638,-1.07995 -0.14946,-0.38051 -0.35749,-0.68737 -0.62408,-0.92058 -0.26662,-0.2332 -0.77083,-0.51551 -1.51265,-0.84695 l -2.39668,-1.07077 -2.89364,6.47673 c -0.3017,0.67526 -0.45456,1.1004 -0.45859,1.27543 -0.004,0.17504 0.0504,0.32771 0.16331,0.45802 0.1129,0.13031 0.48797,0.33781 1.12519,0.6225 l 2.98158,1.3321 c 1.66434,0.74359 3.05415,1.12493 4.16943,1.14403 1.11524,0.0191 2.21435,-0.22574 3.29734,-0.73447 0.85005,-0.39603 1.79531,-1.06898 2.83579,-2.01884 l 1.09425,1.03651 -5.01078,5.23993 -16.79101,-7.50181 0.53539,-1.19834 0.57063,0.25495 c 0.66575,0.29743 1.09858,0.43947 1.2985,0.42611 0.30252,-0.0132 0.58196,-0.1279 0.83834,-0.34422 0.18008,-0.14772 0.41247,-0.54019 0.69716,-1.1774 l 6.11873,-13.6953 c 0.27618,-0.61818 0.39919,-1.05951 0.36905,-1.32399 -0.0302,-0.26446 -0.17193,-0.52175 -0.42526,-0.77186 -0.13195,-0.13879 -0.68296,-0.4249 -1.65303,-0.85833 l 0.54176,-1.2126 z"
         id="text12196" />
    </g>
  </g>
</svg>
