<svg xmlns="http://www.w3.org/2000/svg" width="900" height="600" version="1.0">
  <path style="fill:#585867;fill-opacity:1;stroke:none;stroke-width:3.5;stroke-linecap:round;stroke-miterlimit:4;stroke-dasharray:none;stroke-opacity:1" d="M0 0h900v600H0z"/>
  <path style="fill:#0035ad;fill-opacity:1;fill-rule:evenodd;stroke:#fc0;stroke-width:3.5;stroke-linecap:butt;stroke-linejoin:miter;stroke-miterlimit:4;stroke-dasharray:none;stroke-opacity:1" d="m396.59208 82.695253 30.72578-53.218623c4.87699 10.927135 6.51574 22.389766-2.29709 53.984319l-28.42869-.765696zM203.30598 82.695253 172.5802 29.47663c-4.87699 10.927135-6.51574 22.389766 2.29709 53.984319l28.42869-.765696z" transform="matrix(.66663 0 0 .66663 250.00989 152.67024)"/>
  <path d="M-4.9770285-75.023014C82.506121-24.514589 112.51459 87.478573 62.006168 174.96172c-50.508425 87.48315-162.501588 117.49162-249.984738 66.9832-87.48315-50.50843-117.49162-162.501588-66.98319-249.9847372 16.83615-29.1610748 37.82219-50.1471048 66.98328-66.9832448l91.500682 158.484015L-4.9770285-75.023014z" style="fill:#0035ad;fill-opacity:1;stroke:#fc0;stroke-width:3;stroke-miterlimit:4;stroke-opacity:1" transform="translate(528.43270798 251.47814704) scale(.81296)"/>
  <path d="M486.21745 232.77182c0 98.90352-80.26952 179.17305-179.17305 179.17305-98.90352 0-179.17305-80.26953-179.17305-179.17305 0-98.90352 80.26953-179.17305 179.17305-179.17305 98.90353 0 179.17305 80.26953 179.17305 179.17305z" style="fill:#fff;fill-opacity:1;stroke:#fc0;stroke-width:3.10153818;stroke-miterlimit:4;stroke-opacity:1" transform="matrix(.6448 0 0 .6448 252.01486858 169.23519682)"/>
  <path style="fill:#fc0;fill-opacity:1;fill-rule:evenodd;stroke:#000;stroke-width:1;stroke-linecap:butt;stroke-linejoin:miter;stroke-miterlimit:4;stroke-dasharray:none;stroke-opacity:1" d="M217.28842 91.6273V37.233842c-.11211-2.074699-2.34897-2.254582 1.49531-3.967716L280.97307-.747963v63.970198L217.28842 91.6273z" transform="matrix(-.66663 .128 0 .66663 649.40169243 126.28420685)"/>
  <path d="M217.28842 93.6273V39.233842c-.11211-2.074699-.29695-2.987446 1.49531-3.967716l62.18934-34.014089v63.970198L217.28842 93.6273z" style="fill:#fc0;fill-opacity:1;fill-rule:evenodd;stroke:#000;stroke-width:1;stroke-linecap:butt;stroke-linejoin:miter;stroke-miterlimit:4;stroke-dasharray:none;stroke-opacity:1" transform="matrix(-.66663 .128 0 .66663 649.40169243 126.28420685)"/>
  <path style="fill:#fc0;fill-opacity:1;fill-rule:evenodd;stroke:#000;stroke-width:1;stroke-linecap:butt;stroke-linejoin:miter;stroke-miterlimit:4;stroke-dasharray:none;stroke-opacity:1" d="M217.28842 91.6273V43.233842c-.11211-2.074699-.29695-2.987446 1.49531-3.967716l62.48249-34.694933-.29315 58.651042L217.28842 91.6273z" transform="matrix(-.66663 .128 0 .66663 649.40169243 126.28420685)"/>
  <path style="fill:#fc0;fill-opacity:1;fill-rule:evenodd;stroke:#000;stroke-width:1.01566851;stroke-linecap:butt;stroke-linejoin:miter;stroke-miterlimit:4;stroke-dasharray:none;stroke-opacity:1" d="M271.5 13.473218c-2.64825.047203-3.05507 2.977617-2.9375 3.875v14.1875l5.875-3.1875v-11c.11756-.897384-.28924-3.827796-2.9375-3.875zm-14.40625 8.28125c-2.64825.047205-3.05508 3.008867-2.9375 3.90625v13.65625l5.875-3.15625v-10.5c.11757-.897382-.28924-3.859046-2.9375-3.90625zm-14.40625 8.28125c-2.64826.047202-3.05507 3.008866-2.9375 3.90625v13.1875l5.875-3.1875v-10c.11758-.897383-.28924-3.859048-2.9375-3.90625zm-14.40625 8.3125c-2.64825.047203-3.05507 2.977617-2.9375 3.875v12.71875l5.875-3.1875v-9.53125c.11758-.897382-.28925-3.827797-2.9375-3.875z" transform="matrix(-.66663 .128 0 .66663 649.40169243 126.28420685)"/>
  <path d="M214.70685 82.208871v-25.65628c-.19433-2.20903-.08796-2.892869 1.74755-3.952601l66.51867-35.996081v32.618326l-68.26622 32.986636z" style="fill:#fc0;fill-opacity:1;fill-rule:evenodd;stroke:#000;stroke-width:1;stroke-linecap:butt;stroke-linejoin:miter;stroke-miterlimit:4;stroke-dasharray:none;stroke-opacity:1" transform="matrix(-.66663 .128 0 .66663 649.40169243 126.28420685)"/>
  <path d="M271.5 27.473218c-2.64825.047203-3.05507 2.977617-2.9375 3.875v14.1875l5.875-3.1875v-11c.11756-.897384-.28924-3.827796-2.9375-3.875zm-14.40625 8.28125c-2.64825.047205-3.05508 3.008867-2.9375 3.90625v13.65625l5.875-3.15625v-10.5c.11757-.897382-.28924-3.859046-2.9375-3.90625zm-14.40625 8.28125c-2.64826.047202-3.05507 3.008866-2.9375 3.90625v13.1875l5.875-3.1875v-10c.11758-.897383-.28924-3.859048-2.9375-3.90625zm-14.40625 8.3125c-2.64825.047203-3.05507 2.977617-2.9375 3.875v12.71875l5.875-3.1875v-9.53125c.11758-.897382-.28925-3.827797-2.9375-3.875z" style="fill:#fc0;fill-opacity:1;fill-rule:evenodd;stroke:#000;stroke-width:1.01566851;stroke-linecap:butt;stroke-linejoin:miter;stroke-miterlimit:4;stroke-dasharray:none;stroke-opacity:1" transform="matrix(-.66663 .128 0 .66663 649.40169243 126.28420685)"/>
  <path d="m280.96875 42.59375-66.5 36c-1.83551 1.059732-1.94433 1.759722-1.75 3.96875V102l68.25-36.9375V42.59375z" style="fill:#fc0;fill-opacity:1;fill-rule:evenodd;stroke:#000;stroke-width:1;stroke-linecap:butt;stroke-linejoin:miter;stroke-miterlimit:4;stroke-dasharray:none;stroke-opacity:1" transform="matrix(-.66663 .128 0 .66663 649.40169243 126.28420685)"/>
  <path d="m274.4375 51.46875-5.875 3.1875v12.875l5.875-3.1875v-12.875zm-14.40625 7.8125-5.875 3.1875V75.3125l5.875-3.15625v-12.875zm-14.40625 7.8125L239.75 70.25v12.875l5.875-3.1875V67.09375zM231.21875 74.875l-5.875 3.1875v12.875l5.875-3.1875V74.875z" style="fill:#fc0;fill-opacity:1;fill-rule:evenodd;stroke:#000;stroke-width:1.01566851;stroke-linecap:butt;stroke-linejoin:miter;stroke-miterlimit:4;stroke-dasharray:none;stroke-opacity:1" transform="matrix(-.66663 .128 0 .66663 649.40169243 126.28420685)"/>
  <g>
    <path d="M217.28842 91.6273V37.233842c-.11211-2.074699-2.34897-2.254582 1.49531-3.967716L280.97307-.747963v63.970198L217.28842 91.6273z" style="fill:#fc0;fill-opacity:1;fill-rule:evenodd;stroke:#000;stroke-width:1;stroke-linecap:butt;stroke-linejoin:miter;stroke-miterlimit:4;stroke-dasharray:none;stroke-opacity:1" transform="matrix(.66663 .128 0 .66663 250.00989476 126.28420685)"/>
    <path style="fill:#fc0;fill-opacity:1;fill-rule:evenodd;stroke:#000;stroke-width:1;stroke-linecap:butt;stroke-linejoin:miter;stroke-miterlimit:4;stroke-dasharray:none;stroke-opacity:1" d="M217.28842 93.6273V39.233842c-.11211-2.074699-.29695-2.987446 1.49531-3.967716l62.18934-34.014089v63.970198L217.28842 93.6273z" transform="matrix(.66663 .128 0 .66663 250.00989476 126.28420685)"/>
    <path d="M217.28842 91.6273V43.233842c-.11211-2.074699-.29695-2.987446 1.49531-3.967716l62.48249-34.694933-.29315 58.651042L217.28842 91.6273z" style="fill:#fc0;fill-opacity:1;fill-rule:evenodd;stroke:#000;stroke-width:1;stroke-linecap:butt;stroke-linejoin:miter;stroke-miterlimit:4;stroke-dasharray:none;stroke-opacity:1" transform="matrix(.66663 .128 0 .66663 250.00989476 126.28420685)"/>
    <path d="M271.5 13.473218c-2.64825.047203-3.05507 2.977617-2.9375 3.875v14.1875l5.875-3.1875v-11c.11756-.897384-.28924-3.827796-2.9375-3.875zm-14.40625 8.28125c-2.64825.047205-3.05508 3.008867-2.9375 3.90625v13.65625l5.875-3.15625v-10.5c.11757-.897382-.28924-3.859046-2.9375-3.90625zm-14.40625 8.28125c-2.64826.047202-3.05507 3.008866-2.9375 3.90625v13.1875l5.875-3.1875v-10c.11758-.897383-.28924-3.859048-2.9375-3.90625zm-14.40625 8.3125c-2.64825.047203-3.05507 2.977617-2.9375 3.875v12.71875l5.875-3.1875v-9.53125c.11758-.897382-.28925-3.827797-2.9375-3.875z" style="fill:#fc0;fill-opacity:1;fill-rule:evenodd;stroke:#000;stroke-width:1.01566851;stroke-linecap:butt;stroke-linejoin:miter;stroke-miterlimit:4;stroke-dasharray:none;stroke-opacity:1" transform="matrix(.66663 .128 0 .66663 250.00989476 126.28420685)"/>
    <path style="fill:#fc0;fill-opacity:1;fill-rule:evenodd;stroke:#000;stroke-width:1;stroke-linecap:butt;stroke-linejoin:miter;stroke-miterlimit:4;stroke-dasharray:none;stroke-opacity:1" d="M214.70685 82.208871v-25.65628c-.19433-2.20903-.08796-2.892869 1.74755-3.952601l66.51867-35.996081v32.618326l-68.26622 32.986636z" transform="matrix(.66663 .128 0 .66663 250.00989476 126.28420685)"/>
    <path style="fill:#fc0;fill-opacity:1;fill-rule:evenodd;stroke:#000;stroke-width:1.01566851;stroke-linecap:butt;stroke-linejoin:miter;stroke-miterlimit:4;stroke-dasharray:none;stroke-opacity:1" d="M271.5 27.473218c-2.64825.047203-3.05507 2.977617-2.9375 3.875v14.1875l5.875-3.1875v-11c.11756-.897384-.28924-3.827796-2.9375-3.875zm-14.40625 8.28125c-2.64825.047205-3.05508 3.008867-2.9375 3.90625v13.65625l5.875-3.15625v-10.5c.11757-.897382-.28924-3.859046-2.9375-3.90625zm-14.40625 8.28125c-2.64826.047202-3.05507 3.008866-2.9375 3.90625v13.1875l5.875-3.1875v-10c.11758-.897383-.28924-3.859048-2.9375-3.90625zm-14.40625 8.3125c-2.64825.047203-3.05507 2.977617-2.9375 3.875v12.71875l5.875-3.1875v-9.53125c.11758-.897382-.28925-3.827797-2.9375-3.875z" transform="matrix(.66663 .128 0 .66663 250.00989476 126.28420685)"/>
    <path style="fill:#fc0;fill-opacity:1;fill-rule:evenodd;stroke:#000;stroke-width:1;stroke-linecap:butt;stroke-linejoin:miter;stroke-miterlimit:4;stroke-dasharray:none;stroke-opacity:1" d="m280.96875 42.59375-66.5 36c-1.83551 1.059732-1.94433 1.759722-1.75 3.96875V102l68.25-36.9375V42.59375z" transform="matrix(.66663 .128 0 .66663 250.00989476 126.28420685)"/>
    <path style="fill:#fc0;fill-opacity:1;fill-rule:evenodd;stroke:#000;stroke-width:1.01566851;stroke-linecap:butt;stroke-linejoin:miter;stroke-miterlimit:4;stroke-dasharray:none;stroke-opacity:1" d="m274.4375 51.46875-5.875 3.1875v12.875l5.875-3.1875v-12.875zm-14.40625 7.8125-5.875 3.1875V75.3125l5.875-3.15625v-12.875zm-14.40625 7.8125L239.75 70.25v12.875l5.875-3.1875V67.09375zM231.21875 74.875l-5.875 3.1875v12.875l5.875-3.1875V74.875z" transform="matrix(.66663 .128 0 .66663 250.00989476 126.28420685)"/>
  </g>
  <path d="M285.94046 140.0159c.16753-.02802.33787-.0093.50665-.0149 3.22228.17233 1.534 4.30484 3.48689 5.81148 2.64409-.16991 5.6396-.07659 8.13608-1.2219 1.55263-1.74162 3.80079-1.29509 5.82638-1.23681 2.15492-.82756 3.14213 1.66393 2.95045 3.39749 1.81236 1.50257 3.58354 3.31216 5.02172 5.24524 2.63271 1.4493-.70382 4.74113 1.46032 6.28832 3.50916 1.09909 2.79053 5.52741 5.24524 7.58473 2.52718 1.61933 3.37108-2.1257 5.17073-2.84613-.07007-2.28013 1.519-4.21953 2.62262-6.16912 1.69903-3.0824 6.86714-1.80204 6.88437 1.74345.54628 1.74794-1.64383 3.42158-.0745 4.75349 1.35298 2.22032 3.09556 6.41188 6.34793 5.61777 1.64488-1.65191 3.74174-.98559 5.51346.04471 1.8402.47849 2.37976 2.3439 3.75511 3.26337 3.05794.90752 2.08098 4.45439 3.18887 6.73536-.07645 1.21744.57921 3.15747 2.22028 2.57792.6139-1.62538 1.53984-3.38727 2.50341-4.97702-.76433-1.83839.30533-4.16151 2.27989-4.88761 1.30791-1.37358 2.64601-3.12881 4.66409-3.72531 1.90139-.43849 3.85628-1.16423 4.42429-3.27504 1.36382-2.05502 3.45844-4.93566 6.36421-4.35439.78512 3.36464 4.47599 5.48308 4.14255 9.20896-.64824 1.5187-1.75376 4.39736.55134 5.12603 2.20038.69003.91754 3.10706-.17881 4.21705 1.0615 2.26739.74249 5.04947.56625 7.56984-.48651 2.26764 1.83782 2.9355 3.36768 3.74021 3.0394 1.60419-.42412 5.16367 1.2666 7.39101 1.98995.50832 3.1713 2.50112 3.14416 4.55979-.05803 2.74882 3.68408 1.90667 4.87271.44703 2.0362-2.91701 5.12792-4.79977 7.62944-7.31651 1.73826 2.3725 4.97465 3.40163 7.76355 2.54811 1.20848-.87031 2.84024-1.60011 4.23195-.56624 1.16303 1.53065 3.45148 1.04835 4.47037 2.77163.63365 1.961.97892 4.07381 2.66733 5.51346 2.36697 3.42462 1.15542 9.85918-3.5763 10.25205-.25011.53564 1.36764 2.27052.86427 3.5614-.76609 1.54629-2.33585 2.8027-1.99677 4.7684.61699 2.76685-1.79204 4.64283-1.93716 7.2271.72032 2.43472-.81301 4.66157-2.87594 5.84129-3.2664 2.52348-1.27845 6.9737-1.63914 10.44577-1.1726 3.08918-.90975 6.38224-.35763 9.5815.61351 2.90079-2.10467 5.59877-.28312 8.3447 2.46607 3.25027.68586 7.61767-1.87756 10.22225-2.14508 1.47657-1.075 4.18661-.35763 6.13931 1.1699 2.46697-.11528 4.96235-.46194 7.43572.58708 1.96903 3.10329 3.08558 3.81472 5.20054 2.16391 1.58624 1.03595 4.68773-.89407 5.9456-2.25657.8569-1.54924 3.44059-2.19048 5.26013-1.18762 1.23586-2.08064 3.91114-.02981 4.85781 1.79016-.42481 4.09049-.91404 5.69228.53644 1.75461 1.01125 1.24664 3.1285 2.25009 4.54488 2.76015 3.37785-4.04118 5.63908-2.02657 9.11957 2.96536.67885 2.182 5.39165-.50665 5.72207-1.48299 1.28655-2.49815 3.42545-2.4438 5.40915 1.45178 4.5649 7.38353 6.11656 8.3298 11.04183 1.49625 3.88655-1.44994 8.25791-5.48366 8.76193-2.4199.01432-4.33373 1.73739-6.73536 1.60933-1.82026-.55865-1.43367 1.75704-2.84614 2.16068-3.63925.85791-5.04691-3.73814-7.46552-5.43895-2.57183-.8966-5.22261 1.48927-7.01849 3.17396-1.20019.70818-1.99783 4.25671-3.27827 1.89246-2.5954-2.39678-1.6094-6.08622-2.3246-9.14936-.88618-1.55255-1.2729-4.39131-3.6061-4.27666-1.69452 1.14729-3.81741.35971-4.88761-1.28151-1.24448-.60447-3.22825-.52928-3.96373-2.13087-.39636-1.84945-1.93291-3.1745-2.19048-5.11113-.48364-2.13785 1.7516-2.89839 2.56301-4.41077-1.95586-.20268-3.51258-2.6392-2.63752-4.64919-1.06745-1.78012-1.58683-4.01687-1.35601-6.15421.30231-3.13838-3.99382-3.58816-6.25852-3.17397-1.68694-.32645-3.34344.5722-3.5614 2.44381.01205 2.07767-2.14348 4.48168-4.24685 2.99515-.89659-1.83179-2.96512.28062-4.32136-.90898-1.61244.29189-4.4024.12725-4.32137-2.14578 1.05872-1.92066-1.83761-1.25744-2.99515-1.80305 1.69818-.90938 4.05683-.89357 5.31975-2.4736.30818-1.76815.14947-4.07561-.78977-5.67738-2.12235.07526-3.02334-2.11148-2.57791-4.03824-2.34922-.63016-2.75045-3.55414-4.61939-4.8578 1.29755-1.31903 1.89452-3.31765 1.28151-5.09623.18447-1.78089-1.71565-2.96677-3.30275-2.11775-1.82621-.66665-2.62961-4.24636-5.20586-4.5431-1.872 1.30655-4.35051 1.72446-6.69066 1.57953-1.53292-.41149-2.47033.5774-2.53321 2.02657-.51965 2.47183-3.37815 2.43844-5.15583 1.41562-2.31078-1.1634-2.97437 2.49763-5.26014 2.20538-1.3598-.42575-2.83673-.58719-3.90413.64075-2.46777 1.27314-3.46441 3.8314-5.12602 5.78169-2.77969 1.65761-4.81325-1.68675-5.73698-3.81472-1.31077-1.9713-3.11732.114-4.41077.96858-1.83685.78997-3.13268 2.05106-4.32136 3.5912-2.2615 2.07045-4.07546-2.28431-6.33303-.77487-.08755 1.30464-.91111 2.50625-2.3395 2.74183-1.71912 1.38131 1.03546 2.63343 2.01167 3.45709 2.30972 2.08572.59394 5.12285.04471 7.54003 1.1601 2.4476-1.16307 1.93234-2.92135 1.81412-2.97192-.42058-7.6927.14678-8.10557 3.87816 1.01191 2.28192-1.13473 4.13135-3.35278 3.75511-3.86022 1.26648-3.48668 7.02109-.98349 9.40269.77386 1.02879 4.67477 2.45004 1.78528 2.33826-3.27856-.5662-5.19816 2.58828-7.79048 3.69674-2.89038.72416-5.70851-.76754-8.4043-1.1325-2.16.94242-4.17226 4.11407-6.83967 2.50341-1.78385-2.42991-4.92405-2.72831-7.77845-2.68222-3.68667.24233-6.87314-1.70212-9.2982-4.28928-2.78322-1.35103-2.09529-5.01964-4.38114-6.69294-2.36214-.22068-3.49776-2.57709-3.41239-4.7684.42044-2.91856-3.40795-2.54657-4.45547-4.63428-.7907 2.15313-3.66911 2.32342-5.49856 3.24847-1.31364 2.45912-4.93773.41568-6.60125 2.60772-2.59131-.30588-3.40249-3.09618-3.47199-5.30485-1.2601-.56541-2.82087-1.27546-3.85942-2.414-2.75737-1.0783-5.88406-1.93132-8.89604-2.05637-1.72312.55504-3.83279.82802-5.20054-.73016-.93719-.25834-1.65086-3.42466-2.56301-2.05637.18914 2.47341-2.41066 6.0858-5.05152 4.11274-.85485-2.01453-3.4474-.83635-4.8131-2.27989-1.31417-.74524-4.72686-.15962-3.87433-2.32459 1.04537-1.40776-1.47402-2.17462-2.50341-1.56463-2.90056.17319-1.84618-4.03286-4.57468-4.32136 5.74285-3.60104 11.11693-7.84067 16.54393-11.93616 1.08155-.04725 2.58537 1.28114 4.06449.59631.27474-4.61195.16689-9.28677.29803-13.87306-.67242-2.17774 1.48854-4.72069 3.71041-3.41238.46068 2.05023 3.05082.96005 4.30646.38743 1.61792 2.13398 4.42666 2.39476 6.91417 2.53321 2.10549.57783 4.24572.56441 6.33303-.31293 2.47648.73647 4.7514-1.65452 4.64919-4.05313.62888-3.05502-3.63889-2.71123-4.39587-5.17074-1.3388-1.62747-4.80905-3.15766-3.5763-5.93069-2.76702-.5366-2.16562-4.79008.19372-5.87109 1.50235-1.58846 1.14416 1.34886 2.57792.92388-.18873-2.35015 2.738-4.06162 2.05637-6.57145 1.34492.12775 2.81696.11865 3.99353-.59605 4.40946-2.45501 3.41156-8.23421 2.81634-12.36803-.76585-1.39073-3.33134-2.58948-2.07128-4.57469-.31059-1.40048-1.40213-2.70256-.41723-4.20215 1.38163-3.09087 2.11289-6.52964.78976-9.76031-.67183-2.3249 1.96328-3.83573 3.93393-2.87594 3.57904 1.50262 5.52148-2.58895 7.86786-4.42567 1.54054 1.05397 2.33619-1.62514 3.93393-1.44542 1.50471-1.02341.47141-3.68746 1.84775-5.02172-.27751-1.52391.92525-2.83272 1.41562-4.26176-1.57739-2.7516-2.87188-5.8698-3.38345-9.11601-1.60721-2.88602 1.32367-5.34645 3.90499-5.80013 2.88524-.07617 6.03294-.15401 8.88115.73016 1.67852-.48012 2.63621-3.08426 4.7982-2.4438.95072 1.07603 2.86678 2.28162 4.33626 1.05798.54476-1.38546 1.81121-3.06457 3.54649-2.4587 1.41273 1.2691 1.23255-1.08219 2.3842-1.57953 2.18029.0402 4.07869-2.07453 3.42729-4.29156-2.58794-3.75871-4.57781-8.48236-3.48689-13.09819-1.64089-1.68946-.86291-4.49345.83447-5.9456 1.73892-3.75063-2.56157-6.93493-2.47361-10.68419-.47151-2.94528 2.99034-3.87135 5.26014-3.29318 2.532.86851 4.65585-2.45409 7.12279-.74506 2.50157-.6306 2.16376-4.18923 3.63591-5.9903 2.60517 1.20792 4.98232-.84664 7.48042-1.28151 3.21121.51569 6.51863-1.06834 9.70071-.0894 1.4578 1.88668 3.50204-.58147 5.18563-.83447z" style="fill:#fc0;fill-rule:evenodd;stroke:none;stroke-width:3;stroke-linecap:butt;stroke-linejoin:miter;stroke-miterlimit:4;stroke-opacity:1" transform="matrix(.66663 0 0 .66663 250.00989 152.67024)"/>
  <g>
    <path style="font-size:12px;font-style:normal;font-weight:400;fill:#dc241f;fill-opacity:1;stroke:#fc0;stroke-width:3.5;stroke-linecap:butt;stroke-linejoin:miter;stroke-miterlimit:4;stroke-dasharray:none;stroke-opacity:1;font-family:Bitstream Vera Sans" d="M334.26907 158.83452h32.48023l6.50439 23.9956h.70584l6.5044-23.9956h36.17816l8.52637 76.15378h-26.76648l-3.73572-41.71244h-.50549l-8.82843 27.71244h-22.15729l-5.90027-18.21903-23.00571-43.93475z" transform="matrix(.55714 0 0 .55714 263.1571705 209.6219076)"/>
    <path style="font-size:12px;font-style:normal;font-weight:400;fill:#fff;fill-opacity:1;stroke:#fc0;stroke-width:3.5;stroke-linecap:butt;stroke-linejoin:miter;stroke-miterlimit:4;stroke-dasharray:none;stroke-opacity:1;font-family:Bitstream Vera Sans" d="M298.53867 158.83452h33.43035c4.30898.00007 8.38272.47115 12.22123 1.41322 3.8384.94222 7.20527 2.47411 10.10061 4.59567 2.89522 2.12171 5.18432 4.86596 6.86731 8.23276 1.68285 3.36693 2.52431 7.44016 2.52439 12.21968-.00008 2.89533-.28621 5.38684-.85842 7.47452-.57234 2.08777-1.46466 3.9058-2.67695 5.45409-1.21243 1.54836-2.74432 2.86141-4.59568 3.93914-1.20357.70064-2.55646 1.35849-4.05868 1.97357l18.65326 30.85113h-31.91696l-12.11951-24.44245h-.50549l-27.06546-51.71133z" transform="matrix(.55714 0 0 .55714 263.1571705 209.6219076)"/>
    <path style="font-size:12px;font-style:normal;font-weight:400;fill:#0035ad;fill-opacity:1;stroke:#fc0;stroke-width:3.5;stroke-linecap:butt;stroke-linejoin:miter;stroke-miterlimit:4;stroke-dasharray:none;stroke-opacity:1;font-family:Bitstream Vera Sans" d="M329.08224 190.14427c-.06789 3.0967-.15214 6.07623-.25274 8.9386-.10078 2.86244-.43726 5.64008-1.00945 8.33293-.57236 2.69291-1.48163 5.30205-2.72781 7.82744-1.24635 2.52543-2.98013 4.99947-5.20134 7.42212-2.01999 2.22336-4.29266 4.17649-6.81799 5.85941-2.52548 1.68292-5.18548 3.09666-7.98001 4.24121-2.79466 1.14455-5.67299 2.00296-8.635 2.57524-2.96212.57227-5.92469.85841-8.88774.85841-5.79061 0-11.24469-.87537-16.36226-2.6261-5.11763-1.75073-9.5787-4.29257-13.38324-7.62555-3.80457-3.33295-6.80053-7.38974-8.98791-12.17036-2.1874-4.78058-3.28109-10.23467-3.28109-16.36226 0-6.19328 1.07726-11.74753 3.23177-16.66278 2.1545-4.91514 5.11708-9.09008 8.88774-12.52483 3.77063-3.43461 8.23119-6.06071 13.3817-7.87829 5.15045-1.81744 10.72268-2.7262 16.71672-2.72628 3.29799.00008 6.81537.40386 10.55217 1.21134 3.73669.80763 7.35579 2.03643 10.85731 3.6864 3.5014 1.65012 6.66638 3.70394 9.49495 6.16147 2.82843 2.45766 4.98345 5.3026 6.46508 8.53482l-25.85721 9.49341c-1.0768-1.95206-2.54088-3.41665-4.39224-4.39379-1.85147-.97702-3.88886-1.46556-6.11216-1.46562-2.49052.00006-4.67842.4886-6.5637 1.46562-1.88536.97714-3.48455 2.29018-4.79756 3.93915-1.31309 1.64907-2.30609 3.53439-2.97902 5.65598-.673 2.12167-1.00948 4.32704-1.00945 6.6161-.00003 2.08776.3195 4.10768.95859 6.05975.63903 1.95214 1.56474 3.68592 2.77713 5.20134 1.21233 1.51548 2.71031 2.72733 4.49396 3.63555 1.78357.90826 3.78704 1.36238 6.01044 1.36236 1.07669.00002 2.20429-.13457 3.38279-.40377 1.17841-.26917 2.28957-.67295 3.33348-1.21134 1.04381-.53835 1.96952-1.22826 2.77713-2.06975.8075-.84143 1.37978-1.83444 1.71683-2.97902h-12.52328v-17.97891h42.72341z" transform="matrix(.55714 0 0 .55714 263.1571705 209.6219076)"/>
  </g>
  <path d="m268.20854 404.00239 3.13594 1.91672c-.98878 1.76792-2.20303 2.96272-3.64274 3.58443-1.43973.6217-3.092.70281-4.95679.24335-2.30731-.56849-4.00951-1.82394-5.10662-3.76635-1.09712-1.9424-1.30887-4.28059-.63524-7.01459.71255-2.89202 2.01267-4.95409 3.90034-6.18624 1.88766-1.23212 4.04835-1.54837 6.48209-.94874 2.12555.52373 3.69729 1.57731 4.71524 3.16074.60714.93746.93694 2.15021.98939 3.63825l-3.67722-.02598c.01648-.95141-.23696-1.76818-.76034-2.45032-.52341-.68212-1.25131-1.13805-2.1837-1.3678-1.28799-.31733-2.44688-.11255-3.47668.61433-1.02982.7269-1.79977 2.12547-2.30984 4.1957-.54125 2.19668-.53164 3.85857.0288 4.98565.56043 1.12709 1.47279 1.84639 2.73707 2.15789.93239.22973 1.80742.13103 2.62509-.29611.81765-.42714 1.52939-1.24079 2.13521-2.44093zm11.77944 8.82523 1.48128-17.8341 3.60088.29909-.58301 7.01929 7.05578.58604.58302-7.01928 3.60088.29908-1.48129 17.8341-3.60088-.29909.64769-7.79785-7.05579-.58605-.64768 7.79786-3.60088-.29909zm24.83808 1.06384-.76049-17.87935 3.61001-.15355.7605 17.87934-3.61002.15356zm14.04349-.98255-2.79683-17.52728 3.56814-.56937 2.32171 14.54981 8.87214-1.41572.47511 2.97746-12.44027 1.9851zm21.71704-4.1949-5.31436-17.0882 12.67045-3.94046.89901 2.89077-9.22017 2.86744 1.17815 3.78831 8.57908-2.66805.89539 2.87911-8.57907 2.66806 1.4464 4.65088 9.54655-2.96893.8954 2.87911-12.99683 4.04196z" style="font-size:25px;font-style:normal;font-variant:normal;font-weight:700;font-stretch:normal;text-align:start;line-height:125%;writing-mode:lr-tb;text-anchor:start;fill:#fc0;fill-opacity:1;stroke:none;stroke-width:1px;stroke-linecap:butt;stroke-linejoin:miter;stroke-opacity:1;font-family:Arial" transform="matrix(.66663 0 0 .66663 250.00989 144.6706356)"/>
  <path d="m115.21519 175.58908 4.02028 1.63968-3.47187 8.51258-9.50544-3.87682c-.65951-1.26883-1.03192-2.83818-1.11723-4.70806-.0853-1.86992.19512-3.59699.84125-5.18122.78776-1.93148 1.9573-3.44146 3.50864-4.52994 1.55134-1.0885 3.44967-1.67793 5.695-1.76831 2.24532-.09039 4.64839.38663 7.20922 1.43108 2.62592 1.07098 4.69394 2.42383 6.20406 4.05854 1.51008 1.63469 2.44196 3.3373 2.79562 5.10784.35362 1.77051.13435 3.62693-.65781 5.56927-.95152 2.33293-2.30792 3.9597-4.06919 4.88033-1.76131.92057-3.87403 1.11249-6.33817.57578l.69801-4.27145c1.34564.20709 2.50331.05278 3.47302-.46293.96969-.51575 1.67582-1.31617 2.11839-2.40124.68595-1.68192.5876-3.31035-.29507-4.88531-.8827-1.57499-2.66413-2.90904-5.34431-4.00215-2.87551-1.17279-5.2921-1.5003-7.24979-.98252-1.68514.43908-2.86406 1.4833-3.53675 3.13265-.31421.77041-.45885 1.64479-.4339 2.62316.02495.97834.21934 1.92139.58315 2.82915l3.02742 1.23474 1.84547-4.52485zm-3.28706 18.64771c2.9907.69458 5.35075 1.70887 7.08014 3.04289 1.72935 1.334 2.90207 2.82446 3.51815 4.47138.61603 1.64689.68812 3.48627.21625 5.51815-.68399 2.94503-2.36575 5.08389-5.04527 6.41659-2.67955 1.33264-6.09684 1.51648-10.25187.55152-4.2007-.97561-7.25451-2.71947-9.161418-5.23159-1.688622-2.20882-2.189621-4.79145-1.503001-7.74791.691929-2.97931 2.271098-5.09087 4.737509-6.33467 2.81888-1.41461 6.28871-1.64339 10.40951-.68636zm-.82292 4.32037c-2.88799-.67072-5.18123-.62584-6.87971.13464-1.6985.76047-2.73597 1.95116-3.11242 3.5721-.3791 1.63232.02304 3.15134 1.20642 4.55707 1.18337 1.4057 3.259 2.45319 6.22689 3.14248 2.9108.676 5.1838.65349 6.81901-.06752 1.63518-.72106 2.64895-1.92628 3.04133-3.61568.39233-1.68942.00977-3.22796-1.1477-4.61562-1.15751-1.38768-3.20878-2.4235-6.15382-3.10747zm7.75522 26.58481-.77257 8.41971c-.21096 2.29892-.56932 3.8959-1.07507 4.79095-.50579.89501-1.3191 1.61472-2.43991 2.15913-1.12086.54438-2.35229.75501-3.69429.63189-1.237-.11352-2.32922-.49029-3.27664-1.1303-.94745-.64004-1.62024-1.41962-2.01838-2.33874-.55803 1.20796-1.40624 2.1157-2.54462 2.72322-1.13841.60749-2.47781.84057-4.018206.69925-1.86716-.17134-3.404265-.76545-4.611318-1.78232-1.207055-1.01691-1.906073-2.15193-2.097056-3.40508-.131887-.87117-.055419-2.85883.229405-5.96296l.656919-7.15938 25.661736 2.35463zm-4.65981 3.84421-5.93406-.54449-.25699 2.80073c-.1542 1.68043-.22033 2.72171-.19837 3.12385.05029.73422.30469 1.32831.76319 1.78227.45847.45393 1.11366.71999 1.96557.79817.75851.06959 1.38935-.04022 1.89251-.32943.50312-.28924.83472-.6648.99481-1.1267.16004-.46194.34286-1.81319.54847-4.05376l.22487-2.45064zm-10.20518-.93639-6.861802-.62962-.361386 3.93853c-.158477 1.72711-.16976 2.84403-.033849 3.35077.135905.50671.454087.95073.954546 1.33205.500451.38129 1.159119.60942 1.976005.68439.840216.07708 1.547976-.03744 2.123286-.34356.57529-.30615.99209-.74451 1.25039-1.31507.25828-.5706.47095-1.76613.638-3.58659l.31481-3.4309zM91.524115 252.1325l25.765605-.44998.07428 4.25325-25.765604.44999-.074281-4.25326zm.653139 16.58659 25.570636-3.19555 1.94435 15.55867-4.32572.54058-1.41686-11.33759-5.66879.70843 1.31658 10.53524-4.30829.5384-1.31658-10.53524-6.959536.86973 1.464807 11.72133-4.308285.5384-1.992312-15.9424zm4.269293 27.58719 24.883133-6.70062 2.33562 8.67346c.59721 2.21786.80032 3.86223.60934 4.93312-.19104 1.07086-.75591 2.06037-1.69462 2.96852-.93876.90813-2.17759 1.5694-3.71649 1.98382-1.94632.52409-3.63923.47935-5.07874-.13423-1.43955-.61361-2.54365-1.73926-3.31232-3.37696-.39602 1.05325-.89256 1.96975-1.48964 2.74949-.5971.77972-1.73472 1.92952-3.41285 3.44942l-4.1871 3.78535-1.32093-4.90534 4.61011-4.44538c1.66812-1.60215 2.6965-2.66186 3.08514-3.17914.38862-.51729.61839-1.01606.68932-1.49633.07091-.48028-.02161-1.19567-.27756-2.14618l-.22853-.84867-10.387779 2.79725-1.106104-4.10758zm15.465673.24079.82273 3.05523c.50275 1.86707.90474 3.03312 1.20595 3.49815.30118.46502.74339.78891 1.32661.97168.58319.18276 1.28782.16292 2.11388-.05951.79207-.21331 1.38592-.54312 1.78154-.98946.39557-.44635.61076-.96547.64558-1.55737.02084-.41825-.21706-1.5496-.71372-3.39405l-.86843-3.22496-6.31414 1.70029zm-6.91269 28.0609 23.68367-10.15641 1.635 3.81265-12.40747 14.73089 15.81604-6.78249 1.56572 3.6511-23.68366 10.15642-1.69043-3.9419 12.09132-14.44231-15.44446 6.62315-1.56573-3.6511zm22.80344 19.37474c2.617-1.60562 5.00952-2.54075 7.17755-2.80539 2.168-.26463 4.04956-.02699 5.64468.71293 1.59507.73993 2.93804 1.99888 4.02891 3.77685 1.58109 2.57706 1.88569 5.28081.91382 8.11124-.97193 2.83043-3.27581 5.361-6.91164 7.59173-3.67583 2.25522-7.07459 3.15809-10.19629 2.70864-2.75331-.38681-4.92358-1.87373-6.51081-4.46077-1.5995-2.60704-1.95797-5.21931-1.07541-7.83682 1.01356-2.9866 3.32329-5.58607 6.92919-7.79841zm2.44796 3.65381c-2.52713 1.55047-4.12831 3.19277-4.80354 4.92692-.67525 1.73414-.57775 3.3104.29248 4.72879.87634 1.42836 2.22934 2.22746 4.05898 2.39729 1.82962.16981 4.04296-.54196 6.64002-2.13532 2.54707-1.56273 4.14955-3.1749 4.80745-4.83652.65784-1.66161.53328-3.23158-.37369-4.70989-.90702-1.47832-2.25979-2.30505-4.0583-2.48021-1.79856-.17515-3.98635.52783-6.5634 2.10894zm14.82393 42.48158 18.44142-17.99952 6.27405 6.42808c1.60429 1.64372 2.58461 2.97945 2.94095 4.00721.35627 1.02778.3466 2.16712-.02902 3.41805-.37569 1.25092-1.13378 2.43299-2.27428 3.54619-1.44247 1.40788-2.94161 2.19561-4.49744 2.3632-1.55586.16759-3.06909-.27547-4.53967-1.32918.16881 1.11251.1831 2.15477.04289 3.1268-.14026.97202-.57144 2.53096-1.29355 4.67684l-1.80513 5.3481-3.54834-3.63546 1.85191-6.13065c.67321-2.21276 1.05307-3.63973 1.13958-4.28093.08649-.64119.04341-1.18866-.12925-1.64239-.17268-.45374-.6028-1.03283-1.29035-1.73728l-.6139-.62897-7.6986 7.51413-2.97127-3.04422zm13.61345-7.34296 2.21004 2.2643c1.35056 1.38374 2.27082 2.20495 2.76078 2.46364.48992.2587 1.03398.32538 1.63219.20004.59816-.12534 1.20335-.48677 1.81557-1.0843.58702-.57297.94415-1.1508 1.0714-1.7335.1272-.58268.06146-1.14078-.19723-1.67429-.18608-.37517-.9462-1.24624-2.28039-2.61321l-2.33281-2.39009-4.67955 4.56741zm7.65568 27.82494 15.80603-20.35284 12.38386 9.61731-2.67387 3.44304-9.02411-7.00813-3.50407 4.51206 8.38548 6.51217-2.66309 3.42916-8.38548-6.51217-4.30191 5.53942 9.32954 7.24533-2.66309 3.42916-12.68929-9.85451zm35.74538 13.14388 2.15042-3.77186 7.98657 4.55331-5.08439 8.91808c-1.34406.48825-2.94859.65263-4.81362.49313-1.86505-.15951-3.54074-.66296-5.02707-1.51035-1.81213-1.03314-3.15653-2.38977-4.03321-4.06992-.87669-1.68014-1.21329-3.63917-1.00982-5.87709.20346-2.2379.99008-4.55815 2.35985-6.96075 1.40458-2.46365 3.01579-4.33739 4.83364-5.62121 1.81781-1.28379 3.62749-1.98545 5.42905-2.10498 1.80151-.1195 3.61343.34021 5.43575 1.37913 2.18877 1.24789 3.62458 2.80503 4.30743 4.6714.68279 1.8664.5973 3.9861-.25646 6.3591l-4.1438-1.24959c.38096-1.30709.37909-2.475-.00564-3.50373-.38477-1.02871-1.08616-1.83328-2.10418-2.4137-1.57799-.89962-3.20534-1.01466-4.88203-.34513-1.67674.66957-3.2319 2.26163-4.6655 4.77619-1.53809 2.69782-2.17823 5.05099-1.92042 7.05952.21536 1.72804 1.09676 3.03317 2.6442 3.91539.7228.41209 1.57083.66962 2.54408.77259.97323.10296 1.93358.03334 2.88106-.20888l1.61934-2.84035-4.24525-2.4203zm14.29543 17.75622 10.10708-23.70476 3.91306 1.66843-10.10708 23.70476-3.91306-1.66843zm18.17845-6.21079c.87197-2.94388 2.02542-5.23912 3.46035-6.88575 1.43492-1.64659 2.99276-2.72818 4.67353-3.24479 1.68075-.51657 3.52116-.47866 5.52122.11373 2.89892.85868 4.93351 2.66518 6.10378 5.41952 1.17022 2.75437 1.14962 6.17654-.0618 10.26651-1.22478 4.13493-3.14793 7.07912-5.76946 8.83258-2.30574 1.55368-4.91369 1.89952-7.82385 1.03754-2.93266-.86865-4.94613-2.57112-6.0404-5.10742-1.2437-2.89834-1.26483-6.37564-.06337-10.43192zm4.26351 1.07951c-.84203 2.84277-.93421 5.13459-.27653 6.87547.65766 1.74088 1.78426 2.84762 3.37982 3.32021 1.60676.47593 3.14709.16524 4.62099-.93206 1.47387-1.0973 2.64347-3.10666 3.50881-6.02808.84865-2.86522.96195-5.13551.33989-6.81087-.6221-1.67532-1.76462-2.75928-3.42757-3.25186-1.66297-.49254-3.22161-.20256-4.67593.86996-1.45434 1.07256-2.61083 3.0583-3.46948 5.95723zm23.17748 19.29319 3.66798-25.50715 4.1062.59048 6.11089 18.26477 2.44949-17.03377 3.93221.56546-3.66799 25.50715-4.24539-.6105-6.02924-17.84457-2.39194 16.63359-3.93221-.56546zm48.3449 3.38156-4.64061-.01223-1.83027-5.85836-8.43748-.02223-1.75565 5.84891-4.53514-.01195 8.29443-25.74776 4.51756.0119 8.38716 25.79172zm-7.83053-10.21598-2.87519-9.57011-2.89042 9.55492 5.76561.01519zm18.40992 9.28127-3.35763-25.33709 4.21704-.55883 2.78725 21.03292 10.52517-1.39478.57038 4.30417-14.74221 1.95361zm41.7056-8.3959-8.92857-24.17331 5.98562-2.21083 9.6851 15.16159-2.52875-17.80484 6.00211-2.21692 8.92857 24.17332-3.71009 1.37035-7.02836-19.02866 3.08742 20.48427-3.8585 1.42516-10.93632-17.58522 7.02836 19.02866-3.72659 1.37643zm30.46385-12.4201-12.3402-22.62273 13.76499-7.5085 2.08756 3.82704-10.03054 5.47144 2.73572 5.01527 9.32069-5.08423 2.07915 3.81161-9.32069 5.08423 3.35862 6.15721 10.37004-5.65663 2.07915 3.81161-14.10449 7.69368zm27.91464-16.90773-12.58859-17.31825-5.07604 3.68976-2.5632-3.52621 13.57876-9.87037 2.5632 3.52621-5.06182 3.67942 12.58859 17.31826-3.4409 2.50118zm16.99902-13.25474-17.77943-18.6537 6.50207-6.19734c1.66264-1.58467 3.00992-2.54907 4.04184-2.89319 1.03192-.34406 2.17107-.32087 3.41745.06958 1.24639.3905 2.41937 1.16256 3.51896 2.3162 1.39066 1.45906 2.16055 2.96745 2.30967 4.52515.14912 1.55775-.31187 3.06561-1.38295 4.52358 1.11443-.15559 2.15679-.15752 3.12709-.00578.97028.15178 2.524.60143 4.66115 1.34896l5.32631 1.86846-3.6773 3.50495-6.10825-1.92453c-2.20462-.69941-3.62698-1.09618-4.2671-1.1903-.64013-.09409-1.18807-.0575-1.64382.10975-.45575.16729-1.0399.59051-1.75246 1.26965l-.63621.6064 7.42224 7.78722-3.07926 2.93494zm-7.1809-13.69963 2.29036-2.18301c1.39966-1.33405 2.23174-2.2445 2.49623-2.73135.26449-.48682.33762-1.03005.21939-1.6297-.11823-.59961-.47246-1.20905-1.06268-1.82832-.56597-.59377-1.13952-.95773-1.72066-1.09189-.58114-.13411-1.13998-.07499-1.67652.17735-.37735.18161-1.25738.93135-2.64008 2.24922l-2.4176 2.30429 4.51156 4.73341zm17.41616-14.45128c-2.4173-1.89299-4.12791-3.80934-5.13184-5.74906-1.00391-1.9397-1.43719-3.78604-1.29985-5.53905.13738-1.75296.84909-3.4506 2.13516-5.09292 1.86411-2.38038 4.29199-3.60854 7.28367-3.6845 2.99169-.0759 6.16673 1.20112 9.52513 3.83106 3.3953 2.65888 5.42652 5.52958 6.09366 8.61211.59741 2.7154-.03953 5.26791-1.91084 7.65753-1.88578 2.40809-4.20915 3.65485-6.97012 3.74027-3.15259.09133-6.39424-1.16715-9.72497-3.77544zm2.57105-3.56827c2.33427 1.82798 4.43178 2.75609 6.29254 2.78433 1.86075.02826 3.30411-.61269 4.33009-1.92284 1.03319-1.31936 1.31042-2.86606.83168-4.64012-.47875-1.77402-1.91755-3.60031-4.3164-5.47887-2.35273-1.8424-4.42245-2.78223-6.20917-2.81951-1.78672-.03724-3.21474.62688-4.28407 1.99236-1.06932 1.36553-1.37253 2.92165-.90964 4.66838.46292 1.74677 1.88457 3.55219 4.26497 5.41627zm26.4134-14.43041-22.334-12.8554 3.41993-5.94151c1.27444-2.21408 2.21414-3.59999 2.8191-4.15773.97085-.88795 2.22311-1.36041 3.75676-1.4174 1.53367-.05694 3.18918.4261 4.96655 1.44913 1.61488.92954 2.79284 2.01322 3.5339 3.25103.74105 1.23785 1.06941 2.44096.98507 3.60932-.08433 1.16839-.76956 2.86979-2.05569 5.10419l-1.39428 2.42231 8.42477 4.84928-2.12211 3.68678zm-16.4337-14.36746 6.33762 3.64791 1.17505-2.04144c.78922-1.3711 1.2291-2.35849 1.31966-2.96217.09056-.60364-.02492-1.20759-.34644-1.81183-.32151-.60421-.8479-1.11678-1.57917-1.53772-.74141-.42673-1.45957-.62376-2.15447-.59108-.69488.03273-1.26604.23807-1.71348.61602-.44741.37799-1.11541 1.33886-2.00402 2.88262l-1.03475 1.79769zm17.55076-14.13864c-2.85183-1.13744-5.03202-2.49589-6.54057-4.07535-1.50851-1.57944-2.44317-3.22963-2.80396-4.9506-.36075-1.72093-.15475-3.55016.618-5.4877 1.1201-2.80828 3.10504-4.6692 5.95483-5.58277 2.84982-.91351 6.25577-.58015 10.21787 1.0001 4.00565 1.59766 6.7617 3.78191 8.26816 6.55276 1.33638 2.43812 1.44236 5.06676.31794 7.88594-1.13311 2.84097-3.01252 4.69036-5.63824 5.54818-2.9999.97354-6.46457.67669-10.39403-.89056zm1.46475-4.14697c2.75389 1.09839 5.02769 1.39969 6.8214.90392 1.79372-.49575 2.99882-1.51646 3.6153-3.06213.62082-1.55653.45224-3.11881-.50572-4.68686-.95796-1.56801-2.85198-2.9164-5.68206-4.04519-2.77565-1.10703-5.02607-1.4274-6.75128-.96111-1.72518.46634-2.90904 1.50498-3.55159 3.11593-.64251 1.61098-.49622 3.18961.43885 4.73589.93511 1.5463 2.80681 2.87948 5.6151 3.99955zm21.2875-21.40009-24.8203-6.09876 1.01506-4.13102 20.60392 5.06272 2.53346-10.3105 4.21637 1.03604-3.54851 14.44152zm5.35727-25.48223-25.52062-3.57306.58983-4.21282 25.52061 3.57306-.58982 4.21282zm2.10087-21.22852-21.39476-.81177-.23793 6.27088-4.35624-.16528.63648-16.77504 4.35624.16528-.23726 6.25332 21.39476.81177-.16129 4.25084zm-1.73809-40.50517.44532 4.61921-5.64939 2.39888.80965 8.39857 5.9935 1.1705.43519 4.51423-26.44003-5.71577-.4335-4.49673 24.83926-10.88889zm-9.39427 8.7995-9.24005 3.80462 9.79332 1.93439-.55327-5.73901zm7.48892-19.17969-25.03844 6.09471-.98114-4.03074 14.67533-12.47315-16.72076 4.07007-.93956-3.85995 25.03843-6.09471 1.0144 4.16738-14.31576 12.24089 16.32793-3.97445.93957 3.85995zm-19.28076-22.86879c-2.84547 1.15327-5.35922 1.6821-7.54125 1.58651-2.182-.0956-3.99883-.63951-5.45051-1.63174-1.45163-.99223-2.56922-2.45494-3.35276-4.38814-1.13563-2.80204-.99134-5.51906.43289-8.15107 1.42428-2.63199 4.11304-4.74912 8.06629-6.35138 3.99673-1.61984 7.49771-1.95134 10.50296-.9945 2.65217.83445 4.54828 2.65811 5.68834 5.471 1.14887 2.83464 1.07275 5.47029-.22836 7.90696-1.49104 2.7792-4.1969 4.96332-8.1176 6.55236zm-1.81358-4.00671c2.74775-1.11365 4.59727-2.47019 5.54856-4.06964.95131-1.59945 1.11443-3.17027.48937-4.71249-.62945-1.55306-1.83256-2.56383-3.60935-3.03232-1.77677-.46846-4.07704-.13047-6.90082 1.01398-2.76944 1.12247-4.61528 2.44908-5.53754 3.97984-.92221 1.53077-1.05759 3.09984-.40615 4.70721.65148 1.60737 1.84983 2.64537 3.59503 3.11399 1.74524.46861 4.01887.13509 6.8209-1.00057z" style="font-size:36px;font-style:normal;font-variant:normal;font-weight:700;font-stretch:normal;text-align:start;line-height:125%;writing-mode:lr-tb;text-anchor:start;fill:#fc0;fill-opacity:1;stroke:#fc0;stroke-width:1px;stroke-linecap:butt;stroke-linejoin:miter;stroke-opacity:1;font-family:Arial Narrow" transform="matrix(.66663 0 0 .66663 250.00989 152.67024)"/>
  <g>
    <path style="fill:#fc0;fill-opacity:1;fill-rule:evenodd;stroke:#000;stroke-width:1;stroke-linecap:butt;stroke-linejoin:miter;stroke-miterlimit:4;stroke-dasharray:none;stroke-opacity:1" d="M280.75 8.625v70.53125h38.5V10.625c-2.30294-10.93642725-34.53377-11.7341173-38.5-2z" transform="matrix(.66663 0 0 .66663 249.71567835 154.0035074)"/>
    <path style="fill:#fc0;fill-opacity:1;fill-rule:evenodd;stroke:#000;stroke-width:1;stroke-linecap:butt;stroke-linejoin:miter;stroke-miterlimit:4;stroke-dasharray:none;stroke-opacity:1" d="M282.71507 7.625v71.53125h34.5c-.23893-20.811665.42155-51.69937-.21875-72.46875-18.25832-8.795811-24.11498-1.056085-34.28125.9375z" transform="matrix(.66663 0 0 .66663 249.71567835 154.0035074)"/>
    <path style="fill:#fc0;fill-opacity:1;fill-rule:evenodd;stroke:#000;stroke-width:1;stroke-linecap:butt;stroke-linejoin:miter;stroke-miterlimit:4;stroke-dasharray:none;stroke-opacity:1" d="M284.67178 6.625v72.53125h30.46875c-.49131-22.388598 1.13626-49.05997-.75-71.28125-20.24503-27.849729-21.2537-2.062592-29.71875-1.25z" transform="matrix(.66663 0 0 .66663 249.71567835 154.0035074)"/>
    <path d="M299.76145 21.080386c-4.90662.032264-7.16988 5.847555-6.4906 10.061134v14.806625h13.49326c-.21758-9.914924.5032-9.7265-.33214-19.567326-.81376-2.954094-3.39166-5.626185-6.67052-5.300433zM293.25337 58.349625V79.15625h13.49326l-.33214-20.806625h-13.16112z" style="fill:#fc0;fill-opacity:1;fill-rule:evenodd;stroke:#000;stroke-width:1;stroke-linecap:butt;stroke-linejoin:miter;stroke-miterlimit:4;stroke-dasharray:none;stroke-opacity:1" transform="matrix(.66663 0 0 .66663 249.71567835 154.0035074)"/>
    <path style="fill:#fc0;fill-opacity:1;stroke:#000;stroke-width:1;stroke-miterlimit:4;stroke-dasharray:none;stroke-opacity:1" d="m280.57876 3.54834.00001 5.23291h10.07812c.21314-5.005095 4.31775-9 9.375-9 5.05751 0 9.19347 3.994559 9.40625 9h9.97098V3.54834C319.59729.337584 317.57934 0 314.46567 0h-28.94345c-3.26762-.346485-4.94346.61649-4.94346 3.54834zM289.99551 50.976982h20.008955v2.5937538H289.99551z" transform="matrix(.66663 0 0 .66663 249.71567835 154.0035074)"/>
    <path transform="matrix(.66663 0 0 .66663 253.45479194 168.6694488)" d="M300.87544-12.822197a6.4843845 6.4843845 0 1 1-12.96877 0 6.4843845 6.4843845 0 1 1 12.96877 0z" style="fill:#fc0;fill-opacity:1;stroke:#000;stroke-width:1;stroke-miterlimit:4;stroke-dasharray:none;stroke-opacity:1"/>
    <path d="M299.91366 4.6492495v4.5285538l2.1007 2.7007417" style="fill:none;fill-rule:evenodd;stroke:#000;stroke-width:1px;stroke-linecap:round;stroke-linejoin:miter;stroke-opacity:1" transform="matrix(.66663 0 0 .66663 249.77323247 154.0035074)"/>
    <g>
      <path d="M295.00377-20.46875v7.5625h1.15625v-7.5625h-1.15625zM303.58871-20.46875v7.5625h1.15625v-7.5625h-1.15625z" style="fill:#fc0;fill-opacity:1;stroke:#000;stroke-width:.5;stroke-miterlimit:4;stroke-dasharray:none;stroke-opacity:1" transform="matrix(.66663 0 0 .66663 249.72992098 154.0035074)"/>
      <path style="fill:#fc0;fill-opacity:1;stroke:#000;stroke-width:2.28548121;stroke-miterlimit:4;stroke-dasharray:none;stroke-opacity:1" d="M270.12095-49.13475a10.560284 10.560284 0 1 1-21.12056-.000001l10.56028.000001z" transform="matrix(.29168 0 0 -.29168 373.92711246 126.30364456)"/>
      <path d="M299.37437-33v8.78125h1V-33l-.5-2-.5 2zM282.23474-8.512205V.2690446h1V-8.512205l-.5-2-.5 2zM316.72253-8.512205V.2690446h1V-8.512205l-.5-2-.5 2z" style="fill:#000;fill-opacity:1;fill-rule:evenodd;stroke:none;stroke-width:1px;stroke-linecap:butt;stroke-linejoin:miter;stroke-opacity:1" transform="matrix(.66663 0 0 .66663 249.72992098 154.0035074)"/>
      <path transform="matrix(.88997 0 0 -.88997 218.63607465 110.0806255)" d="M270.12095-49.13475a10.560284 10.560284 0 1 1-21.12056-.000001l10.56028.000001z" style="fill:#fc0;fill-opacity:1;stroke:#000;stroke-width:.74905515;stroke-miterlimit:4;stroke-dasharray:none;stroke-opacity:1"/>
    </g>
  </g>
</svg>
