<?xml version="1.0" encoding="UTF-8"?>
<svg id="svg8" viewBox="0 0 900 600" xmlns="http://www.w3.org/2000/svg">
 <defs>
  <style>.cls-1, .cls-2 {
        fill: none;
      }

      .cls-3 {
        fill: #da3b27;
        stroke-miterlimit: 10;
      }

      .cls-3, .cls-4, .cls-5, .cls-6, .cls-7, .cls-8, .cls-9 {
        fill-rule: evenodd;
      }

      .cls-3, .cls-4, .cls-5, .cls-10, .cls-2 {
        stroke: #894344;
        stroke-width: .25px;
      }

      .cls-11 {
        fill: #424d65;
      }

      .cls-12, .cls-6 {
        fill: #74acdf;
      }

      .cls-4, .cls-5, .cls-10, .cls-2 {
        stroke-linejoin: round;
      }

      .cls-4, .cls-10 {
        fill: #d83a26;
      }

      .cls-5 {
        fill: #e45430;
      }

      .cls-7 {
        fill: #c23624;
      }

      .cls-8 {
        fill: #cf3a25;
      }

      .cls-9 {
        fill: #fff;
      }</style>
 </defs>
 <path id="path217277" class="cls-6" d="m0,0h900v600H0V0Z"/>
 <path id="path217279" class="cls-9" d="m0,200v200h.61l-.61-200Zm1.04,0l.09,200h898.88v-200H1.04Z"/>
 <path id="path1636" class="cls-9" d="m519.73,299.26c0,51.66-31.19,93.55-69.78,93.55s-69.69-41.89-69.69-93.55v-.55l69.69.55h69.78,0Z"/>
 <path class="cls-12" d="m450.04,208.41c-38.42,0-69.5,40.95-69.77,91.59h139.46c-.28-50.64-31.27-91.59-69.68-91.59Z"/>
 <g id="g62089">
  <path id="rect3114" class="cls-10" d="m446.4,341.69l.15-21.9h-7.22v-6.79h7.22v-6.89h6.88v6.89h6.98v6.79h-6.98l.15,21.9h-7.18Z"/>
 </g>
 <path id="path1894" class="cls-3" d="m460.47,264.23c-7.42.86-13.4,3.15-18.95,5.79-28.63,19.02,50.51-4.23,18.95-5.79Z"/>
 <g id="g1924">
  <g id="g1922">
   <path id="path1912" class="cls-4" d="m438.99 242.47c-8.57 5.12-9.07 16.23-6.19 28.15 8.99-3.15 24.3-6.09 32.49-10.94-3.03-4.76-6.03-8.06-15.55-10.06 3.19-1.02 5.14-5.66 2.72-7.78-2.98-1.81-9.66-1.72-13.47 0.64z"/>
   <path id="path1916-6" class="cls-8" d="m434.76,258.45c1.25-4.4,18.54-7.56,20.38-7.19,0,0-2.21-.86-3.54-1.08-10.53-1.61-16.78,5.43-16.84,8.27Z"/>
   <path id="path1916" class="cls-7" d="m434.76,258.45c1.85-6.28,15.99-8.87,18.3-7.93,0,0-2.69-.66-3.72-.76-10.48-1.6-14.52,5.86-14.58,8.69Z"/>
   <path id="path1920" class="cls-5" d="m435.72,276.58c-.02.17.21.5.27.65-3.1-1.14-2.21-3.47-3.19-6.6-.14-1.91,2.89-4.93,4.61-5.96,8.38-4.18,12.86-5.4,21.46-6.56,2.06-.24,4.78-.11,6.41,1.58l2.77,6.81c-7.07-2.58-25.55,1.19-32.34,10.09h.01Z"/>
   <path id="path121063" class="cls-2" d="m434.76 258.45c1.11-6.67 8.12-9.57 15.33-8.79"/>
  </g>
 </g>
 <path class="cls-10" d="m426.43 347.99-5.97-12.64-5.97 12.64h4.09v33.48c1.24 0.84 2.49 1.64 3.77 2.39v-35.87h4.09z"/>
 <path class="cls-10" d="m413.79 334.84-5.97-12.64-5.97 12.64h4.09v35.55c1.22 1.35 2.48 2.63 3.77 3.86v-39.41h4.09z"/>
 <path class="cls-10" d="m401.15 321.93-5.97-12.64-5.97 12.64h4.09v30.14c1.19 2.27 2.44 4.46 3.77 6.57v-36.71h4.09z"/>
 <path class="cls-10" d="m439.07,360.96l-5.97-12.64-5.97,12.64h4.09v27.12c1.24.47,2.5.89,3.77,1.27v-28.39h4.09,0Z"/>
 <path class="cls-10" d="m485.24 347.99-5.97-12.64-5.97 12.64h4.09v36.07c1.28-0.74 2.53-1.53 3.77-2.37v-33.7h4.09z"/>
 <path class="cls-10" d="m493.8 334.84h4.09l-5.97-12.64-5.97 12.64h4.09v39.71c1.29-1.22 2.55-2.48 3.77-3.81v-35.89z"/>
 <path class="cls-10" d="m472.6 360.96-5.97-12.64-5.97 12.64h4.09v28.49c1.27-0.37 2.53-0.79 3.77-1.25v-27.25h4.09z"/>
 <path class="cls-1" d="m485.94,334.84l5.97-12.64,5.97,12.64h-4.09v35.89c15.38-16.8,25.2-42.25,25.2-70.69,0-50.52-30.93-91.62-68.95-91.62s-69.04,41.1-69.04,91.62c0,19.32,4.55,37.24,12.28,52.03v-30.14h-4.09l5.97-12.64,5.97,12.64h-4.09v36.71c2.68,4.26,5.65,8.19,8.87,11.74v-35.55h-4.09l5.97-12.64,5.97,12.64h-4.09v39.41c2.81,2.69,5.77,5.1,8.87,7.22v-33.48h-4.09l5.97-12.64,5.97,12.64h-4.09v35.87c2.86,1.67,5.82,3.08,8.87,4.23v-27.12h-4.09l5.97-12.64,5.97,12.64h-4.09v28.39c4.85,1.44,9.89,2.22,15.06,2.22s9.96-.74,14.7-2.11v-28.49h-4.09l5.97-12.64,5.97,12.64h-4.09v27.25c3.05-1.13,6.01-2.51,8.87-4.16v-36.07h-4.09l5.97-12.64,5.97,12.64h-4.09v33.7c3.1-2.09,6.06-4.48,8.87-7.14v-39.71h-4.09.08Z"/>
 <path class="cls-11" d="m493.8,372.86c16.24-17.05,26.68-43.35,26.68-72.81,0-51.34-31.6-93.1-70.43-93.1s-70.53,41.77-70.53,93.1c0,20.62,5.12,39.69,13.77,55.13,1.19,2.12,2.45,4.17,3.77,6.15,2.71,4.06,5.67,7.81,8.87,11.21,1.22,1.3,2.48,2.54,3.77,3.73,2.81,2.6,5.78,4.93,8.87,6.98,1.24.82,2.49,1.6,3.77,2.33,2.86,1.62,5.83,2.98,8.87,4.09,1.24.46,2.5.87,3.77,1.24,4.86,1.4,9.89,2.16,15.06,2.16s9.95-.72,14.7-2.05c1.27-.36,2.53-.77,3.77-1.21,3.04-1.09,6.01-2.43,8.87-4.03,1.28-.71,2.53-1.49,3.77-2.3,3.09-2.02,6.05-4.33,8.87-6.9,1.29-1.18,2.55-2.42,3.77-3.71h.01Zm-3.77,1.69c-2.81,2.66-5.77,5.05-8.87,7.14-1.24.83-2.49,1.63-3.77,2.37-2.86,1.65-5.82,3.03-8.87,4.16-1.24.46-2.5.88-3.77,1.25-4.74,1.37-9.65,2.11-14.7,2.11s-10.21-.78-15.06-2.22c-1.27-.38-2.53-.8-3.77-1.27-3.05-1.15-6.01-2.56-8.87-4.23-1.28-.75-2.53-1.55-3.77-2.39-3.1-2.11-6.06-4.53-8.87-7.22-1.29-1.24-2.55-2.52-3.77-3.86-3.22-3.55-6.18-7.48-8.87-11.74-1.33-2.11-2.59-4.31-3.77-6.57-7.74-14.79-12.28-32.71-12.28-52.03,0-50.52,30.97-91.62,69.04-91.62s68.95,41.1,68.95,91.62c0,28.44-9.82,53.89-25.2,70.69-1.22,1.33-2.48,2.59-3.77,3.81h-.01Z"/>
</svg>
