<?xml version="1.0" encoding="UTF-8"?>
<svg id="Capa_1" data-name="Capa 1" xmlns="http://www.w3.org/2000/svg" width="146cm" height="165cm" viewBox="0 0 4138.58 4677.17">
  <defs>
    <style>
      .cls-1, .cls-2, .cls-3, .cls-4, .cls-5, .cls-6, .cls-7 {
        stroke: #1d1d1b;
      }

      .cls-1, .cls-2, .cls-4, .cls-6, .cls-7 {
        stroke-miterlimit: 10;
      }

      .cls-1, .cls-2, .cls-8, .cls-7, .cls-9 {
        fill: #fcbf47;
      }

      .cls-1, .cls-4 {
        stroke-width: 2.91px;
      }

      .cls-10 {
        stroke-miterlimit: 3.86;
        stroke-width: 21.67px;
      }

      .cls-10, .cls-3, .cls-4, .cls-5 {
        fill: none;
      }

      .cls-10, .cls-11 {
        stroke: #231f20;
      }

      .cls-2 {
        stroke-width: 4.08px;
      }

      .cls-3, .cls-5 {
        stroke-linejoin: round;
      }

      .cls-3, .cls-6, .cls-7 {
        stroke-width: 5.82px;
      }

      .cls-11 {
        fill: #008751;
        stroke-linejoin: bevel;
        stroke-width: 15.38px;
      }

      .cls-11, .cls-5 {
        stroke-linecap: round;
      }

      .cls-11, .cls-12, .cls-13, .cls-8 {
        fill-rule: evenodd;
      }

      .cls-5 {
        stroke-width: 8.74px;
      }

      .cls-12, .cls-13, .cls-8, .cls-14, .cls-15, .cls-16, .cls-17, .cls-18, .cls-19, .cls-20, .cls-9, .cls-21, .cls-22, .cls-23 {
        stroke-width: 0px;
      }

      .cls-12, .cls-14 {
        fill: #1d1d1b;
      }

      .cls-13 {
        fill: #1b1a00;
      }

      .cls-6, .cls-17 {
        fill: #da251d;
      }

      .cls-15 {
        fill: #c99d9b;
      }

      .cls-16 {
        fill: #c01216;
      }

      .cls-18 {
        fill: #8f5444;
      }

      .cls-19 {
        fill: #fde5d6;
      }

      .cls-20 {
        fill: #fff;
      }

      .cls-21 {
        fill: #e6b3b1;
      }

      .cls-22 {
        fill: #fae4d5;
      }

      .cls-23 {
        fill: #005197;
      }
    </style>
  </defs>
  <rect class="cls-20" width="4138.58" height="4677.17"/>
  <g id="g95348">
    <g id="g82169">
      <path id="path31286" class="cls-8" d="m1598.25,728.42h0c33.84,10.37,28.72,15.96,73.74,14.91,20.5-.47,60.11,3.61,66.46,19.57-25.75,5.59-198.63,38.62-207.42,43.92l209,14.74c-8.68,9.61-30.76,16.95-43.05,26.74-46.42,37.45-60.58,28.54-107.29,35.42-22.08,3.26-40.37,12.58-46.6,26.56,18-5.59,8.56-10.6,50.62-6.7,18,1.57,38.21,4.19,56.09,3.61,35.42-1.11,37.45-27.96,98.03-22.66l-155.58,105.9,127.68-22.08,704.11-2.62,124.07,22.83-111.31-61.86-45.84-23.94c8.68-5.42,32.74-13.69,45.96-15.2,39.43-4.78,61.16,18,96.11,28.25,13.34,4.02,43.34,8.1,54.17,0-15.84-8.97-23.3-2.21-47.53-20.68-37.45-28.54-42.52-34.02-92.21-44.73-36.06-7.81-26.56-9.96-51.72-19.11,2.33-1.4-1.57-.17,4.49-1.98l20.04-2.33c8.39-.82,17.07-1.69,25.63-2.5,18-1.57,35.71-3.38,53.12-5.01,18.93-1.69,35.53-3.26,54.4-5.01l37.92-3.26c1.22-.17,5.42-.58,6.81-.93,8.56-2.62-6.99,3.09,2.97-1.22l-183.54-45.32c6.81-6.17,34.02-16.78,43.16-21.14,48.75-23.12,81.26-6.99,113.06-15.84,14.45-4.02,36.17-13.16,42.4-22.19-74.56,10.72-65.06-6.7-111.2-6.7s-60.29,17.53-111.31.93c4.37-6.82,15.96-9.96,22.66-12.87,7.81-3.26,15.2-6.7,23.59-10.37,17.07-7.46,31.98-14.15,48.75-21.55l72.69-31.98c4.78-2.21,8.1-3.9,12.58-5.77l12.12-6.7-209.64,24.35c5.01-8.21,29.94-30.46,37.74-36.64,63.08-51.38,127.8-43.63,137.47-90.23-22.54,12.12-6.99,14.15-49.69,23.12-67.39,14.27-37.92-7.16-107.76,36.93-10.25,6.41-41.01,22.19-54.4,14.74-1.57-6.7,75.32-84.34,83.7-93.95,6.41-7.28,10.25-12.41,17.24-19.11,6.06-5.42,30.76-32.33,34.02-38.33-19.28,5.3-100.48,56.97-126.69,72.34-11.94,7.16-30.58,19.4-42.52,24.06,5.88-20.04,8.68-16.6,15.84-46.89,13.16-56.38,80.73-83.24,67.1-119.58l-14.91,18.93c-17.24,19.28-48.93,26.56-63.49,45.2-13.16,16.95-29.07,46.89-46.31,60.4-5.88,4.49-16.31,8.21-21.26,12.87-1.11-15.55,41.01-162.57,47.24-191.93-8.21,8.39-22.08,29.82-29.36,40.83-9.79,14.56-20.15,28.43-29.82,42.52-9.49,14.15-50.33,75.66-59.47,83.35-1.57-19.11.47-34.31-2.33-55.28-2.62-19.11-2.5-36.52,4.19-53.59,9.49-24.23,28.83-73.45,4.19-92.73,2.62,56.09-18.46,46.6-38.5,90.69-14.27,31.63-12.41,74.67-35.82,96.75-.93-1.22-.93-.29-2.21-3.61l-27.67-187.73c-1.69-6.7.82-.93-2.33-6.52l-27.14,148.77c-1.57,8.1-2.97,15.67-4.37,23.59-1.4,7.81-3.09,19.75-6.81,24.23-11.18-34.77-32.44-44.56-41.01-89.94-3.38-17.88-.58-46.13-5.3-61.16-4.37-13.8-20.15-31.63-30.93-33.84,30.58,37.74-5.3,70.95-2.33,101.12,1.11,11.01,4.37,15.55,7.92,24.23,9.32,22.37,15.09,60,5.77,81.08-14.45-5.3-108.98-150.81-127.16-165.08,1.98,13.16,9.79,34.13,13.51,46.89,4.78,16.48,9.49,31.51,14.45,48.29,8.1,27.96,22.95,69.08,27.14,96.4l-10.37-8.68c-22.37-20.97-53.59-32.74-75.66-55.1-23.59-24.06-29.07-73.57-72.05-77.35l2.21,2.21c12.29,12.29,21.14,21.73,24.52,40.02,4.02,20.33,1.22,44.44,12.87,57.49,22.19,24.52,54.99,40.02,63.49,77.47-30.58-11.01-169.91-104.67-194.55-110.09,24.52,29.53,125,127.33,136.83,146.73-10.6-1.11-14.91-3.73-23.94-5.3-10.25-1.86-16.6-.58-26.85-3.26-14.27-3.73-32.15-7.92-45.49-13.05-11.18-4.37-16.78-9.96-24.99-17.24-14.56-13.16-27.96-22.54-51.9-21.44,7.16,5.01,15.09,6.06,21.44,13.51,17.53,20.5,21.9,51.2,46.6,62.09,39.9,17.71,65.06,10.08,95.64,50.33l-192.74-24.87c4.66,7.46,102.23,51.72,113.18,56.97,11.65,5.77,27.67,14.56,38.04,18.35-2.21,1.57.29.58-4.37,2.21-7.28,2.33-14.45,1.4-21.9,1.69-27.44,1.57-41.41,13.98-84.17,8.1-29.07-3.9-44.73-20.04-75.66-10.6l-22.08,11.18c21.9.17,24.06-2.8,43.63,5.01,8.39,3.26,27.44,12.41,32.33,16.6h0l-.17.12h0v.23h0Z"/>
      <path id="path31286-5" class="cls-5" d="m1598.25,728.42h0c33.84,10.37,28.72,15.96,73.74,14.91,20.5-.47,60.11,3.61,66.46,19.57-25.75,5.59-198.63,38.62-207.42,43.92l209,14.74c-8.68,9.61-30.76,16.95-43.05,26.74-46.42,37.45-60.58,28.54-107.29,35.42-22.08,3.26-40.37,12.58-46.6,26.56,18-5.59,8.56-10.6,50.62-6.7,18,1.57,38.21,4.19,56.09,3.61,35.42-1.11,37.45-27.96,98.03-22.66l-155.58,105.9,127.68-22.08,704.11-2.62,124.07,22.83-111.31-61.86-45.84-23.94c8.68-5.42,32.74-13.69,45.96-15.2,39.43-4.78,61.16,18,96.11,28.25,13.34,4.02,43.34,8.1,54.17,0-15.84-8.97-23.3-2.21-47.53-20.68-37.45-28.54-42.52-34.02-92.21-44.73-36.06-7.81-26.56-9.96-51.72-19.11,2.33-1.4-1.57-.17,4.49-1.98l20.04-2.33c8.39-.82,17.07-1.69,25.63-2.5,18-1.57,35.71-3.38,53.12-5.01,18.93-1.69,35.53-3.26,54.4-5.01l37.92-3.26c1.22-.17,5.42-.58,6.81-.93,8.56-2.62-6.99,3.09,2.97-1.22l-183.54-45.32c6.81-6.17,34.02-16.78,43.16-21.14,48.75-23.12,81.26-6.99,113.06-15.84,14.45-4.02,36.17-13.16,42.4-22.19-74.56,10.72-65.06-6.7-111.2-6.7s-60.29,17.53-111.31.93c4.37-6.82,15.96-9.96,22.66-12.87,7.81-3.26,15.2-6.7,23.59-10.37,17.07-7.46,31.98-14.15,48.75-21.55l72.69-31.98c4.78-2.21,8.1-3.9,12.58-5.77l12.12-6.7-209.64,24.35c5.01-8.21,29.94-30.46,37.74-36.64,63.08-51.38,127.8-43.63,137.47-90.23-22.54,12.12-6.99,14.15-49.69,23.12-67.39,14.27-37.92-7.16-107.76,36.93-10.25,6.41-41.01,22.19-54.4,14.74-1.57-6.7,75.32-84.34,83.7-93.95,6.41-7.28,10.25-12.41,17.24-19.11,6.06-5.42,30.76-32.33,34.02-38.33-19.28,5.3-100.48,56.97-126.69,72.34-11.94,7.16-30.58,19.4-42.52,24.06,5.88-20.04,8.68-16.6,15.84-46.89,13.16-56.38,80.73-83.24,67.1-119.58l-14.91,18.93c-17.24,19.28-48.93,26.56-63.49,45.2-13.16,16.95-29.07,46.89-46.31,60.4-5.88,4.49-16.31,8.21-21.26,12.87-1.11-15.55,41.01-162.57,47.24-191.93-8.21,8.39-22.08,29.82-29.36,40.83-9.79,14.56-20.15,28.43-29.82,42.52-9.49,14.15-50.33,75.66-59.47,83.35-1.57-19.11.47-34.31-2.33-55.28-2.62-19.11-2.5-36.52,4.19-53.59,9.49-24.23,28.83-73.45,4.19-92.73,2.62,56.09-18.46,46.6-38.5,90.69-14.27,31.63-12.41,74.67-35.82,96.75-.93-1.22-.93-.29-2.21-3.61l-27.67-187.73c-1.69-6.7.82-.93-2.33-6.52l-27.14,148.77c-1.57,8.1-2.97,15.67-4.37,23.59-1.4,7.81-3.09,19.75-6.81,24.23-11.18-34.77-32.44-44.56-41.01-89.94-3.38-17.88-.58-46.13-5.3-61.16-4.37-13.8-20.15-31.63-30.93-33.84,30.58,37.74-5.3,70.95-2.33,101.12,1.11,11.01,4.37,15.55,7.92,24.23,9.32,22.37,15.09,60,5.77,81.08-14.45-5.3-108.98-150.81-127.16-165.08,1.98,13.16,9.79,34.13,13.51,46.89,4.78,16.48,9.49,31.51,14.45,48.29,8.1,27.96,22.95,69.08,27.14,96.4l-10.37-8.68c-22.37-20.97-53.59-32.74-75.66-55.1-23.59-24.06-29.07-73.57-72.05-77.35l2.21,2.21c12.29,12.29,21.14,21.73,24.52,40.02,4.02,20.33,1.22,44.44,12.87,57.49,22.19,24.52,54.99,40.02,63.49,77.47-30.58-11.01-169.91-104.67-194.55-110.09,24.52,29.53,125,127.33,136.83,146.73-10.6-1.11-14.91-3.73-23.94-5.3-10.25-1.86-16.6-.58-26.85-3.26-14.27-3.73-32.15-7.92-45.49-13.05-11.18-4.37-16.78-9.96-24.99-17.24-14.56-13.16-27.96-22.54-51.9-21.44,7.16,5.01,15.09,6.06,21.44,13.51,17.53,20.5,21.9,51.2,46.6,62.09,39.9,17.71,65.06,10.08,95.64,50.33l-192.74-24.87c4.66,7.46,102.23,51.72,113.18,56.97,11.65,5.77,27.67,14.56,38.04,18.35-2.21,1.57.29.58-4.37,2.21-7.28,2.33-14.45,1.4-21.9,1.69-27.44,1.57-41.41,13.98-84.17,8.1-29.07-3.9-44.73-20.04-75.66-10.6l-22.08,11.18c21.9.17,24.06-2.8,43.63,5.01,8.39,3.26,27.44,12.41,32.33,16.6h0l-.17.12h0v.23h0Z"/>
    </g>
    <g id="g93889">
      <g id="g94893">
        <path id="loweyecontour" class="cls-12" d="m2199.73,643.15c-26.5,0-51.9,11.47-66.75,35.36,29.82,26.85,95.82,29.76,140.61-3.03-19.4-20.91-47.3-32.33-73.74-32.33h-.12Zm-.41,6.12c25.8-.47,49.86,11.36,53.3,23.12-29.82,32.79-77.53,30-107.41,6.12,13.05-20.91,34.08-28.83,54.11-29.24h0Z"/>
        <g id="use93829">
          <path id="uppalpebra" class="cls-12" d="m2204.79,624.74c-38.85,0-47.76,8.97-65.7,23.88-17.94,14.97-26.85,11.88-29.82,14.97-2.97,2.97,0,11.88,5.94,8.91,5.94-2.97,17.94-8.91,35.76-23.88,17.94-14.97,35.76-14.97,53.7-14.97,53.7,0,83.59,44.79,89.59,41.82,5.94-2.97-29.82-50.73-89.59-50.73h.12Z"/>
        </g>
        <g id="use93831">
          <path id="eyebrow_nose" data-name="eyebrow nose" class="cls-12" d="m2312.2,642.56c-68.67-59.7-155.23-68.67-203-23.88-11.65,15.67-19.22,32.39-22.25,49.86-6,33.96,4.6,70.71,31.22,108.34-2.97,0-8.97,2.97-11.94,5.94-23.71-45.32-32.09-91.86-24.29-136.18,2.04-11.53,5.24-22.95,9.38-34.02,65.7-53.71,155.23-59.7,220.94,29.88h0l-.06.06h0Z"/>
        </g>
        <g id="use93833">
          <circle id="pupil" class="cls-14" cx="2198.85" cy="672.33" r="26.85"/>
        </g>
        <g id="use93835">
          <path id="lowpalpebra" class="cls-12" d="m2276.5,690.39c-50.73,38.85-101.53,35.82-131.35,17.94s-29.82-23.88-23.88-23.88,11.88,5.94,35.76,17.94c23.88,12,59.7,11.94,119.41-11.88h.06v-.12Z"/>
        </g>
        <path id="path93837" class="cls-12" d="m2008.03,779.8c-12.76,2.33-21.78,13.69-21.78,26.62,0,14.85,12.29,26.62,27.09,26.62,8.74,0,16.83-4.14,21.78-11.36,10.31,7.81,24.7,8.56,32.33,8.74h3.44c7.63-.12,22.02-.99,32.33-8.74,5.07,7.22,13.05,11.36,21.78,11.36,14.85,0,27.09-11.77,27.09-26.62,0-12.99-9.03-24.29-21.78-26.62,7.16,2.56,11.77,9.49,11.77,17.01,0,9.9-7.98,17.94-17.94,17.94s-17.3-7.51-17.94-17.01c-2.91,5.82-14.45,23.12-37.1,24-22.66-.93-34.19-18.17-37.1-24-.52,9.49-8.39,17.01-17.94,17.01s-17.94-8.04-17.94-17.94c0-7.57,4.6-14.5,11.77-17.01h.17-.03Z"/>
        <path id="path93839" class="cls-12" d="m2037.27,859.31c-29.88,0-41.71,27.03-68.56,44.97,14.97-5.94,26.68-17.77,47.59-29.71,20.91-11.88,38.68,2.62,50.68,2.62h.41c11.88,0,29.76-14.56,50.68-2.62,20.91,11.94,33.14,23.77,48,29.71-26.85-17.94-39.14-44.97-68.97-44.97-5.94,0-17.77,3.2-29.71,9.2h-.41c-11.88-5.94-23.77-9.2-29.71-9.2h0Z"/>
        <path id="path93841" class="cls-12" d="m2027.2,894.66c-11.77.52-27.38,2.91-49.74,9.61,53.76-11.88,65.65,6.12,89.53,6.12h.41c23.88,0,35.71-18.06,89.53-6.12-59.7-17.94-71.59-6.12-89.53-6.12h-.41c-11.18,0-20.04-4.37-39.73-3.44h0l-.06-.06h0Z"/>
        <path id="path93843" class="cls-12" d="m1980.07,903.87c-3.44,0-7.22,0-11.36.41,62.73,5.94,32.56,41.94,98.26,41.94h.41c65.7,0,36-36,98.67-41.94-65.7-5.94-44.91,32.74-98.67,32.74h-.41c-50.44,0-34.89-33.84-86.91-33.2h0v.06h.01Z"/>
        <path id="path93845" class="cls-12" d="m2121.27,1000.79c0-29.65-24.06-53.76-53.7-53.76s-53.7,24.06-53.7,53.76c5.88-24.93,28.19-42.46,53.7-42.46s47.82,17.53,53.7,42.46Z"/>
        <path id="eyebrow_nose-2" data-name="eyebrow nose-2" class="cls-12" d="m1826.12,642.56c68.67-59.7,155.23-68.67,203-23.88,11.65,15.67,19.22,32.39,22.25,49.86,6,33.96-4.6,70.71-31.22,108.34,2.97,0,8.97,2.97,11.94,5.94,23.71-45.32,32.09-91.86,24.29-136.18-2.04-11.53-5.24-22.95-9.38-34.02-65.7-53.71-155.23-59.7-220.94,29.88h0l.06.06h0Z"/>
        <path id="uppalpebra-2" class="cls-12" d="m1933.59,624.74c38.85,0,47.76,8.97,65.7,23.88,17.94,14.97,26.85,11.88,29.82,14.97,2.97,2.97,0,11.88-5.94,8.91-5.94-2.97-17.94-8.91-35.76-23.88-17.94-14.97-35.76-14.97-53.7-14.97-53.7,0-83.59,44.79-89.59,41.82-5.94-2.97,29.82-50.73,89.59-50.73h-.12Z"/>
        <g id="use93849">
          <path id="loweyecontour-2" class="cls-12" d="m1931.78,643.15c-26.5,0-51.9,11.47-66.75,35.36,29.82,26.85,95.82,29.76,140.61-3.03-19.4-20.91-47.3-32.33-73.74-32.33h-.12Zm-.41,6.12c25.8-.47,49.86,11.36,53.3,23.12-29.82,32.79-77.53,30-107.41,6.12,13.05-20.91,34.08-28.83,54.11-29.24h0Z"/>
        </g>
        <circle id="pupil-2" class="cls-14" cx="1935.28" cy="672.33" r="26.85"/>
        <path id="lowpalpebra-2" class="cls-12" d="m1861.94,690.39c50.73,38.85,101.53,35.82,131.35,17.94s29.82-23.88,23.88-23.88-11.88,5.94-35.76,17.94-59.7,11.94-119.41-11.88h-.06v-.12h0Z"/>
      </g>
    </g>
  </g>
  <circle class="cls-5" cx="2069.37" cy="791.91" r="327.47"/>
  <path class="cls-20" d="m3182.9,2427c0,818.22-498.78,1481.78-1112.78,1481.78s-1112.78-663.57-1112.78-1481.78,498.78-1483.24,1112.78-1483.24,1112.78,663.57,1112.78,1483.24h0Z"/>
  <path class="cls-23" d="m957.29,2444.48c0-818.21,497.32-1481.78,1112.78-1481.78s1111.32,663.57,1111.32,1481.78v8.74l-1111.32-8.74H957.29Z"/>
  <path class="cls-16" d="m2358.86,1684.22c-163.15-120.92-474.67-84.69-568.39,1.17,17.77,80.5,504.61,77.18,568.5,9.73.29-3.44,1.05-8.56-.12-10.89h.01Z"/>
  <g>
    <path class="cls-7" d="m1679.86,1725.23l-15.9-8.91c38.39-68.27,37.98-125.87,37.57-186.92-.47-67.1-.99-136.48,53.12-219.89l15.32,9.9c-51.03,78.87-50.62,142.48-50.15,209.87.41,60.69.87,123.49-39.84,195.95h-.12,0Z"/>
    <g>
      <path class="cls-7" d="m1624.47,1854.01c4.54-60.4,9.73-109.1,36.93-139.62,2.04-2.33,5.07-3.49,8.15-3.49h9.67c3.03,0,6.06.93,8.5,2.8,32.33,25.51,43.86,73.16,59.01,132.52,2.97,11.59-4.37,23.42-16.08,25.8l-4.78.99c-18.17,3.79-36.52,5.71-54.87,5.88l-23.3.17c-13.57,0-24.17-11.59-23.12-25.11"/>
      <path class="cls-7" d="m1633.32,1783.88c26.27-9.32,66.05-12.17,92.15-6.7"/>
      <path class="cls-2" d="m1652.25,1778.82c-6.64,32.04-6.47,65.59-1.34,100.25"/>
      <path class="cls-2" d="m1674.04,1774.39c-6.64,33.38-6.47,68.38-1.34,104.5"/>
      <path class="cls-2" d="m1694.01,1878.89c5.07-33.67,3.15-68.56-3.67-104.44"/>
      <path class="cls-2" d="m1719.12,1876.67c3.55-32.5.12-65.94-8.27-99.95"/>
    </g>
  </g>
  <g>
    <path class="cls-17" d="m2313.66,1431.95c10.95,2.85,21.44,6.52,30.93,11.36-55.45-228.33-144.86-522.31-382.4-387.58-50.56,36.11-106.77,63.67-119.23,153.37,3.38-.76,6.76-1.28,9.84-1.69l1.46,37.16c1.63,1.28,3.61,2.45,5.88,3.67,26.27-21.9,52.48-35.01,77.3-39.38,59.76-86.03,105.02-64.19,145.8-56.85-45.2,5.82-97.68,30.64-148.77,91.86-.23.17-.47.29-.76.41-10.95,17.47-31.4,60.99-53.24,104.56-24.41,38.91-32.74,71.76-25.69,80.73,2.74-.76,5.42-1.4,8.21-1.98,141.43-27.73,293.16-23.36,450.67,4.37h-.06.06Zm-374.83-86.03c156.05-88.95,195.42-53.94,231.89-13.11-142.88-18.93-304.81,59.76-231.89,13.11Z"/>
    <path class="cls-16" d="m2083.23,1151.95c-40.83-7.28-86.03-29.18-145.8,56.85-24.81,4.37-51.03,17.47-77.3,39.38h0c.35.17.64.35,1.05.52,20.15,11.01,48.35,10.83,72.64-4.43.23-.17.47-.29.76-.41,51.03-61.22,103.51-86.03,148.77-91.86h0l-.12-.06h0Z"/>
    <path class="cls-16" d="m2170.72,1332.81c-36.46-40.83-75.84-75.84-231.89,13.11-72.93,46.66,88.95-32.09,231.89-13.11Z"/>
    <path class="cls-17" d="m1842.96,1209.03c-46.77,9.84-120.63,49.28-89.35,107.64,37.92,32.09,96.23-1.46,100.6-71.47v-.76l-1.46-37.16c-3.09.41-6.41.99-9.84,1.69h.06v.06h-.01Z"/>
    <g>
      <path class="cls-17" d="m2382.86,1629.7c4.14-48.05-2.68-105.9,3.73-137.93-6.87-23.59-22.31-38.5-41.88-48.46-9.49-4.78-19.92-8.5-30.87-11.36-156.98-27.73-308.25-32.09-449.27-4.37-2.74.58-5.48,1.28-8.15,1.98-30.17,8.1-56.97,24.52-70.36,60.69l3.73,124.19c68.15-35.36,157.27-58.71,250.99-63.61,129.43-6.82,249.71,21.55,342.03,78.87h.06-.01Z"/>
      <path class="cls-17" d="m2359.09,1695.11c-.06.87-.12,1.63-.12,2.27,8.97-8.39,14.85-20.56,18.64-35.01-88.3-58.71-206.78-87.96-335.16-81.26-95.99,5.07-186.34,29.88-251.63,67.04l1.11,37.57s.23-.17.35-.29c93.43-85.8,404.01-122.03,566.64-1.17"/>
      <path class="cls-1" d="m2042.4,1581.12c128.38-6.82,246.91,22.54,335.16,81.26,2.62-9.96,4.25-21.09,5.3-32.68-92.32-57.32-212.61-85.68-342.03-78.87-93.66,5.01-182.84,28.25-250.99,63.61l1.05,33.73c65.18-37.1,155.52-61.92,251.63-67.04h-.12Z"/>
    </g>
  </g>
  <path class="cls-9" d="m2358.86,1684.22l-23.77,5.65s.12.06.17.12c-12.58,6.87-38.09,16.66-88.95,24.81-51.08,8.21-115.16,12.7-180.34,12.7-147.48,0-226.88-21.26-250.35-37.63h-19.11c11.07,20.15,57.55,36.11,131.47,45.08,3.2.35,6.47.76,9.61,1.11l1.28.12c2.85.29,5.82.58,8.74.93l2.33.23c2.68.23,5.42.47,8.15.76l61.98,3.73,46.83.82,80.5-2.33,57.72-4.72,52.48-7.22,36.52-7.51,15.96-4.31c1.28-.35,2.5-.76,3.73-1.17l3.67-1.17c1.17-.35,2.27-.82,3.32-1.17l3.55-1.22c1.11-.35,2.04-.82,3.09-1.22l3.26-1.28c.99-.35,1.81-.82,2.74-1.17l3.15-1.4c.87-.35,1.63-.82,2.45-1.17l2.91-1.46c.76-.41,1.46-.82,2.21-1.22l2.68-1.51c.64-.41,1.28-.82,1.86-1.22l2.33-1.51c.82-.58,1.57-1.17,2.33-1.75l1.34-1.05c1.11-.93,2.16-1.86,3.03-2.85h.06c.35-.47.76-.93,1.11-1.28,1.22-1.34,2.39-2.74,3.44-4.14-1.11-1.22-2.21-2.33-3.61-3.32h.06l.06-.06h.01Z"/>
  <path class="cls-3" d="m2360.03,1695.11c-.06.87.87-1.46.87-.87,7.46-8.45,13.92-17.42,17.71-31.92,2.62-9.96,4.25-21.09,5.3-32.68,4.14-48.05-2.68-105.9,3.79-137.93-6.87-23.59-22.37-38.5-42-48.46-55.45-228.33-144.86-522.31-382.4-387.58-50.56,36.11-106.77,63.67-119.23,153.37-46.77,9.84-120.63,49.28-89.35,107.64,37.92,32.09,96.23-1.46,100.6-71.47v-.76c1.57,1.28,3.61,2.45,5.82,3.67h0c.35.17.64.35,1.05.52,20.15,11.01,48.35,10.83,72.64-4.43-10.95,17.47-31.4,60.99-53.24,104.56-24.41,38.91-32.74,71.76-25.69,80.73-30.23,8.1-57.2,24.52-70.6,60.69l3.73,124.19,1.05,33.73,1.11,37.57s.23-.17.35-.29h0c.35,1.51.93,3.03,1.57,4.49h0c10.95,23.77,64.42,39.61,134.67,48.17h.12c3.15.35,6.29.76,9.55,1.11.41,0,.87.12,1.28.12,2.91.29,5.82.58,8.74.93.82.06,1.51.17,2.33.23,2.68.23,5.42.47,8.15.76,1.05.12,2.04.17,3.09.29,2.56.23,5.13.41,7.69.58,1.28.12,2.5.17,3.79.29,2.45.17,4.83.35,7.28.47,1.46.12,2.91.17,4.43.29,2.33.12,4.6.29,6.87.41,1.63.12,3.26.17,4.89.29,2.21.12,4.43.23,6.64.29,1.75.06,3.61.17,5.36.23,2.04.06,4.19.17,6.23.23,1.92.06,3.9.17,5.82.23,1.98.06,4.02.12,6,.17,2.04,0,4.08.12,6.12.17,1.98,0,3.96.06,5.94.12,2.04,0,4.14.06,6.23.12,1.98,0,3.96,0,5.94.06,2.16,0,4.19,0,6.29.06h24.58c1.92,0,3.9,0,5.82-.06,2.16,0,4.25-.06,6.41-.12,1.92,0,3.9-.06,5.82-.12,2.16,0,4.25-.12,6.41-.17,1.92,0,3.9-.12,5.88-.17,2.16-.06,4.25-.12,6.29-.17,1.92-.06,3.84-.12,5.71-.23,2.21-.06,4.31-.17,6.47-.23,1.86-.06,3.73-.17,5.59-.23,2.16-.12,4.31-.23,6.47-.29,1.81-.12,3.73-.17,5.53-.29,2.16-.12,4.31-.23,6.47-.35,1.81-.12,3.67-.23,5.48-.35,2.16-.12,4.25-.29,6.41-.41,1.81-.12,3.61-.23,5.36-.41,2.16-.17,4.25-.29,6.41-.47,1.69-.12,3.44-.29,5.18-.41,2.16-.17,4.25-.35,6.29-.52,1.69-.17,3.38-.29,5.13-.47,2.16-.17,4.19-.41,6.29-.58,1.63-.17,3.26-.35,4.89-.52,2.04-.23,4.14-.41,6.17-.64,1.63-.17,3.26-.35,4.83-.52,2.04-.23,4.08-.47,6.06-.76,1.57-.17,3.15-.41,4.72-.58,1.98-.23,3.96-.52,5.94-.82,1.57-.23,3.09-.41,4.6-.64,1.92-.29,3.9-.52,5.82-.87,1.51-.23,2.97-.41,4.43-.64,1.86-.29,3.79-.58,5.65-.93,1.46-.23,2.91-.47,4.31-.76,1.86-.29,3.73-.64,5.53-.99,1.4-.23,2.8-.47,4.19-.82,1.81-.35,3.61-.64,5.42-1.05,1.34-.23,2.68-.52,3.96-.82,1.75-.35,3.44-.76,5.18-1.11,1.28-.29,2.62-.52,3.9-.87,1.63-.35,3.26-.82,4.89-1.17,1.28-.29,2.5-.58,3.73-.93,1.57-.35,3.15-.82,4.66-1.22,1.22-.29,2.45-.58,3.61-.93,1.51-.41,2.97-.87,4.43-1.28,1.17-.29,2.33-.64,3.38-.99,1.46-.41,2.8-.87,4.19-1.34,1.11-.35,2.16-.64,3.2-1.05,1.34-.41,2.68-.93,3.96-1.4.99-.35,1.98-.64,2.97-1.05,1.28-.47,2.5-.99,3.79-1.46.93-.35,1.86-.76,2.74-1.11,1.22-.47,2.33-.99,3.44-1.51.87-.35,1.75-.76,2.56-1.11,1.11-.47,2.16-1.05,3.15-1.57.82-.35,1.57-.76,2.33-1.17,1.05-.52,1.92-1.11,2.91-1.63.64-.35,1.4-.82,2.04-1.17.99-.52,1.81-1.17,2.68-1.75.58-.35,1.22-.82,1.75-1.17.93-.64,1.69-1.34,2.56-1.98.41-.35.93-.64,1.28-1.05,1.22-1.05,2.33-2.04,3.26-3.09"/>
  <path class="cls-7" d="m2036.69,1620.26l2.27,2098.51,36.46,133.39,35.36-133.39-2.27-2099.15"/>
  <path class="cls-9" d="m1814.59,1689.23c45.9-33.32,131.06-57.32,222.1-62.97h0c13.69-.87,27.44-1.34,41.24-1.34,10.31,0,20.5.29,30.58.76h0c89.99,4.14,169.1,26.44,226.59,64.25h24.29c.12-2.27,0-4.37-.58-5.65-74.38-55.1-179.52-77.59-280.87-77.59-118.3,0-231.25,30.64-283.96,75.61v1.57s.35.47.41.82c.23,1.17.76,2.45,1.4,3.9v.12c.17.41.47.82.76,1.22h19.11c-.35-.23-.76-.47-1.05-.76v.12h.06l-.06-.06h-.02Z"/>
  <g>
    <g>
      <path class="cls-15" d="m1765.25,3205.73c17.47-14.56,30.64-30.64,39.38-45.2l71.47-2.91c-11.65,24.81-29.18,46.66-55.39,61.22-24.81,11.65-40.83,4.37-55.39-13.11h-.07Z"/>
      <path class="cls-18" d="m1762.34,3208.64l1.46-5.82c16.02-14.56,29.18-29.18,37.92-43.74l2.91-2.91,71.47-1.46,4.37,4.37c-13.11,26.27-30.64,48.11-58.31,62.73-26.27,13.11-45.2,5.82-59.76-13.11h0l-.06-.06h0Zm48.11,10.19l8.74-2.91,17.47-11.65c10.19-8.74,18.93-18.93,26.27-30.64l7.28-11.65-62.73,1.46-16.02,21.9-20.39,20.39-2.91-2.91c11.65,14.56,24.81,21.9,42.29,16.02h0Z"/>
      <path class="cls-21" d="m1082.7,3115.32l1.46-4.37c242.14-39.38,514.8-99.14,758.39-167.7,35.01-24.81,75.84-43.74,118.13-58.31,59.76,2.91,115.22,10.19,169.15,17.47l245.05,293.16-20.39,26.27,10.19,11.65-32.09,21.9-32.09-16.02c-5.82,30.64-27.73,35.01-55.39,29.18-21.9,20.39-43.74,29.18-68.56,13.11l-40.83,20.39-81.66-26.27c-80.21-32.09-156.05-68.56-228.92-107.93l-608.17,223.09-20.39-30.64c-49.57-84.58-81.66-157.5-113.76-245.05h-.12v.06h0Z"/>
      <path class="cls-18" d="m1224.18,3392.47c233.34-88.95,352.99-151.68,599.38-227.46h2.91c55.39,29.18,110.85,56.85,169.15,83.12l59.76,24.81,80.21,24.81,39.38-18.93h2.91c23.36,14.56,43.74,7.28,64.19-13.11l2.91-1.46c27.73,5.82,46.66,1.46,52.48-26.27l4.37-2.91,30.64,16.02,37.92-55.39-243.59-288.8-80.21-11.65c-13.11-1.46-27.73-2.91-42.29-2.91l-43.74-4.37-30.64,11.65c-30.64,13.11-59.76,27.73-84.58,46.66h-1.46c-249.42,71.47-519.17,125.41-765.67,164.78l-4.37-7.28c211.44-33.55,434.59-75.84,646.09-131.23l121.04-32.09,26.27-17.47c29.18-17.47,59.76-30.64,91.86-42.29h1.46c61.22,4.37,115.22,10.19,169.15,18.93l2.91,1.46,245.05,291.71v4.37l-10.19,35.01-33.55,26.27h-2.91l-27.73-14.56-1.46,7.28c-7.28,17.47-21.9,23.36-37.92,23.36l-17.47-2.91-16.02,13.11c-14.56,8.74-30.64,11.65-46.66,5.82l-7.28-4.37-39.38,18.93h-1.46l-83.12-26.27c-61.22-23.36-118.13-51.03-173.52-78.75l-53.94-27.73-105.02,33.55c-211.44,74.38-287.34,121.04-492.96,198.34l-2.91-11.65h.06l-.06-.12h.01Z"/>
      <path class="cls-21" d="m1171.7,3318.03l596.46-172.07,53.94-2.91,303.36,131.23c7.28,0,17.47-4.37,21.9-16.02,7.28,7.28,14.56,11.65,17.47,17.47l4.37,5.82-33.55,16.02-80.21-24.81-59.76-24.81c-58.31-26.27-113.76-53.94-169.15-83.12h-2.91c-99.14,30.64-196.88,65.65-291.71,105.02l-307.73,125.41-52.48-77.3h0v.06h0Z"/>
      <path class="cls-15" d="m2132.8,3237.82c21.9-5.82,46.66-16.02,61.22-32.09,14.56,14.56,27.73,32.09,37.92,48.11l7.28,14.56c-2.91,2.91-7.28,7.28-13.11,10.19-29.18,29.18-67.1-13.11-93.31-40.83h0v.06h0Z"/>
      <path class="cls-15" d="m2255.3,3265.55h-4.37l-4.37,1.46c-18.93-14.56-40.83-52.48-53.94-68.56,18.93,2.91,36.46-8.74,55.39-32.09,14.56,14.56,32.09,42.29,45.2,62.73l4.37,8.74h0c-4.37,24.81-20.39,30.64-42.29,27.73h.01Z"/>
      <path class="cls-15" d="m2332.59,3250.93l-24.81-11.65c-30.64-29.18-46.66-55.39-74.38-87.49,21.9-2.91,40.83-18.93,56.85-36.46,23.36,39.38,71.47,62.73,68.56,116.67l-2.91,2.91-23.36,16.02h.06-.01Z"/>
      <polygon class="cls-18" points="2173.63 3284.48 2059.93 3185.34 2065.76 3179.51 2178 3278.65 2173.63 3284.48"/>
      <path class="cls-18" d="m2087.6,3112.41l4.37-4.37c36.46,45.2,107.93,77.3,156.05,157.5l-7.28,2.91c-48.11-81.66-113.76-105.02-153.13-156.05h-.01Z"/>
      <path class="cls-18" d="m2161.98,3087.6l5.82-4.37c36.46,55.39,94.77,74.38,137.06,153.13l-5.82,4.37c-43.74-80.21-99.14-94.77-137.06-153.13Z"/>
      <path class="cls-21" d="m2361.77,3220.35c-24.81-46.66-55.39-93.31-102.05-139.97-35.01-21.9-61.22-45.2-78.75-68.56-24.81-11.65-43.74-23.36-58.31-35.01-21.9-1.46-35.01-7.28-48.11-13.11-29.18,18.93-56.85,33.55-86.03,45.2-33.55-4.37-56.85-11.65-48.11-35.01,21.9-20.39,42.29-48.11,59.76-81.66,5.82-8.74,17.47-13.11,37.92-18.93,14.56-1.46,67.1-1.46,112.3,0,40.83,16.02,154.59,80.21,226,138.51,215.81,42.29,390.85,103.51,615.45,151.68l30.64,5.82-27.73,64.19c-30.64,80.21-71.47,137.06-110.85,196.88-199.79-88.95-345.65-160.42-522.14-209.99h0v-.06.02Z"/>
      <path class="cls-15" d="m2406.97,3230.54l-43.74-13.11-18.93-33.55-16.02-26.27,619.82,176.43-26.27,37.92c-1.46,20.39-26.27,36.46-30.64,56.85l-13.11-7.28c-163.33-72.93-323.8-145.8-471.05-191.05h0l-.06.06h0Z"/>
      <path class="cls-15" d="m2300.5,3119.69l-1.46-1.46c-11.65-14.56-23.36-27.73-36.46-40.83h0c-35.01-21.9-61.22-45.2-78.75-67.1l-1.46-1.46c-24.81-11.65-43.74-23.36-56.85-35.01l-2.91-1.46c-20.39-1.46-33.55-5.82-46.66-11.65h-2.91c-14.56,8.74-29.18,17.47-43.74,24.81l-26.27,11.65-5.82-4.37c23.36-18.93,59.76-36.46,53.94-65.65,21.9,10.19,71.47,29.18,96.23,21.9,13.11-4.37,20.39,26.27,32.09,27.73,0,43.74,109.39,103.51,174.98,83.12l-53.94,59.76h0v.02Z"/>
      <path class="cls-21" d="m1822.16,3217.43l113.76-53.94c21.9,5.82,36.46,16.02,36.46,45.2-23.36,21.9-51.03,43.74-88.95,59.76-45.2-4.37-59.76-24.81-61.22-51.03h-.06.01Z"/>
      <path class="cls-18" d="m1817.79,3217.43l2.91-4.37,113.76-52.48h2.91c21.9,5.82,39.38,17.47,37.92,48.11l-1.46,2.91c-23.36,21.9-51.03,43.74-88.95,59.76h-1.46c-48.11-2.91-62.73-24.81-65.65-53.94h.02Zm65.65,46.66l24.81-11.65c16.02-8.74,30.64-18.93,42.29-30.64l17.47-14.56v-7.28c-1.46-14.56-8.74-21.9-18.93-27.73l-13.11-4.37-109.39,51.03v7.28c2.91,17.47,14.56,30.64,42.29,36.46l14.56,1.46h0Z"/>
      <path class="cls-15" d="m1883.38,3264.09l-14.56-1.46c-27.73-5.82-39.38-18.93-42.29-36.46v-7.28l39.38-18.93,4.37,8.74c10.19,20.39,27.73,39.38,56.85,30.64v1.46l-18.93,11.65-24.81,11.65h0Z"/>
      <path class="cls-21" d="m1902.37,3258.27l81.66-72.93c27.73-8.74,43.74,8.74,51.03,24.81l-62.73,88.95c-36.46,1.46-55.39-13.11-70.01-40.83h.06-.01Z"/>
      <path class="cls-18" d="m1899.46,3259.72l1.46-4.37,80.21-72.93,1.46-1.46c30.64-8.74,48.11,11.65,55.39,27.73v4.37l-62.73,88.95-2.91,1.46c-37.92,1.46-58.31-14.56-72.93-43.74h.06,0Zm70.01,36.46l61.22-86.03-5.82-8.74c-7.28-8.74-17.47-16.02-30.64-14.56l-8.74,1.46-77.3,71.47,8.74,14.56c10.19,13.11,23.36,18.93,42.29,20.39l10.19,1.46h.06Z"/>
      <path class="cls-15" d="m1969.41,3296.13l-10.19-1.46c-18.93-1.46-32.09-7.28-42.29-20.39l-8.74-14.56,21.9-21.9,7.28,10.19c8.74,11.65,21.9,21.9,37.92,24.81l11.65-1.46-17.47,24.81h0l-.06-.06v.02Z"/>
      <path class="cls-21" d="m1973.78,3302.01l61.22-87.49c13.11,1.46,26.27,7.28,36.46,24.81-5.82,27.73-23.36,55.39-51.03,84.58-26.27-4.37-45.2-10.19-46.66-21.9h.01Z"/>
      <path class="cls-18" d="m1970.87,3303.47v-2.91l61.22-87.49,2.91-1.46c14.56,0,29.18,7.28,39.38,24.81l1.46,2.91c-5.82,29.18-24.81,58.31-52.48,86.03l-2.91,1.46c-24.81-2.91-48.11-8.74-49.57-23.36h0Zm48.11,16.02l17.47-18.93c11.65-14.56,20.39-27.73,26.27-42.29l5.82-18.93-7.28-8.74c-5.82-5.82-11.65-8.74-17.47-10.19l-7.28-1.46-58.31,84.58,2.91,4.37c2.91,2.91,10.19,5.82,21.9,8.74l16.02,2.91h0l-.06-.06h.01Z"/>
      <path class="cls-15" d="m2019.04,3319.49l-16.02-2.91c-11.65-2.91-18.93-5.82-21.9-8.74l-2.91-4.37,20.39-29.18,1.46,1.46c8.74,8.74,18.93,16.02,30.64,18.93h10.19l-4.37,5.82-17.47,18.93h0v.06h0Z"/>
      <path class="cls-18" d="m2357.41,3223.26c-17.47-35.01-39.38-70.01-68.56-105.02l-30.64-35.01-24.81-16.02c-16.02-11.65-29.18-23.36-40.83-35.01l-13.11-17.47-17.47-8.74c-11.65-5.82-21.9-11.65-29.18-17.47l-11.65-8.74-14.56-1.46c-4.37-1.46-8.74-1.46-11.65-2.91l-20.39-7.28-40.83,23.36c-14.56,7.28-29.18,14.56-43.74,20.39h-1.46c-30.64-2.91-62.73-11.65-51.03-39.38l1.46-1.46c20.39-18.93,39.38-46.66,58.31-80.21v-1.46c7.28-8.74,20.39-14.56,40.83-18.93h0c14.56-1.46,67.1-1.46,112.3,0h1.46c36.46,13.11,128.32,64.19,198.34,116.67l27.73,21.9,107.93,23.36c156.05,35.01,313.61,81.66,475.42,119.58l65.65,16.02-5.82,4.37-32.09-7.28c-209.99-46.66-411.29-109.39-612.54-148.77l-1.46-1.46c-67.1-55.39-172.07-113.76-217.27-134.15l-8.74-2.91-33.55-1.46h-70.01l-5.82,1.46-13.11,2.91c-8.74,2.91-14.56,5.82-18.93,8.74l-4.37,4.37-13.11,24.81c-10.19,16.02-20.39,29.18-30.64,40.83l-14.56,16.02-1.46,5.82c-1.46,11.65,10.19,17.47,33.55,21.9l11.65,1.46,40.83-18.93c14.56-7.28,29.18-16.02,43.74-24.81h2.91c13.11,5.82,26.27,10.19,46.66,11.65l2.91,1.46c13.11,11.65,32.09,23.36,56.85,35.01l1.46,1.46c17.47,21.9,43.74,45.2,78.75,67.1h0c35.01,35.01,61.22,71.47,81.66,106.48l18.93,33.55,43.74,13.11c147.31,45.2,320.89,122.5,484.22,196.88l-4.37,5.82c-170.61-72.93-331.08-153.13-529.42-209.99h0l-.12-.18v.02Z"/>
    </g>
    <path class="cls-19" d="m1973.78,2940.35l36.46,8.74c-8.74,20.39-35.01,49.57-65.65,26.27,43.74-46.66,20.39-23.36,29.18-35.01h.01Z"/>
    <path class="cls-22" d="m1909.65,3185.34c21.9,29.18,24.81,29.18,24.81,29.18,7.28-5.82,16.02-10.19,17.47-18.93-2.91-7.28-1.46-13.11-18.93-20.39l-23.36,10.19v-.06h.01Z"/>
    <path class="cls-22" d="m1973.78,3208.64c20.39,20.39,27.73,18.93,32.09,21.9,5.82-5.82,7.28-10.19,10.19-13.11,2.91-4.37,2.91-11.65,0-16.02-5.82-5.82-18.93-13.11-24.81-8.74-5.82,1.46-10.19,5.82-17.47,16.02v-.06h0Z"/>
    <path class="cls-19" d="m2027.78,3240.73c13.11,13.11,23.36,13.11,24.81,13.11,2.91-2.91,7.28-7.28,8.74-14.56-10.19-13.11-18.93-11.65-24.81-11.65l-8.74,13.11h0Z"/>
    <path class="cls-19" d="m2316.57,3233.45c4.37-18.93,29.18-18.93,29.18-18.93,5.82,8.74,5.82,11.65,5.82,16.02-4.37,4.37-7.28,7.28-17.47,13.11-4.37-2.91-8.74-1.46-17.47-10.19h-.06Z"/>
  </g>
  <path class="cls-7" d="m2070.12,3946.41c-307.32,0-595.53-158.44-811.52-446.24-213.89-284.95-331.67-663.57-331.67-1065.89s117.84-782.04,331.67-1067.17c215.87-287.86,504.08-446.42,811.52-446.42s594.54,158.55,810.23,446.42c213.77,285.24,331.49,664.26,331.49,1067.17s-117.78,780.82-331.49,1065.89c-215.75,287.75-503.5,446.24-810.23,446.24Zm0-2964.96c-287.81,0-558.78,149.87-762.88,422.13-206.02,274.7-319.55,640.79-319.55,1030.76,0,800.27,485.56,1451.37,1082.37,1451.37s1080.92-651.1,1080.92-1451.37-484.92-1452.83-1080.92-1452.83h.06v-.06h0Z"/>
  <path class="cls-4" d="m2364.57,1689.93c-1.11-1.22-2.27-2.39-3.61-3.38-74.97-55.92-181.15-78.69-283.32-78.69-119.29,0-233.28,31.05-286.35,76.65v1.63"/>
  <path class="cls-14" d="m2882.4,3979.26c-480.9,393.88-1143.71,393.12-1624.72,0-308.25-248.55-516.9-607.36-616.03-988.24-174.63-669.22-43.63-1435.24,418.75-1962.39,81.2-91.68,172.53-174.92,272.89-245.81h-12.29c-125.64,84.81-238.29,189.13-335.22,305.63-7.16,9.49-27.9,34.6-35.12,44.44-6.93,9.09-16.66,20.15-23.12,29.88-10.95,15.2-33.03,46.31-44.04,61.45-34.66,51.96-68.67,106.24-98.73,161.06-360.79,666.59-349.2,1526.52,40.07,2178.72,384.21,648.01,1133.75,981.89,1837.27,627.16,1015.91-540.25,1218.38-2016.91,614.4-2935.66-119.99-184.47-274.76-349.26-457.37-472.63h-15.79c996.11,702.07,1025.81,2429.77,78.98,3196.44h.06v-.06h.01Z"/>
  <g>
    <g>
      <path id="path225967" class="cls-11" d="m1358.74,1064.05s52.25-126.28-34.89-204.74c0,0-80.15,58.02-76.65,129.66,3.5,71.65,38.33,136.48,6.99,170.61,0,0,76.65-20.5,132.46-13.69,55.8,6.82,111.55-68.21,118.48-85.33,0,0-41.82-27.26-111.55-6.82l-34.89,10.19h.06v.12h0Z"/>
      <path id="path225975" class="cls-11" d="m1223.25,1191.38s43.16-129.54-49.34-201.83c0,0-75.84,63.37-67.28,134.61,8.56,71.3,48,133.56,19.16,169.68,0,0,75.02-25.63,131.18-22.66,56.15,2.97,106.42-75.72,112.19-93.2,0,0-43.69-24.35-111.72.82l-34.02,12.58h-.17,0Z"/>
      <path id="path225983" class="cls-11" d="m1094.23,1314.23s43.16-129.54-49.34-201.83c0,0-75.84,63.37-67.28,134.61,8.56,71.3,48,133.56,19.16,169.68,0,0,75.02-25.63,131.18-22.66,56.15,2.97,106.42-75.72,112.19-93.2,0,0-43.69-24.35-111.72.82l-34.02,12.58h-.17,0Z"/>
      <path id="path225991" class="cls-11" d="m1006.63,1476.33s17.13-135.19-87.78-188.9c0,0-62.09,76.31-39.78,144.69,22.31,68.38,73.1,122.15,51.84,163.04,0,0,68.67-39.2,124.3-46.72,55.63-7.51,89.7-94.19,91.92-112.42,0,0-47.65-15.79-109.57,21.67l-30.99,18.7h.06v-.06h0Z"/>
      <path id="path225999" class="cls-11" d="m930.2,1634.71s14.68-135.49-91.16-187.39c0,0-60.69,77.41-37.16,145.33,23.53,67.92,75.26,120.87,54.75,162.11,0,0,67.92-40.37,123.49-48.87,55.51-8.5,87.95-95.7,89.88-113.99,0,0-47.88-14.97-109.1,23.53l-30.64,19.28h-.06Z"/>
      <path id="path226007" class="cls-11" d="m863.45,1801.59s2.62-136.24-107.47-178.94c0,0-53.59,82.25-24.11,147.95,29.47,65.7,85.74,113.99,68.97,156.8,0,0,64.07-46.02,118.65-59.24,54.58-13.16,79.16-102.87,79.39-121.21,0,0-49.05-10.83-106.65,32.74l-28.77,21.78h0v.12h0Z"/>
      <path id="path226015" class="cls-11" d="m833.4,1983.79s-40.54-130.3-158.73-137.64c0,0-25.05,94.48,23.77,148.01,48.81,53.53,117.49,82.48,115.1,128.32,0,0,46.42-63.14,94.19-92.21,47.71-29.07,42.81-121.74,37.22-139.33,0,0-50.09,4.54-91.1,63.43l-20.56,29.42h.12-.01Z"/>
      <path id="path226023" class="cls-11" d="m812.48,2181.72s-40.54-130.3-158.73-137.64c0,0-25.05,94.48,23.77,148.01,48.81,53.53,117.49,82.48,115.1,128.32,0,0,46.42-63.14,94.19-92.21,47.71-29.07,42.75-121.74,37.22-139.33,0,0-50.09,4.54-91.1,63.43l-20.5,29.42h.06-.01Z"/>
      <path id="path226031" class="cls-11" d="m795.18,2356.81s-60.87-122.5-178.76-111.6c0,0-9.61,97.16,47.06,142.53,56.73,45.38,129.25,63.43,134.15,109.04,0,0,35.76-69.49,78.29-105.49,42.46-36.06,22.83-126.81,14.5-143.29,0,0-48.75,12.17-79.86,76.54l-15.55,32.21h.12l.06.06h-.01Z"/>
      <path id="path226039" class="cls-11" d="m788.25,2523.99s-60.87-122.5-178.76-111.6c0,0-9.61,97.16,47.12,142.53,56.73,45.38,129.25,63.43,134.15,109.04,0,0,35.76-69.49,78.29-105.49,42.46-36.06,22.83-126.81,14.5-143.35,0,0-48.75,12.17-79.8,76.54l-15.55,32.21h0l.06.12h-.01Z"/>
      <path id="path226047" class="cls-11" d="m798.8,2692.97s-67.34-119.23-184.47-102.34c0,0-4.37,97.51,54.7,139.91,59.06,42.46,132.46,56.73,139.8,102.05,0,0,32.04-71.24,72.46-109.39,40.54-38.15,16.02-127.86,6.87-143.87,0,0-48,14.62-75.61,80.56l-13.8,32.91h0l.06.17h-.01Z"/>
      <path id="path226055" class="cls-11" d="m829.78,2875.92s-73.57-115.62-189.71-92.73c0,0,.82,97.57,62.09,136.94,61.22,39.38,135.31,49.86,145.1,94.77,0,0,28.13-72.81,66.58-112.94,38.39-40.19,9.2-128.44-.87-143.99,0,0-47.12,17.07-71.24,84.34l-12.06,33.61h.12-.01Z"/>
      <path id="path226063" class="cls-11" d="m869.98,3038.03s-87.43-105.95-199.79-69.37c0,0,12.93,96.81,78.69,128.5,65.7,31.8,140.55,33.38,155.81,76.71,0,0,18.87-75.61,52.02-119.99s-6.93-128.55-18.76-142.83c0,0-44.68,22.6-60.17,92.15l-7.81,34.83h0Z"/>
      <path id="path226071" class="cls-11" d="m918.79,3201.88s-87.43-105.95-199.79-69.37c0,0,12.93,96.81,78.69,128.5,65.7,31.8,140.55,33.38,155.81,76.71,0,0,18.87-75.61,52.02-119.99,33.14-44.39-6.93-128.55-18.76-142.83,0,0-44.68,22.6-60.17,92.15l-7.81,34.83h0Z"/>
      <path id="path226079" class="cls-11" d="m1013.56,3356.36s-106.54-87.66-209.69-30.81c0,0,31.57,92.62,102.28,111.49,70.71,18.87,144.46,6.52,167.87,46.25,0,0,3.84-77.7,27.67-127.56,23.88-49.8-31.86-124.94-46.25-136.71,0,0-39.43,30.52-41.07,101.7l-.87,35.59h.06v.06h0Z"/>
      <path id="path226087" class="cls-11" d="m1100.52,3511.7s-122.79-64.07-211.62,12.52c0,0,50.56,84.11,123.72,88.25,73.16,4.08,142.65-23.07,174.1,11.07,0,0-12.76-76.83,0-130.42,12.76-53.59-57.67-115.74-74.27-124.3,0,0-32.09,37.86-18.58,107.93l6.76,35.01h-.06l-.06-.06h.01Z"/>
      <path id="path226095" class="cls-11" d="m1208.57,3651.62s-122.79-64.07-211.62,12.52c0,0,50.56,84.11,123.72,88.25,73.16,4.08,142.65-23.07,174.05,11.07,0,0-12.76-76.83,0-130.42,12.76-53.59-57.67-115.74-74.27-124.3,0,0-32.09,37.86-18.58,107.93l6.76,35.01-.06-.06Z"/>
      <path id="path226103" class="cls-11" d="m1359.61,3804.4s-128.03-53.41-209.69,30.58c0,0,57.84,79.45,131.12,77.35,73.22-2.21,140.03-35.18,174.4-3.84,0,0-19.57-75.43-11.59-129.89,7.98-54.52-67.74-110.32-85.04-117.49,0,0-28.6,40.48-8.91,109.04l9.84,34.25h-.13Z"/>
      <path id="path226111" class="cls-11" d="m1519.04,3927.89s-137-23.82-197.29,75.96c0,0,74.62,64.71,145.5,46.48,70.83-18.23,128.38-65.06,169.04-42.17,0,0-36.41-69.14-41.18-124.01-4.78-54.81-91.39-92.62-109.86-95.76,0,0-18.58,45.72,16.37,108.23l17.47,31.22h-.06v.06h.01Z"/>
      <path id="path226119" class="cls-11" d="m1712.83,4022.83s-139.1-4.89-184.59,102.05c0,0,83.12,53.88,150.69,26.21,67.57-27.73,117.89-81.96,161.41-64.77,0,0-45.9-63.55-58.36-117.2-12.52-53.65-103.68-79.28-122.44-79.86,0,0-11.88,47.82,31.57,104.91l21.73,28.54h0v.12h-.01Z"/>
      <path id="path226133" class="cls-11" d="m2780,1064.05s-52.25-126.28,34.89-204.74c0,0,80.15,58.02,76.65,129.66-3.44,71.65-38.33,136.48-6.99,170.61,0,0-76.65-20.5-132.46-13.69-55.8,6.82-111.55-68.21-118.48-85.33,0,0,41.82-27.26,111.55-6.82l34.89,10.19h-.06v.12h.01Z"/>
      <path id="path226141" class="cls-11" d="m2915.48,1191.38s-43.16-129.54,49.34-201.83c0,0,75.84,63.37,67.28,134.61-8.56,71.3-48,133.56-19.16,169.68,0,0-75.02-25.63-131.18-22.66-56.15,2.97-106.42-75.72-112.19-93.2,0,0,43.69-24.35,111.72.82l34.02,12.58h.17,0Z"/>
      <path id="path226149" class="cls-11" d="m3044.45,1314.23s-43.16-129.54,49.34-201.83c0,0,75.84,63.37,67.28,134.61-8.56,71.3-48,133.56-19.16,169.68,0,0-75.02-25.63-131.18-22.66-56.15,2.97-106.42-75.72-112.19-93.2,0,0,43.69-24.35,111.72.82l34.02,12.58h.17,0Z"/>
      <path id="path226157" class="cls-11" d="m3132.11,1476.33s-17.13-135.19,87.78-188.9c0,0,62.09,76.31,39.78,144.69-22.31,68.38-73.1,122.15-51.84,163.04,0,0-68.67-39.2-124.3-46.72-55.63-7.51-89.7-94.19-91.92-112.42,0,0,47.65-15.79,109.57,21.67l30.99,18.7h-.06v-.06h0Z"/>
      <path id="path226165" class="cls-11" d="m3208.53,1634.71s-14.68-135.49,91.16-187.39c0,0,60.69,77.41,37.16,145.33-23.53,67.92-75.26,120.87-54.75,162.11,0,0-67.92-40.37-123.49-48.87-55.51-8.5-87.95-95.7-89.88-113.99,0,0,47.88-14.97,109.1,23.53l30.64,19.28h.06Z"/>
      <path id="path226173" class="cls-11" d="m3275.23,1801.59s-2.62-136.24,107.47-178.94c0,0,53.59,82.25,24.11,147.95-29.47,65.7-85.74,113.99-68.97,156.8,0,0-64.07-46.02-118.65-59.24-54.58-13.16-79.16-102.87-79.39-121.21,0,0,49.05-10.83,106.65,32.74l28.77,21.78h0v.12h0Z"/>
      <path id="path226181" class="cls-11" d="m3305.28,1983.79s40.54-130.3,158.73-137.64c0,0,25.05,94.48-23.77,148.01-48.81,53.53-117.49,82.48-115.1,128.32,0,0-46.42-63.14-94.19-92.21-47.71-29.07-42.75-121.74-37.22-139.33,0,0,50.09,4.54,91.1,63.43l20.56,29.42h-.12.01Z"/>
      <path id="path226189" class="cls-11" d="m3326.19,2181.72s40.54-130.3,158.73-137.64c0,0,25.05,94.48-23.77,148.01-48.81,53.53-117.49,82.48-115.1,128.32,0,0-46.42-63.14-94.19-92.21-47.71-29.07-42.75-121.74-37.22-139.33,0,0,50.09,4.54,91.1,63.43l20.5,29.42h-.06.01Z"/>
      <path id="path226197" class="cls-11" d="m3343.55,2356.81s60.87-122.5,178.76-111.6c0,0,9.61,97.16-47.06,142.53-56.73,45.38-129.25,63.43-134.15,109.04,0,0-35.76-69.49-78.29-105.49-42.46-36.06-22.83-126.81-14.5-143.29,0,0,48.75,12.17,79.86,76.54l15.55,32.21h-.12l-.06.06h.01Z"/>
      <path id="path226205" class="cls-11" d="m3350.42,2523.99s60.87-122.5,178.76-111.6c0,0,9.61,97.16-47.12,142.53-56.73,45.38-129.25,63.43-134.15,109.04,0,0-35.76-69.49-78.29-105.49-42.46-36.06-22.83-126.81-14.5-143.35,0,0,48.75,12.17,79.8,76.54l15.55,32.21h0l-.06.12h.01Z"/>
      <path id="path226213" class="cls-11" d="m3339.94,2692.97s67.34-119.23,184.47-102.34c0,0,4.37,97.51-54.7,139.91-59.06,42.46-132.46,56.73-139.8,102.05,0,0-32.04-71.24-72.46-109.39-40.54-38.15-16.02-127.86-6.87-143.87,0,0,48,14.62,75.61,80.56l13.8,32.91h0l-.06.17h.01Z"/>
      <path id="path226221" class="cls-11" d="m3308.95,2875.92s73.57-115.62,189.71-92.73c0,0-.82,97.57-62.09,136.94-61.22,39.38-135.31,49.86-145.1,94.77,0,0-28.13-72.81-66.58-112.94-38.39-40.19-9.2-128.44.87-143.99,0,0,47.12,17.07,71.24,84.34l12.06,33.61h-.12.01Z"/>
      <path id="path226229" class="cls-11" d="m3268.7,3038.03s87.43-105.95,199.79-69.37c0,0-12.93,96.81-78.69,128.5-65.7,31.8-140.55,33.38-155.81,76.71,0,0-18.87-75.61-52.02-119.99-33.14-44.39,6.93-128.55,18.76-142.83,0,0,44.68,22.6,60.17,92.15l7.81,34.83h-.01Z"/>
      <path id="path226237" class="cls-11" d="m3219.95,3201.88s87.43-105.95,199.79-69.37c0,0-12.93,96.81-78.69,128.5-65.7,31.8-140.55,33.38-155.81,76.71,0,0-18.87-75.61-52.02-119.99-33.14-44.44,6.93-128.55,18.76-142.83,0,0,44.68,22.6,60.17,92.15l7.81,34.83h-.01Z"/>
      <path id="path226245" class="cls-11" d="m3125.18,3356.36s106.54-87.66,209.69-30.81c0,0-31.57,92.62-102.28,111.49-70.71,18.87-144.46,6.52-167.87,46.25,0,0-3.84-77.7-27.67-127.56-23.88-49.8,31.86-124.94,46.25-136.71,0,0,39.43,30.52,41.07,101.7l.87,35.59h-.06v.06h0Z"/>
      <path id="path226253" class="cls-11" d="m3038.21,3511.7s122.79-64.07,211.62,12.52c0,0-50.56,84.11-123.72,88.25-73.16,4.08-142.65-23.07-174.1,11.07,0,0,12.76-76.83,0-130.42-12.76-53.59,57.67-115.74,74.27-124.3,0,0,32.09,37.86,18.58,107.93l-6.76,35.01h.06l.06-.06h-.01Z"/>
      <path id="path226261" class="cls-11" d="m2930.16,3651.62s122.79-64.07,211.62,12.52c0,0-50.56,84.11-123.72,88.25s-142.65-23.07-174.1,11.07c0,0,12.76-76.83,0-130.42-12.76-53.59,57.67-115.74,74.27-124.3,0,0,32.09,37.86,18.58,107.93l-6.76,35.01h.06l.06-.06h-.01Z"/>
      <path id="path226269" class="cls-11" d="m2779.12,3804.4s128.03-53.41,209.69,30.58c0,0-57.84,79.45-131.12,77.35-73.22-2.21-140.03-35.18-174.4-3.84,0,0,19.57-75.43,11.59-129.89-7.98-54.52,67.74-110.32,85.04-117.49,0,0,28.6,40.48,8.91,109.04l-9.84,34.25h.13Z"/>
      <path id="path226277" class="cls-11" d="m2619.7,3927.89s137-23.82,197.29,75.96c0,0-74.62,64.71-145.5,46.48-70.83-18.23-128.38-65.06-169.04-42.17,0,0,36.41-69.14,41.18-124.01,4.78-54.81,91.39-92.62,109.86-95.76,0,0,18.58,45.72-16.43,108.23l-17.47,31.22h.12v.06h-.01Z"/>
      <path id="path226285" class="cls-11" d="m2425.85,4022.83s139.1-4.89,184.59,102.05c0,0-83.12,53.88-150.69,26.21-67.57-27.73-117.89-81.96-161.41-64.77,0,0,45.9-63.55,58.36-117.2,12.52-53.65,103.68-79.28,122.44-79.86,0,0,11.88,47.82-31.57,104.91l-21.73,28.54h0v.12h0Z"/>
    </g>
    <g>
      <path id="path226129" class="cls-13" d="m1825.71,4097.63s460.1,139.91,533.26,146.73v-47.76s-487.95-105.78-529.77-122.85l-3.44,23.88h-.06.01Z"/>
      <path id="path226293" class="cls-10" d="m2797.41,1077.68s512.41,388.98,512.41,924.75c0,0,132.46,750.76-94.13,1252.34,0,0-348.5,634.67-885.26,822.41"/>
      <path id="path226295" class="cls-13" d="m2312.96,4097.63s-460.1,139.91-533.26,146.73v-47.76s487.95-105.78,529.77-122.85l3.44,23.88h.06-.01Z"/>
      <path id="path226127" class="cls-10" d="m1341.32,1077.68s-512.35,388.98-512.35,924.75c0,0-132.46,750.76,94.13,1252.34,0,0,348.5,634.67,885.26,822.41"/>
    </g>
  </g>
  <g>
    <g>
      <path class="cls-17" d="m1888.04,4035.65c1.05,42.64,66.4,73.74,117.25,95.93,16.6,8.04,35.24-7.11,37.4-19.57-65.35-44.44-90.28-87.08-94.42-106.59-18.64,7.11-72.64-7.11-60.23,30.17h0v.06h0Z"/>
      <path class="cls-17" d="m2095.58,4125.35l35.24,15.96c39.43-32.85,119.41-71.06,114.11-111.02l-70.6-7.11c10.31,15.14-51.84,71.94-78.87,102.11h.12v.06Z"/>
      <path class="cls-17" d="m1900.45,4016.08c12.47-1.75,6.23-12.47,22.83-8.85,12.47,31.1,64.36,90.58,116.21,115.45,5.18,2.68-29.12-3.61-22.83,6.23-50.85-26.68-120.34-81.72-116.21-112.77h0v-.06Z"/>
      <path class="cls-17" d="m2195.24,4024.99c-10.31,29.3-39.43,70.19-78.87,93.31l-2.04,11.53c43.57-17.77,99.6-63.08,116.21-110.15l-35.24,5.3h-.06,0Z"/>
      <g>
        <path class="cls-17" d="m2068.61,4173.29c11.42,40.83,14.5,87.08,39.43,117.25l90.28-15.96c-71.59-63.08-68.56-87.08-87.2-124.3l-42.52,23.07h0v-.06h.01Z"/>
        <path class="cls-17" d="m2239.8,4318.15c29.12,16.83,32.21,59.47,41.47,95,11.42-8.85,20.79-24.87,60.23-19.57-9.38-34.66-13.51-73.74-45.67-99.49l-56.03,24h0v.06Z"/>
        <path class="cls-17" d="m2082.07,4170.67l15.55-7.11c10.31,24.87,39.43,88.77,76.83,120.81l-40.54,4.43c-32.21-29.3-37.4-77.24-51.84-118.19h0v.06h0Z"/>
        <path class="cls-17" d="m2261.59,4305.69c-6.23-26.68,20.79-8.85,21.73-8.04,17.71,21.26,38.39,73.74,39.43,95-26.97,3.61-24.93,8.04-32.21,14.21,9.38-19.57-15.55-79.97-29.12-101.29h.12l.06.12h-.01Z"/>
        <path class="cls-17" d="m2193.15,4340.4c44.62-21.26,102.69-46.25,107.99-35.53-2.04-8.04-10.31-15.14-16.6-21.26l-5.18-4.43c-10.31-11.53-17.71-18.64-34.25-25.69-22.83,6.23-43.57,14.21-61.16,20.39-108.92,25.69-78.87-11.53-83-.87-10.31,27.55,16.6,85.33,92.38,67.51h-.06v-.12h-.12,0Z"/>
        <path class="cls-17" d="m2101.75,4300.39c22.83-5.3,22.83,15.14,79.97-4.43,26.97-7.11,58.07-24.87,87.2-24.87,17.71,3.61,22.83,18.64,32.21,27.55-22.83-11.53-33.2-5.3-71.59,10.72-41.47,21.26-90.28,36.41-111.02,17.77-6.23-4.43-16.6-21.26-16.6-26.68h-.17v-.06h0Z"/>
      </g>
      <g>
        <path class="cls-17" d="m2040.59,4160.88l32.21,15.14c-16.6,63.08-51.84,103.04-75.78,127.91l-98.61-12.47c25.92-8.04,112.07-76.36,142.18-130.59h0Z"/>
        <path class="cls-17" d="m1795.66,4403.37c21.73-10.72,45.67,0,69.49,13.28-2.04-71.94-3.09-97.74,7.22-121.68l-34.25-23.07c-31.1,21.26-36.35,90.58-42.52,131.47h.06Z"/>
        <path class="cls-17" d="m2039.49,4177.77c-5.18,35.53-70.6,100.36-112.07,119,44.62,39.08,124.54-86.15,130.77-109.33-3.09-2.68-13.51,0-18.64-9.73h-.06v.06h0Z"/>
        <path class="cls-17" d="m1844.47,4273.71c34.25-26.68-22.83,98.61-2.04,131.47-13.51-2.68-19.75-5.3-26.97-3.61-3.09-33.78,8.33-101.29,29.12-127.91h-.06l-.06.06h.01Z"/>
        <path class="cls-17" d="m1823.68,4287.05c25.92-28.43,48.81-32.85,79.97-22.25,21.73,15.96,61.16,45.26,99.6,31.1-9.38,26.68-37.4,41.82-102.69,24-38.39-10.72-67.45-33.78-76.83-32.85h-.06.01Z"/>
        <path class="cls-17" d="m1833.99,4274.58c9.38-8.04,31.1-25.69,62.27,5.3,33.2,37.28,67.45,32.85,100.65,27.55-12.47,25.69-72.64,26.68-92.38,8.85-46.66-39.08-58.07-38.21-70.6-41.82h0v.12h.06,0Z"/>
      </g>
      <path class="cls-17" d="m1944.02,3973.44c177.48,25.69,170.2,5.3,263.57.87,47.76,15.14,45.67,32.85,35.24,69.26-97.51-41.82-142.18,9.73-197.17-7.11-74.67-23.07-154.65-14.21-155.58,1.75-6.23-31.98,13.51-56.79,53.94-64.83h0v.06Z"/>
      <path class="cls-17" d="m1906.74,3988.58c-14.5,9.73-20.79,28.43-19.75,35.53,34.25-10.72,75.78-23.07,130.77-12.47,66.4,19.57,88.25.87,125.53-4.43,83-6.23,98.61,6.23,102.69,21.26,3.09-11.53,7.22-27.55-7.22-39.08-37.4-8.85-67.45-3.61-96.58,2.68-52.95,15.14-103.8,8.85-158.79-2.68-38.39-7.11-57.14-3.61-76.83-.87h.12l.06.06Z"/>
      <path class="cls-17" d="m2012.58,4131.58c4.19-9.73,9.38-18.64,22.83-23.07,23.82-6.23,45.67-5.3,66.4-1.75,17.71.87,26.97,13.28,36.35,27.55,1.05,8.85,2.04,16.83-5.18,28.43-17.71,25.69-31.1,19.57-46.66,24.87-11.42-.87-19.75-.87-38.39-3.61-20.79-.87-36.35-13.28-36.35-17.77-2.04-10.72-2.04-22.25,1.05-34.66h-.06,0Z"/>
      <path class="cls-17" d="m2058.18,4106.77c-17.71,16.83-15.55,46.25-4.19,79.97,6.23,1.75,13.51,4.43,23.82.87,41.47-36.41,19.75-71.06,12.47-82.65-7.22-2.68-25.92-2.68-32.21,1.75h.12v.06h-.01Z"/>
    </g>
    <path class="cls-6" d="m2341.56,4391.78c-8.8-32.74-12.99-69.43-40.72-95.06.06,0,.12,0,.17.06-8.5-8.15-13.8-21.38-28.08-26.33-7.57-7.81-14.85-13.46-27.96-18.99-18.81,5.13-36.17,11.42-51.61,17.01-50.38-45.26-61.16-69.96-71.41-94.94,3.44-3.03,7.05-6.99,10.89-12.58,6.93-11.01,6.29-18.81,5.3-27.2,39.32-30,105.14-64.25,106.89-99.95,2.16-8.15,3.67-15.26,3.84-21.55.64-8.45-1.17-17.3-10.14-24.41h-.17c-6.47-5.59-16.43-10.43-30.99-15.09-93.37,4.43-86.09,24.87-263.57-.87-14.62,2.91-26.5,8.04-35.47,14.85-.58.06-1.28.17-1.86.23-12.64,8.45-18.93,23.71-19.75,32.21-1.22,3.73-1.11,8.5,1.11,14.91,1.05,42.64,66.4,73.74,117.25,95.93,2.33,1.11,4.54,1.75,6.87,1.98-2.62,11.65-2.62,22.54-.64,32.62,0,2.91,6.64,9.09,16.95,13.34-27.61,37.74-74.38,78.11-105.6,98.73-7.34-4.72-13.86-9.55-19.22-13.51-17.24-5.88-31.98-7.11-46.07-2.33-10.78,1.4-18.7,8.04-23.47,12.06.17,0,.47.12.64.17-3.26,2.8-6.29,6.23-8.97,10.14-.64.76-1.34,1.4-1.98,2.16h.52c-18.93,29.47-23.47,82.6-28.54,116.38,6.41-3.09,12.87-4.37,19.57-4.31,0,.82.06,1.75.12,2.56,7.05-1.75,13.16.76,25.86,3.26,7.92,3.15,15.9,7.34,23.94,11.71-1.75-59.7-2.68-87.61,2.97-109.04,9.73,4.54,20.56,8.97,32.39,12.23,6.64,1.81,12.76,3.15,18.64,4.31,24.58,8.27,63.61,4.54,76.01-13.92,2.97-3.61,5.24-7.51,6.99-11.88,21.67-23.12,50.27-57.9,66.64-109.1,1.22,0,2.45-.12,3.73-.41,7.34,31.16,12.12,63.78,26.79,89.12-2.68,13.98,2.5,32.85,16.54,46.83h.06c15.14,15.03,40.37,24.17,77.18,15.49,15.26-7.22,32.04-14.91,47.76-21.49,28.02,17.3,31.22,59.24,40.48,94.3,3.26-2.56,6.47-5.71,10.19-8.8-.23.87-.47,1.81-.87,2.62,3.32-2.91,4.72-5.36,7.92-7.57,1.51-.93,3.2-1.81,5.13-2.56,3.96-1.46,9.79-2.8,19.22-4.08h0c5.36-.23,11.47,0,18.64.93v-.12.12l-.12-.17h.01Zm-304.41-285.59c-46.54-32.68-71.35-64.07-82.25-85.57,27.09.17,59.47,4.25,91.04,14.04,40.48,12.47,75.32-12.17,129.78-9.44.35,15.84-37.05,53.12-64.31,81.49-2.91-1.05-5.94-1.75-9.49-1.86-3.73-.58-7.51-1.17-11.3-1.63,0,0-.06-.12-.12-.17-5.36-1.92-16.83-2.5-25.05-.82-9.09.35-18.52,1.63-28.25,4.02h-.06v-.06h.01Z"/>
  </g>
</svg>